# Blender 5.1.2
# www.blender.org
mtllib Bin.mtl
o Bin
v 0.040244 0.434258 0.202175
v -0.034416 0.000062 0.172873
v 0.114605 0.434258 0.171374
v -0.098007 0.000062 0.146533
v 0.171519 0.434258 0.114460
v -0.146678 0.000062 0.097862
v 0.202321 0.434258 0.040099
v -0.173019 0.000062 0.034270
v 0.202321 0.434258 -0.040390
v -0.173019 0.000062 -0.034561
v 0.171519 0.434258 -0.114751
v -0.146678 0.000062 -0.098153
v 0.114605 0.434258 -0.171665
v -0.098007 0.000062 -0.146824
v 0.040244 0.434258 -0.202466
v -0.034416 0.000062 -0.173164
v -0.040244 0.434258 -0.202466
v 0.034416 0.000062 -0.173164
v -0.114605 0.434258 -0.171665
v 0.098007 0.000062 -0.146824
v -0.171519 0.434258 -0.114751
v 0.146678 0.000062 -0.098153
v -0.202321 0.434258 -0.040390
v 0.173019 0.000062 -0.034561
v -0.202321 0.434258 0.040099
v 0.173019 0.000062 0.034270
v -0.171519 0.434258 0.114460
v 0.146678 0.000062 0.097862
v -0.114605 0.434258 0.171374
v 0.098007 0.000062 0.146533
v -0.040244 0.434258 0.202175
v 0.034416 0.000062 0.172873
v 0.034421 0.020709 0.172901
v 0.098023 0.020709 0.146556
v 0.146701 0.020709 0.097877
v 0.173046 0.020709 0.034275
v 0.173046 0.020709 -0.034567
v 0.146701 0.020709 -0.098168
v 0.098023 0.020709 -0.146847
v 0.034421 0.020709 -0.173192
v -0.034421 0.020709 -0.173192
v -0.098023 0.020709 -0.146847
v -0.146701 0.020709 -0.098168
v -0.173046 0.020709 -0.034567
v -0.173046 0.020709 0.034275
v -0.146701 0.020709 0.097877
v -0.098023 0.020709 0.146556
v -0.034421 0.020709 0.172901
v -0.038154 0.470387 0.191669
v -0.108654 0.470387 0.162467
v -0.162612 0.470387 0.108508
v -0.191814 0.470387 0.038009
v -0.191814 0.470387 -0.038300
v -0.162612 0.470387 -0.108800
v -0.108654 0.470387 -0.162758
v -0.038154 0.470387 -0.191960
v 0.038154 0.470387 -0.191960
v 0.108654 0.470387 -0.162758
v 0.162612 0.470387 -0.108800
v 0.191814 0.470387 -0.038300
v 0.191814 0.470387 0.038009
v 0.162612 0.470387 0.108508
v 0.108654 0.470387 0.162467
v 0.038154 0.470387 0.191669
v -0.114612 0.470387 0.171384
v -0.040247 0.470387 0.202187
v -0.171530 0.470387 0.114467
v -0.202333 0.470387 0.040101
v -0.202333 0.470387 -0.040392
v -0.171530 0.470387 -0.114758
v -0.114612 0.470387 -0.171675
v -0.040247 0.470387 -0.202479
v 0.040247 0.470387 -0.202479
v 0.114612 0.470387 -0.171675
v 0.171530 0.470387 -0.114758
v 0.202333 0.470387 -0.040392
v 0.202333 0.470387 0.040101
v 0.171530 0.470387 0.114467
v 0.114612 0.470387 0.171384
v 0.040247 0.470387 0.202187
v -0.108654 0.427720 0.162467
v -0.038154 0.427720 0.191669
v -0.162612 0.427720 0.108508
v -0.191814 0.427720 0.038009
v -0.191814 0.427720 -0.038300
v -0.162612 0.427720 -0.108800
v -0.108654 0.427720 -0.162758
v -0.038154 0.427720 -0.191960
v 0.038154 0.427720 -0.191960
v 0.108654 0.427720 -0.162758
v 0.162612 0.427720 -0.108800
v 0.191814 0.427720 -0.038300
v 0.191814 0.427720 0.038009
v 0.162612 0.427720 0.108508
v 0.108654 0.427720 0.162467
v 0.038154 0.427720 0.191669
vn 1.0000 -0.0003 -0.0000
vn 0.9239 -0.0003 0.3827
vn 0.9239 -0.0003 -0.3827
vn 0.7071 -0.0003 -0.7071
vn 0.3827 -0.0003 -0.9239
vn -0.0000 -0.0003 -1.0000
vn 0.3817 -0.0706 0.9216
vn 0.7071 -0.0003 0.7071
vn -0.0000 -1.0000 -0.0000
vn -0.0000 -0.0013 1.0000
vn -0.3817 -0.0706 0.9216
vn -0.7053 -0.0706 0.7053
vn -0.9216 -0.0706 0.3817
vn -0.9975 -0.0706 -0.0000
vn -0.9216 -0.0706 -0.3817
vn -0.7053 -0.0706 -0.7053
vn -0.3817 -0.0706 -0.9216
vn -0.0000 -0.0706 -0.9975
vn 0.3817 -0.0706 -0.9216
vn 0.7053 -0.0706 -0.7053
vn 0.9216 -0.0706 -0.3817
vn 0.9975 -0.0706 -0.0000
vn 0.9216 -0.0706 0.3817
vn 0.7053 -0.0706 0.7053
vn -0.7071 -0.0013 0.7071
vn -0.9239 -0.0013 0.3827
vn -1.0000 -0.0013 -0.0000
vn -0.9239 -0.0013 -0.3827
vn -0.7071 -0.0013 -0.7071
vn -0.3827 -0.0013 -0.9239
vn -0.0000 -0.0013 -1.0000
vn 0.3827 -0.0013 -0.9239
vn 0.7071 -0.0013 -0.7071
vn 0.9239 -0.0013 -0.3827
vn 1.0000 -0.0013 -0.0000
vn 0.9239 -0.0013 0.3827
vn 0.7071 -0.0013 0.7071
vn 0.3827 -0.0013 0.9239
vn -0.0000 -0.0706 0.9975
vn -0.0000 -0.0003 1.0000
vn -0.7071 -0.0003 0.7071
vn -0.9239 -0.0003 0.3827
vn -1.0000 -0.0003 -0.0000
vn -0.9239 -0.0003 -0.3827
vn -0.7071 -0.0003 -0.7071
vn -0.3827 -0.0003 -0.9239
vn 0.3827 -0.0003 0.9239
vn -0.3827 -0.0013 0.9239
vn -0.9239 -0.0000 -0.3827
vn -0.0000 1.0000 -0.0000
vn 0.7071 -0.0000 0.7071
vn -0.7071 -0.0000 -0.7071
vn 0.3827 -0.0000 0.9239
vn -0.3827 -0.0000 -0.9239
vn -0.0000 -0.0000 1.0000
vn 0.3827 -0.0000 -0.9239
vn -0.0000 -0.0000 -1.0000
vn -0.3827 -0.0000 0.9239
vn 0.7071 -0.0000 -0.7071
vn -0.7071 -0.0000 0.7071
vn 0.9239 -0.0000 -0.3827
vn -0.9239 -0.0000 0.3827
vn 1.0000 -0.0000 -0.0000
vn -1.0000 -0.0000 -0.0000
vn 0.9239 -0.0000 0.3827
vn -0.3827 -0.0003 0.9239
vt 0.218750 1.000000
vt 0.218750 0.982573
vt 0.281250 0.982573
vt 0.281250 1.000000
vt 0.156250 1.000000
vt 0.156250 0.982573
vt 0.343750 0.982573
vt 0.343750 1.000000
vt 0.406250 0.982573
vt 0.406250 1.000000
vt 0.468750 0.982573
vt 0.468750 1.000000
vt 0.531250 0.982573
vt 0.531250 1.000000
vt 0.031250 0.982573
vt 0.031250 0.522948
vt 0.093750 0.522948
vt 0.093750 0.982573
vt 0.093750 1.000000
vt 0.796822 0.485388
vt 0.883337 0.449553
vt 0.949553 0.383337
vt 0.985388 0.296822
vt 0.985388 0.203178
vt 0.949553 0.116663
vt 0.883337 0.050447
vt 0.796822 0.014612
vt 0.703178 0.014612
vt 0.616663 0.050447
vt 0.550447 0.116663
vt 0.514612 0.203178
vt 0.514612 0.296822
vt 0.550447 0.383337
vt 0.616663 0.449553
vt 0.703178 0.485388
vt 0.031250 0.500000
vt 0.968750 0.522948
vt 0.968750 0.500000
vt 0.906250 0.982573
vt 0.906250 0.522948
vt 0.968750 0.982573
vt 0.843750 0.982573
vt 0.843750 0.522948
vt 0.781250 0.982573
vt 0.781250 0.522948
vt 0.718750 0.982573
vt 0.718750 0.522948
vt 0.656250 0.982573
vt 0.656250 0.522948
vt 0.593750 0.982573
vt 0.593750 0.522948
vt 0.531250 0.522948
vt 0.468750 0.522948
vt 0.406250 0.522948
vt 0.343750 0.522948
vt 0.281250 0.522948
vt 0.218750 0.522948
vt 0.156250 0.522948
vt 0.843750 0.500000
vt 0.906250 0.500000
vt 0.781250 0.500000
vt 0.718750 0.500000
vt 0.656250 0.500000
vt 0.593750 0.500000
vt 0.531250 0.500000
vt 0.468750 0.500000
vt 0.406250 0.500000
vt 0.343750 0.500000
vt 0.281250 0.500000
vt 0.218750 0.500000
vt 0.156250 0.500000
vt 0.093750 0.500000
vt 0.031250 1.000000
vt 0.968750 1.000000
vt 0.906250 1.000000
vt 0.843750 1.000000
vt 0.781250 1.000000
vt 0.718750 1.000000
vt 0.656250 1.000000
vt 0.593750 1.000000
vt 0.000000 0.000000
s 0
f 77/1/1 7/2/1 9/3/1 76/4/1
f 78/5/2 5/6/2 7/2/2 77/1/2
f 76/4/3 9/3/3 11/7/3 75/8/3
f 75/8/4 11/7/4 13/9/4 74/10/4
f 74/10/5 13/9/5 15/11/5 73/12/5
f 73/12/6 15/11/6 17/13/6 72/14/6
f 1/15/7 33/16/7 34/17/7 3/18/7
f 3/18/8 5/6/8 78/5/8 79/19/8
f 2/20/9 4/21/9 6/22/9 8/23/9 10/24/9 12/25/9 14/26/9 16/27/9 18/28/9 20/29/9 22/30/9 24/31/9 26/32/9 28/33/9 30/34/9 32/35/9
f 32/36/10 33/16/10 48/37/10 2/38/10
f 29/39/11 47/40/11 48/37/11 31/41/11
f 27/42/12 46/43/12 47/40/12 29/39/12
f 25/44/13 45/45/13 46/43/13 27/42/13
f 23/46/14 44/47/14 45/45/14 25/44/14
f 21/48/15 43/49/15 44/47/15 23/46/15
f 19/50/16 42/51/16 43/49/16 21/48/16
f 17/13/17 41/52/17 42/51/17 19/50/17
f 15/11/18 40/53/18 41/52/18 17/13/18
f 13/9/19 39/54/19 40/53/19 15/11/19
f 11/7/20 38/55/20 39/54/20 13/9/20
f 9/3/21 37/56/21 38/55/21 11/7/21
f 7/2/22 36/57/22 37/56/22 9/3/22
f 5/6/23 35/58/23 36/57/23 7/2/23
f 3/18/24 34/17/24 35/58/24 5/6/24
f 47/40/25 46/43/25 6/59/25 4/60/25
f 46/43/26 45/45/26 8/61/26 6/59/26
f 45/45/27 44/47/27 10/62/27 8/61/27
f 44/47/28 43/49/28 12/63/28 10/62/28
f 43/49/29 42/51/29 14/64/29 12/63/29
f 42/51/30 41/52/30 16/65/30 14/64/30
f 41/52/31 40/53/31 18/66/31 16/65/31
f 40/53/32 39/54/32 20/67/32 18/66/32
f 39/54/33 38/55/33 22/68/33 20/67/33
f 38/55/34 37/56/34 24/69/34 22/68/34
f 37/56/35 36/57/35 26/70/35 24/69/35
f 36/57/36 35/58/36 28/71/36 26/70/36
f 35/58/37 34/17/37 30/72/37 28/71/37
f 34/17/38 33/16/38 32/36/38 30/72/38
f 33/16/39 1/15/39 31/41/39 48/37/39
f 80/73/40 66/74/40 31/41/40 1/15/40
f 27/42/41 29/39/41 65/75/41 67/76/41
f 25/44/42 27/42/42 67/76/42 68/77/42
f 23/46/43 25/44/43 68/77/43 69/78/43
f 21/48/44 23/46/44 69/78/44 70/79/44
f 19/50/45 21/48/45 70/79/45 71/80/45
f 72/14/46 17/13/46 19/50/46 71/80/46
f 1/15/47 3/18/47 79/19/47 80/73/47
f 48/37/48 47/40/48 4/60/48 2/38/48
f 62/81/49 61/81/49 93/81/49 94/81/49
f 49/81/50 50/81/50 65/81/50 66/81/50
f 50/81/50 51/81/50 67/81/50 65/81/50
f 51/81/50 52/81/50 68/81/50 67/81/50
f 52/81/50 53/81/50 69/81/50 68/81/50
f 53/81/50 54/81/50 70/81/50 69/81/50
f 54/81/50 55/81/50 71/81/50 70/81/50
f 55/81/50 56/81/50 72/81/50 71/81/50
f 56/81/50 57/81/50 73/81/50 72/81/50
f 57/81/50 58/81/50 74/81/50 73/81/50
f 58/81/50 59/81/50 75/81/50 74/81/50
f 59/81/50 60/81/50 76/81/50 75/81/50
f 60/81/50 61/81/50 77/81/50 76/81/50
f 61/81/50 62/81/50 78/81/50 77/81/50
f 62/81/50 63/81/50 79/81/50 78/81/50
f 63/81/50 64/81/50 80/81/50 79/81/50
f 64/81/50 49/81/50 66/81/50 80/81/50
f 55/81/51 54/81/51 86/81/51 87/81/51
f 63/81/52 62/81/52 94/81/52 95/81/52
f 56/81/53 55/81/53 87/81/53 88/81/53
f 64/81/54 63/81/54 95/81/54 96/81/54
f 57/81/55 56/81/55 88/81/55 89/81/55
f 50/81/56 49/81/56 82/81/56 81/81/56
f 49/81/57 64/81/57 96/81/57 82/81/57
f 58/81/58 57/81/58 89/81/58 90/81/58
f 51/81/59 50/81/59 81/81/59 83/81/59
f 59/81/60 58/81/60 90/81/60 91/81/60
f 52/81/61 51/81/61 83/81/61 84/81/61
f 60/81/62 59/81/62 91/81/62 92/81/62
f 53/81/63 52/81/63 84/81/63 85/81/63
f 61/81/64 60/81/64 92/81/64 93/81/64
f 54/81/65 53/81/65 85/81/65 86/81/65
f 29/39/66 31/41/66 66/74/66 65/75/66
o BinRubbish
v -0.038119 0.461249 0.191763
v -0.108168 0.452722 0.161435
v -0.162628 0.483725 0.108775
v -0.191808 0.462177 0.038008
v -0.191362 0.445665 -0.037991
v -0.162876 0.460761 -0.108968
v -0.108578 0.457135 -0.163252
v -0.037435 0.472803 -0.192317
v 0.038357 0.463049 -0.191963
v 0.109190 0.460563 -0.163648
v 0.162538 0.470025 -0.108742
v 0.191566 0.453897 -0.037668
v 0.191664 0.456212 0.037841
v 0.162608 0.464425 0.108508
v 0.106825 0.441150 0.160470
v 0.038289 0.470653 0.192605
v 0.038144 0.525244 0.038014
v -0.038126 0.525236 -0.038426
v -0.037928 0.553200 0.039037
v 0.035889 0.535615 -0.037761
v -0.039583 0.535148 -0.107949
v 0.037240 0.525992 0.107942
v 0.037482 0.515664 -0.107740
v -0.037818 0.544652 0.108232
v -0.073292 0.456395 0.176577
v -0.134514 0.437632 0.136149
v -0.177280 0.459105 0.073321
v -0.191537 0.458290 -0.000806
v -0.176795 0.467770 -0.075409
v -0.135670 0.465655 -0.136029
v -0.073427 0.475471 -0.177063
v 0.000248 0.445445 -0.192340
v 0.072441 0.485310 -0.174434
v 0.137707 0.431366 -0.140259
v 0.178028 0.437633 -0.070833
v 0.192882 0.494710 0.004166
v 0.176990 0.448255 0.073437
v 0.135777 0.467992 0.135571
v 0.073283 0.462807 0.176973
v -0.000674 0.473655 0.192082
v 0.037766 0.492751 0.149829
v -0.038188 0.480467 -0.149598
v -0.114888 0.498523 -0.038553
v -0.038918 0.526974 -0.001985
v -0.000435 0.516703 -0.038331
v 0.037995 0.501835 -0.073794
v 0.114773 0.508439 -0.037953
v 0.114977 0.517530 0.038102
v 0.037921 0.526325 0.000140
v -0.000852 0.530566 0.038177
v -0.038149 0.545278 0.073269
v -0.115162 0.534778 0.038437
v -0.038449 0.502398 -0.074043
v 0.037940 0.522760 0.073973
v 0.039381 0.440893 -0.151109
v -0.038129 0.490457 0.150078
v 0.000208 0.510909 -0.108893
v -0.000297 0.546084 0.108031
v -0.100649 0.496085 -0.109389
v 0.100300 0.462438 0.108451
v -0.100667 0.475782 0.108427
v 0.100534 0.512619 -0.108707
v 0.087350 0.450802 -0.143821
v -0.107626 0.502186 0.073205
v 0.107352 0.505368 0.073541
v -0.106986 0.520733 -0.078643
v -0.000176 0.563090 0.072917
v 0.000050 0.500270 -0.073527
v 0.000049 0.521550 -0.000152
v -0.114630 0.508121 0.000708
v -0.087343 0.457186 -0.144077
v -0.000031 0.464837 -0.150366
v 0.107758 0.515783 -0.073436
v 0.116470 0.486202 -0.001966
v 0.086721 0.474028 0.142669
v -0.000083 0.471353 0.149956
v -0.086740 0.481877 0.142833
v -0.055911 0.452439 0.183104
v -0.121736 0.458916 0.148851
v -0.170192 0.449506 0.090898
v -0.191730 0.460100 0.018729
v -0.184595 0.470166 -0.056006
v -0.148856 0.476567 -0.121703
v -0.091322 0.479694 -0.170356
v -0.019476 0.457807 -0.191955
v 0.055035 0.485325 -0.184349
v 0.120400 0.470555 -0.146428
v 0.171135 0.442146 -0.089756
v 0.191771 0.467842 -0.019273
v 0.184569 0.467577 0.055672
v 0.149485 0.472184 0.122269
v 0.090030 0.452261 0.168556
v 0.019871 0.453190 0.190865
v 0.036779 0.495152 0.170762
v -0.038359 0.465624 -0.171412
v -0.076149 0.508060 -0.038847
v -0.038992 0.519006 -0.019155
v 0.018901 0.527803 -0.038185
v 0.038088 0.500567 -0.055931
v 0.153715 0.507974 -0.038304
v 0.077285 0.485780 0.037557
v 0.037214 0.531786 0.019134
v -0.019537 0.518325 0.037825
v -0.038513 0.540262 0.055237
v -0.153222 0.454305 0.037787
v -0.037909 0.509837 -0.090591
v 0.038353 0.498302 0.090866
v 0.038731 0.506906 -0.129897
v -0.038583 0.470298 0.129339
v 0.020964 0.499753 -0.109540
v 0.019433 0.549919 0.108912
v -0.069548 0.512405 -0.109341
v 0.131238 0.448376 0.108166
v -0.068922 0.528941 0.108175
v 0.130939 0.477859 -0.108670
v -0.090669 0.456370 0.168913
v -0.148900 0.452439 0.122085
v -0.184438 0.457851 0.055644
v -0.192254 0.474907 -0.018794
v -0.169983 0.463424 -0.091039
v -0.122245 0.485335 -0.148520
v -0.055646 0.476717 -0.184709
v 0.019045 0.467963 -0.191968
v 0.090806 0.475446 -0.169691
v 0.150053 0.458420 -0.123035
v 0.184424 0.464014 -0.055641
v 0.192939 0.486860 0.020479
v 0.169828 0.464005 0.090890
v 0.121549 0.457306 0.148336
v 0.055855 0.471908 0.184474
v -0.019280 0.469155 0.192611
v 0.037783 0.472249 0.129036
v -0.038172 0.511859 -0.130236
v -0.153225 0.486443 -0.038183
v -0.038281 0.524202 0.018863
v -0.018368 0.534016 -0.038551
v 0.038085 0.514700 -0.091183
v 0.077231 0.511503 -0.038352
v 0.153490 0.467661 0.038084
v 0.039258 0.516614 -0.019485
v 0.019103 0.541596 0.038002
v -0.037809 0.561983 0.090995
v -0.076506 0.520534 0.038311
v -0.038008 0.503449 -0.056579
v 0.038392 0.498434 0.055521
v 0.038680 0.458584 -0.171185
v -0.037634 0.483862 0.172322
v -0.019345 0.528756 -0.108621
v -0.019136 0.537776 0.108555
v -0.130440 0.487061 -0.108128
v 0.070907 0.480438 0.109548
v -0.131504 0.485178 0.108766
v 0.069264 0.516098 -0.108813
v 0.079895 0.481234 -0.159424
v 0.093226 0.488196 -0.124528
v 0.110006 0.492639 -0.136663
v 0.062211 0.480564 -0.146208
v -0.111534 0.503718 0.055867
v -0.103826 0.493520 0.090830
v -0.073006 0.516275 0.073189
v -0.142587 0.464400 0.073312
v 0.111323 0.508904 0.055384
v 0.104056 0.497995 0.090852
v 0.142664 0.486801 0.073078
v 0.072774 0.519815 0.073377
v -0.111477 0.515302 -0.055578
v -0.104686 0.494481 -0.090833
v -0.142285 0.474789 -0.074254
v -0.072817 0.503158 -0.074414
v -0.000341 0.535698 0.055221
v -0.000070 0.554186 0.090799
v 0.019471 0.507571 0.072037
v -0.019079 0.567401 0.073257
v 0.000203 0.520423 -0.055890
v -0.001937 0.523023 -0.091150
v -0.019122 0.500607 -0.073619
v 0.018354 0.508103 -0.073881
v -0.000054 0.523153 0.018936
v -0.000579 0.513705 -0.019274
v -0.018833 0.526919 -0.000082
v 0.018808 0.531737 -0.000104
v -0.114909 0.530592 0.018747
v -0.114833 0.495379 -0.019524
v -0.153786 0.503667 0.000786
v -0.076945 0.534863 -0.000987
v -0.111271 0.468443 -0.139474
v -0.062997 0.451058 -0.148676
v -0.080203 0.478205 -0.158985
v -0.093817 0.461130 -0.126383
v -0.019113 0.462521 -0.150661
v 0.018263 0.486837 -0.149911
v 0.000026 0.463141 -0.171202
v -0.000642 0.515889 -0.129303
v 0.103432 0.524239 -0.091494
v 0.111380 0.533396 -0.055895
v 0.143342 0.448497 -0.070563
v 0.072805 0.517637 -0.073749
v 0.114698 0.508912 -0.018728
v 0.114982 0.501335 0.018878
v 0.153572 0.476454 0.000486
v 0.076326 0.527652 0.000154
v 0.111755 0.476614 0.139416
v 0.062307 0.512457 0.146230
v 0.079492 0.454673 0.159432
v 0.093921 0.485193 0.125840
v 0.019029 0.468124 0.150055
v -0.019047 0.456797 0.150182
v -0.000008 0.463999 0.170935
v -0.000124 0.509375 0.129144
v -0.062536 0.475613 0.146441
v -0.112519 0.495266 0.138402
v -0.080131 0.464852 0.159822
v -0.093756 0.470284 0.125618
v -0.121494 0.469447 0.123799
v -0.100895 0.460130 0.154268
v -0.058951 0.480037 0.166402
v -0.019111 0.514878 0.128999
v -0.018581 0.442710 0.170153
v 0.017819 0.489817 0.170810
v 0.066169 0.474398 0.127815
v 0.058492 0.517413 0.165212
v 0.100636 0.457756 0.154028
v 0.077052 0.512971 0.018223
v 0.153972 0.490750 0.020335
v 0.153732 0.502750 -0.018066
v 0.075216 0.528615 -0.055871
v 0.148372 0.470167 -0.055536
v 0.136662 0.464583 -0.089808
v 0.019519 0.508535 -0.129712
v 0.019601 0.452205 -0.171266
v -0.019651 0.437792 -0.172253
v -0.065803 0.500845 -0.127617
v -0.060174 0.434482 -0.167650
v -0.101178 0.481628 -0.154204
v -0.076728 0.537797 -0.019596
v -0.153462 0.492184 -0.019052
v -0.154036 0.508663 0.020070
v 0.018951 0.527791 -0.019167
v -0.019014 0.526583 -0.019255
v -0.018450 0.529749 0.019042
v 0.021749 0.494791 -0.091491
v -0.018193 0.491247 -0.090811
v -0.018606 0.538794 -0.057041
v -0.019592 0.549269 0.090520
v 0.019087 0.515621 0.090735
v 0.019067 0.544719 0.055739
v -0.071843 0.505228 -0.090640
v -0.136536 0.470561 -0.091017
v -0.147783 0.510881 -0.056937
v 0.070886 0.505452 0.091160
v 0.136937 0.476711 0.090776
v 0.147678 0.460492 0.055477
v -0.137225 0.442267 0.090919
v -0.070814 0.526218 0.090971
v -0.074843 0.515244 0.055479
v 0.065714 0.503438 -0.127528
v 0.120714 0.476934 -0.123246
v 0.100134 0.487836 -0.152821
v 0.058991 0.472788 -0.165594
v -0.148023 0.479119 0.055675
v 0.074927 0.511781 0.055375
v -0.075012 0.493893 -0.054739
v -0.018875 0.562303 0.055943
v 0.018803 0.527417 -0.055977
v 0.018645 0.538437 0.019020
v -0.076867 0.537561 0.018538
v -0.120788 0.485861 -0.122870
v -0.019353 0.529740 -0.129652
v 0.071739 0.505225 -0.091057
v 0.076474 0.542965 -0.019019
v 0.121496 0.471074 0.123829
v 0.019717 0.446598 0.129861
v -0.066103 0.472779 0.127547
vn -0.0962 0.2935 0.9511
vn 0.0359 0.2586 0.9653
vn -0.1906 0.6043 -0.7736
vn -0.0276 0.9495 -0.3127
vn 0.1344 0.9404 0.3124
vn -0.2530 0.8568 -0.4494
vn -0.5069 0.8618 0.0214
vn -0.2298 0.9334 -0.2756
vn 0.5208 0.8518 0.0570
vn 0.3623 0.6744 -0.6434
vn 0.2345 0.7207 -0.6524
vn -0.2490 0.6613 -0.7076
vn 0.3263 0.9444 0.0411
vn -0.1581 0.8785 -0.4508
vn -0.7192 0.6066 0.3387
vn 0.1765 0.9258 -0.3343
vn -0.4528 0.8315 -0.3218
vn -0.1657 0.4082 -0.8977
vn 0.0299 0.6914 0.7219
vn -0.5677 0.8205 0.0665
vn 0.0213 0.7462 0.6654
vn 0.7133 0.5437 0.4424
vn 0.4430 0.7514 0.4890
vn -0.0383 0.6665 0.7445
vn -0.1570 0.6664 0.7289
vn -0.5538 0.4919 -0.6718
vn -0.0558 0.9596 0.2759
vn -0.4432 0.8735 -0.2013
vn 0.9244 0.3811 0.0159
vn -0.2440 0.9690 0.0383
vn 0.6826 0.7096 0.1748
vn -0.6331 0.7158 0.2946
vn -0.3537 0.9342 -0.0472
vn -0.1504 0.9839 0.0964
vn 0.4303 0.8809 -0.1973
vn 0.3699 0.8804 -0.2966
vn -0.6143 0.4672 0.6359
vn -0.0875 0.8524 -0.5156
vn 0.3285 0.9355 -0.1303
vn 0.1750 0.5508 0.8161
vn 0.7510 0.5892 0.2981
vn -0.4589 0.4682 -0.7551
vn 0.6488 0.5570 -0.5184
vn -0.2089 0.7377 -0.6421
vn 0.4023 0.8737 0.2735
vn 0.8185 0.5486 -0.1704
vn 0.6882 0.3672 -0.6257
vn -0.5106 0.8381 -0.1919
vn 0.0836 0.9893 0.1193
vn 0.2400 0.7897 -0.5647
vn 0.2146 0.9478 0.2357
vn 0.2762 0.5150 0.8115
vn 0.8490 0.3441 0.4009
vn 0.0936 0.9124 -0.3985
vn -0.5619 0.7030 -0.4359
vn -0.6470 0.6720 0.3604
vn -0.0342 0.5715 0.8199
vn -0.3918 0.9161 0.0850
vn -0.0891 0.5084 0.8565
vn 0.1123 0.8559 0.5049
vn 0.2264 0.5731 -0.7876
vn -0.7611 0.4806 0.4356
vn -0.1663 0.4461 0.8794
vn -0.2682 0.8395 0.4724
vn -0.2813 0.7955 0.5367
vn -0.6172 0.3579 0.7007
vn -0.4402 0.5097 0.7392
vn -0.4081 0.5584 0.7223
vn -0.2591 0.8901 0.3750
vn -0.0931 0.3986 0.9124
vn -0.2014 0.7252 0.6585
vn -0.3636 0.3683 0.8556
vn -0.4643 0.6750 -0.5734
vn 0.6577 0.7516 -0.0502
vn 0.8758 0.4410 0.1961
vn -0.3499 0.5157 0.7821
vn -0.0968 0.8313 0.5474
vn -0.4988 0.8154 -0.2937
vn 0.3674 0.7914 -0.4886
vn -0.2878 0.5196 -0.8045
vn 0.3443 0.4993 0.7951
vn 0.7892 0.3259 0.5206
vn -0.0028 0.5064 0.8623
vn -0.6794 0.7027 -0.2113
vn 0.4258 0.4608 0.7787
vn 0.2021 0.9790 0.0254
vn 0.0725 0.6119 0.7876
vn 0.5623 0.8269 0.0014
vn -0.2517 0.9303 0.2668
vn 0.4957 0.6585 0.5662
vn -0.1698 0.9706 -0.1709
vn 0.1087 0.5412 0.8338
vn 0.6060 0.7805 0.1535
vn 0.7519 0.6422 -0.1493
vn 0.2110 0.9773 -0.0181
vn 0.0891 0.5842 0.8067
vn -0.0296 0.7802 -0.6248
vn -0.0189 0.6430 0.7657
vn -0.0478 0.8924 -0.4487
vn 0.1178 0.5084 -0.8530
vn 0.4882 0.5934 -0.6399
vn 0.5884 0.7014 -0.4024
vn 0.3205 0.6992 0.6390
vn 0.4126 0.8548 0.3146
vn 0.8770 0.4774 0.0553
vn -0.1841 0.4862 -0.8543
vn 0.4249 0.3841 -0.8197
vn -0.3713 0.9285 0.0022
vn -0.2884 0.9566 -0.0420
vn -0.0352 0.8980 0.4386
vn 0.6713 0.6896 -0.2717
vn 0.6939 0.5895 0.4135
vn -0.3134 0.9483 0.0508
vn -0.5080 0.7337 -0.4512
vn -0.4003 0.4896 -0.7746
vn -0.3682 0.4043 -0.8373
vn -0.4046 0.6676 -0.6250
vn 0.6836 0.3660 0.6314
vn -0.1977 0.6108 0.7667
vn -0.7241 0.5228 -0.4498
vn -0.4682 0.4272 -0.7735
vn 0.1795 0.9827 -0.0468
vn 0.3335 0.5158 0.7891
vn -0.6650 0.7241 -0.1831
vn -0.4857 0.7148 -0.5032
vn 0.0241 0.8538 -0.5201
vn -0.6307 0.7681 0.1108
vn -0.4854 0.6386 -0.5971
vn -0.1949 0.9785 -0.0675
vn -0.3035 0.5475 0.7798
vn -0.7724 0.6240 -0.1182
vn -0.2709 0.7735 -0.5730
vn -0.5182 0.8190 -0.2463
vn -0.5430 0.8372 0.0649
vn 0.0791 0.8910 0.4470
vn -0.1706 0.9609 -0.2183
vn -0.3618 0.8831 0.2987
vn 0.6228 0.7516 0.2173
vn 0.5692 0.7534 -0.3291
vn -0.1364 0.9906 0.0020
vn 0.3032 0.9463 -0.1120
vn 0.4264 0.8693 0.2500
vn 0.6566 0.7440 -0.1237
vn -0.7336 0.6644 0.1432
vn 0.4627 0.8860 -0.0303
vn 0.3150 0.4744 0.8220
vn -0.2946 0.7815 0.5500
vn -0.7174 0.6328 -0.2914
vn -0.4987 0.5749 -0.6486
vn 0.2663 0.4853 -0.8328
vn -0.0115 0.7926 0.6096
vn -0.2855 0.8369 0.4669
vn 0.3833 0.7176 0.5815
vn 0.0283 0.9078 0.4185
vn 0.4724 0.4401 -0.7636
vn 0.5893 0.6485 -0.4818
vn 0.8065 0.4929 0.3265
vn 0.6030 0.7482 0.2769
vn 0.7554 0.6331 0.1691
vn 0.1197 0.7628 -0.6354
vn -0.3859 0.9104 0.1490
vn -0.3170 0.7073 0.6318
vn -0.1880 0.9290 -0.3188
vn -0.4472 0.8766 0.1777
vn -0.4453 0.8431 0.3014
vn -0.6092 0.5679 0.5536
vn -0.3776 0.5676 -0.7316
vn -0.4756 0.6399 -0.6035
vn 0.2608 0.8030 0.5359
vn 0.2178 0.4886 0.8449
vn 0.5022 0.8633 -0.0497
vn 0.6033 0.7920 0.0937
vn -0.0454 0.7892 0.6125
vn 0.2470 0.4371 0.8649
vn 0.0577 0.9936 -0.0972
vn 0.4040 0.9140 -0.0367
vn 0.6542 0.7016 -0.2824
vn -0.6372 0.4905 0.5945
vn -0.4985 0.7608 -0.4155
vn 0.0376 0.4146 -0.9092
vn -0.6187 0.6489 -0.4429
vn -0.5884 0.7323 0.3428
vn -0.7471 0.5640 0.3517
vn -0.5577 0.7207 0.4118
vn -0.6018 0.7927 -0.0971
vn -0.3369 0.9390 0.0687
vn 0.4452 0.4267 -0.7872
vn 0.2380 0.6237 -0.7445
vn 0.0559 0.8831 -0.4659
vn 0.6150 0.4667 -0.6356
vn 0.3245 0.7474 -0.5797
vn 0.4476 0.5427 -0.7107
vn 0.5946 0.4594 -0.6599
vn 0.8316 0.4991 -0.2436
vn -0.6449 0.3833 0.6611
vn -0.3833 0.7709 0.5088
vn 0.3048 0.8392 0.4504
vn -0.7816 0.5822 0.2239
vn -0.7810 0.5517 0.2927
vn -0.5825 0.6665 0.4653
vn -0.3154 0.8438 0.4342
vn -0.3187 0.8266 -0.4638
vn 0.2365 0.9683 -0.0804
vn -0.1146 0.7388 -0.6641
vn 0.1545 0.9830 0.0993
vn 0.4326 0.8296 0.3530
vn -0.1154 0.9710 0.2093
vn 0.2104 0.5658 -0.7973
vn 0.5058 0.6326 -0.5865
vn -0.7380 0.6497 -0.1826
vn -0.4293 0.8998 0.0783
vn -0.2684 0.6469 -0.7138
vn 0.6037 0.7081 -0.3664
vn -0.5484 0.8047 -0.2274
vn -0.5526 0.8136 -0.1806
vn 0.2947 0.9123 -0.2843
vn 0.0912 0.9470 0.3079
vn -0.3580 0.7748 -0.5211
vn 0.2672 0.9636 -0.0030
vn -0.2120 0.6381 -0.7402
vn 0.5306 0.8081 -0.2559
vn 0.1299 0.6869 -0.7150
vn -0.0110 0.3788 -0.9254
vn 0.1178 0.3336 -0.9353
vn 0.6348 0.7665 0.0972
vn -0.2394 0.9708 0.0161
vn -0.2488 0.9660 -0.0701
vn -0.0921 0.9956 0.0156
vn 0.3593 0.7225 -0.5906
vn 0.5698 0.5772 0.5850
vn -0.3418 0.9319 0.1215
vn 0.1503 0.9857 0.0760
vn 0.2323 0.9306 0.2829
vn 0.2735 0.6273 -0.7292
vn -0.6937 0.4969 -0.5214
vn 0.8401 0.4985 0.2138
vn 0.3646 0.2690 0.8915
vn -0.1545 0.8613 -0.4840
vn 0.1086 0.9118 -0.3961
vn -0.4123 0.4156 0.8107
vt 0.640447 0.180709
vt 0.594994 0.175747
vt 0.544723 0.281955
vt 0.605201 0.279750
vt 0.424976 0.151411
vt 0.385536 0.159926
vt 0.415121 0.261635
vt 0.447009 0.271865
vt 0.202010 0.156623
vt 0.145959 0.158003
vt 0.126106 0.197006
vt 0.181664 0.195512
vt 0.289483 0.526738
vt 0.283958 0.575835
vt 0.374246 0.586320
vt 0.357105 0.538130
vt 0.306228 0.707349
vt 0.307745 0.746002
vt 0.364206 0.746896
vt 0.363575 0.720233
vt 0.499034 0.785592
vt 0.529860 0.807389
vt 0.526144 0.763882
vt 0.500446 0.758427
vt 0.721031 0.821772
vt 0.786136 0.821310
vt 0.832812 0.792437
vt 0.742175 0.789746
vt 0.621557 0.460320
vt 0.635691 0.404379
vt 0.549277 0.421320
vt 0.541751 0.470782
vt 0.411326 0.454558
vt 0.412448 0.417286
vt 0.363649 0.415481
vt 0.370677 0.455435
vt 0.413807 0.616565
vt 0.410609 0.582582
vt 0.371409 0.650797
vt 0.502106 0.356607
vt 0.495998 0.418440
vt 0.542951 0.382925
vt 0.616523 0.646658
vt 0.624435 0.603025
vt 0.534587 0.588918
vt 0.542924 0.643728
vt 0.297150 0.360705
vt 0.273372 0.401984
vt 0.355580 0.373783
vt 0.805083 0.372211
vt 0.842293 0.406277
vt 0.913246 0.411473
vt 0.891761 0.368896
vt 0.311978 0.907441
vt 0.301157 0.950571
vt 0.353875 0.962324
vt 0.363355 0.920560
vt 0.222216 0.865450
vt 0.232367 0.908851
vt 0.274320 0.924687
vt 0.261653 0.888758
vt 0.167751 0.802151
vt 0.210227 0.830552
vt 0.256116 0.848020
vt 0.243274 0.798668
vt 0.311055 0.791053
vt 0.307094 0.856776
vt 0.356615 0.888051
vt 0.368543 0.792802
vt 0.636179 0.373330
vt 0.698144 0.432479
vt 0.712152 0.373474
vt 0.612931 0.309020
vt 0.631073 0.341610
vt 0.705194 0.337423
vt 0.704839 0.292968
vt 0.819769 0.279848
vt 0.810951 0.324816
vt 0.877703 0.335329
vt 0.872388 0.293977
vt 0.101978 0.310530
vt 0.088363 0.346140
vt 0.205508 0.384826
vt 0.220987 0.348103
vt 0.171242 0.246727
vt 0.157255 0.285480
vt 0.235611 0.310817
vt 0.244005 0.272796
vt 0.321165 0.274230
vt 0.313071 0.325508
vt 0.379843 0.342381
vt 0.382992 0.298751
vt 0.764050 0.648652
vt 0.799928 0.603205
vt 0.714002 0.602524
vt 0.700200 0.650062
vt 0.774070 0.751339
vt 0.782031 0.716861
vt 0.686650 0.689752
vt 0.687080 0.740895
vt 0.605001 0.726973
vt 0.612875 0.690958
vt 0.537990 0.678688
vt 0.532013 0.714759
vt 0.412785 0.388326
vt 0.459165 0.420238
vt 0.454515 0.380594
vt 0.415103 0.311310
vt 0.415111 0.337763
vt 0.486023 0.339558
vt 0.481784 0.310723
vt 0.514325 0.308834
vt 0.503984 0.339459
vt 0.543734 0.344030
vt 0.542403 0.310564
vt 0.496567 0.608823
vt 0.496239 0.585354
vt 0.453930 0.580377
vt 0.454493 0.617012
vt 0.488715 0.702772
vt 0.497893 0.672340
vt 0.461528 0.672126
vt 0.451118 0.708459
vt 0.403361 0.715198
vt 0.419269 0.673629
vt 0.372910 0.680225
vt 0.501006 0.460428
vt 0.458829 0.463399
vt 0.499257 0.546307
vt 0.499658 0.504443
vt 0.456313 0.503807
vt 0.455333 0.545380
vt 0.406197 0.541208
vt 0.409495 0.497413
vt 0.366735 0.496072
vt 0.779413 0.474923
vt 0.696356 0.467042
vt 0.795281 0.558984
vt 0.786704 0.512322
vt 0.709274 0.518284
vt 0.715715 0.566752
vt 0.617636 0.534090
vt 0.620979 0.501114
vt 0.543435 0.509908
vt 0.544081 0.550757
vt 0.696912 0.942163
vt 0.745611 0.921744
vt 0.764867 0.865765
vt 0.706142 0.883952
vt 0.588244 0.938391
vt 0.646566 0.948977
vt 0.643451 0.896806
vt 0.598544 0.913628
vt 0.583303 0.812756
vt 0.660002 0.864218
vt 0.669524 0.783694
vt 0.588874 0.767528
vt 0.480474 0.948238
vt 0.534320 0.944286
vt 0.528672 0.882163
vt 0.480600 0.910130
vt 0.397525 0.931276
vt 0.436715 0.944545
vt 0.445809 0.903569
vt 0.410229 0.861572
vt 0.412953 0.793993
vt 0.458857 0.789739
vt 0.456168 0.745391
vt 0.406068 0.747396
vt 0.106512 0.716049
vt 0.141709 0.762324
vt 0.248591 0.735842
vt 0.246017 0.699932
vt 0.097693 0.636786
vt 0.077067 0.679728
vt 0.230396 0.666792
vt 0.235758 0.624229
vt 0.295476 0.624055
vt 0.299330 0.666976
vt 0.122145 0.533143
vt 0.123112 0.567768
vt 0.202166 0.578981
vt 0.202208 0.532128
vt 0.104917 0.415216
vt 0.102263 0.474940
vt 0.178233 0.479260
vt 0.201778 0.434326
vt 0.283117 0.448596
vt 0.290503 0.489984
vt 0.238865 0.075933
vt 0.196469 0.091967
vt 0.174570 0.131107
vt 0.225879 0.127867
vt 0.351209 0.089214
vt 0.276306 0.061627
vt 0.279401 0.114594
vt 0.348748 0.101246
vt 0.323442 0.158770
vt 0.259855 0.156439
vt 0.230675 0.199519
vt 0.303823 0.201255
vt 0.407163 0.072724
vt 0.377835 0.075039
vt 0.380915 0.106753
vt 0.436666 0.118529
vt 0.520100 0.070528
vt 0.469617 0.059501
vt 0.475517 0.114333
vt 0.513024 0.098125
vt 0.525894 0.208439
vt 0.488822 0.195949
vt 0.475971 0.282008
vt 0.514603 0.271063
vt 0.606634 0.100742
vt 0.568236 0.097080
vt 0.563585 0.141514
vt 0.628397 0.137054
vt 0.707889 0.086625
vt 0.660908 0.091687
vt 0.685065 0.140518
vt 0.724565 0.140757
vt 0.773507 0.162816
vt 0.704616 0.185401
vt 0.728583 0.230355
vt 0.807960 0.209606
vt 0.835271 0.095051
vt 0.851912 0.138675
vt 0.872838 0.215226
vt 0.679091 0.060895
vt 0.640186 0.054048
vt 0.722041 0.062158
vt 0.758491 0.092160
vt 0.605249 0.038550
vt 0.562867 0.044118
vt 0.526196 0.019906
vt 0.490839 0.007942
vt 0.431083 0.000001
vt 0.378721 0.017427
vt 0.343464 0.029430
vt 0.301738 0.034836
vt 0.259510 0.042927
vt 0.215485 0.044452
vt 0.011644 0.415727
vt 0.011831 0.451789
vt 0.003111 0.340428
vt 0.024135 0.526090
vt 0.000000 0.570120
vt 0.028331 0.607804
vt 0.011351 0.672422
vt 0.025640 0.713788
vt 0.065807 0.766645
vt 0.390198 0.976622
vt 0.439998 1.000000
vt 0.480198 0.984385
vt 0.526371 0.997906
vt 0.570448 0.994330
vt 0.618282 0.984804
vt 0.665940 0.978233
vt 0.729782 1.000000
vt 0.889508 0.553517
vt 0.912370 0.503308
vt 0.925551 0.622470
vt 0.904406 0.460253
vt 0.847997 0.749782
vt 0.858483 0.710562
vt 0.869596 0.662133
vt 0.103650 0.227511
vt 0.060473 0.251526
vt 0.028057 0.300542
vt 0.083053 0.804869
vt 0.067440 0.870223
vt 0.166902 0.862555
vt 0.180111 0.910106
s 0
f 369/82/67 205/83/67 120/84/67 210/85/67
f 368/86/68 228/87/68 118/88/68 207/89/68
f 367/90/69 187/91/69 110/92/69 209/93/69
f 366/94/70 234/95/70 116/96/70 236/97/70
f 365/98/71 249/99/71 119/100/71 233/101/71
f 364/102/72 229/103/72 117/104/72 244/105/72
f 363/106/73 179/107/73 102/108/73 246/109/73
f 362/110/74 239/111/74 115/112/74 231/113/74
f 361/114/75 237/115/75 113/116/75 198/117/75
f 360/118/76 194/119/76 116/96/76 195/120/76
f 359/121/77 199/122/77 115/112/77 200/123/77
f 358/124/78 192/125/78 114/126/78 240/127/78
f 357/128/79 197/129/79 113/116/79 241/130/79
f 356/131/80 201/132/80 100/133/80 214/134/80
f 355/135/81 182/136/81 105/137/81 242/138/81
f 354/139/82 220/140/82 129/141/82 250/142/82
f 353/143/83 252/144/83 159/145/83 251/146/83
f 352/147/84 253/148/84 151/149/84 204/150/84
f 351/151/85 239/111/85 148/152/85 254/153/85
f 350/154/86 256/155/86 160/156/86 255/157/86
f 349/158/87 257/159/87 123/160/87 176/161/87
f 348/162/88 235/163/88 144/164/88 258/165/88
f 347/166/89 260/167/89 161/168/89 259/169/89
f 346/170/90 261/171/90 150/172/90 203/173/90
f 345/174/91 230/175/91 139/176/91 262/177/91
f 344/178/92 264/179/92 162/180/92 263/181/92
f 343/182/93 265/183/93 149/184/93 202/185/93
f 342/186/94 237/115/94 146/187/94 266/188/94
f 341/189/95 268/190/95 163/191/95 267/192/95
f 340/193/96 269/194/96 147/195/96 238/196/96
f 339/197/97 232/198/97 141/199/97 270/200/97
f 338/201/98 272/202/98 164/203/98 271/204/98
f 337/205/99 273/206/99 142/207/99 233/101/99
f 336/208/100 199/122/100 146/187/100 274/209/100
f 335/210/101 276/211/101 165/212/101 275/213/101
f 334/214/102 277/215/102 145/216/102 236/97/102
f 333/217/103 201/132/103 148/152/103 278/218/103
f 332/219/104 280/220/104 166/221/104 279/222/104
f 331/223/105 281/224/105 140/225/105 193/226/105
f 330/227/106 217/228/106 126/229/106 282/230/106
f 329/231/107 284/232/107 167/233/107 283/234/107
f 328/235/108 285/236/108 155/237/108 208/238/108
f 327/239/109 191/240/109 138/241/109 286/242/109
f 326/243/110 288/244/110 168/245/110 287/246/110
f 325/247/111 289/248/111 153/249/111 206/250/111
f 324/251/112 211/252/112 158/253/112 290/254/112
f 323/255/113 292/256/113 169/257/113 291/258/113
f 322/259/114 293/260/114 142/207/114 195/120/114
f 321/261/115 196/262/115 143/263/115 294/264/115
f 320/265/116 296/266/116 170/267/116 295/268/116
f 319/269/117 297/270/117 145/216/117 198/117/117
f 318/271/118 225/272/118 134/273/118 298/274/118
f 317/275/119 300/276/119 171/277/119 299/278/119
f 316/279/120 301/280/120 156/281/120 247/282/120
f 315/283/121 190/284/121 137/285/121 302/286/121
f 314/287/122 304/288/122 172/289/122 303/290/122
f 313/291/123 305/292/123 154/293/123 245/294/123
f 312/295/124 243/296/124 152/297/124 306/298/124
f 311/299/125 308/300/125 173/301/125 307/302/125
f 310/303/126 309/304/126 157/305/126 248/306/126
f 307/302/127 173/301/127 309/304/127 310/303/127
f 122/307/128 307/302/128 310/303/128 213/308/128
f 213/308/129 310/303/129 248/306/129 99/309/129
f 212/310/130 121/311/130 308/300/130 311/299/130
f 98/312/131 212/310/131 311/299/131 175/313/131
f 175/313/132 311/299/132 307/302/132 122/307/132
f 174/314/133 97/315/133 243/296/133 312/295/133
f 121/311/134 174/314/134 312/295/134 308/300/134
f 308/300/135 312/295/135 306/298/135 173/301/135
f 303/290/136 172/289/136 305/292/136 313/291/136
f 152/297/137 303/290/137 313/291/137 205/83/137
f 205/83/138 313/291/138 245/294/138 120/84/138
f 227/316/139 136/317/139 304/288/139 314/287/139
f 97/315/140 227/316/140 314/287/140 243/296/140
f 243/296/141 314/287/141 303/290/141 152/297/141
f 189/318/142 112/319/142 190/284/142 315/283/142
f 136/317/143 189/318/143 315/283/143 304/288/143
f 304/288/144 315/283/144 302/286/144 172/289/144
f 299/278/145 171/277/145 301/280/145 316/279/145
f 137/285/146 299/278/146 316/279/146 228/87/146
f 228/87/147 316/279/147 247/282/147 118/88/147
f 226/320/148 135/321/148 300/276/148 317/275/148
f 112/319/149 226/320/149 317/275/149 190/284/149
f 190/284/150 317/275/150 299/278/150 137/285/150
f 188/322/151 111/323/151 225/272/151 318/271/151
f 135/321/152 188/322/152 318/271/152 300/276/152
f 300/276/153 318/271/153 298/274/153 171/277/153
f 295/268/154 170/267/154 297/270/154 319/269/154
f 144/164/155 295/268/155 319/269/155 197/129/155
f 197/129/156 319/269/156 198/117/156 113/116/156
f 223/324/157 132/325/157 296/266/157 320/265/157
f 109/326/158 223/324/158 320/265/158 235/163/158
f 235/163/159 320/265/159 295/268/159 144/164/159
f 185/327/160 108/328/160 196/262/160 321/261/160
f 132/325/161 185/327/161 321/261/161 296/266/161
f 296/266/162 321/261/162 294/264/162 170/267/162
f 291/258/163 169/257/163 293/260/163 322/259/163
f 143/263/164 291/258/164 322/259/164 234/95/164
f 234/95/165 322/259/165 195/120/165 116/96/165
f 222/329/166 131/330/166 292/256/166 323/255/166
f 108/328/167 222/329/167 323/255/167 196/262/167
f 196/262/168 323/255/168 291/258/168 143/263/168
f 184/331/169 107/332/169 211/252/169 324/251/169
f 131/330/170 184/331/170 324/251/170 292/256/170
f 292/256/171 324/251/171 290/254/171 169/257/171
f 287/246/172 168/245/172 289/248/172 325/247/172
f 151/149/173 287/246/173 325/247/173 204/150/173
f 204/150/174 325/247/174 206/250/174 119/100/174
f 219/333/175 128/334/175 288/244/175 326/243/175
f 105/137/176 219/333/176 326/243/176 242/138/176
f 242/138/177 326/243/177 287/246/177 151/149/177
f 181/335/178 104/336/178 191/240/178 327/239/178
f 128/334/179 181/335/179 327/239/179 288/244/179
f 288/244/180 327/239/180 286/242/180 168/245/180
f 283/234/181 167/233/181 285/236/181 328/235/181
f 138/241/182 283/234/182 328/235/182 229/103/182
f 229/103/183 328/235/183 208/238/183 117/104/183
f 218/337/184 127/338/184 284/232/184 329/231/184
f 104/336/185 218/337/185 329/231/185 191/240/185
f 191/240/186 329/231/186 283/234/186 138/241/186
f 180/339/187 103/340/187 217/228/187 330/227/187
f 127/338/188 180/339/188 330/227/188 284/232/188
f 284/232/189 330/227/189 282/230/189 167/233/189
f 279/222/190 166/221/190 281/224/190 331/223/190
f 139/176/191 279/222/191 331/223/191 192/125/191
f 192/125/192 331/223/192 193/226/192 114/126/192
f 215/341/193 124/342/193 280/220/193 332/219/193
f 101/343/194 215/341/194 332/219/194 230/175/194
f 230/175/195 332/219/195 279/222/195 139/176/195
f 177/344/196 100/133/196 201/132/196 333/217/196
f 124/342/197 177/344/197 333/217/197 280/220/197
f 280/220/198 333/217/198 278/218/198 166/221/198
f 275/213/199 165/212/199 277/215/199 334/214/199
f 141/199/200 275/213/200 334/214/200 194/119/200
f 194/119/201 334/214/201 236/97/201 116/96/201
f 193/226/202 140/225/202 276/211/202 335/210/202
f 114/126/203 193/226/203 335/210/203 232/198/203
f 232/198/204 335/210/204 275/213/204 141/199/204
f 231/113/205 115/112/205 199/122/205 336/208/205
f 140/225/206 231/113/206 336/208/206 276/211/206
f 276/211/207 336/208/207 274/209/207 165/212/207
f 271/204/208 164/203/208 273/206/208 337/205/208
f 153/249/209 271/204/209 337/205/209 206/250/209
f 206/250/210 337/205/210 233/101/210 119/100/210
f 202/185/211 149/184/211 272/202/211 338/201/211
f 117/104/212 202/185/212 338/201/212 244/105/212
f 244/105/213 338/201/213 271/204/213 153/249/213
f 240/127/214 114/126/214 232/198/214 339/197/214
f 149/184/215 240/127/215 339/197/215 272/202/215
f 272/202/216 339/197/216 270/200/216 164/203/216
f 267/192/217 163/191/217 269/194/217 340/193/217
f 154/293/218 267/192/218 340/193/218 245/294/218
f 245/294/219 340/193/219 238/196/219 120/84/219
f 203/173/220 150/172/220 268/190/220 341/189/220
f 118/88/221 203/173/221 341/189/221 207/89/221
f 207/89/222 341/189/222 267/192/222 154/293/222
f 241/130/223 113/116/223 237/115/223 342/186/223
f 150/172/224 241/130/224 342/186/224 268/190/224
f 268/190/225 342/186/225 266/188/225 163/191/225
f 263/181/226 162/180/226 265/183/226 343/182/226
f 155/237/227 263/181/227 343/182/227 208/238/227
f 208/238/228 343/182/228 202/185/228 117/104/228
f 216/345/229 125/346/229 264/179/229 344/178/229
f 102/108/230 216/345/230 344/178/230 246/109/230
f 246/109/231 344/178/231 263/181/231 155/237/231
f 178/347/232 101/343/232 230/175/232 345/174/232
f 125/346/233 178/347/233 345/174/233 264/179/233
f 264/179/234 345/174/234 262/177/234 162/180/234
f 259/169/235 161/168/235 261/171/235 346/170/235
f 156/281/236 259/169/236 346/170/236 247/282/236
f 247/282/237 346/170/237 203/173/237 118/88/237
f 224/348/238 133/349/238 260/167/238 347/166/238
f 110/92/239 224/348/239 347/166/239 209/93/239
f 209/93/240 347/166/240 259/169/240 156/281/240
f 186/350/241 109/326/241 235/163/241 348/162/241
f 133/349/242 186/350/242 348/162/242 260/167/242
f 260/167/243 348/162/243 258/165/243 161/168/243
f 255/157/244 160/156/244 257/159/244 349/158/244
f 157/305/245 255/157/245 349/158/245 248/306/245
f 248/306/246 349/158/246 176/161/246 99/309/246
f 238/196/247 147/195/247 256/155/247 350/154/247
f 120/84/248 238/196/248 350/154/248 210/85/248
f 210/85/249 350/154/249 255/157/249 157/305/249
f 200/123/250 115/112/250 239/111/250 351/151/250
f 147/195/251 200/123/251 351/151/251 256/155/251
f 256/155/252 351/151/252 254/153/252 160/156/252
f 251/146/253 159/145/253 253/148/253 352/147/253
f 158/253/254 251/146/254 352/147/254 249/99/254
f 249/99/255 352/147/255 204/150/255 119/100/255
f 221/351/256 130/352/256 252/144/256 353/143/256
f 107/332/257 221/351/257 353/143/257 211/252/257
f 211/252/258 353/143/258 251/146/258 158/253/258
f 183/353/259 106/354/259 220/140/259 354/139/259
f 130/352/260 183/353/260 354/139/260 252/144/260
f 252/144/261 354/139/261 250/142/261 159/145/261
f 250/142/262 129/141/262 182/136/262 355/135/262
f 159/145/263 250/142/263 355/135/263 253/148/263
f 253/148/264 355/135/264 242/138/264 151/149/264
f 254/153/265 148/152/265 201/132/265 356/131/265
f 160/156/266 254/153/266 356/131/266 257/159/266
f 257/159/267 356/131/267 214/134/267 123/160/267
f 258/165/268 144/164/268 197/129/268 357/128/268
f 161/168/269 258/165/269 357/128/269 261/171/269
f 261/171/270 357/128/270 241/130/270 150/172/270
f 262/177/271 139/176/271 192/125/271 358/124/271
f 162/180/272 262/177/272 358/124/272 265/183/272
f 265/183/273 358/124/273 240/127/273 149/184/273
f 266/188/274 146/187/274 199/122/274 359/121/274
f 163/191/275 266/188/275 359/121/275 269/194/275
f 269/194/276 359/121/276 200/123/276 147/195/276
f 270/200/277 141/199/277 194/119/277 360/118/277
f 164/203/278 270/200/278 360/118/278 273/206/278
f 273/206/279 360/118/279 195/120/279 142/207/279
f 274/209/280 146/187/280 237/115/280 361/114/280
f 165/212/281 274/209/281 361/114/281 277/215/281
f 277/215/282 361/114/282 198/117/282 145/216/282
f 278/218/283 148/152/283 239/111/283 362/110/283
f 166/221/284 278/218/284 362/110/284 281/224/284
f 281/224/285 362/110/285 231/113/285 140/225/285
f 282/230/286 126/229/286 179/107/286 363/106/286
f 167/233/287 282/230/287 363/106/287 285/236/287
f 285/236/288 363/106/288 246/109/288 155/237/288
f 286/242/289 138/241/289 229/103/289 364/102/289
f 168/245/290 286/242/290 364/102/290 289/248/290
f 289/248/291 364/102/291 244/105/291 153/249/291
f 290/254/292 158/253/292 249/99/292 365/98/292
f 169/257/293 290/254/293 365/98/293 293/260/293
f 293/260/294 365/98/294 233/101/294 142/207/294
f 294/264/295 143/263/295 234/95/295 366/94/295
f 170/267/296 294/264/296 366/94/296 297/270/296
f 297/270/297 366/94/297 236/97/297 145/216/297
f 298/274/298 134/273/298 187/91/298 367/90/298
f 171/277/299 298/274/299 367/90/299 301/280/299
f 301/280/300 367/90/300 209/93/300 156/281/300
f 302/286/301 137/285/301 228/87/301 368/86/301
f 172/289/302 302/286/302 368/86/302 305/292/302
f 305/292/303 368/86/303 207/89/303 154/293/303
f 306/298/304 152/297/304 205/83/304 369/82/304
f 173/301/305 306/298/305 369/82/305 309/304/305
f 309/304/306 369/82/306 210/85/306 157/305/306
