# Blender 5.1.2
# www.blender.org
mtllib ChairSteel.mtl
o SteelChair
v 1.000000 1.800000 -1.000000
v 1.000000 2.000000 -1.000000
v 1.000000 1.800000 1.000000
v 1.000000 2.000000 1.000000
v -0.963660 1.800000 -0.970577
v -0.919560 2.000000 -0.923569
v -0.963660 1.800000 0.970577
v -0.919560 2.000000 0.923569
v 1.000000 1.800000 -0.750000
v -0.970463 2.000000 -0.750000
v 1.000000 2.000000 -0.750000
v -1.000000 1.800000 -0.750000
v 0.750000 1.800000 1.000000
v 0.750000 2.000000 -1.000000
v 0.750000 2.000000 1.000000
v 0.750000 1.800000 -1.000000
v 0.750000 1.800000 -0.750000
v 0.750000 2.000000 -0.750000
v -0.750000 2.000000 0.945515
v -0.750000 1.800000 -1.000000
v -0.750000 1.800000 1.000000
v -0.750000 2.000000 -0.945515
v -0.750000 2.000000 -0.750000
v -0.750000 1.800000 -0.750000
v 1.000000 2.000000 0.750000
v -1.000000 1.800000 0.750000
v 1.000000 1.800000 0.750000
v -0.970463 2.000000 0.750000
v 0.750000 1.800000 0.750000
v 0.750000 2.000000 0.750000
v -0.750000 2.000000 0.750000
v -0.750000 1.800000 0.750000
v 1.060527 0.000000 -0.842983
v 1.060527 0.000000 -1.060527
v 0.842983 0.000000 1.060527
v 1.060527 0.000000 1.060527
v -1.060527 0.000000 0.842983
v -1.060527 0.000000 1.060527
v -0.842983 0.000000 -1.060527
v -1.060527 0.000000 -1.060527
v -1.060527 0.000000 -0.842983
v 0.842983 0.000000 -0.842983
v 0.842983 0.000000 -1.060527
v -0.842983 0.000000 1.060527
v -0.842983 0.000000 -0.842983
v 1.060527 0.000000 0.842983
v 0.842983 0.000000 0.842983
v -0.842983 0.000000 0.842983
v 1.000000 4.283148 0.627676
v 1.000000 4.184491 0.772568
v 0.750000 4.184491 -0.772568
v 1.000000 4.184491 -0.772568
v 1.000000 4.283148 -0.627676
v 0.750000 4.184491 0.772568
v 0.750000 4.283148 -0.627676
v 0.750000 4.283148 0.627676
v 0.750000 4.059543 -0.836901
v 1.000000 4.059543 -0.627676
v 1.000000 4.059543 -0.836901
v 0.750000 4.059543 -0.627676
v 1.000000 4.059543 0.836901
v 0.750000 4.059543 0.836901
v 0.750000 4.059543 0.627676
v 1.000000 4.059543 0.627676
v 1.000000 4.283148 -0.380865
v 0.750000 4.283148 -0.380865
v 0.750000 4.059543 -0.380865
v 1.000000 4.059543 -0.380865
v 1.000000 1.800000 -0.382328
v -0.970463 2.000000 -0.382328
v 0.750000 1.800000 -0.382328
v 0.750000 2.000000 -0.277083
v -0.750000 2.000000 -0.382328
v -0.750000 1.800000 -0.382328
v 1.000000 2.000000 -0.277083
v -1.000000 1.800000 -0.382328
v 1.000000 2.000000 0.270264
v -1.000000 1.800000 0.375000
v 1.000000 1.800000 0.375000
v -0.970463 2.000000 0.375000
v 0.750000 1.800000 0.375000
v 0.750000 2.000000 0.270264
v -0.750000 2.000000 0.375000
v -0.750000 1.800000 0.375000
v 1.000000 4.283148 -0.223683
v 0.750000 4.283148 -0.223683
v 0.750000 4.059543 -0.223683
v 1.000000 4.059543 -0.223683
v 0.750000 4.059543 0.223683
v 0.750000 4.283148 0.223683
v 1.000000 4.059543 0.223683
v 1.000000 4.283148 0.223683
v 1.000000 2.000000 0.405777
v -1.000000 1.800000 0.562500
v 1.000000 1.800000 0.562500
v -0.970463 1.966985 0.562500
v 0.750000 1.800000 0.562500
v 0.750000 2.000000 0.405777
v -0.750000 1.966985 0.562500
v -0.750000 1.800000 0.562500
v 1.000000 1.800000 -0.566164
v -0.970463 1.966985 -0.566164
v 0.750000 1.800000 -0.566164
v 0.750000 2.000000 -0.409948
v -0.750000 1.966985 -0.566164
v -0.750000 1.800000 -0.566164
v 1.000000 2.000000 -0.409948
v -1.000000 1.800000 -0.566164
v 1.000000 2.000000 -0.095582
v -1.000000 1.800000 -0.095582
v 1.000000 1.800000 -0.095582
v -0.970463 2.000000 -0.095582
v 0.750000 1.800000 -0.095582
v 0.750000 2.000000 -0.095582
v -0.750000 2.070834 -0.047850
v -0.750000 1.800000 -0.095582
v 1.000000 1.800000 0.093750
v -0.970463 2.000000 0.093750
v 0.750000 1.800000 0.093750
v 0.750000 2.000000 0.093750
v -0.750000 2.070834 0.046018
v -0.750000 1.800000 0.093750
v 1.000000 2.000000 0.093750
v -1.000000 1.800000 0.093750
v 1.000000 4.283148 0.380865
v 0.750000 4.059543 0.380865
v 0.750000 4.283148 0.380865
v 1.000000 4.059543 0.380865
v 1.000000 4.059543 0.093750
v 1.000000 4.283148 0.093750
v 0.750000 4.283148 0.093750
v 0.750000 4.059543 0.093750
v 1.000000 4.283148 -0.093750
v 1.000000 4.059543 -0.093750
v 0.750000 4.059543 -0.093750
v 0.750000 4.283148 -0.093750
v -0.799170 0.848145 -1.032007
v -0.793813 0.951855 -1.028520
v -1.009303 0.951854 -1.012961
v -1.014884 0.848146 -1.018143
v -0.799170 0.848145 -0.799170
v -0.793813 0.951855 -0.793813
v -1.032007 0.848145 -0.799170
v -1.028520 0.951855 -0.793813
v -1.014884 0.848146 1.018143
v -1.009303 0.951854 1.012961
v -0.793813 0.951855 1.028520
v -0.799170 0.848145 1.032007
v -0.799170 0.848145 0.799170
v -0.793813 0.951855 0.793813
v -1.028520 0.951855 0.793813
v -1.032007 0.848145 0.799170
v 1.028520 0.951855 1.028520
v 1.032007 0.848145 1.032007
v 1.028520 0.951855 0.793813
v 1.032007 0.848145 0.799170
v 0.799170 0.848145 0.799170
v 0.793813 0.951855 0.793813
v 0.799170 0.848145 1.032007
v 0.793813 0.951855 1.028520
v 0.799170 0.848145 -1.032007
v 0.793813 0.951855 -1.028520
v 0.793813 0.951855 -0.793813
v 0.799170 0.848145 -0.799170
v 1.032007 0.848145 -0.799170
v 1.028520 0.951855 -0.793813
v 1.028520 0.951855 -1.028520
v 1.032007 0.848145 -1.032007
vn 1.0000 -0.0000 -0.0000
vn -0.1284 0.2572 0.9578
vn -0.9565 0.2010 -0.2117
vn -0.0000 -0.0000 -1.0000
vn -0.0000 0.4578 0.8891
vn -0.0000 1.0000 -0.0000
vn -0.0000 -1.0000 -0.0000
vn -0.0180 0.1349 -0.9907
vn -0.9872 0.1589 0.0143
vn -0.0000 -0.0000 1.0000
vn -0.0180 0.1349 0.9907
vn -0.1284 0.2572 -0.9578
vn -0.0143 0.9979 0.0629
vn -0.9565 0.2010 0.2117
vn -0.0000 0.4578 -0.8891
vn -0.0000 0.9843 0.1768
vn -0.0000 0.8266 -0.5628
vn -0.0000 0.8266 0.5628
vn -1.0000 -0.0000 -0.0000
vn -0.0000 -0.0593 0.9982
vn -0.0000 0.0789 -0.9969
vn -0.0000 -0.0593 -0.9982
vn -0.0000 0.0789 0.9969
vn -0.0000 0.0141 -0.9999
vn -0.1458 0.9829 -0.1121
vn 0.0260 0.9904 -0.1360
vn -0.9893 0.1461 -0.0000
vn -0.9872 0.1589 0.0140
vn -0.0021 0.9948 0.1017
vn -0.0000 0.9848 0.1734
vn -0.0000 -0.0226 -0.9997
vn -0.0000 -0.0259 0.9997
vn -0.0000 0.0121 0.9999
vn -0.0000 0.9848 -0.1734
vn -0.0142 0.9980 -0.0620
vn -0.9872 0.1589 -0.0140
vn -0.0000 0.9843 -0.1768
vn -0.0019 0.9946 -0.1037
vn -0.9872 0.1589 -0.0143
vn 0.0472 0.9989 -0.0000
vn -0.0000 0.0009 -1.0000
vn 0.0260 0.9900 0.1387
vn -0.1455 0.9828 0.1141
vn -0.3059 0.9521 -0.0000
vn -0.9954 0.0477 -0.0826
vn 0.9987 -0.0516 -0.0000
vn -0.0000 0.0336 -0.9994
vn -0.0680 0.0452 -0.9967
vn -0.9954 0.0477 0.0826
vn -0.0000 -0.0516 -0.9987
vn -0.0680 0.0452 0.9967
vn -0.9987 -0.0516 -0.0000
vn 0.9994 0.0336 -0.0000
vn -0.0000 0.0336 0.9994
vn -0.1041 0.0470 -0.9935
vn -0.0320 0.0434 -0.9985
vn -0.9982 0.0456 -0.0392
vn -0.9909 0.0497 -0.1252
vn -0.0000 -0.0516 0.9987
vn -0.9982 0.0456 0.0392
vn -0.1041 0.0470 0.9935
vn -0.0320 0.0434 0.9985
vn -0.9909 0.0497 0.1252
vn -0.9994 0.0336 -0.0000
vt 0.413851 0.323890
vt 0.385511 0.323890
vt 0.385511 0.288465
vt 0.413851 0.288465
vt 0.855672 0.724721
vt 0.885043 0.725052
vt 0.885588 0.749273
vt 0.856422 0.755273
vt 0.005058 0.533823
vt 0.033706 0.533845
vt 0.034741 0.559455
vt 0.005584 0.565496
vt 0.849875 0.873748
vt 0.849688 0.845408
vt 0.885113 0.845174
vt 0.885299 0.873514
vt 0.304722 0.057688
vt 0.340147 0.057688
vt 0.340147 0.077602
vt 0.304722 0.077602
vt 0.249138 0.253676
vt 0.249346 0.289137
vt 0.036531 0.282662
vt 0.036406 0.254900
vt 0.671959 0.323892
vt 0.707385 0.323892
vt 0.707385 0.536444
vt 0.671959 0.536444
vt 0.637327 0.875150
vt 0.636995 0.845779
vt 0.754964 0.406333
vt 0.719538 0.406333
vt 0.719538 0.358147
vt 0.754964 0.358147
vt 0.645909 0.323892
vt 0.645909 0.536444
vt 0.413851 0.571868
vt 0.385511 0.571868
vt 0.385511 0.536443
vt 0.413851 0.536443
vt 0.645909 0.288466
vt 0.671959 0.288466
vt 0.423981 0.323892
vt 0.459407 0.323892
vt 0.459407 0.536444
vt 0.423981 0.536444
vt 0.413851 0.350459
vt 0.385511 0.372667
vt 0.005068 0.507773
vt 0.029097 0.507782
vt 0.857308 0.476748
vt 0.885648 0.476935
vt 0.885414 0.512359
vt 0.857074 0.512173
vt 0.645909 0.571870
vt 0.671959 0.571870
vt 0.606774 0.874400
vt 0.612774 0.845235
vt 0.005065 0.255006
vt 0.012411 0.279656
vt 0.248929 0.205406
vt 0.036318 0.228402
vt 0.012557 0.014806
vt 0.036635 0.011804
vt 0.036510 0.039531
vt 0.005222 0.039410
vt 0.249264 0.005224
vt 0.249074 0.040655
vt 0.005585 0.289597
vt 0.034741 0.295640
vt 0.033706 0.321250
vt 0.005058 0.321271
vt 0.294603 0.075583
vt 0.259178 0.075583
vt 0.259178 0.055669
vt 0.294603 0.055669
vt 0.004983 0.228435
vt 0.969516 0.608766
vt 0.938689 0.608766
vt 0.938689 0.577940
vt 0.969516 0.577940
vt 0.763060 0.685681
vt 0.763060 0.654855
vt 0.793886 0.654855
vt 0.793886 0.685681
vt 0.254024 0.647228
vt 0.223197 0.647228
vt 0.223197 0.616401
vt 0.254024 0.616401
vt 0.182247 0.647222
vt 0.182247 0.616396
vt 0.213073 0.616396
vt 0.213073 0.647222
vt 0.881031 0.320850
vt 0.881031 0.356275
vt 0.856192 0.356275
vt 0.856192 0.320850
vt 0.706927 0.276315
vt 0.706927 0.311741
vt 0.682088 0.311741
vt 0.682088 0.276315
vt 0.540125 0.056536
vt 0.539951 0.026858
vt 0.557728 0.035879
vt 0.571843 0.056349
vt 0.976370 0.220201
vt 0.940945 0.220201
vt 0.940945 0.185227
vt 0.976370 0.185227
vt 0.061985 0.484136
vt 0.093670 0.484136
vt 0.093670 0.519109
vt 0.061985 0.519109
vt 0.093670 0.548757
vt 0.075965 0.539641
vt 0.541349 0.264281
vt 0.541174 0.234603
vt 0.572892 0.234416
vt 0.559019 0.255051
vt 0.093670 0.311576
vt 0.093670 0.341224
vt 0.061985 0.341224
vt 0.075965 0.320692
vt 0.719539 0.065792
vt 0.754964 0.065792
vt 0.800509 0.340321
vt 0.765083 0.340321
vt 0.765083 0.047566
vt 0.800508 0.047566
vt 0.717509 0.418016
vt 0.752934 0.418016
vt 0.752934 0.710372
vt 0.717509 0.710372
vt 0.247884 0.040906
vt 0.247675 0.005444
vt 0.765089 0.351210
vt 0.800515 0.351210
vt 0.800515 0.643965
vt 0.765089 0.643965
vt 0.540968 0.199594
vt 0.572686 0.199407
vt 0.190713 0.605265
vt 0.190713 0.569840
vt 0.225686 0.569840
vt 0.225686 0.605265
vt 0.047801 0.605265
vt 0.047801 0.569840
vt 0.082774 0.569840
vt 0.082774 0.605265
vt 0.599853 0.818824
vt 0.599853 0.854250
vt 0.307983 0.854250
vt 0.307983 0.818824
vt 0.061985 0.461863
vt 0.093670 0.461863
vt 0.540837 0.177298
vt 0.572554 0.177111
vt 0.168440 0.605265
vt 0.168440 0.569840
vt 0.093670 0.398470
vt 0.093670 0.416882
vt 0.061985 0.416882
vt 0.061985 0.398470
vt 0.572181 0.113654
vt 0.572289 0.132084
vt 0.540572 0.132271
vt 0.540463 0.113841
vt 0.105047 0.569840
vt 0.123459 0.569840
vt 0.123459 0.605265
vt 0.105047 0.605265
vt 0.413851 0.510393
vt 0.385511 0.488257
vt 0.385511 0.469430
vt 0.413851 0.484343
vt 0.385511 0.443711
vt 0.413851 0.443711
vt 0.005028 0.160843
vt 0.037598 0.153905
vt 0.036354 0.201899
vt 0.004960 0.201862
vt 0.248920 0.160762
vt 0.248889 0.186653
vt 0.579227 0.571870
vt 0.579227 0.536444
vt 0.619860 0.536444
vt 0.619860 0.571870
vt 0.005078 0.441091
vt 0.033725 0.441091
vt 0.033725 0.481724
vt 0.005078 0.481724
vt 0.579227 0.323892
vt 0.579227 0.288466
vt 0.619860 0.288466
vt 0.619860 0.323892
vt 0.385511 0.391870
vt 0.093670 0.376197
vt 0.485976 0.323892
vt 0.512545 0.323892
vt 0.512545 0.536444
vt 0.485976 0.536444
vt 0.485976 0.288466
vt 0.512545 0.288466
vt 0.005068 0.347840
vt 0.029097 0.347831
vt 0.033725 0.374409
vt 0.005078 0.374409
vt 0.485976 0.571870
vt 0.512545 0.571870
vt 0.248891 0.089472
vt 0.248860 0.108586
vt 0.036426 0.093509
vt 0.036418 0.066519
vt 0.005115 0.066449
vt 0.005061 0.093544
vt 0.881201 0.274291
vt 0.881201 0.309716
vt 0.856189 0.309716
vt 0.856189 0.274291
vt 0.093670 0.443451
vt 0.385511 0.416882
vt 0.061985 0.443451
vt 0.540728 0.158868
vt 0.572446 0.158681
vt 0.150028 0.605265
vt 0.150028 0.569840
vt 0.248853 0.205440
vt 0.248742 0.186594
vt 0.846057 0.643135
vt 0.810632 0.643135
vt 0.810632 0.351219
vt 0.846057 0.351219
vt 0.248591 0.160849
vt 0.248432 0.133993
vt 0.846065 0.339412
vt 0.810639 0.339412
vt 0.810639 0.047571
vt 0.846065 0.047571
vt 0.747967 0.721656
vt 0.747967 0.757082
vt 0.456028 0.757082
vt 0.456028 0.721656
vt 0.577909 0.803647
vt 0.577909 0.768221
vt 0.869771 0.768221
vt 0.869771 0.803647
vt 0.061985 0.376197
vt 0.540332 0.091545
vt 0.572049 0.091358
vt 0.459407 0.571870
vt 0.459407 0.288466
vt 0.940943 0.174088
vt 0.940943 0.138662
vt 0.989720 0.138662
vt 0.989720 0.174088
vt 0.413851 0.377028
vt 0.413851 0.536443
vt 0.385511 0.536443
vt 0.248912 0.133759
vt 0.037552 0.140764
vt 0.552399 0.571870
vt 0.552399 0.536444
vt 0.005078 0.414262
vt 0.033725 0.414262
vt 0.413851 0.416882
vt 0.552399 0.323892
vt 0.005060 0.880566
vt 0.005060 0.845140
vt 0.296901 0.845141
vt 0.296901 0.880566
vt 0.259226 0.215591
vt 0.294651 0.215591
vt 0.294651 0.241310
vt 0.259226 0.241310
vt 0.552399 0.288466
vt 0.005092 0.133655
vt 0.248285 0.108955
vt 0.248172 0.089732
vt 0.974112 0.566354
vt 0.938687 0.566354
vt 0.938687 0.531381
vt 0.974113 0.531381
vt 0.395818 0.061737
vt 0.431243 0.061737
vt 0.431243 0.080148
vt 0.395818 0.080148
vt 0.350273 0.078124
vt 0.350273 0.059712
vt 0.385698 0.059712
vt 0.385698 0.078124
vt 0.887656 0.141842
vt 0.856565 0.140416
vt 0.856520 0.125693
vt 0.887661 0.127107
vt 0.373492 0.985367
vt 0.372733 0.970651
vt 0.599220 0.970651
vt 0.598461 0.985367
vt 0.695457 0.038302
vt 0.710178 0.038037
vt 0.702571 0.264397
vt 0.687900 0.263144
vt 0.708367 0.885659
vt 0.709886 0.916251
vt 0.695151 0.916240
vt 0.693643 0.885662
vt 0.585118 0.580485
vt 0.586544 0.611575
vt 0.571809 0.611580
vt 0.570395 0.580440
vt 0.929045 0.968627
vt 0.929804 0.983342
vt 0.703317 0.983342
vt 0.704076 0.968626
vt 0.634181 0.049593
vt 0.667439 0.049593
vt 0.667439 0.274562
vt 0.634181 0.274562
vt 0.443151 0.865545
vt 0.441633 0.896137
vt 0.426909 0.896134
vt 0.428416 0.865556
vt 0.835945 0.814779
vt 0.836704 0.829495
vt 0.610216 0.829495
vt 0.610975 0.814779
vt 0.009272 0.698191
vt 0.042265 0.698191
vt 0.043024 0.712895
vt 0.009766 0.712895
vt 0.616275 0.276587
vt 0.583016 0.276587
vt 0.583016 0.051618
vt 0.616275 0.051618
vt 0.446345 0.774365
vt 0.447453 0.807340
vt 0.432741 0.807340
vt 0.431623 0.774101
vt 0.679087 0.667007
vt 0.679087 0.700266
vt 0.454118 0.700266
vt 0.454118 0.667007
vt 0.711286 0.005062
vt 0.696574 0.005062
vt 0.268753 0.698191
vt 0.301746 0.698191
vt 0.301252 0.712895
vt 0.267994 0.712895
vt 0.677589 0.622468
vt 0.677589 0.655726
vt 0.452620 0.655726
vt 0.452620 0.622468
vt 0.573644 0.959185
vt 0.572537 0.926210
vt 0.693021 0.928376
vt 0.694056 0.959185
vt 0.574643 0.916153
vt 0.573232 0.885624
vt 0.828779 0.885624
vt 0.830393 0.916408
vt 0.058017 0.805746
vt 0.056828 0.770340
vt 0.177313 0.772506
vt 0.178429 0.805746
vt 0.887711 0.262350
vt 0.856922 0.260828
vt 0.856061 0.005282
vt 0.887711 0.006600
vt 0.944201 0.924186
vt 0.943093 0.957161
vt 0.822682 0.957161
vt 0.823716 0.926351
vt 0.050350 0.651803
vt 0.051539 0.616397
vt 0.171951 0.616397
vt 0.170835 0.649637
vt 0.705530 0.580842
vt 0.707052 0.611630
vt 0.306497 0.896170
vt 0.307909 0.865641
vt 0.563659 0.865388
vt 0.562044 0.896172
vt 0.451302 0.611630
vt 0.449984 0.579980
vt 0.005235 0.969210
vt 0.006342 0.936236
vt 0.126754 0.936236
vt 0.125720 0.967045
vt 0.893769 0.760300
vt 0.929174 0.761489
vt 0.929174 0.881901
vt 0.895935 0.880784
vt 0.055621 0.759181
vt 0.054432 0.723776
vt 0.174917 0.725942
vt 0.176033 0.759181
vt 0.971753 0.512290
vt 0.938778 0.513397
vt 0.940944 0.392913
vt 0.971753 0.391878
vt 0.005230 0.577939
vt 0.036057 0.577939
vt 0.312421 0.807340
vt 0.311231 0.771935
vt 0.049233 0.833147
vt 0.013807 0.833147
vt 0.566737 0.776531
vt 0.567773 0.807340
vt 0.938424 0.242076
vt 0.971399 0.243183
vt 0.971399 0.363595
vt 0.940590 0.362560
vt 0.562750 0.905968
vt 0.561561 0.941374
vt 0.441149 0.941374
vt 0.442265 0.908134
vt 0.361699 0.593468
vt 0.397105 0.592279
vt 0.394939 0.712763
vt 0.361699 0.713879
vt 0.971537 0.749123
vt 0.938563 0.750230
vt 0.940728 0.629745
vt 0.971537 0.628711
vt 0.831606 0.005062
vt 0.830570 0.035871
vt 0.351486 0.699707
vt 0.316081 0.698518
vt 0.316081 0.578106
vt 0.349320 0.579222
vt 0.973918 0.126757
vt 0.940943 0.125650
vt 0.940943 0.005238
vt 0.971752 0.006272
vt 0.575064 0.040467
vt 0.576254 0.005062
vt 0.971782 0.913091
vt 0.938808 0.914198
vt 0.940973 0.793714
vt 0.971782 0.792679
vt 0.243029 0.941374
vt 0.241840 0.905969
vt 0.362324 0.908135
vt 0.363441 0.941374
vt 0.297211 0.833147
vt 0.261785 0.833147
vt 0.274961 0.577939
vt 0.305788 0.577939
vt 0.005058 0.924693
vt 0.005058 0.891699
vt 0.231546 0.891699
vt 0.231546 0.924693
vt 0.040855 0.993448
vt 0.041614 0.978744
vt 0.266583 0.978744
vt 0.267342 0.993448
vt 0.928563 0.739644
vt 0.895570 0.739644
vt 0.895570 0.513157
vt 0.928563 0.513157
vt 0.424067 0.549258
vt 0.438738 0.548006
vt 0.928787 0.500776
vt 0.895794 0.500776
vt 0.895794 0.274289
vt 0.928787 0.274289
vt 0.135931 0.967142
vt 0.136690 0.952426
vt 0.361659 0.952426
vt 0.362418 0.967142
vt 0.930828 0.231547
vt 0.897834 0.231547
vt 0.897834 0.005059
vt 0.930828 0.005059
s 1
f 27/1/1 25/2/1 4/3/1 3/4/1
f 21/5/2 19/6/2 8/7/2 7/8/2
f 12/9/3 10/10/3 6/11/3 5/12/3
f 16/13/4 14/14/4 2/15/4 1/16/4
f 62/17/5 61/18/5 50/19/5 54/20/5
f 18/21/6 14/22/6 22/23/6 23/24/6
f 24/25/7 20/26/7 16/27/7 17/28/7
f 20/29/8 22/30/8 14/14/8 16/13/8
f 104/31/6 107/32/6 11/33/6 18/34/6
f 106/35/7 24/25/7 17/28/7 103/36/7
f 1/37/1 2/38/1 11/39/1 9/40/1
f 106/35/7 108/41/7 12/42/7 24/25/7
f 21/43/7 32/44/7 29/45/7 13/46/7
f 95/47/1 93/48/1 25/2/1 27/1/1
f 108/49/9 102/50/9 10/10/9 12/9/9
f 3/51/10 4/52/10 15/53/10 13/54/10
f 13/54/11 15/53/11 19/6/11 21/5/11
f 101/55/7 103/36/7 17/28/7 9/56/7
f 5/57/12 6/58/12 22/30/12 20/29/12
f 10/59/6 23/24/6 22/23/6 6/60/6
f 104/61/13 18/21/13 23/24/13 105/62/13
f 8/63/6 19/64/6 31/65/6 28/66/6
f 15/67/6 30/68/6 31/65/6 19/64/6
f 7/69/14 8/70/14 28/71/14 26/72/14
f 59/73/15 57/74/15 51/75/15 52/76/15
f 102/77/16 105/62/16 23/24/16 10/59/16
f 45/78/7 41/79/7 40/80/7 39/81/7
f 33/82/7 42/83/7 43/84/7 34/85/7
f 36/86/7 35/87/7 47/88/7 46/89/7
f 44/90/7 38/91/7 37/92/7 48/93/7
f 55/94/17 53/95/17 52/96/17 51/97/17
f 54/98/18 50/99/18 49/100/18 56/101/18
f 63/102/19 62/103/19 54/104/19 56/105/19
f 68/106/7 67/107/7 60/108/7 58/109/7
f 65/110/1 68/111/1 58/112/1 53/113/1
f 58/112/1 59/114/1 52/115/1 53/113/1
f 57/116/19 60/117/19 55/118/19 51/119/19
f 61/120/1 64/121/1 49/122/1 50/123/1
f 14/22/19 18/21/19 60/117/19 57/116/19
f 11/39/1 2/38/1 59/114/1 58/112/1
f 18/34/20 11/33/20 58/124/20 60/125/20
f 2/126/21 14/127/21 57/128/21 59/129/21
f 4/3/1 25/2/1 64/121/1 61/120/1
f 25/130/22 30/131/22 63/132/22 64/133/22
f 30/134/19 15/135/19 62/103/19 63/102/19
f 15/136/23 4/137/23 61/138/23 62/139/23
f 67/140/19 66/141/19 55/118/19 60/117/19
f 66/142/6 65/143/6 53/144/6 55/145/6
f 56/146/6 49/147/6 125/148/6 127/149/6
f 107/150/24 104/151/24 67/152/24 68/153/24
f 85/154/1 88/155/1 68/111/1 65/110/1
f 87/156/19 86/157/19 66/141/19 67/140/19
f 86/158/6 85/159/6 65/143/6 66/142/6
f 91/160/1 129/161/1 130/162/1 92/163/1
f 90/164/19 131/165/19 132/166/19 89/167/19
f 92/168/6 130/169/6 131/170/6 90/171/6
f 101/172/1 107/173/1 75/174/1 69/175/1
f 69/175/1 75/174/1 109/176/1 111/177/1
f 112/178/25 115/179/25 73/180/25 70/181/25
f 114/182/26 72/183/26 73/180/26 115/179/26
f 111/184/7 113/185/7 71/186/7 69/187/7
f 110/188/27 112/189/27 70/190/27 76/191/27
f 116/192/7 110/193/7 76/194/7 74/195/7
f 116/192/7 74/195/7 71/186/7 113/185/7
f 93/48/1 77/196/1 91/160/1 128/197/1
f 100/198/7 84/199/7 81/200/7 97/201/7
f 100/198/7 94/202/7 78/203/7 84/199/7
f 94/204/28 96/205/28 80/206/28 78/207/28
f 95/208/7 97/201/7 81/200/7 79/209/7
f 98/210/29 82/211/29 83/212/29 99/213/29
f 96/214/30 99/213/30 83/212/30 80/215/30
f 82/216/6 77/217/6 123/218/6 120/219/6
f 134/220/1 129/161/1 123/221/1 109/176/1
f 88/155/1 85/154/1 133/222/1 134/220/1
f 86/157/19 87/156/19 135/223/19 136/224/19
f 85/159/6 86/158/6 136/225/6 133/226/6
f 104/227/19 72/228/19 87/156/19 67/140/19
f 77/229/31 82/230/31 89/231/31 91/232/31
f 132/166/19 135/223/19 114/233/19 120/234/19
f 129/235/10 132/236/10 120/237/10 123/238/10
f 72/239/32 75/240/32 88/241/32 87/242/32
f 98/243/33 93/244/33 128/245/33 126/246/33
f 125/247/1 128/197/1 91/160/1 92/163/1
f 126/248/19 127/249/19 90/164/19 89/167/19
f 127/149/6 125/148/6 92/168/6 90/171/6
f 28/66/34 31/65/34 99/213/34 96/214/34
f 30/68/35 98/210/35 99/213/35 31/65/35
f 27/250/7 29/45/7 97/201/7 95/208/7
f 26/72/36 28/71/36 96/205/36 94/204/36
f 32/44/7 26/251/7 94/202/7 100/198/7
f 32/44/7 100/198/7 97/201/7 29/45/7
f 30/252/6 25/253/6 93/254/6 98/255/6
f 79/256/1 77/196/1 93/48/1 95/47/1
f 9/257/1 11/258/1 107/173/1 101/172/1
f 70/181/37 73/180/37 105/62/37 102/77/37
f 72/183/38 104/61/38 105/62/38 73/180/38
f 69/187/7 71/186/7 103/36/7 101/55/7
f 76/191/39 70/190/39 102/50/39 108/49/39
f 74/195/7 76/194/7 108/41/7 106/35/7
f 74/195/7 106/35/7 103/36/7 71/186/7
f 75/174/1 107/173/1 68/111/1 88/155/1
f 120/259/40 114/182/40 115/179/40 121/260/40
f 117/261/7 119/262/7 113/185/7 111/184/7
f 124/263/27 118/264/27 112/189/27 110/188/27
f 111/177/1 109/176/1 123/221/1 117/265/1
f 122/266/7 116/192/7 113/185/7 119/262/7
f 135/267/41 134/268/41 109/269/41 114/270/41
f 114/271/6 109/272/6 75/273/6 72/274/6
f 117/265/1 123/221/1 77/196/1 79/256/1
f 122/266/7 124/275/7 110/193/7 116/192/7
f 84/199/7 122/266/7 119/262/7 81/200/7
f 84/199/7 78/203/7 124/275/7 122/266/7
f 78/207/27 80/206/27 118/264/27 124/263/27
f 79/209/7 81/200/7 119/262/7 117/261/7
f 82/211/42 120/259/42 121/260/42 83/212/42
f 80/215/43 83/212/43 121/260/43 118/276/43
f 82/277/19 98/278/19 126/248/19 89/167/19
f 118/276/44 121/260/44 115/179/44 112/178/44
f 63/102/19 56/105/19 127/249/19 126/248/19
f 49/122/1 64/121/1 128/197/1 125/247/1
f 64/279/7 63/280/7 126/281/7 128/282/7
f 87/283/7 88/284/7 134/285/7 135/286/7
f 131/170/6 130/169/6 133/226/6 136/225/6
f 132/166/19 131/165/19 136/224/19 135/223/19
f 130/162/1 129/161/1 134/220/1 133/222/1
f 89/287/7 132/288/7 129/289/7 91/290/7
f 140/291/45 143/292/45 144/293/45 139/294/45
f 150/295/46 149/296/46 141/297/46 142/298/46
f 162/299/47 161/300/47 137/301/47 138/302/47
f 137/303/48 140/304/48 139/305/48 138/306/48
f 152/307/49 145/308/49 146/309/49 151/310/49
f 158/311/50 157/312/50 149/313/50 150/314/50
f 151/315/6 150/316/6 142/317/6 144/318/6
f 145/319/51 148/320/51 147/321/51 146/322/51
f 163/323/52 164/324/52 157/325/52 158/326/52
f 154/327/53 156/328/53 155/329/53 153/330/53
f 160/331/6 158/332/6 150/333/6 147/334/6
f 159/335/54 154/336/54 153/337/54 160/338/54
f 166/339/6 163/340/6 158/341/6 155/342/6
f 168/343/47 161/300/47 162/299/47 167/344/47
f 165/345/53 168/346/53 167/347/53 166/348/53
f 163/349/6 162/350/6 138/351/6 142/352/6
f 137/353/46 141/354/46 45/355/46 39/356/46
f 5/357/55 20/358/55 138/306/55 139/305/55
f 140/304/56 137/303/56 39/359/56 40/360/56
f 20/361/46 24/362/46 142/363/46 138/364/46
f 143/292/57 140/291/57 40/365/57 41/366/57
f 12/367/58 5/368/58 139/294/58 144/293/58
f 141/369/59 143/370/59 41/371/59 45/372/59
f 24/373/59 12/374/59 144/375/59 142/376/59
f 145/308/60 152/307/60 37/377/60 38/378/60
f 21/379/61 7/380/61 146/322/61 147/321/61
f 148/320/62 145/319/62 38/381/62 44/382/62
f 7/383/63 26/384/63 151/310/63 146/309/63
f 149/385/46 148/386/46 44/387/46 48/388/46
f 32/389/46 21/390/46 147/391/46 150/392/46
f 26/393/50 32/394/50 150/395/50 151/396/50
f 152/397/50 149/398/50 48/399/50 37/400/50
f 156/328/53 154/327/53 36/401/53 46/402/53
f 3/403/54 13/404/54 160/338/54 153/337/54
f 27/405/53 3/406/53 153/330/53 155/329/53
f 154/336/54 159/335/54 35/407/54 36/408/54
f 157/409/50 156/410/50 46/411/50 47/412/50
f 29/413/50 27/414/50 155/415/50 158/416/50
f 13/417/52 29/418/52 158/419/52 160/420/52
f 159/421/52 157/422/52 47/423/52 35/424/52
f 161/300/47 168/343/47 34/425/47 43/426/47
f 17/427/52 16/428/52 162/429/52 163/430/52
f 164/431/52 161/432/52 43/433/52 42/434/52
f 16/435/47 1/436/47 167/344/47 162/299/47
f 165/437/59 164/438/59 42/439/59 33/440/59
f 9/441/59 17/442/59 163/443/59 166/444/59
f 1/445/53 9/446/53 166/348/53 167/347/53
f 168/346/53 165/345/53 33/447/53 34/448/53
f 149/449/7 152/450/7 143/451/7 141/452/7
f 152/453/64 151/454/64 144/455/64 143/456/64
f 157/457/7 159/458/7 148/459/7 149/460/7
f 159/335/54 160/338/54 147/461/54 148/462/54
f 161/463/7 164/464/7 141/465/7 137/466/7
f 164/467/59 163/468/59 142/469/59 141/470/59
f 164/471/7 165/472/7 156/473/7 157/474/7
f 165/345/53 166/348/53 155/329/53 156/328/53
