# Blender 5.1.2
# www.blender.org
mtllib ComputerRig.mtl
o ComputerRig
v 0.250000 0.000000 -0.520050
v 0.250000 0.450000 -0.520050
v 0.250000 0.000000 -0.270050
v 0.250000 0.450000 -0.270050
v -0.250000 0.013930 -0.512311
v -0.234523 0.000000 -0.520050
v -0.234523 0.450000 -0.520050
v -0.250000 0.436070 -0.512311
v -0.250000 0.013930 -0.277789
v -0.234523 0.000000 -0.270050
v -0.250000 0.436070 -0.277789
v -0.234523 0.450000 -0.270050
vn 1.0000 -0.0000 -0.0000
vn -0.4472 -0.0000 0.8944
vn -0.6690 -0.7433 -0.0000
vn -0.6690 0.7433 -0.0000
vn -0.4472 -0.0000 -0.8944
vn -0.0000 -1.0000 -0.0000
vn -1.0000 -0.0000 -0.0000
vn -0.0000 -0.0000 -1.0000
vn -0.0000 1.0000 -0.0000
vn -0.0000 -0.0000 1.0000
vt 0.179853 0.277885
vt 0.424132 0.277885
vt 0.424132 0.413596
vt 0.179853 0.413596
vt 0.242175 0.930398
vt 0.013020 0.930398
vt 0.005458 0.921005
vt 0.249737 0.921005
vt 0.221762 0.948889
vt 0.357473 0.948889
vt 0.353272 0.960192
vt 0.225963 0.960192
vt 0.370829 0.948881
vt 0.506539 0.948881
vt 0.502338 0.960184
vt 0.375030 0.960184
vt 0.918299 0.249732
vt 0.918299 0.005453
vt 0.927693 0.013014
vt 0.927693 0.242170
vt 0.774807 0.287200
vt 0.511787 0.287200
vt 0.511787 0.151489
vt 0.774807 0.151489
vt 0.179664 0.424721
vt 0.408820 0.424721
vt 0.408820 0.552029
vt 0.179664 0.552029
vt 0.258212 0.004649
vt 0.502492 0.004649
vt 0.502492 0.267669
vt 0.258212 0.267669
vt 0.511783 0.004651
vt 0.774803 0.004651
vt 0.774803 0.140362
vt 0.511783 0.140362
vt 0.248923 0.267663
vt 0.004643 0.267663
vt 0.004643 0.004643
vt 0.248923 0.004643
s 1
f 1/1/1 2/2/1 4/3/1 3/4/1
f 11/5/2 9/6/2 10/7/2 12/8/2
f 6/9/3 10/10/3 9/11/3 5/12/3
f 12/13/4 7/14/4 8/15/4 11/16/4
f 7/17/5 6/18/5 5/19/5 8/20/5
f 3/21/6 10/22/6 6/23/6 1/24/6
f 9/25/7 11/26/7 8/27/7 5/28/7
f 6/29/8 7/30/8 2/31/8 1/32/8
f 12/33/9 4/34/9 2/35/9 7/36/9
f 3/37/10 4/38/10 12/39/10 10/40/10
o Keyboard
v -0.289942 0.000000 -0.233306
v -0.297125 0.047234 -0.222753
v -0.275000 0.000000 0.254950
v -0.297125 0.047234 0.232652
v -0.467529 0.000000 -0.233306
v -0.452874 0.027766 -0.222753
v -0.467529 0.000000 0.231460
v -0.452874 0.027766 0.232652
v -0.275000 0.025000 -0.245050
v -0.275000 0.025000 0.254950
v -0.475000 0.012500 0.254950
v -0.475000 0.012500 -0.245050
v -0.275000 0.050000 -0.245050
v -0.275000 0.050000 0.254950
v -0.475000 0.025000 0.254950
v -0.475000 0.025000 -0.245050
v -0.298495 0.058194 -0.222753
v -0.298495 0.058194 0.232652
v -0.454244 0.038725 0.232652
v -0.454244 0.038725 -0.222753
v -0.314106 0.037719 -0.185654
v -0.313401 0.037719 -0.180704
v -0.313377 0.033402 -0.178182
v -0.314057 0.029084 -0.180611
v -0.314762 0.029084 -0.185560
v -0.314786 0.033402 -0.188082
v -0.168910 0.026462 -0.206324
v -0.168517 0.026479 -0.201340
v -0.168461 0.022160 -0.198821
v -0.168798 0.017823 -0.201287
v -0.169192 0.017806 -0.206272
v -0.169247 0.022125 -0.208790
v -0.059055 0.027665 -0.208075
v -0.059140 0.027677 -0.203075
v -0.058949 0.023359 -0.200562
v -0.058673 0.019029 -0.203047
v -0.058588 0.019017 -0.208046
v -0.058779 0.023335 -0.210560
v 0.027166 0.036071 -0.203760
v 0.026938 0.036069 -0.198766
v 0.027435 0.031781 -0.196242
v 0.028160 0.027495 -0.198713
v 0.028388 0.027497 -0.203708
v 0.027891 0.031785 -0.206231
v 0.184543 0.065764 -0.197134
v 0.185418 0.065971 -0.192215
v 0.186857 0.061862 -0.189756
v 0.187421 0.057546 -0.192217
v 0.186547 0.057339 -0.197135
v 0.185108 0.061448 -0.199594
v 0.233351 0.080039 -0.218816
v 0.235727 0.080684 -0.214463
v 0.238285 0.076902 -0.212428
v 0.238469 0.072474 -0.214744
v 0.236093 0.071829 -0.219096
v 0.233534 0.075612 -0.221132
v 0.281684 0.100607 -0.256549
v 0.285087 0.101784 -0.253078
v 0.288793 0.098596 -0.252028
v 0.289097 0.094231 -0.254449
v 0.285694 0.093054 -0.257918
v 0.281988 0.096242 -0.258968
v 0.303946 0.132903 -0.305486
v 0.307920 0.134681 -0.303026
v 0.312199 0.132095 -0.302989
v 0.312505 0.127733 -0.305412
v 0.308531 0.125955 -0.307873
v 0.304252 0.128541 -0.307909
v 0.310564 0.145367 -0.329909
v 0.314721 0.147469 -0.328091
v 0.319055 0.144981 -0.328246
v 0.319233 0.140391 -0.330221
v 0.315077 0.138289 -0.332040
v 0.310742 0.140777 -0.331883
v 0.315580 0.156491 -0.360065
v 0.319809 0.158943 -0.359016
v 0.324231 0.156877 -0.360100
v 0.324424 0.152359 -0.362233
v 0.320195 0.149907 -0.363282
v 0.315773 0.151973 -0.362198
v 0.311020 0.167672 -0.379443
v 0.315166 0.170403 -0.378847
v 0.319322 0.169221 -0.381362
v 0.319333 0.165308 -0.384475
v 0.315188 0.162576 -0.385071
v 0.311032 0.163758 -0.382555
v 0.300849 0.186853 -0.397049
v 0.304766 0.189954 -0.396851
v 0.308420 0.189586 -0.400244
v 0.308157 0.186117 -0.403834
v 0.304240 0.183016 -0.404033
v 0.300586 0.183384 -0.400640
v 0.283943 0.204010 -0.412497
v 0.287116 0.207852 -0.412910
v 0.289843 0.208408 -0.417063
v 0.289396 0.205122 -0.420805
v 0.286223 0.201280 -0.420393
v 0.283496 0.200724 -0.416239
v 0.243372 0.227913 -0.424643
v 0.246034 0.232100 -0.425270
v 0.248008 0.233161 -0.429739
v 0.247321 0.230036 -0.433581
v 0.244660 0.225850 -0.432955
v 0.242685 0.224789 -0.428486
vn 1.0000 -0.0000 -0.0000
vn -0.0000 -0.0000 1.0000
vn -1.0000 -0.0000 -0.0000
vn -0.0000 -0.0000 -1.0000
vn -0.0000 -1.0000 -0.0000
vn -0.9923 -0.1240 -0.0000
vn 0.0177 -0.5333 -0.8458
vn -0.8584 -0.5130 -0.0000
vn -0.0335 -0.5353 0.8440
vn 0.9571 -0.2894 -0.0145
vn -0.1240 0.9923 -0.0000
vn 0.9923 0.1240 -0.0000
vn -0.0842 0.4980 -0.8631
vn 0.0759 0.9971 -0.0101
vn 0.1600 0.4987 0.8519
vn 0.0843 -0.4980 0.8631
vn -0.0758 -0.9971 0.0101
vn -0.1599 -0.4986 -0.8520
vn -0.0193 0.4960 -0.8681
vn -0.0110 0.9999 -0.0026
vn 0.0082 0.5036 0.8639
vn 0.0193 -0.4960 0.8681
vn 0.0110 -0.9999 0.0026
vn -0.0083 -0.5036 -0.8639
vn -0.0052 0.4981 -0.8671
vn -0.0968 0.9953 -0.0040
vn -0.0917 0.4975 0.8626
vn 0.0052 -0.4981 0.8671
vn 0.0968 -0.9953 0.0040
vn 0.0916 -0.4975 -0.8626
vn -0.0558 0.4902 -0.8698
vn -0.1851 0.9827 -0.0082
vn -0.1269 0.4844 0.8656
vn 0.0571 -0.4901 0.8698
vn 0.1851 -0.9827 0.0083
vn 0.1276 -0.4842 -0.8656
vn -0.4670 0.3928 -0.7922
vn -0.2771 0.9608 0.0089
vn 0.1933 0.5577 0.8072
vn 0.4649 -0.3935 0.7931
vn 0.2771 -0.9608 -0.0088
vn -0.1949 -0.5581 -0.8066
vn -0.6641 0.3257 -0.6730
vn -0.3595 0.9319 0.0485
vn 0.3135 0.6055 0.7315
vn 0.6661 -0.3248 0.6715
vn 0.3606 -0.9314 -0.0495
vn -0.3134 -0.6055 -0.7315
vn -0.9316 0.1244 -0.3416
vn -0.5408 0.7942 0.2770
vn 0.4000 0.6707 0.6246
vn 0.9303 -0.1261 0.3444
vn 0.5401 -0.7951 -0.2757
vn -0.4000 -0.6707 -0.6246
vn -0.9709 0.0613 -0.2317
vn -0.5264 0.8066 0.2689
vn 0.4447 0.7432 0.4999
vn 0.9708 -0.0615 0.2320
vn 0.5265 -0.8065 -0.2689
vn -0.4448 -0.7432 -0.4998
vn -0.9877 0.0290 -0.1534
vn -0.5223 0.8243 0.2185
vn 0.4690 0.7999 0.3744
vn 0.9883 -0.0275 0.1502
vn 0.5229 -0.8231 -0.2217
vn -0.4691 -0.8001 -0.3739
vn -0.9797 -0.1224 0.1586
vn -0.5219 0.6799 0.5151
vn 0.4593 0.8108 0.3629
vn 0.9805 0.1204 -0.1554
vn 0.5220 -0.6797 -0.5152
vn -0.4592 -0.8103 -0.3640
vn -0.9298 -0.2295 0.2876
vn -0.4235 0.4809 0.7677
vn 0.5063 0.7153 0.4817
vn 0.9293 0.2303 -0.2886
vn 0.4250 -0.4831 -0.7654
vn -0.5063 -0.7155 -0.4814
vn -0.8051 -0.3954 0.4422
vn -0.3641 0.3979 0.8421
vn 0.4484 0.7998 0.3991
vn 0.8036 0.3970 -0.4435
vn 0.3628 -0.3963 -0.8434
vn -0.4482 -0.8000 -0.3989
vn -0.5337 -0.6049 0.5910
vn -0.1504 0.2338 0.9606
vn 0.3875 0.8445 0.3696
vn 0.5362 0.6034 -0.5902
vn 0.1520 -0.2346 -0.9601
vn -0.3874 -0.8446 -0.3696
vt 0.273671 0.854090
vt 0.273671 0.867541
vt 0.004651 0.867541
vt 0.004651 0.854090
vt 0.833408 0.970059
vt 0.832568 0.956635
vt 0.940806 0.963347
vt 0.941225 0.970059
vt 0.948370 0.227699
vt 0.955095 0.227699
vt 0.955095 0.496719
vt 0.948370 0.496719
vt 0.862786 0.990500
vt 0.863206 0.983787
vt 0.971443 0.977080
vt 0.970604 0.990505
vt 0.108232 0.769209
vt 0.004643 0.756571
vt 0.004643 0.506508
vt 0.100192 0.506508
vt 0.964389 0.470864
vt 0.964389 0.225838
vt 0.970331 0.225838
vt 0.970331 0.470864
vt 0.976870 0.478641
vt 0.986294 0.475106
vt 0.986294 0.582924
vt 0.971909 0.574061
vt 0.931244 0.254132
vt 0.939079 0.241493
vt 0.939079 0.510513
vt 0.931244 0.504195
vt 0.621660 0.948040
vt 0.621534 0.961491
vt 0.513716 0.961491
vt 0.517308 0.947061
vt 0.649042 0.852261
vt 0.655361 0.867932
vt 0.386341 0.867932
vt 0.386227 0.854481
vt 0.726000 0.555347
vt 0.726000 0.310321
vt 0.737996 0.298324
vt 0.737996 0.567344
vt 0.641548 0.310321
vt 0.629551 0.298324
vt 0.641548 0.555347
vt 0.629551 0.567344
vt 0.113899 0.646722
vt 0.113899 0.562271
vt 0.358925 0.562271
vt 0.358925 0.646722
vt 0.004646 0.971190
vt 0.249672 0.971190
vt 0.249672 0.977133
vt 0.004646 0.977133
vt 0.979629 0.460842
vt 0.979629 0.376391
vt 0.985571 0.376391
vt 0.985571 0.460842
vt 0.406430 0.805759
vt 0.490881 0.805758
vt 0.490881 0.811701
vt 0.406430 0.811701
vt 0.115827 0.692393
vt 0.196714 0.692637
vt 0.196705 0.695384
vt 0.115819 0.695142
vt 0.115793 0.706090
vt 0.196672 0.706367
vt 0.196664 0.709115
vt 0.115783 0.708782
vt 0.115801 0.703397
vt 0.196680 0.703635
vt 0.115807 0.700700
vt 0.196691 0.700882
vt 0.115812 0.697945
vt 0.196698 0.698126
vt 0.256861 0.692876
vt 0.256850 0.695590
vt 0.256832 0.706454
vt 0.256831 0.709156
vt 0.256832 0.703762
vt 0.256838 0.701051
vt 0.256842 0.698325
vt 0.303957 0.693047
vt 0.303953 0.695683
vt 0.303955 0.706506
vt 0.303955 0.709212
vt 0.303954 0.703768
vt 0.303956 0.701008
vt 0.303954 0.698330
vt 0.391780 0.692933
vt 0.391771 0.695679
vt 0.391764 0.706450
vt 0.391775 0.709099
vt 0.391755 0.703772
vt 0.391760 0.701090
vt 0.391759 0.698403
vt 0.422030 0.693189
vt 0.422015 0.695823
vt 0.422026 0.706349
vt 0.422033 0.709013
vt 0.422011 0.703721
vt 0.422007 0.700967
vt 0.422004 0.698349
vt 0.456835 0.693218
vt 0.456847 0.695835
vt 0.456847 0.706220
vt 0.456845 0.708889
vt 0.456843 0.703595
vt 0.456852 0.701000
vt 0.456855 0.698406
vt 0.490815 0.692888
vt 0.490842 0.695588
vt 0.490855 0.706307
vt 0.490860 0.709011
vt 0.490849 0.703659
vt 0.490853 0.700939
vt 0.490854 0.698229
vt 0.506145 0.692820
vt 0.506126 0.695564
vt 0.506163 0.706297
vt 0.506186 0.708964
vt 0.506137 0.703670
vt 0.506122 0.700941
vt 0.506114 0.698238
vt 0.523848 0.693166
vt 0.523807 0.695830
vt 0.523836 0.705996
vt 0.523863 0.708671
vt 0.523815 0.703401
vt 0.523805 0.700951
vt 0.523796 0.698432
vt 0.536423 0.693223
vt 0.536441 0.695812
vt 0.536471 0.705997
vt 0.536490 0.708722
vt 0.536496 0.703372
vt 0.536484 0.700757
vt 0.536470 0.698276
vt 0.551492 0.692981
vt 0.551518 0.695677
vt 0.551588 0.705830
vt 0.551619 0.708420
vt 0.551566 0.703380
vt 0.551550 0.700831
vt 0.551538 0.698232
vt 0.566935 0.692917
vt 0.566968 0.695548
vt 0.567055 0.705720
vt 0.567050 0.708363
vt 0.567050 0.703154
vt 0.567030 0.700646
vt 0.566996 0.698119
vt 0.592930 0.692458
vt 0.592976 0.695131
vt 0.593066 0.705804
vt 0.593058 0.708479
vt 0.593074 0.703183
vt 0.593064 0.700417
vt 0.593021 0.697703
s 1
f 21/41/11 25/42/11 26/43/11 22/44/11
f 22/45/12 26/46/12 27/47/12 23/48/12
f 23/49/13 27/50/13 28/51/13 24/52/13
f 24/53/14 28/54/14 25/55/14 21/56/14
f 15/57/15 19/58/15 17/59/15 13/60/15
f 18/61/16 20/62/16 31/63/16 32/64/16
f 17/65/17 24/66/17 21/67/17 13/68/17
f 19/69/18 23/70/18 24/71/18 17/72/18
f 15/73/19 22/74/19 23/75/19 19/76/19
f 13/77/20 21/78/20 22/79/20 15/80/20
f 14/81/21 16/82/21 26/83/21 25/84/21
f 16/82/21 20/85/21 27/86/21 26/83/21
f 20/85/21 18/87/21 28/88/21 27/86/21
f 18/87/21 14/81/21 25/84/21 28/88/21
f 31/89/21 30/90/21 29/91/21 32/92/21
f 16/93/22 14/94/22 29/95/22 30/96/22
f 14/97/14 18/98/14 32/99/14 29/100/14
f 20/101/12 16/102/12 30/103/12 31/104/12
f 33/105/23 39/106/23 44/107/23 38/108/23
f 34/109/24 40/110/24 39/111/24 33/112/24
f 35/113/25 41/114/25 40/110/25 34/109/25
f 36/115/26 42/116/26 41/114/26 35/113/26
f 37/117/27 43/118/27 42/116/27 36/115/27
f 38/108/28 44/107/28 43/118/28 37/117/28
f 39/106/29 45/119/29 50/120/29 44/107/29
f 40/110/30 46/121/30 45/122/30 39/111/30
f 41/114/31 47/123/31 46/121/31 40/110/31
f 42/116/32 48/124/32 47/123/32 41/114/32
f 43/118/33 49/125/33 48/124/33 42/116/33
f 44/107/34 50/120/34 49/125/34 43/118/34
f 45/119/35 51/126/35 56/127/35 50/120/35
f 46/121/36 52/128/36 51/129/36 45/122/36
f 47/123/37 53/130/37 52/128/37 46/121/37
f 48/124/38 54/131/38 53/130/38 47/123/38
f 49/125/39 55/132/39 54/131/39 48/124/39
f 50/120/40 56/127/40 55/132/40 49/125/40
f 51/126/41 57/133/41 62/134/41 56/127/41
f 52/128/42 58/135/42 57/136/42 51/129/42
f 53/130/43 59/137/43 58/135/43 52/128/43
f 54/131/44 60/138/44 59/137/44 53/130/44
f 55/132/45 61/139/45 60/138/45 54/131/45
f 56/127/46 62/134/46 61/139/46 55/132/46
f 57/133/47 63/140/47 68/141/47 62/134/47
f 58/135/48 64/142/48 63/143/48 57/136/48
f 59/137/49 65/144/49 64/142/49 58/135/49
f 60/138/50 66/145/50 65/144/50 59/137/50
f 61/139/51 67/146/51 66/145/51 60/138/51
f 62/134/52 68/141/52 67/146/52 61/139/52
f 63/140/53 69/147/53 74/148/53 68/141/53
f 64/142/54 70/149/54 69/150/54 63/143/54
f 65/144/55 71/151/55 70/149/55 64/142/55
f 66/145/56 72/152/56 71/151/56 65/144/56
f 67/146/57 73/153/57 72/152/57 66/145/57
f 68/141/58 74/148/58 73/153/58 67/146/58
f 69/147/59 75/154/59 80/155/59 74/148/59
f 70/149/60 76/156/60 75/157/60 69/150/60
f 71/151/61 77/158/61 76/156/61 70/149/61
f 72/152/62 78/159/62 77/158/62 71/151/62
f 73/153/63 79/160/63 78/159/63 72/152/63
f 74/148/64 80/155/64 79/160/64 73/153/64
f 75/154/65 81/161/65 86/162/65 80/155/65
f 76/156/66 82/163/66 81/164/66 75/157/66
f 77/158/67 83/165/67 82/163/67 76/156/67
f 78/159/68 84/166/68 83/165/68 77/158/68
f 79/160/69 85/167/69 84/166/69 78/159/69
f 80/155/70 86/162/70 85/167/70 79/160/70
f 81/161/71 87/168/71 92/169/71 86/162/71
f 82/163/72 88/170/72 87/171/72 81/164/72
f 83/165/73 89/172/73 88/170/73 82/163/73
f 84/166/74 90/173/74 89/172/74 83/165/74
f 85/167/75 91/174/75 90/173/75 84/166/75
f 86/162/76 92/169/76 91/174/76 85/167/76
f 87/168/77 93/175/77 98/176/77 92/169/77
f 88/170/78 94/177/78 93/178/78 87/171/78
f 89/172/79 95/179/79 94/177/79 88/170/79
f 90/173/80 96/180/80 95/179/80 89/172/80
f 91/174/81 97/181/81 96/180/81 90/173/81
f 92/169/82 98/176/82 97/181/82 91/174/82
f 93/175/83 99/182/83 104/183/83 98/176/83
f 94/177/84 100/184/84 99/185/84 93/178/84
f 95/179/85 101/186/85 100/184/85 94/177/85
f 96/180/86 102/187/86 101/186/86 95/179/86
f 97/181/87 103/188/87 102/187/87 96/180/87
f 98/176/88 104/183/88 103/188/88 97/181/88
f 99/182/89 105/189/89 110/190/89 104/183/89
f 100/184/90 106/191/90 105/192/90 99/185/90
f 101/186/91 107/193/91 106/191/91 100/184/91
f 102/187/92 108/194/92 107/193/92 101/186/92
f 103/188/93 109/195/93 108/194/93 102/187/93
f 104/183/94 110/190/94 109/195/94 103/188/94
f 105/189/95 111/196/95 116/197/95 110/190/95
f 106/191/96 112/198/96 111/199/96 105/192/96
f 107/193/97 113/200/97 112/198/97 106/191/97
f 108/194/98 114/201/98 113/200/98 107/193/98
f 109/195/99 115/202/99 114/201/99 108/194/99
f 110/190/100 116/197/100 115/202/100 109/195/100
o Monitor
v -0.003815 0.128669 -0.198858
v 0.100165 0.388441 -0.171390
v -0.003815 0.117475 0.181342
v 0.100165 0.388441 0.181291
v -0.097558 0.117134 -0.171441
v -0.065561 0.436819 0.208759
v -0.065561 0.436819 -0.198858
v -0.097558 0.117134 0.181342
v -0.138517 0.108372 0.205063
v -0.106782 0.460011 0.232450
v -0.138517 0.108372 -0.195162
v -0.106782 0.460011 -0.222549
v -0.120389 0.466431 0.240549
v -0.166756 0.443849 0.223508
v -0.185753 0.137411 0.223508
v -0.185753 0.137411 -0.213607
v -0.166756 0.443849 -0.213607
v -0.144284 0.088722 -0.203231
v -0.144284 0.088722 0.213132
v -0.120389 0.466431 -0.230648
v -0.071887 0.456490 -0.221242
v -0.107210 0.102557 0.203888
v -0.071887 0.456490 0.231143
v -0.107210 0.102557 -0.193987
v 0.124317 0.173162 -0.171441
v 0.124317 0.173162 0.181342
v -0.122034 0.285677 -0.228264
v -0.122034 0.285677 0.238163
v -0.182370 0.290630 0.228995
v -0.182370 0.290630 -0.219096
v -0.131874 0.285891 -0.236567
v -0.131874 0.285891 0.246466
v -0.079225 0.280640 0.213878
v -0.079225 0.280640 -0.203978
v -0.087052 0.283158 -0.226924
v -0.087052 0.283158 0.236823
v 0.100165 0.391748 0.004951
v -0.106782 0.464963 0.004951
v -0.191869 0.129206 0.004951
v -0.172871 0.449064 0.004951
v -0.120389 0.471532 0.004951
v -0.065561 0.441239 0.004951
v -0.071887 0.461362 0.004951
v 0.156721 0.180685 -0.129212
v 0.187707 0.331576 -0.137597
v 0.187707 0.333575 0.004951
v 0.187707 0.331576 0.147498
v 0.156721 0.180685 0.139113
v 0.156721 0.179212 0.004951
v -0.171259 0.290630 0.246466
v -0.161805 0.093928 0.213132
v -0.161805 0.090459 0.004951
v -0.159773 0.476380 0.004951
v -0.159773 0.471170 -0.230648
v -0.171259 0.290630 -0.236567
v -0.161805 0.093928 -0.203231
v -0.159773 0.471170 0.240549
v -0.172768 0.291090 0.004950
v -0.170118 0.290047 -0.194860
v -0.170118 0.290047 0.204760
v -0.179617 0.138347 0.004951
v -0.160619 0.443832 0.004951
v -0.171595 0.140739 0.199865
v -0.152597 0.439355 -0.189964
v -0.171595 0.140739 -0.189964
v -0.152597 0.439355 0.199865
v 0.119869 0.183914 0.193770
v -0.003815 0.128669 0.208759
v -0.092889 0.124460 0.208759
v -0.003815 0.117475 -0.171441
v -0.092889 0.124460 -0.198858
v -0.102216 0.109826 0.231143
v -0.143360 0.091709 -0.230648
v -0.137286 0.111343 -0.222549
v -0.143360 0.091709 0.240549
v -0.137286 0.111343 0.232450
v -0.102216 0.109826 -0.221242
v -0.182744 0.093037 0.004951
v -0.182744 0.096447 0.240549
v -0.182744 0.096447 -0.230648
v 0.119869 0.183914 -0.183869
v 0.172759 0.193060 -0.150066
v 0.172759 0.191872 0.004951
v 0.172759 0.193060 0.159967
v 0.003027 0.083662 -0.067636
v -0.124578 0.058369 0.004951
v -0.126469 0.065181 -0.182395
v -0.133007 0.055360 0.004951
v -0.134417 0.061247 -0.188942
v -0.059437 0.071560 0.004951
v -0.047633 0.076119 -0.062346
v -0.093955 0.063002 0.004951
v -0.098279 0.068412 -0.179431
v 0.106209 0.096623 0.004951
v 0.091976 0.102384 0.070632
v 0.003027 0.083662 0.077538
v -0.126469 0.065181 0.192296
v -0.134417 0.061247 0.198843
v -0.047633 0.076119 0.072247
v -0.098279 0.068412 0.189332
v 0.091976 0.102384 -0.060731
v -0.149893 0.055529 0.004951
v 0.159673 0.132393 0.004951
v -0.149819 0.060608 0.194792
v -0.149819 0.060608 -0.184891
v 0.158886 0.135361 -0.121113
v 0.158886 0.135361 0.131014
v 0.096081 0.278662 -0.188612
v 0.180233 0.262318 0.157468
v 0.180233 0.262723 0.004950
v 0.180233 0.262318 -0.147569
v 0.092232 0.293645 0.198511
v -0.001840 0.285539 0.206942
v 0.008428 0.278575 -0.196295
v -0.000482 0.428937 0.201264
v -0.000482 0.433175 0.004951
v -0.000482 0.428937 -0.191363
v -0.077964 0.066662 0.004951
v -0.081996 0.072820 -0.161276
v 0.125284 0.103603 0.004951
v 0.124803 0.111175 0.166897
v -0.081996 0.072820 0.171177
v 0.124803 0.111175 -0.156996
v 0.007202 0.085465 0.169687
v 0.007202 0.085465 -0.159786
v 0.029416 -0.000408 0.004951
v 0.024904 0.020785 -0.067636
v 0.110074 0.020762 -0.060731
v -0.037560 0.020799 0.004951
v -0.029535 0.020794 -0.062346
v -0.029535 0.020794 0.072247
v 0.024904 0.020785 0.077538
v 0.128085 0.020769 0.004951
v 0.110074 0.020762 0.070632
v 0.177526 0.012999 -0.157799
v 0.177534 -0.000171 -0.157820
v -0.167168 0.012996 -0.157840
v -0.167168 -0.000170 -0.157811
v -0.167169 -0.000169 0.004951
v 0.177601 -0.000172 0.004951
v 0.177535 -0.000171 0.167671
v -0.167168 -0.000170 0.167675
v 0.025051 -0.000171 0.167713
v 0.025051 -0.000171 -0.157721
v -0.167168 0.012996 0.167663
v 0.177602 0.013000 0.004951
v 0.177526 0.012999 0.167681
v 0.023500 0.012998 -0.157721
v -0.167169 0.012995 0.004951
v 0.023500 0.012998 0.167713
vn 0.5509 0.8344 0.0139
vn 0.4354 0.9000 -0.0195
vn 0.7588 -0.0755 -0.6469
vn 0.1228 0.9922 -0.0215
vn 0.0519 -0.3201 -0.9460
vn -0.9432 -0.3322 -0.0073
vn 0.5701 -0.0160 0.8214
vn 0.0404 0.0292 0.9988
vn 0.0039 0.0325 0.9995
vn -0.8760 0.0306 -0.4814
vn 0.7471 -0.0227 0.6644
vn 0.1208 0.9924 -0.0217
vn 0.0039 0.0325 -0.9995
vn 0.0955 -0.2555 -0.9621
vn 0.9540 0.2997 -0.0000
vn 0.9540 0.2997 -0.0065
vn 0.9416 -0.0716 -0.3290
vn 0.0404 0.0292 -0.9988
vn 0.1019 0.9946 -0.0215
vn 0.9416 -0.0716 0.3290
vn 0.7471 -0.0227 -0.6644
vn 0.9392 -0.0930 0.3306
vn 0.0357 -0.0359 -0.9987
vn 0.9392 -0.0930 -0.3306
vn -0.0036 -0.0303 -0.9995
vn -0.3533 -0.9355 0.0098
vn -0.0036 -0.0302 0.9995
vn 0.0357 -0.0358 0.9987
vn 0.7588 -0.0755 0.6469
vn 0.5701 -0.0160 -0.8214
vn 0.1071 -0.0006 0.9942
vn 0.0436 -0.0120 -0.9990
vn 0.8233 0.0800 -0.5619
vn 0.8233 0.0800 0.5619
vn -0.8694 0.0785 -0.4879
vn 0.0519 -0.3201 0.9460
vn 0.1019 0.9946 0.0215
vn 0.9540 0.2997 0.0065
vn 0.7785 -0.1106 0.6178
vn 0.1208 0.9924 0.0217
vn 0.0267 -0.2662 -0.9636
vn -0.4330 0.9014 0.0083
vn -0.1746 -0.5136 0.8401
vn 0.9985 0.0553 -0.0021
vn 0.9985 0.0553 -0.0000
vn 0.1228 0.9922 0.0215
vn 0.4354 0.9000 0.0195
vn 0.0267 -0.2662 0.9636
vn 0.9944 -0.1061 -0.0000
vn 0.9944 -0.1061 -0.0003
vn 0.9944 -0.1061 0.0003
vn 0.5509 0.8344 -0.0139
vn 0.4805 0.0358 -0.8763
vn 0.4350 0.1073 0.8940
vn -0.1746 -0.5136 -0.8401
vn -0.9141 0.0258 0.4047
vn -0.9883 -0.1517 0.0172
vn -0.9405 0.3393 -0.0205
vn -0.9141 0.0258 -0.4047
vn -0.9091 0.0877 0.4072
vn -0.9091 0.0877 -0.4072
vn -0.9883 -0.1517 -0.0172
vn -0.9405 0.3393 0.0205
vn -0.9948 0.0982 -0.0283
vn -0.9993 0.0271 -0.0269
vn -0.9993 0.0271 0.0269
vn -0.9948 0.0982 0.0283
vn -0.3533 -0.9355 -0.0098
vn -0.8694 0.0785 0.4879
vn -0.8760 0.0306 0.4814
vn -0.4330 0.9014 -0.0083
vn 0.3777 -0.7926 0.4787
vn 0.0236 -0.9478 0.3181
vn 0.0236 -0.9478 -0.3181
vn 0.8372 -0.5469 -0.0020
vn 0.9567 -0.2909 0.0060
vn 0.9567 -0.2909 -0.0060
vn -0.1005 -0.9758 -0.1943
vn -0.1109 -0.9937 0.0154
vn -0.1720 -0.9844 -0.0361
vn -0.1720 -0.9844 0.0361
vn -0.1005 -0.9758 0.1943
vn 0.8372 -0.5469 0.0020
vn 0.3777 -0.7926 -0.4787
vn -0.1109 -0.9937 -0.0154
vn 0.4892 -0.7868 -0.3763
vn 0.6123 -0.7906 0.0073
vn 0.6123 -0.7906 -0.0073
vn 0.4892 -0.7868 0.3763
vn 0.4016 -0.9152 0.0340
vn 0.1342 -0.9903 -0.0348
vn 0.0110 -0.9995 -0.0286
vn -0.0576 0.9983 0.0020
vn -0.0576 0.9983 -0.0000
vn 0.2624 -0.9642 -0.0381
vn 0.0001 -1.0000 -0.0000
vn -0.0006 -1.0000 -0.0000
vn -0.0006 -1.0000 -0.0007
vn 0.0001 -1.0000 -0.0007
vn 0.1236 0.9923 -0.0098
vn 0.2624 -0.9642 0.0381
vn -0.0006 -1.0000 0.0007
vn 0.0001 -1.0000 0.0007
vn 0.0110 -0.9995 0.0286
vn 0.1342 -0.9903 0.0348
vn 0.4016 -0.9152 -0.0340
vn 0.6219 -0.7825 -0.0314
vn 0.6219 -0.7825 0.0314
vn 0.7785 -0.1106 -0.6178
vn -0.9432 -0.3322 0.0073
vn 0.0955 -0.2555 0.9621
vn 0.9985 0.0553 0.0021
vn 0.1076 -0.0038 -0.9942
vn 0.9944 -0.1061 -0.0009
vn 0.1630 0.0867 -0.9828
vn 0.9944 -0.1061 0.0009
vn 0.4355 0.1076 -0.8938
vn 0.1014 0.0308 0.9944
vn 0.4739 0.0424 0.8795
vn 0.1008 0.0310 -0.9944
vn 0.0423 -0.0127 0.9990
vn 0.3785 0.9254 0.0187
vn 0.3785 0.9254 -0.0187
vn 0.1582 0.0884 0.9835
vn 0.2209 -0.9746 -0.0374
vn 0.1713 -0.9828 0.0686
vn 0.2209 -0.9746 0.0374
vn 0.1713 -0.9828 -0.0686
vn 0.2109 -0.9774 0.0135
vn 0.1425 -0.9897 0.0148
vn 0.1425 -0.9897 -0.0148
vn 0.2109 -0.9774 -0.0135
vn 0.0008 -1.0000 -0.0000
vn 0.0008 -1.0000 0.0007
vn 0.0004 0.9966 0.0821
vn -0.0018 0.9966 0.0824
vn 0.0003 0.9966 0.0821
vn 0.0004 0.9966 -0.0822
vn 0.0024 0.9966 -0.0819
vn 0.0003 0.9966 -0.0822
vn -0.9254 -0.3487 0.1481
vn 0.0768 0.0212 0.9968
vn -0.0978 -0.0331 -0.9947
vn 0.9452 0.2399 0.2215
vn -0.9254 -0.3487 -0.1481
vn 0.0768 0.0212 -0.9968
vn -0.0978 -0.0331 0.9947
vn 0.9452 0.2399 -0.2215
vn 1.0000 0.0003 -0.0004
vn 1.0000 0.0003 -0.0000
vn -0.0000 0.0001 1.0000
vn -0.0002 0.0004 1.0000
vn -0.0000 -0.0000 1.0000
vn -0.0000 -0.0002 -1.0000
vn -0.0006 0.0008 -1.0000
vn -0.0001 -0.0001 -1.0000
vn -1.0000 -0.0000 -0.0000
vn 1.0000 0.0003 0.0004
vn 0.0005 -0.0011 -1.0000
vn 0.0002 -0.0004 1.0000
vn 0.0008 -1.0000 -0.0007
vn 0.0025 0.9966 0.0819
vn -0.0017 0.9966 -0.0824
vn 0.1236 0.9923 0.0098
vn -0.0576 0.9983 -0.0020
vt 0.650841 0.417939
vt 0.651832 0.322351
vt 0.708409 0.340673
vt 0.707809 0.417939
vt 0.926137 0.759991
vt 0.924970 0.636663
vt 0.933125 0.632273
vt 0.934327 0.759991
vt 0.104147 0.943495
vt 0.199026 0.941471
vt 0.209901 0.946477
vt 0.104498 0.950465
vt 0.228225 0.754234
vt 0.228225 0.718691
vt 0.334652 0.718409
vt 0.338715 0.753939
vt 0.548344 0.587261
vt 0.555537 0.571560
vt 0.576230 0.571560
vt 0.573609 0.586799
vt 0.817661 0.258081
vt 0.815878 0.145245
vt 0.835071 0.155183
vt 0.837664 0.258081
vt 0.965358 0.771433
vt 0.963383 0.676553
vt 0.972188 0.673681
vt 0.972328 0.771784
vt 0.761537 0.857925
vt 0.855891 0.857807
vt 0.856145 0.876828
vt 0.761244 0.876946
vt 0.867004 0.413383
vt 0.867230 0.511485
vt 0.845767 0.512742
vt 0.845540 0.414640
vt 0.521919 0.893345
vt 0.438905 0.897519
vt 0.438799 0.882798
vt 0.519656 0.878471
vt 0.255735 0.828065
vt 0.247874 0.837039
vt 0.230515 0.834040
vt 0.230466 0.828065
vt 0.396988 0.796020
vt 0.396988 0.774513
vt 0.524712 0.774175
vt 0.524713 0.795675
vt 0.540046 0.844188
vt 0.441944 0.843962
vt 0.443201 0.822498
vt 0.541303 0.822725
vt 0.818450 0.004646
vt 0.894172 0.004646
vt 0.881023 0.036540
vt 0.816977 0.023995
vt 0.836433 0.497944
vt 0.825000 0.497944
vt 0.822715 0.387478
vt 0.833914 0.375345
vt 0.916867 0.759536
vt 0.913959 0.853846
vt 0.901073 0.843523
vt 0.903693 0.758546
vt 0.872624 0.794776
vt 0.872742 0.699875
vt 0.891763 0.700129
vt 0.891645 0.794483
vt 0.656877 0.812042
vt 0.656877 0.793028
vt 0.779502 0.792757
vt 0.780211 0.811766
vt 0.100724 0.841243
vt 0.015747 0.843862
vt 0.005424 0.830976
vt 0.099734 0.828070
vt 0.943144 0.853479
vt 0.952117 0.845618
vt 0.952117 0.870887
vt 0.946143 0.870838
vt 0.185702 0.843862
vt 0.194044 0.830976
vt 0.872742 0.889676
vt 0.891763 0.888838
vt 0.913959 0.665226
vt 0.901073 0.673568
vt 0.645526 0.843962
vt 0.646782 0.822498
vt 0.774134 0.907999
vt 0.892600 0.912130
vt 0.879779 0.920171
vt 0.774134 0.915220
vt 0.867230 0.307904
vt 0.845767 0.309160
vt 0.667182 0.857807
vt 0.666344 0.876828
vt 0.963334 0.866312
vt 0.968340 0.877188
vt 0.009267 0.941520
vt 0.006395 0.950324
vt 0.593387 0.568691
vt 0.652727 0.584403
vt 0.647849 0.635550
vt 0.562815 0.635935
vt 0.688207 0.721846
vt 0.685137 0.674242
vt 0.766667 0.673817
vt 0.773225 0.721702
vt 0.731454 0.608637
vt 0.746676 0.605917
vt 0.746676 0.631962
vt 0.733525 0.629226
vt 0.907499 0.594772
vt 0.922721 0.597493
vt 0.920650 0.618081
vt 0.907499 0.620817
vt 0.355475 0.893484
vt 0.357391 0.878471
vt 0.723028 0.596693
vt 0.715834 0.580992
vt 0.741099 0.581454
vt 0.743720 0.596693
vt 0.533544 0.811766
vt 0.534254 0.792757
vt 0.833914 0.620543
vt 0.822715 0.608410
vt 0.397324 0.656457
vt 0.368217 0.657765
vt 0.368217 0.623267
vt 0.396921 0.631478
vt 0.269263 0.795675
vt 0.269265 0.774175
vt 0.952491 0.938766
vt 0.958952 0.888370
vt 0.978024 0.884789
vt 0.978024 0.933624
vt 0.358928 0.910841
vt 0.477423 0.906137
vt 0.477423 0.914423
vt 0.371768 0.918683
vt 0.793684 0.673964
vt 0.798896 0.682389
vt 0.777282 0.682389
vt 0.776068 0.673836
vt 0.898578 0.514859
vt 0.897778 0.587575
vt 0.872352 0.587575
vt 0.873985 0.519248
vt 0.117736 0.753939
vt 0.121799 0.718409
vt 0.924970 0.883319
vt 0.933125 0.887709
vt 0.595397 0.535780
vt 0.588936 0.485384
vt 0.614469 0.490526
vt 0.614469 0.539361
vt 0.501977 0.561431
vt 0.501681 0.522818
vt 0.584345 0.522405
vt 0.585988 0.560149
vt 0.417956 0.561434
vt 0.419020 0.523669
vt 0.651832 0.513527
vt 0.708409 0.495205
vt 0.849399 0.048293
vt 0.867256 0.098204
vt 0.815872 0.094546
vt 0.816079 0.056766
vt 0.836713 0.676232
vt 0.837761 0.728619
vt 0.783355 0.738519
vt 0.782371 0.700391
vt 0.523286 0.805764
vt 0.518074 0.814189
vt 0.500459 0.814317
vt 0.501673 0.805764
vt 0.348166 0.927332
vt 0.431281 0.926594
vt 0.453254 0.936499
vt 0.347794 0.938548
vt 0.807808 0.016066
vt 0.804307 0.134602
vt 0.784089 0.134602
vt 0.785515 0.006902
vt 0.846654 0.771077
vt 0.847770 0.652544
vt 0.864189 0.652544
vt 0.861976 0.780250
vt 0.485342 0.926588
vt 0.568457 0.927327
vt 0.568829 0.938543
vt 0.463369 0.936493
vt 0.264642 0.926594
vt 0.249715 0.936397
vt 0.651981 0.926588
vt 0.666908 0.936391
vt 0.807808 0.253138
vt 0.785515 0.262302
vt 0.846654 0.534011
vt 0.861976 0.524838
vt 0.087516 0.386180
vt 0.170562 0.385017
vt 0.169983 0.490770
vt 0.088553 0.494492
vt 0.004647 0.387340
vt 0.007602 0.493032
vt 0.004643 0.281606
vt 0.085521 0.277882
vt 0.167023 0.279323
vt 0.655668 0.912130
vt 0.668489 0.920171
vt 0.171807 0.893484
vt 0.088377 0.897520
vt 0.088484 0.882798
vt 0.169892 0.878471
vt 0.005364 0.893345
vt 0.007627 0.878471
vt 0.595917 0.910841
vt 0.583078 0.918683
vt 0.757892 0.994810
vt 0.682202 0.992597
vt 0.682207 0.983370
vt 0.755939 0.978878
vt 0.995304 0.815891
vt 0.995304 0.866700
vt 0.979253 0.866763
vt 0.979925 0.818436
vt 0.830644 0.930297
vt 0.881453 0.930297
vt 0.878908 0.945676
vt 0.830580 0.946348
vt 0.663568 0.535813
vt 0.650844 0.544600
vt 0.650844 0.529012
vt 0.663474 0.520287
vt 0.219738 0.828064
vt 0.216681 0.839596
vt 0.201725 0.839637
vt 0.204792 0.828064
vt 0.610870 0.547455
vt 0.613927 0.558986
vt 0.598981 0.558986
vt 0.595914 0.547413
vt 0.888828 0.668695
vt 0.888613 0.685964
vt 0.873667 0.685964
vt 0.873402 0.666927
vt 0.658814 0.899220
vt 0.545965 0.898990
vt 0.531107 0.887556
vt 0.658814 0.887785
vt 0.789538 0.792756
vt 0.799445 0.792749
vt 0.811029 0.807490
vt 0.789530 0.807712
vt 0.233545 0.776642
vt 0.233552 0.766735
vt 0.248508 0.766726
vt 0.248286 0.788225
vt 0.681810 0.782616
vt 0.681595 0.765347
vt 0.697021 0.763579
vt 0.696756 0.782616
vt 0.861592 0.824347
vt 0.852805 0.837071
vt 0.837279 0.836977
vt 0.846004 0.824347
vt 0.735333 0.659966
vt 0.659641 0.662103
vt 0.661610 0.646173
vt 0.735337 0.650739
vt 0.771664 0.898990
vt 0.786522 0.887556
vt 0.964609 0.506505
vt 0.959616 0.535211
vt 0.952214 0.540721
vt 0.948852 0.506505
vt 0.954220 0.684072
vt 0.954715 0.756790
vt 0.943641 0.756790
vt 0.943240 0.672770
vt 0.954220 0.829509
vt 0.943240 0.840811
vt 0.869362 0.076105
vt 0.864355 0.047402
vt 0.880113 0.047395
vt 0.876766 0.081611
vt 0.986369 0.697928
vt 0.986645 0.799541
vt 0.981823 0.803068
vt 0.981518 0.697928
vt 0.877172 0.353991
vt 0.893958 0.353991
vt 0.894427 0.455603
vt 0.879050 0.453978
vt 0.956842 0.111152
vt 0.965994 0.111152
vt 0.965983 0.214083
vt 0.957631 0.216290
vt 0.493275 0.646282
vt 0.456799 0.641941
vt 0.456799 0.571565
vt 0.544989 0.571565
vt 0.947590 0.105491
vt 0.938698 0.105491
vt 0.937038 0.005500
vt 0.946204 0.015319
vt 0.539974 0.386544
vt 0.433425 0.386543
vt 0.433426 0.298327
vt 0.537608 0.298376
vt 0.308386 0.806165
vt 0.344018 0.815808
vt 0.344018 0.842975
vt 0.255808 0.843011
vt 0.946204 0.195663
vt 0.937038 0.205482
vt 0.433425 0.474740
vt 0.537607 0.474761
vt 0.957628 0.006014
vt 0.965980 0.008221
vt 0.879050 0.254003
vt 0.894427 0.252379
vt 0.986645 0.596315
vt 0.981823 0.592788
vt 0.744001 0.847523
vt 0.656163 0.845121
vt 0.675658 0.822510
vt 0.744001 0.823215
vt 0.831839 0.845121
vt 0.812344 0.822510
vt 0.825540 0.814498
vt 0.826848 0.785391
vt 0.851827 0.785795
vt 0.860038 0.814498
vt 0.815878 0.370917
vt 0.835071 0.360979
vt 0.970973 0.588728
vt 0.970973 0.664450
vt 0.951623 0.665923
vt 0.939079 0.601877
vt 0.898578 0.660291
vt 0.873985 0.655902
vt 0.815059 0.509330
vt 0.809108 0.590644
vt 0.761421 0.591176
vt 0.747831 0.539938
vt 0.501387 0.484205
vt 0.578653 0.484691
vt 0.815101 0.672106
vt 0.759014 0.651396
vt 0.424136 0.485873
vt 0.867256 0.158473
vt 0.813697 0.132624
vt 0.432492 0.766600
vt 0.438763 0.724875
vt 0.516341 0.730553
vt 0.517509 0.766296
vt 0.815422 0.785795
vt 0.782383 0.776286
vt 0.604299 0.685957
vt 0.603190 0.721702
vt 0.353951 0.718704
vt 0.347474 0.766600
vt 0.747289 0.405673
vt 0.748162 0.299250
vt 0.806962 0.310082
vt 0.806279 0.405673
vt 0.748162 0.512096
vt 0.806962 0.501264
vt 0.725634 0.635935
vt 0.704926 0.579848
vt 0.903396 0.462773
vt 0.910213 0.426291
vt 0.920600 0.426291
vt 0.921902 0.516464
vt 0.889500 0.129192
vt 0.895672 0.093157
vt 0.906681 0.093157
vt 0.908929 0.180999
vt 0.903396 0.389809
vt 0.921902 0.336118
vt 0.889500 0.057123
vt 0.908929 0.005315
vt 0.282965 0.855545
vt 0.332355 0.854187
vt 0.348207 0.907199
vt 0.282965 0.905551
vt 0.908834 0.897242
vt 0.936543 0.900570
vt 0.938094 0.950552
vt 0.889259 0.950552
vt 0.908719 0.534404
vt 0.936428 0.531076
vt 0.956004 0.584386
vt 0.907168 0.584386
vt 0.723136 0.731510
vt 0.772526 0.732868
vt 0.772526 0.782874
vt 0.707284 0.784522
vt 0.620290 0.386544
vt 0.620254 0.474739
vt 0.170493 0.768795
vt 0.200000 0.765938
vt 0.274595 0.817829
vt 0.171253 0.817852
vt 0.608759 0.780472
vt 0.562595 0.784194
vt 0.526044 0.731410
vt 0.609526 0.731464
vt 0.255749 0.910041
vt 0.218636 0.910304
vt 0.218636 0.880345
vt 0.255322 0.878494
vt 0.724596 0.972980
vt 0.675188 0.972980
vt 0.679758 0.937188
vt 0.725083 0.927669
vt 0.673644 0.542245
vt 0.678295 0.514727
vt 0.714372 0.514057
vt 0.705193 0.542245
vt 0.888413 0.206949
vt 0.893635 0.243133
vt 0.848326 0.243763
vt 0.845625 0.206949
vt 0.181523 0.910041
vt 0.181950 0.878494
vt 0.823947 0.971122
vt 0.774539 0.971122
vt 0.774052 0.925811
vt 0.819376 0.935329
vt 0.551271 0.646609
vt 0.523754 0.651260
vt 0.523754 0.619711
vt 0.551942 0.610532
vt 0.893635 0.170764
vt 0.848326 0.170134
vt 0.979627 0.366927
vt 0.979627 0.278717
vt 0.986766 0.278717
vt 0.986765 0.366939
vt 0.538590 0.971194
vt 0.641932 0.971195
vt 0.641932 0.978331
vt 0.537750 0.978332
vt 0.342465 0.978328
vt 0.258983 0.978328
vt 0.258979 0.971189
vt 0.341624 0.971190
vt 0.982412 0.092853
vt 0.982412 0.181086
vt 0.975276 0.181070
vt 0.975277 0.092853
vt 0.979628 0.190517
vt 0.986766 0.190523
vt 0.445807 0.978327
vt 0.445807 0.971191
vt 0.455108 0.971193
vt 0.455103 0.978332
vt 0.982412 0.004663
vt 0.975276 0.004657
vt 0.620254 0.298323
vt 0.124330 0.765067
vt 0.087771 0.817836
vt 0.638265 0.783332
vt 0.712868 0.731410
vt 0.379649 0.806165
vt 0.432218 0.843011
vt 0.420323 0.646282
vt 0.368567 0.571565
s 1
f 153/203/101 120/204/101 163/205/101 162/206/101
f 154/207/102 128/208/102 136/209/102 157/210/102
f 143/211/103 190/212/103 189/213/103 147/214/103
f 158/215/104 232/216/104 233/217/104 123/218/104
f 127/219/105 140/220/105 209/221/105 203/222/105
f 168/223/106 172/224/106 221/225/106 218/226/106
f 144/227/107 126/228/107 129/229/107 148/230/107
f 152/231/108 139/232/108 126/233/108 144/234/108
f 148/235/109 129/236/109 173/237/109 166/238/109
f 131/239/110 145/240/110 176/241/110 179/242/110
f 125/243/111 135/244/111 214/245/111 213/246/111
f 169/247/112 157/248/112 136/249/112 170/250/112
f 171/251/113 170/252/113 136/253/113 147/254/113
f 186/255/114 141/256/114 239/257/114 241/258/114
f 159/259/115 158/260/115 123/261/116 137/262/116
f 151/263/117 137/264/117 123/265/117 150/266/117
f 143/267/118 128/268/118 137/269/118 151/270/118
f 154/271/119 159/272/119 137/273/119 128/274/119
f 149/275/120 122/276/120 139/277/120 152/278/120
f 134/279/121 127/280/121 203/281/121 205/282/121
f 185/283/122 149/275/122 152/278/122 188/284/122
f 190/285/123 143/267/123 151/270/123 193/286/123
f 193/287/124 151/263/124 150/266/124 187/288/124
f 196/289/125 171/251/125 147/254/125 189/290/125
f 156/291/126 133/292/126 180/293/126 178/294/126
f 191/295/127 148/235/127 166/238/127 195/296/127
f 188/297/128 152/231/128 144/234/128 192/298/128
f 192/299/129 144/227/129 148/230/129 191/300/129
f 128/301/130 143/211/130 147/214/130 136/302/130
f 183/303/131 228/304/131 229/305/131 184/306/131
f 150/307/132 230/308/132 117/309/132 187/310/132
f 140/311/133 121/312/133 235/313/133 209/314/133
f 124/315/134 138/316/134 216/317/134 238/318/134
f 145/240/135 130/319/135 182/320/135 176/241/135
f 138/321/136 125/322/136 213/323/136 216/324/136
f 126/325/137 139/326/137 159/272/137 154/271/137
f 139/327/138 122/328/138 158/260/115 159/259/115
f 164/329/139 142/330/139 237/331/139 223/332/139
f 173/333/140 129/334/140 157/248/140 169/247/140
f 121/335/141 186/336/141 241/337/141 235/338/141
f 132/339/142 155/340/142 177/341/142 181/342/142
f 135/343/143 167/344/143 220/345/143 214/346/143
f 160/347/144 165/348/145 219/349/145 222/350/144
f 122/351/146 231/352/146 232/216/146 158/215/146
f 126/353/147 154/207/147 157/210/147 129/354/147
f 119/355/148 124/356/148 238/357/148 240/358/148
f 199/359/149 226/360/149 225/361/150 200/362/151
f 198/363/150 227/364/151 226/360/149 199/359/149
f 118/365/152 153/203/152 162/206/152 161/366/152
f 197/367/153 224/368/153 227/369/153 198/370/153
f 120/371/154 228/372/154 225/373/154 163/374/154
f 172/375/155 134/376/155 205/377/155 221/378/155
f 145/379/156 131/380/156 195/381/156 166/382/156
f 131/383/157 155/384/157 194/385/157 195/386/157
f 133/387/158 156/388/158 169/389/158 170/390/158
f 132/391/159 146/392/159 171/393/159 196/394/159
f 130/395/160 145/379/160 166/382/160 173/396/160
f 146/392/161 133/397/161 170/398/161 171/393/161
f 155/384/162 132/399/162 196/400/162 194/385/162
f 156/388/163 130/401/163 173/402/163 169/389/163
f 174/403/164 178/404/164 180/405/164 175/406/164
f 177/407/165 174/403/165 175/406/165 181/408/165
f 179/409/166 176/410/166 174/403/166 177/407/166
f 176/410/167 182/411/167 178/404/167 174/403/167
f 130/412/168 156/291/168 178/294/168 182/413/168
f 133/414/169 146/415/169 175/416/169 180/417/169
f 146/415/170 132/418/170 181/419/170 175/416/170
f 155/340/171 131/420/171 179/421/171 177/341/171
f 119/422/172 142/423/172 183/424/172 184/425/172
f 124/426/173 119/427/173 184/428/173 185/429/173
f 186/430/174 121/431/174 187/432/174 117/433/174
f 138/434/175 124/435/175 185/436/175 188/437/175
f 127/438/176 134/439/176 189/440/176 190/441/176
f 135/442/177 125/443/177 192/444/177 191/445/177
f 140/446/178 127/447/178 190/448/178 193/449/178
f 168/450/179 167/451/179 195/452/179 194/453/179
f 134/454/180 172/455/180 196/456/180 189/457/180
f 167/458/181 135/459/181 191/460/181 195/461/181
f 125/462/182 138/463/182 188/464/182 192/465/182
f 121/466/183 140/467/183 193/468/183 187/469/183
f 141/470/184 186/471/184 117/472/184 197/473/184
f 172/474/185 168/450/185 194/453/185 196/475/185
f 160/476/186 141/477/186 197/478/186 198/479/186
f 164/480/187 165/481/187 199/482/187 200/483/187
f 165/481/188 160/484/188 198/485/188 199/482/188
f 142/486/189 164/487/189 200/488/189 183/489/189
f 202/490/190 213/491/190 214/492/190 204/493/190
f 208/494/191 202/495/191 203/496/191 209/497/191
f 204/498/192 218/499/192 221/500/192 205/501/192
f 247/502/193 245/503/194 265/504/194 261/505/193
f 234/506/195 208/507/195 209/508/195 235/509/195
f 242/510/196 255/511/197 254/512/198 260/513/199
f 244/514/200 249/515/200 262/516/200 251/517/200
f 238/518/201 216/519/201 208/507/201 234/506/201
f 258/520/202 255/511/197 242/510/196 259/521/203
f 214/522/204 220/523/204 218/499/204 204/498/204
f 216/524/205 213/525/205 202/495/205 208/494/205
f 203/526/206 202/490/206 204/493/206 205/527/206
f 236/528/207 239/529/207 222/530/207 219/531/207
f 237/532/208 236/528/208 219/531/208 223/533/208
f 141/534/209 160/535/209 222/536/209 239/537/209
f 167/538/210 168/223/210 218/226/210 220/539/210
f 142/540/211 119/541/211 240/542/211 237/543/211
f 165/348/145 164/544/212 223/545/212 219/349/145
f 117/546/213 230/547/213 224/548/213 197/549/213
f 225/361/150 226/360/149 162/550/149 163/551/214
f 224/548/215 230/547/215 233/552/215 118/553/215
f 226/360/149 227/364/151 161/554/216 162/550/149
f 227/369/217 224/368/217 118/555/217 161/556/217
f 149/557/218 229/558/218 231/559/218 122/560/218
f 225/373/219 228/372/219 183/561/219 200/562/219
f 233/563/220 230/308/220 150/307/220 123/564/220
f 184/565/221 229/558/221 149/557/221 185/566/221
f 232/567/222 231/568/222 120/569/222 153/570/222
f 233/571/223 232/567/223 153/570/223 118/572/223
f 231/573/224 229/305/224 228/304/224 120/574/224
f 207/575/225 206/576/225 234/577/225 235/578/225
f 211/579/226 210/580/226 236/581/226 237/582/226
f 206/576/227 215/583/227 238/584/227 234/577/227
f 210/580/228 217/585/228 239/586/228 236/581/228
f 212/587/229 211/588/229 237/589/229 240/590/229
f 215/591/230 212/592/230 240/593/230 238/594/230
f 201/595/231 207/596/231 235/597/231 241/598/231
f 217/599/232 201/600/232 241/601/232 239/602/232
f 242/510/196 256/603/233 257/604/234 259/521/203
f 248/605/235 247/606/236 261/607/236 266/608/237
f 243/609/238 244/610/239 251/611/239 264/612/240
f 215/613/241 206/614/241 245/615/241 247/616/241
f 211/617/242 212/618/242 248/619/242 250/620/242
f 207/621/243 201/622/243 243/623/243 246/624/243
f 210/625/244 211/626/244 250/627/244 249/628/244
f 206/614/245 207/629/245 246/630/245 245/615/245
f 201/631/246 217/632/246 244/633/246 243/634/246
f 212/635/247 215/636/247 247/637/247 248/638/247
f 217/639/248 210/625/248 249/628/248 244/640/248
f 251/641/249 262/642/250 256/643/250 252/644/249
f 266/645/251 261/646/252 258/647/252 259/648/253
f 264/649/254 251/650/255 252/651/255 260/652/256
f 265/653/257 253/654/257 254/655/257 255/656/257
f 262/642/250 263/657/258 257/658/258 256/643/250
f 253/659/259 264/649/254 260/652/256 254/660/259
f 263/661/260 266/645/251 259/648/253 257/662/260
f 261/663/257 265/653/257 255/656/257 258/664/257
f 252/665/261 256/603/233 242/510/196 260/513/199
f 250/666/262 248/605/235 266/608/237 263/667/262
f 246/668/263 243/609/238 264/612/240 253/669/263
f 249/515/264 250/670/264 263/671/264 262/516/264
f 245/503/194 246/672/265 253/673/265 265/504/194
o Mouse
v -0.204521 0.014072 0.362756
v -0.204544 0.014072 0.367756
v -0.204402 0.009745 0.370256
v -0.204237 0.005417 0.367758
v -0.204215 0.005417 0.362758
v -0.204357 0.009745 0.360257
v -0.059727 0.019202 0.363441
v -0.058784 0.019231 0.368351
v -0.058209 0.014916 0.370811
v -0.058577 0.010573 0.368361
v -0.059520 0.010545 0.363452
v -0.060095 0.014859 0.360991
v 0.049436 0.020376 0.319279
v 0.051830 0.020458 0.323668
v 0.053233 0.016174 0.325830
v 0.052241 0.011808 0.323605
v 0.049846 0.011726 0.319217
v 0.048444 0.016010 0.317053
v 0.135471 0.028784 0.258288
v 0.138799 0.028919 0.262018
v 0.140693 0.024663 0.263834
v 0.139259 0.020272 0.261921
v 0.135931 0.020137 0.258191
v 0.134037 0.024393 0.256375
v 0.220589 0.030580 0.162834
v 0.224687 0.030771 0.165692
v 0.226992 0.026544 0.167044
v 0.225198 0.022127 0.165537
v 0.221100 0.021936 0.162679
v 0.218795 0.026163 0.161327
v 0.248481 0.035510 0.109943
v 0.253034 0.035753 0.111997
v 0.255617 0.031559 0.112855
v 0.253646 0.027121 0.111661
v 0.249094 0.026878 0.109608
v 0.246511 0.031072 0.108749
v 0.284009 0.040234 0.014255
v 0.288785 0.040527 0.015705
v 0.291530 0.036369 0.016128
v 0.289498 0.031917 0.015100
v 0.284722 0.031624 0.013650
v 0.281978 0.035782 0.013227
v 0.306735 0.054168 -0.085996
v 0.311635 0.054521 -0.085066
v 0.314489 0.050416 -0.085102
v 0.312442 0.045957 -0.086069
v 0.307542 0.045604 -0.086999
v 0.304689 0.049710 -0.086963
v 0.313366 0.060552 -0.135338
v 0.318314 0.060954 -0.134741
v 0.321210 0.056890 -0.135065
v 0.319157 0.052425 -0.135987
v 0.314209 0.052024 -0.136584
v 0.311314 0.056087 -0.136260
v 0.318446 0.072005 -0.197489
v 0.323420 0.072510 -0.197469
v 0.326340 0.068539 -0.198314
v 0.324284 0.064064 -0.199179
v 0.319310 0.063559 -0.199199
v 0.316391 0.067530 -0.198354
v 0.313676 0.081023 -0.238925
v 0.318559 0.081701 -0.239760
v 0.321423 0.077836 -0.241125
v 0.319403 0.073293 -0.241654
v 0.314520 0.072615 -0.240820
v 0.311657 0.076480 -0.239455
v 0.303289 0.087941 -0.275229
v 0.307953 0.088824 -0.276800
v 0.310530 0.085226 -0.279126
v 0.308443 0.080745 -0.279881
v 0.303780 0.079862 -0.278310
v 0.301202 0.083460 -0.275984
v 0.286322 0.105334 -0.306546
v 0.290258 0.106794 -0.309261
v 0.291969 0.103885 -0.312950
v 0.289743 0.099515 -0.313925
v 0.285807 0.098054 -0.311210
v 0.284096 0.100964 -0.307521
v 0.245631 0.129326 -0.331162
v 0.248810 0.131286 -0.334487
v 0.249889 0.128793 -0.338685
v 0.247789 0.124340 -0.339558
v 0.244610 0.122380 -0.336232
v 0.243531 0.124873 -0.332035
v -0.191638 -0.001321 0.323614
v -0.199528 0.019664 0.323614
v -0.191638 -0.001321 0.405567
v -0.199528 0.019664 0.405567
v -0.315363 -0.001321 0.313564
v -0.303681 0.030423 0.318170
v -0.315363 -0.001321 0.415618
v -0.303681 0.030423 0.411013
v -0.191638 -0.001321 0.364591
v -0.199528 0.019664 0.364591
v -0.253500 -0.001321 0.412685
v -0.251605 0.025043 0.410278
v -0.315363 -0.001321 0.364591
v -0.303681 0.030423 0.364591
v -0.253500 -0.001321 0.316496
v -0.251605 0.025043 0.318903
v -0.249280 0.032098 0.378457
v -0.253500 -0.001321 0.364591
v -0.191638 -0.001321 0.344103
v -0.303681 0.030423 0.341380
v -0.199528 0.019664 0.344103
v -0.315363 -0.001321 0.339078
v -0.249280 0.032098 0.394423
v -0.253500 -0.001321 0.341590
v -0.199528 0.019664 0.385078
v -0.315363 -0.001321 0.390104
v -0.191638 -0.001321 0.385078
v -0.303681 0.030423 0.387802
v -0.249280 0.032098 0.334759
v -0.253500 -0.001321 0.387591
v -0.199076 -0.001321 0.406171
v -0.205789 0.020311 0.323287
v -0.205789 0.020311 0.405894
v -0.199076 -0.001321 0.323010
v -0.249280 0.032098 0.350724
v -0.199076 -0.001321 0.364591
v -0.199076 -0.001321 0.343801
v -0.249280 0.032098 0.356612
v -0.199076 -0.001321 0.385381
v -0.249280 0.032098 0.372569
v -0.251605 0.025043 0.372569
v -0.251605 0.025043 0.356612
v -0.261461 0.026062 0.364591
v -0.251605 0.025043 0.350724
v -0.251605 0.025043 0.334759
v -0.261456 0.026061 0.342484
v -0.251605 0.025043 0.394423
v -0.251605 0.025043 0.378457
v -0.261456 0.026061 0.386698
v -0.205789 0.020311 0.356612
v -0.205789 0.020311 0.372569
v -0.199530 0.019664 0.364591
v -0.205789 0.020311 0.335956
v -0.205789 0.020311 0.351922
v -0.199530 0.019664 0.344103
v -0.205789 0.020311 0.377259
v -0.205789 0.020311 0.393226
v -0.199530 0.019664 0.385078
v -0.203465 0.027366 0.356612
v -0.203465 0.027366 0.372569
v -0.203465 0.027366 0.335956
v -0.203465 0.027366 0.351922
v -0.203465 0.027366 0.377259
v -0.203465 0.027366 0.393226
vn -0.0133 0.4959 -0.8683
vn -0.0354 0.9994 0.0004
vn -0.0210 0.4964 0.8679
vn 0.0141 -0.4958 0.8683
vn 0.0354 -0.9994 -0.0005
vn 0.0219 -0.4964 -0.8678
vn -0.3323 0.4859 -0.8084
vn -0.0136 0.9999 -0.0067
vn 0.3184 0.5046 0.8025
vn 0.3319 -0.4859 0.8086
vn 0.0138 -0.9999 0.0069
vn -0.3191 -0.5048 -0.8021
vn -0.5388 0.4774 -0.6941
vn -0.0774 0.9966 0.0279
vn 0.4619 0.5148 0.7222
vn 0.5386 -0.4773 0.6943
vn 0.0774 -0.9966 -0.0279
vn -0.4617 -0.5148 -0.7223
vn -0.6634 0.4694 -0.5828
vn -0.0339 0.9994 -0.0112
vn 0.6300 0.5254 0.5719
vn 0.6636 -0.4694 0.5826
vn 0.0339 -0.9994 0.0112
vn -0.6301 -0.5254 -0.5717
vn -0.8034 0.4577 -0.3809
vn -0.0789 0.9956 0.0510
vn 0.7257 0.5348 0.4328
vn 0.8030 -0.4578 0.3817
vn 0.0788 -0.9956 -0.0509
vn -0.7258 -0.5349 -0.4326
vn -0.8432 0.4522 -0.2908
vn -0.0666 0.9975 0.0246
vn 0.7773 0.5443 0.3156
vn 0.8432 -0.4523 0.2906
vn 0.0666 -0.9975 -0.0247
vn -0.7773 -0.5442 -0.3155
vn -0.8880 0.4378 -0.1404
vn -0.0945 0.9887 0.1159
vn -0.0941 0.9888 0.1157
vn 0.7945 0.5504 0.2566
vn 0.8879 -0.4379 0.1406
vn 0.0945 -0.9888 -0.1158
vn 0.0941 -0.9888 -0.1157
vn -0.7946 -0.5502 -0.2566
vn -0.9014 0.4279 -0.0658
vn -0.0937 0.9889 0.1154
vn 0.8079 0.5607 0.1813
vn 0.8125 0.5563 0.1742
vn 0.8125 0.5563 0.1743
vn 0.9014 -0.4280 0.0658
vn 0.0936 -0.9889 -0.1155
vn -0.8080 -0.5606 -0.1812
vn -0.8090 -0.5610 -0.1754
vn -0.9089 0.4170 0.0025
vn -0.1003 0.9799 0.1724
vn 0.8099 0.5616 0.1693
vn 0.9089 -0.4171 -0.0031
vn 0.1002 -0.9799 -0.1724
vn -0.8099 -0.5615 -0.1696
vn -0.9058 0.3803 0.1871
vn -0.0980 0.9700 0.2222
vn -0.1012 0.9705 0.2190
vn 0.8087 0.5872 0.0346
vn 0.9059 -0.3802 -0.1867
vn 0.0981 -0.9701 -0.2222
vn 0.1009 -0.9702 -0.2202
vn -0.8088 -0.5870 -0.0347
vn -0.8789 0.3545 0.3192
vn -0.1044 0.9709 0.2157
vn 0.7787 0.6188 -0.1034
vn 0.8784 -0.3542 -0.3208
vn 0.1037 -0.9704 -0.2181
vn -0.7785 -0.6190 0.1039
vn -0.7771 0.2673 0.5697
vn 0.0027 0.8752 0.4838
vn 0.7884 0.6077 -0.0954
vn 0.7756 -0.2660 -0.5725
vn -0.0021 -0.8759 -0.4825
vn -0.7894 -0.6067 0.0936
vn -0.4910 0.0587 0.8692
vn 0.1151 0.8001 0.5887
vn 0.6116 0.7368 -0.2883
vn 0.4942 -0.0607 -0.8672
vn -0.1147 -0.8004 -0.5884
vn -0.6103 -0.7374 0.2893
vn 0.9360 0.3519 -0.0000
vn 0.1109 0.0666 0.9916
vn -0.9385 0.3454 -0.0000
vn 0.0372 0.1112 -0.9931
vn -0.0000 -1.0000 -0.0000
vn -0.9499 0.3127 -0.0000
vn -0.9498 0.3130 -0.0000
vn 0.9498 -0.3129 -0.0000
vn 0.0253 -0.0083 -0.9996
vn 0.0372 0.1111 0.9931
vn 0.1027 0.9947 -0.0000
vn 0.1109 0.0666 -0.9916
vn -0.0253 0.0083 -0.9996
vn -0.0253 0.0083 0.9996
vn 0.0692 0.0302 0.9971
vn -0.0000 -0.0000 1.0000
vn -0.0000 -0.0000 -1.0000
vn 0.1028 0.9947 -0.0000
vn 0.0253 -0.0083 0.9996
vn 0.0692 0.0302 -0.9971
vt 0.116559 0.657521
vt 0.187091 0.664921
vt 0.186845 0.667346
vt 0.116316 0.659807
vt 0.115251 0.669425
vt 0.184936 0.676984
vt 0.184528 0.679365
vt 0.114991 0.671824
vt 0.115524 0.666941
vt 0.185597 0.674612
vt 0.115801 0.664443
vt 0.186189 0.672201
vt 0.116064 0.662093
vt 0.186414 0.669763
vt 0.244949 0.666685
vt 0.244882 0.669087
vt 0.244194 0.679120
vt 0.244141 0.681683
vt 0.244423 0.676514
vt 0.244707 0.673990
vt 0.244761 0.671525
vt 0.299519 0.668148
vt 0.299501 0.670761
vt 0.298912 0.681200
vt 0.298986 0.683802
vt 0.299150 0.678589
vt 0.299305 0.675901
vt 0.299411 0.673309
vt 0.367435 0.666822
vt 0.367480 0.669444
vt 0.367279 0.680099
vt 0.367334 0.682833
vt 0.367357 0.677380
vt 0.367554 0.674730
vt 0.367521 0.672064
vt 0.400116 0.666424
vt 0.400219 0.669174
vt 0.400399 0.680163
vt 0.400462 0.682902
vt 0.400366 0.677424
vt 0.400301 0.674615
vt 0.400250 0.671857
vt 0.456511 0.664645
vt 0.456621 0.667336
vt 0.456918 0.678222
vt 0.457008 0.680968
vt 0.456816 0.675462
vt 0.456801 0.672734
vt 0.456707 0.670031
vt 0.513012 0.662714
vt 0.513122 0.665403
vt 0.513605 0.676109
vt 0.513761 0.678781
vt 0.513457 0.673453
vt 0.513345 0.670750
vt 0.513226 0.668056
vt 0.539579 0.661575
vt 0.539686 0.664116
vt 0.540194 0.674406
vt 0.540346 0.676995
vt 0.540057 0.671806
vt 0.539926 0.669204
vt 0.539793 0.666654
vt 0.571831 0.660484
vt 0.571944 0.662942
vt 0.572389 0.672721
vt 0.572507 0.675176
vt 0.572268 0.670269
vt 0.572160 0.667850
vt 0.572085 0.665401
vt 0.592517 0.660361
vt 0.592569 0.662717
vt 0.592955 0.671933
vt 0.593116 0.674201
vt 0.592807 0.669685
vt 0.592713 0.667356
vt 0.592621 0.665014
vt 0.609882 0.660000
vt 0.609974 0.662083
vt 0.610243 0.670376
vt 0.610366 0.672550
vt 0.610106 0.668261
vt 0.609982 0.666124
vt 0.610068 0.664101
vt 0.626884 0.659186
vt 0.627004 0.661320
vt 0.627176 0.669454
vt 0.627321 0.671475
vt 0.627241 0.667446
vt 0.627263 0.665439
vt 0.627078 0.663402
vt 0.649212 0.657414
vt 0.649370 0.659395
vt 0.650045 0.667877
vt 0.650185 0.670024
vt 0.649902 0.665710
vt 0.649738 0.663480
vt 0.649547 0.661373
vt 0.846950 0.284829
vt 0.846950 0.274458
vt 0.858300 0.274458
vt 0.858300 0.284829
vt 0.836544 0.631700
vt 0.837062 0.655117
vt 0.823626 0.655115
vt 0.825890 0.627459
vt 0.920842 0.272192
vt 0.920842 0.283942
vt 0.903718 0.283942
vt 0.903718 0.271027
vt 0.876890 0.463561
vt 0.893501 0.468329
vt 0.892711 0.494823
vt 0.879275 0.494823
vt 0.035962 0.783004
vt 0.004645 0.781732
vt 0.004645 0.768816
vt 0.035962 0.770300
vt 0.908097 0.639122
vt 0.908097 0.631040
vt 0.911857 0.631040
vt 0.911857 0.639122
vt 0.578034 0.645908
vt 0.586116 0.645908
vt 0.586116 0.649668
vt 0.578034 0.649668
vt 0.560659 0.645911
vt 0.568737 0.645911
vt 0.568737 0.649672
vt 0.560659 0.649672
vt 0.907111 0.320696
vt 0.907111 0.344021
vt 0.903438 0.343217
vt 0.903438 0.319893
vt 0.063513 0.784123
vt 0.063513 0.773598
vt 0.063513 0.805172
vt 0.035962 0.806291
vt 0.035962 0.794648
vt 0.063513 0.794648
vt 0.004645 0.807563
vt 0.004645 0.794648
vt 0.903718 0.296858
vt 0.920842 0.295693
vt 0.920842 0.307442
vt 0.903718 0.309774
vt 0.803102 0.297793
vt 0.789665 0.297793
vt 0.788876 0.271299
vt 0.805487 0.266532
vt 0.858300 0.264086
vt 0.846950 0.264086
vt 0.846950 0.253714
vt 0.858300 0.253714
vt 0.903718 0.258111
vt 0.920842 0.260442
vt 0.858300 0.295202
vt 0.846950 0.295202
vt 0.908874 0.190856
vt 0.908873 0.214181
vt 0.900794 0.213971
vt 0.900794 0.190646
vt 0.595412 0.645908
vt 0.603490 0.645908
vt 0.603490 0.649668
vt 0.595412 0.649668
vt 0.076572 0.776413
vt 0.089964 0.777507
vt 0.087537 0.800803
vt 0.076572 0.804161
vt 0.035962 0.818995
vt 0.004645 0.820479
vt 0.063513 0.815697
vt 0.457082 0.285960
vt 0.433758 0.285959
vt 0.433548 0.277880
vt 0.456872 0.277880
vt 0.466473 0.277883
vt 0.489790 0.277883
vt 0.489790 0.285961
vt 0.466473 0.285961
vt 0.687935 0.320629
vt 0.711259 0.320629
vt 0.710456 0.324302
vt 0.687131 0.324302
vt 0.067279 0.815391
vt 0.067279 0.805019
vt 0.876557 0.148869
vt 0.876557 0.125544
vt 0.880230 0.124740
vt 0.880230 0.148065
vt 0.067279 0.794648
vt 0.067279 0.784276
vt 0.818389 0.036638
vt 0.829718 0.037318
vt 0.830967 0.040255
vt 0.819500 0.040249
vt 0.067279 0.773904
vt 0.905277 0.247375
vt 0.905277 0.224058
vt 0.908950 0.223255
vt 0.908950 0.246571
vt 0.418115 0.449158
vt 0.418115 0.425840
vt 0.421789 0.426644
vt 0.421788 0.449961
vt 0.137787 0.528356
vt 0.137855 0.520249
vt 0.142841 0.524343
vt 0.137893 0.517278
vt 0.137954 0.509269
vt 0.142905 0.513176
vt 0.137727 0.539494
vt 0.137763 0.531350
vt 0.142784 0.535573
vt 0.114570 0.519515
vt 0.114375 0.527958
vt 0.111054 0.523357
vt 0.114952 0.509312
vt 0.114710 0.517174
vt 0.111702 0.512968
vt 0.114310 0.530356
vt 0.114190 0.538731
vt 0.110933 0.534304
vt 0.371984 0.597582
vt 0.371984 0.605664
vt 0.368224 0.605664
vt 0.368224 0.597582
vt 0.876557 0.115413
vt 0.876557 0.092088
vt 0.880230 0.091285
vt 0.880230 0.114609
vt 0.963161 0.549258
vt 0.963161 0.557341
vt 0.959400 0.557341
vt 0.959400 0.549258
vt 0.164319 0.536169
vt 0.164318 0.524409
vt 0.164318 0.512677
vt 0.115213 0.503457
vt 0.137993 0.501368
vt 0.164320 0.500996
vt 0.164320 0.547961
vt 0.137707 0.547592
vt 0.114095 0.545311
vt 0.111045 0.523356
vt 0.111695 0.512967
vt 0.110926 0.534304
vt 0.112365 0.503545
vt 0.110805 0.545109
vt 0.418111 0.472032
vt 0.418114 0.460565
vt 0.421050 0.461816
vt 0.421721 0.473145
s 1
f 267/674/266 273/675/266 278/676/266 272/677/266
f 268/678/267 274/679/267 273/680/267 267/681/267
f 269/682/268 275/683/268 274/679/268 268/678/268
f 270/684/269 276/685/269 275/683/269 269/682/269
f 271/686/270 277/687/270 276/685/270 270/684/270
f 272/677/271 278/676/271 277/687/271 271/686/271
f 273/675/272 279/688/272 284/689/272 278/676/272
f 274/679/273 280/690/273 279/691/273 273/680/273
f 275/683/274 281/692/274 280/690/274 274/679/274
f 276/685/275 282/693/275 281/692/275 275/683/275
f 277/687/276 283/694/276 282/693/276 276/685/276
f 278/676/277 284/689/277 283/694/277 277/687/277
f 279/688/278 285/695/278 290/696/278 284/689/278
f 280/690/279 286/697/279 285/698/279 279/691/279
f 281/692/280 287/699/280 286/697/280 280/690/280
f 282/693/281 288/700/281 287/699/281 281/692/281
f 283/694/282 289/701/282 288/700/282 282/693/282
f 284/689/283 290/696/283 289/701/283 283/694/283
f 285/695/284 291/702/284 296/703/284 290/696/284
f 286/697/285 292/704/285 291/705/285 285/698/285
f 287/699/286 293/706/286 292/704/286 286/697/286
f 288/700/287 294/707/287 293/706/287 287/699/287
f 289/701/288 295/708/288 294/707/288 288/700/288
f 290/696/289 296/703/289 295/708/289 289/701/289
f 291/702/290 297/709/290 302/710/290 296/703/290
f 292/704/291 298/711/291 297/712/291 291/705/291
f 293/706/292 299/713/292 298/711/292 292/704/292
f 294/707/293 300/714/293 299/713/293 293/706/293
f 295/708/294 301/715/294 300/714/294 294/707/294
f 296/703/295 302/710/295 301/715/295 295/708/295
f 297/709/296 303/716/296 308/717/296 302/710/296
f 298/711/297 304/718/297 303/719/297 297/712/297
f 299/713/298 305/720/298 304/718/298 298/711/298
f 300/714/299 306/721/299 305/720/299 299/713/299
f 301/715/300 307/722/300 306/721/300 300/714/300
f 302/710/301 308/717/301 307/722/301 301/715/301
f 303/716/302 309/723/302 314/724/302 308/717/302
f 304/718/303 310/725/304 309/726/304 303/719/303
f 305/720/305 311/727/305 310/725/305 304/718/305
f 306/721/306 312/728/306 311/727/306 305/720/306
f 307/722/307 313/729/308 312/728/308 306/721/307
f 308/717/309 314/724/309 313/729/309 307/722/309
f 309/723/310 315/730/310 320/731/310 314/724/310
f 310/725/304 316/732/311 315/733/311 309/726/304
f 311/727/312 317/734/313 316/732/314 310/725/312
f 312/728/315 318/735/315 317/734/315 311/727/315
f 313/729/308 319/736/316 318/735/316 312/728/308
f 314/724/317 320/731/318 319/736/318 313/729/317
f 315/730/319 321/737/319 326/738/319 320/731/319
f 316/732/320 322/739/320 321/740/320 315/733/320
f 317/734/313 323/741/321 322/739/321 316/732/314
f 318/735/322 324/742/322 323/741/322 317/734/322
f 319/736/323 325/743/323 324/742/323 318/735/323
f 320/731/318 326/738/324 325/743/324 319/736/318
f 321/737/325 327/744/325 332/745/325 326/738/325
f 322/739/326 328/746/327 327/747/327 321/740/326
f 323/741/328 329/748/328 328/746/328 322/739/328
f 324/742/329 330/749/329 329/748/329 323/741/329
f 325/743/330 331/750/331 330/749/331 324/742/330
f 326/738/332 332/745/332 331/750/332 325/743/332
f 327/744/333 333/751/333 338/752/333 332/745/333
f 328/746/327 334/753/334 333/754/334 327/747/327
f 329/748/335 335/755/335 334/753/335 328/746/335
f 330/749/336 336/756/336 335/755/336 329/748/336
f 331/750/331 337/757/337 336/756/337 330/749/331
f 332/745/338 338/752/338 337/757/338 331/750/338
f 333/751/339 339/758/339 344/759/339 338/752/339
f 334/753/340 340/760/340 339/761/340 333/754/340
f 335/755/341 341/762/341 340/760/341 334/753/341
f 336/756/342 342/763/342 341/762/342 335/755/342
f 337/757/343 343/764/343 342/763/343 336/756/343
f 338/752/344 344/759/344 343/764/344 337/757/344
f 339/758/345 345/765/345 350/766/345 344/759/345
f 340/760/346 346/767/346 345/768/346 339/761/346
f 341/762/347 347/769/347 346/767/347 340/760/347
f 342/763/348 348/770/348 347/769/348 341/762/348
f 343/764/349 349/771/349 348/770/349 342/763/349
f 344/759/350 350/766/350 349/771/350 343/764/350
f 371/772/351 360/773/351 359/774/351 369/775/351
f 383/776/352 362/777/352 361/778/352 381/779/352
f 378/780/353 364/781/353 363/782/353 376/783/353
f 355/784/354 356/785/354 366/786/354 365/787/354
f 374/788/355 372/789/355 355/790/355 365/791/355
f 395/792/356 394/793/356 385/794/356 379/795/356
f 398/796/357 397/797/357 373/798/357 367/799/357
f 401/800/358 400/801/358 409/802/358 410/803/358
f 403/804/359 395/805/359 379/806/359 411/807/359
f 387/808/355 374/788/355 365/791/355 384/809/355
f 389/810/355 380/811/355 368/812/355 386/813/355
f 380/811/355 376/814/355 363/815/355 368/812/355
f 372/816/353 370/817/353 356/818/353 355/819/353
f 361/820/360 362/821/360 358/822/360 357/823/360
f 377/824/351 375/825/351 354/826/351 353/827/351
f 363/782/353 364/781/353 370/817/353 372/816/353
f 357/828/353 358/829/353 378/780/353 376/783/353
f 351/830/351 352/831/351 371/772/351 369/775/351
f 386/813/355 368/812/355 374/788/355 387/808/355
f 411/832/361 379/833/361 385/834/361 412/835/361
f 392/836/357 391/837/357 390/838/357 388/839/357
f 368/812/355 363/815/355 372/789/355 374/788/355
f 365/840/362 366/841/362 382/842/362 384/843/362
f 359/774/351 360/773/351 375/825/351 377/824/351
f 361/844/355 357/845/355 376/814/355 380/811/355
f 381/846/355 361/844/355 380/811/355 389/810/355
f 413/847/361 367/848/361 373/849/361 414/850/361
f 409/851/361 388/852/361 390/853/361 410/854/361
f 406/855/363 398/856/363 367/857/363 413/858/363
f 353/859/355 381/846/355 389/810/355 377/860/355
f 394/861/364 404/862/364 412/863/364 385/864/364
f 359/865/355 386/813/355 387/808/355 369/866/355
f 353/867/365 354/868/365 383/869/365 381/870/365
f 377/860/355 389/810/355 386/813/355 359/865/355
f 369/866/355 387/808/355 384/809/355 351/871/355
f 391/872/366 401/873/366 410/874/366 390/875/366
f 400/876/367 392/877/367 388/878/367 409/879/367
f 391/880/368 392/881/368 393/882/368
f 394/883/368 395/884/368 396/885/368
f 397/886/368 398/887/368 399/888/368
f 400/889/368 401/890/368 402/891/368
f 403/892/368 404/893/368 405/894/368
f 406/895/368 407/896/368 408/897/368
f 404/898/358 403/899/358 411/900/358 412/901/358
f 397/902/369 407/903/369 414/904/369 373/905/369
f 407/906/358 406/907/358 413/908/358 414/909/358
f 398/887/368 406/895/368 401/890/368 391/880/368
f 378/910/368 399/888/368 398/887/368 391/880/368 393/882/368 364/911/368
f 392/881/368 400/889/368 404/893/368 394/883/368
f 364/911/368 393/882/368 392/881/368 394/883/368 396/885/368 370/912/368
f 395/884/368 403/892/368 382/913/368 366/914/361
f 370/912/368 396/885/368 395/884/368 366/914/361 356/915/368
f 358/916/368 362/917/361 397/886/368 399/888/368 378/910/368
f 362/917/361 383/918/368 407/896/368 397/886/368
f 400/889/368 402/891/368 360/919/368 371/920/368 405/894/368 404/893/368
f 406/895/368 408/897/368 375/921/368 360/919/368 402/891/368 401/890/368
f 403/892/368 405/894/368 371/920/368 352/922/368 382/913/368
f 383/918/368 354/923/368 375/921/368 408/897/368 407/896/368
f 384/924/370 382/925/370 352/926/370 351/927/370
