# Blender 5.1.2
# www.blender.org
mtllib Desk.mtl
o Desk
v 0.454052 0.750000 1.000000
v 0.454052 0.800000 1.000000
v -0.456354 0.749992 0.999999
v -0.454052 0.800000 1.000000
v 0.454052 0.750000 -1.000000
v 0.454052 0.800000 -1.000000
v -0.455130 0.749996 -1.000001
v -0.454052 0.800000 -1.000000
v -0.455155 0.749996 -0.959884
v -0.456330 0.749992 0.959882
v -0.454052 0.800000 0.959884
v -0.454052 0.800000 -0.959884
v 0.454052 0.750000 0.959884
v 0.454052 0.750000 -0.959884
v 0.454052 0.800000 -0.959884
v 0.454052 0.800000 0.959884
v -0.455995 0.749993 0.412585
v -0.454052 0.800000 0.412586
v 0.454052 0.750000 0.412586
v 0.454052 0.800000 0.412586
v -0.354500 0.750000 1.000000
v -0.354500 0.800000 1.000000
v -0.354500 0.750000 -1.000000
v -0.354500 0.800000 -1.000000
v -0.354500 0.800000 -0.959884
v -0.354500 0.800000 0.959884
v -0.354500 0.649977 0.793765
v -0.354500 0.750000 -0.959884
v -0.354500 0.649977 0.578704
v -0.354500 0.800000 0.412586
v 0.410488 0.750000 1.000000
v 0.410488 0.800000 -1.000000
v 0.410488 0.800000 -0.959884
v 0.410488 0.800000 0.959884
v 0.410488 0.000000 1.000000
v 0.410488 0.750000 -0.959884
v 0.410488 0.750000 0.412586
v 0.410488 0.800000 0.412586
v 0.410488 0.800000 1.000000
v 0.410488 0.750000 -1.000000
v 0.410488 0.200000 1.000000
v 0.454052 0.200000 1.000000
v -0.454390 0.199999 0.959884
v -0.454415 0.199999 1.000000
v -0.354500 0.200000 -1.000000
v -0.453191 0.200003 -0.999999
v 0.454052 0.200000 -0.959884
v 0.454052 0.200000 -1.000000
v -0.453215 0.200003 -0.959883
v 0.454052 0.200000 0.959884
v 0.454052 0.200000 0.412586
v 0.410488 0.200000 0.959884
v 0.410488 0.200000 -0.959884
v 0.410488 0.200000 0.412586
v -0.354500 0.200000 1.000000
v 0.410488 0.200000 -1.000000
v -0.354500 0.603291 0.793765
v -0.354500 0.200000 -0.959884
v -0.354500 0.603291 0.578704
v 0.454052 0.000000 1.000000
v -0.453685 0.000001 0.959884
v -0.453710 0.000001 1.000000
v -0.354500 0.000000 -1.000000
v -0.452486 0.000006 -0.999999
v 0.454052 0.000000 -0.959884
v 0.454052 0.000000 -1.000000
v -0.452510 0.000005 -0.959883
v 0.454052 0.000000 0.959884
v 0.410488 0.000000 0.959884
v 0.410488 0.000000 -0.959884
v -0.354500 0.000000 1.000000
v 0.410488 0.000000 -1.000000
v -0.354500 0.000000 0.959884
v -0.354500 0.000000 -0.959884
v -0.354500 0.750000 0.959884
v -0.354500 0.200000 0.959884
v -0.354500 0.750000 0.412586
v -0.354500 0.200000 0.412586
v -0.383028 0.649977 0.793765
v -0.383028 0.603291 0.793765
v -0.383028 0.649977 0.578704
v -0.383028 0.603291 0.578704
v 0.410488 0.750000 1.030741
v 0.484793 0.750000 1.030741
v -0.354500 0.800000 1.030741
v -0.484793 0.800000 1.030741
v -0.484793 0.750000 0.959884
v -0.484793 0.750000 1.030741
v -0.484793 0.800000 -0.959884
v -0.484793 0.800000 -1.030741
v -0.354500 0.750000 -1.030741
v -0.484793 0.750000 -1.030741
v 0.410488 0.800000 -1.030741
v 0.484793 0.800000 -1.030741
v 0.484793 0.750000 -0.959884
v 0.484793 0.750000 -1.030741
v 0.484793 0.800000 0.959884
v 0.484793 0.800000 1.030741
v -0.484793 0.750000 -0.959884
v -0.484793 0.750000 0.412586
v -0.484793 0.800000 0.959884
v -0.484793 0.800000 0.412586
v 0.484793 0.750000 0.959884
v 0.484793 0.750000 0.412586
v 0.484793 0.800000 -0.959884
v 0.484793 0.800000 0.412586
v -0.354500 0.750000 1.030741
v 0.410488 0.800000 1.030741
v 0.410488 0.750000 -1.030741
v -0.354500 0.800000 -1.030741
vn -0.0000 1.0000 -0.0000
vn -0.0000 -1.0000 -0.0000
vn -0.0000 -0.0000 1.0000
vn 1.0000 -0.0000 -0.0000
vn -0.0000 -1.0000 0.0001
vn -0.0000 -1.0000 -0.0001
vn -0.0000 -0.0000 -1.0000
vn 0.0001 -1.0000 -0.0000
vn -0.0003 -1.0000 -0.0000
vn -1.0000 -0.0035 -0.0006
vn -1.0000 -0.0000 -0.0000
vn -0.0001 -1.0000 -0.0000
vn -0.0002 -1.0000 -0.0000
vt 0.267277 0.036793
vt 0.267277 0.053991
vt 0.259816 0.053991
vt 0.259816 0.044254
vt 0.063569 0.044254
vt 0.063569 0.036793
vt 0.249242 0.036793
vt 0.249242 0.044254
vt 0.286874 0.529681
vt 0.279413 0.537142
vt 0.279413 0.519944
vt 0.286874 0.519944
vt 0.306079 0.576208
vt 0.306081 0.551486
vt 0.439571 0.551957
vt 0.439571 0.576208
vt 0.249242 0.053991
vt 0.249242 0.529681
vt 0.249242 0.519944
vt 0.259816 0.519944
vt 0.259816 0.529681
vt 0.249242 0.186827
vt 0.259816 0.186827
vt 0.392280 0.801576
vt 0.416710 0.801405
vt 0.417181 0.934895
vt 0.393222 0.935065
vt 0.647118 0.801368
vt 0.656854 0.801368
vt 0.656854 0.934861
vt 0.647118 0.934861
vt 0.063569 0.024657
vt 0.031945 0.024657
vt 0.038848 0.017195
vt 0.063569 0.017196
vt 0.267277 0.537142
vt 0.249242 0.537142
vt 0.259816 0.556739
vt 0.249242 0.556739
vt 0.249242 0.549278
vt 0.267277 0.549278
vt 0.267277 0.186827
vt 0.267277 0.519944
vt 0.039145 0.556739
vt 0.031945 0.549278
vt 0.063569 0.549278
vt 0.063569 0.556739
vt 0.636544 0.801368
vt 0.636544 0.934861
vt 0.039407 0.186827
vt 0.031945 0.186827
vt 0.031945 0.053991
vt 0.039407 0.053991
vt 0.039407 0.519944
vt 0.063569 0.186827
vt 0.063569 0.519944
vt 0.991399 0.647210
vt 0.858562 0.647210
vt 0.858547 0.622575
vt 0.991384 0.622494
vt 0.525446 0.647210
vt 0.525431 0.622779
vt 0.991270 0.436903
vt 0.658154 0.436903
vt 0.658154 0.303410
vt 0.991270 0.303410
vt 0.063569 0.053991
vt 0.039407 0.529681
vt 0.063569 0.529681
vt 0.039407 0.044254
vt 0.306115 0.541750
vt 0.306287 0.517035
vt 0.439776 0.517977
vt 0.439606 0.542221
vt 0.031945 0.537142
vt 0.031945 0.519944
vt 0.306079 0.782191
vt 0.306079 0.772454
vt 0.439571 0.772455
vt 0.439571 0.782191
vt 0.525317 0.437107
vt 0.858434 0.436903
vt 0.306079 0.761881
vt 0.439571 0.761881
vt 0.426446 0.801370
vt 0.450870 0.801369
vt 0.450871 0.934861
vt 0.426918 0.934861
vt 0.012907 0.044254
vt 0.019810 0.036793
vt 0.019810 0.053991
vt 0.012901 0.053991
vt 0.441086 0.332308
vt 0.489628 0.332651
vt 0.488318 0.518319
vt 0.427090 0.983403
vt 0.417353 0.983437
vt 0.658154 0.292837
vt 0.991270 0.292837
vt 0.525317 0.292837
vt 0.525317 0.303410
vt 0.488113 0.552129
vt 0.488114 0.576208
vt 0.488114 0.761881
vt 0.989791 0.854755
vt 0.856954 0.854755
vt 0.856954 0.669082
vt 0.989791 0.669082
vt 0.656854 0.983404
vt 0.647117 0.983404
vt 0.450872 0.983404
vt 0.525317 0.436903
vt 0.206612 0.802887
vt 0.207554 0.936376
vt 0.658154 0.159344
vt 0.991270 0.159344
vt 0.783294 0.813432
vt 0.835492 0.813432
vt 0.835492 0.820356
vt 0.783294 0.820356
vt 0.856954 0.988248
vt 0.671281 0.988248
vt 0.671281 0.854755
vt 0.636544 0.993141
vt 0.636544 0.983404
vt 0.647117 0.993141
vt 0.497850 0.761881
vt 0.497850 0.772455
vt 0.488114 0.772455
vt 0.497850 0.552135
vt 0.497850 0.576208
vt 0.427083 0.993140
vt 0.450872 0.993140
vt 0.488114 0.782191
vt 0.393565 0.983607
vt 0.207897 0.984918
vt 0.488148 0.542392
vt 0.441161 0.321735
vt 0.489702 0.322077
vt 0.196981 0.936451
vt 0.197324 0.984992
vt 0.949471 0.963971
vt 0.949471 0.952639
vt 0.989791 0.988248
vt 0.897273 0.963971
vt 0.897273 0.952639
vt 0.835492 0.831687
vt 0.783294 0.831687
vt 0.842417 0.820356
vt 0.842417 0.831687
vt 0.776370 0.831687
vt 0.776370 0.820356
vt 0.835492 0.838611
vt 0.783294 0.838611
vt 0.286874 0.186827
vt 0.279413 0.186827
vt 0.279413 0.053991
vt 0.286874 0.053991
vt 0.019810 0.186827
vt 0.012820 0.186828
vt 0.012616 0.519944
vt 0.019810 0.519944
vt 0.019810 0.537142
vt 0.012610 0.529681
vt 0.031945 0.036793
vt 0.286874 0.044254
vt 0.279413 0.036793
vt 0.063569 0.537142
vt 0.249242 0.017196
vt 0.249242 0.024657
vt 0.267277 0.024657
vt 0.259816 0.017196
s 0
f 98/1/1 97/2/1 16/3/1 2/4/1
f 22/5/1 85/6/1 108/7/1 39/8/1
f 5/9/2 96/10/2 95/11/2 14/12/2
f 2/4/1 39/8/1 108/7/1 98/1/1
f 21/13/3 3/14/3 44/15/3 55/16/3
f 34/17/1 39/8/1 2/4/1 16/3/1
f 32/18/1 33/19/1 15/20/1 6/21/1
f 38/22/1 34/17/1 16/3/1 20/23/1
f 28/24/3 9/25/3 49/26/3 58/27/3
f 5/28/4 14/29/4 47/30/4 48/31/4
f 107/32/5 88/33/5 3/34/5 21/35/5
f 6/21/1 94/36/1 93/37/1 32/18/1
f 5/38/2 40/39/2 109/40/2 96/41/2
f 20/23/1 106/42/1 105/43/1 15/20/1
f 7/44/6 92/45/6 91/46/6 23/47/6
f 40/48/7 5/28/7 48/31/7 56/49/7
f 33/19/1 38/22/1 20/23/1 15/20/1
f 18/50/1 102/51/1 101/52/1 11/53/1
f 12/54/1 18/50/1 30/55/1 25/56/1
f 10/57/8 17/58/8 77/59/8 75/60/8
f 17/58/8 9/61/8 28/62/8 77/59/8
f 14/63/4 19/64/4 51/65/4 47/66/4
f 18/50/1 11/53/1 26/67/1 30/55/1
f 8/68/1 12/54/1 25/56/1 24/69/1
f 11/53/1 4/70/1 22/5/1 26/67/1
f 10/71/7 75/72/7 76/73/7 43/74/7
f 8/68/1 90/75/1 89/76/1 12/54/1
f 16/3/1 97/2/1 106/42/1 20/23/1
f 25/56/1 30/55/1 38/22/1 33/19/1
f 13/77/4 1/78/4 42/79/4 50/80/4
f 77/59/2 28/62/2 36/81/2 37/82/2
f 31/83/3 21/13/3 55/16/3 41/84/3
f 30/55/1 26/67/1 34/17/1 38/22/1
f 24/69/1 25/56/1 33/19/1 32/18/1
f 26/67/1 22/5/1 39/8/1 34/17/1
f 7/85/7 23/86/7 45/87/7 46/88/7
f 3/89/9 88/90/9 87/91/9 10/92/9
f 76/73/7 52/93/7 69/94/7 73/95/7
f 49/26/10 46/88/10 64/96/10 67/97/10
f 54/98/2 53/99/2 47/66/2 51/65/2
f 52/100/2 54/98/2 51/65/2 50/101/2
f 55/16/3 44/15/3 62/102/3 71/103/3
f 41/84/3 55/16/3 71/103/3 35/104/3
f 76/105/2 78/106/2 54/107/2 52/108/2
f 48/31/4 47/30/4 65/109/4 66/110/4
f 46/88/7 45/87/7 63/111/7 64/96/7
f 1/78/3 31/83/3 41/84/3 42/79/3
f 19/64/4 13/112/4 50/101/4 51/65/4
f 9/25/10 7/85/10 46/88/10 49/26/10
f 23/86/7 40/48/7 56/49/7 45/87/7
f 36/113/3 28/24/3 58/27/3 53/114/3
f 3/14/10 10/71/10 43/74/10 44/15/10
f 37/115/11 36/116/11 53/99/11 54/98/11
f 59/117/2 57/118/2 80/119/2 82/120/2
f 77/121/7 37/122/7 54/123/7 78/106/7
f 70/124/2 72/125/2 66/110/2 65/126/2
f 35/104/2 69/127/2 68/128/2 60/129/2
f 62/102/2 61/130/2 73/131/2 71/103/2
f 67/132/12 64/96/12 63/111/12 74/133/12
f 71/103/2 73/131/2 69/127/2 35/104/2
f 74/133/2 63/111/2 72/125/2 70/124/2
f 45/87/7 56/49/7 72/125/7 63/111/7
f 50/80/4 42/79/4 60/129/4 68/134/4
f 53/114/3 58/27/3 74/135/3 70/136/3
f 43/74/7 76/73/7 73/95/7 61/137/7
f 58/27/3 49/26/3 67/97/3 74/135/3
f 52/93/7 50/138/7 68/139/7 69/94/7
f 56/49/7 48/31/7 66/110/7 72/125/7
f 42/79/3 41/84/3 35/104/3 60/129/3
f 47/140/3 53/114/3 70/136/3 65/141/3
f 44/15/10 43/74/10 61/137/10 62/102/10
f 27/142/11 57/143/11 76/105/11 75/144/11
f 29/145/11 27/142/11 75/144/11 77/121/11
f 57/143/11 59/146/11 78/106/11 76/105/11
f 59/146/11 29/145/11 77/121/11 78/106/11
f 79/147/11 81/148/11 82/120/11 80/119/11
f 57/149/3 27/150/3 79/147/3 80/119/3
f 29/151/7 59/152/7 82/120/7 81/148/7
f 27/153/1 29/154/1 81/148/1 79/147/1
f 19/155/2 104/156/2 103/157/2 13/158/2
f 87/91/9 100/159/9 17/160/9 10/92/9
f 19/155/2 14/12/2 95/11/2 104/156/2
f 15/20/1 105/43/1 94/36/1 6/21/1
f 18/50/1 12/54/1 89/76/1 102/51/1
f 9/161/12 99/162/12 92/163/12 7/164/12
f 4/70/1 11/53/1 101/52/1 86/165/1
f 1/166/2 13/158/2 103/157/2 84/167/2
f 23/47/2 91/46/2 109/40/2 40/39/2
f 110/168/1 90/75/1 8/68/1 24/69/1
f 31/169/2 83/170/2 107/32/2 21/35/2
f 93/37/1 110/168/1 24/69/1 32/18/1
f 101/52/11 102/51/11 100/159/11 87/91/11
f 107/32/3 85/6/3 86/165/3 88/33/3
f 99/162/11 89/76/11 90/75/11 92/163/11
f 109/40/7 93/37/7 94/36/7 96/41/7
f 103/157/4 97/2/4 98/1/4 84/167/4
f 96/10/4 94/36/4 105/43/4 95/11/4
f 104/156/4 106/42/4 97/2/4 103/157/4
f 88/90/11 86/165/11 101/52/11 87/91/11
f 105/43/4 106/42/4 104/156/4 95/11/4
f 100/159/11 102/51/11 89/76/11 99/162/11
f 92/45/7 90/75/7 110/168/7 91/46/7
f 83/170/3 108/7/3 85/6/3 107/32/3
f 84/171/3 98/1/3 108/7/3 83/170/3
f 91/46/7 110/168/7 93/37/7 109/40/7
f 100/159/13 99/162/13 9/161/13 17/160/13
f 1/172/2 84/171/2 83/170/2 31/169/2
f 4/70/1 86/165/1 85/6/1 22/5/1
