# Blender 5.1.2
# www.blender.org
mtllib FilingCabinet3.mtl
o FilingCabinet3
v 0.234215 0.000000 -0.251346
v 0.234215 1.000000 -0.251346
v 0.234215 0.000000 0.248654
v 0.234215 1.000000 0.248654
v -0.265785 0.050000 -0.226346
v -0.265785 0.950000 -0.226346
v -0.265785 0.050000 0.223654
v -0.265785 0.950000 0.223654
v -0.265785 1.000000 0.248654
v -0.265785 0.000000 0.248654
v -0.265785 0.000000 -0.251346
v -0.265785 1.000000 -0.251346
v -0.265785 0.814284 0.063959
v -0.265785 0.885716 0.063959
v -0.265785 0.885716 -0.066651
v -0.265785 0.814284 -0.066651
v -0.265785 0.214284 0.063959
v -0.265785 0.285716 0.063959
v -0.265785 0.285716 -0.066651
v -0.265785 0.214284 -0.066651
v -0.279415 0.860217 0.051654
v -0.279415 0.826590 0.051654
v -0.279415 0.826590 -0.054345
v -0.279415 0.860217 -0.054345
v -0.279415 0.260217 0.051654
v -0.279415 0.226590 0.051654
v -0.279415 0.226590 -0.054345
v -0.279415 0.260217 -0.054345
v -0.274494 0.885716 0.063959
v -0.274494 0.814284 0.063959
v -0.274494 0.814284 -0.066651
v -0.274494 0.885716 -0.066651
v -0.274494 0.285716 0.063959
v -0.274494 0.214284 0.063959
v -0.274494 0.214284 -0.066651
v -0.274494 0.285716 -0.066651
v -0.249748 0.860217 0.051654
v -0.261965 0.826590 0.051654
v -0.261965 0.826590 -0.054345
v -0.249748 0.860217 -0.054345
v -0.249748 0.260217 0.051654
v -0.261965 0.226590 0.051654
v -0.261965 0.226590 -0.054345
v -0.249748 0.260217 -0.054345
v 0.234215 0.655213 -0.251346
v 0.234215 0.644786 -0.251346
v 0.234215 0.644786 0.248654
v 0.234215 0.655213 0.248654
v -0.265785 0.644786 0.248654
v -0.265785 0.655213 0.248654
v -0.265785 0.655213 -0.251346
v -0.265785 0.644786 -0.251346
v -0.265785 0.655214 0.223654
v -0.265785 0.655214 -0.226346
v 0.234215 0.355213 0.248654
v 0.234215 0.344786 0.248654
v -0.265785 0.355213 0.248654
v -0.265785 0.344786 0.248654
v -0.265785 0.344786 -0.251346
v -0.265785 0.355213 -0.251346
v -0.265785 0.344786 0.223654
v -0.265785 0.344786 -0.226346
v 0.234215 0.344786 -0.251346
v 0.234215 0.355213 -0.251346
v -0.419332 0.588532 0.063959
v -0.419332 0.517100 0.063959
v -0.419332 0.517100 -0.066651
v -0.419332 0.588532 -0.066651
v -0.428040 0.588532 0.063959
v -0.428040 0.517100 0.063959
v -0.428040 0.517100 -0.066651
v -0.428040 0.588532 -0.066651
v -0.432961 0.563033 0.051654
v -0.432961 0.529406 0.051654
v -0.432961 0.529406 -0.054345
v -0.432961 0.563033 -0.054345
v -0.403295 0.563033 0.051654
v -0.415512 0.529406 0.051654
v -0.415512 0.529406 -0.054345
v -0.403295 0.563033 -0.054345
v -0.419332 0.647602 -0.226346
v -0.419331 0.647602 0.223654
v -0.419331 0.358029 0.223654
v -0.419332 0.358029 -0.226346
v -0.278256 0.000000 -0.251346
v -0.278256 0.000000 0.248654
v -0.278256 1.000000 0.248654
v -0.278256 1.000000 -0.251346
v -0.278256 0.050000 -0.226346
v -0.278256 0.050000 0.223654
v -0.278256 0.950000 0.223654
v -0.278256 0.950000 -0.226346
v -0.278256 0.644786 -0.226346
v -0.278256 0.655214 -0.226346
v -0.278256 0.655213 -0.251346
v -0.278256 0.644786 -0.251346
v -0.278256 0.655214 0.223654
v -0.278256 0.644786 0.223654
v -0.278256 0.644786 0.248654
v -0.278256 0.655213 0.248654
v -0.278256 0.355213 0.248654
v -0.278256 0.344786 0.248654
v -0.278256 0.344786 0.223654
v -0.278256 0.355214 0.223654
v -0.278256 0.355214 -0.226346
v -0.278256 0.344786 -0.226346
v -0.278256 0.344786 -0.251346
v -0.278256 0.355213 -0.251346
vn -0.0000 -1.0000 -0.0000
vn -0.0000 1.0000 -0.0000
vn -0.0000 -0.0000 -1.0000
vn -1.0000 -0.0000 -0.0000
vn -0.0000 -0.0000 1.0000
vn -0.9285 -0.0000 0.3713
vn -0.9285 -0.3713 -0.0000
vn -0.9819 0.1895 -0.0000
vn -0.9285 -0.0000 -0.3713
vn -0.9399 0.3415 -0.0000
vn 1.0000 -0.0000 -0.0000
vn 0.0200 0.9998 -0.0000
vn -0.0200 -0.9998 -0.0000
vt 0.747487 0.778252
vt 0.747487 0.828208
vt 0.744156 0.828208
vt 0.744156 0.778252
vt 0.228765 0.593737
vt 0.037525 0.593737
vt 0.037525 0.402497
vt 0.228765 0.402497
vt 0.802485 0.593737
vt 0.611245 0.593737
vt 0.611245 0.402497
vt 0.802485 0.402497
vt 0.447281 0.282344
vt 0.441156 0.118178
vt 0.445335 0.112263
vt 0.453346 0.286897
vt 0.327108 0.112385
vt 0.331841 0.280734
vt 0.327549 0.286938
vt 0.320947 0.107623
vt 0.641906 0.842661
vt 0.616227 0.833332
vt 0.617364 0.830201
vt 0.643044 0.839531
vt 0.545066 0.713604
vt 0.545066 0.885720
vt 0.520479 0.824640
vt 0.520479 0.774685
vt 0.292270 0.887540
vt 0.292270 0.715424
vt 0.355106 0.776504
vt 0.355106 0.826460
vt 0.623519 0.773956
vt 0.635608 0.769564
vt 0.639482 0.780229
vt 0.625798 0.780229
vt 0.616227 0.767668
vt 0.641906 0.758339
vt 0.643044 0.761470
vt 0.617364 0.770799
vt 0.694118 0.828208
vt 0.694118 0.778252
vt 0.697449 0.778252
vt 0.697449 0.828208
vt 0.610724 0.825478
vt 0.610724 0.775522
vt 0.614055 0.775522
vt 0.614055 0.825478
vt 0.716305 0.761069
vt 0.741984 0.770398
vt 0.740847 0.773529
vt 0.715168 0.764199
vt 0.664093 0.775522
vt 0.664093 0.825478
vt 0.660762 0.825478
vt 0.660762 0.775522
vt 0.741984 0.836062
vt 0.716305 0.845391
vt 0.715168 0.842260
vt 0.740847 0.832931
vt 0.619124 0.780229
vt 0.619124 0.820772
vt 0.650829 0.820771
vt 0.650829 0.780229
vt 0.623519 0.827044
vt 0.635608 0.831436
vt 0.804451 0.826231
vt 0.804451 0.785688
vt 0.815798 0.785688
vt 0.815798 0.826231
vt 0.722603 0.834166
vt 0.734692 0.829774
vt 0.739087 0.823501
vt 0.739087 0.782959
vt 0.707382 0.782959
vt 0.707382 0.823501
vt 0.734692 0.776686
vt 0.722603 0.772294
vt 0.639482 0.820772
vt 0.625798 0.820772
vt 0.732413 0.823501
vt 0.718729 0.823501
vt 0.718729 0.782959
vt 0.732413 0.782959
vt 0.037525 0.725611
vt 0.032755 0.725611
vt 0.032755 0.593737
vt 0.037525 0.151891
vt 0.228765 0.151891
vt 0.228765 0.155879
vt 0.037525 0.155879
vt 0.684510 0.284160
vt 0.680192 0.114387
vt 0.684528 0.108106
vt 0.690714 0.289010
vt 0.228765 0.844343
vt 0.037525 0.844343
vt 0.037525 0.840355
vt 0.228765 0.840355
vt 0.479371 0.402497
vt 0.479371 0.593737
vt 0.475383 0.593737
vt 0.475383 0.402497
vt 0.364627 0.402497
vt 0.364627 0.593737
vt 0.360639 0.593737
vt 0.360639 0.402497
vt 0.228765 0.729599
vt 0.037525 0.729599
vt 0.228765 0.725611
vt 0.032755 0.155879
vt 0.032755 0.151891
vt 0.037525 0.266635
vt 0.228765 0.266635
vt 0.228765 0.270623
vt 0.037525 0.270623
vt 0.032755 0.729599
vt 0.037525 0.020017
vt 0.228765 0.020017
vt 0.228765 0.976217
vt 0.037525 0.976217
vt 0.814654 0.335099
vt 0.815731 0.281141
vt 0.926487 0.281141
vt 0.925410 0.335099
vt 0.032755 0.402497
vt 0.032755 0.270623
vt 0.032755 0.266635
vt 0.432316 0.713604
vt 0.493158 0.774685
vt 0.790767 0.826231
vt 0.800577 0.836895
vt 0.788488 0.832503
vt 0.432316 0.885720
vt 0.493158 0.824640
vt 0.779024 0.830937
vt 0.775693 0.830937
vt 0.775693 0.780982
vt 0.779024 0.780982
vt 0.807255 0.402497
vt 0.807255 0.593737
vt 0.032755 0.020017
vt 0.405020 0.715424
vt 0.382427 0.776504
vt 0.405020 0.887540
vt 0.382427 0.826460
vt 0.790767 0.785688
vt 0.788488 0.779415
vt 0.800577 0.775023
vt 0.825731 0.830937
vt 0.825731 0.780982
vt 0.829062 0.780982
vt 0.829062 0.830937
vt 0.808013 0.844990
vt 0.806875 0.848121
vt 0.781196 0.838791
vt 0.782333 0.835660
vt 0.784093 0.826231
vt 0.784093 0.785688
vt 0.808013 0.766929
vt 0.782333 0.776258
vt 0.781196 0.773128
vt 0.806875 0.763798
vt 0.926487 0.109025
vt 0.980456 0.109025
vt 0.980456 0.281141
vt 0.903894 0.220060
vt 0.903894 0.170105
vt 0.815731 0.109025
vt 0.876572 0.170105
vt 0.876572 0.220060
vt 0.705000 0.097198
vt 0.709030 0.299709
vt 0.307267 0.297630
vt 0.302755 0.097198
vt 0.445354 0.103219
vt 0.449112 0.103158
vt 0.449251 0.112211
vt 0.456793 0.286775
vt 0.457093 0.295443
vt 0.453503 0.295514
vt 0.561924 0.283213
vt 0.554559 0.108989
vt 0.558006 0.108950
vt 0.565837 0.283044
vt 0.554370 0.100326
vt 0.557525 0.100257
vt 0.565402 0.292171
vt 0.562119 0.292178
vt 0.925410 0.055066
vt 0.814654 0.055066
vt 0.761762 0.109025
vt 0.761762 0.281141
vt 0.032755 0.976217
vt 0.032755 0.844343
vt 0.570023 0.277164
vt 0.564052 0.113486
vt 0.032755 0.840355
s 0
f 20/1/1 17/2/1 34/3/1 35/4/1
f 3/5/1 10/6/1 11/7/1 1/8/1
f 9/9/2 4/10/2 2/11/2 12/12/2
f 53/13/2 54/14/2 94/15/2 97/16/2
f 6/17/1 8/18/1 91/19/1 92/20/1
f 15/21/3 16/22/3 31/23/3 32/24/3
f 8/25/4 6/26/4 15/27/4 14/28/4
f 5/29/4 7/30/4 17/31/4 20/32/4
f 22/33/3 21/34/3 37/35/3 38/36/3
f 13/37/5 14/38/5 29/39/5 30/40/5
f 18/41/2 19/42/2 36/43/2 33/44/2
f 16/45/1 13/46/1 30/47/1 31/48/1
f 19/49/3 20/50/3 35/51/3 36/52/3
f 14/53/2 15/54/2 32/55/2 29/56/2
f 17/57/5 18/58/5 33/59/5 34/60/5
f 21/34/6 22/33/6 30/40/6 29/39/6
f 22/61/7 23/62/7 31/48/7 30/47/7
f 24/63/8 21/64/8 29/56/8 32/55/8
f 23/65/9 24/66/9 32/24/9 31/23/9
f 80/67/1 77/68/1 73/69/1 76/70/1
f 25/71/6 26/72/6 34/60/6 33/59/6
f 26/73/7 27/74/7 35/4/7 34/3/7
f 28/75/8 25/76/8 33/44/8 36/43/8
f 27/77/9 28/78/9 36/52/9 35/51/9
f 38/36/10 37/35/10 40/79/10 39/80/10
f 42/81/10 41/82/10 44/83/10 43/84/10
f 28/78/5 27/77/5 43/84/5 44/83/5
f 23/62/2 22/61/2 38/36/2 39/80/2
f 26/72/3 25/71/3 41/82/3 42/81/3
f 21/64/1 24/63/1 40/79/1 37/35/1
f 27/74/2 26/73/2 42/81/2 43/84/2
f 24/66/5 23/65/5 39/80/5 40/79/5
f 25/76/1 28/75/1 44/83/1 41/82/1
f 10/6/5 58/85/5 102/86/5 86/87/5
f 51/88/3 45/89/3 46/90/3 52/91/3
f 7/92/2 5/93/2 89/94/2 90/95/2
f 48/96/5 50/97/5 49/98/5 47/99/5
f 45/100/11 48/101/11 47/102/11 46/103/11
f 64/104/11 55/105/11 56/106/11 63/107/11
f 55/108/5 57/109/5 58/85/5 56/110/5
f 51/88/3 52/91/3 96/111/3 95/112/3
f 60/113/3 64/114/3 63/115/3 59/116/3
f 54/14/5 6/17/5 92/20/5 94/15/5
f 58/85/5 57/109/5 101/117/5 102/86/5
f 51/88/3 12/118/3 2/119/3 45/89/3
f 64/104/11 46/103/11 47/102/11 55/105/11
f 45/100/11 2/11/11 4/10/11 48/101/11
f 60/113/3 52/91/3 46/90/3 64/114/3
f 48/96/5 4/120/5 9/121/5 50/97/5
f 55/108/5 47/99/5 49/98/5 57/109/5
f 105/122/3 84/123/3 81/124/3 93/125/3
f 59/116/3 11/7/3 85/126/3 107/127/3
f 8/18/3 53/13/3 97/16/3 91/19/3
f 60/113/3 59/116/3 107/127/3 108/128/3
f 53/129/4 8/25/4 14/28/4 13/130/4
f 79/131/5 80/67/5 76/132/5 75/133/5
f 54/134/4 53/129/4 13/130/4 16/135/4
f 6/26/4 54/134/4 16/135/4 15/27/4
f 71/136/1 67/137/1 66/138/1 70/139/1
f 3/5/5 56/110/5 58/85/5 10/6/5
f 1/8/11 63/107/11 56/106/11 3/5/11
f 9/9/2 12/12/2 88/140/2 87/141/2
f 12/118/3 51/88/3 95/112/3 88/142/3
f 11/7/3 59/116/3 63/115/3 1/8/3
f 7/30/4 61/143/4 18/144/4 17/31/4
f 61/143/4 62/145/4 19/146/4 18/144/4
f 78/147/3 74/148/3 73/149/3 77/68/3
f 62/145/4 5/29/4 20/32/4 19/146/4
f 72/150/2 69/151/2 65/152/2 68/153/2
f 72/154/3 68/155/3 67/156/3 71/157/3
f 78/147/2 79/131/2 75/158/2 74/159/2
f 69/160/5 70/161/5 66/162/5 65/163/5
f 81/124/12 82/164/12 98/165/12 93/166/12
f 73/149/6 74/148/6 70/161/6 69/160/6
f 74/159/7 75/158/7 71/136/7 70/139/7
f 76/70/8 73/69/8 69/151/8 72/150/8
f 75/133/9 76/132/9 72/154/9 71/157/9
f 78/147/10 77/68/10 80/67/10 79/131/10
f 82/164/4 81/124/4 68/167/4 65/168/4
f 83/169/4 82/164/4 65/168/4 66/170/4
f 81/124/4 84/123/4 67/171/4 68/167/4
f 84/123/4 83/169/4 66/170/4 67/171/4
f 90/95/4 89/94/4 85/172/4 86/173/4
f 92/20/4 91/19/4 87/174/4 88/175/4
f 94/15/4 95/176/4 96/177/4 93/178/4
f 98/179/4 99/180/4 100/181/4 97/16/4
f 97/16/4 94/15/4 93/178/4 98/179/4
f 104/182/4 105/183/4 106/184/4 103/185/4
f 105/183/4 108/186/4 107/187/4 106/184/4
f 103/185/4 102/188/4 101/189/4 104/182/4
f 91/19/4 97/16/4 100/181/4 87/174/4
f 98/179/4 104/182/4 101/189/4 99/180/4
f 94/15/4 92/20/4 88/175/4 95/176/4
f 105/183/4 93/178/4 96/177/4 108/186/4
f 103/185/4 90/95/4 86/173/4 102/188/4
f 89/94/4 106/184/4 107/187/4 85/172/4
f 98/190/5 82/164/5 83/169/5 104/191/5
f 52/91/3 60/113/3 108/128/3 96/111/3
f 104/192/13 83/169/13 84/123/13 105/193/13
f 50/97/5 9/121/5 87/194/5 100/195/5
f 61/196/3 7/92/3 90/95/3 103/185/3
f 11/7/1 10/6/1 86/87/1 85/126/1
f 62/197/1 61/196/1 103/185/1 106/184/1
f 57/109/5 49/98/5 99/198/5 101/117/5
f 49/98/5 50/97/5 100/195/5 99/198/5
f 5/93/5 62/197/5 106/184/5 89/94/5
