# Blender 5.1.2
# www.blender.org
mtllib FilingCabinet4.mtl
o FilingCabinet4
v 0.234215 0.000000 -0.251186
v 0.234215 1.000000 -0.251186
v 0.234215 0.000000 0.248814
v 0.234215 1.000000 0.248814
v -0.265785 0.950000 -0.226186
v -0.265785 0.950000 0.223814
v -0.265785 1.000000 0.248814
v -0.265785 0.000000 0.248814
v -0.265785 0.000000 -0.251186
v -0.265785 1.000000 -0.251186
v -0.265785 0.814284 0.064119
v -0.265785 0.885716 0.064119
v -0.265785 0.885716 -0.066491
v -0.265785 0.814284 -0.066491
v -0.565785 0.214284 0.064119
v -0.279415 0.860217 0.051813
v -0.279415 0.826590 0.051813
v -0.279415 0.826590 -0.054185
v -0.279415 0.860217 -0.054185
v -0.565785 0.285716 0.064119
v -0.274494 0.885716 0.064119
v -0.274494 0.814284 0.064119
v -0.274494 0.814284 -0.066491
v -0.274494 0.885716 -0.066491
v -0.565785 0.050000 0.223814
v -0.249748 0.860217 0.051813
v -0.261965 0.826590 0.051813
v -0.261965 0.826590 -0.054185
v -0.249748 0.860217 -0.054185
v -0.565785 0.050000 -0.226186
v 0.234215 0.655214 -0.251186
v 0.234215 0.644786 -0.251186
v 0.234215 0.644786 0.248814
v 0.234215 0.655214 0.248814
v -0.265785 0.644786 0.248814
v -0.265785 0.655214 0.248814
v -0.265785 0.655214 -0.251186
v -0.265785 0.644786 -0.251186
v -0.265785 0.655214 0.223814
v -0.265785 0.655214 -0.226186
v 0.234215 0.355214 0.248814
v 0.234215 0.344786 0.248814
v -0.265785 0.355214 0.248814
v -0.265785 0.344786 0.248814
v -0.265785 0.344786 -0.251186
v -0.265785 0.355214 -0.251186
v 0.234215 0.344786 -0.251186
v 0.234215 0.355214 -0.251186
v -0.419331 0.588532 0.064119
v -0.419331 0.517100 0.064119
v -0.419331 0.517100 -0.066491
v -0.419331 0.588532 -0.066491
v -0.428040 0.588532 0.064119
v -0.428040 0.517100 0.064119
v -0.428040 0.517100 -0.066491
v -0.428040 0.588532 -0.066491
v -0.432961 0.563033 0.051813
v -0.432961 0.529406 0.051813
v -0.432961 0.529406 -0.054185
v -0.432961 0.563033 -0.054185
v -0.403295 0.563033 0.051813
v -0.415512 0.529406 0.051813
v -0.415512 0.529406 -0.054185
v -0.403295 0.563033 -0.054185
v -0.419331 0.647602 -0.226186
v -0.419331 0.647602 0.223814
v -0.419331 0.358029 0.223814
v -0.419331 0.358029 -0.226186
v -0.565785 0.214284 -0.066491
v -0.565785 0.285716 -0.066491
v -0.574494 0.285716 0.064119
v -0.574494 0.214284 0.064119
v -0.574494 0.214284 -0.066491
v -0.574494 0.285716 -0.066491
v -0.579414 0.260217 0.051813
v -0.579414 0.226590 0.051813
v -0.579414 0.226590 -0.054185
v -0.579414 0.260217 -0.054185
v -0.549748 0.260217 0.051813
v -0.561965 0.226590 0.051813
v -0.561965 0.226590 -0.054185
v -0.549748 0.260217 -0.054185
v -0.565785 0.344786 -0.226186
v -0.565785 0.344786 0.223814
v -0.278256 0.000000 -0.251186
v -0.278256 0.000000 0.248814
v -0.278256 1.000000 0.248814
v -0.278256 1.000000 -0.251186
v -0.278256 0.050000 -0.226186
v -0.278256 0.050000 0.223814
v -0.278256 0.950000 0.223814
v -0.278256 0.950000 -0.226186
v -0.278256 0.644786 -0.226186
v -0.278256 0.655214 -0.226186
v -0.278256 0.655214 -0.251186
v -0.278256 0.644786 -0.251186
v -0.278256 0.655214 0.223814
v -0.278256 0.644786 0.223814
v -0.278256 0.644786 0.248814
v -0.278256 0.655214 0.248814
v -0.278256 0.355214 0.248814
v -0.278256 0.344786 0.248814
v -0.278256 0.344786 0.223814
v -0.278256 0.355214 0.223814
v -0.278256 0.355214 -0.226186
v -0.278256 0.344786 -0.226186
v -0.278256 0.344786 -0.251186
v -0.278256 0.355214 -0.251186
vn -0.0000 -1.0000 -0.0000
vn -0.0000 1.0000 -0.0000
vn -0.0000 -0.0000 1.0000
vn -0.0000 -0.0000 -1.0000
vn -1.0000 -0.0000 -0.0000
vn -0.9285 -0.0000 0.3713
vn -0.9285 -0.3713 -0.0000
vn -0.9819 0.1895 -0.0000
vn -0.9285 -0.0000 -0.3713
vn 0.0200 0.9998 -0.0000
vn -0.9399 0.3415 -0.0000
vn 1.0000 -0.0000 -0.0000
vn -0.0200 -0.9998 -0.0000
vn -0.9285 -0.0000 0.3712
vn -0.9285 -0.3712 -0.0000
vn -0.9285 -0.0000 -0.3712
vt 0.506895 0.993558
vt 0.266747 0.993558
vt 0.266747 0.753410
vt 0.506895 0.753410
vt 0.010862 0.753410
vt 0.251009 0.753410
vt 0.251009 0.993558
vt 0.010862 0.993558
vt 0.175481 0.502089
vt 0.170472 0.502089
vt 0.170472 0.496099
vt 0.175481 0.496099
vt 0.314561 0.502089
vt 0.314561 0.496099
vt 0.178168 0.059454
vt 0.212476 0.059454
vt 0.212476 0.063637
vt 0.178168 0.063637
vt 0.516642 0.780697
vt 0.732775 0.780697
vt 0.656074 0.811572
vt 0.593343 0.811572
vt 0.441871 0.253169
vt 0.425720 0.253169
vt 0.425720 0.238920
vt 0.441871 0.244788
vt 0.398684 0.084795
vt 0.432992 0.084795
vt 0.432992 0.088978
vt 0.398684 0.088978
vt 0.052870 0.235247
vt 0.052870 0.172516
vt 0.057052 0.172516
vt 0.057052 0.235247
vt 0.262345 0.021531
vt 0.199614 0.021531
vt 0.199614 0.017348
vt 0.262345 0.017348
vt 0.420745 0.095344
vt 0.404594 0.095344
vt 0.063418 0.178426
vt 0.063418 0.229336
vt 0.205524 0.004875
vt 0.256435 0.004875
vt 0.206566 0.070003
vt 0.190415 0.070003
vt 0.452194 0.030218
vt 0.456376 0.030218
vt 0.456376 0.092949
vt 0.452194 0.092949
vt 0.375978 0.040113
vt 0.375978 0.048494
vt 0.359827 0.048494
vt 0.359827 0.034245
vt 0.778807 0.496103
vt 0.778807 0.563874
vt 0.562674 0.563874
vt 0.562674 0.496103
vt 0.192763 0.009059
vt 0.130032 0.009059
vt 0.130032 0.004876
vt 0.192763 0.004876
vt 0.006888 0.302306
vt 0.104538 0.204655
vt 0.257367 0.357484
vt 0.159717 0.455135
vt 0.393185 0.022053
vt 0.393185 0.004870
vt 0.444095 0.004870
vt 0.444095 0.022053
vt 0.447265 0.235120
vt 0.447265 0.184210
vt 0.455646 0.184210
vt 0.455646 0.235120
vt 0.043123 0.160815
vt 0.043123 0.211725
vt 0.028874 0.211725
vt 0.028874 0.160815
vt 0.395189 0.259016
vt 0.379038 0.259016
vt 0.379038 0.250635
vt 0.395189 0.244767
vt 0.107003 0.006889
vt 0.204654 0.104540
vt 0.006888 0.107005
vt 0.260757 0.993558
vt 0.260757 0.753410
vt 0.472752 0.170472
vt 0.712899 0.170472
vt 0.712899 0.175481
vt 0.472752 0.175481
vt 0.355018 0.455135
vt 0.357483 0.257369
vt 0.455133 0.355019
vt 0.170472 0.742236
vt 0.175481 0.742236
vt 0.962790 0.319569
vt 0.722643 0.319569
vt 0.722643 0.314561
vt 0.962790 0.314561
vt 0.962790 0.175481
vt 0.722643 0.175481
vt 0.722643 0.170472
vt 0.962790 0.170472
vt 0.314561 0.742236
vt 0.319569 0.502089
vt 0.319569 0.742236
vt 0.004873 0.502088
vt 0.004873 0.496099
vt 0.472752 0.314561
vt 0.712899 0.314561
vt 0.712899 0.319569
vt 0.472752 0.319569
vt 0.562674 0.770725
vt 0.562674 0.702954
vt 0.778807 0.702954
vt 0.778807 0.770725
vt 0.466762 0.314561
vt 0.466762 0.175481
vt 0.472752 0.004873
vt 0.712899 0.004873
vt 0.962790 0.485168
vt 0.722643 0.485168
vt 0.004873 0.742236
vt 0.494917 0.565226
vt 0.494917 0.704306
vt 0.004874 0.468809
vt 0.221007 0.468809
vt 0.221007 0.474798
vt 0.004874 0.474798
vt 0.914055 0.511119
vt 0.914055 0.727252
vt 0.908065 0.727252
vt 0.908065 0.511119
vt 0.485168 0.502089
vt 0.319569 0.496099
vt 0.485168 0.496099
vt 0.516642 0.922281
vt 0.593343 0.845881
vt 0.426888 0.040113
vt 0.426888 0.048494
vt 0.732775 0.922281
vt 0.656074 0.845881
vt 0.385168 0.059454
vt 0.436078 0.059454
vt 0.436078 0.073703
vt 0.385168 0.073703
vt 0.433237 0.230214
vt 0.433237 0.195906
vt 0.437419 0.195906
vt 0.437420 0.230214
vt 0.485168 0.742236
vt 0.962790 0.004873
vt 0.722643 0.004873
vt 0.455133 0.159718
vt 0.302304 0.006889
vt 0.472752 0.485168
vt 0.712899 0.485168
vt 0.085861 0.013252
vt 0.069710 0.019119
vt 0.069710 0.004871
vt 0.085861 0.004871
vt 0.004871 0.188333
vt 0.004871 0.137423
vt 0.019119 0.137423
vt 0.019119 0.188333
vt 0.009054 0.262541
vt 0.004871 0.262541
vt 0.004871 0.199809
vt 0.009054 0.199809
vt 0.053592 0.039181
vt 0.049409 0.039181
vt 0.049409 0.004873
vt 0.053592 0.004873
vt 0.225176 0.048496
vt 0.225176 0.034248
vt 0.241327 0.040116
vt 0.241327 0.048496
vt 0.426871 0.217967
vt 0.426871 0.201816
vt 0.445828 0.087039
vt 0.445828 0.036128
vt 0.186853 0.021532
vt 0.135942 0.021532
vt 0.059958 0.010784
vt 0.059958 0.026934
vt 0.332532 0.022058
vt 0.332532 0.004875
vt 0.383442 0.004875
vt 0.383442 0.022058
vt 0.702106 0.592245
vt 0.639375 0.592245
vt 0.639375 0.626553
vt 0.702106 0.626553
vt 0.214568 0.203097
vt 0.258926 0.247454
vt 0.004873 0.067608
vt 0.004873 0.004877
vt 0.009056 0.004877
vt 0.009056 0.067608
vt 0.415974 0.217348
vt 0.415974 0.251657
vt 0.411791 0.251657
vt 0.411791 0.217348
vt 0.405425 0.239410
vt 0.405425 0.223259
vt 0.015419 0.205720
vt 0.015419 0.256630
vt 0.021529 0.010787
vt 0.021529 0.061697
vt 0.448660 0.116782
vt 0.432509 0.116782
vt 0.420262 0.110417
vt 0.454570 0.110417
vt 0.164520 0.049349
vt 0.164520 0.032165
vt 0.215430 0.032165
vt 0.215430 0.049349
vt 0.025165 0.223196
vt 0.041316 0.223196
vt 0.041316 0.231576
vt 0.025165 0.237444
vt 0.031281 0.055780
vt 0.031281 0.004870
vt 0.039662 0.004870
vt 0.039662 0.055780
vt 0.238828 0.178837
vt 0.283186 0.223195
vt 0.947813 0.511122
vt 0.947813 0.727255
vt 0.923799 0.739262
vt 0.923799 0.499115
vt 0.884050 0.739259
vt 0.884050 0.499112
vt 0.984540 0.320322
vt 0.972532 0.320322
vt 0.972532 0.315314
vt 0.984540 0.315314
vt 0.868320 0.667462
vt 0.856313 0.667462
vt 0.856313 0.662453
vt 0.868320 0.662453
vt 0.221007 0.479807
vt 0.004874 0.479807
vt 0.230751 0.468807
vt 0.446884 0.468807
vt 0.446884 0.473816
vt 0.230751 0.473816
vt 0.984540 0.176234
vt 0.972532 0.176234
vt 0.972532 0.171225
vt 0.984540 0.171225
vt 0.868320 0.811550
vt 0.856313 0.811550
vt 0.856313 0.806542
vt 0.868320 0.806542
vt 0.868320 0.520869
vt 0.856313 0.496854
vt 0.984540 0.461907
vt 0.972532 0.485921
vt 0.868320 0.953135
vt 0.856313 0.977149
vt 0.984540 0.029641
vt 0.972532 0.005626
vt 0.466762 0.170472
vt 0.466762 0.004873
vt 0.004872 0.993558
vt 0.004872 0.753410
vt 0.466762 0.319569
vt 0.874310 0.520869
vt 0.874310 0.662453
vt 0.466762 0.485168
vt 0.846565 0.704306
vt 0.846565 0.565226
vt 0.990529 0.320322
vt 0.990529 0.461907
vt 0.420262 0.106234
vt 0.454570 0.106234
s 1
f 3/1/1 8/2/1 9/3/1 1/4/1
f 7/5/2 4/6/2 2/7/2 10/8/2
f 35/9/3 36/10/3 100/11/3 99/12/3
f 43/13/3 35/9/3 99/12/3 101/14/3
f 13/15/4 14/16/4 23/17/4 24/18/4
f 6/19/5 5/20/5 13/21/5 12/22/5
f 17/23/4 16/24/4 26/25/4 27/26/4
f 11/27/3 12/28/3 21/29/3 22/30/3
f 14/31/1 11/32/1 22/33/1 23/34/1
f 12/35/2 13/36/2 24/37/2 21/38/2
f 16/39/6 17/40/6 22/30/6 21/29/6
f 17/41/7 18/42/7 23/34/7 22/33/7
f 19/43/8 16/44/8 21/38/8 24/37/8
f 18/45/9 19/46/9 24/18/9 23/17/9
f 55/47/1 51/48/1 50/49/1 54/50/1
f 62/51/4 58/52/4 57/53/4 61/54/4
f 93/55/10 65/56/10 66/57/10 98/58/10
f 56/59/2 53/60/2 49/61/2 52/62/2
f 90/63/1 25/64/1 30/65/1 89/66/1
f 27/67/11 26/68/11 29/69/11 28/70/11
f 18/71/2 17/72/2 27/73/2 28/74/2
f 16/75/1 19/76/1 29/77/1 26/78/1
f 19/79/3 18/80/3 28/81/3 29/82/3
f 103/83/3 84/84/3 25/64/3 90/85/3
f 9/3/1 8/2/1 86/86/1 85/87/1
f 37/88/4 31/89/4 32/90/4 38/91/4
f 89/92/4 30/65/4 83/93/4 106/94/4
f 34/95/3 36/10/3 35/9/3 33/96/3
f 31/97/12 34/98/12 33/99/12 32/100/12
f 48/101/12 41/102/12 42/103/12 47/104/12
f 41/105/3 43/13/3 44/106/3 42/107/3
f 36/10/3 7/108/3 87/109/3 100/11/3
f 46/110/4 48/111/4 47/112/4 45/113/4
f 104/114/13 67/115/13 68/116/13 105/117/13
f 38/91/4 46/110/4 108/118/4 96/119/4
f 37/88/4 10/120/4 2/121/4 31/89/4
f 48/101/12 32/100/12 33/99/12 41/102/12
f 31/97/12 2/122/12 4/123/12 34/98/12
f 46/110/4 38/91/4 32/90/4 48/111/4
f 34/95/3 4/124/3 7/108/3 36/10/3
f 41/105/3 33/96/3 35/9/3 43/13/3
f 98/125/3 66/57/3 67/115/3 104/126/3
f 39/127/2 40/128/2 94/129/2 97/130/2
f 5/131/1 6/132/1 91/133/1 92/134/1
f 8/135/3 44/106/3 102/136/3 86/137/3
f 39/138/5 6/19/5 12/22/5 11/139/5
f 62/51/2 63/140/2 59/141/2 58/52/2
f 40/142/5 39/138/5 11/139/5 14/143/5
f 75/144/1 78/145/1 82/146/1 79/147/1
f 5/20/5 40/142/5 14/143/5 13/21/5
f 53/148/3 54/149/3 50/150/3 49/151/3
f 3/152/3 42/107/3 44/106/3 8/135/3
f 1/153/12 47/104/12 42/103/12 3/154/12
f 106/155/2 83/93/2 84/84/2 103/156/2
f 9/157/4 45/113/4 47/112/4 1/158/4
f 63/159/3 64/160/3 60/161/3 59/162/3
f 64/163/1 61/164/1 57/165/1 60/166/1
f 73/167/1 69/168/1 15/169/1 72/170/1
f 56/171/4 52/172/4 51/173/4 55/174/4
f 75/175/4 79/176/4 80/177/4 76/178/4
f 57/179/6 58/180/6 54/149/6 53/148/6
f 58/181/7 59/182/7 55/47/7 54/50/7
f 60/183/8 57/184/8 53/60/8 56/59/8
f 59/185/9 60/186/9 56/171/9 55/174/9
f 62/187/11 61/188/11 64/189/11 63/190/11
f 66/57/5 65/56/5 52/191/5 49/192/5
f 67/115/5 66/57/5 49/192/5 50/193/5
f 65/56/5 68/116/5 51/194/5 52/191/5
f 68/116/5 67/115/5 50/193/5 51/194/5
f 30/65/5 25/64/5 15/195/5 69/196/5
f 20/197/2 70/198/2 74/199/2 71/200/2
f 15/201/3 20/202/3 71/203/3 72/204/3
f 75/205/14 76/206/14 72/204/14 71/203/14
f 76/207/15 77/208/15 73/167/15 72/170/15
f 78/209/8 75/210/8 71/200/8 74/199/8
f 77/211/16 78/212/16 74/213/16 73/214/16
f 80/215/11 79/216/11 82/217/11 81/218/11
f 78/219/3 77/220/3 81/221/3 82/222/3
f 77/223/2 76/224/2 80/225/2 81/226/2
f 25/64/5 84/84/5 20/227/5 15/195/5
f 84/84/5 83/93/5 70/228/5 20/227/5
f 83/93/5 30/65/5 69/196/5 70/228/5
f 90/229/5 89/230/5 85/231/5 86/232/5
f 92/134/5 91/133/5 87/233/5 88/234/5
f 94/235/5 95/236/5 96/237/5 93/238/5
f 98/239/5 99/240/5 100/241/5 97/242/5
f 97/130/5 94/129/5 93/243/5 98/244/5
f 104/245/5 105/246/5 106/247/5 103/248/5
f 105/249/5 108/250/5 107/251/5 106/252/5
f 103/253/5 102/254/5 101/255/5 104/256/5
f 91/257/5 97/242/5 100/241/5 87/258/5
f 98/239/5 104/256/5 101/255/5 99/240/5
f 94/235/5 92/259/5 88/260/5 95/236/5
f 105/249/5 93/238/5 96/237/5 108/250/5
f 103/253/5 90/261/5 86/262/5 102/254/5
f 89/263/5 106/252/5 107/251/5 85/264/5
f 10/120/4 37/88/4 95/265/4 88/266/4
f 7/5/2 10/8/2 88/267/2 87/268/2
f 46/110/4 45/113/4 107/269/4 108/118/4
f 6/270/4 39/271/4 97/242/4 91/257/4
f 45/113/4 9/157/4 85/272/4 107/269/4
f 105/273/4 68/116/4 65/56/4 93/274/4
f 44/106/3 43/13/3 101/14/3 102/136/3
f 40/275/3 5/276/3 92/259/3 94/235/3
f 37/88/4 38/91/4 96/119/4 95/265/4
f 73/214/4 74/213/4 70/277/4 69/278/4
