# Blender 5.1.2
# www.blender.org
mtllib Folder.mtl
o Folder
v 0.175000 0.037933 0.300053
v -0.175000 0.037933 0.300053
v 0.175000 0.012067 0.300053
v -0.175000 0.012067 0.300053
v 0.175000 0.050000 0.000053
v -0.175000 0.050000 0.000053
v -0.175000 0.000000 0.000053
v 0.175000 0.000000 0.000053
vn -0.0000 -0.9992 0.0402
vn -0.0000 0.9992 0.0402
vn -0.0000 -0.0000 -1.0000
vt 0.000000 0.461567
vt -0.000000 0.000000
vt 0.538060 -0.000000
vt 0.538060 0.461567
vt 0.000000 1.000000
vt 0.000000 0.538433
vt 0.538060 0.538433
vt 0.538060 1.000000
s 0
f 8/1/1 3/2/1 4/3/1 7/4/1
f 1/5/2 5/6/2 6/7/2 2/8/2
f 5/6/3 8/1/3 7/4/3 6/7/3
