# Blender 5.1.2
# www.blender.org
mtllib PipePressure.mtl
o PipePressure
v -0.108253 0.062500 0.500000
v -0.062500 0.108253 0.500000
v -0.000000 0.125000 0.500000
v 0.062500 0.108253 0.500000
v 0.108253 0.062500 0.500000
v 0.125000 0.000000 0.500000
v 0.108253 -0.062500 0.500000
v 0.062500 -0.108253 0.500000
v 0.000000 -0.125000 0.500000
v -0.062500 -0.108253 0.500000
v -0.108253 -0.062500 0.500000
v -0.125000 -0.000000 0.500000
v -0.108253 0.062500 0.000000
v -0.062500 0.108253 0.000000
v -0.000000 0.125000 0.000000
v 0.062500 0.108253 0.000000
v 0.108253 0.062500 0.000000
v 0.125000 0.000000 0.000000
v 0.108253 -0.062500 0.000000
v 0.062500 -0.108253 0.000000
v 0.000000 -0.125000 0.000000
v -0.062500 -0.108253 0.000000
v -0.108253 -0.062500 0.000000
v -0.125000 -0.000000 0.000000
v -0.108253 0.062500 0.050000
v -0.125000 -0.000000 0.050000
v -0.073995 0.112710 0.250000
v -0.000000 0.119945 0.199523
v 0.073995 0.112710 0.250000
v 0.108253 0.062500 0.050000
v 0.125000 0.000000 0.050000
v 0.108253 -0.062500 0.050000
v 0.062500 -0.108253 0.050000
v 0.000000 -0.125000 0.050000
v -0.062500 -0.108253 0.050000
v -0.108253 -0.062500 0.050000
v -0.108253 0.062500 0.450000
v -0.125000 -0.000000 0.450000
v -0.000000 0.119945 0.300477
v 0.108253 0.062500 0.450000
v 0.125000 0.000000 0.450000
v 0.108253 -0.062500 0.450000
v 0.062500 -0.108253 0.450000
v 0.000000 -0.125000 0.450000
v -0.062500 -0.108253 0.450000
v -0.108253 -0.062500 0.450000
v -0.142894 0.082500 0.500000
v -0.165000 -0.000000 0.500000
v -0.142894 0.082500 0.050000
v -0.142894 0.082500 0.000000
v -0.165000 -0.000000 0.000000
v -0.165000 -0.000000 0.050000
v -0.082500 0.142894 0.500000
v -0.082500 0.142894 0.050000
v -0.082500 0.142894 0.000000
v -0.000000 0.165000 0.500000
v -0.000000 0.165000 0.050000
v -0.000000 0.165000 0.000000
v 0.082500 0.142894 0.500000
v 0.082500 0.142894 0.050000
v 0.082500 0.142894 0.000000
v 0.142894 0.082500 0.500000
v 0.142894 0.082500 0.050000
v 0.142894 0.082500 0.000000
v 0.165000 0.000000 0.500000
v 0.165000 0.000000 0.050000
v 0.165000 0.000000 0.000000
v 0.142894 -0.082500 0.500000
v 0.142894 -0.082500 0.050000
v 0.142894 -0.082500 0.000000
v 0.082500 -0.142894 0.500000
v 0.082500 -0.142894 0.050000
v 0.082500 -0.142894 0.000000
v 0.000000 -0.165000 0.500000
v 0.000000 -0.165000 0.050000
v 0.000000 -0.165000 0.000000
v -0.082500 -0.142894 0.500000
v -0.082500 -0.142894 0.050000
v -0.082500 -0.142894 0.000000
v -0.142894 -0.082500 0.500000
v -0.142894 -0.082500 0.050000
v -0.142894 -0.082500 0.000000
v -0.142894 0.082500 0.450000
v -0.165000 -0.000000 0.450000
v -0.082500 0.142894 0.450000
v -0.000000 0.165000 0.450000
v 0.082500 0.142894 0.450000
v 0.142894 0.082500 0.450000
v 0.165000 0.000000 0.450000
v 0.142894 -0.082500 0.450000
v 0.082500 -0.142894 0.450000
v 0.000000 -0.165000 0.450000
v -0.082500 -0.142894 0.450000
v -0.142894 -0.082500 0.450000
v -0.026419 0.119916 0.300467
v -0.026419 0.119916 0.199533
v 0.026419 0.119916 0.300467
v 0.026418 0.119916 0.199533
v -0.108253 0.062500 0.250000
v -0.125000 -0.000000 0.250000
v 0.108253 0.062500 0.250000
v 0.125000 0.000000 0.250000
v 0.108253 -0.062500 0.250000
v 0.062500 -0.108253 0.250000
v 0.000000 -0.125000 0.250000
v -0.062500 -0.108253 0.250000
v -0.108253 -0.062500 0.250000
v 0.062500 0.108253 0.050000
v -0.000000 0.125000 0.050000
v -0.062500 0.108253 0.050000
v -0.000000 0.125000 0.450000
v -0.062500 0.108253 0.450000
v 0.062500 0.108253 0.450000
v -0.035816 0.119930 0.250000
v 0.035816 0.119930 0.250000
v 0.026868 0.242105 0.250000
v -0.000000 0.242122 0.250000
v -0.026868 0.242105 0.250000
v -0.000000 0.242123 0.213309
v -0.000000 0.242124 0.286691
v 0.026343 0.242094 0.213408
v -0.026344 0.242094 0.213408
v -0.026344 0.242094 0.286592
v 0.026343 0.242094 0.286592
v -0.100000 0.050000 0.336603
v -0.100000 0.086603 0.300000
v -0.100000 0.100000 0.250000
v -0.100000 0.086603 0.200000
v -0.100000 0.050000 0.163398
v -0.100000 0.000000 0.150000
v -0.100000 -0.050000 0.163398
v -0.100000 -0.086603 0.200000
v -0.100000 -0.100000 0.250000
v -0.100000 -0.086603 0.300000
v -0.100000 -0.050000 0.336602
v -0.100000 -0.000000 0.350000
v -0.150000 0.050000 0.336603
v -0.150000 -0.000000 0.350000
v -0.150000 0.086603 0.300000
v -0.150000 0.100000 0.250000
v -0.150000 0.086603 0.200000
v -0.150000 0.050000 0.163398
v -0.150000 0.000000 0.150000
v -0.150000 -0.050000 0.163398
v -0.150000 -0.086602 0.200000
v -0.150000 -0.100000 0.250000
v -0.150000 -0.086603 0.300000
v -0.150000 -0.050000 0.336602
vn -0.0000 -0.0000 -1.0000
vn -0.0000 -0.0000 1.0000
vn -0.7071 -0.7071 -0.0000
vn -0.2588 -0.9659 -0.0000
vn 0.2588 -0.9659 -0.0000
vn 0.7071 -0.7071 -0.0000
vn 0.9659 -0.2588 -0.0000
vn 0.9659 0.2588 -0.0000
vn 0.7677 0.6401 -0.0292
vn -0.7677 0.6401 -0.0292
vn -0.9659 0.2588 -0.0000
vn -0.9659 -0.2588 -0.0000
vn -0.7071 0.7071 -0.0000
vn -0.2588 0.9659 -0.0000
vn 0.2588 0.9659 -0.0000
vn 0.7071 0.7071 -0.0000
vn 0.9926 0.0431 0.1131
vn 0.0022 0.1125 -0.9937
vn -0.0022 0.1125 0.9937
vn -0.9926 0.0431 -0.1131
vn -0.7677 0.6401 0.0292
vn 0.7677 0.6401 0.0292
vn 0.1854 0.9827 0.0007
vn -0.1854 0.9827 0.0007
vn -0.1854 0.9827 -0.0007
vn 0.1854 0.9827 -0.0007
vn -0.1837 0.9824 -0.0329
vn 0.1837 0.9824 -0.0329
vn -0.1837 0.9824 0.0329
vn 0.1837 0.9824 0.0329
vn 0.0009 1.0000 -0.0001
vn -0.0009 1.0000 -0.0001
vn -0.0009 1.0000 0.0001
vn 0.0009 1.0000 0.0001
vn 0.9926 0.0431 -0.1131
vn 0.0022 0.1125 0.9937
vn -0.0022 0.1125 -0.9937
vn -0.9926 0.0431 0.1131
vn 1.0000 -0.0000 -0.0000
vn -1.0000 -0.0000 -0.0000
vn -0.0000 -0.9659 -0.2588
vn -0.0000 0.2588 -0.9659
vn -0.0000 0.9659 0.2588
vn -0.0000 -0.9659 0.2588
vn -0.0000 -0.2588 -0.9659
vn -0.0000 0.9659 -0.2588
vn -0.0000 -0.7071 0.7071
vn -0.0000 0.2588 0.9659
vn -0.0000 -0.7071 -0.7071
vn -0.0000 0.7071 -0.7071
vn -0.0000 -0.2588 0.9659
vn -0.0000 0.7071 0.7071
vt 0.649808 0.655206
vt 0.646811 0.726371
vt 0.609577 0.724681
vt 0.614612 0.653559
vt 0.015997 0.446435
vt 0.015997 0.375715
vt 0.055627 0.376086
vt 0.053354 0.444872
vt 0.021056 0.163651
vt 0.028747 0.091234
vt 0.065224 0.093322
vt 0.060264 0.165725
vt 0.143638 0.648144
vt 0.143638 0.715074
vt 0.105148 0.720050
vt 0.104582 0.650552
vt 0.512848 0.845213
vt 0.520711 0.781577
vt 0.556611 0.790314
vt 0.546188 0.867144
vt 0.646541 0.165571
vt 0.650209 0.237150
vt 0.613124 0.237036
vt 0.608998 0.166254
vt 0.143638 0.781400
vt 0.110059 0.790640
vt 0.524965 0.715994
vt 0.562419 0.719832
vt 0.022494 0.725894
vt 0.019181 0.655248
vt 0.056504 0.652970
vt 0.057599 0.723871
vt 0.143638 0.844108
vt 0.120960 0.865795
vt 0.527884 0.648893
vt 0.566029 0.650743
vt 0.640666 0.798466
vt 0.602213 0.796896
vt 0.334540 0.511391
vt 0.529196 0.513636
vt 0.528184 0.581438
vt 0.334352 0.576035
vt 0.334135 0.640168
vt 0.334475 0.703537
vt 0.333771 0.766176
vt 0.334135 0.828203
vt 0.334714 0.057334
vt 0.515339 0.044138
vt 0.521932 0.107208
vt 0.335070 0.119251
vt 0.525469 0.173449
vt 0.335051 0.178111
vt 0.334713 0.321691
vt 0.528717 0.310066
vt 0.528903 0.377763
vt 0.334516 0.381979
vt 0.528414 0.445698
vt 0.334708 0.446593
vt 0.020312 0.236175
vt 0.057763 0.236582
vt 0.143638 0.043480
vt 0.143638 0.107214
vt 0.111515 0.098978
vt 0.121107 0.022207
vt 0.567638 0.582383
vt 0.648983 0.306565
vt 0.613569 0.307184
vt 0.143638 0.173173
vt 0.106650 0.169511
vt 0.565682 0.514265
vt 0.026064 0.797643
vt 0.064261 0.795993
vt 0.653806 0.445382
vt 0.650615 0.514423
vt 0.615008 0.514220
vt 0.614358 0.445753
vt 0.143638 0.241117
vt 0.106068 0.238842
vt 0.567629 0.445711
vt 0.635259 0.863992
vt 0.596910 0.873758
vt 0.017387 0.515415
vt 0.055067 0.514047
vt 0.566544 0.377589
vt 0.614377 0.376776
vt 0.564881 0.308556
vt 0.565993 0.239255
vt 0.561521 0.169742
vt 0.559034 0.098617
vt 0.605260 0.094157
vt 0.550583 0.023276
vt 0.601079 0.016662
vt 0.614306 0.583518
vt 0.103027 0.377230
vt 0.100776 0.445250
vt 0.054979 0.306805
vt 0.103315 0.308288
vt 0.070587 0.015997
vt 0.070167 0.873903
vt 0.054176 0.582960
vt 0.101348 0.581963
vt 0.103677 0.513382
vt 0.143638 0.580700
vt 0.016937 0.585142
vt 0.143638 0.512946
vt 0.642740 0.094682
vt 0.651693 0.375135
vt 0.527032 0.241463
vt 0.143638 0.445103
vt 0.032585 0.026208
vt 0.653582 0.583963
vt 0.019631 0.305812
vt 0.641167 0.027417
vt 0.143638 0.377104
vt 0.031679 0.863779
vt 0.143638 0.309383
vt 0.947751 0.858971
vt 0.911311 0.891874
vt 0.833677 0.804288
vt 0.859716 0.780890
vt 0.719319 0.905365
vt 0.702585 0.886435
vt 0.790563 0.808454
vt 0.807323 0.827329
vt 0.914233 0.665074
vt 0.930966 0.684004
vt 0.842988 0.761985
vt 0.826229 0.743110
vt 0.685801 0.711468
vt 0.722240 0.678565
vt 0.799874 0.766151
vt 0.773836 0.789549
vt 0.384080 0.247793
vt 0.384028 0.221728
vt 0.384167 0.273897
vt 0.285725 0.247683
vt 0.285547 0.273716
vt 0.285926 0.221691
vt 0.334828 0.283555
vt 0.334989 0.214442
vt 0.816776 0.785219
vt 0.874272 0.924101
vt 0.947751 0.702889
vt 0.685801 0.867550
vt 0.759280 0.646338
vt 0.824002 0.257497
vt 0.866874 0.232745
vt 0.916378 0.232745
vt 0.959251 0.257497
vt 0.984003 0.300369
vt 0.984003 0.349874
vt 0.959251 0.392746
vt 0.916378 0.417498
vt 0.866874 0.417498
vt 0.824002 0.392746
vt 0.799250 0.349874
vt 0.799250 0.300369
vt 0.824002 0.040750
vt 0.866874 0.015997
vt 0.916378 0.015997
vt 0.959251 0.040750
vt 0.984003 0.083622
vt 0.984003 0.133126
vt 0.959251 0.175998
vt 0.916379 0.200750
vt 0.866874 0.200750
vt 0.824002 0.175998
vt 0.799250 0.133126
vt 0.799250 0.083622
vt 0.766743 0.265644
vt 0.766743 0.315163
vt 0.718950 0.315163
vt 0.718950 0.265644
vt 0.766743 0.117085
vt 0.766743 0.166605
vt 0.718950 0.166605
vt 0.718950 0.117085
vt 0.766743 0.562761
vt 0.766743 0.612281
vt 0.718950 0.612281
vt 0.718950 0.562761
vt 0.766743 0.364683
vt 0.718950 0.364683
vt 0.766743 0.216124
vt 0.718950 0.216124
vt 0.766743 0.018046
vt 0.766743 0.067566
vt 0.718950 0.067566
vt 0.718950 0.018046
vt 0.766743 0.414202
vt 0.718950 0.414202
vt 0.766743 0.463722
vt 0.766743 0.513242
vt 0.718950 0.513242
vt 0.718950 0.463722
s 0
f 21/1/1 20/2/1 73/3/1 76/4/1
f 12/5/2 1/6/2 47/7/2 48/8/2
f 4/9/2 5/10/2 62/11/2 59/12/2
f 44/13/1 43/14/1 91/15/1 92/16/1
f 31/17/2 32/18/2 69/19/2 66/20/2
f 16/21/1 15/22/1 58/23/1 61/24/1
f 43/14/1 42/25/1 90/26/1 91/15/1
f 32/18/2 33/27/2 72/28/2 69/19/2
f 8/29/2 9/30/2 74/31/2 71/32/2
f 42/25/1 41/33/1 89/34/1 90/26/1
f 33/27/2 34/35/2 75/36/2 72/28/2
f 20/2/1 19/37/1 70/38/1 73/3/1
f 107/39/3 36/40/3 35/41/3 106/42/3
f 106/42/4 35/41/4 34/35/4 105/43/4
f 105/43/5 34/35/5 33/27/5 104/44/5
f 104/44/6 33/27/6 32/18/6 103/45/6
f 103/45/7 32/18/7 31/17/7 102/46/7
f 102/47/8 31/48/8 30/49/8 101/50/8
f 101/50/9 30/49/9 108/51/9 29/52/9
f 27/53/10 110/54/10 25/55/10 99/56/10
f 99/56/11 25/55/11 26/57/11 100/58/11
f 3/59/2 4/9/2 59/12/2 56/60/2
f 41/61/1 40/62/1 88/63/1 89/64/1
f 34/35/2 35/41/2 78/65/2 75/36/2
f 15/22/1 14/66/1 55/67/1 58/23/1
f 40/62/1 113/68/1 87/69/1 88/63/1
f 35/41/2 36/40/2 81/70/2 78/65/2
f 7/71/2 8/29/2 71/32/2 68/72/2
f 24/73/1 23/74/1 82/75/1 51/76/1
f 113/68/1 111/77/1 86/78/1 87/69/1
f 36/40/2 26/57/2 52/79/2 81/70/2
f 19/37/1 18/80/1 67/81/1 70/38/1
f 11/82/2 12/5/2 48/8/2 80/83/2
f 100/58/12 26/57/12 36/40/12 107/39/12
f 49/84/11 50/85/11 51/76/11 52/79/11
f 54/86/13 55/67/13 50/85/13 49/84/13
f 57/87/14 58/23/14 55/67/14 54/86/14
f 60/88/15 61/24/15 58/23/15 57/87/15
f 63/89/16 64/90/16 61/24/16 60/88/16
f 66/91/8 67/92/8 64/90/8 63/89/8
f 69/19/7 70/38/7 67/81/7 66/20/7
f 72/28/6 73/3/6 70/38/6 69/19/6
f 75/36/5 76/4/5 73/3/5 72/28/5
f 78/65/4 79/93/4 76/4/4 75/36/4
f 81/70/3 82/75/3 79/93/3 78/65/3
f 52/79/12 51/76/12 82/75/12 81/70/12
f 47/7/11 83/94/11 84/95/11 48/8/11
f 53/96/13 85/97/13 83/94/13 47/7/13
f 56/60/14 86/78/14 85/97/14 53/96/14
f 59/12/15 87/69/15 86/78/15 56/60/15
f 62/11/16 88/63/16 87/69/16 59/12/16
f 65/98/8 89/64/8 88/63/8 62/11/8
f 68/72/7 90/26/7 89/34/7 65/99/7
f 71/32/6 91/15/6 90/26/6 68/72/6
f 74/31/5 92/16/5 91/15/5 71/32/5
f 77/100/4 93/101/4 92/16/4 74/31/4
f 80/83/3 94/102/3 93/101/3 77/100/3
f 48/8/12 84/95/12 94/102/12 80/83/12
f 30/49/2 31/48/2 66/91/2 63/89/2
f 45/103/1 44/13/1 92/16/1 93/101/1
f 9/30/2 10/104/2 77/100/2 74/31/2
f 108/51/2 30/49/2 63/89/2 60/88/2
f 46/105/1 45/103/1 93/101/1 94/102/1
f 17/106/1 16/21/1 61/24/1 64/90/1
f 13/107/1 24/73/1 51/76/1 50/85/1
f 109/108/2 108/51/2 60/88/2 57/87/2
f 38/109/1 46/105/1 94/102/1 84/95/1
f 5/10/2 6/110/2 65/98/2 62/11/2
f 22/111/1 21/1/1 76/4/1 79/93/1
f 110/54/2 109/108/2 57/87/2 54/86/2
f 1/6/2 2/112/2 53/96/2 47/7/2
f 10/104/2 11/82/2 80/83/2 77/100/2
f 25/55/2 110/54/2 54/86/2 49/84/2
f 18/113/1 17/106/1 64/90/1 67/92/1
f 37/114/1 38/109/1 84/95/1 83/94/1
f 26/57/2 25/55/2 49/84/2 52/79/2
f 6/115/2 7/71/2 68/72/2 65/99/2
f 112/116/1 37/114/1 83/94/1 85/97/1
f 14/66/1 13/107/1 50/85/1 55/67/1
f 23/74/1 22/111/1 79/93/1 82/75/1
f 111/77/1 112/116/1 85/97/1 86/78/1
f 2/112/2 3/59/2 56/60/2 53/96/2
f 97/117/17 115/118/17 116/119/17 124/120/17
f 98/121/18 28/122/18 119/123/18 121/124/18
f 95/125/19 39/126/19 120/127/19 123/128/19
f 96/129/20 114/130/20 118/131/20 122/132/20
f 38/109/12 100/58/12 107/39/12 46/105/12
f 37/114/11 99/56/11 100/58/11 38/109/11
f 112/116/21 27/53/21 99/56/21 37/114/21
f 40/62/22 101/50/22 29/52/22 113/68/22
f 41/61/8 102/47/8 101/50/8 40/62/8
f 42/25/7 103/45/7 102/46/7 41/33/7
f 43/14/6 104/44/6 103/45/6 42/25/6
f 44/13/5 105/43/5 104/44/5 43/14/5
f 45/103/4 106/42/4 105/43/4 44/13/4
f 46/105/3 107/39/3 106/42/3 45/103/3
f 28/133/23 98/134/23 108/51/23 109/108/23
f 96/135/24 28/133/24 109/108/24 110/54/24
f 39/136/25 95/137/25 112/116/25 111/77/25
f 97/138/26 39/136/26 111/77/26 113/68/26
f 114/139/27 96/135/27 110/54/27 27/53/27
f 98/134/28 115/140/28 29/52/28 108/51/28
f 95/137/29 114/139/29 27/53/29 112/116/29
f 115/140/30 97/138/30 113/68/30 29/52/30
f 117/141/31 116/119/31 121/124/31 119/123/31
f 118/131/32 117/141/32 119/123/32 122/132/32
f 117/141/33 118/131/33 123/128/33 120/127/33
f 116/119/34 117/141/34 120/127/34 124/120/34
f 115/118/35 98/142/35 121/124/35 116/119/35
f 39/126/36 97/143/36 124/120/36 120/127/36
f 28/122/37 96/144/37 122/132/37 119/123/37
f 114/130/38 95/145/38 123/128/38 118/131/38
f 136/146/39 135/147/39 134/148/39 133/149/39 132/150/39 131/151/39 130/152/39 129/153/39 128/154/39 127/155/39 126/156/39 125/157/39
f 138/158/40 137/159/40 139/160/40 140/161/40 141/162/40 142/163/40 143/164/40 144/165/40 145/166/40 146/167/40 147/168/40 148/169/40
f 132/170/41 133/171/41 146/172/41 145/173/41
f 129/174/42 130/175/42 143/176/42 142/177/42
f 126/178/43 127/179/43 140/180/43 139/181/43
f 133/171/44 134/182/44 147/183/44 146/172/44
f 130/175/45 131/184/45 144/185/45 143/176/45
f 127/186/46 128/187/46 141/188/46 140/189/46
f 134/182/47 135/190/47 148/191/47 147/183/47
f 136/192/48 125/193/48 137/194/48 138/195/48
f 131/184/49 132/170/49 145/173/49 144/185/49
f 128/187/50 129/174/50 142/177/50 141/188/50
f 135/190/51 136/192/51 138/195/51 148/191/51
f 125/193/52 126/178/52 139/181/52 137/194/52
