# Blender 5.1.2
# www.blender.org
mtllib PipeShapeY.mtl
o PipeShapeY
v 0.108253 0.000000 -0.062500
v 0.062500 0.000000 -0.108253
v 0.000000 0.000000 -0.125000
v -0.062500 0.000000 -0.108253
v -0.108253 0.000000 -0.062500
v -0.125000 0.000000 0.000000
v -0.108253 0.000000 0.062500
v -0.062500 0.000000 0.108253
v -0.000000 0.000000 0.125000
v 0.062500 0.000000 0.108253
v 0.108253 0.000000 0.062500
v 0.125000 0.000000 0.000000
v 0.108253 0.254904 -0.062307
v 0.062500 0.258493 -0.107919
v 0.000000 0.259807 -0.124615
v -0.062500 0.258493 -0.107919
v -0.108253 0.254904 -0.062307
v -0.125000 0.250000 0.000000
v -0.108253 0.245096 0.062307
v -0.062500 0.241507 0.107919
v -0.000000 0.240193 0.124615
v 0.062500 0.241507 0.107920
v 0.108253 0.245096 0.062307
v 0.125000 0.250000 0.000000
v 0.108253 0.346568 -0.047205
v 0.062500 0.360706 -0.090719
v 0.000000 0.365881 -0.106646
v -0.062500 0.360706 -0.090719
v -0.108253 0.346568 -0.047205
v -0.125000 0.327254 0.012236
v -0.108253 0.307941 0.071677
v -0.062500 0.293802 0.115191
v -0.000000 0.288627 0.131118
v 0.062500 0.293802 0.115191
v 0.108253 0.307941 0.071677
v 0.125000 0.327254 0.012236
v 0.108253 0.433683 -0.002818
v 0.062500 0.460576 -0.039833
v 0.000000 0.470419 -0.053381
v -0.062500 0.460576 -0.039833
v -0.108253 0.433683 -0.002818
v -0.125000 0.396946 0.047746
v -0.108253 0.360210 0.098309
v -0.062500 0.333317 0.135324
v -0.000000 0.323473 0.148873
v 0.062500 0.333317 0.135324
v 0.108253 0.360210 0.098309
v 0.125000 0.396946 0.047746
v 0.108253 0.502818 0.066317
v 0.062500 0.539833 0.039424
v 0.000000 0.553381 0.029580
v -0.062500 0.539833 0.039424
v -0.108253 0.502818 0.066317
v -0.125000 0.452254 0.103054
v -0.108253 0.401691 0.139790
v -0.062500 0.364676 0.166683
v -0.000000 0.351127 0.176527
v 0.062500 0.364676 0.166683
v 0.108253 0.401691 0.139790
v 0.125000 0.452254 0.103054
v 0.108253 0.547205 0.153432
v 0.062500 0.590719 0.139294
v 0.000000 0.606646 0.134119
v -0.062500 0.590719 0.139294
v -0.108253 0.547205 0.153432
v -0.125000 0.487764 0.172746
v -0.108253 0.428323 0.192059
v -0.062500 0.384809 0.206198
v -0.000000 0.368882 0.211373
v 0.062500 0.384809 0.206198
v 0.108253 0.428323 0.192059
v 0.125000 0.487764 0.172746
v 0.108253 0.561731 0.240223
v 0.062500 0.606920 0.233065
v 0.000000 0.623461 0.230446
v -0.062500 0.606920 0.233065
v -0.108253 0.561731 0.240223
v -0.125000 0.500000 0.250000
v -0.108253 0.438270 0.259777
v -0.062500 0.393080 0.266935
v -0.000000 0.376539 0.269554
v 0.062500 0.393080 0.266935
v 0.108253 0.438269 0.259777
v 0.125000 0.500000 0.250000
v 0.108253 0.571677 0.307941
v 0.062500 0.615191 0.293802
v 0.000000 0.631118 0.288627
v -0.062500 0.615191 0.293802
v -0.108253 0.571677 0.307941
v -0.125000 0.512236 0.327254
v -0.108253 0.452795 0.346568
v -0.062500 0.409281 0.360706
v -0.000000 0.393354 0.365881
v 0.062500 0.409281 0.360706
v 0.108253 0.452795 0.346568
v 0.125000 0.512236 0.327254
v 0.108253 0.598309 0.360210
v 0.062500 0.635324 0.333317
v 0.000000 0.648873 0.323473
v -0.062500 0.635324 0.333317
v -0.108253 0.598309 0.360210
v -0.125000 0.547746 0.396946
v -0.108253 0.497182 0.433683
v -0.062500 0.460167 0.460576
v -0.000000 0.446619 0.470419
v 0.062500 0.460167 0.460576
v 0.108253 0.497182 0.433683
v 0.125000 0.547746 0.396946
v 0.108253 0.639790 0.401691
v 0.062500 0.666683 0.364676
v 0.000000 0.676527 0.351127
v -0.062500 0.666683 0.364676
v -0.108253 0.639790 0.401691
v -0.125000 0.603054 0.452254
v -0.108253 0.566317 0.502818
v -0.062500 0.539424 0.539833
v -0.000000 0.529580 0.553381
v 0.062500 0.539424 0.539833
v 0.108253 0.566317 0.502818
v 0.125000 0.603054 0.452254
v 0.108253 0.692059 0.428323
v 0.062500 0.706198 0.384809
v 0.000000 0.711373 0.368882
v -0.062500 0.706198 0.384809
v -0.108253 0.692059 0.428323
v -0.125000 0.672746 0.487764
v -0.108253 0.653432 0.547205
v -0.062500 0.639294 0.590719
v -0.000000 0.634119 0.606646
v 0.062500 0.639294 0.590719
v 0.108253 0.653432 0.547205
v 0.125000 0.672746 0.487764
v 0.108253 0.754904 0.437693
v 0.062500 0.758493 0.392081
v 0.000000 0.759807 0.375385
v -0.062500 0.758493 0.392081
v -0.108253 0.754904 0.437693
v -0.125000 0.750000 0.500000
v -0.108253 0.745096 0.562307
v -0.062500 0.741507 0.607919
v -0.000000 0.740193 0.624615
v 0.062500 0.741507 0.607919
v 0.108253 0.745096 0.562307
v 0.125000 0.750000 0.500000
v 0.108253 1.000000 0.437500
v 0.062500 1.000000 0.391747
v 0.000000 1.000000 0.375000
v -0.062500 1.000000 0.391747
v -0.108253 1.000000 0.437500
v -0.125000 1.000000 0.500000
v -0.108253 1.000000 0.562500
v -0.062500 1.000000 0.608253
v -0.000000 1.000000 0.625000
v 0.062500 1.000000 0.608253
v 0.108253 1.000000 0.562500
v 0.125000 1.000000 0.500000
v 0.108253 0.000000 -0.062500
v 0.062500 0.000000 -0.108253
v 0.000000 0.000000 -0.125000
v -0.062500 0.000000 -0.108253
v -0.108253 0.000000 -0.062500
v -0.125000 0.000000 0.000000
v -0.108253 0.000000 0.062500
v -0.062500 0.000000 0.108253
v -0.000000 0.000000 0.125000
v 0.062500 0.000000 0.108253
v 0.108253 0.000000 0.062500
v 0.125000 0.000000 0.000000
v 0.108253 1.000000 -0.062500
v 0.062500 1.000000 -0.108253
v 0.000000 1.000000 -0.125000
v -0.062500 1.000000 -0.108253
v -0.108253 1.000000 -0.062500
v -0.125000 1.000000 0.000000
v -0.108253 1.000000 0.062500
v -0.062500 1.000000 0.108253
v -0.000000 1.000000 0.125000
v 0.062500 1.000000 0.108253
v 0.108253 1.000000 0.062500
v 0.125000 1.000000 0.000000
v 0.108253 0.050000 -0.062500
v 0.125000 0.050000 0.000000
v 0.062500 0.050000 -0.108253
v 0.000000 0.050000 -0.125000
v -0.062500 0.050000 -0.108253
v -0.108253 0.050000 -0.062500
v -0.125000 0.050000 0.000000
v -0.108253 0.050000 0.062500
v -0.062500 0.050000 0.108253
v -0.000000 0.050000 0.125000
v 0.062500 0.050000 0.108253
v 0.108253 0.050000 0.062500
v 0.108253 0.952500 -0.062500
v 0.125000 0.952500 0.000000
v 0.062500 0.952500 -0.108253
v 0.000000 0.952500 -0.125000
v -0.062500 0.952500 -0.108253
v -0.108253 0.952500 -0.062500
v -0.125000 0.952500 0.000000
v -0.108253 0.952500 0.062500
v -0.062500 0.952500 0.108253
v -0.000000 0.952500 0.125000
v 0.062500 0.952500 0.108253
v 0.108253 0.952500 0.062500
v 0.108253 0.950981 0.437539
v 0.125000 0.950000 0.500000
v 0.062500 0.951699 0.391814
v 0.000000 0.951962 0.375077
v -0.062500 0.951699 0.391814
v -0.108253 0.950981 0.437538
v -0.125000 0.950000 0.500000
v -0.108253 0.949019 0.562461
v -0.062500 0.948301 0.608186
v -0.000000 0.948038 0.624923
v 0.062500 0.948301 0.608186
v 0.108253 0.949019 0.562462
v 0.119092 0.950975 0.431313
v 0.119077 0.999994 0.431247
v 0.137500 0.999999 0.500000
v 0.137500 0.949999 0.500032
v 0.068764 0.951684 0.380996
v 0.068748 0.999986 0.380920
v 0.000000 0.951943 0.362577
v 0.000000 0.999981 0.362500
v -0.068764 0.951684 0.380996
v -0.068747 0.999986 0.380920
v -0.119092 0.950975 0.431313
v -0.119077 0.999994 0.431247
v -0.137500 0.949999 0.500032
v -0.137500 0.999999 0.500000
v -0.119064 0.949014 0.568736
v -0.119077 0.999995 0.568752
v -0.068736 0.948288 0.619020
v -0.068748 0.999987 0.619080
v -0.000000 0.948021 0.637423
v -0.000000 0.999983 0.637500
v 0.068736 0.948288 0.619020
v 0.068748 0.999987 0.619080
v 0.119064 0.949014 0.568736
v 0.119077 0.999995 0.568753
v 0.119079 0.000000 -0.068750
v 0.137500 0.000000 0.000000
v 0.119079 0.952500 -0.068750
v 0.119079 1.000000 -0.068750
v 0.137500 1.000000 0.000000
v 0.137500 0.952500 0.000000
v 0.068750 0.000000 -0.119078
v 0.068750 0.952500 -0.119078
v 0.068750 1.000000 -0.119078
v 0.000000 0.000000 -0.137500
v 0.000000 0.952500 -0.137500
v 0.000000 1.000000 -0.137500
v -0.068750 0.000000 -0.119079
v -0.068750 0.952500 -0.119079
v -0.068750 1.000000 -0.119079
v -0.119078 0.000000 -0.068750
v -0.119078 0.952500 -0.068750
v -0.119078 1.000000 -0.068750
v -0.137500 0.000000 0.000000
v -0.137500 0.952500 0.000000
v -0.137500 1.000000 0.000000
v -0.119079 0.000000 0.068750
v -0.119079 0.952500 0.068750
v -0.119079 1.000000 0.068750
v -0.068750 0.000000 0.119078
v -0.068750 0.952500 0.119078
v -0.068750 1.000000 0.119078
v -0.000000 0.000000 0.137500
v -0.000000 0.952500 0.137500
v -0.000000 1.000000 0.137500
v 0.068750 0.000000 0.119079
v 0.068750 0.952500 0.119079
v 0.068750 1.000000 0.119079
v 0.119078 0.000000 0.068750
v 0.119078 0.952500 0.068750
v 0.119078 1.000000 0.068750
v 0.119079 0.050000 -0.068750
v 0.137500 0.050000 0.000000
v 0.068750 0.050000 -0.119078
v 0.000000 0.050000 -0.137500
v -0.068750 0.050000 -0.119079
v -0.119078 0.050000 -0.068750
v -0.137500 0.050000 0.000000
v -0.119079 0.050000 0.068750
v -0.068750 0.050000 0.119078
v -0.000000 0.050000 0.137500
v 0.068750 0.050000 0.119079
v 0.119078 0.050000 0.068750
vn 0.9658 0.0001 -0.2592
vn 0.7066 0.0007 -0.7076
vn 0.2585 0.0013 -0.9660
vn -0.2585 0.0013 -0.9660
vn -0.7066 0.0007 -0.7076
vn -0.9658 0.0001 -0.2592
vn -0.9658 0.0001 0.2592
vn -0.7065 0.0008 0.7077
vn -0.2584 0.0014 0.9660
vn 0.2584 0.0014 0.9660
vn 0.7065 0.0008 0.7077
vn 0.9658 0.0001 0.2592
vn 0.9654 0.0416 -0.2573
vn 0.7045 0.1166 -0.7001
vn 0.2570 0.1609 -0.9529
vn -0.2570 0.1609 -0.9529
vn -0.7045 0.1166 -0.7001
vn -0.9654 0.0416 -0.2573
vn -0.9654 -0.0397 0.2577
vn -0.7041 -0.1016 0.7028
vn -0.2567 -0.1309 0.9576
vn 0.2567 -0.1309 0.9576
vn 0.7041 -0.1016 0.7028
vn 0.9654 -0.0397 0.2577
vn 0.9651 0.1189 -0.2333
vn 0.7027 0.3230 -0.6339
vn 0.2558 0.4389 -0.8614
vn -0.2558 0.4389 -0.8614
vn -0.7027 0.3230 -0.6339
vn -0.9651 0.1189 -0.2333
vn -0.9651 -0.1189 0.2333
vn -0.7027 -0.3230 0.6339
vn -0.2558 -0.4389 0.8614
vn 0.2558 -0.4389 0.8614
vn 0.7027 -0.3230 0.6339
vn 0.9651 -0.1189 0.2333
vn 0.9651 0.1851 -0.1851
vn 0.7027 0.5031 -0.5031
vn 0.2558 0.6836 -0.6836
vn -0.2558 0.6836 -0.6836
vn -0.7027 0.5031 -0.5031
vn -0.9651 0.1851 -0.1851
vn -0.9651 -0.1851 0.1851
vn -0.7027 -0.5031 0.5031
vn -0.2558 -0.6836 0.6836
vn 0.2558 -0.6836 0.6836
vn 0.7027 -0.5031 0.5031
vn 0.9651 -0.1851 0.1851
vn 0.9651 0.2333 -0.1189
vn 0.7027 0.6339 -0.3230
vn 0.2558 0.8614 -0.4389
vn -0.2558 0.8614 -0.4389
vn -0.7027 0.6339 -0.3230
vn -0.9651 0.2333 -0.1189
vn -0.9651 -0.2333 0.1189
vn -0.7027 -0.6339 0.3230
vn -0.2558 -0.8614 0.4389
vn 0.2558 -0.8614 0.4389
vn 0.7027 -0.6339 0.3230
vn 0.9651 -0.2333 0.1189
vn 0.9655 0.2568 -0.0419
vn 0.7052 0.6989 -0.1189
vn 0.2576 0.9520 -0.1653
vn -0.2576 0.9520 -0.1653
vn -0.7052 0.6989 -0.1189
vn -0.9655 0.2568 -0.0419
vn -0.9655 -0.2574 0.0394
vn -0.7044 -0.7027 0.0997
vn -0.2568 -0.9579 0.1283
vn 0.2568 -0.9579 0.1283
vn 0.7044 -0.7028 0.0997
vn 0.9655 -0.2574 0.0394
vn 0.9655 0.2574 -0.0394
vn 0.7044 0.7028 -0.0997
vn 0.2568 0.9579 -0.1283
vn -0.2568 0.9579 -0.1283
vn -0.7044 0.7028 -0.0997
vn -0.9655 0.2574 -0.0394
vn -0.9655 -0.2568 0.0419
vn -0.7052 -0.6989 0.1189
vn -0.2576 -0.9520 0.1653
vn 0.2576 -0.9520 0.1653
vn 0.7052 -0.6989 0.1189
vn 0.9655 -0.2568 0.0419
vn 0.9654 0.0397 -0.2577
vn 0.7041 0.1016 -0.7028
vn 0.2567 0.1309 -0.9576
vn -0.2567 0.1309 -0.9576
vn -0.7041 0.1016 -0.7028
vn -0.9654 0.0397 -0.2577
vn -0.9654 -0.0416 0.2573
vn -0.7045 -0.1166 0.7001
vn -0.2570 -0.1609 0.9529
vn 0.2570 -0.1609 0.9529
vn 0.7045 -0.1166 0.7001
vn 0.9654 -0.0416 0.2573
vn -0.0000 -1.0000 -0.0000
vn -0.0000 1.0000 -0.0000
vn 0.0005 1.0000 -0.0006
vn 0.0003 1.0000 -0.0001
vn -0.0040 -0.9999 -0.0139
vn -0.0080 -0.9999 -0.0069
vn -0.0041 -1.0000 0.0003
vn 0.0041 -1.0000 0.0003
vn 0.0003 1.0000 0.0001
vn 0.0080 -0.9999 -0.0069
vn 0.0005 1.0000 0.0006
vn 0.9659 -0.0000 0.2588
vn 0.7071 -0.0000 0.7071
vn 0.2588 -0.0000 0.9659
vn -0.2588 -0.0000 0.9659
vn -0.7071 -0.0000 0.7071
vn -0.9659 -0.0000 0.2588
vn -0.9659 -0.0000 -0.2588
vn -0.7071 -0.0000 -0.7071
vn -0.2588 -0.0000 -0.9659
vn 0.2588 -0.0000 -0.9659
vn 0.7071 -0.0000 -0.7071
vn 0.9659 -0.0000 -0.2588
vn 0.9658 -0.0001 0.2593
vn 0.7065 -0.0007 0.7077
vn 0.2584 -0.0013 0.9660
vn -0.2584 -0.0013 0.9660
vn -0.7065 -0.0007 0.7077
vn -0.9658 -0.0001 0.2593
vn -0.9658 -0.0001 -0.2593
vn -0.7064 -0.0008 -0.7078
vn -0.2584 -0.0014 -0.9660
vn 0.2584 -0.0014 -0.9660
vn 0.7064 -0.0008 -0.7078
vn 0.9658 -0.0001 -0.2593
vn 0.9659 -0.0001 -0.2588
vn 0.7071 -0.0008 -0.7072
vn 0.2588 -0.0015 -0.9659
vn -0.2588 -0.0015 -0.9659
vn -0.7071 -0.0008 -0.7072
vn -0.9659 -0.0001 -0.2588
vn -0.9659 -0.0001 0.2590
vn -0.7069 -0.0007 0.7073
vn -0.2587 -0.0013 0.9660
vn 0.2587 -0.0013 0.9660
vn 0.7069 -0.0007 0.7073
vn 0.9659 -0.0001 0.2590
vn 0.0003 1.0000 -0.0013
vn -0.0003 1.0000 -0.0013
vn -0.0005 1.0000 -0.0006
vn -0.0003 1.0000 -0.0001
vn -0.0003 1.0000 0.0001
vn 0.0035 -0.9999 -0.0140
vn -0.0005 1.0000 0.0006
vn 0.0070 -0.9999 -0.0081
vn 0.0034 -1.0000 -0.0022
vn -0.0003 1.0000 0.0012
vn -0.0034 -1.0000 -0.0022
vn -0.0070 -0.9999 -0.0081
vn 0.0003 1.0000 0.0012
vn -0.0035 -0.9999 -0.0140
vn 0.0040 -0.9999 -0.0139
vt 0.444745 0.796937
vt 0.444745 0.646738
vt 0.484124 0.646738
vt 0.484124 0.796937
vt 0.405366 0.796937
vt 0.405366 0.646738
vt 0.365986 0.796937
vt 0.365986 0.646738
vt 0.326605 0.796937
vt 0.326605 0.646738
vt 0.287226 0.796937
vt 0.287226 0.646738
vt 0.247848 0.796937
vt 0.247848 0.646738
vt 0.208470 0.796937
vt 0.208470 0.646738
vt 0.169092 0.796937
vt 0.169092 0.646738
vt 0.129712 0.796937
vt 0.129712 0.646738
vt 0.090333 0.796937
vt 0.090333 0.646738
vt 0.050955 0.796937
vt 0.050955 0.646738
vt 0.011577 0.796937
vt 0.011577 0.646738
vt 0.444745 0.599742
vt 0.484124 0.599742
vt 0.405366 0.599742
vt 0.365986 0.599742
vt 0.326605 0.599742
vt 0.287226 0.599742
vt 0.247848 0.599742
vt 0.208470 0.599742
vt 0.169092 0.599742
vt 0.129712 0.599742
vt 0.090333 0.599742
vt 0.050955 0.599742
vt 0.011577 0.599742
vt 0.444745 0.552750
vt 0.484124 0.552750
vt 0.405366 0.552750
vt 0.365986 0.552750
vt 0.326605 0.552750
vt 0.287226 0.552750
vt 0.247848 0.552750
vt 0.208470 0.552750
vt 0.169092 0.552750
vt 0.129712 0.552750
vt 0.090333 0.552750
vt 0.050955 0.552750
vt 0.011577 0.552750
vt 0.444745 0.505757
vt 0.484124 0.505757
vt 0.405366 0.505757
vt 0.365986 0.505757
vt 0.326605 0.505757
vt 0.287226 0.505757
vt 0.247848 0.505757
vt 0.208470 0.505757
vt 0.169092 0.505757
vt 0.129712 0.505757
vt 0.090333 0.505757
vt 0.050955 0.505757
vt 0.011577 0.505757
vt 0.444745 0.458764
vt 0.484124 0.458764
vt 0.405366 0.458764
vt 0.365986 0.458764
vt 0.326605 0.458764
vt 0.287226 0.458764
vt 0.247848 0.458764
vt 0.208470 0.458764
vt 0.169092 0.458764
vt 0.129712 0.458764
vt 0.090333 0.458764
vt 0.050955 0.458764
vt 0.011577 0.458764
vt 0.444745 0.411767
vt 0.484124 0.411767
vt 0.405366 0.411767
vt 0.365986 0.411767
vt 0.326605 0.411767
vt 0.287226 0.411767
vt 0.247848 0.411767
vt 0.208470 0.411767
vt 0.169092 0.411767
vt 0.129712 0.411767
vt 0.090333 0.411767
vt 0.050955 0.411767
vt 0.011577 0.411767
vt 0.444745 0.364770
vt 0.484124 0.364769
vt 0.405366 0.364770
vt 0.365986 0.364770
vt 0.326605 0.364770
vt 0.287226 0.364770
vt 0.247848 0.364770
vt 0.208470 0.364770
vt 0.169092 0.364770
vt 0.129712 0.364769
vt 0.090333 0.364769
vt 0.050955 0.364770
vt 0.011577 0.364769
vt 0.444745 0.317777
vt 0.484124 0.317777
vt 0.405366 0.317777
vt 0.365986 0.317777
vt 0.326605 0.317777
vt 0.287226 0.317777
vt 0.247848 0.317777
vt 0.208470 0.317777
vt 0.169092 0.317777
vt 0.129712 0.317777
vt 0.090333 0.317777
vt 0.050955 0.317777
vt 0.011577 0.317777
vt 0.444745 0.270784
vt 0.484124 0.270784
vt 0.405366 0.270784
vt 0.365986 0.270784
vt 0.326605 0.270784
vt 0.287226 0.270784
vt 0.247848 0.270784
vt 0.208470 0.270784
vt 0.169092 0.270784
vt 0.129712 0.270784
vt 0.090333 0.270784
vt 0.050955 0.270784
vt 0.011577 0.270784
vt 0.444745 0.223792
vt 0.484124 0.223792
vt 0.405366 0.223792
vt 0.365986 0.223792
vt 0.326605 0.223792
vt 0.287226 0.223792
vt 0.247848 0.223792
vt 0.208470 0.223792
vt 0.169092 0.223792
vt 0.129712 0.223792
vt 0.090333 0.223792
vt 0.050955 0.223792
vt 0.011577 0.223792
vt 0.444745 0.176796
vt 0.484124 0.176796
vt 0.405366 0.176796
vt 0.365986 0.176796
vt 0.326605 0.176796
vt 0.287226 0.176796
vt 0.247848 0.176796
vt 0.208470 0.176796
vt 0.169092 0.176796
vt 0.129712 0.176796
vt 0.090333 0.176796
vt 0.050955 0.176796
vt 0.011577 0.176796
vt 0.587468 0.011577
vt 0.627564 0.011577
vt 0.627564 0.019020
vt 0.587468 0.019020
vt 0.948328 0.636836
vt 0.908232 0.636836
vt 0.908232 0.629393
vt 0.948328 0.629393
vt 0.547373 0.056238
vt 0.507277 0.056238
vt 0.507277 0.048795
vt 0.547373 0.048795
vt 0.405366 0.011577
vt 0.444745 0.011577
vt 0.444745 0.019087
vt 0.405366 0.019087
vt 0.587468 0.636836
vt 0.547373 0.636836
vt 0.547373 0.629393
vt 0.587468 0.629393
vt 0.587468 0.056238
vt 0.587468 0.048795
vt 0.908232 0.011577
vt 0.948328 0.011577
vt 0.948328 0.019020
vt 0.908232 0.019020
vt 0.627564 0.056238
vt 0.627564 0.048795
vt 0.507277 0.593663
vt 0.547373 0.593663
vt 0.547373 0.601107
vt 0.507277 0.601107
vt 0.547373 0.011577
vt 0.547373 0.019020
vt 0.868137 0.636836
vt 0.868137 0.629393
vt 0.667659 0.056238
vt 0.667659 0.048795
vt 0.587468 0.593663
vt 0.587468 0.601107
vt 0.484124 0.011577
vt 0.484124 0.019087
vt 0.707755 0.056238
vt 0.707755 0.048795
vt 0.627564 0.593663
vt 0.627564 0.601107
vt 0.484124 0.056637
vt 0.444745 0.056637
vt 0.444745 0.049127
vt 0.484124 0.049127
vt 0.507277 0.636836
vt 0.507277 0.629393
vt 0.868137 0.011577
vt 0.868137 0.019020
vt 0.747850 0.056238
vt 0.747850 0.048795
vt 0.667659 0.593663
vt 0.667659 0.601107
vt 0.405366 0.056637
vt 0.405366 0.049127
vt 0.828041 0.636836
vt 0.828041 0.629393
vt 0.787946 0.056238
vt 0.787946 0.048795
vt 0.707755 0.593663
vt 0.707755 0.601107
vt 0.365986 0.056637
vt 0.365986 0.049127
vt 0.507277 0.011577
vt 0.507277 0.019020
vt 0.828041 0.056238
vt 0.828041 0.048795
vt 0.747850 0.593663
vt 0.747850 0.601107
vt 0.326605 0.056637
vt 0.326605 0.049127
vt 0.011577 0.011577
vt 0.050955 0.011577
vt 0.050955 0.019087
vt 0.011577 0.019087
vt 0.828041 0.011577
vt 0.828041 0.019020
vt 0.868137 0.056238
vt 0.868137 0.048795
vt 0.787946 0.593663
vt 0.787946 0.601107
vt 0.287226 0.056637
vt 0.287226 0.049127
vt 0.090333 0.011577
vt 0.090333 0.019087
vt 0.988423 0.056238
vt 0.988423 0.593663
vt 0.948328 0.593663
vt 0.948328 0.056238
vt 0.908232 0.593663
vt 0.908232 0.056238
vt 0.868137 0.593663
vt 0.828041 0.593663
vt 0.011577 0.056637
vt 0.050955 0.056637
vt 0.090333 0.056637
vt 0.129712 0.056637
vt 0.169092 0.056637
vt 0.208470 0.056637
vt 0.247848 0.056637
vt 0.365986 0.019087
vt 0.326605 0.019087
vt 0.287226 0.019087
vt 0.247848 0.049127
vt 0.247848 0.019087
vt 0.208470 0.049127
vt 0.208470 0.019087
vt 0.169092 0.049127
vt 0.169092 0.019087
vt 0.129712 0.049127
vt 0.129712 0.019087
vt 0.090333 0.049127
vt 0.050955 0.049127
vt 0.011577 0.049127
vt 0.627564 0.629393
vt 0.667659 0.629393
vt 0.707755 0.629393
vt 0.747850 0.629393
vt 0.787946 0.629393
vt 0.828041 0.601107
vt 0.868137 0.601107
vt 0.908232 0.601107
vt 0.948328 0.601107
vt 0.988423 0.601107
vt 0.988423 0.629393
vt 0.988423 0.019020
vt 0.988423 0.048795
vt 0.948328 0.048795
vt 0.908232 0.048795
vt 0.787946 0.019020
vt 0.747850 0.019020
vt 0.707755 0.019020
vt 0.667659 0.019020
vt 0.988423 0.011577
vt 0.365986 0.011577
vt 0.988423 0.636836
vt 0.627564 0.636836
vt 0.667659 0.011577
vt 0.326605 0.011577
vt 0.667659 0.636836
vt 0.287226 0.011577
vt 0.707755 0.011577
vt 0.247848 0.011577
vt 0.707755 0.636836
vt 0.747850 0.011577
vt 0.208470 0.011577
vt 0.747850 0.636836
vt 0.169092 0.011577
vt 0.787946 0.011577
vt 0.129712 0.011577
vt 0.787946 0.636836
s 0
f 1/1/1 13/2/1 24/3/1 12/4/1
f 2/5/2 14/6/2 13/2/2 1/1/2
f 3/7/3 15/8/3 14/6/3 2/5/3
f 4/9/4 16/10/4 15/8/4 3/7/4
f 5/11/5 17/12/5 16/10/5 4/9/5
f 6/13/6 18/14/6 17/12/6 5/11/6
f 7/15/7 19/16/7 18/14/7 6/13/7
f 8/17/8 20/18/8 19/16/8 7/15/8
f 9/19/9 21/20/9 20/18/9 8/17/9
f 10/21/10 22/22/10 21/20/10 9/19/10
f 11/23/11 23/24/11 22/22/11 10/21/11
f 12/25/12 24/26/12 23/24/12 11/23/12
f 13/2/13 25/27/13 36/28/13 24/3/13
f 14/6/14 26/29/14 25/27/14 13/2/14
f 15/8/15 27/30/15 26/29/15 14/6/15
f 16/10/16 28/31/16 27/30/16 15/8/16
f 17/12/17 29/32/17 28/31/17 16/10/17
f 18/14/18 30/33/18 29/32/18 17/12/18
f 19/16/19 31/34/19 30/33/19 18/14/19
f 20/18/20 32/35/20 31/34/20 19/16/20
f 21/20/21 33/36/21 32/35/21 20/18/21
f 22/22/22 34/37/22 33/36/22 21/20/22
f 23/24/23 35/38/23 34/37/23 22/22/23
f 24/26/24 36/39/24 35/38/24 23/24/24
f 25/27/25 37/40/25 48/41/25 36/28/25
f 26/29/26 38/42/26 37/40/26 25/27/26
f 27/30/27 39/43/27 38/42/27 26/29/27
f 28/31/28 40/44/28 39/43/28 27/30/28
f 29/32/29 41/45/29 40/44/29 28/31/29
f 30/33/30 42/46/30 41/45/30 29/32/30
f 31/34/31 43/47/31 42/46/31 30/33/31
f 32/35/32 44/48/32 43/47/32 31/34/32
f 33/36/33 45/49/33 44/48/33 32/35/33
f 34/37/34 46/50/34 45/49/34 33/36/34
f 35/38/35 47/51/35 46/50/35 34/37/35
f 36/39/36 48/52/36 47/51/36 35/38/36
f 37/40/37 49/53/37 60/54/37 48/41/37
f 38/42/38 50/55/38 49/53/38 37/40/38
f 39/43/39 51/56/39 50/55/39 38/42/39
f 40/44/40 52/57/40 51/56/40 39/43/40
f 41/45/41 53/58/41 52/57/41 40/44/41
f 42/46/42 54/59/42 53/58/42 41/45/42
f 43/47/43 55/60/43 54/59/43 42/46/43
f 44/48/44 56/61/44 55/60/44 43/47/44
f 45/49/45 57/62/45 56/61/45 44/48/45
f 46/50/46 58/63/46 57/62/46 45/49/46
f 47/51/47 59/64/47 58/63/47 46/50/47
f 48/52/48 60/65/48 59/64/48 47/51/48
f 49/53/49 61/66/49 72/67/49 60/54/49
f 50/55/50 62/68/50 61/66/50 49/53/50
f 51/56/51 63/69/51 62/68/51 50/55/51
f 52/57/52 64/70/52 63/69/52 51/56/52
f 53/58/53 65/71/53 64/70/53 52/57/53
f 54/59/54 66/72/54 65/71/54 53/58/54
f 55/60/55 67/73/55 66/72/55 54/59/55
f 56/61/56 68/74/56 67/73/56 55/60/56
f 57/62/57 69/75/57 68/74/57 56/61/57
f 58/63/58 70/76/58 69/75/58 57/62/58
f 59/64/59 71/77/59 70/76/59 58/63/59
f 60/65/60 72/78/60 71/77/60 59/64/60
f 61/66/61 73/79/61 84/80/61 72/67/61
f 62/68/62 74/81/62 73/79/62 61/66/62
f 63/69/63 75/82/63 74/81/63 62/68/63
f 64/70/64 76/83/64 75/82/64 63/69/64
f 65/71/65 77/84/65 76/83/65 64/70/65
f 66/72/66 78/85/66 77/84/66 65/71/66
f 67/73/67 79/86/67 78/85/67 66/72/67
f 68/74/68 80/87/68 79/86/68 67/73/68
f 69/75/69 81/88/69 80/87/69 68/74/69
f 70/76/70 82/89/70 81/88/70 69/75/70
f 71/77/71 83/90/71 82/89/71 70/76/71
f 72/78/72 84/91/72 83/90/72 71/77/72
f 73/79/73 85/92/73 96/93/73 84/80/73
f 74/81/74 86/94/74 85/92/74 73/79/74
f 75/82/75 87/95/75 86/94/75 74/81/75
f 76/83/76 88/96/76 87/95/76 75/82/76
f 77/84/77 89/97/77 88/96/77 76/83/77
f 78/85/78 90/98/78 89/97/78 77/84/78
f 79/86/79 91/99/79 90/98/79 78/85/79
f 80/87/80 92/100/80 91/99/80 79/86/80
f 81/88/81 93/101/81 92/100/81 80/87/81
f 82/89/82 94/102/82 93/101/82 81/88/82
f 83/90/83 95/103/83 94/102/83 82/89/83
f 84/91/84 96/104/84 95/103/84 83/90/84
f 85/92/49 97/105/49 108/106/49 96/93/49
f 86/94/50 98/107/50 97/105/50 85/92/50
f 87/95/51 99/108/51 98/107/51 86/94/51
f 88/96/52 100/109/52 99/108/52 87/95/52
f 89/97/53 101/110/53 100/109/53 88/96/53
f 90/98/54 102/111/54 101/110/54 89/97/54
f 91/99/55 103/112/55 102/111/55 90/98/55
f 92/100/56 104/113/56 103/112/56 91/99/56
f 93/101/57 105/114/57 104/113/57 92/100/57
f 94/102/58 106/115/58 105/114/58 93/101/58
f 95/103/59 107/116/59 106/115/59 94/102/59
f 96/104/60 108/117/60 107/116/60 95/103/60
f 97/105/37 109/118/37 120/119/37 108/106/37
f 98/107/38 110/120/38 109/118/38 97/105/38
f 99/108/39 111/121/39 110/120/39 98/107/39
f 100/109/40 112/122/40 111/121/40 99/108/40
f 101/110/41 113/123/41 112/122/41 100/109/41
f 102/111/42 114/124/42 113/123/42 101/110/42
f 103/112/43 115/125/43 114/124/43 102/111/43
f 104/113/44 116/126/44 115/125/44 103/112/44
f 105/114/45 117/127/45 116/126/45 104/113/45
f 106/115/46 118/128/46 117/127/46 105/114/46
f 107/116/47 119/129/47 118/128/47 106/115/47
f 108/117/48 120/130/48 119/129/48 107/116/48
f 109/118/25 121/131/25 132/132/25 120/119/25
f 110/120/26 122/133/26 121/131/26 109/118/26
f 111/121/27 123/134/27 122/133/27 110/120/27
f 112/122/28 124/135/28 123/134/28 111/121/28
f 113/123/29 125/136/29 124/135/29 112/122/29
f 114/124/30 126/137/30 125/136/30 113/123/30
f 115/125/31 127/138/31 126/137/31 114/124/31
f 116/126/32 128/139/32 127/138/32 115/125/32
f 117/127/33 129/140/33 128/139/33 116/126/33
f 118/128/34 130/141/34 129/140/34 117/127/34
f 119/129/35 131/142/35 130/141/35 118/128/35
f 120/130/36 132/143/36 131/142/36 119/129/36
f 121/131/85 133/144/85 144/145/85 132/132/85
f 122/133/86 134/146/86 133/144/86 121/131/86
f 123/134/87 135/147/87 134/146/87 122/133/87
f 124/135/88 136/148/88 135/147/88 123/134/88
f 125/136/89 137/149/89 136/148/89 124/135/89
f 126/137/90 138/150/90 137/149/90 125/136/90
f 127/138/91 139/151/91 138/150/91 126/137/91
f 128/139/92 140/152/92 139/151/92 127/138/92
f 129/140/93 141/153/93 140/152/93 128/139/93
f 130/141/94 142/154/94 141/153/94 129/140/94
f 131/142/95 143/155/95 142/154/95 130/141/95
f 132/143/96 144/156/96 143/155/96 131/142/96
f 158/157/97 159/158/97 250/159/97 247/160/97
f 179/161/98 178/162/98 273/163/98 276/164/98
f 181/165/98 182/166/98 278/167/98 277/168/98
f 146/169/99 145/170/99 218/171/99 222/172/99
f 170/173/98 169/174/98 244/175/98 249/176/98
f 183/177/98 181/165/98 277/168/98 279/178/98
f 166/179/97 167/180/97 274/181/97 271/182/97
f 184/183/98 183/177/98 279/178/98 280/184/98
f 194/185/97 193/186/97 243/187/97 246/188/97
f 157/189/97 158/157/97 247/160/97 241/190/97
f 178/162/98 177/191/98 270/192/98 273/163/98
f 185/193/98 184/183/98 280/184/98 281/194/98
f 193/186/97 195/195/97 248/196/97 243/187/97
f 145/170/100 156/197/100 219/198/100 218/171/100
f 186/199/98 185/193/98 281/194/98 282/200/98
f 195/195/97 196/201/97 251/202/97 248/196/97
f 206/203/101 205/204/101 217/205/101 220/206/101
f 169/174/98 180/207/98 245/208/98 244/175/98
f 165/209/97 166/179/97 271/182/97 268/210/97
f 187/211/98 186/199/98 282/200/98 283/212/98
f 196/201/97 197/213/97 254/214/97 251/202/97
f 205/204/102 207/215/102 221/216/102 217/205/102
f 177/191/98 176/217/98 267/218/98 270/192/98
f 188/219/98 187/211/98 283/212/98 284/220/98
f 197/213/97 198/221/97 257/222/97 254/214/97
f 207/215/103 208/223/103 223/224/103 221/216/103
f 168/225/97 157/189/97 241/190/97 242/226/97
f 189/227/98 188/219/98 284/220/98 285/228/98
f 198/221/97 199/229/97 260/230/97 257/222/97
f 208/223/104 209/231/104 225/232/104 223/224/104
f 156/233/105 155/234/105 240/235/105 219/236/105
f 164/237/97 165/209/97 268/210/97 265/238/97
f 190/239/98 189/227/98 285/228/98 286/240/98
f 199/229/97 200/241/97 263/242/97 260/230/97
f 209/231/106 210/243/106 227/244/106 225/232/106
f 155/234/107 154/245/107 238/246/107 240/235/107
f 182/247/108 194/248/108 204/249/108 192/250/108
f 192/250/109 204/249/109 203/251/109 191/252/109
f 191/252/110 203/251/110 202/253/110 190/239/110
f 190/239/111 202/253/111 201/254/111 189/227/111
f 189/227/112 201/254/112 200/241/112 188/219/112
f 188/219/113 200/241/113 199/229/113 187/211/113
f 187/211/114 199/229/114 198/221/114 186/199/114
f 186/199/115 198/221/115 197/213/115 185/193/115
f 185/193/116 197/213/116 196/201/116 184/183/116
f 184/183/117 196/201/117 195/195/117 183/177/117
f 183/177/118 195/195/118 193/186/118 181/165/118
f 181/165/119 193/186/119 194/185/119 182/166/119
f 144/156/120 206/255/120 216/256/120 143/155/120
f 143/155/121 216/256/121 215/257/121 142/154/121
f 142/154/122 215/257/122 214/258/122 141/153/122
f 141/153/123 214/258/123 213/259/123 140/152/123
f 140/152/124 213/259/124 212/260/124 139/151/124
f 139/151/125 212/260/125 211/261/125 138/150/125
f 138/150/126 211/261/126 210/243/126 137/149/126
f 137/149/127 210/243/127 209/231/127 136/148/127
f 136/148/128 209/231/128 208/223/128 135/147/128
f 135/147/129 208/223/129 207/215/129 134/146/129
f 134/146/130 207/215/130 205/204/130 133/144/130
f 133/144/131 205/204/131 206/203/131 144/145/131
f 217/205/132 218/171/132 219/198/132 220/206/132
f 221/216/133 222/172/133 218/171/133 217/205/133
f 223/224/134 224/262/134 222/172/134 221/216/134
f 225/232/135 226/263/135 224/262/135 223/224/135
f 227/244/136 228/264/136 226/263/136 225/232/136
f 229/265/137 230/266/137 228/264/137 227/244/137
f 231/267/138 232/268/138 230/266/138 229/265/138
f 233/269/139 234/270/139 232/268/139 231/267/139
f 235/271/140 236/272/140 234/270/140 233/269/140
f 237/273/141 238/246/141 236/272/141 235/271/141
f 239/274/142 240/235/142 238/246/142 237/273/142
f 220/275/143 219/236/143 240/235/143 239/274/143
f 243/187/119 244/175/119 245/208/119 246/188/119
f 248/196/118 249/176/118 244/175/118 243/187/118
f 251/202/117 252/276/117 249/176/117 248/196/117
f 254/214/116 255/277/116 252/276/116 251/202/116
f 257/222/115 258/278/115 255/277/115 254/214/115
f 260/230/114 261/279/114 258/278/114 257/222/114
f 263/242/113 264/280/113 261/279/113 260/230/113
f 266/281/112 267/218/112 264/280/112 263/242/112
f 269/282/111 270/192/111 267/218/111 266/281/111
f 272/283/110 273/163/110 270/192/110 269/282/110
f 275/284/109 276/164/109 273/163/109 272/283/109
f 246/285/108 245/286/108 276/164/108 275/284/108
f 242/287/108 278/288/108 288/289/108 274/181/108
f 274/181/109 288/289/109 287/290/109 271/182/109
f 271/182/110 287/290/110 286/240/110 268/210/110
f 268/210/111 286/240/111 285/228/111 265/238/111
f 265/238/112 285/228/112 284/220/112 262/291/112
f 262/291/113 284/220/113 283/212/113 259/292/113
f 259/292/114 283/212/114 282/200/114 256/293/114
f 256/293/115 282/200/115 281/194/115 253/294/115
f 253/294/116 281/194/116 280/184/116 250/159/116
f 250/159/117 280/184/117 279/178/117 247/160/117
f 247/160/118 279/178/118 277/168/118 241/190/118
f 241/190/119 277/168/119 278/167/119 242/226/119
f 167/180/97 168/295/97 242/287/97 274/181/97
f 147/296/144 146/169/144 222/172/144 224/262/144
f 180/297/98 179/161/98 276/164/98 245/286/98
f 171/298/98 170/173/98 249/176/98 252/276/98
f 159/158/97 160/299/97 253/294/97 250/159/97
f 148/300/145 147/296/145 224/262/145 226/263/145
f 172/301/98 171/298/98 252/276/98 255/277/98
f 149/302/146 148/300/146 226/263/146 228/264/146
f 160/299/97 161/303/97 256/293/97 253/294/97
f 150/304/147 149/302/147 228/264/147 230/266/147
f 173/305/98 172/301/98 255/277/98 258/278/98
f 161/303/97 162/306/97 259/292/97 256/293/97
f 151/307/148 150/304/148 230/266/148 232/268/148
f 216/256/149 206/255/149 220/275/149 239/274/149
f 174/308/98 173/305/98 258/278/98 261/279/98
f 152/309/150 151/307/150 232/268/150 234/270/150
f 215/257/151 216/256/151 239/274/151 237/273/151
f 162/306/97 163/310/97 262/291/97 259/292/97
f 214/258/152 215/257/152 237/273/152 235/271/152
f 204/249/97 194/248/97 246/285/97 275/284/97
f 153/311/153 152/309/153 234/270/153 236/272/153
f 213/259/154 214/258/154 235/271/154 233/269/154
f 203/251/97 204/249/97 275/284/97 272/283/97
f 175/312/98 174/308/98 261/279/98 264/280/98
f 212/260/155 213/259/155 233/269/155 231/267/155
f 202/253/97 203/251/97 272/283/97 269/282/97
f 182/247/98 192/250/98 288/289/98 278/288/98
f 163/310/97 164/237/97 265/238/97 262/291/97
f 154/245/156 153/311/156 236/272/156 238/246/156
f 211/261/157 212/260/157 231/267/157 229/265/157
f 201/254/97 202/253/97 269/282/97 266/281/97
f 192/250/98 191/252/98 287/290/98 288/289/98
f 210/243/158 211/261/158 229/265/158 227/244/158
f 200/241/97 201/254/97 266/281/97 263/242/97
f 191/252/98 190/239/98 286/240/98 287/290/98
f 176/217/98 175/312/98 264/280/98 267/218/98
