# Blender 5.1.2
# www.blender.org
mtllib PipePlus.mtl
o PipePlus
v 0.108253 0.562500 -0.500000
v 0.062500 0.608253 -0.500000
v 0.000000 0.625000 -0.500000
v -0.062500 0.608253 -0.500000
v -0.108253 0.562500 -0.500000
v -0.125000 0.500000 -0.500000
v -0.108253 0.437500 -0.500000
v -0.062500 0.391747 -0.500000
v 0.000000 0.375000 -0.500000
v 0.062500 0.391747 -0.500000
v 0.108253 0.437500 -0.500000
v 0.125000 0.500000 -0.500000
v 0.108253 0.562500 0.500000
v 0.062500 0.608253 0.500000
v 0.000000 0.625000 0.500000
v -0.062500 0.608253 0.500000
v -0.108253 0.562500 0.500000
v -0.125000 0.500000 0.500000
v -0.108253 0.437500 0.500000
v -0.062500 0.391747 0.500000
v 0.000000 0.375000 0.500000
v 0.062500 0.391747 0.500000
v 0.108253 0.437500 0.500000
v 0.125000 0.500000 0.500000
v -0.108253 0.000000 0.062500
v -0.062500 0.000000 0.108253
v 0.000000 0.000000 0.125000
v 0.062500 0.000000 0.108253
v 0.108253 0.000000 0.062500
v 0.125000 0.000000 0.000000
v 0.108253 0.000000 -0.062500
v 0.062500 0.000000 -0.108253
v 0.000000 0.000000 -0.125000
v -0.062500 0.000000 -0.108253
v -0.108253 0.000000 -0.062500
v -0.125000 0.000000 0.000000
v -0.108253 1.000000 0.062500
v -0.062500 1.000000 0.108253
v 0.000000 1.000000 0.125000
v 0.062500 1.000000 0.108253
v 0.108253 1.000000 0.062500
v 0.125000 1.000000 0.000000
v 0.108253 1.000000 -0.062500
v 0.062500 1.000000 -0.108253
v 0.000000 1.000000 -0.125000
v -0.062500 1.000000 -0.108253
v -0.108253 1.000000 -0.062500
v -0.125000 1.000000 0.000000
v -0.108253 0.050000 0.062500
v -0.125000 0.050000 0.000000
v -0.062500 0.050000 0.108253
v 0.000000 0.050000 0.125000
v 0.062500 0.050000 0.108253
v 0.108253 0.050000 0.062500
v 0.125000 0.050000 0.000000
v 0.108253 0.050000 -0.062500
v 0.062500 0.050000 -0.108253
v 0.000000 0.050000 -0.125000
v -0.062500 0.050000 -0.108253
v -0.108253 0.050000 -0.062500
v -0.108253 0.950000 0.062500
v -0.125000 0.950000 0.000000
v -0.062500 0.950000 0.108253
v 0.000000 0.950000 0.125000
v 0.062500 0.950000 0.108253
v 0.108253 0.950000 0.062500
v 0.125000 0.950000 0.000000
v 0.108253 0.950000 -0.062500
v 0.062500 0.950000 -0.108253
v 0.000000 0.950000 -0.125000
v -0.062500 0.950000 -0.108253
v -0.108253 0.950000 -0.062500
v 0.108253 0.562500 -0.450000
v 0.125000 0.500000 -0.450000
v 0.062500 0.608253 -0.450000
v 0.000000 0.625000 -0.450000
v -0.062500 0.608253 -0.450000
v -0.108253 0.562500 -0.450000
v -0.125000 0.500000 -0.450000
v -0.108253 0.437500 -0.450000
v -0.062500 0.391747 -0.450000
v 0.000000 0.375000 -0.450000
v 0.062500 0.391747 -0.450000
v 0.108253 0.437500 -0.450000
v 0.108253 0.562500 0.450000
v 0.125000 0.500000 0.450000
v 0.062500 0.608253 0.450000
v 0.000000 0.625000 0.450000
v -0.062500 0.608253 0.450000
v -0.108253 0.562500 0.450000
v -0.125000 0.500000 0.450000
v -0.108253 0.437500 0.450000
v -0.062500 0.391747 0.450000
v 0.000000 0.375000 0.450000
v 0.062500 0.391747 0.450000
v 0.108253 0.437500 0.450000
v 0.119079 0.568750 -0.500000
v 0.137500 0.500000 -0.500000
v 0.119079 0.568750 0.450000
v 0.119079 0.568750 0.500000
v 0.137500 0.500000 0.500000
v 0.137500 0.500000 0.450000
v 0.068750 0.619078 -0.500000
v 0.068750 0.619079 0.450000
v 0.068750 0.619079 0.500000
v 0.000000 0.637500 -0.500000
v 0.000000 0.637500 0.450000
v 0.000000 0.637500 0.500000
v -0.068750 0.619079 -0.500000
v -0.068750 0.619079 0.450000
v -0.068750 0.619079 0.500000
v -0.119078 0.568750 -0.500000
v -0.119078 0.568750 0.450000
v -0.119078 0.568750 0.500000
v -0.137500 0.500000 -0.500000
v -0.137500 0.500000 0.450000
v -0.137500 0.500000 0.500000
v -0.119079 0.431250 -0.500000
v -0.119079 0.431250 0.450000
v -0.119079 0.431250 0.500000
v -0.068750 0.380922 -0.500000
v -0.068750 0.380922 0.450000
v -0.068750 0.380922 0.500000
v 0.000000 0.362500 -0.500000
v 0.000000 0.362500 0.450000
v 0.000000 0.362500 0.500000
v 0.068750 0.380921 -0.500000
v 0.068750 0.380922 0.450000
v 0.068750 0.380922 0.500000
v 0.119078 0.431250 -0.500000
v 0.119078 0.431250 0.450000
v 0.119078 0.431250 0.500000
v -0.119079 0.000000 0.068750
v -0.137500 0.000000 0.000000
v -0.119079 0.950000 0.068750
v -0.119079 1.000000 0.068750
v -0.137500 1.000000 0.000000
v -0.137500 0.950000 0.000000
v -0.068750 0.000000 0.119078
v -0.068750 0.950000 0.119078
v -0.068750 1.000000 0.119078
v 0.000000 0.000000 0.137500
v 0.000000 0.950000 0.137500
v 0.000000 1.000000 0.137500
v 0.068750 0.000000 0.119079
v 0.068750 0.950000 0.119079
v 0.068750 1.000000 0.119079
v 0.119078 0.000000 0.068750
v 0.119078 0.950000 0.068750
v 0.119078 1.000000 0.068750
v 0.137500 0.000000 0.000000
v 0.137500 0.950000 0.000000
v 0.137500 1.000000 0.000000
v 0.119079 0.000000 -0.068750
v 0.119079 0.950000 -0.068750
v 0.119079 1.000000 -0.068750
v 0.068750 0.000000 -0.119078
v 0.068750 0.950000 -0.119078
v 0.068750 1.000000 -0.119078
v 0.000000 0.000000 -0.137500
v 0.000000 0.950000 -0.137500
v 0.000000 1.000000 -0.137500
v -0.068750 0.000000 -0.119079
v -0.068750 0.950000 -0.119079
v -0.068750 1.000000 -0.119079
v -0.119078 0.000000 -0.068750
v -0.119078 0.950000 -0.068750
v -0.119078 1.000000 -0.068750
v -0.119079 0.050000 0.068750
v -0.137500 0.050000 0.000000
v -0.068750 0.050000 0.119078
v 0.000000 0.050000 0.137500
v 0.068750 0.050000 0.119079
v 0.119078 0.050000 0.068750
v 0.137500 0.050000 0.000000
v 0.119079 0.050000 -0.068750
v 0.068750 0.050000 -0.119078
v 0.000000 0.050000 -0.137500
v -0.068750 0.050000 -0.119079
v -0.119078 0.050000 -0.068750
v 0.119079 0.568750 -0.450000
v 0.137500 0.500000 -0.450000
v 0.068750 0.619078 -0.450000
v 0.000000 0.637500 -0.450000
v -0.068750 0.619079 -0.450000
v -0.119078 0.568750 -0.450000
v -0.137500 0.500000 -0.450000
v -0.119079 0.431250 -0.450000
v -0.068750 0.380922 -0.450000
v 0.000000 0.362500 -0.450000
v 0.068750 0.380921 -0.450000
v 0.119078 0.431250 -0.450000
vn -0.0000 -0.0000 1.0000
vn -0.0000 -0.0000 -1.0000
vn -0.0000 1.0000 -0.0000
vn -0.0000 -1.0000 -0.0000
vn -0.7071 -0.0000 -0.7071
vn -0.2588 -0.0000 -0.9659
vn 0.2588 -0.0000 -0.9659
vn 0.7071 -0.0000 -0.7071
vn 0.9659 -0.0000 -0.2588
vn 0.9659 -0.0000 0.2588
vn 0.7071 -0.0000 0.7071
vn 0.2588 -0.0000 0.9659
vn -0.2588 -0.0000 0.9659
vn -0.7071 -0.0000 0.7071
vn -0.9659 -0.0000 0.2588
vn 0.9659 -0.2588 -0.0000
vn 0.7071 -0.7071 -0.0000
vn 0.2588 -0.9659 -0.0000
vn -0.2588 -0.9659 -0.0000
vn -0.7071 -0.7071 -0.0000
vn -0.9659 -0.2588 -0.0000
vn -0.9659 0.2588 -0.0000
vn -0.7071 0.7071 -0.0000
vn -0.2588 0.9659 -0.0000
vn 0.2588 0.9659 -0.0000
vn 0.7071 0.7071 -0.0000
vn 0.9659 0.2588 -0.0000
vn -0.9659 -0.0000 -0.2588
vt 0.865724 0.757929
vt 0.854214 0.758014
vt 0.854214 0.755798
vt 0.865724 0.755715
vt 0.773646 0.745220
vt 0.785156 0.745148
vt 0.785156 0.747377
vt 0.773645 0.747451
vt 0.893343 0.854111
vt 0.893421 0.842594
vt 0.895643 0.842595
vt 0.895563 0.854112
vt 0.733098 0.784995
vt 0.733166 0.796505
vt 0.730936 0.796504
vt 0.730866 0.784994
vt 0.762134 0.758687
vt 0.750624 0.758772
vt 0.750625 0.756537
vt 0.762134 0.756455
vt 0.808200 0.584854
vt 0.796686 0.584778
vt 0.796686 0.582551
vt 0.808201 0.582630
vt 0.796666 0.745077
vt 0.796666 0.747303
vt 0.907293 0.773494
vt 0.907203 0.785011
vt 0.904971 0.785011
vt 0.905059 0.773494
vt 0.893499 0.831077
vt 0.895723 0.831078
vt 0.733233 0.808015
vt 0.731005 0.808014
vt 0.785172 0.584702
vt 0.785172 0.582473
vt 0.854261 0.571863
vt 0.865776 0.571951
vt 0.865775 0.574165
vt 0.854261 0.574079
vt 0.808176 0.745004
vt 0.808176 0.747229
vt 0.719626 0.773484
vt 0.719547 0.761974
vt 0.721783 0.761974
vt 0.721861 0.773484
vt 0.733300 0.819524
vt 0.731074 0.819524
vt 0.750629 0.571065
vt 0.762144 0.571154
vt 0.762143 0.573386
vt 0.750629 0.573300
vt 0.773657 0.584625
vt 0.773658 0.582395
vt 0.842704 0.758098
vt 0.842704 0.755880
vt 0.819686 0.744933
vt 0.819686 0.747155
vt 0.733367 0.831034
vt 0.731143 0.831034
vt 0.762143 0.584549
vt 0.762143 0.582317
vt 0.831197 0.744861
vt 0.831196 0.747081
vt 0.907383 0.761976
vt 0.905147 0.761976
vt 0.739114 0.758856
vt 0.739114 0.756619
vt 0.750628 0.584473
vt 0.750629 0.582238
vt 0.842747 0.571774
vt 0.842746 0.573992
vt 0.842707 0.744789
vt 0.842707 0.747007
vt 0.720499 0.900087
vt 0.720420 0.888577
vt 0.722633 0.888578
vt 0.722711 0.900088
vt 0.739114 0.584397
vt 0.739114 0.582160
vt 0.831194 0.758182
vt 0.831194 0.755962
vt 0.854217 0.744717
vt 0.854217 0.746933
vt 0.739114 0.570977
vt 0.739114 0.573213
vt 0.865727 0.744645
vt 0.865727 0.746859
vt 0.906394 0.888668
vt 0.906304 0.900185
vt 0.904092 0.900184
vt 0.904180 0.888667
vt 0.831232 0.571685
vt 0.831231 0.573906
vt 0.877238 0.744573
vt 0.877237 0.746785
vt 0.893577 0.819560
vt 0.893655 0.808044
vt 0.893733 0.796527
vt 0.893811 0.785010
vt 0.733031 0.773485
vt 0.893889 0.773493
vt 0.732964 0.761975
vt 0.893966 0.761976
vt 0.893032 0.900178
vt 0.733771 0.900094
vt 0.733703 0.888584
vt 0.893110 0.888661
vt 0.733636 0.877074
vt 0.893188 0.877144
vt 0.733569 0.865564
vt 0.893266 0.865628
vt 0.733502 0.854054
vt 0.733434 0.842544
vt 0.877287 0.585312
vt 0.865772 0.585235
vt 0.720340 0.877068
vt 0.722556 0.877069
vt 0.819684 0.758266
vt 0.819684 0.756044
vt 0.906484 0.877150
vt 0.904268 0.877149
vt 0.819717 0.571597
vt 0.819717 0.573819
vt 0.720261 0.865558
vt 0.722479 0.865559
vt 0.808174 0.758351
vt 0.808174 0.756126
vt 0.906574 0.865633
vt 0.904356 0.865632
vt 0.808202 0.571508
vt 0.808202 0.573732
vt 0.720182 0.854049
vt 0.722402 0.854050
vt 0.720023 0.831030
vt 0.719944 0.819521
vt 0.722170 0.819522
vt 0.722247 0.831031
vt 0.796664 0.758435
vt 0.796664 0.756208
vt 0.906933 0.819563
vt 0.906843 0.831081
vt 0.904619 0.831080
vt 0.904707 0.819563
vt 0.854258 0.585159
vt 0.842744 0.585083
vt 0.831229 0.585007
vt 0.819715 0.584930
vt 0.762135 0.745292
vt 0.750625 0.745364
vt 0.739115 0.745436
vt 0.750625 0.747599
vt 0.739115 0.747673
vt 0.762135 0.747525
vt 0.773644 0.756373
vt 0.785154 0.756291
vt 0.877234 0.755633
vt 0.731212 0.842543
vt 0.722324 0.842541
vt 0.731282 0.854053
vt 0.731351 0.865563
vt 0.731420 0.877073
vt 0.731489 0.888582
vt 0.731559 0.900092
vt 0.730797 0.773485
vt 0.730728 0.761975
vt 0.721938 0.784993
vt 0.722015 0.796503
vt 0.722092 0.808012
vt 0.904532 0.842597
vt 0.904444 0.854115
vt 0.895484 0.865628
vt 0.895404 0.877145
vt 0.895324 0.888662
vt 0.895244 0.900179
vt 0.896122 0.773493
vt 0.896203 0.761976
vt 0.896043 0.785010
vt 0.904883 0.796528
vt 0.895963 0.796527
vt 0.904795 0.808045
vt 0.895883 0.808044
vt 0.895803 0.819561
vt 0.773658 0.573473
vt 0.785173 0.573560
vt 0.796687 0.573646
vt 0.819715 0.582708
vt 0.831230 0.582786
vt 0.842744 0.582865
vt 0.854258 0.582943
vt 0.865773 0.583021
vt 0.877290 0.574252
vt 0.877287 0.583100
vt 0.773658 0.571243
vt 0.719706 0.784993
vt 0.877291 0.572040
vt 0.907113 0.796529
vt 0.877234 0.757845
vt 0.773644 0.758603
vt 0.906754 0.842598
vt 0.785173 0.571331
vt 0.719785 0.796502
vt 0.907023 0.808046
vt 0.720102 0.842540
vt 0.785154 0.758519
vt 0.796688 0.571420
vt 0.719864 0.808012
vt 0.906664 0.854116
s 1
f 23/1/1 22/2/1 129/3/1 132/4/1
f 88/5/2 89/6/2 110/7/2 107/8/2
f 51/9/3 49/10/3 169/11/3 171/12/3
f 69/13/4 70/14/4 161/15/4 158/16/4
f 14/17/1 13/18/1 100/19/1 105/20/1
f 79/21/1 78/22/1 186/23/1 187/24/1
f 89/6/2 90/25/2 113/26/2 110/7/2
f 31/27/4 32/28/4 157/29/4 154/30/4
f 49/10/3 50/31/3 170/32/3 169/11/3
f 70/14/4 71/33/4 164/34/4 161/15/4
f 78/22/1 77/35/1 185/36/1 186/23/1
f 10/37/2 11/38/2 130/39/2 127/40/2
f 90/25/2 91/41/2 116/42/2 113/26/2
f 43/43/3 42/44/3 153/45/3 156/46/3
f 71/33/4 72/47/4 167/48/4 164/34/4
f 1/49/2 2/50/2 103/51/2 97/52/2
f 77/35/1 76/53/1 184/54/1 185/36/1
f 22/2/1 21/55/1 126/56/1 129/3/1
f 91/41/2 92/57/2 119/58/2 116/42/2
f 72/47/4 62/59/4 138/60/4 167/48/4
f 76/53/1 75/61/1 183/62/1 184/54/1
f 92/57/2 93/63/2 122/64/2 119/58/2
f 30/65/4 31/27/4 154/30/4 151/66/4
f 13/18/1 24/67/1 101/68/1 100/19/1
f 75/61/1 73/69/1 181/70/1 183/62/1
f 9/71/2 10/37/2 127/40/2 124/72/2
f 93/63/2 94/73/2 125/74/2 122/64/2
f 42/75/3 41/76/3 150/77/3 153/78/3
f 73/69/1 74/79/1 182/80/1 181/70/1
f 21/55/1 20/81/1 123/82/1 126/56/1
f 94/73/2 95/83/2 128/84/2 125/74/2
f 12/85/2 1/49/2 97/52/2 98/86/2
f 95/83/2 96/87/2 131/88/2 128/84/2
f 29/89/4 30/90/4 151/91/4 148/92/4
f 8/93/2 9/71/2 124/72/2 121/94/2
f 96/87/2 86/95/2 102/96/2 131/88/2
f 60/97/5 72/47/5 71/33/5 59/98/5
f 59/98/6 71/33/6 70/14/6 58/99/6
f 58/99/7 70/14/7 69/13/7 57/100/7
f 57/100/8 69/13/8 68/101/8 56/102/8
f 56/102/9 68/101/9 67/103/9 55/104/9
f 55/105/10 67/106/10 66/107/10 54/108/10
f 54/108/11 66/107/11 65/109/11 53/110/11
f 53/110/12 65/109/12 64/111/12 52/112/12
f 52/112/13 64/111/13 63/113/13 51/9/13
f 51/9/14 63/113/14 61/114/14 49/10/14
f 49/10/15 61/114/15 62/59/15 50/31/15
f 74/115/16 86/95/16 96/87/16 84/116/16
f 41/76/3 40/117/3 147/118/3 150/77/3
f 20/81/1 19/119/1 120/120/1 123/82/1
f 28/121/4 29/89/4 148/92/4 145/122/4
f 7/123/2 8/93/2 121/94/2 118/124/2
f 40/117/3 39/125/3 144/126/3 147/118/3
f 19/119/1 18/127/1 117/128/1 120/120/1
f 27/129/4 28/121/4 145/122/4 142/130/4
f 6/131/2 7/123/2 118/124/2 115/132/2
f 39/125/3 38/133/3 141/134/3 144/126/3
f 48/135/3 47/136/3 168/137/3 137/138/3
f 18/127/1 17/139/1 114/140/1 117/128/1
f 35/141/4 36/142/4 134/143/4 166/144/4
f 84/116/17 96/87/17 95/83/17 83/145/17
f 83/145/18 95/83/18 94/73/18 82/146/18
f 82/146/19 94/73/19 93/63/19 81/147/19
f 81/147/20 93/63/20 92/57/20 80/148/20
f 80/148/21 92/57/21 91/41/21 79/21/21
f 79/21/22 91/41/22 90/25/22 78/22/22
f 78/22/23 90/25/23 89/6/23 77/35/23
f 77/35/24 89/6/24 88/5/24 76/53/24
f 76/53/25 88/5/25 87/149/25 75/61/25
f 75/61/26 87/149/26 85/150/26 73/69/26
f 73/69/27 85/150/27 86/151/27 74/79/27
f 50/31/28 62/59/28 72/47/28 60/97/28
f 99/152/27 100/19/27 101/68/27 102/153/27
f 104/154/26 105/20/26 100/19/26 99/152/26
f 107/8/25 108/155/25 105/20/25 104/154/25
f 110/7/24 111/156/24 108/155/24 107/8/24
f 113/26/23 114/140/23 111/156/23 110/7/23
f 116/42/22 117/128/22 114/140/22 113/26/22
f 119/58/21 120/120/21 117/128/21 116/42/21
f 122/64/20 123/82/20 120/120/20 119/58/20
f 125/74/19 126/56/19 123/82/19 122/64/19
f 128/84/18 129/3/18 126/56/18 125/74/18
f 131/88/17 132/4/17 129/3/17 128/84/17
f 102/96/16 101/157/16 132/4/16 131/88/16
f 135/158/15 136/159/15 137/138/15 138/60/15
f 140/160/14 141/134/14 136/159/14 135/158/14
f 143/161/13 144/126/13 141/134/13 140/160/13
f 146/162/12 147/118/12 144/126/12 143/161/12
f 149/163/11 150/77/11 147/118/11 146/162/11
f 152/164/10 153/78/10 150/77/10 149/163/10
f 155/165/9 156/46/9 153/45/9 152/166/9
f 158/16/8 159/167/8 156/46/8 155/165/8
f 161/15/7 162/168/7 159/167/7 158/16/7
f 164/34/6 165/169/6 162/168/6 161/15/6
f 167/48/5 168/137/5 165/169/5 164/34/5
f 138/60/28 137/138/28 168/137/28 167/48/28
f 133/170/15 169/11/15 170/32/15 134/143/15
f 139/171/14 171/12/14 169/11/14 133/170/14
f 142/130/13 172/172/13 171/12/13 139/171/13
f 145/122/12 173/173/12 172/172/12 142/130/12
f 148/92/11 174/174/11 173/173/11 145/122/11
f 151/91/10 175/175/10 174/174/10 148/92/10
f 154/30/9 176/176/9 175/177/9 151/66/9
f 157/29/8 177/178/8 176/176/8 154/30/8
f 160/179/7 178/180/7 177/178/7 157/29/7
f 163/181/6 179/182/6 178/180/6 160/179/6
f 166/144/5 180/183/5 179/182/5 163/181/5
f 134/143/28 170/32/28 180/183/28 166/144/28
f 97/52/27 181/70/27 182/80/27 98/86/27
f 103/51/26 183/62/26 181/70/26 97/52/26
f 106/184/25 184/54/25 183/62/25 103/51/25
f 109/185/24 185/36/24 184/54/24 106/184/24
f 112/186/23 186/23/23 185/36/23 109/185/23
f 115/132/22 187/24/22 186/23/22 112/186/22
f 118/124/21 188/187/21 187/24/21 115/132/21
f 121/94/20 189/188/20 188/187/20 118/124/20
f 124/72/19 190/189/19 189/188/19 121/94/19
f 127/40/18 191/190/18 190/189/18 124/72/18
f 130/39/17 192/191/17 191/190/17 127/40/17
f 98/192/16 182/193/16 192/191/16 130/39/16
f 80/148/1 79/21/1 187/24/1 188/187/1
f 2/50/2 3/194/2 106/184/2 103/51/2
f 68/101/4 69/13/4 158/16/4 155/165/4
f 52/112/3 51/9/3 171/12/3 172/172/3
f 44/195/3 43/43/3 156/46/3 159/167/3
f 87/149/2 88/5/2 107/8/2 104/154/2
f 11/38/2 12/196/2 98/192/2 130/39/2
f 81/147/1 80/148/1 188/187/1 189/188/1
f 67/103/4 68/101/4 155/165/4 152/166/4
f 53/110/3 52/112/3 172/172/3 173/173/3
f 32/28/4 33/197/4 160/179/4 157/29/4
f 85/150/2 87/149/2 104/154/2 99/152/2
f 24/198/1 23/1/1 132/4/1 101/157/1
f 82/146/1 81/147/1 189/188/1 190/189/1
f 15/199/1 14/17/1 105/20/1 108/155/1
f 66/107/4 67/106/4 152/164/4 149/163/4
f 54/108/3 53/110/3 173/173/3 174/174/3
f 86/151/2 85/150/2 99/152/2 102/153/2
f 36/142/4 25/200/4 133/170/4 134/143/4
f 83/145/1 82/146/1 190/189/1 191/190/1
f 3/194/2 4/201/2 109/185/2 106/184/2
f 65/109/4 66/107/4 149/163/4 146/162/4
f 55/105/3 54/108/3 174/174/3 175/175/3
f 45/202/3 44/195/3 159/167/3 162/168/3
f 84/116/1 83/145/1 191/190/1 192/191/1
f 64/111/4 65/109/4 146/162/4 143/161/4
f 56/102/3 55/104/3 175/177/3 176/176/3
f 33/197/4 34/203/4 163/181/4 160/179/4
f 37/204/3 48/135/3 137/138/3 136/159/3
f 74/115/1 84/116/1 192/191/1 182/193/1
f 16/205/1 15/199/1 108/155/1 111/156/1
f 63/113/4 64/111/4 143/161/4 140/160/4
f 57/100/3 56/102/3 176/176/3 177/178/3
f 4/201/2 5/206/2 112/186/2 109/185/2
f 61/114/4 63/113/4 140/160/4 135/158/4
f 58/99/3 57/100/3 177/178/3 178/180/3
f 46/207/3 45/202/3 162/168/3 165/169/3
f 25/200/4 26/208/4 139/171/4 133/170/4
f 62/59/4 61/114/4 135/158/4 138/60/4
f 59/98/3 58/99/3 178/180/3 179/182/3
f 34/203/4 35/141/4 166/144/4 163/181/4
f 17/139/1 16/205/1 111/156/1 114/140/1
f 60/97/3 59/98/3 179/182/3 180/183/3
f 38/133/3 37/204/3 136/159/3 141/134/3
f 5/206/2 6/131/2 115/132/2 112/186/2
f 50/31/3 60/97/3 180/183/3 170/32/3
f 47/136/3 46/207/3 165/169/3 168/137/3
f 26/208/4 27/129/4 142/130/4 139/171/4
