# Blender 5.1.2
# www.blender.org
mtllib PipeSizeZigZag.mtl
o PipeZigzag
v 0.108253 0.000000 -0.062500
v 0.062500 0.000000 -0.108253
v 0.000000 0.000000 -0.125000
v -0.062500 0.000000 -0.108253
v -0.108253 0.000000 -0.062500
v -0.125000 0.000000 0.000000
v -0.108253 0.000000 0.062500
v -0.062500 0.000000 0.108253
v -0.000000 0.000000 0.125000
v 0.062500 0.000000 0.108253
v 0.108253 0.000000 0.062500
v 0.125000 0.000000 0.000000
v 0.108253 0.254904 -0.062307
v 0.062500 0.258493 -0.107919
v 0.000000 0.259807 -0.124615
v -0.062500 0.258493 -0.107919
v -0.108253 0.254904 -0.062307
v -0.125000 0.250000 0.000000
v -0.108253 0.245096 0.062307
v -0.062500 0.241507 0.107919
v -0.000000 0.240193 0.124615
v 0.062500 0.241507 0.107919
v 0.108253 0.245096 0.062307
v 0.125000 0.250000 0.000000
v 0.108253 0.346568 -0.047205
v 0.062500 0.360706 -0.090719
v 0.000000 0.365881 -0.106646
v -0.062500 0.360706 -0.090719
v -0.108253 0.346568 -0.047205
v -0.125000 0.327254 0.012236
v -0.108253 0.307941 0.071677
v -0.062500 0.293802 0.115191
v -0.000000 0.288627 0.131118
v 0.062500 0.293802 0.115191
v 0.108253 0.307941 0.071677
v 0.125000 0.327254 0.012236
v 0.108253 0.433683 -0.002818
v 0.062500 0.460576 -0.039833
v 0.000000 0.470419 -0.053381
v -0.062500 0.460576 -0.039833
v -0.108253 0.433683 -0.002818
v -0.125000 0.396946 0.047746
v -0.108253 0.360210 0.098309
v -0.062500 0.333317 0.135324
v -0.000000 0.323473 0.148873
v 0.062500 0.333317 0.135324
v 0.108253 0.360210 0.098309
v 0.125000 0.396946 0.047746
v 0.108253 0.502818 0.066317
v 0.062500 0.539833 0.039424
v 0.000000 0.553381 0.029581
v -0.062500 0.539833 0.039424
v -0.108253 0.502818 0.066317
v -0.125000 0.452254 0.103054
v -0.108253 0.401691 0.139790
v -0.062500 0.364676 0.166683
v -0.000000 0.351127 0.176527
v 0.062500 0.364676 0.166683
v 0.108253 0.401691 0.139790
v 0.125000 0.452254 0.103054
v 0.108253 0.547205 0.153432
v 0.062500 0.590719 0.139294
v 0.000000 0.606646 0.134119
v -0.062500 0.590719 0.139294
v -0.108253 0.547205 0.153432
v -0.125000 0.487764 0.172746
v -0.108253 0.428323 0.192059
v -0.062500 0.384809 0.206198
v -0.000000 0.368882 0.211373
v 0.062500 0.384809 0.206198
v 0.108253 0.428323 0.192059
v 0.125000 0.487764 0.172746
v 0.108253 0.561731 0.240223
v 0.062500 0.606920 0.233066
v 0.000000 0.623461 0.230446
v -0.062500 0.606920 0.233066
v -0.108253 0.561731 0.240223
v -0.125000 0.500000 0.250000
v -0.108253 0.438270 0.259777
v -0.062500 0.393080 0.266934
v -0.000000 0.376539 0.269554
v 0.062500 0.393080 0.266934
v 0.108253 0.438269 0.259777
v 0.125000 0.500000 0.250000
v 0.108253 0.571677 0.307941
v 0.062500 0.615191 0.293802
v 0.000000 0.631118 0.288627
v -0.062500 0.615191 0.293802
v -0.108253 0.571677 0.307941
v -0.125000 0.512236 0.327254
v -0.108253 0.452795 0.346568
v -0.062500 0.409281 0.360706
v -0.000000 0.393354 0.365881
v 0.062500 0.409281 0.360706
v 0.108253 0.452795 0.346568
v 0.125000 0.512236 0.327254
v 0.108253 0.598309 0.360210
v 0.062500 0.635324 0.333317
v 0.000000 0.648873 0.323473
v -0.062500 0.635324 0.333317
v -0.108253 0.598309 0.360210
v -0.125000 0.547746 0.396946
v -0.108253 0.497182 0.433683
v -0.062500 0.460167 0.460576
v -0.000000 0.446619 0.470419
v 0.062500 0.460167 0.460576
v 0.108253 0.497182 0.433683
v 0.125000 0.547746 0.396946
v 0.108253 0.639790 0.401691
v 0.062500 0.666683 0.364676
v 0.000000 0.676527 0.351127
v -0.062500 0.666683 0.364676
v -0.108253 0.639790 0.401690
v -0.125000 0.603054 0.452254
v -0.108253 0.566317 0.502818
v -0.062500 0.539424 0.539833
v -0.000000 0.529580 0.553381
v 0.062500 0.539424 0.539833
v 0.108253 0.566317 0.502818
v 0.125000 0.603054 0.452254
v 0.108253 0.692059 0.428323
v 0.062500 0.706198 0.384809
v 0.000000 0.711373 0.368882
v -0.062500 0.706198 0.384809
v -0.108253 0.692059 0.428323
v -0.125000 0.672746 0.487764
v -0.108253 0.653432 0.547205
v -0.062500 0.639294 0.590719
v -0.000000 0.634119 0.606646
v 0.062500 0.639294 0.590719
v 0.108253 0.653432 0.547205
v 0.125000 0.672746 0.487764
v 0.108253 0.754904 0.437693
v 0.062500 0.758493 0.392081
v 0.000000 0.759807 0.375385
v -0.062500 0.758493 0.392081
v -0.108253 0.754904 0.437693
v -0.125000 0.750000 0.500000
v -0.108253 0.745096 0.562307
v -0.062500 0.741507 0.607919
v -0.000000 0.740193 0.624615
v 0.062500 0.741507 0.607919
v 0.108253 0.745096 0.562307
v 0.125000 0.750000 0.500000
v 0.108253 1.000000 0.437500
v 0.062500 1.000000 0.391747
v 0.000000 1.000000 0.375000
v -0.062500 1.000000 0.391747
v -0.108253 1.000000 0.437500
v -0.125000 1.000000 0.500000
v -0.108253 1.000000 0.562500
v -0.062500 1.000000 0.608253
v -0.000000 1.000000 0.625000
v 0.062500 1.000000 0.608253
v 0.108253 1.000000 0.562500
v 0.125000 1.000000 0.500000
v 0.108253 0.950981 0.437539
v 0.125000 0.950000 0.500000
v 0.062500 0.951699 0.391814
v 0.000000 0.951962 0.375077
v -0.062500 0.951699 0.391814
v -0.108253 0.950981 0.437538
v -0.125000 0.950000 0.500000
v -0.108253 0.949019 0.562461
v -0.062500 0.948301 0.608186
v -0.000000 0.948038 0.624923
v 0.062500 0.948301 0.608186
v 0.108253 0.949019 0.562462
v 0.108253 0.050981 -0.062461
v 0.125000 0.050000 0.000000
v 0.062500 0.051699 -0.108186
v 0.000000 0.051961 -0.124923
v -0.062500 0.051699 -0.108186
v -0.108253 0.050981 -0.062462
v -0.125000 0.050000 0.000000
v -0.108253 0.049019 0.062461
v -0.062500 0.048301 0.108186
v -0.000000 0.048038 0.124923
v 0.062500 0.048301 0.108186
v 0.108253 0.049019 0.062462
v 0.119077 0.000005 -0.068752
v 0.137500 0.000001 0.000000
v 0.068748 0.000013 -0.119080
v 0.000000 0.000017 -0.137500
v -0.068748 0.000013 -0.119080
v -0.119077 0.000005 -0.068753
v -0.137500 0.000001 0.000000
v -0.119077 0.000006 0.068752
v -0.068748 0.000014 0.119080
v -0.000000 0.000019 0.137500
v 0.068747 0.000014 0.119080
v 0.119077 0.000006 0.068753
v 0.119092 0.950975 0.431313
v 0.119077 0.999994 0.431247
v 0.137500 0.999999 0.500000
v 0.137500 0.949999 0.500032
v 0.068764 0.951684 0.380996
v 0.068748 0.999986 0.380920
v 0.000000 0.951943 0.362577
v 0.000000 0.999981 0.362500
v -0.068764 0.951684 0.380996
v -0.068747 0.999986 0.380920
v -0.119092 0.950975 0.431313
v -0.119077 0.999994 0.431247
v -0.137500 0.949999 0.500032
v -0.137500 0.999999 0.500000
v -0.119064 0.949014 0.568736
v -0.119077 0.999995 0.568752
v -0.068736 0.948288 0.619020
v -0.068748 0.999987 0.619080
v -0.000000 0.948021 0.637423
v -0.000000 0.999983 0.637500
v 0.068736 0.948288 0.619020
v 0.068748 0.999987 0.619080
v 0.119064 0.949014 0.568736
v 0.119077 0.999995 0.568753
v 0.119064 0.050986 -0.068736
v 0.137500 0.050001 -0.000032
v 0.068736 0.051712 -0.119020
v 0.000000 0.051979 -0.137423
v -0.068736 0.051712 -0.119020
v -0.119064 0.050986 -0.068736
v -0.137500 0.050001 -0.000032
v -0.119092 0.049025 0.068687
v -0.068764 0.048316 0.119004
v -0.000000 0.048057 0.137423
v 0.068764 0.048316 0.119004
v 0.119092 0.049025 0.068687
vn 0.9658 0.0001 -0.2593
vn 0.7065 0.0007 -0.7077
vn 0.2584 0.0013 -0.9660
vn -0.2584 0.0013 -0.9660
vn -0.7065 0.0007 -0.7077
vn -0.9658 0.0001 -0.2593
vn -0.9658 0.0001 0.2593
vn -0.7064 0.0008 0.7078
vn -0.2584 0.0014 0.9660
vn 0.2584 0.0014 0.9660
vn 0.7064 0.0008 0.7078
vn 0.9658 0.0001 0.2593
vn 0.9654 0.0416 -0.2573
vn 0.7045 0.1166 -0.7001
vn 0.2570 0.1609 -0.9529
vn -0.2570 0.1609 -0.9529
vn -0.7045 0.1166 -0.7001
vn -0.9654 0.0416 -0.2573
vn -0.9654 -0.0397 0.2577
vn -0.7041 -0.1016 0.7028
vn -0.2567 -0.1309 0.9576
vn 0.2567 -0.1309 0.9576
vn 0.7041 -0.1016 0.7028
vn 0.9654 -0.0397 0.2577
vn 0.9651 0.1189 -0.2333
vn 0.7027 0.3230 -0.6339
vn 0.2558 0.4389 -0.8614
vn -0.2558 0.4389 -0.8614
vn -0.7027 0.3230 -0.6339
vn -0.9651 0.1189 -0.2333
vn -0.9651 -0.1189 0.2333
vn -0.7027 -0.3230 0.6339
vn -0.2558 -0.4389 0.8614
vn 0.2558 -0.4389 0.8614
vn 0.7027 -0.3230 0.6339
vn 0.9651 -0.1189 0.2333
vn 0.9651 0.1851 -0.1851
vn 0.7027 0.5031 -0.5031
vn 0.2558 0.6836 -0.6836
vn -0.2558 0.6836 -0.6836
vn -0.7027 0.5031 -0.5031
vn -0.9651 0.1851 -0.1851
vn -0.9651 -0.1851 0.1851
vn -0.7027 -0.5031 0.5031
vn -0.2558 -0.6836 0.6836
vn 0.2558 -0.6836 0.6836
vn 0.7027 -0.5031 0.5031
vn 0.9651 -0.1851 0.1851
vn 0.9651 0.2333 -0.1189
vn 0.7027 0.6339 -0.3230
vn 0.2558 0.8614 -0.4389
vn -0.2558 0.8614 -0.4389
vn -0.7027 0.6339 -0.3230
vn -0.9651 0.2333 -0.1189
vn -0.9651 -0.2333 0.1189
vn -0.7027 -0.6339 0.3230
vn -0.2558 -0.8614 0.4389
vn 0.2558 -0.8614 0.4389
vn 0.7027 -0.6339 0.3230
vn 0.9651 -0.2333 0.1189
vn 0.9655 0.2568 -0.0419
vn 0.7052 0.6989 -0.1189
vn 0.2576 0.9520 -0.1653
vn -0.2576 0.9520 -0.1653
vn -0.7052 0.6989 -0.1189
vn -0.9655 0.2568 -0.0419
vn -0.9655 -0.2574 0.0394
vn -0.7044 -0.7027 0.0997
vn -0.2568 -0.9579 0.1283
vn 0.2568 -0.9579 0.1283
vn 0.7044 -0.7028 0.0997
vn 0.9655 -0.2574 0.0394
vn 0.9655 0.2574 -0.0394
vn 0.7044 0.7028 -0.0997
vn 0.2568 0.9579 -0.1283
vn -0.2568 0.9579 -0.1283
vn -0.7044 0.7028 -0.0997
vn -0.9655 0.2574 -0.0394
vn -0.9655 -0.2568 0.0419
vn -0.7052 -0.6989 0.1189
vn -0.2576 -0.9520 0.1653
vn 0.2576 -0.9520 0.1653
vn 0.7052 -0.6989 0.1189
vn 0.9655 -0.2568 0.0419
vn 0.9654 0.0397 -0.2577
vn 0.7041 0.1016 -0.7028
vn 0.2567 0.1309 -0.9576
vn -0.2567 0.1309 -0.9576
vn -0.7041 0.1016 -0.7028
vn -0.9654 0.0397 -0.2577
vn -0.9654 -0.0416 0.2573
vn -0.7045 -0.1166 0.7001
vn -0.2570 -0.1609 0.9529
vn 0.2570 -0.1609 0.9529
vn 0.7045 -0.1166 0.7001
vn 0.9654 -0.0416 0.2573
vn 0.0005 -1.0000 0.0006
vn 0.0003 1.0000 0.0001
vn 0.0005 -1.0000 -0.0006
vn 0.0041 1.0000 -0.0003
vn 0.0035 -0.9999 -0.0140
vn 0.0005 1.0000 0.0006
vn -0.0041 1.0000 -0.0003
vn -0.0003 -1.0000 -0.0001
vn -0.0003 1.0000 -0.0013
vn -0.0080 0.9999 0.0069
vn -0.0040 -0.9999 -0.0139
vn 0.0003 -1.0000 0.0013
vn 0.9658 -0.0001 0.2593
vn 0.7065 -0.0007 0.7077
vn 0.2584 -0.0013 0.9660
vn -0.2584 -0.0013 0.9660
vn -0.7065 -0.0007 0.7077
vn -0.9658 -0.0001 0.2593
vn -0.9658 -0.0001 -0.2593
vn -0.7064 -0.0008 -0.7078
vn -0.2584 -0.0014 -0.9660
vn 0.2584 -0.0014 -0.9660
vn 0.7064 -0.0008 -0.7078
vn 0.9658 -0.0001 -0.2593
vn 0.0003 1.0000 0.0012
vn -0.0040 0.9999 0.0139
vn 0.0003 1.0000 -0.0013
vn -0.0080 -0.9999 -0.0069
vn 0.0003 -1.0000 -0.0001
vn -0.0005 -1.0000 -0.0006
vn -0.0041 -1.0000 0.0003
vn -0.0003 1.0000 0.0012
vn 0.0005 1.0000 -0.0006
vn 0.0035 0.9999 0.0140
vn 0.0041 -1.0000 0.0003
vn -0.0003 -1.0000 0.0013
vn 0.9659 -0.0001 -0.2588
vn 0.7071 -0.0008 -0.7072
vn 0.2588 -0.0015 -0.9659
vn -0.2588 -0.0015 -0.9659
vn -0.7071 -0.0008 -0.7072
vn -0.9659 -0.0001 -0.2588
vn -0.9659 -0.0001 0.2590
vn -0.7069 -0.0007 0.7073
vn -0.2587 -0.0013 0.9660
vn 0.2587 -0.0013 0.9660
vn 0.7069 -0.0007 0.7073
vn 0.9659 -0.0001 0.2590
vn 0.9659 0.0001 0.2588
vn 0.7071 0.0008 0.7072
vn 0.2588 0.0015 0.9659
vn -0.2588 0.0015 0.9659
vn -0.7071 0.0008 0.7072
vn -0.9659 0.0001 0.2588
vn -0.9659 0.0001 -0.2590
vn -0.7069 0.0007 -0.7073
vn -0.2587 0.0013 -0.9660
vn 0.2587 0.0013 -0.9660
vn 0.7069 0.0007 -0.7073
vn 0.9659 0.0001 -0.2590
vn -0.0005 1.0000 -0.0006
vn 0.0070 -0.9999 -0.0081
vn 0.0080 0.9999 0.0069
vn -0.0003 -1.0000 0.0001
vn 0.0034 -1.0000 -0.0022
vn 0.0040 0.9999 0.0139
vn -0.0003 1.0000 -0.0001
vn -0.0034 -1.0000 -0.0022
vn -0.0035 0.9999 0.0140
vn 0.0003 -1.0000 -0.0012
vn 0.0003 -1.0000 0.0001
vn -0.0070 -0.9999 -0.0081
vn -0.0070 0.9999 0.0081
vn -0.0005 -1.0000 0.0006
vn -0.0003 1.0000 0.0001
vn -0.0035 -0.9999 -0.0140
vn -0.0034 1.0000 0.0022
vn 0.0003 1.0000 -0.0001
vn 0.0040 -0.9999 -0.0139
vn 0.0034 1.0000 0.0022
vn -0.0003 -1.0000 -0.0012
vn -0.0005 1.0000 0.0006
vn 0.0080 -0.9999 -0.0069
vn 0.0070 0.9999 0.0081
vt 0.255212 0.936914
vt 0.255212 0.789083
vt 0.304722 0.789083
vt 0.304722 0.936914
vt 0.205700 0.936914
vt 0.205700 0.789083
vt 0.156186 0.936914
vt 0.156186 0.789083
vt 0.106671 0.936914
vt 0.106671 0.789083
vt 0.057159 0.936914
vt 0.057159 0.789083
vt 0.007649 0.936914
vt 0.007649 0.789083
vt 0.552285 0.936914
vt 0.552285 0.789083
vt 0.601796 0.789083
vt 0.601796 0.936914
vt 0.502773 0.936914
vt 0.502773 0.789083
vt 0.453259 0.936914
vt 0.453259 0.789083
vt 0.403745 0.936914
vt 0.403745 0.789083
vt 0.354233 0.936914
vt 0.354233 0.789083
vt 0.255212 0.731265
vt 0.304722 0.731265
vt 0.205700 0.731265
vt 0.156186 0.731265
vt 0.106671 0.731265
vt 0.057159 0.731265
vt 0.007649 0.731265
vt 0.552285 0.731265
vt 0.601796 0.731265
vt 0.502773 0.731265
vt 0.453259 0.731265
vt 0.403745 0.731265
vt 0.354233 0.731265
vt 0.255212 0.673450
vt 0.304722 0.673450
vt 0.205700 0.673450
vt 0.156186 0.673450
vt 0.106671 0.673450
vt 0.057159 0.673450
vt 0.007649 0.673450
vt 0.552285 0.673450
vt 0.601796 0.673450
vt 0.502773 0.673450
vt 0.453259 0.673450
vt 0.403745 0.673450
vt 0.354233 0.673450
vt 0.255212 0.615635
vt 0.304722 0.615635
vt 0.205700 0.615635
vt 0.156186 0.615635
vt 0.106671 0.615635
vt 0.057159 0.615635
vt 0.007649 0.615635
vt 0.552285 0.615635
vt 0.601796 0.615635
vt 0.502773 0.615635
vt 0.453259 0.615635
vt 0.403745 0.615635
vt 0.354233 0.615635
vt 0.255212 0.557820
vt 0.304722 0.557820
vt 0.205700 0.557820
vt 0.156186 0.557820
vt 0.106671 0.557820
vt 0.057159 0.557820
vt 0.007649 0.557820
vt 0.552285 0.557820
vt 0.601796 0.557820
vt 0.502773 0.557820
vt 0.453259 0.557820
vt 0.403745 0.557820
vt 0.354233 0.557820
vt 0.255212 0.500000
vt 0.304722 0.500000
vt 0.205700 0.500000
vt 0.156186 0.500000
vt 0.106671 0.500000
vt 0.057159 0.500000
vt 0.007649 0.500000
vt 0.552285 0.500000
vt 0.601796 0.500000
vt 0.502773 0.500000
vt 0.453259 0.500000
vt 0.403745 0.500000
vt 0.354233 0.500000
vt 0.255212 0.442179
vt 0.304722 0.442179
vt 0.205700 0.442179
vt 0.156186 0.442179
vt 0.106671 0.442179
vt 0.057159 0.442179
vt 0.007649 0.442179
vt 0.552285 0.442179
vt 0.601796 0.442179
vt 0.502773 0.442179
vt 0.453259 0.442179
vt 0.403745 0.442179
vt 0.354233 0.442179
vt 0.255212 0.384364
vt 0.304722 0.384364
vt 0.205700 0.384364
vt 0.156186 0.384364
vt 0.106671 0.384364
vt 0.057159 0.384364
vt 0.007649 0.384364
vt 0.552285 0.384364
vt 0.601796 0.384364
vt 0.502773 0.384364
vt 0.453259 0.384364
vt 0.403745 0.384364
vt 0.354233 0.384364
vt 0.255212 0.326550
vt 0.304722 0.326550
vt 0.205700 0.326550
vt 0.156186 0.326550
vt 0.106671 0.326550
vt 0.057159 0.326550
vt 0.007649 0.326550
vt 0.552285 0.326550
vt 0.601796 0.326550
vt 0.502773 0.326550
vt 0.453259 0.326550
vt 0.403745 0.326550
vt 0.354233 0.326550
vt 0.255212 0.268735
vt 0.304722 0.268735
vt 0.205700 0.268735
vt 0.156186 0.268735
vt 0.106671 0.268735
vt 0.057159 0.268735
vt 0.007649 0.268735
vt 0.552285 0.268735
vt 0.601796 0.268735
vt 0.502773 0.268735
vt 0.453259 0.268735
vt 0.403745 0.268735
vt 0.354233 0.268735
vt 0.255212 0.210917
vt 0.304722 0.210917
vt 0.205700 0.210917
vt 0.156186 0.210917
vt 0.106671 0.210917
vt 0.057159 0.210917
vt 0.007649 0.210917
vt 0.552285 0.210917
vt 0.601796 0.210917
vt 0.502773 0.210917
vt 0.453259 0.210917
vt 0.403745 0.210917
vt 0.354233 0.210917
vt 0.403745 0.992351
vt 0.354233 0.992351
vt 0.354233 0.983112
vt 0.403745 0.983112
vt 0.304722 0.007649
vt 0.354233 0.007649
vt 0.354233 0.016888
vt 0.304722 0.016888
vt 0.255212 0.992351
vt 0.205700 0.992351
vt 0.205700 0.983112
vt 0.255212 0.983112
vt 0.502773 0.946154
vt 0.453259 0.946154
vt 0.354233 0.063086
vt 0.304722 0.063086
vt 0.304722 0.053846
vt 0.354233 0.053846
vt 0.403745 0.007649
vt 0.403745 0.016888
vt 0.403745 0.946154
vt 0.057159 0.992351
vt 0.007649 0.992351
vt 0.007649 0.983112
vt 0.057159 0.983112
vt 0.106671 0.007649
vt 0.156186 0.007649
vt 0.156186 0.016888
vt 0.106671 0.016888
vt 0.354233 0.946154
vt 0.255212 0.063086
vt 0.255212 0.053846
vt 0.453259 0.992351
vt 0.453259 0.983112
vt 0.403745 0.063086
vt 0.453259 0.063086
vt 0.502773 0.063086
vt 0.552285 0.063086
vt 0.601796 0.063086
vt 0.007649 0.063086
vt 0.057159 0.063086
vt 0.106671 0.063086
vt 0.156186 0.063086
vt 0.205700 0.063086
vt 0.453259 0.007649
vt 0.453259 0.016888
vt 0.304722 0.946154
vt 0.205700 0.007649
vt 0.205700 0.016888
vt 0.205700 0.053846
vt 0.304722 0.992351
vt 0.304722 0.983112
vt 0.106671 0.992351
vt 0.106671 0.983112
vt 0.156186 0.053846
vt 0.502773 0.007649
vt 0.502773 0.016888
vt 0.255212 0.007649
vt 0.255212 0.016888
vt 0.255212 0.946154
vt 0.106671 0.053846
vt 0.502773 0.992351
vt 0.502773 0.983112
vt 0.057159 0.053846
vt 0.057159 0.016888
vt 0.007649 0.053846
vt 0.007649 0.016888
vt 0.552285 0.053846
vt 0.552285 0.016888
vt 0.601796 0.016888
vt 0.601796 0.053846
vt 0.502773 0.053846
vt 0.453259 0.053846
vt 0.403745 0.053846
vt 0.552285 0.946154
vt 0.552285 0.983112
vt 0.601796 0.946154
vt 0.601796 0.983112
vt 0.007649 0.946154
vt 0.057159 0.946154
vt 0.106671 0.946154
vt 0.156186 0.946154
vt 0.156186 0.983112
vt 0.205700 0.946154
vt 0.057159 0.007649
vt 0.601796 0.992351
vt 0.552285 0.992351
vt 0.007649 0.007649
vt 0.156186 0.992351
vt 0.552285 0.007649
vt 0.601796 0.007649
s 0
f 169/1/1 13/2/1 24/3/1 170/4/1
f 171/5/2 14/6/2 13/2/2 169/1/2
f 172/7/3 15/8/3 14/6/3 171/5/3
f 173/9/4 16/10/4 15/8/4 172/7/4
f 174/11/5 17/12/5 16/10/5 173/9/5
f 175/13/6 18/14/6 17/12/6 174/11/6
f 176/15/7 19/16/7 18/17/7 175/18/7
f 177/19/8 20/20/8 19/16/8 176/15/8
f 178/21/9 21/22/9 20/20/9 177/19/9
f 179/23/10 22/24/10 21/22/10 178/21/10
f 180/25/11 23/26/11 22/24/11 179/23/11
f 170/4/12 24/3/12 23/26/12 180/25/12
f 13/2/13 25/27/13 36/28/13 24/3/13
f 14/6/14 26/29/14 25/27/14 13/2/14
f 15/8/15 27/30/15 26/29/15 14/6/15
f 16/10/16 28/31/16 27/30/16 15/8/16
f 17/12/17 29/32/17 28/31/17 16/10/17
f 18/14/18 30/33/18 29/32/18 17/12/18
f 19/16/19 31/34/19 30/35/19 18/17/19
f 20/20/20 32/36/20 31/34/20 19/16/20
f 21/22/21 33/37/21 32/36/21 20/20/21
f 22/24/22 34/38/22 33/37/22 21/22/22
f 23/26/23 35/39/23 34/38/23 22/24/23
f 24/3/24 36/28/24 35/39/24 23/26/24
f 25/27/25 37/40/25 48/41/25 36/28/25
f 26/29/26 38/42/26 37/40/26 25/27/26
f 27/30/27 39/43/27 38/42/27 26/29/27
f 28/31/28 40/44/28 39/43/28 27/30/28
f 29/32/29 41/45/29 40/44/29 28/31/29
f 30/33/30 42/46/30 41/45/30 29/32/30
f 31/34/31 43/47/31 42/48/31 30/35/31
f 32/36/32 44/49/32 43/47/32 31/34/32
f 33/37/33 45/50/33 44/49/33 32/36/33
f 34/38/34 46/51/34 45/50/34 33/37/34
f 35/39/35 47/52/35 46/51/35 34/38/35
f 36/28/36 48/41/36 47/52/36 35/39/36
f 37/40/37 49/53/37 60/54/37 48/41/37
f 38/42/38 50/55/38 49/53/38 37/40/38
f 39/43/39 51/56/39 50/55/39 38/42/39
f 40/44/40 52/57/40 51/56/40 39/43/40
f 41/45/41 53/58/41 52/57/41 40/44/41
f 42/46/42 54/59/42 53/58/42 41/45/42
f 43/47/43 55/60/43 54/61/43 42/48/43
f 44/49/44 56/62/44 55/60/44 43/47/44
f 45/50/45 57/63/45 56/62/45 44/49/45
f 46/51/46 58/64/46 57/63/46 45/50/46
f 47/52/47 59/65/47 58/64/47 46/51/47
f 48/41/48 60/54/48 59/65/48 47/52/48
f 49/53/49 61/66/49 72/67/49 60/54/49
f 50/55/50 62/68/50 61/66/50 49/53/50
f 51/56/51 63/69/51 62/68/51 50/55/51
f 52/57/52 64/70/52 63/69/52 51/56/52
f 53/58/53 65/71/53 64/70/53 52/57/53
f 54/59/54 66/72/54 65/71/54 53/58/54
f 55/60/55 67/73/55 66/74/55 54/61/55
f 56/62/56 68/75/56 67/73/56 55/60/56
f 57/63/57 69/76/57 68/75/57 56/62/57
f 58/64/58 70/77/58 69/76/58 57/63/58
f 59/65/59 71/78/59 70/77/59 58/64/59
f 60/54/60 72/67/60 71/78/60 59/65/60
f 61/66/61 73/79/61 84/80/61 72/67/61
f 62/68/62 74/81/62 73/79/62 61/66/62
f 63/69/63 75/82/63 74/81/63 62/68/63
f 64/70/64 76/83/64 75/82/64 63/69/64
f 65/71/65 77/84/65 76/83/65 64/70/65
f 66/72/66 78/85/66 77/84/66 65/71/66
f 67/73/67 79/86/67 78/87/67 66/74/67
f 68/75/68 80/88/68 79/86/68 67/73/68
f 69/76/69 81/89/69 80/88/69 68/75/69
f 70/77/70 82/90/70 81/89/70 69/76/70
f 71/78/71 83/91/71 82/90/71 70/77/71
f 72/67/72 84/80/72 83/91/72 71/78/72
f 73/79/73 85/92/73 96/93/73 84/80/73
f 74/81/74 86/94/74 85/92/74 73/79/74
f 75/82/75 87/95/75 86/94/75 74/81/75
f 76/83/76 88/96/76 87/95/76 75/82/76
f 77/84/77 89/97/77 88/96/77 76/83/77
f 78/85/78 90/98/78 89/97/78 77/84/78
f 79/86/79 91/99/79 90/100/79 78/87/79
f 80/88/80 92/101/80 91/99/80 79/86/80
f 81/89/81 93/102/81 92/101/81 80/88/81
f 82/90/82 94/103/82 93/102/82 81/89/82
f 83/91/83 95/104/83 94/103/83 82/90/83
f 84/80/84 96/93/84 95/104/84 83/91/84
f 85/92/49 97/105/49 108/106/49 96/93/49
f 86/94/50 98/107/50 97/105/50 85/92/50
f 87/95/51 99/108/51 98/107/51 86/94/51
f 88/96/52 100/109/52 99/108/52 87/95/52
f 89/97/53 101/110/53 100/109/53 88/96/53
f 90/98/54 102/111/54 101/110/54 89/97/54
f 91/99/55 103/112/55 102/113/55 90/100/55
f 92/101/56 104/114/56 103/112/56 91/99/56
f 93/102/57 105/115/57 104/114/57 92/101/57
f 94/103/58 106/116/58 105/115/58 93/102/58
f 95/104/59 107/117/59 106/116/59 94/103/59
f 96/93/60 108/106/60 107/117/60 95/104/60
f 97/105/37 109/118/37 120/119/37 108/106/37
f 98/107/38 110/120/38 109/118/38 97/105/38
f 99/108/39 111/121/39 110/120/39 98/107/39
f 100/109/40 112/122/40 111/121/40 99/108/40
f 101/110/41 113/123/41 112/122/41 100/109/41
f 102/111/42 114/124/42 113/123/42 101/110/42
f 103/112/43 115/125/43 114/126/43 102/113/43
f 104/114/44 116/127/44 115/125/44 103/112/44
f 105/115/45 117/128/45 116/127/45 104/114/45
f 106/116/46 118/129/46 117/128/46 105/115/46
f 107/117/47 119/130/47 118/129/47 106/116/47
f 108/106/48 120/119/48 119/130/48 107/117/48
f 109/118/25 121/131/25 132/132/25 120/119/25
f 110/120/26 122/133/26 121/131/26 109/118/26
f 111/121/27 123/134/27 122/133/27 110/120/27
f 112/122/28 124/135/28 123/134/28 111/121/28
f 113/123/29 125/136/29 124/135/29 112/122/29
f 114/124/30 126/137/30 125/136/30 113/123/30
f 115/125/31 127/138/31 126/139/31 114/126/31
f 116/127/32 128/140/32 127/138/32 115/125/32
f 117/128/33 129/141/33 128/140/33 116/127/33
f 118/129/34 130/142/34 129/141/34 117/128/34
f 119/130/35 131/143/35 130/142/35 118/129/35
f 120/119/36 132/132/36 131/143/36 119/130/36
f 121/131/85 133/144/85 144/145/85 132/132/85
f 122/133/86 134/146/86 133/144/86 121/131/86
f 123/134/87 135/147/87 134/146/87 122/133/87
f 124/135/88 136/148/88 135/147/88 123/134/88
f 125/136/89 137/149/89 136/148/89 124/135/89
f 126/137/90 138/150/90 137/149/90 125/136/90
f 127/138/91 139/151/91 138/152/91 126/139/91
f 128/140/92 140/153/92 139/151/92 127/138/92
f 129/141/93 141/154/93 140/153/93 128/140/93
f 130/142/94 142/155/94 141/154/94 129/141/94
f 131/143/95 143/156/95 142/155/95 130/142/95
f 132/132/96 144/145/96 143/156/96 131/143/96
f 10/157/97 11/158/97 192/159/97 191/160/97
f 156/161/98 155/162/98 216/163/98 195/164/98
f 1/165/99 2/166/99 183/167/99 181/168/99
f 178/21/100 177/19/100 225/169/100 226/170/100
f 168/171/101 158/172/101 196/173/101 215/174/101
f 155/162/102 154/175/102 214/176/102 216/163/102
f 179/23/103 178/21/103 226/170/103 227/177/103
f 5/178/104 6/179/104 187/180/104 186/181/104
f 148/182/105 147/183/105 200/184/105 202/185/105
f 180/25/106 179/23/106 227/177/106 228/186/106
f 158/172/107 157/187/107 193/188/107 196/173/107
f 9/189/108 10/157/108 191/160/108 190/190/108
f 144/145/109 158/172/109 168/171/109 143/156/109
f 143/156/110 168/171/110 167/191/110 142/155/110
f 142/155/111 167/191/111 166/192/111 141/154/111
f 141/154/112 166/192/112 165/193/112 140/153/112
f 140/153/113 165/193/113 164/194/113 139/151/113
f 139/151/114 164/194/114 163/195/114 138/152/114
f 138/150/115 163/196/115 162/197/115 137/149/115
f 137/149/116 162/197/116 161/198/116 136/148/116
f 136/148/117 161/198/117 160/199/117 135/147/117
f 135/147/118 160/199/118 159/200/118 134/146/118
f 134/146/119 159/200/119 157/187/119 133/144/119
f 133/144/120 157/187/120 158/172/120 144/145/120
f 154/175/121 153/201/121 212/202/121 214/176/121
f 170/4/122 180/25/122 228/186/122 218/203/122
f 147/183/123 146/204/123 198/205/123 200/184/123
f 157/187/124 159/200/124 197/206/124 193/188/124
f 12/207/125 1/165/125 181/168/125 182/208/125
f 4/209/126 5/178/126 186/181/126 185/210/126
f 159/200/127 160/199/127 199/211/127 197/206/127
f 153/201/128 152/212/128 210/213/128 212/202/128
f 146/204/129 145/214/129 194/215/129 198/205/129
f 169/1/130 170/4/130 218/203/130 217/216/130
f 160/199/131 161/198/131 201/217/131 199/211/131
f 8/218/132 9/189/132 190/190/132 189/219/132
f 193/188/133 194/215/133 195/164/133 196/173/133
f 197/206/134 198/205/134 194/215/134 193/188/134
f 199/211/135 200/184/135 198/205/135 197/206/135
f 201/217/136 202/185/136 200/184/136 199/211/136
f 203/220/137 204/221/137 202/185/137 201/217/137
f 205/222/138 206/223/138 204/221/138 203/220/138
f 207/224/139 208/225/139 206/226/139 205/227/139
f 209/228/140 210/213/140 208/225/140 207/224/140
f 211/229/141 212/202/141 210/213/141 209/228/141
f 213/230/142 214/176/142 212/202/142 211/229/142
f 215/174/143 216/163/143 214/176/143 213/230/143
f 196/173/144 195/164/144 216/163/144 215/174/144
f 182/208/145 218/203/145 228/186/145 192/159/145
f 192/159/146 228/186/146 227/177/146 191/160/146
f 191/160/147 227/177/147 226/170/147 190/190/147
f 190/190/148 226/170/148 225/169/148 189/219/148
f 189/219/149 225/169/149 224/231/149 188/232/149
f 188/232/150 224/231/150 223/233/150 187/234/150
f 187/180/151 223/235/151 222/236/151 186/181/151
f 186/181/152 222/236/152 221/237/152 185/210/152
f 185/210/153 221/237/153 220/238/153 184/239/153
f 184/239/154 220/238/154 219/240/154 183/167/154
f 183/167/155 219/240/155 217/216/155 181/168/155
f 181/168/156 217/216/156 218/203/156 182/208/156
f 149/241/157 148/182/157 202/185/157 204/221/157
f 167/191/158 168/171/158 215/174/158 213/230/158
f 177/19/159 176/15/159 224/231/159 225/169/159
f 6/242/160 7/243/160 188/232/160 187/234/160
f 166/192/161 167/191/161 213/230/161 211/229/161
f 176/15/162 175/18/162 223/233/162 224/231/162
f 150/244/163 149/241/163 204/221/163 206/223/163
f 165/193/164 166/192/164 211/229/164 209/228/164
f 175/13/165 174/11/165 222/236/165 223/235/165
f 2/166/166 3/245/166 184/239/166 183/167/166
f 11/158/167 12/207/167 182/208/167 192/159/167
f 164/194/168 165/193/168 209/228/168 207/224/168
f 174/11/169 173/9/169 221/237/169 222/236/169
f 7/243/170 8/218/170 189/219/170 188/232/170
f 151/246/171 150/247/171 206/226/171 208/225/171
f 163/195/172 164/194/172 207/224/172 205/227/172
f 173/9/173 172/7/173 220/238/173 221/237/173
f 145/214/174 156/161/174 195/164/174 194/215/174
f 162/197/175 163/196/175 205/222/175 203/220/175
f 172/7/176 171/5/176 219/240/176 220/238/176
f 3/245/177 4/209/177 185/210/177 184/239/177
f 152/212/178 151/246/178 208/225/178 210/213/178
f 161/198/179 162/197/179 203/220/179 201/217/179
f 171/5/180 169/1/180 217/216/180 219/240/180
