# Blender 5.1.2
# www.blender.org
mtllib PipeBend.mtl
o PipeBend
v 0.108253 0.062500 0.000000
v 0.062500 0.108253 0.000000
v 0.000000 0.125000 0.000000
v -0.062500 0.108253 0.000000
v -0.108253 0.062500 0.000000
v -0.125000 0.000000 0.000000
v -0.108253 -0.062500 0.000000
v -0.062500 -0.108253 0.000000
v -0.000000 -0.125000 0.000000
v 0.062500 -0.108253 0.000000
v 0.108253 -0.062500 0.000000
v 0.125000 -0.000000 0.000000
v 0.108253 0.062307 0.245096
v 0.062500 0.107919 0.241507
v 0.000000 0.124615 0.240193
v -0.062500 0.107919 0.241507
v -0.108253 0.062307 0.245096
v -0.125000 0.000000 0.250000
v -0.108253 -0.062307 0.254904
v -0.062500 -0.107919 0.258493
v -0.000000 -0.124615 0.259807
v 0.062500 -0.107920 0.258493
v 0.108253 -0.062307 0.254904
v 0.125000 -0.000000 0.250000
v 0.108253 0.071677 0.307941
v 0.062500 0.115191 0.293802
v 0.000000 0.131118 0.288627
v -0.062500 0.115191 0.293802
v -0.108253 0.071677 0.307941
v -0.125000 0.012236 0.327254
v -0.108253 -0.047205 0.346568
v -0.062500 -0.090719 0.360706
v -0.000000 -0.106646 0.365881
v 0.062500 -0.090719 0.360706
v 0.108253 -0.047205 0.346568
v 0.125000 0.012236 0.327254
v 0.108253 0.098309 0.360210
v 0.062500 0.135324 0.333317
v 0.000000 0.148873 0.323473
v -0.062500 0.135324 0.333317
v -0.108253 0.098309 0.360210
v -0.125000 0.047746 0.396946
v -0.108253 -0.002818 0.433683
v -0.062500 -0.039833 0.460576
v -0.000000 -0.053381 0.470419
v 0.062500 -0.039833 0.460576
v 0.108253 -0.002818 0.433683
v 0.125000 0.047746 0.396946
v 0.108253 0.139790 0.401691
v 0.062500 0.166683 0.364676
v 0.000000 0.176527 0.351127
v -0.062500 0.166683 0.364676
v -0.108253 0.139790 0.401691
v -0.125000 0.103054 0.452254
v -0.108253 0.066317 0.502818
v -0.062500 0.039424 0.539833
v -0.000000 0.029580 0.553381
v 0.062500 0.039424 0.539833
v 0.108253 0.066317 0.502818
v 0.125000 0.103054 0.452254
v 0.108253 0.192059 0.428323
v 0.062500 0.206198 0.384809
v 0.000000 0.211373 0.368882
v -0.062500 0.206198 0.384809
v -0.108253 0.192059 0.428323
v -0.125000 0.172746 0.487764
v -0.108253 0.153432 0.547205
v -0.062500 0.139294 0.590719
v -0.000000 0.134119 0.606646
v 0.062500 0.139294 0.590719
v 0.108253 0.153432 0.547205
v 0.125000 0.172746 0.487764
v 0.108253 0.259777 0.438269
v 0.062500 0.266934 0.393080
v 0.000000 0.269554 0.376539
v -0.062500 0.266935 0.393080
v -0.108253 0.259777 0.438269
v -0.125000 0.250000 0.500000
v -0.108253 0.240223 0.561730
v -0.062500 0.233065 0.606920
v -0.000000 0.230446 0.623461
v 0.062500 0.233065 0.606920
v 0.108253 0.240223 0.561731
v 0.125000 0.250000 0.500000
v 0.108253 0.346568 0.452795
v 0.062500 0.360706 0.409281
v 0.000000 0.365881 0.393354
v -0.062500 0.360706 0.409281
v -0.108253 0.346568 0.452795
v -0.125000 0.327254 0.512236
v -0.108253 0.307941 0.571677
v -0.062500 0.293802 0.615191
v -0.000000 0.288627 0.631118
v 0.062500 0.293802 0.615191
v 0.108253 0.307941 0.571677
v 0.125000 0.327254 0.512236
v 0.108253 0.433683 0.497182
v 0.062500 0.460576 0.460167
v 0.000000 0.470419 0.446619
v -0.062500 0.460576 0.460167
v -0.108253 0.433683 0.497182
v -0.125000 0.396946 0.547746
v -0.108253 0.360210 0.598309
v -0.062500 0.333317 0.635324
v -0.000000 0.323473 0.648873
v 0.062500 0.333317 0.635324
v 0.108253 0.360210 0.598309
v 0.125000 0.396946 0.547746
v 0.108253 0.502818 0.566317
v 0.062500 0.539833 0.539424
v 0.000000 0.553381 0.529580
v -0.062500 0.539833 0.539424
v -0.108253 0.502818 0.566317
v -0.125000 0.452254 0.603054
v -0.108253 0.401691 0.639790
v -0.062500 0.364676 0.666683
v -0.000000 0.351127 0.676527
v 0.062500 0.364676 0.666683
v 0.108253 0.401691 0.639790
v 0.125000 0.452254 0.603054
v 0.108253 0.547205 0.653432
v 0.062500 0.590719 0.639294
v 0.000000 0.606646 0.634119
v -0.062500 0.590719 0.639294
v -0.108253 0.547205 0.653432
v -0.125000 0.487764 0.672746
v -0.108253 0.428323 0.692059
v -0.062500 0.384809 0.706198
v -0.000000 0.368882 0.711373
v 0.062500 0.384809 0.706198
v 0.108253 0.428323 0.692059
v 0.125000 0.487764 0.672746
v 0.108253 0.562500 0.750000
v 0.062500 0.608253 0.750000
v 0.000000 0.625000 0.750000
v -0.062500 0.608253 0.750000
v -0.108253 0.562500 0.750000
v -0.125000 0.500000 0.750000
v -0.108253 0.437500 0.750000
v -0.062500 0.391747 0.750000
v -0.000000 0.375000 0.750000
v 0.062500 0.391747 0.750000
v 0.108253 0.437500 0.750000
v 0.125000 0.500000 0.750000
v 0.108253 0.547205 0.846568
v 0.062500 0.590719 0.860706
v 0.000000 0.606646 0.865881
v -0.062500 0.590719 0.860706
v -0.108253 0.547205 0.846568
v -0.125000 0.487764 0.827254
v -0.108253 0.428323 0.807941
v -0.062500 0.384809 0.793802
v -0.000000 0.368882 0.788627
v 0.062500 0.384809 0.793802
v 0.108253 0.428323 0.807941
v 0.125000 0.487764 0.827254
v 0.108253 0.502818 0.933683
v 0.062500 0.539833 0.960576
v 0.000000 0.553381 0.970419
v -0.062500 0.539833 0.960576
v -0.108253 0.502818 0.933683
v -0.125000 0.452254 0.896946
v -0.108253 0.401691 0.860210
v -0.062500 0.364676 0.833317
v -0.000000 0.351127 0.823473
v 0.062500 0.364676 0.833317
v 0.108253 0.401690 0.860210
v 0.125000 0.452254 0.896946
v 0.108253 0.433683 1.002818
v 0.062500 0.460576 1.039833
v 0.000000 0.470419 1.053381
v -0.062500 0.460576 1.039833
v -0.108253 0.433683 1.002818
v -0.125000 0.396946 0.952254
v -0.108253 0.360210 0.901691
v -0.062500 0.333317 0.864676
v -0.000000 0.323473 0.851127
v 0.062500 0.333317 0.864675
v 0.108253 0.360210 0.901691
v 0.125000 0.396946 0.952254
v 0.108253 0.346568 1.047205
v 0.062500 0.360706 1.090719
v 0.000000 0.365881 1.106646
v -0.062500 0.360706 1.090719
v -0.108253 0.346568 1.047205
v -0.125000 0.327254 0.987764
v -0.108253 0.307941 0.928323
v -0.062500 0.293802 0.884809
v -0.000000 0.288627 0.868882
v 0.062500 0.293802 0.884809
v 0.108253 0.307941 0.928323
v 0.125000 0.327254 0.987764
v 0.108253 0.259777 1.061730
v 0.062500 0.266934 1.106920
v 0.000000 0.269554 1.123461
v -0.062500 0.266935 1.106920
v -0.108253 0.259777 1.061731
v -0.125000 0.250000 1.000000
v -0.108253 0.240223 0.938269
v -0.062500 0.233065 0.893080
v -0.000000 0.230446 0.876539
v 0.062500 0.233065 0.893080
v 0.108253 0.240223 0.938269
v 0.125000 0.250000 1.000000
v 0.108253 0.192059 1.071677
v 0.062500 0.206198 1.115191
v 0.000000 0.211373 1.131118
v -0.062500 0.206198 1.115191
v -0.108253 0.192059 1.071677
v -0.125000 0.172746 1.012236
v -0.108253 0.153432 0.952795
v -0.062500 0.139294 0.909281
v -0.000000 0.134119 0.893354
v 0.062500 0.139294 0.909281
v 0.108253 0.153432 0.952795
v 0.125000 0.172746 1.012236
v 0.108253 0.139790 1.098309
v 0.062500 0.166683 1.135324
v 0.000000 0.176527 1.148873
v -0.062500 0.166683 1.135324
v -0.108253 0.139790 1.098309
v -0.125000 0.103054 1.047746
v -0.108253 0.066317 0.997182
v -0.062500 0.039424 0.960167
v -0.000000 0.029580 0.946618
v 0.062500 0.039424 0.960167
v 0.108253 0.066317 0.997182
v 0.125000 0.103054 1.047746
v 0.108253 0.098309 1.139790
v 0.062500 0.135324 1.166683
v 0.000000 0.148873 1.176527
v -0.062500 0.135324 1.166683
v -0.108253 0.098309 1.139790
v -0.125000 0.047746 1.103054
v -0.108253 -0.002818 1.066317
v -0.062500 -0.039833 1.039424
v -0.000000 -0.053381 1.029580
v 0.062500 -0.039833 1.039424
v 0.108253 -0.002818 1.066317
v 0.125000 0.047746 1.103053
v 0.108253 0.071677 1.192059
v 0.062500 0.115191 1.206198
v 0.000000 0.131118 1.211373
v -0.062500 0.115191 1.206198
v -0.108253 0.071677 1.192059
v -0.125000 0.012236 1.172746
v -0.108253 -0.047205 1.153432
v -0.062500 -0.090719 1.139294
v -0.000000 -0.106646 1.134118
v 0.062500 -0.090719 1.139294
v 0.108253 -0.047205 1.153432
v 0.125000 0.012236 1.172746
v 0.108253 0.062307 1.254904
v 0.062500 0.107919 1.258493
v 0.000000 0.124615 1.259807
v -0.062500 0.107919 1.258493
v -0.108253 0.062307 1.254904
v -0.125000 0.000000 1.250000
v -0.108253 -0.062307 1.245096
v -0.062500 -0.107919 1.241506
v -0.000000 -0.124615 1.240193
v 0.062500 -0.107920 1.241506
v 0.108253 -0.062307 1.245096
v 0.125000 -0.000000 1.250000
v 0.108253 0.062500 1.500000
v 0.062500 0.108253 1.500000
v 0.000000 0.125000 1.500000
v -0.062500 0.108253 1.500000
v -0.108253 0.062500 1.500000
v -0.125000 0.000000 1.500000
v -0.108253 -0.062500 1.500000
v -0.062500 -0.108253 1.500000
v -0.000000 -0.125000 1.500000
v 0.062500 -0.108253 1.500000
v 0.108253 -0.062500 1.500000
v 0.125000 -0.000000 1.500000
v 0.108253 0.062461 0.049019
v 0.125000 -0.000000 0.050000
v 0.062500 0.108186 0.048301
v 0.000000 0.124923 0.048039
v -0.062500 0.108186 0.048301
v -0.108253 0.062461 0.049019
v -0.125000 0.000000 0.050000
v -0.108253 -0.062461 0.050981
v -0.062500 -0.108186 0.051699
v -0.000000 -0.124923 0.051961
v 0.062500 -0.108186 0.051699
v 0.108253 -0.062462 0.050981
v 0.108253 0.062461 1.450981
v 0.125000 -0.000000 1.450000
v 0.062500 0.108186 1.451699
v 0.000000 0.124923 1.451961
v -0.062500 0.108186 1.451699
v -0.108253 0.062461 1.450981
v -0.125000 0.000000 1.450000
v -0.108253 -0.062461 1.449019
v -0.062500 -0.108186 1.448301
v -0.000000 -0.124923 1.448038
v 0.062500 -0.108186 1.448301
v 0.108253 -0.062462 1.449019
v 0.119077 0.068752 0.000006
v 0.137500 -0.000000 0.000001
v 0.068748 0.119080 0.000014
v 0.000000 0.137500 0.000019
v -0.068747 0.119080 0.000014
v -0.119077 0.068753 0.000006
v -0.137500 0.000000 0.000001
v -0.119077 -0.068752 0.000005
v -0.068748 -0.119080 0.000013
v -0.000000 -0.137500 0.000017
v 0.068748 -0.119080 0.000013
v 0.119077 -0.068753 0.000005
v 0.119092 0.068687 1.450975
v 0.119077 0.068752 1.499994
v 0.137500 -0.000000 1.499999
v 0.137500 -0.000032 1.449999
v 0.068764 0.119004 1.451684
v 0.068748 0.119080 1.499986
v 0.000000 0.137423 1.451943
v 0.000000 0.137500 1.499981
v -0.068764 0.119004 1.451684
v -0.068747 0.119080 1.499986
v -0.119092 0.068687 1.450975
v -0.119077 0.068753 1.499994
v -0.137500 -0.000032 1.449999
v -0.137500 0.000000 1.499999
v -0.119064 -0.068736 1.449014
v -0.119077 -0.068752 1.499995
v -0.068736 -0.119020 1.448288
v -0.068748 -0.119080 1.499987
v -0.000000 -0.137423 1.448021
v -0.000000 -0.137500 1.499983
v 0.068736 -0.119020 1.448288
v 0.068748 -0.119080 1.499987
v 0.119064 -0.068736 1.449014
v 0.119077 -0.068753 1.499995
v 0.119092 0.068687 0.049025
v 0.137500 -0.000032 0.050001
v 0.068764 0.119004 0.048316
v 0.000000 0.137423 0.048057
v -0.068764 0.119004 0.048316
v -0.119092 0.068687 0.049025
v -0.137500 -0.000032 0.050001
v -0.119064 -0.068736 0.050986
v -0.068736 -0.119020 0.051712
v -0.000000 -0.137423 0.051979
v 0.068736 -0.119020 0.051712
v 0.119064 -0.068736 0.050986
vn 0.9658 0.2593 0.0001
vn 0.7064 0.7078 0.0008
vn 0.2584 0.9660 0.0014
vn -0.2584 0.9660 0.0014
vn -0.7064 0.7078 0.0008
vn -0.9658 0.2593 0.0001
vn -0.9658 -0.2593 0.0001
vn -0.7065 -0.7077 0.0007
vn -0.2584 -0.9660 0.0013
vn 0.2584 -0.9660 0.0013
vn 0.7065 -0.7077 0.0007
vn 0.9658 -0.2593 0.0001
vn 0.9654 0.2577 -0.0397
vn 0.7041 0.7028 -0.1016
vn 0.2567 0.9576 -0.1309
vn -0.2567 0.9576 -0.1309
vn -0.7041 0.7028 -0.1016
vn -0.9654 0.2577 -0.0397
vn -0.9654 -0.2573 0.0416
vn -0.7045 -0.7001 0.1166
vn -0.2570 -0.9529 0.1609
vn 0.2570 -0.9529 0.1609
vn 0.7045 -0.7001 0.1166
vn 0.9654 -0.2573 0.0416
vn 0.9651 0.2333 -0.1189
vn 0.7027 0.6339 -0.3230
vn 0.2558 0.8614 -0.4389
vn -0.2558 0.8614 -0.4389
vn -0.7027 0.6339 -0.3230
vn -0.9651 0.2333 -0.1189
vn -0.9651 -0.2333 0.1189
vn -0.7027 -0.6339 0.3230
vn -0.2558 -0.8614 0.4389
vn 0.2558 -0.8614 0.4389
vn 0.7027 -0.6339 0.3230
vn 0.9651 -0.2333 0.1189
vn 0.9651 0.1851 -0.1851
vn 0.7027 0.5031 -0.5031
vn 0.2558 0.6836 -0.6836
vn -0.2558 0.6836 -0.6836
vn -0.7027 0.5031 -0.5031
vn -0.9651 0.1851 -0.1851
vn -0.9651 -0.1851 0.1851
vn -0.7027 -0.5031 0.5031
vn -0.2558 -0.6836 0.6836
vn 0.2558 -0.6836 0.6836
vn 0.7027 -0.5031 0.5031
vn 0.9651 -0.1851 0.1851
vn 0.9651 0.1189 -0.2333
vn 0.7027 0.3230 -0.6339
vn 0.2558 0.4389 -0.8614
vn -0.2558 0.4389 -0.8614
vn -0.7027 0.3230 -0.6339
vn -0.9651 0.1189 -0.2333
vn -0.9651 -0.1189 0.2333
vn -0.7027 -0.3230 0.6339
vn -0.2558 -0.4389 0.8614
vn 0.2558 -0.4389 0.8614
vn 0.7027 -0.3230 0.6339
vn 0.9651 -0.1189 0.2333
vn 0.9655 0.0394 -0.2574
vn 0.7044 0.0997 -0.7028
vn 0.2568 0.1283 -0.9579
vn -0.2568 0.1283 -0.9579
vn -0.7044 0.0997 -0.7028
vn -0.9655 0.0394 -0.2574
vn -0.9655 -0.0419 0.2568
vn -0.7052 -0.1189 0.6989
vn -0.2576 -0.1653 0.9520
vn 0.2576 -0.1653 0.9520
vn 0.7052 -0.1189 0.6989
vn 0.9655 -0.0419 0.2568
vn 0.9655 0.0419 -0.2568
vn 0.7052 0.1189 -0.6989
vn 0.2576 0.1653 -0.9520
vn -0.2576 0.1653 -0.9520
vn -0.7052 0.1189 -0.6989
vn -0.9655 0.0419 -0.2568
vn -0.9655 -0.0394 0.2574
vn -0.7044 -0.0997 0.7027
vn -0.2568 -0.1283 0.9579
vn 0.2568 -0.1283 0.9579
vn 0.7044 -0.0997 0.7028
vn 0.9655 -0.0394 0.2574
vn 0.9651 0.2586 -0.0410
vn 0.7027 0.7027 -0.1113
vn 0.2558 0.9548 -0.1512
vn -0.2558 0.9548 -0.1512
vn -0.7027 0.7027 -0.1113
vn -0.9651 0.2586 -0.0410
vn -0.9651 -0.2586 0.0410
vn -0.7027 -0.7027 0.1113
vn -0.2558 -0.9548 0.1512
vn 0.2558 -0.9548 0.1512
vn 0.7027 -0.7027 0.1113
vn 0.9651 -0.2586 0.0410
vn 0.9651 0.2586 0.0410
vn 0.7027 0.7027 0.1113
vn 0.2558 0.9548 0.1512
vn -0.2558 0.9548 0.1512
vn -0.7027 0.7027 0.1113
vn -0.9651 0.2586 0.0410
vn -0.9651 -0.2586 -0.0410
vn -0.7027 -0.7027 -0.1113
vn -0.2558 -0.9548 -0.1512
vn 0.2558 -0.9548 -0.1512
vn 0.7027 -0.7027 -0.1113
vn 0.9651 -0.2586 -0.0410
vn 0.9651 0.2333 0.1189
vn 0.7027 0.6339 0.3230
vn 0.2558 0.8614 0.4389
vn -0.2558 0.8614 0.4389
vn -0.7027 0.6339 0.3230
vn -0.9651 0.2333 0.1189
vn -0.9651 -0.2333 -0.1189
vn -0.7027 -0.6339 -0.3230
vn -0.2558 -0.8614 -0.4389
vn 0.2558 -0.8614 -0.4389
vn 0.7027 -0.6339 -0.3230
vn 0.9651 -0.2333 -0.1189
vn 0.9651 0.1851 0.1851
vn 0.7027 0.5031 0.5031
vn 0.2558 0.6836 0.6836
vn -0.2558 0.6836 0.6836
vn -0.7027 0.5031 0.5031
vn -0.9651 0.1851 0.1851
vn -0.9651 -0.1851 -0.1851
vn -0.7027 -0.5031 -0.5031
vn -0.2558 -0.6836 -0.6836
vn 0.2558 -0.6836 -0.6836
vn 0.7027 -0.5031 -0.5031
vn 0.9651 -0.1851 -0.1851
vn 0.9651 0.1189 0.2333
vn 0.7027 0.3230 0.6339
vn 0.2558 0.4389 0.8614
vn -0.2558 0.4389 0.8614
vn -0.7027 0.3230 0.6339
vn -0.9651 0.1189 0.2333
vn -0.9651 -0.1189 -0.2333
vn -0.7027 -0.3230 -0.6339
vn -0.2558 -0.4389 -0.8614
vn 0.2558 -0.4389 -0.8614
vn 0.7027 -0.3230 -0.6339
vn 0.9651 -0.1189 -0.2333
vn 0.9655 0.0419 0.2568
vn 0.7052 0.1189 0.6989
vn 0.2576 0.1653 0.9520
vn -0.2576 0.1653 0.9520
vn -0.7052 0.1189 0.6989
vn -0.9655 0.0419 0.2568
vn -0.9655 -0.0394 -0.2574
vn -0.7044 -0.0997 -0.7028
vn -0.2568 -0.1283 -0.9579
vn 0.2568 -0.1283 -0.9579
vn 0.7044 -0.0997 -0.7028
vn 0.9655 -0.0394 -0.2574
vn 0.9655 0.0394 0.2574
vn 0.7044 0.0997 0.7028
vn 0.2568 0.1283 0.9579
vn -0.2568 0.1283 0.9579
vn -0.7044 0.0997 0.7028
vn -0.9655 0.0394 0.2574
vn -0.9655 -0.0419 -0.2568
vn -0.7052 -0.1189 -0.6989
vn -0.2576 -0.1653 -0.9520
vn 0.2576 -0.1653 -0.9520
vn 0.7052 -0.1189 -0.6989
vn 0.9655 -0.0419 -0.2568
vn 0.9654 0.2577 0.0397
vn 0.7041 0.7028 0.1016
vn 0.2567 0.9576 0.1309
vn -0.2567 0.9576 0.1309
vn -0.7041 0.7028 0.1016
vn -0.9654 0.2577 0.0397
vn -0.9654 -0.2573 -0.0416
vn -0.7045 -0.7001 -0.1166
vn -0.2570 -0.9529 -0.1609
vn 0.2570 -0.9529 -0.1609
vn 0.7045 -0.7001 -0.1166
vn 0.9654 -0.2573 -0.0416
vn 0.0005 0.0006 1.0000
vn -0.0040 0.0139 -0.9999
vn 0.0041 -0.0003 1.0000
vn -0.0003 0.0013 -1.0000
vn -0.0080 0.0069 -0.9999
vn 0.0080 0.0069 0.9999
vn -0.0005 -0.0006 1.0000
vn -0.0041 -0.0003 -1.0000
vn -0.0005 -0.0006 -1.0000
vn 0.0040 0.0139 0.9999
vn 0.0003 0.0001 1.0000
vn 0.0041 -0.0003 -1.0000
vn -0.0035 0.0140 0.9999
vn -0.0003 -0.0001 1.0000
vn 0.0003 -0.0001 -1.0000
vn 0.0003 0.0013 -1.0000
vn 0.0080 0.0069 -0.9999
vn -0.0070 0.0081 0.9999
vn 0.0040 0.0139 -0.9999
vn -0.0003 -0.0001 -1.0000
vn -0.0034 0.0022 1.0000
vn -0.0003 0.0001 1.0000
vn -0.0035 0.0140 -0.9999
vn 0.0034 0.0022 1.0000
vn 0.9658 -0.2593 -0.0001
vn 0.7065 -0.7077 -0.0007
vn 0.2584 -0.9660 -0.0013
vn -0.2584 -0.9660 -0.0013
vn -0.7065 -0.7077 -0.0007
vn -0.9658 -0.2593 -0.0001
vn -0.9658 0.2593 -0.0001
vn -0.7064 0.7078 -0.0008
vn -0.2584 0.9660 -0.0014
vn 0.2584 0.9660 -0.0014
vn 0.7064 0.7078 -0.0008
vn 0.9658 0.2593 -0.0001
vn 0.9659 0.2588 -0.0001
vn 0.7071 0.7072 -0.0008
vn 0.2588 0.9659 -0.0015
vn -0.2588 0.9659 -0.0015
vn -0.7071 0.7072 -0.0008
vn -0.9659 0.2588 -0.0001
vn -0.9659 -0.2590 -0.0001
vn -0.7069 -0.7073 -0.0007
vn -0.2587 -0.9660 -0.0013
vn 0.2587 -0.9660 -0.0013
vn 0.7069 -0.7073 -0.0007
vn 0.9659 -0.2590 -0.0001
vn 0.9659 -0.2590 0.0001
vn 0.7069 -0.7073 0.0007
vn 0.2587 -0.9660 0.0013
vn -0.2587 -0.9660 0.0013
vn -0.7069 -0.7073 0.0007
vn -0.9659 -0.2590 0.0001
vn -0.9659 0.2588 0.0001
vn -0.7071 0.7072 0.0008
vn -0.2588 0.9659 0.0015
vn 0.2588 0.9659 0.0015
vn 0.7071 0.7072 0.0008
vn 0.9659 0.2588 0.0001
vn -0.0003 -0.0012 1.0000
vn -0.0041 -0.0003 1.0000
vn -0.0003 -0.0012 -1.0000
vn -0.0080 0.0069 0.9999
vn 0.0003 0.0013 1.0000
vn -0.0005 0.0006 -1.0000
vn 0.0035 0.0140 -0.9999
vn 0.0003 0.0001 -1.0000
vn 0.0003 -0.0012 1.0000
vn -0.0040 0.0139 0.9999
vn 0.0070 0.0080 -0.9999
vn 0.0003 -0.0012 -1.0000
vn -0.0003 0.0013 1.0000
vn 0.0034 0.0022 -1.0000
vn 0.0005 -0.0006 1.0000
vn -0.0003 0.0001 -1.0000
vn 0.0035 0.0140 0.9999
vn -0.0034 0.0022 -1.0000
vn 0.0003 -0.0001 1.0000
vn -0.0005 0.0006 1.0000
vn 0.0070 0.0081 0.9999
vn -0.0070 0.0081 -0.9999
vn 0.0005 0.0006 -1.0000
vn 0.0005 -0.0006 -1.0000
vt 0.484894 0.957870
vt 0.484894 0.864636
vt 0.528323 0.864636
vt 0.528323 0.957870
vt 0.441464 0.957870
vt 0.441464 0.864636
vt 0.398032 0.957870
vt 0.398032 0.864636
vt 0.354601 0.957870
vt 0.354601 0.864636
vt 0.311171 0.957870
vt 0.311171 0.864636
vt 0.267742 0.957870
vt 0.267742 0.864636
vt 0.224314 0.957870
vt 0.224314 0.864636
vt 0.180885 0.957870
vt 0.180885 0.864636
vt 0.137455 0.957870
vt 0.137455 0.864636
vt 0.094025 0.957870
vt 0.094025 0.864636
vt 0.050595 0.957870
vt 0.050595 0.864636
vt 0.007167 0.957870
vt 0.007167 0.864636
vt 0.484894 0.828171
vt 0.528323 0.828171
vt 0.441464 0.828171
vt 0.398032 0.828171
vt 0.354601 0.828171
vt 0.311171 0.828171
vt 0.267742 0.828171
vt 0.224314 0.828171
vt 0.180885 0.828171
vt 0.137455 0.828171
vt 0.094025 0.828171
vt 0.050595 0.828171
vt 0.007167 0.828171
vt 0.484894 0.791708
vt 0.528323 0.791708
vt 0.441464 0.791708
vt 0.398032 0.791708
vt 0.354601 0.791708
vt 0.311171 0.791708
vt 0.267742 0.791708
vt 0.224314 0.791708
vt 0.180885 0.791708
vt 0.137455 0.791708
vt 0.094025 0.791708
vt 0.050595 0.791708
vt 0.007167 0.791708
vt 0.484894 0.755246
vt 0.528323 0.755246
vt 0.441464 0.755246
vt 0.398032 0.755246
vt 0.354601 0.755246
vt 0.311171 0.755246
vt 0.267742 0.755246
vt 0.224314 0.755246
vt 0.180885 0.755246
vt 0.137455 0.755246
vt 0.094025 0.755246
vt 0.050595 0.755246
vt 0.007167 0.755246
vt 0.484894 0.718783
vt 0.528323 0.718783
vt 0.441464 0.718783
vt 0.398032 0.718783
vt 0.354601 0.718783
vt 0.311171 0.718783
vt 0.267742 0.718783
vt 0.224314 0.718783
vt 0.180885 0.718783
vt 0.137455 0.718783
vt 0.094025 0.718783
vt 0.050595 0.718783
vt 0.007167 0.718783
vt 0.484894 0.682317
vt 0.528323 0.682317
vt 0.441464 0.682317
vt 0.398032 0.682317
vt 0.354601 0.682317
vt 0.311171 0.682317
vt 0.267742 0.682317
vt 0.224314 0.682317
vt 0.180885 0.682317
vt 0.137455 0.682317
vt 0.094025 0.682317
vt 0.050595 0.682317
vt 0.007167 0.682317
vt 0.484894 0.645850
vt 0.528323 0.645850
vt 0.441464 0.645850
vt 0.398032 0.645850
vt 0.354601 0.645850
vt 0.311171 0.645850
vt 0.267742 0.645850
vt 0.224314 0.645850
vt 0.180885 0.645850
vt 0.137455 0.645850
vt 0.094025 0.645850
vt 0.050595 0.645850
vt 0.007167 0.645850
vt 0.484894 0.609388
vt 0.528323 0.609388
vt 0.441464 0.609388
vt 0.398032 0.609388
vt 0.354601 0.609388
vt 0.311171 0.609388
vt 0.267742 0.609388
vt 0.224314 0.609388
vt 0.180885 0.609388
vt 0.137455 0.609388
vt 0.094025 0.609388
vt 0.050595 0.609388
vt 0.007167 0.609388
vt 0.484894 0.572925
vt 0.528323 0.572925
vt 0.441464 0.572925
vt 0.398032 0.572925
vt 0.354601 0.572925
vt 0.311171 0.572925
vt 0.267742 0.572925
vt 0.224314 0.572925
vt 0.180885 0.572925
vt 0.137455 0.572925
vt 0.094025 0.572925
vt 0.050595 0.572925
vt 0.007167 0.572925
vt 0.484894 0.536463
vt 0.528323 0.536463
vt 0.441464 0.536463
vt 0.398032 0.536463
vt 0.354601 0.536463
vt 0.311171 0.536463
vt 0.267742 0.536463
vt 0.224314 0.536463
vt 0.180885 0.536463
vt 0.137455 0.536463
vt 0.094025 0.536463
vt 0.050595 0.536463
vt 0.007167 0.536463
vt 0.484894 0.500000
vt 0.528323 0.500000
vt 0.441464 0.500000
vt 0.398032 0.500000
vt 0.354601 0.500000
vt 0.311171 0.500000
vt 0.267742 0.500000
vt 0.224314 0.500000
vt 0.180885 0.500000
vt 0.137455 0.500000
vt 0.094025 0.500000
vt 0.050595 0.500000
vt 0.007167 0.500000
vt 0.484894 0.463537
vt 0.528323 0.463537
vt 0.441464 0.463537
vt 0.398032 0.463537
vt 0.354601 0.463537
vt 0.311171 0.463537
vt 0.267742 0.463537
vt 0.224314 0.463537
vt 0.180885 0.463537
vt 0.137455 0.463537
vt 0.094025 0.463537
vt 0.050595 0.463537
vt 0.007167 0.463537
vt 0.484894 0.427075
vt 0.528323 0.427075
vt 0.441464 0.427075
vt 0.398032 0.427075
vt 0.354601 0.427075
vt 0.311171 0.427075
vt 0.267742 0.427075
vt 0.224314 0.427075
vt 0.180885 0.427075
vt 0.137455 0.427075
vt 0.094025 0.427075
vt 0.050595 0.427075
vt 0.007167 0.427075
vt 0.484894 0.390612
vt 0.528323 0.390612
vt 0.441464 0.390612
vt 0.398032 0.390612
vt 0.354601 0.390612
vt 0.311171 0.390612
vt 0.267742 0.390612
vt 0.224314 0.390612
vt 0.180885 0.390612
vt 0.137455 0.390612
vt 0.094025 0.390612
vt 0.050595 0.390612
vt 0.007167 0.390612
vt 0.484894 0.354149
vt 0.528323 0.354149
vt 0.441464 0.354149
vt 0.398032 0.354149
vt 0.354601 0.354149
vt 0.311171 0.354149
vt 0.267742 0.354149
vt 0.224314 0.354149
vt 0.180885 0.354149
vt 0.137455 0.354149
vt 0.094025 0.354149
vt 0.050595 0.354149
vt 0.007167 0.354149
vt 0.484894 0.317683
vt 0.528323 0.317683
vt 0.441464 0.317683
vt 0.398032 0.317683
vt 0.354601 0.317683
vt 0.311171 0.317683
vt 0.267742 0.317683
vt 0.224314 0.317683
vt 0.180885 0.317683
vt 0.137455 0.317683
vt 0.094025 0.317683
vt 0.050595 0.317683
vt 0.007167 0.317683
vt 0.484894 0.281217
vt 0.528323 0.281217
vt 0.441464 0.281217
vt 0.398032 0.281217
vt 0.354601 0.281217
vt 0.311171 0.281217
vt 0.267742 0.281217
vt 0.224314 0.281217
vt 0.180885 0.281217
vt 0.137455 0.281217
vt 0.094025 0.281217
vt 0.050595 0.281217
vt 0.007167 0.281217
vt 0.484894 0.244754
vt 0.528323 0.244754
vt 0.441464 0.244754
vt 0.398032 0.244754
vt 0.354601 0.244754
vt 0.311171 0.244754
vt 0.267742 0.244754
vt 0.224314 0.244754
vt 0.180885 0.244754
vt 0.137455 0.244754
vt 0.094025 0.244754
vt 0.050595 0.244754
vt 0.007167 0.244754
vt 0.484894 0.208292
vt 0.528323 0.208292
vt 0.441464 0.208292
vt 0.398032 0.208292
vt 0.354601 0.208292
vt 0.311171 0.208292
vt 0.267742 0.208292
vt 0.224314 0.208292
vt 0.180885 0.208292
vt 0.137455 0.208292
vt 0.094025 0.208292
vt 0.050595 0.208292
vt 0.007167 0.208292
vt 0.484894 0.171829
vt 0.528323 0.171829
vt 0.441464 0.171829
vt 0.398032 0.171829
vt 0.354601 0.171829
vt 0.311171 0.171829
vt 0.267742 0.171829
vt 0.224314 0.171829
vt 0.180885 0.171829
vt 0.137455 0.171829
vt 0.094025 0.171829
vt 0.050595 0.171829
vt 0.007167 0.171829
vt 0.484894 0.135364
vt 0.528323 0.135364
vt 0.441464 0.135364
vt 0.398032 0.135364
vt 0.354601 0.135364
vt 0.311171 0.135364
vt 0.267742 0.135364
vt 0.224314 0.135364
vt 0.180885 0.135364
vt 0.137455 0.135364
vt 0.094025 0.135364
vt 0.050595 0.135364
vt 0.007167 0.135364
vt 0.441464 0.007167
vt 0.484894 0.007167
vt 0.484894 0.012994
vt 0.441464 0.012994
vt 0.528323 0.042130
vt 0.484894 0.042130
vt 0.484894 0.036303
vt 0.528323 0.036303
vt 0.398032 0.963697
vt 0.354601 0.963697
vt 0.398032 0.992833
vt 0.354601 0.992833
vt 0.354601 0.987006
vt 0.398032 0.987006
vt 0.441464 0.042130
vt 0.441464 0.036303
vt 0.311171 0.963697
vt 0.180885 0.007167
vt 0.224314 0.007167
vt 0.224314 0.012994
vt 0.180885 0.012994
vt 0.398032 0.042130
vt 0.398032 0.036303
vt 0.224314 0.992833
vt 0.180885 0.992833
vt 0.180885 0.987006
vt 0.224314 0.987006
vt 0.267742 0.963697
vt 0.528323 0.007167
vt 0.528323 0.012994
vt 0.354601 0.042130
vt 0.354601 0.036303
vt 0.224314 0.963697
vt 0.267742 0.007167
vt 0.267742 0.012994
vt 0.050595 0.992833
vt 0.007167 0.992833
vt 0.007167 0.987006
vt 0.050595 0.987006
vt 0.441464 0.992833
vt 0.441464 0.987006
vt 0.311171 0.042130
vt 0.311171 0.036303
vt 0.180885 0.963697
vt 0.267742 0.042130
vt 0.267742 0.036303
vt 0.267742 0.992833
vt 0.267742 0.987006
vt 0.137455 0.963697
vt 0.311171 0.007167
vt 0.311171 0.012994
vt 0.224314 0.042130
vt 0.224314 0.036303
vt 0.094025 0.963697
vt 0.007167 0.042130
vt 0.050595 0.042130
vt 0.094025 0.042130
vt 0.137455 0.042130
vt 0.180885 0.042130
vt 0.398032 0.012994
vt 0.354601 0.012994
vt 0.180885 0.036303
vt 0.137455 0.036303
vt 0.137455 0.012994
vt 0.094025 0.036303
vt 0.094025 0.012994
vt 0.050595 0.036303
vt 0.050595 0.012994
vt 0.007167 0.036303
vt 0.007167 0.012994
vt 0.007167 0.963697
vt 0.050595 0.963697
vt 0.094025 0.987006
vt 0.137455 0.987006
vt 0.311171 0.987006
vt 0.441464 0.963697
vt 0.484894 0.963697
vt 0.484894 0.987006
vt 0.528323 0.963697
vt 0.528323 0.987006
vt 0.137455 0.007167
vt 0.137455 0.992833
vt 0.398032 0.007167
vt 0.311171 0.992833
vt 0.528323 0.992833
vt 0.484894 0.992833
vt 0.094025 0.007167
vt 0.094025 0.992833
vt 0.354601 0.007167
vt 0.050595 0.007167
vt 0.007167 0.007167
s 0
f 277/1/1 13/2/1 24/3/1 278/4/1
f 279/5/2 14/6/2 13/2/2 277/1/2
f 280/7/3 15/8/3 14/6/3 279/5/3
f 281/9/4 16/10/4 15/8/4 280/7/4
f 282/11/5 17/12/5 16/10/5 281/9/5
f 283/13/6 18/14/6 17/12/6 282/11/6
f 284/15/7 19/16/7 18/14/7 283/13/7
f 285/17/8 20/18/8 19/16/8 284/15/8
f 286/19/9 21/20/9 20/18/9 285/17/9
f 287/21/10 22/22/10 21/20/10 286/19/10
f 288/23/11 23/24/11 22/22/11 287/21/11
f 278/25/12 24/26/12 23/24/12 288/23/12
f 13/2/13 25/27/13 36/28/13 24/3/13
f 14/6/14 26/29/14 25/27/14 13/2/14
f 15/8/15 27/30/15 26/29/15 14/6/15
f 16/10/16 28/31/16 27/30/16 15/8/16
f 17/12/17 29/32/17 28/31/17 16/10/17
f 18/14/18 30/33/18 29/32/18 17/12/18
f 19/16/19 31/34/19 30/33/19 18/14/19
f 20/18/20 32/35/20 31/34/20 19/16/20
f 21/20/21 33/36/21 32/35/21 20/18/21
f 22/22/22 34/37/22 33/36/22 21/20/22
f 23/24/23 35/38/23 34/37/23 22/22/23
f 24/26/24 36/39/24 35/38/24 23/24/24
f 25/27/25 37/40/25 48/41/25 36/28/25
f 26/29/26 38/42/26 37/40/26 25/27/26
f 27/30/27 39/43/27 38/42/27 26/29/27
f 28/31/28 40/44/28 39/43/28 27/30/28
f 29/32/29 41/45/29 40/44/29 28/31/29
f 30/33/30 42/46/30 41/45/30 29/32/30
f 31/34/31 43/47/31 42/46/31 30/33/31
f 32/35/32 44/48/32 43/47/32 31/34/32
f 33/36/33 45/49/33 44/48/33 32/35/33
f 34/37/34 46/50/34 45/49/34 33/36/34
f 35/38/35 47/51/35 46/50/35 34/37/35
f 36/39/36 48/52/36 47/51/36 35/38/36
f 37/40/37 49/53/37 60/54/37 48/41/37
f 38/42/38 50/55/38 49/53/38 37/40/38
f 39/43/39 51/56/39 50/55/39 38/42/39
f 40/44/40 52/57/40 51/56/40 39/43/40
f 41/45/41 53/58/41 52/57/41 40/44/41
f 42/46/42 54/59/42 53/58/42 41/45/42
f 43/47/43 55/60/43 54/59/43 42/46/43
f 44/48/44 56/61/44 55/60/44 43/47/44
f 45/49/45 57/62/45 56/61/45 44/48/45
f 46/50/46 58/63/46 57/62/46 45/49/46
f 47/51/47 59/64/47 58/63/47 46/50/47
f 48/52/48 60/65/48 59/64/48 47/51/48
f 49/53/49 61/66/49 72/67/49 60/54/49
f 50/55/50 62/68/50 61/66/50 49/53/50
f 51/56/51 63/69/51 62/68/51 50/55/51
f 52/57/52 64/70/52 63/69/52 51/56/52
f 53/58/53 65/71/53 64/70/53 52/57/53
f 54/59/54 66/72/54 65/71/54 53/58/54
f 55/60/55 67/73/55 66/72/55 54/59/55
f 56/61/56 68/74/56 67/73/56 55/60/56
f 57/62/57 69/75/57 68/74/57 56/61/57
f 58/63/58 70/76/58 69/75/58 57/62/58
f 59/64/59 71/77/59 70/76/59 58/63/59
f 60/65/60 72/78/60 71/77/60 59/64/60
f 61/66/61 73/79/61 84/80/61 72/67/61
f 62/68/62 74/81/62 73/79/62 61/66/62
f 63/69/63 75/82/63 74/81/63 62/68/63
f 64/70/64 76/83/64 75/82/64 63/69/64
f 65/71/65 77/84/65 76/83/65 64/70/65
f 66/72/66 78/85/66 77/84/66 65/71/66
f 67/73/67 79/86/67 78/85/67 66/72/67
f 68/74/68 80/87/68 79/86/68 67/73/68
f 69/75/69 81/88/69 80/87/69 68/74/69
f 70/76/70 82/89/70 81/88/70 69/75/70
f 71/77/71 83/90/71 82/89/71 70/76/71
f 72/78/72 84/91/72 83/90/72 71/77/72
f 73/79/73 85/92/73 96/93/73 84/80/73
f 74/81/74 86/94/74 85/92/74 73/79/74
f 75/82/75 87/95/75 86/94/75 74/81/75
f 76/83/76 88/96/76 87/95/76 75/82/76
f 77/84/77 89/97/77 88/96/77 76/83/77
f 78/85/78 90/98/78 89/97/78 77/84/78
f 79/86/79 91/99/79 90/98/79 78/85/79
f 80/87/80 92/100/80 91/99/80 79/86/80
f 81/88/81 93/101/81 92/100/81 80/87/81
f 82/89/82 94/102/82 93/101/82 81/88/82
f 83/90/83 95/103/83 94/102/83 82/89/83
f 84/91/84 96/104/84 95/103/84 83/90/84
f 85/92/49 97/105/49 108/106/49 96/93/49
f 86/94/50 98/107/50 97/105/50 85/92/50
f 87/95/51 99/108/51 98/107/51 86/94/51
f 88/96/52 100/109/52 99/108/52 87/95/52
f 89/97/53 101/110/53 100/109/53 88/96/53
f 90/98/54 102/111/54 101/110/54 89/97/54
f 91/99/55 103/112/55 102/111/55 90/98/55
f 92/100/56 104/113/56 103/112/56 91/99/56
f 93/101/57 105/114/57 104/113/57 92/100/57
f 94/102/58 106/115/58 105/114/58 93/101/58
f 95/103/59 107/116/59 106/115/59 94/102/59
f 96/104/60 108/117/60 107/116/60 95/103/60
f 97/105/37 109/118/37 120/119/37 108/106/37
f 98/107/38 110/120/38 109/118/38 97/105/38
f 99/108/39 111/121/39 110/120/39 98/107/39
f 100/109/40 112/122/40 111/121/40 99/108/40
f 101/110/41 113/123/41 112/122/41 100/109/41
f 102/111/42 114/124/42 113/123/42 101/110/42
f 103/112/43 115/125/43 114/124/43 102/111/43
f 104/113/44 116/126/44 115/125/44 103/112/44
f 105/114/45 117/127/45 116/126/45 104/113/45
f 106/115/46 118/128/46 117/127/46 105/114/46
f 107/116/47 119/129/47 118/128/47 106/115/47
f 108/117/48 120/130/48 119/129/48 107/116/48
f 109/118/25 121/131/25 132/132/25 120/119/25
f 110/120/26 122/133/26 121/131/26 109/118/26
f 111/121/27 123/134/27 122/133/27 110/120/27
f 112/122/28 124/135/28 123/134/28 111/121/28
f 113/123/29 125/136/29 124/135/29 112/122/29
f 114/124/30 126/137/30 125/136/30 113/123/30
f 115/125/31 127/138/31 126/137/31 114/124/31
f 116/126/32 128/139/32 127/138/32 115/125/32
f 117/127/33 129/140/33 128/139/33 116/126/33
f 118/128/34 130/141/34 129/140/34 117/127/34
f 119/129/35 131/142/35 130/141/35 118/128/35
f 120/130/36 132/143/36 131/142/36 119/129/36
f 121/131/85 133/144/85 144/145/85 132/132/85
f 122/133/86 134/146/86 133/144/86 121/131/86
f 123/134/87 135/147/87 134/146/87 122/133/87
f 124/135/88 136/148/88 135/147/88 123/134/88
f 125/136/89 137/149/89 136/148/89 124/135/89
f 126/137/90 138/150/90 137/149/90 125/136/90
f 127/138/91 139/151/91 138/150/91 126/137/91
f 128/139/92 140/152/92 139/151/92 127/138/92
f 129/140/93 141/153/93 140/152/93 128/139/93
f 130/141/94 142/154/94 141/153/94 129/140/94
f 131/142/95 143/155/95 142/154/95 130/141/95
f 132/143/96 144/156/96 143/155/96 131/142/96
f 133/144/97 145/157/97 156/158/97 144/145/97
f 134/146/98 146/159/98 145/157/98 133/144/98
f 135/147/99 147/160/99 146/159/99 134/146/99
f 136/148/100 148/161/100 147/160/100 135/147/100
f 137/149/101 149/162/101 148/161/101 136/148/101
f 138/150/102 150/163/102 149/162/102 137/149/102
f 139/151/103 151/164/103 150/163/103 138/150/103
f 140/152/104 152/165/104 151/164/104 139/151/104
f 141/153/105 153/166/105 152/165/105 140/152/105
f 142/154/106 154/167/106 153/166/106 141/153/106
f 143/155/107 155/168/107 154/167/107 142/154/107
f 144/156/108 156/169/108 155/168/108 143/155/108
f 145/157/109 157/170/109 168/171/109 156/158/109
f 146/159/110 158/172/110 157/170/110 145/157/110
f 147/160/111 159/173/111 158/172/111 146/159/111
f 148/161/112 160/174/112 159/173/112 147/160/112
f 149/162/113 161/175/113 160/174/113 148/161/113
f 150/163/114 162/176/114 161/175/114 149/162/114
f 151/164/115 163/177/115 162/176/115 150/163/115
f 152/165/116 164/178/116 163/177/116 151/164/116
f 153/166/117 165/179/117 164/178/117 152/165/117
f 154/167/118 166/180/118 165/179/118 153/166/118
f 155/168/119 167/181/119 166/180/119 154/167/119
f 156/169/120 168/182/120 167/181/120 155/168/120
f 157/170/121 169/183/121 180/184/121 168/171/121
f 158/172/122 170/185/122 169/183/122 157/170/122
f 159/173/123 171/186/123 170/185/123 158/172/123
f 160/174/124 172/187/124 171/186/124 159/173/124
f 161/175/125 173/188/125 172/187/125 160/174/125
f 162/176/126 174/189/126 173/188/126 161/175/126
f 163/177/127 175/190/127 174/189/127 162/176/127
f 164/178/128 176/191/128 175/190/128 163/177/128
f 165/179/129 177/192/129 176/191/129 164/178/129
f 166/180/130 178/193/130 177/192/130 165/179/130
f 167/181/131 179/194/131 178/193/131 166/180/131
f 168/182/132 180/195/132 179/194/132 167/181/132
f 169/183/133 181/196/133 192/197/133 180/184/133
f 170/185/134 182/198/134 181/196/134 169/183/134
f 171/186/135 183/199/135 182/198/135 170/185/135
f 172/187/136 184/200/136 183/199/136 171/186/136
f 173/188/137 185/201/137 184/200/137 172/187/137
f 174/189/138 186/202/138 185/201/138 173/188/138
f 175/190/139 187/203/139 186/202/139 174/189/139
f 176/191/140 188/204/140 187/203/140 175/190/140
f 177/192/141 189/205/141 188/204/141 176/191/141
f 178/193/142 190/206/142 189/205/142 177/192/142
f 179/194/143 191/207/143 190/206/143 178/193/143
f 180/195/144 192/208/144 191/207/144 179/194/144
f 181/196/145 193/209/145 204/210/145 192/197/145
f 182/198/146 194/211/146 193/209/146 181/196/146
f 183/199/147 195/212/147 194/211/147 182/198/147
f 184/200/148 196/213/148 195/212/148 183/199/148
f 185/201/149 197/214/149 196/213/149 184/200/149
f 186/202/150 198/215/150 197/214/150 185/201/150
f 187/203/151 199/216/151 198/215/151 186/202/151
f 188/204/152 200/217/152 199/216/152 187/203/152
f 189/205/153 201/218/153 200/217/153 188/204/153
f 190/206/154 202/219/154 201/218/154 189/205/154
f 191/207/155 203/220/155 202/219/155 190/206/155
f 192/208/156 204/221/156 203/220/156 191/207/156
f 193/209/157 205/222/157 216/223/157 204/210/157
f 194/211/158 206/224/158 205/222/158 193/209/158
f 195/212/159 207/225/159 206/224/159 194/211/159
f 196/213/160 208/226/160 207/225/160 195/212/160
f 197/214/161 209/227/161 208/226/161 196/213/161
f 198/215/162 210/228/162 209/227/162 197/214/162
f 199/216/163 211/229/163 210/228/163 198/215/163
f 200/217/164 212/230/164 211/229/164 199/216/164
f 201/218/165 213/231/165 212/230/165 200/217/165
f 202/219/166 214/232/166 213/231/166 201/218/166
f 203/220/167 215/233/167 214/232/167 202/219/167
f 204/221/168 216/234/168 215/233/168 203/220/168
f 205/222/133 217/235/133 228/236/133 216/223/133
f 206/224/134 218/237/134 217/235/134 205/222/134
f 207/225/135 219/238/135 218/237/135 206/224/135
f 208/226/136 220/239/136 219/238/136 207/225/136
f 209/227/137 221/240/137 220/239/137 208/226/137
f 210/228/138 222/241/138 221/240/138 209/227/138
f 211/229/139 223/242/139 222/241/139 210/228/139
f 212/230/140 224/243/140 223/242/140 211/229/140
f 213/231/141 225/244/141 224/243/141 212/230/141
f 214/232/142 226/245/142 225/244/142 213/231/142
f 215/233/143 227/246/143 226/245/143 214/232/143
f 216/234/144 228/247/144 227/246/144 215/233/144
f 217/235/121 229/248/121 240/249/121 228/236/121
f 218/237/122 230/250/122 229/248/122 217/235/122
f 219/238/123 231/251/123 230/250/123 218/237/123
f 220/239/124 232/252/124 231/251/124 219/238/124
f 221/240/125 233/253/125 232/252/125 220/239/125
f 222/241/126 234/254/126 233/253/126 221/240/126
f 223/242/127 235/255/127 234/254/127 222/241/127
f 224/243/128 236/256/128 235/255/128 223/242/128
f 225/244/129 237/257/129 236/256/129 224/243/129
f 226/245/130 238/258/130 237/257/130 225/244/130
f 227/246/131 239/259/131 238/258/131 226/245/131
f 228/247/132 240/260/132 239/259/132 227/246/132
f 229/248/109 241/261/109 252/262/109 240/249/109
f 230/250/110 242/263/110 241/261/110 229/248/110
f 231/251/111 243/264/111 242/263/111 230/250/111
f 232/252/112 244/265/112 243/264/112 231/251/112
f 233/253/113 245/266/113 244/265/113 232/252/113
f 234/254/114 246/267/114 245/266/114 233/253/114
f 235/255/115 247/268/115 246/267/115 234/254/115
f 236/256/116 248/269/116 247/268/116 235/255/116
f 237/257/117 249/270/117 248/269/117 236/256/117
f 238/258/118 250/271/118 249/270/118 237/257/118
f 239/259/119 251/272/119 250/271/119 238/258/119
f 240/260/120 252/273/120 251/272/120 239/259/120
f 241/261/169 253/274/169 264/275/169 252/262/169
f 242/263/170 254/276/170 253/274/170 241/261/170
f 243/264/171 255/277/171 254/276/171 242/263/171
f 244/265/172 256/278/172 255/277/172 243/264/172
f 245/266/173 257/279/173 256/278/173 244/265/173
f 246/267/174 258/280/174 257/279/174 245/266/174
f 247/268/175 259/281/175 258/280/175 246/267/175
f 248/269/176 260/282/176 259/281/176 247/268/176
f 249/270/177 261/283/177 260/282/177 248/269/177
f 250/271/178 262/284/178 261/283/178 249/270/178
f 251/272/179 263/285/179 262/284/179 250/271/179
f 252/273/180 264/286/180 263/285/180 251/272/180
f 266/287/181 265/288/181 314/289/181 318/290/181
f 290/291/182 289/292/182 313/293/182 316/294/182
f 281/9/183 280/7/183 340/295/183 341/296/183
f 3/297/184 4/298/184 305/299/184 304/300/184
f 289/292/185 291/301/185 317/302/185 313/293/185
f 282/11/186 281/9/186 341/296/186 342/303/186
f 272/304/187 271/305/187 328/306/187 330/307/187
f 291/301/188 292/308/188 319/309/188 317/302/188
f 7/310/189 8/311/189 309/312/189 308/313/189
f 283/13/190 282/11/190 342/303/190 343/314/190
f 265/288/191 276/315/191 315/316/191 314/289/191
f 292/308/192 293/317/192 321/318/192 319/309/192
f 284/15/193 283/13/193 343/314/193 344/319/193
f 271/305/194 270/320/194 326/321/194 328/306/194
f 11/322/195 12/323/195 302/324/195 312/325/195
f 2/326/196 3/297/196 304/300/196 303/327/196
f 293/317/197 294/328/197 323/329/197 321/318/197
f 285/17/198 284/15/198 344/319/198 345/330/198
f 294/328/199 295/331/199 325/332/199 323/329/199
f 6/333/200 7/310/200 308/313/200 307/334/200
f 286/19/201 285/17/201 345/330/201 346/335/201
f 270/320/202 269/336/202 324/337/202 326/321/202
f 295/331/203 296/338/203 327/339/203 325/332/203
f 287/21/204 286/19/204 346/335/204 347/340/204
f 264/286/205 290/341/205 300/342/205 263/285/205
f 263/285/206 300/342/206 299/343/206 262/284/206
f 262/284/207 299/343/207 298/344/207 261/283/207
f 261/283/208 298/344/208 297/345/208 260/282/208
f 260/282/209 297/345/209 296/338/209 259/281/209
f 259/281/210 296/338/210 295/331/210 258/280/210
f 258/280/211 295/331/211 294/328/211 257/279/211
f 257/279/212 294/328/212 293/317/212 256/278/212
f 256/278/213 293/317/213 292/308/213 255/277/213
f 255/277/214 292/308/214 291/301/214 254/276/214
f 254/276/215 291/301/215 289/292/215 253/274/215
f 253/274/216 289/292/216 290/291/216 264/275/216
f 313/293/217 314/289/217 315/316/217 316/294/217
f 317/302/218 318/290/218 314/289/218 313/293/218
f 319/309/219 320/346/219 318/290/219 317/302/219
f 321/318/220 322/347/220 320/346/220 319/309/220
f 323/329/221 324/337/221 322/347/221 321/318/221
f 325/332/222 326/321/222 324/337/222 323/329/222
f 327/339/223 328/306/223 326/321/223 325/332/223
f 329/348/224 330/307/224 328/306/224 327/339/224
f 331/349/225 332/350/225 330/307/225 329/348/225
f 333/351/226 334/352/226 332/350/226 331/349/226
f 335/353/227 336/354/227 334/352/227 333/351/227
f 316/355/228 315/356/228 336/354/228 335/353/228
f 302/324/229 338/357/229 348/358/229 312/325/229
f 312/325/230 348/358/230 347/340/230 311/359/230
f 311/359/231 347/340/231 346/335/231 310/360/231
f 310/360/232 346/335/232 345/330/232 309/312/232
f 309/312/233 345/330/233 344/319/233 308/313/233
f 308/313/234 344/319/234 343/314/234 307/334/234
f 307/334/235 343/314/235 342/303/235 306/361/235
f 306/361/236 342/303/236 341/296/236 305/299/236
f 305/299/237 341/296/237 340/295/237 304/300/237
f 304/300/238 340/295/238 339/362/238 303/327/238
f 303/327/239 339/362/239 337/363/239 301/364/239
f 301/364/240 337/363/240 338/365/240 302/366/240
f 273/367/241 272/304/241 330/307/241 332/350/241
f 280/7/242 279/5/242 339/362/242 340/295/242
f 8/311/243 9/368/243 310/360/243 309/312/243
f 279/5/244 277/1/244 337/363/244 339/362/244
f 267/369/245 266/287/245 318/290/245 320/346/245
f 4/298/246 5/370/246 306/361/246 305/299/246
f 300/342/247 290/341/247 316/355/247 335/353/247
f 12/371/248 1/372/248 301/364/248 302/366/248
f 274/373/249 273/367/249 332/350/249 334/352/249
f 277/1/250 278/4/250 338/365/250 337/363/250
f 299/343/251 300/342/251 335/353/251 333/351/251
f 9/368/252 10/374/252 311/359/252 310/360/252
f 268/375/253 267/369/253 320/346/253 322/347/253
f 298/344/254 299/343/254 333/351/254 331/349/254
f 275/376/255 274/373/255 334/352/255 336/354/255
f 5/370/256 6/333/256 307/334/256 306/361/256
f 278/25/257 288/23/257 348/358/257 338/357/257
f 297/345/258 298/344/258 331/349/258 329/348/258
f 276/377/259 275/376/259 336/354/259 315/356/259
f 269/336/260 268/375/260 322/347/260 324/337/260
f 288/23/261 287/21/261 347/340/261 348/358/261
f 296/338/262 297/345/262 329/348/262 327/339/262
f 1/372/263 2/326/263 303/327/263 301/364/263
f 10/374/264 11/322/264 312/325/264 311/359/264
