# Blender 5.1.2
# www.blender.org
mtllib PipeConnector.mtl
o PipeConnector
v 0.142894 0.000000 -0.082500
v 0.165000 0.000000 0.000000
v 0.082500 0.000000 -0.142894
v 0.000000 0.000000 -0.165000
v -0.082500 0.000000 -0.142894
v -0.142894 0.000000 -0.082500
v -0.165000 0.000000 0.000000
v -0.142894 0.000000 0.082500
v -0.082500 0.000000 0.142894
v 0.000000 0.000000 0.165000
v 0.082500 0.000000 0.142894
v 0.142894 0.000000 0.082500
v 0.142894 0.050000 -0.082500
v 0.165000 0.050000 0.000000
v 0.082500 0.050000 -0.142894
v 0.000000 0.050000 -0.165000
v -0.082500 0.050000 -0.142894
v -0.142894 0.050000 -0.082500
v -0.165000 0.050000 0.000000
v -0.142894 0.050000 0.082500
v -0.082500 0.050000 0.142894
v 0.000000 0.050000 0.165000
v 0.082500 0.050000 0.142894
v 0.142894 0.050000 0.082500
vn -0.0000 -1.0000 -0.0000
vn -0.0000 1.0000 -0.0000
vn 0.2588 -0.0000 -0.9659
vn 0.2588 -0.0000 0.9659
vn -0.9659 -0.0000 0.2588
vn -0.2588 -0.0000 -0.9659
vn 0.7071 -0.0000 0.7071
vn 0.9659 -0.0000 -0.2588
vn -0.7071 -0.0000 0.7071
vn -0.7071 -0.0000 -0.7071
vn 0.9659 -0.0000 0.2588
vn 0.7071 -0.0000 -0.7071
vn -0.2588 -0.0000 0.9659
vn -0.9659 -0.0000 -0.2588
vt 0.968898 0.217946
vt 0.968895 0.250866
vt 0.952434 0.279374
vt 0.923924 0.295832
vt 0.891005 0.295829
vt 0.862497 0.279368
vt 0.846039 0.250858
vt 0.846041 0.217939
vt 0.862503 0.189431
vt 0.891012 0.172973
vt 0.923932 0.172975
vt 0.952440 0.189437
vt 0.891699 0.421792
vt 0.863189 0.405334
vt 0.846728 0.376826
vt 0.846726 0.343907
vt 0.863184 0.315397
vt 0.891692 0.298936
vt 0.924611 0.298934
vt 0.953121 0.315392
vt 0.969582 0.343900
vt 0.969584 0.376819
vt 0.953126 0.405329
vt 0.924618 0.421790
vt 0.436486 0.876355
vt 0.408904 0.859873
vt 0.412938 0.841218
vt 0.449307 0.862216
vt 0.374976 0.979292
vt 0.407104 0.979775
vt 0.412938 0.997947
vt 0.370942 0.997947
vt 0.332230 0.902619
vt 0.331748 0.934747
vt 0.313576 0.940581
vt 0.313576 0.898585
vt 0.376776 0.859391
vt 0.370942 0.841218
vt 0.435168 0.964129
vt 0.449307 0.976950
vt 0.451650 0.936547
vt 0.452132 0.904419
vt 0.470304 0.898585
vt 0.470304 0.940581
vt 0.347394 0.962811
vt 0.334573 0.976950
vt 0.348712 0.875037
vt 0.334573 0.862216
s 1
f 9/1/1 8/2/1 7/3/1 6/4/1 5/5/1 4/6/1 3/7/1 1/8/1 2/9/1 12/10/1 11/11/1 10/12/1
f 21/13/2 22/14/2 23/15/2 24/16/2 14/17/2 13/18/2 15/19/2 16/20/2 17/21/2 18/22/2 19/23/2 20/24/2
f 3/25/3 4/26/3 16/27/3 15/28/3
f 10/29/4 11/30/4 23/31/4 22/32/4
f 7/33/5 8/34/5 20/35/5 19/36/5
f 4/26/6 5/37/6 17/38/6 16/27/6
f 11/30/7 12/39/7 24/40/7 23/31/7
f 2/41/8 1/42/8 13/43/8 14/44/8
f 8/34/9 9/45/9 21/46/9 20/35/9
f 5/37/10 6/47/10 18/48/10 17/38/10
f 12/39/11 2/41/11 14/44/11 24/40/11
f 1/42/12 3/25/12 15/28/12 13/43/12
f 9/45/13 10/29/13 22/32/13 21/46/13
f 6/47/14 7/33/14 19/36/14 18/48/14
