# Blender 5.1.2
# www.blender.org
mtllib PipeShapeR.mtl
o PipeShapeR
v 0.108253 0.000000 -0.062500
v 0.062500 0.000000 -0.108253
v 0.000000 0.000000 -0.125000
v -0.062500 0.000000 -0.108253
v -0.108253 0.000000 -0.062500
v -0.125000 0.000000 0.000000
v -0.108253 0.000000 0.062500
v -0.062500 0.000000 0.108253
v 0.000000 0.000000 0.125000
v 0.062500 0.000000 0.108253
v 0.108253 0.000000 0.062500
v 0.125000 0.000000 0.000000
v 0.108253 0.254904 -0.062307
v 0.062500 0.258493 -0.107919
v 0.000000 0.259807 -0.124615
v -0.062500 0.258493 -0.107919
v -0.108253 0.254904 -0.062307
v -0.125000 0.250000 0.000000
v -0.108253 0.245096 0.062307
v -0.062500 0.241507 0.107919
v 0.000000 0.240193 0.124615
v 0.062500 0.241507 0.107919
v 0.108253 0.245096 0.062307
v 0.125000 0.250000 0.000000
v 0.108253 0.346568 -0.047205
v 0.062500 0.360706 -0.090719
v 0.000000 0.365881 -0.106646
v -0.062500 0.360706 -0.090719
v -0.108253 0.346568 -0.047205
v -0.125000 0.327254 0.012236
v -0.108253 0.307941 0.071677
v -0.062500 0.293802 0.115191
v 0.000000 0.288627 0.131118
v 0.062500 0.293802 0.115191
v 0.108253 0.307941 0.071677
v 0.125000 0.327254 0.012236
v 0.108253 0.433683 -0.002818
v 0.062500 0.460576 -0.039833
v 0.000000 0.470419 -0.053381
v -0.062500 0.460576 -0.039833
v -0.108253 0.433683 -0.002818
v -0.125000 0.396946 0.047746
v -0.108253 0.360210 0.098309
v -0.062500 0.333317 0.135324
v 0.000000 0.323473 0.148873
v 0.062500 0.333317 0.135324
v 0.108253 0.360210 0.098309
v 0.125000 0.396946 0.047746
v 0.108253 0.502818 0.066317
v 0.062500 0.539833 0.039424
v 0.000000 0.553381 0.029581
v -0.062500 0.539833 0.039424
v -0.108253 0.502818 0.066317
v -0.125000 0.452254 0.103054
v -0.108253 0.401691 0.139790
v -0.062500 0.364676 0.166683
v 0.000000 0.351127 0.176527
v 0.062500 0.364676 0.166683
v 0.108253 0.401691 0.139790
v 0.125000 0.452254 0.103054
v 0.108253 0.547205 0.153432
v 0.062500 0.590719 0.139294
v 0.000000 0.606646 0.134119
v -0.062500 0.590719 0.139294
v -0.108253 0.547205 0.153432
v -0.125000 0.487764 0.172746
v -0.108253 0.428323 0.192059
v -0.062500 0.384809 0.206198
v 0.000000 0.368882 0.211373
v 0.062500 0.384809 0.206198
v 0.108253 0.428323 0.192059
v 0.125000 0.487764 0.172746
v 0.108253 0.562307 0.245096
v 0.062500 0.607919 0.241507
v 0.000000 0.624615 0.240193
v -0.062500 0.607919 0.241507
v -0.108253 0.562307 0.245096
v -0.125000 0.500000 0.250000
v -0.108253 0.437693 0.254904
v -0.062500 0.392081 0.258493
v 0.000000 0.375385 0.259807
v 0.062500 0.392080 0.258493
v 0.108253 0.437693 0.254904
v 0.125000 0.500000 0.250000
v 0.108253 0.562500 0.500000
v 0.062500 0.608253 0.500000
v 0.000000 0.625000 0.500000
v -0.062500 0.608253 0.500000
v -0.108253 0.562500 0.500000
v -0.125000 0.500000 0.500000
v -0.108253 0.437500 0.500000
v -0.062500 0.391747 0.500000
v 0.000000 0.375000 0.500000
v 0.062500 0.391747 0.500000
v 0.108253 0.437500 0.500000
v 0.125000 0.500000 0.500000
v 0.108253 0.050981 -0.062461
v 0.125000 0.050000 0.000000
v 0.062500 0.051699 -0.108186
v 0.000000 0.051961 -0.124923
v -0.062500 0.051699 -0.108186
v -0.108253 0.050981 -0.062462
v -0.125000 0.050000 0.000000
v -0.108253 0.049019 0.062461
v -0.062500 0.048301 0.108186
v 0.000000 0.048039 0.124923
v 0.062500 0.048301 0.108186
v 0.108253 0.049019 0.062462
v 0.108253 0.562461 0.449019
v 0.125000 0.500000 0.450000
v 0.062500 0.608186 0.448301
v 0.000000 0.624923 0.448039
v -0.062500 0.608186 0.448301
v -0.108253 0.562462 0.449019
v -0.125000 0.500000 0.450000
v -0.108253 0.437539 0.450981
v -0.062500 0.391814 0.451699
v 0.000000 0.375077 0.451962
v 0.062500 0.391813 0.451699
v 0.108253 0.437538 0.450981
v 0.119077 0.000005 -0.068752
v 0.137500 0.000001 0.000000
v 0.068748 0.000013 -0.119080
v 0.000000 0.000017 -0.137500
v -0.068748 0.000013 -0.119080
v -0.119077 0.000005 -0.068753
v -0.137500 0.000001 0.000000
v -0.119077 0.000006 0.068752
v -0.068748 0.000014 0.119080
v 0.000000 0.000019 0.137500
v 0.068747 0.000014 0.119080
v 0.119077 0.000006 0.068753
v 0.119064 0.568736 0.449014
v 0.119077 0.568752 0.499995
v 0.137500 0.500000 0.499999
v 0.137500 0.500032 0.449999
v 0.068736 0.619020 0.448288
v 0.068748 0.619080 0.499987
v 0.000000 0.637423 0.448021
v 0.000000 0.637500 0.499983
v -0.068736 0.619020 0.448288
v -0.068748 0.619080 0.499987
v -0.119064 0.568736 0.449014
v -0.119077 0.568752 0.499995
v -0.137500 0.500032 0.449999
v -0.137500 0.500000 0.499999
v -0.119092 0.431313 0.450975
v -0.119077 0.431248 0.499994
v -0.068764 0.380996 0.451684
v -0.068748 0.380920 0.499986
v 0.000000 0.362577 0.451943
v 0.000000 0.362500 0.499981
v 0.068764 0.380996 0.451684
v 0.068747 0.380920 0.499986
v 0.119092 0.431313 0.450975
v 0.119077 0.431247 0.499994
v 0.119064 0.050986 -0.068736
v 0.137500 0.050001 -0.000032
v 0.068736 0.051712 -0.119020
v 0.000000 0.051979 -0.137423
v -0.068736 0.051712 -0.119020
v -0.119064 0.050986 -0.068736
v -0.137500 0.050001 -0.000032
v -0.119092 0.049025 0.068687
v -0.068764 0.048316 0.119004
v 0.000000 0.048057 0.137423
v 0.068764 0.048316 0.119004
v 0.119092 0.049025 0.068687
vn 0.9658 0.0001 -0.2593
vn 0.7065 0.0007 -0.7077
vn 0.2584 0.0013 -0.9660
vn -0.2584 0.0013 -0.9660
vn -0.7065 0.0007 -0.7077
vn -0.9658 0.0001 -0.2593
vn -0.9658 0.0001 0.2593
vn -0.7064 0.0008 0.7078
vn -0.2584 0.0014 0.9660
vn 0.2584 0.0014 0.9660
vn 0.7064 0.0008 0.7078
vn 0.9658 0.0001 0.2593
vn 0.9654 0.0416 -0.2573
vn 0.7045 0.1166 -0.7001
vn 0.2570 0.1609 -0.9529
vn -0.2570 0.1609 -0.9529
vn -0.7045 0.1166 -0.7001
vn -0.9654 0.0416 -0.2573
vn -0.9654 -0.0397 0.2577
vn -0.7041 -0.1016 0.7027
vn -0.2567 -0.1310 0.9576
vn 0.2567 -0.1310 0.9576
vn 0.7041 -0.1016 0.7027
vn 0.9654 -0.0397 0.2577
vn 0.9651 0.1189 -0.2333
vn 0.7027 0.3230 -0.6339
vn 0.2558 0.4389 -0.8614
vn -0.2558 0.4389 -0.8614
vn -0.7027 0.3230 -0.6339
vn -0.9651 0.1189 -0.2333
vn -0.9651 -0.1189 0.2333
vn -0.7027 -0.3230 0.6339
vn -0.2558 -0.4389 0.8614
vn 0.2558 -0.4389 0.8614
vn 0.7027 -0.3230 0.6339
vn 0.9651 -0.1189 0.2333
vn 0.9651 0.1851 -0.1851
vn 0.7027 0.5031 -0.5031
vn 0.2558 0.6836 -0.6836
vn -0.2558 0.6836 -0.6836
vn -0.7027 0.5031 -0.5031
vn -0.9651 0.1851 -0.1851
vn -0.9651 -0.1851 0.1851
vn -0.7027 -0.5031 0.5031
vn -0.2559 -0.6836 0.6836
vn 0.2559 -0.6836 0.6836
vn 0.7027 -0.5031 0.5031
vn 0.9651 -0.1851 0.1851
vn 0.9651 0.2333 -0.1189
vn 0.7027 0.6339 -0.3230
vn 0.2558 0.8614 -0.4389
vn -0.2558 0.8614 -0.4389
vn -0.7027 0.6339 -0.3230
vn -0.9651 0.2333 -0.1189
vn -0.9651 -0.2333 0.1189
vn -0.7027 -0.6339 0.3230
vn -0.2558 -0.8614 0.4389
vn 0.2558 -0.8614 0.4389
vn 0.7027 -0.6339 0.3230
vn 0.9651 -0.2333 0.1189
vn 0.9654 0.2573 -0.0416
vn 0.7045 0.7001 -0.1166
vn 0.2570 0.9529 -0.1609
vn -0.2570 0.9529 -0.1609
vn -0.7045 0.7001 -0.1166
vn -0.9654 0.2573 -0.0416
vn -0.9654 -0.2577 0.0397
vn -0.7041 -0.7027 0.1016
vn -0.2567 -0.9576 0.1310
vn 0.2567 -0.9576 0.1309
vn 0.7042 -0.7027 0.1016
vn 0.9654 -0.2577 0.0397
vn -0.0003 -0.0000 1.0000
vn -0.0004 0.0003 1.0000
vn 0.0004 -1.0000 -0.0009
vn -0.0000 -1.0000 -0.0012
vn 0.0002 -0.0139 -0.9999
vn 0.0060 -0.0103 -0.9999
vn -0.0060 1.0000 0.0032
vn -0.0000 1.0000 -0.0003
vn -0.0060 1.0000 0.0033
vn -0.0003 -1.0000 -0.0000
vn -0.0004 -1.0000 0.0004
vn 0.0060 -0.0032 -1.0000
vn 0.0061 -0.0032 -1.0000
vn -0.0060 0.9999 0.0103
vn -0.0004 0.0009 1.0000
vn 0.0003 -0.0000 1.0000
vn 0.0004 -0.0004 1.0000
vn -0.0000 0.0004 -1.0000
vn -0.0002 0.9999 0.0139
vn 0.0004 -1.0000 0.0010
vn 0.0004 -1.0000 0.0004
vn 0.0004 -1.0000 -0.0003
vn 0.0004 -0.0010 1.0000
vn -0.0060 -0.0032 -1.0000
vn -0.0061 -0.0032 -1.0000
vn -0.0000 0.0012 1.0000
vn -0.0004 -1.0000 -0.0003
vn -0.0060 -0.0103 -0.9999
vn 0.0053 0.9999 0.0110
vn -0.0000 -0.0013 1.0000
vn -0.0002 -0.0139 -0.9999
vn -0.0000 -1.0000 0.0013
vn 0.0004 0.0009 1.0000
vn 0.0052 1.0000 0.0051
vn 0.9658 -0.2593 -0.0001
vn 0.7064 -0.7078 -0.0008
vn 0.2584 -0.9661 -0.0014
vn -0.2584 -0.9660 -0.0014
vn -0.7064 -0.7078 -0.0008
vn -0.9658 -0.2593 -0.0001
vn -0.9658 0.2593 -0.0001
vn -0.7065 0.7077 -0.0007
vn -0.2584 0.9660 -0.0013
vn 0.2584 0.9660 -0.0013
vn 0.7065 0.7077 -0.0007
vn 0.9658 0.2593 -0.0001
vn 0.9659 0.2590 -0.0001
vn 0.7070 0.7073 -0.0007
vn 0.2587 0.9660 -0.0013
vn -0.2587 0.9660 -0.0013
vn -0.7070 0.7073 -0.0007
vn -0.9659 0.2590 -0.0001
vn -0.9659 -0.2588 -0.0001
vn -0.7071 -0.7072 -0.0008
vn -0.2588 -0.9659 -0.0015
vn 0.2588 -0.9659 -0.0015
vn 0.7071 -0.7072 -0.0008
vn 0.9659 -0.2588 -0.0001
vn 0.9659 0.0001 0.2588
vn 0.7071 0.0008 0.7072
vn 0.2588 0.0015 0.9659
vn -0.2588 0.0015 0.9659
vn -0.7071 0.0008 0.7072
vn -0.9659 0.0001 0.2588
vn -0.9659 0.0001 -0.2590
vn -0.7069 0.0007 -0.7073
vn -0.2587 0.0013 -0.9660
vn 0.2587 0.0013 -0.9660
vn 0.7070 0.0007 -0.7073
vn 0.9659 0.0001 -0.2590
vn 0.0003 -1.0000 -0.0000
vn 0.0060 1.0000 0.0032
vn 0.0060 1.0000 0.0033
vn -0.0053 -0.0110 -0.9999
vn 0.0060 0.9999 0.0103
vn -0.0052 -0.0051 -1.0000
vn -0.0004 -1.0000 0.0010
vn -0.0004 -0.0004 1.0000
vn 0.0002 0.9999 0.0139
vn -0.0000 -0.0022 -1.0000
vn 0.0004 0.0003 1.0000
vn -0.0004 -1.0000 -0.0009
vn -0.0053 0.9999 0.0110
vn 0.0052 -0.0051 -1.0000
vn -0.0004 -0.0010 1.0000
vn -0.0052 1.0000 0.0051
vn 0.0053 -0.0110 -0.9999
vn -0.0000 1.0000 0.0022
vt 0.021734 0.024621
vt 0.021734 0.086330
vt 0.001477 0.086330
vt 0.001477 0.024621
vt 0.041992 0.024621
vt 0.041992 0.086330
vt 0.062250 0.024621
vt 0.062250 0.086330
vt 0.082509 0.024621
vt 0.082509 0.086330
vt 0.102767 0.024621
vt 0.102767 0.086330
vt 0.123024 0.024621
vt 0.123024 0.086330
vt 0.143281 0.024621
vt 0.143281 0.086330
vt 0.163540 0.024621
vt 0.163540 0.086330
vt 0.183800 0.024621
vt 0.183800 0.086330
vt 0.204059 0.024621
vt 0.204059 0.086330
vt 0.224318 0.024621
vt 0.224318 0.086330
vt 0.244576 0.024621
vt 0.244576 0.086330
vt 0.021734 0.110464
vt 0.001477 0.110464
vt 0.041992 0.110464
vt 0.062250 0.110464
vt 0.082509 0.110464
vt 0.102767 0.110464
vt 0.123024 0.110465
vt 0.143281 0.110465
vt 0.163540 0.110465
vt 0.183800 0.110465
vt 0.204059 0.110465
vt 0.224318 0.110465
vt 0.244576 0.110465
vt 0.021734 0.134598
vt 0.001477 0.134598
vt 0.041992 0.134598
vt 0.062250 0.134598
vt 0.082509 0.134598
vt 0.102767 0.134598
vt 0.123024 0.134598
vt 0.143281 0.134598
vt 0.163540 0.134598
vt 0.183800 0.134598
vt 0.204059 0.134598
vt 0.224318 0.134598
vt 0.244576 0.134598
vt 0.021734 0.158732
vt 0.001477 0.158732
vt 0.041992 0.158732
vt 0.062250 0.158732
vt 0.082509 0.158732
vt 0.102767 0.158732
vt 0.123024 0.158732
vt 0.143281 0.158732
vt 0.163540 0.158732
vt 0.183800 0.158732
vt 0.204059 0.158732
vt 0.224318 0.158732
vt 0.244576 0.158732
vt 0.021734 0.182865
vt 0.001477 0.182865
vt 0.041992 0.182865
vt 0.062250 0.182865
vt 0.082509 0.182865
vt 0.102767 0.182865
vt 0.123024 0.182865
vt 0.143281 0.182865
vt 0.163540 0.182865
vt 0.183800 0.182865
vt 0.204059 0.182865
vt 0.224318 0.182865
vt 0.244576 0.182865
vt 0.021734 0.207000
vt 0.001477 0.207000
vt 0.041992 0.207000
vt 0.062250 0.207000
vt 0.082509 0.207000
vt 0.102767 0.207000
vt 0.123024 0.207000
vt 0.143281 0.207000
vt 0.163540 0.207000
vt 0.183800 0.207000
vt 0.204059 0.207000
vt 0.224318 0.207000
vt 0.244576 0.207000
vt 0.123024 0.291849
vt 0.102767 0.291849
vt 0.102767 0.287993
vt 0.123024 0.287993
vt 0.041992 0.001480
vt 0.062250 0.001480
vt 0.062250 0.005337
vt 0.041992 0.005337
vt 0.123024 0.268708
vt 0.143281 0.268708
vt 0.143281 0.272565
vt 0.123024 0.272565
vt 0.183800 0.020764
vt 0.204059 0.020764
vt 0.123024 0.001480
vt 0.143281 0.001480
vt 0.143281 0.005337
vt 0.123024 0.005337
vt 0.163540 0.268708
vt 0.163540 0.272565
vt 0.224318 0.020764
vt 0.082509 0.291849
vt 0.082509 0.287993
vt 0.244576 0.291849
vt 0.224318 0.291849
vt 0.224318 0.287993
vt 0.244576 0.287993
vt 0.183800 0.268708
vt 0.183800 0.272565
vt 0.244576 0.020764
vt 0.204059 0.001480
vt 0.224318 0.001480
vt 0.224318 0.005337
vt 0.204059 0.005337
vt 0.021734 0.001480
vt 0.021734 0.005337
vt 0.204059 0.291849
vt 0.204059 0.287993
vt 0.204059 0.268708
vt 0.204059 0.272565
vt 0.062250 0.291849
vt 0.062250 0.287993
vt 0.102767 0.001480
vt 0.102767 0.005337
vt 0.224318 0.268708
vt 0.224318 0.272565
vt 0.001477 0.020764
vt 0.021734 0.020764
vt 0.183800 0.291849
vt 0.183800 0.287993
vt 0.244576 0.268708
vt 0.244576 0.272565
vt 0.183800 0.001480
vt 0.183800 0.005337
vt 0.041992 0.291849
vt 0.041992 0.287993
vt 0.041992 0.020764
vt 0.102767 0.268708
vt 0.082509 0.268708
vt 0.062250 0.268708
vt 0.041992 0.268708
vt 0.021734 0.268708
vt 0.001477 0.268708
vt 0.021734 0.272565
vt 0.021734 0.287993
vt 0.001477 0.287993
vt 0.001477 0.272565
vt 0.041992 0.272565
vt 0.062250 0.272565
vt 0.082509 0.272565
vt 0.102767 0.272565
vt 0.143281 0.287993
vt 0.163540 0.287993
vt 0.244576 0.005337
vt 0.163540 0.020764
vt 0.163540 0.005337
vt 0.143281 0.020764
vt 0.123024 0.020764
vt 0.102767 0.020764
vt 0.082509 0.020764
vt 0.082509 0.005337
vt 0.062250 0.020764
vt 0.001477 0.005337
vt 0.244576 0.001480
vt 0.163540 0.001480
vt 0.143281 0.291849
vt 0.021734 0.291849
vt 0.001477 0.291849
vt 0.082509 0.001480
vt 0.163540 0.291849
vt 0.001477 0.001480
s 1
f 97/1/1 13/2/1 24/3/1 98/4/1
f 99/5/2 14/6/2 13/2/2 97/1/2
f 100/7/3 15/8/3 14/6/3 99/5/3
f 101/9/4 16/10/4 15/8/4 100/7/4
f 102/11/5 17/12/5 16/10/5 101/9/5
f 103/13/6 18/14/6 17/12/6 102/11/6
f 104/15/7 19/16/7 18/14/7 103/13/7
f 105/17/8 20/18/8 19/16/8 104/15/8
f 106/19/9 21/20/9 20/18/9 105/17/9
f 107/21/10 22/22/10 21/20/10 106/19/10
f 108/23/11 23/24/11 22/22/11 107/21/11
f 98/25/12 24/26/12 23/24/12 108/23/12
f 13/2/13 25/27/13 36/28/13 24/3/13
f 14/6/14 26/29/14 25/27/14 13/2/14
f 15/8/15 27/30/15 26/29/15 14/6/15
f 16/10/16 28/31/16 27/30/16 15/8/16
f 17/12/17 29/32/17 28/31/17 16/10/17
f 18/14/18 30/33/18 29/32/18 17/12/18
f 19/16/19 31/34/19 30/33/19 18/14/19
f 20/18/20 32/35/20 31/34/20 19/16/20
f 21/20/21 33/36/21 32/35/21 20/18/21
f 22/22/22 34/37/22 33/36/22 21/20/22
f 23/24/23 35/38/23 34/37/23 22/22/23
f 24/26/24 36/39/24 35/38/24 23/24/24
f 25/27/25 37/40/25 48/41/25 36/28/25
f 26/29/26 38/42/26 37/40/26 25/27/26
f 27/30/27 39/43/27 38/42/27 26/29/27
f 28/31/28 40/44/28 39/43/28 27/30/28
f 29/32/29 41/45/29 40/44/29 28/31/29
f 30/33/30 42/46/30 41/45/30 29/32/30
f 31/34/31 43/47/31 42/46/31 30/33/31
f 32/35/32 44/48/32 43/47/32 31/34/32
f 33/36/33 45/49/33 44/48/33 32/35/33
f 34/37/34 46/50/34 45/49/34 33/36/34
f 35/38/35 47/51/35 46/50/35 34/37/35
f 36/39/36 48/52/36 47/51/36 35/38/36
f 37/40/37 49/53/37 60/54/37 48/41/37
f 38/42/38 50/55/38 49/53/38 37/40/38
f 39/43/39 51/56/39 50/55/39 38/42/39
f 40/44/40 52/57/40 51/56/40 39/43/40
f 41/45/41 53/58/41 52/57/41 40/44/41
f 42/46/42 54/59/42 53/58/42 41/45/42
f 43/47/43 55/60/43 54/59/43 42/46/43
f 44/48/44 56/61/44 55/60/44 43/47/44
f 45/49/45 57/62/45 56/61/45 44/48/45
f 46/50/46 58/63/46 57/62/46 45/49/46
f 47/51/47 59/64/47 58/63/47 46/50/47
f 48/52/48 60/65/48 59/64/48 47/51/48
f 49/53/49 61/66/49 72/67/49 60/54/49
f 50/55/50 62/68/50 61/66/50 49/53/50
f 51/56/51 63/69/51 62/68/51 50/55/51
f 52/57/52 64/70/52 63/69/52 51/56/52
f 53/58/53 65/71/53 64/70/53 52/57/53
f 54/59/54 66/72/54 65/71/54 53/58/54
f 55/60/55 67/73/55 66/72/55 54/59/55
f 56/61/56 68/74/56 67/73/56 55/60/56
f 57/62/57 69/75/57 68/74/57 56/61/57
f 58/63/58 70/76/58 69/75/58 57/62/58
f 59/64/59 71/77/59 70/76/59 58/63/59
f 60/65/60 72/78/60 71/77/60 59/64/60
f 61/66/61 73/79/61 84/80/61 72/67/61
f 62/68/62 74/81/62 73/79/62 61/66/62
f 63/69/63 75/82/63 74/81/63 62/68/63
f 64/70/64 76/83/64 75/82/64 63/69/64
f 65/71/65 77/84/65 76/83/65 64/70/65
f 66/72/66 78/85/66 77/84/66 65/71/66
f 67/73/67 79/86/67 78/85/67 66/72/67
f 68/74/68 80/87/68 79/86/68 67/73/68
f 69/75/69 81/88/69 80/87/69 68/74/69
f 70/76/70 82/89/70 81/88/70 69/75/70
f 71/77/71 83/90/71 82/89/71 70/76/71
f 72/78/72 84/91/72 83/90/72 71/77/72
f 90/92/73 89/93/74 144/94/74 146/95/73
f 2/96/75 3/97/76 124/98/76 123/99/75
f 115/100/77 116/101/78 147/102/78 145/103/77
f 107/21/79 106/19/80 166/104/80 167/105/81
f 6/106/82 7/107/83 128/108/83 127/109/82
f 116/101/78 117/110/84 149/111/85 147/102/78
f 108/23/86 107/21/79 167/105/81 168/112/86
f 89/93/74 88/113/87 142/114/87 144/94/74
f 96/115/88 95/116/89 156/117/89 135/118/88
f 117/110/84 118/119/90 151/120/90 149/111/85
f 98/25/91 108/23/86 168/112/86 158/121/91
f 10/122/92 11/123/93 132/124/93 131/125/92
f 1/126/94 2/96/75 123/99/75 121/127/94
f 95/116/89 94/128/95 154/129/95 156/117/89
f 118/119/90 119/130/96 153/131/97 151/120/90
f 88/113/87 87/132/98 140/133/98 142/114/87
f 5/134/99 6/106/82 127/109/82 126/135/99
f 119/130/96 120/136/100 155/137/100 153/131/97
f 97/1/101 98/4/91 158/138/91 157/139/101
f 94/128/95 93/140/102 152/141/102 154/129/95
f 120/136/100 110/142/103 136/143/103 155/137/100
f 9/144/104 10/122/92 131/125/92 130/145/104
f 87/132/98 86/146/105 138/147/105 140/133/98
f 99/5/106 97/1/101 157/139/101 159/148/106
f 84/91/107 110/142/107 120/136/107 83/90/107
f 83/90/108 120/136/108 119/130/108 82/89/108
f 82/89/109 119/130/109 118/119/109 81/88/109
f 81/88/110 118/119/110 117/110/110 80/87/110
f 80/87/111 117/110/111 116/101/111 79/86/111
f 79/86/112 116/101/112 115/100/112 78/85/112
f 78/85/113 115/100/113 114/149/113 77/84/113
f 77/84/114 114/149/114 113/150/114 76/83/114
f 76/83/115 113/150/115 112/151/115 75/82/115
f 75/82/116 112/151/116 111/152/116 74/81/116
f 74/81/117 111/152/117 109/153/117 73/79/117
f 73/79/118 109/153/118 110/154/118 84/80/118
f 133/155/119 134/156/119 135/157/119 136/158/119
f 137/159/120 138/147/120 134/156/120 133/155/120
f 139/160/121 140/133/121 138/147/121 137/159/121
f 141/161/122 142/114/122 140/133/122 139/160/122
f 143/162/123 144/94/123 142/114/123 141/161/123
f 145/103/124 146/95/124 144/94/124 143/162/124
f 147/102/125 148/163/125 146/95/125 145/103/125
f 149/111/126 150/164/126 148/163/126 147/102/126
f 151/120/127 152/141/127 150/164/127 149/111/127
f 153/131/128 154/129/128 152/141/128 151/120/128
f 155/137/129 156/117/129 154/129/129 153/131/129
f 136/143/130 135/118/130 156/117/130 155/137/130
f 122/165/131 158/121/131 168/112/131 132/124/131
f 132/124/132 168/112/132 167/105/132 131/125/132
f 131/125/133 167/105/133 166/104/133 130/145/133
f 130/145/134 166/104/134 165/166/134 129/167/134
f 129/167/135 165/166/135 164/168/135 128/108/135
f 128/108/136 164/168/136 163/169/136 127/109/136
f 127/109/137 163/169/137 162/170/137 126/135/137
f 126/135/138 162/170/138 161/171/138 125/172/138
f 125/172/139 161/171/139 160/173/139 124/98/139
f 124/98/140 160/173/140 159/148/140 123/99/140
f 123/99/141 159/148/141 157/139/141 121/127/141
f 121/127/142 157/139/142 158/138/142 122/174/142
f 11/123/93 12/175/143 122/165/143 132/124/93
f 106/19/80 105/17/144 165/166/145 166/104/80
f 114/149/146 115/100/77 145/103/77 143/162/146
f 105/17/144 104/15/147 164/168/147 165/166/145
f 113/150/148 114/149/146 143/162/146 141/161/148
f 7/107/83 8/176/149 129/167/149 128/108/83
f 91/177/150 90/92/73 146/95/73 148/163/150
f 104/15/147 103/13/151 163/169/151 164/168/147
f 112/151/152 113/150/148 141/161/148 139/160/152
f 85/178/153 96/179/88 135/157/88 134/156/153
f 3/97/76 4/180/154 125/172/154 124/98/76
f 103/13/151 102/11/155 162/170/155 163/169/151
f 111/152/156 112/151/152 139/160/152 137/159/156
f 92/181/157 91/177/150 148/163/150 150/164/157
f 102/11/155 101/9/158 161/171/158 162/170/155
f 109/153/159 111/152/156 137/159/156 133/155/159
f 8/176/149 9/144/104 130/145/104 129/167/149
f 101/9/158 100/7/160 160/173/160 161/171/158
f 110/154/103 109/153/159 133/155/159 136/158/103
f 86/146/105 85/178/153 134/156/153 138/147/105
f 4/180/154 5/134/99 126/135/99 125/172/154
f 93/140/102 92/181/157 150/164/157 152/141/102
f 100/7/160 99/5/106 159/148/106 160/173/160
f 12/182/143 1/126/94 121/127/94 122/174/143
