# Blender 5.1.2
# www.blender.org
mtllib PipeShapeC.mtl
o PipeShapeC
v 0.108253 1.062500 0.000000
v 0.062500 1.108253 0.000000
v 0.000000 1.125000 0.000000
v -0.062500 1.108253 0.000000
v -0.108253 1.062500 0.000000
v -0.125000 1.000000 0.000000
v -0.108253 0.937500 0.000000
v -0.062500 0.891747 0.000000
v -0.000000 0.875000 0.000000
v 0.062500 0.891747 0.000000
v 0.108253 0.937500 0.000000
v 0.125000 1.000000 0.000000
v 0.108253 1.062307 0.254904
v 0.062500 1.107919 0.258493
v 0.000000 1.124615 0.259807
v -0.062500 1.107919 0.258493
v -0.108253 1.062307 0.254904
v -0.125000 1.000000 0.250000
v -0.108253 0.937693 0.245096
v -0.062500 0.892081 0.241507
v -0.000000 0.875385 0.240193
v 0.062500 0.892080 0.241507
v 0.108253 0.937692 0.245096
v 0.125000 1.000000 0.250000
v 0.108253 1.047205 0.346568
v 0.062500 1.090719 0.360706
v 0.000000 1.106646 0.365881
v -0.062500 1.090719 0.360706
v -0.108253 1.047205 0.346568
v -0.125000 0.987764 0.327254
v -0.108253 0.928323 0.307941
v -0.062500 0.884809 0.293802
v -0.000000 0.868882 0.288627
v 0.062500 0.884809 0.293802
v 0.108253 0.928323 0.307941
v 0.125000 0.987764 0.327254
v 0.108253 1.002818 0.433683
v 0.062500 1.039833 0.460576
v 0.000000 1.053381 0.470419
v -0.062500 1.039833 0.460576
v -0.108253 1.002818 0.433683
v -0.125000 0.952254 0.396946
v -0.108253 0.901691 0.360210
v -0.062500 0.864676 0.333317
v -0.000000 0.851127 0.323473
v 0.062500 0.864675 0.333317
v 0.108253 0.901691 0.360210
v 0.125000 0.952254 0.396946
v 0.108253 0.933683 0.502818
v 0.062500 0.960576 0.539833
v 0.000000 0.970419 0.553381
v -0.062500 0.960576 0.539833
v -0.108253 0.933683 0.502818
v -0.125000 0.896946 0.452254
v -0.108253 0.860210 0.401691
v -0.062500 0.833317 0.364676
v -0.000000 0.823473 0.351127
v 0.062500 0.833317 0.364676
v 0.108253 0.860210 0.401691
v 0.125000 0.896946 0.452254
v 0.108253 0.846568 0.547205
v 0.062500 0.860706 0.590719
v 0.000000 0.865881 0.606646
v -0.062500 0.860706 0.590719
v -0.108253 0.846568 0.547205
v -0.125000 0.827254 0.487764
v -0.108253 0.807941 0.428323
v -0.062500 0.793802 0.384809
v -0.000000 0.788627 0.368882
v 0.062500 0.793802 0.384809
v 0.108253 0.807941 0.428323
v 0.125000 0.827254 0.487764
v 0.108253 0.754904 0.562307
v 0.062500 0.758493 0.607919
v 0.000000 0.759807 0.624615
v -0.062500 0.758493 0.607919
v -0.108253 0.754904 0.562307
v -0.125000 0.750000 0.500000
v -0.108253 0.745096 0.437693
v -0.062500 0.741507 0.392081
v -0.000000 0.740193 0.375385
v 0.062500 0.741507 0.392080
v 0.108253 0.745096 0.437693
v 0.125000 0.750000 0.500000
v 0.108253 0.245096 0.562307
v 0.062500 0.241507 0.607919
v 0.000000 0.240193 0.624615
v -0.062500 0.241507 0.607919
v -0.108253 0.245096 0.562307
v -0.125000 0.250000 0.500000
v -0.108253 0.254904 0.437693
v -0.062500 0.258493 0.392081
v -0.000000 0.259807 0.375385
v 0.062500 0.258493 0.392080
v 0.108253 0.254904 0.437693
v 0.125000 0.250000 0.500000
v 0.108253 0.153432 0.547205
v 0.062500 0.139294 0.590719
v 0.000000 0.134119 0.606646
v -0.062500 0.139294 0.590719
v -0.108253 0.153432 0.547205
v -0.125000 0.172746 0.487764
v -0.108253 0.192059 0.428323
v -0.062500 0.206198 0.384809
v -0.000000 0.211373 0.368882
v 0.062500 0.206198 0.384809
v 0.108253 0.192059 0.428323
v 0.125000 0.172746 0.487764
v 0.108253 0.066317 0.502818
v 0.062500 0.039424 0.539833
v 0.000000 0.029581 0.553381
v -0.062500 0.039424 0.539833
v -0.108253 0.066317 0.502818
v -0.125000 0.103054 0.452254
v -0.108253 0.139790 0.401691
v -0.062500 0.166683 0.364676
v -0.000000 0.176527 0.351127
v 0.062500 0.166683 0.364676
v 0.108253 0.139790 0.401691
v 0.125000 0.103054 0.452254
v 0.108253 -0.002818 0.433683
v 0.062500 -0.039833 0.460576
v 0.000000 -0.053381 0.470419
v -0.062500 -0.039833 0.460576
v -0.108253 -0.002818 0.433683
v -0.125000 0.047746 0.396946
v -0.108253 0.098309 0.360210
v -0.062500 0.135324 0.333317
v -0.000000 0.148873 0.323473
v 0.062500 0.135324 0.333317
v 0.108253 0.098309 0.360210
v 0.125000 0.047746 0.396946
v 0.108253 -0.047205 0.346568
v 0.062500 -0.090719 0.360706
v 0.000000 -0.106646 0.365881
v -0.062500 -0.090719 0.360706
v -0.108253 -0.047205 0.346568
v -0.125000 0.012236 0.327254
v -0.108253 0.071677 0.307941
v -0.062500 0.115191 0.293802
v -0.000000 0.131118 0.288627
v 0.062500 0.115191 0.293802
v 0.108253 0.071677 0.307941
v 0.125000 0.012236 0.327254
v 0.108253 -0.062307 0.254904
v 0.062500 -0.107919 0.258493
v 0.000000 -0.124615 0.259807
v -0.062500 -0.107919 0.258493
v -0.108253 -0.062307 0.254904
v -0.125000 -0.000000 0.250000
v -0.108253 0.062307 0.245096
v -0.062500 0.107919 0.241507
v -0.000000 0.124615 0.240193
v 0.062500 0.107920 0.241507
v 0.108253 0.062307 0.245096
v 0.125000 0.000000 0.250000
v 0.108253 -0.062500 0.000000
v 0.062500 -0.108253 0.000000
v 0.000000 -0.125000 0.000000
v -0.062500 -0.108253 0.000000
v -0.108253 -0.062500 0.000000
v -0.125000 -0.000000 0.000000
v -0.108253 0.062500 0.000000
v -0.062500 0.108253 0.000000
v -0.000000 0.125000 0.000000
v 0.062500 0.108253 0.000000
v 0.108253 0.062500 0.000000
v 0.125000 0.000000 0.000000
v 0.108253 -0.062461 0.050981
v 0.125000 0.000000 0.050000
v 0.062500 -0.108186 0.051699
v 0.000000 -0.124923 0.051962
v -0.062500 -0.108186 0.051699
v -0.108253 -0.062462 0.050981
v -0.125000 -0.000000 0.050000
v -0.108253 0.062461 0.049019
v -0.062500 0.108186 0.048301
v -0.000000 0.124923 0.048038
v 0.062500 0.108186 0.048301
v 0.108253 0.062462 0.049019
v 0.108253 1.062461 0.050981
v 0.125000 1.000000 0.050000
v 0.062500 1.108186 0.051699
v 0.000000 1.124923 0.051961
v -0.062500 1.108186 0.051699
v -0.108253 1.062461 0.050981
v -0.125000 1.000000 0.050000
v -0.108253 0.937539 0.049019
v -0.062500 0.891814 0.048301
v -0.000000 0.875077 0.048038
v 0.062500 0.891813 0.048301
v 0.108253 0.937538 0.049019
v 0.108253 0.500000 0.562307
v 0.125000 0.500000 0.500000
v 0.062500 0.500000 0.607919
v 0.000000 0.500000 0.624615
v -0.062500 0.500000 0.607919
v -0.108253 0.500000 0.562307
v -0.125000 0.500000 0.500000
v -0.108253 0.500000 0.437693
v -0.062500 0.500000 0.392081
v -0.000000 0.500000 0.375385
v 0.062500 0.500000 0.392080
v 0.108253 0.500000 0.437693
v 0.119077 1.068752 0.000005
v 0.137500 1.000000 0.000001
v 0.068748 1.119080 0.000013
v 0.000000 1.137500 0.000017
v -0.068748 1.119080 0.000013
v -0.119077 1.068752 0.000005
v -0.137500 1.000000 0.000001
v -0.119077 0.931248 0.000006
v -0.068748 0.880920 0.000014
v -0.000000 0.862500 0.000019
v 0.068747 0.880920 0.000014
v 0.119077 0.931247 0.000006
v 0.119064 -0.068736 0.050986
v 0.119077 -0.068752 0.000005
v 0.137500 0.000000 0.000001
v 0.137500 -0.000032 0.050001
v 0.068736 -0.119020 0.051712
v 0.068748 -0.119080 0.000013
v 0.000000 -0.137423 0.051979
v 0.000000 -0.137500 0.000017
v -0.068736 -0.119020 0.051712
v -0.068748 -0.119080 0.000013
v -0.119064 -0.068736 0.050986
v -0.119077 -0.068752 0.000005
v -0.137500 -0.000032 0.050001
v -0.137500 -0.000000 0.000001
v -0.119092 0.068687 0.049025
v -0.119077 0.068752 0.000006
v -0.068764 0.119004 0.048316
v -0.068748 0.119080 0.000014
v -0.000000 0.137423 0.048057
v -0.000000 0.137500 0.000019
v 0.068764 0.119004 0.048316
v 0.068747 0.119080 0.000014
v 0.119092 0.068687 0.049025
v 0.119077 0.068753 0.000006
v 0.119064 1.068736 0.050986
v 0.137500 1.000032 0.050001
v 0.068736 1.119020 0.051712
v 0.000000 1.137423 0.051979
v -0.068736 1.119020 0.051712
v -0.119064 1.068736 0.050986
v -0.137500 1.000032 0.050001
v -0.119092 0.931313 0.049025
v -0.068764 0.880996 0.048316
v -0.000000 0.862577 0.048057
v 0.068764 0.880996 0.048316
v 0.119092 0.931313 0.049025
vn 0.9658 0.2593 0.0001
vn 0.7065 0.7077 0.0007
vn 0.2584 0.9660 0.0013
vn -0.2584 0.9660 0.0013
vn -0.7065 0.7077 0.0007
vn -0.9658 0.2593 0.0001
vn -0.9658 -0.2593 0.0001
vn -0.7064 -0.7078 0.0008
vn -0.2584 -0.9660 0.0014
vn 0.2584 -0.9660 0.0014
vn 0.7064 -0.7078 0.0008
vn 0.9658 -0.2593 0.0001
vn 0.9654 0.2573 0.0416
vn 0.7045 0.7001 0.1166
vn 0.2570 0.9529 0.1609
vn -0.2570 0.9529 0.1609
vn -0.7045 0.7001 0.1166
vn -0.9654 0.2573 0.0416
vn -0.9654 -0.2577 -0.0397
vn -0.7041 -0.7028 -0.1016
vn -0.2567 -0.9576 -0.1309
vn 0.2567 -0.9576 -0.1309
vn 0.7041 -0.7028 -0.1016
vn 0.9654 -0.2577 -0.0397
vn 0.9651 0.2333 0.1189
vn 0.7027 0.6339 0.3230
vn 0.2558 0.8614 0.4389
vn -0.2558 0.8614 0.4389
vn -0.7027 0.6339 0.3230
vn -0.9651 0.2333 0.1189
vn -0.9651 -0.2333 -0.1189
vn -0.7027 -0.6339 -0.3230
vn -0.2558 -0.8614 -0.4389
vn 0.2558 -0.8614 -0.4389
vn 0.7027 -0.6339 -0.3230
vn 0.9651 -0.2333 -0.1189
vn 0.9651 0.1851 0.1851
vn 0.7027 0.5031 0.5031
vn 0.2558 0.6836 0.6836
vn -0.2558 0.6836 0.6836
vn -0.7027 0.5031 0.5031
vn -0.9651 0.1851 0.1851
vn -0.9651 -0.1851 -0.1851
vn -0.7027 -0.5031 -0.5031
vn -0.2558 -0.6836 -0.6836
vn 0.2558 -0.6836 -0.6836
vn 0.7027 -0.5031 -0.5031
vn 0.9651 -0.1851 -0.1851
vn 0.9651 0.1189 0.2333
vn 0.7027 0.3230 0.6339
vn 0.2558 0.4389 0.8614
vn -0.2558 0.4389 0.8614
vn -0.7027 0.3230 0.6339
vn -0.9651 0.1189 0.2333
vn -0.9651 -0.1189 -0.2333
vn -0.7027 -0.3230 -0.6339
vn -0.2558 -0.4389 -0.8614
vn 0.2558 -0.4389 -0.8614
vn 0.7027 -0.3230 -0.6339
vn 0.9651 -0.1189 -0.2333
vn 0.9654 0.0416 0.2573
vn 0.7045 0.1166 0.7001
vn 0.2570 0.1609 0.9529
vn -0.2570 0.1609 0.9529
vn -0.7045 0.1166 0.7001
vn -0.9654 0.0416 0.2573
vn -0.9654 -0.0397 -0.2577
vn -0.7041 -0.1016 -0.7028
vn -0.2567 -0.1309 -0.9576
vn 0.2567 -0.1309 -0.9576
vn 0.7041 -0.1016 -0.7028
vn 0.9654 -0.0397 -0.2577
vn 0.9657 -0.0000 0.2596
vn 0.7060 -0.0000 0.7082
vn 0.2581 -0.0000 0.9661
vn -0.2581 -0.0000 0.9661
vn -0.7060 -0.0000 0.7082
vn -0.9657 -0.0000 0.2596
vn -0.9657 -0.0000 -0.2596
vn -0.7060 -0.0000 -0.7082
vn -0.2581 -0.0000 -0.9661
vn 0.2581 -0.0000 -0.9661
vn 0.7060 -0.0000 -0.7082
vn 0.9657 -0.0000 -0.2596
vn 0.9654 -0.0416 0.2573
vn 0.7045 -0.1166 0.7001
vn 0.2570 -0.1609 0.9529
vn -0.2570 -0.1609 0.9529
vn -0.7045 -0.1166 0.7001
vn -0.9654 -0.0416 0.2573
vn -0.9654 0.0397 -0.2577
vn -0.7041 0.1016 -0.7028
vn -0.2567 0.1309 -0.9576
vn 0.2567 0.1309 -0.9576
vn 0.7041 0.1016 -0.7028
vn 0.9654 0.0397 -0.2577
vn 0.9651 -0.1189 0.2333
vn 0.7027 -0.3230 0.6339
vn 0.2558 -0.4389 0.8614
vn -0.2558 -0.4389 0.8614
vn -0.7027 -0.3230 0.6339
vn -0.9651 -0.1189 0.2333
vn -0.9651 0.1189 -0.2333
vn -0.7027 0.3230 -0.6339
vn -0.2558 0.4389 -0.8614
vn 0.2558 0.4389 -0.8614
vn 0.7027 0.3230 -0.6339
vn 0.9651 0.1189 -0.2333
vn 0.9651 -0.1851 0.1851
vn 0.7027 -0.5031 0.5031
vn 0.2558 -0.6836 0.6836
vn -0.2558 -0.6836 0.6836
vn -0.7027 -0.5031 0.5031
vn -0.9651 -0.1851 0.1851
vn -0.9651 0.1851 -0.1851
vn -0.7027 0.5031 -0.5031
vn -0.2558 0.6836 -0.6836
vn 0.2558 0.6836 -0.6836
vn 0.7027 0.5031 -0.5031
vn 0.9651 0.1851 -0.1851
vn 0.9651 -0.2333 0.1189
vn 0.7027 -0.6339 0.3230
vn 0.2558 -0.8614 0.4389
vn -0.2558 -0.8614 0.4389
vn -0.7027 -0.6339 0.3230
vn -0.9651 -0.2333 0.1189
vn -0.9651 0.2333 -0.1189
vn -0.7027 0.6339 -0.3230
vn -0.2558 0.8614 -0.4389
vn 0.2558 0.8614 -0.4389
vn 0.7027 0.6339 -0.3230
vn 0.9651 0.2333 -0.1189
vn 0.9654 -0.2573 0.0416
vn 0.7045 -0.7001 0.1166
vn 0.2570 -0.9529 0.1609
vn -0.2570 -0.9529 0.1609
vn -0.7045 -0.7001 0.1166
vn -0.9654 -0.2573 0.0416
vn -0.9654 0.2577 -0.0397
vn -0.7041 0.7028 -0.1016
vn -0.2567 0.9576 -0.1309
vn 0.2567 0.9576 -0.1309
vn 0.7041 0.7028 -0.1016
vn 0.9654 0.2577 -0.0397
vn 0.0003 0.0012 -1.0000
vn -0.0035 0.0140 0.9999
vn 0.0003 -0.0001 -1.0000
vn -0.0034 -0.0022 1.0000
vn 0.0040 0.0139 0.9999
vn -0.0003 0.0001 -1.0000
vn -0.0003 -0.0001 -1.0000
vn -0.0070 -0.0081 0.9999
vn 0.0080 0.0069 0.9999
vn 0.0005 -0.0006 -1.0000
vn -0.0035 -0.0140 0.9999
vn 0.0005 0.0006 -1.0000
vn 0.7064 0.7078 0.0008
vn 0.2584 0.9660 0.0014
vn -0.2584 0.9660 0.0014
vn -0.7064 0.7078 0.0008
vn -0.7065 -0.7077 0.0007
vn -0.2584 -0.9660 0.0013
vn 0.2584 -0.9660 0.0013
vn 0.7065 -0.7077 0.0007
vn 0.0041 -0.0003 1.0000
vn 0.0040 -0.0139 0.9999
vn -0.0041 -0.0003 1.0000
vn 0.0080 -0.0069 0.9999
vn -0.0080 0.0069 0.9999
vn -0.0005 -0.0006 -1.0000
vn 0.0003 0.0001 -1.0000
vn 0.0003 -0.0013 -1.0000
vn 0.0041 0.0003 1.0000
vn -0.0040 0.0139 0.9999
vn 0.9659 -0.2590 0.0001
vn 0.7069 -0.7073 0.0007
vn 0.2587 -0.9660 0.0013
vn -0.2587 -0.9660 0.0013
vn -0.7069 -0.7073 0.0007
vn -0.9659 -0.2590 0.0001
vn -0.9659 0.2588 0.0001
vn -0.7071 0.7072 0.0008
vn -0.2588 0.9659 0.0015
vn 0.2588 0.9659 0.0015
vn 0.7071 0.7072 0.0008
vn 0.9659 0.2588 0.0001
vn 0.9659 -0.2588 0.0001
vn 0.7071 -0.7072 0.0008
vn 0.2588 -0.9659 0.0015
vn -0.2588 -0.9659 0.0015
vn -0.7071 -0.7072 0.0008
vn -0.9659 -0.2588 0.0001
vn -0.9659 0.2590 0.0001
vn -0.7069 0.7073 0.0007
vn -0.2587 0.9660 0.0013
vn 0.2587 0.9660 0.0013
vn 0.7069 0.7073 0.0007
vn 0.9659 0.2590 0.0001
vn 0.0034 -0.0022 1.0000
vn -0.0005 0.0006 -1.0000
vn -0.0070 0.0081 0.9999
vn 0.0070 -0.0081 0.9999
vn -0.0034 0.0022 1.0000
vn 0.0035 -0.0140 0.9999
vn -0.0003 0.0013 -1.0000
vn 0.0034 0.0022 1.0000
vn -0.0003 0.0012 -1.0000
vn 0.0070 0.0081 0.9999
vn 0.0003 -0.0012 -1.0000
vn -0.0040 -0.0139 0.9999
vn -0.0003 -0.0013 -1.0000
vn 0.0003 0.0013 -1.0000
vn 0.0035 0.0140 0.9999
vn -0.0080 -0.0069 0.9999
vn -0.0003 -0.0012 -1.0000
vn -0.0041 0.0003 1.0000
vt 0.391694 0.953152
vt 0.391694 0.845399
vt 0.426713 0.845399
vt 0.426713 0.953152
vt 0.356672 0.953152
vt 0.356672 0.845399
vt 0.321647 0.953152
vt 0.321647 0.845399
vt 0.286621 0.953152
vt 0.286621 0.845399
vt 0.251599 0.953152
vt 0.251599 0.845399
vt 0.216580 0.953152
vt 0.216580 0.845399
vt 0.181561 0.953152
vt 0.181561 0.845399
vt 0.146538 0.953152
vt 0.146538 0.845399
vt 0.111511 0.953152
vt 0.111511 0.845399
vt 0.076484 0.953152
vt 0.076484 0.845399
vt 0.041460 0.953152
vt 0.041460 0.845399
vt 0.006441 0.953152
vt 0.006441 0.845399
vt 0.391694 0.803256
vt 0.426713 0.803256
vt 0.356672 0.803256
vt 0.321647 0.803256
vt 0.286621 0.803256
vt 0.251599 0.803256
vt 0.216580 0.803256
vt 0.181561 0.803256
vt 0.146538 0.803256
vt 0.111511 0.803256
vt 0.076484 0.803256
vt 0.041460 0.803256
vt 0.006441 0.803256
vt 0.391694 0.761115
vt 0.426713 0.761115
vt 0.356672 0.761115
vt 0.321647 0.761115
vt 0.286621 0.761115
vt 0.251599 0.761115
vt 0.216580 0.761115
vt 0.181561 0.761115
vt 0.146538 0.761115
vt 0.111511 0.761115
vt 0.076484 0.761115
vt 0.041460 0.761115
vt 0.006441 0.761115
vt 0.391694 0.718975
vt 0.426713 0.718975
vt 0.356672 0.718975
vt 0.321647 0.718975
vt 0.286621 0.718975
vt 0.251599 0.718975
vt 0.216580 0.718975
vt 0.181561 0.718975
vt 0.146538 0.718975
vt 0.111511 0.718975
vt 0.076484 0.718975
vt 0.041460 0.718975
vt 0.006441 0.718975
vt 0.391694 0.676834
vt 0.426713 0.676834
vt 0.356672 0.676834
vt 0.321647 0.676834
vt 0.286621 0.676834
vt 0.251599 0.676834
vt 0.216580 0.676834
vt 0.181561 0.676834
vt 0.146538 0.676834
vt 0.111511 0.676834
vt 0.076484 0.676834
vt 0.041460 0.676834
vt 0.006441 0.676834
vt 0.391694 0.634691
vt 0.426713 0.634691
vt 0.356672 0.634691
vt 0.321647 0.634691
vt 0.286621 0.634691
vt 0.251599 0.634691
vt 0.216580 0.634691
vt 0.181561 0.634691
vt 0.146538 0.634691
vt 0.111511 0.634691
vt 0.076484 0.634691
vt 0.041460 0.634691
vt 0.006441 0.634691
vt 0.391694 0.500000
vt 0.391694 0.365309
vt 0.426713 0.365309
vt 0.426713 0.500000
vt 0.356672 0.500000
vt 0.356672 0.365309
vt 0.321647 0.500000
vt 0.321647 0.365309
vt 0.286621 0.500000
vt 0.286621 0.365309
vt 0.251599 0.500000
vt 0.251599 0.365309
vt 0.216580 0.500000
vt 0.216580 0.365309
vt 0.181561 0.500000
vt 0.181561 0.365309
vt 0.146538 0.500000
vt 0.146538 0.365309
vt 0.111511 0.500000
vt 0.111511 0.365309
vt 0.076484 0.500000
vt 0.076484 0.365309
vt 0.041460 0.500000
vt 0.041460 0.365309
vt 0.006441 0.500000
vt 0.006441 0.365309
vt 0.391694 0.323166
vt 0.426713 0.323166
vt 0.356672 0.323166
vt 0.321647 0.323166
vt 0.286621 0.323166
vt 0.251599 0.323166
vt 0.216580 0.323166
vt 0.181561 0.323166
vt 0.146538 0.323166
vt 0.111511 0.323166
vt 0.076484 0.323166
vt 0.041460 0.323166
vt 0.006441 0.323166
vt 0.391694 0.281025
vt 0.426713 0.281025
vt 0.356672 0.281025
vt 0.321647 0.281025
vt 0.286621 0.281025
vt 0.251599 0.281025
vt 0.216580 0.281025
vt 0.181561 0.281025
vt 0.146538 0.281025
vt 0.111511 0.281025
vt 0.076484 0.281025
vt 0.041460 0.281025
vt 0.006441 0.281025
vt 0.391694 0.238885
vt 0.426713 0.238885
vt 0.356672 0.238885
vt 0.321647 0.238885
vt 0.286621 0.238885
vt 0.251599 0.238885
vt 0.216580 0.238885
vt 0.181561 0.238885
vt 0.146538 0.238885
vt 0.111511 0.238885
vt 0.076484 0.238885
vt 0.041460 0.238885
vt 0.006441 0.238885
vt 0.391694 0.196744
vt 0.426713 0.196744
vt 0.356672 0.196744
vt 0.321647 0.196744
vt 0.286621 0.196744
vt 0.251599 0.196744
vt 0.216580 0.196744
vt 0.181561 0.196744
vt 0.146538 0.196744
vt 0.111511 0.196744
vt 0.076484 0.196744
vt 0.041460 0.196744
vt 0.006441 0.196744
vt 0.391694 0.154601
vt 0.426713 0.154601
vt 0.356672 0.154601
vt 0.321647 0.154601
vt 0.286621 0.154601
vt 0.251599 0.154601
vt 0.216580 0.154601
vt 0.181561 0.154601
vt 0.146538 0.154601
vt 0.111511 0.154601
vt 0.076484 0.154601
vt 0.041460 0.154601
vt 0.006441 0.154601
vt 0.356672 0.993559
vt 0.321647 0.993559
vt 0.321647 0.986825
vt 0.356672 0.986825
vt 0.251599 0.046848
vt 0.216580 0.046848
vt 0.216580 0.040114
vt 0.251599 0.040114
vt 0.391694 0.006441
vt 0.426713 0.006441
vt 0.426713 0.013175
vt 0.391694 0.013175
vt 0.321647 0.959886
vt 0.286621 0.959886
vt 0.181561 0.046848
vt 0.181561 0.040114
vt 0.181561 0.006441
vt 0.216580 0.006441
vt 0.216580 0.013175
vt 0.181561 0.013175
vt 0.216580 0.993559
vt 0.181561 0.993559
vt 0.181561 0.986825
vt 0.216580 0.986825
vt 0.251599 0.959886
vt 0.146538 0.046848
vt 0.146538 0.040114
vt 0.076484 0.993559
vt 0.041460 0.993559
vt 0.041460 0.986825
vt 0.076484 0.986825
vt 0.216580 0.959886
vt 0.391694 0.993559
vt 0.391694 0.986825
vt 0.006441 0.046848
vt 0.041460 0.046848
vt 0.076484 0.046848
vt 0.111511 0.046848
vt 0.286621 0.046848
vt 0.321647 0.046848
vt 0.356672 0.046848
vt 0.391694 0.046848
vt 0.426713 0.046848
vt 0.111511 0.040114
vt 0.251599 0.006441
vt 0.251599 0.013175
vt 0.181561 0.959886
vt 0.076484 0.040114
vt 0.251599 0.993559
vt 0.251599 0.986825
vt 0.146538 0.959886
vt 0.041460 0.040114
vt 0.286621 0.006441
vt 0.286621 0.013175
vt 0.006441 0.006441
vt 0.041460 0.006441
vt 0.041460 0.013175
vt 0.006441 0.013175
vt 0.111511 0.993559
vt 0.111511 0.986825
vt 0.111511 0.959886
vt 0.006441 0.040114
vt 0.391694 0.040114
vt 0.426713 0.040114
vt 0.356672 0.040114
vt 0.356672 0.013175
vt 0.321647 0.040114
vt 0.321647 0.013175
vt 0.286621 0.040114
vt 0.146538 0.013175
vt 0.111511 0.013175
vt 0.076484 0.013175
vt 0.006441 0.986825
vt 0.006441 0.959886
vt 0.041460 0.959886
vt 0.076484 0.959886
vt 0.146538 0.986825
vt 0.286621 0.986825
vt 0.356672 0.959886
vt 0.391694 0.959886
vt 0.426713 0.959886
vt 0.426713 0.986825
vt 0.006441 0.993559
vt 0.146538 0.006441
vt 0.146538 0.993559
vt 0.356672 0.006441
vt 0.111511 0.006441
vt 0.286621 0.993559
vt 0.321647 0.006441
vt 0.076484 0.006441
vt 0.426713 0.993559
s 0
f 181/1/1 13/2/1 24/3/1 182/4/1
f 183/5/2 14/6/2 13/2/2 181/1/2
f 184/7/3 15/8/3 14/6/3 183/5/3
f 185/9/4 16/10/4 15/8/4 184/7/4
f 186/11/5 17/12/5 16/10/5 185/9/5
f 187/13/6 18/14/6 17/12/6 186/11/6
f 188/15/7 19/16/7 18/14/7 187/13/7
f 189/17/8 20/18/8 19/16/8 188/15/8
f 190/19/9 21/20/9 20/18/9 189/17/9
f 191/21/10 22/22/10 21/20/10 190/19/10
f 192/23/11 23/24/11 22/22/11 191/21/11
f 182/25/12 24/26/12 23/24/12 192/23/12
f 13/2/13 25/27/13 36/28/13 24/3/13
f 14/6/14 26/29/14 25/27/14 13/2/14
f 15/8/15 27/30/15 26/29/15 14/6/15
f 16/10/16 28/31/16 27/30/16 15/8/16
f 17/12/17 29/32/17 28/31/17 16/10/17
f 18/14/18 30/33/18 29/32/18 17/12/18
f 19/16/19 31/34/19 30/33/19 18/14/19
f 20/18/20 32/35/20 31/34/20 19/16/20
f 21/20/21 33/36/21 32/35/21 20/18/21
f 22/22/22 34/37/22 33/36/22 21/20/22
f 23/24/23 35/38/23 34/37/23 22/22/23
f 24/26/24 36/39/24 35/38/24 23/24/24
f 25/27/25 37/40/25 48/41/25 36/28/25
f 26/29/26 38/42/26 37/40/26 25/27/26
f 27/30/27 39/43/27 38/42/27 26/29/27
f 28/31/28 40/44/28 39/43/28 27/30/28
f 29/32/29 41/45/29 40/44/29 28/31/29
f 30/33/30 42/46/30 41/45/30 29/32/30
f 31/34/31 43/47/31 42/46/31 30/33/31
f 32/35/32 44/48/32 43/47/32 31/34/32
f 33/36/33 45/49/33 44/48/33 32/35/33
f 34/37/34 46/50/34 45/49/34 33/36/34
f 35/38/35 47/51/35 46/50/35 34/37/35
f 36/39/36 48/52/36 47/51/36 35/38/36
f 37/40/37 49/53/37 60/54/37 48/41/37
f 38/42/38 50/55/38 49/53/38 37/40/38
f 39/43/39 51/56/39 50/55/39 38/42/39
f 40/44/40 52/57/40 51/56/40 39/43/40
f 41/45/41 53/58/41 52/57/41 40/44/41
f 42/46/42 54/59/42 53/58/42 41/45/42
f 43/47/43 55/60/43 54/59/43 42/46/43
f 44/48/44 56/61/44 55/60/44 43/47/44
f 45/49/45 57/62/45 56/61/45 44/48/45
f 46/50/46 58/63/46 57/62/46 45/49/46
f 47/51/47 59/64/47 58/63/47 46/50/47
f 48/52/48 60/65/48 59/64/48 47/51/48
f 49/53/49 61/66/49 72/67/49 60/54/49
f 50/55/50 62/68/50 61/66/50 49/53/50
f 51/56/51 63/69/51 62/68/51 50/55/51
f 52/57/52 64/70/52 63/69/52 51/56/52
f 53/58/53 65/71/53 64/70/53 52/57/53
f 54/59/54 66/72/54 65/71/54 53/58/54
f 55/60/55 67/73/55 66/72/55 54/59/55
f 56/61/56 68/74/56 67/73/56 55/60/56
f 57/62/57 69/75/57 68/74/57 56/61/57
f 58/63/58 70/76/58 69/75/58 57/62/58
f 59/64/59 71/77/59 70/76/59 58/63/59
f 60/65/60 72/78/60 71/77/60 59/64/60
f 61/66/61 73/79/61 84/80/61 72/67/61
f 62/68/62 74/81/62 73/79/62 61/66/62
f 63/69/63 75/82/63 74/81/63 62/68/63
f 64/70/64 76/83/64 75/82/64 63/69/64
f 65/71/65 77/84/65 76/83/65 64/70/65
f 66/72/66 78/85/66 77/84/66 65/71/66
f 67/73/67 79/86/67 78/85/67 66/72/67
f 68/74/68 80/87/68 79/86/68 67/73/68
f 69/75/69 81/88/69 80/87/69 68/74/69
f 70/76/70 82/89/70 81/88/70 69/75/70
f 71/77/71 83/90/71 82/89/71 70/76/71
f 72/78/72 84/91/72 83/90/72 71/77/72
f 193/92/73 85/93/73 96/94/73 194/95/73
f 195/96/74 86/97/74 85/93/74 193/92/74
f 196/98/75 87/99/75 86/97/75 195/96/75
f 197/100/76 88/101/76 87/99/76 196/98/76
f 198/102/77 89/103/77 88/101/77 197/100/77
f 199/104/78 90/105/78 89/103/78 198/102/78
f 200/106/79 91/107/79 90/105/79 199/104/79
f 201/108/80 92/109/80 91/107/80 200/106/80
f 202/110/81 93/111/81 92/109/81 201/108/81
f 203/112/82 94/113/82 93/111/82 202/110/82
f 204/114/83 95/115/83 94/113/83 203/112/83
f 194/116/84 96/117/84 95/115/84 204/114/84
f 85/93/85 97/118/85 108/119/85 96/94/85
f 86/97/86 98/120/86 97/118/86 85/93/86
f 87/99/87 99/121/87 98/120/87 86/97/87
f 88/101/88 100/122/88 99/121/88 87/99/88
f 89/103/89 101/123/89 100/122/89 88/101/89
f 90/105/90 102/124/90 101/123/90 89/103/90
f 91/107/91 103/125/91 102/124/91 90/105/91
f 92/109/92 104/126/92 103/125/92 91/107/92
f 93/111/93 105/127/93 104/126/93 92/109/93
f 94/113/94 106/128/94 105/127/94 93/111/94
f 95/115/95 107/129/95 106/128/95 94/113/95
f 96/117/96 108/130/96 107/129/96 95/115/96
f 97/118/97 109/131/97 120/132/97 108/119/97
f 98/120/98 110/133/98 109/131/98 97/118/98
f 99/121/99 111/134/99 110/133/99 98/120/99
f 100/122/100 112/135/100 111/134/100 99/121/100
f 101/123/101 113/136/101 112/135/101 100/122/101
f 102/124/102 114/137/102 113/136/102 101/123/102
f 103/125/103 115/138/103 114/137/103 102/124/103
f 104/126/104 116/139/104 115/138/104 103/125/104
f 105/127/105 117/140/105 116/139/105 104/126/105
f 106/128/106 118/141/106 117/140/106 105/127/106
f 107/129/107 119/142/107 118/141/107 106/128/107
f 108/130/108 120/143/108 119/142/108 107/129/108
f 109/131/109 121/144/109 132/145/109 120/132/109
f 110/133/110 122/146/110 121/144/110 109/131/110
f 111/134/111 123/147/111 122/146/111 110/133/111
f 112/135/112 124/148/112 123/147/112 111/134/112
f 113/136/113 125/149/113 124/148/113 112/135/113
f 114/137/114 126/150/114 125/149/114 113/136/114
f 115/138/115 127/151/115 126/150/115 114/137/115
f 116/139/116 128/152/116 127/151/116 115/138/116
f 117/140/117 129/153/117 128/152/117 116/139/117
f 118/141/118 130/154/118 129/153/118 117/140/118
f 119/142/119 131/155/119 130/154/119 118/141/119
f 120/143/120 132/156/120 131/155/120 119/142/120
f 121/144/121 133/157/121 144/158/121 132/145/121
f 122/146/122 134/159/122 133/157/122 121/144/122
f 123/147/123 135/160/123 134/159/123 122/146/123
f 124/148/124 136/161/124 135/160/124 123/147/124
f 125/149/125 137/162/125 136/161/125 124/148/125
f 126/150/126 138/163/126 137/162/126 125/149/126
f 127/151/127 139/164/127 138/163/127 126/150/127
f 128/152/128 140/165/128 139/164/128 127/151/128
f 129/153/129 141/166/129 140/165/129 128/152/129
f 130/154/130 142/167/130 141/166/130 129/153/130
f 131/155/131 143/168/131 142/167/131 130/154/131
f 132/156/132 144/169/132 143/168/132 131/155/132
f 133/157/133 145/170/133 156/171/133 144/158/133
f 134/159/134 146/172/134 145/170/134 133/157/134
f 135/160/135 147/173/135 146/172/135 134/159/135
f 136/161/136 148/174/136 147/173/136 135/160/136
f 137/162/137 149/175/137 148/174/137 136/161/137
f 138/163/138 150/176/138 149/175/138 137/162/138
f 139/164/139 151/177/139 150/176/139 138/163/139
f 140/165/140 152/178/140 151/177/140 139/164/140
f 141/166/141 153/179/141 152/178/141 140/165/141
f 142/167/142 154/180/142 153/179/142 141/166/142
f 143/168/143 155/181/143 154/180/143 142/167/143
f 144/169/144 156/182/144 155/181/144 143/168/144
f 2/183/145 3/184/145 208/185/145 207/186/145
f 174/187/146 175/188/146 229/189/146 227/190/146
f 157/191/147 168/192/147 219/193/147 218/194/147
f 185/9/148 184/7/148 244/195/148 245/196/148
f 175/188/149 176/197/149 231/198/149 229/189/149
f 163/199/150 162/200/150 230/201/150 232/202/150
f 6/203/151 7/204/151 212/205/151 211/206/151
f 186/11/152 185/9/152 245/196/152 246/207/152
f 176/197/153 177/208/153 233/209/153 231/198/153
f 10/210/154 11/211/154 216/212/154 215/213/154
f 187/13/155 186/11/155 246/207/155 247/214/155
f 1/215/156 2/183/156 207/186/156 205/216/156
f 156/182/1 170/217/1 180/218/1 155/181/1
f 155/181/157 180/218/157 179/219/157 154/180/157
f 154/180/158 179/219/158 178/220/158 153/179/158
f 153/179/159 178/220/159 177/208/159 152/178/159
f 152/178/160 177/208/160 176/197/160 151/177/160
f 151/177/6 176/197/6 175/188/6 150/176/6
f 150/176/7 175/188/7 174/187/7 149/175/7
f 149/175/161 174/187/161 173/221/161 148/174/161
f 148/174/162 173/221/162 172/222/162 147/173/162
f 147/173/163 172/222/163 171/223/163 146/172/163
f 146/172/164 171/223/164 169/224/164 145/170/164
f 145/170/12 169/224/12 170/225/12 156/171/12
f 177/208/165 178/220/165 235/226/165 233/209/165
f 162/200/151 161/227/151 228/228/151 230/201/151
f 188/15/166 187/13/166 247/214/166 248/229/166
f 178/220/167 179/219/167 237/230/167 235/226/167
f 5/231/150 6/203/150 211/206/150 210/232/150
f 189/17/168 188/15/168 248/229/168 249/233/168
f 179/219/169 180/218/169 239/234/169 237/230/169
f 161/227/170 160/235/170 226/236/170 228/228/170
f 168/237/171 167/238/171 240/239/171 219/240/171
f 9/241/172 10/210/172 215/213/172 214/242/172
f 190/19/173 189/17/173 249/233/173 250/243/173
f 180/218/174 170/217/174 220/244/174 239/234/174
f 84/91/84 194/116/84 204/114/84 83/90/84
f 83/90/83 204/114/83 203/112/83 82/89/83
f 82/89/82 203/112/82 202/110/82 81/88/82
f 81/88/81 202/110/81 201/108/81 80/87/81
f 80/87/80 201/108/80 200/106/80 79/86/80
f 79/86/79 200/106/79 199/104/79 78/85/79
f 78/85/78 199/104/78 198/102/78 77/84/78
f 77/84/77 198/102/77 197/100/77 76/83/77
f 76/83/76 197/100/76 196/98/76 75/82/76
f 75/82/75 196/98/75 195/96/75 74/81/75
f 74/81/74 195/96/74 193/92/74 73/79/74
f 73/79/73 193/92/73 194/95/73 84/80/73
f 217/245/175 218/194/175 219/193/175 220/246/175
f 221/247/176 222/248/176 218/194/176 217/245/176
f 223/249/177 224/250/177 222/248/177 221/247/177
f 225/251/178 226/236/178 224/250/178 223/249/178
f 227/190/179 228/228/179 226/236/179 225/251/179
f 229/189/180 230/201/180 228/228/180 227/190/180
f 231/198/181 232/202/181 230/201/181 229/189/181
f 233/209/182 234/252/182 232/202/182 231/198/182
f 235/226/183 236/253/183 234/252/183 233/209/183
f 237/230/184 238/254/184 236/253/184 235/226/184
f 239/234/185 240/239/185 238/254/185 237/230/185
f 220/244/186 219/240/186 240/239/186 239/234/186
f 206/255/187 242/256/187 252/257/187 216/212/187
f 216/212/188 252/257/188 251/258/188 215/213/188
f 215/213/189 251/258/189 250/243/189 214/242/189
f 214/242/190 250/243/190 249/233/190 213/259/190
f 213/259/191 249/233/191 248/229/191 212/205/191
f 212/205/192 248/229/192 247/214/192 211/206/192
f 211/206/193 247/214/193 246/207/193 210/232/193
f 210/232/194 246/207/194 245/196/194 209/260/194
f 209/260/195 245/196/195 244/195/195 208/185/195
f 208/185/196 244/195/196 243/261/196 207/186/196
f 207/186/197 243/261/197 241/262/197 205/216/197
f 205/216/198 241/262/198 242/263/198 206/264/198
f 184/7/199 183/5/199 243/261/199 244/195/199
f 11/211/147 12/265/147 206/255/147 216/212/147
f 164/266/200 163/199/200 232/202/200 234/252/200
f 173/221/201 174/187/201 227/190/201 225/251/201
f 183/5/202 181/1/202 241/262/202 243/261/202
f 7/204/170 8/267/170 213/259/170 212/205/170
f 172/222/203 173/221/203 225/251/203 223/249/203
f 181/1/204 182/4/204 242/263/204 241/262/204
f 158/268/154 157/191/154 218/194/154 222/248/154
f 165/269/205 164/266/205 234/252/205 236/253/205
f 171/223/206 172/222/206 223/249/206 221/247/206
f 3/184/207 4/270/207 209/260/207 208/185/207
f 169/224/208 171/223/208 221/247/208 217/245/208
f 159/271/209 158/268/209 222/248/209 224/250/209
f 182/25/210 192/23/210 252/257/210 242/256/210
f 8/267/211 9/241/211 214/242/211 213/259/211
f 166/272/212 165/269/212 236/253/212 238/254/212
f 170/225/213 169/224/213 217/245/213 220/246/213
f 192/23/214 191/21/214 251/258/214 252/257/214
f 4/270/200 5/231/200 210/232/200 209/260/200
f 160/235/215 159/271/215 224/250/215 226/236/215
f 12/273/171 1/215/171 205/216/171 206/264/171
f 191/21/216 190/19/216 250/243/216 251/258/216
f 167/238/156 166/272/156 238/254/156 240/239/156
