# Blender 5.2.1 LTS
# www.blender.org
mtllib LabBottleSpray.mtl
o LabBottleSpray
v -0.000000 0.000000 0.032859
v -0.000000 0.201331 0.013130
v -0.023235 0.000000 0.023235
v -0.009284 0.201331 0.009284
v -0.032859 0.000000 0.000000
v -0.013130 0.201331 0.000000
v -0.023235 0.000000 -0.023235
v -0.009284 0.201331 -0.009284
v -0.000000 0.000000 -0.032859
v -0.000000 0.201331 -0.013130
v 0.023235 0.000000 -0.023235
v 0.009284 0.201331 -0.009284
v 0.032859 0.000000 0.000000
v 0.013130 0.201331 0.000000
v 0.023235 0.000000 0.023235
v 0.009284 0.201331 0.009284
v 0.000000 0.154322 0.037858
v -0.026770 0.154322 0.026770
v -0.037858 0.154322 0.000000
v -0.026770 0.154322 -0.026770
v 0.000000 0.154322 -0.037858
v 0.026770 0.154322 -0.026770
v 0.037858 0.154322 0.000000
v 0.026770 0.154322 0.026770
v -0.026770 0.008390 0.026770
v -0.037858 0.008390 0.000000
v -0.026770 0.008390 -0.026770
v 0.000000 0.008390 -0.037858
v 0.026770 0.008390 -0.026770
v 0.037858 0.008390 0.000000
v 0.026770 0.008390 0.026770
v 0.000000 0.008390 0.037858
v -0.009284 0.222518 0.009284
v -0.000000 0.222518 0.013130
v -0.013130 0.222518 0.000000
v -0.009284 0.222518 -0.009284
v -0.000000 0.222518 -0.013130
v 0.009284 0.222518 -0.009284
v 0.013130 0.222518 0.000000
v 0.009284 0.222518 0.009284
v -0.005101 0.253954 0.004394
v 0.000000 0.252881 0.006214
v -0.007214 0.256545 0.000000
v -0.005101 0.259136 -0.004394
v 0.000000 0.260210 -0.006214
v 0.005101 0.259136 -0.004394
v 0.007214 0.256545 0.000000
v 0.005101 0.253954 0.004394
v -0.000000 0.237700 0.009672
v -0.007192 0.238236 0.006839
v 0.007192 0.238236 0.006839
v 0.007192 0.240827 -0.006839
v 0.010172 0.239532 0.000000
v -0.007192 0.240827 -0.006839
v -0.000000 0.241364 -0.009672
v -0.010172 0.239532 0.000000
v -0.002818 0.265356 -0.046092
v -0.003986 0.263924 -0.043665
v 0.000000 0.265949 -0.047098
v 0.002818 0.265356 -0.046092
v 0.003986 0.263924 -0.043665
v 0.003974 0.255240 -0.047443
v -0.003974 0.255240 -0.047443
v 0.005620 0.254524 -0.043665
v 0.000000 0.255537 -0.049008
v -0.005620 0.254524 -0.043665
v 0.000000 0.256545 -0.000000
v -0.005101 0.259684 0.007773
v 0.000000 0.258611 0.009593
v 0.005101 0.259684 0.007773
v 0.000000 0.262275 0.003379
v -0.005583 0.247715 -0.025276
v 0.000000 0.262943 -0.024325
v 0.003960 0.262195 -0.024369
v 0.000000 0.247741 -0.025351
v 0.005583 0.247715 -0.025276
v 0.005600 0.260389 -0.024474
v 0.007896 0.247651 -0.025095
v -0.003960 0.262195 -0.024369
v -0.005600 0.260389 -0.024474
v -0.007896 0.247651 -0.025095
v -0.004778 0.251375 -0.035692
v 0.003389 0.263757 -0.034919
v 0.004793 0.262212 -0.035010
v -0.003389 0.263757 -0.034919
v 0.000000 0.264397 -0.034882
v 0.000000 0.251398 -0.035756
v 0.004778 0.251375 -0.035692
v 0.006758 0.251321 -0.035537
v -0.004793 0.262212 -0.035010
v -0.006758 0.251321 -0.035537
v 0.000000 0.215869 -0.052038
v 0.000000 0.214201 -0.047292
v 0.002180 0.215858 -0.052009
v 0.002547 0.214189 -0.047258
v 0.003082 0.215834 -0.051938
v 0.003601 0.214160 -0.047176
v -0.003082 0.215834 -0.051938
v -0.003601 0.214160 -0.047176
v -0.002547 0.214189 -0.047258
v -0.002180 0.215858 -0.052009
v 0.000000 0.229840 -0.033194
v 0.000000 0.232503 -0.040770
v 0.003479 0.232486 -0.040723
v 0.004065 0.229821 -0.033140
v 0.004920 0.232447 -0.040611
v 0.005749 0.229775 -0.033008
v -0.004920 0.232447 -0.040611
v -0.005749 0.229775 -0.033008
v -0.003479 0.232486 -0.040723
v -0.004065 0.229821 -0.033140
vn -0.3741 0.2107 0.9031
vn -0.3718 0.2363 0.8977
vn -0.9031 0.2107 0.3741
vn -0.8977 0.2363 0.3718
vn -0.9031 0.2107 -0.3741
vn -0.8977 0.2363 -0.3718
vn -0.3741 0.2107 -0.9031
vn -0.3718 0.2363 -0.8977
vn 0.3741 0.2107 -0.9031
vn 0.3718 0.2363 -0.8977
vn 0.9031 0.2107 -0.3741
vn 0.8977 0.2363 -0.3718
vn -0.9170 0.0822 0.3904
vn -0.9169 0.0829 0.3905
vn 0.9031 0.2107 0.3741
vn 0.8977 0.2363 0.3718
vn 0.3741 0.2107 0.9031
vn 0.3718 0.2363 0.8977
vn -0.0000 -1.0000 -0.0000
vn 0.3722 -0.2323 0.8986
vn 0.8986 -0.2323 0.3722
vn 0.8986 -0.2323 -0.3722
vn 0.3722 -0.2323 -0.8986
vn -0.3722 -0.2323 -0.8986
vn -0.8986 -0.2323 -0.3722
vn -0.8986 -0.2323 0.3722
vn -0.3722 -0.2323 0.8986
vn -0.3352 -0.4823 0.8093
vn -0.8093 -0.4823 0.3352
vn -0.8093 -0.4823 -0.3352
vn -0.3352 -0.4823 -0.8093
vn 0.3352 -0.4823 -0.8093
vn 0.8093 -0.4823 -0.3352
vn 0.8093 -0.4823 0.3352
vn 0.3352 -0.4823 0.8093
vn -0.3434 0.1986 0.9180
vn -0.3452 0.1986 0.9173
vn -0.3241 0.1986 0.9249
vn 0.3803 0.0814 -0.9213
vn 0.3803 0.0819 -0.9212
vn 0.3747 0.0977 0.9220
vn 0.3748 0.0970 0.9220
vn -0.3748 0.0970 0.9220
vn -0.3747 0.0977 0.9220
vn -0.9219 0.0769 -0.3798
vn -0.9219 0.0765 -0.3798
vn 0.9219 0.0765 -0.3798
vn 0.9219 0.0769 -0.3798
vn -0.3803 0.0819 -0.9212
vn -0.3803 0.0814 -0.9213
vn 0.9169 0.0829 0.3905
vn 0.9170 0.0822 0.3904
vn -0.0000 0.8614 0.5080
vn 0.3452 0.1986 0.9173
vn 0.3434 0.1986 0.9180
vn 0.3241 0.1986 0.9249
vn 0.7352 0.6751 0.0611
vn 0.7360 0.6742 0.0608
vn 0.7304 0.6801 0.0628
vn 0.1063 -0.9388 -0.3277
vn -0.0000 -0.9522 -0.3055
vn 0.0461 -0.9490 -0.3120
vn -0.9369 0.1745 0.3028
vn -0.8914 0.1689 0.4206
vn -0.8744 0.1689 0.4548
vn -0.9699 0.1777 0.1666
vn 0.8914 0.1689 0.4206
vn 0.9369 0.1745 0.3028
vn 0.9699 0.1777 0.1666
vn 0.8744 0.1689 0.4548
vn -0.1063 -0.9388 -0.3277
vn -0.0461 -0.9490 -0.3120
vn -0.0000 0.9911 0.1328
vn 0.1800 0.9749 0.1308
vn 0.1741 0.9765 0.1273
vn -0.0000 0.9916 0.1292
vn -0.9140 0.1566 -0.3743
vn 0.3751 0.1660 -0.9120
vn -0.3751 0.1660 -0.9120
vn 0.9140 0.1566 -0.3743
vn 0.9678 0.1700 -0.1859
vn 0.9188 0.1564 -0.3624
vn 0.9544 0.1659 -0.2480
vn -0.3680 0.1661 -0.9149
vn 0.3680 0.1661 -0.9149
vn -0.9188 0.1564 -0.3624
vn -0.9678 0.1700 -0.1859
vn -0.9544 0.1659 -0.2480
vn 0.1786 -0.9214 -0.3451
vn -0.7360 0.6742 0.0608
vn -0.7352 0.6751 0.0611
vn -0.7304 0.6801 0.0628
vn -0.9919 0.1004 -0.0774
vn -0.9826 0.1775 -0.0541
vn -0.1800 0.9749 0.1308
vn -0.1741 0.9765 0.1273
vn 0.9826 0.1775 -0.0541
vn 0.9919 0.1004 -0.0774
vn -0.1786 -0.9214 -0.3451
vn -0.0562 0.9166 0.3959
vn -0.0000 0.9573 0.2889
vn 0.0562 0.9166 0.3959
vn 0.7071 0.3592 -0.6091
vn -0.3827 -0.4693 0.7958
vn 0.3827 -0.4693 0.7958
vn -0.7071 0.3592 -0.6091
vn -0.1615 -0.9248 -0.3445
vn -0.2089 -0.9187 -0.3353
vn -0.1187 -0.9284 -0.3520
vn 0.9926 0.1005 -0.0685
vn 0.9834 0.1771 -0.0400
vn -0.0000 0.9900 0.1409
vn -0.1763 0.9745 0.1389
vn -0.9834 0.1771 -0.0400
vn -0.9926 0.1005 -0.0685
vn -0.7292 0.6816 0.0606
vn -0.7354 0.6750 0.0598
vn -0.7345 0.6759 0.0599
vn 0.2089 -0.9187 -0.3353
vn 0.1615 -0.9248 -0.3445
vn 0.1187 -0.9284 -0.3520
vn 0.1763 0.9745 0.1389
vn -0.0000 -0.9314 -0.3641
vn 0.7292 0.6816 0.0606
vn 0.7345 0.6759 0.0599
vn 0.7354 0.6750 0.0598
vn -0.0806 -0.5256 0.8469
vn -0.0471 -0.5404 0.8401
vn -0.0429 -0.6673 0.7435
vn -0.0763 -0.6642 0.7436
vn 0.0484 0.4123 -0.9098
vn 0.0823 0.3992 -0.9132
vn 0.0799 0.5555 -0.8277
vn 0.0452 0.5586 -0.8282
vn -0.0000 -0.5427 0.8399
vn -0.0000 -0.6695 0.7428
vn -0.0000 0.4146 -0.9100
vn -0.0000 0.5609 -0.8279
vn -0.0000 -0.9434 -0.3316
vn -0.9910 -0.0482 -0.1249
vn -0.9913 -0.0444 -0.1236
vn -0.9925 -0.0291 -0.1184
vn 0.9913 -0.0444 -0.1236
vn 0.9910 -0.0482 -0.1249
vn 0.9925 -0.0291 -0.1184
vn -0.0823 0.3992 -0.9132
vn -0.0484 0.4123 -0.9098
vn -0.0452 0.5586 -0.8282
vn -0.0799 0.5555 -0.8277
vn 0.0471 -0.5404 0.8401
vn 0.0806 -0.5256 0.8469
vn 0.0763 -0.6642 0.7436
vn 0.0429 -0.6673 0.7435
vn -0.0000 -0.4013 0.9159
vn 0.0500 -0.3983 0.9159
vn 0.0824 -0.3951 0.9149
vn -0.0496 0.2539 -0.9660
vn -0.0000 0.2565 -0.9665
vn -0.0823 0.2512 -0.9644
vn 0.0496 0.2539 -0.9660
vn -0.0500 -0.3983 0.9159
vn 0.0823 0.2512 -0.9644
vn -0.0824 -0.3951 0.9149
vt 0.819180 0.695147
vt 0.859687 0.740482
vt 0.852613 0.749551
vt 0.806826 0.720509
vt 0.847454 0.759064
vt 0.800291 0.741973
vt 0.844239 0.769079
vt 0.797048 0.761486
vt 0.842781 0.779301
vt 0.796312 0.780057
vt 0.844581 0.789475
vt 0.797723 0.798571
vt 0.846731 0.799845
vt 0.801784 0.817731
vt 0.974985 0.408749
vt 0.974033 0.417066
vt 0.957256 0.414698
vt 0.958433 0.407186
vt 0.851113 0.809682
vt 0.809128 0.838327
vt 0.857912 0.817954
vt 0.821288 0.861106
vt 0.637895 0.941442
vt 0.651875 0.955422
vt 0.651875 0.975194
vt 0.637895 0.989175
vt 0.618123 0.989175
vt 0.604142 0.975194
vt 0.604142 0.955422
vt 0.618123 0.941442
vt 0.697654 0.849390
vt 0.696185 0.875125
vt 0.697227 0.825476
vt 0.696633 0.801951
vt 0.696591 0.779271
vt 0.696788 0.757214
vt 0.697429 0.734647
vt 0.697391 0.711443
vt 0.695104 0.687603
vt 0.687007 0.690112
vt 0.689258 0.711823
vt 0.688708 0.734555
vt 0.688994 0.757133
vt 0.688370 0.779212
vt 0.688102 0.802028
vt 0.688130 0.825703
vt 0.689231 0.849188
vt 0.687007 0.872585
vt 0.851955 0.913677
vt 0.857441 0.916541
vt 0.850112 0.926586
vt 0.845991 0.925018
vt 0.975234 0.384075
vt 0.975588 0.392237
vt 0.959308 0.392472
vt 0.959064 0.385164
vt 0.972118 0.359706
vt 0.973468 0.367875
vt 0.957042 0.370404
vt 0.955148 0.362730
vt 0.972778 0.425263
vt 0.955495 0.422616
vt 0.975510 0.400468
vt 0.959119 0.399800
vt 0.974488 0.375985
vt 0.958333 0.377820
vt 0.842807 0.930212
vt 0.841812 0.924697
vt 0.857441 0.943882
vt 0.851955 0.946746
vt 0.845991 0.935406
vt 0.850112 0.933837
vt 0.815367 0.932946
vt 0.815455 0.934601
vt 0.808419 0.933796
vt 0.806354 0.932500
vt 0.313446 0.842337
vt 0.309653 0.842313
vt 0.309653 0.831415
vt 0.312735 0.832635
vt 0.846064 0.912314
vt 0.846064 0.948109
vt 0.841812 0.935727
vt 0.305859 0.842337
vt 0.306570 0.832635
vt 0.815323 0.930212
vt 0.805494 0.930212
vt 0.944950 0.405098
vt 0.944704 0.398835
vt 0.944606 0.392499
vt 0.944729 0.386190
vt 0.944987 0.379992
vt 0.944729 0.373753
vt 0.944705 0.411445
vt 0.943159 0.367498
vt 0.943159 0.417865
vt 0.809145 0.941468
vt 0.805801 0.940984
vt 0.806213 0.932698
vt 0.802395 0.920041
vt 0.805801 0.919440
vt 0.806213 0.927726
vt 0.803863 0.928465
vt 0.802395 0.940383
vt 0.803863 0.931959
vt 0.809145 0.918955
vt 0.808419 0.926628
vt 0.315009 0.842411
vt 0.314104 0.835576
vt 0.815455 0.925822
vt 0.815367 0.927478
vt 0.806354 0.927924
vt 0.815976 0.916903
vt 0.815976 0.943520
vt 0.304296 0.842411
vt 0.305201 0.835576
vt 0.661934 0.857760
vt 0.664712 0.861630
vt 0.659970 0.862087
vt 0.838562 0.926651
vt 0.837206 0.930212
vt 0.838562 0.933773
vt 0.667167 0.855394
vt 0.669091 0.861208
vt 0.668312 0.867282
vt 0.667214 0.871921
vt 0.661625 0.870598
vt 0.662724 0.865959
vt 0.665203 0.851051
vt 0.659970 0.853417
vt 0.303887 0.924804
vt 0.301316 0.930181
vt 0.303507 0.909456
vt 0.305325 0.909380
vt 0.824823 0.945626
vt 0.823876 0.935203
vt 0.823675 0.930212
vt 0.823744 0.927099
vt 0.823876 0.925220
vt 0.824823 0.914797
vt 0.317989 0.930181
vt 0.315418 0.924804
vt 0.313980 0.909380
vt 0.315798 0.909456
vt 0.823744 0.933325
vt 0.309653 0.922589
vt 0.309653 0.909340
vt 0.314214 0.894071
vt 0.312872 0.894040
vt 0.311690 0.877267
vt 0.312525 0.877306
vt 0.312392 0.857782
vt 0.313517 0.857777
vt 0.312024 0.873355
vt 0.311325 0.873339
vt 0.309653 0.894028
vt 0.309653 0.877259
vt 0.309653 0.857782
vt 0.309653 0.873331
vt 0.307615 0.877267
vt 0.306780 0.877306
vt 0.307281 0.873355
vt 0.307980 0.873339
vt 0.819724 0.899552
vt 0.813283 0.901085
vt 0.805352 0.886612
vt 0.809387 0.885651
vt 0.813283 0.959338
vt 0.819724 0.960871
vt 0.809387 0.974772
vt 0.805352 0.973811
vt 0.305789 0.857777
vt 0.306913 0.857782
vt 0.306433 0.894040
vt 0.305091 0.894071
s 1
f 17/1/1 2/2/2 4/3/2 18/4/1
f 18/4/3 4/3/4 6/5/4 19/6/3
f 19/6/5 6/5/6 8/7/6 20/8/5
f 20/8/7 8/7/8 10/9/8 21/10/7
f 21/10/9 10/9/10 12/11/10 22/12/9
f 22/12/11 12/11/12 14/13/12 23/14/11
f 6/15/4 4/16/4 33/17/13 35/18/14
f 23/14/15 14/13/16 16/19/16 24/20/15
f 24/20/17 16/19/18 2/21/18 17/22/17
f 1/23/19 3/24/19 5/25/19 7/26/19 9/27/19 11/28/19 13/29/19 15/30/19
f 31/31/20 24/20/17 17/22/17 32/32/20
f 30/33/21 23/14/15 24/20/15 31/31/21
f 29/34/22 22/12/11 23/14/11 30/33/22
f 28/35/23 21/10/9 22/12/9 29/34/23
f 27/36/24 20/8/7 21/10/7 28/35/24
f 26/37/25 19/6/5 20/8/5 27/36/25
f 25/38/26 18/4/3 19/6/3 26/37/26
f 32/39/27 17/1/1 18/4/1 25/38/27
f 1/40/28 32/39/27 25/38/27 3/41/28
f 3/41/29 25/38/26 26/37/26 5/42/29
f 5/42/30 26/37/25 27/36/25 7/43/30
f 7/43/31 27/36/24 28/35/24 9/44/31
f 9/44/32 28/35/23 29/34/23 11/45/32
f 11/45/33 29/34/22 30/33/22 13/46/33
f 13/46/34 30/33/21 31/31/21 15/47/34
f 15/47/35 31/31/20 32/32/20 1/48/35
f 50/49/36 49/50/37 42/51/38 41/52/38
f 12/53/10 10/54/10 37/55/39 38/56/40
f 2/57/18 16/58/18 40/59/41 34/60/42
f 4/16/2 2/61/2 34/62/43 33/17/44
f 8/63/6 6/15/6 35/18/45 36/64/46
f 14/65/12 12/53/12 38/56/47 39/66/48
f 10/54/8 8/63/8 36/64/49 37/55/50
f 16/58/16 14/65/16 39/66/51 40/59/52
f 41/52/53 67/67/53 43/68/53
f 49/69/54 51/70/55 48/71/56 42/72/56
f 83/73/57 84/74/58 61/75/59 60/76/59
f 88/77/60 87/78/61 65/79/61 62/80/62
f 56/81/63 50/49/64 41/52/65 43/68/66
f 51/70/67 53/82/68 47/83/69 48/71/70
f 87/78/61 82/84/71 63/85/72 65/79/61
f 86/86/73 83/73/74 60/76/75 59/87/76
f 36/64/46 35/18/45 56/88/77 54/89/77
f 38/56/40 37/55/39 55/90/78 52/91/78
f 40/59/52 39/66/51 53/92/68 51/93/67
f 35/18/14 33/17/13 50/94/64 56/88/63
f 37/55/50 36/64/49 54/89/79 55/90/79
f 39/66/48 38/56/47 52/91/80 53/92/80
f 34/60/42 40/59/41 51/93/55 49/95/54
f 33/17/44 34/62/43 49/96/37 50/94/36
f 64/97/81 62/98/82 60/99/82 61/75/83
f 65/100/84 63/101/84 57/102/84 59/103/84
f 62/98/85 65/104/85 59/105/85 60/99/85
f 63/101/86 66/106/87 58/107/88 57/102/86
f 89/108/89 88/77/60 62/80/62 64/109/89
f 90/110/90 85/111/91 57/112/92 58/107/92
f 91/113/93 90/110/94 58/107/88 66/106/87
f 85/111/95 86/86/73 59/87/76 57/112/96
f 84/74/97 89/114/98 64/97/81 61/75/83
f 82/84/71 91/115/99 66/116/99 63/85/72
f 70/117/53 71/118/53 69/119/53
f 43/68/53 67/67/53 44/120/100
f 44/120/100 67/67/53 45/121/101
f 45/121/101 67/67/53 46/122/102
f 46/122/102 67/67/53 47/83/53
f 47/83/53 67/67/53 48/71/53
f 48/123/103 67/124/103 71/118/103 70/117/103
f 41/125/104 42/126/104 69/127/104 68/128/104
f 69/119/53 71/118/53 68/128/53
f 42/129/105 48/123/105 70/117/105 69/130/105
f 67/124/106 41/125/106 68/128/106 71/118/106
f 54/131/107 56/132/108 81/133/108 72/134/109
f 47/83/69 53/82/68 78/135/110 77/136/111
f 44/120/100 45/121/101 73/137/112 79/138/113
f 56/81/63 43/68/66 80/139/114 81/140/115
f 43/68/116 44/120/116 79/138/117 80/139/118
f 53/141/119 52/142/120 76/143/121 78/144/119
f 45/121/101 46/122/102 74/145/122 73/137/112
f 55/146/123 54/131/107 72/134/109 75/147/123
f 52/142/120 55/146/123 75/147/123 76/143/121
f 46/122/124 47/83/124 77/136/125 74/145/126
f 107/148/127 105/149/128 95/150/129 97/151/130
f 77/136/111 78/135/110 89/114/98 84/74/97
f 79/138/113 73/137/112 86/86/73 85/111/95
f 81/140/115 80/139/114 90/110/94 91/113/93
f 80/139/118 79/138/117 85/111/91 90/110/90
f 104/152/131 106/153/132 96/154/133 94/155/134
f 73/137/112 74/145/122 83/73/74 86/86/73
f 105/149/128 102/156/135 93/157/136 95/150/129
f 103/158/137 104/152/131 94/155/134 92/159/138
f 74/145/126 77/136/125 84/74/58 83/73/57
f 100/160/139 99/161/139 98/162/139 101/163/139
f 97/151/139 95/150/139 94/155/139 96/154/139
f 93/157/139 100/160/139 101/163/139 92/159/139
f 95/150/139 93/157/139 92/159/139 94/155/139
f 109/164/140 108/165/141 98/166/142 99/167/142
f 106/168/143 107/169/144 97/170/145 96/171/145
f 108/172/146 110/173/147 101/163/148 98/162/149
f 110/173/147 103/158/137 92/159/138 101/163/148
f 111/174/150 109/175/151 99/161/152 100/160/153
f 102/156/135 111/174/150 100/160/153 93/157/136
f 75/147/154 72/134/155 111/174/150 102/156/135
f 72/134/155 81/133/156 109/175/151 111/174/150
f 82/84/157 87/78/158 103/158/137 110/173/147
f 91/115/159 82/84/157 110/173/147 108/172/146
f 89/114/98 78/135/110 107/169/144 106/168/143
f 81/140/115 91/113/93 108/165/141 109/164/140
f 87/78/158 88/77/160 104/152/131 103/158/137
f 76/143/161 75/147/154 102/156/135 105/149/128
f 88/77/160 89/108/162 106/153/132 104/152/131
f 78/144/163 76/143/161 105/149/128 107/148/127
