# Blender 5.2.1 LTS
# www.blender.org
mtllib LabBottle3L.mtl
o LabBottle3L
v 0.045379 0.000000 -0.076444
v 0.017937 0.289437 -0.075936
v 0.045379 0.000000 0.077167
v -0.014829 0.273922 0.050702
v -0.045379 0.000000 -0.076444
v -0.017937 0.289437 -0.075936
v -0.045379 0.000000 0.077167
v -0.014829 0.273922 0.082188
v 0.051653 0.208127 -0.088311
v 0.051653 0.208127 0.086538
v -0.051653 0.208127 0.086538
v -0.051653 0.208127 -0.088311
v 0.061544 0.040918 0.066445
v -0.061544 0.040918 0.066445
v 0.000000 0.040918 0.095427
v 0.000000 0.040918 -0.095427
v -0.031414 0.274319 -0.069519
v -0.031414 0.274319 0.006049
v 0.054068 0.000000 0.006455
v 0.054068 0.000000 -0.059935
v -0.021371 0.289437 0.006049
v -0.021371 0.289437 -0.069519
v 0.031414 0.274319 0.006049
v 0.031414 0.274319 -0.069519
v -0.026366 0.274319 -0.088311
v 0.014829 0.273922 0.082188
v 0.014829 0.273922 0.050702
v 0.026366 0.274319 -0.088311
v 0.021371 0.289437 -0.069519
v 0.021371 0.289437 0.006049
v -0.054068 0.000000 -0.059935
v -0.054068 0.000000 0.006455
v 0.061544 0.208127 -0.069519
v 0.061544 0.208127 0.006049
v -0.061544 0.208127 0.006049
v -0.061544 0.208127 -0.069519
v 0.061544 0.040918 0.026453
v 0.061544 0.040918 0.037462
v -0.061544 0.040918 0.037462
v -0.061544 0.040918 0.026453
v 0.046772 0.237722 0.086538
v -0.046772 0.237722 0.086538
v -0.046772 0.237722 -0.088311
v 0.055728 0.237722 -0.069519
v 0.055728 0.237722 0.006049
v 0.046772 0.237722 -0.088311
v -0.055728 0.237722 0.006049
v -0.055728 0.237722 -0.069519
v 0.054068 0.000000 0.024380
v 0.054068 0.000000 0.034052
v 0.014829 0.251540 0.050702
v 0.016551 0.289437 0.012945
v -0.054068 0.000000 0.034052
v -0.054068 0.000000 0.024380
v -0.016551 0.289437 0.012945
v -0.014829 0.251540 0.050702
v -0.061544 0.208127 0.037462
v -0.061544 0.208127 0.026453
v 0.061544 0.208127 0.026453
v 0.061544 0.208127 0.037462
v 0.061544 0.040918 0.006049
v 0.061544 0.040918 -0.069519
v -0.061544 0.040918 -0.069519
v -0.061544 0.040918 0.006049
v 0.015171 0.251540 0.083025
v 0.021257 0.274319 0.026453
v -0.021257 0.274319 0.026453
v -0.015171 0.251540 0.083025
v -0.055728 0.237722 0.037462
v -0.055728 0.237722 0.026453
v 0.055728 0.237722 0.026453
v 0.055728 0.237722 0.037462
v 0.000000 0.000000 0.084976
v 0.000000 0.000000 -0.082696
v 0.000000 0.289437 -0.081919
v 0.000000 0.274319 -0.095427
v 0.000000 0.208127 0.095427
v 0.000000 0.208127 -0.095427
v 0.051653 0.040918 -0.088311
v -0.051653 0.040918 -0.088311
v 0.000000 0.000000 0.006455
v 0.000000 0.000000 -0.059935
v 0.000000 0.289437 0.006049
v 0.000000 0.289437 -0.069519
v -0.000000 0.273922 0.088709
v 0.000000 0.273922 0.044180
v 0.000000 0.237722 0.095427
v 0.000000 0.237722 -0.095427
v 0.000000 0.000000 0.024380
v 0.000000 0.000000 0.034052
v 0.000000 0.289437 0.012945
v 0.000000 0.274319 0.026453
v -0.000000 0.251540 0.044180
v 0.000000 0.251540 0.088709
v 0.000000 0.237722 0.026453
v 0.000000 0.237722 0.037462
v -0.020972 0.273922 0.066445
v 0.020972 0.273922 0.066445
v 0.020972 0.251540 0.066445
v -0.020972 0.251540 0.066445
v 0.054068 0.000000 0.059514
v 0.061544 0.208127 0.066445
v -0.054068 0.000000 0.059514
v -0.061544 0.208127 0.066445
v -0.051653 0.040918 0.086538
v 0.051653 0.040918 0.086538
v -0.055728 0.237722 0.066445
v 0.055728 0.237722 0.066445
v 0.000000 0.000000 0.059514
v 0.000000 0.273922 0.066445
v 0.000000 0.269732 -0.061078
v 0.000000 0.242309 -0.061078
v 0.000000 0.242309 -0.002392
v 0.000000 0.269732 -0.002392
vn 0.9316 -0.0000 -0.3635
vn -0.8158 0.5459 -0.1909
vn -0.8079 0.5722 -0.1414
vn -0.7729 0.5787 -0.2601
vn -0.7969 0.5328 -0.2849
vn -0.0000 1.0000 -0.0000
vn -0.0000 -1.0000 -0.0000
vn -0.9687 0.0899 -0.2313
vn -0.9254 0.2783 -0.2573
vn -0.8597 0.3486 -0.3732
vn -0.8866 0.0819 -0.4553
vn -0.0000 0.0060 -1.0000
vn -0.0000 0.0330 -0.9995
vn 0.1614 0.0276 -0.9865
vn 0.1396 0.0056 -0.9902
vn -0.0000 -0.1231 0.9924
vn -0.0000 0.0074 1.0000
vn -0.1735 0.0069 0.9848
vn -0.1684 -0.1186 0.9786
vn -0.0000 -0.1484 -0.9889
vn 0.1351 -0.1437 -0.9804
vn -0.9614 -0.1147 -0.2503
vn -0.8781 -0.1240 -0.4621
vn -0.0000 -0.2475 0.9689
vn -0.1645 -0.2441 0.9557
vn 0.8866 0.0819 -0.4553
vn 0.8597 0.3486 -0.3732
vn 0.9254 0.2783 -0.2573
vn 0.9687 0.0899 -0.2313
vn -0.9369 0.3436 0.0654
vn -0.9953 0.0969 -0.0000
vn -0.9812 0.1928 -0.0000
vn 0.9369 0.3436 0.0654
vn 0.9953 0.0969 -0.0000
vn -0.9959 -0.0902 -0.0000
vn 0.8781 -0.1240 -0.4621
vn 0.9614 -0.1147 -0.2503
vn 0.9959 -0.0902 -0.0000
vn 0.7969 0.5328 -0.2849
vn 0.7729 0.5787 -0.2601
vn 0.8079 0.5722 -0.1414
vn 0.8158 0.5459 -0.1909
vn 0.7981 0.5585 0.2261
vn 0.7911 0.5815 0.1897
vn -0.0000 0.6843 -0.7292
vn 0.2108 0.6690 -0.7128
vn 0.0820 0.9966 -0.0000
vn -0.0000 0.0734 0.9973
vn 0.1897 0.0720 0.9792
vn -0.7911 0.5815 0.1897
vn -0.7981 0.5585 0.2261
vn 0.8542 -0.2613 -0.4495
vn 0.9527 -0.2225 -0.2068
vn -0.9837 -0.1797 -0.0000
vn -0.9527 -0.2225 -0.2068
vn -0.0000 -0.2971 -0.9548
vn 0.1304 -0.2946 -0.9467
vn -0.8542 -0.2613 -0.4495
vn 0.3768 0.0202 0.9261
vn -0.0000 0.0542 -0.9985
vn 0.1907 0.0532 -0.9802
vn -0.0000 0.0734 -0.9973
vn 0.1897 0.0720 -0.9792
vn 0.1445 -0.9895 -0.0000
vn -0.9379 0.0137 0.3465
vn 0.9837 -0.1797 -0.0000
vn 0.9812 0.1928 -0.0000
vn -0.0000 0.6663 0.7457
vn -0.3536 0.9346 0.0384
vn -0.3733 0.9155 0.1502
vn -0.3561 0.9330 0.0515
vn -0.0000 0.6516 -0.7586
vn -0.0699 0.6500 -0.7567
vn 0.9667 -0.1057 0.2333
vn 0.9716 0.0902 0.2187
vn 0.8983 0.0828 0.4315
vn 0.8916 -0.1117 0.4389
vn 0.3536 0.9346 0.0384
vn 0.3356 0.9409 -0.0461
vn 0.3561 0.9330 0.0515
vn 0.7376 0.5406 0.4047
vn 0.7575 0.5845 0.2907
vn -0.4025 -0.0000 -0.9154
vn -0.9667 -0.1057 0.2333
vn -0.9716 0.0902 0.2187
vn -0.0000 -0.0000 1.0000
vn -0.7575 0.5845 0.2907
vn -0.7376 0.5406 0.4047
vn -0.9586 0.1810 0.2197
vn 0.9586 0.1810 0.2197
vn 0.8935 0.1615 0.4190
vn 0.1777 0.0147 0.9840
vn -0.0000 0.0149 0.9999
vn 0.1735 0.0069 0.9848
vn 0.9563 -0.2093 0.2044
vn 0.8727 -0.2322 0.4296
vn -0.9563 -0.2093 0.2044
vn -0.0000 0.5386 0.8426
vn 0.1945 0.5283 0.8265
vn -0.1945 0.5283 0.8265
vn 0.4025 -0.0000 -0.9154
vn 0.0699 0.6500 -0.7567
vn -0.1907 0.0532 -0.9802
vn -0.1614 0.0276 -0.9865
vn -0.3768 0.0202 0.9261
vn -0.2108 0.6690 -0.7128
vn -0.8983 0.0828 0.4315
vn -0.8935 0.1615 0.4190
vn -0.1396 0.0056 -0.9902
vn -0.1351 -0.1437 -0.9804
vn 0.1684 -0.1186 0.9786
vn -0.1304 -0.2946 -0.9467
vn -0.8727 -0.2322 0.4296
vn -0.8916 -0.1117 0.4389
vn 0.1645 -0.2441 0.9557
vn 0.3733 0.9155 0.1502
vn -0.3356 0.9409 -0.0461
vn -0.9316 -0.0000 -0.3635
vn 0.9379 0.0137 0.3465
vn -0.1777 0.0147 0.9840
vn -0.1445 -0.9895 -0.0000
vn -0.1897 0.0720 -0.9792
vn -0.1897 0.0720 0.9792
vn -0.0820 0.9966 -0.0000
vt 0.816147 0.440854
vt 0.815740 0.454479
vt 0.797695 0.453941
vt 0.798101 0.440316
vt 0.345960 0.400446
vt 0.335006 0.410564
vt 0.329933 0.407380
vt 0.333666 0.390207
vt 0.250356 0.514949
vt 0.250083 0.504693
vt 0.265050 0.509248
vt 0.268031 0.514479
vt 0.539810 0.219608
vt 0.527420 0.207405
vt 0.556539 0.184379
vt 0.569881 0.190909
vt 0.389321 0.360366
vt 0.372380 0.376985
vt 0.359137 0.366794
vt 0.376394 0.348870
vt 0.405926 0.086886
vt 0.388521 0.069600
vt 0.416013 0.041543
vt 0.436427 0.056016
vt 0.643143 0.320956
vt 0.741123 0.418054
vt 0.710181 0.449163
vt 0.611008 0.350294
vt 0.503452 0.183693
vt 0.535173 0.154450
vt 0.482760 0.265599
vt 0.471720 0.252299
vt 0.619571 0.297702
vt 0.590048 0.320437
vt 0.664819 0.053184
vt 0.682347 0.035547
vt 0.692871 0.048546
vt 0.676614 0.065811
vt 0.426209 0.432519
vt 0.443408 0.414886
vt 0.449793 0.421043
vt 0.432710 0.438828
vt 0.737761 0.089162
vt 0.720877 0.106975
vt 0.431704 0.403386
vt 0.414409 0.420670
vt 0.524175 0.307968
vt 0.570975 0.151287
vt 0.584544 0.161948
vt 0.627955 0.201981
vt 0.705023 0.009473
vt 0.722060 0.005263
vt 0.725382 0.010236
vt 0.715592 0.021464
vt 0.771912 0.051433
vt 0.762067 0.062649
vt 0.356179 0.037478
vt 0.365546 0.024176
vt 0.382253 0.032210
vt 0.367701 0.048922
vt 0.252016 0.577442
vt 0.234343 0.577918
vt 0.232681 0.515419
vt 0.843990 0.268556
vt 0.843934 0.320553
vt 0.797305 0.323657
vt 0.797901 0.266064
vt 0.576249 0.255300
vt 0.547142 0.284931
vt 0.511326 0.250209
vt 0.844115 0.243034
vt 0.816938 0.241981
vt 0.388540 0.445752
vt 0.377600 0.455930
vt 0.504547 0.236927
vt 0.816561 0.413623
vt 0.816576 0.426692
vt 0.798508 0.426690
vt 0.798508 0.413623
vt 0.843927 0.343950
vt 0.818895 0.349181
vt 0.840054 0.193899
vt 0.818779 0.188514
vt 0.586137 0.264957
vt 0.615366 0.235086
vt 0.620674 0.240331
vt 0.591469 0.270182
vt 0.816147 0.386393
vt 0.816576 0.400555
vt 0.798508 0.400556
vt 0.798101 0.386931
vt 0.535794 0.319099
vt 0.556966 0.294608
vt 0.562295 0.299795
vt 0.542081 0.325069
vt 0.645536 0.219461
vt 0.639393 0.213319
vt 0.756414 0.106992
vt 0.739055 0.124581
vt 0.732716 0.118363
vt 0.749917 0.100645
vt 0.605494 0.225422
vt 0.875905 0.156644
vt 0.869377 0.139913
vt 0.882432 0.140466
vt 0.891664 0.150495
vt 0.252168 0.583143
vt 0.252610 0.599865
vt 0.235072 0.600397
vt 0.238484 0.583513
vt 0.300538 0.663809
vt 0.293603 0.681607
vt 0.266324 0.677105
vt 0.270494 0.664497
vt 0.253617 0.638276
vt 0.298590 0.638989
vt 0.264887 0.652890
vt 0.253933 0.649691
vt 0.661759 0.236292
vt 0.755709 0.141129
vt 0.769055 0.153440
vt 0.673607 0.250243
vt 0.605802 0.284199
vt 0.576045 0.313145
vt 0.208214 0.666315
vt 0.208823 0.641464
vt 0.243176 0.653485
vt 0.238216 0.665375
vt 0.778261 0.054085
vt 0.778791 0.071109
vt 0.815350 0.359706
vt 0.815740 0.372768
vt 0.797695 0.373306
vt 0.797305 0.360245
vt 0.559348 0.340838
vt 0.466648 0.437101
vt 0.270157 0.599467
vt 0.298735 0.630107
vt 0.253384 0.629460
vt 0.397485 0.462244
vt 0.380438 0.462206
vt 0.450258 0.455179
vt 0.773369 0.124155
vt 0.786779 0.136292
vt 0.786779 0.407157
vt 0.758714 0.435499
vt 0.771981 0.386848
vt 0.634527 0.253713
vt 0.642118 0.267658
vt 0.208214 0.632469
vt 0.255136 0.693767
vt 0.216087 0.683698
vt 0.243066 0.677735
vt 0.254784 0.680748
vt 0.265852 0.582787
vt 0.269690 0.576979
vt 0.815350 0.467540
vt 0.797305 0.467002
vt 0.860146 0.162793
vt 0.860146 0.149161
vt 0.351088 0.063587
vt 0.360650 0.097285
vt 0.342941 0.046935
vt 0.479296 0.450076
vt 0.462712 0.468196
vt 0.375261 0.117601
vt 0.474392 0.215698
vt 0.672260 0.288460
vt 0.235380 0.510036
vt 0.869377 0.172822
vt 0.882432 0.173375
vt 0.573569 0.352289
vt 0.891664 0.164127
vt 0.730608 0.463792
vt 0.863525 0.184314
vt 0.870962 0.242157
vt 0.890521 0.323685
vt 0.868940 0.349181
vt 0.889949 0.266159
s 1
f 99/1/1 51/2/1 27/3/1 98/4/1
f 17/5/2 22/6/3 6/7/4 25/8/5
f 84/9/6 75/10/6 6/11/6 22/12/6
f 82/13/7 74/14/7 1/15/7 20/16/7
f 36/17/8 48/18/9 43/19/10 12/20/11
f 78/21/12 88/22/13 46/23/14 9/24/15
f 15/25/16 77/26/17 11/27/18 105/28/19
f 16/29/20 78/21/12 9/24/15 79/30/21
f 63/31/22 36/17/8 12/20/11 80/32/23
f 73/33/24 15/25/16 105/28/19 7/34/25
f 9/35/26 46/36/27 44/37/28 33/38/29
f 70/39/30 58/40/31 57/41/31 69/42/32
f 33/38/29 44/37/28 45/43/33 34/44/34
f 35/45/31 47/46/30 48/18/9 36/17/8
f 64/47/35 35/45/31 36/17/8 63/31/22
f 79/48/36 9/35/26 33/38/29 62/49/37
f 62/49/37 33/38/29 34/44/34 61/50/38
f 28/51/39 2/52/40 29/53/41 24/54/42
f 24/54/42 29/53/41 30/55/43 23/56/44
f 46/36/27 28/51/39 24/54/42 44/37/28
f 48/18/9 17/5/2 25/8/5 43/19/10
f 75/57/45 2/58/46 28/59/46 76/60/45
f 83/61/6 30/62/6 29/63/6 84/9/6
f 112/64/6 113/65/6 45/66/47 44/67/47
f 81/68/7 32/69/7 31/70/7 82/13/7
f 111/71/48 112/64/48 44/67/49 24/72/49
f 18/73/50 21/74/51 22/6/3 17/5/2
f 1/15/52 79/48/36 62/49/37 20/16/53
f 32/69/54 64/47/35 63/31/22 31/70/55
f 74/14/56 16/29/20 79/30/21 1/15/57
f 31/70/55 63/31/22 80/32/23 5/75/58
f 94/76/59 65/77/59 26/78/59 85/79/59
f 76/60/60 28/59/61 46/23/14 88/22/13
f 113/65/62 114/80/62 23/81/63 45/66/63
f 114/82/7 111/71/7 24/72/64 23/83/64
f 89/84/7 49/85/7 50/86/7 90/87/7
f 100/88/65 68/89/65 8/90/65 97/91/65
f 40/92/35 54/93/54 53/94/54 39/95/35
f 38/96/38 50/86/66 49/85/66 37/97/38
f 72/98/67 60/99/34 59/100/34 71/101/33
f 58/40/31 70/39/30 47/46/30 35/45/31
f 20/16/53 62/49/37 61/50/38 19/102/66
f 58/40/31 40/92/35 39/95/35 57/41/31
f 110/103/6 86/104/6 4/105/6 97/106/6
f 91/107/68 92/108/68 66/109/68 52/110/68
f 107/111/69 42/112/70 68/113/70 100/114/71
f 96/115/72 69/116/73 56/117/73 93/118/72
f 13/119/74 102/120/75 10/121/76 106/122/77
f 61/50/38 34/44/34 59/100/34 37/97/38
f 109/123/7 103/124/7 53/94/7 90/87/7
f 89/84/7 54/93/7 32/69/7 81/68/7
f 108/125/78 72/126/79 51/127/79 99/128/80
f 23/56/44 30/55/43 52/129/81 66/130/82
f 93/131/83 56/132/83 4/133/83 86/134/83
f 91/107/6 52/110/6 30/62/6 83/61/6
f 14/135/84 104/136/85 57/41/31 39/95/35
f 40/92/35 58/40/31 35/45/31 64/47/35
f 92/108/86 67/137/86 70/138/86 95/139/86
f 67/140/87 55/141/88 21/74/51 18/73/50
f 107/142/89 69/42/32 57/41/31 104/136/85
f 108/143/90 41/144/91 10/121/76 102/120/75
f 34/44/34 45/43/33 71/101/33 59/100/34
f 41/145/92 87/146/93 77/26/17 10/147/94
f 60/99/34 38/96/38 37/97/38 59/100/34
f 101/148/95 13/119/74 106/122/77 3/149/96
f 19/102/66 61/50/38 37/97/38 49/85/66
f 103/124/97 14/135/84 39/95/35 53/94/54
f 96/115/6 72/126/6 71/150/6 95/139/6
f 45/43/33 23/56/44 66/130/82 71/101/33
f 87/151/98 41/152/99 65/153/99 94/154/98
f 70/39/30 67/140/87 18/73/50 47/46/30
f 42/112/100 87/151/98 94/154/98 68/113/100
f 69/116/6 96/115/6 95/139/6 70/138/6
f 66/109/86 92/108/86 95/139/86 71/150/86
f 55/155/6 91/107/6 83/61/6 21/156/6
f 51/2/101 93/157/101 86/158/101 27/3/101
f 49/85/7 89/84/7 81/68/7 19/102/7
f 101/148/7 109/123/7 90/87/7 50/86/7
f 72/126/102 96/115/72 93/118/72 51/127/102
f 55/155/68 67/137/68 92/108/68 91/107/68
f 98/159/6 27/160/6 86/104/6 110/103/6
f 54/93/7 89/84/7 90/87/7 53/94/7
f 25/161/103 76/60/60 88/22/13 43/162/104
f 68/89/105 94/76/105 85/79/105 8/90/105
f 19/102/7 81/68/7 82/13/7 20/16/7
f 21/156/6 83/61/6 84/9/6 22/12/6
f 6/163/106 75/57/45 76/60/45 25/161/106
f 11/164/107 42/165/108 107/142/89 104/136/85
f 43/162/104 88/22/13 78/21/12 12/166/109
f 80/167/110 12/166/109 78/21/12 16/29/20
f 106/168/111 10/147/94 77/26/17 15/25/16
f 54/93/54 40/92/35 64/47/35 32/69/54
f 5/75/112 80/167/110 16/29/20 74/14/56
f 31/70/7 5/75/7 74/14/7 82/13/7
f 29/63/6 2/169/6 75/10/6 84/9/6
f 26/170/6 98/159/6 110/103/6 85/171/6
f 3/149/7 73/33/7 109/123/7 101/148/7
f 50/86/66 38/96/38 13/119/74 101/148/95
f 60/99/34 72/98/67 108/143/90 102/120/75
f 7/34/113 105/172/114 14/135/84 103/124/97
f 3/149/115 106/168/111 15/25/16 73/33/24
f 105/172/114 11/164/107 104/136/85 14/135/84
f 41/152/116 108/125/78 99/128/80 65/153/116
f 73/33/7 7/34/7 103/124/7 109/123/7
f 38/96/38 60/99/34 102/120/75 13/119/74
f 69/116/117 107/111/69 100/114/71 56/117/117
f 85/171/6 110/103/6 97/106/6 8/173/6
f 56/132/118 100/88/118 97/91/118 4/133/118
f 65/77/119 99/1/119 98/4/119 26/78/119
f 77/26/17 87/146/93 42/174/120 11/27/18
f 18/175/121 17/176/121 111/71/7 114/82/7
f 47/177/122 18/178/122 114/80/62 113/65/62
f 17/176/123 48/179/123 112/64/48 111/71/48
f 48/179/124 47/177/124 113/65/6 112/64/6
