# Blender 5.2.1 LTS
# www.blender.org
mtllib LabBeaker.mtl
o LabBeaker
v 0.000000 0.000000 0.025191
v 0.017812 0.000000 0.017812
v 0.025191 0.000000 -0.000000
v 0.017812 0.000000 -0.017812
v 0.000000 0.000000 -0.025191
v -0.017812 0.000000 -0.017812
v -0.025191 0.000000 -0.000000
v -0.017812 0.000000 0.017812
v 0.000000 0.000000 -0.000000
v 0.020340 0.004528 0.020340
v 0.000000 0.004528 0.028765
v 0.028765 0.004528 -0.000000
v 0.020340 0.004528 -0.020340
v 0.000000 0.004528 -0.028765
v -0.020340 0.004528 -0.020340
v -0.028765 0.004528 -0.000000
v -0.020340 0.004528 0.020340
v 0.017313 0.085266 0.017313
v 0.020340 0.080898 0.020340
v 0.000000 0.080898 0.028765
v 0.028765 0.080898 -0.000000
v 0.020340 0.080898 -0.020340
v 0.000000 0.071878 -0.028765
v -0.020340 0.080898 -0.020340
v -0.028765 0.080898 -0.000000
v -0.020340 0.080898 0.020340
v 0.000000 0.085266 0.024484
v 0.024484 0.085266 -0.000000
v 0.017100 0.085266 -0.017827
v 0.000000 0.085266 -0.030669
v -0.017100 0.085266 -0.017827
v -0.024484 0.085266 -0.000000
v -0.017313 0.085266 0.017313
v 0.000000 0.011016 -0.000000
v 0.020340 0.085266 0.020340
v 0.000000 0.085266 0.028765
v 0.028765 0.085266 -0.000000
v 0.020340 0.085266 -0.020340
v 0.000000 0.085266 -0.035616
v -0.020340 0.085266 -0.020340
v -0.028765 0.085266 -0.000000
v -0.020340 0.085266 0.020340
v -0.024484 0.081216 -0.000000
v -0.017313 0.081216 0.017313
v 0.024484 0.081216 -0.000000
v 0.017100 0.081216 -0.017827
v 0.000000 0.081216 -0.025373
v 0.000000 0.081216 0.024484
v 0.017313 0.081216 0.017313
v -0.017100 0.081216 -0.017827
v -0.024484 0.011016 -0.000000
v -0.017313 0.011016 0.017313
v 0.024484 0.011016 -0.000000
v 0.017100 0.011016 -0.017827
v 0.000000 0.011016 -0.025373
v 0.000000 0.011016 0.024484
v 0.017313 0.011016 0.017313
v -0.017100 0.011016 -0.017827
vn -0.0000 -1.0000 -0.0000
vn 0.3827 -0.0000 0.9239
vn 0.9239 -0.0000 -0.3827
vn -0.3827 -0.0000 -0.9239
vn -0.4815 -0.1936 -0.8548
vn -0.4508 -0.1290 -0.8833
vn -0.9239 -0.0000 0.3827
vn 0.9239 -0.0000 0.3827
vn 0.3827 -0.0000 -0.9239
vn 0.4508 -0.1290 -0.8833
vn 0.4815 -0.1936 -0.8548
vn -0.9239 -0.0000 -0.3827
vn -0.3827 -0.0000 0.9239
vn -0.7464 -0.5892 0.3092
vn -0.3092 -0.5892 -0.7464
vn 0.7464 -0.5892 -0.3092
vn 0.3092 -0.5892 0.7464
vn -0.3092 -0.5892 0.7464
vn -0.7464 -0.5892 -0.3092
vn 0.3092 -0.5892 -0.7464
vn 0.7464 -0.5892 0.3092
vn -0.5290 -0.3055 -0.7917
vn 0.5290 -0.3055 -0.7917
vn -0.4465 0.4896 0.7489
vn 0.4465 0.4896 0.7489
vn -0.0000 1.0000 -0.0000
vn -0.4037 -0.0000 0.9149
vn 0.4037 -0.0000 0.9149
vt 0.922304 0.139913
vt 0.916413 0.154136
vt 0.910521 0.139913
vt 0.902190 0.148245
vt 0.902190 0.160028
vt 0.910521 0.168359
vt 0.922304 0.168359
vt 0.930636 0.160028
vt 0.930636 0.148245
vt 0.918060 0.748280
vt 0.918187 0.760204
vt 0.873444 0.762879
vt 0.873087 0.748501
vt 0.919179 0.772440
vt 0.921272 0.784978
vt 0.875850 0.791636
vt 0.874408 0.777217
vt 0.926074 0.699024
vt 0.921856 0.711292
vt 0.875796 0.704907
vt 0.884068 0.691214
vt 0.919715 0.723407
vt 0.918519 0.735985
vt 0.873382 0.734046
vt 0.874321 0.719520
vt 0.925714 0.797908
vt 0.883842 0.805177
vt 0.923171 0.723865
vt 0.922203 0.736247
vt 0.929039 0.700966
vt 0.925086 0.712132
vt 0.922637 0.772019
vt 0.924755 0.784077
vt 0.921287 0.748354
vt 0.921577 0.760050
vt 0.929039 0.795781
vt 0.870213 0.748509
vt 0.870494 0.733925
vt 0.870584 0.763012
vt 0.872979 0.791914
vt 0.871558 0.777454
vt 0.872882 0.704607
vt 0.874663 0.687603
vt 0.871422 0.719283
vt 0.874577 0.808639
vt 0.790590 0.944807
vt 0.790590 0.956259
vt 0.788115 0.956259
vt 0.788115 0.944807
vt 0.790590 0.968051
vt 0.791869 0.981057
vt 0.788115 0.979473
vt 0.788115 0.968051
vt 0.790590 0.898658
vt 0.790590 0.910450
vt 0.788115 0.910450
vt 0.788115 0.898658
vt 0.790590 0.921902
vt 0.790590 0.933354
vt 0.788115 0.933354
vt 0.788115 0.921902
vt 0.791869 0.885652
vt 0.788115 0.887236
vt 0.966858 0.547966
vt 0.955406 0.547966
vt 0.954405 0.545549
vt 0.967859 0.545549
vt 0.974956 0.556064
vt 0.977373 0.555063
vt 0.974956 0.567857
vt 0.977373 0.568518
vt 0.968305 0.579107
vt 0.969461 0.581899
vt 0.955646 0.575855
vt 0.954405 0.578031
vt 0.947308 0.567516
vt 0.944891 0.568518
vt 0.947308 0.556064
vt 0.944891 0.555063
vt 0.745213 0.956259
vt 0.745213 0.944807
vt 0.745213 0.979473
vt 0.745213 0.968051
vt 0.745213 0.910450
vt 0.745213 0.898658
vt 0.745213 0.933354
vt 0.745213 0.921902
vt 0.745213 0.887236
vt 0.968809 0.148011
vt 0.968809 0.159463
vt 0.954985 0.153737
vt 0.960471 0.167802
vt 0.949052 0.168063
vt 0.941162 0.159803
vt 0.941162 0.148011
vt 0.949259 0.139913
vt 0.960712 0.139913
s 1
f 2/1/1 9/2/1 3/3/1
f 9/2/1 4/4/1 3/3/1
f 4/4/1 9/2/1 5/5/1
f 5/5/1 9/2/1 6/6/1
f 6/6/1 9/2/1 7/7/1
f 7/7/1 9/2/1 8/8/1
f 8/8/1 9/2/1 1/9/1
f 1/9/1 9/2/1 2/1/1
f 11/10/2 10/11/2 19/12/2 20/13/2
f 12/14/3 13/15/3 22/16/3 21/17/3
f 14/18/4 15/19/4 24/20/5 23/21/6
f 16/22/7 17/23/7 26/24/7 25/25/7
f 10/11/8 12/14/8 21/17/8 19/12/8
f 13/15/9 14/26/9 23/27/10 22/16/11
f 15/19/12 16/22/12 25/25/12 24/20/12
f 17/23/13 11/10/13 20/13/13 26/24/13
f 7/28/14 8/29/14 17/23/14 16/22/14
f 5/30/15 6/31/15 15/19/15 14/18/15
f 3/32/16 4/33/16 13/15/16 12/14/16
f 1/34/17 2/35/17 10/11/17 11/10/17
f 8/29/18 1/34/18 11/10/18 17/23/18
f 6/31/19 7/28/19 16/22/19 15/19/19
f 4/33/20 5/36/20 14/26/20 13/15/20
f 2/35/21 3/32/21 12/14/21 10/11/21
f 26/24/13 20/13/13 36/37/13 42/38/13
f 20/13/2 19/12/2 35/39/2 36/37/2
f 21/17/3 22/16/3 38/40/3 37/41/3
f 23/21/6 24/20/5 40/42/22 39/43/22
f 25/25/7 26/24/7 42/38/7 41/44/7
f 19/12/8 21/17/8 37/41/8 35/39/8
f 22/16/11 23/27/10 39/45/23 38/40/23
f 24/20/12 25/25/12 41/44/12 40/42/12
f 18/46/12 28/47/12 45/48/12 49/49/12
f 29/50/24 30/51/24 47/52/24 46/53/24
f 31/54/8 32/55/8 43/56/8 50/57/8
f 33/58/9 27/59/9 48/60/9 44/61/9
f 27/59/4 18/46/4 49/49/4 48/60/4
f 28/47/7 29/50/7 46/53/7 45/48/7
f 30/62/25 31/54/25 50/57/25 47/63/25
f 32/55/3 33/58/3 44/61/3 43/56/3
f 18/64/26 27/65/26 36/66/26 35/67/26
f 28/68/26 18/64/26 35/67/26 37/69/26
f 29/70/26 28/68/26 37/69/26 38/71/26
f 30/72/26 29/70/26 38/71/26 39/73/26
f 31/74/26 30/72/26 39/73/26 40/75/26
f 32/76/26 31/74/26 40/75/26 41/77/26
f 33/78/26 32/76/26 41/77/26 42/79/26
f 27/65/26 33/78/26 42/79/26 36/66/26
f 49/49/12 45/48/12 53/80/12 57/81/12
f 46/53/27 47/52/27 55/82/27 54/83/27
f 50/57/8 43/56/8 51/84/8 58/85/8
f 44/61/9 48/60/9 56/86/9 52/87/9
f 48/60/4 49/49/4 57/81/4 56/86/4
f 45/48/7 46/53/7 54/83/7 53/80/7
f 47/63/28 50/57/28 58/85/28 55/88/28
f 43/56/3 44/61/3 52/87/3 51/84/3
f 57/89/26 53/90/26 34/91/26
f 34/91/26 53/90/26 54/92/26
f 54/92/26 55/93/26 34/91/26
f 55/93/26 58/94/26 34/91/26
f 58/94/26 51/95/26 34/91/26
f 51/95/26 52/96/26 34/91/26
f 52/96/26 56/97/26 34/91/26
f 56/97/26 57/89/26 34/91/26
