# Blender 5.2.1 LTS
# www.blender.org
mtllib LabFreezer.mtl
o LabFreezer
v 0.300000 0.030000 -0.300000
v 0.300000 1.230000 -0.300000
v 0.300000 0.030000 0.300000
v 0.300000 1.230000 0.300000
v -0.300000 0.060489 -0.269511
v -0.300000 1.230000 -0.300000
v -0.300000 0.060489 0.269511
v -0.300000 1.230000 0.300000
v 0.300000 1.023315 -0.300000
v 0.300000 1.023315 0.300000
v -0.300000 0.992825 0.269511
v -0.300000 0.992825 -0.269511
v -0.300000 1.023315 0.300000
v -0.300000 0.030000 0.300000
v -0.300000 0.030000 -0.300000
v -0.300000 1.023315 -0.300000
v -0.300000 0.060489 -0.269511
v -0.300000 0.992825 -0.269511
v 0.060592 0.992825 -0.269511
v 0.060592 0.992825 0.269511
v 0.272438 0.060489 0.269511
v 0.272438 0.060489 -0.269511
v -0.300000 1.023315 0.300000
v -0.300000 0.030000 0.300000
v 0.272430 0.851329 -0.269511
v 0.272429 0.844325 -0.269511
v 0.272436 0.690744 -0.269511
v 0.272436 0.683740 -0.269511
v 0.272438 0.530159 -0.269511
v 0.272438 0.523155 -0.269511
v 0.272436 0.369575 -0.269511
v 0.272436 0.362571 -0.269511
v 0.272429 0.208990 -0.269511
v 0.272430 0.201986 -0.269511
v 0.300008 0.851351 0.300000
v 0.300008 0.844347 0.300000
v 0.300002 0.690755 0.300000
v 0.300002 0.683751 0.300000
v 0.300000 0.530159 0.300000
v 0.300000 0.523155 0.300000
v 0.300002 0.369564 0.300000
v 0.300002 0.362560 0.300000
v 0.300008 0.208967 0.300000
v 0.300008 0.201963 0.300000
v -0.299992 0.843858 0.300000
v -0.299992 0.850862 0.300000
v -0.299998 0.683507 0.300000
v -0.299998 0.690511 0.300000
v -0.300000 0.523155 0.300000
v -0.300000 0.530159 0.300000
v -0.299998 0.362804 0.300000
v -0.299998 0.369808 0.300000
v -0.299992 0.202453 0.300000
v -0.299992 0.209457 0.300000
v -0.299992 0.843858 -0.300000
v -0.299992 0.850862 -0.300000
v -0.299998 0.683507 -0.300000
v -0.299998 0.690511 -0.300000
v -0.300000 0.523155 -0.300000
v -0.300000 0.530159 -0.300000
v -0.299998 0.362804 -0.300000
v -0.299998 0.369808 -0.300000
v -0.299992 0.202453 -0.300000
v -0.299992 0.209457 -0.300000
v 0.300008 0.208967 -0.300000
v 0.300008 0.201963 -0.300000
v 0.300002 0.369564 -0.300000
v 0.300002 0.362560 -0.300000
v 0.300000 0.530159 -0.300000
v 0.300000 0.523155 -0.300000
v 0.300002 0.690755 -0.300000
v 0.300002 0.683751 -0.300000
v 0.300008 0.851351 -0.300000
v 0.300008 0.844347 -0.300000
v -0.300008 0.850862 0.269511
v -0.300008 0.843858 0.269511
v -0.300002 0.690511 0.269511
v -0.300002 0.683507 0.269511
v -0.300000 0.530159 0.269511
v -0.300000 0.523155 0.269511
v -0.300002 0.369808 0.269511
v -0.300002 0.362804 0.269511
v -0.300008 0.209457 0.269511
v -0.300008 0.202453 0.269511
v -0.300008 0.843858 -0.269511
v -0.300008 0.850862 -0.269511
v -0.300002 0.683507 -0.269511
v -0.300002 0.690511 -0.269511
v -0.300000 0.523155 -0.269511
v -0.300000 0.530159 -0.269511
v -0.300002 0.362804 -0.269511
v -0.300002 0.369808 -0.269511
v -0.300008 0.202453 -0.269511
v -0.300008 0.209457 -0.269511
v 0.272429 0.844325 0.269511
v 0.272430 0.851329 0.269511
v 0.272436 0.683740 0.269511
v 0.272436 0.690744 0.269511
v 0.272438 0.523155 0.269511
v 0.272438 0.530159 0.269511
v 0.272436 0.362571 0.269511
v 0.272436 0.369575 0.269511
v 0.272430 0.201986 0.269511
v 0.272429 0.208990 0.269511
v -0.271378 0.060489 0.269511
v -0.271378 0.060489 -0.269511
v -0.271378 0.992825 0.269511
v -0.271378 0.992825 -0.269511
v -0.271386 0.843882 -0.269511
v -0.271386 0.850886 -0.269511
v -0.271380 0.683519 -0.269511
v -0.271380 0.690523 -0.269511
v -0.271378 0.523155 -0.269511
v -0.271378 0.530159 -0.269511
v -0.271380 0.362792 -0.269511
v -0.271380 0.369796 -0.269511
v -0.271386 0.202429 -0.269511
v -0.271386 0.209433 -0.269511
v -0.271386 0.209433 0.269511
v -0.271386 0.202429 0.269511
v -0.271380 0.369796 0.269511
v -0.271380 0.362792 0.269511
v -0.271378 0.530159 0.269511
v -0.271378 0.523155 0.269511
v -0.271380 0.690523 0.269511
v -0.271380 0.683519 0.269511
v -0.271386 0.850886 0.269511
v -0.271386 0.843882 0.269511
v 0.292982 0.030000 -0.263877
v 0.292982 0.030000 -0.292982
v -0.266645 0.030000 0.265801
v -0.266645 0.030000 0.292982
v -0.223315 0.030000 0.292982
v 0.255388 0.030000 -0.292982
v -0.266645 0.030000 -0.292982
v -0.266645 0.030000 -0.263877
v 0.255388 0.030000 -0.263877
v 0.292982 0.030000 0.292982
v 0.292982 0.030000 0.265801
v 0.255388 0.030000 0.265801
v -0.223315 0.030000 -0.292982
v -0.223315 0.030000 -0.263877
v -0.223315 0.030000 0.265801
v 0.255388 0.030000 0.292982
v 0.289223 0.000000 -0.266788
v 0.289223 0.000000 -0.290071
v -0.262312 0.000000 0.268519
v -0.262312 0.000000 0.290264
v -0.227648 0.000000 0.290264
v 0.259148 0.000000 -0.290071
v -0.262312 0.000000 -0.290071
v -0.262312 0.000000 -0.266788
v 0.259148 0.000000 -0.266788
v 0.289223 0.000000 0.290264
v 0.289223 0.000000 0.268519
v 0.259148 0.000000 0.268519
v -0.227648 0.000000 -0.290071
v -0.227648 0.000000 -0.266788
v -0.227648 0.000000 0.268519
v 0.259148 0.000000 0.290264
v -0.300000 1.023315 0.300000
v -0.300000 0.030000 0.300000
v -0.824731 1.023315 0.504918
v -0.824731 0.030000 0.504918
v -0.291865 1.023315 0.320833
v -0.291865 0.030000 0.320833
v -0.816596 1.023315 0.525750
v -0.816596 0.030000 0.525750
v -0.815054 1.023315 0.501139
v -0.815054 0.030000 0.501139
v -0.806919 1.023315 0.521971
v -0.806919 0.030000 0.521971
v -0.789301 1.023315 0.491082
v -0.781166 1.023315 0.511914
v -0.789301 0.030000 0.491082
v -0.781166 0.030000 0.511914
v -0.300000 0.725320 0.300000
v -0.824731 0.725320 0.504918
v -0.291865 0.725320 0.320833
v -0.816596 0.725320 0.525750
v -0.815054 0.725320 0.501139
v -0.807251 0.725312 0.522102
v -0.780826 0.725311 0.511778
v -0.789301 0.725320 0.491082
v -0.300000 0.690554 0.300000
v -0.824731 0.690554 0.504918
v -0.291865 0.690554 0.320833
v -0.816596 0.690554 0.525750
v -0.815054 0.690554 0.501139
v -0.789301 0.690554 0.491082
v -0.806525 0.690564 0.521816
v -0.781619 0.690566 0.512095
v -0.786414 0.690567 0.572909
v -0.790450 0.711732 0.563955
v -0.761218 0.690555 0.563071
v -0.764378 0.711755 0.553774
v -0.796470 0.690565 0.547363
v -0.771418 0.690561 0.537583
v -0.797196 0.725314 0.547648
v -0.770626 0.725306 0.537266
v -0.767607 0.492989 0.560167
v -0.784122 0.492991 0.566618
v -0.790494 0.492990 0.550428
v -0.774071 0.492993 0.544014
vn 1.0000 -0.0000 -0.0000
vn -0.0000 -0.0000 1.0000
vn -1.0000 -0.0000 0.0001
vn -1.0000 -0.0000 -0.0000
vn -1.0000 -0.0000 -0.0001
vn -0.0000 -0.0000 -1.0000
vn -0.0000 -1.0000 -0.0000
vn -0.0000 1.0000 -0.0000
vn -1.0000 -0.0000 -0.0004
vn -1.0000 -0.0000 -0.0002
vn -1.0000 -0.0000 0.0004
vn -1.0000 -0.0000 0.0002
vn 0.0008 1.0000 -0.0000
vn 0.0004 1.0000 -0.0000
vn -0.0004 1.0000 -0.0000
vn -0.0008 1.0000 -0.0000
vn -0.5554 -0.8316 -0.0000
vn -1.0000 -0.0001 -0.0000
vn -0.0008 -1.0000 -0.0000
vn -0.0004 -1.0000 -0.0000
vn 0.0004 -1.0000 -0.0000
vn 0.0008 -1.0000 -0.0000
vn -0.9922 -0.1243 -0.0000
vn 0.9922 -0.1243 -0.0000
vn -0.0000 -0.0902 0.9959
vn -0.0000 -0.0966 0.9953
vn -0.0000 -0.0902 -0.9959
vn -0.0000 -0.0966 -0.9953
vn -0.9897 -0.1430 -0.0000
vn 0.9897 -0.1430 -0.0000
vn 0.9897 -0.1429 -0.0000
vn 0.9315 -0.0000 -0.3638
vn 0.3638 -0.0000 0.9315
vn 0.3637 -0.0000 0.9315
vn -0.9315 -0.0000 0.3638
vn -0.3638 -0.0000 -0.9315
vn -0.9303 -0.0225 0.3662
vn 0.2835 0.6263 0.7263
vn 0.2833 0.6267 0.7259
vn 0.3559 0.2060 0.9115
vn 0.3559 0.2058 0.9116
vn 0.2216 0.7928 0.5678
vn 0.9281 -0.0246 -0.3714
vn 0.0002 1.0000 -0.0000
vn -0.0001 -1.0000 -0.0001
vn -0.0000 -1.0000 -0.0001
vn -0.3636 -0.0254 -0.9312
vn 0.3636 -0.0254 0.9312
vt 0.163135 0.218538
vt 0.163135 0.163529
vt 0.322826 0.163529
vt 0.322826 0.218538
vt 0.482516 0.163528
vt 0.482516 0.218537
vt 0.510386 0.476096
vt 0.565395 0.476096
vt 0.565395 0.635786
vt 0.510386 0.635786
vt 0.003445 0.218537
vt 0.003446 0.163528
vt 0.322826 0.482908
vt 0.322826 0.642598
vt 0.163135 0.642598
vt 0.163136 0.482908
vt 0.322826 0.003838
vt 0.163136 0.003838
vt 0.642430 0.468086
vt 0.498970 0.468086
vt 0.490855 0.459971
vt 0.650545 0.459971
vt 0.498970 0.716227
vt 0.642430 0.716227
vt 0.650545 0.724342
vt 0.490855 0.724342
vt 0.883617 0.156046
vt 0.883618 0.299506
vt 0.738881 0.299506
vt 0.738881 0.156046
vt 0.797003 0.914271
vt 0.653543 0.914272
vt 0.653543 0.825918
vt 0.797003 0.825918
vt 0.003448 0.435145
vt 0.163137 0.435276
vt 0.163137 0.437140
vt 0.003448 0.437010
vt 0.003446 0.392468
vt 0.163136 0.392533
vt 0.163136 0.394397
vt 0.003446 0.394332
vt 0.003445 0.349791
vt 0.163135 0.349791
vt 0.163135 0.351655
vt 0.003445 0.351655
vt 0.003446 0.307113
vt 0.163136 0.307048
vt 0.163136 0.308912
vt 0.003446 0.308977
vt 0.003448 0.264436
vt 0.163137 0.264306
vt 0.163137 0.266170
vt 0.003448 0.266300
vt 0.322825 0.435276
vt 0.322825 0.437140
vt 0.322826 0.392533
vt 0.322825 0.394397
vt 0.322826 0.349791
vt 0.322826 0.351655
vt 0.322826 0.307048
vt 0.322826 0.308912
vt 0.322825 0.264306
vt 0.322825 0.266170
vt 0.498970 0.507734
vt 0.490855 0.507734
vt 0.490855 0.505869
vt 0.498970 0.505869
vt 0.498970 0.550411
vt 0.490855 0.550411
vt 0.490855 0.548547
vt 0.498970 0.548547
vt 0.498970 0.593088
vt 0.490855 0.593088
vt 0.490855 0.591224
vt 0.498970 0.591224
vt 0.498970 0.635766
vt 0.490855 0.635766
vt 0.490855 0.633902
vt 0.498970 0.633902
vt 0.498970 0.678443
vt 0.490855 0.678443
vt 0.490855 0.676579
vt 0.498970 0.676579
vt 0.659219 0.606853
vt 0.659219 0.604989
vt 0.802679 0.604989
vt 0.802679 0.606853
vt 0.147593 0.634508
vt 0.147593 0.636372
vt 0.004133 0.636372
vt 0.004133 0.634508
vt 0.299728 0.795725
vt 0.299728 0.797589
vt 0.156267 0.797589
vt 0.156267 0.795725
vt 0.814759 0.456989
vt 0.814759 0.455125
vt 0.958220 0.455125
vt 0.958220 0.456989
vt 0.474569 0.634508
vt 0.474569 0.636372
vt 0.331108 0.636372
vt 0.331108 0.634508
vt 0.650545 0.507734
vt 0.642430 0.507734
vt 0.642430 0.505869
vt 0.650545 0.505869
vt 0.650545 0.550411
vt 0.642430 0.550411
vt 0.642430 0.548547
vt 0.650545 0.548547
vt 0.650545 0.593088
vt 0.642430 0.593088
vt 0.642430 0.591224
vt 0.650545 0.591224
vt 0.650545 0.635766
vt 0.642430 0.635766
vt 0.642430 0.633902
vt 0.650545 0.633902
vt 0.650545 0.678443
vt 0.642430 0.678443
vt 0.642430 0.676579
vt 0.650545 0.676579
vt 0.482514 0.435145
vt 0.482514 0.437010
vt 0.482515 0.392468
vt 0.482515 0.394332
vt 0.482516 0.349791
vt 0.482516 0.351655
vt 0.482515 0.307113
vt 0.482515 0.308977
vt 0.482514 0.264436
vt 0.482514 0.266300
vt 0.474569 0.489771
vt 0.331108 0.489771
vt 0.814759 0.601726
vt 0.958220 0.601726
vt 0.299728 0.650988
vt 0.156267 0.650988
vt 0.147593 0.489771
vt 0.004133 0.489771
vt 0.659219 0.751589
vt 0.802679 0.751589
vt 0.490738 0.011312
vt 0.528516 0.011310
vt 0.528400 0.156046
vt 0.490739 0.099666
vt 0.571139 0.156047
vt 0.571139 0.299506
vt 0.530264 0.299506
vt 0.530264 0.156046
vt 0.653543 0.758117
vt 0.797003 0.758117
vt 0.530380 0.011309
vt 0.571196 0.011310
vt 0.613878 0.156046
vt 0.613878 0.299506
vt 0.573003 0.299506
vt 0.573003 0.156047
vt 0.573061 0.011310
vt 0.613877 0.011311
vt 0.656618 0.156046
vt 0.656617 0.299506
vt 0.615742 0.299506
vt 0.615742 0.156046
vt 0.615741 0.011311
vt 0.656558 0.011310
vt 0.699357 0.156045
vt 0.699357 0.299507
vt 0.658482 0.299506
vt 0.658482 0.156046
vt 0.658422 0.011310
vt 0.699238 0.011308
vt 0.701222 0.299507
vt 0.701221 0.156045
vt 0.701102 0.011308
vt 0.738879 0.011310
vt 0.482516 0.482908
vt 0.003445 0.482908
vt 0.571196 0.444242
vt 0.530380 0.444243
vt 0.528516 0.444243
vt 0.490738 0.444240
vt 0.490739 0.355886
vt 0.528399 0.299506
vt 0.613877 0.444242
vt 0.573060 0.444242
vt 0.656558 0.444242
vt 0.615741 0.444242
vt 0.699238 0.444244
vt 0.658422 0.444242
vt 0.738879 0.444243
vt 0.701102 0.444244
vt 0.738879 0.451860
vt 0.701096 0.451862
vt 0.699232 0.451862
vt 0.658419 0.451860
vt 0.656555 0.451860
vt 0.615741 0.451859
vt 0.613877 0.451859
vt 0.573063 0.451860
vt 0.528522 0.451860
vt 0.490738 0.451858
vt 0.571199 0.451860
vt 0.530386 0.451861
vt 0.701096 0.003690
vt 0.738879 0.003692
vt 0.658419 0.003692
vt 0.699232 0.003690
vt 0.615741 0.003693
vt 0.656555 0.003692
vt 0.573063 0.003693
vt 0.613877 0.003693
vt 0.530386 0.003692
vt 0.571199 0.003693
vt 0.490738 0.003694
vt 0.528522 0.003692
vt 0.797003 0.921889
vt 0.653543 0.921889
vt 0.891235 0.156046
vt 0.891235 0.299506
vt 0.474569 0.781108
vt 0.331108 0.781108
vt 0.814759 0.310389
vt 0.958220 0.310389
vt 0.299728 0.942325
vt 0.156267 0.942325
vt 0.147593 0.781108
vt 0.004133 0.781108
vt 0.659219 0.460253
vt 0.802679 0.460253
vt 0.038601 0.084916
vt 0.038601 0.092662
vt 0.030554 0.091887
vt 0.030554 0.085690
vt 0.078082 0.097157
vt 0.078082 0.089922
vt 0.086129 0.090646
vt 0.086129 0.096433
vt 0.085128 0.082629
vt 0.095133 0.082629
vt 0.094133 0.090646
vt 0.021549 0.077668
vt 0.031555 0.077668
vt 0.022550 0.085690
vt 0.013029 0.023722
vt 0.013029 0.014496
vt 0.019226 0.014496
vt 0.019226 0.023722
vt 0.038421 0.046429
vt 0.038421 0.037203
vt 0.044208 0.037203
vt 0.044208 0.046429
vt 0.022550 0.091887
vt 0.094133 0.096433
vt 0.095133 0.104451
vt 0.085128 0.104451
vt 0.014503 0.092662
vt 0.014503 0.084916
vt 0.102180 0.089922
vt 0.102180 0.097157
vt 0.027248 0.013343
vt 0.027248 0.024875
vt 0.037697 0.029135
vt 0.044931 0.029135
vt 0.005007 0.024875
vt 0.005007 0.013343
vt 0.030403 0.047582
vt 0.030403 0.036050
vt 0.052225 0.036050
vt 0.052225 0.047582
vt 0.031555 0.099909
vt 0.021549 0.099909
vt 0.044931 0.054496
vt 0.037697 0.054496
vt 0.012254 0.006429
vt 0.020001 0.006429
vt 0.020001 0.031789
vt 0.012254 0.031789
vt 0.819645 0.787912
vt 0.813692 0.787912
vt 0.813692 0.612105
vt 0.819644 0.612105
vt 0.495538 0.908252
vt 0.492660 0.908250
vt 0.492669 0.732443
vt 0.495434 0.732443
vt 0.330106 0.151640
vt 0.336058 0.151640
vt 0.336058 0.154405
vt 0.330106 0.154405
vt 0.897772 0.188627
vt 0.903724 0.188627
vt 0.903724 0.267938
vt 0.897772 0.267938
vt 0.147593 0.144282
vt 0.141641 0.144282
vt 0.141640 0.004477
vt 0.147593 0.004477
vt 0.966808 0.797165
vt 0.969573 0.797165
vt 0.969573 0.876476
vt 0.966808 0.876476
vt 0.959450 0.797165
vt 0.959450 0.876476
vt 0.147593 0.154405
vt 0.141641 0.154405
vt 0.141641 0.151640
vt 0.147593 0.151640
vt 0.330106 0.144282
vt 0.336058 0.144282
vt 0.502654 0.908253
vt 0.502792 0.732444
vt 0.642589 0.908257
vt 0.642598 0.732451
vt 0.330106 0.004477
vt 0.336058 0.004477
vt 0.819645 0.797165
vt 0.819645 0.876476
vt 0.959450 0.787912
vt 0.642584 0.996821
vt 0.502779 0.996814
vt 0.502880 0.917501
vt 0.642588 0.917510
vt 0.495421 0.996814
vt 0.495330 0.917500
vt 0.966808 0.787912
vt 0.969573 0.787912
vt 0.897772 0.179374
vt 0.903724 0.179374
vt 0.492656 0.996814
vt 0.492660 0.917502
vt 0.813692 0.876476
vt 0.813692 0.797165
vt 0.897772 0.003568
vt 0.903724 0.003568
vt 0.966808 0.612105
vt 0.969573 0.612105
vt 0.959450 0.612105
vt 0.012568 0.062785
vt 0.065167 0.064093
vt 0.065170 0.068724
vt 0.012573 0.070092
vt 0.071183 0.127552
vt 0.063734 0.127531
vt 0.063880 0.121323
vt 0.071079 0.121335
vt 0.006937 0.067485
vt 0.003318 0.062791
vt 0.063626 0.133457
vt 0.071218 0.133475
vt 0.131698 0.062375
vt 0.128121 0.067095
vt 0.122494 0.069741
vt 0.122448 0.062435
vt 0.131653 0.055068
vt 0.122403 0.055128
vt 0.063590 0.140764
vt 0.071141 0.140781
vt 0.012564 0.055478
vt 0.003314 0.055484
vt 0.071213 0.004199
vt 0.071258 0.011506
vt 0.064100 0.011489
vt 0.064098 0.004182
vt 0.069860 0.064103
vt 0.069889 0.068733
s 1
f 9/1/1 2/2/1 4/3/1 10/4/1
f 10/4/2 4/3/2 8/5/2 13/6/2
f 13/7/3 8/8/4 6/9/4 16/10/5
f 16/11/6 6/12/6 2/2/6 9/1/6
f 3/13/7 14/14/7 15/15/7 1/16/7
f 8/17/8 4/3/8 2/2/8 6/18/8
f 7/19/3 5/20/5 15/21/5 14/22/3
f 12/23/5 11/24/3 13/25/3 16/26/5
f 106/27/8 105/28/8 21/29/8 22/30/8
f 107/31/7 108/32/7 19/33/7 20/34/7
f 64/35/6 65/36/6 66/37/6 63/38/6
f 62/39/6 67/40/6 68/41/6 61/42/6
f 60/43/6 69/44/6 70/45/6 59/46/6
f 58/47/6 71/48/6 72/49/6 57/50/6
f 56/51/6 73/52/6 74/53/6 55/54/6
f 65/36/1 43/55/1 44/56/1 66/37/1
f 67/40/1 41/57/1 42/58/1 68/41/1
f 69/44/1 39/59/1 40/60/1 70/45/1
f 71/48/1 37/61/1 38/62/1 72/49/1
f 73/52/1 35/63/1 36/64/1 74/53/1
f 94/65/9 64/66/9 63/67/9 93/68/9
f 92/69/5 62/70/5 61/71/10 91/72/10
f 90/73/4 60/74/4 59/75/4 89/76/4
f 88/77/10 58/78/10 57/79/5 87/80/5
f 86/81/9 56/82/9 55/83/9 85/84/9
f 110/85/4 109/86/4 128/87/4 127/88/4
f 112/89/4 111/90/4 126/91/4 125/92/4
f 114/93/4 113/94/4 124/95/4 123/96/4
f 116/97/4 115/98/4 122/99/4 121/100/4
f 118/101/4 117/102/4 120/103/4 119/104/4
f 54/105/11 83/106/11 84/107/11 53/108/11
f 52/109/3 81/110/3 82/111/12 51/112/12
f 50/113/4 79/114/4 80/115/4 49/116/4
f 48/117/12 77/118/12 78/119/3 47/120/3
f 46/121/11 75/122/11 76/123/11 45/124/11
f 43/55/2 54/125/2 53/126/2 44/56/2
f 41/57/2 52/127/2 51/128/2 42/58/2
f 39/59/2 50/129/2 49/130/2 40/60/2
f 37/61/2 48/131/2 47/132/2 38/62/2
f 35/63/2 46/133/2 45/134/2 36/64/2
f 33/135/13 118/101/13 119/104/13 104/136/13
f 31/137/14 116/97/14 121/100/14 102/138/14
f 29/139/8 114/93/8 123/96/8 100/140/8
f 27/141/15 112/89/15 125/92/15 98/142/15
f 25/143/16 110/85/16 127/88/16 96/144/16
f 108/145/2 110/146/2 25/147/2 19/148/2
f 27/149/4 98/150/4 95/151/4 26/152/4
f 25/153/17 96/154/17 20/34/17 19/33/17
f 109/155/2 112/156/2 27/149/2 26/152/2
f 29/157/4 100/158/4 97/159/4 28/160/4
f 111/161/2 114/162/2 29/157/2 28/160/2
f 31/163/4 102/164/4 99/165/4 30/166/4
f 113/167/2 116/168/2 31/163/2 30/166/2
f 33/169/4 104/170/4 101/171/4 32/172/4
f 115/173/2 118/174/2 33/169/2 32/172/2
f 22/30/18 21/29/18 103/175/18 34/176/18
f 117/177/2 106/178/2 22/30/2 34/176/2
f 73/52/1 9/1/1 10/4/1 35/63/1
f 37/61/2 36/64/2 45/134/2 48/131/2
f 35/63/2 10/4/2 13/6/2 46/133/2
f 71/48/1 74/53/1 36/64/1 37/61/1
f 69/44/1 72/49/1 38/62/1 39/59/1
f 39/59/2 38/62/2 47/132/2 50/129/2
f 67/40/1 70/45/1 40/60/1 41/57/1
f 41/57/2 40/60/2 49/130/2 52/127/2
f 65/36/1 68/41/1 42/58/1 43/55/1
f 43/55/2 42/58/2 51/128/2 54/125/2
f 3/13/2 44/56/2 53/126/2 14/179/2
f 1/16/1 66/37/1 44/56/1 3/13/1
f 46/121/11 13/25/3 11/24/3 75/122/11
f 48/117/12 45/124/11 76/123/11 77/118/12
f 50/113/4 47/120/3 78/119/3 79/114/4
f 52/109/3 49/116/4 80/115/4 81/110/3
f 54/105/11 51/112/12 82/111/12 83/106/11
f 14/22/3 53/108/11 84/107/11 7/19/3
f 56/51/6 16/11/6 9/1/6 73/52/6
f 88/77/10 85/84/9 55/83/9 58/78/10
f 58/47/6 55/54/6 74/53/6 71/48/6
f 86/81/9 12/23/5 16/26/5 56/82/9
f 90/73/4 87/80/5 57/79/5 60/74/4
f 60/43/6 57/50/6 72/49/6 69/44/6
f 92/69/5 89/76/4 59/75/4 62/70/5
f 62/39/6 59/46/6 70/45/6 67/40/6
f 94/65/9 91/72/10 61/71/10 64/66/9
f 64/35/6 61/42/6 68/41/6 65/36/6
f 5/20/5 93/68/9 63/67/9 15/21/5
f 15/180/6 63/38/6 66/37/6 1/16/6
f 125/181/6 128/182/6 95/151/6 98/150/6
f 127/183/6 107/184/6 20/185/6 96/186/6
f 123/187/6 126/188/6 97/159/6 100/158/6
f 121/189/6 124/190/6 99/165/6 102/164/6
f 119/191/6 122/192/6 101/171/6 104/170/6
f 105/193/6 120/194/6 103/175/6 21/29/6
f 7/195/6 84/196/6 120/194/6 105/193/6
f 83/197/6 82/198/6 122/192/6 119/191/6
f 81/199/6 80/200/6 124/190/6 121/189/6
f 79/201/6 78/202/6 126/188/6 123/187/6
f 75/203/6 11/204/6 107/184/6 127/183/6
f 77/205/6 76/206/6 128/182/6 125/181/6
f 93/207/2 5/208/2 106/178/2 117/177/2
f 91/209/2 94/210/2 118/174/2 115/173/2
f 89/211/2 92/212/2 116/168/2 113/167/2
f 87/213/2 90/214/2 114/162/2 111/161/2
f 85/215/2 88/216/2 112/156/2 109/155/2
f 12/217/2 86/218/2 110/146/2 108/145/2
f 75/203/6 127/183/6 128/182/6 76/206/6
f 77/205/6 125/181/6 126/188/6 78/202/6
f 79/201/6 123/187/6 124/190/6 80/200/6
f 81/199/6 121/189/6 122/192/6 82/198/6
f 83/197/6 119/191/6 120/194/6 84/196/6
f 93/207/2 117/177/2 118/174/2 94/210/2
f 91/209/2 115/173/2 116/168/2 92/212/2
f 89/211/2 113/167/2 114/162/2 90/214/2
f 87/213/2 111/161/2 112/156/2 88/216/2
f 85/215/2 109/155/2 110/146/2 86/218/2
f 11/219/7 12/220/7 108/32/7 107/31/7
f 5/221/8 7/222/8 105/28/8 106/27/8
f 117/102/19 34/223/19 103/224/19 120/103/19
f 115/98/20 32/225/20 101/226/20 122/99/20
f 113/94/7 30/227/7 99/228/7 124/95/7
f 111/90/21 28/229/21 97/230/21 126/91/21
f 109/86/22 26/231/22 95/232/22 128/87/22
f 137/233/23 134/234/23 150/235/23 153/236/23
f 139/237/24 138/238/24 154/239/24 155/240/24
f 138/241/25 144/242/25 160/243/25 154/239/25
f 129/244/26 137/245/26 153/236/26 145/246/26
f 158/247/7 152/248/7 151/249/7 157/250/7
f 149/251/7 148/252/7 147/253/7 159/254/7
f 145/246/7 153/236/7 150/235/7 146/255/7
f 154/239/7 160/243/7 156/256/7 155/240/7
f 140/257/27 139/258/27 155/240/27 156/256/27
f 130/259/24 129/260/24 145/246/24 146/255/24
f 144/261/23 140/262/23 156/256/23 160/243/23
f 135/263/28 141/264/28 157/250/28 151/249/28
f 132/265/29 131/266/29 147/253/29 148/252/29
f 142/267/26 136/268/26 152/248/26 158/247/26
f 133/269/25 132/270/25 148/252/25 149/251/25
f 131/271/27 143/272/27 159/254/27 147/253/27
f 134/273/28 130/274/28 146/255/28 150/235/28
f 143/275/30 133/276/30 149/251/30 159/254/30
f 136/277/29 135/278/29 151/249/29 152/248/29
f 141/279/31 142/280/31 158/247/31 157/250/31
f 185/281/32 187/282/32 166/283/32 162/284/32
f 191/285/33 188/286/33 168/287/33 172/288/34
f 170/289/7 172/290/7 168/291/7 164/292/7
f 178/293/35 180/294/35 167/295/35 163/296/35
f 173/297/8 174/298/8 165/299/8 161/300/8
f 181/301/36 178/302/36 163/303/36 169/304/36
f 184/305/36 181/301/36 169/304/36 173/306/36
f 163/307/8 167/308/8 171/309/8 169/310/8
f 175/311/7 176/312/7 172/290/7 170/289/7
f 192/313/34 191/285/33 172/288/34 176/314/34
f 187/315/33 192/313/34 176/314/34 166/316/33
f 162/317/7 166/318/7 176/312/7 175/311/7
f 177/319/36 184/305/36 173/306/36 161/320/36
f 169/310/8 171/309/8 174/298/8 173/297/8
f 185/281/36 190/321/36 184/305/36 177/319/36
f 165/322/33 174/323/33 183/324/33 179/325/33
f 174/323/33 171/326/33 182/327/33 183/324/33
f 190/321/36 189/328/36 181/301/36 184/305/36
f 189/328/36 186/329/36 178/302/36 181/301/36
f 186/330/35 188/331/35 180/294/35 178/293/35
f 171/326/33 167/332/34 180/333/34 182/327/33
f 161/320/32 165/334/32 179/335/32 177/319/32
f 164/336/35 168/337/35 188/331/35 186/330/35
f 170/338/36 164/339/36 186/329/36 189/328/36
f 175/340/36 170/338/36 189/328/36 190/321/36
f 162/284/36 175/340/36 190/321/36 185/281/36
f 179/325/33 183/324/33 192/313/34 187/315/33
f 197/341/37 203/342/37 202/343/37 193/344/37
f 182/327/33 180/333/34 188/286/33 191/285/33
f 177/319/32 179/335/32 187/282/32 185/281/32
f 196/345/38 194/346/39 193/347/40 195/348/41
f 197/341/37 193/344/37 194/349/37 199/350/37
f 199/351/42 194/346/39 196/345/38 200/352/42
f 200/353/43 196/354/43 195/355/43 198/356/43
f 183/357/43 200/353/43 198/356/43 192/358/43
f 182/359/44 199/351/44 200/352/44 183/360/44
f 191/361/37 197/341/37 199/350/37 182/362/37
f 192/363/45 198/364/45 197/365/45 191/366/45
f 204/367/46 201/368/46 202/343/46 203/342/46
f 198/364/47 204/367/47 203/342/47 197/365/47
f 195/355/43 201/368/43 204/367/43 198/356/43
f 193/347/40 202/343/48 201/368/48 195/348/41
l 17 5
l 18 12
l 23 13
l 14 24
