# Blender 5.2.1 LTS
# www.blender.org
mtllib LabFridge.mtl
o LabFridge
v 0.292982 0.030000 -0.292982
v 0.300000 1.230000 -0.300000
v 0.292982 0.030000 0.292982
v 0.300000 1.230000 0.300000
v -0.293149 0.230891 0.263541
v 0.288894 0.221250 -0.250965
v -0.267307 0.230329 0.289127
v 0.288867 0.219763 0.289099
v -0.300000 0.056337 -0.273663
v -0.266645 0.030000 -0.292982
v -0.273663 1.230000 -0.300000
v -0.300000 1.203663 -0.273663
v -0.300000 0.056337 0.273663
v -0.266645 0.030000 0.292982
v -0.300000 1.203663 0.273663
v -0.273663 1.230000 0.300000
v 0.288896 0.221365 -0.292805
v -0.267278 0.231931 -0.292777
v 0.292982 0.030000 -0.263877
v 0.300000 1.230000 -0.256859
v -0.266645 0.030000 -0.263877
v -0.300000 0.056337 -0.234310
v -0.273663 1.230000 -0.256859
v -0.300000 1.203663 -0.234310
v -0.293123 0.232352 -0.267278
v -0.293125 0.232247 -0.229112
v 0.300003 0.999041 -0.300000
v -0.300080 0.991723 0.273652
v 0.299986 1.000272 0.299998
v -0.273546 0.990922 -0.299983
v -0.273563 0.992153 0.300015
v -0.300064 0.990601 -0.273673
v -0.300065 0.990681 -0.234319
v 0.300002 0.999129 -0.256859
v 0.299994 0.533228 0.299999
v 0.300001 0.534010 -0.300000
v -0.300026 0.539371 -0.273667
v -0.273623 0.538386 0.300006
v -0.300032 0.538658 0.273659
v -0.273616 0.539168 -0.299993
v 0.300001 0.533953 -0.256859
v -0.300026 0.539320 -0.234314
v 0.294925 0.768507 -0.254167
v -0.296813 0.768507 0.269048
v -0.296812 0.768507 -0.270740
v -0.296812 0.768507 -0.231928
v -0.270833 0.768507 0.295022
v 0.294925 0.768507 0.295022
v 0.294925 0.768507 -0.296713
v -0.270832 0.768507 -0.296713
v -0.273658 0.773279 0.300001
v -0.273661 0.763734 0.300000
v -0.300004 0.773279 0.273663
v -0.300002 0.763734 0.273663
v 0.300000 0.763734 0.300000
v 0.299999 0.773279 0.300000
v 0.300000 0.773279 -0.300000
v 0.300000 0.763734 -0.300000
v -0.273661 0.763734 -0.300000
v -0.273657 0.773279 -0.299999
v -0.300003 0.773279 -0.273664
v -0.300001 0.763734 -0.273664
v -0.300001 0.763734 -0.234310
v -0.300004 0.773279 -0.234310
v 0.300000 0.763734 -0.256859
v 0.300000 0.773279 -0.256859
v 0.299976 0.207535 0.299996
v 0.299975 0.231509 0.299996
v -0.300134 0.219009 0.273644
v -0.300139 0.242983 0.273643
v -0.273464 0.220081 -0.299971
v -0.273458 0.244055 -0.299970
v 0.300003 0.209068 -0.256859
v 0.300003 0.233042 -0.256859
v -0.300109 0.220407 -0.234326
v -0.300114 0.244381 -0.234326
v 0.300005 0.233161 -0.299999
v 0.300005 0.209187 -0.299999
v -0.300112 0.244489 -0.273680
v -0.300107 0.220515 -0.273679
v -0.273488 0.242404 0.300025
v -0.273493 0.218430 0.300025
v -0.329423 0.990679 -0.234320
v -0.329422 0.990598 -0.273673
v -0.329384 0.539318 -0.234314
v -0.329384 0.539369 -0.273668
v -0.329361 0.773277 -0.234311
v -0.329361 0.773277 -0.273664
v -0.329359 0.763732 -0.273664
v -0.329359 0.763732 -0.234310
v 0.300000 1.230000 0.258783
v -0.266645 0.030000 0.265801
v -0.300000 1.203663 0.236065
v 0.292982 0.030000 0.265801
v -0.300000 0.056337 0.236065
v -0.273663 1.230000 0.258783
v 0.288869 0.219873 0.249125
v -0.300079 0.991646 0.236053
v 0.299987 1.000187 0.258781
v -0.293148 0.230991 0.227076
v -0.300032 0.538707 0.236060
v 0.299995 0.533281 0.258782
v 0.294925 0.768507 0.254372
v -0.296813 0.768507 0.231967
v 0.299999 0.773279 0.258783
v 0.300000 0.763734 0.258783
v -0.300004 0.773279 0.236064
v -0.300002 0.763734 0.236064
v 0.299977 0.231623 0.258779
v 0.299978 0.207649 0.258779
v -0.300137 0.243086 0.236045
v -0.300132 0.219112 0.236045
v -0.211660 0.230874 -0.292780
v -0.214256 0.768507 -0.296713
v -0.223315 0.030000 0.292982
v -0.223315 0.030000 -0.292982
v -0.216297 1.230000 -0.300000
v -0.216297 1.230000 0.300000
v -0.211690 0.229273 0.289124
v -0.216297 1.230000 -0.256859
v -0.223315 0.030000 -0.263877
v -0.216208 0.992965 0.300013
v -0.216191 0.991734 -0.299985
v -0.216261 0.537871 0.300005
v -0.216254 0.538652 -0.299994
v -0.214257 0.768507 0.295022
v -0.216291 0.773279 -0.299999
v -0.216295 0.763734 -0.300000
v -0.216292 0.773279 0.300001
v -0.216295 0.763734 0.300000
v -0.216111 0.242965 -0.299973
v -0.216117 0.218992 -0.299974
v -0.216142 0.241314 0.300023
v -0.216146 0.217340 0.300022
v -0.223315 0.030000 0.265801
v -0.216297 1.230000 0.258783
v 0.255388 0.030000 -0.292982
v 0.248370 1.230000 -0.300000
v 0.248370 1.230000 0.300000
v 0.238811 0.220714 0.289102
v 0.255388 0.030000 -0.263877
v 0.248384 0.998310 -0.299998
v 0.248376 0.534474 -0.299999
v 0.244006 0.768507 0.295022
v 0.248371 0.773279 -0.300000
v 0.248370 0.763734 0.300000
v 0.248394 0.234141 -0.299997
v 0.248363 0.208516 0.299999
v 0.255388 0.030000 0.265801
v 0.238840 0.222316 -0.292802
v 0.244007 0.768507 -0.296713
v 0.255388 0.030000 0.292982
v 0.248370 1.230000 -0.256859
v 0.248366 0.999541 0.299999
v 0.248369 0.533692 0.300000
v 0.248371 0.763734 -0.300000
v 0.248370 0.773279 0.300000
v 0.248393 0.210167 -0.299997
v 0.248363 0.232490 0.299999
v 0.248370 1.230000 0.258783
v 0.300000 0.030000 -0.256859
v 0.300000 0.030000 -0.300000
v -0.273663 0.030000 0.258783
v -0.273663 0.030000 0.300000
v -0.216297 0.030000 0.300000
v 0.248370 0.030000 -0.300000
v -0.273663 0.030000 -0.300000
v -0.273663 0.030000 -0.256859
v 0.248370 0.030000 -0.256859
v 0.300000 0.030000 0.300000
v 0.300000 0.030000 0.258783
v 0.248370 0.030000 0.258783
v -0.216297 0.030000 -0.300000
v -0.216297 0.030000 -0.256859
v -0.216297 0.030000 0.258783
v 0.248370 0.030000 0.300000
v 0.292982 0.030000 -0.263877
v 0.292982 0.030000 -0.292982
v -0.266645 0.030000 0.265801
v -0.266645 0.030000 0.292982
v -0.223315 0.030000 0.292982
v 0.255388 0.030000 -0.292982
v -0.266645 0.030000 -0.292982
v -0.266645 0.030000 -0.263877
v 0.255388 0.030000 -0.263877
v 0.292982 0.030000 0.292982
v 0.292982 0.030000 0.265801
v 0.255388 0.030000 0.265801
v -0.223315 0.030000 -0.292982
v -0.223315 0.030000 -0.263877
v -0.223315 0.030000 0.265801
v 0.255388 0.030000 0.292982
v 0.289223 0.000000 -0.266788
v 0.289223 0.000000 -0.290071
v -0.262312 0.000000 0.268519
v -0.262312 0.000000 0.290264
v -0.227648 0.000000 0.290264
v 0.259148 0.000000 -0.290071
v -0.262312 0.000000 -0.290071
v -0.262312 0.000000 -0.266788
v 0.259148 0.000000 -0.266788
v 0.289223 0.000000 0.290264
v 0.289223 0.000000 0.268519
v 0.259148 0.000000 0.268519
v -0.227648 0.000000 -0.290071
v -0.227648 0.000000 -0.266788
v -0.227648 0.000000 0.268519
v 0.259148 0.000000 0.290264
vn 1.0000 -0.0000 -0.0000
vn 1.0000 -0.0001 -0.0000
vn -0.5435 0.6243 -0.5611
vn -0.0000 -0.5672 -0.8236
vn -0.8313 -0.5559 -0.0000
vn 0.6851 -0.7285 -0.0000
vn -0.7071 -0.7071 -0.0000
vn -0.7071 0.7071 -0.0000
vn -0.0000 1.0000 -0.0000
vn -1.0000 0.0001 -0.0000
vn -1.0000 0.0003 -0.0000
vn -0.0000 -0.0000 -1.0000
vn -0.0000 -0.0000 1.0000
vn -0.0000 0.0001 1.0000
vn -0.9660 -0.2584 -0.0007
vn -0.9762 -0.2169 -0.0006
vn -0.8663 -0.4996 -0.0014
vn -0.0128 -0.6736 0.7390
vn -1.0000 -0.0000 -0.0000
vn -1.0000 0.0004 -0.0000
vn -0.0000 -1.0000 -0.0000
vn -0.4624 0.7564 0.4625
vn -0.2566 0.7664 0.5889
vn -0.2276 0.7643 0.6034
vn -0.7057 -0.0001 -0.7085
vn -0.7057 -0.0000 -0.7086
vn -0.7061 -0.0000 0.7081
vn -0.7060 -0.0000 0.7082
vn -0.0098 -0.5139 -0.8578
vn 0.7274 -0.6862 -0.0019
vn -0.9660 -0.2584 -0.0008
vn -0.4845 0.7143 0.5050
vn -0.0000 -0.7219 0.6920
vn -0.2565 -0.7664 0.5890
vn -0.2276 -0.7643 0.6034
vn -0.5240 0.6714 -0.5241
vn -0.0000 0.5672 -0.8236
vn -0.0000 0.7219 0.6920
vn -0.8315 0.5556 -0.0000
vn -0.5240 -0.6714 -0.5242
vn -0.4624 -0.7564 0.4626
vn 0.6850 0.7285 -0.0000
vn 0.6851 0.7285 -0.0000
vn -0.8616 0.5076 0.0014
vn 0.0097 0.5152 -0.8570
vn 0.0128 0.6717 0.7407
vn 0.7393 0.6733 0.0019
vn -0.5588 -0.6150 -0.5563
vn -0.5058 -0.7062 0.4954
vn -0.0000 -0.0001 1.0000
vn -0.7067 -0.0000 0.7075
vn -0.7058 -0.0000 0.7084
vn -1.0000 -0.0003 -0.0000
vn -1.0000 0.0002 -0.0000
vn 1.0000 0.0001 -0.0000
vn -0.7056 0.0001 -0.7086
vn -0.7065 -0.0000 -0.7077
vn -0.7053 -0.0001 -0.7089
vn -0.0001 1.0000 -0.0021
vn -1.0000 -0.0008 -0.0000
vn -1.0000 -0.0007 -0.0000
vn -0.7049 -0.0000 0.7093
vn -0.7053 0.0001 0.7089
vn -0.7041 -0.0001 -0.7101
vn -0.7047 0.0002 -0.7095
vn -0.0001 1.0000 -0.0000
vn 0.0001 -1.0000 -0.0000
vn 0.0001 -1.0000 -0.0013
vn -0.9810 -0.1941 -0.0006
vn -0.0000 -0.0001 -1.0000
vn -0.0000 0.0001 -1.0000
vn -0.9922 -0.1243 -0.0000
vn 0.9922 -0.1243 -0.0000
vn -0.0000 -0.0902 0.9959
vn -0.0000 -0.0966 0.9953
vn -0.0000 -0.0902 -0.9959
vn -0.0000 -0.0966 -0.9953
vn -0.9897 -0.1430 -0.0000
vn 0.9897 -0.1430 -0.0000
vn 0.9897 -0.1429 -0.0000
vt 0.256894 0.321934
vt 0.256897 0.416942
vt 0.239857 0.416942
vt 0.239854 0.321968
vt 0.495687 0.657279
vt 0.511909 0.656356
vt 0.513238 0.663241
vt 0.496402 0.663829
vt 0.744008 0.994972
vt 0.712036 0.996605
vt 0.713134 0.992451
vt 0.745913 0.992419
vt 0.530001 0.648945
vt 0.511778 0.649484
vt 0.512461 0.646636
vt 0.530950 0.646631
vt 0.504965 0.995158
vt 0.483256 0.997300
vt 0.483130 0.992670
vt 0.506522 0.992647
vt 0.690629 0.994981
vt 0.689685 0.992473
vt 0.755277 0.759792
vt 0.773686 0.762631
vt 0.759869 0.775780
vt 0.744756 0.775370
vt 0.275523 0.953119
vt 0.257688 0.953119
vt 0.268576 0.937721
vt 0.284845 0.937721
vt 0.005784 0.663872
vt 0.006579 0.650833
vt 0.006599 0.650850
vt 0.005801 0.663847
vt 0.284842 0.849670
vt 0.268572 0.849637
vt 0.509242 0.321158
vt 0.509247 0.416941
vt 0.487903 0.416941
vt 0.487902 0.321460
vt 0.274473 0.440176
vt 0.253129 0.440176
vt 0.253129 0.422341
vt 0.274473 0.422341
vt 0.026452 0.318949
vt 0.026415 0.416941
vt 0.002700 0.416941
vt 0.002741 0.318613
vt 0.529260 0.668850
vt 0.511863 0.670389
vt 0.531254 0.663253
vt 0.275716 0.979144
vt 0.253129 0.979371
vt 0.255589 0.972975
vt 0.277495 0.972755
vt 0.274473 0.653349
vt 0.253129 0.653349
vt 0.479297 0.850072
vt 0.479306 0.937720
vt 0.025598 0.647682
vt 0.003853 0.648033
vt 0.004415 0.444949
vt 0.026153 0.445303
vt 0.488699 0.953118
vt 0.522249 0.762944
vt 0.541249 0.760123
vt 0.551523 0.775624
vt 0.535875 0.776060
vt 0.737290 0.643604
vt 0.752085 0.643684
vt 0.751466 0.646579
vt 0.735809 0.646583
vt 0.470068 0.416941
vt 0.470068 0.321497
vt 0.253180 0.948613
vt 0.253129 0.849773
vt 0.494850 0.937720
vt 0.494840 0.850104
vt 0.510297 0.850282
vt 0.510246 0.948610
vt 0.747409 0.975510
vt 0.718461 0.980047
vt 0.720552 0.969618
vt 0.751188 0.969709
vt 0.506199 0.976622
vt 0.486268 0.982640
vt 0.485726 0.970674
vt 0.509514 0.970559
vt 0.698303 0.975747
vt 0.696294 0.969716
vt 0.717193 0.668261
vt 0.713702 0.662678
vt 0.734106 0.654961
vt 0.750144 0.655272
vt 0.748526 0.662486
vt 0.731221 0.662626
vt 0.275250 0.995531
vt 0.253135 0.995552
vt 0.254222 0.992893
vt 0.276032 0.992871
vt 0.495687 0.643857
vt 0.511777 0.643788
vt 0.495839 0.646638
vt 0.719561 0.648901
vt 0.717919 0.646587
vt 0.712029 0.988299
vt 0.744003 0.989870
vt 0.253129 0.990235
vt 0.275244 0.990214
vt 0.530000 0.644318
vt 0.495687 0.649419
vt 0.752088 0.649473
vt 0.737291 0.649562
vt 0.483247 0.988039
vt 0.504960 0.990140
vt 0.719560 0.644273
vt 0.690624 0.989963
vt 0.529248 0.657759
vt 0.718172 0.959073
vt 0.747252 0.963892
vt 0.253178 0.966611
vt 0.275765 0.966384
vt 0.486325 0.958518
vt 0.506133 0.964417
vt 0.698213 0.963560
vt 0.717190 0.657163
vt 0.496175 0.669762
vt 0.750121 0.669773
vt 0.734054 0.670369
vt 0.026416 0.228128
vt 0.002701 0.228128
vt 0.026432 0.129346
vt 0.026415 0.222721
vt 0.002700 0.222720
vt 0.002718 0.129558
vt 0.737441 0.637864
vt 0.737442 0.544814
vt 0.752864 0.544705
vt 0.752840 0.637866
vt 0.494852 0.759799
vt 0.510255 0.759797
vt 0.479309 0.759798
vt 0.284848 0.759793
vt 0.721898 0.544835
vt 0.721897 0.637864
vt 0.527439 0.637862
vt 0.527439 0.545087
vt 0.256896 0.228126
vt 0.239857 0.228126
vt 0.256897 0.127455
vt 0.256898 0.222727
vt 0.239858 0.222727
vt 0.239858 0.127433
vt 0.487904 0.127751
vt 0.487905 0.222723
vt 0.470070 0.222723
vt 0.470069 0.127729
vt 0.487903 0.228128
vt 0.470068 0.228128
vt 0.509246 0.127943
vt 0.509250 0.222722
vt 0.509247 0.228128
vt 0.253137 0.759795
vt 0.268537 0.759792
vt 0.495785 0.637865
vt 0.495754 0.545028
vt 0.511170 0.545108
vt 0.511184 0.637862
vt 0.758843 0.116851
vt 0.742574 0.116817
vt 0.742600 0.104680
vt 0.758869 0.104715
vt 0.771018 0.014837
vt 0.771006 0.104714
vt 0.758881 0.014838
vt 0.507328 0.675789
vt 0.507325 0.749231
vt 0.490285 0.749183
vt 0.490288 0.675788
vt 0.026486 0.006746
vt 0.002778 0.007195
vt 0.276845 0.675808
vt 0.276915 0.753257
vt 0.253207 0.753710
vt 0.253129 0.675811
vt 0.256895 0.002746
vt 0.239855 0.002700
vt 0.747404 0.842404
vt 0.548825 0.842995
vt 0.737433 0.422577
vt 0.752936 0.422341
vt 0.763028 0.841664
vt 0.779306 0.840435
vt 0.721889 0.422620
vt 0.527434 0.423156
vt 0.759680 0.675803
vt 0.759668 0.750287
vt 0.738330 0.749880
vt 0.738335 0.675803
vt 0.495687 0.423025
vt 0.511164 0.423201
vt 0.515697 0.840775
vt 0.531814 0.842136
vt 0.509238 0.003782
vt 0.487901 0.003377
vt 0.720496 0.749830
vt 0.720500 0.675802
vt 0.470066 0.003328
vt 0.758867 0.312029
vt 0.758874 0.404804
vt 0.742604 0.404806
vt 0.742597 0.312051
vt 0.742612 0.014836
vt 0.730468 0.404809
vt 0.730461 0.312054
vt 0.771003 0.312031
vt 0.771011 0.404806
vt 0.758875 0.416941
vt 0.742605 0.416942
vt 0.742613 0.002700
vt 0.758882 0.002701
vt 0.730463 0.104676
vt 0.730475 0.014832
vt 0.742581 0.299914
vt 0.758850 0.299892
vt 0.505739 0.953118
vt 0.006654 0.428442
vt 0.022528 0.428817
vt 0.022513 0.428840
vt 0.006677 0.428459
vt 0.274473 0.670389
vt 0.253129 0.670389
vt 0.490288 0.670389
vt 0.466572 0.670389
vt 0.466572 0.653349
vt 0.490288 0.653349
vt 0.224279 0.668581
vt 0.024742 0.665945
vt 0.224188 0.650327
vt 0.724978 0.007878
vt 0.725044 0.129882
vt 0.701330 0.129669
vt 0.701270 0.007428
vt 0.975494 0.675811
vt 0.975409 0.754393
vt 0.951701 0.753942
vt 0.951779 0.675810
vt 0.468944 0.675790
vt 0.468948 0.749590
vt 0.218518 0.003104
vt 0.218515 0.127624
vt 0.725059 0.228128
vt 0.725013 0.318104
vt 0.701302 0.318440
vt 0.701344 0.228128
vt 0.725064 0.222720
vt 0.701348 0.222720
vt 0.218514 0.222726
vt 0.218513 0.228126
vt 0.218514 0.321666
vt 0.455088 0.970970
vt 0.458708 0.964534
vt 0.961448 0.970414
vt 0.938354 0.970336
vt 0.940129 0.964545
vt 0.963942 0.964626
vt 0.452713 0.992699
vt 0.454372 0.990039
vt 0.972538 0.992203
vt 0.947635 0.992227
vt 0.948530 0.989676
vt 0.973781 0.989652
vt 0.454377 0.995357
vt 0.964089 0.976233
vt 0.940277 0.976153
vt 0.227132 0.441305
vt 0.466572 0.440176
vt 0.490288 0.440176
vt 0.458653 0.977314
vt 0.218513 0.416942
vt 0.466572 0.422341
vt 0.490288 0.422341
vt 0.725062 0.416942
vt 0.701346 0.416942
vt 0.025436 0.426057
vt 0.226600 0.422341
vt 0.973784 0.994753
vt 0.948533 0.994777
vt 0.227286 0.665963
vt 0.226972 0.653066
vt 0.226993 0.653082
vt 0.227301 0.665942
vt 0.244320 0.650925
vt 0.247730 0.441950
vt 0.244026 0.425535
vt 0.244746 0.439086
vt 0.244724 0.439069
vt 0.244011 0.425556
vt 0.246983 0.422675
vt 0.002700 0.666657
vt 0.021821 0.663180
vt 0.229440 0.425055
vt 0.007305 0.442298
vt 0.003841 0.425821
vt 0.230070 0.438601
vt 0.241690 0.666743
vt 0.241447 0.653725
vt 0.244779 0.669745
vt 0.023240 0.442582
vt 0.022738 0.650310
vt 0.039733 0.684689
vt 0.041484 0.696593
vt 0.028942 0.697221
vt 0.027542 0.687698
vt 0.139042 0.709582
vt 0.131621 0.701144
vt 0.141748 0.693733
vt 0.147685 0.700483
vt 0.132357 0.685408
vt 0.144027 0.675144
vt 0.151084 0.685521
vt 0.011890 0.677405
vt 0.027267 0.675144
vt 0.015241 0.689507
vt 0.007321 0.442274
vt 0.023217 0.442564
vt 0.021802 0.663163
vt 0.022721 0.650335
vt 0.229462 0.425072
vt 0.230085 0.438579
vt 0.241669 0.666726
vt 0.241432 0.653746
vt 0.059344 0.702006
vt 0.059344 0.687675
vt 0.068969 0.687675
vt 0.068969 0.702006
vt 0.113690 0.696587
vt 0.099360 0.696587
vt 0.099360 0.687597
vt 0.113691 0.687597
vt 0.016641 0.699030
vt 0.157021 0.692271
vt 0.166413 0.700596
vt 0.154743 0.710860
vt 0.004450 0.702039
vt 0.002700 0.690135
vt 0.159728 0.676422
vt 0.167149 0.684860
vt 0.081430 0.685884
vt 0.081430 0.703797
vt 0.086829 0.697710
vt 0.086829 0.686473
vt 0.046883 0.703797
vt 0.046883 0.685884
vt 0.115482 0.709040
vt 0.097569 0.709040
vt 0.097569 0.675144
vt 0.115482 0.675144
vt 0.032293 0.709323
vt 0.016917 0.711585
vt 0.126222 0.686473
vt 0.126222 0.697710
vt 0.058140 0.675144
vt 0.070172 0.675144
vt 0.070172 0.714537
vt 0.058140 0.714537
s 1
f 99/1/1 91/2/1 4/3/2 29/4/1
f 71/5/3 80/6/3 25/7/3 18/8/3
f 145/9/4 57/10/4 49/11/4 151/12/4
f 64/13/5 61/14/5 45/15/5 46/16/5
f 105/17/6 56/18/6 48/19/6 103/20/6
f 57/10/6 66/21/6 43/22/6 49/11/6
f 163/23/7 164/24/7 13/25/7 95/26/7
f 23/27/8 11/28/8 12/29/8 24/30/8
f 14/31/9 92/32/9 179/33/9 180/34/9
f 33/35/10 24/30/11 12/29/11 32/36/11
f 142/37/12 138/38/12 2/39/12 27/40/12
f 153/41/9 20/42/9 2/43/9 138/44/9
f 122/45/13 118/46/13 16/47/14 31/48/13
f 76/49/15 79/50/16 25/7/17 26/51/17
f 133/52/18 81/53/18 7/54/18 119/55/18
f 160/56/9 91/57/9 20/42/9 153/41/9
f 98/58/19 93/59/20 24/30/11 33/35/10
f 175/60/21 163/61/21 168/62/21 174/63/21
f 96/64/8 23/27/8 24/30/8 93/59/8
f 167/65/7 168/66/7 22/67/7 9/68/7
f 54/69/22 52/70/23 47/71/24 44/72/22
f 27/40/1 2/39/1 20/73/1 34/74/1
f 11/75/25 30/76/26 32/36/26 12/29/25
f 15/77/27 28/78/28 31/79/28 16/80/27
f 147/81/29 77/82/29 17/83/29 150/84/29
f 109/85/30 68/86/30 8/87/30 97/88/30
f 77/82/30 74/89/30 6/90/30 17/83/30
f 111/91/31 76/49/15 26/51/17 100/92/17
f 69/93/32 82/94/32 7/95/32 5/96/32
f 129/97/33 51/98/34 47/99/35 126/100/33
f 59/101/36 62/102/36 45/15/36 50/103/36
f 107/104/5 64/13/5 46/16/5 104/105/5
f 151/12/37 49/11/37 58/106/37 156/107/37
f 126/100/38 47/99/24 52/108/23 130/109/38
f 46/16/39 45/15/39 62/102/39 63/110/39
f 50/103/40 45/15/40 61/14/40 60/111/40
f 44/72/41 47/71/35 51/112/34 53/113/41
f 103/20/42 48/19/42 55/114/42 106/115/42
f 104/105/39 46/16/39 63/110/39 108/116/39
f 49/11/43 43/22/43 65/117/43 58/106/43
f 26/51/44 25/7/44 80/6/44 75/118/44
f 150/84/45 17/83/45 78/119/45 158/120/45
f 119/55/46 7/54/46 82/121/46 134/122/46
f 97/88/47 8/87/47 67/123/47 110/124/47
f 17/83/47 6/90/47 73/125/47 78/119/47
f 100/92/44 26/51/44 75/118/44 112/126/44
f 18/8/48 25/7/48 79/50/48 72/127/48
f 5/96/49 7/95/49 81/128/49 70/129/49
f 129/130/13 122/45/13 31/48/13 51/131/50
f 124/132/13 130/133/13 52/134/13 38/135/13
f 54/136/51 39/137/52 38/138/52 52/139/51
f 28/78/28 53/140/28 51/141/28 31/79/28
f 107/142/53 98/58/19 33/35/10 64/143/53
f 101/144/54 108/145/10 63/146/10 42/147/54
f 105/148/1 99/1/1 29/4/1 56/149/55
f 102/150/1 106/151/1 55/152/1 35/153/1
f 36/154/1 58/155/1 65/156/1 41/157/1
f 57/158/1 27/40/1 34/74/1 66/159/1
f 143/160/12 156/161/12 58/155/12 36/154/12
f 145/162/12 142/37/12 27/40/12 57/158/12
f 30/76/26 60/163/56 61/164/56 32/36/26
f 59/165/57 40/166/58 37/167/58 62/168/57
f 33/169/59 32/170/59 84/171/59 83/172/59
f 64/173/13 33/174/13 83/172/13 87/175/13
f 171/176/55 110/177/55 67/178/55 170/179/55
f 133/180/13 124/132/13 38/135/13 81/181/14
f 165/182/50 134/183/50 82/184/50 164/185/50
f 109/186/1 102/150/1 35/153/1 68/187/2
f 95/26/60 112/188/60 75/189/61 22/67/61
f 39/137/52 70/190/62 81/191/62 38/138/52
f 69/192/63 13/25/63 164/24/63 82/193/63
f 111/194/31 101/144/54 42/147/54 76/195/15
f 166/196/12 158/197/12 78/198/12 162/199/12
f 40/166/58 72/200/64 79/201/64 37/167/58
f 71/202/65 167/65/65 9/68/65 80/203/65
f 147/204/12 143/160/12 36/154/12 77/205/12
f 162/199/1 78/198/1 73/206/1 161/207/1
f 77/205/1 36/154/1 41/157/1 74/208/1
f 76/195/15 42/147/54 37/167/11 79/201/16
f 22/67/61 75/189/61 80/203/61 9/68/61
f 85/209/10 90/210/10 89/211/10 86/212/10
f 87/175/53 83/172/53 84/171/53 88/213/53
f 62/214/12 37/215/12 86/212/12 89/211/12
f 42/216/13 63/217/13 90/210/13 85/209/13
f 63/218/66 62/219/66 89/211/66 90/210/66
f 61/220/67 64/221/67 87/175/67 88/213/67
f 32/222/12 61/223/12 88/213/12 84/171/12
f 37/224/68 42/225/68 85/209/68 86/212/68
f 70/190/69 39/137/54 101/144/54 111/194/31
f 13/25/60 69/192/60 112/188/60 95/26/60
f 74/208/1 41/157/1 102/150/1 109/186/1
f 161/207/1 73/206/1 110/177/55 171/176/55
f 41/157/1 65/156/1 106/151/1 102/150/1
f 66/159/1 34/74/1 99/1/1 105/148/1
f 39/137/54 54/136/10 108/145/10 101/144/54
f 53/140/53 28/78/19 98/58/19 107/142/53
f 5/96/44 100/92/44 112/126/44 69/93/44
f 6/90/47 97/88/47 110/124/47 73/125/47
f 44/72/39 104/105/39 108/116/39 54/69/39
f 43/22/43 103/20/42 106/115/42 65/117/43
f 53/113/5 107/104/5 104/105/5 44/72/5
f 70/129/69 111/91/31 100/92/17 5/96/17
f 74/89/30 109/85/30 97/88/30 6/90/30
f 16/226/8 96/64/8 93/59/8 15/77/8
f 10/227/9 116/228/9 189/229/9 183/230/9
f 28/78/19 15/77/20 93/59/20 98/58/19
f 139/231/9 4/232/9 91/57/9 160/56/9
f 168/66/7 163/23/7 95/26/7 22/67/7
f 66/21/6 105/17/6 103/20/6 43/22/6
f 34/74/1 20/73/1 91/2/1 99/1/1
f 16/233/9 118/234/9 136/235/9 96/236/9
f 176/237/21 165/238/21 175/60/21 172/239/21
f 72/240/70 40/241/70 125/242/12 131/243/70
f 167/244/71 71/245/71 132/246/71 173/247/71
f 176/248/13 148/249/13 134/183/50 165/182/50
f 159/250/13 155/251/13 124/132/13 133/180/13
f 60/252/71 30/253/12 123/254/12 127/255/71
f 40/241/70 59/256/12 128/257/12 125/242/12
f 155/251/13 146/258/13 130/133/13 124/132/13
f 157/259/13 154/260/13 122/45/13 129/130/13
f 140/261/46 119/55/46 134/122/46 148/262/46
f 18/263/45 113/264/45 132/265/45 71/266/45
f 144/267/38 126/100/38 130/109/38 146/268/38
f 50/269/37 114/270/37 128/271/37 59/272/37
f 157/273/33 129/97/33 126/100/33 144/267/33
f 72/274/29 131/275/29 113/264/29 18/263/29
f 172/239/21 175/60/21 174/63/21 169/276/21
f 96/236/9 136/235/9 120/277/9 23/278/9
f 159/279/18 133/52/18 119/55/18 140/261/18
f 154/260/13 139/280/13 118/46/13 122/45/13
f 23/278/9 120/277/9 117/281/9 11/282/9
f 30/253/12 11/283/70 117/284/70 123/254/12
f 169/276/21 174/63/21 173/285/21 166/286/21
f 60/287/4 127/288/4 114/270/4 50/269/4
f 152/289/9 149/290/9 188/291/9 192/292/9
f 29/4/13 4/3/13 139/280/13 154/260/13
f 68/86/18 159/279/18 140/261/18 8/87/18
f 171/293/21 172/239/21 169/276/21 161/294/21
f 56/18/33 157/273/33 144/267/33 48/19/33
f 48/19/38 144/267/38 146/268/38 55/114/38
f 8/87/46 140/261/46 148/262/46 67/123/46
f 56/149/13 29/4/13 154/260/13 157/259/13
f 35/153/13 55/152/13 146/258/13 155/251/13
f 68/187/13 35/153/13 155/251/13 159/250/13
f 170/179/13 67/178/13 148/249/13 176/248/13
f 1/295/9 19/296/9 177/297/9 178/298/9
f 118/234/9 139/231/9 160/56/9 136/235/9
f 131/243/70 125/242/12 143/160/12 147/204/12
f 173/247/71 132/246/71 158/197/12 166/196/12
f 127/255/71 123/254/12 142/37/12 145/162/12
f 125/242/12 128/257/12 156/161/12 143/160/12
f 113/264/45 150/84/45 158/120/45 132/265/45
f 114/270/37 151/12/37 156/107/37 128/271/37
f 131/275/29 147/81/29 150/84/29 113/264/29
f 136/235/9 160/56/9 153/41/9 120/277/9
f 120/277/9 153/41/9 138/44/9 117/281/9
f 123/254/12 117/284/70 138/38/12 142/37/12
f 127/288/4 145/9/4 151/12/4 114/270/4
f 19/296/21 1/295/21 162/299/21 161/294/21
f 92/32/21 14/31/21 164/300/21 163/61/21
f 14/31/21 115/301/21 165/238/21 164/300/21
f 1/295/21 137/302/21 166/286/21 162/299/21
f 10/227/21 21/303/21 168/62/21 167/304/21
f 141/305/21 19/296/21 161/294/21 169/276/21
f 3/306/21 94/307/21 171/293/21 170/308/21
f 94/307/21 149/290/21 172/239/21 171/293/21
f 116/228/21 10/227/21 167/304/21 173/285/21
f 21/303/21 121/309/21 174/63/21 168/62/21
f 135/310/21 92/32/21 163/61/21 175/60/21
f 115/301/21 135/310/21 175/60/21 165/238/21
f 121/309/21 116/228/21 173/285/21 174/63/21
f 152/289/21 3/306/21 170/308/21 176/237/21
f 137/302/21 141/305/21 169/276/21 166/286/21
f 149/290/21 152/289/21 176/237/21 172/239/21
f 185/311/72 182/312/72 198/313/72 201/314/72
f 187/315/73 186/316/73 202/317/73 203/318/73
f 186/319/74 192/320/74 208/321/74 202/317/74
f 177/322/75 185/323/75 201/314/75 193/324/75
f 121/309/9 21/303/9 184/325/9 190/326/9
f 115/301/9 14/31/9 180/34/9 181/327/9
f 92/32/9 135/310/9 191/328/9 179/33/9
f 137/302/9 1/295/9 178/298/9 182/329/9
f 135/310/9 115/301/9 181/327/9 191/328/9
f 21/303/9 10/227/9 183/230/9 184/325/9
f 116/228/9 121/309/9 190/326/9 189/229/9
f 19/296/9 141/305/9 185/330/9 177/297/9
f 3/306/9 152/289/9 192/292/9 186/331/9
f 94/307/9 3/306/9 186/331/9 187/332/9
f 141/305/9 137/302/9 182/329/9 185/330/9
f 149/290/9 94/307/9 187/332/9 188/291/9
f 206/333/21 200/334/21 199/335/21 205/336/21
f 197/337/21 196/338/21 195/339/21 207/340/21
f 193/324/21 201/314/21 198/313/21 194/341/21
f 202/317/21 208/321/21 204/342/21 203/318/21
f 188/343/76 187/344/76 203/318/76 204/342/76
f 178/345/73 177/346/73 193/324/73 194/341/73
f 192/347/72 188/348/72 204/342/72 208/321/72
f 183/349/77 189/350/77 205/336/77 199/335/77
f 180/351/78 179/352/78 195/339/78 196/338/78
f 190/353/75 184/354/75 200/334/75 206/333/75
f 181/355/74 180/356/74 196/338/74 197/337/74
f 179/357/76 191/358/76 207/340/76 195/339/76
f 182/359/77 178/360/77 194/341/77 198/313/77
f 191/361/79 181/362/79 197/337/79 207/340/79
f 184/363/78 183/364/78 199/335/78 200/334/78
f 189/365/80 190/366/80 206/333/80 205/336/80
