# Blender 5.2.1 LTS
# www.blender.org
mtllib LabGlassShelf.mtl
o LabGlassShelf
v 0.002767 -0.000000 -0.192192
v 0.002767 0.558126 -0.192192
v 0.002767 -0.000000 0.192192
v 0.002767 0.558126 0.192192
v -0.002767 -0.000000 -0.192192
v -0.002767 0.558126 -0.192192
v -0.002767 -0.000000 0.192192
v -0.002767 0.558126 0.192192
v 0.002767 0.009636 0.192192
v -0.002767 0.009636 0.192192
v -0.002767 0.009636 -0.192192
v 0.002767 0.009636 -0.192192
v 0.002767 0.549204 -0.192192
v 0.002767 0.549204 0.192192
v -0.002767 0.549204 0.192192
v -0.002767 0.549204 -0.192192
v 0.002767 0.282093 -0.192192
v 0.002767 0.276033 -0.192192
v 0.002767 0.276033 0.192192
v 0.002767 0.282093 0.192192
v -0.002767 0.276033 0.192192
v -0.002767 0.282093 0.192192
v -0.002767 0.276033 -0.192192
v -0.002767 0.282093 -0.192192
v 0.115143 -0.000000 0.192192
v 0.115143 -0.000000 -0.192192
v 0.115143 0.549204 -0.192192
v 0.115143 0.558126 -0.192192
v 0.115143 0.558126 0.192192
v 0.115143 0.009636 0.192192
v -0.115143 0.009636 0.192192
v -0.115143 -0.000000 0.192192
v -0.115143 -0.000000 -0.192192
v -0.115143 0.558126 0.192192
v -0.115143 0.558126 -0.192192
v -0.115143 0.009636 -0.192192
v 0.115143 0.009636 -0.192192
v 0.115143 0.549204 0.192192
v -0.115143 0.549204 0.192192
v -0.115143 0.549204 -0.192192
v -0.115143 0.276033 -0.192192
v -0.115143 0.282093 -0.192192
v 0.115143 0.282093 -0.192192
v 0.115143 0.276033 -0.192192
v -0.115143 0.276033 0.192192
v -0.115143 0.282093 0.192192
v 0.115143 0.276033 0.192192
v 0.115143 0.282093 0.192192
vn -0.0000 -0.0000 1.0000
vn -0.0000 -0.0000 -1.0000
vn -0.0000 -1.0000 -0.0000
vn -0.0000 1.0000 -0.0000
vn 1.0000 -0.0000 -0.0000
vn -1.0000 -0.0000 -0.0000
vt 0.051830 0.508499
vt 0.051830 0.504693
vt 0.096212 0.504693
vt 0.096212 0.508499
vt 0.051830 0.721597
vt 0.051830 0.725121
vt 0.049645 0.725121
vt 0.049645 0.721597
vt 0.096212 0.721597
vt 0.096212 0.725121
vt 0.153306 0.721597
vt 0.153306 0.725121
vt 0.151120 0.725121
vt 0.151120 0.721597
vt 0.157072 0.005263
vt 0.157072 0.007448
vt 0.005263 0.007448
vt 0.005263 0.005263
vt 0.167598 0.494168
vt 0.167598 0.491982
vt 0.319408 0.491982
vt 0.319408 0.494168
vt 0.167598 0.447600
vt 0.319408 0.447600
vt 0.049645 0.508499
vt 0.049645 0.504693
vt 0.153306 0.616104
vt 0.153306 0.613710
vt 0.197688 0.613710
vt 0.197688 0.616104
vt 0.153306 0.504693
vt 0.153306 0.508499
vt 0.151120 0.508499
vt 0.151120 0.504693
vt 0.151120 0.616104
vt 0.151120 0.613710
vt 0.197688 0.504693
vt 0.197688 0.508499
vt 0.051830 0.616104
vt 0.049645 0.616104
vt 0.049645 0.613710
vt 0.051830 0.613710
vt 0.096212 0.613710
vt 0.096212 0.616104
vt 0.319408 0.097832
vt 0.319408 0.203044
vt 0.167598 0.203044
vt 0.167598 0.097832
vt 0.319408 0.294201
vt 0.319408 0.399695
vt 0.167598 0.399695
vt 0.167598 0.294201
vt 0.157072 0.296387
vt 0.157072 0.401880
vt 0.005263 0.401880
vt 0.005263 0.296387
vt 0.157072 0.100018
vt 0.157072 0.205229
vt 0.005263 0.205229
vt 0.005263 0.100018
vt 0.319408 0.444077
vt 0.167598 0.444077
vt 0.157072 0.446262
vt 0.157072 0.449786
vt 0.005263 0.449785
vt 0.005263 0.446262
vt 0.319408 0.049645
vt 0.319408 0.053450
vt 0.167598 0.053450
vt 0.167598 0.049645
vt 0.157072 0.051830
vt 0.157072 0.055636
vt 0.005263 0.055636
vt 0.005263 0.051830
vt 0.157072 0.252005
vt 0.005263 0.252005
vt 0.005263 0.249611
vt 0.157072 0.249611
vt 0.319408 0.249819
vt 0.167598 0.249819
vt 0.167598 0.247426
vt 0.319408 0.247426
vt 0.005263 0.725121
vt 0.005263 0.721597
vt 0.106738 0.616104
vt 0.106738 0.613710
vt 0.197688 0.721597
vt 0.197688 0.725121
vt 0.106738 0.508499
vt 0.106738 0.504693
vt 0.005263 0.616104
vt 0.005263 0.613710
vt 0.005263 0.508499
vt 0.005263 0.504693
vt 0.167598 0.005263
vt 0.319408 0.005263
vt 0.157072 0.494168
vt 0.005263 0.494168
vt 0.106738 0.725121
vt 0.106738 0.721597
s 1
f 9/1/1 3/2/1 25/3/1 30/4/1
f 14/5/1 4/6/1 8/7/1 15/8/1
f 4/6/1 14/5/1 38/9/1 29/10/1
f 16/11/2 6/12/2 2/13/2 13/14/2
f 3/15/3 7/16/3 5/17/3 1/18/3
f 8/19/4 4/20/4 2/21/4 6/22/4
f 2/21/4 4/20/4 29/23/4 28/24/4
f 3/2/1 9/1/1 10/25/1 7/26/1
f 24/27/2 23/28/2 41/29/2 42/30/2
f 5/31/2 11/32/2 12/33/2 1/34/2
f 24/27/2 17/35/2 18/36/2 23/28/2
f 11/32/2 5/31/2 33/37/2 36/38/2
f 20/39/1 22/40/1 21/41/1 19/42/1
f 20/39/1 19/42/1 47/43/1 48/44/1
f 12/45/5 18/46/5 19/47/5 9/48/5
f 17/49/5 13/50/5 14/51/5 20/52/5
f 11/32/2 23/28/2 18/36/2 12/33/2
f 24/27/2 16/11/2 13/14/2 17/35/2
f 20/39/1 14/5/1 15/8/1 22/40/1
f 9/1/1 19/42/1 21/41/1 10/25/1
f 22/53/6 15/54/6 16/55/6 24/56/6
f 10/57/6 21/58/6 23/59/6 11/60/6
f 27/61/5 28/24/5 29/23/5 38/62/5
f 39/63/6 34/64/6 35/65/6 40/66/6
f 26/67/5 37/68/5 30/69/5 25/70/5
f 32/71/6 31/72/6 36/73/6 33/74/6
f 46/75/6 42/76/6 41/77/6 45/78/6
f 43/79/5 48/80/5 47/81/5 44/82/5
f 15/8/1 8/7/1 34/83/1 39/84/1
f 18/36/2 17/35/2 43/85/2 44/86/2
f 6/12/2 16/11/2 40/87/2 35/88/2
f 17/49/4 20/52/4 48/80/4 43/79/4
f 1/34/2 12/33/2 37/89/2 26/90/2
f 19/47/3 18/46/3 44/82/3 47/81/3
f 12/45/4 9/48/4 30/69/4 37/68/4
f 21/41/1 22/40/1 46/91/1 45/92/1
f 7/26/1 10/25/1 31/93/1 32/94/1
f 16/55/3 15/54/3 39/63/3 40/66/3
f 22/53/4 24/56/4 42/76/4 46/75/4
f 5/17/3 7/16/3 32/71/3 33/74/3
f 3/95/3 1/96/3 26/67/3 25/70/3
f 10/57/4 11/60/4 36/73/4 31/72/4
f 23/59/3 21/58/3 45/78/3 41/77/3
f 8/97/4 6/98/4 35/65/4 34/64/4
f 14/51/3 13/50/3 27/61/3 38/62/3
f 13/14/2 2/13/2 28/99/2 27/100/2
