# Blender 5.2.1 LTS
# www.blender.org
mtllib LabTestTubes.mtl
o Circle.001
v 0.017703 0.012907 -0.084491
v 0.021598 0.012907 -0.086105
v 0.023212 0.012907 -0.090000
v 0.021598 0.012907 -0.093895
v 0.017703 0.012907 -0.095509
v 0.013808 0.012907 -0.093895
v 0.012194 0.012907 -0.090000
v 0.013808 0.012907 -0.086105
v 0.017703 0.012907 -0.090000
v 0.017703 0.139543 -0.080905
v 0.024134 0.139543 -0.083569
v 0.026798 0.139543 -0.090000
v 0.024134 0.139543 -0.096431
v 0.017703 0.139543 -0.099095
v 0.011272 0.139543 -0.096431
v 0.008608 0.139543 -0.090000
v 0.011272 0.139543 -0.083569
v 0.011272 0.017540 -0.083569
v 0.017703 0.141992 -0.080106
v 0.024699 0.141992 -0.083004
v 0.027597 0.141992 -0.090000
v 0.024699 0.141992 -0.096996
v 0.017703 0.141992 -0.099894
v 0.010707 0.141992 -0.096996
v 0.007809 0.141992 -0.090000
v 0.010707 0.141992 -0.083004
v 0.017703 0.141992 -0.090000
v 0.008608 0.017540 -0.090000
v 0.011272 0.017540 -0.096431
v 0.017703 0.017540 -0.099095
v 0.024134 0.017540 -0.096431
v 0.026798 0.017540 -0.090000
v 0.024134 0.017540 -0.083569
v 0.017703 0.017540 -0.080905
vn -0.0000 -1.0000 -0.0000
vn -0.9133 -0.1511 -0.3783
vn -0.8846 -0.2885 -0.3664
vn -0.3783 -0.1511 0.9133
vn -0.3664 -0.2885 0.8846
vn 0.3783 -0.1511 0.9133
vn 0.3664 -0.2885 0.8846
vn 0.9133 -0.1511 -0.3783
vn 0.8846 -0.2885 -0.3664
vn -0.3783 -0.1511 -0.9133
vn -0.3664 -0.2885 -0.8846
vn -0.9133 -0.1511 0.3783
vn -0.8846 -0.2885 0.3664
vn 0.9133 -0.1511 0.3783
vn 0.8846 -0.2885 0.3664
vn 0.3783 -0.1511 -0.9133
vn 0.3664 -0.2885 -0.8846
vn -0.9239 -0.0000 0.3827
vn -0.3827 -0.0000 -0.9239
vn 0.9239 -0.0000 -0.3827
vn 0.3827 -0.0000 0.9239
vn -0.3827 -0.0000 0.9239
vn -0.9239 -0.0000 -0.3827
vn 0.3827 -0.0000 -0.9239
vn 0.9239 -0.0000 0.3827
vn -0.0000 1.0000 -0.0000
vn 0.7515 -0.5817 0.3113
vn 0.3113 -0.5817 -0.7515
vn -0.7515 -0.5817 -0.3113
vn -0.3113 -0.5817 0.7515
vn 0.3113 -0.5817 0.7515
vn 0.7515 -0.5817 -0.3113
vn -0.3113 -0.5817 -0.7515
vn -0.7515 -0.5817 0.3113
vt 0.301306 0.704293
vt 0.299659 0.708268
vt 0.298013 0.704293
vt 0.295684 0.706622
vt 0.295684 0.709915
vt 0.298013 0.712243
vt 0.301306 0.712243
vt 0.303634 0.709915
vt 0.303634 0.706622
vt 0.705106 0.986566
vt 0.711007 0.986556
vt 0.710994 0.988672
vt 0.705064 0.988583
vt 0.716890 0.986655
vt 0.722729 0.986523
vt 0.722767 0.988586
vt 0.716901 0.988650
vt 0.728618 0.986244
vt 0.728777 0.988323
vt 0.687546 0.985182
vt 0.693274 0.986004
vt 0.693059 0.988065
vt 0.687007 0.987190
vt 0.699196 0.986298
vt 0.699101 0.988434
vt 0.734176 0.985553
vt 0.734687 0.987516
vt 0.711631 0.893369
vt 0.716402 0.893317
vt 0.701918 0.892791
vt 0.706823 0.893257
vt 0.691639 0.890093
vt 0.697008 0.891905
vt 0.721411 0.892952
vt 0.726540 0.892068
vt 0.732017 0.890370
vt 0.664152 0.923370
vt 0.659970 0.919188
vt 0.667109 0.916231
vt 0.659970 0.913273
vt 0.664152 0.909091
vt 0.670066 0.909091
vt 0.674248 0.913273
vt 0.674248 0.919188
vt 0.670066 0.923370
vt 0.725170 0.886978
vt 0.728983 0.885651
vt 0.698460 0.887126
vt 0.702662 0.887644
vt 0.707243 0.887664
vt 0.711747 0.888381
vt 0.716128 0.888005
vt 0.720657 0.887323
vt 0.694816 0.885651
s 1
f 2/1/1 9/2/1 3/3/1
f 9/2/1 4/4/1 3/3/1
f 4/4/1 9/2/1 5/5/1
f 5/5/1 9/2/1 6/6/1
f 6/6/1 9/2/1 7/7/1
f 7/7/1 9/2/1 8/8/1
f 8/8/1 9/2/1 1/9/1
f 1/9/1 9/2/1 2/1/1
f 15/10/2 16/11/2 25/12/3 24/13/3
f 17/14/4 10/15/4 19/16/5 26/17/5
f 10/15/6 11/18/6 20/19/7 19/16/7
f 12/20/8 13/21/8 22/22/9 21/23/9
f 14/24/10 15/10/10 24/13/11 23/25/11
f 16/11/12 17/14/12 26/17/13 25/12/13
f 11/18/14 12/26/14 21/27/15 20/19/15
f 13/21/16 14/24/16 23/25/17 22/22/17
f 28/28/18 18/29/18 17/14/12 16/11/12
f 30/30/19 29/31/19 15/10/10 14/24/10
f 32/32/20 31/33/20 13/21/8 12/20/8
f 34/34/21 33/35/21 11/18/6 10/15/6
f 18/29/22 34/34/22 10/15/4 17/14/4
f 29/31/23 28/28/23 16/11/2 15/10/2
f 31/33/24 30/30/24 14/24/16 13/21/16
f 33/35/25 32/36/25 12/26/14 11/18/14
f 20/37/26 21/38/26 27/39/26
f 27/39/26 21/38/26 22/40/26
f 22/40/26 23/41/26 27/39/26
f 23/41/26 24/42/26 27/39/26
f 24/42/26 25/43/26 27/39/26
f 25/43/26 26/44/26 27/39/26
f 26/44/26 19/45/26 27/39/26
f 19/45/26 20/37/26 27/39/26
f 2/46/27 3/47/27 32/36/27 33/35/27
f 4/48/28 5/49/28 30/30/28 31/33/28
f 6/50/29 7/51/29 28/28/29 29/31/29
f 8/52/30 1/53/30 34/34/30 18/29/30
f 1/53/31 2/46/31 33/35/31 34/34/31
f 3/54/32 4/48/32 31/33/32 32/32/32
f 5/49/33 6/50/33 29/31/33 30/30/33
f 7/51/34 8/52/34 18/29/34 28/28/34
o LabTestTubes
v -0.035387 0.006706 0.112500
v -0.035387 -0.000000 0.112500
v -0.035387 0.006706 -0.112500
v -0.035387 -0.000000 -0.112500
v 0.035387 0.006706 0.112500
v 0.035387 -0.000000 0.112500
v 0.035387 0.006706 -0.112500
v 0.035387 -0.000000 -0.112500
v 0.000000 0.006706 -0.112500
v 0.000000 -0.000000 -0.112500
v 0.000000 0.006706 0.112500
v 0.000000 -0.000000 0.112500
v -0.035387 0.006706 -0.000002
v -0.035387 -0.000000 -0.000002
v 0.035387 0.006706 -0.000002
v 0.035387 -0.000000 -0.000002
v 0.000000 -0.000000 -0.000002
v 0.000000 0.006706 -0.000002
v -0.035387 -0.000000 -0.106875
v 0.035387 0.006706 -0.106875
v 0.000000 -0.000000 -0.106875
v 0.000000 0.006706 -0.106875
v -0.035387 0.006706 -0.106875
v 0.035387 -0.000000 -0.106875
v -0.035387 0.006706 0.106875
v 0.035387 -0.000000 0.106875
v -0.035387 -0.000000 0.106875
v 0.035387 0.006706 0.106875
v 0.000000 -0.000000 0.106875
v 0.000000 0.006706 0.106875
v 0.035387 0.091806 -0.106875
v 0.035387 0.091806 -0.112500
v 0.000000 0.091806 0.112500
v 0.035387 0.091806 0.112500
v 0.000000 0.091806 -0.112500
v 0.000000 0.091806 -0.106875
v 0.035387 0.091806 0.106875
v 0.000000 0.091806 0.106875
v 0.035387 0.087551 -0.106875
v 0.000000 0.087551 -0.106875
v 0.000000 0.087551 -0.112500
v 0.035387 0.087551 -0.112500
v 0.000000 0.087551 0.106875
v 0.035387 0.087551 0.106875
v 0.035387 0.087551 0.112500
v 0.000000 0.087551 0.112500
vn -1.0000 -0.0000 -0.0000
vn -0.0000 -0.0000 -1.0000
vn 1.0000 -0.0000 -0.0000
vn -0.0000 -0.0000 1.0000
vn -0.0000 -1.0000 -0.0000
vn -0.0000 1.0000 -0.0000
vt 0.595929 0.538750
vt 0.595929 0.534330
vt 0.601198 0.534330
vt 0.601198 0.538750
vt 0.595929 0.506526
vt 0.595929 0.478722
vt 0.601198 0.478722
vt 0.601198 0.506526
vt 0.662076 0.706695
vt 0.662076 0.711115
vt 0.656807 0.711115
vt 0.656807 0.706695
vt 0.595929 0.738919
vt 0.595929 0.711115
vt 0.601198 0.711115
vt 0.601198 0.738919
vt 0.424601 0.725713
vt 0.396797 0.725713
vt 0.396797 0.722369
vt 0.424601 0.722369
vt 0.629002 0.706695
vt 0.629002 0.711115
vt 0.601198 0.706695
vt 0.595929 0.706695
vt 0.568125 0.711115
vt 0.568125 0.706695
vt 0.595929 0.766723
vt 0.601198 0.766723
vt 0.595929 0.622721
vt 0.568125 0.622721
vt 0.568125 0.538750
vt 0.656807 0.538750
vt 0.656807 0.622721
vt 0.629002 0.622721
vt 0.629002 0.538750
vt 0.601198 0.622721
vt 0.540320 0.622721
vt 0.540320 0.538750
vt 0.662076 0.538750
vt 0.662076 0.622721
vt 0.662076 0.534330
vt 0.656807 0.534330
vt 0.501990 0.542242
vt 0.529794 0.542242
vt 0.529794 0.710187
vt 0.501990 0.710187
vt 0.629002 0.534330
vt 0.568125 0.534330
vt 0.540320 0.706695
vt 0.424601 0.717950
vt 0.396797 0.717950
vt 0.424601 0.545585
vt 0.424601 0.550004
vt 0.396797 0.550004
vt 0.396797 0.545585
vt 0.393454 0.717950
vt 0.393454 0.550004
vt 0.427944 0.545585
vt 0.427944 0.550004
vt 0.393454 0.545585
vt 0.427944 0.717950
vt 0.427944 0.722369
vt 0.393454 0.722369
vt 0.396797 0.542242
vt 0.424601 0.542242
vt 0.396797 0.478722
vt 0.424601 0.478722
vt 0.329933 0.550004
vt 0.329933 0.545585
vt 0.491464 0.545585
vt 0.491464 0.550004
vt 0.529794 0.773707
vt 0.501990 0.773707
vt 0.329934 0.722369
vt 0.329934 0.717950
vt 0.491464 0.717950
vt 0.491464 0.722369
vt 0.501990 0.478722
vt 0.529794 0.478722
vt 0.424601 0.789233
vt 0.396797 0.789233
s 1
f 57/55/35 37/56/35 38/57/35 53/58/35
f 43/59/36 41/60/36 42/61/36 44/62/36
f 62/63/37 39/64/37 40/65/37 60/66/37
f 45/67/38 35/68/38 36/69/38 46/70/38
f 80/71/38 79/72/38 68/73/38 67/74/38
f 63/75/39 46/76/39 36/69/39 61/77/39
f 60/66/39 40/65/39 46/76/39 63/75/39
f 59/78/40 35/68/40 45/79/40 64/80/40
f 39/81/38 45/67/38 46/70/38 40/82/38
f 37/56/36 43/59/36 44/62/36 38/57/36
f 57/55/40 47/83/40 52/84/40 56/85/40
f 58/86/39 50/87/39 51/88/39 55/89/39
f 55/89/39 51/88/39 48/90/39 53/58/39
f 56/85/40 52/84/40 49/91/40 54/92/40
f 54/93/37 49/94/37 50/87/37 58/86/37
f 59/78/35 47/83/35 48/90/35 61/77/35
f 41/95/37 54/93/37 58/86/37 42/96/37
f 78/97/39 77/98/39 74/99/39 73/100/39
f 44/101/39 55/89/39 53/58/39 38/57/39
f 42/96/39 58/86/39 55/89/39 44/101/39
f 37/56/40 57/55/40 56/85/40 43/102/40
f 47/83/35 57/55/35 53/58/35 48/90/35
f 35/68/35 59/78/35 61/77/35 36/69/35
f 47/83/40 59/78/40 64/80/40 52/84/40
f 50/87/39 60/66/39 63/75/39 51/88/39
f 51/88/39 63/75/39 61/77/39 48/90/39
f 52/84/40 64/80/40 62/103/40 49/91/40
f 49/94/37 62/63/37 60/66/37 50/87/37
f 72/104/40 67/74/40 68/73/40 71/105/40
f 69/106/40 70/107/40 65/108/40 66/109/40
f 71/105/37 78/110/37 73/111/37 65/108/37
f 75/112/35 74/113/35 70/107/35 69/106/35
f 73/111/37 76/114/37 66/109/37 65/108/37
f 77/115/35 80/116/35 67/74/35 72/104/35
f 79/117/37 78/110/37 71/105/37 68/73/37
f 76/118/36 75/119/36 69/106/36 66/109/36
f 41/120/36 43/121/36 75/119/36 76/118/36
f 54/122/37 41/123/37 76/114/37 73/111/37
f 43/124/35 56/125/35 74/113/35 75/112/35
f 56/126/38 54/127/38 73/100/38 74/99/38
f 39/128/37 62/129/37 78/110/37 79/117/37
f 64/130/35 45/131/35 80/116/35 77/115/35
f 62/132/36 64/133/36 77/98/36 78/97/36
f 45/134/38 39/135/38 79/72/38 80/71/38
f 77/115/35 72/104/35 70/107/35 74/113/35
f 72/104/40 71/105/40 65/108/40 70/107/40
o Circle.004
v 0.017703 0.012907 -0.048491
v 0.021598 0.012907 -0.050105
v 0.023212 0.012907 -0.054000
v 0.021598 0.012907 -0.057895
v 0.017703 0.012907 -0.059509
v 0.013808 0.012907 -0.057895
v 0.012194 0.012907 -0.054000
v 0.013808 0.012907 -0.050105
v 0.017703 0.012907 -0.054000
v 0.017703 0.139543 -0.044905
v 0.024134 0.139543 -0.047569
v 0.026798 0.139543 -0.054000
v 0.024134 0.139543 -0.060431
v 0.017703 0.139543 -0.063095
v 0.011272 0.139543 -0.060431
v 0.008608 0.139543 -0.054000
v 0.011272 0.139543 -0.047569
v 0.011272 0.017540 -0.047569
v 0.017703 0.141992 -0.044106
v 0.024699 0.141992 -0.047004
v 0.027597 0.141992 -0.054000
v 0.024699 0.141992 -0.060996
v 0.017703 0.141992 -0.063894
v 0.010707 0.141992 -0.060996
v 0.007809 0.141992 -0.054000
v 0.010707 0.141992 -0.047004
v 0.017703 0.141992 -0.054000
v 0.008608 0.017540 -0.054000
v 0.011272 0.017540 -0.060431
v 0.017703 0.017540 -0.063095
v 0.024134 0.017540 -0.060431
v 0.026798 0.017540 -0.054000
v 0.024134 0.017540 -0.047569
v 0.017703 0.017540 -0.044905
vn -0.0000 -1.0000 -0.0000
vn -0.9133 -0.1511 -0.3783
vn -0.8846 -0.2885 -0.3664
vn -0.3783 -0.1511 0.9133
vn -0.3664 -0.2885 0.8846
vn 0.3783 -0.1511 0.9133
vn 0.3664 -0.2885 0.8846
vn 0.9133 -0.1511 -0.3783
vn 0.8846 -0.2885 -0.3664
vn -0.3783 -0.1511 -0.9133
vn -0.3664 -0.2885 -0.8846
vn -0.9133 -0.1511 0.3783
vn -0.8846 -0.2885 0.3664
vn 0.9133 -0.1511 0.3783
vn 0.8846 -0.2885 0.3664
vn 0.3783 -0.1511 -0.9133
vn 0.3664 -0.2885 -0.8846
vn -0.9239 -0.0000 0.3827
vn -0.3827 -0.0000 -0.9239
vn 0.9239 -0.0000 -0.3827
vn 0.3827 -0.0000 0.9239
vn -0.3827 -0.0000 0.9239
vn -0.9239 -0.0000 -0.3827
vn 0.3827 -0.0000 -0.9239
vn 0.9239 -0.0000 0.3827
vn -0.0000 1.0000 -0.0000
vn 0.7515 -0.5817 0.3113
vn 0.3113 -0.5817 -0.7515
vn -0.7515 -0.5817 -0.3113
vn -0.3113 -0.5817 0.7515
vn 0.3113 -0.5817 0.7515
vn 0.7515 -0.5817 -0.3113
vn -0.3113 -0.5817 -0.7515
vn -0.7515 -0.5817 0.3113
vt 0.964505 0.945160
vt 0.962865 0.949121
vt 0.961224 0.945160
vt 0.958904 0.947480
vt 0.958904 0.950761
vt 0.961224 0.953081
vt 0.964505 0.953081
vt 0.966825 0.950761
vt 0.966825 0.947480
vt 0.904783 0.579648
vt 0.910731 0.579742
vt 0.910698 0.581871
vt 0.904692 0.581729
vt 0.916617 0.579905
vt 0.922444 0.579831
vt 0.922462 0.581889
vt 0.916608 0.581899
vt 0.928319 0.579609
vt 0.928458 0.581685
vt 0.887398 0.578122
vt 0.893067 0.579003
vt 0.892827 0.581030
vt 0.886845 0.580105
vt 0.898894 0.579410
vt 0.898750 0.581470
vt 0.933874 0.578973
vt 0.934365 0.580937
vt 0.912282 0.486940
vt 0.917050 0.486864
vt 0.902759 0.486210
vt 0.907453 0.486713
vt 0.892439 0.483309
vt 0.897873 0.485308
vt 0.921832 0.486572
vt 0.926931 0.485721
vt 0.932603 0.483891
vt 0.453530 0.958481
vt 0.449363 0.954314
vt 0.456476 0.951367
vt 0.449363 0.948421
vt 0.453530 0.944254
vt 0.459423 0.944254
vt 0.463589 0.948421
vt 0.463589 0.954314
vt 0.459423 0.958481
vt 0.925335 0.480514
vt 0.929256 0.478722
vt 0.899590 0.480308
vt 0.903546 0.481477
vt 0.907830 0.481544
vt 0.912438 0.481337
vt 0.916968 0.481954
vt 0.921173 0.481470
vt 0.895812 0.478722
s 1
f 82/136/41 89/137/41 83/138/41
f 89/137/41 84/139/41 83/138/41
f 84/139/41 89/137/41 85/140/41
f 85/140/41 89/137/41 86/141/41
f 86/141/41 89/137/41 87/142/41
f 87/142/41 89/137/41 88/143/41
f 88/143/41 89/137/41 81/144/41
f 81/144/41 89/137/41 82/136/41
f 95/145/42 96/146/42 105/147/43 104/148/43
f 97/149/44 90/150/44 99/151/45 106/152/45
f 90/150/46 91/153/46 100/154/47 99/151/47
f 92/155/48 93/156/48 102/157/49 101/158/49
f 94/159/50 95/145/50 104/148/51 103/160/51
f 96/146/52 97/149/52 106/152/53 105/147/53
f 91/153/54 92/161/54 101/162/55 100/154/55
f 93/156/56 94/159/56 103/160/57 102/157/57
f 108/163/58 98/164/58 97/149/52 96/146/52
f 110/165/59 109/166/59 95/145/50 94/159/50
f 112/167/60 111/168/60 93/156/48 92/155/48
f 114/169/61 113/170/61 91/153/46 90/150/46
f 98/164/62 114/169/62 90/150/44 97/149/44
f 109/166/63 108/163/63 96/146/42 95/145/42
f 111/168/64 110/165/64 94/159/56 93/156/56
f 113/170/65 112/171/65 92/161/54 91/153/54
f 100/172/66 101/173/66 107/174/66
f 107/174/66 101/173/66 102/175/66
f 102/175/66 103/176/66 107/174/66
f 103/176/66 104/177/66 107/174/66
f 104/177/66 105/178/66 107/174/66
f 105/178/66 106/179/66 107/174/66
f 106/179/66 99/180/66 107/174/66
f 99/180/66 100/172/66 107/174/66
f 82/181/67 83/182/67 112/171/67 113/170/67
f 84/183/68 85/184/68 110/165/68 111/168/68
f 86/185/69 87/186/69 108/163/69 109/166/69
f 88/187/70 81/188/70 114/169/70 98/164/70
f 81/188/71 82/181/71 113/170/71 114/169/71
f 83/189/72 84/183/72 111/168/72 112/167/72
f 85/184/73 86/185/73 109/166/73 110/165/73
f 87/186/74 88/187/74 98/164/74 108/163/74
o Circle.005
v 0.017703 0.012907 0.023509
v 0.021598 0.012907 0.021895
v 0.023212 0.012907 0.018000
v 0.021598 0.012907 0.014105
v 0.017703 0.012907 0.012491
v 0.013808 0.012907 0.014105
v 0.012194 0.012907 0.018000
v 0.013808 0.012907 0.021895
v 0.017703 0.012907 0.018000
v 0.017703 0.139543 0.027095
v 0.024134 0.139543 0.024431
v 0.026798 0.139543 0.018000
v 0.024134 0.139543 0.011569
v 0.017703 0.139543 0.008905
v 0.011272 0.139543 0.011569
v 0.008608 0.139543 0.018000
v 0.011272 0.139543 0.024431
v 0.011272 0.017540 0.024431
v 0.017703 0.141992 0.027894
v 0.024699 0.141992 0.024996
v 0.027597 0.141992 0.018000
v 0.024699 0.141992 0.011004
v 0.017703 0.141992 0.008106
v 0.010707 0.141992 0.011004
v 0.007809 0.141992 0.018000
v 0.010707 0.141992 0.024996
v 0.017703 0.141992 0.018000
v 0.008608 0.017540 0.018000
v 0.011272 0.017540 0.011569
v 0.017703 0.017540 0.008905
v 0.024134 0.017540 0.011569
v 0.026798 0.017540 0.018000
v 0.024134 0.017540 0.024431
v 0.017703 0.017540 0.027095
vn -0.0000 -1.0000 -0.0000
vn -0.9133 -0.1511 -0.3783
vn -0.8846 -0.2885 -0.3664
vn -0.3783 -0.1511 0.9133
vn -0.3664 -0.2885 0.8846
vn 0.3783 -0.1511 0.9133
vn 0.3664 -0.2885 0.8846
vn 0.9133 -0.1511 -0.3783
vn 0.8846 -0.2885 -0.3664
vn -0.3783 -0.1511 -0.9133
vn -0.3664 -0.2885 -0.8846
vn -0.9133 -0.1511 0.3783
vn -0.8846 -0.2885 0.3664
vn 0.9133 -0.1511 0.3783
vn 0.8846 -0.2885 0.3664
vn 0.3783 -0.1511 -0.9133
vn 0.3664 -0.2885 -0.8846
vn -0.9239 -0.0000 0.3827
vn -0.3827 -0.0000 -0.9239
vn 0.9239 -0.0000 -0.3827
vn 0.3827 -0.0000 0.9239
vn -0.3827 -0.0000 0.9239
vn -0.9239 -0.0000 -0.3827
vn 0.3827 -0.0000 -0.9239
vn 0.9239 -0.0000 0.3827
vn -0.0000 1.0000 -0.0000
vn 0.7515 -0.5817 0.3113
vn 0.3113 -0.5817 -0.7515
vn -0.7515 -0.5817 -0.3113
vn -0.3113 -0.5817 0.7515
vn 0.3113 -0.5817 0.7515
vn 0.7515 -0.5817 -0.3113
vn -0.3113 -0.5817 -0.7515
vn -0.7515 -0.5817 0.3113
vt 0.430906 0.946576
vt 0.434869 0.948217
vt 0.430906 0.949858
vt 0.433228 0.952180
vt 0.436510 0.952180
vt 0.438832 0.949858
vt 0.438832 0.946576
vt 0.436510 0.944254
vt 0.433228 0.944254
vt 0.919231 0.285356
vt 0.925032 0.285476
vt 0.925020 0.287445
vt 0.919218 0.287402
vt 0.930845 0.285420
vt 0.936774 0.285261
vt 0.936851 0.287395
vt 0.930839 0.287480
vt 0.942650 0.285035
vt 0.942853 0.287051
vt 0.901597 0.283997
vt 0.907404 0.284802
vt 0.907206 0.286935
vt 0.901046 0.286041
vt 0.913343 0.285181
vt 0.913280 0.287269
vt 0.948090 0.284395
vt 0.948561 0.286251
vt 0.926029 0.192490
vt 0.930675 0.192458
vt 0.916195 0.191748
vt 0.921138 0.192275
vt 0.905815 0.189021
vt 0.911273 0.190811
vt 0.935362 0.192155
vt 0.940397 0.191275
vt 0.946018 0.189398
vt 0.953224 0.463042
vt 0.947329 0.463042
vt 0.950276 0.455925
vt 0.943160 0.458873
vt 0.943160 0.452977
vt 0.947329 0.448808
vt 0.953224 0.448808
vt 0.957393 0.452977
vt 0.957393 0.458873
vt 0.938750 0.186147
vt 0.942618 0.184314
vt 0.912743 0.186064
vt 0.916950 0.186562
vt 0.921611 0.186538
vt 0.926235 0.187249
vt 0.930541 0.187726
vt 0.934651 0.187162
vt 0.909115 0.184314
s 1
f 116/190/75 123/191/75 117/192/75
f 123/191/75 118/193/75 117/192/75
f 118/193/75 123/191/75 119/194/75
f 119/194/75 123/191/75 120/195/75
f 120/195/75 123/191/75 121/196/75
f 121/196/75 123/191/75 122/197/75
f 122/197/75 123/191/75 115/198/75
f 115/198/75 123/191/75 116/190/75
f 129/199/76 130/200/76 139/201/77 138/202/77
f 131/203/78 124/204/78 133/205/79 140/206/79
f 124/204/80 125/207/80 134/208/81 133/205/81
f 126/209/82 127/210/82 136/211/83 135/212/83
f 128/213/84 129/199/84 138/202/85 137/214/85
f 130/200/86 131/203/86 140/206/87 139/201/87
f 125/207/88 126/215/88 135/216/89 134/208/89
f 127/210/90 128/213/90 137/214/91 136/211/91
f 142/217/92 132/218/92 131/203/86 130/200/86
f 144/219/93 143/220/93 129/199/84 128/213/84
f 146/221/94 145/222/94 127/210/82 126/209/82
f 148/223/95 147/224/95 125/207/80 124/204/80
f 132/218/96 148/223/96 124/204/78 131/203/78
f 143/220/97 142/217/97 130/200/76 129/199/76
f 145/222/98 144/219/98 128/213/90 127/210/90
f 147/224/99 146/225/99 126/215/88 125/207/88
f 134/226/100 135/227/100 141/228/100
f 141/228/100 135/227/100 136/229/100
f 136/229/100 137/230/100 141/228/100
f 137/230/100 138/231/100 141/228/100
f 138/231/100 139/232/100 141/228/100
f 139/232/100 140/233/100 141/228/100
f 140/233/100 133/234/100 141/228/100
f 133/234/100 134/226/100 141/228/100
f 116/235/101 117/236/101 146/225/101 147/224/101
f 118/237/102 119/238/102 144/219/102 145/222/102
f 120/239/103 121/240/103 142/217/103 143/220/103
f 122/241/104 115/242/104 148/223/104 132/218/104
f 115/242/105 116/235/105 147/224/105 148/223/105
f 117/243/106 118/237/106 145/222/106 146/221/106
f 119/238/107 120/239/107 143/220/107 144/219/107
f 121/240/108 122/241/108 132/218/108 142/217/108
o Circle.006
v 0.017703 0.012907 -0.012491
v 0.021598 0.012907 -0.014105
v 0.023212 0.012907 -0.018000
v 0.021598 0.012907 -0.021895
v 0.017703 0.012907 -0.023509
v 0.013808 0.012907 -0.021895
v 0.012194 0.012907 -0.018000
v 0.013808 0.012907 -0.014105
v 0.017703 0.012907 -0.018000
v 0.017703 0.139543 -0.008905
v 0.024134 0.139543 -0.011569
v 0.026798 0.139543 -0.018000
v 0.024134 0.139543 -0.024431
v 0.017703 0.139543 -0.027095
v 0.011272 0.139543 -0.024431
v 0.008608 0.139543 -0.018000
v 0.011272 0.139543 -0.011569
v 0.011272 0.017540 -0.011569
v 0.017703 0.141992 -0.008106
v 0.024699 0.141992 -0.011004
v 0.027597 0.141992 -0.018000
v 0.024699 0.141992 -0.024996
v 0.017703 0.141992 -0.027894
v 0.010707 0.141992 -0.024996
v 0.007809 0.141992 -0.018000
v 0.010707 0.141992 -0.011004
v 0.017703 0.141992 -0.018000
v 0.008608 0.017540 -0.018000
v 0.011272 0.017540 -0.024431
v 0.017703 0.017540 -0.027095
v 0.024134 0.017540 -0.024431
v 0.026798 0.017540 -0.018000
v 0.024134 0.017540 -0.011569
v 0.017703 0.017540 -0.008905
vn -0.0000 -1.0000 -0.0000
vn -0.9133 -0.1511 -0.3783
vn -0.8846 -0.2885 -0.3664
vn -0.3783 -0.1511 0.9133
vn -0.3664 -0.2885 0.8846
vn 0.3783 -0.1511 0.9133
vn 0.3664 -0.2885 0.8846
vn 0.9133 -0.1511 -0.3783
vn 0.8846 -0.2885 -0.3664
vn -0.3783 -0.1511 -0.9133
vn -0.3664 -0.2885 -0.8846
vn -0.9133 -0.1511 0.3783
vn -0.8846 -0.2885 0.3664
vn 0.9133 -0.1511 0.3783
vn 0.8846 -0.2885 0.3664
vn 0.3783 -0.1511 -0.9133
vn 0.3664 -0.2885 -0.8846
vn -0.9239 -0.0000 0.3827
vn -0.3827 -0.0000 -0.9239
vn 0.9239 -0.0000 -0.3827
vn 0.3827 -0.0000 0.9239
vn -0.3827 -0.0000 0.9239
vn -0.9239 -0.0000 -0.3827
vn 0.3827 -0.0000 -0.9239
vn 0.9239 -0.0000 0.3827
vn -0.0000 1.0000 -0.0000
vn 0.7515 -0.5817 0.3113
vn 0.3113 -0.5817 -0.7515
vn -0.7515 -0.5817 -0.3113
vn -0.3113 -0.5817 0.7515
vn 0.3113 -0.5817 0.7515
vn 0.7515 -0.5817 -0.3113
vn -0.3113 -0.5817 -0.7515
vn -0.7515 -0.5817 0.3113
vt 0.959087 0.205074
vt 0.963039 0.206711
vt 0.959087 0.208347
vt 0.961402 0.210662
vt 0.964675 0.210662
vt 0.966990 0.208347
vt 0.966990 0.205074
vt 0.964675 0.202759
vt 0.961402 0.202759
vt 0.903077 0.460632
vt 0.908946 0.460838
vt 0.908863 0.462897
vt 0.902962 0.462688
vt 0.914827 0.460955
vt 0.920727 0.460957
vt 0.920739 0.463042
vt 0.914779 0.463023
vt 0.926632 0.460739
vt 0.926791 0.462830
vt 0.885793 0.458956
vt 0.891416 0.459832
vt 0.891134 0.461861
vt 0.885250 0.460855
vt 0.897223 0.460323
vt 0.897056 0.462374
vt 0.932181 0.460197
vt 0.932633 0.462105
vt 0.910942 0.368219
vt 0.915699 0.368147
vt 0.901778 0.367476
vt 0.906314 0.368015
vt 0.891574 0.364419
vt 0.897022 0.366493
vt 0.920627 0.367754
vt 0.925836 0.366860
vt 0.931590 0.365037
vt 0.904999 0.959355
vt 0.899119 0.959355
vt 0.902059 0.952257
vt 0.894962 0.955197
vt 0.894962 0.949318
vt 0.899119 0.945160
vt 0.904999 0.945160
vt 0.909157 0.949318
vt 0.909157 0.955197
vt 0.924234 0.361489
vt 0.928256 0.359706
vt 0.898838 0.361706
vt 0.902651 0.362939
vt 0.906775 0.363133
vt 0.911103 0.363100
vt 0.915525 0.362890
vt 0.919937 0.362423
vt 0.895196 0.359706
s 1
f 150/244/109 157/245/109 151/246/109
f 157/245/109 152/247/109 151/246/109
f 152/247/109 157/245/109 153/248/109
f 153/248/109 157/245/109 154/249/109
f 154/249/109 157/245/109 155/250/109
f 155/250/109 157/245/109 156/251/109
f 156/251/109 157/245/109 149/252/109
f 149/252/109 157/245/109 150/244/109
f 163/253/110 164/254/110 173/255/111 172/256/111
f 165/257/112 158/258/112 167/259/113 174/260/113
f 158/258/114 159/261/114 168/262/115 167/259/115
f 160/263/116 161/264/116 170/265/117 169/266/117
f 162/267/118 163/253/118 172/256/119 171/268/119
f 164/254/120 165/257/120 174/260/121 173/255/121
f 159/261/122 160/269/122 169/270/123 168/262/123
f 161/264/124 162/267/124 171/268/125 170/265/125
f 176/271/126 166/272/126 165/257/120 164/254/120
f 178/273/127 177/274/127 163/253/118 162/267/118
f 180/275/128 179/276/128 161/264/116 160/263/116
f 182/277/129 181/278/129 159/261/114 158/258/114
f 166/272/130 182/277/130 158/258/112 165/257/112
f 177/274/131 176/271/131 164/254/110 163/253/110
f 179/276/132 178/273/132 162/267/124 161/264/124
f 181/278/133 180/279/133 160/269/122 159/261/122
f 168/280/134 169/281/134 175/282/134
f 175/282/134 169/281/134 170/283/134
f 170/283/134 171/284/134 175/282/134
f 171/284/134 172/285/134 175/282/134
f 172/285/134 173/286/134 175/282/134
f 173/286/134 174/287/134 175/282/134
f 174/287/134 167/288/134 175/282/134
f 167/288/134 168/280/134 175/282/134
f 150/289/135 151/290/135 180/279/135 181/278/135
f 152/291/136 153/292/136 178/273/136 179/276/136
f 154/293/137 155/294/137 176/271/137 177/274/137
f 156/295/138 149/296/138 182/277/138 166/272/138
f 149/296/139 150/289/139 181/278/139 182/277/139
f 151/297/140 152/291/140 179/276/140 180/275/140
f 153/292/141 154/293/141 177/274/141 178/273/141
f 155/294/142 156/295/142 166/272/142 176/271/142
o Circle.008
v 0.017703 0.012907 0.059509
v 0.021598 0.012907 0.057895
v 0.023212 0.012907 0.054000
v 0.021598 0.012907 0.050105
v 0.017703 0.012907 0.048491
v 0.013808 0.012907 0.050105
v 0.012194 0.012907 0.054000
v 0.013808 0.012907 0.057895
v 0.017703 0.012907 0.054000
v 0.017703 0.139543 0.063095
v 0.024134 0.139543 0.060431
v 0.026798 0.139543 0.054000
v 0.024134 0.139543 0.047569
v 0.017703 0.139543 0.044905
v 0.011272 0.139543 0.047569
v 0.008608 0.139543 0.054000
v 0.011272 0.139543 0.060431
v 0.011272 0.017540 0.060431
v 0.017703 0.141992 0.063894
v 0.024699 0.141992 0.060996
v 0.027597 0.141992 0.054000
v 0.024699 0.141992 0.047004
v 0.017703 0.141992 0.044106
v 0.010707 0.141992 0.047004
v 0.007809 0.141992 0.054000
v 0.010707 0.141992 0.060996
v 0.017703 0.141992 0.054000
v 0.008608 0.017540 0.054000
v 0.011272 0.017540 0.047569
v 0.017703 0.017540 0.044905
v 0.024134 0.017540 0.047569
v 0.026798 0.017540 0.054000
v 0.024134 0.017540 0.060431
v 0.017703 0.017540 0.063095
vn -0.0000 -1.0000 -0.0000
vn -0.9133 -0.1511 -0.3783
vn -0.8846 -0.2885 -0.3664
vn -0.3783 -0.1511 0.9133
vn -0.3664 -0.2885 0.8846
vn 0.3783 -0.1511 0.9133
vn 0.3664 -0.2885 0.8846
vn 0.9133 -0.1511 -0.3783
vn 0.8846 -0.2885 -0.3664
vn -0.3783 -0.1511 -0.9133
vn -0.3664 -0.2885 -0.8846
vn -0.9133 -0.1511 0.3783
vn -0.8846 -0.2885 0.3664
vn 0.9133 -0.1511 0.3783
vn 0.8846 -0.2885 0.3664
vn 0.3783 -0.1511 -0.9133
vn 0.3664 -0.2885 -0.8846
vn -0.9239 -0.0000 0.3827
vn -0.3827 -0.0000 -0.9239
vn 0.9239 -0.0000 -0.3827
vn 0.3827 -0.0000 0.9239
vn -0.3827 -0.0000 0.9239
vn -0.9239 -0.0000 -0.3827
vn 0.3827 -0.0000 -0.9239
vn 0.9239 -0.0000 0.3827
vn -0.0000 1.0000 -0.0000
vn 0.7515 -0.5817 0.3113
vn 0.3113 -0.5817 -0.7515
vn -0.7515 -0.5817 -0.3113
vn -0.3113 -0.5817 0.7515
vn 0.3113 -0.5817 0.7515
vn 0.7515 -0.5817 -0.3113
vn -0.3113 -0.5817 -0.7515
vn -0.7515 -0.5817 0.3113
vt 0.948378 0.947487
vt 0.944406 0.949132
vt 0.946051 0.945160
vt 0.942761 0.945160
vt 0.940434 0.947487
vt 0.940434 0.950777
vt 0.942761 0.953104
vt 0.946051 0.953104
vt 0.948378 0.950777
vt 0.845140 0.460927
vt 0.851060 0.461052
vt 0.851065 0.463069
vt 0.845112 0.463069
vt 0.856961 0.460911
vt 0.862848 0.460856
vt 0.862925 0.462861
vt 0.856998 0.463029
vt 0.868673 0.460493
vt 0.868850 0.462551
vt 0.827600 0.459779
vt 0.833292 0.460511
vt 0.833062 0.462569
vt 0.827102 0.461709
vt 0.839172 0.460837
vt 0.839064 0.462929
vt 0.874202 0.459758
vt 0.874724 0.461708
vt 0.851039 0.367889
vt 0.855780 0.367751
vt 0.841436 0.367294
vt 0.846275 0.367688
vt 0.830924 0.364538
vt 0.836457 0.366324
vt 0.860556 0.367386
vt 0.865671 0.366481
vt 0.871222 0.364574
vt 0.315583 0.944886
vt 0.315583 0.950795
vt 0.308450 0.947841
vt 0.311404 0.954974
vt 0.305495 0.954974
vt 0.301316 0.950795
vt 0.301316 0.944886
vt 0.305495 0.940707
vt 0.311404 0.940707
vt 0.863995 0.361174
vt 0.867951 0.359706
vt 0.837941 0.361460
vt 0.842281 0.361940
vt 0.846596 0.362718
vt 0.851101 0.362402
vt 0.855580 0.362867
vt 0.859788 0.362253
vt 0.834232 0.359706
s 1
f 184/298/143 191/299/143 185/300/143
f 191/299/143 186/301/143 185/300/143
f 186/301/143 191/299/143 187/302/143
f 187/302/143 191/299/143 188/303/143
f 188/303/143 191/299/143 189/304/143
f 189/304/143 191/299/143 190/305/143
f 190/305/143 191/299/143 183/306/143
f 183/306/143 191/299/143 184/298/143
f 197/307/144 198/308/144 207/309/145 206/310/145
f 199/311/146 192/312/146 201/313/147 208/314/147
f 192/312/148 193/315/148 202/316/149 201/313/149
f 194/317/150 195/318/150 204/319/151 203/320/151
f 196/321/152 197/307/152 206/310/153 205/322/153
f 198/308/154 199/311/154 208/314/155 207/309/155
f 193/315/156 194/323/156 203/324/157 202/316/157
f 195/318/158 196/321/158 205/322/159 204/319/159
f 210/325/160 200/326/160 199/311/154 198/308/154
f 212/327/161 211/328/161 197/307/152 196/321/152
f 214/329/162 213/330/162 195/318/150 194/317/150
f 216/331/163 215/332/163 193/315/148 192/312/148
f 200/326/164 216/331/164 192/312/146 199/311/146
f 211/328/165 210/325/165 198/308/144 197/307/144
f 213/330/166 212/327/166 196/321/158 195/318/158
f 215/332/167 214/333/167 194/323/156 193/315/156
f 202/334/168 203/335/168 209/336/168
f 209/336/168 203/335/168 204/337/168
f 204/337/168 205/338/168 209/336/168
f 205/338/168 206/339/168 209/336/168
f 206/339/168 207/340/168 209/336/168
f 207/340/168 208/341/168 209/336/168
f 208/341/168 201/342/168 209/336/168
f 201/342/168 202/334/168 209/336/168
f 184/343/169 185/344/169 214/333/169 215/332/169
f 186/345/170 187/346/170 212/327/170 213/330/170
f 188/347/171 189/348/171 210/325/171 211/328/171
f 190/349/172 183/350/172 216/331/172 200/326/172
f 183/350/173 184/343/173 215/332/173 216/331/173
f 185/351/174 186/345/174 213/330/174 214/329/174
f 187/346/175 188/347/175 211/328/175 212/327/175
f 189/348/176 190/349/176 200/326/176 210/325/176
o Circle.010
v 0.017703 0.012907 0.095509
v 0.021598 0.012907 0.093895
v 0.023212 0.012907 0.090000
v 0.021598 0.012907 0.086105
v 0.017703 0.012907 0.084491
v 0.013808 0.012907 0.086105
v 0.012194 0.012907 0.090000
v 0.013808 0.012907 0.093895
v 0.017703 0.012907 0.090000
v 0.017703 0.139543 0.099095
v 0.024134 0.139543 0.096431
v 0.026798 0.139543 0.090000
v 0.024134 0.139543 0.083569
v 0.017703 0.139543 0.080905
v 0.011272 0.139543 0.083569
v 0.008608 0.139543 0.090000
v 0.011272 0.139543 0.096431
v 0.011272 0.017540 0.096431
v 0.017703 0.141992 0.099894
v 0.024699 0.141992 0.096996
v 0.027597 0.141992 0.090000
v 0.024699 0.141992 0.083004
v 0.017703 0.141992 0.080106
v 0.010707 0.141992 0.083004
v 0.007809 0.141992 0.090000
v 0.010707 0.141992 0.096996
v 0.017703 0.141992 0.090000
v 0.008608 0.017540 0.090000
v 0.011272 0.017540 0.083569
v 0.017703 0.017540 0.080905
v 0.024134 0.017540 0.083569
v 0.026798 0.017540 0.090000
v 0.024134 0.017540 0.096431
v 0.017703 0.017540 0.099095
vn -0.0000 -1.0000 -0.0000
vn -0.9133 -0.1511 -0.3783
vn -0.8846 -0.2885 -0.3664
vn -0.3783 -0.1511 0.9133
vn -0.3664 -0.2885 0.8846
vn 0.3783 -0.1511 0.9133
vn 0.3664 -0.2885 0.8846
vn 0.9133 -0.1511 -0.3783
vn 0.8846 -0.2885 -0.3664
vn -0.3783 -0.1511 -0.9133
vn -0.3664 -0.2885 -0.8846
vn -0.9133 -0.1511 0.3783
vn -0.8846 -0.2885 0.3664
vn 0.9133 -0.1511 0.3783
vn 0.8846 -0.2885 0.3664
vn 0.3783 -0.1511 -0.9133
vn 0.3664 -0.2885 -0.8846
vn -0.9239 -0.0000 0.3827
vn -0.3827 -0.0000 -0.9239
vn 0.9239 -0.0000 -0.3827
vn 0.3827 -0.0000 0.9239
vn -0.3827 -0.0000 0.9239
vn -0.9239 -0.0000 -0.3827
vn 0.3827 -0.0000 -0.9239
vn 0.9239 -0.0000 0.3827
vn -0.0000 1.0000 -0.0000
vn 0.7515 -0.5817 0.3113
vn 0.3113 -0.5817 -0.7515
vn -0.7515 -0.5817 -0.3113
vn -0.3113 -0.5817 0.7515
vn 0.3113 -0.5817 0.7515
vn 0.7515 -0.5817 -0.3113
vn -0.3113 -0.5817 -0.7515
vn -0.7515 -0.5817 0.3113
vt 0.961406 0.184314
vt 0.963046 0.188273
vt 0.959087 0.186633
vt 0.959087 0.189913
vt 0.961406 0.192233
vt 0.964687 0.192233
vt 0.967006 0.189913
vt 0.967006 0.186633
vt 0.964687 0.184314
vt 0.957577 0.788420
vt 0.963372 0.788547
vt 0.963298 0.790587
vt 0.957502 0.790390
vt 0.969252 0.788630
vt 0.975205 0.788571
vt 0.975246 0.790710
vt 0.969212 0.790711
vt 0.981094 0.788464
vt 0.981241 0.790476
vt 0.940112 0.786766
vt 0.945868 0.787593
vt 0.945614 0.789720
vt 0.939565 0.788726
vt 0.951771 0.788098
vt 0.951668 0.790163
vt 0.986575 0.787839
vt 0.987047 0.789771
vt 0.965197 0.695760
vt 0.969937 0.695702
vt 0.955889 0.695040
vt 0.960605 0.695519
vt 0.945618 0.692053
vt 0.950979 0.693992
vt 0.974872 0.695319
vt 0.980108 0.694461
vt 0.985758 0.692668
vt 0.874379 0.959383
vt 0.870213 0.955217
vt 0.877324 0.952272
vt 0.870213 0.949326
vt 0.874379 0.945160
vt 0.880270 0.945160
vt 0.884436 0.949326
vt 0.884436 0.955217
vt 0.880270 0.959383
vt 0.978521 0.688960
vt 0.982597 0.687603
vt 0.952580 0.689157
vt 0.956880 0.689786
vt 0.961092 0.690765
vt 0.965349 0.690708
vt 0.969742 0.690456
vt 0.974165 0.689942
vt 0.948912 0.687603
s 1
f 218/352/177 225/353/177 219/354/177
f 225/353/177 220/355/177 219/354/177
f 220/355/177 225/353/177 221/356/177
f 221/356/177 225/353/177 222/357/177
f 222/357/177 225/353/177 223/358/177
f 223/358/177 225/353/177 224/359/177
f 224/359/177 225/353/177 217/360/177
f 217/360/177 225/353/177 218/352/177
f 231/361/178 232/362/178 241/363/179 240/364/179
f 233/365/180 226/366/180 235/367/181 242/368/181
f 226/366/182 227/369/182 236/370/183 235/367/183
f 228/371/184 229/372/184 238/373/185 237/374/185
f 230/375/186 231/361/186 240/364/187 239/376/187
f 232/362/188 233/365/188 242/368/189 241/363/189
f 227/369/190 228/377/190 237/378/191 236/370/191
f 229/372/192 230/375/192 239/376/193 238/373/193
f 244/379/194 234/380/194 233/365/188 232/362/188
f 246/381/195 245/382/195 231/361/186 230/375/186
f 248/383/196 247/384/196 229/372/184 228/371/184
f 250/385/197 249/386/197 227/369/182 226/366/182
f 234/380/198 250/385/198 226/366/180 233/365/180
f 245/382/199 244/379/199 232/362/178 231/361/178
f 247/384/200 246/381/200 230/375/192 229/372/192
f 249/386/201 248/387/201 228/377/190 227/369/190
f 236/388/202 237/389/202 243/390/202
f 243/390/202 237/389/202 238/391/202
f 238/391/202 239/392/202 243/390/202
f 239/392/202 240/393/202 243/390/202
f 240/393/202 241/394/202 243/390/202
f 241/394/202 242/395/202 243/390/202
f 242/395/202 235/396/202 243/390/202
f 235/396/202 236/388/202 243/390/202
f 218/397/203 219/398/203 248/387/203 249/386/203
f 220/399/204 221/400/204 246/381/204 247/384/204
f 222/401/205 223/402/205 244/379/205 245/382/205
f 224/403/206 217/404/206 250/385/206 234/380/206
f 217/404/207 218/397/207 249/386/207 250/385/207
f 219/405/208 220/399/208 247/384/208 248/383/208
f 221/400/209 222/401/209 245/382/209 246/381/209
f 223/402/210 224/403/210 234/380/210 244/379/210
