# Blender 5.2.1 LTS
# www.blender.org
mtllib Trolley.mtl
o Trolley
v -0.294238 0.742814 0.502964
v -0.294238 0.124772 0.486366
v -0.340230 0.742814 0.502964
v -0.340230 0.124772 0.486366
v -0.294238 0.742814 0.457066
v -0.294238 0.124772 0.457066
v -0.340230 0.742814 0.457066
v -0.340230 0.124772 0.457066
v -0.294238 0.085588 0.486366
v -0.340230 0.085588 0.486366
v -0.340230 0.124772 0.422005
v -0.294238 0.124772 0.422005
v -0.340230 0.090822 0.445115
v -0.294238 0.090822 0.445115
v -0.294238 0.005445 0.502964
v -0.340230 0.005445 0.502964
v -0.340230 -0.002473 0.465436
v -0.294238 -0.002473 0.465436
v -0.340230 0.005445 0.427209
v -0.294238 0.005445 0.427209
v -0.340230 0.063136 0.438198
v -0.340230 0.046538 0.461251
v -0.294238 0.063136 0.491975
v -0.294238 0.046538 0.461251
v -0.340230 0.063136 0.491975
v -0.294238 0.063136 0.438198
v -0.340230 0.141370 0.502964
v -0.340230 0.141370 0.457066
v -0.294238 0.141370 0.457066
v -0.294238 0.141370 0.502964
v -0.340230 0.087630 0.502964
v -0.294238 0.087630 0.502964
v -0.294238 0.141370 0.390628
v -0.294238 0.087630 0.427209
v -0.340230 0.087630 0.427209
v -0.340230 0.141370 0.390628
v -0.340230 0.046538 0.513231
v -0.294238 0.046538 0.416942
v -0.340230 0.046538 0.416942
v -0.294238 0.046538 0.513231
v -0.294238 0.063136 0.461251
v -0.340230 0.063136 0.461251
v -0.353343 0.085588 0.486366
v -0.353343 0.087630 0.457066
v -0.353343 0.124772 0.457066
v -0.353343 0.090822 0.445115
v -0.353343 0.063136 0.461251
v -0.353343 0.124772 0.486366
v -0.353343 0.124772 0.422005
v -0.353343 0.063136 0.491975
v -0.353343 0.063136 0.438198
v -0.281126 0.087630 0.457066
v -0.281126 0.085588 0.486366
v -0.281126 0.124772 0.457066
v -0.281126 0.090822 0.445115
v -0.281126 0.063136 0.461251
v -0.281126 0.124772 0.486366
v -0.281126 0.124772 0.422005
v -0.281126 0.063136 0.438198
v -0.281126 0.063136 0.491975
v -0.340230 0.767118 0.502964
v -0.294238 0.767118 0.502964
v -0.340230 0.767118 0.457066
v -0.294238 0.767118 0.457066
v 0.340234 0.742814 0.502964
v 0.340234 0.124772 0.486366
v 0.294242 0.742814 0.502964
v 0.294242 0.124772 0.486366
v 0.340234 0.742814 0.457066
v 0.340234 0.124772 0.457066
v 0.294242 0.742814 0.457066
v 0.294242 0.124772 0.457066
v 0.340234 0.085588 0.486366
v 0.294242 0.085588 0.486366
v 0.294242 0.124772 0.422005
v 0.340234 0.124772 0.422005
v 0.294242 0.090822 0.445115
v 0.340234 0.090822 0.445115
v 0.340234 0.005445 0.502964
v 0.294242 0.005445 0.502964
v 0.294242 -0.002473 0.465436
v 0.340234 -0.002473 0.465436
v 0.294242 0.005445 0.427209
v 0.340234 0.005445 0.427209
v 0.294242 0.063136 0.438198
v 0.294242 0.046538 0.461251
v 0.340234 0.063136 0.491975
v 0.340234 0.046538 0.461251
v 0.294242 0.063136 0.491975
v 0.340234 0.063136 0.438198
v 0.294242 0.141370 0.502964
v 0.294242 0.141370 0.457066
v 0.340234 0.141370 0.457066
v 0.340234 0.141370 0.502964
v 0.294242 0.087630 0.502964
v 0.340234 0.087630 0.502964
v 0.340234 0.141370 0.390628
v 0.340234 0.087630 0.427209
v 0.294242 0.087630 0.427209
v 0.294242 0.141370 0.390628
v 0.294242 0.046538 0.513231
v 0.340234 0.046538 0.416942
v 0.294242 0.046538 0.416942
v 0.340234 0.046538 0.513231
v 0.340234 0.063136 0.461251
v 0.294242 0.063136 0.461251
v 0.281129 0.085588 0.486366
v 0.281129 0.087630 0.457066
v 0.281129 0.124772 0.457066
v 0.281129 0.090822 0.445115
v 0.281129 0.063136 0.461251
v 0.281129 0.124772 0.486366
v 0.281129 0.124772 0.422005
v 0.281129 0.063136 0.491975
v 0.281129 0.063136 0.438198
v 0.353346 0.087630 0.457066
v 0.353346 0.085588 0.486366
v 0.353346 0.124772 0.457066
v 0.353346 0.090822 0.445115
v 0.353346 0.063136 0.461251
v 0.353346 0.124772 0.486366
v 0.353346 0.124772 0.422005
v 0.353346 0.063136 0.438198
v 0.353346 0.063136 0.491975
v 0.294242 0.767118 0.502964
v 0.340234 0.767118 0.502964
v 0.294242 0.767118 0.457066
v 0.340234 0.767118 0.457066
v -0.294238 0.901412 -0.457662
v -0.294238 0.124772 -0.474261
v -0.340230 0.901412 -0.457662
v -0.340230 0.124772 -0.474261
v -0.294238 0.901412 -0.503560
v -0.294238 0.124772 -0.503560
v -0.340230 0.901412 -0.503560
v -0.340230 0.124772 -0.503560
v -0.294238 0.085588 -0.474261
v -0.340230 0.085588 -0.474261
v -0.340230 0.124772 -0.538621
v -0.294238 0.124772 -0.538621
v -0.340230 0.090822 -0.515512
v -0.294238 0.090822 -0.515512
v -0.294238 0.005445 -0.457662
v -0.340230 0.005445 -0.457662
v -0.340230 -0.002473 -0.495190
v -0.294238 -0.002473 -0.495190
v -0.340230 0.005445 -0.533418
v -0.294238 0.005445 -0.533418
v -0.340230 0.063136 -0.522429
v -0.340230 0.046538 -0.499375
v -0.294238 0.063136 -0.468651
v -0.294238 0.046538 -0.499375
v -0.340230 0.063136 -0.468651
v -0.294238 0.063136 -0.522429
v -0.340230 0.141370 -0.457662
v -0.340230 0.141370 -0.503560
v -0.294238 0.141370 -0.503560
v -0.294238 0.141370 -0.457662
v -0.340230 0.087630 -0.457662
v -0.294238 0.087630 -0.457662
v -0.294238 0.141370 -0.569999
v -0.294238 0.087630 -0.533418
v -0.340230 0.087630 -0.533418
v -0.340230 0.141370 -0.569999
v -0.340230 0.046538 -0.447396
v -0.294238 0.046538 -0.543685
v -0.340230 0.046538 -0.543685
v -0.294238 0.046538 -0.447396
v -0.294238 0.063136 -0.499375
v -0.340230 0.063136 -0.499375
v -0.353343 0.085588 -0.474261
v -0.353343 0.087630 -0.503560
v -0.353343 0.124772 -0.503560
v -0.353343 0.090822 -0.515512
v -0.353343 0.063136 -0.499375
v -0.353343 0.124772 -0.474261
v -0.353343 0.124772 -0.538621
v -0.353343 0.063136 -0.468651
v -0.353343 0.063136 -0.522429
v -0.281126 0.087630 -0.503560
v -0.281126 0.085588 -0.474261
v -0.281126 0.124772 -0.503560
v -0.281126 0.090822 -0.515512
v -0.281126 0.063136 -0.499375
v -0.281126 0.124772 -0.474261
v -0.281126 0.124772 -0.538621
v -0.281126 0.063136 -0.522429
v -0.281126 0.063136 -0.468651
v -0.340230 0.923930 -0.457662
v -0.294238 0.923930 -0.457662
v -0.340230 0.923930 -0.503560
v -0.294238 0.949237 -0.503560
v 0.340234 0.901412 -0.457662
v 0.340234 0.124772 -0.474261
v 0.294242 0.901412 -0.457662
v 0.294242 0.124772 -0.474261
v 0.340234 0.901412 -0.503560
v 0.340234 0.124772 -0.503560
v 0.294242 0.901412 -0.503560
v 0.294242 0.124772 -0.503560
v 0.340234 0.085588 -0.474261
v 0.294242 0.085588 -0.474261
v 0.294242 0.124772 -0.538621
v 0.340234 0.124772 -0.538621
v 0.294242 0.090822 -0.515512
v 0.340234 0.090822 -0.515512
v 0.340234 0.005445 -0.457662
v 0.294242 0.005445 -0.457662
v 0.294242 -0.002473 -0.495190
v 0.340234 -0.002473 -0.495190
v 0.294242 0.005445 -0.533418
v 0.340234 0.005445 -0.533418
v 0.294242 0.063136 -0.522429
v 0.294242 0.046538 -0.499375
v 0.340234 0.063136 -0.468651
v 0.340234 0.046538 -0.499375
v 0.294242 0.063136 -0.468651
v 0.340234 0.063136 -0.522429
v 0.294242 0.141370 -0.457662
v 0.294242 0.141370 -0.503560
v 0.340234 0.141370 -0.503560
v 0.340234 0.141370 -0.457662
v 0.294242 0.087630 -0.457662
v 0.340234 0.087630 -0.457662
v 0.340234 0.141370 -0.569999
v 0.340234 0.087630 -0.533418
v 0.294242 0.087630 -0.533418
v 0.294242 0.141370 -0.569999
v 0.294242 0.046538 -0.447396
v 0.340234 0.046538 -0.543685
v 0.294242 0.046538 -0.543685
v 0.340234 0.046538 -0.447396
v 0.340234 0.063136 -0.499375
v 0.294242 0.063136 -0.499375
v 0.281129 0.085588 -0.474261
v 0.281129 0.087630 -0.503560
v 0.281129 0.124772 -0.503560
v 0.281129 0.090822 -0.515512
v 0.281129 0.063136 -0.499375
v 0.281129 0.124772 -0.474261
v 0.281129 0.124772 -0.538621
v 0.281129 0.063136 -0.468651
v 0.281129 0.063136 -0.522429
v 0.353346 0.087630 -0.503560
v 0.353346 0.085588 -0.474261
v 0.353346 0.124772 -0.503560
v 0.353346 0.090822 -0.515512
v 0.353346 0.063136 -0.499375
v 0.353346 0.124772 -0.474261
v 0.353346 0.124772 -0.538621
v 0.353346 0.063136 -0.522429
v 0.353346 0.063136 -0.468651
v 0.294242 0.923930 -0.457662
v 0.340234 0.923930 -0.457662
v 0.294242 0.949237 -0.503560
v 0.340234 0.923930 -0.503560
v -0.294238 0.921350 -0.606811
v -0.340230 0.921350 -0.606811
v -0.294238 0.981292 -0.606811
v -0.340230 0.981292 -0.606811
v 0.340234 0.921350 -0.606811
v 0.294242 0.921350 -0.606811
v 0.340234 0.981292 -0.606811
v 0.294242 0.981292 -0.606811
v -0.294238 0.743131 -0.457662
v -0.340230 0.743131 -0.457662
v -0.340230 0.743131 -0.503560
v -0.294238 0.743131 -0.503560
v 0.340234 0.743131 -0.457662
v 0.294242 0.743131 -0.457662
v 0.294242 0.743131 -0.503560
v 0.340234 0.743131 -0.503560
v -0.340230 0.766985 -0.457662
v -0.340230 0.766985 -0.503560
v -0.294238 0.766985 -0.503560
v -0.294238 0.766985 -0.457662
v 0.294242 0.766985 -0.457662
v 0.294242 0.766985 -0.503560
v 0.340234 0.766985 -0.503560
v 0.340234 0.766985 -0.457662
vn -0.0000 -0.0000 1.0000
vn -1.0000 -0.0000 -0.0000
vn -0.0000 -0.0000 -1.0000
vn 1.0000 -0.0000 -0.0000
vn -0.0000 1.0000 -0.0000
vn -0.0000 0.1221 0.9925
vn -0.0000 -0.5627 -0.8267
vn -0.0000 -1.0000 0.0018
vn -0.0000 -0.9785 0.2065
vn -0.0000 -0.9792 -0.2028
vn -0.0000 -0.2424 0.9702
vn -0.0000 -0.2424 -0.9702
vn -0.0000 0.2424 -0.9702
vn -0.0000 -1.0000 -0.0000
vn -0.0000 0.2424 0.9702
vn -0.0000 1.0000 -0.0001
vn -0.2564 0.9318 0.2569
vn -0.1302 0.9176 0.3755
vn -0.1246 0.9230 0.3642
vn -0.2516 0.9146 0.3166
vn 0.1302 0.9176 0.3755
vn 0.1246 0.9230 0.3642
vn 0.2564 0.9318 0.2569
vn 0.2516 0.9146 0.3166
vn 0.1235 0.9308 0.3440
vn -0.1235 0.9308 0.3440
vn -0.0000 -0.9919 -0.1269
vn 0.2448 0.8897 0.3853
vn -0.0000 -0.9819 -0.1896
vn -0.2448 0.8897 0.3853
vn -0.0000 -1.0000 -0.0003
vt 0.606431 0.953720
vt 0.589684 0.953720
vt 0.589684 0.734721
vt 0.606431 0.734721
vt 0.572972 0.953720
vt 0.572972 0.734721
vt 0.556225 0.953720
vt 0.556225 0.734721
vt 0.623143 0.953720
vt 0.623143 0.734721
vt 0.722451 0.949000
vt 0.705738 0.949000
vt 0.705738 0.734720
vt 0.722451 0.734720
vt 0.160877 0.859607
vt 0.151126 0.873222
vt 0.131458 0.859135
vt 0.141210 0.845520
vt 0.374231 0.882413
vt 0.387991 0.869360
vt 0.395537 0.883021
vt 0.387217 0.893201
vt 0.142588 0.787886
vt 0.142187 0.804627
vt 0.122625 0.804160
vt 0.123025 0.787418
vt 0.112214 0.845351
vt 0.121966 0.831736
vt 0.408263 0.916649
vt 0.396527 0.927917
vt 0.388815 0.914188
vt 0.397283 0.903881
vt 0.407748 0.895063
vt 0.376626 0.902156
vt 0.421511 0.902824
vt 0.362783 0.894209
vt 0.406628 0.871776
vt 0.418838 0.883818
vt 0.377734 0.925413
vt 0.365545 0.913381
vt 0.366653 0.936639
vt 0.354464 0.924607
vt 0.417718 0.860531
vt 0.429928 0.872573
vt 0.135746 0.821191
vt 0.136001 0.810525
vt 0.141788 0.821335
vt 0.096649 0.865466
vt 0.106665 0.861792
vt 0.108746 0.867466
vt 0.093056 0.873222
vt 0.121737 0.810184
vt 0.091735 0.852071
vt 0.086317 0.854851
vt 0.118651 0.857395
vt 0.106493 0.848687
vt 0.123284 0.825246
vt 0.135441 0.833954
vt 0.425060 0.920046
vt 0.420493 0.912776
vt 0.429871 0.916128
vt 0.358297 0.875068
vt 0.363902 0.884170
vt 0.354464 0.880700
vt 0.406454 0.926897
vt 0.415397 0.932513
vt 0.409800 0.936251
vt 0.378149 0.870290
vt 0.371001 0.865720
vt 0.374909 0.860997
vt 0.369967 0.878086
vt 0.412559 0.920942
vt 0.276160 0.672336
vt 0.264773 0.669934
vt 0.265580 0.665520
vt 0.277058 0.668077
vt 0.280907 0.432653
vt 0.281609 0.446423
vt 0.277119 0.446697
vt 0.276102 0.432515
vt 0.265847 0.420299
vt 0.276581 0.419444
vt 0.276946 0.424024
vt 0.266076 0.424919
vt 0.254855 0.668542
vt 0.255454 0.664112
vt 0.266301 0.637457
vt 0.274342 0.637450
vt 0.274371 0.642023
vt 0.266186 0.642117
vt 0.281609 0.424423
vt 0.254961 0.435254
vt 0.253897 0.425647
vt 0.257990 0.425028
vt 0.260074 0.435697
vt 0.250804 0.663879
vt 0.251499 0.649982
vt 0.256285 0.649894
vt 0.266930 0.448241
vt 0.264779 0.434181
vt 0.255410 0.451007
vt 0.277790 0.451175
vt 0.267784 0.452676
vt 0.256398 0.455274
vt 0.250804 0.449680
vt 0.257898 0.420504
vt 0.267642 0.651466
vt 0.272398 0.652996
vt 0.255267 0.641487
vt 0.255513 0.636882
vt 0.277569 0.652886
vt 0.281123 0.666925
vt 0.250804 0.641949
vt 0.279050 0.642704
vt 0.589684 0.962570
vt 0.606431 0.962570
vt 0.606431 0.979282
vt 0.589684 0.979282
vt 0.572972 0.962570
vt 0.816550 0.704969
vt 0.799803 0.704974
vt 0.799693 0.371901
vt 0.816440 0.371895
vt 0.664441 0.953720
vt 0.647694 0.953720
vt 0.647694 0.734721
vt 0.664441 0.734721
vt 0.630982 0.953720
vt 0.630982 0.734721
vt 0.697900 0.953720
vt 0.681153 0.953720
vt 0.681153 0.734721
vt 0.697900 0.734721
vt 0.664441 0.962570
vt 0.647694 0.962570
vt 0.068727 0.787418
vt 0.078479 0.801032
vt 0.058812 0.815119
vt 0.049060 0.801505
vt 0.457534 0.882413
vt 0.471293 0.869360
vt 0.478840 0.883021
vt 0.470520 0.893201
vt 0.059789 0.856012
vt 0.060190 0.872754
vt 0.040627 0.873221
vt 0.040227 0.856480
vt 0.039568 0.828903
vt 0.029816 0.815288
vt 0.491565 0.916649
vt 0.479829 0.927917
vt 0.472117 0.914188
vt 0.480585 0.903881
vt 0.491050 0.895063
vt 0.459928 0.902156
vt 0.504813 0.902824
vt 0.446086 0.894209
vt 0.489930 0.871776
vt 0.502140 0.883818
vt 0.461037 0.925413
vt 0.448847 0.913381
vt 0.449956 0.936639
vt 0.437766 0.924607
vt 0.501020 0.860531
vt 0.513231 0.872573
vt 0.024267 0.798847
vt 0.014251 0.795173
vt 0.010658 0.787418
vt 0.026348 0.793173
vt 0.053603 0.850114
vt 0.053348 0.839449
vt 0.059390 0.839304
vt 0.009337 0.808568
vt 0.003919 0.805789
vt 0.039339 0.850455
vt 0.053043 0.826686
vt 0.040886 0.835393
vt 0.024095 0.811952
vt 0.036252 0.803244
vt 0.508363 0.920046
vt 0.503795 0.912776
vt 0.513173 0.916128
vt 0.441600 0.875068
vt 0.447205 0.884170
vt 0.437766 0.880700
vt 0.489756 0.926897
vt 0.498699 0.932513
vt 0.493103 0.936251
vt 0.461451 0.870290
vt 0.454304 0.865720
vt 0.458211 0.860997
vt 0.453269 0.878086
vt 0.495861 0.920942
vt 0.256315 0.593612
vt 0.267665 0.596136
vt 0.266825 0.600541
vt 0.255371 0.597856
vt 0.280902 0.476287
vt 0.281603 0.490047
vt 0.277116 0.490322
vt 0.276102 0.476147
vt 0.265907 0.463908
vt 0.276588 0.463112
vt 0.276946 0.467670
vt 0.266106 0.468537
vt 0.277546 0.597574
vt 0.276927 0.601988
vt 0.266262 0.628572
vt 0.258247 0.628679
vt 0.258187 0.624120
vt 0.266316 0.623946
vt 0.281603 0.468068
vt 0.254958 0.478876
vt 0.253890 0.469257
vt 0.257987 0.468636
vt 0.260076 0.479319
vt 0.281558 0.602224
vt 0.280855 0.616063
vt 0.276094 0.616157
vt 0.266931 0.491866
vt 0.264786 0.477803
vt 0.255412 0.494634
vt 0.277788 0.494798
vt 0.267786 0.496300
vt 0.256400 0.498900
vt 0.250804 0.493308
vt 0.257891 0.464077
vt 0.264747 0.614656
vt 0.259952 0.613186
vt 0.277128 0.624500
vt 0.276908 0.629044
vt 0.254895 0.613468
vt 0.250804 0.599163
vt 0.281558 0.624032
vt 0.253572 0.623512
vt 0.664441 0.979282
vt 0.647694 0.979282
vt 0.321228 0.981168
vt 0.304515 0.981168
vt 0.304515 0.766889
vt 0.321228 0.766889
vt 0.681153 0.962570
vt 0.731300 0.949000
vt 0.731300 0.734720
vt 0.756863 0.949000
vt 0.748013 0.949000
vt 0.748013 0.734720
vt 0.756862 0.734720
vt 0.925643 0.591008
vt 0.908896 0.591008
vt 0.908896 0.371893
vt 0.925643 0.371893
vt 0.892184 0.591008
vt 0.892184 0.371893
vt 0.875437 0.591008
vt 0.875437 0.371893
vt 0.858724 0.591008
vt 0.858724 0.371893
vt 0.875079 0.977653
vt 0.876523 0.961399
vt 0.884591 0.961836
vt 0.883036 0.978360
vt 0.429024 0.839078
vt 0.419272 0.852693
vt 0.399605 0.838606
vt 0.409357 0.824991
vt 0.188483 0.893246
vt 0.202242 0.880193
vt 0.209789 0.893854
vt 0.201469 0.904033
vt 0.410735 0.767357
vt 0.410334 0.784099
vt 0.390772 0.783631
vt 0.391172 0.766889
vt 0.281822 0.580814
vt 0.277199 0.581225
vt 0.276339 0.572775
vt 0.281098 0.572654
vt 0.281822 0.558768
vt 0.277176 0.558525
vt 0.380361 0.824822
vt 0.390113 0.811207
vt 0.258297 0.512133
vt 0.260261 0.522806
vt 0.255156 0.522301
vt 0.254205 0.512703
vt 0.281819 0.533767
vt 0.277172 0.534011
vt 0.276332 0.519758
vt 0.281093 0.519879
vt 0.222515 0.927482
vt 0.210778 0.938749
vt 0.203067 0.925021
vt 0.211534 0.914714
vt 0.221999 0.905896
vt 0.190877 0.912988
vt 0.235763 0.913656
vt 0.177035 0.905042
vt 0.220879 0.882609
vt 0.233090 0.894651
vt 0.191986 0.936246
vt 0.179797 0.924214
vt 0.180905 0.947472
vt 0.168716 0.935439
vt 0.231969 0.871364
vt 0.244180 0.883406
vt 0.255163 0.570246
vt 0.260270 0.569738
vt 0.258312 0.580421
vt 0.254217 0.579852
vt 0.277795 0.554052
vt 0.266984 0.557094
vt 0.267798 0.552668
vt 0.277193 0.511303
vt 0.281819 0.511714
vt 0.403893 0.800662
vt 0.404148 0.789996
vt 0.409935 0.800806
vt 0.364796 0.844937
vt 0.374812 0.841263
vt 0.376893 0.846937
vt 0.361203 0.852693
vt 0.389884 0.789655
vt 0.359882 0.831542
vt 0.354464 0.834322
vt 0.386797 0.836866
vt 0.374640 0.828159
vt 0.391430 0.804717
vt 0.403588 0.813425
vt 0.239312 0.930878
vt 0.234744 0.923609
vt 0.244122 0.926961
vt 0.172549 0.885901
vt 0.178154 0.895003
vt 0.168716 0.891533
vt 0.220705 0.937730
vt 0.229648 0.943345
vt 0.224052 0.947084
vt 0.192400 0.881122
vt 0.185253 0.876553
vt 0.189161 0.871830
vt 0.184218 0.888919
vt 0.226810 0.931775
vt 0.256320 0.542352
vt 0.255392 0.538059
vt 0.266981 0.535445
vt 0.267796 0.539870
vt 0.266174 0.507498
vt 0.266360 0.512105
vt 0.258251 0.507623
vt 0.276869 0.506738
vt 0.250804 0.555875
vt 0.255392 0.554483
vt 0.266218 0.585054
vt 0.258273 0.584944
vt 0.266390 0.580429
vt 0.250804 0.536670
vt 0.256319 0.550190
vt 0.276874 0.585773
vt 0.264982 0.521339
vt 0.264995 0.571201
vt 0.903789 0.961669
vt 0.900015 0.981220
vt 0.897662 0.989378
vt 0.943934 0.976816
vt 0.935960 0.996081
vt 0.884959 0.746761
vt 0.903905 0.746843
vt 0.881581 0.986035
vt 0.878888 0.223034
vt 0.862141 0.223034
vt 0.862141 0.003919
vt 0.878888 0.003919
vt 0.929059 0.223034
vt 0.912347 0.223034
vt 0.912347 0.003919
vt 0.929059 0.003919
vt 0.895600 0.223034
vt 0.895600 0.003919
vt 0.876789 0.747176
vt 0.501671 0.766889
vt 0.511422 0.780504
vt 0.491755 0.794591
vt 0.482003 0.780976
vt 0.188483 0.809300
vt 0.202242 0.796247
vt 0.209789 0.809908
vt 0.201469 0.820087
vt 0.492733 0.835483
vt 0.493133 0.852225
vt 0.473571 0.852693
vt 0.473170 0.835951
vt 0.266537 0.680739
vt 0.277205 0.680174
vt 0.277463 0.684728
vt 0.266648 0.685366
vt 0.260415 0.695996
vt 0.255393 0.711247
vt 0.250804 0.709811
vt 0.255303 0.695439
vt 0.472511 0.808374
vt 0.462759 0.794760
vt 0.281907 0.753794
vt 0.277460 0.754248
vt 0.276451 0.745890
vt 0.281225 0.745797
vt 0.281907 0.731881
vt 0.277250 0.731653
vt 0.222515 0.843536
vt 0.210778 0.854803
vt 0.203067 0.841075
vt 0.211534 0.830768
vt 0.221999 0.821950
vt 0.190877 0.829042
vt 0.235763 0.829710
vt 0.177035 0.821096
vt 0.220879 0.798663
vt 0.233090 0.810705
vt 0.191986 0.852300
vt 0.179796 0.840268
vt 0.180905 0.863526
vt 0.168716 0.851494
vt 0.231969 0.787418
vt 0.244180 0.799460
vt 0.258564 0.685279
vt 0.254455 0.685806
vt 0.267854 0.713168
vt 0.267060 0.708702
vt 0.277255 0.707335
vt 0.277844 0.711801
vt 0.281914 0.707108
vt 0.276457 0.693093
vt 0.281234 0.693185
vt 0.281914 0.685181
vt 0.457210 0.778319
vt 0.447194 0.774645
vt 0.443601 0.766889
vt 0.459292 0.772645
vt 0.486546 0.829585
vt 0.486291 0.818920
vt 0.492333 0.818775
vt 0.442281 0.788040
vt 0.436862 0.785260
vt 0.472282 0.829926
vt 0.485986 0.806157
vt 0.473829 0.814865
vt 0.457038 0.791423
vt 0.469196 0.782715
vt 0.239312 0.846932
vt 0.234744 0.839663
vt 0.244122 0.843015
vt 0.172549 0.801955
vt 0.178154 0.811057
vt 0.168716 0.807587
vt 0.220705 0.853784
vt 0.229648 0.859399
vt 0.224052 0.863138
vt 0.192400 0.797176
vt 0.185253 0.792607
vt 0.189161 0.787884
vt 0.184218 0.804973
vt 0.226810 0.847829
vt 0.255295 0.743543
vt 0.260409 0.742989
vt 0.258548 0.753709
vt 0.254439 0.753179
vt 0.258580 0.680751
vt 0.266556 0.758247
vt 0.266651 0.753630
vt 0.277208 0.758794
vt 0.250804 0.729167
vt 0.255394 0.727733
vt 0.258556 0.758260
vt 0.256295 0.723410
vt 0.267855 0.725819
vt 0.267058 0.730284
vt 0.256291 0.715572
vt 0.277792 0.538484
vt 0.265154 0.694572
vt 0.265150 0.744415
vt 0.883211 0.730325
vt 0.900189 0.727279
vt 0.875391 0.731064
vt 0.943194 0.748505
vt 0.943241 0.960165
vt 0.881667 0.722299
vt 0.898028 0.719153
vt 0.936121 0.712812
vt 0.943934 0.731967
vt 0.860081 0.747155
vt 0.859815 0.961379
vt 0.821534 0.961331
vt 0.821514 0.978074
vt 0.799693 0.978047
vt 0.799714 0.961304
vt 0.821821 0.730366
vt 0.821800 0.747108
vt 0.799980 0.747081
vt 0.800000 0.730339
vt 0.860101 0.730413
vt 0.859794 0.978121
vt 0.837446 0.336994
vt 0.828760 0.336993
vt 0.828706 0.003919
vt 0.837556 0.003921
vt 0.812013 0.336996
vt 0.803328 0.337000
vt 0.803110 0.003926
vt 0.811959 0.003922
vt 0.825236 0.704967
vt 0.825289 0.371893
vt 0.841982 0.704970
vt 0.842036 0.371896
vt 0.850668 0.704974
vt 0.850886 0.371901
vt 0.854193 0.337000
vt 0.854303 0.003926
vt 0.329913 0.981168
vt 0.329913 0.766889
vt 0.892184 0.599694
vt 0.875437 0.599694
vt 0.908896 0.599694
vt 0.895600 0.231720
vt 0.878888 0.231720
vt 0.912347 0.231720
vt 0.346626 0.981168
vt 0.346626 0.766889
vt 0.295829 0.981168
vt 0.295829 0.766889
vt 0.925643 0.648642
vt 0.908896 0.648642
vt 0.925643 0.599694
vt 0.892184 0.648642
vt 0.875437 0.648642
vt 0.858724 0.648642
vt 0.858724 0.599694
vt 0.878888 0.280668
vt 0.862141 0.280668
vt 0.862141 0.231720
vt 0.929059 0.280668
vt 0.912347 0.280668
vt 0.929059 0.231720
vt 0.895600 0.280668
vt 0.277840 0.727190
s 1
f 1/1/1 3/2/1 27/3/1 30/4/1
f 3/2/2 7/5/2 28/6/2 27/3/2
f 7/5/3 5/7/3 29/8/3 28/6/3
f 5/9/4 1/1/4 30/4/4 29/10/4
f 125/11/5 127/12/5 64/13/5 62/14/5
f 28/15/5 29/16/5 33/17/5 36/18/5
f 24/19/4 40/20/4 15/21/4 18/22/4
f 30/23/1 27/24/1 31/25/6 32/26/6
f 36/18/7 33/17/7 34/27/7 35/28/7
f 22/29/2 39/30/2 19/31/2 17/32/2
f 17/32/8 18/22/8 15/21/9 16/33/9
f 18/22/8 17/32/8 19/31/10 20/34/10
f 37/35/2 22/29/2 17/32/2 16/33/2
f 38/36/4 24/19/4 18/22/4 20/34/4
f 40/37/1 37/38/1 16/33/11 15/21/11
f 39/39/3 38/40/3 20/34/12 19/31/12
f 35/41/13 34/42/13 38/40/3 39/39/3
f 32/43/6 31/44/6 37/38/1 40/37/1
f 8/45/2 4/46/2 27/24/2 28/47/2
f 2/48/4 6/49/4 29/50/4 30/51/4
f 4/46/2 10/52/2 31/25/2 27/24/2
f 9/53/4 2/48/4 30/51/4 32/54/4
f 12/55/4 14/56/4 34/27/4 33/17/4
f 13/57/2 11/58/2 36/18/2 35/28/2
f 6/49/4 12/55/4 33/17/4 29/50/4
f 11/58/2 8/45/2 28/47/2 36/18/2
f 10/59/2 25/60/2 37/35/2 31/61/2
f 14/62/4 26/63/4 38/36/4 34/64/4
f 21/65/2 13/66/2 35/67/2 39/30/2
f 23/68/4 9/69/4 32/70/4 40/20/4
f 26/63/4 41/71/4 24/19/4 38/36/4
f 25/60/2 42/72/2 22/29/2 37/35/2
f 42/72/2 21/65/2 39/30/2 22/29/2
f 41/71/4 23/68/4 40/20/4 24/19/4
f 12/73/5 6/74/5 54/75/5 58/76/5
f 10/77/6 4/78/1 48/79/1 43/80/6
f 42/81/14 25/82/14 50/83/14 47/84/14
f 6/74/5 2/85/5 57/86/5 54/75/5
f 41/87/14 26/88/14 59/89/14 56/90/14
f 25/91/15 10/77/6 43/80/6 50/83/15
f 13/92/13 21/93/13 51/94/13 46/95/13
f 2/96/1 9/97/6 53/98/6 57/86/1
f 48/79/2 45/99/2 44/100/2 43/80/2
f 44/100/2 45/99/2 49/101/2 46/95/2
f 43/80/2 44/100/2 47/84/2 50/83/2
f 44/100/2 46/95/2 51/94/2 47/84/2
f 4/102/5 8/103/5 45/99/5 48/79/5
f 8/103/5 11/104/5 49/101/5 45/99/5
f 11/105/7 13/92/7 46/95/7 49/101/7
f 21/106/14 42/81/14 47/84/14 51/94/14
f 54/75/4 57/86/4 53/98/4 52/107/4
f 54/75/4 52/107/4 55/108/4 58/76/4
f 55/108/4 52/107/4 56/90/4 59/89/4
f 52/107/4 53/98/4 60/109/4 56/90/4
f 23/110/14 41/87/14 56/90/14 60/109/14
f 14/111/7 12/112/7 58/76/7 55/108/7
f 9/97/6 23/113/15 60/109/15 53/98/6
f 26/114/13 14/111/13 55/108/13 59/89/13
f 61/115/5 62/116/5 64/117/5 63/118/16
f 7/5/2 3/2/2 61/115/2 63/119/2
f 3/2/1 1/1/1 62/116/1 61/115/1
f 280/120/16 277/121/16 127/122/5 128/123/16
f 65/124/1 67/125/1 91/126/1 94/127/1
f 67/125/2 71/128/2 92/129/2 91/126/2
f 71/130/3 69/131/3 93/132/3 92/133/3
f 69/131/4 65/124/4 94/127/4 93/132/4
f 67/125/1 65/124/1 126/134/1 125/135/1
f 92/136/5 93/137/5 97/138/5 100/139/5
f 88/140/4 104/141/4 79/142/4 82/143/4
f 94/144/1 91/145/1 95/146/6 96/147/6
f 100/139/7 97/138/7 98/148/7 99/149/7
f 86/150/2 103/151/2 83/152/2 81/153/2
f 81/153/8 82/143/8 79/142/9 80/154/9
f 82/143/8 81/153/8 83/152/10 84/155/10
f 101/156/2 86/150/2 81/153/2 80/154/2
f 102/157/4 88/140/4 82/143/4 84/155/4
f 104/158/1 101/159/1 80/154/11 79/142/11
f 103/160/3 102/161/3 84/155/12 83/152/12
f 99/162/13 98/163/13 102/161/3 103/160/3
f 96/164/6 95/165/6 101/159/1 104/158/1
f 72/166/2 68/167/2 91/168/2 92/169/2
f 66/170/4 70/171/4 93/172/4 94/144/4
f 68/167/2 74/173/2 95/174/2 91/168/2
f 73/175/4 66/170/4 94/144/4 96/147/4
f 76/176/4 78/177/4 98/148/4 97/138/4
f 77/178/2 75/179/2 100/139/2 99/149/2
f 70/171/4 76/176/4 97/138/4 93/172/4
f 75/179/2 72/166/2 92/169/2 100/139/2
f 74/180/2 89/181/2 101/156/2 95/182/2
f 78/183/4 90/184/4 102/157/4 98/185/4
f 85/186/2 77/187/2 99/188/2 103/151/2
f 87/189/4 73/190/4 96/191/4 104/141/4
f 90/184/4 105/192/4 88/140/4 102/157/4
f 89/181/2 106/193/2 86/150/2 101/156/2
f 106/193/2 85/186/2 103/151/2 86/150/2
f 105/192/4 87/189/4 104/141/4 88/140/4
f 76/194/5 70/195/5 118/196/5 122/197/5
f 74/198/6 68/199/1 112/200/1 107/201/6
f 106/202/14 89/203/14 114/204/14 111/205/14
f 70/195/5 66/206/5 121/207/5 118/196/5
f 105/208/14 90/209/14 123/210/14 120/211/14
f 89/212/15 74/198/6 107/201/6 114/204/15
f 77/213/13 85/214/13 115/215/13 110/216/13
f 66/217/1 73/218/6 117/219/6 121/207/1
f 112/200/2 109/220/2 108/221/2 107/201/2
f 108/221/2 109/220/2 113/222/2 110/216/2
f 107/201/2 108/221/2 111/205/2 114/204/2
f 108/221/2 110/216/2 115/215/2 111/205/2
f 68/223/5 72/224/5 109/220/5 112/200/5
f 72/224/5 75/225/5 113/222/5 109/220/5
f 75/226/7 77/213/7 110/216/7 113/222/7
f 85/227/14 106/202/14 111/205/14 115/215/14
f 118/196/4 121/207/4 117/219/4 116/228/4
f 118/196/4 116/228/4 119/229/4 122/197/4
f 119/229/4 116/228/4 120/211/4 123/210/4
f 116/228/4 117/219/4 124/230/4 120/211/4
f 87/231/14 105/208/14 120/211/14 124/230/14
f 78/232/7 76/233/7 122/197/7 119/229/7
f 73/218/6 87/234/15 124/230/15 117/219/6
f 90/235/13 78/232/13 119/229/13 123/210/13
f 125/135/5 126/134/5 128/236/16 127/237/5
f 271/238/14 270/239/14 265/240/14 268/241/14
f 65/124/4 69/131/4 128/242/4 126/134/4
f 67/243/1 125/11/1 62/14/1 1/244/1
f 127/245/3 71/246/3 5/247/3 64/248/3
f 71/246/14 67/243/14 1/244/14 5/247/14
f 265/249/1 266/250/1 155/251/1 158/252/1
f 266/250/2 267/253/2 156/254/2 155/251/2
f 267/253/3 268/255/3 157/256/3 156/254/3
f 268/255/4 265/257/4 158/258/4 157/256/4
f 131/259/1 129/260/1 190/261/1 189/262/1
f 156/263/5 157/264/5 161/265/5 164/266/5
f 152/267/4 168/268/4 143/269/4 146/270/4
f 158/271/1 155/272/1 159/273/6 160/274/6
f 151/275/15 188/276/15 181/277/6 137/278/6
f 130/279/1 137/278/6 181/277/6 185/280/1
f 164/266/7 161/265/7 162/281/7 163/282/7
f 179/283/13 174/284/13 141/285/13 149/286/13
f 132/287/1 176/288/1 171/289/6 138/290/6
f 150/291/2 167/292/2 147/293/2 145/294/2
f 145/294/8 146/270/8 143/269/9 144/295/9
f 146/270/8 145/294/8 147/293/10 148/296/10
f 165/297/2 150/291/2 145/294/2 144/295/2
f 166/298/4 152/267/4 146/270/4 148/296/4
f 168/299/1 165/300/1 144/295/11 143/269/11
f 167/301/3 166/302/3 148/296/12 147/293/12
f 163/303/13 162/304/13 166/302/3 167/301/3
f 160/305/6 159/306/6 165/300/1 168/299/1
f 142/307/13 183/308/13 187/309/13 154/310/13
f 130/311/5 185/280/5 182/312/5 134/313/5
f 138/290/6 171/289/6 178/314/15 153/315/15
f 136/316/2 132/317/2 155/272/2 156/318/2
f 130/319/4 134/320/4 157/321/4 158/322/4
f 132/317/2 138/323/2 159/273/2 155/272/2
f 137/324/4 130/319/4 158/322/4 160/325/4
f 140/326/4 142/327/4 162/281/4 161/265/4
f 141/328/2 139/329/2 164/266/2 163/282/2
f 134/320/4 140/326/4 161/265/4 157/321/4
f 139/329/2 136/316/2 156/318/2 164/266/2
f 138/330/2 153/331/2 165/297/2 159/332/2
f 142/333/4 154/334/4 166/298/4 162/335/4
f 149/336/2 141/337/2 163/338/2 167/292/2
f 151/339/4 137/340/4 160/341/4 168/268/4
f 154/334/4 169/342/4 152/267/4 166/298/4
f 153/331/2 170/343/2 150/291/2 165/297/2
f 170/343/2 149/336/2 167/292/2 150/291/2
f 169/342/4 151/339/4 168/268/4 152/267/4
f 139/344/5 177/345/5 173/346/5 136/347/5
f 170/348/14 175/349/14 179/283/14 149/350/14
f 170/348/14 153/351/14 178/314/14 175/349/14
f 140/352/7 186/353/7 183/308/7 142/307/7
f 169/354/14 154/355/14 187/309/14 184/356/14
f 174/284/7 177/345/7 139/357/7 141/285/7
f 140/358/5 134/313/5 182/312/5 186/353/5
f 169/354/14 184/356/14 188/276/14 151/359/14
f 176/288/2 173/346/2 172/360/2 171/289/2
f 172/360/2 173/346/2 177/345/2 174/284/2
f 171/289/2 172/360/2 175/349/2 178/314/2
f 172/360/2 174/284/2 179/283/2 175/349/2
f 182/312/4 185/280/4 181/277/4 180/361/4
f 182/312/4 180/361/4 183/308/4 186/353/4
f 183/308/4 180/361/4 184/356/4 187/309/4
f 180/361/4 181/277/4 188/276/4 184/356/4
f 189/262/17 190/261/18 192/362/19 191/363/20
f 135/364/2 191/363/2 260/365/2 258/366/2
f 253/367/21 255/368/22 192/362/19 190/261/18
f 135/364/2 131/369/2 189/262/2 191/363/2
f 269/370/1 270/371/1 219/372/1 222/373/1
f 270/374/2 271/375/2 220/376/2 219/377/2
f 271/375/3 272/378/3 221/379/3 220/376/3
f 272/378/4 269/370/4 222/373/4 221/379/4
f 195/380/1 253/367/1 190/261/1 129/260/1
f 220/381/5 221/382/5 225/383/5 228/384/5
f 216/385/4 232/386/4 207/387/4 210/388/4
f 222/389/1 219/390/1 223/391/6 224/392/6
f 234/393/14 217/394/14 242/395/14 239/396/14
f 238/397/7 241/398/7 203/399/7 205/400/7
f 228/384/7 225/383/7 226/401/7 227/402/7
f 215/403/15 252/404/15 245/405/6 201/406/6
f 194/407/1 201/406/6 245/405/6 249/408/1
f 214/409/2 231/410/2 211/411/2 209/412/2
f 209/412/8 210/388/8 207/387/9 208/413/9
f 210/388/8 209/412/8 211/411/10 212/414/10
f 229/415/2 214/409/2 209/412/2 208/413/2
f 230/416/4 216/385/4 210/388/4 212/414/4
f 232/417/1 229/418/1 208/413/11 207/387/11
f 231/419/3 230/420/3 212/414/12 211/411/12
f 227/421/13 226/422/13 230/420/3 231/419/3
f 224/423/6 223/424/6 229/418/1 232/417/1
f 243/425/13 238/397/13 205/400/13 213/426/13
f 200/427/5 237/428/5 240/429/5 196/430/5
f 196/431/1 240/429/1 235/432/6 202/433/6
f 202/433/6 235/432/6 242/395/15 217/434/15
f 200/435/2 196/436/2 219/437/2 220/438/2
f 194/439/4 198/440/4 221/441/4 222/389/4
f 196/436/2 202/442/2 223/443/2 219/437/2
f 201/444/4 194/439/4 222/389/4 224/392/4
f 204/445/4 206/446/4 226/401/4 225/383/4
f 205/447/2 203/448/2 228/384/2 227/402/2
f 198/440/4 204/445/4 225/383/4 221/441/4
f 203/448/2 200/435/2 220/438/2 228/384/2
f 202/449/2 217/450/2 229/415/2 223/451/2
f 206/452/4 218/453/4 230/416/4 226/454/4
f 213/455/2 205/456/2 227/457/2 231/410/2
f 215/458/4 201/459/4 224/460/4 232/386/4
f 218/453/4 233/461/4 216/385/4 230/416/4
f 217/450/2 234/462/2 214/409/2 229/415/2
f 234/462/2 213/455/2 231/410/2 214/409/2
f 233/461/4 215/458/4 232/386/4 216/385/4
f 206/463/13 247/464/13 251/465/13 218/466/13
f 234/393/14 239/396/14 243/425/14 213/467/14
f 233/468/14 248/469/14 252/404/14 215/470/14
f 204/471/7 250/472/7 247/464/7 206/463/7
f 233/468/14 218/473/14 251/465/14 248/469/14
f 204/474/5 198/475/5 246/476/5 250/472/5
f 203/477/5 241/398/5 237/428/5 200/427/5
f 136/347/5 173/346/5 176/288/5 132/478/5
f 240/429/2 237/428/2 236/479/2 235/432/2
f 236/479/2 237/428/2 241/398/2 238/397/2
f 235/432/2 236/479/2 239/396/2 242/395/2
f 236/479/2 238/397/2 243/425/2 239/396/2
f 246/476/4 249/408/4 245/405/4 244/480/4
f 246/476/4 244/480/4 247/464/4 250/472/4
f 247/464/4 244/480/4 248/469/4 251/465/4
f 244/480/4 245/405/4 252/404/4 248/469/4
f 253/367/21 254/481/23 256/482/24 255/368/22
f 195/380/1 193/483/1 254/481/1 253/367/1
f 192/362/19 255/368/22 264/484/25 259/485/26
f 193/486/4 197/487/4 256/482/4 254/481/4
f 256/482/4 197/487/4 261/488/4 263/489/4
f 199/490/27 195/380/14 129/260/14 133/491/27
f 257/492/3 258/493/3 260/494/3 259/495/3
f 261/496/3 262/497/3 264/498/3 263/499/3
f 264/498/3 262/497/3 257/492/3 259/495/3
f 255/368/22 256/482/24 263/489/28 264/484/25
f 197/500/29 199/490/27 262/497/29 261/496/29
f 199/490/27 133/491/27 257/492/29 262/497/29
f 133/491/27 135/501/29 258/493/29 257/492/29
f 191/363/20 192/362/19 259/485/26 260/365/30
f 273/502/2 266/503/2 7/504/2 63/505/2
f 265/506/4 276/507/4 64/508/4 5/509/4
f 269/510/4 280/120/4 128/123/4 69/511/4
f 270/512/31 269/510/31 69/511/31 71/513/31
f 277/514/2 270/512/2 71/513/2 127/515/2
f 276/516/16 273/502/16 63/505/16 64/517/5
f 278/518/3 271/238/3 268/241/3 275/519/3
f 274/520/3 275/521/3 268/255/3 267/253/3
f 273/522/2 274/520/2 267/253/2 266/250/2
f 279/523/4 280/524/4 269/370/4 272/378/4
f 278/525/3 279/523/3 272/378/3 271/375/3
f 277/526/5 278/518/5 275/519/5 276/527/5
f 270/239/1 277/528/1 276/529/1 265/240/1
f 129/530/1 131/531/1 273/522/1 276/532/1
f 131/531/2 135/533/2 274/520/2 273/522/2
f 135/533/3 133/534/3 275/521/3 274/520/3
f 133/534/4 129/535/4 276/536/4 275/521/4
f 193/537/1 195/538/1 277/539/1 280/524/1
f 195/540/2 199/541/2 278/525/2 277/542/2
f 199/541/3 197/543/3 279/523/3 278/525/3
f 197/543/4 193/537/4 280/524/4 279/523/4
f 266/503/31 265/506/31 5/509/31 7/504/31
f 194/544/5 249/408/5 246/476/5 198/475/5
o TrolleyTray1.001
v 0.319378 0.745280 0.480133
v 0.327594 0.734384 0.492510
v -0.318015 0.745280 0.480132
v -0.326230 0.734384 0.492510
v 0.319378 0.745280 -0.480132
v 0.327594 0.734384 -0.492510
v -0.318014 0.745280 -0.480133
v -0.326230 0.734384 -0.492510
v 0.319378 0.685363 0.480133
v -0.318015 0.685363 0.480132
v -0.318014 0.685363 -0.480133
v 0.319378 0.685363 -0.480132
v -0.326230 0.695771 0.492510
v -0.326230 0.695771 -0.492510
v 0.327594 0.695771 -0.492510
v 0.327594 0.695771 0.492510
vn -0.0000 0.7506 0.6608
vn -0.7985 0.6020 -0.0000
vn -0.0000 0.7506 -0.6608
vn 0.7985 0.6020 -0.0000
vn -0.0000 1.0000 -0.0000
vn -0.7849 -0.6196 -0.0000
vn -0.0000 -1.0000 -0.0000
vn -0.0000 -0.7654 -0.6436
vn -0.0000 -0.7654 0.6436
vn 0.7849 -0.6196 -0.0000
vn 1.0000 -0.0000 -0.0000
vn -0.0000 -0.0000 1.0000
vn -0.0000 -0.0000 -1.0000
vn -1.0000 -0.0000 -0.0000
vt 0.263770 0.411605
vt 0.028140 0.411605
vt 0.025103 0.405509
vt 0.266807 0.405509
vt 0.003919 0.385257
vt 0.003919 0.030268
vt 0.008964 0.025692
vt 0.008964 0.389832
vt 0.028140 0.003919
vt 0.263770 0.003919
vt 0.266807 0.010015
vt 0.025103 0.010015
vt 0.287991 0.030268
vt 0.287991 0.385257
vt 0.282946 0.389832
vt 0.282946 0.025692
vt 0.556225 0.371893
vt 0.791855 0.371893
vt 0.791855 0.726882
vt 0.556225 0.726882
vt 0.023238 0.025692
vt 0.028140 0.030268
vt 0.028140 0.385257
vt 0.023238 0.389832
vt 0.263770 0.030268
vt 0.263770 0.385257
vt 0.266807 0.024289
vt 0.025103 0.024289
vt 0.025103 0.391235
vt 0.266807 0.391235
vt 0.268672 0.389832
vt 0.268672 0.025692
s 1
f 281/545/32 283/546/32 284/547/32 282/548/32
f 283/549/33 287/550/33 288/551/33 284/552/33
f 287/553/34 285/554/34 286/555/34 288/556/34
f 285/557/35 281/558/35 282/559/35 286/560/35
f 283/561/36 281/562/36 285/563/36 287/564/36
f 294/565/37 291/566/37 290/567/37 293/568/37
f 291/566/38 292/569/38 289/570/38 290/567/38
f 295/571/39 292/569/39 291/566/39 294/572/39
f 293/573/40 290/567/40 289/570/40 296/574/40
f 296/575/41 289/570/41 292/569/41 295/576/41
f 282/559/42 296/575/42 295/576/42 286/560/42
f 284/547/43 293/573/43 296/574/43 282/548/43
f 286/555/44 295/571/44 294/572/44 288/556/44
f 288/551/45 294/565/45 293/568/45 284/552/45
o TrolleyTray2.001
v 0.319378 0.467236 0.480133
v 0.319378 0.449224 0.480133
v -0.318015 0.467236 0.480132
v -0.318015 0.449224 0.480132
v 0.319378 0.467236 -0.480132
v 0.319378 0.449224 -0.480132
v -0.318014 0.467236 -0.480133
v -0.318014 0.449224 -0.480133
vn -0.0000 -0.0000 1.0000
vn -1.0000 -0.0000 -0.0000
vn -0.0000 -0.0000 -1.0000
vn 1.0000 -0.0000 -0.0000
vn -0.0000 1.0000 -0.0000
vn -0.0000 -1.0000 -0.0000
vt 0.302585 0.003919
vt 0.541631 0.003919
vt 0.541631 0.010675
vt 0.302585 0.010675
vt 0.548386 0.010675
vt 0.548386 0.370810
vt 0.541631 0.370810
vt 0.541631 0.377566
vt 0.302585 0.377566
vt 0.302585 0.370810
vt 0.295829 0.370810
vt 0.295829 0.010675
vt 0.003919 0.419444
vt 0.242966 0.419444
vt 0.242966 0.779579
vt 0.003919 0.779579
s 1
f 297/577/46 299/578/46 300/579/46 298/580/46
f 299/581/47 303/582/47 304/583/47 300/579/47
f 303/584/48 301/585/48 302/586/48 304/583/48
f 301/587/49 297/588/49 298/580/49 302/586/49
f 299/589/50 297/590/50 301/591/50 303/592/50
f 304/583/51 302/586/51 298/580/51 300/579/51
o TrolleyTray3.001
v 0.319378 0.184106 0.480133
v 0.319378 0.166094 0.480133
v -0.318015 0.184106 0.480132
v -0.318015 0.166094 0.480132
v 0.319378 0.184106 -0.480132
v 0.319378 0.166094 -0.480132
v -0.318014 0.184106 -0.480133
v -0.318014 0.166094 -0.480133
vn -0.0000 -0.0000 1.0000
vn -1.0000 -0.0000 -0.0000
vn -0.0000 -0.0000 -1.0000
vn 1.0000 -0.0000 -0.0000
vn -0.0000 1.0000 -0.0000
vn -0.0000 -1.0000 -0.0000
vt 0.302585 0.385404
vt 0.541631 0.385404
vt 0.541631 0.392159
vt 0.302585 0.392159
vt 0.548386 0.392159
vt 0.548386 0.752295
vt 0.541631 0.752295
vt 0.541631 0.759051
vt 0.302585 0.759051
vt 0.302585 0.752295
vt 0.295829 0.752295
vt 0.295829 0.392159
vt 0.556225 0.003919
vt 0.795271 0.003919
vt 0.795271 0.364055
vt 0.556225 0.364055
s 1
f 305/593/52 307/594/52 308/595/52 306/596/52
f 307/597/53 311/598/53 312/599/53 308/595/53
f 311/600/54 309/601/54 310/602/54 312/599/54
f 309/603/55 305/604/55 306/596/55 310/602/55
f 307/605/56 305/606/56 309/607/56 311/608/56
f 312/599/57 310/602/57 306/596/57 308/595/57
