# Blender 5.1.2
# www.blender.org
mtllib CellCranePrt.03.mtl
o CellCranePrt.03
v 0.000000 0.000003 1.314609
v 0.000000 7.899943 1.314609
v -0.657305 0.000003 1.138485
v -0.657305 7.899943 1.138485
v -1.138485 0.000003 0.657305
v -1.138485 7.899943 0.657305
v -1.314609 0.000003 -0.000000
v -1.314609 7.899943 -0.000000
v -1.138485 0.000003 -0.657305
v -1.138485 7.899943 -0.657305
v -0.657305 0.000003 -1.138485
v -0.657305 7.899943 -1.138485
v 0.000000 0.000003 -1.314609
v 0.000000 7.899943 -1.314609
v 0.000000 7.899943 -0.657305
v 0.000000 7.899943 -0.000000
v 0.000000 7.899943 0.657305
v 0.000000 0.000003 0.657305
v 0.000000 0.000003 -0.000000
v 0.000000 0.000003 -0.657305
v 0.657305 0.000003 1.138485
v 0.657305 7.899943 1.138485
v 1.138485 0.000003 0.657305
v 1.138485 7.899943 0.657305
v 1.314609 0.000003 -0.000000
v 1.314609 7.899943 -0.000000
v 1.138485 0.000003 -0.657305
v 1.138485 7.899943 -0.657305
v 0.657305 0.000003 -1.138485
v 0.657305 7.899943 -1.138485
v 0.000000 1.730819 1.314609
v -0.657305 1.730819 1.138485
v -1.138485 1.730819 0.657305
v -1.314609 1.730819 -0.000000
v -1.138485 1.730819 -0.657305
v -0.657305 1.730819 -1.138485
v 0.000000 1.730819 -1.314609
v 0.657305 1.730819 1.138485
v 1.138485 1.730819 0.657305
v 1.314609 1.730819 -0.000000
v 1.138485 1.730819 -0.657305
v 0.657305 1.730819 -1.138485
v 1.295629 1.730819 1.314609
v 1.295629 7.899943 1.314609
v 1.952934 7.899943 1.138485
v 2.434114 7.899943 0.657305
v 2.610238 7.899943 0.000000
v 2.434114 7.899943 -0.657305
v 1.952934 7.899943 -1.138485
v 1.295629 7.899943 -1.314609
v 1.295629 1.730819 -1.314609
v 1.952934 1.730819 1.138485
v 2.434114 1.730819 0.657305
v 2.610238 1.730819 0.000000
v 2.434114 1.730819 -0.657305
v 1.952934 1.730819 -1.138485
v -3.975435 1.730819 -0.000000
v -15.973806 0.988549 -0.463817
v -3.975437 1.730819 -0.927634
v -3.975437 3.797923 -0.927634
v -3.296362 1.730819 -1.170694
v -3.296362 3.797923 -1.170694
v -2.368727 1.730819 -1.758140
v -2.368727 3.797923 -1.758140
v -0.722083 3.797923 -1.758140
v -0.722083 1.730819 -1.758140
v -16.011206 0.988549 -0.000000
v -16.011206 3.055653 -0.000000
v -15.738070 0.988549 -0.927634
v -15.738070 3.055653 -0.927634
v -3.975437 3.797923 -0.000000
v -3.296362 3.797923 -0.000000
v -3.296362 1.730819 -0.000000
v -3.975436 1.730819 -0.463817
v -15.973806 3.055653 -0.463817
v -0.722083 3.797923 -1.314609
v -2.368727 3.797923 -1.314609
v -3.296362 3.797923 -0.715439
v -3.975437 3.797923 -0.463817
v -2.368727 1.730819 -1.314609
v -0.722083 1.730819 -1.314609
v -3.296362 1.730819 -0.715439
v 0.425857 3.797923 -1.557050
v 0.425857 1.730819 -1.557050
v 0.425857 3.797923 -1.314609
v 0.425857 1.730819 -1.314609
v 1.244149 3.797923 -1.557050
v 1.244149 2.039749 -1.557050
v 1.244149 3.797923 -1.314609
v 1.244149 2.039749 -1.314609
v -15.973806 0.988549 0.463817
v -3.975437 1.730819 0.927634
v -3.975437 3.797923 0.927634
v -3.296362 1.730819 1.170694
v -3.296362 3.797923 1.170694
v -2.368727 1.730819 1.758140
v -2.368727 3.797923 1.758140
v -0.722083 3.797923 1.758140
v -0.722083 1.730819 1.758140
v -15.738070 0.988549 0.927634
v -15.738070 3.055653 0.927634
v -3.975436 1.730819 0.463817
v -15.973806 3.055653 0.463817
v -0.722083 3.797923 1.314609
v -2.368727 3.797923 1.314609
v -3.296362 3.797923 0.715439
v -3.975437 3.797923 0.463817
v -2.368727 1.730819 1.314609
v -0.722083 1.730819 1.314609
v -3.296362 1.730819 0.715439
v 0.425857 3.797923 1.557050
v 0.425857 1.730819 1.557050
v 0.425857 3.797923 1.314609
v 0.425857 1.730819 1.314609
v 1.244149 3.797923 1.557050
v 1.244149 2.039749 1.557050
v 1.244149 3.797923 1.314609
v 1.244149 2.039749 1.314609
v -13.213976 3.055653 -0.927634
v -13.213976 0.988549 -0.000000
v -13.213976 0.988549 -0.927634
v -13.213976 3.055653 -0.000000
v -13.213976 0.988549 -0.463817
v -13.213976 3.055653 -0.463817
v -13.213976 3.055653 0.927634
v -13.213976 0.988549 0.927634
v -13.213976 0.988549 0.463817
v -13.213976 3.055653 0.463817
v -14.598657 3.055652 1.329776
v -14.598657 5.713342 1.329776
v -15.263079 3.055652 1.151744
v -15.263079 5.713342 1.151744
v -15.749470 3.055652 0.665353
v -15.749470 5.713342 0.665353
v -15.927501 3.055652 0.000931
v -15.927501 5.713342 0.000931
v -15.749470 3.055652 -0.663491
v -15.749470 5.713342 -0.663491
v -15.263079 3.055652 -1.149882
v -15.263079 5.713342 -1.149882
v -14.598657 3.055652 -1.327913
v -14.598657 5.713342 -1.327913
v -13.934235 3.055652 -1.149882
v -13.934235 5.713342 -1.149882
v -13.447844 3.055652 -0.663491
v -13.447844 5.713342 -0.663491
v -13.269813 3.055652 0.000931
v -13.269813 5.713342 0.000931
v -13.447844 3.055652 0.665353
v -13.447844 5.713342 0.665353
v -13.934235 3.055652 1.151744
v -13.934235 5.713342 1.151744
vn -0.2588 -0.0000 0.9659
vn -0.7071 -0.0000 0.7071
vn -0.9659 -0.0000 0.2588
vn -0.9659 -0.0000 -0.2588
vn -0.7071 -0.0000 -0.7071
vn -0.2588 -0.0000 -0.9659
vn -0.0000 1.0000 -0.0000
vn -0.0000 -1.0000 -0.0000
vn -0.0000 -0.0000 -1.0000
vn -0.0000 -0.0000 1.0000
vn 0.2588 -0.0000 -0.9659
vn 0.7071 -0.0000 -0.7071
vn 0.9659 -0.0000 -0.2588
vn 0.9659 -0.0000 0.2588
vn 0.7071 -0.0000 0.7071
vn 0.2588 -0.0000 0.9659
vn -0.3370 -0.0000 -0.9415
vn -0.5350 -0.0000 -0.8448
vn -0.8915 -0.0000 -0.4531
vn 0.5426 -0.0000 0.8400
vn 1.0000 -0.0000 -0.0000
vn 0.1725 -0.0000 -0.9850
vn -0.9968 -0.0000 -0.0804
vn 0.3532 -0.9355 -0.0000
vn -0.3370 -0.0000 0.9415
vn -0.5350 -0.0000 0.8448
vn -0.8915 -0.0000 0.4531
vn 0.5426 -0.0000 -0.8400
vn 0.1725 -0.0000 0.9850
vn -0.9968 -0.0000 0.0804
vn -0.0801 0.9968 -0.0000
vn 0.0801 -0.9968 -0.0000
vt 1.000000 0.641532
vt 1.000000 1.000000
vt 0.916667 1.000000
vt 0.916667 0.641532
vt 0.833333 1.000000
vt 0.833333 0.641532
vt 0.750000 1.000000
vt 0.750000 0.641532
vt 0.666667 1.000000
vt 0.666667 0.641532
vt 0.583333 1.000000
vt 0.583333 0.641532
vt 0.500000 1.000000
vt 0.500000 0.641532
vt 0.500000 1.000000
vt 0.750000 0.500000
vt 0.666667 0.500000
vt 0.500000 0.500000
vt 0.500000 0.500000
vt 0.833333 0.500000
vt 0.583333 0.500000
vt 1.000000 0.500000
vt 0.916667 0.500000
vt 0.916667 0.641532
vt 0.000000 0.000000
vt 0.708333 0.500000
vt 0.708333 1.000000
vt 0.500000 1.000000
vt 0.500000 0.500000
vt 0.416667 1.000000
vt 0.416667 0.500000
vt 0.333333 1.000000
vt 0.333333 0.500000
vt 0.250000 1.000000
vt 0.250000 0.500000
vt 0.166667 1.000000
vt 0.166667 0.500000
vt 0.370000 0.457846
vt 0.250000 0.490000
vt 0.130000 0.457846
vt 0.042154 0.370000
vt 0.010000 0.250000
vt 0.042154 0.130000
vt 0.130000 0.042154
vt 0.250000 0.010000
vt 0.370000 0.042154
vt 0.457846 0.130000
vt 0.490000 0.250000
vt 0.457846 0.370000
vt 0.083333 1.000000
vt 0.083333 0.500000
vt 0.000000 1.000000
vt 0.000000 0.500000
vt 0.750000 0.490000
vt 0.870000 0.457846
vt 0.957846 0.370000
vt 0.990000 0.250000
vt 0.957846 0.130000
vt 0.870000 0.042154
vt 0.750000 0.010000
vt 0.630000 0.042154
vt 0.542154 0.130000
vt 0.510000 0.250000
vt 0.542154 0.370000
vt 0.630000 0.457846
s 0
f 31/1/1 2/2/1 4/3/1 32/4/1
f 32/4/2 4/3/2 6/5/2 33/6/2
f 33/6/3 6/5/3 8/7/3 34/8/3
f 34/8/4 8/7/4 10/9/4 35/10/4
f 35/10/5 10/9/5 12/11/5 36/12/5
f 36/12/6 12/11/6 14/13/6 37/14/6
f 10/9/7 8/7/7 16/15/7 15/13/7
f 8/7/7 6/5/7 17/15/7 16/15/7
f 10/9/7 15/13/7 14/13/7 12/11/7
f 2/2/7 17/15/7 6/5/7 4/3/7
f 7/16/8 9/17/8 20/18/8 19/19/8
f 5/20/8 7/16/8 19/19/8 18/19/8
f 9/17/8 11/21/8 13/18/8 20/18/8
f 1/22/8 3/23/8 5/20/8 18/19/8
f 26/7/7 24/5/7 46/5/7 47/7/7
f 37/14/9 14/13/9 50/13/9 51/14/9
f 41/10/8 42/12/8 56/12/8 55/10/8
f 2/2/10 31/1/10 43/1/10 44/2/10
f 30/11/7 28/9/7 48/9/7 49/11/7
f 42/12/8 37/14/8 51/14/8 56/12/8
f 28/9/7 15/13/7 16/15/7 26/7/7
f 26/7/7 16/15/7 17/15/7 24/5/7
f 28/9/7 30/11/7 14/13/7 15/13/7
f 2/2/7 22/3/7 24/5/7 17/15/7
f 25/16/8 19/19/8 20/18/8 27/17/8
f 23/20/8 18/19/8 19/19/8 25/16/8
f 27/17/8 20/18/8 13/18/8 29/21/8
f 1/22/8 18/19/8 23/20/8 21/23/8
f 29/21/11 13/18/11 37/14/11 42/12/11
f 27/17/12 29/21/12 42/12/12 41/10/12
f 25/16/13 27/17/13 41/10/13 40/8/13
f 23/20/14 25/16/14 40/8/14 39/6/14
f 21/23/15 23/20/15 39/6/15 38/24/15
f 1/22/16 21/23/16 38/24/16 31/1/16
f 11/21/6 36/12/6 37/14/6 13/18/6
f 9/17/5 35/10/5 36/12/5 11/21/5
f 7/16/4 34/8/4 35/10/4 9/17/4
f 5/20/3 33/6/3 34/8/3 7/16/3
f 3/23/2 32/4/2 33/6/2 5/20/2
f 1/22/1 31/1/1 32/4/1 3/23/1
f 43/1/16 52/24/16 45/3/16 44/2/16
f 52/24/15 53/6/15 46/5/15 45/3/15
f 53/6/14 54/8/14 47/7/14 46/5/14
f 54/8/13 55/10/13 48/9/13 47/7/13
f 55/10/12 56/12/12 49/11/12 48/9/12
f 56/12/11 51/14/11 50/13/11 49/11/11
f 40/8/8 41/10/8 55/10/8 54/8/8
f 22/3/7 2/2/7 44/2/7 45/3/7
f 39/6/8 40/8/8 54/8/8 53/6/8
f 14/13/7 30/11/7 49/11/7 50/13/7
f 38/24/8 39/6/8 53/6/8 52/24/8
f 28/9/7 26/7/7 47/7/7 48/9/7
f 31/1/8 38/24/8 52/24/8 43/1/8
f 24/5/7 22/3/7 45/3/7 46/5/7
f 124/25/7 119/25/7 70/25/7 75/25/7
f 59/17/17 60/9/17 62/11/17 61/21/17
f 61/21/18 62/11/18 64/13/18 63/18/18
f 63/18/9 64/13/9 65/13/9 66/18/9
f 58/26/19 75/27/19 70/9/19 69/17/19
f 119/9/9 121/17/9 69/17/9 70/9/9
f 123/25/8 120/25/8 67/25/8 58/25/8
f 80/18/20 77/13/20 78/11/20 82/21/20
f 78/11/7 79/9/7 71/9/7 72/11/7
f 73/21/21 82/21/21 78/11/21 72/11/21
f 74/17/8 82/21/8 73/21/8 57/17/8
f 80/18/10 81/18/10 76/13/10 77/13/10
f 66/18/22 65/13/22 83/28/22 84/29/22
f 59/17/8 61/21/8 82/21/8 74/17/8
f 61/21/8 63/18/8 80/18/8 82/21/8
f 63/18/8 66/18/8 81/18/8 80/18/8
f 62/11/7 60/9/7 79/9/7 78/11/7
f 64/13/7 62/11/7 78/11/7 77/13/7
f 65/13/7 64/13/7 77/13/7 76/13/7
f 121/25/8 123/25/8 58/25/8 69/25/8
f 67/16/23 68/7/23 75/27/23 58/26/23
f 122/25/7 124/25/7 75/25/7 68/25/7
f 86/18/24 84/29/24 88/18/24 90/18/24
f 65/13/7 76/13/7 85/13/7 83/28/7
f 76/13/10 81/18/10 86/18/10 85/13/10
f 81/18/8 66/18/8 84/29/8 86/18/8
f 88/18/21 87/13/21 89/13/21 90/18/21
f 84/29/9 83/28/9 87/13/9 88/18/9
f 85/13/10 86/18/10 90/18/10 89/13/10
f 83/28/7 85/13/7 89/13/7 87/13/7
f 128/25/7 103/25/7 101/25/7 125/25/7
f 92/17/25 94/21/25 95/11/25 93/9/25
f 94/21/26 96/18/26 97/13/26 95/11/26
f 96/18/10 99/18/10 98/13/10 97/13/10
f 91/26/27 100/17/27 101/9/27 103/27/27
f 125/9/10 101/9/10 100/17/10 126/17/10
f 127/25/8 91/25/8 67/25/8 120/25/8
f 108/18/28 110/21/28 106/11/28 105/13/28
f 106/11/7 72/11/7 71/9/7 107/9/7
f 73/21/21 72/11/21 106/11/21 110/21/21
f 102/17/8 57/17/8 73/21/8 110/21/8
f 108/18/9 105/13/9 104/13/9 109/18/9
f 99/18/29 112/29/29 111/28/29 98/13/29
f 92/17/8 102/17/8 110/21/8 94/21/8
f 94/21/8 110/21/8 108/18/8 96/18/8
f 96/18/8 108/18/8 109/18/8 99/18/8
f 95/11/7 106/11/7 107/9/7 93/9/7
f 97/13/7 105/13/7 106/11/7 95/11/7
f 98/13/7 104/13/7 105/13/7 97/13/7
f 126/25/8 100/25/8 91/25/8 127/25/8
f 67/16/30 91/26/30 103/27/30 68/7/30
f 122/25/7 68/25/7 103/25/7 128/25/7
f 114/18/24 118/18/24 116/18/24 112/29/24
f 98/13/7 111/28/7 113/13/7 104/13/7
f 104/13/9 113/13/9 114/18/9 109/18/9
f 109/18/8 114/18/8 112/29/8 99/18/8
f 116/18/21 118/18/21 117/13/21 115/13/21
f 112/29/10 116/18/10 115/13/10 111/28/10
f 113/13/9 117/13/9 118/18/9 114/18/9
f 111/28/7 115/13/7 117/13/7 113/13/7
f 71/25/31 122/25/31 128/25/31 107/25/31
f 92/25/32 126/25/32 127/25/32 102/25/32
f 102/25/32 127/25/32 120/25/32 57/25/32
f 93/9/10 125/9/10 126/17/10 92/17/10
f 107/25/31 128/25/31 125/25/31 93/25/31
f 71/25/31 79/25/31 124/25/31 122/25/31
f 59/25/32 74/25/32 123/25/32 121/25/32
f 74/25/32 57/25/32 120/25/32 123/25/32
f 60/9/9 59/17/9 121/17/9 119/9/9
f 79/25/31 60/25/31 119/25/31 124/25/31
f 129/22/1 130/2/1 132/3/1 131/23/1
f 131/23/2 132/3/2 134/5/2 133/20/2
f 133/20/3 134/5/3 136/7/3 135/16/3
f 135/16/4 136/7/4 138/9/4 137/17/4
f 137/17/5 138/9/5 140/11/5 139/21/5
f 139/21/6 140/11/6 142/13/6 141/18/6
f 141/18/11 142/13/11 144/30/11 143/31/11
f 143/31/12 144/30/12 146/32/12 145/33/12
f 145/33/13 146/32/13 148/34/13 147/35/13
f 147/35/14 148/34/14 150/36/14 149/37/14
f 132/38/7 130/39/7 152/40/7 150/41/7 148/42/7 146/43/7 144/44/7 142/45/7 140/46/7 138/47/7 136/48/7 134/49/7
f 149/37/15 150/36/15 152/50/15 151/51/15
f 151/51/16 152/50/16 130/52/16 129/53/16
f 129/54/8 131/55/8 133/56/8 135/57/8 137/58/8 139/59/8 141/60/8 143/61/8 145/62/8 147/63/8 149/64/8 151/65/8
