# Blender 5.1.2
# www.blender.org
mtllib PanopticonBridgeBase.mtl
o PanopticonBridgeBase
v -0.000121 -3.440302 6.345798
v 3.601048 -3.440302 6.237409
v 5.495500 -3.440302 3.172899
v 5.495500 -3.440302 -3.172899
v 3.601048 -3.440302 -6.237409
v 6.345676 -3.440302 -0.000000
v -0.000121 -3.440303 -6.345798
v -3.844948 -3.440302 6.659435
v -6.659556 -3.440302 3.844826
v -7.689775 -3.440302 -0.000000
v -6.659556 -3.440303 -3.844826
v -3.844948 -3.440303 -6.659435
v -0.000121 -3.440302 7.689653
v 3.844705 -3.440302 6.659435
v 6.659313 -3.440302 3.844826
v 7.689531 -3.440302 -0.000000
v -3.601291 -3.440302 6.237409
v -5.495743 -3.440302 3.172899
v 6.659313 -3.440303 -3.844826
v -5.495743 -3.440302 -3.172899
v -3.601291 -3.440302 -6.237409
v -0.000121 -3.440303 -7.689653
v 3.844705 -3.440303 -6.659435
v 3.908141 -3.440303 -3.908254
v -7.202461 -3.440302 -0.000000
v -0.000122 7.045236 3.908254
v 3.908141 7.045236 3.908254
v 3.908141 7.045236 -0.000000
v 3.908141 7.045236 -3.908254
v -0.000122 7.045236 -3.908255
v -0.000121 6.232809 7.202339
v 3.601048 6.232809 6.237409
v 5.495500 6.232809 3.172899
v 7.202218 6.232809 0.000000
v 5.495500 6.232809 -3.172899
v 3.601048 6.232809 -6.237409
v -0.000121 6.232809 -7.202339
v -3.908359 7.045236 3.908254
v -3.908349 7.045236 -0.000000
v -3.908359 7.045236 -3.908254
v -3.601291 6.232809 6.237409
v -5.495743 6.232809 3.172899
v -7.202461 6.232809 0.000000
v -5.495743 6.232809 -3.172899
v -3.601291 6.232809 -6.237409
v 3.908141 6.232809 3.908254
v -3.908359 -4.252728 3.908254
v -3.908349 -4.252728 0.000000
v -3.908359 -4.252729 -3.908254
v -0.000121 -3.440302 7.202339
v 7.202218 -3.440302 -0.000000
v -0.000121 -3.440303 -7.202339
v -0.000122 -4.252728 3.908255
v 3.844705 6.232809 6.659435
v -0.000121 6.232809 7.689653
v 6.659313 6.232809 3.844826
v 7.689531 6.232809 0.000000
v 6.659313 6.232809 -3.844826
v 3.844705 6.232809 -6.659435
v -0.000121 6.232809 -7.689653
v -3.844948 6.232809 6.659435
v -6.659556 6.232809 3.844826
v -7.689775 6.232809 0.000000
v -6.659556 6.232809 -3.844826
v -3.844948 6.232809 -6.659435
v 3.172777 -3.440302 5.495622
v 3.908141 -4.252728 3.908254
v 6.237287 -3.440302 3.601170
v 3.908141 -4.252728 0.000000
v 6.237287 -3.440302 -3.601170
v 3.172777 -3.440302 -5.495622
v 3.908141 -4.252729 -3.908254
v -3.173020 -3.440302 5.495622
v -6.237530 -3.440302 3.601170
v -0.000122 -4.252729 -3.908254
v -6.237530 -3.440302 -3.601170
v -3.173020 -3.440302 -5.495622
v -0.000121 6.232809 6.345798
v 6.237287 6.232809 3.601170
v 6.345676 6.232809 0.000000
v 6.237287 6.232809 -3.601170
v -0.000121 6.232809 -6.345798
v -3.908359 6.232809 3.908254
v -6.237530 6.232809 3.601170
v -6.345919 6.232809 0.000000
v -6.237530 6.232809 -3.601170
v 6.237287 -0.903102 3.601170
v 3.601048 -0.903102 6.237409
v 5.495500 -0.903102 3.172899
v 3.172777 -0.903102 5.495622
v -6.237530 -0.903102 3.601170
v -3.601291 -0.903102 6.237409
v -5.495743 -0.903102 3.172899
v -3.173020 -0.903102 5.495622
v 3.601048 -0.903102 -6.237409
v 6.237287 -0.903102 -3.601170
v 3.172777 -0.903102 -5.495622
v 5.495500 -0.903102 -3.172899
v -6.237530 -0.903102 -3.601170
v -3.601291 -0.903102 -6.237409
v -5.495743 -0.903102 -3.172899
v -3.173020 -0.903102 -5.495622
v 3.844705 7.045236 6.659435
v -0.000121 7.045236 7.689653
v 6.659313 7.045236 3.844826
v 7.689531 7.045236 0.000000
v 6.659313 7.045236 -3.844826
v 3.844705 7.045236 -6.659435
v -0.000121 7.045236 -7.689653
v -3.844948 7.045236 6.659435
v -6.659556 7.045236 3.844826
v -7.689775 7.045236 0.000000
v -6.659556 7.045236 -3.844826
v -3.844948 7.045236 -6.659435
v 3.908141 6.232809 0.000000
v 3.172777 6.232809 -5.495622
v 3.172777 6.232809 5.495622
v -3.908349 6.232809 0.000000
v -3.173020 6.232809 -5.495622
v -3.173020 6.232809 5.495622
v -0.000121 6.232809 3.908254
v 3.908141 6.232809 -3.908254
v -3.908359 6.232809 -3.908254
v -0.000121 6.232809 -3.908255
v -3.908359 -3.440303 -3.908254
v -6.345919 -3.440302 -0.000000
v 3.844705 -4.252729 -6.659435
v -0.000121 -4.252729 -7.689653
v 6.659313 -4.252729 -3.844826
v 7.689531 -4.252728 0.000000
v 6.659313 -4.252728 3.844826
v 3.844705 -4.252728 6.659435
v -0.000121 -4.252728 7.689653
v -3.844948 -4.252729 -6.659435
v -6.659556 -4.252729 -3.844826
v -7.689775 -4.252728 0.000000
v -6.659556 -4.252728 3.844826
v -3.844948 -4.252728 6.659435
v 3.844705 -3.440302 -0.000000
v -3.844948 -3.440302 -0.000000
v -0.000121 -3.440303 -3.908254
v 3.908141 -3.440302 3.908254
v -3.908359 -3.440302 3.908254
v -0.000121 -3.440302 3.908255
v 4.307273 0.100003 -4.238802
v 4.307273 0.100005 4.238802
v -4.307263 0.100005 4.238802
v -4.307263 0.100005 -4.238802
v 4.307273 6.042128 -4.238802
v 4.307273 6.042129 4.238802
v -4.307263 6.042129 4.238802
v -4.307263 6.042129 -4.238802
v -4.307263 0.100005 2.990041
v -4.307263 0.100005 -2.990041
v 4.307273 0.100004 -2.990041
v 4.307273 0.100004 2.990041
v -4.307263 6.042129 2.990041
v -4.307263 6.042129 -2.990041
v 4.307273 6.042128 -2.990041
v 4.307273 6.042129 2.990041
v 3.908266 0.100003 -3.908254
v 3.908266 0.100005 3.908254
v -3.908243 0.100005 3.908254
v -3.908243 0.100005 -3.908254
v 3.908248 6.042128 -3.908254
v 3.908248 6.042129 3.908254
v -3.908252 6.042129 3.908254
v -3.908252 6.042129 -3.908254
v -3.908243 0.100005 2.990041
v -3.908243 0.100005 -2.990041
v 3.908266 0.100004 -2.990041
v 3.908266 0.100004 2.990041
v -3.908252 6.042129 2.990041
v -3.908252 6.042129 -2.990041
v 3.908248 6.042128 -2.990041
v 3.908248 6.042129 2.990041
v 4.307273 6.232809 4.238802
v -4.307263 6.232809 4.238802
v -4.307263 6.232809 -4.238802
v -4.307263 6.232809 2.990041
v -4.307263 6.232809 -2.990041
v 4.307273 6.232809 -2.990041
v 4.307273 6.232809 2.990041
v 4.307273 6.232809 -4.238802
v 3.908248 6.232809 3.908254
v -3.908252 6.232809 3.908254
v -3.908252 6.232809 -3.908254
v -3.908252 6.232809 2.990041
v -3.908252 6.232809 -2.990041
v 3.908248 6.232809 -2.990041
v 3.908248 6.232809 2.990041
v 3.908248 6.232809 -3.908254
v 2.585723 0.100005 4.238802
v -2.585638 0.100005 4.238802
v 2.585723 6.042129 4.238802
v -2.585638 6.042129 4.238802
v 2.585723 0.100005 3.908254
v -2.585638 0.100005 3.908254
v 2.585723 6.042129 3.908254
v -2.585638 6.042129 3.908254
v 2.585723 6.232809 4.238802
v -2.585638 6.232809 4.238802
v -2.585638 6.232809 3.908254
v 2.585723 6.232809 3.908254
v -2.585638 0.100005 -4.238802
v 2.585723 0.100003 -4.238802
v -2.585638 6.042128 -4.238802
v 2.585723 6.042128 -4.238802
v -2.585638 0.100005 -3.908254
v 2.585723 0.100003 -3.908254
v -2.585638 6.042128 -3.908254
v 2.585723 6.042128 -3.908254
v -2.585638 6.232809 -4.238802
v 2.585723 6.232809 -4.238802
v 2.585723 6.232809 -3.908254
v -2.585638 6.232809 -3.908254
vn -0.0000 1.0000 -0.0000
vn -0.0000 -1.0000 -0.0000
vn -0.9659 -0.0000 0.2588
vn -0.9659 -0.0000 -0.2588
vn 0.9659 -0.0000 0.2588
vn 0.9659 -0.0000 -0.2588
vn 0.2588 -0.0000 0.9659
vn 0.7071 -0.0000 -0.7071
vn 0.7071 -0.0000 0.7071
vn 0.2588 -0.0000 -0.9659
vn -1.0000 -0.0000 -0.0000
vn -0.2588 -0.0000 0.9659
vn -0.7071 -0.0000 -0.7071
vn -0.7071 -0.0000 0.7071
vn -0.2588 -0.0000 -0.9659
vn 0.5000 -0.0000 -0.8660
vn -0.9992 -0.0390 0.0081
vn 0.5000 -0.0000 0.8660
vn 0.8660 -0.0000 0.5000
vn -0.8660 -0.0000 0.5000
vn -0.5000 -0.0000 0.8660
vn -0.5000 -0.0000 -0.8660
vn -0.8660 -0.0000 -0.5000
vn 0.8660 -0.0000 -0.5000
vn 1.0000 -0.0000 -0.0000
vn -0.0000 -0.0000 -1.0000
vn -0.0000 -0.0000 1.0000
vn 0.9992 -0.0390 -0.0081
vn -0.9992 -0.0390 -0.0081
vn 0.9992 -0.0390 0.0081
vt 0.000000 0.000000
vt 0.500000 0.916667
vt 0.562500 0.916667
vt 0.562500 1.000000
vt 0.500000 1.000000
vt 0.500000 0.666667
vt 0.562500 0.666667
vt 0.562500 0.750000
vt 0.500000 0.750000
vt 0.500000 0.416667
vt 0.562500 0.416667
vt 0.562500 0.500000
vt 0.500000 0.500000
vt 0.500000 0.166667
vt 0.562500 0.166667
vt 0.562500 0.250000
vt 0.500000 0.250000
vt 0.500000 0.000000
vt 0.562500 0.000000
vt 0.562500 0.083333
vt 0.500000 0.083333
vt 0.562500 0.583333
vt 0.500000 0.583333
vt 0.578125 0.166667
vt 0.578125 0.250000
vt 0.578125 0.416667
vt 0.578125 0.500000
vt 0.578125 0.666667
vt 0.578125 0.750000
vt 0.578125 0.916667
vt 0.578125 1.000000
vt 0.578125 0.583333
vt 0.578125 0.000000
vt 0.578125 0.083333
vt 0.578125 0.333333
vt 0.562500 0.333333
vt 0.500000 0.333333
vt 0.578125 0.833333
vt 0.562500 0.833333
vt 0.500000 0.833333
s 0
f 144/1/1 143/1/1 73/1/1 1/1/1
f 47/1/2 53/1/2 133/1/2 138/1/2
f 47/1/2 138/1/2 137/1/2
f 25/1/1 74/1/1 18/1/1 126/1/1
f 49/1/2 135/1/2 134/1/2
f 75/1/2 49/1/2 134/1/2 128/1/2
f 53/1/2 67/1/2 132/1/2 133/1/2
f 67/1/2 131/1/2 132/1/2
f 51/1/1 6/1/1 3/1/1 68/1/1
f 72/1/2 127/1/2 129/1/2
f 72/1/2 75/1/2 128/1/2 127/1/2
f 17/1/1 50/1/1 1/1/1 73/1/1
f 2/1/1 66/1/1 1/1/1 50/1/1
f 25/1/1 76/1/1 11/1/1 10/1/1
f 74/1/1 25/1/1 10/1/1 9/1/1
f 52/1/1 7/1/1 71/1/1 5/1/1
f 52/1/1 21/1/1 77/1/1 7/1/1
f 51/1/1 68/1/1 15/1/1 16/1/1
f 50/1/1 17/1/1 8/1/1 13/1/1
f 17/1/1 74/1/1 9/1/1 8/1/1
f 136/1/3 137/1/3 9/1/3 10/1/3
f 135/1/4 136/1/4 10/1/4 11/1/4
f 76/1/1 21/1/1 12/1/1 11/1/1
f 21/1/1 52/1/1 22/1/1 12/1/1
f 2/1/1 50/1/1 13/1/1 14/1/1
f 68/1/1 2/1/1 14/1/1 15/1/1
f 130/1/5 16/1/5 15/1/5 131/1/5
f 129/1/6 19/1/6 16/1/6 130/1/6
f 103/1/7 104/1/7 55/1/7 54/1/7
f 108/1/8 107/1/8 58/1/8 59/1/8
f 105/1/9 103/1/9 54/1/9 56/1/9
f 109/1/10 108/1/10 59/1/10 60/1/10
f 79/1/2 34/1/2 57/1/2 56/1/2
f 84/1/2 43/1/2 85/1/2 42/1/2
f 29/1/11 122/1/11 115/1/11 28/1/11
f 117/1/2 46/1/2 33/1/2
f 35/1/2 80/1/2 115/1/2 122/1/2
f 110/1/12 61/1/12 55/1/12 104/1/12
f 114/1/13 65/1/13 64/1/13 113/1/13
f 111/1/14 62/1/14 61/1/14 110/1/14
f 109/1/15 60/1/15 65/1/15 114/1/15
f 33/1/2 80/1/2 34/1/2 79/1/2
f 121/1/2 46/1/2 117/1/2 78/1/2
f 38/1/1 39/1/1 112/1/1 111/1/1
f 120/1/2 42/1/2 83/1/2
f 44/1/2 123/1/2 118/1/2 85/1/2
f 5/1/1 70/1/1 19/1/1 23/1/1
f 52/1/1 5/1/1 23/1/1 22/1/1
f 18/1/1 143/1/1 140/1/1 126/1/1
f 77/1/1 20/1/1 125/1/1
f 49/1/2 48/1/2 136/1/2 135/1/2
f 141/1/1 24/1/1 71/1/1 7/1/1
f 4/1/1 6/1/1 51/1/1 70/1/1
f 133/1/12 13/1/12 8/1/12 138/1/12
f 135/1/13 11/1/13 12/1/13 134/1/13
f 138/1/14 8/1/14 9/1/14 137/1/14
f 134/1/15 12/1/15 22/1/15 128/1/15
f 3/1/1 6/1/1 139/1/1 142/1/1
f 31/1/2 32/1/2 54/1/2 55/1/2
f 32/1/2 79/1/2 56/1/2 54/1/2
f 105/1/5 56/1/5 57/1/5 106/1/5
f 106/1/6 57/1/6 58/1/6 107/1/6
f 81/1/2 36/1/2 59/1/2 58/1/2
f 36/1/2 37/1/2 60/1/2 59/1/2
f 41/1/2 31/1/2 55/1/2 61/1/2
f 84/1/2 41/1/2 61/1/2 62/1/2
f 111/1/3 112/1/3 63/1/3 62/1/3
f 112/1/4 113/1/4 64/1/4 63/1/4
f 45/1/2 86/1/2 64/1/2 65/1/2
f 37/1/2 45/1/2 65/1/2 60/1/2
f 87/1/16 68/1/16 3/1/16 89/1/16
f 71/1/1 24/1/1 4/1/1
f 67/1/17 142/1/17 139/1/17 69/1/17
f 96/1/18 98/1/18 4/1/18 70/1/18
f 34/1/2 81/1/2 58/1/2 57/1/2
f 31/1/2 41/1/2 120/1/2 78/1/2
f 92/1/19 17/1/19 73/1/19 94/1/19
f 76/1/1 25/1/1 126/1/1 20/1/1
f 70/1/1 51/1/1 16/1/1 19/1/1
f 88/1/20 90/1/20 66/1/20 2/1/20
f 31/1/2 78/1/2 117/1/2 32/1/2
f 86/1/2 43/1/2 63/1/2 64/1/2
f 99/1/21 76/1/21 20/1/21 101/1/21
f 133/1/7 132/1/7 14/1/7 13/1/7
f 129/1/8 127/1/8 23/1/8 19/1/8
f 91/1/22 93/1/22 18/1/22 74/1/22
f 43/1/2 84/1/2 62/1/2 63/1/2
f 36/1/2 116/1/2 82/1/2 37/1/2
f 95/1/23 5/1/23 71/1/23 97/1/23
f 132/1/9 131/1/9 15/1/9 14/1/9
f 127/1/10 128/1/10 22/1/10 23/1/10
f 100/1/24 102/1/24 77/1/24 21/1/24
f 45/1/2 37/1/2 82/1/2 119/1/2
f 66/1/13 90/1/13 89/1/13 3/1/13
f 2/1/9 68/1/9 87/1/9 88/1/9
f 73/1/8 18/1/8 93/1/8 94/1/8
f 17/1/14 92/1/14 91/1/14 74/1/14
f 4/1/14 98/1/14 97/1/14 71/1/14
f 70/1/8 5/1/8 95/1/8 96/1/8
f 20/1/9 77/1/9 102/1/9 101/1/9
f 76/1/13 99/1/13 100/1/13 21/1/13
f 32/1/2 117/1/2 33/1/2 79/1/2
f 27/1/1 26/1/1 104/1/1 103/1/1
f 27/1/1 103/1/1 105/1/1
f 34/1/2 80/1/2 35/1/2 81/1/2
f 29/1/1 107/1/1 108/1/1
f 30/1/1 29/1/1 108/1/1 109/1/1
f 26/1/1 38/1/1 110/1/1 104/1/1
f 38/1/1 111/1/1 110/1/1
f 43/1/2 86/1/2 44/1/2 85/1/2
f 40/1/1 114/1/1 113/1/1
f 40/1/1 30/1/1 109/1/1 114/1/1
f 124/1/2 123/1/2 119/1/2 82/1/2
f 120/1/2 83/1/2 121/1/2 78/1/2
f 33/1/2 46/1/2 115/1/2 80/1/2
f 116/1/2 122/1/2 124/1/2 82/1/2
f 83/1/25 118/1/25 39/1/25 38/1/25
f 121/1/26 83/1/26 38/1/26 26/1/26
f 26/1/26 27/1/26 46/1/26 121/1/26
f 27/1/11 28/1/11 115/1/11 46/1/11
f 122/1/2 116/1/2 35/1/2
f 39/1/1 40/1/1 113/1/1 112/1/1
f 27/1/1 105/1/1 106/1/1 28/1/1
f 123/1/2 44/1/2 119/1/2
f 83/1/2 42/1/2 85/1/2 118/1/2
f 29/1/1 28/1/1 106/1/1 107/1/1
f 118/1/25 123/1/25 40/1/25 39/1/25
f 123/1/27 124/1/27 30/1/27 40/1/27
f 29/1/27 30/1/27 124/1/27 122/1/27
f 77/1/1 125/1/1 141/1/1 7/1/1
f 4/1/1 24/1/1 139/1/1 6/1/1
f 66/1/1 142/1/1 144/1/1 1/1/1
f 125/1/28 140/1/28 48/1/28 49/1/28
f 141/1/27 125/1/27 49/1/27 75/1/27
f 75/1/27 72/1/27 24/1/27 141/1/27
f 72/1/29 69/1/29 139/1/29 24/1/29
f 142/1/1 66/1/1 3/1/1
f 48/1/2 47/1/2 137/1/2 136/1/2
f 72/1/2 129/1/2 130/1/2 69/1/2
f 143/1/1 18/1/1 73/1/1
f 125/1/1 20/1/1 126/1/1 140/1/1
f 67/1/2 69/1/2 130/1/2 131/1/2
f 140/1/30 143/1/30 47/1/30 48/1/30
f 143/1/26 144/1/26 53/1/26 47/1/26
f 67/1/26 53/1/26 144/1/26 142/1/26
f 206/2/26 208/3/26 149/4/26 145/5/26
f 154/6/11 158/7/11 152/8/11 148/9/11
f 194/10/27 196/11/27 151/12/27 147/13/27
f 156/14/25 160/15/25 150/16/25 146/17/25
f 145/18/25 149/19/25 159/20/25 155/21/25
f 147/13/11 151/12/11 157/22/11 153/23/11
f 210/2/27 161/5/27 165/4/27 212/3/27
f 170/6/25 164/9/25 168/8/25 174/7/25
f 198/10/26 163/13/26 167/12/26 200/11/26
f 172/14/11 162/17/11 166/16/11 176/15/11
f 161/18/11 171/21/11 175/20/11 165/19/11
f 163/13/25 169/23/25 173/22/25 167/12/25
f 206/2/2 145/5/2 161/5/2 210/2/2
f 154/6/2 148/9/2 164/9/2 170/6/2
f 194/10/2 147/13/2 163/13/2 198/10/2
f 156/14/2 146/17/2 162/17/2 172/14/2
f 147/13/2 153/23/2 169/23/2 163/13/2
f 145/18/2 155/21/2 171/21/2 161/18/2
f 155/21/27 159/20/27 175/20/27 171/21/27
f 160/15/26 156/14/26 172/14/26 176/15/26
f 153/23/26 157/22/26 173/22/26 169/23/26
f 158/7/27 154/6/27 170/6/27 174/7/27
f 157/22/2 158/7/2 174/7/2 173/22/2
f 159/20/2 160/15/2 176/15/2 175/20/2
f 160/15/25 183/24/25 177/25/25 150/16/25
f 196/11/27 202/26/27 178/27/27 151/12/27
f 158/7/11 181/28/11 179/29/11 152/8/11
f 208/3/26 214/30/26 184/31/26 149/4/26
f 151/12/11 178/27/11 180/32/11 157/22/11
f 157/22/11 180/32/11 181/28/11 158/7/11
f 149/19/25 184/33/25 182/34/25 159/20/25
f 159/20/25 182/34/25 183/24/25 160/15/25
f 175/20/11 176/15/11 191/24/11 190/34/11
f 165/19/11 175/20/11 190/34/11 192/33/11
f 173/22/25 174/7/25 189/28/25 188/32/25
f 167/12/25 173/22/25 188/32/25 186/27/25
f 212/3/27 165/4/27 192/31/27 215/30/27
f 174/7/25 168/8/25 187/29/25 189/28/25
f 200/11/26 167/12/26 186/27/26 203/26/26
f 176/15/11 166/16/11 185/25/11 191/24/11
f 202/26/1 203/26/1 186/27/1 178/27/1
f 178/27/1 186/27/1 188/32/1 180/32/1
f 180/32/1 188/32/1 189/28/1 181/28/1
f 181/28/1 189/28/1 187/29/1 179/29/1
f 214/30/1 215/30/1 192/31/1 184/31/1
f 184/31/1 192/31/1 190/34/1 182/34/1
f 182/34/1 190/34/1 191/24/1 183/24/1
f 183/24/1 191/24/1 185/25/1 177/25/1
f 177/25/1 185/25/1 204/35/1 201/35/1
f 166/16/26 199/36/26 204/35/26 185/25/26
f 150/16/27 177/25/27 201/35/27 195/36/27
f 146/17/2 193/37/2 197/37/2 162/17/2
f 162/17/26 197/37/26 199/36/26 166/16/26
f 202/26/25 196/11/25 200/11/25 203/26/25
f 146/17/27 150/16/27 195/36/27 193/37/27
f 194/10/25 198/10/25 200/11/25 196/11/25
f 179/29/1 187/29/1 216/38/1 213/38/1
f 207/39/25 213/38/25 216/38/25 211/39/25
f 168/8/27 211/39/27 216/38/27 187/29/27
f 211/39/25 209/40/25 205/40/25 207/39/25
f 152/8/26 179/29/26 213/38/26 207/39/26
f 208/3/11 212/3/11 215/30/11 214/30/11
f 148/9/2 205/40/2 209/40/2 164/9/2
f 212/3/11 208/3/11 206/2/11 210/2/11
f 164/9/27 209/40/27 211/39/27 168/8/27
f 193/37/11 195/36/11 199/36/11 197/37/11
f 148/9/26 152/8/26 207/39/26 205/40/26
f 201/35/11 204/35/11 199/36/11 195/36/11
f 41/1/2 84/1/2 42/1/2 120/1/2
f 86/1/2 45/1/2 119/1/2 44/1/2
f 81/1/2 35/1/2 116/1/2 36/1/2
