# Blender 5.1.2
# www.blender.org
mtllib PanopticonBridgeWire.mtl
o PanopticonBridgeWire
v 27.444685 -0.223201 6.520195
v 27.444685 -0.173128 6.468946
v 27.444685 -0.101484 6.468116
v 27.444685 -0.050235 6.518188
v 27.444685 -0.171122 6.641913
v 27.444685 -0.222370 6.591840
v 27.444685 -0.049404 6.589833
v 27.444685 -0.099477 6.641081
v 7.863683 -0.049404 6.589819
v 7.863683 -0.171122 6.641899
v 7.863683 -0.099477 6.641068
v 7.863683 -0.050235 6.518175
v 7.863683 -0.222370 6.591826
v 7.863683 -0.101484 6.468102
v 7.863683 -0.173128 6.468933
v 7.863683 -0.223201 6.520181
v -27.444918 -0.223201 6.520195
v -27.444918 -0.173128 6.468946
v -27.444918 -0.101484 6.468116
v -27.444918 -0.050235 6.518188
v -27.444918 -0.171122 6.641913
v -27.444918 -0.222370 6.591840
v -27.444918 -0.049404 6.589833
v -27.444918 -0.099477 6.641081
v -7.863945 -0.049404 6.589819
v -7.863945 -0.171122 6.641899
v -7.863945 -0.099477 6.641068
v -7.863945 -0.050235 6.518175
v -7.863945 -0.222370 6.591826
v -7.863945 -0.101484 6.468102
v -7.863945 -0.173128 6.468933
v -7.863945 -0.223201 6.520181
v 27.444685 -0.223201 -6.520178
v 27.444685 -0.173128 -6.468929
v 27.444685 -0.101484 -6.468099
v 27.444685 -0.050235 -6.518171
v 27.444685 -0.171122 -6.641896
v 27.444685 -0.222370 -6.591823
v 27.444685 -0.049404 -6.589816
v 27.444685 -0.099477 -6.641064
v 11.809861 -0.049404 -6.589802
v 11.809861 -0.171122 -6.641882
v 11.809861 -0.099477 -6.641051
v 11.809861 -0.050235 -6.518157
v 11.809861 -0.222370 -6.591809
v 11.809861 -0.101484 -6.468084
v 11.809861 -0.173128 -6.468916
v 11.809861 -0.223201 -6.520164
v -27.444918 -0.223201 -6.520178
v -27.444918 -0.173128 -6.468929
v -27.444918 -0.101484 -6.468099
v -27.444918 -0.050235 -6.518171
v -27.444918 -0.171122 -6.641896
v -27.444918 -0.222370 -6.591823
v -27.444918 -0.049404 -6.589816
v -27.444918 -0.099477 -6.641064
v -11.810092 -0.049404 -6.589802
v -11.810092 -0.171122 -6.641882
v -11.810092 -0.099477 -6.641051
v -11.810092 -0.050235 -6.518157
v -11.810092 -0.222370 -6.591809
v -11.810092 -0.101484 -6.468084
v -11.810092 -0.173128 -6.468916
v -11.810092 -0.223201 -6.520164
vn -0.0000 -0.0116 -0.9999
vn -0.0000 -0.9999 0.0116
vn -0.0000 0.9999 -0.0116
vn -0.0000 -0.6989 0.7153
vn -0.0000 0.7153 0.6989
vn -0.0000 -0.7153 -0.6989
vn -0.0000 0.0116 0.9999
vn -0.0000 0.6989 -0.7153
vn -0.0000 -0.0116 0.9999
vn -0.0000 -0.9999 -0.0116
vn -0.0000 0.9999 0.0116
vn -0.0000 -0.6989 -0.7153
vn -0.0000 0.7153 -0.6989
vn -0.0000 -0.7153 0.6989
vn -0.0000 0.0116 -0.9999
vn -0.0000 0.6989 0.7153
vt 0.446516 0.000000
vt 0.446516 0.000000
vt 0.553484 0.000000
vt 0.375000 0.178484
vt 0.375000 0.071516
vt 0.625000 0.071516
vt 0.625000 0.214242
vt 0.446516 0.250000
vt 0.446516 0.250000
vt 0.553484 0.250000
s 0
f 2/1/1 15/2/1 14/3/1 3/3/1
f 6/4/2 13/4/2 16/5/2 1/5/2
f 4/6/3 12/6/3 9/7/3 7/7/3
f 5/8/4 10/9/4 13/4/4 6/4/4
f 7/7/5 9/7/5 11/10/5 8/10/5
f 1/5/6 16/5/6 15/2/6 2/1/6
f 8/10/7 11/10/7 10/9/7 5/8/7
f 3/3/8 14/3/8 12/6/8 4/6/8
f 18/1/1 19/3/1 30/3/1 31/2/1
f 22/4/2 17/5/2 32/5/2 29/4/2
f 20/6/3 23/7/3 25/7/3 28/6/3
f 21/8/4 22/4/4 29/4/4 26/9/4
f 23/7/5 24/10/5 27/10/5 25/7/5
f 17/5/6 18/1/6 31/2/6 32/5/6
f 24/10/7 21/8/7 26/9/7 27/10/7
f 19/3/8 20/6/8 28/6/8 30/3/8
f 34/1/9 35/3/9 46/3/9 47/2/9
f 38/4/10 33/5/10 48/5/10 45/4/10
f 36/6/11 39/7/11 41/7/11 44/6/11
f 37/8/12 38/4/12 45/4/12 42/9/12
f 39/7/13 40/10/13 43/10/13 41/7/13
f 33/5/14 34/1/14 47/2/14 48/5/14
f 40/10/15 37/8/15 42/9/15 43/10/15
f 35/3/16 36/6/16 44/6/16 46/3/16
f 50/1/9 63/2/9 62/3/9 51/3/9
f 54/4/10 61/4/10 64/5/10 49/5/10
f 52/6/11 60/6/11 57/7/11 55/7/11
f 53/8/12 58/9/12 61/4/12 54/4/12
f 55/7/13 57/7/13 59/10/13 56/10/13
f 49/5/14 64/5/14 63/2/14 50/1/14
f 56/10/15 59/10/15 58/9/15 53/8/15
f 51/3/16 62/3/16 60/6/16 52/6/16
