# Blender 5.2.2 LTS
# www.blender.org
mtllib DoorwayPrisonRailLaboratory.mtl
o DoorwayPrisonRailLaboratory
v -0.099879 4.101650 -2.285550
v 0.099879 4.101650 -2.500488
v -0.099879 4.101650 2.285272
v -0.099879 0.313324 -2.500488
v 0.099879 0.313324 2.500209
v 0.099879 4.101650 -2.285550
v -0.099879 4.101650 -2.500488
v -0.099879 4.101650 2.500209
v 0.099879 4.101650 2.285272
v 0.099879 0.313324 -2.500488
v -0.099879 0.313324 -2.285550
v 0.099879 0.313324 2.285272
v -0.099879 0.313324 2.500209
v 0.099879 4.101650 2.500209
v 0.099879 0.313324 -2.285551
v -0.099879 0.313324 2.285272
v -0.099879 3.892219 2.285272
v 0.099879 3.892218 -2.285551
v 0.099879 3.892218 -2.500488
v 0.099879 3.892218 2.285272
v -0.099879 3.892218 2.500209
v -0.099879 3.892219 -2.285550
v 0.099879 3.892219 2.500209
v -0.099879 3.892219 -2.500488
v 0.099879 2.791906 2.285272
v -0.099879 2.791906 2.500209
v -0.099879 2.791906 2.285272
v 0.099879 2.791906 2.500209
v 0.099879 2.791906 -2.285551
v 0.099879 2.791906 -2.500488
v -0.099879 2.791906 -2.285550
v -0.099879 2.791906 -2.500488
v 0.099879 4.101650 0.761665
v 0.099879 4.101650 -0.761943
v -0.099879 4.101650 0.761665
v -0.099879 4.101650 -0.761943
v 0.099879 3.892218 0.761665
v 0.099879 3.892218 -0.761943
v -0.099879 3.892219 0.761665
v -0.099879 3.892219 -0.761943
v 0.099879 0.313324 -1.564926
v 0.099879 0.313324 1.564648
v -0.099879 0.313324 1.564648
v -0.099879 0.313324 -1.564926
v -0.099879 -0.100005 2.500209
v -0.099879 -0.100005 -2.285550
v -0.099879 -0.100005 2.285272
v 0.099878 -0.100005 -2.500488
v 0.099878 -0.100005 2.500209
v 0.099878 -0.100005 2.285272
v 0.099878 -0.100005 -2.285551
v -0.099879 -0.100005 -2.500488
v -0.099879 -0.100005 1.564648
v 0.099878 -0.100005 1.564647
v -0.099879 -0.100005 -1.564926
v 0.099878 -0.100005 -1.564926
v 0.099879 2.100966 -2.285551
v 0.099879 2.100966 -2.500488
v -0.099879 2.100966 -2.285550
v -0.099879 2.100966 -2.500488
v 0.099879 2.100966 2.285272
v -0.099879 2.100966 2.500209
v -0.099879 2.100966 2.285272
v 0.099879 2.100966 2.500209
v -0.099879 0.100283 2.500209
v 0.099879 0.100283 2.285272
v 0.099879 0.100283 1.564648
v 0.099879 0.100283 -1.564926
v 0.099879 0.100283 2.500209
v -0.099879 0.100283 -1.564926
v -0.099879 0.100283 1.564648
v -0.099879 0.100283 2.285272
v 0.099879 0.100283 -2.500488
v -0.099879 0.100283 -2.500488
v 0.099879 0.100283 -2.285551
v -0.099879 0.100283 -2.285550
vn -1.0000 -0.0000 -0.0000
vn 1.0000 -0.0000 -0.0000
vn -0.0000 -0.0000 -1.0000
vn -0.0000 1.0000 -0.0000
vn -0.0000 -0.0000 1.0000
vn -0.0000 -1.0000 -0.0000
vt 0.042981 0.642590
vt 0.000000 0.642590
vt 0.000000 0.600710
vt 0.042981 0.600710
vt 1.000000 1.000824
vt 0.957019 1.000824
vt 0.957019 0.643345
vt 1.000000 0.643345
vt 0.480013 0.558541
vt 0.519953 0.558541
vt 0.519953 0.598376
vt 0.480013 0.598376
vt 1.000002 0.558540
vt 1.000002 0.598592
vt 0.957021 0.598592
vt 0.957021 0.558540
vt 0.347660 0.642590
vt 0.347660 0.600710
vt 1.000000 0.642591
vt 0.957019 0.642591
vt 0.957019 0.600710
vt 1.000000 0.600710
vt 0.957019 0.677757
vt 1.000000 0.677757
vt 1.000000 0.717703
vt 0.957019 0.717703
vt 0.480013 0.558541
vt 0.519953 0.558541
vt 0.652340 0.677757
vt 0.652340 0.717703
vt 0.187088 0.558540
vt 0.187088 0.598592
vt 0.042984 0.598592
vt 0.042984 0.558540
vt 0.124850 0.765586
vt 0.160688 0.765586
vt 0.160688 0.962992
vt 0.124850 0.962992
vt 0.042981 1.000824
vt 0.000000 1.000824
vt 0.000000 0.643345
vt 0.042981 0.643345
vt 0.957021 0.558540
vt 1.000002 0.558540
vt 1.000002 0.598592
vt 0.957021 0.598592
vt 0.042984 0.558540
vt 0.042984 0.598592
vt 0.000002 0.598592
vt 0.000002 0.558540
vt 0.096911 1.000690
vt 0.056976 1.000690
vt 0.056976 0.643309
vt 0.096911 0.643309
vt 0.000000 0.677757
vt 0.042981 0.677757
vt 0.042981 0.717703
vt 0.000000 0.717703
vt 0.160688 1.000566
vt 0.124850 1.000566
vt 0.652340 0.600710
vt 0.957019 0.600710
vt 0.957019 0.642590
vt 0.652340 0.642591
vt 1.000000 0.600710
vt 1.000000 0.642590
vt 1.000000 0.862622
vt 0.957019 0.862622
vt 0.347687 0.769970
vt 0.043061 0.769969
vt 0.043061 0.730030
vt 0.347687 0.730031
vt 0.000000 0.600710
vt 0.042982 0.600710
vt 0.042981 0.642591
vt 0.000000 0.642590
vt 0.042981 0.862622
vt 0.000000 0.862622
vt 0.042981 1.000791
vt 0.000000 1.000791
vt 0.124850 0.765586
vt 0.160688 0.765586
vt 0.417834 0.993469
vt 0.417834 0.821239
vt 0.449102 0.821239
vt 0.449102 0.993469
vt 1.000000 0.862622
vt 0.957019 0.862622
vt 0.449102 0.993469
vt 0.417834 0.993469
vt 0.417834 0.821239
vt 0.449102 0.821239
vt 1.000000 1.000791
vt 0.957019 1.000791
vt 0.124850 0.641625
vt 0.160688 0.641625
vt 0.042982 0.862622
vt 0.000000 0.862622
vt 0.956939 0.769970
vt 0.652313 0.769970
vt 0.652313 0.730031
vt 0.956939 0.730031
vt 0.347661 0.642590
vt 0.347660 0.677757
vt 0.347660 0.717703
vt 0.652340 0.642590
vt 0.812916 0.558540
vt 0.812916 0.598592
vt 0.812914 0.600743
vt 0.812914 0.643345
vt 0.187086 0.643345
vt 0.187086 0.600743
vt 0.042981 0.600743
vt 0.957019 0.600743
vt 0.187036 0.823611
vt 0.812964 0.823611
vt 0.812964 0.863563
vt 0.187036 0.863563
vt 0.042984 0.598486
vt 0.000002 0.598486
vt 0.000002 0.558540
vt 1.000002 0.598486
vt 0.957021 0.598486
vt 1.000002 0.558540
vt 0.812916 0.598486
vt 0.812916 0.558540
vt 0.187088 0.598486
vt 0.000002 0.598592
vt 0.056975 0.643309
vt 0.096911 0.643309
vt 0.056976 1.000690
vt 0.042981 0.643345
vt 0.042981 1.000824
vt 0.000000 1.000824
vt 0.042982 1.000791
vt 0.000000 1.000791
vt 0.187086 0.643345
vt 0.957019 1.000824
vt 0.957019 0.643345
vt 1.000000 0.643345
vt 0.812914 0.643345
vt 0.124850 0.641625
vt 0.160688 0.641625
vt 1.000000 1.000791
vt 0.957019 1.000791
vt 0.957019 0.600743
vt 1.000000 0.600743
vt 0.187088 0.598592
vt 0.187088 0.558540
vt 0.812916 0.598592
vt 0.042981 0.600743
vt 0.812914 0.600743
vt 1.000000 0.600743
vt 0.000000 0.600743
vt 0.056975 0.600718
vt 0.096911 0.600718
vt 0.056975 0.600718
vt 0.096911 0.600718
s 0
usemtl M_WallLaboratory
f 17/1/1 21/2/1 8/3/1 3/4/1
f 58/5/2 57/6/2 15/7/2 10/8/2
f 73/9/3 48/10/3 52/11/3 74/12/3
f 74/13/1 52/14/1 46/15/1 76/16/1
f 39/17/1 17/1/1 3/4/1 35/18/1
f 24/19/1 22/20/1 1/21/1 7/22/1
f 3/23/4 8/24/4 14/25/4 9/26/4
f 65/11/5 45/12/5 49/27/5 69/28/5
f 35/29/4 3/23/4 9/26/4 33/30/4
f 71/31/1 53/32/1 47/33/1 72/34/1
f 30/35/3 32/36/3 24/37/3 19/38/3
f 61/39/2 64/40/2 5/41/2 12/42/2
f 66/43/2 69/44/2 49/45/2 50/46/2
f 75/47/2 51/48/2 48/49/2 73/50/2
f 64/51/5 62/52/5 13/53/5 5/54/5
f 7/55/4 1/56/4 6/57/4 2/58/4
f 19/38/3 24/37/3 7/59/3 2/60/3
f 14/59/5 8/60/5 21/38/5 23/37/5
f 33/61/2 9/62/2 20/63/2 37/64/2
f 9/62/2 14/65/2 23/66/2 20/63/2
f 32/67/1 31/68/1 22/20/1 24/19/1
f 37/69/6 20/70/6 17/71/6 39/72/6
f 2/73/2 6/74/2 18/75/2 19/76/2
f 27/77/1 26/78/1 21/2/1 17/1/1
f 63/79/1 62/80/1 26/78/1 27/77/1
f 23/37/5 21/38/5 26/81/5 28/82/5
f 20/83/3 25/84/3 27/85/3 17/86/3
f 20/63/2 23/66/2 28/87/2 25/88/2
f 18/89/5 22/90/5 31/91/5 29/92/5
f 60/93/1 59/94/1 31/68/1 32/67/1
f 58/95/3 60/96/3 32/36/3 30/35/3
f 19/76/2 18/75/2 29/97/2 30/98/2
f 18/99/6 38/100/6 40/101/6 22/102/6
f 6/74/2 34/18/2 38/103/2 18/75/2
f 34/18/2 33/61/2 37/64/2 38/103/2
f 1/56/4 36/104/4 34/105/4 6/57/4
f 36/104/4 35/29/4 33/30/4 34/105/4
f 22/20/1 40/106/1 36/61/1 1/21/1
f 40/106/1 39/17/1 35/18/1 36/61/1
f 38/100/6 37/69/6 39/72/6 40/101/6
f 71/31/1 70/107/1 55/108/1 53/32/1
f 76/16/1 46/15/1 55/108/1 70/107/1
f 68/109/2 41/110/2 42/111/2 67/112/2
f 67/112/2 42/111/2 12/42/2 66/113/2
f 68/109/2 75/114/2 15/7/2 41/110/2
f 44/115/4 43/116/4 42/117/4 41/118/4
f 50/119/6 49/120/6 45/121/6 47/34/6
f 48/122/6 51/123/6 46/43/6 52/124/6
f 46/43/6 51/123/6 56/125/6 55/126/6
f 50/119/6 47/34/6 53/31/6 54/127/6
f 53/31/6 55/126/6 56/125/6 54/127/6
f 72/34/1 47/33/1 45/128/1 65/121/1
f 10/129/3 4/130/3 60/51/3 58/131/3
f 4/41/1 11/132/1 59/133/1 60/134/1
f 59/133/5 57/6/5 29/97/5 31/91/5
f 57/6/5 59/133/5 11/132/5 15/7/5
f 30/98/2 29/97/2 57/135/2 58/136/2
f 41/110/4 15/7/4 11/132/4 44/137/4
f 63/138/3 27/85/3 25/88/3 61/39/3
f 61/39/3 12/42/3 16/139/3 63/138/3
f 16/139/1 13/140/1 62/5/1 63/138/1
f 42/111/4 43/141/4 16/139/4 12/42/4
f 28/82/5 26/81/5 62/142/5 64/143/5
f 25/88/2 28/87/2 64/144/2 61/145/2
f 16/139/1 72/146/1 65/147/1 13/140/1
f 56/148/2 51/48/2 75/47/2 68/149/2
f 54/150/2 67/126/2 66/43/2 50/46/2
f 56/148/2 68/149/2 67/126/2 54/150/2
f 11/132/1 76/151/1 70/112/1 44/137/1
f 43/141/1 44/137/1 70/112/1 71/152/1
f 15/7/2 75/114/2 73/153/2 10/8/2
f 12/42/2 5/41/2 69/154/2 66/113/2
f 43/141/1 71/152/1 72/146/1 16/139/1
f 13/53/5 65/155/5 69/156/5 5/54/5
f 4/41/1 74/154/1 76/151/1 11/132/1
f 10/129/3 73/157/3 74/158/3 4/130/3
