# Blender 5.2.0 LTS
# www.blender.org
mtllib DoorwaySingleBaseLaboratory.mtl
o DoorwaySingleBaseLaboratory
v 0.099886 4.101650 -2.500488
v -0.099871 2.327184 -2.500488
v -0.099871 2.327184 2.500209
v -0.099871 4.101650 -2.500488
v -0.099871 4.101650 2.500209
v 0.099886 2.327184 -2.500488
v 0.099886 2.327184 2.500209
v 0.099886 2.327184 -0.599923
v 0.099886 2.327184 0.601307
v 0.099886 4.101650 2.500209
v -0.099871 2.327184 -0.602804
v -0.099871 2.327184 0.599867
v -0.099871 -0.100005 2.500209
v -0.099872 -0.100005 0.601307
v -0.099872 -0.100005 -0.599923
v 0.099886 -0.100005 -0.599923
v 0.099885 -0.100005 -2.500488
v 0.099885 -0.100005 2.500209
v 0.099886 -0.100005 0.601307
v -0.099871 -0.100005 -2.500488
v -0.099871 1.399248 -0.601364
v 0.099886 1.399248 -0.599923
v -0.099871 1.399248 -2.500488
v 0.099886 1.399248 -2.500488
v -0.099871 1.399248 2.500209
v 0.099886 1.399249 2.500209
v 0.099886 1.399248 0.601307
v -0.099871 1.399248 0.600587
v 0.099886 2.105150 -0.599923
v -0.099871 2.105150 -0.602084
v -0.099871 2.105150 -2.500488
v 0.099886 2.105150 -2.500488
v 0.099886 2.105150 2.500209
v 0.099886 2.105150 0.601307
v -0.099871 2.105150 2.500209
v -0.099871 2.105150 0.600227
v -0.099872 0.100369 -0.600644
v -0.099871 0.100369 -2.500488
v 0.099886 0.100369 -2.500488
v 0.099886 0.100369 -0.599923
v -0.099871 0.100369 2.500209
v -0.099872 0.100369 0.600947
v 0.099886 0.100369 2.500209
v 0.099886 0.100369 0.601307
vn 1.0000 -0.0000 -0.0000
vn -0.0000 -0.0000 -1.0000
vn -0.0000 -0.0000 1.0000
vn -1.0000 -0.0000 -0.0000
vn 0.0009 -0.0009 -1.0000
vn -0.0000 -1.0000 -0.0000
vn -0.0000 1.0000 -0.0000
vn -0.0018 0.0018 1.0000
vn -0.0090 0.0005 1.0000
vn 0.0045 -0.0003 -1.0000
vn -0.0126 0.0016 0.9999
vn 0.0063 -0.0008 -1.0000
vn -0.0054 0.0003 1.0000
vn 0.0027 -0.0001 -1.0000
vt 1.000085 0.999776
vt 0.000085 0.999776
vt 0.000085 0.644932
vt 0.379812 0.644932
vt 0.620025 0.644932
vt 1.000085 0.644932
vt 0.476930 0.600524
vt 0.476930 0.553300
vt 0.524008 0.553300
vt 0.524008 0.600524
vt 0.521433 0.999706
vt 0.481514 0.999706
vt 0.481514 0.645099
vt 0.521433 0.645099
vt 0.524008 0.600524
vt 0.379569 0.644932
vt 0.620070 0.644932
vt 0.000085 0.644932
vt 0.723458 0.553348
vt 0.723458 0.600381
vt 0.277352 0.600381
vt 0.277352 0.553348
vt 0.521433 0.999706
vt 0.481514 0.999706
vt 0.481514 0.645099
vt 0.521433 0.645099
vt 0.723458 0.600422
vt 0.277352 0.600422
vt 0.476930 0.600524
vt 0.476930 0.553300
vt 0.524008 0.553300
vt 0.524008 0.600524
vt 0.277521 0.553348
vt 0.636595 0.800422
vt 0.635950 0.845182
vt 0.366790 0.845182
vt 0.367112 0.800423
vt 1.000000 0.734355
vt 0.000000 0.734355
vt 0.000000 0.694409
vt 1.000000 0.694409
vt 0.723373 0.600413
vt 0.277352 0.600413
vt 0.105196 1.000000
vt 0.000000 1.000000
vt 0.000000 -0.000000
vt 0.105196 -0.000000
vt -0.000000 1.000000
vt 0.000000 0.000000
vt 0.105104 0.000000
vt 0.105104 1.000000
vt 0.476930 0.553300
vt 0.524008 0.553300
vt 0.524008 0.600523
vt 0.554106 0.600970
vt 0.554107 0.501644
vt 0.582215 0.501644
vt 0.582215 0.600970
vt 0.434341 0.601042
vt 0.434341 0.501612
vt 0.701840 0.501612
vt 0.701739 0.601042
vt 0.434341 0.601042
vt 0.434341 0.501688
vt 0.701840 0.501688
vt 0.701840 0.601042
vt 0.554106 0.600970
vt 0.554106 0.501644
vt 0.582213 0.501644
vt 0.582213 0.600970
vt 0.434341 0.600997
vt 0.434391 0.501612
vt 0.701840 0.600997
vt 0.582213 0.501644
vt 0.582214 0.600970
vt 0.434341 0.501601
vt 0.701840 0.501601
vt 0.701840 0.601042
vt 0.481514 0.600728
vt 0.521433 0.600728
vt 0.620025 0.600531
vt 1.000085 0.600531
vt 0.000085 0.600531
vt 0.379713 0.600531
vt 0.521707 0.800105
vt 0.521705 0.844886
vt 0.481415 0.844886
vt 0.481415 0.800105
vt 0.481514 0.600728
vt 0.521433 0.600728
vt 0.000085 0.600531
vt 0.379812 0.600531
vt 0.481415 0.800105
vt 0.521704 0.800105
vt 0.521704 0.844886
vt 0.620142 0.600531
vt 1.000085 0.600531
vt 0.453110 0.431237
vt 0.453111 0.252499
vt 0.480600 0.252499
vt 0.480599 0.431237
vt 0.312808 0.431151
vt 0.312808 0.252674
vt 0.573862 0.252674
vt 0.573763 0.431151
vt 0.362551 0.431151
vt 0.362551 0.252742
vt 0.623605 0.252742
vt 0.623605 0.431151
vt 0.453110 0.431237
vt 0.453110 0.252499
vt 0.480599 0.252499
vt 0.480599 0.431237
vt 0.365007 0.431151
vt 0.365057 0.252653
vt 0.626061 0.252653
vt 0.626061 0.431151
vt 0.453110 0.252499
vt 0.480599 0.252499
vt 0.480599 0.431237
vt 0.313423 0.431151
vt 0.313423 0.252586
vt 0.574476 0.252585
vt 0.574476 0.431151
vt 0.453110 0.252499
vt 0.480599 0.252499
s 0
usemtl M_WallLaboratory
f 1/1/1 10/2/1 7/3/1 9/4/1 8/5/1 6/6/1
f 39/7/2 17/8/2 20/9/2 38/10/2
f 4/11/2 1/12/2 6/13/2 2/14/2
f 41/9/3 13/15/3 18/7/3 43/8/3
f 11/16/4 12/17/4 3/6/4 5/1/4 4/2/4 2/18/4
f 40/19/1 16/20/1 17/21/1 39/22/1
f 10/23/3 5/24/3 3/25/3 7/26/3
f 43/19/1 18/27/1 19/28/1 44/22/1
f 44/29/5 19/30/5 14/31/5 42/32/5
f 38/19/4 20/20/4 15/21/4 37/33/4
f 11/34/6 8/35/6 9/36/6 12/37/6
f 4/38/7 5/39/7 10/40/7 1/41/7
f 42/19/4 14/42/4 13/43/4 41/22/4
f 18/44/6 13/45/6 14/46/6 19/47/6
f 15/48/6 20/49/6 17/50/6 16/51/6
f 37/7/8 15/52/8 16/53/8 40/54/8
f 30/55/9 21/56/9 22/57/9 29/58/9
f 31/59/4 23/60/4 21/61/4 30/62/4
f 29/63/1 22/64/1 24/65/1 32/66/1
f 32/67/2 24/68/2 23/69/2 31/70/2
f 36/71/4 28/72/4 25/61/4 35/73/4
f 34/67/10 27/68/10 28/74/10 36/75/10
f 33/63/1 26/76/1 27/77/1 34/78/1
f 35/67/3 25/68/3 26/69/3 33/70/3
f 6/13/2 32/79/2 31/80/2 2/14/2
f 8/5/1 29/81/1 32/82/1 6/6/1
f 2/18/4 31/83/4 30/84/4 11/16/4
f 11/85/11 30/86/11 29/87/11 8/88/11
f 3/25/3 35/89/3 33/90/3 7/26/3
f 7/3/1 33/91/1 34/92/1 9/4/1
f 9/87/12 34/93/12 36/94/12 12/95/12
f 12/17/4 36/96/4 35/97/4 3/6/4
f 21/98/13 37/99/13 40/100/13 22/101/13
f 23/102/4 38/103/4 37/104/4 21/105/4
f 22/106/1 40/107/1 39/108/1 24/109/1
f 24/110/2 39/111/2 38/112/2 23/113/2
f 28/114/4 42/115/4 41/116/4 25/117/4
f 27/98/14 44/118/14 42/119/14 28/120/14
f 26/121/1 43/122/1 44/123/1 27/124/1
f 25/110/3 41/125/3 43/126/3 26/113/3
