# Blender 5.2.0 LTS
# www.blender.org
mtllib FloorLaboratory.mtl
o FloorLaboratory
v 2.500911 0.100005 2.499062
v -2.500911 0.100005 2.499062
v 2.500911 -0.100005 -2.500938
v -2.500911 -0.100005 -2.500938
v -2.500911 -0.100005 2.499062
v 2.500911 -0.100005 2.499062
v 2.500911 0.100005 -2.500938
v -2.500911 0.100005 -2.500938
vn -0.0000 -0.0000 1.0000
vn 1.0000 -0.0000 -0.0000
vn -1.0000 -0.0000 -0.0000
vn -0.0000 -0.0000 -1.0000
vn -0.0000 1.0000 -0.0000
vn -0.0000 -1.0000 -0.0000
vt 0.125026 0.323498
vt 0.125026 0.294379
vt 0.874974 0.294378
vt 0.874974 0.323498
vt 0.874848 0.325391
vt 0.188517 0.325391
vt 0.188517 0.285389
vt 0.874848 0.285389
vt 0.188517 0.325391
vt 0.188517 0.285389
vt 0.125026 0.323498
vt 0.125026 0.294378
vt 0.874974 0.323498
vt 0.874975 0.313680
vt 0.874975 1.000004
vt 0.125025 1.000004
vt 0.125025 0.313680
vt 0.135888 0.000614
vt 0.135888 0.248502
vt 0.864112 0.248502
vt 0.864112 0.000614
s 0
usemtl M_FloorLaboratory
f 2/1/1 5/2/1 6/3/1 1/4/1
f 7/5/2 1/6/2 6/7/2 3/8/2
f 2/5/3 8/9/3 4/10/3 5/8/3
f 7/11/4 3/12/4 4/3/4 8/13/4
f 8/14/5 2/15/5 1/16/5 7/17/5
f 3/18/6 6/19/6 5/20/6 4/21/6
