# Blender 5.2.0 LTS
# www.blender.org
mtllib FloorShootingLaboratory.mtl
o FloorShootingLaboratory
v -2.500911 0.100005 2.499758
v -2.500911 0.100005 -2.500242
v -2.500911 -0.100006 2.499758
v -2.500911 -0.100006 -2.500242
v 1.502333 -0.100006 2.499758
v 1.502333 0.100005 2.499758
v 1.502333 -0.100006 -2.500242
v 1.502333 0.100005 -2.500242
vn 1.0000 -0.0000 -0.0000
vn -0.0000 -1.0000 -0.0000
vn -0.0000 -0.0000 1.0000
vn -1.0000 -0.0000 -0.0000
vn -0.0000 1.0000 -0.0000
vn -0.0000 -0.0000 -1.0000
vt 0.123626 0.296276
vt 0.809838 0.296276
vt 0.809838 0.323726
vt 0.123626 0.323726
vt 0.150953 0.247865
vt 0.150953 -0.000518
vt 0.349822 -0.000518
vt 0.349822 0.247865
vt 0.190148 0.323726
vt 0.190148 0.296278
vt 0.757202 0.296278
vt 0.757202 0.323726
vt 0.812767 0.323726
vt 0.126556 0.323726
vt 0.126556 0.296276
vt 0.812767 0.296276
vt 0.750173 0.313858
vt 0.750173 1.000087
vt 0.183070 1.000087
vt 0.183070 0.313858
vt 0.750146 0.296278
vt 0.750146 0.323726
vt 0.183092 0.323726
vt 0.183092 0.296278
s 0
usemtl M_FloorLaboratory
f 5/1/1 7/2/1 8/3/1 6/4/1
f 3/5/2 4/6/2 7/7/2 5/8/2
f 1/9/3 3/10/3 5/11/3 6/12/3
f 1/13/4 2/14/4 4/15/4 3/16/4
f 2/17/5 1/18/5 6/19/5 8/20/5
f 4/21/6 2/22/6 8/23/6 7/24/6
