# Blender 5.2.0 LTS
# www.blender.org
mtllib FloorBrokenSideLaboratory.mtl
o FloorBrokenSideLaboratory
v 2.500911 0.100005 2.499062
v -2.500911 0.018625 2.499062
v 2.500911 0.100005 -2.500938
v -2.500911 0.100005 -2.500938
v -2.500911 0.018625 1.665729
v -0.763292 -0.043022 0.832395
v -0.529580 -0.097865 -0.000938
v -1.290862 -0.166687 -0.877063
v -2.500911 0.100005 -1.667605
v 2.500911 0.100005 -1.667605
v 2.500911 0.100005 -0.834271
v 2.500911 0.100005 -0.000938
v 2.500911 0.091852 0.832395
v 2.500911 0.100005 1.665729
v 1.984854 0.100005 2.499062
v 1.984854 0.100005 -2.500938
v 1.984854 0.100005 -1.667605
v 1.984854 0.100005 -0.834271
v 1.984854 0.100005 -0.000938
v 1.984854 0.087653 0.832395
v 1.984854 0.100005 1.665729
v -0.865750 0.100005 2.499062
v 0.255691 0.100005 2.499062
v 0.863413 0.100005 2.499062
v -0.865750 0.071589 -2.500938
v 0.255691 0.100005 -2.500938
v 0.863413 0.100005 -2.500938
v -0.865750 -0.010208 -1.667605
v 0.255691 0.068896 -1.667605
v 0.863413 0.100005 -1.667605
v -0.671697 -0.101447 -0.943468
v 0.255691 0.004726 -0.834271
v 0.863413 0.047678 -0.834271
v -0.702681 -0.064914 -0.992579
v 0.255691 0.004470 -0.000938
v 0.863413 0.016596 -0.000938
v -2.085609 -0.229093 -0.978080
v 0.255691 0.034837 0.832395
v 0.863413 0.052640 0.832395
v -0.865750 0.077306 1.665729
v 0.255691 0.066760 1.665729
v 0.863413 0.056145 1.665729
v -0.838373 0.022350 0.832395
v -1.174031 -0.252505 -0.000938
v -1.326469 -0.141920 0.832395
v -2.205061 -0.040465 1.127675
v -0.975513 0.042635 0.859115
v 2.500911 -0.100005 2.499062
v -2.500911 -0.181385 2.499062
v 2.500911 -0.100005 -2.500938
v -2.500911 -0.100005 -2.500938
v -2.500911 -0.181385 1.665729
v -0.763292 -0.243032 0.832395
v -0.529580 -0.297876 -0.000938
v -1.290862 -0.366697 -0.877063
v -2.500911 -0.100005 -1.667605
v 2.500911 -0.100005 -1.667605
v 2.500911 -0.100005 -0.834271
v 2.500911 -0.100005 -0.000938
v 2.500911 -0.108158 0.832395
v 2.500911 -0.100005 1.665729
v 1.984854 -0.100005 2.499062
v 1.984854 -0.100005 -2.500938
v 1.984854 -0.100005 -1.667605
v 1.984854 -0.100005 -0.834271
v 1.984854 -0.100005 -0.000938
v 1.984854 -0.112358 0.832395
v 1.984854 -0.100005 1.665729
v -0.865750 -0.100005 2.499062
v 0.255691 -0.100005 2.499062
v 0.863413 -0.100005 2.499062
v -0.865750 -0.128421 -2.500938
v 0.255691 -0.100005 -2.500938
v 0.863413 -0.100005 -2.500938
v -0.865750 -0.210218 -1.667605
v 0.255691 -0.131115 -1.667605
v 0.863413 -0.100005 -1.667605
v -0.671697 -0.301457 -0.943468
v 0.255691 -0.195284 -0.834271
v 0.863413 -0.152332 -0.834271
v -0.702681 -0.264924 -0.992579
v 0.255691 -0.195540 -0.000938
v 0.863413 -0.183414 -0.000938
v -2.085609 -0.429103 -0.978080
v 0.255691 -0.165173 0.832395
v 0.863413 -0.147370 0.832395
v -0.865750 -0.122704 1.665729
v 0.255691 -0.133250 1.665729
v 0.863413 -0.143865 1.665729
v -0.838373 -0.177660 0.832395
v -1.174031 -0.452515 -0.000938
v -1.326469 -0.341930 0.832395
v -2.205061 -0.240475 1.127675
v -0.975513 -0.157375 0.859115
vn -0.0000 1.0000 -0.0000
vn -0.0041 0.9999 0.0123
vn -0.0041 0.9999 -0.0123
vn -0.0351 0.9993 -0.0095
vn -0.0527 0.9985 -0.0142
vn -0.0604 0.9980 0.0186
vn -0.0233 0.9992 0.0314
vn -0.0195 0.9995 -0.0263
vn -0.0428 0.9990 -0.0136
vn 0.0047 0.9994 -0.0335
vn 0.0087 0.9989 -0.0462
vn 0.0423 0.9979 0.0490
vn -0.0478 0.9966 0.0675
vn -0.0256 0.9995 0.0187
vn -0.0565 0.9954 -0.0772
vn -0.2033 0.9686 -0.1433
vn -0.0607 0.9957 0.0696
vn -0.1675 0.9835 0.0683
vn -0.0158 0.9608 0.2769
vn -0.0453 0.9988 0.0188
vn -0.0009 0.9986 -0.0521
vn -0.0992 0.9930 -0.0647
vn -0.0246 0.9989 -0.0398
vn -0.1213 0.9926 0.0079
vn -0.0776 0.9932 0.0867
vn -0.0059 0.9998 -0.0213
vn -0.0000 -1.0000 -0.0000
vn 0.0041 -0.9999 -0.0123
vn 0.0041 -0.9999 0.0123
vn 0.0351 -0.9993 0.0095
vn 0.0527 -0.9985 0.0142
vn 0.0604 -0.9980 -0.0186
vn 0.0233 -0.9992 -0.0314
vn 0.0195 -0.9995 0.0263
vn 0.0428 -0.9990 0.0136
vn -0.0047 -0.9994 0.0335
vn -0.0087 -0.9989 0.0462
vn -0.0423 -0.9979 -0.0490
vn 0.0478 -0.9966 -0.0675
vn 0.0256 -0.9995 -0.0187
vn 0.0565 -0.9954 0.0772
vn 0.2033 -0.9686 0.1433
vn 0.0607 -0.9957 -0.0696
vn 0.1675 -0.9835 -0.0683
vn 0.0158 -0.9608 -0.2769
vn 0.0453 -0.9988 -0.0188
vn 0.0009 -0.9986 0.0521
vn 0.0992 -0.9930 0.0647
vn 0.0246 -0.9989 0.0398
vn 0.1213 -0.9926 -0.0079
vn 0.0776 -0.9932 -0.0867
vn 0.0059 -0.9998 0.0213
vn -0.0000 -0.0000 1.0000
vn -0.9995 -0.0000 -0.0328
vn -0.0000 -0.0000 -1.0000
vn -1.0000 -0.0000 -0.0000
vn 1.0000 -0.0000 -0.0000
vn -0.8763 -0.0000 -0.4818
vn -0.1066 -0.0000 -0.9943
vn -0.2134 -0.0000 -0.9770
vn 0.1169 -0.0000 -0.9931
vn -0.9837 -0.0000 -0.1799
vn -0.8566 -0.0000 0.5159
vn 0.9909 -0.0000 -0.1348
vn 0.0105 -0.0000 0.9999
vn -0.9912 -0.0000 0.1322
vn -0.1630 -0.0000 0.9866
vt 0.258036 0.886340
vt 0.257928 1.000766
vt 0.187067 1.000715
vt 0.187166 0.886289
vt 0.257899 0.313924
vt 0.258033 0.428361
vt 0.187169 0.428415
vt 0.187048 0.313987
vt 0.258155 0.542853
vt 0.187271 0.542878
vt 0.258171 0.657349
vt 0.187287 0.657348
vt 0.258140 0.771848
vt 0.187260 0.771819
vt 0.412288 0.771977
vt 0.412103 0.886394
vt 0.412665 0.657399
vt 0.412413 0.542843
vt 0.412066 0.428151
vt 0.411873 0.313697
vt 0.411878 1.000930
vt 0.874130 0.887229
vt 0.874010 1.001632
vt 0.649253 1.001438
vt 0.649506 0.886993
vt 0.495298 1.001097
vt 0.495536 0.886597
vt 0.873884 0.308427
vt 0.876264 0.422838
vt 0.650653 0.428337
vt 0.649353 0.313097
vt 0.495679 0.428121
vt 0.495327 0.313545
vt 0.664657 0.776168
vt 0.833911 0.812705
vt 0.636110 0.772781
vt 0.605429 0.657369
vt 0.696683 0.656777
vt 0.714680 0.772785
vt 0.496090 0.542927
vt 0.624172 0.527449
vt 0.709866 0.535425
vt 0.628028 0.521604
vt 0.819143 0.527287
vt 0.496220 0.657479
vt 0.495787 0.772104
vt 0.645982 0.772349
vt 0.290730 0.037441
vt 0.212900 0.037460
vt 0.212790 -0.004981
vt 0.290611 -0.005000
vt 0.290580 0.249750
vt 0.212770 0.249726
vt 0.212903 0.207285
vt 0.290727 0.207305
vt 0.213015 0.164831
vt 0.290861 0.164840
vt 0.213032 0.122374
vt 0.290879 0.122373
vt 0.213003 0.079916
vt 0.290845 0.079906
vt 0.460133 0.079858
vt 0.459929 0.037421
vt 0.460547 0.122355
vt 0.460270 0.164844
vt 0.459889 0.207383
vt 0.459677 0.249834
vt 0.459683 -0.005061
vt 0.967338 0.037111
vt 0.720651 0.037198
vt 0.720372 -0.005249
vt 0.967206 -0.005321
vt 0.551558 0.037345
vt 0.551296 -0.005123
vt 0.967067 0.251789
vt 0.720482 0.250057
vt 0.721910 0.207314
vt 0.969681 0.209353
vt 0.551328 0.249890
vt 0.551715 0.207394
vt 0.923168 0.064752
vt 0.737290 0.078304
vt 0.705939 0.079560
vt 0.792226 0.079558
vt 0.772462 0.122586
vt 0.672244 0.122366
vt 0.552166 0.164813
vt 0.786939 0.167595
vt 0.692828 0.170553
vt 0.697063 0.172721
vt 0.906949 0.170614
vt 0.552309 0.122325
vt 0.716780 0.079720
vt 0.551834 0.079811
vt 0.654688 0.322368
vt 0.654315 0.294914
vt 0.725213 0.294914
vt 0.725459 0.322368
vt 0.709779 0.328154
vt 0.709177 0.300839
vt 0.823210 0.300839
vt 0.823812 0.328154
vt 0.187249 0.328117
vt 0.187249 0.300580
vt 0.258300 0.300580
vt 0.258300 0.328117
vt 0.060560 0.328204
vt 0.060560 0.301616
vt 0.171340 0.301616
vt 0.171340 0.328204
vt 0.060311 0.322316
vt 0.060311 0.294854
vt 0.174732 0.294854
vt 0.174732 0.322316
vt 0.724971 0.328123
vt 0.724802 0.300752
vt 0.864400 0.300752
vt 0.864400 0.328123
vt 0.663890 0.328147
vt 0.663890 0.300760
vt 0.755534 0.300760
vt 0.756756 0.328147
vt 0.880859 0.300760
vt 0.880859 0.328147
vt 0.647817 0.328123
vt 0.647648 0.300752
vt 0.325741 0.328123
vt 0.325572 0.300752
vt 0.410735 0.300752
vt 0.410904 0.328123
vt 0.038630 0.322368
vt 0.038630 0.294914
vt 0.263039 0.294914
vt 0.263411 0.322368
vt 0.500758 0.322368
vt 0.500386 0.294914
vt 0.614123 0.327986
vt 0.615659 0.300951
vt 0.785647 0.300951
vt 0.785647 0.327986
vt 0.416969 0.294914
vt 0.417341 0.322368
vt 0.412699 0.300580
vt 0.412699 0.328117
vt 0.197957 0.328123
vt 0.197957 0.300752
vt 0.531790 0.328123
vt 0.531621 0.300752
vt 0.560402 0.328154
vt 0.559801 0.300839
vt 0.287133 0.301616
vt 0.287133 0.328204
vt 0.504589 0.327986
vt 0.504589 0.300951
vt 0.545933 0.327917
vt 0.545933 0.300959
vt 0.733195 0.300959
vt 0.735872 0.327917
vt 0.650769 0.328117
vt 0.650769 0.300580
vt 0.875897 0.300580
vt 0.875897 0.328117
vt 0.632419 0.322316
vt 0.632419 0.294854
vt 0.746841 0.294854
vt 0.746841 0.322316
vt 0.496370 0.328117
vt 0.496370 0.300580
vt 0.517998 0.322316
vt 0.517998 0.294854
vt 0.403576 0.322316
vt 0.403576 0.294854
vt 0.866386 0.300959
vt 0.866386 0.327917
vt 0.289154 0.321197
vt 0.289154 0.293734
s 0
usemtl M_FloorLaboratory
f 21/1/1 15/2/1 1/3/1 14/4/1
f 16/5/1 17/6/1 10/7/1 3/8/1
f 17/6/1 18/9/1 11/10/1 10/7/1
f 18/9/1 19/11/1 12/12/1 11/10/1
f 19/11/2 20/13/2 13/14/2 12/12/2
f 20/13/3 21/1/3 14/4/3 13/14/3
f 39/15/4 42/16/4 21/1/4 20/13/4
f 36/17/5 39/15/5 20/13/5 19/11/5
f 33/18/6 36/17/6 19/11/6 18/9/6
f 30/19/7 33/18/7 18/9/7 17/6/7
f 27/20/1 30/19/1 17/6/1 16/5/1
f 42/16/8 24/21/8 15/2/8 21/1/8
f 5/22/9 2/23/9 22/24/9 40/25/9
f 40/25/10 22/24/10 23/26/10 41/27/10
f 41/27/11 23/26/11 24/21/11 42/16/11
f 4/28/12 9/29/12 28/30/12 25/31/12
f 25/31/13 28/30/13 29/32/13 26/33/13
f 26/33/14 29/32/14 30/19/14 27/20/14
f 5/22/15 40/25/15 47/34/15 46/35/15
f 6/36/16 7/37/16 44/38/16 45/39/16
f 29/32/17 32/40/17 33/18/17 30/19/17
f 7/37/18 31/41/18 8/42/18 44/38/18
f 34/43/19 28/30/19 9/29/19 37/44/19
f 32/40/20 35/45/20 36/17/20 33/18/20
f 41/27/21 38/46/21 43/47/21 40/25/21
f 38/46/22 35/45/22 7/37/22 6/36/22
f 35/45/23 38/46/23 39/15/23 36/17/23
f 35/45/24 32/40/24 31/41/24 7/37/24
f 32/40/25 29/32/25 28/30/25 34/43/25
f 38/46/26 41/27/26 42/16/26 39/15/26
f 68/48/27 61/49/27 48/50/27 62/51/27
f 63/52/27 50/53/27 57/54/27 64/55/27
f 64/55/27 57/54/27 58/56/27 65/57/27
f 65/57/27 58/56/27 59/58/27 66/59/27
f 66/59/28 59/58/28 60/60/28 67/61/28
f 67/61/29 60/60/29 61/49/29 68/48/29
f 86/62/30 67/61/30 68/48/30 89/63/30
f 83/64/31 66/59/31 67/61/31 86/62/31
f 80/65/32 65/57/32 66/59/32 83/64/32
f 77/66/33 64/55/33 65/57/33 80/65/33
f 74/67/27 63/52/27 64/55/27 77/66/27
f 89/63/34 68/48/34 62/51/34 71/68/34
f 52/69/35 87/70/35 69/71/35 49/72/35
f 87/70/36 88/73/36 70/74/36 69/71/36
f 88/73/37 89/63/37 71/68/37 70/74/37
f 51/75/38 72/76/38 75/77/38 56/78/38
f 72/76/39 73/79/39 76/80/39 75/77/39
f 73/79/40 74/67/40 77/66/40 76/80/40
f 52/69/41 93/81/41 94/82/41 87/70/41
f 53/83/42 92/84/42 91/85/42 54/86/42
f 76/80/43 77/66/43 80/65/43 79/87/43
f 54/86/44 91/85/44 55/88/44 78/89/44
f 81/90/45 84/91/45 56/78/45 75/77/45
f 79/87/46 80/65/46 83/64/46 82/92/46
f 88/73/47 87/70/47 90/93/47 85/94/47
f 85/94/48 53/83/48 54/86/48 82/92/48
f 82/92/49 83/64/49 86/62/49 85/94/49
f 82/92/50 54/86/50 78/89/50 79/87/50
f 79/87/51 81/90/51 75/77/51 76/80/51
f 85/94/52 86/62/52 89/63/52 88/73/52
f 15/95/53 62/96/53 48/97/53 1/98/53
f 43/99/54 90/100/54 87/101/54 40/102/54
f 3/103/55 50/104/55 63/105/55 16/106/55
f 4/107/56 51/108/56 56/109/56 9/110/56
f 1/111/57 48/112/57 61/113/57 14/114/57
f 6/115/53 53/116/53 85/117/53 38/118/53
f 46/119/58 93/120/58 52/121/58 5/122/58
f 5/122/56 52/121/56 49/123/56 2/124/56
f 45/125/53 92/126/53 53/116/53 6/115/53
f 31/127/59 78/128/59 55/129/59 8/130/59
f 2/131/53 49/132/53 69/133/53 22/134/53
f 24/135/53 71/136/53 62/96/53 15/95/53
f 47/137/60 94/138/60 93/139/60 46/140/60
f 22/134/53 69/133/53 70/141/53 23/142/53
f 16/106/55 63/105/55 74/143/55 27/144/55
f 32/145/61 79/146/61 78/128/61 31/127/61
f 44/147/62 91/148/62 92/126/62 45/125/62
f 38/149/55 85/150/55 90/100/55 43/99/55
f 23/142/53 70/141/53 71/136/53 24/135/53
f 9/110/63 56/109/63 84/151/63 37/152/63
f 40/153/64 87/154/64 94/138/64 47/137/64
f 37/155/65 84/156/65 81/157/65 34/158/65
f 25/159/55 72/160/55 51/161/55 4/162/55
f 8/130/66 55/129/66 91/148/66 44/147/66
f 10/163/57 57/164/57 50/165/57 3/166/57
f 26/167/55 73/168/55 72/160/55 25/159/55
f 11/169/57 58/170/57 57/164/57 10/163/57
f 27/144/55 74/143/55 73/168/55 26/167/55
f 12/171/57 59/172/57 58/170/57 11/169/57
f 34/158/67 81/157/67 79/173/67 32/174/67
f 13/175/57 60/176/57 59/172/57 12/171/57
f 14/114/57 61/113/57 60/176/57 13/175/57
