# Blender 5.1.2
# www.blender.org
mtllib TubeHumanRing.mtl
o TubeHumanRing
v 0.000000 0.000001 2.347299
v -0.607526 0.000001 2.267317
v -1.173649 0.000001 2.032820
v -1.659791 0.000001 1.659791
v -2.032820 0.000001 1.173649
v -2.267317 0.000001 0.607526
v -2.347299 0.000001 -0.000000
v -2.267317 0.000001 -0.607526
v -2.032820 0.000001 -1.173649
v -1.659791 0.000001 -1.659791
v -1.173649 0.000001 -2.032820
v -0.607526 0.000001 -2.267317
v 0.000000 0.000001 -2.347299
v 0.607526 0.000001 -2.267317
v 1.173649 0.000001 -2.032820
v 1.659791 0.000001 -1.659791
v 2.032820 0.000001 -1.173649
v 2.267317 0.000001 -0.607526
v 2.347299 0.000001 -0.000000
v 2.267317 0.000001 0.607526
v 2.032820 0.000001 1.173649
v 1.659791 0.000001 1.659791
v 1.173649 0.000001 2.032820
v 0.607526 0.000001 2.267317
v 3.408480 0.000002 -3.408480
v 2.410160 0.000002 -4.174520
v 1.247591 0.000002 -4.656071
v 0.000000 0.000002 -4.820319
v -1.247591 0.000002 -4.656071
v -2.410160 0.000002 -4.174520
v 0.000000 -0.199993 2.347299
v 1.247591 0.000002 4.656071
v 2.410160 0.000002 4.174520
v -3.408480 0.000002 -3.408480
v -4.174520 0.000002 -2.410160
v 3.408480 0.000002 3.408480
v 4.174520 0.000002 2.410160
v 4.656071 0.000002 1.247591
v -4.656071 0.000002 -1.247591
v -4.820319 0.000002 -0.000000
v 4.820319 0.000002 -0.000000
v 4.656071 0.000002 -1.247591
v 4.174520 0.000002 -2.410160
v -4.656071 0.000002 1.247591
v -4.174520 0.000002 2.410160
v -3.408480 0.000002 3.408480
v -2.410160 0.000002 4.174520
v -1.247591 0.000002 4.656071
v 0.000000 0.000002 4.820319
v -0.607526 -0.199993 2.267317
v -1.173649 -0.199993 2.032820
v -1.659791 -0.199993 1.659791
v -2.032820 -0.199993 1.173649
v -2.267317 -0.199993 0.607526
v -2.347299 -0.199993 -0.000000
v -2.267317 -0.199993 -0.607526
v -2.032820 -0.199993 -1.173649
v -1.659791 -0.199993 -1.659791
v -1.173649 -0.199993 -2.032820
v -0.607526 -0.199993 -2.267317
v 0.000000 -0.199993 -2.347299
v 0.607526 -0.199993 -2.267317
v 1.173649 -0.199993 -2.032820
v 1.659791 -0.199993 -1.659791
v 2.032820 -0.199993 -1.173649
v 2.267317 -0.199993 -0.607526
v 2.347299 -0.199993 -0.000000
v 2.267317 -0.199993 0.607526
v 2.032820 -0.199993 1.173649
v 1.659791 -0.199993 1.659791
v 1.173649 -0.199993 2.032820
v 0.607526 -0.199993 2.267317
v 3.408480 -0.199992 -3.408480
v 2.410160 -0.199992 -4.174520
v 1.247591 -0.199992 -4.656071
v 0.000000 -0.199992 -4.820319
v -1.247591 -0.199992 -4.656071
v -2.410160 -0.199992 -4.174520
v 1.247591 -0.199992 4.656071
v 2.410160 -0.199992 4.174520
v -3.408480 -0.199992 -3.408480
v -4.174520 -0.199992 -2.410160
v 3.408480 -0.199992 3.408480
v 4.174520 -0.199992 2.410160
v 4.656071 -0.199992 1.247591
v -4.656071 -0.199992 -1.247591
v -4.820319 -0.199992 -0.000000
v 4.820319 -0.199992 -0.000000
v 4.656071 -0.199992 -1.247591
v 4.174520 -0.199992 -2.410160
v -4.656071 -0.199992 1.247591
v -4.174520 -0.199992 2.410160
v -3.408480 -0.199992 3.408480
v -2.410160 -0.199992 4.174520
v -1.247591 -0.199992 4.656071
v 0.000000 -0.199992 4.820319
vn -0.0000 1.0000 -0.0000
vn -0.0000 -1.0000 -0.0000
vn -0.1305 -0.0000 -0.9914
vn 0.1305 -0.0000 -0.9914
vn 0.3827 -0.0000 0.9239
vn -0.3827 -0.0000 0.9239
vn 0.1305 -0.0000 0.9914
vn -0.9239 -0.0000 0.3827
vn -0.1305 -0.0000 0.9914
vn 0.9239 -0.0000 0.3827
vn -0.7934 -0.0000 0.6088
vn -0.9914 -0.0000 -0.1305
vn 0.7934 -0.0000 -0.6088
vn -0.6088 -0.0000 0.7934
vn 0.3827 -0.0000 -0.9239
vn 0.9914 -0.0000 0.1305
vn 0.6088 -0.0000 -0.7934
vn 0.6088 -0.0000 0.7934
vn -0.9914 -0.0000 0.1305
vn -0.7934 -0.0000 -0.6088
vn 0.9239 -0.0000 -0.3827
vn 0.9914 -0.0000 -0.1305
vn -0.9239 -0.0000 -0.3827
vn -0.3827 -0.0000 -0.9239
vn 0.7934 -0.0000 0.6088
vn -0.6088 -0.0000 -0.7934
vt 0.000000 0.000000
s 0
f 17/1/1 43/1/1 25/1/1 16/1/1
f 10/1/1 34/1/1 35/1/1 9/1/1
f 15/1/1 26/1/1 27/1/1 14/1/1
f 7/1/1 40/1/1 44/1/1 6/1/1
f 21/1/1 37/1/1 38/1/1 20/1/1
f 13/1/1 28/1/1 29/1/1 12/1/1
f 2/1/1 48/1/1 49/1/1 1/1/1
f 66/1/2 65/1/2 90/1/2 89/1/2
f 53/1/2 52/1/2 93/1/2 92/1/2
f 55/1/2 54/1/2 91/1/2 87/1/2
f 11/1/1 30/1/1 34/1/1 10/1/1
f 20/1/1 38/1/1 41/1/1 19/1/1
f 24/1/1 32/1/1 33/1/1 23/1/1
f 72/1/2 71/1/2 80/1/2 79/1/2
f 68/1/2 67/1/2 88/1/2 85/1/2
f 63/1/2 62/1/2 75/1/2 74/1/2
f 18/1/1 42/1/1 43/1/1 17/1/1
f 5/1/1 45/1/1 46/1/1 4/1/1
f 9/1/1 35/1/1 39/1/1 8/1/1
f 59/1/2 58/1/2 81/1/2 78/1/2
f 50/1/2 31/1/2 96/1/2 95/1/2
f 58/1/2 57/1/2 82/1/2 81/1/2
f 3/1/1 47/1/1 48/1/1 2/1/1
f 12/1/1 29/1/1 30/1/1 11/1/1
f 16/1/1 25/1/1 26/1/1 15/1/1
f 61/1/2 60/1/2 77/1/2 76/1/2
f 69/1/2 68/1/2 85/1/2 84/1/2
f 65/1/2 64/1/2 73/1/2 90/1/2
f 1/1/1 49/1/1 32/1/1 24/1/1
f 19/1/1 41/1/1 42/1/1 18/1/1
f 23/1/1 33/1/1 36/1/1 22/1/1
f 8/1/1 39/1/1 40/1/1 7/1/1
f 22/1/1 36/1/1 37/1/1 21/1/1
f 14/1/1 27/1/1 28/1/1 13/1/1
f 6/1/1 44/1/1 45/1/1 5/1/1
f 4/1/1 46/1/1 47/1/1 3/1/1
f 57/1/2 56/1/2 86/1/2 82/1/2
f 51/1/2 50/1/2 95/1/2 94/1/2
f 60/1/2 59/1/2 78/1/2 77/1/2
f 64/1/2 63/1/2 74/1/2 73/1/2
f 31/1/2 72/1/2 79/1/2 96/1/2
f 67/1/2 66/1/2 89/1/2 88/1/2
f 71/1/2 70/1/2 83/1/2 80/1/2
f 56/1/2 55/1/2 87/1/2 86/1/2
f 70/1/2 69/1/2 84/1/2 83/1/2
f 62/1/2 61/1/2 76/1/2 75/1/2
f 54/1/2 53/1/2 92/1/2 91/1/2
f 52/1/2 51/1/2 94/1/2 93/1/2
f 1/1/3 24/1/3 72/1/3 31/1/3
f 28/1/4 27/1/4 75/1/4 76/1/4
f 12/1/5 11/1/5 59/1/5 60/1/5
f 48/1/6 47/1/6 94/1/6 95/1/6
f 13/1/7 12/1/7 60/1/7 61/1/7
f 45/1/8 44/1/8 91/1/8 92/1/8
f 32/1/7 49/1/7 96/1/7 79/1/7
f 14/1/9 13/1/9 61/1/9 62/1/9
f 33/1/5 32/1/5 79/1/5 80/1/5
f 38/1/10 37/1/10 84/1/10 85/1/10
f 15/1/6 14/1/6 62/1/6 63/1/6
f 46/1/11 45/1/11 92/1/11 93/1/11
f 2/1/4 1/1/4 31/1/4 50/1/4
f 40/1/12 39/1/12 86/1/12 87/1/12
f 25/1/13 43/1/13 90/1/13 73/1/13
f 16/1/14 15/1/14 63/1/14 64/1/14
f 3/1/15 2/1/15 50/1/15 51/1/15
f 41/1/16 38/1/16 85/1/16 88/1/16
f 29/1/3 28/1/3 76/1/3 77/1/3
f 17/1/11 16/1/11 64/1/11 65/1/11
f 4/1/17 3/1/17 51/1/17 52/1/17
f 36/1/18 33/1/18 80/1/18 83/1/18
f 44/1/19 40/1/19 87/1/19 91/1/19
f 49/1/9 48/1/9 95/1/9 96/1/9
f 18/1/8 17/1/8 65/1/8 66/1/8
f 35/1/20 34/1/20 81/1/20 82/1/20
f 5/1/13 4/1/13 52/1/13 53/1/13
f 26/1/17 25/1/17 73/1/17 74/1/17
f 19/1/19 18/1/19 66/1/19 67/1/19
f 6/1/21 5/1/21 53/1/21 54/1/21
f 42/1/22 41/1/22 88/1/22 89/1/22
f 20/1/12 19/1/12 67/1/12 68/1/12
f 39/1/23 35/1/23 82/1/23 86/1/23
f 7/1/22 6/1/22 54/1/22 55/1/22
f 30/1/24 29/1/24 77/1/24 78/1/24
f 21/1/23 20/1/23 68/1/23 69/1/23
f 37/1/25 36/1/25 83/1/25 84/1/25
f 8/1/16 7/1/16 55/1/16 56/1/16
f 27/1/15 26/1/15 74/1/15 75/1/15
f 22/1/20 21/1/20 69/1/20 70/1/20
f 9/1/10 8/1/10 56/1/10 57/1/10
f 34/1/26 30/1/26 78/1/26 81/1/26
f 23/1/26 22/1/26 70/1/26 71/1/26
f 43/1/21 42/1/21 89/1/21 90/1/21
f 10/1/25 9/1/25 57/1/25 58/1/25
f 24/1/24 23/1/24 71/1/24 72/1/24
f 47/1/14 46/1/14 93/1/14 94/1/14
f 11/1/18 10/1/18 58/1/18 59/1/18
