# Blender 5.1.2
# www.blender.org
mtllib TubeHuman.mtl
o TubeHuman
v -0.000000 -3.614537 2.291115
v -0.000000 3.614538 2.291115
v -0.592984 -3.614537 2.213047
v -0.592984 3.614538 2.213047
v -1.145557 -3.614537 1.984164
v -1.145557 3.614538 1.984164
v -1.620063 -3.614537 1.620063
v -1.620063 3.614538 1.620063
v -1.984164 -3.614537 1.145557
v -1.984164 3.614538 1.145557
v -2.213047 -3.614537 0.592984
v -2.213047 3.614538 0.592984
v -2.291115 -3.614537 0.000000
v -2.291115 3.614538 0.000000
v -2.213047 -3.614537 -0.592984
v -2.213047 3.614538 -0.592984
v -1.984164 -3.614537 -1.145557
v -1.984164 3.614538 -1.145557
v -1.620063 -3.614537 -1.620063
v -1.620063 3.614538 -1.620063
v -1.145557 -3.614537 -1.984164
v -1.145557 3.614538 -1.984164
v -0.592984 -3.614537 -2.213047
v -0.592984 3.614538 -2.213047
v -0.000000 -3.614537 -2.291115
v -0.000000 3.614538 -2.291115
v 0.592984 -3.614537 -2.213047
v 0.592984 3.614538 -2.213047
v 1.145557 -3.614537 -1.984164
v 1.145557 3.614538 -1.984164
v 1.620063 -3.614537 -1.620063
v 1.620063 3.614538 -1.620063
v 1.984164 -3.614537 -1.145557
v 1.984164 3.614538 -1.145557
v 2.213047 -3.614537 -0.592984
v 2.213047 3.614538 -0.592984
v 2.291115 -3.614537 0.000000
v 2.291115 3.614538 0.000000
v 2.213047 -3.614537 0.592984
v 2.213047 3.614538 0.592984
v 1.984164 -3.614537 1.145557
v 1.984164 3.614538 1.145557
v 1.620063 -3.614537 1.620063
v 1.620063 3.614538 1.620063
v 1.145557 -3.614537 1.984164
v 1.145557 3.614538 1.984164
v 0.592984 -3.614537 2.213047
v 0.592984 3.614538 2.213047
v 1.936469 3.614538 0.548032
v 1.443818 3.614538 1.048258
v 0.846734 3.614538 1.466587
v 0.185909 3.614537 1.774512
v -0.493625 3.614537 1.951048
v 1.734596 3.614538 -0.125312
v 1.133005 3.614537 0.342359
v 0.449271 3.614538 0.778160
v -0.270011 3.614537 1.152391
v -0.975822 3.614537 1.439548
v 1.403015 3.614538 -0.810031
v 0.726254 3.614538 -0.419303
v -0.000000 3.614538 -0.000000
v -0.726254 3.614538 0.419303
v -1.403016 3.614538 0.810031
v 0.975822 3.614538 -1.439548
v 0.270010 3.614538 -1.152391
v -0.449271 3.614538 -0.778161
v -1.133005 3.614538 -0.342360
v -1.734596 3.614538 0.125312
v 0.493625 3.614538 -1.951048
v -0.185909 3.614538 -1.774512
v -0.846735 3.614538 -1.466587
v -1.443818 3.614538 -1.048258
v -1.936469 3.614538 -0.548032
v -1.936469 -3.614537 0.548032
v -1.443818 -3.614537 1.048258
v -0.846734 -3.614537 1.466587
v -0.185909 -3.614537 1.774512
v 0.493625 -3.614537 1.951048
v -1.734596 -3.614537 -0.125312
v -1.133005 -3.614537 0.342359
v -0.449271 -3.614537 0.778160
v 0.270011 -3.614537 1.152391
v 0.975822 -3.614537 1.439548
v -1.403015 -3.614537 -0.810031
v -0.726254 -3.614537 -0.419303
v 0.000000 -3.614537 -0.000000
v 0.726254 -3.614537 0.419303
v 1.403016 -3.614537 0.810031
v -0.975822 -3.614537 -1.439548
v -0.270010 -3.614537 -1.152391
v 0.449271 -3.614537 -0.778161
v 1.133005 -3.614537 -0.342360
v 1.734596 -3.614537 0.125312
v -0.493625 -3.614537 -1.951048
v 0.185909 -3.614537 -1.774512
v 0.846735 -3.614537 -1.466587
v 1.443818 -3.614537 -1.048258
v 1.936469 -3.614537 -0.548032
vn -0.1305 -0.0000 0.9914
vn -0.3827 -0.0000 0.9239
vn -0.6088 -0.0000 0.7934
vn -0.7934 -0.0000 0.6088
vn -0.9239 -0.0000 0.3827
vn -0.9914 -0.0000 0.1305
vn -0.9914 -0.0000 -0.1305
vn -0.9239 -0.0000 -0.3827
vn -0.7934 -0.0000 -0.6088
vn -0.6088 -0.0000 -0.7934
vn -0.3827 -0.0000 -0.9239
vn -0.1305 -0.0000 -0.9914
vn 0.1305 -0.0000 -0.9914
vn 0.3827 -0.0000 -0.9239
vn 0.6088 -0.0000 -0.7934
vn 0.7934 -0.0000 -0.6088
vn 0.9239 -0.0000 -0.3827
vn 0.9914 -0.0000 -0.1305
vn 0.9914 -0.0000 0.1305
vn 0.9239 -0.0000 0.3827
vn 0.7934 -0.0000 0.6088
vn 0.6088 -0.0000 0.7934
vn 0.3827 -0.0000 0.9239
vn 0.1305 -0.0000 0.9914
vn -0.0000 -1.0000 -0.0000
vn -0.0000 1.0000 -0.0000
vt 1.000000 0.500000
vt 1.000000 1.000000
vt 0.958333 1.000000
vt 0.958333 0.500000
vt 0.916667 1.000000
vt 0.916667 0.500000
vt 0.875000 1.000000
vt 0.875000 0.500000
vt 0.833333 1.000000
vt 0.833333 0.500000
vt 0.791667 1.000000
vt 0.791667 0.500000
vt 0.750000 1.000000
vt 0.750000 0.500000
vt 0.708333 1.000000
vt 0.708333 0.500000
vt 0.666667 1.000000
vt 0.666667 0.500000
vt 0.625000 1.000000
vt 0.625000 0.500000
vt 0.583333 1.000000
vt 0.583333 0.500000
vt 0.541666 1.000000
vt 0.541666 0.500000
vt 0.500000 1.000000
vt 0.500000 0.500000
vt 0.458333 1.000000
vt 0.458333 0.500000
vt 0.416666 1.000000
vt 0.416666 0.500000
vt 0.375000 1.000000
vt 0.375000 0.500000
vt 0.333333 1.000000
vt 0.333333 0.500000
vt 0.291667 1.000000
vt 0.291667 0.500000
vt 0.250000 1.000000
vt 0.250000 0.500000
vt 0.208333 1.000000
vt 0.208333 0.500000
vt 0.166666 1.000000
vt 0.166666 0.500000
vt 0.125000 1.000000
vt 0.125000 0.500000
vt 0.083333 1.000000
vt 0.083333 0.500000
vt 0.041666 1.000000
vt 0.041666 0.500000
vt -0.000000 1.000000
vt -0.000000 0.500000
vt 0.708333 0.500000
vt 0.291667 1.000000
vt 0.346154 1.000000
vt 0.386905 1.000000
vt 0.423077 1.000000
vt 0.301282 1.000000
vt 0.375000 1.000000
vt 0.421569 1.000000
vt 0.458333 1.000000
vt 0.493590 1.000000
vt 0.315476 1.000000
vt 0.406863 1.000000
vt 0.495098 1.000000
vt 0.529762 1.000000
vt 0.352564 1.000000
vt 0.458333 1.000000
vt 0.509804 1.000000
vt 0.541667 1.000000
vt 0.570513 1.000000
vt 0.458333 1.000000
vt 0.564103 1.000000
vt 0.601190 1.000000
vt 0.615385 1.000000
vt 0.625000 1.000000
vt 0.875000 1.000000
vt 0.820513 1.000000
vt 0.779762 1.000000
vt 0.743590 1.000000
vt 0.708333 1.000000
vt 0.653846 0.500000
vt 0.613095 0.500000
vt 0.576923 0.500000
vt 0.698718 0.500000
vt 0.625000 0.500000
vt 0.578431 0.500000
vt 0.541667 0.500000
vt 0.506410 0.500000
vt 0.684524 0.500000
vt 0.593137 0.500000
vt 0.541667 0.500000
vt 0.504902 0.500000
vt 0.470238 0.500000
vt 0.647436 0.500000
vt 0.490196 0.500000
vt 0.458333 0.500000
vt 0.429487 0.500000
vt 0.435897 0.500000
vt 0.398809 0.500000
vt 0.384615 0.500000
vt 0.375000 0.500000
vt 0.179487 0.500000
vt 0.220238 0.500000
vt 0.256410 0.500000
vt 0.291666 0.500000
s 0
f 1/1/1 2/2/1 4/3/1 3/4/1
f 3/4/2 4/3/2 6/5/2 5/6/2
f 5/6/3 6/5/3 8/7/3 7/8/3
f 7/8/4 8/7/4 10/9/4 9/10/4
f 9/10/5 10/9/5 12/11/5 11/12/5
f 11/12/6 12/11/6 14/13/6 13/14/6
f 13/14/7 14/13/7 16/15/7 15/16/7
f 15/16/8 16/15/8 18/17/8 17/18/8
f 17/18/9 18/17/9 20/19/9 19/20/9
f 19/20/10 20/19/10 22/21/10 21/22/10
f 21/22/11 22/21/11 24/23/11 23/24/11
f 23/24/12 24/23/12 26/25/12 25/26/12
f 25/26/13 26/25/13 28/27/13 27/28/13
f 27/28/14 28/27/14 30/29/14 29/30/14
f 29/30/15 30/29/15 32/31/15 31/32/15
f 31/32/16 32/31/16 34/33/16 33/34/16
f 33/34/17 34/33/17 36/35/17 35/36/17
f 35/36/18 36/35/18 38/37/18 37/38/18
f 37/38/19 38/37/19 40/39/19 39/40/19
f 39/40/20 40/39/20 42/41/20 41/42/20
f 41/42/21 42/41/21 44/43/21 43/44/21
f 43/44/22 44/43/22 46/45/22 45/46/22
f 45/46/23 46/45/23 48/47/23 47/48/23
f 47/48/24 48/47/24 2/49/24 1/50/24
f 11/12/25 13/14/25 74/51/25 9/10/25
f 40/39/26 38/37/26 49/52/26 42/41/26
f 38/37/26 36/35/26 54/53/26 49/52/26
f 36/35/26 34/33/26 59/54/26 54/53/26
f 34/33/26 32/31/26 64/55/26 59/54/26
f 32/31/26 30/29/26 69/27/26 64/55/26
f 30/29/26 28/27/26 26/25/26 69/27/26
f 42/41/26 49/52/26 50/56/26 44/43/26
f 49/52/26 54/53/26 55/57/26 50/56/26
f 54/53/26 59/54/26 60/58/26 55/57/26
f 59/54/26 64/55/26 65/59/26 60/58/26
f 64/55/26 69/27/26 70/60/26 65/59/26
f 69/27/26 26/25/26 24/23/26 70/60/26
f 44/43/26 50/56/26 51/61/26 46/45/26
f 50/56/26 55/57/26 56/62/26 51/61/26
f 55/57/26 60/58/26 61/59/26 56/62/26
f 60/58/26 65/59/26 66/63/26 61/59/26
f 65/59/26 70/60/26 71/64/26 66/63/26
f 70/60/26 24/23/26 22/21/26 71/64/26
f 46/45/26 51/61/26 52/65/26 48/47/26
f 51/61/26 56/62/26 57/66/26 52/65/26
f 56/62/26 61/59/26 62/67/26 57/66/26
f 61/59/26 66/63/26 67/68/26 62/67/26
f 66/63/26 71/64/26 72/69/26 67/68/26
f 71/64/26 22/21/26 20/19/26 72/69/26
f 48/47/26 52/65/26 53/70/26 2/49/26
f 52/65/26 57/66/26 58/71/26 53/70/26
f 57/66/26 62/67/26 63/72/26 58/71/26
f 62/67/26 67/68/26 68/73/26 63/72/26
f 67/68/26 72/69/26 73/74/26 68/73/26
f 72/69/26 20/19/26 18/17/26 73/74/26
f 2/2/26 53/75/26 6/5/26 4/3/26
f 53/75/26 58/76/26 8/7/26 6/5/26
f 58/76/26 63/77/26 10/9/26 8/7/26
f 63/77/26 68/78/26 12/11/26 10/9/26
f 68/78/26 73/79/26 14/13/26 12/11/26
f 73/79/26 18/17/26 16/15/26 14/13/26
f 13/14/25 15/16/25 79/80/25 74/51/25
f 15/16/25 17/18/25 84/81/25 79/80/25
f 17/18/25 19/20/25 89/82/25 84/81/25
f 19/20/25 21/22/25 94/24/25 89/82/25
f 21/22/25 23/24/25 25/26/25 94/24/25
f 9/10/25 74/51/25 75/83/25 7/8/25
f 74/51/25 79/80/25 80/84/25 75/83/25
f 79/80/25 84/81/25 85/85/25 80/84/25
f 84/81/25 89/82/25 90/86/25 85/85/25
f 89/82/25 94/24/25 95/87/25 90/86/25
f 94/24/25 25/26/25 27/28/25 95/87/25
f 7/8/25 75/83/25 76/88/25 5/6/25
f 75/83/25 80/84/25 81/89/25 76/88/25
f 80/84/25 85/85/25 86/90/25 81/89/25
f 85/85/25 90/86/25 91/91/25 86/90/25
f 90/86/25 95/87/25 96/92/25 91/91/25
f 95/87/25 27/28/25 29/30/25 96/92/25
f 5/6/25 76/88/25 77/93/25 3/4/25
f 76/88/25 81/89/25 82/86/25 77/93/25
f 81/89/25 86/90/25 87/94/25 82/86/25
f 86/90/25 91/91/25 92/95/25 87/94/25
f 91/91/25 96/92/25 97/96/25 92/95/25
f 96/92/25 29/30/25 31/32/25 97/96/25
f 3/4/25 77/93/25 78/90/25 1/1/25
f 77/93/25 82/86/25 83/97/25 78/90/25
f 82/86/25 87/94/25 88/98/25 83/97/25
f 87/94/25 92/95/25 93/99/25 88/98/25
f 92/95/25 97/96/25 98/100/25 93/99/25
f 97/96/25 31/32/25 33/34/25 98/100/25
f 1/50/25 78/44/25 45/46/25 47/48/25
f 78/44/25 83/101/25 43/44/25 45/46/25
f 83/101/25 88/102/25 41/42/25 43/44/25
f 88/102/25 93/103/25 39/40/25 41/42/25
f 93/103/25 98/104/25 37/38/25 39/40/25
f 98/104/25 33/34/25 35/36/25 37/38/25
