# Blender 5.2.0 LTS
# www.blender.org
mtllib WallMultiLevelBaseLaboratory.mtl
o WallMultiLevelBaseLaboratory
v 2.500911 0.100005 -2.500938
v -2.500911 0.100005 -2.500938
v 2.500911 1.170891 -3.339877
v -2.500911 1.170891 -3.339877
v 2.500911 7.230776 -3.339877
v -2.500911 7.230776 -3.339877
v 2.500911 8.301661 -2.500938
v -2.500911 8.301661 -2.500938
v 2.500911 -0.100005 -2.500938
v -2.500911 -0.100005 -2.500938
v 2.500911 4.101650 -3.339877
v -2.500911 4.101650 -3.339877
v -2.500911 4.301938 -3.339877
v 2.500911 4.301938 -3.339877
v 2.500911 2.105150 -3.339877
v -2.500911 2.105150 -3.339877
v 2.500911 1.399249 -3.339877
v -2.500911 1.399249 -3.339877
v -2.500911 6.302622 -3.339877
v 2.500911 6.302622 -3.339877
v -2.500911 6.502910 -3.339877
v 2.500910 6.502910 -3.339877
vn -0.0000 0.6167 0.7872
vn -0.0000 -0.0000 1.0000
vn -0.0000 -0.6167 0.7872
vt 0.876060 0.198773
vt 0.876060 0.403331
vt 0.123940 0.403331
vt 0.123940 0.198773
vt 0.000000 1.000083
vt 0.000000 0.854563
vt 1.000000 0.854563
vt 1.000000 1.000083
vt 0.000000 0.582588
vt 1.000000 0.582588
vt -0.000000 0.559273
vt 1.000000 0.559273
vt 1.000000 0.599261
vt -0.000000 0.599261
vt 1.000000 0.600889
vt 1.000000 1.000044
vt 0.000000 1.000044
vt 0.000000 0.600889
vt 0.083450 0.593366
vt 0.083450 0.560006
vt 0.916550 0.560006
vt 0.916550 0.593366
vt 0.852906 0.501923
vt 0.852906 0.601533
vt 0.147094 0.601533
vt 0.147094 0.501923
vt 0.876060 0.437669
vt 0.123940 0.437669
vt 1.000000 0.600053
vt 0.000000 1.000044
vt 0.000000 0.600053
vt 0.000000 0.596868
vt 0.000000 0.556825
vt 1.000000 0.556825
vt 1.000000 0.596868
s 0
usemtl M_WallLaboratory
f 1/1/1 3/2/1 4/3/1 2/4/1
f 22/5/2 5/6/2 6/7/2 21/8/2
f 5/6/3 7/9/3 8/10/3 6/7/3
f 1/11/2 2/12/2 10/13/2 9/14/2
f 15/15/2 11/16/2 12/17/2 16/18/2
f 11/19/2 14/20/2 13/21/2 12/22/2
f 17/23/2 15/24/2 16/25/2 18/26/2
f 3/2/2 17/27/2 18/28/2 4/3/2
f 14/29/2 20/16/2 19/30/2 13/31/2
f 20/32/2 22/33/2 21/34/2 19/35/2
