# Blender 5.2.0 LTS
# www.blender.org
mtllib WallWareHouseWindowFrame.mtl
o DoorwayLargeBaseLaboratory
v 0.099879 4.101650 -2.500488
v 0.099879 4.101650 -1.793027
v -0.099879 3.603875 -2.500488
v -0.099879 3.603875 2.500209
v -0.099879 4.101650 -1.793027
v -0.099879 4.101650 -2.500488
v -0.099879 4.101650 2.500209
v -0.099879 4.101650 1.792444
v 0.099879 3.603875 -2.500488
v 0.099879 3.603875 2.500209
v 0.099879 3.603875 -1.793027
v 0.099879 3.603875 1.792444
v 0.099879 4.101650 2.500209
v 0.099879 4.101650 1.792444
v -0.099879 3.603875 -1.793027
v -0.099879 3.603875 1.792444
v -0.099879 -0.100005 2.500209
v -0.099879 -0.100005 1.792444
v -0.099879 -0.100005 -1.793027
v 0.099878 -0.100005 -1.793027
v 0.099878 -0.100005 -2.500488
v 0.099878 -0.100005 2.500209
v 0.099878 -0.100005 1.792444
v -0.099879 -0.100005 -2.500488
v 0.099879 1.399248 -2.500488
v -0.099879 1.399249 -2.500488
v -0.099879 1.399249 -1.793027
v 0.099879 1.399249 -1.793027
v 0.099879 1.399248 2.500209
v 0.099879 1.399249 1.792444
v -0.099879 1.399248 2.500209
v -0.099879 1.399249 1.792444
v -0.099879 2.105150 -2.500488
v 0.099879 2.105150 -1.793027
v 0.099879 2.105150 -2.500488
v -0.099879 2.105150 -1.793027
v 0.099879 2.105150 1.792444
v 0.099879 2.105150 2.500209
v -0.099879 2.105150 2.500209
v -0.099879 2.105150 1.792444
v 0.099878 0.100369 2.500209
v -0.099879 0.100369 2.500209
v -0.099879 0.100369 1.792444
v 0.099878 0.100369 1.792444
v 0.099878 0.100369 -2.500488
v -0.099879 0.100369 -1.793027
v -0.099879 0.100369 -2.500488
v 0.099878 0.100369 -1.793027
vn -1.0000 -0.0000 -0.0000
vn 1.0000 -0.0000 -0.0000
vn -0.0000 -0.0000 -1.0000
vn -0.0000 -0.0000 1.0000
vn -0.0000 1.0000 -0.0000
vn -0.0000 -1.0000 -0.0000
vt 0.000000 1.000098
vt 0.000000 0.900557
vt 0.141472 0.900557
vt 0.141472 1.000098
vt 0.858528 0.900557
vt 0.858528 1.000098
vt 0.141533 1.000098
vt 0.141533 0.900557
vt 0.401092 0.599380
vt 0.401092 0.549175
vt 0.451143 0.549175
vt 0.451143 0.599380
vt 0.519738 0.999912
vt 0.479907 0.999912
vt 0.479907 0.900656
vt 0.519738 0.900656
vt 0.000000 1.000098
vt 0.000000 0.900557
vt 0.401092 0.599380
vt 0.401092 0.549175
vt 0.451143 0.549175
vt 0.451143 0.599380
vt 0.858507 0.769973
vt 0.858507 0.730027
vt 0.999980 0.730027
vt 0.999980 0.769973
vt 1.000000 0.900557
vt 1.000000 1.000098
vt 0.515108 0.549079
vt 0.515108 0.599405
vt 0.337424 0.599405
vt 0.337424 0.549079
vt 0.479907 0.999912
vt 0.479907 0.900656
vt 0.519738 0.900656
vt -0.000020 0.769973
vt -0.000020 0.730027
vt 0.141513 0.730027
vt 0.141513 0.769973
vt 0.515108 0.599383
vt 0.337424 0.599383
vt 0.337424 0.549079
vt 0.515108 0.549079
vt 0.141518 0.894972
vt 0.141518 0.855028
vt 0.858482 0.855028
vt 0.858482 0.894972
vt 0.858467 1.000098
vt 0.858467 0.900557
vt 1.000000 0.900557
vt 1.000000 1.000098
vt 0.515108 0.599383
vt 0.898109 0.029312
vt 0.971065 0.029312
vt 0.971065 0.287803
vt 0.898109 0.287803
vt 0.898109 0.287804
vt 0.898109 0.029312
vt 0.971097 0.029312
vt 0.971097 0.287804
vt 0.551492 0.600593
vt 0.551492 0.501749
vt 0.579463 0.501749
vt 0.579463 0.600593
vt 0.516010 0.600595
vt 0.516010 0.501719
vt 0.615104 0.501719
vt 0.615104 0.600595
vt 0.516010 0.501761
vt 0.615104 0.501761
vt 0.516010 0.501761
vt 0.479907 0.601814
vt 0.519738 0.601814
vt 0.858528 0.600854
vt 1.000000 0.600854
vt 0.000000 0.600854
vt 0.141472 0.600854
vt 0.909173 0.899088
vt 0.909173 0.601468
vt 0.948841 0.601468
vt 0.948841 0.899088
vt 0.000000 0.600854
vt 0.141533 0.600854
vt 0.858467 0.600854
vt 1.000000 0.600854
vt 0.464561 0.431462
vt 0.464561 0.251620
vt 0.562558 0.251620
vt 0.562558 0.431462
vt 0.580538 0.431400
vt 0.580538 0.248856
vt 0.608612 0.248856
vt 0.608612 0.431400
vt 0.436658 0.431462
vt 0.436658 0.251620
vt 0.534654 0.251620
vt 0.534654 0.431462
vt 0.580538 0.248856
vt 0.608612 0.248856
vt 0.608612 0.431400
vt 0.438611 0.431462
vt 0.438611 0.251620
vt 0.536565 0.251620
vt 0.536565 0.431462
vt 0.464561 0.431462
vt 0.464561 0.251620
vt 0.562516 0.251620
vt 0.562516 0.431462
s 0
usemtl M_WallLaboratory
f 6/1/1 3/2/1 15/3/1 5/4/1
f 11/5/2 2/6/2 14/7/2 12/8/2
f 45/9/3 21/10/3 24/11/3 47/12/3
f 6/13/3 1/14/3 9/15/3 3/16/3
f 12/8/2 14/7/2 13/17/2 10/18/2
f 42/19/4 17/20/4 22/21/4 41/22/4
f 5/23/5 2/24/5 1/25/5 6/26/5
f 9/27/2 1/28/2 2/6/2 11/5/2
f 48/29/2 20/30/2 21/31/2 45/32/2
f 13/13/4 7/33/4 4/34/4 10/35/4
f 7/36/5 13/37/5 14/38/5 8/39/5
f 41/29/2 22/40/2 23/41/2 44/42/2
f 44/9/3 23/10/3 18/11/3 43/12/3
f 47/31/1 24/32/1 19/43/1 46/30/1
f 15/44/6 11/45/6 12/46/6 16/47/6
f 8/39/5 14/38/5 2/24/5 5/23/5
f 8/48/1 16/49/1 4/50/1 7/51/1
f 5/4/1 15/3/1 16/49/1 8/48/1
f 43/41/1 18/42/1 17/29/1 42/52/1
f 22/53/6 17/54/6 18/55/6 23/56/6
f 19/57/6 24/58/6 21/59/6 20/60/6
f 46/9/4 19/10/4 20/11/4 48/12/4
f 36/61/4 27/62/4 28/63/4 34/64/4
f 33/65/1 26/66/1 27/67/1 36/68/1
f 34/65/2 28/66/2 25/67/2 35/68/2
f 35/61/3 25/62/3 26/63/3 33/64/3
f 40/65/1 32/69/1 31/70/1 39/68/1
f 37/61/3 30/62/3 32/63/3 40/64/3
f 38/65/2 29/71/2 30/70/2 37/68/2
f 39/61/4 31/62/4 29/63/4 38/64/4
f 9/15/3 35/72/3 33/73/3 3/16/3
f 11/5/2 34/74/2 35/75/2 9/27/2
f 3/2/1 33/76/1 36/77/1 15/3/1
f 15/78/4 36/79/4 34/80/4 11/81/4
f 4/34/4 39/72/4 38/73/4 10/35/4
f 10/18/2 38/82/2 37/83/2 12/8/2
f 12/78/3 37/79/3 40/80/3 16/81/3
f 16/49/1 40/84/1 39/85/1 4/50/1
f 32/86/1 43/87/1 42/88/1 31/89/1
f 30/90/3 44/91/3 43/92/3 32/93/3
f 29/94/2 41/95/2 44/96/2 30/97/2
f 31/90/4 42/98/4 41/99/4 29/100/4
f 27/90/4 46/91/4 48/92/4 28/100/4
f 26/101/1 47/102/1 46/103/1 27/104/1
f 28/105/2 48/106/2 45/107/2 25/108/2
f 25/90/3 45/98/3 47/99/3 26/100/3
