# Blender 5.2.1 LTS
# www.blender.org
mtllib WallCellsLaboratory.mtl
o WallCellsLaboratory
v -1.440877 0.100005 -2.500938
v -2.500911 7.230776 -3.339877
v -2.500911 8.301661 -2.500938
v 1.440877 1.400957 -3.339877
v -1.440877 1.400957 -3.339877
v 1.440877 3.970768 -3.339877
v -1.440877 3.970768 -3.339877
v -1.440877 -0.100005 -2.500938
v -0.791584 0.100005 -2.500938
v -0.791584 1.170891 -3.339877
v -0.791584 1.400957 -3.339877
v -0.791584 -0.100005 -2.500938
v 0.791584 0.100005 -2.500938
v 0.791584 1.170891 -3.339877
v 0.791584 1.400957 -3.339877
v 0.791584 -0.100005 -2.500938
v 0.791584 3.970768 -3.339877
v -0.791584 3.970768 -3.339877
v 1.440877 1.532832 -3.339877
v 1.440877 3.838893 -3.339877
v -1.440877 3.838893 -3.339877
v -2.500911 3.838893 -3.339877
v -1.440877 1.532832 -3.339877
v -2.500911 1.532832 -3.339877
v -2.500911 4.562775 -3.339877
v 2.500911 1.400957 -3.339877
v 2.500911 3.970768 -3.339877
v -2.500911 6.868836 -3.339877
v 2.500911 3.838893 -3.339877
v 2.500911 1.532832 -3.339877
v 2.500911 4.430900 -3.339877
v 2.500911 7.000711 -3.339877
v 2.500911 6.868836 -3.339877
v 2.500911 4.562775 -3.339877
v 1.440877 4.430900 -3.339877
v -1.440877 4.430900 -3.339877
v 1.440877 7.000711 -3.339877
v -1.440877 7.000711 -3.339877
v -0.791584 4.430900 -3.339877
v 0.791584 4.430900 -3.339877
v 0.791584 7.000711 -3.339877
v -0.791584 7.000711 -3.339877
v 0.791584 7.230776 -3.339877
v -0.791584 7.230776 -3.339877
v 1.440877 4.562775 -3.339877
v 1.440877 6.868836 -3.339877
v -1.440877 6.868836 -3.339877
v -1.440877 4.562775 -3.339877
v 1.440877 1.170891 -3.339877
v -1.440877 1.170891 -3.339877
v 2.500911 1.170891 -3.339877
v -2.500911 3.970768 -3.339877
v -2.500911 4.430900 -3.339877
v 2.500911 7.230776 -3.339877
v 1.440877 7.230776 -3.339877
v -2.500911 1.170891 -3.339877
v 0.791584 8.301661 -2.500938
v -0.791584 8.301661 -2.500938
v 2.500911 8.301661 -2.500938
v 1.440877 8.301661 -2.500938
v -2.500911 -0.100005 -2.500938
v -2.500911 1.400957 -3.339877
v -2.500911 0.100005 -2.500938
v 1.440877 0.100005 -2.500938
v 2.500911 0.100005 -2.500938
v 1.440877 -0.100005 -2.500938
v 2.500911 -0.100005 -2.500938
v -1.440877 7.230776 -3.339877
v -1.440877 8.301661 -2.500938
v -2.500911 7.000711 -3.339877
v 1.440877 2.105150 -3.339877
v -1.440877 2.105150 -3.339877
v -2.500911 2.105150 -3.339877
v 2.500911 2.105150 -3.339877
v 0.791584 4.101650 -3.339877
v -0.791584 4.101651 -3.339877
v -2.500911 4.101650 -3.339877
v -1.440877 4.101651 -3.339877
v 1.440877 4.101650 -3.339877
v 2.500911 4.101651 -3.339877
v 0.791584 4.301938 -3.339877
v -0.791584 4.301939 -3.339877
v -2.500911 4.301938 -3.339877
v -1.440877 4.301939 -3.339877
v 1.440877 4.301938 -3.339877
v 2.500911 4.301939 -3.339877
v -2.500911 6.302622 -3.339877
v 2.500911 6.302622 -3.339877
v 1.440877 6.302622 -3.339877
v -1.440877 6.302622 -3.339877
v -2.500911 6.502909 -3.339877
v 2.500911 6.502910 -3.339877
v 1.440877 6.502909 -3.339877
v -1.440877 6.502910 -3.339877
vn -0.0000 -0.0000 1.0000
vn -0.0000 0.6167 0.7872
vn -0.0000 -0.6167 0.7872
vt 0.881846 0.563513
vt 0.989992 0.563513
vt 0.989992 0.596827
vt 0.881846 0.596827
vt 0.618847 0.465550
vt 0.381153 0.465550
vt 0.381153 0.261306
vt 0.618847 0.261306
vt 0.875483 0.465550
vt 0.716331 0.465550
vt 0.716331 0.261306
vt 0.875483 0.261306
vt 0.618154 0.563514
vt 0.618154 0.596827
vt 0.618847 0.500092
vt 0.381153 0.500092
vt 0.000000 0.600746
vt 0.211929 0.600746
vt 0.211929 0.947368
vt -0.000000 0.947368
vt 1.000000 0.900283
vt 0.788070 0.900283
vt 0.788071 0.854287
vt 1.000000 0.854287
vt 1.000000 0.926649
vt 0.788070 0.926649
vt 0.658259 0.854287
vt 0.658259 0.900283
vt 0.788071 0.582311
vt 1.000000 0.582311
vt 0.341741 0.900283
vt 0.341741 0.854287
vt 1.000000 0.999807
vt 0.788070 0.999807
vt 0.716331 0.500092
vt 0.283669 0.500092
vt 0.283669 0.465550
vt 0.875483 0.500092
vt 0.675542 0.501622
vt 0.827246 0.501622
vt 0.827246 0.520495
vt 0.675542 0.520495
vt 0.788071 0.600746
vt 1.000000 0.600746
vt 1.000000 0.947368
vt 0.788071 0.947368
vt 1.000000 0.973734
vt 0.788071 0.973734
vt 0.211929 0.973734
vt -0.000000 0.973734
vt 0.211929 0.652115
vt 0.000000 0.652115
vt 0.000000 0.625750
vt 0.211929 0.625750
vt 0.000000 0.999901
vt 0.211929 0.999901
vt 0.341741 0.599967
vt 0.341741 0.625750
vt 0.211929 0.599967
vt 0.788070 0.599967
vt 0.788070 0.625750
vt 0.658259 0.625750
vt 0.658259 0.599967
vt 1.000000 0.599967
vt 1.000000 0.625750
vt 1.000000 0.652115
vt 0.788070 0.652115
vt 0.000000 0.999807
vt 0.000000 0.926648
vt 0.211929 0.926648
vt 0.211929 0.999807
vt 0.000000 0.900283
vt 0.211929 0.900283
vt 0.000000 0.854287
vt 0.211929 0.854287
vt 0.211929 0.582311
vt 0.341741 0.582311
vt 0.000000 0.582311
vt 0.658259 0.582311
vt 0.283669 0.261306
vt 1.000000 0.563513
vt 1.000000 0.596827
vt 0.827246 0.520495
vt 0.675542 0.520495
vt 0.675542 0.501622
vt 0.124517 0.465550
vt 0.124517 0.261306
vt 0.124517 0.500092
vt 0.510008 0.563514
vt 0.510008 0.596827
vt 0.489992 0.563514
vt 0.489992 0.596827
vt 0.827246 0.602401
vt 0.675542 0.602401
vt 0.827246 0.602401
vt 0.675542 0.602401
vt 1.000000 0.999901
vt 0.788071 0.999901
vt 0.658259 0.999901
vt 0.658259 0.973734
vt 0.341741 0.973734
vt 0.341741 0.999901
vt 1.000000 0.563532
vt 1.000000 0.596891
vt 0.989992 0.596891
vt 0.989992 0.563532
vt 0.000000 0.599967
vt 0.489992 0.596891
vt 0.489992 0.563531
vt 0.510008 0.563532
vt 0.510008 0.596891
vt 0.618154 0.563532
vt 0.618154 0.596891
vt 0.881846 0.596891
vt 0.881846 0.563532
vt 1.000000 0.999958
vt 0.788071 0.999958
vt 0.211929 0.999958
vt 0.000000 0.999958
vt 0.588342 0.563490
vt 0.588342 0.596874
vt 0.411658 0.596873
vt 0.411658 0.563490
vt 0.411658 0.563490
vt 0.588342 0.563490
vt 0.411658 0.596874
s 0
usemtl M_WallLaboratory
f 9/1/1 1/2/1 8/3/1 12/4/1
f 14/5/2 10/6/2 9/7/2 13/8/2
f 51/9/2 49/10/2 64/11/2 65/12/2
f 13/13/1 9/1/1 12/4/1 16/14/1
f 10/6/1 14/5/1 15/15/1 11/16/1
f 73/17/1 72/18/1 21/19/1 22/20/1
f 70/21/1 38/22/1 68/23/1 2/24/1
f 28/25/1 47/26/1 38/22/1 70/21/1
f 44/27/1 68/23/1 38/22/1 42/28/1
f 2/24/3 68/23/3 69/29/3 3/30/3
f 44/27/1 42/28/1 41/31/1 43/32/1
f 91/33/1 94/34/1 47/26/1 28/25/1
f 4/35/1 15/15/1 14/5/1 49/10/1
f 11/16/1 5/36/1 50/37/1 10/6/1
f 26/38/1 4/35/1 49/10/1 51/9/1
f 4/39/1 26/40/1 30/41/1 19/42/1
f 71/43/1 74/44/1 29/45/1 20/46/1
f 20/46/1 29/45/1 27/47/1 6/48/1
f 22/20/1 21/19/1 7/49/1 52/50/1
f 48/51/1 25/52/1 53/53/1 36/54/1
f 77/55/1 52/50/1 7/49/1 78/56/1
f 82/57/1 39/58/1 36/54/1 84/59/1
f 85/60/1 35/61/1 40/62/1 81/63/1
f 86/64/1 31/65/1 35/61/1 85/60/1
f 31/65/1 34/66/1 45/67/1 35/61/1
f 92/68/1 33/69/1 46/70/1 93/71/1
f 33/69/1 32/72/1 37/73/1 46/70/1
f 37/73/1 32/72/1 54/74/1 55/75/1
f 41/31/1 37/73/1 55/75/1 43/32/1
f 43/32/3 55/75/3 60/76/3 57/77/3
f 55/75/3 54/74/3 59/78/3 60/76/3
f 81/63/1 40/62/1 39/58/1 82/57/1
f 68/23/3 44/27/3 58/79/3 69/29/3
f 9/7/2 10/6/2 50/37/2 1/80/2
f 8/3/1 1/2/1 63/81/1 61/82/1
f 5/40/1 23/83/1 24/84/1 62/85/1
f 1/80/2 50/37/2 56/86/2 63/87/2
f 50/37/1 5/36/1 62/88/1 56/86/1
f 49/10/2 14/5/2 13/8/2 64/11/2
f 64/89/1 13/13/1 16/14/1 66/90/1
f 65/91/1 64/89/1 66/90/1 67/92/1
f 19/42/1 30/41/1 74/93/1 71/94/1
f 44/27/3 43/32/3 57/77/3 58/79/3
f 24/84/1 23/83/1 72/95/1 73/96/1
f 27/47/1 80/97/1 79/98/1 6/48/1
f 6/48/1 79/98/1 75/99/1 17/100/1
f 18/101/1 76/102/1 78/56/1 7/49/1
f 83/103/1 77/104/1 78/105/1 84/106/1
f 53/53/1 83/107/1 84/59/1 36/54/1
f 80/108/1 86/109/1 85/110/1 79/111/1
f 79/111/1 85/110/1 81/112/1 75/113/1
f 17/100/1 75/99/1 76/102/1 18/101/1
f 76/114/1 82/115/1 84/106/1 78/105/1
f 34/66/1 88/116/1 89/117/1 45/67/1
f 75/113/1 81/112/1 82/115/1 76/114/1
f 25/52/1 48/51/1 90/118/1 87/119/1
f 88/120/1 92/121/1 93/122/1 89/123/1
f 87/124/1 90/125/1 94/121/1 91/126/1
