# Blender 5.2.0 LTS
# www.blender.org
mtllib WallBaseLaboratory.mtl
o WallBaseLaboratory
v 3.001934 0.100005 -2.500938
v -3.001935 0.100005 -2.500938
v 3.001934 1.170891 -3.339877
v -3.001935 1.170891 -3.339877
v 3.001934 3.030764 -3.339877
v -3.001935 3.030764 -3.339877
v 3.001934 4.101650 -2.500938
v -3.001935 4.101650 -2.500938
v 3.001934 -0.100005 -2.500938
v -3.001935 -0.100005 -2.500938
v 3.001934 2.105150 -3.339877
v -3.001935 2.105150 -3.339877
v 3.001934 1.399249 -3.339877
v -3.001935 1.399249 -3.339877
vn -0.0000 0.6167 0.7872
vn -0.0000 -0.0000 1.0000
vn -0.0000 -0.6167 0.7872
vt 0.782144 0.192753
vt 0.782144 0.334577
vt 0.156219 0.334577
vt 0.156219 0.192753
vt 1.022110 0.602575
vt 1.022110 0.763562
vt -0.022110 0.763563
vt -0.022110 0.602575
vt 1.022110 1.000165
vt -0.022110 1.000165
vt 1.000000 0.597211
vt -0.000000 0.597211
vt -0.000000 0.563898
vt 1.000000 0.563898
vt 0.911305 0.502831
vt 0.911305 0.599549
vt 0.088695 0.599549
vt 0.088695 0.502831
vt 0.782144 0.358384
vt 0.156219 0.358384
s 0
usemtl M_WallLaboratory
f 1/1/1 3/2/1 4/3/1 2/4/1
f 11/5/2 5/6/2 6/7/2 12/8/2
f 5/6/3 7/9/3 8/10/3 6/7/3
f 1/11/2 2/12/2 10/13/2 9/14/2
f 13/15/2 11/16/2 12/17/2 14/18/2
f 3/2/2 13/19/2 14/20/2 4/3/2
