# Blender 5.2.0 LTS
# www.blender.org
mtllib WallMultiLevelMidLaboratory.mtl
o WallMultiLevelMidLaboratory
v 3.001934 0.100005 -2.500938
v -3.001934 0.100005 -2.500938
v 3.001934 1.170891 -3.339877
v -3.001934 1.170891 -3.339877
v 3.001934 7.230776 -3.339877
v -3.001934 7.230776 -3.339877
v 3.001934 8.301661 -2.500938
v -3.001934 8.301661 -2.500938
v 3.001934 -0.100005 -2.500938
v -3.001934 -0.100005 -2.500938
v 3.001934 4.101650 -3.339877
v -3.001934 4.101650 -3.339877
v 3.001934 2.100966 -3.339877
v -3.001934 2.100966 -3.339877
v -3.001934 6.302622 -3.339877
v 3.001934 6.302622 -3.339877
vn -0.0000 0.6167 0.7872
vn -0.0000 -0.0000 1.0000
vn -0.0000 -0.6167 0.7872
vt 1.024346 0.599077
vt 1.024346 0.836692
vt -0.024346 0.836692
vt -0.024346 0.599077
vt -0.024339 0.998809
vt -0.024339 0.836691
vt 1.024340 0.836691
vt 1.024340 0.998809
vt -0.024339 0.599079
vt 1.024340 0.599078
vt 1.000000 0.598085
vt 0.000000 0.598085
vt 0.000000 0.564772
vt 1.000000 0.564772
vt -0.100562 0.999278
vt -0.100562 0.599024
vt 1.100562 0.599024
vt 1.100562 0.999278
vt 1.024346 0.999148
vt -0.024346 0.999148
vt -0.023999 0.999074
vt -0.023999 0.614886
vt 1.023999 0.614886
vt 1.023999 0.999074
s 0
usemtl M_WallLaboratory
f 1/1/1 3/2/1 4/3/1 2/4/1
f 16/5/2 5/6/2 6/7/2 15/8/2
f 5/6/3 7/9/3 8/10/3 6/7/3
f 1/11/2 2/12/2 10/13/2 9/14/2
f 13/15/2 11/16/2 12/17/2 14/18/2
f 3/2/2 13/19/2 14/20/2 4/3/2
f 11/21/2 16/22/2 15/23/2 12/24/2
