# Blender 5.2.0 LTS
# www.blender.org
mtllib WallPlainMidLaboratory.mtl
o WallPlainMidLaboratory
v 2.500911 4.101650 -2.500938
v 2.500911 0.100005 -2.500938
v -2.500911 0.100005 -2.500938
v -2.500911 4.101650 -2.500938
v 2.500911 -0.100005 -2.500938
v -2.500911 -0.100005 -2.500938
v -2.500911 2.100966 -2.500938
v 2.500911 2.100966 -2.500938
vn -0.0000 -0.0000 1.0000
vt 1.000000 0.999970
vt 0.000000 0.999970
vt 0.000000 0.599923
vt 1.000000 0.599923
vt 0.916550 0.598706
vt 0.083450 0.598706
vt 0.083450 0.565392
vt 0.916550 0.565392
vt 1.000000 0.999914
vt 0.000000 0.999914
vt 1.000000 0.599923
s 0
usemtl M_WallLaboratory
f 8/1/1 7/2/1 3/3/1 2/4/1
f 2/5/1 3/6/1 6/7/1 5/8/1
f 1/9/1 4/10/1 7/3/1 8/11/1
