# Blender 5.2.0 LTS
# www.blender.org
mtllib WallPlainBaseLaboratory.mtl
o WallPlainBaseLaboratory
v 3.001934 4.101650 -2.500938
v 3.001934 0.100005 -2.500938
v -3.001934 0.100005 -2.500938
v -3.001934 4.101650 -2.500938
v 3.001934 -0.100005 -2.500938
v -3.001934 -0.100005 -2.500938
v -3.001934 1.399249 -2.500938
v 3.001934 1.399249 -2.500938
v 3.001934 2.105150 -2.500938
v -3.001934 2.105150 -2.500938
vn -0.0000 -0.0000 1.0000
vt 0.937497 0.239848
vt 0.130741 0.239848
vt 0.130741 0.065265
vt 0.937497 0.065265
vt 1.000000 0.594985
vt 0.000000 0.594985
vt 0.000000 0.561671
vt 1.000000 0.561671
vt 0.918234 0.600796
vt 0.081766 0.600796
vt 0.081766 0.502448
vt 0.918234 0.502448
vt 1.102011 1.001369
vt -0.102011 1.001369
vt -0.102011 0.600988
vt 1.102011 0.600988
s 0
usemtl M_WallLaboratory
f 8/1/1 7/2/1 3/3/1 2/4/1
f 2/5/1 3/6/1 6/7/1 5/8/1
f 9/9/1 10/10/1 7/11/1 8/12/1
f 1/13/1 4/14/1 10/15/1 9/16/1
