# Blender 5.2.0 LTS
# www.blender.org
mtllib plane.mtl
o Plane.001
v -0.000000 0.846230 -0.000000
v -0.000000 -0.846230 -0.000000
v -0.000000 0.846230 1.692460
v 0.000000 -0.846230 1.692460
v -0.846230 0.000000 0.000000
v 0.846230 0.000000 -0.000000
v -0.846230 0.000000 1.692460
v 0.846230 0.000000 1.692460
vn 1.0000 -0.0000 -0.0000
vn -0.0000 1.0000 -0.0000
vt 0.000100 0.999900
vt 0.999900 0.999900
vt 0.999900 0.000100
vt 0.000100 0.000100
vt 0.000100 0.999900
vt 0.999900 0.999900
vt 0.999900 0.000100
vt 0.000100 0.000100
s 0
f 1/1/1 3/2/1 4/3/1 2/4/1
f 5/5/2 7/6/2 8/7/2 6/8/2
