# Blender 5.2.1 LTS
# www.blender.org
mtllib BarrierCorner.mtl
o BarrierCorner
v 2.500911 0.051380 2.602958
v 2.500911 0.100005 2.602958
v 2.500911 0.051380 2.500000
v 2.500911 0.100005 2.500000
v 2.602958 0.051380 2.602958
v 2.602958 0.100005 2.602958
v 2.602958 0.051380 2.500000
v 2.602958 0.100005 2.500000
v 2.847528 1.002554 2.846618
v 2.847528 1.002554 2.949576
v 2.949576 1.002554 2.846618
v 2.949576 1.002554 2.949576
v 2.659842 0.419669 2.658932
v 2.828358 0.758609 2.827447
v 2.930406 0.758609 2.827447
v 2.761890 0.419669 2.658932
v 2.930406 0.758609 2.930406
v 2.761890 0.419669 2.761890
v 2.659842 0.419669 2.761890
v 2.828358 0.758609 2.930406
v 2.679012 0.458226 2.678102
v 2.781060 0.458226 2.678102
v 2.781060 0.458226 2.781060
v 2.679012 0.458226 2.781060
v 2.847528 0.797167 2.846618
v 2.847528 0.797167 2.949576
v 2.949576 0.797167 2.846618
v 2.949576 0.797167 2.949576
v 2.713746 0.797396 2.712835
v 2.713746 0.797396 2.815794
v 2.532490 0.458456 2.531579
v 2.532490 0.458456 2.634538
v 2.713746 0.758838 2.712835
v 2.713746 0.758838 2.815794
v 2.532490 0.419898 2.531579
v 2.532490 0.419898 2.634538
v 2.634538 0.419898 2.531579
v 2.634538 0.458456 2.531579
v 2.815794 0.758838 2.712835
v 2.815794 0.797396 2.712835
v 2.577178 0.419898 2.531579
v 2.577178 0.457995 2.531579
v 2.615276 0.419898 2.531579
v 2.615276 0.457995 2.531579
v 2.623166 0.438947 2.531579
v 2.569288 0.438947 2.531579
v 2.596227 0.412008 2.531579
v 2.596227 0.465885 2.531579
v 2.596227 0.438947 2.531579
v 2.623166 0.438947 2.500910
v 2.615276 0.419898 2.500910
v 2.596227 0.412008 2.500910
v 2.596227 0.465885 2.500910
v 2.577178 0.457995 2.500910
v 2.569288 0.438947 2.500910
v 2.577178 0.419898 2.500910
v 2.615276 0.457995 2.500910
v 2.596227 0.438947 2.500910
v 2.760438 0.758840 2.712835
v 2.760438 0.796937 2.712835
v 2.798535 0.758840 2.712835
v 2.798535 0.796937 2.712835
v 2.806425 0.777888 2.712835
v 2.752548 0.777888 2.712835
v 2.779486 0.750950 2.712835
v 2.779486 0.804827 2.712835
v 2.779487 0.777888 2.712835
v 2.806425 0.777888 2.500910
v 2.798535 0.758840 2.500910
v 2.779486 0.750950 2.500910
v 2.779486 0.804827 2.500910
v 2.760438 0.796937 2.500910
v 2.752548 0.777888 2.500910
v 2.760438 0.758840 2.500910
v 2.798535 0.796937 2.500910
v 2.779487 0.777888 2.500910
v 2.500910 0.758840 2.760437
v 2.500910 0.796937 2.760437
v 2.500910 0.758840 2.798535
v 2.500910 0.796937 2.798535
v 2.500910 0.777888 2.752548
v 2.500910 0.777888 2.806425
v 2.500910 0.750950 2.779486
v 2.500910 0.804827 2.779486
v 2.500910 0.777888 2.779487
v 2.713746 0.750950 2.779486
v 2.713746 0.758840 2.760437
v 2.713746 0.777888 2.752547
v 2.713746 0.796937 2.760437
v 2.713746 0.804827 2.779486
v 2.713746 0.796937 2.798534
v 2.713746 0.777888 2.806425
v 2.713746 0.758840 2.798534
v 2.713746 0.777888 2.779486
v 2.500910 0.419898 2.577178
v 2.500910 0.457995 2.577178
v 2.500910 0.419898 2.615275
v 2.500910 0.457995 2.615275
v 2.500910 0.438947 2.569288
v 2.500910 0.438947 2.623166
v 2.500910 0.412008 2.596227
v 2.500910 0.465885 2.596227
v 2.500910 0.438947 2.596227
v 2.532490 0.412008 2.596227
v 2.532490 0.419898 2.577178
v 2.532490 0.438947 2.569288
v 2.532490 0.457995 2.577178
v 2.532490 0.465885 2.596227
v 2.532490 0.457995 2.615275
v 2.532490 0.438947 2.623166
v 2.532490 0.419898 2.615275
v 2.532490 0.438947 2.596227
v 2.806425 0.742778 2.655226
v 2.806425 0.812999 2.655226
v 2.818403 0.742778 2.655226
v 2.818403 0.812999 2.655226
v 2.798535 0.758840 2.685385
v 2.798535 0.796937 2.685385
v 2.760437 0.758840 2.685385
v 2.760437 0.796937 2.685385
v 2.752548 0.777888 2.685385
v 2.806425 0.777888 2.685385
v 2.779486 0.804827 2.685385
v 2.779486 0.750949 2.685385
v 2.806717 0.750657 2.685385
v 2.806717 0.805119 2.685385
v 2.752255 0.750657 2.685385
v 2.752255 0.805119 2.685385
v 2.740976 0.777888 2.685385
v 2.817997 0.777888 2.685385
v 2.779486 0.816399 2.685385
v 2.779486 0.739378 2.685385
v 2.798535 0.758840 2.671891
v 2.779486 0.750949 2.671891
v 2.798535 0.796937 2.671891
v 2.779486 0.804827 2.671891
v 2.806425 0.777888 2.671891
v 2.752548 0.777888 2.671891
v 2.760437 0.758840 2.671891
v 2.760437 0.796937 2.671891
v 2.806717 0.750657 2.671891
v 2.779486 0.739378 2.671891
v 2.806717 0.805119 2.671891
v 2.779486 0.816399 2.671891
v 2.817997 0.777888 2.671891
v 2.740976 0.777888 2.671891
v 2.752255 0.750657 2.671891
v 2.752255 0.805119 2.671891
v 2.623166 0.403836 2.489450
v 2.623166 0.474058 2.489450
v 2.635144 0.403836 2.489450
v 2.635144 0.474058 2.489450
v 2.615276 0.419899 2.519609
v 2.615276 0.457996 2.519609
v 2.577178 0.419899 2.519609
v 2.577178 0.457996 2.519609
v 2.569288 0.438947 2.519609
v 2.623166 0.438947 2.519609
v 2.596227 0.465886 2.519609
v 2.596227 0.412008 2.519609
v 2.623458 0.411716 2.519609
v 2.623458 0.466178 2.519609
v 2.568996 0.411716 2.519609
v 2.568996 0.466178 2.519609
v 2.557717 0.438947 2.519609
v 2.634737 0.438947 2.519609
v 2.596227 0.477458 2.519609
v 2.596227 0.400437 2.519609
v 2.615276 0.419899 2.506115
v 2.596227 0.412008 2.506115
v 2.615276 0.457996 2.506115
v 2.596227 0.465886 2.506115
v 2.623166 0.438947 2.506115
v 2.569288 0.438947 2.506115
v 2.577178 0.419899 2.506115
v 2.577178 0.457996 2.506115
v 2.623458 0.411716 2.506115
v 2.596227 0.400437 2.506115
v 2.623458 0.466178 2.506115
v 2.596227 0.477458 2.506115
v 2.634737 0.438947 2.506115
v 2.557717 0.438947 2.506115
v 2.568996 0.411716 2.506115
v 2.568996 0.466178 2.506115
v 2.818403 0.742778 2.738868
v 2.818403 0.812999 2.738868
v 2.806425 0.742778 2.738868
v 2.806425 0.812999 2.738868
v 2.635144 0.403836 2.573092
v 2.635144 0.474058 2.573092
v 2.623166 0.403836 2.573092
v 2.623166 0.474058 2.573092
v 2.655226 0.742778 2.806425
v 2.655226 0.812999 2.806425
v 2.655226 0.742778 2.818403
v 2.655226 0.812999 2.818403
v 2.685385 0.758840 2.798535
v 2.685385 0.796937 2.798535
v 2.685385 0.758840 2.760437
v 2.685385 0.796937 2.760437
v 2.685385 0.777888 2.752548
v 2.685385 0.777888 2.806425
v 2.685385 0.804827 2.779486
v 2.685385 0.750949 2.779486
v 2.685385 0.750657 2.806717
v 2.685385 0.805119 2.806717
v 2.685385 0.750657 2.752255
v 2.685385 0.805119 2.752255
v 2.685385 0.777888 2.740976
v 2.685385 0.777888 2.817997
v 2.685385 0.816399 2.779486
v 2.685385 0.739378 2.779486
v 2.671891 0.758840 2.798535
v 2.671891 0.750949 2.779486
v 2.671891 0.796937 2.798535
v 2.671891 0.804827 2.779486
v 2.671891 0.777888 2.806425
v 2.671891 0.777888 2.752548
v 2.671891 0.758840 2.760437
v 2.671891 0.796937 2.760437
v 2.671891 0.750657 2.806717
v 2.671891 0.739378 2.779486
v 2.671891 0.805119 2.806717
v 2.671891 0.816399 2.779486
v 2.671891 0.777888 2.817997
v 2.671891 0.777888 2.740976
v 2.671891 0.750657 2.752255
v 2.671891 0.805119 2.752255
v 2.489450 0.403836 2.623166
v 2.489450 0.474058 2.623166
v 2.489450 0.403836 2.635144
v 2.489450 0.474058 2.635144
v 2.519609 0.419899 2.615276
v 2.519609 0.457996 2.615276
v 2.519609 0.419899 2.577178
v 2.519609 0.457996 2.577178
v 2.519609 0.438947 2.569288
v 2.519609 0.438947 2.623166
v 2.519609 0.465886 2.596227
v 2.519609 0.412008 2.596227
v 2.519609 0.411716 2.623458
v 2.519609 0.466178 2.623458
v 2.519609 0.411716 2.568996
v 2.519609 0.466178 2.568996
v 2.519609 0.438947 2.557717
v 2.519609 0.438947 2.634737
v 2.519609 0.477458 2.596227
v 2.519609 0.400437 2.596227
v 2.506115 0.419899 2.615276
v 2.506115 0.412008 2.596227
v 2.506115 0.457996 2.615276
v 2.506115 0.465886 2.596227
v 2.506115 0.438947 2.623166
v 2.506115 0.438947 2.569288
v 2.506115 0.419899 2.577178
v 2.506115 0.457996 2.577178
v 2.506115 0.411716 2.623458
v 2.506115 0.400437 2.596227
v 2.506115 0.466178 2.623458
v 2.506115 0.477458 2.596227
v 2.506115 0.438947 2.634737
v 2.506115 0.438947 2.557717
v 2.506115 0.411716 2.568996
v 2.506115 0.466178 2.568996
v 2.738868 0.742778 2.818403
v 2.738868 0.812999 2.818403
v 2.738868 0.742778 2.806425
v 2.738868 0.812999 2.806425
v 2.573092 0.403836 2.635144
v 2.573092 0.474058 2.635144
v 2.573092 0.403836 2.623166
v 2.573092 0.474058 2.623166
v 2.781343 0.412374 2.665902
v 2.666955 0.412374 2.781311
v 2.724149 0.412374 2.781311
v 2.688443 0.466761 2.802800
v 2.802832 0.466761 2.687390
v 2.745638 0.466761 2.802800
v 2.781343 0.412374 2.723606
v 2.802832 0.466761 2.745095
v 2.796004 0.466776 2.680563
v 2.681616 0.466776 2.795972
v 2.773484 0.412394 2.658042
v 2.738892 0.466774 2.796044
v 2.796087 0.466774 2.738340
v 2.659095 0.412394 2.773451
v 2.795992 0.466772 2.795942
v 2.773374 0.412388 2.773319
v 2.716253 0.412390 2.773401
v 2.773447 0.412390 2.715697
v 2.549368 0.467113 2.606478
v 2.577965 0.467113 2.577626
v 2.606562 0.467113 2.548773
v 2.635159 0.467113 2.519921
v 2.606514 0.412726 2.548725
v 2.635111 0.412726 2.519872
v 2.520723 0.412726 2.635282
v 2.520771 0.467113 2.635330
v 2.549320 0.412726 2.606430
v 2.577917 0.412726 2.577577
v 2.941578 0.749336 2.826224
v 2.827190 0.749336 2.941633
v 2.884384 0.749336 2.941633
v 2.848679 0.803723 2.963122
v 2.963067 0.803723 2.847713
v 2.761145 0.804035 2.760689
v 2.703950 0.804035 2.818394
v 2.703902 0.749647 2.818345
v 2.818290 0.749647 2.702936
v 2.818339 0.804035 2.702984
v 2.761096 0.749647 2.760641
v 2.905873 0.803723 2.963122
v 2.732548 0.804035 2.789541
v 2.732499 0.749647 2.789493
v 2.941578 0.749336 2.883929
v 2.963067 0.803723 2.905417
v 2.789742 0.804035 2.731837
v 2.789693 0.749647 2.731788
v 2.956239 0.803738 2.840885
v 2.841851 0.803738 2.956295
v 2.933719 0.749356 2.818365
v 2.899127 0.803736 2.956367
v 2.956322 0.803736 2.898662
v 2.819330 0.749356 2.933774
v 2.956227 0.803734 2.956265
v 2.933609 0.749350 2.933642
v 2.876488 0.749352 2.933724
v 2.933682 0.749352 2.876019
vn -0.0000 -1.0000 -0.0000
vn -0.0000 -0.0000 -1.0000
vn -0.0000 -0.1934 0.9811
vn -0.0000 -0.0000 1.0000
vn -0.0000 -0.2555 0.9668
vn 0.9668 -0.2555 -0.0000
vn 1.0000 -0.0000 -0.0000
vn 0.9811 -0.1933 -0.0000
vn -0.0000 1.0000 -0.0000
vn 0.9811 -0.1934 -0.0000
vn -1.0000 -0.0000 -0.0000
vn -0.0000 -0.4452 0.8954
vn -0.8954 0.4452 -0.0000
vn 0.8954 -0.4452 -0.0000
vn -0.0000 0.4452 -0.8954
vn -0.7071 -0.0000 0.7071
vn -0.9239 -0.0000 0.3825
vn -0.9238 -0.0000 0.3829
vn -0.0010 -1.0000 -0.0010
vn -0.0020 -1.0000 -0.0000
vn -0.0000 -1.0000 -0.0018
vn -0.0009 -1.0000 -0.0009
vn 0.0009 1.0000 0.0009
vn -0.0000 1.0000 0.0017
vn -0.0018 -1.0000 -0.0000
vn 0.0008 1.0000 0.0008
vn -0.0000 1.0000 0.0016
vn 0.7071 -0.0000 -0.7071
vn 0.3828 -0.0000 -0.9238
vn 0.3825 -0.0000 -0.9239
vn -0.9238 -0.0000 0.3828
vn 0.3829 -0.0000 -0.9238
vn 0.0017 1.0000 -0.0000
vn 0.0016 1.0000 -0.0000
vn -0.0000 -1.0000 -0.0020
vn 0.7071 0.7071 -0.0000
vn -0.7071 0.7071 -0.0000
vn 0.7071 -0.7071 -0.0000
vn -0.7071 -0.7071 -0.0000
vn -0.0000 0.7071 -0.7071
vn -0.0000 -0.7071 -0.7071
vn -0.0000 0.7071 0.7071
vn -0.0000 -0.7071 0.7071
vn 0.9300 -0.3675 -0.0000
vn 0.7068 0.0001 -0.7074
vn 0.7066 0.0002 -0.7076
vn 0.7069 0.0001 -0.7073
vn -0.0003 -1.0000 -0.0018
vn -0.0005 -1.0000 -0.0015
vn -0.0015 -1.0000 -0.0005
vn -0.0018 -1.0000 -0.0003
vn -0.0004 -1.0000 -0.0018
vn -0.0006 -1.0000 -0.0016
vn 0.0016 1.0000 0.0003
vn 0.0013 1.0000 0.0005
vn 0.0003 1.0000 0.0016
vn 0.0005 1.0000 0.0013
vn 0.0005 1.0000 0.0014
vn 0.0004 1.0000 0.0016
vn -0.0000 -0.3675 0.9300
vn 0.0016 1.0000 0.0004
vn 0.0014 1.0000 0.0005
vn -0.0016 -1.0000 -0.0006
vn -0.0018 -1.0000 -0.0004
vn -0.7069 -0.0001 0.7073
vn -0.7068 -0.0001 0.7074
vn -0.7077 0.0004 0.7065
vn 0.9231 -0.3846 0.0013
vn -0.0000 1.0000 0.0020
vn -0.0000 -1.0000 -0.0023
vn 0.0015 -0.3847 0.9230
vn 0.7077 -0.0004 -0.7065
vn 0.0020 1.0000 -0.0000
vn -0.0023 -1.0000 -0.0000
vn -0.7066 -0.0002 0.7076
vn -0.7102 0.0013 -0.7040
vn -0.0005 -1.0000 -0.0018
vn -0.0006 -1.0000 -0.0017
vn -0.0018 -1.0000 -0.0005
vn -0.0017 -1.0000 -0.0006
vt 0.854966 0.670810
vt 0.854966 0.581733
vt 0.943254 0.581733
vt 0.943254 0.670810
vt 0.590837 0.266442
vt 0.590837 0.354730
vt 0.413143 0.354731
vt 0.413143 0.266442
vt 0.985324 0.759098
vt 0.943254 0.759098
vt 0.985324 0.670810
vt 0.985324 0.581734
vt 0.324066 0.354731
vt 0.324066 0.266442
vt 0.590837 0.177365
vt 0.413143 0.177365
vt 0.590837 0.000000
vt 0.590837 0.089076
vt 0.413143 0.089077
vt 0.413143 0.000000
vt 0.242690 0.773245
vt 0.162033 0.737337
vt 0.162033 0.399252
vt 0.242690 0.435160
vt 0.242690 0.394381
vt 0.162033 0.358473
vt 0.162033 0.040780
vt 0.242690 0.076688
vt 0.324066 0.809473
vt 0.324066 0.471388
vt 0.324066 0.430609
vt 0.324066 0.112917
vt 0.080657 0.773565
vt 0.080657 0.435481
vt 0.080657 0.394701
vt 0.080657 0.077009
vt -0.000000 0.809473
vt 0.000000 0.471388
vt 0.000000 0.430609
vt -0.000000 0.112917
vt 0.848312 0.206766
vt 0.881700 0.183351
vt 0.881700 0.347039
vt 0.848340 0.346998
vt 0.848312 0.140232
vt 0.785325 0.203219
vt 0.785325 0.062987
vt 0.848312 0.000000
vt 0.162033 0.000000
vt 0.242690 0.035908
vt 0.773514 0.581734
vt 0.730661 0.504542
vt 0.773514 0.354731
vt 0.816367 0.431922
vt 0.080657 0.036229
vt 0.653057 0.657301
vt 0.715487 0.594871
vt 0.715487 0.758559
vt 0.653058 0.820988
vt 0.464655 0.659979
vt 0.527641 0.596992
vt 0.527641 0.752812
vt 0.464655 0.815799
vt 0.527084 0.534005
vt 0.464655 0.596435
vt 0.464655 0.417160
vt 0.527084 0.354730
vt 0.878797 0.354731
vt 0.912182 0.378149
vt 0.912156 0.533969
vt 0.878797 0.534006
vt 0.945567 0.510588
vt 0.912182 0.534005
vt 0.912182 0.354731
vt 0.945541 0.354767
vt 0.960585 0.964128
vt 0.927226 0.964128
vt 0.927226 0.875839
vt 0.960585 0.875839
vt 0.927226 0.786762
vt 0.960585 0.786762
vt 0.978926 0.443019
vt 0.978925 0.532095
vt 0.945567 0.532096
vt 0.945567 0.443019
vt 0.945567 0.354731
vt 0.978926 0.354731
vt 0.881700 0.183351
vt 0.915087 0.206767
vt 0.915059 0.346999
vt 0.881700 0.347039
vt 0.590071 0.594314
vt 0.590071 0.758002
vt 0.590071 0.596992
vt 0.590071 0.417717
vt 0.878797 0.557392
vt 0.816367 0.494963
vt 0.816367 0.354731
vt 0.878797 0.417161
vt 0.943395 0.555538
vt 0.952313 0.577071
vt 0.934476 0.577071
vt 0.921862 0.564458
vt 0.934475 0.534006
vt 0.921862 0.546620
vt 0.952314 0.534006
vt 0.964927 0.546620
vt 0.964927 0.564458
vt 0.959969 0.309513
vt 0.981501 0.300593
vt 0.981501 0.318431
vt 0.968888 0.331045
vt 0.951050 0.287980
vt 0.968888 0.287980
vt 0.938436 0.300593
vt 0.938437 0.318431
vt 0.951050 0.331045
vt 0.812647 0.292410
vt 0.839181 0.292410
vt 0.839181 0.310248
vt 0.812647 0.310248
vt 0.812647 0.274572
vt 0.839181 0.274572
vt 0.839181 0.328086
vt 0.812647 0.328086
vt 0.812647 0.256733
vt 0.839181 0.256733
vt 0.812647 0.221057
vt 0.839181 0.221057
vt 0.839181 0.238895
vt 0.812647 0.238895
vt 0.839181 0.345924
vt 0.812647 0.345924
vt 0.812647 0.203219
vt 0.839181 0.203219
vt 0.900330 0.555538
vt 0.921862 0.564458
vt 0.909249 0.577071
vt 0.891411 0.577071
vt 0.878797 0.546620
vt 0.878797 0.564458
vt 0.891411 0.534006
vt 0.909249 0.534006
vt 0.921862 0.546620
vt 0.549173 0.964139
vt 0.570706 0.955220
vt 0.570706 0.973058
vt 0.558093 0.985671
vt 0.540255 0.942606
vt 0.558093 0.942606
vt 0.527641 0.955219
vt 0.527641 0.973058
vt 0.540255 0.985671
vt 0.901826 0.000000
vt 0.901826 0.183351
vt 0.883988 0.183351
vt 0.883988 0.000000
vt 0.919664 0.000000
vt 0.919664 0.183351
vt 0.866150 0.183351
vt 0.866150 0.000000
vt 0.937502 0.000000
vt 0.937502 0.183351
vt 0.973178 0.000000
vt 0.973179 0.183351
vt 0.955340 0.183351
vt 0.955340 0.000000
vt 0.848312 0.183351
vt 0.848312 0.000000
vt 0.991017 0.000000
vt 0.991017 0.183351
vt 0.259553 0.974340
vt 0.268472 0.995872
vt 0.250634 0.995872
vt 0.238021 0.983259
vt 0.281085 0.965421
vt 0.281085 0.983259
vt 0.268472 0.952807
vt 0.250634 0.952807
vt 0.238021 0.965421
vt 0.959968 0.266447
vt 0.968888 0.287980
vt 0.951050 0.287980
vt 0.938436 0.275366
vt 0.951050 0.244915
vt 0.938436 0.257528
vt 0.968888 0.244915
vt 0.981501 0.257529
vt 0.981501 0.275366
vt 0.802359 0.786762
vt 0.820198 0.786762
vt 0.820198 0.970901
vt 0.802359 0.970901
vt 0.909388 0.786762
vt 0.927226 0.786762
vt 0.927226 0.970901
vt 0.909388 0.970901
vt 0.838036 0.786762
vt 0.838036 0.970901
vt 0.891550 0.786762
vt 0.891550 0.970901
vt 0.873712 0.786762
vt 0.873712 0.970901
vt 0.855874 0.786762
vt 0.855874 0.970901
vt 0.784521 0.786762
vt 0.784521 0.970901
vt 0.762989 0.969942
vt 0.784521 0.978861
vt 0.771908 0.991474
vt 0.754070 0.991474
vt 0.771908 0.948409
vt 0.784521 0.961023
vt 0.754070 0.948409
vt 0.741457 0.961023
vt 0.741456 0.978861
vt 0.486187 0.971260
vt 0.495106 0.992792
vt 0.477268 0.992792
vt 0.464655 0.980179
vt 0.477268 0.949728
vt 0.464655 0.962341
vt 0.495106 0.949727
vt 0.507719 0.962341
vt 0.507719 0.980179
vt 0.812647 0.221057
vt 0.812647 0.238895
vt 0.785326 0.238895
vt 0.785325 0.221057
vt 0.812647 0.328085
vt 0.812647 0.345923
vt 0.785325 0.345923
vt 0.785325 0.328085
vt 0.812647 0.256733
vt 0.785325 0.256733
vt 0.812647 0.310247
vt 0.785325 0.310247
vt 0.812647 0.292409
vt 0.785326 0.292409
vt 0.812647 0.274571
vt 0.785326 0.274571
vt 0.812647 0.203219
vt 0.785326 0.203219
vt 0.661954 0.249668
vt 0.661954 0.322033
vt 0.601201 0.322033
vt 0.601201 0.249668
vt 0.661954 0.332396
vt 0.601201 0.332396
vt 0.672318 0.249668
vt 0.672318 0.322033
vt 0.703139 0.933128
vt 0.712388 0.936959
vt 0.694357 0.954991
vt 0.690525 0.945742
vt 0.672687 0.902677
vt 0.668856 0.893427
vt 0.694357 0.893427
vt 0.690525 0.902677
vt 0.660074 0.915290
vt 0.650824 0.911459
vt 0.672688 0.945742
vt 0.668856 0.954991
vt 0.660074 0.933128
vt 0.650824 0.936960
vt 0.703139 0.915290
vt 0.712388 0.911459
vt 0.123259 0.954879
vt 0.141098 0.954879
vt 0.144929 0.964129
vt 0.119428 0.964129
vt 0.123259 0.911814
vt 0.110646 0.924428
vt 0.101396 0.920597
vt 0.119428 0.902565
vt 0.144928 0.902565
vt 0.141097 0.911814
vt 0.153711 0.942266
vt 0.162960 0.946097
vt 0.162960 0.920596
vt 0.153711 0.924428
vt 0.110646 0.942266
vt 0.101396 0.946097
vt 0.715487 0.941023
vt 0.715487 0.923185
vt 0.727163 0.923185
vt 0.727163 0.941023
vt 0.715487 0.833995
vt 0.715487 0.816157
vt 0.727163 0.816157
vt 0.727163 0.833995
vt 0.843290 0.760237
vt 0.843290 0.785738
vt 0.831615 0.785738
vt 0.831615 0.760237
vt 0.843291 0.607234
vt 0.843290 0.632735
vt 0.831616 0.632735
vt 0.831616 0.607234
vt 0.715487 0.905347
vt 0.727163 0.905347
vt 0.831615 0.734737
vt 0.843290 0.734737
vt 0.715487 0.798319
vt 0.727163 0.798319
vt 0.843291 0.581733
vt 0.831616 0.581733
vt 0.715487 0.851833
vt 0.727163 0.851833
vt 0.727163 0.869671
vt 0.715487 0.869671
vt 0.843290 0.683736
vt 0.831615 0.683736
vt 0.831615 0.658235
vt 0.843290 0.658235
vt 0.715487 0.887509
vt 0.727163 0.887509
vt 0.831615 0.709236
vt 0.843290 0.709236
vt 0.091843 0.892202
vt 0.091843 0.819837
vt 0.152597 0.819837
vt 0.152597 0.892202
vt 0.091843 0.809474
vt 0.152597 0.809474
vt 0.081480 0.892202
vt 0.081480 0.819837
vt 0.504355 0.897413
vt 0.508187 0.888163
vt 0.526218 0.906195
vt 0.516969 0.910026
vt 0.473904 0.927865
vt 0.464655 0.931696
vt 0.464655 0.906195
vt 0.473904 0.910027
vt 0.486518 0.940478
vt 0.482687 0.949727
vt 0.516969 0.927864
vt 0.526218 0.931696
vt 0.504356 0.940478
vt 0.508187 0.949727
vt 0.486517 0.897413
vt 0.482686 0.888164
vt 0.392477 0.915166
vt 0.379863 0.927780
vt 0.370614 0.923948
vt 0.388645 0.905917
vt 0.422928 0.945618
vt 0.422928 0.927780
vt 0.432178 0.923948
vt 0.432177 0.949449
vt 0.414146 0.967480
vt 0.410315 0.958231
vt 0.379863 0.945618
vt 0.370614 0.949449
vt 0.388645 0.967480
vt 0.392477 0.958231
vt 0.410315 0.915166
vt 0.414146 0.905917
vt 0.915087 0.326057
vt 0.915087 0.308219
vt 0.926762 0.308219
vt 0.926762 0.326057
vt 0.915087 0.219027
vt 0.915087 0.201189
vt 0.926762 0.201189
vt 0.926762 0.219027
vt 0.586410 0.775496
vt 0.586410 0.800997
vt 0.574735 0.800997
vt 0.574735 0.775496
vt 0.586410 0.622493
vt 0.586410 0.647993
vt 0.574735 0.647994
vt 0.574735 0.622493
vt 0.915087 0.290380
vt 0.926762 0.290380
vt 0.574735 0.749996
vt 0.586410 0.749996
vt 0.915087 0.183351
vt 0.926762 0.183351
vt 0.586410 0.596992
vt 0.574735 0.596992
vt 0.915087 0.236866
vt 0.926762 0.236866
vt 0.926762 0.254704
vt 0.915087 0.254704
vt 0.586410 0.698995
vt 0.574735 0.698995
vt 0.574735 0.673494
vt 0.586410 0.673494
vt 0.915087 0.272542
vt 0.926762 0.272542
vt 0.574735 0.724495
vt 0.586410 0.724495
vt 0.590837 0.322033
vt 0.590837 0.249668
vt 0.162960 0.881838
vt 0.162960 0.809473
vt 0.223714 0.809473
vt 0.223714 0.881838
vt 0.162960 0.819837
vt 0.162960 0.892202
vt 0.223714 0.881838
vt 0.223714 0.809473
vt 0.284467 0.809473
vt 0.284467 0.881838
vt 0.601201 0.239304
vt 0.661954 0.239304
vt 0.152597 0.902565
vt 0.091843 0.902565
vt 0.743434 0.322033
vt 0.682681 0.322033
vt 0.682681 0.249668
vt 0.743434 0.249668
vt 0.682681 0.239304
vt 0.743434 0.239304
vt 0.753798 0.249668
vt 0.753798 0.322033
vt 0.009249 0.924428
vt 0.009249 0.942266
vt 0.000000 0.946097
vt 0.000000 0.920597
vt 0.052314 0.924428
vt 0.039701 0.911814
vt 0.043532 0.902565
vt 0.061564 0.920597
vt 0.061563 0.946097
vt 0.052314 0.942266
vt 0.021863 0.954879
vt 0.018032 0.964129
vt 0.043532 0.964129
vt 0.039701 0.954879
vt 0.021862 0.911814
vt 0.018031 0.902565
vt 0.330913 0.915315
vt 0.327082 0.906066
vt 0.352582 0.906066
vt 0.348751 0.915315
vt 0.330913 0.958380
vt 0.327082 0.967630
vt 0.309050 0.949598
vt 0.318300 0.945767
vt 0.348751 0.958380
vt 0.352582 0.967629
vt 0.361365 0.927929
vt 0.370614 0.924097
vt 0.361365 0.945767
vt 0.370614 0.949598
vt 0.318300 0.927928
vt 0.309050 0.924097
vt 0.586410 0.943701
vt 0.574735 0.943701
vt 0.574735 0.925863
vt 0.586410 0.925863
vt 0.586410 0.836673
vt 0.574735 0.836673
vt 0.574735 0.818835
vt 0.586410 0.818835
vt 0.715488 0.772818
vt 0.727163 0.772818
vt 0.727162 0.798319
vt 0.715488 0.798319
vt 0.715488 0.619815
vt 0.727163 0.619815
vt 0.727163 0.645316
vt 0.715488 0.645315
vt 0.586410 0.908025
vt 0.574735 0.908025
vt 0.715488 0.747318
vt 0.727162 0.747318
vt 0.574735 0.800997
vt 0.586410 0.800997
vt 0.715488 0.594314
vt 0.727163 0.594315
vt 0.586410 0.854511
vt 0.586410 0.872349
vt 0.574735 0.872349
vt 0.574735 0.854511
vt 0.715488 0.696317
vt 0.715488 0.670816
vt 0.727163 0.670816
vt 0.727163 0.696317
vt 0.586410 0.890187
vt 0.574735 0.890187
vt 0.715488 0.721817
vt 0.727163 0.721817
vt 0.010364 0.819837
vt 0.071117 0.819837
vt 0.071117 0.892202
vt 0.010363 0.892202
vt 0.071117 0.902565
vt 0.010363 0.902565
vt 0.000000 0.892201
vt 0.000000 0.819837
vt 0.947686 0.223052
vt 0.960299 0.235665
vt 0.956468 0.244915
vt 0.938436 0.226883
vt 0.978138 0.192600
vt 0.960299 0.192600
vt 0.956468 0.183351
vt 0.981969 0.183351
vt 1.000000 0.201383
vt 0.990751 0.205214
vt 0.978137 0.235665
vt 0.981969 0.244915
vt 1.000000 0.226883
vt 0.990751 0.223052
vt 0.947686 0.205214
vt 0.938437 0.201382
vt 0.628962 0.902603
vt 0.632793 0.893353
vt 0.650825 0.911385
vt 0.641575 0.915216
vt 0.598510 0.933054
vt 0.589261 0.936885
vt 0.589261 0.911385
vt 0.598510 0.915216
vt 0.611124 0.945668
vt 0.607292 0.954917
vt 0.641575 0.933054
vt 0.650824 0.936886
vt 0.628962 0.945668
vt 0.632793 0.954917
vt 0.611124 0.902602
vt 0.607293 0.893353
vt 0.938436 0.326057
vt 0.938436 0.308219
vt 0.938436 0.219027
vt 0.938436 0.201189
vt 0.843292 0.760237
vt 0.854966 0.760237
vt 0.854966 0.785737
vt 0.843291 0.785737
vt 0.843291 0.607234
vt 0.854966 0.607234
vt 0.854966 0.632735
vt 0.843291 0.632735
vt 0.938436 0.290380
vt 0.843291 0.734736
vt 0.854966 0.734736
vt 0.938436 0.183351
vt 0.843292 0.581733
vt 0.854966 0.581733
vt 0.938436 0.236866
vt 0.938436 0.254704
vt 0.926762 0.236866
vt 0.843291 0.683735
vt 0.843291 0.658235
vt 0.854966 0.658235
vt 0.854966 0.683735
vt 0.938436 0.272542
vt 0.843291 0.709236
vt 0.854966 0.709236
vt 0.464655 0.815799
vt 0.525408 0.815799
vt 0.525408 0.888164
vt 0.464655 0.888164
vt 0.081480 0.819837
vt 0.081480 0.892202
vt 0.590071 0.820988
vt 0.650824 0.820988
vt 0.650824 0.893353
vt 0.590071 0.893353
vt 0.682681 0.332396
vt 0.743434 0.332396
vt 0.071117 0.809474
vt 0.010364 0.809473
vt 0.209821 0.935740
vt 0.162960 0.952960
vt 0.162960 0.899058
vt 0.209821 0.881838
vt 0.574732 0.632831
vt 0.574696 0.802011
vt 0.527641 0.802022
vt 0.527641 0.605346
vt 0.695682 0.389651
vt 0.695509 0.593923
vt 0.660363 0.594054
vt 0.660712 0.354731
vt 0.625217 0.594184
vt 0.625390 0.389911
vt 0.730654 0.424614
vt 0.730654 0.593793
vt 0.359383 0.586780
vt 0.359217 0.354865
vt 0.394363 0.355000
vt 0.394702 0.621940
vt 0.429675 0.587050
vt 0.429509 0.355135
vt 0.464655 0.355270
vt 0.464650 0.551945
vt 0.284467 0.952807
vt 0.238021 0.935740
vt 0.238021 0.881838
vt 0.284467 0.898905
vt 0.324066 0.551406
vt 0.324071 0.354730
vt 0.590071 0.594315
vt 0.590071 0.425135
vt 0.831615 0.760540
vt 0.784522 0.786762
vt 0.784521 0.778409
vt 0.831612 0.750924
vt 0.527642 0.596992
vt 0.574735 0.623215
vt 0.770477 0.293905
vt 0.770477 0.239305
vt 0.778816 0.244198
vt 0.777600 0.298086
vt 0.650838 0.838827
vt 0.697372 0.820988
vt 0.697372 0.875576
vt 0.650824 0.893427
vt 0.429686 0.595310
vt 0.464655 0.560299
vt 0.695697 0.379982
vt 0.730661 0.414997
vt 0.370614 0.888216
vt 0.370630 0.833627
vt 0.416755 0.851316
vt 0.416755 0.905917
vt 0.770477 0.293904
vt 0.763354 0.298086
vt 0.762138 0.244198
vt 0.770477 0.239304
vt 0.324071 0.559759
vt 0.359395 0.595040
vt 0.590078 0.415518
vt 0.625406 0.380242
vt 0.784521 0.581733
vt 0.831576 0.581744
vt 0.574696 0.907460
vt 0.527641 0.907460
vt 0.527641 0.872314
vt 0.574696 0.872314
vt 0.574696 0.837167
vt 0.527641 0.837168
vt 0.527641 0.802022
vt 0.574696 0.802022
vt 0.574696 0.942606
vt 0.527641 0.942606
vt 0.731420 0.202160
vt 0.737247 0.152577
vt 0.785325 0.176946
vt 0.779499 0.226529
vt 0.784522 0.913263
vt 0.737467 0.913263
vt 0.737467 0.878117
vt 0.784522 0.878117
vt 0.779103 0.724690
vt 0.730984 0.750334
vt 0.737502 0.581733
vt 0.784521 0.583564
vt 0.784522 0.842971
vt 0.737467 0.842971
vt 0.737467 0.807825
vt 0.784522 0.807825
vt 0.785000 0.168599
vt 0.736875 0.142968
vt 0.731420 0.001842
vt 0.778438 0.000000
vt 0.429356 0.798421
vt 0.394060 0.833628
vt 0.394358 0.622253
vt 0.429504 0.622097
vt 0.626133 0.204123
vt 0.625983 0.000156
vt 0.661128 0.000312
vt 0.661430 0.239304
vt 0.696424 0.204435
vt 0.696274 0.000468
vt 0.731420 0.000625
vt 0.731420 0.169351
vt 0.359064 0.798733
vt 0.324067 0.763796
vt 0.324067 0.622566
vt 0.359212 0.622410
vt 0.778733 0.734300
vt 0.784521 0.783443
vt 0.736449 0.807825
vt 0.730661 0.758682
vt 0.590837 0.168726
vt 0.590837 -0.000000
vt 0.784522 0.948409
vt 0.737467 0.948409
vt 0.753798 0.293905
vt 0.753798 0.239304
vt 0.762137 0.244198
vt 0.760921 0.298086
vt 0.370600 0.888228
vt 0.324066 0.906066
vt 0.324066 0.851478
vt 0.370614 0.833627
vt 0.696430 0.212694
vt 0.731420 0.177705
vt 0.359056 0.808402
vt 0.324066 0.773412
vt 0.416755 0.888216
vt 0.416771 0.833627
vt 0.462896 0.851316
vt 0.462896 0.905917
vt 0.847521 0.257819
vt 0.840398 0.262000
vt 0.839181 0.208112
vt 0.847521 0.203219
vt 0.590837 0.177080
vt 0.626139 0.212382
vt 0.464649 0.772788
vt 0.429347 0.808091
vt 0.464649 0.763171
vt 0.464649 0.621941
s 1
usemtl M_MetalInterface
f 1/1/1 3/2/1 7/3/1 5/4/1
f 27/5/2 25/6/2 9/7/2 11/8/2
f 2/9/3 1/10/4 5/4/4 6/11/5
f 6/11/6 5/4/7 7/3/7 8/12/8
f 9/7/9 10/13/9 12/14/9 11/8/9
f 28/15/10 27/5/6 11/8/7 12/16/7
f 25/17/11 26/18/11 10/19/11 9/20/11
f 26/18/5 28/15/3 12/16/4 10/19/4
f 2/21/3 6/22/5 18/23/12 19/24/12
f 24/25/12 23/26/12 17/27/12 20/28/12
f 4/29/13 2/21/13 19/24/13 13/30/13
f 21/31/13 24/25/13 20/28/13 14/32/13
f 6/22/6 8/33/8 16/34/14 18/23/14
f 23/26/14 22/35/14 15/36/14 17/27/14
f 8/33/15 4/37/15 13/38/15 16/34/15
f 22/35/15 21/39/15 14/40/15 15/36/15
f 20/41/16 26/42/16 30/43/17 34/44/18
f 18/23/14 16/34/14 22/35/14 23/26/14
f 14/45/19 20/46/20 34/47/20 33/48/19
f 19/24/12 18/23/12 23/26/12 24/25/12
f 20/28/12 17/27/12 28/49/3 26/50/5
f 16/51/21 13/52/22 35/53/22 37/54/21
f 17/27/14 15/36/14 27/55/6 28/49/10
f 25/56/23 27/57/24 40/58/24 29/59/23
f 13/60/22 19/61/25 36/62/25 35/63/22
f 21/64/26 22/65/27 38/66/27 31/67/26
f 22/68/28 16/69/28 37/70/29 38/71/30
f 19/72/16 24/73/16 32/74/17 36/75/31
f 40/76/30 39/77/32 33/78/2 29/79/2
f 33/78/11 34/80/18 30/81/17 29/79/11
f 35/82/11 36/83/31 32/84/17 31/85/11
f 38/86/30 37/87/29 35/82/2 31/85/2
f 27/88/28 15/89/28 39/90/32 40/91/30
f 26/92/33 25/56/23 29/59/23 30/93/33
f 24/94/34 21/64/26 31/67/26 32/95/34
f 15/96/35 14/97/19 33/98/19 39/99/35
f 49/100/4 48/101/4 42/102/4 46/103/4
f 47/104/4 49/100/4 46/103/4 41/105/4
f 43/106/4 45/107/4 49/100/4 47/104/4
f 45/107/4 44/108/4 48/101/4 49/100/4
f 58/109/2 55/110/2 54/111/2 53/112/2
f 52/113/2 56/114/2 55/110/2 58/109/2
f 51/115/2 52/113/2 58/109/2 50/116/2
f 50/116/2 58/109/2 53/112/2 57/117/2
f 44/118/36 57/119/36 53/120/9 48/121/9
f 45/122/7 50/123/7 57/119/36 44/118/36
f 48/121/9 53/120/9 54/124/37 42/125/37
f 43/126/38 51/127/38 50/123/7 45/122/7
f 41/128/39 56/129/39 52/130/1 47/131/1
f 42/125/37 54/124/37 55/132/11 46/133/11
f 46/134/11 55/135/11 56/129/39 41/128/39
f 47/131/1 52/130/1 51/127/38 43/126/38
f 67/136/4 66/137/4 60/138/4 64/139/4
f 65/140/4 67/136/4 64/139/4 59/141/4
f 61/142/4 63/143/4 67/136/4 65/140/4
f 63/143/4 62/144/4 66/137/4 67/136/4
f 76/145/2 73/146/2 72/147/2 71/148/2
f 70/149/2 74/150/2 73/146/2 76/145/2
f 69/151/2 70/149/2 76/145/2 68/152/2
f 68/152/2 76/145/2 71/148/2 75/153/2
f 62/154/36 75/155/36 71/156/9 66/157/9
f 63/158/7 68/159/7 75/155/36 62/154/36
f 66/157/9 71/156/9 72/160/37 60/161/37
f 61/162/38 69/163/38 68/159/7 63/158/7
f 59/164/39 74/165/39 70/166/1 65/167/1
f 60/161/37 72/160/37 73/168/11 64/169/11
f 64/170/11 73/171/11 74/165/39 59/164/39
f 65/167/1 70/166/1 69/163/38 61/162/38
f 85/172/11 82/173/11 80/174/11 84/175/11
f 83/176/11 79/177/11 82/173/11 85/172/11
f 77/178/11 83/176/11 85/172/11 81/179/11
f 81/179/11 85/172/11 84/175/11 78/180/11
f 94/181/7 90/182/7 91/183/7 92/184/7
f 86/185/7 94/181/7 92/184/7 93/186/7
f 87/187/7 88/188/7 94/181/7 86/185/7
f 88/188/7 89/189/7 90/182/7 94/181/7
f 78/190/40 84/191/9 90/192/9 89/193/40
f 77/194/41 81/195/2 88/196/2 87/197/41
f 84/191/9 80/198/42 91/199/42 90/192/9
f 83/200/1 77/194/41 87/197/41 86/201/1
f 79/202/43 83/200/1 86/201/1 93/203/43
f 80/198/42 82/204/4 92/205/4 91/199/42
f 82/204/4 79/202/43 93/203/43 92/205/4
f 81/206/2 78/190/40 89/193/40 88/207/2
f 103/208/11 100/209/11 98/210/11 102/211/11
f 101/212/11 97/213/11 100/209/11 103/208/11
f 95/214/11 101/212/11 103/208/11 99/215/11
f 99/215/11 103/208/11 102/211/11 96/216/11
f 112/217/7 108/218/7 109/219/7 110/220/7
f 104/221/7 112/217/7 110/220/7 111/222/7
f 105/223/7 106/224/7 112/217/7 104/221/7
f 106/224/7 107/225/7 108/218/7 112/217/7
f 96/226/40 102/227/9 108/228/9 107/229/40
f 95/230/41 99/231/2 106/232/2 105/233/41
f 102/227/9 98/234/42 109/235/42 108/228/9
f 101/236/1 95/230/41 105/233/41 104/237/1
f 97/238/43 101/236/1 104/237/1 111/239/43
f 98/234/42 100/240/4 110/241/4 109/235/42
f 100/240/4 97/238/43 111/239/43 110/241/4
f 99/242/2 96/226/40 107/229/40 106/243/2
f 185/244/7 115/245/7 116/246/7 186/247/7
f 115/245/2 113/248/2 114/249/2 116/246/2
f 185/244/1 187/250/1 113/251/1 115/245/1
f 122/252/4 130/253/4 126/254/4 118/255/4
f 119/256/4 127/257/4 132/258/4 124/259/4
f 119/256/4 121/260/4 129/261/4 127/257/4
f 123/262/4 118/255/4 126/254/4 131/263/4
f 121/260/4 120/264/4 128/265/4 129/261/4
f 120/264/4 123/262/4 131/263/4 128/265/4
f 117/266/4 125/267/4 130/253/4 122/252/4
f 124/259/4 132/258/4 125/267/4 117/266/4
f 137/268/2 135/269/2 143/270/2 145/271/2
f 139/272/2 134/273/2 142/274/2 147/275/2
f 139/272/2 147/275/2 146/276/2 138/277/2
f 136/278/2 144/279/2 143/270/2 135/269/2
f 138/277/2 146/276/2 148/280/2 140/281/2
f 140/281/2 148/280/2 144/279/2 136/278/2
f 133/282/2 137/268/2 145/271/2 141/283/2
f 134/273/2 133/282/2 141/283/2 142/274/2
f 122/284/11 118/285/39 135/286/39 137/287/11
f 124/288/9 117/289/37 133/290/37 134/291/9
f 126/292/36 130/293/7 145/294/7 143/295/36
f 125/296/38 132/297/1 142/298/1 141/299/38
f 123/300/1 136/301/1 135/286/39 118/285/39
f 126/292/36 143/295/36 144/302/9 131/303/9
f 117/289/37 122/304/11 137/305/11 133/290/37
f 130/306/7 125/296/38 141/299/38 145/307/7
f 119/308/36 139/309/36 138/310/7 121/311/7
f 129/312/11 146/313/11 147/314/39 127/315/39
f 120/316/38 140/317/38 136/301/1 123/300/1
f 131/303/9 144/302/9 148/318/37 128/319/37
f 119/308/36 124/288/9 134/291/9 139/309/36
f 132/297/1 127/315/39 147/314/39 142/298/1
f 121/311/7 138/310/7 140/317/38 120/316/38
f 128/319/37 148/318/37 146/313/11 129/312/11
f 189/320/7 151/321/7 152/322/7 190/323/7
f 151/321/2 149/324/2 150/325/2 152/322/2
f 189/320/1 191/326/1 149/327/1 151/321/1
f 158/328/4 166/329/4 162/330/4 154/331/4
f 155/332/4 163/333/4 168/334/4 160/335/4
f 155/332/4 157/336/4 165/337/4 163/333/4
f 159/338/4 154/331/4 162/330/4 167/339/4
f 157/336/4 156/340/4 164/341/4 165/337/4
f 156/340/4 159/338/4 167/339/4 164/341/4
f 153/342/4 161/343/4 166/329/4 158/328/4
f 160/335/4 168/334/4 161/343/4 153/342/4
f 173/344/2 171/345/2 179/346/2 181/347/2
f 175/348/2 170/349/2 178/350/2 183/351/2
f 175/348/2 183/351/2 182/352/2 174/353/2
f 172/354/2 180/355/2 179/346/2 171/345/2
f 174/353/2 182/352/2 184/356/2 176/357/2
f 176/357/2 184/356/2 180/355/2 172/354/2
f 169/358/2 173/344/2 181/347/2 177/359/2
f 170/349/2 169/358/2 177/359/2 178/350/2
f 158/360/11 154/361/39 171/362/39 173/363/11
f 160/364/9 153/365/37 169/366/37 170/367/9
f 162/368/36 166/369/7 181/370/7 179/371/36
f 161/372/38 168/373/1 178/374/1 177/375/38
f 159/376/1 172/377/1 171/362/39 154/361/39
f 162/368/36 179/371/36 180/378/9 167/379/9
f 153/365/37 158/380/11 173/381/11 169/366/37
f 166/382/7 161/372/38 177/375/38 181/383/7
f 155/384/36 175/385/36 174/386/7 157/387/7
f 165/388/11 182/389/11 183/390/39 163/391/39
f 156/392/38 176/393/38 172/377/1 159/376/1
f 167/379/9 180/378/9 184/394/37 164/395/37
f 155/384/36 160/364/9 170/367/9 175/385/36
f 168/373/1 163/391/39 183/390/39 178/374/1
f 157/387/7 174/386/7 176/393/38 156/392/38
f 164/395/37 184/394/37 182/389/11 165/388/11
f 116/246/9 114/396/9 188/397/9 186/247/9
f 113/398/11 187/399/11 188/400/11 114/401/11
f 152/322/9 150/402/9 192/403/9 190/323/9
f 149/404/11 191/405/11 192/406/11 150/407/11
f 188/408/4 187/409/4 185/244/4 186/247/4
f 192/410/4 191/411/4 189/320/4 190/323/4
f 265/412/4 266/413/4 196/414/4 195/415/4
f 195/415/11 196/414/11 194/416/11 193/417/11
f 265/412/1 195/415/1 193/418/1 267/419/1
f 202/420/7 198/421/7 206/422/7 210/423/7
f 199/424/7 204/425/7 212/426/7 207/427/7
f 199/424/7 207/427/7 209/428/7 201/429/7
f 203/430/7 211/431/7 206/422/7 198/421/7
f 201/429/7 209/428/7 208/432/7 200/433/7
f 200/433/7 208/432/7 211/431/7 203/430/7
f 197/434/7 202/420/7 210/423/7 205/435/7
f 204/425/7 197/434/7 205/435/7 212/426/7
f 217/436/11 225/437/11 223/438/11 215/439/11
f 219/440/11 227/441/11 222/442/11 214/443/11
f 219/440/11 218/444/11 226/445/11 227/441/11
f 216/446/11 215/439/11 223/438/11 224/447/11
f 218/444/11 220/448/11 228/449/11 226/445/11
f 220/448/11 216/446/11 224/447/11 228/449/11
f 213/450/11 221/451/11 225/437/11 217/436/11
f 214/443/11 222/442/11 221/451/11 213/450/11
f 202/452/2 217/453/2 215/454/41 198/455/41
f 204/456/9 214/457/9 213/458/40 197/459/40
f 206/460/42 223/461/42 225/462/4 210/463/4
f 205/464/43 221/465/43 222/466/1 212/467/1
f 203/468/1 198/455/41 215/454/41 216/469/1
f 206/460/42 211/470/9 224/471/9 223/461/42
f 197/459/40 213/458/40 217/472/2 202/473/2
f 210/474/4 225/475/4 221/465/43 205/464/43
f 199/476/42 201/477/4 218/478/4 219/479/42
f 209/480/2 207/481/41 227/482/41 226/483/2
f 200/484/43 203/468/1 216/469/1 220/485/43
f 211/470/9 208/486/40 228/487/40 224/471/9
f 199/476/42 219/479/42 214/457/9 204/456/9
f 212/467/1 222/466/1 227/482/41 207/481/41
f 201/477/4 200/484/43 220/485/43 218/478/4
f 208/486/40 209/480/2 226/483/2 228/487/40
f 269/488/4 270/489/4 232/490/4 231/491/4
f 231/491/11 232/490/11 230/492/11 229/493/11
f 269/488/1 231/491/1 229/494/1 271/495/1
f 238/496/7 234/497/7 242/498/7 246/499/7
f 235/500/7 240/501/7 248/502/7 243/503/7
f 235/500/7 243/503/7 245/504/7 237/505/7
f 239/506/7 247/507/7 242/498/7 234/497/7
f 237/505/7 245/504/7 244/508/7 236/509/7
f 236/509/7 244/508/7 247/507/7 239/506/7
f 233/510/7 238/496/7 246/499/7 241/511/7
f 240/501/7 233/510/7 241/511/7 248/502/7
f 253/512/11 261/513/11 259/514/11 251/515/11
f 255/516/11 263/517/11 258/518/11 250/519/11
f 255/516/11 254/520/11 262/521/11 263/517/11
f 252/522/11 251/515/11 259/514/11 260/523/11
f 254/520/11 256/524/11 264/525/11 262/521/11
f 256/524/11 252/522/11 260/523/11 264/525/11
f 249/526/11 257/527/11 261/513/11 253/512/11
f 250/519/11 258/518/11 257/527/11 249/526/11
f 238/528/2 253/363/2 251/362/41 234/529/41
f 240/530/9 250/367/9 249/366/40 233/531/40
f 242/532/42 259/533/42 261/534/4 246/535/4
f 241/536/43 257/537/43 258/538/1 248/539/1
f 239/540/1 234/529/41 251/362/41 252/377/1
f 242/532/42 247/541/9 260/542/9 259/533/42
f 233/531/40 249/366/40 253/381/2 238/543/2
f 246/544/4 261/545/4 257/537/43 241/536/43
f 235/546/42 237/547/4 254/386/4 255/548/42
f 245/549/2 243/550/41 263/551/41 262/552/2
f 236/553/43 239/540/1 252/377/1 256/393/43
f 247/541/9 244/554/40 264/555/40 260/542/9
f 235/546/42 255/548/42 250/367/9 240/530/9
f 248/539/1 258/538/1 263/551/41 243/550/41
f 237/547/4 236/553/43 256/393/43 254/386/4
f 244/554/40 245/549/2 262/552/2 264/555/40
f 196/414/9 266/413/9 268/251/9 194/250/9
f 193/556/2 194/557/2 268/558/2 267/559/2
f 232/490/9 270/489/9 272/560/9 230/561/9
f 229/562/2 230/563/2 272/564/2 271/565/2
f 268/566/7 266/413/7 265/412/7 267/567/7
f 272/568/7 270/489/7 269/488/7 271/569/7
f 279/570/44 273/571/44 277/572/44 280/573/44
f 283/574/45 296/575/46 294/576/46 281/577/47
f 289/578/48 299/579/49 300/580/22 288/581/22
f 288/581/22 300/580/22 295/582/50 290/583/51
f 286/584/52 297/585/53 299/579/49 289/578/48
f 285/586/54 293/587/55 292/588/26 287/589/26
f 284/590/56 291/591/57 298/592/58 282/593/59
f 274/594/60 275/595/60 278/596/60 276/597/60
f 281/598/61 294/599/62 293/587/55 285/586/54
f 290/583/51 295/582/50 296/600/63 283/601/64
f 274/602/16 276/603/16 282/604/65 286/605/66
f 277/606/28 273/607/28 283/574/45 281/577/47
f 285/608/67 290/609/67 279/610/67 280/611/67
f 285/612/68 287/613/68 288/614/68 290/615/68
f 278/616/69 284/590/56 282/593/59 276/617/69
f 275/618/70 274/619/70 286/584/52 289/578/48
f 288/620/71 287/621/71 284/622/71 289/623/71
f 284/624/72 278/625/72 275/626/72 289/627/72
f 277/628/73 281/598/61 285/586/54 280/629/73
f 273/630/74 279/631/74 290/583/51 283/601/64
f 282/604/65 298/632/75 297/633/75 286/605/66
f 293/634/76 295/635/76 300/636/76 292/637/76
f 291/638/76 299/639/76 297/640/76 298/641/76
f 292/637/76 300/636/76 299/639/76 291/638/76
f 294/642/76 296/643/76 295/635/76 293/634/76
f 287/589/26 292/588/26 291/591/57 284/590/56
f 315/644/44 301/645/44 305/646/44 316/647/44
f 317/648/76 318/649/76 311/650/76 306/651/76
f 324/652/16 320/653/16 307/654/16 308/655/16
f 313/656/76 314/657/76 308/658/76 307/659/76
f 319/660/28 321/661/28 309/662/28 310/663/28
f 328/664/51 326/665/22 311/666/22 318/667/50
f 323/668/54 317/669/55 306/670/26 325/671/26
f 322/672/56 313/673/57 307/674/58 320/675/59
f 327/676/48 324/677/77 308/678/78 314/679/49
f 326/665/22 327/676/48 314/679/49 311/666/22
f 306/651/76 311/650/76 314/657/76 313/656/76
f 302/680/60 303/681/60 312/682/60 304/683/60
f 325/671/26 306/670/26 313/673/57 322/672/56
f 319/684/61 310/685/62 317/669/55 323/668/54
f 310/686/76 309/687/76 318/649/76 317/648/76
f 302/680/16 304/683/16 320/653/16 324/652/16
f 305/646/28 301/645/28 321/661/28 319/660/28
f 323/688/67 328/689/67 315/690/67 316/691/67
f 323/692/68 325/693/68 326/694/68 328/695/68
f 312/696/69 322/672/56 320/675/59 304/697/69
f 303/698/70 302/699/70 324/677/77 327/676/48
f 326/700/71 325/701/71 322/702/71 327/703/71
f 322/704/72 312/705/72 303/706/72 327/707/72
f 305/708/73 319/684/61 323/668/54 316/709/73
f 301/710/74 315/711/74 328/664/51 321/712/79
f 321/712/79 328/664/51 318/667/50 309/713/80
