# Blender 5.2.1 LTS
# www.blender.org
mtllib BulkheadDoor.mtl
o BulkheadDoor
v -3.022935 7.613581 -1.064297
v -2.894414 7.613581 -1.064297
v -6.447658 7.613581 -1.064297
v -6.447658 -0.100005 -1.064297
v -3.022935 -0.100005 -1.064297
v -2.894414 -0.100005 -1.064297
v -6.447658 7.613581 -1.703976
v -2.894414 -0.100005 -1.703976
v -6.447658 -0.100005 -1.703976
v -3.022935 7.613581 -1.703976
v -2.894414 7.613581 -1.703976
v -3.022935 -0.100005 -1.703976
v -6.265807 7.481951 -0.756897
v -6.265807 0.031624 -0.756897
v -6.327555 -0.028163 -1.064297
v -6.327555 7.541739 -1.703976
v -6.327555 7.541739 -1.868145
v -6.327555 -0.028163 -1.868145
v -2.876284 7.481951 -0.756897
v -2.894414 7.541739 -1.064297
v -3.022935 -0.028163 -1.064297
v -2.894414 -0.028163 -1.064297
v -3.022935 7.541739 -1.064297
v -6.327555 7.541739 -1.064297
v -3.041064 0.031624 -0.756897
v -3.041064 7.481951 -0.756897
v -2.894414 7.541739 -1.703976
v -2.894414 7.541739 -1.868145
v -3.022935 7.541739 -1.868145
v -2.876284 0.031624 -0.756897
v -3.022935 -0.028163 -1.703976
v -3.022935 -0.028163 -1.868145
v -2.894414 -0.028163 -1.868145
v -2.894414 -0.028163 -1.703976
v -6.327555 -0.028163 -1.703976
v -3.022935 7.541739 -1.703976
v -6.327555 -0.028163 -0.827541
v -2.894414 7.541739 -0.827541
v -3.022935 -0.028163 -0.827541
v -6.327555 7.541739 -0.827541
v -3.022935 7.541739 -0.827541
v -2.894414 -0.028163 -0.827541
v 0.000000 -0.100005 -1.064297
v 0.000000 -0.100005 -1.703976
v 0.000000 -0.028163 -1.064297
v 0.000000 0.031624 -0.756897
v 0.000000 -0.028163 -1.868145
v 0.000000 -0.028163 -1.703976
v 0.000000 -0.028163 -0.827541
v 0.000000 7.541739 -1.868145
v 0.000000 7.481951 -0.756897
v 0.000000 7.613581 -1.703976
v 0.000000 7.541739 -1.064297
v 0.000000 7.613581 -1.064297
v 0.000000 7.541739 -0.827541
v 0.000000 7.541739 -1.703976
v -2.894414 7.481951 -0.827541
v -2.894414 7.481951 -1.064297
v -3.022935 0.031624 -1.064297
v -2.894414 0.031624 -1.064297
v -3.022935 0.031624 -0.827541
v -3.022935 7.481951 -1.064297
v -3.022935 7.481951 -0.827541
v -2.894414 0.031624 -0.827541
v 3.022935 7.613581 -1.064297
v 2.894414 7.613581 -1.064297
v 6.447658 7.613581 -1.064297
v 6.447658 -0.100005 -1.064297
v 3.022935 -0.100005 -1.064297
v 2.894414 -0.100005 -1.064297
v 6.447658 7.613581 -1.703976
v 2.894414 -0.100005 -1.703976
v 6.447658 -0.100005 -1.703976
v 3.022935 7.613581 -1.703976
v 2.894414 7.613581 -1.703976
v 3.022935 -0.100005 -1.703976
v 6.265807 7.481951 -0.756897
v 6.265807 0.031624 -0.756897
v 6.327555 -0.028163 -1.064297
v 6.327555 7.541739 -1.703976
v 6.327555 7.541739 -1.868145
v 6.327555 -0.028163 -1.868145
v 2.876284 7.481951 -0.756897
v 2.894414 7.541739 -1.064297
v 3.022935 -0.028163 -1.064297
v 2.894414 -0.028163 -1.064297
v 3.022935 7.541739 -1.064297
v 6.327555 7.541739 -1.064297
v 3.041064 0.031624 -0.756897
v 3.041064 7.481951 -0.756897
v 2.894414 7.541739 -1.703976
v 2.894414 7.541739 -1.868145
v 3.022935 7.541739 -1.868145
v 2.876284 0.031624 -0.756897
v 3.022935 -0.028163 -1.703976
v 3.022935 -0.028163 -1.868145
v 2.894414 -0.028163 -1.868145
v 2.894414 -0.028163 -1.703976
v 6.327555 -0.028163 -1.703976
v 3.022935 7.541739 -1.703976
v 6.327555 -0.028163 -0.827541
v 2.894414 7.541739 -0.827541
v 3.022935 -0.028163 -0.827541
v 6.327555 7.541739 -0.827541
v 3.022935 7.541739 -0.827541
v 2.894414 -0.028163 -0.827541
v 2.894414 7.481951 -0.827541
v 2.894414 7.481951 -1.064297
v 3.022935 0.031624 -1.064297
v 2.894414 0.031624 -1.064297
v 3.022935 0.031624 -0.827541
v 3.022935 7.481951 -1.064297
v 3.022935 7.481951 -0.827541
v 2.894414 0.031624 -0.827541
v -2.540256 7.613581 -2.253656
v -2.540256 9.434002 -2.253656
v -2.540256 7.613581 -1.064297
v -3.443873 7.613581 -2.253656
v -3.443873 9.434002 -2.253656
v -3.443873 7.613581 -1.064297
v -2.540256 7.613581 -1.857358
v -2.540256 9.434002 -1.857358
v -3.443873 7.613581 -1.857358
v -3.443873 9.434002 -1.857358
v -1.900797 9.434002 -1.857358
v -4.083332 7.613581 -1.857358
v -1.900797 7.613581 -1.857358
v -4.083332 9.434002 -1.857358
v 2.540256 7.613581 -2.253656
v 2.540256 9.434002 -2.253656
v 2.540256 7.613581 -1.064297
v 3.443873 7.613581 -2.253656
v 3.443873 9.434002 -2.253656
v 3.443873 7.613581 -1.064297
v 2.540256 7.613581 -1.857358
v 2.540256 9.434002 -1.857358
v 3.443873 7.613581 -1.857358
v 3.443873 9.434002 -1.857358
v 1.900797 9.434002 -1.857358
v 4.083332 7.613581 -1.857358
v 1.900797 7.613581 -1.857358
v 4.083332 9.434002 -1.857358
v -3.248145 6.357718 -1.824937
v -3.248144 7.637589 -1.757493
v -3.248145 6.357718 -0.657094
v -3.248144 7.637589 -0.719603
v -5.938765 6.420226 -1.757493
v -5.938765 6.420226 -0.719603
v -3.248144 7.818241 -0.719603
v -5.938765 6.357718 -0.657094
v -5.938765 6.357718 -1.824937
v -3.248144 7.818241 -1.757493
v -5.938765 7.818241 -0.719603
v -6.041982 7.637589 -0.719603
v -6.041982 7.637589 -1.757493
v -5.938765 7.818241 -1.757493
v -3.248145 7.637589 -0.657094
v -5.938765 7.637589 -0.657094
v -5.938765 7.637589 -0.719603
v -3.248145 7.637589 -1.824937
v -5.938765 7.637589 -1.824937
v -5.938765 7.637589 -1.757493
v -3.248145 6.357718 -1.757493
v -5.938765 6.357718 -1.757493
v -5.938765 6.357718 -0.719603
v -3.248145 6.357718 -0.719603
v -5.938765 6.420226 -1.824937
v -3.248145 6.420226 -1.824937
v -3.248145 6.420226 -0.657094
v -5.938765 6.420226 -0.657094
v -3.248145 6.420226 -1.757493
v -3.248145 6.420226 -0.719603
v -5.938765 7.028908 -0.719603
v -5.938765 7.028908 -1.757493
v -6.041982 7.028908 -0.719603
v -6.041982 7.028908 -1.757493
v -3.248145 7.028908 -1.824937
v -5.938765 7.028908 -1.824937
v -3.248145 7.028908 -0.657094
v -5.938765 7.028908 -0.657094
v -3.248145 7.028908 -1.757493
v -3.248145 7.028908 -0.719603
v 3.248442 6.357718 -1.824937
v 3.248442 7.637589 -1.757493
v 3.248442 6.357718 -0.657094
v 3.248442 7.637589 -0.719603
v 5.939062 6.420226 -1.757493
v 5.939062 6.420226 -0.719603
v 3.248442 7.818241 -0.719603
v 5.939062 6.357718 -0.657094
v 5.939062 6.357718 -1.824937
v 3.248442 7.818241 -1.757493
v 5.939062 7.818241 -0.719603
v 6.042279 7.637589 -0.719603
v 6.042279 7.637589 -1.757493
v 5.939062 7.818241 -1.757493
v 3.248442 7.637589 -0.657094
v 5.939062 7.637589 -0.657094
v 5.939062 7.637589 -0.719603
v 3.248442 7.637589 -1.824937
v 5.939062 7.637589 -1.824937
v 5.939062 7.637589 -1.757493
v 3.248442 6.357718 -1.757493
v 5.939062 6.357718 -1.757493
v 5.939062 6.357718 -0.719603
v 3.248442 6.357718 -0.719603
v 5.939062 6.420226 -1.824937
v 3.248442 6.420226 -1.824937
v 3.248442 6.420226 -0.657094
v 5.939062 6.420226 -0.657094
v 3.248442 6.420226 -1.757493
v 3.248442 6.420226 -0.719603
v 5.939062 7.028908 -0.719603
v 5.939062 7.028908 -1.757493
v 6.042279 7.028908 -0.719603
v 6.042279 7.028908 -1.757493
v 3.248442 7.028908 -1.824937
v 5.939062 7.028908 -1.824937
v 3.248442 7.028908 -0.657094
v 5.939062 7.028908 -0.657094
v 3.248442 7.028908 -1.757493
v 3.248442 7.028908 -0.719603
v -2.348639 4.889314 -0.863443
v -2.348639 5.904628 -0.863443
v -2.348639 4.889314 -0.734274
v -2.348639 5.904628 -0.734274
v -2.949681 4.889314 -0.863443
v -2.949681 5.904628 -0.863443
v -2.949681 4.889314 -0.734274
v -2.949681 5.904628 -0.734274
v 2.949801 0.911731 -0.863444
v 2.949801 1.291895 -0.863444
v 2.949801 0.911731 -0.734274
v 2.949801 1.291895 -0.734274
v 2.739175 0.911731 -0.863444
v 2.739175 1.291895 -0.863444
v 2.739175 0.911731 -0.734274
v 2.739175 1.291895 -0.734274
v 3.164143 3.317337 -0.863443
v 3.164143 3.697501 -0.863443
v 3.164143 3.317337 -0.734274
v 3.164143 3.697501 -0.734274
v 2.953516 3.317337 -0.863443
v 2.953516 3.697501 -0.863443
v 2.953516 3.317337 -0.734274
v 2.953516 3.697501 -0.734274
v -2.540256 9.237550 -1.064297
v -2.540256 9.434002 -1.260749
v -3.443873 9.434002 -1.260749
v -3.443873 9.237550 -1.064297
v -2.097248 9.237550 -1.064297
v -1.900797 9.434002 -1.260749
v -1.900797 7.613581 -1.260749
v -2.097248 7.613581 -1.064297
v -3.886880 9.237550 -1.064297
v -4.083332 9.434002 -1.260749
v -3.886880 7.613581 -1.064297
v -4.083332 7.613581 -1.260749
v 2.540256 9.434002 -1.260749
v 2.540256 9.237550 -1.064297
v 3.443873 9.237550 -1.064297
v 3.443873 9.434002 -1.260749
v 2.097248 9.237550 -1.064297
v 1.900797 9.434002 -1.260749
v 2.097248 7.613581 -1.064297
v 1.900797 7.613581 -1.260749
v 3.886880 9.237550 -1.064297
v 4.083332 9.434002 -1.260749
v 4.083332 7.613581 -1.260749
v 3.886880 7.613581 -1.064297
vn -0.0000 -0.0000 1.0000
vn -0.0000 -0.0000 -1.0000
vn -0.0000 1.0000 -0.0000
vn -0.0000 -1.0000 -0.0000
vn -1.0000 -0.0000 -0.0000
vn -0.7529 -0.0000 0.6581
vn 0.9686 -0.0000 0.2486
vn -0.9686 -0.0000 0.2486
vn -0.0000 0.7633 0.6460
vn -0.0000 -0.7633 0.6460
vn 1.0000 -0.0000 -0.0000
vn 0.7529 -0.0000 0.6581
vn -0.8683 0.4961 -0.0000
vn 0.8683 0.4961 -0.0000
vn -0.0000 0.7071 0.7071
vn 0.7071 -0.0000 0.7071
vn -0.7071 -0.0000 0.7071
vt 0.193133 0.377111
vt 0.187213 0.377111
vt 0.187213 0.373802
vt 0.193133 0.373802
vt 0.499563 0.736519
vt 0.367328 0.736519
vt 0.367328 0.393996
vt 0.499563 0.393996
vt 0.980144 0.831849
vt 0.980144 0.837769
vt 0.976835 0.837769
vt 0.976835 0.831849
vt 0.986926 0.163668
vt 0.986926 0.157748
vt 0.990235 0.157748
vt 0.990235 0.163668
vt 0.029465 -0.000000
vt 0.187213 0.000000
vt 0.187213 0.003309
vt 0.034997 0.003309
vt 0.986926 0.000000
vt 0.990235 0.005532
vt 0.957461 0.133321
vt 0.957461 -0.000000
vt 0.986925 0.000000
vt 0.986925 0.133321
vt 0.957461 0.296990
vt 0.957461 0.139241
vt 0.986925 0.139241
vt 0.986925 0.296990
vt 0.000000 0.810039
vt 0.029465 0.810039
vt 0.029465 0.815958
vt 0.000000 0.815958
vt 0.944367 0.000000
vt 0.944367 0.355301
vt 0.914902 0.355301
vt 0.914902 0.000000
vt 0.000000 0.949280
vt 0.029465 0.949280
vt 0.951929 0.003309
vt 0.951929 0.351991
vt 0.944367 0.351991
vt 0.944367 0.003309
vt 0.000000 0.652290
vt 0.029465 0.652290
vt 0.361976 0.388889
vt 0.210733 0.388125
vt 0.210820 0.377111
vt 0.364544 0.378329
vt 0.209678 0.390309
vt 0.209288 0.738365
vt 0.198403 0.738353
vt 0.198793 0.390296
vt 0.510309 0.741076
vt 0.507787 0.751653
vt 0.504996 0.750943
vt 0.507806 0.739891
vt 0.969273 0.837769
vt 0.969273 0.831849
vt 0.997797 0.157748
vt 0.997797 0.163668
vt 0.210334 0.740554
vt 0.361709 0.740076
vt 0.364213 0.750621
vt 0.210476 0.753225
vt 0.642371 0.741126
vt 0.642332 0.752131
vt 0.997797 0.005532
vt 0.213989 0.393062
vt 0.213606 0.735621
vt 0.976835 0.971091
vt 0.969273 0.971091
vt 0.976835 0.679633
vt 0.969273 0.679633
vt 0.193133 0.000000
vt 0.193133 0.003309
vt 0.980144 0.674101
vt 0.361876 0.735787
vt 0.364092 0.738818
vt 0.980144 0.971091
vt 0.510590 0.389547
vt 0.510418 0.393856
vt 0.508199 0.390805
vt 0.029465 0.377111
vt 0.034997 0.373802
vt 0.510014 0.736710
vt 0.642376 0.736867
vt 0.193133 0.016968
vt 0.193133 0.360143
vt 0.187213 0.360143
vt 0.187213 0.016968
vt 0.506657 0.736706
vt 0.507062 0.393852
vt 0.957461 0.000000
vt 0.957461 0.355300
vt 0.952870 0.377111
vt 0.958402 0.380420
vt 0.958402 0.729103
vt 0.952870 0.732412
vt 0.986926 0.296990
vt 0.990235 0.296990
vt 0.756766 0.348682
vt 0.623444 0.348682
vt 0.623444 -0.000000
vt 0.756766 -0.000000
vt 0.326455 0.000000
vt 0.326455 0.003309
vt 0.326455 0.377111
vt 0.326455 0.373802
vt 0.997797 0.296990
vt 0.642786 0.389754
vt 0.508112 0.379004
vt 0.642694 0.377111
vt 0.914902 0.000000
vt 0.914902 0.348682
vt 0.762686 0.348682
vt 0.762686 -0.000000
vt 0.642781 0.394013
vt 0.193133 0.371048
vt 0.187213 0.371048
vt 0.187213 0.006063
vt 0.193133 0.006063
vt 0.367328 0.749778
vt 0.367328 0.379052
vt 0.364464 0.390075
vt 0.504996 0.379837
vt 0.362260 0.393229
vt 0.365613 0.393232
vt 0.365229 0.735791
vt 0.459776 0.377111
vt 0.459776 0.373802
vt 0.465696 0.373802
vt 0.465696 0.377111
vt 0.969273 0.813342
vt 0.965964 0.813342
vt 0.965964 0.807422
vt 0.969273 0.807422
vt 0.991015 0.837769
vt 0.987706 0.837769
vt 0.987706 0.831849
vt 0.991015 0.831849
vt 0.623444 0.000000
vt 0.617912 0.003309
vt 0.465696 0.003309
vt 0.465696 0.000000
vt 0.987706 0.679633
vt 0.991015 0.674101
vt 0.029465 0.518969
vt 0.029465 0.652290
vt -0.000000 0.652290
vt -0.000000 0.518969
vt -0.000000 0.355300
vt 0.029465 0.355300
vt 0.029465 0.513049
vt -0.000000 0.513049
vt 0.958402 0.516353
vt 0.958402 0.510433
vt 0.987867 0.510433
vt 0.987867 0.516353
vt 0.029465 0.000000
vt -0.000000 0.000000
vt 0.958402 0.377111
vt 0.987867 0.377111
vt 0.947338 0.380420
vt 0.947338 0.729103
vt 0.939776 0.729103
vt 0.939776 0.380420
vt 0.987867 0.674101
vt 0.958402 0.674101
vt 0.035221 0.388719
vt 0.032665 0.378157
vt 0.186390 0.377111
vt 0.186465 0.388125
vt 0.198403 0.390310
vt 0.198403 0.738366
vt 0.187517 0.738366
vt 0.187517 0.390310
vt 0.499299 0.740862
vt 0.501767 0.739662
vt 0.504696 0.750522
vt 0.501953 0.751262
vt 0.958402 0.813342
vt 0.958402 0.807422
vt 0.980144 0.837769
vt 0.980144 0.831849
vt 0.186468 0.740555
vt 0.186313 0.753225
vt 0.032578 0.750449
vt 0.035094 0.739907
vt 0.367446 0.753409
vt 0.367328 0.740774
vt 0.980144 0.679633
vt 0.183203 0.735617
vt 0.183203 0.393059
vt 0.958402 0.674101
vt 0.965964 0.674101
vt 0.965964 0.965559
vt 0.958402 0.965559
vt 0.459776 0.003309
vt 0.459776 0.000000
vt 0.969273 0.971091
vt 0.034932 0.735617
vt 0.032712 0.738646
vt 0.969273 0.674101
vt 0.499396 0.389691
vt 0.501784 0.390950
vt 0.617912 0.373802
vt 0.623444 0.377111
vt 0.459776 0.016968
vt 0.465696 0.016968
vt 0.465696 0.360143
vt 0.459776 0.360143
vt 0.502916 0.393996
vt 0.502916 0.736519
vt 0.934244 0.732412
vt 0.934244 0.377111
vt 0.947338 0.380420
vt 0.952870 0.377111
vt 0.947338 0.729103
vt 0.991015 0.971091
vt 0.987706 0.971091
vt 0.800922 0.377111
vt 0.934244 0.377111
vt 0.934244 0.725793
vt 0.800922 0.725793
vt 0.326455 0.003309
vt 0.326455 0.000000
vt 0.326455 0.377111
vt 0.326455 0.373802
vt 0.980144 0.971091
vt 0.367328 0.389741
vt 0.367435 0.377111
vt 0.501884 0.379161
vt 0.034932 0.393059
vt 0.642786 0.377111
vt 0.795003 0.377111
vt 0.795003 0.725793
vt 0.642786 0.725793
vt 0.465696 0.371048
vt 0.459776 0.371048
vt 0.459776 0.006063
vt 0.465696 0.006063
vt 0.029465 0.749602
vt 0.032731 0.389903
vt 0.029880 0.378877
vt 0.504996 0.379997
vt 0.031579 0.735617
vt 0.031579 0.393059
vt 0.726638 0.947692
vt 0.642786 0.947692
vt 0.642786 0.918237
vt 0.726638 0.918237
vt 0.348641 0.895413
vt 0.348641 0.979265
vt 0.330387 0.979265
vt 0.330387 0.895413
vt 0.288765 0.979265
vt 0.288765 0.895413
vt 0.288765 0.877159
vt 0.330387 0.877159
vt 0.047719 0.911368
vt 0.047719 0.952990
vt 0.029465 0.952990
vt 0.029465 0.911368
vt 0.270511 0.979265
vt 0.270511 0.895413
vt 0.642786 0.725793
vt 0.726638 0.725793
vt 0.726638 0.755248
vt 0.642786 0.755248
vt 0.810489 0.725793
vt 0.810489 0.755248
vt 0.726638 0.755248
vt 0.726638 0.725793
vt 0.367328 0.895597
vt 0.385582 0.895597
vt 0.385582 0.979449
vt 0.367328 0.979449
vt 0.427204 0.895597
vt 0.427204 0.979449
vt 0.427204 0.877343
vt 0.385582 0.877343
vt 0.463713 0.948420
vt 0.445458 0.948420
vt 0.445458 0.906797
vt 0.463713 0.906797
vt 0.445458 0.895597
vt 0.445458 0.979449
vt 0.726638 0.947692
vt 0.810489 0.918237
vt 0.810489 0.947692
vt 0.813369 0.781867
vt 0.861176 0.781867
vt 0.861176 0.784746
vt 0.813369 0.784746
vt 0.552803 0.789752
vt 0.504996 0.789752
vt 0.504996 0.780168
vt 0.552803 0.780168
vt 0.552803 0.752131
vt 0.504996 0.752131
vt 0.037786 0.753225
vt 0.037786 0.757979
vt 0.029465 0.757979
vt 0.141667 0.753225
vt 0.149988 0.757979
vt 0.141667 0.757979
vt 0.113630 0.757979
vt 0.113630 0.753225
vt 0.138683 0.940867
vt 0.138683 0.949188
vt 0.090876 0.949188
vt 0.090876 0.940867
vt 0.810489 0.784746
vt 0.810489 0.781867
vt 0.813369 0.753830
vt 0.810489 0.753830
vt 0.810489 0.725793
vt 0.813369 0.725793
vt 0.864282 0.784746
vt 0.864282 0.781867
vt 0.861176 0.753830
vt 0.861176 0.725793
vt 0.864282 0.725793
vt 0.864282 0.753830
vt 0.087997 0.881914
vt 0.090876 0.881914
vt 0.090876 0.884793
vt 0.087997 0.884793
vt 0.138683 0.881914
vt 0.138683 0.884793
vt 0.141790 0.881914
vt 0.141790 0.884793
vt 0.090876 0.912830
vt 0.087997 0.912830
vt 0.141790 0.912830
vt 0.141790 0.940867
vt 0.138683 0.912830
vt 0.087997 0.940867
vt 0.065823 0.757979
vt 0.065823 0.753225
vt 0.552803 0.876066
vt 0.580840 0.752131
vt 0.580840 0.876066
vt 0.620849 0.752131
vt 0.620849 0.876066
vt 0.617970 0.876066
vt 0.617970 0.752131
vt 0.552803 0.913686
vt 0.504996 0.913686
vt 0.861176 0.908681
vt 0.864282 0.908681
vt 0.037786 0.881914
vt 0.029465 0.881914
vt 0.149988 0.881914
vt 0.141667 0.881914
vt 0.329464 0.753225
vt 0.329464 0.877159
vt 0.301427 0.877159
vt 0.301427 0.753225
vt 0.611756 0.876066
vt 0.611756 0.752131
vt 0.614863 0.752131
vt 0.614863 0.876066
vt 0.273390 0.753225
vt 0.273390 0.877159
vt 0.270511 0.877159
vt 0.270511 0.753225
vt 0.608877 0.876066
vt 0.608877 0.752131
vt 0.611756 0.752131
vt 0.611756 0.876066
vt 0.813369 0.908681
vt 0.810489 0.908681
vt 0.198462 0.884793
vt 0.198462 0.881914
vt 0.246268 0.881914
vt 0.246268 0.884793
vt 0.912089 0.849728
vt 0.912089 0.859311
vt 0.864282 0.859311
vt 0.864282 0.849728
vt 0.912089 0.887348
vt 0.864282 0.887348
vt 0.262190 0.753225
vt 0.270511 0.757979
vt 0.262190 0.757979
vt 0.158309 0.753225
vt 0.158309 0.757979
vt 0.149988 0.757979
vt 0.186346 0.757979
vt 0.186346 0.753225
vt 0.144896 0.940867
vt 0.192703 0.940867
vt 0.192703 0.949188
vt 0.144896 0.949188
vt 0.195582 0.881914
vt 0.195582 0.884793
vt 0.198462 0.912830
vt 0.198462 0.940867
vt 0.195582 0.940867
vt 0.195582 0.912830
vt 0.249375 0.881914
vt 0.249375 0.884793
vt 0.246268 0.912830
vt 0.249375 0.912830
vt 0.249375 0.940867
vt 0.246268 0.940867
vt 0.195582 0.881914
vt 0.195582 0.884793
vt 0.192703 0.884793
vt 0.192703 0.881914
vt 0.144896 0.884793
vt 0.144896 0.881914
vt 0.192703 0.912830
vt 0.195582 0.912830
vt 0.144896 0.912830
vt 0.195582 0.940867
vt 0.234153 0.753225
vt 0.234153 0.757979
vt 0.367328 0.753409
vt 0.395365 0.753409
vt 0.395365 0.877343
vt 0.367328 0.877343
vt 0.620849 0.752131
vt 0.623728 0.752131
vt 0.623728 0.876066
vt 0.864282 0.725793
vt 0.912089 0.725793
vt 0.603489 0.876066
vt 0.606596 0.876066
vt 0.606596 1.000000
vt 0.603489 1.000000
vt 0.270511 0.881914
vt 0.262190 0.881914
vt 0.158309 0.881914
vt 0.149988 0.881914
vt 0.485234 0.877343
vt 0.457197 0.877343
vt 0.457197 0.753409
vt 0.485234 0.753409
vt 0.614863 0.752131
vt 0.617969 0.752131
vt 0.617969 0.876066
vt 0.614863 0.876066
vt 0.429160 0.877343
vt 0.426281 0.877343
vt 0.426281 0.753409
vt 0.429160 0.753409
vt 0.423402 0.753409
vt 0.426281 0.753409
vt 0.426281 0.877343
vt 0.423402 0.877343
vt 0.555683 0.876066
vt 0.555683 1.000000
vt 0.552803 1.000000
vt 0.552803 0.876066
vt 0.903867 0.893298
vt 0.903867 0.940065
vt 0.897917 0.940065
vt 0.897917 0.893298
vt 0.870232 0.940065
vt 0.870232 0.893298
vt 0.864282 0.940065
vt 0.864282 0.893298
vt 0.870232 0.887348
vt 0.897917 0.887348
vt 0.897917 0.946015
vt 0.870232 0.946015
vt 0.351065 0.759174
vt 0.351065 0.776685
vt 0.345115 0.776685
vt 0.345115 0.759174
vt 0.335413 0.776685
vt 0.335413 0.759174
vt 0.329464 0.776685
vt 0.329464 0.759174
vt 0.335413 0.753225
vt 0.345115 0.753225
vt 0.345115 0.782635
vt 0.335413 0.782635
vt 0.351065 0.788585
vt 0.351065 0.806096
vt 0.345115 0.806096
vt 0.345115 0.788585
vt 0.335413 0.806096
vt 0.335413 0.788585
vt 0.329464 0.806096
vt 0.329464 0.788585
vt 0.335413 0.782635
vt 0.345115 0.782635
vt 0.345115 0.812046
vt 0.335413 0.812046
vt 0.075200 0.952990
vt 0.075200 0.911368
vt 0.087997 0.911368
vt 0.087997 0.952990
vt 0.717589 0.795526
vt 0.642786 0.795526
vt 0.642786 0.782729
vt 0.726638 0.782729
vt 0.726638 0.890756
vt 0.642786 0.890756
vt 0.642786 0.877959
vt 0.717589 0.877959
vt 0.087997 0.973396
vt 0.075200 0.982445
vt 0.075200 0.881914
vt 0.087997 0.890962
vt 0.503990 0.906797
vt 0.503990 0.948420
vt 0.491193 0.948420
vt 0.491193 0.906797
vt 0.810489 0.890756
vt 0.726638 0.877959
vt 0.801441 0.877959
vt 0.801441 0.795526
vt 0.726638 0.795526
vt 0.726638 0.782729
vt 0.810489 0.782729
vt 0.491193 0.877343
vt 0.503990 0.886392
vt 0.503990 0.968825
vt 0.491193 0.977874
vt 0.047719 0.982445
vt 0.717589 0.815931
vt 0.642786 0.815931
vt 0.717589 0.857554
vt 0.642786 0.857554
vt 0.047719 0.881914
vt 0.463713 0.877343
vt 0.726638 0.857554
vt 0.726638 0.815931
vt 0.801441 0.815931
vt 0.801441 0.857554
vt 0.463713 0.977874
s 0
usemtl M_MetalGrate
f 83/5/1 51/6/1 46/7/1 94/8/1
f 8/13/2 12/14/2 31/15/2 34/16/2
f 12/14/2 9/21/2 35/22/2 31/15/2
f 35/41/5 16/42/5 17/43/5 18/44/5
f 39/47/4 37/48/4 15/49/4 21/50/4
f 37/51/5 40/52/5 24/53/5 15/54/5
f 38/55/5 20/56/5 58/57/5 57/58/5
f 31/15/4 32/61/4 33/62/4 34/16/4
f 40/63/3 41/64/3 23/65/3 24/66/3
f 38/55/3 55/67/3 53/68/3 20/56/3
f 31/15/4 35/22/4 18/69/4 32/61/4
f 14/70/6 13/71/6 40/52/6 37/51/6
f 27/11/3 56/72/3 50/73/3 28/59/3
f 16/74/3 36/12/3 29/60/3 17/75/3
f 26/79/7 63/80/7 41/64/7
f 42/82/8 30/83/8 64/84/8
f 13/71/9 26/79/9 41/64/9 40/63/9
f 19/87/9 51/88/9 55/67/9 38/55/9
f 30/83/8 19/87/8 57/93/8 64/94/8
f 9/95/2 7/96/2 16/42/2 35/41/2
f 57/58/8 19/87/8 38/55/8
f 4/97/1 15/98/1 24/99/1 3/100/1
f 44/101/2 8/13/2 34/16/2 48/102/2
f 28/103/2 50/104/2 47/105/2 33/106/2
f 48/102/4 34/16/4 33/62/4 47/111/4
f 49/112/4 42/82/4 22/113/4 45/114/4
f 18/115/2 17/116/2 29/117/2 32/118/2
f 46/119/10 30/83/10 42/82/10 49/112/10
f 23/65/11 41/64/11 63/80/11 62/124/11
f 39/47/11 21/50/11 59/125/11 61/126/11
f 22/113/5 42/82/5 64/84/5 60/127/5
f 39/47/7 61/126/7 25/128/7
f 25/128/7 61/129/7 63/130/7 26/79/7
f 25/128/10 14/70/10 37/48/10 39/47/10
f 33/106/2 32/118/2 29/117/2 28/103/2
f 30/83/1 46/119/1 51/88/1 19/87/1
f 72/139/2 98/140/2 95/141/2 76/142/2
f 76/142/2 95/141/2 99/147/2 73/148/2
f 82/165/11 81/166/11 80/167/11 99/168/11
f 103/171/4 85/172/4 79/173/4 101/174/4
f 79/175/11 88/176/11 104/177/11 101/178/11
f 102/179/11 107/180/11 108/181/11 84/182/11
f 95/141/4 98/140/4 97/185/4 96/186/4
f 104/187/3 88/188/3 87/189/3 105/190/3
f 84/182/3 53/191/3 55/192/3 102/179/3
f 95/141/4 96/186/4 82/193/4 99/147/4
f 101/178/12 104/177/12 77/194/12 78/195/12
f 92/184/3 50/196/3 56/197/3 91/137/3
f 80/198/3 81/199/3 93/183/3 100/136/3
f 90/203/8 105/190/8 113/204/8
f 106/206/7 114/207/7 94/8/7
f 77/194/9 104/187/9 105/190/9 90/203/9
f 102/179/9 55/192/9 51/6/9 83/5/9
f 114/214/7 107/215/7 83/5/7 94/8/7
f 107/180/7 102/179/7 83/5/7
f 79/218/1 68/219/1 67/100/1 88/220/1
f 44/221/2 48/222/2 98/140/2 72/139/2
f 97/223/2 47/224/2 50/225/2 92/226/2
f 48/222/4 47/231/4 97/185/4 98/140/4
f 49/232/4 45/233/4 86/234/4 106/206/4
f 89/235/1 78/195/1 77/194/1 90/203/1
f 82/236/2 96/237/2 93/238/2 81/239/2
f 46/7/10 49/232/10 106/206/10 94/8/10
f 14/70/1 25/128/1 26/79/1 13/71/1
f 87/189/5 112/244/5 113/204/5 105/190/5
f 103/171/5 111/245/5 109/246/5 85/172/5
f 86/234/11 110/247/11 114/207/11 106/206/11
f 103/171/8 89/235/8 111/245/8
f 89/235/8 90/203/8 113/248/8 111/249/8
f 89/235/10 103/171/10 101/174/10 78/195/10
f 96/237/2 97/223/2 92/226/2 93/238/2
usemtl M_Buttons
f 223/459/11 224/460/11 226/461/11 225/462/11
f 225/462/1 226/461/1 230/463/1 229/464/1
f 229/464/5 230/463/5 228/465/5 227/466/5
f 225/462/4 229/464/4 227/467/4 223/468/4
f 230/463/3 226/461/3 224/469/3 228/470/3
f 231/471/11 232/472/11 234/473/11 233/474/11
f 233/474/1 234/473/1 238/475/1 237/476/1
f 237/476/5 238/475/5 236/477/5 235/478/5
f 233/474/4 237/476/4 235/479/4 231/480/4
f 238/475/3 234/473/3 232/481/3 236/482/3
f 239/483/11 240/484/11 242/485/11 241/486/11
f 241/486/1 242/485/1 246/487/1 245/488/1
f 245/488/5 246/487/5 244/489/5 243/490/5
f 241/486/4 245/488/4 243/491/4 239/492/4
f 246/487/3 242/485/3 240/493/3 244/494/3
usemtl M_MetalInterface
f 2/1/1 1/2/1 23/3/1 20/4/1
f 10/9/2 11/10/2 27/11/2 36/12/2
f 4/17/1 5/18/1 21/19/1 15/20/1
f 2/23/3 54/24/3 52/25/3 11/26/3
f 3/27/3 1/28/3 10/29/3 7/30/3
f 5/31/4 12/32/4 8/33/4 6/34/4
f 2/23/3 11/26/3 10/29/3 1/28/3
f 4/35/5 3/36/5 7/37/5 9/38/5
f 43/39/4 6/34/4 8/33/4 44/40/4
f 5/31/4 4/45/4 9/46/4 12/32/4
f 27/11/3 28/59/3 29/60/3 36/12/3
f 5/18/1 6/76/1 22/77/1 21/19/1
f 7/78/2 10/9/2 36/12/2 16/74/2
f 11/10/2 52/81/2 56/72/2 27/11/2
f 1/2/1 3/85/1 24/86/1 23/3/1
f 64/89/1 57/90/1 63/91/1 61/92/1
f 6/76/1 43/107/1 45/108/1 22/77/1
f 54/109/1 2/1/1 20/4/1 53/110/1
f 57/90/3 58/120/3 62/121/3 63/91/3
f 61/92/4 59/122/4 60/123/4 64/89/4
f 21/19/1 22/77/1 60/123/1 59/122/1
f 20/4/1 23/3/1 62/121/1 58/120/1
f 66/131/1 84/132/1 87/133/1 65/134/1
f 74/135/2 100/136/2 91/137/2 75/138/2
f 68/143/1 79/144/1 85/145/1 69/146/1
f 75/149/3 52/150/3 54/151/3 66/152/3
f 67/153/3 71/154/3 74/155/3 65/156/3
f 69/157/4 70/158/4 72/159/4 76/160/4
f 66/152/3 65/156/3 74/155/3 75/149/3
f 73/161/11 71/154/11 67/153/11 68/162/11
f 43/163/4 44/164/4 72/159/4 70/158/4
f 69/157/4 76/160/4 73/169/4 68/170/4
f 91/137/3 100/136/3 93/183/3 92/184/3
f 69/146/1 85/145/1 86/200/1 70/201/1
f 71/202/2 80/198/2 100/136/2 74/135/2
f 91/137/2 56/197/2 52/205/2 75/138/2
f 65/134/1 87/133/1 88/208/1 67/209/1
f 114/210/1 111/211/1 113/212/1 107/213/1
f 99/168/2 80/167/2 71/216/2 73/217/2
f 86/200/1 45/227/1 43/228/1 70/201/1
f 54/229/1 53/230/1 84/132/1 66/131/1
f 107/213/3 113/212/3 112/240/3 108/241/3
f 111/211/4 114/210/4 110/242/4 109/243/4
f 85/145/1 109/243/1 110/242/1 86/200/1
f 84/132/1 108/241/1 112/240/1 87/133/1
f 124/250/2 123/251/2 126/252/2 128/253/2
f 123/254/5 124/255/5 119/256/5 118/257/5
f 118/257/2 119/256/2 116/258/2 115/259/2
f 121/260/4 123/261/4 118/257/4 115/259/4
f 124/262/3 122/263/3 116/264/3 119/265/3
f 115/259/11 116/258/11 122/266/11 121/267/11
f 121/268/2 122/269/2 125/270/2 127/271/2
f 138/272/2 142/273/2 140/274/2 137/275/2
f 137/276/11 132/277/11 133/278/11 138/279/11
f 132/277/2 129/280/2 130/281/2 133/278/2
f 135/282/4 129/280/4 132/277/4 137/283/4
f 138/284/3 133/285/3 130/286/3 136/287/3
f 129/280/5 135/288/5 136/289/5 130/281/5
f 135/290/2 141/253/2 139/291/2 136/292/2
f 148/293/5 147/294/5 164/295/5 165/296/5
f 153/297/13 156/298/13 155/299/13 154/300/13
f 175/301/5 154/300/5 155/299/5 176/302/5
f 154/303/1 159/304/1 153/305/1
f 155/306/2 156/307/2 162/308/2
f 174/309/2 176/310/2 155/306/2 162/308/2
f 144/311/11 152/312/11 149/313/11 146/314/11
f 150/315/5 170/316/5 148/293/5 165/296/5
f 173/317/5 180/318/5 158/319/5 159/320/5
f 151/321/5 164/295/5 147/294/5 167/322/5
f 174/323/5 162/324/5 161/325/5 178/326/5
f 145/327/11 166/328/11 172/329/11 169/330/11
f 166/328/11 163/331/11 171/332/11 172/329/11
f 163/331/11 143/333/11 168/334/11 171/332/11
f 182/335/11 179/336/11 169/330/11 172/329/11
f 177/337/11 160/338/11 144/311/11 181/339/11
f 181/339/11 182/335/11 172/329/11 171/332/11
f 144/311/11 146/314/11 182/335/11 181/339/11
f 168/334/11 177/337/11 181/339/11 171/332/11
f 146/314/11 157/340/11 179/336/11 182/335/11
f 147/294/5 174/323/5 178/326/5 167/322/5
f 148/293/5 170/316/5 180/318/5 173/317/5
f 174/309/4 173/341/4 175/342/4 176/310/4
f 159/304/1 154/303/1 175/342/1 173/341/1
f 148/293/5 173/317/5 174/323/5 147/294/5
f 157/343/1 158/301/1 180/344/1 179/345/1
f 146/346/3 159/347/3 158/348/3 157/349/3
f 153/297/3 149/350/3 152/351/3 156/298/3
f 163/352/4 164/295/4 151/321/4 143/353/4
f 159/304/1 146/354/1 149/355/1 153/305/1
f 156/307/2 152/356/2 144/357/2 162/308/2
f 161/358/2 160/359/2 177/360/2 178/361/2
f 160/362/3 161/363/3 162/364/3 144/365/3
f 167/366/2 168/367/2 143/368/2 151/369/2
f 169/370/1 170/371/1 150/372/1 145/373/1
f 178/361/2 177/360/2 168/367/2 167/366/2
f 179/345/1 180/344/1 170/371/1 169/370/1
f 166/374/4 145/375/4 150/315/4 165/296/4
f 164/295/4 163/352/4 166/374/4 165/296/4
f 188/376/11 205/377/11 204/378/11 187/379/11
f 193/380/14 194/381/14 195/382/14 196/383/14
f 215/384/11 216/385/11 195/382/11 194/381/11
f 194/386/1 193/387/1 199/388/1
f 195/389/2 202/390/2 196/391/2
f 214/392/2 202/390/2 195/389/2 216/393/2
f 184/394/5 186/395/5 189/396/5 192/397/5
f 190/398/11 205/377/11 188/376/11 210/399/11
f 213/400/11 199/401/11 198/402/11 220/403/11
f 191/404/11 207/405/11 187/379/11 204/378/11
f 214/406/11 218/407/11 201/408/11 202/409/11
f 185/410/5 209/411/5 212/412/5 206/413/5
f 206/413/5 212/412/5 211/414/5 203/415/5
f 203/415/5 211/414/5 208/334/5 183/333/5
f 222/416/5 212/412/5 209/411/5 219/417/5
f 217/337/5 221/418/5 184/394/5 200/338/5
f 221/418/5 211/414/5 212/412/5 222/416/5
f 184/394/5 221/418/5 222/416/5 186/395/5
f 208/334/5 211/414/5 221/418/5 217/337/5
f 186/395/5 222/416/5 219/417/5 197/419/5
f 187/379/11 207/405/11 218/407/11 214/406/11
f 188/376/11 213/400/11 220/403/11 210/399/11
f 214/392/4 216/393/4 215/420/4 213/421/4
f 199/388/1 213/421/1 215/420/1 194/386/1
f 188/376/11 187/379/11 214/406/11 213/400/11
f 197/422/1 219/423/1 220/424/1 198/425/1
f 186/426/3 197/427/3 198/428/3 199/347/3
f 193/380/3 196/383/3 192/429/3 189/430/3
f 203/431/4 183/432/4 191/433/4 204/434/4
f 199/388/1 193/387/1 189/435/1 186/436/1
f 196/391/2 202/390/2 184/437/2 192/438/2
f 201/439/2 218/440/2 217/441/2 200/442/2
f 200/443/3 184/444/3 202/445/3 201/446/3
f 207/447/2 191/448/2 183/449/2 208/450/2
f 209/451/1 185/452/1 190/453/1 210/454/1
f 218/440/2 207/447/2 208/450/2 217/441/2
f 219/423/1 209/451/1 210/454/1 220/424/1
f 206/455/4 205/456/4 190/457/4 185/458/4
f 204/434/4 205/456/4 206/455/4 203/431/4
f 248/495/15 249/496/15 250/497/15 247/498/15
f 251/499/16 254/500/16 253/501/16 252/502/16
f 256/503/17 258/504/17 257/505/17 255/506/17
f 247/498/15 251/507/15 252/508/15 248/495/15
f 249/496/15 256/509/15 255/510/15 250/497/15
f 260/511/15 261/512/15 262/513/15 259/514/15
f 264/515/17 266/503/17 265/516/17 263/517/17
f 267/518/16 270/519/16 269/520/16 268/521/16
f 259/514/15 264/522/15 263/523/15 260/511/15
f 261/512/15 267/524/15 268/525/15 262/513/15
f 122/263/3 248/495/3 252/508/3 125/526/3
f 249/496/3 248/495/3 122/263/3 124/262/3
f 247/527/1 117/528/1 254/500/1 251/499/1
f 117/528/1 247/527/1 250/529/1 120/530/1
f 249/496/3 124/262/3 128/531/3 256/509/3
f 120/530/1 250/529/1 255/506/1 257/505/1
f 127/271/11 125/270/11 252/502/11 253/501/11
f 258/504/5 256/503/5 128/253/5 126/252/5
f 136/287/3 139/532/3 264/522/3 259/514/3
f 131/533/1 134/534/1 261/535/1 260/536/1
f 262/513/3 138/284/3 136/287/3 259/514/3
f 260/536/1 263/517/1 265/516/1 131/533/1
f 262/513/3 268/525/3 142/537/3 138/284/3
f 134/534/1 270/519/1 267/518/1 261/535/1
f 141/253/5 266/503/5 264/515/5 139/291/5
f 269/520/11 140/274/11 142/273/11 268/521/11
