# Blender 5.2.1 LTS
# www.blender.org
mtllib Cell.mtl
o Cell
v -1.002117 -1.018207 1.002117
v -1.002117 0.986027 1.002117
v 1.002117 -0.876646 0.860556
v 1.002117 0.844466 0.860556
v 1.002117 -1.018207 1.002117
v 1.002117 0.986027 1.002117
v -0.861441 -0.876646 0.860556
v -0.861441 0.844466 0.860556
v 1.002117 -1.018207 0.717804
v 1.002117 0.986027 0.717804
v -1.002117 -1.018207 0.717804
v -1.002117 0.986027 0.717804
v 1.002117 -0.876646 0.717804
v 1.002117 0.844466 0.717804
v -0.861441 -0.876646 0.717804
v -0.861441 0.844466 0.717804
v 0.912321 0.986027 0.717804
v 0.912321 -1.018207 0.717804
v 0.712151 -1.018207 0.717804
v 0.712151 0.844466 0.860556
v 0.712151 -0.876646 0.860556
v 1.002117 0.525777 1.052253
v 1.002117 -0.641981 1.052253
v -1.002117 0.525777 1.052253
v -1.002117 -0.641981 1.052253
v 1.002117 0.575913 0.860556
v 1.002117 -0.692117 0.860556
v -0.861441 0.575913 0.860556
v -0.861441 -0.692117 0.860556
v -1.002117 0.575913 0.717804
v -1.002117 -0.692117 0.717804
v 0.712151 -0.692117 0.860556
v -0.861441 -0.692117 0.717804
v -0.861441 0.575913 0.717804
v 0.712151 -1.018207 1.002117
v 0.912321 -1.018207 1.002117
v 1.002117 0.575913 0.717804
v 1.002117 -0.692117 0.717804
v 0.712151 0.575913 0.860556
v 0.912322 0.575913 0.717804
v 0.912322 0.844466 0.717804
v 0.712151 0.575913 0.717804
v 0.712151 0.844466 0.717804
v 1.002117 -1.018207 -0.000000
v -1.002117 -1.018207 0.000000
v -1.002117 0.986027 0.000000
v 1.002117 -0.876646 -0.000000
v -0.861441 -0.876646 0.000000
v 0.912321 -1.018207 -0.000000
v 0.712151 -1.018207 -0.000000
v 0.912322 -0.876646 -0.000000
v 0.712151 -0.876646 -0.000000
v 0.712151 0.844466 -0.000000
v -0.861441 0.844466 0.000000
v -0.861441 -0.692117 0.000000
v -0.861441 0.575913 0.000000
v -1.002117 -0.692117 0.000000
v -1.002117 0.575913 0.000000
v 1.002117 0.986027 -0.000000
v 1.002117 0.844466 -0.000000
v 0.912321 0.986027 -0.000000
v 0.912322 0.844466 -0.000000
v 0.912322 -0.876646 0.717804
v 0.712151 -0.876646 0.717804
v 0.912322 -0.692117 0.717804
v 0.712151 -0.692117 0.717804
v 0.712151 0.986027 -0.000000
v 0.712151 0.986027 0.717804
v 1.002117 -0.641981 1.182798
v 1.002117 -0.744273 1.266541
v 0.912321 -0.744273 1.266541
v -1.002117 -0.641981 1.182798
v -1.002117 -0.744273 1.266541
v 0.712151 -0.744273 1.266541
v 1.002117 0.684043 1.266541
v 0.912321 0.684043 1.266541
v 0.912321 -0.692117 1.266541
v 0.712151 -0.692117 1.266541
v -1.002117 0.684043 1.266541
v 1.002117 0.525777 1.182798
v -1.002117 0.525777 1.182798
v 0.912321 0.575913 1.266541
v 0.712151 0.575913 1.266541
v -1.002117 -0.692117 1.266541
v -1.002117 -0.692117 1.002117
v 1.002117 0.575913 1.002117
v 1.002117 -0.692117 1.002117
v -1.002117 0.575913 1.002117
v -1.002117 0.575913 1.266541
v 1.002117 -0.692117 1.266541
v 1.002117 0.575913 1.266541
v 0.130916 0.986027 1.002117
v 0.130916 -1.018207 1.002117
v 0.130916 0.986027 0.717804
v 0.130916 -1.018207 0.717804
v 0.130916 -1.018207 -0.000000
v 0.130916 0.986027 -0.000000
v 0.130916 -0.744273 1.266541
v 0.130916 -0.692117 1.266541
v 0.130916 0.575913 1.266541
v -0.573550 0.986027 1.002117
v -0.573550 0.986027 0.717804
v -0.573550 -1.018207 0.717804
v -0.573550 -1.018207 0.000000
v -0.573550 0.986027 0.000000
v -0.573550 -0.692117 1.266541
v -0.573550 0.575913 1.266541
v -0.573550 -1.018207 1.002117
v -0.573550 -0.744273 1.266541
v 0.130916 0.684043 1.002117
v -0.573550 0.684043 1.002117
v -0.912280 0.986027 1.002117
v -0.912280 0.986027 0.717804
v -0.912280 -1.018207 0.717804
v -0.912280 -1.018207 0.000000
v -0.912280 0.986027 0.000000
v -0.912280 0.684043 1.266541
v -0.912280 -0.692117 1.266541
v -0.912280 0.575913 1.266541
v -0.912280 -1.018207 1.002117
v -0.912280 -0.744273 1.266541
v 0.912321 -1.018207 1.266541
v 1.002117 -1.018207 1.266541
v 1.002117 0.986027 1.266541
v -1.002117 -1.018207 1.266541
v -1.002117 0.986027 1.266541
v 0.912321 0.986027 1.266541
v -0.912280 0.986027 1.266541
v -0.912280 -1.018207 1.266541
v -1.002117 -1.018207 -1.002117
v -1.002117 0.986027 -1.002117
v 1.002117 -0.876646 -0.860556
v 1.002117 0.844466 -0.860556
v 1.002117 -1.018207 -1.002117
v 1.002117 0.986027 -1.002117
v -0.861441 -0.876646 -0.860556
v -0.861441 0.844466 -0.860556
v 1.002117 -1.018207 -0.717804
v 1.002117 0.986027 -0.717804
v -1.002117 -1.018207 -0.717804
v -1.002117 0.986027 -0.717804
v 1.002117 -0.876646 -0.717804
v 1.002117 0.844466 -0.717804
v -0.861441 -0.876646 -0.717804
v -0.861441 0.844466 -0.717804
v 0.912321 0.986027 -0.717804
v 0.912321 -1.018207 -0.717804
v 0.712151 -1.018207 -0.717804
v 0.712151 0.844466 -0.860556
v 0.712151 -0.876646 -0.860556
v 1.002117 0.525777 -1.052253
v 1.002117 -0.641981 -1.052253
v -1.002117 0.525777 -1.052253
v -1.002117 -0.641981 -1.052253
v 1.002117 0.575913 -0.860556
v 1.002117 -0.692117 -0.860556
v -0.861441 0.575913 -0.860556
v -0.861441 -0.692117 -0.860556
v -1.002117 0.575913 -0.717804
v -1.002117 -0.692117 -0.717804
v 0.712151 -0.692117 -0.860556
v -0.861441 -0.692117 -0.717804
v -0.861441 0.575913 -0.717804
v 0.712151 -1.018207 -1.002117
v 0.912321 -1.018207 -1.002117
v 1.002117 0.575913 -0.717804
v 1.002117 -0.692117 -0.717804
v 0.712151 0.575913 -0.860556
v 0.912322 0.575913 -0.717804
v 0.912322 0.844466 -0.717804
v 0.712151 0.575913 -0.717804
v 0.712151 0.844466 -0.717804
v 0.912322 -0.876646 -0.717804
v 0.712151 -0.876646 -0.717804
v 0.912322 -0.692117 -0.717804
v 0.712151 -0.692117 -0.717804
v 0.712151 0.986027 -0.717804
v 1.002117 -0.641981 -1.182798
v 1.002117 -0.744273 -1.266540
v 0.912321 -0.744273 -1.266540
v -1.002117 -0.641981 -1.182798
v -1.002117 -0.744273 -1.266540
v 0.712151 -0.744273 -1.266540
v 1.002117 0.684043 -1.266540
v 0.912321 0.684043 -1.266540
v 0.712151 0.684043 -1.266540
v 0.912321 -0.692117 -1.266540
v 0.712151 -0.692117 -1.266540
v -1.002117 0.684043 -1.266540
v 1.002117 0.525777 -1.182798
v -1.002117 0.525777 -1.182798
v 0.912321 0.575913 -1.266540
v 0.712151 0.575913 -1.266540
v -1.002117 -0.692117 -1.266540
v -1.002117 -0.692117 -1.002117
v 1.002117 0.575913 -1.002117
v 1.002117 -0.692117 -1.002117
v -1.002117 0.575913 -1.002117
v -1.002117 0.575913 -1.266540
v 1.002117 -0.692117 -1.266540
v 1.002117 0.575913 -1.266540
v 0.130916 0.986027 -1.002117
v 0.130916 -1.018207 -1.002117
v 0.130916 0.986027 -0.717804
v 0.130916 -1.018207 -0.717804
v 0.130916 0.684043 -1.266540
v 0.130916 -0.744273 -1.266540
v 0.130916 -0.692117 -1.266540
v 0.130916 0.575913 -1.266540
v -0.573550 0.986027 -1.002117
v -0.573550 0.986027 -0.717804
v -0.573550 -1.018207 -0.717804
v -0.573550 0.684043 -1.266540
v -0.573550 -0.692117 -1.266540
v -0.573550 0.575913 -1.266540
v -0.573550 -1.018207 -1.002117
v -0.573550 -0.744273 -1.266540
v 0.912321 -1.143684 0.717804
v 0.130916 0.935952 -0.717804
v -0.912280 0.986027 -1.002117
v -0.912280 0.986027 -0.717804
v -0.912280 -1.018207 -0.717804
v -0.912280 0.684043 -1.266540
v -0.912280 -0.692117 -1.266540
v -0.912280 0.575913 -1.266540
v -0.912280 -1.018207 -1.002117
v -0.912280 -0.744273 -1.266540
v 0.912321 -1.018207 -1.266540
v 1.002117 -1.018207 -1.266540
v 1.002117 0.986027 -1.266540
v -1.002117 -1.018207 -1.266540
v -1.002117 0.986027 -1.266540
v 0.912321 0.986027 -1.266540
v -0.912280 0.986027 -1.266540
v -0.912280 -1.018207 -1.266540
v 0.912321 -1.143684 0.859960
v -0.573550 0.935952 -0.717804
v 1.002117 0.986027 0.859960
v -1.002117 -1.018207 0.859961
v 1.002117 0.844466 0.789180
v 0.912321 0.986027 0.859960
v 0.712151 0.986027 0.859960
v 1.002117 -1.018207 0.859960
v -1.002117 0.986027 0.859961
v 1.002117 -0.876646 0.789180
v 0.912321 -1.018207 0.859960
v 0.712151 -1.018207 0.859960
v -1.002117 -0.692117 0.859961
v -1.002117 0.575913 0.859961
v 1.002117 -0.692117 0.789180
v 1.002117 0.575913 0.789180
v 0.130916 0.986027 0.859961
v 0.130916 -1.018207 0.859961
v -0.573550 0.986027 0.859961
v -0.573550 -1.018207 0.859961
v -0.912280 0.986027 0.859961
v -0.912280 -1.018207 0.859961
v 1.002117 0.986027 -0.859961
v -1.002117 -1.018207 -0.859960
v 1.002117 0.844466 -0.789180
v 0.912321 0.986027 -0.859961
v 0.712151 0.986027 -0.859961
v 1.002117 -1.018207 -0.859961
v -1.002117 0.986027 -0.859960
v 1.002117 -0.876646 -0.789180
v 0.912321 -1.018207 -0.859961
v 0.712151 -1.018207 -0.859961
v -1.002117 -0.692117 -0.859960
v -1.002117 0.575913 -0.859960
v 1.002117 -0.692117 -0.789180
v 1.002117 0.575913 -0.789180
v 0.130916 0.986027 -0.859961
v 0.130916 -1.018207 -0.859961
v -0.573550 0.986027 -0.859961
v -0.573550 -1.018207 -0.859961
v -0.573550 0.935952 -0.859961
v 0.130916 0.935952 -0.859961
v -0.912280 0.986027 -0.859960
v -0.912280 -1.018207 -0.859960
v 0.712151 -1.143684 0.859960
v 0.712151 -1.143684 0.717804
v 0.912321 1.111505 0.717804
v 0.712151 1.111505 0.717804
v 0.130916 1.111505 0.717804
v 0.130916 -1.143684 0.717804
v 0.130916 -1.143684 0.859961
v -0.573550 1.111505 0.717804
v -0.573550 -1.143684 0.717804
v -0.573550 -1.143684 0.859961
v -0.912280 1.111505 0.717804
v -0.912280 -1.143684 0.717804
v -0.912280 -1.143684 0.859961
v 0.912321 -1.143684 -0.859961
v 0.912321 -1.143684 -0.717804
v 0.712151 -1.143684 -0.859961
v 0.712151 -1.143684 -0.717804
v 0.912321 1.111505 -0.717804
v 0.712151 1.111505 -0.717804
v 0.130916 1.111505 -0.717804
v 0.130916 -1.143684 -0.717804
v 0.130916 -1.143684 -0.859961
v -0.573550 -1.143684 -0.717804
v -0.573550 -1.143684 -0.859961
v -0.573550 1.111505 -0.717804
v -0.912280 1.111505 -0.717804
v -0.912280 -1.143684 -0.717804
v -0.912280 -1.143684 -0.859960
v 0.912321 1.111505 0.859960
v 0.712151 1.111505 0.859960
v 0.130916 1.111505 0.859961
v -0.573550 1.111505 0.859961
v -0.912280 1.111505 0.859961
v 0.912321 1.111505 -0.859961
v 0.712151 1.111505 -0.859961
v 0.130916 1.111505 -0.859961
v -0.573550 1.111505 -0.859961
v -0.912280 1.111505 -0.859960
v -0.912280 0.684043 1.002117
v -0.912280 0.575913 1.002117
v 0.130916 0.575913 1.002117
v -0.573550 0.575913 1.002117
v 0.712151 0.575913 1.002117
v 0.912322 0.575913 1.002117
v 0.912321 0.986027 1.002117
v 0.712151 0.986027 1.002117
v 0.712151 0.684043 1.002117
v 0.912322 0.684043 1.002117
v 0.912321 0.986027 -1.002117
v 0.712151 0.986027 -1.002117
v 0.712151 0.575913 -1.002117
v 0.912321 0.575913 -1.002117
vn -0.0000 -1.0000 -0.0000
vn -0.0000 1.0000 -0.0000
vn 1.0000 -0.0000 -0.0000
vn -0.0000 -0.0000 -1.0000
vn -0.0000 -0.0000 1.0000
vn -1.0000 -0.0000 -0.0000
vn -0.0000 -0.6945 0.7195
vn -0.0000 -0.6945 -0.7195
vn -0.0000 0.6588 -0.7523
vt 0.685211 0.966165
vt 0.668554 0.966165
vt 0.668554 0.782552
vt 0.685211 0.782552
vt 0.000000 0.264717
vt 0.010483 0.264717
vt 0.010483 0.295572
vt 0.000000 0.295572
vt 0.434690 0.469708
vt 0.434690 0.454476
vt 0.668554 0.454476
vt 0.668554 0.469708
vt 0.885899 0.055701
vt 0.885899 0.047372
vt 0.902417 0.030854
vt 0.902417 0.047442
vt 0.716408 0.047372
vt 0.685072 0.047372
vt 0.668554 0.030854
vt 0.716408 0.030854
vt 0.413159 0.743378
vt 0.434690 0.743378
vt 0.434690 0.926992
vt 0.413159 0.926992
vt 0.233863 0.248130
vt 0.233863 0.264717
vt 0.223385 0.264717
vt 0.223385 0.248130
vt 0.200029 0.264717
vt 0.200029 0.248130
vt 0.269100 0.488654
vt 0.233863 0.488654
vt 0.233863 0.449130
vt 0.269100 0.449130
vt 0.223386 0.147786
vt 0.223385 0.231542
vt 0.200029 0.231542
vt 0.200029 0.147786
vt 0.233863 0.147786
vt 0.233863 0.231542
vt 0.915251 0.843811
vt 0.915251 0.867168
vt 0.900610 0.867168
vt 0.900610 0.843811
vt 0.668554 0.653409
vt 0.668554 0.669997
vt 0.658076 0.669997
vt 0.658076 0.653409
vt 0.233863 0.033835
vt 0.250520 0.033835
vt 0.250520 0.217448
vt 0.233863 0.217448
vt 0.685072 0.055701
vt 0.685072 0.064029
vt 0.668554 0.064029
vt 0.668554 0.047442
vt 0.885899 0.147786
vt 0.885899 0.064029
vt 0.902417 0.064029
vt 0.902417 0.147786
vt 0.010483 0.248130
vt 0.000000 0.248130
vt 0.047854 0.777565
vt 0.000000 0.777565
vt 0.000000 0.760977
vt 0.047854 0.760977
vt 0.768967 0.782552
vt 0.768967 0.966165
vt 0.250520 0.238980
vt 0.233863 0.238980
vt 0.195813 0.794152
vt 0.233863 0.794152
vt 0.201899 0.825006
vt 0.195813 0.825006
vt 0.250520 0.418276
vt 0.233863 0.418276
vt 0.233863 0.386940
vt 0.250520 0.386940
vt 0.233863 0.703364
vt 0.233863 0.692887
vt 0.265199 0.692887
vt 0.265199 0.703364
vt 0.233863 0.777565
vt 0.195813 0.777565
vt 0.195813 0.760977
vt 0.233863 0.760977
vt 0.902417 0.023357
vt 0.902417 0.000000
vt 0.946843 -0.000000
vt 0.946843 0.023357
vt 0.000000 0.794152
vt 0.047854 0.794152
vt 0.047854 0.825006
vt 0.035237 0.825006
vt 0.233863 0.743378
vt 0.265199 0.743378
vt 0.265199 0.926992
vt 0.233863 0.926992
vt 0.864367 0.047372
vt 0.864367 0.030854
vt 0.010483 0.147786
vt 0.010483 0.231542
vt 0.000000 0.231542
vt 0.000000 0.147786
vt 0.703791 0.000000
vt 0.668554 0.000000
vt 0.413159 0.692887
vt 0.413159 0.703364
vt 0.434690 0.703364
vt 0.434690 0.692887
vt 0.864367 0.055701
vt 0.864367 0.064029
vt 0.716408 0.064029
vt 0.716408 0.055701
vt 0.434690 0.726721
vt 0.413159 0.726721
vt 0.265199 0.726721
vt 0.233863 0.726721
vt 0.634719 0.669997
vt 0.658076 0.753753
vt 0.634719 0.753753
vt 0.434690 0.318216
vt 0.668554 0.318216
vt 0.047854 0.677220
vt 0.195813 0.677220
vt 0.233863 0.677220
vt 0.334277 0.238980
vt 0.334277 0.386940
vt 0.334277 0.217448
vt 0.334277 0.418276
vt 0.250520 0.010478
vt 0.334277 0.010478
vt 0.334277 0.033835
vt 0.250520 0.000000
vt 0.334277 0.000000
vt 0.000000 0.677220
vt 0.445173 0.653409
vt 0.445173 0.669997
vt 0.434690 0.669997
vt 0.434690 0.653409
vt 0.768967 1.000000
vt 0.685211 1.000000
vt 0.685211 0.989522
vt 0.768967 0.989522
vt 0.445173 0.753753
vt 0.434690 0.753753
vt 0.010483 0.333621
vt 0.010483 0.481581
vt 0.000000 0.481581
vt 0.000000 0.333621
vt 0.000000 0.327535
vt 0.010483 0.327535
vt 0.233863 0.481581
vt 0.233863 0.494198
vt 0.223385 0.494198
vt 0.223385 0.481581
vt 0.010483 0.494198
vt 0.000000 0.494198
vt 0.233863 0.327535
vt 0.233863 0.333621
vt 0.223385 0.333621
vt 0.223385 0.327535
vt 0.200029 0.327535
vt 0.200029 0.333621
vt 0.200029 0.481581
vt 0.716408 0.000000
vt 0.864367 0.000000
vt 0.870453 0.000000
vt 0.902417 0.091178
vt 0.946843 0.091178
vt 0.189963 0.815235
vt 0.189963 0.800002
vt 0.722258 0.025004
vt 0.858517 0.025004
vt 0.053704 0.800002
vt 0.053704 0.815235
vt 0.858517 0.009771
vt 0.722258 0.009772
vt 0.668554 0.605968
vt 0.434690 0.605968
vt 0.434691 0.302984
vt 0.668554 0.302984
vt 0.902417 0.173378
vt 0.946843 0.173378
vt 0.132207 0.333621
vt 0.132207 0.327535
vt 0.132207 0.481581
vt 0.566898 0.753753
vt 0.566898 0.669997
vt 0.138210 0.893813
vt 0.121623 0.893813
vt 0.121623 0.879172
vt 0.138210 0.879172
vt 0.132207 0.231542
vt 0.132207 0.147786
vt 0.132207 0.264717
vt 0.132207 0.248130
vt 0.269100 0.692887
vt 0.233863 0.692887
vt 0.233863 0.662032
vt 0.269100 0.662032
vt 0.902417 0.212903
vt 0.946843 0.212903
vt 0.050007 0.333621
vt 0.050007 0.327535
vt 0.050007 0.481581
vt 0.484698 0.753753
vt 0.484698 0.669997
vt 0.327587 0.472441
vt 0.327587 0.554642
vt 0.312946 0.554642
vt 0.312946 0.472441
vt 0.050007 0.231542
vt 0.050007 0.147786
vt 0.050007 0.264717
vt 0.050007 0.248130
vt 0.233863 0.570854
vt 0.269100 0.570854
vt 0.233863 0.295572
vt 0.223385 0.295572
vt 0.373457 0.524095
vt 0.373458 0.606295
vt 0.358816 0.606295
vt 0.358816 0.524095
vt 0.269100 0.638676
vt 0.233863 0.638676
vt 0.445173 0.636822
vt 0.434690 0.636822
vt 0.434690 0.605968
vt 0.445173 0.605968
vt 0.233863 0.825006
vt 0.176064 0.869432
vt 0.176064 0.825006
vt 0.198264 0.846435
vt 0.902417 0.000000
vt 0.010483 0.529435
vt 0.000000 0.529435
vt 0.343426 0.660461
vt 0.312571 0.692425
vt 0.312571 0.660461
vt 0.000000 0.825006
vt 0.233863 0.529435
vt 0.223385 0.529435
vt 0.668554 0.636822
vt 0.658076 0.636822
vt 0.658076 0.605968
vt 0.668554 0.605968
vt 0.852724 0.966165
vt 0.852724 0.782552
vt 0.869381 0.782552
vt 0.869381 0.966165
vt 0.000000 0.030854
vt 0.000000 0.000000
vt 0.010483 0.000000
vt 0.010483 0.030854
vt 0.434690 0.136259
vt 0.668554 0.136259
vt 0.668554 0.151492
vt 0.434690 0.151492
vt 0.885899 0.239871
vt 0.902417 0.248130
vt 0.902417 0.264717
vt 0.885899 0.248199
vt 0.716408 0.248199
vt 0.716408 0.264717
vt 0.668554 0.264717
vt 0.685072 0.248199
vt 0.847849 0.732060
vt 0.847849 0.548446
vt 0.869381 0.548446
vt 0.869381 0.732060
vt 0.233863 0.047442
vt 0.223386 0.047442
vt 0.223386 0.030854
vt 0.233863 0.030854
vt 0.200029 0.047442
vt 0.200029 0.030854
vt 0.106982 0.879217
vt 0.106982 0.910071
vt 0.071745 0.910071
vt 0.200029 0.064029
vt 0.223386 0.064029
vt 0.233863 0.064029
vt 0.296359 0.418276
vt 0.312946 0.418276
vt 0.312946 0.432917
vt 0.296359 0.432917
vt 0.668554 0.854098
vt 0.658076 0.854098
vt 0.658076 0.837510
vt 0.668554 0.837510
vt 0.434690 0.033835
vt 0.434690 0.217448
vt 0.418034 0.217448
vt 0.418034 0.033835
vt 0.685072 0.239871
vt 0.668554 0.248130
vt 0.668554 0.231542
vt 0.685072 0.231542
vt 0.902417 0.231542
vt 0.885899 0.231542
vt 0.010483 0.047442
vt 0.000000 0.047442
vt 0.047854 0.576876
vt 0.047854 0.593464
vt 0.000000 0.593464
vt 0.000000 0.576876
vt 0.852724 0.989522
vt 0.418034 0.238980
vt 0.434690 0.238980
vt 0.195814 0.560289
vt 0.195814 0.529435
vt 0.201899 0.529435
vt 0.233863 0.560289
vt 0.418034 0.418276
vt 0.418034 0.386940
vt 0.434690 0.386940
vt 0.434690 0.418276
vt 0.668554 0.772074
vt 0.699890 0.772074
vt 0.699890 0.782551
vt 0.668554 0.782551
vt 0.233863 0.576876
vt 0.233863 0.593464
vt 0.195814 0.593464
vt 0.195814 0.576876
vt 0.913807 0.571803
vt 0.869381 0.571803
vt 0.869381 0.548446
vt 0.913807 0.548446
vt 0.000000 0.560289
vt 0.035237 0.529435
vt 0.047854 0.529435
vt 0.047854 0.560289
vt 0.668554 0.732060
vt 0.668554 0.548446
vt 0.699890 0.548446
vt 0.699890 0.732060
vt 0.864367 0.264717
vt 0.864367 0.248199
vt 0.000000 0.064029
vt 0.010483 0.064029
vt 0.703791 0.295571
vt 0.668554 0.295571
vt 0.847849 0.772074
vt 0.847849 0.782551
vt 0.869381 0.772074
vt 0.869381 0.782551
vt 0.864367 0.239871
vt 0.864367 0.231542
vt 0.716408 0.239871
vt 0.716408 0.231542
vt 0.869381 0.748717
vt 0.847849 0.748717
vt 0.699890 0.748717
vt 0.668554 0.748717
vt 0.634719 0.837510
vt 0.668554 0.287751
vt 0.434690 0.287751
vt 0.418034 0.010478
vt 0.418034 -0.000000
vt 0.445173 0.854098
vt 0.434690 0.854098
vt 0.434690 0.837510
vt 0.445173 0.837510
vt 0.852724 1.000000
vt 0.679036 0.510396
vt 0.668554 0.510396
vt 0.668554 0.362437
vt 0.679036 0.362437
vt 0.679036 0.516482
vt 0.668554 0.516482
vt 0.902417 0.362437
vt 0.891939 0.362437
vt 0.891939 0.349820
vt 0.902417 0.349820
vt 0.668554 0.349820
vt 0.679036 0.349820
vt 0.902417 0.516482
vt 0.891939 0.516482
vt 0.891939 0.510396
vt 0.902417 0.510396
vt 0.868582 0.516482
vt 0.868582 0.510396
vt 0.868582 0.362437
vt 0.716408 0.295571
vt 0.870453 0.295571
vt 0.864367 0.295571
vt 0.913807 0.639624
vt 0.869381 0.639624
vt 0.189963 0.539206
vt 0.189963 0.554439
vt 0.722258 0.270567
vt 0.858517 0.270567
vt 0.053704 0.554439
vt 0.053704 0.539206
vt 0.858517 0.285800
vt 0.722258 0.285800
vt 0.434690 0.000000
vt 0.434690 0.302984
vt 0.913807 0.721824
vt 0.869381 0.721824
vt 0.800761 0.362437
vt 0.800761 0.349820
vt 0.868582 0.349820
vt 0.800761 0.516482
vt 0.800761 0.510396
vt 0.566898 0.837510
vt 0.358816 0.660461
vt 0.342229 0.660461
vt 0.342229 0.645820
vt 0.358816 0.645820
vt 0.132207 0.064029
vt 0.132208 0.047442
vt 0.132208 0.030854
vt 0.868582 0.302984
vt 0.800761 0.302984
vt 0.913807 0.761349
vt 0.869381 0.761349
vt 0.718561 0.362437
vt 0.718561 0.349820
vt 0.718561 0.516482
vt 0.718561 0.510396
vt 0.484698 0.837510
vt 0.022430 0.918893
vt 0.005843 0.918893
vt 0.005843 0.913050
vt 0.022430 0.913050
vt 0.050007 0.064029
vt 0.050007 0.047442
vt 0.050007 0.030854
vt 0.022430 0.830849
vt 0.005843 0.830849
vt 0.342229 0.456274
vt 0.358816 0.456274
vt 0.342229 0.524095
vt 0.718561 0.302984
vt 0.028273 0.830849
vt 0.028273 0.913050
vt 0.223386 0.000000
vt 0.233863 0.000000
vt 0.373458 0.645820
vt 0.373458 0.622463
vt 0.388099 0.622463
vt 0.388099 0.645820
vt 0.679036 0.302984
vt 0.445173 0.870685
vt 0.445173 0.901539
vt 0.434690 0.901539
vt 0.434690 0.870685
vt 0.891939 0.548446
vt 0.902417 0.548446
vt 0.679036 0.548446
vt 0.233863 0.529435
vt 0.220463 0.869432
vt 0.198264 0.846435
vt 0.220463 0.825006
vt 0.902417 0.295571
vt 0.668554 0.314583
vt 0.679036 0.314583
vt 0.281717 0.660461
vt 0.312571 0.660461
vt 0.312571 0.692425
vt 0.000000 0.529435
vt 0.152852 0.825006
vt 0.176064 0.851516
vt 0.152852 0.871842
vt 0.891939 0.314583
vt 0.902417 0.314583
vt 0.668554 0.870685
vt 0.668554 0.901539
vt 0.658076 0.901539
vt 0.658076 0.870685
vt 0.000000 0.913050
vt -0.000000 0.830849
vt 0.373458 0.554642
vt 0.388099 0.554642
vt 0.484698 0.636822
vt 0.484698 0.653409
vt 0.327587 0.432917
vt 0.566898 0.636822
vt 0.566898 0.653409
vt 0.915251 0.775990
vt 0.900610 0.775990
vt 0.634719 0.636822
vt 0.634719 0.653409
vt 0.342229 0.418275
vt 0.358816 0.418275
vt 0.358816 0.432917
vt 0.342229 0.432917
vt 0.900610 0.881810
vt 0.884022 0.881810
vt 0.884022 0.867168
vt 0.484698 0.870685
vt 0.484698 0.854098
vt 0.005843 0.825006
vt 0.022430 0.825006
vt 0.373458 0.645820
vt 0.566898 0.870685
vt 0.566898 0.854098
vt 0.404686 0.660461
vt 0.388099 0.660461
vt 0.404686 0.645820
vt 0.634719 0.870685
vt 0.634719 0.854098
vt 0.121623 0.825006
vt 0.138210 0.825006
vt 0.138210 0.839648
vt 0.121623 0.839648
vt 0.342229 0.606295
vt 0.884022 0.843811
vt 0.884022 0.775990
vt 0.296359 0.472441
vt 0.296359 0.554642
vt 0.312946 0.622463
vt 0.296359 0.622463
vt 0.312946 0.645820
vt 0.296359 0.645820
vt 0.388099 0.472441
vt 0.388099 0.432917
vt 0.404686 0.432917
vt 0.404686 0.472441
vt 0.404686 0.554642
vt 0.404686 0.622463
vt 0.312946 0.660461
vt 0.296359 0.660461
vt 0.281717 0.472441
vt 0.281717 0.432917
vt 0.373458 0.472441
vt 0.327587 0.645820
vt 0.327587 0.606295
vt 0.419328 0.432917
vt 0.419328 0.472441
vt 0.327587 0.622463
vt 0.327587 0.645820
vt 0.281717 0.554642
vt 0.327587 0.456274
vt 0.327587 0.432917
vt 0.152852 0.839648
vt 0.152852 0.879172
vt 0.327587 0.524095
vt 0.281717 0.645820
vt 0.281717 0.622463
vt 0.373457 0.432917
vt 0.373457 0.456274
vt 0.419328 0.554642
vt 0.869381 0.867168
vt 0.869381 0.843811
vt 0.884022 0.761349
vt 0.900610 0.761349
vt 0.419328 0.622463
vt 0.419328 0.645820
vt 0.106982 0.879172
vt 0.106982 0.839648
vt 0.388099 0.418276
vt 0.404686 0.418276
vt 0.869381 0.775990
vt 0.373458 0.432917
vt 0.233863 0.418276
vt 0.269100 0.418276
vt 0.281717 0.418276
vt 0.281717 0.449130
vt 0.281717 0.488654
vt 0.281717 0.570854
vt 0.281717 0.662033
vt 0.281717 0.692887
vt 0.281717 0.638676
vt 0.050007 0.512435
vt 0.010483 0.512435
vt 0.132207 0.512435
vt 0.200029 0.512435
vt 0.223386 0.512435
vt 0.059127 0.910071
vt 0.059127 0.879217
vt 0.106982 0.855860
vt 0.059127 0.855860
vt 0.059127 0.825006
vt 0.071745 0.825006
vt 0.028273 0.879217
vt 0.028273 0.855860
vt 0.668554 0.753753
vt 0.685072 0.147786
vt 0.668554 0.147786
s 0
usemtl M_PrisonCell
f 43/1/1 20/2/1 8/3/1 16/4/1
f 1/5/1 120/6/1 129/7/1 125/8/1
f 25/9/2 72/10/2 69/11/2 23/12/2
f 245/13/3 3/14/3 5/15/3 243/16/3
f 26/17/3 4/18/3 6/19/3 86/20/3
f 32/21/4 21/22/4 7/23/4 29/24/4
f 243/25/1 5/26/1 36/27/1 246/28/1
f 246/28/1 36/27/1 35/29/1 247/30/1
f 111/31/5 101/32/5 112/33/5 318/34/5
f 49/35/1 18/36/1 19/37/1 50/38/1
f 44/39/1 9/40/1 18/36/1 49/35/1
f 177/41/5 146/42/5 297/43/5 298/44/5
f 238/45/2 10/46/2 17/47/2 241/48/2
f 21/49/2 64/50/2 15/51/2 7/52/2
f 240/53/3 14/54/3 10/55/3 238/56/3
f 47/57/3 13/58/3 9/59/3 44/60/3
f 257/61/1 120/6/1 1/5/1 239/62/1
f 249/63/6 244/64/6 12/65/6 30/66/6
f 54/67/1 53/68/1 43/1/1 16/4/1
f 33/69/3 29/70/3 7/52/3 15/51/3
f 85/71/6 1/72/6 73/73/6 84/74/6
f 16/75/3 8/76/3 28/77/3 34/78/3
f 34/78/3 28/77/3 29/70/3 33/69/3
f 41/79/4 14/80/4 37/81/4 40/82/4
f 239/83/6 248/84/6 31/85/6 11/86/6
f 248/84/6 249/63/6 30/66/6 31/85/6
f 35/87/7 36/88/7 71/89/7 74/90/7
f 2/91/6 88/92/6 89/93/6 79/94/6
f 20/95/4 39/96/4 28/97/4 8/98/4
f 39/96/4 32/21/4 29/24/4 28/97/4
f 3/14/3 27/99/3 87/100/3 5/15/3
f 27/99/3 26/17/3 86/20/3 87/100/3
f 115/101/1 114/102/1 11/103/1 45/104/1
f 75/105/3 6/19/3 124/106/3
f 40/82/4 37/81/4 38/107/4 65/108/4
f 63/109/4 65/108/4 38/107/4 13/110/4
f 250/111/3 245/13/3 13/58/3 38/112/3
f 250/111/3 38/112/3 37/113/3 251/114/3
f 240/53/3 4/18/3 26/17/3 251/114/3
f 64/115/6 21/22/6 32/21/6 66/116/6
f 65/108/4 66/116/4 42/117/4 40/82/4
f 66/116/6 32/21/6 39/96/6 42/117/6
f 42/117/6 39/96/6 20/95/6 43/118/6
f 68/119/2 17/47/2 61/120/2 67/121/2
f 40/82/4 42/117/4 43/118/4 41/79/4
f 69/11/4 72/10/4 81/122/4 80/123/4
f 31/85/6 30/66/6 58/124/6 57/125/6
f 11/86/6 31/85/6 57/125/6 45/126/6
f 33/69/3 55/127/3 56/128/3 34/78/3
f 15/51/3 48/129/3 55/127/3 33/69/3
f 34/78/3 56/128/3 54/130/3 16/75/3
f 63/131/2 51/132/2 52/133/2 64/50/2
f 13/134/2 47/135/2 51/132/2 63/131/2
f 30/66/6 12/65/6 46/136/6 58/124/6
f 256/137/2 113/138/2 12/139/2 244/140/2
f 64/50/2 52/133/2 48/129/2 15/51/2
f 60/141/1 14/142/1 41/143/1 62/144/1
f 64/115/4 66/116/4 65/108/4 63/109/4
f 113/138/2 116/145/2 46/146/2 12/139/2
f 118/147/5 119/148/5 89/149/5 84/150/5
f 118/147/5 84/150/5 73/151/5 121/152/5
f 91/153/5 75/154/5 76/155/5 82/156/5
f 119/148/5 117/157/5 79/158/5 89/149/5
f 70/159/5 90/160/5 77/161/5 71/162/5
f 90/160/5 91/153/5 82/156/5 77/161/5
f 74/163/5 71/162/5 77/161/5 78/164/5
f 77/161/5 82/156/5 83/165/5 78/164/5
f 86/20/3 6/19/3 75/105/3 91/166/3
f 5/15/3 87/100/3 90/167/3 70/168/3
f 93/169/7 35/87/7 74/90/7 98/170/7
f 72/171/6 25/172/6 85/71/6 84/74/6
f 22/173/3 23/174/3 87/100/3 86/20/3
f 25/172/6 24/175/6 88/92/6 85/71/6
f 24/175/6 81/176/6 89/93/6 88/92/6
f 23/174/3 69/177/3 90/167/3 87/100/3
f 80/178/3 22/173/3 86/20/3 91/166/3
f 69/177/3 80/178/3 91/166/3 90/167/3
f 81/176/6 72/171/6 84/74/6 89/93/6
f 23/12/5 22/179/5 24/180/5 25/9/5
f 81/122/1 24/181/1 22/182/1 80/123/1
f 108/183/7 93/169/7 98/170/7 109/184/7
f 78/164/5 99/185/5 98/186/5 74/163/5
f 78/164/5 83/165/5 100/187/5 99/185/5
f 68/119/2 67/121/2 97/188/2 94/189/2
f 278/190/6 221/191/6 305/192/6 317/193/6
f 50/38/1 19/37/1 95/194/1 96/195/1
f 247/30/1 35/29/1 93/196/1 253/197/1
f 76/198/6 127/199/6 324/200/6 327/201/6
f 120/202/7 108/183/7 109/184/7 121/203/7
f 99/185/5 106/204/5 109/205/5 98/186/5
f 99/185/5 100/187/5 107/206/5 106/204/5
f 94/189/2 97/188/2 105/207/2 102/208/2
f 103/209/4 95/210/4 285/211/4 288/212/4
f 96/195/1 95/194/1 103/213/1 104/214/1
f 253/197/1 93/196/1 108/215/1 255/216/1
f 92/217/5 101/32/5 111/31/5 110/218/5
f 36/27/1 5/26/1 123/219/1 122/220/1
f 106/204/5 118/147/5 121/152/5 109/205/5
f 106/204/5 107/206/5 119/148/5 118/147/5
f 102/208/2 105/207/2 116/145/2 113/138/2
f 94/221/4 102/222/4 287/223/4 284/224/4
f 104/214/1 103/213/1 114/102/1 115/101/1
f 255/216/1 108/215/1 120/6/1 257/61/1
f 92/217/5 110/218/5 326/225/5 325/226/5
f 112/227/2 2/228/2 126/229/2 128/230/2
f 122/220/5 123/219/5 70/159/5 71/162/5
f 125/8/5 129/7/5 121/152/5 73/151/5
f 73/73/6 1/72/6 125/231/6
f 71/232/6 36/233/6 122/234/6
f 5/15/3 70/168/3 123/235/3
f 79/158/5 117/157/5 128/236/5 126/237/5
f 120/238/3 121/239/3 129/240/3
f 2/91/6 79/94/6 126/241/6
f 76/155/5 75/154/5 124/242/5 127/243/5
f 6/244/2 324/245/2 127/246/2 124/247/2
f 172/248/1 145/249/1 137/250/1 149/251/1
f 130/252/1 231/253/1 235/254/1 226/255/1
f 154/256/2 152/257/2 178/258/2 181/259/2
f 265/260/3 263/261/3 134/262/3 132/263/3
f 155/264/3 196/265/3 135/266/3 133/267/3
f 161/268/5 158/269/5 136/270/5 150/271/5
f 263/272/1 266/273/1 165/274/1 134/275/1
f 266/273/1 267/276/1 164/277/1 165/274/1
f 328/278/6 233/279/6 185/280/6
f 49/35/1 50/38/1 148/281/1 147/282/1
f 44/39/1 49/35/1 147/282/1 138/283/1
f 257/284/6 114/285/6 291/286/6 292/287/6
f 258/288/2 261/289/2 146/290/2 139/291/2
f 150/292/2 136/293/2 144/294/2 174/295/2
f 260/296/3 258/297/3 139/298/3 143/299/3
f 47/57/3 44/60/3 138/300/3 142/301/3
f 279/302/1 259/303/1 130/252/1 226/255/1
f 269/304/6 159/305/6 141/306/6 264/307/6
f 53/68/1 172/248/1 170/308/1 62/144/1
f 54/67/1 145/249/1 172/248/1 53/68/1
f 162/309/3 144/294/3 136/293/3 158/310/3
f 53/68/1 62/144/1 41/143/1 43/1/1
f 195/311/6 194/312/6 182/313/6 130/314/6
f 145/315/3 163/316/3 157/317/3 137/318/3
f 163/316/3 162/309/3 158/310/3 157/317/3
f 170/319/5 169/320/5 166/321/5 143/322/5
f 259/323/6 140/324/6 160/325/6 268/326/6
f 268/326/6 160/325/6 159/305/6 269/304/6
f 164/327/8 183/328/8 180/329/8 165/330/8
f 131/331/6 189/332/6 199/333/6 198/334/6
f 149/335/5 137/336/5 157/337/5 168/338/5
f 168/338/5 157/337/5 158/269/5 161/268/5
f 132/263/3 134/262/3 197/339/3 156/340/3
f 156/340/3 197/339/3 196/265/3 155/264/3
f 115/101/1 45/104/1 140/341/1 222/342/1
f 184/343/3 230/344/3 135/266/3
f 169/320/5 175/345/5 167/346/5 166/321/5
f 173/347/5 142/348/5 167/346/5 175/345/5
f 270/349/3 167/350/3 142/301/3 265/260/3
f 270/349/3 271/351/3 166/352/3 167/350/3
f 260/296/3 271/351/3 155/264/3 133/267/3
f 174/353/6 176/354/6 161/268/6 150/271/6
f 175/345/5 169/320/5 171/355/5 176/354/5
f 176/354/6 171/355/6 168/338/6 161/268/6
f 171/355/6 172/356/6 149/335/6 168/338/6
f 67/121/2 61/120/2 146/290/2 177/357/2
f 169/320/5 170/319/5 172/356/5 171/355/5
f 178/258/5 190/358/5 191/359/5 181/259/5
f 160/325/6 57/125/6 58/124/6 159/305/6
f 140/324/6 45/126/6 57/125/6 160/325/6
f 162/309/3 163/316/3 56/128/3 55/127/3
f 144/294/3 162/309/3 55/127/3 48/129/3
f 163/316/3 145/315/3 54/130/3 56/128/3
f 173/360/2 174/295/2 52/133/2 51/132/2
f 142/361/2 173/360/2 51/132/2 47/135/2
f 159/305/6 58/124/6 46/136/6 141/306/6
f 278/362/2 264/363/2 141/364/2 221/365/2
f 174/295/2 144/294/2 48/129/2 52/133/2
f 60/141/1 62/144/1 170/308/1 143/366/1
f 174/353/5 173/347/5 175/345/5 176/354/5
f 221/365/2 141/364/2 46/146/2 116/145/2
f 224/367/4 194/368/4 199/369/4 225/370/4
f 224/367/4 227/371/4 182/372/4 194/368/4
f 201/373/4 192/374/4 185/375/4 184/376/4
f 225/370/4 199/369/4 189/377/4 223/378/4
f 179/379/4 180/380/4 187/381/4 200/382/4
f 200/382/4 187/381/4 192/374/4 201/373/4
f 183/383/4 188/384/4 187/381/4 180/380/4
f 187/381/4 188/384/4 193/385/4 192/374/4
f 196/265/3 201/386/3 184/343/3 135/266/3
f 134/262/3 179/387/3 200/388/3 197/339/3
f 203/389/8 207/390/8 183/328/8 164/327/8
f 181/391/6 194/312/6 195/311/6 154/392/6
f 151/393/3 196/265/3 197/339/3 152/394/3
f 154/392/6 195/311/6 198/334/6 153/395/6
f 153/395/6 198/334/6 199/333/6 191/396/6
f 152/394/3 197/339/3 200/388/3 178/397/3
f 190/398/3 201/386/3 196/265/3 151/393/3
f 178/397/3 200/388/3 201/386/3 190/398/3
f 191/396/6 199/333/6 194/312/6 181/391/6
f 152/257/4 154/256/4 153/399/4 151/106/4
f 191/359/1 190/358/1 151/182/1 153/400/1
f 216/401/8 217/402/8 207/390/8 203/389/8
f 193/385/4 209/403/4 206/404/4 186/405/4
f 188/384/4 183/383/4 207/406/4 208/407/4
f 188/384/4 208/407/4 209/403/4 193/385/4
f 177/357/2 204/408/2 97/188/2 67/121/2
f 113/409/6 256/410/6 312/411/6 290/412/6
f 50/38/1 96/195/1 205/413/1 148/281/1
f 267/276/1 273/414/1 203/415/1 164/277/1
f 329/416/9 186/405/9 206/404/9 202/417/9
f 226/418/8 227/419/8 217/402/8 216/401/8
f 209/403/4 215/420/4 213/421/4 206/404/4
f 208/407/4 207/406/4 217/422/4 214/423/4
f 208/407/4 214/423/4 215/420/4 209/403/4
f 204/408/2 211/424/2 105/207/2 97/188/2
f 274/425/3 211/426/3 237/427/3 276/428/3
f 96/195/1 104/214/1 212/429/1 205/413/1
f 273/414/1 275/430/1 216/431/1 203/415/1
f 277/432/2 276/428/2 237/427/2 219/433/2
f 309/434/2 283/435/2 284/224/2 310/436/2
f 206/404/9 213/421/9 210/437/9 202/417/9
f 272/438/5 274/439/5 276/428/5 277/432/5
f 165/274/1 228/440/1 229/441/1 134/275/1
f 215/420/4 225/370/4 223/378/4 213/421/4
f 214/423/4 217/422/4 227/371/4 224/367/4
f 214/423/4 224/367/4 225/370/4 215/420/4
f 211/424/2 221/365/2 116/145/2 105/207/2
f 147/442/5 148/443/5 296/444/5 294/445/5
f 104/214/1 115/101/1 222/342/1 212/429/1
f 275/430/1 279/302/1 226/255/1 216/431/1
f 210/437/9 213/421/9 223/378/9 220/446/9
f 220/447/2 234/448/2 232/449/2 131/450/2
f 228/451/4 180/380/4 179/379/4 229/452/4
f 231/336/4 182/372/4 227/371/4 235/453/4
f 182/313/6 231/454/6 130/314/6
f 180/455/6 228/456/6 165/457/6
f 134/262/3 229/458/3 179/387/3
f 189/377/4 232/459/4 234/460/4 223/378/4
f 226/461/3 235/462/3 227/463/3
f 131/331/6 232/464/6 189/332/6
f 223/465/3 234/466/3 220/467/3
f 185/375/4 233/468/4 230/469/4 184/376/4
f 135/470/2 230/471/2 233/472/2 328/473/2
f 211/474/4 204/475/4 219/433/4 237/427/4
f 148/443/5 205/476/5 300/477/5 296/444/5
f 101/478/2 254/479/2 256/137/2 112/227/2
f 114/480/4 103/209/4 288/212/4 291/286/4
f 92/481/2 252/482/2 254/479/2 101/478/2
f 204/483/5 177/41/5 298/44/5 299/484/5
f 325/485/2 242/486/2 252/482/2 92/481/2
f 112/227/2 256/137/2 244/140/2 2/228/2
f 14/54/3 240/53/3 251/114/3 37/113/3
f 27/99/3 250/111/3 251/114/3 26/17/3
f 27/99/3 3/14/3 245/13/3 250/111/3
f 85/71/6 88/92/6 249/63/6 248/84/6
f 1/72/6 85/71/6 248/84/6 239/83/6
f 88/92/6 2/91/6 244/64/6 249/63/6
f 114/102/1 257/61/1 239/62/1 11/103/1
f 4/18/3 240/53/3 238/56/3 6/19/3
f 6/244/2 238/45/2 241/48/2 324/245/2
f 324/245/2 241/48/2 242/486/2 325/485/2
f 241/487/3 17/488/3 282/489/3 308/490/3
f 9/40/1 243/25/1 246/28/1 18/36/1
f 13/58/3 245/13/3 243/16/3 9/59/3
f 146/491/3 261/492/3 313/493/3 297/43/3
f 210/494/2 220/447/2 278/362/2 274/495/2
f 204/496/6 272/497/6 277/432/6 219/433/6
f 308/490/2 282/489/2 283/435/2 309/434/2
f 102/222/4 113/498/4 290/412/4 287/223/4
f 202/499/2 210/494/2 274/495/2 272/500/2
f 266/501/3 147/502/3 294/445/3 293/503/3
f 329/504/2 202/499/2 272/500/2 262/505/2
f 220/447/2 131/450/2 264/363/2 278/362/2
f 143/299/3 166/352/3 271/351/3 260/296/3
f 156/340/3 155/264/3 271/351/3 270/349/3
f 156/340/3 270/349/3 265/260/3 132/263/3
f 195/311/6 268/326/6 269/304/6 198/334/6
f 130/314/6 259/323/6 268/326/6 195/311/6
f 198/334/6 269/304/6 264/307/6 131/331/6
f 222/342/1 140/341/1 259/303/1 279/302/1
f 133/267/3 135/266/3 258/297/3 260/296/3
f 135/470/2 328/473/2 261/289/2 258/288/2
f 328/473/2 329/504/2 262/505/2 261/289/2
f 211/506/3 274/507/3 316/508/3 304/509/3
f 138/283/1 147/282/1 266/273/1 263/272/1
f 142/301/3 138/300/3 263/261/3 265/260/3
f 310/436/2 284/224/2 287/223/2 311/510/2
f 311/510/2 287/223/2 290/412/2 312/411/2
f 313/493/2 314/511/2 298/44/2 297/43/2
f 314/511/2 315/512/2 299/484/2 298/44/2
f 316/508/2 317/193/2 305/192/2 304/509/2
f 288/212/1 289/513/1 292/287/1 291/286/1
f 285/211/1 286/514/1 289/513/1 288/212/1
f 281/515/1 280/516/1 286/514/1 285/211/1
f 218/517/1 236/518/1 280/516/1 281/515/1
f 302/519/1 306/520/1 307/521/1 303/522/1
f 300/477/1 302/519/1 303/522/1 301/523/1
f 296/444/1 300/477/1 301/523/1 295/524/1
f 294/445/1 296/444/1 295/524/1 293/503/1
f 18/525/3 246/526/3 236/518/3 218/517/3
f 255/527/5 257/528/5 292/287/5 289/513/5
f 205/476/5 212/529/5 302/519/5 300/477/5
f 256/530/5 254/531/5 311/510/5 312/411/5
f 279/532/4 275/533/4 303/522/4 307/521/4
f 19/534/4 18/535/4 218/517/4 281/515/4
f 253/536/5 255/527/5 289/513/5 286/514/5
f 242/537/5 241/538/5 308/490/5 309/434/5
f 274/539/4 278/540/4 317/193/4 316/508/4
f 254/531/5 252/541/5 310/436/5 311/510/5
f 246/542/5 247/543/5 280/516/5 236/518/5
f 17/544/4 68/545/4 283/435/4 282/489/4
f 247/543/5 253/536/5 286/514/5 280/516/5
f 252/541/5 242/537/5 309/434/5 310/436/5
f 275/533/4 273/546/4 301/523/4 303/522/4
f 261/547/4 262/548/4 314/511/4 313/493/4
f 272/549/6 204/550/6 299/484/6 315/512/6
f 267/551/4 266/552/4 293/503/4 295/524/4
f 68/545/4 94/221/4 284/224/4 283/435/4
f 273/546/4 267/551/4 295/524/4 301/523/4
f 221/553/5 211/554/5 304/509/5 305/192/5
f 95/210/4 19/534/4 281/515/4 285/211/4
f 222/555/6 279/556/6 307/521/6 306/520/6
f 262/548/4 272/557/4 315/512/4 314/511/4
f 212/529/5 222/558/5 306/520/5 302/519/5
f 112/33/3 128/559/3 117/560/3 318/34/3
f 318/34/3 117/560/3 119/561/3 319/562/3
f 110/218/5 111/31/5 321/563/5 320/564/5
f 111/31/5 318/34/5 319/562/5 321/563/5
f 76/198/6 327/201/6 323/565/6 82/566/6
f 326/225/5 110/218/5 320/564/5 322/567/5
f 107/206/2 321/568/2 319/569/2 119/148/2
f 107/206/2 100/187/2 320/570/2 321/568/2
f 100/187/2 83/165/2 322/571/2 320/570/2
f 82/156/2 323/572/2 322/571/2 83/165/2
f 185/280/6 192/573/6 331/574/6 328/278/6
f 329/575/3 330/576/3 193/577/3 186/578/3
f 192/579/2 193/580/2 330/576/2 331/574/2
f 10/46/2 59/581/2 61/120/2 17/47/2
f 146/290/2 61/120/2 59/581/2 139/291/2
f 14/54/3 60/582/3 59/583/3 10/55/3
f 143/299/3 139/298/3 59/583/3 60/582/3
f 327/201/5 326/225/5 322/567/5 323/565/5
f 324/200/5 325/226/5 326/225/5 327/201/5
f 329/575/4 328/278/4 331/574/4 330/576/4
