# Blender 5.2.0 LTS
# www.blender.org
mtllib CellArm.01.mtl
o CellArm.01
v 0.043806 0.054754 -0.638556
v 0.043803 -0.043803 -0.638556
v -0.127942 0.054759 -0.638556
v -0.127945 -0.043798 -0.638556
v -0.801839 -0.043778 -0.638556
v -0.801836 0.054779 -0.638556
v 0.043806 0.054754 -0.717470
v 0.043803 -0.043803 -0.717470
v -0.127942 0.054759 -0.717470
v -0.127945 -0.043798 -0.717470
v -0.713443 -0.043781 -0.638556
v -0.713440 0.054776 -0.638556
v -0.713440 0.054776 -0.717471
v -0.713443 -0.043781 -0.717470
v 0.043803 -0.043803 -0.646042
v -0.127942 0.054759 -0.646042
v -0.801836 0.054779 -0.646042
v 0.043806 0.054754 -0.646042
v -0.127945 -0.043798 -0.646042
v -0.801839 -0.043778 -0.646042
v -0.713443 -0.043781 -0.646042
v -0.713440 0.054776 -0.646042
v -0.114776 0.049243 -0.633404
v -0.114776 -0.038292 -0.633404
v -0.779412 0.049243 -0.633404
v -0.779412 -0.038292 -0.633404
v -0.158784 0.049243 -0.583125
v -0.114776 0.049243 -0.627132
v -0.114776 -0.038292 -0.627132
v -0.158784 -0.038292 -0.583125
v -0.779412 0.049243 -0.627132
v -0.735405 0.049243 -0.583125
v -0.735405 -0.038292 -0.583125
v -0.779412 -0.038292 -0.627132
v -0.784564 0.049243 -0.638556
v -0.109625 0.049243 -0.638556
v -0.109625 -0.038292 -0.638556
v -0.784564 -0.038292 -0.638556
v -0.109625 0.049243 -0.624998
v -0.156650 0.049243 -0.577973
v -0.156650 -0.038292 -0.577973
v -0.109625 -0.038292 -0.624998
v -0.784564 -0.038292 -0.624998
v -0.737539 -0.038292 -0.577973
v -0.737539 0.049243 -0.577973
v -0.784564 0.049243 -0.624998
v -0.649576 0.049243 -0.638556
v -0.514588 0.049243 -0.638556
v -0.379600 0.049243 -0.638556
v -0.244612 0.049243 -0.638556
v -0.244612 -0.038292 -0.638556
v -0.379600 -0.038292 -0.638556
v -0.514588 -0.038292 -0.638556
v -0.649576 -0.038292 -0.638556
v -0.646485 0.049243 -0.633404
v -0.513558 0.049243 -0.633404
v -0.380631 0.049243 -0.633404
v -0.247704 0.049243 -0.633404
v -0.247704 -0.038292 -0.633404
v -0.380631 -0.038292 -0.633404
v -0.513558 -0.038292 -0.633404
v -0.646485 -0.038292 -0.633404
v -0.254347 0.049243 -0.638556
v -0.254347 -0.038292 -0.638556
v -0.252704 0.049243 -0.633404
v -0.252704 -0.038292 -0.633404
v -0.644498 0.049243 -0.638556
v -0.644498 -0.038292 -0.638556
v -0.641485 0.049243 -0.633404
v -0.641485 -0.038292 -0.633404
v -0.509513 0.049243 -0.638556
v -0.384684 0.049243 -0.638556
v -0.384683 -0.038292 -0.638556
v -0.509513 -0.038292 -0.638556
v -0.508560 0.049243 -0.633404
v -0.385636 0.049243 -0.633404
v -0.385636 -0.038292 -0.633404
v -0.508560 -0.038292 -0.633404
v -0.621361 0.049243 -0.577973
v -0.505183 0.049243 -0.577973
v -0.389005 0.049243 -0.577973
v -0.272828 0.049243 -0.577973
v -0.621361 -0.038292 -0.577973
v -0.505183 -0.038292 -0.577973
v -0.389005 -0.038292 -0.577973
v -0.272828 -0.038292 -0.577973
v -0.620081 0.049243 -0.583125
v -0.504756 0.049243 -0.583125
v -0.389432 0.049243 -0.583125
v -0.274108 0.049243 -0.583125
v -0.620081 -0.038292 -0.583125
v -0.504756 -0.038292 -0.583125
v -0.389432 -0.038292 -0.583125
v -0.274108 -0.038292 -0.583125
v -0.277830 0.049243 -0.577973
v -0.277830 -0.038292 -0.577973
v -0.279073 0.049243 -0.583125
v -0.279073 -0.038292 -0.583125
v -0.394007 0.049243 -0.577973
v -0.394007 -0.038292 -0.577973
v -0.394397 0.049243 -0.583125
v -0.394397 -0.038292 -0.583125
v -0.500181 0.049243 -0.577973
v -0.500181 -0.038292 -0.577973
v -0.499791 0.049243 -0.583125
v -0.499791 -0.038292 -0.583125
v -0.616362 0.049243 -0.577973
v -0.616362 -0.038292 -0.577973
v -0.615119 0.049243 -0.583125
v -0.615119 -0.038292 -0.583125
v 0.043806 0.054754 -0.701982
v -0.127945 -0.043798 -0.701982
v -0.713443 -0.043781 -0.701982
v 0.043803 -0.043803 -0.701982
v -0.127942 0.054759 -0.701982
v -0.713440 0.054776 -0.701982
v -0.776021 -0.043780 -0.701982
v -0.776021 -0.043780 -0.717470
v -0.776018 0.054777 -0.717471
v -0.776018 0.054777 -0.701982
v 0.043806 0.054755 0.638556
v 0.043803 -0.043803 0.638556
v -0.127943 0.054759 0.638556
v -0.127946 -0.043798 0.638556
v -0.801839 -0.043778 0.638556
v -0.801836 0.054779 0.638556
v 0.043806 0.054755 0.717470
v 0.043803 -0.043803 0.717470
v -0.127943 0.054759 0.717470
v -0.127946 -0.043798 0.717470
v -0.713443 -0.043781 0.638556
v -0.713440 0.054776 0.638556
v -0.713440 0.054776 0.717470
v -0.713443 -0.043781 0.717470
v 0.043803 -0.043803 0.646042
v -0.127943 0.054759 0.646042
v -0.801836 0.054779 0.646042
v 0.043806 0.054755 0.646042
v -0.127946 -0.043798 0.646042
v -0.801839 -0.043778 0.646042
v -0.713443 -0.043781 0.646042
v -0.713440 0.054776 0.646042
v -0.114777 0.049244 0.633404
v -0.114777 -0.038292 0.633404
v -0.779412 0.049243 0.633404
v -0.779412 -0.038292 0.633404
v -0.158784 0.049244 0.583125
v -0.114777 0.049244 0.627132
v -0.114777 -0.038292 0.627132
v -0.158784 -0.038292 0.583125
v -0.779412 0.049243 0.627132
v -0.735405 0.049243 0.583125
v -0.735405 -0.038292 0.583125
v -0.779412 -0.038292 0.627132
v -0.784564 0.049243 0.638556
v -0.109625 0.049244 0.638556
v -0.109625 -0.038292 0.638556
v -0.784564 -0.038292 0.638556
v -0.109625 0.049244 0.624998
v -0.156650 0.049244 0.577973
v -0.156650 -0.038292 0.577973
v -0.109625 -0.038292 0.624998
v -0.784564 -0.038292 0.624998
v -0.737539 -0.038292 0.577973
v -0.737539 0.049243 0.577973
v -0.784564 0.049243 0.624998
v -0.649576 0.049243 0.638556
v -0.514588 0.049243 0.638556
v -0.379601 0.049244 0.638556
v -0.244613 0.049244 0.638556
v -0.244613 -0.038292 0.638556
v -0.379601 -0.038292 0.638556
v -0.514588 -0.038292 0.638556
v -0.649576 -0.038292 0.638556
v -0.646485 0.049243 0.633404
v -0.513558 0.049243 0.633404
v -0.380631 0.049244 0.633404
v -0.247704 0.049244 0.633404
v -0.247704 -0.038292 0.633404
v -0.380631 -0.038292 0.633404
v -0.513558 -0.038292 0.633404
v -0.646485 -0.038292 0.633404
v -0.254347 0.049244 0.638556
v -0.254347 -0.038292 0.638556
v -0.252705 0.049244 0.633404
v -0.252705 -0.038292 0.633404
v -0.644498 0.049243 0.638556
v -0.644498 -0.038292 0.638556
v -0.641485 0.049243 0.633404
v -0.641485 -0.038292 0.633404
v -0.509513 0.049244 0.638556
v -0.384684 0.049243 0.638556
v -0.384684 -0.038292 0.638556
v -0.509513 -0.038292 0.638556
v -0.508560 0.049243 0.633404
v -0.385637 0.049244 0.633404
v -0.385637 -0.038292 0.633404
v -0.508560 -0.038292 0.633404
v -0.621361 0.049243 0.577973
v -0.505184 0.049243 0.577973
v -0.389006 0.049243 0.577973
v -0.272828 0.049243 0.577973
v -0.621361 -0.038292 0.577973
v -0.505184 -0.038292 0.577973
v -0.389006 -0.038292 0.577973
v -0.272828 -0.038292 0.577973
v -0.620081 0.049243 0.583125
v -0.504757 0.049243 0.583125
v -0.389432 0.049243 0.583125
v -0.274108 0.049243 0.583125
v -0.620081 -0.038292 0.583125
v -0.504757 -0.038292 0.583125
v -0.389432 -0.038292 0.583125
v -0.274108 -0.038292 0.583125
v -0.277830 0.049243 0.577973
v -0.277830 -0.038292 0.577973
v -0.279074 0.049243 0.583125
v -0.279074 -0.038292 0.583125
v -0.394007 0.049243 0.577973
v -0.394007 -0.038292 0.577973
v -0.394397 0.049243 0.583125
v -0.394397 -0.038292 0.583125
v -0.500181 0.049243 0.577973
v -0.500181 -0.038292 0.577973
v -0.499791 0.049243 0.583125
v -0.499791 -0.038292 0.583125
v -0.616363 0.049243 0.577973
v -0.616363 -0.038292 0.577973
v -0.615119 0.049243 0.583125
v -0.615119 -0.038292 0.583125
v 0.043806 0.054755 0.701982
v -0.127946 -0.043798 0.701982
v -0.713443 -0.043781 0.701982
v 0.043803 -0.043803 0.701982
v -0.127943 0.054759 0.701982
v -0.713440 0.054776 0.701982
v -0.776021 -0.043779 0.701982
v -0.776021 -0.043779 0.717470
v -0.776018 0.054778 0.717470
v -0.776018 0.054778 0.701982
v 0.043804 0.005475 -0.638556
v -0.127944 0.005480 -0.717470
v 0.043804 0.005475 -0.717470
v -0.713441 0.005497 -0.638556
v -0.801838 0.005500 -0.646042
v 0.043804 0.005475 -0.646042
v -0.801838 0.005500 -0.638556
v -0.127944 0.005480 -0.638556
v -0.713441 0.005497 -0.717470
v -0.713441 0.005497 -0.646042
v 0.043804 0.005475 -0.701982
v -0.713441 0.005497 -0.701982
v -0.776019 0.005499 -0.717470
v -0.776019 0.005499 -0.701982
v -0.127942 0.005497 -0.646042
v -0.127942 0.005497 -0.701982
v 0.043804 0.005476 0.638556
v -0.127944 0.005481 0.717470
v 0.043804 0.005476 0.717470
v -0.713441 0.005498 0.638556
v -0.801838 0.005501 0.646042
v 0.043804 0.005476 0.646042
v -0.801838 0.005501 0.638556
v -0.127944 0.005481 0.638556
v -0.713441 0.005498 0.717470
v -0.713441 0.005498 0.646042
v 0.043804 0.005476 0.701982
v -0.713441 0.005498 0.701982
v -0.776020 0.005500 0.717470
v -0.776020 0.005500 0.701982
v -0.127944 0.005498 0.646042
v -0.127944 0.005498 0.701982
vn 1.0000 -0.0000 -0.0000
vn -0.0000 -0.0000 1.0000
vn -0.0000 1.0000 -0.0000
vn -0.0000 -1.0000 -0.0000
vn -0.0000 -0.0000 -1.0000
vn -1.0000 -0.0000 -0.0000
vn 0.7071 -0.0000 0.7071
vn -0.7071 -0.0000 0.7071
vn -0.7071 -0.0000 -0.7071
vn 0.7071 -0.0000 -0.7071
vn -0.9850 -0.0000 0.1724
vn -0.8853 -0.0000 0.4649
vn 0.8853 -0.0000 0.4649
vn 0.9850 -0.0000 0.1724
vn 0.8856 -0.0000 -0.4644
vn 0.9851 -0.0000 -0.1718
vn -0.9852 -0.0000 -0.1716
vn -0.8856 -0.0000 -0.4645
vn -0.9850 -0.0000 -0.1724
vn -0.8853 -0.0000 -0.4649
vn 0.8853 -0.0000 -0.4649
vn 0.9850 -0.0000 -0.1724
vn 0.8856 -0.0000 0.4644
vn 0.9851 -0.0000 0.1718
vn -0.9852 -0.0000 0.1716
vn -0.8856 -0.0000 0.4645
vt 0.345402 0.870634
vt 0.350325 0.870634
vt 0.350325 0.903042
vt 0.345402 0.903042
vt 0.582649 0.112949
vt 0.550241 0.112949
vt 0.550242 -0.000000
vt 0.582649 0.000000
vt 0.545318 0.063057
vt 0.545318 0.004923
vt 0.550241 0.004923
vt 0.550241 0.063057
vt 0.741956 0.112949
vt 0.731771 0.112949
vt 0.731771 0.000000
vt 0.741956 0.000000
vt 0.508529 0.561054
vt 0.498344 0.561054
vt 0.498344 0.448105
vt 0.508529 0.448105
vt 0.880892 0.497997
vt 0.913299 0.497997
vt 0.913299 0.539152
vt 0.880892 0.539152
vt 0.741956 0.497997
vt 0.731771 0.497997
vt 0.545318 0.448105
vt 0.550241 0.448105
vt 0.582649 0.556131
vt 0.550242 0.556131
vt 0.550241 0.497998
vt 0.582649 0.497998
vt 0.512921 0.448106
vt 0.512910 0.063057
vt 0.783668 0.112949
vt 0.783668 0.497997
vt 0.778745 0.497997
vt 0.778745 0.112949
vt 0.783668 0.556131
vt 0.778745 0.556131
vt 0.550241 0.561054
vt 0.545318 0.561054
vt 0.778745 0.000000
vt 0.783668 0.000000
vt 0.512911 0.004923
vt 0.480503 0.004923
vt 0.480503 -0.000000
vt 0.512911 0.000000
vt 0.880892 0.112949
vt 0.913299 0.112949
vt 0.848484 0.112949
vt 0.848484 0.000000
vt 0.880892 0.000000
vt 0.480503 0.063057
vt 0.387114 0.870634
vt 0.387114 0.838226
vt 0.397299 0.838226
vt 0.397299 0.870634
vt 0.913299 0.434670
vt 0.970866 0.434670
vt 0.970866 0.478405
vt 0.913299 0.478405
vt 0.970866 0.052652
vt 0.913299 0.052652
vt 0.913299 0.008916
vt 0.970866 0.008916
vt 0.538069 0.851770
vt 0.480503 0.851770
vt 0.480503 0.847645
vt 0.538069 0.847645
vt 0.970866 0.487321
vt 0.913299 0.487321
vt 0.913299 0.358266
vt 0.970866 0.358266
vt 0.538069 0.939189
vt 0.480503 0.939189
vt 0.913299 -0.000000
vt 0.970866 -0.000000
vt 0.896753 0.629958
vt 0.896753 0.542540
vt 0.900141 0.539152
vt 0.900141 0.627925
vt 0.780280 0.646937
vt 0.780280 0.559519
vt 0.783668 0.644904
vt 0.892628 0.542540
vt 0.863687 0.571481
vt 0.860299 0.570077
vt 0.891225 0.539152
vt 0.747214 0.967671
vt 0.776155 0.996612
vt 0.774752 1.000000
vt 0.743826 0.969074
vt 0.776155 0.559519
vt 0.747214 0.588460
vt 0.743826 0.587056
vt 0.774752 0.556131
vt 0.863687 0.950692
vt 0.892628 0.979633
vt 0.891225 0.983021
vt 0.860299 0.952095
vt 0.896753 0.979633
vt 0.900141 0.983021
vt 0.863687 0.874850
vt 0.860299 0.875692
vt 0.780280 0.996612
vt 0.783668 1.000000
vt 0.747214 0.891829
vt 0.743826 0.892671
vt 0.480503 0.806717
vt 0.538069 0.806717
vt 0.000000 0.658294
vt 0.057567 0.658294
vt 0.057567 0.734136
vt 0.000000 0.734136
vt 0.057567 0.775065
vt 0.000000 0.775065
vt 0.000000 0.779190
vt 0.057567 0.779190
vt 0.780280 0.909193
vt 0.783668 0.911226
vt 0.780280 0.905905
vt 0.780280 0.821775
vt 0.783668 0.822452
vt 0.783668 0.904825
vt 0.780280 0.737643
vt 0.780280 0.734356
vt 0.783668 0.733678
vt 0.783668 0.737016
vt 0.780280 0.650226
vt 0.783668 0.648244
vt 0.896753 0.892214
vt 0.900141 0.894247
vt 0.896753 0.888926
vt 0.896753 0.804796
vt 0.900141 0.805473
vt 0.900141 0.890908
vt 0.896753 0.720669
vt 0.896753 0.717377
vt 0.900141 0.716699
vt 0.900141 0.720042
vt 0.896753 0.633247
vt 0.900141 0.634327
vt 0.057567 0.866609
vt 0.000000 0.866609
vt 0.115134 0.764430
vt 0.172701 0.764430
vt 0.172701 0.848560
vt 0.115134 0.848560
vt 0.747214 0.815986
vt 0.747214 0.812722
vt 0.780280 0.818483
vt 0.747214 0.888563
vt 0.538070 0.618621
vt 0.538070 0.561054
vt 0.541407 0.561054
vt 0.541407 0.618621
vt 0.287835 0.848558
vt 0.230268 0.848558
vt 0.230268 0.764428
vt 0.287835 0.764428
vt 0.863687 0.871586
vt 0.863687 0.799007
vt 0.863687 0.795742
vt 0.896753 0.801509
vt 0.402969 0.757386
vt 0.460536 0.757386
vt 0.460536 0.838226
vt 0.402969 0.838226
vt 0.900141 0.802135
vt 0.783668 0.819109
vt 0.402969 0.838226
vt 0.460536 0.838226
vt 0.460536 0.914069
vt 0.402969 0.914069
vt 0.287835 0.727091
vt 0.230268 0.727091
vt 0.230268 0.654515
vt 0.287835 0.654515
vt 0.172701 0.654515
vt 0.115134 0.654515
vt 0.115134 0.620946
vt 0.172701 0.620946
vt 0.000000 0.620946
vt 0.057567 0.620946
vt 0.747214 0.664302
vt 0.743826 0.663460
vt 0.747214 0.667565
vt 0.747214 0.740144
vt 0.743826 0.739864
vt 0.743826 0.666747
vt 0.743826 0.816267
vt 0.743826 0.812978
vt 0.743826 0.889381
vt 0.863687 0.647323
vt 0.860299 0.646481
vt 0.863687 0.650589
vt 0.863687 0.723165
vt 0.860299 0.722884
vt 0.860299 0.649771
vt 0.860299 0.799288
vt 0.860299 0.795998
vt 0.860299 0.872404
vt 0.970866 0.129055
vt 0.913299 0.129055
vt 0.913299 0.132343
vt 0.970866 0.132343
vt 0.970866 0.205459
vt 0.913299 0.205459
vt 0.913299 0.278573
vt 0.970866 0.278573
vt 0.970866 0.281862
vt 0.913299 0.281862
vt 0.913299 0.354976
vt 0.970866 0.354976
vt 0.460536 0.951417
vt 0.402969 0.951417
vt 0.913299 0.208749
vt 0.970866 0.208749
vt 0.863687 0.726430
vt 0.860299 0.726174
vt 0.747214 0.743410
vt 0.743826 0.743153
vt 0.230268 0.620946
vt 0.287835 0.620946
vt 0.402969 0.654510
vt 0.460536 0.654510
vt 0.460536 0.723822
vt 0.402969 0.723821
vt 0.172701 0.727094
vt 0.115134 0.727094
vt 0.402969 0.620946
vt 0.460536 0.620946
vt 0.350325 0.838226
vt 0.498344 0.063057
vt 0.508529 0.063057
vt 0.820457 0.571559
vt 0.783668 0.571559
vt 0.783668 0.539152
vt 0.820457 0.539152
vt 0.582649 0.566317
vt 0.582649 0.556131
vt 0.615057 0.556131
vt 0.615057 0.566317
vt 0.582649 0.607471
vt 0.550241 0.607471
vt 0.550241 0.566317
vt 0.498344 0.021902
vt 0.508529 0.021902
vt 0.741956 0.539152
vt 0.731771 0.539152
vt 0.339733 0.880966
vt 0.339733 0.913374
vt 0.334809 0.913374
vt 0.334809 0.880966
vt 0.647465 0.443182
vt 0.647465 0.556131
vt 0.615057 0.556131
vt 0.615057 0.443182
vt 0.726847 0.497997
vt 0.731771 0.497997
vt 0.731771 0.556131
vt 0.726847 0.556131
vt 0.438790 0.507997
vt 0.438790 0.620946
vt 0.428605 0.620946
vt 0.428605 0.507997
vt 0.690059 -0.000000
vt 0.690059 0.112949
vt 0.679873 0.112949
vt 0.679873 -0.000000
vt 0.816076 0.041154
vt 0.816076 -0.000000
vt 0.848484 -0.000000
vt 0.848484 0.041154
vt 0.428605 0.122949
vt 0.438791 0.122949
vt 0.726847 0.112949
vt 0.731771 0.112949
vt 0.647465 0.000000
vt 0.647465 0.058133
vt 0.615057 0.058133
vt 0.615058 -0.000000
vt 0.417446 0.000000
vt 0.417446 0.032408
vt 0.032398 0.032397
vt 0.032398 0.000000
vt 0.480502 0.507997
vt 0.475579 0.507997
vt 0.475579 0.122949
vt 0.480502 0.122949
vt 0.475579 0.064815
vt 0.480502 0.064815
vt 0.731771 -0.000000
vt 0.726847 -0.000000
vt 0.480502 0.620946
vt 0.475579 0.620946
vt 0.475579 0.032408
vt 0.480503 0.032408
vt 0.848484 0.426203
vt 0.816076 0.426203
vt 0.816076 0.539152
vt 0.783668 0.539152
vt 0.783668 0.426203
vt 0.417446 0.064816
vt 0.298021 0.880966
vt 0.287835 0.880966
vt 0.287835 0.848558
vt 0.298021 0.848558
vt 0.913299 0.539973
vt 0.913299 0.496238
vt 0.970866 0.496238
vt 0.970866 0.539973
vt 0.970866 0.921991
vt 0.970866 0.965727
vt 0.913299 0.965726
vt 0.913299 0.921991
vt 0.057567 0.779190
vt 0.057567 0.775065
vt 0.115134 0.775065
vt 0.115134 0.779190
vt 0.913299 0.487321
vt 0.913299 0.616377
vt 0.970866 0.616377
vt 0.057567 0.866608
vt 0.115134 0.866608
vt 0.913299 0.974643
vt 0.970866 0.974643
vt 0.823845 0.629958
vt 0.820457 0.627926
vt 0.820457 0.539152
vt 0.823845 0.542540
vt 0.716327 0.909193
vt 0.719715 0.911226
vt 0.719715 1.000000
vt 0.716327 0.996612
vt 0.827970 0.542540
vt 0.829373 0.539152
vt 0.860299 0.570077
vt 0.856911 0.571481
vt 0.683261 0.588460
vt 0.679873 0.587057
vt 0.710799 0.556131
vt 0.712202 0.559519
vt 0.712202 0.996612
vt 0.710799 1.000000
vt 0.679873 0.969074
vt 0.683261 0.967671
vt 0.856911 0.950692
vt 0.860299 0.952095
vt 0.829373 0.983021
vt 0.827970 0.979633
vt 0.820457 0.983021
vt 0.823845 0.979633
vt 0.856911 0.874850
vt 0.860299 0.875692
vt 0.719715 0.556131
vt 0.716327 0.559519
vt 0.683261 0.664302
vt 0.679873 0.663460
vt 0.057567 0.734136
vt 0.115134 0.734136
vt 0.538070 0.598402
vt 0.538070 0.674244
vt 0.480503 0.674244
vt 0.480503 0.598402
vt 0.480503 0.715173
vt 0.538070 0.715173
vt 0.538070 0.719298
vt 0.480503 0.719298
vt 0.719715 0.644905
vt 0.716327 0.646937
vt 0.716327 0.650226
vt 0.719715 0.651306
vt 0.719715 0.733678
vt 0.716327 0.734356
vt 0.716327 0.818488
vt 0.719715 0.819115
vt 0.719715 0.822452
vt 0.716327 0.821775
vt 0.716327 0.905905
vt 0.719715 0.907887
vt 0.820457 0.894247
vt 0.823845 0.892214
vt 0.823845 0.888926
vt 0.820457 0.890908
vt 0.820457 0.805473
vt 0.823845 0.804796
vt 0.823845 0.720669
vt 0.820457 0.720042
vt 0.820457 0.716699
vt 0.823845 0.717377
vt 0.823845 0.633247
vt 0.820457 0.634327
vt 0.538070 0.806716
vt 0.480503 0.806716
vt 0.230268 0.764430
vt 0.230268 0.848560
vt 0.172701 0.848560
vt 0.172701 0.764430
vt 0.683261 0.740144
vt 0.716327 0.737648
vt 0.683261 0.743409
vt 0.683261 0.667568
vt 0.345402 0.620946
vt 0.345402 0.705076
vt 0.287835 0.705076
vt 0.287835 0.620946
vt 0.856911 0.871586
vt 0.856911 0.799007
vt 0.823845 0.801509
vt 0.856911 0.795742
vt 0.402969 0.757386
vt 0.402969 0.838226
vt 0.345402 0.838226
vt 0.345402 0.757386
vt 0.820457 0.802135
vt 0.719715 0.737021
vt 0.057567 0.658294
vt 0.115134 0.658294
vt 0.345402 0.742413
vt 0.345402 0.814990
vt 0.287835 0.814990
vt 0.287835 0.742413
vt 0.172701 0.654515
vt 0.172701 0.620946
vt 0.230268 0.620946
vt 0.480503 0.561054
vt 0.538070 0.561054
vt 0.679873 0.892671
vt 0.683261 0.891829
vt 0.683261 0.888565
vt 0.679873 0.889383
vt 0.679873 0.816267
vt 0.683261 0.815987
vt 0.679873 0.743153
vt 0.679873 0.739864
vt 0.679873 0.666750
vt 0.860299 0.646481
vt 0.856911 0.647323
vt 0.856911 0.650589
vt 0.860299 0.649771
vt 0.860299 0.722885
vt 0.856911 0.723165
vt 0.860299 0.795998
vt 0.860299 0.799288
vt 0.860299 0.872404
vt 0.913299 0.845587
vt 0.970866 0.845587
vt 0.913299 0.842300
vt 0.913299 0.769184
vt 0.970866 0.769184
vt 0.970866 0.842300
vt 0.913299 0.696069
vt 0.913299 0.692780
vt 0.970866 0.692780
vt 0.970866 0.696069
vt 0.913299 0.619666
vt 0.970866 0.619666
vt 0.057567 0.620946
vt 0.115134 0.620946
vt 0.913299 0.765894
vt 0.970866 0.765894
vt 0.860299 0.726174
vt 0.856911 0.726430
vt 0.683261 0.812721
vt 0.679873 0.812977
vt 0.345402 0.848558
vt 0.287835 0.848558
vt 0.402969 0.654510
vt 0.402969 0.723822
vt 0.345402 0.723821
vt 0.345402 0.654510
vt 0.230268 0.727094
vt 0.172701 0.727094
vt 0.345402 0.620946
vt 0.402969 0.620946
vt 0.334809 0.848558
vt 0.690059 0.497997
vt 0.679873 0.497997
vt 0.449854 0.032409
vt 0.449853 0.069198
vt 0.417445 0.069197
vt 0.647465 0.566316
vt 0.615057 0.566317
vt 0.615057 0.556131
vt 0.647465 0.556131
vt 0.647465 0.607471
vt 0.679872 0.566316
vt 0.679872 0.607471
vt 0.690059 0.539152
vt 0.679873 0.539152
vt 0.428605 0.081794
vt 0.438791 0.081794
vt 0.615057 0.607471
vt 0.550241 0.556131
vt 0.820457 0.956609
vt 0.783668 0.956609
vt 0.387114 0.903042
vt 0.397299 0.903042
vt 0.545318 0.004923
vt 0.913299 0.000000
vt 0.848484 0.497997
vt 0.545318 0.000000
vt 0.615057 0.497998
vt 0.615057 0.112949
vt 0.848484 0.539152
vt 0.615057 0.000000
vt 0.820457 0.989005
vt 0.783668 0.989005
vt 0.582638 0.992520
vt 0.550241 0.992519
vt 0.615057 0.607471
vt 0.679872 0.556131
vt 0.032397 0.069185
vt 0.298021 0.913374
vt 0.287835 0.913374
vt 0.475579 0.000000
vt 0.848484 0.539152
vt 0.783668 0.041154
vt 0.480503 0.000000
vt 0.679873 0.058133
vt 0.679873 0.443182
vt 0.679873 0.000000
vt 0.783668 -0.000000
vt 0.679873 0.556131
vt 0.339733 0.848558
vt -0.000000 0.069184
vt 0.000001 0.032396
vt 0.679872 0.992519
vt 0.647476 0.992519
s 0
usemtl M_MetalInterface
f 241/1/1 246/2/1 18/3/1 1/4/1
f 248/5/2 4/6/2 2/7/2 241/8/2
f 22/9/3 17/10/3 6/11/3 12/12/3
f 112/13/4 10/14/4 8/15/4 114/16/4
f 111/17/3 7/18/3 9/19/3 115/20/3
f 249/21/5 14/22/5 118/23/5 253/24/5
f 112/13/4 113/25/4 14/26/4 10/14/4
f 16/27/3 22/9/3 12/12/3 3/28/3
f 247/29/2 5/30/2 11/31/2 244/32/2
f 16/27/5 255/33/5 250/34/5 22/9/5
f 4/35/4 11/36/4 21/37/4 19/38/4
f 11/36/4 5/39/4 20/40/4 21/37/4
f 1/41/3 18/42/3 16/27/3 3/28/3
f 4/35/4 19/38/4 15/43/4 2/44/4
f 244/32/2 11/31/2 4/6/2 248/5/2
f 245/45/6 20/46/6 5/47/6 247/48/6
f 249/21/5 242/49/5 10/50/5 14/22/5
f 242/49/5 9/51/5 7/52/5 243/53/5
f 245/45/5 250/34/5 21/54/5 20/46/5
f 251/55/1 114/56/1 8/57/1 243/58/1
f 40/59/7 41/60/7 42/61/7 39/62/7
f 44/63/8 45/64/8 46/65/8 43/66/8
f 23/67/6 24/68/6 29/69/6 28/70/6
f 39/62/1 42/61/1 37/71/1 36/72/1
f 82/73/2 86/74/2 41/60/2 40/59/2
f 58/75/2 59/76/2 24/68/2 23/67/2
f 35/77/6 38/78/6 43/66/6 46/65/6
f 58/79/3 23/80/3 36/81/3 50/82/3
f 62/83/4 26/84/4 38/39/4 54/85/4
f 28/86/3 27/87/3 40/88/3 39/89/3
f 30/90/4 29/91/4 42/92/4 41/93/4
f 34/94/4 33/95/4 44/96/4 43/97/4
f 32/98/3 31/99/3 46/100/3 45/101/3
f 23/80/3 28/86/3 39/89/3 36/81/3
f 31/99/3 25/102/3 35/103/3 46/100/3
f 87/104/3 32/98/3 45/101/3 79/105/3
f 29/91/4 24/106/4 37/107/4 42/92/4
f 94/108/4 30/90/4 41/93/4 86/109/4
f 26/84/4 34/94/4 43/97/4 38/39/4
f 28/70/9 29/69/9 30/110/9 27/111/9
f 87/112/5 91/113/5 33/114/5 32/115/5
f 34/116/10 31/117/10 32/115/10 33/114/10
f 25/118/1 31/117/1 34/116/1 26/119/1
f 24/106/4 59/120/4 51/121/4 37/107/4
f 66/122/4 60/123/4 52/124/4 64/125/4
f 78/126/4 61/127/4 53/128/4 74/129/4
f 70/130/4 62/83/4 54/85/4 68/131/4
f 25/102/3 55/132/3 47/133/3 35/103/3
f 69/134/3 56/135/3 48/136/3 67/137/3
f 76/138/3 57/139/3 49/140/3 72/141/3
f 65/142/3 58/79/3 50/82/3 63/143/3
f 25/118/2 26/119/2 62/144/2 55/145/2
f 69/146/2 70/147/2 61/148/2 56/149/2
f 93/150/4 102/151/4 77/152/4 60/123/4
f 94/108/4 98/153/4 66/122/4 59/120/4
f 71/154/5 74/155/5 53/156/5 48/157/5
f 57/158/2 60/159/2 66/160/2 65/161/2
f 57/139/3 65/142/3 63/143/3 49/140/3
f 59/120/4 66/122/4 64/125/4 51/121/4
f 87/104/3 109/162/3 69/134/3 55/132/3
f 55/132/3 69/134/3 67/137/3 47/133/3
f 61/127/4 70/130/4 68/131/4 53/128/4
f 88/163/3 105/164/3 75/165/3 56/135/3
f 75/166/2 78/167/2 77/168/2 76/169/2
f 56/135/3 75/165/3 71/170/3 48/136/3
f 75/165/3 76/138/3 72/141/3 71/170/3
f 60/123/4 77/152/4 73/171/4 52/124/4
f 77/152/4 78/126/4 74/129/4 73/171/4
f 27/172/5 30/173/5 94/174/5 90/175/5
f 97/176/5 98/177/5 93/178/5 89/179/5
f 92/180/11 88/181/11 56/182/11 61/183/11
f 91/113/12 87/112/12 55/184/12 62/185/12
f 33/95/4 91/186/4 83/187/4 44/96/4
f 110/188/4 92/189/4 84/190/4 108/191/4
f 102/151/4 93/150/4 85/192/4 100/193/4
f 98/153/4 94/108/4 86/109/4 96/194/4
f 27/87/3 90/195/3 82/196/3 40/88/3
f 97/197/3 89/198/3 81/199/3 95/200/3
f 105/164/3 88/163/3 80/201/3 103/202/3
f 109/162/3 87/104/3 79/105/3 107/203/3
f 45/64/2 44/63/2 83/204/2 79/205/2
f 107/206/2 108/207/2 84/208/2 80/209/2
f 99/210/2 100/211/2 85/212/2 81/213/2
f 95/214/2 96/215/2 86/74/2 82/73/2
f 81/213/2 85/212/2 96/215/2 95/214/2
f 90/195/3 97/197/3 95/200/3 82/196/3
f 93/150/4 98/153/4 96/194/4 85/192/4
f 90/175/13 94/174/13 59/216/13 58/217/13
f 103/218/2 104/219/2 100/211/2 99/210/2
f 89/198/3 101/220/3 99/221/3 81/199/3
f 106/222/4 102/151/4 100/193/4 104/223/4
f 89/179/14 93/178/14 60/224/14 57/225/14
f 92/189/4 106/222/4 104/223/4 84/190/4
f 80/209/2 84/208/2 104/219/2 103/218/2
f 101/220/3 105/164/3 103/202/3 99/221/3
f 101/226/5 102/227/5 106/228/5 105/229/5
f 79/205/2 83/204/2 108/207/2 107/206/2
f 88/163/3 109/162/3 107/203/3 80/201/3
f 91/186/4 110/188/4 108/191/4 83/187/4
f 88/181/5 92/180/5 110/230/5 109/231/5
f 109/231/15 110/230/15 70/147/15 69/146/15
f 110/188/4 91/186/4 62/83/4 70/130/4
f 105/229/16 106/228/16 78/167/16 75/166/16
f 106/222/4 92/189/4 61/127/4 78/126/4
f 102/227/17 101/226/17 76/232/17 77/233/17
f 101/220/3 89/198/3 57/139/3 76/138/3
f 98/177/18 97/176/18 65/161/18 66/160/18
f 97/197/3 90/195/3 58/79/3 65/142/3
f 246/2/1 15/234/1 114/56/1 251/55/1
f 9/19/3 13/235/3 116/236/3 115/20/3
f 19/38/4 21/37/4 113/25/4 112/13/4
f 250/237/6 252/238/6 113/239/6 21/240/6
f 18/42/3 111/17/3 115/20/3 16/27/3
f 19/38/4 112/13/4 114/16/4 15/43/4
f 254/241/6 253/242/6 118/243/6 117/244/6
f 252/245/2 116/246/2 120/247/2 254/241/2
f 116/236/3 13/235/3 119/248/3 120/249/3
f 14/26/4 113/25/4 117/250/4 118/251/4
f 257/252/1 121/253/1 138/254/1 262/255/1
f 264/256/5 257/257/5 122/258/5 124/259/5
f 142/260/3 132/261/3 126/262/3 137/263/3
f 232/264/4 234/265/4 128/266/4 130/267/4
f 231/268/3 235/269/3 129/270/3 127/271/3
f 265/272/2 269/273/2 238/274/2 134/275/2
f 232/264/4 130/267/4 134/276/4 233/277/4
f 136/278/3 123/279/3 132/261/3 142/260/3
f 263/280/5 260/281/5 131/282/5 125/283/5
f 142/284/2 266/285/2 271/286/2 136/287/2
f 124/288/4 139/289/4 141/290/4 131/291/4
f 131/291/4 141/290/4 140/292/4 125/293/4
f 121/294/3 123/279/3 136/278/3 138/295/3
f 124/288/4 122/296/4 135/297/4 139/289/4
f 260/281/5 264/256/5 124/259/5 131/282/5
f 261/298/6 263/299/6 125/293/6 140/292/6
f 265/272/2 134/275/2 130/300/2 258/301/2
f 258/301/2 259/302/2 127/303/2 129/304/2
f 261/298/2 140/292/2 141/305/2 266/285/2
f 267/306/1 259/307/1 128/308/1 234/309/1
f 160/310/10 159/311/10 162/312/10 161/313/10
f 164/314/9 163/315/9 166/316/9 165/317/9
f 143/318/6 148/319/6 149/320/6 144/321/6
f 159/311/1 156/322/1 157/71/1 162/312/1
f 202/323/5 160/310/5 161/313/5 206/324/5
f 178/325/5 143/318/5 144/321/5 179/326/5
f 155/327/6 166/316/6 163/315/6 158/328/6
f 178/329/3 170/330/3 156/331/3 143/332/3
f 182/333/4 174/334/4 158/335/4 146/336/4
f 148/337/3 159/338/3 160/339/3 147/340/3
f 150/341/4 161/342/4 162/343/4 149/344/4
f 154/345/4 163/346/4 164/347/4 153/348/4
f 152/349/3 165/350/3 166/351/3 151/352/3
f 143/332/3 156/331/3 159/338/3 148/337/3
f 151/352/3 166/351/3 155/353/3 145/354/3
f 207/355/3 199/356/3 165/350/3 152/349/3
f 149/344/4 162/343/4 157/357/4 144/358/4
f 214/359/4 206/360/4 161/342/4 150/341/4
f 146/336/4 158/335/4 163/346/4 154/345/4
f 148/319/8 147/361/8 150/362/8 149/320/8
f 207/363/2 152/364/2 153/365/2 211/366/2
f 154/367/7 153/365/7 152/364/7 151/368/7
f 145/369/1 146/370/1 154/367/1 151/368/1
f 144/358/4 157/357/4 171/371/4 179/372/4
f 186/373/4 184/374/4 172/375/4 180/376/4
f 198/377/4 194/378/4 173/379/4 181/380/4
f 190/381/4 188/382/4 174/334/4 182/333/4
f 145/354/3 155/353/3 167/383/3 175/384/3
f 189/385/3 187/386/3 168/387/3 176/388/3
f 196/389/3 192/390/3 169/391/3 177/392/3
f 185/393/3 183/394/3 170/330/3 178/329/3
f 145/369/5 175/395/5 182/396/5 146/370/5
f 189/397/5 176/398/5 181/399/5 190/400/5
f 213/401/4 180/376/4 197/402/4 222/403/4
f 214/359/4 179/372/4 186/373/4 218/404/4
f 177/405/5 185/406/5 186/407/5 180/408/5
f 177/392/3 169/391/3 183/394/3 185/393/3
f 179/372/4 171/371/4 184/374/4 186/373/4
f 207/355/3 175/384/3 189/385/3 229/409/3
f 175/384/3 167/383/3 187/386/3 189/385/3
f 181/380/4 173/379/4 188/382/4 190/381/4
f 208/410/3 176/388/3 195/411/3 225/412/3
f 195/413/5 196/414/5 197/415/5 198/416/5
f 176/388/3 168/387/3 191/417/3 195/411/3
f 195/411/3 191/417/3 192/390/3 196/389/3
f 180/376/4 172/375/4 193/418/4 197/402/4
f 197/402/4 193/418/4 194/378/4 198/377/4
f 147/361/2 210/419/2 214/420/2 150/362/2
f 217/421/2 209/422/2 213/423/2 218/424/2
f 212/425/19 181/426/19 176/427/19 208/178/19
f 211/366/20 182/428/20 175/429/20 207/363/20
f 153/348/4 164/347/4 203/430/4 211/431/4
f 230/432/4 228/433/4 204/434/4 212/435/4
f 222/403/4 220/436/4 205/437/4 213/401/4
f 218/404/4 216/438/4 206/360/4 214/359/4
f 147/340/3 160/339/3 202/439/3 210/440/3
f 217/441/3 215/442/3 201/443/3 209/444/3
f 225/412/3 223/445/3 200/446/3 208/410/3
f 229/409/3 227/447/3 199/356/3 207/355/3
f 165/317/5 199/448/5 203/449/5 164/314/5
f 227/450/5 200/451/5 204/452/5 228/453/5
f 219/454/5 201/455/5 205/456/5 220/457/5
f 215/458/5 202/323/5 206/324/5 216/459/5
f 201/455/5 215/458/5 216/459/5 205/456/5
f 210/440/3 202/439/3 215/442/3 217/441/3
f 213/401/4 205/437/4 216/438/4 218/404/4
f 210/419/21 178/460/21 179/461/21 214/420/21
f 223/462/5 219/454/5 220/457/5 224/463/5
f 209/444/3 201/443/3 219/464/3 221/465/3
f 226/466/4 224/467/4 220/436/4 222/403/4
f 209/422/22 177/468/22 180/469/22 213/423/22
f 212/435/4 204/434/4 224/467/4 226/466/4
f 200/451/5 223/462/5 224/463/5 204/452/5
f 221/465/3 219/464/3 223/445/3 225/412/3
f 221/470/2 225/471/2 226/472/2 222/473/2
f 199/448/5 227/450/5 228/453/5 203/449/5
f 208/410/3 200/446/3 227/447/3 229/409/3
f 211/431/4 203/430/4 228/433/4 230/432/4
f 208/178/2 229/474/2 230/475/2 212/425/2
f 229/474/23 189/397/23 190/400/23 230/475/23
f 230/432/4 190/381/4 182/333/4 211/431/4
f 225/471/24 195/413/24 198/416/24 226/472/24
f 226/466/4 198/377/4 181/380/4 212/435/4
f 222/473/25 197/476/25 196/477/25 221/470/25
f 221/465/3 196/389/3 177/392/3 209/444/3
f 218/424/26 186/407/26 185/406/26 217/421/26
f 217/441/3 185/393/3 178/329/3 210/440/3
f 262/255/1 267/306/1 234/309/1 135/478/1
f 129/270/3 235/269/3 236/479/3 133/480/3
f 139/289/4 232/264/4 233/277/4 141/290/4
f 266/285/6 141/481/6 233/482/6 268/483/6
f 138/295/3 136/278/3 235/269/3 231/268/3
f 139/289/4 135/297/4 234/265/4 232/264/4
f 270/484/6 237/485/6 238/486/6 269/487/6
f 268/488/5 270/484/5 240/489/5 236/490/5
f 236/479/3 240/491/3 239/492/3 133/480/3
f 134/276/4 238/493/4 237/494/4 233/277/4
f 113/495/2 252/245/2 254/241/2 117/244/2
f 120/247/6 119/496/6 253/242/6 254/241/6
f 252/238/3 250/237/3 255/497/3 256/498/3
f 18/3/1 246/2/1 251/55/1 111/499/1
f 111/499/1 251/55/1 243/58/1 7/500/1
f 17/501/5 22/9/5 250/34/5 245/45/5
f 10/50/5 242/49/5 243/53/5 8/502/5
f 13/503/5 9/51/5 242/49/5 249/21/5
f 17/501/6 245/45/6 247/48/6 6/504/6
f 12/505/2 244/32/2 248/5/2 3/506/2
f 6/486/2 247/29/2 244/32/2 12/505/2
f 13/503/5 249/21/5 253/24/5 119/507/5
f 3/506/2 248/5/2 241/8/2 1/508/2
f 2/415/1 15/234/1 246/2/1 241/1/1
f 16/509/6 115/510/6 256/498/6 255/497/6
f 116/246/2 252/245/2 256/511/2 115/512/2
f 233/513/5 237/485/5 270/484/5 268/488/5
f 240/489/6 270/484/6 269/487/6 239/514/6
f 266/285/3 268/483/3 272/515/3 271/286/3
f 138/254/1 231/516/1 267/306/1 262/255/1
f 231/516/1 127/517/1 259/307/1 267/306/1
f 137/518/2 261/298/2 266/285/2 142/284/2
f 130/300/2 128/519/2 259/302/2 258/301/2
f 133/520/2 265/272/2 258/301/2 129/304/2
f 137/518/6 126/521/6 263/299/6 261/298/6
f 132/522/5 123/523/5 264/256/5 260/281/5
f 126/524/5 132/522/5 260/281/5 263/280/5
f 133/520/2 239/525/2 269/273/2 265/272/2
f 123/523/5 121/526/5 257/257/5 264/256/5
f 122/527/1 257/252/1 262/255/1 135/478/1
f 235/528/6 136/529/6 271/286/6 272/515/6
f 235/530/5 272/531/5 268/488/5 236/490/5
