# Blender 5.2.1 LTS
# www.blender.org
mtllib CellAirIntake.mtl
o CellAirIntake
v -0.989475 -0.177285 -0.101644
v -0.989475 0.176052 -0.101644
v 0.002313 -0.177285 -0.101644
v 0.412102 0.176052 -0.101644
v -0.989475 -0.177285 0.031543
v -0.783591 0.132615 0.031543
v 0.002313 -0.177285 0.031543
v 0.412102 -0.177285 0.031543
v -0.989475 -0.161045 -0.101644
v 0.412102 -0.177285 -0.101644
v 0.412102 -0.161045 -0.101644
v 0.002313 0.176052 -0.101644
v -0.204564 0.132615 0.031543
v 0.002313 -0.161045 -0.101644
v 0.412102 -0.161045 0.031543
v 0.412102 0.176052 0.031543
v 0.002313 0.176052 0.031543
v -0.989475 0.176052 0.031543
v -0.204564 -0.133876 0.031543
v -0.783591 -0.133876 0.031543
v 0.002313 0.159784 -0.101644
v -0.989475 0.159784 -0.101644
v 0.207207 -0.161045 0.031543
v 0.207207 0.176052 0.031543
v 0.207207 -0.177285 0.031543
v 0.207207 -0.177285 -0.101644
v 0.207207 -0.161045 -0.101644
v 0.207207 0.176052 -0.101644
v 0.386925 -0.161045 0.031543
v 0.386925 -0.177285 0.031543
v 0.386925 -0.161045 -0.101644
v 0.386925 0.176052 -0.101644
v 0.386925 0.176052 0.031543
v 0.386925 -0.177285 -0.101644
v 0.182031 0.176052 0.031543
v 0.182031 -0.177285 -0.101644
v 0.182031 -0.161045 0.031543
v 0.182031 -0.177285 0.031543
v 0.182031 -0.161045 -0.101644
v 0.182031 0.176052 -0.101644
v 0.412102 0.159784 -0.101644
v 0.412102 0.159784 0.031543
v 0.207207 0.159784 -0.101644
v 0.207207 0.159784 0.031543
v 0.386925 0.159784 -0.101644
v 0.386925 0.159784 0.031543
v 0.182031 0.159784 0.031543
v 0.182031 0.159784 -0.101644
v 0.002313 0.159784 0.031543
v 0.002313 -0.161045 0.031543
v -0.989475 0.159784 0.031543
v -0.989475 -0.161045 0.031543
v 0.002313 0.159784 0.011799
v 0.002313 -0.161045 0.011799
v 0.386925 -0.161045 0.011799
v 0.386925 0.159784 0.011799
v 0.207207 -0.161045 0.011799
v 0.207207 0.159784 0.011799
v 0.182031 -0.161045 0.011799
v 0.182031 0.159784 0.011799
v 0.182031 0.130826 0.026072
v 0.182031 0.159784 0.016530
v 0.002313 0.130826 0.026072
v 0.002313 0.159784 0.016530
v 0.182031 0.098751 0.026072
v 0.182031 0.127709 0.016530
v 0.002313 0.098751 0.026072
v 0.002313 0.127709 0.016530
v 0.182031 0.066675 0.026072
v 0.182031 0.095633 0.016530
v 0.002313 0.066675 0.026072
v 0.002313 0.095633 0.016530
v 0.182031 0.034600 0.026072
v 0.182031 0.063558 0.016530
v 0.002313 0.034600 0.026072
v 0.002313 0.063558 0.016530
v 0.182031 0.002524 0.026072
v 0.182031 0.031483 0.016530
v 0.002313 0.002524 0.026072
v 0.002313 0.031483 0.016530
v 0.182031 -0.029551 0.026072
v 0.182031 -0.000593 0.016530
v 0.002313 -0.029551 0.026072
v 0.002313 -0.000593 0.016530
v 0.182031 -0.061626 0.026072
v 0.182031 -0.032668 0.016530
v 0.002313 -0.061626 0.026072
v 0.002313 -0.032668 0.016530
v 0.182031 -0.093702 0.026072
v 0.182031 -0.064744 0.016530
v 0.002313 -0.093702 0.026072
v 0.002313 -0.064744 0.016530
v 0.182031 -0.125777 0.026072
v 0.182031 -0.096819 0.016530
v 0.002313 -0.125777 0.026072
v 0.002313 -0.096819 0.016530
v 0.182031 -0.157852 0.026072
v 0.182031 -0.128894 0.016530
v 0.002313 -0.157852 0.026072
v 0.002313 -0.128894 0.016530
v -0.171345 -0.186923 0.040415
v -0.171345 -0.186923 -0.110214
v -0.171345 0.184713 -0.110214
v -0.171345 0.184713 0.040415
v -0.821254 0.184713 0.040415
v -0.821254 -0.186923 0.040415
v -0.821254 -0.186923 -0.110214
v -0.821254 0.184713 -0.110214
v -0.158544 -0.186923 0.040415
v -0.158544 -0.186923 -0.110214
v -0.158544 0.184713 -0.110214
v -0.158544 0.184713 0.040415
v -0.834054 0.184713 0.040415
v -0.834054 -0.186923 0.040415
v -0.834054 -0.186923 -0.110214
v -0.834054 0.184713 -0.110214
v 0.188280 -0.186923 0.040415
v 0.188280 -0.186923 -0.110214
v 0.188280 0.184713 -0.110214
v 0.188280 0.184713 0.040415
v 0.201080 -0.186923 0.040415
v 0.201080 -0.186923 -0.110214
v 0.201080 0.184713 -0.110214
v 0.201080 0.184713 0.040415
v 0.386926 0.130826 0.026072
v 0.386926 0.159784 0.016530
v 0.207207 0.130826 0.026072
v 0.207207 0.159784 0.016530
v 0.386926 0.098751 0.026072
v 0.386926 0.127709 0.016530
v 0.207207 0.098751 0.026072
v 0.207207 0.127709 0.016530
v 0.386926 0.066675 0.026072
v 0.386926 0.095633 0.016530
v 0.207207 0.066675 0.026072
v 0.207207 0.095633 0.016530
v 0.386926 0.034600 0.026072
v 0.386926 0.063558 0.016530
v 0.207207 0.034600 0.026072
v 0.207207 0.063558 0.016530
v 0.386926 0.002524 0.026072
v 0.386926 0.031483 0.016530
v 0.207207 0.002524 0.026072
v 0.207207 0.031483 0.016530
v 0.386926 -0.029551 0.026072
v 0.386926 -0.000593 0.016530
v 0.207207 -0.029551 0.026072
v 0.207207 -0.000593 0.016530
v 0.386926 -0.061626 0.026072
v 0.386926 -0.032668 0.016530
v 0.207207 -0.061626 0.026072
v 0.207207 -0.032668 0.016530
v 0.386925 -0.093702 0.026072
v 0.386926 -0.064744 0.016530
v 0.207207 -0.093702 0.026072
v 0.207207 -0.064744 0.016530
v 0.386925 -0.125777 0.026072
v 0.386925 -0.096819 0.016530
v 0.207207 -0.125777 0.026072
v 0.207207 -0.096819 0.016530
v 0.386925 -0.157852 0.026072
v 0.386925 -0.128894 0.016530
v 0.207207 -0.157852 0.026072
v 0.207207 -0.128894 0.016530
v -0.783591 0.132615 0.021384
v -0.204564 0.132615 0.021384
v -0.204564 -0.133876 0.021384
v -0.783591 -0.133876 0.021384
v -0.352064 0.013211 0.023649
v -0.352064 -0.014471 0.023649
v -0.338223 -0.020204 0.023649
v -0.338223 0.018944 0.023649
v -0.324382 0.013211 0.023649
v -0.324382 -0.014471 0.023649
v -0.318649 -0.000630 0.023649
v -0.357797 -0.000630 0.023649
v -0.338223 -0.000630 0.023649
v -0.345713 -0.018714 0.023649
v -0.345713 0.017454 0.023649
v -0.348397 -0.000630 0.023649
v -0.356307 0.006860 0.023649
v -0.320139 0.006860 0.023649
v -0.338223 0.009544 0.023649
v -0.346907 0.008054 0.023649
v -0.320139 -0.008121 0.023649
v -0.356307 -0.008121 0.023649
v -0.338223 -0.010805 0.023649
v -0.346907 -0.009315 0.023649
v -0.330732 0.017454 0.023649
v -0.330732 -0.018714 0.023649
v -0.328048 -0.000630 0.023649
v -0.329538 0.008054 0.023649
v -0.329538 -0.009315 0.023649
v -0.429419 0.090565 0.023649
v -0.429419 -0.091826 0.023649
v -0.338223 -0.129601 0.023649
v -0.338223 0.128340 0.023649
v -0.247027 0.090565 0.023649
v -0.247027 -0.091826 0.023649
v -0.209252 -0.000630 0.023649
v -0.467193 -0.000630 0.023649
v -0.387578 -0.119784 0.023649
v -0.387578 0.118523 0.023649
v -0.457376 0.048724 0.023649
v -0.219070 0.048724 0.023649
v -0.219070 -0.049985 0.023649
v -0.457376 -0.049985 0.023649
v -0.288868 0.118523 0.023649
v -0.288868 -0.119784 0.023649
v -0.354131 -0.016539 0.023649
v -0.359008 -0.009240 0.023649
v -0.329613 -0.021416 0.023649
v -0.338223 -0.023129 0.023649
v -0.322314 0.015278 0.023649
v -0.317437 0.007979 0.023649
v -0.360721 -0.000630 0.023649
v -0.346833 -0.021416 0.023649
v -0.359008 0.007979 0.023649
v -0.354131 0.015278 0.023649
v -0.346833 0.020155 0.023649
v -0.315724 -0.000630 0.023649
v -0.338223 0.021868 0.023649
v -0.329613 0.020155 0.023649
v -0.317437 -0.009240 0.023649
v -0.322314 -0.016539 0.023649
v -0.453210 -0.048259 0.023649
v -0.338223 -0.125091 0.023649
v -0.223236 0.046999 0.023649
v -0.462684 -0.000630 0.023649
v -0.385852 -0.115617 0.023649
v -0.426230 0.087377 0.023649
v -0.385852 0.114356 0.023649
v -0.213762 -0.000630 0.023649
v -0.338223 0.123830 0.023649
v -0.223236 -0.048259 0.023649
v -0.250216 -0.088637 0.023649
v -0.426230 -0.088637 0.023649
v -0.290594 -0.115617 0.023649
v -0.250216 0.087377 0.023649
v -0.453210 0.046999 0.023649
v -0.290594 0.114356 0.023649
v -0.345713 -0.018714 0.027951
v -0.352064 -0.014471 0.027951
v -0.330732 0.017454 0.027951
v -0.324382 0.013211 0.027951
v -0.320139 -0.008121 0.027951
v -0.324382 -0.014471 0.027951
v -0.330732 -0.018714 0.027951
v -0.338223 -0.020204 0.027951
v -0.356307 -0.008121 0.027951
v -0.357797 -0.000630 0.027951
v -0.356307 0.006860 0.027951
v -0.352064 0.013211 0.027951
v -0.320139 0.006860 0.027951
v -0.318649 -0.000630 0.027951
v -0.345713 0.017454 0.027951
v -0.338223 0.018944 0.027951
v -0.387578 -0.119784 0.027073
v -0.429419 -0.091826 0.027073
v -0.288868 0.118523 0.027073
v -0.247027 0.090565 0.027073
v -0.219070 -0.049985 0.027073
v -0.247027 -0.091826 0.027073
v -0.288868 -0.119784 0.027073
v -0.338223 -0.129601 0.027073
v -0.457376 -0.049985 0.027073
v -0.467193 -0.000630 0.027073
v -0.457376 0.048724 0.027073
v -0.429419 0.090565 0.027073
v -0.219070 0.048724 0.027073
v -0.209252 -0.000630 0.027073
v -0.387578 0.118523 0.027073
v -0.338223 0.128340 0.027073
v -0.354131 -0.016539 0.027073
v -0.453210 -0.048259 0.027073
v -0.329613 -0.021416 0.027073
v -0.338223 -0.125091 0.027073
v -0.322314 0.015278 0.027073
v -0.223236 0.046999 0.027073
v -0.462684 -0.000630 0.027073
v -0.385852 -0.115617 0.027073
v -0.359008 0.007979 0.027073
v -0.426230 0.087377 0.027073
v -0.385852 0.114356 0.027073
v -0.213762 -0.000630 0.027073
v -0.338223 0.123830 0.027073
v -0.329613 0.020155 0.027073
v -0.223236 -0.048259 0.027073
v -0.250216 -0.088637 0.027073
v -0.359008 -0.009240 0.027073
v -0.338223 -0.023129 0.027073
v -0.317437 0.007979 0.027073
v -0.360721 -0.000630 0.027073
v -0.346833 -0.021416 0.027073
v -0.354131 0.015278 0.027073
v -0.346833 0.020155 0.027073
v -0.315724 -0.000630 0.027073
v -0.338223 0.021868 0.027073
v -0.317437 -0.009240 0.027073
v -0.322314 -0.016539 0.027073
v -0.426230 -0.088637 0.027073
v -0.290594 -0.115617 0.027073
v -0.250216 0.087377 0.027073
v -0.453210 0.046999 0.027073
v -0.290594 0.114356 0.027073
v -0.346907 0.008054 0.033050
v -0.345713 0.017454 0.033050
v -0.338223 -0.000630 0.033050
v -0.348397 -0.000630 0.033050
v -0.352064 0.013211 0.033050
v -0.338223 -0.020204 0.033050
v -0.345713 -0.018714 0.033050
v -0.357797 -0.000630 0.033050
v -0.328048 -0.000630 0.033050
v -0.338223 -0.010805 0.033050
v -0.338223 0.009544 0.033050
v -0.338223 0.018944 0.033050
v -0.320139 0.006860 0.033050
v -0.318649 -0.000630 0.033050
v -0.356307 0.006860 0.033050
v -0.356307 -0.008121 0.033050
v -0.330732 -0.018714 0.033050
v -0.320139 -0.008121 0.033050
v -0.324382 -0.014471 0.033050
v -0.330732 0.017454 0.033050
v -0.324382 0.013211 0.033050
v -0.352064 -0.014471 0.033050
v -0.346907 -0.009315 0.033050
v -0.329538 0.008054 0.033050
v -0.329538 -0.009315 0.033050
v -0.335991 0.021271 0.023649
v -0.335991 0.125064 0.023649
v -0.335991 0.021271 0.026337
v -0.335991 0.125064 0.026337
v -0.340455 0.021271 0.023649
v -0.340455 0.125064 0.023649
v -0.340455 0.021271 0.026337
v -0.340455 0.125064 0.026337
v -0.352131 0.016434 0.023649
v -0.425524 0.089827 0.023649
v -0.352131 0.016434 0.026337
v -0.425524 0.089827 0.026337
v -0.355287 0.013278 0.023649
v -0.428680 0.086671 0.023649
v -0.355287 0.013278 0.026337
v -0.428680 0.086671 0.026337
v -0.360124 0.001602 0.023649
v -0.463917 0.001601 0.023649
v -0.360124 0.001602 0.026337
v -0.463917 0.001601 0.026337
v -0.360124 -0.002862 0.023649
v -0.463917 -0.002862 0.023649
v -0.360124 -0.002862 0.026337
v -0.463917 -0.002862 0.026337
v -0.355287 -0.014539 0.023649
v -0.428680 -0.087932 0.023649
v -0.355287 -0.014539 0.026337
v -0.428680 -0.087932 0.026337
v -0.352131 -0.017695 0.023649
v -0.425524 -0.091088 0.023649
v -0.352131 -0.017695 0.026337
v -0.425524 -0.091088 0.026337
v -0.340455 -0.022531 0.023649
v -0.340455 -0.126325 0.023649
v -0.340455 -0.022531 0.026337
v -0.340455 -0.126325 0.026337
v -0.335991 -0.022531 0.023649
v -0.335991 -0.126325 0.023649
v -0.335991 -0.022531 0.026337
v -0.335991 -0.126325 0.026337
v -0.324315 -0.017695 0.023649
v -0.250921 -0.091088 0.023649
v -0.324315 -0.017695 0.026337
v -0.250921 -0.091088 0.026337
v -0.321158 -0.014539 0.023649
v -0.247765 -0.087932 0.023649
v -0.321158 -0.014539 0.026337
v -0.247765 -0.087932 0.026337
v -0.316322 -0.002862 0.023649
v -0.212528 -0.002862 0.023649
v -0.316322 -0.002862 0.026337
v -0.212528 -0.002862 0.026337
v -0.316322 0.001602 0.023649
v -0.212528 0.001602 0.023649
v -0.316322 0.001602 0.026337
v -0.212528 0.001602 0.026337
v -0.321158 0.013278 0.023649
v -0.247765 0.086671 0.023649
v -0.321158 0.013278 0.026337
v -0.247765 0.086671 0.026337
v -0.324315 0.016434 0.023649
v -0.250922 0.089827 0.023649
v -0.324315 0.016434 0.026337
v -0.250922 0.089827 0.026337
v -0.663773 0.013211 0.023649
v -0.663773 -0.014471 0.023649
v -0.649933 -0.020204 0.023649
v -0.649933 0.018944 0.023649
v -0.636092 0.013211 0.023649
v -0.636092 -0.014471 0.023649
v -0.630358 -0.000630 0.023649
v -0.669506 -0.000630 0.023649
v -0.649933 -0.000630 0.023649
v -0.657423 -0.018714 0.023649
v -0.657423 0.017454 0.023649
v -0.660107 -0.000630 0.023649
v -0.668016 0.006860 0.023649
v -0.631848 0.006860 0.023649
v -0.649933 0.009544 0.023649
v -0.658617 0.008054 0.023649
v -0.631848 -0.008121 0.023649
v -0.668016 -0.008121 0.023649
v -0.649933 -0.010805 0.023649
v -0.658617 -0.009315 0.023649
v -0.642442 0.017454 0.023649
v -0.642442 -0.018714 0.023649
v -0.639758 -0.000630 0.023649
v -0.641248 0.008054 0.023649
v -0.641248 -0.009315 0.023649
v -0.741129 0.090565 0.023649
v -0.741129 -0.091826 0.023649
v -0.649933 -0.129601 0.023649
v -0.649933 0.128340 0.023649
v -0.558737 0.090565 0.023649
v -0.558737 -0.091826 0.023649
v -0.520962 -0.000630 0.023649
v -0.778903 -0.000630 0.023649
v -0.699287 -0.119784 0.023649
v -0.699287 0.118523 0.023649
v -0.769086 0.048724 0.023649
v -0.530779 0.048724 0.023649
v -0.530779 -0.049985 0.023649
v -0.769086 -0.049985 0.023649
v -0.600578 0.118523 0.023649
v -0.600578 -0.119784 0.023649
v -0.665841 -0.016539 0.023649
v -0.670718 -0.009240 0.023649
v -0.641323 -0.021416 0.023649
v -0.649933 -0.023129 0.023649
v -0.634024 0.015278 0.023649
v -0.629147 0.007979 0.023649
v -0.672431 -0.000630 0.023649
v -0.658542 -0.021416 0.023649
v -0.670718 0.007979 0.023649
v -0.665841 0.015278 0.023649
v -0.658542 0.020155 0.023649
v -0.627434 -0.000630 0.023649
v -0.649933 0.021868 0.023649
v -0.641323 0.020155 0.023649
v -0.629147 -0.009240 0.023649
v -0.634024 -0.016539 0.023649
v -0.764919 -0.048259 0.023649
v -0.649933 -0.125091 0.023649
v -0.534946 0.046999 0.023649
v -0.774393 -0.000630 0.023649
v -0.697562 -0.115617 0.023649
v -0.737940 0.087377 0.023649
v -0.697562 0.114356 0.023649
v -0.525472 -0.000630 0.023649
v -0.649933 0.123830 0.023649
v -0.534946 -0.048259 0.023649
v -0.561926 -0.088637 0.023649
v -0.737940 -0.088637 0.023649
v -0.602303 -0.115617 0.023649
v -0.561926 0.087377 0.023649
v -0.764919 0.046999 0.023649
v -0.602303 0.114356 0.023649
v -0.657423 -0.018714 0.027951
v -0.663773 -0.014471 0.027951
v -0.642442 0.017454 0.027951
v -0.636092 0.013211 0.027951
v -0.631848 -0.008121 0.027951
v -0.636092 -0.014471 0.027951
v -0.642442 -0.018714 0.027951
v -0.649933 -0.020204 0.027951
v -0.668016 -0.008121 0.027951
v -0.669506 -0.000630 0.027951
v -0.668016 0.006860 0.027951
v -0.663773 0.013211 0.027951
v -0.631848 0.006860 0.027951
v -0.630358 -0.000630 0.027951
v -0.657423 0.017454 0.027951
v -0.649933 0.018944 0.027951
v -0.699287 -0.119784 0.027073
v -0.741129 -0.091826 0.027073
v -0.600578 0.118523 0.027073
v -0.558737 0.090565 0.027073
v -0.530779 -0.049985 0.027073
v -0.558737 -0.091826 0.027073
v -0.600578 -0.119784 0.027073
v -0.649933 -0.129601 0.027073
v -0.769086 -0.049985 0.027073
v -0.778903 -0.000630 0.027073
v -0.769086 0.048724 0.027073
v -0.741129 0.090565 0.027073
v -0.530779 0.048724 0.027073
v -0.520962 -0.000630 0.027073
v -0.699287 0.118523 0.027073
v -0.649933 0.128340 0.027073
v -0.665841 -0.016539 0.027073
v -0.764919 -0.048259 0.027073
v -0.641323 -0.021416 0.027073
v -0.649933 -0.125091 0.027073
v -0.634024 0.015278 0.027073
v -0.534946 0.046999 0.027073
v -0.774393 -0.000630 0.027073
v -0.697562 -0.115617 0.027073
v -0.670718 0.007979 0.027073
v -0.737940 0.087377 0.027073
v -0.697562 0.114356 0.027073
v -0.525472 -0.000630 0.027073
v -0.649933 0.123830 0.027073
v -0.641323 0.020155 0.027073
v -0.534946 -0.048259 0.027073
v -0.561926 -0.088637 0.027073
v -0.670718 -0.009240 0.027073
v -0.649933 -0.023129 0.027073
v -0.629147 0.007979 0.027073
v -0.672431 -0.000630 0.027073
v -0.658542 -0.021416 0.027073
v -0.665841 0.015278 0.027073
v -0.658542 0.020155 0.027073
v -0.627434 -0.000630 0.027073
v -0.649933 0.021868 0.027073
v -0.629147 -0.009240 0.027073
v -0.634024 -0.016539 0.027073
v -0.737940 -0.088637 0.027073
v -0.602303 -0.115617 0.027073
v -0.561926 0.087377 0.027073
v -0.764919 0.046999 0.027073
v -0.602303 0.114356 0.027073
v -0.658617 0.008054 0.033050
v -0.657423 0.017454 0.033050
v -0.649933 -0.000630 0.033050
v -0.660107 -0.000630 0.033050
v -0.663773 0.013211 0.033050
v -0.649933 -0.020204 0.033050
v -0.657423 -0.018714 0.033050
v -0.669506 -0.000630 0.033050
v -0.639758 -0.000630 0.033050
v -0.649933 -0.010805 0.033050
v -0.649933 0.009544 0.033050
v -0.649933 0.018944 0.033050
v -0.631848 0.006860 0.033050
v -0.630358 -0.000630 0.033050
v -0.668016 0.006860 0.033050
v -0.668016 -0.008121 0.033050
v -0.642442 -0.018714 0.033050
v -0.631848 -0.008121 0.033050
v -0.636092 -0.014471 0.033050
v -0.642442 0.017454 0.033050
v -0.636092 0.013211 0.033050
v -0.663773 -0.014471 0.033050
v -0.658617 -0.009315 0.033050
v -0.641248 0.008054 0.033050
v -0.641248 -0.009315 0.033050
v -0.647701 0.021271 0.023649
v -0.647701 0.125064 0.023649
v -0.647701 0.021271 0.026337
v -0.647701 0.125064 0.026337
v -0.652164 0.021271 0.023649
v -0.652164 0.125064 0.023649
v -0.652164 0.021271 0.026337
v -0.652164 0.125064 0.026337
v -0.663841 0.016434 0.023649
v -0.737234 0.089827 0.023649
v -0.663841 0.016434 0.026337
v -0.737234 0.089827 0.026337
v -0.666997 0.013278 0.023649
v -0.740390 0.086671 0.023649
v -0.666997 0.013278 0.026337
v -0.740390 0.086671 0.026337
v -0.671834 0.001602 0.023649
v -0.775627 0.001601 0.023649
v -0.671834 0.001602 0.026337
v -0.775627 0.001601 0.026337
v -0.671834 -0.002862 0.023649
v -0.775627 -0.002862 0.023649
v -0.671834 -0.002862 0.026337
v -0.775627 -0.002862 0.026337
v -0.666997 -0.014539 0.023649
v -0.740390 -0.087932 0.023649
v -0.666997 -0.014539 0.026337
v -0.740390 -0.087932 0.026337
v -0.663841 -0.017695 0.023649
v -0.737234 -0.091088 0.023649
v -0.663841 -0.017695 0.026337
v -0.737234 -0.091088 0.026337
v -0.652164 -0.022531 0.023649
v -0.652164 -0.126325 0.023649
v -0.652164 -0.022531 0.026337
v -0.652164 -0.126325 0.026337
v -0.647700 -0.022531 0.023649
v -0.647700 -0.126325 0.023649
v -0.647700 -0.022531 0.026337
v -0.647700 -0.126325 0.026337
v -0.636024 -0.017695 0.023649
v -0.562631 -0.091088 0.023649
v -0.636024 -0.017695 0.026337
v -0.562631 -0.091088 0.026337
v -0.632868 -0.014539 0.023649
v -0.559475 -0.087932 0.023649
v -0.632868 -0.014539 0.026337
v -0.559475 -0.087932 0.026337
v -0.628031 -0.002862 0.023649
v -0.524238 -0.002862 0.023649
v -0.628031 -0.002862 0.026337
v -0.524238 -0.002862 0.026337
v -0.628031 0.001602 0.023649
v -0.524238 0.001602 0.023649
v -0.628031 0.001602 0.026337
v -0.524238 0.001602 0.026337
v -0.632868 0.013278 0.023649
v -0.559475 0.086671 0.023649
v -0.632868 0.013278 0.026337
v -0.559475 0.086671 0.026337
v -0.636024 0.016434 0.023649
v -0.562631 0.089827 0.023649
v -0.636024 0.016434 0.026337
v -0.562631 0.089827 0.026337
v -0.429419 0.090565 0.023649
v -0.429419 -0.091826 0.023649
v -0.338223 -0.129601 0.023649
v -0.338223 0.128340 0.023649
v -0.247027 0.090565 0.023649
v -0.247027 -0.091826 0.023649
v -0.209252 -0.000630 0.023649
v -0.467193 -0.000630 0.023649
v -0.387578 -0.119784 0.023649
v -0.387578 0.118523 0.023649
v -0.457376 0.048724 0.023649
v -0.219070 0.048724 0.023649
v -0.219070 -0.049985 0.023649
v -0.457376 -0.049985 0.023649
v -0.288868 0.118523 0.023649
v -0.288868 -0.119784 0.023649
v -0.558737 0.090565 0.023649
v -0.558737 -0.091826 0.023649
v -0.649933 -0.129601 0.023649
v -0.649933 0.128340 0.023649
v -0.741128 0.090565 0.023649
v -0.741128 -0.091826 0.023649
v -0.778903 -0.000630 0.023649
v -0.520962 -0.000630 0.023649
v -0.600578 -0.119784 0.023649
v -0.600578 0.118523 0.023649
v -0.530779 0.048724 0.023649
v -0.769086 0.048724 0.023649
v -0.769086 -0.049985 0.023649
v -0.530779 -0.049985 0.023649
v -0.699287 0.118523 0.023649
v -0.699287 -0.119784 0.023649
v -0.778903 0.128340 0.023649
v -0.778903 -0.129601 0.023649
v -0.209252 -0.129601 0.023649
v -0.209252 0.128340 0.023649
v -0.338223 -0.133876 0.023649
v -0.338223 0.132615 0.023649
v -0.204564 -0.000630 0.023649
v -0.649933 -0.133876 0.023649
v -0.649933 0.132615 0.023649
v -0.783591 -0.000630 0.023649
v -0.783591 0.132615 0.023649
v -0.783273 -0.133876 0.023649
v -0.204564 -0.133876 0.023649
v -0.204564 0.132615 0.023649
v -0.429419 0.090565 0.019425
v -0.429419 -0.091826 0.019425
v -0.338223 -0.129601 0.019425
v -0.338223 0.128340 0.019425
v -0.247027 0.090565 0.019425
v -0.247027 -0.091826 0.019425
v -0.209252 -0.000630 0.019425
v -0.467193 -0.000630 0.019425
v -0.387578 -0.119784 0.019425
v -0.387578 0.118523 0.019425
v -0.457376 0.048724 0.019425
v -0.219070 0.048724 0.019425
v -0.219070 -0.049985 0.019425
v -0.457376 -0.049985 0.019425
v -0.288868 0.118523 0.019425
v -0.288868 -0.119784 0.019425
v -0.558737 0.090565 0.019425
v -0.558737 -0.091826 0.019425
v -0.649933 -0.129601 0.019425
v -0.649933 0.128340 0.019425
v -0.741128 0.090565 0.019425
v -0.741128 -0.091826 0.019425
v -0.778903 -0.000630 0.019425
v -0.520962 -0.000630 0.019425
v -0.600578 -0.119784 0.019425
v -0.600578 0.118523 0.019425
v -0.530779 0.048724 0.019425
v -0.769086 0.048724 0.019425
v -0.769086 -0.049985 0.019425
v -0.530779 -0.049985 0.019425
v -0.699287 0.118523 0.019425
v -0.699287 -0.119784 0.019425
v -0.616233 -0.087779 0.019425
v -0.678263 -0.069027 0.019425
v -0.735386 -0.038425 0.019425
v -0.585447 -0.027341 0.019425
v -0.649933 -0.000630 0.019425
v -0.714418 0.026080 0.019425
v -0.564479 0.037164 0.019425
v -0.621602 0.067766 0.019425
v -0.683632 0.086519 0.019425
v -0.371923 -0.087779 0.019425
v -0.309892 -0.069027 0.019425
v -0.252770 -0.038425 0.019425
v -0.402708 -0.027341 0.019425
v -0.338223 -0.000630 0.019425
v -0.273738 0.026080 0.019425
v -0.423676 0.037164 0.019425
v -0.366554 0.067766 0.019425
v -0.304523 0.086519 0.019425
vn -0.0000 -0.0000 -1.0000
vn -1.0000 -0.0000 -0.0000
vn -0.0000 -1.0000 -0.0000
vn -0.0000 1.0000 -0.0000
vn -0.0000 -0.0000 1.0000
vn 1.0000 -0.0000 -0.0000
vn -0.0000 0.3130 0.9498
vn 0.5556 0.8315 -0.0000
vn -0.5556 0.8315 -0.0000
vn 0.8315 -0.5556 -0.0000
vn 0.1951 -0.9808 -0.0000
vn -0.9808 -0.1951 -0.0000
vn -0.1951 -0.9808 -0.0000
vn -0.8315 0.5556 -0.0000
vn 0.8315 0.5556 -0.0000
vn 0.9808 0.1951 -0.0000
vn -0.8315 -0.5556 -0.0000
vn 0.5556 -0.8315 -0.0000
vn -0.9808 0.1951 -0.0000
vn 0.9808 -0.1951 -0.0000
vn -0.1951 0.9808 -0.0000
vn -0.5556 -0.8315 -0.0000
vn 0.1951 0.9808 -0.0000
vn 0.1626 -0.2434 0.9562
vn -0.2871 0.0571 0.9562
vn 0.2434 -0.1626 0.9562
vn 0.2871 -0.0571 0.9562
vn 0.0571 0.2871 0.9562
vn 0.1626 0.2434 0.9562
vn -0.1626 -0.2434 0.9562
vn -0.0571 0.2871 0.9562
vn 0.2871 0.0571 0.9562
vn -0.1626 0.2434 0.9562
vn -0.2434 0.1626 0.9562
vn -0.0571 -0.2871 0.9562
vn -0.2871 -0.0571 0.9562
vn 0.2434 0.1626 0.9562
vn 0.0571 -0.2871 0.9562
vn -0.2434 -0.1626 0.9562
vn 0.7071 0.7071 -0.0000
vn -0.7071 -0.7071 -0.0000
vn 0.7071 -0.7071 -0.0000
vn -0.7071 0.7071 -0.0000
vt 0.360953 0.782966
vt 0.351866 0.782966
vt 0.351866 0.228921
vt 0.360953 0.228921
vt 0.083491 0.074402
vt 0.074403 0.074402
vt 0.074403 0.000000
vt 0.083490 0.000000
vt 0.346190 0.628447
vt 0.271788 0.628447
vt 0.271788 0.074402
vt 0.346191 0.074402
vt 0.074402 0.628447
vt 0.000000 0.628447
vt 0.000001 0.074402
vt 0.262716 0.074402
vt 0.262716 0.000000
vt 0.271788 0.000000
vt 0.262715 0.628447
vt 0.549251 0.014064
vt 0.540179 0.014064
vt 0.540179 0.000000
vt 0.549251 0.000000
vt 0.549251 0.782966
vt 0.540179 0.782966
vt 0.540179 0.228921
vt 0.549251 0.228921
vt 0.262715 0.843304
vt 0.271788 0.843304
vt 0.271788 0.857369
vt 0.262715 0.857369
vt 0.083490 0.857369
vt 0.262715 0.931771
vt 0.083490 0.931771
vt 0.271788 0.931771
vt 0.083490 0.843304
vt 0.360953 0.014064
vt 0.351866 0.014064
vt 0.351866 0.000000
vt 0.360953 0.000000
vt 0.346190 0.843304
vt 0.346190 0.857369
vt 0.000000 0.843304
vt 0.074402 0.843304
vt 0.074402 0.857369
vt 0.000000 0.857369
vt 0.540179 0.128525
vt 0.360953 0.128525
vt 0.360953 0.114461
vt 0.540179 0.114461
vt 0.083490 0.628447
vt 0.083490 0.728844
vt 0.074402 0.728844
vt 0.074402 0.742908
vt 0.083490 0.742908
vt 0.000000 0.728844
vt 0.000000 0.742908
vt 0.271788 0.728844
vt 0.346190 0.728844
vt 0.346190 0.742908
vt 0.271788 0.742908
vt 0.351866 0.128525
vt 0.351866 0.114461
vt 0.262715 0.728844
vt 0.262715 0.742908
vt 0.549251 0.128525
vt 0.549251 0.114461
vt 0.665879 0.657390
vt 0.766276 0.657390
vt 0.766276 0.668420
vt 0.665879 0.668420
vt 0.766276 0.858674
vt 0.665879 0.858675
vt 0.665879 0.847645
vt 0.766276 0.847645
vt 0.074402 0.931771
vt 0.098667 0.512879
vt 0.247538 0.512879
vt 0.247538 0.189416
vt 0.098668 0.189416
vt 0.788335 0.847645
vt 0.788335 0.668420
vt 0.888731 0.668420
vt 0.888731 0.847645
vt 0.777305 0.847645
vt 0.777305 0.668420
vt 0.888731 0.858674
vt 0.788335 0.858674
vt 0.654850 0.847645
vt 0.654850 0.668420
vt 0.777305 0.668420
vt 0.777305 0.847645
vt 0.899761 0.668420
vt 0.899761 0.847645
vt 0.788335 0.657390
vt 0.888731 0.657390
vt 0.600110 0.423860
vt 0.583078 0.423860
vt 0.583078 0.323463
vt 0.600110 0.323463
vt 0.549251 0.784302
vt 0.566284 0.784302
vt 0.566284 0.884698
vt 0.549251 0.884698
vt 0.702305 0.423860
vt 0.685273 0.423860
vt 0.685273 0.323463
vt 0.702305 0.323463
vt 0.899761 0.657390
vt 0.916793 0.657390
vt 0.916793 0.757787
vt 0.899761 0.757787
vt 0.549251 0.683905
vt 0.566284 0.683905
vt 0.566284 0.784302
vt 0.549251 0.784302
vt 0.899760 0.757787
vt 0.916793 0.757787
vt 0.916793 0.858183
vt 0.899760 0.858183
vt 0.527256 0.883363
vt 0.510224 0.883363
vt 0.510224 0.782966
vt 0.527256 0.782966
vt 0.493191 0.782966
vt 0.510224 0.782966
vt 0.510224 0.883363
vt 0.493191 0.883363
vt 0.916793 0.757787
vt 0.933826 0.757787
vt 0.933826 0.858183
vt 0.916793 0.858183
vt 0.933826 0.657390
vt 0.933826 0.757787
vt 0.563553 -0.000000
vt 0.563553 0.207608
vt 0.556402 0.207608
vt 0.556402 -0.000000
vt 0.563553 0.291754
vt 0.563553 0.499362
vt 0.556402 0.499362
vt 0.556402 0.291754
vt 0.823142 0.449782
vt 0.823142 0.657390
vt 0.738996 0.657390
vt 0.738996 0.449782
vt 0.738996 0.449782
vt 0.654850 0.657390
vt 0.654850 0.449782
vt 0.563553 0.291754
vt 0.563553 0.207608
vt 0.570704 0.207608
vt 0.570704 0.291754
vt 0.563553 0.499362
vt 0.570704 0.499362
vt 0.563553 0.583508
vt 0.556402 0.583508
vt 0.563553 0.000000
vt 0.570704 0.000000
vt 0.563553 0.583508
vt 0.570704 0.583508
vt 0.570704 0.449782
vt 0.654850 0.449782
vt 0.654850 0.657390
vt 0.570704 0.657390
vt 0.816095 0.000000
vt 0.816095 0.207608
vt 0.731948 0.207608
vt 0.731948 0.000000
vt 0.549251 0.583508
vt 0.549251 0.375900
vt 0.556402 0.375900
vt 0.556402 0.583508
vt 0.549251 0.291754
vt 0.549251 0.084146
vt 0.556402 0.084146
vt 0.556402 0.291754
vt 0.654850 0.864998
vt 0.570704 0.864998
vt 0.549251 0.000000
vt 0.556402 0.000000
vt 0.816095 0.415216
vt 0.731948 0.415216
vt 0.617143 0.323463
vt 0.634175 0.323463
vt 0.634175 0.423860
vt 0.617143 0.423860
vt 0.668240 0.323463
vt 0.685273 0.323463
vt 0.685273 0.423860
vt 0.668240 0.423860
vt 0.600110 0.323463
vt 0.617143 0.323463
vt 0.600110 0.423860
vt 0.651208 0.323463
vt 0.651208 0.423860
vt 0.719338 0.323463
vt 0.719338 0.423860
vt 0.702305 0.423860
vt 0.549251 0.583508
vt 0.566284 0.583508
vt 0.566284 0.683905
vt 0.549251 0.683905
vt 0.634175 0.423860
vt 0.532219 0.782966
vt 0.549251 0.782966
vt 0.549251 0.883363
vt 0.532219 0.883363
vt 0.950858 0.757787
vt 0.950858 0.858183
vt 0.933826 0.657390
vt 0.950858 0.657390
vt 0.950858 0.757787
vt 0.933826 0.757787
vt 0.351866 0.148871
vt 0.351866 0.472334
vt 0.346191 0.472334
vt 0.346191 0.148871
vt 0.351866 0.621204
vt 0.346191 0.621204
vt 0.351866 0.944668
vt 0.346191 0.944668
vt 0.351866 0.000000
vt 0.346191 0.000000
vt 0.648774 0.441892
vt 0.643853 0.441762
vt 0.644962 0.436188
vt 0.650537 0.437297
vt 0.641150 0.430483
vt 0.642829 0.425463
vt 0.647095 0.425463
vt 0.646071 0.430613
vt 0.638887 0.445280
vt 0.635870 0.442263
vt 0.634237 0.438321
vt 0.639257 0.439999
vt 0.650667 0.432376
vt 0.655687 0.434054
vt 0.655687 0.438321
vt 0.634237 0.434054
vt 0.639388 0.435079
vt 0.647095 0.446912
vt 0.642829 0.446912
vt 0.635870 0.430113
vt 0.638887 0.427096
vt 0.651037 0.445280
vt 0.654054 0.442263
vt 0.651037 0.427096
vt 0.654054 0.430113
vt 0.900322 0.138855
vt 0.900813 0.141326
vt 0.872702 0.141326
vt 0.873193 0.138855
vt 0.954949 0.084227
vt 0.957420 0.084719
vt 0.946662 0.110690
vt 0.944568 0.109290
vt 0.873193 0.002471
vt 0.872702 0.000000
vt 0.900813 -0.000000
vt 0.900322 0.002471
vt 0.846730 0.130568
vt 0.848130 0.128473
vt 0.926785 0.130568
vt 0.925385 0.128473
vt 0.828947 0.109290
vt 0.826852 0.110690
vt 0.816095 0.084719
vt 0.818565 0.084227
vt 0.816095 0.056607
vt 0.818565 0.057099
vt 0.926785 0.010758
vt 0.925385 0.012852
vt 0.826852 0.030636
vt 0.828947 0.032035
vt 0.848130 0.012852
vt 0.846730 0.010758
vt 0.828947 0.032035
vt 0.826852 0.030635
vt 0.946662 0.030636
vt 0.944568 0.032035
vt 0.957420 0.056607
vt 0.954949 0.057099
vt 0.655412 0.429205
vt 0.657289 0.433736
vt 0.642510 0.448515
vt 0.637979 0.446638
vt 0.651945 0.425738
vt 0.647414 0.423861
vt 0.632635 0.433736
vt 0.634512 0.429205
vt 0.637980 0.425738
vt 0.655412 0.443170
vt 0.651945 0.446638
vt 0.632635 0.438640
vt 0.642510 0.423861
vt 0.634512 0.443170
vt 0.657289 0.438640
vt 0.647414 0.448515
vt 0.824823 0.883838
vt 0.819673 0.885585
vt 0.819152 0.882512
vt 0.822911 0.880945
vt 0.809667 0.883160
vt 0.806139 0.879494
vt 0.808744 0.877757
vt 0.811430 0.880722
vt 0.828405 0.864695
vt 0.830203 0.869598
vt 0.827058 0.870278
vt 0.825741 0.866409
vt 0.820071 0.858737
vt 0.824860 0.860852
vt 0.823088 0.863467
vt 0.819481 0.861852
vt 0.804165 0.869349
vt 0.806185 0.864436
vt 0.808905 0.866148
vt 0.807332 0.869900
vt 0.814814 0.858675
vt 0.815495 0.861787
vt 0.804165 0.874646
vt 0.807286 0.873973
vt 0.828591 0.879785
vt 0.825772 0.878096
vt 0.830394 0.874782
vt 0.827233 0.874350
vt 0.809928 0.860681
vt 0.811774 0.863297
vt 0.814380 0.885549
vt 0.815156 0.882296
vt 0.436093 0.785437
vt 0.408964 0.785437
vt 0.408473 0.782967
vt 0.436584 0.782967
vt 0.490720 0.840065
vt 0.480339 0.815002
vt 0.482433 0.813602
vt 0.493191 0.839574
vt 0.408964 0.921821
vt 0.436093 0.921821
vt 0.436584 0.924292
vt 0.408473 0.924292
vt 0.383901 0.795819
vt 0.382501 0.793724
vt 0.461156 0.795819
vt 0.462556 0.793724
vt 0.364718 0.815002
vt 0.354336 0.840065
vt 0.351866 0.839574
vt 0.362623 0.813602
vt 0.354336 0.867194
vt 0.351866 0.867685
vt 0.461156 0.911440
vt 0.462556 0.913534
vt 0.364718 0.892257
vt 0.362623 0.893657
vt 0.383901 0.911440
vt 0.382501 0.913535
vt 0.364718 0.892257
vt 0.362623 0.893657
vt 0.480339 0.892257
vt 0.482433 0.893657
vt 0.490720 0.867193
vt 0.493191 0.867685
vt 0.630940 0.434127
vt 0.629303 0.430186
vt 0.630727 0.429230
vt 0.632620 0.433787
vt 0.611152 0.430191
vt 0.609533 0.434129
vt 0.607855 0.433795
vt 0.609731 0.429246
vt 0.630952 0.438393
vt 0.632635 0.438720
vt 0.629327 0.442337
vt 0.630758 0.443290
vt 0.614180 0.445352
vt 0.618117 0.446986
vt 0.617779 0.448665
vt 0.613224 0.446774
vt 0.622379 0.446988
vt 0.622710 0.448669
vt 0.622347 0.425540
vt 0.618087 0.425542
vt 0.617748 0.423864
vt 0.622677 0.423860
vt 0.611166 0.442334
vt 0.609739 0.443283
vt 0.626316 0.445356
vt 0.627266 0.446782
vt 0.609535 0.438394
vt 0.607855 0.438725
vt 0.626286 0.427171
vt 0.627235 0.425744
vt 0.614155 0.427176
vt 0.613200 0.425758
vt 0.579252 0.217027
vt 0.579252 0.189899
vt 0.581165 0.189899
vt 0.581165 0.217027
vt 0.753959 0.417512
vt 0.757759 0.421618
vt 0.755972 0.422742
vt 0.752775 0.419244
vt 0.575427 0.084334
vt 0.575427 0.056223
vt 0.577340 0.056223
vt 0.577340 0.084334
vt 0.579252 0.135642
vt 0.579252 0.108514
vt 0.581165 0.108514
vt 0.581165 0.135642
vt 0.757348 0.438001
vt 0.753421 0.442042
vt 0.752208 0.440223
vt 0.755652 0.436863
vt 0.575427 0.140557
vt 0.575427 0.112446
vt 0.577340 0.112446
vt 0.577340 0.140557
vt 0.579252 0.379798
vt 0.579252 0.352669
vt 0.581165 0.352669
vt 0.581165 0.379798
vt 0.759654 0.432778
vt 0.757421 0.432330
vt 0.579252 0.271284
vt 0.579252 0.244156
vt 0.581165 0.244156
vt 0.581165 0.271284
vt 0.575427 0.309225
vt 0.575427 0.281114
vt 0.577340 0.281114
vt 0.577340 0.309225
vt 0.575427 0.253002
vt 0.577340 0.253002
vt 0.731948 0.426693
vt 0.734080 0.421418
vt 0.735888 0.422549
vt 0.734058 0.427053
vt 0.579252 0.081385
vt 0.581165 0.081385
vt 0.575427 0.028111
vt 0.575427 0.000000
vt 0.577340 0.000000
vt 0.577340 0.028111
vt 0.579252 0.162770
vt 0.581165 0.162770
vt 0.748277 0.443945
vt 0.747924 0.442033
vt 0.579252 0.298413
vt 0.581165 0.298413
vt 0.575427 0.196780
vt 0.575427 0.168668
vt 0.577340 0.168668
vt 0.577340 0.196780
vt 0.759654 0.426937
vt 0.757515 0.427319
vt 0.579252 0.325541
vt 0.581165 0.325541
vt 0.575427 0.224891
vt 0.577340 0.224891
vt 0.742958 0.443935
vt 0.743352 0.441946
vt 0.579252 0.434054
vt 0.579252 0.406926
vt 0.581165 0.406926
vt 0.581165 0.434054
vt 0.575427 0.337337
vt 0.577340 0.337337
vt 0.737931 0.441724
vt 0.739109 0.440008
vt 0.575427 0.393559
vt 0.575427 0.365448
vt 0.577340 0.365448
vt 0.577340 0.393559
vt 0.738053 0.417382
vt 0.739279 0.419112
vt 0.734108 0.437639
vt 0.731975 0.432390
vt 0.734064 0.431935
vt 0.735879 0.436470
vt 0.579252 0.027128
vt 0.579252 0.000000
vt 0.581165 -0.000000
vt 0.581165 0.027128
vt 0.575427 0.449782
vt 0.575427 0.421671
vt 0.577340 0.421671
vt 0.577340 0.449782
vt 0.743250 0.415216
vt 0.748849 0.415261
vt 0.748452 0.417323
vt 0.743700 0.417275
vt 0.579252 0.054257
vt 0.581165 0.054257
vt 0.832394 0.433592
vt 0.826819 0.434701
vt 0.825710 0.429127
vt 0.830631 0.428997
vt 0.820744 0.425609
vt 0.821115 0.430890
vt 0.816095 0.432568
vt 0.817727 0.428626
vt 0.837544 0.432568
vt 0.835911 0.428626
vt 0.824686 0.423977
vt 0.817727 0.440776
vt 0.816095 0.436835
vt 0.821245 0.435810
vt 0.823008 0.440406
vt 0.820744 0.443793
vt 0.824686 0.445426
vt 0.828952 0.423977
vt 0.832894 0.425609
vt 0.828952 0.445426
vt 0.827928 0.440276
vt 0.832524 0.438513
vt 0.832894 0.443793
vt 0.837544 0.436835
vt 0.835911 0.440776
vt 0.884568 0.591108
vt 0.884568 0.649090
vt 0.883067 0.649090
vt 0.883067 0.591108
vt 0.880573 0.649090
vt 0.880573 0.591108
vt 0.879072 0.649090
vt 0.879072 0.591108
vt 0.887062 0.591108
vt 0.887062 0.649090
vt 0.582255 0.436548
vt 0.582255 0.439042
vt 0.580754 0.439042
vt 0.580754 0.436548
vt 0.569202 0.608445
vt 0.569202 0.605951
vt 0.570704 0.605951
vt 0.570704 0.608445
vt 0.913247 0.858183
vt 0.913247 0.916166
vt 0.911745 0.916166
vt 0.911745 0.858183
vt 0.909252 0.916166
vt 0.909252 0.858183
vt 0.907751 0.916166
vt 0.907751 0.858183
vt 0.915740 0.858183
vt 0.915740 0.916166
vt 0.582255 0.447288
vt 0.582255 0.449782
vt 0.580754 0.449782
vt 0.580754 0.447288
vt 0.580754 0.436548
vt 0.580754 0.434055
vt 0.582255 0.434055
vt 0.582255 0.436548
vt 0.868588 0.591108
vt 0.868588 0.649090
vt 0.867087 0.649090
vt 0.867087 0.591108
vt 0.864593 0.649090
vt 0.864593 0.591108
vt 0.863092 0.649090
vt 0.863092 0.591108
vt 0.871082 0.591108
vt 0.871082 0.649090
vt 0.569202 0.588496
vt 0.569202 0.590989
vt 0.567701 0.590989
vt 0.567701 0.588496
vt 0.569202 0.593483
vt 0.569202 0.595977
vt 0.567701 0.595977
vt 0.567701 0.593483
vt 0.887062 0.649090
vt 0.887062 0.591108
vt 0.888563 0.591108
vt 0.888563 0.649090
vt 0.891057 0.591108
vt 0.891057 0.649090
vt 0.892558 0.591108
vt 0.892558 0.649090
vt 0.895052 0.591108
vt 0.895052 0.649090
vt 0.569202 0.600964
vt 0.569202 0.598470
vt 0.570704 0.598470
vt 0.570704 0.600964
vt 0.569202 0.603457
vt 0.569202 0.605951
vt 0.567701 0.605951
vt 0.567701 0.603457
vt 0.719338 0.381446
vt 0.719338 0.323463
vt 0.720839 0.323463
vt 0.720839 0.381446
vt 0.723333 0.323463
vt 0.723333 0.381446
vt 0.724834 0.323463
vt 0.724834 0.381446
vt 0.727328 0.323463
vt 0.727328 0.381446
vt 0.567701 0.603457
vt 0.567701 0.600964
vt 0.569202 0.600964
vt 0.569202 0.603457
vt 0.570704 0.583508
vt 0.570704 0.586002
vt 0.569202 0.586002
vt 0.569202 0.583508
vt 0.833626 0.649090
vt 0.833626 0.591108
vt 0.835127 0.591108
vt 0.835127 0.649090
vt 0.837621 0.591108
vt 0.837621 0.649090
vt 0.839122 0.591108
vt 0.839122 0.649090
vt 0.831132 0.649090
vt 0.831132 0.591108
vt 0.569202 0.598470
vt 0.569202 0.600964
vt 0.567701 0.600964
vt 0.567701 0.598470
vt 0.569202 0.583508
vt 0.569202 0.586002
vt 0.567701 0.586002
vt 0.567701 0.583508
vt 0.900548 0.591108
vt 0.900548 0.649090
vt 0.899047 0.649090
vt 0.899047 0.591108
vt 0.896553 0.649090
vt 0.896553 0.591108
vt 0.895052 0.649090
vt 0.895052 0.591108
vt 0.903042 0.591108
vt 0.903042 0.649090
vt 0.570704 0.590989
vt 0.570704 0.593483
vt 0.569202 0.593483
vt 0.569202 0.590989
vt 0.570704 0.595977
vt 0.569202 0.598470
vt 0.908538 0.591108
vt 0.908538 0.649090
vt 0.907037 0.649090
vt 0.907037 0.591108
vt 0.904543 0.649090
vt 0.904543 0.591108
vt 0.903042 0.649090
vt 0.903042 0.591108
vt 0.911031 0.591108
vt 0.911031 0.649090
vt 0.582255 0.441536
vt 0.582255 0.444029
vt 0.580754 0.444029
vt 0.580754 0.441536
vt 0.569202 0.603457
vt 0.570704 0.600964
vt 0.570704 0.603457
vt 0.662887 0.437526
vt 0.664890 0.433030
vt 0.669616 0.436188
vt 0.666458 0.440913
vt 0.676345 0.434849
vt 0.680340 0.438321
vt 0.678707 0.442263
vt 0.674341 0.439345
vt 0.663541 0.427096
vt 0.667482 0.425463
vt 0.671749 0.425463
vt 0.668277 0.429459
vt 0.670954 0.442917
vt 0.667482 0.446912
vt 0.663540 0.445280
vt 0.675691 0.427096
vt 0.672773 0.431462
vt 0.658891 0.434054
vt 0.660524 0.430113
vt 0.678707 0.430113
vt 0.680340 0.434054
vt 0.658891 0.438321
vt 0.660524 0.442263
vt 0.675690 0.445280
vt 0.671749 0.446912
vt 0.900321 0.280180
vt 0.900813 0.282651
vt 0.872702 0.282651
vt 0.873193 0.280180
vt 0.954949 0.225553
vt 0.957420 0.226044
vt 0.946662 0.252016
vt 0.944568 0.250616
vt 0.873193 0.143797
vt 0.872702 0.141326
vt 0.900813 0.141326
vt 0.900322 0.143796
vt 0.846730 0.271893
vt 0.848130 0.269799
vt 0.926784 0.271893
vt 0.925385 0.269799
vt 0.828947 0.250616
vt 0.826852 0.252016
vt 0.816095 0.226044
vt 0.818565 0.225553
vt 0.816095 0.197933
vt 0.818565 0.198424
vt 0.926785 0.152083
vt 0.925385 0.154178
vt 0.826852 0.171961
vt 0.828947 0.173361
vt 0.848130 0.154178
vt 0.846730 0.152083
vt 0.828947 0.173361
vt 0.826852 0.171961
vt 0.946662 0.171961
vt 0.944568 0.173361
vt 0.957420 0.197933
vt 0.954949 0.198424
vt 0.672067 0.448514
vt 0.667163 0.448514
vt 0.659165 0.429205
vt 0.662633 0.425738
vt 0.676598 0.446638
vt 0.680066 0.443170
vt 0.676598 0.425738
vt 0.680066 0.429205
vt 0.681942 0.433736
vt 0.659165 0.443170
vt 0.657289 0.438640
vt 0.672068 0.423861
vt 0.681942 0.438640
vt 0.667164 0.423861
vt 0.662633 0.446638
vt 0.657289 0.433736
vt 0.804002 0.416844
vt 0.808767 0.419342
vt 0.806912 0.421829
vt 0.803235 0.420234
vt 0.813771 0.428139
vt 0.813541 0.433046
vt 0.810515 0.432471
vt 0.810852 0.428505
vt 0.787608 0.427735
vt 0.789639 0.422774
vt 0.792397 0.424505
vt 0.790810 0.428288
vt 0.789641 0.438031
vt 0.787608 0.433089
vt 0.790774 0.432387
vt 0.792292 0.436180
vt 0.808360 0.441604
vt 0.803582 0.443745
vt 0.802832 0.440660
vt 0.806470 0.439099
vt 0.793401 0.441803
vt 0.795127 0.439087
vt 0.811838 0.437778
vt 0.809169 0.436240
vt 0.798414 0.416831
vt 0.799113 0.420094
vt 0.793412 0.418945
vt 0.795306 0.421619
vt 0.798307 0.443816
vt 0.798836 0.440661
vt 0.812404 0.423165
vt 0.809573 0.424818
vt 0.667702 0.967965
vt 0.686885 0.987148
vt 0.685485 0.989242
vt 0.665608 0.969365
vt 0.667702 0.890710
vt 0.657321 0.915773
vt 0.654850 0.915282
vt 0.665608 0.889310
vt 0.783323 0.890710
vt 0.764140 0.871527
vt 0.765540 0.869432
vt 0.785417 0.889310
vt 0.711948 0.997529
vt 0.711457 1.000000
vt 0.657321 0.942902
vt 0.654850 0.943393
vt 0.739077 0.997529
vt 0.764140 0.987148
vt 0.765540 0.989242
vt 0.739568 1.000000
vt 0.783323 0.967965
vt 0.785417 0.969364
vt 0.739077 0.861145
vt 0.739568 0.858675
vt 0.793704 0.942901
vt 0.796175 0.943393
vt 0.793704 0.915773
vt 0.796175 0.915281
vt 0.793704 0.942901
vt 0.796175 0.943393
vt 0.711948 0.861145
vt 0.711457 0.858675
vt 0.686885 0.871527
vt 0.685485 0.869433
vt 0.606173 0.438405
vt 0.606174 0.434139
vt 0.607855 0.433802
vt 0.607855 0.438736
vt 0.589396 0.427161
vt 0.586385 0.430169
vt 0.584965 0.429216
vt 0.588449 0.425741
vt 0.604544 0.442345
vt 0.605972 0.443294
vt 0.601528 0.445359
vt 0.602482 0.446789
vt 0.586385 0.442312
vt 0.589391 0.445335
vt 0.588433 0.446755
vt 0.584957 0.443258
vt 0.593323 0.446977
vt 0.592982 0.448656
vt 0.601529 0.427177
vt 0.597591 0.425542
vt 0.597924 0.423862
vt 0.602480 0.425752
vt 0.584761 0.438367
vt 0.583080 0.438697
vt 0.597586 0.446987
vt 0.597914 0.448670
vt 0.584756 0.434104
vt 0.583078 0.433768
vt 0.604543 0.430196
vt 0.605968 0.429242
vt 0.593330 0.425537
vt 0.592995 0.423860
vt 0.583078 0.217027
vt 0.583078 0.244156
vt 0.581165 0.244156
vt 0.581165 0.217027
vt 0.785221 0.431831
vt 0.785569 0.427046
vt 0.787608 0.426706
vt 0.787279 0.432217
vt 0.579252 0.365448
vt 0.579252 0.393559
vt 0.577340 0.393559
vt 0.577340 0.365448
vt 0.583078 0.298412
vt 0.583078 0.325541
vt 0.581165 0.325541
vt 0.581165 0.298412
vt 0.776544 0.417394
vt 0.771730 0.417231
vt 0.771372 0.415216
vt 0.777023 0.415247
vt 0.579252 0.309225
vt 0.579252 0.337336
vt 0.577340 0.337336
vt 0.577340 0.309225
vt 0.583078 0.054257
vt 0.583078 0.081385
vt 0.581165 0.081385
vt 0.581165 0.054257
vt 0.780856 0.419252
vt 0.782001 0.417658
vt 0.583078 0.162770
vt 0.583078 0.189899
vt 0.581165 0.189899
vt 0.581165 0.162770
vt 0.579252 0.140557
vt 0.579252 0.168668
vt 0.577340 0.168668
vt 0.577340 0.140557
vt 0.579252 0.196780
vt 0.577340 0.196780
vt 0.766953 0.439890
vt 0.771370 0.441738
vt 0.771012 0.443816
vt 0.765807 0.441675
vt 0.583078 0.352669
vt 0.581165 0.352669
vt 0.579252 0.421671
vt 0.579252 0.449782
vt 0.577340 0.449782
vt 0.577340 0.421671
vt 0.583078 0.271284
vt 0.581165 0.271284
vt 0.767255 0.419103
vt 0.766002 0.417189
vt 0.583078 0.135642
vt 0.581165 0.135642
vt 0.579252 0.253002
vt 0.579252 0.281114
vt 0.577340 0.281114
vt 0.577340 0.253002
vt 0.784004 0.422644
vt 0.785718 0.421539
vt 0.583078 0.108514
vt 0.581165 0.108514
vt 0.579252 0.224891
vt 0.763682 0.422546
vt 0.761842 0.421357
vt 0.583078 -0.000000
vt 0.583078 0.027128
vt 0.581165 0.027128
vt 0.581165 0.000000
vt 0.579252 0.112445
vt 0.577340 0.112445
vt 0.761778 0.427067
vt 0.759654 0.426686
vt 0.579252 0.056223
vt 0.579252 0.084334
vt 0.577340 0.084334
vt 0.577340 0.056223
vt 0.776122 0.441709
vt 0.776610 0.443749
vt 0.761749 0.431948
vt 0.763570 0.436451
vt 0.761816 0.437664
vt 0.759654 0.432402
vt 0.583078 0.406926
vt 0.583078 0.434054
vt 0.581165 0.434054
vt 0.581165 0.406926
vt 0.579252 0.000000
vt 0.579252 0.028111
vt 0.577340 0.028111
vt 0.577340 0.000000
vt 0.780451 0.439812
vt 0.783653 0.436358
vt 0.785453 0.437387
vt 0.781703 0.441482
vt 0.583078 0.379798
vt 0.581165 0.379798
vt 0.687941 0.437743
vt 0.692667 0.434585
vt 0.695825 0.439311
vt 0.691328 0.441315
vt 0.701759 0.440661
vt 0.699396 0.435924
vt 0.703392 0.432452
vt 0.703391 0.436719
vt 0.683575 0.440660
vt 0.686592 0.443677
vt 0.698742 0.443677
vt 0.698742 0.425494
vt 0.701759 0.428511
vt 0.697393 0.431428
vt 0.694005 0.427857
vt 0.694800 0.423861
vt 0.690534 0.423861
vt 0.694800 0.445310
vt 0.690534 0.445310
vt 0.686592 0.425494
vt 0.689509 0.429860
vt 0.685938 0.433247
vt 0.683575 0.428510
vt 0.681942 0.436719
vt 0.681942 0.432452
vt 0.804165 0.858675
vt 0.804165 0.916657
vt 0.802664 0.916657
vt 0.802664 0.858675
vt 0.800170 0.916657
vt 0.800170 0.858675
vt 0.798669 0.916657
vt 0.798669 0.858675
vt 0.796175 0.916657
vt 0.796175 0.858675
vt 0.570704 0.586002
vt 0.570704 0.588496
vt 0.569202 0.588496
vt 0.569202 0.586002
vt 0.831132 0.591108
vt 0.831132 0.649090
vt 0.829631 0.649090
vt 0.829631 0.591108
vt 0.827137 0.649090
vt 0.827137 0.591108
vt 0.825636 0.649090
vt 0.825636 0.591108
vt 0.823142 0.649090
vt 0.823142 0.591108
vt 0.582255 0.439042
vt 0.582255 0.441536
vt 0.580754 0.441536
vt 0.580754 0.439042
vt 0.579252 0.436548
vt 0.580754 0.434055
vt 0.872583 0.591108
vt 0.872583 0.649090
vt 0.875077 0.591108
vt 0.875077 0.649090
vt 0.876578 0.591108
vt 0.876578 0.649090
vt 0.879072 0.591108
vt 0.570704 0.588496
vt 0.570704 0.590989
vt 0.569202 0.590989
vt 0.569202 0.588496
vt 0.570704 0.593483
vt 0.841616 0.649090
vt 0.841616 0.591108
vt 0.843117 0.591108
vt 0.843117 0.649090
vt 0.845611 0.591108
vt 0.845611 0.649090
vt 0.847112 0.591108
vt 0.847112 0.649090
vt 0.839122 0.649090
vt 0.839122 0.591108
vt 0.580754 0.446523
vt 0.580754 0.444029
vt 0.582255 0.444029
vt 0.582255 0.446523
vt 0.580754 0.439042
vt 0.580754 0.441536
vt 0.579252 0.441536
vt 0.579252 0.439042
vt 0.855102 0.649090
vt 0.855102 0.591108
vt 0.856604 0.591108
vt 0.856604 0.649090
vt 0.859097 0.591108
vt 0.859097 0.649090
vt 0.860599 0.591108
vt 0.860599 0.649090
vt 0.863092 0.591108
vt 0.863092 0.649090
vt 0.579252 0.436548
vt 0.580754 0.436548
vt 0.580754 0.444794
vt 0.580754 0.447288
vt 0.579252 0.447288
vt 0.579252 0.444794
vt 0.847112 0.649090
vt 0.847112 0.591108
vt 0.848614 0.591108
vt 0.848614 0.649090
vt 0.851107 0.591108
vt 0.851107 0.649090
vt 0.852608 0.591108
vt 0.852608 0.649090
vt 0.855102 0.591108
vt 0.855102 0.649090
vt 0.567701 0.608445
vt 0.567701 0.605951
vt 0.569202 0.605951
vt 0.569202 0.608445
vt 0.580754 0.447288
vt 0.580754 0.449782
vt 0.579252 0.449782
vt 0.905257 0.858183
vt 0.905257 0.916166
vt 0.903756 0.916166
vt 0.903756 0.858183
vt 0.901262 0.916166
vt 0.901262 0.858183
vt 0.899761 0.916166
vt 0.899761 0.858183
vt 0.907750 0.858183
vt 0.907750 0.916166
vt 0.569202 0.590989
vt 0.569202 0.593483
vt 0.567701 0.593483
vt 0.567701 0.590989
vt 0.567701 0.598470
vt 0.727328 0.381446
vt 0.727328 0.439428
vt 0.725826 0.439428
vt 0.725826 0.381446
vt 0.723333 0.439428
vt 0.723333 0.381446
vt 0.721831 0.439428
vt 0.721831 0.381446
vt 0.719338 0.439428
vt 0.719338 0.381446
vt 0.580754 0.442301
vt 0.579252 0.444794
vt 0.579252 0.442301
vt 0.569202 0.603457
vt 0.570704 0.603457
vt 0.570704 0.605951
vt 0.629942 0.182234
vt 0.629942 0.141229
vt 0.657513 0.146713
vt 0.657513 0.176750
vt 0.685084 0.141229
vt 0.685084 0.182234
vt 0.708458 0.125611
vt 0.708458 0.197852
vt 0.606568 0.197852
vt 0.606568 0.125611
vt 0.590950 0.221226
vt 0.590950 0.102237
vt 0.724076 0.102237
vt 0.724076 0.221226
vt 0.585466 0.248797
vt 0.585466 0.074666
vt 0.729560 0.074666
vt 0.729560 0.248797
vt 0.606568 0.023721
vt 0.585466 0.002619
vt 0.657513 0.002619
vt 0.629942 0.008103
vt 0.708458 0.023721
vt 0.729560 0.002619
vt 0.724076 0.047095
vt 0.590950 0.047095
vt 0.708458 0.299742
vt 0.724076 0.276368
vt 0.729560 0.320844
vt 0.606568 0.299742
vt 0.629942 0.315360
vt 0.657513 0.320844
vt 0.585466 0.320844
vt 0.731948 0.323463
vt 0.657513 0.323463
vt 0.590950 0.276368
vt 0.685084 0.315360
vt 0.685084 0.008103
vt 0.657513 -0.000000
vt 0.731948 0.000178
vt 0.583078 0.074666
vt 0.583078 -0.000000
vt 0.583078 0.323463
vt 0.731948 0.074666
vt 0.583078 0.248797
vt 0.731948 0.248797
vt 0.575427 0.253002
vt 0.573067 0.281114
vt 0.573067 0.253002
vt 0.573067 0.056223
vt 0.573067 0.084334
vt 0.570707 0.084334
vt 0.570707 0.056223
vt 0.575427 0.196780
vt 0.575427 0.224891
vt 0.573067 0.224891
vt 0.573067 0.196780
vt 0.573067 0.000000
vt 0.573067 0.028111
vt 0.570707 0.028111
vt 0.570707 0.000000
vt 0.575427 0.028111
vt 0.575427 0.056223
vt 0.573067 0.056223
vt 0.573067 0.028111
vt 0.575427 0.084334
vt 0.573067 0.084334
vt 0.573066 0.168668
vt 0.573066 0.196780
vt 0.570706 0.196780
vt 0.570706 0.168668
vt 0.575427 0.309225
vt 0.575427 0.337337
vt 0.573067 0.337337
vt 0.573067 0.309225
vt 0.573066 0.224891
vt 0.573065 0.253002
vt 0.570705 0.253002
vt 0.570705 0.224891
vt 0.575427 0.140557
vt 0.575427 0.168668
vt 0.573067 0.168668
vt 0.573067 0.140557
vt 0.573064 0.393559
vt 0.573064 0.421671
vt 0.570704 0.421671
vt 0.570704 0.393559
vt 0.573064 0.365448
vt 0.570704 0.365448
vt 0.575427 0.112446
vt 0.573067 0.112446
vt 0.573066 0.112446
vt 0.573066 0.140557
vt 0.570706 0.140557
vt 0.570706 0.112446
vt 0.575427 -0.000000
vt 0.573067 -0.000000
vt 0.573065 0.281114
vt 0.573065 0.309225
vt 0.570705 0.309225
vt 0.570705 0.281114
vt 0.575427 0.393559
vt 0.575427 0.421671
vt 0.573067 0.421671
vt 0.573067 0.393559
vt 0.573065 0.337337
vt 0.570705 0.337337
vt 0.573064 0.449782
vt 0.575427 0.365448
vt 0.573067 0.365448
vt 0.575427 0.449782
vt 0.573067 0.449782
vt 0.833900 0.480418
vt 0.853778 0.460540
vt 0.849729 0.492483
vt 0.823142 0.506389
vt 0.879750 0.449782
vt 0.886198 0.482202
vt 0.907861 0.449782
vt 0.923826 0.477744
vt 0.933832 0.460540
vt 0.953710 0.480418
vt 0.853243 0.528513
vt 0.823142 0.534500
vt 0.893805 0.520445
vt 0.934367 0.512376
vt 0.964468 0.506389
vt 0.863785 0.563146
vt 0.833900 0.560472
vt 0.901412 0.558687
vt 0.937881 0.548407
vt 0.964468 0.534501
vt 0.879749 0.591108
vt 0.853778 0.580350
vt 0.907861 0.591108
vt 0.933832 0.580350
vt 0.953710 0.560472
vt 0.957420 0.339258
vt 0.930833 0.325352
vt 0.926785 0.293409
vt 0.946662 0.313287
vt 0.894364 0.315072
vt 0.900813 0.282651
vt 0.856737 0.310613
vt 0.872702 0.282651
vt 0.826852 0.313287
vt 0.846730 0.293409
vt 0.957420 0.367370
vt 0.927319 0.361382
vt 0.886757 0.353314
vt 0.846195 0.345246
vt 0.816095 0.339258
vt 0.946662 0.393341
vt 0.916778 0.396015
vt 0.879150 0.391556
vt 0.842681 0.381276
vt 0.816095 0.367370
vt 0.926785 0.413219
vt 0.900813 0.423977
vt 0.872702 0.423977
vt 0.846730 0.413219
vt 0.826852 0.393341
s 0
usemtl M_MetalGrate
f 22/1/1 2/2/1 12/3/1 21/4/1
f 51/5/2 18/6/2 2/7/2 22/8/2
f 3/9/3 7/10/3 5/11/3 1/12/3
f 17/13/4 12/14/4 2/15/4 18/6/4
f 5/11/2 52/16/2 9/17/2 1/18/2
f 7/10/5 50/19/5 52/16/5 5/11/5
f 34/20/1 31/21/1 11/22/1 10/23/1
f 1/24/1 9/25/1 14/26/1 3/27/1
f 29/28/5 30/29/5 8/30/5 15/31/5
f 42/32/6 15/31/6 11/33/6 41/34/6
f 10/35/6 11/33/6 15/31/6 8/30/6
f 46/36/5 29/28/5 15/31/5 42/32/5
f 45/37/1 32/38/1 4/39/1 41/40/1
f 30/29/3 34/41/3 10/42/3 8/30/3
f 32/43/4 33/44/4 16/45/4 4/46/4
f 39/47/1 48/48/1 43/49/1 27/50/1
f 17/13/5 49/51/5 47/52/5 35/53/5
f 27/50/1 43/49/1 45/37/1 31/21/1
f 14/26/1 21/4/1 48/48/1 39/47/1
f 24/54/5 44/55/5 46/36/5 33/44/5
f 35/53/5 47/52/5 44/55/5 24/54/5
f 31/21/1 45/37/1 41/40/1 11/22/1
f 40/56/4 35/53/4 24/54/4 28/57/4
f 38/58/3 36/59/3 26/60/3 25/61/3
f 48/48/1 40/62/1 28/63/1 43/49/1
f 47/52/5 37/64/5 23/65/5 44/55/5
f 37/64/5 38/58/5 25/61/5 23/65/5
f 36/66/1 39/47/1 27/50/1 26/67/1
f 28/57/4 24/54/4 33/44/4 32/43/4
f 25/61/3 26/60/3 34/41/3 30/29/3
f 43/49/1 28/63/1 32/38/1 45/37/1
f 50/68/4 37/69/4 59/70/4 54/71/4
f 23/65/5 25/61/5 30/29/5 29/28/5
f 26/67/1 27/50/1 31/21/1 34/20/1
f 3/27/1 14/26/1 39/47/1 36/66/1
f 50/19/5 7/10/5 38/58/5 37/64/5
f 47/72/3 49/73/3 53/74/3 60/75/3
f 21/4/1 12/3/1 40/62/1 48/48/1
f 7/10/3 3/9/3 36/59/3 38/58/3
f 12/14/4 17/13/4 35/53/4 40/56/4
f 33/44/5 46/36/5 42/32/5 16/45/5
f 16/45/6 42/32/6 41/34/6 4/76/6
f 52/16/2 51/5/2 22/8/2 9/17/2
f 9/25/1 22/1/1 21/4/1 14/26/1
f 18/6/5 51/5/5 49/51/5 17/13/5
f 13/77/5 19/78/5 50/19/5 49/51/5
f 20/79/5 6/80/5 51/5/5 52/16/5
f 19/78/5 20/79/5 52/16/5 50/19/5
f 6/80/5 13/77/5 49/51/5 51/5/5
f 58/81/5 57/82/5 55/83/5 56/84/5
f 53/74/5 54/71/5 59/70/5 60/75/5
f 44/85/6 23/86/6 57/82/6 58/81/6
f 46/87/3 44/88/3 58/81/3 56/84/3
f 49/89/6 50/90/6 54/71/6 53/74/6
f 37/91/2 47/92/2 60/75/2 59/70/2
f 29/93/2 46/94/2 56/84/2 55/83/2
f 23/95/4 29/96/4 55/83/4 57/82/4
f 61/97/7 62/98/7 64/99/7 63/100/7
f 65/101/7 66/102/7 68/103/7 67/104/7
f 69/105/7 70/106/7 72/107/7 71/108/7
f 73/109/7 74/110/7 76/111/7 75/112/7
f 77/113/7 78/114/7 80/115/7 79/116/7
f 81/117/7 82/118/7 84/119/7 83/120/7
f 85/121/7 86/122/7 88/123/7 87/124/7
f 89/125/7 90/126/7 92/127/7 91/128/7
f 93/129/7 94/130/7 96/131/7 95/132/7
f 97/110/7 98/133/7 100/134/7 99/111/7
f 102/135/1 103/136/1 111/137/1 110/138/1
f 104/139/5 101/140/5 109/141/5 112/142/5
f 110/143/6 111/144/6 112/145/6 109/146/6
f 114/147/2 113/145/2 116/148/2 115/149/2
f 105/150/4 108/151/4 116/152/4 113/153/4
f 106/154/5 105/150/5 113/153/5 114/155/5
f 103/136/4 104/139/4 112/142/4 111/137/4
f 101/140/3 102/156/3 110/157/3 109/141/3
f 108/151/1 107/158/1 115/159/1 116/152/1
f 107/160/3 106/154/3 114/155/3 115/161/3
f 106/162/6 107/163/6 108/164/6 105/165/6
f 101/166/2 104/167/2 103/168/2 102/169/2
f 118/170/1 119/171/1 123/172/1 122/173/1
f 120/174/5 117/175/5 121/176/5 124/177/5
f 122/164/6 123/178/6 124/179/6 121/165/6
f 119/171/4 120/174/4 124/177/4 123/172/4
f 117/175/3 118/180/3 122/181/3 121/176/3
f 117/167/2 120/182/2 119/183/2 118/168/2
f 125/184/7 126/185/7 128/186/7 127/187/7
f 129/188/7 130/189/7 132/190/7 131/191/7
f 133/192/7 134/193/7 136/187/7 135/194/7
f 137/195/7 138/188/7 140/191/7 139/196/7
f 141/108/7 142/197/7 144/198/7 143/199/7
f 145/200/7 146/201/7 148/202/7 147/203/7
f 149/196/7 150/204/7 152/185/7 151/195/7
f 153/205/7 154/206/7 156/207/7 155/208/7
f 157/130/7 158/209/7 160/210/7 159/131/7
f 161/211/7 162/212/7 164/213/7 163/214/7
f 20/215/4 19/216/4 167/217/4 168/218/4
f 19/216/2 13/219/2 166/220/2 167/217/2
f 13/219/3 6/221/3 165/222/3 166/220/3
f 6/223/6 20/215/6 168/218/6 165/224/6
f 188/225/1 180/226/1 177/227/1 187/228/1
f 192/229/1 182/230/1 175/231/1 191/232/1
f 181/233/1 169/234/1 179/235/1 184/236/1
f 193/237/1 190/238/1 171/239/1 187/228/1
f 184/236/1 179/235/1 172/240/1 183/241/1
f 186/242/1 176/243/1 180/226/1 188/225/1
f 180/226/1 184/236/1 183/241/1 177/227/1
f 176/243/1 181/233/1 184/236/1 180/226/1
f 189/244/1 173/245/1 182/230/1 192/229/1
f 170/246/1 186/242/1 188/225/1 178/247/1
f 191/232/1 193/237/1 187/228/1 177/227/1
f 178/247/1 188/225/1 187/228/1 171/239/1
f 175/231/1 185/248/1 193/237/1 191/232/1
f 172/240/1 189/244/1 192/229/1 183/241/1
f 185/248/1 174/249/1 190/238/1 193/237/1
f 183/241/1 192/229/1 191/232/1 177/227/1
f 237/250/1 195/251/1 207/252/1 226/253/1
f 238/254/1 209/255/1 196/256/1 227/257/1
f 239/258/1 198/259/1 205/260/1 228/261/1
f 226/253/1 207/252/1 201/262/1 229/263/1
f 227/257/1 196/256/1 202/264/1 230/265/1
f 240/266/1 204/267/1 194/268/1 231/269/1
f 231/269/1 194/268/1 203/270/1 232/271/1
f 228/261/1 205/260/1 200/272/1 233/273/1
f 232/271/1 203/270/1 197/274/1 234/275/1
f 230/265/1 202/264/1 195/251/1 237/250/1
f 241/276/1 208/277/1 198/259/1 239/258/1
f 234/278/1 197/279/1 208/277/1 241/276/1
f 233/273/1 200/272/1 206/280/1 235/281/1
f 235/281/1 206/280/1 199/282/1 236/283/1
f 229/263/1 201/262/1 204/267/1 240/266/1
f 236/283/1 199/282/1 209/255/1 238/254/1
f 174/249/1 225/284/1 212/285/1 190/238/1
f 176/243/1 216/286/1 218/287/1 181/233/1
f 185/248/1 224/288/1 225/284/1 174/249/1
f 175/231/1 221/289/1 224/288/1 185/248/1
f 172/240/1 222/290/1 223/291/1 189/244/1
f 189/244/1 223/291/1 214/292/1 173/245/1
f 178/247/1 217/293/1 210/294/1 170/246/1
f 179/235/1 220/295/1 222/290/1 172/240/1
f 182/230/1 215/296/1 221/289/1 175/231/1
f 169/234/1 219/297/1 220/295/1 179/235/1
f 181/233/1 218/287/1 219/297/1 169/234/1
f 171/239/1 213/298/1 217/293/1 178/247/1
f 186/242/1 211/299/1 216/286/1 176/243/1
f 173/245/1 214/292/1 215/296/1 182/230/1
f 190/238/1 212/285/1 213/298/1 171/239/1
f 170/246/1 210/294/1 211/299/1 186/242/1
f 245/300/8 244/301/8 325/302/8 326/303/8
f 256/304/9 253/305/9 310/306/9 307/307/9
f 247/308/10 246/309/10 323/310/10 324/311/10
f 249/312/11 248/313/11 322/314/11 311/315/11
f 251/316/12 250/317/12 321/318/12 313/319/12
f 242/320/13 249/312/13 311/315/13 312/321/13
f 253/305/14 252/322/14 320/323/14 310/306/14
f 254/324/15 245/300/15 326/303/15 318/325/15
f 255/326/16 254/324/16 318/325/16 319/327/16
f 250/317/17 243/328/17 327/329/17 321/318/17
f 248/313/18 247/308/18 324/311/18 322/314/18
f 252/322/19 251/316/19 313/319/19 320/323/19
f 246/309/20 255/326/20 319/327/20 323/310/20
f 257/330/21 256/304/21 307/307/21 317/331/21
f 243/328/22 242/320/22 312/321/22 327/329/22
f 244/301/23 257/330/23 317/331/23 325/302/23
f 301/332/5 275/333/5 266/334/5 259/335/5
f 302/336/5 277/337/5 265/338/5 264/339/5
f 303/340/5 279/341/5 270/342/5 261/343/5
f 275/333/5 280/344/5 267/345/5 266/334/5
f 277/337/5 281/346/5 258/347/5 265/338/5
f 304/348/5 283/349/5 269/350/5 268/351/5
f 283/349/5 284/352/5 272/353/5 269/350/5
f 279/341/5 285/354/5 271/355/5 270/342/5
f 284/352/5 286/356/5 273/357/5 272/353/5
f 281/346/5 301/332/5 259/335/5 258/347/5
f 305/358/5 303/340/5 261/343/5 260/359/5
f 286/360/5 305/358/5 260/359/5 273/361/5
f 285/354/5 288/362/5 262/363/5 271/355/5
f 288/362/5 289/364/5 263/365/5 262/363/5
f 280/344/5 304/348/5 268/351/5 267/345/5
f 289/364/5 302/336/5 264/339/5 263/365/5
f 247/366/24 248/367/24 276/368/24 300/369/24
f 251/370/25 252/371/25 282/372/25 293/373/25
f 246/374/26 247/366/26 300/369/26 299/375/26
f 255/376/27 246/374/27 299/375/27 297/377/27
f 257/378/28 244/379/28 287/380/28 298/381/28
f 244/379/29 245/382/29 278/383/29 287/380/29
f 242/384/30 243/385/30 274/386/30 294/387/30
f 256/388/31 257/378/31 298/381/31 296/389/31
f 254/390/32 255/376/32 297/377/32 292/391/32
f 253/392/33 256/388/33 296/389/33 295/393/33
f 252/371/34 253/392/34 295/393/34 282/372/34
f 249/394/35 242/384/35 294/387/35 291/395/35
f 250/396/36 251/370/36 293/373/36 290/397/36
f 245/382/37 254/390/37 292/391/37 278/383/37
f 248/367/38 249/394/38 291/395/38 276/368/38
f 243/385/39 250/396/39 290/397/39 274/386/39
f 227/398/23 230/399/23 281/400/23 277/401/23
f 224/402/20 221/403/20 297/404/20 299/405/20
f 205/406/15 198/407/15 261/408/15 270/409/15
f 226/410/16 229/411/16 280/412/16 275/413/16
f 223/414/23 222/415/23 298/416/23 287/417/23
f 206/418/20 200/419/20 271/420/20 262/421/20
f 239/422/17 228/423/17 279/424/17 303/425/17
f 214/426/8 223/414/8 287/417/8 278/427/8
f 236/428/9 238/429/9 302/430/9 289/431/9
f 207/432/17 195/433/17 259/434/17 266/435/17
f 195/433/22 202/436/22 258/437/22 259/434/22
f 238/429/21 227/398/21 277/401/21 302/430/21
f 210/438/22 217/439/22 294/440/22 274/441/22
f 229/411/20 240/442/20 304/443/20 280/412/20
f 208/444/23 197/445/23 273/446/23 260/447/23
f 198/407/8 208/444/8 260/447/8 261/408/8
f 237/448/15 226/410/15 275/413/15 301/449/15
f 222/415/21 220/450/21 296/451/21 298/416/21
f 235/452/14 236/428/14 289/431/14 288/453/14
f 209/454/18 199/455/18 263/456/18 264/457/18
f 199/455/10 206/418/10 262/421/10 263/456/10
f 221/403/16 215/458/16 292/459/16 297/404/16
f 233/460/19 235/452/19 288/453/19 285/461/19
f 196/462/11 209/454/11 264/457/11 265/463/11
f 220/450/9 219/464/9 295/465/9 296/451/9
f 234/466/13 241/467/13 305/468/13 286/469/13
f 201/470/12 207/432/12 266/435/12 267/471/12
f 219/464/14 218/472/14 282/473/14 295/465/14
f 241/467/22 239/422/22 303/425/22 305/468/22
f 194/474/14 204/475/14 268/476/14 269/477/14
f 217/439/13 213/478/13 291/479/13 294/440/13
f 230/399/8 237/448/8 301/449/8 281/400/8
f 200/419/16 205/406/16 270/409/16 271/420/16
f 216/480/12 211/481/12 290/482/12 293/483/12
f 232/484/11 234/485/11 286/486/11 284/487/11
f 197/488/21 203/489/21 272/490/21 273/491/21
f 215/458/15 214/426/15 278/427/15 292/459/15
f 228/423/12 233/460/12 285/461/12 279/424/12
f 212/492/18 225/493/18 300/494/18 276/495/18
f 202/436/13 196/462/13 265/463/13 258/437/13
f 213/478/11 212/492/11 276/495/11 291/479/11
f 231/496/18 232/484/18 284/487/18 283/497/18
f 218/472/19 216/480/19 293/483/19 282/473/19
f 203/489/9 194/474/9 269/477/9 272/490/9
f 211/481/17 210/438/17 274/441/17 290/482/17
f 240/442/10 231/496/10 283/497/10 304/443/10
f 225/493/10 224/402/10 299/405/10 300/494/10
f 204/475/19 201/470/19 267/471/19 268/476/19
f 316/498/5 308/499/5 314/500/5 329/501/5
f 323/502/5 330/503/5 322/504/5 324/505/5
f 317/506/5 316/498/5 329/501/5 325/507/5
f 319/508/5 314/500/5 330/503/5 323/502/5
f 312/509/5 311/510/5 315/511/5 328/512/5
f 314/500/5 308/499/5 315/511/5 330/503/5
f 327/513/5 312/509/5 328/512/5 321/514/5
f 325/507/5 329/501/5 318/515/5 326/516/5
f 313/517/5 309/518/5 306/519/5 320/520/5
f 309/518/5 308/499/5 316/498/5 306/519/5
f 321/514/5 328/512/5 309/518/5 313/517/5
f 306/519/5 316/498/5 317/506/5 307/521/5
f 330/503/5 315/511/5 311/510/5 322/504/5
f 320/520/5 306/519/5 307/521/5 310/522/5
f 329/501/5 314/500/5 319/508/5 318/515/5
f 328/512/5 315/511/5 308/499/5 309/518/5
f 331/523/6 332/524/6 334/525/6 333/526/6
f 333/526/5 334/525/5 338/527/5 337/528/5
f 337/528/2 338/527/2 336/529/2 335/530/2
f 335/531/1 336/532/1 332/524/1 331/523/1
f 333/533/3 337/534/3 335/535/3 331/536/3
f 338/537/4 334/538/4 332/539/4 336/540/4
f 339/541/40 340/542/40 342/543/40 341/544/40
f 341/544/5 342/543/5 346/545/5 345/546/5
f 345/546/41 346/545/41 344/547/41 343/548/41
f 343/549/1 344/550/1 340/542/1 339/541/1
f 341/551/42 345/552/42 343/553/42 339/554/42
f 346/555/43 342/556/43 340/557/43 344/558/43
f 347/559/4 348/560/4 350/561/4 349/562/4
f 349/562/5 350/561/5 354/563/5 353/564/5
f 353/564/3 354/563/3 352/565/3 351/566/3
f 351/567/1 352/568/1 348/560/1 347/559/1
f 349/569/6 353/570/6 351/571/6 347/572/6
f 354/573/2 350/574/2 348/575/2 352/576/2
f 355/577/43 356/578/43 358/579/43 357/580/43
f 357/580/5 358/579/5 362/581/5 361/582/5
f 361/582/42 362/581/42 360/583/42 359/584/42
f 359/584/1 360/583/1 356/585/1 355/586/1
f 357/587/40 361/588/40 359/589/40 355/590/40
f 362/591/41 358/592/41 356/593/41 360/594/41
f 363/595/2 364/596/2 366/597/2 365/598/2
f 365/598/5 366/597/5 370/599/5 369/600/5
f 369/600/6 370/599/6 368/601/6 367/602/6
f 367/602/1 368/601/1 364/603/1 363/604/1
f 365/605/4 369/606/4 367/607/4 363/608/4
f 370/609/3 366/610/3 364/611/3 368/612/3
f 371/613/41 372/614/41 374/615/41 373/616/41
f 373/616/5 374/615/5 378/617/5 377/618/5
f 377/618/40 378/617/40 376/619/40 375/620/40
f 375/621/1 376/622/1 372/614/1 371/613/1
f 373/623/43 377/624/43 375/625/43 371/626/43
f 378/627/42 374/628/42 372/629/42 376/630/42
f 379/631/3 380/632/3 382/633/3 381/634/3
f 381/634/5 382/633/5 386/635/5 385/636/5
f 385/636/4 386/635/4 384/637/4 383/638/4
f 383/639/1 384/640/1 380/632/1 379/631/1
f 381/641/2 385/642/2 383/643/2 379/644/2
f 386/645/6 382/589/6 380/646/6 384/574/6
f 387/647/42 388/648/42 390/649/42 389/650/42
f 389/650/5 390/649/5 394/651/5 393/652/5
f 393/652/43 394/651/43 392/653/43 391/654/43
f 391/655/1 392/656/1 388/648/1 387/647/1
f 389/657/41 393/658/41 391/659/41 387/660/41
f 394/661/40 390/587/40 388/662/40 392/663/40
f 414/664/1 406/665/1 403/666/1 413/667/1
f 418/668/1 408/669/1 401/670/1 417/671/1
f 407/672/1 395/673/1 405/674/1 410/675/1
f 419/676/1 416/677/1 397/678/1 413/667/1
f 410/675/1 405/674/1 398/679/1 409/680/1
f 412/681/1 402/682/1 406/665/1 414/664/1
f 406/665/1 410/675/1 409/680/1 403/666/1
f 402/682/1 407/672/1 410/675/1 406/665/1
f 415/683/1 399/684/1 408/669/1 418/668/1
f 396/685/1 412/681/1 414/664/1 404/686/1
f 417/671/1 419/676/1 413/667/1 403/666/1
f 404/686/1 414/664/1 413/667/1 397/678/1
f 401/670/1 411/687/1 419/676/1 417/671/1
f 398/679/1 415/683/1 418/668/1 409/680/1
f 411/687/1 400/688/1 416/677/1 419/676/1
f 409/680/1 418/668/1 417/671/1 403/666/1
f 463/689/1 421/690/1 433/691/1 452/692/1
f 464/693/1 435/694/1 422/695/1 453/696/1
f 465/697/1 424/698/1 431/699/1 454/700/1
f 452/692/1 433/691/1 427/701/1 455/702/1
f 453/696/1 422/695/1 428/703/1 456/704/1
f 466/705/1 430/706/1 420/707/1 457/708/1
f 457/708/1 420/707/1 429/709/1 458/710/1
f 454/700/1 431/699/1 426/711/1 459/712/1
f 458/710/1 429/709/1 423/713/1 460/714/1
f 456/704/1 428/703/1 421/690/1 463/689/1
f 467/715/1 434/716/1 424/698/1 465/697/1
f 460/717/1 423/718/1 434/716/1 467/715/1
f 459/712/1 426/711/1 432/719/1 461/720/1
f 461/720/1 432/719/1 425/721/1 462/722/1
f 455/702/1 427/701/1 430/706/1 466/705/1
f 462/722/1 425/721/1 435/694/1 464/693/1
f 400/688/1 451/723/1 438/724/1 416/677/1
f 402/682/1 442/725/1 444/726/1 407/672/1
f 411/687/1 450/727/1 451/723/1 400/688/1
f 401/670/1 447/728/1 450/727/1 411/687/1
f 398/679/1 448/729/1 449/730/1 415/683/1
f 415/683/1 449/730/1 440/731/1 399/684/1
f 404/686/1 443/732/1 436/733/1 396/685/1
f 405/674/1 446/734/1 448/729/1 398/679/1
f 408/669/1 441/735/1 447/728/1 401/670/1
f 395/673/1 445/736/1 446/734/1 405/674/1
f 407/672/1 444/726/1 445/736/1 395/673/1
f 397/678/1 439/737/1 443/732/1 404/686/1
f 412/681/1 437/738/1 442/725/1 402/682/1
f 399/684/1 440/731/1 441/735/1 408/669/1
f 416/677/1 438/724/1 439/737/1 397/678/1
f 396/685/1 436/733/1 437/738/1 412/681/1
f 471/739/8 470/740/8 551/741/8 552/742/8
f 482/743/9 479/744/9 536/745/9 533/746/9
f 473/747/10 472/748/10 549/749/10 550/750/10
f 475/751/11 474/752/11 548/753/11 537/754/11
f 477/755/12 476/756/12 547/757/12 539/758/12
f 468/759/13 475/751/13 537/754/13 538/760/13
f 479/744/14 478/761/14 546/762/14 536/745/14
f 480/763/15 471/739/15 552/742/15 544/764/15
f 481/765/16 480/763/16 544/764/16 545/766/16
f 476/756/17 469/767/17 553/768/17 547/757/17
f 474/752/18 473/747/18 550/750/18 548/753/18
f 478/761/19 477/755/19 539/758/19 546/762/19
f 472/748/20 481/765/20 545/766/20 549/749/20
f 483/769/21 482/743/21 533/746/21 543/770/21
f 469/767/22 468/759/22 538/760/22 553/768/22
f 470/740/23 483/769/23 543/770/23 551/741/23
f 527/771/5 501/772/5 492/773/5 485/774/5
f 528/775/5 503/776/5 491/777/5 490/778/5
f 529/779/5 505/780/5 496/781/5 487/782/5
f 501/772/5 506/783/5 493/784/5 492/773/5
f 503/776/5 507/785/5 484/786/5 491/777/5
f 530/787/5 509/788/5 495/789/5 494/790/5
f 509/788/5 510/791/5 498/792/5 495/789/5
f 505/780/5 511/793/5 497/794/5 496/781/5
f 510/791/5 512/795/5 499/796/5 498/792/5
f 507/785/5 527/771/5 485/774/5 484/786/5
f 531/797/5 529/779/5 487/782/5 486/798/5
f 512/799/5 531/797/5 486/798/5 499/800/5
f 511/793/5 514/801/5 488/802/5 497/794/5
f 514/801/5 515/803/5 489/804/5 488/802/5
f 506/783/5 530/787/5 494/790/5 493/784/5
f 515/803/5 528/775/5 490/778/5 489/804/5
f 473/805/24 474/806/24 502/807/24 526/808/24
f 477/809/25 478/810/25 508/811/25 519/812/25
f 472/813/26 473/805/26 526/808/26 525/814/26
f 481/815/27 472/813/27 525/814/27 523/816/27
f 483/817/28 470/818/28 513/819/28 524/820/28
f 470/818/29 471/821/29 504/822/29 513/819/29
f 468/823/30 469/824/30 500/825/30 520/826/30
f 482/827/31 483/817/31 524/820/31 522/828/31
f 480/829/32 481/815/32 523/816/32 518/830/32
f 479/831/33 482/827/33 522/828/33 521/832/33
f 478/810/34 479/831/34 521/832/34 508/811/34
f 475/833/35 468/823/35 520/826/35 517/834/35
f 476/835/36 477/809/36 519/812/36 516/836/36
f 471/821/37 480/829/37 518/830/37 504/822/37
f 474/806/38 475/833/38 517/834/38 502/807/38
f 469/824/39 476/835/39 516/836/39 500/825/39
f 453/837/23 456/838/23 507/839/23 503/840/23
f 450/841/20 447/842/20 523/843/20 525/844/20
f 431/845/15 424/846/15 487/847/15 496/848/15
f 452/849/16 455/850/16 506/851/16 501/852/16
f 449/853/23 448/854/23 524/855/23 513/856/23
f 432/857/20 426/858/20 497/859/20 488/860/20
f 465/861/17 454/862/17 505/863/17 529/864/17
f 440/865/8 449/853/8 513/856/8 504/866/8
f 462/867/9 464/868/9 528/869/9 515/870/9
f 433/871/17 421/872/17 485/873/17 492/874/17
f 421/872/22 428/875/22 484/876/22 485/873/22
f 464/868/21 453/837/21 503/840/21 528/869/21
f 436/877/22 443/878/22 520/879/22 500/880/22
f 455/850/20 466/881/20 530/882/20 506/851/20
f 434/883/23 423/884/23 499/885/23 486/886/23
f 424/846/8 434/883/8 486/886/8 487/847/8
f 463/887/15 452/849/15 501/852/15 527/888/15
f 448/854/21 446/889/21 522/890/21 524/855/21
f 461/891/14 462/867/14 515/870/14 514/892/14
f 435/893/18 425/894/18 489/895/18 490/896/18
f 425/894/10 432/857/10 488/860/10 489/895/10
f 447/842/16 441/897/16 518/898/16 523/843/16
f 459/899/19 461/891/19 514/892/19 511/900/19
f 422/901/11 435/893/11 490/896/11 491/463/11
f 446/889/9 445/902/9 521/903/9 522/890/9
f 460/904/13 467/905/13 531/906/13 512/907/13
f 427/908/12 433/871/12 492/874/12 493/909/12
f 445/902/14 444/910/14 508/911/14 521/903/14
f 467/905/22 465/861/22 529/864/22 531/906/22
f 420/912/14 430/913/14 494/914/14 495/915/14
f 443/878/13 439/916/13 517/917/13 520/879/13
f 456/838/8 463/887/8 527/888/8 507/839/8
f 426/858/16 431/845/16 496/848/16 497/859/16
f 442/918/12 437/919/12 516/920/12 519/921/12
f 458/922/11 460/923/11 512/924/11 510/925/11
f 423/926/21 429/927/21 498/928/21 499/929/21
f 441/897/15 440/865/15 504/866/15 518/898/15
f 454/862/12 459/899/12 511/900/12 505/863/12
f 438/930/18 451/931/18 526/932/18 502/933/18
f 428/875/13 422/901/13 491/463/13 484/876/13
f 439/916/11 438/930/11 502/933/11 517/917/11
f 457/934/18 458/922/18 510/925/18 509/935/18
f 444/910/19 442/918/19 519/921/19 508/911/19
f 429/927/9 420/912/9 495/915/9 498/928/9
f 437/919/17 436/877/17 500/880/17 516/920/17
f 466/881/10 457/934/10 509/935/10 530/882/10
f 451/931/10 450/841/10 525/844/10 526/932/10
f 430/913/19 427/908/19 493/909/19 494/914/19
f 542/936/5 534/937/5 540/938/5 555/939/5
f 549/940/5 556/941/5 548/942/5 550/943/5
f 543/944/5 542/936/5 555/939/5 551/945/5
f 545/946/5 540/938/5 556/941/5 549/940/5
f 538/947/5 537/948/5 541/949/5 554/950/5
f 540/938/5 534/937/5 541/949/5 556/941/5
f 553/951/5 538/947/5 554/950/5 547/952/5
f 551/945/5 555/939/5 544/953/5 552/954/5
f 539/955/5 535/956/5 532/957/5 546/958/5
f 535/956/5 534/937/5 542/936/5 532/957/5
f 547/952/5 554/950/5 535/956/5 539/955/5
f 532/957/5 542/936/5 543/944/5 533/959/5
f 556/941/5 541/949/5 537/948/5 548/942/5
f 546/958/5 532/957/5 533/959/5 536/960/5
f 555/939/5 540/938/5 545/946/5 544/953/5
f 554/950/5 541/949/5 534/937/5 535/956/5
f 557/961/6 558/962/6 560/963/6 559/964/6
f 559/964/5 560/963/5 564/965/5 563/966/5
f 563/966/2 564/965/2 562/967/2 561/968/2
f 561/968/1 562/967/1 558/969/1 557/970/1
f 559/971/3 563/972/3 561/973/3 557/974/3
f 564/572/4 560/629/4 558/611/4 562/973/4
f 565/975/40 566/976/40 568/977/40 567/978/40
f 567/978/5 568/977/5 572/979/5 571/980/5
f 571/980/41 572/979/41 570/981/41 569/982/41
f 569/982/1 570/981/1 566/983/1 565/984/1
f 567/985/42 571/986/42 569/987/42 565/988/42
f 572/989/43 568/466/43 566/990/43 570/536/43
f 573/568/4 574/567/4 576/991/4 575/992/4
f 575/992/5 576/991/5 580/993/5 579/994/5
f 579/994/3 580/993/3 578/995/3 577/996/3
f 577/996/1 578/995/1 574/997/1 573/529/1
f 575/998/6 579/999/6 577/1000/6 573/1001/6
f 580/1002/2 576/645/2 574/574/2 578/573/2
f 581/1003/43 582/1004/43 584/1005/43 583/1006/43
f 583/1006/5 584/1005/5 588/1007/5 587/1008/5
f 587/1008/42 588/1007/42 586/1009/42 585/1010/42
f 585/1011/1 586/1012/1 582/1004/1 581/1003/1
f 583/1013/40 587/1014/40 585/1015/40 581/1016/40
f 588/1017/41 584/1018/41 582/1019/41 586/1020/41
f 589/1021/2 590/1022/2 592/1023/2 591/1024/2
f 591/1024/5 592/1023/5 596/1025/5 595/1026/5
f 595/1026/6 596/1025/6 594/1027/6 593/1028/6
f 593/1028/1 594/1027/1 590/1029/1 589/1030/1
f 591/1020/4 595/1031/4 593/1032/4 589/535/4
f 596/1033/3 592/1034/3 590/1035/3 594/1036/3
f 597/1037/41 598/1038/41 600/1039/41 599/1040/41
f 599/1040/5 600/1039/5 604/1041/5 603/1042/5
f 603/1042/40 604/1041/40 602/1043/40 601/1044/40
f 601/1044/1 602/1043/1 598/1045/1 597/1046/1
f 599/1047/43 603/1048/43 601/1049/43 597/1050/43
f 604/1051/42 600/1052/42 598/1053/42 602/1035/42
f 605/1054/3 606/1055/3 608/1056/3 607/1057/3
f 607/1057/5 608/1056/5 612/1058/5 611/1059/5
f 611/1059/4 612/1058/4 610/1060/4 609/1061/4
f 609/1062/1 610/1063/1 606/1055/1 605/1054/1
f 607/1064/2 611/1065/2 609/1066/2 605/1067/2
f 612/1068/6 608/575/6 606/574/6 610/646/6
f 613/1069/42 614/1070/42 616/1071/42 615/1072/42
f 615/1072/5 616/1071/5 620/1073/5 619/1074/5
f 619/1074/43 620/1073/43 618/1075/43 617/1076/43
f 617/1076/1 618/1075/1 614/1077/1 613/1078/1
f 615/1079/41 619/1033/41 617/1080/41 613/1081/41
f 620/538/40 616/1082/40 614/1083/40 618/1084/40
f 631/1085/5 647/1086/5 644/1087/5 628/1088/5
f 628/1088/5 644/1087/5 650/1089/5 634/1090/5
f 634/1090/5 650/1089/5 638/1091/5 622/1092/5
f 621/1093/5 637/1094/5 647/1086/5 631/1085/5
f 630/1095/5 646/1096/5 637/1094/5 621/1093/5
f 622/1092/5 638/1091/5 645/1097/5 629/1098/5
f 624/1099/5 640/1100/5 646/1096/5 630/1095/5
f 629/1098/5 645/1097/5 639/1101/5 623/1102/5
f 641/1103/5 653/1104/5 643/1105/5 648/1106/5
f 642/1107/5 654/1108/5 639/1101/5 652/1109/5
f 653/1104/5 641/1103/5 651/1110/5 640/1100/5
f 626/1111/5 636/1112/5 623/1102/5 655/1113/5
f 625/1114/5 632/1115/5 627/1116/5 656/1117/5
f 627/1116/5 655/1113/5 665/1118/5 659/1119/5
f 656/1117/5 624/1099/5 635/1120/5 625/1114/5
f 655/1113/5 627/1116/5 633/1121/5 626/1111/5
f 654/1108/5 642/1107/5 649/1122/5 643/1105/5
f 654/1108/5 643/1105/5 662/1123/5 664/1124/5
f 653/1104/5 640/1100/5 661/1125/5 663/1126/5
f 656/1117/5 627/1116/5 659/1119/5 666/1127/5
f 639/1101/5 654/1108/5 664/1124/5 660/1128/5
f 643/1105/5 653/1104/5 663/1126/5 662/1123/5
f 624/1099/5 656/1117/5 666/1127/5 658/1129/5
f 640/1100/5 624/1099/5 658/1129/5 661/1125/5
f 655/1113/5 623/1102/5 657/1130/5 665/1118/5
f 623/1102/5 639/1101/5 660/1128/5 657/1130/5
f 632/1131/17 625/433/17 671/1132/17 678/1133/17
f 637/1134/22 646/1135/22 692/1136/22 683/1137/22
f 633/1138/19 627/1139/19 673/1140/19 679/1141/19
f 644/1142/12 647/1143/12 693/1144/12 690/1145/12
f 634/1146/15 622/1147/15 668/1148/15 680/1149/15
f 622/1147/8 629/1150/8 675/1151/8 668/1148/8
f 641/1152/10 648/1153/10 694/1154/10 687/1155/10
f 635/1156/13 624/1157/13 670/1158/13 681/1159/13
f 625/433/22 635/1156/22 681/1159/22 671/1132/22
f 643/1160/16 649/1161/16 695/1162/16 689/1163/16
f 636/1164/9 626/1165/9 672/1166/9 682/1167/9
f 626/1165/14 633/1138/14 679/1141/14 672/1166/14
f 638/1168/14 650/1169/14 696/1170/14 684/1171/14
f 645/1172/9 638/1168/9 684/1171/9 691/1173/9
f 623/1174/21 636/1164/21 682/1167/21 669/1175/21
f 640/1176/11 651/1177/11 697/1178/11 686/1179/11
f 651/1177/18 641/1152/18 687/1155/18 697/1178/18
f 628/1180/16 634/1146/16 680/1149/16 674/1181/16
f 642/1182/8 652/1183/8 698/1184/8 688/1185/8
f 649/1161/15 642/1182/15 688/1185/15 695/1162/15
f 621/1186/10 631/1187/10 677/1188/10 667/1189/10
f 652/1183/23 639/1190/23 685/1191/23 698/1184/23
f 627/1139/12 632/1131/12 678/1133/12 673/1140/12
f 650/1169/19 644/1192/19 690/162/19 696/1170/19
f 624/1157/11 630/1193/11 676/1194/11 670/1158/11
f 647/1143/17 637/1134/17 683/1137/17 693/1144/17
f 629/1150/23 623/1174/23 669/1175/23 675/1151/23
f 648/1153/20 643/1160/20 689/1163/20 694/1154/20
f 630/1193/18 621/1186/18 667/1189/18 676/1194/18
f 646/1135/13 640/1176/13 686/1179/13 692/1136/13
f 631/1187/20 628/1195/20 674/1196/20 677/1188/20
f 639/1190/21 645/1172/21 691/1173/21 685/1191/21
f 691/1197/5 684/1198/5 699/1199/5 685/1200/5
f 684/1198/5 696/1201/5 702/1202/5 699/1199/5
f 696/1201/5 690/1203/5 705/1204/5 702/1202/5
f 690/1203/5 693/1205/5 683/1206/5 705/1204/5
f 685/1200/5 699/1199/5 700/1207/5 698/1208/5
f 699/1199/5 702/1202/5 703/1209/5 700/1207/5
f 702/1202/5 705/1204/5 706/1210/5 703/1209/5
f 705/1204/5 683/1206/5 692/1211/5 706/1210/5
f 698/1208/5 700/1207/5 701/1212/5 688/1213/5
f 700/1207/5 703/1209/5 704/1214/5 701/1212/5
f 703/1209/5 706/1210/5 707/1215/5 704/1214/5
f 706/1210/5 692/1211/5 686/1216/5 707/1215/5
f 688/1213/5 701/1212/5 689/1217/5 695/1218/5
f 701/1212/5 704/1214/5 694/1219/5 689/1217/5
f 704/1214/5 707/1215/5 687/1220/5 694/1219/5
f 707/1215/5 686/1216/5 697/1221/5 687/1220/5
f 669/1222/5 708/1223/5 668/1224/5 675/1225/5
f 708/1223/5 711/1226/5 680/1227/5 668/1224/5
f 711/1226/5 714/1228/5 674/1229/5 680/1227/5
f 714/1228/5 667/1230/5 677/1231/5 674/1229/5
f 682/1232/5 709/1233/5 708/1223/5 669/1222/5
f 709/1233/5 712/1234/5 711/1226/5 708/1223/5
f 712/1234/5 715/1235/5 714/1228/5 711/1226/5
f 715/1235/5 676/1236/5 667/1230/5 714/1228/5
f 672/1237/5 710/1238/5 709/1233/5 682/1232/5
f 710/1238/5 713/1239/5 712/1234/5 709/1233/5
f 713/1239/5 716/1240/5 715/1235/5 712/1234/5
f 716/1240/5 670/1241/5 676/1236/5 715/1235/5
f 679/1242/5 673/1243/5 710/1238/5 672/1237/5
f 673/1243/5 678/1244/5 713/1239/5 710/1238/5
f 678/1244/5 671/1245/5 716/1240/5 713/1239/5
f 671/1245/5 681/1246/5 670/1241/5 716/1240/5
