# Blender 5.2.1 LTS
# www.blender.org
mtllib CellBasePlacement.mtl
o CellBasePlacement
v 1.435095 1.406017 -5.704176
v 1.435095 3.960694 -5.704176
v 1.441254 1.406017 -3.312959
v 1.441254 3.960694 -3.312959
v -1.440878 1.406017 -5.704468
v -1.440878 3.960694 -5.704468
v -1.434719 1.406017 -3.313251
v -1.434719 3.960694 -3.313251
v 1.665089 1.207171 -3.118437
v 1.665089 4.159540 -3.118437
v -1.658594 1.207171 -3.118774
v -1.658594 4.159540 -3.118774
v -0.730720 1.406017 -3.313179
v 0.737260 1.406017 -3.313030
v 0.737260 3.960694 -3.313030
v -0.730720 3.960694 -3.313179
v 0.731101 1.406017 -5.704248
v -0.736879 1.406017 -5.704397
v -0.736879 3.960694 -5.704397
v 0.731101 3.960694 -5.704248
v -0.845002 1.207171 -3.118691
v 0.851502 1.207171 -3.118519
v 0.851502 4.159540 -3.118519
v -0.845002 4.159540 -3.118691
v -0.730720 1.545714 -3.313179
v 0.737260 1.545714 -3.313030
v 0.737260 3.820998 -3.313030
v -0.730720 3.820998 -3.313179
v 0.731101 1.545714 -5.704248
v -0.736879 1.545714 -5.704397
v -0.736879 3.820998 -5.704397
v 0.731101 3.820998 -5.704248
v 1.855813 1.037754 -3.118417
v 1.855813 4.200834 -3.118417
v -1.849317 1.037754 -3.118793
v -1.849317 4.200834 -3.118793
v -0.942352 1.037754 -3.118701
v 0.948854 1.037754 -3.118509
v -0.845002 4.200834 -3.118691
v 0.851502 4.200834 -3.118519
v 1.855836 1.037754 -3.344757
v 1.855836 4.202441 -3.344757
v -1.849295 1.037754 -3.345133
v -1.849295 4.202441 -3.345133
v -0.942329 1.037754 -3.345041
v 0.948877 1.037754 -3.344849
v -1.434719 3.109136 -3.313251
v -1.434719 2.257576 -3.313251
v -1.440878 3.109136 -5.704468
v -1.440878 2.257576 -5.704468
v -1.658594 3.175416 -3.118774
v -1.658594 2.191295 -3.118774
v -1.849317 3.231891 -3.118793
v -1.849317 2.134821 -3.118793
v -1.849295 3.231891 -3.345133
v -1.849295 2.134821 -3.345133
v 1.435095 2.257576 -5.704176
v 1.435095 3.109136 -5.704176
v 1.441254 3.109136 -3.312959
v 1.441254 2.257576 -3.312959
v 1.665089 3.175416 -3.118437
v 1.665089 2.191295 -3.118437
v 1.855813 3.231891 -3.118417
v 1.855813 2.134821 -3.118417
v 1.855836 3.231891 -3.344757
v 1.855836 2.134821 -3.344757
v -2.092973 3.231891 -3.118860
v -2.092973 2.134821 -3.118860
v -2.092954 3.231891 -3.345200
v -2.092954 2.134821 -3.345200
v 2.099473 3.231891 -3.118350
v 2.099473 2.134821 -3.118350
v 2.099493 3.231891 -3.344690
v 2.099493 2.134821 -3.344690
v 1.855813 4.200834 -3.344757
v -1.849318 4.200834 -3.345133
v 1.435095 3.820998 -5.704176
v 1.441254 3.820998 -3.312959
v 1.665089 3.998096 -3.118437
v 1.855813 4.041881 -3.118417
v 1.855817 4.041881 -3.344757
v -1.434719 3.820998 -3.313251
v -1.440878 3.820998 -5.704468
v -1.658594 3.998096 -3.118774
v -1.849317 4.041881 -3.118793
v -1.849314 4.041881 -3.345133
v -1.434719 1.545714 -3.313251
v -1.440878 1.545714 -5.704468
v -1.658594 1.368615 -3.118774
v -1.849317 1.217726 -3.118793
v -1.849295 1.217726 -3.345133
v 1.441254 1.545714 -3.312959
v 1.665089 1.368615 -3.118437
v 1.855813 1.217726 -3.118417
v 1.855836 1.217726 -3.344757
v 1.435095 1.545714 -5.704176
v -0.736879 3.109136 -5.704397
v 0.731101 3.109136 -5.704248
v -0.736879 2.257576 -5.704397
v 0.731101 2.257576 -5.704248
v 1.435095 6.995651 -5.704176
v 1.435095 4.440974 -5.704176
v 1.441254 6.995651 -3.312959
v 1.441254 4.440974 -3.312959
v -1.440878 6.995651 -5.704468
v -1.440878 4.440974 -5.704468
v -1.434719 6.995651 -3.313251
v -1.434719 4.440974 -3.313251
v 1.665089 7.194497 -3.118437
v 1.665089 4.242128 -3.118437
v -1.658594 7.194497 -3.118774
v -1.658594 4.242128 -3.118774
v -0.730720 6.995651 -3.313179
v 0.737260 6.995651 -3.313030
v 0.737260 4.440974 -3.313030
v -0.730720 4.440974 -3.313179
v 0.731101 6.995651 -5.704248
v -0.736879 6.995651 -5.704397
v -0.736879 4.440974 -5.704397
v 0.731101 4.440974 -5.704248
v -0.845002 7.194497 -3.118691
v 0.851502 7.194497 -3.118519
v 0.851502 4.242128 -3.118519
v -0.845002 4.242128 -3.118691
v -0.730720 6.855954 -3.313179
v 0.737260 6.855954 -3.313030
v 0.737260 4.580671 -3.313030
v -0.730720 4.580671 -3.313179
v 0.731101 6.855954 -5.704248
v -0.736879 6.855954 -5.704397
v -0.736879 4.580671 -5.704397
v 0.731101 4.580671 -5.704248
v 1.855813 7.363914 -3.118417
v -1.849317 7.363914 -3.118793
v -0.942352 7.363914 -3.118701
v 0.948854 7.363914 -3.118509
v 1.855836 7.363914 -3.344757
v 1.855836 4.199228 -3.344757
v -1.849295 7.363914 -3.345133
v -1.849295 4.199228 -3.345133
v -0.942329 7.363914 -3.345041
v 0.948877 7.363914 -3.344849
v -1.434719 5.292532 -3.313251
v -1.434719 6.144093 -3.313251
v -1.440878 5.292532 -5.704468
v -1.440878 6.144093 -5.704468
v -1.658594 5.226252 -3.118774
v -1.658594 6.210373 -3.118774
v -1.849317 5.169778 -3.118793
v -1.849317 6.266848 -3.118793
v -1.849295 5.169778 -3.345133
v -1.849295 6.266848 -3.345133
v 1.435095 6.144093 -5.704176
v 1.435095 5.292532 -5.704176
v 1.441254 5.292532 -3.312959
v 1.441254 6.144093 -3.312959
v 1.665089 5.226252 -3.118437
v 1.665089 6.210373 -3.118437
v 1.855813 5.169778 -3.118417
v 1.855813 6.266848 -3.118417
v 1.855836 5.169778 -3.344757
v 1.855836 6.266848 -3.344757
v -2.092973 5.169778 -3.118860
v -2.092973 6.266848 -3.118860
v -2.092954 5.169778 -3.345200
v -2.092954 6.266848 -3.345200
v 2.099473 5.169778 -3.118350
v 2.099473 6.266848 -3.118350
v 2.099493 5.169778 -3.344690
v 2.099493 6.266848 -3.344690
v 1.435095 4.580671 -5.704176
v 1.441254 4.580671 -3.312959
v 1.665089 4.403572 -3.118437
v 1.855813 4.359788 -3.118417
v 1.855817 4.359788 -3.344757
v -1.434719 4.580671 -3.313251
v -1.440878 4.580671 -5.704468
v -1.658594 4.403572 -3.118774
v -1.849317 4.359788 -3.118793
v -1.849314 4.359788 -3.345133
v -1.434719 6.855954 -3.313251
v -1.440878 6.855954 -5.704468
v -1.658594 7.033053 -3.118774
v -1.849317 7.183942 -3.118793
v -1.849295 7.183942 -3.345133
v 1.441254 6.855954 -3.312959
v 1.665089 7.033053 -3.118437
v 1.855813 7.183942 -3.118417
v 1.855836 7.183942 -3.344757
v 1.435095 6.855954 -5.704176
v -0.736879 5.292532 -5.704397
v 0.731101 5.292532 -5.704248
v -0.736879 6.144093 -5.704397
v 0.731101 6.144093 -5.704248
vn -1.0000 -0.0000 0.0026
vn -0.0001 -0.6993 0.7149
vn 1.0000 -0.0000 -0.0026
vn -0.0000 1.0000 -0.0000
vn -0.0000 -1.0000 -0.0000
vn -0.6560 -0.0000 0.7548
vn 0.6558 -0.0000 0.7549
vn -0.0001 0.6993 0.7149
vn -0.0001 -0.0000 1.0000
vn -1.0000 -0.0000 -0.0001
vn -0.0003 -0.0000 1.0000
vn 1.0000 -0.0000 0.0001
vn -1.0000 -0.0000 -0.0000
vn 1.0000 -0.0000 -0.0000
vt 0.693247 0.534801
vt 0.902202 0.534801
vt 0.902202 0.547008
vt 0.693247 0.547008
vt 0.430217 0.081080
vt 0.405911 0.071095
vt 0.405911 -0.000000
vt 0.430217 0.019561
vt 0.000000 0.763837
vt 0.208955 0.763837
vt 0.208955 0.776045
vt 0.000000 0.776045
vt 0.196761 0.985000
vt 0.184554 0.985000
vt 0.184554 0.776045
vt 0.196761 0.776045
vt 0.854652 0.209120
vt 0.854652 0.000165
vt 0.916170 0.000000
vt 0.916170 0.208955
vt 0.184554 0.776209
vt 0.184554 0.985165
vt 0.123036 0.985000
vt 0.123036 0.776045
vt 0.589592 0.552177
vt 0.615506 0.567652
vt 0.615506 0.581760
vt 0.589592 0.564384
vt 0.667333 0.353353
vt 0.641419 0.337877
vt 0.641419 0.323770
vt 0.667333 0.341146
vt 0.454523 0.209358
vt 0.478830 0.219343
vt 0.478830 0.290437
vt 0.454523 0.270876
vt 0.454523 0.019561
vt 0.478830 -0.000000
vt 0.478830 0.071095
vt 0.454523 0.081080
vt 0.977688 0.000165
vt 0.977688 0.209120
vt 0.916170 0.208955
vt 0.916170 -0.000000
vt 0.349440 0.552806
vt 0.361648 0.552806
vt 0.361648 0.761762
vt 0.349440 0.761762
vt 0.061518 0.985165
vt 0.061518 0.776209
vt 0.123036 0.776045
vt 0.123036 0.985000
vt 0.874726 0.919337
vt 0.862519 0.919337
vt 0.862519 0.791059
vt 0.874726 0.791059
vt 0.337233 0.552806
vt 0.337233 0.761762
vt 0.208955 0.762105
vt 0.208955 0.553150
vt 0.854652 0.000343
vt 0.854652 0.209299
vt 0.726374 0.208955
vt 0.726374 0.000000
vt 0.430217 0.270876
vt 0.405911 0.290437
vt 0.405911 0.219343
vt 0.430217 0.209358
vt 0.587516 0.784040
vt 0.575309 0.784040
vt 0.575309 0.575084
vt 0.587516 0.575084
vt 0.349440 0.761762
vt 0.361648 0.761762
vt 0.361648 0.970717
vt 0.349440 0.970717
vt 0.850312 0.791059
vt 0.850312 0.919337
vt 0.109053 0.014804
vt 0.100546 0.000000
vt 0.265808 0.000000
vt 0.257301 0.014804
vt 0.328395 0.258687
vt 0.345061 0.262513
vt 0.345061 0.276403
vt 0.328395 0.272795
vt 0.037958 0.014804
vt 0.021292 0.000000
vt 0.037958 0.028912
vt 0.021292 0.015727
vt 0.345061 0.000000
vt 0.328395 0.014804
vt 0.405911 0.323770
vt 0.386132 0.323770
vt 0.386132 0.244515
vt 0.405911 0.244515
vt 0.386132 0.079254
vt 0.405911 0.079254
vt 0.864824 0.225025
vt 0.845045 0.225025
vt 0.845045 0.209299
vt 0.864824 0.209299
vt 0.386132 0.000000
vt 0.405911 0.000000
vt 0.109053 0.272795
vt 0.257301 0.272795
vt 0.257301 0.276403
vt 0.109053 0.276403
vt 0.021292 0.191733
vt 0.000000 0.191733
vt -0.000000 0.095866
vt 0.021292 0.095866
vt 0.037958 0.258687
vt 0.021292 0.262513
vt 0.037958 0.186798
vt 0.037958 0.100801
vt 0.667333 0.552177
vt 0.641419 0.567652
vt 0.641419 0.495763
vt 0.667333 0.489971
vt 0.641419 0.409767
vt 0.667333 0.415558
vt 0.000000 0.565014
vt 0.208955 0.565014
vt 0.208955 0.627219
vt 0.000000 0.627219
vt 0.208955 0.701632
vt 0.000000 0.701632
vt 0.825267 0.225025
vt 0.845045 0.305165
vt 0.825267 0.305165
vt 0.425689 0.290441
vt 0.425689 0.311733
vt 0.405911 0.311729
vt 0.405911 0.290437
vt 0.328395 0.028912
vt 0.345061 0.015727
vt 0.345061 0.095866
vt 0.328395 0.100801
vt 0.345061 0.191733
vt 0.328395 0.186798
vt 0.589592 0.353353
vt 0.615506 0.337877
vt 0.615506 0.409767
vt 0.589592 0.415558
vt 0.615506 0.495763
vt 0.589592 0.489971
vt 0.693247 0.335977
vt 0.902202 0.335977
vt 0.902202 0.398182
vt 0.693247 0.398182
vt 0.902202 0.472595
vt 0.693247 0.472595
vt 0.785710 0.305165
vt 0.765931 0.305165
vt 0.765931 0.209299
vt 0.785710 0.209299
vt 0.805488 0.209299
vt 0.805488 0.305165
vt 0.366353 0.095866
vt 0.366354 0.191733
vt 0.504803 0.311729
vt 0.504803 0.290437
vt 0.524582 0.290441
vt 0.524582 0.311733
vt 0.465246 0.290437
vt 0.465246 0.311729
vt 0.445468 0.311733
vt 0.445468 0.290441
vt 0.503136 0.272610
vt 0.503136 0.251318
vt 0.522914 0.251314
vt 0.522914 0.272606
vt 0.037958 0.272795
vt 0.021292 0.276403
vt 0.798547 0.861839
vt 0.798547 0.791059
vt 0.818326 0.791059
vt 0.818326 0.861839
vt 0.838104 0.861839
vt 0.838104 0.875729
vt 0.818326 0.875729
vt 0.818326 0.861839
vt 0.798547 0.875729
vt 0.818326 0.875729
vt 0.838104 0.791059
vt 0.818326 0.791059
vt 0.667333 0.564384
vt 0.641419 0.581760
vt 0.000000 0.552806
vt 0.208955 0.552806
vt 0.864824 0.305165
vt 0.845045 0.305165
vt 0.693247 0.323770
vt 0.902202 0.323770
vt 0.589592 0.341146
vt 0.615506 0.323770
vt 0.825267 0.209299
vt 0.726374 0.251314
vt 0.714167 0.251314
vt 0.714167 0.189797
vt 0.726374 0.189797
vt 0.714167 -0.000000
vt 0.726374 -0.000000
vt 0.726374 0.061518
vt 0.714167 0.061518
vt 0.515343 0.251314
vt 0.503136 0.251314
vt 0.503136 0.189797
vt 0.515343 0.189797
vt 0.503136 0.000000
vt 0.515343 0.000000
vt 0.515343 0.061518
vt 0.503136 0.061518
vt 0.577548 0.000000
vt 0.577549 0.061518
vt 0.577549 0.189797
vt 0.577549 0.251314
vt 0.651961 -0.000000
vt 0.651961 0.061518
vt 0.651961 0.189797
vt 0.651961 0.251314
vt 0.589592 0.593967
vt 0.589592 0.581760
vt 0.798547 0.581760
vt 0.798547 0.593967
vt 0.454523 0.209358
vt 0.454523 0.270876
vt 0.430217 0.290437
vt 0.430217 0.219342
vt 0.366354 0.587292
vt 0.366354 0.575084
vt 0.575309 0.575084
vt 0.575309 0.587292
vt 0.349440 0.761762
vt 0.349440 0.970717
vt 0.337233 0.970717
vt 0.337233 0.761762
vt -0.000000 0.776045
vt 0.061518 0.776209
vt 0.061518 0.985165
vt 0.000000 0.985000
vt 0.988343 0.999835
vt 0.926825 1.000000
vt 0.926825 0.791045
vt 0.988343 0.790880
vt 0.615506 0.353353
vt 0.615506 0.341146
vt 0.641419 0.323770
vt 0.641419 0.337877
vt 0.693247 0.552177
vt 0.693247 0.564384
vt 0.667333 0.581760
vt 0.667333 0.567652
vt 0.503136 0.209358
vt 0.503136 0.270876
vt 0.478829 0.290437
vt 0.478829 0.219343
vt 0.503136 0.019561
vt 0.503136 0.081080
vt 0.478829 0.071095
vt 0.478829 0.000000
vt 0.963720 0.532725
vt 0.902202 0.532890
vt 0.902202 0.323934
vt 0.963720 0.323770
vt 0.337233 0.761762
vt 0.337233 0.552806
vt 0.349440 0.552806
vt 0.926825 0.581760
vt 0.988343 0.581925
vt 0.988343 0.790880
vt 0.926825 0.790715
vt 0.575309 0.912318
vt 0.575309 0.784040
vt 0.587516 0.784040
vt 0.587516 0.912318
vt 0.798547 0.581760
vt 0.926825 0.582103
vt 0.926825 0.791059
vt 0.798547 0.790715
vt 0.337233 0.971060
vt 0.208955 0.971404
vt 0.208955 0.762448
vt 0.337233 0.762105
vt 0.454523 0.019561
vt 0.454523 0.081079
vt 0.430217 0.071095
vt 0.430217 0.000000
vt 0.975927 0.532725
vt 0.975927 0.323770
vt 0.988135 0.323770
vt 0.988135 0.532725
vt 0.975927 0.323770
vt 0.975927 0.532725
vt 0.963720 0.323770
vt 0.850312 0.791059
vt 0.850312 0.919337
vt 0.838104 0.919337
vt 0.838104 0.791059
vt 0.109053 0.538002
vt 0.257301 0.538002
vt 0.265808 0.552806
vt 0.100546 0.552806
vt 0.328395 0.294119
vt 0.328395 0.280012
vt 0.345061 0.290293
vt 0.037958 0.538002
vt 0.021292 0.552806
vt 0.037958 0.523894
vt 0.021292 0.537080
vt 0.328395 0.538002
vt 0.345061 0.552806
vt 0.386132 0.000000
vt 0.386132 0.079254
vt 0.366354 0.079254
vt 0.366354 0.000000
vt 0.386132 0.244516
vt 0.366354 0.244516
vt 0.884602 0.289438
vt 0.884602 0.305165
vt 0.864824 0.289438
vt 0.366354 0.323770
vt 0.109053 0.280012
vt 0.257301 0.280012
vt 0.021292 0.361073
vt 0.021292 0.456940
vt 0.000000 0.456940
vt 0.000000 0.361073
vt 0.037958 0.294119
vt 0.037958 0.366008
vt 0.021292 0.290293
vt 0.037958 0.452005
vt 0.693247 0.353353
vt 0.693247 0.415558
vt 0.667333 0.409767
vt 0.667333 0.337877
vt 0.693247 0.489971
vt 0.667333 0.495763
vt 0.366354 0.786115
vt 0.366354 0.723910
vt 0.575309 0.723910
vt 0.575309 0.786115
vt 0.366354 0.649497
vt 0.575309 0.649497
vt 0.805488 0.289438
vt 0.805488 0.209299
vt 0.825267 0.289438
vt 0.465246 0.290441
vt 0.485025 0.290437
vt 0.485025 0.311729
vt 0.465246 0.311733
vt 0.328395 0.523894
vt 0.328395 0.452005
vt 0.345061 0.456940
vt 0.345061 0.537080
vt 0.328395 0.366008
vt 0.345061 0.361074
vt 0.615506 0.552177
vt 0.615506 0.489971
vt 0.641419 0.495763
vt 0.641419 0.567652
vt 0.615506 0.415558
vt 0.641419 0.409767
vt 0.589592 0.792791
vt 0.589592 0.730586
vt 0.798547 0.730586
vt 0.798547 0.792791
vt 0.589592 0.656173
vt 0.798547 0.656173
vt 0.765931 0.209299
vt 0.765931 0.305165
vt 0.746153 0.305165
vt 0.746153 0.209299
vt 0.726374 0.305165
vt 0.726374 0.209299
vt 0.746153 0.209299
vt 0.746153 0.305165
vt 0.366354 0.361074
vt 0.366354 0.456940
vt 0.504803 0.311729
vt 0.485025 0.311733
vt 0.485025 0.290441
vt 0.504803 0.290437
vt 0.425689 0.290437
vt 0.445468 0.290441
vt 0.445468 0.311733
vt 0.425689 0.311729
vt 0.542693 0.272610
vt 0.542693 0.251318
vt 0.037958 0.280012
vt 0.798547 0.889619
vt 0.818326 0.889619
vt 0.818326 0.960399
vt 0.798547 0.960399
vt 0.838104 0.889619
vt 0.818326 0.889619
vt 0.838104 0.960399
vt 0.818326 0.960399
vt 0.693247 0.341146
vt 0.667333 0.323770
vt 0.366354 0.798323
vt 0.575309 0.798323
vt 0.884602 0.209299
vt 0.589592 0.804998
vt 0.798547 0.804998
vt 0.615506 0.564384
vt 0.641419 0.581760
vt 0.805488 0.305165
vt 0.825267 0.305165
vt 0.366354 0.575084
vt 0.366354 0.513566
vt 0.378561 0.513566
vt 0.378561 0.575084
vt 0.378561 0.323770
vt 0.378561 0.385288
vt 0.366354 0.385288
vt 0.366354 0.323770
vt 0.577385 0.575084
vt 0.577385 0.513566
vt 0.589592 0.513566
vt 0.589592 0.575084
vt 0.589592 0.323770
vt 0.589592 0.385288
vt 0.577385 0.385288
vt 0.577385 0.323770
vt 0.515179 0.385288
vt 0.515179 0.323770
vt 0.515179 0.575084
vt 0.515179 0.513566
vt 0.440766 0.385288
vt 0.440766 0.323770
vt 0.440766 0.575084
vt 0.440766 0.513566
s 0
usemtl M_WallLaboratory
f 77/1/1 78/2/1 4/3/1 2/4/1
f 16/5/2 24/6/2 12/7/2 8/8/2
f 82/9/3 83/10/3 6/11/3 8/12/3
f 15/13/3 27/14/3 32/15/3 20/16/3
f 13/17/4 18/18/4 5/19/4 7/20/4
f 15/21/5 20/22/5 2/23/5 4/24/5
f 78/25/6 79/26/6 10/27/6 4/28/6
f 87/29/7 89/30/7 11/31/7 7/32/7
f 14/33/8 22/34/8 9/35/8 3/36/8
f 7/37/8 11/38/8 21/39/8 13/40/8
f 13/40/8 21/39/8 22/34/8 14/33/8
f 8/41/5 6/42/5 19/43/5 16/44/5
f 13/45/1 25/46/1 30/47/1 18/48/1
f 3/49/4 1/50/4 17/51/4 14/52/4
f 14/53/9 26/54/9 25/55/9 13/56/9
f 26/57/4 29/58/4 30/59/4 25/60/4
f 28/61/5 31/62/5 32/63/5 27/64/5
f 4/65/2 10/66/2 23/67/2 15/68/2
f 15/68/2 23/67/2 24/6/2 16/5/2
f 17/69/3 29/70/3 26/71/3 14/72/3
f 19/73/1 31/74/1 28/75/1 16/76/1
f 16/77/9 28/55/9 27/54/9 15/78/9
f 21/79/9 37/80/9 38/81/9 22/82/9
f 79/83/9 80/84/9 34/85/9 10/86/9
f 11/87/9 35/88/9 37/80/9 21/79/9
f 89/89/9 90/90/9 35/88/9 11/87/9
f 22/82/9 38/81/9 33/91/9 9/92/9
f 35/93/5 43/94/5 45/95/5 37/96/5
f 37/96/5 45/95/5 46/97/5 38/98/5
f 90/99/10 91/100/10 43/101/10 35/102/10
f 38/98/5 46/97/5 41/103/5 33/104/5
f 24/105/9 23/106/9 40/107/9 39/108/9
f 53/109/11 67/110/11 68/111/11 54/112/11
f 84/113/9 85/114/9 53/109/9 51/115/9
f 51/115/9 53/109/9 54/112/9 52/116/9
f 82/117/7 84/118/7 51/119/7 47/120/7
f 47/120/7 51/119/7 52/121/7 48/122/7
f 87/123/3 88/124/3 50/125/3 48/126/3
f 48/126/3 50/125/3 49/127/3 47/128/3
f 94/129/12 95/100/12 66/130/12 64/131/12
f 63/132/4 71/133/4 73/134/4 65/135/4
f 93/136/9 94/137/9 64/138/9 62/139/9
f 62/139/9 64/138/9 63/140/9 61/141/9
f 92/142/6 93/143/6 62/144/6 60/145/6
f 60/145/6 62/144/6 61/146/6 59/147/6
f 96/148/1 92/149/1 60/150/1 57/151/1
f 57/151/1 60/150/1 59/152/1 58/153/1
f 67/154/10 69/155/10 70/156/10 68/157/10
f 72/157/12 74/158/12 73/159/12 71/154/12
f 64/138/11 72/160/11 71/161/11 63/140/11
f 55/162/4 69/163/4 67/164/4 53/165/4
f 66/166/5 74/167/5 72/168/5 64/169/5
f 54/170/5 68/171/5 70/172/5 56/173/5
f 12/174/9 24/105/9 39/108/9 36/175/9
f 23/106/9 10/86/9 34/85/9 40/107/9
f 80/176/12 63/177/12 65/178/12 81/179/12
f 85/180/13 36/181/13 76/182/13 86/183/13
f 34/184/14 80/176/14 81/179/14 75/185/14
f 61/141/9 63/140/9 80/84/9 79/83/9
f 59/147/6 61/146/6 79/26/6 78/25/6
f 58/153/1 59/152/1 78/2/1 77/1/1
f 53/186/10 85/180/10 86/183/10 55/187/10
f 8/188/7 12/189/7 84/118/7 82/117/7
f 12/174/9 36/175/9 85/114/9 84/113/9
f 47/128/3 49/127/3 83/10/3 82/9/3
f 7/190/3 5/191/3 88/124/3 87/123/3
f 54/192/10 56/193/10 91/100/10 90/99/10
f 52/116/9 54/112/9 90/90/9 89/89/9
f 48/122/7 52/121/7 89/30/7 87/29/7
f 1/194/1 3/195/1 92/149/1 96/148/1
f 3/196/6 9/197/6 93/143/6 92/142/6
f 9/92/9 33/91/9 94/137/9 93/136/9
f 33/198/12 41/101/12 95/100/12 94/129/12
f 1/199/9 96/200/9 29/201/9 17/202/9
f 88/203/9 5/204/9 18/205/9 30/206/9
f 77/207/9 2/208/9 20/209/9 32/210/9
f 6/211/9 83/212/9 31/213/9 19/214/9
f 31/213/9 83/212/9 49/215/9 97/216/9
f 77/207/9 32/210/9 98/217/9 58/218/9
f 32/210/9 31/213/9 97/216/9 98/217/9
f 97/216/9 49/215/9 50/219/9 99/220/9
f 58/218/9 98/217/9 100/221/9 57/222/9
f 98/217/9 97/216/9 99/220/9 100/221/9
f 57/222/9 100/221/9 29/201/9 96/200/9
f 99/220/9 50/219/9 88/203/9 30/206/9
f 100/221/9 99/220/9 30/206/9 29/201/9
f 171/223/1 102/224/1 104/225/1 172/226/1
f 116/227/8 108/228/8 112/229/8 124/230/8
f 176/231/3 108/232/3 106/233/3 177/234/3
f 115/235/3 120/236/3 132/237/3 127/238/3
f 113/239/5 107/240/5 105/241/5 118/242/5
f 115/243/4 104/244/4 102/245/4 120/246/4
f 172/247/6 104/248/6 110/249/6 173/250/6
f 181/251/7 107/252/7 111/253/7 183/254/7
f 114/255/2 103/256/2 109/257/2 122/258/2
f 107/259/2 113/260/2 121/261/2 111/262/2
f 113/260/2 114/255/2 122/258/2 121/261/2
f 108/263/4 116/264/4 119/265/4 106/266/4
f 113/267/1 118/268/1 130/269/1 125/73/1
f 103/270/5 114/271/5 117/272/5 101/273/5
f 114/274/9 113/275/9 125/276/9 126/277/9
f 126/278/5 125/279/5 130/280/5 129/281/5
f 128/282/4 127/283/4 132/284/4 131/285/4
f 104/286/8 115/287/8 123/288/8 110/289/8
f 115/287/8 116/227/8 124/230/8 123/288/8
f 117/290/3 114/291/3 126/292/3 129/293/3
f 119/294/1 116/295/1 128/263/1 131/296/1
f 116/297/9 115/298/9 127/299/9 128/300/9
f 121/301/9 122/302/9 136/303/9 135/304/9
f 173/305/9 110/306/9 34/85/9 174/307/9
f 111/308/9 121/301/9 135/304/9 134/309/9
f 183/310/9 111/308/9 134/309/9 184/311/9
f 122/302/9 109/312/9 133/313/9 136/303/9
f 134/314/4 135/315/4 141/316/4 139/317/4
f 135/315/4 136/318/4 142/319/4 141/316/4
f 184/320/10 134/321/10 139/192/10 185/322/10
f 136/318/4 133/94/4 137/323/4 142/319/4
f 124/324/9 39/108/9 40/107/9 123/325/9
f 149/326/11 150/327/11 164/328/11 163/329/11
f 178/330/9 147/331/9 149/326/9 179/332/9
f 147/331/9 148/333/9 150/327/9 149/326/9
f 176/334/7 143/335/7 147/336/7 178/337/7
f 143/335/7 144/338/7 148/339/7 147/336/7
f 181/340/3 144/341/3 146/342/3 182/343/3
f 144/341/3 143/344/3 145/345/3 146/342/3
f 188/346/12 160/347/12 162/198/12 189/348/12
f 159/349/5 161/350/5 169/351/5 167/352/5
f 187/353/9 158/354/9 160/355/9 188/356/9
f 158/354/9 157/357/9 159/358/9 160/355/9
f 186/359/6 156/360/6 158/361/6 187/362/6
f 156/360/6 155/363/6 157/364/6 158/361/6
f 190/365/1 153/366/1 156/367/1 186/368/1
f 153/366/1 154/369/1 155/370/1 156/367/1
f 163/371/10 164/372/10 166/373/10 165/374/10
f 168/375/12 167/376/12 169/377/12 170/378/12
f 160/355/11 159/358/11 167/379/11 168/380/11
f 151/381/5 149/382/5 163/383/5 165/384/5
f 162/385/4 160/386/4 168/387/4 170/388/4
f 150/389/4 152/173/4 166/172/4 164/390/4
f 112/391/9 36/175/9 39/108/9 124/324/9
f 123/325/9 40/107/9 34/85/9 110/306/9
f 174/392/12 175/393/12 161/394/12 159/395/12
f 179/396/13 180/397/13 76/182/13 36/181/13
f 34/184/14 75/185/14 175/393/14 174/392/14
f 157/357/9 173/305/9 174/307/9 159/358/9
f 155/363/6 172/247/6 173/250/6 157/364/6
f 154/369/1 171/223/1 172/226/1 155/370/1
f 149/398/10 151/399/10 180/397/10 179/396/10
f 108/400/7 176/334/7 178/337/7 112/401/7
f 112/391/9 178/330/9 179/332/9 36/175/9
f 143/344/3 176/231/3 177/234/3 145/345/3
f 107/402/3 181/340/3 182/343/3 105/403/3
f 150/404/10 184/320/10 185/322/10 152/102/10
f 148/333/9 183/310/9 184/311/9 150/327/9
f 144/338/7 181/251/7 183/254/7 148/339/7
f 101/405/1 190/365/1 186/368/1 103/406/1
f 103/407/6 186/359/6 187/362/6 109/408/6
f 109/312/9 187/353/9 188/356/9 133/313/9
f 133/409/12 188/346/12 189/348/12 137/410/12
f 101/411/9 117/412/9 129/413/9 190/414/9
f 182/415/9 130/416/9 118/417/9 105/418/9
f 171/419/9 132/420/9 120/421/9 102/422/9
f 106/423/9 119/424/9 131/425/9 177/426/9
f 131/425/9 191/427/9 145/428/9 177/426/9
f 171/419/9 154/429/9 192/430/9 132/420/9
f 132/420/9 192/430/9 191/427/9 131/425/9
f 191/427/9 193/431/9 146/432/9 145/428/9
f 154/429/9 153/433/9 194/434/9 192/430/9
f 192/430/9 194/434/9 193/431/9 191/427/9
f 153/433/9 190/414/9 129/413/9 194/434/9
f 193/431/9 130/416/9 182/415/9 146/432/9
f 194/434/9 129/413/9 130/416/9 193/431/9
l 55 44
l 42 65
l 151 140
l 138 161
