# Blender 5.2.0 LTS
# www.blender.org
mtllib CellDoor.mtl
o CellDoor
v 0.099874 0.840171 0.715434
v 0.020000 0.840171 0.715434
v 0.020000 0.102891 0.715434
v 0.099874 0.840171 0.571622
v -0.099874 0.840171 0.571622
v -0.099874 0.102891 0.571622
v 0.020000 -0.869966 0.571622
v 0.099874 -0.869966 0.571622
v -0.099874 -0.869966 0.571622
v 0.019999 0.840171 0.571623
v 0.099874 0.102891 0.571622
v 0.019999 0.102891 0.571623
v 0.020000 -0.869966 0.715434
v 0.099874 -0.869966 0.715434
v 0.099874 0.102891 0.715434
v -0.099874 0.102891 0.715434
v -0.099874 -0.869966 0.715434
v 0.099874 0.840171 -0.715434
v 0.020000 0.840171 -0.715434
v 0.020000 0.102891 -0.715434
v 0.099874 0.840171 -0.571622
v -0.099874 0.840171 -0.571622
v -0.099874 0.102891 -0.571622
v 0.020000 -0.869966 -0.571622
v 0.099874 -0.869966 -0.571622
v -0.099874 -0.869966 -0.571622
v 0.019999 0.840171 -0.571623
v 0.099874 0.102891 -0.571622
v 0.019999 0.102891 -0.571623
v 0.020000 -0.869966 -0.715434
v 0.099874 -0.869966 -0.715434
v 0.099874 0.102891 -0.715434
v -0.099874 0.102891 -0.715434
v -0.099874 -0.869966 -0.715434
vn -0.0000 -1.0000 -0.0000
vn -0.0000 -0.0000 1.0000
vn 1.0000 -0.0000 -0.0000
vn -1.0000 -0.0000 -0.0000
vn -0.0000 1.0000 -0.0000
vn -0.0000 -0.0000 -1.0000
vt 0.070821 0.696899
vt 0.041176 0.696899
vt 0.041176 0.672188
vt 0.070821 0.672188
vt 0.041175 0.200542
vt 0.041175 0.352522
vt 0.024710 0.352522
vt 0.024710 0.200542
vt 0.393698 0.265310
vt 0.393698 0.294955
vt 0.241717 0.294955
vt 0.241717 0.265310
vt 0.041176 0.294955
vt 0.070821 0.294955
vt 0.070821 0.446936
vt 0.041176 0.446936
vt 0.041176 0.471646
vt 0.070821 0.471646
vt 0.070821 0.672188
vt 0.041176 0.672188
vt 0.024710 0.382167
vt 0.024710 0.617833
vt -0.000000 0.617833
vt -0.000000 0.382167
vt 0.041175 0.382167
vt 0.241717 0.029645
vt 0.393698 0.029645
vt 0.306486 0.696899
vt 0.306486 0.672188
vt 0.041176 0.265310
vt 0.041176 0.029645
vt 0.041175 0.617833
vt 0.306486 0.471646
vt 0.306486 0.672188
vt 0.306486 0.713364
vt 0.070821 0.713364
vt 0.041176 0.446936
vt 0.070821 0.446936
vt 0.095531 0.294955
vt 0.095531 0.446936
vt 0.041176 0.713364
vt 0.041176 0.294955
vt 0.000000 0.200542
vt 0.000000 0.000000
vt 0.024711 0.000000
vt 0.041175 0.000000
vt 0.336131 0.672188
vt 0.336131 0.696899
vt 0.041176 0.799458
vt 0.024711 0.799458
vt 0.024710 0.647478
vt 0.041175 0.647477
vt 0.241717 0.000000
vt 0.393698 0.000000
vt 0.385551 0.294955
vt 0.385551 0.446936
vt 0.355906 0.446936
vt 0.355906 0.294955
vt 0.336131 0.471646
vt 0.336131 0.672188
vt 0.336131 0.446936
vt 0.306486 0.446936
vt 0.331196 0.294955
vt 0.331196 0.446936
vt 0.336131 0.713364
vt 0.041176 0.000000
vt 0.000000 0.799458
vt 0.024711 1.000000
vt 0.000000 1.000000
vt 0.041176 1.000000
s 0
usemtl M_PrisonCellDoor
f 7/1/1 13/2/1 17/3/1 9/4/1
f 15/5/2 1/6/2 2/7/2 3/8/2
f 4/9/3 1/10/3 15/11/3 11/12/3
f 2/13/4 10/14/4 12/15/4 3/16/4
f 16/17/4 6/18/4 9/19/4 17/20/4
f 10/21/5 27/22/5 22/23/5 5/24/5
f 1/6/5 4/25/5 10/21/5 2/7/5
f 11/12/3 28/26/3 21/27/3 4/9/3
f 24/28/1 7/1/1 9/4/1 26/29/1
f 8/30/3 25/31/3 28/26/3 11/12/3
f 21/32/5 27/22/5 10/21/5 4/25/5
f 23/33/4 26/34/4 9/19/4 6/18/4
f 7/1/1 24/28/1 25/35/1 8/36/1
f 3/37/5 12/38/5 6/18/5 16/17/5
f 5/39/2 6/40/2 12/15/2 10/14/2
f 8/36/1 14/41/1 13/2/1 7/1/1
f 15/11/3 14/42/3 8/30/3 11/12/3
f 16/43/2 17/44/2 13/45/2 3/8/2
f 13/45/2 14/46/2 15/5/2 3/8/2
f 24/28/1 26/29/1 34/47/1 30/48/1
f 32/49/6 20/50/6 19/51/6 18/52/6
f 21/27/3 28/26/3 32/53/3 18/54/3
f 19/55/4 20/56/4 29/57/4 27/58/4
f 33/59/4 34/60/4 26/34/4 23/33/4
f 18/52/5 19/51/5 27/22/5 21/32/5
f 20/61/5 33/59/5 23/33/5 29/62/5
f 22/63/6 27/58/6 29/57/6 23/64/6
f 25/35/1 24/28/1 30/48/1 31/65/1
f 32/53/3 28/26/3 25/31/3 31/66/3
f 33/67/6 20/50/6 30/68/6 34/69/6
f 30/68/6 20/50/6 32/49/6 31/70/6
f 22/63/4 23/64/4 6/40/4 5/39/4
