# Blender 5.2.1 LTS
# www.blender.org
mtllib ConvictVentHatch.mtl
o ConvictVentHatch
v 0.666483 -0.666483 -0.024987
v 0.666483 0.666483 -0.024987
v -0.666483 -0.666483 -0.024987
v -0.666483 0.666483 -0.024987
v 0.752884 0.752884 -0.024987
v 0.752884 -0.752884 -0.024987
v -0.752884 -0.752884 -0.024987
v -0.752884 0.752884 -0.024987
v 0.752884 0.752884 0.024986
v 0.752884 -0.752884 0.024986
v -0.752884 -0.752884 0.024986
v -0.752884 0.752884 0.024986
v 0.666483 0.666483 0.024986
v 0.666483 -0.666483 0.024986
v -0.666483 -0.666483 0.024986
v -0.666483 0.666483 0.024986
v 0.666483 0.666483 -0.024987
v -0.666483 0.666483 -0.024987
v 0.666483 0.566247 0.024986
v -0.666483 0.566247 0.024986
v 0.666483 0.533168 -0.024987
v -0.666483 0.533168 -0.024987
v 0.666483 0.432932 0.024986
v -0.666483 0.432932 0.024986
v 0.666483 0.399854 -0.024987
v -0.666483 0.399854 -0.024987
v 0.666483 0.299617 0.024986
v -0.666483 0.299617 0.024986
v 0.666483 0.266539 -0.024987
v -0.666483 0.266539 -0.024987
v 0.666483 0.166302 0.024986
v -0.666483 0.166302 0.024986
v 0.666483 0.133224 -0.024987
v -0.666483 0.133224 -0.024987
v 0.666483 0.032988 0.024986
v -0.666483 0.032988 0.024986
v 0.666483 -0.000091 -0.024987
v -0.666483 -0.000091 -0.024987
v 0.666483 -0.100327 0.024986
v -0.666483 -0.100327 0.024986
v 0.666483 -0.133405 -0.024987
v -0.666483 -0.133405 -0.024987
v 0.666483 -0.233642 0.024986
v -0.666483 -0.233642 0.024986
v 0.666483 -0.266720 -0.024987
v -0.666483 -0.266720 -0.024987
v 0.666483 -0.366957 0.024986
v -0.666483 -0.366957 0.024986
v 0.666483 -0.400035 -0.024987
v -0.666483 -0.400035 -0.024987
v 0.666483 -0.500271 0.024986
v -0.666483 -0.500271 0.024986
v 0.666483 -0.533350 -0.024987
v -0.666483 -0.533350 -0.024987
v 0.666483 -0.633586 0.024986
v -0.666483 -0.633586 0.024986
vn -0.0000 -0.0000 -1.0000
vn -0.0000 -0.0000 1.0000
vn -0.0000 -1.0000 -0.0000
vn -1.0000 -0.0000 -0.0000
vn -0.0000 1.0000 -0.0000
vn 1.0000 -0.0000 -0.0000
vn -0.0000 0.4462 0.8949
vt 0.041252 0.647540
vt 0.022125 0.666667
vt 0.022125 0.333333
vt 0.041252 0.352460
vt 0.355459 0.333333
vt 0.336332 0.352460
vt 0.336332 0.647540
vt 0.355459 0.666667
vt 0.041252 0.019127
vt 0.041252 0.314207
vt 0.022125 0.333333
vt 0.022125 0.000000
vt 0.336332 0.314207
vt 0.355459 0.333333
vt 0.336332 0.019127
vt 0.355459 0.000000
vt 0.011063 0.885239
vt 0.011063 0.590160
vt 0.022125 0.590160
vt 0.022125 0.885239
vt 0.011063 0.295080
vt 0.022125 0.295080
vt 0.011063 0.666667
vt 0.011063 1.000000
vt 0.000000 1.000000
vt 0.000000 0.666667
vt 0.011063 0.333333
vt 0.000000 0.333333
vt 0.402378 0.295080
vt 0.402378 0.590160
vt 0.391316 0.590160
vt 0.391316 0.295080
vt 0.011063 0.000000
vt 0.022125 0.000000
vt 0.355459 0.333333
vt 0.366521 0.000000
vt 0.366521 0.333333
vt 0.011063 0.000000
vt 0.000000 0.000000
vt 0.490492 0.000000
vt 0.490492 0.295080
vt 0.465698 0.295080
vt 0.465698 -0.000000
vt 0.490492 0.295080
vt 0.490492 -0.000000
vt 0.515287 0.000000
vt 0.515287 0.295080
vt 0.366521 0.590160
vt 0.366521 0.295080
vt 0.391315 0.295080
vt 0.391315 0.590160
vt 0.440904 0.295080
vt 0.440904 -0.000000
vt 0.465698 0.000000
vt 0.465698 0.295080
vt 0.515287 0.295080
vt 0.515287 0.000000
vt 0.540081 0.000000
vt 0.540081 0.295080
vt 0.589669 -0.000000
vt 0.589669 0.295080
vt 0.564875 0.295080
vt 0.564875 -0.000000
vt 0.391316 0.295080
vt 0.391316 -0.000000
vt 0.416110 0.000000
vt 0.416110 0.295080
vt 0.366521 0.295080
vt 0.366521 -0.000000
vt 0.391315 0.000000
vt 0.391315 0.295080
vt 0.564875 0.000000
vt 0.564875 0.295080
vt 0.540081 0.295080
vt 0.540081 -0.000000
vt 0.440904 0.000000
vt 0.440904 0.295080
vt 0.416110 0.295080
vt 0.416110 0.000000
s 0
usemtl M_MetalGrate
f 2/1/1 5/2/1 6/3/1 1/4/1
f 1/4/1 6/3/1 7/5/1 3/6/1
f 4/7/1 8/8/1 5/2/1 2/1/1
f 3/6/1 7/5/1 8/8/1 4/7/1
f 13/9/2 14/10/2 10/11/2 9/12/2
f 14/10/2 15/13/2 11/14/2 10/11/2
f 16/15/2 13/9/2 9/12/2 12/16/2
f 15/13/2 16/15/2 12/16/2 11/14/2
f 4/17/3 2/18/3 13/19/3 16/20/3
f 2/18/4 1/21/4 14/22/4 13/19/4
f 5/23/5 8/24/5 12/25/5 9/26/5
f 6/27/6 5/23/6 9/26/6 10/28/6
f 3/29/6 4/30/6 16/31/6 15/32/6
f 1/21/5 3/33/5 15/34/5 14/22/5
f 8/35/4 7/16/4 11/36/4 12/37/4
f 7/38/3 6/27/3 10/28/3 11/39/3
f 17/40/7 18/41/7 20/42/7 19/43/7
f 21/44/7 22/45/7 24/46/7 23/47/7
f 25/48/7 26/49/7 28/50/7 27/51/7
f 29/52/7 30/53/7 32/54/7 31/55/7
f 33/56/7 34/57/7 36/58/7 35/59/7
f 37/60/7 38/61/7 40/62/7 39/63/7
f 41/64/7 42/65/7 44/66/7 43/67/7
f 45/68/7 46/69/7 48/70/7 47/71/7
f 49/72/7 50/73/7 52/74/7 51/75/7
f 53/76/7 54/77/7 56/78/7 55/79/7
