# Blender 5.1.2
# www.blender.org
mtllib ConvictVentEntrance.mtl
o ConvictVentEntrance
v 0.707581 -0.707581 2.342093
v 0.707581 0.707581 2.342093
v -0.707581 -0.707581 2.342093
v -0.707581 0.707581 2.342093
v -0.799311 0.799311 -2.278933
v 0.799311 0.799311 -2.278933
v 0.799311 -0.799311 -2.278933
v -0.799311 -0.799311 -2.278933
v 0.799311 0.799311 2.342093
v 0.799311 -0.799311 2.342093
v -0.799311 -0.799311 2.342093
v -0.799311 0.799311 2.342093
v 0.707581 0.707581 1.748945
v 0.707581 -0.707581 1.748945
v -0.707581 -0.707581 1.748945
v -0.707581 0.707581 1.748945
vn -1.0000 -0.0000 -0.0000
vn -0.0000 -1.0000 -0.0000
vn -0.0000 1.0000 -0.0000
vn -0.0000 -0.0000 -1.0000
vn 1.0000 -0.0000 -0.0000
vn -0.0000 -0.0000 1.0000
vt 0.625000 0.500000
vt 0.625000 0.750000
vt 0.375000 0.750000
vt 0.375000 0.500000
vt 0.610655 0.264345
vt 0.610655 0.485655
vt 0.375000 1.000000
vt 0.125000 0.500000
vt 0.875000 0.500000
vt 0.625000 0.000000
vt 0.625000 1.000000
vt 0.375000 0.250000
vt 0.375000 0.000000
vt 0.625000 0.250000
vt 0.389345 0.264345
vt 0.389345 0.485655
s 0
f 12/1/1 5/2/1 8/3/1 11/4/1
f 2/5/2 4/6/2 16/6/2 13/5/2
f 11/4/2 8/3/2 7/7/2 10/8/2
f 9/9/3 6/10/3 5/2/3 12/1/3
f 8/3/4 5/2/4 6/11/4 7/7/4
f 10/12/5 7/13/5 6/10/5 9/14/5
f 2/5/6 1/15/6 10/12/6 9/14/6
f 1/15/6 3/16/6 11/4/6 10/12/6
f 4/6/6 2/5/6 9/14/6 12/1/6
f 3/16/6 4/6/6 12/1/6 11/4/6
f 14/15/6 13/5/6 16/6/6 15/16/6
f 1/15/1 2/5/1 13/5/1 14/15/1
f 4/6/5 3/16/5 15/16/5 16/6/5
f 3/16/3 1/15/3 14/15/3 15/16/3
