# Blender 5.2.1 LTS
# www.blender.org
mtllib DoorSlidingBasic.mtl
o DoorSlidingExit
v 0.000000 2.290571 0.541942
v 0.000000 2.290571 0.482098
v 0.000000 2.173686 0.541942
v 0.000000 2.173686 0.482098
v 0.000000 2.274141 0.482492
v 0.000000 2.190116 0.482492
v 0.000000 2.274141 -0.600075
v 0.000000 2.190116 -0.600075
v 0.000000 0.136618 0.541942
v 0.000000 0.136618 0.482098
v 0.000000 0.253504 0.541942
v 0.000000 0.253504 0.482098
v 0.000000 0.153049 0.482492
v 0.000000 0.237073 0.482492
v 0.000000 0.153049 -0.600075
v 0.000000 0.237073 -0.600075
v 0.000000 2.278638 0.541942
v 0.000000 2.185762 0.541942
v 0.000000 2.327184 -0.600075
v 0.000000 2.278638 -0.600075
v 0.000000 2.327184 0.541942
v 0.000000 2.278639 0.555613
v 0.000000 2.327184 0.555613
v 0.000000 2.185762 0.555613
v 0.000000 0.148551 0.541942
v 0.000000 0.241427 0.541942
v 0.000000 0.100005 -0.600075
v 0.000000 0.148551 -0.600075
v 0.000000 0.100005 0.541942
v 0.000000 0.148551 0.555613
v 0.000000 0.100005 0.555613
v 0.000000 0.241427 0.555613
v 0.000000 2.232128 0.482098
v 0.000000 2.185762 -0.600075
v 0.000000 0.195061 0.482098
v 0.123398 2.278639 -0.600075
v 0.123398 2.278639 0.639126
v 0.123398 2.327184 -0.600075
v 0.123398 2.327184 0.639126
v 0.123398 2.185762 0.639126
v 0.123398 2.185762 -0.600075
v 0.123398 2.327184 0.541942
v 0.123398 2.278639 0.541942
v 0.123398 2.185762 0.541942
v 0.041325 2.273453 0.541942
v 0.041325 2.273453 0.482098
v 0.058443 2.232128 0.541942
v 0.058443 2.232128 0.482098
v 0.041325 2.190803 0.541942
v 0.041325 2.190803 0.482098
v 0.029707 2.261836 0.482492
v 0.042012 2.232128 0.482492
v 0.029707 2.202421 0.482492
v 0.029707 2.261836 -0.600075
v 0.042012 2.232128 -0.600075
v 0.029707 2.202421 -0.600075
v 0.099879 2.327184 0.639126
v 0.099879 2.278639 0.639126
v 0.099879 2.278638 0.541942
v 0.099879 2.185762 0.639126
v 0.099879 2.327184 0.541942
v 0.099879 2.185762 0.541942
v 0.099879 2.327184 -0.600075
v 0.099879 2.278638 -0.600075
v 0.099879 2.278639 0.555613
v 0.099879 2.327184 0.555613
v 0.099879 2.185762 0.555613
v 0.123398 0.148551 -0.600075
v 0.123398 0.148551 0.639126
v 0.123398 0.100005 -0.600075
v 0.123398 0.100005 0.639126
v 0.123398 0.241427 0.639126
v 0.123398 0.241427 -0.600075
v 0.123398 0.100005 0.541942
v 0.123398 0.148551 0.541942
v 0.123398 0.241427 0.541942
v 0.041325 0.153736 0.541942
v 0.041325 0.153736 0.482098
v 0.058443 0.195061 0.541942
v 0.058443 0.195061 0.482098
v 0.041325 0.236386 0.541942
v 0.041325 0.236386 0.482098
v 0.029707 0.165354 0.482492
v 0.042012 0.195061 0.482492
v 0.029707 0.224768 0.482492
v 0.029707 0.165354 -0.600075
v 0.042012 0.195061 -0.600075
v 0.029707 0.224768 -0.600075
v 0.099879 0.100005 0.639126
v 0.099879 0.148551 0.639126
v 0.099879 0.148551 0.541942
v 0.099879 0.241427 0.639126
v 0.099879 0.100005 0.541942
v 0.099879 0.100005 -0.600075
v 0.099879 0.148551 -0.600075
v 0.099879 0.148551 0.555613
v 0.099879 0.100005 0.555613
v 0.099879 0.241427 0.555613
v 0.099879 2.185762 -0.600075
v 0.099879 0.241427 -0.600075
v 0.099879 0.241427 0.541942
v 0.000000 0.241427 -0.600075
v 0.123398 2.327184 0.555613
v 0.123398 2.278639 0.555613
v 0.123398 2.185762 0.555613
v 0.123398 0.100005 0.555613
v 0.123398 0.148551 0.555613
v 0.123398 0.241427 0.555613
v 0.000000 1.296876 0.555613
v 0.123398 1.296876 0.639126
v 0.123398 1.296876 0.541942
v 0.099879 1.296876 0.639126
v 0.099879 1.296876 0.555613
v 0.123398 1.296876 -0.600075
v 0.123398 1.296876 0.555613
v 0.000000 1.552176 0.555613
v 0.123398 1.552176 0.639126
v 0.123398 1.552176 0.541942
v 0.099879 1.552176 0.639126
v 0.099879 1.552176 0.555613
v 0.123398 1.552176 -0.600075
v 0.123398 1.552176 0.555613
v 0.123398 1.148991 0.555613
v 0.000000 1.148991 0.555613
v 0.123398 1.148991 0.639126
v 0.123398 1.148991 0.541942
v 0.099879 1.148991 0.639126
v 0.099879 1.148991 0.555613
v 0.123398 1.148991 -0.600075
v 0.000000 1.256140 0.555613
v 0.123398 1.256140 0.639126
v 0.123398 1.256140 0.541942
v 0.099879 1.256140 0.639126
v 0.099879 1.256140 0.555613
v 0.123398 1.256140 0.555613
v 0.121298 1.256140 0.541942
v 0.106342 1.296876 0.541942
v 0.121298 1.256140 -0.600075
v 0.106342 1.296876 -0.600075
v 0.106342 1.148991 0.541942
v 0.106342 1.148991 -0.600075
v 0.000000 2.185762 0.061011
v 0.123398 0.241427 0.061011
v 0.123398 2.185762 0.061011
v 0.099879 2.185762 0.061011
v 0.099879 0.241427 0.061011
v 0.000000 0.241427 0.061011
v 0.123398 1.296876 0.061011
v 0.123398 1.552176 0.061011
v 0.123398 1.148991 0.061011
v 0.106342 1.296876 0.061011
v 0.106342 1.148991 0.061011
v 0.121298 1.256140 0.061011
v 0.000000 2.185762 -0.179251
v 0.123398 0.241427 -0.179251
v 0.123398 2.185762 -0.179251
v 0.099879 2.185762 -0.179251
v 0.099879 0.241427 -0.179251
v 0.123398 1.296876 -0.179251
v 0.123398 1.552176 -0.179251
v 0.123398 1.148991 -0.179251
v 0.106342 1.296876 -0.179251
v 0.106342 1.148991 -0.179251
v 0.121298 1.256140 -0.179251
v 0.000000 0.241427 -0.179251
v 0.096109 1.296876 0.050971
v 0.096109 1.296876 -0.169211
v 0.096109 1.542136 0.050971
v 0.096109 1.542136 -0.169211
v 0.113358 1.296876 0.050971
v 0.113358 1.542136 0.050971
v 0.113358 1.296876 -0.169211
v 0.113358 1.542136 -0.169211
v 0.150675 1.494116 -0.149989
v 0.148143 1.488743 -0.161117
v 0.116522 1.488743 -0.161117
v 0.116522 1.488743 0.042878
v 0.096109 1.299320 -0.161117
v 0.096109 1.535772 -0.161117
v 0.096109 1.299320 0.042878
v 0.096109 1.535772 0.042878
v 0.127730 1.299320 -0.161117
v 0.132881 1.304471 -0.155966
v 0.127730 1.535772 -0.161117
v 0.135500 1.525248 -0.149989
v 0.132881 1.304471 0.037727
v 0.127730 1.299320 0.042878
v 0.127730 1.535772 0.042878
v 0.135500 1.525248 0.031749
v 0.148143 1.488743 0.042878
v 0.150675 1.494116 0.031749
v 0.132881 1.530621 -0.155966
v 0.153294 1.488743 -0.155966
v 0.132881 1.530621 0.037727
v 0.153294 1.488743 0.037727
v 0.133432 1.524240 -0.149989
v 0.148607 1.493108 -0.149989
v 0.133432 1.524240 0.031749
v 0.148607 1.493108 0.031749
v 0.134879 1.521271 -0.146562
v 0.147160 1.496076 -0.146562
v 0.134879 1.521271 0.028322
v 0.147160 1.496076 0.028322
v 0.136111 1.521872 -0.146562
v 0.137355 1.521443 -0.145632
v 0.148821 1.497920 -0.145632
v 0.148392 1.496676 -0.146562
v 0.136111 1.521872 0.028322
v 0.137355 1.521443 0.027392
v 0.148392 1.496676 0.028322
v 0.148821 1.497920 0.027392
v 0.000000 0.241427 0.050971
v 0.123398 0.241427 0.050971
v 0.099879 0.241427 0.050971
v 0.123398 1.148991 0.050971
v 0.106342 1.296876 0.050971
v 0.106342 1.148991 0.050971
v 0.121298 1.256140 0.050971
v 0.123398 0.241427 -0.169211
v 0.099879 0.241427 -0.169211
v 0.000000 0.241427 -0.169211
v 0.123398 1.148991 -0.169211
v 0.106342 1.296876 -0.169211
v 0.106342 1.148991 -0.169211
v 0.121298 1.256140 -0.169211
v 0.106342 1.542136 0.050971
v 0.106342 1.542136 -0.169211
v 0.000000 0.241427 0.275495
v 0.000000 0.241427 0.327458
v 0.000000 2.185762 0.327458
v 0.000000 2.185762 0.275495
v 0.123398 0.241427 0.327458
v 0.123398 0.241427 0.275495
v 0.123398 2.185762 0.327458
v 0.123398 2.185762 0.275495
v 0.099879 2.185762 0.327458
v 0.099879 2.185762 0.275495
v 0.099879 0.241427 0.327458
v 0.099879 0.241427 0.275495
v 0.123398 1.552176 0.327458
v 0.123398 1.552176 0.275495
v 0.123398 1.148991 0.327458
v 0.123398 1.148991 0.275495
v 0.047105 1.167202 0.275495
v 0.047105 1.167202 0.327458
v 0.072744 1.312848 0.275495
v 0.072744 1.312848 0.327458
v 0.080412 1.270136 0.327458
v 0.080412 1.270136 0.275495
v 0.123398 1.316770 0.555613
v 0.000000 1.316770 0.555613
v 0.123398 1.316770 0.639126
v 0.123398 1.316770 0.541942
v 0.099879 1.316770 0.639126
v 0.099879 1.316770 0.555613
v 0.123398 1.316770 -0.600075
v 0.123398 1.316770 0.061011
v 0.123398 1.316770 -0.179251
v 0.096109 1.315987 0.050971
v 0.096109 1.315987 -0.169211
v 0.113358 1.315987 0.050971
v 0.113358 1.315987 -0.169211
v 0.106342 1.315987 -0.169211
v 0.106342 1.315987 0.050971
v 0.111032 1.304520 0.327458
v 0.123398 1.296876 0.339836
v 0.111032 1.304520 0.275495
v 0.123398 1.296876 0.263116
v 0.106342 1.296876 0.339836
v 0.090662 1.304330 0.327458
v 0.090662 1.304330 0.275495
v 0.106342 1.296876 0.263116
v 0.091870 1.148991 0.327458
v 0.106342 1.148991 0.339836
v 0.091870 1.148991 0.315079
v 0.106342 1.148991 0.263116
v 0.091870 1.148991 0.275495
v 0.091870 1.148991 0.287873
v 0.121298 1.256140 0.339836
v 0.106794 1.261105 0.327458
v 0.106794 1.261105 0.275495
v 0.121298 1.256140 0.263116
v 0.123398 1.329148 0.263116
v 0.111032 1.315812 0.275495
v 0.111032 1.315812 0.327458
v 0.123398 1.329148 0.339836
v 0.121215 1.159674 0.308889
v 0.121215 1.159674 0.294297
v 0.165660 1.291287 0.294297
v 0.165660 1.291287 0.308889
v -0.000847 1.232403 0.308889
v -0.000847 1.232403 0.294297
v -0.007644 1.212276 0.294297
v -0.007644 1.212276 0.308889
v 0.031293 1.327576 0.308889
v 0.031293 1.327576 0.294297
v 0.024496 1.307449 0.294297
v 0.024496 1.307449 0.308889
v 0.130766 1.187958 0.294297
v 0.130766 1.187958 0.308889
v 0.123970 1.167831 0.308889
v 0.123970 1.167831 0.294297
v 0.162906 1.283130 0.294297
v 0.162906 1.283130 0.308889
v 0.156109 1.263003 0.308889
v 0.156109 1.263003 0.294297
v 0.110401 1.194835 0.294297
v 0.110401 1.194835 0.308889
v 0.103604 1.174708 0.308889
v 0.103604 1.174708 0.294297
v 0.135744 1.269881 0.308889
v 0.135744 1.269881 0.294297
v 0.142540 1.290008 0.294297
v 0.142540 1.290008 0.308889
v 0.145295 1.298164 0.308889
v 0.145295 1.298164 0.294297
v 0.100850 1.166551 0.308889
v 0.100850 1.166551 0.294297
v 0.115490 1.161607 0.287873
v 0.121215 1.159674 0.292121
v 0.165660 1.291287 0.292121
v 0.159936 1.293220 0.287873
v 0.121215 1.159674 0.311064
v 0.115490 1.161607 0.315312
v 0.159936 1.293220 0.315312
v 0.165660 1.291287 0.311064
v 0.135744 1.269881 0.292121
v 0.141468 1.267947 0.287873
v 0.148265 1.288074 0.287873
v 0.142540 1.290008 0.292121
v 0.103604 1.174708 0.292121
v 0.109329 1.172775 0.287873
v 0.116126 1.192902 0.287873
v 0.110401 1.194835 0.292121
v 0.151020 1.296231 0.287873
v 0.145295 1.298164 0.292121
v 0.100850 1.166551 0.292121
v 0.106574 1.164618 0.287873
v 0.145295 1.298164 0.311064
v 0.151020 1.296231 0.315312
v 0.106574 1.164618 0.315312
v 0.100850 1.166551 0.311064
v 0.125042 1.189891 0.287873
v 0.130766 1.187958 0.292121
v 0.123970 1.167831 0.292121
v 0.118245 1.169764 0.287873
v 0.157181 1.285064 0.287873
v 0.162906 1.283130 0.292121
v 0.156109 1.263003 0.292121
v 0.150384 1.264937 0.287873
v 0.150384 1.264937 0.315312
v 0.156109 1.263003 0.311064
v 0.162906 1.283130 0.311064
v 0.157181 1.285064 0.315312
v 0.118245 1.169764 0.315312
v 0.123970 1.167831 0.311064
v 0.130766 1.187958 0.311064
v 0.125042 1.189891 0.315312
v 0.116126 1.192902 0.315312
v 0.110401 1.194835 0.311064
v 0.103604 1.174708 0.311064
v 0.109329 1.172775 0.315312
v 0.148265 1.288074 0.315312
v 0.142540 1.290008 0.311064
v 0.135744 1.269881 0.311064
v 0.141468 1.267947 0.315312
v -0.123398 2.278639 -0.600075
v -0.123398 2.278639 0.639126
v -0.123398 2.327184 -0.600075
v -0.123398 2.327184 0.639126
v -0.123398 2.185762 0.639126
v -0.123398 2.185762 -0.600075
v -0.123398 2.327184 0.541942
v -0.123398 2.278639 0.541942
v -0.123398 2.185762 0.541942
v -0.041325 2.273453 0.541942
v -0.041325 2.273453 0.482098
v -0.058443 2.232128 0.541942
v -0.058443 2.232128 0.482098
v -0.041325 2.190803 0.541942
v -0.041325 2.190803 0.482098
v -0.029707 2.261836 0.482492
v -0.042012 2.232128 0.482492
v -0.029707 2.202421 0.482492
v -0.029707 2.261836 -0.600075
v -0.042012 2.232128 -0.600075
v -0.029707 2.202421 -0.600075
v -0.099879 2.327184 0.639126
v -0.099879 2.278639 0.639126
v -0.099879 2.278638 0.541942
v -0.099879 2.185762 0.639126
v -0.099879 2.327184 0.541942
v -0.099879 2.185762 0.541942
v -0.099879 2.327184 -0.600075
v -0.099879 2.278638 -0.600075
v -0.099879 2.278639 0.555613
v -0.099879 2.327184 0.555613
v -0.099879 2.185762 0.555613
v -0.123398 0.148551 -0.600075
v -0.123398 0.148551 0.639126
v -0.123398 0.100005 -0.600075
v -0.123398 0.100005 0.639126
v -0.123398 0.241427 0.639126
v -0.123398 0.241427 -0.600075
v -0.123398 0.100005 0.541942
v -0.123398 0.148551 0.541942
v -0.123398 0.241427 0.541942
v -0.041325 0.153736 0.541942
v -0.041325 0.153736 0.482098
v -0.058443 0.195061 0.541942
v -0.058443 0.195061 0.482098
v -0.041325 0.236386 0.541942
v -0.041325 0.236386 0.482098
v -0.029707 0.165354 0.482492
v -0.042012 0.195061 0.482492
v -0.029707 0.224768 0.482492
v -0.029707 0.165354 -0.600075
v -0.042012 0.195061 -0.600075
v -0.029707 0.224768 -0.600075
v -0.099879 0.100005 0.639126
v -0.099879 0.148551 0.639126
v -0.099879 0.148551 0.541942
v -0.099879 0.241427 0.639126
v -0.099879 0.100005 0.541942
v -0.099879 0.100005 -0.600075
v -0.099879 0.148551 -0.600075
v -0.099879 0.148551 0.555613
v -0.099879 0.100005 0.555613
v -0.099879 0.241427 0.555613
v -0.099879 2.185762 -0.600075
v -0.099879 0.241427 -0.600075
v -0.099879 0.241427 0.541942
v -0.123398 2.327184 0.555613
v -0.123398 2.278639 0.555613
v -0.123398 2.185762 0.555613
v -0.123398 0.100005 0.555613
v -0.123398 0.148551 0.555613
v -0.123398 0.241427 0.555613
v -0.123398 1.296876 0.639126
v -0.123398 1.296876 0.541942
v -0.099879 1.296876 0.639126
v -0.099879 1.296876 0.555613
v -0.123398 1.296876 -0.600075
v -0.123398 1.296876 0.555613
v -0.123398 1.552176 0.639126
v -0.123398 1.552176 0.541942
v -0.099879 1.552176 0.639126
v -0.099879 1.552176 0.555613
v -0.123398 1.552176 -0.600075
v -0.123398 1.552176 0.555613
v -0.123398 1.148991 0.555613
v -0.123398 1.148991 0.639126
v -0.123398 1.148991 0.541942
v -0.099879 1.148991 0.639126
v -0.099879 1.148991 0.555613
v -0.123398 1.148991 -0.600075
v -0.123398 1.256140 0.639126
v -0.123398 1.256140 0.541942
v -0.099879 1.256140 0.639126
v -0.099879 1.256140 0.555613
v -0.123398 1.256140 0.555613
v -0.121298 1.256140 0.541942
v -0.106342 1.296876 0.541942
v -0.121298 1.256140 -0.600075
v -0.106342 1.296876 -0.600075
v -0.106342 1.148991 0.541942
v -0.106342 1.148991 -0.600075
v -0.123398 0.241427 0.061011
v -0.123398 2.185762 0.061011
v -0.099879 2.185762 0.061011
v -0.099879 0.241427 0.061011
v -0.123398 1.296876 0.061011
v -0.123398 1.552176 0.061011
v -0.123398 1.148991 0.061011
v -0.106342 1.296876 0.061011
v -0.106342 1.148991 0.061011
v -0.121298 1.256140 0.061011
v -0.123398 0.241427 -0.179251
v -0.123398 2.185762 -0.179251
v -0.099879 2.185762 -0.179251
v -0.099879 0.241427 -0.179251
v -0.123398 1.296876 -0.179251
v -0.123398 1.552176 -0.179251
v -0.123398 1.148991 -0.179251
v -0.106342 1.296876 -0.179251
v -0.106342 1.148991 -0.179251
v -0.121298 1.256140 -0.179251
v -0.096109 1.296876 0.050971
v -0.096109 1.296876 -0.169211
v -0.096109 1.542136 0.050971
v -0.096109 1.542136 -0.169211
v -0.113358 1.296876 0.050971
v -0.113358 1.542136 0.050971
v -0.113358 1.296876 -0.169211
v -0.113358 1.542136 -0.169211
v -0.150675 1.494116 -0.149989
v -0.148143 1.488743 -0.161117
v -0.116522 1.488743 -0.161117
v -0.116522 1.488743 0.042878
v -0.096109 1.299320 -0.161117
v -0.096109 1.535772 -0.161117
v -0.096109 1.299320 0.042878
v -0.096109 1.535772 0.042878
v -0.127730 1.299320 -0.161117
v -0.132881 1.304471 -0.155966
v -0.127730 1.535772 -0.161117
v -0.135500 1.525248 -0.149989
v -0.132881 1.304471 0.037727
v -0.127730 1.299320 0.042878
v -0.127730 1.535772 0.042878
v -0.135500 1.525248 0.031749
v -0.148143 1.488743 0.042878
v -0.150675 1.494116 0.031749
v -0.132881 1.530621 -0.155966
v -0.153294 1.488743 -0.155966
v -0.132881 1.530621 0.037727
v -0.153294 1.488743 0.037727
v -0.133432 1.524240 -0.149989
v -0.148607 1.493108 -0.149989
v -0.133432 1.524240 0.031749
v -0.148607 1.493108 0.031749
v -0.134879 1.521271 -0.146562
v -0.147160 1.496076 -0.146562
v -0.134879 1.521271 0.028322
v -0.147160 1.496076 0.028322
v -0.136111 1.521872 -0.146562
v -0.137355 1.521443 -0.145632
v -0.148821 1.497920 -0.145632
v -0.148392 1.496676 -0.146562
v -0.136111 1.521872 0.028322
v -0.137355 1.521443 0.027392
v -0.148392 1.496676 0.028322
v -0.148821 1.497920 0.027392
v -0.123398 0.241427 0.050971
v -0.099879 0.241427 0.050971
v -0.123398 1.148991 0.050971
v -0.106342 1.296876 0.050971
v -0.106342 1.148991 0.050971
v -0.121298 1.256140 0.050971
v -0.123398 0.241427 -0.169211
v -0.099879 0.241427 -0.169211
v -0.123398 1.148991 -0.169211
v -0.106342 1.296876 -0.169211
v -0.106342 1.148991 -0.169211
v -0.121298 1.256140 -0.169211
v -0.106342 1.542136 0.050971
v -0.106342 1.542136 -0.169211
v -0.123398 0.241427 0.327458
v -0.123398 0.241427 0.275495
v -0.123398 2.185762 0.327458
v -0.123398 2.185762 0.275495
v -0.099879 2.185762 0.327458
v -0.099879 2.185762 0.275495
v -0.099879 0.241427 0.327458
v -0.099879 0.241427 0.275495
v -0.123398 1.552176 0.327458
v -0.123398 1.552176 0.275495
v -0.123398 1.148991 0.327458
v -0.123398 1.148991 0.275495
v -0.047105 1.167202 0.275495
v -0.047105 1.167202 0.327458
v -0.072744 1.312848 0.275495
v -0.072744 1.312848 0.327458
v -0.080412 1.270136 0.327458
v -0.080412 1.270136 0.275495
v -0.123398 1.316770 0.555613
v -0.123398 1.316770 0.639126
v -0.123398 1.316770 0.541942
v -0.099879 1.316770 0.639126
v -0.099879 1.316770 0.555613
v -0.123398 1.316770 -0.600075
v -0.123398 1.316770 0.061011
v -0.123398 1.316770 -0.179251
v -0.096109 1.315987 0.050971
v -0.096109 1.315987 -0.169211
v -0.113358 1.315987 0.050971
v -0.113358 1.315987 -0.169211
v -0.106342 1.315987 -0.169211
v -0.106342 1.315987 0.050971
v -0.111032 1.304520 0.327458
v -0.123398 1.296876 0.339836
v -0.111032 1.304520 0.275495
v -0.123398 1.296876 0.263116
v -0.106342 1.296876 0.339836
v -0.090662 1.304330 0.327458
v -0.090662 1.304330 0.275495
v -0.106342 1.296876 0.263116
v -0.091870 1.148991 0.327458
v -0.106342 1.148991 0.339836
v -0.091870 1.148991 0.315079
v -0.106342 1.148991 0.263116
v -0.091870 1.148991 0.275495
v -0.091870 1.148991 0.287873
v -0.121298 1.256140 0.339836
v -0.106794 1.261105 0.327458
v -0.106794 1.261105 0.275495
v -0.121298 1.256140 0.263116
v -0.123398 1.329148 0.263116
v -0.111032 1.315812 0.275495
v -0.111032 1.315812 0.327458
v -0.123398 1.329148 0.339836
v -0.121215 1.159674 0.308889
v -0.121215 1.159674 0.294297
v -0.165660 1.291287 0.294297
v -0.165660 1.291287 0.308889
v 0.000847 1.232403 0.308889
v 0.000847 1.232403 0.294297
v 0.007644 1.212276 0.294297
v 0.007644 1.212276 0.308889
v -0.031293 1.327576 0.308889
v -0.031293 1.327576 0.294297
v -0.024496 1.307449 0.294297
v -0.024496 1.307449 0.308889
v -0.130766 1.187958 0.294297
v -0.130766 1.187958 0.308889
v -0.123970 1.167831 0.308889
v -0.123970 1.167831 0.294297
v -0.162906 1.283130 0.294297
v -0.162906 1.283130 0.308889
v -0.156109 1.263003 0.308889
v -0.156109 1.263003 0.294297
v -0.110401 1.194835 0.294297
v -0.110401 1.194835 0.308889
v -0.103604 1.174708 0.308889
v -0.103604 1.174708 0.294297
v -0.135744 1.269881 0.308889
v -0.135744 1.269881 0.294297
v -0.142540 1.290008 0.294297
v -0.142540 1.290008 0.308889
v -0.145295 1.298164 0.308889
v -0.145295 1.298164 0.294297
v -0.100850 1.166551 0.308889
v -0.100850 1.166551 0.294297
v -0.115490 1.161607 0.287873
v -0.121215 1.159674 0.292121
v -0.165660 1.291287 0.292121
v -0.159936 1.293220 0.287873
v -0.121215 1.159674 0.311064
v -0.115490 1.161607 0.315312
v -0.159936 1.293220 0.315312
v -0.165660 1.291287 0.311064
v -0.135744 1.269881 0.292121
v -0.141468 1.267947 0.287873
v -0.148265 1.288074 0.287873
v -0.142540 1.290008 0.292121
v -0.103604 1.174708 0.292121
v -0.109329 1.172775 0.287873
v -0.116126 1.192902 0.287873
v -0.110401 1.194835 0.292121
v -0.151020 1.296231 0.287873
v -0.145295 1.298164 0.292121
v -0.100850 1.166551 0.292121
v -0.106574 1.164618 0.287873
v -0.145295 1.298164 0.311064
v -0.151020 1.296231 0.315312
v -0.106574 1.164618 0.315312
v -0.100850 1.166551 0.311064
v -0.125042 1.189891 0.287873
v -0.130766 1.187958 0.292121
v -0.123970 1.167831 0.292121
v -0.118245 1.169764 0.287873
v -0.157181 1.285064 0.287873
v -0.162906 1.283130 0.292121
v -0.156109 1.263003 0.292121
v -0.150384 1.264937 0.287873
v -0.150384 1.264937 0.315312
v -0.156109 1.263003 0.311064
v -0.162906 1.283130 0.311064
v -0.157181 1.285064 0.315312
v -0.118245 1.169764 0.315312
v -0.123970 1.167831 0.311064
v -0.130766 1.187958 0.311064
v -0.125042 1.189891 0.315312
v -0.116126 1.192902 0.315312
v -0.110401 1.194835 0.311064
v -0.103604 1.174708 0.311064
v -0.109329 1.172775 0.315312
v -0.148265 1.288074 0.315312
v -0.142540 1.290008 0.311064
v -0.135744 1.269881 0.311064
v -0.141468 1.267947 0.315312
vn -1.0000 -0.0000 -0.0000
vn -0.0000 -1.0000 -0.0000
vn -0.0000 -0.0000 1.0000
vn 1.0000 -0.0000 -0.0000
vn -0.0000 -0.0000 -1.0000
vn 0.3827 0.9239 -0.0000
vn 0.9239 0.3827 -0.0000
vn 0.9239 -0.3827 -0.0000
vn 0.3827 -0.9239 -0.0000
vn -0.0000 1.0000 -0.0000
vn 0.9387 0.3447 -0.0000
vn 0.9904 -0.1382 -0.0000
vn 0.7071 -0.7071 -0.0000
vn 0.7071 -0.0000 -0.7071
vn 0.7071 -0.0000 0.7071
vn 0.7445 0.3418 0.5735
vn 0.9939 -0.1101 -0.0000
vn 0.7244 -0.0791 -0.6848
vn 0.7445 0.3418 -0.5735
vn 0.7071 0.7071 -0.0000
vn 0.7244 -0.0791 0.6848
vn 0.8989 0.4382 -0.0000
vn 0.4381 -0.8989 -0.0000
vn -0.4381 0.8989 -0.0000
vn 0.8989 0.4381 -0.0000
vn 0.6356 0.3098 -0.7071
vn 0.3258 0.9454 -0.0000
vn 0.6356 0.3098 0.7071
vn 0.9455 -0.3258 -0.0000
vn -0.4382 0.8989 -0.0000
vn 0.4382 -0.8989 -0.0000
vn 0.9843 0.1767 -0.0000
vn 0.9514 -0.3079 -0.0000
vn 0.0043 -0.8516 0.5242
vn 0.0043 -0.8516 -0.5242
vn 0.6734 0.2493 0.6960
vn 0.6734 0.2493 -0.6960
vn 0.6385 -0.0870 0.7647
vn 0.6385 -0.0870 -0.7647
vn 0.7075 -0.0000 0.7068
vn 0.7075 -0.0000 -0.7068
vn 0.7333 -0.6799 -0.0000
vn 0.3768 0.9263 -0.0000
vn 0.0772 -0.9970 -0.0000
vn 0.3199 0.9474 -0.0000
vn -0.3199 -0.9474 -0.0000
vn 0.9474 -0.3199 -0.0000
vn -0.9474 0.3199 -0.0000
vn -0.5449 0.1840 -0.8181
vn -0.5449 0.1840 0.8181
vn 0.5449 -0.1840 -0.8181
vn 0.5449 -0.1840 0.8181
vn -0.3827 0.9239 -0.0000
vn -0.9239 0.3827 -0.0000
vn -0.9239 -0.3827 -0.0000
vn -0.3827 -0.9239 -0.0000
vn -0.9387 0.3447 -0.0000
vn -0.9904 -0.1382 -0.0000
vn -0.7071 -0.7071 -0.0000
vn -0.7071 -0.0000 -0.7071
vn -0.7071 -0.0000 0.7071
vn -0.7445 0.3418 0.5735
vn -0.9939 -0.1101 -0.0000
vn -0.7244 -0.0791 -0.6848
vn -0.7445 0.3418 -0.5735
vn -0.7071 0.7071 -0.0000
vn -0.7244 -0.0791 0.6848
vn -0.8989 0.4382 -0.0000
vn -0.4381 -0.8989 -0.0000
vn 0.4381 0.8989 -0.0000
vn -0.8989 0.4381 -0.0000
vn -0.6356 0.3098 -0.7071
vn -0.3258 0.9454 -0.0000
vn -0.6356 0.3098 0.7071
vn -0.9455 -0.3258 -0.0000
vn 0.4382 0.8989 -0.0000
vn -0.4382 -0.8989 -0.0000
vn -0.9843 0.1767 -0.0000
vn -0.9514 -0.3079 -0.0000
vn -0.0043 -0.8516 0.5242
vn -0.0043 -0.8516 -0.5242
vn -0.6734 0.2493 0.6960
vn -0.6734 0.2493 -0.6960
vn -0.6385 -0.0870 0.7647
vn -0.6385 -0.0870 -0.7647
vn -0.7075 -0.0000 0.7068
vn -0.7075 -0.0000 -0.7068
vn -0.7333 -0.6799 -0.0000
vn -0.3768 0.9263 -0.0000
vn -0.0772 -0.9970 -0.0000
vn -0.3199 0.9474 -0.0000
vn 0.3199 -0.9474 -0.0000
vn -0.9474 -0.3199 -0.0000
vn 0.9474 0.3199 -0.0000
vn 0.5449 0.1840 -0.8181
vn 0.5449 0.1840 0.8181
vn -0.5449 -0.1840 -0.8181
vn -0.5449 -0.1840 0.8181
vt 0.819683 0.431014
vt 0.819683 0.619066
vt 0.794896 0.619066
vt 0.794896 0.431014
vt 0.080231 0.875096
vt 0.080231 1.000000
vt 0.073251 1.000000
vt 0.073251 0.875096
vt 0.109876 0.875096
vt 0.109876 1.000000
vt 0.858432 -0.000000
vt 0.865412 -0.000000
vt 0.865412 0.024787
vt 0.858432 0.024787
vt 0.851451 0.646633
vt 0.858432 0.646633
vt 0.858432 0.661041
vt 0.851451 0.661041
vt 0.028845 0.646633
vt 0.367803 0.646633
vt 0.367803 0.661041
vt 0.028845 0.661042
vt 0.794896 0.311346
vt 0.765251 0.311346
vt 0.765251 0.041975
vt 0.794896 0.041975
vt 0.851451 0.619067
vt 0.858432 0.619067
vt 0.691240 0.727312
vt 0.691241 0.734292
vt 0.663674 0.734292
vt 0.663674 0.727312
vt 0.146502 0.661042
vt 0.153482 0.661042
vt 0.153482 1.000000
vt 0.146502 1.000000
vt 0.024787 0.431014
vt 0.024787 0.619067
vt 0.000000 0.619067
vt 0.000000 0.431014
vt 0.028845 0.619067
vt 0.024787 0.646633
vt 0.024787 0.661042
vt 0.559213 0.793823
vt 0.572489 0.793823
vt 0.572489 0.811585
vt 0.559213 0.811585
vt 0.826788 0.819717
vt 0.840065 0.819717
vt 0.840065 0.837479
vt 0.826788 0.837479
vt 0.578530 0.826435
vt 0.591806 0.826435
vt 0.591806 0.844197
vt 0.578530 0.844197
vt 0.559213 0.811585
vt 0.572489 0.811585
vt 0.572489 0.829347
vt 0.559213 0.829347
vt 0.369354 0.982355
vt 0.369354 0.661042
vt 0.378897 0.661042
vt 0.378897 0.982355
vt 0.955384 0.321314
vt 0.955384 0.000000
vt 0.964928 0.000000
vt 0.964928 0.321314
vt 0.359810 0.661042
vt 0.359810 0.982355
vt 0.350266 0.982355
vt 0.350266 0.661042
vt 0.369354 0.661042
vt 0.369354 0.982355
vt 0.359810 0.982355
vt 0.359810 0.661042
vt 0.931683 0.396648
vt 0.931683 0.735606
vt 0.924702 0.735606
vt 0.924702 0.396648
vt 0.931683 0.392590
vt 0.924702 0.392590
vt 0.819683 0.661041
vt 0.794896 0.661041
vt 0.794896 0.646633
vt 0.819683 0.646633
vt 0.691240 0.697667
vt 0.663674 0.697667
vt 0.765251 0.619067
vt 0.794896 0.619067
vt 0.794896 0.646633
vt 0.765251 0.646633
vt 0.765251 0.661041
vt 0.851451 0.014409
vt 0.851451 -0.000000
vt 0.858432 -0.000000
vt 0.858432 0.014409
vt 0.028845 0.014409
vt 0.028845 0.000000
vt 0.367803 0.000000
vt 0.367803 0.014409
vt 0.851451 0.041975
vt 0.858432 0.041975
vt 0.663674 0.668022
vt 0.636108 0.668022
vt 0.636108 0.661042
vt 0.663674 0.661042
vt 0.073251 0.661042
vt 0.073251 1.000000
vt 0.066270 1.000000
vt 0.066270 0.661042
vt 0.851451 0.311346
vt 0.858432 0.311346
vt 0.024787 0.041975
vt 0.024787 0.014409
vt 0.028845 0.041975
vt 0.024787 0.000000
vt 0.501824 0.828674
vt 0.501824 0.846436
vt 0.488548 0.846436
vt 0.488548 0.828674
vt 0.605082 0.826435
vt 0.605082 0.844197
vt 0.591806 0.844197
vt 0.746226 0.827407
vt 0.746226 0.845169
vt 0.732950 0.845169
vt 0.732950 0.827407
vt 0.557363 0.828674
vt 0.557363 0.846436
vt 0.544086 0.846436
vt 0.544086 0.828674
vt 0.312091 0.661042
vt 0.321634 0.661042
vt 0.321634 0.982355
vt 0.312091 0.982355
vt 0.378897 0.661042
vt 0.388441 0.661042
vt 0.388441 0.982355
vt 0.378897 0.982355
vt 0.331178 0.661042
vt 0.331178 0.982355
vt 0.331178 0.661042
vt 0.340722 0.661042
vt 0.340722 0.982355
vt 0.331178 0.982355
vt 0.858432 0.028845
vt 0.865412 0.028845
vt 0.865412 0.367803
vt 0.858432 0.367803
vt 0.819683 -0.000000
vt 0.819683 0.014409
vt 0.794896 0.014409
vt 0.794896 -0.000000
vt 0.663674 0.697667
vt 0.636108 0.697667
vt 0.765251 0.014409
vt 0.794896 0.014409
vt 0.765251 -0.000000
vt 0.794896 -0.000000
vt 0.819683 0.041975
vt 0.794896 0.041975
vt 0.036625 1.000000
vt 0.036625 0.661042
vt 0.895057 0.028845
vt 0.895057 0.367803
vt 0.895057 0.024787
vt 0.183127 0.661042
vt 0.183127 1.000000
vt 0.895057 0.735606
vt 0.895057 0.396648
vt 0.092505 0.311346
vt 0.028845 0.311346
vt 0.092505 0.041975
vt 0.895057 0.392590
vt 0.578530 0.803771
vt 0.587917 0.794384
vt 0.594555 0.810409
vt 0.578530 0.817048
vt 0.601193 0.794384
vt 0.610581 0.803771
vt 0.286022 0.724702
vt 0.286022 0.661042
vt 0.293003 0.661042
vt 0.293003 0.724702
vt 0.256378 0.724702
vt 0.256378 0.661042
vt 0.783081 0.801402
vt 0.776443 0.817428
vt 0.760417 0.810790
vt 0.769805 0.801402
vt 0.760417 0.824066
vt 0.769805 0.833454
vt 0.024787 0.311346
vt 0.000000 0.014409
vt 0.000000 0.000000
vt 0.000000 0.041975
vt 0.931683 0.367803
vt 0.924702 0.367803
vt 0.000000 0.646633
vt 0.000000 0.661042
vt 0.028845 0.361144
vt 0.024787 0.361144
vt 0.024787 0.355239
vt 0.028845 0.355239
vt 0.851451 0.361144
vt 0.851451 0.355239
vt 0.858432 0.355239
vt 0.858432 0.361144
vt 0.024787 0.343149
vt 0.000000 0.355239
vt 0.000000 0.343149
vt 0.794896 0.361144
vt 0.765251 0.361144
vt 0.765251 0.355239
vt 0.794896 0.355239
vt 0.819683 0.343149
vt 0.819683 0.355239
vt 0.794896 0.355239
vt 0.794896 0.343149
vt 0.765251 0.431014
vt 0.794896 0.431014
vt 0.851451 0.431014
vt 0.858432 0.431014
vt 0.092505 0.619067
vt 0.028845 0.431014
vt 0.092505 0.431014
vt 0.000000 0.361144
vt 0.819683 0.361144
vt 0.794896 0.361144
vt 0.819683 0.311346
vt 0.794896 0.311346
vt 0.000000 0.311346
vt 0.028845 0.343149
vt 0.701537 0.765639
vt 0.701537 0.733837
vt 0.706600 0.733837
vt 0.702160 0.765639
vt 0.851451 0.343148
vt 0.858432 0.343148
vt 0.794896 0.343149
vt 0.765251 0.343149
vt 0.931683 0.463862
vt 0.931683 0.338959
vt 0.936745 0.338959
vt 0.936745 0.463862
vt 0.701537 0.777730
vt 0.706600 0.777730
vt 0.080231 0.803785
vt 0.080231 0.806765
vt 0.073251 0.806765
vt 0.073251 0.803785
vt 0.433432 0.724008
vt 0.433432 0.721028
vt 0.446312 0.721028
vt 0.446312 0.724008
vt 0.478423 0.721028
vt 0.478423 0.724008
vt 0.242900 0.619067
vt 0.171589 0.619067
vt 0.171588 0.431014
vt 0.242900 0.431014
vt 0.256378 0.875096
vt 0.256378 0.803785
vt 0.286022 0.803785
vt 0.286022 0.875096
vt 0.293003 0.803785
vt 0.293003 0.875096
vt 0.174568 0.311346
vt 0.171588 0.311346
vt 0.171588 0.041975
vt 0.174568 0.041975
vt 0.109876 0.740125
vt 0.109876 0.803785
vt 0.080231 0.740125
vt 0.073251 0.740125
vt 0.367803 0.311346
vt 0.242900 0.311346
vt 0.242900 0.041975
vt 0.367803 0.041975
vt 0.286022 1.000000
vt 0.293003 1.000000
vt 0.256378 1.000000
vt 0.367803 0.361144
vt 0.242900 0.361144
vt 0.242900 0.355239
vt 0.367803 0.355239
vt 0.367803 0.619067
vt 0.367803 0.431014
vt 0.446312 0.917243
vt 0.446312 0.792339
vt 0.478423 0.792339
vt 0.478423 0.917243
vt 0.433432 0.917243
vt 0.433432 0.792339
vt 0.483486 0.788925
vt 0.483486 0.664021
vt 0.488548 0.664021
vt 0.488548 0.788925
vt 0.931683 0.466842
vt 0.936745 0.466842
vt 0.109876 0.872116
vt 0.080231 0.872116
vt 0.073251 0.872116
vt 0.715933 0.664022
vt 0.715933 0.729373
vt 0.711719 0.732353
vt 0.711719 0.661042
vt 0.636108 0.666714
vt 0.636108 0.733837
vt 0.631893 0.736816
vt 0.631893 0.666946
vt 0.623465 0.666946
vt 0.623465 0.736817
vt 0.619251 0.733837
vt 0.619251 0.666714
vt 0.703562 0.666714
vt 0.703562 0.661042
vt 0.706599 0.661042
vt 0.706599 0.666714
vt 0.773988 0.796573
vt 0.773988 0.731222
vt 0.777025 0.731222
vt 0.777025 0.796573
vt 0.694278 0.666714
vt 0.691241 0.666714
vt 0.691241 0.661042
vt 0.694278 0.661042
vt 0.739639 0.732009
vt 0.743975 0.717423
vt 0.746137 0.717421
vt 0.741864 0.730572
vt 0.755522 0.661042
vt 0.761581 0.717264
vt 0.752195 0.717263
vt 0.746137 0.661042
vt 0.636108 0.734292
vt 0.691135 0.734292
vt 0.691135 0.791782
vt 0.636108 0.791782
vt 0.777025 0.661042
vt 0.770966 0.717263
vt 0.761581 0.717263
vt 0.767639 0.661042
vt 0.733142 0.661042
vt 0.728807 0.717423
vt 0.726645 0.717421
vt 0.730975 0.662564
vt 0.724483 0.732009
vt 0.724483 0.792556
vt 0.722321 0.791027
vt 0.722321 0.733538
vt 0.733142 0.732009
vt 0.730918 0.730572
vt 0.726645 0.792556
vt 0.726645 0.732009
vt 0.728807 0.733538
vt 0.728807 0.791027
vt 0.739639 0.661042
vt 0.741806 0.662564
vt 0.721105 0.732353
vt 0.721105 0.792900
vt 0.711719 0.792900
vt 0.777025 0.731222
vt 0.767639 0.731222
vt 0.751199 0.731222
vt 0.760584 0.731222
vt 0.760584 0.791769
vt 0.751199 0.791769
vt 0.755522 0.731222
vt 0.746137 0.731222
vt 0.730581 0.789253
vt 0.740861 0.789253
vt 0.742635 0.791027
vt 0.730581 0.735312
vt 0.740861 0.735312
vt 0.742635 0.733538
vt 0.721638 0.785950
vt 0.721638 0.732009
vt 0.722321 0.732009
vt 0.722321 0.785950
vt 0.761267 0.731222
vt 0.761267 0.785163
vt 0.760584 0.785163
vt 0.760584 0.731222
vt 0.636108 0.736816
vt 0.636108 0.790758
vt 0.635127 0.789741
vt 0.635127 0.737834
vt 0.625828 0.790758
vt 0.625828 0.736816
vt 0.626808 0.737834
vt 0.626808 0.789741
vt 0.625145 0.747096
vt 0.625145 0.736817
vt 0.625828 0.736817
vt 0.625828 0.747096
vt 0.625145 0.757375
vt 0.624462 0.757375
vt 0.624462 0.747096
vt 0.618453 0.766839
vt 0.618453 0.759071
vt 0.618844 0.758795
vt 0.618844 0.767115
vt 0.745172 0.732285
vt 0.745172 0.783639
vt 0.744782 0.783916
vt 0.744782 0.732009
vt 0.624869 0.765971
vt 0.624869 0.773738
vt 0.624478 0.774014
vt 0.624478 0.765695
vt 0.744001 0.783640
vt 0.744001 0.732285
vt 0.744391 0.732009
vt 0.744391 0.783916
vt 0.800236 0.769886
vt 0.792469 0.769886
vt 0.792469 0.718531
vt 0.800236 0.718531
vt 0.745730 0.783915
vt 0.745730 0.732009
vt 0.746136 0.732009
vt 0.746136 0.783915
vt 0.624462 0.765695
vt 0.624462 0.757375
vt 0.624869 0.757375
vt 0.624869 0.765695
vt 0.721231 0.783916
vt 0.721231 0.732009
vt 0.721638 0.732009
vt 0.721638 0.783916
vt 0.618844 0.733837
vt 0.618844 0.742156
vt 0.618437 0.742156
vt 0.618437 0.733837
vt 0.553899 0.666714
vt 0.553899 0.661042
vt 0.619251 0.661042
vt 0.109876 0.806765
vt 0.931683 0.535173
vt 0.931683 0.532193
vt 0.936745 0.532193
vt 0.936745 0.535173
vt 0.239920 0.311346
vt 0.239920 0.041975
vt 0.446312 0.789359
vt 0.478423 0.789359
vt 0.433432 0.789359
vt 0.766786 0.791208
vt 0.766786 0.794188
vt 0.764703 0.794188
vt 0.761723 0.791208
vt 0.696360 0.666714
vt 0.696360 0.661042
vt 0.771905 0.796573
vt 0.771905 0.731222
vt 0.701480 0.666714
vt 0.701480 0.661042
vt 0.486465 0.661042
vt 0.488548 0.661042
vt 0.080231 0.661042
vt 0.080231 0.724702
vt 0.073251 0.724702
vt 0.073251 0.661042
vt 0.109876 0.661042
vt 0.109876 0.724702
vt 0.107928 0.619067
vt 0.107928 0.431014
vt 0.256378 0.740125
vt 0.286022 0.740125
vt 0.293003 0.740125
vt 0.107928 0.311346
vt 0.107928 0.041975
vt 0.651531 0.836773
vt 0.636108 0.836773
vt 0.636108 0.823893
vt 0.651531 0.823893
vt 0.651531 0.791782
vt 0.636108 0.791782
vt 0.701480 0.733837
vt 0.703562 0.733837
vt 0.696360 0.733837
vt 0.694278 0.733837
vt 0.553899 0.733837
vt 0.691241 0.733837
vt 0.706599 0.733837
vt 0.623465 0.661042
vt 0.619251 0.661042
vt 0.636108 0.661042
vt 0.631893 0.661042
vt 0.941041 0.614257
vt 0.936745 0.617931
vt 0.931683 0.614257
vt 0.941041 0.610583
vt 0.936745 0.595160
vt 0.941041 0.598834
vt 0.941041 0.602508
vt 0.931683 0.598834
vt 0.711662 0.799448
vt 0.707543 0.803875
vt 0.707543 0.797546
vt 0.710974 0.793823
vt 0.746825 0.794188
vt 0.750255 0.797911
vt 0.750255 0.804240
vt 0.746137 0.799814
vt 0.692366 0.834427
vt 0.695865 0.821188
vt 0.701520 0.819697
vt 0.698275 0.832162
vt 0.629073 0.835141
vt 0.625828 0.822677
vt 0.631483 0.824167
vt 0.634983 0.837407
vt 0.692366 0.787801
vt 0.698018 0.787778
vt 0.629330 0.790758
vt 0.634983 0.790780
vt 0.613290 0.809495
vt 0.613290 0.806143
vt 0.618483 0.803875
vt 0.618483 0.813453
vt 0.573336 0.813453
vt 0.573336 0.803875
vt 0.578530 0.806143
vt 0.578530 0.809495
vt 0.553815 0.797497
vt 0.553815 0.812920
vt 0.548417 0.816594
vt 0.548417 0.793823
vt 0.706599 0.793823
vt 0.711662 0.733837
vt 0.711662 0.793823
vt 0.812281 0.817346
vt 0.801132 0.819717
vt 0.800690 0.816395
vt 0.806675 0.815541
vt 0.088831 0.364818
vt 0.088831 0.355239
vt 0.171588 0.361144
vt 0.111602 0.364818
vt 0.111602 0.355239
vt 0.171588 0.355239
vt 0.761723 0.731222
vt 0.766786 0.731222
vt 0.815958 0.817346
vt 0.821564 0.815541
vt 0.827549 0.816395
vt 0.827107 0.819717
vt 0.800236 0.803456
vt 0.808352 0.805080
vt 0.488548 0.793823
vt 0.488548 0.733837
vt 0.501428 0.733837
vt 0.501428 0.793823
vt 0.433432 0.661042
vt 0.446312 0.661042
vt 0.828003 0.803456
vt 0.819887 0.805080
vt 0.931683 0.677917
vt 0.936745 0.677917
vt 0.955384 0.598834
vt 0.955384 0.614257
vt 0.533539 0.733837
vt 0.533539 0.793823
vt 0.814119 0.773491
vt 0.478423 0.661042
vt 0.828003 0.769886
vt 0.518100 0.844097
vt 0.518100 0.828674
vt 0.529498 0.828674
vt 0.529498 0.844097
vt 0.726645 0.792556
vt 0.732950 0.792556
vt 0.732950 0.827407
vt 0.726645 0.827407
vt 0.501158 0.828674
vt 0.494853 0.828674
vt 0.494853 0.793823
vt 0.501158 0.793823
vt 0.522431 0.793823
vt 0.526762 0.793823
vt 0.526762 0.828674
vt 0.522431 0.828674
vt 0.544086 0.793823
vt 0.548417 0.793823
vt 0.548417 0.828674
vt 0.544086 0.828674
vt 0.718024 0.792900
vt 0.718024 0.827751
vt 0.711719 0.827751
vt 0.711719 0.792900
vt 0.544086 0.828674
vt 0.539755 0.828674
vt 0.539755 0.793823
vt 0.544086 0.793823
vt 0.799590 0.808562
vt 0.799590 0.811117
vt 0.795259 0.811117
vt 0.795259 0.808562
vt 0.799590 0.778746
vt 0.799590 0.802256
vt 0.795259 0.802256
vt 0.795259 0.778746
vt 0.799590 0.769886
vt 0.799590 0.772441
vt 0.795259 0.772441
vt 0.795259 0.769886
vt 0.711662 0.810180
vt 0.707331 0.810180
vt 0.707331 0.803874
vt 0.711662 0.803874
vt 0.718025 0.827751
vt 0.718025 0.792900
vt 0.724330 0.792900
vt 0.724330 0.827751
vt 0.766054 0.800494
vt 0.761723 0.800494
vt 0.761723 0.794188
vt 0.766054 0.794188
vt 0.619896 0.819386
vt 0.624227 0.819386
vt 0.624227 0.821941
vt 0.619896 0.821941
vt 0.531093 0.793823
vt 0.535424 0.793823
vt 0.535424 0.828674
vt 0.531093 0.828674
vt 0.624227 0.780710
vt 0.624227 0.783265
vt 0.619896 0.783265
vt 0.619896 0.780710
vt 0.618483 0.819691
vt 0.612104 0.819691
vt 0.612104 0.815360
vt 0.618483 0.815360
vt 0.704407 0.820867
vt 0.710787 0.820867
vt 0.710787 0.825198
vt 0.704407 0.825198
vt 0.619896 0.789570
vt 0.624227 0.789570
vt 0.624227 0.813080
vt 0.619896 0.813080
vt 0.682366 0.833013
vt 0.682366 0.830458
vt 0.684559 0.830457
vt 0.684559 0.833013
vt 0.704407 0.786591
vt 0.704407 0.780285
vt 0.706600 0.780285
vt 0.706600 0.786591
vt 0.704407 0.816406
vt 0.704407 0.810100
vt 0.706600 0.810100
vt 0.706600 0.816406
vt 0.704407 0.777730
vt 0.706600 0.777730
vt 0.682366 0.794337
vt 0.682366 0.791782
vt 0.684559 0.791782
vt 0.684559 0.794337
vt 0.704407 0.818961
vt 0.706600 0.818961
vt 0.682366 0.824152
vt 0.682366 0.800642
vt 0.684559 0.800642
vt 0.684559 0.824152
vt 0.675369 0.800642
vt 0.675369 0.794337
vt 0.677561 0.794337
vt 0.677561 0.800642
vt 0.675369 0.830458
vt 0.675369 0.824152
vt 0.677561 0.824152
vt 0.677561 0.830458
vt 0.688943 0.794337
vt 0.688943 0.800642
vt 0.686751 0.800642
vt 0.686751 0.794337
vt 0.688943 0.824152
vt 0.688943 0.830458
vt 0.686751 0.830458
vt 0.686751 0.824152
vt 0.677561 0.791782
vt 0.675369 0.791782
vt 0.686751 0.791782
vt 0.688943 0.791782
vt 0.675369 0.833013
vt 0.677561 0.833013
vt 0.686751 0.833013
vt 0.688943 0.833013
vt 0.800236 0.769886
vt 0.800236 0.772441
vt 0.612104 0.814714
vt 0.613897 0.813453
vt 0.616690 0.813453
vt 0.618483 0.814714
vt 0.745428 0.785950
vt 0.745428 0.788505
vt 0.742635 0.788505
vt 0.742635 0.785950
vt 0.745428 0.824625
vt 0.745428 0.827181
vt 0.742635 0.827181
vt 0.742635 0.824625
vt 0.800236 0.808562
vt 0.800236 0.811117
vt 0.710787 0.825844
vt 0.708994 0.827105
vt 0.706201 0.827105
vt 0.704407 0.825844
vt 0.618483 0.820336
vt 0.616690 0.821597
vt 0.613897 0.821597
vt 0.612104 0.820336
vt 0.704330 0.777730
vt 0.704330 0.780285
vt 0.701537 0.780285
vt 0.701537 0.777730
vt 0.794614 0.772441
vt 0.794614 0.769886
vt 0.704407 0.820222
vt 0.706201 0.818961
vt 0.708994 0.818961
vt 0.710787 0.820222
vt 0.704330 0.816406
vt 0.704330 0.818961
vt 0.701537 0.818961
vt 0.701537 0.816406
vt 0.794614 0.811117
vt 0.794614 0.808562
vt 0.745428 0.794810
vt 0.745428 0.818320
vt 0.742635 0.818320
vt 0.742635 0.794810
vt 0.619251 0.789570
vt 0.619251 0.813080
vt 0.619251 0.819386
vt 0.619251 0.821941
vt 0.619251 0.783265
vt 0.619251 0.780710
vt 0.624873 0.819386
vt 0.624873 0.821941
vt 0.624873 0.780710
vt 0.624873 0.783265
vt 0.800236 0.778746
vt 0.800236 0.802256
vt 0.794614 0.802256
vt 0.701537 0.810100
vt 0.704330 0.810100
vt 0.704330 0.786591
vt 0.701537 0.786591
vt 0.794614 0.778746
vt 0.624873 0.789570
vt 0.624873 0.813080
vt 0.844470 0.431014
vt 0.844470 0.619066
vt 0.139521 0.875096
vt 0.146502 0.875096
vt 0.146502 1.000000
vt 0.139521 1.000000
vt 0.931683 -0.000000
vt 0.931683 0.024787
vt 0.924702 0.024787
vt 0.924702 -0.000000
vt 0.851451 0.646633
vt 0.851451 0.661042
vt 0.844471 0.661042
vt 0.844471 0.646633
vt 0.706762 0.646633
vt 0.706762 0.661042
vt 0.367803 0.661042
vt 0.367803 0.646633
vt 0.735607 0.311346
vt 0.735607 0.041975
vt 0.851451 0.619067
vt 0.844471 0.619067
vt 0.691240 0.668022
vt 0.663674 0.668022
vt 0.663674 0.661042
vt 0.691241 0.661042
vt 0.219752 0.661042
vt 0.219752 1.000000
vt 0.212772 1.000000
vt 0.212772 0.661042
vt 0.710820 0.431014
vt 0.735607 0.431014
vt 0.735607 0.619067
vt 0.710819 0.619067
vt 0.710820 0.646633
vt 0.706762 0.619067
vt 0.710820 0.661042
vt 0.530810 0.846436
vt 0.530810 0.828674
vt 0.813512 0.819717
vt 0.813512 0.837479
vt 0.800236 0.837479
vt 0.800236 0.819717
vt 0.826788 0.819717
vt 0.826788 0.837479
vt 0.813512 0.837479
vt 0.813512 0.819717
vt 0.611597 0.839703
vt 0.611597 0.821941
vt 0.624873 0.821941
vt 0.624873 0.839703
vt 0.964928 -0.000000
vt 0.974472 -0.000000
vt 0.974472 0.321313
vt 0.964928 0.321313
vt 0.964928 0.321314
vt 0.974472 0.321314
vt 0.974472 0.642628
vt 0.964928 0.642628
vt 0.955384 0.321314
vt 0.964928 0.321314
vt 0.964928 0.642628
vt 0.955384 0.642628
vt 0.955384 0.642628
vt 0.964928 0.642628
vt 0.964928 0.963942
vt 0.955384 0.963942
vt 0.858432 0.396648
vt 0.865413 0.396648
vt 0.865413 0.735606
vt 0.858432 0.735606
vt 0.858432 0.392590
vt 0.865413 0.392590
vt 0.844470 0.646633
vt 0.844470 0.661041
vt 0.735607 0.646633
vt 0.735607 0.619066
vt 0.735607 0.661041
vt 0.844470 0.014409
vt 0.844470 -0.000000
vt 0.706762 0.014409
vt 0.367803 0.014409
vt 0.367803 0.000000
vt 0.706762 -0.000000
vt 0.844470 0.041975
vt 0.663674 0.727312
vt 0.663674 0.734292
vt 0.636108 0.734292
vt 0.636108 0.727312
vt 0.000000 0.661042
vt 0.006981 0.661042
vt 0.006981 1.000000
vt 0.000000 1.000000
vt 0.851451 0.311346
vt 0.844470 0.311346
vt 0.710819 0.041975
vt 0.706762 0.041975
vt 0.710819 0.014409
vt 0.710819 -0.000000
vt 0.711719 0.827751
vt 0.724995 0.827751
vt 0.724995 0.845513
vt 0.711719 0.845513
vt 0.504824 0.828674
vt 0.518100 0.828674
vt 0.518100 0.846436
vt 0.504824 0.846436
vt 0.559213 0.829347
vt 0.572489 0.829347
vt 0.572489 0.847109
vt 0.559213 0.847109
vt 0.835770 0.718531
vt 0.849046 0.718531
vt 0.849046 0.736293
vt 0.835770 0.736293
vt 0.974472 0.642628
vt 0.974472 0.963941
vt 0.964928 0.963941
vt 0.964928 0.642628
vt 0.312091 0.982355
vt 0.302547 0.982355
vt 0.302547 0.661042
vt 0.340722 0.661042
vt 0.350266 0.661042
vt 0.350266 0.982355
vt 0.302547 0.661042
vt 0.302547 0.982355
vt 0.293003 0.982355
vt 0.293003 0.661042
vt 0.931683 0.028845
vt 0.931683 0.367803
vt 0.924702 0.367803
vt 0.924702 0.028845
vt 0.844470 -0.000000
vt 0.844470 0.014409
vt 0.735607 0.014409
vt 0.735607 -0.000000
vt 0.844470 0.041975
vt 0.643102 0.311346
vt 0.643101 0.041975
vt 0.706762 0.311346
vt 0.587917 0.826435
vt 0.601193 0.826435
vt 0.610581 0.817048
vt 0.226733 0.724702
vt 0.219752 0.724702
vt 0.226733 0.661042
vt 0.792469 0.810790
vt 0.792469 0.824066
vt 0.783081 0.833454
vt 0.710820 0.311346
vt 0.735607 0.014409
vt 0.735607 -0.000000
vt 0.735607 0.041975
vt 0.858432 0.367803
vt 0.865413 0.367803
vt 0.735607 0.646633
vt 0.735607 0.661042
vt 0.706762 0.361144
vt 0.706762 0.355239
vt 0.710820 0.355239
vt 0.710820 0.361144
vt 0.851451 0.361144
vt 0.844470 0.361144
vt 0.844470 0.355239
vt 0.851451 0.355239
vt 0.710820 0.343149
vt 0.735607 0.343149
vt 0.735607 0.355239
vt 0.735607 0.361144
vt 0.735607 0.355239
vt 0.844470 0.343149
vt 0.844470 0.355239
vt 0.735607 0.431014
vt 0.844470 0.431014
vt 0.851451 0.431014
vt 0.643101 0.619067
vt 0.643101 0.431014
vt 0.706762 0.431014
vt 0.735607 0.361144
vt 0.844470 0.361144
vt 0.844470 0.311346
vt 0.735607 0.311346
vt 0.706762 0.343149
vt 0.624313 0.768619
vt 0.623690 0.768619
vt 0.619251 0.736817
vt 0.624313 0.736817
vt 0.851451 0.343149
vt 0.844470 0.343149
vt 0.735607 0.343149
vt 0.931683 0.214055
vt 0.936745 0.214055
vt 0.936745 0.338958
vt 0.931683 0.338959
vt 0.624313 0.780710
vt 0.139521 0.803785
vt 0.146502 0.803785
vt 0.146502 0.806765
vt 0.139521 0.806765
vt 0.388441 0.854277
vt 0.401321 0.854277
vt 0.401321 0.857256
vt 0.388441 0.857256
vt 0.433432 0.854277
vt 0.433432 0.857256
vt 0.492707 0.619067
vt 0.492707 0.431014
vt 0.564018 0.431014
vt 0.564018 0.619067
vt 0.226733 0.875096
vt 0.226733 0.803785
vt 0.219752 0.875096
vt 0.219752 0.803785
vt 0.561038 0.311346
vt 0.561038 0.041975
vt 0.564018 0.041975
vt 0.564018 0.311346
vt 0.139521 0.740125
vt 0.146502 0.740125
vt 0.367803 0.311346
vt 0.367803 0.041975
vt 0.492707 0.041975
vt 0.492707 0.311346
vt 0.226733 1.000000
vt 0.367803 0.361144
vt 0.367803 0.355239
vt 0.492707 0.355239
vt 0.492707 0.361144
vt 0.367803 0.619067
vt 0.367803 0.431014
vt 0.401321 0.661042
vt 0.433432 0.661042
vt 0.433432 0.785945
vt 0.401321 0.785945
vt 0.388441 0.661042
vt 0.388441 0.785945
vt 0.483485 0.788925
vt 0.478423 0.788925
vt 0.478423 0.664022
vt 0.483485 0.664022
vt 0.931683 0.211075
vt 0.936745 0.211075
vt 0.139521 0.872116
vt 0.146502 0.872116
vt 0.720148 0.729373
vt 0.715933 0.732353
vt 0.715933 0.661042
vt 0.720148 0.664022
vt 0.623465 0.666714
vt 0.627679 0.666946
vt 0.627679 0.736817
vt 0.623465 0.733837
vt 0.627679 0.666946
vt 0.631893 0.666714
vt 0.631893 0.733837
vt 0.709637 0.666714
vt 0.709637 0.661042
vt 0.769823 0.796573
vt 0.766786 0.796573
vt 0.766786 0.731222
vt 0.769823 0.731222
vt 0.698443 0.666714
vt 0.698443 0.661042
vt 0.701480 0.661042
vt 0.701480 0.666714
vt 0.724421 0.730572
vt 0.720148 0.717421
vt 0.722310 0.717423
vt 0.783084 0.661042
vt 0.792469 0.661042
vt 0.786410 0.717263
vt 0.777025 0.717263
vt 0.792469 0.718531
vt 0.847496 0.661042
vt 0.847496 0.718531
vt 0.777025 0.731222
vt 0.786410 0.731222
vt 0.792469 0.787444
vt 0.783084 0.787444
vt 0.735309 0.662564
vt 0.739639 0.717421
vt 0.737477 0.717423
vt 0.724483 0.732009
vt 0.726645 0.733538
vt 0.726645 0.791027
vt 0.735366 0.730572
vt 0.594519 0.794384
vt 0.592357 0.792855
vt 0.592357 0.735365
vt 0.594519 0.733837
vt 0.724478 0.662564
vt 0.726645 0.661042
vt 0.613290 0.733837
vt 0.613290 0.794384
vt 0.603905 0.794384
vt 0.603905 0.733837
vt 0.786410 0.801402
vt 0.777025 0.801402
vt 0.594519 0.794384
vt 0.594519 0.733837
vt 0.603905 0.733837
vt 0.603905 0.794384
vt 0.792469 0.731222
vt 0.783084 0.731222
vt 0.590583 0.791081
vt 0.578530 0.792855
vt 0.580304 0.791081
vt 0.590583 0.737140
vt 0.580304 0.737140
vt 0.578530 0.735365
vt 0.744001 0.785949
vt 0.743318 0.785949
vt 0.743318 0.732009
vt 0.744001 0.732009
vt 0.742635 0.732009
vt 0.743318 0.732009
vt 0.743318 0.785950
vt 0.742635 0.785950
vt 0.692221 0.734854
vt 0.692221 0.786761
vt 0.691241 0.787778
vt 0.701520 0.787778
vt 0.700540 0.786761
vt 0.700540 0.734854
vt 0.701520 0.733837
vt 0.625828 0.757375
vt 0.625828 0.747096
vt 0.624313 0.736817
vt 0.624996 0.736817
vt 0.624996 0.747096
vt 0.624313 0.747096
vt 0.625535 0.773738
vt 0.625145 0.774014
vt 0.625145 0.765695
vt 0.625536 0.765971
vt 0.745172 0.732285
vt 0.745563 0.732009
vt 0.745563 0.783916
vt 0.745172 0.783639
vt 0.625145 0.757652
vt 0.625535 0.757376
vt 0.625535 0.765695
vt 0.625145 0.765419
vt 0.744782 0.783640
vt 0.744391 0.783916
vt 0.744391 0.732009
vt 0.744782 0.732285
vt 0.808003 0.718531
vt 0.808003 0.769886
vt 0.800236 0.769886
vt 0.800236 0.718531
vt 0.618844 0.733837
vt 0.619251 0.785743
vt 0.618844 0.785743
vt 0.618844 0.750476
vt 0.618437 0.750476
vt 0.618844 0.742156
vt 0.761674 0.783130
vt 0.761267 0.783130
vt 0.761267 0.731222
vt 0.761674 0.731222
vt 0.618844 0.750476
vt 0.618844 0.758795
vt 0.618437 0.758795
vt 0.488548 0.666714
vt 0.488548 0.661042
vt 0.931683 0.142744
vt 0.936745 0.142744
vt 0.936745 0.145723
vt 0.931683 0.145723
vt 0.495687 0.311346
vt 0.495687 0.041975
vt 0.401321 0.788925
vt 0.433432 0.788925
vt 0.388441 0.788925
vt 0.751199 0.734202
vt 0.746137 0.734202
vt 0.749116 0.731222
vt 0.751199 0.731222
vt 0.696360 0.661042
vt 0.771905 0.796573
vt 0.771905 0.731222
vt 0.711719 0.666714
vt 0.711719 0.661042
vt 0.478423 0.661042
vt 0.480506 0.661042
vt 0.139521 0.661042
vt 0.146502 0.661042
vt 0.146502 0.724702
vt 0.139521 0.724702
vt 0.627679 0.431014
vt 0.627678 0.619067
vt 0.226733 0.740125
vt 0.219752 0.740125
vt 0.627678 0.041975
vt 0.627679 0.311346
vt 0.651531 0.836773
vt 0.666954 0.823893
vt 0.666954 0.836773
vt 0.666954 0.791782
vt 0.711719 0.733837
vt 0.709637 0.733837
vt 0.698443 0.733837
vt 0.488548 0.733837
vt 0.553899 0.733837
vt 0.701480 0.733837
vt 0.627679 0.661042
vt 0.623465 0.661042
vt 0.941040 0.063660
vt 0.941041 0.067334
vt 0.931683 0.063660
vt 0.936745 0.059986
vt 0.936745 0.082757
vt 0.931683 0.079083
vt 0.941041 0.075409
vt 0.941041 0.079083
vt 0.578530 0.798249
vt 0.577841 0.803874
vt 0.574411 0.800152
vt 0.574411 0.793823
vt 0.616721 0.793823
vt 0.617409 0.799448
vt 0.613290 0.803875
vt 0.613290 0.797546
vt 0.487578 0.835574
vt 0.481668 0.833309
vt 0.478423 0.820845
vt 0.484078 0.822335
vt 0.833912 0.814270
vt 0.828003 0.816535
vt 0.831502 0.803296
vt 0.837157 0.801805
vt 0.481925 0.788925
vt 0.487578 0.788948
vt 0.828003 0.769909
vt 0.833655 0.769886
vt 0.800236 0.816737
vt 0.795043 0.820695
vt 0.795043 0.811117
vt 0.800236 0.813386
vt 0.578530 0.823032
vt 0.573336 0.819073
vt 0.573336 0.815722
vt 0.578530 0.813453
vt 0.559213 0.793823
vt 0.559213 0.816594
vt 0.618353 0.793823
vt 0.613290 0.793823
vt 0.613290 0.733837
vt 0.618353 0.733837
vt 0.823726 0.765991
vt 0.829331 0.764187
vt 0.835317 0.765040
vt 0.834874 0.768363
vt 0.646775 0.364818
vt 0.646775 0.355239
vt 0.564018 0.361144
vt 0.564018 0.355239
vt 0.624004 0.355239
vt 0.624004 0.364818
vt 0.751199 0.794188
vt 0.746137 0.794188
vt 0.820048 0.765991
vt 0.808899 0.768362
vt 0.808457 0.765040
vt 0.814443 0.764187
vt 0.827654 0.753725
vt 0.835770 0.752101
vt 0.578530 0.793823
vt 0.565650 0.793823
vt 0.565650 0.733837
vt 0.578530 0.733837
vt 0.401321 0.917243
vt 0.388441 0.917243
vt 0.808003 0.752101
vt 0.816119 0.753725
vt 0.936745 -0.000000
vt 0.955384 0.063660
vt 0.955384 0.079083
vt 0.821887 0.722136
vt 0.835770 0.718531
vt 0.433432 0.917243
vt 0.808003 0.718531
vt 0.821887 0.722136
vt 0.847168 0.751716
vt 0.835770 0.751716
vt 0.835770 0.736293
vt 0.847168 0.736293
vt 0.739255 0.792556
vt 0.739255 0.827407
vt 0.732950 0.792556
vt 0.501159 0.828674
vt 0.501159 0.793823
vt 0.507464 0.793823
vt 0.507464 0.828674
vt 0.513769 0.828674
vt 0.513769 0.793823
vt 0.518100 0.793823
vt 0.535424 0.793823
vt 0.539755 0.793823
vt 0.539755 0.828674
vt 0.513769 0.828674
vt 0.507464 0.828674
vt 0.507464 0.793823
vt 0.513769 0.793823
vt 0.667599 0.830457
vt 0.671930 0.830457
vt 0.671930 0.833013
vt 0.667599 0.833013
vt 0.667599 0.800642
vt 0.671930 0.800642
vt 0.671930 0.824152
vt 0.667599 0.824152
vt 0.667599 0.791782
vt 0.671930 0.791782
vt 0.671930 0.794337
vt 0.667599 0.794337
vt 0.745924 0.810545
vt 0.745924 0.804240
vt 0.750255 0.804240
vt 0.750255 0.810545
vt 0.494853 0.793823
vt 0.494853 0.828674
vt 0.488548 0.828674
vt 0.707331 0.816485
vt 0.707331 0.810180
vt 0.711662 0.810180
vt 0.711662 0.816485
vt 0.756176 0.830445
vt 0.756176 0.833000
vt 0.751845 0.833000
vt 0.751845 0.830445
vt 0.531093 0.793823
vt 0.531093 0.828674
vt 0.526762 0.828674
vt 0.526762 0.793823
vt 0.751845 0.791769
vt 0.756176 0.791769
vt 0.756176 0.794325
vt 0.751845 0.794325
vt 0.554797 0.818500
vt 0.554797 0.822831
vt 0.548417 0.822831
vt 0.548417 0.818500
vt 0.793856 0.826933
vt 0.793856 0.822602
vt 0.800236 0.822602
vt 0.800236 0.826933
vt 0.756176 0.800630
vt 0.756176 0.824140
vt 0.751845 0.824140
vt 0.751845 0.800630
vt 0.682366 0.833013
vt 0.680174 0.833013
vt 0.680174 0.830457
vt 0.682366 0.830457
vt 0.679754 0.800642
vt 0.677561 0.800642
vt 0.677561 0.794337
vt 0.679754 0.794337
vt 0.679754 0.830457
vt 0.677561 0.830457
vt 0.679754 0.824152
vt 0.677561 0.791782
vt 0.679754 0.791782
vt 0.682366 0.794337
vt 0.680174 0.794337
vt 0.680174 0.791782
vt 0.682366 0.791782
vt 0.679754 0.833013
vt 0.677561 0.833013
vt 0.682366 0.824152
vt 0.680174 0.824152
vt 0.680174 0.800642
vt 0.682366 0.800642
vt 0.691135 0.800642
vt 0.688943 0.794337
vt 0.691135 0.794337
vt 0.691135 0.830458
vt 0.688943 0.824152
vt 0.691135 0.824152
vt 0.684559 0.794337
vt 0.686751 0.794337
vt 0.686751 0.800642
vt 0.684559 0.800642
vt 0.684559 0.824152
vt 0.686751 0.824152
vt 0.686751 0.830458
vt 0.684559 0.830458
vt 0.688943 0.791782
vt 0.691135 0.791782
vt 0.684559 0.791782
vt 0.686751 0.791782
vt 0.691135 0.833013
vt 0.688943 0.833013
vt 0.686751 0.833013
vt 0.684559 0.833013
vt 0.666954 0.794337
vt 0.554797 0.823477
vt 0.553004 0.824738
vt 0.550211 0.824738
vt 0.548417 0.823477
vt 0.672576 0.791782
vt 0.675369 0.794337
vt 0.672576 0.794337
vt 0.672576 0.830458
vt 0.675369 0.830458
vt 0.672576 0.833013
vt 0.666954 0.830457
vt 0.666954 0.833013
vt 0.793856 0.821956
vt 0.795649 0.820695
vt 0.798443 0.820695
vt 0.800236 0.821956
vt 0.554797 0.817855
vt 0.548417 0.817855
vt 0.550211 0.816594
vt 0.553004 0.816594
vt 0.756821 0.791769
vt 0.759615 0.791769
vt 0.759615 0.794325
vt 0.756821 0.794325
vt 0.672576 0.791782
vt 0.672576 0.794337
vt 0.793856 0.827579
vt 0.800236 0.827579
vt 0.798443 0.828839
vt 0.795649 0.828839
vt 0.756821 0.830445
vt 0.759615 0.830445
vt 0.759615 0.833000
vt 0.756821 0.833000
vt 0.672576 0.830457
vt 0.672576 0.833013
vt 0.672576 0.800642
vt 0.675369 0.824152
vt 0.672576 0.824152
vt 0.756821 0.800630
vt 0.756821 0.824140
vt 0.756821 0.830445
vt 0.756821 0.833000
vt 0.756821 0.794325
vt 0.756821 0.791769
vt 0.751199 0.833000
vt 0.751199 0.830445
vt 0.751199 0.791769
vt 0.751199 0.794325
vt 0.666954 0.800642
vt 0.666954 0.824152
vt 0.672576 0.824152
vt 0.756821 0.824140
vt 0.759615 0.824140
vt 0.756821 0.800630
vt 0.759615 0.800630
vt 0.672576 0.800642
vt 0.751199 0.800630
vt 0.751199 0.824140
s 0
usemtl Checker
f 119/1/1 60/2/1 67/3/1 120/4/1
f 158/5/2 100/6/2 73/7/2 155/8/2
f 165/9/2 102/10/2 100/6/2 158/5/2
f 71/11/2 89/12/2 97/13/2 106/14/2
f 58/15/3 37/16/3 39/17/3 57/18/3
f 43/19/4 36/20/4 38/21/4 42/22/4
f 128/23/3 124/24/3 32/25/3 98/26/3
f 60/27/3 40/28/3 37/16/3 58/15/3
f 59/29/5 43/30/5 44/31/5 62/32/5
f 43/33/2 59/34/2 64/35/2 36/36/2
f 122/37/4 105/38/4 40/39/4 117/40/4
f 105/38/4 44/41/4 43/19/4 104/42/4
f 104/42/4 43/19/4 42/22/4 103/43/4
f 1/44/6 45/45/6 46/46/6 2/47/6
f 45/48/7 47/49/7 48/50/7 46/51/7
f 47/52/8 49/53/8 50/54/8 48/55/8
f 49/56/9 3/57/9 4/58/9 50/59/9
f 52/60/7 55/61/7 54/62/7 51/63/7
f 53/64/8 56/65/8 55/66/8 52/67/8
f 51/68/6 54/69/6 7/70/6 5/71/6
f 6/72/9 8/73/9 56/74/9 53/75/9
f 42/76/10 38/77/10 63/78/10 61/79/10
f 103/80/10 42/76/10 61/79/10 66/81/10
f 57/82/1 66/83/1 65/84/1 58/85/1
f 17/86/5 59/29/5 62/32/5 18/87/5
f 24/88/3 67/89/3 65/90/3 22/91/3
f 22/91/3 65/90/3 66/83/3 23/92/3
f 58/85/1 65/84/1 67/3/1 60/2/1
f 90/93/3 89/94/3 71/95/3 69/96/3
f 75/97/4 74/98/4 70/99/4 68/100/4
f 92/101/3 90/93/3 69/96/3 72/102/3
f 91/103/5 101/104/5 76/105/5 75/106/5
f 75/107/10 68/108/10 95/109/10 91/110/10
f 127/111/3 92/101/3 72/102/3 125/112/3
f 108/113/4 107/114/4 75/97/4 76/115/4
f 107/114/4 106/116/4 74/98/4 75/97/4
f 9/117/9 10/118/9 78/119/9 77/120/9
f 77/121/8 78/122/8 80/123/8 79/53/8
f 79/124/7 80/125/7 82/126/7 81/127/7
f 81/128/6 82/129/6 12/130/6 11/131/6
f 84/132/8 83/133/8 86/134/8 87/135/8
f 85/136/7 84/137/7 87/138/7 88/139/7
f 83/133/9 13/140/9 15/141/9 86/134/9
f 14/142/6 85/143/6 88/144/6 16/145/6
f 74/146/2 93/147/2 94/148/2 70/149/2
f 106/14/2 97/13/2 93/147/2 74/146/2
f 89/150/1 90/151/1 96/152/1 97/153/1
f 25/154/5 26/155/5 101/104/5 91/103/5
f 32/25/3 30/156/3 96/157/3 98/26/3
f 30/156/3 31/158/3 97/159/3 96/157/3
f 90/151/1 92/160/1 98/161/1 96/152/1
f 91/110/10 95/109/10 28/162/10 25/163/10
f 93/147/2 29/164/2 27/165/2 94/148/2
f 97/13/2 31/166/2 29/164/2 93/147/2
f 59/34/2 17/167/2 20/168/2 64/35/2
f 61/79/10 63/78/10 19/169/10 21/170/10
f 242/171/4 126/172/4 76/115/4 232/173/4
f 61/79/10 21/170/10 23/174/10 66/81/10
f 46/175/5 48/176/5 33/177/5 2/178/5
f 50/179/5 4/180/5 33/177/5 48/176/5
f 236/181/10 62/182/10 44/183/10 234/184/10
f 230/185/10 18/186/10 62/182/10 236/181/10
f 10/187/5 35/188/5 80/189/5 78/190/5
f 82/191/5 80/189/5 35/188/5 12/192/5
f 126/172/4 123/193/4 108/113/4 76/115/4
f 69/194/4 71/195/4 106/116/4 107/114/4
f 72/196/4 69/194/4 107/114/4 108/113/4
f 39/197/10 103/80/10 66/81/10 57/198/10
f 37/199/4 104/42/4 103/43/4 39/200/4
f 40/39/4 105/38/4 104/42/4 37/199/4
f 253/201/4 250/202/4 115/203/4 111/204/4
f 254/205/3 112/206/3 110/207/3 252/208/3
f 135/209/4 115/203/4 110/210/4 131/211/4
f 255/212/3 251/213/3 109/214/3 113/215/3
f 133/216/1 112/217/1 113/218/1 134/219/1
f 67/89/3 24/88/3 116/220/3 120/221/3
f 60/27/3 119/222/3 117/223/3 40/28/3
f 234/224/4 44/41/4 118/225/4 240/226/4
f 44/41/4 105/38/4 122/37/4 118/225/4
f 250/202/4 122/37/4 117/40/4 252/227/4
f 254/228/1 119/1/1 120/4/1 255/229/1
f 92/160/1 127/230/1 128/231/1 98/161/1
f 108/113/4 123/193/4 125/232/4 72/196/4
f 132/233/4 135/209/4 123/193/4 126/172/4
f 132/234/5 126/235/5 140/236/5 136/237/5
f 133/238/3 127/111/3 125/112/3 131/239/3
f 134/240/3 130/241/3 124/24/3 128/23/3
f 113/215/3 109/214/3 130/241/3 134/240/3
f 112/206/3 133/238/3 131/239/3 110/207/3
f 161/242/10 129/243/10 141/244/10 163/245/10
f 111/204/4 115/203/4 135/209/4 132/233/4
f 127/230/1 133/216/1 134/219/1 128/231/1
f 123/193/4 135/209/4 131/211/4 125/232/4
f 111/246/5 132/234/5 136/237/5 137/247/5
f 146/248/2 214/249/2 213/250/2 143/251/2
f 216/252/11 151/253/11 153/254/11 218/255/11
f 218/255/12 153/254/12 152/256/12 217/257/12
f 156/258/4 144/259/4 149/260/4 160/261/4
f 154/262/10 142/263/10 145/264/10 157/265/10
f 157/265/10 145/264/10 144/266/10 156/267/10
f 215/268/4 150/269/4 143/270/4 213/271/4
f 228/272/2 147/273/2 146/248/2 239/274/2
f 239/274/2 146/248/2 143/251/2 233/275/2
f 129/276/4 161/277/4 155/278/4 73/279/4
f 99/280/10 157/265/10 156/267/10 41/281/10
f 34/282/10 154/262/10 157/265/10 99/280/10
f 256/283/4 258/284/4 159/285/4 114/286/4
f 41/287/4 156/258/4 160/261/4 121/288/4
f 138/289/12 164/290/12 163/291/12 141/292/12
f 139/293/11 162/294/11 164/290/11 138/289/11
f 114/295/2 159/296/2 162/297/2 139/298/2
f 222/299/10 161/242/10 163/245/10 224/300/10
f 221/301/2 165/9/2 158/5/2 220/302/2
f 220/302/2 158/5/2 155/8/2 219/303/2
f 171/304/13 173/305/13 160/306/13 149/307/13
f 261/308/14 171/309/14 149/310/14 257/311/14
f 258/312/15 160/313/15 173/314/15 262/315/15
f 264/316/5 216/317/5 166/318/5 259/319/5
f 227/320/2 226/321/2 168/322/2 169/323/2
f 263/324/3 260/325/3 167/326/3 223/327/3
f 188/328/16 190/329/16 195/330/16 194/331/16
f 187/332/3 190/333/3 177/334/3 180/335/3
f 183/336/17 193/337/17 195/338/17 186/339/17
f 178/340/5 176/341/5 175/342/5 182/343/5
f 182/344/18 175/345/18 193/346/18 183/347/18
f 187/348/13 182/349/13 183/350/13 186/351/13
f 175/345/19 184/352/19 192/353/19 193/346/19
f 184/354/20 188/355/20 194/356/20 192/357/20
f 190/329/21 187/358/21 186/359/21 195/330/21
f 187/306/2 180/360/2 178/361/2 182/362/2
f 176/341/5 179/363/5 184/364/5 175/342/5
f 181/365/10 188/366/10 184/367/10 179/368/10
f 190/333/3 188/369/3 181/370/3 177/334/3
f 185/371/22 174/372/22 193/373/22 192/357/22
f 189/374/22 185/371/22 192/357/22 194/356/22
f 191/375/22 189/374/22 194/356/22 195/376/22
f 174/372/22 191/375/22 195/376/22 193/373/22
f 185/377/23 189/378/23 198/379/23 196/380/23
f 191/381/24 174/382/24 197/383/24 199/384/24
f 199/385/22 197/386/22 201/387/22 203/388/22
f 196/389/25 198/390/25 202/391/25 200/392/25
f 198/390/22 199/385/22 203/388/22 202/391/22
f 197/386/22 196/389/22 200/392/22 201/387/22
f 189/393/5 191/394/5 199/395/5 198/396/5
f 174/393/3 185/397/3 196/398/3 197/399/3
f 205/400/26 206/401/26 207/402/26 204/403/26
f 209/404/27 205/405/27 204/406/27 208/407/27
f 211/408/28 209/409/28 208/410/28 210/411/28
f 206/412/29 211/413/29 210/414/29 207/415/29
f 206/416/22 205/417/22 209/418/22 211/419/22
f 208/420/30 204/421/30 200/422/30 202/423/30
f 204/424/5 207/425/5 201/426/5 200/427/5
f 207/428/31 210/429/31 203/430/31 201/431/31
f 210/432/3 208/433/3 202/434/3 203/435/3
f 260/315/4 259/436/4 166/437/4 167/438/4
f 147/273/2 212/439/2 214/249/2 146/248/2
f 150/440/10 215/441/10 217/442/10 152/443/10
f 222/444/4 215/268/4 213/271/4 219/445/4
f 225/446/12 218/255/12 217/257/12 224/447/12
f 223/448/11 216/252/11 218/255/11 225/446/11
f 162/294/11 223/448/11 225/446/11 164/290/11
f 164/290/12 225/446/12 224/447/12 163/291/12
f 161/277/4 222/444/4 219/445/4 155/278/4
f 214/249/2 220/302/2 219/303/2 213/250/2
f 212/439/2 221/301/2 220/302/2 214/249/2
f 215/441/10 222/299/10 224/300/10 217/442/10
f 151/449/2 216/450/2 170/451/2 148/452/2
f 262/453/3 263/324/3 223/327/3 172/454/3
f 173/455/2 171/456/2 226/321/2 227/320/2
f 261/457/5 170/458/5 216/317/5 264/316/5
f 162/297/2 159/296/2 172/459/2 223/460/2
f 101/461/2 238/462/2 232/463/2 76/464/2
f 238/462/2 239/274/2 233/275/2 232/463/2
f 26/465/2 229/466/2 238/462/2 101/461/2
f 229/466/2 228/272/2 239/274/2 238/462/2
f 144/259/4 235/467/4 241/468/4 149/260/4
f 235/467/4 234/224/4 240/226/4 241/468/4
f 142/263/10 231/469/10 237/470/10 145/264/10
f 231/469/10 230/185/10 236/181/10 237/470/10
f 145/264/10 237/470/10 235/471/10 144/266/10
f 237/470/10 236/181/10 234/184/10 235/471/10
f 150/269/4 243/472/4 233/473/4 143/270/4
f 243/472/4 242/171/4 232/173/4 233/473/4
f 246/474/32 247/475/32 248/476/32 249/477/32
f 244/478/33 249/477/33 248/476/33 245/479/33
f 171/480/5 261/457/5 264/316/5 226/481/5
f 173/482/3 227/483/3 263/324/3 262/453/3
f 169/314/4 168/484/4 259/436/4 260/315/4
f 227/483/3 169/485/3 260/325/3 263/324/3
f 226/481/5 264/316/5 259/319/5 168/486/5
f 159/487/15 258/312/15 262/315/15 172/488/15
f 170/489/14 261/308/14 257/311/14 148/490/14
f 121/288/4 160/261/4 258/284/4 256/283/4
f 112/217/1 254/228/1 255/229/1 113/218/1
f 115/203/4 250/202/4 252/227/4 110/210/4
f 120/221/3 116/220/3 251/213/3 255/212/3
f 119/222/3 254/205/3 252/208/3 117/223/3
f 118/225/4 122/37/4 250/202/4 253/201/4
f 273/491/10 274/492/10 242/493/10 275/494/10
f 276/495/10 277/496/10 278/497/10 243/498/10
f 267/499/34 271/500/34 272/501/34 268/502/34
f 266/503/35 269/504/35 270/505/35 265/506/35
f 271/507/36 281/508/36 282/509/36 272/510/36
f 269/511/37 279/512/37 280/513/37 270/514/37
f 281/508/38 277/515/38 276/516/38 282/509/38
f 279/512/39 274/517/39 273/518/39 280/513/39
f 284/519/40 267/520/40 268/521/40 283/522/40
f 286/523/41 266/524/41 265/525/41 285/526/41
f 285/527/42 284/528/42 283/529/42 286/530/42
f 266/531/2 111/486/2 137/532/2 269/533/2
f 247/534/5 285/535/5 265/536/5 270/537/5
f 286/538/4 253/201/4 111/204/4 266/539/4
f 257/540/4 283/541/4 268/542/4 148/543/4
f 148/452/2 268/544/2 272/545/2 151/449/2
f 246/546/3 271/547/3 267/548/3 284/549/3
f 270/537/5 280/550/5 248/551/5 247/534/5
f 269/552/11 137/553/11 136/554/11 279/555/11
f 151/253/11 272/556/11 282/557/11 153/254/11
f 281/558/3 271/547/3 246/546/3 249/559/3
f 126/560/10 242/493/10 274/492/10 140/561/10
f 273/491/43 275/494/43 278/497/43 277/496/43 244/562/43 245/563/43
f 242/493/10 243/498/10 278/497/10 275/494/10
f 279/555/12 136/554/12 140/564/12 274/565/12
f 280/550/5 273/416/5 245/566/5 248/551/5
f 153/254/12 282/557/12 276/567/12 152/256/12
f 243/498/10 150/440/10 152/443/10 276/495/10
f 277/568/3 281/558/3 249/559/3 244/566/3
f 284/569/44 285/570/44 247/571/44 246/572/44
f 149/260/4 241/468/4 283/541/4 257/540/4
f 241/468/4 240/226/4 286/538/4 283/541/4
f 240/226/4 118/225/4 253/201/4 286/538/4
f 309/573/3 308/574/3 291/575/3 294/576/3
f 311/577/3 314/578/3 295/579/3 298/580/3
f 292/581/45 291/582/45 308/583/45 307/584/45
f 298/585/46 297/586/46 312/587/46 311/588/46
f 310/589/5 293/590/5 292/591/5 307/592/5
f 296/593/45 295/594/45 314/595/45 313/596/45
f 303/597/47 289/598/47 290/599/47 304/600/47
f 299/601/47 306/602/47 305/603/47 300/604/47
f 288/605/47 302/606/47 301/607/47 287/608/47
f 303/597/47 304/600/47 305/603/47 306/602/47
f 299/601/47 300/604/47 301/607/47 302/606/47
f 295/609/48 296/610/48 297/611/48 298/612/48
f 312/613/5 297/614/5 296/615/5 313/616/5
f 291/617/48 292/618/48 293/619/48 294/620/48
f 313/621/48 314/622/48 315/623/48 316/624/48
f 294/625/46 293/626/46 310/627/46 309/628/46
f 317/629/48 309/630/48 310/631/48 318/632/48
f 287/633/46 317/634/46 318/635/46 288/636/46
f 315/637/45 290/638/45 289/639/45 316/640/45
f 307/641/48 308/642/48 311/643/48 312/644/48
f 335/645/49 329/646/49 330/647/49 336/648/49
f 360/649/50 361/650/50 362/651/50 359/652/50
f 364/653/50 365/654/50 366/655/50 363/656/50
f 361/650/50 342/657/50 341/658/50 362/651/50
f 332/659/49 338/660/49 337/661/49 331/662/49
f 339/663/50 364/653/50 363/656/50 340/664/50
f 328/665/49 333/666/49 334/667/49 327/668/49
f 365/654/50 360/649/50 359/652/50 366/655/50
f 344/669/51 345/670/51 346/671/51 343/672/51
f 348/673/51 349/674/51 350/675/51 347/676/51
f 356/677/52 357/678/52 358/679/52 355/680/52
f 352/681/52 353/682/52 354/683/52 351/684/52
f 319/685/51 346/671/51 345/670/51 320/686/51
f 355/680/52 324/687/52 323/688/52 356/677/52
f 343/672/51 350/675/51 349/674/51 344/669/51
f 351/684/52 358/679/52 357/678/52 352/681/52
f 321/689/51 348/673/51 347/676/51 322/690/51
f 325/691/52 354/683/52 353/682/52 326/692/52
f 329/646/49 328/665/49 327/668/49 330/647/49
f 333/666/49 332/659/49 331/662/49 334/667/49
f 320/693/47 345/694/47 302/606/47 288/605/47
f 288/636/46 318/635/46 337/695/46 338/696/46 319/697/46 320/698/46
f 338/699/5 332/700/5 346/701/5 319/702/5
f 329/703/5 335/704/5 322/705/5 347/706/5
f 348/707/47 321/708/47 289/598/47 303/597/47
f 316/640/45 289/639/45 321/709/45 322/710/45 335/711/45 336/712/45
f 323/713/46 324/714/46 341/715/46 342/716/46 317/634/46 287/633/46
f 324/717/3 355/718/3 362/719/3 341/720/3
f 287/608/47 301/607/47 356/721/47 323/722/47
f 339/723/45 340/724/45 325/725/45 326/726/45 290/638/45 315/637/45
f 354/727/3 325/728/3 340/729/3 363/730/3
f 304/600/47 290/599/47 326/731/47 353/732/47
f 333/733/5 328/734/5 350/735/5 343/736/5
f 334/737/48 307/641/48 312/644/48 327/738/48
f 312/644/48 313/621/48 330/739/48 327/738/48
f 329/703/5 347/706/5 350/735/5 328/734/5
f 330/739/48 313/621/48 316/624/48 336/740/48
f 310/631/48 307/641/48 334/737/48 331/741/48
f 333/733/5 343/736/5 346/701/5 332/700/5
f 318/632/48 310/631/48 331/741/48 337/742/48
f 314/622/48 364/743/48 339/744/48 315/623/48
f 342/745/48 361/746/48 309/630/48 317/629/48
f 344/747/47 349/748/47 306/602/47 299/601/47
f 344/747/47 299/601/47 302/606/47 345/694/47
f 348/707/47 303/597/47 306/602/47 349/748/47
f 304/600/47 353/732/47 352/749/47 305/603/47
f 354/727/3 363/730/3 366/750/3 351/751/3
f 358/752/3 351/751/3 366/750/3 359/753/3
f 300/604/47 305/603/47 352/749/47 357/754/47
f 300/604/47 357/754/47 356/721/47 301/607/47
f 358/752/3 359/753/3 362/719/3 355/718/3
f 361/746/48 360/755/48 308/642/48 309/630/48
f 308/642/48 360/755/48 365/756/48 311/643/48
f 365/756/48 364/743/48 314/622/48 311/643/48
f 447/1/4 448/757/4 398/758/4 391/2/4
f 481/759/2 478/760/2 404/761/2 431/762/2
f 165/9/2 481/759/2 431/762/2 102/10/2
f 402/763/2 436/764/2 428/765/2 420/766/2
f 389/767/3 388/768/3 370/769/3 368/770/3
f 374/771/1 373/772/1 369/773/1 367/774/1
f 455/775/3 429/776/3 32/25/3 124/24/3
f 391/777/3 389/767/3 368/770/3 371/778/3
f 390/779/5 393/780/5 375/781/5 374/782/5
f 374/783/2 367/784/2 395/785/2 390/786/2
f 450/787/1 445/788/1 371/789/1 435/790/1
f 435/790/1 434/791/1 374/771/1 375/792/1
f 434/791/1 433/793/1 373/772/1 374/771/1
f 1/131/53 2/130/53 377/794/53 376/795/53
f 376/796/54 377/797/54 379/798/54 378/799/54
f 378/800/55 379/801/55 381/802/55 380/803/55
f 380/804/56 381/805/56 4/806/56 3/807/56
f 383/808/54 382/809/54 385/810/54 386/811/54
f 384/812/55 383/813/55 386/814/55 387/815/55
f 382/816/53 5/817/53 7/818/53 385/819/53
f 6/820/56 384/821/56 387/822/56 8/823/56
f 373/824/10 392/825/10 394/826/10 369/827/10
f 433/828/10 397/829/10 392/825/10 373/824/10
f 388/82/4 389/85/4 396/830/4 397/831/4
f 17/86/5 18/87/5 393/780/5 390/779/5
f 24/88/3 22/91/3 396/832/3 398/833/3
f 22/91/3 23/92/3 397/834/3 396/832/3
f 389/85/4 391/2/4 398/758/4 396/830/4
f 421/93/3 400/835/3 402/836/3 420/94/3
f 406/837/1 399/838/1 401/839/1 405/840/1
f 423/101/3 403/841/3 400/835/3 421/93/3
f 422/842/5 406/843/5 407/844/5 432/845/5
f 406/846/10 422/847/10 426/848/10 399/849/10
f 454/850/3 452/851/3 403/841/3 423/101/3
f 438/852/1 407/853/1 406/837/1 437/854/1
f 437/854/1 406/837/1 405/840/1 436/855/1
f 9/856/56 408/857/56 409/858/56 10/859/56
f 408/860/55 410/861/55 411/862/55 409/863/55
f 410/864/54 412/865/54 413/866/54 411/867/54
f 412/868/53 11/869/53 12/870/53 413/871/53
f 415/872/55 418/873/55 417/874/55 414/875/55
f 416/132/54 419/876/54 418/877/54 415/878/54
f 414/144/56 417/879/56 15/880/56 13/881/56
f 14/882/53 16/883/53 419/884/53 416/885/53
f 405/886/2 401/887/2 425/888/2 424/889/2
f 436/764/2 405/886/2 424/889/2 428/765/2
f 420/150/4 428/890/4 427/891/4 421/151/4
f 25/154/5 422/842/5 432/845/5 26/155/5
f 32/25/3 429/776/3 427/892/3 30/156/3
f 30/156/3 427/892/3 428/893/3 31/158/3
f 421/151/4 427/891/4 429/894/4 423/160/4
f 422/847/10 25/163/10 28/162/10 426/848/10
f 424/889/2 425/888/2 27/165/2 29/164/2
f 428/765/2 424/889/2 29/164/2 31/166/2
f 390/786/2 395/785/2 20/168/2 17/167/2
f 392/825/10 21/170/10 19/169/10 394/826/10
f 558/895/1 548/896/1 407/853/1 453/897/1
f 392/825/10 397/829/10 23/174/10 21/170/10
f 377/898/5 2/178/5 33/177/5 379/899/5
f 381/900/5 379/899/5 33/177/5 4/180/5
f 552/901/10 550/902/10 375/783/10 393/903/10
f 230/185/10 552/901/10 393/903/10 18/186/10
f 10/187/5 409/904/5 411/905/5 35/188/5
f 413/906/5 12/192/5 35/188/5 411/905/5
f 453/897/1 407/853/1 438/852/1 451/907/1
f 400/908/1 437/854/1 436/855/1 402/909/1
f 403/910/1 438/852/1 437/854/1 400/908/1
f 370/911/10 388/912/10 397/829/10 433/828/10
f 368/913/1 370/914/1 433/793/1 434/791/1
f 371/789/1 368/913/1 434/791/1 435/790/1
f 568/915/1 440/916/1 444/917/1 566/918/1
f 569/919/3 567/920/3 439/921/3 441/922/3
f 461/923/1 457/924/1 439/925/1 444/917/1
f 570/926/3 442/927/3 109/214/3 251/213/3
f 459/216/4 460/928/4 442/929/4 441/217/4
f 398/833/3 448/930/3 116/220/3 24/88/3
f 391/777/3 371/778/3 445/931/3 447/932/3
f 550/933/1 556/934/1 446/935/1 375/792/1
f 375/792/1 446/935/1 450/787/1 435/790/1
f 566/918/1 567/936/1 445/788/1 450/787/1
f 569/228/4 570/937/4 448/757/4 447/1/4
f 423/160/4 429/894/4 455/938/4 454/230/4
f 438/852/1 403/910/1 452/939/1 451/907/1
f 458/940/1 453/897/1 451/907/1 461/923/1
f 458/941/5 462/942/5 466/943/5 453/944/5
f 459/945/3 457/946/3 452/851/3 454/850/3
f 460/947/3 455/775/3 124/24/3 130/241/3
f 442/927/3 460/947/3 130/241/3 109/214/3
f 441/922/3 439/921/3 457/946/3 459/945/3
f 484/948/10 486/949/10 467/950/10 456/951/10
f 440/916/1 458/940/1 461/923/1 444/917/1
f 454/230/4 455/938/4 460/928/4 459/216/4
f 451/907/1 452/939/1 457/924/1 461/923/1
f 440/952/5 463/742/5 462/942/5 458/941/5
f 471/953/2 468/954/2 534/955/2 535/956/2
f 537/957/57 539/958/57 477/959/57 475/960/57
f 539/958/58 538/961/58 476/962/58 477/959/58
f 479/963/1 483/964/1 473/965/1 469/966/1
f 154/262/10 480/967/10 470/968/10 142/263/10
f 480/967/10 479/969/10 469/970/10 470/968/10
f 536/971/1 534/972/1 468/973/1 474/974/1
f 228/272/2 555/975/2 471/953/2 147/273/2
f 555/975/2 549/976/2 468/954/2 471/953/2
f 456/977/1 404/978/1 478/979/1 484/980/1
f 430/981/10 372/784/10 479/969/10 480/967/10
f 34/282/10 430/981/10 480/967/10 154/262/10
f 571/982/1 443/983/1 482/984/1 573/985/1
f 372/986/1 449/987/1 483/964/1 479/963/1
f 464/988/58 467/989/58 486/990/58 487/991/58
f 465/992/57 464/988/57 487/991/57 485/993/57
f 443/994/2 465/995/2 485/996/2 482/997/2
f 542/998/10 544/999/10 486/949/10 484/948/10
f 221/301/2 541/1000/2 481/759/2 165/9/2
f 541/1000/2 540/1001/2 478/760/2 481/759/2
f 493/1002/59 473/1003/59 483/1004/59 495/1005/59
f 576/1006/60 572/1007/60 473/1008/60 493/1009/60
f 573/1010/61 577/1011/61 495/1012/61 483/1008/61
f 579/1013/5 574/319/5 488/318/5 537/1014/5
f 547/1015/2 491/1016/2 490/1017/2 546/1018/2
f 578/1019/3 543/1020/3 489/1021/3 575/1022/3
f 510/355/62 516/1023/62 517/1024/62 512/1025/62
f 509/1026/3 502/1027/3 499/1028/3 512/1029/3
f 505/1030/63 508/1027/63 517/1031/63 515/1032/63
f 500/1033/5 504/1034/5 497/1035/5 498/1036/5
f 504/344/64 505/1037/64 515/1038/64 497/1039/64
f 509/1040/59 508/1041/59 505/1042/59 504/349/59
f 497/1039/65 515/1038/65 514/1043/65 506/352/65
f 506/1044/66 514/1045/66 516/1046/66 510/1047/66
f 512/1025/67 517/1024/67 508/1048/67 509/1049/67
f 509/1050/2 504/1051/2 500/1052/2 502/1053/2
f 498/1036/5 497/1035/5 506/1054/5 501/1055/5
f 503/1056/10 501/1057/10 506/1058/10 510/1059/10
f 512/1029/3 499/1028/3 503/1060/3 510/1061/3
f 507/1062/68 514/1045/68 515/1063/68 496/1064/68
f 511/1065/68 516/1046/68 514/1045/68 507/1062/68
f 513/1066/68 517/1067/68 516/1046/68 511/1065/68
f 496/1064/68 515/1063/68 517/1067/68 513/1066/68
f 507/1068/69 518/1069/69 520/1070/69 511/1071/69
f 513/1072/70 521/1073/70 519/1074/70 496/1075/70
f 521/485/68 525/1076/68 523/1077/68 519/1078/68
f 518/1079/71 522/1080/71 524/1081/71 520/1082/71
f 520/1082/68 524/1081/68 525/1076/68 521/485/68
f 519/1078/68 523/1077/68 522/1080/68 518/1079/68
f 511/1083/5 520/397/5 521/393/5 513/1084/5
f 496/1085/3 519/1086/3 518/1087/3 507/1088/3
f 527/1089/72 526/1090/72 529/1091/72 528/1092/72
f 531/1093/73 530/1094/73 526/1095/73 527/1096/73
f 533/1097/74 532/1098/74 530/1099/74 531/1100/74
f 528/1101/75 529/1102/75 532/1103/75 533/1104/75
f 528/1105/68 533/1106/68 531/1107/68 527/1108/68
f 530/1109/76 524/314/76 522/1110/76 526/1111/76
f 526/1112/5 522/1113/5 523/434/5 529/1114/5
f 529/1115/77 523/1116/77 525/1117/77 532/1118/77
f 532/1113/3 525/1119/3 524/1120/3 530/1121/3
f 575/1122/1 489/1123/1 488/437/1 574/436/1
f 147/273/2 471/953/2 535/956/2 212/439/2
f 474/1124/10 476/1125/10 538/1126/10 536/1127/10
f 542/1128/1 540/1129/1 534/972/1 536/971/1
f 545/1130/58 544/1131/58 538/961/58 539/958/58
f 543/1132/57 545/1130/57 539/958/57 537/957/57
f 485/993/57 487/991/57 545/1130/57 543/1132/57
f 487/991/58 486/990/58 544/1131/58 545/1130/58
f 484/980/1 478/979/1 540/1129/1 542/1128/1
f 535/956/2 534/955/2 540/1001/2 541/1000/2
f 212/439/2 535/956/2 541/1000/2 221/301/2
f 536/1127/10 538/1126/10 544/999/10 542/998/10
f 475/1133/2 472/1134/2 492/1135/2 537/1136/2
f 577/453/3 494/1137/3 543/1020/3 578/1019/3
f 495/1138/2 547/1015/2 546/1018/2 493/1139/2
f 576/1140/5 579/1013/5 537/1014/5 492/1141/5
f 485/996/2 543/1142/2 494/1143/2 482/997/2
f 432/1144/2 407/1145/2 548/1146/2 554/1147/2
f 554/1147/2 548/1146/2 549/976/2 555/975/2
f 26/465/2 432/1144/2 554/1147/2 229/466/2
f 229/466/2 554/1147/2 555/975/2 228/272/2
f 469/966/1 473/965/1 557/1148/1 551/1149/1
f 551/1149/1 557/1148/1 556/934/1 550/933/1
f 142/263/10 470/968/10 553/1150/10 231/469/10
f 231/469/10 553/1150/10 552/901/10 230/185/10
f 470/968/10 469/970/10 551/1151/10 553/1150/10
f 553/1150/10 551/1151/10 550/902/10 552/901/10
f 474/974/1 468/973/1 549/1152/1 559/1153/1
f 559/1153/1 549/1152/1 548/896/1 558/895/1
f 562/1154/78 565/477/78 564/1155/78 563/1156/78
f 560/478/79 561/1157/79 564/1155/79 565/477/79
f 493/1158/5 546/1159/5 579/1013/5 576/1140/5
f 495/482/3 577/453/3 578/1019/3 547/1160/3
f 491/1161/1 575/1122/1 574/436/1 490/1162/1
f 547/1160/3 578/1019/3 575/1022/3 491/1163/3
f 546/1159/5 490/486/5 574/319/5 579/1013/5
f 482/1164/61 494/490/61 577/1011/61 573/1010/61
f 492/1165/60 472/1164/60 572/1007/60 576/1006/60
f 449/987/1 571/982/1 573/985/1 483/964/1
f 441/217/4 442/929/4 570/937/4 569/228/4
f 444/917/1 439/925/1 567/936/1 566/918/1
f 448/930/3 570/926/3 251/213/3 116/220/3
f 447/932/3 445/931/3 567/920/3 569/919/3
f 446/935/1 568/915/1 566/918/1 450/787/1
f 588/1166/10 590/1167/10 558/1168/10 589/1169/10
f 591/1170/10 559/1171/10 593/1172/10 592/1173/10
f 582/1174/80 583/1175/80 587/1176/80 586/1177/80
f 581/1178/81 580/1179/81 585/1180/81 584/1181/81
f 586/1182/82 587/1183/82 597/1184/82 596/1185/82
f 584/1186/83 585/1187/83 595/1188/83 594/1189/83
f 596/1185/84 597/1184/84 591/1190/84 592/1191/84
f 594/1189/85 595/1188/85 588/1192/85 589/1193/85
f 599/1194/86 598/1195/86 583/1196/86 582/1197/86
f 601/1198/87 600/1199/87 580/1200/87 581/1201/87
f 600/527/88 601/1202/88 598/1203/88 599/528/88
f 581/1204/2 584/1205/2 463/1206/2 440/1207/2
f 563/1208/5 585/1209/5 580/1210/5 600/1211/5
f 601/1212/1 581/1213/1 440/916/1 568/915/1
f 572/1214/1 472/1215/1 583/1216/1 598/1217/1
f 472/1134/2 475/1133/2 587/1218/2 583/1219/2
f 562/1220/3 599/1221/3 582/1222/3 586/1223/3
f 585/1209/5 563/1208/5 564/1224/5 595/1225/5
f 584/1226/57 594/1227/57 462/1228/57 463/1229/57
f 475/960/57 477/959/57 597/1230/57 587/1231/57
f 596/1232/3 565/1233/3 562/1220/3 586/1223/3
f 453/763/10 466/1234/10 589/1169/10 558/1168/10
f 588/1166/89 561/1235/89 560/1236/89 592/1173/89 593/1172/89 590/1167/89
f 558/1168/10 590/1167/10 593/1172/10 559/1171/10
f 594/1227/58 589/565/58 466/564/58 462/1228/58
f 595/1225/5 564/1224/5 561/1237/5 588/1238/5
f 477/959/58 476/962/58 591/1239/58 597/1230/58
f 559/1171/10 591/1170/10 476/1125/10 474/1124/10
f 592/1240/3 560/1241/3 565/1233/3 596/1232/3
f 599/1242/90 562/1243/90 563/1244/90 600/1245/90
f 473/965/1 572/1214/1 598/1217/1 557/1148/1
f 557/1148/1 598/1217/1 601/1212/1 556/934/1
f 556/934/1 601/1212/1 568/915/1 446/935/1
f 624/1246/3 609/1247/3 606/127/3 623/1248/3
f 626/1249/3 613/1250/3 610/1251/3 629/1252/3
f 607/1253/91 622/1254/91 623/1255/91 606/861/91
f 613/627/92 626/1256/92 627/1257/92 612/1258/92
f 625/1259/5 622/1260/5 607/1261/5 608/1262/5
f 611/570/91 628/1255/91 629/581/91 610/584/91
f 618/1263/93 619/1264/93 605/1265/93 604/1266/93
f 614/1267/93 615/1268/93 620/1269/93 621/1270/93
f 603/1271/93 602/1272/93 616/1273/93 617/1274/93
f 618/1263/93 621/1270/93 620/1269/93 619/1264/93
f 614/1267/93 617/1274/93 616/1273/93 615/1268/93
f 610/1275/94 613/1276/94 612/1277/94 611/1278/94
f 627/552/5 628/1279/5 611/1280/5 612/1281/5
f 606/1282/94 609/1283/94 608/1284/94 607/1285/94
f 628/1286/94 631/1287/94 630/1288/94 629/1289/94
f 609/1290/92 624/1291/92 625/1292/92 608/1293/92
f 632/1294/94 633/1295/94 625/1296/94 624/1297/94
f 602/1298/92 603/1299/92 633/1300/92 632/1301/92
f 630/1302/91 631/1303/91 604/1304/91 605/1305/91
f 622/1306/94 627/1307/94 626/1308/94 623/1309/94
f 650/1310/95 651/1311/95 645/1312/95 644/1313/95
f 675/1314/96 674/1315/96 677/1316/96 676/1317/96
f 679/1318/96 678/1319/96 681/675/96 680/1320/96
f 676/1317/96 677/1316/96 656/1321/96 657/1322/96
f 647/1323/95 646/1324/95 652/1325/95 653/1326/95
f 654/1327/96 655/1328/96 678/1319/96 679/1318/96
f 643/1329/95 642/1330/95 649/1331/95 648/1332/95
f 680/1320/96 681/675/96 674/1315/96 675/1314/96
f 659/1333/97 658/678/97 661/1334/97 660/1335/97
f 663/1336/97 662/682/97 665/1337/97 664/1338/97
f 671/1339/98 670/1340/98 673/1341/98 672/1342/98
f 667/1343/98 666/1344/98 669/1345/98 668/1346/98
f 634/1347/97 635/1348/97 660/1335/97 661/1334/97
f 670/1340/98 671/1339/98 638/1349/98 639/1350/98
f 658/678/97 659/1333/97 664/1338/97 665/1337/97
f 666/1344/98 667/1343/98 672/1342/98 673/1341/98
f 636/1351/97 637/1352/97 662/682/97 663/1336/97
f 640/1353/98 641/1354/98 668/1346/98 669/1345/98
f 644/1313/95 645/1312/95 642/1330/95 643/1329/95
f 648/1332/95 649/1331/95 646/1324/95 647/1323/95
f 635/1157/93 603/1271/93 617/1274/93 660/1355/93
f 603/1299/92 635/1356/92 634/1357/92 653/1358/92 652/1359/92 633/1300/92
f 653/1360/5 634/686/5 661/1361/5 647/1362/5
f 644/1363/5 662/1364/5 637/689/5 650/1365/5
f 663/1366/93 618/1263/93 604/1266/93 636/1367/93
f 631/1303/91 651/1368/91 650/1369/91 637/1370/91 636/1371/91 604/1304/91
f 638/1372/92 602/1298/92 632/1301/92 657/1373/92 656/1374/92 639/1375/92
f 639/1376/3 656/1377/3 677/1378/3 670/1379/3
f 602/1272/93 638/1380/93 671/1381/93 616/1273/93
f 654/1382/91 630/1302/91 605/1305/91 641/1383/91 640/1384/91 655/1385/91
f 669/1386/3 678/1387/3 655/1388/3 640/1389/3
f 619/1264/93 668/1390/93 641/1391/93 605/1265/93
f 648/1392/5 658/669/5 665/1393/5 643/1394/5
f 649/1395/94 642/1396/94 627/1307/94 622/1306/94
f 627/1307/94 642/1396/94 645/1397/94 628/1286/94
f 644/1363/5 643/1394/5 665/1393/5 662/1364/5
f 645/1397/94 651/1398/94 631/1287/94 628/1286/94
f 625/1296/94 646/1399/94 649/1395/94 622/1306/94
f 648/1392/5 647/1362/5 661/1361/5 658/669/5
f 633/1295/94 652/1400/94 646/1399/94 625/1296/94
f 629/1289/94 630/1288/94 654/1401/94 679/1402/94
f 657/1403/94 632/1294/94 624/1297/94 676/1404/94
f 659/1405/93 614/1267/93 621/1270/93 664/1406/93
f 659/1405/93 660/1355/93 617/1274/93 614/1267/93
f 663/1366/93 664/1406/93 621/1270/93 618/1263/93
f 619/1264/93 620/1269/93 667/1407/93 668/1390/93
f 669/1386/3 666/1408/3 681/1409/3 678/1387/3
f 673/1410/3 674/1411/3 681/1409/3 666/1408/3
f 615/1268/93 672/1412/93 667/1407/93 620/1269/93
f 615/1268/93 616/1273/93 671/1381/93 672/1412/93
f 673/1410/3 670/1379/3 677/1378/3 674/1411/3
f 676/1404/94 624/1297/94 623/1309/94 675/1413/94
f 623/1309/94 626/1308/94 680/1414/94 675/1413/94
f 680/1414/94 626/1308/94 629/1289/94 679/1402/94
