# Blender 5.2.2 LTS
# www.blender.org
mtllib DoorwayPrisonRailFrame.mtl
o DoorwayPrisonRailFrame
v -0.141302 3.882255 2.275308
v 0.140171 3.882254 2.275308
v 0.140171 2.801870 2.275308
v -0.141302 2.801870 2.275308
v -0.141302 3.882255 0.000000
v 0.140171 2.801870 1.554684
v 0.140171 0.323288 1.554684
v -0.141302 0.323288 1.554684
v -0.141302 2.801870 1.554684
v 0.140171 3.882254 0.000000
v 0.140171 0.323288 0.000000
v -0.141302 0.323288 0.000000
v 0.140171 0.181348 1.696624
v -0.141302 0.181348 1.696624
v 0.140171 2.659930 1.696624
v -0.141302 2.659930 2.417248
v -0.141302 4.024195 2.417248
v 0.140171 4.024194 2.417248
v 0.140171 2.659930 2.417248
v -0.141302 2.659930 1.696624
v 0.140171 4.024194 0.000000
v -0.141302 4.024194 0.000000
v -0.141302 0.181348 0.000000
v 0.140171 0.181348 0.000000
v 0.095123 0.181348 3.405873
v -0.096255 0.181348 3.405873
v 0.095123 2.659930 3.405873
v -0.096255 2.659930 3.405873
v -0.122319 2.659930 2.416913
v -0.122319 0.181348 2.416913
v 0.121187 0.181348 2.416912
v 0.121187 2.659930 2.416913
v -0.108952 3.595283 2.417248
v 0.107821 3.595283 2.417248
v -0.096255 3.595283 3.405873
v 0.095123 3.595283 3.405873
v -0.141302 0.323288 0.777342
v 0.140171 0.323288 0.777342
v -0.141302 0.181348 0.848312
v 0.140171 0.181348 0.848312
v -0.141302 0.016735 0.000000
v 0.140171 0.016735 0.000000
v -0.141302 0.016735 0.675353
v 0.140171 0.016735 0.675353
v 0.140171 3.882254 1.137654
v -0.141302 3.882255 1.137654
v 0.140171 4.024194 1.208624
v -0.141302 4.024195 1.208624
v 0.140171 4.083023 1.208624
v 0.140171 4.083023 0.000000
v -0.141302 4.083023 0.000000
v -0.141302 4.083024 1.208624
v 0.066593 0.323288 1.554684
v -0.067724 0.323288 1.554684
v 0.066593 3.882254 2.275308
v -0.067724 3.882255 2.275308
v 0.066593 2.801870 2.275308
v -0.067724 2.801870 2.275308
v 0.066593 2.801870 1.554684
v -0.067724 2.801870 1.554684
v 0.066593 3.882254 0.000000
v -0.067724 3.882255 0.000000
v -0.067724 0.323288 0.000000
v 0.066593 0.323288 0.000000
v -0.067724 0.323288 0.777342
v 0.066593 0.323288 0.777342
v 0.066593 3.882254 1.137654
v -0.067724 3.882255 1.137654
v -0.141302 3.451855 2.275308
v 0.140171 3.451855 2.275308
v -0.141302 3.451855 2.417248
v 0.140171 3.451855 2.417248
v 0.114504 3.237399 2.417080
v -0.115635 3.237399 2.417080
v 0.095123 3.237399 3.405873
v -0.096255 3.237399 3.405873
v 0.066593 3.451855 2.275308
v -0.067724 3.451855 2.275308
v 0.140171 4.101650 2.500487
v 0.066593 0.323288 2.275308
v -0.067724 0.323288 2.275308
v 0.066593 3.451855 2.289762
v -0.067724 3.451855 2.289762
v 0.066593 0.323288 2.289762
v -0.067724 0.323288 2.289762
v 0.066593 2.801870 2.289762
v -0.067724 2.801870 2.289762
v -0.141302 3.882255 -2.275308
v 0.140171 3.882254 -2.275308
v 0.140171 2.801870 -2.275308
v -0.141302 2.801870 -2.275308
v 0.140171 2.801870 -1.554684
v 0.140171 0.323288 -1.554684
v -0.141302 0.323288 -1.554684
v -0.141302 2.801870 -1.554684
v 0.140171 0.181348 -1.696624
v -0.141302 0.181348 -1.696624
v 0.140171 2.659930 -1.696624
v -0.141302 2.659930 -2.417248
v -0.141302 4.024195 -2.417248
v 0.140171 4.024194 -2.417248
v 0.140171 2.659930 -2.417248
v -0.141302 2.659930 -1.696624
v 0.095123 0.181348 -3.405873
v -0.096255 0.181348 -3.405873
v 0.095123 2.659930 -3.405873
v -0.096255 2.659930 -3.405873
v -0.122319 2.659930 -2.416913
v -0.122319 0.181348 -2.416913
v 0.121187 0.181348 -2.416912
v 0.121187 2.659930 -2.416913
v -0.108952 3.595283 -2.417248
v 0.107821 3.595283 -2.417248
v -0.096255 3.595283 -3.405873
v 0.095123 3.595283 -3.405873
v -0.141302 0.323288 -0.777342
v 0.140171 0.323288 -0.777342
v -0.141302 0.181348 -0.848312
v 0.140171 0.181348 -0.848312
v -0.141302 0.016735 -0.675353
v 0.140171 0.016735 -0.675353
v 0.140171 3.882254 -1.137654
v -0.141302 3.882255 -1.137654
v 0.140171 4.024194 -1.208624
v -0.141302 4.024195 -1.208624
v 0.140171 4.083023 -1.208624
v -0.141302 4.083024 -1.208624
v 0.066593 0.323288 -1.554684
v -0.067724 0.323288 -1.554684
v 0.066593 3.882254 -2.275308
v -0.067724 3.882255 -2.275308
v 0.066593 2.801870 -2.275308
v -0.067724 2.801870 -2.275308
v 0.066593 2.801870 -1.554684
v -0.067724 2.801870 -1.554684
v -0.067724 0.323288 -0.777342
v 0.066593 0.323288 -0.777342
v 0.066593 3.882254 -1.137654
v -0.067724 3.882255 -1.137654
v -0.141302 3.451855 -2.275308
v 0.140171 3.451855 -2.275308
v -0.141302 3.451855 -2.417248
v 0.140171 3.451855 -2.417248
v 0.114504 3.237399 -2.417080
v -0.115635 3.237399 -2.417080
v 0.095123 3.237399 -3.405873
v -0.096255 3.237399 -3.405873
v 0.066593 3.451855 -2.275308
v -0.067724 3.451855 -2.275308
v 0.140171 4.101650 -2.500487
v 0.066593 0.323288 -2.275308
v -0.067724 0.323288 -2.275308
v 0.066593 3.451855 -2.289762
v -0.067724 3.451855 -2.289762
v 0.066593 0.323288 -2.289762
v -0.067724 0.323288 -2.289762
v 0.066593 2.801870 -2.289762
v -0.067724 2.801870 -2.289762
vn -0.0000 1.0000 -0.0000
vn -0.0000 -0.0000 -1.0000
vn -0.0000 -1.0000 -0.0000
vn -1.0000 -0.0000 -0.0000
vn 1.0000 -0.0000 -0.0000
vn -0.9997 -0.0000 0.0263
vn 0.9997 -0.0000 0.0263
vn -0.0000 -0.0000 1.0000
vn -0.0104 -0.0002 0.9999
vn 0.0104 -0.0002 0.9999
vn 0.9998 0.0093 0.0162
vn -0.9998 0.0093 0.0162
vn -0.0000 -0.7244 0.6894
vn -0.9997 0.0058 0.0230
vn 0.9997 0.0058 0.0230
vn 0.0008 -0.0002 1.0000
vn -0.0008 -0.0002 1.0000
vn -0.9997 -0.0000 -0.0263
vn 0.9997 -0.0000 -0.0263
vn -0.0104 -0.0002 -0.9999
vn 0.0104 -0.0002 -0.9999
vn 0.9998 0.0093 -0.0162
vn -0.9998 0.0093 -0.0162
vn -0.0000 -0.7244 -0.6894
vn -0.9997 0.0058 -0.0230
vn 0.9997 0.0058 -0.0230
vn 0.0008 -0.0002 -1.0000
vn -0.0008 -0.0002 -1.0000
vt 0.511620 0.685306
vt 0.519021 0.685306
vt 0.519021 0.757792
vt 0.511620 0.757792
vt 0.211905 0.934620
vt 0.211905 0.685306
vt 0.219306 0.685306
vt 0.219306 0.934620
vt 0.453209 0.750686
vt 0.453209 0.685306
vt 0.460610 0.685306
vt 0.460610 0.750686
vt 0.867258 0.114433
vt 0.867258 0.000000
vt 0.874659 0.000000
vt 0.874659 0.114433
vt 0.838945 0.152130
vt 0.838945 0.073940
vt 0.846346 0.073940
vt 0.846346 0.152130
vt 0.403985 0.806878
vt 0.375672 0.806878
vt 0.375672 0.685306
vt 0.403985 0.685306
vt 0.204504 0.942564
vt 0.176192 0.942564
vt 0.176192 0.857235
vt 0.204504 0.857235
vt 0.020195 0.457087
vt 0.005917 0.464225
vt 0.005917 0.342653
vt 0.020195 0.342653
vt 0.378181 0.499034
vt 0.392459 0.513312
vt 0.143145 0.513312
vt 0.128868 0.499034
vt 0.378181 0.420844
vt 0.392459 0.427982
vt 0.537884 0.113786
vt 0.552162 0.099509
vt 0.552162 0.171994
vt 0.537884 0.186272
vt 0.801475 0.171994
vt 0.787198 0.186272
vt 0.787198 0.264462
vt 0.801475 0.257324
vt 0.801475 0.342653
vt 0.787198 0.342653
vt 0.143145 0.585797
vt 0.128868 0.571520
vt 0.063487 0.571520
vt 0.063487 0.585797
vt 0.005917 0.585797
vt 0.020195 0.571520
vt 0.429212 0.228220
vt 0.414934 0.221081
vt 0.414934 0.099509
vt 0.429212 0.113786
vt 0.472504 0.113786
vt 0.472504 0.099509
vt 0.143145 0.585789
vt 0.392459 0.585789
vt 0.392459 0.685300
vt 0.143145 0.685300
vt 0.801475 0.099517
vt 0.552162 0.099517
vt 0.552162 0.000006
vt 0.801475 0.000006
vt 0.837284 0.709955
vt 0.818034 0.709955
vt 0.818034 0.460642
vt 0.837285 0.460642
vt 0.202595 0.784783
vt 0.178101 0.784783
vt 0.180723 0.685306
vt 0.199973 0.685306
vt 0.533823 0.757791
vt 0.533823 0.685306
vt 0.535733 0.685340
vt 0.538270 0.757781
vt 0.537642 0.685306
vt 0.539552 0.685306
vt 0.319046 0.822534
vt 0.290734 0.822534
vt 0.293988 0.779391
vt 0.315793 0.779391
vt 0.319047 0.764964
vt 0.316465 0.743392
vt 0.317137 0.685306
vt 0.319047 0.685306
vt 0.290734 0.764964
vt 0.290734 0.685306
vt 0.292644 0.685306
vt 0.293316 0.743392
vt 0.482414 0.685306
vt 0.504219 0.685306
vt 0.502942 0.784749
vt 0.483692 0.784749
vt 0.818034 0.768041
vt 0.837284 0.768041
vt 0.837284 0.804040
vt 0.818034 0.804040
vt 0.494072 0.099483
vt 0.458067 0.099451
vt 0.458077 0.000000
vt 0.494076 0.000004
vt 0.085059 0.685302
vt 0.049060 0.685306
vt 0.049050 0.585855
vt 0.085055 0.585823
vt 0.378181 0.342653
vt 0.392459 0.342653
vt 0.409017 0.342653
vt 0.409017 0.410585
vt 0.838945 0.230321
vt 0.846346 0.230321
vt 0.347359 0.753238
vt 0.319047 0.753238
vt 0.319047 0.685306
vt 0.347359 0.685306
vt 0.818033 0.274721
vt 0.818033 0.342653
vt 0.565479 0.713619
vt 0.565479 0.685306
vt 0.589497 0.685306
vt 0.589497 0.713619
vt 0.429212 0.342653
vt 0.414934 0.342653
vt 0.409017 0.342653
vt 0.409017 0.221081
vt 0.867258 0.228867
vt 0.874659 0.228867
vt 0.262421 0.806878
vt 0.234108 0.806878
vt 0.234108 0.685306
vt 0.262421 0.685306
vt 0.595414 0.685306
vt 0.595414 0.713619
vt 0.589497 0.713619
vt 0.589497 0.685306
vt -0.000000 0.464225
vt 0.000000 0.342653
vt 0.846346 0.228867
vt 0.846346 0.114433
vt 0.853747 0.114433
vt 0.853747 0.228867
vt 0.818034 0.230321
vt 0.818034 0.152130
vt 0.825435 0.152130
vt 0.825435 0.230321
vt 0.818034 0.073940
vt 0.825435 0.073940
vt 0.846346 0.000000
vt 0.853747 0.000000
vt 0.432297 0.750686
vt 0.432297 0.685306
vt 0.439698 0.685306
vt 0.439698 0.750686
vt 0.219306 0.934620
vt 0.219306 0.685306
vt 0.226707 0.685306
vt 0.226707 0.934620
vt 0.526422 0.685306
vt 0.526422 0.757792
vt 0.519021 0.757792
vt 0.439698 0.793979
vt 0.453209 0.793979
vt 0.432297 0.793979
vt 0.460610 0.793979
vt 0.825434 0.001454
vt 0.838945 0.001454
vt 0.825434 0.000000
vt 0.838945 0.000000
vt 0.601331 0.698817
vt 0.601332 0.685306
vt 0.602785 0.685306
vt 0.602785 0.698817
vt 0.957496 0.775336
vt 0.943985 0.775336
vt 0.943985 0.709955
vt 0.957496 0.709956
vt 0.943985 0.460642
vt 0.957496 0.460642
vt 0.947145 0.249314
vt 0.948599 0.249314
vt 0.948599 0.314694
vt 0.947145 0.314694
vt 0.857989 0.709955
vt 0.857989 0.775336
vt 0.856535 0.775336
vt 0.856535 0.709955
vt 0.856535 0.460642
vt 0.857989 0.460642
vt 0.948599 0.000000
vt 0.947145 0.000000
vt 0.874659 0.249314
vt 0.874659 0.000000
vt 0.930474 0.709955
vt 0.930474 0.460642
vt 0.504219 0.757792
vt 0.504219 0.685306
vt 0.511620 0.685306
vt 0.511620 0.757792
vt 0.234108 0.934620
vt 0.226707 0.934620
vt 0.226707 0.685306
vt 0.411386 0.750686
vt 0.403985 0.750686
vt 0.403985 0.685306
vt 0.411386 0.685306
vt 0.867258 0.343300
vt 0.874659 0.343300
vt 0.874659 0.457734
vt 0.867258 0.457734
vt 0.838945 0.308512
vt 0.846346 0.308512
vt 0.846346 0.386702
vt 0.838945 0.386702
vt 0.375672 0.685306
vt 0.375672 0.806878
vt 0.347359 0.806878
vt 0.347359 0.685306
vt 0.176192 0.685306
vt 0.176192 0.770635
vt 0.147879 0.770635
vt 0.147879 0.685306
vt 0.020195 0.228220
vt 0.005917 0.221081
vt 0.378181 0.186272
vt 0.128868 0.186272
vt 0.143145 0.171994
vt 0.392459 0.171994
vt 0.378181 0.264462
vt 0.392459 0.257324
vt 0.537884 0.571520
vt 0.537884 0.499034
vt 0.552162 0.513312
vt 0.552162 0.585797
vt 0.787198 0.499034
vt 0.801475 0.513312
vt 0.787198 0.420844
vt 0.801475 0.427982
vt 0.128868 0.113786
vt 0.143145 0.099509
vt 0.063488 0.113786
vt 0.020195 0.113786
vt 0.005917 0.099509
vt 0.063488 0.099509
vt 0.429212 0.457087
vt 0.429212 0.571520
vt 0.414934 0.585797
vt 0.414934 0.464225
vt 0.472504 0.571520
vt 0.472504 0.585797
vt 0.143145 0.099517
vt 0.143145 0.000006
vt 0.392459 0.000006
vt 0.392459 0.099517
vt 0.801475 0.585789
vt 0.801475 0.685300
vt 0.552162 0.685300
vt 0.552162 0.585789
vt 0.837285 0.709955
vt 0.856535 0.460642
vt 0.856535 0.709955
vt 0.174282 0.843087
vt 0.171661 0.942564
vt 0.152410 0.942564
vt 0.149789 0.843087
vt 0.537642 0.757783
vt 0.535733 0.757767
vt 0.540833 0.757781
vt 0.539552 0.685306
vt 0.541462 0.685306
vt 0.262421 0.822534
vt 0.265675 0.779391
vt 0.287480 0.779391
vt 0.290734 0.822534
vt 0.262421 0.764964
vt 0.262421 0.685306
vt 0.264331 0.685306
vt 0.265003 0.743392
vt 0.290734 0.764964
vt 0.288152 0.743392
vt 0.288824 0.685306
vt 0.290734 0.685306
vt 0.460610 0.784749
vt 0.461887 0.685306
vt 0.481137 0.685306
vt 0.482414 0.784749
vt 0.856535 0.768041
vt 0.856535 0.804040
vt 0.837285 0.804040
vt 0.837285 0.768041
vt 0.494072 0.585823
vt 0.494076 0.685302
vt 0.458077 0.685306
vt 0.458067 0.585855
vt 0.085059 0.000004
vt 0.085055 0.099483
vt 0.049050 0.099451
vt 0.049061 -0.000000
vt 0.409017 0.274721
vt 0.347359 0.821170
vt 0.319047 0.821170
vt 0.818033 0.410585
vt 0.541462 0.685306
vt 0.565479 0.685306
vt 0.565479 0.713619
vt 0.541462 0.713619
vt 0.409017 0.464225
vt 0.262421 0.928450
vt 0.234108 0.928450
vt 0.595414 0.685306
vt 0.601332 0.713619
vt 0.595414 0.713619
vt 0.000000 0.221081
vt 0.853747 0.343300
vt 0.846346 0.343300
vt 0.825435 0.308512
vt 0.818034 0.308512
vt 0.825435 0.386702
vt 0.818034 0.386702
vt 0.853747 0.457734
vt 0.846346 0.457734
vt 0.424896 0.750686
vt 0.424896 0.685306
vt 0.204504 0.934620
vt 0.204504 0.685306
vt 0.211905 0.685306
vt 0.533823 0.685306
vt 0.533823 0.757792
vt 0.424896 0.793979
vt 0.411386 0.793979
vt 0.403985 0.793979
vt 0.838945 0.459188
vt 0.825435 0.459188
vt 0.838945 0.460642
vt 0.825435 0.460642
vt 0.602786 0.685306
vt 0.604239 0.685306
vt 0.604239 0.698817
vt 0.602786 0.698817
vt 0.930474 0.775336
vt 0.930474 0.709955
vt 0.943985 0.709955
vt 0.943985 0.775336
vt 0.930475 0.460642
vt 0.943985 0.460642
vt 0.001454 0.934620
vt 0.001454 1.000000
vt 0.000000 1.000000
vt 0.000000 0.934620
vt 0.146425 0.934620
vt 0.147879 0.934620
vt 0.147879 1.000000
vt 0.146425 1.000000
vt 0.147879 0.685306
vt 0.146425 0.685306
vt -0.000000 0.685306
vt 0.001454 0.685306
vt 0.073940 0.934620
vt 0.073940 0.685306
vt 0.073940 0.934620
vt 0.073940 0.685306
s 0
usemtl Checker
f 57/1/1 3/2/1 6/3/1 59/4/1
f 60/5/2 54/6/2 8/7/2 9/8/2
f 78/9/2 58/10/2 4/11/2 69/12/2
f 68/13/3 56/14/3 1/15/3 46/16/3
f 66/17/1 53/18/1 7/19/1 38/20/1
f 47/21/1 48/22/1 17/23/1 18/24/1
f 39/25/3 40/26/3 13/27/3 14/28/3
f 46/29/4 48/30/4 22/31/4 5/32/4
f 8/33/4 14/34/4 20/35/4 9/36/4
f 37/37/4 39/38/4 14/34/4 8/33/4
f 3/39/5 19/40/5 15/41/5 6/42/5
f 6/42/5 15/41/5 13/43/5 7/44/5
f 38/45/5 40/46/5 24/47/5 11/48/5
f 9/36/4 20/35/4 16/49/4 4/50/4
f 69/51/4 71/52/4 17/53/4 1/54/4
f 45/55/5 47/56/5 18/57/5 2/58/5
f 70/59/5 72/60/5 19/40/5 3/39/5
f 29/61/6 30/62/6 26/63/6 28/64/6
f 31/65/7 32/66/7 27/67/7 25/68/7
f 27/69/8 28/70/8 26/71/8 25/72/8
f 30/73/3 31/74/3 25/75/3 26/76/3
f 14/28/3 13/27/3 31/74/3 30/73/3
f 13/43/7 15/41/7 32/66/7 31/65/7
f 20/35/6 14/34/6 30/62/6 29/61/6
f 15/77/3 19/78/3 32/79/3
f 20/80/3 29/81/3 16/82/3
f 18/83/8 17/84/8 33/85/8 34/86/8
f 72/87/9 73/88/9 32/89/9 19/90/9
f 71/91/10 16/92/10 29/93/10 74/94/10
f 34/95/1 33/96/1 35/97/1 36/98/1
f 76/99/8 75/100/8 36/101/8 35/102/8
f 73/103/11 34/104/11 36/105/11 75/106/11
f 76/107/12 35/108/12 33/109/12 74/110/12
f 7/44/5 13/43/5 40/46/5 38/45/5
f 12/111/4 23/112/4 39/38/4 37/37/4
f 39/38/4 23/112/4 41/113/4 43/114/4
f 64/115/1 66/17/1 38/20/1 11/116/1
f 41/117/3 42/118/3 44/119/3 43/120/3
f 24/47/5 40/46/5 44/121/5 42/122/5
f 40/123/13 39/124/13 43/125/13 44/126/13
f 10/127/5 21/128/5 47/56/5 45/55/5
f 1/54/4 17/53/4 48/30/4 46/29/4
f 47/56/5 21/128/5 50/129/5 49/130/5
f 62/131/3 68/13/3 46/16/3 5/132/3
f 50/133/1 51/134/1 52/135/1 49/136/1
f 48/137/8 47/138/8 49/139/8 52/140/8
f 22/31/4 48/30/4 52/141/4 51/142/4
f 10/143/3 45/144/3 67/145/3 61/146/3
f 61/146/3 67/145/3 68/13/3 62/131/3
f 12/147/1 37/148/1 65/149/1 63/150/1
f 63/150/1 65/149/1 66/17/1 64/115/1
f 37/148/1 8/151/1 54/152/1 65/149/1
f 65/149/1 54/152/1 53/18/1 66/17/1
f 45/144/3 2/153/3 55/154/3 67/145/3
f 67/145/3 55/154/3 56/14/3 68/13/3
f 70/155/2 3/156/2 57/157/2 77/158/2
f 6/159/2 7/160/2 53/161/2 59/162/2
f 4/2/1 58/163/1 60/164/1 9/165/1
f 55/166/2 77/158/2 78/9/2 56/167/2
f 2/168/2 70/155/2 77/158/2 55/166/2
f 28/64/14 76/107/14 74/110/14 29/61/14
f 32/66/15 73/103/15 75/106/15 27/67/15
f 28/70/8 27/69/8 75/100/8 76/99/8
f 17/84/16 71/91/16 74/94/16 33/85/16
f 18/83/17 34/86/17 73/88/17 72/87/17
f 2/58/5 18/57/5 72/60/5 70/59/5
f 4/50/4 16/49/4 71/52/4 69/51/4
f 56/167/2 78/9/2 69/12/2 1/169/2
f 53/18/1 54/152/1 81/170/1 80/171/1
f 80/171/1 81/170/1 85/172/1 84/173/1
f 78/174/3 77/175/3 82/176/3 83/177/3
f 83/178/2 82/179/2 86/180/2 87/181/2
f 87/181/2 86/180/2 84/182/2 85/183/2
f 57/184/4 86/185/4 82/186/4 77/187/4
f 58/188/5 78/189/5 83/190/5 87/191/5
f 85/192/5 81/193/5 58/188/5 87/191/5
f 84/194/4 86/185/4 57/184/4 80/195/4
f 59/196/4 53/197/4 80/195/4 57/184/4
f 60/198/5 58/188/5 81/193/5 54/199/5
f 132/200/1 134/201/1 92/202/1 90/203/1
f 135/204/8 95/205/8 94/206/8 129/135/8
f 149/207/8 140/208/8 91/209/8 133/210/8
f 139/211/3 123/212/3 88/213/3 131/214/3
f 137/215/1 117/216/1 93/217/1 128/218/1
f 124/219/1 101/220/1 100/221/1 125/222/1
f 118/223/3 97/224/3 96/225/3 119/226/3
f 123/227/4 5/32/4 22/31/4 125/228/4
f 94/229/4 95/230/4 103/231/4 97/232/4
f 116/233/4 94/229/4 97/232/4 118/234/4
f 90/235/5 92/236/5 98/237/5 102/238/5
f 92/236/5 93/239/5 96/240/5 98/237/5
f 117/241/5 11/48/5 24/47/5 119/242/5
f 95/230/4 91/243/4 99/244/4 103/231/4
f 140/245/4 88/246/4 100/247/4 142/248/4
f 122/249/5 89/250/5 101/251/5 124/252/5
f 141/253/5 90/235/5 102/238/5 143/254/5
f 108/255/18 107/256/18 105/257/18 109/258/18
f 110/259/19 104/260/19 106/261/19 111/262/19
f 106/263/2 104/72/2 105/264/2 107/265/2
f 109/266/3 105/267/3 104/268/3 110/269/3
f 97/224/3 109/266/3 110/269/3 96/225/3
f 96/240/19 110/259/19 111/262/19 98/237/19
f 103/231/18 108/255/18 109/258/18 97/232/18
f 98/81/3 111/270/3 102/271/3
f 103/272/3 99/273/3 108/274/3
f 101/275/2 113/276/2 112/277/2 100/278/2
f 143/279/20 102/280/20 111/281/20 144/282/20
f 142/283/21 145/284/21 108/285/21 99/286/21
f 113/287/1 115/288/1 114/289/1 112/290/1
f 147/291/2 114/292/2 115/293/2 146/294/2
f 144/295/22 146/296/22 115/297/22 113/298/22
f 147/299/23 145/300/23 112/301/23 114/302/23
f 93/239/5 117/241/5 119/242/5 96/240/5
f 12/111/4 116/233/4 118/234/4 23/112/4
f 118/234/4 120/303/4 41/113/4 23/112/4
f 64/115/1 11/116/1 117/216/1 137/215/1
f 41/117/3 120/304/3 121/305/3 42/118/3
f 24/47/5 42/122/5 121/306/5 119/242/5
f 119/307/24 121/308/24 120/309/24 118/310/24
f 10/127/5 122/249/5 124/252/5 21/128/5
f 88/246/4 123/227/4 125/228/4 100/247/4
f 124/252/5 126/311/5 50/129/5 21/128/5
f 62/131/3 5/132/3 123/212/3 139/211/3
f 50/133/1 126/312/1 127/313/1 51/134/1
f 125/314/2 127/175/2 126/315/2 124/316/2
f 22/31/4 51/142/4 127/317/4 125/228/4
f 10/143/3 61/146/3 138/318/3 122/319/3
f 61/146/3 62/131/3 139/211/3 138/318/3
f 12/147/1 63/150/1 136/320/1 116/321/1
f 63/150/1 64/115/1 137/215/1 136/320/1
f 116/321/1 136/320/1 129/322/1 94/323/1
f 136/320/1 137/215/1 128/218/1 129/322/1
f 122/319/3 138/318/3 130/324/3 89/325/3
f 138/318/3 139/211/3 131/214/3 130/324/3
f 141/155/8 148/326/8 132/327/8 90/156/8
f 92/5/8 134/328/8 128/329/8 93/330/8
f 91/331/1 95/332/1 135/164/1 133/163/1
f 130/333/8 131/334/8 149/207/8 148/326/8
f 89/168/8 130/333/8 148/326/8 141/155/8
f 107/256/25 108/255/25 145/300/25 147/299/25
f 111/262/26 106/261/26 146/296/26 144/295/26
f 107/265/2 147/291/2 146/294/2 106/263/2
f 100/278/27 112/277/27 145/284/27 142/283/27
f 101/275/28 143/279/28 144/282/28 113/276/28
f 89/250/5 141/253/5 143/254/5 101/251/5
f 91/243/4 140/245/4 142/248/4 99/244/4
f 131/334/8 88/335/8 140/208/8 149/207/8
f 128/218/1 151/336/1 152/337/1 129/322/1
f 151/336/1 155/338/1 156/339/1 152/337/1
f 149/340/3 154/341/3 153/342/3 148/343/3
f 154/344/8 158/345/8 157/346/8 153/347/8
f 158/345/8 156/348/8 155/349/8 157/346/8
f 132/350/4 148/351/4 153/352/4 157/353/4
f 133/354/5 158/355/5 154/356/5 149/357/5
f 156/358/5 158/355/5 133/354/5 152/359/5
f 155/360/4 151/361/4 132/350/4 157/353/4
f 134/362/4 132/350/4 151/361/4 128/363/4
f 135/364/5 129/365/5 152/359/5 133/354/5
