# Blender 5.2.1 LTS
# www.blender.org
mtllib DoorSlidingExit.mtl
o DoorSlidingExit
v -0.123398 2.278639 -0.600075
v -0.123398 2.278639 0.639126
v -0.123398 2.327184 -0.600075
v -0.123398 2.327184 0.639126
v -0.123398 1.380446 -0.148240
v -0.123398 1.143046 -0.148240
v -0.123398 2.185762 0.639126
v -0.123398 2.185762 -0.600075
v -0.123398 2.327184 0.541942
v -0.123398 2.278639 0.541942
v -0.123398 1.380446 0.089027
v -0.123398 2.185762 0.541942
v 0.000000 2.290571 0.541942
v 0.000000 2.290571 0.482098
v -0.041325 2.273453 0.541942
v -0.041325 2.273453 0.482098
v -0.058443 2.232128 0.541942
v -0.058443 2.232128 0.482098
v -0.041325 2.190803 0.541942
v -0.041325 2.190803 0.482098
v 0.000000 2.173686 0.541942
v 0.000000 2.173686 0.482098
v 0.000000 2.274141 0.482492
v -0.029707 2.261836 0.482492
v -0.042012 2.232128 0.482492
v -0.029707 2.202421 0.482492
v 0.000000 2.190116 0.482492
v -0.029707 2.261836 -0.600075
v 0.000000 2.274141 -0.600075
v -0.042012 2.232128 -0.600075
v -0.029707 2.202421 -0.600075
v 0.000000 2.190116 -0.600075
v -0.099879 2.327184 0.639126
v -0.123398 0.241427 -0.153902
v -0.099879 2.278639 0.639126
v -0.123398 0.241427 0.095768
v -0.099879 2.278638 0.541942
v -0.099879 2.185762 0.639126
v -0.099879 2.327184 0.541942
v -0.099879 2.185762 0.541942
v -0.099879 2.327184 -0.600075
v -0.099879 2.278638 -0.600075
v -0.123398 2.185762 -0.153902
v -0.123398 2.185762 0.095768
v -0.099879 2.278639 0.555613
v -0.099879 2.327184 0.555613
v -0.099879 2.185762 0.555613
v -0.123398 0.148551 -0.600075
v -0.123398 0.148551 0.639126
v -0.123398 0.100005 -0.600075
v -0.123398 0.100005 0.639126
v -0.123398 0.241427 0.639126
v -0.123398 0.241427 -0.600075
v -0.123398 0.100005 0.541942
v -0.123398 0.148551 0.541942
v -0.123398 0.241427 0.541942
v 0.000000 0.136618 0.541942
v 0.000000 0.136618 0.482098
v -0.041325 0.153736 0.541942
v -0.041325 0.153736 0.482098
v -0.058443 0.195061 0.541942
v -0.058443 0.195061 0.482098
v -0.041325 0.236386 0.541942
v -0.041325 0.236386 0.482098
v 0.000000 0.253504 0.541942
v 0.000000 0.253504 0.482098
v 0.000000 0.153049 0.482492
v -0.029707 0.165354 0.482492
v -0.042012 0.195061 0.482492
v -0.029707 0.224768 0.482492
v 0.000000 0.237073 0.482492
v -0.029707 0.165354 -0.600075
v 0.000000 0.153049 -0.600075
v -0.042012 0.195061 -0.600075
v -0.029707 0.224768 -0.600075
v 0.000000 0.237073 -0.600075
v -0.099879 0.100005 0.639126
v -0.099879 0.148551 0.639126
v -0.099879 0.148551 0.541942
v -0.099879 0.241427 0.639126
v -0.099879 0.100005 0.541942
v -0.099879 0.241427 0.541942
v -0.099879 0.100005 -0.600075
v -0.099879 0.148551 -0.600075
v -0.099879 0.148551 0.555613
v -0.099879 0.100005 0.555613
v -0.099879 0.241427 0.555613
v -0.123398 1.038808 0.639126
v -0.123398 1.388381 0.639126
v -0.123398 1.038808 -0.600075
v -0.123398 1.388381 -0.600075
v -0.123398 1.038808 0.541942
v -0.123398 1.388381 0.541942
v -0.099879 1.038808 0.639126
v -0.099879 1.388381 0.639126
v -0.099879 1.038808 0.555613
v -0.099879 1.388381 0.555613
v 0.000000 2.278638 0.541942
v 0.000000 2.185762 0.541942
v 0.000000 2.327184 -0.600075
v -0.123398 2.327184 0.555613
v 0.000000 2.278638 -0.600075
v 0.000000 2.327184 0.541942
v 0.000000 2.278639 0.555613
v 0.000000 2.327184 0.555613
v 0.000000 2.185762 0.555613
v 0.000000 0.148551 0.541942
v 0.000000 0.241427 0.541942
v 0.000000 0.100005 -0.600075
v 0.000000 0.148551 -0.600075
v 0.000000 0.100005 0.541942
v 0.000000 0.148551 0.555613
v 0.000000 0.100005 0.555613
v 0.000000 0.241427 0.555613
v 0.000000 1.388381 0.555613
v 0.000000 1.038808 0.555613
v -0.102683 1.380446 0.089027
v -0.102683 1.143046 -0.148240
v -0.100484 1.380446 -0.148240
v -0.123398 1.276851 0.089027
v -0.123398 1.143046 -0.044584
v -0.123398 0.859653 0.095768
v -0.123398 1.038808 0.274924
v -0.102683 1.143046 -0.044584
v -0.102683 1.276851 0.089027
v -0.052388 1.143046 -0.148240
v -0.052388 1.380446 0.089027
v -0.052388 1.276851 0.089027
v -0.052388 1.143046 -0.044584
v -0.123398 1.261746 -0.148240
v -0.123398 1.213595 -0.600075
v -0.100484 1.261746 -0.148240
v -0.052388 1.261746 -0.148240
v -0.123398 2.185762 -0.029067
v -0.123398 1.380446 -0.029606
v -0.100484 1.380446 -0.029606
v -0.052388 1.380446 -0.029606
v -0.100484 1.268807 -0.076295
v -0.100484 1.308373 -0.036750
v -0.052388 1.268807 -0.076295
v -0.052388 1.308373 -0.036750
v 0.000000 2.232128 0.482098
v -0.099879 2.185762 -0.600075
v -0.099879 2.185762 -0.153902
v -0.099879 2.185762 0.095768
v -0.099879 2.185762 -0.029067
v 0.000000 2.185762 -0.600075
v 0.000000 2.185762 -0.153902
v 0.000000 2.185762 0.095768
v 0.000000 2.185762 -0.029067
v 0.000000 0.195061 0.482098
v -0.053844 1.369722 -0.150506
v -0.053844 1.382574 -0.137654
v -0.053844 1.356870 -0.137654
v -0.053844 1.369722 -0.124802
v -0.072019 1.369722 -0.150506
v -0.072019 1.382574 -0.137654
v -0.072019 1.356870 -0.137654
v -0.072019 1.369722 -0.124802
v -0.053844 1.295016 -0.050096
v -0.053844 1.282164 -0.062948
v -0.072019 1.282164 -0.062948
v -0.072019 1.295016 -0.050096
v -0.053844 1.217380 0.027540
v -0.053844 1.204528 0.014688
v -0.072019 1.204528 0.014688
v -0.072019 1.217380 0.027540
v -0.072019 1.282171 -0.037251
v -0.072019 1.230225 0.014695
v -0.053844 1.230225 0.014695
v -0.053844 1.282171 -0.037251
v -0.053844 1.217373 0.001843
v -0.053844 1.269319 -0.050103
v -0.072019 1.269319 -0.050103
v -0.072019 1.217373 0.001843
v -0.095560 1.295016 -0.050096
v -0.095560 1.282164 -0.062948
v -0.095560 1.217380 0.027540
v -0.095560 1.204528 0.014688
v -0.095560 1.230225 0.014695
v -0.095560 1.217373 0.001843
v -0.095560 1.282171 -0.037251
v -0.095560 1.269319 -0.050103
v -0.113678 1.295016 -0.050096
v -0.113678 1.282164 -0.062948
v -0.113678 1.217380 0.027540
v -0.113678 1.204528 0.014688
v -0.113678 1.230225 0.014695
v -0.113678 1.217373 0.001843
v -0.113678 1.282171 -0.037251
v -0.113678 1.269319 -0.050103
v 0.123398 2.278639 -0.600075
v 0.123398 2.278639 0.639126
v 0.123398 2.327184 -0.600075
v 0.123398 2.327184 0.639126
v 0.123398 1.380446 -0.148240
v 0.123398 1.143046 -0.148240
v 0.123398 2.185762 0.639126
v 0.123398 2.185762 -0.600075
v 0.123398 2.327184 0.541942
v 0.123398 2.278639 0.541942
v 0.123398 1.380446 0.089027
v 0.123398 2.185762 0.541942
v 0.041325 2.273453 0.541942
v 0.041325 2.273453 0.482098
v 0.058443 2.232128 0.541942
v 0.058443 2.232128 0.482098
v 0.041325 2.190803 0.541942
v 0.041325 2.190803 0.482098
v 0.029707 2.261836 0.482492
v 0.042012 2.232128 0.482492
v 0.029707 2.202421 0.482492
v 0.029707 2.261836 -0.600075
v 0.042012 2.232128 -0.600075
v 0.029707 2.202421 -0.600075
v 0.099879 2.327184 0.639126
v 0.123398 0.241427 -0.153902
v 0.099879 2.278639 0.639126
v 0.123398 0.241427 0.095768
v 0.099879 2.278638 0.541942
v 0.099879 2.185762 0.639126
v 0.099879 2.327184 0.541942
v 0.099879 2.185762 0.541942
v 0.099879 2.327184 -0.600075
v 0.099879 2.278638 -0.600075
v 0.123398 2.185762 -0.153902
v 0.123398 2.185762 0.095768
v 0.099879 2.278639 0.555613
v 0.099879 2.327184 0.555613
v 0.099879 2.185762 0.555613
v 0.123398 0.148551 -0.600075
v 0.123398 0.148551 0.639126
v 0.123398 0.100005 -0.600075
v 0.123398 0.100005 0.639126
v 0.123398 0.241427 0.639126
v 0.123398 0.241427 -0.600075
v 0.123398 0.100005 0.541942
v 0.123398 0.148551 0.541942
v 0.123398 0.241427 0.541942
v 0.041325 0.153736 0.541942
v 0.041325 0.153736 0.482098
v 0.058443 0.195061 0.541942
v 0.058443 0.195061 0.482098
v 0.041325 0.236386 0.541942
v 0.041325 0.236386 0.482098
v 0.029707 0.165354 0.482492
v 0.042012 0.195061 0.482492
v 0.029707 0.224768 0.482492
v 0.029707 0.165354 -0.600075
v 0.042012 0.195061 -0.600075
v 0.029707 0.224768 -0.600075
v 0.099879 0.100005 0.639126
v 0.099879 0.148551 0.639126
v 0.099879 0.148551 0.541942
v 0.099879 0.241427 0.639126
v 0.099879 0.100005 0.541942
v 0.099879 0.100005 -0.600075
v 0.099879 0.148551 -0.600075
v 0.099879 0.148551 0.555613
v 0.099879 0.100005 0.555613
v 0.099879 0.241427 0.555613
v 0.123398 1.038808 0.639126
v 0.123398 1.388381 0.639126
v 0.123398 1.038808 -0.600075
v 0.123398 1.388381 -0.600075
v 0.123398 1.038808 0.541942
v 0.123398 1.388381 0.541942
v 0.099879 1.038808 0.639126
v 0.099879 1.388381 0.639126
v 0.099879 1.038808 0.555613
v 0.099879 1.388381 0.555613
v 0.102683 1.380446 0.089027
v 0.102683 1.143046 -0.148240
v 0.100484 1.380446 -0.148240
v 0.123398 1.276851 0.089027
v 0.123398 1.143046 -0.044584
v 0.123398 0.859653 0.095768
v 0.123398 1.038808 0.274924
v 0.102683 1.143046 -0.044584
v 0.102683 1.276851 0.089027
v 0.052388 1.143046 -0.148240
v 0.052388 1.380446 0.089027
v 0.052388 1.276851 0.089027
v 0.052388 1.143046 -0.044584
v 0.123398 1.261746 -0.148240
v 0.123398 1.213595 -0.600075
v 0.100484 1.261746 -0.148240
v 0.052388 1.261746 -0.148240
v 0.123398 2.185762 -0.029067
v 0.123398 1.380446 -0.029606
v 0.100484 1.380446 -0.029606
v 0.052388 1.380446 -0.029606
v 0.100484 1.268807 -0.076295
v 0.100484 1.308373 -0.036750
v 0.052388 1.268807 -0.076295
v 0.052388 1.308373 -0.036750
v 0.099879 2.185762 -0.600075
v 0.099879 2.185762 -0.153902
v 0.099879 2.185762 0.095768
v 0.099879 2.185762 -0.029067
v 0.053844 1.369722 -0.150506
v 0.053844 1.382574 -0.137654
v 0.053844 1.356870 -0.137654
v 0.053844 1.369722 -0.124802
v 0.072019 1.369722 -0.150506
v 0.072019 1.382574 -0.137654
v 0.072019 1.356870 -0.137654
v 0.072019 1.369722 -0.124802
v 0.053844 1.295016 -0.050096
v 0.053844 1.282164 -0.062948
v 0.072019 1.282164 -0.062948
v 0.072019 1.295016 -0.050096
v 0.053844 1.217380 0.027540
v 0.053844 1.204528 0.014688
v 0.072019 1.204528 0.014688
v 0.072019 1.217380 0.027540
v 0.072019 1.282171 -0.037251
v 0.072019 1.230225 0.014695
v 0.053844 1.230225 0.014695
v 0.053844 1.282171 -0.037251
v 0.053844 1.217373 0.001843
v 0.053844 1.269319 -0.050103
v 0.072019 1.269319 -0.050103
v 0.072019 1.217373 0.001843
v 0.095560 1.295016 -0.050096
v 0.095560 1.282164 -0.062948
v 0.095560 1.217380 0.027540
v 0.095560 1.204528 0.014688
v 0.095560 1.230225 0.014695
v 0.095560 1.217373 0.001843
v 0.095560 1.282171 -0.037251
v 0.095560 1.269319 -0.050103
v 0.113678 1.295016 -0.050096
v 0.113678 1.282164 -0.062948
v 0.113678 1.217380 0.027540
v 0.113678 1.204528 0.014688
v 0.113678 1.230225 0.014695
v 0.113678 1.217373 0.001843
v 0.113678 1.282171 -0.037251
v 0.113678 1.269319 -0.050103
v -0.099879 0.241427 -0.600075
v -0.099879 0.241427 -0.153902
v -0.099879 0.241427 0.095768
v 0.099879 0.241427 -0.600075
v 0.099879 0.241427 -0.153902
v 0.099879 0.241427 0.095768
v 0.099879 0.241427 0.541942
v -0.000000 0.241427 -0.600075
v -0.000000 0.241427 -0.153902
v -0.000000 0.241427 0.095768
v -0.123398 2.278639 0.555613
v -0.123398 2.185762 0.555613
v -0.123398 0.100005 0.555613
v -0.123398 0.148551 0.555613
v -0.123398 0.241427 0.555613
v -0.123398 1.388381 0.555613
v -0.123398 1.038808 0.555613
v 0.123398 2.327184 0.555613
v 0.123398 2.278639 0.555613
v 0.123398 2.185762 0.555613
v 0.123398 0.100005 0.555613
v 0.123398 0.148551 0.555613
v 0.123398 0.241427 0.555613
v 0.123398 1.388381 0.555613
v 0.123398 1.038808 0.555613
vn -0.0000 -0.0000 1.0000
vn -1.0000 -0.0000 -0.0000
vn -0.0000 -0.0000 -1.0000
vn -0.0000 -1.0000 -0.0000
vn -0.3827 0.9239 -0.0000
vn -0.9239 0.3827 -0.0000
vn -0.9239 -0.3827 -0.0000
vn -0.3827 -0.9239 -0.0000
vn -0.0000 1.0000 -0.0000
vn 1.0000 -0.0000 -0.0000
vn -0.0000 0.7066 -0.7076
vn -0.0000 -0.9952 0.0977
vn -0.0000 -0.0986 0.9951
vn -0.0000 -0.7069 0.7073
vn -0.0000 -0.7071 -0.7071
vn -0.0000 0.7071 0.7071
vn -0.0000 0.7071 -0.7071
vn -0.0000 -0.7071 0.7071
vn 0.3827 0.9239 -0.0000
vn 0.9239 0.3827 -0.0000
vn 0.9239 -0.3827 -0.0000
vn 0.3827 -0.9239 -0.0000
vt 0.742587 0.646633
vt 0.742587 0.661041
vt 0.735607 0.661041
vt 0.735607 0.646633
vt 0.706762 0.646633
vt 0.706762 0.661041
vt 0.367803 0.661041
vt 0.367803 0.646633
vt 0.710819 0.278643
vt 0.710819 0.041975
vt 0.735606 0.041975
vt 0.735606 0.278643
vt 0.742587 0.619066
vt 0.735607 0.619066
vt 0.667433 0.668022
vt 0.639867 0.668022
vt 0.639867 0.661042
vt 0.667433 0.661042
vt 0.293003 0.661042
vt 0.293003 1.000000
vt 0.286022 1.000000
vt 0.286022 0.661042
vt 0.735607 0.278643
vt 0.735607 0.041975
vt 0.742587 0.041975
vt 0.742587 0.278643
vt 0.710819 0.619067
vt 0.710819 0.646633
vt 0.706762 0.619067
vt 0.710819 0.661041
vt 0.528773 0.767251
vt 0.511011 0.767251
vt 0.511011 0.753975
vt 0.528773 0.753975
vt 0.511011 0.740699
vt 0.528773 0.740699
vt 0.511011 0.727422
vt 0.528773 0.727422
vt 0.511011 0.714146
vt 0.528773 0.714146
vt 0.426616 0.661042
vt 0.436160 0.661042
vt 0.436160 0.982355
vt 0.426616 0.982355
vt 0.417073 0.661042
vt 0.417073 0.982355
vt 0.445704 0.661042
vt 0.445704 0.982355
vt 0.407529 0.661042
vt 0.407529 0.982355
vt 0.139521 0.793469
vt 0.139521 0.661042
vt 0.146502 0.661042
vt 0.146502 0.793469
vt 0.858432 0.396648
vt 0.865412 0.396648
vt 0.865412 0.735606
vt 0.858432 0.735606
vt 0.858432 0.392590
vt 0.865412 0.392590
vt 0.767374 0.646633
vt 0.767374 0.661041
vt 0.667433 0.697667
vt 0.639867 0.697667
vt 0.742587 0.382399
vt 0.767374 0.382399
vt 0.767374 0.619066
vt 0.797019 0.619066
vt 0.797019 0.646633
vt 0.797019 0.661041
vt 0.338958 0.278643
vt 0.343016 0.278643
vt 0.343016 0.382399
vt 0.338958 0.382399
vt 0.367803 0.278643
vt 0.367803 0.041975
vt 0.500231 0.041975
vt 0.501911 0.309582
vt 0.742587 0.014409
vt 0.735607 0.014409
vt 0.735607 -0.000000
vt 0.742587 -0.000000
vt 0.706762 0.014409
vt 0.367803 0.014409
vt 0.367803 0.000000
vt 0.706762 0.000000
vt 0.367803 0.330521
vt 0.501911 0.344812
vt 0.695000 0.727312
vt 0.695000 0.734292
vt 0.667433 0.734292
vt 0.667433 0.727312
vt 0.146502 0.661042
vt 0.153482 0.661042
vt 0.153482 1.000000
vt 0.146502 1.000000
vt 0.767374 0.041975
vt 0.767374 0.278643
vt 0.367803 0.619067
vt 0.367803 0.382399
vt 0.501911 0.380043
vt 0.500230 0.619067
vt 0.706762 0.041975
vt 0.710819 0.014409
vt 0.710819 0.000000
vt 0.546535 0.714146
vt 0.546535 0.727422
vt 0.528773 0.727422
vt 0.528773 0.714146
vt 0.546535 0.740699
vt 0.528773 0.740699
vt 0.546535 0.753975
vt 0.528773 0.753975
vt 0.546535 0.767251
vt 0.528773 0.767251
vt 0.350266 0.661042
vt 0.350266 0.982355
vt 0.340722 0.982355
vt 0.340722 0.661042
vt 0.359810 0.661042
vt 0.359810 0.982355
vt 0.331178 0.982355
vt 0.331178 0.661042
vt 0.369353 0.661042
vt 0.369353 0.982355
vt 0.537282 0.619067
vt 0.537122 0.380043
vt 0.572334 0.380043
vt 0.574334 0.619067
vt 0.139521 0.867573
vt 0.146502 0.867573
vt 0.931682 0.028845
vt 0.931682 0.367803
vt 0.924702 0.367803
vt 0.924702 0.028845
vt 0.931682 0.024787
vt 0.924702 0.024787
vt 0.767374 -0.000000
vt 0.767374 0.014409
vt 0.695000 0.697667
vt 0.667433 0.697667
vt 0.797019 0.041975
vt 0.797019 0.014409
vt 0.797019 -0.000000
vt 0.706762 0.382399
vt 0.735607 0.382399
vt 0.710819 0.382399
vt 0.735606 0.382399
vt 0.735606 0.619067
vt 0.797019 0.278643
vt 0.797019 0.382399
vt 0.183127 0.661042
vt 0.183127 1.000000
vt 0.109876 0.793469
vt 0.109876 0.661042
vt 0.895057 0.367803
vt 0.895057 0.028845
vt 0.895057 0.024787
vt 0.256378 1.000000
vt 0.256378 0.661042
vt 0.109876 0.867573
vt 0.895057 0.396648
vt 0.895057 0.735606
vt 0.858432 0.000000
vt 0.865412 0.000000
vt 0.865412 0.024787
vt 0.858432 0.024787
vt 0.695000 0.696272
vt 0.695000 0.661042
vt 0.701148 0.661042
vt 0.701801 0.696272
vt 0.737152 0.696253
vt 0.737152 0.661042
vt 0.743953 0.661042
vt 0.743953 0.696253
vt 0.572334 0.349296
vt 0.532677 0.309582
vt 0.574334 0.225468
vt 0.627509 0.278643
vt 0.511011 0.747931
vt 0.504862 0.747931
vt 0.504862 0.691808
vt 0.511011 0.691808
vt 0.511011 0.778679
vt 0.504862 0.778679
vt 0.574334 0.041975
vt 0.706762 0.278643
vt 0.511011 0.661042
vt 0.504862 0.661042
vt 0.639867 0.682790
vt 0.606823 0.702538
vt 0.593201 0.685960
vt 0.618106 0.661042
vt 0.489935 0.747931
vt 0.489935 0.691808
vt 0.489935 0.661042
vt 0.489935 0.778679
vt 0.716076 0.661042
vt 0.716076 0.696272
vt 0.751428 0.769564
vt 0.751428 0.791021
vt 0.737152 0.791021
vt 0.737152 0.769564
vt 0.695000 0.731503
vt 0.701801 0.731503
vt 0.743301 0.731464
vt 0.758229 0.696253
vt 0.758229 0.731464
vt 0.737152 0.731464
vt 0.751428 0.731464
vt 0.751428 0.752961
vt 0.737152 0.752961
vt 0.737152 0.731464
vt 0.639842 0.738914
vt 0.618106 0.760662
vt 0.593201 0.735771
vt 0.606823 0.719141
vt 0.602588 0.792713
vt 0.593201 0.783326
vt 0.609226 0.776688
vt 0.615865 0.792713
vt 0.625252 0.783326
vt 0.625252 0.770050
vt -0.000000 0.793469
vt -0.000000 0.661042
vt 0.006981 0.661042
vt 0.006981 0.793469
vt -0.000000 1.000000
vt -0.000000 0.867573
vt 0.006981 0.867573
vt 0.006981 1.000000
vt -0.000000 0.830521
vt 0.006981 0.830521
vt 0.036625 0.867573
vt 0.036625 1.000000
vt 0.036625 0.661042
vt 0.036625 0.793469
vt 0.036625 0.830521
vt 0.533675 0.767251
vt 0.543062 0.776639
vt 0.543062 0.789915
vt 0.527037 0.783277
vt 0.533675 0.799302
vt 0.520398 0.799302
vt 0.546535 0.795893
vt 0.546535 0.760662
vt 0.567889 0.762758
vt 0.579626 0.774501
vt 0.581746 0.795893
vt 0.456494 0.829845
vt 0.451099 0.829845
vt 0.451099 0.824450
vt 0.456494 0.824450
vt 0.451099 0.793092
vt 0.456494 0.793092
vt 0.456493 0.666436
vt 0.451099 0.666436
vt 0.451099 0.661042
vt 0.456493 0.661042
vt 0.797064 0.735776
vt 0.791669 0.735776
vt 0.791669 0.730381
vt 0.797064 0.730381
vt 0.445704 0.666436
vt 0.445704 0.661042
vt 0.445704 0.724990
vt 0.451099 0.724990
vt 0.451099 0.730381
vt 0.445704 0.730381
vt 0.456494 0.835239
vt 0.451099 0.835239
vt 0.797064 0.767134
vt 0.791669 0.767134
vt 0.451099 0.697794
vt 0.445704 0.697794
vt 0.456493 0.697794
vt 0.456493 0.760505
vt 0.451099 0.760505
vt 0.451099 0.755110
vt 0.456493 0.755110
vt 0.456493 0.765897
vt 0.451099 0.765897
vt 0.791669 0.794330
vt 0.797064 0.794330
vt 0.797064 0.799721
vt 0.791669 0.799721
vt 0.797064 0.772525
vt 0.791669 0.772525
vt 0.784682 0.772525
vt 0.784682 0.767134
vt 0.714670 0.789086
vt 0.709275 0.789086
vt 0.709275 0.767282
vt 0.714670 0.767282
vt 0.451099 0.748123
vt 0.456493 0.748123
vt 0.451099 0.787701
vt 0.456494 0.787701
vt 0.451099 0.703185
vt 0.445704 0.703185
vt 0.784682 0.794330
vt 0.784682 0.799721
vt 0.779305 0.799721
vt 0.779305 0.794330
vt 0.709275 0.760295
vt 0.714670 0.760295
vt 0.458086 0.697794
vt 0.458086 0.703185
vt 0.451099 0.742746
vt 0.456493 0.742746
vt 0.458086 0.724990
vt 0.458086 0.730381
vt 0.709275 0.731503
vt 0.714670 0.731503
vt 0.714670 0.738490
vt 0.709275 0.738490
vt 0.456493 0.704781
vt 0.451099 0.704781
vt 0.451099 0.737354
vt 0.456493 0.737354
vt 0.451099 0.710158
vt 0.456493 0.710158
vt 0.456493 0.715550
vt 0.451099 0.715550
vt 0.463463 0.697794
vt 0.463463 0.703185
vt 0.463463 0.724990
vt 0.463463 0.730381
vt 0.779305 0.772525
vt 0.779305 0.767134
vt 0.851451 0.646633
vt 0.858432 0.646633
vt 0.858432 0.661041
vt 0.851451 0.661041
vt 0.338958 0.014409
vt 0.000000 0.014409
vt 0.000000 -0.000000
vt 0.338958 0.000000
vt 0.367803 0.382399
vt 0.367803 0.619066
vt 0.343016 0.619066
vt 0.851451 0.619066
vt 0.858432 0.619066
vt 0.667433 0.727312
vt 0.667433 0.734292
vt 0.639867 0.734292
vt 0.639867 0.727312
vt 0.219752 0.661042
vt 0.226733 0.661042
vt 0.226733 1.000000
vt 0.219752 1.000000
vt 0.858432 0.278643
vt 0.851451 0.278643
vt 0.851451 0.041975
vt 0.858432 0.041975
vt 0.343016 0.041975
vt 0.338958 0.041975
vt 0.343016 0.014409
vt 0.343016 0.000000
vt 0.528773 0.661042
vt 0.528773 0.674318
vt 0.511011 0.674318
vt 0.511011 0.661042
vt 0.528773 0.687594
vt 0.511011 0.687594
vt 0.528773 0.700870
vt 0.511011 0.700870
vt 0.388441 0.661042
vt 0.388441 0.982355
vt 0.378897 0.982355
vt 0.378897 0.661042
vt 0.397985 0.661042
vt 0.397985 0.982355
vt 0.369353 0.982355
vt 0.369353 0.661042
vt 0.931682 0.396648
vt 0.931682 0.735606
vt 0.924702 0.735606
vt 0.924702 0.396648
vt 0.931682 0.392590
vt 0.924702 0.392590
vt 0.826664 0.661041
vt 0.826664 0.646633
vt 0.851451 0.382399
vt 0.826664 0.619066
vt 0.826664 0.382399
vt 0.000000 0.382399
vt 0.134108 0.351460
vt 0.132427 0.619066
vt 0.000000 0.619066
vt 0.851451 0.014409
vt 0.851451 -0.000000
vt 0.858432 -0.000000
vt 0.858432 0.014409
vt 0.338958 0.646633
vt 0.338958 0.661041
vt 0.000000 0.661042
vt 0.000000 0.646633
vt 0.000000 0.330521
vt 0.134108 0.316229
vt 0.695000 0.668022
vt 0.667433 0.668022
vt 0.695000 0.661042
vt 0.219752 0.661042
vt 0.219752 1.000000
vt 0.212772 1.000000
vt 0.212772 0.661042
vt 0.826664 0.278643
vt 0.826664 0.041975
vt 0.000000 0.041975
vt 0.132427 0.041975
vt 0.134108 0.280998
vt 0.000000 0.278643
vt 0.343016 0.646633
vt 0.338958 0.619066
vt 0.343016 0.661041
vt 0.528773 0.700870
vt 0.546535 0.700870
vt 0.528773 0.687594
vt 0.546535 0.687594
vt 0.528773 0.674318
vt 0.546535 0.674318
vt 0.528773 0.661042
vt 0.546535 0.661042
vt 0.312091 0.661042
vt 0.321634 0.661042
vt 0.321634 0.982355
vt 0.312091 0.982355
vt 0.302547 0.661042
vt 0.302547 0.982355
vt 0.293003 0.661042
vt 0.293003 0.982355
vt 0.169479 0.041975
vt 0.206531 0.041975
vt 0.204530 0.280998
vt 0.169319 0.280998
vt 0.858432 0.028845
vt 0.865412 0.028845
vt 0.865412 0.367803
vt 0.858432 0.367803
vt 0.826664 0.014409
vt 0.826664 -0.000000
vt 0.858432 0.382399
vt 0.367803 0.041975
vt 0.367803 0.278643
vt 0.073251 0.793469
vt 0.080231 0.793469
vt 0.080231 0.867573
vt 0.073251 0.867573
vt 0.073251 0.661042
vt 0.080231 0.661042
vt 0.895057 0.392590
vt 0.737152 0.696272
vt 0.730351 0.696272
vt 0.731004 0.661042
vt 0.737152 0.661042
vt 0.779305 0.696253
vt 0.772504 0.696253
vt 0.772504 0.661042
vt 0.779305 0.661042
vt 0.204530 0.311746
vt 0.259706 0.382399
vt 0.206531 0.435573
vt 0.164874 0.351460
vt 0.468858 0.747931
vt 0.468858 0.691808
vt 0.475007 0.691808
vt 0.475007 0.747931
vt 0.475007 0.778679
vt 0.468858 0.778679
vt 0.206531 0.619066
vt 0.468858 0.661042
vt 0.475007 0.661042
vt 0.546535 0.682790
vt 0.568296 0.661042
vt 0.593201 0.685960
vt 0.579578 0.702538
vt 0.489935 0.691808
vt 0.489934 0.661042
vt 0.489934 0.778679
vt 0.709275 0.752960
vt 0.695000 0.752960
vt 0.695000 0.731503
vt 0.709275 0.731503
vt 0.737152 0.731503
vt 0.730351 0.731503
vt 0.773157 0.731464
vt 0.758229 0.731464
vt 0.758229 0.696253
vt 0.779305 0.731464
vt 0.709275 0.791060
vt 0.695000 0.791060
vt 0.695000 0.769563
vt 0.709275 0.769563
vt 0.546560 0.738914
vt 0.579578 0.719142
vt 0.593201 0.735771
vt 0.568296 0.760662
vt 0.593201 0.770050
vt 0.602588 0.760662
vt 0.615865 0.760662
vt 0.073251 0.793469
vt 0.066270 0.793469
vt 0.066270 0.661042
vt 0.073251 0.661042
vt 0.073251 1.000000
vt 0.066270 1.000000
vt 0.066270 0.867573
vt 0.073251 0.867573
vt 0.066270 0.830521
vt 0.073251 0.830521
vt 0.511011 0.776639
vt 0.520398 0.767251
vt 0.511011 0.789915
vt 0.675078 0.769523
vt 0.639867 0.769523
vt 0.641987 0.748132
vt 0.653724 0.736388
vt 0.675078 0.734292
vt 0.468858 0.666436
vt 0.468858 0.671831
vt 0.463463 0.671831
vt 0.463463 0.666436
vt 0.468858 0.703189
vt 0.463463 0.703188
vt 0.468858 0.829845
vt 0.468858 0.835239
vt 0.463463 0.835239
vt 0.463463 0.829845
vt 0.758229 0.736859
vt 0.758229 0.731464
vt 0.763623 0.731464
vt 0.763623 0.736859
vt 0.784700 0.724987
vt 0.784700 0.730381
vt 0.779305 0.730381
vt 0.779305 0.724987
vt 0.779305 0.666433
vt 0.779305 0.661042
vt 0.784700 0.661042
vt 0.784700 0.666433
vt 0.468858 0.661042
vt 0.463464 0.661042
vt 0.763623 0.768216
vt 0.758229 0.768216
vt 0.779305 0.693629
vt 0.784700 0.693629
vt 0.463463 0.798487
vt 0.468858 0.798487
vt 0.468858 0.735776
vt 0.468858 0.741171
vt 0.463463 0.741171
vt 0.463463 0.735776
vt 0.468858 0.730384
vt 0.463463 0.730384
vt 0.763623 0.795412
vt 0.763623 0.800804
vt 0.758229 0.800804
vt 0.758229 0.795412
vt 0.763623 0.773608
vt 0.758229 0.773608
vt 0.770610 0.768216
vt 0.770610 0.773608
vt 0.756822 0.731464
vt 0.756822 0.753269
vt 0.751428 0.753269
vt 0.468858 0.748158
vt 0.463463 0.748158
vt 0.468858 0.708580
vt 0.463463 0.708580
vt 0.779305 0.688237
vt 0.784700 0.688237
vt 0.770610 0.795412
vt 0.775988 0.795412
vt 0.775988 0.800804
vt 0.770610 0.800804
vt 0.756822 0.760256
vt 0.751428 0.760256
vt 0.791687 0.688238
vt 0.791687 0.693629
vt 0.468858 0.753535
vt 0.463463 0.753535
vt 0.791687 0.661042
vt 0.791687 0.666433
vt 0.751428 0.789047
vt 0.751428 0.782060
vt 0.756822 0.782060
vt 0.756822 0.789047
vt 0.463463 0.791500
vt 0.468858 0.791500
vt 0.463463 0.758927
vt 0.468858 0.758927
vt 0.463463 0.786123
vt 0.463463 0.780731
vt 0.468858 0.780731
vt 0.468858 0.786123
vt 0.797064 0.688237
vt 0.797064 0.693629
vt 0.797064 0.661042
vt 0.797064 0.666433
vt 0.775988 0.773608
vt 0.775988 0.768216
vt 0.139521 1.000000
vt 0.146502 1.000000
vt 0.109876 1.000000
vt 0.080231 1.000000
vt 0.073251 1.000000
vt 0.367803 0.646633
vt 0.931682 0.367803
vt 0.924702 0.367803
vt 0.367803 0.014409
vt 0.367803 0.000000
vt 0.931682 0.000000
vt 0.924702 0.000000
vt 0.735606 0.014409
vt 0.735606 0.000000
vt 0.858432 0.367803
vt 0.865412 0.367803
vt 0.735606 0.646633
vt 0.735606 0.661041
s 0
usemtl Checker
f 35/1/1 33/2/1 4/3/1 2/4/1
f 10/5/2 9/6/2 3/7/2 1/8/2
f 357/9/2 355/10/2 52/11/2 88/12/2
f 38/13/1 35/1/1 2/4/1 7/14/1
f 37/15/3 40/16/3 12/17/3 10/18/3
f 10/19/4 1/20/4 42/21/4 37/22/4
f 88/23/1 52/24/1 80/25/1 94/26/1
f 352/27/2 351/28/2 10/5/2 12/29/2
f 351/28/2 101/30/2 9/6/2 10/5/2
f 13/31/5 14/32/5 16/33/5 15/34/5
f 15/34/6 16/33/6 18/35/6 17/36/6
f 17/36/7 18/35/7 20/37/7 19/38/7
f 19/38/8 20/37/8 22/39/8 21/40/8
f 25/41/6 24/42/6 28/43/6 30/44/6
f 26/45/7 25/41/7 30/44/7 31/46/7
f 24/42/5 23/47/5 29/48/5 28/43/5
f 27/49/8 26/45/8 31/46/8 32/50/8
f 345/51/4 344/52/4 236/53/4 217/54/4
f 9/55/9 39/56/9 41/57/9 3/58/9
f 101/59/9 46/60/9 39/56/9 9/55/9
f 33/2/10 35/1/10 45/61/10 46/62/10
f 98/63/3 99/64/3 40/16/3 37/15/3
f 95/65/10 97/66/10 47/67/10 38/13/10
f 106/68/1 104/69/1 45/61/1 47/67/1
f 104/69/1 105/70/1 46/62/1 45/61/1
f 267/71/10 364/72/10 365/73/10 266/74/10
f 35/1/10 38/13/10 47/67/10 45/61/10
f 90/75/2 53/76/2 34/77/2 6/78/2
f 78/79/1 49/80/1 51/81/1 77/82/1
f 55/83/2 48/84/2 50/85/2 54/86/2
f 131/87/2 90/75/2 6/78/2 130/88/2
f 80/25/1 52/24/1 49/80/1 78/79/1
f 79/89/3 55/90/3 56/91/3 82/92/3
f 55/93/9 79/94/9 84/95/9 48/96/9
f 80/25/10 87/97/10 96/98/10 94/26/10
f 8/99/2 91/100/2 5/101/2 43/102/2
f 355/10/2 56/103/2 55/83/2 354/104/2
f 354/104/2 55/83/2 54/86/2 353/105/2
f 57/106/8 59/107/8 60/108/8 58/109/8
f 59/107/7 61/110/7 62/111/7 60/108/7
f 61/110/6 63/112/6 64/113/6 62/111/6
f 63/112/5 65/114/5 66/115/5 64/113/5
f 69/116/7 74/117/7 72/118/7 68/119/7
f 70/120/6 75/121/6 74/117/6 69/116/6
f 68/119/8 72/118/8 73/122/8 67/123/8
f 71/124/5 76/125/5 75/121/5 70/120/5
f 134/126/2 135/127/2 11/128/2 44/129/2
f 346/130/4 345/51/4 217/54/4 219/131/4
f 54/132/4 50/133/4 83/134/4 81/135/4
f 353/136/4 54/132/4 81/135/4 86/137/4
f 77/82/10 86/138/10 85/139/10 78/79/10
f 107/140/3 79/89/3 82/92/3 108/141/3
f 114/142/1 87/97/1 85/139/1 112/143/1
f 112/143/1 85/139/1 86/138/1 113/144/1
f 78/79/10 85/139/10 87/97/10 80/25/10
f 94/26/10 96/98/10 97/66/10 95/65/10
f 44/129/2 11/128/2 93/145/2 12/29/2
f 7/14/1 89/146/1 95/65/1 38/13/1
f 89/146/1 88/23/1 94/26/1 95/65/1
f 352/27/2 356/147/2 89/148/2 7/149/2
f 356/147/2 357/9/2 88/12/2 89/148/2
f 97/66/1 96/98/1 116/150/1 115/151/1
f 47/67/1 97/66/1 115/151/1 106/68/1
f 79/94/9 107/152/9 110/153/9 84/95/9
f 349/154/4 348/155/4 344/52/4 345/51/4
f 81/135/4 83/134/4 109/156/4 111/157/4
f 86/137/4 81/135/4 111/157/4 113/158/4
f 37/22/4 42/21/4 102/159/4 98/160/4
f 350/161/4 349/154/4 345/51/4 346/130/4
f 39/56/9 103/162/9 100/163/9 41/57/9
f 96/98/1 87/97/1 114/142/1 116/150/1
f 234/164/4 252/165/4 260/166/4 361/167/4
f 130/168/1 6/169/1 118/170/1 132/171/1
f 135/172/4 5/173/4 119/174/4 136/175/4
f 120/176/2 121/177/2 122/178/2 123/179/2
f 120/180/11 125/181/11 124/182/11 121/183/11
f 120/180/3 11/184/3 117/185/3 125/181/3
f 123/179/2 122/178/2 36/186/2 56/103/2 92/187/2
f 6/78/2 34/77/2 36/186/2 122/178/2 121/177/2
f 11/128/2 120/176/2 123/179/2 92/187/2 93/145/2
f 6/188/9 121/183/9 124/182/9 118/189/9
f 129/190/2 140/191/2 133/192/2 126/193/2
f 124/182/11 125/181/11 128/194/11 129/195/11
f 118/189/9 124/182/9 129/195/9 126/196/9
f 125/181/3 117/185/3 127/197/3 128/194/3
f 132/171/1 118/170/1 126/198/1 133/199/1
f 138/200/12 132/201/12 133/202/12 140/203/12
f 5/204/1 130/168/1 132/171/1 119/205/1
f 91/100/2 131/87/2 130/88/2 5/101/2
f 117/206/4 136/175/4 137/207/4 127/208/4
f 11/209/4 135/172/4 136/175/4 117/206/4
f 43/102/2 5/101/2 135/127/2 134/126/2
f 136/210/13 139/211/13 141/212/13 137/213/13
f 139/211/14 138/200/14 140/203/14 141/212/14
f 128/214/2 127/215/2 137/216/2 141/217/2
f 141/217/2 140/191/2 129/190/2 128/214/2
f 16/218/3 14/219/3 142/220/3 18/221/3
f 20/222/3 18/221/3 142/220/3 22/223/3
f 44/224/9 12/225/9 40/226/9 145/227/9
f 8/228/9 43/229/9 144/230/9 143/231/9
f 43/229/9 134/232/9 146/233/9 144/230/9
f 134/232/9 44/224/9 145/227/9 146/233/9
f 143/231/9 144/230/9 148/234/9 147/235/9
f 145/227/9 40/226/9 99/236/9 149/237/9
f 146/233/9 145/227/9 149/237/9 150/238/9
f 144/230/9 146/233/9 150/238/9 148/234/9
f 58/239/3 60/240/3 62/241/3 151/242/3
f 64/243/3 66/244/3 151/242/3 62/241/3
f 119/245/2 132/246/2 138/247/2 139/248/2 136/249/2
f 152/250/10 153/251/10 155/252/10 154/253/10
f 154/253/10 155/252/10 160/254/10 161/255/10
f 158/256/2 159/257/2 157/258/2 156/259/2
f 154/260/15 158/261/15 156/262/15 152/263/15
f 159/257/16 155/264/16 153/265/16 157/258/16
f 170/266/16 169/267/16 167/268/16 164/269/16
f 156/270/17 157/271/17 153/251/17 152/250/17
f 158/261/15 154/260/15 161/272/15 162/273/15
f 155/264/16 159/257/16 163/274/16 160/275/16
f 159/257/2 158/256/2 162/276/2 163/274/2
f 165/277/18 164/278/18 167/279/18 166/280/18
f 172/281/10 170/282/10 164/278/10 165/277/10
f 175/283/15 172/284/15 165/285/15 166/286/15
f 162/273/15 161/272/15 173/287/15 174/288/15
f 174/288/15 173/287/15 172/284/15 175/283/15
f 162/273/15 174/288/15 183/289/15 177/290/15
f 168/291/2 174/292/2 175/293/2 169/294/2
f 166/280/18 167/279/18 178/295/18 179/296/18
f 161/255/10 160/254/10 171/297/10 173/298/10
f 160/275/16 163/274/16 168/299/16 171/300/16
f 171/300/16 168/299/16 169/267/16 170/266/16
f 173/298/10 171/297/10 170/282/10 172/281/10
f 181/301/15 179/302/15 187/303/15 189/304/15
f 169/294/17 175/293/17 181/305/17 180/306/17
f 168/299/16 163/274/16 176/307/16 182/308/16
f 179/296/18 178/295/18 186/309/18 187/310/18
f 167/268/16 169/267/16 180/311/16 178/312/16
f 174/313/18 168/314/18 182/315/18 183/316/18
f 175/283/15 166/286/15 179/302/15 181/301/15
f 163/274/17 162/276/17 177/317/17 176/318/17
f 188/319/2 189/320/2 187/310/2 186/309/2
f 184/321/2 185/322/2 191/323/2 190/324/2
f 182/308/16 176/307/16 184/325/16 190/326/16
f 178/312/16 180/311/16 188/327/16 186/328/16
f 189/320/2 188/319/2 190/324/2 191/323/2
f 181/301/15 189/304/15 191/329/15 183/289/15
f 177/290/15 183/289/15 191/329/15 185/330/15
f 188/327/16 180/311/16 182/308/16 190/326/16
f 180/306/10 181/305/10 183/316/10 182/315/10
f 176/318/17 177/317/17 185/322/17 184/321/17
f 218/331/1 193/332/1 195/333/1 216/334/1
f 201/335/10 192/336/10 194/337/10 200/338/10
f 365/73/10 262/339/10 235/340/10 363/341/10
f 221/342/1 198/343/1 193/332/1 218/331/1
f 220/344/3 201/345/3 203/346/3 223/347/3
f 201/348/4 220/349/4 225/350/4 192/351/4
f 262/352/1 268/353/1 255/354/1 235/355/1
f 360/356/10 203/357/10 201/335/10 359/358/10
f 359/358/10 201/335/10 200/338/10 358/359/10
f 13/360/19 204/361/19 205/362/19 14/363/19
f 204/361/20 206/364/20 207/365/20 205/362/20
f 206/364/21 208/366/21 209/367/21 207/365/21
f 208/366/22 21/40/22 22/39/22 209/367/22
f 211/368/20 214/369/20 213/370/20 210/371/20
f 212/372/21 215/373/21 214/369/21 211/368/21
f 210/371/19 213/370/19 29/374/19 23/375/19
f 27/49/22 32/50/22 215/373/22 212/372/22
f 200/376/9 194/377/9 224/378/9 222/379/9
f 358/380/9 200/376/9 222/379/9 229/381/9
f 216/334/2 229/382/2 228/383/2 218/331/2
f 98/63/3 220/344/3 223/347/3 99/64/3
f 269/384/2 221/342/2 230/385/2 271/386/2
f 106/68/1 230/385/1 228/383/1 104/69/1
f 104/69/1 228/383/1 229/382/1 105/70/1
f 203/357/10 360/356/10 364/72/10 267/71/10
f 218/331/2 228/383/2 230/385/2 221/342/2
f 264/387/10 197/388/10 217/389/10 236/390/10
f 253/391/1 252/392/1 234/393/1 232/394/1
f 238/395/10 237/396/10 233/397/10 231/398/10
f 286/399/10 285/400/10 197/388/10 264/387/10
f 255/354/1 253/391/1 232/394/1 235/355/1
f 254/401/3 347/402/3 239/18/3 238/403/3
f 238/404/9 231/405/9 258/406/9 254/407/9
f 255/354/2 268/353/2 270/408/2 261/409/2
f 199/410/10 226/411/10 196/412/10 265/413/10
f 363/341/10 362/414/10 238/395/10 239/415/10
f 362/414/10 361/416/10 237/396/10 238/395/10
f 57/106/22 58/109/22 241/417/22 240/418/22
f 240/418/21 241/417/21 243/419/21 242/420/21
f 242/420/20 243/419/20 245/421/20 244/422/20
f 244/422/19 245/421/19 66/423/19 65/424/19
f 247/425/21 246/426/21 249/427/21 250/428/21
f 248/429/20 247/425/20 250/428/20 251/430/20
f 246/426/22 67/123/22 73/122/22 249/427/22
f 71/431/19 248/429/19 251/430/19 76/432/19
f 289/433/10 227/434/10 202/435/10 290/436/10
f 237/437/4 256/438/4 257/439/4 233/440/4
f 361/167/4 260/166/4 256/438/4 237/437/4
f 252/392/2 253/391/2 259/441/2 260/442/2
f 107/140/3 108/141/3 347/402/3 254/401/3
f 114/142/1 112/143/1 259/441/1 261/409/1
f 112/143/1 113/144/1 260/442/1 259/441/1
f 253/391/2 255/354/2 261/409/2 259/441/2
f 268/353/2 269/384/2 271/386/2 270/408/2
f 227/434/10 203/357/10 267/71/10 202/435/10
f 198/343/1 221/342/1 269/384/1 263/443/1
f 263/443/1 269/384/1 268/353/1 262/352/1
f 360/356/10 198/444/10 263/445/10 364/72/10
f 364/72/10 263/445/10 262/339/10 365/73/10
f 271/386/1 115/151/1 116/150/1 270/408/1
f 230/385/1 106/68/1 115/151/1 271/386/1
f 254/407/9 258/406/9 110/153/9 107/152/9
f 34/446/4 342/447/4 343/448/4 36/449/4
f 256/438/4 111/157/4 109/156/4 257/439/4
f 260/166/4 113/158/4 111/157/4 256/438/4
f 220/349/4 98/160/4 102/159/4 225/350/4
f 53/450/4 341/451/4 342/447/4 34/446/4
f 222/379/9 224/378/9 100/163/9 103/162/9
f 270/408/1 116/150/1 114/142/1 261/409/1
f 222/379/9 103/162/9 105/452/9 229/381/9
f 285/453/1 287/454/1 273/455/1 197/456/1
f 290/457/4 291/458/4 274/459/4 196/460/4
f 275/461/10 278/462/10 277/463/10 276/464/10
f 275/465/11 276/466/11 279/467/11 280/468/11
f 275/465/3 280/468/3 272/469/3 202/470/3
f 278/462/10 266/74/10 239/415/10 219/471/10 277/463/10
f 197/388/10 276/464/10 277/463/10 219/471/10 217/389/10
f 202/435/10 267/71/10 266/74/10 278/462/10 275/461/10
f 197/472/9 273/473/9 279/467/9 276/466/9
f 284/474/10 281/475/10 288/476/10 295/477/10
f 279/467/11 284/478/11 283/194/11 280/468/11
f 273/473/9 281/479/9 284/478/9 279/467/9
f 280/468/3 283/194/3 282/480/3 272/469/3
f 287/454/1 288/199/1 281/198/1 273/455/1
f 293/481/12 295/482/12 288/483/12 287/484/12
f 196/485/1 274/486/1 287/454/1 285/453/1
f 265/413/10 196/412/10 285/400/10 286/399/10
f 272/487/4 282/488/4 292/489/4 291/458/4
f 202/490/4 272/487/4 291/458/4 290/457/4
f 226/411/10 289/433/10 290/436/10 196/412/10
f 291/491/13 292/492/13 296/493/13 294/494/13
f 294/494/14 296/493/14 295/482/14 293/481/14
f 283/495/10 296/496/10 292/497/10 282/498/10
f 296/496/10 283/495/10 284/474/10 295/477/10
f 205/499/3 207/500/3 142/220/3 14/219/3
f 209/501/3 22/223/3 142/220/3 207/500/3
f 227/502/9 299/503/9 223/504/9 203/505/9
f 199/506/9 297/507/9 298/508/9 226/509/9
f 226/509/9 298/508/9 300/510/9 289/511/9
f 289/511/9 300/510/9 299/503/9 227/502/9
f 297/507/9 147/235/9 148/234/9 298/508/9
f 299/503/9 149/237/9 99/236/9 223/504/9
f 300/510/9 150/238/9 149/237/9 299/503/9
f 298/508/9 148/234/9 150/238/9 300/510/9
f 58/239/3 151/242/3 243/512/3 241/513/3
f 245/514/3 243/512/3 151/242/3 66/244/3
f 274/515/10 291/516/10 294/517/10 293/518/10 287/519/10
f 301/520/2 303/521/2 304/522/2 302/523/2
f 303/521/2 310/524/2 309/525/2 304/522/2
f 307/526/10 305/527/10 306/528/10 308/529/10
f 303/530/15 301/531/15 305/532/15 307/533/15
f 308/534/16 306/535/16 302/536/16 304/537/16
f 319/538/16 313/539/16 316/540/16 318/541/16
f 305/542/17 301/520/17 302/523/17 306/543/17
f 307/533/15 311/544/15 310/545/15 303/530/15
f 304/537/16 309/546/16 312/547/16 308/534/16
f 308/529/10 312/548/10 311/549/10 307/526/10
f 314/550/18 315/551/18 316/552/18 313/553/18
f 321/554/2 314/550/2 313/553/2 319/555/2
f 324/556/15 315/557/15 314/558/15 321/559/15
f 311/544/15 323/560/15 322/561/15 310/545/15
f 323/560/15 324/556/15 321/559/15 322/561/15
f 311/544/15 326/562/15 332/563/15 323/560/15
f 317/564/10 318/565/10 324/566/10 323/210/10
f 315/551/18 328/567/18 327/568/18 316/552/18
f 310/524/2 322/569/2 320/570/2 309/525/2
f 309/546/16 320/571/16 317/572/16 312/547/16
f 320/571/16 319/538/16 318/541/16 317/572/16
f 322/569/2 321/554/2 319/555/2 320/570/2
f 330/573/15 338/574/15 336/575/15 328/576/15
f 318/565/17 329/577/17 330/578/17 324/566/17
f 317/572/16 331/579/16 325/580/16 312/547/16
f 328/567/18 336/581/18 335/582/18 327/568/18
f 316/540/16 327/583/16 329/584/16 318/541/16
f 323/585/18 332/586/18 331/587/18 317/588/18
f 324/556/15 330/573/15 328/576/15 315/557/15
f 312/548/17 325/589/17 326/590/17 311/549/17
f 337/591/10 335/582/10 336/581/10 338/592/10
f 333/593/10 339/594/10 340/595/10 334/596/10
f 331/579/16 339/597/16 333/598/16 325/580/16
f 327/583/16 335/599/16 337/600/16 329/584/16
f 338/592/10 340/595/10 339/594/10 337/591/10
f 330/573/15 332/563/15 340/601/15 338/574/15
f 326/562/15 334/602/15 340/601/15 332/563/15
f 337/600/16 339/597/16 331/579/16 329/584/16
f 329/577/2 331/587/2 332/586/2 330/578/2
f 325/589/17 333/593/17 334/596/17 326/590/17
f 347/603/4 346/130/4 219/131/4 239/604/4
f 343/448/4 342/447/4 349/154/4 350/161/4
f 342/447/4 341/451/4 348/155/4 349/154/4
f 350/161/4 346/130/4 347/603/4 108/605/4
f 108/605/4 82/606/4 343/448/4 350/161/4
f 36/449/4 343/448/4 82/606/4 56/607/4
f 232/608/10 234/7/10 361/416/10 362/414/10
f 235/340/10 232/608/10 362/414/10 363/341/10
f 195/609/9 358/380/9 229/381/9 216/610/9
f 193/611/10 359/358/10 358/359/10 195/612/10
f 198/444/10 360/356/10 359/358/10 193/611/10
f 266/74/10 365/73/10 363/341/10 239/415/10
f 39/56/9 46/60/9 105/452/9 103/162/9
f 93/145/2 92/187/2 357/9/2 356/147/2
f 12/29/2 93/145/2 356/147/2 352/27/2
f 51/613/4 353/136/4 86/137/4 77/614/4
f 49/615/2 354/104/2 353/105/2 51/616/2
f 52/11/2 355/10/2 354/104/2 49/615/2
f 4/617/9 33/618/9 46/60/9 101/59/9
f 2/619/2 4/620/2 101/30/2 351/28/2
f 7/149/2 2/619/2 351/28/2 352/27/2
f 92/187/2 56/103/2 355/10/2 357/9/2
