# Blender 5.1.2
# www.blender.org
mtllib FloorMeshEdge.02.mtl
o FloorMeshEdge.02
v 3.001934 0.040425 2.357530
v 3.001934 0.040425 -2.359406
v -2.860401 0.040425 -2.359406
v -2.860401 0.040425 2.357530
v -2.860401 0.010589 2.357530
v 3.001934 0.010589 2.357530
v -2.860401 0.010589 -2.359406
v 3.001934 0.010589 -2.359406
vn -0.0000 1.0000 -0.0000
vn -0.0000 -1.0000 -0.0000
vn -0.0000 -0.0000 -1.0000
vn -1.0000 -0.0000 -0.0000
vn 1.0000 -0.0000 -0.0000
vn -0.0000 -0.0000 1.0000
vt 0.013834 0.792936
vt 0.013834 0.016493
vt 0.978818 0.016493
vt 0.978818 0.792936
vt 0.015684 0.017135
vt 0.976694 0.017135
vt 0.976694 0.790379
vt 0.015684 0.790379
vt 0.996867 0.615573
vt 0.993734 0.615573
vt 0.993734 0.000000
vt 0.996867 0.000000
vt 1.000000 0.495300
vt 0.996867 0.495300
vt 0.996867 0.000000
vt 1.000000 0.000000
vt 0.998417 0.200763
vt 1.001550 0.200763
vt 1.001550 0.696064
vt 0.998417 0.696064
vt 0.990601 0.000000
vt 0.993734 0.000000
vt 0.990601 0.615573
s 0
usemtl M_Mesh
f 1/1/1 2/2/1 3/3/1 4/4/1
f 6/5/2 5/6/2 7/7/2 8/8/2
f 2/9/3 8/10/3 7/11/3 3/12/3
f 3/13/4 7/14/4 5/15/4 4/16/4
f 1/17/5 6/18/5 8/19/5 2/20/5
f 4/21/6 5/22/6 6/10/6 1/23/6
