# Blender 5.1.2
# www.blender.org
mtllib FloorMesh.01.mtl
o FloorMesh.01
v 2.860401 -0.100005 -2.359406
v 2.860401 -0.100005 2.357530
v 2.860401 0.100005 2.357530
v 2.860401 0.100005 -2.359406
v -2.860401 0.100005 2.357530
v -2.860401 -0.100005 2.357530
v -2.860401 -0.100005 -2.359406
v -2.860401 0.100005 -2.359406
v 3.001934 0.100005 -2.500938
v -3.001934 0.100005 -2.500938
v 3.001934 -0.100005 -2.500938
v -3.001934 -0.100005 -2.500938
v 3.001934 -0.100005 2.499062
v -3.001934 -0.100005 2.499062
v -3.001934 0.100005 2.499062
v 3.001934 0.100005 2.499062
vn -1.0000 -0.0000 -0.0000
vn -0.0000 -0.0000 -1.0000
vn -0.0000 1.0000 -0.0000
vn -0.0000 -1.0000 -0.0000
vn -0.0000 -0.0000 1.0000
vn 1.0000 -0.0000 -0.0000
vt 0.105233 0.890472
vt 0.890883 0.890472
vt 0.890883 0.923785
vt 0.105233 0.923785
vt 1.056887 0.859128
vt 1.056887 0.892442
vt 0.056887 0.892442
vt 0.056887 0.859128
vt 0.048295 0.932645
vt 0.024721 0.909072
vt 0.857518 0.909072
vt 0.833944 0.932646
vt 0.098937 0.930185
vt 0.075363 0.906611
vt 0.908160 0.906611
vt 0.884587 0.930185
vt 0.991877 0.905171
vt 0.991877 0.938485
vt 0.039024 0.938485
vt 0.039024 0.905171
vt 0.875385 0.877082
vt 0.898959 0.900655
vt 0.066162 0.900655
vt 0.089736 0.877082
vt 0.894037 0.901690
vt 0.917611 0.925263
vt 0.084814 0.925263
vt 0.108388 0.901690
vt 1.056887 0.972903
vt 0.104034 0.972903
vt 0.104034 0.939589
vt 1.056887 0.939589
vt 0.989076 0.964571
vt 0.036223 0.964571
vt 0.012649 0.940997
vt 1.012649 0.940997
vt 0.022885 0.921311
vt 0.975737 0.921311
vt 0.999311 0.944885
vt -0.000689 0.944885
vt 0.068386 0.925212
vt 0.068386 0.891898
vt 0.901182 0.891898
vt 0.901182 0.925212
vt 0.912349 0.911584
vt 0.912349 0.944898
vt 0.079552 0.944898
vt 0.079552 0.911584
vt 0.080461 0.916016
vt 1.033314 0.916016
vt 1.056887 0.939589
vt 0.056887 0.939589
vt -0.000322 0.940282
vt 0.999678 0.940282
vt 0.999678 0.973596
vt -0.000322 0.973596
vt 0.906971 0.931168
vt 0.121322 0.931167
vt 0.121322 0.897854
vt 0.906971 0.897854
vt 0.080461 0.916015
vt 1.056887 0.892442
s 0
usemtl M_Mesh
f 3/1/1 4/2/1 1/3/1 2/4/1
f 12/5/2 10/6/2 9/7/2 11/8/2
f 3/9/3 16/10/3 9/11/3 4/12/3
f 6/13/4 14/14/4 12/15/4 7/16/4
f 6/17/2 5/18/2 3/19/2 2/20/2
f 8/21/3 10/22/3 15/23/3 5/24/3
f 1/25/4 11/26/4 13/27/4 2/28/4
f 7/29/5 1/30/5 4/31/5 8/32/5
f 3/33/3 5/34/3 15/35/3 16/36/3
f 6/37/4 2/38/4 13/39/4 14/40/4
f 11/41/6 9/42/6 16/43/6 13/44/6
f 14/45/1 15/46/1 10/47/1 12/48/1
f 8/49/3 4/50/3 9/51/3 10/52/3
f 16/53/5 15/54/5 14/55/5 13/56/5
f 6/57/6 7/58/6 8/59/6 5/60/6
f 7/61/4 12/7/4 11/62/4 1/50/4
