# Blender 5.2.1 LTS
# www.blender.org
mtllib PrisonRail.mtl
o PrisonRail
v 2.500911 3.515463 1.693774
v 2.500911 3.715844 1.693774
v 2.500911 3.515463 1.894155
v 2.500911 3.715844 1.894155
v -2.500911 3.515463 1.693774
v -2.500911 3.715844 1.693774
v -2.500911 3.515463 1.894155
v -2.500911 3.715844 1.894155
v -0.249754 3.515463 1.894155
v 0.249754 3.515463 1.894155
v 0.249754 3.715844 1.894155
v -0.249754 3.715844 1.894155
v 0.249754 3.515463 1.693774
v -0.249754 3.515463 1.693774
v -0.249754 3.715844 1.693774
v 0.249754 3.715844 1.693774
v 0.249754 3.715844 1.593512
v -0.249754 3.715844 1.593512
v -0.249754 3.515463 1.593512
v 0.249754 3.515463 1.593512
v 2.500911 3.515463 1.874146
v 2.500911 3.515463 1.713783
v 2.500911 3.715844 1.713783
v 2.500911 3.715844 1.874145
v -2.500911 3.515463 1.713783
v -2.500911 3.515463 1.874145
v -2.500911 3.715844 1.874146
v -2.500911 3.715844 1.713783
v -0.249754 3.715844 1.874146
v -0.249754 3.715844 1.713783
v 0.249754 3.715844 1.874146
v 0.249754 3.715844 1.713783
v 0.249754 3.515463 1.874146
v 0.249754 3.515463 1.713783
v -0.249754 3.515463 1.874146
v -0.249754 3.515463 1.713783
v 2.500911 3.683353 1.713783
v 2.500911 3.683353 1.874145
v -2.500911 3.683353 1.874146
v -2.500911 3.683353 1.713783
v -0.249754 3.683353 1.874146
v -0.249754 3.683353 1.713783
v 0.249754 3.683353 1.874146
v 0.249754 3.683353 1.713783
v 2.500911 3.683353 1.693774
v -2.500911 3.683353 1.693774
v -0.249754 3.683353 1.693774
v 0.249754 3.683353 1.693774
v 0.249754 3.683353 1.593512
v -0.249754 3.683353 1.593512
v -2.500911 3.683353 1.894155
v 2.500911 3.683353 1.894155
v 0.249754 3.683353 1.894155
v -0.249754 3.683353 1.894155
v 2.500911 3.515463 -1.693774
v 2.500911 3.715844 -1.693774
v 2.500911 3.515463 -1.894155
v 2.500911 3.715844 -1.894155
v -2.500911 3.515463 -1.693774
v -2.500911 3.715844 -1.693774
v -2.500911 3.515463 -1.894155
v -2.500911 3.715844 -1.894155
v -0.249754 3.515463 -1.894155
v 0.249754 3.515463 -1.894155
v 0.249754 3.715844 -1.894155
v -0.249754 3.715844 -1.894155
v 0.249754 3.515463 -1.693774
v -0.249754 3.515463 -1.693774
v -0.249754 3.715844 -1.693774
v 0.249754 3.715844 -1.693774
v 0.249754 3.715844 -1.593512
v -0.249754 3.715844 -1.593512
v -0.249754 3.515463 -1.593512
v 0.249754 3.515463 -1.593512
v 2.500911 3.515463 -1.874146
v 2.500911 3.515463 -1.713783
v 2.500911 3.715844 -1.713783
v 2.500911 3.715844 -1.874145
v -2.500911 3.515463 -1.713783
v -2.500911 3.515463 -1.874145
v -2.500911 3.715844 -1.874146
v -2.500911 3.715844 -1.713783
v -0.249754 3.715844 -1.874146
v -0.249754 3.715844 -1.713783
v 0.249754 3.715844 -1.874146
v 0.249754 3.715844 -1.713783
v 0.249754 3.515463 -1.874146
v 0.249754 3.515463 -1.713783
v -0.249754 3.515463 -1.874146
v -0.249754 3.515463 -1.713783
v 2.500911 3.683353 -1.713783
v 2.500911 3.683353 -1.874145
v -2.500911 3.683353 -1.874146
v -2.500911 3.683353 -1.713783
v -0.249754 3.683353 -1.874146
v -0.249754 3.683353 -1.713783
v 0.249754 3.683353 -1.874146
v 0.249754 3.683353 -1.713783
v 2.500911 3.683353 -1.693774
v -2.500911 3.683353 -1.693774
v -0.249754 3.683353 -1.693774
v 0.249754 3.683353 -1.693774
v 0.249754 3.683353 -1.593512
v -0.249754 3.683353 -1.593512
v -2.500911 3.683353 -1.894155
v 2.500911 3.683353 -1.894155
v 0.249754 3.683353 -1.894155
v -0.249754 3.683353 -1.894155
vn -0.0000 -0.0000 -1.0000
vn -0.0000 -0.0000 1.0000
vn 1.0000 -0.0000 -0.0000
vn -0.0000 -1.0000 -0.0000
vn -1.0000 -0.0000 -0.0000
vn -0.0000 1.0000 -0.0000
vt 0.266911 0.186993
vt 0.273406 0.186993
vt 0.273406 0.286858
vt 0.266911 0.286858
vt 0.073627 0.549932
vt 0.080123 0.549932
vt 0.080123 0.999999
vt 0.073627 0.999999
vt 0.266911 0.306903
vt 0.233345 0.306903
vt 0.233345 0.286858
vt 0.166742 0.000000
vt 0.173238 0.000000
vt 0.173238 0.450067
vt 0.166742 0.450067
vt 0.213300 0.286858
vt 0.213300 0.186993
vt 0.233345 0.186993
vt 0.179734 0.450067
vt 0.173238 0.450067
vt 0.173238 -0.000000
vt 0.179734 -0.000000
vt 0.266911 0.166948
vt 0.273406 0.166948
vt 0.073627 0.000000
vt 0.080123 0.000000
vt 0.080123 0.450067
vt 0.073627 0.450067
vt 0.004000 0.450067
vt 0.000000 0.450067
vt -0.000000 0.000000
vt 0.004000 0.000000
vt 0.116185 0.549932
vt 0.112184 0.549932
vt 0.112184 0.450067
vt 0.116185 0.450067
vt 0.112184 -0.000000
vt 0.116185 -0.000000
vt 0.116185 0.999999
vt 0.112184 0.999999
vt 0.004000 1.000000
vt 0.000000 1.000000
vt 0.000000 0.549933
vt 0.004000 0.549933
vt 0.327017 0.253602
vt 0.327017 0.257602
vt 0.293451 0.257602
vt 0.293451 0.253602
vt 0.299947 0.261602
vt 0.299947 0.257602
vt 0.333513 0.257602
vt 0.333513 0.261602
vt 0.040062 0.549933
vt 0.036061 0.549933
vt 0.036061 0.450067
vt 0.040062 0.450067
vt 0.299947 0.297664
vt 0.299947 0.293663
vt 0.333513 0.293663
vt 0.333513 0.297664
vt 0.293452 0.297664
vt 0.293452 0.293663
vt 0.327017 0.217540
vt 0.327017 0.221541
vt 0.293451 0.221541
vt 0.293451 0.217540
vt 0.233345 0.166948
vt 0.040062 1.000000
vt 0.036061 1.000000
vt 0.122680 0.000000
vt 0.126681 0.000000
vt 0.126681 0.450067
vt 0.122680 0.450067
vt 0.133177 0.000000
vt 0.133177 0.450067
vt 0.122680 0.549932
vt 0.126681 0.549932
vt 0.126681 0.999999
vt 0.122680 0.999999
vt 0.133177 0.549932
vt 0.133177 0.999999
vt 0.036061 0.000000
vt 0.040062 0.000000
vt 0.112184 1.000000
vt 0.080123 1.000000
vt 0.080123 0.549933
vt 0.112184 0.549933
vt 0.112184 0.450067
vt 0.080123 0.450067
vt 0.080123 -0.000000
vt 0.112184 -0.000000
vt 0.122680 0.450067
vt 0.213300 0.450067
vt 0.213300 -0.000000
vt 0.122680 -0.000000
vt 0.333513 0.253602
vt 0.333513 0.257602
vt 0.122680 0.999999
vt 0.133177 0.000000
vt 0.133177 0.450067
vt 0.273406 0.306903
vt 0.333513 0.217540
vt 0.333513 0.221541
vt 0.293452 0.261602
vt 0.293452 0.257602
vt 0.040062 0.549932
vt 0.040062 0.000000
vt 0.040062 0.999999
vt 0.293452 0.286858
vt 0.293452 0.186993
s 0
usemtl M_MetalInterface
f 50/1/1 18/2/1 17/3/1 49/4/1
f 54/5/2 12/6/2 8/7/2 51/8/2
f 48/9/3 13/10/3 20/11/3 49/4/3
f 48/12/1 16/13/1 2/14/1 45/15/1
f 13/16/4 14/17/4 19/18/4 20/11/4
f 46/19/1 6/20/1 15/21/1 47/22/1
f 47/23/5 15/24/5 18/2/5 50/1/5
f 52/25/2 4/26/2 11/27/2 53/28/2
f 53/28/2 11/27/2 12/6/2 54/5/2
f 34/29/4 13/30/4 1/31/4 22/32/4
f 32/33/6 16/34/6 15/35/6 30/36/6
f 30/36/6 15/35/6 6/37/6 28/38/6
f 23/39/6 2/40/6 16/34/6 32/33/6
f 25/41/4 5/42/4 14/43/4 36/44/4
f 40/45/5 46/46/5 5/47/5 25/48/5
f 38/49/3 52/50/3 3/51/3 21/52/3
f 36/44/4 14/43/4 13/30/4 34/29/4
f 9/53/4 35/54/4 33/55/4 10/56/4
f 35/54/4 36/44/4 34/29/4 33/55/4
f 45/57/3 37/58/3 22/59/3 1/60/3
f 2/61/3 23/62/3 37/58/3 45/57/3
f 51/63/5 39/64/5 26/65/5 7/66/5
f 14/67/5 47/23/5 50/1/5 19/18/5
f 7/68/4 26/69/4 35/54/4 9/53/4
f 26/69/4 25/41/4 36/44/4 35/54/4
f 4/70/6 24/71/6 31/72/6 11/73/6
f 31/72/1 24/71/1 38/74/1 43/75/1
f 12/76/6 29/77/6 27/78/6 8/79/6
f 27/78/1 29/77/1 41/80/1 39/81/1
f 11/73/6 31/72/6 29/77/6 12/76/6
f 29/77/1 31/72/1 43/75/1 41/80/1
f 10/56/4 33/55/4 21/82/4 3/83/4
f 33/55/4 34/29/4 22/32/4 21/82/4
f 38/84/6 37/85/6 44/86/6 43/87/6
f 41/88/6 42/89/6 40/90/6 39/91/6
f 43/87/6 44/86/6 42/89/6 41/88/6
f 32/33/2 30/36/2 42/92/2 44/76/2
f 5/93/1 46/19/1 47/22/1 14/94/1
f 30/36/2 28/38/2 40/95/2 42/92/2
f 28/96/5 6/97/5 46/46/5 40/45/5
f 23/39/2 32/33/2 44/76/2 37/98/2
f 13/99/1 48/12/1 45/15/1 1/100/1
f 16/101/3 48/9/3 49/4/3 17/3/3
f 19/18/1 50/1/1 49/4/1 20/11/1
f 8/102/5 27/103/5 39/64/5 51/63/5
f 24/104/3 4/105/3 52/50/3 38/49/3
f 10/56/2 53/28/2 54/5/2 9/106/2
f 3/107/2 52/25/2 53/28/2 10/56/2
f 9/106/2 54/5/2 51/8/2 7/108/2
f 25/48/5 26/65/5 39/64/5 40/45/5
f 21/52/3 22/59/3 37/58/3 38/49/3
f 16/109/6 17/3/6 18/2/6 15/110/6
f 104/1/2 103/4/2 71/3/2 72/2/2
f 108/5/1 105/8/1 62/7/1 66/6/1
f 102/9/3 103/4/3 74/11/3 67/10/3
f 102/12/2 99/15/2 56/14/2 70/13/2
f 67/16/4 74/11/4 73/18/4 68/17/4
f 100/19/2 101/22/2 69/21/2 60/20/2
f 101/23/5 104/1/5 72/2/5 69/24/5
f 106/25/1 107/28/1 65/27/1 58/26/1
f 107/28/1 108/5/1 66/6/1 65/27/1
f 88/29/4 76/32/4 55/31/4 67/30/4
f 86/33/6 84/36/6 69/35/6 70/34/6
f 84/36/6 82/38/6 60/37/6 69/35/6
f 77/39/6 86/33/6 70/34/6 56/40/6
f 79/41/4 90/44/4 68/43/4 59/42/4
f 94/45/5 79/48/5 59/47/5 100/46/5
f 92/49/3 75/52/3 57/51/3 106/50/3
f 90/44/4 88/29/4 67/30/4 68/43/4
f 63/53/4 64/56/4 87/55/4 89/54/4
f 89/54/4 87/55/4 88/29/4 90/44/4
f 99/57/3 55/60/3 76/59/3 91/58/3
f 56/61/3 99/57/3 91/58/3 77/62/3
f 105/63/5 61/66/5 80/65/5 93/64/5
f 68/67/5 73/18/5 104/1/5 101/23/5
f 61/68/4 63/53/4 89/54/4 80/69/4
f 80/69/4 89/54/4 90/44/4 79/41/4
f 58/70/6 65/73/6 85/72/6 78/71/6
f 85/72/2 97/75/2 92/74/2 78/71/2
f 66/76/6 62/79/6 81/78/6 83/77/6
f 81/78/2 93/81/2 95/80/2 83/77/2
f 65/73/6 66/76/6 83/77/6 85/72/6
f 83/77/2 95/80/2 97/75/2 85/72/2
f 64/56/4 57/83/4 75/82/4 87/55/4
f 87/55/4 75/82/4 76/32/4 88/29/4
f 92/84/6 97/87/6 98/86/6 91/85/6
f 95/88/6 93/91/6 94/90/6 96/89/6
f 97/87/6 95/88/6 96/89/6 98/86/6
f 86/33/1 98/76/1 96/92/1 84/36/1
f 59/93/2 68/94/2 101/22/2 100/19/2
f 84/36/1 96/92/1 94/95/1 82/38/1
f 82/96/5 94/45/5 100/46/5 60/97/5
f 77/39/1 91/98/1 98/76/1 86/33/1
f 67/99/2 55/100/2 99/15/2 102/12/2
f 70/101/3 71/3/3 103/4/3 102/9/3
f 73/18/2 74/11/2 103/4/2 104/1/2
f 62/102/5 105/63/5 93/64/5 81/103/5
f 78/104/3 92/49/3 106/50/3 58/105/3
f 64/56/1 63/106/1 108/5/1 107/28/1
f 57/107/1 64/56/1 107/28/1 106/25/1
f 63/106/1 61/108/1 105/8/1 108/5/1
f 79/48/5 94/45/5 93/64/5 80/65/5
f 75/52/3 92/49/3 91/58/3 76/59/3
f 70/109/6 69/110/6 72/2/6 71/3/6
