# Blender 5.2.2 LTS
# www.blender.org
mtllib PrisonRailDoorPrt_01b.mtl
o PrisonRailDoorPrt_01b
v -0.015715 0.352920 1.102600
v 0.015715 0.352920 1.102600
v -0.015715 0.352920 0.350008
v 0.015715 0.352920 0.350008
v 0.015715 3.393706 1.102600
v -0.015715 3.393706 1.102600
v -0.015715 3.393706 0.350007
v 0.015715 3.393706 0.350007
vn -1.0000 -0.0000 -0.0000
vn 1.0000 -0.0000 -0.0000
vt 1.000024 0.998778
vt 0.000024 0.998778
vt 0.000024 0.746156
vt 1.000024 0.746156
vt 1.000024 0.746156
vt 0.000024 0.998778
vt 0.000024 0.746156
s 0
usemtl M_Mesh
f 7/1/1 3/2/1 1/3/1 6/4/1
f 8/5/2 5/1/2 2/6/2 4/7/2
