# Blender 5.1.2
# www.blender.org
mtllib PrisonRailCranePrt01.mtl
o PrisonRailCranePrt01
v -0.295968 3.683367 1.717085
v -0.295968 3.808528 1.717085
v -0.295968 3.683367 1.871143
v -0.295968 3.808528 1.871143
v -0.421130 3.683367 1.717085
v -0.421130 3.808528 1.717085
v -0.421130 3.683367 1.871143
v -0.421130 3.808528 1.871143
v -0.295968 3.683367 1.739938
v -0.295968 3.808528 1.739938
v -0.421130 3.683367 1.739938
v -0.421130 3.808528 1.739938
v -0.295968 3.856838 1.770793
v -0.295968 3.856838 1.871143
v -0.421130 3.856838 1.871143
v -0.421130 3.856838 1.770793
v -0.295968 3.724936 1.717085
v -0.295968 3.724936 1.871143
v -0.421130 3.724936 1.871143
v -0.421130 3.724936 1.717085
v -0.421130 3.724936 1.739938
v -0.295968 3.724936 1.739938
v -0.295968 3.808528 1.920820
v -0.421130 3.808528 1.920820
v -0.295968 3.856838 1.920820
v -0.421130 3.856838 1.920820
v -0.295968 3.724936 1.920820
v -0.421130 3.724936 1.920820
v -0.295968 3.808528 2.004460
v -0.421130 3.808528 2.004460
v -0.295968 3.856838 2.004460
v -0.421130 3.856838 2.004460
v -0.295968 3.724936 2.004460
v -0.421130 3.724936 2.004460
v -0.421130 3.183608 1.920820
v -0.421130 3.183608 2.004460
v -0.295968 3.183608 1.920820
v -0.295968 3.183608 2.004460
v 0.000000 3.724936 1.920820
v 0.000000 3.724936 2.004460
v 0.000000 3.808528 1.920820
v 0.000000 3.808528 2.004460
v 0.295968 3.683367 1.717085
v 0.295968 3.808528 1.717085
v 0.295968 3.683367 1.871143
v 0.295968 3.808528 1.871143
v 0.421130 3.683367 1.717085
v 0.421130 3.808528 1.717085
v 0.421130 3.683367 1.871143
v 0.421130 3.808528 1.871143
v 0.295968 3.683367 1.739938
v 0.295968 3.808528 1.739938
v 0.421130 3.683367 1.739938
v 0.421130 3.808528 1.739938
v 0.295968 3.856838 1.770793
v 0.295968 3.856838 1.871143
v 0.421130 3.856838 1.871143
v 0.421130 3.856838 1.770793
v 0.295968 3.724936 1.717085
v 0.295968 3.724936 1.871143
v 0.421130 3.724936 1.871143
v 0.421130 3.724936 1.717085
v 0.421130 3.724936 1.739938
v 0.295968 3.724936 1.739938
v 0.295968 3.808528 1.920820
v 0.421130 3.808528 1.920820
v 0.295968 3.856838 1.920820
v 0.421130 3.856838 1.920820
v 0.295968 3.724936 1.920820
v 0.421130 3.724936 1.920820
v 0.295968 3.808528 2.004460
v 0.421130 3.808528 2.004460
v 0.295968 3.856838 2.004460
v 0.421130 3.856838 2.004460
v 0.295968 3.724936 2.004460
v 0.421130 3.724936 2.004460
v 0.421130 3.183608 1.920820
v 0.421130 3.183608 2.004460
v 0.295968 3.183608 1.920820
v 0.295968 3.183608 2.004460
v -0.421130 3.375198 2.004460
v -0.421130 3.375198 1.920820
v -0.295968 3.375198 1.920820
v -0.295968 3.375198 2.004460
v 0.421130 3.375198 2.004460
v 0.421130 3.375198 1.920820
v 0.295968 3.375198 1.920820
v 0.295968 3.375198 2.004460
v -0.421130 3.375198 1.772570
v -0.421130 3.183608 1.772570
v -0.295968 3.375198 1.772570
v -0.295968 3.183608 1.772570
v 0.421130 3.375198 1.772570
v 0.421130 3.183608 1.772570
v 0.295968 3.375198 1.772570
v 0.295968 3.183608 1.772570
v 0.296793 3.132010 1.720006
v 0.296793 3.416464 1.720006
v 0.296793 3.132010 2.004460
v 0.296793 3.416464 2.004460
v -0.296793 3.132010 1.720006
v -0.296793 3.416464 1.720006
v -0.296793 3.132010 2.004460
v -0.296793 3.416464 2.004460
v 0.296793 3.073097 1.862233
v 0.296793 3.475376 1.862233
v -0.296793 3.073097 1.862233
v -0.296793 3.475376 1.862233
v 0.296793 3.274237 1.661094
v 0.296793 3.274237 2.063373
v -0.296793 3.274237 2.063373
v -0.296793 3.274237 1.661094
v -0.296793 3.274237 1.862233
v 0.296793 3.274237 1.862233
v -0.226965 3.132010 2.004460
v 0.226965 3.132010 2.004460
v 0.226965 3.416464 2.004460
v -0.226965 3.416464 2.004460
v 0.226965 3.132010 1.720006
v -0.226965 3.132010 1.720006
v -0.226965 3.416464 1.720006
v 0.226965 3.416464 1.720006
v 0.226965 3.475376 1.862233
v -0.226965 3.475376 1.862233
v -0.226965 3.073097 1.862233
v 0.226965 3.073097 1.862233
v -0.226965 3.274237 1.661094
v 0.226965 3.274237 1.661094
v 0.226965 3.274237 2.063373
v -0.226965 3.274237 2.063373
v -0.226965 3.150603 1.985868
v 0.226965 3.150603 1.985868
v 0.226965 3.397871 1.985868
v -0.226965 3.397871 1.985868
v 0.226965 3.150603 1.738599
v -0.226965 3.150603 1.738599
v -0.226965 3.397871 1.738599
v 0.226965 3.397871 1.738599
v 0.226965 3.449082 1.862233
v -0.226965 3.449082 1.862233
v -0.226965 3.099392 1.862233
v 0.226965 3.099392 1.862233
v -0.226965 3.274237 1.687388
v 0.226965 3.274237 1.687388
v 0.226965 3.274237 2.037078
v -0.226965 3.274237 2.037078
v -0.295968 3.683367 -1.717085
v -0.295968 3.808528 -1.717085
v -0.295968 3.683367 -1.871143
v -0.295968 3.808528 -1.871143
v -0.421130 3.683367 -1.717085
v -0.421130 3.808528 -1.717085
v -0.421130 3.683367 -1.871143
v -0.421130 3.808528 -1.871143
v -0.295968 3.683367 -1.739938
v -0.295968 3.808528 -1.739938
v -0.421130 3.683367 -1.739938
v -0.421130 3.808528 -1.739938
v -0.295968 3.856838 -1.770793
v -0.295968 3.856838 -1.871143
v -0.421130 3.856838 -1.871143
v -0.421130 3.856838 -1.770793
v -0.295968 3.724936 -1.717085
v -0.295968 3.724936 -1.871143
v -0.421130 3.724936 -1.871143
v -0.421130 3.724936 -1.717085
v -0.421130 3.724936 -1.739938
v -0.295968 3.724936 -1.739938
v -0.295968 3.808528 -1.920820
v -0.421130 3.808528 -1.920820
v -0.295968 3.856838 -1.920820
v -0.421130 3.856838 -1.920820
v -0.295968 3.724936 -1.920820
v -0.421130 3.724936 -1.920820
v -0.295968 3.808528 -2.004460
v -0.421130 3.808528 -2.004460
v -0.295968 3.856838 -2.004460
v -0.421130 3.856838 -2.004460
v -0.295968 3.724936 -2.004460
v -0.421130 3.724936 -2.004460
v -0.421130 3.183608 -1.920820
v -0.421130 3.183608 -2.004460
v -0.295968 3.183608 -1.920820
v -0.295968 3.183608 -2.004460
v 0.000000 3.724936 -1.920820
v 0.000000 3.724936 -2.004460
v 0.000000 3.808528 -1.920820
v 0.000000 3.808528 -2.004460
v 0.295968 3.683367 -1.717085
v 0.295968 3.808528 -1.717085
v 0.295968 3.683367 -1.871143
v 0.295968 3.808528 -1.871143
v 0.421130 3.683367 -1.717085
v 0.421130 3.808528 -1.717085
v 0.421130 3.683367 -1.871143
v 0.421130 3.808528 -1.871143
v 0.295968 3.683367 -1.739938
v 0.295968 3.808528 -1.739938
v 0.421130 3.683367 -1.739938
v 0.421130 3.808528 -1.739938
v 0.295968 3.856838 -1.770793
v 0.295968 3.856838 -1.871143
v 0.421130 3.856838 -1.871143
v 0.421130 3.856838 -1.770793
v 0.295968 3.724936 -1.717085
v 0.295968 3.724936 -1.871143
v 0.421130 3.724936 -1.871143
v 0.421130 3.724936 -1.717085
v 0.421130 3.724936 -1.739938
v 0.295968 3.724936 -1.739938
v 0.295968 3.808528 -1.920820
v 0.421130 3.808528 -1.920820
v 0.295968 3.856838 -1.920820
v 0.421130 3.856838 -1.920820
v 0.295968 3.724936 -1.920820
v 0.421130 3.724936 -1.920820
v 0.295968 3.808528 -2.004460
v 0.421130 3.808528 -2.004460
v 0.295968 3.856838 -2.004460
v 0.421130 3.856838 -2.004460
v 0.295968 3.724936 -2.004460
v 0.421130 3.724936 -2.004460
v 0.421130 3.183608 -1.920820
v 0.421130 3.183608 -2.004460
v 0.295968 3.183608 -1.920820
v 0.295968 3.183608 -2.004460
v -0.421130 3.375198 -2.004460
v -0.421130 3.375198 -1.920820
v -0.295968 3.375198 -1.920820
v -0.295968 3.375198 -2.004460
v 0.421130 3.375198 -2.004460
v 0.421130 3.375198 -1.920820
v 0.295968 3.375198 -1.920820
v 0.295968 3.375198 -2.004460
v -0.421130 3.375198 -1.772570
v -0.421130 3.183608 -1.772570
v -0.295968 3.375198 -1.772570
v -0.295968 3.183608 -1.772570
v 0.421130 3.375198 -1.772570
v 0.421130 3.183608 -1.772570
v 0.295968 3.375198 -1.772570
v 0.295968 3.183608 -1.772570
v 0.296793 3.132010 -1.720006
v 0.296793 3.416464 -1.720006
v 0.296793 3.132010 -2.004460
v 0.296793 3.416464 -2.004460
v -0.296793 3.132010 -1.720006
v -0.296793 3.416464 -1.720006
v -0.296793 3.132010 -2.004460
v -0.296793 3.416464 -2.004460
v 0.296793 3.073097 -1.862233
v 0.296793 3.475376 -1.862233
v -0.296793 3.073097 -1.862233
v -0.296793 3.475376 -1.862233
v 0.296793 3.274237 -1.661094
v 0.296793 3.274237 -2.063373
v -0.296793 3.274237 -2.063373
v -0.296793 3.274237 -1.661094
v -0.296793 3.274237 -1.862233
v 0.296793 3.274237 -1.862233
v -0.226965 3.132010 -2.004460
v 0.226965 3.132010 -2.004460
v 0.226965 3.416464 -2.004460
v -0.226965 3.416464 -2.004460
v 0.226965 3.132010 -1.720006
v -0.226965 3.132010 -1.720006
v -0.226965 3.416464 -1.720006
v 0.226965 3.416464 -1.720006
v 0.226965 3.475376 -1.862233
v -0.226965 3.475376 -1.862233
v -0.226965 3.073097 -1.862233
v 0.226965 3.073097 -1.862233
v -0.226965 3.274237 -1.661094
v 0.226965 3.274237 -1.661094
v 0.226965 3.274237 -2.063373
v -0.226965 3.274237 -2.063373
v -0.226965 3.150603 -1.985868
v 0.226965 3.150603 -1.985868
v 0.226965 3.397871 -1.985868
v -0.226965 3.397871 -1.985868
v 0.226965 3.150603 -1.738599
v -0.226965 3.150603 -1.738599
v -0.226965 3.397871 -1.738599
v 0.226965 3.397871 -1.738599
v 0.226965 3.449082 -1.862233
v -0.226965 3.449082 -1.862233
v -0.226965 3.099392 -1.862233
v 0.226965 3.099392 -1.862233
v -0.226965 3.274237 -1.687388
v 0.226965 3.274237 -1.687388
v 0.226965 3.274237 -2.037078
v -0.226965 3.274237 -2.037078
vn 1.0000 -0.0000 -0.0000
vn -1.0000 -0.0000 -0.0000
vn -0.0000 -0.0000 -1.0000
vn -0.0000 -1.0000 -0.0000
vn -0.0000 1.0000 -0.0000
vn -0.0000 0.5383 -0.8428
vn -0.0000 -0.0000 1.0000
vn -0.0000 0.3827 0.9239
vn -0.0000 0.3827 -0.9239
vn -0.0000 -0.9239 -0.3827
vn -0.0000 0.9239 -0.3827
vn -0.0000 0.9239 0.3827
vn -0.0000 -0.9239 0.3827
vn -0.0000 -0.3827 -0.9239
vn -0.0000 -0.3827 0.9239
vn -0.0000 0.5383 0.8428
vt 0.500000 0.037085
vt 0.625000 0.037085
vt 0.625000 0.250000
vt 0.500000 0.250000
vt 0.500000 0.712915
vt 0.625000 0.712915
vt 0.625000 0.750000
vt 0.500000 0.750000
vt 0.625000 1.000000
vt 0.500000 1.000000
vt 0.125000 0.712915
vt 0.375000 0.712915
vt 0.375000 0.750000
vt 0.125000 0.750000
vt 0.875000 0.712915
vt 0.875000 0.750000
vt 0.625000 0.500000
vt 0.125000 0.500000
vt 0.375000 0.500000
vt 0.500000 0.500000
vt 0.500000 0.000000
vt 0.625000 0.000000
vt 0.875000 0.500000
vt 0.375000 0.000000
vt 0.375000 0.037085
vt 0.375000 1.000000
vt 0.375000 0.250000
vt 0.000000 0.000000
vt 0.500000 0.125000
vt 0.625000 0.125000
vt 0.500000 0.416667
vt 0.625000 0.416667
vt 0.500000 0.625000
vt 0.625000 0.625000
vt 0.500000 0.916667
vt 0.625000 0.916667
vt 0.291667 0.625000
vt 0.375000 0.625000
vt 0.291667 0.750000
vt 0.791667 0.625000
vt 0.875000 0.625000
vt 0.791667 0.750000
vt 0.791667 0.500000
vt 0.291667 0.500000
vt 0.375000 0.125000
vt 0.375000 0.916667
vt 0.375000 0.416667
vt 0.500000 0.333333
vt 0.375000 0.333333
vt 0.708333 0.625000
vt 0.708333 0.500000
vt 0.500000 0.833333
vt 0.375000 0.833333
vt 0.208333 0.500000
vt 0.208333 0.625000
vt 0.125000 0.625000
vt 0.625000 0.833333
vt 0.708333 0.750000
vt 0.208333 0.750000
vt 0.625000 0.333333
s 0
f 22/1/1 10/2/1 4/3/1 18/4/1
f 18/4/1 4/3/1 23/3/1 27/4/1
f 21/5/2 12/6/2 6/7/2 20/8/2
f 20/8/3 6/7/3 2/9/3 17/10/3
f 9/11/4 11/12/4 5/13/4 1/14/4
f 12/6/5 10/15/5 2/16/5 6/7/5
f 12/6/2 8/17/2 15/17/2 16/6/2
f 3/18/4 7/19/4 11/12/4 9/11/4
f 19/20/2 8/17/2 12/6/2 21/5/2
f 17/21/1 2/22/1 10/2/1 22/1/1
f 15/17/5 14/23/5 13/15/5 16/6/5
f 4/3/1 10/2/1 13/2/1 14/3/1
f 15/17/2 8/17/2 24/17/2 26/17/2
f 10/15/6 12/6/6 16/6/6 13/15/6
f 1/24/1 17/21/1 22/1/1 9/25/1
f 7/19/2 19/20/2 21/5/2 11/12/2
f 5/13/3 20/8/3 17/10/3 1/26/3
f 11/12/2 21/5/2 20/8/2 5/13/2
f 3/27/7 18/4/7 19/20/7 7/19/7
f 9/25/1 22/1/1 18/4/1 3/27/1
f 19/20/4 18/4/4 27/4/4 28/20/4
f 4/3/1 14/3/1 25/3/1 23/3/1
f 14/23/5 15/17/5 26/17/5 25/23/5
f 8/17/2 19/20/2 28/20/2 24/17/2
f 33/4/7 29/3/7 30/17/7 34/20/7
f 30/17/7 29/3/7 31/3/7 32/17/7
f 26/17/2 24/17/2 30/17/2 32/17/2
f 24/17/2 28/20/2 34/20/2 30/17/2
f 23/3/1 25/3/1 31/3/1 29/3/1
f 25/23/5 26/17/5 32/17/5 31/23/5
f 84/4/7 81/20/7 36/20/7 38/4/7
f 83/4/1 84/4/1 38/4/1 37/4/1
f 37/28/4 35/28/4 90/28/4 92/28/4
f 81/20/2 82/20/2 35/20/2 36/20/2
f 27/4/3 23/3/3 41/3/3 39/4/3
f 33/4/4 27/4/4 39/4/4 40/4/4
f 23/3/5 29/3/5 42/3/5 41/3/5
f 29/3/7 33/4/7 40/4/7 42/3/7
f 64/1/2 60/4/2 46/3/2 52/2/2
f 60/4/2 69/4/2 65/3/2 46/3/2
f 63/5/1 62/8/1 48/7/1 54/6/1
f 62/8/3 59/10/3 44/9/3 48/7/3
f 51/11/4 43/14/4 47/13/4 53/12/4
f 54/6/5 48/7/5 44/16/5 52/15/5
f 54/6/1 58/6/1 57/17/1 50/17/1
f 45/18/4 51/11/4 53/12/4 49/19/4
f 61/20/1 63/5/1 54/6/1 50/17/1
f 59/21/2 64/1/2 52/2/2 44/22/2
f 57/17/5 58/6/5 55/15/5 56/23/5
f 46/3/2 56/3/2 55/2/2 52/2/2
f 57/17/1 68/17/1 66/17/1 50/17/1
f 52/15/6 55/15/6 58/6/6 54/6/6
f 43/24/2 51/25/2 64/1/2 59/21/2
f 49/19/1 53/12/1 63/5/1 61/20/1
f 47/13/3 43/26/3 59/10/3 62/8/3
f 53/12/1 47/13/1 62/8/1 63/5/1
f 45/27/7 49/19/7 61/20/7 60/4/7
f 51/25/2 45/27/2 60/4/2 64/1/2
f 61/20/4 70/20/4 69/4/4 60/4/4
f 46/3/2 65/3/2 67/3/2 56/3/2
f 56/23/5 67/23/5 68/17/5 57/17/5
f 50/17/1 66/17/1 70/20/1 61/20/1
f 75/4/7 76/20/7 72/17/7 71/3/7
f 72/17/7 74/17/7 73/3/7 71/3/7
f 68/17/1 74/17/1 72/17/1 66/17/1
f 66/17/1 72/17/1 76/20/1 70/20/1
f 65/3/2 71/3/2 73/3/2 67/3/2
f 67/23/5 73/23/5 74/17/5 68/17/5
f 88/4/7 80/4/7 78/20/7 85/20/7
f 87/4/2 79/4/2 80/4/2 88/4/2
f 87/4/5 86/20/5 93/20/5 95/4/5
f 85/20/1 78/20/1 77/20/1 86/20/1
f 69/4/3 39/4/3 41/3/3 65/3/3
f 75/4/4 40/4/4 39/4/4 69/4/4
f 65/3/5 41/3/5 42/3/5 71/3/5
f 71/3/7 42/3/7 40/4/7 75/4/7
f 34/20/2 28/20/2 82/20/2 81/20/2
f 28/20/3 27/4/3 83/4/3 82/20/3
f 27/4/1 33/4/1 84/4/1 83/4/1
f 33/4/7 34/20/7 81/20/7 84/4/7
f 76/20/1 85/20/1 86/20/1 70/20/1
f 70/20/3 86/20/3 87/4/3 69/4/3
f 69/4/2 87/4/2 88/4/2 75/4/2
f 75/4/7 88/4/7 85/20/7 76/20/7
f 89/20/3 91/4/3 92/4/3 90/20/3
f 93/20/3 94/20/3 96/4/3 95/4/3
f 86/20/1 77/20/1 94/20/1 93/20/1
f 83/4/1 37/4/1 92/4/1 91/4/1
f 82/20/5 83/4/5 91/4/5 89/20/5
f 77/28/4 79/28/4 96/28/4 94/28/4
f 79/4/2 87/4/2 95/4/2 96/4/2
f 35/20/2 82/20/2 89/20/2 90/20/2
f 78/20/4 80/4/4 79/28/4 77/20/4
f 36/20/4 35/20/4 37/28/4 38/4/4
f 114/29/1 106/30/1 100/3/1 110/4/1
f 130/31/8 118/32/8 104/17/8 111/20/8
f 113/33/2 108/34/2 102/7/2 112/8/2
f 128/35/9 122/36/9 98/9/9 109/10/9
f 125/37/10 107/38/10 101/13/10 120/39/10
f 123/40/11 106/41/11 98/16/11 122/42/11
f 117/43/12 100/23/12 106/41/12 123/40/12
f 115/44/13 103/19/13 107/38/13 125/37/13
f 111/20/2 104/17/2 108/34/2 113/33/2
f 109/21/1 98/22/1 106/30/1 114/29/1
f 97/24/1 109/21/1 114/29/1 105/45/1
f 103/19/2 111/20/2 113/33/2 107/38/2
f 119/46/14 128/35/14 109/10/14 97/26/14
f 107/38/2 113/33/2 112/8/2 101/13/2
f 115/47/15 130/31/15 111/20/15 103/19/15
f 105/45/1 114/29/1 110/4/1 99/27/1
f 99/27/15 110/4/15 129/48/15 116/49/15
f 124/50/1 118/51/1 134/51/1 140/50/1
f 101/13/14 112/8/14 127/52/14 120/53/14
f 122/36/2 128/35/2 144/35/2 138/36/2
f 99/18/13 116/54/13 126/55/13 105/56/13
f 115/44/1 125/37/1 141/37/1 131/44/1
f 104/17/12 118/51/12 124/50/12 108/34/12
f 127/52/1 121/57/1 137/57/1 143/52/1
f 108/34/11 124/50/11 121/58/11 102/7/11
f 126/55/2 116/54/2 132/54/2 142/55/2
f 105/56/10 126/55/10 119/59/10 97/14/10
f 125/37/1 120/39/1 136/39/1 141/37/1
f 112/8/9 102/7/9 121/57/9 127/52/9
f 128/35/2 119/46/2 135/46/2 144/35/2
f 110/4/8 100/3/8 117/60/8 129/48/8
f 119/59/2 126/55/2 142/55/2 135/59/2
f 132/49/15 145/48/15 146/31/15 131/47/15
f 136/53/14 143/52/14 144/35/14 135/46/14
f 132/54/13 131/44/13 141/37/13 142/55/13
f 134/51/12 133/43/12 139/40/12 140/50/12
f 140/50/11 139/40/11 138/42/11 137/58/11
f 142/55/10 141/37/10 136/39/10 135/59/10
f 143/52/9 137/57/9 138/36/9 144/35/9
f 145/48/8 133/60/8 134/32/8 146/31/8
f 129/48/2 117/60/2 133/60/2 145/48/2
f 117/43/2 123/40/2 139/40/2 133/43/2
f 116/49/2 129/48/2 145/48/2 132/49/2
f 118/32/1 130/31/1 146/31/1 134/32/1
f 121/58/1 124/50/1 140/50/1 137/58/1
f 130/31/1 115/47/1 131/47/1 146/31/1
f 123/40/2 122/42/2 138/42/2 139/40/2
f 120/53/1 127/52/1 143/52/1 136/53/1
f 168/1/1 164/4/1 150/3/1 156/2/1
f 164/4/1 173/4/1 169/3/1 150/3/1
f 167/5/2 166/8/2 152/7/2 158/6/2
f 166/8/7 163/10/7 148/9/7 152/7/7
f 155/11/4 147/14/4 151/13/4 157/12/4
f 158/6/5 152/7/5 148/16/5 156/15/5
f 158/6/2 162/6/2 161/17/2 154/17/2
f 149/18/4 155/11/4 157/12/4 153/19/4
f 165/20/2 167/5/2 158/6/2 154/17/2
f 163/21/1 168/1/1 156/2/1 148/22/1
f 161/17/5 162/6/5 159/15/5 160/23/5
f 150/3/1 160/3/1 159/2/1 156/2/1
f 161/17/2 172/17/2 170/17/2 154/17/2
f 156/15/16 159/15/16 162/6/16 158/6/16
f 147/24/1 155/25/1 168/1/1 163/21/1
f 153/19/2 157/12/2 167/5/2 165/20/2
f 151/13/7 147/26/7 163/10/7 166/8/7
f 157/12/2 151/13/2 166/8/2 167/5/2
f 149/27/3 153/19/3 165/20/3 164/4/3
f 155/25/1 149/27/1 164/4/1 168/1/1
f 165/20/4 174/20/4 173/4/4 164/4/4
f 150/3/1 169/3/1 171/3/1 160/3/1
f 160/23/5 171/23/5 172/17/5 161/17/5
f 154/17/2 170/17/2 174/20/2 165/20/2
f 179/4/3 180/20/3 176/17/3 175/3/3
f 176/17/3 178/17/3 177/3/3 175/3/3
f 172/17/2 178/17/2 176/17/2 170/17/2
f 170/17/2 176/17/2 180/20/2 174/20/2
f 169/3/1 175/3/1 177/3/1 171/3/1
f 171/23/5 177/23/5 178/17/5 172/17/5
f 230/4/3 184/4/3 182/20/3 227/20/3
f 229/4/1 183/4/1 184/4/1 230/4/1
f 183/28/4 238/28/4 236/28/4 181/28/4
f 227/20/2 182/20/2 181/20/2 228/20/2
f 173/4/7 185/4/7 187/3/7 169/3/7
f 179/4/4 186/4/4 185/4/4 173/4/4
f 169/3/5 187/3/5 188/3/5 175/3/5
f 175/3/3 188/3/3 186/4/3 179/4/3
f 210/1/2 198/2/2 192/3/2 206/4/2
f 206/4/2 192/3/2 211/3/2 215/4/2
f 209/5/1 200/6/1 194/7/1 208/8/1
f 208/8/7 194/7/7 190/9/7 205/10/7
f 197/11/4 199/12/4 193/13/4 189/14/4
f 200/6/5 198/15/5 190/16/5 194/7/5
f 200/6/1 196/17/1 203/17/1 204/6/1
f 191/18/4 195/19/4 199/12/4 197/11/4
f 207/20/1 196/17/1 200/6/1 209/5/1
f 205/21/2 190/22/2 198/2/2 210/1/2
f 203/17/5 202/23/5 201/15/5 204/6/5
f 192/3/2 198/2/2 201/2/2 202/3/2
f 203/17/1 196/17/1 212/17/1 214/17/1
f 198/15/16 200/6/16 204/6/16 201/15/16
f 189/24/2 205/21/2 210/1/2 197/25/2
f 195/19/1 207/20/1 209/5/1 199/12/1
f 193/13/7 208/8/7 205/10/7 189/26/7
f 199/12/1 209/5/1 208/8/1 193/13/1
f 191/27/3 206/4/3 207/20/3 195/19/3
f 197/25/2 210/1/2 206/4/2 191/27/2
f 207/20/4 206/4/4 215/4/4 216/20/4
f 192/3/2 202/3/2 213/3/2 211/3/2
f 202/23/5 203/17/5 214/17/5 213/23/5
f 196/17/1 207/20/1 216/20/1 212/17/1
f 221/4/3 217/3/3 218/17/3 222/20/3
f 218/17/3 217/3/3 219/3/3 220/17/3
f 214/17/1 212/17/1 218/17/1 220/17/1
f 212/17/1 216/20/1 222/20/1 218/17/1
f 211/3/2 213/3/2 219/3/2 217/3/2
f 213/23/5 214/17/5 220/17/5 219/23/5
f 234/4/3 231/20/3 224/20/3 226/4/3
f 233/4/2 234/4/2 226/4/2 225/4/2
f 233/4/5 241/4/5 239/20/5 232/20/5
f 231/20/1 232/20/1 223/20/1 224/20/1
f 215/4/7 211/3/7 187/3/7 185/4/7
f 221/4/4 215/4/4 185/4/4 186/4/4
f 211/3/5 217/3/5 188/3/5 187/3/5
f 217/3/3 221/4/3 186/4/3 188/3/3
f 180/20/2 227/20/2 228/20/2 174/20/2
f 174/20/7 228/20/7 229/4/7 173/4/7
f 173/4/1 229/4/1 230/4/1 179/4/1
f 179/4/3 230/4/3 227/20/3 180/20/3
f 222/20/1 216/20/1 232/20/1 231/20/1
f 216/20/7 215/4/7 233/4/7 232/20/7
f 215/4/2 221/4/2 234/4/2 233/4/2
f 221/4/3 222/20/3 231/20/3 234/4/3
f 235/20/7 236/20/7 238/4/7 237/4/7
f 239/20/7 241/4/7 242/4/7 240/20/7
f 232/20/1 239/20/1 240/20/1 223/20/1
f 229/4/1 237/4/1 238/4/1 183/4/1
f 228/20/5 235/20/5 237/4/5 229/4/5
f 223/28/4 240/28/4 242/28/4 225/28/4
f 225/4/2 242/4/2 241/4/2 233/4/2
f 181/20/2 236/20/2 235/20/2 228/20/2
f 224/20/4 223/20/4 225/28/4 226/4/4
f 182/20/4 184/4/4 183/28/4 181/20/4
f 260/29/1 256/4/1 246/3/1 252/30/1
f 276/31/9 257/20/9 250/17/9 264/32/9
f 259/33/2 258/8/2 248/7/2 254/34/2
f 274/35/8 255/10/8 244/9/8 268/36/8
f 271/37/13 266/39/13 247/13/13 253/38/13
f 269/40/12 268/42/12 244/16/12 252/41/12
f 263/43/11 269/40/11 252/41/11 246/23/11
f 261/44/10 271/37/10 253/38/10 249/19/10
f 257/20/2 259/33/2 254/34/2 250/17/2
f 255/21/1 260/29/1 252/30/1 244/22/1
f 243/24/1 251/45/1 260/29/1 255/21/1
f 249/19/2 253/38/2 259/33/2 257/20/2
f 265/46/15 243/26/15 255/10/15 274/35/15
f 253/38/2 247/13/2 258/8/2 259/33/2
f 261/47/14 249/19/14 257/20/14 276/31/14
f 251/45/1 245/27/1 256/4/1 260/29/1
f 245/27/14 262/49/14 275/48/14 256/4/14
f 270/50/1 286/50/1 280/51/1 264/51/1
f 247/13/15 266/53/15 273/52/15 258/8/15
f 268/36/2 284/36/2 290/35/2 274/35/2
f 245/18/10 251/56/10 272/55/10 262/54/10
f 261/44/1 277/44/1 287/37/1 271/37/1
f 250/17/11 254/34/11 270/50/11 264/51/11
f 273/52/1 289/52/1 283/57/1 267/57/1
f 254/34/12 248/7/12 267/58/12 270/50/12
f 272/55/2 288/55/2 278/54/2 262/54/2
f 251/56/13 243/14/13 265/59/13 272/55/13
f 271/37/1 287/37/1 282/39/1 266/39/1
f 258/8/8 273/52/8 267/57/8 248/7/8
f 274/35/2 290/35/2 281/46/2 265/46/2
f 256/4/9 275/48/9 263/60/9 246/3/9
f 265/59/2 281/59/2 288/55/2 272/55/2
f 278/49/14 277/47/14 292/31/14 291/48/14
f 282/53/15 281/46/15 290/35/15 289/52/15
f 278/54/10 288/55/10 287/37/10 277/44/10
f 280/51/11 286/50/11 285/40/11 279/43/11
f 286/50/12 283/58/12 284/42/12 285/40/12
f 288/55/13 281/59/13 282/39/13 287/37/13
f 289/52/8 290/35/8 284/36/8 283/57/8
f 291/48/9 292/31/9 280/32/9 279/60/9
f 275/48/2 291/48/2 279/60/2 263/60/2
f 263/43/2 279/43/2 285/40/2 269/40/2
f 262/49/2 278/49/2 291/48/2 275/48/2
f 264/32/1 280/32/1 292/31/1 276/31/1
f 267/58/1 283/58/1 286/50/1 270/50/1
f 276/31/1 292/31/1 277/47/1 261/47/1
f 269/40/2 285/40/2 284/42/2 268/42/2
f 266/53/1 282/53/1 289/52/1 273/52/1
