# Blender 5.2.1 LTS
# www.blender.org
mtllib PrisonRailCranePrt03.mtl
o PrisonRailCranePrt03
v -1.884916 1.793370 1.205748
v -1.884916 2.965779 1.205748
v -1.884916 1.793370 1.303372
v -1.884916 2.965779 1.303372
v -2.135221 1.793370 1.205748
v -2.135221 2.965779 1.205748
v -2.135221 1.793370 1.303372
v -2.135221 2.965779 1.303372
v -1.195244 1.005342 1.187854
v -1.195244 2.235829 1.187854
v -1.195244 1.005342 1.321266
v -1.195244 2.235829 1.321266
v -1.785282 2.235829 1.187854
v -1.785282 2.235829 1.321266
v -1.437693 1.005342 1.187854
v -1.785282 1.352931 1.187854
v -1.785282 1.352931 1.321266
v -1.437693 1.005342 1.321266
v -1.195244 1.005342 1.289274
v -1.195244 1.005342 1.219847
v -1.195244 2.235829 1.219847
v -1.195244 2.235829 1.289274
v -1.785282 2.235829 1.289274
v -1.785282 2.235829 1.219847
v -1.437693 1.005342 1.219847
v -1.437693 1.005342 1.289274
v -1.785282 1.352931 1.289274
v -1.785282 1.352931 1.219847
v -1.785282 1.625973 1.321266
v -1.785282 1.625973 1.187854
v -1.785282 1.625973 1.289274
v -1.785282 1.625973 1.219847
v -1.490263 2.235829 1.321266
v -1.490263 2.235829 1.187854
v -1.490263 2.235829 1.289274
v -1.490263 2.235829 1.219847
v -1.195244 1.625973 1.187854
v -1.195244 1.625973 1.321266
v -1.195244 1.625973 1.219847
v -1.195244 1.625973 1.289274
v -1.463978 1.625973 1.321266
v -1.463978 1.625973 1.187854
v -1.490263 1.625973 1.289274
v -1.490263 1.625973 1.219847
v -1.655920 2.049784 1.222533
v -1.564698 2.141006 1.222533
v -1.655920 2.049784 1.286587
v -1.564698 2.141006 1.286587
v -1.747142 2.141006 1.222533
v -1.655920 2.232228 1.222533
v -1.747142 2.141006 1.286587
v -1.655920 2.232228 1.286587
v -1.907475 2.483784 1.286587
v -1.998697 2.392562 1.286587
v -1.998697 2.392562 1.222533
v -1.907475 2.483784 1.222533
v -1.655920 1.644136 1.222533
v -1.564698 1.735358 1.222533
v -1.655920 1.644136 1.286587
v -1.564698 1.735358 1.286587
v -1.747142 1.735358 1.222533
v -1.655920 1.826580 1.222533
v -1.747142 1.735358 1.286587
v -1.655920 1.826580 1.286587
v -1.907475 2.078136 1.286587
v -1.998697 1.986914 1.286587
v -1.998697 1.986914 1.222533
v -1.907475 2.078136 1.222533
v -1.884916 1.793370 -1.205748
v -1.884916 2.965779 -1.205748
v -1.884916 1.793370 -1.303372
v -1.884916 2.965779 -1.303372
v -2.135221 1.793370 -1.205748
v -2.135221 2.965779 -1.205748
v -2.135221 1.793370 -1.303372
v -2.135221 2.965779 -1.303372
v -1.195244 1.005342 -1.187854
v -1.195244 2.235829 -1.187854
v -1.195244 1.005342 -1.321266
v -1.195244 2.235829 -1.321266
v -1.785282 2.235829 -1.187854
v -1.785282 2.235829 -1.321266
v -1.437693 1.005342 -1.187854
v -1.785282 1.352931 -1.187854
v -1.785282 1.352931 -1.321266
v -1.437693 1.005342 -1.321266
v -1.195244 1.005342 -1.289274
v -1.195244 1.005342 -1.219847
v -1.195244 2.235829 -1.219847
v -1.195244 2.235829 -1.289274
v -1.785282 2.235829 -1.289274
v -1.785282 2.235829 -1.219847
v -1.437693 1.005342 -1.219847
v -1.437693 1.005342 -1.289274
v -1.785282 1.352931 -1.289274
v -1.785282 1.352931 -1.219847
v -1.785282 1.625973 -1.321266
v -1.785282 1.625973 -1.187854
v -1.785282 1.625973 -1.289274
v -1.785282 1.625973 -1.219847
v -1.490263 2.235829 -1.321266
v -1.490263 2.235829 -1.187854
v -1.490263 2.235829 -1.289274
v -1.490263 2.235829 -1.219847
v -1.195244 1.625973 -1.187854
v -1.195244 1.625973 -1.321266
v -1.195244 1.625973 -1.219847
v -1.195244 1.625973 -1.289274
v -1.463978 1.625973 -1.321266
v -1.463978 1.625973 -1.187854
v -1.490263 1.625973 -1.289274
v -1.490263 1.625973 -1.219847
v -1.655920 2.049784 -1.222533
v -1.564698 2.141006 -1.222533
v -1.655920 2.049784 -1.286587
v -1.564698 2.141006 -1.286587
v -1.747142 2.141006 -1.222533
v -1.655920 2.232228 -1.222533
v -1.747142 2.141006 -1.286587
v -1.655920 2.232228 -1.286587
v -1.907475 2.483784 -1.286587
v -1.998697 2.392562 -1.286587
v -1.998697 2.392562 -1.222533
v -1.907475 2.483784 -1.222533
v -1.655920 1.644136 -1.222533
v -1.564698 1.735358 -1.222533
v -1.655920 1.644136 -1.286587
v -1.564698 1.735358 -1.286587
v -1.747142 1.735358 -1.222533
v -1.655920 1.826580 -1.222533
v -1.747142 1.735358 -1.286587
v -1.655920 1.826580 -1.286587
v -1.907475 2.078136 -1.286587
v -1.998697 1.986914 -1.286587
v -1.998697 1.986914 -1.222533
v -1.907475 2.078136 -1.222533
vn 1.0000 -0.0000 -0.0000
vn -0.0000 -0.0000 1.0000
vn -1.0000 -0.0000 -0.0000
vn -0.0000 -0.0000 -1.0000
vn -0.0000 -1.0000 -0.0000
vn -0.0000 1.0000 -0.0000
vn -0.7071 -0.7071 -0.0000
vn 0.7071 -0.7071 -0.0000
vn 0.7071 0.7071 -0.0000
vn -0.7071 0.7071 -0.0000
vt 0.000000 0.500000
vt 0.000000 0.087967
vt 0.034309 0.087967
vt 0.034309 0.500000
vt 0.440286 0.432444
vt 0.440287 0.844476
vt 0.352319 0.844476
vt 0.352319 0.432444
vt 0.034309 0.587967
vt 0.034309 1.000000
vt 0.000000 1.000000
vt 0.000000 0.587967
vt 0.528254 0.432444
vt 0.528254 0.844476
vt 0.440287 0.844476
vt 0.440287 0.432444
vt 0.034309 0.000000
vt 0.000000 0.000000
vt 0.825176 0.218115
vt 0.825176 0.432444
vt 0.813933 0.432444
vt 0.813933 0.218115
vt 0.586384 0.536125
vt 0.586384 0.639807
vt 0.575140 0.639807
vt 0.575140 0.536125
vt 0.539497 0.605200
vt 0.528254 0.605200
vt 0.528254 0.432443
vt 0.539497 0.432443
vt 0.563897 0.690406
vt 0.563897 0.605200
vt 0.575140 0.605200
vt 0.575140 0.690406
vt 0.363563 0.218115
vt 0.363563 0.432444
vt 0.352319 0.432444
vt 0.352319 0.218115
vt 0.813933 0.432444
vt 0.710251 0.432444
vt 0.701013 0.218115
vt 0.813933 0.218115
vt 0.502887 0.432444
vt 0.399206 0.432444
vt 0.399206 0.218115
vt 0.512125 0.218115
vt 0.387962 0.432444
vt 0.387962 0.218115
vt 0.137991 0.238728
vt 0.034309 0.238728
vt 0.034309 0.214328
vt 0.137991 0.214328
vt 0.528254 0.690406
vt 0.539497 0.690406
vt 0.563897 0.432443
vt 0.575140 0.432443
vt 0.622027 0.536125
vt 0.622027 0.639807
vt 0.610783 0.639807
vt 0.610783 0.536125
vt 0.860819 0.218115
vt 0.860819 0.432444
vt 0.849576 0.432444
vt 0.849576 0.218115
vt 0.387962 0.122157
vt 0.363563 0.122157
vt 0.399206 0.122157
vt 0.352319 0.122157
vt 0.352319 0.214328
vt 0.352319 0.238728
vt 0.622027 0.432443
vt 0.610783 0.432443
vt 0.586384 0.432443
vt 0.575140 0.432443
vt 0.606569 0.218115
vt 0.606569 -0.000000
vt 0.691776 -0.000000
vt 0.606569 0.432444
vt 0.521363 -0.000000
vt 0.849576 -0.000000
vt 0.825176 -0.000000
vt 0.860819 -0.000000
vt 0.813933 -0.000000
vt 0.813933 0.122157
vt 0.034309 0.453056
vt 0.137991 0.453056
vt 0.034309 -0.000000
vt 0.137991 -0.000000
vt 0.186835 0.621499
vt 0.154775 0.589440
vt 0.170693 0.573522
vt 0.202752 0.605582
vt 0.202752 0.541463
vt 0.234811 0.573522
vt 0.122716 0.621499
vt 0.154775 0.653558
vt 0.066368 0.741965
vt 0.034309 0.709906
vt 0.234811 0.637641
vt 0.218894 0.653558
vt 0.138634 0.541463
vt 0.122716 0.557381
vt 0.345729 0.623421
vt 0.345729 0.668760
vt 0.323218 0.668760
vt 0.323218 0.623421
vt 0.323218 0.726048
vt 0.307301 0.741965
vt 0.034309 0.468974
vt 0.050227 0.453056
vt 0.291159 0.453056
vt 0.323218 0.485115
vt 0.644538 0.602809
vt 0.644538 0.648147
vt 0.622027 0.648147
vt 0.622027 0.602809
vt 0.667365 0.432444
vt 0.712704 0.432444
vt 0.712704 0.477782
vt 0.667365 0.477782
vt 0.622027 0.477782
vt 0.667365 0.477782
vt 0.667365 0.602809
vt 0.622027 0.602808
vt 0.622027 0.432444
vt 0.667365 0.432444
vt 0.345729 0.453056
vt 0.345729 0.498395
vt 0.323218 0.498395
vt 0.323218 0.453056
vt 0.735215 0.432444
vt 0.735215 0.477782
vt 0.667049 0.602809
vt 0.667049 0.648147
vt 0.644538 0.602809
vt 0.345729 0.623421
vt 0.323218 0.623421
vt 0.735215 0.602809
vt 0.712704 0.602809
vt 0.667365 0.602809
s 0
usemtl M_MetalInterface
f 1/1/1 2/2/1 4/3/1 3/4/1
f 3/5/2 4/6/2 8/7/2 7/8/2
f 7/9/3 8/10/3 6/11/3 5/12/3
f 5/13/4 6/14/4 2/15/4 1/16/4
f 3/4/5 7/9/5 5/12/5 1/1/5
f 8/17/6 4/3/6 2/2/6 6/18/6
f 40/19/1 22/20/1 12/21/1 38/22/1
f 36/23/6 21/24/6 10/25/6 34/26/6
f 26/27/7 18/28/7 17/29/7 27/30/7
f 20/31/5 25/32/5 15/33/5 9/34/5
f 32/35/3 24/36/3 13/37/3 30/38/3
f 13/39/4 34/40/4 42/41/4 30/42/4
f 33/43/2 14/44/2 29/45/2 41/46/2
f 29/45/3 14/44/3 23/47/3 31/48/3
f 44/49/6 32/50/6 31/51/6 43/52/6
f 11/53/5 18/28/5 26/27/5 19/54/5
f 19/54/5 26/27/5 25/32/5 20/31/5
f 15/33/7 25/32/7 28/55/7 16/56/7
f 25/32/7 26/27/7 27/30/7 28/55/7
f 33/57/6 12/58/6 22/59/6 35/60/6
f 35/60/6 22/59/6 21/24/6 36/23/6
f 37/61/1 10/62/1 21/63/1 39/64/1
f 39/64/1 21/63/1 22/20/1 40/19/1
f 27/65/3 31/48/3 32/35/3 28/66/3
f 17/67/3 29/45/3 31/48/3 27/65/3
f 28/66/3 32/35/3 30/38/3 16/68/3
f 35/69/3 36/70/3 44/49/3 43/52/3
f 14/71/6 33/57/6 35/60/6 23/72/6
f 24/73/6 36/23/6 34/26/6 13/74/6
f 37/75/4 9/76/4 15/77/4 42/41/4
f 38/75/2 12/78/2 33/43/2 41/46/2
f 11/76/2 38/75/2 41/46/2 18/79/2
f 10/78/4 37/75/4 42/41/4 34/40/4
f 20/80/1 39/64/1 40/19/1 19/81/1
f 9/82/1 37/61/1 39/64/1 20/80/1
f 19/81/1 40/19/1 38/22/1 11/83/1
f 18/79/2 41/46/2 29/45/2 17/67/2
f 15/77/4 16/84/4 30/42/4 42/41/4
f 24/85/2 32/50/2 44/49/2 36/86/2
f 23/87/4 35/88/4 43/52/4 31/51/4
f 45/89/8 46/90/8 48/91/8 47/92/8
f 47/92/2 48/91/2 52/93/2 51/94/2
f 50/95/4 49/96/4 55/97/4 56/98/4
f 49/96/4 50/95/4 46/90/4 45/89/4
f 47/92/7 51/99/7 49/100/7 45/89/7
f 52/101/9 48/91/9 46/90/9 50/102/9
f 54/103/10 53/104/10 56/105/10 55/106/10
f 49/100/7 51/99/7 54/107/7 55/108/7
f 52/101/9 50/102/9 56/109/9 53/110/9
f 51/94/2 52/93/2 53/111/2 54/112/2
f 57/113/8 58/114/8 60/115/8 59/116/8
f 59/117/2 60/118/2 64/119/2 63/120/2
f 62/121/4 61/122/4 67/123/4 68/124/4
f 61/122/4 62/121/4 58/125/4 57/126/4
f 59/127/7 63/128/7 61/129/7 57/130/7
f 64/119/9 60/118/9 58/131/9 62/132/9
f 66/133/10 65/134/10 68/114/10 67/135/10
f 61/129/7 63/128/7 66/136/7 67/137/7
f 64/119/9 62/132/9 68/138/9 65/139/9
f 63/120/2 64/119/2 65/139/2 66/140/2
f 69/1/1 71/4/1 72/3/1 70/2/1
f 71/5/4 75/8/4 76/7/4 72/6/4
f 75/9/3 73/12/3 74/11/3 76/10/3
f 73/13/2 69/16/2 70/15/2 74/14/2
f 71/4/5 69/1/5 73/12/5 75/9/5
f 76/17/6 74/18/6 70/2/6 72/3/6
f 108/19/1 106/22/1 80/21/1 90/20/1
f 104/23/6 102/26/6 78/25/6 89/24/6
f 94/27/7 95/30/7 85/29/7 86/28/7
f 88/31/5 77/34/5 83/33/5 93/32/5
f 100/35/3 98/38/3 81/37/3 92/36/3
f 81/39/2 98/42/2 110/41/2 102/40/2
f 101/43/4 109/46/4 97/45/4 82/44/4
f 97/45/3 99/48/3 91/47/3 82/44/3
f 112/49/6 111/52/6 99/51/6 100/50/6
f 79/53/5 87/54/5 94/27/5 86/28/5
f 87/54/5 88/31/5 93/32/5 94/27/5
f 83/33/7 84/56/7 96/55/7 93/32/7
f 93/32/7 96/55/7 95/30/7 94/27/7
f 101/57/6 103/60/6 90/59/6 80/58/6
f 103/60/6 104/23/6 89/24/6 90/59/6
f 105/61/1 107/64/1 89/63/1 78/62/1
f 107/64/1 108/19/1 90/20/1 89/63/1
f 95/65/3 96/66/3 100/35/3 99/48/3
f 85/67/3 95/65/3 99/48/3 97/45/3
f 96/66/3 84/68/3 98/38/3 100/35/3
f 103/69/3 111/52/3 112/49/3 104/70/3
f 82/71/6 91/72/6 103/60/6 101/57/6
f 92/73/6 81/74/6 102/26/6 104/23/6
f 105/75/2 110/41/2 83/77/2 77/76/2
f 106/75/4 109/46/4 101/43/4 80/78/4
f 79/76/4 86/79/4 109/46/4 106/75/4
f 78/78/2 102/40/2 110/41/2 105/75/2
f 88/80/1 87/81/1 108/19/1 107/64/1
f 77/82/1 88/80/1 107/64/1 105/61/1
f 87/81/1 79/83/1 106/22/1 108/19/1
f 86/79/4 85/67/4 97/45/4 109/46/4
f 83/77/2 110/41/2 98/42/2 84/84/2
f 92/85/4 104/86/4 112/49/4 100/50/4
f 91/87/2 99/51/2 111/52/2 103/88/2
f 113/89/8 115/92/8 116/91/8 114/90/8
f 115/92/4 119/94/4 120/93/4 116/91/4
f 118/95/2 124/98/2 123/97/2 117/96/2
f 117/96/2 113/89/2 114/90/2 118/95/2
f 115/92/7 113/89/7 117/100/7 119/99/7
f 120/101/9 118/102/9 114/90/9 116/91/9
f 122/103/10 123/106/10 124/105/10 121/104/10
f 117/100/7 123/108/7 122/107/7 119/99/7
f 120/101/9 121/110/9 124/109/9 118/102/9
f 119/94/4 122/112/4 121/111/4 120/93/4
f 125/113/8 127/116/8 128/115/8 126/114/8
f 127/117/4 131/120/4 132/119/4 128/118/4
f 130/121/2 136/124/2 135/123/2 129/122/2
f 129/122/2 125/126/2 126/125/2 130/121/2
f 127/127/7 125/130/7 129/129/7 131/128/7
f 132/119/9 130/132/9 126/131/9 128/118/9
f 134/133/10 135/135/10 136/114/10 133/134/10
f 129/129/7 135/137/7 134/136/7 131/128/7
f 132/119/9 133/139/9 136/138/9 130/132/9
f 131/120/4 134/140/4 133/139/4 132/119/4
