# Blender 5.2.2 LTS
# www.blender.org
mtllib PrisonRailDoorPrt_01a.mtl
o PrisonRailDoorPrt_01a
v 0.054176 0.352920 1.102600
v -0.054176 0.352920 1.102600
v -0.054176 0.312996 -0.000139
v 0.054176 0.312996 -0.000139
v 0.054176 3.433630 -0.000139
v -0.054176 3.433630 -0.000139
v 0.054176 3.393706 1.102600
v -0.054176 3.393706 1.102600
v -0.054176 0.352920 0.350008
v 0.054176 0.352920 0.350008
v -0.054176 3.393706 0.350007
v 0.054176 3.393706 0.350007
v -0.054176 0.312996 1.142566
v 0.054176 0.312996 1.142566
v -0.054176 0.312996 0.310041
v 0.054176 0.312996 0.310041
v 0.054176 3.433630 1.142566
v -0.054176 3.433630 1.142566
v -0.054176 3.433630 0.310041
v 0.054176 3.433630 0.310041
vn 1.0000 -0.0000 -0.0000
vn -0.0000 -1.0000 -0.0000
vn -0.0000 1.0000 -0.0000
vn -0.0000 -0.0000 1.0000
vn -1.0000 -0.0000 -0.0000
vn -0.0000 -0.0000 -1.0000
vt 0.266501 1.000000
vt 0.266501 0.000000
vt 0.365793 0.000000
vt 0.365793 1.000000
vt 0.961972 0.481827
vt 0.923574 0.481827
vt 0.923574 0.240914
vt 0.961972 0.240914
vt 0.923574 0.465086
vt 0.923574 0.731587
vt 0.885177 0.731587
vt 0.885177 0.465086
vt 0.923574 0.099292
vt 0.923574 0.365794
vt 0.885177 0.365794
vt 0.885177 0.099292
vt 0.846780 0.974412
vt 0.808382 0.974412
vt 0.808382 0.000000
vt 0.846780 0.000000
vt 0.718793 0.987206
vt 0.718794 0.012794
vt 0.731587 0.000000
vt 0.731587 1.000000
vt 0.365794 0.000000
vt 0.465086 0.000000
vt 0.465086 1.000000
vt 0.365794 1.000000
vt 0.923574 -0.000000
vt 0.885177 -0.000000
vt 0.923574 0.365794
vt 0.885177 0.365794
vt 0.012794 0.012794
vt 0.012794 0.987206
vt 0.000000 1.000000
vt -0.000000 0.000000
vt 0.477880 0.012794
vt 0.477880 0.987206
vt 0.253707 0.012794
vt 0.253707 0.987206
vt 0.923574 -0.000000
vt 0.961972 -0.000000
vt 0.961972 0.240914
vt 0.923574 0.240914
vt 0.808382 1.000000
vt 0.769985 1.000000
vt 0.769985 0.000000
vt 0.808382 0.000000
vt 0.846780 0.974412
vt 0.846780 0.000000
vt 0.885177 0.000000
vt 0.885177 0.974412
vt 0.769985 0.000000
vt 0.769985 1.000000
vt 0.731587 1.000000
vt 0.731587 0.000000
s 0
usemtl M_MetalInterface
f 20/1/1 16/2/1 4/3/1 5/4/1
f 11/5/2 12/6/2 7/7/2 8/8/2
f 19/9/3 18/10/3 17/11/3 20/12/3
f 16/13/2 14/14/2 13/15/2 15/16/2
f 12/17/4 11/18/4 9/19/4 10/20/4
f 8/21/5 2/22/5 13/23/5 18/24/5
f 3/25/5 15/26/5 19/27/5 6/28/5
f 4/29/2 16/13/2 15/16/2 3/30/2
f 6/31/3 19/9/3 20/12/3 5/32/3
f 1/33/1 7/34/1 17/35/1 14/36/1
f 9/37/5 11/38/5 19/27/5 15/26/5
f 2/22/5 9/37/5 15/26/5 13/23/5
f 10/39/1 1/33/1 14/36/1 16/2/1
f 11/38/5 8/21/5 18/24/5 19/27/5
f 7/34/1 12/40/1 20/1/1 17/35/1
f 12/40/1 10/39/1 16/2/1 20/1/1
f 2/41/3 1/42/3 10/43/3 9/44/3
f 17/45/4 18/46/4 13/47/4 14/48/4
f 7/49/6 1/50/6 2/51/6 8/52/6
f 3/53/6 6/54/6 5/55/6 4/56/6
