# Blender 5.2.0 LTS
# www.blender.org
mtllib RebarEdge.mtl
o RebarEdge
v -2.400719 -0.393515 0.836784
v -2.389123 -0.390431 0.826926
v -2.373923 -0.389864 0.823796
v -2.359192 -0.391968 0.828235
v -2.348875 -0.396179 0.839051
v -2.345739 -0.401368 0.853348
v -2.350623 -0.406144 0.867294
v -2.362218 -0.409229 0.877152
v -2.377419 -0.409795 0.880281
v -2.392150 -0.407691 0.875843
v -2.402466 -0.403481 0.865026
v -2.405603 -0.398292 0.850729
v -2.336237 -0.070260 1.109899
v -2.323436 -0.061875 1.107255
v -2.307954 -0.060737 1.106829
v -2.293941 -0.067151 1.108734
v -2.285149 -0.079397 1.112461
v -2.283936 -0.094195 1.117011
v -2.290626 -0.107580 1.121164
v -2.303427 -0.115965 1.123808
v -2.318909 -0.117103 1.124234
v -2.332922 -0.110689 1.122328
v -2.341714 -0.098442 1.118602
v -2.342927 -0.083644 1.114052
v -2.336237 -0.070260 1.109899
v -2.323436 -0.061875 1.107255
v -2.307954 -0.060737 1.106829
v -2.293941 -0.067151 1.108734
v -2.285149 -0.079397 1.112461
v -2.283936 -0.094195 1.117011
v -2.290626 -0.107580 1.121164
v -2.303427 -0.115965 1.123808
v -2.318909 -0.117103 1.124234
v -2.332922 -0.110689 1.122328
v -2.341714 -0.098442 1.118602
v -2.342927 -0.083644 1.114052
v -2.336618 -0.106854 0.990904
v -2.323976 -0.099103 0.986291
v -2.308669 -0.098658 0.983712
v -2.294798 -0.105638 0.983858
v -2.286079 -0.118173 0.986689
v -2.284850 -0.132904 0.991447
v -2.291438 -0.145884 0.996856
v -2.304079 -0.153635 1.001469
v -2.319386 -0.154080 1.004048
v -2.333257 -0.147100 1.003902
v -2.341976 -0.134565 1.001071
v -2.343206 -0.119834 0.996314
v -2.374909 -0.162381 0.929507
v -2.362860 -0.155830 0.922223
v -2.347913 -0.156114 0.918021
v -2.334073 -0.163156 0.918027
v -2.325047 -0.175071 0.922239
v -2.323256 -0.188665 0.929529
v -2.329178 -0.200296 0.937943
v -2.341227 -0.206848 0.945227
v -2.356174 -0.206564 0.949429
v -2.370015 -0.199521 0.949423
v -2.379040 -0.187607 0.945211
v -2.380831 -0.174012 0.937921
v -2.395487 -0.253228 0.891752
v -2.383476 -0.246797 0.884299
v -2.368241 -0.246184 0.881357
v -2.353862 -0.251554 0.883715
v -2.344193 -0.261469 0.890742
v -2.341824 -0.273270 0.900553
v -2.347391 -0.283797 0.910521
v -2.359401 -0.290228 0.917974
v -2.374637 -0.290841 0.920916
v -2.389016 -0.285470 0.918557
v -2.398685 -0.275556 0.911531
v -2.401053 -0.263755 0.901719
v -2.400719 -0.393515 0.836784
v -2.389123 -0.390431 0.826926
v -2.373923 -0.389864 0.823796
v -2.359192 -0.391968 0.828235
v -2.348875 -0.396179 0.839051
v -2.345739 -0.401368 0.853348
v -2.350623 -0.406144 0.867294
v -2.362218 -0.409229 0.877152
v -2.377419 -0.409795 0.880281
v -2.392150 -0.407691 0.875843
v -2.402466 -0.403481 0.865026
v -2.405603 -0.398292 0.850729
v -2.080040 -0.390563 -0.467460
v -2.086960 -0.383677 -0.479537
v -2.089049 -0.382331 -0.494866
v -2.085747 -0.386886 -0.509340
v -2.077937 -0.396121 -0.519081
v -2.067714 -0.407562 -0.521479
v -2.057817 -0.418143 -0.515891
v -2.050896 -0.425029 -0.503814
v -2.048807 -0.426375 -0.488485
v -2.052109 -0.421820 -0.474011
v -2.059919 -0.412585 -0.464270
v -2.070142 -0.401144 -0.461872
v -1.729668 -0.257742 -0.533309
v -1.732293 -0.249358 -0.546114
v -1.732696 -0.248220 -0.561596
v -1.730770 -0.254633 -0.575607
v -1.727030 -0.266880 -0.584392
v -1.722478 -0.281678 -0.585599
v -1.718335 -0.295062 -0.578902
v -1.715710 -0.303447 -0.566097
v -1.715307 -0.304585 -0.550615
v -1.717234 -0.298172 -0.536604
v -1.720974 -0.285925 -0.527819
v -1.725525 -0.271127 -0.526612
v -1.729668 -0.257742 -0.533309
v -1.732293 -0.249358 -0.546114
v -1.732696 -0.248220 -0.561596
v -1.730770 -0.254633 -0.575607
v -1.727030 -0.266880 -0.584392
v -1.722478 -0.281678 -0.585599
v -1.718335 -0.295062 -0.578902
v -1.715710 -0.303447 -0.566097
v -1.715307 -0.304585 -0.550615
v -1.717234 -0.298172 -0.536604
v -1.720974 -0.285925 -0.527819
v -1.725525 -0.271127 -0.526612
v -1.810903 -0.278803 -0.529270
v -1.815497 -0.271052 -0.541918
v -1.818053 -0.270607 -0.557229
v -1.817887 -0.277587 -0.571100
v -1.815043 -0.290122 -0.579814
v -1.810283 -0.304853 -0.581037
v -1.804883 -0.317833 -0.574441
v -1.800290 -0.325584 -0.561792
v -1.797734 -0.326029 -0.546482
v -1.797900 -0.319049 -0.532611
v -1.800744 -0.306514 -0.523896
v -1.805503 -0.291783 -0.522673
v -1.914376 -0.292105 -0.510461
v -1.921642 -0.285554 -0.522521
v -1.925821 -0.285838 -0.537474
v -1.925795 -0.292880 -0.551314
v -1.921569 -0.304795 -0.560333
v -1.914277 -0.318389 -0.562114
v -1.905871 -0.330021 -0.556179
v -1.898605 -0.336572 -0.544119
v -1.894426 -0.336288 -0.529166
v -1.894452 -0.329246 -0.515325
v -1.898678 -0.317331 -0.506307
v -1.905970 -0.303737 -0.504526
v -2.011374 -0.333248 -0.493706
v -2.018809 -0.326817 -0.505727
v -2.021728 -0.326204 -0.520967
v -2.019348 -0.331575 -0.535342
v -2.012307 -0.341489 -0.545001
v -2.002492 -0.353291 -0.547355
v -1.992533 -0.363817 -0.541774
v -1.985098 -0.370249 -0.529752
v -1.982179 -0.370861 -0.514512
v -1.984559 -0.365491 -0.500137
v -1.991600 -0.355576 -0.490478
v -2.001415 -0.343775 -0.488124
v -2.080040 -0.390563 -0.467460
v -2.086960 -0.383677 -0.479537
v -2.089049 -0.382331 -0.494866
v -2.085747 -0.386886 -0.509340
v -2.077937 -0.396121 -0.519081
v -2.067714 -0.407562 -0.521479
v -2.057817 -0.418143 -0.515891
v -2.050896 -0.425029 -0.503814
v -2.048807 -0.426375 -0.488485
v -2.052109 -0.421820 -0.474011
v -2.059919 -0.412585 -0.464270
v -2.070142 -0.401144 -0.461872
v -2.063255 -0.521526 0.338990
v -2.064570 -0.514640 0.325134
v -2.060142 -0.513294 0.310310
v -2.051157 -0.517848 0.298492
v -2.040022 -0.527083 0.292845
v -2.029721 -0.538524 0.294883
v -2.023014 -0.549105 0.304060
v -2.021699 -0.555992 0.317917
v -2.026127 -0.557338 0.332740
v -2.035112 -0.552783 0.344559
v -2.046247 -0.543548 0.350205
v -2.056548 -0.532107 0.348167
v -1.735694 -0.257742 0.347358
v -1.732797 -0.249358 0.334612
v -1.726770 -0.248220 0.320345
v -1.719229 -0.254633 0.308381
v -1.712195 -0.266880 0.301924
v -1.707551 -0.281678 0.302705
v -1.706544 -0.295062 0.310514
v -1.709441 -0.303447 0.323260
v -1.715468 -0.304585 0.337527
v -1.723009 -0.298172 0.349492
v -1.730043 -0.285925 0.355949
v -1.734686 -0.271127 0.355168
v -1.735694 -0.257742 0.347358
v -1.732797 -0.249358 0.334612
v -1.726770 -0.248220 0.320345
v -1.719229 -0.254633 0.308381
v -1.712195 -0.266880 0.301924
v -1.707551 -0.281678 0.302705
v -1.706544 -0.295062 0.310514
v -1.709441 -0.303447 0.323260
v -1.715468 -0.304585 0.337527
v -1.723009 -0.298172 0.349492
v -1.730043 -0.285925 0.355949
v -1.734686 -0.271127 0.355168
v -1.833869 -0.279209 0.359411
v -1.832829 -0.271458 0.345995
v -1.828834 -0.271013 0.330995
v -1.822954 -0.277993 0.318431
v -1.816765 -0.290529 0.311668
v -1.811926 -0.305260 0.312520
v -1.809732 -0.318240 0.320758
v -1.810772 -0.325991 0.334174
v -1.814767 -0.326436 0.349174
v -1.820647 -0.319456 0.361738
v -1.826836 -0.306921 0.368501
v -1.831675 -0.292189 0.367649
v -1.912876 -0.317266 0.331669
v -1.914513 -0.310715 0.317685
v -1.912144 -0.310999 0.302340
v -1.906404 -0.318041 0.289746
v -1.898832 -0.329956 0.283277
v -1.891454 -0.343550 0.284667
v -1.886250 -0.355181 0.293544
v -1.884613 -0.361733 0.307528
v -1.886982 -0.361449 0.322872
v -1.892722 -0.354407 0.335466
v -1.900295 -0.342492 0.341935
v -1.907672 -0.328897 0.340545
v -1.978479 -0.394703 0.352907
v -1.980286 -0.388272 0.338888
v -1.976651 -0.387659 0.323803
v -1.968547 -0.393030 0.311693
v -1.958145 -0.402944 0.305805
v -1.948234 -0.414746 0.307714
v -1.941469 -0.425272 0.316910
v -1.939662 -0.431703 0.330929
v -1.943298 -0.432316 0.346014
v -1.951402 -0.426946 0.358124
v -1.961803 -0.417031 0.364012
v -1.971714 -0.405230 0.362103
v -2.063255 -0.521526 0.338990
v -2.064570 -0.514640 0.325134
v -2.060142 -0.513294 0.310310
v -2.051157 -0.517848 0.298492
v -2.040022 -0.527083 0.292845
v -2.029721 -0.538524 0.294883
v -2.023014 -0.549105 0.304060
v -2.021699 -0.555992 0.317917
v -2.026127 -0.557338 0.332740
v -2.035112 -0.552783 0.344559
v -2.046247 -0.543548 0.350205
v -2.056548 -0.532107 0.348167
v -2.457795 -0.411800 -0.746096
v -2.471146 -0.404914 -0.742160
v -2.486542 -0.403568 -0.743678
v -2.499858 -0.408122 -0.750243
v -2.507525 -0.417357 -0.760095
v -2.507491 -0.428798 -0.770596
v -2.499762 -0.439379 -0.778930
v -2.486412 -0.446266 -0.782866
v -2.471015 -0.447612 -0.781348
v -2.457699 -0.443057 -0.774783
v -2.450032 -0.433822 -0.764931
v -2.450067 -0.422381 -0.754430
v -2.417106 -0.257742 -1.045655
v -2.430171 -0.249358 -1.046067
v -2.445326 -0.248220 -1.049261
v -2.458510 -0.254633 -1.054380
v -2.466191 -0.266880 -1.060053
v -2.466310 -0.281678 -1.064760
v -2.458836 -0.295062 -1.067239
v -2.445771 -0.303447 -1.066828
v -2.430617 -0.304585 -1.063634
v -2.417433 -0.298171 -1.058515
v -2.409752 -0.285925 -1.052842
v -2.409633 -0.271127 -1.048135
v -2.417106 -0.257742 -1.045655
v -2.430171 -0.249358 -1.046067
v -2.445326 -0.248220 -1.049261
v -2.458510 -0.254633 -1.054380
v -2.466191 -0.266880 -1.060053
v -2.466310 -0.281678 -1.064760
v -2.458836 -0.295062 -1.067239
v -2.445771 -0.303447 -1.066828
v -2.430617 -0.304585 -1.063634
v -2.417433 -0.298171 -1.058515
v -2.409752 -0.285925 -1.052842
v -2.409633 -0.271127 -1.048135
v -2.444467 -0.266051 -0.929848
v -2.457835 -0.258300 -0.928308
v -2.473321 -0.257855 -0.929368
v -2.486777 -0.264835 -0.932742
v -2.494596 -0.277370 -0.937526
v -2.494683 -0.292101 -0.942440
v -2.487015 -0.305081 -0.946165
v -2.473647 -0.312832 -0.947705
v -2.458161 -0.313277 -0.946645
v -2.444705 -0.306297 -0.943271
v -2.436886 -0.293762 -0.938487
v -2.436799 -0.279031 -0.933573
v -2.441707 -0.296211 -0.859046
v -2.455122 -0.289660 -0.854770
v -2.470637 -0.289943 -0.854168
v -2.484094 -0.296986 -0.857399
v -2.491889 -0.308901 -0.863598
v -2.491932 -0.322495 -0.871104
v -2.484212 -0.334126 -0.877907
v -2.470798 -0.340678 -0.882183
v -2.455283 -0.340394 -0.882785
v -2.441825 -0.333351 -0.879554
v -2.434030 -0.321437 -0.873355
v -2.433987 -0.307842 -0.865848
v -2.435639 -0.365407 -0.809372
v -2.449055 -0.358976 -0.804923
v -2.464557 -0.358363 -0.805614
v -2.477990 -0.363733 -0.811258
v -2.485756 -0.373648 -0.820344
v -2.485773 -0.385449 -0.830437
v -2.478036 -0.395976 -0.838833
v -2.464620 -0.402407 -0.843282
v -2.449119 -0.403020 -0.842592
v -2.435685 -0.397649 -0.836948
v -2.427920 -0.387735 -0.827862
v -2.427903 -0.375934 -0.817769
v -2.457795 -0.411800 -0.746096
v -2.471146 -0.404914 -0.742160
v -2.486542 -0.403568 -0.743678
v -2.499858 -0.408122 -0.750243
v -2.507525 -0.417357 -0.760095
v -2.507491 -0.428798 -0.770596
v -2.499762 -0.439379 -0.778930
v -2.486412 -0.446266 -0.782866
v -2.471015 -0.447612 -0.781348
v -2.457699 -0.443057 -0.774783
v -2.450032 -0.433822 -0.764931
v -2.450067 -0.422381 -0.754430
v -3.230531 -0.087342 -1.314202
v -3.227503 -0.077818 -1.326088
v -3.223675 -0.075703 -1.340988
v -3.220069 -0.081563 -1.354910
v -3.217654 -0.093828 -1.364123
v -3.217076 -0.109213 -1.366159
v -3.218491 -0.123594 -1.360471
v -3.221518 -0.133118 -1.348585
v -3.225347 -0.135233 -1.333685
v -3.228952 -0.129373 -1.319763
v -3.231367 -0.117107 -1.310550
v -3.231945 -0.101723 -1.308515
v -2.766677 -0.156151 -1.314512
v -2.764830 -0.147811 -1.327480
v -2.762733 -0.147138 -1.342852
v -2.760948 -0.154311 -1.356509
v -2.759953 -0.167410 -1.364791
v -2.760014 -0.182924 -1.365479
v -2.761117 -0.196696 -1.358389
v -2.762963 -0.205036 -1.345420
v -2.765060 -0.205709 -1.330048
v -2.766845 -0.198536 -1.316391
v -2.767840 -0.185437 -1.308109
v -2.767778 -0.169924 -1.307421
v -2.766677 -0.156151 -1.314512
v -2.764830 -0.147811 -1.327480
v -2.762733 -0.147138 -1.342852
v -2.760948 -0.154311 -1.356509
v -2.759953 -0.167410 -1.364791
v -2.760014 -0.182924 -1.365479
v -2.761117 -0.196696 -1.358389
v -2.762963 -0.205036 -1.345420
v -2.765060 -0.205709 -1.330048
v -2.766845 -0.198536 -1.316391
v -2.767840 -0.185437 -1.308109
v -2.767778 -0.169924 -1.307421
v -2.890003 -0.154888 -1.331486
v -2.890226 -0.146549 -1.344584
v -2.890393 -0.145876 -1.360097
v -2.890459 -0.153050 -1.373870
v -2.890406 -0.166149 -1.382211
v -2.890249 -0.181663 -1.382885
v -2.890030 -0.195434 -1.375712
v -2.889806 -0.203774 -1.362614
v -2.889639 -0.204447 -1.347101
v -2.889573 -0.197273 -1.333328
v -2.889626 -0.184174 -1.324987
v -2.889783 -0.168660 -1.324313
v -3.034384 -0.103716 -1.313306
v -3.032886 -0.094292 -1.325558
v -3.032314 -0.092215 -1.340937
v -3.032825 -0.098041 -1.355322
v -3.034281 -0.110209 -1.364860
v -3.036291 -0.125459 -1.366995
v -3.038317 -0.139704 -1.361153
v -3.039816 -0.149128 -1.348902
v -3.040387 -0.151205 -1.333523
v -3.039876 -0.145379 -1.319137
v -3.038421 -0.133211 -1.309599
v -3.036411 -0.117961 -1.307465
v -3.140326 -0.089130 -1.307061
v -3.137335 -0.079581 -1.318936
v -3.134226 -0.077412 -1.333995
v -3.131833 -0.083203 -1.348204
v -3.130797 -0.095405 -1.357754
v -3.131396 -0.110746 -1.360088
v -3.133469 -0.125116 -1.354579
v -3.136460 -0.134665 -1.342704
v -3.139569 -0.136835 -1.327644
v -3.141962 -0.131043 -1.313436
v -3.142998 -0.118842 -1.303885
v -3.142399 -0.103501 -1.301552
v -3.230531 -0.087342 -1.314202
v -3.227503 -0.077818 -1.326088
v -3.223675 -0.075703 -1.340988
v -3.220069 -0.081563 -1.354910
v -3.217654 -0.093828 -1.364123
v -3.217076 -0.109213 -1.366159
v -3.218491 -0.123594 -1.360471
v -3.221518 -0.133118 -1.348585
v -3.225347 -0.135233 -1.333685
v -3.228952 -0.129373 -1.319763
v -3.231367 -0.117107 -1.310550
v -3.231945 -0.101723 -1.308515
vn -0.0338 -0.9418 -0.3344
vn 0.0047 0.2942 0.9557
vn -0.9036 0.4102 -0.1236
vn -0.5678 0.7874 -0.2401
vn -0.0776 0.9530 -0.2930
vn 0.4331 0.8606 -0.2679
vn 0.8254 0.5378 -0.1717
vn 0.9969 0.0731 -0.0298
vn 0.9035 -0.4113 0.1205
vn 0.5678 -0.7877 0.2393
vn 0.0776 -0.9530 0.2930
vn -0.4332 -0.8611 0.2663
vn -0.8255 -0.5389 0.1677
vn -0.9969 -0.0745 0.0252
vn -0.8645 0.4934 0.0960
vn -0.5842 0.7496 -0.3113
vn -0.1399 0.7836 -0.6053
vn 0.3145 0.6137 -0.7242
vn 0.6787 0.2994 -0.6706
vn 0.8854 -0.0987 -0.4541
vn 0.8647 -0.4931 -0.0953
vn 0.5851 -0.7464 0.3171
vn 0.1453 -0.7627 0.6302
vn -0.2976 -0.5800 0.7583
vn -0.6571 -0.2746 0.7021
vn -0.8753 0.1072 0.4716
vn -0.9285 0.2996 -0.2192
vn -0.6276 0.4161 -0.6580
vn -0.2140 0.4131 -0.8852
vn 0.2173 0.3182 -0.9228
vn 0.6299 0.1468 -0.7627
vn 0.9334 -0.0823 -0.3493
vn 0.9288 -0.2834 0.2389
vn 0.6213 -0.3630 0.6945
vn 0.2193 -0.3508 0.9104
vn -0.2028 -0.2824 0.9376
vn -0.6281 -0.1442 0.7646
vn -0.9370 0.0761 0.3410
vn -0.9377 0.1535 -0.3116
vn -0.6400 0.3038 -0.7058
vn -0.1954 0.3709 -0.9079
vn 0.2962 0.3432 -0.8913
vn 0.7324 0.2239 -0.6431
vn 0.9800 0.0412 -0.1947
vn 0.9372 -0.1418 0.3188
vn 0.6376 -0.2676 0.7224
vn 0.1972 -0.3217 0.9261
vn -0.2903 -0.3062 0.9066
vn -0.7299 -0.2116 0.6500
vn -0.9800 -0.0412 0.1947
vn -0.7406 -0.6706 0.0420
vn 0.9557 0.2942 -0.0033
vn -0.0667 0.4299 0.9004
vn -0.1815 0.8065 0.5627
vn -0.2488 0.9658 0.0736
vn -0.2498 0.8654 -0.4344
vn -0.1837 0.5340 -0.8253
vn -0.0678 0.0606 -0.9959
vn 0.0667 -0.4299 -0.9004
vn 0.1827 -0.8061 -0.5628
vn 0.2483 -0.9659 -0.0735
vn 0.2464 -0.8662 0.4346
vn 0.1791 -0.5353 0.8254
vn 0.0649 -0.0615 0.9960
vn 0.0955 0.4937 0.8644
vn -0.0215 0.8608 0.5086
vn -0.1314 0.9907 0.0345
vn -0.2048 0.8728 -0.4431
vn -0.2238 0.5290 -0.8186
vn -0.1828 0.0264 -0.9828
vn -0.0949 -0.4935 -0.8646
vn 0.0095 -0.8634 -0.5044
vn 0.1033 -0.9943 -0.0283
vn 0.1728 -0.8784 0.4457
vn 0.2048 -0.5352 0.8195
vn 0.1803 -0.0276 0.9832
vn -0.0312 0.4404 0.8972
vn -0.2361 0.7878 0.5689
vn -0.3732 0.9226 0.0978
vn -0.4106 0.8212 -0.3963
vn -0.3408 0.5034 -0.7940
vn -0.1806 0.0383 -0.9828
vn 0.0253 -0.4445 -0.8954
vn 0.2173 -0.7976 -0.5627
vn 0.3498 -0.9323 -0.0924
vn 0.3962 -0.8275 0.3978
vn 0.3397 -0.5041 0.7940
vn 0.1833 -0.0365 0.9824
vn -0.0299 0.4454 0.8948
vn -0.3596 0.7093 0.6062
vn -0.5989 0.7869 0.1485
vn -0.6762 0.6454 -0.3552
vn -0.5681 0.3253 -0.7559
vn -0.3121 -0.0755 -0.9471
vn 0.0219 -0.4514 -0.8920
vn 0.3543 -0.7130 -0.6051
vn 0.5979 -0.7877 -0.1484
vn 0.6761 -0.6455 0.3552
vn 0.5653 -0.3283 0.7567
vn 0.3056 0.0694 0.9496
vn -0.6919 -0.6706 -0.2676
vn 0.8718 0.2942 0.3917
vn -0.0058 0.5194 0.8545
vn -0.1275 0.8526 0.5067
vn -0.2191 0.9754 -0.0223
vn -0.2345 0.7935 -0.5616
vn -0.1739 0.3896 -0.9044
vn -0.0752 -0.0791 -0.9940
vn 0.0337 -0.5166 -0.8555
vn 0.1383 -0.8521 -0.5047
vn 0.2184 -0.9756 0.0220
vn 0.2414 -0.7901 0.5635
vn 0.1974 -0.3773 0.9048
vn 0.1085 0.0896 0.9901
vn -0.4719 0.4033 0.7840
vn -0.5074 0.7593 0.4074
vn -0.4087 0.9091 -0.0809
vn -0.2022 0.8128 -0.5464
vn 0.0578 0.5001 -0.8640
vn 0.3041 0.0559 -0.9510
vn 0.4713 -0.4036 -0.7842
vn 0.5115 -0.7571 -0.4063
vn 0.4105 -0.9082 0.0813
vn 0.1966 -0.8150 0.5451
vn -0.0682 -0.5042 0.8609
vn -0.3118 -0.0594 0.9483
vn -0.3153 0.4917 0.8117
vn -0.6498 0.6559 0.3840
vn -0.7753 0.6144 -0.1463
vn -0.6930 0.4088 -0.5938
vn -0.4631 0.1161 -0.8787
vn -0.1216 -0.2088 -0.9704
vn 0.2968 -0.5021 -0.8122
vn 0.6603 -0.6471 -0.3812
vn 0.7991 -0.5818 0.1514
vn 0.7112 -0.3817 0.5904
vn 0.4656 -0.1135 0.8777
vn 0.1027 0.1966 0.9751
vn -0.5726 0.2990 0.7634
vn -0.8017 0.4994 0.3284
vn -0.8094 0.5585 -0.1816
vn -0.6120 0.4734 -0.6335
vn -0.2585 0.2683 -0.9280
vn 0.1763 -0.0138 -0.9842
vn 0.5733 -0.2983 -0.7631
vn 0.8043 -0.4961 -0.3271
vn 0.8112 -0.5556 0.1823
vn 0.6117 -0.4739 0.6334
vn 0.2559 -0.2712 0.9279
vn -0.1787 0.0117 0.9838
vn -0.1306 -0.6706 0.7302
vn 0.2182 0.2942 -0.9305
vn 0.8656 0.4416 0.2360
vn 0.5179 0.8355 0.1837
vn 0.0393 0.9954 0.0870
vn -0.4416 0.8968 -0.0292
vn -0.8117 0.5669 -0.1404
vn -0.9726 0.0781 -0.2189
vn -0.8654 -0.4410 -0.2381
vn -0.5176 -0.8347 -0.1882
vn -0.0396 -0.9956 -0.0855
vn 0.4390 -0.8977 0.0386
vn 0.8079 -0.5694 0.1519
vn 0.9711 -0.0801 0.2248
vn 0.8665 0.4709 0.1656
vn 0.4994 0.8037 0.3236
vn -0.0010 0.9198 0.3924
vn -0.4990 0.7905 0.3551
vn -0.8639 0.4512 0.2237
vn -0.9994 -0.0100 0.0333
vn -0.8665 -0.4708 -0.1660
vn -0.4994 -0.8047 -0.3211
vn 0.0010 -0.9204 -0.3910
vn 0.4990 -0.7893 -0.3577
vn 0.8638 -0.4487 -0.2291
vn 0.9992 0.0119 -0.0376
vn 0.8611 0.3433 0.3751
vn 0.4846 0.5380 0.6897
vn 0.0039 0.5815 0.8135
vn -0.4665 0.4789 0.7436
vn -0.8353 0.2539 0.4877
vn -0.9962 -0.0481 0.0728
vn -0.8593 -0.3330 -0.3883
vn -0.4775 -0.5025 -0.7207
vn -0.0033 -0.5369 -0.8436
vn 0.4610 -0.4531 -0.7630
vn 0.8347 -0.2521 -0.4897
vn 0.9968 0.0439 -0.0668
vn 0.8458 0.2435 0.4746
vn 0.4965 0.6079 0.6196
vn 0.0088 0.8058 0.5921
vn -0.4741 0.7835 0.4018
vn -0.8236 0.5568 0.1081
vn -0.9593 0.1870 -0.2118
vn -0.8445 -0.2388 -0.4794
vn -0.4965 -0.6074 -0.6201
vn -0.0090 -0.8073 -0.5901
vn 0.4742 -0.7831 -0.4024
vn 0.8254 -0.5531 -0.1134
vn 0.9620 -0.1808 0.2048
vn -0.9684 -0.0034 -0.2493
vn -0.9684 -0.0034 -0.2494
vn 0.9908 -0.0099 0.1347
vn -0.1168 0.4596 0.8804
vn -0.0647 0.8424 0.5350
vn 0.0040 0.9990 0.0438
vn 0.0704 0.8857 -0.4589
vn 0.1171 0.5354 -0.8364
vn 0.1327 0.0439 -0.9902
vn 0.1136 -0.4597 -0.8808
vn 0.0639 -0.8424 -0.5351
vn -0.0041 -0.9990 -0.0438
vn -0.0721 -0.8856 0.4587
vn -0.1211 -0.5353 0.8359
vn -0.1375 -0.0439 0.9895
vn 0.2450 0.3954 0.8852
vn 0.3453 0.7603 0.5502
vn 0.3578 0.9297 0.0874
vn 0.2785 0.8698 -0.4073
vn 0.1186 0.5691 -0.8137
vn -0.0769 0.0952 -0.9925
vn -0.2422 -0.3958 -0.8858
vn -0.3349 -0.7637 -0.5520
vn -0.3434 -0.9351 -0.0877
vn -0.2671 -0.8728 0.4084
vn -0.1154 -0.5695 0.8139
vn 0.0756 -0.0952 0.9926
vn 0.1019 0.3541 0.9296
vn 0.1449 0.7645 0.6281
vn 0.1498 0.9766 0.1544
vn 0.1105 0.9233 -0.3679
vn 0.0361 0.6159 -0.7870
vn -0.0494 0.1485 -0.9877
vn -0.1199 -0.3512 -0.9286
vn -0.1572 -0.7618 -0.6284
vn -0.1532 -0.9760 -0.1547
vn -0.1105 -0.9233 0.3679
vn -0.0420 -0.6157 0.7869
vn 0.0344 -0.1473 0.9885
vn -0.0654 0.3690 0.9271
vn -0.0337 0.7835 0.6204
vn 0.0078 0.9896 0.1433
vn 0.0463 0.9263 -0.3738
vn 0.0700 0.6132 -0.7868
vn 0.0737 0.1404 -0.9874
vn 0.0584 -0.3684 -0.9278
vn 0.0289 -0.7831 -0.6213
vn -0.0082 -0.9896 -0.1434
vn -0.0443 -0.9263 0.3742
vn -0.0702 -0.6133 0.7868
vn -0.0784 -0.1403 0.9870
vt 0.489752 0.172693
vt 0.498893 0.163552
vt 0.495547 0.169347
vt 0.483061 0.172693
vt 0.498893 0.156860
vt 0.477266 0.169347
vt 0.495547 0.151065
vt 0.473920 0.163552
vt 0.489752 0.147720
vt 0.473920 0.156860
vt 0.483061 0.147720
vt 0.477266 0.151065
vt 0.452292 0.151065
vt 0.448947 0.163552
vt 0.448947 0.156860
vt 0.458088 0.147720
vt 0.452292 0.169347
vt 0.464779 0.147720
vt 0.458088 0.172693
vt 0.470574 0.151065
vt 0.464779 0.172693
vt 0.473920 0.156860
vt 0.470574 0.169347
vt 0.473920 0.163552
vt 0.154766 0.168385
vt 0.189136 0.168385
vt 0.189136 0.172565
vt 0.154766 0.172565
vt 0.154766 0.164191
vt 0.189136 0.164191
vt 0.154766 0.160019
vt 0.189136 0.160019
vt 0.154766 0.155911
vt 0.189136 0.155911
vt 0.154766 0.151847
vt 0.189136 0.151847
vt 0.154766 0.147703
vt 0.189136 0.147703
vt 0.447734 0.151850
vt 0.413366 0.151864
vt 0.413366 0.147637
vt 0.447734 0.147593
vt 0.447734 0.156065
vt 0.413366 0.156050
vt 0.447734 0.160235
vt 0.413366 0.160205
vt 0.447734 0.164368
vt 0.413366 0.164339
vt 0.447734 0.168484
vt 0.413366 0.168464
vt 0.447734 0.172601
vt 0.413366 0.172595
vt 0.228446 0.168385
vt 0.228446 0.172565
vt 0.228446 0.164191
vt 0.228446 0.160019
vt 0.228446 0.155911
vt 0.228446 0.151847
vt 0.228446 0.147703
vt 0.372897 0.151881
vt 0.372897 0.147687
vt 0.372897 0.156034
vt 0.372897 0.160173
vt 0.372897 0.164306
vt 0.372897 0.168441
vt 0.372897 0.172587
vt 0.258936 0.168385
vt 0.258936 0.172565
vt 0.258936 0.164191
vt 0.258936 0.160019
vt 0.258936 0.155911
vt 0.258936 0.151847
vt 0.258936 0.147703
vt 0.342294 0.151895
vt 0.342294 0.147724
vt 0.342294 0.156022
vt 0.342294 0.160148
vt 0.342294 0.164279
vt 0.342294 0.168423
vt 0.342294 0.172581
vt 0.299816 0.168385
vt 0.299816 0.172565
vt 0.299816 0.164191
vt 0.299816 0.160019
vt 0.299816 0.155911
vt 0.299816 0.151847
vt 0.299816 0.147703
vt 0.302111 0.151910
vt 0.302111 0.147772
vt 0.302111 0.156004
vt 0.302111 0.160112
vt 0.302111 0.164243
vt 0.302111 0.168397
vt 0.302111 0.172573
s 0
usemtl M_FloorPrison
f 10/1/1 8/2/1 9/3/1
f 11/4/1 8/2/1 10/1/1
f 11/4/1 7/5/1 8/2/1
f 12/6/1 7/5/1 11/4/1
f 12/6/1 6/7/1 7/5/1
f 1/8/1 6/7/1 12/6/1
f 1/8/1 5/9/1 6/7/1
f 2/10/1 5/9/1 1/8/1
f 2/10/1 4/11/1 5/9/1
f 3/12/1 4/11/1 2/10/1
f 20/13/2 22/14/2 21/15/2
f 19/16/2 22/14/2 20/13/2
f 19/16/2 23/17/2 22/14/2
f 18/18/2 23/17/2 19/16/2
f 18/18/2 24/19/2 23/17/2
f 17/20/2 24/19/2 18/18/2
f 17/20/2 13/21/2 24/19/2
f 16/22/2 13/21/2 17/20/2
f 16/22/2 14/23/2 13/21/2
f 15/24/2 14/23/2 16/22/2
f 25/25/3 37/26/3 48/27/3 36/28/3
f 26/29/4 38/30/4 37/26/4 25/25/4
f 27/31/5 39/32/5 38/30/5 26/29/5
f 28/33/6 40/34/6 39/32/6 27/31/6
f 29/35/7 41/36/7 40/34/7 28/33/7
f 30/37/8 42/38/8 41/36/8 29/35/8
f 31/39/9 43/40/9 42/41/9 30/42/9
f 32/43/10 44/44/10 43/40/10 31/39/10
f 33/45/11 45/46/11 44/44/11 32/43/11
f 34/47/12 46/48/12 45/46/12 33/45/12
f 35/49/13 47/50/13 46/48/13 34/47/13
f 36/51/14 48/52/14 47/50/14 35/49/14
f 37/26/15 49/53/15 60/54/15 48/27/15
f 38/30/16 50/55/16 49/53/16 37/26/16
f 39/32/17 51/56/17 50/55/17 38/30/17
f 40/34/18 52/57/18 51/56/18 39/32/18
f 41/36/19 53/58/19 52/57/19 40/34/19
f 42/38/20 54/59/20 53/58/20 41/36/20
f 43/40/21 55/60/21 54/61/21 42/41/21
f 44/44/22 56/62/22 55/60/22 43/40/22
f 45/46/23 57/63/23 56/62/23 44/44/23
f 46/48/24 58/64/24 57/63/24 45/46/24
f 47/50/25 59/65/25 58/64/25 46/48/25
f 48/52/26 60/66/26 59/65/26 47/50/26
f 49/53/27 61/67/27 72/68/27 60/54/27
f 50/55/28 62/69/28 61/67/28 49/53/28
f 51/56/29 63/70/29 62/69/29 50/55/29
f 52/57/30 64/71/30 63/70/30 51/56/30
f 53/58/31 65/72/31 64/71/31 52/57/31
f 54/59/32 66/73/32 65/72/32 53/58/32
f 55/60/33 67/74/33 66/75/33 54/61/33
f 56/62/34 68/76/34 67/74/34 55/60/34
f 57/63/35 69/77/35 68/76/35 56/62/35
f 58/64/36 70/78/36 69/77/36 57/63/36
f 59/65/37 71/79/37 70/78/37 58/64/37
f 60/66/38 72/80/38 71/79/38 59/65/38
f 61/67/39 73/81/39 84/82/39 72/68/39
f 62/69/40 74/83/40 73/81/40 61/67/40
f 63/70/41 75/84/41 74/83/41 62/69/41
f 64/71/42 76/85/42 75/84/42 63/70/42
f 65/72/43 77/86/43 76/85/43 64/71/43
f 66/73/44 78/87/44 77/86/44 65/72/44
f 67/74/45 79/88/45 78/89/45 66/75/45
f 68/76/46 80/90/46 79/88/46 67/74/46
f 69/77/47 81/91/47 80/90/47 68/76/47
f 70/78/48 82/92/48 81/91/48 69/77/48
f 71/79/49 83/93/49 82/92/49 70/78/49
f 72/80/50 84/94/50 83/93/50 71/79/50
f 94/1/51 92/2/51 93/3/51
f 95/4/51 92/2/51 94/1/51
f 95/4/51 91/5/51 92/2/51
f 96/6/51 91/5/51 95/4/51
f 96/6/51 90/7/51 91/5/51
f 85/8/51 90/7/51 96/6/51
f 85/8/51 89/9/51 90/7/51
f 86/10/51 89/9/51 85/8/51
f 86/10/51 88/11/51 89/9/51
f 87/12/51 88/11/51 86/10/51
f 104/13/52 106/14/52 105/15/52
f 103/16/52 106/14/52 104/13/52
f 103/16/52 107/17/52 106/14/52
f 102/18/52 107/17/52 103/16/52
f 102/18/52 108/19/52 107/17/52
f 101/20/52 108/19/52 102/18/52
f 101/20/52 97/21/52 108/19/52
f 100/22/52 97/21/52 101/20/52
f 100/22/52 98/23/52 97/21/52
f 99/24/52 98/23/52 100/22/52
f 109/25/53 121/26/53 132/27/53 120/28/53
f 110/29/54 122/30/54 121/26/54 109/25/54
f 111/31/55 123/32/55 122/30/55 110/29/55
f 112/33/56 124/34/56 123/32/56 111/31/56
f 113/35/57 125/36/57 124/34/57 112/33/57
f 114/37/58 126/38/58 125/36/58 113/35/58
f 115/39/59 127/40/59 126/41/59 114/42/59
f 116/43/60 128/44/60 127/40/60 115/39/60
f 117/45/61 129/46/61 128/44/61 116/43/61
f 118/47/62 130/48/62 129/46/62 117/45/62
f 119/49/63 131/50/63 130/48/63 118/47/63
f 120/51/64 132/52/64 131/50/64 119/49/64
f 121/26/65 133/53/65 144/54/65 132/27/65
f 122/30/66 134/55/66 133/53/66 121/26/66
f 123/32/67 135/56/67 134/55/67 122/30/67
f 124/34/68 136/57/68 135/56/68 123/32/68
f 125/36/69 137/58/69 136/57/69 124/34/69
f 126/38/70 138/59/70 137/58/70 125/36/70
f 127/40/71 139/60/71 138/61/71 126/41/71
f 128/44/72 140/62/72 139/60/72 127/40/72
f 129/46/73 141/63/73 140/62/73 128/44/73
f 130/48/74 142/64/74 141/63/74 129/46/74
f 131/50/75 143/65/75 142/64/75 130/48/75
f 132/52/76 144/66/76 143/65/76 131/50/76
f 133/53/77 145/67/77 156/68/77 144/54/77
f 134/55/78 146/69/78 145/67/78 133/53/78
f 135/56/79 147/70/79 146/69/79 134/55/79
f 136/57/80 148/71/80 147/70/80 135/56/80
f 137/58/81 149/72/81 148/71/81 136/57/81
f 138/59/82 150/73/82 149/72/82 137/58/82
f 139/60/83 151/74/83 150/75/83 138/61/83
f 140/62/84 152/76/84 151/74/84 139/60/84
f 141/63/85 153/77/85 152/76/85 140/62/85
f 142/64/86 154/78/86 153/77/86 141/63/86
f 143/65/87 155/79/87 154/78/87 142/64/87
f 144/66/88 156/80/88 155/79/88 143/65/88
f 145/67/89 157/81/89 168/82/89 156/68/89
f 146/69/90 158/83/90 157/81/90 145/67/90
f 147/70/91 159/84/91 158/83/91 146/69/91
f 148/71/92 160/85/92 159/84/92 147/70/92
f 149/72/93 161/86/93 160/85/93 148/71/93
f 150/73/94 162/87/94 161/86/94 149/72/94
f 151/74/95 163/88/95 162/89/95 150/75/95
f 152/76/96 164/90/96 163/88/96 151/74/96
f 153/77/97 165/91/97 164/90/97 152/76/97
f 154/78/98 166/92/98 165/91/98 153/77/98
f 155/79/99 167/93/99 166/92/99 154/78/99
f 156/80/100 168/94/100 167/93/100 155/79/100
f 178/1/101 176/2/101 177/3/101
f 179/4/101 176/2/101 178/1/101
f 179/4/101 175/5/101 176/2/101
f 180/6/101 175/5/101 179/4/101
f 180/6/101 174/7/101 175/5/101
f 169/8/101 174/7/101 180/6/101
f 169/8/101 173/9/101 174/7/101
f 170/10/101 173/9/101 169/8/101
f 170/10/101 172/11/101 173/9/101
f 171/12/101 172/11/101 170/10/101
f 188/13/102 190/14/102 189/15/102
f 187/16/102 190/14/102 188/13/102
f 187/16/102 191/17/102 190/14/102
f 186/18/102 191/17/102 187/16/102
f 186/18/102 192/19/102 191/17/102
f 185/20/102 192/19/102 186/18/102
f 185/20/102 181/21/102 192/19/102
f 184/22/102 181/21/102 185/20/102
f 184/22/102 182/23/102 181/21/102
f 183/24/102 182/23/102 184/22/102
f 193/25/103 205/26/103 216/27/103 204/28/103
f 194/29/104 206/30/104 205/26/104 193/25/104
f 195/31/105 207/32/105 206/30/105 194/29/105
f 196/33/106 208/34/106 207/32/106 195/31/106
f 197/35/107 209/36/107 208/34/107 196/33/107
f 198/37/108 210/38/108 209/36/108 197/35/108
f 199/39/109 211/40/109 210/41/109 198/42/109
f 200/43/110 212/44/110 211/40/110 199/39/110
f 201/45/111 213/46/111 212/44/111 200/43/111
f 202/47/112 214/48/112 213/46/112 201/45/112
f 203/49/113 215/50/113 214/48/113 202/47/113
f 204/51/114 216/52/114 215/50/114 203/49/114
f 205/26/115 217/53/115 228/54/115 216/27/115
f 206/30/116 218/55/116 217/53/116 205/26/116
f 207/32/117 219/56/117 218/55/117 206/30/117
f 208/34/118 220/57/118 219/56/118 207/32/118
f 209/36/119 221/58/119 220/57/119 208/34/119
f 210/38/120 222/59/120 221/58/120 209/36/120
f 211/40/121 223/60/121 222/61/121 210/41/121
f 212/44/122 224/62/122 223/60/122 211/40/122
f 213/46/123 225/63/123 224/62/123 212/44/123
f 214/48/124 226/64/124 225/63/124 213/46/124
f 215/50/125 227/65/125 226/64/125 214/48/125
f 216/52/126 228/66/126 227/65/126 215/50/126
f 217/53/127 229/67/127 240/68/127 228/54/127
f 218/55/128 230/69/128 229/67/128 217/53/128
f 219/56/129 231/70/129 230/69/129 218/55/129
f 220/57/130 232/71/130 231/70/130 219/56/130
f 221/58/131 233/72/131 232/71/131 220/57/131
f 222/59/132 234/73/132 233/72/132 221/58/132
f 223/60/133 235/74/133 234/75/133 222/61/133
f 224/62/134 236/76/134 235/74/134 223/60/134
f 225/63/135 237/77/135 236/76/135 224/62/135
f 226/64/136 238/78/136 237/77/136 225/63/136
f 227/65/137 239/79/137 238/78/137 226/64/137
f 228/66/138 240/80/138 239/79/138 227/65/138
f 229/67/139 241/81/139 252/82/139 240/68/139
f 230/69/140 242/83/140 241/81/140 229/67/140
f 231/70/141 243/84/141 242/83/141 230/69/141
f 232/71/142 244/85/142 243/84/142 231/70/142
f 233/72/143 245/86/143 244/85/143 232/71/143
f 234/73/144 246/87/144 245/86/144 233/72/144
f 235/74/145 247/88/145 246/89/145 234/75/145
f 236/76/146 248/90/146 247/88/146 235/74/146
f 237/77/147 249/91/147 248/90/147 236/76/147
f 238/78/148 250/92/148 249/91/148 237/77/148
f 239/79/149 251/93/149 250/92/149 238/78/149
f 240/80/150 252/94/150 251/93/150 239/79/150
f 262/1/151 260/2/151 261/3/151
f 263/4/151 260/2/151 262/1/151
f 263/4/151 259/5/151 260/2/151
f 264/6/151 259/5/151 263/4/151
f 264/6/151 258/7/151 259/5/151
f 253/8/151 258/7/151 264/6/151
f 253/8/151 257/9/151 258/7/151
f 254/10/151 257/9/151 253/8/151
f 254/10/151 256/11/151 257/9/151
f 255/12/151 256/11/151 254/10/151
f 272/13/152 274/14/152 273/15/152
f 271/16/152 274/14/152 272/13/152
f 271/16/152 275/17/152 274/14/152
f 270/18/152 275/17/152 271/16/152
f 270/18/152 276/19/152 275/17/152
f 269/20/152 276/19/152 270/18/152
f 269/20/152 265/21/152 276/19/152
f 268/22/152 265/21/152 269/20/152
f 268/22/152 266/23/152 265/21/152
f 267/24/152 266/23/152 268/22/152
f 277/25/153 289/26/153 300/27/153 288/28/153
f 278/29/154 290/30/154 289/26/154 277/25/154
f 279/31/155 291/32/155 290/30/155 278/29/155
f 280/33/156 292/34/156 291/32/156 279/31/156
f 281/35/157 293/36/157 292/34/157 280/33/157
f 282/37/158 294/38/158 293/36/158 281/35/158
f 283/39/159 295/40/159 294/41/159 282/42/159
f 284/43/160 296/44/160 295/40/160 283/39/160
f 285/45/161 297/46/161 296/44/161 284/43/161
f 286/47/162 298/48/162 297/46/162 285/45/162
f 287/49/163 299/50/163 298/48/163 286/47/163
f 288/51/164 300/52/164 299/50/164 287/49/164
f 289/26/165 301/53/165 312/54/165 300/27/165
f 290/30/166 302/55/166 301/53/166 289/26/166
f 291/32/167 303/56/167 302/55/167 290/30/167
f 292/34/168 304/57/168 303/56/168 291/32/168
f 293/36/169 305/58/169 304/57/169 292/34/169
f 294/38/170 306/59/170 305/58/170 293/36/170
f 295/40/171 307/60/171 306/61/171 294/41/171
f 296/44/172 308/62/172 307/60/172 295/40/172
f 297/46/173 309/63/173 308/62/173 296/44/173
f 298/48/174 310/64/174 309/63/174 297/46/174
f 299/50/175 311/65/175 310/64/175 298/48/175
f 300/52/176 312/66/176 311/65/176 299/50/176
f 301/53/177 313/67/177 324/68/177 312/54/177
f 302/55/178 314/69/178 313/67/178 301/53/178
f 303/56/179 315/70/179 314/69/179 302/55/179
f 304/57/180 316/71/180 315/70/180 303/56/180
f 305/58/181 317/72/181 316/71/181 304/57/181
f 306/59/182 318/73/182 317/72/182 305/58/182
f 307/60/183 319/74/183 318/75/183 306/61/183
f 308/62/184 320/76/184 319/74/184 307/60/184
f 309/63/185 321/77/185 320/76/185 308/62/185
f 310/64/186 322/78/186 321/77/186 309/63/186
f 311/65/187 323/79/187 322/78/187 310/64/187
f 312/66/188 324/80/188 323/79/188 311/65/188
f 313/67/189 325/81/189 336/82/189 324/68/189
f 314/69/190 326/83/190 325/81/190 313/67/190
f 315/70/191 327/84/191 326/83/191 314/69/191
f 316/71/192 328/85/192 327/84/192 315/70/192
f 317/72/193 329/86/193 328/85/193 316/71/193
f 318/73/194 330/87/194 329/86/194 317/72/194
f 319/74/195 331/88/195 330/89/195 318/75/195
f 320/76/196 332/90/196 331/88/196 319/74/196
f 321/77/197 333/91/197 332/90/197 320/76/197
f 322/78/198 334/92/198 333/91/198 321/77/198
f 323/79/199 335/93/199 334/92/199 322/78/199
f 324/80/200 336/94/200 335/93/200 323/79/200
f 346/1/201 344/2/201 345/3/201
f 347/4/201 344/2/201 346/1/201
f 347/4/201 343/5/201 344/2/201
f 348/6/201 343/5/201 347/4/201
f 348/6/201 342/7/201 343/5/201
f 337/8/201 342/7/201 348/6/201
f 337/8/201 341/9/201 342/7/201
f 338/10/202 341/9/202 337/8/202
f 338/10/202 340/11/202 341/9/202
f 339/12/202 340/11/202 338/10/202
f 356/13/203 358/14/203 357/15/203
f 355/16/203 358/14/203 356/13/203
f 355/16/203 359/17/203 358/14/203
f 354/18/203 359/17/203 355/16/203
f 354/18/203 360/19/203 359/17/203
f 353/20/203 360/19/203 354/18/203
f 353/20/203 349/21/203 360/19/203
f 352/22/203 349/21/203 353/20/203
f 352/22/203 350/23/203 349/21/203
f 351/24/203 350/23/203 352/22/203
f 361/25/204 373/26/204 384/27/204 372/28/204
f 362/29/205 374/30/205 373/26/205 361/25/205
f 363/31/206 375/32/206 374/30/206 362/29/206
f 364/33/207 376/34/207 375/32/207 363/31/207
f 365/35/208 377/36/208 376/34/208 364/33/208
f 366/37/209 378/38/209 377/36/209 365/35/209
f 367/39/210 379/40/210 378/41/210 366/42/210
f 368/43/211 380/44/211 379/40/211 367/39/211
f 369/45/212 381/46/212 380/44/212 368/43/212
f 370/47/213 382/48/213 381/46/213 369/45/213
f 371/49/214 383/50/214 382/48/214 370/47/214
f 372/51/215 384/52/215 383/50/215 371/49/215
f 373/26/216 385/53/216 396/54/216 384/27/216
f 374/30/217 386/55/217 385/53/217 373/26/217
f 375/32/218 387/56/218 386/55/218 374/30/218
f 376/34/219 388/57/219 387/56/219 375/32/219
f 377/36/220 389/58/220 388/57/220 376/34/220
f 378/38/221 390/59/221 389/58/221 377/36/221
f 379/40/222 391/60/222 390/61/222 378/41/222
f 380/44/223 392/62/223 391/60/223 379/40/223
f 381/46/224 393/63/224 392/62/224 380/44/224
f 382/48/225 394/64/225 393/63/225 381/46/225
f 383/50/226 395/65/226 394/64/226 382/48/226
f 384/52/227 396/66/227 395/65/227 383/50/227
f 385/53/228 397/67/228 408/68/228 396/54/228
f 386/55/229 398/69/229 397/67/229 385/53/229
f 387/56/230 399/70/230 398/69/230 386/55/230
f 388/57/231 400/71/231 399/70/231 387/56/231
f 389/58/232 401/72/232 400/71/232 388/57/232
f 390/59/233 402/73/233 401/72/233 389/58/233
f 391/60/234 403/74/234 402/75/234 390/61/234
f 392/62/235 404/76/235 403/74/235 391/60/235
f 393/63/236 405/77/236 404/76/236 392/62/236
f 394/64/237 406/78/237 405/77/237 393/63/237
f 395/65/238 407/79/238 406/78/238 394/64/238
f 396/66/239 408/80/239 407/79/239 395/65/239
f 397/67/240 409/81/240 420/82/240 408/68/240
f 398/69/241 410/83/241 409/81/241 397/67/241
f 399/70/242 411/84/242 410/83/242 398/69/242
f 400/71/243 412/85/243 411/84/243 399/70/243
f 401/72/244 413/86/244 412/85/244 400/71/244
f 402/73/245 414/87/245 413/86/245 401/72/245
f 403/74/246 415/88/246 414/89/246 402/75/246
f 404/76/247 416/90/247 415/88/247 403/74/247
f 405/77/248 417/91/248 416/90/248 404/76/248
f 406/78/249 418/92/249 417/91/249 405/77/249
f 407/79/250 419/93/250 418/92/250 406/78/250
f 408/80/251 420/94/251 419/93/251 407/79/251
