# Blender 5.2.0 LTS
# www.blender.org
mtllib RebarCentre.mtl
o RebarCentre
v -1.111217 -0.541084 0.342331
v -1.107249 -0.534198 0.355672
v -1.108730 -0.532852 0.371072
v -1.115263 -0.537407 0.384403
v -1.125098 -0.546642 0.392094
v -1.135598 -0.558083 0.392085
v -1.143951 -0.568664 0.384376
v -1.147919 -0.575550 0.371035
v -1.146438 -0.576896 0.355635
v -1.139905 -0.572341 0.342304
v -1.130070 -0.563106 0.334612
v -1.119570 -0.551665 0.334622
v -1.385968 -0.235721 0.306904
v -1.386349 -0.227336 0.319970
v -1.389506 -0.226198 0.335132
v -1.394594 -0.232612 0.348328
v -1.400248 -0.244858 0.356022
v -1.404955 -0.259657 0.356153
v -1.407452 -0.273041 0.348685
v -1.407072 -0.281426 0.335620
v -1.403914 -0.282564 0.320457
v -1.398827 -0.276150 0.307261
v -1.393172 -0.263904 0.299567
v -1.388466 -0.249106 0.299436
v -1.385968 -0.235721 0.306904
v -1.386349 -0.227336 0.319970
v -1.389506 -0.226198 0.335132
v -1.394594 -0.232612 0.348328
v -1.400248 -0.244858 0.356022
v -1.404955 -0.259657 0.356153
v -1.407452 -0.273041 0.348685
v -1.407072 -0.281426 0.335620
v -1.403914 -0.282564 0.320457
v -1.398827 -0.276150 0.307261
v -1.393172 -0.263904 0.299567
v -1.388466 -0.249106 0.299436
v -1.317598 -0.254038 0.333368
v -1.316027 -0.246287 0.346732
v -1.317049 -0.245842 0.362221
v -1.320391 -0.252822 0.375685
v -1.325157 -0.265357 0.383515
v -1.330070 -0.280088 0.383614
v -1.333814 -0.293068 0.375956
v -1.335385 -0.300819 0.362591
v -1.334363 -0.301264 0.347102
v -1.331021 -0.294284 0.333639
v -1.326255 -0.281749 0.325808
v -1.321342 -0.267018 0.325709
v -1.239258 -0.321013 0.347033
v -1.234950 -0.314461 0.360438
v -1.234310 -0.314745 0.375951
v -1.237509 -0.321787 0.389417
v -1.243690 -0.333702 0.397226
v -1.251197 -0.347296 0.397288
v -1.258017 -0.358928 0.389584
v -1.262325 -0.365479 0.376179
v -1.262965 -0.365195 0.360666
v -1.259766 -0.358153 0.347200
v -1.253585 -0.346238 0.339391
v -1.246079 -0.332644 0.339330
v -1.175841 -0.420072 0.342110
v -1.171360 -0.413641 0.355515
v -1.172013 -0.413028 0.371019
v -1.177625 -0.418398 0.384465
v -1.186693 -0.428313 0.392253
v -1.196786 -0.440114 0.392294
v -1.205201 -0.450641 0.384578
v -1.209682 -0.457072 0.371172
v -1.209029 -0.457685 0.355669
v -1.203417 -0.452314 0.342222
v -1.194349 -0.442400 0.334435
v -1.184256 -0.430599 0.334393
v -1.111217 -0.541084 0.342331
v -1.107249 -0.534198 0.355672
v -1.108730 -0.532852 0.371072
v -1.115263 -0.537407 0.384403
v -1.125098 -0.546642 0.392094
v -1.135598 -0.558083 0.392085
v -1.143951 -0.568664 0.384376
v -1.147919 -0.575550 0.371035
v -1.146438 -0.576896 0.355635
v -1.139905 -0.572341 0.342304
v -1.130070 -0.563106 0.334612
v -1.119570 -0.551665 0.334622
v -1.004859 -0.520100 -0.470638
v -1.000892 -0.513214 -0.457296
v -1.002373 -0.511868 -0.441897
v -1.008906 -0.516423 -0.428565
v -1.018740 -0.525658 -0.420874
v -1.029241 -0.537099 -0.420884
v -1.037594 -0.547680 -0.428592
v -1.041561 -0.554566 -0.441934
v -1.040080 -0.555912 -0.457333
v -1.033547 -0.551357 -0.470665
v -1.023713 -0.542122 -0.478356
v -1.013213 -0.530681 -0.478346
v -1.466083 -0.257742 -0.504924
v -1.466464 -0.249358 -0.491858
v -1.469621 -0.248220 -0.476696
v -1.474708 -0.254633 -0.463500
v -1.480363 -0.266880 -0.455806
v -1.485070 -0.281678 -0.455675
v -1.487567 -0.295062 -0.463143
v -1.487186 -0.303447 -0.476209
v -1.484029 -0.304585 -0.491371
v -1.478942 -0.298172 -0.504567
v -1.473287 -0.285925 -0.512261
v -1.468580 -0.271127 -0.512392
v -1.466083 -0.257742 -0.504924
v -1.466464 -0.249358 -0.491858
v -1.469621 -0.248220 -0.476696
v -1.474708 -0.254633 -0.463500
v -1.480363 -0.266880 -0.455806
v -1.485070 -0.281678 -0.455675
v -1.487567 -0.295062 -0.463143
v -1.487186 -0.303447 -0.476209
v -1.484029 -0.304585 -0.491371
v -1.478942 -0.298172 -0.504567
v -1.473287 -0.285925 -0.512261
v -1.468580 -0.271127 -0.512392
v -1.350210 -0.294336 -0.477841
v -1.348639 -0.286585 -0.464476
v -1.349661 -0.286140 -0.448987
v -1.353003 -0.293121 -0.435524
v -1.357769 -0.305656 -0.427693
v -1.362682 -0.320387 -0.427594
v -1.366426 -0.333367 -0.435253
v -1.367997 -0.341118 -0.448617
v -1.366975 -0.341563 -0.464106
v -1.363633 -0.334583 -0.477570
v -1.358867 -0.322048 -0.485400
v -1.353954 -0.307317 -0.485499
v -1.210512 -0.343320 -0.488773
v -1.206205 -0.336769 -0.475368
v -1.205564 -0.337053 -0.459855
v -1.208763 -0.344095 -0.446390
v -1.214944 -0.356010 -0.438580
v -1.222451 -0.369604 -0.438519
v -1.229272 -0.381235 -0.446223
v -1.233579 -0.387787 -0.459627
v -1.234219 -0.387503 -0.475140
v -1.231020 -0.380461 -0.488606
v -1.224839 -0.368546 -0.496415
v -1.217333 -0.354952 -0.496477
v -1.116908 -0.417299 -0.490318
v -1.112427 -0.410867 -0.476912
v -1.113080 -0.410255 -0.461409
v -1.118692 -0.415625 -0.447962
v -1.127760 -0.425539 -0.440175
v -1.137853 -0.437341 -0.440134
v -1.146268 -0.447868 -0.447850
v -1.150749 -0.454299 -0.461256
v -1.150096 -0.454912 -0.476759
v -1.144483 -0.449541 -0.490206
v -1.135416 -0.439627 -0.497993
v -1.125323 -0.427825 -0.498034
v -1.004859 -0.520100 -0.470638
v -1.000892 -0.513214 -0.457296
v -1.002373 -0.511868 -0.441897
v -1.008906 -0.516423 -0.428565
v -1.018740 -0.525658 -0.420874
v -1.029241 -0.537099 -0.420884
v -1.037594 -0.547680 -0.428592
v -1.041561 -0.554566 -0.441934
v -1.040080 -0.555912 -0.457333
v -1.033547 -0.551357 -0.470665
v -1.023713 -0.542122 -0.478356
v -1.013213 -0.530681 -0.478346
v -0.694914 -0.420997 0.755977
v -0.683093 -0.414111 0.748628
v -0.667849 -0.412765 0.745992
v -0.653266 -0.417320 0.748774
v -0.643252 -0.426555 0.756229
v -0.640489 -0.437996 0.766360
v -0.645719 -0.448577 0.776451
v -0.657540 -0.455463 0.783800
v -0.672785 -0.456809 0.786436
v -0.687368 -0.452254 0.783654
v -0.697382 -0.443019 0.776199
v -0.700144 -0.431578 0.766068
v -0.710948 -0.207480 1.107003
v -0.698245 -0.199096 1.103922
v -0.682787 -0.197958 1.102964
v -0.668716 -0.204371 1.104388
v -0.659802 -0.216618 1.107811
v -0.658434 -0.231416 1.112317
v -0.664978 -0.244801 1.116697
v -0.677680 -0.253185 1.119778
v -0.693138 -0.254323 1.120735
v -0.707209 -0.247910 1.119312
v -0.716123 -0.235663 1.115889
v -0.717492 -0.220865 1.111383
v -0.710948 -0.207480 1.107003
v -0.698245 -0.199096 1.103922
v -0.682787 -0.197958 1.102964
v -0.668716 -0.204371 1.104388
v -0.659802 -0.216618 1.107811
v -0.658434 -0.231416 1.112317
v -0.664978 -0.244801 1.116697
v -0.677680 -0.253185 1.119778
v -0.693138 -0.254323 1.120735
v -0.707209 -0.247910 1.119312
v -0.716123 -0.235663 1.115889
v -0.717492 -0.220865 1.111383
v -0.686002 -0.219697 1.024269
v -0.673526 -0.211946 1.019226
v -0.658316 -0.211501 1.016124
v -0.644448 -0.218481 1.015793
v -0.635638 -0.231016 1.018323
v -0.634245 -0.245748 1.023036
v -0.640644 -0.258728 1.028668
v -0.653120 -0.266479 1.033712
v -0.668329 -0.266924 1.036814
v -0.682197 -0.259944 1.037145
v -0.691008 -0.247409 1.034615
v -0.692400 -0.232677 1.029902
v -0.705784 -0.260905 0.971544
v -0.693992 -0.254353 0.963851
v -0.679198 -0.254637 0.959138
v -0.665365 -0.261680 0.958669
v -0.656201 -0.273595 0.962569
v -0.654161 -0.287189 0.969794
v -0.659791 -0.298820 0.978406
v -0.671583 -0.305371 0.986099
v -0.686377 -0.305088 0.990811
v -0.700209 -0.298045 0.991280
v -0.709373 -0.286130 0.987380
v -0.711414 -0.272536 0.980156
v -0.705805 -0.280870 0.864339
v -0.694057 -0.274439 0.856478
v -0.678932 -0.273827 0.853016
v -0.664480 -0.279197 0.854879
v -0.654576 -0.289111 0.861570
v -0.651872 -0.300913 0.871294
v -0.657093 -0.311440 0.881447
v -0.668841 -0.317871 0.889308
v -0.683966 -0.318483 0.892770
v -0.698418 -0.313113 0.890907
v -0.708322 -0.303199 0.884216
v -0.711026 -0.291397 0.874492
v -0.694914 -0.420997 0.755977
v -0.683093 -0.414111 0.748628
v -0.667849 -0.412765 0.745992
v -0.653266 -0.417320 0.748774
v -0.643252 -0.426555 0.756229
v -0.640489 -0.437996 0.766360
v -0.645719 -0.448577 0.776451
v -0.657540 -0.455463 0.783800
v -0.672785 -0.456809 0.786436
v -0.687368 -0.452254 0.783654
v -0.697382 -0.443019 0.776199
v -0.700144 -0.431578 0.766068
v 0.590328 -0.423495 0.865047
v 0.602148 -0.416609 0.857698
v 0.617393 -0.415262 0.855062
v 0.631976 -0.419817 0.857844
v 0.641990 -0.429052 0.865299
v 0.644753 -0.440493 0.875430
v 0.639523 -0.451074 0.885521
v 0.627701 -0.457960 0.892870
v 0.612457 -0.459306 0.895506
v 0.597874 -0.454752 0.892724
v 0.587860 -0.445517 0.885269
v 0.585097 -0.434076 0.875138
v 0.656341 -0.174534 1.128367
v 0.669044 -0.166149 1.125285
v 0.684502 -0.165011 1.124328
v 0.698573 -0.171425 1.125752
v 0.707487 -0.183672 1.129175
v 0.708855 -0.198470 1.133680
v 0.702312 -0.211854 1.138061
v 0.689609 -0.220239 1.141142
v 0.674151 -0.221377 1.142099
v 0.660080 -0.214963 1.140675
v 0.651166 -0.202717 1.137252
v 0.649798 -0.187919 1.132747
v 0.656341 -0.174534 1.128367
v 0.669044 -0.166149 1.125285
v 0.684502 -0.165011 1.124328
v 0.698573 -0.171425 1.125752
v 0.707487 -0.183672 1.129175
v 0.708855 -0.198470 1.133680
v 0.702312 -0.211854 1.138061
v 0.689609 -0.220239 1.141142
v 0.674151 -0.221377 1.142099
v 0.660080 -0.214963 1.140675
v 0.651166 -0.202717 1.137252
v 0.649798 -0.187919 1.132747
v 0.668949 -0.206755 1.006991
v 0.681425 -0.199004 1.001948
v 0.696635 -0.198559 0.998845
v 0.710503 -0.205539 0.998514
v 0.719313 -0.218074 1.001044
v 0.720706 -0.232805 1.005757
v 0.714307 -0.245785 1.011390
v 0.701831 -0.253536 1.016433
v 0.686622 -0.253981 1.019536
v 0.672754 -0.247001 1.019866
v 0.663943 -0.234466 1.017336
v 0.662550 -0.219735 1.012624
v 0.629421 -0.232792 0.962386
v 0.641213 -0.226241 0.954693
v 0.656007 -0.226524 0.949980
v 0.669840 -0.233567 0.949511
v 0.679004 -0.245482 0.953411
v 0.681045 -0.259076 0.960636
v 0.675415 -0.270707 0.969248
v 0.663623 -0.277259 0.976941
v 0.648828 -0.276975 0.981653
v 0.634996 -0.269933 0.982123
v 0.625832 -0.258018 0.978222
v 0.623792 -0.244423 0.970998
v 0.591677 -0.327172 0.910656
v 0.603424 -0.320741 0.902796
v 0.618550 -0.320129 0.899333
v 0.633001 -0.325499 0.901197
v 0.642905 -0.335413 0.907887
v 0.645609 -0.347215 0.917612
v 0.640388 -0.357741 0.927765
v 0.628641 -0.364173 0.935625
v 0.613515 -0.364785 0.939088
v 0.599064 -0.359415 0.937224
v 0.589159 -0.349501 0.930534
v 0.586455 -0.337699 0.920809
v 0.590328 -0.423495 0.865047
v 0.602148 -0.416609 0.857698
v 0.617393 -0.415262 0.855062
v 0.631976 -0.419817 0.857844
v 0.641990 -0.429052 0.865299
v 0.644753 -0.440493 0.875430
v 0.639523 -0.451074 0.885521
v 0.627701 -0.457960 0.892870
v 0.612457 -0.459306 0.895506
v 0.597874 -0.454752 0.892724
v 0.587860 -0.445517 0.885269
v 0.585097 -0.434076 0.875138
v 1.048086 -0.456157 0.549502
v 1.043596 -0.449271 0.536328
v 1.044469 -0.447925 0.520882
v 1.050471 -0.452480 0.507303
v 1.059995 -0.461715 0.499230
v 1.070487 -0.473156 0.498826
v 1.079138 -0.483737 0.506199
v 1.083628 -0.490623 0.519374
v 1.082756 -0.491969 0.534820
v 1.076753 -0.487414 0.548399
v 1.067230 -0.478179 0.556472
v 1.056737 -0.466738 0.556876
v 1.363743 -0.183766 0.565402
v 1.363609 -0.175381 0.552331
v 1.366166 -0.174243 0.537056
v 1.370729 -0.180657 0.523670
v 1.376076 -0.192903 0.515759
v 1.380774 -0.207701 0.515443
v 1.383564 -0.221086 0.522806
v 1.383698 -0.229470 0.535877
v 1.381142 -0.230608 0.551152
v 1.376578 -0.224195 0.564538
v 1.371231 -0.211948 0.572449
v 1.366533 -0.197150 0.572765
v 1.363743 -0.183766 0.565402
v 1.363609 -0.175381 0.552331
v 1.366166 -0.174243 0.537056
v 1.370729 -0.180657 0.523670
v 1.376076 -0.192903 0.515759
v 1.380774 -0.207701 0.515443
v 1.383564 -0.221086 0.522806
v 1.383698 -0.229470 0.535877
v 1.381142 -0.230608 0.551152
v 1.376578 -0.224195 0.564538
v 1.371231 -0.211948 0.572449
v 1.366533 -0.197150 0.572765
v 1.277893 -0.217379 0.558205
v 1.275796 -0.209628 0.544913
v 1.276206 -0.209183 0.529395
v 1.279015 -0.216163 0.515810
v 1.283469 -0.228698 0.507798
v 1.288374 -0.243429 0.507506
v 1.292417 -0.256409 0.515011
v 1.294514 -0.264160 0.528303
v 1.294103 -0.264605 0.543820
v 1.291294 -0.257625 0.557405
v 1.286841 -0.245090 0.565417
v 1.281935 -0.230359 0.565710
v 1.216757 -0.304339 0.562891
v 1.211925 -0.297787 0.549667
v 1.210673 -0.298071 0.534191
v 1.213339 -0.305114 0.520610
v 1.219207 -0.317028 0.512563
v 1.226705 -0.330623 0.512206
v 1.233825 -0.342254 0.519635
v 1.238657 -0.348805 0.532859
v 1.239908 -0.348522 0.548335
v 1.237243 -0.341479 0.561916
v 1.231374 -0.329564 0.569963
v 1.223876 -0.315970 0.570320
v 1.139412 -0.393880 0.562464
v 1.134406 -0.387448 0.549245
v 1.134448 -0.386836 0.533728
v 1.139525 -0.392206 0.520071
v 1.148279 -0.402121 0.511932
v 1.158363 -0.413922 0.511493
v 1.167075 -0.424449 0.518872
v 1.172081 -0.430880 0.532090
v 1.172040 -0.431493 0.547607
v 1.166962 -0.426122 0.561265
v 1.158208 -0.416208 0.569403
v 1.148124 -0.404406 0.569842
v 1.048086 -0.456157 0.549502
v 1.043596 -0.449271 0.536328
v 1.044469 -0.447925 0.520882
v 1.050471 -0.452480 0.507303
v 1.059995 -0.461715 0.499230
v 1.070487 -0.473156 0.498826
v 1.079138 -0.483737 0.506199
v 1.083628 -0.490623 0.519374
v 1.082756 -0.491969 0.534820
v 1.076753 -0.487414 0.548399
v 1.067230 -0.478179 0.556472
v 1.056737 -0.466738 0.556876
v 1.012664 -0.492686 -0.322452
v 1.003756 -0.492284 -0.335166
v 1.002256 -0.493442 -0.350579
v 1.008567 -0.495849 -0.364562
v 1.020998 -0.498861 -0.373368
v 1.036218 -0.501670 -0.374638
v 1.050149 -0.503525 -0.368032
v 1.059058 -0.503927 -0.355318
v 1.060557 -0.502769 -0.339905
v 1.054246 -0.500362 -0.325922
v 1.041815 -0.497350 -0.317116
v 1.026595 -0.494540 -0.315846
v 1.378567 -0.181778 -0.295834
v 1.376302 -0.173394 -0.308708
v 1.376332 -0.172256 -0.324195
v 1.378650 -0.178669 -0.338147
v 1.382635 -0.190916 -0.346824
v 1.387218 -0.205714 -0.347903
v 1.391172 -0.219098 -0.341093
v 1.393437 -0.227483 -0.328220
v 1.393407 -0.228621 -0.312732
v 1.391089 -0.222207 -0.298781
v 1.387105 -0.209961 -0.290103
v 1.382521 -0.195163 -0.289025
v 1.378567 -0.181778 -0.295834
v 1.376302 -0.173394 -0.308708
v 1.376332 -0.172256 -0.324195
v 1.378650 -0.178669 -0.338147
v 1.382635 -0.190916 -0.346824
v 1.387218 -0.205714 -0.347903
v 1.391172 -0.219098 -0.341093
v 1.393437 -0.227483 -0.328220
v 1.393407 -0.228621 -0.312732
v 1.391089 -0.222207 -0.298781
v 1.387105 -0.209961 -0.290103
v 1.382521 -0.195163 -0.289025
v 1.323174 -0.187204 -0.321337
v 1.318936 -0.179453 -0.334109
v 1.316810 -0.179008 -0.349485
v 1.317364 -0.185988 -0.363346
v 1.320451 -0.198523 -0.371977
v 1.325243 -0.213254 -0.373067
v 1.330456 -0.226234 -0.366322
v 1.334693 -0.233985 -0.353550
v 1.336820 -0.234430 -0.338173
v 1.336266 -0.227450 -0.324312
v 1.333179 -0.214915 -0.315681
v 1.328387 -0.200184 -0.314592
v 1.189351 -0.259459 -0.338430
v 1.182425 -0.252907 -0.350689
v 1.178665 -0.253191 -0.365753
v 1.179079 -0.260234 -0.379587
v 1.183556 -0.272148 -0.388484
v 1.190895 -0.285743 -0.390060
v 1.199131 -0.297374 -0.383892
v 1.206057 -0.303925 -0.371634
v 1.209816 -0.303642 -0.356569
v 1.209402 -0.296599 -0.342735
v 1.204926 -0.284684 -0.333838
v 1.197587 -0.271090 -0.332263
v 1.082105 -0.359824 -0.335698
v 1.075009 -0.353393 -0.347923
v 1.072518 -0.352780 -0.363239
v 1.075299 -0.358151 -0.377542
v 1.082607 -0.368065 -0.387000
v 1.092484 -0.379867 -0.389078
v 1.102284 -0.390393 -0.383220
v 1.109379 -0.396824 -0.370995
v 1.111871 -0.397437 -0.355680
v 1.109089 -0.392067 -0.341377
v 1.101781 -0.382152 -0.331919
v 1.091904 -0.370351 -0.329840
v 1.012664 -0.492686 -0.322452
v 1.003756 -0.492284 -0.335166
v 1.002256 -0.493442 -0.350579
v 1.008567 -0.495849 -0.364562
v 1.020998 -0.498861 -0.373368
v 1.036218 -0.501670 -0.374638
v 1.050149 -0.503525 -0.368032
v 1.059058 -0.503927 -0.355318
v 1.060557 -0.502769 -0.339905
v 1.054246 -0.500362 -0.325922
v 1.041815 -0.497350 -0.317116
v 1.026595 -0.494540 -0.315846
v 1.691698 -0.062580 -0.573334
v 1.704741 -0.071009 -0.573323
v 1.720070 -0.072068 -0.575570
v 1.733578 -0.065475 -0.579471
v 1.741646 -0.052996 -0.583981
v 1.742111 -0.037975 -0.587892
v 1.734849 -0.024436 -0.590156
v 1.721806 -0.016008 -0.590167
v 1.706477 -0.014948 -0.587921
v 1.692969 -0.021541 -0.584020
v 1.684901 -0.034020 -0.579509
v 1.684436 -0.049042 -0.575598
v 1.646292 -0.076459 -1.102937
v 1.658995 -0.084159 -1.107464
v 1.674095 -0.084240 -1.111088
v 1.687546 -0.076680 -1.112839
v 1.695745 -0.063505 -1.112246
v 1.696493 -0.048244 -1.109470
v 1.689591 -0.034988 -1.105254
v 1.676888 -0.027287 -1.100727
v 1.661788 -0.027206 -1.097103
v 1.648336 -0.034766 -1.095353
v 1.640138 -0.047942 -1.095945
v 1.639390 -0.063202 -1.098721
v 1.646292 -0.076459 -1.102937
v 1.658995 -0.084159 -1.107464
v 1.674095 -0.084240 -1.111088
v 1.687546 -0.076680 -1.112839
v 1.695745 -0.063505 -1.112246
v 1.696493 -0.048244 -1.109470
v 1.689591 -0.034988 -1.105254
v 1.676888 -0.027287 -1.100727
v 1.661788 -0.027206 -1.097103
v 1.648336 -0.034766 -1.095353
v 1.640138 -0.047942 -1.095945
v 1.639390 -0.063202 -1.098721
v 1.674926 -0.099521 -0.983995
v 1.687954 -0.107589 -0.986506
v 1.703411 -0.108072 -0.987927
v 1.717154 -0.100841 -0.987875
v 1.725500 -0.087833 -0.986366
v 1.726214 -0.072533 -0.983803
v 1.719104 -0.059042 -0.980873
v 1.706075 -0.050974 -0.978361
v 1.690619 -0.050491 -0.976941
v 1.676876 -0.057722 -0.976992
v 1.668530 -0.070730 -0.978502
v 1.667816 -0.086030 -0.981065
v 1.666104 -0.121429 -0.837445
v 1.679224 -0.129723 -0.836979
v 1.694736 -0.130344 -0.836591
v 1.708483 -0.123125 -0.836384
v 1.716782 -0.109999 -0.836414
v 1.717410 -0.094485 -0.836673
v 1.710197 -0.080739 -0.837092
v 1.697077 -0.072444 -0.837558
v 1.681566 -0.071823 -0.837947
v 1.667818 -0.079043 -0.838154
v 1.659519 -0.092168 -0.838123
v 1.658891 -0.107682 -0.837864
v 1.667691 -0.100004 -0.720077
v 1.680817 -0.108274 -0.719401
v 1.696281 -0.109079 -0.720574
v 1.709939 -0.102202 -0.723282
v 1.718131 -0.089487 -0.726799
v 1.718662 -0.074341 -0.730182
v 1.711391 -0.060821 -0.732526
v 1.698264 -0.052551 -0.733202
v 1.682800 -0.051746 -0.732028
v 1.669143 -0.058623 -0.729321
v 1.660951 -0.071338 -0.725804
v 1.660419 -0.086484 -0.722420
v 1.691698 -0.062580 -0.573334
v 1.704741 -0.071009 -0.573323
v 1.720070 -0.072068 -0.575570
v 1.733578 -0.065475 -0.579471
v 1.741646 -0.052996 -0.583981
v 1.742111 -0.037975 -0.587892
v 1.734849 -0.024436 -0.590156
v 1.721806 -0.016008 -0.590167
v 1.706477 -0.014948 -0.587921
v 1.692969 -0.021541 -0.584020
v 1.684901 -0.034020 -0.579509
v 1.684436 -0.049042 -0.575598
v 0.537853 -0.355201 -0.751418
v 0.524589 -0.348315 -0.747198
v 0.509164 -0.346969 -0.748388
v 0.495712 -0.351524 -0.754667
v 0.487836 -0.360759 -0.764354
v 0.487647 -0.372200 -0.774853
v 0.495196 -0.382781 -0.783350
v 0.508460 -0.389667 -0.787570
v 0.523885 -0.391013 -0.786380
v 0.537337 -0.386458 -0.780101
v 0.545213 -0.377223 -0.770414
v 0.545402 -0.365783 -0.759915
v 0.567961 -0.249309 -1.187243
v 0.554890 -0.240925 -1.187376
v 0.539671 -0.239787 -1.190246
v 0.526381 -0.246200 -1.195083
v 0.518581 -0.258447 -1.200591
v 0.518361 -0.273245 -1.205294
v 0.525780 -0.286629 -1.207933
v 0.538851 -0.295014 -1.207799
v 0.554070 -0.296152 -1.204930
v 0.567360 -0.289738 -1.200093
v 0.575160 -0.277492 -1.194585
v 0.575380 -0.262694 -1.189882
v 0.567961 -0.249309 -1.187243
v 0.554890 -0.240925 -1.187376
v 0.539671 -0.239787 -1.190246
v 0.526381 -0.246200 -1.195083
v 0.518581 -0.258447 -1.200591
v 0.518361 -0.273245 -1.205294
v 0.525780 -0.286629 -1.207933
v 0.538851 -0.295014 -1.207799
v 0.554070 -0.296152 -1.204930
v 0.567360 -0.289738 -1.200093
v 0.575160 -0.277492 -1.194585
v 0.575380 -0.262694 -1.189882
v 0.548981 -0.243510 -1.111543
v 0.535649 -0.235759 -1.109719
v 0.520143 -0.235314 -1.110448
v 0.506619 -0.242294 -1.113535
v 0.498700 -0.254829 -1.118151
v 0.498508 -0.269560 -1.123062
v 0.506094 -0.282540 -1.126950
v 0.519426 -0.290291 -1.128774
v 0.534932 -0.290736 -1.128045
v 0.548456 -0.283756 -1.124959
v 0.556376 -0.271221 -1.120342
v 0.556567 -0.256490 -1.115431
v 0.567185 -0.288187 -1.007576
v 0.553865 -0.281635 -1.003015
v 0.538366 -0.281919 -1.002082
v 0.524843 -0.288961 -1.005025
v 0.516917 -0.300876 -1.011057
v 0.516714 -0.314470 -1.018561
v 0.524288 -0.326102 -1.025527
v 0.537608 -0.332653 -1.030087
v 0.553106 -0.332369 -1.031020
v 0.566630 -0.325327 -1.028077
v 0.574555 -0.313412 -1.022045
v 0.574759 -0.299818 -1.014541
v 0.555280 -0.291719 -0.867122
v 0.541961 -0.285288 -0.862388
v 0.526448 -0.284675 -0.862748
v 0.512898 -0.290046 -0.868104
v 0.504940 -0.299960 -0.877023
v 0.504708 -0.311762 -0.887114
v 0.512264 -0.322288 -0.895673
v 0.525582 -0.328720 -0.900407
v 0.541095 -0.329332 -0.900047
v 0.554646 -0.323962 -0.894691
v 0.562603 -0.314048 -0.885772
v 0.562835 -0.302246 -0.875681
v 0.537853 -0.355201 -0.751418
v 0.524589 -0.348315 -0.747198
v 0.509164 -0.346969 -0.748388
v 0.495712 -0.351524 -0.754667
v 0.487836 -0.360759 -0.764354
v 0.487647 -0.372200 -0.774853
v 0.495196 -0.382781 -0.783350
v 0.508460 -0.389667 -0.787570
v 0.523885 -0.391013 -0.786380
v 0.537337 -0.386458 -0.780101
v 0.545213 -0.377223 -0.770414
v 0.545402 -0.365783 -0.759915
v -0.468693 -0.441150 -0.943002
v -0.480361 -0.434264 -0.935412
v -0.495548 -0.432917 -0.932463
v -0.510185 -0.437472 -0.934945
v -0.520351 -0.446707 -0.942193
v -0.523320 -0.458148 -0.952265
v -0.518299 -0.468729 -0.962462
v -0.506631 -0.475615 -0.970052
v -0.491444 -0.476961 -0.973001
v -0.476807 -0.472407 -0.970518
v -0.466641 -0.463172 -0.963271
v -0.463672 -0.451731 -0.953199
v -0.512666 -0.261917 -1.172385
v -0.525302 -0.253533 -1.169043
v -0.540737 -0.252395 -1.167768
v -0.554834 -0.258808 -1.168903
v -0.563817 -0.271055 -1.172142
v -0.565277 -0.285853 -1.176618
v -0.558825 -0.299238 -1.181132
v -0.546188 -0.307622 -1.184474
v -0.530754 -0.308760 -1.185748
v -0.516656 -0.302347 -1.184614
v -0.507674 -0.290100 -1.181375
v -0.506213 -0.275302 -1.176898
v -0.512666 -0.261917 -1.172385
v -0.525302 -0.253533 -1.169043
v -0.540737 -0.252395 -1.167768
v -0.554834 -0.258808 -1.168903
v -0.563817 -0.271055 -1.172142
v -0.565277 -0.285853 -1.176618
v -0.558825 -0.299238 -1.181132
v -0.546188 -0.307622 -1.184474
v -0.530754 -0.308760 -1.185748
v -0.516656 -0.302347 -1.184614
v -0.507674 -0.290100 -1.181375
v -0.506213 -0.275302 -1.176898
v -0.497122 -0.282698 -1.099002
v -0.509492 -0.274947 -1.093703
v -0.524635 -0.274502 -1.090289
v -0.538493 -0.281482 -1.089674
v -0.547354 -0.294017 -1.092022
v -0.548843 -0.308748 -1.096705
v -0.542561 -0.321728 -1.102468
v -0.530191 -0.329479 -1.107767
v -0.515049 -0.329924 -1.111181
v -0.501190 -0.322944 -1.111796
v -0.492330 -0.310409 -1.109448
v -0.490841 -0.295678 -1.104765
v -0.481698 -0.305895 -1.034299
v -0.493330 -0.299344 -1.026366
v -0.508024 -0.299627 -1.021351
v -0.521844 -0.306670 -1.020597
v -0.531086 -0.318585 -1.024309
v -0.533275 -0.332179 -1.031489
v -0.527823 -0.343810 -1.040216
v -0.516191 -0.350362 -1.048149
v -0.501497 -0.350078 -1.053164
v -0.487677 -0.343035 -1.053917
v -0.478435 -0.331120 -1.050206
v -0.476247 -0.317526 -1.043026
v -0.474118 -0.363334 -0.987701
v -0.485701 -0.356903 -0.979600
v -0.500753 -0.356290 -0.975828
v -0.515240 -0.361661 -0.977394
v -0.525279 -0.371575 -0.983880
v -0.528183 -0.383376 -0.993547
v -0.523171 -0.393903 -1.003805
v -0.511587 -0.400334 -1.011905
v -0.496536 -0.400947 -1.015677
v -0.482049 -0.395577 -1.014111
v -0.472009 -0.385662 -1.007625
v -0.469106 -0.373861 -0.997959
v -0.468693 -0.441150 -0.943002
v -0.480361 -0.434264 -0.935412
v -0.495548 -0.432917 -0.932463
v -0.510185 -0.437472 -0.934945
v -0.520351 -0.446707 -0.942193
v -0.523320 -0.458148 -0.952265
v -0.518299 -0.468729 -0.962462
v -0.506631 -0.475615 -0.970052
v -0.491444 -0.476961 -0.973001
v -0.476807 -0.472407 -0.970518
v -0.466641 -0.463172 -0.963271
v -0.463672 -0.451731 -0.953199
v -1.442160 -0.192194 -1.154585
v -1.447864 -0.183249 -1.165925
v -1.451342 -0.181114 -1.180908
v -1.451663 -0.186363 -1.195520
v -1.448740 -0.197588 -1.205845
v -1.443356 -0.211781 -1.209117
v -1.436954 -0.225141 -1.204459
v -1.431250 -0.234086 -1.193119
v -1.427772 -0.236221 -1.178136
v -1.427451 -0.230972 -1.163524
v -1.430375 -0.219747 -1.153199
v -1.435758 -0.205554 -1.149927
v -0.937195 -0.098651 -1.292405
v -0.938482 -0.089738 -1.305056
v -0.940477 -0.088366 -1.320395
v -0.942646 -0.094905 -1.334313
v -0.944407 -0.107601 -1.343080
v -0.945289 -0.123053 -1.344346
v -0.945055 -0.137121 -1.337774
v -0.943768 -0.146035 -1.325123
v -0.941773 -0.147406 -1.309784
v -0.939604 -0.140868 -1.295866
v -0.937843 -0.128171 -1.287099
v -0.936961 -0.112719 -1.285833
v -0.937195 -0.098651 -1.292405
v -0.938482 -0.089738 -1.305056
v -0.940477 -0.088366 -1.320395
v -0.942646 -0.094905 -1.334313
v -0.944407 -0.107601 -1.343080
v -0.945289 -0.123053 -1.344346
v -0.945055 -0.137121 -1.337774
v -0.943768 -0.146035 -1.325123
v -0.941773 -0.147406 -1.309784
v -0.939604 -0.140868 -1.295866
v -0.937843 -0.128171 -1.287099
v -0.936961 -0.112719 -1.285833
v -1.060481 -0.092937 -1.276066
v -1.063798 -0.083956 -1.288293
v -1.068012 -0.082512 -1.303170
v -1.071996 -0.088992 -1.316709
v -1.074680 -0.101658 -1.325283
v -1.075347 -0.117117 -1.326594
v -1.073818 -0.131227 -1.320292
v -1.070501 -0.140207 -1.308065
v -1.066287 -0.141651 -1.293188
v -1.062304 -0.135172 -1.279649
v -1.059619 -0.122506 -1.271075
v -1.058952 -0.107047 -1.269763
v -1.195945 -0.094448 -1.215388
v -1.202082 -0.085702 -1.226657
v -1.208010 -0.084399 -1.240951
v -1.212140 -0.090891 -1.254440
v -1.213367 -0.103436 -1.263510
v -1.211361 -0.118674 -1.265730
v -1.206660 -0.132522 -1.260506
v -1.200523 -0.141269 -1.249237
v -1.194595 -0.142571 -1.234943
v -1.190465 -0.136080 -1.221454
v -1.189238 -0.123534 -1.212384
v -1.191244 -0.108296 -1.210164
v -1.302504 -0.133694 -1.178756
v -1.308834 -0.125004 -1.189961
v -1.313321 -0.123281 -1.204727
v -1.314763 -0.128986 -1.219098
v -1.312774 -0.140592 -1.229223
v -1.307887 -0.154988 -1.232388
v -1.301410 -0.168317 -1.227746
v -1.295081 -0.177007 -1.216540
v -1.290593 -0.178731 -1.201774
v -1.289151 -0.173025 -1.187403
v -1.291140 -0.161419 -1.177279
v -1.296027 -0.147023 -1.174113
v -1.442160 -0.192194 -1.154585
v -1.447864 -0.183249 -1.165925
v -1.451342 -0.181114 -1.180908
v -1.451663 -0.186363 -1.195520
v -1.448740 -0.197588 -1.205845
v -1.443356 -0.211781 -1.209117
v -1.436954 -0.225141 -1.204459
v -1.431250 -0.234086 -1.193119
v -1.427772 -0.236221 -1.178136
v -1.427451 -0.230972 -1.163524
v -1.430375 -0.219747 -1.153199
v -1.435758 -0.205554 -1.149927
vn 0.7305 -0.6706 0.1289
vn -0.9310 0.2942 -0.2159
vn 0.4215 0.3741 -0.8260
vn 0.3969 0.7754 -0.4912
vn 0.2657 0.9640 -0.0136
vn 0.0673 0.8828 0.4648
vn -0.1430 0.5679 0.8106
vn -0.3153 0.1101 0.9426
vn -0.4091 -0.3793 0.8299
vn -0.3942 -0.7764 0.4918
vn -0.2652 -0.9641 0.0136
vn -0.0585 -0.8845 -0.4629
vn 0.1615 -0.5718 -0.8044
vn 0.3352 -0.1165 -0.9349
vn 0.4367 0.3340 -0.8353
vn 0.6158 0.6307 -0.4722
vn 0.6414 0.7672 0.0039
vn 0.5075 0.7076 0.4917
vn 0.2309 0.4489 0.8633
vn -0.1200 0.0582 0.9911
vn -0.4355 -0.3347 0.8357
vn -0.6291 -0.6197 0.4693
vn -0.6644 -0.7473 -0.0043
vn -0.5284 -0.6937 -0.4895
vn -0.2356 -0.4467 -0.8631
vn 0.1278 -0.0616 -0.9899
vn 0.4173 0.3081 -0.8550
vn 0.7292 0.4909 -0.4767
vn 0.8431 0.5378 -0.0053
vn 0.7628 0.4549 0.4596
vn 0.4883 0.2552 0.8345
vn 0.0444 -0.0267 0.9987
vn -0.4310 -0.2967 0.8522
vn -0.7539 -0.4594 0.4696
vn -0.8653 -0.5013 0.0050
vn -0.7771 -0.4348 -0.4550
vn -0.4897 -0.2539 -0.8341
vn -0.0417 0.0249 -0.9988
vn 0.4678 0.2483 -0.8483
vn 0.7856 0.4179 -0.4562
vn 0.8831 0.4681 0.0313
vn 0.7676 0.4038 0.4978
vn 0.4588 0.2388 0.8558
vn 0.0021 -0.0005 1.0000
vn -0.4705 -0.2456 0.8475
vn -0.7900 -0.4116 0.4544
vn -0.8856 -0.4633 -0.0318
vn -0.7672 -0.4045 -0.4979
vn -0.4555 -0.2427 -0.8565
vn 0.0002 -0.0016 -1.0000
vn 0.3287 0.4102 -0.8507
vn 0.3646 0.7874 -0.4971
vn 0.3030 0.9530 -0.0079
vn 0.1608 0.8606 0.4832
vn -0.0234 0.5378 0.8428
vn -0.2010 0.0731 0.9769
vn -0.3257 -0.4113 0.8513
vn -0.3638 -0.7877 0.4973
vn -0.3030 -0.9530 0.0079
vn -0.1592 -0.8611 -0.4829
vn 0.0272 -0.5389 -0.8419
vn 0.2055 -0.0745 -0.9758
vn 0.1043 0.4940 -0.8632
vn 0.2529 0.8292 -0.4986
vn 0.3327 0.9430 -0.0008
vn 0.3221 0.8054 0.4976
vn 0.2248 0.4516 0.8634
vn 0.0683 -0.0243 0.9974
vn -0.1047 -0.4939 0.8632
vn -0.2488 -0.8305 0.4984
vn -0.3274 -0.9449 0.0009
vn -0.3203 -0.8061 -0.4976
vn -0.2274 -0.4504 -0.8634
vn -0.0720 0.0259 -0.9971
vn 0.2999 0.3974 -0.8673
vn 0.5304 0.6817 -0.5040
vn 0.6202 0.7844 -0.0081
vn 0.5461 0.6782 0.4916
vn 0.3249 0.3890 0.8621
vn 0.0141 -0.0057 0.9999
vn -0.3011 -0.3965 0.8673
vn -0.5348 -0.6784 0.5038
vn -0.6256 -0.7801 0.0080
vn -0.5496 -0.6756 -0.4915
vn -0.3252 -0.3887 -0.8620
vn -0.0132 0.0051 -0.9999
vn 0.4202 0.2936 -0.8586
vn 0.6328 0.5947 -0.4960
vn 0.6762 0.7368 -0.0000
vn 0.5379 0.6813 0.4965
vn 0.2549 0.4431 0.8595
vn -0.0962 0.0865 0.9916
vn -0.4211 -0.2928 0.8585
vn -0.6334 -0.5941 0.4959
vn -0.6763 -0.7366 -0.0000
vn -0.5379 -0.6813 -0.4965
vn -0.2552 -0.4429 -0.8595
vn 0.0954 -0.0859 -0.9917
vn -0.0685 -0.6706 -0.7386
vn 0.0375 0.2942 0.9550
vn -0.8931 0.3175 -0.3186
vn -0.5808 0.7620 -0.2864
vn -0.0735 0.9823 -0.1722
vn 0.4329 0.9012 -0.0218
vn 0.7936 0.5965 0.1203
vn 0.9588 0.1624 0.2332
vn 0.8969 -0.3273 0.2976
vn 0.5805 -0.7637 0.2824
vn 0.0734 -0.9825 0.1710
vn -0.4324 -0.9017 0.0040
vn -0.7858 -0.5990 -0.1539
vn -0.9480 -0.1722 -0.2675
vn -0.8996 0.4368 -0.0050
vn -0.6028 0.7239 -0.3355
vn -0.1510 0.8125 -0.5630
vn 0.3309 0.6903 -0.6435
vn 0.7295 0.3882 -0.5631
vn 0.9433 -0.0251 -0.3309
vn 0.8995 -0.4369 0.0047
vn 0.6046 -0.7172 0.3465
vn 0.1580 -0.7917 0.5901
vn -0.3170 -0.6648 0.6764
vn -0.7177 -0.3729 0.5881
vn -0.9403 0.0289 0.3390
vn -0.9186 0.3885 -0.0724
vn -0.5527 0.8192 -0.1527
vn -0.0601 0.9817 -0.1807
vn 0.4034 0.9017 -0.1555
vn 0.7716 0.6294 -0.0921
vn 0.9838 0.1792 -0.0070
vn 0.9193 -0.3863 0.0755
vn 0.5404 -0.8324 0.1231
vn 0.0472 -0.9900 0.1328
vn -0.4039 -0.9067 0.1215
vn -0.7711 -0.6305 0.0888
vn -0.9853 -0.1692 0.0223
vn -0.9362 0.1667 -0.3095
vn -0.6486 0.4330 -0.6259
vn -0.1954 0.5892 -0.7840
vn 0.3210 0.5936 -0.7380
vn 0.7603 0.4334 -0.4838
vn 0.9840 0.1523 -0.0926
vn 0.9356 -0.1624 0.3136
vn 0.6483 -0.4287 0.6293
vn 0.1956 -0.5871 0.7855
vn -0.3210 -0.5937 0.7379
vn -0.7603 -0.4334 0.4839
vn -0.9841 -0.1502 0.0951
vn -0.0685 -0.6706 -0.7387
vn -0.9078 0.3720 -0.1940
vn -0.5794 0.7711 -0.2642
vn -0.0846 0.9606 -0.2647
vn 0.4302 0.8814 -0.1950
vn 0.8196 0.5679 -0.0761
vn 0.9918 0.1120 0.0616
vn 0.9081 -0.3753 0.1857
vn 0.5792 -0.7718 0.2622
vn 0.0846 -0.9607 0.2645
vn -0.4304 -0.8824 0.1899
vn -0.8189 -0.5702 0.0645
vn -0.9905 -0.1159 -0.0746
vn -0.7481 0.5661 0.3462
vn -0.5228 0.8515 -0.0400
vn -0.1144 0.9000 -0.4206
vn 0.3248 0.6791 -0.6583
vn 0.6458 0.2889 -0.7068
vn 0.7907 -0.1539 -0.5926
vn 0.7500 -0.5653 -0.3434
vn 0.5163 -0.8561 0.0225
vn 0.1161 -0.8966 0.4273
vn -0.3069 -0.6460 0.6989
vn -0.6092 -0.2500 0.7526
vn -0.7625 0.1706 0.6241
vn -0.9154 0.3983 -0.0590
vn -0.6500 0.5485 -0.5259
vn -0.2282 0.5348 -0.8136
vn 0.2157 0.3909 -0.8948
vn 0.6101 0.1561 -0.7768
vn 0.8846 -0.1331 -0.4470
vn 0.9157 -0.3974 0.0603
vn 0.6515 -0.5235 0.5490
vn 0.2340 -0.4957 0.8364
vn -0.2052 -0.3655 0.9079
vn -0.6086 -0.1540 0.7784
vn -0.8907 0.1253 0.4370
vn -0.9355 0.1619 -0.3141
vn -0.6374 0.3360 -0.6935
vn -0.2047 0.4170 -0.8856
vn 0.2767 0.4008 -0.8734
vn 0.7208 0.2821 -0.6332
vn 0.9803 0.0739 -0.1834
vn 0.9342 -0.1541 0.3216
vn 0.6355 -0.3244 0.7007
vn 0.2049 -0.4097 0.8889
vn -0.2770 -0.4017 0.8729
vn -0.7222 -0.2860 0.6298
vn -0.9802 -0.0734 0.1839
vn -0.7350 -0.6706 -0.1000
vn -0.7351 -0.6706 -0.1000
vn 0.9388 0.2942 0.1791
vn 0.9388 0.2944 0.1791
vn -0.2409 0.4287 0.8708
vn -0.3499 0.7855 0.5104
vn -0.3636 0.9315 0.0128
vn -0.2792 0.8274 -0.4872
vn -0.1208 0.5023 -0.8562
vn 0.0690 0.0430 -0.9967
vn 0.2406 -0.4288 -0.8708
vn 0.3487 -0.7860 -0.5106
vn 0.3641 -0.9313 -0.0128
vn 0.2824 -0.8262 0.4875
vn 0.1250 -0.5009 0.8565
vn -0.0665 -0.0422 0.9969
vn -0.4108 0.3295 0.8501
vn -0.7062 0.5294 0.4701
vn -0.8064 0.5908 0.0249
vn -0.7410 0.5241 -0.4198
vn -0.4964 0.3203 -0.8068
vn -0.0664 -0.0062 -0.9978
vn 0.4094 -0.3304 -0.8504
vn 0.7235 -0.5107 -0.4645
vn 0.8364 -0.5475 -0.0255
vn 0.7781 -0.4803 0.4047
vn 0.5268 -0.3000 0.7953
vn 0.0693 0.0074 0.9976
vn -0.3730 0.3164 0.8722
vn -0.6494 0.5587 0.5159
vn -0.7571 0.6522 0.0365
vn -0.6758 0.5791 -0.4560
vn -0.4097 0.3501 -0.8423
vn -0.0154 0.0207 -0.9997
vn 0.3851 -0.3066 -0.8705
vn 0.6688 -0.5381 -0.5130
vn 0.7750 -0.6309 -0.0369
vn 0.6857 -0.5689 0.4542
vn 0.4104 -0.3496 0.8422
vn 0.0165 -0.0199 0.9997
vn -0.3481 0.3276 0.8784
vn -0.5286 0.6661 0.5263
vn -0.5653 0.8241 0.0354
vn -0.4515 0.7635 -0.4619
vn -0.2182 0.5008 -0.8376
vn 0.0743 0.1017 -0.9920
vn 0.3477 -0.3279 -0.8784
vn 0.5264 -0.6678 -0.5263
vn 0.5634 -0.8254 -0.0356
vn 0.4518 -0.7632 0.4619
vn 0.2203 -0.4992 0.8380
vn -0.0726 -0.1003 0.9923
vn -0.1734 -0.9807 0.0906
vn -0.1735 -0.9807 0.0905
vn 0.9554 0.2942 0.0235
vn 0.9555 0.2942 0.0235
vn -0.4269 0.2916 0.8560
vn -0.3306 0.7587 0.5612
vn -0.1344 0.9891 0.0599
vn 0.0733 0.9015 -0.4266
vn 0.2385 0.6009 -0.7629
vn 0.3507 0.1788 -0.9193
vn 0.3927 -0.3088 -0.8663
vn 0.3245 -0.7613 -0.5613
vn 0.1319 -0.9895 -0.0597
vn -0.1041 -0.9002 0.4228
vn -0.2926 -0.6023 0.7427
vn -0.4050 -0.1942 0.8935
vn -0.2896 0.3158 0.9036
vn -0.4400 0.6810 0.5854
vn -0.4802 0.8717 0.0975
vn -0.3883 0.8166 -0.4271
vn -0.1883 0.5331 -0.8248
vn 0.0587 0.1184 -0.9912
vn 0.2886 -0.3164 -0.9037
vn 0.4472 -0.6760 -0.5857
vn 0.4866 -0.8680 -0.0987
vn 0.3839 -0.8183 0.4278
vn 0.1744 -0.5375 0.8250
vn -0.0700 -0.1231 0.9899
vn -0.2533 0.2940 0.9216
vn -0.5309 0.5842 0.6138
vn -0.6744 0.7237 0.1466
vn -0.6410 0.6727 -0.3696
vn -0.4265 0.4361 -0.7924
vn -0.0902 0.0817 -0.9926
vn 0.2648 -0.2845 -0.9214
vn 0.5444 -0.5710 -0.6145
vn 0.6840 -0.7142 -0.1485
vn 0.6440 -0.6702 0.3688
vn 0.4264 -0.4362 0.7925
vn 0.0947 -0.0786 0.9924
vn -0.3333 0.2704 0.9032
vn -0.7069 0.4204 0.5688
vn -0.8832 0.4568 0.1066
vn -0.8446 0.3810 -0.3762
vn -0.5894 0.2043 -0.7816
vn -0.1538 -0.0379 -0.9874
vn 0.3345 -0.2683 -0.9034
vn 0.7119 -0.4110 -0.5695
vn 0.8905 -0.4420 -0.1078
vn 0.8509 -0.3681 0.3747
vn 0.5924 -0.1986 0.7808
vn 0.1540 0.0382 0.9873
vn 0.1571 0.2443 0.9569
vn -0.2284 0.1851 -0.9558
vn -0.8670 -0.4849 0.1150
vn -0.5295 -0.8475 -0.0371
vn -0.0477 -0.9827 -0.1789
vn 0.4468 -0.8526 -0.2710
vn 0.8195 -0.4946 -0.2895
vn 0.9729 -0.0062 -0.2312
vn 0.8677 0.4844 -0.1119
vn 0.5297 0.8474 0.0379
vn 0.0477 0.9827 0.1789
vn -0.4465 0.8522 0.2726
vn -0.8186 0.4937 0.2934
vn -0.9718 0.0053 0.2359
vn -0.8831 -0.4531 -0.1222
vn -0.5327 -0.8319 -0.1553
vn -0.0402 -0.9881 -0.1482
vn 0.4636 -0.8801 -0.1029
vn 0.8438 -0.5358 -0.0303
vn 0.9975 -0.0473 0.0518
vn 0.8831 0.4531 0.1217
vn 0.5326 0.8312 0.1596
vn 0.0403 0.9873 0.1536
vn -0.4635 0.8799 0.1049
vn -0.8438 0.5359 0.0275
vn -0.9973 0.0476 -0.0558
vn -0.8831 -0.4594 0.0959
vn -0.5319 -0.8318 0.1590
vn -0.0407 -0.9828 0.1803
vn 0.4630 -0.8728 0.1546
vn 0.8451 -0.5274 0.0875
vn 0.9993 -0.0383 -0.0048
vn 0.8830 0.4592 -0.0974
vn 0.5316 0.8309 -0.1644
vn 0.0404 0.9815 -0.1870
vn -0.4630 0.8720 -0.1589
vn -0.8451 0.5273 -0.0878
vn -0.9992 0.0385 0.0059
vn -0.8700 -0.4246 0.2506
vn -0.5202 -0.8033 0.2900
vn -0.0306 -0.9673 0.2518
vn 0.4677 -0.8718 0.1458
vn 0.8402 -0.5422 0.0003
vn 0.9871 -0.0677 -0.1453
vn 0.8698 0.4243 -0.2518
vn 0.5201 0.8031 -0.2908
vn 0.0306 0.9672 -0.2521
vn -0.4677 0.8718 -0.1458
vn -0.8403 0.5421 -0.0006
vn -0.9872 0.0675 0.1443
vn -0.1150 -0.6706 0.7328
vn 0.1983 0.2942 -0.9349
vn 0.8732 0.4515 0.1837
vn 0.5234 0.8492 0.0697
vn 0.0569 0.9973 -0.0470
vn -0.4072 0.9016 -0.1460
vn -0.7822 0.5844 -0.2159
vn -0.9672 0.0908 -0.2374
vn -0.8727 -0.4497 -0.1900
vn -0.5235 -0.8481 -0.0813
vn -0.0573 -0.9971 0.0507
vn 0.4004 -0.9009 0.1677
vn 0.7712 -0.5884 0.2428
vn 0.9631 -0.0953 0.2515
vn 0.8619 0.5031 0.0630
vn 0.5045 0.8215 0.2659
vn 0.0074 0.9191 0.3940
vn -0.4901 0.7679 0.4126
vn -0.8524 0.4124 0.3214
vn -0.9877 -0.0511 0.1481
vn -0.8620 -0.5029 -0.0637
vn -0.5043 -0.8229 -0.2617
vn -0.0074 -0.9194 -0.3932
vn 0.4898 -0.7642 -0.4197
vn 0.8509 -0.4064 -0.3329
vn 0.9862 0.0548 -0.1565
vn 0.8493 0.5213 0.0836
vn 0.4545 0.8887 0.0612
vn 0.0110 0.9997 0.0238
vn -0.4109 0.9114 -0.0228
vn -0.7837 0.6173 -0.0688
vn -0.9927 0.0799 -0.0908
vn -0.8446 -0.5315 -0.0644
vn -0.4420 -0.8969 -0.0142
vn -0.0101 -0.9996 0.0258
vn 0.4030 -0.9137 0.0518
vn 0.7827 -0.6183 0.0712
vn 0.9934 -0.0762 0.0854
vn 0.8734 0.3593 0.3287
vn 0.5168 0.7156 0.4700
vn 0.0313 0.8753 0.4826
vn -0.4569 0.8088 0.3703
vn -0.8318 0.5312 0.1611
vn -0.9902 0.1023 -0.0953
vn -0.8734 -0.3608 -0.3270
vn -0.5168 -0.7183 -0.4659
vn -0.0315 -0.8769 -0.4796
vn 0.4569 -0.8085 -0.3708
vn 0.8325 -0.5293 -0.1637
vn 0.9904 -0.1011 0.0938
vn 0.0837 -0.6706 0.7371
vn -0.0571 0.2942 -0.9540
vn 0.8893 0.4532 -0.0608
vn 0.5659 0.8168 0.1124
vn 0.0890 0.9627 0.2556
vn -0.4131 0.8495 0.3283
vn -0.8032 0.5082 0.3109
vn -0.9771 0.0324 0.2102
vn -0.8907 -0.4514 0.0545
vn -0.5664 -0.8160 -0.1153
vn -0.0890 -0.9628 -0.2552
vn 0.4131 -0.8495 -0.3281
vn 0.8026 -0.5071 -0.3141
vn 0.9758 -0.0303 -0.2166
vn 0.8899 0.4535 -0.0497
vn 0.5676 0.8085 0.1556
vn 0.0954 0.9427 0.3196
vn -0.3990 0.8264 0.3974
vn -0.7884 0.4923 0.3688
vn -0.9701 0.0249 0.2413
vn -0.8899 -0.4535 0.0497
vn -0.5665 -0.8100 -0.1520
vn -0.0923 -0.9467 -0.3086
vn 0.4024 -0.8316 -0.3827
vn 0.7906 -0.4967 -0.3580
vn 0.9709 -0.0264 -0.2379
vn 0.9408 0.2780 0.1940
vn 0.6627 0.5229 0.5361
vn 0.2265 0.6298 0.7430
vn -0.2751 0.5769 0.7691
vn -0.7247 0.3680 0.5826
vn -0.9760 0.0561 0.2103
vn -0.9413 -0.2539 -0.2225
vn -0.6642 -0.4785 -0.5743
vn -0.2351 -0.5881 -0.7739
vn 0.2677 -0.5591 -0.7847
vn 0.7244 -0.3673 -0.5834
vn 0.9749 -0.0518 -0.2165
vn 0.9459 0.2088 0.2485
vn 0.6596 0.4075 0.6316
vn 0.2191 0.4936 0.8417
vn -0.2736 0.4578 0.8459
vn -0.7154 0.3035 0.6294
vn -0.9736 0.0586 0.2207
vn -0.9455 -0.2024 -0.2550
vn -0.6587 -0.3973 -0.6390
vn -0.2195 -0.4869 -0.8454
vn 0.2738 -0.4586 -0.8454
vn 0.7168 -0.3074 -0.6259
vn 0.9736 -0.0588 -0.2205
vn -0.9108 -0.3817 0.1571
vn -0.9109 -0.3817 0.1571
vn 0.9901 -0.0456 -0.1329
vn 0.9901 -0.0456 -0.1328
vn 0.1380 0.4187 0.8976
vn 0.1132 0.8164 0.5663
vn 0.0567 0.9951 0.0811
vn -0.0162 0.9049 -0.4254
vn -0.0851 0.5725 -0.8155
vn -0.1308 0.0889 -0.9874
vn -0.1413 -0.4187 -0.8971
vn -0.1140 -0.8164 -0.5661
vn -0.0567 -0.9951 -0.0811
vn 0.0146 -0.9048 0.4257
vn 0.0810 -0.5722 0.8161
vn 0.1260 -0.0887 0.9881
vn 0.3676 0.4233 0.8281
vn 0.2258 0.8192 0.5272
vn 0.0249 0.9961 0.0851
vn -0.1814 0.9067 -0.3807
vn -0.3391 0.5741 -0.7452
vn -0.4070 0.0869 -0.9093
vn -0.3672 -0.4233 -0.8282
vn -0.2298 -0.8191 -0.5255
vn -0.0301 -0.9961 -0.0833
vn 0.1796 -0.9069 0.3813
vn 0.3418 -0.5739 0.7442
vn 0.4107 -0.0865 0.9077
vn 0.1647 0.3957 0.9035
vn -0.0657 0.7704 0.6342
vn -0.2785 0.9399 0.1977
vn -0.4189 0.8596 -0.2925
vn -0.4476 0.5477 -0.7069
vn -0.3540 0.0869 -0.9312
vn -0.1633 -0.3953 -0.9039
vn 0.0707 -0.7687 -0.6356
vn 0.2847 -0.9376 -0.1997
vn 0.4228 -0.8582 0.2911
vn 0.4479 -0.5476 0.7068
vn 0.3530 -0.0872 0.9315
vn 0.0212 0.3381 0.9409
vn -0.1876 0.7226 0.6654
vn -0.3464 0.9140 0.2113
vn -0.4122 0.8602 -0.3001
vn -0.3670 0.5756 -0.7308
vn -0.2233 0.1371 -0.9651
vn -0.0201 -0.3376 -0.9411
vn 0.1884 -0.7222 -0.6655
vn 0.3467 -0.9139 -0.2113
vn 0.4122 -0.8602 0.3001
vn 0.3674 -0.5754 0.7307
vn 0.2242 -0.1367 0.9649
vt 0.489752 0.172693
vt 0.498893 0.163552
vt 0.495547 0.169347
vt 0.483061 0.172693
vt 0.498893 0.156860
vt 0.477266 0.169347
vt 0.495547 0.151065
vt 0.473920 0.163552
vt 0.489752 0.147720
vt 0.473920 0.156860
vt 0.483061 0.147720
vt 0.477266 0.151065
vt 0.452292 0.151065
vt 0.448947 0.163552
vt 0.448947 0.156860
vt 0.458088 0.147720
vt 0.452292 0.169347
vt 0.464779 0.147720
vt 0.458088 0.172693
vt 0.470574 0.151065
vt 0.464779 0.172693
vt 0.473920 0.156860
vt 0.470574 0.169347
vt 0.473920 0.163552
vt 0.154766 0.168385
vt 0.189136 0.168385
vt 0.189136 0.172565
vt 0.154766 0.172565
vt 0.154766 0.164191
vt 0.189136 0.164191
vt 0.154766 0.160019
vt 0.189136 0.160019
vt 0.154766 0.155911
vt 0.189136 0.155911
vt 0.154766 0.151847
vt 0.189136 0.151847
vt 0.154766 0.147703
vt 0.189136 0.147703
vt 0.447734 0.151850
vt 0.413366 0.151864
vt 0.413366 0.147637
vt 0.447734 0.147593
vt 0.447734 0.156065
vt 0.413366 0.156050
vt 0.447734 0.160235
vt 0.413366 0.160205
vt 0.447734 0.164368
vt 0.413366 0.164339
vt 0.447734 0.168484
vt 0.413366 0.168464
vt 0.447734 0.172601
vt 0.413366 0.172595
vt 0.228446 0.168385
vt 0.228446 0.172565
vt 0.228446 0.164191
vt 0.228446 0.160019
vt 0.228446 0.155911
vt 0.228446 0.151847
vt 0.228446 0.147703
vt 0.372897 0.151881
vt 0.372897 0.147687
vt 0.372897 0.156034
vt 0.372897 0.160173
vt 0.372897 0.164306
vt 0.372897 0.168441
vt 0.372897 0.172587
vt 0.258936 0.168385
vt 0.258936 0.172565
vt 0.258936 0.164191
vt 0.258936 0.160019
vt 0.258936 0.155911
vt 0.258936 0.151847
vt 0.258936 0.147703
vt 0.342294 0.151895
vt 0.342294 0.147724
vt 0.342294 0.156022
vt 0.342294 0.160148
vt 0.342294 0.164279
vt 0.342294 0.168423
vt 0.342294 0.172581
vt 0.299816 0.168385
vt 0.299816 0.172565
vt 0.299816 0.164191
vt 0.299816 0.160019
vt 0.299816 0.155911
vt 0.299816 0.151847
vt 0.299816 0.147703
vt 0.302111 0.151910
vt 0.302111 0.147772
vt 0.302111 0.156004
vt 0.302111 0.160112
vt 0.302111 0.164243
vt 0.302111 0.168397
vt 0.302111 0.172573
s 0
usemtl M_FloorPrison
f 10/1/1 8/2/1 9/3/1
f 11/4/1 8/2/1 10/1/1
f 11/4/1 7/5/1 8/2/1
f 12/6/1 7/5/1 11/4/1
f 12/6/1 6/7/1 7/5/1
f 1/8/1 6/7/1 12/6/1
f 1/8/1 5/9/1 6/7/1
f 2/10/1 5/9/1 1/8/1
f 2/10/1 4/11/1 5/9/1
f 3/12/1 4/11/1 2/10/1
f 20/13/2 22/14/2 21/15/2
f 19/16/2 22/14/2 20/13/2
f 19/16/2 23/17/2 22/14/2
f 18/18/2 23/17/2 19/16/2
f 18/18/2 24/19/2 23/17/2
f 17/20/2 24/19/2 18/18/2
f 17/20/2 13/21/2 24/19/2
f 16/22/2 13/21/2 17/20/2
f 16/22/2 14/23/2 13/21/2
f 15/24/2 14/23/2 16/22/2
f 25/25/3 37/26/3 48/27/3 36/28/3
f 26/29/4 38/30/4 37/26/4 25/25/4
f 27/31/5 39/32/5 38/30/5 26/29/5
f 28/33/6 40/34/6 39/32/6 27/31/6
f 29/35/7 41/36/7 40/34/7 28/33/7
f 30/37/8 42/38/8 41/36/8 29/35/8
f 31/39/9 43/40/9 42/41/9 30/42/9
f 32/43/10 44/44/10 43/40/10 31/39/10
f 33/45/11 45/46/11 44/44/11 32/43/11
f 34/47/12 46/48/12 45/46/12 33/45/12
f 35/49/13 47/50/13 46/48/13 34/47/13
f 36/51/14 48/52/14 47/50/14 35/49/14
f 37/26/15 49/53/15 60/54/15 48/27/15
f 38/30/16 50/55/16 49/53/16 37/26/16
f 39/32/17 51/56/17 50/55/17 38/30/17
f 40/34/18 52/57/18 51/56/18 39/32/18
f 41/36/19 53/58/19 52/57/19 40/34/19
f 42/38/20 54/59/20 53/58/20 41/36/20
f 43/40/21 55/60/21 54/61/21 42/41/21
f 44/44/22 56/62/22 55/60/22 43/40/22
f 45/46/23 57/63/23 56/62/23 44/44/23
f 46/48/24 58/64/24 57/63/24 45/46/24
f 47/50/25 59/65/25 58/64/25 46/48/25
f 48/52/26 60/66/26 59/65/26 47/50/26
f 49/53/27 61/67/27 72/68/27 60/54/27
f 50/55/28 62/69/28 61/67/28 49/53/28
f 51/56/29 63/70/29 62/69/29 50/55/29
f 52/57/30 64/71/30 63/70/30 51/56/30
f 53/58/31 65/72/31 64/71/31 52/57/31
f 54/59/32 66/73/32 65/72/32 53/58/32
f 55/60/33 67/74/33 66/75/33 54/61/33
f 56/62/34 68/76/34 67/74/34 55/60/34
f 57/63/35 69/77/35 68/76/35 56/62/35
f 58/64/36 70/78/36 69/77/36 57/63/36
f 59/65/37 71/79/37 70/78/37 58/64/37
f 60/66/38 72/80/38 71/79/38 59/65/38
f 61/67/39 73/81/39 84/82/39 72/68/39
f 62/69/40 74/83/40 73/81/40 61/67/40
f 63/70/41 75/84/41 74/83/41 62/69/41
f 64/71/42 76/85/42 75/84/42 63/70/42
f 65/72/43 77/86/43 76/85/43 64/71/43
f 66/73/44 78/87/44 77/86/44 65/72/44
f 67/74/45 79/88/45 78/89/45 66/75/45
f 68/76/46 80/90/46 79/88/46 67/74/46
f 69/77/47 81/91/47 80/90/47 68/76/47
f 70/78/48 82/92/48 81/91/48 69/77/48
f 71/79/49 83/93/49 82/92/49 70/78/49
f 72/80/50 84/94/50 83/93/50 71/79/50
f 94/1/1 92/2/1 93/3/1
f 95/4/1 92/2/1 94/1/1
f 95/4/1 91/5/1 92/2/1
f 96/6/1 91/5/1 95/4/1
f 96/6/1 90/7/1 91/5/1
f 85/8/1 90/7/1 96/6/1
f 85/8/1 89/9/1 90/7/1
f 86/10/1 89/9/1 85/8/1
f 86/10/1 88/11/1 89/9/1
f 87/12/1 88/11/1 86/10/1
f 104/13/2 106/14/2 105/15/2
f 103/16/2 106/14/2 104/13/2
f 103/16/2 107/17/2 106/14/2
f 102/18/2 107/17/2 103/16/2
f 102/18/2 108/19/2 107/17/2
f 101/20/2 108/19/2 102/18/2
f 101/20/2 97/21/2 108/19/2
f 100/22/2 97/21/2 101/20/2
f 100/22/2 98/23/2 97/21/2
f 99/24/2 98/23/2 100/22/2
f 109/25/51 121/26/51 132/27/51 120/28/51
f 110/29/52 122/30/52 121/26/52 109/25/52
f 111/31/53 123/32/53 122/30/53 110/29/53
f 112/33/54 124/34/54 123/32/54 111/31/54
f 113/35/55 125/36/55 124/34/55 112/33/55
f 114/37/56 126/38/56 125/36/56 113/35/56
f 115/39/57 127/40/57 126/41/57 114/42/57
f 116/43/58 128/44/58 127/40/58 115/39/58
f 117/45/59 129/46/59 128/44/59 116/43/59
f 118/47/60 130/48/60 129/46/60 117/45/60
f 119/49/61 131/50/61 130/48/61 118/47/61
f 120/51/62 132/52/62 131/50/62 119/49/62
f 121/26/63 133/53/63 144/54/63 132/27/63
f 122/30/64 134/55/64 133/53/64 121/26/64
f 123/32/65 135/56/65 134/55/65 122/30/65
f 124/34/66 136/57/66 135/56/66 123/32/66
f 125/36/67 137/58/67 136/57/67 124/34/67
f 126/38/68 138/59/68 137/58/68 125/36/68
f 127/40/69 139/60/69 138/61/69 126/41/69
f 128/44/70 140/62/70 139/60/70 127/40/70
f 129/46/71 141/63/71 140/62/71 128/44/71
f 130/48/72 142/64/72 141/63/72 129/46/72
f 131/50/73 143/65/73 142/64/73 130/48/73
f 132/52/74 144/66/74 143/65/74 131/50/74
f 133/53/75 145/67/75 156/68/75 144/54/75
f 134/55/76 146/69/76 145/67/76 133/53/76
f 135/56/77 147/70/77 146/69/77 134/55/77
f 136/57/78 148/71/78 147/70/78 135/56/78
f 137/58/79 149/72/79 148/71/79 136/57/79
f 138/59/80 150/73/80 149/72/80 137/58/80
f 139/60/81 151/74/81 150/75/81 138/61/81
f 140/62/82 152/76/82 151/74/82 139/60/82
f 141/63/83 153/77/83 152/76/83 140/62/83
f 142/64/84 154/78/84 153/77/84 141/63/84
f 143/65/85 155/79/85 154/78/85 142/64/85
f 144/66/86 156/80/86 155/79/86 143/65/86
f 145/67/87 157/81/87 168/82/87 156/68/87
f 146/69/88 158/83/88 157/81/88 145/67/88
f 147/70/89 159/84/89 158/83/89 146/69/89
f 148/71/90 160/85/90 159/84/90 147/70/90
f 149/72/91 161/86/91 160/85/91 148/71/91
f 150/73/92 162/87/92 161/86/92 149/72/92
f 151/74/93 163/88/93 162/89/93 150/75/93
f 152/76/94 164/90/94 163/88/94 151/74/94
f 153/77/95 165/91/95 164/90/95 152/76/95
f 154/78/96 166/92/96 165/91/96 153/77/96
f 155/79/97 167/93/97 166/92/97 154/78/97
f 156/80/98 168/94/98 167/93/98 155/79/98
f 178/1/99 176/2/99 177/3/99
f 179/4/99 176/2/99 178/1/99
f 179/4/99 175/5/99 176/2/99
f 180/6/99 175/5/99 179/4/99
f 180/6/99 174/7/99 175/5/99
f 169/8/99 174/7/99 180/6/99
f 169/8/99 173/9/99 174/7/99
f 170/10/99 173/9/99 169/8/99
f 170/10/99 172/11/99 173/9/99
f 171/12/99 172/11/99 170/10/99
f 188/13/100 190/14/100 189/15/100
f 187/16/100 190/14/100 188/13/100
f 187/16/100 191/17/100 190/14/100
f 186/18/100 191/17/100 187/16/100
f 186/18/100 192/19/100 191/17/100
f 185/20/100 192/19/100 186/18/100
f 185/20/100 181/21/100 192/19/100
f 184/22/100 181/21/100 185/20/100
f 184/22/100 182/23/100 181/21/100
f 183/24/100 182/23/100 184/22/100
f 193/25/101 205/26/101 216/27/101 204/28/101
f 194/29/102 206/30/102 205/26/102 193/25/102
f 195/31/103 207/32/103 206/30/103 194/29/103
f 196/33/104 208/34/104 207/32/104 195/31/104
f 197/35/105 209/36/105 208/34/105 196/33/105
f 198/37/106 210/38/106 209/36/106 197/35/106
f 199/39/107 211/40/107 210/41/107 198/42/107
f 200/43/108 212/44/108 211/40/108 199/39/108
f 201/45/109 213/46/109 212/44/109 200/43/109
f 202/47/110 214/48/110 213/46/110 201/45/110
f 203/49/111 215/50/111 214/48/111 202/47/111
f 204/51/112 216/52/112 215/50/112 203/49/112
f 205/26/113 217/53/113 228/54/113 216/27/113
f 206/30/114 218/55/114 217/53/114 205/26/114
f 207/32/115 219/56/115 218/55/115 206/30/115
f 208/34/116 220/57/116 219/56/116 207/32/116
f 209/36/117 221/58/117 220/57/117 208/34/117
f 210/38/118 222/59/118 221/58/118 209/36/118
f 211/40/119 223/60/119 222/61/119 210/41/119
f 212/44/120 224/62/120 223/60/120 211/40/120
f 213/46/121 225/63/121 224/62/121 212/44/121
f 214/48/122 226/64/122 225/63/122 213/46/122
f 215/50/123 227/65/123 226/64/123 214/48/123
f 216/52/124 228/66/124 227/65/124 215/50/124
f 217/53/125 229/67/125 240/68/125 228/54/125
f 218/55/126 230/69/126 229/67/126 217/53/126
f 219/56/127 231/70/127 230/69/127 218/55/127
f 220/57/128 232/71/128 231/70/128 219/56/128
f 221/58/129 233/72/129 232/71/129 220/57/129
f 222/59/130 234/73/130 233/72/130 221/58/130
f 223/60/131 235/74/131 234/75/131 222/61/131
f 224/62/132 236/76/132 235/74/132 223/60/132
f 225/63/133 237/77/133 236/76/133 224/62/133
f 226/64/134 238/78/134 237/77/134 225/63/134
f 227/65/135 239/79/135 238/78/135 226/64/135
f 228/66/136 240/80/136 239/79/136 227/65/136
f 229/67/137 241/81/137 252/82/137 240/68/137
f 230/69/138 242/83/138 241/81/138 229/67/138
f 231/70/139 243/84/139 242/83/139 230/69/139
f 232/71/140 244/85/140 243/84/140 231/70/140
f 233/72/141 245/86/141 244/85/141 232/71/141
f 234/73/142 246/87/142 245/86/142 233/72/142
f 235/74/143 247/88/143 246/89/143 234/75/143
f 236/76/144 248/90/144 247/88/144 235/74/144
f 237/77/145 249/91/145 248/90/145 236/76/145
f 238/78/146 250/92/146 249/91/146 237/77/146
f 239/79/147 251/93/147 250/92/147 238/78/147
f 240/80/148 252/94/148 251/93/148 239/79/148
f 262/1/99 260/2/99 261/3/99
f 263/4/99 260/2/99 262/1/99
f 263/4/149 259/5/149 260/2/149
f 264/6/99 259/5/99 263/4/99
f 264/6/99 258/7/99 259/5/99
f 253/8/99 258/7/99 264/6/99
f 253/8/99 257/9/99 258/7/99
f 254/10/99 257/9/99 253/8/99
f 254/10/99 256/11/99 257/9/99
f 255/12/99 256/11/99 254/10/99
f 272/13/100 274/14/100 273/15/100
f 271/16/100 274/14/100 272/13/100
f 271/16/100 275/17/100 274/14/100
f 270/18/100 275/17/100 271/16/100
f 270/18/100 276/19/100 275/17/100
f 269/20/100 276/19/100 270/18/100
f 269/20/100 265/21/100 276/19/100
f 268/22/100 265/21/100 269/20/100
f 268/22/100 266/23/100 265/21/100
f 267/24/100 266/23/100 268/22/100
f 277/25/150 289/26/150 300/27/150 288/28/150
f 278/29/151 290/30/151 289/26/151 277/25/151
f 279/31/152 291/32/152 290/30/152 278/29/152
f 280/33/153 292/34/153 291/32/153 279/31/153
f 281/35/154 293/36/154 292/34/154 280/33/154
f 282/37/155 294/38/155 293/36/155 281/35/155
f 283/39/156 295/40/156 294/41/156 282/42/156
f 284/43/157 296/44/157 295/40/157 283/39/157
f 285/45/158 297/46/158 296/44/158 284/43/158
f 286/47/159 298/48/159 297/46/159 285/45/159
f 287/49/160 299/50/160 298/48/160 286/47/160
f 288/51/161 300/52/161 299/50/161 287/49/161
f 289/26/162 301/53/162 312/54/162 300/27/162
f 290/30/163 302/55/163 301/53/163 289/26/163
f 291/32/164 303/56/164 302/55/164 290/30/164
f 292/34/165 304/57/165 303/56/165 291/32/165
f 293/36/166 305/58/166 304/57/166 292/34/166
f 294/38/167 306/59/167 305/58/167 293/36/167
f 295/40/168 307/60/168 306/61/168 294/41/168
f 296/44/169 308/62/169 307/60/169 295/40/169
f 297/46/170 309/63/170 308/62/170 296/44/170
f 298/48/171 310/64/171 309/63/171 297/46/171
f 299/50/172 311/65/172 310/64/172 298/48/172
f 300/52/173 312/66/173 311/65/173 299/50/173
f 301/53/174 313/67/174 324/68/174 312/54/174
f 302/55/175 314/69/175 313/67/175 301/53/175
f 303/56/176 315/70/176 314/69/176 302/55/176
f 304/57/177 316/71/177 315/70/177 303/56/177
f 305/58/178 317/72/178 316/71/178 304/57/178
f 306/59/179 318/73/179 317/72/179 305/58/179
f 307/60/180 319/74/180 318/75/180 306/61/180
f 308/62/181 320/76/181 319/74/181 307/60/181
f 309/63/182 321/77/182 320/76/182 308/62/182
f 310/64/183 322/78/183 321/77/183 309/63/183
f 311/65/184 323/79/184 322/78/184 310/64/184
f 312/66/185 324/80/185 323/79/185 311/65/185
f 313/67/186 325/81/186 336/82/186 324/68/186
f 314/69/187 326/83/187 325/81/187 313/67/187
f 315/70/188 327/84/188 326/83/188 314/69/188
f 316/71/189 328/85/189 327/84/189 315/70/189
f 317/72/190 329/86/190 328/85/190 316/71/190
f 318/73/191 330/87/191 329/86/191 317/72/191
f 319/74/192 331/88/192 330/89/192 318/75/192
f 320/76/193 332/90/193 331/88/193 319/74/193
f 321/77/194 333/91/194 332/90/194 320/76/194
f 322/78/195 334/92/195 333/91/195 321/77/195
f 323/79/196 335/93/196 334/92/196 322/78/196
f 324/80/197 336/94/197 335/93/197 323/79/197
f 346/1/198 344/2/198 345/3/198
f 347/4/199 344/2/199 346/1/199
f 347/4/199 343/5/199 344/2/199
f 348/6/198 343/5/198 347/4/198
f 348/6/199 342/7/199 343/5/199
f 337/8/198 342/7/198 348/6/198
f 337/8/198 341/9/198 342/7/198
f 338/10/199 341/9/199 337/8/199
f 338/10/198 340/11/198 341/9/198
f 339/12/198 340/11/198 338/10/198
f 356/13/200 358/14/200 357/15/200
f 355/16/200 358/14/200 356/13/200
f 355/16/200 359/17/200 358/14/200
f 354/18/200 359/17/200 355/16/200
f 354/18/200 360/19/200 359/17/200
f 353/20/200 360/19/200 354/18/200
f 353/20/200 349/21/200 360/19/200
f 352/22/200 349/21/200 353/20/200
f 352/22/200 350/23/200 349/21/200
f 351/24/201 350/23/201 352/22/201
f 361/25/202 373/26/202 384/27/202 372/28/202
f 362/29/203 374/30/203 373/26/203 361/25/203
f 363/31/204 375/32/204 374/30/204 362/29/204
f 364/33/205 376/34/205 375/32/205 363/31/205
f 365/35/206 377/36/206 376/34/206 364/33/206
f 366/37/207 378/38/207 377/36/207 365/35/207
f 367/39/208 379/40/208 378/41/208 366/42/208
f 368/43/209 380/44/209 379/40/209 367/39/209
f 369/45/210 381/46/210 380/44/210 368/43/210
f 370/47/211 382/48/211 381/46/211 369/45/211
f 371/49/212 383/50/212 382/48/212 370/47/212
f 372/51/213 384/52/213 383/50/213 371/49/213
f 373/26/214 385/53/214 396/54/214 384/27/214
f 374/30/215 386/55/215 385/53/215 373/26/215
f 375/32/216 387/56/216 386/55/216 374/30/216
f 376/34/217 388/57/217 387/56/217 375/32/217
f 377/36/218 389/58/218 388/57/218 376/34/218
f 378/38/219 390/59/219 389/58/219 377/36/219
f 379/40/220 391/60/220 390/61/220 378/41/220
f 380/44/221 392/62/221 391/60/221 379/40/221
f 381/46/222 393/63/222 392/62/222 380/44/222
f 382/48/223 394/64/223 393/63/223 381/46/223
f 383/50/224 395/65/224 394/64/224 382/48/224
f 384/52/225 396/66/225 395/65/225 383/50/225
f 385/53/226 397/67/226 408/68/226 396/54/226
f 386/55/227 398/69/227 397/67/227 385/53/227
f 387/56/228 399/70/228 398/69/228 386/55/228
f 388/57/229 400/71/229 399/70/229 387/56/229
f 389/58/230 401/72/230 400/71/230 388/57/230
f 390/59/231 402/73/231 401/72/231 389/58/231
f 391/60/232 403/74/232 402/75/232 390/61/232
f 392/62/233 404/76/233 403/74/233 391/60/233
f 393/63/234 405/77/234 404/76/234 392/62/234
f 394/64/235 406/78/235 405/77/235 393/63/235
f 395/65/236 407/79/236 406/78/236 394/64/236
f 396/66/237 408/80/237 407/79/237 395/65/237
f 397/67/238 409/81/238 420/82/238 408/68/238
f 398/69/239 410/83/239 409/81/239 397/67/239
f 399/70/240 411/84/240 410/83/240 398/69/240
f 400/71/241 412/85/241 411/84/241 399/70/241
f 401/72/242 413/86/242 412/85/242 400/71/242
f 402/73/243 414/87/243 413/86/243 401/72/243
f 403/74/244 415/88/244 414/89/244 402/75/244
f 404/76/245 416/90/245 415/88/245 403/74/245
f 405/77/246 417/91/246 416/90/246 404/76/246
f 406/78/247 418/92/247 417/91/247 405/77/247
f 407/79/248 419/93/248 418/92/248 406/78/248
f 408/80/249 420/94/249 419/93/249 407/79/249
f 430/1/250 428/2/250 429/3/250
f 431/4/251 428/2/251 430/1/251
f 431/4/251 427/5/251 428/2/251
f 432/6/251 427/5/251 431/4/251
f 432/6/251 426/7/251 427/5/251
f 421/8/251 426/7/251 432/6/251
f 421/8/251 425/9/251 426/7/251
f 422/10/251 425/9/251 421/8/251
f 422/10/251 424/11/251 425/9/251
f 423/12/251 424/11/251 422/10/251
f 440/13/252 442/14/252 441/15/252
f 439/16/253 442/14/253 440/13/253
f 439/16/253 443/17/253 442/14/253
f 438/18/252 443/17/252 439/16/252
f 438/18/253 444/19/253 443/17/253
f 437/20/252 444/19/252 438/18/252
f 437/20/253 433/21/253 444/19/253
f 436/22/252 433/21/252 437/20/252
f 436/22/252 434/23/252 433/21/252
f 435/24/253 434/23/253 436/22/253
f 445/25/254 457/26/254 468/27/254 456/28/254
f 446/29/255 458/30/255 457/26/255 445/25/255
f 447/31/256 459/32/256 458/30/256 446/29/256
f 448/33/257 460/34/257 459/32/257 447/31/257
f 449/35/258 461/36/258 460/34/258 448/33/258
f 450/37/259 462/38/259 461/36/259 449/35/259
f 451/39/260 463/40/260 462/41/260 450/42/260
f 452/43/261 464/44/261 463/40/261 451/39/261
f 453/45/262 465/46/262 464/44/262 452/43/262
f 454/47/263 466/48/263 465/46/263 453/45/263
f 455/49/264 467/50/264 466/48/264 454/47/264
f 456/51/265 468/52/265 467/50/265 455/49/265
f 457/26/266 469/53/266 480/54/266 468/27/266
f 458/30/267 470/55/267 469/53/267 457/26/267
f 459/32/268 471/56/268 470/55/268 458/30/268
f 460/34/269 472/57/269 471/56/269 459/32/269
f 461/36/270 473/58/270 472/57/270 460/34/270
f 462/38/271 474/59/271 473/58/271 461/36/271
f 463/40/272 475/60/272 474/61/272 462/41/272
f 464/44/273 476/62/273 475/60/273 463/40/273
f 465/46/274 477/63/274 476/62/274 464/44/274
f 466/48/275 478/64/275 477/63/275 465/46/275
f 467/50/276 479/65/276 478/64/276 466/48/276
f 468/52/277 480/66/277 479/65/277 467/50/277
f 469/53/278 481/67/278 492/68/278 480/54/278
f 470/55/279 482/69/279 481/67/279 469/53/279
f 471/56/280 483/70/280 482/69/280 470/55/280
f 472/57/281 484/71/281 483/70/281 471/56/281
f 473/58/282 485/72/282 484/71/282 472/57/282
f 474/59/283 486/73/283 485/72/283 473/58/283
f 475/60/284 487/74/284 486/75/284 474/61/284
f 476/62/285 488/76/285 487/74/285 475/60/285
f 477/63/286 489/77/286 488/76/286 476/62/286
f 478/64/287 490/78/287 489/77/287 477/63/287
f 479/65/288 491/79/288 490/78/288 478/64/288
f 480/66/289 492/80/289 491/79/289 479/65/289
f 481/67/290 493/81/290 504/82/290 492/68/290
f 482/69/291 494/83/291 493/81/291 481/67/291
f 483/70/292 495/84/292 494/83/292 482/69/292
f 484/71/293 496/85/293 495/84/293 483/70/293
f 485/72/294 497/86/294 496/85/294 484/71/294
f 486/73/295 498/87/295 497/86/295 485/72/295
f 487/74/296 499/88/296 498/89/296 486/75/296
f 488/76/297 500/90/297 499/88/297 487/74/297
f 489/77/298 501/91/298 500/90/298 488/76/298
f 490/78/299 502/92/299 501/91/299 489/77/299
f 491/79/300 503/93/300 502/92/300 490/78/300
f 492/80/301 504/94/301 503/93/301 491/79/301
f 514/1/302 512/2/302 513/3/302
f 515/4/302 512/2/302 514/1/302
f 515/4/302 511/5/302 512/2/302
f 516/6/302 511/5/302 515/4/302
f 516/6/302 510/7/302 511/5/302
f 505/8/302 510/7/302 516/6/302
f 505/8/302 509/9/302 510/7/302
f 506/10/302 509/9/302 505/8/302
f 506/10/302 508/11/302 509/9/302
f 507/12/302 508/11/302 506/10/302
f 524/13/303 526/14/303 525/15/303
f 523/16/303 526/14/303 524/13/303
f 523/16/303 527/17/303 526/14/303
f 522/18/303 527/17/303 523/16/303
f 522/18/303 528/19/303 527/17/303
f 521/20/303 528/19/303 522/18/303
f 521/20/303 517/21/303 528/19/303
f 520/22/303 517/21/303 521/20/303
f 520/22/303 518/23/303 517/21/303
f 519/24/303 518/23/303 520/22/303
f 529/25/304 541/26/304 552/27/304 540/28/304
f 530/29/305 542/30/305 541/26/305 529/25/305
f 531/31/306 543/32/306 542/30/306 530/29/306
f 532/33/307 544/34/307 543/32/307 531/31/307
f 533/35/308 545/36/308 544/34/308 532/33/308
f 534/37/309 546/38/309 545/36/309 533/35/309
f 535/39/310 547/40/310 546/41/310 534/42/310
f 536/43/311 548/44/311 547/40/311 535/39/311
f 537/45/312 549/46/312 548/44/312 536/43/312
f 538/47/313 550/48/313 549/46/313 537/45/313
f 539/49/314 551/50/314 550/48/314 538/47/314
f 540/51/315 552/52/315 551/50/315 539/49/315
f 541/26/316 553/53/316 564/54/316 552/27/316
f 542/30/317 554/55/317 553/53/317 541/26/317
f 543/32/318 555/56/318 554/55/318 542/30/318
f 544/34/319 556/57/319 555/56/319 543/32/319
f 545/36/320 557/58/320 556/57/320 544/34/320
f 546/38/321 558/59/321 557/58/321 545/36/321
f 547/40/322 559/60/322 558/61/322 546/41/322
f 548/44/323 560/62/323 559/60/323 547/40/323
f 549/46/324 561/63/324 560/62/324 548/44/324
f 550/48/325 562/64/325 561/63/325 549/46/325
f 551/50/326 563/65/326 562/64/326 550/48/326
f 552/52/327 564/66/327 563/65/327 551/50/327
f 553/53/328 565/67/328 576/68/328 564/54/328
f 554/55/329 566/69/329 565/67/329 553/53/329
f 555/56/330 567/70/330 566/69/330 554/55/330
f 556/57/331 568/71/331 567/70/331 555/56/331
f 557/58/332 569/72/332 568/71/332 556/57/332
f 558/59/333 570/73/333 569/72/333 557/58/333
f 559/60/334 571/74/334 570/75/334 558/61/334
f 560/62/335 572/76/335 571/74/335 559/60/335
f 561/63/336 573/77/336 572/76/336 560/62/336
f 562/64/337 574/78/337 573/77/337 561/63/337
f 563/65/338 575/79/338 574/78/338 562/64/338
f 564/66/339 576/80/339 575/79/339 563/65/339
f 565/67/340 577/81/340 588/82/340 576/68/340
f 566/69/341 578/83/341 577/81/341 565/67/341
f 567/70/342 579/84/342 578/83/342 566/69/342
f 568/71/343 580/85/343 579/84/343 567/70/343
f 569/72/344 581/86/344 580/85/344 568/71/344
f 570/73/345 582/87/345 581/86/345 569/72/345
f 571/74/346 583/88/346 582/89/346 570/75/346
f 572/76/347 584/90/347 583/88/347 571/74/347
f 573/77/348 585/91/348 584/90/348 572/76/348
f 574/78/349 586/92/349 585/91/349 573/77/349
f 575/79/350 587/93/350 586/92/350 574/78/350
f 576/80/351 588/94/351 587/93/351 575/79/351
f 598/1/352 596/2/352 597/3/352
f 599/4/352 596/2/352 598/1/352
f 599/4/352 595/5/352 596/2/352
f 600/6/352 595/5/352 599/4/352
f 600/6/352 594/7/352 595/5/352
f 589/8/352 594/7/352 600/6/352
f 589/8/352 593/9/352 594/7/352
f 590/10/352 593/9/352 589/8/352
f 590/10/352 592/11/352 593/9/352
f 591/12/352 592/11/352 590/10/352
f 608/13/353 610/14/353 609/15/353
f 607/16/353 610/14/353 608/13/353
f 607/16/353 611/17/353 610/14/353
f 606/18/353 611/17/353 607/16/353
f 606/18/353 612/19/353 611/17/353
f 605/20/353 612/19/353 606/18/353
f 605/20/353 601/21/353 612/19/353
f 604/22/353 601/21/353 605/20/353
f 604/22/353 602/23/353 601/21/353
f 603/24/353 602/23/353 604/22/353
f 613/25/354 625/26/354 636/27/354 624/28/354
f 614/29/355 626/30/355 625/26/355 613/25/355
f 615/31/356 627/32/356 626/30/356 614/29/356
f 616/33/357 628/34/357 627/32/357 615/31/357
f 617/35/358 629/36/358 628/34/358 616/33/358
f 618/37/359 630/38/359 629/36/359 617/35/359
f 619/39/360 631/40/360 630/41/360 618/42/360
f 620/43/361 632/44/361 631/40/361 619/39/361
f 621/45/362 633/46/362 632/44/362 620/43/362
f 622/47/363 634/48/363 633/46/363 621/45/363
f 623/49/364 635/50/364 634/48/364 622/47/364
f 624/51/365 636/52/365 635/50/365 623/49/365
f 625/26/366 637/53/366 648/54/366 636/27/366
f 626/30/367 638/55/367 637/53/367 625/26/367
f 627/32/368 639/56/368 638/55/368 626/30/368
f 628/34/369 640/57/369 639/56/369 627/32/369
f 629/36/370 641/58/370 640/57/370 628/34/370
f 630/38/371 642/59/371 641/58/371 629/36/371
f 631/40/372 643/60/372 642/61/372 630/41/372
f 632/44/373 644/62/373 643/60/373 631/40/373
f 633/46/374 645/63/374 644/62/374 632/44/374
f 634/48/375 646/64/375 645/63/375 633/46/375
f 635/50/376 647/65/376 646/64/376 634/48/376
f 636/52/377 648/66/377 647/65/377 635/50/377
f 637/53/378 649/67/378 660/68/378 648/54/378
f 638/55/379 650/69/379 649/67/379 637/53/379
f 639/56/380 651/70/380 650/69/380 638/55/380
f 640/57/381 652/71/381 651/70/381 639/56/381
f 641/58/382 653/72/382 652/71/382 640/57/382
f 642/59/383 654/73/383 653/72/383 641/58/383
f 643/60/384 655/74/384 654/75/384 642/61/384
f 644/62/385 656/76/385 655/74/385 643/60/385
f 645/63/386 657/77/386 656/76/386 644/62/386
f 646/64/387 658/78/387 657/77/387 645/63/387
f 647/65/388 659/79/388 658/78/388 646/64/388
f 648/66/389 660/80/389 659/79/389 647/65/389
f 649/67/390 661/81/390 672/82/390 660/68/390
f 650/69/391 662/83/391 661/81/391 649/67/391
f 651/70/392 663/84/392 662/83/392 650/69/392
f 652/71/393 664/85/393 663/84/393 651/70/393
f 653/72/394 665/86/394 664/85/394 652/71/394
f 654/73/395 666/87/395 665/86/395 653/72/395
f 655/74/396 667/88/396 666/89/396 654/75/396
f 656/76/397 668/90/397 667/88/397 655/74/397
f 657/77/398 669/91/398 668/90/398 656/76/398
f 658/78/399 670/92/399 669/91/399 657/77/399
f 659/79/400 671/93/400 670/92/400 658/78/400
f 660/80/401 672/94/401 671/93/401 659/79/401
f 682/1/402 680/2/402 681/3/402
f 683/4/402 680/2/402 682/1/402
f 683/4/402 679/5/402 680/2/402
f 684/6/402 679/5/402 683/4/402
f 684/6/402 678/7/402 679/5/402
f 673/8/402 678/7/402 684/6/402
f 673/8/402 677/9/402 678/7/402
f 674/10/402 677/9/402 673/8/402
f 674/10/402 676/11/402 677/9/402
f 675/12/402 676/11/402 674/10/402
f 692/13/403 694/14/403 693/15/403
f 691/16/403 694/14/403 692/13/403
f 691/16/403 695/17/403 694/14/403
f 690/18/403 695/17/403 691/16/403
f 690/18/403 696/19/403 695/17/403
f 689/20/403 696/19/403 690/18/403
f 689/20/403 685/21/403 696/19/403
f 688/22/403 685/21/403 689/20/403
f 688/22/403 686/23/403 685/21/403
f 687/24/403 686/23/403 688/22/403
f 697/25/404 709/26/404 720/27/404 708/28/404
f 698/29/405 710/30/405 709/26/405 697/25/405
f 699/31/406 711/32/406 710/30/406 698/29/406
f 700/33/407 712/34/407 711/32/407 699/31/407
f 701/35/408 713/36/408 712/34/408 700/33/408
f 702/37/409 714/38/409 713/36/409 701/35/409
f 703/39/410 715/40/410 714/41/410 702/42/410
f 704/43/411 716/44/411 715/40/411 703/39/411
f 705/45/412 717/46/412 716/44/412 704/43/412
f 706/47/413 718/48/413 717/46/413 705/45/413
f 707/49/414 719/50/414 718/48/414 706/47/414
f 708/51/415 720/52/415 719/50/415 707/49/415
f 709/26/416 721/53/416 732/54/416 720/27/416
f 710/30/417 722/55/417 721/53/417 709/26/417
f 711/32/418 723/56/418 722/55/418 710/30/418
f 712/34/419 724/57/419 723/56/419 711/32/419
f 713/36/420 725/58/420 724/57/420 712/34/420
f 714/38/421 726/59/421 725/58/421 713/36/421
f 715/40/422 727/60/422 726/61/422 714/41/422
f 716/44/423 728/62/423 727/60/423 715/40/423
f 717/46/424 729/63/424 728/62/424 716/44/424
f 718/48/425 730/64/425 729/63/425 717/46/425
f 719/50/426 731/65/426 730/64/426 718/48/426
f 720/52/427 732/66/427 731/65/427 719/50/427
f 721/53/428 733/67/428 744/68/428 732/54/428
f 722/55/429 734/69/429 733/67/429 721/53/429
f 723/56/430 735/70/430 734/69/430 722/55/430
f 724/57/431 736/71/431 735/70/431 723/56/431
f 725/58/432 737/72/432 736/71/432 724/57/432
f 726/59/433 738/73/433 737/72/433 725/58/433
f 727/60/434 739/74/434 738/75/434 726/61/434
f 728/62/435 740/76/435 739/74/435 727/60/435
f 729/63/436 741/77/436 740/76/436 728/62/436
f 730/64/437 742/78/437 741/77/437 729/63/437
f 731/65/438 743/79/438 742/78/438 730/64/438
f 732/66/439 744/80/439 743/79/439 731/65/439
f 733/67/440 745/81/440 756/82/440 744/68/440
f 734/69/441 746/83/441 745/81/441 733/67/441
f 735/70/442 747/84/442 746/83/442 734/69/442
f 736/71/443 748/85/443 747/84/443 735/70/443
f 737/72/444 749/86/444 748/85/444 736/71/444
f 738/73/445 750/87/445 749/86/445 737/72/445
f 739/74/446 751/88/446 750/89/446 738/75/446
f 740/76/447 752/90/447 751/88/447 739/74/447
f 741/77/448 753/91/448 752/90/448 740/76/448
f 742/78/449 754/92/449 753/91/449 741/77/449
f 743/79/450 755/93/450 754/92/450 742/78/450
f 744/80/451 756/94/451 755/93/451 743/79/451
f 766/1/452 764/2/452 765/3/452
f 767/4/452 764/2/452 766/1/452
f 767/4/452 763/5/452 764/2/452
f 768/6/452 763/5/452 767/4/452
f 768/6/452 762/7/452 763/5/452
f 757/8/452 762/7/452 768/6/452
f 757/8/452 761/9/452 762/7/452
f 758/10/452 761/9/452 757/8/452
f 758/10/453 760/11/453 761/9/453
f 759/12/452 760/11/452 758/10/452
f 776/13/454 778/14/454 777/15/454
f 775/16/454 778/14/454 776/13/454
f 775/16/454 779/17/454 778/14/454
f 774/18/454 779/17/454 775/16/454
f 774/18/454 780/19/454 779/17/454
f 773/20/454 780/19/454 774/18/454
f 773/20/454 769/21/454 780/19/454
f 772/22/454 769/21/454 773/20/454
f 772/22/454 770/23/454 769/21/454
f 771/24/455 770/23/455 772/22/455
f 781/25/456 793/26/456 804/27/456 792/28/456
f 782/29/457 794/30/457 793/26/457 781/25/457
f 783/31/458 795/32/458 794/30/458 782/29/458
f 784/33/459 796/34/459 795/32/459 783/31/459
f 785/35/460 797/36/460 796/34/460 784/33/460
f 786/37/461 798/38/461 797/36/461 785/35/461
f 787/39/462 799/40/462 798/41/462 786/42/462
f 788/43/463 800/44/463 799/40/463 787/39/463
f 789/45/464 801/46/464 800/44/464 788/43/464
f 790/47/465 802/48/465 801/46/465 789/45/465
f 791/49/466 803/50/466 802/48/466 790/47/466
f 792/51/467 804/52/467 803/50/467 791/49/467
f 793/26/468 805/53/468 816/54/468 804/27/468
f 794/30/469 806/55/469 805/53/469 793/26/469
f 795/32/470 807/56/470 806/55/470 794/30/470
f 796/34/471 808/57/471 807/56/471 795/32/471
f 797/36/472 809/58/472 808/57/472 796/34/472
f 798/38/473 810/59/473 809/58/473 797/36/473
f 799/40/474 811/60/474 810/61/474 798/41/474
f 800/44/475 812/62/475 811/60/475 799/40/475
f 801/46/476 813/63/476 812/62/476 800/44/476
f 802/48/477 814/64/477 813/63/477 801/46/477
f 803/50/478 815/65/478 814/64/478 802/48/478
f 804/52/479 816/66/479 815/65/479 803/50/479
f 805/53/480 817/67/480 828/68/480 816/54/480
f 806/55/481 818/69/481 817/67/481 805/53/481
f 807/56/482 819/70/482 818/69/482 806/55/482
f 808/57/483 820/71/483 819/70/483 807/56/483
f 809/58/484 821/72/484 820/71/484 808/57/484
f 810/59/485 822/73/485 821/72/485 809/58/485
f 811/60/486 823/74/486 822/75/486 810/61/486
f 812/62/487 824/76/487 823/74/487 811/60/487
f 813/63/488 825/77/488 824/76/488 812/62/488
f 814/64/489 826/78/489 825/77/489 813/63/489
f 815/65/490 827/79/490 826/78/490 814/64/490
f 816/66/491 828/80/491 827/79/491 815/65/491
f 817/67/492 829/81/492 840/82/492 828/68/492
f 818/69/493 830/83/493 829/81/493 817/67/493
f 819/70/494 831/84/494 830/83/494 818/69/494
f 820/71/495 832/85/495 831/84/495 819/70/495
f 821/72/496 833/86/496 832/85/496 820/71/496
f 822/73/497 834/87/497 833/86/497 821/72/497
f 823/74/498 835/88/498 834/89/498 822/75/498
f 824/76/499 836/90/499 835/88/499 823/74/499
f 825/77/500 837/91/500 836/90/500 824/76/500
f 826/78/501 838/92/501 837/91/501 825/77/501
f 827/79/502 839/93/502 838/92/502 826/78/502
f 828/80/503 840/94/503 839/93/503 827/79/503
