# Blender 5.2.1 LTS
# www.blender.org
mtllib SmallLight.mtl
o SmallLight
v 0.022748 0.051551 0.143171
v -0.000001 0.051551 0.143171
v 0.022748 -0.051552 0.143171
v -0.000001 -0.051552 0.143171
v 0.022748 -0.048637 0.154705
v 0.022748 0.051551 0.154705
v 0.066014 -0.046284 0.143171
v 0.066014 0.046283 0.143171
v 0.064427 -0.043670 0.154705
v 0.064427 0.043669 0.154705
v 0.022748 -0.000000 0.143171
v -0.000001 -0.000000 0.143171
v 0.089513 -0.000000 0.143171
v 0.086531 -0.000000 0.154705
v 0.022748 0.025775 0.143171
v 0.083964 0.025775 0.143171
v 0.081273 0.024423 0.154705
v -0.000001 0.025775 0.143171
v -0.000001 -0.025776 0.143171
v 0.022748 -0.025776 0.143171
v 0.083964 -0.025776 0.143171
v 0.081273 -0.024424 0.154705
v 0.044031 -0.048637 0.154705
v 0.044031 0.048636 0.154705
v 0.044381 0.051551 0.143171
v 0.044381 -0.051552 0.143171
v 0.057609 -0.000000 0.143171
v 0.054383 0.025775 0.143171
v 0.054383 -0.025776 0.143171
v 0.022748 0.048636 0.154705
v -0.000001 0.051551 0.154705
v -0.000001 -0.025776 0.154705
v -0.000001 -0.051552 0.154705
v 0.022748 -0.051552 0.154705
v 0.083964 0.025775 0.154705
v 0.066014 0.046283 0.154705
v 0.044381 -0.051552 0.154705
v 0.066014 -0.046284 0.154705
v 0.044381 0.051551 0.154705
v -0.000001 0.025775 0.154705
v -0.000001 -0.000000 0.154705
v 0.083964 -0.025776 0.154705
v 0.089513 -0.000000 0.154705
v 0.022748 0.025775 0.163345
v 0.022748 0.048636 0.163345
v 0.022748 0.051551 0.163345
v -0.000001 0.051551 0.163345
v -0.000001 -0.025776 0.163345
v -0.000001 -0.051552 0.163345
v 0.022748 -0.051552 0.163345
v 0.022748 -0.025776 0.163345
v 0.022748 -0.000000 0.163345
v -0.000001 0.025775 0.163345
v -0.000001 -0.000000 0.163345
v 0.057609 -0.000000 0.163345
v 0.086531 -0.000000 0.163345
v 0.002914 -0.000000 0.163345
v 0.002914 0.025775 0.163345
v 0.054383 0.025775 0.163345
v 0.081273 0.024423 0.163345
v 0.022748 -0.048637 0.163345
v 0.054383 -0.025776 0.163345
v 0.081273 -0.024424 0.163345
v 0.002914 -0.025776 0.163345
v 0.044031 0.048636 0.163345
v 0.044031 -0.048637 0.163345
v 0.002914 0.048636 0.163345
v 0.002914 -0.048637 0.163345
v 0.064427 0.043669 0.163345
v 0.064427 -0.043670 0.163345
v 0.022748 0.051551 -0.143171
v -0.000001 0.051551 -0.143171
v 0.022748 -0.051552 -0.143171
v -0.000001 -0.051552 -0.143171
v 0.022748 -0.048637 -0.154705
v 0.022748 0.051551 -0.154705
v 0.066014 -0.046284 -0.143171
v 0.066014 0.046283 -0.143171
v 0.064427 -0.043670 -0.154705
v 0.064427 0.043669 -0.154705
v 0.022748 -0.000000 -0.143171
v -0.000001 -0.000000 -0.143171
v 0.089513 -0.000000 -0.143171
v 0.086531 -0.000000 -0.154705
v 0.022748 0.025775 -0.143171
v 0.083964 0.025775 -0.143171
v 0.081273 0.024423 -0.154705
v -0.000001 0.025775 -0.143171
v -0.000001 -0.025776 -0.143171
v 0.022748 -0.025776 -0.143171
v 0.083964 -0.025776 -0.143171
v 0.081273 -0.024424 -0.154705
v 0.044031 -0.048637 -0.154705
v 0.044031 0.048636 -0.154705
v 0.044381 0.051551 -0.143171
v 0.044381 -0.051552 -0.143171
v 0.057609 -0.000000 -0.143171
v 0.054383 0.025775 -0.143171
v 0.054383 -0.025776 -0.143171
v 0.022748 0.048636 -0.154705
v -0.000001 0.051551 -0.154705
v -0.000001 -0.025776 -0.154705
v -0.000001 -0.051552 -0.154705
v 0.022748 -0.051552 -0.154705
v 0.083964 0.025775 -0.154705
v 0.066014 0.046283 -0.154705
v 0.044381 -0.051552 -0.154705
v 0.066014 -0.046284 -0.154705
v 0.044381 0.051551 -0.154705
v -0.000001 0.025775 -0.154705
v -0.000001 -0.000000 -0.154705
v 0.083964 -0.025776 -0.154705
v 0.089513 -0.000000 -0.154705
v 0.022748 0.025775 -0.163345
v 0.022748 0.048636 -0.163345
v 0.022748 0.051551 -0.163345
v -0.000001 0.051551 -0.163345
v -0.000001 -0.025776 -0.163345
v -0.000001 -0.051552 -0.163345
v 0.022748 -0.051552 -0.163345
v 0.022748 -0.025776 -0.163345
v 0.022748 -0.000000 -0.163345
v -0.000001 0.025775 -0.163345
v -0.000001 -0.000000 -0.163345
v 0.057609 -0.000000 -0.163345
v 0.086531 -0.000000 -0.163345
v 0.002914 -0.000000 -0.163345
v 0.002914 0.025775 -0.163345
v 0.054383 0.025775 -0.163345
v 0.081273 0.024423 -0.163345
v 0.022748 -0.048637 -0.163345
v 0.054383 -0.025776 -0.163345
v 0.081273 -0.024424 -0.163345
v 0.002914 -0.025776 -0.163345
v 0.044031 0.048636 -0.163345
v 0.044031 -0.048637 -0.163345
v 0.002914 0.048636 -0.163345
v 0.002914 -0.048637 -0.163345
v 0.064427 0.043669 -0.163345
v 0.064427 -0.043670 -0.163345
v 0.044967 0.047108 0.139758
v 0.044967 0.051028 0.139758
v 0.046927 0.049068 0.139758
v 0.043007 0.049068 0.139758
v 0.078202 0.033127 0.139758
v 0.080973 0.035898 0.139758
v 0.080973 0.033127 0.139758
v 0.078202 0.035898 0.139758
v 0.091816 -0.000260 0.139758
v 0.095735 -0.000260 0.139758
v 0.093776 -0.002220 0.139758
v 0.093776 0.001700 0.139758
v 0.077835 -0.033495 0.139758
v 0.080606 -0.036267 0.139758
v 0.077835 -0.036267 0.139758
v 0.080606 -0.033495 0.139758
v 0.044448 -0.047110 0.139758
v 0.044448 -0.051029 0.139758
v 0.042488 -0.049069 0.139758
v 0.046407 -0.049069 0.139758
v 0.081632 0.036499 0.138034
v 0.081632 -0.036500 0.138034
v 0.096751 -0.000001 0.138034
v 0.045132 0.051618 0.138034
v 0.045132 -0.051619 0.138034
v 0.092821 0.019753 0.138034
v 0.092821 -0.019754 0.138034
v 0.025463 -0.050858 0.138034
v 0.025463 0.050856 0.138034
v 0.064886 0.047688 0.138034
v 0.064886 -0.047690 0.138034
v 0.081632 0.036499 0.135377
v 0.081632 -0.036500 0.135377
v 0.096751 -0.000001 0.135377
v 0.045132 0.051618 0.135377
v 0.045132 -0.051619 0.135377
v 0.092821 0.019753 0.135377
v 0.092821 -0.019754 0.135377
v 0.025463 -0.050858 0.135377
v 0.025463 0.050856 0.135377
v 0.064886 0.047688 0.135377
v 0.064886 -0.047690 0.135377
v 0.077816 0.032683 0.138034
v 0.077816 -0.032684 0.138034
v 0.091354 -0.000001 0.138034
v 0.044707 0.046237 0.138034
v 0.044707 -0.046239 0.138034
v 0.087835 0.017688 0.138034
v 0.087835 -0.017689 0.138034
v 0.025672 -0.045465 0.138034
v 0.025672 0.045464 0.138034
v 0.062821 0.042702 0.138034
v 0.062821 -0.042704 0.138034
v 0.077816 0.032683 0.135377
v 0.077816 -0.032684 0.135377
v 0.091354 -0.000001 0.135377
v 0.044707 0.046237 0.135377
v 0.044707 -0.046239 0.135377
v 0.087835 0.017688 0.135377
v 0.087835 -0.017689 0.135377
v 0.025672 -0.045465 0.135377
v 0.025672 0.045464 0.135377
v 0.062821 0.042702 0.135377
v 0.062821 -0.042704 0.135377
v 0.081632 0.036499 0.046594
v 0.081632 -0.036500 0.046594
v 0.096751 -0.000001 0.046594
v 0.045132 0.051618 0.046594
v 0.045132 -0.051619 0.046594
v 0.092821 0.019753 0.046594
v 0.092821 -0.019754 0.046594
v 0.025463 -0.050858 0.046594
v 0.025463 0.050856 0.046594
v 0.064886 0.047688 0.046594
v 0.064886 -0.047690 0.046594
v 0.081632 0.036499 0.043937
v 0.081632 -0.036500 0.043937
v 0.096751 -0.000001 0.043937
v 0.045132 0.051618 0.043937
v 0.045132 -0.051619 0.043937
v 0.092821 0.019753 0.043937
v 0.092821 -0.019754 0.043937
v 0.025463 -0.050858 0.043937
v 0.025463 0.050856 0.043937
v 0.064886 0.047688 0.043937
v 0.064886 -0.047690 0.043937
v 0.077816 0.032683 0.046594
v 0.077816 -0.032684 0.046594
v 0.091354 -0.000001 0.046594
v 0.044707 0.046237 0.046594
v 0.044707 -0.046239 0.046594
v 0.087835 0.017688 0.046594
v 0.087835 -0.017689 0.046594
v 0.025672 -0.045465 0.046594
v 0.025672 0.045464 0.046594
v 0.062821 0.042702 0.046594
v 0.062821 -0.042704 0.046594
v 0.077816 0.032683 0.043937
v 0.077816 -0.032684 0.043937
v 0.091354 -0.000001 0.043937
v 0.044707 0.046237 0.043937
v 0.044707 -0.046239 0.043937
v 0.087835 0.017688 0.043937
v 0.087835 -0.017689 0.043937
v 0.025672 -0.045465 0.043937
v 0.025672 0.045464 0.043937
v 0.062821 0.042702 0.043937
v 0.062821 -0.042704 0.043937
v 0.022748 0.044587 0.139758
v 0.025803 0.044587 0.139758
v 0.022748 0.051418 0.139758
v 0.025803 0.051418 0.139758
v 0.022748 -0.044588 0.139758
v 0.025803 -0.044588 0.139758
v 0.022748 -0.051420 0.139758
v 0.025803 -0.051420 0.139758
v 0.044967 0.047108 -0.140259
v 0.044967 0.051028 -0.140259
v 0.046927 0.049068 -0.140259
v 0.043007 0.049068 -0.140259
v 0.078202 0.033127 -0.140259
v 0.080973 0.035898 -0.140259
v 0.080973 0.033127 -0.140259
v 0.078202 0.035898 -0.140259
v 0.091816 -0.000260 -0.140259
v 0.095735 -0.000260 -0.140259
v 0.093776 -0.002220 -0.140259
v 0.093776 0.001700 -0.140259
v 0.077835 -0.033495 -0.140259
v 0.080606 -0.036267 -0.140259
v 0.077835 -0.036267 -0.140259
v 0.080606 -0.033495 -0.140259
v 0.044448 -0.047110 -0.140259
v 0.044448 -0.051029 -0.140259
v 0.042488 -0.049069 -0.140259
v 0.046407 -0.049069 -0.140259
v 0.081632 0.036499 -0.138536
v 0.081632 -0.036500 -0.138536
v 0.096751 -0.000001 -0.138536
v 0.045132 0.051618 -0.138536
v 0.045132 -0.051619 -0.138536
v 0.092821 0.019753 -0.138536
v 0.092821 -0.019754 -0.138536
v 0.025463 -0.050858 -0.138536
v 0.025463 0.050856 -0.138536
v 0.064886 0.047688 -0.138536
v 0.064886 -0.047690 -0.138536
v 0.081632 0.036499 -0.135878
v 0.081632 -0.036500 -0.135878
v 0.096751 -0.000001 -0.135878
v 0.045132 0.051618 -0.135878
v 0.045132 -0.051619 -0.135878
v 0.092821 0.019753 -0.135878
v 0.092821 -0.019754 -0.135878
v 0.025463 -0.050858 -0.135878
v 0.025463 0.050856 -0.135878
v 0.064886 0.047688 -0.135878
v 0.064886 -0.047690 -0.135878
v 0.077816 0.032683 -0.138536
v 0.077816 -0.032684 -0.138536
v 0.091354 -0.000001 -0.138536
v 0.044707 0.046237 -0.138536
v 0.044707 -0.046239 -0.138536
v 0.087835 0.017688 -0.138536
v 0.087835 -0.017689 -0.138536
v 0.025672 -0.045465 -0.138536
v 0.025672 0.045464 -0.138536
v 0.062821 0.042702 -0.138536
v 0.062821 -0.042704 -0.138536
v 0.077816 0.032683 -0.135878
v 0.077816 -0.032684 -0.135878
v 0.091354 -0.000001 -0.135878
v 0.044707 0.046237 -0.135878
v 0.044707 -0.046239 -0.135878
v 0.087835 0.017688 -0.135878
v 0.087835 -0.017689 -0.135878
v 0.025672 -0.045465 -0.135878
v 0.025672 0.045464 -0.135878
v 0.062821 0.042702 -0.135878
v 0.062821 -0.042704 -0.135878
v 0.081632 0.036499 -0.047096
v 0.081632 -0.036500 -0.047096
v 0.096751 -0.000001 -0.047096
v 0.045132 0.051618 -0.047096
v 0.045132 -0.051619 -0.047096
v 0.092821 0.019753 -0.047096
v 0.092821 -0.019754 -0.047096
v 0.025463 -0.050858 -0.047096
v 0.025463 0.050856 -0.047096
v 0.064886 0.047688 -0.047096
v 0.064886 -0.047690 -0.047096
v 0.081632 0.036499 -0.044438
v 0.081632 -0.036500 -0.044438
v 0.096751 -0.000001 -0.044438
v 0.045132 0.051618 -0.044438
v 0.045132 -0.051619 -0.044438
v 0.092821 0.019753 -0.044438
v 0.092821 -0.019754 -0.044438
v 0.025463 -0.050858 -0.044438
v 0.025463 0.050856 -0.044438
v 0.064886 0.047688 -0.044438
v 0.064886 -0.047690 -0.044438
v 0.077816 0.032683 -0.047096
v 0.077816 -0.032684 -0.047096
v 0.091354 -0.000001 -0.047096
v 0.044707 0.046237 -0.047096
v 0.044707 -0.046239 -0.047096
v 0.087835 0.017688 -0.047096
v 0.087835 -0.017689 -0.047096
v 0.025672 -0.045465 -0.047096
v 0.025672 0.045464 -0.047096
v 0.062821 0.042702 -0.047096
v 0.062821 -0.042704 -0.047096
v 0.077816 0.032683 -0.044438
v 0.077816 -0.032684 -0.044438
v 0.091354 -0.000001 -0.044438
v 0.044707 0.046237 -0.044438
v 0.044707 -0.046239 -0.044438
v 0.087835 0.017688 -0.044438
v 0.087835 -0.017689 -0.044438
v 0.025672 -0.045465 -0.044438
v 0.025672 0.045464 -0.044438
v 0.062821 0.042702 -0.044438
v 0.062821 -0.042704 -0.044438
v 0.022748 0.044587 -0.140259
v 0.025803 0.044587 -0.140259
v 0.022748 0.051418 -0.140259
v 0.025803 0.051418 -0.140259
v 0.022748 -0.044588 -0.140259
v 0.025803 -0.044588 -0.140259
v 0.022748 -0.051420 -0.140259
v 0.025803 -0.051420 -0.140259
v 0.053225 -0.028685 0.143171
v 0.024540 -0.000001 0.143171
v 0.081908 -0.000001 0.143171
v 0.073507 0.020282 0.143171
v 0.032941 0.020282 0.143171
v 0.073507 -0.020284 0.143171
v 0.032941 -0.020284 0.143171
v 0.053225 0.028683 0.143171
v 0.079725 0.010976 0.143171
v 0.026724 0.010976 0.143171
v 0.026724 -0.010978 0.143171
v 0.079725 -0.010978 0.143171
v 0.042247 -0.026501 0.143171
v 0.042247 0.026500 0.143171
v 0.064201 -0.026501 0.143171
v 0.064201 0.026500 0.143171
v 0.053225 -0.028685 -0.143171
v 0.024540 -0.000001 -0.143171
v 0.081908 -0.000001 -0.143171
v 0.073507 0.020282 -0.143171
v 0.032941 0.020282 -0.143171
v 0.073507 -0.020284 -0.143171
v 0.032941 -0.020284 -0.143171
v 0.053225 0.028683 -0.143171
v 0.079725 0.010976 -0.143171
v 0.026724 0.010976 -0.143171
v 0.026724 -0.010978 -0.143171
v 0.079725 -0.010978 -0.143171
v 0.042247 -0.026501 -0.143171
v 0.042247 0.026500 -0.143171
v 0.064201 -0.026501 -0.143171
v 0.064201 0.026500 -0.143171
vn -0.0000 -1.0000 -0.0000
vn -1.0000 -0.0000 -0.0000
vn 1.0000 -0.0000 -0.0000
vn -0.0000 1.0000 -0.0000
vn 0.7525 0.6586 -0.0000
vn 0.2366 0.9716 -0.0000
vn -0.0000 -0.0000 -1.0000
vn 0.2366 -0.9716 -0.0000
vn 0.9776 -0.2105 -0.0000
vn 0.9776 0.2105 -0.0000
vn 0.7525 -0.6586 -0.0000
vn 0.9776 -0.2104 -0.0000
vn -0.0000 -0.0000 1.0000
vn -0.5774 -0.5774 -0.5774
vn -0.5774 -0.5774 0.5774
vn -0.5774 0.5774 0.5774
vn -0.5774 0.5774 -0.5774
vn 0.7764 -0.0000 0.6302
vn -0.0000 0.7764 0.6302
vn -0.7764 -0.0000 0.6302
vn -0.0000 -0.7764 0.6302
vn 0.7071 -0.0050 0.7071
vn -0.5825 0.5748 0.5748
vn -0.7071 0.0050 0.7071
vn -0.5491 -0.5490 0.6302
vn -0.7764 -0.0001 0.6303
vn -0.5490 -0.5491 0.6302
vn 0.5490 -0.5490 0.6302
vn 0.5490 0.5490 0.6302
vn -0.5490 0.5490 0.6302
vn 0.2856 0.6894 0.6657
vn 0.5276 0.5276 0.6657
vn 0.5276 0.5276 -0.6657
vn 0.2856 0.6894 -0.6657
vn 0.0576 -0.7294 0.6817
vn -0.5992 -0.5546 0.5774
vn -0.5992 -0.5546 -0.5774
vn 0.0576 -0.7294 -0.6817
vn 0.2856 -0.6894 0.6657
vn 0.2856 -0.6894 -0.6657
vn 0.6894 -0.2856 0.6657
vn 0.5276 -0.5276 0.6657
vn 0.5276 -0.5276 -0.6657
vn 0.6894 -0.2856 -0.6657
vn 0.0576 0.7294 0.6817
vn 0.0576 0.7294 -0.6817
vn 0.6894 0.2856 0.6657
vn 0.6894 0.2856 -0.6657
vn 0.7462 -0.0000 0.6657
vn 0.7462 -0.0000 -0.6657
vn -0.5992 0.5546 0.5774
vn -0.5992 0.5546 -0.5774
vn -0.2502 -0.6071 0.7542
vn -0.2502 -0.6071 -0.7542
vn -0.4647 -0.4647 -0.7538
vn -0.4647 -0.4647 0.7538
vn -0.0516 0.6769 0.7343
vn -0.0516 0.6769 -0.7343
vn -0.5541 0.5998 -0.5772
vn -0.5541 0.5998 0.5772
vn -0.2502 0.6071 0.7542
vn -0.2502 0.6071 -0.7542
vn -0.6071 0.2515 0.7538
vn -0.6071 0.2515 -0.7538
vn -0.4647 0.4647 -0.7538
vn -0.4647 0.4647 0.7538
vn -0.0516 -0.6769 0.7343
vn -0.0516 -0.6769 -0.7343
vn -0.6071 -0.2515 -0.7538
vn -0.6071 -0.2515 0.7538
vn -0.6571 -0.0000 -0.7538
vn -0.6571 -0.0000 0.7538
vn -0.5541 -0.5998 0.5772
vn -0.5541 -0.5998 -0.5772
vn 0.5774 -0.5774 0.5774
vn 0.5774 0.5774 0.5774
vn -0.7764 -0.0000 -0.6302
vn -0.0000 -0.7764 -0.6302
vn 0.5774 -0.5774 -0.5774
vn 0.5774 0.5774 -0.5774
vn -0.0000 0.7764 -0.6302
vn 0.7764 -0.0004 -0.6302
vn -0.7071 0.0050 -0.7071
vn -0.5490 -0.5490 -0.6302
vn 0.5491 0.5490 -0.6302
vn -0.5490 0.5490 -0.6302
vn 0.7071 -0.7071 -0.0049
vn -0.5824 0.5748 -0.5748
vn 0.7764 -0.0000 -0.6302
vn -0.0001 -0.7764 -0.6302
vn 0.5490 -0.5490 -0.6302
vn -0.5490 -0.5491 -0.6302
vn 0.7764 -0.0001 -0.6302
vn 0.3827 0.9239 -0.0000
vn -0.9239 -0.3827 -0.0000
vn 0.9239 -0.3827 -0.0000
vn 0.9239 0.3827 -0.0000
vn 0.7071 0.7071 -0.0000
vn 0.3827 -0.9239 -0.0000
vn 0.7071 -0.7071 -0.0000
vn -0.9239 0.3827 -0.0000
vn -0.7071 -0.7071 -0.0000
vn -0.3827 -0.9239 -0.0000
vn -0.7071 0.7071 -0.0000
vn -0.3827 0.9239 -0.0000
vt 0.236167 0.575191
vt 0.278857 0.575191
vt 0.278857 0.596834
vt 0.236167 0.596834
vt 0.000000 0.037856
vt 0.048369 0.037856
vt 0.048369 0.575191
vt -0.000000 0.575191
vt 0.663263 0.000000
vt 0.663263 0.537335
vt 0.614894 0.537335
vt 0.614894 0.000000
vt 0.236167 0.037856
vt 0.278857 0.037856
vt 0.236167 0.037856
vt 0.193477 0.037856
vt 0.193477 0.016213
vt 0.236167 0.016213
vt 0.145107 0.575191
vt 0.193477 0.575191
vt 0.193477 0.596834
vt 0.145107 0.596834
vt 0.845476 0.658984
vt 0.845476 0.607841
vt 0.867119 0.607841
vt 0.867119 0.658984
vt 0.845476 0.566060
vt 0.867119 0.566060
vt 0.059364 0.854892
vt 0.040595 0.806523
vt 0.081189 0.816409
vt 0.114874 0.854892
vt 0.867119 0.850863
vt 0.845477 0.850863
vt 0.845477 0.809082
vt 0.867119 0.809082
vt 0.059364 0.951631
vt 0.065417 0.903262
vt 0.125287 0.903262
vt 0.114874 0.951631
vt 0.845477 0.757939
vt 0.845477 0.708461
vt 0.867119 0.708461
vt 0.867119 0.757939
vt -0.000000 0.596834
vt 0.048369 0.596834
vt 0.048369 0.613047
vt -0.000000 0.613047
vt 0.096738 0.575191
vt 0.096738 0.596834
vt 0.193477 -0.000000
vt 0.236167 -0.000000
vt 0.760001 -0.000000
vt 0.760001 0.537335
vt 0.711632 0.537335
vt 0.711632 0.000000
vt 0.420356 0.717015
vt 0.420356 0.670133
vt 0.436569 0.670133
vt 0.436569 0.717015
vt 0.420357 0.542805
vt 0.420357 0.537334
vt 0.436569 0.537334
vt 0.436569 0.542805
vt 0.145107 0.037856
vt 0.193477 0.037856
vt 0.040595 1.000000
vt 0.081189 0.990115
vt 0.420356 0.763898
vt 0.436569 0.763898
vt 0.096738 0.613047
vt 0.420356 0.622136
vt 0.420356 0.582743
vt 0.436569 0.582743
vt 0.436569 0.622136
vt 0.000000 1.000000
vt 0.000000 0.951631
vt 0.000000 0.903262
vt 0.000000 0.854892
vt 0.420356 0.891225
vt 0.420356 0.851287
vt 0.436569 0.851287
vt 0.436569 0.891225
vt 0.867119 0.891458
vt 0.845477 0.891458
vt 0.000000 0.806523
vt 0.845476 0.525466
vt 0.867119 0.525466
vt 0.420356 0.811894
vt 0.436569 0.811894
vt 0.278857 0.613047
vt 0.236167 0.613047
vt 0.420356 0.896695
vt 0.436569 0.896695
vt 0.693063 0.745602
vt 0.661451 0.781718
vt 0.656402 0.779181
vt 0.690086 0.740698
vt 0.693063 0.909498
vt 0.731337 0.918819
vt 0.730681 0.924289
vt 0.690086 0.914403
vt 0.771276 0.736282
vt 0.731337 0.736282
vt 0.730681 0.730812
vt 0.771276 0.730812
vt 0.651584 0.827550
vt 0.661451 0.873383
vt 0.656402 0.875919
vt 0.645989 0.827550
vt 0.145107 0.613047
vt 0.193477 0.613047
vt 0.771276 0.918819
vt 0.771276 0.924289
vt 0.765680 0.682443
vt 0.802900 0.682443
vt 0.802900 0.725342
vt 0.765680 0.725342
vt 0.706316 0.682443
vt 0.725742 0.725342
vt 0.687468 0.716021
vt 0.655855 0.679906
vt 0.706316 0.585704
vt 0.700263 0.634074
vt 0.645989 0.634074
vt 0.655855 0.588241
vt 0.765680 0.585704
vt 0.802900 0.585704
vt 0.802900 0.634074
vt 0.765680 0.634074
vt 0.765680 0.542806
vt 0.802900 0.542806
vt 0.725742 0.542806
vt 0.687468 0.552126
vt 0.765680 0.537335
vt 0.808371 0.537335
vt 0.808371 0.682443
vt 0.808371 0.730812
vt 0.765680 0.730812
vt 0.808371 0.585704
vt 0.808371 0.634074
vt 0.096738 0.037856
vt 0.808371 -0.000000
vt 0.808371 0.537335
vt 0.845477 0.525466
vt 0.845476 0.000000
vt 0.858296 0.000000
vt 0.858296 0.525466
vt 0.236167 0.016213
vt 0.278857 0.016213
vt 0.236167 0.575191
vt 0.236167 0.596834
vt 0.193477 0.596834
vt 0.193477 0.575191
vt 0.145107 0.016213
vt 0.193477 0.016213
vt 0.830014 0.658984
vt 0.808371 0.658984
vt 0.808371 0.607841
vt 0.830014 0.607841
vt 0.830014 0.566060
vt 0.808371 0.566060
vt 0.191209 0.854892
vt 0.135700 0.854892
vt 0.169384 0.816409
vt 0.209978 0.806523
vt 0.808371 0.850863
vt 0.808371 0.809082
vt 0.830014 0.809082
vt 0.830014 0.850863
vt 0.191209 0.951631
vt 0.135700 0.951631
vt 0.185156 0.903262
vt 0.830014 0.757939
vt 0.808371 0.757939
vt 0.808371 0.708462
vt 0.830014 0.708462
vt 0.000000 0.016213
vt 0.000000 0.000000
vt 0.048369 0.000000
vt 0.048369 0.016213
vt 0.096738 0.016213
vt 0.236167 0.613047
vt 0.193477 0.613047
vt 0.295070 0.717015
vt 0.278857 0.717015
vt 0.278857 0.670133
vt 0.295070 0.670133
vt 0.295070 0.542805
vt 0.278857 0.542805
vt 0.278857 0.537334
vt 0.295070 0.537334
vt 0.209978 1.000000
vt 0.169384 0.990115
vt 0.295070 0.763898
vt 0.278857 0.763898
vt 0.096738 0.000000
vt 0.295070 0.622136
vt 0.278857 0.622136
vt 0.278857 0.582743
vt 0.295070 0.582743
vt 0.250573 1.000000
vt 0.250573 0.951631
vt 0.250573 0.903262
vt 0.250573 0.854892
vt 0.295070 0.891225
vt 0.278857 0.891225
vt 0.278857 0.851287
vt 0.295070 0.851287
vt 0.808371 0.891458
vt 0.830014 0.891458
vt 0.250573 0.806523
vt 0.830014 0.525466
vt 0.808371 0.525466
vt 0.278857 0.811894
vt 0.295070 0.811894
vt 0.236167 0.000000
vt 0.278857 0.000000
vt 0.295070 0.896695
vt 0.278857 0.896695
vt 0.373283 0.718009
vt 0.376259 0.713104
vt 0.409944 0.751587
vt 0.404895 0.754124
vt 0.373283 0.881904
vt 0.376259 0.886810
vt 0.335665 0.896695
vt 0.335008 0.891225
vt 0.295070 0.708689
vt 0.295070 0.703218
vt 0.335665 0.703218
vt 0.335008 0.708689
vt 0.414761 0.799957
vt 0.420356 0.799957
vt 0.409943 0.848326
vt 0.404895 0.845790
vt 0.145107 0.000000
vt 0.193477 0.000000
vt 0.042690 0.758154
vt 0.042690 0.801053
vt 0.005471 0.801053
vt 0.005471 0.758154
vt 0.102054 0.758154
vt 0.152515 0.755618
vt 0.120903 0.791733
vt 0.082628 0.801053
vt 0.102054 0.661416
vt 0.152515 0.663953
vt 0.162382 0.709785
vt 0.108107 0.709785
vt 0.042690 0.661416
vt 0.042690 0.709785
vt 0.005471 0.709785
vt 0.005471 0.661416
vt 0.042690 0.618517
vt 0.005471 0.618517
vt 0.082628 0.618517
vt 0.120903 0.627837
vt 0.000000 0.613047
vt 0.042690 0.613047
vt 0.000000 0.806523
vt 0.000000 0.758154
vt 0.042690 0.806523
vt 0.000000 0.709785
vt 0.000000 0.661416
vt 0.578109 0.552663
vt 0.578109 0.547462
vt 0.583310 0.547462
vt 0.583310 0.552663
vt 0.572376 0.588431
vt 0.572376 0.583230
vt 0.577577 0.583230
vt 0.577577 0.588431
vt 0.582350 0.578304
vt 0.582350 0.573103
vt 0.587552 0.573103
vt 0.587551 0.578303
vt 0.588511 0.552662
vt 0.583310 0.552662
vt 0.588511 0.547462
vt 0.588297 0.542535
vt 0.583096 0.542535
vt 0.583096 0.537334
vt 0.588297 0.537334
vt 0.490370 0.611664
vt 0.490258 0.647050
vt 0.485319 0.647112
vt 0.485420 0.611716
vt 0.489874 0.859295
vt 0.489728 0.894348
vt 0.484763 0.894297
vt 0.485077 0.859291
vt 0.490123 0.824465
vt 0.485396 0.824492
vt 0.490478 0.755829
vt 0.490130 0.790411
vt 0.485309 0.790393
vt 0.485493 0.755798
vt 0.490261 0.574867
vt 0.485153 0.574891
vt 0.490627 0.682068
vt 0.485605 0.682147
vt 0.490938 0.718963
vt 0.485794 0.718999
vt 0.490195 0.537334
vt 0.484876 0.537369
vt 0.469708 0.611889
vt 0.474875 0.611788
vt 0.476072 0.647195
vt 0.471013 0.647267
vt 0.470778 0.859239
vt 0.475589 0.859232
vt 0.475172 0.894123
vt 0.470469 0.894070
vt 0.470463 0.824405
vt 0.475336 0.824424
vt 0.470361 0.755891
vt 0.475479 0.755753
vt 0.476278 0.790384
vt 0.471338 0.790405
vt 0.469774 0.574999
vt 0.475047 0.574962
vt 0.475503 0.682199
vt 0.470503 0.682111
vt 0.474782 0.718968
vt 0.469374 0.718958
vt 0.469374 0.537554
vt 0.474598 0.537498
vt 0.499592 0.859382
vt 0.499636 0.894355
vt 0.577363 0.562975
vt 0.577363 0.573103
vt 0.572376 0.573103
vt 0.572376 0.562975
vt 0.500976 0.611709
vt 0.499929 0.647040
vt 0.578109 0.547462
vt 0.578109 0.537334
vt 0.583096 0.537334
vt 0.583096 0.547462
vt 0.500590 0.574820
vt 0.500733 0.756031
vt 0.499551 0.790465
vt 0.500250 0.824471
vt 0.500957 0.681902
vt 0.502067 0.718994
vt 0.500803 0.537374
vt 0.457356 0.610640
vt 0.457291 0.646025
vt 0.452321 0.646094
vt 0.452427 0.610704
vt 0.457603 0.859289
vt 0.457610 0.894384
vt 0.452640 0.894355
vt 0.452800 0.859307
vt 0.457700 0.824418
vt 0.452969 0.824465
vt 0.457886 0.755686
vt 0.457552 0.790313
vt 0.452730 0.790348
vt 0.452895 0.755699
vt 0.457091 0.574120
vt 0.452053 0.574172
vt 0.457818 0.681454
vt 0.452743 0.681550
vt 0.458172 0.718750
vt 0.452993 0.718809
vt 0.456967 0.537334
vt 0.451755 0.537372
vt 0.436725 0.610874
vt 0.441943 0.610800
vt 0.443000 0.646155
vt 0.438053 0.646189
vt 0.438485 0.859317
vt 0.443302 0.859289
vt 0.443037 0.894222
vt 0.438329 0.894191
vt 0.438017 0.824443
vt 0.442896 0.824442
vt 0.437736 0.755831
vt 0.442857 0.755677
vt 0.443698 0.790361
vt 0.438754 0.790395
vt 0.437018 0.574231
vt 0.442076 0.574224
vt 0.442552 0.681635
vt 0.437207 0.681538
vt 0.441884 0.718853
vt 0.436569 0.718911
vt 0.436569 0.537605
vt 0.441678 0.537542
vt 0.467333 0.859334
vt 0.467530 0.894348
vt 0.582350 0.562975
vt 0.582350 0.573103
vt 0.577363 0.573103
vt 0.577363 0.562975
vt 0.467921 0.610645
vt 0.467023 0.645977
vt 0.567390 0.585922
vt 0.567390 0.575794
vt 0.572376 0.575794
vt 0.572376 0.585922
vt 0.467285 0.574039
vt 0.468155 0.755868
vt 0.466990 0.790345
vt 0.467837 0.824380
vt 0.468255 0.681255
vt 0.469374 0.718740
vt 0.467364 0.537337
vt 0.572376 0.562975
vt 0.572376 0.575794
vt 0.566644 0.575794
vt 0.566644 0.562975
vt 0.903385 0.525466
vt 0.903385 -0.000000
vt 0.908586 -0.000000
vt 0.908586 0.525466
vt 0.876848 0.000000
vt 0.876848 0.525466
vt 0.864029 0.525466
vt 0.864029 0.000000
vt 0.566644 0.550155
vt 0.572376 0.550155
vt 0.821191 -0.000000
vt 0.821191 0.525466
vt 0.808371 -0.000000
vt 0.826924 0.525466
vt 0.826923 -0.000000
vt 0.839744 -0.000000
vt 0.839744 0.525466
vt 0.882581 0.000000
vt 0.882581 0.525466
vt 0.918988 0.525466
vt 0.918988 -0.000000
vt 0.924190 -0.000000
vt 0.924190 0.525466
vt 0.970995 0.000000
vt 0.970995 0.525466
vt 0.965795 0.525466
vt 0.965795 0.000000
vt 0.913787 -0.000000
vt 0.913787 0.525466
vt 0.845476 -0.000000
vt 0.929390 0.000000
vt 0.929390 0.525466
vt 0.924190 0.525466
vt 0.924190 0.000000
vt 0.950193 0.000000
vt 0.950193 0.525466
vt 0.944992 0.525466
vt 0.944992 0.000000
vt 0.944992 0.000000
vt 0.939791 0.525466
vt 0.939791 0.000000
vt 0.934591 0.000000
vt 0.934591 0.525466
vt 0.976196 0.000000
vt 0.976196 0.525466
vt 0.986598 0.000000
vt 0.986598 0.525466
vt 0.981397 0.525466
vt 0.981397 0.000000
vt 0.955393 0.000000
vt 0.955393 0.525466
vt 0.960594 0.525466
vt 0.960594 0.000000
vt 0.892983 0.525466
vt 0.892983 0.000000
vt 0.898184 0.000000
vt 0.898184 0.525466
vt 0.903385 -0.000000
vt 0.903385 0.525466
vt 0.882581 0.525466
vt 0.882581 0.000000
vt 0.887782 0.000000
vt 0.887782 0.525466
vt 0.582350 0.567902
vt 0.587551 0.567902
vt 0.587551 0.573103
vt 0.582350 0.573103
vt 0.587551 0.583505
vt 0.587551 0.588706
vt 0.582351 0.588706
vt 0.582351 0.583505
vt 0.582350 0.557774
vt 0.587551 0.557774
vt 0.587551 0.562975
vt 0.567176 0.585922
vt 0.572376 0.585922
vt 0.572376 0.591122
vt 0.567176 0.591122
vt 0.582350 0.578304
vt 0.587552 0.578304
vt 0.587552 0.583505
vt 0.582351 0.583505
vt 0.545689 0.612569
vt 0.550699 0.612602
vt 0.550940 0.648406
vt 0.545943 0.648390
vt 0.546530 0.859531
vt 0.551277 0.859515
vt 0.551496 0.894158
vt 0.546586 0.894186
vt 0.546271 0.825076
vt 0.550945 0.825100
vt 0.545758 0.757177
vt 0.550689 0.757166
vt 0.551018 0.791395
vt 0.546254 0.791383
vt 0.545652 0.575325
vt 0.550822 0.575328
vt 0.550576 0.683851
vt 0.545522 0.683801
vt 0.550426 0.720721
vt 0.545305 0.720686
vt 0.545568 0.537334
vt 0.550952 0.537348
vt 0.566604 0.612715
vt 0.565415 0.648535
vt 0.560289 0.648470
vt 0.561374 0.612633
vt 0.565425 0.859464
vt 0.565800 0.893958
vt 0.560989 0.894010
vt 0.560665 0.859467
vt 0.565717 0.825006
vt 0.560897 0.825028
vt 0.565665 0.757224
vt 0.564826 0.791374
vt 0.559940 0.791364
vt 0.560605 0.757096
vt 0.566389 0.575376
vt 0.561052 0.575360
vt 0.565918 0.683888
vt 0.560740 0.683940
vt 0.566644 0.720750
vt 0.561397 0.720712
vt 0.566644 0.537473
vt 0.561356 0.537437
vt 0.536795 0.894170
vt 0.536920 0.859607
vt 0.577363 0.562975
vt 0.572376 0.562975
vt 0.572376 0.552847
vt 0.577363 0.552847
vt 0.536156 0.648403
vt 0.534956 0.612656
vt 0.582350 0.573103
vt 0.582350 0.583230
vt 0.577363 0.583230
vt 0.535198 0.575319
vt 0.536930 0.791460
vt 0.535613 0.757407
vt 0.536257 0.825086
vt 0.534229 0.720729
vt 0.535144 0.683647
vt 0.534831 0.537417
vt 0.513427 0.611969
vt 0.518397 0.612007
vt 0.518592 0.647556
vt 0.513634 0.647506
vt 0.514335 0.859081
vt 0.519162 0.859076
vt 0.519489 0.894297
vt 0.514494 0.894350
vt 0.514066 0.824041
vt 0.518817 0.824063
vt 0.513537 0.755492
vt 0.518463 0.755477
vt 0.518804 0.789820
vt 0.513996 0.789816
vt 0.513431 0.575008
vt 0.518558 0.575032
vt 0.518321 0.682721
vt 0.513309 0.682642
vt 0.518146 0.719284
vt 0.513064 0.719247
vt 0.513309 0.537336
vt 0.518648 0.537334
vt 0.534180 0.612136
vt 0.532965 0.647677
vt 0.527879 0.647615
vt 0.528990 0.612049
vt 0.533549 0.859018
vt 0.533870 0.894065
vt 0.529139 0.894119
vt 0.528708 0.859013
vt 0.533851 0.823965
vt 0.528943 0.823992
vt 0.533289 0.755439
vt 0.532869 0.789702
vt 0.527797 0.789743
vt 0.528380 0.755370
vt 0.534002 0.575080
vt 0.528706 0.575063
vt 0.533531 0.682748
vt 0.528395 0.682802
vt 0.534229 0.719321
vt 0.529029 0.719285
vt 0.534229 0.537447
vt 0.528980 0.537416
vt 0.504525 0.894360
vt 0.504558 0.859172
vt 0.577363 0.552847
vt 0.582350 0.552847
vt 0.503929 0.647524
vt 0.502776 0.612044
vt 0.572376 0.573103
vt 0.577363 0.573103
vt 0.577363 0.583230
vt 0.572376 0.583230
vt 0.503060 0.575001
vt 0.504588 0.789882
vt 0.503402 0.755712
vt 0.503887 0.824051
vt 0.502067 0.719281
vt 0.503009 0.682495
vt 0.502664 0.537427
vt 0.572376 0.537334
vt 0.578109 0.537334
vt 0.578109 0.550154
vt 0.572376 0.550154
vt 0.572376 0.537334
vt 0.572376 0.550155
vt 0.566644 0.550154
vt 0.566644 0.537334
vt 0.488880 0.000000
vt 0.509882 0.000000
vt 0.509882 0.537334
vt 0.488880 0.537334
vt 0.593891 0.000000
vt 0.614894 0.000000
vt 0.614894 0.537334
vt 0.593891 0.537334
vt 0.404870 0.000000
vt 0.425873 0.000000
vt 0.425873 0.537334
vt 0.404870 0.537334
vt 0.446875 0.000000
vt 0.446875 0.537334
vt 0.467877 0.000000
vt 0.467877 0.537334
vt 0.362866 0.000000
vt 0.383868 0.000000
vt 0.383868 0.537334
vt 0.362866 0.537334
vt 0.572889 0.000000
vt 0.572889 0.537334
vt 0.299859 0.000000
vt 0.320861 0.000000
vt 0.320861 0.537334
vt 0.299859 0.537334
vt 0.551887 0.000000
vt 0.551887 0.537334
vt 0.530884 0.000000
vt 0.530884 0.537334
vt 0.341864 0.000000
vt 0.341864 0.537334
vt 0.278857 0.000000
vt 0.278857 0.537334
s 0
usemtl M_MetalInterface
f 4/1/1 3/2/1 34/3/1 33/4/1
f 72/5/2 88/6/2 18/7/2 2/8/2
f 15/9/3 85/10/3 71/11/3 1/12/3
f 4/1/1 74/13/1 73/14/1 3/2/1
f 1/15/4 2/16/4 31/17/4 6/18/4
f 19/19/2 4/20/2 33/21/2 32/22/2
f 16/23/5 8/24/5 36/25/5 35/26/5
f 25/27/6 39/28/6 36/25/6 8/24/6
f 28/29/7 25/30/7 8/31/7 16/32/7
f 37/33/8 26/34/8 7/35/8 38/36/8
f 29/37/7 27/38/7 13/39/7 21/40/7
f 21/41/9 13/42/9 43/43/9 42/44/9
f 31/45/2 40/46/2 53/47/2 47/48/2
f 18/7/2 12/49/2 41/50/2 40/46/2
f 6/18/4 31/17/4 47/51/4 46/52/4
f 20/53/3 90/54/3 81/55/3 11/56/3
f 14/57/10 17/58/10 60/59/10 56/60/10
f 2/8/2 18/7/2 40/46/2 31/45/2
f 30/61/3 6/62/3 46/63/3 45/64/3
f 27/38/7 28/29/7 16/32/7 13/39/7
f 13/42/10 16/23/10 35/26/10 43/43/10
f 89/65/2 74/66/2 4/20/2 19/19/2
f 7/35/11 21/41/11 42/44/11 38/36/11
f 26/67/7 29/37/7 21/40/7 7/68/7
f 22/69/12 14/57/12 56/60/12 63/70/12
f 12/49/2 19/19/2 32/22/2 41/50/2
f 40/46/2 41/50/2 54/71/2 53/47/2
f 10/72/6 24/73/6 65/74/6 69/75/6
f 3/76/7 20/77/7 29/37/7 26/67/7
f 11/78/7 15/79/7 28/29/7 27/38/7
f 24/73/4 30/61/4 45/64/4 65/74/4
f 5/80/1 23/81/1 66/82/1 61/83/1
f 20/77/7 11/78/7 27/38/7 29/37/7
f 34/84/1 3/85/1 26/34/1 37/33/1
f 15/79/7 1/86/7 25/30/7 28/29/7
f 1/87/4 6/88/4 39/28/4 25/27/4
f 23/81/8 9/89/8 70/90/8 66/82/8
f 9/89/11 22/69/11 63/70/11 70/90/11
f 33/4/1 34/3/1 50/91/1 49/92/1
f 34/93/3 5/80/3 61/83/3 50/94/3
f 10/95/13 17/96/13 35/97/13 36/98/13
f 9/99/13 23/100/13 37/101/13 38/102/13
f 30/103/13 24/104/13 39/105/13 6/106/13
f 17/58/5 10/72/5 69/75/5 60/59/5
f 14/107/13 22/108/13 42/109/13 43/110/13
f 17/96/13 14/107/13 43/110/13 35/97/13
f 41/50/2 32/22/2 48/111/2 54/71/2
f 32/22/2 33/21/2 49/112/2 48/111/2
f 22/108/13 9/99/13 38/102/13 42/109/13
f 23/100/13 5/113/13 34/114/13 37/101/13
f 24/104/13 10/95/13 36/98/13 39/105/13
f 51/115/13 64/116/13 68/117/13 61/118/13
f 62/119/13 66/120/13 70/121/13 63/122/13
f 59/123/13 55/124/13 56/125/13 60/126/13
f 44/127/13 58/128/13 57/129/13 52/130/13
f 45/131/13 67/132/13 58/128/13 44/127/13
f 65/133/13 59/123/13 60/126/13 69/134/13
f 55/124/13 62/119/13 63/122/13 56/125/13
f 52/130/13 57/129/13 64/116/13 51/115/13
f 52/130/13 51/115/13 62/119/13 55/124/13
f 45/131/13 44/127/13 59/123/13 65/133/13
f 44/127/13 52/130/13 55/124/13 59/123/13
f 51/115/13 61/118/13 66/120/13 62/119/13
f 67/132/13 45/131/13 46/135/13 47/136/13
f 68/117/13 64/116/13 48/137/13 49/138/13
f 61/118/13 68/117/13 49/138/13 50/139/13
f 57/129/13 58/128/13 53/140/13 54/141/13
f 58/128/13 67/132/13 47/136/13 53/140/13
f 64/116/13 57/129/13 54/141/13 48/137/13
f 88/6/2 82/142/2 12/49/2 18/7/2
f 12/49/2 82/142/2 89/65/2 19/19/2
f 3/143/3 73/144/3 90/54/3 20/53/3
f 11/56/3 81/55/3 85/10/3 15/9/3
s 1
f 365/145/14 249/146/15 251/147/16 367/148/17
s 0
f 74/13/1 103/149/1 104/150/1 73/14/1
f 71/151/4 76/152/4 101/153/4 72/154/4
f 89/65/2 102/155/2 103/156/2 74/66/2
f 86/157/5 105/158/5 106/159/5 78/160/5
f 95/161/6 78/160/6 106/159/6 109/162/6
f 98/163/13 86/164/13 78/165/13 95/166/13
f 107/167/8 108/168/8 77/169/8 96/170/8
f 99/171/13 91/172/13 83/39/13 97/173/13
f 91/174/9 112/175/9 113/176/9 83/177/9
f 101/178/2 117/179/2 123/180/2 110/181/2
f 88/6/2 110/181/2 111/182/2 82/142/2
f 76/152/4 116/183/4 117/184/4 101/153/4
f 84/185/10 126/186/10 130/187/10 87/188/10
f 72/5/2 101/178/2 110/181/2 88/6/2
f 100/189/3 115/190/3 116/191/3 76/192/3
f 97/173/13 83/39/13 86/164/13 98/163/13
f 83/177/10 113/176/10 105/158/10 86/157/10
f 77/169/11 108/168/11 112/175/11 91/174/11
f 96/193/13 77/194/13 91/172/13 99/171/13
f 92/195/12 133/196/12 126/186/12 84/185/12
f 82/142/2 111/182/2 102/155/2 89/65/2
f 110/181/2 123/180/2 124/197/2 111/182/2
f 80/198/6 139/199/6 135/200/6 94/201/6
f 73/202/13 96/193/13 99/171/13 90/203/13
f 81/204/13 97/173/13 98/163/13 85/205/13
f 94/201/4 135/200/4 115/190/4 100/189/4
f 75/206/1 131/207/1 136/208/1 93/209/1
f 90/203/13 99/171/13 97/173/13 81/204/13
f 104/210/1 107/167/1 96/170/1 73/211/1
f 85/205/13 98/163/13 95/166/13 71/212/13
f 71/213/4 95/161/4 109/162/4 76/214/4
f 93/209/8 136/208/8 140/215/8 79/216/8
f 79/216/11 140/215/11 133/196/11 92/195/11
f 103/149/1 119/217/1 120/218/1 104/150/1
f 104/219/3 120/220/3 131/207/3 75/206/3
f 80/221/7 106/222/7 105/223/7 87/224/7
f 79/225/7 108/226/7 107/227/7 93/228/7
f 100/229/7 76/230/7 109/231/7 94/232/7
f 87/188/5 130/187/5 139/199/5 80/198/5
f 84/233/7 113/234/7 112/235/7 92/236/7
f 87/224/7 105/223/7 113/234/7 84/233/7
f 111/182/2 124/197/2 118/237/2 102/155/2
f 102/155/2 118/237/2 119/238/2 103/156/2
f 92/236/7 112/235/7 108/226/7 79/225/7
f 93/228/7 107/227/7 104/219/7 75/206/7
f 94/232/7 109/231/7 106/222/7 80/221/7
f 121/239/7 131/240/7 138/241/7 134/242/7
f 132/243/7 133/244/7 140/245/7 136/246/7
f 129/247/7 130/248/7 126/249/7 125/250/7
f 114/251/7 122/252/7 127/253/7 128/254/7
f 115/255/7 114/251/7 128/254/7 137/256/7
f 135/257/7 139/258/7 130/248/7 129/247/7
f 125/250/7 126/249/7 133/244/7 132/243/7
f 122/252/7 121/239/7 134/242/7 127/253/7
f 122/252/7 125/250/7 132/243/7 121/239/7
f 115/255/7 135/257/7 129/247/7 114/251/7
f 114/251/7 129/247/7 125/250/7 122/252/7
f 121/239/7 132/243/7 136/246/7 131/240/7
f 137/256/7 117/259/7 116/260/7 115/255/7
f 138/241/7 119/261/7 118/262/7 134/242/7
f 131/240/7 120/263/7 119/261/7 138/241/7
f 127/253/7 124/264/7 123/265/7 128/254/7
f 128/254/7 123/265/7 117/259/7 137/256/7
f 134/242/7 118/262/7 124/264/7 127/253/7
s 1
f 143/266/18 142/267/19 144/268/20 141/269/21
f 147/270/22 146/271/23 148/272/24 145/273/25
f 151/274/21 150/275/18 152/276/19 149/277/26
f 155/278/27 154/279/28 156/268/29 153/280/30
f 159/281/20 158/282/21 160/283/18 157/284/19
s 0
f 71/151/4 72/154/4 2/16/4 1/15/4
s 1
f 170/285/31 161/286/32 172/287/33 181/288/34
f 165/289/35 168/290/36 179/291/37 176/292/38
f 171/293/39 165/289/35 176/292/38 182/294/40
f 167/295/41 162/296/42 173/297/43 178/298/44
f 164/299/45 170/285/31 181/288/34 175/300/46
f 161/286/32 166/301/47 177/302/48 172/287/33
f 166/301/47 163/303/49 174/304/50 177/302/48
f 162/296/42 171/293/39 182/294/40 173/297/43
f 163/303/49 167/295/41 178/298/44 174/304/50
f 169/305/51 164/299/45 175/300/46 180/306/52
f 192/307/53 203/308/54 194/309/55 183/310/56
f 187/311/57 198/312/58 201/313/59 190/314/60
f 193/315/61 204/316/62 198/312/58 187/311/57
f 189/317/63 200/318/64 195/319/65 184/320/66
f 186/321/67 197/322/68 203/308/54 192/307/53
f 183/310/56 194/309/55 199/323/69 188/324/70
f 188/324/70 199/323/69 196/325/71 185/326/72
f 184/320/66 195/319/65 204/316/62 193/315/61
f 185/326/72 196/325/71 200/318/64 189/317/63
f 191/327/73 202/328/74 197/322/68 186/321/67
f 165/289/35 187/329/57 190/330/60 168/290/36
f 168/331/36 190/332/60 201/333/59 179/334/37
f 170/285/31 192/335/53 183/336/56 161/286/32
f 177/302/48 199/323/69 194/309/55 172/287/33
f 180/337/52 202/338/74 191/339/73 169/340/51
f 164/299/45 186/341/67 192/335/53 170/285/31
f 167/295/41 189/342/63 184/343/66 162/296/42
f 178/298/44 200/318/64 196/325/71 174/304/50
f 162/296/42 184/343/66 193/344/61 171/293/39
f 166/301/47 188/345/70 185/346/72 163/303/49
f 179/291/37 201/313/59 198/312/58 176/292/38
f 172/287/33 194/309/55 203/308/54 181/288/34
f 169/305/51 191/347/73 186/341/67 164/299/45
f 181/288/34 203/308/54 197/322/68 175/300/46
f 173/297/43 195/319/65 200/318/64 178/298/44
f 171/293/39 193/344/61 187/329/57 165/289/35
f 182/294/40 204/316/62 195/319/65 173/297/43
f 174/304/50 196/325/71 199/323/69 177/302/48
f 161/286/32 183/336/56 188/345/70 166/301/47
f 175/300/46 197/322/68 202/328/74 180/306/52
f 163/303/49 185/346/72 189/342/63 167/295/41
f 176/292/38 198/312/58 204/316/62 182/294/40
f 214/348/31 205/349/32 216/350/33 225/351/34
f 209/352/35 212/353/36 223/354/37 220/355/38
f 215/356/39 209/352/35 220/355/38 226/357/40
f 211/358/41 206/359/42 217/360/43 222/361/44
f 208/362/45 214/348/31 225/351/34 219/363/46
f 205/349/32 210/364/47 221/365/48 216/350/33
f 210/364/47 207/366/49 218/367/50 221/365/48
f 206/359/42 215/356/39 226/357/40 217/360/43
f 207/366/49 211/358/41 222/361/44 218/367/50
f 213/368/51 208/362/45 219/363/46 224/369/52
f 236/370/53 247/371/54 238/372/55 227/373/56
f 231/374/57 242/375/58 245/376/59 234/377/60
f 237/378/61 248/379/62 242/375/58 231/374/57
f 233/380/63 244/381/64 239/382/65 228/383/66
f 230/384/67 241/385/68 247/371/54 236/370/53
f 227/373/56 238/372/55 243/386/69 232/387/70
f 232/387/70 243/386/69 240/388/71 229/389/72
f 228/383/66 239/382/65 248/379/62 237/378/61
f 229/389/72 240/388/71 244/381/64 233/380/63
f 235/390/73 246/391/74 241/385/68 230/384/67
f 209/352/35 231/392/57 234/393/60 212/353/36
f 212/394/36 234/395/60 245/396/59 223/397/37
f 214/348/31 236/398/53 227/399/56 205/349/32
f 221/365/48 243/386/69 238/372/55 216/350/33
f 224/400/52 246/401/74 235/402/73 213/403/51
f 208/362/45 230/404/67 236/398/53 214/348/31
f 211/358/41 233/405/63 228/406/66 206/359/42
f 222/361/44 244/381/64 240/388/71 218/367/50
f 206/359/42 228/406/66 237/407/61 215/356/39
f 210/364/47 232/408/70 229/409/72 207/366/49
f 223/354/37 245/376/59 242/375/58 220/355/38
f 216/350/33 238/372/55 247/371/54 225/351/34
f 213/368/51 235/410/73 230/404/67 208/362/45
f 225/351/34 247/371/54 241/385/68 219/363/46
f 217/360/43 239/382/65 244/381/64 222/361/44
f 215/356/39 237/407/61 231/392/57 209/352/35
f 226/357/40 248/379/62 239/382/65 217/360/43
f 218/367/50 240/388/71 243/386/69 221/365/48
f 205/349/32 227/399/56 232/408/70 210/364/47
f 219/363/46 241/385/68 246/391/74 224/369/52
f 207/366/49 229/409/72 233/405/63 211/358/41
f 220/355/38 242/375/58 248/379/62 226/357/40
f 251/411/16 249/412/15 250/413/75 252/414/76
f 144/415/20 260/416/77 257/417/78 141/418/21
f 250/419/75 366/420/79 368/421/80 252/422/76
f 255/411/15 256/414/75 254/423/76 253/424/16
f 371/425/14 255/426/15 253/214/16 369/427/17
f 256/428/75 372/429/79 370/430/80 254/431/76
f 367/148/17 251/147/16 252/422/76 368/421/80
f 249/432/15 365/433/14 366/420/79 250/419/75
f 142/434/19 258/435/81 260/436/77 144/437/20
f 152/438/19 268/439/81 265/440/77 149/441/26
f 141/418/21 257/417/78 259/442/82 143/443/18
f 143/443/18 259/442/82 258/435/81 142/434/19
f 254/431/76 370/430/80 369/444/17 253/87/16
f 148/445/24 264/446/83 261/447/84 145/448/25
f 156/449/29 272/450/85 269/451/86 153/452/30
f 145/453/25 261/451/84 263/454/87 147/455/22
f 148/445/24 146/456/23 262/457/88 264/446/83
f 150/458/18 266/459/89 268/439/81 152/438/19
f 372/429/79 256/428/75 255/426/15 371/425/14
f 149/460/26 265/461/77 267/462/90 151/463/21
f 151/463/21 267/462/90 266/459/89 150/458/18
f 154/464/28 270/465/91 272/450/85 156/449/29
f 146/456/23 147/455/22 263/454/87 262/457/88
f 153/441/30 269/440/86 271/466/92 155/467/27
f 155/467/27 271/466/92 270/465/91 154/464/28
f 158/468/21 274/469/78 276/470/93 160/471/18
f 160/471/18 276/470/93 273/472/81 157/473/19
f 157/474/19 273/475/81 275/476/77 159/477/20
f 159/477/20 275/476/77 274/469/78 158/468/21
f 257/478/78 260/479/77 258/480/81 259/481/82
f 261/482/84 264/483/83 262/484/88 263/485/87
f 265/486/77 268/487/81 266/488/89 267/394/90
f 269/489/86 272/490/85 270/491/91 271/492/92
f 273/493/81 276/494/93 274/495/78 275/496/77
f 286/497/34 297/498/31 288/499/32 277/500/33
f 281/501/38 292/502/35 295/503/36 284/504/37
f 287/505/40 298/506/39 292/502/35 281/501/38
f 283/507/44 294/508/41 289/509/42 278/510/43
f 280/511/46 291/512/45 297/498/31 286/497/34
f 277/500/33 288/499/32 293/513/47 282/514/48
f 282/514/48 293/513/47 290/515/49 279/516/50
f 278/510/43 289/509/42 298/506/39 287/505/40
f 279/516/50 290/515/49 294/508/41 283/507/44
f 285/517/52 296/518/51 291/512/45 280/511/46
f 308/519/54 299/520/55 310/521/56 319/522/53
f 303/523/58 306/524/59 317/525/60 314/526/57
f 309/527/62 303/523/58 314/526/57 320/528/61
f 305/529/64 300/530/65 311/531/66 316/532/63
f 302/533/68 308/519/54 319/522/53 313/534/67
f 299/520/55 304/535/69 315/536/70 310/521/56
f 304/535/69 301/537/71 312/538/72 315/536/70
f 300/530/65 309/527/62 320/528/61 311/531/66
f 301/537/71 305/529/64 316/532/63 312/538/72
f 307/539/74 302/533/68 313/534/67 318/540/73
f 281/501/38 284/504/37 306/541/59 303/542/58
f 284/543/37 295/544/36 317/545/60 306/546/59
f 286/497/34 277/500/33 299/547/55 308/548/54
f 293/513/47 288/499/32 310/521/56 315/536/70
f 296/396/51 285/549/52 307/550/74 318/551/73
f 280/511/46 286/497/34 308/548/54 302/552/68
f 283/507/44 278/510/43 300/553/65 305/554/64
f 294/508/41 290/515/49 312/538/72 316/532/63
f 278/510/43 287/505/40 309/555/62 300/553/65
f 282/514/48 279/516/50 301/556/71 304/557/69
f 295/503/36 292/502/35 314/526/57 317/525/60
f 288/499/32 297/498/31 319/522/53 310/521/56
f 285/517/52 280/511/46 302/552/68 307/558/74
f 297/498/31 291/512/45 313/534/67 319/522/53
f 289/509/42 294/508/41 316/532/63 311/531/66
f 287/505/40 281/501/38 303/542/58 309/555/62
f 298/506/39 289/509/42 311/531/66 320/528/61
f 290/515/49 293/513/47 315/536/70 312/538/72
f 277/500/33 282/514/48 304/557/69 299/547/55
f 291/512/45 296/518/51 318/540/73 313/534/67
f 279/516/50 283/507/44 305/554/64 301/556/71
f 292/502/35 298/506/39 320/528/61 314/526/57
f 330/559/34 341/560/31 332/561/32 321/562/33
f 325/563/38 336/564/35 339/565/36 328/566/37
f 331/567/40 342/568/39 336/564/35 325/563/38
f 327/569/44 338/570/41 333/571/42 322/572/43
f 324/573/46 335/574/45 341/560/31 330/559/34
f 321/562/33 332/561/32 337/575/47 326/576/48
f 326/576/48 337/575/47 334/577/49 323/578/50
f 322/572/43 333/571/42 342/568/39 331/567/40
f 323/578/50 334/577/49 338/570/41 327/569/44
f 329/579/52 340/580/51 335/574/45 324/573/46
f 352/581/54 343/582/55 354/583/56 363/584/53
f 347/585/58 350/586/59 361/587/60 358/588/57
f 353/589/62 347/585/58 358/588/57 364/590/61
f 349/591/64 344/592/65 355/593/66 360/594/63
f 346/595/68 352/581/54 363/584/53 357/596/67
f 343/582/55 348/597/69 359/598/70 354/583/56
f 348/597/69 345/599/71 356/600/72 359/598/70
f 344/592/65 353/589/62 364/590/61 355/593/66
f 345/599/71 349/591/64 360/594/63 356/600/72
f 351/601/74 346/595/68 357/596/67 362/602/73
f 325/563/38 328/566/37 350/603/59 347/604/58
f 328/394/37 339/397/36 361/605/60 350/606/59
f 330/559/34 321/562/33 343/607/55 352/608/54
f 337/575/47 332/561/32 354/583/56 359/598/70
f 340/609/51 329/610/52 351/611/74 362/612/73
f 324/573/46 330/559/34 352/608/54 346/613/68
f 327/569/44 322/572/43 344/614/65 349/615/64
f 338/570/41 334/577/49 356/600/72 360/594/63
f 322/572/43 331/567/40 353/616/62 344/614/65
f 326/576/48 323/578/50 345/617/71 348/618/69
f 339/565/36 336/564/35 358/588/57 361/587/60
f 332/561/32 341/560/31 363/584/53 354/583/56
f 329/579/52 324/573/46 346/613/68 351/619/74
f 341/560/31 335/574/45 357/596/67 363/584/53
f 333/571/42 338/570/41 360/594/63 355/593/66
f 331/567/40 325/563/38 347/604/58 353/616/62
f 342/568/39 333/571/42 355/593/66 364/590/61
f 334/577/49 337/575/47 359/598/70 356/600/72
f 321/562/33 326/576/48 348/618/69 343/607/55
f 335/574/45 340/580/51 362/602/73 357/596/67
f 323/578/50 327/569/44 349/615/64 345/617/71
f 336/564/35 342/568/39 364/590/61 358/588/57
f 367/620/17 368/621/80 366/622/79 365/623/14
f 371/624/14 369/625/17 370/626/80 372/627/79
f 404/628/94 396/629/4 380/630/4 388/631/94
f 390/632/2 399/633/95 383/634/95 374/635/2
f 400/636/96 391/637/3 375/638/3 384/639/96
f 391/637/3 397/640/97 381/641/97 375/638/3
f 397/640/97 392/642/98 376/643/98 381/641/97
f 403/644/99 394/645/100 378/646/100 387/647/99
f 398/648/101 390/632/2 374/635/2 382/649/101
f 394/645/100 400/636/96 384/639/96 378/646/100
f 395/650/102 401/651/103 385/652/103 379/653/102
f 393/654/104 398/648/101 382/649/101 377/655/104
f 402/656/105 393/654/104 377/655/104 386/657/105
f 392/642/98 404/628/94 388/631/94 376/643/98
f 401/651/103 389/658/1 373/659/1 385/652/103
f 389/658/1 403/644/99 387/647/99 373/659/1
f 396/629/4 402/656/105 386/657/105 380/630/4
f 399/660/95 395/650/102 379/653/102 383/661/95
