# Blender 5.1.2
# www.blender.org
mtllib StairsRear.mtl
o StairsRear
v -0.545916 0.250775 1.998850
v -0.545916 0.330297 1.998850
v -0.545916 0.250775 2.499062
v -0.545916 0.330297 2.499062
v -3.001934 0.250775 1.998850
v -3.001934 0.330297 1.998850
v -3.001934 0.250775 2.499062
v -3.001934 0.330297 2.499062
v -0.545916 0.517173 1.598680
v -0.545916 0.596695 1.598680
v -0.545916 0.517173 2.098892
v -0.545916 0.596695 2.098892
v -3.001934 0.517173 1.598680
v -3.001934 0.596695 1.598680
v -3.001934 0.517173 2.098892
v -3.001934 0.596695 2.098892
v -0.545916 0.783571 1.198511
v -0.545916 0.863093 1.198511
v -0.545916 0.783571 1.698723
v -0.545916 0.863093 1.698723
v -3.001934 0.783571 1.198511
v -3.001934 0.863093 1.198511
v -3.001934 0.783571 1.698723
v -3.001934 0.863093 1.698723
v -0.545916 1.049969 0.798341
v -0.545916 1.129491 0.798341
v -0.545916 1.049969 1.298553
v -0.545916 1.129491 1.298553
v -3.001934 1.049969 0.798341
v -3.001934 1.129491 0.798341
v -3.001934 1.049969 1.298553
v -3.001934 1.129491 1.298553
v -0.545916 1.316368 0.398172
v -0.545916 1.395890 0.398172
v -0.545916 1.316368 0.898384
v -0.545916 1.395890 0.898384
v -3.001934 1.316368 0.398172
v -3.001934 1.395890 0.398172
v -3.001934 1.316368 0.898384
v -3.001934 1.395890 0.898384
v -0.545916 1.582766 -0.001998
v -0.545916 1.662288 -0.001998
v -0.545916 1.582766 0.498214
v -0.545916 1.662288 0.498214
v -3.001934 1.582766 -0.001998
v -3.001934 1.662288 -0.001998
v -3.001934 1.582766 0.498214
v -3.001934 1.662288 0.498214
v -0.545916 1.849164 -0.402167
v -0.545916 1.928686 -0.402167
v -0.545916 1.849164 0.098045
v -0.545916 1.928686 0.098045
v -3.001934 1.849164 -0.402167
v -3.001934 1.928686 -0.402167
v -3.001934 1.849164 0.098045
v -3.001934 1.928686 0.098045
v 3.001934 2.049773 -2.500938
v 3.001934 2.150227 -2.500938
v 3.001934 2.049773 -0.404584
v 3.001934 2.150227 -0.404584
v -3.001934 2.049773 -2.500938
v -3.001934 2.150227 -2.500938
v -3.001934 2.049773 -0.404584
v -3.001934 2.150227 -0.404584
v 0.545916 2.350775 -0.390604
v 0.545916 2.430296 -0.390604
v 0.545915 2.350775 -0.890816
v 0.545915 2.430296 -0.890816
v 3.001933 2.350775 -0.390605
v 3.001933 2.430296 -0.390605
v 3.001933 2.350775 -0.890817
v 3.001933 2.430296 -0.890817
v 0.545916 2.617173 0.009565
v 0.545916 2.696695 0.009565
v 0.545916 2.617173 -0.490647
v 0.545916 2.696695 -0.490647
v 3.001933 2.617173 0.009565
v 3.001933 2.696695 0.009565
v 3.001933 2.617173 -0.490647
v 3.001933 2.696695 -0.490647
v 0.545916 2.883571 0.409735
v 0.545916 2.963093 0.409735
v 0.545916 2.883571 -0.090477
v 0.545916 2.963093 -0.090477
v 3.001933 2.883571 0.409734
v 3.001933 2.963093 0.409734
v 3.001933 2.883571 -0.090478
v 3.001933 2.963093 -0.090478
v 0.545916 3.149969 0.809904
v 0.545916 3.229491 0.809904
v 0.545916 3.149969 0.309693
v 0.545916 3.229491 0.309693
v 3.001933 3.149969 0.809904
v 3.001933 3.229491 0.809904
v 3.001933 3.149969 0.309692
v 3.001933 3.229491 0.309692
v 0.545916 3.416368 1.210074
v 0.545916 3.495889 1.210074
v 0.545916 3.416368 0.709862
v 0.545916 3.495889 0.709862
v 3.001933 3.416368 1.210073
v 3.001933 3.495889 1.210073
v 3.001933 3.416368 0.709861
v 3.001933 3.495889 0.709861
v 0.545916 3.682766 1.610244
v 0.545916 3.762288 1.610244
v 0.545916 3.682766 1.110032
v 0.545916 3.762288 1.110032
v 3.001934 3.682766 1.610243
v 3.001934 3.762288 1.610243
v 3.001933 3.682766 1.110031
v 3.001933 3.762288 1.110031
v 0.545916 3.949164 2.010413
v 0.545916 4.028686 2.010413
v 0.545916 3.949164 1.510201
v 0.545916 4.028686 1.510201
v 3.001934 3.949164 2.010412
v 3.001934 4.028686 2.010412
v 3.001934 3.949164 1.510200
v 3.001934 4.028686 1.510200
v 3.001934 4.199551 1.999083
v 3.001934 4.300005 1.999083
v 3.001934 4.199551 2.499062
v 3.001934 4.300005 2.499062
v -3.001934 4.199551 1.999083
v -3.001934 4.300005 1.999083
v -3.001934 4.199551 2.499062
v -3.001934 4.300005 2.499062
v -0.712276 0.076158 2.318876
v -0.712276 -0.004446 2.265334
v -0.809042 0.076158 2.318876
v -0.809042 -0.004446 2.265334
v -0.712276 2.061180 -0.844355
v -0.712276 2.141784 -0.790813
v -0.809042 2.141784 -0.790813
v -0.809042 2.061180 -0.844355
v -2.835574 0.076158 2.318876
v -2.835574 -0.004446 2.265334
v -2.738808 0.076158 2.318876
v -2.738808 -0.004446 2.265334
v -2.835574 2.061180 -0.844355
v -2.835574 2.141784 -0.790813
v -2.738808 2.141784 -0.790813
v -2.738808 2.061180 -0.844355
v 0.712276 4.198944 2.509452
v 0.712276 4.279548 2.455910
v 0.809042 4.279548 2.455910
v 0.809042 4.198944 2.509452
v 2.835574 4.198944 2.509451
v 2.835574 4.279548 2.455909
v 2.738808 4.279548 2.455909
v 2.738808 4.198944 2.509451
v 0.712275 2.144834 -0.757786
v 0.712275 2.064230 -0.704244
v 0.809041 2.144834 -0.757786
v 0.809041 2.064230 -0.704244
v 2.835573 2.144834 -0.757787
v 2.835573 2.064230 -0.704245
v 2.738807 2.144834 -0.757787
v 2.738807 2.064230 -0.704245
vn 1.0000 -0.0000 -0.0000
vn -0.0000 -0.0000 1.0000
vn -1.0000 -0.0000 -0.0000
vn -0.0000 -0.0000 -1.0000
vn -0.0000 -1.0000 -0.0000
vn -0.0000 1.0000 -0.0000
vn -0.0000 -0.5533 0.8330
vn -0.0000 -0.8330 -0.5533
vn -0.0000 0.8330 0.5533
vn -0.0000 0.5533 -0.8330
vn -0.0000 0.5533 0.8330
vn -0.0000 -0.8330 0.5533
vn -0.0000 0.8330 -0.5533
vn -0.0000 -0.5533 -0.8330
vt 0.375000 0.000000
vt 0.625000 0.000000
vt 0.625000 0.250000
vt 0.375000 0.250000
vt 0.625000 0.500000
vt 0.375000 0.500000
vt 0.625000 0.750000
vt 0.375000 0.750000
vt 0.625000 1.000000
vt 0.375000 1.000000
vt 0.125000 0.500000
vt 0.125000 0.750000
vt 0.875000 0.500000
vt 0.875000 0.750000
vt 0.376869 0.500000
vt 0.376869 0.750000
vt 0.376869 0.250000
vt 0.376869 0.000000
vt 0.376869 1.000000
vt 0.376869 0.500000
vt 0.376869 0.000000
vt 0.376869 0.250000
vt 0.125000 0.500001
vt 0.125000 0.500001
vt 0.125000 0.750001
s 0
usemtl 
f 1/1/1 2/2/1 4/3/1 3/4/1
f 3/4/2 4/3/2 8/5/2 7/6/2
f 7/6/3 8/5/3 6/7/3 5/8/3
f 5/8/4 6/7/4 2/9/4 1/10/4
f 3/11/5 7/6/5 5/8/5 1/12/5
f 8/5/6 4/13/6 2/14/6 6/7/6
f 9/1/1 10/2/1 12/3/1 11/4/1
f 11/4/2 12/3/2 16/5/2 15/6/2
f 15/6/3 16/5/3 14/7/3 13/8/3
f 13/8/4 14/7/4 10/9/4 9/10/4
f 11/11/5 15/6/5 13/8/5 9/12/5
f 16/5/6 12/13/6 10/14/6 14/7/6
f 17/1/1 18/2/1 20/3/1 19/4/1
f 19/4/2 20/3/2 24/5/2 23/6/2
f 23/6/3 24/5/3 22/7/3 21/8/3
f 21/8/4 22/7/4 18/9/4 17/10/4
f 19/11/5 23/6/5 21/8/5 17/12/5
f 24/5/6 20/13/6 18/14/6 22/7/6
f 25/1/1 26/2/1 28/3/1 27/4/1
f 27/4/2 28/3/2 32/5/2 31/6/2
f 31/6/3 32/5/3 30/7/3 29/8/3
f 29/8/4 30/7/4 26/9/4 25/10/4
f 27/11/5 31/6/5 29/8/5 25/12/5
f 32/5/6 28/13/6 26/14/6 30/7/6
f 33/1/1 34/2/1 36/3/1 35/4/1
f 35/4/2 36/3/2 40/5/2 39/6/2
f 39/6/3 40/5/3 38/7/3 37/8/3
f 37/8/4 38/7/4 34/9/4 33/10/4
f 35/11/5 39/6/5 37/8/5 33/12/5
f 40/5/6 36/13/6 34/14/6 38/7/6
f 41/1/1 42/2/1 44/3/1 43/4/1
f 43/4/2 44/3/2 48/5/2 47/6/2
f 47/6/3 48/5/3 46/7/3 45/8/3
f 45/8/4 46/7/4 42/9/4 41/10/4
f 43/11/5 47/6/5 45/8/5 41/12/5
f 48/5/6 44/13/6 42/14/6 46/7/6
f 49/1/1 50/2/1 52/3/1 51/4/1
f 51/4/2 52/3/2 56/5/2 55/6/2
f 55/6/3 56/5/3 54/7/3 53/8/3
f 53/8/4 54/7/4 50/9/4 49/10/4
f 51/11/5 55/6/5 53/8/5 49/12/5
f 56/5/6 52/13/6 50/14/6 54/7/6
f 57/1/1 58/2/1 60/3/1 59/4/1
f 59/4/2 60/3/2 64/5/2 63/6/2
f 63/6/3 64/5/3 62/7/3 61/8/3
f 61/8/4 62/7/4 58/9/4 57/10/4
f 59/11/5 63/6/5 61/8/5 57/12/5
f 64/5/6 60/13/6 58/14/6 62/7/6
f 65/1/3 66/2/3 68/3/3 67/4/3
f 67/4/4 68/3/4 72/5/4 71/6/4
f 71/6/1 72/5/1 70/7/1 69/8/1
f 69/8/2 70/7/2 66/9/2 65/10/2
f 67/11/5 71/6/5 69/8/5 65/12/5
f 72/5/6 68/13/6 66/14/6 70/7/6
f 73/1/3 74/2/3 76/3/3 75/4/3
f 75/4/4 76/3/4 80/5/4 79/6/4
f 79/6/1 80/5/1 78/7/1 77/8/1
f 77/8/2 78/7/2 74/9/2 73/10/2
f 75/11/5 79/6/5 77/8/5 73/12/5
f 80/5/6 76/13/6 74/14/6 78/7/6
f 81/1/3 82/2/3 84/3/3 83/4/3
f 83/4/4 84/3/4 88/5/4 87/6/4
f 87/6/1 88/5/1 86/7/1 85/8/1
f 85/8/2 86/7/2 82/9/2 81/10/2
f 83/11/5 87/6/5 85/8/5 81/12/5
f 88/5/6 84/13/6 82/14/6 86/7/6
f 89/1/3 90/2/3 92/3/3 91/4/3
f 91/4/4 92/3/4 96/5/4 95/6/4
f 95/6/1 96/5/1 94/7/1 93/8/1
f 93/8/2 94/7/2 90/9/2 89/10/2
f 91/11/5 95/6/5 93/8/5 89/12/5
f 96/5/6 92/13/6 90/14/6 94/7/6
f 97/1/3 98/2/3 100/3/3 99/4/3
f 99/4/4 100/3/4 104/5/4 103/6/4
f 103/6/1 104/5/1 102/7/1 101/8/1
f 101/8/2 102/7/2 98/9/2 97/10/2
f 99/11/5 103/6/5 101/8/5 97/12/5
f 104/5/6 100/13/6 98/14/6 102/7/6
f 105/1/3 106/2/3 108/3/3 107/4/3
f 107/4/4 108/3/4 112/5/4 111/6/4
f 111/6/1 112/5/1 110/7/1 109/8/1
f 109/8/2 110/7/2 106/9/2 105/10/2
f 107/11/5 111/6/5 109/8/5 105/12/5
f 112/5/6 108/13/6 106/14/6 110/7/6
f 113/1/3 114/2/3 116/3/3 115/4/3
f 115/4/4 116/3/4 120/5/4 119/6/4
f 119/6/1 120/5/1 118/7/1 117/8/1
f 117/8/2 118/7/2 114/9/2 113/10/2
f 115/11/5 119/6/5 117/8/5 113/12/5
f 120/5/6 116/13/6 114/14/6 118/7/6
f 121/1/1 122/2/1 124/3/1 123/4/1
f 123/4/2 124/3/2 128/5/2 127/6/2
f 127/6/3 128/5/3 126/7/3 125/8/3
f 125/8/4 126/7/4 122/9/4 121/10/4
f 123/11/5 127/6/5 125/8/5 121/12/5
f 128/5/6 124/13/6 122/14/6 126/7/6
f 130/1/1 133/2/1 134/3/1 129/4/1
f 129/11/7 131/6/7 132/8/7 130/12/7
f 131/6/3 135/5/3 136/7/3 132/8/3
f 132/8/8 136/7/8 133/9/8 130/10/8
f 129/4/9 134/3/9 135/5/9 131/6/9
f 135/5/10 134/13/10 133/14/10 136/7/10
f 138/1/3 137/4/3 142/3/3 141/2/3
f 137/11/7 138/12/7 140/8/7 139/6/7
f 139/6/1 140/8/1 144/7/1 143/5/1
f 140/8/8 138/10/8 141/9/8 144/7/8
f 137/4/9 139/6/9 143/5/9 142/3/9
f 143/5/10 144/7/10 141/14/10 142/13/10
f 151/5/3 159/15/3 160/16/3 152/7/3
f 146/3/3 153/17/3 154/18/3 145/2/3
f 147/5/11 146/13/11 145/14/11 148/7/11
f 151/5/11 152/7/11 149/14/11 150/13/11
f 145/9/12 154/19/12 156/16/12 148/7/12
f 147/5/13 155/20/13 153/17/13 146/3/13
f 152/7/12 160/16/12 158/19/12 149/9/12
f 149/2/1 158/21/1 157/22/1 150/3/1
f 150/3/13 157/22/13 159/15/13 151/5/13
f 148/7/1 156/16/1 155/20/1 147/5/1
f 153/23/14 155/20/14 156/16/14 154/12/14
f 157/24/14 158/25/14 160/16/14 159/15/14
