# Blender 5.2.1 LTS
# www.blender.org
mtllib WareHouseBulkhead.mtl
o WareHouseBulkhead
v -8.272476 -0.100005 -2.121219
v -8.272476 10.431274 -2.121219
v -6.321023 -0.100005 -2.121219
v -6.321023 10.431274 -2.121219
v -8.272476 7.813591 -2.121219
v -8.272476 -0.100005 -2.500938
v -8.272476 10.431274 -2.500938
v -6.321023 10.431274 -2.500938
v -6.321023 -0.100005 -2.500938
v -8.272476 7.813591 -2.500938
v -7.392311 10.431274 -2.121219
v -7.392311 -0.100005 -2.121219
v -7.392311 7.813591 -2.121219
v -7.392311 10.431274 -2.500938
v -7.144276 -0.100005 -2.500938
v -3.989105 9.122433 -1.868145
v -3.989105 7.813591 -1.868145
v -3.989105 9.122433 -2.354643
v -8.272476 9.122433 -2.121219
v -1.994535 9.122433 -2.354643
v -6.321023 9.122433 -2.121219
v -8.272476 9.122433 -2.500938
v -3.989105 10.431274 -2.500938
v -7.392311 9.122433 -2.121219
v -1.994535 10.431274 -2.500938
v -7.392311 -0.100005 -1.868145
v -6.321023 -0.100005 -1.868145
v -1.994535 7.813591 -2.500938
v -6.321023 7.813591 -1.868145
v -3.989105 7.813591 -2.354643
v -6.321023 9.122433 -1.868145
v -1.994535 7.813591 -2.354643
v -7.392311 7.813591 -1.868145
v -7.392311 9.122433 -1.868145
v -3.989105 10.431274 -2.354643
v -1.994535 10.431274 -2.354643
v -0.000000 10.431274 -2.354643
v -0.000000 7.813591 -2.354643
v -0.000000 10.431274 -2.500938
v -0.000000 9.122433 -2.354643
v -3.449204 18.859676 -2.009115
v -2.534436 18.859676 -2.009115
v -1.994535 18.859676 -2.500938
v -1.994535 18.859676 -2.000938
v -3.989105 18.859676 -2.000938
v -3.449204 18.859676 -1.918560
v -2.534436 18.859676 -1.918560
v -2.534436 18.859676 -2.500938
v -3.449204 18.859676 -2.500938
v -3.989105 18.859676 -2.500938
v -3.989105 18.859676 -1.918560
v -1.994535 18.859676 -1.918560
v -1.994535 7.813591 -1.918560
v -3.989105 7.813591 -1.918560
v -3.449204 7.813591 -1.918560
v -2.534436 7.813591 -1.918560
v -2.534436 7.813591 -2.500938
v -3.449204 7.813591 -2.500938
v -1.994535 7.813591 -2.000938
v -3.989105 7.813591 -2.000938
v -2.534436 7.813591 -2.009115
v -3.449204 7.813591 -2.009115
v -1.994535 19.553524 -2.500938
v -1.994535 19.553524 -1.918560
v -3.989105 19.553524 -1.918560
v -3.989105 19.553524 -2.500938
v -2.382792 19.553524 -2.036024
v -3.600847 19.553524 -2.036024
v -3.600847 19.553524 -2.500938
v -2.382792 19.553524 -2.500938
v -2.382792 19.553524 -1.918560
v -3.600847 19.553524 -1.918560
v -3.989105 19.553524 -2.000938
v -1.994535 19.553524 -2.000938
v -8.272476 7.595676 -2.121219
v -6.321023 7.595676 -2.121219
v -8.272476 7.595676 -2.500938
v -6.321023 7.595676 -2.500938
v -7.392311 7.595676 -2.121219
v -6.321023 7.595676 -1.868145
v -7.392311 7.595676 -1.868145
v -3.989105 7.595676 -2.121219
v -3.989105 7.595676 -2.500938
v -3.989105 7.595676 -1.868145
v -1.994535 7.595676 -2.121220
v -0.000000 7.595676 -2.121220
v -0.000000 7.595676 -2.500938
v -1.994535 7.595676 -2.500938
v -0.000000 7.595676 -1.868145
v -0.000000 7.813591 -1.868145
v -1.994535 7.813591 -1.868145
v -1.994535 7.595676 -1.868145
v -2.500571 19.721151 -2.036024
v -2.500571 19.721151 -2.500938
v -3.483068 19.721151 -2.036024
v -3.483068 19.721151 -2.500938
v -3.483068 19.721151 -1.918560
v -2.500571 19.721151 -1.918560
v -3.449204 7.813591 -2.234150
v -3.449204 18.859676 -2.234150
v -2.534436 7.813591 -2.234151
v -2.534436 18.859676 -2.234151
v -1.994535 18.859676 -2.234150
v -2.382792 19.553524 -2.251694
v -3.600847 19.553524 -2.251693
v -3.989105 18.859676 -2.234151
v -3.989105 19.553524 -2.234151
v -1.994535 19.553524 -2.234150
v -1.994535 7.813591 -2.234151
v -2.500571 19.721151 -2.251694
v -3.483068 19.721151 -2.251693
v -2.433011 18.859676 -2.234151
v -2.433011 7.813591 -2.234151
v -3.550628 18.859676 -2.234150
v -3.550628 7.813591 -2.234150
v -2.433011 18.859676 -2.009115
v -2.433011 7.813591 -2.009115
v -3.550628 18.859676 -2.009115
v -3.989105 7.813591 -2.225974
v -3.550628 7.813591 -2.009115
v -3.989105 7.813591 -2.492762
v 8.272476 -0.100005 -2.121220
v 8.272476 10.431274 -2.121220
v 6.321023 -0.100005 -2.121220
v 6.321023 10.431274 -2.121220
v 8.272476 7.813591 -2.121220
v 8.272476 -0.100005 -2.500939
v 8.272476 10.431274 -2.500939
v 6.321023 10.431274 -2.500939
v 6.321023 -0.100005 -2.500939
v 8.272476 7.813591 -2.500939
v 7.392311 10.431274 -2.121220
v 7.392311 -0.100005 -2.121220
v 7.392311 7.813591 -2.121220
v 7.392311 10.431274 -2.500939
v 7.144276 -0.100005 -2.500939
v 3.989105 9.122433 -1.868145
v 3.989105 7.813591 -1.868145
v 3.989105 9.122433 -2.354644
v 8.272476 9.122433 -2.121220
v 1.994535 9.122433 -2.354643
v 6.321023 9.122433 -2.121220
v 8.272476 9.122433 -2.500939
v 3.989105 10.431274 -2.500939
v 7.392311 9.122433 -2.121220
v 1.994535 10.431274 -2.500938
v 7.392311 -0.100005 -1.868145
v 6.321023 -0.100005 -1.868146
v 1.994535 7.813591 -2.500938
v 6.321023 7.813591 -1.868146
v 3.989105 7.813591 -2.354644
v 6.321023 9.122433 -1.868146
v 1.994535 7.813591 -2.354643
v 7.392311 7.813591 -1.868145
v 7.392311 9.122433 -1.868145
v 3.989105 10.431274 -2.354644
v 1.994535 10.431274 -2.354643
v 3.449204 18.859676 -2.009115
v 2.534436 18.859676 -2.009115
v 1.994535 18.859676 -2.500938
v 1.994535 18.859676 -2.000938
v 3.989105 18.859676 -2.000939
v 3.449204 18.859676 -1.918560
v 2.534436 18.859676 -1.918560
v 2.534436 18.859676 -2.500938
v 3.449204 18.859676 -2.500939
v 3.989105 18.859676 -2.500939
v 3.989105 18.859676 -1.918560
v 1.994535 18.859676 -1.918560
v 1.994535 7.813591 -1.918560
v 3.989105 7.813591 -1.918560
v 3.449204 7.813591 -1.918560
v 2.534436 7.813591 -1.918560
v 2.534436 7.813591 -2.500938
v 3.449204 7.813591 -2.500939
v 1.994535 7.813591 -2.000938
v 3.989105 7.813591 -2.000939
v 2.534436 7.813591 -2.009115
v 3.449204 7.813591 -2.009115
v 1.994535 19.553524 -2.500938
v 1.994535 19.553524 -1.918560
v 3.989105 19.553524 -1.918560
v 3.989105 19.553524 -2.500939
v 2.382792 19.553524 -2.036024
v 3.600847 19.553524 -2.036024
v 3.600847 19.553524 -2.500939
v 2.382792 19.553524 -2.500938
v 2.382792 19.553524 -1.918560
v 3.600847 19.553524 -1.918560
v 3.989105 19.553524 -2.000939
v 1.994535 19.553524 -2.000938
v 8.272476 7.595676 -2.121220
v 6.321023 7.595676 -2.121220
v 8.272476 7.595676 -2.500939
v 6.321023 7.595676 -2.500939
v 7.392311 7.595676 -2.121220
v 6.321023 7.595676 -1.868146
v 7.392311 7.595676 -1.868145
v 3.989105 7.595676 -2.121220
v 3.989105 7.595676 -2.500939
v 3.989105 7.595676 -1.868145
v 1.994535 7.595676 -2.121220
v 1.994535 7.595676 -2.500938
v 1.994535 7.813591 -1.868145
v 1.994535 7.595676 -1.868145
v 2.500571 19.721151 -2.036024
v 2.500571 19.721151 -2.500938
v 3.483068 19.721151 -2.036024
v 3.483068 19.721151 -2.500939
v 3.483068 19.721151 -1.918560
v 2.500571 19.721151 -1.918560
v 3.449204 7.813591 -2.234151
v 3.449204 18.859676 -2.234151
v 2.534436 7.813591 -2.234151
v 2.534436 18.859676 -2.234151
v 1.994535 18.859676 -2.234150
v 2.382792 19.553524 -2.251694
v 3.600847 19.553524 -2.251694
v 3.989105 18.859676 -2.234151
v 3.989105 19.553524 -2.234151
v 1.994535 19.553524 -2.234150
v 1.994535 7.813591 -2.234151
v 2.500571 19.721151 -2.251694
v 3.483068 19.721151 -2.251694
v 2.433011 18.859676 -2.234151
v 2.433011 7.813591 -2.234151
v 3.550628 18.859676 -2.234151
v 3.550628 7.813591 -2.234151
v 2.433011 18.859676 -2.009115
v 2.433011 7.813591 -2.009115
v 3.550628 18.859676 -2.009115
v 3.989105 7.813591 -2.225975
v 3.550628 7.813591 -2.009115
v 3.989105 7.813591 -2.492762
vn -0.0000 -0.0000 1.0000
vn -0.0000 -1.0000 -0.0000
vn 1.0000 -0.0000 -0.0000
vn 0.0996 -0.0000 0.9950
vn -1.0000 -0.0000 -0.0000
vn -0.0000 1.0000 -0.0000
vn -0.0000 -0.0000 -1.0000
vn 0.8182 0.5749 -0.0000
vn -0.8182 0.5749 -0.0000
vn -0.0076 -0.0004 -1.0000
vn -0.0996 -0.0000 0.9950
vn 0.0076 -0.0004 -1.0000
vt 0.321148 0.956410
vt 0.385969 0.956410
vt 0.385969 1.000000
vt 0.321148 1.000000
vt 0.056417 0.734954
vt 0.075223 0.747238
vt 0.075223 0.790828
vt 0.056417 0.790828
vt 0.056417 0.313051
vt 0.075223 0.313051
vt 0.075223 0.694182
vt 0.056417 0.694182
vt 0.321148 0.787288
vt 0.385969 0.787288
vt 0.385969 0.903354
vt 0.321148 0.903354
vt 0.111851 0.381131
vt 0.111851 0.000000
vt 0.124384 0.000000
vt 0.124384 0.381131
vt 0.895979 0.837875
vt 0.895979 0.848668
vt 0.852389 0.848668
vt 0.852389 0.837875
vt 0.018806 0.381131
vt 0.018806 0.391923
vt 0.000000 0.391923
vt 0.000000 0.381131
vt 0.007245 0.733700
vt 0.000000 0.733700
vt 0.000000 0.618211
vt 0.018806 0.618211
vt 0.018806 0.565155
vt 0.000000 0.565155
vt 0.000000 0.521565
vt 0.018806 0.521565
vt 0.018806 0.456744
vt 0.000000 0.456744
vt 0.100290 0.000000
vt 0.100290 0.053056
vt 0.087757 0.053056
vt 0.087757 0.000000
vt 0.256328 0.688506
vt 0.256328 0.589726
vt 0.321148 0.589726
vt 0.321148 0.688506
vt 0.100290 0.625289
vt 0.111851 0.509800
vt 0.124384 0.509800
vt 0.124384 0.625289
vt 0.895979 0.913488
vt 0.852389 0.913488
vt 0.385969 0.589726
vt 0.385969 0.688506
vt 0.385969 0.902777
vt 0.396762 0.902777
vt 0.396762 0.955832
vt 0.385969 0.955832
vt 0.461582 0.902777
vt 0.461582 0.955832
vt 0.396762 0.787288
vt 0.461582 0.787288
vt 0.256328 0.787288
vt 0.111851 0.456744
vt 0.124384 0.456744
vt 0.007245 0.832482
vt 0.000000 0.832482
vt 0.111851 0.391923
vt 0.124384 0.391923
vt 0.007245 0.931262
vt 0.000000 0.931262
vt 0.396762 0.589726
vt 0.396762 0.688506
vt 0.385969 0.688506
vt 0.385969 0.589726
vt 0.639204 0.843806
vt 0.639204 0.778986
vt 0.663298 0.778986
vt 0.663298 0.843806
vt 0.100290 0.549676
vt 0.100290 0.648457
vt 0.087757 0.648457
vt 0.087757 0.549676
vt 0.568306 0.000000
vt 0.568306 0.547061
vt 0.556756 0.547061
vt 0.556756 0.000000
vt 0.229472 0.013397
vt 0.229516 0.560249
vt 0.184198 0.560256
vt 0.184203 0.013264
vt 0.743511 0.558206
vt 0.743511 0.547061
vt 0.748534 0.547061
vt 0.748534 0.558206
vt 0.474795 0.697134
vt 0.461582 0.697134
vt 0.461582 0.677905
vt 0.473926 0.677905
vt 0.484607 0.677905
vt 0.490425 0.677905
vt 0.490425 0.697134
vt 0.486345 0.697134
vt 0.484607 0.667759
vt 0.490425 0.667759
vt 0.473926 0.608954
vt 0.474795 0.589726
vt 0.486345 0.589726
vt 0.484607 0.608955
vt 0.490425 0.589726
vt 0.490425 0.608955
vt 0.698207 0.000000
vt 0.698207 0.547061
vt 0.693184 0.547061
vt 0.693184 0.000000
vt 0.552676 0.547061
vt 0.552676 0.000000
vt 0.152963 0.026739
vt 0.152963 0.573800
vt 0.148478 0.573800
vt 0.148478 0.026739
vt 0.157455 0.560255
vt 0.157448 0.013229
vt 0.668046 -0.000000
vt 0.668046 0.547061
vt 0.663966 0.547061
vt 0.663966 -0.000000
vt 0.677016 0.026739
vt 0.677016 0.573799
vt 0.672531 0.573799
vt 0.672531 0.026739
vt 0.453894 0.000000
vt 0.453894 0.547061
vt 0.427155 0.547061
vt 0.427155 0.000000
vt 0.381851 0.000000
vt 0.381851 0.547061
vt 0.355112 0.547061
vt 0.355113 0.000000
vt 0.184235 0.000031
vt 0.229570 0.000193
vt 0.461582 0.667759
vt 0.461582 0.619101
vt 0.473926 0.619101
vt 0.473926 0.667759
vt 0.556756 0.581424
vt 0.552676 0.581424
vt 0.176682 0.594631
vt 0.237038 0.594644
vt 0.231200 0.602949
vt 0.182516 0.602939
vt 0.434666 0.581424
vt 0.374341 0.581424
vt 0.256296 0.560244
vt 0.256289 0.594648
vt 0.453894 0.581424
vt 0.157448 0.594628
vt 0.652417 0.547061
vt 0.652417 0.581424
vt 0.639204 0.581424
vt 0.639204 0.547061
vt 0.355112 0.581424
vt 0.668046 0.581424
vt 0.663966 0.581424
vt 0.148478 0.619104
vt 0.152963 0.619104
vt 0.568306 0.581424
vt 0.663298 0.680204
vt 0.639204 0.680204
vt 0.676611 -0.000000
vt 0.672531 -0.000000
vt 0.461582 0.608955
vt 0.100290 0.434187
vt 0.087757 0.434187
vt 0.949035 0.000000
vt 0.949035 0.381131
vt 0.895979 0.381131
vt 0.895979 0.000000
vt 0.018806 -0.000000
vt 0.000000 -0.000000
vt 0.895979 0.456744
vt 0.852389 0.456744
vt 0.056417 0.197562
vt 0.075223 0.197562
vt 0.075223 0.000000
vt 0.075223 0.098780
vt 0.056417 0.098780
vt 0.056417 0.000000
vt 0.385969 0.787288
vt 0.100290 0.747237
vt 0.087757 0.747237
vt 0.663298 0.581424
vt 0.639204 0.581424
vt 0.484607 0.619101
vt 0.490425 0.619101
vt 0.698207 0.558206
vt 0.693184 0.558206
vt 0.428833 0.589726
vt 0.380174 0.589726
vt 0.764702 0.000000
vt 0.764702 0.547061
vt 0.759679 0.547061
vt 0.759679 0.000000
vt 0.748534 0.000000
vt 0.743511 0.000000
vt 0.581519 0.547061
vt 0.581519 0.581424
vt 0.677016 0.547061
vt 0.677016 0.000000
vt 0.682039 0.000000
vt 0.682039 0.547061
vt 0.461582 0.589726
vt 0.581519 0.000000
vt 0.148883 0.000000
vt 0.152963 0.000000
vt 0.157463 -0.000000
vt 0.256328 0.000057
vt 0.256195 0.013277
vt 0.652821 -0.000000
vt 0.639609 -0.000000
vt 0.741837 0.601796
vt 0.741837 0.558206
vt 0.806657 0.558206
vt 0.806657 0.601796
vt 0.037611 0.055874
vt 0.037611 -0.000000
vt 0.056417 -0.000000
vt 0.056417 0.043590
vt 0.037611 0.477777
vt 0.037611 0.096646
vt 0.056417 0.096646
vt 0.056417 0.477777
vt 0.741837 0.770918
vt 0.741837 0.654852
vt 0.806657 0.654852
vt 0.806657 0.770918
vt 0.136918 0.381131
vt 0.124384 0.381131
vt 0.124384 0.000000
vt 0.136918 0.000000
vt 0.852389 0.381131
vt 0.895979 0.381131
vt 0.895979 0.391923
vt 0.852389 0.391923
vt 0.037611 0.550131
vt 0.018806 0.550131
vt 0.018806 0.539339
vt 0.037611 0.539339
vt 0.026051 0.197562
vt 0.037611 0.313051
vt 0.018806 0.313051
vt 0.018806 0.197562
vt 0.037611 0.366106
vt 0.037611 0.409697
vt 0.018806 0.409697
vt 0.018806 0.366106
vt 0.037611 0.474518
vt 0.018806 0.474518
vt 0.075223 0.000000
vt 0.087757 0.053056
vt 0.075223 0.053056
vt 0.677016 0.869700
vt 0.741837 0.869700
vt 0.741837 0.968480
vt 0.677016 0.968480
vt 0.148478 0.625289
vt 0.124384 0.625289
vt 0.124384 0.509800
vt 0.136918 0.509800
vt 0.895979 0.456744
vt 0.852389 0.456744
vt 0.806657 0.869700
vt 0.806657 0.968480
vt 0.552676 0.634480
vt 0.563469 0.581424
vt 0.563469 0.634480
vt 0.628289 0.581424
vt 0.628289 0.634480
vt 0.563469 0.749969
vt 0.628289 0.749969
vt 0.677016 0.770918
vt 0.124384 0.456744
vt 0.136918 0.456744
vt 0.026051 0.098780
vt 0.018806 0.098780
vt 0.124384 0.391923
vt 0.136918 0.391923
vt 0.026051 0.000000
vt 0.018806 0.000000
vt 0.563469 0.947531
vt 0.552676 0.947531
vt 0.552676 0.848751
vt 0.563469 0.848751
vt 0.830751 0.820588
vt 0.806658 0.820588
vt 0.806658 0.755768
vt 0.830751 0.755768
vt 0.075223 0.549676
vt 0.087757 0.549676
vt 0.087757 0.648457
vt 0.075223 0.648457
vt 0.594732 0.000000
vt 0.606281 0.000000
vt 0.606281 0.547061
vt 0.594732 0.547061
vt 0.283069 0.000000
vt 0.328374 0.000000
vt 0.328374 0.547061
vt 0.283069 0.547061
vt 0.785893 0.558206
vt 0.780870 0.558206
vt 0.780870 0.547061
vt 0.785893 0.547061
vt 0.503638 0.589726
vt 0.502769 0.608954
vt 0.490425 0.608954
vt 0.490425 0.589726
vt 0.513450 0.608954
vt 0.515188 0.589726
vt 0.519267 0.589726
vt 0.519267 0.608954
vt 0.519267 0.619101
vt 0.513450 0.619101
vt 0.502769 0.677905
vt 0.513450 0.677905
vt 0.515188 0.697134
vt 0.503638 0.697134
vt 0.519267 0.677905
vt 0.519267 0.697134
vt 0.831198 0.000000
vt 0.836221 0.000000
vt 0.836221 0.547061
vt 0.831198 0.547061
vt 0.610361 0.000000
vt 0.610361 0.547061
vt 0.157448 0.026739
vt 0.157448 0.573800
vt 0.152963 0.573800
vt 0.355112 0.000000
vt 0.355112 0.547061
vt 0.610361 -0.000000
vt 0.614441 -0.000000
vt 0.614441 0.547061
vt 0.610361 0.547061
vt 0.668046 0.026739
vt 0.672531 0.026739
vt 0.672531 0.573801
vt 0.668046 0.573801
vt 0.453895 0.000000
vt 0.480633 0.000000
vt 0.480633 0.547061
vt 0.453894 0.547061
vt 0.525937 0.000000
vt 0.552676 0.000000
vt 0.552676 0.547061
vt 0.525937 0.547061
vt 0.663484 0.653522
vt 0.663298 0.608218
vt 0.676511 0.608164
vt 0.676696 0.653468
vt 0.490425 0.619101
vt 0.502769 0.619101
vt 0.502769 0.667759
vt 0.490425 0.667759
vt 0.610361 0.581424
vt 0.606281 0.581424
vt 0.335884 0.581424
vt 0.330051 0.589726
vt 0.281392 0.589726
vt 0.275559 0.581424
vt 0.533447 0.581424
vt 0.473123 0.581424
vt 0.256331 0.547061
vt 0.256331 0.581424
vt 0.453894 0.581424
vt 0.355112 0.581424
vt 0.625991 0.547061
vt 0.625991 0.581424
vt 0.552676 0.581424
vt 0.614441 0.581424
vt 0.610361 0.581424
vt 0.157448 0.619104
vt 0.152963 0.619104
vt 0.594732 0.581424
vt 0.806657 0.656986
vt 0.830751 0.656986
vt 0.668451 0.000000
vt 0.672531 0.000000
vt 0.490425 0.677905
vt 0.087757 0.434187
vt 0.075223 0.434187
vt 0.895979 0.381131
vt 0.949035 0.381131
vt 0.949035 0.762262
vt 0.895979 0.762262
vt 0.037611 0.931262
vt 0.018806 0.931262
vt 0.852389 -0.000000
vt 0.895979 -0.000000
vt 0.037611 0.593266
vt 0.056417 0.593266
vt 0.056417 0.790828
vt 0.037611 0.790828
vt 0.037611 0.692048
vt 0.056417 0.692048
vt 0.552676 0.749969
vt 0.087757 0.747237
vt 0.075223 0.747237
vt 0.806657 0.558206
vt 0.830751 0.558206
vt 0.513450 0.667759
vt 0.519267 0.667759
vt 0.836221 0.558206
vt 0.831198 0.558206
vt 0.527614 0.589726
vt 0.478956 0.589726
vt 0.764702 0.000000
vt 0.769725 0.000000
vt 0.769725 0.547061
vt 0.780870 0.000000
vt 0.785893 0.000000
vt 0.581519 0.547061
vt 0.581519 0.581424
vt 0.852389 0.547061
vt 0.847366 0.547061
vt 0.847366 0.000000
vt 0.852389 0.000000
vt 0.490425 0.697134
vt 0.581519 0.000000
vt 0.152963 0.000000
vt 0.157043 0.000000
vt 0.676806 0.680206
vt 0.663593 0.680261
vt 0.663593 0.581478
vt 0.676806 0.581424
vt 0.625586 -0.000000
vt 0.638799 -0.000000
vt 0.256328 0.000000
s 0
usemtl M_MetalGrate
f 24/1/1 11/2/1 2/3/1 19/4/1
f 15/5/2 12/6/2 1/7/2 6/8/2
f 78/9/3 76/10/3 3/11/3 9/12/3
f 18/13/4 35/14/4 4/15/4 21/16/4
f 79/21/1 13/22/1 5/23/1 75/24/1
f 75/25/5 5/26/5 10/27/5 77/28/5
f 35/29/6 23/30/6 8/31/6 4/32/6
f 11/33/6 14/34/6 7/35/6 2/36/6
f 19/37/5 2/36/5 7/35/5 22/38/5
f 4/32/6 8/31/6 14/34/6 11/33/6
f 9/12/2 3/11/2 12/6/2 15/5/2
f 21/16/1 4/15/1 11/2/1 24/1/1
f 32/43/1 38/44/1 40/45/1 20/46/1
f 5/26/5 19/37/5 22/38/5 10/27/5
f 13/22/1 24/51/1 19/52/1 5/23/1
f 40/45/1 37/53/1 36/54/1 20/46/1
f 32/43/1 20/46/1 18/13/1 30/63/1
f 36/66/6 25/67/6 23/30/6 35/29/6
f 37/70/6 39/71/6 25/67/6 36/66/6
f 20/46/1 36/54/1 35/14/1 18/13/1
f 1/179/5 75/25/5 77/28/5 6/180/5
f 12/181/1 79/21/1 75/24/1 1/182/1
f 83/183/2 82/184/2 76/10/2 78/9/2
f 86/185/2 85/186/2 88/187/2 87/188/2
f 85/186/2 82/184/2 83/183/2 88/187/2
f 145/221/1 140/222/1 123/223/1 132/224/1
f 136/225/2 127/226/2 122/227/2 133/228/2
f 195/229/5 130/230/5 124/231/5 193/232/5
f 139/233/11 142/234/11 125/235/11 156/236/11
f 196/241/1 192/242/1 126/243/1 134/244/1
f 192/245/3 194/246/3 131/247/3 126/248/3
f 156/249/6 125/250/6 129/251/6 144/252/6
f 132/253/6 123/254/6 128/255/6 135/256/6
f 140/257/3 143/258/3 128/255/3 123/254/3
f 125/250/6 132/253/6 135/256/6 129/251/6
f 130/230/2 136/225/2 133/228/2 124/231/2
f 142/234/1 145/221/1 132/224/1 125/235/1
f 153/262/1 141/263/1 40/264/1 38/265/1
f 126/248/3 131/247/3 143/258/3 140/257/3
f 134/244/1 126/243/1 140/270/1 145/271/1
f 40/264/1 141/263/1 157/272/1 37/273/1
f 153/262/1 151/281/1 139/233/1 141/263/1
f 157/284/6 156/249/6 144/252/6 146/285/6
f 37/288/6 157/284/6 146/285/6 39/289/6
f 141/263/1 139/233/1 156/236/1 157/272/1
f 174/357/2 175/358/2 212/359/2 214/360/2
f 122/396/3 127/397/3 194/246/3 192/245/3
f 133/398/1 122/399/1 192/242/1 196/241/1
f 200/400/2 195/229/2 193/232/2 199/401/2
f 86/402/2 87/403/2 203/404/2 202/405/2
f 202/405/2 203/404/2 200/400/2 199/401/2
f 174/357/2 214/360/2 222/432/2 149/433/2
f 212/359/2 175/358/2 234/434/2 232/435/2
usemtl M_MetalInterface
f 79/17/5 12/18/5 26/19/5 81/20/5
f 12/39/2 3/40/2 27/41/2 26/42/2
f 18/47/6 21/48/6 31/49/6 16/50/6
f 80/55/1 29/56/1 33/57/1 81/58/1
f 29/56/1 31/59/1 34/60/1 33/57/1
f 17/61/1 16/62/1 31/59/1 29/56/1
f 21/48/6 24/64/6 34/65/6 31/49/6
f 24/64/5 13/68/5 33/69/5 34/65/5
f 90/72/1 91/73/1 92/74/1 89/75/1
f 16/76/3 17/77/3 30/78/3 18/79/3
f 82/80/2 85/81/2 92/82/2 84/83/2
f 32/168/6 30/78/6 17/77/6 91/169/6
f 3/40/3 76/173/3 80/174/3 27/41/3
f 27/175/1 80/176/1 81/177/1 26/178/1
f 13/68/5 79/17/5 81/20/5 33/69/5
f 76/173/2 82/80/2 84/83/2 80/174/2
f 17/61/1 29/56/1 80/55/1 84/189/1
f 91/73/1 17/61/1 84/189/1 92/74/1
f 85/81/2 86/190/2 89/191/2 92/82/2
f 38/192/6 32/168/6 91/169/6 90/193/6
f 196/237/3 198/238/3 147/239/3 133/240/3
f 133/259/2 147/42/2 148/260/2 124/261/2
f 139/266/6 137/267/6 152/268/6 142/269/6
f 197/274/1 198/147/1 154/275/1 150/276/1
f 150/276/1 154/275/1 155/277/1 152/278/1
f 138/279/1 150/276/1 152/278/1 137/280/1
f 142/269/6 152/268/6 155/282/6 145/283/6
f 145/283/3 155/282/3 154/286/3 134/287/3
f 90/290/1 89/291/1 205/292/1 204/293/1
f 137/294/5 139/295/5 151/296/5 138/297/5
f 199/298/2 201/299/2 205/300/2 202/301/2
f 153/385/6 204/386/6 138/297/6 151/296/6
f 124/261/5 148/260/5 197/390/5 193/391/5
f 148/392/1 147/393/1 198/394/1 197/395/1
f 134/287/3 154/286/3 198/238/3 196/237/3
f 193/391/2 197/390/2 201/299/2 199/298/2
f 138/279/1 201/406/1 197/274/1 150/276/1
f 204/293/1 205/292/1 201/406/1 138/279/1
f 202/301/2 205/300/2 89/407/2 86/408/2
f 38/409/6 90/410/6 204/386/6 153/385/6
usemtl M_MetalInterface2
f 109/84/3 103/85/3 44/86/3 59/87/3
f 58/88/7 49/89/7 48/90/7 57/91/7
f 42/92/2 102/93/2 112/94/2 116/95/2
f 108/96/6 63/97/6 70/98/6 104/99/6
f 67/100/6 71/101/6 64/102/6 74/103/6
f 71/101/8 67/100/8 93/104/8 98/105/8
f 105/106/6 107/107/6 73/108/6 68/109/6
f 73/108/6 65/110/6 72/111/6 68/109/6
f 99/112/1 100/113/1 114/114/1 115/115/1
f 59/87/3 44/86/3 52/116/3 53/117/3
f 56/118/5 47/119/5 42/120/5 61/121/5
f 57/91/7 48/90/7 43/122/7 28/123/7
f 54/124/5 51/125/5 45/126/5 60/127/5
f 62/128/3 41/129/3 46/130/3 55/131/3
f 53/132/1 52/133/1 47/134/1 56/135/1
f 55/136/1 46/137/1 51/138/1 54/139/1
f 57/91/2 101/140/2 99/141/2 58/88/2
f 94/142/6 96/143/6 111/144/6 110/145/6
f 44/86/3 74/146/3 64/147/3 52/116/3
f 70/148/7 69/149/7 96/150/7 94/151/7
f 46/137/1 47/134/1 71/152/1 72/153/1
f 50/154/7 66/155/7 69/149/7 49/89/7
f 52/133/1 64/156/1 71/152/1 47/134/1
f 48/90/7 70/148/7 63/157/7 43/122/7
f 106/158/5 107/159/5 66/160/5 50/161/5
f 46/137/1 72/153/1 65/162/1 51/138/1
f 51/125/5 65/163/5 73/164/5 45/126/5
f 41/165/2 42/120/2 47/119/2 46/166/2
f 103/85/3 108/167/3 74/146/3 44/86/3
f 49/89/7 69/149/7 70/148/7 48/90/7
f 60/170/2 62/128/2 55/131/2 54/171/2
f 69/172/9 105/106/9 111/144/9 96/143/9
f 110/145/6 111/144/6 95/194/6 93/104/6
f 97/195/6 98/105/6 93/104/6 95/194/6
f 100/113/2 41/196/2 118/197/2 114/114/2
f 72/153/1 71/152/1 98/198/1 97/199/1
f 104/99/8 70/98/8 94/142/8 110/145/8
f 68/109/9 72/111/9 97/195/9 95/194/9
f 105/106/9 68/109/9 95/194/9 111/144/9
f 61/200/7 42/201/7 116/202/7 117/203/7
f 117/203/5 116/202/5 112/94/5 113/204/5
f 99/112/1 101/205/1 102/93/1 100/113/1
f 43/206/3 63/207/3 108/167/3 103/85/3
f 41/208/7 62/209/7 120/210/7 118/211/7
f 42/92/2 41/196/2 100/113/2 102/93/2
f 67/100/8 104/99/8 110/145/8 93/104/8
f 45/126/5 73/164/5 107/159/5 106/158/5
f 69/172/6 66/212/6 107/107/6 105/106/6
f 74/103/6 108/96/6 104/99/6 67/100/6
f 28/213/3 43/206/3 103/85/3 109/84/3
f 56/118/2 61/121/2 59/214/2 53/215/2
f 57/91/2 28/123/2 109/216/2 101/140/2
f 118/211/3 120/210/3 115/115/3 114/114/3
f 102/93/1 101/205/1 113/204/1 112/94/1
f 99/141/2 119/217/2 121/218/2 58/88/2
f 106/158/5 119/219/5 60/127/5 45/126/5
f 50/161/5 121/220/5 119/219/5 106/158/5
f 49/89/10 58/88/10 121/218/10 50/154/10
f 222/302/5 176/303/5 161/304/5 216/305/5
f 175/306/7 174/307/7 165/308/7 166/309/7
f 159/310/2 229/311/2 225/312/2 215/313/2
f 221/314/6 217/315/6 187/316/6 180/317/6
f 184/318/6 191/319/6 181/320/6 188/321/6
f 188/321/9 211/322/9 206/323/9 184/318/9
f 218/324/6 185/325/6 190/326/6 220/327/6
f 190/326/6 185/325/6 189/328/6 182/329/6
f 212/330/1 228/331/1 227/332/1 213/333/1
f 176/303/5 170/334/5 169/335/5 161/304/5
f 173/118/3 178/336/3 159/337/3 164/338/3
f 174/307/7 149/339/7 160/340/7 165/308/7
f 171/341/3 177/342/3 162/343/3 168/344/3
f 179/345/5 172/346/5 163/347/5 158/348/5
f 170/349/1 173/350/1 164/351/1 169/352/1
f 172/353/1 171/354/1 168/355/1 163/356/1
f 207/361/6 223/362/6 224/363/6 209/364/6
f 161/304/5 169/335/5 181/365/5 191/366/5
f 187/367/7 207/368/7 209/369/7 186/370/7
f 163/356/1 189/371/1 188/372/1 164/351/1
f 167/373/7 166/309/7 186/370/7 183/374/7
f 169/352/1 164/351/1 188/372/1 181/375/1
f 165/308/7 160/340/7 180/376/7 187/367/7
f 219/377/3 167/161/3 183/160/3 220/378/3
f 163/356/1 168/355/1 182/379/1 189/371/1
f 168/344/3 162/343/3 190/380/3 182/381/3
f 158/382/2 163/383/2 164/338/2 159/337/2
f 216/305/5 161/304/5 191/366/5 221/384/5
f 166/309/7 165/308/7 187/367/7 186/370/7
f 177/387/2 171/388/2 172/346/2 179/345/2
f 186/389/8 209/364/8 224/363/8 218/324/8
f 223/362/6 206/323/6 208/411/6 224/363/6
f 210/412/6 208/411/6 206/323/6 211/322/6
f 213/333/2 227/332/2 231/413/2 158/414/2
f 189/371/1 210/415/1 211/416/1 188/372/1
f 217/315/9 223/362/9 207/361/9 187/316/9
f 185/325/8 208/411/8 210/412/8 189/328/8
f 218/324/8 224/363/8 208/411/8 185/325/8
f 178/417/7 230/418/7 229/419/7 159/201/7
f 230/418/3 226/420/3 225/312/3 229/419/3
f 212/330/1 213/333/1 215/313/1 214/421/1
f 160/422/5 216/305/5 221/384/5 180/423/5
f 158/424/7 231/425/7 233/426/7 179/427/7
f 159/310/2 215/313/2 213/333/2 158/414/2
f 184/318/9 206/323/9 223/362/9 217/315/9
f 162/343/3 219/377/3 220/378/3 190/380/3
f 186/389/6 218/324/6 220/327/6 183/428/6
f 191/319/6 184/318/6 217/315/6 221/314/6
f 149/429/5 222/302/5 216/305/5 160/422/5
f 173/118/2 170/430/2 176/431/2 178/336/2
f 231/425/5 227/332/5 228/331/5 233/426/5
f 215/313/1 225/312/1 226/420/1 214/421/1
f 219/377/3 162/343/3 177/342/3 232/436/3
f 167/161/3 219/377/3 232/436/3 234/437/3
f 166/309/12 167/373/12 234/438/12 175/306/12
