# Blender 5.2.0 LTS
# www.blender.org
mtllib BrainJarShield.mtl
o BrainJar
v -1.788635 4.805511 -2.119651
v -2.345689 6.483468 -0.331017
v 1.788635 4.805511 -2.119651
v -0.000000 6.483468 2.014672
v -1.788635 4.805511 1.457618
v -0.897656 6.483468 1.836117
v 1.788635 4.805511 1.457618
v 2.345689 6.483468 -0.331017
v 0.968002 4.805511 -2.667980
v -0.000000 4.805511 -2.860528
v -0.968002 4.805511 -2.667980
v 0.000000 6.483468 -2.676705
v 0.897656 6.483468 -2.498150
v -1.658653 6.483468 1.327636
v 2.336964 4.805511 0.636985
v 2.529511 4.805511 -0.331017
v 2.336964 4.805511 -1.299018
v -2.167134 6.483468 0.566640
v 0.897656 6.483468 1.836117
v -1.658653 6.483468 -1.989669
v -0.968002 4.805511 2.005947
v -0.000000 4.805511 2.198494
v 0.968002 4.805511 2.005947
v -0.897656 6.483468 -2.498150
v 1.658653 6.483468 -1.989669
v 2.167134 6.483468 -1.228673
v -2.336964 4.805511 -1.299018
v -2.529511 4.805511 -0.331017
v -2.336964 4.805511 0.636985
v -2.529511 6.082817 -0.331017
v 2.167134 6.483468 0.566640
v -0.000000 6.082817 2.198494
v -0.874901 4.821721 -2.443215
v -1.616607 4.821721 -1.947623
v -0.968002 6.082817 2.005947
v 1.658653 6.483468 1.327636
v 2.112199 4.821721 -1.205918
v 1.616607 4.821721 -1.947623
v 2.529511 6.082817 -0.331017
v 2.336964 6.082817 0.636985
v 0.874901 4.821721 1.781182
v 1.616607 4.821721 1.285590
v -2.167134 6.483468 -1.228673
v -2.336964 6.082817 -1.299018
v -2.112199 4.821721 0.543885
v -1.616607 4.821721 1.285590
v -0.000000 6.082817 -2.860528
v 0.968002 6.082817 -2.667980
v 0.874901 4.821721 -2.443215
v 0.000000 4.821721 -2.617244
v -1.788635 6.082817 1.457618
v -2.336964 6.082817 0.636985
v 2.112199 4.821721 0.543885
v 2.286227 4.821721 -0.331017
v 1.788635 6.082817 1.457618
v 0.968002 6.082817 2.005947
v -0.874901 4.821721 1.781182
v -0.000000 4.821721 1.955210
v 1.788635 6.082817 -2.119651
v 2.336964 6.082817 -1.299018
v -2.112199 4.821721 -1.205918
v -2.286227 4.821721 -0.331017
v -1.788635 6.082817 -2.119651
v -0.968002 6.082817 -2.667980
v -0.000000 4.821721 -0.331017
v -1.694370 12.537577 -2.025386
v -2.397709 13.207407 -0.331017
v 1.694370 12.537577 -2.025386
v -0.000000 13.207407 2.066692
v -1.694370 12.537577 1.363353
v -0.917564 13.207407 1.884177
v 1.694370 12.537577 1.363353
v 2.397709 13.207407 -0.331017
v 0.916986 12.537577 -2.544817
v -0.000000 12.537577 -2.727217
v -0.916986 12.537577 -2.544817
v 0.000000 13.207407 -2.728725
v 0.917564 13.207407 -2.546210
v -1.695436 13.207407 1.364420
v 2.213801 12.537577 0.585970
v 2.396201 12.537577 -0.331017
v 2.213801 12.537577 -1.248003
v -2.215194 13.207407 0.586547
v 0.917564 13.207407 1.884177
v -1.695436 13.207407 -2.026453
v -0.916986 12.537577 1.882784
v -0.000000 12.537577 2.065184
v 0.916986 12.537577 1.882784
v -0.917564 13.207407 -2.546210
v 1.695436 13.207407 -2.026453
v 2.215194 13.207407 -1.248580
v -2.213801 12.537577 -1.248003
v -2.396201 12.537577 -0.331017
v -2.213801 12.537577 0.585970
v -2.396201 12.980079 -0.331017
v 2.215194 13.207407 0.586547
v -0.000000 12.980079 2.065184
v -0.874901 12.274543 -2.443215
v -1.616607 12.274543 -1.947623
v -0.916986 12.980079 1.882784
v 1.695436 13.207407 1.364419
v 2.112199 12.274543 -1.205918
v 1.616607 12.274543 -1.947623
v 2.396201 12.980079 -0.331017
v 2.213801 12.980079 0.585970
v 0.874901 12.274543 1.781182
v 1.616607 12.274543 1.285590
v -2.215194 13.207407 -1.248580
v -2.213801 12.980079 -1.248003
v -2.112199 12.274543 0.543885
v -1.616607 12.274543 1.285590
v -0.000000 12.980079 -2.727217
v 0.916986 12.980079 -2.544817
v 0.874901 12.274543 -2.443215
v 0.000000 12.274543 -2.617244
v -1.694370 12.980079 1.363353
v -2.213801 12.980079 0.585970
v 2.112199 12.274543 0.543885
v 2.286227 12.274543 -0.331017
v 1.694370 12.980079 1.363353
v 0.916986 12.980079 1.882784
v -0.874901 12.274543 1.781182
v -0.000000 12.274543 1.955210
v 1.694370 12.980079 -2.025386
v 2.213801 12.980079 -1.248003
v -2.112199 12.274543 -1.205918
v -2.286227 12.274543 -0.331017
v -1.694370 12.980079 -2.025386
v -0.916986 12.980079 -2.544817
v -0.000000 5.850708 2.198494
v -0.000000 5.992509 2.198494
v -0.968002 5.850708 -2.667980
v -0.968002 5.992509 -2.667980
v -0.968002 5.850708 2.005947
v -0.968002 5.992509 2.005947
v -0.000000 5.850708 -2.860528
v -0.000000 5.992509 -2.860528
v 1.788635 5.992509 -2.119651
v 1.788635 5.850708 -2.119651
v 0.968002 5.850708 -2.667980
v 0.968002 5.992509 -2.667980
v -2.336964 5.992509 0.636985
v -2.336964 5.850708 0.636985
v -1.788635 5.850708 1.457618
v -1.788635 5.992509 1.457618
v 0.968002 5.850708 2.005947
v 0.968002 5.992509 2.005947
v -1.788635 5.850708 -2.119651
v -1.788635 5.992509 -2.119651
v 2.336964 5.992509 -1.299018
v 2.336964 5.850708 -1.299018
v 2.336964 5.850708 0.636985
v 2.336964 5.992509 0.636985
v 1.788635 5.992509 1.457618
v 1.788635 5.850708 1.457618
v -2.336964 5.850708 -1.299018
v -2.336964 5.992509 -1.299018
v 2.529511 5.850708 -0.331017
v 2.529511 5.992509 -0.331017
v -2.529511 5.850708 -0.331017
v -2.529511 5.992509 -0.331017
v -0.000000 5.850708 2.010458
v -0.000000 5.992509 2.010458
v -0.896043 5.850708 -2.494256
v -0.896043 5.992509 -2.494256
v -0.896043 5.850708 1.832223
v -0.896043 5.992509 1.832223
v -0.000000 5.850708 -2.672491
v -0.000000 5.992509 -2.672491
v 1.655672 5.992509 -1.986689
v 1.655672 5.850708 -1.986689
v 0.896043 5.850708 -2.494256
v 0.896043 5.992509 -2.494256
v -2.163240 5.992509 0.565027
v -2.163240 5.850708 0.565027
v -1.655672 5.850708 1.324656
v -1.655672 5.992509 1.324656
v 0.896043 5.850708 1.832223
v 0.896043 5.992509 1.832223
v -1.655673 5.850708 -1.986689
v -1.655673 5.992509 -1.986689
v 2.163240 5.992509 -1.227060
v 2.163240 5.850708 -1.227060
v 2.163240 5.850708 0.565027
v 2.163240 5.992509 0.565027
v 1.655673 5.992509 1.324656
v 1.655673 5.850708 1.324656
v -2.163240 5.850708 -1.227060
v -2.163240 5.992509 -1.227060
v 2.341475 5.850708 -0.331017
v 2.341475 5.992509 -0.331017
v -2.341475 5.850708 -0.331017
v -2.341475 5.992509 -0.331017
v 2.112199 13.273165 0.543885
v 2.286227 13.273165 -0.331017
v 1.616607 13.273165 1.285590
v 0.000000 13.273165 -2.617244
v -0.874901 13.273165 -2.443215
v 0.874901 13.273165 -2.443215
v 1.616607 13.273165 -1.947623
v -2.112199 13.273165 0.543885
v -1.616607 13.273165 1.285590
v 0.874901 13.273165 1.781182
v 2.112199 13.273165 -1.205918
v -1.616607 13.273165 -1.947623
v -2.286227 13.273165 -0.331017
v -2.112199 13.273165 -1.205918
v -0.000000 13.273165 1.955210
v -0.874901 13.273165 1.781182
v 0.000000 13.273165 -0.331017
v 2.154094 10.114010 -0.331017
v 1.523174 10.114010 -1.854190
v 1.523174 8.644002 -1.854190
v 0.824336 10.114010 -2.321139
v 0.824336 8.644002 -2.321139
v 0.000000 10.114010 -2.485110
v 0.000000 8.644002 -2.485110
v -0.824336 10.114010 -2.321139
v -0.824336 8.644002 -2.321139
v -1.523174 10.114010 -1.854190
v -1.523174 8.644002 -1.854190
v -2.154094 10.114010 -0.331017
v -1.523174 10.114010 1.192157
v -1.523174 8.644002 1.192157
v -0.824336 10.114010 1.659106
v -0.824336 8.644002 1.659106
v -0.000000 10.114010 1.823076
v -0.000000 8.644002 1.823076
v 0.824336 10.114010 1.659106
v 0.824336 8.644002 1.659106
v 1.523174 10.114010 1.192157
v 1.523174 8.644002 1.192157
v -1.990123 10.114010 -1.169934
v 1.990123 10.114010 -1.169934
v -1.990123 10.114010 0.507884
v 1.990123 10.114010 0.507884
v -1.990123 8.644002 -1.169934
v -2.154094 8.644002 -0.331017
v -1.990123 8.644002 0.507884
v 2.154094 8.644002 -0.331017
v 1.990123 8.644002 -1.169934
v 1.990123 8.644002 0.507884
v 1.990123 12.166516 0.493319
v 2.154094 12.166515 -0.331017
v 1.990123 12.166515 -1.155352
v 1.523174 12.166515 -1.854190
v 0.824336 12.166515 -2.321139
v 0.000000 12.166515 -2.485110
v -0.824336 12.166515 -2.321139
v -1.523174 12.166515 -1.854190
v -1.990123 12.166515 -1.155352
v -2.154094 12.166515 -0.331017
v -1.990123 12.166515 0.493319
v -1.523174 12.166515 1.192157
v -0.824336 12.166515 1.659106
v -0.000000 12.166515 1.823076
v 0.824336 12.166515 1.659106
v 1.523174 12.166515 1.192157
v 2.154094 6.591495 -0.331017
v 1.990123 6.591495 -1.155352
v 1.523174 6.591495 -1.854190
v 0.824336 6.591495 -2.321139
v 0.000000 6.591495 -2.485110
v -0.824336 6.591495 -2.321139
v -1.523174 6.591495 -1.854190
v -1.990123 6.591495 -1.155352
v -2.154094 6.591495 -0.331017
v -1.990123 6.591495 0.493319
v -1.523174 6.591495 1.192157
v -0.824336 6.591495 1.659106
v -0.000000 6.591495 1.823076
v 0.824336 6.591495 1.659106
v 1.523174 6.591495 1.192157
v 1.990123 6.591495 0.493319
v 2.236261 9.887173 -1.099170
v 2.236261 8.870839 -1.099170
v -2.236261 9.887173 -1.099170
v -2.236261 8.870839 -1.099170
v -2.236262 9.887172 0.437121
v -2.236262 8.870840 0.437121
v 2.236262 8.870840 0.437121
v 2.236262 9.887172 0.437121
v -2.291142 10.114010 -0.331016
v -2.291142 8.644002 -0.331016
v 2.291142 10.114010 -0.331016
v 2.291142 8.644002 -0.331016
v 2.540215 9.709688 -0.834921
v 2.540215 9.048324 -0.834921
v -2.540215 9.709688 -0.834921
v -2.540215 9.048324 -0.834921
v -2.540214 9.709688 0.172876
v -2.540214 9.048324 0.172876
v 2.540214 9.048324 0.172876
v 2.540214 9.709688 0.172876
v -2.651850 9.806152 -0.331018
v -2.651850 8.951859 -0.331018
v 2.651850 9.806152 -0.331018
v 2.651850 8.951859 -0.331018
v 2.124626 10.114010 -1.196224
v 2.124626 8.644002 -1.196224
v -2.124626 10.114010 -1.196224
v -2.124626 8.644002 -1.196224
v -2.124626 10.114010 0.534173
v -2.124626 8.644002 0.534173
v 2.124626 8.644002 0.534173
v 2.124626 10.114010 0.534173
v -2.651851 8.951859 0.075824
v -2.651851 9.806152 0.075824
v 2.651850 9.806152 -0.737868
v 2.651850 8.951859 -0.737868
v -2.651850 9.806152 -0.737868
v -2.651850 8.951859 -0.737868
v 2.651851 8.951859 0.075824
v 2.651851 9.806152 0.075824
vn -0.0665 -0.9977 0.0132
vn 0.0665 -0.9977 0.0132
vn -0.0377 -0.9977 -0.0564
vn -0.0665 -0.9977 -0.0132
vn 0.0564 -0.9977 0.0377
vn -0.0564 -0.9977 -0.0377
vn -0.0564 -0.9977 0.0377
vn 0.1951 -0.0000 0.9808
vn 0.0377 -0.9977 0.0564
vn -0.1951 -0.0000 0.9808
vn 0.1779 0.4104 0.8944
vn -0.1779 0.4104 0.8944
vn -0.1779 0.4104 -0.8944
vn -0.5066 0.4104 0.7582
vn 0.1779 0.4104 -0.8944
vn 0.5066 0.4104 -0.7582
vn -0.7582 0.4104 0.5066
vn -0.8944 0.4104 0.1779
vn -0.5066 0.4104 -0.7582
vn 0.7582 0.4104 -0.5066
vn 0.7582 0.4104 0.5066
vn -0.7582 0.4104 -0.5066
vn 0.8944 0.4104 0.1779
vn 0.5066 0.4104 0.7582
vn -0.8944 0.4104 -0.1779
vn 0.8944 0.4104 -0.1779
vn 0.0665 -0.9977 -0.0132
vn -0.1951 -0.0000 -0.9808
vn 0.0564 -0.9977 -0.0377
vn -0.5556 -0.0000 0.8315
vn 0.1951 -0.0000 -0.9808
vn 0.5556 -0.0000 -0.8315
vn -0.0377 -0.9977 0.0564
vn -0.8315 -0.0000 0.5556
vn -0.0132 -0.9977 0.0665
vn 0.0377 -0.9977 -0.0564
vn 0.0132 -0.9977 0.0665
vn 0.0132 -0.9977 -0.0665
vn -0.0132 -0.9977 -0.0665
vn -0.5556 -0.0000 -0.8315
vn 0.8315 -0.0000 -0.5556
vn 0.8315 -0.0000 0.5556
vn -0.8315 -0.0000 -0.5556
vn 0.9808 -0.0000 0.1951
vn 0.5556 -0.0000 0.8315
vn -0.9808 -0.0000 -0.1951
vn 0.9808 -0.0000 -0.1951
vn -0.0000 -1.0000 -0.0000
vn -0.9808 -0.0000 0.1951
vn 0.9075 -0.3794 -0.1805
vn -0.9075 -0.3794 -0.1805
vn 0.5140 -0.3794 0.7693
vn 0.9075 -0.3794 0.1805
vn -0.7693 -0.3794 -0.5140
vn 0.7693 -0.3794 0.5140
vn 0.7693 -0.3794 -0.5140
vn -0.5140 -0.3794 -0.7693
vn 0.1951 -0.0065 0.9808
vn -0.1951 -0.0065 0.9808
vn -0.1951 -0.0065 -0.9808
vn -0.5556 -0.0065 0.8315
vn 0.1951 -0.0065 -0.9808
vn 0.5556 -0.0065 -0.8315
vn -0.8315 -0.0065 0.5556
vn -0.9808 -0.0065 0.1951
vn -0.5556 -0.0065 -0.8315
vn 0.8315 -0.0065 -0.5556
vn 0.8315 -0.0065 0.5556
vn -0.8315 -0.0065 -0.5556
vn 0.9808 -0.0065 0.1951
vn 0.5556 -0.0065 0.8315
vn -0.9808 -0.0065 -0.1951
vn 0.9808 -0.0065 -0.1951
vn -0.9075 -0.3794 0.1805
vn -0.7693 -0.3794 0.5140
vn 0.5140 -0.3794 -0.7693
vn 0.1805 -0.3794 -0.9075
vn -0.5140 -0.3794 0.7693
vn -0.1805 -0.3794 -0.9075
vn -0.1805 -0.3794 0.9075
vn 0.1805 -0.3794 0.9075
vn 0.1005 0.8570 0.5055
vn -0.6280 -0.7681 0.1249
vn -0.0972 0.8670 0.4888
vn -0.6280 -0.7681 -0.1249
vn 0.0972 0.8670 0.4888
vn -0.5324 -0.7681 -0.3557
vn 0.2769 0.8670 0.4144
vn -0.3557 -0.7681 -0.5324
vn 0.4144 0.8670 0.2769
vn -0.1249 -0.7681 -0.6280
vn 0.6280 -0.7681 0.1249
vn 0.4888 0.8670 -0.0972
vn 0.1249 -0.7681 -0.6280
vn 0.2863 0.8570 -0.4285
vn -0.4285 0.8570 -0.2863
vn 0.4285 0.8570 0.2863
vn -0.5055 0.8570 -0.1005
vn 0.5055 0.8570 0.1005
vn -0.2863 0.8570 -0.4285
vn 0.5055 0.8570 -0.1005
vn 0.1005 0.8570 -0.5055
vn -0.5055 0.8570 0.1005
vn 0.4285 0.8570 -0.2863
vn -0.2863 0.8570 0.4285
vn 0.2863 0.8570 0.4285
vn -0.1005 0.8570 0.5055
vn -0.1005 0.8570 -0.5055
vn -0.4285 0.8570 0.2863
vn -0.0000 1.0000 -0.0000
vn -0.2769 0.8670 0.4144
vn 0.8260 -0.0000 0.5637
vn -0.8260 -0.0000 0.5637
vn -0.8260 -0.0000 -0.5637
vn 0.8260 -0.0000 -0.5637
vn 0.4144 0.8670 -0.2769
vn 0.2769 0.8670 -0.4144
vn 0.0972 0.8670 -0.4888
vn -0.0972 0.8670 -0.4888
vn 0.4888 0.8670 0.0972
vn -0.2769 0.8670 -0.4144
vn 0.3557 -0.7681 0.5324
vn -0.4144 0.8670 -0.2769
vn 0.1249 -0.7681 0.6280
vn -0.4888 0.8670 -0.0972
vn -0.1249 -0.7681 0.6280
vn -0.4888 0.8670 0.0972
vn -0.3557 -0.7681 0.5324
vn -0.4144 0.8670 0.2769
vn -0.5324 -0.7681 0.3557
vn 0.8288 -0.0020 0.5596
vn -0.8288 0.0020 0.5596
vn -0.9811 0.0007 0.1934
vn -0.9811 0.0007 -0.1934
vn -0.8288 0.0020 -0.5596
vn 0.8288 0.0020 -0.5596
vn 0.9811 0.0007 -0.1934
vn 0.9811 0.0007 0.1934
vn 0.3557 -0.7681 -0.5324
vn 0.5324 -0.7681 -0.3557
vn 0.6280 -0.7681 -0.1249
vn 0.5324 -0.7681 0.3557
vn -0.8288 -0.0020 0.5596
vn -0.9811 -0.0007 0.1934
vn -0.9811 -0.0007 -0.1934
vn -0.8288 -0.0020 -0.5596
vn 0.8288 -0.0020 -0.5596
vn 0.9811 -0.0007 -0.1934
vn 0.9811 -0.0007 0.1934
vn 0.8288 0.0020 0.5596
vn 0.1918 -0.0000 -0.9814
vn -1.0000 -0.0000 -0.0000
vn -0.5949 0.8000 -0.0779
vn 0.5949 -0.8000 -0.0779
vn 1.0000 -0.0000 -0.0000
vn -0.1918 -0.0000 0.9814
vn -0.1918 -0.0000 -0.9814
vn 0.1918 -0.0000 0.9814
vn 0.5949 0.8000 0.0779
vn -0.5042 0.8636 -0.0000
vn -0.5949 -0.8000 -0.0779
vn -0.5949 0.8000 0.0779
vn 0.5949 -0.8000 0.0779
vn 0.5042 -0.8636 -0.0000
vn 0.5949 0.8000 -0.0779
vn -0.5949 -0.8000 0.0779
vn 0.6561 -0.0000 -0.7547
vn -0.6561 -0.0000 -0.7547
vn -0.6561 -0.0000 0.7547
vn 0.6561 -0.0000 0.7547
vn -0.5042 -0.8636 -0.0000
vn 0.5042 0.8636 -0.0000
s 0
usemtl Gween.002
f 16//1 54//1 37//1 17//1
f 27//2 61//2 62//2 28//2
f 23//3 41//3 42//3 7//3
f 15//4 53//4 54//4 16//4
f 1//5 34//5 61//5 27//5
f 7//6 42//6 53//6 15//6
f 17//7 37//7 38//7 3//7
f 131//8 147//8 56//8 32//8
f 11//9 33//9 34//9 1//9
f 135//10 131//10 32//10 35//10
f 32//11 56//11 19//11 4//11
f 35//12 32//12 4//12 6//12
f 47//13 64//13 24//13 12//13
f 51//14 35//14 6//14 14//14
f 48//15 47//15 12//15 13//15
f 59//16 48//16 13//16 25//16
f 52//17 51//17 14//17 18//17
f 30//18 52//18 18//18 2//18
f 64//19 63//19 20//19 24//19
f 60//20 59//20 25//20 26//20
f 55//21 40//21 31//21 36//21
f 63//22 44//22 43//22 20//22
f 40//23 39//23 8//23 31//23
f 56//24 55//24 36//24 19//24
f 44//25 30//25 2//25 43//25
f 39//26 60//26 26//26 8//26
f 28//27 62//27 45//27 29//27
f 137//28 133//28 64//28 47//28
f 29//29 45//29 46//29 5//29
f 145//30 135//30 35//30 51//30
f 141//31 137//31 47//31 48//31
f 138//32 141//32 48//32 59//32
f 3//33 38//33 49//33 9//33
f 142//34 145//34 51//34 52//34
f 9//35 49//35 50//35 10//35
f 5//36 46//36 57//36 21//36
f 10//37 50//37 33//37 11//37
f 21//38 57//38 58//38 22//38
f 22//39 58//39 41//39 23//39
f 133//40 149//40 63//40 64//40
f 150//41 138//41 59//41 60//41
f 154//42 153//42 40//42 55//42
f 149//43 157//43 44//43 63//43
f 153//44 159//44 39//44 40//44
f 147//45 154//45 55//45 56//45
f 157//46 161//46 30//46 44//46
f 159//47 150//47 60//47 39//47
f 33//48 50//48 65//48
f 161//49 142//49 52//49 30//49
f 65//48 50//48 49//48
f 49//48 38//48 65//48
f 38//48 37//48 65//48
f 37//48 54//48 65//48
f 54//48 53//48 65//48
f 53//48 42//48 65//48
f 42//48 41//48 65//48
f 41//48 58//48 65//48
f 58//48 57//48 65//48
f 57//48 46//48 65//48
f 46//48 45//48 65//48
f 45//48 62//48 65//48
f 62//48 61//48 65//48
f 61//48 34//48 65//48
f 34//48 33//48 65//48
f 81//50 119//50 102//50 82//50
f 92//51 126//51 127//51 93//51
f 88//52 106//52 107//52 72//52
f 80//53 118//53 119//53 81//53
f 66//54 99//54 126//54 92//54
f 72//55 107//55 118//55 80//55
f 82//56 102//56 103//56 68//56
f 87//8 88//8 121//8 97//8
f 76//57 98//57 99//57 66//57
f 86//10 87//10 97//10 100//10
f 97//58 121//58 84//58 69//58
f 100//59 97//59 69//59 71//59
f 112//60 129//60 89//60 77//60
f 116//61 100//61 71//61 79//61
f 113//62 112//62 77//62 78//62
f 124//63 113//63 78//63 90//63
f 117//64 116//64 79//64 83//64
f 95//65 117//65 83//65 67//65
f 129//66 128//66 85//66 89//66
f 125//67 124//67 90//67 91//67
f 120//68 105//68 96//68 101//68
f 128//69 109//69 108//69 85//69
f 105//70 104//70 73//70 96//70
f 121//71 120//71 101//71 84//71
f 109//72 95//72 67//72 108//72
f 104//73 125//73 91//73 73//73
f 93//74 127//74 110//74 94//74
f 75//28 76//28 129//28 112//28
f 94//75 110//75 111//75 70//75
f 70//30 86//30 100//30 116//30
f 74//31 75//31 112//31 113//31
f 68//32 74//32 113//32 124//32
f 68//76 103//76 114//76 74//76
f 94//34 70//34 116//34 117//34
f 74//77 114//77 115//77 75//77
f 70//78 111//78 122//78 86//78
f 75//79 115//79 98//79 76//79
f 86//80 122//80 123//80 87//80
f 87//81 123//81 106//81 88//81
f 76//40 66//40 128//40 129//40
f 82//41 68//41 124//41 125//41
f 72//42 80//42 105//42 120//42
f 66//43 92//43 109//43 128//43
f 80//44 81//44 104//44 105//44
f 88//45 72//45 120//45 121//45
f 92//46 93//46 95//46 109//46
f 69//82 84//82 203//82 208//82
f 81//47 82//47 125//47 104//47
f 127//83 252//83 253//83 110//83
f 93//49 94//49 117//49 95//49
f 6//84 4//84 271//84 270//84
f 126//85 251//85 252//85 127//85
f 4//86 19//86 272//86 271//86
f 250//87 251//87 126//87 99//87
f 19//88 36//88 273//88 272//88
f 249//89 250//89 99//89 98//89
f 36//90 31//90 274//90 273//90
f 98//91 115//91 248//91 249//91
f 243//92 244//92 119//92 118//92
f 8//93 26//93 260//93 259//93
f 115//94 114//94 247//94 248//94
f 90//95 78//95 199//95 200//95
f 85//96 108//96 207//96 205//96
f 101//97 96//97 194//97 196//97
f 108//98 67//98 206//98 207//98
f 96//99 73//99 195//99 194//99
f 89//100 85//100 205//100 198//100
f 73//101 91//101 204//101 195//101
f 78//102 77//102 197//102 199//102
f 67//103 83//103 201//103 206//103
f 91//104 90//104 200//104 204//104
f 79//105 71//105 209//105 202//105
f 84//106 101//106 196//106 203//106
f 71//107 69//107 208//107 209//107
f 77//108 89//108 198//108 197//108
f 83//109 79//109 202//109 201//109
f 28//49 29//49 143//49 160//49
f 159//48 153//48 185//48 191//48
f 16//47 17//47 151//47 158//47
f 140//110 136//110 168//110 172//110
f 27//46 28//46 160//46 156//46
f 152//110 158//110 190//110 184//110
f 23//45 7//45 155//45 146//45
f 141//48 138//48 170//48 173//48
f 15//44 16//44 158//44 152//44
f 154//48 147//48 179//48 186//48
f 1//43 27//43 156//43 148//43
f 139//110 140//110 172//110 171//110
f 7//42 15//42 152//42 155//42
f 146//110 155//110 187//110 178//110
f 17//41 3//41 139//41 151//41
f 145//48 142//48 174//48 177//48
f 11//40 1//40 148//40 132//40
f 161//48 157//48 189//48 193//48
f 29//34 5//34 144//34 143//34
f 143//110 144//110 176//110 175//110
f 3//32 9//32 140//32 139//32
f 147//48 131//48 163//48 179//48
f 9//31 10//31 136//31 140//31
f 156//110 160//110 192//110 188//110
f 5//30 21//30 134//30 144//30
f 149//48 133//48 165//48 181//48
f 10//28 11//28 132//28 136//28
f 130//110 146//110 178//110 162//110
f 21//10 22//10 130//10 134//10
f 150//48 159//48 191//48 182//48
f 22//8 23//8 146//8 130//8
f 132//110 148//110 180//110 164//110
f 192//49 175//49 174//49 193//49
f 190//47 183//47 182//47 191//47
f 188//46 192//46 193//46 189//46
f 178//45 187//45 186//45 179//45
f 184//44 190//44 191//44 185//44
f 180//43 188//43 189//43 181//43
f 187//42 184//42 185//42 186//42
f 183//41 171//41 170//41 182//41
f 164//40 180//40 181//40 165//40
f 175//34 176//34 177//34 174//34
f 171//32 172//32 173//32 170//32
f 172//31 168//31 169//31 173//31
f 176//30 166//30 167//30 177//30
f 168//28 164//28 165//28 169//28
f 166//10 162//10 163//10 167//10
f 162//8 178//8 179//8 163//8
f 137//48 141//48 173//48 169//48
f 148//110 156//110 188//110 180//110
f 144//110 134//110 166//110 176//110
f 157//48 149//48 181//48 189//48
f 135//48 145//48 177//48 167//48
f 155//110 152//110 184//110 187//110
f 136//110 132//110 164//110 168//110
f 153//48 154//48 186//48 185//48
f 160//110 143//110 175//110 192//110
f 133//48 137//48 169//48 165//48
f 151//110 139//110 171//110 183//110
f 142//48 161//48 193//48 174//48
f 134//110 130//110 162//110 166//110
f 138//48 150//48 182//48 170//48
f 158//110 151//110 183//110 190//110
f 131//48 135//48 167//48 163//48
f 194//110 210//110 196//110
f 196//110 210//110 203//110
f 203//110 210//110 208//110
f 208//110 210//110 209//110
f 209//110 210//110 202//110
f 202//110 210//110 201//110
f 201//110 210//110 206//110
f 206//110 210//110 207//110
f 207//110 210//110 205//110
f 205//110 210//110 198//110
f 198//110 210//110 197//110
f 197//110 210//110 199//110
f 199//110 210//110 200//110
f 200//110 210//110 204//110
f 204//110 210//110 195//110
f 195//110 210//110 194//110
f 14//111 6//111 270//111 269//111
f 236//112 231//112 232//112 242//112
f 231//45 229//45 230//45 232//45
f 229//8 227//8 228//8 230//8
f 227//10 225//10 226//10 228//10
f 225//30 223//30 224//30 226//30
f 223//113 235//113 239//113 224//113
f 233//114 220//114 221//114 237//114
f 220//40 218//40 219//40 221//40
f 218//28 216//28 217//28 219//28
f 216//31 214//31 215//31 217//31
f 214//32 212//32 213//32 215//32
f 212//115 234//115 241//115 213//115
f 260//116 26//116 25//116 261//116
f 25//117 13//117 262//117 261//117
f 13//118 12//118 263//118 262//118
f 12//119 24//119 264//119 263//119
f 274//120 31//120 8//120 259//120
f 264//121 24//121 20//121 265//121
f 106//122 257//122 258//122 107//122
f 20//123 43//123 266//123 265//123
f 123//124 256//124 257//124 106//124
f 43//125 2//125 267//125 266//125
f 122//126 255//126 256//126 123//126
f 2//127 18//127 268//127 267//127
f 111//128 254//128 255//128 122//128
f 18//129 14//129 269//129 268//129
f 110//130 253//130 254//130 111//130
f 240//48 241//48 300//48 286//48
f 237//48 238//48 284//48 302//48
f 242//131 232//131 273//131 274//131
f 229//45 231//45 258//45 257//45
f 227//8 229//8 257//8 256//8
f 225//10 227//10 256//10 255//10
f 223//30 225//30 255//30 254//30
f 235//132 223//132 254//132 253//132
f 222//133 235//133 253//133 252//133
f 233//134 222//134 252//134 251//134
f 220//135 233//135 251//135 250//135
f 218//40 220//40 250//40 249//40
f 216//28 218//28 249//28 248//28
f 214//31 216//31 248//31 247//31
f 212//32 214//32 247//32 246//32
f 234//136 212//136 246//136 245//136
f 211//137 234//137 245//137 244//137
f 236//138 211//138 244//138 243//138
f 114//139 103//139 246//139 247//139
f 102//140 245//140 246//140 103//140
f 119//141 244//141 245//141 102//141
f 118//142 107//142 258//142 243//142
f 232//45 230//45 272//45 273//45
f 230//8 228//8 271//8 272//8
f 228//10 226//10 270//10 271//10
f 226//30 224//30 269//30 270//30
f 224//143 239//143 268//143 269//143
f 239//144 238//144 267//144 268//144
f 238//145 237//145 266//145 267//145
f 237//146 221//146 265//146 266//146
f 221//40 219//40 264//40 265//40
f 219//28 217//28 263//28 264//28
f 217//31 215//31 262//31 263//31
f 215//32 213//32 261//32 262//32
f 213//147 241//147 260//147 261//147
f 241//148 240//148 259//148 260//148
f 240//149 242//149 274//149 259//149
f 231//150 236//150 243//150 258//150
f 233//151 237//151 302//151 301//151
f 234//110 211//110 285//110 299//110
f 293//152 294//152 287//152 288//152
f 283//153 301//153 311//153 295//153
f 286//154 300//154 310//154 298//154
f 291//155 292//155 290//155 289//155
f 235//110 222//110 283//110 303//110
f 236//156 242//156 305//156 306//156
f 241//157 234//157 299//157 300//157
f 211//110 236//110 306//110 285//110
f 238//48 239//48 304//48 284//48
f 242//48 240//48 286//48 305//48
f 222//110 233//110 301//110 283//110
f 239//158 235//158 303//158 304//158
f 312//152 296//152 295//152 311//152
f 307//152 308//152 295//152 296//152
f 313//155 298//155 297//155 314//155
f 310//155 309//155 297//155 298//155
f 285//159 306//159 314//159 297//159
f 281//160 293//160 288//160 276//160
f 302//161 284//161 296//161 312//161
f 303//162 283//162 295//162 308//162
f 305//163 286//163 298//163 313//163
f 279//164 291//164 289//164 277//164
f 299//165 285//165 297//165 309//165
f 284//166 304//166 307//166 296//166
f 275//167 276//167 300//167 299//167
f 278//168 277//168 301//168 302//168
f 279//169 280//169 304//169 303//169
f 281//170 282//170 306//170 305//170
f 280//169 292//169 307//169 304//169
f 291//169 279//169 303//169 308//169
f 288//167 287//167 309//167 310//167
f 289//168 290//168 312//168 311//168
f 292//169 291//169 308//169 307//169
f 294//170 293//170 313//170 314//170
f 276//167 288//167 310//167 300//167
f 277//168 289//168 311//168 301//168
f 293//170 281//170 305//170 313//170
f 282//170 294//170 314//170 306//170
f 287//167 275//167 299//167 309//167
f 290//168 278//168 302//168 312//168
f 294//171 282//171 275//171 287//171
f 282//155 281//155 276//155 275//155
f 292//172 280//172 278//172 290//172
f 280//152 279//152 277//152 278//152
