# Blender 5.2.0 LTS
# www.blender.org
mtllib BrainJar.mtl
o BrainJar
v -1.788635 -3.971416 -1.788633
v -2.345689 -2.293459 0.000001
v 1.788635 -3.971416 -1.788633
v -0.000000 -2.293459 2.345690
v -1.788635 -3.971416 1.788635
v -0.897656 -2.293459 2.167135
v 1.788635 -3.971416 1.788635
v 2.345689 -2.293459 0.000001
v 0.968002 -3.971416 -2.336962
v 0.000000 -3.971416 -2.529510
v -0.968002 -3.971416 -2.336962
v 0.000000 -2.293459 -2.345688
v 0.897656 -2.293459 -2.167133
v -1.658653 -2.293459 1.658653
v 2.336964 -3.971416 0.968003
v 2.529511 -3.971416 0.000001
v 2.336964 -3.971416 -0.968001
v -2.167134 -2.293459 0.897657
v 0.897656 -2.293459 2.167135
v -1.658653 -2.293459 -1.658651
v -0.968002 -3.971416 2.336964
v 0.000000 -3.971416 2.529512
v 0.968002 -3.971416 2.336964
v -0.897656 -2.293459 -2.167133
v 1.658653 -2.293459 -1.658651
v 2.167134 -2.293459 -0.897655
v -2.336964 -3.971416 -0.968001
v -2.529511 -3.971416 0.000001
v -2.336964 -3.971416 0.968003
v -2.529511 -2.694110 0.000001
v 2.167134 -2.293459 0.897657
v 0.000000 -2.694110 2.529512
v -0.874901 -3.955207 -2.112197
v -1.616607 -3.955207 -1.616606
v -0.968002 -2.694110 2.336964
v 1.658653 -2.293459 1.658653
v 2.112199 -3.955207 -0.874900
v 1.616607 -3.955207 -1.616606
v 2.529511 -2.694110 0.000001
v 2.336964 -2.694110 0.968003
v 0.874901 -3.955207 2.112199
v 1.616607 -3.955207 1.616607
v -2.167134 -2.293459 -0.897655
v -2.336964 -2.694110 -0.968001
v -2.112199 -3.955207 0.874902
v -1.616607 -3.955207 1.616608
v 0.000000 -2.694110 -2.529510
v 0.968002 -2.694110 -2.336962
v 0.874901 -3.955207 -2.112197
v 0.000000 -3.955207 -2.286226
v -1.788635 -2.694110 1.788635
v -2.336964 -2.694110 0.968003
v 2.112199 -3.955207 0.874902
v 2.286227 -3.955207 0.000001
v 1.788635 -2.694110 1.788635
v 0.968002 -2.694110 2.336964
v -0.874901 -3.955207 2.112199
v -0.000000 -3.955207 2.286228
v 1.788635 -2.694110 -1.788633
v 2.336964 -2.694110 -0.968001
v -2.112199 -3.955207 -0.874900
v -2.286227 -3.955207 0.000001
v -1.788635 -2.694110 -1.788633
v -0.968002 -2.694110 -2.336962
v 0.000000 -3.955207 0.000001
v -1.694370 3.760649 -1.694368
v -2.397709 4.430480 0.000001
v 1.694370 3.760649 -1.694369
v -0.000000 4.430480 2.397710
v -1.694370 3.760649 1.694371
v -0.917564 4.430480 2.215195
v 1.694370 3.760649 1.694370
v 2.397709 4.430480 0.000001
v 0.916986 3.760649 -2.213799
v 0.000000 3.760649 -2.396199
v -0.916986 3.760649 -2.213799
v 0.000000 4.430480 -2.397708
v 0.917564 4.430480 -2.215193
v -1.695436 4.430480 1.695437
v 2.213801 3.760649 0.916987
v 2.396201 3.760649 0.000001
v 2.213801 3.760649 -0.916985
v -2.215194 4.430480 0.917564
v 0.917564 4.430480 2.215195
v -1.695436 4.430480 -1.695435
v -0.916986 3.760649 2.213801
v 0.000000 3.760649 2.396201
v 0.916986 3.760649 2.213801
v -0.917564 4.430480 -2.215193
v 1.695436 4.430480 -1.695435
v 2.215194 4.430480 -0.917562
v -2.213801 3.760649 -0.916985
v -2.396201 3.760649 0.000001
v -2.213801 3.760649 0.916987
v -2.396201 4.203151 0.000001
v 2.215194 4.430480 0.917564
v 0.000000 4.203151 2.396201
v -0.874901 3.497616 -2.112197
v -1.616607 3.497616 -1.616606
v -0.916986 4.203151 2.213801
v 1.695436 4.430480 1.695437
v 2.112199 3.497616 -0.874900
v 1.616607 3.497616 -1.616606
v 2.396201 4.203151 0.000001
v 2.213801 4.203151 0.916987
v 0.874901 3.497616 2.112199
v 1.616607 3.497616 1.616607
v -2.215194 4.430480 -0.917562
v -2.213801 4.203151 -0.916985
v -2.112199 3.497616 0.874902
v -1.616607 3.497616 1.616608
v 0.000000 4.203151 -2.396199
v 0.916986 4.203151 -2.213799
v 0.874901 3.497616 -2.112197
v 0.000000 3.497616 -2.286226
v -1.694370 4.203151 1.694371
v -2.213801 4.203151 0.916987
v 2.112199 3.497616 0.874902
v 2.286227 3.497616 0.000001
v 1.694370 4.203151 1.694370
v 0.916986 4.203151 2.213801
v -0.874901 3.497616 2.112199
v -0.000000 3.497616 2.286228
v 1.694370 4.203151 -1.694369
v 2.213801 4.203151 -0.916985
v -2.112199 3.497616 -0.874900
v -2.286227 3.497616 0.000001
v -1.694370 4.203151 -1.694368
v -0.916986 4.203151 -2.213799
v 0.000000 -2.926219 2.529512
v 0.000000 -2.784418 2.529512
v -0.968002 -2.926219 -2.336962
v -0.968002 -2.784418 -2.336962
v -0.968002 -2.926219 2.336964
v -0.968002 -2.784418 2.336964
v 0.000000 -2.926219 -2.529510
v 0.000000 -2.784418 -2.529510
v 1.788635 -2.784418 -1.788633
v 1.788635 -2.926219 -1.788633
v 0.968002 -2.926219 -2.336962
v 0.968002 -2.784418 -2.336962
v -2.336964 -2.784418 0.968003
v -2.336964 -2.926219 0.968003
v -1.788635 -2.926219 1.788635
v -1.788635 -2.784418 1.788635
v 0.968002 -2.926219 2.336964
v 0.968002 -2.784418 2.336964
v -1.788635 -2.926219 -1.788633
v -1.788635 -2.784418 -1.788633
v 2.336964 -2.784418 -0.968001
v 2.336964 -2.926219 -0.968001
v 2.336964 -2.926219 0.968003
v 2.336964 -2.784418 0.968003
v 1.788635 -2.784418 1.788635
v 1.788635 -2.926219 1.788635
v -2.336964 -2.926219 -0.968001
v -2.336964 -2.784418 -0.968001
v 2.529511 -2.926219 0.000001
v 2.529511 -2.784418 0.000001
v -2.529511 -2.926219 0.000001
v -2.529511 -2.784418 0.000001
v 0.000000 -2.926219 2.341475
v 0.000000 -2.784418 2.341475
v -0.896043 -2.926219 -2.163239
v -0.896043 -2.784418 -2.163239
v -0.896043 -2.926219 2.163241
v -0.896043 -2.784418 2.163241
v 0.000000 -2.926219 -2.341473
v 0.000000 -2.784418 -2.341473
v 1.655672 -2.784418 -1.655671
v 1.655672 -2.926219 -1.655671
v 0.896043 -2.926219 -2.163239
v 0.896043 -2.784418 -2.163239
v -2.163240 -2.784418 0.896044
v -2.163240 -2.926219 0.896044
v -1.655672 -2.926219 1.655673
v -1.655672 -2.784418 1.655673
v 0.896043 -2.926219 2.163241
v 0.896043 -2.784418 2.163241
v -1.655673 -2.926219 -1.655671
v -1.655673 -2.784418 -1.655671
v 2.163240 -2.784418 -0.896042
v 2.163240 -2.926219 -0.896042
v 2.163240 -2.926219 0.896044
v 2.163240 -2.784418 0.896044
v 1.655673 -2.784418 1.655673
v 1.655673 -2.926219 1.655673
v -2.163240 -2.926219 -0.896042
v -2.163240 -2.784418 -0.896042
v 2.341475 -2.926219 0.000001
v 2.341475 -2.784418 0.000001
v -2.341475 -2.926219 0.000001
v -2.341475 -2.784418 0.000001
v 2.112199 4.496237 0.874902
v 2.286227 4.496237 0.000001
v 1.616607 4.496237 1.616607
v 0.000000 4.496237 -2.286226
v -0.874901 4.496237 -2.112197
v 0.874901 4.496237 -2.112197
v 1.616607 4.496237 -1.616606
v -2.112199 4.496237 0.874902
v -1.616607 4.496237 1.616608
v 0.874901 4.496237 2.112199
v 2.112199 4.496237 -0.874900
v -1.616607 4.496237 -1.616606
v -2.286227 4.496237 0.000001
v -2.112199 4.496237 -0.874900
v -0.000000 4.496237 2.286228
v -0.874901 4.496237 2.112199
v 0.000000 4.496237 0.000001
v 2.154094 1.337082 0.000001
v 1.523174 1.337082 -1.523173
v 1.523174 -0.132925 -1.523173
v 0.824336 1.337082 -1.990121
v 0.824336 -0.132925 -1.990121
v 0.000000 1.337082 -2.154092
v 0.000000 -0.132925 -2.154092
v -0.824336 1.337082 -1.990121
v -0.824336 -0.132925 -1.990121
v -1.523174 1.337082 -1.523173
v -1.523174 -0.132925 -1.523173
v -2.154094 1.337082 0.000001
v -1.523174 1.337082 1.523175
v -1.523174 -0.132925 1.523175
v -0.824336 1.337082 1.990123
v -0.824336 -0.132925 1.990123
v -0.000000 1.337082 2.154094
v -0.000000 -0.132925 2.154094
v 0.824336 1.337082 1.990123
v 0.824336 -0.132925 1.990123
v 1.523174 1.337082 1.523175
v 1.523174 -0.132925 1.523175
v -1.990123 1.337082 -0.838917
v 1.990123 1.337082 -0.838917
v -1.990123 1.337082 0.838901
v 1.990123 1.337083 0.838901
v -1.990123 -0.132925 -0.838917
v -2.154094 -0.132925 0.000001
v -1.990123 -0.132925 0.838901
v 2.154094 -0.132925 0.000001
v 1.990123 -0.132925 -0.838917
v 1.990123 -0.132925 0.838901
v 1.990123 3.389589 0.824337
v 2.154094 3.389588 0.000001
v 1.990123 3.389588 -0.824335
v 1.523174 3.389588 -1.523173
v 0.824336 3.389588 -1.990121
v 0.000000 3.389588 -2.154092
v -0.824336 3.389588 -1.990121
v -1.523174 3.389588 -1.523173
v -1.990123 3.389588 -0.824335
v -2.154094 3.389588 0.000001
v -1.990123 3.389588 0.824337
v -1.523174 3.389588 1.523175
v -0.824336 3.389588 1.990123
v -0.000000 3.389588 2.154094
v 0.824336 3.389588 1.990123
v 1.523174 3.389588 1.523175
v 2.154094 -2.185432 0.000001
v 1.990123 -2.185432 -0.824335
v 1.523174 -2.185432 -1.523173
v 0.824336 -2.185432 -1.990121
v 0.000000 -2.185432 -2.154092
v -0.824336 -2.185432 -1.990121
v -1.523174 -2.185432 -1.523173
v -1.990123 -2.185432 -0.824335
v -2.154094 -2.185432 0.000001
v -1.990123 -2.185432 0.824337
v -1.523174 -2.185432 1.523175
v -0.824336 -2.185432 1.990123
v -0.000000 -2.185432 2.154094
v 0.824336 -2.185432 1.990123
v 1.523174 -2.185432 1.523175
v 1.990123 -2.185432 0.824337
v 2.236261 1.110245 -0.768153
v 2.236261 0.093912 -0.768153
v -2.236261 1.110245 -0.768153
v -2.236261 0.093912 -0.768153
v -2.236262 1.110244 0.768139
v -2.236262 0.093912 0.768139
v 2.236262 0.093912 0.768139
v 2.236262 1.110244 0.768139
v -2.291142 1.337082 0.000001
v -2.291142 -0.132925 0.000001
v 2.291142 1.337082 0.000001
v 2.291142 -0.132925 0.000001
v 2.540215 0.932760 -0.503904
v 2.540215 0.271396 -0.503904
v -2.540215 0.932760 -0.503904
v -2.540215 0.271396 -0.503904
v -2.540214 0.932760 0.503894
v -2.540214 0.271396 0.503894
v 2.540214 0.271396 0.503894
v 2.540214 0.932760 0.503894
v -2.651850 1.029225 -0.000001
v -2.651850 0.174932 -0.000001
v 2.651850 1.029225 -0.000001
v 2.651850 0.174932 -0.000001
v 2.124626 1.337082 -0.865206
v 2.124626 -0.132925 -0.865206
v -2.124626 1.337082 -0.865206
v -2.124626 -0.132925 -0.865206
v -2.124626 1.337082 0.865191
v -2.124626 -0.132925 0.865191
v 2.124626 -0.132925 0.865191
v 2.124626 1.337083 0.865191
v -2.651851 0.174932 0.406842
v -2.651851 1.029225 0.406842
v 2.651850 1.029225 -0.406851
v 2.651850 0.174932 -0.406851
v -2.651850 1.029225 -0.406851
v -2.651850 0.174932 -0.406851
v 2.651851 0.174932 0.406842
v 2.651851 1.029225 0.406842
vn -0.0665 -0.9977 0.0132
vn 0.0665 -0.9977 0.0132
vn -0.0377 -0.9977 -0.0564
vn -0.0665 -0.9977 -0.0132
vn 0.0564 -0.9977 0.0377
vn -0.0564 -0.9977 -0.0377
vn -0.0564 -0.9977 0.0377
vn 0.1951 -0.0000 0.9808
vn 0.0377 -0.9977 0.0564
vn -0.1951 -0.0000 0.9808
vn 0.1779 0.4104 0.8944
vn -0.1779 0.4104 0.8944
vn -0.1779 0.4104 -0.8944
vn -0.5066 0.4104 0.7582
vn 0.1779 0.4104 -0.8944
vn 0.5066 0.4104 -0.7582
vn -0.7582 0.4104 0.5066
vn -0.8944 0.4104 0.1779
vn -0.5066 0.4104 -0.7582
vn 0.7582 0.4104 -0.5066
vn 0.7582 0.4104 0.5066
vn -0.7582 0.4104 -0.5066
vn 0.8944 0.4104 0.1779
vn 0.5066 0.4104 0.7582
vn -0.8944 0.4104 -0.1779
vn 0.8944 0.4104 -0.1779
vn 0.0665 -0.9977 -0.0132
vn -0.1951 -0.0000 -0.9808
vn 0.0564 -0.9977 -0.0377
vn -0.5556 -0.0000 0.8315
vn 0.1951 -0.0000 -0.9808
vn 0.5556 -0.0000 -0.8315
vn -0.0377 -0.9977 0.0564
vn -0.8315 -0.0000 0.5556
vn -0.0132 -0.9977 0.0665
vn 0.0377 -0.9977 -0.0564
vn 0.0132 -0.9977 0.0665
vn 0.0132 -0.9977 -0.0665
vn -0.0132 -0.9977 -0.0665
vn -0.5556 -0.0000 -0.8315
vn 0.8315 -0.0000 -0.5556
vn 0.8315 -0.0000 0.5556
vn -0.8315 -0.0000 -0.5556
vn 0.9808 -0.0000 0.1951
vn 0.5556 -0.0000 0.8315
vn -0.9808 -0.0000 -0.1951
vn 0.9808 -0.0000 -0.1951
vn -0.0000 -1.0000 -0.0000
vn -0.9808 -0.0000 0.1951
vn 0.9075 -0.3794 -0.1805
vn -0.9075 -0.3794 -0.1805
vn 0.5140 -0.3794 0.7693
vn 0.9075 -0.3794 0.1805
vn -0.7693 -0.3794 -0.5140
vn 0.7693 -0.3794 0.5140
vn 0.7693 -0.3794 -0.5140
vn -0.5140 -0.3794 -0.7693
vn 0.1951 -0.0065 0.9808
vn -0.1951 -0.0065 0.9808
vn -0.1951 -0.0065 -0.9808
vn -0.5556 -0.0065 0.8315
vn 0.1951 -0.0065 -0.9808
vn 0.5556 -0.0065 -0.8315
vn -0.8315 -0.0065 0.5556
vn -0.9808 -0.0065 0.1951
vn -0.5556 -0.0065 -0.8315
vn 0.8315 -0.0065 -0.5556
vn 0.8315 -0.0065 0.5556
vn -0.8315 -0.0065 -0.5556
vn 0.9808 -0.0065 0.1951
vn 0.5556 -0.0065 0.8315
vn -0.9808 -0.0065 -0.1951
vn 0.9808 -0.0065 -0.1951
vn -0.9075 -0.3794 0.1805
vn -0.7693 -0.3794 0.5140
vn 0.5140 -0.3794 -0.7693
vn 0.1805 -0.3794 -0.9075
vn -0.5140 -0.3794 0.7693
vn -0.1805 -0.3794 -0.9075
vn -0.1805 -0.3794 0.9075
vn 0.1805 -0.3794 0.9075
vn 0.1005 0.8570 0.5055
vn -0.6280 -0.7681 0.1249
vn -0.0972 0.8670 0.4888
vn -0.6280 -0.7681 -0.1249
vn 0.0972 0.8670 0.4888
vn -0.5324 -0.7681 -0.3557
vn 0.2769 0.8670 0.4144
vn -0.3557 -0.7681 -0.5324
vn 0.4144 0.8670 0.2769
vn -0.1249 -0.7681 -0.6280
vn 0.6280 -0.7681 0.1249
vn 0.4888 0.8670 -0.0972
vn 0.1249 -0.7681 -0.6280
vn 0.2863 0.8570 -0.4285
vn -0.4285 0.8570 -0.2863
vn 0.4285 0.8570 0.2863
vn -0.5055 0.8570 -0.1005
vn 0.5055 0.8570 0.1005
vn -0.2863 0.8570 -0.4285
vn 0.5055 0.8570 -0.1005
vn 0.1005 0.8570 -0.5055
vn -0.5055 0.8570 0.1005
vn 0.4285 0.8570 -0.2863
vn -0.2863 0.8570 0.4285
vn 0.2863 0.8570 0.4285
vn -0.1005 0.8570 0.5055
vn -0.1005 0.8570 -0.5055
vn -0.4285 0.8570 0.2863
vn -0.0000 1.0000 -0.0000
vn -0.2769 0.8670 0.4144
vn 0.8260 -0.0000 0.5637
vn -0.8260 -0.0000 0.5637
vn -0.8260 -0.0000 -0.5637
vn 0.8260 -0.0000 -0.5637
vn 0.4144 0.8670 -0.2769
vn 0.2769 0.8670 -0.4144
vn 0.0972 0.8670 -0.4888
vn -0.0972 0.8670 -0.4888
vn 0.4888 0.8670 0.0972
vn -0.2769 0.8670 -0.4144
vn 0.3557 -0.7681 0.5324
vn -0.4144 0.8670 -0.2769
vn 0.1249 -0.7681 0.6280
vn -0.4888 0.8670 -0.0972
vn -0.1249 -0.7681 0.6280
vn -0.4888 0.8670 0.0972
vn -0.3557 -0.7681 0.5324
vn -0.4144 0.8670 0.2769
vn -0.5324 -0.7681 0.3557
vn 0.8288 -0.0020 0.5596
vn -0.8288 0.0020 0.5596
vn -0.9811 0.0007 0.1934
vn -0.9811 0.0007 -0.1934
vn -0.8288 0.0020 -0.5596
vn 0.8288 0.0020 -0.5596
vn 0.9811 0.0007 -0.1934
vn 0.9811 0.0007 0.1934
vn 0.3557 -0.7681 -0.5324
vn 0.5324 -0.7681 -0.3557
vn 0.6280 -0.7681 -0.1249
vn 0.5324 -0.7681 0.3557
vn -0.8288 -0.0020 0.5596
vn -0.9811 -0.0007 0.1934
vn -0.9811 -0.0007 -0.1934
vn -0.8288 -0.0020 -0.5596
vn 0.8288 -0.0020 -0.5596
vn 0.9811 -0.0007 -0.1934
vn 0.9811 -0.0007 0.1934
vn 0.8288 0.0020 0.5596
vn 0.1918 -0.0000 -0.9814
vn -1.0000 -0.0000 -0.0000
vn -0.5949 0.8000 -0.0779
vn 0.5949 -0.8000 -0.0779
vn 1.0000 -0.0000 -0.0000
vn -0.1918 -0.0000 0.9814
vn -0.1918 -0.0000 -0.9814
vn 0.1918 -0.0000 0.9814
vn 0.5949 0.8000 0.0779
vn -0.5042 0.8636 -0.0000
vn -0.5949 -0.8000 -0.0779
vn -0.5949 0.8000 0.0779
vn 0.5949 -0.8000 0.0779
vn 0.5042 -0.8636 -0.0000
vn 0.5949 0.8000 -0.0779
vn -0.5949 -0.8000 0.0779
vn 0.6561 -0.0000 -0.7547
vn -0.6561 -0.0000 -0.7547
vn -0.6561 -0.0000 0.7547
vn 0.6561 -0.0000 0.7547
vn -0.5042 -0.8636 -0.0000
vn 0.5042 0.8636 -0.0000
vt 0.865299 0.182316
vt 0.863016 0.195423
vt 0.814366 0.196590
vt 0.811459 0.183607
vt 0.767714 0.434865
vt 0.774839 0.423629
vt 0.820232 0.441169
vt 0.817949 0.454276
vt 0.976312 0.288131
vt 0.963329 0.291038
vt 0.943633 0.246538
vt 0.954516 0.238885
vt 0.915533 0.201727
vt 0.908408 0.212963
vt 0.728732 0.397708
vt 0.739614 0.390054
vt 0.769865 0.216286
vt 0.762211 0.205403
vt 0.335440 0.168587
vt 0.375902 0.168587
vt 0.375902 0.174847
vt 0.335440 0.174847
vt 0.706936 0.348462
vt 0.719919 0.345555
vt 0.294977 0.168587
vt 0.294977 0.174847
vt 0.375902 0.205401
vt 0.335440 0.205401
vt 0.294977 0.205401
vt 0.016295 0.174847
vt 0.056758 0.174847
vt 0.056758 0.205401
vt 0.016295 0.205401
vt 0.254514 0.174847
vt 0.254514 0.205401
vt 0.614121 0.174847
vt 0.654584 0.174847
vt 0.654584 0.205401
vt 0.614121 0.205401
vt 0.573659 0.174847
vt 0.573659 0.205401
vt 0.214115 0.174847
vt 0.214115 0.205401
vt 0.175868 0.174847
vt 0.175868 0.205401
vt 0.097220 0.174847
vt 0.097220 0.205401
vt 0.533259 0.174847
vt 0.533259 0.205401
vt 0.416365 0.174847
vt 0.456765 0.174847
vt 0.456765 0.205401
vt 0.416365 0.205401
vt 0.137620 0.174847
vt 0.137620 0.205401
vt 0.495012 0.174847
vt 0.495012 0.205401
vt 0.868882 0.440002
vt 0.871789 0.452985
vt 0.016295 0.168587
vt 0.056758 0.168587
vt 0.913382 0.420306
vt 0.921037 0.431189
vt 0.254514 0.168587
vt 0.614121 0.168587
vt 0.654584 0.168587
vt 0.573659 0.168587
vt 0.736290 0.251514
vt 0.725052 0.244389
vt 0.214115 0.168587
vt 0.718750 0.296907
vt 0.705644 0.294625
vt 0.946957 0.385078
vt 0.958195 0.392203
vt 0.964498 0.339686
vt 0.977604 0.341967
vt 0.097220 0.168587
vt 0.533259 0.168587
vt 0.416365 0.168587
vt 0.456765 0.168587
vt 0.137620 0.168587
vt 0.495012 0.168587
vt 0.175868 0.168587
vt 0.841624 0.318296
vt 0.590968 0.630252
vt 0.590968 0.614118
vt 0.637121 0.614118
vt 0.637121 0.630252
vt 0.159710 0.630252
vt 0.159710 0.614118
vt 0.205862 0.614118
vt 0.205862 0.630252
vt 0.447241 0.630252
vt 0.447241 0.614118
vt 0.496066 0.614118
vt 0.496066 0.630252
vt 0.544816 0.630252
vt 0.544816 0.614118
vt 0.110960 0.630252
vt 0.110960 0.614118
vt 0.685870 0.614118
vt 0.685870 0.630252
vt 0.398415 0.630252
vt 0.447241 0.655294
vt 0.398415 0.655294
vt 0.062135 0.630252
vt 0.062135 0.614118
vt 0.349590 0.630252
vt 0.349590 0.655294
vt 0.447241 0.668159
vt 0.398415 0.668159
vt 0.349590 0.668159
vt 0.013309 0.655294
vt 0.062135 0.655294
vt 0.062135 0.668159
vt 0.013309 0.668159
vt 0.300764 0.655294
vt 0.300764 0.668159
vt 0.734696 0.655294
vt 0.783522 0.655294
vt 0.783522 0.668159
vt 0.734696 0.668159
vt 0.685870 0.655294
vt 0.685870 0.668159
vt 0.252014 0.655294
vt 0.252014 0.668159
vt 0.205862 0.655294
vt 0.205862 0.668159
vt 0.110960 0.655294
vt 0.110960 0.668159
vt 0.637121 0.655294
vt 0.637121 0.668159
vt 0.496066 0.655294
vt 0.544816 0.655294
vt 0.544816 0.668159
vt 0.496066 0.668159
vt 0.159710 0.655294
vt 0.159710 0.668159
vt 0.590968 0.655294
vt 0.590968 0.668159
vt 0.252015 0.614118
vt 0.252014 0.630252
vt 0.013309 0.630252
vt 0.300764 0.614118
vt 0.300764 0.630252
vt 0.734696 0.630252
vt 0.783522 0.630252
vt 0.734696 0.614118
vt 0.783522 0.614118
vt 0.349590 0.614118
vt 0.013309 0.614118
vt 0.398415 0.614118
vt 0.447241 0.675483
vt 0.398415 0.675483
vt 0.205862 0.604460
vt 0.252014 0.604460
vt 0.335440 0.220647
vt 0.294977 0.220647
vt 0.159710 0.604460
vt 0.375902 0.220647
vt 0.110960 0.604460
vt 0.416365 0.220647
vt 0.062135 0.604460
vt 0.456765 0.220647
vt 0.013309 0.604460
vt 0.544816 0.604460
vt 0.590968 0.604460
vt 0.533259 0.220647
vt 0.495012 0.220647
vt 0.734696 0.604460
vt 0.783522 0.604460
vt 0.734696 0.675483
vt 0.685870 0.675483
vt 0.159710 0.675483
vt 0.110960 0.675483
vt 0.544816 0.675483
vt 0.496066 0.675483
vt 0.205862 0.675483
vt 0.590968 0.675483
vt 0.062135 0.675483
vt 0.637121 0.675483
vt 0.783522 0.675483
vt 0.252014 0.675483
vt 0.349590 0.675483
vt 0.300764 0.675483
vt 0.013309 0.675483
vt 0.174932 0.011892
vt 0.213107 0.011892
vt 0.213107 0.088342
vt 0.174932 0.088342
vt 0.456765 0.155553
vt 0.495012 0.155553
vt 0.493476 0.011892
vt 0.531651 0.011892
vt 0.531651 0.088342
vt 0.493476 0.088342
vt 0.612362 0.088342
vt 0.652748 0.088342
vt 0.652748 0.102096
vt 0.612362 0.102096
vt 0.136757 0.011892
vt 0.136757 0.088342
vt 0.455301 0.088342
vt 0.493476 0.102096
vt 0.455301 0.102096
vt 0.374590 0.011892
vt 0.414977 0.011892
vt 0.414977 0.088342
vt 0.374590 0.088342
vt 0.573659 0.155553
vt 0.614121 0.155553
vt 0.455301 0.011892
vt 0.375902 0.155553
vt 0.416365 0.155553
vt 0.096433 0.011892
vt 0.096433 0.088342
vt 0.571975 0.088342
vt 0.571975 0.102096
vt 0.414977 0.102096
vt 0.374590 0.102096
vt 0.571975 0.011892
vt 0.214115 0.155553
vt 0.254514 0.155553
vt 0.056046 0.011892
vt 0.056046 0.088342
vt 0.137620 0.155553
vt 0.175868 0.155553
vt 0.253431 0.011892
vt 0.253431 0.088342
vt 0.253431 0.102096
vt 0.213107 0.102096
vt 0.612362 0.011892
vt 0.335440 0.155553
vt 0.652748 0.011892
vt 0.174932 0.102096
vt 0.136757 0.102096
vt 0.293817 0.011892
vt 0.293817 0.088342
vt 0.056758 0.155553
vt 0.097220 0.155553
vt 0.015660 0.011892
vt 0.015660 0.088342
vt 0.334204 0.088342
vt 0.334204 0.102096
vt 0.334204 0.011892
vt 0.533259 0.155553
vt 0.096433 0.102096
vt 0.056046 0.102096
vt 0.216748 0.123285
vt 0.265550 0.123285
vt 0.265550 0.130860
vt 0.216748 0.130860
vt 0.623964 0.123285
vt 0.672766 0.123285
vt 0.672766 0.130860
vt 0.623964 0.130860
vt 0.167946 0.123285
vt 0.167946 0.130860
vt 0.471985 0.123285
vt 0.523614 0.123285
vt 0.523614 0.130860
vt 0.471985 0.130860
vt 0.575162 0.123285
vt 0.575162 0.130860
vt 0.116398 0.123285
vt 0.116398 0.130860
vt 0.724315 0.123285
vt 0.724315 0.130860
vt 0.064769 0.123285
vt 0.064769 0.130860
vt 0.317099 0.123285
vt 0.317099 0.130860
vt 0.775943 0.123285
vt 0.775943 0.130860
vt 0.827572 0.123285
vt 0.827572 0.130860
vt 0.368727 0.123285
vt 0.368727 0.130860
vt 0.013140 0.123285
vt 0.013140 0.130860
vt 0.420356 0.123285
vt 0.420356 0.130860
vt 0.654584 0.155553
vt 0.293817 0.102096
vt 0.294977 0.155553
vt 0.015660 0.102096
vt 0.016295 0.155553
vt 0.531651 0.102096
vt 0.728529 0.886947
vt 0.843759 0.839218
vt 0.755565 0.927411
vt 0.796029 0.954447
vt 0.843759 0.963941
vt 0.891488 0.954447
vt 0.931952 0.927411
vt 0.958988 0.886947
vt 0.968483 0.839218
vt 0.958988 0.791488
vt 0.931952 0.751024
vt 0.891488 0.723988
vt 0.843759 0.714494
vt 0.796029 0.723988
vt 0.755565 0.751024
vt 0.728529 0.791488
vt 0.719035 0.839218
vt 0.254514 0.220647
vt 0.476659 0.455493
vt 0.434501 0.455492
vt 0.434462 0.371394
vt 0.476600 0.371395
vt 0.392277 0.455492
vt 0.392258 0.371394
vt 0.350054 0.455491
vt 0.350053 0.371393
vt 0.307830 0.455491
vt 0.307849 0.371393
vt 0.265606 0.455491
vt 0.265645 0.371392
vt 0.223448 0.455490
vt 0.223507 0.371391
vt 0.143624 0.455490
vt 0.101466 0.455489
vt 0.101581 0.371389
vt 0.143720 0.371390
vt 0.059242 0.455489
vt 0.059377 0.371389
vt 0.017019 0.455488
vt 0.017173 0.371388
vt 0.683089 0.455494
vt 0.640865 0.455494
vt 0.640730 0.371398
vt 0.682934 0.371398
vt 0.598641 0.455494
vt 0.598526 0.371397
vt 0.556483 0.455493
vt 0.556387 0.371396
vt 0.573659 0.220647
vt 0.614121 0.220647
vt 0.654584 0.220647
vt 0.056758 0.220647
vt 0.016295 0.220647
vt 0.097220 0.220647
vt 0.447241 0.604460
vt 0.496066 0.604460
vt 0.137620 0.220647
vt 0.398415 0.604460
vt 0.175868 0.220647
vt 0.349590 0.604460
vt 0.214115 0.220647
vt 0.300764 0.604460
vt 0.428425 0.723724
vt 0.474217 0.715555
vt 0.475527 0.722897
vt 0.428429 0.731151
vt 0.262731 0.715605
vt 0.308533 0.723724
vt 0.308537 0.731151
vt 0.261429 0.722948
vt 0.434403 0.246991
vt 0.476513 0.246992
vt 0.434559 0.579895
vt 0.392307 0.579895
vt 0.350054 0.579895
vt 0.307801 0.579895
vt 0.265549 0.579895
vt 0.223362 0.579895
vt 0.183536 0.455490
vt 0.183423 0.579895
vt 0.143483 0.579895
vt 0.101296 0.579895
vt 0.059044 0.579895
vt 0.016791 0.579895
vt 0.683317 0.579895
vt 0.641064 0.579895
vt 0.598812 0.579895
vt 0.556625 0.579895
vt 0.516571 0.455493
vt 0.516685 0.579895
vt 0.476746 0.579895
vt 0.685870 0.604460
vt 0.637121 0.604460
vt 0.392228 0.246990
vt 0.350053 0.246989
vt 0.307878 0.246988
vt 0.265703 0.246987
vt 0.223593 0.246986
vt 0.183613 0.371391
vt 0.183727 0.246985
vt 0.143861 0.246984
vt 0.101752 0.246983
vt 0.059576 0.246982
vt 0.017173 0.371388
vt 0.017401 0.246981
vt 0.682934 0.371398
vt 0.640530 0.246996
vt 0.682705 0.246997
vt 0.598354 0.246995
vt 0.556245 0.246994
vt 0.516494 0.371396
vt 0.516379 0.246993
vt 0.582405 0.968167
vt 0.582405 0.887972
vt 0.589882 0.887972
vt 0.589882 0.968167
vt 0.474347 0.844672
vt 0.428486 0.836544
vt 0.428482 0.829108
vt 0.475649 0.837319
vt 0.619829 0.770455
vt 0.619829 0.734375
vt 0.674809 0.734375
vt 0.674809 0.770455
vt 0.308589 0.829108
vt 0.261431 0.837370
vt 0.286264 0.803581
vt 0.308576 0.803479
vt 0.450728 0.756643
vt 0.428443 0.756750
vt 0.571662 0.734375
vt 0.571662 0.770456
vt 0.516682 0.770455
vt 0.516682 0.734375
vt 0.354453 0.844672
vt 0.308594 0.836544
vt 0.355756 0.837319
vt 0.399973 0.968167
vt 0.399973 0.887972
vt 0.407449 0.887972
vt 0.407449 0.968167
vt 0.556699 0.887972
vt 0.556699 0.968167
vt 0.549222 0.968167
vt 0.549223 0.887972
vt 0.382635 0.844721
vt 0.381324 0.837370
vt 0.354324 0.715555
vt 0.355634 0.722897
vt 0.382624 0.715604
vt 0.381323 0.722948
vt 0.262742 0.844721
vt 0.378029 0.887972
vt 0.378029 0.968167
vt 0.370552 0.968167
vt 0.370552 0.887972
vt 0.286265 0.756667
vt 0.308550 0.756750
vt 0.330836 0.756643
vt 0.330887 0.803557
vt 0.406157 0.756667
vt 0.428468 0.803479
vt 0.406156 0.803581
vt 0.450780 0.803557
vt 0.605413 0.789658
vt 0.689225 0.789657
vt 0.586078 0.715173
vt 0.502266 0.715173
vt 0.541152 0.955792
vt 0.541153 0.900347
vt 0.597952 0.900347
vt 0.597952 0.955792
vt 0.362482 0.955792
vt 0.362482 0.900347
vt 0.415519 0.900347
vt 0.415519 0.955792
vt 0.340510 0.910029
vt 0.332440 0.904767
vt 0.340510 0.946110
vt 0.332440 0.951372
vt 0.519180 0.910029
vt 0.519180 0.946109
vt 0.511110 0.951372
vt 0.511110 0.904767
vt 0.619924 0.946110
vt 0.619924 0.910029
vt 0.627994 0.904767
vt 0.627994 0.951372
vt 0.437491 0.946110
vt 0.437491 0.910029
vt 0.445561 0.904767
vt 0.445561 0.951372
vt 0.605413 0.715173
vt 0.689224 0.715173
vt 0.605413 0.845103
vt 0.689225 0.845103
vt 0.586077 0.789658
vt 0.502266 0.789657
vt 0.586077 0.845103
vt 0.502265 0.845103
s 0
usemtl Gween.002
f 16/1/1 54/2/1 37/3/1 17/4/1
f 27/5/2 61/6/2 62/7/2 28/8/2
f 23/9/3 41/10/3 42/11/3 7/12/3
f 15/13/4 53/14/4 54/2/4 16/1/4
f 1/15/5 34/16/5 61/6/5 27/5/5
f 7/12/6 42/11/6 53/14/6 15/13/6
f 17/4/7 37/3/7 38/17/7 3/18/7
f 131/19/8 147/20/8 56/21/8 32/22/8
f 11/23/9 33/24/9 34/16/9 1/15/9
f 135/25/10 131/19/10 32/22/10 35/26/10
f 32/22/11 56/21/11 19/27/11 4/28/11
f 35/26/12 32/22/12 4/28/12 6/29/12
f 47/30/13 64/31/13 24/32/13 12/33/13
f 51/34/14 35/26/14 6/29/14 14/35/14
f 48/36/15 47/37/15 12/38/15 13/39/15
f 59/40/16 48/36/16 13/39/16 25/41/16
f 52/42/17 51/34/17 14/35/17 18/43/17
f 30/44/18 52/42/18 18/43/18 2/45/18
f 64/31/19 63/46/19 20/47/19 24/32/19
f 60/48/20 59/40/20 25/41/20 26/49/20
f 55/50/21 40/51/21 31/52/21 36/53/21
f 63/46/22 44/54/22 43/55/22 20/47/22
f 40/51/23 39/56/23 8/57/23 31/52/23
f 56/21/24 55/50/24 36/53/24 19/27/24
f 44/54/25 30/44/25 2/45/25 43/55/25
f 39/56/26 60/48/26 26/49/26 8/57/26
f 28/8/27 62/7/27 45/58/27 29/59/27
f 137/60/28 133/61/28 64/31/28 47/30/28
f 29/59/29 45/58/29 46/62/29 5/63/29
f 145/64/30 135/25/30 35/26/30 51/34/30
f 141/65/31 137/66/31 47/37/31 48/36/31
f 138/67/32 141/65/32 48/36/32 59/40/32
f 3/18/33 38/17/33 49/68/33 9/69/33
f 142/70/34 145/64/34 51/34/34 52/42/34
f 9/69/35 49/68/35 50/71/35 10/72/35
f 5/63/36 46/62/36 57/73/36 21/74/36
f 10/72/37 50/71/37 33/24/37 11/23/37
f 21/74/38 57/73/38 58/75/38 22/76/38
f 22/76/39 58/75/39 41/10/39 23/9/39
f 133/61/40 149/77/40 63/46/40 64/31/40
f 150/78/41 138/67/41 59/40/41 60/48/41
f 154/79/42 153/80/42 40/51/42 55/50/42
f 149/77/43 157/81/43 44/54/43 63/46/43
f 153/80/44 159/82/44 39/56/44 40/51/44
f 147/20/45 154/79/45 55/50/45 56/21/45
f 157/81/46 161/83/46 30/44/46 44/54/46
f 159/82/47 150/78/47 60/48/47 39/56/47
f 33/24/48 50/71/48 65/84/48
f 161/83/49 142/70/49 52/42/49 30/44/49
f 65/84/48 50/71/48 49/68/48
f 49/68/48 38/17/48 65/84/48
f 38/17/48 37/3/48 65/84/48
f 37/3/48 54/2/48 65/84/48
f 54/2/48 53/14/48 65/84/48
f 53/14/48 42/11/48 65/84/48
f 42/11/48 41/10/48 65/84/48
f 41/10/48 58/75/48 65/84/48
f 58/75/48 57/73/48 65/84/48
f 57/73/48 46/62/48 65/84/48
f 46/62/48 45/58/48 65/84/48
f 45/58/48 62/7/48 65/84/48
f 62/7/48 61/6/48 65/84/48
f 61/6/48 34/16/48 65/84/48
f 34/16/48 33/24/48 65/84/48
f 81/85/50 119/86/50 102/87/50 82/88/50
f 92/89/51 126/90/51 127/91/51 93/92/51
f 88/93/52 106/94/52 107/95/52 72/96/52
f 80/97/53 118/98/53 119/86/53 81/85/53
f 66/99/54 99/100/54 126/90/54 92/89/54
f 72/96/55 107/95/55 118/98/55 80/97/55
f 82/88/56 102/87/56 103/101/56 68/102/56
f 87/103/8 88/93/8 121/104/8 97/105/8
f 76/106/57 98/107/57 99/100/57 66/99/57
f 86/108/10 87/103/10 97/105/10 100/109/10
f 97/105/58 121/104/58 84/110/58 69/111/58
f 100/109/59 97/105/59 69/111/59 71/112/59
f 112/113/60 129/114/60 89/115/60 77/116/60
f 116/117/61 100/109/61 71/112/61 79/118/61
f 113/119/62 112/120/62 77/121/62 78/122/62
f 124/123/63 113/119/63 78/122/63 90/124/63
f 117/125/64 116/117/64 79/118/64 83/126/64
f 95/127/65 117/125/65 83/126/65 67/128/65
f 129/114/66 128/129/66 85/130/66 89/115/66
f 125/131/67 124/123/67 90/124/67 91/132/67
f 120/133/68 105/134/68 96/135/68 101/136/68
f 128/129/69 109/137/69 108/138/69 85/130/69
f 105/134/70 104/139/70 73/140/70 96/135/70
f 121/104/71 120/133/71 101/136/71 84/110/71
f 109/137/72 95/127/72 67/128/72 108/138/72
f 104/139/73 125/131/73 91/132/73 73/140/73
f 93/92/74 127/91/74 110/141/74 94/142/74
f 75/143/28 76/106/28 129/114/28 112/113/28
f 94/142/75 110/141/75 111/144/75 70/145/75
f 70/145/30 86/108/30 100/109/30 116/117/30
f 74/146/31 75/147/31 112/120/31 113/119/31
f 68/102/32 74/146/32 113/119/32 124/123/32
f 68/102/76 103/101/76 114/148/76 74/146/76
f 94/142/34 70/145/34 116/117/34 117/125/34
f 74/146/77 114/148/77 115/149/77 75/147/77
f 70/145/78 111/144/78 122/150/78 86/108/78
f 75/143/79 115/151/79 98/107/79 76/106/79
f 86/108/80 122/150/80 123/152/80 87/103/80
f 87/103/81 123/152/81 106/94/81 88/93/81
f 76/106/40 66/99/40 128/129/40 129/114/40
f 82/88/41 68/102/41 124/123/41 125/131/41
f 72/96/42 80/97/42 105/134/42 120/133/42
f 66/99/43 92/89/43 109/137/43 128/129/43
f 80/97/44 81/85/44 104/139/44 105/134/44
f 88/93/45 72/96/45 120/133/45 121/104/45
f 92/89/46 93/92/46 95/127/46 109/137/46
f 69/111/82 84/110/82 203/153/82 208/154/82
f 81/85/47 82/88/47 125/131/47 104/139/47
f 127/91/83 252/155/83 253/156/83 110/141/83
f 93/92/49 94/142/49 117/125/49 95/127/49
f 6/29/84 4/28/84 271/157/84 270/158/84
f 126/90/85 251/159/85 252/155/85 127/91/85
f 4/28/86 19/27/86 272/160/86 271/157/86
f 250/161/87 251/159/87 126/90/87 99/100/87
f 19/27/88 36/53/88 273/162/88 272/160/88
f 249/163/89 250/161/89 99/100/89 98/107/89
f 36/53/90 31/52/90 274/164/90 273/162/90
f 98/107/91 115/151/91 248/165/91 249/163/91
f 243/166/92 244/167/92 119/86/92 118/98/92
f 8/57/93 26/49/93 260/168/93 259/169/93
f 115/149/94 114/148/94 247/170/94 248/171/94
f 90/124/95 78/122/95 199/172/95 200/173/95
f 85/130/96 108/138/96 207/174/96 205/175/96
f 101/136/97 96/135/97 194/176/97 196/177/97
f 108/138/98 67/128/98 206/178/98 207/174/98
f 96/135/99 73/140/99 195/179/99 194/176/99
f 89/115/100 85/130/100 205/175/100 198/180/100
f 73/140/101 91/132/101 204/181/101 195/179/101
f 78/122/102 77/121/102 197/182/102 199/172/102
f 67/128/103 83/126/103 201/183/103 206/178/103
f 91/132/104 90/124/104 200/173/104 204/181/104
f 79/118/105 71/112/105 209/184/105 202/185/105
f 84/110/106 101/136/106 196/177/106 203/153/106
f 71/112/107 69/111/107 208/154/107 209/184/107
f 77/116/108 89/115/108 198/180/108 197/186/108
f 83/126/109 79/118/109 202/185/109 201/183/109
f 28/187/49 29/188/49 143/189/49 160/190/49
f 159/82/48 153/80/48 185/191/48 191/192/48
f 16/193/47 17/194/47 151/195/47 158/196/47
f 140/197/110 136/198/110 168/199/110 172/200/110
f 27/201/46 28/187/46 160/190/46 156/202/46
f 152/203/110 158/196/110 190/204/110 184/205/110
f 23/206/45 7/207/45 155/208/45 146/209/45
f 141/65/48 138/67/48 170/210/48 173/211/48
f 15/212/44 16/193/44 158/196/44 152/203/44
f 154/79/48 147/20/48 179/213/48 186/214/48
f 1/215/43 27/201/43 156/202/43 148/216/43
f 139/217/110 140/197/110 172/200/110 171/218/110
f 7/207/42 15/212/42 152/203/42 155/208/42
f 146/209/110 155/208/110 187/219/110 178/220/110
f 17/194/41 3/221/41 139/217/41 151/195/41
f 145/64/48 142/70/48 174/222/48 177/223/48
f 11/224/40 1/215/40 148/216/40 132/225/40
f 161/83/48 157/81/48 189/226/48 193/227/48
f 29/188/34 5/228/34 144/229/34 143/189/34
f 143/189/110 144/229/110 176/230/110 175/231/110
f 3/221/32 9/232/32 140/197/32 139/217/32
f 147/20/48 131/19/48 163/233/48 179/213/48
f 9/232/31 10/234/31 136/198/31 140/197/31
f 156/202/110 160/190/110 192/235/110 188/236/110
f 5/228/30 21/237/30 134/238/30 144/229/30
f 149/77/48 133/61/48 165/239/48 181/240/48
f 10/241/28 11/224/28 132/225/28 136/242/28
f 130/243/110 146/209/110 178/220/110 162/244/110
f 21/237/10 22/245/10 130/243/10 134/238/10
f 150/78/48 159/82/48 191/192/48 182/246/48
f 22/245/8 23/206/8 146/209/8 130/243/8
f 132/225/110 148/216/110 180/247/110 164/248/110
f 192/249/49 175/250/49 174/251/49 193/252/49
f 190/253/47 183/254/47 182/255/47 191/256/47
f 188/257/46 192/249/46 193/252/46 189/258/46
f 178/259/45 187/260/45 186/261/45 179/262/45
f 184/263/44 190/253/44 191/256/44 185/264/44
f 180/265/43 188/257/43 189/258/43 181/266/43
f 187/260/42 184/263/42 185/264/42 186/261/42
f 183/254/41 171/267/41 170/268/41 182/255/41
f 164/269/40 180/265/40 181/266/40 165/270/40
f 175/250/34 176/271/34 177/272/34 174/251/34
f 171/267/32 172/273/32 173/274/32 170/268/32
f 172/273/31 168/275/31 169/276/31 173/274/31
f 176/271/30 166/277/30 167/278/30 177/272/30
f 168/279/28 164/269/28 165/270/28 169/280/28
f 166/277/10 162/281/10 163/282/10 167/278/10
f 162/281/8 178/259/8 179/262/8 163/282/8
f 137/66/48 141/65/48 173/211/48 169/283/48
f 148/216/110 156/202/110 188/236/110 180/247/110
f 144/229/110 134/238/110 166/284/110 176/230/110
f 157/81/48 149/77/48 181/240/48 189/226/48
f 135/25/48 145/64/48 177/223/48 167/285/48
f 155/208/110 152/203/110 184/205/110 187/219/110
f 136/242/110 132/225/110 164/248/110 168/286/110
f 153/80/48 154/79/48 186/214/48 185/191/48
f 160/190/110 143/189/110 175/231/110 192/235/110
f 133/61/48 137/60/48 169/287/48 165/239/48
f 151/195/110 139/217/110 171/218/110 183/288/110
f 142/70/48 161/83/48 193/227/48 174/222/48
f 134/238/110 130/243/110 162/244/110 166/284/110
f 138/67/48 150/78/48 182/246/48 170/210/48
f 158/196/110 151/195/110 183/288/110 190/204/110
f 131/19/48 135/25/48 167/285/48 163/233/48
f 194/289/110 210/290/110 196/291/110
f 196/291/110 210/290/110 203/292/110
f 203/292/110 210/290/110 208/293/110
f 208/293/110 210/290/110 209/294/110
f 209/294/110 210/290/110 202/295/110
f 202/295/110 210/290/110 201/296/110
f 201/296/110 210/290/110 206/297/110
f 206/297/110 210/290/110 207/298/110
f 207/298/110 210/290/110 205/299/110
f 205/299/110 210/290/110 198/300/110
f 198/300/110 210/290/110 197/301/110
f 197/301/110 210/290/110 199/302/110
f 199/302/110 210/290/110 200/303/110
f 200/303/110 210/290/110 204/304/110
f 204/304/110 210/290/110 195/305/110
f 195/305/110 210/290/110 194/289/110
f 14/35/111 6/29/111 270/158/111 269/306/111
f 236/307/112 231/308/112 232/309/112 242/310/112
f 231/308/45 229/311/45 230/312/45 232/309/45
f 229/311/8 227/313/8 228/314/8 230/312/8
f 227/313/10 225/315/10 226/316/10 228/314/10
f 225/315/30 223/317/30 224/318/30 226/316/30
f 223/317/113 235/319/113 239/320/113 224/318/113
f 233/321/114 220/322/114 221/323/114 237/324/114
f 220/322/40 218/325/40 219/326/40 221/323/40
f 218/325/28 216/327/28 217/328/28 219/326/28
f 216/329/31 214/330/31 215/331/31 217/332/31
f 214/330/32 212/333/32 213/334/32 215/331/32
f 212/333/115 234/335/115 241/336/115 213/334/115
f 260/168/116 26/49/116 25/41/116 261/337/116
f 25/41/117 13/39/117 262/338/117 261/337/117
f 13/39/118 12/38/118 263/339/118 262/338/118
f 12/33/119 24/32/119 264/340/119 263/341/119
f 274/164/120 31/52/120 8/57/120 259/169/120
f 264/340/121 24/32/121 20/47/121 265/342/121
f 106/94/122 257/343/122 258/344/122 107/95/122
f 20/47/123 43/55/123 266/345/123 265/342/123
f 123/152/124 256/346/124 257/343/124 106/94/124
f 43/55/125 2/45/125 267/347/125 266/345/125
f 122/150/126 255/348/126 256/346/126 123/152/126
f 2/45/127 18/43/127 268/349/127 267/347/127
f 111/144/128 254/350/128 255/348/128 122/150/128
f 18/43/129 14/35/129 269/306/129 268/349/129
f 110/141/130 253/156/130 254/350/130 111/144/130
f 240/351/48 241/352/48 300/353/48 286/354/48
f 237/355/48 238/356/48 284/357/48 302/358/48
f 242/310/131 232/309/131 273/359/131 274/360/131
f 229/311/45 231/308/45 258/361/45 257/362/45
f 227/313/8 229/311/8 257/362/8 256/363/8
f 225/315/10 227/313/10 256/363/10 255/364/10
f 223/317/30 225/315/30 255/364/30 254/365/30
f 235/319/132 223/317/132 254/365/132 253/366/132
f 222/367/133 235/319/133 253/366/133 252/368/133
f 233/321/134 222/367/134 252/368/134 251/369/134
f 220/322/135 233/321/135 251/369/135 250/370/135
f 218/325/40 220/322/40 250/370/40 249/371/40
f 216/327/28 218/325/28 249/371/28 248/372/28
f 214/330/31 216/329/31 248/373/31 247/374/31
f 212/333/32 214/330/32 247/374/32 246/375/32
f 234/335/136 212/333/136 246/375/136 245/376/136
f 211/377/137 234/335/137 245/376/137 244/378/137
f 236/307/138 211/377/138 244/378/138 243/379/138
f 114/148/139 103/101/139 246/380/139 247/170/139
f 102/87/140 245/381/140 246/380/140 103/101/140
f 119/86/141 244/167/141 245/381/141 102/87/141
f 118/98/142 107/95/142 258/344/142 243/166/142
f 232/309/45 230/312/45 272/382/45 273/359/45
f 230/312/8 228/314/8 271/383/8 272/382/8
f 228/314/10 226/316/10 270/384/10 271/383/10
f 226/316/30 224/318/30 269/385/30 270/384/30
f 224/318/143 239/320/143 268/386/143 269/385/143
f 239/320/144 238/387/144 267/388/144 268/386/144
f 238/387/145 237/324/145 266/389/145 267/388/145
f 237/324/146 221/323/146 265/390/146 266/389/146
f 221/323/40 219/326/40 264/391/40 265/390/40
f 219/326/28 217/392/28 263/393/28 264/391/28
f 217/394/31 215/331/31 262/395/31 263/396/31
f 215/331/32 213/334/32 261/397/32 262/395/32
f 213/334/147 241/336/147 260/398/147 261/397/147
f 241/336/148 240/399/148 259/400/148 260/398/148
f 240/399/149 242/310/149 274/360/149 259/400/149
f 231/308/150 236/307/150 243/379/150 258/361/150
f 233/401/151 237/402/151 302/403/151 301/404/151
f 234/405/110 211/406/110 285/407/110 299/408/110
f 293/409/152 294/410/152 287/411/152 288/412/152
f 283/413/153 301/414/153 311/415/153 295/416/153
f 286/354/154 300/353/154 310/417/154 298/418/154
f 291/419/155 292/420/155 290/421/155 289/422/155
f 235/423/110 222/424/110 283/413/110 303/425/110
f 236/426/156 242/427/156 305/428/156 306/429/156
f 241/430/157 234/431/157 299/432/157 300/433/157
f 211/406/110 236/434/110 306/435/110 285/407/110
f 238/356/48 239/436/48 304/437/48 284/357/48
f 242/438/48 240/351/48 286/354/48 305/439/48
f 222/424/110 233/440/110 301/414/110 283/413/110
f 239/441/158 235/442/158 303/443/158 304/444/158
f 312/445/152 296/446/152 295/416/152 311/415/152
f 307/447/152 308/448/152 295/416/152 296/446/152
f 313/449/155 298/418/155 297/450/155 314/451/155
f 310/417/155 309/452/155 297/450/155 298/418/155
f 285/407/159 306/435/159 314/451/159 297/450/159
f 281/453/160 293/409/160 288/412/160 276/454/160
f 302/358/161 284/357/161 296/446/161 312/445/161
f 303/425/162 283/413/162 295/416/162 308/448/162
f 305/439/163 286/354/163 298/418/163 313/449/163
f 279/455/164 291/419/164 289/422/164 277/456/164
f 299/408/165 285/407/165 297/450/165 309/452/165
f 284/357/166 304/437/166 307/447/166 296/446/166
f 275/457/167 276/458/167 300/433/167 299/432/167
f 278/459/168 277/460/168 301/404/168 302/403/168
f 279/461/169 280/462/169 304/444/169 303/443/169
f 281/463/170 282/464/170 306/429/170 305/428/170
f 280/462/169 292/465/169 307/466/169 304/444/169
f 291/467/169 279/461/169 303/443/169 308/468/169
f 288/469/167 287/470/167 309/471/167 310/472/167
f 289/473/168 290/474/168 312/475/168 311/476/168
f 292/465/169 291/467/169 308/468/169 307/466/169
f 294/477/170 293/478/170 313/479/170 314/480/170
f 276/458/167 288/469/167 310/472/167 300/433/167
f 277/460/168 289/473/168 311/476/168 301/404/168
f 293/478/170 281/463/170 305/428/170 313/479/170
f 282/464/170 294/477/170 314/480/170 306/429/170
f 287/470/167 275/457/167 299/432/167 309/471/167
f 290/474/168 278/459/168 302/403/168 312/475/168
f 294/410/171 282/481/171 275/482/171 287/411/171
f 282/483/155 281/453/155 276/454/155 275/484/155
f 292/420/172 280/485/172 278/486/172 290/421/172
f 280/485/152 279/487/152 277/488/152 278/486/152
