# Blender 5.1.2
# www.blender.org
mtllib PrisonCellLock.02.mtl
o PrisonCellLock.02
v 0.863044 0.813168 0.665428
v 0.757997 0.813168 0.665428
v 0.757997 0.755819 0.665428
v 0.863044 0.755819 0.665428
v 0.863044 0.813168 1.038148
v 0.757997 0.813168 1.038148
v 0.757997 0.755819 1.038148
v 0.863044 0.755819 1.038148
v 0.757997 0.755819 1.000000
v 0.863044 0.755819 1.000000
v 0.757997 0.813168 1.000000
v 0.863044 0.813168 1.000000
v 0.793013 0.813168 0.665428
v 0.828029 0.813168 0.665428
v 0.828029 0.755819 0.665428
v 0.793013 0.755819 0.665428
v 0.793013 0.813168 1.038148
v 0.828029 0.813168 1.038148
v 0.828029 0.755819 1.038148
v 0.793013 0.755819 1.038148
v 0.793013 0.813168 1.000000
v 0.828029 0.813168 1.000000
v 0.828029 0.755819 1.000000
v 0.793013 0.755819 1.000000
v 0.793013 0.889259 1.038148
v 0.828029 0.889259 1.038148
v 0.828029 0.679727 1.038148
v 0.793013 0.679727 1.038148
v 0.793013 0.889259 1.000000
v 0.828029 0.889259 1.000000
v 0.828029 0.679727 1.000000
v 0.793013 0.679727 1.000000
vn -0.0000 -1.0000 -0.0000
vn -1.0000 -0.0000 -0.0000
vn 1.0000 -0.0000 -0.0000
vn -0.0000 1.0000 -0.0000
vn -0.0000 -0.0000 1.0000
vn -0.0000 -0.0000 -1.0000
vt 0.000000 0.000000
s 0
usemtl M_Room
f 23/1/1 10/1/1 8/1/1 19/1/1
f 11/1/2 9/1/2 7/1/2 6/1/2
f 10/1/3 12/1/3 5/1/3 8/1/3
f 21/1/4 11/1/4 6/1/4 17/1/4
f 18/1/5 19/1/5 8/1/5 5/1/5
f 14/1/6 1/1/6 4/1/6 15/1/6
f 13/1/4 2/1/4 11/1/4 21/1/4
f 4/1/3 1/1/3 12/1/3 10/1/3
f 2/1/2 3/1/2 9/1/2 11/1/2
f 15/1/1 4/1/1 10/1/1 23/1/1
f 3/1/1 16/1/1 24/1/1 9/1/1
f 16/1/1 15/1/1 23/1/1 24/1/1
f 1/1/4 14/1/4 22/1/4 12/1/4
f 14/1/4 13/1/4 21/1/4 22/1/4
f 2/1/6 13/1/6 16/1/6 3/1/6
f 13/1/6 14/1/6 15/1/6 16/1/6
f 6/1/5 7/1/5 20/1/5 17/1/5
f 17/1/5 20/1/5 19/1/5 18/1/5
f 12/1/4 22/1/4 18/1/4 5/1/4
f 24/1/6 23/1/6 31/1/6 32/1/6
f 9/1/1 24/1/1 20/1/1 7/1/1
f 20/1/2 24/1/2 32/1/2 28/1/2
f 30/1/4 29/1/4 25/1/4 26/1/4
f 32/1/1 31/1/1 27/1/1 28/1/1
f 18/1/3 22/1/3 30/1/3 26/1/3
f 22/1/6 21/1/6 29/1/6 30/1/6
f 19/1/5 20/1/5 28/1/5 27/1/5
f 17/1/5 18/1/5 26/1/5 25/1/5
f 23/1/3 19/1/3 27/1/3 31/1/3
f 21/1/2 17/1/2 25/1/2 29/1/2
