# Blender 5.1.2
# www.blender.org
mtllib SmallLight.mtl
o SmallLight
v 0.022748 0.051551 0.143171
v -0.000001 0.051551 0.143171
v 0.022748 -0.051552 0.143171
v -0.000001 -0.051552 0.143171
v 0.022748 -0.048637 0.154705
v 0.022748 0.051551 0.154705
v 0.066014 -0.046284 0.143171
v 0.066014 0.046283 0.143171
v 0.064427 -0.043670 0.154705
v 0.064427 0.043669 0.154705
v 0.022748 -0.000000 0.143171
v -0.000001 -0.000000 0.143171
v 0.089513 -0.000000 0.143171
v 0.086531 -0.000000 0.154705
v 0.022748 0.025775 0.143171
v 0.083964 0.025775 0.143171
v 0.081273 0.024423 0.154705
v -0.000001 0.025775 0.143171
v -0.000001 -0.025776 0.143171
v 0.022748 -0.025776 0.143171
v 0.083964 -0.025776 0.143171
v 0.081273 -0.024424 0.154705
v 0.044031 -0.048637 0.154705
v 0.044031 0.048636 0.154705
v 0.044381 0.051551 0.143171
v 0.044381 -0.051552 0.143171
v 0.057609 -0.000000 0.143171
v 0.054383 0.025775 0.143171
v 0.054383 -0.025776 0.143171
v 0.022748 0.048636 0.154705
v -0.000001 0.051551 0.154705
v -0.000001 -0.025776 0.154705
v -0.000001 -0.051552 0.154705
v 0.022748 -0.051552 0.154705
v 0.083964 0.025775 0.154705
v 0.066014 0.046283 0.154705
v 0.044381 -0.051552 0.154705
v 0.066014 -0.046284 0.154705
v 0.044381 0.051551 0.154705
v -0.000001 0.025775 0.154705
v -0.000001 -0.000000 0.154705
v 0.083964 -0.025776 0.154705
v 0.089513 -0.000000 0.154705
v 0.022748 0.025775 0.163345
v 0.022748 0.048636 0.163345
v 0.022748 0.051551 0.163345
v -0.000001 0.051551 0.163345
v -0.000001 -0.025776 0.163345
v -0.000001 -0.051552 0.163345
v 0.022748 -0.051552 0.163345
v 0.022748 -0.025776 0.163345
v 0.022748 -0.000000 0.163345
v -0.000001 0.025775 0.163345
v -0.000001 -0.000000 0.163345
v 0.057609 -0.000000 0.163345
v 0.086531 -0.000000 0.163345
v 0.002914 -0.000000 0.163345
v 0.002914 0.025775 0.163345
v 0.054383 0.025775 0.163345
v 0.081273 0.024423 0.163345
v 0.022748 -0.048637 0.163345
v 0.054383 -0.025776 0.163345
v 0.081273 -0.024424 0.163345
v 0.002914 -0.025776 0.163345
v 0.044031 0.048636 0.163345
v 0.044031 -0.048637 0.163345
v 0.002914 0.048636 0.163345
v 0.002914 -0.048637 0.163345
v 0.064427 0.043669 0.163345
v 0.064427 -0.043670 0.163345
v 0.022748 0.051551 -0.000000
v -0.000001 0.051551 -0.000000
v -0.000001 0.025775 -0.000000
v 0.022748 0.025775 -0.000000
v 0.022748 -0.051552 -0.000000
v -0.000001 -0.051552 -0.000000
v 0.022748 -0.025776 -0.000000
v 0.022748 -0.000000 -0.000000
v -0.000001 -0.000000 -0.000000
v -0.000001 -0.025776 -0.000000
v 0.022748 0.051551 -0.143171
v -0.000001 0.051551 -0.143171
v 0.022748 -0.051552 -0.143171
v -0.000001 -0.051552 -0.143171
v 0.022748 -0.048637 -0.154705
v 0.022748 0.051551 -0.154705
v 0.066014 -0.046284 -0.143171
v 0.066014 0.046283 -0.143171
v 0.064427 -0.043670 -0.154705
v 0.064427 0.043669 -0.154705
v 0.022748 -0.000000 -0.143171
v -0.000001 -0.000000 -0.143171
v 0.089513 -0.000000 -0.143171
v 0.086531 -0.000000 -0.154705
v 0.022748 0.025775 -0.143171
v 0.083964 0.025775 -0.143171
v 0.081273 0.024423 -0.154705
v -0.000001 0.025775 -0.143171
v -0.000001 -0.025776 -0.143171
v 0.022748 -0.025776 -0.143171
v 0.083964 -0.025776 -0.143171
v 0.081273 -0.024424 -0.154705
v 0.044031 -0.048637 -0.154705
v 0.044031 0.048636 -0.154705
v 0.044381 0.051551 -0.143171
v 0.044381 -0.051552 -0.143171
v 0.057609 -0.000000 -0.143171
v 0.054383 0.025775 -0.143171
v 0.054383 -0.025776 -0.143171
v 0.022748 0.048636 -0.154705
v -0.000001 0.051551 -0.154705
v -0.000001 -0.025776 -0.154705
v -0.000001 -0.051552 -0.154705
v 0.022748 -0.051552 -0.154705
v 0.083964 0.025775 -0.154705
v 0.066014 0.046283 -0.154705
v 0.044381 -0.051552 -0.154705
v 0.066014 -0.046284 -0.154705
v 0.044381 0.051551 -0.154705
v -0.000001 0.025775 -0.154705
v -0.000001 -0.000000 -0.154705
v 0.083964 -0.025776 -0.154705
v 0.089513 -0.000000 -0.154705
v 0.022748 0.025775 -0.163345
v 0.022748 0.048636 -0.163345
v 0.022748 0.051551 -0.163345
v -0.000001 0.051551 -0.163345
v -0.000001 -0.025776 -0.163345
v -0.000001 -0.051552 -0.163345
v 0.022748 -0.051552 -0.163345
v 0.022748 -0.025776 -0.163345
v 0.022748 -0.000000 -0.163345
v -0.000001 0.025775 -0.163345
v -0.000001 -0.000000 -0.163345
v 0.057609 -0.000000 -0.163345
v 0.086531 -0.000000 -0.163345
v 0.002914 -0.000000 -0.163345
v 0.002914 0.025775 -0.163345
v 0.054383 0.025775 -0.163345
v 0.081273 0.024423 -0.163345
v 0.022748 -0.048637 -0.163345
v 0.054383 -0.025776 -0.163345
v 0.081273 -0.024424 -0.163345
v 0.002914 -0.025776 -0.163345
v 0.044031 0.048636 -0.163345
v 0.044031 -0.048637 -0.163345
v 0.002914 0.048636 -0.163345
v 0.002914 -0.048637 -0.163345
v 0.064427 0.043669 -0.163345
v 0.064427 -0.043670 -0.163345
v 0.046353 0.050454 0.139758
v 0.043581 0.050454 0.139758
v 0.046353 0.047682 0.139758
v 0.043581 0.047682 0.139758
v 0.044967 0.047108 0.139758
v 0.044967 0.051028 0.139758
v 0.046927 0.049068 0.139758
v 0.043007 0.049068 0.139758
v 0.044967 0.049068 0.139758
v 0.081547 0.034513 0.139758
v 0.079588 0.036472 0.139758
v 0.079587 0.032553 0.139758
v 0.077628 0.034513 0.139758
v 0.078202 0.033127 0.139758
v 0.080973 0.035898 0.139758
v 0.080973 0.033127 0.139758
v 0.078202 0.035898 0.139758
v 0.079587 0.034513 0.139758
v 0.095161 -0.001646 0.139758
v 0.095161 0.001126 0.139758
v 0.092390 -0.001646 0.139758
v 0.092390 0.001126 0.139758
v 0.091816 -0.000260 0.139758
v 0.095735 -0.000260 0.139758
v 0.093776 -0.002220 0.139758
v 0.093776 0.001700 0.139758
v 0.093776 -0.000260 0.139758
v 0.079220 -0.036841 0.139758
v 0.081180 -0.034881 0.139758
v 0.077261 -0.034881 0.139758
v 0.079220 -0.032921 0.139758
v 0.077835 -0.033495 0.139758
v 0.080606 -0.036267 0.139758
v 0.077835 -0.036267 0.139758
v 0.080606 -0.033495 0.139758
v 0.079220 -0.034881 0.139758
v 0.043062 -0.050455 0.139758
v 0.045833 -0.050455 0.139758
v 0.043062 -0.047684 0.139758
v 0.045833 -0.047684 0.139758
v 0.044448 -0.047110 0.139758
v 0.044448 -0.051029 0.139758
v 0.042488 -0.049069 0.139758
v 0.046407 -0.049069 0.139758
v 0.044448 -0.049069 0.139758
v 0.081632 0.036499 0.138034
v 0.081632 -0.036500 0.138034
v 0.096751 -0.000001 0.138034
v 0.045132 0.051618 0.138034
v 0.045132 -0.051619 0.138034
v 0.092821 0.019753 0.138034
v 0.092821 -0.019754 0.138034
v 0.025463 -0.050858 0.138034
v 0.025463 0.050856 0.138034
v 0.064886 0.047688 0.138034
v 0.064886 -0.047690 0.138034
v 0.081632 0.036499 0.135377
v 0.081632 -0.036500 0.135377
v 0.096751 -0.000001 0.135377
v 0.045132 0.051618 0.135377
v 0.045132 -0.051619 0.135377
v 0.092821 0.019753 0.135377
v 0.092821 -0.019754 0.135377
v 0.025463 -0.050858 0.135377
v 0.025463 0.050856 0.135377
v 0.064886 0.047688 0.135377
v 0.064886 -0.047690 0.135377
v 0.077816 0.032683 0.138034
v 0.077816 -0.032684 0.138034
v 0.091354 -0.000001 0.138034
v 0.044707 0.046237 0.138034
v 0.044707 -0.046239 0.138034
v 0.087835 0.017688 0.138034
v 0.087835 -0.017689 0.138034
v 0.025672 -0.045465 0.138034
v 0.025672 0.045464 0.138034
v 0.062821 0.042702 0.138034
v 0.062821 -0.042704 0.138034
v 0.077816 0.032683 0.135377
v 0.077816 -0.032684 0.135377
v 0.091354 -0.000001 0.135377
v 0.044707 0.046237 0.135377
v 0.044707 -0.046239 0.135377
v 0.087835 0.017688 0.135377
v 0.087835 -0.017689 0.135377
v 0.025672 -0.045465 0.135377
v 0.025672 0.045464 0.135377
v 0.062821 0.042702 0.135377
v 0.062821 -0.042704 0.135377
v 0.081632 0.036499 0.046594
v 0.081632 -0.036500 0.046594
v 0.096751 -0.000001 0.046594
v 0.045132 0.051618 0.046594
v 0.045132 -0.051619 0.046594
v 0.092821 0.019753 0.046594
v 0.092821 -0.019754 0.046594
v 0.025463 -0.050858 0.046594
v 0.025463 0.050856 0.046594
v 0.064886 0.047688 0.046594
v 0.064886 -0.047690 0.046594
v 0.081632 0.036499 0.043937
v 0.081632 -0.036500 0.043937
v 0.096751 -0.000001 0.043937
v 0.045132 0.051618 0.043937
v 0.045132 -0.051619 0.043937
v 0.092821 0.019753 0.043937
v 0.092821 -0.019754 0.043937
v 0.025463 -0.050858 0.043937
v 0.025463 0.050856 0.043937
v 0.064886 0.047688 0.043937
v 0.064886 -0.047690 0.043937
v 0.077816 0.032683 0.046594
v 0.077816 -0.032684 0.046594
v 0.091354 -0.000001 0.046594
v 0.044707 0.046237 0.046594
v 0.044707 -0.046239 0.046594
v 0.087835 0.017688 0.046594
v 0.087835 -0.017689 0.046594
v 0.025672 -0.045465 0.046594
v 0.025672 0.045464 0.046594
v 0.062821 0.042702 0.046594
v 0.062821 -0.042704 0.046594
v 0.077816 0.032683 0.043937
v 0.077816 -0.032684 0.043937
v 0.091354 -0.000001 0.043937
v 0.044707 0.046237 0.043937
v 0.044707 -0.046239 0.043937
v 0.087835 0.017688 0.043937
v 0.087835 -0.017689 0.043937
v 0.025672 -0.045465 0.043937
v 0.025672 0.045464 0.043937
v 0.062821 0.042702 0.043937
v 0.062821 -0.042704 0.043937
v 0.022748 0.044587 0.139758
v 0.025803 0.044587 0.139758
v 0.022748 0.051418 0.139758
v 0.025803 0.051418 0.139758
v 0.022748 -0.044588 0.139758
v 0.025803 -0.044588 0.139758
v 0.022748 -0.051420 0.139758
v 0.025803 -0.051420 0.139758
v 0.025803 0.051418 -0.000251
v 0.025803 0.044587 -0.000251
v 0.022748 0.044587 -0.000251
v 0.022748 0.051418 -0.000251
v 0.046353 0.047682 -0.000251
v 0.044967 0.047108 -0.000251
v 0.046353 0.050454 -0.000251
v 0.046927 0.049068 -0.000251
v 0.043581 0.050454 -0.000251
v 0.044967 0.051028 -0.000251
v 0.043581 0.047682 -0.000251
v 0.043007 0.049068 -0.000251
v 0.022748 -0.051420 -0.000251
v 0.022748 -0.044588 -0.000251
v 0.025803 -0.051420 -0.000251
v 0.025803 -0.044588 -0.000251
v 0.079587 0.032553 -0.000251
v 0.078202 0.033127 -0.000251
v 0.081547 0.034513 -0.000251
v 0.080973 0.033127 -0.000251
v 0.079588 0.036472 -0.000251
v 0.080973 0.035898 -0.000251
v 0.077628 0.034513 -0.000251
v 0.078202 0.035898 -0.000251
v 0.092390 -0.001646 -0.000251
v 0.091816 -0.000260 -0.000251
v 0.095161 -0.001646 -0.000251
v 0.093776 -0.002220 -0.000251
v 0.095161 0.001126 -0.000251
v 0.095735 -0.000260 -0.000251
v 0.092390 0.001126 -0.000251
v 0.093776 0.001700 -0.000251
v 0.077261 -0.034881 -0.000251
v 0.077835 -0.033495 -0.000251
v 0.079221 -0.036841 -0.000251
v 0.077835 -0.036267 -0.000251
v 0.081180 -0.034881 -0.000251
v 0.080606 -0.036267 -0.000251
v 0.079221 -0.032921 -0.000251
v 0.080606 -0.033495 -0.000251
v 0.043062 -0.047684 -0.000251
v 0.044448 -0.047110 -0.000251
v 0.043062 -0.050455 -0.000251
v 0.042488 -0.049069 -0.000251
v 0.045833 -0.050455 -0.000251
v 0.044448 -0.051029 -0.000251
v 0.045833 -0.047684 -0.000251
v 0.046407 -0.049069 -0.000251
v 0.046353 0.050454 -0.140259
v 0.043581 0.050454 -0.140259
v 0.046353 0.047682 -0.140259
v 0.043581 0.047682 -0.140259
v 0.044967 0.047108 -0.140259
v 0.044967 0.051028 -0.140259
v 0.046927 0.049068 -0.140259
v 0.043007 0.049068 -0.140259
v 0.044967 0.049068 -0.140259
v 0.081547 0.034513 -0.140259
v 0.079588 0.036472 -0.140259
v 0.079587 0.032553 -0.140259
v 0.077628 0.034513 -0.140259
v 0.078202 0.033127 -0.140259
v 0.080973 0.035898 -0.140259
v 0.080973 0.033127 -0.140259
v 0.078202 0.035898 -0.140259
v 0.079587 0.034513 -0.140259
v 0.095162 -0.001646 -0.140259
v 0.095162 0.001126 -0.140259
v 0.092390 -0.001646 -0.140259
v 0.092390 0.001126 -0.140259
v 0.091816 -0.000260 -0.140259
v 0.095735 -0.000260 -0.140259
v 0.093776 -0.002220 -0.140259
v 0.093776 0.001700 -0.140259
v 0.093776 -0.000260 -0.140259
v 0.079221 -0.036841 -0.140259
v 0.081180 -0.034881 -0.140259
v 0.077261 -0.034881 -0.140259
v 0.079221 -0.032921 -0.140259
v 0.077835 -0.033495 -0.140259
v 0.080606 -0.036267 -0.140259
v 0.077835 -0.036267 -0.140259
v 0.080606 -0.033495 -0.140259
v 0.079221 -0.034881 -0.140259
v 0.043062 -0.050455 -0.140259
v 0.045833 -0.050455 -0.140259
v 0.043062 -0.047684 -0.140259
v 0.045833 -0.047684 -0.140259
v 0.044448 -0.047110 -0.140259
v 0.044448 -0.051029 -0.140259
v 0.042488 -0.049069 -0.140259
v 0.046407 -0.049069 -0.140259
v 0.044448 -0.049069 -0.140259
v 0.081632 0.036499 -0.138536
v 0.081632 -0.036500 -0.138536
v 0.096751 -0.000001 -0.138536
v 0.045132 0.051618 -0.138536
v 0.045132 -0.051619 -0.138536
v 0.092821 0.019753 -0.138536
v 0.092821 -0.019754 -0.138536
v 0.025463 -0.050858 -0.138536
v 0.025463 0.050856 -0.138536
v 0.064886 0.047688 -0.138536
v 0.064886 -0.047690 -0.138536
v 0.081632 0.036499 -0.135878
v 0.081632 -0.036500 -0.135878
v 0.096751 -0.000001 -0.135878
v 0.045132 0.051618 -0.135878
v 0.045132 -0.051619 -0.135878
v 0.092821 0.019753 -0.135878
v 0.092821 -0.019754 -0.135878
v 0.025463 -0.050858 -0.135878
v 0.025463 0.050856 -0.135878
v 0.064886 0.047688 -0.135878
v 0.064886 -0.047690 -0.135878
v 0.077816 0.032683 -0.138536
v 0.077816 -0.032684 -0.138536
v 0.091354 -0.000001 -0.138536
v 0.044707 0.046237 -0.138536
v 0.044707 -0.046239 -0.138536
v 0.087835 0.017688 -0.138536
v 0.087835 -0.017689 -0.138536
v 0.025672 -0.045465 -0.138536
v 0.025672 0.045464 -0.138536
v 0.062821 0.042702 -0.138536
v 0.062821 -0.042704 -0.138536
v 0.077816 0.032683 -0.135878
v 0.077816 -0.032684 -0.135878
v 0.091354 -0.000001 -0.135878
v 0.044707 0.046237 -0.135878
v 0.044707 -0.046239 -0.135878
v 0.087835 0.017688 -0.135878
v 0.087835 -0.017689 -0.135878
v 0.025672 -0.045465 -0.135878
v 0.025672 0.045464 -0.135878
v 0.062821 0.042702 -0.135878
v 0.062821 -0.042704 -0.135878
v 0.081632 0.036499 -0.047096
v 0.081632 -0.036500 -0.047096
v 0.096751 -0.000001 -0.047096
v 0.045132 0.051618 -0.047096
v 0.045132 -0.051619 -0.047096
v 0.092821 0.019753 -0.047096
v 0.092821 -0.019754 -0.047096
v 0.025463 -0.050858 -0.047096
v 0.025463 0.050856 -0.047096
v 0.064886 0.047688 -0.047096
v 0.064886 -0.047690 -0.047096
v 0.081632 0.036499 -0.044438
v 0.081632 -0.036500 -0.044438
v 0.096751 -0.000001 -0.044438
v 0.045132 0.051618 -0.044438
v 0.045132 -0.051619 -0.044438
v 0.092821 0.019753 -0.044438
v 0.092821 -0.019754 -0.044438
v 0.025463 -0.050858 -0.044438
v 0.025463 0.050856 -0.044438
v 0.064886 0.047688 -0.044438
v 0.064886 -0.047690 -0.044438
v 0.077816 0.032683 -0.047096
v 0.077816 -0.032684 -0.047096
v 0.091354 -0.000001 -0.047096
v 0.044707 0.046237 -0.047096
v 0.044707 -0.046239 -0.047096
v 0.087835 0.017688 -0.047096
v 0.087835 -0.017689 -0.047096
v 0.025672 -0.045465 -0.047096
v 0.025672 0.045464 -0.047096
v 0.062821 0.042702 -0.047096
v 0.062821 -0.042704 -0.047096
v 0.077816 0.032683 -0.044438
v 0.077816 -0.032684 -0.044438
v 0.091354 -0.000001 -0.044438
v 0.044707 0.046237 -0.044438
v 0.044707 -0.046239 -0.044438
v 0.087835 0.017688 -0.044438
v 0.087835 -0.017689 -0.044438
v 0.025672 -0.045465 -0.044438
v 0.025672 0.045464 -0.044438
v 0.062821 0.042702 -0.044438
v 0.062821 -0.042704 -0.044438
v 0.022748 0.044587 -0.140259
v 0.025803 0.044587 -0.140259
v 0.022748 0.051418 -0.140259
v 0.025803 0.051418 -0.140259
v 0.022748 -0.044588 -0.140259
v 0.025803 -0.044588 -0.140259
v 0.022748 -0.051420 -0.140259
v 0.025803 -0.051420 -0.140259
v 0.053225 -0.028685 0.143171
v 0.024540 -0.000001 0.143171
v 0.081908 -0.000001 0.143171
v 0.073507 0.020282 0.143171
v 0.032941 0.020282 0.143171
v 0.073507 -0.020284 0.143171
v 0.032941 -0.020284 0.143171
v 0.053225 0.028683 0.143171
v 0.079725 0.010976 0.143171
v 0.026724 0.010976 0.143171
v 0.026724 -0.010978 0.143171
v 0.079725 -0.010978 0.143171
v 0.042247 -0.026501 0.143171
v 0.042247 0.026500 0.143171
v 0.064201 -0.026501 0.143171
v 0.064201 0.026500 0.143171
v 0.053225 -0.028685 -0.143171
v 0.024540 -0.000001 -0.143171
v 0.081908 -0.000001 -0.143171
v 0.073507 0.020282 -0.143171
v 0.032941 0.020282 -0.143171
v 0.073507 -0.020284 -0.143171
v 0.032941 -0.020284 -0.143171
v 0.053225 0.028683 -0.143171
v 0.079725 0.010976 -0.143171
v 0.026724 0.010976 -0.143171
v 0.026724 -0.010978 -0.143171
v 0.079725 -0.010978 -0.143171
v 0.042247 -0.026501 -0.143171
v 0.042247 0.026500 -0.143171
v 0.064201 -0.026501 -0.143171
v 0.064201 0.026500 -0.143171
v 0.048236 -0.011887 0.143171
v 0.036350 -0.000001 0.143171
v 0.060122 -0.000001 0.143171
v 0.056641 0.008404 0.143171
v 0.039831 0.008404 0.143171
v 0.056641 -0.008405 0.143171
v 0.039831 -0.008405 0.143171
v 0.048236 0.011886 0.143171
v 0.059217 0.004548 0.143171
v 0.037255 0.004548 0.143171
v 0.037255 -0.004549 0.143171
v 0.059217 -0.004549 0.143171
v 0.043687 -0.010982 0.143171
v 0.043687 0.010981 0.143171
v 0.052785 -0.010982 0.143171
v 0.052785 0.010981 0.143171
v 0.048236 -0.011887 -0.107444
v 0.036350 -0.000001 -0.107444
v 0.060122 -0.000001 -0.107444
v 0.056641 0.008404 -0.107444
v 0.039831 0.008404 -0.107444
v 0.056641 -0.008405 -0.107444
v 0.039831 -0.008405 -0.107444
v 0.048236 0.011886 -0.107444
v 0.059217 0.004548 -0.107444
v 0.037255 0.004548 -0.107444
v 0.037255 -0.004549 -0.107444
v 0.059217 -0.004549 -0.107444
v 0.043687 -0.010982 -0.107444
v 0.043687 0.010981 -0.107444
v 0.052785 -0.010982 -0.107444
v 0.052785 0.010981 -0.107444
v 0.048236 -0.011887 -0.143171
v 0.036350 -0.000001 -0.143171
v 0.060122 -0.000001 -0.143171
v 0.056641 0.008404 -0.143171
v 0.039831 0.008404 -0.143171
v 0.056641 -0.008405 -0.143171
v 0.039831 -0.008405 -0.143171
v 0.048236 0.011886 -0.143171
v 0.059217 0.004548 -0.143171
v 0.037255 0.004548 -0.143171
v 0.037255 -0.004549 -0.143171
v 0.059217 -0.004549 -0.143171
v 0.043687 -0.010982 -0.143171
v 0.043687 0.010981 -0.143171
v 0.052785 -0.010982 -0.143171
v 0.052785 0.010981 -0.143171
vn -0.0000 -1.0000 -0.0000
vn 1.0000 -0.0000 -0.0000
vn -0.0000 1.0000 -0.0000
vn -1.0000 -0.0000 -0.0000
vn 0.7525 0.6586 -0.0000
vn 0.2366 0.9716 -0.0000
vn -0.0000 -0.0000 -1.0000
vn 0.2366 -0.9716 -0.0000
vn 0.9776 -0.2105 -0.0000
vn 0.9776 0.2105 -0.0000
vn 0.7525 -0.6586 -0.0000
vn 0.9776 -0.2104 -0.0000
vn -0.0000 -0.0000 1.0000
vn 0.5556 0.8315 -0.0000
vn -0.0387 -0.9993 -0.0000
vn 0.1951 -0.9808 -0.0000
vn 0.8315 -0.5556 -0.0000
vn 0.1951 0.9808 -0.0000
vn 0.8315 0.5556 -0.0000
vn 0.9808 0.1951 -0.0000
vn 0.5556 -0.8315 -0.0000
vn 0.9808 -0.1951 -0.0000
vn -0.0387 0.9993 -0.0000
vn -0.5556 -0.8315 -0.0000
vn 0.0406 0.9992 -0.0000
vn -0.1916 0.9815 -0.0000
vn -0.8315 0.5556 -0.0000
vn -0.1916 -0.9815 -0.0000
vn -0.8315 -0.5556 -0.0000
vn -0.9808 -0.1951 -0.0000
vn -0.5556 0.8315 -0.0000
vn -0.9808 0.1951 -0.0000
vn 0.0406 -0.9992 -0.0000
vn -0.9993 0.0387 -0.0000
vn -0.9993 -0.0387 -0.0000
vn -0.9239 0.3827 -0.0000
vn -0.3828 -0.9238 -0.0000
vn -0.9238 -0.3828 -0.0000
vn 0.9239 -0.3827 -0.0000
vn 0.3826 0.9239 -0.0000
vn -0.3826 0.9239 -0.0000
vn 0.9239 0.3826 -0.0000
vn 0.3828 -0.9238 -0.0000
vn -0.9239 -0.3826 -0.0000
vn 0.3826 -0.9239 -0.0000
vn 0.9239 0.3827 -0.0000
vn 0.3827 0.9239 -0.0000
vn 0.9239 -0.3826 -0.0000
vn -0.3827 -0.9239 -0.0000
vn -0.9238 0.3829 -0.0000
vn -0.9240 0.3823 -0.0000
vn -0.3827 0.9239 -0.0000
vn -0.9239 -0.3827 -0.0000
vn 0.3827 -0.9239 -0.0000
vn -0.3826 -0.9239 -0.0000
vn -0.9239 0.3826 -0.0000
vn -0.1951 -0.9808 -0.0000
vn -0.1951 0.9808 -0.0000
vt 0.625000 0.250000
vt 0.375000 0.250000
vt 0.125000 0.687500
vt 0.125000 0.750000
vt 0.125000 0.562500
vt 0.125000 0.625000
vt 0.375000 1.000000
vt 0.625000 1.000000
vt 0.875000 0.562500
vt 0.875000 0.500000
vt 0.875000 0.750000
vt 0.875000 0.687500
vt 0.875000 0.625000
vt 0.375000 0.125000
vt 0.375000 0.065777
vt 0.375000 0.007068
vt 0.375000 0.000000
vt 0.125000 0.500000
vt 0.375000 0.183553
vt 0.375000 0.009443
vt 0.375000 0.007798
vt 0.375000 0.242932
vt 0.375000 0.240557
vt 0.375000 0.062500
vt 0.375000 0.187500
vt 0.613953 0.187500
vt 0.613953 0.242932
vt 0.613953 0.062500
vt 0.613953 0.125000
vt 0.613953 0.007068
vt 0.625000 0.000000
vt 0.625000 0.187500
vt 0.625000 0.062500
vt 0.625000 0.125000
vt 0.500000 0.625000
vt 0.500000 0.750000
vt 0.625000 0.750000
vt 0.625000 0.625000
vt 0.375000 0.625000
vt 0.375000 0.750000
vt 0.375000 0.500000
vt 0.500000 0.500000
vt 0.625000 0.500000
vt 0.000000 0.000000
vt 0.437500 0.750000
vt 0.625000 0.562500
vt 0.375000 0.562500
vt 0.375000 0.687500
vt 0.437500 0.500000
vt 0.625000 0.687500
vt 0.562500 0.500000
vt 0.562500 0.750000
s 0
usemtl Material.001
f 4/1/1 3/2/1 34/2/1 33/1/1
f 74/3/2 71/4/2 1/4/2 15/3/2
f 75/2/1 3/2/1 4/1/1 76/1/1
f 77/5/2 78/6/2 11/6/2 20/5/2
f 1/7/3 2/8/3 31/8/3 6/7/3
f 19/9/4 4/10/4 33/10/4 32/9/4
f 16/3/5 8/4/5 36/4/5 35/3/5
f 25/7/6 39/7/6 36/7/6 8/7/6
f 28/3/7 25/4/7 8/4/7 16/3/7
f 37/2/8 26/2/8 7/2/8 38/2/8
f 29/5/7 27/6/7 13/6/7 21/5/7
f 21/5/9 13/6/9 43/6/9 42/5/9
f 31/11/4 40/12/4 53/12/4 47/11/4
f 18/12/4 12/13/4 41/13/4 40/12/4
f 6/7/3 31/8/3 47/8/3 46/7/3
f 78/6/2 74/3/2 15/3/2 11/6/2
f 14/14/10 17/15/10 60/15/10 56/14/10
f 2/11/4 18/12/4 40/12/4 31/11/4
f 30/16/2 6/17/2 46/17/2 45/16/2
f 27/6/7 28/3/7 16/3/7 13/6/7
f 13/6/10 16/3/10 35/3/10 43/6/10
f 75/18/2 77/5/2 20/5/2 3/18/2
f 7/18/11 21/5/11 42/5/11 38/18/11
f 26/18/7 29/5/7 21/5/7 7/18/7
f 22/19/12 14/14/12 56/14/12 63/19/12
f 12/13/4 19/9/4 32/9/4 41/13/4
f 40/12/4 41/13/4 54/13/4 53/12/4
f 10/20/6 24/21/6 65/21/6 69/20/6
f 3/18/7 20/5/7 29/5/7 26/18/7
f 11/6/7 15/3/7 28/3/7 27/6/7
f 24/21/3 30/16/3 45/16/3 65/21/3
f 5/22/1 23/22/1 66/22/1 61/22/1
f 20/5/7 11/6/7 27/6/7 29/5/7
f 34/2/1 3/2/1 26/2/1 37/2/1
f 15/3/7 1/4/7 25/4/7 28/3/7
f 1/7/3 6/7/3 39/7/3 25/7/3
f 23/22/8 9/23/8 70/23/8 66/22/8
f 9/23/11 22/19/11 63/19/11 70/23/11
f 33/1/1 34/2/1 50/2/1 49/1/1
f 34/2/2 5/22/2 61/22/2 50/2/2
f 10/20/13 17/15/13 35/24/13 36/17/13
f 9/23/13 23/22/13 37/2/13 38/2/13
f 30/16/13 24/21/13 39/17/13 6/17/13
f 17/15/5 10/20/5 69/20/5 60/15/5
f 14/14/13 22/19/13 42/25/13 43/14/13
f 17/15/13 14/14/13 43/14/13 35/24/13
f 41/13/4 32/9/4 48/9/4 54/13/4
f 32/9/4 33/10/4 49/10/4 48/9/4
f 22/19/13 9/23/13 38/2/13 42/25/13
f 23/22/13 5/22/13 34/2/13 37/2/13
f 24/21/13 10/20/13 36/17/13 39/17/13
f 51/25/13 64/26/13 68/27/13 61/22/13
f 62/25/13 66/22/13 70/23/13 63/19/13
f 59/24/13 55/14/13 56/14/13 60/15/13
f 44/24/13 58/28/13 57/29/13 52/14/13
f 45/16/13 67/30/13 58/28/13 44/24/13
f 65/21/13 59/24/13 60/15/13 69/20/13
f 55/14/13 62/25/13 63/19/13 56/14/13
f 52/14/13 57/29/13 64/26/13 51/25/13
f 52/14/13 51/25/13 62/25/13 55/14/13
f 45/16/13 44/24/13 59/24/13 65/21/13
f 44/24/13 52/14/13 55/14/13 59/24/13
f 51/25/13 61/22/13 66/22/13 62/25/13
f 67/30/13 45/16/13 46/17/13 47/31/13
f 68/27/13 64/26/13 48/32/13 49/1/13
f 61/22/13 68/27/13 49/1/13 50/2/13
f 57/29/13 58/28/13 53/33/13 54/34/13
f 58/28/13 67/30/13 47/31/13 53/33/13
f 64/26/13 57/29/13 54/34/13 48/32/13
f 79/12/4 80/12/4 19/12/4 12/12/4
f 1/7/3 71/7/3 72/8/3 2/8/3
f 18/12/4 73/12/4 79/12/4 12/12/4
f 19/9/4 80/9/4 76/10/4 4/10/4
f 2/11/4 72/11/4 73/12/4 18/12/4
f 84/1/1 113/1/1 114/2/1 83/2/1
f 74/3/2 95/3/2 81/4/2 71/4/2
f 75/2/1 76/1/1 84/1/1 83/2/1
f 77/5/2 100/5/2 91/6/2 78/6/2
f 81/7/3 86/7/3 111/8/3 82/8/3
f 99/9/4 112/9/4 113/10/4 84/10/4
f 96/3/5 115/3/5 116/4/5 88/4/5
f 105/7/6 88/7/6 116/7/6 119/7/6
f 108/3/13 96/3/13 88/4/13 105/4/13
f 117/2/8 118/2/8 87/2/8 106/2/8
f 109/5/13 101/5/13 93/6/13 107/6/13
f 101/5/9 122/5/9 123/6/9 93/6/9
f 111/11/4 127/11/4 133/12/4 120/12/4
f 98/12/4 120/12/4 121/13/4 92/13/4
f 86/7/3 126/7/3 127/8/3 111/8/3
f 78/6/2 91/6/2 95/3/2 74/3/2
f 94/14/10 136/14/10 140/15/10 97/15/10
f 82/11/4 111/11/4 120/12/4 98/12/4
f 110/16/2 125/16/2 126/17/2 86/17/2
f 107/6/13 93/6/13 96/3/13 108/3/13
f 93/6/10 123/6/10 115/3/10 96/3/10
f 75/18/2 83/18/2 100/5/2 77/5/2
f 87/18/11 118/18/11 122/5/11 101/5/11
f 106/18/13 87/18/13 101/5/13 109/5/13
f 102/19/12 143/19/12 136/14/12 94/14/12
f 92/13/4 121/13/4 112/9/4 99/9/4
f 120/12/4 133/12/4 134/13/4 121/13/4
f 90/20/6 149/20/6 145/21/6 104/21/6
f 83/18/13 106/18/13 109/5/13 100/5/13
f 91/6/13 107/6/13 108/3/13 95/3/13
f 104/21/3 145/21/3 125/16/3 110/16/3
f 85/22/1 141/22/1 146/22/1 103/22/1
f 100/5/13 109/5/13 107/6/13 91/6/13
f 114/2/1 117/2/1 106/2/1 83/2/1
f 95/3/13 108/3/13 105/4/13 81/4/13
f 81/7/3 105/7/3 119/7/3 86/7/3
f 103/22/8 146/22/8 150/23/8 89/23/8
f 89/23/11 150/23/11 143/19/11 102/19/11
f 113/1/1 129/1/1 130/2/1 114/2/1
f 114/2/2 130/2/2 141/22/2 85/22/2
f 90/20/7 116/17/7 115/24/7 97/15/7
f 89/23/7 118/2/7 117/2/7 103/22/7
f 110/16/7 86/17/7 119/17/7 104/21/7
f 97/15/5 140/15/5 149/20/5 90/20/5
f 94/14/7 123/14/7 122/25/7 102/19/7
f 97/15/7 115/24/7 123/14/7 94/14/7
f 121/13/4 134/13/4 128/9/4 112/9/4
f 112/9/4 128/9/4 129/10/4 113/10/4
f 102/19/7 122/25/7 118/2/7 89/23/7
f 103/22/7 117/2/7 114/2/7 85/22/7
f 104/21/7 119/17/7 116/17/7 90/20/7
f 131/25/7 141/22/7 148/27/7 144/26/7
f 142/25/7 143/19/7 150/23/7 146/22/7
f 139/24/7 140/15/7 136/14/7 135/14/7
f 124/24/7 132/14/7 137/29/7 138/28/7
f 125/16/7 124/24/7 138/28/7 147/30/7
f 145/21/7 149/20/7 140/15/7 139/24/7
f 135/14/7 136/14/7 143/19/7 142/25/7
f 132/14/7 131/25/7 144/26/7 137/29/7
f 132/14/7 135/14/7 142/25/7 131/25/7
f 125/16/7 145/21/7 139/24/7 124/24/7
f 124/24/7 139/24/7 135/14/7 132/14/7
f 131/25/7 142/25/7 146/22/7 141/22/7
f 147/30/7 127/31/7 126/17/7 125/16/7
f 148/27/7 129/1/7 128/32/7 144/26/7
f 141/22/7 130/2/7 129/1/7 148/27/7
f 137/29/7 134/34/7 133/33/7 138/28/7
f 138/28/7 133/33/7 127/31/7 147/30/7
f 144/26/7 128/32/7 134/34/7 137/29/7
f 79/12/4 92/12/4 99/12/4 80/12/4
f 81/7/3 82/8/3 72/8/3 71/7/3
f 98/12/4 92/12/4 79/12/4 73/12/4
f 99/9/4 84/10/4 76/10/4 80/9/4
f 82/11/4 98/12/4 73/12/4 72/11/4
s 1
f 159/35/13 156/36/13 152/37/13 158/38/13
f 157/39/13 151/40/13 156/36/13 159/35/13
f 153/41/13 157/39/13 159/35/13 155/42/13
f 155/42/13 159/35/13 158/38/13 154/43/13
f 168/35/13 165/36/13 161/37/13 167/38/13
f 166/39/13 160/40/13 165/36/13 168/35/13
f 162/41/13 166/39/13 168/35/13 164/42/13
f 164/42/13 168/35/13 167/38/13 163/43/13
f 177/35/13 174/36/13 170/37/13 176/38/13
f 175/39/13 169/40/13 174/36/13 177/35/13
f 171/41/13 175/39/13 177/35/13 173/42/13
f 173/42/13 177/35/13 176/38/13 172/43/13
f 186/35/13 183/36/13 179/37/13 185/38/13
f 184/39/13 178/40/13 183/36/13 186/35/13
f 180/41/13 184/39/13 186/35/13 182/42/13
f 182/42/13 186/35/13 185/38/13 181/43/13
f 195/35/13 192/36/13 188/37/13 194/38/13
f 193/39/13 187/40/13 192/36/13 195/35/13
f 189/41/13 193/39/13 195/35/13 191/42/13
f 191/42/13 195/35/13 194/38/13 190/43/13
f 205/44/14 196/44/14 207/44/14 216/44/14
f 200/44/15 203/44/15 214/44/15 211/44/15
f 206/44/16 200/44/16 211/44/16 217/44/16
f 202/44/17 197/44/17 208/44/17 213/44/17
f 199/44/18 205/44/18 216/44/18 210/44/18
f 196/44/19 201/44/19 212/44/19 207/44/19
f 201/44/20 198/44/20 209/44/20 212/44/20
f 197/44/21 206/44/21 217/44/21 208/44/21
f 198/44/22 202/44/22 213/44/22 209/44/22
f 204/44/23 199/44/23 210/44/23 215/44/23
f 227/44/24 238/44/24 229/44/24 218/44/24
f 222/44/25 233/44/25 236/44/25 225/44/25
f 228/44/26 239/44/26 233/44/26 222/44/26
f 224/44/27 235/44/27 230/44/27 219/44/27
f 221/44/28 232/44/28 238/44/28 227/44/28
f 218/44/29 229/44/29 234/44/29 223/44/29
f 223/44/30 234/44/30 231/44/30 220/44/30
f 219/44/31 230/44/31 239/44/31 228/44/31
f 220/44/32 231/44/32 235/44/32 224/44/32
f 226/44/33 237/44/33 232/44/33 221/44/33
f 200/44/13 222/44/13 225/44/13 203/44/13
f 203/44/34 225/44/34 236/44/34 214/44/34
f 205/44/13 227/44/13 218/44/13 196/44/13
f 212/44/7 234/44/7 229/44/7 207/44/7
f 215/44/35 237/44/35 226/44/35 204/44/35
f 199/44/13 221/44/13 227/44/13 205/44/13
f 202/44/13 224/44/13 219/44/13 197/44/13
f 213/44/7 235/44/7 231/44/7 209/44/7
f 197/44/13 219/44/13 228/44/13 206/44/13
f 201/44/13 223/44/13 220/44/13 198/44/13
f 214/44/7 236/44/7 233/44/7 211/44/7
f 207/44/7 229/44/7 238/44/7 216/44/7
f 204/44/13 226/44/13 221/44/13 199/44/13
f 216/44/7 238/44/7 232/44/7 210/44/7
f 208/44/7 230/44/7 235/44/7 213/44/7
f 206/44/13 228/44/13 222/44/13 200/44/13
f 217/44/7 239/44/7 230/44/7 208/44/7
f 209/44/7 231/44/7 234/44/7 212/44/7
f 196/44/13 218/44/13 223/44/13 201/44/13
f 210/44/7 232/44/7 237/44/7 215/44/7
f 198/44/13 220/44/13 224/44/13 202/44/13
f 211/44/7 233/44/7 239/44/7 217/44/7
f 249/44/14 240/44/14 251/44/14 260/44/14
f 244/44/15 247/44/15 258/44/15 255/44/15
f 250/44/16 244/44/16 255/44/16 261/44/16
f 246/44/17 241/44/17 252/44/17 257/44/17
f 243/44/18 249/44/18 260/44/18 254/44/18
f 240/44/19 245/44/19 256/44/19 251/44/19
f 245/44/20 242/44/20 253/44/20 256/44/20
f 241/44/21 250/44/21 261/44/21 252/44/21
f 242/44/22 246/44/22 257/44/22 253/44/22
f 248/44/23 243/44/23 254/44/23 259/44/23
f 271/44/24 282/44/24 273/44/24 262/44/24
f 266/44/25 277/44/25 280/44/25 269/44/25
f 272/44/26 283/44/26 277/44/26 266/44/26
f 268/44/27 279/44/27 274/44/27 263/44/27
f 265/44/28 276/44/28 282/44/28 271/44/28
f 262/44/29 273/44/29 278/44/29 267/44/29
f 267/44/30 278/44/30 275/44/30 264/44/30
f 263/44/31 274/44/31 283/44/31 272/44/31
f 264/44/32 275/44/32 279/44/32 268/44/32
f 270/44/33 281/44/33 276/44/33 265/44/33
f 244/44/13 266/44/13 269/44/13 247/44/13
f 247/44/34 269/44/34 280/44/34 258/44/34
f 249/44/13 271/44/13 262/44/13 240/44/13
f 256/44/7 278/44/7 273/44/7 251/44/7
f 259/44/35 281/44/35 270/44/35 248/44/35
f 243/44/13 265/44/13 271/44/13 249/44/13
f 246/44/13 268/44/13 263/44/13 241/44/13
f 257/44/7 279/44/7 275/44/7 253/44/7
f 241/44/13 263/44/13 272/44/13 250/44/13
f 245/44/13 267/44/13 264/44/13 242/44/13
f 258/44/7 280/44/7 277/44/7 255/44/7
f 251/44/7 273/44/7 282/44/7 260/44/7
f 248/44/13 270/44/13 265/44/13 243/44/13
f 260/44/7 282/44/7 276/44/7 254/44/7
f 252/44/7 274/44/7 279/44/7 257/44/7
f 250/44/13 272/44/13 266/44/13 244/44/13
f 261/44/7 283/44/7 274/44/7 252/44/7
f 253/44/7 275/44/7 278/44/7 256/44/7
f 240/44/13 262/44/13 267/44/13 245/44/13
f 254/44/7 276/44/7 281/44/7 259/44/7
f 242/44/13 264/44/13 268/44/13 246/44/13
f 255/44/7 277/44/7 283/44/7 261/44/7
f 286/41/13 284/40/13 285/37/13 287/43/13
f 292/43/2 287/43/2 285/37/2 293/37/2
f 294/40/1 293/37/1 285/37/1 284/40/1
f 290/41/13 291/43/13 289/37/13 288/40/13
f 306/43/2 307/37/2 289/37/2 291/43/2
f 305/40/3 288/40/3 289/37/3 307/37/3
f 284/40/4 286/41/4 295/41/4 294/40/4
f 286/41/3 287/43/3 292/43/3 295/41/3
f 158/38/36 152/37/36 300/37/36 303/38/36
f 155/42/37 154/43/37 302/43/37 297/42/37
f 154/43/38 158/38/38 303/38/38 302/43/38
f 157/39/39 153/41/39 296/41/39 299/39/39
f 156/36/40 151/40/40 298/40/40 301/36/40
f 152/37/41 156/36/41 301/36/41 300/37/41
f 151/40/42 157/39/42 299/39/42 298/40/42
f 153/41/43 155/42/43 297/42/43 296/41/43
f 291/43/1 290/41/1 304/41/1 306/43/1
f 290/41/4 288/40/4 305/40/4 304/41/4
f 167/38/41 161/37/41 312/37/41 315/38/41
f 164/42/44 163/43/44 314/43/44 309/42/44
f 163/43/36 167/38/36 315/38/36 314/43/36
f 166/39/45 162/41/45 308/41/45 311/39/45
f 165/36/46 160/40/46 310/40/46 313/36/46
f 161/37/47 165/36/47 313/36/47 312/37/47
f 160/40/48 166/39/48 311/39/48 310/40/48
f 162/41/49 164/42/49 309/42/49 308/41/49
f 176/38/40 170/37/40 320/37/40 323/38/40
f 173/42/50 172/43/50 322/43/50 317/42/51
f 172/43/52 176/38/52 323/38/52 322/43/52
f 175/39/49 171/41/49 316/41/49 319/39/49
f 174/36/48 169/40/48 318/40/48 321/36/48
f 170/37/42 174/36/42 321/36/42 320/37/42
f 169/40/45 175/39/45 319/39/45 318/40/45
f 171/41/44 173/42/44 317/42/44 316/41/44
f 185/38/42 179/37/42 328/37/42 331/38/42
f 182/42/41 181/43/41 330/43/41 325/42/41
f 181/43/47 185/38/47 331/38/47 330/43/47
f 184/39/53 180/41/53 324/41/53 327/39/53
f 183/36/54 178/40/54 326/40/54 329/36/54
f 179/37/39 183/36/39 329/36/39 328/37/39
f 178/40/55 184/39/55 327/39/55 326/40/55
f 180/41/56 182/42/56 325/42/56 324/41/56
f 194/38/39 188/37/39 336/37/39 339/38/39
f 191/42/40 190/43/40 338/43/40 333/42/40
f 190/43/42 194/38/42 339/38/42 338/43/42
f 193/39/56 189/41/56 332/41/56 335/39/56
f 192/36/37 187/40/37 334/40/37 337/36/37
f 188/37/43 192/36/43 337/36/43 336/37/43
f 187/40/53 193/39/53 335/39/53 334/40/53
f 189/41/41 191/42/41 333/42/41 332/41/41
f 348/35/7 347/38/7 341/37/7 345/36/7
f 346/39/7 348/35/7 345/36/7 340/40/7
f 342/41/7 344/42/7 348/35/7 346/39/7
f 344/42/7 343/43/7 347/38/7 348/35/7
f 357/35/7 356/38/7 350/37/7 354/36/7
f 355/39/7 357/35/7 354/36/7 349/40/7
f 351/41/7 353/42/7 357/35/7 355/39/7
f 353/42/7 352/43/7 356/38/7 357/35/7
f 366/35/7 365/38/7 359/37/7 363/36/7
f 364/39/7 366/35/7 363/36/7 358/40/7
f 360/41/7 362/42/7 366/35/7 364/39/7
f 362/42/7 361/43/7 365/38/7 366/35/7
f 375/35/7 374/38/7 368/37/7 372/36/7
f 373/39/7 375/35/7 372/36/7 367/40/7
f 369/41/7 371/42/7 375/35/7 373/39/7
f 371/42/7 370/43/7 374/38/7 375/35/7
f 384/35/7 383/38/7 377/37/7 381/36/7
f 382/39/7 384/35/7 381/36/7 376/40/7
f 378/41/7 380/42/7 384/35/7 382/39/7
f 380/42/7 379/43/7 383/38/7 384/35/7
f 394/44/14 405/44/14 396/44/14 385/44/14
f 389/44/15 400/44/15 403/44/15 392/44/15
f 395/44/16 406/44/16 400/44/16 389/44/16
f 391/44/17 402/44/17 397/44/17 386/44/17
f 388/44/18 399/44/18 405/44/18 394/44/18
f 385/44/19 396/44/19 401/44/19 390/44/19
f 390/44/20 401/44/20 398/44/20 387/44/20
f 386/44/21 397/44/21 406/44/21 395/44/21
f 387/44/22 398/44/22 402/44/22 391/44/22
f 393/44/23 404/44/23 399/44/23 388/44/23
f 416/44/24 407/44/24 418/44/24 427/44/24
f 411/44/25 414/44/25 425/44/25 422/44/25
f 417/44/26 411/44/26 422/44/26 428/44/26
f 413/44/27 408/44/27 419/44/27 424/44/27
f 410/44/28 416/44/28 427/44/28 421/44/28
f 407/44/29 412/44/29 423/44/29 418/44/29
f 412/44/30 409/44/30 420/44/30 423/44/30
f 408/44/31 417/44/31 428/44/31 419/44/31
f 409/44/32 413/44/32 424/44/32 420/44/32
f 415/44/33 410/44/33 421/44/33 426/44/33
f 389/44/7 392/44/7 414/44/7 411/44/7
f 392/44/34 403/44/34 425/44/34 414/44/34
f 394/44/7 385/44/7 407/44/7 416/44/7
f 401/44/13 396/44/13 418/44/13 423/44/13
f 404/44/35 393/44/35 415/44/35 426/44/35
f 388/44/7 394/44/7 416/44/7 410/44/7
f 391/44/7 386/44/7 408/44/7 413/44/7
f 402/44/13 398/44/13 420/44/13 424/44/13
f 386/44/7 395/44/7 417/44/7 408/44/7
f 390/44/7 387/44/7 409/44/7 412/44/7
f 403/44/13 400/44/13 422/44/13 425/44/13
f 396/44/13 405/44/13 427/44/13 418/44/13
f 393/44/7 388/44/7 410/44/7 415/44/7
f 405/44/13 399/44/13 421/44/13 427/44/13
f 397/44/13 402/44/13 424/44/13 419/44/13
f 395/44/7 389/44/7 411/44/7 417/44/7
f 406/44/13 397/44/13 419/44/13 428/44/13
f 398/44/13 401/44/13 423/44/13 420/44/13
f 385/44/7 390/44/7 412/44/7 407/44/7
f 399/44/13 404/44/13 426/44/13 421/44/13
f 387/44/7 391/44/7 413/44/7 409/44/7
f 400/44/13 406/44/13 428/44/13 422/44/13
f 438/44/14 449/44/14 440/44/14 429/44/14
f 433/44/15 444/44/15 447/44/15 436/44/15
f 439/44/16 450/44/16 444/44/16 433/44/16
f 435/44/17 446/44/17 441/44/17 430/44/17
f 432/44/18 443/44/18 449/44/18 438/44/18
f 429/44/19 440/44/19 445/44/19 434/44/19
f 434/44/20 445/44/20 442/44/20 431/44/20
f 430/44/21 441/44/21 450/44/21 439/44/21
f 431/44/22 442/44/22 446/44/22 435/44/22
f 437/44/23 448/44/23 443/44/23 432/44/23
f 460/44/24 451/44/24 462/44/24 471/44/24
f 455/44/25 458/44/25 469/44/25 466/44/25
f 461/44/26 455/44/26 466/44/26 472/44/26
f 457/44/27 452/44/27 463/44/27 468/44/27
f 454/44/28 460/44/28 471/44/28 465/44/28
f 451/44/29 456/44/29 467/44/29 462/44/29
f 456/44/30 453/44/30 464/44/30 467/44/30
f 452/44/31 461/44/31 472/44/31 463/44/31
f 453/44/32 457/44/32 468/44/32 464/44/32
f 459/44/33 454/44/33 465/44/33 470/44/33
f 433/44/7 436/44/7 458/44/7 455/44/7
f 436/44/34 447/44/34 469/44/34 458/44/34
f 438/44/7 429/44/7 451/44/7 460/44/7
f 445/44/13 440/44/13 462/44/13 467/44/13
f 448/44/35 437/44/35 459/44/35 470/44/35
f 432/44/7 438/44/7 460/44/7 454/44/7
f 435/44/7 430/44/7 452/44/7 457/44/7
f 446/44/13 442/44/13 464/44/13 468/44/13
f 430/44/7 439/44/7 461/44/7 452/44/7
f 434/44/7 431/44/7 453/44/7 456/44/7
f 447/44/13 444/44/13 466/44/13 469/44/13
f 440/44/13 449/44/13 471/44/13 462/44/13
f 437/44/7 432/44/7 454/44/7 459/44/7
f 449/44/13 443/44/13 465/44/13 471/44/13
f 441/44/13 446/44/13 468/44/13 463/44/13
f 439/44/7 433/44/7 455/44/7 461/44/7
f 450/44/13 441/44/13 463/44/13 472/44/13
f 442/44/13 445/44/13 467/44/13 464/44/13
f 429/44/7 434/44/7 456/44/7 451/44/7
f 443/44/13 448/44/13 470/44/13 465/44/13
f 431/44/7 435/44/7 457/44/7 453/44/7
f 444/44/13 450/44/13 472/44/13 466/44/13
f 475/41/7 476/43/7 474/37/7 473/40/7
f 292/43/2 293/37/2 474/37/2 476/43/2
f 294/40/1 473/40/1 474/37/1 293/37/1
f 479/41/7 477/40/7 478/37/7 480/43/7
f 306/43/2 480/43/2 478/37/2 307/37/2
f 305/40/3 307/37/3 478/37/3 477/40/3
f 473/40/4 294/40/4 295/41/4 475/41/4
f 475/41/3 295/41/3 292/43/3 476/43/3
f 347/38/36 303/38/36 300/37/36 341/37/36
f 344/42/37 297/42/37 302/43/37 343/43/37
f 343/43/38 302/43/38 303/38/38 347/38/38
f 346/39/39 299/39/39 296/41/39 342/41/39
f 345/36/40 301/36/40 298/40/40 340/40/40
f 341/37/41 300/37/41 301/36/41 345/36/41
f 340/40/42 298/40/42 299/39/42 346/39/42
f 342/41/43 296/41/43 297/42/43 344/42/43
f 480/43/1 306/43/1 304/41/1 479/41/1
f 479/41/4 304/41/4 305/40/4 477/40/4
f 356/38/41 315/38/41 312/37/41 350/37/41
f 353/42/44 309/42/44 314/43/44 352/43/44
f 352/43/36 314/43/36 315/38/36 356/38/36
f 355/39/45 311/39/45 308/41/45 351/41/45
f 354/36/46 313/36/46 310/40/46 349/40/46
f 350/37/47 312/37/47 313/36/47 354/36/47
f 349/40/48 310/40/48 311/39/48 355/39/48
f 351/41/49 308/41/49 309/42/49 353/42/49
f 365/38/40 323/38/40 320/37/40 359/37/40
f 362/42/56 317/42/51 322/43/50 361/43/56
f 361/43/52 322/43/52 323/38/52 365/38/52
f 364/39/49 319/39/49 316/41/49 360/41/49
f 363/36/48 321/36/48 318/40/48 358/40/48
f 359/37/42 320/37/42 321/36/42 363/36/42
f 358/40/45 318/40/45 319/39/45 364/39/45
f 360/41/44 316/41/44 317/42/44 362/42/44
f 374/38/42 331/38/42 328/37/42 368/37/42
f 371/42/41 325/42/41 330/43/41 370/43/41
f 370/43/47 330/43/47 331/38/47 374/38/47
f 373/39/53 327/39/53 324/41/53 369/41/53
f 372/36/54 329/36/54 326/40/54 367/40/54
f 368/37/39 328/37/39 329/36/39 372/36/39
f 367/40/55 326/40/55 327/39/55 373/39/55
f 369/41/56 324/41/56 325/42/56 371/42/56
f 383/38/39 339/38/39 336/37/39 377/37/39
f 380/42/40 333/42/40 338/43/40 379/43/40
f 379/43/42 338/43/42 339/38/42 383/38/42
f 382/39/56 335/39/56 332/41/56 378/41/56
f 381/36/37 337/36/37 334/40/37 376/40/37
f 377/37/43 336/37/43 337/36/43 381/36/43
f 376/40/53 334/40/53 335/39/53 382/39/53
f 378/41/41 332/41/41 333/42/41 380/42/41
f 512/45/18 504/36/18 488/36/18 496/45/18
f 498/38/30 507/46/30 491/46/30 482/38/30
f 508/47/22 499/39/22 483/39/22 492/47/22
f 499/39/20 505/48/20 489/48/20 483/39/20
f 505/48/19 500/40/19 484/40/19 489/48/19
f 511/49/21 502/41/21 486/41/21 495/49/21
f 506/50/32 498/38/32 482/38/32 490/50/32
f 502/41/17 508/47/17 492/47/17 486/41/17
f 503/43/24 509/51/24 493/51/24 487/43/24
f 501/37/27 506/50/27 490/50/27 485/37/27
f 510/52/31 501/37/31 485/37/31 494/52/31
f 500/40/14 512/45/14 496/45/14 484/40/14
f 509/51/57 497/42/57 481/42/57 493/51/57
f 497/42/16 511/49/16 495/49/16 481/42/16
f 504/36/58 510/52/58 494/52/58 488/36/58
f 507/46/29 503/43/29 487/43/29 491/46/29
f 523/46/29 539/46/29 535/43/29 519/43/29
f 528/45/18 544/45/18 536/36/18 520/36/18
f 514/38/30 530/38/30 539/46/30 523/46/30
f 524/47/22 540/47/22 531/39/22 515/39/22
f 515/39/20 531/39/20 537/48/20 521/48/20
f 521/48/19 537/48/19 532/40/19 516/40/19
f 527/49/21 543/49/21 534/41/21 518/41/21
f 522/50/32 538/50/32 530/38/32 514/38/32
f 518/41/17 534/41/17 540/47/17 524/47/17
f 519/43/24 535/43/24 541/51/24 525/51/24
f 517/37/27 533/37/27 538/50/27 522/50/27
f 526/52/31 542/52/31 533/37/31 517/37/31
f 516/40/14 532/40/14 544/45/14 528/45/14
f 525/51/57 541/51/57 529/42/57 513/42/57
f 513/42/16 529/42/16 543/49/16 527/49/16
f 520/36/58 536/36/58 542/52/58 526/52/58
f 555/46/29 551/43/29 535/43/29 539/46/29
f 560/45/18 552/36/18 536/36/18 544/45/18
f 546/38/30 555/46/30 539/46/30 530/38/30
f 556/47/22 547/39/22 531/39/22 540/47/22
f 547/39/20 553/48/20 537/48/20 531/39/20
f 553/48/19 548/40/19 532/40/19 537/48/19
f 559/49/21 550/41/21 534/41/21 543/49/21
f 554/50/32 546/38/32 530/38/32 538/50/32
f 550/41/17 556/47/17 540/47/17 534/41/17
f 551/43/24 557/51/24 541/51/24 535/43/24
f 549/37/27 554/50/27 538/50/27 533/37/27
f 558/52/31 549/37/31 533/37/31 542/52/31
f 548/40/14 560/45/14 544/45/14 532/40/14
f 557/51/57 545/42/57 529/42/57 541/51/57
f 545/42/16 559/49/16 543/49/16 529/42/16
f 552/36/58 558/52/58 542/52/58 536/36/58
