# Blender 5.1.2
# www.blender.org
mtllib LabBeaker.mtl
o LabBeaker
v 0.000000 0.000000 0.025191
v 0.017812 0.000000 0.017812
v 0.025191 0.000000 -0.000000
v 0.017812 0.000000 -0.017812
v 0.000000 0.000000 -0.025191
v -0.017812 0.000000 -0.017812
v -0.025191 0.000000 -0.000000
v -0.017812 0.000000 0.017812
v 0.000000 0.000000 -0.000000
v 0.020340 0.004528 0.020340
v 0.000000 0.004528 0.028765
v 0.028765 0.004528 -0.000000
v 0.020340 0.004528 -0.020340
v 0.000000 0.004528 -0.028765
v -0.020340 0.004528 -0.020340
v -0.028765 0.004528 -0.000000
v -0.020340 0.004528 0.020340
v 0.017313 0.085266 0.017313
v 0.020340 0.080898 0.020340
v 0.000000 0.080898 0.028765
v 0.028765 0.080898 -0.000000
v 0.020340 0.080898 -0.020340
v 0.000000 0.071878 -0.028765
v -0.020340 0.080898 -0.020340
v -0.028765 0.080898 -0.000000
v -0.020340 0.080898 0.020340
v 0.000000 0.085266 0.024484
v 0.024484 0.085266 -0.000000
v 0.017100 0.085266 -0.017827
v 0.000000 0.085266 -0.030669
v -0.017100 0.085266 -0.017827
v -0.024484 0.085266 -0.000000
v -0.017313 0.085266 0.017313
v 0.000000 0.011016 -0.000000
v 0.020340 0.085266 0.020340
v 0.000000 0.085266 0.028765
v 0.028765 0.085266 -0.000000
v 0.020340 0.085266 -0.020340
v 0.000000 0.085266 -0.035616
v -0.020340 0.085266 -0.020340
v -0.028765 0.085266 -0.000000
v -0.020340 0.085266 0.020340
v -0.024484 0.081216 -0.000000
v -0.017313 0.081216 0.017313
v 0.024484 0.081216 -0.000000
v 0.017100 0.081216 -0.017827
v 0.000000 0.081216 -0.025373
v 0.000000 0.081216 0.024484
v 0.017313 0.081216 0.017313
v -0.017100 0.081216 -0.017827
v -0.024484 0.011016 -0.000000
v -0.017313 0.011016 0.017313
v 0.024484 0.011016 -0.000000
v 0.017100 0.011016 -0.017827
v 0.000000 0.011016 -0.025373
v 0.000000 0.011016 0.024484
v 0.017313 0.011016 0.017313
v -0.017100 0.011016 -0.017827
vn -0.0000 -1.0000 -0.0000
vn 0.3827 -0.0000 0.9239
vn 0.9239 -0.0000 -0.3827
vn -0.3827 -0.0000 -0.9239
vn -0.9239 -0.0000 0.3827
vn 0.9239 -0.0000 0.3827
vn 0.3827 -0.0000 -0.9239
vn -0.9239 -0.0000 -0.3827
vn -0.3827 -0.0000 0.9239
vn -0.7464 -0.5892 0.3092
vn -0.3092 -0.5892 -0.7464
vn 0.7464 -0.5892 -0.3092
vn 0.3092 -0.5892 0.7464
vn -0.3092 -0.5892 0.7464
vn -0.7464 -0.5892 -0.3092
vn 0.3092 -0.5892 -0.7464
vn 0.7464 -0.5892 0.3092
vn -0.5290 -0.3055 -0.7917
vn 0.5290 -0.3055 -0.7917
vn -0.4465 0.4896 0.7489
vn 0.4465 0.4896 0.7489
vn -0.0000 1.0000 -0.0000
vn -0.4037 -0.0000 0.9149
vn 0.4037 -0.0000 0.9149
vt 0.000000 0.000000
s 0
f 2/1/1 9/1/1 3/1/1
f 9/1/1 4/1/1 3/1/1
f 4/1/1 9/1/1 5/1/1
f 5/1/1 9/1/1 6/1/1
f 6/1/1 9/1/1 7/1/1
f 7/1/1 9/1/1 8/1/1
f 8/1/1 9/1/1 1/1/1
f 1/1/1 9/1/1 2/1/1
f 11/1/2 10/1/2 19/1/2 20/1/2
f 12/1/3 13/1/3 22/1/3 21/1/3
f 14/1/4 15/1/4 24/1/4 23/1/4
f 16/1/5 17/1/5 26/1/5 25/1/5
f 10/1/6 12/1/6 21/1/6 19/1/6
f 13/1/7 14/1/7 23/1/7 22/1/7
f 15/1/8 16/1/8 25/1/8 24/1/8
f 17/1/9 11/1/9 20/1/9 26/1/9
f 7/1/10 8/1/10 17/1/10 16/1/10
f 5/1/11 6/1/11 15/1/11 14/1/11
f 3/1/12 4/1/12 13/1/12 12/1/12
f 1/1/13 2/1/13 10/1/13 11/1/13
f 8/1/14 1/1/14 11/1/14 17/1/14
f 6/1/15 7/1/15 16/1/15 15/1/15
f 4/1/16 5/1/16 14/1/16 13/1/16
f 2/1/17 3/1/17 12/1/17 10/1/17
f 26/1/9 20/1/9 36/1/9 42/1/9
f 20/1/2 19/1/2 35/1/2 36/1/2
f 21/1/3 22/1/3 38/1/3 37/1/3
f 23/1/18 24/1/18 40/1/18 39/1/18
f 25/1/5 26/1/5 42/1/5 41/1/5
f 19/1/6 21/1/6 37/1/6 35/1/6
f 22/1/19 23/1/19 39/1/19 38/1/19
f 24/1/8 25/1/8 41/1/8 40/1/8
f 18/1/8 28/1/8 45/1/8 49/1/8
f 29/1/20 30/1/20 47/1/20 46/1/20
f 31/1/6 32/1/6 43/1/6 50/1/6
f 33/1/7 27/1/7 48/1/7 44/1/7
f 27/1/4 18/1/4 49/1/4 48/1/4
f 28/1/5 29/1/5 46/1/5 45/1/5
f 30/1/21 31/1/21 50/1/21 47/1/21
f 32/1/3 33/1/3 44/1/3 43/1/3
f 18/1/22 27/1/22 36/1/22 35/1/22
f 28/1/22 18/1/22 35/1/22 37/1/22
f 29/1/22 28/1/22 37/1/22 38/1/22
f 30/1/22 29/1/22 38/1/22 39/1/22
f 31/1/22 30/1/22 39/1/22 40/1/22
f 32/1/22 31/1/22 40/1/22 41/1/22
f 33/1/22 32/1/22 41/1/22 42/1/22
f 27/1/22 33/1/22 42/1/22 36/1/22
f 49/1/8 45/1/8 53/1/8 57/1/8
f 46/1/23 47/1/23 55/1/23 54/1/23
f 50/1/6 43/1/6 51/1/6 58/1/6
f 44/1/7 48/1/7 56/1/7 52/1/7
f 48/1/4 49/1/4 57/1/4 56/1/4
f 45/1/5 46/1/5 54/1/5 53/1/5
f 47/1/24 50/1/24 58/1/24 55/1/24
f 43/1/3 44/1/3 52/1/3 51/1/3
f 57/1/22 53/1/22 34/1/22
f 34/1/22 53/1/22 54/1/22
f 54/1/22 55/1/22 34/1/22
f 55/1/22 58/1/22 34/1/22
f 58/1/22 51/1/22 34/1/22
f 51/1/22 52/1/22 34/1/22
f 52/1/22 56/1/22 34/1/22
f 56/1/22 57/1/22 34/1/22
