# Blender 5.1.2
# www.blender.org
mtllib LabBottleSpray.mtl
o LabBottleSpray
v -0.000000 0.000000 0.032859
v -0.000000 0.201331 0.013130
v -0.023235 0.000000 0.023235
v -0.009284 0.201331 0.009284
v -0.032859 0.000000 0.000000
v -0.013130 0.201331 0.000000
v -0.023235 0.000000 -0.023235
v -0.009284 0.201331 -0.009284
v -0.000000 0.000000 -0.032859
v -0.000000 0.201331 -0.013130
v 0.023235 0.000000 -0.023235
v 0.009284 0.201331 -0.009284
v 0.032859 0.000000 0.000000
v 0.013130 0.201331 0.000000
v 0.023235 0.000000 0.023235
v 0.009284 0.201331 0.009284
v 0.000000 0.154322 0.037858
v -0.026770 0.154322 0.026770
v -0.037858 0.154322 0.000000
v -0.026770 0.154322 -0.026770
v 0.000000 0.154322 -0.037858
v 0.026770 0.154322 -0.026770
v 0.037858 0.154322 0.000000
v 0.026770 0.154322 0.026770
v -0.026770 0.008390 0.026770
v -0.037858 0.008390 0.000000
v -0.026770 0.008390 -0.026770
v 0.000000 0.008390 -0.037858
v 0.026770 0.008390 -0.026770
v 0.037858 0.008390 0.000000
v 0.026770 0.008390 0.026770
v 0.000000 0.008390 0.037858
v -0.009284 0.222518 0.009284
v -0.000000 0.222518 0.013130
v -0.013130 0.222518 0.000000
v -0.009284 0.222518 -0.009284
v -0.000000 0.222518 -0.013130
v 0.009284 0.222518 -0.009284
v 0.013130 0.222518 0.000000
v 0.009284 0.222518 0.009284
v -0.005101 0.253954 0.004394
v 0.000000 0.252881 0.006214
v -0.007214 0.256545 0.000000
v -0.005101 0.259136 -0.004394
v 0.000000 0.260210 -0.006214
v 0.005101 0.259136 -0.004394
v 0.007214 0.256545 0.000000
v 0.005101 0.253954 0.004394
v -0.000000 0.237700 0.009672
v -0.007192 0.238236 0.006839
v 0.007192 0.238236 0.006839
v 0.007192 0.240827 -0.006839
v 0.010172 0.239532 0.000000
v -0.007192 0.240827 -0.006839
v -0.000000 0.241364 -0.009672
v -0.010172 0.239532 0.000000
v -0.002818 0.265356 -0.046092
v -0.003986 0.263924 -0.043665
v 0.000000 0.265949 -0.047098
v 0.002818 0.265356 -0.046092
v 0.003986 0.263924 -0.043665
v 0.003974 0.255240 -0.047443
v -0.003974 0.255240 -0.047443
v 0.005620 0.254524 -0.043665
v 0.000000 0.255537 -0.049008
v -0.005620 0.254524 -0.043665
v 0.000000 0.256545 -0.000000
v -0.005101 0.259684 0.007773
v 0.000000 0.258611 0.009593
v 0.005101 0.259684 0.007773
v 0.000000 0.262275 0.003379
v -0.005583 0.247715 -0.025276
v 0.000000 0.262943 -0.024325
v 0.003960 0.262195 -0.024369
v 0.000000 0.247741 -0.025351
v 0.005583 0.247715 -0.025276
v 0.005600 0.260389 -0.024474
v 0.007896 0.247651 -0.025095
v -0.003960 0.262195 -0.024369
v -0.005600 0.260389 -0.024474
v -0.007896 0.247651 -0.025095
v -0.004778 0.251375 -0.035692
v 0.003389 0.263757 -0.034919
v 0.004793 0.262212 -0.035010
v -0.003389 0.263757 -0.034919
v 0.000000 0.264397 -0.034882
v 0.000000 0.251398 -0.035756
v 0.004778 0.251375 -0.035692
v 0.006758 0.251321 -0.035537
v -0.004793 0.262212 -0.035010
v -0.006758 0.251321 -0.035537
v 0.000000 0.215869 -0.052038
v 0.000000 0.214201 -0.047292
v 0.002180 0.215858 -0.052009
v 0.002547 0.214189 -0.047258
v 0.003082 0.215834 -0.051938
v 0.003601 0.214160 -0.047176
v -0.003082 0.215834 -0.051938
v -0.003601 0.214160 -0.047176
v -0.002547 0.214189 -0.047258
v -0.002180 0.215858 -0.052009
v 0.000000 0.229840 -0.033194
v 0.000000 0.232503 -0.040770
v 0.003479 0.232486 -0.040723
v 0.004065 0.229821 -0.033140
v 0.004920 0.232447 -0.040611
v 0.005749 0.229775 -0.033008
v -0.004920 0.232447 -0.040611
v -0.005749 0.229775 -0.033008
v -0.003479 0.232486 -0.040723
v -0.004065 0.229821 -0.033140
vn -0.3442 0.4371 0.8309
vn -0.8309 0.4371 0.3442
vn -0.8309 0.4371 -0.3442
vn -0.3442 0.4371 -0.8309
vn 0.3442 0.4371 -0.8309
vn 0.8309 0.4371 -0.3442
vn -0.9239 -0.0000 0.3827
vn 0.8309 0.4371 0.3442
vn 0.3442 0.4371 0.8309
vn -0.0000 -1.0000 -0.0000
vn 0.3827 -0.0000 0.9239
vn 0.9239 -0.0000 0.3827
vn 0.9239 -0.0000 -0.3827
vn 0.3827 -0.0000 -0.9239
vn -0.3827 -0.0000 -0.9239
vn -0.9239 -0.0000 -0.3827
vn -0.3827 -0.0000 0.9239
vn -0.3352 -0.4823 0.8093
vn -0.8093 -0.4823 0.3352
vn -0.8093 -0.4823 -0.3352
vn -0.3352 -0.4823 -0.8093
vn 0.3352 -0.4823 -0.8093
vn 0.8093 -0.4823 -0.3352
vn 0.8093 -0.4823 0.3352
vn 0.3352 -0.4823 0.8093
vn -0.3241 0.1986 0.9249
vn -0.0000 0.8614 0.5080
vn 0.3241 0.1986 0.9249
vn 0.7304 0.6801 0.0628
vn 0.0222 -0.9520 -0.3054
vn -0.8744 0.1689 0.4548
vn 0.8744 0.1689 0.4548
vn -0.0222 -0.9520 -0.3054
vn 0.1741 0.9765 0.1273
vn -0.9140 0.1566 -0.3743
vn 0.3751 0.1660 -0.9120
vn 0.9027 0.1688 0.3957
vn -0.9027 0.1688 0.3957
vn -0.3751 0.1660 -0.9120
vn 0.9140 0.1566 -0.3743
vn 0.3626 0.1985 0.9106
vn -0.3626 0.1985 0.9106
vn 0.9188 0.1564 -0.3624
vn -0.3680 0.1661 -0.9149
vn 0.3680 0.1661 -0.9149
vn -0.9188 0.1564 -0.3624
vn 0.1786 -0.9214 -0.3451
vn -0.7304 0.6801 0.0628
vn -0.9824 0.1759 -0.0623
vn -0.1741 0.9765 0.1273
vn 0.9824 0.1759 -0.0623
vn -0.1786 -0.9214 -0.3451
vn 0.7071 0.3592 -0.6091
vn -0.3827 -0.4693 0.7958
vn 0.3827 -0.4693 0.7958
vn -0.7071 0.3592 -0.6091
vn -0.2089 -0.9187 -0.3353
vn 0.9840 0.1745 -0.0351
vn -0.1680 0.9753 0.1433
vn -0.9840 0.1745 -0.0351
vn -0.7292 0.6816 0.0606
vn 0.2089 -0.9187 -0.3353
vn 0.1680 0.9753 0.1433
vn -0.0418 -0.9306 -0.3638
vn 0.0418 -0.9306 -0.3638
vn 0.7292 0.6816 0.0606
vn -0.0764 -0.6642 0.7436
vn 0.9828 0.1794 -0.0442
vn -0.1854 0.9735 0.1341
vn -0.9828 0.1794 -0.0442
vn -0.7407 0.6693 0.0590
vn 0.0799 0.5555 -0.8277
vn 0.1854 0.9735 0.1341
vn -0.0131 -0.6695 0.7427
vn 0.0137 0.5608 -0.8278
vn 0.7407 0.6693 0.0590
vn -0.0000 -0.9434 -0.3316
vn -0.9925 -0.0291 -0.1184
vn 0.9925 -0.0291 -0.1184
vn -0.0799 0.5555 -0.8277
vn -0.0137 0.5608 -0.8278
vn 0.0764 -0.6642 0.7436
vn 0.0131 -0.6695 0.7427
vn 0.0142 -0.4013 0.9158
vn 0.0823 -0.3951 0.9149
vn -0.0142 0.2565 -0.9664
vn -0.0823 0.2512 -0.9644
vn 0.9897 -0.0616 -0.1295
vn -0.9897 -0.0616 -0.1295
vn 0.0142 0.2565 -0.9664
vn -0.0142 -0.4013 0.9158
vn 0.0823 0.2512 -0.9644
vn -0.0823 -0.3951 0.9149
vt 1.000000 0.917840
vt 1.000000 1.000000
vt 0.875000 1.000000
vt 0.875000 0.917840
vt 0.750000 1.000000
vt 0.750000 0.917840
vt 0.625000 1.000000
vt 0.625000 0.917840
vt 0.500000 1.000000
vt 0.500000 0.917840
vt 0.375000 1.000000
vt 0.375000 0.917840
vt 0.250000 1.000000
vt 0.250000 0.917840
vt 0.125000 1.000000
vt 0.125000 0.917840
vt 0.000000 1.000000
vt 0.000000 0.917840
vt 0.750000 0.490000
vt 0.919706 0.419706
vt 0.990000 0.250000
vt 0.919706 0.080294
vt 0.750000 0.010000
vt 0.580294 0.080294
vt 0.510000 0.250000
vt 0.580294 0.419706
vt 0.125000 0.519803
vt 0.000000 0.519803
vt 0.250000 0.519803
vt 0.375000 0.519803
vt 0.500000 0.519803
vt 0.625000 0.519803
vt 0.750000 0.519803
vt 0.875000 0.519803
vt 1.000000 0.519803
vt 1.000000 0.500000
vt 0.875000 0.500000
vt 0.750000 0.500000
vt 0.625000 0.500000
vt 0.500000 0.500000
vt 0.375000 0.500000
vt 0.250000 0.500000
vt 0.125000 0.500000
vt 0.000000 0.500000
vt 0.875000 1.000000
vt 0.419706 0.419706
vt 0.250000 0.250000
vt 0.490000 0.250000
vt 0.125000 1.000000
vt 0.080294 0.080294
vt 0.010000 0.250000
vt 0.010000 0.250000
vt 0.375000 1.000000
vt 0.375000 1.000000
vt 0.750000 1.000000
vt 0.250000 0.010000
vt 0.490000 0.250000
vt 0.419706 0.080294
vt 0.080294 0.419706
vt 0.250000 0.490000
vt 0.625000 1.000000
vt 0.250000 0.010000
vt 0.250000 1.000000
vt 0.375000 1.000000
vt 0.250000 1.000000
vt 0.500000 1.000000
vt 0.750000 1.000000
vt 0.625000 1.000000
s 0
f 17/1/1 2/2/1 4/3/1 18/4/1
f 18/4/2 4/3/2 6/5/2 19/6/2
f 19/6/3 6/5/3 8/7/3 20/8/3
f 20/8/4 8/7/4 10/9/4 21/10/4
f 21/10/5 10/9/5 12/11/5 22/12/5
f 22/12/6 12/11/6 14/13/6 23/14/6
f 6/5/7 4/3/7 33/3/7 35/5/7
f 23/14/8 14/13/8 16/15/8 24/16/8
f 24/16/9 16/15/9 2/17/9 17/18/9
f 1/19/10 3/20/10 5/21/10 7/22/10 9/23/10 11/24/10 13/25/10 15/26/10
f 31/27/11 24/16/11 17/18/11 32/28/11
f 30/29/12 23/14/12 24/16/12 31/27/12
f 29/30/13 22/12/13 23/14/13 30/29/13
f 28/31/14 21/10/14 22/12/14 29/30/14
f 27/32/15 20/8/15 21/10/15 28/31/15
f 26/33/16 19/6/16 20/8/16 27/32/16
f 25/34/7 18/4/7 19/6/7 26/33/7
f 32/35/17 17/1/17 18/4/17 25/34/17
f 1/36/18 32/35/18 25/34/18 3/37/18
f 3/37/19 25/34/19 26/33/19 5/38/19
f 5/38/20 26/33/20 27/32/20 7/39/20
f 7/39/21 27/32/21 28/31/21 9/40/21
f 9/40/22 28/31/22 29/30/22 11/41/22
f 11/41/23 29/30/23 30/29/23 13/42/23
f 13/42/24 30/29/24 31/27/24 15/43/24
f 15/43/25 31/27/25 32/28/25 1/44/25
f 50/45/26 49/2/26 42/2/26 41/3/26
f 12/11/14 10/9/14 37/9/14 38/11/14
f 2/17/11 16/15/11 40/15/11 34/17/11
f 4/3/17 2/2/17 34/2/17 33/3/17
f 8/7/16 6/5/16 35/5/16 36/7/16
f 14/13/13 12/11/13 38/11/13 39/13/13
f 10/9/15 8/7/15 36/7/15 37/9/15
f 16/15/12 14/13/12 39/13/12 40/15/12
f 41/46/27 67/47/27 43/48/27
f 49/17/28 51/49/28 48/15/28 42/17/28
f 83/50/29 84/51/29 61/52/29 60/50/29
f 88/53/30 87/9/30 65/9/30 62/54/30
f 56/55/31 50/45/31 41/3/31 43/5/31
f 51/49/32 53/13/32 47/13/32 48/15/32
f 87/9/33 82/7/33 63/7/33 65/9/33
f 86/56/34 83/50/34 60/50/34 59/56/34
f 36/7/35 35/5/35 56/55/35 54/7/35
f 38/11/36 37/9/36 55/9/36 52/54/36
f 40/15/37 39/13/37 53/13/37 51/49/37
f 35/5/38 33/3/38 50/45/38 56/55/38
f 37/9/39 36/7/39 54/7/39 55/9/39
f 39/13/40 38/11/40 52/54/40 53/13/40
f 34/17/41 40/15/41 51/49/41 49/17/41
f 33/3/42 34/2/42 49/2/42 50/45/42
f 64/13/43 62/54/43 60/11/43 61/13/43
f 65/9/44 63/7/44 57/7/44 59/9/44
f 62/54/45 65/9/45 59/9/45 60/11/45
f 63/7/46 66/55/46 58/5/46 57/7/46
f 89/13/47 88/53/47 62/54/47 64/13/47
f 90/57/48 85/58/48 57/58/48 58/48/48
f 91/55/49 90/5/49 58/5/49 66/55/49
f 85/58/50 86/56/50 59/56/50 57/58/50
f 84/13/51 89/13/51 64/13/51 61/13/51
f 82/7/52 91/55/52 66/55/52 63/7/52
f 70/59/27 71/47/27 69/60/27
f 43/48/27 67/47/27 44/58/27
f 44/58/27 67/47/27 45/56/27
f 45/56/27 67/47/27 46/50/27
f 46/50/27 67/47/27 47/52/27
f 47/52/27 67/47/27 48/59/27
f 48/59/53 67/47/53 71/47/53 70/59/53
f 41/3/54 42/2/54 69/2/54 68/3/54
f 69/60/27 71/47/27 68/46/27
f 42/17/55 48/15/55 70/15/55 69/17/55
f 67/47/56 41/46/56 68/46/56 71/47/56
f 54/7/57 56/55/57 81/55/57 72/61/57
f 47/13/58 53/13/58 78/13/58 77/13/58
f 44/58/59 45/56/59 73/62/59 79/58/59
f 56/55/60 43/5/60 80/5/60 81/55/60
f 43/48/61 44/58/61 79/58/61 80/57/61
f 53/13/62 52/54/62 76/11/62 78/13/62
f 45/56/63 46/50/63 74/50/63 73/62/63
f 55/9/64 54/7/64 72/61/64 75/9/64
f 52/54/65 55/9/65 75/9/65 76/11/65
f 46/50/66 47/52/66 77/52/66 74/50/66
f 107/63/67 105/11/67 95/11/67 97/13/67
f 77/13/68 78/13/68 89/13/68 84/13/68
f 79/58/69 73/62/69 86/56/69 85/58/69
f 81/55/70 80/5/70 90/5/70 91/55/70
f 80/57/71 79/58/71 85/58/71 90/57/71
f 104/64/72 106/65/72 96/13/72 94/53/72
f 73/62/73 74/50/73 83/50/73 86/56/73
f 105/11/74 102/9/74 93/9/74 95/11/74
f 103/66/75 104/64/75 94/53/75 92/9/75
f 74/50/76 77/52/76 84/51/76 83/50/76
f 100/61/77 99/55/77 98/55/77 101/7/77
f 97/13/77 95/11/77 94/53/77 96/13/77
f 93/9/77 100/61/77 101/7/77 92/9/77
f 95/11/77 93/9/77 92/9/77 94/53/77
f 109/55/78 108/67/78 98/55/78 99/55/78
f 106/65/79 107/63/79 97/13/79 96/13/79
f 108/67/80 110/68/80 101/7/80 98/55/80
f 110/68/81 103/66/81 92/9/81 101/7/81
f 111/61/82 109/55/82 99/55/82 100/61/82
f 102/9/83 111/61/83 100/61/83 93/9/83
f 75/9/84 72/61/84 111/61/84 102/9/84
f 72/61/85 81/55/85 109/55/85 111/61/85
f 82/7/86 87/9/86 103/66/86 110/68/86
f 91/55/87 82/7/87 110/68/87 108/67/87
f 89/13/88 78/13/88 107/63/88 106/65/88
f 81/55/89 91/55/89 108/67/89 109/55/89
f 87/9/90 88/53/90 104/64/90 103/66/90
f 76/11/91 75/9/91 102/9/91 105/11/91
f 88/53/92 89/13/92 106/65/92 104/64/92
f 78/13/93 76/11/93 105/11/93 107/63/93
