# Blender 5.1.2
# www.blender.org
mtllib LabCylinder.mtl
o LabCylinder
v 0.000000 0.000000 0.025191
v 0.017812 0.000000 0.017812
v 0.025191 0.000000 -0.000000
v 0.017812 0.000000 -0.017812
v 0.000000 0.000000 -0.025191
v -0.017812 0.000000 -0.017812
v -0.025191 0.000000 -0.000000
v -0.017812 0.000000 0.017812
v 0.000000 0.000000 -0.000000
v 0.006820 0.005759 0.006820
v 0.000000 0.005759 0.009645
v 0.009645 0.005759 -0.000000
v 0.006820 0.005759 -0.006820
v 0.000000 0.005759 -0.009645
v -0.006820 0.005759 -0.006820
v -0.009645 0.005759 0.000000
v -0.006820 0.005759 0.006820
v 0.000000 0.206125 -0.000000
v 0.017812 0.002031 0.017812
v 0.000000 0.002031 0.025191
v 0.025191 0.002031 -0.000000
v 0.017812 0.002031 -0.017812
v 0.000000 0.002031 -0.025191
v -0.017812 0.002031 -0.017812
v -0.025191 0.002031 -0.000000
v -0.017812 0.002031 0.017812
v -0.009645 0.202795 0.000000
v -0.006820 0.202795 0.006820
v 0.009645 0.202795 -0.000000
v 0.006820 0.202795 -0.006820
v 0.000000 0.202795 -0.009645
v 0.000000 0.202795 0.009645
v 0.006820 0.202795 0.006820
v -0.006820 0.202795 -0.006820
v -0.009645 0.206125 0.000000
v -0.006820 0.206125 0.006820
v 0.009645 0.206125 -0.000000
v 0.006820 0.206125 -0.006820
v 0.000000 0.206125 -0.012953
v 0.000000 0.206125 0.009645
v 0.006820 0.206125 0.006820
v -0.006820 0.206125 -0.006820
vn -0.0000 -1.0000 -0.0000
vn 0.9239 -0.0000 -0.3827
vn -0.3827 -0.0000 -0.9239
vn -0.9239 -0.0000 0.3827
vn 0.9239 -0.0000 0.3827
vn 0.3827 -0.0000 -0.9239
vn -0.9239 -0.0000 -0.3827
vn -0.3827 -0.0000 0.9239
vn 0.3827 -0.0000 0.9239
vn 0.0961 0.9679 0.2321
vn 0.2321 0.9679 0.0961
vn 0.2321 0.9679 -0.0961
vn 0.0961 0.9679 -0.2321
vn -0.0961 0.9679 -0.2321
vn -0.2321 0.9679 -0.0961
vn -0.2321 0.9679 0.0961
vn -0.0961 0.9679 0.2321
vn -0.5070 -0.3834 -0.7720
vn 0.5070 -0.3834 -0.7720
vn -0.0000 1.0000 -0.0000
vt 0.000000 0.000000
s 0
f 2/1/1 9/1/1 3/1/1
f 9/1/1 4/1/1 3/1/1
f 4/1/1 9/1/1 5/1/1
f 5/1/1 9/1/1 6/1/1
f 6/1/1 9/1/1 7/1/1
f 7/1/1 9/1/1 8/1/1
f 8/1/1 9/1/1 1/1/1
f 1/1/1 9/1/1 2/1/1
f 12/1/2 13/1/2 30/1/2 29/1/2
f 14/1/3 15/1/3 34/1/3 31/1/3
f 16/1/4 17/1/4 28/1/4 27/1/4
f 10/1/5 12/1/5 29/1/5 33/1/5
f 13/1/6 14/1/6 31/1/6 30/1/6
f 15/1/7 16/1/7 27/1/7 34/1/7
f 17/1/8 11/1/8 32/1/8 28/1/8
f 11/1/9 10/1/9 33/1/9 32/1/9
f 8/1/8 1/1/8 20/1/8 26/1/8
f 6/1/7 7/1/7 25/1/7 24/1/7
f 4/1/6 5/1/6 23/1/6 22/1/6
f 2/1/5 3/1/5 21/1/5 19/1/5
f 7/1/4 8/1/4 26/1/4 25/1/4
f 5/1/3 6/1/3 24/1/3 23/1/3
f 3/1/2 4/1/2 22/1/2 21/1/2
f 1/1/9 2/1/9 19/1/9 20/1/9
f 10/1/10 11/1/10 20/1/10 19/1/10
f 12/1/11 10/1/11 19/1/11 21/1/11
f 13/1/12 12/1/12 21/1/12 22/1/12
f 14/1/13 13/1/13 22/1/13 23/1/13
f 15/1/14 14/1/14 23/1/14 24/1/14
f 16/1/15 15/1/15 24/1/15 25/1/15
f 17/1/16 16/1/16 25/1/16 26/1/16
f 11/1/17 17/1/17 26/1/17 20/1/17
f 32/1/9 33/1/9 41/1/9 40/1/9
f 29/1/2 30/1/2 38/1/2 37/1/2
f 31/1/18 34/1/18 42/1/18 39/1/18
f 27/1/4 28/1/4 36/1/4 35/1/4
f 33/1/5 29/1/5 37/1/5 41/1/5
f 30/1/19 31/1/19 39/1/19 38/1/19
f 34/1/7 27/1/7 35/1/7 42/1/7
f 28/1/8 32/1/8 40/1/8 36/1/8
f 41/1/20 37/1/20 18/1/20
f 18/1/20 37/1/20 38/1/20
f 38/1/20 39/1/20 18/1/20
f 39/1/20 42/1/20 18/1/20
f 42/1/20 35/1/20 18/1/20
f 35/1/20 36/1/20 18/1/20
f 36/1/20 40/1/20 18/1/20
f 40/1/20 41/1/20 18/1/20
