# Blender 5.1.2
# www.blender.org
mtllib LabFlask.mtl
o LabConicalFlask
v 0.000000 0.000000 0.032748
v 0.023156 0.000000 0.023156
v 0.032748 0.000000 -0.000000
v 0.023156 0.000000 -0.023156
v 0.000000 0.000000 -0.032748
v -0.023156 0.000000 -0.023156
v -0.032748 0.000000 -0.000000
v -0.023156 0.000000 0.023156
v 0.000000 0.000000 -0.000000
v 0.026261 0.005247 0.026261
v 0.000000 0.005247 0.037138
v 0.037138 0.005247 -0.000000
v 0.026261 0.005247 -0.026261
v 0.000000 0.005247 -0.037138
v -0.026261 0.005247 -0.026261
v -0.037138 0.005247 -0.000000
v -0.026261 0.005247 0.026261
v 0.005927 0.102385 0.005927
v 0.005927 0.072539 0.005927
v 0.000000 0.072539 0.008383
v 0.008383 0.072539 -0.000000
v 0.005927 0.072539 -0.005927
v 0.000000 0.072539 -0.008383
v -0.005927 0.072539 -0.005927
v -0.008383 0.072539 -0.000000
v -0.005927 0.072539 0.005927
v 0.006921 0.106977 0.006921
v 0.000000 0.102385 0.008383
v 0.008383 0.102385 -0.000000
v 0.005927 0.102385 -0.005927
v 0.000000 0.102385 -0.008383
v -0.005927 0.102385 -0.005927
v -0.008383 0.102385 -0.000000
v -0.005927 0.102385 0.005927
v 0.006921 0.113090 0.006921
v 0.000000 0.106977 0.009788
v 0.009788 0.106977 -0.000000
v 0.006921 0.106977 -0.006921
v 0.000000 0.106977 -0.009788
v -0.006921 0.106977 -0.006921
v -0.009788 0.106977 -0.000000
v -0.006921 0.106977 0.006921
v 0.000000 0.113090 0.009788
v 0.009788 0.113090 -0.000000
v 0.006921 0.113090 -0.006921
v 0.000000 0.113090 -0.009788
v -0.006921 0.113090 -0.006921
v -0.009788 0.113090 -0.000000
v -0.006921 0.113090 0.006921
v 0.000000 0.113090 -0.000000
vn -0.0000 -1.0000 -0.0000
vn 0.8593 0.3672 0.3559
vn 0.3559 0.3672 -0.8593
vn -0.8593 0.3672 -0.3559
vn -0.3559 0.3672 0.8593
vn 0.3559 0.3672 0.8593
vn 0.8593 0.3672 -0.3559
vn -0.3559 0.3672 -0.8593
vn -0.8593 0.3672 0.3559
vn 0.3028 -0.6116 0.7309
vn -0.3028 -0.6116 0.7309
vn -0.7309 -0.6116 -0.3028
vn 0.3028 -0.6116 -0.7309
vn 0.7309 -0.6116 0.3028
vn -0.7309 -0.6116 0.3028
vn -0.3028 -0.6116 -0.7309
vn 0.7309 -0.6116 -0.3028
vn -0.9239 -0.0000 0.3827
vn 0.9239 -0.0000 0.3827
vn 0.3827 -0.0000 -0.9239
vn -0.9239 -0.0000 -0.3827
vn -0.3827 -0.0000 0.9239
vn 0.3827 -0.0000 0.9239
vn 0.9239 -0.0000 -0.3827
vn -0.3827 -0.0000 -0.9239
vn 0.8890 -0.2721 0.3682
vn 0.3682 -0.2721 -0.8890
vn -0.8890 -0.2721 -0.3682
vn -0.3682 -0.2721 0.8890
vn 0.3682 -0.2721 0.8890
vn 0.8890 -0.2721 -0.3682
vn -0.3682 -0.2721 -0.8890
vn -0.8890 -0.2721 0.3682
vn -0.0000 1.0000 -0.0000
vt 0.000000 0.000000
s 0
f 2/1/1 9/1/1 3/1/1
f 9/1/1 4/1/1 3/1/1
f 4/1/1 9/1/1 5/1/1
f 5/1/1 9/1/1 6/1/1
f 6/1/1 9/1/1 7/1/1
f 7/1/1 9/1/1 8/1/1
f 8/1/1 9/1/1 1/1/1
f 1/1/1 9/1/1 2/1/1
f 10/1/2 12/1/2 21/1/2 19/1/2
f 13/1/3 14/1/3 23/1/3 22/1/3
f 15/1/4 16/1/4 25/1/4 24/1/4
f 17/1/5 11/1/5 20/1/5 26/1/5
f 11/1/6 10/1/6 19/1/6 20/1/6
f 12/1/7 13/1/7 22/1/7 21/1/7
f 14/1/8 15/1/8 24/1/8 23/1/8
f 16/1/9 17/1/9 26/1/9 25/1/9
f 1/1/10 2/1/10 10/1/10 11/1/10
f 8/1/11 1/1/11 11/1/11 17/1/11
f 6/1/12 7/1/12 16/1/12 15/1/12
f 4/1/13 5/1/13 14/1/13 13/1/13
f 2/1/14 3/1/14 12/1/14 10/1/14
f 7/1/15 8/1/15 17/1/15 16/1/15
f 5/1/16 6/1/16 15/1/16 14/1/16
f 3/1/17 4/1/17 13/1/17 12/1/17
f 25/1/18 26/1/18 34/1/18 33/1/18
f 19/1/19 21/1/19 29/1/19 18/1/19
f 22/1/20 23/1/20 31/1/20 30/1/20
f 24/1/21 25/1/21 33/1/21 32/1/21
f 26/1/22 20/1/22 28/1/22 34/1/22
f 20/1/23 19/1/23 18/1/23 28/1/23
f 21/1/24 22/1/24 30/1/24 29/1/24
f 23/1/25 24/1/25 32/1/25 31/1/25
f 18/1/26 29/1/26 37/1/26 27/1/26
f 30/1/27 31/1/27 39/1/27 38/1/27
f 32/1/28 33/1/28 41/1/28 40/1/28
f 34/1/29 28/1/29 36/1/29 42/1/29
f 28/1/30 18/1/30 27/1/30 36/1/30
f 29/1/31 30/1/31 38/1/31 37/1/31
f 31/1/32 32/1/32 40/1/32 39/1/32
f 33/1/33 34/1/33 42/1/33 41/1/33
f 42/1/22 36/1/22 43/1/22 49/1/22
f 36/1/23 27/1/23 35/1/23 43/1/23
f 37/1/24 38/1/24 45/1/24 44/1/24
f 39/1/25 40/1/25 47/1/25 46/1/25
f 41/1/18 42/1/18 49/1/18 48/1/18
f 27/1/19 37/1/19 44/1/19 35/1/19
f 38/1/20 39/1/20 46/1/20 45/1/20
f 40/1/21 41/1/21 48/1/21 47/1/21
f 35/1/34 44/1/34 50/1/34
f 50/1/34 44/1/34 45/1/34
f 45/1/34 46/1/34 50/1/34
f 46/1/34 47/1/34 50/1/34
f 47/1/34 48/1/34 50/1/34
f 48/1/34 49/1/34 50/1/34
f 49/1/34 43/1/34 50/1/34
f 43/1/34 35/1/34 50/1/34
