# Blender 5.2.0 LTS
# www.blender.org
mtllib RailDiagonal.mtl
o RailDiagonal
v -4.965046 -0.000000 2.535355
v -4.965045 -0.000000 2.464646
v -2.465043 -0.000000 4.964648
v -2.535757 -0.000000 4.964645
v -2.392362 -0.000000 4.821280
v -2.392365 -0.000000 4.891986
v -4.892385 -0.000000 2.391989
v -4.821673 -0.000000 2.391990
v -4.829618 -0.000000 2.600073
v -4.900329 -0.000000 2.600072
v -4.756958 -0.000000 2.456704
v -4.756958 -0.000000 2.527415
v -2.527764 -0.000000 4.756589
v -2.457052 -0.000000 4.756590
v -2.600438 -0.000000 4.899964
v -2.600436 -0.000000 4.829256
v -3.644334 -0.000000 3.785358
v -3.715047 -0.000000 3.785355
v -3.785757 -0.000000 3.714645
v -3.785755 -0.000000 3.643936
v -3.713086 -0.000000 3.571277
v -3.642373 -0.000000 3.571280
v -3.571662 -0.000000 3.641990
v -3.571664 -0.000000 3.712698
v -3.677728 1.950000 3.535924
v -3.713086 2.000000 3.571277
v -3.571664 2.000000 3.712698
v -3.536306 1.950000 3.677345
v -3.679691 1.950000 3.820711
v -3.644334 2.000000 3.785358
v -3.785755 2.000000 3.643936
v -3.821113 1.950000 3.679289
v -3.785755 1.800000 3.643936
v -3.785757 1.850000 3.714645
v -3.642373 1.850000 3.571279
v -3.713086 1.800000 3.571277
v -3.571664 1.800000 3.712698
v -3.571662 1.850000 3.641990
v -3.715047 1.850000 3.785355
v -3.644334 1.800000 3.785358
v -4.900329 0.950000 2.600072
v -4.829618 1.000000 2.600073
v -4.829618 0.800000 2.600073
v -4.900329 0.850000 2.600072
v -4.892385 1.000000 2.391989
v -4.821673 1.000000 2.391990
v -4.821673 0.800000 2.391990
v -4.892385 0.800000 2.391989
v -4.756958 0.850000 2.456705
v -4.756958 0.800000 2.527415
v -4.756958 1.000000 2.527415
v -4.756958 0.950000 2.456705
v -4.965045 0.800000 2.464646
v -4.965046 0.800000 2.535355
v -4.965046 1.000000 2.535355
v -4.965045 1.000000 2.464646
v -3.642373 0.950000 3.571279
v -3.713086 1.000000 3.571277
v -3.713086 0.800000 3.571277
v -3.642373 0.850000 3.571279
v -3.571664 1.000000 3.712698
v -3.571662 0.950000 3.641990
v -3.571662 0.850000 3.641990
v -3.571664 0.800000 3.712698
v -3.785757 0.850000 3.714645
v -3.785755 0.800000 3.643936
v -3.785755 1.000000 3.643936
v -3.785757 0.950000 3.714645
v -3.644334 0.800000 3.785358
v -3.715047 0.850000 3.785355
v -3.715047 0.950000 3.785355
v -3.644334 1.000000 3.785358
v -2.465043 1.000000 4.964648
v -2.535757 1.000000 4.964645
v -2.535757 0.800000 4.964645
v -2.465043 0.800000 4.964648
v -2.600436 1.000000 4.829256
v -2.600438 0.950000 4.899965
v -2.600438 0.850000 4.899965
v -2.600436 0.800000 4.829256
v -2.392365 0.800000 4.891986
v -2.392362 0.800000 4.821280
v -2.392362 1.000000 4.821280
v -2.392365 1.000000 4.891986
v -2.527764 0.800000 4.756589
v -2.457052 0.850000 4.756590
v -2.457052 0.950000 4.756590
v -2.527764 1.000000 4.756589
v -4.870923 1.930000 2.629478
v -4.950904 1.816890 2.549497
v -4.927478 1.896871 2.572923
v -4.871187 1.980000 2.558504
v -4.950903 1.867265 2.478788
v -4.920484 1.936980 2.509207
v -2.549899 1.816890 4.950503
v -2.629880 1.930000 4.870522
v -2.573325 1.896871 4.927077
v -2.479185 1.867265 4.950506
v -2.558901 1.980000 4.870790
v -2.509604 1.936980 4.920087
v -2.486485 1.930000 4.727157
v -2.406504 1.816890 4.807137
v -2.429930 1.896871 4.783711
v -2.486224 1.980000 4.798129
v -2.406507 1.867264 4.877844
v -2.436927 1.936980 4.847425
v -4.807531 1.816890 2.406132
v -4.727550 1.930000 2.486113
v -4.784105 1.896871 2.429558
v -4.878242 1.867265 2.406131
v -4.798526 1.980000 2.485847
v -4.847823 1.936981 2.436551
v -2.680152 1.800000 4.749539
v -2.600436 1.687264 4.829256
v -2.623785 1.766981 4.805907
v -2.680418 1.850000 4.819984
v -2.600438 1.736890 4.899965
v -2.623863 1.816871 4.876539
v -2.457052 1.736890 4.756590
v -2.537033 1.850000 4.676610
v -2.480477 1.816871 4.733165
v -2.527764 1.687264 4.756589
v -2.607480 1.800000 4.676873
v -2.551112 1.766981 4.733241
v -4.677242 1.800000 2.607130
v -4.756958 1.687264 2.527415
v -4.733610 1.766980 2.550762
v -4.676977 1.850000 2.536685
v -4.756958 1.736890 2.456705
v -4.733532 1.816871 2.480130
v -4.900329 1.736890 2.600072
v -4.820348 1.850000 2.680053
v -4.876903 1.816871 2.623498
v -4.829618 1.687264 2.600073
v -4.749902 1.800000 2.679789
v -4.806270 1.766980 2.623421
v -2.535757 1.753201 4.964645
v -2.465043 1.798538 4.964648
v -2.392365 1.798538 4.891986
v -2.392362 1.753201 4.821280
v -2.600436 1.618538 4.829256
v -2.600438 1.658201 4.899965
v -2.527764 1.618538 4.756589
v -2.457052 1.658201 4.756590
v -2.599738 2.000000 4.829954
v -2.668936 1.950000 4.831466
v -2.527061 2.000000 4.757292
v -2.525541 1.950000 4.688101
v -2.728361 1.800000 4.701330
v -2.655689 1.800000 4.628664
v -2.732150 1.850000 4.768252
v -2.588764 1.850000 4.624879
v -4.830350 2.000000 2.599340
v -4.831868 1.950000 2.668534
v -4.757689 2.000000 2.526684
v -4.688493 1.950000 2.525168
v -4.629034 1.800000 2.655338
v -4.701694 1.800000 2.727996
v -4.625247 1.850000 2.588415
v -4.768618 1.850000 2.731783
v -4.965046 1.753201 2.535355
v -4.965045 1.798538 2.464646
v -4.892385 1.798538 2.391989
v -4.821673 1.753201 2.391990
v -4.756958 1.658201 2.456705
v -4.756958 1.618538 2.527415
v -4.829618 1.618538 2.600073
v -4.900329 1.658201 2.600072
vn 0.5000 0.7071 -0.5000
vn -0.5000 0.7071 0.5000
vn 0.7016 0.5830 -0.4097
vn 0.9755 0.1821 -0.1232
vn -1.0000 -0.0000 -0.0000
vn -0.0000 -0.0000 -1.0000
vn 1.0000 -0.0000 0.0001
vn -0.0000 -0.0000 1.0000
vn 1.0000 -0.0000 -0.0000
vn -0.0000 1.0000 -0.0000
vn -0.9755 0.1821 0.1232
vn 0.5000 -0.7071 -0.5000
vn -0.5000 -0.7071 0.5000
vn -0.7071 -0.0000 0.7071
vn -0.0000 -1.0000 -0.0000
vn -0.7071 -0.0000 -0.7071
vn 0.7070 -0.0000 0.7072
vn 0.7071 -0.0000 -0.7071
vn 0.7071 -0.0000 0.7071
vn 0.7071 -0.0000 0.7072
vn -0.7071 -0.0000 -0.7072
vn -0.6789 0.2794 -0.6790
vn 0.2314 0.9449 0.2314
vn 0.6789 0.2794 0.6790
vn -0.9465 0.2884 0.1449
vn -0.7496 0.5669 0.3418
vn 0.9465 0.2884 -0.1448
vn 0.7496 0.5669 -0.3418
vn 0.1449 0.2884 -0.9465
vn 0.3418 0.5669 -0.7496
vn -0.1449 0.2883 0.9465
vn -0.3418 0.5668 0.7496
vn 0.9587 -0.2329 -0.1635
vn 0.7257 -0.5623 -0.3964
vn -0.1635 -0.2329 0.9587
vn -0.3964 -0.5623 0.7258
vn -0.9587 -0.2329 0.1634
vn -0.7258 -0.5623 0.3964
vn 0.1635 -0.2329 -0.9587
vn 0.3964 -0.5623 -0.7258
vn -0.6017 0.5251 -0.6018
vn -0.3713 0.8510 -0.3713
vn 0.3713 0.8510 0.3714
vn 0.6017 0.5251 0.6018
vn 0.6533 -0.3827 0.6533
vn 0.2706 -0.9239 0.2706
vn -0.6533 -0.3827 -0.6533
vn -0.2706 -0.9239 -0.2706
vn -0.7016 0.5830 0.4097
vn -0.1232 0.1820 0.9755
vn -0.4097 0.5830 0.7016
vn -0.2314 0.9449 -0.2314
vn 0.4097 0.5830 -0.7016
vn 0.1232 0.1821 -0.9755
vt 0.732166 0.508942
vt 0.732486 0.508033
vt 0.732681 0.508254
vt 0.732354 0.509163
vt 0.732085 0.507579
vt 0.731779 0.508488
vt 0.731590 0.508267
vt 0.731890 0.507358
vt 0.734317 0.500953
vt 0.734018 0.500895
vt 0.734820 0.501407
vt 0.734943 0.501058
vt 0.735129 0.501451
vt 0.735007 0.501791
vt 0.735267 0.501066
vt 0.735078 0.500675
vt 0.735078 0.500675
vt 0.729831 0.515568
vt 0.730028 0.515626
vt 0.729223 0.515455
vt 0.729300 0.515846
vt 0.729767 0.516351
vt 0.729573 0.516300
vt 0.735267 0.501066
vt 0.734257 0.500170
vt 0.734257 0.500170
vt 0.734564 0.500221
vt 0.734563 0.500221
vt 0.729300 0.515846
vt 0.729519 0.515195
vt 0.729519 0.515195
vt 0.729318 0.515167
vt 0.729325 0.515144
vt 0.729879 0.516040
vt 0.729871 0.516063
vt 0.729802 0.515649
vt 0.729573 0.516300
vt 0.729546 0.515114
vt 0.732599 0.508481
vt 0.732599 0.508481
vt 0.732166 0.508942
vt 0.732435 0.508936
vt 0.732436 0.508936
vt 0.731665 0.508040
vt 0.731665 0.508040
vt 0.731779 0.508488
vt 0.732486 0.508033
vt 0.732599 0.508481
vt 0.732165 0.508942
vt 0.732435 0.508936
vt 0.731815 0.507585
vt 0.731815 0.507585
vt 0.732085 0.507579
vt 0.731815 0.507585
vt 0.734344 0.500872
vt 0.734155 0.500481
vt 0.734162 0.500458
vt 0.735078 0.500675
vt 0.729767 0.516351
vt 0.729223 0.515455
vt 0.735164 0.501354
vt 0.735156 0.501377
vt 0.734849 0.501326
vt 0.734849 0.501326
vt 0.729318 0.515167
vt 0.729871 0.516063
vt 0.734344 0.500872
vt 0.734162 0.500458
vt 0.735164 0.501354
vt 0.734849 0.501326
vt 0.734434 0.500604
vt 0.733885 0.501300
vt 0.730174 0.515221
vt 0.729318 0.515167
vt 0.729235 0.515418
vt 0.729283 0.515760
vt 0.729349 0.515071
vt 0.729429 0.515463
vt 0.735254 0.501103
vt 0.735120 0.500761
vt 0.729616 0.516311
vt 0.729780 0.516314
vt 0.729708 0.515917
vt 0.729906 0.515967
vt 0.734496 0.500210
vt 0.734245 0.500207
vt 0.734130 0.500555
vt 0.729828 0.516010
vt 0.729852 0.515870
vt 0.730055 0.515551
vt 0.729983 0.515137
vt 0.729399 0.515178
vt 0.729692 0.514683
vt 0.729501 0.514791
vt 0.734344 0.500872
vt 0.734235 0.500511
vt 0.734228 0.500651
vt 0.733994 0.500970
vt 0.734172 0.501384
vt 0.735164 0.501354
vt 0.735036 0.501343
vt 0.734668 0.501838
vt 0.734937 0.501730
vt 0.734067 0.501694
vt 0.734559 0.502148
vt 0.734227 0.500506
vt 0.729833 0.516015
vt 0.734820 0.502068
vt 0.730092 0.514827
vt 0.729796 0.514373
vt 0.729802 0.515649
vt 0.729609 0.514454
vt 0.729461 0.514730
s 0
f 26/1/1 27/2/1 28/3/1 25/4/1
f 30/5/2 31/6/2 32/7/2 29/8/2
f 145/9/2 30/5/2 29/8/2 146/10/2
f 147/11/3 104/12/3 101/13/3 148/14/3
f 140/15/4 102/15/4 105/16/4 139/17/4
f 155/18/1 26/1/1 25/4/1 156/19/1
f 54/20/5 55/20/5 56/21/5 53/21/5
f 46/22/6 47/22/6 48/23/6 45/23/6
f 82/24/7 83/24/7 84/17/7 81/17/7
f 74/25/8 75/26/8 76/27/8 73/28/8
f 53/21/5 2/29/5 1/20/5 54/20/5
f 9/30/8 43/31/8 44/32/8 10/33/8
f 11/34/9 49/35/9 50/36/9 12/36/9
f 137/26/8 74/25/8 73/28/8 138/28/8
f 7/37/6 48/23/6 47/22/6 8/22/6
f 155/18/10 153/38/10 31/6/10 26/1/10
f 64/2/9 24/2/9 23/39/9 63/40/9
f 21/1/6 59/41/6 60/42/6 22/43/6
f 19/44/5 65/45/5 66/6/5 20/46/5
f 37/2/9 61/47/9 62/48/9 38/40/9
f 58/49/6 36/41/6 35/50/6 57/42/6
f 68/45/5 34/44/5 33/6/5 67/46/5
f 70/51/8 18/52/8 17/53/8 69/5/8
f 39/51/8 71/54/8 72/5/8 40/5/8
f 80/55/5 16/55/5 15/56/5 79/57/5
f 3/27/8 76/27/8 75/26/8 4/26/8
f 5/15/7 82/24/7 81/17/7 6/58/7
f 164/59/6 46/22/6 45/23/6 163/23/6
f 161/60/11 90/60/11 93/21/11 162/21/11
f 86/61/6 14/62/6 13/63/6 85/64/6
f 49/35/12 60/42/12 59/41/12 50/36/12
f 65/45/13 44/32/13 43/31/13 66/6/13
f 67/46/2 42/30/2 41/65/2 68/45/2
f 57/42/1 52/66/1 51/36/1 58/49/1
f 63/40/12 86/61/12 85/64/12 64/2/12
f 79/57/13 70/51/13 69/5/13 80/55/13
f 77/67/2 72/5/2 71/54/2 78/68/2
f 87/69/1 62/48/1 61/47/1 88/70/1
f 1/20/14 10/33/14 44/32/14 54/20/14
f 7/37/15 8/22/15 11/34/15 12/36/15 9/30/15 10/33/15 1/20/15 2/29/15
f 7/37/16 2/29/16 53/21/16 48/23/16
f 3/27/17 6/58/17 81/17/17 76/27/17
f 13/63/15 14/62/15 5/15/15 6/58/15 3/27/15 4/26/15 15/56/15 16/55/15
f 15/56/14 4/26/14 75/26/14 79/57/14
f 5/15/18 14/62/18 86/61/18 82/24/18
f 11/34/18 8/22/18 47/22/18 49/35/18
f 9/30/19 12/36/19 50/36/19 43/31/19
f 13/63/16 16/55/16 80/55/16 85/64/16
f 19/44/14 18/52/14 70/51/14 65/45/14
f 17/53/15 18/52/15 19/44/15 20/46/15 21/1/15 22/43/15 23/39/15 24/2/15
f 17/53/20 24/2/20 64/2/20 69/5/20
f 21/1/21 20/46/21 66/6/21 59/41/21
f 23/39/18 22/43/18 60/42/18 63/40/18
f 162/21/22 93/21/22 110/23/22 163/23/22
f 38/40/18 35/50/18 25/4/18 28/3/18
f 30/5/10 27/2/10 26/1/10 31/6/10
f 34/44/14 39/51/14 29/8/14 32/7/14
f 58/49/21 67/46/21 33/6/21 36/41/21
f 68/45/14 71/54/14 39/51/14 34/44/14
f 62/48/18 57/42/18 35/50/18 38/40/18
f 72/5/20 61/47/20 37/2/20 40/5/20
f 145/9/23 99/71/23 104/12/23 147/11/23
f 139/17/24 105/16/24 98/28/24 138/28/24
f 67/46/10 58/49/10 51/36/10 42/30/10
f 65/45/14 68/45/14 41/65/14 44/32/14
f 41/65/14 55/20/14 54/20/14 44/32/14
f 59/41/15 66/6/15 43/31/15 50/36/15
f 56/21/16 45/23/16 48/23/16 53/21/16
f 46/22/18 52/66/18 49/35/18 47/22/18
f 57/42/18 60/42/18 49/35/18 52/66/18
f 57/42/18 62/48/18 63/40/18 60/42/18
f 77/67/10 88/70/10 61/47/10 72/5/10
f 87/69/18 86/61/18 63/40/18 62/48/18
f 85/64/15 80/55/15 69/5/15 64/2/15
f 71/54/14 68/45/14 65/45/14 70/51/14
f 79/57/14 78/68/14 71/54/14 70/51/14
f 84/17/17 73/28/17 76/27/17 81/17/17
f 74/25/14 78/68/14 79/57/14 75/26/14
f 87/69/18 83/24/18 82/24/18 86/61/18
f 151/72/14 146/10/14 29/8/14 39/51/14
f 159/73/18 156/19/18 25/4/18 35/50/18
f 168/74/14 161/60/14 55/20/14 41/65/14
f 93/21/25 90/60/25 91/75/25 94/76/25
f 94/76/26 91/75/26 89/77/26 92/78/26
f 105/16/27 102/15/27 103/79/27 106/80/27
f 106/80/28 103/79/28 101/13/28 104/12/28
f 107/22/29 110/23/29 112/81/29 109/82/29
f 109/82/30 112/81/30 111/83/30 108/84/30
f 95/26/31 98/28/31 100/85/31 97/86/31
f 97/86/32 100/85/32 99/71/32 96/87/32
f 126/36/33 129/88/33 130/89/33 127/36/33
f 127/36/34 130/89/34 128/90/34 125/91/34
f 131/74/35 134/31/35 136/31/35 133/92/35
f 133/92/36 136/31/36 135/93/36 132/94/36
f 114/95/37 117/96/37 118/97/37 115/55/37
f 115/55/38 118/97/38 116/98/38 113/99/38
f 119/100/39 122/64/39 124/64/39 121/101/39
f 121/101/40 124/64/40 123/102/40 120/103/40
f 110/23/41 93/21/41 94/76/41 112/81/41
f 112/81/42 94/76/42 92/78/42 111/83/42
f 104/12/43 99/71/43 100/85/43 106/80/43
f 106/80/44 100/85/44 98/28/44 105/16/44
f 134/31/45 126/36/45 127/36/45 136/31/45
f 136/31/46 127/36/46 125/91/46 135/93/46
f 122/64/47 114/95/47 115/55/47 124/64/47
f 124/64/48 115/55/48 113/99/48 123/102/48
f 149/104/15 150/105/15 123/102/15 113/99/15
f 149/104/13 113/99/13 116/98/13 151/72/13
f 141/95/5 77/67/5 78/68/5 142/106/5
f 143/70/16 141/95/16 114/95/16 122/64/16
f 144/100/18 140/15/18 83/24/18 87/69/18
f 164/59/18 165/107/18 52/66/18 46/22/18
f 130/89/18 109/82/18 108/84/18 128/90/18
f 152/108/12 120/103/12 123/102/12 150/105/12
f 144/100/6 87/69/6 88/70/6 143/70/6
f 102/15/18 119/100/18 121/101/18 103/79/18
f 157/109/15 158/110/15 135/93/15 125/91/15
f 157/109/12 125/91/12 128/90/12 159/73/12
f 165/107/9 129/88/9 126/36/9 166/111/9
f 167/31/19 166/111/19 126/36/19 134/31/19
f 97/86/14 118/97/14 117/96/14 95/26/14
f 148/14/18 152/108/18 38/40/18 28/3/18
f 118/97/14 97/86/14 96/87/14 116/98/14
f 160/112/13 132/94/13 135/93/13 158/110/13
f 167/31/8 134/31/8 131/74/8 168/74/8
f 90/60/14 131/74/14 133/92/14 91/75/14
f 91/75/14 133/92/14 132/94/14 89/77/14
f 154/113/14 160/112/14 34/44/14 32/7/14
f 103/79/18 121/101/18 120/103/18 101/13/18
f 109/82/18 130/89/18 129/88/18 107/22/18
f 137/26/14 142/106/14 78/68/14 74/25/14
f 153/38/49 92/78/49 89/77/49 154/113/49
f 95/26/14 117/96/14 142/106/14 137/26/14
f 119/100/6 144/100/6 143/70/6 122/64/6
f 119/100/18 102/15/18 140/15/18 144/100/18
f 88/70/16 77/67/16 141/95/16 143/70/16
f 114/95/5 141/95/5 142/106/5 117/96/5
f 84/17/17 139/17/17 138/28/17 73/28/17
f 95/26/50 137/26/50 138/28/50 98/28/50
f 83/24/7 140/15/7 139/17/7 84/17/7
f 101/13/18 120/103/18 152/108/18 148/14/18
f 38/40/12 152/108/12 150/105/12 37/2/12
f 40/5/13 149/104/13 151/72/13 39/51/13
f 40/5/15 37/2/15 150/105/15 149/104/15
f 116/98/14 96/87/14 146/10/14 151/72/14
f 30/5/10 145/9/10 147/11/10 27/2/10
f 27/2/1 147/11/1 148/14/1 28/3/1
f 99/71/51 145/9/51 146/10/51 96/87/51
f 31/6/2 153/38/2 154/113/2 32/7/2
f 89/77/14 132/94/14 160/112/14 154/113/14
f 34/44/13 160/112/13 158/110/13 33/6/13
f 36/41/12 157/109/12 159/73/12 35/50/12
f 36/41/15 33/6/15 158/110/15 157/109/15
f 128/90/18 108/84/18 156/19/18 159/73/18
f 111/83/52 92/78/52 153/38/52 155/18/52
f 111/83/53 155/18/53 156/19/53 108/84/53
f 42/30/8 167/31/8 168/74/8 41/65/8
f 42/30/19 51/36/19 166/111/19 167/31/19
f 52/66/9 165/107/9 166/111/9 51/36/9
f 107/22/18 129/88/18 165/107/18 164/59/18
f 131/74/14 90/60/14 161/60/14 168/74/14
f 56/21/16 162/21/16 163/23/16 45/23/16
f 55/20/5 161/60/5 162/21/5 56/21/5
f 107/22/54 164/59/54 163/23/54 110/23/54
