# Blender 5.2.0 LTS
# www.blender.org
mtllib RailFull.mtl
o RailFull
v -0.050001 1.800000 0.000000
v -0.000001 1.800000 0.050000
v -5.000401 1.800000 0.050000
v -4.950401 1.800000 0.000000
v -0.200017 1.800000 0.050000
v -0.150017 1.850000 0.000000
v -0.200017 2.000000 0.050000
v -0.200017 1.950000 0.000000
v -4.808526 1.950000 0.000000
v -4.808526 2.000000 0.050000
v -4.858526 1.850000 0.000000
v -4.808526 1.800000 0.050000
v -2.550201 -0.000000 0.000000
v -2.600201 -0.000000 0.050000
v -2.400202 -0.000000 0.050000
v -2.450202 -0.000000 0.000000
v -2.400202 1.950000 0.000000
v -2.400202 2.000000 0.050000
v -2.600201 2.000000 0.050000
v -2.600201 1.950000 0.000000
v -2.600201 1.800000 0.050000
v -2.550201 1.850000 0.000000
v -2.450202 1.850000 0.000000
v -2.400202 1.800000 0.050000
v -1.000110 1.800000 0.050000
v -0.950110 1.850000 0.000000
v -0.850110 1.850000 0.000000
v -0.800110 1.800000 0.050000
v -0.800110 1.950000 0.000000
v -0.800110 2.000000 0.050000
v -1.000110 2.000000 0.050000
v -1.000110 1.950000 0.000000
v -0.950110 -0.000000 0.000000
v -1.000110 -0.000000 0.050000
v -0.800110 -0.000000 0.050000
v -0.850110 -0.000000 0.000000
v -4.004364 -0.000000 0.050000
v -4.054364 -0.000000 0.000000
v -4.154363 -0.000000 0.000000
v -4.204363 -0.000000 0.050000
v -4.204363 2.000000 0.050000
v -4.204363 1.950000 0.000000
v -4.004364 1.950000 0.000000
v -4.004364 2.000000 0.050000
v -4.204363 1.800000 0.050000
v -4.154363 1.850000 0.000000
v -4.054364 1.850000 0.000000
v -4.004364 1.800000 0.050000
v -4.004364 1.000000 0.050000
v -4.054364 0.950000 0.000000
v -4.054364 0.850000 0.000000
v -4.004364 0.800000 0.050000
v -4.204363 0.800000 0.050000
v -4.154363 0.850000 0.000000
v -4.154363 0.950000 0.000000
v -4.204363 1.000000 0.050000
v -0.800110 1.000000 0.050000
v -0.850110 0.950000 0.000000
v -0.850110 0.850000 0.000000
v -0.800110 0.800000 0.050000
v -1.000110 0.800000 0.050000
v -0.950110 0.850000 0.000000
v -0.950110 0.950000 0.000000
v -1.000110 1.000000 0.050000
v -2.600201 0.800000 0.050000
v -2.550201 0.850000 0.000000
v -2.550201 0.950000 0.000000
v -2.600201 1.000000 0.050000
v -2.400202 1.000000 0.050000
v -2.450202 0.950000 0.000000
v -2.450202 0.850000 0.000000
v -2.400202 0.800000 0.050000
v -4.808526 1.000000 0.050000
v -4.858526 0.950000 0.000000
v -4.808526 0.800000 0.050000
v -4.808526 0.850000 0.000000
v -0.200017 0.850000 0.000000
v -0.200017 0.800000 0.050000
v -0.150017 0.950000 0.000000
v -0.200017 1.000000 0.050000
v -0.000001 1.000000 0.050000
v -0.050001 1.000000 0.000000
v -4.950401 1.000000 0.000000
v -5.000401 1.000000 0.050000
v -4.808526 2.000000 0.150000
v -4.808526 1.950000 0.200000
v -0.000001 1.800000 0.150000
v -0.050001 1.800000 0.200000
v -4.950401 1.800000 0.200000
v -5.000401 1.800000 0.150000
v -0.150017 1.850000 0.200000
v -0.200017 1.800000 0.150000
v -0.200017 1.950000 0.200000
v -0.200017 2.000000 0.150000
v -4.808526 1.800000 0.150000
v -4.858526 1.850000 0.200000
v -2.600201 -0.000000 0.150000
v -2.550201 -0.000000 0.200000
v -2.450202 -0.000000 0.200000
v -2.400202 -0.000000 0.150000
v -2.400202 2.000000 0.150000
v -2.400202 1.950000 0.200000
v -2.600201 1.950000 0.200000
v -2.600201 2.000000 0.150000
v -2.550201 1.850000 0.200000
v -2.600201 1.800000 0.150000
v -2.400202 1.800000 0.150000
v -2.450202 1.850000 0.200000
v -1.000110 -0.000000 0.150000
v -0.950110 -0.000000 0.200000
v -0.850110 -0.000000 0.200000
v -0.800110 -0.000000 0.150000
v -0.800110 2.000000 0.150000
v -0.800110 1.950000 0.200000
v -1.000110 1.950000 0.200000
v -1.000110 2.000000 0.150000
v -0.950110 1.850000 0.200000
v -1.000110 1.800000 0.150000
v -0.800110 1.800000 0.150000
v -0.850110 1.850000 0.200000
v -4.154363 1.850000 0.200000
v -4.204363 1.800000 0.150000
v -4.004364 1.800000 0.150000
v -4.054364 1.850000 0.200000
v -4.204363 1.950000 0.200000
v -4.204363 2.000000 0.150000
v -4.004364 2.000000 0.150000
v -4.004364 1.950000 0.200000
v -4.054364 -0.000000 0.200000
v -4.004364 -0.000000 0.150000
v -4.204363 -0.000000 0.150000
v -4.154363 -0.000000 0.200000
v -0.200017 0.800000 0.150000
v -0.200017 0.850000 0.200000
v -0.200017 1.000000 0.150000
v -0.150017 0.950000 0.200000
v -0.050001 1.000000 0.200000
v -0.000001 1.000000 0.150000
v -5.000401 1.000000 0.150000
v -4.950401 1.000000 0.200000
v -4.858526 0.950000 0.200000
v -4.808526 1.000000 0.150000
v -4.808526 0.850000 0.200000
v -4.808526 0.800000 0.150000
v -2.450202 0.950000 0.200000
v -2.400202 1.000000 0.150000
v -2.400202 0.800000 0.150000
v -2.450202 0.850000 0.200000
v -2.550201 0.850000 0.200000
v -2.600201 0.800000 0.150000
v -2.600201 1.000000 0.150000
v -2.550201 0.950000 0.200000
v -0.950110 0.850000 0.200000
v -1.000110 0.800000 0.150000
v -1.000110 1.000000 0.150000
v -0.950110 0.950000 0.200000
v -0.850110 0.950000 0.200000
v -0.800110 1.000000 0.150000
v -0.800110 0.800000 0.150000
v -0.850110 0.850000 0.200000
v -4.154363 0.850000 0.200000
v -4.204363 0.800000 0.150000
v -4.204363 1.000000 0.150000
v -4.154363 0.950000 0.200000
v -4.054364 0.950000 0.200000
v -4.004364 1.000000 0.150000
v -4.004364 0.800000 0.150000
v -4.054364 0.850000 0.200000
v -4.887666 2.000000 0.050000
v -5.000401 1.887264 0.050000
v -4.967382 1.966981 0.050000
v -4.837291 1.950000 0.000000
v -4.950401 1.836890 -0.000000
v -4.917273 1.916871 -0.000000
v -0.000001 1.887264 0.050000
v -0.112737 2.000000 0.050000
v -0.033021 1.966981 0.050000
v -0.050001 1.836890 0.000000
v -0.163112 1.950000 -0.000000
v -0.083131 1.916871 -0.000000
v -0.163112 0.850000 0.000000
v -0.050001 0.963110 -0.000000
v -0.083131 0.883129 -0.000000
v -0.112737 0.800000 0.050000
v -0.000001 0.912736 0.050000
v -0.033021 0.833019 0.050000
v -5.000401 0.912735 0.050000
v -4.887666 0.800000 0.050000
v -4.967382 0.833019 0.050000
v -4.950401 0.963110 0.000000
v -4.837291 0.850000 0.000000
v -4.917273 0.883129 0.000000
v -4.950401 1.836890 0.200000
v -4.837291 1.950000 0.200000
v -4.917273 1.916871 0.200000
v -5.000401 1.887264 0.150000
v -4.887666 2.000000 0.150000
v -4.967382 1.966981 0.150000
v -0.163112 1.950000 0.200000
v -0.050001 1.836890 0.200000
v -0.083131 1.916871 0.200000
v -0.112737 2.000000 0.150000
v -0.000001 1.887264 0.150000
v -0.033021 1.966981 0.150000
v -0.000001 0.912735 0.150000
v -0.112737 0.800000 0.150000
v -0.033021 0.833019 0.150000
v -0.050001 0.963110 0.200000
v -0.163112 0.850000 0.200000
v -0.083131 0.883129 0.200000
v -4.837291 0.850000 0.200000
v -4.950401 0.963110 0.200000
v -4.917273 0.883129 0.200000
v -4.887666 0.800000 0.150000
v -5.000401 0.912735 0.150000
v -4.967382 0.833019 0.150000
vn -0.0000 0.7071 -0.7071
vn -0.0000 -0.7071 -0.7071
vn 0.7071 -0.0000 -0.7071
vn -0.7071 -0.0000 -0.7071
vn -0.0000 0.7071 0.7071
vn -0.0000 -0.7071 0.7071
vn 0.7071 -0.0000 0.7071
vn -0.7071 -0.0000 0.7071
vn -0.0000 -0.0000 -1.0000
vn 1.0000 -0.0000 -0.0000
vn -1.0000 -0.0000 -0.0000
vn -0.0000 -1.0000 -0.0000
vn -0.0000 1.0000 -0.0000
vn -0.0000 -0.0000 1.0000
vn -0.5607 0.2323 -0.7947
vn -0.2323 0.5607 -0.7947
vn 0.2323 0.5607 -0.7947
vn 0.5607 0.2323 -0.7947
vn 0.2323 -0.5607 -0.7947
vn 0.5607 -0.2323 -0.7947
vn -0.2323 -0.5607 -0.7947
vn -0.5607 -0.2323 -0.7947
vn -0.5607 0.2323 0.7947
vn -0.2323 0.5607 0.7947
vn 0.2323 0.5607 0.7947
vn 0.5607 0.2323 0.7947
vn 0.2323 -0.5607 0.7947
vn 0.5607 -0.2323 0.7947
vn -0.2323 -0.5607 0.7947
vn -0.5607 -0.2323 0.7947
vn -0.9239 0.3827 -0.0000
vn -0.3827 0.9239 -0.0000
vn 0.3827 0.9239 -0.0000
vn 0.9239 0.3827 -0.0000
vn -0.9239 -0.3827 -0.0000
vn -0.3827 -0.9239 -0.0000
vn 0.9239 -0.3827 -0.0000
vn 0.3827 -0.9239 -0.0000
vt 0.740000 0.531250
vt 0.739167 0.531250
vt 0.745000 0.531250
vt 0.744167 0.531250
vt 0.734150 0.531250
vt 0.734983 0.531250
vt 0.739816 0.531250
vt 0.744351 0.531250
vt 0.749431 0.531250
vt 0.749167 0.531250
vt 0.744736 0.531250
vt 0.749167 0.531250
vt 0.729966 0.531250
vt 0.729703 0.531250
vt 0.734413 0.531250
vt 0.734799 0.531250
vt 0.739351 0.531250
vt 0.744351 0.531250
vt 0.744351 0.531250
vt 0.739815 0.531250
vt 0.744736 0.531250
vt 0.749430 0.531250
vt 0.729703 0.531250
vt 0.739351 0.531250
vt 0.734799 0.531250
vt 0.734358 0.531250
vt 0.734983 0.531250
vt 0.734775 0.531250
vt 0.739375 0.531250
vt 0.744375 0.531250
vt 0.745000 0.531250
vt 0.744792 0.531250
vt 0.739792 0.531250
vt 0.729375 0.531250
vt 0.729167 0.531250
vt 0.749792 0.531250
vt 0.750000 0.531250
vt 0.744167 0.531250
vt 0.734150 0.531250
vt 0.749431 0.531250
vt 0.739351 0.531250
vt 0.729213 0.531250
vt 0.729419 0.531250
vt 0.729375 0.531250
vt 0.729636 0.531250
vt 0.729846 0.531250
vt 0.749530 0.531250
vt 0.749954 0.531250
vt 0.749748 0.531250
vt 0.749321 0.531250
vt 0.749792 0.531250
vt 0.729213 0.531250
vt 0.729419 0.531250
vt 0.729167 0.531250
vt 0.749954 0.531250
vt 0.749792 0.531250
vt 0.749748 0.531250
s 0
f 18/1/1 17/1/1 20/2/1 19/2/1
f 30/3/1 29/3/1 32/4/1 31/4/1
f 42/5/1 41/5/1 44/6/1 43/6/1
f 24/1/2 23/7/2 26/8/2 25/4/2
f 6/9/2 5/10/2 28/3/2 27/11/2
f 29/3/1 30/3/1 7/12/1 8/12/1
f 17/1/1 18/1/1 31/4/1 32/4/1
f 12/13/2 11/14/2 46/15/2 45/5/2
f 48/6/2 47/16/2 22/17/2 21/2/2
f 41/5/1 42/5/1 9/13/1 10/13/1
f 19/2/1 20/2/1 43/6/1 44/6/1
f 70/7/1 69/1/1 64/4/1 63/18/1
f 62/19/2 61/4/2 72/1/2 71/20/2
f 58/21/1 57/3/1 80/12/1 79/22/1
f 77/12/2 78/12/2 60/3/2 59/21/2
f 54/15/2 53/5/2 75/13/2 76/13/2
f 74/23/1 73/13/1 56/5/1 55/15/1
f 66/24/2 65/2/2 52/6/2 51/16/2
f 50/25/1 49/6/1 68/2/1 67/24/1
f 49/6/3 50/25/3 47/16/3 48/6/3
f 21/2/4 22/17/4 67/24/4 68/2/4
f 55/15/4 56/5/4 45/5/4 46/15/4
f 39/26/4 40/5/4 53/5/4 54/15/4
f 51/16/3 52/6/3 37/27/3 38/28/3
f 65/2/4 66/24/4 13/29/4 14/2/4
f 73/13/3 74/23/3 11/14/3 12/13/3
f 5/10/4 6/9/4 79/22/4 80/12/4
f 57/3/3 58/21/3 27/11/3 28/3/3
f 63/18/4 64/4/4 25/4/4 26/8/4
f 33/30/4 34/4/4 61/4/4 62/19/4
f 59/21/3 60/3/3 35/31/3 36/32/3
f 15/1/3 16/33/3 71/20/3 72/1/3
f 69/1/3 70/7/3 23/7/3 24/1/3
f 83/34/4 84/35/4 3/35/4 4/34/4
f 1/36/3 2/37/3 81/37/3 82/36/3
f 102/1/5 101/1/5 104/2/5 103/2/5
f 114/3/5 113/3/5 116/38/5 115/4/5
f 126/39/5 125/5/5 128/6/5 127/6/5
f 108/7/6 107/1/6 118/4/6 117/8/6
f 92/10/6 91/40/6 120/11/6 119/3/6
f 113/3/5 114/3/5 93/12/5 94/12/5
f 101/1/5 102/1/5 115/4/5 116/38/5
f 96/23/6 95/13/6 122/5/6 121/15/6
f 124/16/6 123/6/6 106/2/6 105/41/6
f 125/5/5 126/39/5 85/13/5 86/13/5
f 103/2/5 104/2/5 127/6/5 128/6/5
f 146/1/5 145/20/5 156/18/5 155/4/5
f 154/4/6 153/8/6 148/7/6 147/1/6
f 158/3/5 157/11/5 136/40/5 135/12/5
f 133/12/6 134/12/6 160/21/6 159/3/6
f 162/39/6 161/15/6 143/13/6 144/13/6
f 142/13/5 141/23/5 164/15/5 163/5/5
f 150/2/6 149/24/6 168/16/6 167/6/6
f 166/6/5 165/25/5 152/41/5 151/2/5
f 165/25/7 166/6/7 123/6/7 124/16/7
f 105/41/8 106/2/8 151/2/8 152/41/8
f 163/5/8 164/15/8 121/15/8 122/5/8
f 131/5/8 132/26/8 161/15/8 162/39/8
f 167/6/7 168/16/7 129/28/7 130/27/7
f 149/24/8 150/2/8 97/2/8 98/29/8
f 141/23/7 142/13/7 95/13/7 96/23/7
f 91/40/8 92/10/8 135/12/8 136/40/8
f 157/11/7 158/3/7 119/3/7 120/11/7
f 155/4/8 156/18/8 117/8/8 118/4/8
f 109/4/8 110/30/8 153/8/8 154/4/8
f 159/3/7 160/21/7 111/32/7 112/31/7
f 99/33/7 100/1/7 147/1/7 148/7/7
f 145/20/7 146/1/7 107/1/7 108/7/7
f 139/35/8 140/34/8 89/34/8 90/35/8
f 87/37/7 88/36/7 137/36/7 138/37/7
f 79/22/9 6/9/9 1/36/9 82/36/9
f 2/37/10 87/37/10 138/37/10 81/37/10
f 83/34/9 4/34/9 11/14/9 74/23/9
f 84/35/11 139/35/11 90/35/11 3/35/11
f 80/12/11 135/12/11 92/10/11 5/10/11
f 6/9/9 27/11/9 29/3/9 8/12/9
f 5/10/12 92/10/12 119/3/12 28/3/12
f 30/3/13 113/3/13 94/12/13 7/12/13
f 46/15/9 11/14/9 9/13/9 42/5/9
f 10/13/13 85/13/13 126/39/13 41/5/13
f 12/13/10 95/13/10 142/13/10 73/13/10
f 45/5/12 122/5/12 95/13/12 12/13/12
f 15/1/12 100/1/12 99/33/12 98/29/12 97/2/12 14/2/12 13/29/12 16/33/12
f 71/20/9 16/33/9 13/29/9 66/24/9
f 14/2/11 97/2/11 150/2/11 65/2/11
f 72/1/10 147/1/10 100/1/10 15/1/10
f 19/2/13 104/2/13 101/1/13 18/1/13
f 17/1/9 23/7/9 22/17/9 20/2/9
f 26/8/9 23/7/9 17/1/9 32/4/9
f 18/1/13 101/1/13 116/38/13 31/4/13
f 22/17/9 47/16/9 43/6/9 20/2/9
f 44/6/13 127/6/13 104/2/13 19/2/13
f 23/7/9 70/7/9 67/24/9 22/17/9
f 68/2/11 151/2/11 106/2/11 21/2/11
f 21/2/12 106/2/12 123/6/12 48/6/12
f 24/1/10 107/1/10 146/1/10 69/1/10
f 25/4/12 118/4/12 107/1/12 24/1/12
f 63/18/9 26/8/9 27/11/9 58/21/9
f 64/4/11 155/4/11 118/4/11 25/4/11
f 26/8/9 32/4/9 29/3/9 27/11/9
f 28/3/10 119/3/10 158/3/10 57/3/10
f 31/4/13 116/38/13 113/3/13 30/3/13
f 35/31/12 112/31/12 111/32/12 110/30/12 109/4/12 34/4/12 33/30/12 36/32/12
f 33/30/9 62/19/9 59/21/9 36/32/9
f 34/4/11 109/4/11 154/4/11 61/4/11
f 60/3/10 159/3/10 112/31/10 35/31/10
f 37/27/12 130/27/12 129/28/12 132/26/12 131/5/12 40/5/12 39/26/12 38/28/12
f 39/26/9 54/15/9 51/16/9 38/28/9
f 52/6/10 167/6/10 130/27/10 37/27/10
f 40/5/11 131/5/11 162/39/11 53/5/11
f 46/15/9 42/5/9 43/6/9 47/16/9
f 41/5/13 126/39/13 127/6/13 44/6/13
f 55/15/9 46/15/9 47/16/9 50/25/9
f 56/5/11 163/5/11 122/5/11 45/5/11
f 48/6/10 123/6/10 166/6/10 49/6/10
f 55/15/9 50/25/9 51/16/9 54/15/9
f 66/24/9 51/16/9 50/25/9 67/24/9
f 49/6/13 166/6/13 151/2/13 68/2/13
f 65/2/12 150/2/12 167/6/12 52/6/12
f 54/15/9 76/13/9 74/23/9 55/15/9
f 53/5/12 162/39/12 144/13/12 75/13/12
f 73/13/13 142/13/13 163/5/13 56/5/13
f 63/18/9 58/21/9 59/21/9 62/19/9
f 58/21/9 79/22/9 77/12/9 59/21/9
f 57/3/13 158/3/13 135/12/13 80/12/13
f 78/12/12 133/12/12 159/3/12 60/3/12
f 70/7/9 63/18/9 62/19/9 71/20/9
f 61/4/12 154/4/12 147/1/12 72/1/12
f 69/1/13 146/1/13 155/4/13 64/4/13
f 71/20/9 66/24/9 67/24/9 70/7/9
f 121/15/14 125/5/14 86/13/14 96/23/14
f 136/40/14 137/36/14 88/36/14 91/40/14
f 140/34/14 141/23/14 96/23/14 89/34/14
f 91/40/14 93/12/14 114/3/14 120/11/14
f 148/7/14 149/24/14 98/29/14 99/33/14
f 102/1/14 103/2/14 105/41/14 108/7/14
f 117/8/14 115/4/14 102/1/14 108/7/14
f 105/41/14 103/2/14 128/6/14 124/16/14
f 108/7/14 105/41/14 152/41/14 145/20/14
f 110/30/14 111/32/14 160/21/14 153/8/14
f 117/8/14 120/11/14 114/3/14 115/4/14
f 156/18/14 157/11/14 120/11/14 117/8/14
f 164/15/14 165/25/14 124/16/14 121/15/14
f 121/15/14 124/16/14 128/6/14 125/5/14
f 132/26/14 129/28/14 168/16/14 161/15/14
f 157/11/14 160/21/14 134/12/14 136/40/14
f 161/15/14 164/15/14 141/23/14 143/13/14
f 145/20/14 148/7/14 153/8/14 156/18/14
f 148/7/14 145/20/14 152/41/14 149/24/14
f 149/24/14 152/41/14 165/25/14 168/16/14
f 156/18/14 153/8/14 160/21/14 157/11/14
f 164/15/14 161/15/14 168/16/14 165/25/14
f 170/35/15 171/42/15 174/43/15 173/44/15
f 171/42/16 169/45/16 172/46/16 174/43/16
f 176/47/17 177/48/17 180/49/17 179/50/17
f 177/48/18 175/37/18 178/51/18 180/49/18
f 181/50/19 183/49/19 186/48/19 184/47/19
f 183/49/20 182/51/20 185/37/20 186/48/20
f 188/45/21 189/52/21 192/53/21 191/46/21
f 189/52/22 187/35/22 190/44/22 192/53/22
f 193/44/23 195/43/23 198/42/23 196/54/23
f 195/43/24 194/46/24 197/45/24 198/42/24
f 199/50/25 201/49/25 204/55/25 202/47/25
f 201/49/26 200/56/26 203/37/26 204/55/26
f 206/47/27 207/55/27 210/57/27 209/50/27
f 207/55/28 205/37/28 208/56/28 210/57/28
f 211/46/29 213/43/29 216/42/29 214/45/29
f 213/43/30 212/44/30 215/35/30 216/42/30
f 196/54/31 198/42/31 171/42/31 170/35/31
f 198/42/32 197/45/32 169/45/32 171/42/32
f 202/47/33 204/55/33 177/48/33 176/47/33
f 204/55/34 203/37/34 175/37/34 177/48/34
f 187/35/35 189/52/35 216/42/35 215/35/35
f 189/52/36 188/45/36 214/45/36 216/42/36
f 205/37/37 207/55/37 186/48/37 185/37/37
f 207/55/38 206/47/38 184/47/38 186/48/38
f 169/45/13 197/45/13 85/13/13 10/13/13
f 10/13/1 9/13/1 172/46/1 169/45/1
f 170/35/4 173/44/4 4/34/4 3/35/4
f 3/35/11 90/35/11 196/54/11 170/35/11
f 11/14/9 4/34/9 173/44/9 174/43/9 172/46/9 9/13/9
f 175/37/10 203/37/10 87/37/10 2/37/10
f 2/37/3 1/36/3 178/51/3 175/37/3
f 176/47/1 179/50/1 8/12/1 7/12/1
f 7/12/13 94/12/13 202/47/13 176/47/13
f 1/36/9 6/9/9 180/49/9 178/51/9
f 79/22/9 183/49/9 181/50/9 77/12/9
f 82/36/3 81/37/3 185/37/3 182/51/3
f 181/50/2 184/47/2 78/12/2 77/12/2
f 184/47/12 206/47/12 133/12/12 78/12/12
f 81/37/10 138/37/10 205/37/10 185/37/10
f 76/13/2 75/13/2 188/45/2 191/46/2
f 75/13/12 144/13/12 214/45/12 188/45/12
f 190/44/4 187/35/4 84/35/4 83/34/4
f 187/35/11 215/35/11 139/35/11 84/35/11
f 83/34/9 74/23/9 76/13/9 191/46/9 192/53/9 190/44/9
f 96/23/14 195/43/14 193/44/14 89/34/14
f 86/13/5 85/13/5 197/45/5 194/46/5
f 193/44/8 196/54/8 90/35/8 89/34/8
f 88/36/14 200/56/14 201/49/14 91/40/14
f 88/36/7 87/37/7 203/37/7 200/56/7
f 199/50/5 202/47/5 94/12/5 93/12/5
f 138/37/7 137/36/7 208/56/7 205/37/7
f 206/47/6 209/50/6 134/12/6 133/12/6
f 136/40/14 134/12/14 209/50/14 210/57/14
f 144/13/6 143/13/6 211/46/6 214/45/6
f 215/35/8 212/44/8 140/34/8 139/35/8
f 140/34/14 212/44/14 213/43/14 141/23/14
f 213/43/14 211/46/14 143/13/14 141/23/14
f 6/9/9 8/12/9 179/50/9 180/49/9
f 201/49/14 199/50/14 93/12/14 91/40/14
f 210/57/14 208/56/14 137/36/14 136/40/14
f 183/49/9 79/22/9 82/36/9 182/51/9
f 195/43/14 96/23/14 86/13/14 194/46/14
