# Blender 5.2.0 LTS
# www.blender.org
mtllib RailCorner.mtl
o RailCorner
v -0.000001 1.950000 0.050000
v -0.050001 2.000000 0.050000
v -0.050001 1.950000 0.000000
v -0.050001 1.800000 0.000000
v -0.000001 1.800000 0.050000
v -5.000401 1.800000 0.050000
v -4.950401 1.800000 0.000000
v -0.200017 1.800000 0.050000
v -0.150017 1.850000 0.000000
v -0.200017 2.000000 0.050000
v -0.200017 1.950000 0.000000
v -4.808526 1.950000 0.000000
v -4.808526 2.000000 0.050000
v -4.858526 1.850000 0.000000
v -4.808526 1.800000 0.050000
v -2.550201 -0.000000 0.000000
v -2.600201 -0.000000 0.050000
v -2.400202 -0.000000 0.050000
v -2.450202 -0.000000 0.000000
v -2.400202 1.950000 0.000000
v -2.400202 2.000000 0.050000
v -2.600201 2.000000 0.050000
v -2.600201 1.950000 0.000000
v -2.600201 1.800000 0.050000
v -2.550201 1.850000 0.000000
v -2.450202 1.850000 0.000000
v -2.400202 1.800000 0.050000
v -1.000110 1.800000 0.050000
v -0.950110 1.850000 0.000000
v -0.850110 1.850000 0.000000
v -0.800110 1.800000 0.050000
v -0.800110 1.950000 0.000000
v -0.800110 2.000000 0.050000
v -1.000110 2.000000 0.050000
v -1.000110 1.950000 0.000000
v -0.950110 -0.000000 0.000000
v -1.000110 -0.000000 0.050000
v -0.800110 -0.000000 0.050000
v -0.850110 -0.000000 0.000000
v -4.004364 -0.000000 0.050000
v -4.054364 -0.000000 0.000000
v -4.154363 -0.000000 0.000000
v -4.204363 -0.000000 0.050000
v -4.204363 2.000000 0.050000
v -4.204363 1.950000 0.000000
v -4.004364 1.950000 0.000000
v -4.004364 2.000000 0.050000
v -4.204363 1.800000 0.050000
v -4.154363 1.850000 0.000000
v -4.054364 1.850000 0.000000
v -4.004364 1.800000 0.050000
v -4.004364 1.000000 0.050000
v -4.054364 0.950000 0.000000
v -4.054364 0.850000 0.000000
v -4.004364 0.800000 0.050000
v -4.204363 0.800000 0.050000
v -4.154363 0.850000 0.000000
v -4.154363 0.950000 0.000000
v -4.204363 1.000000 0.050000
v -0.800110 1.000000 0.050000
v -0.850110 0.950000 0.000000
v -0.850110 0.850000 0.000000
v -0.800110 0.800000 0.050000
v -1.000110 0.800000 0.050000
v -0.950110 0.850000 0.000000
v -0.950110 0.950000 0.000000
v -1.000110 1.000000 0.050000
v -2.600201 0.800000 0.050000
v -2.550201 0.850000 0.000000
v -2.550201 0.950000 0.000000
v -2.600201 1.000000 0.050000
v -2.400202 1.000000 0.050000
v -2.450202 0.950000 0.000000
v -2.450202 0.850000 0.000000
v -2.400202 0.800000 0.050000
v -4.808526 1.000000 0.050000
v -4.858526 0.950000 0.000000
v -4.808526 0.800000 0.050000
v -4.808526 0.850000 0.000000
v -0.200017 0.850000 0.000000
v -0.200017 0.800000 0.050000
v -0.150017 0.950000 0.000000
v -0.200017 1.000000 0.050000
v -0.000001 1.000000 0.050000
v -0.050001 1.000000 0.000000
v -0.000001 0.850000 0.050000
v -0.050001 0.850000 0.000000
v -0.050001 0.800000 0.050000
v -4.950401 1.000000 0.000000
v -5.000401 1.000000 0.050000
v -4.808526 2.000000 0.150000
v -4.808526 1.950000 0.200000
v -0.050001 1.800000 0.200000
v -0.000002 1.850000 0.150000
v -0.000001 1.950000 0.200000
v -0.050001 2.000000 0.200000
v -4.950401 1.800000 0.200000
v -5.000401 1.800000 0.150000
v -0.200017 1.850000 0.200000
v -0.150017 1.800000 0.200000
v -0.200017 1.800000 0.150000
v -0.150019 2.000000 0.150000
v -0.200017 1.950000 0.200000
v -4.808526 1.800000 0.150000
v -4.858526 1.850000 0.200000
v -2.600201 -0.000000 0.150000
v -2.550201 -0.000000 0.200000
v -2.450202 -0.000000 0.200000
v -2.400202 -0.000000 0.150000
v -2.400202 2.000000 0.150000
v -2.400202 1.950000 0.200000
v -2.600201 1.950000 0.200000
v -2.600201 2.000000 0.150000
v -2.550201 1.850000 0.200000
v -2.600201 1.800000 0.150000
v -2.400202 1.800000 0.150000
v -2.450202 1.850000 0.200000
v -1.000110 -0.000000 0.150000
v -0.950110 -0.000000 0.200000
v -0.850110 -0.000000 0.200000
v -0.800110 -0.000000 0.150000
v -0.800110 2.000000 0.150000
v -0.800110 1.950000 0.200000
v -1.000110 1.950000 0.200000
v -1.000110 2.000000 0.150000
v -0.950110 1.850000 0.200000
v -1.000110 1.800000 0.150000
v -0.800110 1.800000 0.150000
v -0.850110 1.850000 0.200000
v -4.154363 1.850000 0.200000
v -4.204363 1.800000 0.150000
v -4.004364 1.800000 0.150000
v -4.054364 1.850000 0.200000
v -4.204363 1.950000 0.200000
v -4.204363 2.000000 0.150000
v -4.004364 2.000000 0.150000
v -4.004364 1.950000 0.200000
v -4.054364 -0.000000 0.200000
v -4.004364 -0.000000 0.150000
v -4.204363 -0.000000 0.150000
v -4.154363 -0.000000 0.200000
v -0.200017 0.850000 0.200000
v -0.150019 0.800000 0.150000
v -0.200017 1.000000 0.150000
v -0.150017 1.000000 0.200000
v -0.200017 0.950000 0.200000
v -0.000002 0.950000 0.150000
v -0.050001 1.000000 0.200000
v -0.050001 0.800000 0.200000
v -0.000001 0.850000 0.200000
v -5.000401 1.000000 0.150000
v -4.950401 1.000000 0.200000
v -4.858526 0.950000 0.200000
v -4.808526 1.000000 0.150000
v -4.808526 0.850000 0.200000
v -4.808526 0.800000 0.150000
v -2.450202 0.950000 0.200000
v -2.400202 1.000000 0.150000
v -2.400202 0.800000 0.150000
v -2.450202 0.850000 0.200000
v -2.550201 0.850000 0.200000
v -2.600201 0.800000 0.150000
v -2.600201 1.000000 0.150000
v -2.550201 0.950000 0.200000
v -0.950110 0.850000 0.200000
v -1.000110 0.800000 0.150000
v -1.000110 1.000000 0.150000
v -0.950110 0.950000 0.200000
v -0.850110 0.950000 0.200000
v -0.800110 1.000000 0.150000
v -0.800110 0.800000 0.150000
v -0.850110 0.850000 0.200000
v -4.154363 0.850000 0.200000
v -4.204363 0.800000 0.150000
v -4.204363 1.000000 0.150000
v -4.154363 0.950000 0.200000
v -4.054364 0.950000 0.200000
v -4.004364 1.000000 0.150000
v -4.004364 0.800000 0.150000
v -4.054364 0.850000 0.200000
v -0.150000 1.800000 5.000401
v -0.200000 1.800000 4.950401
v -0.200000 1.950000 4.808526
v -0.150000 2.000000 4.808526
v -0.200000 1.850000 4.858526
v -0.150000 1.800000 4.808526
v -0.200000 -0.000000 2.550201
v -0.150000 -0.000000 2.600201
v -0.150000 -0.000000 2.400202
v -0.200000 -0.000000 2.450202
v -0.200000 1.950000 2.400202
v -0.150000 2.000000 2.400202
v -0.150000 2.000000 2.600201
v -0.200000 1.950000 2.600201
v -0.150000 1.800000 2.600201
v -0.200000 1.850000 2.550201
v -0.200000 1.850000 2.450202
v -0.150000 1.800000 2.400202
v -0.150000 1.800000 1.000110
v -0.200000 1.850000 0.950110
v -0.150000 1.800000 0.800110
v -0.199999 1.850000 0.850110
v -0.200000 1.950000 0.800110
v -0.150000 2.000000 0.800110
v -0.150000 2.000000 1.000110
v -0.200000 1.950000 1.000110
v -0.200000 -0.000000 0.950110
v -0.150000 -0.000000 1.000110
v -0.150000 -0.000000 0.800110
v -0.200000 -0.000000 0.850110
v -0.150000 -0.000000 4.004364
v -0.200000 -0.000000 4.054364
v -0.200000 -0.000000 4.154363
v -0.150000 -0.000000 4.204363
v -0.150000 2.000000 4.204363
v -0.200000 1.950000 4.204363
v -0.200000 1.950000 4.004364
v -0.150000 2.000000 4.004364
v -0.150000 1.800000 4.204363
v -0.200000 1.850000 4.154363
v -0.200000 1.850000 4.054364
v -0.150000 1.800000 4.004364
v -0.150000 1.000000 4.004364
v -0.200000 0.950000 4.054364
v -0.200000 0.850000 4.054364
v -0.150000 0.800000 4.004364
v -0.150000 0.800000 4.204363
v -0.200000 0.850000 4.154363
v -0.200000 0.950000 4.154363
v -0.150000 1.000000 4.204363
v -0.199999 0.950000 0.850110
v -0.150000 1.000000 0.800110
v -0.150000 0.800000 0.800110
v -0.199999 0.850000 0.850110
v -0.150000 0.800000 1.000110
v -0.200000 0.850000 0.950110
v -0.200000 0.950000 0.950110
v -0.150000 1.000000 1.000110
v -0.150000 0.800000 2.600201
v -0.200000 0.850000 2.550201
v -0.200000 0.950000 2.550201
v -0.150000 1.000000 2.600201
v -0.150000 1.000000 2.400202
v -0.200000 0.950000 2.450202
v -0.200000 0.850000 2.450202
v -0.150000 0.800000 2.400202
v -0.150000 1.000000 4.808526
v -0.200000 0.950000 4.858526
v -0.150000 0.800000 4.808526
v -0.200000 0.850000 4.808526
v -0.200000 1.000000 4.950401
v -0.150000 1.000000 5.000401
v -0.050000 2.000000 4.808526
v 0.000000 1.950000 4.808526
v 0.000000 1.800000 4.950401
v -0.050000 1.800000 5.000401
v -0.050000 1.800000 4.808526
v 0.000000 1.850000 4.858526
v -0.050000 -0.000000 2.600201
v 0.000000 -0.000000 2.550201
v 0.000000 -0.000000 2.450202
v -0.050000 -0.000000 2.400202
v -0.050000 2.000000 2.400202
v 0.000000 1.950000 2.400202
v 0.000000 1.950000 2.600201
v -0.050000 2.000000 2.600201
v 0.000000 1.850000 2.550201
v -0.050000 1.800000 2.600201
v -0.050000 1.800000 2.400202
v 0.000000 1.850000 2.450202
v -0.050000 -0.000000 1.000110
v 0.000000 -0.000000 0.950110
v 0.000000 -0.000000 0.850110
v -0.050000 -0.000000 0.800110
v -0.050000 2.000000 0.800110
v 0.000000 1.950000 0.800110
v 0.000000 1.950000 1.000110
v -0.050000 2.000000 1.000110
v 0.000000 1.850000 0.950110
v -0.050000 1.800000 1.000110
v 0.000000 1.850000 0.850110
v -0.050000 1.800000 0.800110
v 0.000000 1.850000 4.154363
v -0.050000 1.800000 4.204363
v -0.050000 1.800000 4.004364
v 0.000000 1.850000 4.054364
v 0.000000 1.950000 4.204363
v -0.050000 2.000000 4.204363
v -0.050000 2.000000 4.004364
v 0.000000 1.950000 4.004364
v 0.000000 -0.000000 4.054364
v -0.050000 -0.000000 4.004364
v -0.050000 -0.000000 4.204363
v 0.000000 -0.000000 4.154363
v -0.050000 1.000000 5.000401
v 0.000000 1.000000 4.950401
v 0.000000 0.950000 4.858526
v -0.050000 1.000000 4.808526
v 0.000000 0.850000 4.808526
v -0.050000 0.800000 4.808526
v 0.000000 0.950000 2.450202
v -0.050000 1.000000 2.400202
v -0.050000 0.800000 2.400202
v 0.000000 0.850000 2.450202
v 0.000000 0.850000 2.550201
v -0.050000 0.800000 2.600201
v -0.050000 1.000000 2.600201
v 0.000000 0.950000 2.550201
v 0.000000 0.850000 0.950110
v -0.050000 0.800000 1.000110
v -0.050000 1.000000 1.000110
v 0.000000 0.950000 0.950110
v -0.050000 1.000000 0.800110
v 0.000000 0.950000 0.850110
v 0.000000 0.850000 0.850110
v -0.050000 0.800000 0.800110
v 0.000000 0.850000 4.154363
v -0.050000 0.800000 4.204363
v -0.050000 1.000000 4.204363
v 0.000000 0.950000 4.154363
v 0.000000 0.950000 4.054364
v -0.050000 1.000000 4.004364
v -0.050000 0.800000 4.004364
v 0.000000 0.850000 4.054364
v -4.887666 2.000000 0.050000
v -5.000401 1.887264 0.050000
v -4.967382 1.966981 0.050000
v -4.837291 1.950000 0.000000
v -4.950401 1.836890 -0.000000
v -4.917273 1.916871 -0.000000
v -5.000401 0.912735 0.050000
v -4.887666 0.800000 0.050000
v -4.967382 0.833019 0.050000
v -4.950401 0.963110 0.000000
v -4.837291 0.850000 0.000000
v -4.917273 0.883129 0.000000
v -4.950401 1.836890 0.200000
v -4.837291 1.950000 0.200000
v -4.917273 1.916871 0.200000
v -5.000401 1.887264 0.150000
v -4.887666 2.000000 0.150000
v -4.967382 1.966981 0.150000
v -4.837291 0.850000 0.200000
v -4.950401 0.963110 0.200000
v -4.917273 0.883129 0.200000
v -4.887666 0.800000 0.150000
v -5.000401 0.912735 0.150000
v -4.967382 0.833019 0.150000
v -0.150000 2.000000 4.887666
v -0.150000 1.887264 5.000401
v -0.150000 1.966981 4.967382
v -0.200000 1.950000 4.837291
v -0.200000 1.836890 4.950401
v -0.200000 1.916871 4.917273
v -0.150000 0.912735 5.000401
v -0.150000 0.800000 4.887666
v -0.150000 0.833019 4.967382
v -0.200000 0.963110 4.950401
v -0.200000 0.850000 4.837291
v -0.200000 0.883129 4.917273
v 0.000000 1.836890 4.950401
v 0.000000 1.950000 4.837291
v 0.000000 1.916871 4.917273
v -0.050000 1.887264 5.000401
v -0.050000 2.000000 4.887666
v -0.050000 1.966981 4.967382
v 0.000000 0.850000 4.837291
v 0.000000 0.963110 4.950401
v 0.000000 0.883129 4.917273
v -0.050000 0.800000 4.887666
v -0.050000 0.912735 5.000401
v -0.050000 0.833019 4.967382
vn 0.5773 0.5774 -0.5774
vn 0.5774 -0.5773 -0.5774
vn -0.5774 -0.5774 0.5774
vn -0.5773 0.5774 0.5774
vn 0.7071 -0.0000 -0.7071
vn -0.0000 0.7071 -0.7071
vn -0.0000 -0.7071 -0.7071
vn -0.7071 -0.0000 -0.7071
vn -0.0000 0.7071 0.7071
vn -0.0000 -0.7071 0.7071
vn 0.7071 -0.0000 0.7071
vn -0.7071 -0.0000 0.7071
vn 0.7071 0.7071 -0.0000
vn 0.7071 -0.7071 -0.0000
vn -0.7071 0.7071 -0.0000
vn -0.7071 -0.7071 -0.0000
vn 1.0000 -0.0000 -0.0000
vn -0.0000 -0.0000 -1.0000
vn -0.0000 1.0000 -0.0000
vn -1.0000 -0.0000 -0.0000
vn -0.0000 -1.0000 -0.0000
vn -0.0000 -0.0000 1.0000
vn -0.5607 0.2323 -0.7947
vn -0.2323 0.5607 -0.7947
vn -0.2323 -0.5607 -0.7947
vn -0.5607 -0.2323 -0.7947
vn -0.5607 0.2323 0.7947
vn -0.2323 0.5607 0.7947
vn -0.2323 -0.5607 0.7947
vn -0.5607 -0.2323 0.7947
vn -0.7947 0.2323 0.5607
vn -0.7947 0.5607 0.2323
vn -0.7947 -0.5607 0.2323
vn -0.7947 -0.2323 0.5607
vn 0.7947 0.2323 0.5607
vn 0.7947 0.5607 0.2323
vn 0.7947 -0.5607 0.2323
vn 0.7947 -0.2323 0.5607
vn -0.9239 0.3827 -0.0000
vn -0.3827 0.9239 -0.0000
vn -0.9239 -0.3827 -0.0000
vn -0.3827 -0.9239 -0.0000
vn -0.0000 0.3827 0.9239
vn -0.0000 0.9239 0.3827
vn -0.0000 -0.3827 0.9239
vn -0.0000 -0.9239 0.3827
vt 0.103214 0.467352
vt 0.103248 0.462795
vt 0.107466 0.465207
vt 0.014607 0.467411
vt 0.008945 0.464609
vt 0.014814 0.462135
vt 0.142288 0.465096
vt 0.151335 0.461307
vt 0.151300 0.468912
vt 0.238487 0.460917
vt 0.248377 0.464857
vt 0.238464 0.468772
vt 0.092885 0.467756
vt 0.092959 0.462219
vt 0.106973 0.452208
vt 0.113387 0.454228
vt 0.126809 0.246568
vt 0.120309 0.246390
vt 0.120862 0.228059
vt 0.127311 0.228251
vt 0.122444 0.396079
vt 0.115637 0.395475
vt 0.116841 0.376751
vt 0.123535 0.377102
vt 0.125482 0.083252
vt 0.131838 0.083566
vt 0.131014 0.101372
vt 0.124654 0.101104
vt 0.104476 0.247553
vt 0.111278 0.241475
vt 0.107571 0.380786
vt 0.101398 0.373787
vt 0.097629 0.454430
vt 0.092522 0.448353
vt 0.099130 0.396058
vt 0.106870 0.389902
vt 0.113443 0.028889
vt 0.120134 0.023327
vt 0.116539 0.087322
vt 0.110832 0.080499
vt 0.109364 0.102047
vt 0.116029 0.096237
vt 0.111708 0.232354
vt 0.105738 0.225459
vt 0.128893 0.028257
vt 0.135373 0.028397
vt 0.026340 0.461824
vt 0.026325 0.467774
vt 0.006120 0.450716
vt 0.012634 0.449889
vt 0.025716 0.238235
vt 0.031786 0.245217
vt 0.027126 0.372225
vt 0.020139 0.378490
vt 0.010745 0.378283
vt 0.004317 0.373319
vt 0.009847 0.242140
vt 0.016670 0.237735
vt 0.020088 0.387792
vt 0.026527 0.394684
vt 0.028103 0.447818
vt 0.021895 0.453580
vt 0.003937 0.392827
vt 0.010606 0.387744
vt 0.024508 0.081772
vt 0.018418 0.076531
vt 0.023766 0.020849
vt 0.030116 0.021667
vt 0.039316 0.018120
vt 0.044799 0.024866
vt 0.040530 0.076797
vt 0.033480 0.082505
vt 0.017033 0.228723
vt 0.010776 0.223809
vt 0.017250 0.094979
vt 0.023968 0.090718
vt 0.032868 0.091378
vt 0.038715 0.098295
vt 0.032997 0.223062
vt 0.026076 0.229144
vt 0.951614 0.173915
vt 0.958029 0.173915
vt 0.958029 0.246493
vt 0.951614 0.251029
vt 0.942542 0.251029
vt 0.936127 0.246493
vt 0.936127 0.173915
vt 0.942542 0.173915
vt 0.958029 0.161504
vt 0.951614 0.166040
vt 0.951614 0.088926
vt 0.958029 0.088926
vt 0.663821 0.916350
vt 0.670236 0.916350
vt 0.670236 0.988929
vt 0.663821 0.993465
vt 0.654748 0.993465
vt 0.648333 0.988929
vt 0.648333 0.916350
vt 0.654748 0.916350
vt 0.936127 0.088926
vt 0.942542 0.088926
vt 0.942542 0.166040
vt 0.936127 0.161504
vt 0.044146 0.010319
vt 0.044354 0.003958
vt 0.116965 0.008360
vt 0.116324 0.014770
vt 0.142478 0.246950
vt 0.135979 0.246802
vt 0.136434 0.228501
vt 0.142876 0.228665
vt 0.138771 0.397119
vt 0.132264 0.396684
vt 0.133044 0.377638
vt 0.139720 0.377947
vt 0.140753 0.084025
vt 0.146998 0.084349
vt 0.146322 0.101922
vt 0.139996 0.101718
vt 0.151717 0.242503
vt 0.157870 0.249242
vt 0.155661 0.376433
vt 0.148756 0.383011
vt 0.148661 0.392641
vt 0.154772 0.399422
vt 0.130171 0.465106
vt 0.121659 0.465117
vt 0.158327 0.028542
vt 0.163650 0.034314
vt 0.161851 0.083085
vt 0.155307 0.089043
vt 0.155145 0.097780
vt 0.161100 0.104242
vt 0.158415 0.227313
vt 0.151761 0.233436
vt 0.144248 0.030954
vt 0.150067 0.031892
vt 0.229520 0.249908
vt 0.236128 0.243725
vt 0.235533 0.381327
vt 0.229301 0.374729
vt 0.250957 0.376368
vt 0.244470 0.380915
vt 0.245032 0.243709
vt 0.251481 0.248308
vt 0.230462 0.397116
vt 0.235953 0.390577
vt 0.270954 0.464862
vt 0.261415 0.464861
vt 0.245051 0.389557
vt 0.252280 0.392582
vt 0.252218 0.083050
vt 0.246345 0.088247
vt 0.240202 0.031036
vt 0.246034 0.029881
vt 0.226500 0.033529
vt 0.231934 0.027931
vt 0.237469 0.088769
vt 0.231046 0.082420
vt 0.251711 0.230328
vt 0.245197 0.234837
vt 0.246578 0.097242
vt 0.253001 0.101881
vt 0.231148 0.103692
vt 0.237709 0.097533
vt 0.236256 0.234748
vt 0.230121 0.228015
vt 0.967102 0.173915
vt 0.973517 0.173915
vt 0.973517 0.251029
vt 0.967102 0.246493
vt 0.927055 0.246493
vt 0.920640 0.251029
vt 0.920640 0.173915
vt 0.927055 0.173915
vt 0.973517 0.166040
vt 0.967102 0.161504
vt 0.967102 0.088926
vt 0.973517 0.088926
vt 0.679308 0.916350
vt 0.685723 0.916350
vt 0.685723 0.993465
vt 0.679308 0.988929
vt 0.639261 0.988929
vt 0.632846 0.993465
vt 0.632846 0.916350
vt 0.639261 0.916350
vt 0.920640 0.088926
vt 0.927055 0.088926
vt 0.927055 0.161504
vt 0.920639 0.166040
vt 0.228654 0.014862
vt 0.228163 0.020654
vt 0.162019 0.021052
vt 0.161353 0.015105
vt 0.097539 0.475680
vt 0.092206 0.481454
vt 0.028268 0.482381
vt 0.021783 0.476058
vt 0.113385 0.475936
vt 0.107119 0.478061
vt 0.012462 0.479775
vt 0.005549 0.478868
vt 0.136512 0.682759
vt 0.142991 0.682593
vt 0.143433 0.700825
vt 0.137012 0.701000
vt 0.132442 0.533367
vt 0.138928 0.532925
vt 0.139879 0.552022
vt 0.133216 0.552340
vt 0.147785 0.844590
vt 0.141559 0.844922
vt 0.140809 0.827298
vt 0.147103 0.827082
vt 0.158684 0.680638
vt 0.152220 0.687004
vt 0.148881 0.546967
vt 0.155393 0.553925
vt 0.164659 0.894734
vt 0.159081 0.900132
vt 0.156057 0.839910
vt 0.162162 0.846223
vt 0.162144 0.825113
vt 0.155894 0.831207
vt 0.152280 0.696053
vt 0.158572 0.702524
vt 0.150890 0.896766
vt 0.145032 0.897690
vt 0.236387 0.685691
vt 0.230126 0.679172
vt 0.228997 0.554698
vt 0.235540 0.548451
vt 0.244466 0.548846
vt 0.250944 0.553370
vt 0.251697 0.681096
vt 0.245273 0.685695
vt 0.246621 0.840728
vt 0.252468 0.845932
vt 0.245915 0.899117
vt 0.240183 0.897948
vt 0.231962 0.900947
vt 0.226856 0.895077
vt 0.230891 0.846088
vt 0.237758 0.840192
vt 0.245448 0.694546
vt 0.251945 0.699040
vt 0.253262 0.827125
vt 0.246859 0.831752
vt 0.238008 0.831459
vt 0.231820 0.824953
vt 0.230059 0.700996
vt 0.236526 0.694643
vt 0.711742 0.916350
vt 0.718157 0.916350
vt 0.718157 0.988929
vt 0.711742 0.993465
vt 0.764619 0.993465
vt 0.758204 0.988929
vt 0.758204 0.916350
vt 0.764619 0.916350
vt 0.936127 0.076515
vt 0.929712 0.081052
vt 0.929712 0.003937
vt 0.936127 0.003937
vt 0.230435 0.532692
vt 0.235936 0.539210
vt 0.148783 0.537363
vt 0.154878 0.530579
vt 0.928079 0.901599
vt 0.934494 0.901599
vt 0.934494 0.974177
vt 0.928079 0.978714
vt 0.980956 0.978714
vt 0.974541 0.974177
vt 0.974541 0.901599
vt 0.980956 0.901599
vt 0.976174 0.003937
vt 0.982589 0.003937
vt 0.982589 0.081052
vt 0.976174 0.076515
vt 0.228143 0.908143
vt 0.228602 0.913959
vt 0.162041 0.913278
vt 0.162674 0.907525
vt 0.120893 0.683213
vt 0.127371 0.683015
vt 0.127920 0.701267
vt 0.121495 0.701472
vt 0.115833 0.534740
vt 0.122639 0.534090
vt 0.123724 0.552920
vt 0.117076 0.553278
vt 0.132648 0.845372
vt 0.126321 0.845661
vt 0.125543 0.827919
vt 0.131873 0.827649
vt 0.111907 0.688140
vt 0.105450 0.681746
vt 0.101346 0.555917
vt 0.107869 0.549258
vt 0.120464 0.905511
vt 0.114151 0.899595
vt 0.111329 0.848072
vt 0.117467 0.841602
vt 0.116965 0.832753
vt 0.110633 0.826643
vt 0.105925 0.704331
vt 0.112367 0.697221
vt 0.135738 0.900522
vt 0.129274 0.900621
vt 0.033029 0.685240
vt 0.026645 0.691881
vt 0.020383 0.552024
vt 0.027052 0.558649
vt 0.004591 0.557289
vt 0.010974 0.552305
vt 0.017637 0.692425
vt 0.010810 0.688069
vt 0.019594 0.852695
vt 0.025757 0.847526
vt 0.030599 0.907736
vt 0.024239 0.908500
vt 0.045666 0.904901
vt 0.039740 0.911339
vt 0.034725 0.846840
vt 0.041336 0.852938
vt 0.011836 0.706295
vt 0.018047 0.701395
vt 0.025250 0.838618
vt 0.018560 0.834395
vt 0.040299 0.831401
vt 0.034115 0.837973
vt 0.027047 0.700940
vt 0.033431 0.706818
vt 0.727229 0.916350
vt 0.733644 0.916350
vt 0.733644 0.993465
vt 0.727229 0.988929
vt 0.749132 0.988929
vt 0.742717 0.993465
vt 0.742717 0.916350
vt 0.749132 0.916350
vt 0.951614 0.081052
vt 0.945199 0.076515
vt 0.945199 0.003937
vt 0.951614 0.003937
vt 0.020274 0.542691
vt 0.026607 0.536273
vt 0.099871 0.533524
vt 0.107197 0.540160
vt 0.943566 0.901599
vt 0.949981 0.901599
vt 0.949981 0.978714
vt 0.943566 0.974177
vt 0.965469 0.974177
vt 0.959054 0.978714
vt 0.959054 0.901599
vt 0.965469 0.901599
vt 0.960686 0.003937
vt 0.967102 0.003937
vt 0.967102 0.076515
vt 0.960686 0.081052
vt 0.044788 0.925448
vt 0.044562 0.919098
vt 0.116667 0.914110
vt 0.117336 0.920523
vt 0.252267 0.537191
vt 0.245031 0.540219
vt 0.010722 0.542830
vt 0.003937 0.537764
vt 0.230396 0.006013
vt 0.159376 0.006093
vt 0.903693 0.185400
vt 0.912765 0.185400
vt 0.912765 0.257978
vt 0.903693 0.257978
vt 0.903693 0.003937
vt 0.912765 0.003937
vt 0.912765 0.058379
vt 0.903693 0.058379
vt 0.852852 0.058748
vt 0.861924 0.058748
vt 0.861924 0.131327
vt 0.852852 0.131327
vt 0.852852 0.003937
vt 0.861924 0.003937
vt 0.029956 0.946969
vt 0.029956 0.937897
vt 0.034492 0.933361
vt 0.043564 0.933361
vt 0.048101 0.937897
vt 0.048101 0.946969
vt 0.043564 0.951505
vt 0.034492 0.951505
vt 0.724681 0.331295
vt 0.733753 0.331295
vt 0.733753 0.403873
vt 0.724681 0.403873
vt 0.724681 0.003937
vt 0.733753 0.003937
vt 0.733753 0.131327
vt 0.724681 0.131327
vt 0.767647 0.276114
vt 0.758574 0.276114
vt 0.758574 0.203536
vt 0.767647 0.203536
vt 0.767647 0.403134
vt 0.758574 0.403134
vt 0.767646 0.076515
vt 0.758574 0.076515
vt 0.758574 0.003937
vt 0.767646 0.003937
vt 0.912765 0.130957
vt 0.903693 0.130957
vt 0.829669 0.916350
vt 0.838741 0.916350
vt 0.843278 0.920887
vt 0.843278 0.929959
vt 0.838741 0.934495
vt 0.829669 0.934495
vt 0.825133 0.929959
vt 0.825133 0.920887
vt 0.877171 0.929959
vt 0.877171 0.920887
vt 0.881707 0.916350
vt 0.890779 0.916350
vt 0.895315 0.920887
vt 0.895315 0.929959
vt 0.890779 0.934495
vt 0.881707 0.934495
vt 0.852852 0.186138
vt 0.861924 0.186138
vt 0.861924 0.258716
vt 0.852852 0.258716
vt 0.733753 0.203905
vt 0.724681 0.203905
vt 0.260859 0.230420
vt 0.262148 0.101973
vt 0.261329 0.081978
vt 0.254853 0.026939
vt 0.279020 0.452438
vt 0.262708 0.389864
vt 0.260103 0.376406
vt 0.260628 0.248346
vt 0.289495 0.464862
vt 0.279026 0.477288
vt 0.886746 0.058381
vt 0.886745 0.003937
vt 0.895818 0.003937
vt 0.895819 0.058381
vt 0.886745 0.185403
vt 0.895819 0.185403
vt 0.895819 0.257981
vt 0.886745 0.257981
vt 0.982589 0.166040
vt 0.982589 0.088926
vt 0.694795 0.916350
vt 0.694795 0.993465
vt 0.982589 0.173915
vt 0.982589 0.251029
vt 0.262702 0.539911
vt 0.895819 0.130959
vt 0.886746 0.130959
vt 0.230247 0.922704
vt 0.160131 0.922041
vt 0.878870 0.203905
vt 0.869798 0.203905
vt 0.869798 0.131327
vt 0.878870 0.131327
vt 0.878870 0.258716
vt 0.869798 0.258716
vt 0.803650 0.916350
vt 0.812723 0.916350
vt 0.817259 0.920887
vt 0.817259 0.929959
vt 0.812723 0.934495
vt 0.803650 0.934495
vt 0.799114 0.929959
vt 0.799114 0.920887
vt 0.920640 0.081052
vt 0.920640 0.003937
vt 0.716807 0.076515
vt 0.707734 0.076515
vt 0.707734 0.003937
vt 0.716807 0.003937
vt 0.716807 0.403873
vt 0.707734 0.403873
vt 0.707734 0.276483
vt 0.716807 0.276483
vt 0.750700 0.276114
vt 0.741628 0.276114
vt 0.741628 0.203536
vt 0.750700 0.203536
vt 0.750700 0.403134
vt 0.741628 0.403134
vt 0.750700 0.076515
vt 0.741628 0.076515
vt 0.741628 0.003937
vt 0.750700 0.003937
vt 0.855688 0.916350
vt 0.864760 0.916350
vt 0.869296 0.920887
vt 0.869296 0.929959
vt 0.864760 0.934495
vt 0.855688 0.934495
vt 0.851152 0.929959
vt 0.851152 0.920887
vt 0.919007 0.978714
vt 0.919007 0.901599
vt 0.022082 0.937897
vt 0.022082 0.946969
vt 0.017546 0.951505
vt 0.008473 0.951505
vt 0.003937 0.946969
vt 0.003937 0.937897
vt 0.008473 0.933361
vt 0.017546 0.933361
vt 0.702670 0.993465
vt 0.702670 0.916350
vt 0.878870 0.076515
vt 0.869798 0.076515
vt 0.869798 0.003937
vt 0.878870 0.003937
vt 0.707734 0.203905
vt 0.716807 0.203905
vt 0.261066 0.698946
vt 0.262384 0.827031
vt 0.261555 0.847007
vt 0.254726 0.902184
vt 0.260067 0.553316
vt 0.260819 0.681042
vt 0.125097 0.009392
vt 0.132279 0.013292
vt 0.126390 0.018509
vt 0.119563 0.015073
vt 0.135309 0.020899
vt 0.128973 0.025714
vt 0.024943 0.013619
vt 0.028920 0.006727
vt 0.033894 0.012575
vt 0.030400 0.019184
vt 0.036351 0.003937
vt 0.040960 0.010179
vt 0.159131 0.021299
vt 0.153310 0.023986
vt 0.149248 0.019666
vt 0.154525 0.016843
vt 0.150342 0.029656
vt 0.145911 0.024807
vt 0.239852 0.028815
vt 0.236761 0.023283
vt 0.240690 0.018953
vt 0.243903 0.023895
vt 0.230987 0.020805
vt 0.235407 0.016109
vt 0.155312 0.911879
vt 0.150060 0.908910
vt 0.154110 0.904653
vt 0.159850 0.907297
vt 0.146864 0.903836
vt 0.151163 0.899000
vt 0.243910 0.905062
vt 0.240644 0.910052
vt 0.236740 0.905606
vt 0.239828 0.900141
vt 0.235295 0.912538
vt 0.230963 0.908002
vt 0.119910 0.913797
vt 0.126735 0.910355
vt 0.132612 0.915570
vt 0.125451 0.919463
vt 0.129339 0.903164
vt 0.135642 0.907992
vt 0.030863 0.910218
vt 0.034324 0.916842
vt 0.029331 0.922681
vt 0.025369 0.915757
vt 0.041383 0.919242
vt 0.036776 0.925486
vt 0.143120 0.013788
vt 0.150624 0.008417
vt 0.138353 0.020961
vt 0.238575 0.008466
vt 0.245930 0.012482
vt 0.251882 0.019333
vt 0.151999 0.919437
vt 0.144734 0.915261
vt 0.138983 0.908347
vt 0.245837 0.916053
vt 0.238582 0.920687
vt 0.251381 0.909547
s 0
f 1/1/1 3/2/1 2/3/1
f 86/4/2 88/5/2 87/6/2
f 99/7/3 101/8/3 100/9/3
f 144/10/4 146/11/4 145/12/4
f 5/13/5 4/14/5 3/2/5 1/1/5
f 2/3/6 3/2/6 11/15/6 10/16/6
f 21/17/6 20/18/6 23/19/6 22/20/6
f 33/21/6 32/22/6 35/23/6 34/24/6
f 45/25/6 44/26/6 47/27/6 46/28/6
f 27/29/7 26/30/7 29/31/7 28/32/7
f 9/33/7 8/34/7 31/35/7 30/36/7
f 32/22/6 33/21/6 10/16/6 11/15/6
f 20/18/6 21/17/6 34/24/6 35/23/6
f 15/37/7 14/38/7 49/39/7 48/40/7
f 51/41/7 50/42/7 25/43/7 24/44/7
f 44/26/6 45/25/6 12/45/6 13/46/6
f 22/20/6 23/19/6 46/28/6 47/27/6
f 85/47/5 84/48/5 86/4/5 87/6/5
f 87/6/7 88/5/7 81/49/7 80/50/7
f 73/51/6 72/52/6 67/53/6 66/54/6
f 65/55/7 64/56/7 75/57/7 74/58/7
f 61/59/6 60/60/6 83/61/6 82/62/6
f 80/50/7 81/49/7 63/63/7 62/64/7
f 57/65/7 56/66/7 78/67/7 79/68/7
f 77/69/6 76/70/6 59/71/6 58/72/6
f 69/73/7 68/74/7 55/75/7 54/76/7
f 53/77/6 52/78/6 71/79/6 70/80/6
f 52/78/5 53/77/5 50/42/5 51/41/5
f 24/44/8 25/43/8 70/80/8 71/79/8
f 58/72/8 59/71/8 48/40/8 49/39/8
f 42/81/8 43/82/8 56/83/8 57/84/8
f 54/85/5 55/86/5 40/87/5 41/88/5
f 68/89/8 69/90/8 16/91/8 17/92/8
f 76/70/5 77/69/5 14/38/5 15/37/5
f 8/34/8 9/33/8 82/62/8 83/61/8
f 60/60/5 61/59/5 30/36/5 31/35/5
f 66/54/8 67/53/8 28/32/8 29/31/8
f 36/93/8 37/94/8 64/95/8 65/96/8
f 62/97/5 63/98/5 38/99/5 39/100/5
f 18/101/5 19/102/5 74/103/5 75/104/5
f 72/52/5 73/51/5 26/30/5 27/29/5
f 89/105/8 90/106/8 6/107/8 7/108/8
f 4/14/5 5/13/5 84/48/5 85/47/5
f 111/109/9 110/110/9 113/111/9 112/112/9
f 123/113/9 122/114/9 125/115/9 124/116/9
f 135/117/9 134/118/9 137/119/9 136/120/9
f 117/121/10 116/122/10 127/123/10 126/124/10
f 101/8/10 99/7/10 129/125/10 128/126/10
f 122/114/9 123/113/9 103/127/9 102/128/9
f 110/110/9 111/109/9 124/116/9 125/115/9
f 105/129/10 104/130/10 131/131/10 130/132/10
f 133/133/10 132/134/10 115/135/10 114/136/10
f 134/118/9 135/117/9 91/137/9 92/138/9
f 112/112/9 113/111/9 136/120/9 137/119/9
f 158/139/9 157/140/9 168/141/9 167/142/9
f 166/143/10 165/144/10 160/145/10 159/146/10
f 170/147/9 169/148/9 146/11/9 144/10/9
f 143/149/10 142/150/10 172/151/10 171/152/10
f 174/153/10 173/154/10 155/155/10 156/156/10
f 154/157/9 153/158/9 176/159/9 175/160/9
f 162/161/10 161/162/10 180/163/10 179/164/10
f 178/165/9 177/166/9 164/167/9 163/168/9
f 177/166/11 178/165/11 132/134/11 133/133/11
f 114/136/12 115/135/12 163/168/12 164/167/12
f 175/160/12 176/159/12 130/132/12 131/131/12
f 140/169/12 141/170/12 173/171/12 174/172/12
f 179/173/11 180/174/11 138/175/11 139/176/11
f 161/177/12 162/178/12 106/179/12 107/180/12
f 153/158/11 154/157/11 104/130/11 105/129/11
f 100/9/12 101/8/12 144/10/12 145/12/12
f 169/148/11 170/147/11 128/126/11 129/125/11
f 167/142/12 168/141/12 126/124/12 127/123/12
f 118/181/12 119/182/12 165/183/12 166/184/12
f 171/185/11 172/186/11 120/187/11 121/188/11
f 108/189/11 109/190/11 159/191/11 160/192/11
f 157/140/11 158/139/11 116/122/11 117/121/11
f 151/193/12 152/194/12 97/195/12 98/196/12
f 94/197/11 93/198/11 148/199/11 147/200/11
f 96/201/13 95/202/13 1/1/13 2/3/13
f 88/5/14 86/4/14 150/203/14 149/204/14
f 192/205/15 191/206/15 194/207/15 193/208/15
f 204/209/15 203/210/15 206/211/15 205/212/15
f 216/213/15 215/214/15 218/215/15 217/216/15
f 198/217/16 197/218/16 200/219/16 199/220/16
f 191/206/15 192/205/15 205/212/15 206/211/15
f 186/221/16 185/222/16 220/223/16 219/224/16
f 222/225/16 221/226/16 196/227/16 195/228/16
f 215/214/15 216/213/15 183/229/15 184/230/15
f 193/208/15 194/207/15 217/216/15 218/215/15
f 244/231/15 243/232/15 238/233/15 237/234/15
f 236/235/16 235/236/16 246/237/16 245/238/16
f 228/239/16 227/240/16 249/241/16 250/242/16
f 248/243/15 247/244/15 230/245/15 229/246/15
f 240/247/16 239/248/16 226/249/16 225/250/16
f 224/251/15 223/252/15 242/253/15 241/254/15
f 223/252/8 224/251/8 221/226/8 222/225/8
f 195/228/12 196/227/12 241/254/12 242/253/12
f 229/246/12 230/245/12 219/224/12 220/223/12
f 213/255/12 214/256/12 227/257/12 228/258/12
f 225/259/8 226/260/8 211/261/8 212/262/8
f 239/263/12 240/264/12 187/265/12 188/266/12
f 247/244/8 248/243/8 185/222/8 186/221/8
f 232/267/8 231/268/8 202/269/8 201/270/8
f 237/234/12 238/233/12 199/220/12 200/219/12
f 207/271/12 208/272/12 235/273/12 236/274/12
f 234/275/8 233/276/8 209/277/8 210/278/8
f 189/279/8 190/280/8 245/281/8 246/282/8
f 243/232/8 244/231/8 197/218/8 198/217/8
f 251/283/12 252/284/12 181/285/12 182/286/12
f 264/287/13 263/288/13 266/289/13 265/290/13
f 276/291/13 275/292/13 278/293/13 277/294/13
f 288/295/13 287/296/13 290/297/13 289/298/13
f 270/299/14 269/300/14 280/301/14 279/302/14
f 263/288/13 264/287/13 277/294/13 278/293/13
f 258/303/14 257/304/14 284/305/14 283/306/14
f 286/307/14 285/308/14 268/309/14 267/310/14
f 287/296/13 288/295/13 253/311/13 254/312/13
f 265/290/13 266/289/13 289/298/13 290/297/13
f 302/313/13 301/314/13 312/315/13 311/316/13
f 310/317/14 309/318/14 304/319/14 303/320/14
f 318/321/14 317/322/14 299/323/14 300/324/14
f 298/325/13 297/326/13 320/327/13 319/328/13
f 306/329/14 305/330/14 324/331/14 323/332/14
f 322/333/13 321/334/13 308/335/13 307/336/13
f 321/334/5 322/333/5 285/308/5 286/307/5
f 267/310/11 268/309/11 307/336/11 308/335/11
f 319/328/11 320/327/11 283/306/11 284/305/11
f 293/337/11 294/338/11 317/339/11 318/340/11
f 323/341/5 324/342/5 291/343/5 292/344/5
f 305/345/11 306/346/11 259/347/11 260/348/11
f 297/326/5 298/325/5 257/304/5 258/303/5
f 314/349/5 313/350/5 282/351/5 281/352/5
f 311/316/11 312/315/11 279/302/11 280/301/11
f 271/353/11 272/354/11 309/355/11 310/356/11
f 316/357/5 315/358/5 273/359/5 274/360/5
f 261/361/5 262/362/5 303/363/5 304/364/5
f 301/314/5 302/313/5 269/300/5 270/299/5
f 295/365/11 296/366/11 255/367/11 256/368/11
f 95/202/13 96/201/13 275/292/13 276/291/13
f 203/210/15 204/209/15 102/128/15 103/127/15
f 201/270/16 202/269/16 99/7/16 100/9/16
f 281/352/14 282/351/14 93/198/14 94/197/14
f 142/150/16 143/149/16 233/369/16 234/370/16
f 315/371/14 316/372/14 149/204/14 150/203/14
f 313/350/13 314/349/13 147/200/13 148/199/13
f 231/268/15 232/267/15 145/12/15 146/11/15
f 1/1/17 95/202/17 94/197/17 5/13/17
f 4/14/18 9/33/18 11/15/18 3/2/18
f 10/16/19 102/128/19 96/201/19 2/3/19
f 82/62/18 9/33/18 4/14/18 85/47/18
f 5/13/17 94/197/17 147/200/17 84/48/17
f 89/105/18 7/108/18 14/38/18 77/69/18
f 90/373/20 151/193/20 98/196/20 6/374/20
f 83/375/20 144/376/20 101/377/20 8/378/20
f 9/33/18 30/36/18 32/22/18 11/15/18
f 8/379/21 101/380/21 128/381/21 31/382/21
f 33/21/19 122/114/19 102/128/19 10/16/19
f 49/39/18 14/38/18 12/45/18 45/25/18
f 13/46/19 91/137/19 135/117/19 44/26/19
f 15/383/17 104/384/17 154/385/17 76/386/17
f 48/387/21 131/388/21 104/384/21 15/383/21
f 18/389/21 109/390/21 108/391/21 107/392/21 106/393/21 17/394/21 16/395/21 19/396/21
f 74/103/18 19/102/18 16/91/18 69/90/18
f 17/92/20 106/179/20 162/178/20 68/89/20
f 75/104/17 159/191/17 109/190/17 18/101/17
f 22/20/19 113/111/19 110/110/19 21/17/19
f 20/18/18 26/30/18 25/43/18 23/19/18
f 29/31/18 26/30/18 20/18/18 35/23/18
f 21/17/19 110/110/19 125/115/19 34/24/19
f 25/43/18 50/42/18 46/28/18 23/19/18
f 47/27/19 136/120/19 113/111/19 22/20/19
f 26/30/18 73/51/18 70/80/18 25/43/18
f 71/397/20 163/398/20 115/399/20 24/400/20
f 24/401/21 115/402/21 132/403/21 51/404/21
f 27/405/17 116/406/17 158/407/17 72/408/17
f 28/409/21 127/410/21 116/406/21 27/405/21
f 66/54/18 29/31/18 30/36/18 61/59/18
f 67/411/20 167/412/20 127/413/20 28/414/20
f 29/31/18 35/23/18 32/22/18 30/36/18
f 31/382/17 128/381/17 170/415/17 60/416/17
f 34/24/19 125/115/19 122/114/19 33/21/19
f 38/417/21 121/418/21 120/419/21 119/420/21 118/421/21 37/422/21 36/423/21 39/424/21
f 36/93/18 65/96/18 62/97/18 39/100/18
f 37/94/20 118/181/20 166/184/20 64/95/20
f 63/98/17 171/185/17 121/188/17 38/99/17
f 40/425/21 139/426/21 138/427/21 141/428/21 140/429/21 43/430/21 42/431/21 41/432/21
f 42/81/18 57/84/18 54/85/18 41/88/18
f 55/86/17 179/173/17 139/176/17 40/87/17
f 43/82/20 140/169/20 174/172/20 56/83/20
f 49/39/18 45/25/18 46/28/18 50/42/18
f 44/26/19 135/117/19 136/120/19 47/27/19
f 58/72/18 49/39/18 50/42/18 53/77/18
f 59/433/20 175/434/20 131/435/20 48/436/20
f 51/404/17 132/403/17 178/437/17 52/438/17
f 58/72/18 53/77/18 54/76/18 57/65/18
f 69/73/18 54/76/18 53/77/18 70/80/18
f 52/438/19 178/437/19 163/398/19 71/397/19
f 68/439/21 162/161/21 179/164/21 55/440/21
f 57/65/18 79/68/18 77/69/18 58/72/18
f 56/441/21 174/153/21 156/156/21 78/442/21
f 76/386/19 154/385/19 175/434/19 59/433/19
f 66/54/18 61/59/18 62/64/18 65/55/18
f 61/59/18 82/62/18 80/50/18 62/64/18
f 60/416/19 170/415/19 144/376/19 83/375/19
f 81/443/21 143/149/21 171/152/21 63/444/21
f 73/51/18 66/54/18 65/55/18 74/58/18
f 64/445/21 166/143/21 159/146/21 75/446/21
f 72/408/19 158/407/19 167/412/19 67/411/19
f 74/58/18 69/73/18 70/80/18 73/51/18
f 82/62/18 85/47/18 87/6/18 80/50/18
f 88/447/21 149/448/21 143/149/21 81/443/21
f 84/48/17 147/200/17 150/203/17 86/4/17
f 130/132/22 134/118/22 92/138/22 105/129/22
f 281/352/17 94/197/17 95/202/17 276/291/17
f 201/449/21 100/450/21 93/451/21 282/452/21
f 145/453/22 148/454/22 93/455/22 100/456/22
f 275/292/19 96/201/19 102/128/19 204/209/19
f 152/194/22 153/158/22 105/129/22 97/195/22
f 203/210/20 103/127/20 99/7/20 202/269/20
f 99/7/22 103/127/22 123/113/22 129/125/22
f 160/457/22 161/177/22 107/180/22 108/458/22
f 111/109/22 112/112/22 114/136/22 117/121/22
f 126/124/22 124/116/22 111/109/22 117/121/22
f 114/136/22 112/112/22 137/119/22 133/133/22
f 117/121/22 114/136/22 164/167/22 157/140/22
f 119/182/22 120/459/22 172/460/22 165/183/22
f 126/124/22 129/125/22 123/113/22 124/116/22
f 168/141/22 169/148/22 129/125/22 126/124/22
f 176/159/22 177/166/22 133/133/22 130/132/22
f 130/132/22 133/133/22 137/119/22 134/118/22
f 141/170/22 138/461/22 180/462/22 173/171/22
f 231/268/20 146/11/20 142/150/20 234/370/20
f 169/148/22 172/151/22 142/150/22 146/11/22
f 233/369/21 143/149/21 149/448/21 316/463/21
f 313/464/19 148/454/19 145/453/19 232/465/19
f 315/371/17 150/203/17 147/200/17 314/349/17
f 173/154/22 176/159/22 153/158/22 155/155/22
f 157/140/22 160/145/22 165/144/22 168/141/22
f 160/145/22 157/140/22 164/167/22 161/162/22
f 161/162/22 164/167/22 177/166/22 180/163/22
f 168/141/22 165/144/22 172/151/22 169/148/22
f 176/159/22 173/154/22 180/163/22 177/166/22
f 251/283/20 182/286/20 185/222/20 248/243/20
f 252/284/22 295/466/22 256/467/22 181/285/22
f 220/223/20 185/222/20 183/229/20 216/213/20
f 184/230/19 253/311/19 288/295/19 215/214/19
f 186/468/18 257/469/18 298/470/18 247/471/18
f 219/472/21 284/473/21 257/469/21 186/468/21
f 189/474/21 262/475/21 261/476/21 260/477/21 259/478/21 188/479/21 187/480/21 190/481/21
f 245/482/20 190/483/20 187/265/20 240/264/20
f 188/266/22 259/347/22 306/346/22 239/263/22
f 246/282/18 303/363/18 262/362/18 189/279/18
f 193/208/19 266/289/19 263/288/19 192/205/19
f 191/206/20 197/218/20 196/227/20 194/207/20
f 200/219/20 197/218/20 191/206/20 206/211/20
f 192/205/19 263/288/19 278/293/19 205/212/19
f 196/227/20 221/226/20 217/216/20 194/207/20
f 218/215/19 289/298/19 266/289/19 193/208/19
f 197/218/20 244/231/20 241/254/20 196/227/20
f 242/484/22 307/485/22 268/486/22 195/487/22
f 195/488/21 268/489/21 285/490/21 222/491/21
f 198/492/18 269/493/18 302/494/18 243/495/18
f 199/496/21 280/497/21 269/493/21 198/492/21
f 237/234/20 200/219/20 202/269/20 231/268/20
f 238/498/22 311/499/22 280/500/22 199/501/22
f 200/219/20 206/211/20 203/210/20 202/269/20
f 201/449/18 282/452/18 313/464/18 232/465/18
f 205/212/19 278/293/19 275/292/19 204/209/19
f 209/502/21 274/503/21 273/504/21 272/505/21 271/506/21 208/507/21 207/508/21 210/509/21
f 207/271/20 236/274/20 234/510/20 210/511/20
f 208/272/22 271/353/22 310/356/22 235/273/22
f 233/276/18 316/357/18 274/360/18 209/277/18
f 211/512/21 292/513/21 291/514/21 294/515/21 293/516/21 214/517/21 213/518/21 212/519/21
f 213/255/20 228/258/20 225/520/20 212/521/20
f 226/260/18 323/341/18 292/344/18 211/261/18
f 214/256/22 293/337/22 318/340/22 227/257/22
f 220/223/20 216/213/20 217/216/20 221/226/20
f 215/214/19 288/295/19 289/298/19 218/215/19
f 229/246/20 220/223/20 221/226/20 224/251/20
f 230/522/22 319/523/22 284/524/22 219/525/22
f 222/491/18 285/490/18 322/526/18 223/527/18
f 229/246/20 224/251/20 225/250/20 228/239/20
f 240/247/20 225/250/20 224/251/20 241/254/20
f 223/527/19 322/526/19 307/485/19 242/484/19
f 239/248/21 306/528/21 323/529/21 226/249/21
f 228/239/20 250/242/20 248/243/20 229/246/20
f 227/240/21 318/530/21 300/531/21 249/241/21
f 247/471/19 298/470/19 319/523/19 230/522/19
f 237/234/20 231/268/20 234/370/20 236/235/20
f 244/231/20 237/234/20 236/235/20 245/238/20
f 235/236/21 310/532/21 303/533/21 246/237/21
f 243/495/19 302/494/19 311/499/19 238/498/19
f 245/238/20 240/247/20 241/254/20 244/231/20
f 283/306/17 287/296/17 254/312/17 258/303/17
f 296/366/17 297/326/17 258/303/17 255/367/17
f 304/364/17 305/345/17 260/348/17 261/361/17
f 264/287/17 265/290/17 267/310/17 270/299/17
f 279/302/17 277/294/17 264/287/17 270/299/17
f 267/310/17 265/290/17 290/297/17 286/307/17
f 270/299/17 267/310/17 308/335/17 301/314/17
f 272/354/17 273/359/17 315/358/17 309/355/17
f 279/302/17 281/352/17 276/291/17 277/294/17
f 312/315/17 314/349/17 281/352/17 279/302/17
f 320/327/17 321/334/17 286/307/17 283/306/17
f 283/306/17 286/307/17 290/297/17 287/296/17
f 294/338/17 291/343/17 324/342/17 317/339/17
f 317/322/17 320/327/17 297/326/17 299/323/17
f 301/314/17 304/319/17 309/318/17 312/315/17
f 304/319/17 301/314/17 308/335/17 305/330/17
f 305/330/17 308/335/17 321/334/17 324/331/17
f 312/315/17 309/318/17 315/371/17 314/349/17
f 320/327/17 317/322/17 324/331/17 321/334/17
f 326/534/23 327/535/23 330/536/23 329/537/23
f 327/535/24 325/538/24 328/539/24 330/536/24
f 332/540/25 333/541/25 336/542/25 335/543/25
f 333/541/26 331/544/26 334/545/26 336/542/26
f 337/546/27 339/547/27 342/548/27 340/549/27
f 339/547/28 338/550/28 341/551/28 342/548/28
f 343/552/29 345/553/29 348/554/29 346/555/29
f 345/553/30 344/556/30 347/557/30 348/554/30
f 350/558/31 351/559/31 354/560/31 353/561/31
f 351/559/32 349/562/32 352/563/32 354/560/32
f 356/564/33 357/565/33 360/566/33 359/567/33
f 357/565/34 355/568/34 358/569/34 360/566/34
f 361/570/35 363/571/35 366/572/35 364/573/35
f 363/571/36 362/574/36 365/575/36 366/572/36
f 367/576/37 369/577/37 372/578/37 370/579/37
f 369/577/38 368/580/38 371/581/38 372/578/38
f 340/549/39 342/548/39 327/582/39 326/583/39
f 342/548/40 341/551/40 325/584/40 327/582/40
f 331/585/41 333/586/41 348/554/41 347/557/41
f 333/586/42 332/587/42 346/555/42 348/554/42
f 364/588/43 366/589/43 351/559/43 350/558/43
f 366/589/44 365/590/44 349/562/44 351/559/44
f 355/568/45 357/565/45 372/591/45 371/592/45
f 357/565/46 356/564/46 370/593/46 372/591/46
f 325/584/19 341/551/19 91/137/19 13/46/19
f 13/46/6 12/45/6 328/539/6 325/538/6
f 326/534/8 329/537/8 7/108/8 6/107/8
f 6/374/20 98/196/20 340/549/20 326/583/20
f 14/38/18 330/536/18 328/539/18 12/45/18
f 79/68/7 78/67/7 332/540/7 335/543/7
f 78/442/21 156/156/21 346/555/21 332/587/21
f 334/545/8 331/544/8 90/106/8 89/105/8
f 331/585/20 347/557/20 151/193/20 90/373/20
f 89/105/18 77/69/18 336/542/18 334/545/18
f 105/129/22 339/547/22 337/546/22 97/195/22
f 92/138/9 91/137/9 341/551/9 338/550/9
f 337/546/12 340/549/12 98/196/12 97/195/12
f 156/156/10 155/155/10 343/552/10 346/555/10
f 347/557/12 344/556/12 152/194/12 151/193/12
f 152/194/22 344/556/22 345/553/22 153/158/22
f 349/562/19 365/590/19 253/311/19 184/230/19
f 184/230/15 183/229/15 352/563/15 349/562/15
f 350/558/12 353/561/12 182/286/12 181/285/12
f 181/285/22 256/467/22 364/588/22 350/558/22
f 185/222/20 354/560/20 352/563/20 183/229/20
f 250/242/16 249/241/16 356/564/16 359/567/16
f 249/241/21 300/531/21 370/593/21 356/564/21
f 358/569/12 355/568/12 252/284/12 251/283/12
f 355/568/22 371/592/22 295/466/22 252/284/22
f 251/283/20 248/243/20 360/566/20 358/569/20
f 258/303/17 363/571/17 361/570/17 255/367/17
f 254/312/13 253/311/13 365/575/13 362/574/13
f 361/570/11 364/573/11 256/368/11 255/367/11
f 300/324/14 299/323/14 367/576/14 370/579/14
f 371/581/11 368/580/11 296/366/11 295/365/11
f 296/366/17 368/580/17 369/577/17 297/326/17
f 339/547/22 105/129/22 92/138/22 338/550/22
f 345/553/22 343/552/22 155/155/22 153/158/22
f 354/560/20 185/222/20 182/286/20 353/561/20
f 248/243/20 250/242/20 359/567/20 360/566/20
f 363/571/17 258/303/17 254/312/17 362/574/17
f 369/577/17 367/576/17 299/323/17 297/326/17
f 330/536/18 14/38/18 7/108/18 329/537/18
f 77/69/18 79/68/18 335/543/18 336/542/18
