# Blender 5.2.0 LTS
# www.blender.org
mtllib RailHalf.mtl
o RailHalf
v -0.050001 -0.000000 0.000000
v -0.000001 -0.000000 0.050000
v -2.300201 -0.000000 0.150000
v -2.350201 -0.000000 0.200000
v -2.500201 -0.000000 0.050000
v -2.450202 -0.000000 0.000000
v -0.150017 -0.000000 0.200000
v -0.200017 -0.000000 0.150000
v -0.000001 -0.000000 0.150000
v -0.050001 -0.000000 0.200000
v -2.450202 -0.000000 0.200000
v -2.500201 -0.000000 0.150000
v -0.200017 -0.000000 0.050000
v -0.150017 -0.000000 0.000000
v -2.350201 -0.000000 0.000000
v -2.300201 -0.000000 0.050000
v -0.200017 1.000000 0.150000
v -0.150017 0.950000 0.200000
v -0.150017 0.850000 0.200000
v -0.200017 0.800000 0.150000
v -0.050001 1.000000 0.000000
v -0.000001 1.000000 0.050000
v -0.000001 0.800000 0.050000
v -0.050001 0.800000 0.000000
v -0.050001 0.800000 0.200000
v -0.000001 0.800000 0.150000
v -0.000001 1.000000 0.150000
v -0.050001 1.000000 0.200000
v -0.200017 0.800000 0.050000
v -0.150017 0.850000 0.000000
v -0.150017 0.950000 0.000000
v -0.200017 1.000000 0.050000
v -2.500201 1.000000 0.050000
v -2.450202 1.000000 0.000000
v -2.450202 0.800000 0.000000
v -2.500201 0.800000 0.050000
v -2.300201 1.000000 0.050000
v -2.350201 0.950000 0.000000
v -2.350201 0.850000 0.000000
v -2.300201 0.800000 0.050000
v -2.500201 0.800000 0.150000
v -2.450202 0.800000 0.200000
v -2.450202 1.000000 0.200000
v -2.500201 1.000000 0.150000
v -2.300201 0.800000 0.150000
v -2.350201 0.850000 0.200000
v -2.350201 0.950000 0.200000
v -2.300201 1.000000 0.150000
v -0.050001 1.649996 0.200000
v -0.350017 1.950000 0.200000
v -0.090196 1.799998 0.200000
v -0.200009 1.909807 0.200000
v -0.000001 1.661793 0.150000
v -0.338208 2.000000 0.150000
v -0.045313 1.830897 0.150000
v -0.169105 1.954689 0.150000
v -0.350017 1.950000 0.000000
v -0.050001 1.649996 0.000000
v -0.200009 1.909807 0.000000
v -0.090196 1.799998 0.000000
v -0.338208 2.000000 0.050000
v -0.000001 1.661793 0.050000
v -0.169105 1.954689 0.050000
v -0.045313 1.830897 0.050000
v -2.450202 1.650000 0.000000
v -2.150201 1.950000 0.000000
v -2.410009 1.800000 0.000000
v -2.300201 1.909808 0.000000
v -2.500201 1.661793 0.050000
v -2.161995 2.000000 0.050000
v -2.454890 1.830897 0.050000
v -2.331098 1.954689 0.050000
v -2.150201 1.950000 0.200000
v -2.450202 1.650000 0.200000
v -2.300201 1.909808 0.200000
v -2.410009 1.800000 0.200000
v -2.161995 2.000000 0.150000
v -2.500201 1.661793 0.150000
v -2.331098 1.954689 0.150000
v -2.454890 1.830897 0.150000
v -0.489348 1.850000 0.200000
v -0.150017 1.510670 0.200000
v -0.277814 1.849538 0.200000
v -0.148021 1.725335 0.200000
v -0.538224 1.800000 0.150000
v -0.200017 1.461793 0.150000
v -0.329476 1.799689 0.150000
v -0.200113 1.675897 0.150000
v -0.200017 1.461793 0.050000
v -0.538224 1.800000 0.050000
v -0.200113 1.675897 0.050000
v -0.329476 1.799689 0.050000
v -0.150017 1.510670 0.000000
v -0.489348 1.850000 0.000000
v -0.148021 1.725335 0.000000
v -0.277813 1.849538 0.000000
v -2.010871 1.850000 0.000000
v -2.350201 1.510670 0.000000
v -2.222405 1.849538 0.000000
v -2.352198 1.725335 0.000000
v -1.961995 1.800000 0.050000
v -2.300201 1.461793 0.050000
v -2.170743 1.799689 0.050000
v -2.300105 1.675897 0.050000
v -2.300201 1.461793 0.150000
v -1.961995 1.800000 0.150000
v -2.300105 1.675897 0.150000
v -2.170743 1.799689 0.150000
v -2.350201 1.510670 0.200000
v -2.010871 1.850000 0.200000
v -2.352198 1.725335 0.200000
v -2.222405 1.849538 0.200000
v -2.297302 1.797436 0.000000
v -2.297302 1.797436 0.200000
v -2.365105 1.864904 0.000000
v -2.402994 1.902793 0.050000
v -2.402994 1.902793 0.150000
v -2.365105 1.864904 0.200000
v -2.245424 1.747793 0.050000
v -2.245424 1.747793 0.150000
v -0.202917 1.797436 0.200000
v -0.202917 1.797436 0.000000
v -0.097209 1.902793 0.050000
v -0.135103 1.864903 0.000000
v -0.135103 1.864903 0.200000
v -0.097209 1.902793 0.150000
v -0.254795 1.747793 0.050000
v -0.254795 1.747793 0.150000
v -1.350708 0.850000 0.200000
v -1.150708 0.850000 0.200000
v -1.150681 0.800000 0.150000
v -1.350681 0.800000 0.150000
v -1.150708 0.850000 0.000000
v -1.350708 0.850000 0.000000
v -1.350681 0.800000 0.050000
v -1.150681 0.800000 0.050000
v -1.150681 1.000000 0.050000
v -1.350681 1.000000 0.050000
v -1.300558 0.950000 0.000000
v -1.200558 0.950000 0.000000
v -1.200558 0.950000 0.200000
v -1.300559 0.950000 0.200000
v -1.350681 1.000000 0.150000
v -1.150681 1.000000 0.150000
v -1.150102 2.000000 0.150000
v -1.350102 2.000000 0.150000
v -1.350109 1.950000 0.200000
v -1.150109 1.950000 0.200000
v -1.150102 2.000000 0.050000
v -1.350102 2.000000 0.050000
v -1.350109 1.950000 0.000000
v -1.150109 1.950000 0.000000
v -1.150109 1.800000 0.150000
v -1.350109 1.800000 0.150000
v -1.200259 1.850000 0.200000
v -1.300259 1.850000 0.200000
v -1.150109 1.800000 0.050000
v -1.350109 1.800000 0.050000
v -1.200259 1.850000 0.000000
v -1.300259 1.850000 0.000000
vn 0.7071 -0.0000 0.7071
vn 0.7071 -0.0000 -0.7071
vn -0.7071 -0.0000 0.7071
vn -0.7071 -0.0000 -0.7071
vn 1.0000 -0.0000 -0.0000
vn -0.0000 -1.0000 -0.0000
vn -0.0000 -0.0000 -1.0000
vn -0.0000 -0.0000 1.0000
vn -1.0000 -0.0000 -0.0000
vn 0.6739 0.1806 -0.7165
vn 0.3938 0.5565 -0.7316
vn 0.1806 0.6738 -0.7165
vn 0.6739 0.1806 0.7165
vn 0.3938 0.5565 0.7316
vn 0.1806 0.6738 0.7165
vn -0.6739 0.1806 -0.7165
vn -0.3938 0.5566 -0.7315
vn -0.1806 0.6739 -0.7165
vn -0.6739 0.1806 0.7165
vn -0.3938 0.5566 0.7315
vn -0.1806 0.6739 0.7165
vn -0.0013 -0.7070 -0.7072
vn -0.4566 -0.3475 -0.8190
vn -0.7013 0.0031 -0.7129
vn -0.0013 -0.7070 0.7072
vn -0.4566 -0.3475 0.8190
vn -0.7013 0.0031 0.7129
vn 0.0013 -0.7070 -0.7072
vn 0.4566 -0.3475 -0.8190
vn 0.7013 0.0031 -0.7129
vn 0.0013 -0.7070 0.7072
vn 0.4566 -0.3475 0.8190
vn 0.7013 0.0031 0.7129
vn 0.2588 0.9659 -0.0000
vn 0.8108 0.5853 -0.0000
vn 0.9659 0.2588 -0.0000
vn -0.9659 0.2588 -0.0000
vn -0.5853 0.8108 -0.0000
vn -0.2588 0.9659 -0.0000
vn -0.0015 -1.0000 -0.0000
vn -0.7959 -0.6054 -0.0000
vn -1.0000 -0.0004 -0.0000
vn 1.0000 -0.0004 -0.0000
vn 0.5706 -0.8212 -0.0000
vn 0.0015 -1.0000 -0.0000
vn 0.7959 -0.6054 -0.0000
vn -0.8108 0.5853 -0.0000
vn 0.3306 -0.4754 0.8153
vn 0.3306 -0.4754 -0.8153
vn -0.5566 0.3938 0.7315
vn -0.5566 0.3938 -0.7315
vn -0.5706 -0.8212 -0.0000
vn 0.5853 0.8108 -0.0000
vn -0.3306 -0.4754 0.8153
vn -0.3306 -0.4754 -0.8153
vn 0.5565 0.3938 0.7316
vn 0.5565 0.3938 -0.7316
vn -1.0000 0.0007 -0.0000
vn -0.7072 0.0004 0.7070
vn -0.0000 -0.7071 -0.7071
vn -0.0000 -0.7071 0.7071
vn 0.7070 -0.0004 0.7072
vn 1.0000 -0.0007 -0.0000
vn 0.7070 -0.0004 -0.7072
vn -0.0000 0.7071 0.7071
vn -0.0000 1.0000 -0.0000
vn -0.0000 0.7071 -0.7071
vn -0.7072 0.0004 -0.7070
vt 0.298891 0.643359
vt 0.322131 0.642396
vt 0.322446 0.650678
vt 0.299232 0.651576
vt 0.566686 0.641693
vt 0.589999 0.640658
vt 0.590325 0.648908
vt 0.567087 0.649849
vt 0.299169 0.926190
vt 0.322759 0.926910
vt 0.322493 0.935296
vt 0.298900 0.934534
vt 0.570686 0.926018
vt 0.594633 0.926102
vt 0.594620 0.934628
vt 0.570547 0.934471
vt 0.940135 0.507666
vt 0.940135 0.411747
vt 0.948114 0.411747
vt 0.948114 0.502024
vt 0.890319 0.411747
vt 0.890319 0.507666
vt 0.882339 0.502024
vt 0.882339 0.411747
vt 0.909584 0.411747
vt 0.909584 0.502024
vt 0.901605 0.502024
vt 0.901605 0.411747
vt 0.492683 0.646112
vt 0.495073 0.653699
vt 0.928848 0.411747
vt 0.928848 0.502024
vt 0.920869 0.502024
vt 0.920869 0.411747
vt 0.496043 0.923671
vt 0.493740 0.931560
vt 0.930291 0.614864
vt 0.930291 0.524587
vt 0.938271 0.524587
vt 0.938271 0.620506
vt 0.957535 0.524587
vt 0.957535 0.614864
vt 0.949555 0.614864
vt 0.949555 0.524587
vt 0.976799 0.524587
vt 0.976799 0.614864
vt 0.968819 0.614864
vt 0.968819 0.524587
vt 0.489858 0.634936
vt 0.566078 0.629964
vt 0.399567 0.639501
vt 0.397839 0.648027
vt 0.988083 0.620506
vt 0.988083 0.524587
vt 0.996063 0.524587
vt 0.996063 0.614864
vt 0.830766 0.369613
vt 0.836408 0.375256
vt 0.836408 0.386542
vt 0.830766 0.392184
vt 0.819481 0.392184
vt 0.813839 0.386542
vt 0.813839 0.375256
vt 0.819481 0.369613
vt 0.919007 0.524587
vt 0.919007 0.614864
vt 0.852852 0.378979
vt 0.858494 0.373337
vt 0.869778 0.373337
vt 0.875421 0.378979
vt 0.875421 0.390264
vt 0.869778 0.395906
vt 0.858494 0.395906
vt 0.852852 0.390264
vt 0.959399 0.411747
vt 0.959399 0.502024
vt 0.316991 0.662593
vt 0.305385 0.662783
vt 0.573406 0.661240
vt 0.584953 0.660826
vt 0.589493 0.628951
vt 0.570333 0.946637
vt 0.594578 0.946764
vt 0.576825 0.914119
vt 0.588663 0.914256
vt 0.317113 0.914887
vt 0.305449 0.914592
vt 0.510902 0.663418
vt 0.435496 0.893165
vt 0.430211 0.911068
vt 0.423154 0.901537
vt 0.423948 0.876739
vt 0.382488 0.917334
vt 0.398848 0.929192
vt 0.479747 0.659370
vt 0.475061 0.653110
vt 0.467710 0.658897
vt 0.473200 0.664242
vt 0.468534 0.670988
vt 0.462059 0.666450
vt 0.463392 0.686816
vt 0.455537 0.684726
vt 0.420832 0.645141
vt 0.415905 0.652905
vt 0.423822 0.658204
vt 0.430103 0.651708
vt 0.437005 0.660761
vt 0.429378 0.665955
vt 0.443370 0.681960
vt 0.434825 0.683938
vt 0.475363 0.924490
vt 0.480155 0.918043
vt 0.473439 0.913091
vt 0.467829 0.918522
vt 0.462142 0.910841
vt 0.468688 0.906261
vt 0.455604 0.892578
vt 0.463429 0.890423
vt 0.400638 0.937749
vt 0.416886 0.924185
vt 0.421878 0.931901
vt 0.431063 0.925249
vt 0.424741 0.918833
vt 0.437840 0.916167
vt 0.443965 0.895066
vt 0.481974 0.708080
vt 0.474022 0.702524
vt 0.474755 0.679416
vt 0.481948 0.685531
vt 0.486983 0.677676
vt 0.480435 0.671252
vt 0.487957 0.664934
vt 0.494118 0.671888
vt 0.516618 0.670995
vt 0.423252 0.700540
vt 0.414908 0.706299
vt 0.414578 0.682465
vt 0.422349 0.675585
vt 0.415739 0.666580
vt 0.408659 0.674075
vt 0.400467 0.668027
vt 0.406892 0.659905
vt 0.375964 0.668367
vt 0.381556 0.659909
vt 0.473952 0.874615
vt 0.481840 0.869027
vt 0.482095 0.891474
vt 0.474913 0.897725
vt 0.480763 0.905924
vt 0.487332 0.899321
vt 0.494680 0.905058
vt 0.488514 0.912258
vt 0.517714 0.905473
vt 0.512055 0.913346
vt 0.415648 0.871036
vt 0.415396 0.894735
vt 0.409529 0.903104
vt 0.416624 0.910541
vt 0.407834 0.917254
vt 0.401378 0.909161
vt 0.376894 0.908857
vt 0.451532 0.659869
vt 0.459227 0.650224
vt 0.468862 0.642879
vt 0.490666 0.943832
vt 0.468392 0.935035
vt 0.458738 0.926947
vt 0.451470 0.916884
vt 0.775521 0.072986
vt 0.786806 0.072986
vt 0.786806 0.096542
vt 0.775521 0.096542
vt 0.775521 0.106805
vt 0.786806 0.106805
vt 0.786806 0.116998
vt 0.775521 0.116998
vt 0.786806 0.141159
vt 0.775521 0.141159
vt 0.794680 0.253475
vt 0.805965 0.253475
vt 0.805965 0.277636
vt 0.794680 0.277636
vt 0.794680 0.287829
vt 0.805965 0.287829
vt 0.805965 0.298092
vt 0.794680 0.298092
vt 0.805965 0.321648
vt 0.794680 0.321648
vt 0.324669 0.670039
vt 0.786806 0.193270
vt 0.775521 0.193270
vt 0.566060 0.669145
vt 0.568527 0.905955
vt 0.794680 0.201364
vt 0.805965 0.201364
vt 0.325449 0.907128
vt 0.577156 0.781571
vt 0.587970 0.775742
vt 0.588309 0.798338
vt 0.577211 0.792720
vt 0.596037 0.775542
vt 0.607504 0.775288
vt 0.607904 0.798165
vt 0.596416 0.798291
vt 0.306609 0.777156
vt 0.317555 0.782744
vt 0.317670 0.793941
vt 0.306594 0.799583
vt 0.794680 0.003937
vt 0.805964 0.003937
vt 0.805964 0.094214
vt 0.794680 0.094214
vt 0.422173 0.795001
vt 0.414521 0.802614
vt 0.325394 0.802221
vt 0.421967 0.783484
vt 0.298566 0.799561
vt 0.298594 0.777169
vt 0.473367 0.794753
vt 0.461947 0.800611
vt 0.461961 0.777552
vt 0.473482 0.783451
vt 0.414041 0.775094
vt 0.325670 0.775029
vt 0.786805 0.390826
vt 0.775521 0.390826
vt 0.775521 0.300549
vt 0.786806 0.300549
vt 0.481450 0.775077
vt 0.568774 0.774023
vt 0.442123 0.800759
vt 0.433847 0.800838
vt 0.433718 0.777471
vt 0.442013 0.777477
vt 0.453763 0.800677
vt 0.453763 0.777492
vt 0.297369 0.668586
vt 0.297369 0.908739
vt 0.608462 0.908338
vt 0.596859 0.908397
vt 0.593225 0.666363
vt 0.604714 0.666069
vt 0.569441 0.801054
vt 0.775521 0.003937
vt 0.786806 0.003937
vt 0.805965 0.390697
vt 0.794680 0.390697
vt 0.481140 0.802205
s 0
f 26/1/1 27/2/1 28/3/1 25/4/1
f 22/5/2 23/6/2 24/7/2 21/8/2
f 42/9/3 43/10/3 44/11/3 41/12/3
f 34/13/4 35/14/4 36/15/4 33/16/4
f 30/17/4 14/18/4 13/19/4 29/20/4
f 7/21/3 19/22/3 20/23/3 8/24/3
f 9/25/1 26/26/1 25/27/1 10/28/1
f 62/29/2 22/5/2 21/8/2 58/30/2
f 1/31/2 24/32/2 23/33/2 2/34/2
f 65/35/4 34/13/4 33/16/4 69/36/4
f 40/37/2 16/38/2 15/39/2 39/40/2
f 5/41/4 36/42/4 35/43/4 6/44/4
f 11/45/3 42/46/3 41/47/3 12/48/3
f 22/5/5 62/29/5 53/49/5 27/50/5
f 27/2/1 53/51/1 49/52/1 28/3/1
f 46/53/1 4/54/1 3/55/1 45/56/1
f 9/25/5 2/34/5 23/33/5 26/26/5
f 9/57/6 10/58/6 7/59/6 8/60/6 13/61/6 14/62/6 1/63/6 2/64/6
f 1/31/7 14/18/7 30/17/7 24/32/7
f 3/65/5 16/38/5 40/37/5 45/66/5
f 15/67/6 16/68/6 3/69/6 4/70/6 11/71/6 12/72/6 5/73/6 6/74/6
f 11/45/8 4/54/8 46/53/8 42/46/8
f 15/39/7 6/44/7 35/43/7 39/40/7
f 5/41/9 12/48/9 41/47/9 36/42/9
f 13/19/9 8/75/9 20/76/9 29/20/9
f 7/21/8 10/28/8 25/27/8 19/22/8
f 28/3/8 18/77/8 19/78/8 25/4/8
f 31/79/7 21/8/7 24/7/7 30/80/7
f 22/5/5 27/50/5 26/81/5 23/6/5
f 44/82/9 33/16/9 36/15/9 41/83/9
f 34/13/7 38/84/7 39/85/7 35/14/7
f 47/86/8 43/10/8 42/9/8 46/87/8
f 21/8/7 31/79/7 93/88/7 58/30/7
f 73/89/8 75/90/8 112/91/8 110/92/8
f 43/10/8 47/86/8 109/93/8 74/94/8
f 62/29/10 58/30/10 60/95/10 64/96/10
f 123/97/11 124/98/11 59/99/11 63/100/11
f 63/100/12 59/99/12 57/101/12 61/102/12
f 49/52/13 53/51/13 55/103/13 51/104/13
f 125/105/14 126/106/14 56/107/14 52/108/14
f 52/108/15 56/107/15 54/109/15 50/110/15
f 65/35/16 69/36/16 71/111/16 67/112/16
f 115/113/17 116/114/17 72/115/17 68/116/17
f 68/116/18 72/115/18 70/117/18 66/118/18
f 78/119/19 74/94/19 76/120/19 80/121/19
f 117/122/20 118/123/20 75/90/20 79/124/20
f 79/124/21 75/90/21 73/89/21 77/125/21
f 90/126/22 94/127/22 96/128/22 92/129/22
f 127/130/23 122/131/23 95/132/23 91/133/23
f 91/133/24 95/132/24 93/88/24 89/134/24
f 81/135/25 85/136/25 87/137/25 83/138/25
f 121/139/26 128/140/26 88/141/26 84/142/26
f 84/142/27 88/141/27 86/143/27 82/144/27
f 97/145/28 101/146/28 103/147/28 99/148/28
f 113/149/29 119/150/29 104/151/29 100/152/29
f 100/152/30 104/151/30 102/153/30 98/154/30
f 106/155/31 110/92/31 112/91/31 108/156/31
f 120/157/32 114/158/32 111/159/32 107/160/32
f 107/160/33 111/159/33 109/93/33 105/161/33
f 61/102/34 54/109/34 56/162/34 63/100/34
f 123/97/35 126/163/35 55/164/35 64/96/35
f 64/96/36 55/164/36 53/49/36 62/29/36
f 69/36/37 78/165/37 80/166/37 71/111/37
f 116/114/38 117/167/38 79/168/38 72/115/38
f 72/115/39 79/168/39 77/125/39 70/117/39
f 85/169/40 90/170/40 92/171/40 87/172/40
f 128/173/41 127/174/41 91/175/41 88/176/41
f 88/176/42 91/175/42 89/177/42 86/178/42
f 105/179/43 102/180/43 104/181/43 107/182/43
f 120/183/44 119/184/44 103/185/44 108/186/44
f 108/186/45 103/185/45 101/187/45 106/188/45
f 74/94/8 109/93/8 111/159/8 76/120/8
f 50/110/8 81/135/8 83/138/8 52/108/8
f 44/82/9 78/165/9 69/36/9 33/16/9
f 43/10/3 74/94/3 78/119/3 44/11/3
f 58/30/7 93/88/7 95/132/7 60/95/7
f 49/52/8 82/144/8 18/77/8 28/3/8
f 18/77/3 82/144/3 86/143/3 17/189/3
f 32/190/9 17/191/9 86/178/9 89/177/9
f 93/88/4 31/79/4 32/192/4 89/134/4
f 66/118/7 97/145/7 99/148/7 68/116/7
f 102/153/2 37/193/2 38/84/2 98/154/2
f 48/194/5 37/195/5 102/180/5 105/179/5
f 109/93/1 47/86/1 48/196/1 105/161/1
f 115/113/7 113/149/7 100/152/7 67/112/7
f 67/112/7 100/152/7 98/154/7 65/35/7
f 124/98/7 122/131/7 96/128/7 59/99/7
f 65/35/7 98/154/7 38/84/7 34/13/7
f 125/105/8 121/139/8 84/142/8 51/104/8
f 51/104/8 84/142/8 82/144/8 49/52/8
f 59/99/7 96/128/7 94/127/7 57/101/7
f 118/123/8 114/158/8 112/91/8 75/90/8
f 76/120/8 111/159/8 114/158/8 118/123/8
f 68/116/7 99/148/7 113/149/7 115/113/7
f 107/182/46 104/181/46 119/184/46 120/183/46
f 71/111/47 80/166/47 117/167/47 116/114/47
f 108/156/48 112/91/48 114/158/48 120/157/48
f 99/148/49 103/147/49 119/150/49 113/149/49
f 80/121/50 76/120/50 118/123/50 117/122/50
f 67/112/51 71/111/51 116/114/51 115/113/51
f 52/108/8 83/138/8 121/139/8 125/105/8
f 60/95/7 95/132/7 122/131/7 124/98/7
f 87/172/52 92/171/52 127/174/52 128/173/52
f 63/100/53 56/162/53 126/163/53 123/97/53
f 83/138/54 87/137/54 128/140/54 121/139/54
f 92/129/55 96/128/55 122/131/55 127/130/55
f 51/104/56 55/103/56 126/106/56 125/105/56
f 64/96/57 60/95/57 124/98/57 123/97/57
f 140/197/7 133/198/7 134/199/7 139/200/7
f 136/201/6 131/202/6 132/203/6 135/204/6
f 130/205/8 141/206/8 142/207/8 129/208/8
f 154/209/58 158/210/58 138/211/58 143/212/58
f 156/213/59 154/214/59 143/215/59 142/207/59
f 155/216/8 156/213/8 142/207/8 141/206/8
f 133/198/60 136/201/60 135/204/60 134/199/60
f 129/208/61 132/217/61 131/218/61 130/205/61
f 160/219/7 151/220/7 152/221/7 159/222/7
f 153/223/62 155/216/62 141/206/62 144/224/62
f 157/225/63 153/226/63 144/227/63 137/228/63
f 159/222/64 157/229/64 137/230/64 140/197/64
f 146/231/65 147/232/65 148/233/65 145/234/65
f 155/216/8 148/233/8 147/232/8 156/213/8
f 150/235/66 146/231/66 145/234/66 149/236/66
f 151/220/67 150/235/67 149/236/67 152/221/67
f 47/86/8 46/87/8 129/208/8 142/207/8
f 19/78/61 130/205/61 131/218/61 20/237/61
f 129/208/61 46/87/61 45/238/61 132/217/61
f 141/206/8 130/205/8 19/78/8 18/77/8
f 45/239/6 40/240/6 135/204/6 132/203/6
f 131/202/6 136/201/6 29/241/6 20/242/6
f 133/198/7 140/197/7 31/79/7 30/80/7
f 39/85/60 134/199/60 135/204/60 40/240/60
f 133/198/60 30/80/60 29/241/60 136/201/60
f 39/85/7 38/84/7 139/200/7 134/199/7
f 137/228/66 144/227/66 17/191/66 32/190/66
f 37/193/67 138/243/67 139/200/67 38/84/67
f 137/230/67 32/192/67 31/79/67 140/197/67
f 37/195/66 48/194/66 143/212/66 138/211/66
f 47/86/65 142/207/65 143/215/65 48/196/65
f 141/206/65 18/77/65 17/189/65 144/224/65
f 146/231/65 77/125/65 73/89/65 147/232/65
f 54/109/66 61/102/66 149/236/66 145/234/66
f 54/109/65 145/234/65 148/233/65 50/110/65
f 146/231/66 150/235/66 70/117/66 77/125/66
f 110/92/8 156/213/8 147/232/8 73/89/8
f 155/216/8 81/135/8 50/110/8 148/233/8
f 57/101/67 152/221/67 149/236/67 61/102/67
f 151/220/67 66/118/67 70/117/67 150/235/67
f 151/220/7 160/219/7 97/145/7 66/118/7
f 57/101/7 94/127/7 159/222/7 152/221/7
f 153/244/6 157/245/6 90/170/6 85/169/6
f 106/155/61 154/214/61 156/213/61 110/92/61
f 153/223/61 85/136/61 81/135/61 155/216/61
f 106/188/6 101/187/6 158/246/6 154/247/6
f 159/222/60 94/127/60 90/126/60 157/229/60
f 97/145/60 160/219/60 158/248/60 101/146/60
f 158/248/68 160/219/68 139/200/68 138/243/68
f 160/219/7 159/222/7 140/197/7 139/200/7
