# Blender 5.1.2
# www.blender.org
mtllib FloorBrokenLaboratory.mtl
o FloorBrokenLaboratory
v 3.001934 0.100005 2.499062
v -3.001934 0.100005 2.499062
v 3.001934 0.100005 -2.500938
v -3.001934 0.100005 -2.500938
v -3.001934 0.100005 1.665729
v -3.001934 0.100005 0.832395
v -3.001934 0.100005 -0.000938
v -3.001934 0.100005 -0.834271
v -3.001934 0.100005 -1.667605
v 3.001934 0.100005 -1.667605
v 3.001934 0.100005 -0.834271
v 3.001934 0.100005 -0.000938
v 3.001934 0.100005 0.832395
v 3.001934 0.100005 1.665729
v -2.001289 0.100005 2.499062
v -1.000644 0.100005 2.499062
v 0.000000 0.100005 2.499062
v 1.000645 0.100005 2.499062
v 2.001289 0.100005 2.499062
v -2.001289 0.100005 -2.500938
v -1.000644 0.100005 -2.500938
v 0.000000 0.100005 -2.500938
v 1.000645 0.100005 -2.500938
v 2.001289 0.100005 -2.500938
v -2.001289 0.100005 -1.667605
v -1.000644 0.100005 -1.667605
v 0.000000 0.100005 -1.667605
v 1.000645 0.100005 -1.667605
v 2.001289 0.100005 -1.667605
v -2.001289 0.100005 -0.834271
v 2.001289 0.100005 -0.834271
v -2.001289 0.100005 -0.000938
v 2.001289 0.100005 -0.000938
v -2.001289 0.100005 0.832395
v 2.001289 0.100005 0.832395
v -2.001289 0.100005 1.665729
v -1.000644 0.100005 1.665729
v 0.000000 0.100005 1.665729
v 1.000645 0.100005 1.665729
v 2.001289 0.100005 1.665729
v -1.000644 0.100005 -1.667605
v -1.210895 0.041567 -0.834271
v -1.178217 -0.053680 -0.000938
v 0.000000 -0.141701 0.832395
v -1.143875 0.065543 0.802209
v -1.000644 0.100005 1.665729
v -1.000644 0.082965 -0.834271
v 1.000645 -0.119762 -0.000938
v 1.000645 -0.078260 0.832395
v -1.086344 0.018023 0.802209
v 1.000645 0.029052 -0.866236
v 1.000645 -0.041043 -0.794038
v 0.000000 -0.150482 -0.834271
v 2.001289 -0.100005 2.499062
v 3.001934 -0.100005 2.499062
v 2.001289 -0.100005 -2.500938
v 3.001934 -0.100005 -2.500938
v -3.001934 -0.100005 -1.667605
v -3.001934 -0.100005 -2.500938
v 3.001934 -0.100005 1.665729
v -3.001934 -0.100005 2.499062
v -3.001934 -0.100005 1.665729
v -3.001934 -0.100005 0.832395
v -3.001934 -0.100005 -0.000938
v -3.001934 -0.100005 -0.834271
v 3.001934 -0.100005 -1.667605
v 3.001934 -0.100005 -0.834271
v 3.001934 -0.100005 -0.000938
v 3.001934 -0.100005 0.832395
v 2.001289 -0.100005 -1.667605
v 2.001289 -0.100005 -0.834271
v 2.001289 -0.100005 -0.000938
v 2.001289 -0.100005 0.832395
v 2.001289 -0.100005 1.665729
v -2.001289 -0.100005 2.499062
v -1.000644 -0.100005 2.499062
v 0.000000 -0.100005 2.499062
v 1.000645 -0.100005 2.499062
v -2.001289 -0.100005 -2.500938
v -1.000644 -0.100005 -2.500938
v 0.000000 -0.100005 -2.500938
v 1.000645 -0.100005 -2.500938
v -2.001289 -0.100005 -1.667605
v -1.000644 -0.100005 -1.667605
v 0.000000 -0.100005 -1.667605
v 1.000645 -0.100005 -1.667605
v -2.001289 -0.100005 -0.834271
v -2.001289 -0.100005 -0.000938
v -2.001289 -0.100005 0.832395
v -2.001289 -0.100005 1.665729
v -1.000644 -0.100005 1.665729
v 0.000000 -0.100005 1.665729
v 1.000645 -0.100005 1.665729
v -1.178217 -0.186698 -0.000938
v -1.210895 -0.158443 -0.834271
v -1.143875 -0.134467 0.802209
v 1.000645 -0.176829 0.832395
v 1.000645 -0.241015 -0.000938
v 0.000000 -0.341711 0.832395
v 1.000645 -0.095130 -0.866236
v -1.086344 -0.181987 0.802209
v -1.000644 -0.117045 -0.834271
v 0.000000 -0.275072 -0.834271
v 1.000645 -0.204178 -0.794038
vn -0.0000 1.0000 -0.0000
vn 0.0326 0.9987 0.0391
vn 0.1302 0.9900 0.0540
vn 0.1096 0.9912 -0.0745
vn 0.0182 0.9996 -0.0218
vn -0.0361 0.9984 0.0433
vn -0.1763 0.9832 0.0476
vn -0.1950 0.9805 -0.0244
vn -0.0882 0.9905 -0.1059
vn -0.0307 0.9692 -0.2442
vn 0.0777 0.9786 -0.1906
vn -0.0846 0.9777 0.1922
vn 0.1144 0.9809 0.1574
vn -0.0000 -1.0000 -0.0000
vn -0.0326 -0.9987 -0.0391
vn -0.0896 -0.9959 -0.0151
vn -0.0713 -0.9969 0.0333
vn -0.0182 -0.9996 0.0218
vn -0.0025 -1.0000 0.0030
vn 0.1211 -0.9924 -0.0225
vn 0.1081 -0.9934 0.0383
vn 0.0383 -0.9982 0.0460
vn 0.0807 -0.9790 0.1871
vn -0.0777 -0.9786 0.1906
vn 0.0874 -0.9908 -0.1032
vn -0.0782 -0.9904 -0.1142
vn -0.0319 -0.0000 0.9995
vn -1.0000 -0.0000 -0.0000
vn -0.0000 -0.0000 1.0000
vn 0.9992 -0.0000 -0.0392
vn 0.9696 -0.0000 0.2446
vn 0.0278 -0.0000 -0.9996
vn 1.0000 -0.0000 -0.0000
vn -0.0000 -0.0000 -1.0000
vn -0.9951 -0.0000 0.0988
vn 0.9865 -0.0000 -0.1636
vn -0.0402 -0.0000 -0.9992
vn 0.9991 -0.0000 -0.0427
vn 0.0319 -0.0000 0.9995
vt 0.103141 0.091346
vt 0.028961 0.092620
vt 0.027355 0.003262
vt 0.101772 0.001925
vt 0.474798 0.089803
vt 0.401047 0.089418
vt 0.401184 0.000268
vt 0.475326 0.000658
vt 0.326788 0.089663
vt 0.326751 -0.000000
vt 0.252068 0.089575
vt 0.251629 -0.000000
vt 0.177275 0.090367
vt 0.176471 0.000737
vt 0.165649 0.550244
vt 0.078797 0.541552
vt 0.085941 0.444828
vt 0.170309 0.448795
vt 0.255861 0.552405
vt 0.254770 0.449763
vt 0.345636 0.547159
vt 0.338363 0.446452
vt 0.432331 0.535537
vt 0.421721 0.439542
vt 0.509540 0.520990
vt 0.492072 0.428280
vt 0.397110 0.359334
vt 0.473670 0.346722
vt 0.401516 0.265766
vt 0.471459 0.265331
vt 0.401407 0.177841
vt 0.473643 0.178483
vt 0.000000 0.530335
vt 0.015717 0.434452
vt 0.032450 0.356785
vt 0.109900 0.364533
vt 0.032539 0.269824
vt 0.106254 0.269354
vt 0.030709 0.181624
vt 0.104443 0.180340
vt 0.333146 0.370420
vt 0.397052 0.359393
vt 0.254472 0.367808
vt 0.176196 0.366203
vt 0.109959 0.364599
vt 0.331796 0.177664
vt 0.323075 0.178456
vt 0.252497 0.179853
vt 0.178450 0.180021
vt 0.177768 0.266673
vt 0.176144 0.357256
vt 0.327847 0.264468
vt 0.334173 0.345817
vt 0.584896 0.453749
vt 0.584827 0.544189
vt 0.509540 0.544116
vt 0.509628 0.453713
vt 0.963228 0.455079
vt 0.962306 0.545941
vt 0.886600 0.545153
vt 0.887484 0.454427
vt 0.811132 0.544496
vt 0.811281 0.453239
vt 0.735559 0.544381
vt 0.735577 0.453721
vt 0.660151 0.544272
vt 0.660195 0.453740
vt 0.660126 0.001292
vt 0.660429 0.091786
vt 0.585054 0.092015
vt 0.584801 0.001560
vt 0.735495 0.001002
vt 0.735799 0.091597
vt 0.810970 0.000681
vt 0.811297 0.091343
vt 0.886516 0.000357
vt 0.886889 0.091145
vt 0.962151 0.000000
vt 0.962579 0.090820
vt 0.963022 0.181735
vt 0.887203 0.182021
vt 0.963472 0.272876
vt 0.887627 0.273165
vt 0.963881 0.363942
vt 0.888498 0.363885
vt 0.509784 0.092165
vt 0.509540 0.001776
vt 0.585332 0.182689
vt 0.509876 0.182556
vt 0.584920 0.273293
vt 0.509680 0.273103
vt 0.584895 0.363399
vt 0.509673 0.363385
vt 0.811482 0.163079
vt 0.736030 0.166602
vt 0.663308 0.169204
vt 0.817624 0.363860
vt 0.735333 0.362833
vt 0.806069 0.363089
vt 0.660210 0.363174
vt 0.662140 0.272870
vt 0.663692 0.175893
vt 0.810292 0.273895
vt 0.811715 0.182416
vt 0.851635 0.585633
vt 0.851635 0.574420
vt 0.942033 0.573980
vt 0.942033 0.592040
vt 0.078708 0.604948
vt 0.078708 0.623008
vt 0.003463 0.623008
vt 0.003463 0.604948
vt 0.153953 0.604948
vt 0.153953 0.623008
vt 0.981940 -0.000000
vt 1.000000 -0.000000
vt 1.000000 0.090352
vt 0.981940 0.090352
vt 0.229198 0.604948
vt 0.229198 0.623008
vt 0.789128 0.604050
vt 0.789128 0.592040
vt 0.864431 0.594591
vt 0.864431 0.612650
vt 1.000000 0.180704
vt 0.981940 0.180704
vt 0.304443 0.604948
vt 0.304443 0.623008
vt 0.942033 0.599867
vt 0.942033 0.617927
vt 1.000000 0.271056
vt 0.981940 0.271056
vt 0.764558 0.635954
vt 0.763471 0.617927
vt 0.862289 0.626414
vt 0.863376 0.644441
vt 0.379688 0.604948
vt 0.379688 0.623008
vt 1.000000 0.361408
vt 0.981940 0.361408
vt 0.670885 0.590501
vt 0.670885 0.572441
vt 0.761237 0.558172
vt 0.761237 0.569422
vt 0.565809 0.540113
vt 0.565809 0.558172
vt 0.490564 0.558172
vt 0.490564 0.540113
vt 1.000000 0.451760
vt 0.981940 0.451760
vt 0.641054 0.540113
vt 0.641054 0.558172
vt 0.545285 0.604948
vt 0.545285 0.623008
vt 0.454933 0.623008
vt 0.454933 0.604948
vt 0.940946 0.629085
vt 0.942034 0.647112
vt 0.716299 0.540113
vt 0.716299 0.558172
vt 0.637507 0.617927
vt 0.637507 0.599867
vt 0.716542 0.596756
vt 0.716542 0.614815
vt 0.635637 0.604948
vt 0.635637 0.623008
vt 0.674715 0.647112
vt 0.674179 0.638228
vt 0.791544 0.540113
vt 0.791544 0.558172
vt 0.779025 0.655944
vt 0.778284 0.666867
vt 0.703604 0.655992
vt 0.704206 0.647112
vt 0.725989 0.604949
vt 0.725989 0.623008
vt 0.942033 0.647112
vt 0.940811 0.665131
vt 0.849957 0.668395
vt 0.850954 0.653699
vt 0.866789 0.540113
vt 0.866789 0.558172
vt 1.000000 0.542112
vt 0.981940 0.542112
vt 0.816341 0.604949
vt 0.816341 0.623008
vt 0.997045 0.604949
vt 0.997045 0.623008
vt 0.906693 0.623008
vt 0.906693 0.604949
vt 0.595640 0.592040
vt 0.595640 0.573980
vt 0.942034 0.540113
vt 0.942034 0.558172
s 0
usemtl M_FloorLaboratory
f 40/1/1 19/2/1 1/3/1 14/4/1
f 24/5/1 29/6/1 10/7/1 3/8/1
f 29/6/1 31/9/1 11/10/1 10/7/1
f 31/9/1 33/11/1 12/12/1 11/10/1
f 33/11/1 35/13/1 13/14/1 12/12/1
f 35/13/1 40/1/1 14/4/1 13/14/1
f 6/15/1 5/16/1 36/17/1 34/18/1
f 7/19/1 6/15/1 34/18/1 32/20/1
f 8/21/1 7/19/1 32/20/1 30/22/1
f 9/23/1 8/21/1 30/22/1 25/24/1
f 4/25/1 9/23/1 25/24/1 20/26/1
f 20/26/1 25/24/1 26/27/1 21/28/1
f 21/28/1 26/27/1 27/29/1 22/30/1
f 22/30/1 27/29/1 28/31/1 23/32/1
f 23/32/1 28/31/1 29/6/1 24/5/1
f 5/16/1 2/33/1 15/34/1 36/17/1
f 36/17/1 15/34/1 16/35/1 37/36/1
f 37/36/1 16/35/1 17/37/1 38/38/1
f 38/38/1 17/37/1 18/39/1 39/40/1
f 39/40/1 18/39/1 19/2/1 40/1/1
f 25/24/2 30/22/2 42/41/2 41/42/2
f 30/22/3 32/20/3 43/43/3 42/41/3
f 32/20/4 34/18/4 45/44/4 43/43/4
f 34/18/5 36/17/5 46/45/5 45/44/5
f 31/9/6 29/6/6 28/31/6 51/46/6
f 33/11/7 31/9/7 52/47/7 48/48/7
f 35/13/8 33/11/8 48/48/8 49/49/8
f 40/1/9 35/13/9 49/49/9 39/40/9
f 38/38/10 39/40/10 49/49/10 44/50/10
f 37/36/11 38/38/11 44/50/11 50/51/11
f 28/31/12 27/29/12 53/52/12 51/46/12
f 27/29/13 26/27/13 47/53/13 53/52/13
f 74/54/14 60/55/14 55/56/14 54/57/14
f 56/58/14 57/59/14 66/60/14 70/61/14
f 70/61/14 66/60/14 67/62/14 71/63/14
f 71/63/14 67/62/14 68/64/14 72/65/14
f 72/65/14 68/64/14 69/66/14 73/67/14
f 73/67/14 69/66/14 60/55/14 74/54/14
f 63/68/14 89/69/14 90/70/14 62/71/14
f 64/72/14 88/73/14 89/69/14 63/68/14
f 65/74/14 87/75/14 88/73/14 64/72/14
f 58/76/14 83/77/14 87/75/14 65/74/14
f 59/78/14 79/79/14 83/77/14 58/76/14
f 79/79/14 80/80/14 84/81/14 83/77/14
f 80/80/14 81/82/14 85/83/14 84/81/14
f 81/82/14 82/84/14 86/85/14 85/83/14
f 82/84/14 56/58/14 70/61/14 86/85/14
f 62/71/14 90/70/14 75/86/14 61/87/14
f 90/70/14 91/88/14 76/89/14 75/86/14
f 91/88/14 92/90/14 77/91/14 76/89/14
f 92/90/14 93/92/14 78/93/14 77/91/14
f 93/92/14 74/54/14 54/57/14 78/93/14
f 83/77/15 84/81/15 95/94/15 87/75/15
f 87/75/16 95/94/16 94/95/16 88/73/16
f 88/73/17 94/95/17 96/96/17 89/69/17
f 89/69/18 96/96/18 91/88/18 90/70/18
f 71/63/19 100/97/19 86/85/19 70/61/19
f 72/65/20 98/98/20 104/99/20 71/63/20
f 73/67/21 97/100/21 98/98/21 72/65/21
f 74/54/22 93/92/22 97/100/22 73/67/22
f 92/90/23 99/101/23 97/100/23 93/92/23
f 91/88/24 101/102/24 99/101/24 92/90/24
f 86/85/25 100/97/25 103/103/25 85/83/25
f 85/83/26 103/103/26 102/104/26 84/81/26
f 51/105/27 100/106/27 71/107/27 31/108/27
f 5/109/28 62/110/28 61/111/28 2/112/28
f 6/113/28 63/114/28 62/110/28 5/109/28
f 2/115/29 61/116/29 75/117/29 15/118/29
f 7/119/28 64/120/28 63/114/28 6/113/28
f 43/121/30 94/122/30 95/123/30 42/124/30
f 15/118/29 75/117/29 76/125/29 16/126/29
f 8/127/28 65/128/28 64/120/28 7/119/28
f 42/124/31 95/123/31 84/129/31 41/130/31
f 16/126/29 76/125/29 77/131/29 17/132/29
f 44/133/32 99/134/32 101/135/32 50/136/32
f 9/137/28 58/138/28 65/128/28 8/127/28
f 17/132/29 77/131/29 78/139/29 18/140/29
f 47/141/29 102/142/29 103/143/29 53/144/29
f 10/145/33 66/146/33 57/147/33 3/148/33
f 18/140/29 78/139/29 54/149/29 19/150/29
f 11/151/33 67/152/33 66/146/33 10/145/33
f 20/153/34 79/154/34 59/155/34 4/156/34
f 50/136/35 101/135/35 91/157/35 37/158/35
f 12/159/33 68/160/33 67/152/33 11/151/33
f 46/161/36 91/162/36 96/163/36 45/164/36
f 21/165/34 80/166/34 79/154/34 20/153/34
f 49/167/34 97/168/34 99/134/34 44/133/34
f 13/169/33 69/170/33 68/160/33 12/159/33
f 48/171/28 98/172/28 97/173/28 49/174/28
f 22/175/34 81/176/34 80/166/34 21/165/34
f 31/177/37 71/178/37 104/179/37 52/180/37
f 14/181/33 60/182/33 69/170/33 13/169/33
f 19/150/29 54/149/29 55/183/29 1/184/29
f 23/185/34 82/186/34 81/176/34 22/175/34
f 52/180/28 104/179/28 98/172/28 48/171/28
f 3/187/34 57/188/34 56/189/34 24/190/34
f 24/190/34 56/189/34 82/186/34 23/185/34
f 45/164/38 96/163/38 94/122/38 43/121/38
f 4/156/28 59/155/28 58/138/28 9/137/28
f 26/191/28 84/192/28 102/142/28 47/141/28
f 1/193/33 55/194/33 60/182/33 14/181/33
f 53/144/39 103/143/39 100/106/39 51/105/39
