# Blender 5.1.2
# www.blender.org
mtllib WallBaseLaboratory.mtl
o WallBaseLaboratory
v 3.001934 0.100005 -2.500938
v -3.001935 0.100005 -2.500938
v 3.001934 1.170891 -3.339877
v -3.001935 1.170891 -3.339877
v 3.001934 3.030764 -3.339877
v -3.001935 3.030764 -3.339877
v 3.001934 4.101650 -2.500938
v -3.001935 4.101650 -2.500938
v 3.001934 -0.100005 -2.500938
v -3.001935 -0.100005 -2.500938
vn -0.0000 0.6167 0.7872
vn -0.0000 -0.0000 1.0000
vn -0.0000 -0.6167 0.7872
vt 1.001482 0.319159
vt 1.001482 0.545741
vt 0.001482 0.545741
vt 0.001482 0.319159
vt 0.003943 0.576713
vt 0.003943 0.266934
vt 1.003943 0.266934
vt 1.003943 0.576713
vt 0.003943 0.040351
vt 1.003943 0.040351
vt 0.001482 0.285845
vt 1.001482 0.285845
s 0
usemtl M_WallWareHouse.001
f 1/1/1 3/2/1 4/3/1 2/4/1
f 3/5/2 5/6/2 6/7/2 4/8/2
f 5/6/3 7/9/3 8/10/3 6/7/3
f 1/1/2 2/4/2 10/11/2 9/12/2
