# Blender 5.2.1 LTS
# www.blender.org
mtllib AcidVat.mtl
o AcidVat
v 2.510263 0.104544 -0.131520
v 2.510263 0.104544 0.131520
v 2.457597 5.620237 0.128793
v 2.457597 5.620237 -0.128793
v -0.131520 0.104544 -2.510263
v 0.131520 0.104544 -2.510263
v 0.128793 5.620237 -2.457597
v -0.128793 5.620237 -2.457597
v -2.510263 0.104544 0.131520
v -2.510263 0.104544 -0.131520
v -2.457597 5.620237 -0.128793
v -2.457597 5.620237 0.128793
v -0.128793 5.620237 2.457597
v 0.128793 5.620237 2.457597
v 0.131520 0.104544 2.510263
v -0.131520 0.104544 2.510263
v 0.131520 0.104544 2.376235
v -0.131520 0.104544 2.376235
v 0.128793 5.620237 2.145403
v -0.128793 5.620237 2.145403
v -2.376235 0.104544 0.131520
v -2.376235 0.104544 -0.131520
v -2.145403 5.620237 0.128793
v -2.145403 5.620237 -0.128793
v -0.131520 0.104544 -2.376235
v 0.131520 0.104544 -2.376235
v -0.128793 5.620237 -2.145403
v 0.128793 5.620237 -2.145403
v 2.376235 0.104544 -0.131520
v 2.376235 0.104544 0.131520
v 2.145403 5.620237 -0.128793
v 2.145403 5.620237 0.128793
v 0.128793 5.620237 2.326382
v -0.128793 5.620237 2.326382
v -2.326382 5.620237 0.128793
v -2.326382 5.620237 -0.128793
v -0.128793 5.620237 -2.326382
v 0.128793 5.620237 -2.326382
v 2.326382 5.620237 -0.128793
v 2.326382 5.620237 0.128793
v -0.099778 0.472977 1.662495
v 0.099778 0.472977 1.662495
v -1.662495 0.472977 -0.099778
v -1.662495 0.472977 0.099778
v 0.099778 0.472977 -1.662495
v -0.099778 0.472977 -1.662495
v 1.662495 0.472977 0.099778
v 1.662495 0.472977 -0.099778
v 2.201351 1.772721 -0.115348
v 2.201351 1.772721 0.115348
v -0.115348 1.772721 -2.201351
v 0.115348 1.772721 -2.201351
v -2.201351 1.772721 0.115348
v -2.201351 1.772721 -0.115348
v -0.115348 1.772721 2.201351
v 0.115348 1.772721 2.201351
v 0.115348 1.772721 2.083817
v -0.115348 1.772721 2.083817
v -2.083817 1.772721 -0.115348
v -2.083817 1.772721 0.115348
v 0.115348 1.772721 -2.083817
v -0.115348 1.772721 -2.083817
v 2.083817 1.772721 0.115348
v 2.083817 1.772721 -0.115348
v 2.444082 4.215178 -0.128075
v -0.128075 4.215178 -2.444082
v -2.444082 4.215178 0.128075
v 0.128075 4.215178 2.444082
v 0.128075 4.215178 2.313589
v -2.313589 4.215178 0.128075
v -0.128075 4.215178 -2.313589
v 2.313589 4.215178 -0.128075
v 2.444082 4.215178 0.128075
v 0.128075 4.215178 -2.444082
v -2.444082 4.215178 -0.128075
v -0.128075 4.215178 2.444082
v -0.128075 4.215178 2.313589
v -2.313589 4.215178 -0.128075
v 0.128075 4.215178 -2.313589
v 2.313589 4.215178 0.128075
v 2.520721 1.300515 0.132076
v 0.132076 1.300515 -2.520721
v -2.520721 1.300515 -0.132076
v -0.132076 1.300515 2.520721
v -0.132076 1.300515 2.386135
v -2.386135 1.300515 -0.132076
v 0.132076 1.300515 -2.386135
v 2.386135 1.300515 0.132076
v 2.520721 1.300515 -0.132076
v -0.132076 1.300515 -2.520721
v -2.520721 1.300515 0.132076
v 0.132076 1.300515 2.520721
v 0.132076 1.300515 2.386135
v -2.386135 1.300515 0.132076
v -0.132076 1.300515 -2.386135
v 2.386135 1.300515 -0.132076
v 2.170368 3.989285 0.113729
v 0.113729 3.989285 -2.170368
v -2.170368 3.989285 -0.113729
v -0.113729 3.989285 2.170368
v -0.113729 3.989285 2.054488
v -2.054488 3.989285 -0.113729
v 0.113729 3.989285 -2.054488
v 2.054488 3.989285 0.113729
v 2.170368 3.989285 -0.113729
v -0.113729 3.989285 -2.170368
v -2.170368 3.989285 0.113729
v 0.113729 3.989285 2.170368
v 0.113729 3.989285 2.054488
v -2.054488 3.989285 0.113729
v -0.113729 3.989285 -2.054488
v 2.054488 3.989285 -0.113729
v -0.099778 0.472977 0.099778
v -0.099778 0.472977 -0.099778
v 0.099778 0.472977 0.099778
v 0.099778 0.472977 -0.099778
v 0.131520 0.104544 -0.131520
v -0.131520 0.104544 -0.131520
v -0.131520 0.104544 0.131520
v 0.131520 0.104544 0.131520
v -1.043120 0.104544 2.136830
v -0.778413 0.104544 2.247561
v -0.689756 5.620237 2.033821
v -0.953951 5.620237 1.923485
v -1.579725 0.104544 1.778282
v -1.778282 0.104544 1.579725
v -1.415921 5.620237 1.614806
v -1.614806 5.620237 1.415921
v -2.247561 0.104544 0.778413
v -2.136830 0.104544 1.043120
v -1.923485 5.620237 0.953951
v -2.033821 5.620237 0.689756
v -2.136830 0.104544 -1.043120
v -2.247561 0.104544 -0.778413
v -2.033821 5.620237 -0.689756
v -1.923485 5.620237 -0.953951
v -1.778282 0.104544 -1.579725
v -1.579725 0.104544 -1.778282
v -1.614806 5.620237 -1.415921
v -1.415921 5.620237 -1.614806
v -0.778413 0.104544 -2.247561
v -1.043120 0.104544 -2.136830
v -0.953951 5.620237 -1.923485
v -0.689756 5.620237 -2.033821
v 1.043120 0.104544 -2.136830
v 0.778413 0.104544 -2.247561
v 0.689756 5.620237 -2.033821
v 0.953951 5.620237 -1.923485
v 1.579725 0.104544 -1.778282
v 1.778282 0.104544 -1.579725
v 1.415921 5.620237 -1.614806
v 1.614806 5.620237 -1.415921
v 2.247561 0.104544 -0.778413
v 2.136830 0.104544 -1.043120
v 1.923485 5.620237 -0.953951
v 2.033821 5.620237 -0.689756
v 2.136830 0.104544 1.043120
v 2.247561 0.104544 0.778413
v 2.033821 5.620237 0.689756
v 1.923485 5.620237 0.953951
v 1.778282 0.104544 1.579725
v 1.579725 0.104544 1.778282
v 1.614806 5.620237 1.415921
v 1.415921 5.620237 1.614806
v 0.778413 0.104544 2.247561
v 1.043120 0.104544 2.136830
v 0.953951 5.620237 1.923485
v 0.689756 5.620237 2.033821
v -1.022668 5.620237 2.091048
v -0.759077 5.620237 2.201010
v -1.742772 5.620237 1.543900
v -1.543900 5.620237 1.742772
v -2.201010 5.620237 0.759077
v -2.091048 5.620237 1.022668
v -2.091048 5.620237 -1.022668
v -2.201010 5.620237 -0.759077
v -1.543900 5.620237 -1.742772
v -1.742772 5.620237 -1.543900
v -0.759077 5.620237 -2.201010
v -1.022668 5.620237 -2.091048
v 1.022668 5.620237 -2.091048
v 0.759077 5.620237 -2.201010
v 1.742772 5.620237 -1.543900
v 1.543900 5.620237 -1.742772
v 2.201010 5.620237 -0.759077
v 2.091048 5.620237 -1.022668
v 2.091048 5.620237 1.022668
v 2.201010 5.620237 0.759077
v 1.543900 5.620237 1.742772
v 1.742772 5.620237 1.543900
v 0.759077 5.620237 2.201010
v 1.022668 5.620237 2.091048
v -0.502692 0.472977 1.582350
v -0.767734 0.472977 1.471474
v -1.269240 0.472977 1.070399
v -1.070399 0.472977 1.269240
v -1.471474 0.472977 0.767734
v -1.582350 0.472977 0.502692
v -1.582350 0.472977 -0.502692
v -1.471474 0.472977 -0.767734
v -1.070399 0.472977 -1.269240
v -1.269240 0.472977 -1.070399
v -0.767734 0.472977 -1.471474
v -0.502692 0.472977 -1.582350
v 0.502692 0.472977 -1.582350
v 0.767734 0.472977 -1.471474
v 1.269240 0.472977 -1.070399
v 1.070399 0.472977 -1.269240
v 1.471474 0.472977 -0.767734
v 1.582350 0.472977 -0.502692
v 1.582350 0.472977 0.502692
v 1.471474 0.472977 0.767734
v 1.070399 0.472977 1.269240
v 1.269240 0.472977 1.070399
v 0.767734 0.472977 1.471474
v 0.502692 0.472977 1.582350
v -0.928688 1.772721 1.864565
v -0.665374 1.772721 1.974410
v -1.569273 1.772721 1.370624
v -1.370624 1.772721 1.569273
v -1.974410 1.772721 0.665374
v -1.864565 1.772721 0.928688
v -1.864565 1.772721 -0.928688
v -1.974410 1.772721 -0.665374
v -1.370624 1.772721 -1.569273
v -1.569273 1.772721 -1.370624
v -0.665374 1.772721 -1.974410
v -0.928688 1.772721 -1.864565
v 0.928688 1.772721 -1.864565
v 0.665374 1.772721 -1.974410
v 1.569273 1.772721 -1.370624
v 1.370624 1.772721 -1.569273
v 1.974410 1.772721 -0.665374
v 1.864565 1.772721 -0.928688
v 1.864565 1.772721 0.928688
v 1.974410 1.772721 0.665374
v 1.370624 1.772721 1.569273
v 1.569273 1.772721 1.370624
v 0.665374 1.772721 1.974410
v 0.928688 1.772721 1.864565
v -1.017430 4.215178 2.079289
v -0.754198 4.215178 2.189045
v -1.733598 4.215178 1.534793
v -1.534793 4.215178 1.733598
v -2.189045 4.215178 0.754198
v -2.079289 4.215178 1.017430
v -2.079289 4.215178 -1.017430
v -2.189045 4.215178 -0.754198
v -1.534793 4.215178 -1.733598
v -1.733598 4.215178 -1.534793
v -0.754198 4.215178 -2.189045
v -1.017430 4.215178 -2.079289
v 1.017430 4.215178 -2.079289
v 0.754198 4.215178 -2.189045
v 1.733598 4.215178 -1.534793
v 1.534793 4.215178 -1.733598
v 2.189045 4.215178 -0.754198
v 2.079289 4.215178 -1.017430
v 2.079289 4.215178 1.017430
v 2.189045 4.215178 0.754198
v 1.534793 4.215178 1.733598
v 1.733598 4.215178 1.534793
v 0.754198 4.215178 2.189045
v 1.017430 4.215178 2.079289
v -0.782317 1.300515 2.256794
v -1.046143 1.300515 2.146617
v -1.586782 1.300515 1.785374
v -1.785374 1.300515 1.586782
v -2.146617 1.300515 1.046143
v -2.256794 1.300515 0.782317
v -2.256794 1.300515 -0.782317
v -2.146617 1.300515 -1.046143
v -1.785374 1.300515 -1.586782
v -1.586782 1.300515 -1.785374
v -1.046143 1.300515 -2.146617
v -0.782317 1.300515 -2.256794
v 0.782317 1.300515 -2.256794
v 1.046143 1.300515 -2.146617
v 1.586782 1.300515 -1.785374
v 1.785374 1.300515 -1.586782
v 2.146617 1.300515 -1.046143
v 2.256794 1.300515 -0.782317
v 2.256794 1.300515 0.782317
v 2.146617 1.300515 1.046143
v 1.785374 1.300515 1.586782
v 1.586782 1.300515 1.785374
v 1.046143 1.300515 2.146617
v 0.782317 1.300515 2.256794
v -0.654000 3.989285 1.947022
v -0.917141 3.989285 1.837305
v -1.349608 3.989285 1.548339
v -1.548339 3.989285 1.349608
v -1.837305 3.989285 0.917141
v -1.947022 3.989285 0.654000
v -1.947022 3.989285 -0.654000
v -1.837305 3.989285 -0.917141
v -1.548339 3.989285 -1.349608
v -1.349608 3.989285 -1.548339
v -0.917141 3.989285 -1.837305
v -0.654000 3.989285 -1.947022
v 0.654000 3.989285 -1.947022
v 0.917141 3.989285 -1.837305
v 1.349608 3.989285 -1.548339
v 1.548339 3.989285 -1.349608
v 1.837305 3.989285 -0.917141
v 1.947022 3.989285 -0.654000
v 1.947022 3.989285 0.654000
v 1.837305 3.989285 0.917141
v 1.548339 3.989285 1.349608
v 1.349608 3.989285 1.548339
v 0.917141 3.989285 1.837305
v 0.654000 3.989285 1.947022
v -0.099778 0.472977 0.501280
v -0.099778 0.472977 0.786329
v 0.099778 0.472977 -0.501280
v 0.099778 0.472977 -0.786329
v -0.501280 0.472977 0.099778
v -0.786329 0.472977 0.099778
v 0.099778 0.472977 0.501280
v 0.099778 0.472977 0.786329
v 0.501280 0.472977 0.099778
v 0.786329 0.472977 0.099778
v 0.501280 0.472977 -0.099778
v 0.786329 0.472977 -0.099778
v -0.099778 0.472977 -0.501280
v -0.099778 0.472977 -0.786329
v -0.501280 0.472977 -0.099778
v -0.786329 0.472977 -0.099778
v -0.502637 0.472977 -0.786329
v -0.768449 0.472977 -0.768449
v -0.786329 0.472977 -0.502637
v -0.501280 0.472977 -0.501280
v 0.786329 0.472977 -0.502637
v 0.768449 0.472977 -0.768449
v 0.502637 0.472977 -0.786329
v 0.501280 0.472977 -0.501280
v 0.502637 0.472977 0.786329
v 0.768449 0.472977 0.768449
v 0.786329 0.472977 0.502637
v 0.501280 0.472977 0.501280
v -0.786329 0.472977 0.502637
v -0.768449 0.472977 0.768449
v -0.502637 0.472977 0.786329
v -0.501280 0.472977 0.501280
v 0.131520 0.104544 -0.776833
v 0.131520 0.104544 -1.061882
v -0.131520 0.104544 -0.776833
v -0.131520 0.104544 -1.061882
v -0.778352 0.104544 1.061882
v -1.043842 0.104544 1.043842
v -1.061882 0.104544 0.778352
v -0.776833 0.104544 0.776833
v 0.778352 0.104544 -1.061882
v 1.043842 0.104544 -1.043841
v 1.061882 0.104544 -0.778352
v 0.776833 0.104544 -0.776833
v 1.061882 0.104544 -0.131520
v 0.776833 0.104544 -0.131520
v -0.776833 0.104544 -0.776833
v -1.061882 0.104544 -0.778352
v -1.043842 0.104544 -1.043841
v -0.778352 0.104544 -1.061882
v -0.776833 0.104544 -0.131520
v -1.061882 0.104544 -0.131520
v 1.061882 0.104544 0.131520
v 0.776833 0.104544 0.131520
v 1.061882 0.104544 0.778352
v 1.043842 0.104544 1.043842
v 0.778352 0.104544 1.061882
v 0.776833 0.104544 0.776833
v 0.131520 0.104544 0.776833
v 0.131520 0.104544 1.061882
v -0.131520 0.104544 0.776833
v -0.131520 0.104544 1.061882
v -0.776833 0.104544 0.131520
v -1.061882 0.104544 0.131520
v 2.180696 3.663019 0.114269
v 2.191023 2.098986 0.114808
v 0.114268 3.663019 -2.180696
v 0.114808 2.098986 -2.191023
v -2.180696 3.663019 -0.114269
v -2.191023 2.098986 -0.114808
v -0.114269 3.663019 2.180696
v -0.114808 2.098986 2.191023
v -0.114269 3.663019 2.064265
v -0.114808 2.098986 2.074041
v -2.064265 3.663019 -0.114269
v -2.074041 2.098986 -0.114808
v 0.114268 3.663019 -2.064265
v 0.114808 2.098986 -2.074041
v 2.064265 3.663019 0.114269
v 2.074041 2.098986 0.114808
v 2.191023 2.098986 -0.114808
v 2.180696 3.663019 -0.114268
v -0.114808 2.098986 -2.191023
v -0.114268 3.663019 -2.180696
v -2.191023 2.098986 0.114808
v -2.180696 3.663019 0.114268
v 0.114808 2.098986 2.191023
v 0.114268 3.663019 2.180696
v 0.114808 2.098986 2.074041
v 0.114268 3.663019 2.064265
v -2.074041 2.098986 0.114808
v -2.064265 3.663019 0.114268
v -0.114808 2.098986 -2.074041
v -0.114268 3.663019 -2.064265
v 2.074041 2.098986 -0.114808
v 2.064265 3.663019 -0.114268
v -0.920990 3.663019 1.846391
v -0.924839 2.098986 1.855478
v -0.661583 2.098986 1.965281
v -0.657791 3.663019 1.956151
v -1.555317 3.663019 1.356614
v -1.562295 2.098986 1.363619
v -1.363619 2.098986 1.562295
v -1.356613 3.663019 1.555317
v -1.956151 3.663019 0.657791
v -1.965281 2.098986 0.661583
v -1.855478 2.098986 0.924839
v -1.846391 3.663019 0.920990
v -1.846391 3.663019 -0.920990
v -1.855478 2.098986 -0.924839
v -1.965281 2.098986 -0.661583
v -1.956151 3.663019 -0.657791
v -1.356614 3.663019 -1.555317
v -1.363619 2.098986 -1.562295
v -1.562295 2.098986 -1.363619
v -1.555317 3.663019 -1.356613
v -0.657791 3.663019 -1.956151
v -0.661583 2.098986 -1.965281
v -0.924839 2.098986 -1.855478
v -0.920990 3.663019 -1.846391
v 0.920990 3.663019 -1.846391
v 0.924839 2.098986 -1.855478
v 0.661583 2.098986 -1.965281
v 0.657791 3.663019 -1.956151
v 1.555317 3.663019 -1.356614
v 1.562295 2.098986 -1.363619
v 1.363619 2.098986 -1.562295
v 1.356613 3.663019 -1.555317
v 1.956151 3.663019 -0.657791
v 1.965281 2.098986 -0.661583
v 1.855478 2.098986 -0.924839
v 1.846391 3.663019 -0.920990
v 1.846391 3.663019 0.920990
v 1.855478 2.098986 0.924839
v 1.965281 2.098986 0.661583
v 1.956151 3.663019 0.657791
v 1.356614 3.663019 1.555317
v 1.363619 2.098986 1.562295
v 1.562295 2.098986 1.363619
v 1.555317 3.663019 1.356613
v 0.657791 3.663019 1.956151
v 0.661583 2.098986 1.965281
v 0.924839 2.098986 1.855478
v 0.920990 3.663019 1.846391
v -2.111789 5.250257 -0.126771
v -2.111789 5.250257 0.126771
v 2.111789 5.250257 0.126771
v 2.111789 5.250257 -0.126771
v 0.126771 5.250257 -2.111789
v -0.126771 5.250257 -2.111789
v 0.126771 5.250257 2.111789
v -0.126771 5.250257 2.111789
v 0.673320 5.250257 -2.003073
v 0.944048 5.250257 -1.889976
v 1.592674 5.250257 -1.388992
v 1.388992 5.250257 -1.592674
v -1.388992 5.250257 1.592674
v -1.592674 5.250257 1.388992
v -2.003073 5.250257 0.673320
v -1.889976 5.250257 0.944048
v 2.003073 5.250257 -0.673320
v 1.889976 5.250257 -0.944048
v -1.889976 5.250257 -0.944048
v -2.003073 5.250257 -0.673320
v 1.889976 5.250257 0.944048
v 2.003073 5.250257 0.673320
v -1.388992 5.250257 -1.592674
v -1.592674 5.250257 -1.388992
v 1.388992 5.250257 1.592674
v 1.592674 5.250257 1.388992
v -0.673320 5.250257 -2.003073
v -0.944048 5.250257 -1.889976
v 0.673320 5.250257 2.003073
v 0.944048 5.250257 1.889976
v -0.944048 5.250257 1.889976
v -0.673320 5.250257 2.003073
vn -0.0000 -0.0005 -1.0000
vn -1.0000 -0.0087 -0.0000
vn -0.0000 -0.0096 1.0000
vn 1.0000 -0.0005 -0.0000
vn -0.0000 1.0000 -0.0000
vn -0.0000 -1.0000 -0.0000
vn -1.0000 -0.0005 -0.0000
vn -0.0000 -0.0087 -1.0000
vn -0.0000 -0.0005 1.0000
vn 1.0000 -0.0087 -0.0000
vn 0.9959 0.0905 -0.0000
vn -0.9959 0.0905 -0.0000
vn -0.0000 0.0905 0.9959
vn 1.0000 0.0017 -0.0000
vn -1.0000 0.0017 -0.0000
vn -0.0000 0.0354 -0.9994
vn 0.9995 0.0316 -0.0000
vn -0.0000 0.0017 1.0000
vn -0.0000 0.0354 0.9994
vn -0.0000 0.0316 -0.9995
vn -0.9994 0.0354 -0.0000
vn 0.9994 0.0354 -0.0000
vn -0.0000 0.5602 0.8283
vn -0.9995 0.0316 -0.0000
vn -0.0000 0.0017 -1.0000
vn -1.0000 -0.0096 -0.0000
vn -0.0000 -0.0096 -1.0000
vn 1.0000 -0.0096 -0.0000
vn -0.0000 -0.0634 -0.9980
vn -0.0000 -0.0634 0.9980
vn -0.9980 -0.0634 -0.0000
vn 0.9980 -0.0634 -0.0000
vn -0.0000 -0.7713 0.6365
vn -0.0000 -0.0087 1.0000
vn 0.8283 0.5602 -0.0000
vn -0.0000 0.5602 -0.8283
vn -0.8283 0.5602 -0.0000
vn -0.0000 0.0316 0.9995
vn -0.6365 -0.7713 -0.0000
vn -0.0000 -0.7713 -0.6365
vn 0.6365 -0.7713 -0.0000
vn -0.3856 -0.0085 0.9226
vn -0.7071 -0.0084 0.7071
vn -0.9226 -0.0085 0.3856
vn -0.9226 -0.0085 -0.3856
vn -0.7071 -0.0084 -0.7071
vn -0.3856 -0.0085 -0.9226
vn 0.3856 -0.0085 -0.9226
vn 0.7071 -0.0084 -0.7071
vn 0.9226 -0.0085 -0.3856
vn 0.9226 -0.0085 0.3856
vn 0.7071 -0.0084 0.7071
vn 0.3856 -0.0085 0.9226
vn -0.0000 0.0936 -0.9956
vn -0.7040 0.0934 0.7040
vn -0.3840 0.0946 0.9185
vn 0.9187 0.0934 -0.3837
vn -0.9187 0.0934 0.3837
vn 0.9187 0.0934 0.3837
vn -0.9187 0.0934 -0.3837
vn 0.7040 0.0934 0.7040
vn -0.7040 0.0934 -0.7040
vn 0.3837 0.0934 0.9187
vn -0.3837 0.0934 -0.9187
vn 0.3837 0.0934 -0.9187
vn -0.3848 0.0303 0.9225
vn -0.7068 0.0303 0.7068
vn -0.9225 0.0303 0.3848
vn -0.9225 0.0303 -0.3848
vn -0.7068 0.0303 -0.7068
vn -0.3848 0.0303 -0.9225
vn 0.3848 0.0303 -0.9225
vn 0.7068 0.0303 -0.7068
vn 0.9225 0.0303 -0.3848
vn 0.9225 0.0303 0.3848
vn 0.7068 0.0303 0.7068
vn 0.3848 0.0303 0.9225
vn -0.3849 -0.0092 0.9229
vn -0.7071 -0.0092 0.7071
vn -0.9229 -0.0092 0.3849
vn -0.9229 -0.0092 -0.3849
vn -0.7071 -0.0092 -0.7071
vn -0.3849 -0.0092 -0.9229
vn 0.3849 -0.0092 -0.9229
vn 0.7071 -0.0092 -0.7071
vn 0.9229 -0.0092 -0.3849
vn 0.9229 -0.0092 0.3849
vn 0.7071 -0.0092 0.7071
vn 0.3849 -0.0092 0.9229
vn -0.3234 0.5433 0.7748
vn -0.5936 0.5434 0.5936
vn -0.7748 0.5433 0.3234
vn -0.7748 0.5433 -0.3234
vn -0.5936 0.5434 -0.5936
vn -0.3234 0.5433 -0.7748
vn 0.3234 0.5433 -0.7748
vn 0.5936 0.5434 -0.5936
vn 0.7748 0.5433 -0.3234
vn 0.7748 0.5433 0.3234
vn 0.5936 0.5434 0.5936
vn 0.3234 0.5433 0.7748
vn -0.2513 -0.7573 0.6028
vn -0.4618 -0.7573 0.4618
vn -0.6028 -0.7573 0.2513
vn -0.6028 -0.7573 -0.2513
vn -0.4618 -0.7573 -0.4618
vn -0.2513 -0.7573 -0.6028
vn 0.2513 -0.7573 -0.6028
vn 0.4618 -0.7573 -0.4618
vn 0.6028 -0.7573 -0.2513
vn 0.6028 -0.7573 0.2513
vn 0.4618 -0.7573 0.4618
vn 0.2513 -0.7573 0.6028
vn -0.5556 -0.0082 0.8314
vn -0.1951 -0.0082 0.9808
vn 0.7039 0.0946 -0.7039
vn 0.5532 0.0929 -0.8279
vn -0.8314 -0.0082 0.5556
vn 0.1942 0.0929 -0.9765
vn -0.9808 -0.0082 0.1951
vn 0.8279 0.0929 -0.5532
vn -0.8314 -0.0082 -0.5556
vn -0.9808 -0.0082 -0.1951
vn 0.9765 0.0929 -0.1942
vn 0.8279 0.0929 0.5532
vn -0.5556 -0.0082 -0.8314
vn 0.9765 0.0929 0.1942
vn -0.1951 -0.0082 -0.9808
vn 0.5532 0.0929 0.8279
vn 0.5556 -0.0082 -0.8314
vn 0.1951 -0.0082 -0.9808
vn 0.1942 0.0929 0.9765
vn -0.5532 0.0929 0.8279
vn 0.8314 -0.0082 -0.5556
vn -0.1942 0.0929 0.9765
vn 0.9808 -0.0082 -0.1951
vn -0.8279 0.0929 0.5532
vn 0.8314 -0.0082 0.5556
vn 0.9808 -0.0082 0.1951
vn -0.9765 0.0929 0.1942
vn -0.8279 0.0929 -0.5532
vn 0.5556 -0.0082 0.8314
vn -0.9765 0.0929 -0.1942
vn 0.1951 -0.0082 0.9808
vn -0.5532 0.0929 -0.8279
vn -0.1951 -0.0090 0.9807
vn -0.5555 -0.0090 0.8314
vn -0.8314 -0.0090 0.5555
vn -0.9807 -0.0090 0.1951
vn -0.9807 -0.0090 -0.1951
vn -0.8314 -0.0090 -0.5555
vn -0.5555 -0.0090 -0.8314
vn -0.1951 -0.0090 -0.9807
vn 0.1951 -0.0090 -0.9807
vn 0.5555 -0.0090 -0.8314
vn 0.8314 -0.0090 -0.5555
vn 0.9807 -0.0090 -0.1951
vn 0.9807 -0.0090 0.1951
vn 0.8314 -0.0090 0.5555
vn 0.5555 -0.0090 0.8314
vn 0.1951 -0.0090 0.9807
vn -0.1950 0.0297 0.9804
vn -0.4690 0.5360 0.7020
vn -0.1647 0.5360 0.8280
vn -0.5553 0.0297 0.8311
vn -0.8311 0.0297 0.5553
vn -0.7020 0.5360 0.4690
vn -0.9804 0.0297 0.1950
vn -0.8280 0.5360 0.1647
vn -0.9804 0.0297 -0.1950
vn -0.7020 0.5360 -0.4690
vn -0.8280 0.5360 -0.1647
vn -0.8311 0.0297 -0.5553
vn -0.5553 0.0297 -0.8311
vn -0.4690 0.5360 -0.7020
vn -0.1950 0.0297 -0.9804
vn -0.1647 0.5360 -0.8280
vn 0.1950 0.0297 -0.9804
vn 0.4690 0.5360 -0.7020
vn 0.1647 0.5360 -0.8280
vn 0.5553 0.0297 -0.8311
vn 0.8311 0.0297 -0.5553
vn 0.7020 0.5360 -0.4690
vn 0.9804 0.0297 -0.1950
vn 0.8280 0.5360 -0.1647
vn 0.9804 0.0297 0.1950
vn 0.7020 0.5360 0.4690
vn 0.8280 0.5360 0.1647
vn 0.8311 0.0297 0.5553
vn 0.5553 0.0297 0.8311
vn 0.4690 0.5360 0.7020
vn 0.1950 0.0297 0.9804
vn 0.1647 0.5360 0.8280
vn -0.3668 -0.7510 0.5490
vn -0.1288 -0.7510 0.6476
vn -0.5490 -0.7510 0.3668
vn -0.6476 -0.7510 0.1288
vn -0.5490 -0.7510 -0.3668
vn -0.6476 -0.7510 -0.1288
vn -0.3668 -0.7510 -0.5490
vn -0.1288 -0.7510 -0.6476
vn 0.3668 -0.7510 -0.5490
vn 0.1288 -0.7510 -0.6476
vn 0.5490 -0.7510 -0.3668
vn 0.6476 -0.7510 -0.1288
vn 0.5490 -0.7510 0.3668
vn 0.6476 -0.7510 0.1288
vn 0.3668 -0.7510 0.5490
vn 0.1288 -0.7510 0.6476
vn 0.1951 0.0062 0.9808
vn 0.5556 0.0062 0.8315
vn 0.8315 0.0062 0.5556
vn 0.9808 0.0062 0.1951
vn 0.9808 0.0062 -0.1951
vn 0.8315 0.0062 -0.5556
vn 0.5556 0.0062 -0.8315
vn 0.1951 0.0062 -0.9808
vn -0.1951 0.0062 -0.9808
vn -0.5556 0.0062 -0.8315
vn -0.8315 0.0062 -0.5556
vn -0.9808 0.0062 -0.1951
vn -0.9808 0.0062 0.1951
vn -0.8315 0.0062 0.5556
vn -0.5556 0.0062 0.8315
vn -0.1951 0.0062 0.9808
vn 0.3847 0.0303 0.9225
vn 0.3849 0.0063 0.9229
vn 0.7071 0.0063 0.7071
vn 0.9225 0.0303 0.3847
vn 0.9229 0.0063 0.3849
vn 0.9225 0.0303 -0.3847
vn 0.9229 0.0063 -0.3849
vn 0.7071 0.0063 -0.7071
vn 0.3847 0.0303 -0.9225
vn 0.3849 0.0063 -0.9229
vn -0.3847 0.0303 -0.9225
vn -0.3849 0.0063 -0.9229
vn -0.7071 0.0063 -0.7071
vn -0.9225 0.0303 -0.3847
vn -0.9229 0.0063 -0.3849
vn -0.9225 0.0303 0.3847
vn -0.9229 0.0063 0.3849
vn -0.7071 0.0063 0.7071
vn -0.3847 0.0303 0.9225
vn -0.3849 0.0063 0.9229
vn -0.0000 0.0003 -1.0000
vn -0.0000 0.0003 1.0000
vn -1.0000 0.0003 -0.0000
vn 1.0000 0.0003 -0.0000
vn -0.0000 0.0066 1.0000
vn -1.0000 0.0066 -0.0000
vn -0.0000 0.0066 -1.0000
vn 1.0000 0.0066 -0.0000
vn -0.1943 0.0898 -0.9768
vn -0.5533 0.0898 -0.8281
vn -0.9768 0.0898 -0.1943
vn -0.8281 0.0898 -0.5533
vn -0.9768 0.0898 0.1943
vn -0.8281 0.0898 0.5533
vn -0.1943 0.0898 0.9768
vn -0.5533 0.0898 0.8281
vn 0.1943 0.0898 0.9768
vn 0.5533 0.0898 0.8281
vn 0.9768 0.0898 0.1943
vn 0.8281 0.0898 0.5533
vn 0.9768 0.0898 -0.1943
vn 0.8281 0.0898 -0.5533
vn 0.1943 0.0898 -0.9768
vn 0.5533 0.0898 -0.8281
vn -0.1942 0.0929 -0.9765
vn 0.3840 0.0946 -0.9185
vn -0.3840 0.0946 -0.9185
vn 0.3840 0.0946 0.9185
vn -0.7039 0.0946 -0.7039
vn 0.7039 0.0946 0.7039
vn -0.9185 0.0946 -0.3840
vn 0.9185 0.0946 0.3840
vn -0.9185 0.0946 0.3840
vn 0.7040 0.0934 -0.7040
vn 0.9185 0.0946 -0.3840
vn -0.3837 0.0934 0.9187
vn -0.0000 0.0905 -0.9959
vn -0.7039 0.0946 0.7039
vn -0.0000 0.0936 0.9956
vn -0.9956 0.0936 -0.0000
vn 0.9956 0.0936 -0.0000
vt 0.924688 0.436011
vt 0.924818 0.372154
vt 0.931974 0.372228
vt 0.931776 0.433922
vt 0.947511 0.372670
vt 0.944768 0.434238
vt 0.243820 0.590631
vt 0.243506 0.657901
vt 0.228594 0.657399
vt 0.232600 0.589709
vt 0.250125 0.587605
vt 0.250993 0.657824
vt 0.242572 0.987909
vt 0.258093 0.987909
vt 0.258093 0.995815
vt 0.242572 0.995815
vt 0.011873 0.147128
vt 0.011873 0.162977
vt 0.003798 0.162977
vt 0.003798 0.147128
vt 0.298232 0.162977
vt 0.298232 0.147128
vt 0.306307 0.147128
vt 0.306307 0.162977
vt 0.970566 0.276735
vt 0.973811 0.346999
vt 0.966286 0.347344
vt 0.964544 0.279556
vt 0.954374 0.066317
vt 0.951114 0.004395
vt 0.966666 0.003929
vt 0.967336 0.065468
vt 0.162977 0.011873
vt 0.147128 0.011873
vt 0.147128 0.003798
vt 0.162977 0.003798
vt 0.950264 0.644751
vt 0.954857 0.714963
vt 0.947338 0.715452
vt 0.944295 0.647688
vt 0.271157 0.377760
vt 0.271287 0.313902
vt 0.278443 0.313976
vt 0.278245 0.375671
vt 0.288803 0.987499
vt 0.304324 0.987499
vt 0.304324 0.995405
vt 0.288803 0.995405
vt 0.965442 0.694566
vt 0.980963 0.694566
vt 0.980963 0.702473
vt 0.965442 0.702473
vt 0.293980 0.314418
vt 0.291237 0.375986
vt 0.296733 0.586500
vt 0.301327 0.656711
vt 0.293807 0.657201
vt 0.290764 0.589437
vt 0.226733 0.378904
vt 0.222112 0.315477
vt 0.229224 0.315018
vt 0.233604 0.376562
vt 0.147128 0.298231
vt 0.162977 0.298232
vt 0.162977 0.306307
vt 0.147128 0.306307
vt 0.265688 0.987499
vt 0.281208 0.987499
vt 0.281208 0.995405
vt 0.265688 0.995405
vt 0.947465 0.068598
vt 0.943954 0.004729
vt 0.265688 0.976594
vt 0.281208 0.976594
vt 0.980963 0.683662
vt 0.965442 0.683662
vt 0.258093 0.977004
vt 0.242572 0.977004
vt 0.304324 0.976594
vt 0.288803 0.976594
vt 0.980841 0.661277
vt 0.965564 0.661277
vt 0.304202 0.954209
vt 0.288925 0.954209
vt 0.257971 0.954619
vt 0.242694 0.954619
vt 0.946403 0.126803
vt 0.945039 0.106193
vt 0.952517 0.103630
vt 0.953990 0.126433
vt 0.225787 0.437152
vt 0.224390 0.416540
vt 0.231869 0.413962
vt 0.233374 0.436769
vt 0.298153 0.378139
vt 0.301453 0.415651
vt 0.293876 0.413067
vt 0.277275 0.436511
vt 0.275540 0.413869
vt 0.292033 0.436476
vt 0.269691 0.437019
vt 0.267966 0.416399
vt 0.951684 0.436390
vt 0.954983 0.473902
vt 0.947407 0.471318
vt 0.970815 0.103466
vt 0.968735 0.126714
vt 0.974441 0.067435
vt 0.978501 0.106020
vt 0.253739 0.377782
vt 0.257856 0.416326
vt 0.250170 0.413784
vt 0.246603 0.375878
vt 0.930806 0.494762
vt 0.929071 0.472120
vt 0.945564 0.494727
vt 0.923222 0.495270
vt 0.921497 0.474651
vt 0.924927 0.715558
vt 0.926796 0.645334
vt 0.933059 0.648450
vt 0.932415 0.715742
vt 0.951365 0.347348
vt 0.953299 0.280103
vt 0.271396 0.657307
vt 0.273265 0.587083
vt 0.279528 0.590199
vt 0.278884 0.657491
vt 0.221085 0.656802
vt 0.226676 0.586689
vt 0.943884 0.347020
vt 0.947098 0.276868
vt 0.304316 0.560853
vt 0.295841 0.565107
vt 0.957847 0.619104
vt 0.949372 0.623358
vt 0.978637 0.251247
vt 0.970084 0.255336
vt 0.258093 0.560054
vt 0.249474 0.564145
vt 0.227872 0.565317
vt 0.244760 0.314166
vt 0.251917 0.313902
vt 0.973797 0.003798
vt 0.954623 0.372940
vt 0.301093 0.314689
vt 0.246840 0.538810
vt 0.231769 0.538533
vt 0.254272 0.538428
vt 0.974661 0.228098
vt 0.967086 0.228437
vt 0.953427 0.596029
vt 0.945856 0.596513
vt 0.299896 0.537777
vt 0.292326 0.538261
vt 0.919218 0.617663
vt 0.927781 0.621878
vt 0.948533 0.253442
vt 0.265688 0.559412
vt 0.274250 0.563626
vt 0.219461 0.560945
vt 0.940055 0.249065
vt 0.623727 0.799878
vt 0.623727 0.787854
vt 0.635751 0.787854
vt 0.635751 0.799878
vt 0.147128 0.147128
vt 0.162977 0.147128
vt 0.162977 0.162977
vt 0.147128 0.162977
vt 0.582359 0.763580
vt 0.583436 0.747564
vt 0.599453 0.746486
vt 0.599534 0.763662
vt 0.599453 0.841246
vt 0.583436 0.840169
vt 0.582359 0.824152
vt 0.599534 0.824070
vt 0.677119 0.824152
vt 0.676041 0.840169
vt 0.660025 0.841246
vt 0.659943 0.824070
vt 0.660025 0.746486
vt 0.676041 0.747564
vt 0.677119 0.763580
vt 0.659943 0.763662
vt 0.201952 0.091069
vt 0.217949 0.092156
vt 0.219036 0.108153
vt 0.201860 0.108245
vt 0.108153 0.219036
vt 0.092156 0.217949
vt 0.091069 0.201952
vt 0.108245 0.201860
vt 0.201860 0.201860
vt 0.219036 0.201952
vt 0.217949 0.217949
vt 0.201952 0.219036
vt 0.091069 0.108153
vt 0.092156 0.092156
vt 0.108153 0.091069
vt 0.108245 0.108245
vt 0.679376 0.074579
vt 0.680844 0.004170
vt 0.698135 0.004615
vt 0.696002 0.075066
vt 0.625548 0.073849
vt 0.625086 0.003857
vt 0.641908 0.003798
vt 0.641911 0.073671
vt 0.571549 0.075447
vt 0.568966 0.005113
vt 0.586227 0.004547
vt 0.588140 0.074878
vt 0.463712 0.442935
vt 0.465180 0.372526
vt 0.482472 0.372971
vt 0.480339 0.443422
vt 0.409885 0.442205
vt 0.409422 0.372213
vt 0.426245 0.372154
vt 0.426248 0.442027
vt 0.355886 0.443804
vt 0.353303 0.373469
vt 0.370563 0.372903
vt 0.372476 0.443234
vt 0.153608 0.384683
vt 0.155076 0.314274
vt 0.172367 0.314720
vt 0.170234 0.385171
vt 0.099780 0.383954
vt 0.099318 0.313962
vt 0.116140 0.313902
vt 0.116143 0.383776
vt 0.045781 0.385552
vt 0.043198 0.315218
vt 0.060458 0.314652
vt 0.062371 0.384982
vt 0.463713 0.074579
vt 0.465180 0.004169
vt 0.482472 0.004615
vt 0.480339 0.075066
vt 0.409885 0.073849
vt 0.409422 0.003857
vt 0.426244 0.003798
vt 0.426248 0.073671
vt 0.355886 0.075448
vt 0.353303 0.005113
vt 0.370563 0.004548
vt 0.372476 0.074878
vt 0.675519 0.360687
vt 0.676847 0.349947
vt 0.693262 0.350315
vt 0.693515 0.361473
vt 0.624843 0.359515
vt 0.625720 0.349305
vt 0.641179 0.349187
vt 0.641903 0.359723
vt 0.573972 0.360716
vt 0.574297 0.349676
vt 0.590574 0.349451
vt 0.591775 0.360063
vt 0.459855 0.729043
vt 0.461183 0.718303
vt 0.477599 0.718671
vt 0.477852 0.729829
vt 0.409179 0.727872
vt 0.410057 0.717661
vt 0.425515 0.717543
vt 0.426240 0.728079
vt 0.358309 0.729072
vt 0.358633 0.718032
vt 0.374910 0.717807
vt 0.376112 0.728419
vt 0.149751 0.670792
vt 0.151078 0.660052
vt 0.167494 0.660419
vt 0.167747 0.671578
vt 0.099074 0.669620
vt 0.099952 0.659409
vt 0.115410 0.659292
vt 0.116135 0.669827
vt 0.048204 0.670820
vt 0.048529 0.659781
vt 0.064805 0.659556
vt 0.066007 0.670168
vt 0.459855 0.360687
vt 0.461183 0.349947
vt 0.477599 0.350315
vt 0.477852 0.361473
vt 0.409179 0.359516
vt 0.410057 0.349305
vt 0.425515 0.349187
vt 0.426240 0.359723
vt 0.358308 0.360716
vt 0.358633 0.349676
vt 0.374910 0.349451
vt 0.376112 0.360063
vt 0.265810 0.954209
vt 0.267436 0.665086
vt 0.279460 0.665086
vt 0.281087 0.954209
vt 0.826685 0.663704
vt 0.826483 0.686098
vt 0.809530 0.686097
vt 0.809329 0.663704
vt 0.759427 0.662465
vt 0.770303 0.373524
vt 0.787604 0.374158
vt 0.777093 0.663111
vt 0.681762 0.662465
vt 0.682382 0.684849
vt 0.665139 0.685480
vt 0.664096 0.663111
vt 0.876588 0.662466
vt 0.877208 0.684850
vt 0.859964 0.685480
vt 0.858922 0.663111
vt 0.056499 0.973215
vt 0.055456 0.995584
vt 0.038213 0.994954
vt 0.038833 0.972570
vt 0.797930 0.294755
vt 0.796888 0.317124
vt 0.779645 0.316493
vt 0.780265 0.294109
vt 0.106090 0.973808
vt 0.105889 0.996202
vt 0.088936 0.996202
vt 0.088735 0.973809
vt 0.847522 0.295347
vt 0.847320 0.317742
vt 0.830367 0.317741
vt 0.830167 0.295348
vt 0.155993 0.972570
vt 0.156613 0.994954
vt 0.139370 0.995585
vt 0.138327 0.973216
vt 0.897425 0.294109
vt 0.898045 0.316493
vt 0.880801 0.317124
vt 0.879759 0.294755
vt 0.582268 0.663111
vt 0.581225 0.685480
vt 0.563981 0.684850
vt 0.564602 0.662466
vt 0.676526 0.129609
vt 0.677105 0.108661
vt 0.695309 0.109352
vt 0.694583 0.129988
vt 0.624869 0.129391
vt 0.624797 0.108563
vt 0.642885 0.108534
vt 0.642797 0.129381
vt 0.573219 0.130200
vt 0.572413 0.109623
vt 0.590573 0.108848
vt 0.591236 0.129756
vt 0.460862 0.497965
vt 0.461442 0.477017
vt 0.479646 0.477708
vt 0.478919 0.498344
vt 0.409205 0.497747
vt 0.409133 0.476919
vt 0.427221 0.476890
vt 0.427133 0.497737
vt 0.357555 0.498557
vt 0.356750 0.477979
vt 0.374909 0.477204
vt 0.375573 0.498112
vt 0.150758 0.439714
vt 0.151337 0.418765
vt 0.169541 0.419456
vt 0.168815 0.440093
vt 0.099100 0.439496
vt 0.099028 0.418668
vt 0.117117 0.418639
vt 0.117029 0.439485
vt 0.047450 0.440305
vt 0.046645 0.419728
vt 0.064805 0.418953
vt 0.065468 0.439861
vt 0.460863 0.129609
vt 0.461442 0.108661
vt 0.479646 0.109352
vt 0.478920 0.129988
vt 0.409205 0.129391
vt 0.409133 0.108563
vt 0.427221 0.108534
vt 0.427134 0.129381
vt 0.357555 0.130201
vt 0.356750 0.109624
vt 0.374910 0.108848
vt 0.375573 0.129756
vt 0.677838 0.270652
vt 0.694412 0.270530
vt 0.625912 0.270697
vt 0.641885 0.270885
vt 0.573572 0.270341
vt 0.590067 0.270497
vt 0.462175 0.639008
vt 0.478749 0.638886
vt 0.410249 0.639053
vt 0.426221 0.639241
vt 0.357908 0.638697
vt 0.374404 0.638853
vt 0.152070 0.580757
vt 0.168644 0.580634
vt 0.100144 0.580802
vt 0.116117 0.580990
vt 0.047803 0.580446
vt 0.064299 0.580602
vt 0.462175 0.270652
vt 0.478749 0.270530
vt 0.410249 0.270697
vt 0.426222 0.270886
vt 0.357908 0.270341
vt 0.374404 0.270497
vt 0.676405 0.249516
vt 0.694744 0.249068
vt 0.624901 0.250165
vt 0.643029 0.250099
vt 0.573273 0.249002
vt 0.591537 0.249475
vt 0.460741 0.617872
vt 0.479080 0.617424
vt 0.409237 0.618522
vt 0.427365 0.618455
vt 0.357609 0.617358
vt 0.375873 0.617831
vt 0.150637 0.559621
vt 0.168976 0.559172
vt 0.099132 0.560270
vt 0.117261 0.560204
vt 0.047505 0.559107
vt 0.065768 0.559580
vt 0.460741 0.249516
vt 0.479080 0.249068
vt 0.409237 0.250166
vt 0.427366 0.250100
vt 0.357610 0.249002
vt 0.375873 0.249475
vt 0.599534 0.787854
vt 0.582359 0.787854
vt 0.599534 0.799878
vt 0.582359 0.799878
vt 0.599449 0.889210
vt 0.583479 0.882529
vt 0.534395 0.824156
vt 0.541076 0.840126
vt 0.623727 0.824070
vt 0.623727 0.841246
vt 0.635751 0.824071
vt 0.635751 0.841246
vt 0.725083 0.824156
vt 0.718402 0.840126
vt 0.660028 0.889210
vt 0.675998 0.882529
vt 0.659943 0.799878
vt 0.677119 0.799878
vt 0.659943 0.787854
vt 0.677119 0.787854
vt 0.660028 0.698522
vt 0.675998 0.705203
vt 0.725083 0.763577
vt 0.718402 0.747607
vt 0.635751 0.763662
vt 0.635751 0.746486
vt 0.623727 0.763662
vt 0.623727 0.746486
vt 0.599449 0.698522
vt 0.583479 0.705203
vt 0.534395 0.763577
vt 0.541076 0.747607
vt 0.201955 0.019627
vt 0.217905 0.026299
vt 0.108149 0.290478
vt 0.092200 0.283806
vt 0.019627 0.201955
vt 0.026299 0.217905
vt 0.108245 0.162977
vt 0.091069 0.162977
vt 0.147128 0.201860
vt 0.147128 0.219036
vt 0.162977 0.201860
vt 0.162977 0.219036
vt 0.201955 0.290478
vt 0.217905 0.283806
vt 0.290478 0.201955
vt 0.283806 0.217905
vt 0.201860 0.162977
vt 0.219036 0.162977
vt 0.108245 0.147128
vt 0.091069 0.147128
vt 0.201860 0.147128
vt 0.219036 0.147128
vt 0.290478 0.108149
vt 0.283806 0.092200
vt 0.162977 0.108245
vt 0.162977 0.091069
vt 0.147128 0.108245
vt 0.147128 0.091069
vt 0.108149 0.019627
vt 0.092200 0.026299
vt 0.019627 0.108149
vt 0.026299 0.092200
vt 0.250238 0.047903
vt 0.262202 0.059867
vt 0.737634 0.006031
vt 0.735150 0.077658
vt 0.614504 0.663704
vt 0.614710 0.374563
vt 0.631655 0.374563
vt 0.631860 0.663704
vt 0.592779 0.374158
vt 0.729185 0.364558
vt 0.732345 0.353679
vt 0.531075 0.660614
vt 0.550763 0.372154
vt 0.575478 0.373524
vt 0.532525 0.078240
vt 0.529566 0.006791
vt 0.653586 0.374158
vt 0.538618 0.363578
vt 0.535547 0.352783
vt 0.262202 0.250238
vt 0.250238 0.262202
vt 0.521971 0.374387
vt 0.519486 0.446015
vt 0.715288 0.660614
vt 0.670886 0.373524
vt 0.695602 0.372154
vt 0.067009 0.684262
vt 0.088940 0.684667
vt 0.513522 0.732914
vt 0.516681 0.722035
vt 0.005306 0.970718
vt 0.024993 0.682258
vt 0.049709 0.683629
vt 0.316862 0.446596
vt 0.313902 0.375147
vt 0.105885 0.684667
vt 0.127816 0.684262
vt 0.322954 0.731934
vt 0.319883 0.721139
vt 0.059867 0.262202
vt 0.047903 0.250238
vt 0.211866 0.316136
vt 0.209381 0.387763
vt 0.203417 0.674663
vt 0.206577 0.663783
vt 0.189520 0.970718
vt 0.145116 0.683629
vt 0.169832 0.682258
vt 0.809535 0.374563
vt 0.725901 0.660614
vt 0.745588 0.372154
vt 0.006757 0.388345
vt 0.003798 0.316895
vt 0.826479 0.374563
vt 0.848410 0.374158
vt 0.012849 0.673683
vt 0.009779 0.662888
vt 0.047903 0.059867
vt 0.059867 0.047903
vt 0.521971 0.006031
vt 0.519486 0.077658
vt 0.910115 0.660614
vt 0.865711 0.373524
vt 0.890426 0.372154
vt 0.808441 0.005802
vt 0.830372 0.006207
vt 0.513522 0.364559
vt 0.516681 0.353679
vt 0.746738 0.292258
vt 0.766425 0.003798
vt 0.791140 0.005168
vt 0.316862 0.078241
vt 0.313902 0.006791
vt 0.847316 0.006207
vt 0.869247 0.005802
vt 0.322954 0.363578
vt 0.319883 0.352783
vt 0.732433 0.268495
vt 0.535779 0.268269
vt 0.516770 0.636851
vt 0.320116 0.636625
vt 0.206665 0.578600
vt 0.010011 0.578374
vt 0.516770 0.268495
vt 0.320116 0.268269
vt 0.694235 0.717389
vt 0.706216 0.729370
vt 0.729912 0.787854
vt 0.635751 0.693693
vt 0.553261 0.729370
vt 0.565242 0.717389
vt 0.623727 0.693693
vt 0.529566 0.787854
vt 0.565242 0.870344
vt 0.553261 0.858362
vt 0.529566 0.799878
vt 0.623727 0.894039
vt 0.706216 0.858362
vt 0.694235 0.870344
vt 0.635751 0.894039
vt 0.729912 0.799878
vt 0.728778 0.227897
vt 0.729222 0.247789
vt 0.694292 0.228502
vt 0.730184 0.111176
vt 0.676301 0.228703
vt 0.642842 0.229040
vt 0.624941 0.229084
vt 0.591651 0.228740
vt 0.573726 0.228534
vt 0.538976 0.247717
vt 0.539404 0.227947
vt 0.537649 0.111603
vt 0.513114 0.596253
vt 0.513558 0.616145
vt 0.478629 0.596858
vt 0.514520 0.479532
vt 0.460638 0.597059
vt 0.427178 0.597396
vt 0.409278 0.597440
vt 0.375987 0.597096
vt 0.358062 0.596890
vt 0.323312 0.616073
vt 0.323740 0.596303
vt 0.321986 0.479959
vt 0.203009 0.538002
vt 0.203454 0.557894
vt 0.168524 0.538606
vt 0.204416 0.421281
vt 0.150533 0.538808
vt 0.117073 0.539145
vt 0.099173 0.539189
vt 0.065883 0.538844
vt 0.047958 0.538639
vt 0.013208 0.557822
vt 0.013636 0.538052
vt 0.011881 0.421708
vt 0.513115 0.227897
vt 0.513559 0.247789
vt 0.478629 0.228502
vt 0.514521 0.111176
vt 0.460638 0.228703
vt 0.427178 0.229041
vt 0.409278 0.229084
vt 0.375988 0.228740
vt 0.358063 0.228534
vt 0.323313 0.247717
vt 0.323741 0.227947
vt 0.321986 0.111603
vt 0.322959 0.131528
vt 0.513632 0.131180
vt 0.012854 0.441633
vt 0.203527 0.441285
vt 0.322959 0.499884
vt 0.513632 0.499536
vt 0.538622 0.131528
vt 0.729295 0.131180
vt 0.198625 0.776500
vt 0.198624 0.682258
vt 0.215811 0.682258
vt 0.215808 0.776500
vt 0.388248 0.834752
vt 0.388249 0.740509
vt 0.405179 0.740510
vt 0.405180 0.834752
vt 0.338687 0.834751
vt 0.338684 0.740510
vt 0.355871 0.740510
vt 0.355870 0.834752
vt 0.363468 0.834752
vt 0.363466 0.740510
vt 0.380653 0.740509
vt 0.380650 0.834751
vt 0.412775 0.834752
vt 0.412776 0.740509
vt 0.429706 0.740509
vt 0.429707 0.834752
vt 0.787073 0.787935
vt 0.787071 0.693693
vt 0.804257 0.693693
vt 0.804256 0.787935
vt 0.737508 0.787935
vt 0.737507 0.693693
vt 0.754694 0.693693
vt 0.754691 0.787935
vt 0.437302 0.834752
vt 0.437303 0.740509
vt 0.454233 0.740510
vt 0.454234 0.834752
vt 0.762291 0.787935
vt 0.762289 0.693693
vt 0.779475 0.693693
vt 0.779474 0.787935
vt 0.811854 0.787935
vt 0.811852 0.693693
vt 0.829039 0.693693
vt 0.829037 0.787935
vt 0.461829 0.834752
vt 0.461831 0.740510
vt 0.478760 0.740510
vt 0.478761 0.834752
vt 0.313905 0.834751
vt 0.313902 0.740509
vt 0.331089 0.740510
vt 0.331088 0.834752
vt 0.299742 0.436952
vt 0.953273 0.495203
vt 0.976436 0.127325
vt 0.255822 0.437633
vt 0.248119 0.437035
vt 0.923348 0.596086
vt 0.930775 0.596574
vt 0.952011 0.228208
vt 0.269817 0.537835
vt 0.277244 0.538323
vt 0.224208 0.537942
vt 0.944597 0.227578
vt 0.932460 0.314596
vt 0.930952 0.292258
vt 0.745229 0.314596
vt 0.911623 0.682952
vt 0.758807 0.684849
vt 0.724392 0.682952
vt 0.776051 0.685480
vt 0.191029 0.993056
vt 0.003798 0.993056
vt 0.716797 0.682952
vt 0.631659 0.686097
vt 0.529566 0.682952
vt 0.614706 0.686098
vt 0.886548 0.005168
vt 0.911263 0.003798
vt 0.256344 0.665496
vt 0.244320 0.665496
vt 0.302576 0.665086
vt 0.290552 0.665086
vt 0.979214 0.372154
vt 0.967190 0.372154
s 0
f 86/1/1 22/2/1 10/3/1 83/4/1
f 83/4/2 10/3/2 9/5/2 91/6/2
f 68/7/3 14/8/3 13/9/3 76/10/3
f 69/11/4 33/12/4 14/8/4 68/7/4
f 37/13/5 38/14/5 7/15/5 8/16/5
f 30/17/6 29/18/6 1/19/6 2/20/6
f 22/21/6 21/22/6 9/23/6 10/24/6
f 71/25/7 37/26/7 8/27/7 66/28/7
f 82/29/8 6/30/8 5/31/8 90/32/8
f 18/33/6 17/34/6 15/35/6 16/36/6
f 70/37/9 35/38/9 12/39/9 67/40/9
f 88/41/9 30/42/9 2/43/9 81/44/9
f 39/45/5 40/46/5 3/47/5 4/48/5
f 35/49/5 36/50/5 11/51/5 12/52/5
f 81/44/10 2/43/10 1/53/10 89/54/10
f 72/55/1 39/56/1 4/57/1 65/58/1
f 85/59/7 18/60/7 16/61/7 84/62/7
f 26/63/6 25/64/6 5/65/6 6/66/6
f 33/67/5 34/68/5 13/69/5 14/70/5
f 87/71/4 26/72/4 6/30/4 82/29/4
f 33/67/5 19/73/5 20/74/5 34/68/5
f 24/75/5 36/50/5 35/49/5 23/76/5
f 28/77/5 38/14/5 37/13/5 27/78/5
f 32/79/5 40/46/5 39/45/5 31/80/5
f 457/81/11 24/75/11 23/76/11 458/82/11
f 459/83/12 32/79/12 31/80/12 460/84/12
f 461/85/13 28/77/13 27/78/13 462/86/13
f 390/87/14 61/88/14 52/89/14 380/90/14
f 386/91/15 58/92/15 55/93/15 384/94/15
f 96/95/16 64/96/16 49/97/16 89/54/16
f 378/98/17 50/99/17 49/97/17 393/100/17
f 392/101/18 63/102/18 50/99/18 378/98/18
f 94/103/19 60/104/19 53/105/19 91/6/19
f 380/90/20 52/89/20 51/106/20 395/107/20
f 95/108/21 62/109/21 51/106/21 90/32/21
f 93/110/22 57/111/22 56/112/22 92/113/22
f 92/113/23 56/112/23 55/93/23 84/62/23
f 382/114/24 54/115/24 53/105/24 397/116/24
f 388/117/25 59/118/25 54/115/25 382/114/25
f 36/119/1 78/120/1 75/121/1 11/122/1
f 11/122/26 75/121/26 67/40/26 12/39/26
f 7/123/27 74/124/27 66/28/27 8/27/27
f 40/125/9 80/126/9 73/127/9 3/128/9
f 3/128/28 73/127/28 65/58/28 4/57/28
f 34/129/7 77/130/7 76/10/7 13/9/7
f 38/131/4 79/132/4 74/124/4 7/123/4
f 112/133/29 72/55/29 65/58/29 105/134/29
f 110/135/30 70/37/30 67/40/30 107/136/30
f 111/137/31 71/25/31 66/28/31 106/138/31
f 109/139/32 69/11/32 68/7/32 108/140/32
f 108/140/33 68/7/33 76/10/33 100/141/33
f 15/142/34 92/113/34 84/62/34 16/61/34
f 17/143/4 93/110/4 92/113/4 15/142/4
f 25/144/7 95/108/7 90/32/7 5/31/7
f 21/145/9 94/103/9 91/6/9 9/5/9
f 29/146/1 96/95/1 89/54/1 1/53/1
f 61/88/22 87/71/22 82/29/22 52/89/22
f 58/92/21 85/59/21 84/62/21 55/93/21
f 50/99/35 81/44/35 89/54/35 49/97/35
f 63/102/19 88/41/19 81/44/19 50/99/19
f 52/89/36 82/29/36 90/32/36 51/106/36
f 54/115/37 83/4/37 91/6/37 53/105/37
f 59/118/16 86/1/16 83/4/16 54/115/16
f 400/147/38 108/140/38 100/141/38 383/148/38
f 402/149/14 109/139/14 108/140/14 400/147/14
f 406/150/15 111/137/15 106/138/15 396/151/15
f 404/152/18 110/135/18 107/136/18 398/153/18
f 408/154/25 112/133/25 105/134/25 394/155/25
f 78/120/29 102/156/29 99/157/29 75/121/29
f 75/121/39 99/157/39 107/136/39 67/40/39
f 74/124/40 98/158/40 106/138/40 66/28/40
f 80/126/30 104/159/30 97/160/30 73/127/30
f 73/127/41 97/160/41 105/134/41 65/58/41
f 77/130/31 101/161/31 100/141/31 76/10/31
f 79/132/32 103/162/32 98/158/32 74/124/32
f 116/163/5 114/164/5 113/165/5 115/166/5
f 120/167/6 119/168/6 118/169/6 117/170/6
f 329/171/5 330/172/5 331/173/5 332/174/5
f 333/175/5 334/176/5 335/177/5 336/178/5
f 337/179/5 338/180/5 339/181/5 340/182/5
f 341/183/5 342/184/5 343/185/5 344/186/5
f 349/187/6 350/188/6 351/189/6 352/190/6
f 353/191/6 354/192/6 355/193/6 356/194/6
f 359/195/6 360/196/6 361/197/6 362/198/6
f 367/199/6 368/200/6 369/201/6 370/202/6
f 266/203/42 121/204/42 122/205/42 265/206/42
f 268/207/43 126/208/43 125/209/43 267/210/43
f 270/211/44 129/212/44 130/213/44 269/214/44
f 272/215/45 133/216/45 134/217/45 271/218/45
f 274/219/46 138/220/46 137/221/46 273/222/46
f 276/223/47 141/224/47 142/225/47 275/226/47
f 278/227/48 145/228/48 146/229/48 277/230/48
f 280/231/49 150/232/49 149/233/49 279/234/49
f 282/235/50 153/236/50 154/237/50 281/238/50
f 284/239/51 157/240/51 158/241/51 283/242/51
f 286/243/52 162/244/52 161/245/52 285/246/52
f 288/247/53 165/248/53 166/249/53 287/250/53
f 124/251/5 169/252/5 170/253/5 123/254/5
f 128/255/5 171/256/5 172/257/5 127/258/5
f 132/259/5 173/260/5 174/261/5 131/262/5
f 136/263/5 175/264/5 176/265/5 135/266/5
f 140/267/5 177/268/5 178/269/5 139/270/5
f 144/271/5 179/272/5 180/273/5 143/274/5
f 148/275/5 181/276/5 182/277/5 147/278/5
f 152/279/5 183/280/5 184/281/5 151/282/5
f 156/283/5 185/284/5 186/285/5 155/286/5
f 160/287/5 187/288/5 188/289/5 159/290/5
f 164/291/5 189/292/5 190/293/5 163/294/5
f 168/295/5 191/296/5 192/297/5 167/298/5
f 463/299/54 42/300/54 41/301/54 464/302/54
f 467/303/55 152/304/55 151/305/55 468/306/55
f 465/307/56 205/308/56 206/309/56 466/310/56
f 471/311/57 132/312/57 131/313/57 472/314/57
f 473/315/58 156/316/58 155/317/58 474/318/58
f 475/319/59 136/320/59 135/321/59 476/322/59
f 477/323/60 160/324/60 159/325/60 478/326/60
f 479/327/61 140/328/61 139/329/61 480/330/61
f 481/331/62 164/332/62 163/333/62 482/334/62
f 483/335/63 144/336/63 143/337/63 484/338/63
f 485/339/64 168/340/64 167/341/64 486/342/64
f 487/343/65 124/344/65 123/345/65 488/346/65
f 410/347/66 217/348/66 218/349/66 411/350/66
f 414/351/67 219/352/67 220/353/67 415/354/67
f 418/355/68 221/356/68 222/357/68 419/358/68
f 422/359/69 223/360/69 224/361/69 423/362/69
f 426/363/70 225/364/70 226/365/70 427/366/70
f 430/367/71 227/368/71 228/369/71 431/370/71
f 434/371/72 229/372/72 230/373/72 435/374/72
f 438/375/73 231/376/73 232/377/73 439/378/73
f 442/379/74 233/380/74 234/381/74 443/382/74
f 446/383/75 235/384/75 236/385/75 447/386/75
f 450/387/76 237/388/76 238/389/76 451/390/76
f 454/391/77 239/392/77 240/393/77 455/394/77
f 169/252/78 241/395/78 242/396/78 170/253/78
f 171/256/79 243/397/79 244/398/79 172/257/79
f 173/260/80 245/399/80 246/400/80 174/261/80
f 175/264/81 247/401/81 248/402/81 176/265/81
f 177/268/82 249/403/82 250/404/82 178/269/82
f 179/272/83 251/405/83 252/406/83 180/273/83
f 181/276/84 253/407/84 254/408/84 182/277/84
f 183/280/85 255/409/85 256/410/85 184/281/85
f 185/284/86 257/411/86 258/412/86 186/285/86
f 187/288/87 259/413/87 260/414/87 188/289/87
f 189/292/88 261/415/88 262/416/88 190/293/88
f 191/296/89 263/417/89 264/418/89 192/297/89
f 217/348/90 266/203/90 265/206/90 218/349/90
f 219/352/91 268/207/91 267/210/91 220/353/91
f 221/356/92 270/211/92 269/214/92 222/357/92
f 223/360/93 272/215/93 271/218/93 224/361/93
f 225/364/94 274/219/94 273/222/94 226/365/94
f 227/368/95 276/223/95 275/226/95 228/369/95
f 229/372/96 278/227/96 277/230/96 230/373/96
f 231/376/97 280/231/97 279/234/97 232/377/97
f 233/380/98 282/235/98 281/238/98 234/381/98
f 235/384/99 284/239/99 283/242/99 236/385/99
f 237/388/100 286/243/100 285/246/100 238/389/100
f 239/392/101 288/247/101 287/250/101 240/393/101
f 241/395/102 290/419/102 289/420/102 242/396/102
f 243/397/103 292/421/103 291/422/103 244/398/103
f 245/399/104 294/423/104 293/424/104 246/400/104
f 247/401/105 296/425/105 295/426/105 248/402/105
f 249/403/106 298/427/106 297/428/106 250/404/106
f 251/405/107 300/429/107 299/430/107 252/406/107
f 253/407/108 302/431/108 301/432/108 254/408/108
f 255/409/109 304/433/109 303/434/109 256/410/109
f 257/411/110 306/435/110 305/436/110 258/412/110
f 259/413/111 308/437/111 307/438/111 260/414/111
f 261/415/112 310/439/112 309/440/112 262/416/112
f 263/417/113 312/441/113 311/442/113 264/418/113
f 332/174/5 325/443/5 326/444/5 329/171/5
f 325/443/5 315/445/5 316/446/5 326/444/5
f 333/175/5 210/447/5 209/448/5 334/176/5
f 205/449/5 335/177/5 334/176/5 206/450/5
f 315/445/5 336/178/5 335/177/5 316/446/5
f 336/178/5 323/451/5 324/452/5 333/175/5
f 323/451/5 321/453/5 322/454/5 324/452/5
f 337/179/5 216/455/5 215/456/5 338/180/5
f 211/457/5 339/181/5 338/180/5 212/458/5
f 321/453/5 340/182/5 339/181/5 322/454/5
f 340/182/5 319/459/5 320/460/5 337/179/5
f 319/459/5 313/461/5 314/462/5 320/460/5
f 341/183/5 198/463/5 197/464/5 342/184/5
f 193/465/5 343/185/5 342/184/5 194/466/5
f 313/461/5 344/186/5 343/185/5 314/462/5
f 344/186/5 317/467/5 318/468/5 341/183/5
f 317/467/5 327/469/5 328/470/5 318/468/5
f 327/469/5 332/174/5 331/173/5 328/470/5
f 199/471/5 331/173/5 330/172/5 200/472/5
f 329/171/5 204/473/5 203/474/5 330/172/5
f 349/187/6 122/475/6 121/476/6 350/188/6
f 353/191/6 146/477/6 145/478/6 354/192/6
f 153/479/6 355/193/6 354/192/6 154/480/6
f 358/481/6 356/194/6 355/193/6 357/482/6
f 356/194/6 345/483/6 346/484/6 353/191/6
f 345/483/6 347/485/6 348/486/6 346/484/6
f 347/485/6 359/195/6 362/198/6 348/486/6
f 141/487/6 362/198/6 361/197/6 142/488/6
f 360/196/6 134/489/6 133/490/6 361/197/6
f 359/195/6 363/491/6 364/492/6 360/196/6
f 366/493/6 358/481/6 357/482/6 365/494/6
f 370/202/6 366/493/6 365/494/6 367/199/6
f 363/491/6 375/495/6 376/496/6 364/492/6
f 129/497/6 351/189/6 350/188/6 130/498/6
f 375/495/6 352/190/6 351/189/6 376/496/6
f 352/190/6 373/499/6 374/500/6 349/187/6
f 373/499/6 371/501/6 372/502/6 374/500/6
f 371/501/6 370/202/6 369/201/6 372/502/6
f 165/503/6 369/201/6 368/200/6 166/504/6
f 367/199/6 158/505/6 157/506/6 368/200/6
f 130/498/6 350/188/6 121/476/6 125/507/6 126/508/6
f 121/204/114 266/203/114 267/210/114 125/209/114
f 18/509/115 85/510/115 265/206/115 122/205/115
f 122/475/6 349/187/6 374/500/6 18/33/6
f 469/511/116 196/512/116 195/513/116 470/514/116
f 469/511/117 487/343/117 194/515/117 196/512/117
f 124/251/5 127/258/5 172/257/5 169/252/5
f 20/516/5 123/254/5 170/253/5 34/517/5
f 126/208/118 268/207/118 269/214/118 130/213/118
f 128/255/5 131/262/5 174/261/5 171/256/5
f 488/346/119 464/518/119 41/519/119 193/520/119
f 129/212/120 270/211/120 94/521/120 21/522/120
f 21/22/6 376/496/6 351/189/6 129/497/6
f 472/314/121 470/514/121 195/513/121 197/523/121
f 132/259/5 23/524/5 35/525/5 173/260/5
f 142/488/6 361/197/6 133/490/6 137/526/6 138/527/6
f 133/216/122 272/215/122 273/222/122 137/221/122
f 22/528/123 86/529/123 271/218/123 134/217/123
f 134/489/6 360/196/6 364/492/6 22/21/6
f 458/530/124 471/311/124 198/531/124 44/532/124
f 480/330/125 475/319/125 200/533/125 202/534/125
f 136/263/5 139/270/5 178/269/5 175/264/5
f 24/535/5 135/266/5 176/265/5 36/536/5
f 138/220/126 274/219/126 275/226/126 142/225/126
f 140/267/5 143/274/5 180/273/5 177/268/5
f 476/322/127 457/537/127 43/538/127 199/539/127
f 141/224/128 276/223/128 95/540/128 25/541/128
f 25/64/6 348/486/6 362/198/6 141/487/6
f 484/338/129 479/327/129 201/542/129 203/543/129
f 144/271/5 27/544/5 37/545/5 179/272/5
f 154/480/6 354/192/6 145/478/6 149/546/6 150/547/6
f 145/228/130 278/227/130 279/234/130 149/233/130
f 26/548/131 87/549/131 277/230/131 146/229/131
f 146/477/6 353/191/6 346/484/6 26/63/6
f 148/275/5 151/282/5 184/281/5 181/276/5
f 28/550/5 147/278/5 182/277/5 38/551/5
f 462/552/132 483/335/132 204/553/132 46/554/132
f 468/306/133 466/310/133 206/309/133 208/555/133
f 150/232/134 280/231/134 281/238/134 154/237/134
f 465/307/135 461/556/135 45/557/135 205/308/135
f 152/279/5 155/286/5 186/285/5 183/280/5
f 153/236/136 282/235/136 96/558/136 29/559/136
f 29/18/6 357/482/6 355/193/6 153/479/6
f 474/318/137 467/303/137 207/560/137 209/561/137
f 156/283/5 31/562/5 39/563/5 185/284/5
f 166/504/6 368/200/6 157/506/6 161/564/6 162/565/6
f 157/240/138 284/239/138 285/246/138 161/245/138
f 30/566/139 88/567/139 283/242/139 158/241/139
f 158/505/6 367/199/6 365/494/6 30/17/6
f 460/568/140 473/315/140 210/569/140 48/570/140
f 482/334/141 477/323/141 212/571/141 214/572/141
f 160/287/5 163/294/5 190/293/5 187/288/5
f 32/573/5 159/290/5 188/289/5 40/574/5
f 162/244/142 286/243/142 287/250/142 166/249/142
f 164/291/5 167/298/5 192/297/5 189/292/5
f 478/326/143 459/575/143 47/576/143 211/577/143
f 165/248/144 288/247/144 93/578/144 17/579/144
f 17/34/6 372/502/6 369/201/6 165/503/6
f 486/342/145 481/331/145 213/580/145 215/581/145
f 168/295/5 19/582/5 33/583/5 191/296/5
f 77/584/146 34/517/146 170/253/146 242/396/146
f 241/395/147 169/252/147 172/257/147 244/398/147
f 243/397/148 171/256/148 174/261/148 246/400/148
f 245/399/149 173/260/149 35/525/149 70/585/149
f 78/586/150 36/536/150 176/265/150 248/402/150
f 247/401/151 175/264/151 178/269/151 250/404/151
f 249/403/152 177/268/152 180/273/152 252/406/152
f 251/405/153 179/272/153 37/545/153 71/587/153
f 79/588/154 38/551/154 182/277/154 254/408/154
f 253/407/155 181/276/155 184/281/155 256/410/155
f 255/409/156 183/280/156 186/285/156 258/412/156
f 257/411/157 185/284/157 39/563/157 72/589/157
f 80/590/158 40/574/158 188/289/158 260/414/158
f 259/413/159 187/288/159 190/293/159 262/416/159
f 261/415/160 189/292/160 192/297/160 264/418/160
f 263/417/161 191/296/161 33/583/161 69/591/161
f 197/464/5 195/592/5 196/593/5 194/466/5 342/184/5
f 193/465/5 41/594/5 314/462/5 343/185/5
f 44/595/5 198/463/5 341/183/5 318/468/5
f 203/474/5 201/596/5 202/597/5 200/472/5 330/172/5
f 199/471/5 43/598/5 328/470/5 331/173/5
f 329/171/5 326/444/5 46/599/5 204/473/5
f 206/450/5 334/176/5 209/448/5 207/600/5 208/601/5
f 45/602/5 316/446/5 335/177/5 205/449/5
f 210/447/5 333/175/5 324/452/5 48/603/5
f 212/458/5 338/180/5 215/456/5 213/604/5 214/605/5
f 47/606/5 322/454/5 339/181/5 211/457/5
f 216/455/5 337/179/5 320/460/5 42/607/5
f 385/608/162 101/609/162 289/420/162 412/610/162
f 266/203/163 217/348/163 220/353/163 267/210/163
f 85/510/164 58/611/164 218/349/164 265/206/164
f 409/612/165 290/419/165 291/422/165 416/613/165
f 413/614/166 292/421/166 293/424/166 420/615/166
f 268/207/167 219/352/167 222/357/167 269/214/167
f 417/616/168 294/423/168 110/617/168 404/618/168
f 270/211/169 221/356/169 60/619/169 94/521/169
f 387/620/170 102/621/170 295/426/170 424/622/170
f 272/215/171 223/360/171 226/365/171 273/222/171
f 86/529/172 59/623/172 224/361/172 271/218/172
f 421/624/173 296/425/173 297/428/173 428/625/173
f 425/626/174 298/427/174 299/430/174 432/627/174
f 274/219/175 225/364/175 228/369/175 275/226/175
f 429/628/176 300/429/176 111/629/176 406/630/176
f 276/223/177 227/368/177 62/631/177 95/540/177
f 389/632/178 103/633/178 301/432/178 436/634/178
f 278/227/179 229/372/179 232/377/179 279/234/179
f 87/549/180 61/635/180 230/373/180 277/230/180
f 433/636/181 302/431/181 303/434/181 440/637/181
f 437/638/182 304/433/182 305/436/182 444/639/182
f 280/231/183 231/376/183 234/381/183 281/238/183
f 441/640/184 306/435/184 112/641/184 408/642/184
f 282/235/185 233/380/185 64/643/185 96/558/185
f 391/644/186 104/645/186 307/438/186 448/646/186
f 284/239/187 235/384/187 238/389/187 285/246/187
f 88/567/188 63/647/188 236/385/188 283/242/188
f 445/648/189 308/437/189 309/440/189 452/649/189
f 449/650/190 310/439/190 311/442/190 456/651/190
f 286/243/191 237/388/191 240/393/191 287/250/191
f 453/652/192 312/441/192 109/653/192 402/654/192
f 288/247/193 239/392/193 57/655/193 93/578/193
f 290/419/194 241/395/194 244/398/194 291/422/194
f 101/609/195 77/584/195 242/396/195 289/420/195
f 292/421/196 243/397/196 246/400/196 293/424/196
f 294/423/197 245/399/197 70/585/197 110/617/197
f 296/425/198 247/401/198 250/404/198 297/428/198
f 102/621/199 78/586/199 248/402/199 295/426/199
f 298/427/200 249/403/200 252/406/200 299/430/200
f 300/429/201 251/405/201 71/587/201 111/629/201
f 302/431/202 253/407/202 256/410/202 303/434/202
f 103/633/203 79/588/203 254/408/203 301/432/203
f 304/433/204 255/409/204 258/412/204 305/436/204
f 306/435/205 257/411/205 72/589/205 112/641/205
f 308/437/206 259/413/206 262/416/206 309/440/206
f 104/645/207 80/590/207 260/414/207 307/438/207
f 310/439/208 261/415/208 264/418/208 311/442/208
f 312/441/209 263/417/209 69/591/209 109/653/209
f 42/607/5 320/460/5 314/462/5 41/594/5
f 115/166/5 113/165/5 313/461/5 319/459/5
f 344/186/5 313/461/5 113/165/5 317/467/5
f 46/599/5 326/444/5 316/446/5 45/602/5
f 116/163/5 315/445/5 325/443/5 114/164/5
f 116/163/5 323/451/5 336/178/5 315/445/5
f 317/467/5 113/165/5 114/164/5 327/469/5
f 43/598/5 44/595/5 318/468/5 328/470/5
f 319/459/5 340/182/5 321/453/5 115/166/5
f 48/603/5 324/452/5 322/454/5 47/606/5
f 115/166/5 321/453/5 323/451/5 116/163/5
f 327/469/5 114/164/5 325/443/5 332/174/5
f 26/63/6 346/484/6 348/486/6 25/64/6
f 117/170/6 345/483/6 356/194/6 358/481/6
f 118/169/6 347/485/6 345/483/6 117/170/6
f 118/169/6 363/491/6 359/195/6 347/485/6
f 373/499/6 352/190/6 375/495/6 119/168/6
f 117/170/6 358/481/6 366/493/6 120/167/6
f 30/17/6 365/494/6 357/482/6 29/18/6
f 22/21/6 364/492/6 376/496/6 21/22/6
f 119/168/6 375/495/6 363/491/6 118/169/6
f 120/167/6 366/493/6 370/202/6 371/501/6
f 120/167/6 371/501/6 373/499/6 119/168/6
f 18/33/6 374/500/6 372/502/6 17/34/6
f 239/392/192 454/391/192 401/656/192 57/655/192
f 454/391/210 453/652/210 402/654/210 401/656/210
f 237/388/190 450/387/190 455/394/190 240/393/190
f 450/387/211 449/650/211 456/651/211 455/394/211
f 235/384/189 446/383/189 451/390/189 238/389/189
f 446/383/212 445/648/212 452/649/212 451/390/212
f 63/647/186 392/657/186 447/386/186 236/385/186
f 392/657/213 391/644/213 448/646/213 447/386/213
f 233/380/184 442/379/184 407/658/184 64/643/184
f 442/379/214 441/640/214 408/642/214 407/658/214
f 231/376/182 438/375/182 443/382/182 234/381/182
f 438/375/215 437/638/215 444/639/215 443/382/215
f 229/372/181 434/371/181 439/378/181 232/377/181
f 434/371/216 433/636/216 440/637/216 439/378/216
f 61/635/178 390/659/178 435/374/178 230/373/178
f 390/659/217 389/632/217 436/634/217 435/374/217
f 227/368/176 430/367/176 405/660/176 62/631/176
f 430/367/218 429/628/218 406/630/218 405/660/218
f 225/364/174 426/363/174 431/370/174 228/369/174
f 426/363/219 425/626/219 432/627/219 431/370/219
f 223/360/173 422/359/173 427/366/173 226/365/173
f 422/359/220 421/624/220 428/625/220 427/366/220
f 59/623/170 388/661/170 423/362/170 224/361/170
f 388/661/221 387/620/221 424/622/221 423/362/221
f 221/356/168 418/355/168 403/662/168 60/619/168
f 418/355/222 417/616/222 404/618/222 403/662/222
f 219/352/166 414/351/166 419/358/166 222/357/166
f 414/351/223 413/614/223 420/615/223 419/358/223
f 217/348/165 410/347/165 415/354/165 220/353/165
f 410/347/224 409/612/224 416/613/224 415/354/224
f 58/611/162 386/663/162 411/350/162 218/349/162
f 386/663/225 385/608/225 412/610/225 411/350/225
f 312/441/226 453/652/226 456/651/226 311/442/226
f 453/664/227 454/665/227 455/666/227 456/667/227
f 310/439/76 449/650/76 452/649/76 309/440/76
f 449/668/228 450/669/228 451/670/228 452/671/228
f 308/437/229 445/648/229 448/646/229 307/438/229
f 445/672/230 446/673/230 447/674/230 448/675/230
f 306/435/231 441/640/231 444/639/231 305/436/231
f 441/676/232 442/677/232 443/678/232 444/679/232
f 304/433/73 437/638/73 440/637/73 303/434/73
f 437/680/233 438/681/233 439/682/233 440/683/233
f 302/431/234 433/636/234 436/634/234 301/432/234
f 433/684/235 434/685/235 435/686/235 436/687/235
f 300/429/236 429/628/236 432/627/236 299/430/236
f 429/688/237 430/689/237 431/690/237 432/691/237
f 298/427/70 425/626/70 428/625/70 297/428/70
f 425/692/238 426/693/238 427/694/238 428/695/238
f 296/425/239 421/624/239 424/622/239 295/426/239
f 421/696/240 422/697/240 423/698/240 424/699/240
f 294/423/241 417/616/241 420/615/241 293/424/241
f 417/700/242 418/701/242 419/702/242 420/703/242
f 292/421/67 413/614/67 416/613/67 291/422/67
f 413/704/243 414/705/243 415/706/243 416/707/243
f 290/419/244 409/612/244 412/610/244 289/420/244
f 409/708/245 410/709/245 411/710/245 412/711/245
f 64/96/25 407/712/25 393/100/25 49/97/25
f 407/712/246 408/154/246 394/155/246 393/100/246
f 60/104/18 403/713/18 397/116/18 53/105/18
f 403/713/247 404/152/247 398/153/247 397/116/247
f 62/109/15 405/714/15 395/107/15 51/106/15
f 405/714/248 406/150/248 396/151/248 395/107/248
f 57/111/14 401/715/14 399/716/14 56/112/14
f 401/715/249 402/149/249 400/147/249 399/716/249
f 56/112/38 399/716/38 384/94/38 55/93/38
f 399/716/250 400/147/250 383/148/250 384/94/250
f 102/156/25 387/717/25 381/718/25 99/157/25
f 387/717/246 388/117/246 382/114/246 381/718/246
f 99/157/24 381/718/24 398/153/24 107/136/24
f 381/718/251 382/114/251 397/116/251 398/153/251
f 98/158/20 379/719/20 396/151/20 106/138/20
f 379/719/252 380/90/252 395/107/252 396/151/252
f 104/159/18 391/720/18 377/721/18 97/160/18
f 391/720/247 392/101/247 378/98/247 377/721/247
f 97/160/17 377/721/17 394/155/17 105/134/17
f 377/721/253 378/98/253 393/100/253 394/155/253
f 101/161/15 385/722/15 383/148/15 100/141/15
f 385/722/248 386/91/248 384/94/248 383/148/248
f 103/162/14 389/723/14 379/719/14 98/158/14
f 389/723/249 390/87/249 380/90/249 379/719/249
f 19/724/254 168/340/254 485/339/254 463/725/254
f 167/341/255 164/332/255 481/331/255 486/342/255
f 159/325/256 32/726/256 459/575/256 478/326/256
f 163/333/257 160/324/257 477/323/257 482/334/257
f 31/727/258 156/316/258 473/315/258 460/568/258
f 155/317/259 152/304/259 467/303/259 474/318/259
f 147/728/260 28/729/260 461/556/260 465/307/260
f 151/305/261 148/730/261 466/310/261 468/306/261
f 27/731/262 144/336/262 483/335/262 462/552/262
f 143/337/263 140/328/263 479/327/263 484/338/263
f 135/321/264 24/732/264 457/537/264 476/322/264
f 139/329/265 136/320/265 475/319/265 480/330/265
f 23/733/266 132/312/266 471/311/266 458/530/266
f 131/313/267 128/734/267 470/514/267 472/314/267
f 123/345/268 20/735/268 464/518/268 488/346/268
f 127/736/269 124/344/269 487/343/269 469/511/269
f 463/725/270 485/339/270 216/737/270 42/738/270
f 194/515/271 487/343/271 488/346/271 193/520/271
f 216/737/272 485/339/272 486/342/272 215/581/272
f 204/553/273 483/335/273 484/338/273 203/543/273
f 213/580/274 481/331/274 482/334/274 214/572/274
f 201/542/275 479/327/275 480/330/275 202/534/275
f 212/571/276 477/323/276 478/326/276 211/577/276
f 200/533/277 475/319/277 476/322/277 199/539/277
f 210/569/278 473/315/278 474/318/278 209/561/278
f 127/736/279 469/511/279 470/514/279 128/734/279
f 198/531/280 471/311/280 472/314/280 197/523/280
f 147/728/281 465/307/281 466/310/281 148/730/281
f 19/73/282 463/299/282 464/302/282 20/74/282
f 207/560/283 467/303/283 468/306/283 208/555/283
f 45/739/284 461/85/284 462/86/284 46/740/284
f 47/741/285 459/83/285 460/84/285 48/742/285
f 43/743/286 457/81/286 458/82/286 44/744/286
