# Blender 5.2.0 LTS
# www.blender.org
mtllib AcidVatAcid.mtl
o AcidVatAcid
v -2.111789 5.250257 -0.126771
v -2.111789 5.250257 0.126771
v 2.111789 5.250257 0.126771
v 2.111789 5.250257 -0.126771
v 0.126771 5.250257 -2.111789
v -0.126771 5.250257 -2.111789
v 0.126771 5.250257 2.111789
v -0.126771 5.250257 2.111789
v 0.673320 5.250257 -2.003073
v 0.944048 5.250257 -1.889976
v 1.592674 5.250257 -1.388992
v 1.388992 5.250257 -1.592674
v -1.388992 5.250257 1.592674
v -1.592674 5.250257 1.388992
v -2.003073 5.250257 0.673320
v -1.889976 5.250257 0.944048
v 2.003073 5.250257 -0.673320
v 1.889976 5.250257 -0.944048
v -1.889976 5.250257 -0.944048
v -2.003073 5.250257 -0.673320
v 1.889976 5.250257 0.944048
v 2.003073 5.250257 0.673320
v -1.388992 5.250257 -1.592674
v -1.592674 5.250257 -1.388992
v 1.388992 5.250257 1.592674
v 1.592674 5.250257 1.388992
v -0.673320 5.250257 -2.003073
v -0.944048 5.250257 -1.889976
v 0.673320 5.250257 2.003073
v 0.944048 5.250257 1.889976
v -0.944048 5.250257 1.889976
v -0.673320 5.250257 2.003073
vn -0.0000 1.0000 -0.0000
vt 0.567276 0.990196
vt 0.436946 0.990196
vt 0.369685 0.976606
vt 0.254056 0.928711
vt 0.198041 0.891283
vt 0.109543 0.802785
vt 0.071248 0.745844
vt 0.021372 0.625435
vt 0.009804 0.567276
vt 0.009804 0.436946
vt 0.023394 0.369685
vt 0.071289 0.254056
vt 0.108717 0.198041
vt 0.197215 0.109543
vt 0.254156 0.071248
vt 0.374565 0.021372
vt 0.432724 0.009804
vt 0.563054 0.009804
vt 0.630315 0.023394
vt 0.745944 0.071289
vt 0.801959 0.108717
vt 0.890457 0.197215
vt 0.928752 0.254156
vt 0.978628 0.374565
vt 0.990196 0.432724
vt 0.990196 0.563054
vt 0.976606 0.630315
vt 0.928711 0.745944
vt 0.891283 0.801959
vt 0.802785 0.890457
vt 0.745844 0.928752
vt 0.625435 0.978628
s 0
f 7/1/1 29/2/1 30/3/1 25/4/1 26/5/1 21/6/1 22/7/1 3/8/1 4/9/1 17/10/1 18/11/1 11/12/1 12/13/1 10/14/1 9/15/1 5/16/1 6/17/1 27/18/1 28/19/1 23/20/1 24/21/1 19/22/1 20/23/1 1/24/1 2/25/1 15/26/1 16/27/1 14/28/1 13/29/1 31/30/1 32/31/1 8/32/1
