# Blender 5.2.1 LTS
# www.blender.org
mtllib TankChain.mtl
o TankChain
v 0.000000 17.663877 -0.583895
v 0.583895 17.663877 0.000000
v -0.583895 17.663877 -0.000000
v -0.000000 17.663877 0.583895
v -0.412876 17.663877 -0.412876
v 0.412876 17.663877 0.412876
v 0.412876 17.663877 -0.412876
v -0.412876 17.663877 0.412876
v 0.000000 17.663877 0.000000
v 0.294648 18.047766 -0.294648
v 0.416696 18.047766 0.000000
v -0.294648 18.047766 -0.294648
v 0.000000 18.047766 -0.416696
v 0.294648 18.047766 0.294648
v -0.000000 18.047766 0.416696
v -0.294648 18.047766 0.294648
v -0.416696 18.047766 -0.000000
v 0.170701 18.337521 -0.054681
v 0.138845 18.337519 -0.000496
v -0.169841 18.337521 -0.054184
v 0.000000 18.337519 -0.109642
v 0.169841 18.337521 0.054184
v 0.000000 18.337519 0.109642
v -0.170701 18.337521 0.054681
v -0.138845 18.337519 0.000496
v 0.233554 18.337521 -0.054184
v 0.264551 18.337521 0.000496
v -0.232695 18.337521 -0.054681
v 0.000000 18.337521 -0.194208
v 0.232695 18.337521 0.054681
v 0.000000 18.337521 0.194208
v -0.233554 18.337521 0.054184
v -0.264551 18.337521 -0.000496
v 0.243691 18.337521 -0.137326
v 0.344632 18.337521 -0.000000
v -0.243691 18.337521 0.137326
v -0.344632 18.337521 -0.000000
v -0.243691 18.337521 -0.137326
v 0.243691 18.337521 0.137326
v 0.077528 18.337519 -0.077528
v 0.109642 18.337519 -0.000000
v -0.077528 18.337519 0.077528
v -0.109642 18.337519 0.000000
v -0.077528 18.337519 -0.077528
v 0.077528 18.337519 0.077528
v 0.136794 18.468145 -0.115828
v 0.128092 18.468143 -0.053578
v -0.177650 18.468145 0.014916
v 0.177650 18.468145 -0.014916
v -0.136794 18.468145 0.115828
v -0.128092 18.468143 0.053578
v 0.195056 18.468145 -0.139416
v 0.244614 18.468145 -0.100754
v -0.235911 18.468145 0.038504
v 0.235911 18.468145 -0.038504
v -0.195056 18.468145 0.139416
v -0.244614 18.468145 0.100754
v 0.082074 18.598770 -0.159351
v 0.097849 18.598768 -0.098508
v -0.158428 18.598770 0.081747
v 0.158428 18.598770 -0.081747
v -0.082074 18.598770 0.159351
v -0.097849 18.598768 0.098508
v 0.126878 18.598770 -0.203434
v 0.187457 18.598770 -0.186674
v -0.203232 18.598770 0.125831
v 0.203232 18.598770 -0.125831
v -0.126878 18.598770 0.203434
v -0.187457 18.598770 0.186674
v 0.014865 18.729397 -0.178628
v 0.052717 18.729395 -0.128448
v -0.115100 18.729397 0.136140
v 0.115100 18.729397 -0.136140
v -0.014865 18.729397 0.178628
v -0.052717 18.729395 0.128448
v 0.039395 18.729397 -0.236498
v 0.101778 18.729397 -0.244190
v -0.139630 18.729397 0.194011
v 0.139630 18.729397 -0.194011
v -0.039395 18.729397 0.236498
v -0.101778 18.729397 0.244190
v -0.054606 18.860022 -0.170725
v -0.000436 18.860020 -0.138845
v -0.054258 18.860022 0.169818
v 0.054258 18.860022 -0.169818
v 0.054606 18.860022 0.170725
v 0.000436 18.860020 0.138845
v -0.054082 18.860022 -0.233578
v 0.000612 18.860022 -0.264551
v -0.054782 18.860022 0.232671
v 0.054782 18.860022 -0.232671
v 0.054082 18.860022 0.233578
v -0.000612 18.860022 0.264551
v -0.115768 18.990646 -0.136845
v -0.053522 18.990644 -0.128115
v 0.014839 18.990646 0.177657
v -0.014839 18.990646 -0.177657
v 0.115768 18.990646 0.136845
v 0.053522 18.990644 0.128115
v -0.139331 18.990646 -0.195117
v -0.100647 18.990646 -0.244658
v 0.038401 18.990646 0.235928
v -0.038401 18.990646 -0.235928
v 0.139331 18.990646 0.195116
v 0.100647 18.990646 0.244658
v -0.159315 19.121271 -0.082143
v -0.098465 19.121269 -0.097892
v 0.081678 19.121271 0.158464
v -0.081678 19.121271 -0.158464
v 0.159315 19.121271 0.082143
v 0.098465 19.121269 0.097892
v -0.203379 19.121271 -0.126967
v -0.186592 19.121271 -0.187539
v 0.125742 19.121271 0.203287
v -0.125742 19.121271 -0.203287
v 0.203379 19.121271 0.126967
v 0.186592 19.121271 0.187539
v -0.178621 19.251896 -0.014943
v -0.128425 19.251892 -0.052773
v 0.136090 19.251896 0.115159
v -0.136090 19.251896 -0.115159
v 0.178621 19.251896 0.014943
v 0.128425 19.251892 0.052773
v -0.236481 19.251896 -0.039498
v -0.244146 19.251896 -0.101884
v 0.193950 19.251896 0.139715
v -0.193950 19.251896 -0.139715
v 0.236481 19.251896 0.039498
v 0.244146 19.251896 0.101884
v -0.170749 19.382523 0.054532
v -0.138845 19.382519 0.000375
v 0.169794 19.382523 0.054333
v -0.169794 19.382523 -0.054333
v 0.170749 19.382523 -0.054532
v 0.138845 19.382519 -0.000375
v -0.233601 19.382523 0.053980
v -0.264550 19.382523 -0.000727
v 0.232647 19.382523 0.054884
v -0.232647 19.382523 -0.054884
v 0.233601 19.382523 -0.053980
v 0.264550 19.382523 0.000727
v -0.136895 19.513145 0.115708
v -0.128138 19.513144 0.053466
v 0.177663 19.513145 -0.014761
v -0.177663 19.513145 0.014761
v 0.136895 19.513145 -0.115708
v 0.128138 19.513144 -0.053466
v -0.195177 19.513145 0.139246
v -0.244702 19.513145 0.100541
v 0.235945 19.513145 -0.038298
v -0.235945 19.513145 0.038298
v 0.195177 19.513145 -0.139245
v 0.244702 19.513145 -0.100541
v -0.082213 19.643770 0.159279
v -0.097935 19.643768 0.098422
v 0.158499 19.643770 -0.081609
v -0.158499 19.643770 0.081609
v 0.082213 19.643770 -0.159279
v 0.097935 19.643768 -0.098422
v -0.127056 19.643770 0.203323
v -0.187620 19.643770 0.186510
v 0.203342 19.643770 -0.125653
v -0.203342 19.643770 0.125653
v 0.127056 19.643770 -0.203323
v 0.187620 19.643770 -0.186510
v -0.015021 19.774395 0.178615
v -0.052829 19.774393 0.128402
v 0.115219 19.774395 -0.136039
v -0.115219 19.774395 0.136039
v 0.015021 19.774395 -0.178615
v 0.052829 19.774393 -0.128402
v -0.039601 19.774395 0.236464
v -0.101991 19.774395 0.244101
v 0.139799 19.774395 -0.193889
v -0.139799 19.774395 0.193889
v 0.039601 19.774395 -0.236464
v 0.101991 19.774395 -0.244101
v 0.054457 19.905020 0.170772
v 0.000314 19.905018 0.138845
v 0.054407 19.905020 -0.169770
v -0.054407 19.905020 0.169770
v -0.054457 19.905020 -0.170772
v -0.000314 19.905018 -0.138845
v 0.053878 19.905020 0.233625
v -0.000843 19.905020 0.264550
v 0.054985 19.905020 -0.232623
v -0.054985 19.905020 0.232623
v -0.053878 19.905020 -0.233625
v 0.000843 19.905020 -0.264550
v 0.115649 20.035646 0.136946
v 0.053410 20.035645 0.128162
v -0.014684 20.035646 -0.177670
v 0.014684 20.035646 0.177670
v -0.115649 20.035646 -0.136946
v -0.053410 20.035645 -0.128162
v 0.139160 20.035646 0.195238
v 0.100434 20.035646 0.244746
v -0.038195 20.035646 -0.235962
v 0.038196 20.035646 0.235962
v -0.139160 20.035646 -0.195238
v -0.100434 20.035646 -0.244746
v 0.159243 20.166271 0.082282
v 0.098379 20.166269 0.097978
v -0.081540 20.166271 -0.158535
v 0.081540 20.166271 0.158535
v -0.159243 20.166271 -0.082282
v -0.098379 20.166269 -0.097978
v 0.203268 20.166271 0.127144
v 0.186428 20.166271 0.187702
v -0.125564 20.166271 -0.203397
v 0.125564 20.166271 0.203397
v -0.203268 20.166271 -0.127144
v -0.186428 20.166271 -0.187702
v 0.178608 20.296896 0.015099
v 0.128379 20.296894 0.052885
v -0.135989 20.296896 -0.115278
v 0.135989 20.296896 0.115278
v -0.178608 20.296896 -0.015099
v -0.128379 20.296894 -0.052885
v 0.236447 20.296896 0.039705
v 0.244057 20.296896 0.102097
v -0.193828 20.296896 -0.139884
v 0.193828 20.296896 0.139884
v -0.236447 20.296896 -0.039705
v -0.244057 20.296896 -0.102097
v 0.170796 20.427521 -0.054382
v 0.138845 20.427519 -0.000254
v -0.169747 20.427521 -0.054481
v 0.169747 20.427521 0.054481
v -0.170796 20.427521 0.054382
v -0.138845 20.427519 0.000254
v 0.233648 20.427521 -0.053776
v 0.264550 20.427521 0.000958
v -0.232599 20.427521 -0.055087
v 0.232599 20.427521 0.055087
v -0.233648 20.427521 0.053776
v -0.264550 20.427521 -0.000958
v 0.136996 20.558146 -0.115589
v 0.128185 20.558144 -0.053354
v -0.177676 20.558146 0.014606
v 0.177676 20.558146 -0.014606
v -0.136996 20.558146 0.115589
v -0.128185 20.558144 0.053354
v 0.195299 20.558146 -0.139075
v 0.244790 20.558146 -0.100327
v -0.235978 20.558146 0.038092
v 0.235978 20.558146 -0.038092
v -0.195299 20.558146 0.139075
v -0.244790 20.558146 0.100327
v 0.082352 20.688770 -0.159207
v 0.098020 20.688770 -0.098337
v -0.158570 20.688770 0.081471
v 0.158570 20.688770 -0.081471
v -0.082352 20.688770 0.159207
v -0.098020 20.688770 0.098337
v 0.127233 20.688770 -0.203212
v 0.187783 20.688770 -0.186346
v -0.203452 20.688770 0.125476
v 0.203452 20.688770 -0.125476
v -0.127233 20.688770 0.203212
v -0.187783 20.688770 0.186346
v 0.015177 20.819397 -0.178601
v 0.052941 20.819395 -0.128356
v -0.115337 20.819397 0.135939
v 0.115337 20.819397 -0.135939
v -0.015177 20.819397 0.178601
v -0.052941 20.819395 0.128356
v 0.039808 20.819397 -0.236429
v 0.102204 20.819397 -0.244012
v -0.139969 20.819397 0.193767
v 0.139969 20.819397 -0.193767
v -0.039808 20.819397 0.236429
v -0.102204 20.819397 0.244012
v -0.054308 20.950022 -0.170820
v -0.000193 20.950018 -0.138845
v -0.054555 20.950022 0.169723
v 0.054555 20.950022 -0.169723
v 0.054308 20.950022 0.170820
v 0.000193 20.950018 0.138845
v -0.053674 20.950022 -0.233672
v 0.001074 20.950022 -0.264549
v -0.055188 20.950022 0.232575
v 0.055188 20.950022 -0.232575
v 0.053674 20.950022 0.233672
v -0.001074 20.950022 0.264549
v -0.115529 21.080645 -0.137047
v -0.053298 21.080643 -0.128208
v 0.014529 21.080645 0.177682
v -0.014529 21.080645 -0.177682
v 0.115529 21.080645 0.137047
v 0.053298 21.080643 0.128208
v -0.138990 21.080645 -0.195359
v -0.100220 21.080645 -0.244833
v 0.037990 21.080645 0.235995
v -0.037990 21.080645 -0.235995
v 0.138990 21.080645 0.195359
v 0.100220 21.080645 0.244833
v -0.159171 21.211269 -0.082421
v -0.098294 21.211267 -0.098063
v 0.081401 21.211269 0.158606
v -0.081401 21.211269 -0.158606
v 0.159171 21.211269 0.082421
v 0.098294 21.211267 0.098063
v -0.203157 21.211269 -0.127322
v -0.186264 21.211269 -0.187864
v 0.125387 21.211269 0.203507
v -0.125387 21.211269 -0.203507
v 0.203157 21.211269 0.127322
v 0.186264 21.211269 0.187864
v -0.178595 21.341894 -0.015255
v -0.128333 21.341892 -0.052997
v 0.135888 21.341894 0.115397
v -0.135888 21.341894 -0.115397
v 0.178595 21.341894 0.015255
v 0.128333 21.341892 0.052997
v -0.236412 21.341894 -0.039911
v -0.243967 21.341894 -0.102310
v 0.193706 21.341894 0.140053
v -0.193706 21.341894 -0.140053
v 0.236412 21.341894 0.039911
v 0.243967 21.341894 0.102310
v -0.170844 21.472521 0.054233
v -0.138845 21.472519 0.000133
v 0.169699 21.472521 0.054629
v -0.169699 21.472521 -0.054629
v 0.170844 21.472521 -0.054233
v 0.138845 21.472519 -0.000133
v -0.233695 21.472521 0.053573
v -0.264549 21.472521 -0.001189
v 0.232551 21.472521 0.055290
v -0.232551 21.472521 -0.055290
v 0.233695 21.472521 -0.053573
v 0.264549 21.472521 0.001189
v -0.137097 21.603146 0.115469
v -0.128232 21.603144 0.053242
v 0.177689 21.603146 -0.014451
v -0.177689 21.603146 0.014451
v 0.137097 21.603146 -0.115469
v 0.128232 21.603144 -0.053242
v -0.195420 21.603146 0.138904
v -0.244877 21.603146 0.100113
v 0.236011 21.603146 -0.037886
v -0.236011 21.603146 0.037886
v 0.195420 21.603146 -0.138904
v 0.244877 21.603146 -0.100113
v -0.082491 21.733770 0.159135
v -0.098106 21.733768 0.098251
v 0.158642 21.733770 -0.081332
v -0.158642 21.733770 0.081332
v 0.082491 21.733770 -0.159135
v 0.098106 21.733768 -0.098251
v -0.127410 21.733770 0.203101
v -0.187946 21.733770 0.186182
v 0.203561 21.733770 -0.125298
v -0.203561 21.733770 0.125298
v 0.127410 21.733770 -0.203101
v 0.187946 21.733770 -0.186182
v -0.015332 21.864395 0.178588
v -0.053053 21.864393 0.128310
v 0.115456 21.864395 -0.135838
v -0.115456 21.864395 0.135838
v 0.015332 21.864395 -0.178588
v 0.053053 21.864393 -0.128310
v -0.040014 21.864395 0.236394
v -0.102417 21.864395 0.243923
v 0.140138 21.864395 -0.193644
v -0.140138 21.864395 0.193644
v 0.040014 21.864395 -0.236394
v 0.102417 21.864395 -0.243923
v 0.054159 21.995020 0.170867
v 0.000072 21.995018 0.138846
v 0.054703 21.995020 -0.169675
v -0.054703 21.995020 0.169675
v -0.054159 21.995020 -0.170867
v -0.000072 21.995018 -0.138846
v 0.053470 21.995020 0.233719
v -0.001305 21.995020 0.264548
v 0.055391 21.995020 -0.232526
v -0.055391 21.995020 0.232526
v -0.053470 21.995020 -0.233719
v 0.001305 21.995020 -0.264548
v 0.115409 22.125647 0.137148
v 0.053186 22.125645 0.128255
v -0.014374 22.125647 -0.177695
v 0.014374 22.125647 0.177695
v -0.115409 22.125647 -0.137148
v -0.053186 22.125645 -0.128255
v 0.138819 22.125647 0.195481
v 0.100006 22.125647 0.244921
v -0.037783 22.125647 -0.236028
v 0.037783 22.125647 0.236028
v -0.138819 22.125647 -0.195481
v -0.100006 22.125647 -0.244921
v 0.159099 22.256271 0.082560
v 0.098208 22.256269 0.098149
v -0.081263 22.256271 -0.158677
v 0.081263 22.256271 0.158677
v -0.159099 22.256271 -0.082560
v -0.098208 22.256269 -0.098149
v 0.203045 22.256271 0.127499
v 0.186100 22.256271 0.188027
v -0.125209 22.256271 -0.203616
v 0.125209 22.256271 0.203616
v -0.203045 22.256271 -0.127499
v -0.186100 22.256271 -0.188027
v 0.178581 22.386896 0.015410
v 0.128287 22.386894 0.053109
v -0.135788 22.386896 -0.115515
v 0.135788 22.386896 0.115515
v -0.178581 22.386896 -0.015410
v -0.128287 22.386894 -0.053109
v 0.236377 22.386896 0.040117
v 0.243878 22.386896 0.102523
v -0.193583 22.386896 -0.140222
v 0.193583 22.386896 0.140222
v -0.236377 22.386896 -0.040117
v -0.243878 22.386896 -0.102523
v 0.170891 22.517521 -0.054084
v 0.138846 22.517517 -0.000011
v -0.169651 22.517521 -0.054777
v 0.169651 22.517521 0.054777
v -0.170891 22.517521 0.054084
v -0.138846 22.517517 0.000011
v 0.233742 22.517521 -0.053368
v 0.264548 22.517521 0.001420
v -0.232502 22.517521 -0.055493
v 0.232502 22.517521 0.055493
v -0.233742 22.517521 0.053368
v -0.264548 22.517521 -0.001420
v 0.137198 22.648144 -0.115349
v 0.128278 22.648142 -0.053130
v -0.177701 22.648144 0.014296
v 0.177701 22.648144 -0.014296
v -0.137198 22.648144 0.115349
v -0.128278 22.648142 0.053130
v 0.195541 22.648144 -0.138734
v 0.244964 22.648144 -0.099899
v -0.236044 22.648144 0.037680
v 0.236044 22.648144 -0.037680
v -0.195541 22.648144 0.138734
v -0.244964 22.648144 0.099899
v 0.082630 22.778770 -0.159063
v 0.098192 22.778767 -0.098165
v -0.158712 22.778770 0.081194
v 0.158712 22.778770 -0.081194
v -0.082630 22.778770 0.159063
v -0.098192 22.778767 0.098165
v 0.127588 22.778770 -0.202990
v 0.188108 22.778770 -0.186018
v -0.203671 22.778770 0.125120
v 0.203671 22.778770 -0.125120
v -0.127588 22.778770 0.202990
v -0.188108 22.778770 0.186018
v 0.015488 22.909395 -0.178575
v 0.053165 22.909393 -0.128264
v -0.115575 22.909395 0.135737
v 0.115575 22.909395 -0.135737
v -0.015488 22.909395 0.178575
v -0.053165 22.909393 0.128263
v 0.040221 22.909395 -0.236359
v 0.102630 22.909395 -0.243833
v -0.140307 22.909395 0.193522
v 0.140307 22.909395 -0.193522
v -0.040221 22.909395 0.236359
v -0.102630 22.909395 0.243833
v -0.054010 23.040020 -0.170914
v 0.000049 23.040018 -0.138846
v -0.054851 23.040020 0.169627
v 0.054851 23.040020 -0.169627
v 0.054010 23.040020 0.170914
v -0.000049 23.040018 0.138846
v -0.053266 23.040020 -0.233765
v 0.001535 23.040020 -0.264547
v -0.055594 23.040020 0.232478
v 0.055594 23.040020 -0.232478
v 0.053266 23.040020 0.233765
v -0.001535 23.040020 0.264547
v -0.115289 23.170645 -0.137248
v -0.053074 23.170643 -0.128301
v 0.014218 23.170645 0.177707
v -0.014218 23.170645 -0.177707
v 0.115289 23.170645 0.137248
v 0.053074 23.170643 0.128301
v -0.138648 23.170645 -0.195602
v -0.099792 23.170645 -0.245008
v 0.037577 23.170645 0.236061
v -0.037577 23.170645 -0.236061
v 0.138648 23.170645 0.195602
v 0.099792 23.170645 0.245008
v -0.159027 23.301270 -0.082699
v -0.098122 23.301270 -0.098235
v 0.081124 23.301270 0.158748
v -0.081124 23.301270 -0.158748
v 0.159027 23.301270 0.082699
v 0.098122 23.301270 0.098235
v -0.202934 23.301270 -0.127676
v -0.185936 23.301270 -0.188189
v 0.125031 23.301270 0.203725
v -0.125031 23.301270 -0.203725
v 0.202934 23.301270 0.127676
v 0.185936 23.301270 0.188189
v -0.178568 23.431896 -0.015566
v -0.128240 23.431892 -0.053221
v 0.135687 23.431896 0.115634
v -0.135687 23.431896 -0.115634
v 0.178568 23.431896 0.015566
v 0.128240 23.431892 0.053221
v -0.236342 23.431896 -0.040324
v -0.243788 23.431896 -0.102736
v 0.193461 23.431896 0.140391
v -0.193461 23.431896 -0.140391
v 0.236342 23.431896 0.040324
v 0.243788 23.431896 0.102736
v -0.170938 23.562521 0.053935
v -0.138845 23.562519 -0.000110
v 0.169603 23.562521 0.054925
v -0.169603 23.562521 -0.054925
v 0.170938 23.562521 -0.053935
v 0.138845 23.562519 0.000110
v -0.233788 23.562521 0.053164
v -0.264546 23.562521 -0.001651
v 0.232454 23.562521 0.055696
v -0.232454 23.562521 -0.055696
v 0.233788 23.562521 -0.053164
v 0.264546 23.562521 0.001651
v -0.137299 23.693146 0.115229
v -0.128324 23.693144 0.053018
v 0.177714 23.693146 -0.014141
v -0.177714 23.693146 0.014141
v 0.137299 23.693146 -0.115229
v 0.128324 23.693144 -0.053018
v -0.195662 23.693146 0.138563
v -0.245052 23.693146 0.099685
v 0.236077 23.693146 -0.037474
v -0.236077 23.693146 0.037474
v 0.195662 23.693146 -0.138563
v 0.245052 23.693146 -0.099685
v -0.082768 23.823771 0.158991
v -0.098278 23.823769 0.098080
v 0.158783 23.823771 -0.081055
v -0.158783 23.823771 0.081055
v 0.082768 23.823771 -0.158991
v 0.098278 23.823769 -0.098080
v -0.127765 23.823771 0.202879
v -0.188270 23.823771 0.185854
v 0.203780 23.823771 -0.124942
v -0.203780 23.823771 0.124943
v 0.127765 23.823771 -0.202878
v 0.188270 23.823771 -0.185854
v -0.015644 23.954395 0.178561
v -0.053277 23.954393 0.128217
v 0.115693 23.954395 -0.135636
v -0.115693 23.954395 0.135636
v 0.015644 23.954395 -0.178561
v 0.053277 23.954393 -0.128217
v -0.040427 23.954395 0.236324
v -0.102842 23.954395 0.243743
v 0.140476 23.954395 -0.193400
v -0.140476 23.954395 0.193400
v 0.040427 23.954395 -0.236324
v 0.102842 23.954395 -0.243743
v 0.053860 24.085022 0.170962
v -0.000170 24.085016 0.138845
v 0.054999 24.085022 -0.169579
v -0.054999 24.085022 0.169579
v -0.053860 24.085022 -0.170962
v 0.000170 24.085016 -0.138845
v 0.053062 24.085022 0.233812
v -0.001766 24.085022 0.264546
v 0.055797 24.085022 -0.232429
v -0.055797 24.085022 0.232429
v -0.053062 24.085022 -0.233812
v 0.001766 24.085022 -0.264546
v 0.115170 24.215647 0.137349
v 0.052962 24.215643 0.128347
v -0.014063 24.215647 -0.177720
v 0.014063 24.215647 0.177720
v -0.115170 24.215647 -0.137349
v -0.052962 24.215643 -0.128347
v 0.138478 24.215647 0.195723
v 0.099578 24.215647 0.245095
v -0.037371 24.215647 -0.236094
v 0.037371 24.215647 0.236094
v -0.138478 24.215647 -0.195723
v -0.099578 24.215647 -0.245095
v 0.158955 24.346270 0.082838
v 0.098037 24.346268 0.098321
v -0.080986 24.346270 -0.158819
v 0.080986 24.346270 0.158819
v -0.158955 24.346270 -0.082838
v -0.098036 24.346268 -0.098321
v 0.202823 24.346270 0.127853
v 0.185772 24.346270 0.188352
v -0.124853 24.346270 -0.203834
v 0.124853 24.346270 0.203834
v -0.202822 24.346270 -0.127853
v -0.185772 24.346270 -0.188352
v 0.000000 24.543259 0.000004
v -0.476830 24.543325 0.476830
v 0.000000 24.543325 0.674340
v 0.674340 24.543325 -0.000000
v 0.476830 24.543325 -0.476831
v 0.476831 24.543325 0.476830
v -0.674340 24.543325 -0.000000
v -0.476830 24.543325 -0.476831
v -0.000000 24.543325 -0.674340
v -0.077528 23.926857 0.077528
v 0.109642 23.926857 -0.000000
v 0.077528 23.926857 0.077528
v -0.109642 23.926857 0.000000
v 0.000000 23.926857 -0.109642
v 0.000000 23.926857 0.109642
v 0.077528 23.926857 -0.077528
v -0.077528 23.926857 -0.077528
v 0.000000 24.494400 0.655471
v 0.463488 24.494400 -0.463488
v -0.463488 24.494400 -0.463488
v -0.463488 24.494400 0.463488
v 0.655471 24.494400 -0.000000
v 0.463488 24.494400 0.463488
v -0.655471 24.494400 -0.000000
v -0.000000 24.494400 -0.655471
v -0.376784 24.330122 0.376785
v 0.532854 24.330122 -0.000000
v 0.376785 24.330122 0.376784
v -0.532854 24.330122 -0.000000
v -0.000000 24.330122 -0.532854
v 0.000000 24.330122 0.532854
v 0.376785 24.330122 -0.376785
v -0.376784 24.330122 -0.376785
v -0.234153 24.187883 0.234153
v 0.331142 24.187883 -0.000000
v 0.234153 24.187883 0.234153
v -0.331142 24.187883 -0.000000
v -0.000000 24.187883 -0.331143
v 0.000000 24.187883 0.331142
v 0.234153 24.187883 -0.234153
v -0.234153 24.187883 -0.234153
v 0.233822 24.540291 -0.053011
v 0.264544 24.540291 0.001824
v -0.233824 24.540291 0.053011
v -0.264546 24.540291 -0.001824
v -0.232418 24.540291 -0.055848
v 0.232416 24.540291 0.055848
v 0.170972 24.540291 -0.053823
v 0.138844 24.540289 0.000201
v -0.170974 24.540291 0.053823
v -0.138846 24.540289 -0.000201
v -0.169568 24.540291 -0.055036
v 0.169566 24.540291 0.055036
v -0.148887 24.444351 -0.125533
v -0.114133 24.444351 -0.079010
v -0.194714 24.444351 -0.018816
v -0.229467 24.444351 -0.065339
v -0.206553 24.444351 -0.118698
v -0.137047 24.444351 -0.025651
v 0.229466 24.444351 0.065339
v 0.206552 24.444351 0.118698
v 0.137046 24.444351 0.025651
v 0.194713 24.444351 0.018816
v 0.148885 24.444351 0.125533
v 0.114132 24.444351 0.079010
v -0.077528 23.378872 0.077528
v -0.077528 22.538645 0.077528
v -0.077528 21.698420 0.077528
v -0.077528 20.858194 0.077528
v -0.077528 20.017969 0.077528
v -0.077528 19.177742 0.077528
v 0.109642 23.378872 -0.000000
v 0.109642 22.538645 -0.000000
v 0.109642 21.698420 -0.000000
v 0.109642 20.858194 -0.000000
v 0.109642 20.017969 -0.000000
v 0.109642 19.177742 -0.000000
v 0.077528 23.378872 0.077528
v 0.077528 22.538645 0.077528
v 0.077528 21.698420 0.077528
v 0.077528 20.858194 0.077528
v 0.077528 20.017969 0.077528
v 0.077528 19.177742 0.077528
v -0.109642 23.378872 0.000000
v -0.109642 22.538645 0.000000
v -0.109642 21.698420 0.000000
v -0.109642 20.858194 0.000000
v -0.109642 20.017969 0.000000
v -0.109642 19.177742 0.000000
v 0.000000 23.378872 -0.109642
v 0.000000 22.538645 -0.109642
v 0.000000 21.698420 -0.109642
v 0.000000 20.858194 -0.109642
v 0.000000 20.017969 -0.109642
v 0.000000 19.177742 -0.109642
v 0.000000 19.177744 0.109642
v 0.000000 20.017971 0.109642
v 0.000000 20.858196 0.109642
v 0.000000 21.698421 0.109642
v 0.000000 22.538649 0.109642
v 0.000000 23.378874 0.109642
v 0.077528 19.177744 -0.077528
v 0.077528 20.017971 -0.077528
v 0.077528 20.858196 -0.077528
v 0.077528 21.698421 -0.077528
v 0.077528 22.538649 -0.077528
v 0.077528 23.378874 -0.077528
v -0.077528 19.177744 -0.077528
v -0.077528 20.017971 -0.077528
v -0.077528 20.858196 -0.077528
v -0.077528 21.698421 -0.077528
v -0.077528 22.538649 -0.077528
v -0.077528 23.378874 -0.077528
v -0.133634 24.057371 0.133634
v 0.188986 24.057371 -0.000000
v 0.133634 24.057371 0.133634
v -0.188986 24.057371 -0.000000
v -0.000000 24.057371 -0.188987
v 0.000000 24.057371 0.188986
v 0.133634 24.057371 -0.133634
v -0.133634 24.057371 -0.133634
vn -0.0000 -1.0000 -0.0000
vn -0.8480 0.2988 -0.4377
vn -0.2645 0.5448 0.7958
vn -0.2645 0.5448 -0.7958
vn -0.8480 0.2989 0.4377
vn -0.8571 0.3733 -0.3550
vn 0.3550 0.3733 0.8571
vn 0.8571 0.3733 -0.3550
vn 0.3550 0.3733 -0.8571
vn 0.8571 0.3733 0.3550
vn -0.8571 0.3733 0.3550
vn -0.3550 0.3733 -0.8571
vn -0.3550 0.3733 0.8571
vn 0.2645 0.5448 0.7958
vn 0.8480 0.2988 -0.4377
vn 0.2645 0.5448 -0.7958
vn 0.8480 0.2989 0.4377
vn -0.0000 1.0000 -0.0000
vn 0.0001 1.0000 -0.0000
vn -0.7257 -0.2847 0.6263
vn 0.4309 -0.2847 -0.8563
vn 0.0705 -0.2847 -0.9560
vn -0.3006 -0.2847 -0.9103
vn -0.6260 -0.2847 -0.7260
vn -0.8561 -0.2847 -0.4313
vn -0.9560 -0.2847 -0.0709
vn -0.9104 -0.2847 0.3002
vn -0.7263 -0.2847 0.6257
vn -0.4316 -0.2847 0.8559
vn -0.0713 -0.2847 0.9559
vn 0.2998 -0.2847 0.9105
vn 0.6254 -0.2847 0.7265
vn 0.8557 -0.2847 0.4320
vn 0.9559 -0.2847 0.0718
vn 0.9106 -0.2847 -0.2994
vn 0.7268 -0.2847 -0.6250
vn 0.4324 -0.2847 -0.8555
vn 0.0722 -0.2847 -0.9559
vn -0.2990 -0.2847 -0.9108
vn -0.6247 -0.2847 -0.7271
vn -0.8554 -0.2847 -0.4328
vn -0.9559 -0.2847 -0.0726
vn -0.9109 -0.2847 0.2986
vn -0.7274 -0.2847 0.6244
vn -0.4331 -0.2847 0.8552
vn -0.0730 -0.2847 0.9558
vn 0.2982 -0.2847 0.9110
vn 0.6241 -0.2847 0.7276
vn 0.8550 -0.2847 0.4335
vn 0.9558 -0.2847 0.0734
vn 0.9112 -0.2847 -0.2978
vn 0.7279 -0.2847 -0.6238
vn 0.4339 -0.2847 -0.8548
vn 0.0738 -0.2847 -0.9558
vn -0.2974 -0.2847 -0.9113
vn -0.6235 -0.2847 -0.7282
vn -0.8546 -0.2847 -0.4343
vn -0.9557 -0.2847 -0.0743
vn -0.9114 -0.2847 0.2970
vn -0.7284 -0.2847 0.6231
vn -0.4346 -0.2847 0.8544
vn -0.0747 -0.2847 0.9557
vn 0.2966 -0.2847 0.9116
vn 0.6228 -0.2847 0.7287
vn 0.8542 -0.2847 0.4350
vn -0.9032 0.2920 -0.3146
vn -0.4309 -0.2847 0.8563
vn -0.0705 -0.2847 0.9560
vn 0.3006 -0.2847 0.9103
vn 0.6260 -0.2847 0.7260
vn 0.8561 -0.2847 0.4313
vn 0.9560 -0.2847 0.0709
vn 0.9104 -0.2847 -0.3002
vn 0.7263 -0.2847 -0.6257
vn 0.4316 -0.2847 -0.8559
vn 0.0713 -0.2847 -0.9559
vn -0.2998 -0.2847 -0.9105
vn -0.6254 -0.2847 -0.7265
vn -0.8557 -0.2847 -0.4320
vn -0.9559 -0.2847 -0.0718
vn -0.9106 -0.2847 0.2994
vn -0.7268 -0.2847 0.6250
vn -0.4324 -0.2847 0.8556
vn -0.0722 -0.2847 0.9559
vn 0.2990 -0.2847 0.9108
vn 0.6247 -0.2847 0.7271
vn 0.8554 -0.2847 0.4328
vn 0.9559 -0.2847 0.0726
vn 0.9109 -0.2847 -0.2986
vn 0.7273 -0.2847 -0.6244
vn 0.4331 -0.2847 -0.8552
vn 0.0730 -0.2847 -0.9558
vn -0.2982 -0.2847 -0.9110
vn -0.6241 -0.2847 -0.7276
vn -0.8550 -0.2847 -0.4335
vn -0.9558 -0.2847 -0.0734
vn -0.9112 -0.2847 0.2978
vn -0.7279 -0.2847 0.6238
vn -0.4339 -0.2847 0.8548
vn -0.0738 -0.2847 0.9558
vn 0.2974 -0.2847 0.9113
vn 0.6235 -0.2847 0.7282
vn 0.8546 -0.2847 0.4343
vn 0.9557 -0.2847 0.0743
vn 0.9114 -0.2847 -0.2970
vn 0.7284 -0.2847 -0.6231
vn 0.4346 -0.2847 -0.8544
vn 0.0747 -0.2847 -0.9557
vn -0.2966 -0.2847 -0.9116
vn -0.6228 -0.2847 -0.7287
vn -0.8542 -0.2847 -0.4350
vn 0.9032 0.2920 0.3146
vn -0.9549 0.2920 0.0549
vn -0.8612 0.2920 0.4160
vn -0.6365 0.2920 0.7138
vn -0.3150 0.2920 0.9031
vn 0.0544 0.2920 0.9549
vn 0.4156 0.2920 0.8614
vn 0.7136 0.2920 0.6369
vn 0.9029 0.2920 0.3154
vn 0.9549 0.2920 -0.0540
vn 0.8616 0.2920 -0.4152
vn 0.6372 0.2920 -0.7133
vn 0.3158 0.2920 -0.9028
vn -0.0536 0.2920 -0.9549
vn -0.4149 0.2920 -0.8618
vn -0.7130 0.2920 -0.6375
vn -0.9027 0.2920 -0.3162
vn -0.9549 0.2920 0.0532
vn -0.8619 0.2920 0.4145
vn -0.6378 0.2920 0.7127
vn -0.3166 0.2920 0.9025
vn 0.0528 0.2920 0.9550
vn 0.4141 0.2920 0.8621
vn 0.7124 0.2920 0.6381
vn 0.9024 0.2920 0.3170
vn 0.9550 0.2920 -0.0524
vn 0.8623 0.2920 -0.4137
vn 0.6384 0.2920 -0.7122
vn 0.3174 0.2920 -0.9022
vn -0.0519 0.2920 -0.9550
vn -0.4134 0.2920 -0.8625
vn -0.7119 0.2920 -0.6387
vn -0.9021 0.2920 -0.3178
vn -0.9550 0.2920 0.0515
vn -0.8627 0.2920 0.4130
vn -0.6390 0.2920 0.7116
vn -0.3182 0.2920 0.9020
vn 0.0511 0.2920 0.9551
vn 0.4126 0.2920 0.8629
vn 0.7113 0.2920 0.6393
vn 0.9018 0.2920 0.3186
vn 0.9551 0.2920 -0.0507
vn 0.8630 0.2920 -0.4122
vn 0.6397 0.2920 -0.7111
vn 0.3190 0.2920 -0.9017
vn -0.0503 0.2920 -0.9551
vn -0.9032 -0.2920 -0.3146
vn 0.9549 0.2920 -0.0549
vn 0.8612 0.2920 -0.4160
vn 0.6365 0.2920 -0.7138
vn 0.3150 0.2920 -0.9031
vn -0.0544 0.2920 -0.9549
vn -0.4156 0.2920 -0.8614
vn -0.7136 0.2920 -0.6369
vn -0.9029 0.2920 -0.3154
vn -0.9549 0.2920 0.0540
vn -0.8616 0.2920 0.4152
vn -0.6372 0.2920 0.7133
vn -0.3158 0.2920 0.9028
vn 0.0536 0.2920 0.9549
vn 0.4149 0.2920 0.8618
vn 0.7130 0.2920 0.6375
vn 0.9026 0.2920 0.3162
vn 0.9550 0.2920 -0.0532
vn 0.8619 0.2920 -0.4145
vn 0.6378 0.2920 -0.7127
vn 0.3166 0.2920 -0.9025
vn -0.0528 0.2920 -0.9550
vn -0.4141 0.2920 -0.8621
vn -0.7124 0.2920 -0.6381
vn -0.9024 0.2920 -0.3170
vn -0.9550 0.2920 0.0524
vn -0.8623 0.2920 0.4137
vn -0.6384 0.2920 0.7122
vn -0.3174 0.2920 0.9022
vn 0.0519 0.2920 0.9550
vn 0.4133 0.2920 0.8625
vn 0.7119 0.2920 0.6387
vn 0.9021 0.2920 0.3178
vn 0.9550 0.2920 -0.0515
vn 0.8627 0.2920 -0.4130
vn 0.6390 0.2920 -0.7116
vn 0.3182 0.2920 -0.9020
vn -0.0511 0.2920 -0.9551
vn -0.4126 0.2920 -0.8629
vn -0.7113 0.2920 -0.6394
vn -0.9018 0.2919 -0.3185
vn -0.9551 0.2920 0.0507
vn -0.8630 0.2920 0.4122
vn -0.6397 0.2920 0.7111
vn -0.3190 0.2920 0.9017
vn 0.0503 0.2920 0.9551
vn 0.9032 -0.2920 0.3146
vn -0.9549 -0.2920 0.0549
vn -0.8612 -0.2920 0.4160
vn -0.6365 -0.2920 0.7138
vn -0.3150 -0.2920 0.9031
vn 0.0545 -0.2920 0.9549
vn 0.4156 -0.2920 0.8614
vn 0.7135 -0.2920 0.6369
vn 0.9029 -0.2920 0.3154
vn 0.9549 -0.2920 -0.0540
vn 0.8616 -0.2920 -0.4152
vn 0.6372 -0.2920 -0.7133
vn 0.3158 -0.2920 -0.9028
vn -0.0536 -0.2920 -0.9549
vn -0.4149 -0.2920 -0.8618
vn -0.7130 -0.2920 -0.6375
vn -0.9026 -0.2920 -0.3162
vn -0.9549 -0.2920 0.0532
vn -0.8619 -0.2920 0.4145
vn -0.6378 -0.2920 0.7127
vn -0.3166 -0.2920 0.9025
vn 0.0528 -0.2920 0.9550
vn 0.4141 -0.2920 0.8621
vn 0.7124 -0.2920 0.6381
vn 0.9024 -0.2920 0.3170
vn 0.9550 -0.2920 -0.0524
vn 0.8623 -0.2920 -0.4137
vn 0.6384 -0.2920 -0.7122
vn 0.3174 -0.2920 -0.9022
vn -0.0519 -0.2920 -0.9550
vn -0.4134 -0.2920 -0.8625
vn -0.7119 -0.2920 -0.6387
vn -0.9021 -0.2920 -0.3178
vn -0.9550 -0.2920 0.0515
vn -0.8627 -0.2920 0.4130
vn -0.6390 -0.2920 0.7116
vn -0.3182 -0.2920 0.9020
vn 0.0511 -0.2920 0.9551
vn 0.4126 -0.2920 0.8628
vn 0.7113 -0.2920 0.6394
vn 0.9018 -0.2920 0.3186
vn 0.9551 -0.2920 -0.0507
vn 0.8630 -0.2920 -0.4122
vn 0.6397 -0.2920 -0.7110
vn 0.3190 -0.2920 -0.9017
vn -0.0503 -0.2920 -0.9551
vn 0.7257 0.2847 -0.6263
vn 0.9549 -0.2920 -0.0549
vn 0.8612 -0.2920 -0.4160
vn 0.6365 -0.2920 -0.7138
vn 0.3150 -0.2920 -0.9031
vn -0.0544 -0.2920 -0.9549
vn -0.4156 -0.2920 -0.8614
vn -0.7136 -0.2920 -0.6369
vn -0.9029 -0.2920 -0.3154
vn -0.9549 -0.2920 0.0540
vn -0.8616 -0.2920 0.4152
vn -0.6372 -0.2920 0.7133
vn -0.3158 -0.2920 0.9028
vn 0.0536 -0.2920 0.9549
vn 0.4149 -0.2920 0.8618
vn 0.7130 -0.2920 0.6375
vn 0.9026 -0.2920 0.3162
vn 0.9549 -0.2920 -0.0532
vn 0.8619 -0.2920 -0.4145
vn 0.6378 -0.2920 -0.7127
vn 0.3166 -0.2920 -0.9025
vn -0.0528 -0.2920 -0.9550
vn -0.4141 -0.2920 -0.8621
vn -0.7124 -0.2920 -0.6381
vn -0.9024 -0.2920 -0.3170
vn -0.9550 -0.2920 0.0524
vn -0.8623 -0.2920 0.4137
vn -0.6384 -0.2920 0.7122
vn -0.3174 -0.2920 0.9022
vn 0.0519 -0.2920 0.9550
vn 0.4134 -0.2920 0.8625
vn 0.7119 -0.2920 0.6387
vn 0.9021 -0.2920 0.3178
vn 0.9550 -0.2920 -0.0515
vn 0.8627 -0.2920 -0.4130
vn 0.6390 -0.2920 -0.7116
vn 0.3182 -0.2920 -0.9020
vn -0.0511 -0.2920 -0.9551
vn -0.4126 -0.2920 -0.8629
vn -0.7113 -0.2920 -0.6394
vn -0.9018 -0.2920 -0.3186
vn -0.9551 -0.2920 0.0507
vn -0.8630 -0.2920 0.4122
vn -0.6397 -0.2920 0.7110
vn -0.3190 -0.2920 0.9017
vn 0.0503 -0.2920 0.9551
vn -0.0001 1.0000 -0.0001
vn -0.7257 0.2847 0.6263
vn 0.4309 0.2847 -0.8563
vn 0.0705 0.2847 -0.9560
vn -0.3006 0.2847 -0.9103
vn -0.6260 0.2847 -0.7260
vn -0.8561 0.2847 -0.4313
vn -0.9560 0.2847 -0.0709
vn -0.9104 0.2847 0.3002
vn -0.7263 0.2847 0.6257
vn -0.4317 0.2847 0.8559
vn -0.0714 0.2847 0.9559
vn 0.2998 0.2847 0.9105
vn 0.6253 0.2847 0.7266
vn 0.8557 0.2847 0.4320
vn 0.9559 0.2847 0.0718
vn 0.9107 0.2847 -0.2994
vn 0.7268 0.2847 -0.6250
vn 0.4324 0.2847 -0.8555
vn 0.0722 0.2847 -0.9559
vn -0.2990 0.2847 -0.9108
vn -0.6247 0.2847 -0.7271
vn -0.8554 0.2847 -0.4328
vn -0.9559 0.2847 -0.0726
vn -0.9109 0.2847 0.2986
vn -0.7274 0.2847 0.6244
vn -0.4331 0.2847 0.8552
vn -0.0730 0.2847 0.9558
vn 0.2982 0.2847 0.9110
vn 0.6241 0.2847 0.7276
vn 0.8550 0.2847 0.4335
vn 0.9558 0.2847 0.0734
vn 0.9112 0.2847 -0.2978
vn 0.7279 0.2847 -0.6238
vn 0.4339 0.2847 -0.8548
vn 0.0739 0.2847 -0.9558
vn -0.2974 0.2847 -0.9113
vn -0.6234 0.2847 -0.7282
vn -0.8546 0.2847 -0.4343
vn -0.9557 0.2847 -0.0743
vn -0.9114 0.2847 0.2970
vn -0.7285 0.2847 0.6231
vn -0.4346 0.2847 0.8544
vn -0.0747 0.2847 0.9557
vn 0.2966 0.2847 0.9116
vn 0.6228 0.2847 0.7287
vn 0.8542 0.2847 0.4350
vn -0.1604 -0.5159 -0.8415
vn -0.4309 0.2847 0.8563
vn -0.0705 0.2847 0.9560
vn 0.3006 0.2847 0.9103
vn 0.6260 0.2847 0.7260
vn 0.8561 0.2847 0.4313
vn 0.9560 0.2847 0.0709
vn 0.9104 0.2847 -0.3002
vn 0.7263 0.2847 -0.6257
vn 0.4316 0.2847 -0.8559
vn 0.0714 0.2847 -0.9559
vn -0.2998 0.2847 -0.9105
vn -0.6253 0.2847 -0.7265
vn -0.8557 0.2847 -0.4320
vn -0.9559 0.2847 -0.0718
vn -0.9107 0.2847 0.2994
vn -0.7268 0.2847 0.6250
vn -0.4324 0.2847 0.8555
vn -0.0722 0.2847 0.9559
vn 0.2990 0.2847 0.9108
vn 0.6247 0.2847 0.7271
vn 0.8554 0.2847 0.4328
vn 0.9559 0.2847 0.0726
vn 0.9109 0.2847 -0.2986
vn 0.7274 0.2847 -0.6244
vn 0.4331 0.2847 -0.8552
vn 0.0730 0.2847 -0.9558
vn -0.2982 0.2847 -0.9110
vn -0.6241 0.2847 -0.7276
vn -0.8550 0.2847 -0.4335
vn -0.9558 0.2847 -0.0734
vn -0.9112 0.2847 0.2978
vn -0.7279 0.2847 0.6237
vn -0.4339 0.2847 0.8548
vn -0.0739 0.2847 0.9558
vn 0.2974 0.2847 0.9113
vn 0.6234 0.2847 0.7282
vn 0.8546 0.2847 0.4343
vn 0.9557 0.2847 0.0743
vn 0.9114 0.2847 -0.2970
vn 0.7285 0.2847 -0.6231
vn 0.4346 0.2847 -0.8544
vn 0.0747 0.2847 -0.9557
vn -0.2966 0.2847 -0.9116
vn -0.6228 0.2847 -0.7287
vn -0.8542 0.2847 -0.4350
vn -0.1604 0.5159 -0.8415
vn -0.4702 -0.5159 -0.7161
vn -0.7083 -0.5159 -0.4817
vn -0.8388 -0.5159 -0.1741
vn -0.8415 -0.5159 0.1601
vn -0.7163 -0.5159 0.4698
vn -0.4820 -0.5159 0.7081
vn -0.1744 -0.5159 0.8387
vn 0.1597 -0.5159 0.8416
vn 0.4695 -0.5159 0.7165
vn 0.7079 -0.5159 0.4823
vn 0.8386 -0.5159 0.1748
vn 0.8417 -0.5159 -0.1593
vn 0.7167 -0.5159 -0.4692
vn 0.4826 -0.5159 -0.7077
vn 0.1752 -0.5159 -0.8385
vn -0.1590 -0.5159 -0.8417
vn -0.4689 -0.5159 -0.7169
vn -0.7075 -0.5159 -0.4830
vn -0.8384 -0.5159 -0.1755
vn -0.8418 -0.5159 0.1586
vn -0.7171 -0.5159 0.4686
vn -0.4833 -0.5159 0.7073
vn -0.1759 -0.5159 0.8384
vn 0.1582 -0.5159 0.8419
vn 0.4683 -0.5159 0.7173
vn 0.7071 -0.5159 0.4836
vn 0.8383 -0.5159 0.1763
vn 0.8420 -0.5159 -0.1579
vn 0.7175 -0.5159 -0.4680
vn 0.4839 -0.5159 -0.7069
vn 0.1766 -0.5159 -0.8382
vn -0.1575 -0.5159 -0.8420
vn -0.4677 -0.5159 -0.7177
vn -0.7067 -0.5159 -0.4842
vn -0.8381 -0.5159 -0.1770
vn -0.8421 -0.5159 0.1571
vn -0.7179 -0.5159 0.4673
vn -0.4845 -0.5159 0.7064
vn -0.1774 -0.5159 0.8381
vn 0.1567 -0.5159 0.8422
vn 0.4670 -0.5159 0.7181
vn 0.7062 -0.5159 0.4848
vn 0.8380 -0.5159 0.1777
vn 0.8422 -0.5159 -0.1564
vn 0.7183 -0.5159 -0.4667
vn 0.1604 0.5159 0.8415
vn -0.4702 0.5159 -0.7161
vn -0.7084 0.5159 -0.4817
vn -0.8388 0.5159 -0.1741
vn -0.8415 0.5159 0.1601
vn -0.7163 0.5159 0.4698
vn -0.4820 0.5159 0.7081
vn -0.1744 0.5159 0.8387
vn 0.1597 0.5159 0.8416
vn 0.4695 0.5159 0.7165
vn 0.7079 0.5159 0.4823
vn 0.8386 0.5159 0.1748
vn 0.8417 0.5159 -0.1593
vn 0.7167 0.5159 -0.4692
vn 0.4826 0.5159 -0.7077
vn 0.1752 0.5159 -0.8385
vn -0.1590 0.5159 -0.8417
vn -0.4689 0.5159 -0.7169
vn -0.7075 0.5159 -0.4830
vn -0.8385 0.5159 -0.1755
vn -0.8418 0.5159 0.1586
vn -0.7171 0.5159 0.4686
vn -0.4833 0.5159 0.7073
vn -0.1759 0.5159 0.8384
vn 0.1582 0.5159 0.8419
vn 0.4683 0.5159 0.7173
vn 0.7071 0.5159 0.4836
vn 0.8383 0.5159 0.1763
vn 0.8420 0.5159 -0.1579
vn 0.7175 0.5159 -0.4680
vn 0.4839 0.5159 -0.7069
vn 0.1766 0.5159 -0.8382
vn -0.1575 0.5159 -0.8420
vn -0.4677 0.5159 -0.7177
vn -0.7067 0.5159 -0.4842
vn -0.8381 0.5159 -0.1770
vn -0.8421 0.5159 0.1571
vn -0.7179 0.5159 0.4673
vn -0.4845 0.5159 0.7065
vn -0.1774 0.5159 0.8381
vn 0.1568 0.5159 0.8422
vn 0.4671 0.5159 0.7181
vn 0.7062 0.5159 0.4848
vn 0.8380 0.5159 0.1777
vn 0.8422 0.5159 -0.1564
vn 0.7183 0.5159 -0.4667
vn 0.1604 -0.5159 0.8415
vn 0.4702 0.5159 0.7161
vn 0.7083 0.5159 0.4817
vn 0.8388 0.5159 0.1741
vn 0.8415 0.5159 -0.1601
vn 0.7163 0.5159 -0.4698
vn 0.4820 0.5159 -0.7081
vn 0.1744 0.5159 -0.8387
vn -0.1597 0.5159 -0.8416
vn -0.4695 0.5159 -0.7165
vn -0.7079 0.5159 -0.4823
vn -0.8386 0.5159 -0.1748
vn -0.8417 0.5159 0.1593
vn -0.7167 0.5159 0.4692
vn -0.4826 0.5159 0.7077
vn -0.1752 0.5159 0.8385
vn 0.1590 0.5159 0.8417
vn 0.4689 0.5159 0.7169
vn 0.7075 0.5159 0.4830
vn 0.8384 0.5159 0.1755
vn 0.8418 0.5159 -0.1586
vn 0.7171 0.5159 -0.4686
vn 0.4833 0.5159 -0.7073
vn 0.1759 0.5159 -0.8384
vn -0.1582 0.5159 -0.8419
vn -0.4683 0.5159 -0.7173
vn -0.7071 0.5159 -0.4836
vn -0.8383 0.5159 -0.1763
vn -0.8420 0.5159 0.1579
vn -0.7175 0.5159 0.4680
vn -0.4839 0.5159 0.7069
vn -0.1766 0.5159 0.8382
vn 0.1575 0.5159 0.8420
vn 0.4676 0.5159 0.7177
vn 0.7067 0.5159 0.4842
vn 0.8381 0.5159 0.1770
vn 0.8421 0.5159 -0.1571
vn 0.7179 0.5159 -0.4673
vn 0.4845 0.5159 -0.7065
vn 0.1774 0.5159 -0.8381
vn -0.1567 0.5159 -0.8422
vn -0.4671 0.5159 -0.7181
vn -0.7062 0.5159 -0.4848
vn -0.8380 0.5159 -0.1777
vn -0.8422 0.5159 0.1564
vn -0.7183 0.5159 0.4667
vn 0.4702 -0.5159 0.7161
vn 0.7083 -0.5159 0.4817
vn 0.8388 -0.5159 0.1741
vn 0.8415 -0.5159 -0.1601
vn 0.7163 -0.5159 -0.4699
vn 0.4820 -0.5159 -0.7081
vn 0.1744 -0.5159 -0.8387
vn -0.1597 -0.5159 -0.8416
vn -0.4695 -0.5159 -0.7165
vn -0.7079 -0.5159 -0.4823
vn -0.8386 -0.5159 -0.1748
vn -0.8417 -0.5159 0.1593
vn -0.7167 -0.5159 0.4692
vn -0.4826 -0.5159 0.7077
vn -0.1752 -0.5159 0.8385
vn 0.1590 -0.5159 0.8417
vn 0.4689 -0.5159 0.7169
vn 0.7075 -0.5159 0.4830
vn 0.8384 -0.5159 0.1755
vn 0.8418 -0.5159 -0.1586
vn 0.7171 -0.5159 -0.4686
vn 0.4833 -0.5159 -0.7073
vn 0.1759 -0.5159 -0.8384
vn -0.1582 -0.5159 -0.8419
vn -0.4683 -0.5159 -0.7173
vn -0.7071 -0.5159 -0.4836
vn -0.8383 -0.5159 -0.1763
vn -0.8420 -0.5159 0.1579
vn -0.7175 -0.5159 0.4680
vn -0.4839 -0.5159 0.7069
vn -0.1767 -0.5159 0.8382
vn 0.1575 -0.5159 0.8420
vn 0.4676 -0.5159 0.7177
vn 0.7067 -0.5159 0.4842
vn 0.8381 -0.5159 0.1770
vn 0.8421 -0.5159 -0.1571
vn 0.7179 -0.5159 -0.4673
vn 0.4845 -0.5159 -0.7065
vn 0.1773 -0.5159 -0.8381
vn -0.1568 -0.5159 -0.8422
vn -0.4670 -0.5159 -0.7181
vn -0.7062 -0.5159 -0.4848
vn -0.8380 -0.5159 -0.1777
vn -0.8422 -0.5159 0.1564
vn -0.7183 -0.5159 0.4667
vn 0.7257 -0.2847 -0.6263
vn 0.3605 -0.3357 0.8703
vn -0.8703 -0.3356 -0.3605
vn 0.3605 -0.3357 -0.8703
vn -0.3605 -0.3357 -0.8703
vn 0.8703 -0.3357 -0.3605
vn -0.3605 -0.3357 0.8703
vn 0.8703 -0.3357 0.3605
vn -0.8703 -0.3357 0.3605
vn -0.0001 1.0000 0.0001
vn 0.0001 1.0000 0.0001
vn 0.0001 1.0000 -0.0001
vn -0.9239 -0.0000 0.3827
vn 0.9239 -0.0000 0.3827
vn -0.3827 -0.0000 0.9239
vn 0.9239 -0.0000 -0.3827
vn -0.3827 -0.0000 -0.9239
vn 0.3827 -0.0000 -0.9239
vn -0.9239 -0.0000 -0.3827
vn 0.3827 -0.0000 0.9239
vn -0.7606 -0.5677 0.3150
vn 0.7606 -0.5677 0.3150
vn -0.3150 -0.5677 0.7606
vn 0.7606 -0.5677 -0.3150
vn -0.3150 -0.5677 -0.7606
vn 0.3150 -0.5677 -0.7606
vn -0.7606 -0.5677 -0.3150
vn 0.3150 -0.5677 0.7606
vn 0.2322 -0.7949 0.5605
vn -0.5605 -0.7949 -0.2322
vn 0.2322 -0.7949 -0.5605
vn -0.2322 -0.7949 -0.5605
vn 0.5605 -0.7949 -0.2322
vn -0.2322 -0.7949 0.5605
vn 0.5605 -0.7949 0.2322
vn -0.5605 -0.7949 0.2322
vn -0.6512 -0.7093 0.2697
vn 0.6512 -0.7093 0.2697
vn -0.2698 -0.7093 0.6512
vn 0.6512 -0.7093 -0.2697
vn -0.2697 -0.7093 -0.6512
vn 0.2698 -0.7093 -0.6512
vn -0.6512 -0.7093 -0.2697
vn 0.2698 -0.7093 0.6512
vn -0.3322 -0.6483 0.6851
vn 0.3482 0.6027 -0.7180
vn 0.9221 -0.3812 -0.0665
vn -0.5225 0.3642 -0.7709
vn -0.5043 -0.4381 -0.7441
vn 0.9510 0.3014 -0.0686
vn 0.3322 -0.6483 -0.6851
vn -0.3482 0.6027 0.7180
vn -0.9221 -0.3812 0.0665
vn 0.5225 0.3642 0.7709
vn 0.5043 -0.4381 0.7441
vn -0.9510 0.3014 0.0686
vn 0.1576 -0.5234 0.8374
vn -0.9436 -0.0050 -0.3312
vn 0.9398 0.0893 0.3299
vn -0.1516 0.5729 -0.8055
vn 0.6080 0.5981 -0.5222
vn -0.6327 -0.5518 0.5434
vn -0.9398 0.0893 -0.3299
vn 0.1516 0.5729 0.8055
vn -0.6080 0.5981 0.5222
vn 0.6327 -0.5518 -0.5434
vn -0.1576 -0.5234 -0.8374
vn 0.9435 -0.0050 0.3312
vn 0.3337 -0.4897 0.8055
vn -0.8055 -0.4897 -0.3337
vn 0.3336 -0.4897 -0.8055
vn -0.3336 -0.4897 -0.8055
vn 0.8055 -0.4897 -0.3337
vn -0.3336 -0.4897 0.8055
vn 0.8055 -0.4897 0.3337
vn -0.8055 -0.4897 0.3337
vt 0.531007 0.492304
vt 0.446943 0.492304
vt 0.471565 0.432861
vt 0.531007 0.408239
vt 0.531007 0.576368
vt 0.471565 0.551746
vt 0.590450 0.551746
vt 0.615072 0.492304
vt 0.590450 0.432861
vt 0.505618 0.143643
vt 0.520230 0.100002
vt 0.547636 0.117242
vt 0.545421 0.135322
vt 0.553203 0.069745
vt 0.595199 0.059999
vt 0.594768 0.105413
vt 0.562338 0.107403
vt 0.512147 0.191367
vt 0.562141 0.168235
vt 0.446943 0.135055
vt 0.472586 0.067820
vt 0.595858 0.001674
vt 0.665946 0.021183
vt 0.636877 0.070596
vt 0.717207 0.070891
vt 0.740281 0.137219
vt 0.683007 0.144261
vt 0.668736 0.101238
vt 0.734109 0.207372
vt 0.675968 0.191061
vt 0.525313 0.019502
vt 0.452172 0.207242
vt 0.627202 0.107855
vt 0.643539 0.135652
vt 0.641553 0.117857
vt 0.627007 0.168066
vt 0.568519 0.145568
vt 0.572920 0.158969
vt 0.607202 0.121896
vt 0.594671 0.117480
vt 0.616419 0.158966
vt 0.620741 0.145803
vt 0.582088 0.121683
vt 0.635836 0.128841
vt 0.635146 0.121571
vt 0.560175 0.117193
vt 0.553962 0.121180
vt 0.553325 0.128563
vt 0.629136 0.117534
vt 0.621066 0.129876
vt 0.629200 0.133881
vt 0.616989 0.132131
vt 0.568100 0.129311
vt 0.567740 0.120303
vt 0.572065 0.131683
vt 0.560144 0.133647
vt 0.621579 0.120858
vt 0.332285 0.030652
vt 0.331929 0.006601
vt 0.340053 0.012925
vt 0.339759 0.036012
vt 0.429887 0.030694
vt 0.430576 0.050899
vt 0.423667 0.046257
vt 0.423000 0.026144
vt 0.431135 0.071208
vt 0.424216 0.066515
vt 0.431642 0.091562
vt 0.424718 0.086847
vt 0.432127 0.111943
vt 0.425198 0.107216
vt 0.432598 0.132345
vt 0.425665 0.127609
vt 0.433060 0.152766
vt 0.426122 0.148022
vt 0.433512 0.173206
vt 0.426570 0.168455
vt 0.433955 0.193665
vt 0.427009 0.188906
vt 0.434389 0.214142
vt 0.427439 0.209376
vt 0.434815 0.234638
vt 0.427861 0.229865
vt 0.435231 0.255153
vt 0.428273 0.250372
vt 0.435639 0.275686
vt 0.428676 0.270898
vt 0.436037 0.296239
vt 0.429071 0.291442
vt 0.436427 0.316809
vt 0.429457 0.312006
vt 0.436808 0.337398
vt 0.429833 0.332588
vt 0.437179 0.358006
vt 0.430201 0.353188
vt 0.437542 0.378634
vt 0.430560 0.373808
vt 0.437896 0.399279
vt 0.430909 0.394446
vt 0.438240 0.419943
vt 0.431250 0.415102
vt 0.438576 0.440626
vt 0.431581 0.435778
vt 0.438903 0.461328
vt 0.431904 0.456472
vt 0.439220 0.482048
vt 0.432217 0.477184
vt 0.439528 0.502787
vt 0.432521 0.497916
vt 0.439828 0.523545
vt 0.432817 0.518666
vt 0.440118 0.544321
vt 0.433102 0.539435
vt 0.440398 0.565116
vt 0.433379 0.560222
vt 0.440670 0.585930
vt 0.433647 0.581029
vt 0.440933 0.606763
vt 0.433905 0.601854
vt 0.441186 0.627614
vt 0.434155 0.622698
vt 0.441430 0.648484
vt 0.434395 0.643561
vt 0.441665 0.669373
vt 0.434625 0.664442
vt 0.441890 0.690280
vt 0.434847 0.685341
vt 0.442106 0.711207
vt 0.435059 0.706260
vt 0.442313 0.732152
vt 0.435262 0.727198
vt 0.442511 0.753115
vt 0.435455 0.748154
vt 0.442699 0.774098
vt 0.435639 0.769128
vt 0.442878 0.795099
vt 0.435814 0.790122
vt 0.443047 0.816119
vt 0.435979 0.811134
vt 0.443206 0.837157
vt 0.436135 0.832164
vt 0.443353 0.858213
vt 0.436280 0.853212
vt 0.443484 0.879283
vt 0.436412 0.874272
vt 0.443581 0.900359
vt 0.436522 0.895335
vt 0.443595 0.921427
vt 0.436578 0.916362
vt 0.443277 0.942375
vt 0.436506 0.937204
vt 0.441591 0.962416
vt 0.435741 0.956790
vt 0.324641 0.025420
vt 0.322922 0.001674
vt 0.339821 0.058125
vt 0.332414 0.052871
vt 0.339876 0.080030
vt 0.332515 0.074807
vt 0.339937 0.101832
vt 0.332602 0.096632
vt 0.340009 0.123560
vt 0.332695 0.118381
vt 0.340095 0.145221
vt 0.332800 0.140061
vt 0.340193 0.166817
vt 0.332917 0.161677
vt 0.340304 0.188349
vt 0.333046 0.183229
vt 0.340428 0.209818
vt 0.333188 0.204717
vt 0.340564 0.231223
vt 0.333342 0.226141
vt 0.340712 0.252565
vt 0.333509 0.247503
vt 0.340873 0.273844
vt 0.333688 0.268801
vt 0.341046 0.295061
vt 0.333879 0.290037
vt 0.341231 0.316215
vt 0.334082 0.311210
vt 0.341428 0.337306
vt 0.334297 0.332320
vt 0.341638 0.358336
vt 0.334525 0.353368
vt 0.341859 0.379302
vt 0.334764 0.374355
vt 0.342092 0.400207
vt 0.335015 0.395278
vt 0.342337 0.421051
vt 0.335278 0.416140
vt 0.342594 0.441831
vt 0.335553 0.436941
vt 0.342863 0.462552
vt 0.335839 0.457679
vt 0.343143 0.483210
vt 0.336137 0.478356
vt 0.343434 0.503807
vt 0.336447 0.498972
vt 0.343738 0.524343
vt 0.336768 0.519527
vt 0.344052 0.544819
vt 0.337100 0.540020
vt 0.344378 0.565234
vt 0.337444 0.560453
vt 0.344715 0.585588
vt 0.337798 0.580826
vt 0.345064 0.605881
vt 0.338164 0.601138
vt 0.345423 0.626115
vt 0.338541 0.621389
vt 0.345794 0.646288
vt 0.338929 0.641581
vt 0.346175 0.666401
vt 0.339328 0.661712
vt 0.346568 0.686454
vt 0.339738 0.681783
vt 0.346971 0.706448
vt 0.340159 0.701795
vt 0.347385 0.726382
vt 0.340591 0.721747
vt 0.347810 0.746257
vt 0.341033 0.741639
vt 0.348246 0.766072
vt 0.341486 0.761473
vt 0.348692 0.785829
vt 0.341950 0.781247
vt 0.349149 0.805526
vt 0.342424 0.800962
vt 0.349616 0.825165
vt 0.342908 0.820618
vt 0.350093 0.844745
vt 0.343403 0.840215
vt 0.350581 0.864265
vt 0.343908 0.859754
vt 0.351081 0.883727
vt 0.344425 0.879233
vt 0.351593 0.903126
vt 0.344954 0.898653
vt 0.352139 0.922464
vt 0.345502 0.918010
vt 0.352710 0.941745
vt 0.346132 0.937283
vt 0.352459 0.961012
vt 0.346392 0.955964
vt 0.416161 0.021679
vt 0.414627 0.001674
vt 0.422057 0.005652
vt 0.324959 0.047671
vt 0.325112 0.069621
vt 0.325229 0.091464
vt 0.325344 0.113232
vt 0.325468 0.134932
vt 0.325603 0.156567
vt 0.325751 0.178139
vt 0.325911 0.199646
vt 0.326084 0.221090
vt 0.326269 0.242471
vt 0.326466 0.263788
vt 0.326676 0.285043
vt 0.326897 0.306235
vt 0.327131 0.327364
vt 0.327376 0.348431
vt 0.327634 0.369436
vt 0.327903 0.390378
vt 0.328184 0.411259
vt 0.328477 0.432078
vt 0.328781 0.452835
vt 0.329097 0.473531
vt 0.329424 0.494165
vt 0.329763 0.514738
vt 0.330113 0.535251
vt 0.330475 0.555702
vt 0.330847 0.576093
vt 0.331231 0.596423
vt 0.331626 0.616692
vt 0.332031 0.636901
vt 0.332448 0.657050
vt 0.332876 0.677140
vt 0.333314 0.697169
vt 0.333763 0.717140
vt 0.334223 0.737049
vt 0.334693 0.756900
vt 0.335174 0.776692
vt 0.335666 0.796425
vt 0.336167 0.816099
vt 0.336680 0.835714
vt 0.337202 0.855270
vt 0.337736 0.874767
vt 0.338281 0.894206
vt 0.338844 0.913585
vt 0.339445 0.932887
vt 0.340178 0.951715
vt 0.390691 0.027446
vt 0.391299 0.008298
vt 0.399045 0.005841
vt 0.399245 0.024241
vt 0.416732 0.041652
vt 0.417252 0.061850
vt 0.417741 0.082156
vt 0.418214 0.102511
vt 0.418676 0.122895
vt 0.419128 0.143300
vt 0.419572 0.163725
vt 0.420007 0.184169
vt 0.420433 0.204631
vt 0.420850 0.225112
vt 0.421258 0.245613
vt 0.421658 0.266131
vt 0.422048 0.286668
vt 0.422430 0.307224
vt 0.422802 0.327798
vt 0.423166 0.348392
vt 0.423520 0.369003
vt 0.423865 0.389634
vt 0.424202 0.410283
vt 0.424529 0.430951
vt 0.424848 0.451638
vt 0.425157 0.472343
vt 0.425457 0.493067
vt 0.425748 0.513810
vt 0.426030 0.534571
vt 0.426303 0.555351
vt 0.426566 0.576149
vt 0.426820 0.596967
vt 0.427065 0.617804
vt 0.427301 0.638658
vt 0.427528 0.659532
vt 0.427745 0.680424
vt 0.427953 0.701335
vt 0.428152 0.722265
vt 0.428341 0.743214
vt 0.428522 0.764180
vt 0.428692 0.785167
vt 0.428853 0.806171
vt 0.429005 0.827194
vt 0.429147 0.848234
vt 0.429279 0.869287
vt 0.429397 0.890342
vt 0.429489 0.911361
vt 0.429516 0.932202
vt 0.429553 0.952043
vt 0.349270 0.037624
vt 0.349716 0.015722
vt 0.358998 0.012923
vt 0.358783 0.034083
vt 0.399486 0.044115
vt 0.390834 0.047565
vt 0.399868 0.064327
vt 0.391196 0.067849
vt 0.400301 0.084638
vt 0.391618 0.088182
vt 0.400746 0.104991
vt 0.392052 0.108542
vt 0.401187 0.125370
vt 0.392484 0.128922
vt 0.401622 0.145770
vt 0.392909 0.149322
vt 0.402049 0.166190
vt 0.393326 0.169741
vt 0.402466 0.186628
vt 0.393735 0.190179
vt 0.402875 0.207085
vt 0.394134 0.210634
vt 0.403276 0.227560
vt 0.394525 0.231109
vt 0.403667 0.248054
vt 0.394907 0.251603
vt 0.404049 0.268567
vt 0.395280 0.272115
vt 0.404423 0.289099
vt 0.395643 0.292645
vt 0.404787 0.309648
vt 0.395999 0.313194
vt 0.405143 0.330217
vt 0.396345 0.333762
vt 0.405489 0.350805
vt 0.396682 0.354349
vt 0.405827 0.371411
vt 0.397010 0.374954
vt 0.406155 0.392035
vt 0.397329 0.395578
vt 0.406475 0.412678
vt 0.397638 0.416221
vt 0.406785 0.433340
vt 0.397939 0.436881
vt 0.407086 0.454021
vt 0.398231 0.457562
vt 0.407379 0.474720
vt 0.398514 0.478260
vt 0.407662 0.495438
vt 0.398787 0.498977
vt 0.407936 0.516175
vt 0.399052 0.519713
vt 0.408201 0.536931
vt 0.399307 0.540467
vt 0.408456 0.557704
vt 0.399553 0.561240
vt 0.408703 0.578497
vt 0.399790 0.582032
vt 0.408940 0.599309
vt 0.400018 0.602843
vt 0.409168 0.620139
vt 0.400236 0.623672
vt 0.409387 0.640988
vt 0.400446 0.644520
vt 0.409596 0.661856
vt 0.400646 0.665387
vt 0.409797 0.682742
vt 0.400836 0.686272
vt 0.409988 0.703647
vt 0.401018 0.707177
vt 0.410169 0.724571
vt 0.401190 0.728099
vt 0.410342 0.745513
vt 0.401353 0.749041
vt 0.410505 0.766474
vt 0.401506 0.770000
vt 0.410658 0.787453
vt 0.401650 0.790979
vt 0.410803 0.808452
vt 0.401785 0.811977
vt 0.410938 0.829469
vt 0.401911 0.832993
vt 0.411066 0.850502
vt 0.402030 0.854027
vt 0.411187 0.871550
vt 0.402146 0.875077
vt 0.411310 0.892600
vt 0.402271 0.896135
vt 0.411456 0.913621
vt 0.402446 0.917185
vt 0.411693 0.934542
vt 0.402801 0.938207
vt 0.412439 0.955568
vt 0.403402 0.959458
vt 0.367966 0.008720
vt 0.368336 0.030402
vt 0.358686 0.056037
vt 0.349239 0.059632
vt 0.358642 0.077914
vt 0.349247 0.081514
vt 0.358633 0.099706
vt 0.349275 0.103304
vt 0.358646 0.121427
vt 0.349320 0.125021
vt 0.358674 0.143082
vt 0.349378 0.146672
vt 0.358716 0.164673
vt 0.349450 0.168258
vt 0.358772 0.186200
vt 0.349534 0.189780
vt 0.358839 0.207664
vt 0.349632 0.211239
vt 0.358920 0.229065
vt 0.349741 0.232635
vt 0.359013 0.250402
vt 0.349864 0.253967
vt 0.359118 0.271677
vt 0.349998 0.275237
vt 0.359236 0.292889
vt 0.350145 0.296444
vt 0.359367 0.314039
vt 0.350304 0.317588
vt 0.359509 0.335126
vt 0.350476 0.338670
vt 0.359664 0.356150
vt 0.350659 0.359690
vt 0.359831 0.377113
vt 0.350855 0.380647
vt 0.360010 0.398013
vt 0.351062 0.401543
vt 0.360201 0.418852
vt 0.351282 0.422376
vt 0.360403 0.439630
vt 0.351513 0.443149
vt 0.360618 0.460345
vt 0.351756 0.463860
vt 0.360844 0.481000
vt 0.352010 0.484509
vt 0.361082 0.501593
vt 0.352277 0.505097
vt 0.361332 0.522125
vt 0.352554 0.525624
vt 0.361593 0.542597
vt 0.352844 0.546091
vt 0.361866 0.563007
vt 0.353144 0.566496
vt 0.362150 0.583357
vt 0.353456 0.586841
vt 0.362445 0.603647
vt 0.353779 0.607126
vt 0.362752 0.623877
vt 0.354114 0.627350
vt 0.363070 0.644046
vt 0.354459 0.647515
vt 0.363399 0.664156
vt 0.354816 0.667619
vt 0.363739 0.684205
vt 0.355184 0.687664
vt 0.364090 0.704195
vt 0.355562 0.707648
vt 0.364452 0.724126
vt 0.355952 0.727574
vt 0.364825 0.743997
vt 0.356352 0.747440
vt 0.365209 0.763809
vt 0.356763 0.767247
vt 0.365603 0.783562
vt 0.357184 0.786994
vt 0.366008 0.803256
vt 0.357616 0.806683
vt 0.366424 0.822891
vt 0.358059 0.826313
vt 0.366850 0.842467
vt 0.358512 0.845884
vt 0.367286 0.861985
vt 0.358976 0.865397
vt 0.367733 0.881444
vt 0.359450 0.884849
vt 0.368190 0.900840
vt 0.359938 0.904240
vt 0.368663 0.920171
vt 0.360452 0.923572
vt 0.369170 0.939466
vt 0.360993 0.942908
vt 0.369898 0.959254
vt 0.361072 0.962815
vt 0.475379 0.376456
vt 0.446943 0.307806
vt 0.544029 0.307806
vt 0.544029 0.404892
vt 0.406347 0.001952
vt 0.407676 0.020771
vt 0.368170 0.052400
vt 0.368072 0.074267
vt 0.368026 0.096056
vt 0.368007 0.117779
vt 0.368005 0.139439
vt 0.368018 0.161035
vt 0.368043 0.182567
vt 0.368082 0.204036
vt 0.368133 0.225441
vt 0.368196 0.246785
vt 0.368273 0.268064
vt 0.368362 0.289281
vt 0.368463 0.310436
vt 0.368576 0.331528
vt 0.368702 0.352558
vt 0.368840 0.373526
vt 0.368990 0.394431
vt 0.369153 0.415276
vt 0.369327 0.436058
vt 0.369513 0.456779
vt 0.369711 0.477439
vt 0.369921 0.498037
vt 0.370142 0.518575
vt 0.370375 0.539052
vt 0.370620 0.559468
vt 0.370876 0.579823
vt 0.371143 0.600118
vt 0.371422 0.620353
vt 0.371712 0.640527
vt 0.372013 0.660642
vt 0.372326 0.680697
vt 0.372649 0.700692
vt 0.372984 0.720628
vt 0.373329 0.740504
vt 0.373686 0.760322
vt 0.374053 0.780080
vt 0.374431 0.799779
vt 0.374819 0.819420
vt 0.375218 0.839002
vt 0.375628 0.858525
vt 0.376047 0.877989
vt 0.376474 0.897393
vt 0.376906 0.916728
vt 0.377362 0.935951
vt 0.378126 0.955041
vt 0.382083 0.025902
vt 0.383287 0.005630
vt 0.408072 0.040582
vt 0.408509 0.060746
vt 0.408965 0.081040
vt 0.409423 0.101388
vt 0.409875 0.121766
vt 0.410320 0.142166
vt 0.410756 0.162586
vt 0.411183 0.183025
vt 0.411602 0.203482
vt 0.412012 0.223958
vt 0.412412 0.244453
vt 0.412804 0.264967
vt 0.413187 0.285499
vt 0.413561 0.306050
vt 0.413926 0.326619
vt 0.414282 0.347207
vt 0.414629 0.367814
vt 0.414967 0.388440
vt 0.415296 0.409084
vt 0.415616 0.429746
vt 0.415927 0.450428
vt 0.416229 0.471127
vt 0.416522 0.491847
vt 0.416805 0.512584
vt 0.417079 0.533340
vt 0.417345 0.554115
vt 0.417601 0.574909
vt 0.417848 0.595721
vt 0.418085 0.616552
vt 0.418314 0.637402
vt 0.418533 0.658270
vt 0.418743 0.679157
vt 0.418943 0.700063
vt 0.419135 0.720988
vt 0.419317 0.741931
vt 0.419489 0.762892
vt 0.419652 0.783873
vt 0.419806 0.804873
vt 0.419951 0.825890
vt 0.420087 0.846925
vt 0.420214 0.867973
vt 0.420335 0.889024
vt 0.420453 0.910042
vt 0.420587 0.930917
vt 0.420972 0.951226
vt 0.314931 0.024420
vt 0.312711 0.002150
vt 0.382142 0.046287
vt 0.382484 0.066636
vt 0.382895 0.086985
vt 0.383322 0.107346
vt 0.383746 0.127724
vt 0.384164 0.148119
vt 0.384574 0.168533
vt 0.384975 0.188965
vt 0.385367 0.209416
vt 0.385750 0.229886
vt 0.386125 0.250374
vt 0.386490 0.270881
vt 0.386847 0.291407
vt 0.387195 0.311950
vt 0.387533 0.332514
vt 0.387863 0.353095
vt 0.388184 0.373695
vt 0.388495 0.394314
vt 0.388798 0.414951
vt 0.389091 0.435607
vt 0.389376 0.456282
vt 0.389651 0.476975
vt 0.389917 0.497687
vt 0.390174 0.518418
vt 0.390422 0.539167
vt 0.390661 0.559935
vt 0.390891 0.580721
vt 0.391111 0.601527
vt 0.391322 0.622352
vt 0.391524 0.643194
vt 0.391717 0.664056
vt 0.391900 0.684935
vt 0.392074 0.705835
vt 0.392239 0.726752
vt 0.392394 0.747688
vt 0.392540 0.768643
vt 0.392677 0.789616
vt 0.392804 0.810609
vt 0.392923 0.831620
vt 0.393034 0.852651
vt 0.393143 0.873701
vt 0.393261 0.894772
vt 0.393430 0.915864
vt 0.393747 0.936978
vt 0.394301 0.958219
vt 0.315452 0.046350
vt 0.315651 0.068243
vt 0.315799 0.090082
vt 0.315942 0.111856
vt 0.316094 0.133565
vt 0.316256 0.155209
vt 0.316431 0.176790
vt 0.316618 0.198307
vt 0.316817 0.219760
vt 0.317029 0.241150
vt 0.317252 0.262477
vt 0.317488 0.283741
vt 0.317736 0.304943
vt 0.317996 0.326082
vt 0.318268 0.347158
vt 0.318551 0.368172
vt 0.318846 0.389123
vt 0.319153 0.410013
vt 0.319472 0.430841
vt 0.319802 0.451607
vt 0.320144 0.472312
vt 0.320497 0.492956
vt 0.320861 0.513537
vt 0.321237 0.534059
vt 0.321624 0.554519
vt 0.322022 0.574918
vt 0.322431 0.595256
vt 0.322851 0.615535
vt 0.323282 0.635753
vt 0.323724 0.655911
vt 0.324177 0.676009
vt 0.324641 0.696047
vt 0.325115 0.716026
vt 0.325599 0.735945
vt 0.326095 0.755804
vt 0.326601 0.775603
vt 0.327117 0.795345
vt 0.327643 0.815027
vt 0.328180 0.834650
vt 0.328727 0.854215
vt 0.329285 0.873721
vt 0.329855 0.893170
vt 0.330439 0.912563
vt 0.331051 0.931911
vt 0.331815 0.951276
vt 0.428996 0.010707
vt 0.156717 0.899161
vt 0.208580 0.889699
vt 0.210362 0.894573
vt 0.156803 0.904364
vt 0.022954 0.823651
vt 0.057272 0.865079
vt 0.053953 0.869098
vt 0.018133 0.826224
vt 0.288633 0.822401
vt 0.303837 0.768519
vt 0.309363 0.769243
vt 0.293347 0.824858
vt 0.007278 0.769087
vt 0.001674 0.769835
vt 0.254736 0.863741
vt 0.258128 0.867745
vt 0.104099 0.890918
vt 0.102373 0.895964
vt 0.544029 0.210720
vt 0.475378 0.239155
vt 0.641115 0.307806
vt 0.612679 0.239155
vt 0.612679 0.376456
vt 0.130596 0.689188
vt 0.143287 0.689737
vt 0.137394 0.781660
vt 0.119887 0.777554
vt 0.168806 0.689767
vt 0.181456 0.689328
vt 0.191947 0.777172
vt 0.174405 0.781598
vt 0.156047 0.689975
vt 0.155925 0.784382
vt 0.193922 0.688622
vt 0.206346 0.769019
vt 0.105521 0.687499
vt 0.118099 0.688455
vt 0.105456 0.769367
vt 0.094824 0.761160
vt 0.206462 0.687704
vt 0.216930 0.760851
vt 0.070920 0.848523
vt 0.111174 0.870476
vt 0.201469 0.869944
vt 0.241117 0.847529
vt 0.156448 0.877847
vt 0.269736 0.812857
vt 0.029897 0.768481
vt 0.041841 0.813701
vt 0.281399 0.767891
vt 0.156244 0.847771
vt 0.190736 0.840555
vt 0.066920 0.799847
vt 0.089117 0.825500
vt 0.244778 0.799227
vt 0.253468 0.769994
vt 0.058052 0.770443
vt 0.222893 0.824859
vt 0.121583 0.840937
vt 0.107072 0.801717
vt 0.129375 0.811580
vt 0.182688 0.811338
vt 0.204877 0.801280
vt 0.156064 0.816462
vt 0.222683 0.786348
vt 0.079126 0.768454
vt 0.089102 0.786801
vt 0.232545 0.768071
vt 0.350804 0.977154
vt 0.359023 0.980601
vt 0.365103 0.996696
vt 0.356654 0.998172
vt 0.328425 0.968957
vt 0.336750 0.967337
vt 0.342254 0.987318
vt 0.333513 0.983910
vt 0.449882 0.595100
vt 0.446943 0.586541
vt 0.452885 0.579716
vt 0.461767 0.581450
vt 0.464706 0.590009
vt 0.458764 0.596833
vt 0.457181 0.617960
vt 0.448636 0.614982
vt 0.446943 0.606092
vt 0.453795 0.600181
vt 0.462340 0.603160
vt 0.464033 0.612049
vt 0.432611 0.971753
vt 0.438004 0.978121
vt 0.443013 0.998326
vt 0.435271 0.993944
vt 0.344631 0.970931
vt 0.348712 0.994012
vt 0.401941 0.976949
vt 0.410264 0.974310
vt 0.413429 0.987186
vt 0.407127 0.993010
vt 0.367593 0.977832
vt 0.374203 0.972550
vt 0.378735 0.986610
vt 0.371125 0.990567
vt 0.394372 0.973594
vt 0.398625 0.994001
vt 0.416932 0.968990
vt 0.425144 0.967711
vt 0.429471 0.987228
vt 0.421256 0.983477
vt 0.156263 0.001690
vt 0.168929 0.001685
vt 0.168990 0.116963
vt 0.156335 0.116970
vt 0.169032 0.232074
vt 0.156404 0.232078
vt 0.169019 0.346868
vt 0.156434 0.346865
vt 0.168916 0.461193
vt 0.156390 0.461180
vt 0.168719 0.574992
vt 0.156245 0.574979
vt 0.118262 0.001712
vt 0.130928 0.001699
vt 0.131025 0.116989
vt 0.118369 0.117003
vt 0.131148 0.232096
vt 0.118520 0.232112
vt 0.131267 0.346874
vt 0.118684 0.346888
vt 0.131343 0.461170
vt 0.118822 0.461177
vt 0.131304 0.574904
vt 0.118847 0.574862
vt 0.194260 0.001678
vt 0.206924 0.001674
vt 0.206957 0.116955
vt 0.194301 0.116956
vt 0.206922 0.232086
vt 0.194291 0.232079
vt 0.206780 0.346912
vt 0.194192 0.346893
vt 0.206498 0.461276
vt 0.193970 0.461242
vt 0.206092 0.575000
vt 0.193650 0.575005
vt 0.105596 0.001724
vt 0.105713 0.117017
vt 0.105893 0.232131
vt 0.106102 0.346907
vt 0.106303 0.461189
vt 0.106410 0.574813
vt 0.181595 0.001681
vt 0.181645 0.116958
vt 0.181661 0.232074
vt 0.181605 0.346877
vt 0.181442 0.461214
vt 0.181189 0.575002
vt 0.143596 0.001694
vt 0.143680 0.116978
vt 0.143776 0.232085
vt 0.143850 0.346867
vt 0.143866 0.461172
vt 0.143771 0.574946
s 0
f 9/1/1 5/2/1 1/3/1 7/4/1
f 8/5/1 3/6/1 5/2/1 9/1/1
f 4/7/1 8/5/1 9/1/1 6/8/1
f 6/8/1 9/1/1 7/4/1 2/9/1
f 12/10/2 17/11/2 37/12/2 38/13/2
f 16/14/3 15/15/3 31/16/3 36/17/3
f 13/18/4 12/10/4 38/13/4 29/19/4
f 17/11/5 16/14/5 36/17/5 37/12/5
f 5/20/6 3/21/6 17/11/6 12/10/6
f 4/22/7 6/23/7 14/24/7 15/15/7
f 2/25/8 7/26/8 10/27/8 11/28/8
f 7/26/9 1/29/9 13/30/9 10/27/9
f 6/23/10 2/25/10 11/28/10 14/24/10
f 3/21/11 8/31/11 16/14/11 17/11/11
f 1/32/12 5/20/12 12/10/12 13/18/12
f 8/31/13 4/22/13 15/15/13 16/14/13
f 15/15/14 14/24/14 39/33/14 31/16/14
f 11/28/15 10/27/15 34/34/15 35/35/15
f 10/27/16 13/30/16 29/36/16 34/34/16
f 14/24/17 11/28/17 35/35/17 39/33/17
f 44/37/18 21/38/18 29/19/18 38/13/18
f 45/39/18 23/40/18 31/16/18 39/33/18
f 21/41/18 40/42/18 34/34/18 29/36/18
f 23/40/18 42/43/18 36/17/18 31/16/18
f 26/44/18 27/45/18 35/35/18 34/34/18
f 32/46/18 33/47/18 37/12/18 36/17/18
f 33/47/18 28/48/18 38/13/18 37/12/18
f 27/45/18 30/49/18 39/33/18 35/35/18
f 19/50/18 18/51/18 40/42/18 41/52/18
f 25/53/18 24/54/18 42/43/18 43/55/18
f 20/56/19 25/53/19 43/55/19 44/37/19
f 22/57/18 19/50/18 41/52/18 45/39/18
f 18/51/18 26/44/18 34/34/18 40/42/18
f 28/48/18 20/56/18 44/37/18 38/13/18
f 30/49/18 22/57/18 45/39/18 39/33/18
f 24/54/18 32/46/18 36/17/18 42/43/18
f 57/58/20 33/59/20 32/60/20 56/61/20
f 52/62/21 64/63/21 65/64/21 53/65/21
f 64/63/22 76/66/22 77/67/22 65/64/22
f 76/66/23 88/68/23 89/69/23 77/67/23
f 88/68/24 100/70/24 101/71/24 89/69/24
f 100/70/25 112/72/25 113/73/25 101/71/25
f 112/72/26 124/74/26 125/75/26 113/73/26
f 124/74/27 136/76/27 137/77/27 125/75/27
f 136/76/28 148/78/28 149/79/28 137/77/28
f 148/78/29 160/80/29 161/81/29 149/79/29
f 160/80/30 172/82/30 173/83/30 161/81/30
f 172/82/31 184/84/31 185/85/31 173/83/31
f 184/84/32 196/86/32 197/87/32 185/85/32
f 196/86/33 208/88/33 209/89/33 197/87/33
f 208/88/34 220/90/34 221/91/34 209/89/34
f 220/90/35 232/92/35 233/93/35 221/91/35
f 232/92/36 244/94/36 245/95/36 233/93/36
f 244/94/37 256/96/37 257/97/37 245/95/37
f 256/96/38 268/98/38 269/99/38 257/97/38
f 268/98/39 280/100/39 281/101/39 269/99/39
f 280/100/40 292/102/40 293/103/40 281/101/40
f 292/102/41 304/104/41 305/105/41 293/103/41
f 304/104/42 316/106/42 317/107/42 305/105/42
f 316/106/43 328/108/43 329/109/43 317/107/43
f 328/108/44 340/110/44 341/111/44 329/109/44
f 340/110/45 352/112/45 353/113/45 341/111/45
f 352/112/46 364/114/46 365/115/46 353/113/46
f 364/114/47 376/116/47 377/117/47 365/115/47
f 376/116/48 388/118/48 389/119/48 377/117/48
f 388/118/49 400/120/49 401/121/49 389/119/49
f 400/120/50 412/122/50 413/123/50 401/121/50
f 412/122/51 424/124/51 425/125/51 413/123/51
f 424/124/52 436/126/52 437/127/52 425/125/52
f 436/126/53 448/128/53 449/129/53 437/127/53
f 448/128/54 460/130/54 461/131/54 449/129/54
f 460/130/55 472/132/55 473/133/55 461/131/55
f 472/132/56 484/134/56 485/135/56 473/133/56
f 484/134/57 496/136/57 497/137/57 485/135/57
f 496/136/58 508/138/58 509/139/58 497/137/58
f 508/138/59 520/140/59 521/141/59 509/139/59
f 520/140/60 532/142/60 533/143/60 521/141/60
f 532/142/61 544/144/61 545/145/61 533/143/61
f 544/144/62 556/146/62 557/147/62 545/145/62
f 556/146/63 568/148/63 569/149/63 557/147/63
f 568/148/64 580/150/64 581/151/64 569/149/64
f 580/150/65 592/152/65 593/153/65 581/151/65
f 54/154/66 28/155/66 33/59/66 57/58/66
f 56/61/67 68/156/67 69/157/67 57/58/67
f 68/156/68 80/158/68 81/159/68 69/157/68
f 80/158/69 92/160/69 93/161/69 81/159/69
f 92/160/70 104/162/70 105/163/70 93/161/70
f 104/162/71 116/164/71 117/165/71 105/163/71
f 116/164/72 128/166/72 129/167/72 117/165/72
f 128/166/73 140/168/73 141/169/73 129/167/73
f 140/168/74 152/170/74 153/171/74 141/169/74
f 152/170/75 164/172/75 165/173/75 153/171/75
f 164/172/76 176/174/76 177/175/76 165/173/76
f 176/174/77 188/176/77 189/177/77 177/175/77
f 188/176/78 200/178/78 201/179/78 189/177/78
f 200/178/79 212/180/79 213/181/79 201/179/79
f 212/180/80 224/182/80 225/183/80 213/181/80
f 224/182/81 236/184/81 237/185/81 225/183/81
f 236/184/82 248/186/82 249/187/82 237/185/82
f 248/186/83 260/188/83 261/189/83 249/187/83
f 260/188/84 272/190/84 273/191/84 261/189/84
f 272/190/85 284/192/85 285/193/85 273/191/85
f 284/192/86 296/194/86 297/195/86 285/193/86
f 296/194/87 308/196/87 309/197/87 297/195/87
f 308/196/88 320/198/88 321/199/88 309/197/88
f 320/198/89 332/200/89 333/201/89 321/199/89
f 332/200/90 344/202/90 345/203/90 333/201/90
f 344/202/91 356/204/91 357/205/91 345/203/91
f 356/204/92 368/206/92 369/207/92 357/205/92
f 368/206/93 380/208/93 381/209/93 369/207/93
f 380/208/94 392/210/94 393/211/94 381/209/94
f 392/210/95 404/212/95 405/213/95 393/211/95
f 404/212/96 416/214/96 417/215/96 405/213/96
f 416/214/97 428/216/97 429/217/97 417/215/97
f 428/216/98 440/218/98 441/219/98 429/217/98
f 440/218/99 452/220/99 453/221/99 441/219/99
f 452/220/100 464/222/100 465/223/100 453/221/100
f 464/222/101 476/224/101 477/225/101 465/223/101
f 476/224/102 488/226/102 489/227/102 477/225/102
f 488/226/103 500/228/103 501/229/103 489/227/103
f 500/228/104 512/230/104 513/231/104 501/229/104
f 512/230/105 524/232/105 525/233/105 513/231/105
f 524/232/106 536/234/106 537/235/106 525/233/106
f 536/234/107 548/236/107 549/237/107 537/235/107
f 548/236/108 560/238/108 561/239/108 549/237/108
f 560/238/109 572/240/109 573/241/109 561/239/109
f 572/240/110 584/242/110 585/243/110 573/241/110
f 584/242/111 596/244/111 597/245/111 585/243/111
f 55/246/112 30/247/112 27/248/112 53/65/112
f 57/58/113 69/157/113 66/249/113 54/154/113
f 69/157/114 81/159/114 78/250/114 66/249/114
f 81/159/115 93/161/115 90/251/115 78/250/115
f 93/161/116 105/163/116 102/252/116 90/251/116
f 105/163/117 117/165/117 114/253/117 102/252/117
f 117/165/118 129/167/118 126/254/118 114/253/118
f 129/167/119 141/169/119 138/255/119 126/254/119
f 141/169/120 153/171/120 150/256/120 138/255/120
f 153/171/121 165/173/121 162/257/121 150/256/121
f 165/173/122 177/175/122 174/258/122 162/257/122
f 177/175/123 189/177/123 186/259/123 174/258/123
f 189/177/124 201/179/124 198/260/124 186/259/124
f 201/179/125 213/181/125 210/261/125 198/260/125
f 213/181/126 225/183/126 222/262/126 210/261/126
f 225/183/127 237/185/127 234/263/127 222/262/127
f 237/185/128 249/187/128 246/264/128 234/263/128
f 249/187/129 261/189/129 258/265/129 246/264/129
f 261/189/130 273/191/130 270/266/130 258/265/130
f 273/191/131 285/193/131 282/267/131 270/266/131
f 285/193/132 297/195/132 294/268/132 282/267/132
f 297/195/133 309/197/133 306/269/133 294/268/133
f 309/197/134 321/199/134 318/270/134 306/269/134
f 321/199/135 333/201/135 330/271/135 318/270/135
f 333/201/136 345/203/136 342/272/136 330/271/136
f 345/203/137 357/205/137 354/273/137 342/272/137
f 357/205/138 369/207/138 366/274/138 354/273/138
f 369/207/139 381/209/139 378/275/139 366/274/139
f 381/209/140 393/211/140 390/276/140 378/275/140
f 393/211/141 405/213/141 402/277/141 390/276/141
f 405/213/142 417/215/142 414/278/142 402/277/142
f 417/215/143 429/217/143 426/279/143 414/278/143
f 429/217/144 441/219/144 438/280/144 426/279/144
f 441/219/145 453/221/145 450/281/145 438/280/145
f 453/221/146 465/223/146 462/282/146 450/281/146
f 465/223/147 477/225/147 474/283/147 462/282/147
f 477/225/148 489/227/148 486/284/148 474/283/148
f 489/227/149 501/229/149 498/285/149 486/284/149
f 501/229/150 513/231/150 510/286/150 498/285/150
f 513/231/151 525/233/151 522/287/151 510/286/151
f 525/233/152 537/235/152 534/288/152 522/287/152
f 537/235/153 549/237/153 546/289/153 534/288/153
f 549/237/154 561/239/154 558/290/154 546/289/154
f 561/239/155 573/241/155 570/291/155 558/290/155
f 573/241/156 585/243/156 582/292/156 570/291/156
f 585/243/157 597/245/157 594/293/157 582/292/157
f 46/294/158 18/295/158 19/296/158 47/297/158
f 53/65/159 65/64/159 67/298/159 55/246/159
f 65/64/160 77/67/160 79/299/160 67/298/160
f 77/67/161 89/69/161 91/300/161 79/299/161
f 89/69/162 101/71/162 103/301/162 91/300/162
f 101/71/163 113/73/163 115/302/163 103/301/163
f 113/73/164 125/75/164 127/303/164 115/302/164
f 125/75/165 137/77/165 139/304/165 127/303/165
f 137/77/166 149/79/166 151/305/166 139/304/166
f 149/79/167 161/81/167 163/306/167 151/305/167
f 161/81/168 173/83/168 175/307/168 163/306/168
f 173/83/169 185/85/169 187/308/169 175/307/169
f 185/85/170 197/87/170 199/309/170 187/308/170
f 197/87/171 209/89/171 211/310/171 199/309/171
f 209/89/172 221/91/172 223/311/172 211/310/172
f 221/91/173 233/93/173 235/312/173 223/311/173
f 233/93/174 245/95/174 247/313/174 235/312/174
f 245/95/175 257/97/175 259/314/175 247/313/175
f 257/97/176 269/99/176 271/315/176 259/314/176
f 269/99/177 281/101/177 283/316/177 271/315/177
f 281/101/178 293/103/178 295/317/178 283/316/178
f 293/103/179 305/105/179 307/318/179 295/317/179
f 305/105/180 317/107/180 319/319/180 307/318/180
f 317/107/181 329/109/181 331/320/181 319/319/181
f 329/109/182 341/111/182 343/321/182 331/320/182
f 341/111/183 353/113/183 355/322/183 343/321/183
f 353/113/184 365/115/184 367/323/184 355/322/184
f 365/115/185 377/117/185 379/324/185 367/323/185
f 377/117/186 389/119/186 391/325/186 379/324/186
f 389/119/187 401/121/187 403/326/187 391/325/187
f 401/121/188 413/123/188 415/327/188 403/326/188
f 413/123/189 425/125/189 427/328/189 415/327/189
f 425/125/190 437/127/190 439/329/190 427/328/190
f 437/127/191 449/129/191 451/330/191 439/329/191
f 449/129/192 461/131/192 463/331/192 451/330/192
f 461/131/193 473/133/193 475/332/193 463/331/193
f 473/133/194 485/135/194 487/333/194 475/332/194
f 485/135/195 497/137/195 499/334/195 487/333/195
f 497/137/196 509/139/196 511/335/196 499/334/196
f 509/139/197 521/141/197 523/336/197 511/335/197
f 521/141/198 533/143/198 535/337/198 523/336/198
f 533/143/199 545/145/199 547/338/199 535/337/199
f 545/145/200 557/147/200 559/339/200 547/338/200
f 557/147/201 569/149/201 571/340/201 559/339/201
f 569/149/202 581/151/202 583/341/202 571/340/202
f 581/151/203 593/153/203 595/342/203 583/341/203
f 50/343/204 24/344/204 25/345/204 51/346/204
f 46/294/205 47/297/205 59/347/205 58/348/205
f 58/348/206 59/347/206 71/349/206 70/350/206
f 70/350/207 71/349/207 83/351/207 82/352/207
f 82/352/208 83/351/208 95/353/208 94/354/208
f 94/354/209 95/353/209 107/355/209 106/356/209
f 106/356/210 107/355/210 119/357/210 118/358/210
f 118/358/211 119/357/211 131/359/211 130/360/211
f 130/360/212 131/359/212 143/361/212 142/362/212
f 142/362/213 143/361/213 155/363/213 154/364/213
f 154/364/214 155/363/214 167/365/214 166/366/214
f 166/366/215 167/365/215 179/367/215 178/368/215
f 178/368/216 179/367/216 191/369/216 190/370/216
f 190/370/217 191/369/217 203/371/217 202/372/217
f 202/372/218 203/371/218 215/373/218 214/374/218
f 214/374/219 215/373/219 227/375/219 226/376/219
f 226/376/220 227/375/220 239/377/220 238/378/220
f 238/378/221 239/377/221 251/379/221 250/380/221
f 250/380/222 251/379/222 263/381/222 262/382/222
f 262/382/223 263/381/223 275/383/223 274/384/223
f 274/384/224 275/383/224 287/385/224 286/386/224
f 286/386/225 287/385/225 299/387/225 298/388/225
f 298/388/226 299/387/226 311/389/226 310/390/226
f 310/390/227 311/389/227 323/391/227 322/392/227
f 322/392/228 323/391/228 335/393/228 334/394/228
f 334/394/229 335/393/229 347/395/229 346/396/229
f 346/396/230 347/395/230 359/397/230 358/398/230
f 358/398/231 359/397/231 371/399/231 370/400/231
f 370/400/232 371/399/232 383/401/232 382/402/232
f 382/402/233 383/401/233 395/403/233 394/404/233
f 394/404/234 395/403/234 407/405/234 406/406/234
f 406/406/235 407/405/235 419/407/235 418/408/235
f 418/408/236 419/407/236 431/409/236 430/410/236
f 430/410/237 431/409/237 443/411/237 442/412/237
f 442/412/238 443/411/238 455/413/238 454/414/238
f 454/414/239 455/413/239 467/415/239 466/416/239
f 466/416/240 467/415/240 479/417/240 478/418/240
f 478/418/241 479/417/241 491/419/241 490/420/241
f 490/420/242 491/419/242 503/421/242 502/422/242
f 502/422/243 503/421/243 515/423/243 514/424/243
f 514/424/244 515/423/244 527/425/244 526/426/244
f 526/426/245 527/425/245 539/427/245 538/428/245
f 538/428/246 539/427/246 551/429/246 550/430/246
f 550/430/247 551/429/247 563/431/247 562/432/247
f 562/432/248 563/431/248 575/433/248 574/434/248
f 574/434/249 575/433/249 587/435/249 586/436/249
f 51/346/250 25/345/250 20/437/250 48/438/250
f 50/343/251 51/346/251 63/439/251 62/440/251
f 62/440/252 63/439/252 75/441/252 74/442/252
f 74/442/253 75/441/253 87/443/253 86/444/253
f 86/444/254 87/443/254 99/445/254 98/446/254
f 98/446/255 99/445/255 111/447/255 110/448/255
f 110/448/256 111/447/256 123/449/256 122/450/256
f 122/450/257 123/449/257 135/451/257 134/452/257
f 134/452/258 135/451/258 147/453/258 146/454/258
f 146/454/259 147/453/259 159/455/259 158/456/259
f 158/456/260 159/455/260 171/457/260 170/458/260
f 170/458/261 171/457/261 183/459/261 182/460/261
f 182/460/262 183/459/262 195/461/262 194/462/262
f 194/462/263 195/461/263 207/463/263 206/464/263
f 206/464/264 207/463/264 219/465/264 218/466/264
f 218/466/265 219/465/265 231/467/265 230/468/265
f 230/468/266 231/467/266 243/469/266 242/470/266
f 242/470/267 243/469/267 255/471/267 254/472/267
f 254/472/268 255/471/268 267/473/268 266/474/268
f 266/474/269 267/473/269 279/475/269 278/476/269
f 278/476/270 279/475/270 291/477/270 290/478/270
f 290/478/271 291/477/271 303/479/271 302/480/271
f 302/480/272 303/479/272 315/481/272 314/482/272
f 314/482/273 315/481/273 327/483/273 326/484/273
f 326/484/274 327/483/274 339/485/274 338/486/274
f 338/486/275 339/485/275 351/487/275 350/488/275
f 350/488/276 351/487/276 363/489/276 362/490/276
f 362/490/277 363/489/277 375/491/277 374/492/277
f 374/492/278 375/491/278 387/493/278 386/494/278
f 386/494/279 387/493/279 399/495/279 398/496/279
f 398/496/280 399/495/280 411/497/280 410/498/280
f 410/498/281 411/497/281 423/499/281 422/500/281
f 422/500/282 423/499/282 435/501/282 434/502/282
f 434/502/283 435/501/283 447/503/283 446/504/283
f 446/504/284 447/503/284 459/505/284 458/506/284
f 458/506/285 459/505/285 471/507/285 470/508/285
f 470/508/286 471/507/286 483/509/286 482/510/286
f 482/510/287 483/509/287 495/511/287 494/512/287
f 494/512/288 495/511/288 507/513/288 506/514/288
f 506/514/289 507/513/289 519/515/289 518/516/289
f 518/516/290 519/515/290 531/517/290 530/518/290
f 530/518/291 531/517/291 543/519/291 542/520/291
f 542/520/292 543/519/292 555/521/292 554/522/292
f 554/522/293 555/521/293 567/523/293 566/524/293
f 566/524/294 567/523/294 579/525/294 578/526/294
f 578/526/295 579/525/295 591/527/295 590/528/295
f 603/529/296 601/530/296 598/531/296 600/532/296
f 47/297/297 19/296/297 22/533/297 49/534/297
f 51/346/298 48/438/298 60/535/298 63/439/298
f 63/439/299 60/535/299 72/536/299 75/441/299
f 75/441/300 72/536/300 84/537/300 87/443/300
f 87/443/301 84/537/301 96/538/301 99/445/301
f 99/445/302 96/538/302 108/539/302 111/447/302
f 111/447/303 108/539/303 120/540/303 123/449/303
f 123/449/304 120/540/304 132/541/304 135/451/304
f 135/451/305 132/541/305 144/542/305 147/453/305
f 147/453/306 144/542/306 156/543/306 159/455/306
f 159/455/307 156/543/307 168/544/307 171/457/307
f 171/457/308 168/544/308 180/545/308 183/459/308
f 183/459/309 180/545/309 192/546/309 195/461/309
f 195/461/310 192/546/310 204/547/310 207/463/310
f 207/463/311 204/547/311 216/548/311 219/465/311
f 219/465/312 216/548/312 228/549/312 231/467/312
f 231/467/313 228/549/313 240/550/313 243/469/313
f 243/469/314 240/550/314 252/551/314 255/471/314
f 255/471/315 252/551/315 264/552/315 267/473/315
f 267/473/316 264/552/316 276/553/316 279/475/316
f 279/475/317 276/553/317 288/554/317 291/477/317
f 291/477/318 288/554/318 300/555/318 303/479/318
f 303/479/319 300/555/319 312/556/319 315/481/319
f 315/481/320 312/556/320 324/557/320 327/483/320
f 327/483/321 324/557/321 336/558/321 339/485/321
f 339/485/322 336/558/322 348/559/322 351/487/322
f 351/487/323 348/559/323 360/560/323 363/489/323
f 363/489/324 360/560/324 372/561/324 375/491/324
f 375/491/325 372/561/325 384/562/325 387/493/325
f 387/493/326 384/562/326 396/563/326 399/495/326
f 399/495/327 396/563/327 408/564/327 411/497/327
f 411/497/328 408/564/328 420/565/328 423/499/328
f 423/499/329 420/565/329 432/566/329 435/501/329
f 435/501/330 432/566/330 444/567/330 447/503/330
f 447/503/331 444/567/331 456/568/331 459/505/331
f 459/505/332 456/568/332 468/569/332 471/507/332
f 471/507/333 468/569/333 480/570/333 483/509/333
f 483/509/334 480/570/334 492/571/334 495/511/334
f 495/511/335 492/571/335 504/572/335 507/513/335
f 507/513/336 504/572/336 516/573/336 519/515/336
f 519/515/337 516/573/337 528/574/337 531/517/337
f 531/517/338 528/574/338 540/575/338 543/519/338
f 543/519/339 540/575/339 552/576/339 555/521/339
f 555/521/340 552/576/340 564/577/340 567/523/340
f 567/523/341 564/577/341 576/578/341 579/525/341
f 579/525/342 576/578/342 588/579/342 591/527/342
f 52/580/343 26/581/343 18/295/343 46/294/343
f 47/297/344 49/534/344 61/582/344 59/347/344
f 59/347/345 61/582/345 73/583/345 71/349/345
f 71/349/346 73/583/346 85/584/346 83/351/346
f 83/351/347 85/584/347 97/585/347 95/353/347
f 95/353/348 97/585/348 109/586/348 107/355/348
f 107/355/349 109/586/349 121/587/349 119/357/349
f 119/357/350 121/587/350 133/588/350 131/359/350
f 131/359/351 133/588/351 145/589/351 143/361/351
f 143/361/352 145/589/352 157/590/352 155/363/352
f 155/363/353 157/590/353 169/591/353 167/365/353
f 167/365/354 169/591/354 181/592/354 179/367/354
f 179/367/355 181/592/355 193/593/355 191/369/355
f 191/369/356 193/593/356 205/594/356 203/371/356
f 203/371/357 205/594/357 217/595/357 215/373/357
f 215/373/358 217/595/358 229/596/358 227/375/358
f 227/375/359 229/596/359 241/597/359 239/377/359
f 239/377/360 241/597/360 253/598/360 251/379/360
f 251/379/361 253/598/361 265/599/361 263/381/361
f 263/381/362 265/599/362 277/600/362 275/383/362
f 275/383/363 277/600/363 289/601/363 287/385/363
f 287/385/364 289/601/364 301/602/364 299/387/364
f 299/387/365 301/602/365 313/603/365 311/389/365
f 311/389/366 313/603/366 325/604/366 323/391/366
f 323/391/367 325/604/367 337/605/367 335/393/367
f 335/393/368 337/605/368 349/606/368 347/395/368
f 347/395/369 349/606/369 361/607/369 359/397/369
f 359/397/370 361/607/370 373/608/370 371/399/370
f 371/399/371 373/608/371 385/609/371 383/401/371
f 383/401/372 385/609/372 397/610/372 395/403/372
f 395/403/373 397/610/373 409/611/373 407/405/373
f 407/405/374 409/611/374 421/612/374 419/407/374
f 419/407/375 421/612/375 433/613/375 431/409/375
f 431/409/376 433/613/376 445/614/376 443/411/376
f 443/411/377 445/614/377 457/615/377 455/413/377
f 455/413/378 457/615/378 469/616/378 467/415/378
f 467/415/379 469/616/379 481/617/379 479/417/379
f 479/417/380 481/617/380 493/618/380 491/419/380
f 491/419/381 493/618/381 505/619/381 503/421/381
f 503/421/382 505/619/382 517/620/382 515/423/382
f 515/423/383 517/620/383 529/621/383 527/425/383
f 527/425/384 529/621/384 541/622/384 539/427/384
f 539/427/385 541/622/385 553/623/385 551/429/385
f 551/429/386 553/623/386 565/624/386 563/431/386
f 563/431/387 565/624/387 577/625/387 575/433/387
f 575/433/388 577/625/388 589/626/388 587/435/388
f 48/627/389 20/628/389 28/155/389 54/154/389
f 52/580/390 46/294/390 58/348/390 64/629/390
f 64/629/391 58/348/391 70/350/391 76/630/391
f 76/630/392 70/350/392 82/352/392 88/631/392
f 88/631/393 82/352/393 94/354/393 100/632/393
f 100/632/394 94/354/394 106/356/394 112/633/394
f 112/633/395 106/356/395 118/358/395 124/634/395
f 124/634/396 118/358/396 130/360/396 136/635/396
f 136/635/397 130/360/397 142/362/397 148/636/397
f 148/636/398 142/362/398 154/364/398 160/637/398
f 160/637/399 154/364/399 166/366/399 172/638/399
f 172/638/400 166/366/400 178/368/400 184/639/400
f 184/639/401 178/368/401 190/370/401 196/640/401
f 196/640/402 190/370/402 202/372/402 208/641/402
f 208/641/403 202/372/403 214/374/403 220/642/403
f 220/642/404 214/374/404 226/376/404 232/643/404
f 232/643/405 226/376/405 238/378/405 244/644/405
f 244/644/406 238/378/406 250/380/406 256/645/406
f 256/645/407 250/380/407 262/382/407 268/646/407
f 268/646/408 262/382/408 274/384/408 280/647/408
f 280/647/409 274/384/409 286/386/409 292/648/409
f 292/648/410 286/386/410 298/388/410 304/649/410
f 304/649/411 298/388/411 310/390/411 316/650/411
f 316/650/412 310/390/412 322/392/412 328/651/412
f 328/651/413 322/392/413 334/394/413 340/652/413
f 340/652/414 334/394/414 346/396/414 352/653/414
f 352/653/415 346/396/415 358/398/415 364/654/415
f 364/654/416 358/398/416 370/400/416 376/655/416
f 376/655/417 370/400/417 382/402/417 388/656/417
f 388/656/418 382/402/418 394/404/418 400/657/418
f 400/657/419 394/404/419 406/406/419 412/658/419
f 412/658/420 406/406/420 418/408/420 424/659/420
f 424/659/421 418/408/421 430/410/421 436/660/421
f 436/660/422 430/410/422 442/412/422 448/661/422
f 448/661/423 442/412/423 454/414/423 460/662/423
f 460/662/424 454/414/424 466/416/424 472/663/424
f 472/663/425 466/416/425 478/418/425 484/664/425
f 484/664/426 478/418/426 490/420/426 496/665/426
f 496/665/427 490/420/427 502/422/427 508/666/427
f 508/666/428 502/422/428 514/424/428 520/667/428
f 520/667/429 514/424/429 526/426/429 532/668/429
f 532/668/430 526/426/430 538/428/430 544/669/430
f 544/669/431 538/428/431 550/430/431 556/670/431
f 556/670/432 550/430/432 562/432/432 568/671/432
f 568/671/433 562/432/433 574/434/433 580/672/433
f 580/672/434 574/434/434 586/436/434 592/673/434
f 49/534/435 22/533/435 30/247/435 55/246/435
f 54/154/436 66/249/436 60/674/436 48/627/436
f 66/249/437 78/250/437 72/675/437 60/674/437
f 78/250/438 90/251/438 84/676/438 72/675/438
f 90/251/439 102/252/439 96/677/439 84/676/439
f 102/252/440 114/253/440 108/678/440 96/677/440
f 114/253/441 126/254/441 120/679/441 108/678/441
f 126/254/442 138/255/442 132/680/442 120/679/442
f 138/255/443 150/256/443 144/681/443 132/680/443
f 150/256/444 162/257/444 156/682/444 144/681/444
f 162/257/445 174/258/445 168/683/445 156/682/445
f 174/258/446 186/259/446 180/684/446 168/683/446
f 186/259/447 198/260/447 192/685/447 180/684/447
f 198/260/448 210/261/448 204/686/448 192/685/448
f 210/261/449 222/262/449 216/687/449 204/686/449
f 222/262/450 234/263/450 228/688/450 216/687/450
f 234/263/451 246/264/451 240/689/451 228/688/451
f 246/264/452 258/265/452 252/690/452 240/689/452
f 258/265/453 270/266/453 264/691/453 252/690/453
f 270/266/454 282/267/454 276/692/454 264/691/454
f 282/267/455 294/268/455 288/693/455 276/692/455
f 294/268/456 306/269/456 300/694/456 288/693/456
f 306/269/457 318/270/457 312/695/457 300/694/457
f 318/270/458 330/271/458 324/696/458 312/695/458
f 330/271/459 342/272/459 336/697/459 324/696/459
f 342/272/460 354/273/460 348/698/460 336/697/460
f 354/273/461 366/274/461 360/699/461 348/698/461
f 366/274/462 378/275/462 372/700/462 360/699/462
f 378/275/463 390/276/463 384/701/463 372/700/463
f 390/276/464 402/277/464 396/702/464 384/701/464
f 402/277/465 414/278/465 408/703/465 396/702/465
f 414/278/466 426/279/466 420/704/466 408/703/466
f 426/279/467 438/280/467 432/705/467 420/704/467
f 438/280/468 450/281/468 444/706/468 432/705/468
f 450/281/469 462/282/469 456/707/469 444/706/469
f 462/282/470 474/283/470 468/708/470 456/707/470
f 474/283/471 486/284/471 480/709/471 468/708/471
f 486/284/472 498/285/472 492/710/472 480/709/472
f 498/285/473 510/286/473 504/711/473 492/710/473
f 510/286/474 522/287/474 516/712/474 504/711/474
f 522/287/475 534/288/475 528/713/475 516/712/475
f 534/288/476 546/289/476 540/714/476 528/713/476
f 546/289/477 558/290/477 552/715/477 540/714/477
f 558/290/478 570/291/478 564/716/478 552/715/478
f 570/291/479 582/292/479 576/717/479 564/716/479
f 582/292/480 594/293/480 588/718/480 576/717/480
f 56/61/481 32/60/481 24/344/481 50/343/481
f 55/246/482 67/298/482 61/582/482 49/534/482
f 67/298/483 79/299/483 73/583/483 61/582/483
f 79/299/484 91/300/484 85/584/484 73/583/484
f 91/300/485 103/301/485 97/585/485 85/584/485
f 103/301/486 115/302/486 109/586/486 97/585/486
f 115/302/487 127/303/487 121/587/487 109/586/487
f 127/303/488 139/304/488 133/588/488 121/587/488
f 139/304/489 151/305/489 145/589/489 133/588/489
f 151/305/490 163/306/490 157/590/490 145/589/490
f 163/306/491 175/307/491 169/591/491 157/590/491
f 175/307/492 187/308/492 181/592/492 169/591/492
f 187/308/493 199/309/493 193/593/493 181/592/493
f 199/309/494 211/310/494 205/594/494 193/593/494
f 211/310/495 223/311/495 217/595/495 205/594/495
f 223/311/496 235/312/496 229/596/496 217/595/496
f 235/312/497 247/313/497 241/597/497 229/596/497
f 247/313/498 259/314/498 253/598/498 241/597/498
f 259/314/499 271/315/499 265/599/499 253/598/499
f 271/315/500 283/316/500 277/600/500 265/599/500
f 283/316/501 295/317/501 289/601/501 277/600/501
f 295/317/502 307/318/502 301/602/502 289/601/502
f 307/318/503 319/319/503 313/603/503 301/602/503
f 319/319/504 331/320/504 325/604/504 313/603/504
f 331/320/505 343/321/505 337/605/505 325/604/505
f 343/321/506 355/322/506 349/606/506 337/605/506
f 355/322/507 367/323/507 361/607/507 349/606/507
f 367/323/508 379/324/508 373/608/508 361/607/508
f 379/324/509 391/325/509 385/609/509 373/608/509
f 391/325/510 403/326/510 397/610/510 385/609/510
f 403/326/511 415/327/511 409/611/511 397/610/511
f 415/327/512 427/328/512 421/612/512 409/611/512
f 427/328/513 439/329/513 433/613/513 421/612/513
f 439/329/514 451/330/514 445/614/514 433/613/514
f 451/330/515 463/331/515 457/615/515 445/614/515
f 463/331/516 475/332/516 469/616/516 457/615/516
f 475/332/517 487/333/517 481/617/517 469/616/517
f 487/333/518 499/334/518 493/618/518 481/617/518
f 499/334/519 511/335/519 505/619/519 493/618/519
f 511/335/520 523/336/520 517/620/520 505/619/520
f 523/336/521 535/337/521 529/621/521 517/620/521
f 535/337/522 547/338/522 541/622/522 529/621/522
f 547/338/523 559/339/523 553/623/523 541/622/523
f 559/339/524 571/340/524 565/624/524 553/623/524
f 571/340/525 583/341/525 577/625/525 565/624/525
f 583/341/526 595/342/526 589/626/526 577/625/526
f 56/61/527 50/343/527 62/440/527 68/156/527
f 68/156/528 62/440/528 74/442/528 80/158/528
f 80/158/529 74/442/529 86/444/529 92/160/529
f 92/160/530 86/444/530 98/446/530 104/162/530
f 104/162/531 98/446/531 110/448/531 116/164/531
f 116/164/532 110/448/532 122/450/532 128/166/532
f 128/166/533 122/450/533 134/452/533 140/168/533
f 140/168/534 134/452/534 146/454/534 152/170/534
f 152/170/535 146/454/535 158/456/535 164/172/535
f 164/172/536 158/456/536 170/458/536 176/174/536
f 176/174/537 170/458/537 182/460/537 188/176/537
f 188/176/538 182/460/538 194/462/538 200/178/538
f 200/178/539 194/462/539 206/464/539 212/180/539
f 212/180/540 206/464/540 218/466/540 224/182/540
f 224/182/541 218/466/541 230/468/541 236/184/541
f 236/184/542 230/468/542 242/470/542 248/186/542
f 248/186/543 242/470/543 254/472/543 260/188/543
f 260/188/544 254/472/544 266/474/544 272/190/544
f 272/190/545 266/474/545 278/476/545 284/192/545
f 284/192/546 278/476/546 290/478/546 296/194/546
f 296/194/547 290/478/547 302/480/547 308/196/547
f 308/196/548 302/480/548 314/482/548 320/198/548
f 320/198/549 314/482/549 326/484/549 332/200/549
f 332/200/550 326/484/550 338/486/550 344/202/550
f 344/202/551 338/486/551 350/488/551 356/204/551
f 356/204/552 350/488/552 362/490/552 368/206/552
f 368/206/553 362/490/553 374/492/553 380/208/553
f 380/208/554 374/492/554 386/494/554 392/210/554
f 392/210/555 386/494/555 398/496/555 404/212/555
f 404/212/556 398/496/556 410/498/556 416/214/556
f 416/214/557 410/498/557 422/500/557 428/216/557
f 428/216/558 422/500/558 434/502/558 440/218/558
f 440/218/559 434/502/559 446/504/559 452/220/559
f 452/220/560 446/504/560 458/506/560 464/222/560
f 464/222/561 458/506/561 470/508/561 476/224/561
f 476/224/562 470/508/562 482/510/562 488/226/562
f 488/226/563 482/510/563 494/512/563 500/228/563
f 500/228/564 494/512/564 506/514/564 512/230/564
f 512/230/565 506/514/565 518/516/565 524/232/565
f 524/232/566 518/516/566 530/518/566 536/234/566
f 536/234/567 530/518/567 542/520/567 548/236/567
f 548/236/568 542/520/568 554/522/568 560/238/568
f 560/238/569 554/522/569 566/524/569 572/240/569
f 572/240/570 566/524/570 578/526/570 584/242/570
f 584/242/571 578/526/571 590/528/571 596/244/571
f 53/65/572 27/248/572 26/719/572 52/62/572
f 615/720/573 620/721/573 603/722/573 600/723/573
f 617/724/574 621/725/574 604/726/574 605/727/574
f 616/728/575 622/729/575 606/730/575 602/731/575
f 622/732/576 617/724/576 605/727/576 606/733/576
f 619/734/577 616/728/577 602/731/577 601/735/577
f 618/736/578 615/720/578 600/723/578 599/737/578
f 620/721/579 619/734/579 601/735/579 603/722/579
f 621/725/580 618/736/580 599/737/580 604/726/580
f 606/738/581 598/531/581 601/530/581 602/739/581
f 604/740/582 598/531/582 606/738/582 605/741/582
f 600/532/583 598/531/583 604/740/583 599/742/583
f 681/743/584 663/744/584 607/745/584 610/746/584
f 675/747/585 669/748/585 608/749/585 609/750/585
f 663/744/586 698/751/586 612/752/586 607/745/586
f 669/748/587 704/753/587 613/754/587 608/749/587
f 687/755/588 710/756/588 614/757/588 611/758/588
f 704/753/589 687/759/589 611/760/589 613/754/589
f 710/756/590 681/743/590 610/746/590 614/757/590
f 698/751/591 675/747/591 609/750/591 612/752/591
f 626/761/592 623/762/592 618/736/592 621/725/592
f 625/763/593 624/764/593 619/734/593 620/721/593
f 623/762/594 628/765/594 615/720/594 618/736/594
f 624/764/595 629/766/595 616/728/595 619/734/595
f 627/767/596 630/768/596 617/724/596 622/732/596
f 629/766/597 627/769/597 622/729/597 616/728/597
f 630/768/598 626/761/598 621/725/598 617/724/598
f 628/765/599 625/763/599 620/721/599 615/720/599
f 636/770/600 633/771/600 625/763/600 628/765/600
f 638/772/601 634/773/601 626/761/601 630/768/601
f 637/774/602 635/775/602 627/769/602 629/766/602
f 635/776/603 638/772/603 630/768/603 627/767/603
f 632/777/604 637/774/604 629/766/604 624/764/604
f 631/778/605 636/770/605 628/765/605 623/762/605
f 633/771/606 632/777/606 624/764/606 625/763/606
f 634/773/607 631/778/607 623/762/607 626/761/607
f 714/779/608 711/780/608 631/778/608 634/773/608
f 713/781/609 712/782/609 632/777/609 633/771/609
f 711/780/610 716/783/610 636/770/610 631/778/610
f 712/782/611 717/784/611 637/774/611 632/777/611
f 715/785/612 718/786/612 638/772/612 635/776/612
f 717/784/613 715/787/613 635/775/613 637/774/613
f 718/786/614 714/779/614 634/773/614 638/772/614
f 716/783/615 713/781/615 633/771/615 636/770/615
f 654/788/616 653/789/616 647/790/616 641/791/616
f 652/792/617 651/793/617 643/794/617 649/795/617
f 640/796/18 639/797/18 645/798/18 646/799/18 650/800/18 644/801/18
f 642/802/18 641/803/18 647/804/18 648/805/18 649/806/18 643/807/18
f 658/808/618 657/809/618 639/810/618 640/811/618
f 651/793/619 655/812/619 642/813/619 643/794/619
f 660/814/620 659/815/620 646/816/620 645/817/620
f 656/818/621 652/819/621 649/820/621 648/821/621
f 657/822/622 660/814/622 645/817/622 639/823/622
f 662/824/623 661/825/623 644/826/623 650/827/623
f 655/812/624 654/788/624 641/791/624 642/813/624
f 661/825/625 658/808/625 640/811/625 644/826/625
f 653/789/626 656/818/626 648/821/626 647/790/626
f 659/815/627 662/824/627 650/827/627 646/816/627
f 590/528/628 591/527/628 656/818/628 653/789/628
f 597/245/629 596/244/629 654/788/629 655/812/629
f 591/527/630 588/579/630 652/819/630 656/818/630
f 594/293/631 597/245/631 655/812/631 651/793/631
f 588/718/632 594/293/632 651/793/632 652/792/632
f 596/244/633 590/528/633 653/789/633 654/788/633
f 587/435/634 589/626/634 662/824/634 659/815/634
f 595/342/635 593/153/635 658/808/635 661/825/635
f 589/626/636 595/342/636 661/825/636 662/824/636
f 592/673/637 586/436/637 660/814/637 657/822/637
f 586/436/638 587/435/638 659/815/638 660/814/638
f 593/153/639 592/152/639 657/809/639 658/808/639
f 23/828/591 45/829/591 680/830/591 693/831/591
f 693/831/591 680/830/591 679/832/591 694/833/591
f 694/833/591 679/832/591 678/834/591 695/835/591
f 695/835/591 678/834/591 677/836/591 696/837/591
f 696/837/591 677/836/591 676/838/591 697/839/591
f 697/839/591 676/838/591 675/747/591 698/751/591
f 44/840/590 43/841/590 686/842/590 705/843/590
f 705/843/590 686/842/590 685/844/590 706/845/590
f 706/845/590 685/844/590 684/846/590 707/847/590
f 707/847/590 684/846/590 683/848/590 708/849/590
f 708/849/590 683/848/590 682/850/590 709/851/590
f 709/851/590 682/850/590 681/743/590 710/756/590
f 40/852/589 21/853/589 692/854/589 699/855/589
f 699/855/589 692/854/589 691/856/589 700/857/589
f 700/857/589 691/856/589 690/858/589 701/859/589
f 701/859/589 690/858/589 689/860/589 702/861/589
f 702/861/589 689/860/589 688/862/589 703/863/589
f 703/863/589 688/862/589 687/759/589 704/753/589
f 21/864/588 44/840/588 705/843/588 692/865/588
f 692/865/588 705/843/588 706/845/588 691/866/588
f 691/866/588 706/845/588 707/847/588 690/867/588
f 690/867/588 707/847/588 708/849/588 689/868/588
f 689/868/588 708/849/588 709/851/588 688/869/588
f 688/869/588 709/851/588 710/756/588 687/755/588
f 41/870/587 40/852/587 699/855/587 674/871/587
f 674/871/587 699/855/587 700/857/587 673/872/587
f 673/872/587 700/857/587 701/859/587 672/873/587
f 672/873/587 701/859/587 702/861/587 671/874/587
f 671/874/587 702/861/587 703/863/587 670/875/587
f 670/875/587 703/863/587 704/753/587 669/748/587
f 42/876/586 23/828/586 693/831/586 668/877/586
f 668/877/586 693/831/586 694/833/586 667/878/586
f 667/878/586 694/833/586 695/835/586 666/879/586
f 666/879/586 695/835/586 696/837/586 665/880/586
f 665/880/586 696/837/586 697/839/586 664/881/586
f 664/881/586 697/839/586 698/751/586 663/744/586
f 45/829/585 41/870/585 674/871/585 680/830/585
f 680/830/585 674/871/585 673/872/585 679/832/585
f 679/832/585 673/872/585 672/873/585 678/834/585
f 678/834/585 672/873/585 671/874/585 677/836/585
f 677/836/585 671/874/585 670/875/585 676/838/585
f 676/838/585 670/875/585 669/748/585 675/747/585
f 43/841/584 42/876/584 668/877/584 686/842/584
f 686/842/584 668/877/584 667/878/584 685/844/584
f 685/844/584 667/878/584 666/879/584 684/846/584
f 684/846/584 666/879/584 665/880/584 683/848/584
f 683/848/584 665/880/584 664/881/584 682/850/584
f 682/850/584 664/881/584 663/744/584 681/743/584
f 612/752/640 609/750/640 713/781/640 716/783/640
f 614/757/641 610/746/641 714/779/641 718/786/641
f 613/754/642 611/760/642 715/787/642 717/784/642
f 611/758/643 614/757/643 718/786/643 715/785/643
f 608/749/644 613/754/644 717/784/644 712/782/644
f 607/745/645 612/752/645 716/783/645 711/780/645
f 609/750/646 608/749/646 712/782/646 713/781/646
f 610/746/647 607/745/647 711/780/647 714/779/647
