# Blender 5.2.1 LTS
# www.blender.org
mtllib TankHolder.mtl
o TankHolder
v -0.000000 15.760000 -1.860113
v 1.860113 15.760000 -0.000000
v -1.860113 15.760000 0.000000
v 0.000000 15.760000 1.860113
v 1.860113 16.058615 -0.000000
v 0.000000 16.058615 1.860113
v -1.860113 16.058615 0.000000
v -0.000000 16.058615 -1.860113
v 2.009714 15.760000 0.000000
v 0.000000 15.760000 2.009714
v -2.009714 15.760000 0.000000
v 0.000000 15.760000 -2.009714
v 2.009714 16.058615 0.000000
v 0.000000 16.058615 2.009714
v -2.009714 16.058615 0.000000
v 0.000000 16.058615 -2.009714
v 2.109448 15.760000 0.000000
v 0.000000 15.760000 2.109448
v -2.109448 15.760000 0.000000
v 0.000000 15.760000 -2.109448
v 2.109448 16.058615 0.000000
v 0.000000 16.058615 2.109448
v -2.109448 16.058615 0.000000
v 0.000000 16.058615 -2.109448
v 1.124125 15.760000 -1.443036
v 0.903007 15.760000 -1.590782
v -1.590782 15.760000 0.903007
v -1.443036 15.760000 1.124125
v 0.903007 16.058615 -1.590782
v 1.124125 16.058615 -1.443036
v -1.443036 16.058615 1.124125
v -1.590782 16.058615 0.903007
v 1.205454 15.760000 -1.565161
v 0.984713 15.760000 -1.712655
v -1.712655 15.760000 0.984713
v -1.565161 15.760000 1.205454
v 0.984713 16.058615 -1.712655
v 1.205454 16.058615 -1.565161
v -1.565161 16.058615 1.205454
v -1.712655 16.058615 0.984713
v 1.039148 15.760000 -1.793927
v 1.259708 15.760000 -1.646554
v -1.793927 15.760000 1.039148
v -1.646554 15.760000 1.259708
v 1.259708 16.058615 -1.646554
v 1.039148 16.058615 -1.793927
v -1.646554 16.058615 1.259708
v -1.793927 16.058615 1.039148
v -1.124125 15.760000 1.443036
v -0.903007 15.760000 1.590782
v 1.590782 15.760000 -0.903007
v 1.443036 15.760000 -1.124125
v -0.903007 16.058615 1.590782
v -1.124125 16.058615 1.443036
v 1.443036 16.058615 -1.124125
v 1.590782 16.058615 -0.903007
v -1.205454 15.760000 1.565161
v -0.984713 15.760000 1.712655
v 1.712655 15.760000 -0.984713
v 1.565161 15.760000 -1.205454
v -0.984713 16.058615 1.712655
v -1.205454 16.058615 1.565161
v 1.565161 16.058615 -1.205454
v 1.712655 16.058615 -0.984713
v -1.039148 15.760000 1.793927
v -1.259708 15.760000 1.646554
v 1.646554 15.760000 -1.259708
v 1.793927 15.760000 -1.039148
v -1.259708 16.058615 1.646554
v -1.039148 16.058615 1.793927
v 1.646554 16.058615 -1.259708
v 1.793927 16.058615 -1.039148
v 1.443036 15.760000 1.124125
v 1.590782 15.760000 0.903007
v -0.903007 15.760000 -1.590782
v -1.124125 15.760000 -1.443036
v 1.590782 16.058615 0.903007
v 1.443036 16.058615 1.124125
v -1.124125 16.058615 -1.443036
v -0.903007 16.058615 -1.590782
v 1.565161 15.760000 1.205454
v 1.712655 15.760000 0.984713
v -0.984713 15.760000 -1.712655
v -1.205454 15.760000 -1.565161
v 1.712655 16.058615 0.984713
v 1.565161 16.058615 1.205454
v -1.205454 16.058615 -1.565161
v -0.984713 16.058615 -1.712655
v 1.793927 15.760000 1.039148
v 1.646554 15.760000 1.259708
v -1.039148 15.760000 -1.793927
v -1.259708 15.760000 -1.646554
v 1.646554 16.058615 1.259708
v 1.793927 16.058615 1.039148
v -1.259708 16.058615 -1.646554
v -1.039148 16.058615 -1.793927
v -0.184423 16.058615 -0.566905
v 0.000000 16.058615 -0.380042
v 0.184423 16.058615 -0.566905
v 0.000000 16.058615 -0.748889
v 0.000000 15.760000 -0.748889
v 0.184423 15.760000 -0.566905
v 0.000000 15.760000 -0.380042
v -0.184423 15.760000 -0.566905
v 0.380042 16.058615 0.000000
v 0.566905 16.058615 0.184423
v 0.748889 16.058615 0.000000
v 0.566905 16.058615 -0.184423
v 0.566905 15.760000 -0.184423
v 0.748889 15.760000 0.000000
v 0.566905 15.760000 0.184423
v 0.380042 15.760000 0.000000
v -1.443036 15.760000 -1.124125
v -1.590782 15.760000 -0.903007
v 0.903007 15.760000 1.590782
v 1.124125 15.760000 1.443036
v -1.590782 16.058615 -0.903007
v -1.443036 16.058615 -1.124125
v 1.124125 16.058615 1.443036
v 0.903007 16.058615 1.590782
v -1.565161 15.760000 -1.205454
v -1.712655 15.760000 -0.984713
v 0.984713 15.760000 1.712655
v 1.205454 15.760000 1.565161
v -1.565161 16.058615 -1.205454
v -1.712655 16.058615 -0.984713
v 1.205454 16.058615 1.565161
v 0.984713 16.058615 1.712655
v -1.793927 15.760000 -1.039148
v -1.646554 15.760000 -1.259708
v 1.259708 15.760000 1.646554
v 1.039148 15.760000 1.793927
v -1.793927 16.058615 -1.039148
v -1.646554 16.058615 -1.259708
v 1.259708 16.058615 1.646554
v 1.039148 16.058615 1.793927
v -0.748889 16.058615 0.000000
v -0.566905 16.058615 0.184423
v -0.380042 16.058615 0.000000
v -0.566905 16.058615 -0.184423
v -0.566905 15.760000 -0.184423
v -0.380042 15.760000 0.000000
v -0.566905 15.760000 0.184423
v -0.748889 15.760000 0.000000
v -0.184423 16.058615 0.566905
v 0.000000 16.058615 0.748889
v 0.184423 16.058615 0.566905
v 0.000000 16.058615 0.380042
v 0.000000 15.760000 0.380042
v 0.184423 15.760000 0.566905
v 0.000000 15.760000 0.748889
v -0.184423 15.760000 0.566905
v 1.155674 15.513569 -1.500527
v 0.944048 15.513569 -1.641930
v 1.124125 15.513569 -1.443036
v 0.903007 15.513569 -1.590782
v -1.641930 15.513569 0.944049
v -1.500527 15.513569 1.155674
v -1.590782 15.513569 0.903007
v -1.443036 15.513569 1.124125
v 1.641930 15.513569 -0.944049
v 1.500527 15.513569 -1.155674
v -1.155674 15.513569 1.500527
v -0.944048 15.513569 1.641930
v -1.124125 15.513569 1.443036
v -0.903007 15.513569 1.590782
v 1.590782 15.513569 -0.903007
v 1.443036 15.513569 -1.124125
v 1.500527 15.513569 1.155674
v 1.641930 15.513569 0.944048
v 1.443036 15.513569 1.124125
v 1.590782 15.513569 0.903007
v -0.944049 15.513569 -1.641930
v -1.155674 15.513569 -1.500527
v -0.903007 15.513569 -1.590782
v -1.124125 15.513569 -1.443036
v 0.944049 15.513569 1.641930
v 1.155674 15.513569 1.500527
v -1.500527 15.513569 -1.155674
v -1.641930 15.513569 -0.944048
v -1.443036 15.513569 -1.124125
v -1.590782 15.513569 -0.903007
v 0.903007 15.513569 1.590782
v 1.124125 15.513569 1.443036
v 0.984713 16.338524 -1.712655
v 1.205454 16.338524 -1.565161
v 0.903007 16.338524 -1.590782
v 1.124125 16.338524 -1.443036
v -1.565161 16.338524 1.205454
v -1.712655 16.338524 0.984713
v -1.443036 16.338524 1.124125
v -1.590782 16.338524 0.903007
v -0.984713 16.338524 1.712655
v -1.205454 16.338524 1.565161
v -0.903007 16.338524 1.590782
v -1.124125 16.338524 1.443036
v 1.565161 16.338524 -1.205454
v 1.712655 16.338524 -0.984713
v 1.443036 16.338524 -1.124125
v 1.590782 16.338524 -0.903007
v 1.712655 16.338524 0.984713
v 1.565161 16.338524 1.205454
v 1.590782 16.338524 0.903007
v 1.443036 16.338524 1.124125
v -1.205454 16.338524 -1.565161
v -0.984713 16.338524 -1.712655
v -1.124125 16.338524 -1.443036
v -0.903007 16.338524 -1.590782
v -1.590782 16.338524 -0.903007
v -1.443036 16.338524 -1.124125
v -1.565161 16.338524 -1.205454
v -1.712655 16.338524 -0.984713
v 1.205454 16.338524 1.565161
v 0.984713 16.338524 1.712655
v 1.124125 16.338524 1.443036
v 0.903007 16.338524 1.590782
v 0.448561 16.407618 -0.184423
v 0.239128 16.315516 0.000000
v 0.448561 16.407618 0.184423
v 0.663331 16.407618 0.000000
v -0.448561 16.407618 -0.184423
v -0.663331 16.407618 0.000000
v -0.448561 16.407618 0.184423
v -0.239128 16.315516 0.000000
v 0.171025 16.518341 -0.184423
v 0.131138 16.386208 0.000000
v 0.171025 16.518341 0.184423
v 0.209871 16.647022 0.000000
v -0.171025 16.518341 -0.184423
v -0.209871 16.647022 0.000000
v -0.171025 16.518341 0.184423
v -0.131138 16.386208 0.000000
vn -0.0000 1.0000 -0.0000
vn -0.0000 -1.0000 -0.0000
vn 0.4277 -0.0000 -0.9039
vn 0.2905 -0.0000 -0.9569
vn 0.9569 -0.0000 -0.2905
vn 0.9039 -0.0000 -0.4277
vn 0.9039 -0.0000 0.4277
vn 0.9569 -0.0000 0.2905
vn -0.4277 -0.0000 0.9039
vn -0.2905 -0.0000 0.9569
vn 0.7730 -0.0000 -0.6344
vn 0.6344 -0.0000 -0.7730
vn -0.6344 -0.0000 -0.7730
vn -0.7730 -0.0000 -0.6344
vn 0.6344 -0.0000 0.7730
vn 0.7730 -0.0000 0.6344
vn -0.7730 -0.0000 0.6344
vn -0.6344 -0.0000 0.7730
vn 0.6228 -0.2665 -0.7356
vn 0.6678 0.1951 0.7183
vn -0.9039 -0.0000 0.4277
vn 0.5556 -0.0000 0.8315
vn -0.5556 -0.0000 -0.8315
vn -0.5543 -0.0000 -0.8323
vn -0.8155 -0.0157 -0.5785
vn -0.8466 -0.0157 -0.5320
vn -0.8315 -0.0000 0.5556
vn 0.5569 -0.0000 0.8306
vn 0.5785 -0.0157 -0.8155
vn -0.4277 -0.0000 -0.9039
vn 0.8466 -0.0157 -0.5320
vn -0.5556 -0.0000 0.8315
vn -0.9039 -0.0000 -0.4277
vn 0.4277 -0.0000 0.9039
vn 0.5320 -0.0157 -0.8466
vn 0.8155 -0.0157 0.5785
vn -0.9569 -0.0000 -0.2905
vn -0.9569 -0.0000 0.2905
vn 0.2905 -0.0000 0.9569
vn -0.2905 -0.0000 -0.9569
vn -0.7895 -0.3136 -0.5275
vn -0.8155 -0.0157 0.5785
vn -0.5320 -0.0157 0.8466
vn 0.8315 -0.0000 -0.5556
vn 0.8466 -0.0157 0.5320
vn -0.8466 -0.0157 0.5320
vn 0.5320 -0.0157 0.8466
vn 0.7895 -0.3136 0.5275
vn 0.8155 -0.0157 -0.5785
vn -0.5275 -0.3136 0.7895
vn 0.5275 -0.3136 -0.7895
vn -0.5785 -0.0157 -0.8155
vn -0.5275 -0.3136 -0.7895
vn -0.7895 -0.3136 0.5275
vn 0.5275 -0.3136 0.7895
vn 0.8315 -0.0000 0.5556
vn -0.5320 -0.0157 -0.8466
vn 0.5556 -0.0000 -0.8315
vn -0.5785 -0.0157 0.8155
vn 0.7895 -0.3136 -0.5275
vn 0.5785 -0.0157 0.8155
vn -0.8315 -0.0000 -0.5556
vn -0.8306 -0.0000 0.5569
vn 0.8323 -0.0000 -0.5543
vn 0.8306 -0.0000 -0.5569
vn -0.5569 -0.0000 -0.8306
vn -0.8323 -0.0000 0.5543
vn 0.5543 -0.0000 0.8323
vn 0.5543 -0.0000 -0.8323
vn -0.8323 -0.0000 -0.5543
vn -0.5543 -0.0000 0.8323
vn 0.8306 -0.0000 0.5569
vn 0.8323 -0.0000 0.5543
vn -0.5569 -0.0000 0.8306
vn 0.5569 -0.0000 -0.8306
vn -0.8306 -0.0000 -0.5569
vn -0.3685 0.7694 0.5218
vn 0.3264 -0.6936 -0.6422
vn -0.6228 -0.2665 -0.7356
vn -0.6678 0.1951 0.7183
vn 0.6678 0.1951 -0.7183
vn -0.6228 -0.2665 0.7356
vn 0.6228 -0.2665 0.7356
vn -0.6678 0.1951 -0.7183
vn -0.9573 0.2890 -0.0000
vn 0.9573 0.2890 -0.0000
vn 0.3685 0.7694 -0.5218
vn -0.3264 -0.6936 0.6422
vn 0.3264 -0.6936 0.6422
vn -0.3685 0.7694 -0.5218
vn 0.3685 0.7694 0.5218
vn -0.3264 -0.6936 -0.6422
vt 0.122138 0.264232
vt 0.185836 0.300492
vt 0.183501 0.311736
vt 0.113376 0.272466
vt 0.353539 0.469079
vt 0.320126 0.407265
vt 0.328015 0.399376
vt 0.364273 0.466961
vt 0.086687 0.488528
vt 0.086687 0.522159
vt 0.075960 0.524310
vt 0.075960 0.486377
vt 0.123968 0.603423
vt 0.185783 0.636835
vt 0.183665 0.647569
vt 0.116080 0.611311
vt 0.205232 0.640704
vt 0.238863 0.640704
vt 0.241014 0.651431
vt 0.203081 0.651431
vt 0.320126 0.603423
vt 0.353539 0.541608
vt 0.364273 0.543726
vt 0.328014 0.611311
vt 0.357407 0.522159
vt 0.357407 0.488528
vt 0.368135 0.486377
vt 0.368135 0.524310
vt 0.260430 0.647569
vt 0.333273 0.616570
vt 0.261845 0.654725
vt 0.333919 0.274089
vt 0.370775 0.203785
vt 0.378221 0.205143
vt 0.339409 0.279501
vt 0.068807 0.525741
vt 0.068807 0.484946
vt 0.181935 0.319251
vt 0.107431 0.278052
vt 0.183665 0.363118
vt 0.116080 0.399376
vt 0.110821 0.394118
vt 0.182250 0.355963
vt 0.125349 0.056921
vt 0.084497 0.121481
vt 0.077406 0.119489
vt 0.120755 0.051313
vt 0.182250 0.654725
vt 0.110821 0.616569
vt 0.194141 0.029033
vt 0.193197 0.023771
vt 0.374404 0.183520
vt 0.373525 0.144276
vt 0.380890 0.142603
vt 0.381860 0.184856
vt 0.203929 0.315950
vt 0.243648 0.316092
vt 0.245149 0.323586
vt 0.202382 0.323460
vt 0.238377 0.032263
vt 0.206582 0.034173
vt 0.203795 0.027182
vt 0.239100 0.021862
vt 0.132282 0.065281
vt 0.095170 0.124408
vt 0.258312 0.636835
vt 0.325692 0.265975
vt 0.359628 0.201768
vt 0.090556 0.541608
vt 0.079822 0.543726
vt 0.321802 0.064774
vt 0.257751 0.034284
vt 0.258871 0.023401
vt 0.329745 0.056110
vt 0.185783 0.373852
vt 0.123968 0.407264
vt 0.016538 0.096348
vt 0.016538 0.015368
vt 0.038805 0.015368
vt 0.038805 0.096348
vt 0.016538 0.257684
vt 0.016538 0.176703
vt 0.038805 0.176703
vt 0.038805 0.257684
vt 0.016538 0.338664
vt 0.038805 0.338664
vt 0.016538 0.580980
vt 0.016538 0.500000
vt 0.038805 0.500000
vt 0.038805 0.580980
vt 0.016538 0.156923
vt 0.016538 0.116128
vt 0.038805 0.116128
vt 0.038805 0.156923
vt 0.016538 0.883872
vt 0.016538 0.843077
vt 0.038805 0.843077
vt 0.038805 0.883872
vt 0.016538 0.399239
vt 0.016538 0.358444
vt 0.038805 0.358444
vt 0.038805 0.399239
vt 0.371428 0.545141
vt 0.016538 0.641555
vt 0.016538 0.600761
vt 0.038805 0.600761
vt 0.038805 0.641555
vt 0.079822 0.466961
vt 0.072666 0.465546
vt 0.241014 0.359256
vt 0.203081 0.359256
vt 0.201650 0.352104
vt 0.242445 0.352104
vt 0.375287 0.484946
vt 0.375287 0.525741
vt 0.260430 0.363118
vt 0.261845 0.355963
vt 0.333273 0.394118
vt 0.202553 0.022056
vt 0.239431 0.014852
vt 0.371428 0.465546
vt 0.072666 0.545141
vt 0.205547 0.126161
vt 0.205338 0.145482
vt 0.185945 0.144959
vt 0.186593 0.125875
vt 0.261534 0.465857
vt 0.261663 0.485176
vt 0.242086 0.485305
vt 0.242215 0.465728
vt 0.159371 0.825179
vt 0.150982 0.843130
vt 0.129679 0.826045
vt 0.143810 0.809541
vt 0.261663 0.525511
vt 0.261534 0.544831
vt 0.242215 0.544959
vt 0.242086 0.525382
vt 0.133069 0.757541
vt 0.114923 0.764476
vt 0.109649 0.738055
vt 0.129240 0.730503
vt 0.201880 0.465728
vt 0.202009 0.485305
vt 0.182432 0.485176
vt 0.182560 0.465857
vt 0.265210 0.186209
vt 0.265070 0.205894
vt 0.245392 0.206026
vt 0.245282 0.186077
vt 0.202009 0.525382
vt 0.201880 0.544959
vt 0.182560 0.544831
vt 0.182432 0.525511
vt 0.078945 0.140894
vt 0.071771 0.138862
vt 0.038805 0.661336
vt 0.016538 0.661336
vt 0.533315 0.064540
vt 0.513484 0.064540
vt 0.513484 0.046164
vt 0.533315 0.046164
vt 0.431430 0.437221
vt 0.451260 0.437221
vt 0.451260 0.458094
vt 0.431430 0.458094
vt 0.368964 0.124272
vt 0.376312 0.122613
vt 0.410574 0.384781
vt 0.410558 0.373840
vt 0.431430 0.373808
vt 0.431447 0.384749
vt 0.467325 0.946578
vt 0.466384 0.957479
vt 0.448593 0.949850
vt 0.449019 0.944978
vt 0.245159 0.125914
vt 0.245247 0.145561
vt 0.264524 0.125912
vt 0.357943 0.126736
vt 0.362495 0.146789
vt 0.264883 0.145276
vt 0.090556 0.469079
vt 0.363236 0.181499
vt 0.413336 0.876574
vt 0.412394 0.865673
vt 0.430701 0.864074
vt 0.431126 0.868945
vt 0.087608 0.901672
vt 0.107404 0.901672
vt 0.107404 0.922544
vt 0.087608 0.922544
vt 0.078817 0.200188
vt 0.071270 0.201206
vt 0.068727 0.180701
vt 0.076225 0.179745
vt 0.472132 0.373840
vt 0.472115 0.384781
vt 0.451243 0.384749
vt 0.451260 0.373808
vt 0.410883 0.550279
vt 0.411825 0.539378
vt 0.429615 0.547007
vt 0.429189 0.551878
vt 0.204650 0.185793
vt 0.204164 0.205706
vt 0.087456 0.178261
vt 0.184751 0.185567
vt 0.184490 0.205241
vt 0.090072 0.198652
vt 0.206272 0.304701
vt 0.194317 0.036599
vt 0.242445 0.658584
vt 0.038805 0.903652
vt 0.016538 0.903652
vt 0.412394 0.712088
vt 0.413336 0.701187
vt 0.431126 0.708816
vt 0.430700 0.713687
vt 0.431479 0.184379
vt 0.451275 0.184379
vt 0.451275 0.205252
vt 0.431479 0.205252
vt 0.196259 0.032185
vt 0.196251 0.032201
vt 0.196243 0.032181
vt 0.196257 0.032047
vt 0.429189 0.926603
vt 0.449019 0.926603
vt 0.429189 0.944978
vt 0.258312 0.373852
vt 0.238863 0.369984
vt 0.241398 0.304869
vt 0.261774 0.300828
vt 0.201650 0.658584
vt 0.016538 0.823296
vt 0.038805 0.823296
vt 0.038805 0.419020
vt 0.016538 0.419020
vt 0.466384 0.620283
vt 0.467325 0.631183
vt 0.449019 0.632783
vt 0.448593 0.627911
vt 0.431430 0.352936
vt 0.451260 0.352936
vt 0.259572 0.016043
vt 0.263988 0.312013
vt 0.265486 0.319472
vt 0.451243 0.489907
vt 0.431447 0.489907
vt 0.431447 0.469035
vt 0.451243 0.469035
vt 0.468837 0.865673
vt 0.467895 0.876574
vt 0.450105 0.868945
vt 0.450531 0.864074
vt 0.205232 0.369984
vt 0.089677 0.143911
vt 0.335134 0.050226
vt 0.016538 0.742316
vt 0.038805 0.742316
vt 0.016538 0.984632
vt 0.038805 0.984632
vt 0.429615 0.949850
vt 0.429189 0.794592
vt 0.429615 0.789720
vt 0.448594 0.789720
vt 0.449019 0.794592
vt 0.534826 0.115645
vt 0.534400 0.120517
vt 0.515421 0.120517
vt 0.514996 0.115646
vt 0.448594 0.547007
vt 0.449019 0.551878
vt 0.513910 0.041292
vt 0.532889 0.041292
vt 0.429189 0.632783
vt 0.429615 0.627911
vt 0.450105 0.708816
vt 0.450531 0.713687
vt 0.429206 0.608559
vt 0.449002 0.608559
vt 0.467895 0.701187
vt 0.468837 0.712088
vt 0.466384 0.539378
vt 0.467325 0.550279
vt 0.449019 0.812968
vt 0.429189 0.812968
vt 0.411824 0.957479
vt 0.410883 0.946578
vt 0.495178 0.044564
vt 0.496120 0.033664
vt 0.410883 0.792992
vt 0.411825 0.782092
vt 0.429206 0.527655
vt 0.449002 0.527654
vt 0.550679 0.033664
vt 0.551621 0.044564
vt 0.450514 0.888298
vt 0.430717 0.888298
vt 0.449002 0.969202
vt 0.429206 0.969202
vt 0.466384 0.782092
vt 0.467325 0.792992
vt 0.513501 0.021940
vt 0.533298 0.021940
vt 0.429206 0.770368
vt 0.449002 0.770368
vt 0.430717 0.689464
vt 0.450514 0.689464
vt 0.514996 0.097270
vt 0.534826 0.097270
vt 0.449019 0.651159
vt 0.429189 0.651159
vt 0.553132 0.117245
vt 0.552191 0.128146
vt 0.430701 0.845698
vt 0.450531 0.845698
vt 0.410883 0.631183
vt 0.411824 0.620283
vt 0.534809 0.139869
vt 0.515013 0.139869
vt 0.497631 0.128146
vt 0.496690 0.117245
vt 0.450531 0.732063
vt 0.430700 0.732063
vt 0.449019 0.570254
vt 0.429189 0.570254
vt 0.451260 0.289522
vt 0.451243 0.300463
vt 0.431447 0.300463
vt 0.431430 0.289522
vt 0.087591 0.933486
vt 0.107421 0.933486
vt 0.431462 0.216193
vt 0.451292 0.216193
vt 0.431462 0.131907
vt 0.431479 0.120966
vt 0.451275 0.120966
vt 0.451292 0.131907
vt 0.196238 0.032374
vt 0.196240 0.032239
vt 0.451292 0.036665
vt 0.451275 0.047606
vt 0.431479 0.047606
vt 0.431462 0.036665
vt 0.472132 0.458126
vt 0.472116 0.469067
vt 0.196252 0.032219
vt 0.196256 0.032237
vt 0.410575 0.469067
vt 0.410558 0.458126
vt 0.107421 0.954358
vt 0.087591 0.954358
vt 0.431479 0.100094
vt 0.451275 0.100094
vt 0.451243 0.321335
vt 0.431447 0.321335
vt 0.066719 0.933453
vt 0.066736 0.922512
vt 0.128277 0.922512
vt 0.128293 0.933453
vt 0.431462 0.015792
vt 0.451292 0.015792
vt 0.451292 0.237065
vt 0.431462 0.237065
vt 0.472165 0.036697
vt 0.472148 0.047638
vt 0.451292 0.152779
vt 0.431462 0.152779
vt 0.410590 0.216160
vt 0.410607 0.205219
vt 0.451275 0.068478
vt 0.431479 0.068478
vt 0.431430 0.268650
vt 0.451260 0.268650
vt 0.410590 0.131875
vt 0.410607 0.120934
vt 0.472148 0.205219
vt 0.472165 0.216160
vt 0.472132 0.289554
vt 0.472115 0.300495
vt 0.410607 0.047638
vt 0.410590 0.036697
vt 0.472148 0.120934
vt 0.472165 0.131875
vt 0.451243 0.405621
vt 0.431447 0.405621
vt 0.410575 0.300495
vt 0.410558 0.289554
vt 0.120571 0.844963
vt 0.100980 0.837411
vt 0.091351 0.817535
vt 0.106492 0.809414
vt 0.123088 0.804966
vt 0.139856 0.800687
vt 0.079237 0.736222
vt 0.070849 0.718271
vt 0.086410 0.702632
vt 0.100541 0.719137
vt 0.115297 0.871384
vt 0.097151 0.864449
vt 0.087714 0.753701
vt 0.151473 0.750202
vt 0.150839 0.728149
vt 0.078746 0.857110
vt 0.079380 0.835057
vt 0.142505 0.860609
vt 0.090364 0.693779
vt 0.089742 0.676485
vt 0.106299 0.680934
vt 0.107132 0.698058
vt 0.123921 0.787842
vt 0.140478 0.783393
vt 0.123728 0.702506
vt 0.138869 0.710628
vt 0.154020 0.718989
vt 0.076200 0.825897
s 1
f 5/1/1 77/2/1 85/3/1 13/4/1
f 26/5/2 1/6/2 12/7/2 34/8/2
f 28/9/2 49/10/2 57/11/2 36/12/2
f 4/13/2 115/14/2 123/15/2 10/16/2
f 116/17/2 73/18/2 81/19/2 124/20/2
f 2/21/2 51/22/2 59/23/2 9/24/2
f 52/25/2 25/26/2 33/27/2 60/28/2
f 82/29/2 9/24/2 17/30/2 89/31/2
f 14/32/1 61/33/1 70/34/1 22/35/1
f 36/12/2 57/11/2 66/36/2 44/37/2
f 13/4/1 85/3/1 94/38/1 21/39/1
f 122/40/2 11/41/2 19/42/2 129/43/2
f 16/44/1 37/45/1 46/46/1 24/47/1
f 10/16/2 123/15/2 132/48/2 18/49/2
f 88/50/1 16/44/1 24/47/1 96/51/1
f 62/52/1 39/53/1 47/54/1 69/55/1
f 86/56/1 127/57/1 135/58/1 93/59/1
f 118/60/1 79/61/1 87/62/1 125/63/1
f 8/64/1 29/65/1 37/45/1 16/44/1
f 74/66/2 2/21/2 9/24/2 82/29/2
f 6/67/1 53/68/1 61/33/1 14/32/1
f 50/69/2 4/13/2 10/16/2 58/70/2
f 7/71/1 117/72/1 126/73/1 15/74/1
f 114/75/2 3/76/2 11/41/2 122/40/2
f 41/77/3 20/78/4 24/79/4 46/80/3
f 17/81/5 68/82/6 72/83/6 21/84/5
f 89/85/7 17/81/8 21/84/8 94/86/7
f 65/87/9 18/88/10 22/89/10 70/90/9
f 67/91/11 42/92/12 45/93/12 71/94/11
f 92/95/13 130/96/14 134/97/14 95/98/13
f 131/99/15 90/100/16 93/101/16 135/102/15
f 9/24/2 59/23/2 68/103/2 17/30/2
f 44/104/17 66/105/18 69/106/18 47/107/17
f 11/41/2 35/108/2 43/109/2 19/42/2
f 84/110/2 121/111/2 130/112/2 92/113/2
f 60/28/2 33/27/2 42/114/2 67/115/2
f 12/7/2 83/116/2 91/117/2 20/118/2
f 125/63/1 87/62/1 95/119/1 134/120/1
f 34/8/2 12/7/2 20/118/2 41/121/2
f 58/70/2 10/16/2 18/49/2 65/122/2
f 97/123/1 98/124/1 99/125/1 100/126/1
f 101/127/2 102/128/2 103/129/2 104/130/2
f 139/131/19 140/132/19 221/133/19 224/134/19
f 109/135/2 110/136/2 111/137/2 112/138/2
f 106/139/20 107/140/20 220/141/20 219/142/20
f 141/143/2 142/144/2 143/145/2 144/146/2
f 145/147/1 146/148/1 147/149/1 148/150/1
f 149/151/2 150/152/2 151/153/2 152/154/2
f 38/155/1 45/156/1 46/46/1 37/45/1
f 34/8/2 41/121/2 42/114/2 33/27/2
f 44/104/17 47/107/17 48/157/21 43/158/21
f 41/77/3 46/80/3 45/93/12 42/92/12
f 75/159/22 76/160/22 176/161/22 175/162/22
f 119/163/23 120/164/23 216/165/23 215/166/23
f 36/12/2 44/37/2 43/109/2 35/108/2
f 40/167/1 48/168/1 47/54/1 39/53/1
f 63/169/24 55/170/24 199/171/24 197/172/24
f 26/173/25 34/174/25 154/175/25 156/176/25
f 97/123/1 140/177/1 139/178/1 98/124/1
f 137/179/1 32/180/1 31/181/1 138/182/1
f 101/127/2 26/5/2 25/26/2 102/128/2
f 141/143/2 104/130/2 103/129/2 142/144/2
f 27/183/2 144/146/2 143/145/2 28/9/2
f 145/147/1 54/184/1 53/68/1 146/148/1
f 62/52/1 69/55/1 70/34/1 61/33/1
f 60/28/2 67/115/2 68/103/2 59/23/2
f 58/70/2 65/122/2 66/36/2 57/11/2
f 65/87/9 70/90/9 69/106/18 66/105/18
f 67/91/11 71/94/11 72/83/6 68/82/6
f 57/185/26 49/186/26 165/187/26 163/188/26
f 40/189/27 39/190/27 189/191/27 190/192/27
f 64/193/1 72/194/1 71/195/1 63/196/1
f 56/197/28 64/198/28 198/199/28 200/200/28
f 74/201/29 82/202/29 170/203/29 172/204/29
f 105/205/1 148/150/1 147/149/1 106/206/1
f 55/207/1 108/208/1 107/209/1 56/210/1
f 49/10/2 152/154/2 151/153/2 50/69/2
f 109/135/2 52/25/2 51/22/2 110/136/2
f 149/151/2 112/138/2 111/137/2 150/152/2
f 110/136/2 74/66/2 73/18/2 111/137/2
f 77/2/1 107/209/1 106/206/1 78/211/1
f 102/128/2 109/135/2 112/138/2 103/129/2
f 108/208/1 99/125/1 98/124/1 105/205/1
f 100/126/1 80/212/1 79/61/1 97/123/1
f 86/56/1 93/59/1 94/38/1 85/3/1
f 82/29/2 89/31/2 90/213/2 81/19/2
f 92/95/13 95/98/13 96/214/30 91/215/30
f 89/85/7 94/86/7 93/101/16 90/100/16
f 116/216/31 124/217/31 178/218/31 184/219/31
f 62/220/32 61/221/32 193/222/32 194/223/32
f 84/110/2 92/113/2 91/117/2 83/116/2
f 88/50/1 96/51/1 95/119/1 87/62/1
f 88/224/23 87/225/23 205/226/23 206/227/23
f 25/228/32 26/229/32 156/176/32 155/230/32
f 75/231/2 101/127/2 104/130/2 76/232/2
f 150/152/2 116/17/2 115/14/2 151/153/2
f 119/233/1 147/149/1 146/148/1 120/234/1
f 142/144/2 149/151/2 152/154/2 143/145/2
f 148/150/1 139/178/1 138/182/1 145/147/1
f 140/177/1 118/60/1 117/72/1 137/179/1
f 124/20/2 131/235/2 132/48/2 123/15/2
f 122/40/2 129/43/2 130/112/2 121/111/2
f 129/236/33 133/237/33 134/97/14 130/96/14
f 131/99/15 135/102/15 136/238/34 132/239/34
f 121/240/35 113/241/35 181/242/35 179/243/35
f 55/244/27 56/245/27 200/200/27 199/171/27
f 125/63/1 134/120/1 133/246/1 126/73/1
f 128/247/1 136/248/1 135/58/1 127/57/1
f 128/249/22 127/250/22 213/251/22 214/252/22
f 50/253/36 58/254/36 164/255/36 166/256/36
f 113/257/2 141/143/2 144/146/2 114/75/2
f 30/258/1 55/207/1 63/196/1 38/155/1
f 54/184/1 31/181/1 39/53/1 62/52/1
f 141/143/2 113/257/2 76/232/2 104/130/2
f 149/151/2 142/144/2 103/129/2 112/138/2
f 3/76/2 114/75/2 144/146/2 27/183/2
f 101/127/2 75/231/2 1/6/2 26/5/2
f 56/210/1 5/1/1 13/4/1 64/193/1
f 3/76/2 27/183/2 35/108/2 11/41/2
f 32/180/1 7/71/1 15/74/1 40/167/1
f 140/177/1 97/123/1 79/61/1 118/60/1
f 148/150/1 105/205/1 98/124/1 139/178/1
f 137/179/1 117/72/1 7/71/1 32/180/1
f 29/65/1 8/64/1 80/212/1 100/126/1
f 124/20/2 81/19/2 90/213/2 131/235/2
f 15/74/1 126/73/1 133/246/1 23/259/1
f 64/193/1 13/4/1 21/39/1 72/194/1
f 40/167/1 15/74/1 23/259/1 48/168/1
f 129/236/33 19/260/37 23/261/37 133/237/33
f 19/260/38 43/158/21 48/157/21 23/261/38
f 49/10/2 28/9/2 143/145/2 152/154/2
f 116/17/2 150/152/2 111/137/2 73/18/2
f 74/66/2 110/136/2 51/22/2 2/21/2
f 6/67/1 120/234/1 146/148/1 53/68/1
f 102/128/2 25/26/2 52/25/2 109/135/2
f 54/184/1 145/147/1 138/182/1 31/181/1
f 119/233/1 78/211/1 106/206/1 147/149/1
f 77/2/1 5/1/1 56/210/1 107/209/1
f 151/153/2 115/14/2 4/13/2 50/69/2
f 55/207/1 30/258/1 99/125/1 108/208/1
f 78/211/1 119/233/1 127/57/1 86/56/1
f 1/6/2 75/231/2 83/116/2 12/7/2
f 120/234/1 6/67/1 14/32/1 128/247/1
f 76/232/2 113/257/2 121/111/2 84/110/2
f 29/65/1 100/126/1 99/125/1 30/258/1
f 38/155/1 63/196/1 71/195/1 45/156/1
f 128/247/1 14/32/1 22/35/1 136/248/1
f 80/212/1 8/64/1 16/44/1 88/50/1
f 18/88/39 132/239/34 136/238/34 22/89/39
f 20/262/40 91/215/30 96/214/30 24/263/40
f 156/176/2 154/175/2 153/264/2 155/230/2
f 160/265/2 158/266/2 157/267/2 159/268/2
f 166/256/2 164/255/2 163/188/2 165/187/2
f 168/269/2 162/270/2 161/271/2 167/272/2
f 172/204/2 170/203/2 169/273/2 171/274/2
f 176/161/2 174/275/2 173/276/2 175/162/2
f 182/277/2 180/278/2 179/243/2 181/242/2
f 184/219/2 178/218/2 177/279/2 183/280/2
f 122/281/41 121/282/41 179/243/41 180/278/41
f 123/283/42 115/284/42 183/280/42 177/279/42
f 81/285/43 73/286/43 171/274/43 169/273/43
f 27/287/44 28/288/44 160/265/44 159/268/44
f 33/289/45 25/290/45 155/230/45 153/264/45
f 76/291/46 84/292/46 174/275/46 176/161/46
f 28/293/47 36/294/47 158/266/47 160/265/47
f 82/295/48 81/296/48 169/273/48 170/203/48
f 83/297/49 75/298/49 175/162/49 173/276/49
f 58/299/50 57/300/50 163/188/50 164/255/50
f 34/301/51 33/302/51 153/264/51 154/175/51
f 35/303/52 27/304/52 159/268/52 157/267/52
f 84/305/53 83/306/53 173/276/53 174/275/53
f 36/307/54 35/308/54 157/267/54 158/266/54
f 124/309/55 123/310/55 177/279/55 178/218/55
f 51/311/27 52/312/27 168/269/27 167/272/27
f 113/313/56 114/314/56 182/277/56 181/242/56
f 52/315/57 60/316/57 162/270/57 168/269/57
f 49/317/58 50/318/58 166/256/58 165/187/58
f 114/319/59 122/320/59 180/278/59 182/277/59
f 60/321/60 59/322/60 161/271/60 162/270/60
f 59/323/61 51/324/61 167/272/61 161/271/61
f 115/325/23 116/326/23 184/219/23 183/280/23
f 73/327/62 74/328/62 172/204/62 171/274/62
f 188/329/1 186/330/1 185/331/1 187/332/1
f 192/333/1 190/192/1 189/191/1 191/334/1
f 196/335/1 194/223/1 193/222/1 195/336/1
f 200/200/1 198/199/1 197/172/1 199/171/1
f 204/337/1 202/338/1 201/339/1 203/340/1
f 208/341/1 206/227/1 205/226/1 207/342/1
f 210/343/1 211/344/1 212/345/1 209/346/1
f 216/165/1 214/252/1 213/251/1 215/166/1
f 120/347/63 128/348/63 214/252/63 216/165/63
f 79/349/22 80/350/22 208/341/22 207/342/22
f 127/351/64 119/352/64 215/166/64 213/251/64
f 31/353/44 32/354/44 192/333/44 191/334/44
f 86/355/56 85/356/56 201/339/56 202/338/56
f 80/212/65 88/50/65 206/227/65 208/341/65
f 38/357/58 37/358/58 185/331/58 186/330/58
f 32/359/66 40/360/66 190/192/66 192/333/66
f 87/225/67 79/349/67 207/342/67 205/226/67
f 39/361/68 31/362/68 191/334/68 189/191/68
f 117/363/56 118/364/56 210/343/56 209/346/56
f 53/365/58 54/366/58 196/335/58 195/336/58
f 118/367/69 125/368/69 211/344/69 210/343/69
f 77/369/62 78/370/62 204/337/62 203/340/62
f 54/371/70 62/372/70 194/223/70 196/335/70
f 125/373/62 126/374/62 212/345/62 211/344/62
f 29/375/32 30/376/32 188/329/32 187/332/32
f 78/377/71 86/378/71 202/338/71 204/337/71
f 61/379/72 53/380/72 195/336/72 193/222/72
f 30/381/73 38/382/73 186/330/73 188/329/73
f 126/383/74 117/384/74 209/346/74 212/345/74
f 85/385/75 77/386/75 203/340/75 201/339/75
f 64/387/44 63/388/44 197/172/44 198/199/44
f 37/389/76 29/390/76 187/332/76 185/331/76
f 222/391/77 223/392/77 231/393/77 230/394/77
f 224/134/78 221/133/78 229/395/78 232/396/78
f 108/397/79 105/398/79 218/399/79 217/400/79
f 137/401/80 138/402/80 223/392/80 222/391/80
f 107/403/81 108/397/81 217/400/81 220/141/81
f 105/404/82 106/139/82 219/142/82 218/405/82
f 138/402/83 139/406/83 224/407/83 223/392/83
f 140/132/84 137/408/84 222/391/84 221/133/84
f 226/409/85 227/410/85 228/411/85 225/412/85
f 230/413/86 231/414/86 232/396/86 229/395/86
f 220/141/87 217/400/87 225/412/87 228/415/87
f 218/405/88 219/142/88 227/416/88 226/417/88
f 223/392/89 224/407/89 232/418/89 231/393/89
f 221/133/90 222/391/90 230/394/90 229/395/90
f 219/142/91 220/141/91 228/415/91 227/416/91
f 217/400/92 218/399/92 226/409/92 225/412/92
