# Blender 5.1.2
# www.blender.org
mtllib DoorwaySingleWareHouse.mtl
o DoorwaySingleWareHouse
v -0.099871 0.100005 2.500209
v -0.099871 0.100005 0.601307
v -0.099871 0.100005 -0.599923
v 0.099886 4.301661 -2.500488
v -0.099871 2.327184 -2.500488
v -0.099871 2.327184 2.500209
v -0.099871 4.301661 -2.500488
v -0.099871 4.301661 2.500209
v 0.099886 0.100005 -0.599923
v 0.099886 0.100005 -2.500488
v 0.099886 2.327184 -2.500488
v 0.099886 2.327184 2.500209
v 0.099886 0.100005 2.500209
v 0.099886 0.100005 0.601307
v 0.099886 2.327184 -0.599923
v 0.099886 2.327184 0.601307
v 0.099886 4.301661 2.500209
v -0.099871 0.100005 -2.500488
v -0.099871 2.327184 -0.602804
v -0.099871 2.327184 0.599867
v 0.099886 -0.100005 -0.599923
v -0.099871 -0.100005 -0.599923
v 0.099886 -0.100005 2.500209
v -0.099871 -0.100005 2.500209
v 0.099886 -0.100005 -2.500488
v 0.099886 -0.100005 0.601307
v -0.099871 -0.100005 0.601307
v -0.099871 -0.100005 -2.500488
vn 1.0000 -0.0000 -0.0000
vn 0.0036 -0.0003 -1.0000
vn -0.0000 -0.0000 -1.0000
vn -0.0072 0.0006 1.0000
vn -1.0000 -0.0000 -0.0000
vn -0.0000 -0.0000 1.0000
vn -0.0000 -1.0000 -0.0000
vn -0.0000 1.0000 -0.0000
vt 0.225897 0.365675
vt 0.757752 0.365675
vt 0.757752 0.575673
vt 0.555792 0.575673
vt 0.428034 0.575673
vt 0.225897 0.575673
vt 0.851674 0.575539
vt 0.872920 0.575539
vt 0.872919 0.812413
vt 0.851674 0.812413
vt 0.183126 0.365704
vt 0.204371 0.365704
vt 0.204371 0.575702
vt 0.183126 0.575702
vt 0.894250 0.812536
vt 0.873005 0.812429
vt 0.874202 0.575557
vt 0.895450 0.575665
vt 0.555927 0.575687
vt 0.428015 0.575687
vt 0.225902 0.575687
vt 0.225902 0.365689
vt 0.757757 0.365689
vt 0.757757 0.575687
vt 0.225648 0.812577
vt 0.204403 0.812577
vt 0.204403 0.575703
vt 0.225648 0.575703
vt 0.204403 0.365705
vt 0.225648 0.365705
vt 0.225897 0.812548
vt 0.428034 0.812548
vt 0.555792 0.812548
vt 0.757752 0.812548
vt 0.204371 0.812576
vt 0.183126 0.812576
vt 0.873005 0.447805
vt 0.894251 0.447759
vt 0.978780 -0.000000
vt 0.978780 0.531855
vt 0.957535 0.531855
vt 0.957535 -0.000000
vt 0.757757 0.812561
vt 0.555620 0.812561
vt 0.225902 0.812561
vt 0.427862 0.812561
vt 0.757752 0.833820
vt 0.555792 0.833820
vt 0.957535 0.329895
vt 0.936289 0.329895
vt 0.936289 0.202137
vt 0.957535 0.202137
vt 0.936289 -0.000000
vt 0.957535 -0.000000
vt 0.957535 0.531855
vt 0.936289 0.531855
vt 0.428034 0.833820
vt 0.225897 0.833820
vt 0.427862 0.833833
vt 0.225902 0.833833
vt 0.204371 0.833848
vt 0.183126 0.833848
vt 0.757757 0.833833
vt 0.555620 0.833833
vt 0.225648 0.833850
vt 0.204403 0.833850
vt 0.872919 0.940172
vt 0.851674 0.940172
s 0
usemtl M_WallWareHouse
f 4/1/1 17/2/1 12/3/1 16/4/1 15/5/1 11/6/1
f 20/7/2 16/8/2 14/9/2 2/10/2
f 7/11/3 4/12/3 11/13/3 5/14/3
f 3/15/4 9/16/4 15/17/4 19/18/4
f 19/19/5 20/20/5 6/21/5 8/22/5 7/23/5 5/24/5
f 1/25/6 13/26/6 12/27/6 6/28/6
f 17/29/6 8/30/6 6/28/6 12/27/6
f 10/31/1 11/6/1 15/5/1 9/32/1
f 14/33/1 16/4/1 12/3/1 13/34/1
f 5/14/3 11/13/3 10/35/3 18/36/3
f 19/18/7 15/17/7 16/37/7 20/38/7
f 7/39/8 8/40/8 17/41/8 4/42/8
f 18/43/5 3/44/5 19/19/5 5/24/5
f 1/45/5 6/21/5 20/20/5 2/46/5
f 14/33/1 13/34/1 23/47/1 26/48/1
f 26/49/7 27/50/7 22/51/7 21/52/7
f 22/51/7 28/53/7 25/54/7 21/52/7
f 23/55/7 24/56/7 27/50/7 26/49/7
f 14/33/1 26/48/1 21/57/1 9/32/1
f 10/31/1 9/32/1 21/57/1 25/58/1
f 1/45/5 2/46/5 27/59/5 24/60/5
f 18/36/3 10/35/3 25/61/3 28/62/3
f 3/44/5 18/43/5 28/63/5 22/64/5
f 13/26/6 1/25/6 24/65/6 23/66/6
f 27/59/5 2/46/5 3/44/5 22/64/5
f 2/10/8 14/9/8 9/67/8 3/68/8
