# Blender 5.1.2
# www.blender.org
mtllib DoorwayNonePrison.mtl
o DoorwayNonePrison
v 0.099878 4.301661 2.499758
v 0.099878 0.100005 2.499758
v -0.099878 4.301661 2.499758
v -0.099878 0.100005 2.499758
v -0.099878 0.100005 -2.500938
v -0.099878 4.301661 -2.500938
v 0.099878 4.301661 -2.500938
v 0.099878 0.100005 -2.500938
vn -0.0000 -0.0000 -1.0000
vn -0.0000 -0.0000 1.0000
vn -1.0000 -0.0000 -0.0000
vn 1.0000 -0.0000 -0.0000
vn -0.0000 1.0000 -0.0000
vn -0.0000 -1.0000 -0.0000
vt 0.977811 0.466717
vt 0.977811 0.000000
vt 1.000000 0.000000
vt 1.000000 0.466717
vt 0.791627 0.625042
vt 0.324910 0.625042
vt 0.324910 0.602853
vt 0.791627 0.602853
vt 0.466717 0.555474
vt 0.466717 0.000000
vt 0.933434 -0.000000
vt 0.933434 0.555474
vt 0.466717 0.000000
vt 0.466717 0.555474
vt 0.000000 0.555474
vt 0.000000 0.000000
vt 0.955622 0.000000
vt 0.977811 0.000000
vt 0.977811 0.555474
vt 0.955622 0.555474
vt 0.933434 0.555474
vt 0.933434 0.000000
vt 0.955622 0.000000
s 0
usemtl Material.005
f 7/1/1 8/2/1 5/3/1 6/4/1
f 2/5/2 1/6/2 3/7/2 4/8/2
f 3/9/3 6/10/3 5/11/3 4/12/3
f 2/13/4 8/14/4 7/15/4 1/16/4
f 3/17/5 1/18/5 7/19/5 6/20/5
f 5/20/6 8/21/6 2/22/6 4/23/6
