# Blender 5.1.2
# www.blender.org
mtllib DoorwaySinglePrison.mtl
o DoorwaySinglePrison
v -0.099871 0.100005 2.499758
v -0.099871 0.100005 0.600857
v -0.099871 0.100005 -0.600374
v 0.099886 4.301661 -2.500938
v -0.099871 2.327184 -2.500938
v -0.099871 2.327184 2.499758
v -0.099871 4.301661 -2.500938
v -0.099871 4.301661 2.499758
v 0.099886 0.100005 -0.600374
v 0.099886 0.100005 -2.500938
v 0.099886 2.327184 -2.500938
v 0.099886 2.327184 2.499758
v 0.099886 0.100005 2.499758
v 0.099886 0.100005 0.600857
v 0.099886 2.327184 -0.600374
v 0.099886 2.327184 0.600857
v 0.099886 4.301661 2.499758
v -0.099871 0.100005 -2.500938
v -0.099871 2.327184 -0.603254
v -0.099871 2.327184 0.599417
v 0.099886 4.301661 0.599417
v -0.099871 4.301661 0.599417
v 0.099886 4.301661 -0.603254
v -0.099871 4.301661 -0.603254
vn -1.0000 -0.0000 -0.0000
vn 0.0036 -0.0003 -1.0000
vn -0.0000 -0.0000 -1.0000
vn -0.0072 0.0006 1.0000
vn -0.0000 -0.0000 1.0000
vn 1.0000 -0.0000 -0.0000
vn -0.0000 -1.0000 -0.0000
vn -0.0000 1.0000 -0.0000
vt 0.219323 0.210793
vt 0.219323 0.344384
vt -0.000000 0.344384
vt -0.000000 0.210793
vt 0.072454 0.656237
vt 0.072454 0.634048
vt 0.319847 0.634048
vt 0.319847 0.656237
vt 0.055850 0.634048
vt 0.055850 0.611859
vt 0.275172 0.611859
vt 0.275172 0.634048
vt 0.778168 0.634050
vt 0.778168 0.656239
vt 0.530775 0.656239
vt 0.530775 0.634048
vt -0.000000 0.000000
vt 0.219323 0.000000
vt 0.989281 0.611859
vt 0.989281 0.634048
vt 0.741888 0.634048
vt 0.741888 0.611859
vt 0.522565 0.634048
vt 0.522565 0.611859
vt 0.933431 0.555472
vt 0.686039 0.555472
vt 0.686039 0.344360
vt 0.933431 0.344360
vt 0.933431 0.210928
vt 0.686039 0.210928
vt 0.686039 -0.000000
vt 0.933431 -0.000000
vt 0.522565 0.611859
vt 0.522565 0.634048
vt 0.160001 0.579027
vt 0.159681 0.601216
vt 0.026250 0.601216
vt 0.026410 0.579027
vt 0.933431 0.211088
vt 0.933431 0.000000
vt 0.955620 0.000000
vt 0.955620 0.211088
vt 0.466716 0.000000
vt 0.466716 0.211113
vt 0.466716 0.555472
vt 0.219323 0.555472
vt 0.466716 0.344544
vt 0.989281 0.634050
vt 0.989281 0.656239
vt 0.530775 0.634048
vt 0.530775 0.656237
vt 0.933431 0.344680
vt 0.955620 0.344680
vt 0.933431 0.555472
vt 0.955620 0.555472
vt -0.000000 0.555472
vt 0.466716 0.555472
vt 0.466716 0.344680
vt 0.466716 0.211088
vt 0.466716 0.000000
s 0
usemtl M_WallPrison
f 19/1/1 20/2/1 22/3/1 24/4/1
f 20/5/2 16/6/2 14/7/2 2/8/2
f 7/9/3 4/10/3 11/11/3 5/12/3
f 3/13/4 9/14/4 15/15/4 19/16/4
f 24/4/1 7/17/1 5/18/1 19/1/1
f 1/19/5 13/20/5 12/21/5 6/22/5
f 17/23/5 8/24/5 6/22/5 12/21/5
f 10/25/6 11/26/6 15/27/6 9/28/6
f 14/29/6 16/30/6 12/31/6 13/32/6
f 5/12/3 11/11/3 10/33/3 18/34/3
f 19/35/7 15/36/7 16/37/7 20/38/7
f 22/39/8 8/40/8 17/41/8 21/42/8
f 18/43/1 3/44/1 19/1/1 5/18/1
f 1/45/1 6/46/1 20/2/1 2/47/1
f 3/13/7 18/48/7 10/49/7 9/14/7
f 13/50/7 1/51/7 2/8/7 14/7/7
f 24/52/8 22/39/8 21/42/8 23/53/8
f 7/54/8 24/52/8 23/53/8 4/55/8
f 8/56/1 22/3/1 20/2/1 6/46/1
f 4/57/6 23/58/6 15/27/6 11/26/6
f 15/27/6 23/58/6 21/59/6 16/30/6
f 16/30/6 21/59/6 17/60/6 12/31/6
