# Blender 5.1.2
# www.blender.org
mtllib FloorBrokenSidePrison.mtl
o FloorBrokenSidePrison
v 3.001934 0.100005 2.499062
v -3.001934 0.018625 2.499062
v 3.001934 0.100005 -2.500938
v -3.001934 0.100005 -2.500938
v -3.001934 0.018625 1.665729
v -1.264315 -0.043022 0.832395
v -1.030604 -0.097865 -0.000938
v -1.791885 -0.166687 -0.877063
v -3.001934 0.100005 -1.667605
v 3.001934 0.100005 -1.667605
v 3.001934 0.100005 -0.834271
v 3.001934 0.100005 -0.000938
v 3.001934 0.100005 0.832395
v 3.001934 0.100005 1.665729
v 1.483831 0.100005 2.499062
v 1.483831 0.100005 -2.500938
v 1.483831 0.100005 -1.667605
v 1.483831 0.100005 -0.834271
v 1.483831 0.100005 -0.000938
v 1.483831 0.087653 0.832395
v 1.483831 0.100005 1.665729
v -1.366773 0.100005 2.499062
v -0.245332 0.100005 2.499062
v 0.362390 0.100005 2.499062
v -1.366773 0.071589 -2.500938
v -0.245332 0.100005 -2.500938
v 0.362390 0.100005 -2.500938
v -1.366773 -0.010208 -1.667605
v -0.245332 0.068896 -1.667605
v 0.362390 0.100005 -1.667605
v -1.172720 -0.101447 -0.943468
v -0.245332 0.004726 -0.834271
v 0.362390 0.047678 -0.834271
v -1.203704 -0.064914 -0.992579
v -0.245332 0.004470 -0.000938
v 0.362390 0.016596 -0.000938
v -2.586632 -0.229093 -0.978080
v -0.245332 0.034837 0.832395
v 0.362390 0.052640 0.832395
v -1.366773 0.077306 1.665729
v -0.245332 0.066760 1.665729
v 0.362390 0.056145 1.665729
v -1.339396 0.022350 0.832395
v -1.675054 -0.252505 -0.000938
v -1.827492 -0.141920 0.832395
v -2.706084 -0.040465 1.127675
v -1.476536 0.042635 0.859115
v 3.001934 -0.100005 2.499062
v -3.001934 -0.181385 2.499062
v 3.001934 -0.100005 -2.500938
v -3.001934 -0.100005 -2.500938
v -3.001934 -0.181385 1.665729
v -1.264315 -0.243032 0.832395
v -1.030604 -0.297876 -0.000938
v -1.791885 -0.366697 -0.877063
v -3.001934 -0.100005 -1.667605
v 3.001934 -0.100005 -1.667605
v 3.001934 -0.100005 -0.834271
v 3.001934 -0.100005 -0.000938
v 3.001934 -0.100005 0.832395
v 3.001934 -0.100005 1.665729
v 1.483831 -0.100005 2.499062
v 1.483831 -0.100005 -2.500938
v 1.483831 -0.100005 -1.667605
v 1.483831 -0.100005 -0.834271
v 1.483831 -0.100005 -0.000938
v 1.483831 -0.112358 0.832395
v 1.483831 -0.100005 1.665729
v -1.366773 -0.100005 2.499062
v -0.245332 -0.100005 2.499062
v 0.362390 -0.100005 2.499062
v -1.366773 -0.128421 -2.500938
v -0.245332 -0.100005 -2.500938
v 0.362390 -0.100005 -2.500938
v -1.366773 -0.210218 -1.667605
v -0.245332 -0.131115 -1.667605
v 0.362390 -0.100005 -1.667605
v -1.172720 -0.301457 -0.943468
v -0.245332 -0.195284 -0.834271
v 0.362390 -0.152332 -0.834271
v -1.203704 -0.264924 -0.992579
v -0.245332 -0.195540 -0.000938
v 0.362390 -0.183414 -0.000938
v -2.586632 -0.429103 -0.978080
v -0.245332 -0.165173 0.832395
v 0.362390 -0.147370 0.832395
v -1.366773 -0.122704 1.665729
v -0.245332 -0.133250 1.665729
v 0.362390 -0.143865 1.665729
v -1.339396 -0.177660 0.832395
v -1.675054 -0.452515 -0.000938
v -1.827492 -0.341930 0.832395
v -2.706084 -0.240475 1.127675
v -1.476536 -0.157375 0.859115
vn -0.0000 1.0000 -0.0000
vn -0.0041 1.0000 0.0074
vn -0.0041 1.0000 -0.0074
vn -0.0351 0.9993 -0.0095
vn -0.0527 0.9985 -0.0142
vn -0.0604 0.9980 0.0186
vn -0.0233 0.9992 0.0314
vn -0.0195 0.9995 -0.0263
vn -0.0428 0.9990 -0.0136
vn 0.0047 0.9994 -0.0335
vn 0.0087 0.9989 -0.0462
vn 0.0423 0.9979 0.0490
vn -0.0478 0.9966 0.0675
vn -0.0256 0.9995 0.0187
vn -0.0565 0.9954 -0.0772
vn -0.2033 0.9686 -0.1433
vn -0.0607 0.9957 0.0696
vn -0.1675 0.9835 0.0683
vn -0.0158 0.9608 0.2769
vn -0.0453 0.9988 0.0188
vn -0.0009 0.9986 -0.0521
vn -0.0992 0.9930 -0.0647
vn -0.0246 0.9989 -0.0398
vn -0.1213 0.9926 0.0079
vn -0.0776 0.9932 0.0867
vn -0.0059 0.9998 -0.0213
vn -0.0000 -1.0000 -0.0000
vn 0.0041 -1.0000 -0.0074
vn 0.0041 -1.0000 0.0074
vn 0.0351 -0.9993 0.0095
vn 0.0527 -0.9985 0.0142
vn 0.0604 -0.9980 -0.0186
vn 0.0233 -0.9992 -0.0314
vn 0.0195 -0.9995 0.0263
vn 0.0428 -0.9990 0.0136
vn -0.0047 -0.9994 0.0335
vn -0.0087 -0.9989 0.0462
vn -0.0423 -0.9979 -0.0490
vn 0.0478 -0.9966 -0.0675
vn 0.0256 -0.9995 -0.0187
vn 0.0565 -0.9954 0.0772
vn 0.2033 -0.9686 0.1433
vn 0.0607 -0.9957 -0.0696
vn 0.1675 -0.9835 -0.0683
vn 0.0158 -0.9608 -0.2769
vn 0.0453 -0.9988 -0.0188
vn 0.0009 -0.9986 0.0521
vn 0.0992 -0.9930 0.0647
vn 0.0246 -0.9989 0.0398
vn 0.1213 -0.9926 -0.0079
vn 0.0776 -0.9932 -0.0867
vn 0.0059 -0.9998 0.0213
vn -0.0000 -0.0000 1.0000
vn -0.9995 -0.0000 -0.0328
vn -0.0000 -0.0000 -1.0000
vn -1.0000 -0.0000 -0.0000
vn 1.0000 -0.0000 -0.0000
vn -0.8763 -0.0000 -0.4818
vn -0.1066 -0.0000 -0.9943
vn -0.2134 -0.0000 -0.9770
vn 0.1169 -0.0000 -0.9931
vn -0.9837 -0.0000 -0.1799
vn -0.8566 -0.0000 0.5159
vn 0.9909 -0.0000 -0.1348
vn 0.0105 -0.0000 0.9999
vn -0.9912 -0.0000 0.1322
vn -0.1630 -0.0000 0.9866
vt 0.850815 0.413807
vt 0.927405 0.413879
vt 0.927304 0.553406
vt 0.850713 0.553351
vt 0.467672 0.413898
vt 0.544270 0.413809
vt 0.544377 0.553343
vt 0.467796 0.553406
vt 0.620904 0.413727
vt 0.620953 0.553300
vt 0.697541 0.413716
vt 0.697539 0.553290
vt 0.774180 0.413737
vt 0.774124 0.553302
vt 0.774266 0.310559
vt 0.850851 0.310683
vt 0.697574 0.310307
vt 0.620897 0.310476
vt 0.544129 0.310708
vt 0.467520 0.310837
vt 0.927515 0.310834
vt 0.851410 0.001428
vt 0.927985 0.001509
vt 0.927855 0.151949
vt 0.851252 0.151779
vt 0.927627 0.254997
vt 0.850987 0.254838
vt 0.463992 0.001593
vt 0.540573 -0.000000
vt 0.544253 0.151012
vt 0.467118 0.151882
vt 0.544109 0.254742
vt 0.467418 0.254978
vt 0.777072 0.141638
vt 0.801527 0.028349
vt 0.774805 0.160746
vt 0.697555 0.181282
vt 0.697158 0.120201
vt 0.774808 0.108155
vt 0.620954 0.254467
vt 0.610593 0.168736
vt 0.615932 0.111378
vt 0.606681 0.166155
vt 0.610485 0.038234
vt 0.697628 0.254380
vt 0.774352 0.254669
vt 0.774516 0.154138
vt 0.077170 0.413807
vt 0.077271 0.553351
vt 0.000681 0.553407
vt 0.000579 0.413879
vt 0.460313 0.413898
vt 0.460188 0.553406
vt 0.383608 0.553343
vt 0.383715 0.413809
vt 0.307032 0.553300
vt 0.307081 0.413727
vt 0.230446 0.553290
vt 0.230443 0.413716
vt 0.153861 0.553302
vt 0.153804 0.413737
vt 0.153718 0.310560
vt 0.077134 0.310683
vt 0.230410 0.310307
vt 0.307088 0.310476
vt 0.383855 0.310708
vt 0.460465 0.310837
vt 0.000469 0.310834
vt 0.076575 0.001428
vt 0.076733 0.151779
vt 0.000130 0.151949
vt 0.000000 0.001509
vt 0.076998 0.254838
vt 0.000358 0.254997
vt 0.463992 0.001593
vt 0.460866 0.151882
vt 0.383731 0.151012
vt 0.387412 0.000000
vt 0.460566 0.254978
vt 0.383876 0.254742
vt 0.126457 0.028349
vt 0.150913 0.141638
vt 0.153180 0.160746
vt 0.153177 0.108155
vt 0.230826 0.120201
vt 0.230430 0.181282
vt 0.307031 0.254467
vt 0.312053 0.111378
vt 0.317391 0.168736
vt 0.321304 0.166155
vt 0.317500 0.038234
vt 0.230356 0.254380
vt 0.153469 0.154138
vt 0.153633 0.254669
vt 0.931537 0.412800
vt 0.949928 0.412551
vt 0.951820 0.552135
vt 0.933429 0.552384
vt 0.043546 0.654366
vt 0.061934 0.653961
vt 0.058570 0.730724
vt 0.040183 0.731129
vt 0.951819 -0.000000
vt 0.970211 -0.000000
vt 0.970211 0.139597
vt 0.951819 0.139597
vt 0.077026 0.553407
vt 0.095057 0.557029
vt 0.079965 0.632157
vt 0.061934 0.628535
vt 0.972824 0.000000
vt 0.991216 0.000000
vt 0.991216 0.076629
vt 0.972824 0.076629
vt 0.958399 0.906257
vt 0.976791 0.906143
vt 0.970211 0.999886
vt 0.951820 1.000000
vt 0.098183 0.554157
vt 0.116560 0.553406
vt 0.113434 0.610044
vt 0.095057 0.610794
vt 0.116560 0.686609
vt 0.098183 0.687359
vt 0.967173 0.854415
vt 0.985565 0.854301
vt 0.962113 0.638003
vt 0.980505 0.637889
vt 0.986858 0.695113
vt 0.968466 0.695226
vt 0.933429 0.000249
vt 0.951820 -0.000000
vt 0.946375 0.150448
vt 0.927985 0.150698
vt 0.930140 0.309688
vt 0.948530 0.309439
vt 0.020757 0.628322
vt 0.039119 0.629366
vt 0.040183 0.745341
vt 0.021820 0.744298
vt 0.947772 0.253561
vt 0.929382 0.253810
vt 0.970211 0.242719
vt 0.951819 0.242719
vt 0.951819 0.552198
vt 0.970211 0.552084
vt 0.976860 0.776453
vt 0.995252 0.776339
vt 0.040183 0.553812
vt 0.058570 0.553407
vt 0.095057 0.710685
vt 0.077026 0.707063
vt 0.021820 0.553407
vt 0.040183 0.554450
vt 0.018302 0.770967
vt -0.000000 0.772784
vt 0.002455 0.644741
vt 0.020757 0.642923
vt 0.954432 0.401723
vt 0.972824 0.401723
vt 0.970211 0.552084
vt 0.951819 0.552084
vt 0.972824 0.383145
vt 0.991216 0.383145
vt 0.991216 0.459774
vt 0.972824 0.459774
vt 0.951819 0.298602
vt 0.970211 0.298602
vt 0.972824 0.306516
vt 0.991216 0.306516
vt 0.972824 0.229887
vt 0.991216 0.229887
vt 0.000000 0.555224
vt 0.018302 0.553407
vt 0.972824 0.153258
vt 0.991216 0.153258
s 0
usemtl M_FloorPrison
f 21/1/1 15/2/1 1/3/1 14/4/1
f 16/5/1 17/6/1 10/7/1 3/8/1
f 17/6/1 18/9/1 11/10/1 10/7/1
f 18/9/1 19/11/1 12/12/1 11/10/1
f 19/11/2 20/13/2 13/14/2 12/12/2
f 20/13/3 21/1/3 14/4/3 13/14/3
f 39/15/4 42/16/4 21/1/4 20/13/4
f 36/17/5 39/15/5 20/13/5 19/11/5
f 33/18/6 36/17/6 19/11/6 18/9/6
f 30/19/7 33/18/7 18/9/7 17/6/7
f 27/20/1 30/19/1 17/6/1 16/5/1
f 42/16/8 24/21/8 15/2/8 21/1/8
f 5/22/9 2/23/9 22/24/9 40/25/9
f 40/25/10 22/24/10 23/26/10 41/27/10
f 41/27/11 23/26/11 24/21/11 42/16/11
f 4/28/12 9/29/12 28/30/12 25/31/12
f 25/31/13 28/30/13 29/32/13 26/33/13
f 26/33/14 29/32/14 30/19/14 27/20/14
f 5/22/15 40/25/15 47/34/15 46/35/15
f 6/36/16 7/37/16 44/38/16 45/39/16
f 29/32/17 32/40/17 33/18/17 30/19/17
f 7/37/18 31/41/18 8/42/18 44/38/18
f 34/43/19 28/30/19 9/29/19 37/44/19
f 32/40/20 35/45/20 36/17/20 33/18/20
f 41/27/21 38/46/21 43/47/21 40/25/21
f 38/46/22 35/45/22 7/37/22 6/36/22
f 35/45/23 38/46/23 39/15/23 36/17/23
f 35/45/24 32/40/24 31/41/24 7/37/24
f 32/40/25 29/32/25 28/30/25 34/43/25
f 38/46/26 41/27/26 42/16/26 39/15/26
f 68/48/27 61/49/27 48/50/27 62/51/27
f 63/52/27 50/53/27 57/54/27 64/55/27
f 64/55/27 57/54/27 58/56/27 65/57/27
f 65/57/27 58/56/27 59/58/27 66/59/27
f 66/59/28 59/58/28 60/60/28 67/61/28
f 67/61/29 60/60/29 61/49/29 68/48/29
f 86/62/30 67/61/30 68/48/30 89/63/30
f 83/64/31 66/59/31 67/61/31 86/62/31
f 80/65/32 65/57/32 66/59/32 83/64/32
f 77/66/33 64/55/33 65/57/33 80/65/33
f 74/67/27 63/52/27 64/55/27 77/66/27
f 89/63/34 68/48/34 62/51/34 71/68/34
f 52/69/35 87/70/35 69/71/35 49/72/35
f 87/70/36 88/73/36 70/74/36 69/71/36
f 88/73/37 89/63/37 71/68/37 70/74/37
f 51/75/38 72/76/38 75/77/38 56/78/38
f 72/76/39 73/79/39 76/80/39 75/77/39
f 73/79/40 74/67/40 77/66/40 76/80/40
f 52/69/41 93/81/41 94/82/41 87/70/41
f 53/83/42 92/84/42 91/85/42 54/86/42
f 76/80/43 77/66/43 80/65/43 79/87/43
f 54/86/44 91/85/44 55/88/44 78/89/44
f 81/90/45 84/91/45 56/78/45 75/77/45
f 79/87/46 80/65/46 83/64/46 82/92/46
f 88/73/47 87/70/47 90/93/47 85/94/47
f 85/94/48 53/83/48 54/86/48 82/92/48
f 82/92/49 83/64/49 86/62/49 85/94/49
f 82/92/50 54/86/50 78/89/50 79/87/50
f 79/87/51 81/90/51 75/77/51 76/80/51
f 85/94/52 86/62/52 89/63/52 88/73/52
f 15/95/53 62/96/53 48/97/53 1/98/53
f 43/99/54 90/100/54 87/101/54 40/102/54
f 3/103/55 50/104/55 63/105/55 16/106/55
f 4/107/56 51/108/56 56/109/56 9/110/56
f 1/111/57 48/112/57 61/113/57 14/114/57
f 6/115/53 53/116/53 85/117/53 38/118/53
f 46/119/58 93/120/58 52/121/58 5/122/58
f 5/122/56 52/121/56 49/123/56 2/124/56
f 45/125/53 92/126/53 53/116/53 6/115/53
f 31/127/59 78/128/59 55/129/59 8/130/59
f 2/131/53 49/132/53 69/133/53 22/134/53
f 24/135/53 71/136/53 62/96/53 15/95/53
f 47/137/60 94/138/60 93/139/60 46/140/60
f 22/134/53 69/133/53 70/141/53 23/142/53
f 16/106/55 63/105/55 74/143/55 27/144/55
f 32/145/61 79/146/61 78/128/61 31/127/61
f 44/147/62 91/148/62 92/126/62 45/125/62
f 38/149/55 85/150/55 90/100/55 43/99/55
f 23/142/53 70/141/53 71/136/53 24/135/53
f 9/110/63 56/109/63 84/151/63 37/152/63
f 40/153/64 87/154/64 94/138/64 47/137/64
f 37/155/65 84/156/65 81/157/65 34/158/65
f 25/159/55 72/160/55 51/161/55 4/162/55
f 8/130/66 55/129/66 91/148/66 44/147/66
f 10/163/57 57/164/57 50/165/57 3/166/57
f 26/167/55 73/168/55 72/160/55 25/159/55
f 11/169/57 58/170/57 57/164/57 10/163/57
f 27/144/55 74/143/55 73/168/55 26/167/55
f 12/171/57 59/172/57 58/170/57 11/169/57
f 34/158/67 81/157/67 79/173/67 32/174/67
f 13/175/57 60/176/57 59/172/57 12/171/57
f 14/114/57 61/113/57 60/176/57 13/175/57
