# Blender 5.1.2
# www.blender.org
mtllib FloorPrison.mtl
o FloorPrison
v 3.001934 0.100005 2.499062
v -3.001934 0.100005 2.499062
v 3.001934 -0.100005 -2.500938
v -3.001934 -0.100005 -2.500938
v -3.001934 -0.100005 2.499062
v 3.001934 -0.100005 2.499062
v 3.001934 0.100005 -2.500938
v -3.001934 0.100005 -2.500938
vn -0.0000 -0.0000 1.0000
vn -0.0000 -0.0000 -1.0000
vn 1.0000 -0.0000 -0.0000
vn -1.0000 -0.0000 -0.0000
vn -0.0000 1.0000 -0.0000
vn -0.0000 -1.0000 -0.0000
vt 0.962262 0.000000
vt 0.981131 0.000000
vt 0.981131 0.566401
vt 0.962262 0.566401
vt 0.962262 0.566401
vt 0.943394 0.566401
vt 0.943394 0.000000
vt 0.962262 0.000000
vt 0.981131 0.943393
vt 0.981131 0.471697
vt 1.000000 0.471697
vt 1.000000 0.943393
vt 0.981131 0.471697
vt 0.981131 -0.000000
vt 1.000000 -0.000000
vt 1.000000 0.471697
vt 0.000000 -0.000000
vt 0.471697 -0.000000
vt 0.471697 0.566401
vt 0.000000 0.566401
vt 0.471697 0.566401
vt 0.471697 0.000000
s 0
usemtl M_FloorPrison
f 2/1/1 5/2/1 6/3/1 1/4/1
f 7/5/2 3/6/2 4/7/2 8/8/2
f 7/9/3 1/10/3 6/11/3 3/12/3
f 2/13/4 8/14/4 4/15/4 5/16/4
f 8/17/5 2/18/5 1/19/5 7/20/5
f 3/6/6 6/21/6 5/22/6 4/7/6
