# Blender 5.1.2
# www.blender.org
mtllib RoofPrison.mtl
o RoofPrison
v 3.001934 -0.100005 -2.500938
v 3.001934 -0.100005 2.499062
v 3.001934 0.100005 2.499062
v 3.001934 0.100005 -2.500938
v -3.001934 0.100005 2.499062
v -3.001934 -0.100005 2.499062
v -3.001934 -0.100005 -2.500938
v -3.001934 0.100005 -2.500938
vn -0.0000 -0.0000 1.0000
vn -0.0000 -0.0000 -1.0000
vn 1.0000 -0.0000 -0.0000
vn -0.0000 -1.0000 -0.0000
vn -0.0000 1.0000 -0.0000
vn -1.0000 -0.0000 -0.0000
vt 0.943394 0.566401
vt 0.943393 0.000000
vt 0.962262 0.000000
vt 0.962262 0.566401
vt 0.962262 0.000000
vt 0.981131 0.000000
vt 0.981131 0.566401
vt 1.000000 0.943393
vt 0.981131 0.943393
vt 0.981131 0.471697
vt 1.000000 0.471697
vt 0.471697 0.000000
vt 0.943394 -0.000000
vt 0.943394 0.566401
vt 0.471697 0.566401
vt 0.000000 -0.000000
vt 0.471697 -0.000000
vt 0.471697 0.566401
vt 0.000000 0.566401
vt 1.000000 -0.000000
vt 0.981131 -0.000000
s 0
usemtl M_RoofPrison
f 3/1/1 5/2/1 6/3/1 2/4/1
f 1/4/2 7/5/2 8/6/2 4/7/2
f 1/8/3 4/9/3 3/10/3 2/11/3
f 6/12/4 7/13/4 1/14/4 2/15/4
f 8/16/5 5/17/5 3/18/5 4/19/5
f 7/20/6 6/11/6 5/10/6 8/21/6
