# Blender 5.1.2
# www.blender.org
mtllib WallCellsBasePrison.mtl
o WallCellsBasePrison
v 3.001934 0.100005 -2.500938
v -3.001934 0.100005 -2.500938
v 3.001934 1.170891 -3.339877
v -3.001934 1.170891 -3.339877
v 3.001934 7.230776 -3.339877
v -3.001934 7.230776 -3.339877
v 3.001934 8.301661 -2.500938
v -3.001934 8.301661 -2.500938
v 3.001934 4.200833 -3.339877
v 0.000000 0.100005 -2.500938
v 0.000000 1.170891 -3.339877
v 0.000000 7.230776 -3.339877
v 0.000000 8.301661 -2.500938
v 0.000000 4.200833 -3.339877
v -0.783557 4.518595 -3.378272
v -0.783557 6.913014 -3.496531
v -2.216132 6.913014 -3.496531
v -2.216132 4.518595 -3.378272
v 0.221196 4.518595 -6.141592
v 2.780738 4.518595 -6.141592
v 0.221196 4.518595 -3.339877
v 2.780738 4.518595 -3.339877
v 2.780738 6.913014 -6.141592
v 0.221196 6.913014 -6.141592
v 2.780738 6.913014 -3.339877
v 0.221196 6.913014 -3.339877
v 1.740852 6.913014 -3.339877
v 1.263327 6.913014 -3.339877
v 1.263327 4.518595 -3.339877
v 1.740852 4.518595 -3.339877
v 0.785802 4.748554 -6.103198
v 2.218377 4.748554 -6.103198
v -2.216132 4.518595 -6.103198
v -2.216132 6.913014 -5.984939
v 1.740852 7.230776 -3.339877
v 1.263327 7.230776 -3.339877
v 2.218377 4.518595 -6.103198
v 2.218377 6.913014 -5.984939
v -0.783557 6.913014 -5.984939
v -0.783557 4.518595 -6.103198
v 0.785802 6.913014 -5.984939
v 0.785802 4.518595 -6.103198
v 0.785802 4.748554 -3.378272
v 2.218377 4.748554 -3.378272
v 1.263327 4.200833 -3.339877
v 1.740852 4.200833 -3.339877
v -0.221196 4.518595 -3.339877
v -2.780738 4.518595 -3.339877
v -0.221196 4.518595 -6.141592
v -2.780738 4.518595 -6.141592
v -0.783557 4.748554 -3.378272
v -2.216132 4.748554 -3.378272
v -0.783557 4.748554 -6.103198
v -2.216132 4.748554 -6.103198
v -2.780738 6.913014 -3.339877
v -0.221196 6.913014 -3.339877
v -2.780738 6.913014 -6.141592
v -0.221196 6.913014 -6.141592
v -1.261082 4.200833 -3.339877
v -1.738607 4.200833 -3.339877
v -1.738607 0.100005 -2.500938
v -1.261082 0.100005 -2.500938
v -1.738607 1.170891 -3.339877
v -1.261082 1.170891 -3.339877
v -1.738607 7.230776 -3.339877
v -1.261082 7.230776 -3.339877
v -1.738607 8.301661 -2.500938
v -1.261082 8.301661 -2.500938
v -1.261082 4.518595 -3.339877
v -1.738607 4.518595 -3.339877
v -1.738607 6.913014 -3.339877
v -1.261082 6.913014 -3.339877
v 0.785802 4.518595 -3.378272
v 0.785802 6.913014 -3.496531
v 2.218377 6.913014 -3.496531
v 2.218377 4.518595 -3.378272
v -1.074376 4.518595 -6.141592
v -1.927557 4.518595 -6.141592
v -1.927557 6.913014 -6.141592
v -1.074376 6.913014 -6.141592
v -1.261082 4.518595 -3.378272
v -1.738607 4.518595 -3.378272
v -1.261082 4.518595 -6.103198
v -1.738607 4.518595 -6.103198
v -1.261082 4.748554 -3.378272
v -1.738607 4.748554 -3.378272
v -1.261082 4.748554 -6.103198
v -1.738607 4.748554 -6.103198
v -1.738607 6.913014 -3.496531
v -1.261082 6.913014 -3.496531
v -1.738607 6.913014 -5.984939
v -1.261082 6.913014 -5.984939
v -1.261082 6.797473 -3.496531
v -0.783557 6.797473 -3.496531
v -1.261082 6.797473 -5.984939
v -0.783557 6.797473 -5.984939
v -2.216132 6.797473 -3.496531
v -2.216132 6.797473 -5.984939
v -1.738607 6.797473 -3.496531
v -1.738607 6.797473 -5.984939
v 1.927557 4.518595 -6.141592
v 1.074377 4.518595 -6.141592
v 1.074377 6.913014 -6.141592
v 1.927557 6.913014 -6.141592
v 1.740852 4.518595 -3.378272
v 1.263327 4.518595 -3.378272
v 1.740852 4.518595 -6.103198
v 1.263327 4.518595 -6.103198
v 1.740852 4.748554 -3.378272
v 1.263327 4.748554 -3.378272
v 1.740852 4.748554 -6.103198
v 1.263327 4.748554 -6.103198
v 1.263327 6.913014 -3.496531
v 1.740852 6.913014 -3.496531
v 1.263327 6.913014 -5.984939
v 1.740852 6.913014 -5.984939
v 1.740852 6.797473 -3.496531
v 2.218377 6.797473 -3.496531
v 1.740852 6.797473 -5.984939
v 2.218377 6.797473 -5.984939
v 0.785802 6.797473 -3.496531
v 0.785802 6.797473 -5.984939
v 1.263327 6.797473 -3.496531
v 1.263327 6.797473 -5.984939
v 0.221196 1.488653 -6.141592
v 2.780738 1.488653 -6.141592
v 0.221196 1.488653 -3.339877
v 2.780738 1.488653 -3.339877
v 2.780738 3.883072 -6.141592
v 0.221196 3.883072 -6.141592
v 2.780738 3.883072 -3.339877
v 0.221196 3.883072 -3.339877
v 1.740852 3.883072 -3.339877
v 1.263327 3.883072 -3.339877
v 1.263327 1.488653 -3.339877
v 1.740852 1.488653 -3.339877
v 0.785802 1.718612 -6.103198
v 2.218377 1.718612 -6.103198
v 2.218377 1.488653 -6.103198
v 2.218377 3.883072 -5.984939
v 0.785802 3.883072 -5.984939
v 0.785802 1.488653 -6.103198
v 0.785802 1.718612 -3.378272
v 2.218377 1.718612 -3.378272
v 1.263327 1.170891 -3.339877
v 1.740852 1.170891 -3.339877
v 0.785802 1.488653 -3.378272
v 0.785802 3.883072 -3.496531
v 2.218377 3.883072 -3.496531
v 2.218377 1.488653 -3.378272
v 1.927557 1.488653 -6.141592
v 1.074377 1.488653 -6.141592
v 1.074377 3.883072 -6.141592
v 1.927557 3.883072 -6.141592
v 1.740852 1.488653 -3.378272
v 1.263327 1.488653 -3.378272
v 1.740852 1.488653 -6.103198
v 1.263327 1.488653 -6.103198
v 1.740852 1.718612 -3.378272
v 1.263327 1.718612 -3.378272
v 1.740852 1.718612 -6.103198
v 1.263327 1.718612 -6.103198
v 1.263327 3.883072 -3.496531
v 1.740852 3.883072 -3.496531
v 1.263327 3.883072 -5.984939
v 1.740852 3.883072 -5.984939
v 1.740852 3.767530 -3.496531
v 2.218377 3.767530 -3.496531
v 1.740852 3.767530 -5.984939
v 2.218377 3.767530 -5.984939
v 0.785802 3.767530 -3.496531
v 0.785802 3.767530 -5.984939
v 1.263327 3.767530 -3.496531
v 1.263327 3.767530 -5.984939
v -2.780738 1.488653 -6.141592
v -0.221196 1.488653 -6.141592
v -2.780738 1.488653 -3.339877
v -0.221196 1.488653 -3.339877
v -0.221196 3.883072 -6.141592
v -2.780738 3.883072 -6.141592
v -0.221196 3.883072 -3.339877
v -2.780738 3.883072 -3.339877
v -1.261081 3.883072 -3.339877
v -1.738607 3.883072 -3.339877
v -1.738607 1.488653 -3.339877
v -1.261082 1.488653 -3.339877
v -2.216132 1.718612 -6.103198
v -0.783556 1.718612 -6.103198
v -0.783556 1.488653 -6.103198
v -0.783556 3.883072 -5.984939
v -2.216132 3.883072 -5.984939
v -2.216132 1.488653 -6.103198
v -2.216132 1.718612 -3.378272
v -0.783556 1.718612 -3.378272
v -2.216132 1.488653 -3.378272
v -2.216132 3.883072 -3.496531
v -0.783556 3.883072 -3.496531
v -0.783556 1.488653 -3.378272
v -3.001934 4.200834 -3.339877
v -1.074376 1.488653 -6.141592
v -1.927557 1.488653 -6.141592
v -1.927557 3.883072 -6.141592
v -1.074376 3.883072 -6.141592
v -1.261082 1.488653 -3.378272
v -1.738607 1.488653 -3.378272
v -1.261082 1.488653 -6.103198
v -1.738607 1.488653 -6.103198
v -1.261082 1.718612 -3.378272
v -1.738607 1.718612 -3.378272
v -1.261082 1.718612 -6.103198
v -1.738607 1.718612 -6.103198
v -1.738607 3.883072 -3.496531
v -1.261081 3.883072 -3.496531
v -1.738607 3.883072 -5.984939
v -1.261081 3.883072 -5.984939
v -1.261081 3.767530 -3.496531
v -0.783556 3.767530 -3.496531
v -1.261081 3.767530 -5.984939
v -0.783556 3.767530 -5.984939
v -2.216132 3.767530 -3.496531
v -2.216132 3.767530 -5.984939
v -1.738607 3.767530 -3.496531
v -1.738607 3.767530 -5.984939
v 1.740852 8.301661 -2.500938
v 1.263327 8.301661 -2.500938
v 1.263327 0.100005 -2.500938
v 1.740852 0.100005 -2.500938
v 3.001934 -0.100005 -2.500938
v -3.001934 -0.100005 -2.500938
v 0.000000 -0.100005 -2.500938
v -1.738607 -0.100005 -2.500938
v -1.261082 -0.100005 -2.500938
v 1.263327 -0.100005 -2.500938
v 1.740852 -0.100005 -2.500938
vn -0.0000 0.6167 0.7872
vn -0.0000 -1.0000 -0.0000
vn -0.0000 -0.6167 0.7872
vn -1.0000 -0.0000 -0.0000
vn 1.0000 -0.0000 -0.0000
vn -0.0000 -0.0000 1.0000
vn -0.0000 1.0000 -0.0000
vn -0.0000 -0.0000 -1.0000
vt 0.127062 0.019735
vt 0.128314 0.146406
vt 0.006746 0.160671
vt 0.000399 0.022627
vt 0.433710 0.839185
vt 0.402567 0.840590
vt 0.410399 0.732361
vt 0.422690 0.732162
vt 0.123582 0.876998
vt 0.121286 0.998896
vt 0.001189 1.000000
vt 0.000000 0.870678
vt 0.401599 0.674752
vt 0.354500 0.549689
vt 0.375839 0.564601
vt 0.405271 0.668899
vt 0.434863 0.850217
vt 0.401381 0.851056
vt 0.400030 0.875187
vt 0.399241 0.994572
vt 0.281390 0.996857
vt 0.278337 0.870414
vt 0.202755 0.546697
vt 0.167654 0.673753
vt 0.161895 0.667405
vt 0.187439 0.561341
vt 0.420757 0.032532
vt 0.413563 0.157041
vt 0.288462 0.164103
vt 0.296016 0.026479
vt 0.283199 0.520505
vt 0.257834 0.840800
vt 0.257684 0.553405
vt 0.024841 0.838826
vt 0.125229 0.852446
vt 0.007189 0.516556
vt 0.028768 0.549050
vt 0.162564 0.513437
vt 0.162157 0.536031
vt 0.478152 0.831156
vt 0.531520 0.838358
vt 0.402660 0.542845
vt 0.304665 0.552857
vt 0.402497 0.540102
vt 0.441338 0.675184
vt 0.474767 0.551409
vt 0.527773 0.558175
vt 0.453775 0.676834
vt 0.414145 0.674713
vt 0.414317 0.669560
vt 0.425751 0.674939
vt 0.425362 0.669000
vt 0.404755 0.727273
vt 0.428123 0.727826
vt 0.437872 0.729900
vt 0.447015 0.723425
vt 0.435660 0.668992
vt 0.359541 0.833226
vt 0.367435 0.824414
vt 0.396480 0.832140
vt 0.435168 0.543455
vt 0.435427 0.540847
vt 0.430761 0.676048
vt 0.409619 0.675573
vt 0.135329 0.673960
vt 0.129958 0.726525
vt 0.106465 0.720463
vt 0.116590 0.674297
vt 0.426915 0.734392
vt 0.437485 0.828374
vt 0.392860 0.729515
vt 0.302564 0.838771
vt 0.381614 0.721532
vt 0.391189 0.676005
vt 0.158276 0.840705
vt 0.148174 0.731674
vt 0.152453 0.733986
vt 0.162229 0.829731
vt 0.405459 0.559081
vt 0.433629 0.557765
vt 0.173044 0.723005
vt 0.180338 0.675515
vt 0.128573 0.538205
vt 0.079449 0.545496
vt 0.128393 0.535397
vt 0.151764 0.673410
vt 0.156862 0.674570
vt 0.127179 0.673081
vt 0.160369 0.553419
vt 0.151403 0.667356
vt 0.161903 0.538711
vt 0.101158 0.560618
vt 0.130937 0.667146
vt 0.139942 0.673111
vt 0.140146 0.667864
vt 0.203604 0.832967
vt 0.159336 0.851953
vt 0.135656 0.731760
vt 0.117829 0.728691
vt 0.082850 0.833832
vt 0.163664 0.729514
vt 0.153750 0.727309
vt 0.126552 0.841803
vt 0.131484 0.554850
vt 0.459993 0.565536
vt 0.552020 0.526547
vt 0.551993 0.867244
vt 0.090973 0.824954
vt 0.120446 0.833135
vt 0.128546 0.513026
vt 0.161180 0.876163
vt 0.435942 0.518842
vt 0.164099 0.998678
vt 0.169426 0.146710
vt 0.173240 0.020377
vt 0.121075 0.732656
vt 0.131789 0.735411
vt 0.193768 0.826762
vt 0.161699 0.733357
vt 0.402685 0.518282
vt 0.436920 0.873963
vt 0.396089 0.733380
vt 0.406637 0.735983
vt 0.468426 0.825156
vt 0.435980 0.733688
vt 0.434694 0.486394
vt 0.405087 0.486968
vt 0.416037 0.383132
vt 0.428250 0.383395
vt 0.409336 0.325067
vt 0.363392 0.193093
vt 0.385203 0.208595
vt 0.413245 0.319282
vt 0.435243 0.496744
vt 0.404003 0.496674
vt 0.477689 0.481698
vt 0.530148 0.493150
vt 0.413970 0.184826
vt 0.312894 0.197561
vt 0.413812 0.181788
vt 0.449466 0.327059
vt 0.491266 0.198936
vt 0.545132 0.210522
vt 0.461991 0.329246
vt 0.422003 0.325495
vt 0.422374 0.320277
vt 0.433750 0.326181
vt 0.433604 0.320148
vt 0.410585 0.377876
vt 0.433834 0.379294
vt 0.443456 0.381805
vt 0.452885 0.375776
vt 0.444009 0.320569
vt 0.363444 0.480599
vt 0.371443 0.471850
vt 0.399476 0.479043
vt 0.450267 0.187124
vt 0.450736 0.184286
vt 0.438761 0.327498
vt 0.417400 0.326191
vt 0.432324 0.385797
vt 0.438769 0.476480
vt 0.398665 0.379768
vt 0.305399 0.488254
vt 0.387658 0.371477
vt 0.398777 0.325950
vt 0.416941 0.202728
vt 0.447543 0.202592
vt 0.475022 0.212668
vt 0.567986 0.182265
vt 0.453894 0.159683
vt 0.401755 0.383706
vt 0.412227 0.386623
vt 0.468534 0.475311
vt 0.441425 0.385491
vt 0.160939 0.480252
vt 0.130829 0.481128
vt 0.139577 0.375517
vt 0.151991 0.375466
vt 0.130971 0.316817
vt 0.079479 0.184812
vt 0.102100 0.199590
vt 0.134719 0.310814
vt 0.161624 0.490799
vt 0.129793 0.491025
vt 0.204856 0.474811
vt 0.259490 0.486039
vt 0.130173 0.174361
vt 0.028874 0.191419
vt 0.129874 0.171292
vt 0.171825 0.317436
vt 0.209724 0.185045
vt 0.265746 0.194343
vt 0.184675 0.319227
vt 0.143831 0.316807
vt 0.144023 0.311497
vt 0.155791 0.317094
vt 0.155429 0.310966
vt 0.133901 0.370320
vt 0.157563 0.371150
vt 0.167429 0.373452
vt 0.176876 0.367053
vt 0.166027 0.311021
vt 0.088758 0.474980
vt 0.096578 0.466134
vt 0.124967 0.473120
vt 0.167153 0.174922
vt 0.167494 0.172005
vt 0.160932 0.318259
vt 0.139180 0.317675
vt 0.156192 0.377807
vt 0.164875 0.470105
vt 0.121867 0.372552
vt 0.031458 0.482679
vt 0.110505 0.364456
vt 0.120333 0.318075
vt 0.133996 0.192359
vt 0.165112 0.190821
vt 0.193595 0.199877
vt 0.125087 0.376463
vt 0.135791 0.379159
vt 0.195305 0.468415
vt 0.165446 0.377262
vt 0.441204 0.993863
vt 0.556237 0.990522
vt 0.466053 0.036437
vt 0.586035 0.051841
vt 0.173862 0.000846
vt 0.297015 0.006819
vt 0.422091 0.013129
vt 0.468107 0.017310
vt 0.127006 -0.000000
vt 0.588493 0.032755
vt 0.000000 0.002520
s 0
usemtl M_WallP.001
f 61/1/1 63/2/1 4/3/1 2/4/1
f 114/5/2 113/6/2 115/7/2 116/8/2
f 65/9/3 67/10/3 8/11/3 6/12/3
f 42/13/4 73/14/4 43/15/4 31/16/4
f 113/6/2 114/5/2 27/17/2 28/18/2
f 36/19/3 225/20/3 13/21/3 12/22/3
f 15/23/5 40/24/5 53/25/5 51/26/5
f 226/27/1 145/28/1 11/29/1 10/30/1
f 14/31/6 12/22/6 56/32/6 47/33/6
f 65/9/6 6/12/6 55/34/6 71/35/6
f 6/12/6 199/36/6 48/37/6 55/34/6
f 59/38/6 14/31/6 47/33/6 69/39/6
f 114/5/2 75/40/2 25/41/2 27/17/2
f 106/42/7 73/14/7 21/43/7 29/44/7
f 37/45/7 76/46/7 22/47/7 20/48/7
f 108/49/8 42/13/8 31/16/8 112/50/8
f 107/51/8 108/49/8 112/50/8 111/52/8
f 116/8/2 115/7/2 103/53/2 104/54/2
f 75/40/2 38/55/2 23/56/2 25/41/2
f 37/45/8 107/51/8 111/52/8 32/57/8
f 113/6/6 74/58/6 121/59/6 123/60/6
f 105/61/7 106/42/7 29/44/7 30/62/7
f 76/46/7 105/61/7 30/62/7 22/47/7
f 108/49/7 107/51/7 101/63/7 102/64/7
f 78/65/6 79/66/6 57/67/6 50/68/6
f 114/5/4 116/8/4 119/69/4 117/70/4
f 41/71/2 74/58/2 26/72/2 24/73/2
f 42/13/7 108/49/7 102/64/7 19/74/7
f 90/75/4 92/76/4 95/77/4 93/78/4
f 74/58/2 113/6/2 28/18/2 26/72/2
f 107/51/7 37/45/7 20/48/7 101/63/7
f 110/79/7 109/80/7 111/52/7 112/50/7
f 43/15/7 110/79/7 112/50/7 31/16/7
f 38/55/2 116/8/2 104/54/2 23/56/2
f 106/42/6 105/61/6 109/80/6 110/79/6
f 73/14/7 42/13/7 19/74/7 21/43/7
f 73/14/6 106/42/6 110/79/6 43/15/6
f 55/34/5 48/37/5 50/68/5 57/67/5
f 47/33/4 56/32/4 58/81/4 49/82/4
f 115/7/2 41/71/2 24/73/2 103/53/2
f 82/83/7 18/84/7 48/37/7 70/85/7
f 83/86/7 40/24/7 49/82/7 77/87/7
f 40/24/7 15/23/7 47/33/7 49/82/7
f 18/84/7 33/88/7 50/68/7 48/37/7
f 85/89/7 51/26/7 53/25/7 87/90/7
f 81/91/6 15/23/6 51/26/6 85/89/6
f 33/88/4 18/84/4 52/92/4 54/93/4
f 84/94/8 33/88/8 54/93/8 88/95/8
f 90/75/2 16/96/2 56/32/2 72/97/2
f 91/98/2 34/99/2 57/67/2 79/66/2
f 34/99/2 17/100/2 55/34/2 57/67/2
f 16/96/2 39/101/2 58/81/2 56/32/2
f 39/101/2 92/76/2 80/102/2 58/81/2
f 92/76/2 91/98/2 79/66/2 80/102/2
f 17/100/2 89/103/2 71/35/2 55/34/2
f 89/103/2 90/75/2 72/97/2 71/35/2
f 40/24/8 83/86/8 87/90/8 53/25/8
f 83/86/8 84/94/8 88/95/8 87/90/8
f 18/84/6 82/83/6 86/104/6 52/92/6
f 82/83/6 81/91/6 85/89/6 86/104/6
f 52/92/7 86/104/7 88/95/7 54/93/7
f 86/104/7 85/89/7 87/90/7 88/95/7
f 33/88/7 84/94/7 78/65/7 50/68/7
f 84/94/7 83/86/7 77/87/7 78/65/7
f 15/23/7 81/91/7 69/39/7 47/33/7
f 81/91/7 82/83/7 70/85/7 69/39/7
f 109/80/7 44/105/7 32/57/7 111/52/7
f 9/106/6 5/107/6 25/41/6 22/47/6
f 89/103/6 17/100/6 97/108/6 99/109/6
f 90/75/2 89/103/2 91/98/2 92/76/2
f 102/64/6 103/53/6 24/73/6 19/74/6
f 76/46/5 37/45/5 32/57/5 44/105/5
f 49/82/6 58/81/6 80/102/6 77/87/6
f 77/87/6 80/102/6 79/66/6 78/65/6
f 22/47/4 25/41/4 23/56/4 20/48/4
f 12/22/6 14/31/6 21/43/6 26/72/6
f 105/61/6 76/46/6 44/105/6 109/80/6
f 36/19/6 12/22/6 26/72/6 28/18/6
f 199/36/6 60/110/6 70/85/6 48/37/6
f 60/110/6 59/38/6 69/39/6 70/85/6
f 12/22/6 66/111/6 72/97/6 56/32/6
f 66/111/6 65/9/6 71/35/6 72/97/6
f 26/72/5 21/43/5 19/74/5 24/73/5
f 46/112/6 9/106/6 22/47/6 30/62/6
f 12/22/3 13/21/3 68/113/3 66/111/3
f 66/111/3 68/113/3 67/10/3 65/9/3
f 10/30/1 11/29/1 64/114/1 62/115/1
f 62/115/1 64/114/1 63/2/1 61/1/1
f 99/109/2 97/108/2 98/116/2 100/117/2
f 94/118/2 93/78/2 95/77/2 96/119/2
f 39/101/5 16/96/5 94/118/5 96/119/5
f 92/76/8 39/101/8 96/119/8 95/77/8
f 91/98/5 89/103/5 99/109/5 100/117/5
f 17/100/4 34/99/4 98/116/4 97/108/4
f 34/99/8 91/98/8 100/117/8 98/116/8
f 16/96/6 90/75/6 93/78/6 94/118/6
f 20/48/6 23/56/6 104/54/6 101/63/6
f 101/63/6 104/54/6 103/53/6 102/64/6
f 14/31/6 45/120/6 29/44/6 21/43/6
f 45/120/6 46/112/6 30/62/6 29/44/6
f 5/107/6 35/121/6 27/17/6 25/41/6
f 35/121/6 36/19/6 28/18/6 27/17/6
f 123/60/2 121/59/2 122/122/2 124/123/2
f 118/124/2 117/70/2 119/69/2 120/125/2
f 38/55/5 75/40/5 118/124/5 120/125/5
f 116/8/8 38/55/8 120/125/8 119/69/8
f 115/7/5 113/6/5 123/60/5 124/123/5
f 74/58/4 41/71/4 122/122/4 121/59/4
f 41/71/8 115/7/8 124/123/8 122/122/8
f 75/40/6 114/5/6 117/70/6 118/124/6
f 164/126/2 163/127/2 165/128/2 166/129/2
f 142/130/4 147/131/4 143/132/4 137/133/4
f 163/127/2 164/126/2 133/134/2 134/135/2
f 164/126/2 149/136/2 131/137/2 133/134/2
f 156/138/7 147/131/7 127/139/7 135/140/7
f 139/141/7 150/142/7 128/143/7 126/144/7
f 158/145/8 142/130/8 137/133/8 162/146/8
f 157/147/8 158/145/8 162/146/8 161/148/8
f 166/129/2 165/128/2 153/149/2 154/150/2
f 149/136/2 140/151/2 129/152/2 131/137/2
f 139/141/8 157/147/8 161/148/8 138/153/8
f 163/127/6 148/154/6 171/155/6 173/156/6
f 155/157/7 156/138/7 135/140/7 136/158/7
f 150/142/7 155/157/7 136/158/7 128/143/7
f 158/145/7 157/147/7 151/159/7 152/160/7
f 164/126/4 166/129/4 169/161/4 167/162/4
f 141/163/2 148/154/2 132/164/2 130/165/2
f 142/130/7 158/145/7 152/160/7 125/166/7
f 148/154/2 163/127/2 134/135/2 132/164/2
f 157/147/7 139/141/7 126/144/7 151/159/7
f 160/167/7 159/168/7 161/148/7 162/146/7
f 143/132/7 160/167/7 162/146/7 137/133/7
f 140/151/2 166/129/2 154/150/2 129/152/2
f 156/138/6 155/157/6 159/168/6 160/167/6
f 147/131/7 142/130/7 125/166/7 127/139/7
f 147/131/6 156/138/6 160/167/6 143/132/6
f 165/128/2 141/163/2 130/165/2 153/149/2
f 159/168/7 144/169/7 138/153/7 161/148/7
f 3/170/6 9/106/6 131/137/6 128/143/6
f 152/160/6 153/149/6 130/165/6 125/166/6
f 150/142/5 139/141/5 138/153/5 144/169/5
f 128/143/4 131/137/4 129/152/4 126/144/4
f 14/31/6 11/29/6 127/139/6 132/164/6
f 155/157/6 150/142/6 144/169/6 159/168/6
f 45/120/6 14/31/6 132/164/6 134/135/6
f 132/164/5 127/139/5 125/166/5 130/165/5
f 146/171/6 3/170/6 128/143/6 136/158/6
f 126/144/6 129/152/6 154/150/6 151/159/6
f 151/159/6 154/150/6 153/149/6 152/160/6
f 11/29/6 145/28/6 135/140/6 127/139/6
f 145/28/6 146/171/6 136/158/6 135/140/6
f 9/106/6 46/112/6 133/134/6 131/137/6
f 46/112/6 45/120/6 134/135/6 133/134/6
f 173/156/2 171/155/2 172/172/2 174/173/2
f 168/174/2 167/162/2 169/161/2 170/175/2
f 140/151/5 149/136/5 168/174/5 170/175/5
f 166/129/8 140/151/8 170/175/8 169/161/8
f 165/128/5 163/127/5 173/156/5 174/173/5
f 148/154/4 141/163/4 172/172/4 171/155/4
f 141/163/8 165/128/8 174/173/8 172/172/8
f 149/136/6 164/126/6 167/162/6 168/174/6
f 213/176/2 212/177/2 214/178/2 215/179/2
f 192/180/4 195/181/4 193/182/4 187/183/4
f 212/177/2 213/176/2 183/184/2 184/185/2
f 213/176/2 197/186/2 181/187/2 183/184/2
f 205/188/7 195/181/7 177/189/7 185/190/7
f 189/191/7 198/192/7 178/193/7 176/194/7
f 207/195/8 192/180/8 187/183/8 211/196/8
f 206/197/8 207/195/8 211/196/8 210/198/8
f 215/179/2 214/178/2 202/199/2 203/200/2
f 197/186/2 190/201/2 179/202/2 181/187/2
f 189/191/8 206/197/8 210/198/8 188/203/8
f 212/177/6 196/204/6 220/205/6 222/206/6
f 204/207/7 205/188/7 185/190/7 186/208/7
f 198/192/7 204/207/7 186/208/7 178/193/7
f 207/195/7 206/197/7 200/209/7 201/210/7
f 213/176/4 215/179/4 218/211/4 216/212/4
f 191/213/2 196/204/2 182/214/2 180/215/2
f 192/180/7 207/195/7 201/210/7 175/216/7
f 196/204/2 212/177/2 184/185/2 182/214/2
f 206/197/7 189/191/7 176/194/7 200/209/7
f 209/217/7 208/218/7 210/198/7 211/196/7
f 193/182/7 209/217/7 211/196/7 187/183/7
f 190/201/2 215/179/2 203/200/2 179/202/2
f 205/188/6 204/207/6 208/218/6 209/217/6
f 195/181/7 192/180/7 175/216/7 177/189/7
f 195/181/6 205/188/6 209/217/6 193/182/6
f 214/178/2 191/213/2 180/215/2 202/199/2
f 208/218/7 194/219/7 188/203/7 210/198/7
f 11/29/6 14/31/6 181/187/6 178/193/6
f 201/210/6 202/199/6 180/215/6 175/216/6
f 198/192/5 189/191/5 188/203/5 194/219/5
f 178/193/4 181/187/4 179/202/4 176/194/4
f 199/36/6 4/3/6 177/189/6 182/214/6
f 204/207/6 198/192/6 194/219/6 208/218/6
f 60/110/6 199/36/6 182/214/6 184/185/6
f 182/214/5 177/189/5 175/216/5 180/215/5
f 64/114/6 11/29/6 178/193/6 186/208/6
f 176/194/6 179/202/6 203/200/6 200/209/6
f 200/209/6 203/200/6 202/199/6 201/210/6
f 4/3/6 63/2/6 185/190/6 177/189/6
f 63/2/6 64/114/6 186/208/6 185/190/6
f 14/31/6 59/38/6 183/184/6 181/187/6
f 59/38/6 60/110/6 184/185/6 183/184/6
f 222/206/2 220/205/2 221/220/2 223/221/2
f 217/222/2 216/212/2 218/211/2 219/223/2
f 190/201/5 197/186/5 217/222/5 219/223/5
f 215/179/8 190/201/8 219/223/8 218/211/8
f 214/178/5 212/177/5 222/206/5 223/221/5
f 196/204/4 191/213/4 221/220/4 220/205/4
f 191/213/8 214/178/8 223/221/8 221/220/8
f 197/186/6 213/176/6 216/212/6 217/222/6
f 35/121/3 224/224/3 225/20/3 36/19/3
f 5/107/3 7/225/3 224/224/3 35/121/3
f 227/226/1 146/171/1 145/28/1 226/27/1
f 1/227/1 3/170/1 146/171/1 227/226/1
f 10/30/6 62/115/6 232/228/6 230/229/6
f 227/226/6 226/27/6 233/230/6 234/231/6
f 62/115/6 61/1/6 231/232/6 232/228/6
f 1/227/6 227/226/6 234/231/6 228/233/6
f 226/27/6 10/30/6 230/229/6 233/230/6
f 61/1/6 2/4/6 229/234/6 231/232/6
l 9 14
