# Blender 5.2.2 LTS
# www.blender.org
mtllib BarrierCornerInner.mtl
o BarrierCornerInner
v 2.602958 0.051380 2.500000
v 2.602958 0.100005 2.500000
v 2.500000 0.051380 2.500000
v 2.500000 0.100005 2.500000
v 2.602958 0.051380 2.602959
v 2.602958 0.100005 2.602959
v 2.500000 0.051380 2.602959
v 2.500000 0.100005 2.602959
v 2.500000 0.051380 2.551480
v 2.602958 0.051380 2.551480
v 2.500000 0.100005 2.551480
v 2.602958 0.100005 2.551480
v 2.551479 0.100005 2.500000
v 2.551479 0.051380 2.500000
v 2.551479 0.100005 2.602959
v 2.551479 0.051380 2.602959
v 2.551479 0.051380 2.551480
v 2.737200 0.100005 2.500000
v 2.737200 0.051380 2.500000
v 2.737200 0.100005 2.602958
v 2.737200 0.051380 2.602958
v 2.737200 0.100005 2.551479
v 2.737200 0.051380 2.551479
v 2.500000 0.051380 2.737201
v 2.500000 0.100005 2.737201
v 2.602959 0.051380 2.737201
v 2.602959 0.100005 2.737201
v 2.551479 0.100005 2.737201
v 2.551479 0.051380 2.737201
v 2.707112 0.051380 2.602959
v 2.707112 0.100005 2.602959
v 2.707112 0.051380 2.551480
v 2.707112 0.100005 2.500000
v 2.707112 0.051380 2.500000
v 2.707112 0.100005 2.551480
v 2.602958 0.100005 2.707190
v 2.602958 0.051380 2.707190
v 2.551479 0.051380 2.707190
v 2.551479 0.100005 2.707190
v 2.500000 0.051380 2.707190
v 2.500000 0.100005 2.707190
v 2.707112 0.806858 2.602959
v 2.737200 0.806858 2.602958
v 2.737200 0.806858 2.551479
v 2.737200 0.806858 2.500000
v 2.707112 0.806858 2.500000
v 2.551479 0.806858 2.707190
v 2.551479 0.806858 2.737201
v 2.602959 0.806858 2.737201
v 2.500000 0.806858 2.737201
v 2.707112 0.806858 2.551480
v 2.602958 0.806858 2.707190
v 2.500000 0.806858 2.707190
v 2.551479 0.806858 2.500000
v 2.602958 0.806858 2.500000
v 2.551479 0.806858 2.602959
v 2.602958 0.806858 2.602959
v 2.602958 0.806858 2.551480
v 2.500000 0.806858 2.551480
v 2.500000 0.806858 2.500000
v 2.500000 0.806858 2.602959
v 2.707112 0.826877 2.602959
v 2.737200 0.826877 2.602958
v 2.737200 0.826877 2.551479
v 2.737200 0.826877 2.500000
v 2.707112 0.826877 2.500000
v 2.551479 0.826877 2.707190
v 2.551479 0.826877 2.737201
v 2.602959 0.826877 2.737201
v 2.500000 0.826877 2.737201
v 2.707112 0.826877 2.551480
v 2.602958 0.826877 2.707190
v 2.500000 0.826877 2.707190
v 2.551479 0.826877 2.500000
v 2.602958 0.826877 2.500000
v 2.551479 0.826877 2.602959
v 2.602958 0.826877 2.602959
v 2.602958 0.826877 2.551480
v 2.500000 0.826877 2.551480
v 2.500000 0.826877 2.500000
v 2.500000 0.826877 2.602959
v 2.551479 0.826877 2.551480
v 2.740568 0.758609 2.933307
v 2.740568 0.797167 2.933307
v 2.740568 0.758609 2.869970
v 2.740568 0.797167 2.869970
v 2.673471 0.797167 2.933307
v 2.694319 0.758609 2.933307
v 2.673471 0.797167 2.869970
v 2.694319 0.758609 2.869970
v 2.752547 0.742778 2.985281
v 2.752547 0.812999 2.985281
v 2.740568 0.742778 2.985281
v 2.740568 0.812999 2.985281
v 2.752547 0.742778 2.817996
v 2.752547 0.812999 2.817996
v 2.740568 0.742778 2.817996
v 2.740568 0.812999 2.817996
v 2.760437 0.758840 2.955121
v 2.760437 0.796937 2.955121
v 2.798534 0.758840 2.955121
v 2.798534 0.796937 2.955121
v 2.806424 0.777888 2.955121
v 2.752547 0.777888 2.955121
v 2.779486 0.804827 2.955121
v 2.779486 0.750949 2.955121
v 2.752254 0.750657 2.955121
v 2.752255 0.805119 2.955121
v 2.806717 0.750657 2.955121
v 2.806717 0.805119 2.955121
v 2.817996 0.777888 2.955121
v 2.740975 0.777888 2.955121
v 2.779486 0.816399 2.955121
v 2.779486 0.739378 2.955121
v 2.760437 0.758840 2.968616
v 2.779486 0.750949 2.968616
v 2.760437 0.796937 2.968616
v 2.779486 0.804827 2.968616
v 2.752547 0.777888 2.968616
v 2.806424 0.777888 2.968616
v 2.798534 0.758840 2.968616
v 2.798534 0.796937 2.968616
v 2.752254 0.750657 2.968616
v 2.779486 0.739378 2.968616
v 2.752255 0.805119 2.968616
v 2.779486 0.816399 2.968616
v 2.740975 0.777888 2.968616
v 2.817996 0.777888 2.968616
v 2.806717 0.750657 2.968616
v 2.806717 0.805119 2.968616
v 2.752254 0.750657 2.848155
v 2.752255 0.805119 2.848155
v 2.806717 0.750657 2.848155
v 2.806717 0.805119 2.848155
v 2.817996 0.777888 2.848155
v 2.740975 0.777888 2.848155
v 2.779486 0.816399 2.848155
v 2.779486 0.739378 2.848155
v 2.760437 0.758840 2.834661
v 2.779486 0.750949 2.834661
v 2.760437 0.796937 2.834661
v 2.779486 0.804827 2.834661
v 2.752547 0.777888 2.834661
v 2.806424 0.777888 2.834661
v 2.798534 0.758840 2.834661
v 2.798534 0.796937 2.834661
v 2.752254 0.750657 2.834661
v 2.779486 0.739378 2.834661
v 2.752255 0.805119 2.834661
v 2.779486 0.816399 2.834661
v 2.740975 0.777888 2.834661
v 2.817996 0.777888 2.834661
v 2.806717 0.750657 2.834661
v 2.806717 0.805119 2.834661
v 2.708893 0.748918 2.953997
v 2.708893 0.806858 2.953997
v 2.708893 0.748918 2.849280
v 2.708893 0.806858 2.849280
v 2.575224 0.806858 2.953997
v 2.596072 0.748918 2.953997
v 2.575224 0.806858 2.849280
v 2.596072 0.748918 2.849280
v 2.708893 0.806858 2.869970
v 2.708893 0.806858 2.933307
v 2.708893 0.748918 2.933307
v 2.708893 0.748918 2.869970
v 2.596072 0.748918 2.933307
v 2.596072 0.748918 2.869970
v 2.575224 0.806858 2.869970
v 2.575224 0.806858 2.933307
v 2.606805 0.748918 2.849280
v 2.601724 0.806858 2.849280
v 2.601724 0.806858 2.953997
v 2.606805 0.748918 2.953997
v 2.601724 0.806858 2.869970
v 2.601724 0.806858 2.933307
v 2.606805 0.748918 2.933307
v 2.606805 0.748918 2.869970
v 2.708893 0.797919 2.849280
v 2.708893 0.797919 2.953997
v 2.578441 0.797919 2.849280
v 2.578441 0.797919 2.953997
v 2.602508 0.797919 2.933307
v 2.602508 0.797919 2.869970
v 2.708893 0.797919 2.869970
v 2.708893 0.797919 2.933307
v 2.578441 0.797919 2.869970
v 2.578441 0.797919 2.933307
v 2.602508 0.797919 2.849280
v 2.602508 0.797919 2.953997
v 2.708893 0.758565 2.953997
v 2.592601 0.758565 2.849280
v 2.592601 0.758565 2.953997
v 2.605959 0.758565 2.869970
v 2.708893 0.758565 2.869970
v 2.708893 0.758565 2.933307
v 2.605959 0.758565 2.849280
v 2.708893 0.758565 2.849280
v 2.605959 0.758565 2.933307
v 2.592601 0.758565 2.869970
v 2.592601 0.758565 2.933307
v 2.605959 0.758565 2.953997
v 2.588474 0.806858 2.953997
v 2.601438 0.748918 2.953997
v 2.588474 0.806858 2.933307
v 2.601438 0.748918 2.933307
v 2.590474 0.797919 2.953997
v 2.590474 0.797919 2.933307
v 2.599280 0.758565 2.953997
v 2.599280 0.758565 2.933307
v 2.601438 0.748918 2.849280
v 2.588474 0.806858 2.849280
v 2.588474 0.806858 2.869970
v 2.601438 0.748918 2.869970
v 2.590474 0.797919 2.849280
v 2.590474 0.797919 2.869970
v 2.599280 0.758565 2.849280
v 2.599280 0.758565 2.869970
v 2.760446 0.758849 2.848155
v 2.760447 0.796927 2.848155
v 2.798525 0.758849 2.848155
v 2.798525 0.796927 2.848155
v 2.806411 0.777888 2.848155
v 2.752560 0.777888 2.848155
v 2.779486 0.804814 2.848155
v 2.779486 0.750963 2.848155
v 2.858398 0.758609 2.740568
v 2.858398 0.797167 2.740568
v 2.921736 0.758609 2.740568
v 2.921736 0.797167 2.740568
v 2.858398 0.797167 2.673471
v 2.858398 0.758609 2.694319
v 2.921736 0.797167 2.673471
v 2.921736 0.758609 2.694319
v 2.806425 0.742778 2.752547
v 2.806425 0.812999 2.752547
v 2.806425 0.742778 2.740568
v 2.806425 0.812999 2.740568
v 2.973709 0.742778 2.752547
v 2.973709 0.812999 2.752547
v 2.973709 0.742778 2.740568
v 2.973709 0.812999 2.740568
v 2.836584 0.758840 2.760437
v 2.836584 0.796937 2.760437
v 2.836584 0.758840 2.798534
v 2.836584 0.796937 2.798534
v 2.836584 0.777888 2.806424
v 2.836584 0.777888 2.752547
v 2.836584 0.804827 2.779486
v 2.836584 0.750949 2.779486
v 2.836584 0.750657 2.752254
v 2.836584 0.805119 2.752255
v 2.836584 0.750657 2.806717
v 2.836584 0.805119 2.806717
v 2.836584 0.777888 2.817996
v 2.836584 0.777888 2.740975
v 2.836584 0.816399 2.779486
v 2.836584 0.739378 2.779486
v 2.823090 0.758840 2.760437
v 2.823090 0.750949 2.779486
v 2.823090 0.796937 2.760437
v 2.823090 0.804827 2.779486
v 2.823090 0.777888 2.752547
v 2.823090 0.777888 2.806424
v 2.823090 0.758840 2.798534
v 2.823090 0.796937 2.798534
v 2.823090 0.750657 2.752254
v 2.823090 0.739378 2.779486
v 2.823090 0.805119 2.752255
v 2.823090 0.816399 2.779486
v 2.823090 0.777888 2.740975
v 2.823090 0.777888 2.817996
v 2.823090 0.750657 2.806717
v 2.823090 0.805119 2.806717
v 2.943550 0.750657 2.752254
v 2.943550 0.805119 2.752255
v 2.943550 0.750657 2.806717
v 2.943550 0.805119 2.806717
v 2.943550 0.777888 2.817996
v 2.943550 0.777888 2.740975
v 2.943550 0.816399 2.779486
v 2.943550 0.739378 2.779486
v 2.957044 0.758840 2.760437
v 2.957044 0.750949 2.779486
v 2.957044 0.796937 2.760437
v 2.957044 0.804827 2.779486
v 2.957044 0.777888 2.752547
v 2.957044 0.777888 2.806424
v 2.957044 0.758840 2.798534
v 2.957044 0.796937 2.798534
v 2.957044 0.750657 2.752254
v 2.957044 0.739378 2.779486
v 2.957044 0.805119 2.752255
v 2.957044 0.816399 2.779486
v 2.957044 0.777888 2.740975
v 2.957044 0.777888 2.817996
v 2.957044 0.750657 2.806717
v 2.957044 0.805119 2.806717
v 2.837708 0.748918 2.708893
v 2.837708 0.806858 2.708893
v 2.942425 0.748918 2.708893
v 2.942425 0.806858 2.708893
v 2.837708 0.806858 2.575224
v 2.837708 0.748918 2.596072
v 2.942425 0.806858 2.575224
v 2.942425 0.748918 2.596072
v 2.921736 0.806858 2.708893
v 2.858398 0.806858 2.708893
v 2.858398 0.748918 2.708893
v 2.921736 0.748918 2.708893
v 2.858398 0.748918 2.596072
v 2.921736 0.748918 2.596072
v 2.921736 0.806858 2.575224
v 2.858398 0.806858 2.575224
v 2.942425 0.748918 2.606805
v 2.942425 0.806858 2.601724
v 2.837708 0.806858 2.601724
v 2.837708 0.748918 2.606805
v 2.921736 0.806858 2.601724
v 2.858398 0.806858 2.601724
v 2.858398 0.748918 2.606805
v 2.921736 0.748918 2.606805
v 2.942425 0.797919 2.708893
v 2.837708 0.797919 2.708893
v 2.942425 0.797919 2.578441
v 2.837708 0.797919 2.578441
v 2.858398 0.797919 2.602508
v 2.921736 0.797919 2.602508
v 2.921736 0.797919 2.708893
v 2.858398 0.797919 2.708893
v 2.921736 0.797919 2.578441
v 2.858398 0.797919 2.578441
v 2.942425 0.797919 2.602508
v 2.837708 0.797919 2.602508
v 2.837708 0.758565 2.708893
v 2.942425 0.758565 2.592601
v 2.837708 0.758565 2.592601
v 2.921736 0.758565 2.605959
v 2.921736 0.758565 2.708893
v 2.858398 0.758565 2.708893
v 2.942425 0.758565 2.605959
v 2.942425 0.758565 2.708893
v 2.858398 0.758565 2.605959
v 2.921736 0.758565 2.592601
v 2.858398 0.758565 2.592601
v 2.837708 0.758565 2.605959
v 2.837708 0.806858 2.588474
v 2.837708 0.748918 2.601438
v 2.858398 0.806858 2.588474
v 2.858398 0.748918 2.601438
v 2.837708 0.797919 2.590474
v 2.858398 0.797919 2.590474
v 2.837708 0.758565 2.599280
v 2.858398 0.758565 2.599280
v 2.942425 0.748918 2.601438
v 2.942425 0.806858 2.588474
v 2.921736 0.806858 2.588474
v 2.921736 0.748918 2.601438
v 2.942425 0.797919 2.590474
v 2.921736 0.797919 2.590474
v 2.942425 0.758565 2.599280
v 2.921736 0.758565 2.599280
v 2.943550 0.758843 2.760440
v 2.943550 0.796934 2.760440
v 2.943550 0.758843 2.798531
v 2.943550 0.796934 2.798531
v 2.943550 0.777888 2.806420
v 2.943550 0.777888 2.752551
v 2.943550 0.804823 2.779486
v 2.943550 0.750954 2.779486
v 2.844888 0.419668 2.557310
v 2.844888 0.458226 2.557310
v 2.908226 0.419668 2.557310
v 2.908226 0.458226 2.557310
v 2.844888 0.458226 2.490213
v 2.844888 0.419668 2.511060
v 2.908226 0.458226 2.490213
v 2.908226 0.419668 2.511060
v 2.792915 0.403836 2.569288
v 2.792915 0.474058 2.569288
v 2.792915 0.403836 2.557310
v 2.792915 0.474058 2.557310
v 2.960199 0.403836 2.569288
v 2.960199 0.474058 2.569288
v 2.960199 0.403836 2.557310
v 2.960199 0.474058 2.557310
v 2.823074 0.419898 2.577178
v 2.823074 0.457996 2.577179
v 2.823074 0.419898 2.615276
v 2.823074 0.457996 2.615276
v 2.823074 0.438947 2.623166
v 2.823074 0.438947 2.569288
v 2.823074 0.465886 2.596227
v 2.823074 0.412008 2.596227
v 2.823074 0.411716 2.568996
v 2.823074 0.466178 2.568996
v 2.823074 0.411716 2.623458
v 2.823074 0.466178 2.623458
v 2.823074 0.438947 2.634737
v 2.823074 0.438947 2.557717
v 2.823074 0.477457 2.596227
v 2.823074 0.400437 2.596227
v 2.809580 0.419898 2.577178
v 2.809580 0.412008 2.596227
v 2.809580 0.457996 2.577179
v 2.809580 0.465886 2.596227
v 2.809580 0.438947 2.569288
v 2.809580 0.438947 2.623166
v 2.809580 0.419898 2.615276
v 2.809580 0.457996 2.615276
v 2.809580 0.411716 2.568996
v 2.809580 0.400437 2.596227
v 2.809580 0.466178 2.568996
v 2.809580 0.477457 2.596227
v 2.809580 0.438947 2.557717
v 2.809580 0.438947 2.634737
v 2.809580 0.411716 2.623458
v 2.809580 0.466178 2.623458
v 2.930040 0.411716 2.568996
v 2.930040 0.466178 2.568996
v 2.930040 0.411716 2.623458
v 2.930040 0.466178 2.623458
v 2.930040 0.438947 2.634737
v 2.930040 0.438947 2.557717
v 2.930040 0.477457 2.596227
v 2.930040 0.400437 2.596227
v 2.943534 0.419898 2.577178
v 2.943534 0.412008 2.596227
v 2.943534 0.457996 2.577179
v 2.943534 0.465886 2.596227
v 2.943534 0.438947 2.569288
v 2.943534 0.438947 2.623166
v 2.943534 0.419898 2.615276
v 2.943534 0.457996 2.615276
v 2.943534 0.411716 2.568996
v 2.943534 0.400437 2.596227
v 2.943534 0.466178 2.568996
v 2.943534 0.477457 2.596227
v 2.943534 0.438947 2.557717
v 2.943534 0.438947 2.634737
v 2.943534 0.411716 2.623458
v 2.943534 0.466178 2.623458
v 2.824198 0.409977 2.525634
v 2.824198 0.467917 2.525634
v 2.928916 0.409977 2.525634
v 2.928916 0.467917 2.525634
v 2.824198 0.467917 2.391966
v 2.824198 0.409977 2.412813
v 2.928916 0.467917 2.391966
v 2.928916 0.409977 2.412813
v 2.908226 0.467917 2.525634
v 2.844888 0.467917 2.525634
v 2.844888 0.409977 2.525634
v 2.908226 0.409977 2.525634
v 2.844888 0.409977 2.412813
v 2.908226 0.409977 2.412813
v 2.908226 0.467917 2.391966
v 2.844888 0.467917 2.391966
v 2.928916 0.409977 2.423546
v 2.928916 0.467917 2.418466
v 2.824198 0.467917 2.418466
v 2.824198 0.409977 2.423546
v 2.908226 0.467917 2.418466
v 2.844888 0.467917 2.418466
v 2.844888 0.409977 2.423546
v 2.908226 0.409977 2.423546
v 2.928916 0.458978 2.525634
v 2.824198 0.458977 2.525634
v 2.928916 0.458978 2.395182
v 2.824198 0.458977 2.395182
v 2.844888 0.458978 2.419250
v 2.908226 0.458978 2.419250
v 2.908226 0.458978 2.525634
v 2.844888 0.458978 2.525634
v 2.908226 0.458978 2.395182
v 2.844888 0.458978 2.395182
v 2.928916 0.458978 2.419250
v 2.824198 0.458977 2.419250
v 2.824198 0.419624 2.525634
v 2.928916 0.419624 2.409342
v 2.824198 0.419624 2.409342
v 2.908226 0.419624 2.422700
v 2.908226 0.419624 2.525634
v 2.844888 0.419624 2.525634
v 2.928916 0.419624 2.422700
v 2.928916 0.419624 2.525634
v 2.844888 0.419624 2.422700
v 2.908226 0.419624 2.409342
v 2.844888 0.419624 2.409342
v 2.824198 0.419624 2.422700
v 2.824198 0.467917 2.405216
v 2.824198 0.409977 2.418180
v 2.844888 0.467917 2.405216
v 2.844888 0.409977 2.418180
v 2.824198 0.458977 2.407216
v 2.844888 0.458978 2.407216
v 2.824198 0.419624 2.416021
v 2.844888 0.419624 2.416021
v 2.928916 0.409977 2.418180
v 2.928916 0.467917 2.405216
v 2.908226 0.467917 2.405216
v 2.908226 0.409977 2.418180
v 2.928916 0.458978 2.407216
v 2.908226 0.458978 2.407216
v 2.928916 0.419624 2.416021
v 2.908226 0.419624 2.416021
v 2.930040 0.419902 2.577182
v 2.930040 0.457993 2.577182
v 2.930040 0.419902 2.615273
v 2.930040 0.457993 2.615273
v 2.930040 0.438947 2.623162
v 2.930040 0.438947 2.569293
v 2.930040 0.465881 2.596227
v 2.930040 0.412013 2.596227
v 2.557310 0.419668 2.902024
v 2.557310 0.458226 2.902024
v 2.557310 0.419668 2.838686
v 2.557310 0.458226 2.838686
v 2.490213 0.458226 2.902024
v 2.511060 0.419668 2.902024
v 2.490213 0.458226 2.838686
v 2.511060 0.419668 2.838686
v 2.569288 0.403836 2.953997
v 2.569288 0.474058 2.953997
v 2.557310 0.403836 2.953997
v 2.557310 0.474058 2.953997
v 2.569288 0.403836 2.786713
v 2.569288 0.474058 2.786713
v 2.557310 0.403836 2.786713
v 2.557310 0.474058 2.786713
v 2.577178 0.419898 2.923838
v 2.577179 0.457996 2.923838
v 2.615276 0.419898 2.923838
v 2.615276 0.457996 2.923838
v 2.623166 0.438947 2.923838
v 2.569288 0.438947 2.923838
v 2.596227 0.465886 2.923838
v 2.596227 0.412008 2.923838
v 2.568996 0.411716 2.923838
v 2.568996 0.466178 2.923838
v 2.623458 0.411716 2.923838
v 2.623458 0.466178 2.923838
v 2.634737 0.438947 2.923838
v 2.557717 0.438947 2.923838
v 2.596227 0.477457 2.923838
v 2.596227 0.400437 2.923838
v 2.577178 0.419898 2.937332
v 2.596227 0.412008 2.937332
v 2.577179 0.457996 2.937332
v 2.596227 0.465886 2.937332
v 2.569288 0.438947 2.937332
v 2.623166 0.438947 2.937332
v 2.615276 0.419898 2.937332
v 2.615276 0.457996 2.937332
v 2.568996 0.411716 2.937332
v 2.596227 0.400437 2.937332
v 2.568996 0.466178 2.937332
v 2.596227 0.477457 2.937332
v 2.557717 0.438947 2.937332
v 2.634737 0.438947 2.937332
v 2.623458 0.411716 2.937332
v 2.623458 0.466178 2.937332
v 2.568996 0.411716 2.816872
v 2.568996 0.466178 2.816872
v 2.623458 0.411716 2.816872
v 2.623458 0.466178 2.816872
v 2.634737 0.438947 2.816872
v 2.557717 0.438947 2.816872
v 2.596227 0.477457 2.816872
v 2.596227 0.400437 2.816872
v 2.577178 0.419898 2.803378
v 2.596227 0.412008 2.803378
v 2.577179 0.457996 2.803378
v 2.596227 0.465886 2.803378
v 2.569288 0.438947 2.803378
v 2.623166 0.438947 2.803378
v 2.615276 0.419898 2.803378
v 2.615276 0.457996 2.803378
v 2.568996 0.411716 2.803378
v 2.596227 0.400437 2.803378
v 2.568996 0.466178 2.803378
v 2.596227 0.477457 2.803378
v 2.557717 0.438947 2.803378
v 2.634737 0.438947 2.803378
v 2.623458 0.411716 2.803378
v 2.623458 0.466178 2.803378
v 2.525634 0.409977 2.922713
v 2.525634 0.467917 2.922713
v 2.525634 0.409977 2.817996
v 2.525634 0.467917 2.817996
v 2.391966 0.467917 2.922713
v 2.412813 0.409977 2.922713
v 2.391966 0.467917 2.817996
v 2.412813 0.409977 2.817996
v 2.525634 0.467917 2.838686
v 2.525634 0.467917 2.902024
v 2.525634 0.409977 2.902024
v 2.525634 0.409977 2.838686
v 2.412813 0.409977 2.902024
v 2.412813 0.409977 2.838686
v 2.391966 0.467917 2.838686
v 2.391966 0.467917 2.902024
v 2.423546 0.409977 2.817996
v 2.418466 0.467917 2.817996
v 2.418466 0.467917 2.922713
v 2.423546 0.409977 2.922713
v 2.418466 0.467917 2.838686
v 2.418466 0.467917 2.902024
v 2.423546 0.409977 2.902024
v 2.423546 0.409977 2.838686
v 2.525634 0.458978 2.817996
v 2.525634 0.458977 2.922713
v 2.395182 0.458978 2.817996
v 2.395182 0.458977 2.922713
v 2.419250 0.458978 2.902024
v 2.419250 0.458978 2.838686
v 2.525634 0.458978 2.838686
v 2.525634 0.458978 2.902024
v 2.395182 0.458978 2.838686
v 2.395182 0.458978 2.902024
v 2.419250 0.458978 2.817996
v 2.419250 0.458977 2.922713
v 2.525634 0.419624 2.922713
v 2.409342 0.419624 2.817996
v 2.409342 0.419624 2.922713
v 2.422700 0.419624 2.838686
v 2.525634 0.419624 2.838686
v 2.525634 0.419624 2.902024
v 2.422700 0.419624 2.817996
v 2.525634 0.419624 2.817996
v 2.422700 0.419624 2.902024
v 2.409342 0.419624 2.838686
v 2.409342 0.419624 2.902024
v 2.422700 0.419624 2.922713
v 2.405216 0.467917 2.922713
v 2.418180 0.409977 2.922713
v 2.405216 0.467917 2.902024
v 2.418180 0.409977 2.902024
v 2.407216 0.458977 2.922713
v 2.407216 0.458978 2.902024
v 2.416021 0.419624 2.922713
v 2.416021 0.419624 2.902024
v 2.418180 0.409977 2.817996
v 2.405216 0.467917 2.817996
v 2.405216 0.467917 2.838686
v 2.418180 0.409977 2.838686
v 2.407216 0.458978 2.817996
v 2.407216 0.458978 2.838686
v 2.416021 0.419624 2.817996
v 2.416021 0.419624 2.838686
v 2.577178 0.419899 2.816872
v 2.577179 0.457996 2.816872
v 2.615276 0.419899 2.816872
v 2.615276 0.457996 2.816872
v 2.623166 0.438947 2.816872
v 2.569288 0.438947 2.816872
v 2.596227 0.465886 2.816872
v 2.596227 0.412008 2.816872
v 2.666435 0.758565 2.602959
v 2.666435 0.797919 2.602959
v 2.666435 0.758565 2.666557
v 2.666435 0.797919 2.666557
v 2.602958 0.758565 2.602959
v 2.602958 0.797919 2.602959
v 2.602958 0.758565 2.666557
v 2.602958 0.797919 2.666557
v 2.837708 0.758565 2.666557
v 2.837708 0.758565 2.602958
v 2.837708 0.797919 2.602958
v 2.837708 0.797919 2.666557
v 2.666435 0.797919 2.849280
v 2.666435 0.758565 2.849280
v 2.602958 0.758565 2.849280
v 2.602958 0.797919 2.849280
v 2.666435 0.758565 2.539434
v 2.666435 0.797919 2.539434
v 2.602958 0.797919 2.539434
v 2.602958 0.758565 2.539434
v 2.539415 0.797919 2.666557
v 2.539415 0.758565 2.666557
v 2.539415 0.758565 2.602959
v 2.539415 0.797919 2.602959
v 2.500000 0.419624 2.436432
v 2.500000 0.458978 2.436432
v 2.500000 0.419624 2.500000
v 2.500000 0.458978 2.500000
v 2.436680 0.419624 2.436432
v 2.436680 0.458978 2.436432
v 2.436680 0.419624 2.500000
v 2.436680 0.458978 2.500000
v 2.824199 0.419624 2.500000
v 2.824199 0.419624 2.436432
v 2.824199 0.458978 2.436432
v 2.824199 0.458978 2.500000
v 2.500000 0.458978 2.817996
v 2.500000 0.419624 2.817996
v 2.436680 0.419624 2.817996
v 2.436680 0.458978 2.817996
v 2.436680 0.419624 2.658998
v 2.436680 0.458978 2.658998
v 2.500000 0.419624 2.658998
v 2.500000 0.458978 2.658998
v 2.662099 0.458978 2.500000
v 2.662099 0.458978 2.436432
v 2.662099 0.419624 2.436432
v 2.662099 0.419624 2.500000
v 2.436680 0.458978 2.602959
v 2.500000 0.458978 2.602959
v 2.436680 0.419624 2.602959
v 2.500000 0.419624 2.602959
v 2.602958 0.458978 2.436432
v 2.602958 0.419624 2.500000
v 2.602958 0.458978 2.500000
v 2.602958 0.419624 2.436432
v 2.602958 0.458978 2.563428
v 2.662099 0.458978 2.563428
v 2.662099 0.419624 2.563428
v 2.602958 0.419624 2.563428
v 2.563594 0.419624 2.602959
v 2.563594 0.419624 2.658998
v 2.563594 0.458978 2.658998
v 2.563594 0.458978 2.602959
vn -0.0000 -1.0000 -0.0000
vn -1.0000 -0.0000 -0.0000
vn -0.0000 -0.0000 -1.0000
vn 1.0000 -0.0000 -0.0000
vn -0.0000 -0.0000 1.0000
vn -0.0000 1.0000 -0.0000
vn -0.7071 0.7071 -0.0000
vn -0.7071 -0.7071 -0.0000
vn 0.7071 -0.7071 -0.0000
vn 0.7071 0.7071 -0.0000
vn -0.9409 -0.3386 -0.0000
vn -0.9962 -0.0874 -0.0000
vn -0.9962 -0.0873 -0.0000
vn -0.9759 -0.2183 -0.0000
vn -0.0000 0.7071 -0.7071
vn -0.0000 -0.7071 -0.7071
vn -0.0000 -0.7071 0.7071
vn -0.0000 0.7071 0.7071
vn -0.0000 -0.3386 -0.9409
vn -0.0000 -0.0874 -0.9962
vn -0.0000 -0.2183 -0.9759
vt 0.514640 0.842296
vt 0.547992 0.842296
vt 0.547992 0.875648
vt 0.514640 0.875648
vt 0.187025 0.000000
vt 0.220377 0.000000
vt 0.220377 0.031503
vt 0.187025 0.031503
vt 0.120322 0.031503
vt 0.120322 0.000000
vt 0.153674 0.000000
vt 0.153674 0.031503
vt 0.681398 0.000000
vt 0.714749 0.000000
vt 0.714749 0.457945
vt 0.681398 0.457945
vt 0.019493 -0.000000
vt 0.019493 0.031503
vt -0.000000 0.031503
vt -0.000000 -0.000000
vt 0.287904 0.031503
vt 0.287904 0.000000
vt 0.307347 0.000000
vt 0.307347 0.031503
vt 0.086971 0.031503
vt 0.120322 0.489448
vt 0.086971 0.489448
vt 0.153674 0.000000
vt 0.153674 0.031503
vt 0.481289 0.842296
vt 0.481289 0.875648
vt 0.481289 0.808945
vt 0.514640 0.808945
vt 0.748101 0.000000
vt 0.748101 0.457945
vt 0.220377 0.489448
vt 0.187025 0.489448
vt 0.086971 -0.000000
vt 0.547992 0.808945
vt 0.019493 0.489448
vt -0.000000 0.489448
vt 0.394318 0.031503
vt 0.413761 0.031503
vt 0.413761 0.489448
vt 0.394318 0.489448
vt 0.374825 0.031503
vt 0.374825 0.000000
vt 0.394318 0.000000
vt 0.394318 0.031503
vt 0.514640 0.741467
vt 0.481289 0.741467
vt 0.481289 0.721974
vt 0.514640 0.721974
vt 0.547992 -0.000000
vt 0.581343 -0.000000
vt 0.581343 0.457945
vt 0.547992 0.457945
vt 0.547992 0.741467
vt 0.547992 0.721974
vt 0.413761 0.000000
vt 0.394318 0.000000
vt 0.748101 -0.000000
vt 0.781453 -0.000000
vt 0.781453 0.457945
vt 0.748101 0.457945
vt 0.615519 0.875648
vt 0.615519 0.842296
vt 0.634962 0.842296
vt 0.634962 0.875648
vt 0.615519 0.808945
vt 0.634962 0.808945
vt 0.964369 0.624991
vt 0.931017 0.624991
vt 0.931017 0.557514
vt 0.964369 0.557514
vt 0.307347 0.031503
vt 0.307347 -0.000000
vt 0.897666 0.624991
vt 0.897666 0.557514
vt 0.668314 0.875648
vt 0.701666 0.875648
vt 0.701666 0.943176
vt 0.668314 0.943176
vt 0.481289 0.000000
vt 0.481289 0.031503
vt 0.634963 0.875648
vt 0.634963 0.943176
vt 0.481289 0.457945
vt 0.514640 0.457945
vt 0.514640 0.470915
vt 0.481289 0.470915
vt 0.120322 0.502417
vt 0.086971 0.502417
vt 0.153674 0.489448
vt 0.153674 0.502417
vt 0.814804 -0.000000
vt 0.814804 0.457945
vt 0.481289 0.000000
vt 0.514640 0.000000
vt 0.614695 0.000000
vt 0.614695 0.457945
vt 0.848156 -0.000000
vt 0.881507 -0.000000
vt 0.881507 0.457945
vt 0.848156 0.457945
vt 0.394318 0.489448
vt 0.374825 0.489448
vt 0.307347 0.489448
vt 0.287904 0.489448
vt 0.814804 -0.000000
vt 0.814804 0.457945
vt 0.547992 0.000000
vt 0.547992 0.457945
vt 0.547992 0.470915
vt 0.394318 0.502417
vt 0.374825 0.502417
vt 0.220377 0.502417
vt 0.187025 0.502417
vt 0.648047 0.000000
vt 0.681398 0.000000
vt 0.681398 0.457945
vt 0.648047 0.457945
vt 0.614695 0.000000
vt 0.614695 0.457945
vt 0.153674 0.489448
vt 0.654405 0.808945
vt 0.654405 0.842296
vt 0.634962 0.842296
vt 0.634962 0.808945
vt 0.755285 0.741467
vt 0.721933 0.741467
vt 0.721933 0.721974
vt 0.755285 0.721974
vt 0.788636 0.741467
vt 0.788636 0.721974
vt 0.654405 0.875648
vt 0.634962 0.875648
vt 0.755285 0.842296
vt 0.755285 0.875648
vt 0.721933 0.875648
vt 0.721933 0.842296
vt 0.788636 0.842296
vt 0.788636 0.875648
vt 0.788636 0.808945
vt 0.755285 0.808945
vt 0.721933 0.808945
vt 0.413761 0.502417
vt 0.394318 0.502417
vt 0.019493 0.502417
vt -0.000000 0.502417
vt 0.307347 0.502417
vt 0.287904 0.502417
vt 0.153674 0.502417
vt 0.614695 0.470914
vt 0.581343 0.470914
vt 0.582483 0.943176
vt 0.549131 0.943176
vt 0.549131 0.875648
vt 0.582483 0.875648
vt 0.547992 0.470914
vt 0.768369 0.875648
vt 0.768369 0.943125
vt 0.735017 0.943125
vt 0.735017 0.875648
vt 0.701666 0.943125
vt 0.701666 0.875648
vt 0.307347 0.489448
vt 0.615834 0.943176
vt 0.615834 0.875648
vt 0.481289 0.489448
vt 0.481289 0.502417
vt 0.625195 0.943176
vt 0.625195 0.984210
vt 0.595232 0.984210
vt 0.595232 0.943176
vt 0.985575 0.233078
vt 0.944541 0.233078
vt 0.944541 0.189608
vt 0.985575 0.189608
vt 0.981563 0.146479
vt 0.956582 0.132972
vt 0.956582 0.103009
vt 0.981563 0.103009
vt 0.466368 0.947797
vt 0.441387 0.961303
vt 0.441387 0.917833
vt 0.466368 0.917833
vt 0.298194 0.795113
vt 0.298194 0.840607
vt 0.290433 0.840607
vt 0.290433 0.795113
vt 0.839628 0.721974
vt 0.885122 0.721974
vt 0.885122 0.830352
vt 0.839628 0.830352
vt 0.298194 0.749619
vt 0.298194 0.795113
vt 0.290433 0.795113
vt 0.290433 0.749619
vt 0.227470 0.861854
vt 0.181976 0.861854
vt 0.181976 0.753477
vt 0.227470 0.753477
vt 0.475129 0.610796
vt 0.475129 0.719175
vt 0.467369 0.719175
vt 0.467369 0.610796
vt 0.272698 0.857996
vt 0.272698 0.749619
vt 0.280458 0.749619
vt 0.280458 0.857996
vt 0.952388 0.807250
vt 0.955257 0.814176
vt 0.936162 0.814176
vt 0.939030 0.807249
vt 0.952388 0.775001
vt 0.955257 0.768075
vt 0.968760 0.781578
vt 0.961834 0.784447
vt 0.939031 0.775001
vt 0.936162 0.768075
vt 0.929585 0.797804
vt 0.922659 0.800673
vt 0.929585 0.784447
vt 0.922659 0.781578
vt 0.961834 0.797805
vt 0.968760 0.800674
vt 0.914397 0.914566
vt 0.914397 0.927923
vt 0.907471 0.930792
vt 0.907471 0.911697
vt 0.946645 0.914566
vt 0.937200 0.905120
vt 0.940069 0.898194
vt 0.953571 0.911697
vt 0.953571 0.930792
vt 0.946645 0.927923
vt 0.923842 0.937369
vt 0.920973 0.944295
vt 0.940069 0.944295
vt 0.937200 0.937369
vt 0.923842 0.905120
vt 0.920973 0.898194
vt 0.902607 0.827669
vt 0.902607 0.808573
vt 0.911349 0.808573
vt 0.911349 0.827669
vt 0.833400 0.710450
vt 0.833400 0.691354
vt 0.842143 0.691354
vt 0.842143 0.710450
vt 0.979978 0.892917
vt 0.971235 0.892917
vt 0.971235 0.873822
vt 0.979978 0.873822
vt 0.050992 0.967549
vt 0.050992 0.948453
vt 0.059734 0.948453
vt 0.059734 0.967549
vt 0.981854 0.617764
vt 0.973111 0.617764
vt 0.973111 0.598669
vt 0.981854 0.598669
vt 0.341175 0.852914
vt 0.332432 0.852914
vt 0.332432 0.833818
vt 0.341175 0.833818
vt 0.842143 0.710450
vt 0.842143 0.691354
vt 0.850885 0.691354
vt 0.850885 0.710450
vt 0.971235 0.892917
vt 0.962493 0.892917
vt 0.962493 0.873822
vt 0.971235 0.873822
vt 0.809802 0.966128
vt 0.812671 0.973054
vt 0.793575 0.973054
vt 0.796444 0.966127
vt 0.809802 0.933879
vt 0.812671 0.926953
vt 0.826173 0.940456
vt 0.819247 0.943325
vt 0.796444 0.933879
vt 0.793575 0.926953
vt 0.786999 0.956682
vt 0.780073 0.959551
vt 0.786999 0.943324
vt 0.780073 0.940456
vt 0.819247 0.956683
vt 0.826173 0.959552
vt 0.916477 0.468501
vt 0.907735 0.468501
vt 0.907735 0.449406
vt 0.916477 0.449406
vt 0.780945 0.710450
vt 0.772203 0.710450
vt 0.772203 0.691354
vt 0.780945 0.691354
vt 0.964369 0.617765
vt 0.964369 0.598669
vt 0.973111 0.598669
vt 0.973111 0.617765
vt 0.902607 0.827669
vt 0.893864 0.827669
vt 0.893864 0.808573
vt 0.902607 0.808573
vt 0.859627 0.691354
vt 0.859627 0.710449
vt 0.850885 0.710449
vt 0.745976 0.710450
vt 0.745976 0.691354
vt 0.754718 0.691354
vt 0.754718 0.710450
vt 0.306205 0.833818
vt 0.314947 0.833818
vt 0.314947 0.852914
vt 0.306205 0.852914
vt 0.834916 0.921282
vt 0.834916 0.940377
vt 0.826173 0.940377
vt 0.826173 0.921282
vt 0.216931 0.927994
vt 0.203527 0.927994
vt 0.203527 0.861854
vt 0.216931 0.861854
vt 0.403624 0.848403
vt 0.417028 0.848403
vt 0.417028 0.917833
vt 0.403624 0.917833
vt 0.887757 0.342895
vt 0.881507 0.342347
vt 0.881507 0.276207
vt 0.887757 0.276207
vt 0.887299 0.171932
vt 0.881507 0.172440
vt 0.881507 0.103009
vt 0.887299 0.103009
vt 0.885729 0.950689
vt 0.899133 0.950689
vt 0.899133 0.956844
vt 0.885729 0.956844
vt 0.938291 0.013404
vt 0.938291 -0.000000
vt 0.944541 -0.000000
vt 0.944541 0.013404
vt 0.938291 0.067842
vt 0.938291 0.054438
vt 0.944541 0.054438
vt 0.944541 0.067842
vt 0.775232 0.909386
vt 0.788636 0.909386
vt 0.788636 0.915542
vt 0.775232 0.915542
vt 0.890039 0.963496
vt 0.889192 0.957148
vt 0.892656 0.957452
vt 0.894350 0.963874
vt 0.349186 0.848403
vt 0.362590 0.848403
vt 0.362590 0.917833
vt 0.349186 0.917833
vt 0.271370 0.927994
vt 0.257966 0.927994
vt 0.257966 0.861854
vt 0.271370 0.861854
vt 0.475129 0.502417
vt 0.480943 0.502417
vt 0.480943 0.543451
vt 0.475129 0.543451
vt 0.271370 0.931470
vt 0.257966 0.931470
vt 0.991344 0.909135
vt 0.987034 0.909513
vt 0.988728 0.903090
vt 0.992191 0.902787
vt 0.349186 0.839819
vt 0.362590 0.839819
vt 0.887299 0.179728
vt 0.881507 0.181024
vt 0.887757 0.347222
vt 0.881507 0.345823
vt 0.403624 0.839819
vt 0.417028 0.839819
vt 0.216931 0.931470
vt 0.203527 0.931470
vt 0.919045 0.354222
vt 0.913253 0.352926
vt 0.913253 0.345130
vt 0.919045 0.345638
vt 0.912795 0.174024
vt 0.912795 0.169696
vt 0.987103 0.940914
vt 0.978552 0.941664
vt 0.980122 0.935713
vt 0.987888 0.935032
vt 0.826173 0.881388
vt 0.826173 0.840354
vt 0.833970 0.840354
vt 0.833970 0.881388
vt 0.894281 0.995275
vt 0.893496 0.989393
vt 0.901262 0.990074
vt 0.902832 0.996025
vt 0.775232 0.882290
vt 0.788636 0.882290
vt 0.907003 0.054438
vt 0.907003 0.013404
vt 0.912795 0.013404
vt 0.912795 0.054438
vt 0.907003 0.067842
vt 0.912795 0.067842
vt 0.907003 -0.000000
vt 0.912795 -0.000000
vt 0.885729 0.923593
vt 0.899133 0.923593
vt 0.912795 0.103009
vt 0.913253 0.276207
vt 0.919045 0.276207
vt 0.919045 0.169148
vt 0.919045 0.103009
vt 0.885729 0.916951
vt 0.899133 0.916951
vt 0.775232 0.875648
vt 0.788636 0.875648
vt 0.623631 0.875648
vt 0.629905 0.875648
vt 0.629905 0.916682
vt 0.623631 0.916682
vt 0.919045 0.172625
vt 0.995647 0.403841
vt 0.995647 0.444875
vt 0.969521 0.444875
vt 0.969521 0.403841
vt 0.913253 0.360722
vt 0.887757 0.351549
vt 0.885729 0.994525
vt 0.885729 0.988712
vt 0.919045 0.362806
vt 0.403624 0.831234
vt 0.417028 0.831234
vt 0.881507 0.349300
vt 0.271370 0.934947
vt 0.257966 0.934947
vt 0.885729 0.963118
vt 0.885729 0.956844
vt 0.479456 0.707588
vt 0.475129 0.707588
vt 0.475129 0.666554
vt 0.479456 0.666554
vt 0.919045 0.176102
vt 0.912795 0.178351
vt 0.995655 0.940165
vt 0.995655 0.934351
vt 0.887299 0.187524
vt 0.216931 0.934947
vt 0.203527 0.934947
vt 0.881507 0.189608
vt 0.349186 0.831234
vt 0.362590 0.831234
vt 0.995655 0.908757
vt 0.995655 0.902483
vt 0.872226 0.963052
vt 0.853131 0.963051
vt 0.856003 0.956117
vt 0.869354 0.956117
vt 0.839628 0.930453
vt 0.853130 0.916951
vt 0.856002 0.923885
vt 0.846562 0.933326
vt 0.872226 0.916951
vt 0.869354 0.923885
vt 0.839628 0.949549
vt 0.846562 0.946677
vt 0.885729 0.930453
vt 0.878794 0.933326
vt 0.885729 0.949549
vt 0.878794 0.946677
vt 0.944541 0.274112
vt 0.944541 0.233078
vt 0.974504 0.233078
vt 0.974504 0.274112
vt 0.154977 0.978417
vt 0.113943 0.978417
vt 0.113943 0.934947
vt 0.154977 0.934947
vt 0.978552 0.985134
vt 0.953571 0.971627
vt 0.953571 0.941664
vt 0.978552 0.941664
vt 0.969521 0.436240
vt 0.944541 0.449746
vt 0.944541 0.406276
vt 0.969521 0.406276
vt 0.242991 0.798970
vt 0.242991 0.844464
vt 0.235230 0.844464
vt 0.235230 0.798970
vt 0.394679 0.831234
vt 0.349186 0.831234
vt 0.349186 0.722856
vt 0.394679 0.722856
vt 0.235230 0.798971
vt 0.235230 0.844464
vt 0.227470 0.844464
vt 0.227470 0.798971
vt 0.394679 0.722856
vt 0.440173 0.722856
vt 0.440173 0.831234
vt 0.394679 0.831234
vt 0.440173 0.831234
vt 0.440173 0.722856
vt 0.447934 0.722856
vt 0.447934 0.831234
vt 0.475129 0.502417
vt 0.475129 0.610796
vt 0.467369 0.502417
vt 0.388360 0.934205
vt 0.395286 0.931336
vt 0.395286 0.950432
vt 0.388360 0.947563
vt 0.356112 0.934205
vt 0.349186 0.931336
vt 0.362688 0.917833
vt 0.365557 0.924760
vt 0.356112 0.947563
vt 0.349186 0.950431
vt 0.378915 0.957008
vt 0.381784 0.963934
vt 0.365557 0.957008
vt 0.362688 0.963934
vt 0.378915 0.924760
vt 0.381784 0.917833
vt 0.942130 0.487286
vt 0.942130 0.500644
vt 0.935203 0.503513
vt 0.935203 0.484417
vt 0.974378 0.487286
vt 0.964932 0.477841
vt 0.967801 0.470915
vt 0.981304 0.484417
vt 0.981304 0.503513
vt 0.974378 0.500644
vt 0.951575 0.510089
vt 0.948706 0.517015
vt 0.967802 0.517015
vt 0.964933 0.510089
vt 0.951575 0.477841
vt 0.948706 0.470915
vt 0.877112 0.691354
vt 0.877112 0.710449
vt 0.868370 0.710449
vt 0.868370 0.691354
vt 0.906408 0.711929
vt 0.906408 0.692834
vt 0.915151 0.692834
vt 0.915151 0.711929
vt 0.834916 0.959473
vt 0.826173 0.959472
vt 0.826173 0.940377
vt 0.834916 0.940377
vt 0.941973 0.067842
vt 0.941973 0.086938
vt 0.933231 0.086938
vt 0.933231 0.067842
vt 0.953283 0.468842
vt 0.944541 0.468842
vt 0.944541 0.449746
vt 0.953283 0.449746
vt 0.894597 0.710450
vt 0.885855 0.710450
vt 0.885855 0.691354
vt 0.894597 0.691354
vt 0.506785 0.967836
vt 0.506785 0.948741
vt 0.515527 0.948741
vt 0.515527 0.967836
vt 0.962493 0.892917
vt 0.953750 0.892917
vt 0.953750 0.873822
vt 0.962493 0.873822
vt 0.233257 0.941873
vt 0.236125 0.934947
vt 0.249628 0.948449
vt 0.242702 0.951319
vt 0.210454 0.964676
vt 0.203527 0.967545
vt 0.203527 0.948450
vt 0.210453 0.951319
vt 0.219899 0.974121
vt 0.217030 0.981048
vt 0.242702 0.964676
vt 0.249628 0.967545
vt 0.233257 0.974122
vt 0.236126 0.981048
vt 0.219899 0.941873
vt 0.217030 0.934947
vt 0.920091 0.827669
vt 0.911349 0.827669
vt 0.911349 0.808573
vt 0.920091 0.808573
vt 0.789688 0.710450
vt 0.780946 0.710450
vt 0.780946 0.691354
vt 0.789688 0.691354
vt 0.826174 0.978568
vt 0.826174 0.959472
vt 0.834916 0.959472
vt 0.834916 0.978568
vt 0.924488 0.086938
vt 0.915746 0.086938
vt 0.915746 0.067843
vt 0.924488 0.067843
vt 0.298194 0.963691
vt 0.298194 0.944595
vt 0.306936 0.944595
vt 0.306936 0.963691
vt 0.768369 0.935778
vt 0.768369 0.916682
vt 0.777111 0.916682
vt 0.777111 0.935778
vt 0.763461 0.691354
vt 0.772203 0.691354
vt 0.772203 0.710450
vt 0.763461 0.710450
vt 0.897666 0.711929
vt 0.897666 0.692834
vt 0.906408 0.692834
vt 0.906408 0.711929
vt 0.122281 0.868808
vt 0.135685 0.868808
vt 0.135685 0.934947
vt 0.122281 0.934947
vt 0.286102 0.927427
vt 0.272698 0.927427
vt 0.272698 0.857996
vt 0.286102 0.857996
vt 0.887757 0.429494
vt 0.881507 0.428946
vt 0.881507 0.362806
vt 0.887757 0.362806
vt 0.887299 0.258531
vt 0.881507 0.259039
vt 0.887299 0.189608
vt 0.466368 0.951572
vt 0.479772 0.951572
vt 0.479772 0.957727
vt 0.466368 0.957727
vt 0.913721 0.884790
vt 0.913720 0.898194
vt 0.907471 0.898194
vt 0.907471 0.884790
vt 0.913720 0.830352
vt 0.913720 0.843756
vt 0.907471 0.843756
vt 0.907471 0.830352
vt 0.417028 0.910466
vt 0.430432 0.910466
vt 0.430432 0.916622
vt 0.417028 0.916622
vt 0.937277 0.950947
vt 0.936430 0.944599
vt 0.939893 0.944902
vt 0.941588 0.951325
vt 0.340540 0.927427
vt 0.327136 0.927427
vt 0.327136 0.857996
vt 0.340540 0.857996
vt 0.067842 0.868808
vt 0.081247 0.868808
vt 0.081247 0.934947
vt 0.067842 0.934947
vt 0.480943 0.666554
vt 0.475129 0.666554
vt 0.475129 0.625520
vt 0.480943 0.625520
vt 0.067842 0.865331
vt 0.081246 0.865331
vt 0.958645 0.329565
vt 0.954334 0.329943
vt 0.956029 0.323521
vt 0.959492 0.323217
vt 0.340540 0.936011
vt 0.327136 0.936011
vt 0.887299 0.266327
vt 0.881507 0.267623
vt 0.887757 0.433821
vt 0.881507 0.432422
vt 0.286102 0.936011
vt 0.272698 0.936011
vt 0.122281 0.865331
vt 0.135685 0.865331
vt 0.919045 0.440821
vt 0.913253 0.439525
vt 0.913253 0.431729
vt 0.919045 0.432237
vt 0.912795 0.260623
vt 0.912795 0.256296
vt 0.954405 0.361345
vt 0.945853 0.362095
vt 0.947423 0.356143
vt 0.955189 0.355462
vt 0.341389 0.915886
vt 0.341389 0.874852
vt 0.349185 0.874852
vt 0.349186 0.915886
vt 0.941518 0.982726
vt 0.940733 0.976844
vt 0.948500 0.977524
vt 0.950070 0.983476
vt 0.417028 0.883370
vt 0.430432 0.883370
vt 0.945008 0.843756
vt 0.945008 0.884790
vt 0.939216 0.884790
vt 0.939216 0.843756
vt 0.945008 0.830352
vt 0.939216 0.830352
vt 0.945008 0.898194
vt 0.939216 0.898194
vt 0.466368 0.924475
vt 0.479772 0.924475
vt 0.912795 0.189608
vt 0.913253 0.362806
vt 0.919045 0.255747
vt 0.919045 0.189608
vt 0.466368 0.917833
vt 0.479772 0.917833
vt 0.417028 0.876728
vt 0.430432 0.876728
vt 0.440173 0.872269
vt 0.433899 0.872269
vt 0.433899 0.831234
vt 0.440173 0.831234
vt 0.919045 0.259224
vt 0.996115 0.830352
vt 0.996115 0.871386
vt 0.969989 0.871386
vt 0.969989 0.830352
vt 0.913253 0.447322
vt 0.887757 0.438148
vt 0.932967 0.981977
vt 0.932967 0.976162
vt 0.919045 0.449406
vt 0.286102 0.944595
vt 0.272698 0.944595
vt 0.881507 0.435899
vt 0.067842 0.861854
vt 0.081247 0.861854
vt 0.932967 0.950569
vt 0.932967 0.944295
vt 0.835301 0.840354
vt 0.839628 0.840354
vt 0.839628 0.881388
vt 0.835301 0.881388
vt 0.919045 0.262701
vt 0.912795 0.264950
vt 0.962956 0.360595
vt 0.962956 0.354781
vt 0.887299 0.274123
vt 0.122281 0.861854
vt 0.135685 0.861854
vt 0.340540 0.944595
vt 0.327136 0.944595
vt 0.962955 0.329187
vt 0.962955 0.322913
vt 0.190025 0.981048
vt 0.170929 0.981048
vt 0.173799 0.974119
vt 0.187155 0.974119
vt 0.157427 0.967545
vt 0.164356 0.964675
vt 0.170929 0.934947
vt 0.190025 0.934947
vt 0.187155 0.941876
vt 0.173799 0.941876
vt 0.203527 0.948450
vt 0.196599 0.951320
vt 0.157427 0.948449
vt 0.164356 0.951319
vt 0.203527 0.967545
vt 0.196598 0.964675
vt 0.664926 0.984210
vt 0.664926 0.943176
vt 0.694889 0.943176
vt 0.694889 0.984210
vt 0.985575 0.043470
vt 0.944541 0.043470
vt 0.985575 -0.000000
vt 0.969989 0.873822
vt 0.945008 0.860315
vt 0.945008 0.830352
vt 0.969989 0.830352
vt 0.772747 0.973089
vt 0.747766 0.986595
vt 0.747767 0.943125
vt 0.772747 0.943126
vt 0.235230 0.753477
vt 0.235230 0.798971
vt 0.227470 0.798971
vt 0.045494 0.861854
vt -0.000000 0.861854
vt -0.000000 0.753477
vt 0.045494 0.753477
vt 0.424788 0.831234
vt 0.424788 0.876728
vt 0.417028 0.876728
vt 0.090988 0.753477
vt 0.090988 0.861854
vt 0.447934 0.831234
vt 0.447934 0.722857
vt 0.455695 0.722857
vt 0.455695 0.831234
vt 0.475129 0.719175
vt 0.475129 0.827553
vt 0.467369 0.827553
vt 0.467369 0.719175
vt 0.740840 0.959497
vt 0.747766 0.956628
vt 0.747766 0.975724
vt 0.740840 0.972855
vt 0.708592 0.959497
vt 0.701666 0.956628
vt 0.715168 0.943125
vt 0.718037 0.950052
vt 0.708592 0.972855
vt 0.701666 0.975724
vt 0.731395 0.982300
vt 0.734264 0.989226
vt 0.718037 0.982300
vt 0.715168 0.989226
vt 0.731395 0.950052
vt 0.734264 0.943125
vt 0.084214 0.941873
vt 0.074768 0.951319
vt 0.067842 0.948450
vt 0.081345 0.934947
vt 0.107017 0.964677
vt 0.107017 0.951319
vt 0.113943 0.948450
vt 0.113943 0.967546
vt 0.100440 0.981048
vt 0.097571 0.974122
vt 0.074768 0.964676
vt 0.067842 0.967545
vt 0.081345 0.981048
vt 0.084214 0.974122
vt 0.097571 0.941873
vt 0.100440 0.934947
vt 0.893864 0.808573
vt 0.893864 0.827669
vt 0.885122 0.827669
vt 0.885122 0.808574
vt 0.824658 0.710450
vt 0.824658 0.691354
vt 0.833400 0.691354
vt 0.833400 0.710450
vt 0.962025 0.468842
vt 0.953283 0.468842
vt 0.953283 0.449746
vt 0.962025 0.449746
vt 0.626220 0.962271
vt 0.626220 0.943176
vt 0.634962 0.943176
vt 0.634963 0.962271
vt 0.923893 0.711929
vt 0.915151 0.692834
vt 0.923893 0.692834
vt 0.877112 0.710449
vt 0.877112 0.691354
vt 0.890250 0.468501
vt 0.890250 0.449406
vt 0.898992 0.449406
vt 0.898992 0.468501
vt 0.977502 0.828205
vt 0.968760 0.828205
vt 0.968760 0.809109
vt 0.977502 0.809109
vt 0.425015 0.957008
vt 0.427884 0.963934
vt 0.408789 0.963934
vt 0.411658 0.957008
vt 0.425016 0.924760
vt 0.427884 0.917833
vt 0.441387 0.931336
vt 0.434461 0.934205
vt 0.411658 0.924760
vt 0.408789 0.917834
vt 0.402213 0.947563
vt 0.395286 0.950432
vt 0.402213 0.934205
vt 0.395286 0.931336
vt 0.434461 0.947563
vt 0.441387 0.950432
vt 0.945008 0.892917
vt 0.945008 0.873822
vt 0.789688 0.691354
vt 0.798430 0.691354
vt 0.798430 0.710450
vt 0.789688 0.710450
vt 0.927787 0.275407
vt 0.927787 0.256311
vt 0.936530 0.256311
vt 0.936530 0.275407
vt 0.479772 0.976822
vt 0.471030 0.976822
vt 0.471030 0.957727
vt 0.479772 0.957727
vt 0.924488 0.086938
vt 0.924488 0.067843
vt 0.933231 0.067843
vt 0.933231 0.086938
vt 0.807173 0.710450
vt 0.807173 0.691354
vt 0.815915 0.691354
vt 0.815915 0.710450
vt 0.754718 0.691354
vt 0.763461 0.691354
vt 0.763461 0.710450
vt 0.754718 0.710450
vt 0.621162 0.935778
vt 0.621162 0.916682
vt 0.629905 0.916682
vt 0.629905 0.935778
vt 0.190123 0.868807
vt 0.203527 0.868807
vt 0.203527 0.934947
vt 0.190123 0.934947
vt 0.013404 0.931285
vt 0.000000 0.931285
vt 0.000000 0.861854
vt 0.013404 0.861854
vt 0.891372 0.788661
vt 0.885122 0.788114
vt 0.885122 0.721974
vt 0.891372 0.721974
vt 0.445965 0.900157
vt 0.440173 0.900665
vt 0.440173 0.831234
vt 0.445965 0.831234
vt 0.932449 0.356651
vt 0.945853 0.356651
vt 0.945853 0.362806
vt 0.932449 0.362806
vt 0.925295 0.157447
vt 0.925295 0.170851
vt 0.919045 0.170851
vt 0.919045 0.157447
vt 0.925295 0.103009
vt 0.925295 0.116413
vt 0.919045 0.116413
vt 0.919045 0.103009
vt 0.919045 0.356651
vt 0.932449 0.356651
vt 0.932449 0.362806
vt 0.919045 0.362806
vt 0.982863 0.948316
vt 0.982015 0.941968
vt 0.985479 0.942271
vt 0.987173 0.948694
vt 0.067842 0.931285
vt 0.054438 0.931285
vt 0.054438 0.861854
vt 0.067842 0.861854
vt 0.135685 0.868807
vt 0.149089 0.868807
vt 0.149089 0.934947
vt 0.135685 0.934947
vt 0.480943 0.584485
vt 0.475129 0.584485
vt 0.475129 0.543451
vt 0.480943 0.543451
vt 0.135685 0.865331
vt 0.149089 0.865331
vt 0.262420 0.941599
vt 0.258110 0.941977
vt 0.259804 0.935554
vt 0.263268 0.935251
vt 0.067842 0.939869
vt 0.054438 0.939869
vt 0.445965 0.907953
vt 0.440173 0.909249
vt 0.891372 0.792989
vt 0.885122 0.791590
vt 0.013404 0.939869
vt 0.000000 0.939869
vt 0.190123 0.865331
vt 0.203527 0.865331
vt 0.922659 0.799989
vt 0.916868 0.798693
vt 0.916868 0.790897
vt 0.922659 0.791405
vt 0.471461 0.902249
vt 0.471461 0.897921
vt 0.258179 0.973378
vt 0.249628 0.974128
vt 0.251198 0.968176
vt 0.258964 0.967495
vt 0.623630 0.875648
vt 0.623631 0.916682
vt 0.615834 0.916682
vt 0.615834 0.875648
vt 0.987103 0.980095
vt 0.986318 0.974212
vt 0.994085 0.974893
vt 0.995655 0.980845
vt 0.919045 0.329555
vt 0.932449 0.329555
vt 0.956582 0.116413
vt 0.956582 0.157447
vt 0.950791 0.157447
vt 0.950791 0.116413
vt 0.956582 0.103009
vt 0.950791 0.103009
vt 0.956582 0.170851
vt 0.950791 0.170851
vt 0.932449 0.329555
vt 0.945853 0.329555
vt 0.471461 0.831234
vt 0.916868 0.721974
vt 0.922659 0.721974
vt 0.477711 0.897374
vt 0.477711 0.831234
vt 0.932449 0.322913
vt 0.945853 0.322913
vt 0.919045 0.322913
vt 0.932449 0.322913
vt 0.440173 0.913302
vt 0.433899 0.913302
vt 0.433899 0.872268
vt 0.440173 0.872268
vt 0.477711 0.900850
vt 0.968760 0.809109
vt 0.968760 0.768075
vt 0.994886 0.768075
vt 0.994886 0.809109
vt 0.916868 0.806489
vt 0.891372 0.797316
vt 0.978552 0.979345
vt 0.978552 0.973531
vt 0.922659 0.808573
vt 0.013404 0.948453
vt 0.000000 0.948453
vt 0.885122 0.795067
vt 0.135685 0.861854
vt 0.149089 0.861854
vt 0.978552 0.947938
vt 0.978552 0.941664
vt 0.476962 0.721974
vt 0.481289 0.721974
vt 0.481289 0.763009
vt 0.476962 0.763009
vt 0.477711 0.904327
vt 0.471461 0.906576
vt 0.266731 0.972628
vt 0.266731 0.966815
vt 0.445965 0.915749
vt 0.190123 0.861854
vt 0.203527 0.861854
vt 0.440173 0.917833
vt 0.067842 0.948453
vt 0.054438 0.948453
vt 0.266731 0.941221
vt 0.266731 0.934947
vt 0.549131 0.975774
vt 0.549131 0.956678
vt 0.556060 0.959548
vt 0.556060 0.972904
vt 0.581729 0.943176
vt 0.595232 0.956678
vt 0.588303 0.959548
vt 0.578859 0.950105
vt 0.595231 0.975774
vt 0.588303 0.972904
vt 0.562634 0.989277
vt 0.565504 0.982348
vt 0.581729 0.989277
vt 0.578859 0.982348
vt 0.562633 0.943176
vt 0.565504 0.950105
vt 0.664926 0.943176
vt 0.664926 0.984210
vt 0.634962 0.984210
vt 0.634962 0.943176
vt 0.985575 0.086940
vt 0.944541 0.086940
vt 0.953571 0.928157
vt 0.953571 0.898194
vt 0.978552 0.898194
vt 0.969521 0.392770
vt 0.944541 0.362806
vt 0.969521 0.362806
vt 0.242991 0.753477
vt 0.242991 0.798971
vt 0.090988 0.753477
vt 0.136482 0.753477
vt 0.136482 0.861854
vt 0.090988 0.861854
vt 0.432549 0.831234
vt 0.432549 0.876728
vt 0.424788 0.876728
vt 0.424788 0.831234
vt 0.181976 0.861854
vt 0.136482 0.861854
vt 0.136482 0.753477
vt 0.181976 0.753477
vt 0.288219 0.749619
vt 0.288219 0.857996
vt 0.280458 0.857996
vt 0.280458 0.749619
vt 0.459608 0.831234
vt 0.459608 0.722857
vt 0.467369 0.722857
vt 0.467369 0.831234
vt 0.951575 0.631917
vt 0.948706 0.624991
vt 0.967801 0.624991
vt 0.964932 0.631918
vt 0.951575 0.664166
vt 0.948706 0.671092
vt 0.935203 0.657589
vt 0.942129 0.654720
vt 0.964932 0.664166
vt 0.967801 0.671092
vt 0.974378 0.641363
vt 0.981304 0.638494
vt 0.974378 0.654720
vt 0.981304 0.657589
vt 0.942129 0.641363
vt 0.935203 0.638494
vt 0.935416 0.315382
vt 0.948774 0.315382
vt 0.951643 0.322308
vt 0.932548 0.322308
vt 0.935416 0.283133
vt 0.925971 0.292579
vt 0.919045 0.289710
vt 0.932547 0.276207
vt 0.951643 0.276207
vt 0.948774 0.283134
vt 0.958219 0.305937
vt 0.965146 0.308805
vt 0.965146 0.289710
vt 0.958219 0.292579
vt 0.925971 0.305937
vt 0.919045 0.308806
vt 0.898992 0.468501
vt 0.898992 0.449406
vt 0.907734 0.449406
vt 0.907735 0.468501
vt 0.815915 0.691354
vt 0.824657 0.691354
vt 0.824657 0.710450
vt 0.634963 0.981366
vt 0.626220 0.981366
vt 0.626220 0.962271
vt 0.634963 0.962271
vt 0.923893 0.711929
vt 0.923893 0.692834
vt 0.932635 0.692834
vt 0.932635 0.711929
vt 0.332432 0.852914
vt 0.323690 0.852914
vt 0.323690 0.833818
vt 0.332432 0.833818
vt 0.868370 0.710449
vt 0.859627 0.710449
vt 0.859627 0.691354
vt 0.868370 0.691354
vt 0.737233 0.710450
vt 0.737233 0.691354
vt 0.745976 0.691354
vt 0.745976 0.710450
vt 0.890250 0.468501
vt 0.881507 0.468501
vt 0.881507 0.449406
vt 0.890250 0.449406
vt 0.951575 0.678018
vt 0.948706 0.671092
vt 0.967801 0.671092
vt 0.964932 0.678018
vt 0.951575 0.710266
vt 0.948706 0.717193
vt 0.935203 0.703690
vt 0.942129 0.700821
vt 0.964932 0.710266
vt 0.967801 0.717193
vt 0.974378 0.687464
vt 0.981304 0.684595
vt 0.974378 0.700821
vt 0.981304 0.703690
vt 0.942129 0.687463
vt 0.935203 0.684594
vt 0.915746 0.086938
vt 0.907003 0.086938
vt 0.907003 0.067842
vt 0.915746 0.067842
vt 0.737233 0.710450
vt 0.728491 0.710450
vt 0.728491 0.691354
vt 0.737233 0.691354
vt 0.919045 0.275407
vt 0.919045 0.256311
vt 0.927787 0.256311
vt 0.927787 0.275407
vt 0.970768 0.468842
vt 0.962025 0.468842
vt 0.962025 0.449746
vt 0.970768 0.449746
vt 0.885729 0.963052
vt 0.885729 0.982147
vt 0.876986 0.982147
vt 0.876986 0.963052
vt 0.314947 0.852914
vt 0.314947 0.833818
vt 0.807173 0.710450
vt 0.798431 0.710450
vt 0.798431 0.691354
vt 0.807173 0.691354
vt 0.979510 0.449746
vt 0.979510 0.468842
vt 0.970768 0.468842
vt 0.970768 0.449746
vt 0.494693 0.941787
vt 0.481289 0.941787
vt 0.481289 0.875648
vt 0.494693 0.875648
vt 0.894067 0.847520
vt 0.907471 0.847520
vt 0.907471 0.916951
vt 0.894066 0.916951
vt 0.794886 0.907041
vt 0.788636 0.906493
vt 0.788636 0.840354
vt 0.794886 0.840354
vt 0.903457 0.539837
vt 0.897666 0.540345
vt 0.897666 0.470915
vt 0.903458 0.470915
vt 0.935203 0.550754
vt 0.948608 0.550754
vt 0.948608 0.556909
vt 0.935204 0.556909
vt 0.928953 0.638395
vt 0.928953 0.624991
vt 0.935203 0.624991
vt 0.935203 0.638395
vt 0.928953 0.692834
vt 0.928953 0.679430
vt 0.935203 0.679429
vt 0.935203 0.692834
vt 0.826173 0.915126
vt 0.839577 0.915126
vt 0.839577 0.921281
vt 0.826173 0.921281
vt 0.952919 0.523667
vt 0.952072 0.517319
vt 0.955535 0.517623
vt 0.957229 0.524045
vt 0.839628 0.847520
vt 0.853032 0.847520
vt 0.853032 0.916951
vt 0.839628 0.916951
vt 0.549131 0.941787
vt 0.535727 0.941787
vt 0.535727 0.875648
vt 0.549131 0.875648
vt 0.475129 0.584485
vt 0.480943 0.584485
vt 0.480943 0.625520
vt 0.549131 0.945264
vt 0.535727 0.945264
vt 0.978503 0.523667
vt 0.974192 0.524045
vt 0.975886 0.517623
vt 0.979350 0.517319
vt 0.839628 0.838936
vt 0.853032 0.838936
vt 0.903457 0.547634
vt 0.897666 0.548930
vt 0.794886 0.911368
vt 0.788636 0.909970
vt 0.894066 0.838936
vt 0.907471 0.838936
vt 0.494693 0.945264
vt 0.481289 0.945264
vt 0.826173 0.918369
vt 0.820382 0.917073
vt 0.820382 0.909276
vt 0.826173 0.909784
vt 0.928953 0.541929
vt 0.928953 0.537602
vt 0.974262 0.555447
vt 0.965710 0.556197
vt 0.967280 0.550245
vt 0.975047 0.549564
vt 0.341389 0.874853
vt 0.341389 0.833818
vt 0.349186 0.833818
vt 0.349186 0.874853
vt 0.957159 0.555447
vt 0.956374 0.549564
vt 0.964140 0.550245
vt 0.965710 0.556197
vt 0.826173 0.888030
vt 0.839577 0.888030
vt 0.897666 0.679430
vt 0.897666 0.638395
vt 0.903457 0.638395
vt 0.903457 0.679430
vt 0.897666 0.692833
vt 0.903457 0.692833
vt 0.897666 0.624991
vt 0.903457 0.624991
vt 0.935204 0.523658
vt 0.948608 0.523658
vt 0.928954 0.470915
vt 0.820382 0.840354
vt 0.826173 0.840354
vt 0.935203 0.537054
vt 0.935203 0.470915
vt 0.935204 0.517015
vt 0.948608 0.517016
vt 0.826173 0.881388
vt 0.839577 0.881388
vt 0.768369 0.875648
vt 0.774643 0.875648
vt 0.774643 0.916682
vt 0.768369 0.916682
vt 0.935203 0.540531
vt 0.995647 0.362806
vt 0.995647 0.403841
vt 0.969521 0.403841
vt 0.820382 0.924869
vt 0.794886 0.915695
vt 0.948608 0.554697
vt 0.948608 0.548883
vt 0.826173 0.926953
vt 0.894066 0.830352
vt 0.907470 0.830352
vt 0.788636 0.913446
vt 0.549131 0.948741
vt 0.535727 0.948741
vt 0.948608 0.523289
vt 0.948608 0.517015
vt 0.481289 0.804043
vt 0.476962 0.804043
vt 0.476962 0.763008
vt 0.481289 0.763008
vt 0.935203 0.544007
vt 0.928953 0.546256
vt 0.982813 0.554697
vt 0.982813 0.548883
vt 0.903457 0.555430
vt 0.494693 0.948741
vt 0.481289 0.948741
vt 0.897666 0.557514
vt 0.839628 0.830352
vt 0.853032 0.830352
vt 0.982813 0.523289
vt 0.982813 0.517015
vt 0.955257 0.768075
vt 0.936162 0.768075
vt 0.939031 0.761149
vt 0.952388 0.761149
vt 0.922659 0.735477
vt 0.936162 0.721974
vt 0.939031 0.728900
vt 0.929585 0.738346
vt 0.955257 0.721974
vt 0.952388 0.728900
vt 0.968760 0.754572
vt 0.961834 0.751703
vt 0.968760 0.735477
vt 0.961834 0.738346
vt 0.922659 0.754573
vt 0.929585 0.751704
vt 0.816709 0.576861
vt 0.788531 0.546799
vt 0.869488 0.470915
vt 0.897666 0.500976
vt 0.386412 0.616910
vt 0.356407 0.588786
vt 0.437364 0.502417
vt 0.467369 0.530541
vt 0.000000 0.948453
vt 0.025496 0.948453
vt 0.025496 0.989620
vt 0.000000 0.989620
vt 0.328229 0.618848
vt 0.358234 0.646972
vt 0.330088 0.676999
vt 0.300084 0.648875
vt 0.786704 0.604985
vt 0.758526 0.574923
vt 0.944541 0.470713
vt 0.919045 0.470713
vt 0.919045 0.429510
vt 0.944541 0.429510
vt 0.349185 0.833818
vt 0.323690 0.833818
vt 0.323690 0.722856
vt 0.349185 0.722856
vt 0.298194 0.833818
vt 0.298194 0.722857
vt 0.323690 0.722856
vt 0.467369 0.692795
vt 0.439191 0.722857
vt 0.965146 0.276207
vt 0.990641 0.276207
vt 0.990641 0.317332
vt 0.965146 0.317332
vt 0.814132 0.840354
vt 0.788636 0.721974
vt 0.814132 0.721974
vt 0.839628 0.840354
vt 0.814132 0.840354
vt 0.814132 0.721974
vt 0.839628 0.721974
vt 0.897666 0.663230
vt 0.867661 0.691354
vt 0.549131 0.989865
vt 0.523635 0.989865
vt 0.523635 0.948740
vt 0.549131 0.948740
vt 0.481289 0.948740
vt 0.506785 0.948740
vt 0.506785 0.989896
vt 0.481289 0.989896
vt 0.989865 0.557514
vt 0.989865 0.598669
vt 0.964369 0.598669
vt 0.730381 0.544896
vt 0.760385 0.516772
vt 0.956582 0.146479
vt 0.982078 0.146479
vt 0.982078 0.187682
vt 0.956582 0.187682
vt 0.756669 0.633138
vt 0.728491 0.603076
vt 0.298194 0.590695
vt 0.326372 0.560633
vt 0.050992 0.948453
vt 0.050992 0.989620
vt 0.481289 0.616956
vt 0.522473 0.616956
vt 0.522472 0.721974
vt 0.481289 0.721974
vt 0.298194 0.605426
vt 0.272698 0.605426
vt 0.272698 0.502417
vt 0.298194 0.502417
vt 0.272698 0.708435
vt 0.298194 0.708435
vt 0.298194 0.749619
vt 0.272698 0.749619
vt 0.272698 0.753477
vt 0.247202 0.753477
vt 0.247202 0.712454
vt 0.272698 0.712454
vt 0.041183 0.712454
vt 0.041183 0.753476
vt -0.000000 0.753476
vt -0.000000 0.712454
vt 0.522473 0.470915
vt 0.522473 0.511937
vt 0.481289 0.511937
vt 0.481289 0.470915
vt 0.340540 0.985779
vt 0.315044 0.985779
vt 0.315044 0.944595
vt 0.340540 0.944595
vt 0.041183 0.607435
vt 0.000000 0.607435
vt 0.000000 0.502417
vt 0.041183 0.502417
vt 0.272698 0.858495
vt 0.247202 0.858495
vt 0.247202 0.753477
vt 0.272698 0.753477
vt 0.272698 0.607436
vt 0.247202 0.607436
vt 0.247202 0.502417
vt 0.272698 0.502417
vt 0.974504 0.233090
vt 1.000000 0.233090
vt 1.000000 0.274112
vt 0.974504 0.274112
vt 0.144192 0.753476
vt 0.144192 0.712454
vt 0.247202 0.712454
vt 0.247202 0.753476
vt 0.625482 0.511938
vt 0.625482 0.470915
vt 0.728491 0.470915
vt 0.728491 0.511938
vt 0.907003 0.103009
vt 0.881507 -0.000000
vt 0.907003 -0.000000
vt 0.107886 0.712454
vt 0.107886 0.671253
vt 0.144192 0.671253
vt 0.589176 0.511938
vt 0.589176 0.470915
vt 0.107886 0.753476
vt 0.298194 0.641732
vt 0.272698 0.641732
vt 0.272698 0.645751
vt 0.247202 0.645751
vt 0.994256 0.763067
vt 0.968760 0.763067
vt 0.968760 0.721974
vt 0.994256 0.721974
vt 0.041183 0.645751
vt 0.000000 0.645751
vt 0.481289 0.578641
vt 0.522473 0.578641
vt 0.944541 0.429509
vt 0.919045 0.429509
vt 0.919045 0.362806
vt 0.944541 0.256311
vt 0.919045 0.256311
vt 0.919045 0.189608
vt 0.466883 0.999619
vt 0.441387 0.999619
vt 0.441387 0.961303
vt 0.466883 0.961303
vt 0.082276 0.607435
vt 0.082276 0.645751
vt 0.563565 0.578641
vt 0.563565 0.616956
vt 0.990642 0.358425
vt 0.965146 0.358425
vt 0.990642 0.317332
vt 0.865124 0.999358
vt 0.839628 0.999358
vt 0.839628 0.963052
vt 0.865124 0.963052
vt 0.298194 0.985796
vt 0.272698 0.985796
vt 0.272698 0.944595
vt 0.298194 0.944595
vt 0.625481 0.553138
vt 0.589175 0.553138
vt 0.932967 0.985496
vt 0.907471 0.985496
vt 0.907471 0.944295
vt 0.932967 0.944295
s 1
usemtl Checker
f 17/1/1 16/2/1 7/3/1 9/4/1
f 9/5/2 7/6/2 8/7/2 11/8/2
f 13/9/3 14/10/3 3/11/3 4/12/3
f 6/13/4 12/14/4 58/15/4 57/16/4
f 34/17/3 33/18/3 18/19/3 19/20/3
f 41/21/2 40/22/2 24/23/2 25/24/2
f 2/25/3 13/9/3 54/26/3 55/27/3
f 3/28/2 9/5/2 11/8/2 4/29/2
f 14/30/1 17/1/1 9/4/1 3/31/1
f 1/32/1 10/33/1 17/1/1 14/30/1
f 12/14/4 2/34/4 55/35/4 58/15/4
f 11/8/2 8/7/2 61/36/2 59/37/2
f 2/25/3 1/38/3 14/10/3 13/9/3
f 10/33/1 5/39/1 16/2/1 17/1/1
f 18/19/3 33/18/3 46/40/3 45/41/3
f 27/42/4 36/43/4 52/44/4 49/45/4
f 31/46/5 30/47/5 21/48/5 20/49/5
f 32/50/1 34/51/1 19/52/1 23/53/1
f 25/54/5 28/55/5 48/56/5 50/57/5
f 30/58/1 32/50/1 23/53/1 21/59/1
f 37/60/4 36/43/4 27/42/4 26/61/4
f 36/62/3 39/63/3 47/64/3 52/65/3
f 40/66/1 38/67/1 29/68/1 24/69/1
f 38/67/1 37/70/1 26/71/1 29/68/1
f 5/39/1 10/33/1 32/50/1 30/58/1
f 2/72/6 12/73/6 35/74/6 33/75/6
f 10/33/1 1/32/1 34/51/1 32/50/1
f 6/76/5 5/77/5 30/47/5 31/46/5
f 12/73/6 6/78/6 31/79/6 35/74/6
f 1/38/3 2/25/3 33/18/3 34/17/3
f 16/2/1 5/39/1 37/70/1 38/67/1
f 7/3/1 16/2/1 38/67/1 40/66/1
f 15/80/6 8/81/6 41/82/6 39/83/6
f 5/84/4 6/85/4 36/43/4 37/60/4
f 6/86/6 15/80/6 39/83/6 36/87/6
f 8/7/2 7/6/2 40/22/2 41/21/2
f 43/88/4 44/89/4 64/90/4 63/91/4
f 55/27/3 54/26/3 74/92/3 75/93/3
f 54/26/3 60/94/3 80/95/3 74/92/3
f 39/63/3 41/96/3 53/97/3 47/64/3
f 20/98/4 22/99/4 44/89/4 43/88/4
f 28/55/5 27/100/5 49/101/5 48/56/5
f 35/102/2 31/103/2 42/104/2 51/105/2
f 31/46/5 20/49/5 43/106/5 42/107/5
f 41/21/2 25/24/2 50/108/2 53/109/2
f 33/110/2 35/102/2 51/105/2 46/111/2
f 22/99/4 18/112/4 45/113/4 44/89/4
f 44/89/4 45/113/4 65/114/4 64/90/4
f 42/107/5 43/106/5 63/115/5 62/116/5
f 59/37/2 61/36/2 81/117/2 79/118/2
f 15/119/5 6/120/5 57/121/5 56/122/5
f 8/123/5 15/119/5 56/122/5 61/124/5
f 13/9/3 4/12/3 60/94/3 54/26/3
f 4/29/2 11/8/2 59/37/2 60/125/2
f 72/126/6 67/127/6 68/128/6 69/129/6
f 71/130/6 62/131/6 63/132/6 64/133/6
f 66/134/6 71/130/6 64/133/6 65/135/6
f 67/127/6 73/136/6 70/137/6 68/128/6
f 82/138/6 79/139/6 81/140/6 76/141/6
f 74/142/6 80/143/6 79/139/6 82/138/6
f 75/144/6 74/142/6 82/138/6 78/145/6
f 78/145/6 82/138/6 76/141/6 77/146/6
f 49/45/4 52/44/4 72/147/4 69/148/4
f 45/41/3 46/40/3 66/149/3 65/150/3
f 53/109/2 50/108/2 70/151/2 73/152/2
f 67/127/6 76/141/6 81/140/6 73/136/6
f 60/125/2 59/37/2 79/118/2 80/153/2
f 48/56/5 49/101/5 69/154/5 68/155/5
f 61/36/2 53/109/2 73/152/2 81/117/2
f 47/156/1 53/157/1 61/158/1 56/159/1
f 50/57/5 48/56/5 68/155/5 70/160/5
f 72/126/6 77/146/6 76/141/6 67/127/6
f 42/161/1 57/162/1 58/163/1 51/164/1
f 51/164/1 58/163/1 55/165/1 46/166/1
f 46/40/3 55/27/3 75/93/3 66/149/3
f 71/130/6 66/134/6 75/144/6 78/145/6
f 62/131/6 71/130/6 78/145/6 77/146/6
f 62/116/5 77/151/5 57/167/5 42/107/5
f 52/168/1 47/156/1 56/159/1 57/169/1
f 72/147/4 52/44/4 57/170/4 77/171/4
f 88/172/1 90/173/1 85/174/1 83/175/1
f 89/176/6 87/177/6 84/178/6 86/179/6
f 87/180/5 88/181/5 83/182/5 84/183/5
f 90/184/3 89/185/3 86/186/3 85/187/3
f 91/188/5 92/189/5 94/190/5 93/191/5
f 93/192/2 94/193/2 98/194/2 97/195/2
f 97/196/3 98/197/3 96/198/3 95/199/3
f 95/200/4 96/201/4 92/202/4 91/203/4
f 93/204/1 97/205/1 95/206/1 91/207/1
f 98/208/6 94/209/6 92/210/6 96/211/6
f 104/212/3 112/213/3 108/214/3 100/215/3
f 101/216/3 109/217/3 114/218/3 106/219/3
f 101/216/3 103/220/3 111/221/3 109/217/3
f 105/222/3 100/215/3 108/214/3 113/223/3
f 103/220/3 102/224/3 110/225/3 111/221/3
f 102/224/3 105/222/3 113/223/3 110/225/3
f 99/226/3 107/227/3 112/213/3 104/212/3
f 106/219/3 114/218/3 107/227/3 99/226/3
f 119/228/5 117/229/5 125/230/5 127/231/5
f 121/232/5 116/233/5 124/234/5 129/235/5
f 121/232/5 129/235/5 128/236/5 120/237/5
f 118/238/5 126/239/5 125/230/5 117/229/5
f 120/237/5 128/236/5 130/240/5 122/241/5
f 122/241/5 130/240/5 126/239/5 118/238/5
f 115/242/5 119/228/5 127/231/5 123/243/5
f 116/233/5 115/242/5 123/243/5 124/234/5
f 108/244/7 112/245/2 127/246/2 125/247/7
f 107/248/8 114/249/1 124/250/1 123/251/8
f 108/252/7 125/253/7 126/254/6 113/255/6
f 112/256/2 107/257/8 123/258/8 127/259/2
f 111/260/4 128/261/4 129/262/9 109/263/9
f 113/264/6 126/265/6 130/266/10 110/267/10
f 114/268/1 109/269/9 129/270/9 124/271/1
f 110/272/10 130/273/10 128/274/4 111/275/4
f 143/276/3 151/277/3 149/278/3 141/279/3
f 145/280/3 153/281/3 148/282/3 140/283/3
f 145/280/3 144/284/3 152/285/3 153/281/3
f 142/286/3 141/279/3 149/278/3 150/287/3
f 144/284/3 146/288/3 154/289/3 152/285/3
f 146/288/3 142/286/3 150/287/3 154/289/3
f 139/290/3 147/291/3 151/277/3 143/276/3
f 140/283/3 148/282/3 147/291/3 139/290/3
f 132/292/7 149/293/7 151/294/2 136/295/2
f 131/296/8 147/297/8 148/298/1 138/299/1
f 132/300/7 137/301/6 150/302/6 149/303/7
f 136/304/2 151/305/2 147/306/8 131/307/8
f 135/308/4 133/309/9 153/310/9 152/270/4
f 137/311/6 134/312/10 154/313/10 150/314/6
f 138/315/1 148/316/1 153/317/9 133/318/9
f 134/319/10 135/320/4 152/321/4 154/322/10
f 178/323/1 171/324/1 157/325/1 166/326/1
f 176/327/6 173/328/6 156/329/6 164/330/6
f 202/331/5 174/332/5 155/333/5 191/334/5
f 189/335/3 172/336/3 158/337/3 179/338/3
f 188/339/11 182/340/11 159/341/11 170/342/11
f 196/343/4 191/344/4 155/345/4 165/346/4
f 198/347/4 195/348/4 166/349/4 157/350/4
f 195/348/4 196/343/4 165/346/4 166/349/4
f 181/351/11 187/352/11 169/353/11 161/354/11
f 210/355/3 206/356/3 167/357/3 201/358/3
f 172/359/6 175/360/6 163/361/6 158/362/6
f 175/360/6 176/327/6 164/330/6 163/361/6
f 174/363/1 177/364/1 165/365/1 155/366/1
f 177/364/1 178/323/1 166/326/1 165/365/1
f 183/367/12 176/368/12 175/369/12 184/370/12
f 204/371/1 206/372/1 177/364/1 174/363/1
f 218/373/5 200/374/5 168/375/5 214/376/5
f 212/377/6 213/378/6 175/360/6 172/359/6
f 215/379/3 212/380/3 172/336/3 189/335/3
f 209/381/5 204/382/5 174/332/5 202/331/5
f 205/383/6 203/384/6 173/328/6 176/327/6
f 214/385/1 211/386/1 171/324/1 178/323/1
f 203/387/5 207/388/5 190/389/5 173/390/5
f 217/391/3 215/379/3 189/335/3 197/392/3
f 213/393/5 169/394/5 187/395/5 216/396/5
f 216/397/6 208/398/6 183/399/6 184/400/6
f 205/401/3 208/402/3 188/403/3 170/404/3
f 192/405/11 200/406/11 187/352/11 181/351/11
f 163/407/4 164/408/4 186/409/4 185/410/4
f 158/411/4 163/407/4 185/410/4 179/412/4
f 164/408/4 156/413/4 180/414/4 186/409/4
f 201/415/11 193/416/11 182/340/11 188/339/11
f 197/392/3 189/335/3 179/338/3 198/417/3
f 173/390/5 190/389/5 180/418/5 156/419/5
f 171/420/3 197/392/3 198/417/3 157/421/3
f 167/422/11 160/423/11 193/416/11 201/415/11
f 162/424/11 168/425/11 200/406/11 192/405/11
f 177/426/13 199/427/13 194/428/13 178/429/13
f 211/430/3 217/391/3 197/392/3 171/420/3
f 207/388/5 209/381/5 202/331/5 190/389/5
f 216/396/5 187/395/5 200/374/5 218/373/5
f 208/402/3 210/355/3 201/358/3 188/403/3
f 185/410/4 186/409/4 196/343/4 195/348/4
f 179/412/4 185/410/4 195/348/4 198/347/4
f 186/409/4 180/414/4 191/344/4 196/343/4
f 190/389/5 202/331/5 191/334/5 180/418/5
f 208/431/14 216/432/14 218/433/14 210/434/14
f 182/435/5 193/436/5 209/381/5 207/388/5
f 176/437/3 183/438/3 208/402/3 205/401/3
f 159/439/5 182/435/5 207/388/5 203/387/5
f 170/440/6 159/441/6 203/384/6 205/383/6
f 193/436/5 160/442/5 204/382/5 209/381/5
f 160/443/1 167/444/1 206/372/1 204/371/1
f 199/445/3 177/446/3 206/356/3 210/355/3
f 218/447/1 194/448/1 199/449/1 210/450/1
f 162/451/3 192/452/3 217/391/3 211/430/3
f 175/453/5 213/393/5 216/396/5 184/454/5
f 192/452/3 181/455/3 215/379/3 217/391/3
f 168/456/1 162/457/1 211/386/1 214/385/1
f 181/455/3 161/458/3 212/380/3 215/379/3
f 161/459/6 169/460/6 213/378/6 212/377/6
f 194/461/5 218/373/5 214/376/5 178/462/5
f 134/463/5 137/464/5 225/465/5 222/466/5
f 136/467/5 131/468/5 219/469/5 224/470/5
f 131/468/5 138/471/5 226/472/5 219/469/5
f 132/473/5 136/467/5 224/470/5 220/474/5
f 138/471/5 133/475/5 221/476/5 226/472/5
f 133/475/5 135/477/5 223/478/5 221/476/5
f 137/464/5 132/473/5 220/474/5 225/465/5
f 135/477/5 134/463/5 222/466/5 223/478/5
f 232/479/1 234/480/1 229/481/1 227/482/1
f 233/483/6 231/484/6 228/485/6 230/486/6
f 231/487/2 232/488/2 227/489/2 228/490/2
f 234/491/4 233/492/4 230/493/4 229/494/4
f 235/495/2 236/496/2 238/497/2 237/498/2
f 237/499/3 238/500/3 242/501/3 241/502/3
f 241/503/4 242/504/4 240/505/4 239/506/4
f 239/507/5 240/508/5 236/509/5 235/510/5
f 237/511/1 241/512/1 239/513/1 235/514/1
f 242/515/6 238/516/6 236/207/6 240/517/6
f 248/518/4 256/519/4 252/520/4 244/521/4
f 245/522/4 253/523/4 258/524/4 250/525/4
f 245/522/4 247/526/4 255/527/4 253/523/4
f 249/528/4 244/521/4 252/520/4 257/529/4
f 247/526/4 246/530/4 254/531/4 255/527/4
f 246/530/4 249/528/4 257/529/4 254/531/4
f 243/532/4 251/533/4 256/519/4 248/518/4
f 250/525/4 258/524/4 251/533/4 243/532/4
f 263/534/2 261/535/2 269/536/2 271/537/2
f 265/538/2 260/539/2 268/540/2 273/541/2
f 265/538/2 273/541/2 272/542/2 264/543/2
f 262/544/2 270/545/2 269/536/2 261/535/2
f 264/543/2 272/542/2 274/546/2 266/547/2
f 266/547/2 274/546/2 270/545/2 262/544/2
f 259/548/2 263/534/2 271/537/2 267/549/2
f 260/539/2 259/548/2 267/549/2 268/540/2
f 252/550/15 256/551/3 271/552/3 269/553/15
f 251/554/16 258/555/1 268/556/1 267/557/16
f 252/558/15 269/559/15 270/560/6 257/561/6
f 256/562/3 251/563/16 267/564/16 271/565/3
f 255/566/5 272/567/5 273/568/17 253/569/17
f 257/570/6 270/571/6 274/572/18 254/573/18
f 258/574/1 253/575/17 273/576/17 268/577/1
f 254/578/18 274/579/18 272/580/5 255/581/5
f 287/582/4 295/583/4 293/584/4 285/585/4
f 289/586/4 297/587/4 292/588/4 284/589/4
f 289/586/4 288/590/4 296/591/4 297/587/4
f 286/592/4 285/585/4 293/584/4 294/593/4
f 288/590/4 290/594/4 298/595/4 296/591/4
f 290/594/4 286/592/4 294/593/4 298/595/4
f 283/596/4 291/597/4 295/583/4 287/582/4
f 284/589/4 292/588/4 291/597/4 283/596/4
f 276/598/15 293/599/15 295/600/3 280/601/3
f 275/602/16 291/603/16 292/604/1 282/605/1
f 276/606/15 281/607/6 294/608/6 293/609/15
f 280/610/3 295/611/3 291/612/16 275/613/16
f 279/614/5 277/615/17 297/616/17 296/617/5
f 281/618/6 278/619/18 298/620/18 294/621/6
f 282/622/1 292/623/1 297/624/17 277/625/17
f 278/626/18 279/627/5 296/628/5 298/629/18
f 322/630/1 315/631/1 301/632/1 310/633/1
f 320/634/6 317/635/6 300/636/6 308/637/6
f 346/638/2 318/639/2 299/640/2 335/641/2
f 333/642/4 316/643/4 302/458/4 323/644/4
f 332/645/19 326/646/19 303/647/19 314/648/19
f 340/649/5 335/650/5 299/651/5 309/652/5
f 342/653/5 339/654/5 310/655/5 301/656/5
f 339/654/5 340/649/5 309/652/5 310/655/5
f 325/657/19 331/658/19 313/659/19 305/660/19
f 354/661/4 350/662/4 311/663/4 345/664/4
f 316/665/6 319/666/6 307/667/6 302/668/6
f 319/666/6 320/634/6 308/637/6 307/667/6
f 318/669/1 321/670/1 309/671/1 299/672/1
f 321/670/1 322/630/1 310/633/1 309/671/1
f 327/673/20 320/674/20 319/675/20 328/676/20
f 348/677/1 350/678/1 321/670/1 318/669/1
f 362/679/2 344/680/2 312/681/2 358/682/2
f 356/683/6 357/684/6 319/666/6 316/665/6
f 359/685/4 356/686/4 316/643/4 333/642/4
f 353/687/2 348/688/2 318/639/2 346/638/2
f 349/689/6 347/690/6 317/635/6 320/634/6
f 358/691/1 355/692/1 315/631/1 322/630/1
f 347/693/2 351/694/2 334/695/2 317/696/2
f 361/697/4 359/685/4 333/642/4 341/698/4
f 357/699/2 313/700/2 331/701/2 360/702/2
f 360/703/6 352/704/6 327/705/6 328/706/6
f 349/707/4 352/708/4 332/709/4 314/710/4
f 336/711/19 344/712/19 331/658/19 325/657/19
f 307/713/5 308/714/5 330/715/5 329/716/5
f 302/717/5 307/713/5 329/716/5 323/718/5
f 308/714/5 300/719/5 324/720/5 330/715/5
f 345/721/19 337/722/19 326/646/19 332/645/19
f 341/698/4 333/642/4 323/644/4 342/723/4
f 317/696/2 334/695/2 324/724/2 300/439/2
f 315/725/4 341/698/4 342/723/4 301/726/4
f 311/727/19 304/728/19 337/722/19 345/721/19
f 306/729/19 312/730/19 344/712/19 336/711/19
f 321/731/20 343/732/20 338/733/20 322/734/20
f 355/735/4 361/697/4 341/698/4 315/725/4
f 351/694/2 353/687/2 346/638/2 334/695/2
f 360/702/2 331/701/2 344/680/2 362/679/2
f 352/708/4 354/661/4 345/664/4 332/709/4
f 329/716/5 330/715/5 340/649/5 339/654/5
f 323/718/5 329/716/5 339/654/5 342/653/5
f 330/715/5 324/720/5 335/650/5 340/649/5
f 334/695/2 346/638/2 335/641/2 324/724/2
f 352/736/21 360/737/21 362/738/21 354/739/21
f 326/740/2 337/741/2 353/687/2 351/694/2
f 320/742/4 327/743/4 352/708/4 349/707/4
f 303/744/2 326/740/2 351/694/2 347/693/2
f 314/745/6 303/746/6 347/690/6 349/689/6
f 337/741/2 304/747/2 348/688/2 353/687/2
f 304/748/1 311/749/1 350/678/1 348/677/1
f 343/750/4 321/751/4 350/662/4 354/661/4
f 362/752/1 338/753/1 343/754/1 354/755/1
f 306/756/4 336/757/4 361/697/4 355/735/4
f 319/758/2 357/699/2 360/702/2 328/759/2
f 336/757/4 325/760/4 359/685/4 361/697/4
f 312/761/1 306/762/1 355/692/1 358/691/1
f 325/760/4 305/333/4 356/686/4 359/685/4
f 305/763/6 313/764/6 357/684/6 356/683/6
f 338/765/2 362/679/2 358/682/2 322/766/2
f 279/767/2 278/768/2 366/769/2 367/770/2
f 278/768/2 281/771/2 369/772/2 366/769/2
f 280/773/2 275/774/2 363/775/2 368/776/2
f 275/774/2 282/777/2 370/778/2 363/775/2
f 276/779/2 280/773/2 368/776/2 364/780/2
f 282/777/2 277/781/2 365/782/2 370/778/2
f 277/781/2 279/767/2 367/770/2 365/782/2
f 281/771/2 276/779/2 364/780/2 369/772/2
f 376/783/1 378/784/1 373/785/1 371/786/1
f 377/787/6 375/788/6 372/345/6 374/789/6
f 375/790/2 376/791/2 371/792/2 372/793/2
f 378/794/4 377/795/4 374/796/4 373/797/4
f 379/798/2 380/799/2 382/800/2 381/203/2
f 381/801/3 382/802/3 386/803/3 385/804/3
f 385/805/4 386/806/4 384/807/4 383/441/4
f 383/804/5 384/808/5 380/809/5 379/801/5
f 381/810/1 385/811/1 383/812/1 379/813/1
f 386/814/6 382/815/6 380/816/6 384/817/6
f 392/818/4 400/819/4 396/820/4 388/821/4
f 389/822/4 397/823/4 402/824/4 394/825/4
f 389/822/4 391/826/4 399/827/4 397/823/4
f 393/828/4 388/821/4 396/820/4 401/829/4
f 391/826/4 390/830/4 398/831/4 399/827/4
f 390/830/4 393/828/4 401/829/4 398/831/4
f 387/832/4 395/833/4 400/819/4 392/818/4
f 394/825/4 402/824/4 395/833/4 387/832/4
f 407/834/2 405/835/2 413/836/2 415/837/2
f 409/838/2 404/839/2 412/840/2 417/841/2
f 409/838/2 417/841/2 416/842/2 408/843/2
f 406/844/2 414/845/2 413/836/2 405/835/2
f 408/843/2 416/842/2 418/846/2 410/847/2
f 410/847/2 418/846/2 414/845/2 406/844/2
f 403/848/2 407/834/2 415/837/2 411/849/2
f 404/839/2 403/848/2 411/849/2 412/840/2
f 396/850/15 400/851/3 415/852/3 413/853/15
f 395/854/16 402/855/1 412/856/1 411/857/16
f 396/858/15 413/859/15 414/860/6 401/861/6
f 400/862/3 395/863/16 411/864/16 415/865/3
f 399/866/5 416/557/5 417/867/17 397/868/17
f 401/571/6 414/869/6 418/870/18 398/572/18
f 402/871/1 397/872/17 417/873/17 412/874/1
f 398/875/18 418/876/18 416/877/5 399/878/5
f 431/879/4 439/880/4 437/881/4 429/882/4
f 433/883/4 441/884/4 436/885/4 428/886/4
f 433/883/4 432/887/4 440/888/4 441/884/4
f 430/889/4 429/882/4 437/881/4 438/890/4
f 432/887/4 434/891/4 442/892/4 440/888/4
f 434/891/4 430/889/4 438/890/4 442/892/4
f 427/893/4 435/894/4 439/880/4 431/879/4
f 428/886/4 436/885/4 435/894/4 427/893/4
f 420/579/15 437/895/15 439/896/3 424/580/3
f 419/897/16 435/898/16 436/899/1 426/900/1
f 420/901/15 425/902/6 438/903/6 437/904/15
f 424/905/3 439/906/3 435/907/16 419/908/16
f 423/909/5 421/910/17 441/911/17 440/912/5
f 425/913/6 422/914/18 442/915/18 438/916/6
f 426/917/1 436/918/1 441/919/17 421/920/17
f 422/921/18 423/922/5 440/923/5 442/924/18
f 466/925/1 459/926/1 445/927/1 454/928/1
f 464/929/6 461/930/6 444/931/6 452/932/6
f 490/933/2 462/934/2 443/935/2 479/936/2
f 477/937/4 460/938/4 446/939/4 467/940/4
f 476/941/19 470/942/19 447/943/19 458/944/19
f 484/945/5 479/946/5 443/947/5 453/948/5
f 486/949/5 483/950/5 454/951/5 445/952/5
f 483/950/5 484/945/5 453/948/5 454/951/5
f 469/953/19 475/954/19 457/955/19 449/956/19
f 498/957/4 494/958/4 455/959/4 489/960/4
f 460/961/6 463/962/6 451/963/6 446/964/6
f 463/962/6 464/929/6 452/932/6 451/963/6
f 462/965/1 465/966/1 453/967/1 443/968/1
f 465/966/1 466/925/1 454/928/1 453/967/1
f 471/969/20 464/970/20 463/971/20 472/972/20
f 492/973/1 494/974/1 465/966/1 462/965/1
f 506/975/2 488/976/2 456/977/2 502/978/2
f 500/979/6 501/980/6 463/962/6 460/961/6
f 503/981/4 500/982/4 460/938/4 477/937/4
f 497/983/2 492/984/2 462/934/2 490/933/2
f 493/985/6 491/986/6 461/930/6 464/929/6
f 502/987/1 499/988/1 459/926/1 466/925/1
f 491/989/2 495/990/2 478/991/2 461/992/2
f 505/993/4 503/981/4 477/937/4 485/994/4
f 501/995/2 457/996/2 475/997/2 504/998/2
f 504/999/6 496/1000/6 471/1001/6 472/1002/6
f 493/1003/4 496/1004/4 476/1005/4 458/1006/4
f 480/1007/19 488/1008/19 475/954/19 469/953/19
f 451/1009/5 452/1010/5 474/1011/5 473/1012/5
f 446/1013/5 451/1009/5 473/1012/5 467/1014/5
f 452/1010/5 444/1015/5 468/1016/5 474/1011/5
f 489/1017/19 481/1018/19 470/942/19 476/941/19
f 485/994/4 477/937/4 467/940/4 486/1019/4
f 461/992/2 478/991/2 468/1020/2 444/1021/2
f 459/1022/4 485/994/4 486/1019/4 445/1023/4
f 455/1024/19 448/1025/19 481/1018/19 489/1017/19
f 450/1026/19 456/1027/19 488/1008/19 480/1007/19
f 465/1028/20 487/1029/20 482/1030/20 466/1031/20
f 499/1032/4 505/993/4 485/994/4 459/1022/4
f 495/990/2 497/983/2 490/933/2 478/991/2
f 504/998/2 475/997/2 488/976/2 506/975/2
f 496/1004/4 498/957/4 489/960/4 476/1005/4
f 473/1012/5 474/1011/5 484/945/5 483/950/5
f 467/1014/5 473/1012/5 483/950/5 486/949/5
f 474/1011/5 468/1016/5 479/946/5 484/945/5
f 478/991/2 490/933/2 479/936/2 468/1020/2
f 496/1033/21 504/1034/21 506/1035/21 498/1036/21
f 470/1037/2 481/1038/2 497/983/2 495/990/2
f 464/1039/4 471/1040/4 496/1004/4 493/1003/4
f 447/1041/2 470/1037/2 495/990/2 491/989/2
f 458/1042/6 447/1043/6 491/986/6 493/985/6
f 481/1038/2 448/1044/2 492/984/2 497/983/2
f 448/1045/1 455/1046/1 494/974/1 492/973/1
f 487/1047/4 465/1048/4 494/958/4 498/957/4
f 506/1049/1 482/1050/1 487/1051/1 498/1052/1
f 450/1053/4 480/1054/4 505/993/4 499/1032/4
f 463/1055/2 501/995/2 504/998/2 472/1056/2
f 480/1054/4 469/1057/4 503/981/4 505/993/4
f 456/1058/1 450/1059/1 499/988/1 502/987/1
f 469/1057/4 449/1060/4 500/982/4 503/981/4
f 449/1061/6 457/1062/6 501/980/6 500/979/6
f 482/1063/2 506/975/2 502/978/2 466/1064/2
f 420/1065/2 424/1066/2 512/1067/2 508/1068/2
f 426/1069/2 421/1070/2 509/1071/2 514/1072/2
f 421/1070/2 423/1073/2 511/1074/2 509/1071/2
f 425/1075/2 420/1065/2 508/1068/2 513/1076/2
f 423/1073/2 422/1077/2 510/1078/2 511/1074/2
f 422/1077/2 425/1075/2 513/1076/2 510/1078/2
f 424/1066/2 419/1079/2 507/1080/2 512/1067/2
f 419/1079/2 426/1069/2 514/1072/2 507/1080/2
f 520/1081/1 522/1082/1 517/1083/1 515/1084/1
f 521/1085/6 519/1086/6 516/788/6 518/787/6
f 519/394/5 520/1087/5 515/1088/5 516/1089/5
f 522/1090/3 521/493/3 518/1091/3 517/1092/3
f 523/1093/5 524/1094/5 526/799/5 525/798/5
f 525/1095/2 526/1096/2 530/1097/2 529/1098/2
f 529/1099/3 530/1100/3 528/1101/3 527/1102/3
f 527/1103/4 528/1104/4 524/1105/4 523/1106/4
f 525/1107/1 529/1108/1 527/1109/1 523/1110/1
f 530/1111/6 526/1112/6 524/1113/6 528/1114/6
f 536/1115/3 544/1116/3 540/1117/3 532/1118/3
f 533/1119/3 541/1120/3 546/1121/3 538/1122/3
f 533/1119/3 535/1123/3 543/1124/3 541/1120/3
f 537/1125/3 532/1118/3 540/1117/3 545/1126/3
f 535/1123/3 534/1127/3 542/1128/3 543/1124/3
f 534/1127/3 537/1125/3 545/1126/3 542/1128/3
f 531/1129/3 539/1130/3 544/1116/3 536/1115/3
f 538/1122/3 546/1121/3 539/1130/3 531/1129/3
f 551/1131/5 549/1132/5 557/1133/5 559/1134/5
f 553/1135/5 548/1136/5 556/1137/5 561/1138/5
f 553/1135/5 561/1138/5 560/1139/5 552/1140/5
f 550/1141/5 558/1142/5 557/1133/5 549/1132/5
f 552/1140/5 560/1139/5 562/1143/5 554/1144/5
f 554/1144/5 562/1143/5 558/1142/5 550/1141/5
f 547/1145/5 551/1131/5 559/1134/5 555/1146/5
f 548/1136/5 547/1145/5 555/1146/5 556/1137/5
f 540/1147/7 544/1148/2 559/1149/2 557/1150/7
f 539/916/8 546/1151/1 556/1152/1 555/1153/8
f 540/1154/7 557/1155/7 558/1156/6 545/1157/6
f 544/1158/2 539/1159/8 555/1160/8 559/1161/2
f 543/1162/4 560/1163/4 561/1164/9 541/1165/9
f 545/1166/6 558/1167/6 562/1168/10 542/1169/10
f 546/1170/1 541/1171/9 561/1172/9 556/1173/1
f 542/1174/10 562/1175/10 560/1176/4 543/1177/4
f 575/1178/3 583/1179/3 581/1180/3 573/1181/3
f 577/1182/3 585/1183/3 580/1184/3 572/1185/3
f 577/1182/3 576/1186/3 584/1187/3 585/1183/3
f 574/1188/3 573/1181/3 581/1180/3 582/1189/3
f 576/1186/3 578/1190/3 586/1191/3 584/1187/3
f 578/1190/3 574/1188/3 582/1189/3 586/1191/3
f 571/1192/3 579/1193/3 583/1179/3 575/1178/3
f 572/1185/3 580/1184/3 579/1193/3 571/1192/3
f 564/1194/7 581/1195/7 583/1196/2 568/1197/2
f 563/1198/8 579/1199/8 580/1200/1 570/1201/1
f 564/1202/7 569/1203/6 582/1204/6 581/1205/7
f 568/1206/2 583/1207/2 579/1208/8 563/1209/8
f 567/1210/4 565/1211/9 585/1212/9 584/1213/4
f 569/1214/6 566/1215/10 586/1164/10 582/1163/6
f 570/1216/1 580/1217/1 585/1218/9 565/1219/9
f 566/1220/10 567/1221/4 584/1222/4 586/1223/10
f 610/1224/1 603/1225/1 589/1226/1 598/1227/1
f 608/1228/6 605/1229/6 588/1230/6 596/1231/6
f 634/1232/5 606/1233/5 587/1234/5 623/1235/5
f 621/1236/3 604/1237/3 590/1238/3 611/1239/3
f 620/1240/11 614/1241/11 591/1242/11 602/1243/11
f 628/1244/4 623/1245/4 587/1246/4 597/1247/4
f 630/1248/4 627/1249/4 598/1250/4 589/1251/4
f 627/1249/4 628/1244/4 597/1247/4 598/1250/4
f 613/1252/11 619/1253/11 601/1254/11 593/1255/11
f 642/1256/3 638/1257/3 599/1258/3 633/1259/3
f 604/1260/6 607/1261/6 595/1262/6 590/1263/6
f 607/1261/6 608/1228/6 596/1231/6 595/1262/6
f 606/1264/1 609/1265/1 597/1266/1 587/1267/1
f 609/1265/1 610/1224/1 598/1227/1 597/1266/1
f 615/1268/12 608/1269/12 607/1270/12 616/675/12
f 636/1271/1 638/1272/1 609/1265/1 606/1264/1
f 650/1273/5 632/1274/5 600/1275/5 646/1276/5
f 644/1277/6 645/1278/6 607/1261/6 604/1260/6
f 647/1279/3 644/1280/3 604/1237/3 621/1236/3
f 641/1281/5 636/1282/5 606/1233/5 634/1232/5
f 637/1283/6 635/1284/6 605/1229/6 608/1228/6
f 646/1285/1 643/1286/1 603/1225/1 610/1224/1
f 635/1287/5 639/1288/5 622/1289/5 605/1290/5
f 649/1291/3 647/1279/3 621/1236/3 629/1292/3
f 645/1293/5 601/1294/5 619/1295/5 648/1296/5
f 648/1297/6 640/1298/6 615/1299/6 616/1300/6
f 637/1301/3 640/1302/3 620/1303/3 602/1304/3
f 624/1305/11 632/1306/11 619/1253/11 613/1252/11
f 595/1307/4 596/1308/4 618/1309/4 617/1310/4
f 590/1311/4 595/1307/4 617/1310/4 611/1312/4
f 596/1308/4 588/1313/4 612/1314/4 618/1309/4
f 633/1315/11 625/1316/11 614/1241/11 620/1240/11
f 629/1292/3 621/1236/3 611/1239/3 630/1317/3
f 605/1290/5 622/1289/5 612/1318/5 588/1319/5
f 603/1320/3 629/1292/3 630/1317/3 589/1321/3
f 599/1322/11 592/1323/11 625/1316/11 633/1315/11
f 594/1324/11 600/1325/11 632/1306/11 624/1305/11
f 609/1326/12 631/1327/12 626/1328/12 610/1329/12
f 643/1330/3 649/1291/3 629/1292/3 603/1320/3
f 639/1288/5 641/1281/5 634/1232/5 622/1289/5
f 648/1296/5 619/1295/5 632/1274/5 650/1273/5
f 640/1302/3 642/1256/3 633/1259/3 620/1303/3
f 617/1310/4 618/1309/4 628/1244/4 627/1249/4
f 611/1312/4 617/1310/4 627/1249/4 630/1248/4
f 618/1309/4 612/1314/4 623/1245/4 628/1244/4
f 622/1289/5 634/1232/5 623/1235/5 612/1318/5
f 640/1331/14 648/1332/14 650/1333/14 642/1092/14
f 614/1334/5 625/1335/5 641/1281/5 639/1288/5
f 608/1336/3 615/1337/3 640/1302/3 637/1301/3
f 591/1338/5 614/1334/5 639/1288/5 635/1287/5
f 602/1339/6 591/1340/6 635/1284/6 637/1283/6
f 625/1335/5 592/1341/5 636/1282/5 641/1281/5
f 592/1342/1 599/1343/1 638/1272/1 636/1271/1
f 631/1344/3 609/1345/3 638/1257/3 642/1256/3
f 650/1346/1 626/1347/1 631/1348/1 642/1349/1
f 594/1350/3 624/1351/3 649/1291/3 643/1330/3
f 607/1352/5 645/1293/5 648/1296/5 616/1353/5
f 624/1351/3 613/1354/3 647/1279/3 649/1291/3
f 600/1355/1 594/1356/1 643/1286/1 646/1285/1
f 613/1354/3 593/1357/3 644/1280/3 647/1279/3
f 593/1358/6 601/1359/6 645/1278/6 644/1277/6
f 626/1360/5 650/1273/5 646/1276/5 610/1361/5
f 564/1362/5 568/1363/5 656/1364/5 652/1365/5
f 570/1366/5 565/1367/5 653/1368/5 658/1369/5
f 565/1367/5 567/1370/5 655/1371/5 653/1368/5
f 569/1372/5 564/1362/5 652/1365/5 657/1373/5
f 567/1370/5 566/1374/5 654/1375/5 655/1371/5
f 566/1374/5 569/1372/5 657/1373/5 654/1375/5
f 568/1363/5 563/1376/5 651/1377/5 656/1364/5
f 563/1376/5 570/1366/5 658/1369/5 651/1377/5
f 661/1378/1 659/1379/1 668/1380/1 667/1381/1
f 662/1382/6 666/1383/6 674/1384/6 671/1385/6
f 664/1386/3 663/1387/3 681/1388/3 682/1389/3
f 664/1390/6 660/1391/6 676/1392/6 677/1393/6
f 661/1378/1 665/1394/1 663/1395/1 659/1379/1
f 666/1383/6 662/1382/6 660/1391/6 664/1390/6
f 668/1396/4 669/1397/4 670/1398/4 667/1399/4
f 662/1400/5 661/1401/5 667/1402/5 670/1403/5
f 659/1164/3 660/1404/3 669/1405/3 668/1406/3
f 660/1391/6 662/1382/6 670/1407/6 669/1408/6
f 672/1409/5 671/1410/5 674/1411/5 673/1412/5
f 661/1413/4 662/1234/4 671/1414/4 672/1415/4
f 666/1416/2 665/1417/2 673/1418/2 674/1419/2
f 665/1394/1 661/1378/1 672/1420/1 673/1421/1
f 678/1422/3 677/1423/3 676/1424/3 675/1425/3
f 663/1426/2 664/1427/2 677/1428/2 678/1429/2
f 660/75/4 659/1430/4 675/1431/4 676/1432/4
f 659/1379/1 663/1395/1 678/1433/1 675/1434/1
f 680/1435/2 679/1436/2 682/1437/2 681/1438/2
f 663/1395/1 665/1394/1 680/1439/1 681/1440/1
f 666/1383/6 664/1390/6 682/1441/6 679/1442/6
f 665/1387/5 666/1443/5 679/1444/5 680/1388/5
f 704/1445/6 703/1446/6 694/1447/6 693/1448/6
f 700/1449/2 699/1450/2 697/1451/2 698/1452/2
f 689/1453/2 690/1454/2 688/1455/2 687/1456/2
f 687/1457/3 688/1458/3 684/1459/3 683/1460/3
f 685/1461/1 689/1462/1 687/1463/1 683/1464/1
f 690/1465/6 686/1466/6 684/1467/6 688/1468/6
f 692/1469/4 693/1470/4 694/1471/4 691/1472/4
f 706/1473/1 705/1474/1 692/1475/1 691/1476/1
f 703/1477/5 706/1478/5 691/1479/5 694/1480/5
f 705/1481/3 704/1482/3 693/1483/3 692/1484/3
f 696/1485/5 695/1486/5 698/1487/5 697/1488/5
f 699/1489/1 701/1490/1 696/1491/1 697/1492/1
f 702/1493/6 700/1494/6 698/1495/6 695/1496/6
f 701/1497/4 702/337/4 695/1498/4 696/1499/4
f 701/1490/1 710/1500/1 719/1501/1 720/1502/1
f 708/1503/6 707/1504/6 700/1494/6 702/1493/6
f 709/1505/1 710/1500/1 701/1490/1 699/1489/1
f 707/1506/2 709/1507/2 699/1450/2 700/1449/2
f 714/1508/3 711/1509/3 704/1482/3 705/1481/3
f 706/1510/4 703/1511/4 716/1512/4 717/1513/4
f 712/1514/1 714/1515/1 705/1474/1 706/1473/1
f 711/1516/6 713/1517/6 703/1446/6 704/1445/6
f 690/1454/2 689/1453/2 709/1507/2 707/1506/2
f 689/1462/1 685/1461/1 710/1500/1 709/1505/1
f 686/1466/6 690/1465/6 707/1504/6 708/1503/6
f 685/1518/4 686/1519/4 708/1520/4 710/1091/4
f 684/1467/6 686/1466/6 713/1517/6 711/1516/6
f 685/1461/1 683/1464/1 714/1515/1 712/1514/1
f 686/1521/5 685/1522/5 712/1523/5 713/178/5
f 683/1460/3 684/1459/3 711/1509/3 714/1508/3
f 715/1524/5 718/1525/5 717/1526/5 716/1527/5
f 712/1514/1 706/1473/1 717/1528/1 718/1529/1
f 703/1446/6 713/1517/6 715/1530/6 716/1531/6
f 713/1532/2 712/1533/2 718/1412/2 715/1534/2
f 719/1535/4 722/1536/4 721/1537/4 720/1538/4
f 710/1539/3 708/1540/3 722/1541/3 719/1542/3
f 708/1503/6 702/1493/6 721/1543/6 722/1544/6
f 702/1545/5 701/1546/5 720/1547/5 721/1548/5
