# Blender 5.2.2 LTS
# www.blender.org
mtllib BarrierCorner.mtl
o BarrierCorner
v 2.500911 0.051380 2.602958
v 2.500911 0.100005 2.602958
v 2.500911 0.051380 2.500000
v 2.500911 0.100005 2.500000
v 2.602958 0.051380 2.602958
v 2.602958 0.100005 2.602958
v 2.602958 0.051380 2.500000
v 2.602958 0.100005 2.500000
v 2.847528 1.002554 2.846618
v 2.847528 1.002554 2.949576
v 2.949576 1.002554 2.846618
v 2.949576 1.002554 2.949576
v 2.659842 0.419669 2.658932
v 2.828358 0.758609 2.827447
v 2.930406 0.758609 2.827447
v 2.761890 0.419669 2.658932
v 2.930406 0.758609 2.930406
v 2.761890 0.419669 2.761890
v 2.659842 0.419669 2.761890
v 2.828358 0.758609 2.930406
v 2.679012 0.458226 2.678102
v 2.781060 0.458226 2.678102
v 2.781060 0.458226 2.781060
v 2.679012 0.458226 2.781060
v 2.847528 0.797167 2.846618
v 2.847528 0.797167 2.949576
v 2.949576 0.797167 2.846618
v 2.949576 0.797167 2.949576
v 2.713746 0.797396 2.712835
v 2.713746 0.797396 2.815794
v 2.532490 0.458456 2.531579
v 2.532490 0.458456 2.634538
v 2.713746 0.758838 2.712835
v 2.713746 0.758838 2.815794
v 2.532490 0.419898 2.531579
v 2.532490 0.419898 2.634538
v 2.634538 0.419898 2.531579
v 2.634538 0.458456 2.531579
v 2.815794 0.758838 2.712835
v 2.815794 0.797396 2.712835
v 2.577178 0.419898 2.531579
v 2.577178 0.457995 2.531579
v 2.615276 0.419898 2.531579
v 2.615276 0.457995 2.531579
v 2.623166 0.438947 2.531579
v 2.569288 0.438947 2.531579
v 2.596227 0.412008 2.531579
v 2.596227 0.465885 2.531579
v 2.596227 0.438947 2.531579
v 2.623166 0.438947 2.500910
v 2.615276 0.419898 2.500910
v 2.596227 0.412008 2.500910
v 2.596227 0.465885 2.500910
v 2.577178 0.457995 2.500910
v 2.569288 0.438947 2.500910
v 2.577178 0.419898 2.500910
v 2.615276 0.457995 2.500910
v 2.806425 0.777888 2.195396
v 2.760438 0.758840 2.712835
v 2.760438 0.796937 2.712835
v 2.798535 0.758840 2.712835
v 2.798535 0.796937 2.712835
v 2.806425 0.777888 2.712835
v 2.752548 0.777888 2.712835
v 2.779486 0.750950 2.712835
v 2.779486 0.804827 2.712835
v 2.779487 0.777888 2.712835
v 2.182003 0.777888 2.752548
v 2.713746 0.750950 2.779486
v 2.713746 0.758840 2.760437
v 2.713746 0.777888 2.752547
v 2.713746 0.796937 2.760437
v 2.713746 0.804827 2.779486
v 2.713746 0.796937 2.798534
v 2.713746 0.777888 2.806425
v 2.713746 0.758840 2.798534
v 2.713746 0.777888 2.779486
v 2.213288 0.419898 2.577178
v 2.213288 0.457995 2.577178
v 2.213288 0.419898 2.615275
v 2.213288 0.457995 2.615275
v 2.213288 0.438947 2.569288
v 2.213288 0.438947 2.623166
v 2.213288 0.412008 2.596227
v 2.213288 0.465885 2.596227
v 2.532490 0.412008 2.596227
v 2.532490 0.419898 2.577178
v 2.532490 0.438947 2.569288
v 2.532490 0.457995 2.577178
v 2.532490 0.465885 2.596227
v 2.532490 0.457995 2.615275
v 2.532490 0.438947 2.623166
v 2.532490 0.419898 2.615275
v 2.532490 0.438947 2.596227
v 2.806425 0.742778 2.655226
v 2.806425 0.812999 2.655226
v 2.818403 0.742778 2.655226
v 2.818403 0.812999 2.655226
v 2.798535 0.758840 2.685385
v 2.798535 0.796937 2.685385
v 2.760437 0.758840 2.685385
v 2.760437 0.796937 2.685385
v 2.752548 0.777888 2.685385
v 2.806425 0.777888 2.685385
v 2.779486 0.804827 2.685385
v 2.779486 0.750949 2.685385
v 2.806717 0.750657 2.685385
v 2.806717 0.805119 2.685385
v 2.752255 0.750657 2.685385
v 2.752255 0.805119 2.685385
v 2.740976 0.777888 2.685385
v 2.817997 0.777888 2.685385
v 2.779486 0.816399 2.685385
v 2.779486 0.739378 2.685385
v 2.798535 0.758840 2.671891
v 2.779486 0.750949 2.671891
v 2.798535 0.796937 2.671891
v 2.779486 0.804827 2.671891
v 2.806425 0.777888 2.671891
v 2.752548 0.777888 2.671891
v 2.760437 0.758840 2.671891
v 2.760437 0.796937 2.671891
v 2.806717 0.750657 2.671891
v 2.779486 0.739378 2.671891
v 2.806717 0.805119 2.671891
v 2.779486 0.816399 2.671891
v 2.817997 0.777888 2.671891
v 2.740976 0.777888 2.671891
v 2.752255 0.750657 2.671891
v 2.752255 0.805119 2.671891
v 2.623166 0.403836 2.489450
v 2.623166 0.474058 2.489450
v 2.635144 0.403836 2.489450
v 2.635144 0.474058 2.489450
v 2.615276 0.419899 2.519609
v 2.615276 0.457996 2.519609
v 2.577178 0.419899 2.519609
v 2.577178 0.457996 2.519609
v 2.569288 0.438947 2.519609
v 2.623166 0.438947 2.519609
v 2.596227 0.465886 2.519609
v 2.596227 0.412008 2.519609
v 2.623458 0.411716 2.519609
v 2.623458 0.466178 2.519609
v 2.568996 0.411716 2.519609
v 2.568996 0.466178 2.519609
v 2.557717 0.438947 2.519609
v 2.634737 0.438947 2.519609
v 2.596227 0.477458 2.519609
v 2.596227 0.400437 2.519609
v 2.615276 0.419899 2.506115
v 2.596227 0.412008 2.506115
v 2.615276 0.457996 2.506115
v 2.596227 0.465886 2.506115
v 2.623166 0.438947 2.506115
v 2.569288 0.438947 2.506115
v 2.577178 0.419899 2.506115
v 2.577178 0.457996 2.506115
v 2.623458 0.411716 2.506115
v 2.596227 0.400437 2.506115
v 2.623458 0.466178 2.506115
v 2.596227 0.477458 2.506115
v 2.634737 0.438947 2.506115
v 2.557717 0.438947 2.506115
v 2.568996 0.411716 2.506115
v 2.568996 0.466178 2.506115
v 2.818403 0.742778 2.738868
v 2.818403 0.812999 2.738868
v 2.806425 0.742778 2.738868
v 2.806425 0.812999 2.738868
v 2.635144 0.403836 2.573092
v 2.635144 0.474058 2.573092
v 2.623166 0.403836 2.573092
v 2.623166 0.474058 2.573092
v 2.655226 0.742778 2.806425
v 2.655226 0.812999 2.806425
v 2.655226 0.742778 2.818403
v 2.655226 0.812999 2.818403
v 2.685385 0.758840 2.798535
v 2.685385 0.796937 2.798535
v 2.685385 0.758840 2.760437
v 2.685385 0.796937 2.760437
v 2.685385 0.777888 2.752548
v 2.685385 0.777888 2.806425
v 2.685385 0.804827 2.779486
v 2.685385 0.750949 2.779486
v 2.685385 0.750657 2.806717
v 2.685385 0.805119 2.806717
v 2.685385 0.750657 2.752255
v 2.685385 0.805119 2.752255
v 2.685385 0.777888 2.740976
v 2.685385 0.777888 2.817997
v 2.685385 0.816399 2.779486
v 2.685385 0.739378 2.779486
v 2.671891 0.758840 2.798535
v 2.671891 0.750949 2.779486
v 2.671891 0.796937 2.798535
v 2.671891 0.804827 2.779486
v 2.671891 0.777888 2.806425
v 2.671891 0.777888 2.752548
v 2.671891 0.758840 2.760437
v 2.671891 0.796937 2.760437
v 2.671891 0.750657 2.806717
v 2.671891 0.739378 2.779486
v 2.671891 0.805119 2.806717
v 2.671891 0.816399 2.779486
v 2.671891 0.777888 2.817997
v 2.671891 0.777888 2.740976
v 2.671891 0.750657 2.752255
v 2.671891 0.805119 2.752255
v 2.489450 0.403836 2.623166
v 2.489450 0.474058 2.623166
v 2.489450 0.403836 2.635144
v 2.489450 0.474058 2.635144
v 2.519609 0.419899 2.615276
v 2.519609 0.457996 2.615276
v 2.519609 0.419899 2.577178
v 2.519609 0.457996 2.577178
v 2.519609 0.438947 2.569288
v 2.519609 0.438947 2.623166
v 2.519609 0.465886 2.596227
v 2.519609 0.412008 2.596227
v 2.519609 0.411716 2.623458
v 2.519609 0.466178 2.623458
v 2.519609 0.411716 2.568996
v 2.519609 0.466178 2.568996
v 2.519609 0.438947 2.557717
v 2.519609 0.438947 2.634737
v 2.519609 0.477458 2.596227
v 2.519609 0.400437 2.596227
v 2.506115 0.419899 2.615276
v 2.506115 0.412008 2.596227
v 2.506115 0.457996 2.615276
v 2.506115 0.465886 2.596227
v 2.506115 0.438947 2.623166
v 2.506115 0.438947 2.569288
v 2.506115 0.419899 2.577178
v 2.506115 0.457996 2.577178
v 2.506115 0.411716 2.623458
v 2.506115 0.400437 2.596227
v 2.506115 0.466178 2.623458
v 2.506115 0.477458 2.596227
v 2.506115 0.438947 2.634737
v 2.506115 0.438947 2.557717
v 2.506115 0.411716 2.568996
v 2.506115 0.466178 2.568996
v 2.738868 0.742778 2.818403
v 2.738868 0.812999 2.818403
v 2.738868 0.742778 2.806425
v 2.738868 0.812999 2.806425
v 2.573092 0.403836 2.635144
v 2.573092 0.474058 2.635144
v 2.573092 0.403836 2.623166
v 2.573092 0.474058 2.623166
v 2.781343 0.412374 2.665902
v 2.666955 0.412374 2.781311
v 2.724149 0.412374 2.781311
v 2.688443 0.466761 2.802800
v 2.802832 0.466761 2.687390
v 2.745638 0.466761 2.802800
v 2.781343 0.412374 2.723606
v 2.802832 0.466761 2.745095
v 2.796004 0.466776 2.680563
v 2.681616 0.466776 2.795972
v 2.773484 0.412394 2.658042
v 2.738892 0.466774 2.796044
v 2.796087 0.466774 2.738340
v 2.659095 0.412394 2.773451
v 2.795992 0.466772 2.795942
v 2.773374 0.412388 2.773319
v 2.716253 0.412390 2.773401
v 2.773447 0.412390 2.715697
v 2.549368 0.467113 2.606478
v 2.577965 0.467113 2.577626
v 2.606562 0.467113 2.548773
v 2.635159 0.467113 2.519921
v 2.606514 0.412726 2.548725
v 2.635111 0.412726 2.519872
v 2.520723 0.412726 2.635282
v 2.520771 0.467113 2.635330
v 2.549320 0.412726 2.606430
v 2.577917 0.412726 2.577577
v 2.941578 0.749336 2.826224
v 2.827190 0.749336 2.941633
v 2.884384 0.749336 2.941633
v 2.848679 0.803723 2.963122
v 2.963067 0.803723 2.847713
v 2.761145 0.804035 2.760689
v 2.703950 0.804035 2.818394
v 2.703902 0.749647 2.818345
v 2.818290 0.749647 2.702936
v 2.818339 0.804035 2.702984
v 2.761096 0.749647 2.760641
v 2.905873 0.803723 2.963122
v 2.732548 0.804035 2.789541
v 2.732499 0.749647 2.789493
v 2.941578 0.749336 2.883929
v 2.963067 0.803723 2.905417
v 2.789742 0.804035 2.731837
v 2.789693 0.749647 2.731788
v 2.956239 0.803738 2.840885
v 2.841851 0.803738 2.956295
v 2.933719 0.749356 2.818365
v 2.899127 0.803736 2.956367
v 2.956322 0.803736 2.898662
v 2.819330 0.749356 2.933774
v 2.956227 0.803734 2.956265
v 2.933609 0.749350 2.933642
v 2.876488 0.749352 2.933724
v 2.933682 0.749352 2.876019
v 2.262799 0.100005 2.500000
v 2.262799 0.051380 2.500000
v 2.262799 0.100005 2.602958
v 2.262799 0.051380 2.602958
v 2.602958 0.051380 2.264621
v 2.602958 0.100005 2.264621
v 2.500911 0.051380 2.264621
v 2.500911 0.100005 2.264621
v 2.623166 0.438947 2.208907
v 2.615276 0.419898 2.208907
v 2.596227 0.412008 2.208907
v 2.596227 0.465885 2.208907
v 2.577178 0.457995 2.208907
v 2.569288 0.438947 2.208907
v 2.577178 0.419898 2.208907
v 2.615276 0.457995 2.208907
v 2.182003 0.750950 2.779486
v 2.798535 0.758840 2.195396
v 2.779486 0.750950 2.195396
v 2.779486 0.804827 2.195396
v 2.760438 0.796937 2.195396
v 2.752548 0.777888 2.195396
v 2.760438 0.758840 2.195396
v 2.798535 0.796937 2.195396
v 2.182003 0.758840 2.760437
v 2.182003 0.796937 2.760437
v 2.182003 0.804827 2.779486
v 2.182003 0.796937 2.798535
v 2.182003 0.777888 2.806425
v 2.182003 0.758840 2.798535
vn -0.0000 1.0000 -0.0000
vn -0.0000 -0.0000 -1.0000
vn -0.0000 -0.1220 0.9925
vn -0.0000 -0.0000 1.0000
vn -0.0000 -0.2555 0.9668
vn 0.9668 -0.2555 -0.0000
vn 1.0000 -0.0000 -0.0000
vn 0.9925 -0.1220 -0.0000
vn 0.9811 -0.1934 -0.0000
vn -1.0000 -0.0000 -0.0000
vn -0.0000 -0.1934 0.9811
vn -0.0000 -0.4452 0.8954
vn -0.8954 0.4452 -0.0000
vn 0.8954 -0.4452 -0.0000
vn -0.0000 0.4452 -0.8954
vn -0.7071 -0.0000 0.7071
vn -0.9239 -0.0000 0.3825
vn -0.9238 -0.0000 0.3829
vn -0.0010 -1.0000 -0.0010
vn -0.0020 -1.0000 -0.0000
vn -0.0000 -1.0000 -0.0018
vn -0.0009 -1.0000 -0.0009
vn 0.0009 1.0000 0.0009
vn -0.0000 1.0000 0.0017
vn -0.0018 -1.0000 -0.0000
vn 0.0008 1.0000 0.0008
vn -0.0000 1.0000 0.0016
vn 0.7071 -0.0000 -0.7071
vn 0.3828 -0.0000 -0.9238
vn 0.3825 -0.0000 -0.9239
vn -0.9238 -0.0000 0.3828
vn 0.3829 -0.0000 -0.9238
vn 0.0017 1.0000 -0.0000
vn 0.0016 1.0000 -0.0000
vn -0.0000 -1.0000 -0.0020
vn -0.7071 -0.7071 -0.0000
vn -0.7071 0.7071 -0.0000
vn -0.0000 -1.0000 -0.0000
vn 0.7071 -0.7071 -0.0000
vn 0.7071 0.7071 -0.0000
vn -0.0000 -0.7071 -0.7071
vn -0.0000 0.7071 0.7071
vn -0.0000 -0.7071 0.7071
vn -0.0000 0.7071 -0.7071
vn 0.9300 -0.3675 -0.0000
vn 0.7068 0.0001 -0.7074
vn 0.7066 0.0002 -0.7076
vn 0.7069 0.0001 -0.7073
vn -0.0003 -1.0000 -0.0018
vn -0.0005 -1.0000 -0.0015
vn -0.0015 -1.0000 -0.0005
vn -0.0018 -1.0000 -0.0003
vn -0.0004 -1.0000 -0.0018
vn -0.0006 -1.0000 -0.0016
vn 0.0016 1.0000 0.0003
vn 0.0013 1.0000 0.0005
vn 0.0003 1.0000 0.0016
vn 0.0005 1.0000 0.0013
vn 0.0005 1.0000 0.0014
vn 0.0004 1.0000 0.0016
vn -0.0000 -0.3675 0.9300
vn 0.0016 1.0000 0.0004
vn 0.0014 1.0000 0.0005
vn -0.0016 -1.0000 -0.0006
vn -0.0018 -1.0000 -0.0004
vn -0.7069 -0.0001 0.7073
vn -0.7068 -0.0001 0.7074
vn -0.7077 0.0004 0.7065
vn 0.9231 -0.3846 0.0013
vn -0.0000 1.0000 0.0020
vn -0.0000 -1.0000 -0.0023
vn 0.0015 -0.3847 0.9230
vn 0.7077 -0.0004 -0.7065
vn 0.0020 1.0000 -0.0000
vn -0.0023 -1.0000 -0.0000
vn -0.7066 -0.0002 0.7076
vn -0.7102 0.0013 -0.7040
vn -0.0005 -1.0000 -0.0018
vn -0.0006 -1.0000 -0.0017
vn -0.0018 -1.0000 -0.0005
vn -0.0017 -1.0000 -0.0006
vt 0.887188 0.345050
vt 0.818210 0.345050
vt 0.818210 0.185525
vt 0.887188 0.185525
vt 0.068978 0.829758
vt 0.137345 0.829758
vt 0.137345 0.967358
vt 0.068978 0.967358
vt 0.137137 0.109500
vt 0.153779 0.081495
vt 0.212553 0.116422
vt 0.195910 0.144427
vt 0.229137 0.143437
vt 0.212553 0.115397
vt 0.271923 0.080281
vt 0.288507 0.108321
vt 0.771277 0.603238
vt 0.771277 0.534261
vt 0.839645 0.534261
vt 0.839645 0.603238
vt 0.294814 0.710614
vt 0.354184 0.675498
vt 0.424236 0.793932
vt 0.364866 0.829048
vt 0.000000 0.829758
vt 0.000000 0.967358
vt 0.070295 0.676542
vt 0.129068 0.711468
vt 0.058773 0.829758
vt 0.000000 0.794832
vt 0.165262 0.404427
vt 0.106488 0.369501
vt 0.102792 0.400862
vt 0.161565 0.435788
vt 0.132765 0.680107
vt 0.073992 0.645180
vt 0.534741 0.346662
vt 0.597756 0.374716
vt 0.597756 0.636517
vt 0.534741 0.608463
vt 0.597756 0.346662
vt 0.660772 0.374716
vt 0.660771 0.620725
vt 0.597756 0.592671
vt 0.318622 0.368384
vt 0.259252 0.403500
vt 0.262884 0.434868
vt 0.322254 0.399752
vt 0.350552 0.644129
vt 0.291182 0.679245
vt 0.424236 0.384050
vt 0.486694 0.356245
vt 0.486693 0.618045
vt 0.424236 0.645851
vt 0.645247 0.027806
vt 0.707704 0.000000
vt 0.707705 0.246010
vt 0.645247 0.273816
vt 0.707705 0.231984
vt 0.733559 0.213852
vt 0.733559 0.340606
vt 0.707727 0.340575
vt 0.935531 0.234299
vt 0.984306 0.185525
vt 0.984306 0.294115
vt 0.935531 0.342890
vt 0.824428 0.806465
vt 0.872771 0.854809
vt 0.872771 0.975470
vt 0.824428 0.927127
vt 0.917170 0.395436
vt 0.965513 0.347093
vt 0.965513 0.473847
vt 0.917170 0.522190
vt 0.921546 0.806034
vt 0.921546 0.926695
vt 0.819620 0.485486
vt 0.771277 0.533829
vt 0.771277 0.395004
vt 0.819620 0.346662
vt 0.460704 0.645851
vt 0.486556 0.663986
vt 0.486536 0.784647
vt 0.460704 0.784676
vt 0.486555 0.905366
vt 0.460704 0.923500
vt 0.460704 0.784676
vt 0.486535 0.784704
vt 0.865477 0.602628
vt 0.839645 0.602628
vt 0.839645 0.534261
vt 0.865477 0.534261
vt 0.645247 0.342793
vt 0.645247 0.273816
vt 0.671079 0.273816
vt 0.671079 0.342793
vt 0.671079 0.342793
vt 0.671079 0.273816
vt 0.696911 0.273816
vt 0.696911 0.342793
vt 0.891309 0.602628
vt 0.865477 0.602628
vt 0.865477 0.534261
vt 0.891309 0.534261
vt 0.733559 0.213851
vt 0.759413 0.231983
vt 0.759391 0.340574
vt 0.733559 0.340605
vt 0.868395 0.346661
vt 0.868395 0.473415
vt 0.868395 0.534260
vt 0.868395 0.395436
vt 0.887188 0.185956
vt 0.887188 0.294547
vt 0.406457 0.892767
vt 0.423131 0.899674
vt 0.413363 0.909442
vt 0.399550 0.909442
vt 0.389783 0.885861
vt 0.389783 0.899674
vt 0.399550 0.876094
vt 0.413363 0.876094
vt 0.423131 0.885861
vt 0.702211 0.367209
vt 0.716024 0.367209
vt 0.716024 0.562838
vt 0.702211 0.562838
vt 0.729838 0.367209
vt 0.729838 0.562838
vt 0.688398 0.367209
vt 0.688398 0.562838
vt 0.660772 0.367209
vt 0.674585 0.367209
vt 0.674585 0.562838
vt 0.660772 0.562838
vt 0.757464 0.346662
vt 0.757464 0.367209
vt 0.743651 0.367209
vt 0.743651 0.346662
vt 0.771277 0.346662
vt 0.771277 0.367209
vt 0.729838 0.346662
vt 0.674585 0.346662
vt 0.660772 0.346662
vt 0.702211 0.346662
vt 0.688398 0.346662
vt 0.716024 0.346662
vt 0.628128 0.921328
vt 0.635034 0.938002
vt 0.621221 0.938002
vt 0.611454 0.928235
vt 0.621221 0.904654
vt 0.611454 0.914422
vt 0.635034 0.904654
vt 0.644802 0.914422
vt 0.644802 0.928235
vt 0.507115 0.356244
vt 0.507115 -0.000000
vt 0.520928 -0.000000
vt 0.520928 0.356244
vt 0.548555 -0.000000
vt 0.548555 0.346662
vt 0.534741 0.346662
vt 0.534741 -0.000000
vt 0.645247 -0.000000
vt 0.645247 0.346662
vt 0.631434 0.346662
vt 0.631434 -0.000000
vt 0.617621 -0.000000
vt 0.617621 0.346662
vt 0.603807 0.346662
vt 0.603807 -0.000000
vt 0.576181 -0.000000
vt 0.576181 0.346662
vt 0.562368 0.346662
vt 0.562368 -0.000000
vt 0.589994 -0.000000
vt 0.589994 0.346662
vt 0.802611 0.921386
vt 0.819286 0.928292
vt 0.809518 0.938059
vt 0.795705 0.938059
vt 0.785938 0.914479
vt 0.785938 0.928292
vt 0.795705 0.904711
vt 0.809518 0.904712
vt 0.819286 0.914479
vt 0.465676 0.356244
vt 0.465675 -0.000000
vt 0.479488 -0.000000
vt 0.479489 0.356244
vt 0.493302 -0.000000
vt 0.493302 0.356244
vt 0.424236 0.356244
vt 0.424236 -0.000000
vt 0.438049 -0.000000
vt 0.438049 0.356244
vt 0.451862 -0.000000
vt 0.451862 0.356244
vt 0.534741 -0.000000
vt 0.534742 0.356244
vt 0.406457 0.926116
vt 0.423131 0.933023
vt 0.413363 0.942790
vt 0.399550 0.942790
vt 0.389783 0.919209
vt 0.389783 0.933022
vt 0.413363 0.909442
vt 0.423131 0.919209
vt 0.735331 -0.000000
vt 0.749144 -0.000000
vt 0.749144 0.213851
vt 0.735331 0.213851
vt 0.707705 -0.000000
vt 0.721518 -0.000000
vt 0.721518 0.213851
vt 0.707705 0.213851
vt 0.762957 -0.000000
vt 0.762957 0.213851
vt 0.804397 -0.000000
vt 0.818210 -0.000000
vt 0.818210 0.213851
vt 0.804397 0.213851
vt 0.790584 -0.000000
vt 0.790584 0.213851
vt 0.776771 -0.000000
vt 0.776771 0.213851
vt 0.707817 0.564689
vt 0.707817 0.620725
vt 0.660772 0.620725
vt 0.660771 0.564689
vt 0.416211 0.829048
vt 0.424236 0.829048
vt 0.424236 0.876094
vt 0.416211 0.876094
vt 0.523131 0.515769
vt 0.531156 0.515769
vt 0.531156 0.571806
vt 0.523131 0.571806
vt 0.973801 0.746814
vt 0.980963 0.749780
vt 0.967000 0.763744
vt 0.964033 0.756581
vt 0.950220 0.723233
vt 0.947253 0.716071
vt 0.967000 0.716071
vt 0.964033 0.723233
vt 0.940453 0.733001
vt 0.933291 0.730034
vt 0.950221 0.756581
vt 0.947254 0.763744
vt 0.940453 0.746814
vt 0.933291 0.749781
vt 0.973801 0.733001
vt 0.980963 0.730034
vt 0.928708 0.960089
vt 0.928708 0.973902
vt 0.921546 0.976869
vt 0.921546 0.957122
vt 0.962056 0.960089
vt 0.952289 0.950321
vt 0.955255 0.943159
vt 0.969219 0.957122
vt 0.969218 0.976869
vt 0.962056 0.973902
vt 0.938475 0.983669
vt 0.935509 0.990832
vt 0.955256 0.990832
vt 0.952289 0.983669
vt 0.938475 0.950321
vt 0.935509 0.943159
vt 0.414090 0.942790
vt 0.414090 0.956603
vt 0.405049 0.956603
vt 0.405049 0.942790
vt 0.870359 0.606911
vt 0.870359 0.620725
vt 0.861318 0.620725
vt 0.861318 0.606912
vt 0.776114 0.924401
vt 0.776114 0.904654
vt 0.785155 0.904655
vt 0.785155 0.924401
vt 0.777495 0.342462
vt 0.777495 0.322715
vt 0.786536 0.322715
vt 0.786536 0.342462
vt 0.879400 0.606911
vt 0.888441 0.606911
vt 0.888441 0.620725
vt 0.879400 0.620725
vt 0.945553 0.609985
vt 0.936512 0.609985
vt 0.936512 0.590239
vt 0.945553 0.590239
vt 0.960413 0.786287
vt 0.960413 0.800100
vt 0.951372 0.800100
vt 0.951372 0.786287
vt 0.936119 0.185525
vt 0.936119 0.165778
vt 0.945160 0.165778
vt 0.945160 0.185525
vt 0.389783 0.942790
vt 0.398824 0.942790
vt 0.398824 0.956603
vt 0.389783 0.956603
vt 0.785155 0.944148
vt 0.776114 0.944148
vt 0.785155 0.924401
vt 0.788993 0.620725
vt 0.779953 0.620725
vt 0.779953 0.606911
vt 0.788993 0.606911
vt 0.927471 0.609986
vt 0.918431 0.609986
vt 0.918431 0.590239
vt 0.927472 0.590239
vt 0.879400 0.606911
vt 0.879400 0.620725
vt 0.870359 0.606912
vt 0.786536 0.342462
vt 0.786536 0.322715
vt 0.795576 0.322715
vt 0.795576 0.342462
vt 0.954200 0.165778
vt 0.963241 0.165778
vt 0.963241 0.179592
vt 0.954200 0.179591
vt 0.936119 0.185525
vt 0.927078 0.185525
vt 0.927078 0.165778
vt 0.936119 0.165778
vt 0.754862 0.564689
vt 0.754862 0.620725
vt 0.707817 0.620725
vt 0.707817 0.564689
vt 0.803876 0.269888
vt 0.811901 0.269888
vt 0.811901 0.316933
vt 0.803876 0.316933
vt 0.523131 0.571806
vt 0.531156 0.571806
vt 0.531156 0.627842
vt 0.523131 0.627842
vt 0.711511 0.959490
vt 0.714478 0.952327
vt 0.728441 0.966290
vt 0.721279 0.969257
vt 0.687931 0.983070
vt 0.680768 0.986037
vt 0.680768 0.966290
vt 0.687931 0.969257
vt 0.697698 0.992837
vt 0.694731 1.000000
vt 0.721279 0.983070
vt 0.728441 0.986037
vt 0.711511 0.992838
vt 0.714478 1.000000
vt 0.697698 0.959490
vt 0.694731 0.952327
vt 0.745371 0.911817
vt 0.735603 0.921584
vt 0.728441 0.918618
vt 0.742404 0.904655
vt 0.768952 0.935398
vt 0.768952 0.921585
vt 0.776114 0.918618
vt 0.776114 0.938365
vt 0.762151 0.952327
vt 0.759184 0.945165
vt 0.735604 0.935398
vt 0.728441 0.938364
vt 0.742404 0.952327
vt 0.745371 0.945165
vt 0.759184 0.911817
vt 0.762151 0.904655
vt 0.469744 0.943247
vt 0.469744 0.957060
vt 0.460704 0.957060
vt 0.460704 0.943247
vt 0.705951 0.329853
vt 0.705951 0.343666
vt 0.696911 0.343666
vt 0.696911 0.329852
vt 0.936512 0.590239
vt 0.936512 0.609986
vt 0.927472 0.609985
vt 0.927472 0.590239
vt 0.804617 0.342462
vt 0.804617 0.322715
vt 0.813657 0.322715
vt 0.813658 0.342462
vt 0.825156 0.606912
vt 0.834196 0.606912
vt 0.834197 0.620725
vt 0.825156 0.620725
vt 0.638575 0.957749
vt 0.629535 0.957749
vt 0.629535 0.938002
vt 0.638575 0.938002
vt 0.785154 0.944148
vt 0.785155 0.957961
vt 0.776114 0.957961
vt 0.945160 0.185525
vt 0.945160 0.165779
vt 0.954200 0.165779
vt 0.954200 0.185525
vt 0.414090 0.942790
vt 0.423131 0.942790
vt 0.423131 0.956603
vt 0.414090 0.956603
vt 0.804019 0.957806
vt 0.794978 0.957806
vt 0.794978 0.938059
vt 0.804019 0.938059
vt 0.201250 0.955643
vt 0.192210 0.955643
vt 0.192210 0.941830
vt 0.201251 0.941830
vt 0.933291 0.763744
vt 0.942331 0.763744
vt 0.942331 0.783491
vt 0.933291 0.783490
vt 0.825156 0.606911
vt 0.825156 0.620725
vt 0.816116 0.620725
vt 0.816116 0.606911
vt 0.945553 0.609985
vt 0.945553 0.590239
vt 0.954593 0.590239
vt 0.954593 0.609985
vt 0.469744 0.943247
vt 0.478785 0.943247
vt 0.478785 0.957060
vt 0.951372 0.806034
vt 0.942331 0.806034
vt 0.942331 0.786287
vt 0.951372 0.786287
vt 0.527296 0.468318
vt 0.519271 0.468318
vt 0.519271 0.412281
vt 0.527296 0.412281
vt 0.644802 0.904654
vt 0.644802 0.848617
vt 0.691847 0.848617
vt 0.691847 0.904654
vt 0.704936 0.329852
vt 0.696911 0.329852
vt 0.696911 0.273816
vt 0.704936 0.273816
vt 0.535935 0.899471
vt 0.535935 0.843435
vt 0.582980 0.843435
vt 0.582980 0.899471
vt 0.519271 0.515363
vt 0.527296 0.468318
vt 0.527296 0.515363
vt 0.408185 0.876093
vt 0.408185 0.829048
vt 0.416210 0.876093
vt 0.738892 0.904654
vt 0.691847 0.904654
vt 0.691847 0.848618
vt 0.738892 0.848618
vt 0.397808 0.829048
vt 0.397808 0.876094
vt 0.389783 0.876094
vt 0.389783 0.829048
vt 0.795851 0.269888
vt 0.795851 0.213851
vt 0.803876 0.213852
vt 0.803876 0.269888
vt 0.957782 0.541423
vt 0.943969 0.541423
vt 0.941002 0.534261
vt 0.960748 0.534260
vt 0.957782 0.574771
vt 0.967549 0.565003
vt 0.974712 0.567970
vt 0.960748 0.581933
vt 0.941002 0.581933
vt 0.943969 0.574771
vt 0.934201 0.551190
vt 0.927039 0.548224
vt 0.927039 0.567970
vt 0.934201 0.565003
vt 0.967549 0.551190
vt 0.974712 0.548223
vt 0.711511 0.911817
vt 0.714478 0.904654
vt 0.728441 0.918617
vt 0.721279 0.921584
vt 0.687931 0.935398
vt 0.680768 0.938364
vt 0.680768 0.918618
vt 0.687931 0.921584
vt 0.697698 0.945165
vt 0.694732 0.952327
vt 0.721279 0.935397
vt 0.728441 0.938364
vt 0.711512 0.945165
vt 0.714478 0.952327
vt 0.697698 0.911817
vt 0.694731 0.904654
vt 0.852278 0.606912
vt 0.861318 0.606912
vt 0.861318 0.620725
vt 0.852278 0.620725
vt 0.813060 0.938060
vt 0.822100 0.938059
vt 0.822100 0.951873
vt 0.813060 0.951873
vt 0.918431 0.609986
vt 0.909390 0.609986
vt 0.909390 0.590239
vt 0.918431 0.590239
vt 0.768454 0.342462
vt 0.759413 0.342462
vt 0.759413 0.322715
vt 0.768454 0.322715
vt 0.951372 0.780353
vt 0.951372 0.766540
vt 0.960413 0.766540
vt 0.960413 0.780353
vt 0.777495 0.322715
vt 0.777495 0.342462
vt 0.768454 0.342462
vt 0.768454 0.322715
vt 0.954593 0.604052
vt 0.963634 0.604052
vt 0.963634 0.617865
vt 0.954593 0.617865
vt 0.813059 0.957806
vt 0.804019 0.957806
vt 0.804019 0.938059
vt 0.813059 0.938059
vt 0.788993 0.620725
vt 0.788993 0.606911
vt 0.798034 0.606911
vt 0.798034 0.620725
vt 0.785938 0.957806
vt 0.785938 0.938059
vt 0.174129 0.955643
vt 0.174129 0.941830
vt 0.183169 0.941830
vt 0.183169 0.955643
vt 0.804617 0.342462
vt 0.795576 0.342462
vt 0.795576 0.322715
vt 0.807075 0.620725
vt 0.798034 0.620725
vt 0.798034 0.606911
vt 0.807075 0.606911
vt 0.606797 0.924401
vt 0.597757 0.924401
vt 0.597756 0.904654
vt 0.606797 0.904654
vt 0.807075 0.620724
vt 0.816116 0.606911
vt 0.816116 0.620725
vt 0.597756 0.944148
vt 0.597756 0.924401
vt 0.606797 0.924401
vt 0.606797 0.944148
vt 0.488890 0.899471
vt 0.488890 0.843435
vt 0.811901 0.213852
vt 0.811901 0.260897
vt 0.803876 0.260897
vt 0.803876 0.213852
vt 0.762887 0.620725
vt 0.762887 0.564689
vt 0.770912 0.564689
vt 0.770912 0.620725
vt 0.940453 0.651468
vt 0.950220 0.661236
vt 0.947254 0.668398
vt 0.933291 0.654435
vt 0.964034 0.627888
vt 0.950221 0.627888
vt 0.947254 0.620725
vt 0.967001 0.620725
vt 0.980963 0.634688
vt 0.973801 0.637655
vt 0.964034 0.661236
vt 0.967000 0.668398
vt 0.980963 0.654435
vt 0.973801 0.651468
vt 0.940453 0.637655
vt 0.933291 0.634688
vt 0.973801 0.699141
vt 0.980964 0.702108
vt 0.967000 0.716071
vt 0.964034 0.708908
vt 0.950220 0.675560
vt 0.947254 0.668398
vt 0.964034 0.675560
vt 0.940453 0.685328
vt 0.933291 0.682361
vt 0.950220 0.708908
vt 0.947254 0.716071
vt 0.940453 0.699141
vt 0.933291 0.702108
vt 0.973801 0.685328
vt 0.980964 0.682361
vt 0.478785 0.943247
vt 0.487825 0.943247
vt 0.487825 0.957060
vt 0.478785 0.957060
vt 0.843237 0.606911
vt 0.852277 0.606912
vt 0.852277 0.620725
vt 0.843237 0.620725
vt 0.909390 0.609986
vt 0.900349 0.609986
vt 0.900349 0.590239
vt 0.909390 0.590239
vt 0.900349 0.609986
vt 0.891309 0.609986
vt 0.891309 0.590239
vt 0.779952 0.606912
vt 0.779953 0.620725
vt 0.770912 0.620725
vt 0.770912 0.606912
vt 0.620494 0.938002
vt 0.620494 0.957749
vt 0.611454 0.957749
vt 0.611454 0.938002
vt 0.597757 0.944148
vt 0.606797 0.944148
vt 0.606797 0.957961
vt 0.597757 0.957961
vt 0.951372 0.786287
vt 0.942331 0.786287
vt 0.942331 0.766541
vt 0.951372 0.766541
vt 0.954593 0.604052
vt 0.954593 0.590239
vt 0.963634 0.590239
vt 0.963634 0.604052
vt 0.477515 0.943247
vt 0.477515 0.923500
vt 0.486555 0.923500
vt 0.486556 0.943247
vt 0.192210 0.941831
vt 0.192210 0.955644
vt 0.183170 0.955644
vt 0.183170 0.941830
vt 0.629535 0.938003
vt 0.629535 0.957749
vt 0.620494 0.957749
vt 0.620494 0.938003
vt 0.843237 0.620725
vt 0.834197 0.620725
vt 0.834197 0.606911
vt 0.843237 0.606911
vt 0.933291 0.786287
vt 0.942331 0.786287
vt 0.942331 0.806034
vt 0.933291 0.806034
vt 0.201251 0.955643
vt 0.201251 0.941830
vt 0.210291 0.941830
vt 0.210291 0.955643
vt 0.460704 0.943247
vt 0.460704 0.923500
vt 0.469744 0.923500
vt 0.527296 0.356245
vt 0.527296 0.412281
vt 0.519271 0.412281
vt 0.519271 0.356245
vt 0.738892 0.848618
vt 0.785938 0.848618
vt 0.785938 0.904654
vt 0.738892 0.904654
vt 0.762887 0.564688
vt 0.762887 0.620725
vt 0.754862 0.620725
vt 0.754862 0.564688
vt 0.597756 0.848618
vt 0.644802 0.848618
vt 0.644802 0.904654
vt 0.597756 0.904654
vt 0.405833 0.876094
vt 0.405833 0.829048
vt 0.803876 0.316933
vt 0.795851 0.316933
vt 0.795851 0.269888
vt 0.803876 0.269888
vt 0.561464 0.941211
vt 0.525177 0.954545
vt 0.525177 0.912805
vt 0.561464 0.899471
vt 0.460701 0.673604
vt 0.460673 0.804610
vt 0.424236 0.804619
vt 0.424236 0.652320
vt 0.899992 0.027041
vt 0.899857 0.185222
vt 0.872642 0.185323
vt 0.872912 0.000000
vt 0.845426 0.185424
vt 0.845560 0.027243
vt 0.927073 0.054115
vt 0.927073 0.185121
vt 0.516238 0.816208
vt 0.516109 0.636621
vt 0.543325 0.636726
vt 0.543588 0.843435
vt 0.570669 0.816417
vt 0.570540 0.636830
vt 0.597756 0.636934
vt 0.597752 0.789233
vt 0.680768 0.959610
vt 0.644802 0.946394
vt 0.644802 0.904654
vt 0.680768 0.917870
vt 0.488890 0.788815
vt 0.488894 0.636517
vt 0.818210 0.185525
vt 0.818210 0.054519
vt 0.460704 0.943080
vt 0.424236 0.963386
vt 0.424236 0.956917
vt 0.460701 0.935633
vt 0.424236 0.645851
vt 0.460704 0.666157
vt 0.527296 0.465080
vt 0.527296 0.422800
vt 0.533753 0.426589
vt 0.532811 0.468318
vt 0.173824 0.843571
vt 0.209859 0.829758
vt 0.209859 0.872029
vt 0.173814 0.885852
vt 0.570678 0.822813
vt 0.597756 0.795702
vt 0.900003 0.019554
vt 0.927078 0.046668
vt 0.891309 0.576532
vt 0.891321 0.534261
vt 0.927039 0.547958
vt 0.927039 0.590239
vt 0.597756 0.885715
vt 0.592241 0.888953
vt 0.591299 0.847224
vt 0.597756 0.843435
vt 0.488893 0.795284
vt 0.516246 0.822604
vt 0.818216 0.047072
vt 0.845572 0.019755
vt 0.424236 0.804619
vt 0.460673 0.804627
vt 0.523131 0.597417
vt 0.486694 0.597417
vt 0.486694 0.570201
vt 0.523131 0.570201
vt 0.523131 0.542985
vt 0.486694 0.542985
vt 0.486694 0.515769
vt 0.523131 0.515769
vt 0.523131 0.624633
vt 0.486694 0.624633
vt 0.488890 0.912806
vt 0.525177 0.899471
vt 0.525177 0.941211
vt 0.488890 0.954545
vt 0.795851 0.295499
vt 0.759413 0.295499
vt 0.759414 0.268283
vt 0.795851 0.268283
vt 0.921548 0.833785
vt 0.958014 0.812503
vt 0.958014 0.943159
vt 0.921577 0.943149
vt 0.795851 0.241067
vt 0.759413 0.241068
vt 0.759413 0.213852
vt 0.795851 0.213852
vt 0.137345 0.836227
vt 0.173812 0.857509
vt 0.173783 0.966873
vt 0.137346 0.966883
vt 0.294085 0.965709
vt 0.266753 0.992972
vt 0.266984 0.829290
vt 0.294200 0.829169
vt 0.905959 0.647968
vt 0.906075 0.805913
vt 0.878859 0.805792
vt 0.878626 0.620725
vt 0.851528 0.647727
vt 0.851644 0.805671
vt 0.824428 0.805550
vt 0.824428 0.674894
vt 0.239654 0.965950
vt 0.212553 0.938896
vt 0.212553 0.829532
vt 0.239768 0.829411
vt 0.597431 0.954428
vt 0.561464 0.941211
vt 0.561465 0.899472
vt 0.597431 0.912688
vt 0.933291 0.675378
vt 0.933291 0.806034
vt 0.795851 0.322715
vt 0.759414 0.322715
vt 0.921546 0.826338
vt 0.958014 0.806034
vt 0.137345 0.829758
vt 0.173814 0.850062
vt 0.527296 0.398525
vt 0.527296 0.356245
vt 0.533753 0.360034
vt 0.532811 0.401763
vt 0.821972 0.890898
vt 0.785938 0.904711
vt 0.785938 0.862440
vt 0.821982 0.848618
vt 0.851523 0.641331
vt 0.824428 0.668425
vt 0.239647 0.973438
vt 0.212553 0.946343
vt 0.174129 0.928124
vt 0.174141 0.885852
vt 0.209859 0.899550
vt 0.209859 0.941831
vt 0.533753 0.510598
vt 0.528238 0.513836
vt 0.527296 0.472107
vt 0.533753 0.468318
vt 0.933291 0.668909
vt 0.905954 0.641573
vt 0.321415 0.945859
vt 0.294078 0.973196
vt 0.321415 0.938413
vt 0.321415 0.829048
vt 0.666734 0.780250
vt 0.666734 0.848618
vt 0.597756 0.848617
vt 0.597756 0.780250
vt 0.519271 0.515769
vt 0.486694 0.515769
vt 0.486694 0.356245
vt 0.519271 0.356245
vt 0.000000 0.028005
vt 0.016642 0.000000
vt 0.597756 0.620725
vt 0.666734 0.620725
vt 0.824428 0.780250
vt 0.824428 0.848617
vt 0.407651 -0.000000
vt 0.424236 0.028039
vt 0.927078 -0.000000
vt 0.959655 -0.000000
vt 0.959655 0.157694
vt 0.927078 0.157694
vt 0.321415 0.829048
vt 0.389783 0.829048
vt 0.389783 0.986742
vt 0.321415 0.986742
vt 0.757464 0.562838
vt 0.743651 0.562838
vt 0.771277 0.562838
s 1
usemtl Checker
f 2/1/1 4/2/1 311/3/1 313/4/1
f 27/5/2 25/6/2 9/7/2 11/8/2
f 2/9/3 1/10/4 5/11/4 6/12/5
f 6/13/6 5/14/7 7/15/7 8/16/8
f 9/17/1 10/18/1 12/19/1 11/20/1
f 28/21/9 27/22/6 11/23/7 12/24/7
f 25/25/10 26/5/10 10/8/10 9/26/10
f 26/27/5 28/28/11 12/29/4 10/30/4
f 2/9/3 6/12/5 18/31/12 19/32/12
f 24/33/12 23/34/12 17/35/12 20/36/12
f 4/37/13 2/38/13 19/39/13 13/40/13
f 21/41/13 24/42/13 20/43/13 14/44/13
f 6/13/6 8/16/8 16/45/14 18/46/14
f 23/47/14 22/48/14 15/49/14 17/50/14
f 8/51/15 4/52/15 13/53/15 16/54/15
f 22/55/15 21/56/15 14/57/15 15/58/15
f 20/59/16 26/60/16 30/61/17 34/62/18
f 18/46/14 16/45/14 22/48/14 23/47/14
f 14/63/19 20/64/20 34/65/20 33/66/19
f 19/32/12 18/31/12 23/34/12 24/33/12
f 20/36/12 17/35/12 28/28/11 26/27/5
f 16/67/21 13/68/22 35/69/22 37/70/21
f 17/50/14 15/49/14 27/22/6 28/21/9
f 25/71/23 27/72/24 40/73/24 29/74/23
f 13/68/22 19/75/25 36/76/25 35/69/22
f 21/77/26 22/78/27 38/79/27 31/80/26
f 22/81/28 16/82/28 37/83/29 38/84/30
f 19/85/16 24/86/16 32/87/17 36/88/31
f 40/89/30 39/90/32 33/91/2 29/92/2
f 33/93/10 34/94/18 30/95/17 29/96/10
f 35/97/10 36/98/31 32/99/17 31/100/10
f 38/101/30 37/102/29 35/103/2 31/104/2
f 27/105/28 15/106/28 39/107/32 40/108/30
f 26/109/33 25/71/23 29/74/23 30/110/33
f 24/111/34 21/77/26 31/80/26 32/112/34
f 15/113/35 14/63/19 33/66/19 39/114/35
f 49/115/4 48/116/4 42/117/4 46/118/4
f 47/119/4 49/115/4 46/118/4 41/120/4
f 43/121/4 45/122/4 49/115/4 47/119/4
f 45/122/4 44/123/4 48/116/4 49/115/4
f 56/124/36 55/125/10 324/126/10 325/127/36
f 55/125/10 54/128/37 323/129/37 324/126/10
f 52/130/38 56/124/36 325/127/36 321/131/38
f 50/132/7 51/133/39 320/134/39 319/135/7
f 44/136/40 57/137/40 53/138/1 48/139/1
f 45/140/7 50/141/7 57/137/40 44/136/40
f 48/139/1 53/138/1 54/128/37 42/142/37
f 43/143/39 51/133/39 50/132/7 45/144/7
f 41/145/36 56/124/36 52/130/38 47/146/38
f 42/142/37 54/128/37 55/125/10 46/147/10
f 46/147/10 55/125/10 56/124/36 41/145/36
f 47/146/38 52/130/38 51/133/39 43/143/39
f 67/148/4 66/149/4 60/150/4 64/151/4
f 65/152/4 67/148/4 64/151/4 59/153/4
f 61/154/4 63/155/4 67/148/4 65/152/4
f 63/155/4 62/156/4 66/149/4 67/148/4
f 69/157/38 327/158/38 335/159/41 70/160/41
f 60/161/37 331/162/37 332/163/10 64/164/10
f 64/165/10 332/166/10 333/167/36 59/168/36
f 65/169/38 329/170/38 328/171/39 61/172/39
f 62/173/40 334/174/40 330/175/1 66/176/1
f 59/168/36 333/167/36 329/170/38 65/169/38
f 63/177/7 58/178/7 334/174/40 62/173/40
f 66/176/1 330/175/1 331/162/37 60/161/37
f 77/179/7 73/180/7 74/181/7 75/182/7
f 69/183/7 77/179/7 75/182/7 76/184/7
f 70/185/7 71/186/7 77/179/7 69/183/7
f 71/186/7 72/187/7 73/180/7 77/179/7
f 74/188/42 338/189/42 339/190/4 75/191/4
f 75/191/4 339/190/4 340/192/43 76/193/43
f 71/194/2 68/195/2 336/196/44 72/197/44
f 72/197/44 336/196/44 337/198/1 73/199/1
f 76/193/43 340/192/43 327/158/38 69/157/38
f 70/160/41 335/159/41 68/200/2 71/201/2
f 73/199/1 337/198/1 338/189/42 74/188/42
f 61/172/39 328/171/39 58/178/7 63/177/7
f 94/202/7 90/203/7 91/204/7 92/205/7
f 86/206/7 94/202/7 92/205/7 93/207/7
f 87/118/7 88/208/7 94/202/7 86/206/7
f 88/208/7 89/209/7 90/203/7 94/202/7
f 79/210/44 85/211/1 90/212/1 89/213/44
f 78/214/41 82/215/2 88/216/2 87/217/41
f 85/211/1 81/218/42 91/219/42 90/212/1
f 84/220/38 78/221/41 87/222/41 86/223/38
f 80/224/43 84/220/38 86/223/38 93/225/43
f 81/218/42 83/226/4 92/227/4 91/219/42
f 83/226/4 80/224/43 93/225/43 92/227/4
f 82/215/2 79/210/44 89/213/44 88/216/2
f 167/228/7 97/229/7 98/230/7 168/231/7
f 97/232/2 95/233/2 96/234/2 98/235/2
f 167/236/38 169/237/38 95/238/38 97/239/38
f 104/240/4 112/241/4 108/242/4 100/243/4
f 101/244/4 109/245/4 114/246/4 106/247/4
f 101/244/4 103/248/4 111/249/4 109/245/4
f 105/250/4 100/243/4 108/242/4 113/251/4
f 103/248/4 102/252/4 110/253/4 111/249/4
f 102/252/4 105/250/4 113/251/4 110/253/4
f 99/254/4 107/255/4 112/241/4 104/240/4
f 106/247/4 114/246/4 107/255/4 99/254/4
f 119/256/2 117/257/2 125/258/2 127/259/2
f 121/260/2 116/261/2 124/262/2 129/263/2
f 121/260/2 129/263/2 128/264/2 120/265/2
f 118/266/2 126/267/2 125/258/2 117/257/2
f 120/265/2 128/264/2 130/268/2 122/269/2
f 122/269/2 130/268/2 126/267/2 118/266/2
f 115/270/2 119/256/2 127/259/2 123/271/2
f 116/261/2 115/270/2 123/271/2 124/262/2
f 104/272/10 100/273/36 117/274/36 119/275/10
f 106/276/1 99/277/37 115/278/37 116/279/1
f 108/280/40 112/281/7 127/282/7 125/283/40
f 107/284/39 114/285/38 124/286/38 123/287/39
f 105/288/38 118/289/38 117/290/36 100/291/36
f 108/292/40 125/293/40 126/294/1 113/295/1
f 99/296/37 104/297/10 119/298/10 115/299/37
f 112/300/7 107/301/39 123/302/39 127/303/7
f 101/304/40 121/305/40 120/306/7 103/307/7
f 111/308/10 128/309/10 129/280/36 109/310/36
f 102/311/39 122/312/39 118/313/38 105/314/38
f 113/315/1 126/316/1 130/317/37 110/318/37
f 101/319/40 106/320/1 116/277/1 121/321/40
f 114/322/38 109/323/36 129/324/36 124/325/38
f 103/326/7 120/327/7 122/328/39 102/329/39
f 110/330/37 130/331/37 128/332/10 111/333/10
f 171/334/7 133/335/7 134/336/7 172/337/7
f 133/338/2 131/339/2 132/340/2 134/341/2
f 171/342/38 173/343/38 131/344/38 133/345/38
f 140/346/4 148/347/4 144/348/4 136/349/4
f 137/350/4 145/351/4 150/352/4 142/353/4
f 137/350/4 139/354/4 147/355/4 145/351/4
f 141/356/4 136/349/4 144/348/4 149/357/4
f 139/354/4 138/358/4 146/359/4 147/355/4
f 138/358/4 141/356/4 149/357/4 146/359/4
f 135/360/4 143/361/4 148/347/4 140/346/4
f 142/353/4 150/352/4 143/361/4 135/360/4
f 155/362/2 153/363/2 161/364/2 163/365/2
f 157/366/2 152/367/2 160/368/2 165/369/2
f 157/366/2 165/369/2 164/370/2 156/371/2
f 154/372/2 162/373/2 161/364/2 153/363/2
f 156/371/2 164/370/2 166/374/2 158/375/2
f 158/375/2 166/374/2 162/373/2 154/372/2
f 151/376/2 155/362/2 163/365/2 159/377/2
f 152/367/2 151/376/2 159/377/2 160/368/2
f 140/378/10 136/379/36 153/380/36 155/381/10
f 142/382/1 135/383/37 151/384/37 152/385/1
f 144/386/40 148/387/7 163/388/7 161/389/40
f 143/390/39 150/391/38 160/392/38 159/393/39
f 141/394/38 154/395/38 153/396/36 136/397/36
f 144/398/40 161/399/40 162/400/1 149/401/1
f 135/402/37 140/403/10 155/404/10 151/309/37
f 148/405/7 143/406/39 159/407/39 163/408/7
f 137/409/40 157/410/40 156/411/7 139/412/7
f 147/413/10 164/414/10 165/415/36 145/416/36
f 138/417/39 158/418/39 154/419/38 141/420/38
f 149/421/1 162/422/1 166/423/37 146/424/37
f 137/425/40 142/426/1 152/427/1 157/428/40
f 150/429/38 145/430/36 165/431/36 160/432/38
f 139/433/7 156/434/7 158/435/39 138/379/39
f 146/436/37 166/437/37 164/438/10 147/439/10
f 98/440/1 96/441/1 170/442/1 168/443/1
f 95/444/10 169/445/10 170/446/10 96/447/10
f 134/448/1 132/449/1 174/450/1 172/451/1
f 131/452/10 173/453/10 174/454/10 132/455/10
f 170/456/4 169/441/4 167/457/4 168/458/4
f 174/459/4 173/460/4 171/232/4 172/461/4
f 247/462/4 248/463/4 178/464/4 177/465/4
f 177/466/10 178/467/10 176/468/10 175/469/10
f 247/470/38 177/471/38 175/472/38 249/473/38
f 184/474/7 180/475/7 188/476/7 192/477/7
f 181/478/7 186/479/7 194/480/7 189/481/7
f 181/478/7 189/481/7 191/482/7 183/483/7
f 185/484/7 193/485/7 188/476/7 180/475/7
f 183/483/7 191/482/7 190/486/7 182/487/7
f 182/487/7 190/486/7 193/485/7 185/484/7
f 179/488/7 184/474/7 192/477/7 187/489/7
f 186/479/7 179/488/7 187/489/7 194/480/7
f 199/490/10 207/491/10 205/492/10 197/493/10
f 201/494/10 209/495/10 204/496/10 196/497/10
f 201/494/10 200/498/10 208/499/10 209/495/10
f 198/500/10 197/493/10 205/492/10 206/501/10
f 200/498/10 202/502/10 210/503/10 208/499/10
f 202/502/10 198/500/10 206/501/10 210/503/10
f 195/504/10 203/505/10 207/491/10 199/490/10
f 196/497/10 204/496/10 203/505/10 195/504/10
f 184/506/2 199/507/2 197/508/41 180/509/41
f 186/510/1 196/511/1 195/512/44 179/513/44
f 188/514/42 205/515/42 207/516/4 192/517/4
f 187/518/43 203/519/43 204/520/38 194/521/38
f 185/522/38 180/523/41 197/524/41 198/525/38
f 188/526/42 193/527/1 206/528/1 205/529/42
f 179/530/44 195/531/44 199/532/2 184/533/2
f 192/534/4 207/535/4 203/536/43 187/537/43
f 181/538/42 183/539/4 200/540/4 201/541/42
f 191/542/2 189/543/41 209/415/41 208/414/2
f 182/544/43 185/545/38 198/546/38 202/547/43
f 193/391/1 190/548/44 210/549/44 206/550/1
f 181/551/42 201/552/42 196/553/1 186/554/1
f 194/555/38 204/556/38 209/557/41 189/558/41
f 183/559/4 182/554/43 202/560/43 200/561/4
f 190/562/44 191/563/2 208/564/2 210/565/44
f 251/452/4 252/566/4 214/567/4 213/453/4
f 213/568/10 214/569/10 212/570/10 211/571/10
f 251/572/38 213/573/38 211/574/38 253/575/38
f 220/576/7 216/577/7 224/578/7 228/579/7
f 217/580/7 222/581/7 230/582/7 225/583/7
f 217/580/7 225/583/7 227/584/7 219/585/7
f 221/586/7 229/587/7 224/578/7 216/577/7
f 219/585/7 227/584/7 226/588/7 218/589/7
f 218/589/7 226/588/7 229/587/7 221/586/7
f 215/590/7 220/576/7 228/579/7 223/591/7
f 222/581/7 215/590/7 223/591/7 230/582/7
f 235/592/10 243/593/10 241/594/10 233/595/10
f 237/596/10 245/597/10 240/587/10 232/598/10
f 237/596/10 236/599/10 244/600/10 245/597/10
f 234/601/10 233/595/10 241/594/10 242/602/10
f 236/599/10 238/603/10 246/604/10 244/600/10
f 238/603/10 234/601/10 242/602/10 246/604/10
f 231/605/10 239/606/10 243/593/10 235/592/10
f 232/598/10 240/587/10 239/606/10 231/605/10
f 220/607/2 235/608/2 233/609/41 216/610/41
f 222/611/1 232/612/1 231/613/44 215/614/44
f 224/615/42 241/616/42 243/617/4 228/618/4
f 223/619/43 239/620/43 240/621/38 230/617/38
f 221/622/38 216/623/41 233/624/41 234/625/38
f 224/626/42 229/627/1 242/628/1 241/629/42
f 215/630/44 231/631/44 235/632/2 220/633/2
f 228/634/4 243/635/4 239/636/43 223/637/43
f 217/638/42 219/639/4 236/640/4 237/641/42
f 227/642/2 225/643/41 245/644/41 244/645/2
f 218/646/43 221/647/38 234/648/38 238/649/43
f 229/650/1 226/651/44 246/652/44 242/653/1
f 217/654/42 237/655/42 232/656/1 222/657/1
f 230/658/38 240/659/38 245/660/41 225/661/41
f 219/662/4 218/663/43 238/664/43 236/665/4
f 226/666/44 227/667/2 244/668/2 246/433/44
f 178/669/1 248/670/1 250/671/1 176/672/1
f 175/673/2 176/674/2 250/675/2 249/676/2
f 214/677/1 252/678/1 254/679/1 212/680/1
f 211/681/2 212/682/2 254/683/2 253/684/2
f 250/685/7 248/467/7 247/466/7 249/686/7
f 254/687/7 252/688/7 251/689/7 253/690/7
f 261/691/45 255/692/45 259/693/45 262/694/45
f 265/695/46 278/696/47 276/697/47 263/698/48
f 271/699/49 281/700/50 282/701/22 270/702/22
f 270/702/22 282/701/22 277/703/51 272/704/52
f 268/705/53 279/706/54 281/700/50 271/699/49
f 267/707/55 275/708/56 274/709/26 269/710/26
f 266/711/57 273/712/58 280/713/59 264/714/60
f 256/715/61 257/716/61 260/717/61 258/718/61
f 263/719/62 276/720/63 275/708/56 267/707/55
f 272/704/52 277/703/51 278/721/64 265/722/65
f 256/723/16 258/724/16 264/725/66 268/726/67
f 259/727/28 255/728/28 265/695/46 263/698/48
f 267/729/68 272/730/68 261/731/68 262/732/68
f 267/733/69 269/734/69 270/735/69 272/736/69
f 260/737/70 266/711/57 264/714/60 258/738/70
f 257/739/71 256/740/71 268/705/53 271/699/49
f 270/741/72 269/742/72 266/743/72 271/744/72
f 266/745/73 260/746/73 257/747/73 271/748/73
f 259/749/74 263/719/62 267/707/55 262/750/74
f 255/751/75 261/752/75 272/704/52 265/722/65
f 264/725/66 280/753/76 279/754/76 268/726/67
f 275/755/77 277/756/77 282/757/77 274/758/77
f 273/759/77 281/760/77 279/761/77 280/762/77
f 274/758/77 282/757/77 281/760/77 273/759/77
f 276/763/77 278/764/77 277/756/77 275/755/77
f 269/710/26 274/709/26 273/712/58 266/711/57
f 297/765/45 283/766/45 287/767/45 298/768/45
f 299/769/77 300/770/77 293/771/77 288/772/77
f 306/773/16 302/774/16 289/775/16 290/776/16
f 295/777/77 296/778/77 290/779/77 289/780/77
f 301/781/28 303/782/28 291/783/28 292/784/28
f 310/785/52 308/786/22 293/787/22 300/788/51
f 305/789/55 299/790/56 288/791/26 307/792/26
f 304/793/57 295/794/58 289/795/59 302/796/60
f 309/797/49 306/798/78 290/799/79 296/800/50
f 308/786/22 309/797/49 296/800/50 293/787/22
f 288/772/77 293/771/77 296/778/77 295/777/77
f 284/801/61 285/802/61 294/803/61 286/804/61
f 307/792/26 288/791/26 295/794/58 304/793/57
f 301/805/62 292/806/63 299/790/56 305/789/55
f 292/807/77 291/808/77 300/770/77 299/769/77
f 284/809/16 286/810/16 302/774/16 306/773/16
f 287/811/28 283/812/28 303/782/28 301/781/28
f 305/813/68 310/814/68 297/815/68 298/816/68
f 305/817/69 307/818/69 308/819/69 310/820/69
f 294/821/70 304/793/57 302/796/60 286/822/70
f 285/823/71 284/824/71 306/798/78 309/797/49
f 308/825/72 307/826/72 304/827/72 309/828/72
f 304/829/73 294/830/73 285/831/73 309/832/73
f 287/833/74 301/805/62 305/789/55 298/834/74
f 283/835/75 297/836/75 310/785/52 303/837/80
f 303/837/80 310/785/52 300/788/51 291/838/81
f 3/839/38 7/840/38 5/841/38 1/842/38
f 4/843/2 3/844/2 312/845/2 311/846/2
f 1/10/4 2/9/3 313/847/4 314/848/4
f 3/839/38 1/842/38 314/849/38 312/850/38
f 7/840/38 3/839/38 317/851/38 315/852/38
f 8/16/8 7/15/7 315/853/7 316/854/7
f 3/855/10 4/856/10 318/857/10 317/858/10
f 4/859/1 8/860/1 316/861/1 318/862/1
f 51/133/39 52/130/38 321/131/38 320/134/39
f 53/138/1 57/137/40 326/863/40 322/864/1
f 57/137/40 50/141/7 319/865/7 326/863/40
f 54/128/37 53/138/1 322/864/1 323/129/37
