# Blender 5.2.2 LTS
# www.blender.org
mtllib BarrierFull.mtl
o BarrierFull
v 0.865306 0.061190 2.674748
v 0.801968 0.061190 2.674748
v 0.801968 1.002554 3.051691
v 0.865306 1.002554 3.051691
v 0.865306 0.100005 2.602958
v 0.801968 0.100005 2.602958
v 0.801968 1.002554 2.979901
v 0.865306 1.002554 2.979901
v 0.865306 -0.100005 2.602958
v 0.865306 -0.100005 2.674748
v 0.801968 -0.100005 2.674748
v 0.801968 -0.100005 2.602958
v 0.801968 0.100005 2.500000
v 0.865306 0.100005 2.500000
v 0.801968 -0.100005 2.500000
v 0.865306 -0.100005 2.500000
v 0.801968 0.051380 2.674748
v 0.865306 0.051380 2.674748
v 0.801968 0.051380 2.602958
v 0.865306 0.051380 2.602958
v 0.801968 0.051380 2.500000
v 0.865306 0.051380 2.500000
v 2.262800 0.051380 2.602958
v 2.262800 0.100005 2.602958
v 2.262800 0.051380 2.500000
v 2.262800 0.100005 2.500000
v 0.865306 0.758609 2.818403
v 0.865306 0.797167 2.818403
v 0.801968 0.758609 2.818403
v 0.801968 0.797167 2.818403
v 0.801968 0.458226 2.635144
v 0.801968 0.419668 2.635144
v 0.865306 0.419668 2.635144
v 0.865306 0.458226 2.635144
v 0.865306 0.380852 2.847584
v 0.865306 0.419410 2.868432
v 0.865306 0.758352 3.051691
v 0.865306 0.719794 3.030843
v 0.865306 0.458226 2.796642
v 0.865306 0.419668 2.775794
v 0.865306 0.797167 2.979901
v 0.865306 0.758609 2.959053
v 0.801968 0.719794 3.030843
v 0.801968 0.758352 3.051691
v 0.801968 0.419410 2.868432
v 0.801968 0.380852 2.847584
v 0.801968 0.797167 2.979901
v 0.801968 0.758609 2.959053
v 0.801968 0.419668 2.775794
v 0.801968 0.458226 2.796642
v 2.182004 0.758840 2.760437
v 2.182004 0.796937 2.760437
v 2.182004 0.758840 2.798535
v 2.182004 0.796937 2.798535
v 2.182004 0.777888 2.752548
v 2.182004 0.777888 2.806425
v 2.182004 0.750950 2.779486
v 2.182004 0.804827 2.779486
v 2.213288 0.419898 2.577178
v 2.213288 0.457995 2.577178
v 2.213288 0.419898 2.615275
v 2.213288 0.457995 2.615275
v 2.213288 0.438947 2.569288
v 2.213288 0.438947 2.623166
v 2.213288 0.412008 2.596227
v 2.213288 0.465885 2.596227
v 0.833637 0.419898 2.615275
v 0.833637 0.457995 2.615275
v 0.833637 0.419898 2.577178
v 0.833637 0.457995 2.577178
v 0.833637 0.438947 2.569288
v 0.833637 0.438947 2.623166
v 0.833637 0.465885 2.596227
v 0.833637 0.412008 2.596227
v 0.833637 0.758840 2.798535
v 0.833637 0.796937 2.798535
v 0.833637 0.758840 2.760437
v 0.833637 0.796937 2.760437
v 0.833637 0.777888 2.752548
v 0.833637 0.777888 2.806425
v 0.833637 0.804827 2.779486
v 0.833637 0.750950 2.779486
v -0.865306 0.061190 2.674748
v -0.801968 0.061190 2.674748
v -0.801968 1.002554 3.051691
v -0.865306 1.002554 3.051691
v -0.865306 0.100005 2.602958
v -0.801968 0.100005 2.602958
v -0.801968 1.002554 2.979901
v -0.865306 1.002554 2.979901
v -0.865306 -0.100005 2.602958
v -0.865306 -0.100005 2.674748
v -0.801968 -0.100005 2.674748
v -0.801968 -0.100005 2.602958
v -0.801968 0.100005 2.500000
v -0.865306 0.100005 2.500000
v -0.801968 -0.100005 2.500000
v -0.865306 -0.100005 2.500000
v -0.801968 0.051380 2.674748
v -0.865306 0.051380 2.674748
v -0.801968 0.051380 2.602958
v -0.865306 0.051380 2.602958
v -0.801968 0.051380 2.500000
v -0.865306 0.051380 2.500000
v -2.264621 0.051380 2.602958
v -2.264621 0.100005 2.602958
v -2.264621 0.051380 2.500000
v -2.264621 0.100005 2.500000
v -0.865306 0.758609 2.818403
v -0.865306 0.797167 2.818403
v -0.801968 0.758609 2.818403
v -0.801968 0.797167 2.818403
v -0.801968 0.458226 2.635144
v -0.801968 0.419668 2.635144
v -0.865306 0.419668 2.635144
v -0.865306 0.458226 2.635144
v -0.865306 0.380852 2.847584
v -0.865306 0.419410 2.868432
v -0.865306 0.758352 3.051691
v -0.865306 0.719794 3.030843
v -0.865306 0.458226 2.796642
v -0.865306 0.419668 2.775794
v -0.865306 0.797167 2.979901
v -0.865306 0.758609 2.959053
v -0.801968 0.719794 3.030843
v -0.801968 0.758352 3.051691
v -0.801968 0.419410 2.868432
v -0.801968 0.380852 2.847584
v -0.801968 0.797167 2.979901
v -0.801968 0.758609 2.959053
v -0.801968 0.419668 2.775794
v -0.801968 0.458226 2.796642
v -2.195396 0.758840 2.760437
v -2.195396 0.796937 2.760437
v -2.195396 0.758840 2.798535
v -2.195396 0.796937 2.798535
v -2.195396 0.777888 2.752548
v -2.195396 0.777888 2.806425
v -2.195396 0.750950 2.779486
v -2.195396 0.804827 2.779486
v -2.208907 0.419898 2.577178
v -2.208907 0.457995 2.577178
v -2.208907 0.419898 2.615275
v -2.208907 0.457995 2.615275
v -2.208907 0.438947 2.569288
v -2.208907 0.438947 2.623166
v -2.208907 0.412008 2.596227
v -2.208907 0.465885 2.596227
v -0.833637 0.419898 2.615275
v -0.833637 0.457995 2.615275
v -0.833637 0.419898 2.577178
v -0.833637 0.457995 2.577178
v -0.833637 0.438947 2.569288
v -0.833637 0.438947 2.623166
v -0.833637 0.465885 2.596227
v -0.833637 0.412008 2.596227
v -0.833637 0.758840 2.798535
v -0.833637 0.796937 2.798535
v -0.833637 0.758840 2.760437
v -0.833637 0.796937 2.760437
v -0.833637 0.777888 2.752548
v -0.833637 0.777888 2.806425
v -0.833637 0.804827 2.779486
v -0.833637 0.750950 2.779486
v 0.917279 0.742778 2.806425
v 0.917279 0.812999 2.806425
v 0.917279 0.742778 2.818403
v 0.917279 0.812999 2.818403
v 0.749995 0.742778 2.806425
v 0.749995 0.812999 2.806425
v 0.749995 0.742778 2.818403
v 0.749995 0.812999 2.818403
v 0.887120 0.758840 2.798535
v 0.887120 0.796937 2.798535
v 0.887120 0.758840 2.760437
v 0.887120 0.796937 2.760437
v 0.887120 0.777888 2.752548
v 0.887120 0.777888 2.806425
v 0.887120 0.804827 2.779486
v 0.887120 0.750949 2.779486
v 0.887120 0.750657 2.806717
v 0.887120 0.805119 2.806717
v 0.887120 0.750657 2.752255
v 0.887120 0.805119 2.752255
v 0.887120 0.777888 2.740976
v 0.887120 0.777888 2.817997
v 0.887120 0.816399 2.779486
v 0.887120 0.739378 2.779486
v 0.900614 0.758840 2.798535
v 0.900614 0.750949 2.779486
v 0.900614 0.796937 2.798535
v 0.900614 0.804827 2.779486
v 0.900614 0.777888 2.806425
v 0.900614 0.777888 2.752548
v 0.900614 0.758840 2.760437
v 0.900614 0.796937 2.760437
v 0.900614 0.750657 2.806717
v 0.900614 0.739378 2.779486
v 0.900614 0.805119 2.806717
v 0.900614 0.816399 2.779486
v 0.900614 0.777888 2.817997
v 0.900614 0.777888 2.740976
v 0.900614 0.750657 2.752255
v 0.900614 0.805119 2.752255
v 0.780154 0.758840 2.798535
v 0.780154 0.796937 2.798535
v 0.780154 0.758840 2.760437
v 0.780154 0.796937 2.760437
v 0.780154 0.777888 2.752548
v 0.780154 0.777888 2.806425
v 0.780154 0.804827 2.779486
v 0.780154 0.750949 2.779486
v 0.780154 0.750657 2.806717
v 0.780154 0.805119 2.806717
v 0.780154 0.750657 2.752255
v 0.780154 0.805119 2.752255
v 0.780154 0.777888 2.740976
v 0.780154 0.777888 2.817997
v 0.780154 0.816399 2.779486
v 0.780154 0.739378 2.779486
v 0.766660 0.758840 2.798535
v 0.766660 0.750949 2.779486
v 0.766660 0.796937 2.798535
v 0.766660 0.804827 2.779486
v 0.766660 0.777888 2.806425
v 0.766660 0.777888 2.752548
v 0.766660 0.758840 2.760437
v 0.766660 0.796937 2.760437
v 0.766660 0.750657 2.806717
v 0.766660 0.739378 2.779486
v 0.766660 0.805119 2.806717
v 0.766660 0.816399 2.779486
v 0.766660 0.777888 2.817997
v 0.766660 0.777888 2.740976
v 0.766660 0.750657 2.752255
v 0.766660 0.805119 2.752255
v 0.917279 0.403836 2.623166
v 0.917279 0.474058 2.623166
v 0.917279 0.403836 2.635144
v 0.917279 0.474058 2.635144
v 0.749994 0.403836 2.623166
v 0.749994 0.474058 2.623166
v 0.749994 0.403836 2.635144
v 0.749994 0.474058 2.635144
v 0.887120 0.419899 2.615276
v 0.887120 0.457996 2.615276
v 0.887120 0.419899 2.577178
v 0.887120 0.457996 2.577178
v 0.887120 0.438947 2.569288
v 0.887120 0.438947 2.623166
v 0.887120 0.465886 2.596227
v 0.887120 0.412008 2.596227
v 0.887120 0.411716 2.623458
v 0.887120 0.466178 2.623458
v 0.887120 0.411716 2.568996
v 0.887120 0.466178 2.568996
v 0.887120 0.438947 2.557717
v 0.887120 0.438947 2.634737
v 0.887120 0.477458 2.596227
v 0.887120 0.400437 2.596227
v 0.900614 0.419899 2.615276
v 0.900614 0.412008 2.596227
v 0.900614 0.457996 2.615276
v 0.900614 0.465886 2.596227
v 0.900614 0.438947 2.623166
v 0.900614 0.438947 2.569288
v 0.900614 0.419899 2.577178
v 0.900614 0.457996 2.577178
v 0.900614 0.411716 2.623458
v 0.900614 0.400437 2.596227
v 0.900614 0.466178 2.623458
v 0.900614 0.477458 2.596227
v 0.900614 0.438947 2.634737
v 0.900614 0.438947 2.557717
v 0.900614 0.411716 2.568996
v 0.900614 0.466178 2.568996
v 0.780154 0.419899 2.615276
v 0.780154 0.457996 2.615276
v 0.780154 0.419899 2.577178
v 0.780154 0.457996 2.577178
v 0.780154 0.438947 2.569288
v 0.780154 0.438947 2.623166
v 0.780154 0.465886 2.596227
v 0.780154 0.412008 2.596227
v 0.780154 0.411716 2.623458
v 0.780154 0.466178 2.623458
v 0.780154 0.411716 2.568996
v 0.780154 0.466178 2.568996
v 0.780154 0.438947 2.557717
v 0.780154 0.438947 2.634737
v 0.780154 0.477458 2.596227
v 0.780154 0.400437 2.596227
v 0.766660 0.419899 2.615276
v 0.766660 0.412008 2.596227
v 0.766660 0.457996 2.615276
v 0.766660 0.465886 2.596227
v 0.766660 0.438947 2.623166
v 0.766660 0.438947 2.569288
v 0.766660 0.419899 2.577178
v 0.766660 0.457996 2.577178
v 0.766660 0.411716 2.623458
v 0.766660 0.400437 2.596227
v 0.766660 0.466178 2.623458
v 0.766660 0.477458 2.596227
v 0.766660 0.438947 2.634737
v 0.766660 0.438947 2.557717
v 0.766660 0.411716 2.568996
v 0.766660 0.466178 2.568996
v -0.917279 0.742778 2.806425
v -0.917279 0.812999 2.806425
v -0.917279 0.742778 2.818403
v -0.917279 0.812999 2.818403
v -0.749995 0.742778 2.806425
v -0.749995 0.812999 2.806425
v -0.749995 0.742778 2.818403
v -0.749995 0.812999 2.818403
v -0.887120 0.758840 2.798535
v -0.887120 0.796937 2.798535
v -0.887120 0.758840 2.760437
v -0.887120 0.796937 2.760437
v -0.887120 0.777888 2.752548
v -0.887120 0.777888 2.806425
v -0.887120 0.804827 2.779486
v -0.887120 0.750949 2.779486
v -0.887120 0.750657 2.806717
v -0.887120 0.805119 2.806717
v -0.887120 0.750657 2.752255
v -0.887120 0.805119 2.752255
v -0.887120 0.777888 2.740976
v -0.887120 0.777888 2.817997
v -0.887120 0.816399 2.779486
v -0.887120 0.739378 2.779486
v -0.900614 0.758840 2.798535
v -0.900614 0.750949 2.779486
v -0.900614 0.796937 2.798535
v -0.900614 0.804827 2.779486
v -0.900614 0.777888 2.806425
v -0.900614 0.777888 2.752548
v -0.900614 0.758840 2.760437
v -0.900614 0.796937 2.760437
v -0.900614 0.750657 2.806717
v -0.900614 0.739378 2.779486
v -0.900614 0.805119 2.806717
v -0.900614 0.816399 2.779486
v -0.900614 0.777888 2.817997
v -0.900614 0.777888 2.740976
v -0.900614 0.750657 2.752255
v -0.900614 0.805119 2.752255
v -0.780154 0.758840 2.798535
v -0.780154 0.796937 2.798535
v -0.780154 0.758840 2.760437
v -0.780154 0.796937 2.760437
v -0.780154 0.777888 2.752548
v -0.780154 0.777888 2.806425
v -0.780154 0.804827 2.779486
v -0.780154 0.750949 2.779486
v -0.780154 0.750657 2.806717
v -0.780154 0.805119 2.806717
v -0.780154 0.750657 2.752255
v -0.780154 0.805119 2.752255
v -0.780154 0.777888 2.740976
v -0.780154 0.777888 2.817997
v -0.780154 0.816399 2.779486
v -0.780154 0.739378 2.779486
v -0.766660 0.758840 2.798535
v -0.766660 0.750949 2.779486
v -0.766660 0.796937 2.798535
v -0.766660 0.804827 2.779486
v -0.766660 0.777888 2.806425
v -0.766660 0.777888 2.752548
v -0.766660 0.758840 2.760437
v -0.766660 0.796937 2.760437
v -0.766660 0.750657 2.806717
v -0.766660 0.739378 2.779486
v -0.766660 0.805119 2.806717
v -0.766660 0.816399 2.779486
v -0.766660 0.777888 2.817997
v -0.766660 0.777888 2.740976
v -0.766660 0.750657 2.752255
v -0.766660 0.805119 2.752255
v -0.917279 0.403836 2.623166
v -0.917279 0.474058 2.623166
v -0.917279 0.403836 2.635144
v -0.917279 0.474058 2.635144
v -0.749994 0.403836 2.623166
v -0.749994 0.474058 2.623166
v -0.749994 0.403836 2.635144
v -0.749994 0.474058 2.635144
v -0.887120 0.419899 2.615276
v -0.887120 0.457996 2.615276
v -0.887120 0.419899 2.577178
v -0.887120 0.457996 2.577178
v -0.887120 0.438947 2.569288
v -0.887120 0.438947 2.623166
v -0.887120 0.465886 2.596227
v -0.887120 0.412008 2.596227
v -0.887120 0.411716 2.623458
v -0.887120 0.466178 2.623458
v -0.887120 0.411716 2.568996
v -0.887120 0.466178 2.568996
v -0.887120 0.438947 2.557717
v -0.887120 0.438947 2.634737
v -0.887120 0.477458 2.596227
v -0.887120 0.400437 2.596227
v -0.900614 0.419899 2.615276
v -0.900614 0.412008 2.596227
v -0.900614 0.457996 2.615276
v -0.900614 0.465886 2.596227
v -0.900614 0.438947 2.623166
v -0.900614 0.438947 2.569288
v -0.900614 0.419899 2.577178
v -0.900614 0.457996 2.577178
v -0.900614 0.411716 2.623458
v -0.900614 0.400437 2.596227
v -0.900614 0.466178 2.623458
v -0.900614 0.477458 2.596227
v -0.900614 0.438947 2.634737
v -0.900614 0.438947 2.557717
v -0.900614 0.411716 2.568996
v -0.900614 0.466178 2.568996
v -0.780154 0.419899 2.615276
v -0.780154 0.457996 2.615276
v -0.780154 0.419899 2.577178
v -0.780154 0.457996 2.577178
v -0.780154 0.438947 2.569288
v -0.780154 0.438947 2.623166
v -0.780154 0.465886 2.596227
v -0.780154 0.412008 2.596227
v -0.780154 0.411716 2.623458
v -0.780154 0.466178 2.623458
v -0.780154 0.411716 2.568996
v -0.780154 0.466178 2.568996
v -0.780154 0.438947 2.557717
v -0.780154 0.438947 2.634737
v -0.780154 0.477458 2.596227
v -0.780154 0.400437 2.596227
v -0.766660 0.419899 2.615276
v -0.766660 0.412008 2.596227
v -0.766660 0.457996 2.615276
v -0.766660 0.465886 2.596227
v -0.766660 0.438947 2.623166
v -0.766660 0.438947 2.569288
v -0.766660 0.419899 2.577178
v -0.766660 0.457996 2.577178
v -0.766660 0.411716 2.623458
v -0.766660 0.400437 2.596227
v -0.766660 0.466178 2.623458
v -0.766660 0.477458 2.596227
v -0.766660 0.438947 2.634737
v -0.766660 0.438947 2.557717
v -0.766660 0.411716 2.568996
v -0.766660 0.466178 2.568996
v 0.885995 0.748918 2.944479
v 0.885995 0.806858 2.944479
v 0.781278 0.748918 2.944479
v 0.781278 0.806858 2.944479
v 0.885995 0.806858 3.078148
v 0.885995 0.748918 3.057300
v 0.781278 0.806858 3.078148
v 0.781278 0.748918 3.057300
v 0.801968 0.806858 2.944479
v 0.865306 0.806858 2.944479
v 0.865306 0.748918 2.944479
v 0.801968 0.748918 2.944479
v 0.865306 0.748918 3.057300
v 0.801968 0.748918 3.057300
v 0.801968 0.806858 3.078148
v 0.865306 0.806858 3.078148
v 0.781278 0.748918 3.046568
v 0.781278 0.806858 3.051648
v 0.885995 0.806858 3.051648
v 0.885995 0.748918 3.046568
v 0.801968 0.806858 3.051648
v 0.865306 0.806858 3.051648
v 0.865306 0.748918 3.046568
v 0.801968 0.748918 3.046568
v 0.781278 0.797919 2.944479
v 0.885995 0.797919 2.944479
v 0.781278 0.797919 3.074932
v 0.885995 0.797919 3.074932
v 0.865306 0.797919 3.050864
v 0.801968 0.797919 3.050864
v 0.801968 0.797919 2.944479
v 0.865306 0.797919 2.944479
v 0.801968 0.797919 3.074932
v 0.865306 0.797919 3.074932
v 0.781278 0.797919 3.050864
v 0.885995 0.797919 3.050864
v 0.885995 0.758565 2.944479
v 0.781278 0.758565 3.060771
v 0.885995 0.758565 3.060771
v 0.801968 0.758565 3.047414
v 0.801968 0.758565 2.944479
v 0.865306 0.758565 2.944479
v 0.781278 0.758565 3.047414
v 0.781278 0.758565 2.944479
v 0.865306 0.758565 3.047414
v 0.801968 0.758565 3.060771
v 0.865306 0.758565 3.060771
v 0.885995 0.758565 3.047414
v 0.885995 0.806858 3.064898
v 0.885995 0.748918 3.051934
v 0.865306 0.806858 3.064898
v 0.865306 0.748918 3.051934
v 0.885995 0.797919 3.062898
v 0.865306 0.797919 3.062898
v 0.885995 0.758565 3.054093
v 0.865306 0.758565 3.054093
v 0.781278 0.748918 3.051934
v 0.781278 0.806858 3.064898
v 0.801968 0.806858 3.064898
v 0.801968 0.748918 3.051934
v 0.781278 0.797919 3.062898
v 0.801968 0.797919 3.062898
v 0.781278 0.758565 3.054093
v 0.801968 0.758565 3.054093
v 0.885995 0.042065 2.602958
v 0.885995 0.100005 2.602958
v 0.781278 0.042065 2.602958
v 0.781278 0.100005 2.602958
v 0.885995 0.100005 2.716938
v 0.885995 0.042065 2.684399
v 0.781278 0.100005 2.716938
v 0.781278 0.042065 2.684399
v 0.801968 0.100005 2.602958
v 0.865306 0.100005 2.602958
v 0.865306 0.042065 2.602958
v 0.801968 0.042065 2.602958
v 0.865306 0.042065 2.684399
v 0.801968 0.042065 2.684399
v 0.801968 0.100005 2.716938
v 0.865306 0.100005 2.716938
v 0.781278 0.042065 2.673666
v 0.781278 0.100005 2.690438
v 0.885995 0.100005 2.690438
v 0.885995 0.042065 2.673666
v 0.801968 0.100005 2.690438
v 0.865306 0.100005 2.690438
v 0.865306 0.042065 2.673666
v 0.801968 0.042065 2.673666
v 0.781278 0.091066 2.602958
v 0.885995 0.091065 2.602958
v 0.781278 0.091066 2.713721
v 0.885995 0.091065 2.713721
v 0.865306 0.091065 2.689654
v 0.801968 0.091065 2.689654
v 0.801968 0.091065 2.602958
v 0.865306 0.091065 2.602958
v 0.801968 0.091065 2.713721
v 0.865306 0.091065 2.713721
v 0.781278 0.091066 2.689654
v 0.885995 0.091065 2.689654
v 0.885995 0.051712 2.602958
v 0.781278 0.051712 2.687870
v 0.885995 0.051712 2.687870
v 0.801968 0.051712 2.674512
v 0.801968 0.051712 2.602958
v 0.865306 0.051712 2.602958
v 0.781278 0.051712 2.674512
v 0.781278 0.051712 2.602958
v 0.865306 0.051712 2.674512
v 0.801968 0.051712 2.687870
v 0.865306 0.051712 2.687870
v 0.885995 0.051712 2.674512
v 0.885995 0.100005 2.703688
v 0.885995 0.042065 2.679032
v 0.865306 0.100005 2.703688
v 0.865306 0.042065 2.679032
v 0.885995 0.091065 2.701688
v 0.865306 0.091065 2.701688
v 0.885995 0.051712 2.681191
v 0.865306 0.051712 2.681191
v 0.781278 0.042065 2.679032
v 0.781278 0.100005 2.703688
v 0.801968 0.100005 2.703688
v 0.801968 0.042065 2.679032
v 0.781278 0.091066 2.701688
v 0.801968 0.091065 2.701688
v 0.781278 0.051712 2.681191
v 0.801968 0.051712 2.681191
v 0.885995 0.419668 2.775794
v 0.885995 0.477608 2.775794
v 0.781278 0.419668 2.775794
v 0.781278 0.477608 2.775794
v 0.885995 0.477608 2.922042
v 0.885995 0.419668 2.878922
v 0.781278 0.477608 2.922042
v 0.781278 0.419668 2.878922
v 0.801968 0.477608 2.775794
v 0.865306 0.477608 2.775794
v 0.865306 0.419668 2.775794
v 0.801968 0.419668 2.775794
v 0.865306 0.419668 2.878922
v 0.801968 0.419668 2.878922
v 0.801968 0.477608 2.922042
v 0.865306 0.477608 2.922042
v 0.781278 0.419668 2.868190
v 0.781278 0.477608 2.895542
v 0.885995 0.477608 2.895542
v 0.885995 0.419668 2.868190
v 0.801968 0.477608 2.895542
v 0.865306 0.477608 2.895542
v 0.865306 0.419668 2.868190
v 0.801968 0.419668 2.868190
v 0.781278 0.468668 2.775794
v 0.885995 0.468668 2.775794
v 0.781278 0.468668 2.918826
v 0.885995 0.468668 2.918826
v 0.865306 0.468668 2.894758
v 0.801968 0.468668 2.894758
v 0.801968 0.468668 2.775794
v 0.865306 0.468668 2.775794
v 0.801968 0.468668 2.918826
v 0.865306 0.468668 2.918826
v 0.781278 0.468668 2.894758
v 0.885995 0.468668 2.894758
v 0.885995 0.429314 2.775794
v 0.781278 0.429314 2.886889
v 0.885995 0.429314 2.886889
v 0.801968 0.429314 2.873531
v 0.801968 0.429314 2.775794
v 0.865306 0.429314 2.775794
v 0.781278 0.429314 2.873531
v 0.781278 0.429314 2.775794
v 0.865306 0.429314 2.873531
v 0.801968 0.429314 2.886889
v 0.865306 0.429314 2.886889
v 0.885995 0.429314 2.873531
v 0.885995 0.477608 2.908792
v 0.885995 0.419668 2.873556
v 0.865306 0.477608 2.908792
v 0.865306 0.419668 2.873556
v 0.885995 0.468668 2.906792
v 0.865306 0.468668 2.906792
v 0.885995 0.429314 2.880210
v 0.865306 0.429314 2.880210
v 0.781278 0.419668 2.873556
v 0.781278 0.477608 2.908792
v 0.801968 0.477608 2.908792
v 0.801968 0.419668 2.873556
v 0.781278 0.468668 2.906792
v 0.801968 0.468668 2.906792
v 0.781278 0.429314 2.880210
v 0.801968 0.429314 2.880210
v -0.885995 0.748918 2.944479
v -0.885995 0.806858 2.944479
v -0.781278 0.748918 2.944479
v -0.781278 0.806858 2.944479
v -0.885995 0.806858 3.078148
v -0.885995 0.748918 3.057300
v -0.781278 0.806858 3.078148
v -0.781278 0.748918 3.057300
v -0.801968 0.806858 2.944479
v -0.865306 0.806858 2.944479
v -0.865306 0.748918 2.944479
v -0.801968 0.748918 2.944479
v -0.865306 0.748918 3.057300
v -0.801968 0.748918 3.057300
v -0.801968 0.806858 3.078148
v -0.865306 0.806858 3.078148
v -0.781278 0.748918 3.046568
v -0.781278 0.806858 3.051648
v -0.885995 0.806858 3.051648
v -0.885995 0.748918 3.046568
v -0.801968 0.806858 3.051648
v -0.865306 0.806858 3.051648
v -0.865306 0.748918 3.046568
v -0.801968 0.748918 3.046568
v -0.781278 0.797919 2.944479
v -0.885995 0.797919 2.944479
v -0.781278 0.797919 3.074932
v -0.885995 0.797919 3.074932
v -0.865306 0.797919 3.050864
v -0.801968 0.797919 3.050864
v -0.801968 0.797919 2.944479
v -0.865306 0.797919 2.944479
v -0.801968 0.797919 3.074932
v -0.865306 0.797919 3.074932
v -0.781278 0.797919 3.050864
v -0.885995 0.797919 3.050864
v -0.885995 0.758565 2.944479
v -0.781278 0.758565 3.060771
v -0.885995 0.758565 3.060771
v -0.801968 0.758565 3.047414
v -0.801968 0.758565 2.944479
v -0.865306 0.758565 2.944479
v -0.781278 0.758565 3.047414
v -0.781278 0.758565 2.944479
v -0.865306 0.758565 3.047414
v -0.801968 0.758565 3.060771
v -0.865306 0.758565 3.060771
v -0.885995 0.758565 3.047414
v -0.885995 0.806858 3.064898
v -0.885995 0.748918 3.051934
v -0.865306 0.806858 3.064898
v -0.865306 0.748918 3.051934
v -0.885995 0.797919 3.062898
v -0.865306 0.797919 3.062898
v -0.885995 0.758565 3.054093
v -0.865306 0.758565 3.054093
v -0.781278 0.748918 3.051934
v -0.781278 0.806858 3.064898
v -0.801968 0.806858 3.064898
v -0.801968 0.748918 3.051934
v -0.781278 0.797919 3.062898
v -0.801968 0.797919 3.062898
v -0.781278 0.758565 3.054093
v -0.801968 0.758565 3.054093
v -0.885995 0.042065 2.602958
v -0.885995 0.100005 2.602958
v -0.781278 0.042065 2.602958
v -0.781278 0.100005 2.602958
v -0.885995 0.100005 2.716938
v -0.885995 0.042065 2.684399
v -0.781278 0.100005 2.716938
v -0.781278 0.042065 2.684399
v -0.801968 0.100005 2.602958
v -0.865306 0.100005 2.602958
v -0.865306 0.042065 2.602958
v -0.801968 0.042065 2.602958
v -0.865306 0.042065 2.684399
v -0.801968 0.042065 2.684399
v -0.801968 0.100005 2.716938
v -0.865306 0.100005 2.716938
v -0.781278 0.042065 2.673666
v -0.781278 0.100005 2.690438
v -0.885995 0.100005 2.690438
v -0.885995 0.042065 2.673666
v -0.801968 0.100005 2.690438
v -0.865306 0.100005 2.690438
v -0.865306 0.042065 2.673666
v -0.801968 0.042065 2.673666
v -0.781278 0.091066 2.602958
v -0.885995 0.091065 2.602958
v -0.781278 0.091066 2.713721
v -0.885995 0.091065 2.713721
v -0.865306 0.091065 2.689654
v -0.801968 0.091065 2.689654
v -0.801968 0.091065 2.602958
v -0.865306 0.091065 2.602958
v -0.801968 0.091065 2.713721
v -0.865306 0.091065 2.713721
v -0.781278 0.091066 2.689654
v -0.885995 0.091065 2.689654
v -0.885995 0.051712 2.602958
v -0.781278 0.051712 2.687870
v -0.885995 0.051712 2.687870
v -0.801968 0.051712 2.674512
v -0.801968 0.051712 2.602958
v -0.865306 0.051712 2.602958
v -0.781278 0.051712 2.674512
v -0.781278 0.051712 2.602958
v -0.865306 0.051712 2.674512
v -0.801968 0.051712 2.687870
v -0.865306 0.051712 2.687870
v -0.885995 0.051712 2.674512
v -0.885995 0.100005 2.703688
v -0.885995 0.042065 2.679032
v -0.865306 0.100005 2.703688
v -0.865306 0.042065 2.679032
v -0.885995 0.091065 2.701688
v -0.865306 0.091065 2.701688
v -0.885995 0.051712 2.681191
v -0.865306 0.051712 2.681191
v -0.781278 0.042065 2.679032
v -0.781278 0.100005 2.703688
v -0.801968 0.100005 2.703688
v -0.801968 0.042065 2.679032
v -0.781278 0.091066 2.701688
v -0.801968 0.091065 2.701688
v -0.781278 0.051712 2.681191
v -0.801968 0.051712 2.681191
v -0.885995 0.419668 2.775794
v -0.885995 0.477608 2.775794
v -0.781278 0.419668 2.775794
v -0.781278 0.477608 2.775794
v -0.885995 0.477608 2.922042
v -0.885995 0.419668 2.878922
v -0.781278 0.477608 2.922042
v -0.781278 0.419668 2.878922
v -0.801968 0.477608 2.775794
v -0.865306 0.477608 2.775794
v -0.865306 0.419668 2.775794
v -0.801968 0.419668 2.775794
v -0.865306 0.419668 2.878922
v -0.801968 0.419668 2.878922
v -0.801968 0.477608 2.922042
v -0.865306 0.477608 2.922042
v -0.781278 0.419668 2.868190
v -0.781278 0.477608 2.895542
v -0.885995 0.477608 2.895542
v -0.885995 0.419668 2.868190
v -0.801968 0.477608 2.895542
v -0.865306 0.477608 2.895542
v -0.865306 0.419668 2.868190
v -0.801968 0.419668 2.868190
v -0.781278 0.468668 2.775794
v -0.885995 0.468668 2.775794
v -0.781278 0.468668 2.918826
v -0.885995 0.468668 2.918826
v -0.865306 0.468668 2.894758
v -0.801968 0.468668 2.894758
v -0.801968 0.468668 2.775794
v -0.865306 0.468668 2.775794
v -0.801968 0.468668 2.918826
v -0.865306 0.468668 2.918826
v -0.781278 0.468668 2.894758
v -0.885995 0.468668 2.894758
v -0.885995 0.429314 2.775794
v -0.781278 0.429314 2.886889
v -0.885995 0.429314 2.886889
v -0.801968 0.429314 2.873531
v -0.801968 0.429314 2.775794
v -0.865306 0.429314 2.775794
v -0.781278 0.429314 2.873531
v -0.781278 0.429314 2.775794
v -0.865306 0.429314 2.873531
v -0.801968 0.429314 2.886889
v -0.865306 0.429314 2.886889
v -0.885995 0.429314 2.873531
v -0.885995 0.477608 2.908792
v -0.885995 0.419668 2.873556
v -0.865306 0.477608 2.908792
v -0.865306 0.419668 2.873556
v -0.885995 0.468668 2.906792
v -0.865306 0.468668 2.906792
v -0.885995 0.429314 2.880210
v -0.865306 0.429314 2.880210
v -0.781278 0.419668 2.873556
v -0.781278 0.477608 2.908792
v -0.801968 0.477608 2.908792
v -0.801968 0.419668 2.873556
v -0.781278 0.468668 2.906792
v -0.801968 0.468668 2.906792
v -0.781278 0.429314 2.880210
v -0.801968 0.429314 2.880210
v -2.195396 0.777888 2.779486
v -2.208907 0.438947 2.596227
v 2.213288 0.438947 2.596227
v 2.182004 0.777888 2.779486
vn -0.0000 1.0000 -0.0000
vn -1.0000 -0.0000 -0.0000
vn -0.0000 -0.0000 1.0000
vn -0.0000 -1.0000 -0.0000
vn 1.0000 -0.0000 -0.0000
vn -0.0000 -0.0000 -1.0000
vn -0.0000 -0.2453 0.9694
vn -0.0000 -0.4756 0.8797
vn -0.0000 0.4756 -0.8797
vn -0.0000 0.7071 -0.7071
vn -0.0000 -0.7071 -0.7071
vn -0.0000 0.7071 0.7071
vn -0.0000 -0.7071 0.7071
vn -0.0000 -0.3386 0.9409
vn -0.0000 -0.0874 0.9962
vn -0.0000 -0.2183 0.9759
vn -0.0000 -0.4469 0.8946
vn -0.0000 -0.4619 0.8869
vn -0.0000 -0.4913 0.8710
vn -0.0000 -0.6334 0.7738
vn -0.0000 -0.6367 0.7711
vn -0.0000 -0.4844 0.8749
vn -0.0000 -0.5597 0.8287
vt 0.966901 0.463164
vt 0.997170 0.462746
vt 0.997644 0.497055
vt 0.967375 0.497473
vt 0.663274 0.707580
vt 0.663274 0.674808
vt 0.732381 0.674808
vt 0.732381 0.707580
vt 0.663274 0.736493
vt 0.732380 0.736493
vt 0.779380 0.845179
vt 0.779381 0.816266
vt 0.812152 0.816266
vt 0.812152 0.845179
vt 0.663274 0.769265
vt 0.732380 0.769265
vt 0.732380 0.816265
vt 0.663274 0.816265
vt 0.663273 0.845179
vt 0.732380 0.845179
vt 0.474384 0.000000
vt 0.474384 0.028913
vt 0.427384 0.028913
vt 0.427384 0.000000
vt 0.663274 0.627807
vt 0.732381 0.627807
vt 0.565780 0.000000
vt 0.565780 0.028913
vt 0.543582 0.028913
vt 0.543582 0.000000
vt 0.496582 0.028913
vt 0.543582 0.666866
vt 0.496582 0.666866
vt 0.641076 0.769265
vt 0.658796 0.736493
vt 0.658796 0.707580
vt 0.641077 0.674808
vt 0.474384 0.666866
vt 0.427384 0.666866
vt 0.565780 0.666866
vt 0.365515 0.667698
vt 0.375032 0.685299
vt 0.301309 0.685299
vt 0.301309 0.667698
vt 0.214800 0.796310
vt 0.214800 0.825223
vt 0.150593 0.825223
vt 0.150593 0.796310
vt 0.375032 0.714213
vt 0.365515 0.731814
vt 0.301309 0.731814
vt 0.301309 0.714213
vt 0.224317 0.749795
vt 0.224317 0.778708
vt 0.150593 0.778708
vt 0.150593 0.749795
vt 0.365515 0.760728
vt 0.301309 0.760728
vt 0.904411 0.166682
vt 0.933429 0.166676
vt 0.933377 0.186750
vt 0.904451 0.186748
vt 0.906468 0.356594
vt 0.872611 0.364193
vt 0.869161 0.344033
vt 0.904758 0.338797
vt 0.970895 0.166786
vt 0.970833 0.186935
vt 0.214800 0.732193
vt 0.150593 0.732193
vt 0.867033 0.186892
vt 0.866981 0.166768
vt 0.932657 0.338520
vt 0.969282 0.344164
vt 0.965545 0.365009
vt 0.931206 0.357062
vt 0.933478 0.000004
vt 0.970933 0.000012
vt 0.904417 0.000000
vt 0.901383 0.462861
vt 0.932592 0.463638
vt 0.999996 0.187223
vt 0.998444 0.344452
vt 1.000000 0.000019
vt 0.999963 0.166793
vt 0.995815 0.364591
vt 0.867518 0.461080
vt 0.866966 0.000000
vt 0.866966 0.615526
vt 0.857554 0.615526
vt 0.857554 0.000000
vt 0.866966 0.000000
vt 0.848142 0.615526
vt 0.848142 0.000000
vt 0.801081 0.615526
vt 0.791669 0.615526
vt 0.791669 0.000000
vt 0.801082 0.000000
vt 0.838730 0.615526
vt 0.838730 0.000000
vt 0.641076 0.629807
vt 0.631664 0.629807
vt 0.631664 0.000000
vt 0.641076 0.000000
vt 0.622252 0.629807
vt 0.622252 0.000000
vt 0.575192 0.629807
vt 0.565780 0.629807
vt 0.565780 0.000000
vt 0.575192 0.000000
vt 0.612840 0.629807
vt 0.612840 0.000000
vt 0.594016 0.000000
vt 0.594016 0.629807
vt 0.584604 0.629807
vt 0.584604 0.000000
vt 0.122357 -0.000000
vt 0.131769 -0.000000
vt 0.131769 0.761106
vt 0.122357 0.761106
vt 0.603428 0.000000
vt 0.603428 0.629807
vt 0.112945 0.761106
vt 0.112945 -0.000000
vt 0.141181 0.761106
vt 0.141181 -0.000000
vt 0.150593 -0.000000
vt 0.150593 0.761106
vt 0.819906 0.000000
vt 0.819906 0.615526
vt 0.810494 0.615526
vt 0.810494 0.000000
vt 0.047060 0.000000
vt 0.056472 -0.000000
vt 0.056473 0.761107
vt 0.047060 0.761107
vt 0.829318 0.000000
vt 0.829318 0.615526
vt 0.037648 0.761107
vt 0.037648 -0.000000
vt 0.065885 0.761107
vt 0.065885 0.000000
vt 0.075297 0.000000
vt 0.075297 0.761107
vt 0.000000 0.761107
vt 0.000000 0.000000
vt 0.009412 0.000000
vt 0.009412 0.761107
vt 0.018824 -0.000000
vt 0.018824 0.761107
vt 0.028236 0.000000
vt 0.028236 0.761107
vt 0.103533 0.761106
vt 0.103533 -0.000000
vt 0.075297 0.761106
vt 0.075297 -0.000000
vt 0.084709 -0.000000
vt 0.084709 0.761106
vt 0.094121 -0.000000
vt 0.094121 0.761106
vt 0.197594 -0.000000
vt 0.197594 0.732193
vt 0.150593 0.732193
vt 0.150593 -0.000000
vt 0.219791 -0.000000
vt 0.219791 0.732193
vt 0.288989 -0.000000
vt 0.288989 0.732193
vt 0.266791 0.732193
vt 0.266791 -0.000000
vt 0.900055 0.960635
vt 0.899580 0.994944
vt 0.869311 0.994525
vt 0.869786 0.960217
vt 0.449582 0.804465
vt 0.518689 0.804465
vt 0.518688 0.837237
vt 0.449582 0.837237
vt 0.449582 0.775552
vt 0.518688 0.775552
vt 0.565688 0.666866
vt 0.598460 0.666866
vt 0.598461 0.695780
vt 0.565689 0.695780
vt 0.449582 0.742780
vt 0.518688 0.742780
vt 0.449582 0.695780
vt 0.518688 0.695780
vt 0.449582 0.666866
vt 0.518688 0.666866
vt 0.335989 0.667698
vt 0.288989 0.667698
vt 0.288989 0.638784
vt 0.335989 0.638784
vt 0.518688 0.884237
vt 0.449582 0.884238
vt 0.427384 0.667698
vt 0.405187 0.667698
vt 0.405187 0.638784
vt 0.427384 0.638784
vt 0.358186 0.638784
vt 0.358186 -0.000000
vt 0.405187 -0.000000
vt 0.427384 0.742780
vt 0.445103 0.775552
vt 0.445103 0.804465
vt 0.427384 0.837237
vt 0.288989 -0.000000
vt 0.335989 -0.000000
vt 0.427384 -0.000000
vt 0.365515 0.853758
vt 0.301309 0.853758
vt 0.301309 0.836156
vt 0.375032 0.836156
vt 0.064206 0.790020
vt 0.000000 0.790020
vt 0.000000 0.761107
vt 0.064206 0.761107
vt 0.375032 0.807243
vt 0.301309 0.807243
vt 0.301309 0.789641
vt 0.365515 0.789641
vt 0.073723 0.836535
vt 0.000000 0.836535
vt 0.000000 0.807622
vt 0.073723 0.807622
vt 0.962551 0.664155
vt 0.962511 0.684220
vt 0.933585 0.684222
vt 0.933533 0.664148
vt 0.960490 0.854066
vt 0.962201 0.836269
vt 0.997797 0.841506
vt 0.994347 0.861666
vt 0.896129 0.684406
vt 0.896067 0.664257
vt 0.064206 0.854137
vt 0.000000 0.854137
vt 0.999981 0.664241
vt 0.999929 0.684366
vt 0.934301 0.835991
vt 0.935752 0.854534
vt 0.901413 0.862480
vt 0.897677 0.841635
vt 0.896034 0.497484
vt 0.933488 0.497476
vt 0.962549 0.497473
vt 0.965573 0.960333
vt 0.934363 0.961110
vt 0.868514 0.841922
vt 0.866966 0.684694
vt 0.867000 0.664263
vt 0.866966 0.497489
vt 0.871143 0.862062
vt 0.999438 0.958554
vt 1.000000 0.497473
vt 0.791670 0.000000
vt 0.791669 0.621640
vt 0.782257 0.621640
vt 0.782258 0.000000
vt 0.772845 0.000000
vt 0.772845 0.621640
vt 0.725785 0.000000
vt 0.725785 0.621640
vt 0.716373 0.621640
vt 0.716373 0.000000
vt 0.763433 0.000000
vt 0.763433 0.621640
vt 0.716373 0.000000
vt 0.716373 0.627807
vt 0.706961 0.627807
vt 0.706961 0.000000
vt 0.697549 0.000000
vt 0.697549 0.627807
vt 0.650488 0.000000
vt 0.650488 0.627807
vt 0.641076 0.627807
vt 0.688137 0.000000
vt 0.688137 0.627807
vt 0.669312 0.627807
vt 0.659900 0.627807
vt 0.659900 0.000000
vt 0.669312 0.000000
vt 0.678725 0.000000
vt 0.678725 0.627807
vt 0.744609 0.621640
vt 0.735197 0.621640
vt 0.735197 0.000000
vt 0.744609 0.000000
vt 0.754021 0.000000
vt 0.754021 0.621640
vt 0.380500 0.667698
vt 0.412556 0.667698
vt 0.412556 0.673166
vt 0.380500 0.673166
vt 0.412556 0.749531
vt 0.380500 0.749531
vt 0.412556 0.754999
vt 0.380500 0.754999
vt 0.812153 0.627807
vt 0.844208 0.627807
vt 0.844208 0.704172
vt 0.812153 0.704172
vt 0.375032 0.749531
vt 0.375032 0.673166
vt 0.418025 0.673166
vt 0.418025 0.749531
vt 0.630589 0.944143
vt 0.635470 0.942121
vt 0.635470 0.955576
vt 0.630589 0.953555
vt 0.607867 0.944142
vt 0.602986 0.942121
vt 0.612501 0.932607
vt 0.614522 0.937487
vt 0.607867 0.953554
vt 0.602986 0.955576
vt 0.623934 0.960210
vt 0.625956 0.965090
vt 0.614522 0.960210
vt 0.612500 0.965090
vt 0.623934 0.937487
vt 0.625956 0.932607
vt 0.720209 0.917734
vt 0.720209 0.927146
vt 0.715329 0.929168
vt 0.715329 0.915713
vt 0.742932 0.917734
vt 0.736277 0.911079
vt 0.738298 0.906199
vt 0.747812 0.915713
vt 0.747812 0.929168
vt 0.742932 0.927146
vt 0.726865 0.933802
vt 0.724843 0.938682
vt 0.738298 0.938682
vt 0.736277 0.933802
vt 0.726864 0.911079
vt 0.724843 0.906199
vt 0.276669 0.807490
vt 0.276669 0.798078
vt 0.282829 0.798078
vt 0.282829 0.807490
vt 0.276669 0.751017
vt 0.276669 0.741605
vt 0.282829 0.741605
vt 0.282829 0.751017
vt 0.295149 0.761883
vt 0.295149 0.775338
vt 0.288989 0.775338
vt 0.288989 0.761883
vt 0.295149 0.681153
vt 0.295149 0.694608
vt 0.288989 0.694608
vt 0.288989 0.681153
vt 0.276669 0.788666
vt 0.282829 0.788666
vt 0.288989 0.748428
vt 0.295149 0.748428
vt 0.276669 0.732193
vt 0.282829 0.732193
vt 0.295149 0.667698
vt 0.288989 0.667698
vt 0.276669 0.760429
vt 0.282829 0.760429
vt 0.282829 0.769841
vt 0.276669 0.769841
vt 0.295149 0.721518
vt 0.288989 0.721518
vt 0.288989 0.708063
vt 0.295149 0.708063
vt 0.276669 0.779253
vt 0.282829 0.779253
vt 0.288989 0.734973
vt 0.295149 0.734973
vt 0.053305 0.943532
vt 0.046650 0.950187
vt 0.041769 0.948166
vt 0.051284 0.938652
vt 0.069372 0.959600
vt 0.069372 0.950188
vt 0.074253 0.948166
vt 0.074253 0.961621
vt 0.064738 0.971135
vt 0.062717 0.966255
vt 0.046649 0.959599
vt 0.041769 0.961621
vt 0.051283 0.971135
vt 0.053305 0.966255
vt 0.062717 0.943532
vt 0.064739 0.938652
vt 0.251920 0.945595
vt 0.256800 0.943574
vt 0.256800 0.957029
vt 0.251920 0.955007
vt 0.229197 0.945595
vt 0.224317 0.943574
vt 0.233831 0.934060
vt 0.235852 0.938940
vt 0.229197 0.955007
vt 0.224317 0.957029
vt 0.245264 0.961663
vt 0.247286 0.966543
vt 0.235852 0.961663
vt 0.233831 0.966543
vt 0.245264 0.938940
vt 0.247286 0.934060
vt 0.609020 0.812745
vt 0.602860 0.812745
vt 0.602860 0.803333
vt 0.609020 0.803333
vt 0.609020 0.756272
vt 0.602860 0.756272
vt 0.602860 0.746860
vt 0.609020 0.746860
vt 0.634916 0.723993
vt 0.641076 0.723993
vt 0.641076 0.737448
vt 0.634916 0.737448
vt 0.634916 0.643263
vt 0.641076 0.643262
vt 0.641076 0.656718
vt 0.634916 0.656718
vt 0.609020 0.793921
vt 0.602860 0.793921
vt 0.634916 0.710538
vt 0.641076 0.710538
vt 0.602860 0.737448
vt 0.609020 0.737448
vt 0.634916 0.629807
vt 0.641076 0.629807
vt 0.609020 0.765684
vt 0.609020 0.775096
vt 0.602860 0.775096
vt 0.602860 0.765684
vt 0.634916 0.683628
vt 0.634916 0.670173
vt 0.641076 0.670173
vt 0.641076 0.683628
vt 0.609020 0.784509
vt 0.602860 0.784509
vt 0.634916 0.697083
vt 0.641076 0.697083
vt 0.412556 0.842300
vt 0.380500 0.842300
vt 0.380500 0.836832
vt 0.412556 0.836832
vt 0.380500 0.760467
vt 0.412556 0.760467
vt 0.380500 0.754999
vt 0.412556 0.754999
vt 0.609020 0.737448
vt 0.641076 0.737448
vt 0.641076 0.813813
vt 0.609020 0.813813
vt 0.418024 0.760467
vt 0.418024 0.836832
vt 0.375032 0.836832
vt 0.375032 0.760467
vt 0.703793 0.943563
vt 0.705815 0.938682
vt 0.715329 0.948196
vt 0.710449 0.950218
vt 0.687726 0.959630
vt 0.682846 0.961652
vt 0.682846 0.948196
vt 0.687726 0.950218
vt 0.694381 0.966285
vt 0.692360 0.971166
vt 0.710449 0.959630
vt 0.715329 0.961652
vt 0.703793 0.966285
vt 0.705815 0.971166
vt 0.694381 0.943563
vt 0.692360 0.938682
vt 0.458714 0.952988
vt 0.465369 0.959644
vt 0.463348 0.964524
vt 0.453834 0.955010
vt 0.474782 0.936921
vt 0.465370 0.936921
vt 0.463348 0.932040
vt 0.476803 0.932040
vt 0.486317 0.941555
vt 0.481437 0.943576
vt 0.474782 0.959644
vt 0.476803 0.964524
vt 0.486317 0.955010
vt 0.481437 0.952988
vt 0.458714 0.943576
vt 0.453834 0.941554
vt 0.421224 0.742994
vt 0.421224 0.733582
vt 0.427384 0.733582
vt 0.427384 0.742994
vt 0.421224 0.686522
vt 0.421224 0.677110
vt 0.427384 0.677110
vt 0.427384 0.686522
vt 0.634916 0.723993
vt 0.634916 0.737448
vt 0.628756 0.737448
vt 0.628756 0.723993
vt 0.634916 0.643262
vt 0.634916 0.656718
vt 0.628756 0.656718
vt 0.628756 0.643263
vt 0.421224 0.724170
vt 0.427384 0.724170
vt 0.628756 0.710538
vt 0.634916 0.710538
vt 0.421224 0.667698
vt 0.427384 0.667698
vt 0.634916 0.629807
vt 0.628756 0.629807
vt 0.421224 0.695934
vt 0.427384 0.695934
vt 0.427384 0.705346
vt 0.421224 0.705346
vt 0.634916 0.683628
vt 0.628756 0.683628
vt 0.628756 0.670173
vt 0.634916 0.670173
vt 0.421224 0.714758
vt 0.427384 0.714758
vt 0.628756 0.697083
vt 0.634916 0.697083
vt 0.505792 0.952988
vt 0.512447 0.959644
vt 0.510426 0.964524
vt 0.500912 0.955010
vt 0.521860 0.936921
vt 0.512448 0.936921
vt 0.510426 0.932040
vt 0.523881 0.932040
vt 0.533395 0.941555
vt 0.528515 0.943576
vt 0.521860 0.959644
vt 0.523881 0.964524
vt 0.533395 0.955010
vt 0.528515 0.952988
vt 0.505792 0.943576
vt 0.500912 0.941554
vt 0.062717 0.911049
vt 0.064739 0.906168
vt 0.074253 0.915683
vt 0.069372 0.917704
vt 0.046650 0.927116
vt 0.041769 0.929137
vt 0.041769 0.915682
vt 0.046650 0.917704
vt 0.053305 0.933771
vt 0.051284 0.938651
vt 0.069372 0.927116
vt 0.074253 0.929138
vt 0.062717 0.933771
vt 0.064738 0.938652
vt 0.053305 0.911048
vt 0.051284 0.906168
vt 0.850368 0.703104
vt 0.844208 0.703104
vt 0.844208 0.693692
vt 0.850368 0.693692
vt 0.850368 0.646632
vt 0.844208 0.646632
vt 0.844208 0.637219
vt 0.850368 0.637219
vt 0.622596 0.723993
vt 0.628756 0.723993
vt 0.628756 0.737448
vt 0.622596 0.737448
vt 0.622596 0.643262
vt 0.628756 0.643262
vt 0.628756 0.656718
vt 0.622596 0.656718
vt 0.850368 0.684280
vt 0.844208 0.684280
vt 0.622596 0.710538
vt 0.628756 0.710538
vt 0.850368 0.627807
vt 0.622596 0.629807
vt 0.628756 0.629807
vt 0.850368 0.656044
vt 0.850368 0.665456
vt 0.844208 0.665456
vt 0.844208 0.656044
vt 0.622596 0.683628
vt 0.622596 0.670173
vt 0.628756 0.670173
vt 0.628756 0.683628
vt 0.850368 0.674868
vt 0.844208 0.674868
vt 0.622596 0.697083
vt 0.628756 0.697083
vt 0.261841 0.732193
vt 0.261841 0.737661
vt 0.229785 0.737661
vt 0.229785 0.732193
vt 0.261841 0.814026
vt 0.229785 0.814026
vt 0.261841 0.819494
vt 0.229785 0.819494
vt 0.812153 0.780537
vt 0.812153 0.704172
vt 0.844208 0.704172
vt 0.844208 0.780537
vt 0.267309 0.737661
vt 0.267309 0.814026
vt 0.224317 0.814026
vt 0.224317 0.737661
vt 0.687726 0.917734
vt 0.687726 0.927146
vt 0.682846 0.929168
vt 0.682845 0.915713
vt 0.710449 0.917734
vt 0.703793 0.911079
vt 0.705815 0.906199
vt 0.715329 0.929168
vt 0.710449 0.927146
vt 0.694381 0.933802
vt 0.692360 0.938682
vt 0.705815 0.938682
vt 0.703793 0.933802
vt 0.694381 0.911079
vt 0.692360 0.906199
vt 0.293689 0.945595
vt 0.298569 0.943574
vt 0.298569 0.957029
vt 0.293689 0.955007
vt 0.270966 0.945595
vt 0.266086 0.943574
vt 0.275600 0.934060
vt 0.277622 0.938940
vt 0.270966 0.955007
vt 0.266086 0.957029
vt 0.287034 0.961663
vt 0.289055 0.966543
vt 0.277621 0.961663
vt 0.275600 0.966543
vt 0.287034 0.938940
vt 0.289055 0.934060
vt 0.850368 0.779469
vt 0.844208 0.779469
vt 0.844208 0.770057
vt 0.850368 0.770057
vt 0.850368 0.722997
vt 0.844208 0.722997
vt 0.844208 0.713584
vt 0.850368 0.713584
vt 0.301309 0.761883
vt 0.301309 0.775338
vt 0.301309 0.681153
vt 0.301309 0.694608
vt 0.850368 0.760645
vt 0.844208 0.760645
vt 0.301309 0.748428
vt 0.844208 0.704172
vt 0.850368 0.704172
vt 0.301309 0.667698
vt 0.850368 0.732409
vt 0.850368 0.741821
vt 0.844208 0.741821
vt 0.844208 0.732409
vt 0.301309 0.708063
vt 0.301309 0.721518
vt 0.850368 0.751233
vt 0.844208 0.751233
vt 0.301309 0.734973
vt 0.448953 0.947805
vt 0.453834 0.945783
vt 0.453834 0.959238
vt 0.448953 0.957217
vt 0.426231 0.947805
vt 0.421350 0.945783
vt 0.430864 0.936269
vt 0.432886 0.941149
vt 0.426231 0.957217
vt 0.421350 0.959238
vt 0.442298 0.963872
vt 0.444319 0.968752
vt 0.432886 0.963872
vt 0.430864 0.968752
vt 0.442298 0.941149
vt 0.444320 0.936269
vt 0.720209 0.959630
vt 0.726865 0.966285
vt 0.724843 0.971166
vt 0.715329 0.961651
vt 0.736277 0.943563
vt 0.726865 0.943562
vt 0.724843 0.938682
vt 0.738298 0.938682
vt 0.747812 0.948196
vt 0.742932 0.950218
vt 0.736277 0.966285
vt 0.738298 0.971166
vt 0.747813 0.961652
vt 0.742932 0.959630
vt 0.720209 0.950218
vt 0.715329 0.948196
vt 0.421224 0.818291
vt 0.421224 0.808879
vt 0.427384 0.808879
vt 0.427384 0.818291
vt 0.421224 0.761819
vt 0.421224 0.752406
vt 0.427384 0.752406
vt 0.427384 0.761819
vt 0.616436 0.723993
vt 0.616436 0.737448
vt 0.610276 0.737448
vt 0.610276 0.723993
vt 0.616436 0.643262
vt 0.616436 0.656718
vt 0.610276 0.656718
vt 0.610276 0.643262
vt 0.421224 0.799467
vt 0.427384 0.799467
vt 0.610276 0.710538
vt 0.616436 0.710538
vt 0.616436 0.629807
vt 0.610276 0.629807
vt 0.421224 0.771231
vt 0.427384 0.771231
vt 0.427384 0.780643
vt 0.421224 0.780643
vt 0.616436 0.683628
vt 0.610276 0.683628
vt 0.610276 0.670173
vt 0.616436 0.670173
vt 0.421224 0.790055
vt 0.427384 0.790055
vt 0.610276 0.697083
vt 0.616436 0.697083
vt 0.145125 0.761106
vt 0.145125 0.766575
vt 0.113069 0.766575
vt 0.113069 0.761106
vt 0.145125 0.842940
vt 0.113069 0.842940
vt 0.145125 0.848408
vt 0.113069 0.848408
vt 0.075545 0.837471
vt 0.075545 0.761106
vt 0.107601 0.761106
vt 0.107601 0.837471
vt 0.150593 0.766575
vt 0.150593 0.842940
vt 0.107601 0.842940
vt 0.107601 0.766575
vt 0.181923 0.960736
vt 0.188579 0.967392
vt 0.186557 0.972272
vt 0.177043 0.962758
vt 0.197991 0.944669
vt 0.188579 0.944669
vt 0.186557 0.939788
vt 0.200012 0.939788
vt 0.209526 0.949303
vt 0.204646 0.951324
vt 0.197991 0.967392
vt 0.200012 0.972272
vt 0.209526 0.962758
vt 0.204646 0.960736
vt 0.181923 0.951324
vt 0.177043 0.949303
vt 0.662024 0.911079
vt 0.664046 0.906199
vt 0.673560 0.915713
vt 0.668679 0.917735
vt 0.645956 0.927147
vt 0.641076 0.929168
vt 0.641076 0.915713
vt 0.645956 0.917735
vt 0.652612 0.933802
vt 0.650590 0.938682
vt 0.668679 0.927147
vt 0.673560 0.929168
vt 0.662024 0.933802
vt 0.664045 0.938682
vt 0.652612 0.911079
vt 0.650591 0.906199
vt 0.288989 0.807490
vt 0.282829 0.807490
vt 0.282829 0.798078
vt 0.288989 0.798078
vt 0.288989 0.751017
vt 0.282829 0.751017
vt 0.282829 0.741605
vt 0.288989 0.741605
vt 0.616436 0.723993
vt 0.622596 0.723993
vt 0.622596 0.737448
vt 0.616436 0.737448
vt 0.616436 0.643263
vt 0.622596 0.643263
vt 0.622596 0.656718
vt 0.616436 0.656718
vt 0.288989 0.788666
vt 0.282829 0.788666
vt 0.616436 0.710538
vt 0.622596 0.710538
vt 0.282829 0.732193
vt 0.616436 0.629807
vt 0.622596 0.629807
vt 0.288989 0.760429
vt 0.288989 0.769841
vt 0.282829 0.769841
vt 0.282829 0.760429
vt 0.616436 0.683628
vt 0.616436 0.670173
vt 0.622596 0.683628
vt 0.288989 0.779253
vt 0.282829 0.779253
vt 0.616436 0.697083
vt 0.622596 0.697083
vt 0.662024 0.943563
vt 0.664046 0.938682
vt 0.673560 0.948197
vt 0.668679 0.950218
vt 0.645957 0.959630
vt 0.641076 0.961652
vt 0.641076 0.948197
vt 0.645957 0.950218
vt 0.652612 0.966286
vt 0.650591 0.971166
vt 0.668679 0.959630
vt 0.673560 0.961652
vt 0.662024 0.966286
vt 0.664046 0.971166
vt 0.652612 0.943563
vt 0.650590 0.938682
vt 0.557564 0.952988
vt 0.564219 0.959644
vt 0.562198 0.964524
vt 0.552684 0.955010
vt 0.573632 0.936921
vt 0.564220 0.936921
vt 0.562198 0.932041
vt 0.575653 0.932041
vt 0.585167 0.941555
vt 0.580287 0.943576
vt 0.573631 0.959644
vt 0.575653 0.964524
vt 0.585167 0.955010
vt 0.580287 0.952988
vt 0.557564 0.943576
vt 0.552684 0.941555
vt 0.270509 0.807490
vt 0.270508 0.798078
vt 0.276669 0.798078
vt 0.276669 0.807490
vt 0.270508 0.751017
vt 0.270509 0.741605
vt 0.276669 0.751017
vt 0.610276 0.723993
vt 0.610276 0.737448
vt 0.604116 0.737448
vt 0.604116 0.723993
vt 0.610276 0.643262
vt 0.610276 0.656718
vt 0.604116 0.656718
vt 0.604116 0.643262
vt 0.270508 0.788666
vt 0.276669 0.788666
vt 0.604116 0.710538
vt 0.610276 0.710538
vt 0.270509 0.732193
vt 0.276669 0.732193
vt 0.610276 0.629807
vt 0.604116 0.629807
vt 0.270508 0.760429
vt 0.276669 0.760429
vt 0.276668 0.769841
vt 0.270508 0.769841
vt 0.610276 0.683628
vt 0.604116 0.683628
vt 0.604116 0.670173
vt 0.610276 0.670173
vt 0.270508 0.779253
vt 0.276669 0.779253
vt 0.604116 0.697083
vt 0.610276 0.697083
vt 0.339667 0.858658
vt 0.349112 0.858658
vt 0.349112 0.905261
vt 0.339667 0.905261
vt 0.679434 0.857276
vt 0.688879 0.857276
vt 0.688879 0.906199
vt 0.679434 0.906199
vt 0.097591 0.851502
vt 0.101995 0.851888
vt 0.101995 0.898491
vt 0.097591 0.898491
vt 0.737698 0.857634
vt 0.741779 0.857276
vt 0.741779 0.906199
vt 0.737698 0.906199
vt 0.857492 0.923104
vt 0.866937 0.923104
vt 0.866937 0.927441
vt 0.857492 0.927441
vt 0.276524 0.924615
vt 0.276524 0.934060
vt 0.272120 0.934060
vt 0.272120 0.924615
vt 0.276524 0.886256
vt 0.276524 0.895701
vt 0.272120 0.895701
vt 0.272120 0.886257
vt 0.141149 0.924212
vt 0.150593 0.924212
vt 0.150593 0.928549
vt 0.141149 0.928549
vt 0.031951 0.910326
vt 0.031354 0.905853
vt 0.033794 0.906067
vt 0.034988 0.910593
vt 0.641076 0.857276
vt 0.650521 0.857276
vt 0.650521 0.906199
vt 0.641076 0.906199
vt 0.301309 0.858658
vt 0.310754 0.858658
vt 0.310754 0.905261
vt 0.301309 0.905261
vt 0.565780 0.633904
vt 0.565780 0.629807
vt 0.594693 0.629807
vt 0.594693 0.633904
vt 0.301309 0.856208
vt 0.310754 0.856208
vt 0.756826 0.910886
vt 0.753789 0.911152
vt 0.754983 0.906627
vt 0.757423 0.906413
vt 0.641076 0.851228
vt 0.650521 0.851228
vt 0.737698 0.852141
vt 0.741779 0.851228
vt 0.097591 0.848453
vt 0.101995 0.849438
vt 0.679434 0.851228
vt 0.688879 0.851228
vt 0.339667 0.856208
vt 0.349112 0.856208
vt 0.075545 0.843520
vt 0.079626 0.844433
vt 0.079626 0.849927
vt 0.075545 0.849569
vt 0.719733 0.856161
vt 0.719733 0.859209
vt 0.753838 0.933278
vt 0.747812 0.933806
vt 0.748919 0.929613
vt 0.754391 0.929133
vt 0.594693 0.639397
vt 0.565780 0.639397
vt 0.034939 0.932719
vt 0.034386 0.928574
vt 0.039858 0.929053
vt 0.040965 0.933247
vt 0.141149 0.905119
vt 0.150593 0.905119
vt 0.298569 0.895701
vt 0.298569 0.924615
vt 0.294488 0.924615
vt 0.294488 0.895701
vt 0.298569 0.886256
vt 0.294488 0.886256
vt 0.298569 0.934060
vt 0.294488 0.934060
vt 0.857492 0.904011
vt 0.866937 0.904011
vt 0.719733 0.906199
vt 0.079626 0.898491
vt 0.075546 0.898491
vt 0.715329 0.859596
vt 0.715329 0.906199
vt 0.857492 0.899331
vt 0.866937 0.899331
vt 0.141149 0.900439
vt 0.150593 0.900439
vt 0.565780 0.665276
vt 0.565780 0.660855
vt 0.594693 0.660855
vt 0.594693 0.665276
vt 0.715329 0.857146
vt 0.594693 0.657807
vt 0.565780 0.657807
vt 0.079626 0.838940
vt 0.097591 0.845404
vt 0.028914 0.932190
vt 0.028914 0.928094
vt 0.075545 0.837471
vt 0.679434 0.845179
vt 0.688879 0.845179
vt 0.101995 0.846988
vt 0.301309 0.853758
vt 0.310754 0.853758
vt 0.028914 0.910060
vt 0.028914 0.905639
vt 0.715329 0.854696
vt 0.719733 0.853112
vt 0.759863 0.932750
vt 0.759864 0.928653
vt 0.737698 0.846648
vt 0.339667 0.853758
vt 0.349112 0.853758
vt 0.741779 0.845179
vt 0.641076 0.845179
vt 0.650521 0.845179
vt 0.759863 0.910619
vt 0.759864 0.906199
vt 0.229216 0.895701
vt 0.229216 0.886256
vt 0.261494 0.886256
vt 0.261494 0.895701
vt 0.141149 0.860505
vt 0.150593 0.860505
vt 0.150593 0.900439
vt 0.141148 0.900439
vt 0.631066 0.899943
vt 0.635470 0.900329
vt 0.635470 0.932607
vt 0.631066 0.932607
vt 0.772309 0.884755
vt 0.768228 0.885113
vt 0.768228 0.845179
vt 0.772309 0.845179
vt 0.838602 0.925505
vt 0.848047 0.925505
vt 0.848047 0.929842
vt 0.838602 0.929842
vt 0.181447 0.930344
vt 0.181447 0.939788
vt 0.177043 0.939788
vt 0.177043 0.930344
vt 0.181447 0.891985
vt 0.181447 0.901430
vt 0.177043 0.901430
vt 0.177043 0.891985
vt 0.609020 0.850266
vt 0.599575 0.850266
vt 0.599575 0.845929
vt 0.609020 0.845929
vt 0.214491 0.895290
vt 0.215054 0.890813
vt 0.217359 0.891642
vt 0.217360 0.896322
vt 0.102790 0.860505
vt 0.112235 0.860505
vt 0.112235 0.900439
vt 0.102790 0.900439
vt 0.229216 0.934060
vt 0.229216 0.924615
vt 0.261494 0.924615
vt 0.261494 0.934060
vt 0.330222 0.909357
vt 0.330222 0.905261
vt 0.359136 0.905261
vt 0.359136 0.909357
vt 0.226766 0.934060
vt 0.226766 0.924615
vt 0.808660 0.850486
vt 0.805792 0.851518
vt 0.805792 0.846838
vt 0.808097 0.846009
vt 0.102790 0.854456
vt 0.112235 0.854456
vt 0.772309 0.890249
vt 0.768228 0.891162
vt 0.631066 0.896894
vt 0.635470 0.897879
vt 0.141148 0.854456
vt 0.150593 0.854456
vt 0.226766 0.895701
vt 0.226766 0.886256
vt 0.609020 0.886624
vt 0.613101 0.887537
vt 0.613101 0.893031
vt 0.609020 0.892673
vt 0.790274 0.880892
vt 0.790274 0.877843
vt 0.806461 0.874707
vt 0.800769 0.876755
vt 0.800770 0.872418
vt 0.805938 0.870558
vt 0.359136 0.914851
vt 0.330222 0.914851
vt 0.216691 0.919511
vt 0.217213 0.915362
vt 0.222382 0.917221
vt 0.222382 0.921558
vt 0.609020 0.871761
vt 0.599575 0.871761
vt 0.203492 0.901430
vt 0.203492 0.930344
vt 0.199412 0.930344
vt 0.199412 0.901430
vt 0.203492 0.891985
vt 0.199412 0.891985
vt 0.203492 0.939788
vt 0.199412 0.939788
vt 0.838602 0.904011
vt 0.848047 0.904011
vt 0.790274 0.845179
vt 0.613101 0.932607
vt 0.609020 0.932607
vt 0.794678 0.877457
vt 0.794678 0.845179
vt 0.838602 0.899331
vt 0.848047 0.899331
vt 0.609020 0.876441
vt 0.599575 0.876441
vt 0.330222 0.942576
vt 0.330222 0.938155
vt 0.359136 0.938155
vt 0.359136 0.942576
vt 0.794678 0.879907
vt 0.359136 0.935106
vt 0.330222 0.935106
vt 0.613101 0.882044
vt 0.631066 0.893845
vt 0.210999 0.917463
vt 0.212044 0.913502
vt 0.609020 0.880575
vt 0.141149 0.848408
vt 0.150593 0.848408
vt 0.635470 0.895429
vt 0.224317 0.934060
vt 0.224317 0.924615
vt 0.211622 0.894258
vt 0.212749 0.889983
vt 0.794678 0.882357
vt 0.790274 0.883941
vt 0.812152 0.872659
vt 0.811107 0.868698
vt 0.772309 0.895742
vt 0.224317 0.895701
vt 0.224317 0.886256
vt 0.768228 0.897211
vt 0.102790 0.848408
vt 0.112235 0.848408
vt 0.811529 0.849454
vt 0.810402 0.845179
vt 0.458733 0.893682
vt 0.458733 0.884237
vt 0.500912 0.884237
vt 0.500912 0.893682
vt 0.262675 0.831592
vt 0.272120 0.831592
vt 0.272120 0.886256
vt 0.262675 0.886256
vt 0.631066 0.835958
vt 0.635470 0.838397
vt 0.635470 0.880575
vt 0.631066 0.880575
vt 0.172962 0.837678
vt 0.177043 0.837320
vt 0.177043 0.891985
vt 0.172962 0.891985
vt 0.212937 0.854071
vt 0.222382 0.854071
vt 0.222382 0.858408
vt 0.212937 0.858408
vt 0.772632 0.935569
vt 0.772632 0.945014
vt 0.768228 0.945014
vt 0.768228 0.935569
vt 0.772632 0.897211
vt 0.772632 0.906655
vt 0.768228 0.906655
vt 0.203492 0.854071
vt 0.212937 0.854071
vt 0.212937 0.858408
vt 0.203493 0.858408
vt 0.858826 0.634685
vt 0.859242 0.629351
vt 0.861144 0.630895
vt 0.861193 0.636606
vt 0.224317 0.831592
vt 0.233761 0.831592
vt 0.233761 0.886256
vt 0.224317 0.886256
vt 0.458733 0.932041
vt 0.458733 0.922596
vt 0.500912 0.922596
vt 0.500912 0.932041
vt 0.375032 0.907416
vt 0.375032 0.903320
vt 0.403946 0.903320
vt 0.403946 0.907416
vt 0.456283 0.932041
vt 0.456283 0.922596
vt 0.852736 0.711050
vt 0.850368 0.712971
vt 0.850417 0.707260
vt 0.852319 0.705716
vt 0.224317 0.825543
vt 0.233761 0.825543
vt 0.172962 0.832185
vt 0.177043 0.831272
vt 0.631066 0.832909
vt 0.635470 0.835947
vt 0.262675 0.825543
vt 0.272120 0.825543
vt 0.456283 0.893682
vt 0.456283 0.884237
vt 0.609020 0.819862
vt 0.613101 0.820775
vt 0.613101 0.826268
vt 0.609020 0.825910
vt 0.154997 0.844320
vt 0.154997 0.847369
vt 0.856497 0.736390
vt 0.851800 0.740201
vt 0.850368 0.736107
vt 0.854634 0.732646
vt 0.403946 0.912910
vt 0.375032 0.912910
vt 0.855065 0.660025
vt 0.856928 0.656281
vt 0.861193 0.659742
vt 0.859762 0.663836
vt 0.203493 0.830934
vt 0.212937 0.830934
vt 0.794678 0.906655
vt 0.794678 0.935569
vt 0.790597 0.935569
vt 0.790597 0.906655
vt 0.794678 0.897211
vt 0.790597 0.897211
vt 0.794678 0.945014
vt 0.790597 0.945014
vt 0.212937 0.830935
vt 0.222382 0.830935
vt 0.154997 0.891985
vt 0.613101 0.880575
vt 0.609020 0.880575
vt 0.150593 0.849807
vt 0.150593 0.891985
vt 0.212937 0.825223
vt 0.222382 0.825223
vt 0.203493 0.825223
vt 0.212937 0.825223
vt 0.375032 0.942671
vt 0.375032 0.937638
vt 0.403946 0.937638
vt 0.403946 0.942671
vt 0.150593 0.847357
vt 0.403946 0.934589
vt 0.375032 0.934589
vt 0.613101 0.815281
vt 0.631066 0.829861
vt 0.850368 0.656213
vt 0.852662 0.652819
vt 0.609020 0.813813
vt 0.262675 0.819494
vt 0.272120 0.819494
vt 0.635470 0.833497
vt 0.453834 0.932041
vt 0.453834 0.922596
vt 0.856458 0.632763
vt 0.857340 0.627807
vt 0.150593 0.844907
vt 0.154997 0.841271
vt 0.861193 0.732578
vt 0.858899 0.729184
vt 0.172962 0.826692
vt 0.453834 0.893682
vt 0.453834 0.884237
vt 0.177043 0.825223
vt 0.224317 0.819494
vt 0.233761 0.819494
vt 0.855103 0.709128
vt 0.854221 0.704173
vt 0.009445 0.859036
vt 0.009445 0.905639
vt -0.000000 0.905639
vt -0.000000 0.859036
vt 0.413390 0.891222
vt 0.413390 0.842300
vt 0.422835 0.842300
vt 0.422835 0.891222
vt 0.746182 0.859209
vt 0.746182 0.906199
vt 0.741779 0.906199
vt 0.741779 0.859596
vt 0.711248 0.893744
vt 0.711248 0.845179
vt 0.715329 0.845179
vt 0.715329 0.894101
vt 0.413391 0.927092
vt 0.413391 0.931429
vt 0.403946 0.931429
vt 0.403946 0.927092
vt 0.079949 0.907936
vt 0.075545 0.907936
vt 0.075545 0.898491
vt 0.079949 0.898491
vt 0.079949 0.946294
vt 0.075545 0.946294
vt 0.075545 0.936849
vt 0.079949 0.936849
vt 0.371309 0.924531
vt 0.371309 0.928868
vt 0.361864 0.928868
vt 0.361865 0.924531
vt 0.809115 0.913017
vt 0.806078 0.913283
vt 0.807271 0.908758
vt 0.809712 0.908544
vt 0.375032 0.891222
vt 0.375032 0.842300
vt 0.384477 0.842300
vt 0.384477 0.891222
vt 0.047803 0.859036
vt 0.047803 0.905639
vt 0.038358 0.905639
vt 0.038358 0.859036
vt 0.028913 0.909736
vt 0.000000 0.909736
vt 0.000000 0.905639
vt 0.028913 0.905639
vt 0.047803 0.856586
vt 0.038358 0.856586
vt 0.416428 0.908007
vt 0.415831 0.903534
vt 0.418272 0.903748
vt 0.419465 0.908273
vt 0.375032 0.897271
vt 0.384477 0.897271
vt 0.711248 0.899237
vt 0.715329 0.900150
vt 0.746182 0.856161
vt 0.741779 0.857146
vt 0.413390 0.897271
vt 0.422835 0.897271
vt 0.009445 0.856586
vt -0.000000 0.856586
vt 0.768228 0.851228
vt 0.768228 0.857276
vt 0.764147 0.857634
vt 0.764147 0.852141
vt 0.693283 0.895217
vt 0.693283 0.892168
vt 0.419416 0.930399
vt 0.418863 0.926254
vt 0.424335 0.926734
vt 0.425441 0.930928
vt 0.000000 0.915229
vt 0.028913 0.915229
vt 0.806127 0.935409
vt 0.800101 0.935938
vt 0.801207 0.931744
vt 0.806680 0.931264
vt 0.371309 0.905439
vt 0.361864 0.905439
vt 0.101995 0.936849
vt 0.097914 0.936849
vt 0.097914 0.907936
vt 0.101995 0.907936
vt 0.101995 0.946294
vt 0.097914 0.946294
vt 0.097914 0.898491
vt 0.101995 0.898491
vt 0.413391 0.908000
vt 0.403946 0.908000
vt 0.693283 0.845179
vt 0.768228 0.906199
vt 0.764147 0.906199
vt 0.688879 0.891782
vt 0.688879 0.845179
vt 0.413391 0.903320
vt 0.403946 0.903320
vt 0.371309 0.900759
vt 0.361864 0.900759
vt 0.028913 0.941108
vt 0.000000 0.941108
vt 0.000000 0.936687
vt 0.028913 0.936687
vt 0.688879 0.894232
vt 0.028913 0.933638
vt 0.000000 0.933638
vt 0.764147 0.846648
vt 0.746182 0.853112
vt 0.812152 0.934881
vt 0.812152 0.930784
vt 0.413390 0.903320
vt 0.422835 0.903320
vt 0.741779 0.854696
vt 0.047803 0.854137
vt 0.038358 0.854137
vt 0.812152 0.912751
vt 0.812152 0.908330
vt 0.688879 0.896682
vt 0.693283 0.898266
vt 0.413390 0.929871
vt 0.413390 0.925774
vt 0.711248 0.904730
vt 0.009445 0.854137
vt -0.000000 0.854137
vt 0.715329 0.906199
vt 0.375032 0.903320
vt 0.384477 0.903320
vt 0.413391 0.907740
vt 0.413391 0.903320
vt 0.580268 0.893682
vt 0.547990 0.893682
vt 0.547990 0.884238
vt 0.580268 0.884238
vt 0.850511 0.887234
vt 0.850511 0.847300
vt 0.859956 0.847300
vt 0.859955 0.887234
vt 0.449430 0.916901
vt 0.449430 0.884237
vt 0.453834 0.884237
vt 0.453834 0.916515
vt 0.051884 0.866592
vt 0.051884 0.906168
vt 0.047803 0.906168
vt 0.047803 0.866234
vt 0.857492 0.925505
vt 0.857492 0.929842
vt 0.848047 0.929842
vt 0.848047 0.925505
vt 0.154997 0.901430
vt 0.150593 0.901430
vt 0.150593 0.891985
vt 0.154997 0.891985
vt 0.154997 0.939788
vt 0.150593 0.939788
vt 0.150593 0.930344
vt 0.154997 0.930344
vt 0.270939 0.912431
vt 0.270939 0.916768
vt 0.261494 0.916768
vt 0.261494 0.912431
vt 0.218890 0.863715
vt 0.216021 0.864747
vt 0.216021 0.860067
vt 0.218326 0.859237
vt 0.812152 0.887234
vt 0.812152 0.847300
vt 0.821597 0.847300
vt 0.821597 0.887234
vt 0.580268 0.932041
vt 0.547990 0.932041
vt 0.547990 0.922596
vt 0.580268 0.922596
vt 0.301309 0.938479
vt 0.330222 0.938479
vt 0.330222 0.942576
vt 0.301309 0.942576
vt 0.582717 0.932041
vt 0.582717 0.922596
vt 0.804261 0.882061
vt 0.804825 0.877584
vt 0.807130 0.878413
vt 0.807130 0.883094
vt 0.812152 0.893282
vt 0.821597 0.893282
vt 0.051884 0.861099
vt 0.047803 0.860186
vt 0.449430 0.919950
vt 0.453834 0.918965
vt 0.850511 0.893282
vt 0.859955 0.893282
vt 0.582717 0.893682
vt 0.582717 0.884238
vt 0.427384 0.930220
vt 0.427384 0.924171
vt 0.431465 0.923814
vt 0.431465 0.929307
vt 0.069849 0.870455
vt 0.069849 0.873504
vt 0.806461 0.906282
vt 0.806983 0.902133
vt 0.812152 0.903993
vt 0.812152 0.908330
vt 0.330222 0.932986
vt 0.301309 0.932986
vt 0.216691 0.887935
vt 0.210999 0.889983
vt 0.210999 0.885646
vt 0.216168 0.883786
vt 0.270939 0.890937
vt 0.261494 0.890937
vt 0.177043 0.930344
vt 0.172962 0.930344
vt 0.172962 0.901430
vt 0.177043 0.901430
vt 0.172962 0.939788
vt 0.172962 0.891985
vt 0.177043 0.891985
vt 0.857492 0.904011
vt 0.848047 0.904011
vt 0.069849 0.906168
vt 0.427384 0.884237
vt 0.431465 0.884237
vt 0.074253 0.873891
vt 0.074253 0.906168
vt 0.857492 0.899331
vt 0.848047 0.899331
vt 0.270939 0.886256
vt 0.301309 0.905261
vt 0.330222 0.905261
vt 0.330222 0.909681
vt 0.301309 0.909681
vt 0.074253 0.871441
vt 0.301309 0.912730
vt 0.330222 0.912730
vt 0.431465 0.934800
vt 0.449430 0.922999
vt 0.222382 0.885888
vt 0.221337 0.881927
vt 0.427384 0.936269
vt 0.850511 0.899331
vt 0.859955 0.899331
vt 0.453834 0.921415
vt 0.585167 0.932041
vt 0.585167 0.922596
vt 0.221759 0.862682
vt 0.220631 0.858408
vt 0.074253 0.868991
vt 0.069849 0.867406
vt 0.800769 0.904234
vt 0.801814 0.900273
vt 0.051884 0.855605
vt 0.585167 0.893682
vt 0.585167 0.884238
vt 0.047803 0.854137
vt 0.812152 0.899331
vt 0.821597 0.899331
vt 0.801392 0.881029
vt 0.802520 0.876755
vt 0.505811 0.922596
vt 0.547990 0.922596
vt 0.547990 0.932041
vt 0.505811 0.932041
vt 0.850511 0.835202
vt 0.850511 0.780537
vt 0.859955 0.780537
vt 0.859955 0.835202
vt 0.181447 0.847369
vt 0.181447 0.891985
vt 0.177043 0.849807
vt 0.276201 0.831949
vt 0.276201 0.886256
vt 0.272120 0.886256
vt 0.272120 0.831592
vt 0.859813 0.769048
vt 0.859813 0.773385
vt 0.850369 0.773385
vt 0.850368 0.769048
vt 0.816556 0.908776
vt 0.812152 0.908776
vt 0.816556 0.899331
vt 0.816556 0.947134
vt 0.812152 0.947134
vt 0.812152 0.937689
vt 0.816556 0.937689
vt 0.609020 0.841592
vt 0.609020 0.845929
vt 0.599575 0.845929
vt 0.599575 0.841592
vt 0.292851 0.782215
vt 0.290484 0.784136
vt 0.290533 0.778425
vt 0.292435 0.776882
vt 0.812153 0.835202
vt 0.812153 0.780537
vt 0.821597 0.780537
vt 0.821597 0.835202
vt 0.505811 0.884237
vt 0.547990 0.884237
vt 0.547990 0.893682
vt 0.505811 0.893682
vt 0.131704 0.904536
vt 0.102790 0.904536
vt 0.102790 0.900439
vt 0.131704 0.900439
vt 0.503361 0.884237
vt 0.503361 0.893682
vt 0.858826 0.670713
vt 0.859242 0.665380
vt 0.861144 0.666923
vt 0.861193 0.672634
vt 0.812153 0.841251
vt 0.821597 0.841251
vt 0.276201 0.826456
vt 0.272120 0.825543
vt 0.181447 0.844320
vt 0.177043 0.847357
vt 0.850511 0.841251
vt 0.859956 0.841251
vt 0.503361 0.922596
vt 0.503361 0.932041
vt 0.203492 0.831272
vt 0.203492 0.837320
vt 0.199411 0.837678
vt 0.199411 0.832185
vt 0.294166 0.838591
vt 0.294166 0.841640
vt 0.855065 0.696053
vt 0.856928 0.692309
vt 0.861193 0.695771
vt 0.859762 0.699865
vt 0.102790 0.910029
vt 0.131704 0.910029
vt 0.296612 0.807555
vt 0.291916 0.811367
vt 0.290484 0.807273
vt 0.294750 0.803811
vt 0.609020 0.818456
vt 0.599575 0.818456
vt 0.838602 0.937689
vt 0.834521 0.937689
vt 0.834521 0.908776
vt 0.838602 0.908776
vt 0.838602 0.947134
vt 0.834521 0.947134
vt 0.834521 0.899331
vt 0.838602 0.899331
vt 0.859813 0.745912
vt 0.850369 0.745912
vt 0.294166 0.886256
vt 0.203492 0.891985
vt 0.199411 0.891985
vt 0.298569 0.844078
vt 0.298569 0.886256
vt 0.859813 0.740201
vt 0.850368 0.740201
vt 0.609020 0.812745
vt 0.599575 0.812745
vt 0.131704 0.939791
vt 0.102790 0.939791
vt 0.102790 0.934757
vt 0.131704 0.934757
vt 0.298569 0.841628
vt 0.131704 0.931708
vt 0.102790 0.931708
vt 0.199411 0.826692
vt 0.181447 0.841271
vt 0.301309 0.803744
vt 0.299015 0.800349
vt 0.203492 0.825223
vt 0.850511 0.847299
vt 0.859955 0.847299
vt 0.177043 0.844907
vt 0.500912 0.893682
vt 0.295219 0.780294
vt 0.294337 0.775338
vt 0.298569 0.839178
vt 0.294166 0.835542
vt 0.850368 0.692242
vt 0.852662 0.688847
vt 0.276201 0.820963
vt 0.500912 0.922596
vt 0.272120 0.819494
vt 0.812153 0.847299
vt 0.821597 0.847299
vt 0.856458 0.668792
vt 0.857340 0.663836
vt 0.861325 0.936497
vt 0.849964 0.941203
vt 0.845257 0.929842
vt 0.854669 0.929842
vt 0.838602 0.945910
vt 0.854670 0.952565
vt 0.845258 0.952565
vt 0.861325 0.945909
vt 0.838602 0.936498
vt 0.150593 0.946444
vt 0.157249 0.939788
vt 0.166661 0.939788
vt 0.161955 0.951150
vt 0.157249 0.962511
vt 0.173316 0.955856
vt 0.166661 0.962511
vt 0.173316 0.946444
vt 0.150593 0.955856
vt 0.371309 0.853758
vt 0.371309 0.900758
vt 0.349112 0.900758
vt 0.349112 0.853758
vt 0.607364 0.931238
vt 0.585167 0.931238
vt 0.585167 0.884237
vt 0.607364 0.884237
vt 0.102790 0.946446
vt 0.114152 0.951152
vt 0.109446 0.962514
vt 0.102790 0.955858
vt 0.125513 0.955858
vt 0.118858 0.962514
vt 0.118858 0.939791
vt 0.125513 0.946446
vt 0.109446 0.939791
vt 0.136874 0.951152
vt 0.132168 0.962514
vt 0.125513 0.955858
vt 0.148236 0.955858
vt 0.141580 0.939791
vt 0.148236 0.946446
vt 0.132168 0.939791
vt 0.141580 0.962514
s 1
usemtl Checker
f 8/1/1 7/2/1 3/3/1 4/4/1
f 17/5/2 19/6/2 12/7/2 11/8/2
f 18/9/3 17/5/3 11/8/3 10/10/3
f 12/11/4 9/12/4 10/13/4 11/14/4
f 20/15/5 18/9/5 10/10/5 9/16/5
f 20/15/5 9/16/5 16/17/5 22/18/5
f 21/19/6 22/18/6 16/17/6 15/20/6
f 9/12/4 12/11/4 15/20/4 16/17/4
f 6/21/1 5/22/1 14/23/1 13/24/1
f 12/7/2 19/6/2 21/25/2 15/26/2
f 13/27/6 14/28/6 22/29/6 21/30/6
f 20/31/4 22/29/4 25/32/4 23/33/4
f 5/34/5 1/35/5 18/9/5 20/15/5
f 1/35/7 2/36/7 17/5/3 18/9/3
f 2/36/2 6/37/2 19/6/2 17/5/2
f 14/23/1 5/22/1 24/38/1 26/39/1
f 22/29/6 14/28/6 26/40/6 25/32/6
f 5/22/3 20/31/3 23/33/3 24/38/3
f 49/41/2 50/42/2 31/43/2 32/44/2
f 42/45/4 48/46/4 29/47/4 27/48/4
f 39/49/5 40/50/5 33/51/5 34/52/5
f 50/42/1 39/49/1 34/52/1 31/43/1
f 47/53/1 41/54/1 28/55/1 30/56/1
f 40/50/4 49/57/4 32/58/4 33/51/4
f 41/54/5 42/45/5 27/48/5 28/55/5
f 46/59/8 35/60/8 36/61/8 45/62/8
f 44/63/2 47/64/2 48/65/2 43/66/2
f 35/60/5 40/67/5 39/68/5 36/61/5
f 48/69/2 47/53/2 30/56/2 29/70/2
f 45/62/2 50/71/2 49/72/2 46/59/2
f 38/73/5 42/74/5 41/75/5 37/76/5
f 43/66/8 38/73/8 37/76/7 44/63/7
f 42/74/5 38/73/5 36/61/5 39/68/5
f 40/67/5 35/60/5 1/77/5 5/78/5
f 43/66/8 45/62/8 36/61/8 38/73/8
f 46/59/8 2/79/7 1/77/7 35/60/8
f 3/80/3 44/63/7 37/76/7 4/81/3
f 8/1/5 4/81/5 37/76/5 41/75/5
f 42/74/9 39/68/9 50/82/9 48/83/9
f 40/67/9 5/78/9 6/84/9 49/85/9
f 8/1/6 41/75/6 47/86/6 7/2/6
f 50/71/2 45/62/2 43/66/2 48/65/2
f 47/64/2 44/63/2 3/80/2 7/87/2
f 6/88/2 2/79/2 46/59/2 49/72/2
f 79/89/6 78/90/10 52/91/10 55/92/6
f 81/93/1 58/94/1 52/91/10 78/90/10
f 77/95/11 79/96/6 55/97/6 51/98/11
f 76/99/12 54/100/12 58/94/1 81/93/1
f 71/101/6 70/102/10 60/103/10 63/104/6
f 73/105/1 66/106/1 60/103/10 70/102/10
f 69/107/11 71/108/6 63/109/6 59/110/11
f 68/111/12 62/112/12 66/106/1 73/105/1
f 61/113/13 67/114/13 74/115/4 65/116/4
f 149/117/13 156/118/4 74/119/4 67/120/13
f 61/113/13 64/121/3 72/122/3 67/114/13
f 149/117/13 67/120/13 72/123/3 154/124/3
f 69/125/11 151/126/11 153/127/6 71/128/6
f 65/116/4 74/115/4 69/107/11 59/110/11
f 156/118/4 151/126/11 69/125/11 74/119/4
f 64/121/3 62/112/12 68/111/12 72/122/3
f 53/129/13 75/130/13 82/131/4 57/132/4
f 157/133/13 164/134/4 82/135/4 75/136/13
f 53/129/13 56/137/3 80/138/3 75/130/13
f 157/133/13 75/136/13 80/139/3 162/140/3
f 77/141/11 159/142/11 161/143/6 79/144/6
f 57/132/4 82/131/4 77/95/11 51/98/11
f 164/134/4 159/142/11 77/141/11 82/135/4
f 56/137/3 54/100/12 76/99/12 80/138/3
f 79/145/6 161/146/6 160/147/10 78/148/10
f 78/148/10 160/147/10 163/149/1 81/150/1
f 81/150/1 163/149/1 158/151/12 76/152/12
f 154/124/3 72/123/3 68/153/12 150/154/12
f 71/155/6 153/156/6 152/157/10 70/158/10
f 70/158/10 152/157/10 155/159/1 73/160/1
f 73/160/1 155/159/1 150/154/12 68/153/12
f 88/161/1 6/162/1 13/163/1 95/164/1
f 101/165/3 19/166/3 6/162/3 88/161/3
f 95/167/6 13/168/6 21/169/6 103/170/6
f 103/170/4 21/169/4 19/166/4 101/165/4
f 90/171/1 86/172/1 85/173/1 89/174/1
f 99/175/5 93/176/5 94/177/5 101/178/5
f 100/179/3 92/180/3 93/176/3 99/175/3
f 94/181/4 93/182/4 92/183/4 91/184/4
f 102/185/2 91/186/2 92/180/2 100/179/2
f 102/185/2 104/187/2 98/188/2 91/186/2
f 103/189/6 97/190/6 98/188/6 104/187/6
f 91/184/4 98/188/4 97/190/4 94/181/4
f 88/191/1 95/192/1 96/193/1 87/194/1
f 94/177/5 97/195/5 103/196/5 101/178/5
f 95/197/6 103/198/6 104/199/6 96/200/6
f 102/201/4 105/202/4 107/203/4 104/199/4
f 87/204/2 102/185/2 100/179/2 83/205/2
f 83/205/7 100/179/3 99/175/3 84/206/7
f 84/206/5 99/175/5 101/178/5 88/207/5
f 96/193/1 108/208/1 106/209/1 87/194/1
f 104/199/6 107/203/6 108/210/6 96/200/6
f 87/194/3 106/209/3 105/202/3 102/201/3
f 131/211/5 114/212/5 113/213/5 132/214/5
f 124/215/4 109/216/4 111/217/4 130/218/4
f 121/219/2 116/220/2 115/221/2 122/222/2
f 132/214/1 113/213/1 116/220/1 121/219/1
f 129/223/1 112/224/1 110/225/1 123/226/1
f 122/222/4 115/221/4 114/58/4 131/57/4
f 123/226/2 110/225/2 109/216/2 124/215/2
f 128/227/8 127/228/8 118/229/8 117/230/8
f 126/231/5 125/232/5 130/233/5 129/234/5
f 117/230/2 118/229/2 121/235/2 122/236/2
f 130/237/5 111/238/5 112/224/5 129/223/5
f 127/228/5 128/227/5 131/239/5 132/240/5
f 120/241/2 119/242/2 123/243/2 124/244/2
f 125/232/8 126/231/7 119/242/7 120/241/8
f 124/244/2 121/235/2 118/229/2 120/241/2
f 122/236/2 87/245/2 83/246/2 117/230/2
f 125/232/8 120/241/8 118/229/8 127/228/8
f 128/227/8 117/230/8 83/246/7 84/247/7
f 85/248/3 86/249/3 119/242/7 126/231/7
f 90/171/2 123/243/2 119/242/2 86/249/2
f 124/244/9 130/250/9 132/251/9 121/235/9
f 122/236/9 131/252/9 88/253/9 87/245/9
f 90/171/6 89/174/6 129/254/6 123/243/6
f 132/240/5 130/233/5 125/232/5 127/228/5
f 129/234/5 89/255/5 85/248/5 126/231/5
f 88/256/5 131/239/5 128/227/5 84/247/5
f 161/257/6 137/258/6 134/259/10 160/260/10
f 163/261/1 160/260/10 134/259/10 140/262/1
f 159/263/11 133/264/11 137/265/6 161/266/6
f 158/267/12 163/261/1 140/262/1 136/268/12
f 153/269/6 145/270/6 142/271/10 152/272/10
f 155/273/1 152/272/10 142/271/10 148/274/1
f 151/275/11 141/276/11 145/277/6 153/104/6
f 150/278/12 155/273/1 148/274/1 144/279/12
f 143/280/13 147/281/4 156/282/4 149/283/13
f 143/280/13 149/283/13 154/284/3 146/285/3
f 147/281/4 141/276/11 151/275/11 156/282/4
f 146/285/3 154/284/3 150/278/12 144/279/12
f 135/286/13 139/287/4 164/288/4 157/289/13
f 135/286/13 157/289/13 162/290/3 138/291/3
f 139/287/4 133/264/11 159/263/11 164/288/4
f 138/291/3 162/290/3 158/267/12 136/268/12
f 162/140/3 80/139/3 76/152/12 158/151/12
f 165/292/5 166/293/5 168/294/5 167/295/5
f 167/295/3 168/294/3 172/296/3 171/297/3
f 171/297/2 172/296/2 170/298/2 169/299/2
f 169/300/6 170/301/6 166/302/6 165/303/6
f 167/295/4 171/297/4 169/304/4 165/305/4
f 172/296/1 168/294/1 166/306/1 170/307/1
f 178/308/2 186/309/2 182/310/2 174/311/2
f 175/312/2 183/313/2 188/314/2 180/315/2
f 175/312/2 177/316/2 185/317/2 183/313/2
f 179/318/2 174/311/2 182/310/2 187/319/2
f 177/316/2 176/320/2 184/321/2 185/317/2
f 176/320/2 179/318/2 187/319/2 184/321/2
f 173/322/2 181/323/2 186/309/2 178/308/2
f 180/315/2 188/314/2 181/323/2 173/322/2
f 193/324/5 191/325/5 199/326/5 201/327/5
f 195/328/5 190/329/5 198/330/5 203/331/5
f 195/328/5 203/331/5 202/332/5 194/333/5
f 192/334/5 200/335/5 199/326/5 191/325/5
f 194/333/5 202/332/5 204/336/5 196/337/5
f 196/337/5 204/336/5 200/335/5 192/334/5
f 189/338/5 193/324/5 201/327/5 197/339/5
f 190/329/5 189/338/5 197/339/5 198/330/5
f 178/340/6 174/341/11 191/342/11 193/343/6
f 180/344/1 173/345/10 189/346/10 190/347/1
f 182/348/12 186/349/3 201/350/3 199/351/12
f 181/352/13 188/353/4 198/354/4 197/355/13
f 179/356/4 192/357/4 191/342/11 174/341/11
f 182/348/12 199/351/12 200/358/1 187/359/1
f 173/345/10 178/360/6 193/361/6 189/346/10
f 186/362/3 181/352/13 197/355/13 201/363/3
f 175/364/12 195/365/12 194/366/3 177/367/3
f 185/368/6 202/369/6 203/370/11 183/371/11
f 176/372/13 196/373/13 192/357/4 179/356/4
f 187/359/1 200/358/1 204/374/10 184/375/10
f 175/364/12 180/344/1 190/347/1 195/365/12
f 188/353/4 183/371/11 203/370/11 198/354/4
f 177/367/3 194/366/3 196/373/13 176/372/13
f 184/375/10 204/374/10 202/369/6 185/368/6
f 210/376/5 206/377/5 214/378/5 218/379/5
f 207/380/5 212/381/5 220/382/5 215/383/5
f 207/380/5 215/383/5 217/384/5 209/385/5
f 211/386/5 219/387/5 214/378/5 206/377/5
f 209/385/5 217/384/5 216/388/5 208/389/5
f 208/389/5 216/388/5 219/387/5 211/386/5
f 205/390/5 210/376/5 218/379/5 213/391/5
f 212/381/5 205/390/5 213/391/5 220/382/5
f 225/392/2 233/393/2 231/394/2 223/395/2
f 227/396/2 235/397/2 230/398/2 222/399/2
f 227/396/2 226/400/2 234/401/2 235/397/2
f 224/402/2 223/395/2 231/394/2 232/403/2
f 226/400/2 228/404/2 236/405/2 234/401/2
f 228/404/2 224/402/2 232/403/2 236/405/2
f 221/406/2 229/407/2 233/393/2 225/392/2
f 222/399/2 230/398/2 229/407/2 221/406/2
f 210/408/6 225/409/6 223/410/11 206/411/11
f 212/412/1 222/413/1 221/414/10 205/415/10
f 214/416/12 231/417/12 233/418/3 218/419/3
f 213/420/13 229/421/13 230/422/4 220/423/4
f 211/424/4 206/411/11 223/410/11 224/425/4
f 214/416/12 219/426/1 232/427/1 231/417/12
f 205/415/10 221/414/10 225/428/6 210/429/6
f 218/430/3 233/431/3 229/421/13 213/420/13
f 207/432/12 209/433/3 226/434/3 227/435/12
f 217/436/6 215/437/11 235/438/11 234/439/6
f 208/440/13 211/424/4 224/425/4 228/441/13
f 219/426/1 216/442/10 236/443/10 232/427/1
f 207/432/12 227/435/12 222/413/1 212/412/1
f 220/423/4 230/422/4 235/438/11 215/437/11
f 209/433/3 208/440/13 228/441/13 226/434/3
f 216/442/10 217/436/6 234/439/6 236/443/10
f 237/444/5 238/445/5 240/446/5 239/447/5
f 239/447/3 240/446/3 244/448/3 243/449/3
f 243/449/2 244/448/2 242/450/2 241/451/2
f 241/452/6 242/453/6 238/454/6 237/455/6
f 239/447/4 243/449/4 241/456/4 237/457/4
f 244/448/1 240/446/1 238/458/1 242/459/1
f 250/460/2 258/461/2 254/462/2 246/463/2
f 247/464/2 255/465/2 260/466/2 252/467/2
f 247/464/2 249/468/2 257/469/2 255/465/2
f 251/470/2 246/463/2 254/462/2 259/471/2
f 249/468/2 248/472/2 256/473/2 257/469/2
f 248/472/2 251/470/2 259/471/2 256/473/2
f 245/474/2 253/475/2 258/461/2 250/460/2
f 252/467/2 260/466/2 253/475/2 245/474/2
f 265/476/5 263/477/5 271/478/5 273/479/5
f 267/480/5 262/481/5 270/482/5 275/483/5
f 267/480/5 275/483/5 274/484/5 266/485/5
f 264/486/5 272/487/5 271/478/5 263/477/5
f 266/485/5 274/484/5 276/488/5 268/489/5
f 268/489/5 276/488/5 272/487/5 264/486/5
f 261/490/5 265/476/5 273/479/5 269/491/5
f 262/481/5 261/490/5 269/491/5 270/482/5
f 250/492/6 246/493/11 263/494/11 265/495/6
f 252/496/1 245/497/10 261/498/10 262/499/1
f 254/500/12 258/501/3 273/502/3 271/503/12
f 253/504/13 260/505/4 270/506/4 269/507/13
f 251/508/4 264/509/4 263/494/11 246/493/11
f 254/500/12 271/503/12 272/510/1 259/511/1
f 245/497/10 250/512/6 265/513/6 261/498/10
f 258/514/3 253/504/13 269/507/13 273/515/3
f 247/516/12 267/517/12 266/518/3 249/519/3
f 257/520/6 274/521/6 275/522/11 255/523/11
f 248/524/13 268/525/13 264/509/4 251/508/4
f 259/511/1 272/510/1 276/526/10 256/527/10
f 247/516/12 252/496/1 262/499/1 267/517/12
f 260/505/4 255/523/11 275/522/11 270/506/4
f 249/519/3 266/518/3 268/525/13 248/524/13
f 256/527/10 276/526/10 274/521/6 257/520/6
f 282/528/5 278/529/5 286/530/5 290/531/5
f 279/532/5 284/533/5 292/534/5 287/535/5
f 279/532/5 287/535/5 289/536/5 281/537/5
f 283/538/5 291/539/5 286/530/5 278/529/5
f 281/537/5 289/536/5 288/540/5 280/541/5
f 280/541/5 288/540/5 291/539/5 283/538/5
f 277/542/5 282/528/5 290/531/5 285/543/5
f 284/533/5 277/542/5 285/543/5 292/534/5
f 297/544/2 305/545/2 303/546/2 295/547/2
f 299/548/2 307/549/2 302/550/2 294/551/2
f 299/548/2 298/552/2 306/553/2 307/549/2
f 296/554/2 295/547/2 303/546/2 304/555/2
f 298/552/2 300/556/2 308/557/2 306/553/2
f 300/556/2 296/554/2 304/555/2 308/557/2
f 293/558/2 301/559/2 305/545/2 297/544/2
f 294/551/2 302/550/2 301/559/2 293/558/2
f 282/560/6 297/561/6 295/562/11 278/563/11
f 284/564/1 294/565/1 293/566/10 277/567/10
f 286/568/12 303/569/12 305/570/3 290/571/3
f 285/572/13 301/573/13 302/574/4 292/575/4
f 283/576/4 278/563/11 295/562/11 296/577/4
f 286/568/12 291/578/1 304/579/1 303/569/12
f 277/567/10 293/566/10 297/301/6 282/580/6
f 290/581/3 305/582/3 301/573/13 285/572/13
f 279/583/12 281/584/3 298/585/3 299/586/12
f 289/587/6 287/588/11 307/589/11 306/590/6
f 280/591/13 283/576/4 296/577/4 300/592/13
f 291/578/1 288/593/10 308/594/10 304/579/1
f 279/583/12 299/586/12 294/565/1 284/564/1
f 292/575/4 302/574/4 307/589/11 287/588/11
f 281/584/3 280/591/13 300/592/13 298/585/3
f 288/593/10 289/587/6 306/590/6 308/594/10
f 309/595/2 311/596/2 312/597/2 310/598/2
f 311/596/3 315/599/3 316/600/3 312/597/3
f 315/599/5 313/601/5 314/602/5 316/600/5
f 313/603/6 309/604/6 310/605/6 314/606/6
f 311/596/4 309/607/4 313/608/4 315/599/4
f 316/600/1 314/609/1 310/610/1 312/597/1
f 322/611/5 318/612/5 326/613/5 330/614/5
f 319/615/5 324/616/5 332/617/5 327/327/5
f 319/615/5 327/327/5 329/618/5 321/619/5
f 323/620/5 331/621/5 326/613/5 318/612/5
f 321/619/5 329/618/5 328/622/5 320/623/5
f 320/623/5 328/622/5 331/621/5 323/620/5
f 317/624/5 322/611/5 330/614/5 325/625/5
f 324/616/5 317/624/5 325/625/5 332/617/5
f 337/626/2 345/627/2 343/628/2 335/629/2
f 339/630/2 347/631/2 342/632/2 334/633/2
f 339/630/2 338/634/2 346/635/2 347/631/2
f 336/636/2 335/629/2 343/628/2 344/637/2
f 338/634/2 340/638/2 348/639/2 346/635/2
f 340/638/2 336/636/2 344/637/2 348/639/2
f 333/640/2 341/641/2 345/627/2 337/626/2
f 334/633/2 342/632/2 341/641/2 333/640/2
f 322/642/6 337/643/6 335/644/11 318/645/11
f 324/646/1 334/647/1 333/648/10 317/649/10
f 326/348/12 343/650/12 345/651/3 330/349/3
f 325/352/13 341/652/13 342/653/4 332/353/4
f 323/654/4 318/645/11 335/644/11 336/655/4
f 326/348/12 331/359/1 344/656/1 343/650/12
f 317/649/10 333/648/10 337/657/6 322/658/6
f 330/362/3 345/659/3 341/652/13 325/352/13
f 319/660/12 321/661/3 338/662/3 339/663/12
f 329/368/6 327/371/11 347/664/11 346/665/6
f 320/666/13 323/654/4 336/655/4 340/667/13
f 331/359/1 328/375/10 348/668/10 344/656/1
f 319/660/12 339/663/12 334/647/1 324/646/1
f 332/353/4 342/653/4 347/664/11 327/371/11
f 321/661/3 320/666/13 340/667/13 338/662/3
f 328/375/10 329/368/6 346/665/6 348/668/10
f 354/669/2 362/670/2 358/671/2 350/672/2
f 351/673/2 359/674/2 364/675/2 356/676/2
f 351/673/2 353/677/2 361/678/2 359/674/2
f 355/679/2 350/672/2 358/671/2 363/680/2
f 353/677/2 352/681/2 360/682/2 361/678/2
f 352/681/2 355/679/2 363/680/2 360/682/2
f 349/683/2 357/684/2 362/670/2 354/669/2
f 356/676/2 364/675/2 357/684/2 349/683/2
f 369/685/5 367/686/5 375/687/5 377/688/5
f 371/689/5 366/690/5 374/691/5 379/692/5
f 371/689/5 379/692/5 378/693/5 370/694/5
f 368/695/5 376/696/5 375/687/5 367/686/5
f 370/694/5 378/693/5 380/697/5 372/698/5
f 372/698/5 380/697/5 376/696/5 368/695/5
f 365/699/5 369/685/5 377/688/5 373/700/5
f 366/690/5 365/699/5 373/700/5 374/691/5
f 354/701/6 350/702/11 367/703/11 369/704/6
f 356/705/1 349/706/10 365/707/10 366/708/1
f 358/709/12 362/710/3 377/711/3 375/712/12
f 357/713/13 364/714/4 374/715/4 373/716/13
f 355/717/4 368/718/4 367/703/11 350/702/11
f 358/709/12 375/712/12 376/719/1 363/720/1
f 349/706/10 354/492/6 369/495/6 365/707/10
f 362/721/3 357/713/13 373/716/13 377/722/3
f 351/723/12 371/724/12 370/725/3 353/726/3
f 361/727/6 378/728/6 379/729/11 359/730/11
f 352/731/13 372/732/13 368/718/4 355/717/4
f 363/720/1 376/719/1 380/733/10 360/734/10
f 351/723/12 356/705/1 366/708/1 371/724/12
f 364/714/4 359/730/11 379/729/11 374/715/4
f 353/726/3 370/725/3 372/732/13 352/731/13
f 360/734/10 380/733/10 378/728/6 361/727/6
f 381/735/2 383/736/2 384/737/2 382/738/2
f 383/736/3 387/739/3 388/740/3 384/737/3
f 387/739/5 385/741/5 386/742/5 388/740/5
f 385/743/6 381/744/6 382/745/6 386/746/6
f 383/736/4 381/747/4 385/748/4 387/739/4
f 388/740/1 386/749/1 382/750/1 384/737/1
f 394/751/5 390/752/5 398/753/5 402/754/5
f 391/755/5 396/756/5 404/757/5 399/758/5
f 391/755/5 399/758/5 401/759/5 393/760/5
f 395/761/5 403/762/5 398/753/5 390/752/5
f 393/760/5 401/759/5 400/763/5 392/764/5
f 392/764/5 400/763/5 403/762/5 395/761/5
f 389/765/5 394/751/5 402/754/5 397/766/5
f 396/756/5 389/765/5 397/766/5 404/757/5
f 409/767/2 417/768/2 415/769/2 407/770/2
f 411/771/2 419/772/2 414/773/2 406/774/2
f 411/771/2 410/775/2 418/776/2 419/772/2
f 408/777/2 407/770/2 415/769/2 416/778/2
f 410/775/2 412/779/2 420/780/2 418/776/2
f 412/779/2 408/777/2 416/778/2 420/780/2
f 405/781/2 413/782/2 417/768/2 409/767/2
f 406/774/2 414/773/2 413/782/2 405/781/2
f 394/783/6 409/784/6 407/785/11 390/786/11
f 396/787/1 406/788/1 405/789/10 389/790/10
f 398/791/12 415/792/12 417/793/3 402/794/3
f 397/795/13 413/796/13 414/797/4 404/798/4
f 395/799/4 390/786/11 407/785/11 408/800/4
f 398/791/12 403/801/1 416/802/1 415/792/12
f 389/790/10 405/789/10 409/803/6 394/168/6
f 402/804/3 417/805/3 413/796/13 397/795/13
f 391/806/12 393/807/3 410/808/3 411/809/12
f 401/810/6 399/811/11 419/588/11 418/812/6
f 392/813/13 395/799/4 408/800/4 412/814/13
f 403/801/1 400/815/10 420/816/10 416/802/1
f 391/806/12 411/809/12 406/788/1 396/787/1
f 404/798/4 414/797/4 419/588/11 399/811/11
f 393/807/3 392/813/13 412/814/13 410/808/3
f 400/815/10 401/810/6 418/812/6 420/816/10
f 426/817/2 434/818/2 430/819/2 422/820/2
f 423/821/2 431/822/2 436/823/2 428/824/2
f 423/821/2 425/825/2 433/826/2 431/822/2
f 427/827/2 422/820/2 430/819/2 435/828/2
f 425/825/2 424/829/2 432/830/2 433/826/2
f 424/829/2 427/827/2 435/828/2 432/830/2
f 421/831/2 429/832/2 434/818/2 426/817/2
f 428/824/2 436/823/2 429/832/2 421/831/2
f 441/833/5 439/834/5 447/835/5 449/836/5
f 443/837/5 438/838/5 446/839/5 451/840/5
f 443/837/5 451/840/5 450/841/5 442/842/5
f 440/843/5 448/844/5 447/835/5 439/834/5
f 442/842/5 450/841/5 452/845/5 444/846/5
f 444/846/5 452/845/5 448/844/5 440/843/5
f 437/847/5 441/833/5 449/836/5 445/848/5
f 438/838/5 437/847/5 445/848/5 446/839/5
f 426/849/6 422/850/11 439/851/11 441/852/6
f 428/853/1 421/854/10 437/345/10 438/855/1
f 430/856/12 434/857/3 449/858/3 447/859/12
f 429/860/13 436/861/4 446/862/4 445/863/13
f 427/864/4 440/865/4 439/851/11 422/850/11
f 430/856/12 447/859/12 448/866/1 435/867/1
f 421/854/10 426/868/6 441/869/6 437/345/10
f 434/870/3 429/860/13 445/863/13 449/871/3
f 423/872/12 443/873/12 442/874/3 425/875/3
f 433/876/6 450/877/6 451/878/11 431/879/11
f 424/880/13 444/881/13 440/865/4 427/864/4
f 435/867/1 448/866/1 452/882/10 432/883/10
f 423/872/12 428/853/1 438/855/1 443/873/12
f 436/861/4 431/879/11 451/878/11 446/862/4
f 425/875/3 442/874/3 444/881/13 424/880/13
f 432/883/10 452/882/10 450/877/6 433/876/6
f 476/884/4 469/885/4 455/886/4 464/887/4
f 474/888/1 471/889/1 454/890/1 462/891/1
f 500/892/5 472/893/5 453/894/5 489/895/5
f 487/896/2 470/897/2 456/898/2 477/899/2
f 486/900/14 480/901/14 457/902/14 468/903/14
f 494/904/6 489/905/6 453/906/6 463/907/6
f 496/908/6 493/909/6 464/910/6 455/911/6
f 493/909/6 494/904/6 463/907/6 464/910/6
f 479/912/14 485/913/14 467/914/14 459/915/14
f 508/916/2 504/917/2 465/918/2 499/919/2
f 470/920/1 473/921/1 461/922/1 456/923/1
f 473/921/1 474/888/1 462/891/1 461/922/1
f 472/924/4 475/925/4 463/926/4 453/927/4
f 475/925/4 476/884/4 464/887/4 463/926/4
f 481/928/15 474/929/15 473/930/15 482/931/15
f 502/932/4 504/933/4 475/925/4 472/924/4
f 516/934/5 498/935/5 466/936/5 512/937/5
f 510/938/1 511/939/1 473/921/1 470/920/1
f 513/940/2 510/941/2 470/897/2 487/896/2
f 507/942/5 502/943/5 472/893/5 500/892/5
f 503/944/1 501/945/1 471/889/1 474/888/1
f 512/946/4 509/947/4 469/885/4 476/884/4
f 501/948/5 505/949/5 488/950/5 471/951/5
f 515/952/2 513/940/2 487/896/2 495/953/2
f 511/954/5 467/955/5 485/956/5 514/957/5
f 514/958/1 506/959/1 481/928/1 482/931/1
f 503/960/2 506/961/2 486/962/2 468/963/2
f 490/964/14 498/965/14 485/913/14 479/912/14
f 461/966/6 462/967/6 484/968/6 483/969/6
f 456/970/6 461/966/6 483/969/6 477/971/6
f 462/967/6 454/972/6 478/973/6 484/968/6
f 499/974/14 491/975/14 480/901/14 486/900/14
f 495/953/2 487/896/2 477/899/2 496/976/2
f 471/951/5 488/950/5 478/977/5 454/978/5
f 469/979/2 495/953/2 496/976/2 455/980/2
f 465/981/14 458/982/14 491/975/14 499/974/14
f 460/983/14 466/984/14 498/965/14 490/964/14
f 475/985/15 497/986/15 492/987/15 476/988/15
f 509/989/2 515/952/2 495/953/2 469/979/2
f 505/949/5 507/942/5 500/892/5 488/950/5
f 514/957/5 485/956/5 498/935/5 516/934/5
f 506/961/2 508/916/2 499/919/2 486/962/2
f 483/969/6 484/968/6 494/904/6 493/909/6
f 477/971/6 483/969/6 493/909/6 496/908/6
f 484/968/6 478/973/6 489/905/6 494/904/6
f 488/950/5 500/892/5 489/895/5 478/977/5
f 506/959/16 514/958/16 516/990/16 508/991/16
f 480/992/5 491/993/5 507/942/5 505/949/5
f 474/994/2 481/995/2 506/961/2 503/960/2
f 457/996/5 480/992/5 505/949/5 501/948/5
f 468/997/1 457/998/1 501/945/1 503/944/1
f 491/993/5 458/999/5 502/943/5 507/942/5
f 458/1000/4 465/1001/4 504/933/4 502/932/4
f 497/1002/2 475/1003/2 504/917/2 508/916/2
f 516/990/4 492/987/4 497/986/4 508/991/4
f 460/1004/2 490/1005/2 515/952/2 509/989/2
f 473/1006/5 511/954/5 514/957/5 482/1007/5
f 490/1005/2 479/1008/2 513/940/2 515/952/2
f 466/1009/4 460/1010/4 509/947/4 512/946/4
f 479/1008/2 459/1011/2 510/941/2 513/940/2
f 459/1012/1 467/1013/1 511/939/1 510/938/1
f 492/1014/5 516/934/5 512/937/5 476/1015/5
f 540/1016/4 533/1017/4 519/1018/4 528/1019/4
f 538/1020/1 535/1021/1 518/1022/1 526/1023/1
f 564/1024/5 536/1025/5 517/1026/5 553/1027/5
f 551/1028/2 534/1029/2 520/1030/2 541/1031/2
f 550/1032/17 544/1033/17 521/1034/14 532/1035/14
f 558/1036/6 553/1037/6 517/1038/6 527/1039/6
f 560/1040/6 557/1041/6 528/1042/6 519/1043/6
f 557/1041/6 558/1036/6 527/1039/6 528/1042/6
f 543/1044/17 549/1045/17 531/1046/14 523/1047/14
f 572/1048/2 568/1049/2 529/1050/2 563/1051/2
f 534/1052/1 537/1053/1 525/1054/1 520/1055/1
f 537/1053/1 538/1020/1 526/1023/1 525/1054/1
f 536/1056/4 539/1057/4 527/1058/4 517/1059/4
f 539/1057/4 540/1016/4 528/1019/4 527/1058/4
f 545/1060/15 538/1061/15 537/1062/15 546/1063/15
f 566/1064/4 568/1065/4 539/1057/4 536/1056/4
f 580/1066/5 562/1067/5 530/1068/5 576/1069/5
f 574/1070/1 575/1071/1 537/1053/1 534/1052/1
f 577/1072/2 574/1073/2 534/1029/2 551/1028/2
f 571/1074/5 566/1075/5 536/1025/5 564/1024/5
f 567/1076/1 565/1077/1 535/1021/1 538/1020/1
f 576/1078/4 573/1079/4 533/1017/4 540/1016/4
f 565/1080/5 569/1081/5 552/1082/5 535/1083/5
f 579/1084/2 577/1072/2 551/1028/2 559/1085/2
f 575/1086/5 531/1087/5 549/1088/5 578/1089/5
f 578/1090/1 570/1091/1 545/1060/1 546/1063/1
f 567/1092/2 570/1093/2 550/1094/2 532/1095/2
f 554/1096/17 562/1097/17 549/1045/17 543/1044/17
f 525/1098/6 526/1099/6 548/1100/6 547/1101/6
f 520/1102/6 525/1098/6 547/1101/6 541/1103/6
f 526/1099/6 518/1104/6 542/1105/6 548/1100/6
f 563/1106/17 555/1107/17 544/1033/17 550/1032/17
f 559/1085/2 551/1028/2 541/1031/2 560/1108/2
f 535/1083/5 552/1082/5 542/1109/5 518/1110/5
f 533/1111/2 559/1085/2 560/1108/2 519/1112/2
f 529/1113/14 522/1114/14 555/1107/17 563/1106/17
f 524/1115/14 530/1116/14 562/1097/17 554/1096/17
f 539/1117/15 561/1118/15 556/1119/15 540/1120/15
f 573/1121/2 579/1084/2 559/1085/2 533/1111/2
f 569/1081/5 571/1074/5 564/1024/5 552/1082/5
f 578/1089/5 549/1088/5 562/1067/5 580/1066/5
f 570/1093/2 572/1048/2 563/1051/2 550/1094/2
f 547/1101/6 548/1100/6 558/1036/6 557/1041/6
f 541/1103/6 547/1101/6 557/1041/6 560/1040/6
f 548/1100/6 542/1105/6 553/1037/6 558/1036/6
f 552/1082/5 564/1024/5 553/1027/5 542/1109/5
f 570/1091/18 578/1090/18 580/1122/18 572/1123/18
f 544/1124/5 555/1125/5 571/1074/5 569/1081/5
f 538/1126/2 545/1127/2 570/1093/2 567/1092/2
f 521/1128/5 544/1124/5 569/1081/5 565/1080/5
f 532/1129/1 521/1130/1 565/1077/1 567/1076/1
f 555/1125/5 522/1131/5 566/1075/5 571/1074/5
f 522/1132/4 529/1133/4 568/1065/4 566/1064/4
f 561/1134/2 539/1135/2 568/1049/2 572/1048/2
f 580/1122/4 556/1119/4 561/1118/4 572/1123/4
f 524/1136/2 554/1137/2 579/1084/2 573/1121/2
f 537/1138/5 575/1086/5 578/1089/5 546/1139/5
f 554/1137/2 543/1140/2 577/1072/2 579/1084/2
f 530/1141/4 524/1142/4 573/1079/4 576/1078/4
f 543/1140/2 523/1143/2 574/1073/2 577/1072/2
f 523/1144/1 531/1145/1 575/1071/1 574/1070/1
f 556/1146/5 580/1066/5 576/1069/5 540/1147/5
f 604/1148/4 597/1149/4 583/1150/4 592/1151/4
f 602/1152/1 599/1153/1 582/1154/1 590/1155/1
f 628/1156/5 600/1157/5 581/1158/5 617/1159/5
f 615/1160/2 598/1161/2 584/1162/2 605/1163/2
f 614/1164/19 608/1165/19 585/1166/14 596/1167/14
f 622/1168/6 617/1169/6 581/1170/6 591/1171/6
f 624/1172/6 621/1173/6 592/1174/6 583/1143/6
f 621/1173/6 622/1168/6 591/1171/6 592/1174/6
f 607/1175/19 613/1176/19 595/1177/14 587/1178/14
f 636/1179/2 632/1180/2 593/1181/2 627/1182/2
f 598/1183/1 601/1184/1 589/1185/1 584/1186/1
f 601/1184/1 602/1152/1 590/1155/1 589/1185/1
f 600/1187/4 603/1188/4 591/1189/4 581/1190/4
f 603/1188/4 604/1148/4 592/1151/4 591/1189/4
f 609/1191/15 602/1192/15 601/1193/15 610/1194/15
f 630/1195/4 632/1196/4 603/1188/4 600/1187/4
f 644/1197/5 626/1198/5 594/1199/5 640/1200/5
f 638/1201/1 639/1202/1 601/1184/1 598/1183/1
f 641/1203/2 638/1204/2 598/1161/2 615/1160/2
f 635/1205/5 630/1206/5 600/1157/5 628/1156/5
f 631/1207/1 629/1208/1 599/1153/1 602/1152/1
f 640/1209/4 637/1210/4 597/1149/4 604/1148/4
f 629/1211/5 633/1212/5 616/1213/5 599/1214/5
f 643/1215/2 641/1203/2 615/1160/2 623/1216/2
f 639/1217/5 595/1218/5 613/1219/5 642/1220/5
f 642/1221/1 634/1222/1 609/1191/1 610/1194/1
f 631/1223/2 634/1224/2 614/1225/2 596/1226/2
f 618/1227/20 626/1228/20 613/1176/19 607/1175/19
f 589/1229/6 590/1230/6 612/1231/6 611/1232/6
f 584/1233/6 589/1229/6 611/1232/6 605/1234/6
f 590/1230/6 582/1235/6 606/1236/6 612/1231/6
f 627/1237/20 619/1238/20 608/1165/19 614/1164/19
f 623/1216/2 615/1160/2 605/1163/2 624/1239/2
f 599/1214/5 616/1213/5 606/1240/5 582/1241/5
f 597/1242/2 623/1216/2 624/1239/2 583/1243/2
f 593/1244/21 586/1245/21 619/1238/20 627/1237/20
f 588/1246/21 594/1247/21 626/1228/20 618/1227/20
f 603/1248/22 625/1249/22 620/1250/22 604/1251/22
f 637/1252/2 643/1215/2 623/1216/2 597/1242/2
f 633/1212/5 635/1205/5 628/1156/5 616/1213/5
f 642/1220/5 613/1219/5 626/1198/5 644/1197/5
f 634/1224/2 636/1179/2 627/1182/2 614/1225/2
f 611/1232/6 612/1231/6 622/1168/6 621/1173/6
f 605/1234/6 611/1232/6 621/1173/6 624/1172/6
f 612/1231/6 606/1236/6 617/1169/6 622/1168/6
f 616/1213/5 628/1156/5 617/1159/5 606/1240/5
f 634/1222/23 642/1221/23 644/1253/23 636/1254/23
f 608/1255/5 619/1256/5 635/1205/5 633/1212/5
f 602/1257/2 609/1258/2 634/1224/2 631/1223/2
f 585/1259/5 608/1255/5 633/1212/5 629/1211/5
f 596/1260/1 585/1261/1 629/1208/1 631/1207/1
f 619/1256/5 586/1262/5 630/1206/5 635/1205/5
f 586/1263/4 593/1264/4 632/1196/4 630/1195/4
f 625/1265/2 603/1266/2 632/1180/2 636/1179/2
f 644/1253/4 620/1250/4 625/1249/4 636/1254/4
f 588/1267/2 618/1268/2 643/1215/2 637/1252/2
f 601/1269/5 639/1217/5 642/1220/5 610/1270/5
f 618/1268/2 607/1271/2 641/1203/2 643/1215/2
f 594/1272/4 588/1273/4 637/1210/4 640/1209/4
f 607/1271/2 587/1274/2 638/1204/2 641/1203/2
f 587/1275/1 595/1276/1 639/1202/1 638/1201/1
f 620/1277/5 644/1197/5 640/1200/5 604/1278/5
f 668/1279/4 656/1280/4 647/1281/4 661/1282/4
f 666/1283/1 654/1284/1 646/1285/1 663/1286/1
f 692/1287/2 681/1288/2 645/1289/2 664/1290/2
f 679/1291/5 669/1292/5 648/1293/5 662/1294/5
f 678/1295/14 660/1296/14 649/1297/14 672/1298/14
f 686/1299/6 655/1300/6 645/1301/6 681/1302/6
f 688/1303/6 647/1304/6 656/1305/6 685/1306/6
f 685/1306/6 656/1305/6 655/1300/6 686/1299/6
f 671/1307/14 651/1308/14 659/1309/14 677/1310/14
f 700/1311/5 691/1312/5 657/1313/5 696/1314/5
f 662/1315/1 648/1316/1 653/1317/1 665/1318/1
f 665/1318/1 653/1317/1 654/1284/1 666/1283/1
f 664/1319/4 645/1320/4 655/1321/4 667/1322/4
f 667/1322/4 655/1321/4 656/1280/4 668/1279/4
f 673/1323/15 674/1324/15 665/1325/15 666/1326/15
f 694/1327/4 664/1319/4 667/1322/4 696/1328/4
f 708/1329/2 704/1330/2 658/1331/2 690/1332/2
f 702/1333/1 662/1315/1 665/1318/1 703/1334/1
f 705/1335/5 679/1291/5 662/1294/5 702/1336/5
f 699/1337/2 692/1287/2 664/1290/2 694/1338/2
f 695/1339/1 666/1283/1 663/1286/1 693/1340/1
f 704/1341/4 668/1279/4 661/1282/4 701/1342/4
f 693/1343/2 663/1344/2 680/1345/2 697/1346/2
f 707/1347/5 687/1348/5 679/1291/5 705/1335/5
f 703/1349/2 706/1350/2 677/1351/2 659/1352/2
f 706/1353/1 674/1324/1 673/1323/1 698/1354/1
f 695/1355/5 660/1356/5 678/1357/5 698/1358/5
f 682/1359/14 671/1307/14 677/1310/14 690/1360/14
f 653/1361/6 675/1362/6 676/1363/6 654/1364/6
f 648/1365/6 669/1366/6 675/1362/6 653/1361/6
f 654/1364/6 676/1363/6 670/1367/6 646/1368/6
f 691/1369/14 678/1295/14 672/1298/14 683/1370/14
f 687/1348/5 688/1371/5 669/1292/5 679/1291/5
f 663/1344/2 646/1372/2 670/1373/2 680/1345/2
f 661/1374/5 647/1375/5 688/1371/5 687/1348/5
f 657/1376/14 691/1369/14 683/1370/14 650/1377/14
f 652/1378/14 682/1359/14 690/1360/14 658/1379/14
f 667/1380/15 668/1381/15 684/1382/15 689/1383/15
f 701/1384/5 661/1374/5 687/1348/5 707/1347/5
f 697/1346/2 680/1345/2 692/1287/2 699/1337/2
f 706/1350/2 708/1329/2 690/1332/2 677/1351/2
f 698/1358/5 678/1357/5 691/1312/5 700/1311/5
f 675/1362/6 685/1306/6 686/1299/6 676/1363/6
f 669/1366/6 688/1303/6 685/1306/6 675/1362/6
f 676/1363/6 686/1299/6 681/1302/6 670/1367/6
f 680/1345/2 670/1373/2 681/1288/2 692/1287/2
f 698/1354/16 700/1385/16 708/1386/16 706/1353/16
f 672/1387/2 697/1346/2 699/1337/2 683/1388/2
f 666/1389/5 695/1355/5 698/1358/5 673/1390/5
f 649/1030/2 693/1343/2 697/1346/2 672/1387/2
f 660/1391/1 695/1339/1 693/1340/1 649/1392/1
f 683/1388/2 699/1337/2 694/1338/2 650/1393/2
f 650/1394/4 694/1327/4 696/1328/4 657/1395/4
f 689/1396/5 700/1311/5 696/1314/5 667/1397/5
f 708/1386/4 700/1385/4 689/1383/4 684/1382/4
f 652/1398/5 701/1384/5 707/1347/5 682/1399/5
f 665/1400/2 674/1401/2 706/1350/2 703/1349/2
f 682/1399/5 707/1347/5 705/1335/5 671/1402/5
f 658/1403/4 704/1341/4 701/1342/4 652/1404/4
f 671/1402/5 705/1335/5 702/1336/5 651/1405/5
f 651/1406/1 702/1333/1 703/1334/1 659/1407/1
f 684/1408/2 668/1409/2 704/1330/2 708/1329/2
f 732/1410/4 720/1411/4 711/1412/4 725/1413/4
f 730/1414/1 718/1415/1 710/1416/1 727/1417/1
f 756/1418/2 745/1419/2 709/1420/2 728/1421/2
f 743/1422/5 733/1423/5 712/1424/5 726/1425/5
f 742/1426/17 724/1427/14 713/1428/14 736/1429/17
f 750/1430/6 719/1431/6 709/1432/6 745/1433/6
f 752/1434/6 711/1435/6 720/1436/6 749/1437/6
f 749/1437/6 720/1436/6 719/1431/6 750/1430/6
f 735/1438/17 715/1439/14 723/1440/14 741/1441/17
f 764/1442/5 755/1443/5 721/1444/5 760/1445/5
f 726/1446/1 712/1447/1 717/1448/1 729/1449/1
f 729/1449/1 717/1448/1 718/1415/1 730/1414/1
f 728/1450/4 709/1451/4 719/1452/4 731/1453/4
f 731/1453/4 719/1452/4 720/1411/4 732/1410/4
f 737/1454/15 738/1455/15 729/1456/15 730/1457/15
f 758/1458/4 728/1450/4 731/1453/4 760/1459/4
f 772/1460/2 768/1461/2 722/1462/2 754/1463/2
f 766/1464/1 726/1446/1 729/1449/1 767/1465/1
f 769/1466/5 743/1422/5 726/1425/5 766/1467/5
f 763/1468/2 756/1418/2 728/1421/2 758/1469/2
f 759/1470/1 730/1414/1 727/1417/1 757/1471/1
f 768/1472/4 732/1410/4 725/1413/4 765/1473/4
f 757/1474/2 727/1475/2 744/1476/2 761/1477/2
f 771/1478/5 751/1479/5 743/1422/5 769/1466/5
f 767/1480/2 770/1481/2 741/1482/2 723/1483/2
f 770/1484/1 738/1455/1 737/1454/1 762/1485/1
f 759/1486/5 724/1487/5 742/1488/5 762/1489/5
f 746/1490/17 735/1438/17 741/1441/17 754/1491/17
f 717/1492/6 739/1493/6 740/1494/6 718/1495/6
f 712/1038/6 733/1496/6 739/1493/6 717/1492/6
f 718/1495/6 740/1494/6 734/1497/6 710/1498/6
f 755/1499/17 742/1426/17 736/1429/17 747/1500/17
f 751/1479/5 752/1501/5 733/1423/5 743/1422/5
f 727/1475/2 710/1502/2 734/1503/2 744/1476/2
f 725/1504/5 711/1505/5 752/1501/5 751/1479/5
f 721/1506/14 755/1499/17 747/1500/17 714/1507/14
f 716/1508/14 746/1490/17 754/1491/17 722/1018/14
f 731/1509/15 732/1510/15 748/1511/15 753/1512/15
f 765/1513/5 725/1504/5 751/1479/5 771/1478/5
f 761/1477/2 744/1476/2 756/1418/2 763/1468/2
f 770/1481/2 772/1460/2 754/1463/2 741/1482/2
f 762/1489/5 742/1488/5 755/1443/5 764/1442/5
f 739/1493/6 749/1437/6 750/1430/6 740/1494/6
f 733/1496/6 752/1434/6 749/1437/6 739/1493/6
f 740/1494/6 750/1430/6 745/1433/6 734/1497/6
f 744/1476/2 734/1503/2 745/1419/2 756/1418/2
f 762/1485/18 764/1514/18 772/1515/18 770/1484/18
f 736/1516/2 761/1477/2 763/1468/2 747/1517/2
f 730/1518/5 759/1486/5 762/1489/5 737/1519/5
f 713/1520/2 757/1474/2 761/1477/2 736/1516/2
f 724/1521/1 759/1470/1 757/1471/1 713/1522/1
f 747/1517/2 763/1468/2 758/1469/2 714/1523/2
f 714/1524/4 758/1458/4 760/1459/4 721/1525/4
f 753/1526/5 764/1442/5 760/1445/5 731/1527/5
f 772/1515/4 764/1514/4 753/1512/4 748/1511/4
f 716/1528/5 765/1513/5 771/1478/5 746/1529/5
f 729/1530/2 738/1531/2 770/1481/2 767/1480/2
f 746/1529/5 771/1478/5 769/1466/5 735/1532/5
f 722/1533/4 768/1472/4 765/1473/4 716/1534/4
f 735/1532/5 769/1466/5 766/1467/5 715/1535/5
f 715/1536/1 766/1464/1 767/1465/1 723/1537/1
f 748/1538/2 732/1539/2 768/1461/2 772/1460/2
f 796/1540/4 784/1541/4 775/1542/4 789/1543/4
f 794/1544/1 782/1545/1 774/1546/1 791/1547/1
f 820/1548/2 809/1549/2 773/1162/2 792/1550/2
f 807/1551/5 797/1552/5 776/1553/5 790/1554/5
f 806/1555/19 788/1556/14 777/1557/14 800/1558/19
f 814/1559/6 783/1560/6 773/1536/6 809/1561/6
f 816/1562/6 775/1563/6 784/1564/6 813/1565/6
f 813/1565/6 784/1564/6 783/1560/6 814/1559/6
f 799/1566/19 779/1567/14 787/1568/14 805/1569/19
f 828/1570/5 819/1571/5 785/1572/5 824/1573/5
f 790/1574/1 776/1575/1 781/1576/1 793/1577/1
f 793/1577/1 781/1576/1 782/1545/1 794/1544/1
f 792/1578/4 773/1579/4 783/1580/4 795/1581/4
f 795/1581/4 783/1580/4 784/1541/4 796/1540/4
f 801/1582/15 802/1583/15 793/1584/15 794/1585/15
f 822/1586/4 792/1578/4 795/1581/4 824/1587/4
f 836/1588/2 832/1589/2 786/1590/2 818/1591/2
f 830/1592/1 790/1574/1 793/1577/1 831/1593/1
f 833/1594/5 807/1551/5 790/1554/5 830/1595/5
f 827/1596/2 820/1548/2 792/1550/2 822/1597/2
f 823/1598/1 794/1544/1 791/1547/1 821/1599/1
f 832/1600/4 796/1540/4 789/1543/4 829/1601/4
f 821/1602/2 791/1603/2 808/1604/2 825/1605/2
f 835/1606/5 815/1607/5 807/1551/5 833/1594/5
f 831/1608/2 834/1609/2 805/1610/2 787/1611/2
f 834/1612/1 802/1583/1 801/1582/1 826/1613/1
f 823/1614/5 788/1615/5 806/1616/5 826/1617/5
f 810/1618/20 799/1566/19 805/1569/19 818/1619/20
f 781/1620/6 803/1621/6 804/1622/6 782/1623/6
f 776/1624/6 797/1625/6 803/1621/6 781/1620/6
f 782/1623/6 804/1622/6 798/1626/6 774/1627/6
f 819/1628/20 806/1555/19 800/1558/19 811/1629/20
f 815/1607/5 816/1630/5 797/1552/5 807/1551/5
f 791/1603/2 774/1631/2 798/1632/2 808/1604/2
f 789/1633/5 775/1634/5 816/1630/5 815/1607/5
f 785/1635/21 819/1628/20 811/1629/20 778/1636/21
f 780/1637/21 810/1618/20 818/1619/20 786/1638/21
f 795/1639/22 796/1640/22 812/1641/22 817/1642/22
f 829/1643/5 789/1633/5 815/1607/5 835/1606/5
f 825/1605/2 808/1604/2 820/1548/2 827/1596/2
f 834/1609/2 836/1588/2 818/1591/2 805/1610/2
f 826/1617/5 806/1616/5 819/1571/5 828/1570/5
f 803/1621/6 813/1565/6 814/1559/6 804/1622/6
f 797/1625/6 816/1562/6 813/1565/6 803/1621/6
f 804/1622/6 814/1559/6 809/1561/6 798/1626/6
f 808/1604/2 798/1632/2 809/1549/2 820/1548/2
f 826/1613/23 828/1644/23 836/1645/23 834/1612/23
f 800/1646/2 825/1605/2 827/1596/2 811/1647/2
f 794/1648/5 823/1614/5 826/1617/5 801/1649/5
f 777/1650/2 821/1602/2 825/1605/2 800/1646/2
f 788/1651/1 823/1598/1 821/1599/1 777/1652/1
f 811/1647/2 827/1596/2 822/1597/2 778/1653/2
f 778/1150/4 822/1586/4 824/1587/4 785/1654/4
f 817/1655/5 828/1570/5 824/1573/5 795/1656/5
f 836/1645/4 828/1644/4 817/1642/4 812/1641/4
f 780/1657/5 829/1643/5 835/1606/5 810/1658/5
f 793/1659/2 802/1660/2 834/1609/2 831/1608/2
f 810/1658/5 835/1606/5 833/1594/5 799/1661/5
f 786/1662/4 832/1600/4 829/1601/4 780/1190/4
f 799/1661/5 833/1594/5 830/1595/5 779/1663/5
f 779/1664/1 830/1592/1 831/1593/1 787/1665/1
f 812/1666/2 796/1667/2 832/1589/2 836/1588/2
f 139/1668/2 837/1669/2 137/1670/2 133/1671/2
f 140/1672/2 837/1669/2 138/1673/2 136/1674/2
f 138/1673/2 837/1669/2 139/1668/2 135/1675/2
f 137/1670/2 837/1669/2 140/1672/2 134/1676/2
f 147/1677/2 143/1678/2 146/1679/2 838/1680/2
f 145/1681/2 838/1680/2 148/1682/2 142/1683/2
f 148/1682/2 838/1680/2 146/1679/2 144/1684/2
f 838/1680/2 145/1681/2 141/1685/2 147/1677/2
f 106/1686/2 108/1687/2 107/1688/2 105/1689/2
f 24/1690/5 23/1691/5 25/1692/5 26/1693/5
f 65/1694/5 839/1695/5 64/1696/5 61/1697/5
f 64/1696/5 839/1695/5 66/1698/5 62/1699/5
f 66/1698/5 839/1695/5 63/1700/5 60/1701/5
f 839/1695/5 65/1694/5 59/1702/5 63/1700/5
f 57/1701/5 840/1703/5 56/1704/5 53/1705/5
f 58/1706/5 840/1703/5 55/1707/5 52/1708/5
f 55/1707/5 840/1703/5 57/1701/5 51/1709/5
f 56/1704/5 840/1703/5 58/1706/5 54/1710/5
