# Blender 5.1.0
# www.blender.org
mtllib WallRear.001.mtl
o Wall.001
v -0.592333 1.518756 -5.180019
v -0.592333 -1.981243 -5.179979
v -0.592333 1.518756 4.781503
v -0.592333 -1.981243 4.781542
v 0.356058 0.705802 -5.180006
v 0.356058 -1.168289 -5.179993
v 0.356058 -1.168289 4.781529
v 0.356058 0.705801 4.781516
v -0.592333 1.518756 -3.290999
v -0.592333 -1.981243 -3.290958
v 0.356058 0.705801 -3.290986
v 0.356058 -1.168289 -3.290972
v -0.592333 -1.981243 -0.265667
v 0.356058 0.705801 -0.265694
v 0.356058 -1.168289 -0.265680
v -0.592333 1.518756 -0.265708
v -0.592333 -1.981243 1.385142
v 0.356058 0.705801 1.385114
v 0.356058 -1.168289 1.385128
v -0.592333 1.518756 1.385099
v -0.592333 -1.981243 2.649717
v 0.356058 0.705801 2.649689
v 0.356058 -1.168289 2.649703
v -0.592333 1.518756 2.649674
v 0.356058 -1.981243 -3.290972
v 0.356058 -1.981243 -0.265680
v 0.356058 -1.981243 1.385128
v 0.356058 -1.981243 2.649703
v 0.352778 1.518756 -5.179979
v 0.352778 1.518756 4.781542
v 0.352777 5.218654 -5.179979
v 0.352777 5.218654 4.781542
vn -0.6508 0.7592 -0.0000
vn -0.6508 -0.7592 -0.0000
vn -1.0000 -0.0000 -0.0000
vn -0.0000 -0.0000 -1.0000
vn -0.0000 -0.0000 1.0000
vt 0.666667 0.937500
vt 1.000000 0.937500
vt 1.000000 1.000000
vt 0.666667 1.000000
vt 0.000000 0.937500
vt 0.333333 0.937500
vt 0.333333 1.000000
vt 0.000000 1.000000
vt 0.333333 0.000000
vt 0.666667 0.000000
vt 0.666667 0.500000
vt 0.333333 0.500000
vt 0.000000 0.000000
vt 0.000000 0.500000
vt 1.000000 0.000000
vt 1.000000 0.500000
vt 0.666667 0.750000
vt 0.333333 0.750000
vt 0.000000 0.750000
vt 0.666667 0.875000
vt 0.333333 0.875000
vt 0.000000 0.875000
vt 1.000000 0.750000
vt 1.000000 0.875000
vt 0.375000 0.000000
vt 0.375000 0.187500
vt 0.625000 0.187500
vt 0.625000 0.000000
s 0
f 23/1/1 21/2/1 4/3/1 7/4/1
f 24/5/2 22/6/2 8/7/2 3/8/2
f 22/6/3 23/1/3 7/4/3 8/7/3
f 5/9/3 6/10/3 12/11/3 11/12/3
f 1/13/2 5/9/2 11/12/2 9/14/2
f 6/10/1 2/15/1 10/16/1 12/11/1
f 11/12/3 12/11/3 15/17/3 14/18/3
f 9/14/2 11/12/2 14/18/2 16/19/2
f 14/18/3 15/17/3 19/20/3 18/21/3
f 16/19/2 14/18/2 18/21/2 20/22/2
f 15/17/1 13/23/1 17/24/1 19/20/1
f 18/21/3 19/20/3 23/1/3 22/6/3
f 20/22/2 18/21/2 22/6/2 24/5/2
f 13/23/4 15/17/4 26/17/4
f 19/20/5 17/24/5 27/20/5
f 12/11/5 10/16/5 25/11/5
f 21/2/4 23/1/4 28/1/4
f 23/1/3 19/20/3 27/20/3 28/1/3
f 15/17/3 12/11/3 25/11/3 26/17/3
f 29/25/3 30/26/3 32/27/3 31/28/3
