# Blender 5.1.0
# www.blender.org
mtllib WallRear.002.mtl
o Wall.002
v -0.549068 2.026315 -3.698560
v -0.549068 -1.473684 -3.698518
v 0.399323 1.213361 -3.698545
v 0.399323 -0.660729 -3.698533
v -0.549068 2.026316 3.328662
v -0.549068 -1.473684 3.328703
v 0.399323 1.213361 3.328675
v 0.399323 -0.660730 3.328690
v 0.399323 -1.473684 3.328690
v -0.549068 2.026316 1.605615
v -0.549068 2.026316 -1.975534
v -0.549068 -1.473684 -1.975471
v -0.549068 -1.473684 1.605679
v 0.399323 1.213361 -1.975511
v 0.399323 1.213361 1.605637
v 0.399323 -0.660729 -1.975493
v 0.399323 -0.660730 1.605655
v 0.399323 -1.473684 -1.975493
v 0.399323 -1.473684 1.605655
vn -1.0000 -0.0000 -0.0000
vn -0.6508 -0.7592 -0.0000
vn -0.6508 0.7592 -0.0000
vn -0.0000 -0.0000 1.0000
vn -0.0000 -0.0000 -1.0000
vt 0.333333 0.333333
vt 0.666667 0.333333
vt 0.666667 0.500000
vt 0.333333 0.500000
vt 0.000000 0.333333
vt 0.000000 0.500000
vt 1.000000 0.333333
vt 1.000000 0.500000
vt 0.666667 0.000000
vt 1.000000 0.000000
vt 1.000000 0.166667
vt 0.666667 0.166667
vt 0.000000 0.000000
vt 0.333333 0.000000
vt 0.333333 0.166667
vt 0.000000 0.166667
s 0
f 15/1/1 17/2/1 8/3/1 7/4/1
f 10/5/2 15/1/2 7/4/2 5/6/2
f 17/2/3 13/7/3 6/8/3 8/3/3
f 8/3/4 6/8/4 9/3/4
f 4/9/3 2/10/3 12/11/3 16/12/3
f 17/2/1 16/12/1 18/12/1 19/2/1
f 1/13/2 3/14/2 14/15/2 11/16/2
f 11/16/2 14/15/2 15/1/2 10/5/2
f 3/14/1 4/9/1 16/12/1 14/15/1
f 14/15/1 16/12/1 17/2/1 15/1/1
f 16/12/4 12/11/4 18/12/4
f 17/2/5 19/2/5 13/7/5
