# Blender 5.1.0
# www.blender.org
mtllib WindowObservation.mtl
o VeiwingWindow
v 0.085065 -1.017523 -2.554194
v 0.085065 1.017523 -2.554194
v 0.085065 -1.017523 2.554194
v 0.085065 1.017523 2.554194
v -0.036107 -0.919709 -2.456380
v -0.036107 0.919709 -2.456380
v -0.036107 -0.919709 2.456380
v -0.036107 0.919709 2.456380
v -0.036107 1.017523 2.554194
v -0.036107 -1.017523 2.554194
v -0.036107 -1.017523 -2.554194
v -0.036107 1.017523 -2.554194
v -0.036107 0.919709 2.456380
v -0.036107 -0.919709 2.456380
v -0.036107 -0.919709 -2.456380
v -0.036107 0.919709 -2.456380
v 0.023255 0.855210 2.369021
v 0.023255 -0.855210 2.369021
v 0.023255 -0.855210 -2.369021
v 0.023255 0.855210 -2.369021
vn 1.0000 -0.0000 -0.0000
vn -0.0000 -0.0000 1.0000
vn -0.0000 1.0000 -0.0000
vn -0.0000 -0.0000 -1.0000
vn -0.0000 -1.0000 -0.0000
vn -1.0000 -0.0000 -0.0000
vn -0.7358 -0.6772 -0.0000
vn -0.8271 -0.0000 -0.5620
vn -0.8271 -0.0000 0.5620
vn -0.7358 0.6772 -0.0000
vt 0.375000 0.000000
vt 0.625000 0.000000
vt 0.625000 0.250000
vt 0.375000 0.250000
vt 0.625000 0.500000
vt 0.375000 0.500000
vt 0.387016 0.745213
vt 0.387016 0.504787
vt 0.375000 0.750000
vt 0.625000 0.750000
vt 0.625000 1.000000
vt 0.375000 1.000000
vt 0.125000 0.500000
vt 0.125000 0.750000
vt 0.875000 0.500000
vt 0.875000 0.750000
vt 0.612984 0.504787
vt 0.612984 0.745213
s 0
f 1/1/1 2/2/1 4/3/1 3/4/1
f 3/4/2 4/3/2 9/5/2 10/6/2
f 5/7/3 7/8/3 14/8/3 15/7/3
f 11/9/4 12/10/4 2/11/4 1/12/4
f 3/13/5 10/6/5 11/9/5 1/14/5
f 9/5/3 4/15/3 2/16/3 12/10/3
f 8/17/6 7/8/6 10/6/6 9/5/6
f 7/8/6 5/7/6 11/9/6 10/6/6
f 6/18/6 8/17/6 9/5/6 12/10/6
f 5/7/6 6/18/6 12/10/6 11/9/6
f 13/17/7 16/18/7 20/18/7 17/17/7
f 8/17/3 6/18/3 16/18/3 13/17/3
f 7/8/3 8/17/3 13/17/3 14/8/3
f 6/18/3 5/7/3 15/7/3 16/18/3
f 18/8/6 17/17/6 20/18/6 19/7/6
f 14/8/8 13/17/8 17/17/8 18/8/8
f 16/18/9 15/7/9 19/7/9 20/18/9
f 15/7/10 14/8/10 18/8/10 19/7/10
