# Blender 5.2.0 LTS
# www.blender.org
mtllib BrainCanopy.mtl
o BrainCanopy
v 60.000000 39.799999 15.000000
v 60.000000 40.000000 15.000000
v -60.000000 39.799999 15.000000
v -60.000000 40.000000 15.000000
v 0.012683 59.799999 15.000000
v 0.012683 60.000000 15.000000
v 0.000000 39.799999 -35.000000
v 0.000000 40.000000 -35.000000
v 15.072682 59.799999 15.000000
v 15.072682 60.000000 15.000000
v 10.052682 60.000000 15.000000
v 5.032683 60.000000 15.000000
v 10.040000 39.799999 -35.000000
v 5.032683 59.799999 15.000000
v 10.052683 59.799999 15.000000
v 10.040001 40.000000 -35.000000
v 20.012844 59.799999 15.000000
v 49.960320 49.799999 15.000000
v 49.960320 50.000000 15.000000
v 20.012844 60.000000 15.000000
v -4.987317 60.000000 15.000000
v -9.987318 60.000000 15.000000
v -14.987318 60.000000 15.000000
v -19.987316 60.000000 15.000000
v -50.000000 50.000000 15.000000
v -10.000000 39.799999 -35.000000
v -50.000000 49.799999 15.000000
v -19.987316 59.799999 15.000000
v -14.987318 59.799999 15.000000
v -9.987318 59.799999 15.000000
v -4.987317 59.799999 15.000000
v -10.000000 40.000000 -35.000000
v 60.000000 39.799999 5.000000
v 60.000000 39.799999 -5.000000
v 60.000000 39.799999 -15.000000
v 60.000000 40.000000 -15.000000
v 60.000000 40.000000 -5.000000
v 60.000000 40.000000 5.000000
v -60.000000 39.799999 -15.000000
v -60.000000 39.799999 -5.000000
v -60.000000 39.799999 5.000000
v -60.000000 40.000000 5.000000
v -60.000000 40.000000 -5.000000
v -60.000000 40.000000 -15.000000
v 0.012683 60.000000 5.000000
v 0.012683 60.000000 -5.000000
v 0.012683 60.000000 -15.000000
v 0.000000 50.000000 -25.000000
v 0.012683 59.799999 5.000000
v 0.012683 59.799999 -5.000000
v 0.012683 59.799999 -15.000000
v 0.000000 49.799999 -25.000000
v 15.072682 59.799999 5.000000
v 15.072682 59.799999 -5.000000
v 30.120001 49.799999 -15.000000
v 30.120001 39.799999 -25.000000
v 15.072682 60.000000 5.000000
v 15.072682 60.000000 -5.000000
v 30.120001 50.000000 -15.000000
v 30.120001 40.000000 -25.000000
v 5.032683 60.000000 5.000000
v 5.032683 60.000000 -5.000000
v 5.032683 60.000000 -15.000000
v 10.040001 50.000000 -25.000000
v 10.052682 60.000000 5.000000
v 10.052682 60.000000 -5.000000
v 20.080000 50.000000 -15.000000
v 20.080002 40.000000 -25.000000
v 10.052683 59.799999 5.000000
v 10.052683 59.799999 -5.000000
v 20.080002 49.799999 -15.000000
v 20.080002 39.799999 -25.000000
v 5.032683 59.799999 5.000000
v 5.032683 59.799999 -5.000000
v 5.032683 59.799999 -15.000000
v 10.040001 49.799999 -25.000000
v 49.960320 49.799999 5.000000
v 49.960320 49.799999 -5.000000
v 49.960320 39.799999 -15.000000
v 20.012844 59.799999 5.000000
v 20.012844 59.799999 -5.000000
v 40.000320 49.799999 -15.000000
v 40.000320 39.799999 -25.000000
v 20.012844 60.000000 5.000000
v 20.012844 60.000000 -5.000000
v 40.000320 50.000000 -15.000000
v 40.000320 40.000000 -25.000000
v 49.960320 50.000000 5.000000
v 49.960320 50.000000 -5.000000
v 49.960320 40.000000 -15.000000
v -50.000000 50.000000 5.000000
v -50.000000 50.000000 -5.000000
v -50.000000 40.000000 -15.000000
v -19.987316 60.000000 5.000000
v -19.987316 60.000000 -5.000000
v -40.000000 50.000000 -15.000000
v -40.000000 40.000000 -25.000000
v -14.987318 60.000000 5.000000
v -14.987318 60.000000 -5.000000
v -30.000000 50.000000 -15.000000
v -30.000000 40.000000 -25.000000
v -9.987318 60.000000 5.000000
v -9.987318 60.000000 -5.000000
v -20.000000 50.000000 -15.000000
v -20.000000 40.000000 -25.000000
v -4.987317 60.000000 5.000000
v -4.987317 60.000000 -5.000000
v -4.987317 60.000000 -15.000000
v -10.000000 50.000000 -25.000000
v -4.987317 59.799999 5.000000
v -4.987317 59.799999 -5.000000
v -4.987317 59.799999 -15.000000
v -10.000000 49.799999 -25.000000
v -9.987318 59.799999 5.000000
v -9.987318 59.799999 -5.000000
v -20.000000 49.799999 -15.000000
v -20.000000 39.799999 -25.000000
v -14.987318 59.799999 5.000000
v -14.987318 59.799999 -5.000000
v -30.000000 49.799999 -15.000000
v -30.000000 39.799999 -25.000000
v -19.987316 59.799999 5.000000
v -19.987316 59.799999 -5.000000
v -40.000000 49.799999 -15.000000
v -40.000000 39.799999 -25.000000
v -50.000000 49.799999 5.000000
v -50.000000 49.799999 -5.000000
v -50.000000 39.799999 -15.000000
v 7.542683 60.000000 15.000000
v 7.542683 59.799999 15.000000
v 7.542683 59.799999 5.000000
v 7.542683 59.799999 -5.000000
v 12.556343 54.799999 -15.000000
v 7.542683 60.000000 5.000000
v 7.542683 60.000000 -5.000000
v 12.556341 55.000000 -15.000000
v -7.487318 60.000000 15.000000
v -7.487318 59.799999 15.000000
v -7.487318 59.799999 5.000000
v -7.487318 59.799999 -5.000000
v -12.493658 54.799999 -15.000000
v -7.487318 60.000000 5.000000
v -7.487318 60.000000 -5.000000
v -12.493658 55.000000 -15.000000
v 34.986580 57.799999 15.000000
v 34.986580 58.000000 15.000000
v 34.986580 58.000000 5.000000
v 34.986580 58.000000 -5.000000
v 34.986580 57.799999 5.000000
v 34.986580 57.799999 -5.000000
v -34.993660 58.000000 15.000000
v -34.993660 57.799999 15.000000
v -34.993660 57.799999 5.000000
v -34.993660 57.799999 -5.000000
v -34.993660 58.000000 5.000000
v -34.993660 58.000000 -5.000000
v 42.473450 55.632214 15.000000
v -42.496830 55.832214 15.000000
v 0.012683 60.000000 -10.000000
v 0.012683 59.799999 -10.000000
v 22.596342 56.632214 -10.000000
v 22.596342 56.832214 -10.000000
v 5.032683 60.000000 -10.000000
v 15.066341 56.832214 -10.000000
v 15.066342 56.632214 -10.000000
v 5.032683 59.799999 -10.000000
v 30.006582 56.632214 -10.000000
v 30.006582 56.832214 -10.000000
v -29.993658 56.832214 -10.000000
v -22.493660 56.832214 -10.000000
v -14.993659 56.832214 -10.000000
v -4.987317 60.000000 -10.000000
v -4.987317 59.799999 -10.000000
v -14.993659 56.632214 -10.000000
v -22.493660 56.632214 -10.000000
v -29.993658 56.632214 -10.000000
v -42.496830 55.832214 5.000000
v -42.496830 55.832214 -5.000000
v 42.473450 55.632214 5.000000
v 42.473450 55.632214 -5.000000
v 10.049512 59.332214 -10.000000
v 10.049513 59.132214 -10.000000
v -9.990488 59.332214 -10.000000
v -9.990488 59.132214 -10.000000
v 42.473450 55.832214 15.000000
v 42.473450 55.832214 5.000000
v 42.473450 55.832214 -5.000000
v -42.496830 55.632214 15.000000
v -42.496830 55.632214 5.000000
v -42.496830 55.632214 -5.000000
v -60.000000 39.799999 -10.000000
v -60.000000 40.000000 -10.000000
v -50.000000 45.000000 -10.000000
v -50.000000 44.799999 -10.000000
v 60.000000 39.799999 -10.000000
v 60.000000 40.000000 -10.000000
v 49.960320 44.799999 -10.000000
v 49.960320 45.000000 -10.000000
v 30.120001 45.000000 -20.000000
v 20.080002 45.000000 -20.000000
v 40.000320 45.000000 -20.000000
v 0.000000 45.000000 -30.000000
v 10.040001 45.000000 -30.000000
v -10.000000 45.000000 -30.000000
v -40.000000 45.000000 -20.000000
v -30.000000 45.000000 -20.000000
v -20.000000 45.000000 -20.000000
v -20.000000 44.799999 -20.000000
v -30.000000 44.799999 -20.000000
v -40.000000 44.799999 -20.000000
v 0.000000 44.799999 -30.000000
v 10.040001 44.799999 -30.000000
v -10.000000 44.799999 -30.000000
v 30.120001 44.799999 -20.000000
v 20.080002 44.799999 -20.000000
v 40.000320 44.799999 -20.000000
vn 1.0000 -0.0000 -0.0000
vn -0.0000 -0.0000 1.0000
vn -0.0000 0.7071 -0.7071
vn -0.0000 -0.7071 0.7071
vn -0.0000 -0.0000 -1.0000
vn 0.5758 0.5781 -0.5781
vn -0.5758 -0.5781 0.5781
vn -0.7071 -0.0000 -0.7071
vn -0.5774 0.5774 -0.5774
vn 0.5774 -0.5774 0.5774
vn 0.6137 -0.7895 -0.0000
vn 0.3897 -0.7499 0.5346
vn -0.0000 -1.0000 -0.0000
vn -0.0000 -0.5906 0.8070
vn 0.4465 -0.7447 0.4961
vn 0.4849 -0.7279 0.4849
vn -0.0000 1.0000 -0.0000
vn -0.3962 0.8745 -0.2797
vn -0.4849 0.7279 -0.4849
vn -0.0000 0.5906 -0.8070
vn -0.1321 0.9912 -0.0000
vn -0.1684 0.9092 -0.3807
vn -0.7071 0.7071 -0.0000
vn -0.2182 0.8729 -0.4364
vn 0.6145 0.7889 -0.0000
vn 0.3906 0.7499 -0.5340
vn 0.5789 0.5766 -0.5766
vn -0.1324 -0.9912 -0.0000
vn -0.1687 -0.9093 0.3804
vn -0.5789 -0.5766 0.5766
vn -0.7057 -0.7085 -0.0000
vn -0.2174 -0.8730 0.4365
vn -0.3954 -0.8748 0.2799
vn -0.4838 -0.7280 0.4857
vn 0.4455 0.7449 -0.4966
vn 0.4838 0.7280 -0.4857
vn 0.7057 0.7085 -0.0000
vn 0.2174 0.8730 -0.4365
vn 0.7071 -0.7071 -0.0000
vn 0.2182 -0.8729 0.4364
vn -1.0000 -0.0000 -0.0000
vn 0.7057 -0.0000 -0.7085
vn 0.7085 -0.0000 -0.7057
vn 0.3954 0.8748 -0.2799
vn -0.4455 -0.7449 0.4966
vn -0.4465 0.7447 -0.4961
vn 0.3962 -0.8745 0.2797
vn -0.2781 -0.9605 -0.0000
vn 0.1324 0.9912 -0.0000
vn -0.2776 0.9607 -0.0000
vn 0.1321 -0.9912 -0.0000
vn -0.6137 0.7895 -0.0000
vn -0.6145 -0.7889 -0.0000
vn 0.0886 -0.9951 0.0443
vn -0.3136 0.9412 -0.1255
vn -0.3127 -0.9415 0.1259
vn 0.0883 0.9951 -0.0443
vn -0.0000 -0.8447 0.5352
vn -0.0000 0.8447 -0.5352
vn 0.3127 0.9415 -0.1259
vn -0.0883 -0.9951 0.0443
vn -0.3906 -0.7499 0.5340
vn 0.1687 0.9093 -0.3804
vn 0.2781 0.9605 -0.0000
vn -0.3897 0.7499 -0.5346
vn -0.0886 0.9951 -0.0443
vn 0.3136 -0.9412 0.1255
vn 0.1684 -0.9092 0.3807
vn 0.2776 -0.9607 -0.0000
vn 0.5571 -0.7428 0.3714
vn -0.5571 0.7428 -0.3714
vn 0.5556 0.7437 -0.3718
vn -0.5556 -0.7437 0.3718
vt 0.375000 0.200000
vt 0.625000 0.200000
vt 0.625000 0.250000
vt 0.375000 0.250000
vt 0.375000 0.479167
vt 0.625000 0.479167
vt 0.625000 0.500000
vt 0.375000 0.500000
vt 0.729167 0.725000
vt 0.750000 0.725000
vt 0.750000 0.750000
vt 0.729167 0.750000
vt 0.229083 0.725000
vt 0.250000 0.725000
vt 0.250000 0.750000
vt 0.229083 0.750000
vt 0.375000 0.854167
vt 0.625000 0.854167
vt 0.625000 0.875000
vt 0.375000 0.875000
vt 0.375000 0.354083
vt 0.625000 0.354083
vt 0.625000 0.375000
vt 0.375000 0.375000
vt 0.375000 0.291666
vt 0.625000 0.291666
vt 0.625000 0.312250
vt 0.375000 0.312250
vt 0.625000 0.895917
vt 0.375000 0.895917
vt 0.770917 0.725000
vt 0.770917 0.750000
vt 0.770917 0.700000
vt 0.791833 0.700000
vt 0.625000 0.333167
vt 0.375000 0.333167
vt 0.375000 0.343625
vt 0.625000 0.343625
vt 0.208167 0.700000
vt 0.229083 0.700000
vt 0.625000 0.270916
vt 0.375000 0.270916
vt 0.375000 0.281291
vt 0.625000 0.281291
vt 0.354167 0.650000
vt 0.645833 0.650000
vt 0.666667 0.700000
vt 0.333333 0.700000
vt 0.708333 0.700000
vt 0.729167 0.700000
vt 0.270833 0.725000
vt 0.270833 0.750000
vt 0.270833 0.700000
vt 0.291667 0.700000
vt 0.625000 0.395833
vt 0.375000 0.395833
vt 0.375000 0.406250
vt 0.625000 0.406250
vt 0.625000 0.416667
vt 0.375000 0.416667
vt 0.625000 0.437500
vt 0.375000 0.437500
vt 0.625000 0.458333
vt 0.375000 0.458333
vt 0.375000 0.473958
vt 0.625000 0.473958
vt 0.348958 0.500000
vt 0.354167 0.500000
vt 0.354167 0.550000
vt 0.348958 0.550000
vt 0.354167 0.600000
vt 0.348958 0.600000
vt 0.333333 0.625000
vt 0.333333 0.650000
vt 0.333333 0.675000
vt 0.312500 0.500000
vt 0.333333 0.500000
vt 0.333333 0.550000
vt 0.312500 0.550000
vt 0.333333 0.600000
vt 0.312500 0.600000
vt 0.312500 0.625000
vt 0.312500 0.650000
vt 0.312500 0.675000
vt 0.312500 0.700000
vt 0.291667 0.500000
vt 0.291667 0.550000
vt 0.291667 0.600000
vt 0.291667 0.625000
vt 0.291667 0.650000
vt 0.291667 0.675000
vt 0.281250 0.500000
vt 0.281250 0.550000
vt 0.281250 0.600000
vt 0.281250 0.625000
vt 0.281250 0.650000
vt 0.270833 0.650000
vt 0.250000 0.500000
vt 0.270833 0.500000
vt 0.270833 0.550000
vt 0.250000 0.550000
vt 0.270833 0.600000
vt 0.250000 0.600000
vt 0.250000 0.625000
vt 0.270833 0.625000
vt 0.250000 0.650000
vt 0.250000 0.700000
vt 0.718750 0.500000
vt 0.729167 0.500000
vt 0.729167 0.550000
vt 0.718750 0.550000
vt 0.729167 0.600000
vt 0.718750 0.600000
vt 0.718750 0.625000
vt 0.729167 0.625000
vt 0.729167 0.650000
vt 0.718750 0.650000
vt 0.708333 0.650000
vt 0.687500 0.500000
vt 0.708333 0.500000
vt 0.708333 0.550000
vt 0.687500 0.550000
vt 0.708333 0.600000
vt 0.687500 0.600000
vt 0.687500 0.625000
vt 0.708333 0.625000
vt 0.687500 0.650000
vt 0.687500 0.675000
vt 0.708333 0.675000
vt 0.687500 0.700000
vt 0.666667 0.500000
vt 0.666667 0.550000
vt 0.666667 0.600000
vt 0.666667 0.625000
vt 0.666667 0.650000
vt 0.666667 0.675000
vt 0.656250 0.500000
vt 0.656250 0.550000
vt 0.656250 0.600000
vt 0.651042 0.600000
vt 0.645833 0.500000
vt 0.645833 0.550000
vt 0.625000 0.550000
vt 0.645833 0.600000
vt 0.625000 0.600000
vt 0.625000 0.625000
vt 0.645833 0.625000
vt 0.625000 0.650000
vt 0.848897 0.500000
vt 0.854084 0.500000
vt 0.854084 0.550000
vt 0.848897 0.550000
vt 0.854084 0.600000
vt 0.848897 0.600000
vt 0.833334 0.625000
vt 0.833334 0.650000
vt 0.854084 0.650000
vt 0.833334 0.700000
vt 0.833334 0.675000
vt 0.812750 0.500000
vt 0.833334 0.500000
vt 0.833334 0.550000
vt 0.812750 0.550000
vt 0.833334 0.600000
vt 0.812750 0.600000
vt 0.812750 0.625000
vt 0.812750 0.650000
vt 0.812750 0.675000
vt 0.812750 0.700000
vt 0.156291 0.500000
vt 0.166666 0.500000
vt 0.166666 0.550000
vt 0.156291 0.550000
vt 0.166666 0.600000
vt 0.156291 0.600000
vt 0.151104 0.600000
vt 0.166666 0.625000
vt 0.145916 0.650000
vt 0.166666 0.650000
vt 0.166666 0.675000
vt 0.166666 0.700000
vt 0.125000 0.500000
vt 0.145916 0.500000
vt 0.145916 0.550000
vt 0.125000 0.550000
vt 0.145916 0.600000
vt 0.125000 0.600000
vt 0.125000 0.625000
vt 0.145916 0.625000
vt 0.125000 0.650000
vt 0.218625 0.500000
vt 0.229083 0.500000
vt 0.229083 0.550000
vt 0.218625 0.550000
vt 0.229083 0.600000
vt 0.218625 0.600000
vt 0.218625 0.625000
vt 0.229083 0.625000
vt 0.229083 0.650000
vt 0.218625 0.650000
vt 0.208167 0.650000
vt 0.187250 0.500000
vt 0.208167 0.500000
vt 0.208167 0.550000
vt 0.187250 0.550000
vt 0.208167 0.600000
vt 0.187250 0.600000
vt 0.187250 0.625000
vt 0.208167 0.625000
vt 0.187250 0.650000
vt 0.187250 0.675000
vt 0.208167 0.675000
vt 0.187250 0.700000
vt 0.781375 0.500000
vt 0.791833 0.500000
vt 0.791833 0.550000
vt 0.781375 0.550000
vt 0.791833 0.600000
vt 0.781375 0.600000
vt 0.781375 0.625000
vt 0.791833 0.625000
vt 0.791833 0.650000
vt 0.781375 0.650000
vt 0.770917 0.650000
vt 0.750000 0.500000
vt 0.770917 0.500000
vt 0.770917 0.550000
vt 0.750000 0.550000
vt 0.770917 0.600000
vt 0.750000 0.600000
vt 0.750000 0.625000
vt 0.770917 0.625000
vt 0.750000 0.650000
vt 0.750000 0.700000
vt 0.791833 0.675000
vt 0.875000 0.500000
vt 0.875000 0.550000
vt 0.875000 0.600000
vt 0.854084 0.625000
vt 0.875000 0.625000
vt 0.875000 0.650000
vt 0.375000 0.550000
vt 0.375000 0.600000
vt 0.354167 0.625000
vt 0.375000 0.625000
vt 0.375000 0.650000
vt 0.375000 0.125000
vt 0.625000 0.125000
vt 0.625000 0.150000
vt 0.375000 0.150000
vt 0.375000 0.100000
vt 0.151104 0.550000
vt 0.151104 0.500000
vt 0.843709 0.550000
vt 0.843709 0.600000
vt 0.843709 0.500000
vt 0.375000 0.276103
vt 0.625000 0.276103
vt 0.651042 0.550000
vt 0.651042 0.500000
vt 0.343750 0.550000
vt 0.343750 0.600000
vt 0.343750 0.500000
vt 0.625000 0.468750
vt 0.375000 0.468750
vt 0.625000 0.100000
s 0
f 33/1/1 38/2/1 2/3/1 1/4/1
f 27/5/2 25/6/2 4/7/2 3/8/2
f 204/9/3 202/10/3 8/11/3 32/12/3
f 212/13/4 211/14/4 7/15/4 13/16/4
f 26/17/5 32/18/5 8/19/5 7/20/5
f 14/21/2 12/22/2 6/23/2 5/24/2
f 17/25/2 20/26/2 10/27/2 9/28/2
f 7/20/5 8/19/5 16/29/5 13/30/5
f 202/10/3 203/31/3 16/32/3 8/11/3
f 64/33/6 68/34/6 16/32/6 203/31/6
f 9/28/2 10/27/2 11/35/2 15/36/2
f 130/37/2 129/38/2 12/22/2 14/21/2
f 72/39/7 76/40/7 212/13/7 13/16/7
f 1/4/2 2/3/2 19/41/2 18/42/2
f 145/43/2 146/44/2 20/26/2 17/25/2
f 128/45/8 93/46/8 97/47/8 125/48/8
f 105/49/9 109/50/9 204/9/9 32/12/9
f 211/14/4 213/51/4 26/52/4 7/15/4
f 113/53/10 117/54/10 26/52/10 213/51/10
f 5/24/2 6/23/2 21/55/2 31/56/2
f 138/57/2 137/58/2 22/59/2 30/60/2
f 30/60/2 22/59/2 23/61/2 29/62/2
f 29/62/2 23/61/2 24/63/2 28/64/2
f 188/65/2 158/66/2 25/6/2 27/5/2
f 188/67/11 27/68/11 126/69/11 189/70/11
f 189/70/11 126/69/11 127/71/11 190/72/11
f 176/73/12 190/72/12 127/71/12 124/74/12
f 124/74/10 128/45/10 125/48/10 210/75/10
f 29/76/13 28/77/13 122/78/13 118/79/13
f 118/79/13 122/78/13 123/80/13 119/81/13
f 175/82/14 176/73/14 124/74/14 120/83/14
f 209/84/4 210/75/4 125/48/4 121/85/4
f 30/86/13 29/76/13 118/79/13 114/87/13
f 114/87/13 118/79/13 119/81/13 115/88/13
f 174/89/14 175/82/14 120/83/14 116/90/14
f 208/91/4 209/84/4 121/85/4 117/54/4
f 138/92/13 30/86/13 114/87/13 139/93/13
f 139/93/13 114/87/13 115/88/13 140/94/13
f 184/95/15 174/89/15 116/90/15 141/96/15
f 112/97/16 141/96/16 116/90/16 113/53/16
f 5/98/13 31/99/13 110/100/13 49/101/13
f 49/101/13 110/100/13 111/102/13 50/103/13
f 160/104/13 173/105/13 112/97/13 51/106/13
f 51/106/4 112/97/4 113/53/4 52/107/4
f 137/108/17 21/109/17 106/110/17 142/111/17
f 142/111/17 106/110/17 107/112/17 143/113/17
f 183/114/18 172/115/18 108/116/18 144/117/18
f 104/118/19 144/117/19 108/116/19 109/50/19
f 23/119/17 22/120/17 102/121/17 98/122/17
f 98/122/17 102/121/17 103/123/17 99/124/17
f 170/125/20 171/126/20 104/118/20 100/127/20
f 206/128/3 207/129/3 105/49/3 101/130/3
f 24/131/17 23/119/17 98/122/17 94/132/17
f 94/132/17 98/122/17 99/124/17 95/133/17
f 169/134/20 170/125/20 100/127/20 96/135/20
f 205/136/3 206/128/3 101/130/3 97/47/3
f 151/137/21 24/131/21 94/132/21 155/138/21
f 155/138/21 94/132/21 95/133/21 156/139/21
f 178/140/22 156/139/22 95/133/22 169/134/22
f 93/46/9 96/135/9 205/136/9 97/47/9
f 4/7/23 25/141/23 91/142/23 42/143/23
f 42/143/23 91/142/23 92/144/23 43/145/23
f 192/146/24 193/147/24 93/46/24 44/148/24
f 185/149/25 19/150/25 88/151/25 186/152/25
f 186/152/25 88/151/25 89/153/25 187/154/25
f 168/155/26 187/154/26 89/153/26 86/156/26
f 86/156/27 90/157/27 87/158/27 201/159/27
f 10/160/17 20/161/17 84/162/17 57/163/17
f 57/163/17 84/162/17 85/164/17 58/165/17
f 162/166/20 168/155/20 86/156/20 59/167/20
f 199/168/3 201/159/3 87/158/3 60/169/3
f 145/170/28 17/171/28 80/172/28 149/173/28
f 149/173/28 80/172/28 81/174/28 150/175/28
f 180/176/29 150/175/29 81/174/29 167/177/29
f 79/178/30 82/179/30 216/180/30 83/181/30
f 1/182/31 18/183/31 77/184/31 33/185/31
f 33/185/31 77/184/31 78/186/31 34/187/31
f 195/188/32 197/189/32 79/178/32 35/190/32
f 130/191/13 14/192/13 73/193/13 131/194/13
f 131/194/13 73/193/13 74/195/13 132/196/13
f 182/197/33 166/198/33 75/199/33 133/200/33
f 71/201/34 133/200/34 75/199/34 76/40/34
f 9/202/13 15/203/13 69/204/13 53/205/13
f 53/205/13 69/204/13 70/206/13 54/207/13
f 161/208/14 165/209/14 71/201/14 55/210/14
f 214/211/4 215/212/4 72/39/4 56/213/4
f 129/214/17 11/215/17 65/216/17 134/217/17
f 134/217/17 65/216/17 66/218/17 135/219/17
f 181/220/35 164/221/35 67/222/35 136/223/35
f 63/224/36 136/223/36 67/222/36 64/33/36
f 6/225/17 12/226/17 61/227/17 45/228/17
f 45/228/17 61/227/17 62/229/17 46/230/17
f 159/231/17 163/232/17 63/224/17 47/233/17
f 47/233/3 63/224/3 64/33/3 48/234/3
f 11/215/17 10/160/17 57/163/17 65/216/17
f 65/216/17 57/163/17 58/165/17 66/218/17
f 164/221/20 162/166/20 59/167/20 67/222/20
f 200/235/3 199/168/3 60/169/3 68/34/3
f 17/171/13 9/202/13 53/205/13 80/172/13
f 80/172/13 53/205/13 54/207/13 81/174/13
f 167/177/14 161/208/14 55/210/14 82/179/14
f 216/180/4 214/211/4 56/213/4 83/181/4
f 14/192/13 5/98/13 49/101/13 73/193/13
f 73/193/13 49/101/13 50/103/13 74/195/13
f 166/198/13 160/104/13 51/106/13 75/199/13
f 75/199/4 51/106/4 52/107/4 76/40/4
f 21/109/17 6/225/17 45/228/17 106/110/17
f 106/110/17 45/228/17 46/230/17 107/112/17
f 172/115/17 159/231/17 47/233/17 108/116/17
f 108/116/3 47/233/3 48/234/3 109/50/3
f 19/150/37 2/236/37 38/237/37 88/151/37
f 88/151/37 38/237/37 37/238/37 89/153/37
f 198/239/38 196/240/38 36/241/38 90/157/38
f 27/68/39 3/8/39 41/242/39 126/69/39
f 126/69/39 41/242/39 40/243/39 127/71/39
f 194/244/40 191/245/40 39/246/40 128/45/40
f 3/8/41 4/7/41 42/143/41 41/242/41
f 41/242/41 42/143/41 43/145/41 40/243/41
f 191/245/41 192/146/41 44/148/41 39/246/41
f 195/247/1 196/248/1 37/249/1 34/250/1
f 34/250/1 37/249/1 38/2/1 33/1/1
f 72/39/5 68/34/5 60/169/5 56/213/5
f 87/158/5 83/181/5 56/213/5 60/169/5
f 16/29/42 68/34/42 72/39/42 13/30/42
f 79/178/5 90/157/5 36/241/5 35/251/5
f 121/85/5 101/130/5 105/49/5 117/54/5
f 125/48/5 97/47/5 101/130/5 121/85/5
f 90/157/43 79/178/43 83/181/43 87/158/43
f 93/46/5 128/45/5 39/246/5 44/148/5
f 26/17/8 117/54/8 105/49/8 32/18/8
f 124/74/10 127/71/10 194/244/10 128/45/10
f 82/179/30 79/178/30 197/189/30 78/186/30
f 86/156/27 89/153/27 198/239/27 90/157/27
f 96/135/9 93/46/9 193/147/9 92/144/9
f 76/40/7 72/39/7 215/212/7 71/201/7
f 109/50/9 105/49/9 207/129/9 104/118/9
f 64/33/6 67/222/6 200/235/6 68/34/6
f 113/53/10 116/90/10 208/91/10 117/54/10
f 163/232/44 181/220/44 136/223/44 63/224/44
f 61/227/17 134/217/17 135/219/17 62/229/17
f 12/226/17 129/214/17 134/217/17 61/227/17
f 165/209/45 182/197/45 133/200/45 71/201/45
f 69/204/13 131/194/13 132/196/13 70/206/13
f 15/203/13 130/191/13 131/194/13 69/204/13
f 15/36/2 11/35/2 129/38/2 130/37/2
f 171/126/46 183/114/46 144/117/46 104/118/46
f 102/121/17 142/111/17 143/113/17 103/123/17
f 22/120/17 137/108/17 142/111/17 102/121/17
f 173/105/47 184/95/47 141/96/47 112/97/47
f 110/100/13 139/93/13 140/94/13 111/102/13
f 31/99/13 138/92/13 139/93/13 110/100/13
f 31/56/2 21/55/2 137/58/2 138/57/2
f 179/252/48 149/173/48 150/175/48 180/176/48
f 157/253/48 145/170/48 149/173/48 179/252/48
f 84/162/49 147/254/49 148/255/49 85/164/49
f 20/161/49 146/256/49 147/254/49 84/162/49
f 157/257/2 185/258/2 146/44/2 145/43/2
f 177/259/50 155/138/50 156/139/50 178/140/50
f 158/260/50 151/137/50 155/138/50 177/259/50
f 122/78/51 153/261/51 154/262/51 123/80/51
f 28/77/51 152/263/51 153/261/51 122/78/51
f 28/64/2 24/63/2 151/264/2 152/265/2
f 25/141/52 158/260/52 177/259/52 91/142/52
f 91/142/52 177/259/52 178/140/52 92/144/52
f 18/42/2 19/41/2 185/258/2 157/257/2
f 18/183/53 157/253/53 179/252/53 77/184/53
f 77/184/53 179/252/53 180/176/53 78/186/53
f 111/102/54 140/94/54 184/95/54 173/105/54
f 103/123/55 143/113/55 183/114/55 171/126/55
f 70/206/56 132/196/56 182/197/56 165/209/56
f 62/229/57 135/219/57 181/220/57 163/232/57
f 107/112/17 46/230/17 159/231/17 172/115/17
f 74/195/13 50/103/13 160/104/13 166/198/13
f 81/174/58 54/207/58 161/208/58 167/177/58
f 66/218/59 58/165/59 162/166/59 164/221/59
f 46/230/17 62/229/17 163/232/17 159/231/17
f 135/219/60 66/218/60 164/221/60 181/220/60
f 54/207/58 70/206/58 165/209/58 161/208/58
f 132/196/61 74/195/61 166/198/61 182/197/61
f 78/186/62 180/176/62 167/177/62 82/179/62
f 58/165/59 85/164/59 168/155/59 162/166/59
f 85/164/63 148/255/63 187/154/63 168/155/63
f 147/254/64 186/152/64 187/154/64 148/255/64
f 146/256/64 185/149/64 186/152/64 147/254/64
f 92/144/65 178/140/65 169/134/65 96/135/65
f 95/133/59 99/124/59 170/125/59 169/134/59
f 99/124/59 103/123/59 171/126/59 170/125/59
f 143/113/66 107/112/66 172/115/66 183/114/66
f 50/103/13 111/102/13 173/105/13 160/104/13
f 140/94/67 115/88/67 174/89/67 184/95/67
f 115/88/58 119/81/58 175/82/58 174/89/58
f 119/81/58 123/80/58 176/73/58 175/82/58
f 123/80/68 154/262/68 190/72/68 176/73/68
f 153/261/69 189/70/69 190/72/69 154/262/69
f 152/263/69 188/67/69 189/70/69 153/261/69
f 152/265/2 151/264/2 158/66/2 188/65/2
f 40/243/41 43/145/41 192/146/41 191/245/41
f 127/71/70 40/243/70 191/245/70 194/244/70
f 43/145/71 92/144/71 193/147/71 192/146/71
f 35/251/1 36/266/1 196/248/1 195/247/1
f 89/153/72 37/238/72 196/240/72 198/239/72
f 34/187/73 78/186/73 197/189/73 195/188/73
f 67/222/3 59/167/3 199/168/3 200/235/3
f 59/167/3 86/156/3 201/159/3 199/168/3
f 48/234/3 64/33/3 203/31/3 202/10/3
f 109/50/3 48/234/3 202/10/3 204/9/3
f 96/135/3 100/127/3 206/128/3 205/136/3
f 100/127/3 104/118/3 207/129/3 206/128/3
f 116/90/4 120/83/4 209/84/4 208/91/4
f 120/83/4 124/74/4 210/75/4 209/84/4
f 52/107/4 113/53/4 213/51/4 211/14/4
f 76/40/4 52/107/4 211/14/4 212/13/4
f 82/179/4 55/210/4 214/211/4 216/180/4
f 55/210/4 71/201/4 215/212/4 214/211/4
