# Blender 5.2.1 LTS
# www.blender.org
mtllib CardboardBox.mtl
o CardboardBox
v 0.200000 0.000000 -0.152882
v 0.200000 0.234291 -0.152882
v 0.200000 0.000000 0.152882
v 0.200000 0.234291 0.152882
v -0.200000 0.000000 -0.152882
v -0.200000 0.234291 -0.152882
v -0.196018 0.000000 0.150004
v -0.200000 0.234291 0.152882
v 0.200000 0.183758 -0.152882
v 0.200000 0.183758 0.152882
v -0.200000 0.183758 0.152882
v -0.200000 0.183758 -0.152882
v 0.200000 0.000000 -0.023485
v 0.200000 0.000000 0.023485
v 0.200000 0.234291 0.018100
v 0.200000 0.234291 -0.028870
v -0.202533 0.000000 0.023485
v -0.200000 0.000000 -0.023485
v -0.200000 0.234291 -0.014071
v -0.200000 0.234291 0.032899
v -0.200000 0.172636 0.023485
v -0.200000 0.183758 -0.023485
v 0.200000 0.189170 -0.023485
v 0.200000 0.185903 0.023485
v 0.200000 0.091879 0.152882
v -0.200000 0.091879 0.152882
v -0.200000 0.091879 -0.152882
v 0.200000 0.091879 -0.152882
v -0.200000 0.091879 -0.023485
v -0.200000 0.086318 0.023485
v 0.203157 0.092952 0.023485
v 0.200000 0.094585 -0.023485
v 0.000000 0.000000 0.152882
v 0.000000 0.234291 0.152882
v 0.000000 0.000000 -0.152882
v 0.000000 0.234291 -0.152882
v 0.000000 0.183758 -0.158101
v 0.000000 0.183758 0.152882
v 0.000000 0.236139 -0.021470
v 0.000000 0.234291 0.025499
v 0.000000 0.000000 -0.023485
v 0.000000 0.000000 0.023485
v 0.000000 0.091879 0.157199
v 0.000000 0.091879 -0.152882
v 0.200000 0.000000 -0.088183
v 0.203157 0.186464 -0.088183
v -0.203459 0.000000 -0.088183
v 0.200000 0.234291 -0.090876
v -0.200000 0.234291 -0.083476
v -0.208315 0.183758 -0.088183
v -0.200000 0.091879 -0.088183
v 0.203157 0.093232 -0.088183
v 0.000000 0.234291 -0.087176
v 0.000000 0.000000 -0.088183
v 0.200000 0.000000 0.088183
v -0.200000 0.000000 0.088183
v 0.203157 0.184830 0.088183
v -0.200000 0.234291 0.092890
v 0.200000 0.234291 0.085491
v -0.200000 0.178197 0.088183
v -0.208315 0.089098 0.088183
v 0.200000 0.092415 0.088183
v 0.000000 0.234291 0.089191
v 0.000000 0.000000 0.088183
v -0.100000 0.234291 0.152882
v -0.100000 0.000000 -0.158101
v -0.100000 0.183758 0.157199
v -0.100000 0.240372 -0.017771
v -0.100000 0.000000 0.023485
v -0.100000 0.091879 0.152882
v -0.100000 0.000000 0.152882
v -0.100000 0.234291 -0.152882
v -0.100000 0.183758 -0.152882
v -0.100000 0.234291 0.029199
v -0.100000 0.000000 -0.023485
v -0.100000 0.091879 -0.152882
v -0.100000 0.240372 -0.085326
v -0.100000 0.000000 -0.088183
v -0.100000 0.240372 0.091040
v -0.100000 0.000000 0.088183
v 0.100000 0.000000 0.152882
v 0.100000 0.234291 -0.152882
v 0.100000 0.183758 -0.152882
v 0.100000 0.240372 0.021800
v 0.100000 0.000000 -0.023485
v 0.100000 0.091879 -0.158101
v 0.100000 0.234291 0.152882
v 0.100000 0.000000 -0.158101
v 0.100000 0.183758 0.157199
v 0.100000 0.234291 -0.025170
v 0.100000 0.000000 0.023485
v 0.100000 0.091879 0.152882
v 0.100000 0.000000 -0.088183
v 0.100000 0.240372 -0.089026
v 0.100000 0.000000 0.088183
v 0.100000 0.234291 0.087341
vn -0.0054 0.0155 0.9999
vn -0.0000 0.0427 0.9991
vn -0.0216 0.0427 0.9989
vn -0.0216 0.0096 0.9997
vn 0.0130 0.0200 -0.9997
vn 0.0130 0.0258 -0.9996
vn -0.0000 -0.0000 -1.0000
vn 0.0130 0.0142 -0.9998
vn 0.0065 0.0071 -1.0000
vn 0.0391 0.0142 -0.9991
vn -0.0145 -0.0157 0.9998
vn -0.0182 -0.0198 0.9996
vn -0.0037 0.9994 0.0339
vn -0.0440 0.9985 0.0331
vn -0.0299 0.9995 0.0060
vn -0.0016 0.9999 0.0125
vn -0.0000 -1.0000 -0.0000
vn -0.9999 -0.0033 0.0167
vn -0.9999 0.0165 0.0003
vn -0.9993 -0.0094 -0.0350
vn -0.9994 0.0069 -0.0346
vn 0.9999 -0.0044 -0.0106
vn 0.9998 -0.0169 -0.0048
vn 0.9998 -0.0168 -0.0047
vn 1.0000 -0.0040 0.0018
vn -0.9991 0.0324 0.0273
vn -0.9994 0.0092 0.0333
vn -0.9998 0.0125 -0.0177
vn -1.0000 -0.0000 -0.0000
vn 0.9998 0.0141 -0.0110
vn 0.9998 0.0126 -0.0149
vn 0.9999 0.0126 0.0098
vn 0.9997 0.0194 0.0130
vn 1.0000 -0.0085 -0.0001
vn 0.9999 0.0169 0.0004
vn 0.9999 -0.0086 0.0122
vn 0.9999 0.0114 0.0067
vn 0.9997 0.0073 0.0242
vn 0.9999 -0.0085 0.0120
vn 0.0005 0.9997 0.0232
vn 0.0160 0.9996 0.0231
vn 0.0298 0.9995 -0.0108
vn 0.0020 1.0000 -0.0041
vn 0.9994 0.0336 -0.0016
vn 0.9995 0.0312 -0.0006
vn 0.9992 0.0322 0.0241
vn 0.0026 1.0000 -0.0035
vn 0.0308 0.9995 -0.0006
vn 0.0299 0.9984 -0.0482
vn -0.0004 0.9989 -0.0476
vn -0.9999 -0.0025 0.0122
vn -0.9997 0.0233 0.0002
vn -0.9999 -0.0132 -0.0000
vn -0.9999 0.0170 -0.0018
vn -0.9978 0.0198 -0.0630
vn -0.9989 -0.0132 -0.0454
vn -0.9969 0.0788 0.0036
vn -0.9945 0.0847 -0.0617
vn -0.9998 0.0188 -0.0000
vn -0.9995 0.0188 -0.0267
vn -0.9983 -0.0512 0.0273
vn 0.9999 -0.0085 0.0122
vn 1.0000 -0.0000 -0.0000
vn 0.9999 -0.0169 0.0002
vn -0.0181 -0.0197 0.9996
vn -0.0147 -0.0160 0.9998
vn 0.0521 -0.0000 -0.9986
vn -0.0000 0.0284 -0.9996
vn -0.0065 0.0071 -1.0000
vn -0.0130 -0.0000 -0.9999
vn -0.0130 0.0142 -0.9998
vn 0.0108 -0.0117 0.9999
vn -0.0000 -0.0117 0.9999
vn -0.0000 -0.0235 0.9997
vn -0.0025 0.9997 -0.0260
vn 0.0075 0.9998 -0.0183
vn -0.0004 0.9989 -0.0462
vn -0.0004 0.9990 -0.0450
vn -0.0005 1.0000 -0.0000
vn 0.0078 0.9999 0.0113
vn 0.0003 0.9999 0.0108
vn 0.0042 1.0000 -0.0074
vn 0.0082 0.9999 0.0135
vn 0.0054 0.0155 0.9999
vn -0.0000 0.0214 0.9998
vn -0.0130 0.0058 -0.9999
vn -0.0065 0.0187 -0.9998
vn -0.0130 0.0258 -0.9996
vn -0.0000 0.0516 -0.9987
vn 0.9996 -0.0170 -0.0242
vn 0.9993 -0.0086 -0.0363
vn 0.0299 0.9995 -0.0069
vn 0.9992 0.0153 -0.0375
vn 0.9992 0.0314 -0.0256
vn 0.0005 0.9988 0.0491
vn 0.0154 0.9996 0.0242
vn -0.9928 -0.0690 0.0980
vn -0.9968 -0.0096 0.0791
vn -0.9993 0.0217 0.0289
vn -0.0000 1.0000 -0.0000
vn -0.0299 0.9983 0.0498
vn -0.0308 0.9995 0.0006
vn -0.0459 0.9987 -0.0219
vn -0.0308 0.9985 -0.0443
vn -0.0261 0.0284 -0.9993
vn 0.0216 0.0096 0.9997
vn 0.0216 0.0427 0.9989
vn -0.0000 -0.0000 1.0000
vt 0.494962 0.544452
vt 0.495040 0.498005
vt 0.586779 0.498122
vt 0.586719 0.544528
vt 0.311172 0.170217
vt 0.311151 0.216609
vt 0.219322 0.216660
vt 0.219287 0.170228
vt 0.311340 0.085622
vt 0.219271 0.085727
vt 0.494792 0.628603
vt 0.586496 0.628980
vt 0.876821 0.373841
vt 0.879513 0.281834
vt 0.922635 0.281335
vt 0.920300 0.373182
vt 0.312457 0.875158
vt 0.220493 0.875705
vt 0.220248 0.832494
vt 0.312192 0.831991
vt 0.717842 0.336009
vt 0.802171 0.336164
vt 0.802123 0.379304
vt 0.722924 0.379124
vt 0.089516 0.379009
vt 0.004036 0.378991
vt 0.004061 0.335783
vt 0.091020 0.335759
vt 0.870333 0.235540
vt 0.913337 0.224830
vt 0.913456 0.649064
vt 0.918839 0.693440
vt 0.875687 0.690868
vt 0.870333 0.649491
vt 0.089752 0.276239
vt 0.175361 0.276195
vt 0.177950 0.335693
vt 0.495201 0.771435
vt 0.586859 0.770229
vt 0.589887 0.829660
vt 0.495776 0.830688
vt 0.496705 0.933212
vt 0.591790 0.932301
vt 0.589178 0.991817
vt 0.497280 0.997483
vt 0.088955 0.438534
vt 0.173930 0.438423
vt 0.172972 0.497979
vt 0.088465 0.498016
vt 0.311436 0.437722
vt 0.219506 0.435926
vt 0.219487 0.373885
vt 0.311373 0.377434
vt 0.219383 0.273637
vt 0.219443 0.330693
vt 0.219481 0.497935
vt 0.311219 0.275357
vt 0.720136 0.438668
vt 0.638377 0.438768
vt 0.643579 0.379202
vt 0.717915 0.276572
vt 0.633609 0.276354
vt 0.633741 0.216803
vt 0.718089 0.217130
vt 0.586812 0.443026
vt 0.586842 0.387820
vt 0.586925 0.280873
vt 0.587070 0.216983
vt 0.802373 0.276740
vt 0.802417 0.217308
vt 0.801899 0.438664
vt 0.003996 0.438490
vt 0.003974 0.497986
vt 0.004024 0.276274
vt 0.174985 0.378870
vt 0.633380 0.335990
vt 0.494505 0.712464
vt 0.582367 0.713463
vt 0.311295 0.001126
vt 0.219185 0.001209
vt 0.495500 0.001049
vt 0.495329 0.085722
vt 0.403390 0.085571
vt 0.403421 0.001113
vt 0.311615 0.713143
vt 0.311390 0.628829
vt 0.403157 0.628561
vt 0.403309 0.712754
vt 0.495021 0.279056
vt 0.403081 0.277173
vt 0.403080 0.216718
vt 0.495049 0.216772
vt 0.495018 0.441158
vt 0.403245 0.439344
vt 0.403191 0.380876
vt 0.494996 0.384284
vt 0.312851 0.934642
vt 0.404796 0.933981
vt 0.405263 0.993477
vt 0.313299 0.998951
vt 0.311870 0.772556
vt 0.403623 0.772085
vt 0.404025 0.831420
vt 0.496169 0.873783
vt 0.404341 0.874539
vt 0.872822 0.557648
vt 0.875171 0.465785
vt 0.918323 0.465038
vt 0.916302 0.557062
vt 0.311455 0.544468
vt 0.403258 0.544239
vt 0.495130 0.170290
vt 0.403098 0.170034
vt 0.311422 0.497914
vt 0.403270 0.497876
vt 0.494967 0.340885
vt 0.403110 0.337614
vt 0.003974 0.216798
vt 0.088437 0.216728
vt 0.586886 0.344648
vt 0.311275 0.334078
vt 0.172892 0.216693
vt 0.588027 0.872855
vt 0.802042 0.495734
vt 0.717457 0.498267
vt 0.633185 0.498158
vt 0.587160 0.170500
vt 0.587359 0.085974
vt 0.587606 0.001469
vt 0.219735 0.713456
vt 0.219957 0.772969
vt 0.220862 0.935234
vt 0.219503 0.544407
vt 0.219519 0.628946
vt 0.221254 0.994763
s 1
f 67/1/1 65/2/2 8/3/3 11/4/4
f 83/5/5 82/6/6 2/7/7 9/8/8
f 86/9/9 83/5/5 9/8/8 28/10/10
f 70/11/11 67/1/1 11/4/4 26/12/12
f 68/13/13 19/14/14 20/15/15 74/16/16
f 85/17/17 13/18/17 14/19/17 91/20/17
f 29/21/18 18/22/19 17/23/20 30/24/21
f 31/25/22 14/26/23 13/27/24 32/28/25
f 19/14/26 22/29/27 21/30/28 20/15/29
f 15/31/30 24/32/31 23/33/32 16/34/33
f 52/35/34 46/36/35 23/37/32 32/28/25
f 80/38/17 56/39/17 17/40/17 69/41/17
f 78/42/17 47/43/17 5/44/17 66/45/17
f 62/46/36 57/47/37 10/48/38 25/49/39
f 96/50/40 59/51/41 15/52/42 84/53/43
f 46/36/35 48/54/44 16/55/33 23/37/32
f 57/47/37 59/51/45 4/56/46 10/48/38
f 94/57/47 48/54/48 2/7/49 82/6/50
f 61/58/51 60/59/52 21/60/28 30/24/21
f 51/61/53 50/62/54 12/63/55 27/64/56
f 60/59/52 58/65/29 20/66/29 21/60/28
f 50/62/54 49/67/57 6/68/58 12/63/55
f 47/69/59 51/61/53 27/64/56 5/70/60
f 56/71/61 61/58/51 30/24/21 17/23/20
f 55/72/62 62/46/36 25/49/39 3/73/63
f 45/74/64 52/35/34 32/28/25 13/27/24
f 24/75/31 31/25/22 32/28/25 23/37/32
f 22/76/27 29/21/18 30/24/21 21/60/28
f 71/77/65 70/11/11 26/12/12 7/78/66
f 88/79/7 86/9/9 28/10/10 1/80/67
f 66/81/68 76/82/69 44/83/70 35/84/71
f 81/85/72 92/86/72 43/87/73 33/88/74
f 77/89/75 53/90/76 36/91/77 72/92/78
f 79/93/79 63/94/80 40/95/81 74/96/16
f 93/97/17 54/98/17 35/99/17 88/100/17
f 95/101/17 64/102/17 42/103/17 91/20/17
f 75/104/17 41/105/17 42/103/17 69/41/17
f 90/106/82 39/107/83 40/108/81 84/109/43
f 92/86/72 89/110/84 38/111/85 43/87/73
f 76/82/69 73/112/86 37/113/87 44/83/70
f 73/112/86 72/92/88 36/91/89 37/113/87
f 89/110/84 87/114/2 34/115/2 38/111/85
f 85/17/17 41/105/17 54/98/17 93/97/17
f 68/116/13 39/117/83 53/90/76 77/89/75
f 1/118/90 28/119/91 52/35/34 45/74/64
f 18/22/19 29/21/18 51/61/53 47/69/59
f 22/76/27 19/120/26 49/67/57 50/62/54
f 29/21/18 22/76/27 50/62/54 51/61/53
f 90/121/82 16/55/92 48/54/48 94/57/47
f 9/122/93 2/7/94 48/54/44 46/36/35
f 75/104/17 18/123/17 47/43/17 78/42/17
f 28/119/91 9/122/93 46/36/35 52/35/34
f 81/85/17 33/88/17 64/102/17 95/101/17
f 65/2/95 34/115/96 63/94/80 79/93/79
f 14/26/23 31/25/22 62/46/36 55/72/62
f 7/124/97 26/125/98 61/58/51 56/71/61
f 11/126/99 8/3/29 58/65/29 60/59/52
f 26/125/98 11/126/99 60/59/52 61/58/51
f 24/75/31 15/52/30 59/51/45 57/47/37
f 87/114/100 4/56/100 59/51/41 96/50/40
f 31/25/22 24/75/31 57/47/37 62/46/36
f 71/77/17 7/78/17 56/39/17 80/38/17
f 33/88/17 71/77/17 80/38/17 64/102/17
f 8/3/101 65/2/95 79/93/79 58/65/102
f 41/105/17 75/104/17 78/42/17 54/98/17
f 19/120/14 68/116/13 77/89/75 49/67/103
f 12/127/7 6/68/7 72/92/88 73/112/86
f 27/128/71 12/127/7 73/112/86 76/82/69
f 18/123/17 75/104/17 69/41/17 17/40/17
f 58/65/102 79/93/79 74/96/16 20/66/15
f 49/67/103 77/89/75 72/92/78 6/68/104
f 5/129/105 27/128/71 76/82/69 66/81/68
f 33/88/74 43/87/73 70/11/11 71/77/65
f 54/98/17 78/42/17 66/45/17 35/99/17
f 64/102/17 80/38/17 69/41/17 42/103/17
f 39/107/83 68/13/13 74/16/16 40/108/81
f 43/87/73 38/111/85 67/1/1 70/11/11
f 38/111/85 34/115/2 65/2/2 67/1/1
f 34/115/96 87/114/100 96/50/40 63/94/80
f 3/130/17 81/85/17 95/101/17 55/131/17
f 39/117/83 90/121/82 94/57/47 53/90/76
f 13/18/17 85/17/17 93/97/17 45/132/17
f 10/133/106 4/56/107 87/114/2 89/110/84
f 25/134/72 10/133/106 89/110/84 92/86/72
f 16/34/92 90/106/82 84/109/43 15/31/42
f 55/131/17 95/101/17 91/20/17 14/19/17
f 45/132/17 93/97/17 88/100/17 1/135/17
f 3/130/108 25/134/72 92/86/72 81/85/72
f 35/84/71 44/83/70 86/9/9 88/79/7
f 53/90/76 94/57/47 82/6/50 36/91/77
f 63/94/80 96/50/40 84/53/43 40/95/81
f 41/105/17 85/17/17 91/20/17 42/103/17
f 44/83/70 37/113/87 83/5/5 86/9/9
f 37/113/87 36/91/89 82/6/6 83/5/5
