# Blender 5.2.1 LTS
# www.blender.org
mtllib FanBlades.mtl
o FanBlades
v 0.051160 1.168028 3.594822
v 0.051160 3.057938 2.221722
v 0.051160 3.779819 0.000000
v 0.051160 3.057938 -2.221722
v 0.051160 1.168028 -3.594822
v 0.051160 -1.168029 -3.594822
v 0.051160 -3.057938 -2.221722
v 0.051160 -3.779819 0.000000
v 0.051160 -3.057938 2.221722
v 0.051160 -1.168029 3.594822
v 0.316333 0.584013 3.687320
v -0.198040 1.694875 3.326380
v 0.316333 2.639830 2.639830
v -0.198040 3.326380 1.694875
v 0.316333 3.687320 0.584014
v -0.198040 3.687320 -0.584014
v 0.316333 3.326380 -1.694875
v -0.198040 2.639830 -2.639830
v 0.316333 1.694875 -3.326380
v -0.198040 0.584013 -3.687320
v 0.316333 -0.584015 -3.687320
v -0.198041 -1.694875 -3.326380
v 0.316333 -2.639830 -2.639830
v -0.198041 -3.326380 -1.694875
v 0.316333 -3.687321 -0.584014
v -0.198041 -3.687321 0.584014
v 0.316333 -3.326380 1.694875
v -0.198041 -2.639830 2.639830
v 0.316333 -1.694875 3.326380
v -0.198040 -0.584015 3.687320
v 0.051160 0.092955 0.586900
v 0.051160 -0.000001 0.601623
v 0.051160 0.269768 0.529450
v 0.051160 0.156937 0.483002
v 0.051160 0.420173 0.420175
v 0.051160 0.353624 0.486723
v 0.051160 0.529450 0.269768
v 0.051160 0.410866 0.298511
v 0.051160 0.586900 0.092956
v 0.051160 0.572177 0.185912
v 0.051160 0.586900 -0.092956
v 0.051160 0.507859 0.000000
v 0.051160 0.529450 -0.269768
v 0.051160 0.572177 -0.185912
v 0.051160 0.420173 -0.420175
v 0.051160 0.410867 -0.298511
v 0.051160 0.269768 -0.529450
v 0.051160 0.353624 -0.486724
v 0.051160 0.092955 -0.586900
v 0.051160 0.156938 -0.483002
v 0.051160 -0.092957 -0.586900
v 0.051160 -0.000001 -0.601623
v 0.051160 -0.269768 -0.529450
v 0.051160 -0.156938 -0.483002
v 0.051160 -0.420174 -0.420174
v 0.051160 -0.353625 -0.486723
v 0.051160 -0.529451 -0.269768
v 0.051160 -0.410867 -0.298512
v 0.051160 -0.586900 -0.092956
v 0.051160 -0.572178 -0.185912
v 0.051160 -0.586900 0.092956
v 0.051160 -0.507859 0.000000
v 0.051160 -0.529451 0.269768
v 0.051160 -0.572178 0.185912
v 0.051160 -0.420174 0.420174
v 0.051160 -0.410867 0.298511
v 0.051160 -0.269768 0.529450
v 0.051160 -0.353625 0.486723
v 0.051160 -0.092957 0.586900
v 0.051160 -0.156938 0.483002
v 0.051160 0.000000 0.000000
v 0.051160 0.078468 0.495430
v 0.051160 -0.000001 0.507859
v 0.051160 0.185912 0.572177
v 0.051160 0.227724 0.446934
v 0.051160 0.354688 0.354690
v 0.051160 0.298511 0.410867
v 0.051160 0.486722 0.353624
v 0.051160 0.446934 0.227724
v 0.051160 0.495430 0.078468
v 0.051160 0.483002 0.156937
v 0.051160 0.601623 0.000000
v 0.051160 0.495430 -0.078468
v 0.051160 0.446934 -0.227724
v 0.051160 0.483002 -0.156937
v 0.051160 0.486723 -0.353625
v 0.051160 0.354688 -0.354690
v 0.051160 0.227724 -0.446934
v 0.051160 0.298511 -0.410867
v 0.051160 0.185912 -0.572177
v 0.051160 0.078468 -0.495430
v 0.051160 -0.078469 -0.495430
v 0.051160 -0.000001 -0.507859
v 0.051160 -0.185912 -0.572177
v 0.051160 -0.227724 -0.446934
v 0.051160 -0.354689 -0.354689
v 0.051160 -0.298512 -0.410866
v 0.051160 -0.486723 -0.353625
v 0.051160 -0.446935 -0.227724
v 0.051160 -0.495430 -0.078469
v 0.051160 -0.483003 -0.156937
v 0.051160 -0.601623 0.000000
v 0.051160 -0.495430 0.078469
v 0.051160 -0.446935 0.227724
v 0.051160 -0.483003 0.156937
v 0.051160 -0.486723 0.353625
v 0.051160 -0.354689 0.354689
v 0.051160 -0.227724 0.446935
v 0.051160 -0.298512 0.410867
v 0.051160 -0.185912 0.572177
v 0.051160 -0.078469 0.495430
v -0.043976 0.036780 0.232227
v -0.043976 -0.000000 0.238053
v -0.043976 0.269768 0.529450
v -0.043976 0.185912 0.572177
v -0.043976 0.166255 0.166257
v -0.043976 0.139923 0.192589
v -0.043976 0.529450 0.269768
v -0.043976 0.486722 0.353624
v -0.043976 0.232227 0.036780
v -0.043976 0.226401 0.073562
v -0.043976 0.586900 -0.092956
v -0.043976 0.601623 0.000000
v -0.043976 0.209495 -0.106743
v -0.043976 0.226401 -0.073563
v -0.043976 0.420173 -0.420175
v -0.043976 0.486723 -0.353625
v -0.043976 0.106743 -0.209495
v -0.043976 0.139923 -0.192589
v -0.043976 0.092955 -0.586900
v -0.043976 0.185912 -0.572177
v -0.043976 -0.036781 -0.232227
v -0.043976 -0.000000 -0.238053
v -0.043976 -0.269768 -0.529450
v -0.043976 -0.185912 -0.572177
v -0.043976 -0.166256 -0.166256
v -0.043976 -0.139924 -0.192589
v -0.043976 -0.529451 -0.269768
v -0.043976 -0.486723 -0.353625
v -0.043976 -0.232227 -0.036782
v -0.043976 -0.226402 -0.073563
v -0.043976 -0.586900 0.092956
v -0.043976 -0.601623 0.000000
v -0.043976 -0.209496 0.106742
v -0.043976 -0.226402 0.073563
v -0.043976 -0.420174 0.420174
v -0.043976 -0.486723 0.353625
v -0.043976 -0.106743 0.209495
v -0.043976 -0.139924 0.192589
v -0.043976 -0.092957 0.586900
v -0.043976 -0.185912 0.572177
v -0.043976 0.092955 0.586900
v -0.043976 0.106743 0.209495
v -0.043976 0.420173 0.420175
v -0.043976 0.209496 0.106741
v -0.043976 0.586900 0.092956
v -0.043976 0.232227 -0.036780
v -0.043976 0.529450 -0.269768
v -0.043976 0.166255 -0.166257
v -0.043976 0.269768 -0.529450
v -0.043976 0.036781 -0.232227
v -0.043976 -0.092957 -0.586900
v -0.043976 -0.106743 -0.209495
v -0.043976 -0.420174 -0.420174
v -0.043976 -0.209496 -0.106743
v -0.043976 -0.586900 -0.092956
v -0.043976 -0.232227 0.036782
v -0.043976 -0.529451 0.269768
v -0.043976 -0.166256 0.166257
v -0.043976 -0.269768 0.529450
v -0.043976 -0.036781 0.232227
v -0.293176 1.694875 3.326380
v -0.043976 1.168028 3.594822
v -0.293176 3.326380 1.694875
v -0.043976 3.057938 2.221722
v -0.293176 3.687320 -0.584014
v -0.043975 3.779819 0.000000
v -0.293176 2.639830 -2.639830
v -0.043976 3.057938 -2.221722
v -0.293176 0.584013 -3.687320
v -0.043976 1.168028 -3.594822
v -0.293176 -1.694875 -3.326380
v -0.043976 -1.168029 -3.594822
v -0.293177 -3.326380 -1.694875
v -0.043976 -3.057938 -2.221722
v -0.293177 -3.687321 0.584014
v -0.043976 -3.779819 0.000000
v -0.293177 -2.639830 2.639830
v -0.043976 -3.057938 2.221722
v -0.293176 -0.584015 3.687320
v -0.043976 -1.168029 3.594822
v 0.221197 0.584013 3.687320
v 0.221197 2.639830 2.639830
v 0.221197 3.687320 0.584014
v 0.221197 3.326380 -1.694875
v 0.221197 1.694875 -3.326380
v 0.221197 -0.584015 -3.687320
v 0.221197 -2.639830 -2.639830
v 0.221197 -3.687321 -0.584014
v 0.221197 -3.326380 1.694875
v 0.221197 -1.694875 3.326380
v -0.043976 -0.507859 0.000000
v -0.043976 -0.410867 0.298511
v -0.043976 0.507859 0.000000
v -0.043976 0.410867 -0.298511
v -0.043976 0.410866 0.298511
v -0.043976 -0.410867 -0.298512
v -0.043976 -0.156938 0.483002
v -0.043976 0.156938 -0.483002
v -0.043976 0.156937 0.483002
v -0.043976 -0.156938 -0.483002
v -0.043976 -0.000001 0.601623
v -0.043976 0.353624 0.486723
v -0.043976 0.572177 0.185912
v -0.043976 0.572177 -0.185912
v -0.043976 0.353624 -0.486724
v -0.043976 -0.000001 -0.601623
v -0.043976 -0.353625 -0.486723
v -0.043976 -0.572178 -0.185912
v -0.043976 -0.572178 0.185912
v -0.043976 -0.353625 0.486723
v -0.043976 0.078468 0.495430
v -0.043976 -0.000001 0.507859
v -0.043976 0.354688 0.354690
v -0.043976 0.298511 0.410867
v -0.043976 0.495430 0.078468
v -0.043976 0.483002 0.156937
v -0.043976 0.446934 -0.227724
v -0.043976 0.483002 -0.156937
v -0.043976 0.227724 -0.446934
v -0.043976 0.298511 -0.410867
v -0.043976 -0.078469 -0.495430
v -0.043976 -0.000001 -0.507859
v -0.043976 -0.354689 -0.354689
v -0.043976 -0.298512 -0.410866
v -0.043976 -0.495430 -0.078469
v -0.043976 -0.483003 -0.156937
v -0.043976 -0.446935 0.227724
v -0.043976 -0.483003 0.156937
v -0.043976 -0.227724 0.446935
v -0.043976 -0.298512 0.410867
v -0.043976 0.227724 0.446934
v -0.043976 0.446934 0.227724
v -0.043976 0.495430 -0.078468
v -0.043976 0.354688 -0.354690
v -0.043976 0.078468 -0.495430
v -0.043976 -0.227724 -0.446934
v -0.043976 -0.446935 -0.227724
v -0.043976 -0.495430 0.078469
v -0.043976 -0.354689 0.354689
v -0.043976 -0.078469 0.495430
v -0.043976 0.073562 0.226401
v -0.043976 0.192588 0.139924
v -0.043976 0.238053 0.000000
v -0.043976 0.192589 -0.139923
v -0.043976 0.073563 -0.226401
v -0.043976 -0.073563 -0.226401
v -0.043976 -0.192589 -0.139923
v -0.043976 -0.238053 0.000000
v -0.043976 -0.192589 0.139923
v -0.043976 -0.073563 0.226401
v -0.143459 0.078468 0.495430
v -0.143459 -0.000001 0.507859
v -0.143459 0.249074 0.488836
v -0.143459 0.171650 0.528285
v -0.143459 0.354688 0.354690
v -0.143459 0.298511 0.410867
v -0.143459 0.488836 0.249074
v -0.143459 0.449386 0.326498
v -0.143459 0.495430 0.078468
v -0.143459 0.483002 0.156937
v -0.143459 0.541879 -0.085825
v -0.143459 0.555472 0.000000
v -0.143459 0.446934 -0.227724
v -0.143459 0.483002 -0.156937
v -0.143459 0.387941 -0.387943
v -0.143459 0.449387 -0.326498
v -0.143459 0.227724 -0.446934
v -0.143459 0.298511 -0.410867
v -0.143459 0.085825 -0.541878
v -0.143459 0.171651 -0.528285
v -0.143459 -0.078469 -0.495430
v -0.143459 -0.000001 -0.507859
v -0.143459 -0.249074 -0.488836
v -0.143459 -0.171651 -0.528285
v -0.143459 -0.354689 -0.354689
v -0.143459 -0.298512 -0.410866
v -0.143459 -0.488836 -0.249074
v -0.143459 -0.449387 -0.326498
v -0.143459 -0.495430 -0.078469
v -0.143459 -0.483003 -0.156937
v -0.143459 -0.541879 0.085825
v -0.143459 -0.555472 0.000000
v -0.143459 -0.446935 0.227724
v -0.143459 -0.483003 0.156937
v -0.143459 -0.387942 0.387942
v -0.143459 -0.449387 0.326498
v -0.143459 -0.227724 0.446935
v -0.143459 -0.298512 0.410867
v -0.143459 -0.085826 0.541878
v -0.143459 -0.171651 0.528285
v -0.143459 0.085825 0.541879
v -0.143459 0.227724 0.446934
v -0.143459 0.387941 0.387943
v -0.143459 0.446934 0.227724
v -0.143459 0.541879 0.085825
v -0.143459 0.495430 -0.078468
v -0.143459 0.488836 -0.249074
v -0.143459 0.354688 -0.354690
v -0.143459 0.249074 -0.488836
v -0.143459 0.078468 -0.495430
v -0.143459 -0.085826 -0.541878
v -0.143459 -0.227724 -0.446934
v -0.143459 -0.387943 -0.387942
v -0.143459 -0.446935 -0.227724
v -0.143459 -0.541879 -0.085825
v -0.143459 -0.495430 0.078469
v -0.143459 -0.488836 0.249074
v -0.143459 -0.354689 0.354689
v -0.143459 -0.249074 0.488836
v -0.143459 -0.078469 0.495430
v -0.313451 0.000000 0.000000
v -0.143459 -0.206354 0.000000
v -0.143459 -0.166944 0.121291
v -0.143459 0.206354 0.000000
v -0.143459 0.166944 -0.121291
v -0.143459 0.166943 0.121291
v -0.143459 -0.166944 -0.121291
v -0.143459 -0.063768 0.196254
v -0.143459 0.063768 -0.196254
v -0.143459 0.063767 0.196254
v -0.143459 -0.063768 -0.196254
v -0.143459 -0.201304 0.031884
v -0.143459 0.201303 -0.031883
v -0.143459 0.201303 0.031883
v -0.143459 -0.201304 -0.031884
v -0.143459 -0.181599 -0.092529
v -0.143459 0.181599 0.092528
v -0.143459 -0.181600 0.092528
v -0.143459 0.181599 -0.092529
v -0.143459 0.144117 -0.144118
v -0.143459 -0.144117 0.144118
v -0.143459 -0.092530 0.181599
v -0.143459 0.092530 -0.181599
v -0.143459 -0.031884 0.201304
v -0.143459 0.031883 -0.201304
v -0.143459 -0.031884 -0.201304
v -0.143459 0.031882 0.201304
v -0.143459 0.092529 0.181599
v -0.143459 -0.092530 -0.181599
v -0.143459 -0.144118 -0.144118
v -0.143459 0.144116 0.144119
v -0.143459 -0.000001 0.555472
v -0.143459 0.156937 0.483002
v -0.143459 0.326497 0.449387
v -0.143459 0.410866 0.298511
v -0.143459 0.528285 0.171651
v -0.143459 0.507859 0.000000
v -0.143459 0.528285 -0.171650
v -0.143459 0.410867 -0.298511
v -0.143459 0.326498 -0.449387
v -0.143459 0.156938 -0.483002
v -0.143459 -0.000001 -0.555472
v -0.143459 -0.156938 -0.483002
v -0.143459 -0.326499 -0.449386
v -0.143459 -0.410867 -0.298512
v -0.143459 -0.528286 -0.171650
v -0.143459 -0.507859 0.000000
v -0.143459 -0.528286 0.171650
v -0.143459 -0.410867 0.298511
v -0.143459 -0.326499 0.449386
v -0.143459 -0.156938 0.483002
v -0.143459 -0.000000 0.206354
v -0.143459 0.121291 0.166944
v -0.143459 0.196254 0.063767
v -0.143459 0.196254 -0.063767
v -0.143459 0.121291 -0.166944
v -0.143459 -0.000000 -0.206354
v -0.143459 -0.121292 -0.166944
v -0.143459 -0.196254 -0.063768
v -0.143459 -0.196254 0.063767
v -0.143459 -0.121292 0.166944
vn 1.0000 -0.0000 -0.0000
vn 0.9799 0.1895 -0.0618
vn 0.9931 0.1126 -0.0330
vn 0.9379 0.3330 -0.0976
vn 0.9343 0.3390 -0.1105
vn 0.9799 0.1170 -0.1614
vn 0.9931 0.0717 -0.0928
vn 0.9379 0.2120 -0.2747
vn 0.9343 0.2093 -0.2886
vn 0.9799 -0.0002 -0.1994
vn 0.9931 0.0034 -0.1172
vn 0.9379 0.0101 -0.3468
vn 0.9343 -0.0003 -0.3565
vn 0.9799 -0.1173 -0.1612
vn 0.9931 -0.0662 -0.0969
vn 0.9379 -0.1957 -0.2865
vn 0.9343 -0.2098 -0.2883
vn 0.9799 -0.1896 -0.0615
vn 0.9931 -0.1105 -0.0395
vn 0.9379 -0.3267 -0.1168
vn 0.9343 -0.3392 -0.1099
vn 0.9799 -0.1895 0.0618
vn 0.9931 -0.1126 0.0330
vn 0.9379 -0.3330 0.0976
vn 0.9343 -0.3390 0.1105
vn 0.9799 -0.1171 0.1614
vn 0.9931 -0.0717 0.0928
vn 0.9379 -0.2120 0.2747
vn 0.9343 -0.2093 0.2886
vn 0.9799 0.0002 0.1994
vn 0.9931 -0.0034 0.1172
vn 0.9379 -0.0101 0.3468
vn 0.9343 0.0003 0.3565
vn 0.9799 0.1173 0.1612
vn 0.9931 0.0662 0.0969
vn 0.9379 0.1957 0.2865
vn 0.9343 0.2098 0.2883
vn 0.9799 0.1896 0.0615
vn 0.9931 0.1105 0.0395
vn 0.9379 0.3267 0.1168
vn 0.9343 0.3392 0.1099
vn 0.9923 0.1168 -0.0417
vn 0.9305 0.3449 -0.1233
vn 0.9923 0.0700 -0.1024
vn 0.9305 0.2066 -0.3025
vn 0.9923 -0.0036 -0.1240
vn 0.9305 -0.0107 -0.3662
vn 0.9923 -0.0758 -0.0982
vn 0.9305 -0.2239 -0.2900
vn 0.9923 -0.1190 -0.0349
vn 0.9305 -0.3515 -0.1030
vn 0.9923 -0.1168 0.0417
vn 0.9305 -0.3450 0.1233
vn 0.9923 -0.0700 0.1024
vn 0.9305 -0.2066 0.3025
vn 0.9923 0.0036 0.1240
vn 0.9305 0.0107 0.3662
vn 0.9923 0.0758 0.0982
vn 0.9305 0.2239 0.2900
vn 0.9923 0.1190 0.0349
vn 0.9305 0.3515 0.1030
vn -0.3002 -0.4331 -0.8499
vn -0.3036 -0.2944 -0.9062
vn -0.9343 -0.3390 0.1104
vn -0.9343 -0.3390 0.1105
vn -0.9379 -0.3330 0.0976
vn -0.9343 -0.2093 0.2886
vn -0.9379 -0.2120 0.2747
vn -0.9343 0.0003 0.3565
vn -0.9379 -0.0101 0.3468
vn -0.9343 0.2098 0.2883
vn -0.9379 0.1957 0.2865
vn -0.9343 0.3392 0.1099
vn -0.9379 0.3267 0.1168
vn -0.9343 0.3390 -0.1104
vn -0.9343 0.3390 -0.1105
vn -0.9379 0.3330 -0.0976
vn -0.9343 0.2093 -0.2886
vn -0.9379 0.2120 -0.2747
vn -0.9343 -0.0003 -0.3565
vn -0.9379 0.0101 -0.3468
vn -0.9343 -0.2098 -0.2883
vn -0.9379 -0.1957 -0.2865
vn -0.9343 -0.3392 -0.1099
vn -0.9379 -0.3267 -0.1168
vn -0.9305 -0.3449 0.1233
vn -0.9305 -0.2066 0.3025
vn -0.9305 0.0107 0.3662
vn -0.9305 0.2239 0.2900
vn -0.9305 0.3515 0.1030
vn -0.9305 0.3450 -0.1233
vn -0.9305 0.2066 -0.3025
vn -0.9305 -0.0107 -0.3662
vn -0.9305 -0.2239 -0.2900
vn -0.9305 -0.3515 -0.1030
vn -0.2835 -0.1500 -0.9472
vn -0.4165 -0.1422 -0.8979
vn -0.4208 -0.0000 -0.9071
vn -0.2111 -0.0000 -0.9775
vn -0.0000 -0.7071 0.7071
vn -0.0000 -0.5878 0.8090
vn -0.3002 0.1492 -0.9421
vn -0.3036 0.2944 -0.9062
vn -0.0000 -0.3090 0.9511
vn -0.0000 -0.1564 0.9877
vn -0.4208 0.7339 -0.5332
vn -0.4165 0.8100 -0.4127
vn -0.2835 0.8545 -0.4354
vn -0.3002 0.6745 -0.6745
vn -0.3036 0.7708 -0.5600
vn -0.2835 0.4354 -0.8545
vn -0.4165 0.4127 -0.8100
vn -0.4208 0.5332 -0.7339
vn -0.2111 0.5745 -0.7908
vn -0.0000 -0.9877 0.1564
vn -0.0000 -0.9511 0.3090
vn -0.3002 0.9421 -0.1492
vn -0.3036 0.9528 -0.0000
vn -0.0000 -0.8090 0.5878
vn -0.4208 0.9071 -0.0000
vn -0.4165 0.8979 0.1422
vn -0.2835 0.9472 0.1500
vn -0.3002 0.8499 0.4331
vn -0.3036 0.7708 0.5600
vn -0.4208 0.8627 -0.2803
vn -0.2111 0.9296 -0.3021
vn -0.0000 -0.8910 -0.4540
vn -0.0000 -0.9511 -0.3090
vn -0.3002 0.4330 0.8499
vn -0.3036 0.2944 0.9062
vn -0.0000 -1.0000 -0.0000
vn -0.4208 0.7339 0.5332
vn -0.4165 0.6428 0.6428
vn -0.2835 0.6781 0.6781
vn -0.3036 -0.0000 0.9528
vn -0.3002 -0.1492 0.9421
vn -0.4208 0.8627 0.2803
vn -0.2111 0.9296 0.3021
vn -0.3036 -0.5600 0.7708
vn -0.3002 -0.6745 0.6745
vn -0.0000 -0.4540 -0.8910
vn -0.0000 -0.5878 -0.8090
vn -0.0000 -0.8090 -0.5878
vn -0.3036 -0.9062 0.2944
vn -0.3002 -0.9421 0.1492
vn -0.4208 0.2803 0.8627
vn -0.4165 0.1422 0.8979
vn -0.2835 0.1500 0.9472
vn -0.4208 0.5332 0.7339
vn -0.2111 0.5745 0.7908
vn -0.3036 -0.9062 -0.2944
vn -0.3002 -0.8499 -0.4331
vn -0.2835 -0.1500 0.9472
vn -0.4165 -0.1422 0.8979
vn -0.4208 -0.2803 0.8627
vn -0.0000 -0.3090 -0.9511
vn -0.3036 -0.5600 -0.7708
vn -0.0000 0.5878 -0.8090
vn -0.0000 0.4540 -0.8910
vn -0.4208 -0.0000 0.9071
vn -0.2111 -0.0000 0.9775
vn -0.3036 -0.0000 -0.9528
vn -0.2835 -0.6781 0.6781
vn -0.4165 -0.6428 0.6428
vn -0.4208 -0.7339 0.5332
vn -0.3036 0.5600 -0.7708
vn -0.0000 0.9511 -0.3090
vn -0.0000 0.8910 -0.4540
vn -0.3036 0.9062 -0.2944
vn -0.2835 -0.9472 0.1500
vn -0.4165 -0.8979 0.1422
vn -0.4208 -0.9071 -0.0000
vn -0.3036 0.9062 0.2944
vn -0.0000 0.9511 0.3090
vn -0.0000 0.9877 0.1564
vn -0.3036 0.5600 0.7708
vn -0.2835 -0.8545 -0.4354
vn -0.4165 -0.8100 -0.4127
vn -0.4208 -0.7339 -0.5332
vn -0.3002 -0.4331 0.8499
vn -0.0000 0.5878 0.8090
vn -0.0000 0.7071 0.7071
vn -0.3002 -0.8499 0.4331
vn -0.2835 -0.4354 -0.8545
vn -0.4165 -0.4127 -0.8100
vn -0.4208 -0.2803 -0.8627
vn -0.3002 -0.9421 -0.1492
vn -0.0000 -0.0000 1.0000
vn -0.0000 0.1564 0.9877
vn -0.3002 -0.6745 -0.6745
vn -0.2835 0.1500 -0.9472
vn -0.4165 0.1422 -0.8979
vn -0.4208 0.2803 -0.8627
vn -0.3002 -0.1492 -0.9421
vn -0.0000 -0.4540 0.8910
vn -0.3002 0.4331 -0.8499
vn -0.2835 0.6781 -0.6781
vn -0.4165 0.6428 -0.6428
vn -0.3002 0.8499 -0.4331
vn -0.0000 -0.8910 0.4540
vn -0.3002 0.9421 0.1492
vn -0.2835 0.9472 -0.1500
vn -0.4165 0.8979 -0.1422
vn -0.3002 0.6745 0.6745
vn -0.0000 -0.9877 -0.1564
vn -0.0000 0.3090 -0.9511
vn -0.3002 0.1492 0.9421
vn -0.2835 0.8545 0.4354
vn -0.4165 0.8100 0.4127
vn -0.2111 -0.5745 0.7908
vn -0.4208 -0.5332 0.7339
vn -0.0000 -0.7071 -0.7071
vn -0.0000 0.8090 -0.5878
vn -0.2835 0.4354 0.8545
vn -0.4165 0.4127 0.8100
vn -0.2111 -0.9296 0.3021
vn -0.4208 -0.8627 0.2803
vn -0.0000 -0.0000 -1.0000
vn -0.0000 -0.1564 -0.9877
vn -0.0000 -0.3478 0.9376
vn -0.0000 -0.2692 0.9631
vn -0.2835 -0.4354 0.8545
vn -0.0000 0.4540 0.8910
vn -0.0000 0.8910 0.4540
vn -0.0000 0.3483 0.9374
vn -0.0000 0.2697 0.9629
vn -0.0000 0.9877 -0.1564
vn -0.0000 0.8328 0.5536
vn -0.0000 0.7842 0.6205
vn -0.0000 0.9991 -0.0416
vn -0.0000 0.9992 0.0410
vn -0.0000 0.7071 -0.7071
vn -0.0000 0.7838 -0.6210
vn -0.0000 0.8325 -0.5541
vn -0.0000 0.1564 -0.9877
vn -0.0000 0.2692 -0.9631
vn -0.0000 0.3478 -0.9376
vn -0.0000 -0.3483 -0.9374
vn -0.0000 -0.2697 -0.9629
vn -0.0000 -0.8328 -0.5536
vn -0.0000 -0.7842 -0.6205
vn -0.2111 -0.5745 -0.7908
vn -0.0000 -0.9991 0.0416
vn -0.0000 -0.9992 -0.0410
vn -0.0000 -0.7838 0.6210
vn -0.0000 -0.8325 0.5541
vn -0.2111 -0.9296 -0.3021
vn -0.2835 -0.6781 -0.6781
vn -0.2835 -0.9472 -0.1500
vn -0.2835 -0.8545 0.4354
vn -1.0000 -0.0000 -0.0000
vn -0.7679 -0.6326 0.1002
vn -0.7718 -0.6047 0.1965
vn -0.7679 -0.5707 0.2908
vn -0.7718 -0.5144 0.3737
vn -0.7679 -0.4529 0.4529
vn -0.7718 -0.3737 0.5144
vn -0.7679 -0.2908 0.5707
vn -0.7718 -0.1965 0.6047
vn -0.7679 -0.1002 0.6326
vn -0.7718 -0.0000 0.6358
vn -0.7679 0.1002 0.6326
vn -0.7718 0.1965 0.6047
vn -0.7679 0.2908 0.5707
vn -0.7718 0.3737 0.5144
vn -0.7679 0.4529 0.4529
vn -0.7718 0.5144 0.3737
vn -0.7679 0.5707 0.2908
vn -0.7718 0.6047 0.1965
vn -0.7679 0.6326 0.1002
vn -0.7718 0.6358 -0.0000
vn -0.7679 0.6326 -0.1002
vn -0.7718 0.6047 -0.1965
vn -0.7679 0.5707 -0.2908
vn -0.7718 0.5144 -0.3737
vn -0.7679 0.4529 -0.4529
vn -0.7718 0.3737 -0.5144
vn -0.7679 0.2908 -0.5707
vn -0.7718 0.1965 -0.6047
vn -0.7679 0.1002 -0.6326
vn -0.7718 -0.0000 -0.6358
vn -0.7679 -0.1002 -0.6326
vn -0.7718 -0.1965 -0.6047
vn -0.7679 -0.2908 -0.5707
vn -0.7718 -0.3737 -0.5144
vn -0.7679 -0.4529 -0.4529
vn -0.7718 -0.5144 -0.3737
vn -0.7679 -0.5707 -0.2908
vn -0.7718 -0.6047 -0.1965
vn -0.7679 -0.6326 -0.1002
vn -0.7718 -0.6358 -0.0000
vn -0.0000 0.3090 0.9511
vn -0.3036 -0.7708 -0.5600
vn -0.4165 -0.6428 -0.6428
vn -0.4208 -0.5332 -0.7339
vn -0.3036 -0.9528 -0.0000
vn -0.0000 0.8090 0.5878
vn -0.3036 -0.7708 0.5600
vn -0.4165 -0.8979 -0.1422
vn -0.4208 -0.8627 -0.2803
vn -0.3036 -0.2944 0.9062
vn -0.0000 1.0000 -0.0000
vn -0.4165 -0.8100 0.4127
vn -0.4165 -0.4127 0.8100
vt 0.073497 0.628008
vt 0.082963 0.657142
vt 0.064957 0.632359
vt 0.068883 0.629507
vt 0.053989 0.381791
vt 0.059077 0.378042
vt 0.184493 0.548302
vt 0.141968 0.561917
vt 0.816487 0.346816
vt 0.810171 0.346593
vt 0.817627 0.135259
vt 0.859411 0.151001
vt 0.729753 0.399458
vt 0.734842 0.395710
vt 0.860258 0.565969
vt 0.817733 0.579584
vt 0.178620 0.350640
vt 0.174871 0.345551
vt 0.345131 0.220135
vt 0.358746 0.262660
vt 0.160719 0.215928
vt 0.155630 0.219676
vt 0.030214 0.049417
vt 0.072739 0.035802
vt 0.779300 0.946903
vt 0.775551 0.941814
vt 0.945811 0.816398
vt 0.959425 0.858923
vt 0.582519 0.053989
vt 0.586268 0.059077
vt 0.416008 0.184493
vt 0.402394 0.141968
vt 0.461293 0.615645
vt 0.457544 0.610557
vt 0.627804 0.485141
vt 0.641418 0.527666
vt 0.620296 0.781274
vt 0.616548 0.776185
vt 0.786807 0.650770
vt 0.800422 0.693295
vt 0.302289 0.823233
vt 0.298541 0.818145
vt 0.468800 0.692729
vt 0.482415 0.735254
vt 0.046236 0.384296
vt 0.102477 0.555125
vt 0.824119 0.349667
vt 0.886144 0.180852
vt 0.722001 0.401963
vt 0.778242 0.572792
vt 0.181125 0.358392
vt 0.351954 0.302152
vt 0.168471 0.213423
vt 0.112231 0.042594
vt 0.781805 0.954655
vt 0.952634 0.898414
vt 0.580014 0.046236
vt 0.409185 0.102477
vt 0.463798 0.623398
vt 0.634627 0.567157
vt 0.622801 0.789026
vt 0.793630 0.732786
vt 0.304794 0.830986
vt 0.475623 0.774745
vt 0.061032 0.635211
vt 0.058180 0.639136
vt 0.053829 0.647676
vt 0.055328 0.643062
vt 0.052330 0.652290
vt 0.052330 0.657142
vt 0.053829 0.666609
vt 0.052330 0.661994
vt 0.055328 0.671223
vt 0.058180 0.675148
vt 0.064957 0.681925
vt 0.061032 0.679074
vt 0.068883 0.684777
vt 0.073497 0.686277
vt 0.082963 0.687776
vt 0.078111 0.687776
vt 0.087815 0.687776
vt 0.092430 0.686277
vt 0.100969 0.681926
vt 0.097044 0.684777
vt 0.104894 0.679074
vt 0.107746 0.675148
vt 0.112098 0.666609
vt 0.110598 0.671223
vt 0.113597 0.661994
vt 0.113597 0.657143
vt 0.112098 0.647676
vt 0.113597 0.652291
vt 0.110598 0.643062
vt 0.107746 0.639136
vt 0.100969 0.632359
vt 0.104895 0.635211
vt 0.097044 0.629507
vt 0.092430 0.628008
vt 0.082963 0.626509
vt 0.087815 0.626509
vt 0.078111 0.626509
vt 0.048450 0.668356
vt 0.046674 0.662890
vt 0.053605 0.678473
vt 0.050226 0.673823
vt 0.061633 0.686501
vt 0.056983 0.683123
vt 0.071749 0.691656
vt 0.066283 0.689879
vt 0.082963 0.693432
vt 0.077216 0.693432
vt 0.094177 0.691656
vt 0.088711 0.693432
vt 0.104294 0.686501
vt 0.099644 0.689880
vt 0.112322 0.678473
vt 0.108943 0.683123
vt 0.117476 0.668357
vt 0.115700 0.673823
vt 0.119253 0.657143
vt 0.119253 0.662890
vt 0.117477 0.645928
vt 0.119253 0.651395
vt 0.112322 0.635812
vt 0.115700 0.640462
vt 0.104294 0.627784
vt 0.108944 0.631162
vt 0.094177 0.622629
vt 0.099644 0.624405
vt 0.082963 0.620853
vt 0.088711 0.620853
vt 0.071749 0.622629
vt 0.077216 0.620853
vt 0.061633 0.627784
vt 0.066283 0.624405
vt 0.053605 0.635812
vt 0.056983 0.631162
vt 0.048450 0.645928
vt 0.050226 0.640462
vt 0.046674 0.657142
vt 0.046674 0.651395
vt 0.267868 0.105651
vt 0.269878 0.110372
vt 0.268652 0.110976
vt 0.265941 0.106569
vt 0.035560 0.387336
vt 0.062457 0.571971
vt 0.024787 0.571971
vt 0.030037 0.387179
vt 0.834374 0.353916
vt 0.927971 0.192506
vt 0.957495 0.215903
vt 0.838605 0.357469
vt 0.711325 0.405003
vt 0.738222 0.589638
vt 0.700551 0.589638
vt 0.705802 0.404846
vt 0.184165 0.369068
vt 0.368800 0.342171
vt 0.368800 0.379842
vt 0.184008 0.374591
vt 0.179147 0.210383
vt 0.152250 0.025748
vt 0.189921 0.025748
vt 0.184671 0.210540
vt 0.784844 0.965331
vt 0.969480 0.938434
vt 0.969480 0.976104
vt 0.784687 0.970854
vt 0.576975 0.035560
vt 0.392339 0.062457
vt 0.392339 0.024787
vt 0.577131 0.030037
vt 0.466837 0.634074
vt 0.651472 0.607177
vt 0.651472 0.644848
vt 0.466680 0.639597
vt 0.625841 0.799703
vt 0.810476 0.772806
vt 0.810476 0.810476
vt 0.625684 0.805226
vt 0.307834 0.841662
vt 0.492469 0.814765
vt 0.492469 0.852435
vt 0.307677 0.847185
vt 0.040805 0.385599
vt 0.098936 0.561169
vt 0.829185 0.352019
vt 0.892673 0.178315
vt 0.716570 0.403266
vt 0.774700 0.578836
vt 0.182428 0.363823
vt 0.357998 0.305693
vt 0.173902 0.212120
vt 0.115772 0.036550
vt 0.783108 0.960086
vt 0.958678 0.901955
vt 0.578711 0.040805
vt 0.403141 0.098936
vt 0.465101 0.628829
vt 0.640671 0.570698
vt 0.624104 0.794457
vt 0.799674 0.736327
vt 0.306097 0.836417
vt 0.481667 0.778286
vt 0.030506 0.262191
vt 0.037370 0.263179
vt 0.036667 0.268286
vt 0.030115 0.268242
vt 0.242405 0.119917
vt 0.235846 0.120201
vt 0.236030 0.114465
vt 0.242385 0.115229
vt 0.261406 0.111066
vt 0.265741 0.113896
vt 0.265017 0.115069
vt 0.260325 0.112911
vt 0.244756 0.106107
vt 0.238903 0.103594
vt 0.241522 0.098437
vt 0.247192 0.102052
vt 0.044813 0.300458
vt 0.048941 0.295324
vt 0.053196 0.297843
vt 0.049948 0.303674
vt 0.259130 0.119092
vt 0.264142 0.118975
vt 0.264186 0.120271
vt 0.259298 0.121167
vt 0.033894 0.286133
vt 0.040120 0.283214
vt 0.042288 0.287809
vt 0.036862 0.291374
vt 0.248833 0.137320
vt 0.243636 0.141474
vt 0.240368 0.136603
vt 0.246077 0.133491
vt 0.261881 0.126691
vt 0.265662 0.123664
vt 0.266459 0.124581
vt 0.263236 0.128203
vt 0.242808 0.124630
vt 0.236467 0.125813
vt 0.066928 0.308478
vt 0.066966 0.301987
vt 0.071745 0.301245
vt 0.072912 0.307759
vt 0.268651 0.130943
vt 0.269755 0.126151
vt 0.271013 0.126343
vt 0.270687 0.131314
vt 0.057472 0.300175
vt 0.055315 0.306063
vt 0.264530 0.147211
vt 0.262958 0.153658
vt 0.257396 0.151870
vt 0.259993 0.145899
vt 0.276856 0.130250
vt 0.274875 0.125525
vt 0.276106 0.124927
vt 0.278788 0.129346
vt 0.251936 0.140922
vt 0.247562 0.145708
vt 0.089135 0.300712
vt 0.085066 0.295531
vt 0.088472 0.291868
vt 0.093479 0.296442
vt 0.282091 0.126622
vt 0.278225 0.123149
vt 0.279040 0.122028
vt 0.283355 0.124888
vt 0.076479 0.300284
vt 0.078569 0.306196
vt 0.285636 0.118971
vt 0.280595 0.118284
vt 0.280661 0.116964
vt 0.285689 0.116866
vt 0.283061 0.145889
vt 0.285504 0.152040
vt 0.279983 0.153777
vt 0.278618 0.147455
vt 0.269192 0.148136
vt 0.268577 0.154587
vt 0.284130 0.110886
vt 0.279834 0.113270
vt 0.279125 0.112259
vt 0.282938 0.109211
vt 0.102681 0.280858
vt 0.096205 0.278873
vt 0.096988 0.273761
vt 0.103854 0.274755
vt 0.091804 0.288097
vt 0.097164 0.291718
vt 0.278092 0.105502
vt 0.276217 0.110052
vt 0.275000 0.109743
vt 0.276104 0.104919
vt 0.103925 0.262617
vt 0.097049 0.263529
vt 0.096327 0.258408
vt 0.102825 0.256501
vt 0.287400 0.143945
vt 0.290625 0.149587
vt 0.269867 0.104924
vt 0.271130 0.109867
vt 0.302496 0.120951
vt 0.308860 0.121844
vt 0.307674 0.127325
vt 0.301398 0.125564
vt 0.097694 0.268649
vt 0.104274 0.268688
vt 0.262656 0.109322
vt 0.266547 0.112768
vt 0.093809 0.240812
vt 0.088750 0.245325
vt 0.085387 0.241623
vt 0.089516 0.236492
vt 0.259170 0.116992
vt 0.264205 0.117654
vt 0.299040 0.102422
vt 0.304964 0.099333
vt 0.307214 0.104706
vt 0.300845 0.106907
vt 0.260698 0.125032
vt 0.264961 0.122660
vt 0.073382 0.229259
vt 0.072139 0.235756
vt 0.067371 0.234960
vt 0.067408 0.228471
vt 0.266679 0.130364
vt 0.268543 0.125847
vt 0.284759 0.089681
vt 0.287315 0.083500
vt 0.292639 0.086105
vt 0.289031 0.092030
vt 0.274859 0.130963
vt 0.273620 0.126026
vt 0.050381 0.233079
vt 0.053561 0.238944
vt 0.049280 0.241414
vt 0.045210 0.236236
vt 0.285143 0.121033
vt 0.280234 0.119579
vt 0.265893 0.088378
vt 0.264405 0.082052
vt 0.270031 0.081121
vt 0.270633 0.087759
vt 0.284933 0.112790
vt 0.280280 0.114440
vt 0.034136 0.250405
vt 0.040320 0.253409
vt 0.038150 0.258069
vt 0.031676 0.256089
vt 0.279893 0.106496
vt 0.277306 0.110640
vt 0.249883 0.098142
vt 0.245042 0.093776
vt 0.249142 0.089841
vt 0.253401 0.094924
vt 0.271957 0.104632
vt 0.272439 0.109651
vt 0.030424 0.274298
vt 0.037302 0.273402
vt 0.038013 0.278523
vt 0.031511 0.280416
vt 0.264235 0.107869
vt 0.267571 0.111834
vt 0.237090 0.108975
vt 0.243403 0.110613
vt 0.259649 0.114931
vt 0.264561 0.116356
vt 0.040518 0.296138
vt 0.045577 0.291621
vt 0.259898 0.123144
vt 0.264520 0.121495
vt 0.238035 0.131393
vt 0.244245 0.129108
vt 0.264895 0.129378
vt 0.267463 0.125266
vt 0.060953 0.307690
vt 0.062195 0.301190
vt 0.272774 0.131243
vt 0.272310 0.126239
vt 0.252299 0.149214
vt 0.255837 0.143575
vt 0.305737 0.132651
vt 0.299978 0.130045
vt 0.280501 0.128061
vt 0.277193 0.124075
vt 0.083962 0.303869
vt 0.080782 0.298002
vt 0.097437 0.245577
vt 0.092035 0.249134
vt 0.274374 0.154587
vt 0.273901 0.147993
vt 0.308673 0.110399
vt 0.302229 0.111468
vt 0.100218 0.286542
vt 0.094033 0.283535
vt 0.079017 0.230886
vt 0.076860 0.236772
vt 0.294693 0.137889
vt 0.299618 0.142306
vt 0.295409 0.146255
vt 0.291164 0.141092
vt 0.488419 0.732264
vt 0.105742 0.247539
vt 0.100429 0.250789
vt 0.102527 0.242282
vt 0.613178 0.770758
vt 0.783437 0.645342
vt 0.064505 0.374672
vt 0.189921 0.544932
vt 0.102138 0.295189
vt 0.105567 0.289940
vt 0.295171 0.812717
vt 0.465430 0.687301
vt 0.080475 0.311816
vt 0.086224 0.309651
vt 0.803824 0.345863
vt 0.811280 0.134529
vt 0.189001 0.553488
vt 0.144958 0.567920
vt 0.053217 0.311613
vt 0.059031 0.313590
vt 0.817315 0.128395
vt 0.860797 0.144439
vt 0.110152 0.275025
vt 0.110419 0.268795
vt 0.740270 0.392339
vt 0.865686 0.562599
vt 0.864766 0.571155
vt 0.820723 0.585587
vt 0.031794 0.294731
vt 0.035398 0.299839
vt 0.350317 0.215627
vt 0.364749 0.259670
vt 0.098482 0.300138
vt 0.025706 0.044231
vt 0.069749 0.029798
vt 0.023988 0.268200
vt 0.024123 0.274434
vt 0.171501 0.340123
vt 0.341761 0.214708
vt 0.950997 0.811890
vt 0.965429 0.855933
vt 0.074706 0.313590
vt 0.410822 0.189001
vt 0.396390 0.144958
vt 0.032214 0.241761
vt 0.037187 0.245229
vt 0.028788 0.247010
vt 0.632990 0.480633
vt 0.647422 0.524676
vt 0.047631 0.309321
vt 0.150203 0.223047
vt 0.024787 0.052787
vt 0.791994 0.646262
vt 0.806426 0.690305
vt 0.053866 0.225135
vt 0.055772 0.230752
vt 0.048119 0.227299
vt 0.473987 0.688221
vt 0.028485 0.289417
vt 0.081115 0.225338
vt 0.075304 0.223361
vt 0.772181 0.936386
vt 0.942441 0.810970
vt 0.024207 0.261968
vt 0.098959 0.237140
vt 0.035867 0.236813
vt 0.040869 0.240506
vt 0.589638 0.064505
vt 0.419378 0.189921
vt 0.110336 0.262451
vt 0.059633 0.223361
vt 0.061426 0.229190
vt 0.454174 0.605129
vt 0.624434 0.479713
vt 0.086700 0.227630
vt 0.084382 0.233276
vt 0.261455 0.090020
vt 0.280124 0.088404
vt 0.296249 0.098480
vt 0.302557 0.116233
vt 0.297511 0.134053
vt 0.257136 0.092029
vt 0.274055 0.104553
vt 0.275386 0.087538
vt 0.281567 0.107684
vt 0.293039 0.094786
vt 0.285529 0.114780
vt 0.284451 0.123050
vt 0.436529 0.243967
vt 0.438637 0.244744
vt 0.431870 0.257408
vt 0.440454 0.246064
vt 0.442219 0.247454
vt 0.443539 0.249272
vt 0.444788 0.251140
vt 0.445482 0.253276
vt 0.446093 0.255438
vt 0.446093 0.257685
vt 0.446006 0.259930
vt 0.445312 0.262066
vt 0.444535 0.264174
vt 0.443214 0.265992
vt 0.441824 0.267757
vt 0.440006 0.269077
vt 0.438139 0.270326
vt 0.436002 0.271020
vt 0.433840 0.271631
vt 0.431593 0.271631
vt 0.429349 0.271544
vt 0.427212 0.270849
vt 0.425104 0.270072
vt 0.423286 0.268752
vt 0.421522 0.267362
vt 0.420201 0.265544
vt 0.418952 0.263677
vt 0.418258 0.261540
vt 0.417647 0.259378
vt 0.417647 0.257131
vt 0.417735 0.254886
vt 0.418429 0.252750
vt 0.419206 0.250642
vt 0.420526 0.248824
vt 0.421917 0.247059
vt 0.423734 0.245739
vt 0.425602 0.244490
vt 0.427738 0.243796
vt 0.429900 0.243185
vt 0.432147 0.243185
vt 0.434392 0.243273
vt 0.094860 0.268632
vt 0.094202 0.273356
vt 0.093497 0.278057
vt 0.091517 0.282344
vt 0.089496 0.286564
vt 0.086448 0.290042
vt 0.083366 0.293410
vt 0.079485 0.295681
vt 0.075582 0.297797
vt 0.071284 0.298676
vt 0.066981 0.299357
vt 0.062685 0.298627
vt 0.058398 0.297698
vt 0.054520 0.295538
vt 0.050665 0.293223
vt 0.047622 0.289819
vt 0.044616 0.286305
vt 0.042652 0.282058
vt 0.040732 0.277745
vt 0.040092 0.273035
vt 0.039498 0.268305
vt 0.040156 0.263584
vt 0.040859 0.258883
vt 0.042835 0.254598
vt 0.044854 0.250378
vt 0.042547 0.248847
vt 0.045875 0.245077
vt 0.047899 0.246901
vt 0.050979 0.243533
vt 0.054858 0.241263
vt 0.058758 0.239148
vt 0.057861 0.236662
vt 0.062593 0.235701
vt 0.063054 0.238269
vt 0.067355 0.237589
vt 0.071649 0.238319
vt 0.075934 0.239247
vt 0.081134 0.239103
vt 0.079810 0.241408
vt 0.083663 0.243723
vt 0.086705 0.247127
vt 0.089710 0.250639
vt 0.094210 0.253722
vt 0.091681 0.254883
vt 0.093609 0.259192
vt 0.094258 0.263901
vt 0.253838 0.086451
vt 0.258905 0.083904
vt 0.273738 0.109548
vt 0.278319 0.111334
vt 0.275883 0.080997
vt 0.281598 0.081811
vt 0.280617 0.115667
vt 0.279771 0.120861
vt 0.297714 0.089667
vt 0.301724 0.094222
vt 0.309173 0.116079
vt 0.303025 0.137681
s 1
f 103/1/1 71/2/1 104/3/1 105/4/1
f 74/5/2 33/6/3 12/7/4 1/8/5
f 78/9/6 37/10/7 14/11/8 2/12/9
f 82/13/10 41/14/11 16/15/12 3/16/13
f 86/17/14 45/18/15 18/19/16 4/20/17
f 90/21/18 49/22/19 20/23/20 5/24/21
f 94/25/22 53/26/23 22/27/24 6/28/25
f 98/29/26 57/30/27 24/31/28 7/32/29
f 102/33/30 61/34/31 26/35/32 8/36/33
f 106/37/34 65/38/35 28/39/36 9/40/37
f 110/41/38 69/42/39 30/43/40 10/44/41
f 31/45/42 74/5/2 1/8/5 11/46/43
f 35/47/44 78/9/6 2/12/9 13/48/45
f 39/49/46 82/13/10 3/16/13 15/50/47
f 43/51/48 86/17/14 4/20/17 17/52/49
f 47/53/50 90/21/18 5/24/21 19/54/51
f 51/55/52 94/25/22 6/28/25 21/56/53
f 55/57/54 98/29/26 7/32/29 23/58/55
f 59/59/56 102/33/30 8/36/33 25/60/57
f 63/61/58 106/37/34 9/40/37 27/62/59
f 67/63/60 110/41/38 10/44/41 29/64/61
f 104/3/1 71/2/1 66/65/1
f 66/65/1 71/2/1 107/66/1
f 107/66/1 71/2/1 108/67/1 109/68/1
f 108/67/1 71/2/1 70/69/1
f 70/69/1 71/2/1 111/70/1
f 111/70/1 71/2/1 72/71/1 73/72/1
f 72/71/1 71/2/1 34/73/1
f 34/73/1 71/2/1 75/74/1
f 75/74/1 71/2/1 76/75/1 77/76/1
f 76/75/1 71/2/1 38/77/1
f 38/77/1 71/2/1 79/78/1
f 79/78/1 71/2/1 80/79/1 81/80/1
f 80/79/1 71/2/1 42/81/1
f 42/81/1 71/2/1 83/82/1
f 83/82/1 71/2/1 84/83/1 85/84/1
f 84/83/1 71/2/1 46/85/1
f 46/85/1 71/2/1 87/86/1
f 87/86/1 71/2/1 88/87/1 89/88/1
f 88/87/1 71/2/1 50/89/1
f 50/89/1 71/2/1 91/90/1
f 91/90/1 71/2/1 92/91/1 93/92/1
f 92/91/1 71/2/1 54/93/1
f 54/93/1 71/2/1 95/94/1
f 95/94/1 71/2/1 96/95/1 97/96/1
f 96/95/1 71/2/1 58/97/1
f 58/97/1 71/2/1 99/98/1
f 99/98/1 71/2/1 100/99/1 101/100/1
f 100/99/1 71/2/1 62/101/1
f 62/101/1 71/2/1 103/1/1
f 73/72/1 72/71/1 31/102/42 32/103/1
f 34/73/1 75/74/1 33/104/3 74/105/2
f 77/76/1 76/75/1 35/106/44 36/107/1
f 38/77/1 79/78/1 37/108/7 78/109/6
f 81/80/1 80/79/1 39/110/46 40/111/1
f 42/81/1 83/82/1 41/112/11 82/113/10
f 85/84/1 84/83/1 43/114/48 44/115/1
f 46/85/1 87/86/1 45/116/15 86/117/14
f 89/88/1 88/87/1 47/118/50 48/119/1
f 50/89/1 91/90/1 49/120/19 90/121/18
f 93/92/1 92/91/1 51/122/52 52/123/1
f 54/93/1 95/94/1 53/124/23 94/125/22
f 97/96/1 96/95/1 55/126/54 56/127/1
f 58/97/1 99/98/1 57/128/27 98/129/26
f 101/100/1 100/99/1 59/130/56 60/131/1
f 62/101/1 103/1/1 61/132/31 102/133/30
f 105/4/1 104/3/1 63/134/58 64/135/1
f 66/65/1 107/66/1 65/136/35 106/137/34
f 109/68/1 108/67/1 67/138/60 68/139/1
f 70/69/1 111/70/1 69/140/39 110/141/38
f 72/71/1 34/73/1 74/105/2 31/102/42
f 75/74/1 77/76/1 36/107/1 33/104/3
f 76/75/1 38/77/1 78/109/6 35/106/44
f 79/78/1 81/80/1 40/111/1 37/108/7
f 80/79/1 42/81/1 82/113/10 39/110/46
f 83/82/1 85/84/1 44/115/1 41/112/11
f 84/83/1 46/85/1 86/117/14 43/114/48
f 87/86/1 89/88/1 48/119/1 45/116/15
f 88/87/1 50/89/1 90/121/18 47/118/50
f 91/90/1 93/92/1 52/123/1 49/120/19
f 92/91/1 54/93/1 94/125/22 51/122/52
f 95/94/1 97/96/1 56/127/1 53/124/23
f 96/95/1 58/97/1 98/129/26 55/126/54
f 99/98/1 101/100/1 60/131/1 57/128/27
f 100/99/1 62/101/1 102/133/30 59/130/56
f 103/1/1 105/4/1 64/135/1 61/132/31
f 104/3/1 66/65/1 106/137/34 63/134/58
f 107/66/1 109/68/1 68/139/1 65/136/35
f 108/67/1 70/69/1 110/141/38 67/138/60
f 111/70/1 73/72/1 32/103/1 69/140/39
f 163/142/62 350/143/62 332/144/63 257/145/63
f 115/146/64 173/147/65 172/148/66 114/149/66
f 119/150/67 175/151/67 174/152/68 118/153/68
f 123/154/69 177/155/69 176/156/70 122/157/70
f 127/158/71 179/159/71 178/160/72 126/161/72
f 131/162/73 181/163/73 180/164/74 130/165/74
f 135/166/75 183/167/76 182/168/77 134/169/77
f 139/170/78 185/171/78 184/172/79 138/173/79
f 143/174/80 187/175/80 186/176/81 142/177/81
f 147/178/82 189/179/82 188/180/83 146/181/83
f 151/182/84 191/183/84 190/184/85 150/185/85
f 152/186/86 192/187/86 173/147/65 115/146/64
f 154/188/87 193/189/87 175/151/67 119/150/67
f 156/190/88 194/191/88 177/155/69 123/154/69
f 158/192/89 195/193/89 179/159/71 127/158/71
f 160/194/90 196/195/90 181/163/73 131/162/73
f 162/196/91 197/197/91 183/167/76 135/166/75
f 164/198/92 198/199/92 185/171/78 139/170/78
f 166/200/93 199/201/93 187/175/80 143/174/80
f 168/202/94 200/203/94 189/179/82 147/178/82
f 170/204/95 201/205/95 191/183/84 151/182/84
f 162/206/96 312/207/97 363/208/98 217/209/99
f 245/210/100 309/211/100 279/212/101 231/213/101
f 161/214/102 346/215/102 330/216/103 256/217/103
f 209/218/104 362/219/104 311/220/105 246/221/105
f 127/222/106 277/223/106 308/224/107 158/225/108
f 159/226/109 341/227/109 326/228/110 255/229/110
f 160/230/111 310/231/112 361/232/113 216/233/114
f 244/234/115 307/235/115 275/236/116 229/237/116
f 157/238/117 334/239/117 325/240/118 254/241/118
f 205/242/119 360/243/119 309/211/100 245/210/100
f 123/244/120 273/245/120 306/246/121 156/247/122
f 155/248/123 338/249/123 327/250/124 253/251/124
f 158/225/108 308/224/107 359/252/125 215/253/126
f 243/254/127 305/255/127 271/256/128 227/257/128
f 153/258/129 349/259/129 331/260/130 252/261/130
f 204/262/131 358/263/131 307/235/115 244/234/115
f 119/264/132 269/265/132 304/266/133 154/267/134
f 113/268/135 373/269/135 345/270/136 171/271/136
f 156/247/122 306/246/121 357/272/137 214/273/138
f 149/274/139 382/275/139 342/276/140 169/277/140
f 242/278/141 303/279/141 267/280/142 225/281/142
f 206/282/143 356/283/143 305/255/127 243/254/127
f 145/284/144 381/285/144 333/286/145 167/287/145
f 115/288/146 265/289/146 302/290/147 152/291/148
f 154/267/134 304/266/133 355/292/149 213/293/150
f 141/294/151 380/295/151 337/296/152 165/297/152
f 150/298/153 300/299/154 301/300/155 151/301/155
f 210/302/156 354/303/156 303/279/141 242/278/141
f 137/304/157 379/305/157 350/143/62 163/142/62
f 241/306/158 299/307/158 298/308/159 240/309/159
f 152/291/148 302/290/147 353/310/160 212/311/161
f 133/312/162 378/313/162 346/215/102 161/214/102
f 146/314/163 296/315/164 297/316/165 147/317/165
f 129/318/166 377/319/166 341/227/109 159/226/109
f 239/320/167 295/321/167 294/322/168 238/323/168
f 125/324/169 376/325/169 334/239/117 157/238/117
f 142/326/170 292/327/171 293/328/172 143/329/172
f 121/330/173 375/331/173 338/249/123 155/248/123
f 237/332/174 291/333/174 290/334/175 236/335/175
f 117/336/176 374/337/176 349/259/129 153/258/129
f 138/338/177 288/339/178 289/340/179 139/341/179
f 148/342/180 343/343/180 382/275/139 149/274/139
f 235/344/181 287/345/181 286/346/182 234/347/182
f 144/348/183 339/349/183 381/285/144 145/284/144
f 134/350/184 284/351/185 285/352/186 135/353/186
f 140/354/187 336/355/187 380/295/151 141/294/151
f 233/356/188 283/357/188 282/358/189 232/359/189
f 136/360/190 351/361/190 379/305/157 137/304/157
f 130/362/191 280/363/192 281/364/193 131/365/193
f 132/366/194 347/367/194 378/313/162 133/312/162
f 231/213/101 279/212/101 278/368/195 230/369/195
f 128/370/196 344/371/196 377/319/166 129/318/166
f 126/372/197 276/373/198 277/223/106 127/222/106
f 124/374/199 340/375/199 376/325/169 125/324/169
f 229/237/116 275/236/116 274/376/200 228/377/200
f 120/378/201 335/379/201 375/331/173 121/330/173
f 122/380/202 272/381/203 273/245/120 123/244/120
f 212/311/161 353/310/160 300/299/154 150/298/153
f 116/382/204 352/383/204 374/337/176 117/336/176
f 227/257/128 271/256/128 270/384/205 226/385/205
f 240/309/159 298/308/159 372/386/206 208/387/206
f 112/388/207 348/389/207 373/269/135 113/268/135
f 118/390/208 268/391/209 269/265/132 119/264/132
f 221/392/210 371/393/211 296/315/164 146/314/163
f 225/281/142 267/280/142 266/394/212 224/395/212
f 238/323/168 294/322/168 370/396/213 203/397/213
f 114/398/214 264/399/215 265/289/146 115/288/146
f 220/400/216 369/401/217 292/327/171 142/326/170
f 223/402/218 263/403/218 262/404/219 222/405/219
f 10/44/220 191/406/221 201/205/195 29/64/195
f 67/407/195 170/408/222 221/392/210 68/409/101
f 65/38/182 146/410/182 188/411/182 28/39/182
f 11/46/115 192/187/115 152/186/115 31/45/115
f 29/64/127 201/205/127 170/204/127 67/63/127
f 33/6/168 114/412/168 172/413/168 12/7/168
f 36/414/181 213/293/150 114/398/214 33/415/223
f 69/42/175 150/416/175 190/417/175 30/43/175
f 13/48/100 193/189/100 154/188/100 35/47/100
f 40/418/174 214/273/138 118/390/208 37/419/224
f 37/10/159 118/420/159 174/421/159 14/11/159
f 15/50/105 194/191/105 156/190/105 39/49/105
f 12/7/223 172/422/223 173/423/225 1/8/226
f 44/424/167 215/253/126 122/380/202 41/425/227
f 14/11/224 174/426/224 175/427/228 2/12/229
f 31/428/189 152/291/148 212/311/161 32/429/188
f 41/14/219 122/430/219 176/431/219 16/15/219
f 16/15/227 176/432/227 177/433/230 3/16/231
f 48/434/158 216/233/114 126/372/197 45/435/232
f 17/52/223 195/193/223 158/192/223 43/51/223
f 18/19/232 178/436/232 179/437/233 4/20/234
f 35/438/182 154/267/134 213/293/150 36/414/181
f 20/23/235 180/439/235 181/440/236 5/24/237
f 52/441/218 217/209/99 130/362/191 49/442/235
f 45/18/212 126/443/212 178/444/212 18/19/212
f 22/27/141 182/445/141 183/446/238 6/28/239
f 39/447/175 156/247/122 214/273/138 40/418/174
f 19/54/224 196/195/224 160/194/224 47/53/224
f 24/31/127 184/448/127 185/449/240 7/32/241
f 56/450/142 218/451/242 134/350/184 53/452/141
f 26/35/115 186/453/115 187/454/243 8/36/244
f 43/455/168 158/225/108 215/253/126 44/424/167
f 49/22/205 130/456/205 180/457/205 20/23/205
f 28/39/100 188/458/100 189/459/245 9/40/246
f 60/460/128 219/461/247 138/338/177 57/462/127
f 21/56/227 197/197/227 162/196/227 51/55/227
f 30/43/105 190/463/105 191/406/221 10/44/220
f 47/464/159 160/230/111 216/233/114 48/434/158
f 1/8/226 173/423/225 192/187/189 11/46/189
f 64/465/116 220/400/216 142/326/170 61/466/115
f 53/26/200 134/467/200 182/468/200 22/27/200
f 2/12/229 175/427/228 193/189/182 13/48/182
f 51/469/219 162/206/96 217/209/99 52/441/218
f 23/58/232 198/199/232 164/198/232 55/57/232
f 3/16/231 177/433/230 194/191/175 15/50/175
f 68/409/101 221/392/210 146/314/163 65/470/100
f 4/20/234 179/437/233 195/193/168 17/52/168
f 55/471/212 164/472/248 218/451/242 56/450/142
f 57/30/195 138/473/195 184/474/195 24/31/195
f 5/24/237 181/440/236 196/195/159 19/54/159
f 32/429/188 212/311/161 150/298/153 69/475/105
f 25/60/235 199/201/235 166/200/235 59/59/235
f 6/28/239 183/446/238 197/197/219 21/56/219
f 59/476/205 166/477/249 219/461/247 60/460/128
f 7/32/241 185/449/240 198/199/212 23/58/212
f 61/34/189 142/478/189 186/479/189 26/35/189
f 8/36/244 187/454/243 199/201/205 25/60/205
f 63/480/200 168/481/250 220/400/216 64/465/116
f 27/62/141 200/203/141 168/202/141 63/61/141
f 9/40/246 189/459/245 200/203/200 27/62/200
f 113/268/251 223/402/251 222/405/251 112/388/251
f 117/336/251 225/281/251 224/395/251 116/382/251
f 121/330/251 227/257/251 226/385/251 120/378/251
f 125/324/251 229/237/251 228/377/251 124/374/251
f 129/318/251 231/213/251 230/369/251 128/370/251
f 133/312/251 233/356/251 232/359/251 132/366/251
f 137/304/251 235/344/251 234/347/251 136/360/251
f 141/294/251 237/332/251 236/335/251 140/354/251
f 145/284/251 239/320/251 238/323/251 144/348/251
f 149/274/251 241/306/251 240/309/251 148/342/251
f 153/258/251 242/278/251 225/281/251 117/336/251
f 155/248/251 243/254/251 227/257/251 121/330/251
f 157/238/251 244/234/251 229/237/251 125/324/251
f 159/226/251 245/210/251 231/213/251 129/318/251
f 161/214/251 246/221/251 233/356/251 133/312/251
f 163/142/251 247/482/251 235/344/251 137/304/251
f 165/297/251 248/483/251 237/332/251 141/294/251
f 167/287/251 249/484/251 239/320/251 145/284/251
f 169/277/251 250/485/251 241/306/251 149/274/251
f 171/271/251 251/486/251 223/402/251 113/268/251
f 252/261/251 210/302/251 242/278/251 153/258/251
f 253/251/251 206/282/251 243/254/251 155/248/251
f 254/241/251 204/262/251 244/234/251 157/238/251
f 255/229/251 205/242/251 245/210/251 159/226/251
f 256/217/251 209/218/251 246/221/251 161/214/251
f 257/145/251 211/487/251 247/482/251 163/142/251
f 258/488/251 207/489/251 248/483/251 165/297/251
f 259/490/251 202/491/251 249/484/251 167/287/251
f 260/492/251 203/397/251 250/485/251 169/277/251
f 261/493/251 208/387/251 251/486/251 171/271/251
f 112/388/251 222/405/251 210/302/251 252/261/251
f 116/382/251 224/395/251 206/282/251 253/251/251
f 120/378/251 226/385/251 204/262/251 254/241/251
f 124/374/251 228/377/251 205/242/251 255/229/251
f 128/370/251 230/369/251 209/218/251 256/217/251
f 132/366/251 232/359/251 211/487/251 257/145/251
f 136/360/251 234/347/251 207/489/251 258/488/251
f 140/354/251 236/335/251 202/491/251 259/490/251
f 144/348/251 238/323/251 203/397/251 260/492/251
f 148/342/251 240/309/251 208/387/251 261/493/251
f 333/494/252 381/495/253 322/496/251
f 339/497/254 324/498/255 322/496/251
f 324/498/255 342/499/256 322/496/251
f 342/499/256 382/500/257 322/496/251
f 343/501/258 329/502/259 322/496/251
f 329/502/259 345/503/260 322/496/251
f 345/503/260 373/504/261 322/496/251
f 348/505/262 331/506/263 322/496/251
f 331/506/263 349/507/264 322/496/251
f 349/507/264 374/508/265 322/496/251
f 352/509/266 327/510/267 322/496/251
f 327/510/267 338/511/268 322/496/251
f 338/511/268 375/512/269 322/496/251
f 335/513/270 325/514/271 322/496/251
f 325/514/271 334/515/272 322/496/251
f 334/515/272 376/516/273 322/496/251
f 340/517/274 326/518/275 322/496/251
f 326/518/275 341/519/276 322/496/251
f 341/519/276 377/520/277 322/496/251
f 344/521/278 330/522/279 322/496/251
f 330/522/279 346/523/280 322/496/251
f 346/523/280 378/524/281 322/496/251
f 347/525/282 332/526/283 322/496/251
f 332/526/283 350/527/284 322/496/251
f 350/527/284 379/528/285 322/496/251
f 351/529/286 328/530/287 322/496/251
f 328/530/287 337/531/288 322/496/251
f 337/531/288 380/532/289 322/496/251
f 336/533/290 323/534/291 322/496/251
f 323/534/291 333/494/252 322/496/251
f 263/535/251 353/310/251 302/290/251 262/536/251
f 354/537/251 265/289/251 264/399/251 303/538/251
f 267/539/251 355/292/251 304/266/251 266/540/251
f 356/541/251 269/265/251 268/391/251 305/542/251
f 271/543/251 357/272/251 306/246/251 270/544/251
f 358/545/251 273/245/251 272/381/251 307/546/251
f 275/547/251 359/252/251 308/224/251 274/548/251
f 360/549/251 277/223/251 276/373/251 309/550/251
f 279/551/251 361/232/251 310/231/251 278/552/251
f 362/553/251 281/364/251 280/363/251 311/554/251
f 283/555/251 363/208/251 312/207/251 282/556/251
f 364/557/251 285/352/251 284/351/251 313/558/251
f 287/559/251 365/560/251 314/561/251 286/562/251
f 366/563/251 289/340/251 288/339/251 315/564/251
f 291/565/251 367/566/251 316/567/251 290/568/251
f 368/569/251 293/328/251 292/327/251 317/570/251
f 295/571/251 369/401/251 318/572/251 294/573/251
f 370/574/251 297/316/251 296/315/251 319/575/251
f 299/576/251 371/393/251 320/577/251 298/578/251
f 372/579/251 301/300/251 300/299/251 321/580/251
f 262/536/251 302/290/251 265/289/251 354/537/251
f 303/538/251 264/399/251 355/292/251 267/539/251
f 266/540/251 304/266/251 269/265/251 356/541/251
f 305/542/251 268/391/251 357/272/251 271/543/251
f 270/544/251 306/246/251 273/245/251 358/545/251
f 307/546/251 272/381/251 359/252/251 275/547/251
f 274/548/251 308/224/251 277/223/251 360/549/251
f 309/550/251 276/373/251 361/232/251 279/551/251
f 278/552/251 310/231/251 281/364/251 362/553/251
f 311/554/251 280/363/251 363/208/251 283/555/251
f 282/556/251 312/207/251 285/352/251 364/557/251
f 313/558/251 284/351/251 365/560/251 287/559/251
f 286/562/251 314/561/251 289/340/251 366/563/251
f 315/564/251 288/339/251 367/566/251 291/565/251
f 290/568/251 316/567/251 293/328/251 368/569/251
f 317/570/251 292/327/251 369/401/251 295/571/251
f 294/573/251 318/572/251 297/316/251 370/574/251
f 319/575/251 296/315/251 371/393/251 299/576/251
f 298/578/251 320/577/251 301/300/251 372/579/251
f 321/580/251 300/299/251 353/310/251 263/535/251
f 131/365/193 281/364/193 310/231/112 160/230/111
f 211/487/292 364/581/292 313/582/223 247/482/223
f 165/297/152 337/296/152 328/583/293 258/488/293
f 246/221/105 311/220/105 283/357/188 233/356/188
f 164/472/248 314/561/294 365/560/295 218/451/242
f 167/287/145 333/286/145 323/584/296 259/490/296
f 135/353/186 285/352/186 312/207/97 162/206/96
f 207/489/297 366/585/297 315/586/224 248/483/224
f 169/277/140 342/276/140 324/587/298 260/492/298
f 247/482/223 313/582/223 287/345/181 235/344/181
f 166/477/249 316/567/299 367/566/300 219/461/247
f 171/271/136 345/270/136 329/588/301 261/493/301
f 139/341/179 289/340/179 314/561/294 164/472/248
f 202/491/302 368/589/302 317/590/227 249/484/227
f 252/261/130 331/260/130 348/389/207 112/388/207
f 248/483/224 315/586/224 291/333/174 237/332/174
f 168/481/250 318/572/303 369/401/217 220/400/216
f 253/251/124 327/250/124 352/383/204 116/382/204
f 143/329/172 293/328/172 316/567/299 166/477/249
f 203/397/213 370/396/213 319/591/232 250/485/232
f 254/241/118 325/240/118 335/379/201 120/378/201
f 249/484/227 317/590/227 295/321/167 239/320/167
f 170/408/222 320/577/304 371/393/211 221/392/210
f 255/229/110 326/228/110 340/375/199 124/374/199
f 147/317/165 297/316/165 318/572/303 168/481/250
f 208/387/206 372/386/206 321/592/235 251/486/235
f 256/217/103 330/216/103 344/371/196 128/370/196
f 250/485/232 319/591/232 299/307/158 241/306/158
f 222/405/219 262/404/219 354/303/156 210/302/156
f 257/145/63 332/144/63 347/367/194 132/366/194
f 151/301/155 301/300/155 320/577/304 170/408/222
f 213/293/150 355/292/149 264/399/215 114/398/214
f 258/488/293 328/583/293 351/361/190 136/360/190
f 251/486/235 321/592/235 263/403/218 223/402/218
f 224/395/212 266/394/212 356/283/143 206/282/143
f 259/490/296 323/584/296 336/355/187 140/354/187
f 214/273/138 357/272/137 268/391/209 118/390/208
f 260/492/298 324/587/298 339/349/183 144/348/183
f 226/385/205 270/384/205 358/263/131 204/262/131
f 261/493/301 329/588/301 343/343/180 148/342/180
f 215/253/126 359/252/125 272/381/203 122/380/202
f 228/377/200 274/376/200 360/243/119 205/242/119
f 216/233/114 361/232/113 276/373/198 126/372/197
f 230/369/195 278/368/195 362/219/104 209/218/104
f 217/209/99 363/208/98 280/363/192 130/362/191
f 232/359/189 282/358/189 364/581/292 211/487/292
f 218/451/242 365/560/295 284/351/185 134/350/184
f 234/347/182 286/346/182 366/585/297 207/489/297
f 219/461/247 367/566/300 288/339/178 138/338/177
f 236/335/175 290/334/175 368/589/302 202/491/302
f 382/500/257 343/501/258 322/496/251
f 379/528/285 351/529/286 322/496/251
f 373/504/261 348/505/262 322/496/251
f 377/520/277 344/521/278 322/496/251
f 380/532/289 336/533/290 322/496/251
f 374/508/265 352/509/266 322/496/251
f 381/495/253 339/497/254 322/496/251
f 376/516/273 340/517/274 322/496/251
f 378/524/281 347/525/282 322/496/251
f 375/512/269 335/513/270 322/496/251
