# Blender 5.2.1 LTS
# www.blender.org
mtllib HighBayLight.mtl
o HighBayLight
v 0.119547 0.658699 -0.119547
v 0.119547 0.658699 0.119547
v -0.119547 0.658699 -0.119547
v -0.119547 0.658699 0.119547
v -0.000000 0.658699 0.169065
v 0.000000 0.658699 -0.169065
v 0.169065 0.658699 0.000000
v -0.169065 0.658699 -0.000000
v 0.083131 0.880633 -0.000000
v 0.530714 0.341041 0.000000
v 0.379259 0.537901 0.000000
v 0.268177 0.537901 -0.268177
v -0.000000 0.537901 0.379259
v 0.268177 0.537901 0.268177
v -0.379259 0.537901 -0.000000
v -0.268177 0.537901 0.268177
v 0.000000 0.537901 -0.379259
v -0.268177 0.537901 -0.268177
v 0.609747 0.126130 0.000000
v 0.375271 0.341041 -0.375271
v -0.000000 0.341041 0.530714
v 0.375271 0.341041 0.375271
v -0.530714 0.341041 -0.000000
v -0.375271 0.341041 0.375271
v 0.000000 0.341041 -0.530714
v -0.375271 0.341041 -0.375271
v 0.568826 0.001153 0.000000
v 0.431156 0.126130 -0.431156
v -0.000000 0.126130 0.609747
v 0.431156 0.126130 0.431156
v -0.609747 0.126130 -0.000000
v -0.431156 0.126130 0.431156
v 0.000000 0.126130 -0.609747
v -0.431156 0.126130 -0.431156
v 0.402221 0.001153 -0.402221
v -0.000000 0.001153 0.568826
v 0.402221 0.001153 0.402221
v -0.568826 0.001153 -0.000000
v -0.402221 0.001153 0.402221
v 0.000000 0.001153 -0.568826
v -0.402221 0.001153 -0.402221
v 0.083131 0.838347 -0.000000
v 0.058783 0.838347 0.058783
v 0.000000 0.838347 0.083131
v -0.058783 0.838347 0.058783
v -0.083131 0.838347 0.000000
v -0.058783 0.838347 -0.058783
v -0.000000 0.838347 -0.083131
v 0.058783 0.838347 -0.058783
v 0.083131 0.714983 -0.000000
v 0.058783 0.880633 0.058783
v 0.000000 0.880633 0.083131
v -0.058783 0.880633 0.058783
v -0.083131 0.880633 0.000000
v -0.058783 0.880633 -0.058783
v -0.000000 0.880633 -0.083131
v 0.058783 0.880633 -0.058783
v 0.058783 0.714983 -0.058783
v -0.083131 0.714983 0.000000
v -0.058783 0.714983 0.058783
v -0.058783 0.714983 -0.058783
v -0.000000 0.714983 -0.083131
v 0.058783 0.714983 0.058783
v 0.000000 0.714983 0.083131
v 0.104315 0.838347 -0.000000
v 0.073762 0.838347 0.073762
v 0.000000 0.838347 0.104315
v -0.073762 0.838347 0.073762
v -0.104315 0.838347 0.000000
v -0.073762 0.838347 -0.073762
v -0.000000 0.838347 -0.104315
v 0.073762 0.838347 -0.073762
v -0.073762 0.880633 -0.073762
v -0.104315 0.880633 0.000000
v 0.000000 0.880633 0.104315
v 0.073762 0.880633 0.073762
v 0.104315 0.880633 -0.000000
v -0.073762 0.880633 0.073762
v -0.000000 0.880633 -0.104315
v 0.073762 0.880633 -0.073762
v 0.073762 0.684649 -0.073762
v 0.073762 0.714983 -0.073762
v -0.073762 0.684649 0.073762
v -0.073762 0.714983 0.073762
v 0.073762 0.684649 0.073762
v 0.073762 0.714983 0.073762
v 0.000000 0.714983 0.104315
v -0.000000 0.714983 -0.104315
v 0.104315 0.714983 -0.000000
v -0.104315 0.714983 0.000000
v -0.073762 0.714983 -0.073762
v 0.104315 0.684649 -0.000000
v -0.104315 0.684649 0.000000
v -0.073762 0.684649 -0.073762
v -0.000000 0.684649 -0.104315
v 0.000000 0.684649 0.104315
v 0.083131 0.900949 -0.000000
v 0.058783 0.900949 0.058783
v 0.000000 0.900949 0.083131
v -0.058783 0.900949 0.058783
v -0.083131 0.900949 0.000000
v -0.058783 0.900949 -0.058783
v -0.000000 0.900949 -0.083131
v 0.058783 0.900949 -0.058783
v -0.000000 0.978732 0.023777
v -0.064699 0.658699 -0.156196
v -0.064699 0.658699 0.156196
v -0.145136 0.537901 -0.350390
v -0.145136 0.537901 0.350390
v -0.203095 0.341041 -0.490316
v -0.203095 0.341041 0.490316
v -0.233340 0.126130 -0.563333
v -0.233340 0.126130 0.563333
v -0.217680 0.001153 -0.525527
v -0.217680 0.001153 0.525527
v -0.031813 0.838347 0.076803
v -0.031813 0.838347 -0.076803
v -0.031813 0.880633 0.076803
v -0.031813 0.880633 -0.076803
v -0.031813 0.714983 0.076803
v -0.031813 0.714983 -0.076803
v -0.039919 0.838347 0.096374
v -0.039919 0.838347 -0.096374
v -0.039919 0.880633 0.096374
v -0.039919 0.880633 -0.096374
v -0.039919 0.714983 0.096374
v -0.039919 0.714983 -0.096374
v -0.039919 0.684649 -0.096374
v -0.039919 0.684649 0.096374
v -0.031813 0.900949 0.076803
v -0.031813 0.900949 -0.076803
v -0.043210 0.900949 0.000000
v 0.064699 0.658699 0.156196
v 0.064699 0.658699 -0.156196
v 0.145136 0.537901 0.350390
v 0.145136 0.537901 -0.350390
v 0.203095 0.341041 0.490316
v 0.203096 0.341041 -0.490316
v 0.233340 0.126130 0.563333
v 0.233340 0.126130 -0.563333
v 0.217680 0.001153 0.525527
v 0.217680 0.001153 -0.525527
v 0.031813 0.838347 -0.076803
v 0.031813 0.838347 0.076803
v 0.031813 0.880633 -0.076803
v 0.031813 0.880633 0.076803
v 0.031813 0.714983 -0.076803
v 0.031813 0.714983 0.076803
v 0.039919 0.838347 -0.096374
v 0.039919 0.838347 0.096374
v 0.039919 0.880633 -0.096374
v 0.039919 0.880633 0.096374
v 0.039919 0.714983 -0.096374
v 0.039919 0.714983 0.096374
v 0.039919 0.684649 0.096374
v 0.039919 0.684649 -0.096374
v 0.031813 0.900949 -0.076803
v 0.031813 0.900949 0.076803
v 0.043210 0.900949 -0.000000
v 0.156196 0.658699 -0.064699
v -0.156196 0.658699 -0.064699
v 0.350390 0.537901 -0.145136
v -0.350390 0.537901 -0.145136
v 0.490316 0.341041 -0.203095
v -0.490316 0.341041 -0.203095
v 0.563333 0.126130 -0.233340
v -0.563333 0.126130 -0.233340
v 0.525527 0.001153 -0.217680
v -0.525527 0.001153 -0.217680
v -0.076803 0.838347 -0.031813
v 0.076803 0.838347 -0.031813
v -0.076803 0.880633 -0.031813
v 0.076803 0.880633 -0.031813
v 0.076803 0.714983 -0.031813
v -0.076803 0.714983 -0.031813
v -0.096374 0.838347 -0.039919
v 0.096374 0.838347 -0.039919
v -0.096374 0.880633 -0.039919
v 0.096374 0.880633 -0.039919
v 0.096374 0.714983 -0.039919
v -0.096374 0.714983 -0.039919
v -0.096374 0.684649 -0.039919
v 0.096374 0.684649 -0.039919
v -0.076803 0.900949 -0.031813
v -0.000000 0.900949 -0.043210
v 0.076803 0.900949 -0.031813
v -0.036882 0.900949 -0.036882
v 0.036882 0.900949 -0.036882
v -0.156196 0.658699 0.064699
v 0.156196 0.658699 0.064699
v -0.350390 0.537901 0.145136
v 0.350390 0.537901 0.145136
v -0.490316 0.341041 0.203095
v 0.490316 0.341041 0.203095
v -0.563333 0.126130 0.233340
v 0.563332 0.126130 0.233340
v -0.525527 0.001153 0.217680
v 0.525527 0.001153 0.217680
v 0.076803 0.838347 0.031813
v -0.076803 0.838347 0.031813
v 0.076803 0.880633 0.031813
v -0.076803 0.880633 0.031813
v 0.076803 0.714983 0.031813
v -0.076803 0.714983 0.031813
v 0.096374 0.838347 0.039919
v -0.096374 0.838347 0.039919
v 0.096374 0.880633 0.039919
v -0.096374 0.880633 0.039919
v 0.096374 0.714983 0.039919
v -0.096374 0.714983 0.039919
v -0.096374 0.684649 0.039919
v 0.096374 0.684649 0.039919
v 0.076803 0.900949 0.031813
v -0.076803 0.900949 0.031813
v 0.000000 0.900949 0.043210
v -0.036882 0.900949 0.036882
v 0.036882 0.900949 0.036882
v -0.000000 0.925302 0.023777
v 0.023777 0.925302 0.000000
v -0.023777 0.925302 -0.000000
v -0.016813 0.925302 0.016813
v 0.016813 0.925302 0.016813
v 0.000000 0.925302 -0.023777
v -0.016813 0.925302 -0.016813
v 0.016813 0.925302 -0.016813
v 0.023777 0.978732 0.000000
v -0.023777 0.978732 -0.000000
v -0.016813 0.978732 0.016813
v 0.016813 0.978732 0.016813
v 0.000000 0.978732 -0.023777
v -0.016813 0.978732 -0.016813
v 0.016813 0.978732 -0.016813
v 0.563333 0.001153 -0.233340
v 0.431156 0.001153 -0.431156
v 0.233340 0.001153 0.563333
v 0.431156 0.001153 0.431156
v -0.563333 0.001153 0.233340
v -0.431156 0.001153 0.431156
v -0.233340 0.001153 -0.563333
v -0.431156 0.001153 -0.431156
v -0.233340 0.001153 0.563333
v -0.000000 0.001153 0.609747
v 0.233340 0.001153 -0.563333
v 0.000000 0.001153 -0.609747
v 0.563332 0.001153 0.233340
v 0.609747 0.001153 0.000000
v -0.563333 0.001153 -0.233340
v -0.609747 0.001153 -0.000000
v -0.028590 0.043287 0.028590
v -0.000000 0.458965 -0.065757
v -0.065757 0.064370 0.000000
v -0.040432 0.043287 0.000000
v 0.065757 0.064370 0.000000
v 0.065757 0.458965 0.000000
v 0.040432 0.043287 0.000000
v -0.065757 0.458965 0.000000
v -0.000000 0.043287 0.000000
v -0.000000 0.043287 0.040432
v -0.025164 0.458965 -0.060751
v -0.000000 0.064370 -0.065757
v -0.000000 0.043287 -0.040432
v 0.025164 0.458965 -0.060751
v 0.060751 0.458965 -0.025164
v -0.060751 0.458965 -0.025164
v -0.000000 0.458965 0.065757
v -0.025164 0.458965 0.060751
v 0.025164 0.458965 0.060751
v 0.060751 0.458965 0.025164
v -0.060751 0.458965 0.025164
v 0.046497 0.458965 -0.046497
v 0.046497 0.458965 0.046497
v -0.046497 0.458965 0.046497
v -0.046497 0.458965 -0.046497
v 0.095417 0.147904 0.000000
v -0.000000 0.231437 -0.065757
v 0.088154 0.147904 -0.036514
v 0.000000 0.147904 -0.095417
v -0.088154 0.147904 -0.036514
v 0.065757 0.231437 0.000000
v 0.088154 0.147904 0.036515
v -0.065757 0.231437 0.000000
v -0.095417 0.147904 0.000000
v -0.088154 0.147904 0.036514
v -0.025164 0.231437 -0.060751
v 0.067470 0.147904 0.067470
v -0.067470 0.147904 0.067470
v 0.025164 0.231437 -0.060751
v 0.060751 0.231437 -0.025164
v -0.060751 0.231437 -0.025164
v -0.000000 0.231437 0.065757
v -0.025164 0.231437 0.060751
v 0.025164 0.231437 0.060751
v 0.060751 0.231437 0.025164
v -0.060751 0.231437 0.025164
v 0.046497 0.231437 -0.046497
v 0.046497 0.231437 0.046497
v -0.046497 0.231437 0.046497
v -0.046497 0.231437 -0.046497
v -0.028590 0.043287 -0.028590
v -0.025164 0.064370 -0.060751
v 0.028590 0.043287 0.028590
v 0.028590 0.043287 -0.028590
v 0.025164 0.064370 -0.060751
v 0.060751 0.064370 -0.025164
v -0.060751 0.064370 -0.025164
v -0.000000 0.064370 0.065757
v -0.025164 0.064370 0.060751
v 0.025164 0.064370 0.060751
v 0.060751 0.064370 0.025164
v -0.060751 0.064370 0.025164
v 0.046497 0.064370 -0.046497
v 0.046497 0.064370 0.046497
v -0.046497 0.064370 0.046497
v -0.046497 0.064370 -0.046497
v -0.036514 0.147904 0.088154
v 0.036514 0.147904 -0.088154
v 0.067470 0.147904 -0.067470
v -0.067470 0.147904 -0.067470
v -0.036514 0.147904 -0.088154
v 0.036514 0.147904 0.088154
v -0.000000 0.147904 0.095417
v -0.000000 4.848016 0.023777
v -0.000000 4.848016 0.000000
v 0.023777 4.848016 0.000000
v -0.023777 4.848016 -0.000000
v -0.016813 4.848016 0.016813
v 0.016813 4.848016 0.016813
v 0.000000 4.848016 -0.023777
v -0.016813 4.848016 -0.016813
v 0.016813 4.848016 -0.016813
v 0.058783 0.776665 -0.058783
v -0.058783 0.776665 0.058783
v 0.058783 0.776665 0.058783
v 0.083131 0.776665 -0.000000
v -0.083131 0.776665 0.000000
v -0.058783 0.776665 -0.058783
v -0.000000 0.776665 -0.083131
v 0.000000 0.776665 0.083131
v -0.031813 0.776665 0.076803
v -0.031813 0.776665 -0.076803
v 0.031813 0.776665 -0.076803
v 0.031813 0.776665 0.076803
v 0.076803 0.776665 -0.031813
v -0.076803 0.776665 -0.031813
v 0.076803 0.776665 0.031813
v -0.076803 0.776665 0.031813
vn -0.3134 0.8964 -0.3134
vn -0.2631 0.9282 -0.2631
vn -0.1424 0.9282 -0.3437
vn -0.1696 0.8964 -0.4095
vn 0.3437 0.9282 -0.1424
vn 0.3720 0.9282 -0.0000
vn 0.4433 0.8964 -0.0000
vn 0.4095 0.8964 -0.1696
vn -0.1424 0.9282 0.3437
vn -0.2631 0.9282 0.2631
vn -0.3134 0.8964 0.3134
vn -0.1696 0.8964 0.4095
vn 0.3134 0.8964 0.3134
vn 0.4095 0.8964 0.1696
vn 0.3437 0.9282 0.1424
vn 0.2631 0.9282 0.2631
vn 0.4204 0.8628 0.2809
vn -0.5556 -0.0000 -0.8315
vn -0.9808 -0.0000 -0.1951
vn 0.4958 0.8628 -0.0986
vn -0.3437 0.9282 0.1424
vn -0.3720 0.9282 -0.0000
vn -0.4433 0.8964 -0.0000
vn -0.4095 0.8964 0.1696
vn -0.3437 0.9282 -0.1424
vn -0.4095 0.8964 -0.1696
vn -0.4204 0.8628 -0.2809
vn 0.8315 -0.0000 -0.5556
vn -0.8315 -0.0000 0.5556
vn 0.1696 0.8964 0.4095
vn -0.0000 0.8964 0.4433
vn 0.0986 0.8628 0.4958
vn 0.1424 0.9282 0.3437
vn -0.0000 0.9282 0.3720
vn 0.1557 0.6023 0.7829
vn -0.1557 0.6023 -0.7829
vn 0.4435 0.6023 -0.6637
vn 0.6637 0.6023 0.4435
vn -0.4958 0.8628 0.0986
vn 0.1696 0.8964 -0.4095
vn 0.3134 0.8964 -0.3134
vn 0.2809 0.8628 -0.4204
vn -0.2809 0.8628 0.4204
vn -0.0000 0.8964 -0.4433
vn -0.0986 0.8628 -0.4958
vn 0.7821 0.3393 0.5226
vn 0.9226 0.3393 -0.1835
vn -0.9226 0.3393 0.1835
vn -0.5226 0.3393 0.7821
vn -0.6637 0.6023 -0.4435
vn -0.4435 0.6023 0.6637
vn -0.7829 0.6023 0.1557
vn 0.7829 0.6023 -0.1557
vn 0.9808 -0.0000 -0.1951
vn -0.9808 -0.0000 0.1951
vn -0.5556 -0.0000 0.8315
vn -0.8315 -0.0000 -0.5556
vn 0.5226 0.3393 -0.7821
vn -0.1835 0.3393 -0.9226
vn 0.1835 0.3393 0.9226
vn -0.7821 0.3393 -0.5226
vn -0.1327 -0.7331 -0.6671
vn 0.5655 -0.7331 -0.3779
vn 0.3779 -0.7331 -0.5655
vn -0.3779 -0.7331 -0.5655
vn 0.8315 -0.0000 0.5556
vn 0.5556 -0.0000 -0.8315
vn -0.1951 -0.0000 -0.9808
vn 0.1951 -0.0000 0.9808
vn -0.0000 1.0000 -0.0000
vn -0.0000 -1.0000 -0.0000
vn 0.5556 -0.0000 0.8315
vn 0.9808 -0.0000 0.1951
vn 0.1951 -0.0000 -0.9808
vn -0.1951 -0.0000 0.9808
vn 0.2631 0.9282 -0.2631
vn -0.0000 0.9282 -0.3720
vn 0.1424 0.9282 -0.3437
vn -0.1798 0.6633 -0.7264
vn 0.1327 -0.7331 0.6671
vn -0.5655 -0.7331 -0.3779
vn -0.5226 0.3393 -0.7821
vn -0.1557 0.6023 0.7829
vn -0.1835 0.3393 0.9226
vn -0.2809 0.8628 -0.4204
vn -0.0986 0.8628 0.4958
vn -0.4435 0.6023 -0.6637
vn 0.7264 0.6633 0.1798
vn -0.5655 -0.7331 0.3779
vn 0.6671 -0.7331 0.1327
vn 0.5226 0.3393 0.7821
vn 0.1835 0.3393 -0.9226
vn 0.0986 0.8628 -0.4958
vn 0.1557 0.6023 -0.7829
vn 0.4435 0.6023 0.6637
vn 0.2809 0.8628 0.4204
vn 0.6671 -0.7331 -0.1327
vn 0.1798 0.6633 -0.7264
vn -0.6671 -0.7331 -0.1327
vn -0.1798 0.6633 0.7264
vn 0.5655 -0.7331 0.3779
vn -0.1327 -0.7331 0.6671
vn -0.9226 0.3393 -0.1835
vn 0.6637 0.6023 -0.4435
vn -0.7829 0.6023 -0.1557
vn 0.7821 0.3393 -0.5226
vn -0.4958 0.8628 -0.0986
vn 0.4204 0.8628 -0.2809
vn -0.6671 -0.7331 0.1327
vn 0.1327 -0.7331 -0.6671
vn -0.3779 -0.7331 0.5655
vn 0.3779 -0.7331 0.5655
vn -0.6637 0.6023 0.4435
vn -0.7821 0.3393 0.5226
vn 0.9226 0.3393 0.1835
vn -0.4204 0.8628 0.2809
vn 0.7829 0.6023 0.1557
vn 0.4958 0.8628 0.0986
vn 0.3827 -0.0000 -0.9239
vn 0.3827 -0.0000 0.9239
vn -0.9239 -0.0000 0.3827
vn 0.9239 -0.0000 -0.3827
vn -0.7264 0.6633 0.1798
vn 0.7264 0.6633 -0.1798
vn 0.1798 0.6633 0.7264
vn -0.7264 0.6633 -0.1798
vn 0.9239 -0.0000 0.3827
vn -0.9239 -0.0000 -0.3827
vn -0.3827 -0.0000 0.9239
vn -0.3827 -0.0000 -0.9239
vn -0.7852 -0.3289 0.5247
vn -0.5247 -0.3289 0.7852
vn 0.5247 -0.3289 0.7852
vn -0.1842 -0.3289 -0.9262
vn 0.7852 -0.3289 0.5247
vn 0.7852 -0.3289 -0.5247
vn -0.9262 -0.3289 -0.1842
vn -0.9262 -0.3289 0.1842
vn 0.9262 -0.3289 0.1842
vn -0.7852 -0.3289 -0.5247
vn 0.1842 -0.3289 -0.9262
vn 0.9262 -0.3289 -0.1842
vn -0.1842 -0.3289 0.9262
vn 0.5247 -0.3289 -0.7852
vn -0.5247 -0.3289 -0.7852
vn 0.1842 -0.3289 0.9262
vn -0.4524 -0.7685 -0.4524
vn 0.1844 -0.7872 -0.5884
vn -0.5884 -0.7872 0.1844
vn -0.1844 -0.7872 -0.5884
vn 0.5884 -0.7872 0.1844
vn 0.4524 -0.7685 -0.4524
vn 0.5884 -0.7872 -0.1844
vn -0.5884 -0.7872 -0.1844
vn 0.4524 -0.7685 0.4524
vn -0.1844 -0.7872 0.5884
vn -0.4524 -0.7685 0.4524
vn 0.1844 -0.7872 0.5884
vn 0.1842 0.3289 0.9262
vn -0.5247 0.3289 -0.7852
vn 0.5247 0.3289 -0.7852
vn -0.1842 0.3289 0.9262
vn 0.9262 0.3289 -0.1842
vn 0.1842 0.3289 -0.9262
vn -0.7852 0.3289 -0.5247
vn 0.9262 0.3289 0.1842
vn -0.9262 0.3289 0.1842
vn -0.9262 0.3289 -0.1842
vn 0.7852 0.3289 -0.5247
vn 0.7852 0.3289 0.5247
vn -0.1842 0.3289 -0.9262
vn 0.5247 0.3289 0.7852
vn -0.5247 0.3289 0.7852
vn -0.7852 0.3289 0.5247
vt 0.257887 0.242013
vt 0.247082 0.237289
vt 0.248584 0.230664
vt 0.260363 0.230896
vt 0.231638 0.212791
vt 0.224953 0.213922
vt 0.220717 0.202936
vt 0.231892 0.201029
vt 0.218711 0.242174
vt 0.224201 0.246102
vt 0.219413 0.256794
vt 0.210186 0.250258
vt 0.204447 0.218372
vt 0.211054 0.209035
vt 0.219220 0.217579
vt 0.215319 0.223124
vt 0.164611 0.201487
vt 0.181164 0.178724
vt 0.110082 0.542113
vt 0.112190 0.545197
vt 0.104346 0.553708
vt 0.099621 0.546984
vt 0.115351 0.547276
vt 0.119100 0.548022
vt 0.119332 0.559626
vt 0.111270 0.558137
vt 0.204476 0.163041
vt 0.232084 0.158767
vt 0.230779 0.247598
vt 0.237451 0.246458
vt 0.241657 0.257448
vt 0.230461 0.259333
vt 0.243164 0.242828
vt 0.251294 0.251372
vt 0.297479 0.258471
vt 0.281880 0.282231
vt 0.115190 0.530021
vt 0.112102 0.531937
vt 0.103739 0.523990
vt 0.110561 0.519351
vt 0.122751 0.547510
vt 0.125841 0.545592
vt 0.134019 0.553419
vt 0.127316 0.557973
vt 0.202166 0.229548
vt 0.204101 0.240697
vt 0.164754 0.256854
vt 0.159334 0.229261
vt 0.213861 0.229755
vt 0.215052 0.236442
vt 0.116265 0.275216
vt 0.108605 0.227891
vt 0.302727 0.231003
vt 0.298365 0.203297
vt 0.345210 0.185242
vt 0.354331 0.231926
vt 0.282713 0.179726
vt 0.259376 0.164100
vt 0.280662 0.116898
vt 0.320797 0.144141
vt 0.117633 0.181168
vt 0.144697 0.140714
vt 0.257757 0.297250
vt 0.230076 0.301976
vt 0.252318 0.210085
vt 0.242987 0.203521
vt 0.202824 0.295917
vt 0.180295 0.279845
vt 0.258431 0.219720
vt 0.061134 0.155714
vt 0.102754 0.096517
vt 0.233240 0.106899
vt 0.186206 0.115988
vt 0.163929 0.057173
vt 0.235817 0.045055
vt 0.230402 0.352567
vt 0.277278 0.344773
vt 0.300656 0.401232
vt 0.229770 0.415254
vt 0.142278 0.316931
vt 0.183387 0.343828
vt 0.158625 0.400321
vt 0.098954 0.359422
vt 0.344715 0.279096
vt 0.318110 0.319299
vt 0.147899 0.016387
vt 0.236855 0.001359
vt 0.317307 0.440974
vt 0.229853 0.458806
vt 0.141800 0.440607
vt 0.067997 0.390242
vt 0.359805 0.361972
vt 0.400030 0.303834
vt 0.439250 0.320657
vt 0.389881 0.392210
vt 0.306288 0.061253
vt 0.364628 0.102745
vt 0.403349 0.163199
vt 0.415498 0.234141
vt 0.059016 0.298903
vt 0.045364 0.227018
vt 0.481262 0.125500
vt 0.513174 0.069494
vt 0.627866 0.169018
vt 0.624938 0.173628
vt 0.626892 0.013202
vt 0.691092 0.021751
vt 0.643028 0.165531
vt 0.637652 0.164634
vt 0.564347 0.030100
vt 0.632327 0.165856
vt 0.472973 0.189446
vt 0.624167 0.179093
vt 0.020876 0.138329
vt 0.072281 0.065045
vt 0.323791 0.021627
vt 0.395784 0.072805
vt 0.443538 0.147396
vt 0.458548 0.234945
vt 0.018429 0.315614
vt 0.001359 0.226650
vt 0.192542 0.526413
vt 0.190176 0.534962
vt 0.184378 0.534590
vt 0.187230 0.523776
vt 0.310520 0.507526
vt 0.301742 0.505701
vt 0.302292 0.500224
vt 0.312530 0.502401
vt 0.138180 0.530797
vt 0.133848 0.523775
vt 0.137611 0.520051
vt 0.143152 0.528696
vt 0.127933 0.535333
vt 0.125687 0.532428
vt 0.122565 0.530301
vt 0.118834 0.529513
vt 0.118691 0.517699
vt 0.126874 0.519268
vt 0.110045 0.534921
vt 0.109332 0.538500
vt 0.097832 0.538970
vt 0.099272 0.530889
vt 0.127908 0.542603
vt 0.128646 0.539002
vt 0.139915 0.538722
vt 0.138440 0.546661
vt 0.268713 0.528847
vt 0.272366 0.520979
vt 0.276455 0.523453
vt 0.273837 0.530224
vt 0.269200 0.546044
vt 0.267720 0.537541
vt 0.272769 0.537407
vt 0.273967 0.544553
vt 0.318376 0.511409
vt 0.315979 0.516347
vt 0.308750 0.512635
vt 0.278312 0.560457
vt 0.272888 0.553747
vt 0.276895 0.551176
vt 0.281806 0.556548
vt 0.232755 0.546162
vt 0.234926 0.537703
vt 0.240605 0.538018
vt 0.237890 0.548598
vt 0.293899 0.568033
vt 0.302916 0.568530
vt 0.303235 0.574248
vt 0.292678 0.573430
vt 0.238247 0.214308
vt 0.092489 0.539097
vt 0.094290 0.528938
vt 0.202854 0.556749
vt 0.211376 0.558939
vt 0.211087 0.564647
vt 0.200377 0.561927
vt 0.268278 0.556480
vt 0.264079 0.547494
vt 0.119413 0.564938
vt 0.109330 0.563106
vt 0.191341 0.543762
vt 0.195807 0.551420
vt 0.191508 0.555259
vt 0.185876 0.545652
vt 0.145193 0.538665
vt 0.143314 0.548617
vt 0.205451 0.515000
vt 0.197820 0.519329
vt 0.194164 0.515157
vt 0.203629 0.509640
vt 0.118651 0.512289
vt 0.128905 0.514263
vt 0.247447 0.223965
vt 0.243772 0.218245
vt 0.108454 0.514393
vt 0.099893 0.520250
vt 0.089591 0.510998
vt 0.102520 0.501831
vt 0.118043 0.498381
vt 0.133715 0.501241
vt 0.120149 0.578512
vt 0.104849 0.575990
vt 0.146972 0.509991
vt 0.155603 0.523038
vt 0.094738 0.549155
vt 0.100662 0.557577
vt 0.091598 0.567826
vt 0.082417 0.555189
vt 0.078757 0.539944
vt 0.081254 0.524410
vt 0.158706 0.538109
vt 0.155992 0.553191
vt 0.129393 0.562828
vt 0.137777 0.557096
vt 0.147777 0.566155
vt 0.135210 0.575053
vt 0.225626 0.572217
vt 0.210928 0.574576
vt 0.221973 0.563033
vt 0.200179 0.500422
vt 0.214815 0.498381
vt 0.214487 0.508210
vt 0.176494 0.549248
vt 0.174325 0.534272
vt 0.196383 0.571068
vt 0.184266 0.562178
vt 0.246884 0.552527
vt 0.238226 0.564446
vt 0.231371 0.557382
vt 0.178170 0.519619
vt 0.187430 0.507844
vt 0.248322 0.523723
vt 0.250407 0.538268
vt 0.239149 0.527192
vt 0.229115 0.502107
vt 0.240875 0.511022
vt 0.233704 0.517725
vt 0.225050 0.511054
vt 0.277687 0.514274
vt 0.267862 0.518022
vt 0.274138 0.510302
vt 0.233782 0.529033
vt 0.229446 0.521463
vt 0.285609 0.565183
vt 0.283047 0.569984
vt 0.274651 0.564327
vt 0.222548 0.516138
vt 0.214125 0.513869
vt 0.292924 0.506299
vt 0.284681 0.509217
vt 0.282319 0.504391
vt 0.291969 0.500933
vt 0.262340 0.537526
vt 0.263571 0.527287
vt 0.312006 0.566425
vt 0.319898 0.561885
vt 0.323802 0.566267
vt 0.314081 0.571980
vt 0.220048 0.557672
vt 0.227546 0.553175
vt 0.283098 0.527461
vt 0.281121 0.517903
vt 0.300649 0.518728
vt 0.291416 0.522310
vt 0.287023 0.513659
vt 0.293967 0.511335
vt 0.299596 0.528591
vt 0.295007 0.529562
vt 0.283419 0.546958
vt 0.282388 0.537238
vt 0.301373 0.510891
vt 0.287728 0.560864
vt 0.294841 0.562946
vt 0.302415 0.563190
vt 0.309954 0.561132
vt 0.301458 0.555201
vt 0.309839 0.549281
vt 0.317325 0.557175
vt 0.794453 0.232506
vt 0.762447 0.288049
vt 0.648388 0.188055
vt 0.651212 0.183306
vt 0.489897 0.251954
vt 0.625358 0.184349
vt 0.290417 0.537075
vt 0.291624 0.541546
vt 0.649282 0.344037
vt 0.585319 0.335658
vt 0.633133 0.191589
vt 0.638538 0.192437
vt 0.747110 0.054381
vt 0.786445 0.106113
vt 0.650852 0.172688
vt 0.647664 0.168337
vt 0.291459 0.532552
vt 0.529331 0.303332
vt 0.628505 0.188742
vt 0.309004 0.524200
vt 0.291979 0.551898
vt 0.295323 0.544416
vt 0.300013 0.545212
vt 0.321669 0.507325
vt 0.803009 0.168569
vt 0.652130 0.177978
vt 0.711501 0.327170
vt 0.643895 0.191192
vt 0.855396 0.001359
vt 0.860023 0.001359
vt 0.860023 0.014943
vt 0.855396 0.014943
vt 0.841517 0.001359
vt 0.846143 0.001359
vt 0.846143 0.014943
vt 0.841517 0.014943
vt 0.832264 0.001359
vt 0.836890 0.001359
vt 0.836890 0.014943
vt 0.832264 0.014943
vt 0.850770 0.001359
vt 0.850770 0.014943
vt 0.304352 0.542979
vt 0.303924 0.530582
vt 0.850770 0.998641
vt 0.846143 0.998641
vt 0.864649 0.014943
vt 0.869276 0.014943
vt 0.869276 0.998641
vt 0.864649 0.998641
vt 0.860023 0.998641
vt 0.855396 0.998641
vt 0.841517 0.998641
vt 0.864649 0.001359
vt 0.869276 0.001359
vt 0.650040 0.355823
vt 0.581491 0.346844
vt 0.461267 0.190251
vt 0.469998 0.121724
vt 0.626148 0.001359
vt 0.694966 0.010536
vt 0.814803 0.167859
vt 0.805578 0.236324
vt 0.504329 0.061792
vt 0.559049 0.019415
vt 0.771215 0.295727
vt 0.716769 0.337797
vt 0.521498 0.312215
vt 0.479263 0.257172
vt 0.755007 0.045504
vt 0.797110 0.100930
vt 0.550439 0.479252
vt 0.543099 0.479603
vt 0.540291 0.416262
vt 0.546995 0.415257
vt 0.528422 0.480130
vt 0.521067 0.480280
vt 0.520858 0.417680
vt 0.527289 0.417487
vt 0.491411 0.479979
vt 0.483922 0.479712
vt 0.487462 0.413621
vt 0.494438 0.415025
vt 0.535763 0.479901
vt 0.533747 0.417014
vt 0.565165 0.478455
vt 0.557792 0.478863
vt 0.553895 0.414048
vt 0.561090 0.412734
vt 0.498866 0.480183
vt 0.501217 0.416247
vt 0.476396 0.479405
vt 0.468841 0.479075
vt 0.472365 0.411231
vt 0.480089 0.412430
vt 0.506294 0.480313
vt 0.507889 0.416861
vt 0.513692 0.480343
vt 0.514388 0.417597
vt 0.580115 0.477629
vt 0.572561 0.478044
vt 0.568599 0.411489
vt 0.576428 0.410641
vt 0.461267 0.478732
vt 0.464383 0.410212
vt 0.486077 0.389886
vt 0.477966 0.385658
vt 0.494273 0.369175
vt 0.498168 0.374895
vt 0.492928 0.393157
vt 0.502080 0.378962
vt 0.510433 0.398593
vt 0.504942 0.397238
vt 0.509810 0.384240
vt 0.513577 0.385789
vt 0.548980 0.393871
vt 0.542941 0.396011
vt 0.536427 0.382668
vt 0.540397 0.379711
vt 0.515836 0.399291
vt 0.517360 0.386648
vt 0.531713 0.398844
vt 0.526395 0.399469
vt 0.524901 0.386795
vt 0.528710 0.386085
vt 0.574460 0.381934
vt 0.563814 0.387197
vt 0.548535 0.370209
vt 0.552676 0.362824
vt 0.467798 0.380460
vt 0.490208 0.361155
vt 0.521122 0.399624
vt 0.521121 0.387034
vt 0.555949 0.390822
vt 0.544398 0.375842
vt 0.537136 0.397752
vt 0.532564 0.384677
vt 0.499054 0.395420
vt 0.505988 0.382094
vt 0.537368 0.370856
vt 0.527032 0.380610
vt 0.532605 0.377301
vt 0.515479 0.380385
vt 0.510026 0.376841
vt 0.521570 0.366958
vt 0.521233 0.381566
vt 0.505469 0.370147
vt 0.504026 0.358542
vt 0.539362 0.359488
vt 0.344876 0.527128
vt 0.343106 0.522854
vt 0.349151 0.522854
vt 0.349151 0.528899
vt 0.344876 0.518580
vt 0.349151 0.516809
vt 0.353425 0.518580
vt 0.355196 0.522854
vt 0.353425 0.527128
vt 0.836890 0.998641
vt 0.832264 0.998641
vt 0.221483 0.541068
vt 0.222397 0.537155
vt 0.203075 0.539505
vt 0.204993 0.543018
vt 0.222178 0.533174
vt 0.220391 0.529672
vt 0.203746 0.531643
vt 0.202637 0.535510
vt 0.208085 0.545511
vt 0.211865 0.546609
vt 0.209685 0.526559
vt 0.206223 0.528502
vt 0.217366 0.527191
vt 0.213601 0.526100
vt 0.215739 0.546153
vt 0.219119 0.544220
s 1
f 3/1/1 94/2/2 128/3/3 106/4/4
f 183/5/5 92/6/6 7/7/7 160/8/8
f 129/9/9 83/10/10 4/11/11 107/12/12
f 2/13/13 190/14/14 212/15/15 85/16/16
f 190/14/14 2/13/13 14/17/17 192/18/17
f 340/19/18 336/20/18 47/21/18 117/22/18
f 344/23/19 335/24/19 46/25/19 170/26/19
f 160/8/8 7/7/7 11/27/20 162/28/20
f 211/29/21 93/30/22 8/31/23 189/32/24
f 182/33/25 94/2/2 3/1/1 161/34/26
f 161/34/26 3/1/1 18/35/27 163/36/27
f 343/37/28 331/38/28 49/39/28 171/40/28
f 346/41/29 332/42/29 45/43/29 200/44/29
f 133/45/30 5/46/31 13/47/32 135/48/32
f 2/13/13 85/16/16 155/49/33 133/45/30
f 155/49/33 96/50/34 5/46/31 133/45/30
f 135/48/35 13/47/35 21/51/35 137/52/35
f 108/53/36 17/54/36 25/55/36 110/56/36
f 136/57/37 12/58/37 20/59/37 138/60/37
f 192/18/38 14/17/38 22/61/38 194/62/38
f 189/32/24 8/31/23 15/63/39 191/64/39
f 134/65/40 1/66/41 12/58/42 136/57/42
f 107/12/12 4/11/11 16/67/43 109/68/43
f 106/4/4 6/69/44 17/54/45 108/53/45
f 194/62/46 22/61/46 30/70/46 196/71/46
f 164/72/47 10/73/47 19/74/47 166/75/47
f 193/76/48 23/77/48 31/78/48 195/79/48
f 111/80/49 24/81/49 32/82/49 113/83/49
f 163/36/50 18/35/50 26/84/50 165/85/50
f 109/68/51 16/67/51 24/81/51 111/80/51
f 191/64/52 15/63/52 23/77/52 193/76/52
f 162/28/53 11/27/53 10/73/53 164/72/53
f 166/75/54 19/74/54 246/86/54 233/87/54
f 195/79/55 31/78/55 248/88/55 237/89/55
f 113/83/56 32/82/56 238/90/56 241/91/56
f 167/92/57 34/93/57 240/94/57 247/95/57
f 138/60/58 20/59/58 28/96/58 140/97/58
f 110/56/59 25/55/59 33/98/59 112/99/59
f 137/52/60 21/51/60 29/100/60 139/101/60
f 165/85/61 26/84/61 34/93/61 167/92/61
f 141/102/62 36/103/62 265/104/62 267/105/62
f 39/106/63 197/107/63 269/108/63 272/109/63
f 115/110/64 39/106/64 272/109/64 266/111/64
f 37/112/65 141/102/65 267/105/65 271/113/65
f 196/71/66 30/70/66 236/114/66 245/115/66
f 140/97/67 28/96/67 234/116/67 243/117/67
f 112/99/68 33/98/68 244/118/68 239/119/68
f 139/101/69 29/100/69 242/120/69 235/121/69
f 174/122/70 50/123/70 89/124/70 180/125/70
f 172/126/70 55/127/70 73/128/70 178/129/70
f 4/11/11 83/10/10 211/29/21 189/32/24
f 144/130/71 43/131/71 66/132/71 150/133/71
f 342/134/72 333/135/72 43/131/72 144/130/72
f 345/136/73 334/137/73 42/138/73 199/139/73
f 341/140/74 337/141/74 48/142/74 143/143/74
f 339/144/75 338/145/75 44/146/75 116/147/75
f 173/148/28 57/149/28 104/150/28 186/151/28
f 201/152/73 9/153/73 97/154/73 213/155/73
f 172/126/19 54/156/19 101/157/19 184/158/19
f 146/159/72 51/160/72 98/161/72 158/162/72
f 204/163/70 59/164/70 90/165/70 210/166/70
f 118/167/70 53/168/70 78/169/70 124/170/70
f 1/66/41 81/171/76 183/5/5 160/8/8
f 143/143/71 48/142/71 71/172/71 149/173/71
f 148/174/70 64/175/70 87/176/70 154/177/70
f 201/152/70 51/160/70 76/178/70 207/179/70
f 5/46/31 96/50/34 129/9/9 107/12/12
f 170/26/71 46/25/71 69/180/71 176/181/71
f 203/182/70 63/183/70 86/184/70 209/185/70
f 116/147/71 44/146/71 67/186/71 122/187/71
f 147/188/70 58/189/70 82/190/70 153/191/70
f 199/139/71 42/138/71 65/192/71 205/193/71
f 8/31/23 93/30/22 182/33/25 161/34/26
f 7/7/7 92/6/6 212/15/15 190/14/14
f 6/69/44 95/194/77 156/195/78 134/65/40
f 177/196/28 72/197/28 80/198/28 179/199/28
f 205/193/73 65/192/73 77/200/73 207/201/73
f 176/181/19 69/180/19 74/202/19 178/203/19
f 150/133/72 66/132/72 76/204/72 152/205/72
f 123/206/18 70/207/18 73/208/18 125/209/18
f 149/173/74 71/172/74 79/210/74 151/211/74
f 122/187/75 67/186/75 75/212/75 124/213/75
f 206/214/29 68/215/29 78/216/29 208/217/29
f 129/218/75 96/219/75 87/176/75 126/220/75
f 156/221/74 95/222/74 88/223/74 153/191/74
f 212/224/73 92/225/73 89/124/73 209/185/73
f 155/226/72 85/227/72 86/184/72 154/177/72
f 211/228/29 83/229/29 84/230/29 210/166/29
f 183/231/28 81/232/28 82/190/28 180/125/28
f 182/233/19 93/234/19 90/165/19 181/235/19
f 128/236/18 94/237/18 91/238/18 127/239/18
f 117/22/71 47/21/71 70/207/71 123/206/71
f 145/240/70 57/149/70 80/241/70 151/242/70
f 175/243/70 61/244/70 91/238/70 181/235/70
f 146/159/70 52/245/70 75/246/70 152/247/70
f 121/248/70 62/249/70 88/223/70 127/239/70
f 171/40/71 49/39/71 72/197/71 177/196/71
f 119/250/70 56/251/70 79/252/70 125/253/70
f 200/44/71 45/43/71 68/215/71 206/214/71
f 173/148/70 9/153/70 77/254/70 179/255/70
f 202/256/70 54/257/70 74/258/70 208/259/70
f 120/260/70 60/261/70 84/230/70 126/220/70
f 188/262/70 186/151/70 104/150/70 157/263/70
f 187/264/70 185/265/70 103/266/70 131/267/70
f 185/265/79 187/264/79 224/268/79 223/269/79
f 217/270/70 213/155/70 97/154/70 159/271/70
f 119/250/18 55/127/18 102/272/18 131/267/18
f 145/240/74 56/251/74 103/266/74 157/263/74
f 118/167/75 52/245/75 99/273/75 130/274/75
f 202/256/29 53/168/29 100/275/29 214/276/29
f 53/168/56 118/167/56 130/274/56 100/275/56
f 56/251/68 119/250/68 131/267/68 103/266/68
f 214/276/70 216/277/70 132/278/70 101/279/70
f 184/158/70 187/264/70 131/267/70 102/272/70
f 64/175/70 120/260/70 126/220/70 87/176/70
f 55/127/70 119/250/70 125/253/70 73/128/70
f 61/244/70 121/248/70 127/239/70 91/238/70
f 48/142/71 117/22/71 123/206/71 71/172/71
f 95/222/68 128/236/68 127/239/68 88/223/68
f 83/229/56 129/218/56 126/220/56 84/230/56
f 68/215/56 122/187/56 124/213/56 78/216/56
f 71/172/68 123/206/68 125/209/68 79/210/68
f 45/43/71 116/147/71 122/187/71 68/215/71
f 52/245/70 118/167/70 124/170/70 75/246/70
f 332/42/56 339/144/56 116/147/56 45/43/56
f 34/93/18 112/99/18 239/119/18 240/94/18
f 114/280/80 40/281/80 250/282/80 259/283/80
f 198/284/81 37/112/81 271/113/81 268/285/81
f 26/84/82 110/56/82 112/99/82 34/93/82
f 29/100/75 113/83/75 241/91/75 242/120/75
f 13/47/83 109/68/83 111/80/83 21/51/83
f 21/51/84 111/80/84 113/83/84 29/100/84
f 3/1/1 106/4/4 108/53/85 18/35/85
f 5/46/31 107/12/12 109/68/86 13/47/86
f 18/35/87 108/53/87 110/56/87 26/84/87
f 337/141/68 340/19/68 117/22/68 48/142/68
f 57/149/67 145/240/67 157/263/67 104/150/67
f 217/270/88 159/271/88 219/286/88 222/287/88
f 185/265/70 188/262/70 157/263/70 103/266/70
f 51/160/70 146/159/70 152/247/70 76/178/70
f 56/251/70 145/240/70 151/242/70 79/252/70
f 96/219/69 155/226/69 154/177/69 87/176/69
f 81/232/67 156/221/67 153/191/67 82/190/67
f 72/197/67 149/173/67 151/211/67 80/198/67
f 67/186/69 150/133/69 152/205/69 75/212/69
f 62/249/70 147/188/70 153/191/70 88/223/70
f 63/183/70 148/174/70 154/177/70 86/184/70
f 49/39/71 143/143/71 149/173/71 72/197/71
f 52/245/69 146/159/69 158/162/69 99/273/69
f 331/38/67 341/140/67 143/143/67 49/39/67
f 338/145/69 342/134/69 144/130/69 44/146/69
f 44/146/71 144/130/71 150/133/71 67/186/71
f 30/70/72 139/101/72 235/121/72 236/114/72
f 33/98/74 140/97/74 243/117/74 244/118/74
f 35/288/89 168/289/89 263/290/89 270/291/89
f 38/292/90 169/293/90 264/294/90 256/295/90
f 22/61/91 137/52/91 139/101/91 30/70/91
f 25/55/92 138/60/92 140/97/92 33/98/92
f 6/69/44 134/65/40 136/57/93 17/54/93
f 17/54/94 136/57/94 138/60/94 25/55/94
f 14/17/95 135/48/95 137/52/95 22/61/95
f 2/13/13 133/45/30 135/48/96 14/17/96
f 197/107/97 38/292/97 256/295/97 269/108/97
f 188/262/98 185/265/98 223/269/98 225/296/98
f 27/297/99 198/284/99 268/285/99 254/298/99
f 101/157/70 132/299/70 187/264/70 184/158/70
f 216/277/100 215/300/100 218/301/100 221/302/100
f 159/271/70 97/154/70 186/151/70 188/262/70
f 57/149/70 173/148/70 179/255/70 80/241/70
f 42/138/71 171/40/71 177/196/71 65/192/71
f 59/164/70 175/243/70 181/235/70 90/165/70
f 94/237/57 182/233/57 181/235/57 91/238/57
f 92/225/54 183/231/54 180/125/54 89/124/54
f 70/207/57 176/181/57 178/203/57 73/208/57
f 65/192/54 177/196/54 179/199/54 77/200/54
f 47/21/71 170/26/71 176/181/71 70/207/71
f 55/127/57 172/126/57 184/158/57 102/272/57
f 9/153/54 173/148/54 186/151/54 97/154/54
f 54/156/70 172/126/70 178/129/70 74/303/70
f 58/189/70 174/122/70 180/125/70 82/190/70
f 169/293/101 41/304/101 273/305/101 264/294/101
f 40/281/102 142/306/102 262/307/102 250/282/102
f 23/77/103 165/85/103 167/92/103 31/78/103
f 31/78/19 167/92/19 247/95/19 248/88/19
f 28/96/28 166/75/28 233/87/28 234/116/28
f 12/58/104 162/28/104 164/72/104 20/59/104
f 15/63/105 163/36/105 165/85/105 23/77/105
f 20/59/106 164/72/106 166/75/106 28/96/106
f 334/137/54 343/37/54 171/40/54 42/138/54
f 8/31/23 161/34/26 163/36/107 15/63/107
f 1/66/41 160/8/8 162/28/108 12/58/108
f 336/20/57 344/23/57 170/26/57 47/21/57
f 168/289/109 27/297/109 254/298/109 263/290/109
f 99/273/70 158/162/70 217/270/70 215/300/70
f 36/103/110 115/110/110 266/111/110 265/104/110
f 100/275/70 130/274/70 216/277/70 214/276/70
f 54/257/55 202/256/55 214/276/55 101/279/55
f 158/162/70 98/161/70 213/155/70 217/270/70
f 130/274/70 99/273/70 215/300/70 216/277/70
f 53/168/70 202/256/70 208/259/70 78/169/70
f 46/25/71 200/44/71 206/214/71 69/180/71
f 156/195/78 81/171/76 1/66/41 134/65/40
f 93/234/55 211/228/55 210/166/55 90/165/55
f 85/227/66 212/224/66 209/185/66 86/184/66
f 69/180/55 206/214/55 208/217/55 74/202/55
f 66/132/66 205/193/66 207/201/66 76/204/66
f 43/131/71 199/139/71 205/193/71 66/132/71
f 50/123/70 203/182/70 209/185/70 89/124/70
f 9/153/70 201/152/70 207/179/70 77/254/70
f 60/261/70 204/163/70 210/166/70 84/230/70
f 51/160/66 201/152/66 213/155/66 98/161/66
f 333/135/66 345/136/66 199/139/66 43/131/66
f 19/74/73 196/71/73 245/115/73 246/86/73
f 142/306/111 35/288/111 270/291/111 262/307/111
f 41/304/112 114/280/112 259/283/112 273/305/112
f 32/82/29 195/79/29 237/89/29 238/90/29
f 16/67/113 191/64/113 193/76/113 24/81/113
f 24/81/114 193/76/114 195/79/114 32/82/114
f 10/73/115 194/62/115 196/71/115 19/74/115
f 4/11/11 189/32/24 191/64/116 16/67/116
f 11/27/117 192/18/117 194/62/117 10/73/117
f 335/24/55 346/41/55 200/44/55 46/25/55
f 7/7/7 190/14/14 192/18/118 11/27/118
f 225/308/119 223/309/119 230/310/119 232/311/119
f 218/312/120 222/313/120 229/314/120 105/315/120
f 220/316/121 221/317/121 228/318/121 227/319/121
f 219/320/122 225/308/122 232/311/122 226/321/122
f 132/278/123 216/277/123 221/302/123 220/322/123
f 159/271/124 188/262/124 225/296/124 219/286/124
f 215/300/125 217/270/125 222/287/125 218/301/125
f 187/264/126 132/299/126 220/323/126 224/268/126
f 229/314/127 226/321/127 324/324/127 327/325/127
f 231/326/128 227/327/128 325/328/128 329/329/128
f 232/311/119 230/310/119 328/330/119 330/331/119
f 105/315/120 229/314/120 327/325/120 322/332/120
f 224/333/128 220/334/128 227/327/128 231/326/128
f 222/313/127 219/320/127 226/321/127 229/314/127
f 221/317/129 218/312/129 105/315/129 228/318/129
f 223/309/130 224/333/130 231/326/130 230/310/130
f 128/3/3 95/194/77 6/69/44 106/4/4
f 168/289/71 35/288/71 234/335/71 233/336/71
f 141/102/71 37/112/71 236/337/71 235/338/71
f 197/107/71 39/106/71 238/339/71 237/340/71
f 114/280/71 41/304/71 240/341/71 239/342/71
f 115/110/71 36/103/71 242/343/71 241/344/71
f 142/306/71 40/281/71 244/345/71 243/346/71
f 198/284/71 27/297/71 246/347/71 245/348/71
f 169/293/71 38/292/71 248/349/71 247/350/71
f 40/281/71 114/280/71 239/342/71 244/345/71
f 39/106/71 115/110/71 241/344/71 238/339/71
f 36/103/71 141/102/71 235/338/71 242/343/71
f 35/288/71 142/306/71 243/346/71 234/335/71
f 27/297/71 168/289/71 233/336/71 246/347/71
f 41/304/71 169/293/71 247/350/71 240/341/71
f 38/292/71 197/107/71 237/340/71 248/349/71
f 37/112/71 198/284/71 245/348/71 236/337/71
f 250/351/74 262/352/74 287/353/74 275/354/74
f 263/355/54 254/356/54 279/357/54 288/358/54
f 265/359/75 266/360/75 291/361/75 290/362/75
f 262/352/67 270/363/67 295/364/67 287/353/67
f 273/365/18 259/366/18 284/367/18 298/368/18
f 267/369/69 265/359/69 290/362/69 292/370/69
f 272/371/29 269/372/29 294/373/29 297/374/29
f 266/360/56 272/371/56 297/374/56 291/361/56
f 271/375/72 267/369/72 292/370/72 296/376/72
f 259/366/68 250/351/68 275/354/68 284/367/68
f 268/377/66 271/375/66 296/376/66 293/378/66
f 270/363/28 263/355/28 288/358/28 295/364/28
f 256/379/19 264/380/19 289/381/19 281/382/19
f 269/372/55 256/383/55 281/384/55 294/373/55
f 254/356/73 268/377/73 293/378/73 279/357/73
f 264/380/57 273/365/57 298/368/57 289/381/57
f 286/385/131 283/386/131 310/387/131 313/388/131
f 315/389/132 286/385/132 313/388/132 307/390/132
f 285/391/133 320/392/133 308/393/133 312/394/133
f 319/395/134 277/396/134 260/397/134 300/398/134
f 280/399/135 285/391/135 312/394/135 309/400/135
f 317/401/136 276/402/136 304/403/136 311/404/136
f 282/405/137 278/406/137 305/407/137 251/408/137
f 283/386/138 282/409/138 251/410/138 310/387/138
f 274/411/139 280/399/139 309/400/139 253/412/139
f 278/406/140 318/413/140 314/414/140 305/407/140
f 277/396/141 316/415/141 303/416/141 260/397/141
f 276/402/142 274/411/142 253/412/142 304/403/142
f 321/417/143 315/389/143 307/390/143 306/418/143
f 316/415/144 317/401/144 311/404/144 303/416/144
f 318/413/145 319/395/145 300/398/145 314/414/145
f 320/392/146 321/417/146 306/418/146 308/393/146
f 299/419/147 305/407/147 314/414/147 300/398/147
f 302/420/148 261/421/148 260/397/148 303/416/148
f 301/422/71 258/423/71 257/424/71 255/425/71
f 249/426/149 310/387/149 251/410/149 252/427/149
f 258/423/71 249/426/71 252/427/71 257/424/71
f 261/421/150 299/419/150 300/398/150 260/397/150
f 309/400/151 301/422/151 255/425/151 253/412/151
f 304/403/152 302/420/152 303/416/152 311/404/152
f 253/412/153 255/425/153 302/420/153 304/403/153
f 257/424/71 252/428/71 299/419/71 261/421/71
f 255/425/71 257/424/71 261/421/71 302/420/71
f 252/428/154 251/408/154 305/407/154 299/419/154
f 312/394/155 308/393/155 301/422/155 309/400/155
f 306/418/156 307/390/156 249/426/156 258/423/156
f 307/390/157 313/388/157 310/387/157 249/426/157
f 308/393/158 306/418/158 258/423/158 301/422/158
f 292/370/159 290/362/159 321/417/159 320/392/159
f 298/368/160 284/367/160 319/395/160 318/413/160
f 287/353/161 295/364/161 317/401/161 316/415/161
f 290/362/162 291/361/162 315/389/162 321/417/162
f 288/358/163 279/357/163 274/411/163 276/402/163
f 275/354/164 287/353/164 316/415/164 277/396/164
f 289/381/165 298/368/165 318/413/165 278/406/165
f 279/357/166 293/378/166 280/399/166 274/411/166
f 294/373/167 281/384/167 282/409/167 283/386/167
f 281/382/168 289/381/168 278/406/168 282/405/168
f 295/364/169 288/358/169 276/402/169 317/401/169
f 293/378/170 296/376/170 285/391/170 280/399/170
f 284/367/171 275/354/171 277/396/171 319/395/171
f 296/376/172 292/370/172 320/392/172 285/391/172
f 291/361/173 297/374/173 286/385/173 315/389/173
f 297/374/174 294/373/174 283/386/174 286/385/174
f 326/429/70 322/430/70 323/431/70 325/432/70
f 322/430/70 327/433/70 324/434/70 323/431/70
f 323/431/70 324/434/70 330/435/70 328/436/70
f 325/432/70 323/431/70 328/436/70 329/437/70
f 228/318/129 105/315/129 322/332/129 326/438/129
f 230/310/130 231/326/130 329/329/130 328/330/130
f 226/321/122 232/311/122 330/331/122 324/324/122
f 227/319/121 228/318/121 326/438/121 325/439/121
f 59/164/55 204/163/55 346/440/55 335/441/55
f 63/183/66 203/182/66 345/442/66 333/443/66
f 61/244/57 175/243/57 344/444/57 336/445/57
f 50/123/54 174/122/54 343/446/54 334/447/54
f 64/175/69 148/174/69 342/448/69 338/449/69
f 58/189/67 147/188/67 341/450/67 331/451/67
f 62/249/68 121/248/68 340/452/68 337/453/68
f 60/261/56 120/260/56 339/454/56 332/455/56
f 120/260/75 64/175/75 338/449/75 339/454/75
f 147/188/74 62/249/74 337/453/74 341/450/74
f 203/182/73 50/123/73 334/447/73 345/442/73
f 148/174/72 63/183/72 333/443/72 342/448/72
f 204/163/29 60/261/29 332/455/29 346/440/29
f 174/122/28 58/189/28 331/451/28 343/446/28
f 175/243/19 59/164/19 335/441/19 344/444/19
f 121/248/18 61/244/18 336/445/18 340/452/18
