# Blender 5.2.1 LTS
# www.blender.org
mtllib LightPortable.mtl
o PortableLight
v -0.274411 0.191095 0.417056
v -0.030690 0.713756 0.417056
v -0.274411 0.191095 -0.417056
v -0.030691 0.713756 -0.417056
v 0.237815 0.544205 0.327770
v 0.237815 0.544205 -0.327770
v -0.293553 0.150045 0.000000
v -0.011548 0.754806 -0.000000
v 0.013020 0.062132 -0.000000
v 0.252859 0.576467 -0.000000
v -0.152551 0.452426 0.457952
v -0.152551 0.452426 -0.457952
v 0.132940 0.319299 -0.000000
v 0.102538 0.719459 -0.462050
v 0.102539 0.719459 0.462050
v 0.123746 0.764938 -0.000000
v -0.214349 0.039892 0.000000
v -0.321598 0.089903 0.000000
v -0.300391 0.135382 0.462050
v -0.152551 0.452426 0.511665
v -0.004711 0.769470 0.462050
v 0.016496 0.814949 -0.000000
v -0.004711 0.769470 -0.462050
v -0.152551 0.452426 -0.511665
v -0.300391 0.135382 -0.462050
v -0.122006 0.438182 0.000000
v -0.263008 0.135802 0.000000
v 0.018996 0.740563 -0.000000
v -0.122006 0.438182 0.457952
v -0.122006 0.438182 -0.457952
v -0.243866 0.176852 0.417056
v -0.000146 0.699513 0.417056
v -0.000146 0.699513 -0.417056
v -0.243866 0.176852 -0.417056
v 0.132940 0.319299 -0.362966
v 0.028064 0.094394 -0.327770
v 0.132940 0.319299 0.362966
v 0.028065 0.094394 0.327770
v -0.193142 0.085370 0.462050
v -0.045302 0.402415 -0.511665
v -0.193142 0.085370 -0.462050
v -0.045302 0.402415 0.511665
vn -0.4226 -0.9063 -0.0000
vn -0.4201 -0.9010 0.1080
vn 0.5466 -0.2549 -0.7977
vn 0.5906 -0.1514 -0.7926
vn 0.9063 -0.4226 -0.0000
vn -0.0000 -0.0000 1.0000
vn 0.0593 0.1273 0.9901
vn 0.0974 -0.9953 -0.0000
vn 0.0969 -0.9909 0.0931
vn 0.4226 0.9063 -0.0000
vn 0.4201 0.9010 0.1080
vn 0.4201 0.9010 -0.1080
vn 0.0969 -0.9909 -0.0931
vn 0.0593 0.1273 -0.9901
vn -0.0000 -0.0000 -1.0000
vn -0.0593 -0.1273 0.9901
vn -0.0593 -0.1273 -0.9901
vn -0.4201 -0.9010 -0.1080
vn 0.8214 0.5627 -0.0931
vn 0.8250 0.5652 -0.0000
vn 0.8214 0.5627 0.0931
vn 0.5466 -0.2549 0.7977
vn 0.5906 -0.1514 0.7926
vn -0.9063 0.4226 -0.0000
vn 0.4956 -0.3552 -0.7926
vn 0.4956 -0.3552 0.7926
vt 0.400359 0.751946
vt 0.400359 0.883446
vt 0.389794 0.883446
vt 0.389794 0.751946
vt 0.218299 0.433185
vt 0.108674 0.427750
vt 0.140000 0.350392
vt 0.218375 0.358466
vt 0.218409 0.247463
vt 0.131960 0.247485
vt 0.139914 0.144550
vt 0.218312 0.136402
vt 0.218171 0.061646
vt 0.108500 0.067187
vt 0.106747 0.029982
vt 0.217832 0.024746
vt 0.374885 0.247531
vt 0.304933 0.247480
vt 0.296863 0.144397
vt 0.368728 0.101108
vt 0.062152 0.247513
vt 0.024747 0.247530
vt 0.030540 0.100033
vt 0.068095 0.101508
vt 0.068228 0.393498
vt 0.030678 0.395009
vt 0.368551 0.393502
vt 0.296869 0.350407
vt 0.780859 0.024864
vt 0.780859 0.156364
vt 0.770294 0.156364
vt 0.770294 0.024864
vt 0.814746 0.502773
vt 0.814746 0.594064
vt 0.804182 0.594064
vt 0.804182 0.502773
vt 0.328294 0.066808
vt 0.329850 0.028613
vt 0.814746 0.685354
vt 0.804182 0.685354
vt 0.329949 0.466095
vt 0.217995 0.470066
vt 0.328356 0.427922
vt 0.406070 0.395060
vt 0.412187 0.247702
vt 0.406920 0.099615
vt 0.106957 0.464939
vt 0.719455 0.778340
vt 0.733652 0.647609
vt 0.754454 0.647609
vt 0.738724 0.792445
vt 0.104248 0.719679
vt 0.117067 0.629293
vt 0.133905 0.629293
vt 0.118352 0.738949
vt 0.685567 0.300431
vt 0.699765 0.169699
vt 0.720567 0.169699
vt 0.704837 0.314535
vt 0.054520 0.538907
vt 0.041701 0.629293
vt 0.024864 0.629293
vt 0.040416 0.519638
vt 0.719455 0.516877
vt 0.738724 0.502773
vt 0.685567 0.038968
vt 0.704837 0.024864
vt 0.104248 0.538907
vt 0.118352 0.519638
vt 0.054520 0.719679
vt 0.040416 0.738949
vt 0.565755 0.645485
vt 0.461171 0.645485
vt 0.475369 0.514753
vt 0.565755 0.501934
vt 0.565755 0.789036
vt 0.475369 0.776216
vt 0.656140 0.776217
vt 0.670338 0.645485
vt 0.656140 0.514754
vt 0.780859 0.287864
vt 0.770294 0.287864
vt 0.389794 0.702218
vt 0.389794 0.610928
vt 0.400359 0.610928
vt 0.400359 0.702218
vt 0.024864 0.920176
vt 0.024864 0.788676
vt 0.035428 0.788676
vt 0.035428 0.920176
vt 0.389794 0.519638
vt 0.400359 0.519638
s 1
f 8/1/1 4/2/2 33/3/2 28/4/1
f 40/5/3 14/6/4 6/7/4 35/8/3
f 13/9/5 10/10/5 5/11/5 37/12/5
f 42/13/6 15/14/7 21/15/7 20/16/6
f 17/17/8 9/18/8 38/19/9 39/20/9
f 16/21/10 22/22/10 21/23/11 15/24/11
f 14/25/12 23/26/12 22/22/10 16/21/10
f 41/27/13 36/28/13 9/18/8 17/17/8
f 35/8/5 6/7/5 10/10/5 13/9/5
f 3/29/11 7/30/10 27/31/10 34/32/11
f 1/33/14 11/34/15 29/35/15 31/36/14
f 36/28/5 35/8/5 13/9/5 9/18/5
f 39/37/16 42/13/6 20/16/6 19/38/16
f 9/18/5 13/9/5 37/12/5 38/19/5
f 11/34/15 2/39/17 32/40/17 29/35/15
f 25/41/17 24/42/15 40/5/15 41/43/17
f 25/44/18 41/27/18 17/17/1 18/45/1
f 6/7/19 14/25/19 16/21/20 10/10/20
f 10/10/20 16/21/20 15/24/21 5/11/21
f 18/45/1 17/17/1 39/20/2 19/46/2
f 37/12/22 5/11/23 15/14/23 42/13/22
f 24/42/15 23/47/14 14/6/14 40/5/15
f 1/48/24 7/49/24 18/50/24 19/51/24
f 2/52/24 11/53/24 20/54/24 21/55/24
f 4/56/24 8/57/24 22/58/24 23/59/24
f 3/60/24 12/61/24 24/62/24 25/63/24
f 7/49/24 3/64/24 25/65/24 18/50/24
f 8/57/24 2/66/24 21/67/24 22/58/24
f 11/53/24 1/68/24 19/69/24 20/54/24
f 12/61/24 4/70/24 23/71/24 24/62/24
f 26/72/24 28/73/24 33/74/24 30/75/24
f 29/76/24 32/77/24 28/73/24 26/72/24
f 31/78/24 29/76/24 26/72/24 27/79/24
f 27/79/24 26/72/24 30/75/24 34/80/24
f 7/30/10 1/81/12 31/82/12 27/31/10
f 4/83/16 12/84/6 30/85/6 33/86/16
f 2/87/18 8/88/1 28/89/1 32/90/18
f 12/84/6 3/91/7 34/92/7 30/85/6
f 36/28/25 41/43/25 40/5/3 35/8/3
f 38/19/26 37/12/22 42/13/22 39/37/26
o PortableLightStand
v 0.152449 -0.000000 0.590400
v 0.152449 0.120000 0.590400
v 0.152449 -0.000000 -0.590400
v 0.152449 0.120000 -0.590400
v 0.272449 -0.000000 0.590400
v 0.272449 0.120000 0.590400
v 0.272449 -0.000000 -0.590400
v 0.272449 0.120000 -0.590400
v 0.152449 -0.000000 -0.510806
v 0.152449 -0.000000 0.510806
v 0.152449 0.120000 0.510806
v 0.152449 0.120000 -0.510806
v 0.272449 -0.000000 0.510806
v 0.272449 -0.000000 -0.510806
v 0.272449 0.120000 -0.510806
v 0.272449 0.120000 0.510806
v -0.304409 -0.000000 0.510806
v -0.304409 -0.000000 0.590400
v -0.282840 0.067957 0.590400
v -0.282841 0.067957 -0.510806
v -0.282841 0.067957 -0.590400
v -0.304409 -0.000000 -0.590400
v -0.304409 -0.000000 -0.510806
v -0.282840 0.067957 0.510806
v -0.033637 0.289080 -0.510806
v -0.033637 0.289080 -0.590400
v 0.011893 0.357670 -0.590400
v 0.011893 0.357670 0.510806
v 0.011893 0.357670 0.590400
v -0.033636 0.289080 0.590400
v -0.033636 0.289080 0.510806
v 0.011893 0.357670 -0.510806
v 0.064004 0.310136 0.590400
v 0.003581 0.255264 0.590400
v 0.003581 0.255264 0.510806
v 0.064004 0.310136 0.510806
v 0.064004 0.310136 -0.510806
v 0.003580 0.255264 -0.510806
v 0.064004 0.310136 -0.590400
v 0.003580 0.255264 -0.590400
v -0.033637 0.289080 -0.396472
v 0.011893 0.357670 -0.396472
v -0.033637 0.289080 0.396472
v 0.011893 0.357670 0.396472
v 0.064004 0.310136 -0.396472
v 0.003581 0.255264 0.396472
v 0.064004 0.310136 0.396472
v 0.003580 0.255264 -0.396472
vn -0.0000 -0.0000 1.0000
vn -0.0000 -0.0000 -1.0000
vn 1.0000 -0.0000 -0.0000
vn -0.0000 -1.0000 -0.0000
vn -0.8332 0.5530 -0.0000
vn -0.0000 1.0000 -0.0000
vn -1.0000 -0.0000 -0.0000
vn -0.9531 0.3025 -0.0000
vn -0.1187 0.9929 -0.0000
vn 0.6739 0.7388 -0.0000
vn -0.6725 -0.7401 -0.0000
vn 0.6723 -0.7403 -0.0000
vt 0.934301 0.025843
vt 0.977793 0.027259
vt 0.953796 0.184406
vt 0.928912 0.191421
vt 0.128670 0.832191
vt 0.085156 0.832191
vt 0.085156 0.788676
vt 0.128670 0.788676
vt 0.548811 0.053726
vt 0.505297 0.053726
vt 0.505297 0.024864
vt 0.548811 0.024864
vt 0.729082 0.407777
vt 0.685567 0.407777
vt 0.685567 0.364263
vt 0.729082 0.364263
vt 0.592325 0.053726
vt 0.592325 0.024864
vt 0.321702 0.631749
vt 0.325304 0.602114
vt 0.366461 0.607116
vt 0.362859 0.636751
vt 0.274824 0.628824
vt 0.271089 0.599463
vt 0.296652 0.598631
vt 0.293050 0.628266
vt 0.505297 0.424183
vt 0.461782 0.424183
vt 0.461782 0.053726
vt 0.592325 0.453046
vt 0.548811 0.453046
vt 0.548811 0.424183
vt 0.592325 0.424183
vt 0.505297 0.453046
vt 0.845016 0.736061
vt 0.873864 0.735122
vt 0.879253 0.900700
vt 0.850406 0.901639
vt 0.635840 0.053726
vt 0.635840 0.424183
vt 0.638245 0.866787
vt 0.612392 0.866787
vt 0.612392 0.837924
vt 0.638245 0.837924
vt 0.745308 0.871035
vt 0.719454 0.871035
vt 0.719454 0.842172
vt 0.745308 0.842172
vt 0.917355 0.733707
vt 0.946110 0.736199
vt 0.932383 0.894574
vt 0.903628 0.892082
vt 0.861963 0.023489
vt 0.905454 0.024904
vt 0.900065 0.190482
vt 0.875690 0.181864
vt 0.801525 0.737477
vt 0.825522 0.894624
vt 0.833208 0.025981
vt 0.846935 0.184356
vt 0.296652 0.846101
vt 0.293050 0.816466
vt 0.321702 0.812983
vt 0.325304 0.842618
vt 0.270150 0.874116
vt 0.271089 0.845269
vt 0.295714 0.874948
vt 0.274824 0.815908
vt 0.275707 0.657673
vt 0.293933 0.657115
vt 0.863120 0.606290
vt 0.892709 0.605599
vt 0.893677 0.647047
vt 0.864088 0.647738
vt 0.270150 0.570616
vt 0.295714 0.569784
vt 0.275707 0.787059
vt 0.293933 0.787617
vt 0.168835 0.602791
vt 0.167896 0.573943
vt 0.827431 0.241030
vt 0.858953 0.271028
vt 0.864244 0.343774
vt 0.834655 0.343083
vt 0.202803 0.659904
vt 0.201920 0.631055
vt 0.201920 0.813677
vt 0.202803 0.784828
vt 0.168835 0.841941
vt 0.167896 0.870789
vt 0.868411 0.533544
vt 0.899933 0.503546
vt 0.484367 0.837817
vt 0.487571 0.867240
vt 0.461996 0.867609
vt 0.466134 0.838045
vt 0.536875 0.867240
vt 0.540079 0.837817
vt 0.558312 0.838045
vt 0.562450 0.867609
vt 0.295201 0.698555
vt 0.276975 0.699113
vt 0.276975 0.745619
vt 0.295201 0.746177
vt 0.863276 0.385222
vt 0.833686 0.384531
vt 0.294365 0.916386
vt 0.268802 0.915554
vt 0.268802 0.529178
vt 0.294365 0.528346
vt 0.362859 0.807981
vt 0.366461 0.837616
s 1
f 51/93/27 54/94/27 62/95/27 65/96/27
f 45/97/28 46/98/28 50/99/28 49/100/28
f 55/101/29 58/102/29 48/103/29 47/104/29
f 47/105/27 48/106/27 44/107/27 43/108/27
f 52/109/30 55/101/30 47/104/30 43/110/30
f 73/111/31 70/112/31 86/113/31 85/114/31
f 76/115/27 75/116/27 71/117/27 72/118/27
f 57/119/32 54/120/32 53/121/32 58/102/32
f 45/122/30 49/123/30 56/124/30 51/125/30
f 51/125/30 56/124/30 55/101/30 52/109/30
f 49/123/29 50/126/29 57/119/29 56/124/29
f 56/124/29 57/119/29 58/102/29 55/101/29
f 52/127/30 43/128/30 60/129/30 59/130/30
f 52/109/33 53/131/33 54/132/33 51/125/33
f 65/133/34 62/134/34 63/135/34 64/136/34
f 60/137/34 61/138/34 66/139/34 59/140/34
f 44/141/35 53/142/35 66/143/35 61/144/35
f 46/145/28 45/146/28 64/147/28 63/148/28
f 45/146/30 51/93/30 65/96/30 64/147/30
f 43/128/27 44/141/27 61/144/27 60/129/27
f 53/149/28 52/127/28 59/130/28 66/150/28
f 54/151/35 46/145/35 63/148/35 62/152/35
f 70/112/31 73/111/31 72/118/31 71/117/31
f 69/153/31 68/154/31 67/155/31 74/156/31
f 79/157/36 81/158/36 69/153/36 74/159/36
f 81/158/28 82/160/28 68/154/28 69/153/28
f 77/161/37 76/115/37 72/118/37 73/162/37
f 80/163/38 79/164/38 87/165/38 90/166/38
f 75/116/36 78/167/36 70/168/36 71/117/36
f 82/160/37 80/169/37 67/170/37 68/154/37
f 48/171/36 58/172/36 78/167/36 75/116/36
f 58/173/28 53/174/28 77/175/28 78/176/28
f 53/177/37 44/178/37 76/115/37 77/161/37
f 44/178/27 48/171/27 75/116/27 76/115/27
f 46/179/37 54/180/37 80/169/37 82/160/37
f 50/181/28 46/179/28 82/160/28 81/158/28
f 57/182/36 50/181/36 81/158/36 79/157/36
f 54/183/27 57/184/27 79/164/27 80/163/27
f 90/185/27 87/186/27 84/187/27 83/188/27
f 89/189/28 88/190/28 85/191/28 86/192/28
f 77/161/37 73/162/37 85/193/37 88/194/37
f 67/170/37 80/169/37 90/195/37 83/196/37
f 78/176/38 77/175/38 88/197/38 89/198/38
f 79/157/36 74/159/36 84/199/36 87/200/36
f 70/168/36 78/167/36 89/201/36 86/202/36
f 74/156/31 67/155/31 83/203/31 84/204/31
