# Blender 5.2.1 LTS
# www.blender.org
mtllib LightTripod.mtl
o TripodLight
v -0.082131 0.853648 0.044917
v 0.077336 0.853648 -0.049592
v -0.082132 0.853648 -0.044917
v -0.039690 0.932336 0.068745
v -0.039690 0.932336 -0.068745
v 0.079380 0.932336 -0.000000
v 0.054489 0.853648 0.184212
v 0.132288 0.853648 0.139295
v 0.175779 0.932337 0.105367
v 0.003361 0.932337 0.204913
v 0.132288 0.853648 -0.139295
v 0.054489 0.853648 -0.184212
v 0.003360 0.932337 -0.204913
v 0.175779 0.932337 -0.105367
v -0.186777 0.853648 -0.044917
v -0.186777 0.853648 0.044917
v -0.179140 0.932337 0.099546
v -0.179140 0.932337 -0.099546
v -0.019988 3.703175 0.034620
v -0.019988 3.703175 -0.034620
v 0.039976 3.703175 -0.000000
v 0.175779 0.853648 0.105367
v 0.073555 0.853648 -0.000000
v 0.079089 0.853648 0.049592
v -0.036778 0.853648 0.063701
v 0.001290 0.853648 0.094509
v -0.036778 0.853648 -0.063701
v -0.000462 0.853648 -0.094509
v 0.003361 0.853648 0.204913
v 0.003360 0.853648 -0.204913
v 0.175779 0.853648 -0.105367
v -0.179140 0.853648 0.099546
v -0.179140 0.853648 -0.099546
v 0.708459 0.000000 1.118561
v 0.630661 0.000000 1.163478
v 0.637185 0.000000 -1.188352
v 0.714984 0.000000 -1.143435
v -1.318187 0.000000 0.044917
v -1.318187 0.000000 -0.044917
v 0.751143 0.000000 1.192491
v 0.673344 0.000000 1.237409
v 0.679869 0.000000 -1.262282
v 0.757668 0.000000 -1.217365
v -1.403555 0.000000 0.044917
v -1.403555 0.000000 -0.044917
v -0.743169 0.480729 -0.044917
v -0.670085 0.530458 -0.044917
v -0.755007 0.546097 -0.044917
v -0.827725 0.496299 -0.044917
v -0.743169 0.480729 0.044917
v -0.670085 0.530458 0.044917
v -0.755007 0.546097 0.044917
v -0.827725 0.496299 0.044917
v 0.384633 0.495361 -0.753335
v 0.347788 0.544517 -0.689820
v 0.305181 0.528877 -0.616355
v 0.342360 0.479793 -0.680113
v 0.382980 0.528877 -0.571438
v 0.420159 0.479793 -0.635196
v 0.425587 0.544517 -0.644903
v 0.462431 0.495361 -0.708418
v 0.378835 0.530407 0.557726
v 0.415974 0.480779 0.620795
v 0.301037 0.530407 0.602643
v 0.338175 0.480779 0.665712
v 0.458246 0.496349 0.694025
v 0.421342 0.546043 0.631220
v 0.343543 0.546043 0.676138
v 0.380447 0.496349 0.738943
v 0.140000 0.853648 -0.000000
v -0.070000 0.853648 0.121244
v -0.070000 0.853648 -0.121244
v 0.073555 0.138868 -0.000000
v -0.036778 0.138868 0.063701
v -0.036778 0.138868 -0.063701
v -0.036778 0.241603 -0.063701
v -0.036778 0.241603 0.063701
v 0.073555 0.241603 -0.000000
v -0.036778 0.302808 0.063701
v -0.036778 0.302808 -0.063701
v 0.073555 0.302808 -0.000000
v -0.027718 2.528585 0.048009
v -0.027718 2.528585 -0.048009
v 0.055436 2.528585 -0.000000
v -0.039690 2.346739 -0.068745
v 0.079380 2.346739 -0.000000
v -0.039690 2.346739 0.068745
v -0.027718 3.559820 0.048009
v -0.027718 3.559820 -0.048009
v 0.055436 3.559820 -0.000000
v -0.036119 3.559820 0.062560
v -0.036119 3.703175 0.062560
v 0.072238 3.703175 -0.000000
v -0.036119 3.703175 -0.062560
v -0.048091 2.346739 0.083297
v -0.048091 2.523599 0.083297
v 0.096183 2.523599 -0.000000
v -0.048091 2.523599 -0.083297
v -0.048091 2.346739 -0.083297
v 0.096183 2.346739 -0.000000
v -0.036119 3.559820 -0.062560
v 0.072238 3.559820 -0.000000
v 0.035000 0.853648 0.060622
v 0.035000 0.853648 -0.060622
v -0.070000 0.853648 0.000000
v 0.039495 0.932336 0.068408
v 0.039495 0.932336 -0.068408
v -0.078991 0.932336 0.000000
v 0.109093 0.853648 0.188955
v 0.109093 0.932337 0.188955
v 0.109093 0.853648 -0.188955
v 0.109093 0.932337 -0.188955
v -0.218186 0.853648 0.000000
v -0.218186 0.932337 0.000000
v 0.019890 3.703175 0.034450
v 0.019890 3.703175 -0.034450
v -0.039780 3.703175 0.000000
v 0.040190 0.853648 0.072050
v 0.038437 0.853648 -0.072050
v -0.082131 0.853648 0.000000
v 0.093388 0.853648 0.161753
v 0.093388 0.853648 -0.161754
v -0.186777 0.853648 0.000000
v 0.669560 0.000000 1.141020
v 0.676084 0.000000 -1.165893
v -1.318187 0.000000 0.000000
v 0.712244 0.000000 1.214950
v 0.718768 0.000000 -1.239823
v -1.403555 0.000000 0.000000
v -0.827725 0.496299 0.000000
v -0.755007 0.546097 0.000000
v -0.743169 0.480729 0.000000
v -0.670085 0.530458 0.000000
v 0.423532 0.495361 -0.730876
v 0.386687 0.544517 -0.667361
v 0.381259 0.479793 -0.657655
v 0.344080 0.528877 -0.593896
v 0.419347 0.496349 0.716484
v 0.382443 0.546043 0.653679
v 0.377074 0.480779 0.643254
v 0.339936 0.530407 0.580184
v 0.035080 0.853648 0.060761
v 0.035080 0.853648 -0.060761
v -0.070161 0.853648 0.000000
v 0.035080 0.121694 0.060761
v 0.035080 0.121694 -0.060761
v -0.070161 0.121694 0.000000
v 0.035080 0.241603 0.060761
v 0.035080 0.241603 -0.060761
v -0.070161 0.241603 0.000000
v -0.070161 0.302808 0.000000
v 0.035080 0.302808 -0.060761
v 0.035080 0.302808 0.060761
v 0.027582 2.528585 0.047773
v 0.027582 2.528585 -0.047773
v -0.055164 2.528585 0.000000
v -0.078991 2.346739 0.000000
v 0.039495 2.346739 -0.068408
v 0.039495 2.346739 0.068408
v 0.027582 3.559820 0.047773
v 0.027582 3.559820 -0.047773
v -0.055164 3.559820 0.000000
v 0.035942 3.703175 0.062253
v 0.035942 3.703175 -0.062253
v -0.071884 3.703175 0.000000
v 0.047856 2.523599 0.082888
v 0.047856 2.523599 -0.082888
v -0.095711 2.523599 0.000000
v -0.095711 2.346739 0.000000
v 0.047856 2.346739 -0.082888
v 0.047856 2.346739 0.082888
v 0.035942 3.559820 0.062253
v 0.035942 3.559820 -0.062253
v -0.071884 3.559820 0.000000
v -0.014391 0.088592 -0.032199
v -0.017540 0.088592 0.030380
v 0.035080 0.088592 -0.000000
v -1.260686 0.048073 -0.044917
v -1.260686 0.048073 0.044917
v -1.345972 0.049630 -0.044917
v -1.345972 0.049630 0.044917
v -1.345972 0.049630 0.000000
v -1.260686 0.048073 0.000000
v 0.601412 0.048078 1.113702
v 0.679211 0.048078 1.068784
v 0.721853 0.049635 1.142645
v 0.644055 0.049635 1.187562
v 0.682954 0.049635 1.165103
v 0.640311 0.048078 1.091243
v 0.635583 0.074304 -1.185940
v 0.713382 0.074304 -1.141023
v 0.592961 0.071969 -1.112116
v 0.670760 0.071969 -1.067199
v 0.631861 0.071969 -1.089657
v 0.674483 0.074304 -1.163481
v -0.019988 3.780038 -0.034620
v 0.039976 3.780038 -0.000000
v -0.019988 3.780038 0.034620
v -0.039780 3.780038 0.000000
v 0.019890 3.780038 -0.034450
v 0.019890 3.780038 0.034450
v -0.019988 3.716476 -0.034620
v 0.039976 3.716476 -0.000000
v -0.019988 3.716476 0.034620
v -0.039780 3.716476 0.000000
v 0.019890 3.716476 -0.034450
v 0.019890 3.716476 0.034450
v -0.106171 3.716476 0.034620
v -0.106171 3.780038 0.034620
v -0.106171 3.716476 0.000000
v -0.106171 3.780038 0.000000
v -0.106171 3.780038 -0.034620
v -0.106171 3.716476 -0.034620
v -0.066378 3.780038 0.034620
v -0.066378 3.716476 0.034620
v -0.066378 3.716476 0.000000
v -0.066378 3.716476 -0.034620
v -0.066378 3.780038 -0.034620
v -0.066378 3.780038 0.000000
v -0.066378 3.780038 0.759598
v -0.106171 3.780038 0.759598
v -0.106171 3.716476 0.759598
v -0.106171 3.780038 -0.759598
v -0.106171 3.716476 -0.759598
v -0.066378 3.780038 -0.759598
v -0.066378 3.716476 0.759598
v -0.066378 3.716476 -0.759598
v 0.039976 3.821882 -0.000000
v 0.019890 3.821882 0.034450
v -0.019988 3.821882 -0.034620
v 0.019890 3.821882 -0.034450
v -0.019988 3.821882 0.034620
v -0.039780 3.821882 0.000000
v -0.019988 3.768196 0.034620
v 0.019890 3.768196 -0.034450
v 0.019890 3.768196 0.034450
v -0.019988 3.768196 -0.034620
v 0.039976 3.768196 -0.000000
v -0.106171 3.768196 0.034620
v -0.106171 3.768196 0.000000
v -0.106171 3.768196 -0.034620
v -0.066378 3.768196 -0.034620
v -0.066378 3.768196 0.034620
v -0.106171 3.768196 0.759598
v -0.106171 3.768196 -0.759598
v -0.066378 3.768196 -0.759598
v -0.066378 3.768196 0.759598
v -0.066378 3.780038 0.976565
v -0.106171 3.780038 0.976565
v -0.106171 3.768196 0.976565
v -0.066378 3.780038 -0.976565
v -0.106171 3.780038 -0.976565
v -0.066378 3.768196 -0.976565
v -0.106171 3.768196 -0.976565
v -0.066378 3.768196 0.976565
v -0.106171 3.780038 -0.965717
v -0.106171 3.768196 -0.965717
v -0.066378 3.780038 -0.965717
v -0.066378 3.768196 -0.965717
v -0.106171 3.780038 0.965717
v -0.066378 3.780038 0.965717
v -0.066378 3.768196 0.965717
v -0.106171 3.768196 0.965717
v -0.075857 4.265358 0.976565
v -0.096691 4.265358 0.976565
v -0.075857 4.265358 -0.976565
v -0.096692 4.265358 -0.976565
v -0.106171 4.274837 0.965717
v -0.106171 4.274837 -0.965717
v -0.066378 4.274837 -0.965717
v -0.066378 4.274837 0.965717
v -0.066378 3.716476 0.324611
v -0.106171 3.716476 0.324611
v -0.066378 3.780038 0.324611
v -0.106171 3.780038 0.324611
v -0.106171 3.768196 0.324611
v -0.066378 3.768196 0.324611
v -0.106171 3.716476 -0.324611
v -0.066378 3.716476 -0.324611
v -0.106171 3.780038 -0.324611
v -0.066378 3.780038 -0.324611
v -0.066378 3.768196 -0.324611
v -0.106171 3.768196 -0.324611
v -0.096691 4.234836 0.976565
v -0.106171 4.225357 0.965717
v -0.075857 4.234836 0.976565
v -0.066378 4.225357 0.965717
v -0.066378 4.275147 0.335486
v -0.106171 4.275147 -0.335486
v -0.096692 4.265668 -0.324611
v -0.075857 4.265668 -0.324611
v -0.066378 4.275147 -0.335486
v -0.075857 4.265668 0.324611
v -0.096692 4.265668 0.324611
v -0.106171 4.275147 0.335486
v -0.066378 3.716476 -0.335486
v -0.066378 3.780038 -0.335486
v -0.106171 3.716476 -0.335486
v -0.106171 3.780038 -0.335486
v -0.066378 3.768196 -0.335486
v -0.106171 3.768196 -0.335486
v -0.106171 3.716476 0.335486
v -0.106171 3.780038 0.335486
v -0.066378 3.716476 0.335486
v -0.066378 3.780038 0.335486
v -0.106171 3.768196 0.335486
v -0.066378 3.768196 0.335486
v -0.096692 4.235116 0.324611
v -0.066378 4.225636 0.335486
v -0.075857 4.235116 0.324611
v -0.106171 4.225636 0.335486
v -0.066378 4.225636 -0.335486
v -0.096692 4.235116 -0.324611
v -0.106172 4.225678 -0.335486
v -0.075857 4.235116 -0.324611
v -0.075857 4.234836 -0.976565
v -0.066378 4.225357 -0.965717
v -0.096692 4.234836 -0.976565
v -0.106171 4.225357 -0.965717
v -0.106171 4.225636 0.324611
v -0.106171 4.275147 0.324611
v -0.066378 4.275147 -0.324611
v -0.106171 4.275147 -0.324611
v -0.066378 4.225636 0.324611
v -0.066378 4.275147 0.324611
v -0.066378 4.274837 0.976565
v -0.106171 4.274837 0.976565
v -0.066378 4.274837 -0.976565
v -0.106171 4.274837 -0.976565
v -0.066378 4.225357 -0.976565
v -0.106171 4.225357 0.976565
v -0.106171 4.225357 -0.976565
v -0.066378 4.225357 0.976565
v -0.106170 4.225595 -0.324611
v -0.066378 4.225636 -0.324611
v -0.096692 4.235116 0.307625
v -0.096692 4.265668 0.307625
v -0.075857 4.265668 -0.307625
v -0.096692 4.265668 -0.307625
v -0.075857 4.235116 0.307625
v -0.075857 4.265668 0.307625
v -0.075857 4.265358 0.993551
v -0.096691 4.265358 0.993551
v -0.075857 4.265358 -0.993551
v -0.096692 4.265358 -0.993551
v -0.075857 4.234836 -0.993551
v -0.096691 4.234836 0.993551
v -0.096692 4.234836 -0.993551
v -0.075857 4.234836 0.993551
v -0.096692 4.235116 -0.307625
v -0.075857 4.235116 -0.307625
v -0.103340 4.227065 0.304228
v -0.103340 4.273876 0.304228
v -0.069209 4.273876 -0.304228
v -0.103340 4.273876 -0.304228
v -0.069209 4.227065 0.304228
v -0.069209 4.273876 0.304228
v -0.069209 4.273401 0.996949
v -0.103340 4.273401 0.996949
v -0.069209 4.273401 -0.996949
v -0.103340 4.273401 -0.996949
v -0.069209 4.226637 -0.996949
v -0.103340 4.226637 0.996949
v -0.103340 4.226637 -0.996949
v -0.069209 4.226637 0.996949
v -0.103340 4.227065 -0.304228
v -0.069209 4.227065 -0.304228
v -0.103340 4.227065 0.287242
v -0.103340 4.273876 0.287242
v -0.069209 4.273876 -0.287242
v -0.103340 4.273876 -0.287242
v -0.069209 4.227065 0.287242
v -0.069209 4.273876 0.287242
v -0.069209 4.273401 1.013935
v -0.103340 4.273401 1.013935
v -0.069209 4.273401 -1.013935
v -0.103340 4.273401 -1.013935
v -0.069209 4.226637 -1.013935
v -0.103340 4.226637 1.013935
v -0.103340 4.226637 -1.013935
v -0.069209 4.226637 1.013935
v -0.103340 4.227065 -0.287242
v -0.069209 4.227065 -0.287242
vn -0.0228 0.0150 0.9996
vn -0.0092 0.0061 0.9999
vn -0.0051 0.0033 1.0000
vn 0.0043 -0.0000 1.0000
vn -0.0000 1.0000 -0.0000
vn -0.0000 -1.0000 -0.0000
vn -0.8681 -0.0000 -0.4963
vn -0.0786 0.9361 0.3427
vn -0.1688 0.9412 0.2926
vn -0.1689 0.9412 0.2925
vn -0.0609 -0.9925 0.1055
vn -0.0611 -0.9925 -0.1059
vn -0.0619 -0.9923 -0.1071
vn -0.1240 -0.9688 -0.2148
vn -0.0601 -0.9928 0.1041
vn -0.1220 -0.9698 0.2112
vn 0.1233 -0.9924 -0.0000
vn 0.2487 -0.9686 -0.0000
vn -0.0000 -0.0000 1.0000
vn 0.8758 0.0163 0.4824
vn 0.8678 0.0055 0.4969
vn 0.8669 -0.0011 0.4985
vn -0.0000 -0.0000 -1.0000
vn -0.0092 0.0061 -0.9999
vn -0.0051 0.0033 -1.0000
vn -0.8629 0.0010 -0.5054
vn -0.8576 0.0133 -0.5141
vn -0.8639 0.0019 -0.5036
vn -0.8658 -0.0023 -0.5005
vn -0.8506 0.0141 0.5256
vn -0.8620 -0.0037 0.5068
vn -0.8581 0.0032 0.5134
vn 0.6414 -0.7672 -0.0000
vn 0.4817 -0.8763 -0.0000
vn -0.6529 0.7575 -0.0000
vn -0.4760 0.8794 -0.0000
vn -0.5212 0.8534 -0.0000
vn 0.3220 0.7650 -0.5578
vn -0.8589 0.0180 -0.5118
vn -0.8660 -0.0024 -0.5001
vn -0.8660 -0.0024 -0.5000
vn -0.8659 -0.0023 -0.5002
vn 0.2338 0.8840 -0.4049
vn 0.2563 0.8586 -0.4439
vn 0.2563 0.8587 -0.4439
vn -0.3162 -0.7746 0.5478
vn -0.2366 -0.8810 0.4097
vn 0.8659 0.0023 0.5002
vn 0.8660 0.0024 0.5000
vn 0.8660 0.0024 0.5001
vn 0.8674 0.0090 -0.4975
vn 0.8670 0.0103 -0.4981
vn 0.8736 0.0159 -0.4864
vn -0.3200 -0.7684 -0.5542
vn 0.8644 0.0076 -0.5027
vn 0.8625 0.0028 -0.5061
vn -0.2403 -0.8770 -0.4161
vn 0.8659 0.0088 -0.5002
vn 0.8657 0.0083 -0.5005
vn 0.8654 0.0083 -0.5009
vn -0.8657 -0.0083 0.5005
vn -0.8660 -0.0090 0.5000
vn -0.8659 -0.0088 0.5002
vn -0.8625 -0.0028 0.5061
vn -0.8644 -0.0076 0.5027
vn 0.3257 0.7587 0.5641
vn 0.7539 -0.5769 0.3143
vn -0.8857 -0.0000 0.4642
vn 0.0409 -0.0000 -0.9992
vn 0.2373 0.8802 0.4110
vn 0.2599 0.8543 0.4501
vn 0.2600 0.8542 0.4503
vn -0.8534 0.0135 -0.5210
vn -0.0228 0.0150 -0.9996
vn 0.0764 -0.9397 0.3333
vn 0.1635 -0.9447 0.2842
vn 0.1641 -0.9447 0.2838
vn 0.8449 -0.0000 0.5350
vn -0.2635 0.9330 -0.2450
vn -0.1728 0.9380 -0.3004
vn -0.1735 0.9380 -0.3000
vn 0.3458 0.9323 -0.1063
vn 0.3478 0.9376 -0.0000
vn -0.3271 -0.9396 -0.1005
vn -0.3288 -0.9444 -0.0000
vn 0.2443 -0.9427 -0.2271
vn 0.1602 -0.9472 -0.2777
vn 0.1603 -0.9472 -0.2776
vn 0.1215 0.9926 -0.0000
vn 0.0610 0.9925 0.1057
vn 0.0610 0.9925 -0.1057
vn 0.8639 -0.0000 -0.5037
vn -0.1221 0.9925 -0.0000
vn -0.0607 0.9926 -0.1052
vn -0.8681 -0.0000 0.4963
vn 0.0043 -0.0000 -1.0000
vn 0.8639 -0.0000 0.5037
vn -0.0607 0.9926 0.1052
vn -0.2573 0.9363 0.2392
vn -0.3271 -0.9396 0.1005
vn -0.0807 0.9325 -0.3520
vn 0.0409 -0.0000 0.9992
vn 0.8449 -0.0000 -0.5350
vn -0.8857 -0.0000 -0.4642
vn 0.3458 0.9323 0.1063
vn 0.0746 -0.9426 -0.3255
vn 0.2494 -0.9402 0.2319
vn -0.1002 -0.5599 -0.8225
vn 0.2973 -0.8384 -0.4568
vn -0.1047 -0.5769 0.8100
vn 0.2598 0.8544 0.4500
vn 0.2563 0.8586 -0.4440
vn 0.3041 0.7938 0.5268
vn 0.3042 0.7936 0.5269
vn -0.8654 -0.0083 0.5009
vn 0.3043 0.7935 0.5270
vn 0.3006 0.7992 -0.5206
vn 0.3005 0.7992 -0.5206
vn 0.8658 0.0023 0.5005
vn 0.8639 -0.0019 0.5036
vn 0.3005 0.7992 -0.5205
vn -0.6099 0.7925 -0.0000
vn 0.0348 0.3102 -0.9500
vn -0.9309 -0.0000 -0.3652
vn 0.0348 0.3102 0.9500
vn -0.9309 -0.0000 0.3652
vn 0.8054 0.3102 0.5051
vn 0.7817 -0.0000 -0.6236
vn -0.8401 0.3102 -0.4449
vn 0.1492 -0.0000 -0.9888
vn -0.8401 0.3102 0.4449
vn 0.1492 -0.0000 0.9888
vn 0.8054 0.3102 -0.5051
vn 0.7817 -0.0000 0.6236
vn 0.8589 -0.0180 0.5118
vn -0.5214 -0.8529 -0.0262
vn 0.2662 -0.8464 0.4611
vn 0.8660 0.0090 -0.5000
vn 0.0021 -0.0000 -1.0000
vn 0.0028 -0.0000 -1.0000
vn 0.0021 -0.0000 1.0000
vn 0.0028 -0.0000 1.0000
vn -1.0000 -0.0000 -0.0000
vn 1.0000 -0.0000 -0.0000
vn -1.0000 -0.0000 0.0001
vn -0.4550 -0.0000 0.8905
vn -0.0000 -0.3888 -0.9213
vn -0.4550 -0.0000 -0.8905
vn 0.4550 -0.0000 -0.8905
vn -0.0000 -0.3828 0.9238
vn -0.0000 -0.3828 -0.9238
vn -0.0000 0.3824 -0.9240
vn -0.0000 0.3824 0.9240
vn 0.4550 -0.0000 0.8905
vn -0.0000 0.3891 -0.9212
vn -0.0000 -0.3888 0.9213
vn -0.0000 0.3891 0.9212
vn 0.7539 -0.5769 -0.3143
vn -0.6366 -0.5926 -0.4934
vn -0.6491 -0.5769 0.4957
vt 0.742238 0.011746
vt 0.748262 0.216055
vt 0.727018 0.232456
vt 0.724573 0.005981
vt 0.915494 0.536373
vt 0.915494 0.558251
vt 0.871971 0.558251
vt 0.871971 0.536373
vt 0.640368 0.903291
vt 0.650115 0.903343
vt 0.656069 0.913885
vt 0.651127 0.922342
vt 0.673005 0.922363
vt 0.668176 0.913897
vt 0.674329 0.903470
vt 0.684124 0.903521
vt 0.875266 0.395466
vt 0.860122 0.402714
vt 0.855947 0.399827
vt 0.875681 0.390381
vt 0.820923 0.507332
vt 0.820923 0.536462
vt 0.767228 0.536462
vt 0.767228 0.507332
vt 0.075219 0.518787
vt 0.094847 0.528351
vt 0.094866 0.727626
vt 0.081229 0.727606
vt 0.082644 0.797992
vt 0.088253 0.827347
vt 0.049278 0.826667
vt 0.038616 0.804418
vt 0.081557 0.856760
vt 0.037689 0.848533
vt 0.383861 0.787080
vt 0.389470 0.816435
vt 0.350495 0.815755
vt 0.339833 0.793506
vt 0.382774 0.845848
vt 0.338907 0.837622
vt 0.856889 0.109978
vt 0.851280 0.080623
vt 0.890255 0.081303
vt 0.900917 0.103552
vt 0.803329 0.889629
vt 0.813789 0.876536
vt 0.845658 0.887786
vt 0.830370 0.906627
vt 0.901343 0.914330
vt 0.907454 0.929935
vt 0.881777 0.951912
vt 0.873923 0.930170
vt 0.860545 0.906417
vt 0.867259 0.918279
vt 0.863776 0.919816
vt 0.894642 0.902429
vt 0.902964 0.897742
vt 0.877760 0.877218
vt 0.887938 0.890531
vt 0.816492 0.930091
vt 0.823406 0.918344
vt 0.826861 0.919423
vt 0.808182 0.951130
vt 0.796373 0.901382
vt 0.788153 0.896519
vt 0.782978 0.928610
vt 0.789419 0.913138
vt 0.858570 0.955384
vt 0.844940 0.955268
vt 0.844979 0.951589
vt 0.830946 0.986866
vt 0.844602 0.987013
vt 0.844501 0.996563
vt 0.814376 0.984355
vt 0.874878 0.984998
vt 0.858259 0.987156
vt 0.629348 0.438066
vt 0.629348 0.424429
vt 0.655266 0.424429
vt 0.655266 0.438066
vt 0.593423 0.438066
vt 0.593423 0.424429
vt 0.619340 0.424429
vt 0.619340 0.438066
vt 0.425694 0.609386
vt 0.425694 0.623023
vt 0.399777 0.623023
vt 0.399777 0.609386
vt 0.318805 0.239660
vt 0.318724 0.212822
vt 0.337209 0.231412
vt 0.337209 0.258170
vt 0.132222 0.513245
vt 0.129471 0.744513
vt 0.108503 0.727646
vt 0.114504 0.518844
vt 0.364483 0.258170
vt 0.364483 0.231412
vt 0.382968 0.212822
vt 0.382888 0.239660
vt 0.171145 0.259537
vt 0.171224 0.286447
vt 0.152937 0.267661
vt 0.152939 0.240834
vt 0.627365 0.006400
vt 0.644154 0.006400
vt 0.644154 0.319484
vt 0.627365 0.319484
vt 0.737502 0.449340
vt 0.734981 0.676563
vt 0.713779 0.660092
vt 0.719829 0.455081
vt 0.381746 0.446581
vt 0.395381 0.446786
vt 0.395039 0.469538
vt 0.381404 0.469333
vt 0.380931 0.210998
vt 0.364483 0.035249
vt 0.379606 0.007308
vt 0.364483 0.488966
vt 0.364483 0.465886
vt 0.393242 0.007220
vt 0.394568 0.210909
vt 0.337209 0.465886
vt 0.350846 0.465886
vt 0.350846 0.488966
vt 0.337209 0.488966
vt 0.337209 0.035249
vt 0.350846 0.035249
vt 0.350846 0.231412
vt 0.320289 0.469333
vt 0.319947 0.446581
vt 0.320761 0.210998
vt 0.322087 0.007308
vt 0.152985 0.042349
vt 0.139348 0.042325
vt 0.139356 0.007298
vt 0.152993 0.007323
vt 0.169189 0.288234
vt 0.167884 0.496637
vt 0.152939 0.468412
vt 0.169681 0.027153
vt 0.170191 0.061695
vt 0.139303 0.468387
vt 0.139300 0.267637
vt 0.108496 0.061638
vt 0.094861 0.061452
vt 0.095387 0.026910
vt 0.109023 0.027096
vt 0.110722 0.496589
vt 0.097086 0.496749
vt 0.095776 0.288346
vt 0.109412 0.288185
vt 0.125719 0.007273
vt 0.125711 0.042300
vt 0.686506 0.660262
vt 0.665296 0.676723
vt 0.662844 0.449574
vt 0.680514 0.455322
vt 0.214096 0.049873
vt 0.200462 0.049588
vt 0.200804 0.026781
vt 0.214438 0.027066
vt 0.258586 0.265353
vt 0.274979 0.285804
vt 0.273409 0.490032
vt 0.258408 0.462148
vt 0.216084 0.490164
vt 0.202447 0.490132
vt 0.201246 0.285901
vt 0.214883 0.285933
vt 0.258594 0.030376
vt 0.275821 0.049713
vt 0.278909 0.254979
vt 0.258599 0.238581
vt 0.231320 0.007401
vt 0.231321 0.030535
vt 0.231313 0.265512
vt 0.231135 0.462307
vt 0.244958 0.030455
vt 0.244957 0.007322
vt 0.258594 0.007242
vt 0.831310 0.955094
vt 0.864420 0.941644
vt 0.863739 0.919837
vt 0.845443 0.907952
vt 0.826897 0.919444
vt 0.497360 0.965168
vt 0.477710 0.956764
vt 0.493273 0.944282
vt 0.433150 0.905351
vt 0.450322 0.890657
vt 0.471442 0.917411
vt 0.454139 0.929881
vt 0.538602 0.904445
vt 0.542682 0.926732
vt 0.508754 0.931607
vt 0.506765 0.910273
vt 0.244771 0.462227
vt 0.244950 0.265433
vt 0.060264 0.744477
vt 0.057501 0.513189
vt 0.796779 0.232456
vt 0.775536 0.216055
vt 0.781559 0.011746
vt 0.799224 0.005981
vt 0.756687 0.459764
vt 0.748604 0.677163
vt 0.284903 0.913030
vt 0.263069 0.913030
vt 0.263069 0.745794
vt 0.284903 0.745794
vt 0.241234 0.913030
vt 0.219400 0.913030
vt 0.219400 0.745794
vt 0.241234 0.745794
vt 0.328572 0.913030
vt 0.306738 0.913030
vt 0.306738 0.745794
vt 0.328572 0.745794
vt 0.700230 0.464704
vt 0.700143 0.660177
vt 0.761899 0.021245
vt 0.761899 0.216055
vt 0.818480 0.016274
vt 0.810406 0.232964
vt 0.151476 0.523542
vt 0.143099 0.745003
vt 0.879841 0.617731
vt 0.862792 0.600782
vt 0.864112 0.595880
vt 0.884771 0.616418
vt 0.673203 0.884563
vt 0.668286 0.892979
vt 0.656179 0.892864
vt 0.651326 0.884355
vt 0.842637 0.203451
vt 0.858907 0.207509
vt 0.862286 0.219457
vt 0.833938 0.212395
vt 0.826093 0.184254
vt 0.838130 0.187301
vt 0.486676 0.006965
vt 0.510717 0.006965
vt 0.510717 0.436380
vt 0.486676 0.436380
vt 0.438594 0.006965
vt 0.462635 0.006965
vt 0.462635 0.436380
vt 0.438594 0.436380
vt 0.660943 0.006400
vt 0.677732 0.006400
vt 0.677732 0.319484
vt 0.660943 0.319484
vt 0.593786 0.006400
vt 0.610576 0.006400
vt 0.610576 0.319484
vt 0.593786 0.319484
vt 0.915494 0.492617
vt 0.915494 0.514495
vt 0.871971 0.514495
vt 0.871971 0.492617
vt 0.915494 0.448861
vt 0.915494 0.470739
vt 0.871971 0.470739
vt 0.871971 0.448861
vt 0.534758 0.006965
vt 0.558799 0.006965
vt 0.558799 0.436380
vt 0.534758 0.436380
vt 0.820923 0.565592
vt 0.820923 0.594722
vt 0.767228 0.594722
vt 0.767228 0.565592
vt 0.820923 0.449072
vt 0.820923 0.478202
vt 0.767228 0.478202
vt 0.767228 0.449072
vt 0.858685 0.419442
vt 0.872534 0.428932
vt 0.872122 0.433992
vt 0.854074 0.421625
vt 0.874677 0.170510
vt 0.866020 0.179411
vt 0.849779 0.175241
vt 0.846383 0.163235
vt 0.839536 0.606874
vt 0.833382 0.630114
vt 0.828477 0.631422
vt 0.835933 0.603262
vt 0.887739 0.421813
vt 0.889034 0.405074
vt 0.893622 0.402902
vt 0.891935 0.424715
vt 0.873490 0.640918
vt 0.877075 0.644512
vt 0.820923 0.623852
vt 0.767228 0.623852
vt 0.915494 0.580129
vt 0.871971 0.580129
vt 0.694521 0.006400
vt 0.694521 0.319484
vt 0.582840 0.006965
vt 0.582840 0.436380
vt 0.870639 0.195530
vt 0.882734 0.198592
vt 0.850286 0.647209
vt 0.848959 0.652134
vt 0.705317 0.016274
vt 0.713391 0.232964
vt 0.276963 0.257132
vt 0.277025 0.283980
vt 0.197565 0.913030
vt 0.197565 0.745794
vt 0.038283 0.523554
vt 0.046638 0.745017
vt 0.643522 0.459742
vt 0.651666 0.677139
vt 0.465751 0.988771
vt 0.444882 0.980033
vt 0.457364 0.950223
vt 0.545046 0.949267
vt 0.512854 0.952644
vt 0.491043 0.924572
vt 0.474146 0.937135
vt 0.844979 0.951547
vt 0.825753 0.941232
vt 0.287044 0.490249
vt 0.288614 0.286020
vt 0.289457 0.049588
vt 0.275477 0.026906
vt 0.289114 0.026781
vt 0.181520 0.496648
vt 0.182826 0.288244
vt 0.183826 0.061472
vt 0.183316 0.026930
vt 0.125666 0.468362
vt 0.125663 0.267612
vt 0.308450 0.007220
vt 0.307125 0.210909
vt 0.306312 0.446786
vt 0.306653 0.469538
vt 0.231326 0.238740
vt 0.244963 0.238661
vt 0.212856 0.284121
vt 0.212945 0.257273
vt 0.125666 0.240785
vt 0.139302 0.240809
vt 0.107372 0.286395
vt 0.107457 0.259484
vt 0.350846 0.258170
vt 0.425694 0.636660
vt 0.399777 0.636660
vt 0.593423 0.410792
vt 0.619340 0.410792
vt 0.629348 0.410792
vt 0.655266 0.410792
vt 0.857976 0.051210
vt 0.901843 0.059437
vt 0.838196 0.146288
vt 0.833540 0.113270
vt 0.867513 0.151432
vt 0.829067 0.081542
vt 0.832309 0.047453
vt 0.837623 0.011157
vt 0.869904 0.005668
vt 0.402554 0.750770
vt 0.407210 0.783788
vt 0.373237 0.745626
vt 0.411683 0.815516
vt 0.408441 0.849605
vt 0.403127 0.885901
vt 0.370846 0.891390
vt 0.101337 0.761682
vt 0.105992 0.794700
vt 0.072020 0.756538
vt 0.110466 0.826428
vt 0.107223 0.860517
vt 0.101910 0.896813
vt 0.069629 0.902302
vt 0.468601 0.877365
vt 0.487588 0.903476
vt 0.487235 0.995859
vt 0.303234 0.242016
vt 0.316869 0.241811
vt 0.384824 0.241811
vt 0.398459 0.242016
vt 0.292545 0.254854
vt 0.211018 0.255139
vt 0.197384 0.254854
vt 0.186718 0.257208
vt 0.173083 0.257431
vt 0.105514 0.257373
vt 0.091879 0.257187
vt 0.428000 0.672925
vt 0.428000 0.685032
vt 0.424404 0.685032
vt 0.424404 0.672925
vt 0.399788 0.672925
vt 0.399788 0.660818
vt 0.403383 0.660818
vt 0.403383 0.672925
vt 0.065742 0.243079
vt 0.065742 0.253590
vt 0.053661 0.253590
vt 0.053661 0.243079
vt 0.187086 0.609082
vt 0.187081 0.621163
vt 0.183780 0.621162
vt 0.183785 0.609081
vt 0.399788 0.685032
vt 0.403383 0.685032
vt 0.428000 0.660818
vt 0.424404 0.660818
vt 0.412736 0.529129
vt 0.412736 0.541236
vt 0.408697 0.541236
vt 0.408697 0.529129
vt 0.412736 0.480701
vt 0.412736 0.492808
vt 0.408697 0.492808
vt 0.408697 0.480701
vt 0.412736 0.504915
vt 0.412736 0.517022
vt 0.408697 0.517022
vt 0.408697 0.504915
vt 0.412736 0.553343
vt 0.408697 0.553343
vt 0.428043 0.237735
vt 0.428043 0.248246
vt 0.424448 0.248246
vt 0.424448 0.237735
vt 0.428043 0.227224
vt 0.424448 0.227224
vt 0.412367 0.237735
vt 0.412367 0.227224
vt 0.428043 0.135881
vt 0.424448 0.135881
vt 0.424448 0.007120
vt 0.428043 0.007120
vt 0.065742 0.264100
vt 0.053661 0.264100
vt 0.412367 0.248246
vt 0.413894 0.654810
vt 0.413894 0.646734
vt 0.424404 0.646734
vt 0.414755 0.574065
vt 0.408746 0.563554
vt 0.422830 0.563554
vt 0.422830 0.574065
vt 0.187097 0.571530
vt 0.171394 0.571530
vt 0.171394 0.557446
vt 0.187097 0.557446
vt 0.403383 0.646734
vt 0.428000 0.646734
vt 0.408746 0.584576
vt 0.422830 0.584576
vt 0.593449 0.393677
vt 0.597044 0.393677
vt 0.597044 0.396971
vt 0.593449 0.396971
vt 0.065742 0.007273
vt 0.065742 0.022975
vt 0.053661 0.022975
vt 0.053661 0.007273
vt 0.053661 0.151736
vt 0.037959 0.151736
vt 0.037959 0.022975
vt 0.053661 0.355444
vt 0.065742 0.355444
vt 0.065742 0.484205
vt 0.053661 0.484205
vt 0.408771 0.339589
vt 0.412367 0.339589
vt 0.412367 0.468350
vt 0.408771 0.468350
vt 0.065742 0.151736
vt 0.037959 0.355444
vt 0.037959 0.484205
vt 0.081444 0.151736
vt 0.081444 0.022975
vt 0.604532 0.841670
vt 0.614991 0.847768
vt 0.608592 0.858743
vt 0.598133 0.852645
vt 0.621296 0.858689
vt 0.621348 0.870796
vt 0.608644 0.870850
vt 0.598133 0.876859
vt 0.587622 0.870850
vt 0.587674 0.858743
vt 0.591828 0.887888
vt 0.581317 0.881879
vt 0.581275 0.847768
vt 0.591734 0.841670
vt 0.574918 0.870796
vt 0.574970 0.858689
vt 0.614949 0.881879
vt 0.604438 0.887888
vt 0.412367 0.135881
vt 0.412367 0.007120
vt 0.424448 0.339589
vt 0.424448 0.468350
vt 0.428043 0.339589
vt 0.428043 0.468350
vt 0.168738 0.637692
vt 0.168738 0.634398
vt 0.183760 0.634398
vt 0.183760 0.637692
vt 0.065742 0.499907
vt 0.053661 0.499907
vt 0.187097 0.523103
vt 0.171394 0.523103
vt 0.171394 0.509019
vt 0.187097 0.509019
vt 0.399788 0.646734
vt 0.037959 0.253590
vt 0.037959 0.243079
vt 0.037959 0.264100
vt 0.187097 0.535210
vt 0.171394 0.535210
vt 0.171394 0.595744
vt 0.171394 0.583637
vt 0.187097 0.583637
vt 0.187097 0.595744
vt 0.408771 0.135881
vt 0.408771 0.007120
vt 0.187097 0.547317
vt 0.171394 0.547317
vt 0.624802 0.396971
vt 0.624802 0.400566
vt 0.612721 0.400566
vt 0.612721 0.396971
vt 0.666215 0.331099
vt 0.666215 0.334695
vt 0.654134 0.334695
vt 0.654134 0.331099
vt 0.654134 0.337988
vt 0.650539 0.337988
vt 0.650539 0.334695
vt 0.612721 0.393677
vt 0.624802 0.393677
vt 0.004967 0.653920
vt 0.004967 0.650627
vt 0.019989 0.650627
vt 0.019989 0.653920
vt 0.609126 0.393677
vt 0.609126 0.396971
vt 0.638458 0.337988
vt 0.634863 0.337988
vt 0.634863 0.334695
vt 0.638458 0.334695
vt 0.666215 0.337988
vt 0.666215 0.400566
vt 0.654134 0.400566
vt 0.638458 0.400566
vt 0.634863 0.400566
vt 0.650539 0.400566
vt 0.609126 0.331099
vt 0.612721 0.331099
vt 0.624802 0.331099
vt 0.597044 0.331099
vt 0.593449 0.331099
vt 0.019989 0.638546
vt 0.023283 0.638546
vt 0.023283 0.650627
vt 0.183760 0.649773
vt 0.187053 0.637692
vt 0.187053 0.649773
vt 0.004967 0.638546
vt 0.004967 0.635252
vt 0.019989 0.635252
vt 0.693676 0.906965
vt 0.693676 0.897689
vt 0.698833 0.897689
vt 0.698833 0.906965
vt 0.168738 0.649773
vt 0.714600 0.922468
vt 0.708275 0.922468
vt 0.708275 0.917311
vt 0.714600 0.917311
vt 0.168738 0.653066
vt 0.183760 0.653066
vt 0.081444 0.264100
vt 0.081444 0.352142
vt 0.065742 0.352142
vt 0.428043 0.336287
vt 0.424448 0.336287
vt 0.412367 0.336287
vt 0.053661 0.352142
vt 0.037959 0.352142
vt 0.408771 0.248246
vt 0.408771 0.336287
vt 0.037959 0.155037
vt 0.053661 0.155037
vt 0.408771 0.227224
vt 0.408771 0.139183
vt 0.412367 0.139183
vt 0.424448 0.139183
vt 0.081444 0.243079
vt 0.065742 0.155037
vt 0.081444 0.155037
vt 0.428043 0.139183
vt 0.858553 0.448880
vt 0.861855 0.448880
vt 0.861855 0.584165
vt 0.858553 0.584165
vt 0.148108 0.756550
vt 0.151401 0.756550
vt 0.151401 0.891749
vt 0.148108 0.891749
vt 0.120652 0.756550
vt 0.132733 0.756550
vt 0.132733 0.891749
vt 0.120652 0.891749
vt 0.136027 0.756550
vt 0.136027 0.891749
vt 0.004967 0.625315
vt 0.004967 0.622013
vt 0.019999 0.622013
vt 0.019999 0.625315
vt 0.004967 0.609932
vt 0.019999 0.609932
vt 0.168766 0.609074
vt 0.168742 0.605773
vt 0.183786 0.605779
vt 0.784187 0.635393
vt 0.790513 0.635394
vt 0.790512 0.640551
vt 0.784187 0.640550
vt 0.168748 0.621155
vt 0.168747 0.624457
vt 0.183778 0.624463
vt 0.023300 0.609932
vt 0.023300 0.622013
vt 0.908978 0.595518
vt 0.915303 0.595518
vt 0.915303 0.600675
vt 0.908978 0.600675
vt 0.004967 0.606631
vt 0.019999 0.606631
vt 0.081444 0.355444
vt 0.081444 0.484205
vt 0.831089 0.448880
vt 0.843170 0.448880
vt 0.843170 0.584165
vt 0.831089 0.584165
vt 0.846472 0.448880
vt 0.846472 0.584165
vt 0.574975 0.695627
vt 0.578276 0.695628
vt 0.578229 0.830912
vt 0.574928 0.830911
vt 0.590358 0.695632
vt 0.590310 0.830929
vt 0.593659 0.695633
vt 0.605740 0.695637
vt 0.605693 0.830922
vt 0.593612 0.830905
vt 0.870201 0.244480
vt 0.873495 0.244480
vt 0.873495 0.379679
vt 0.870201 0.379679
vt 0.885576 0.244480
vt 0.885576 0.379679
vt 0.858120 0.244480
vt 0.858120 0.379679
vt 0.854826 0.244480
vt 0.854826 0.379679
vt 0.729199 0.906965
vt 0.729200 0.897689
vt 0.732077 0.894811
vt 0.732077 0.909843
vt 0.781310 0.632515
vt 0.793391 0.632516
vt 0.690798 0.909843
vt 0.690798 0.894811
vt 0.908978 0.635689
vt 0.915303 0.635689
vt 0.918181 0.638567
vt 0.906100 0.638567
vt 0.906959 0.202944
vt 0.913284 0.202944
vt 0.916162 0.205822
vt 0.904081 0.205822
vt 0.892359 0.178272
vt 0.892359 0.187538
vt 0.889481 0.190416
vt 0.889481 0.175394
vt 0.894378 0.611016
vt 0.894378 0.620283
vt 0.891501 0.623160
vt 0.891501 0.608138
vt 0.927883 0.187538
vt 0.927883 0.178271
vt 0.930761 0.175393
vt 0.930761 0.190416
vt 0.906100 0.592640
vt 0.918181 0.592640
vt 0.717478 0.925346
vt 0.705397 0.925346
vt 0.929902 0.620283
vt 0.929902 0.611016
vt 0.932780 0.608138
vt 0.932780 0.623160
vt 0.714600 0.882278
vt 0.708275 0.882278
vt 0.705397 0.879400
vt 0.717478 0.879400
vt 0.805110 0.660174
vt 0.805111 0.650898
vt 0.807988 0.648020
vt 0.807987 0.663064
vt 0.769587 0.650895
vt 0.769586 0.660170
vt 0.766708 0.663048
vt 0.766709 0.648017
vt 0.784184 0.675583
vt 0.790509 0.675583
vt 0.793387 0.678474
vt 0.781306 0.678460
vt 0.913284 0.162773
vt 0.906958 0.162774
vt 0.904080 0.159896
vt 0.916162 0.159896
vt 0.922726 0.178271
vt 0.922726 0.187538
vt 0.920459 0.189980
vt 0.920459 0.175782
vt 0.790510 0.670426
vt 0.784184 0.670426
vt 0.782166 0.667773
vt 0.792528 0.667774
vt 0.899535 0.620283
vt 0.899535 0.611016
vt 0.901802 0.608527
vt 0.901802 0.622724
vt 0.774743 0.660171
vt 0.774744 0.650895
vt 0.777011 0.648403
vt 0.777010 0.662615
vt 0.924745 0.620283
vt 0.924745 0.611016
vt 0.908978 0.630532
vt 0.915303 0.630532
vt 0.714600 0.887435
vt 0.708275 0.887435
vt 0.906958 0.197787
vt 0.913284 0.197787
vt 0.799953 0.660173
vt 0.799954 0.650897
vt 0.897516 0.178272
vt 0.897516 0.187538
vt 0.724043 0.906965
vt 0.724043 0.897689
vt 0.913284 0.167930
vt 0.906958 0.167930
vt 0.797687 0.648405
vt 0.797686 0.662617
vt 0.792529 0.662617
vt 0.792530 0.648405
vt 0.915302 0.195137
vt 0.904940 0.195137
vt 0.904940 0.189980
vt 0.915302 0.189980
vt 0.706257 0.890088
vt 0.716619 0.890088
vt 0.716619 0.895245
vt 0.706257 0.895245
vt 0.917322 0.627881
vt 0.906959 0.627881
vt 0.906959 0.622724
vt 0.917322 0.622724
vt 0.721776 0.909457
vt 0.721776 0.895245
vt 0.915302 0.170625
vt 0.904940 0.170625
vt 0.917322 0.603370
vt 0.906959 0.603370
vt 0.792531 0.643248
vt 0.782168 0.643247
vt 0.706257 0.914614
vt 0.716619 0.914614
vt 0.701100 0.895245
vt 0.701100 0.909457
vt 0.922478 0.622724
vt 0.922478 0.608527
vt 0.899783 0.175782
vt 0.899783 0.189980
vt 0.904940 0.175782
vt 0.915302 0.175782
vt 0.906959 0.608527
vt 0.917322 0.608527
vt 0.782166 0.662616
vt 0.782168 0.648404
vt 0.716619 0.909457
vt 0.706257 0.909457
s 1
f 79/1/1 51/2/2 50/3/3 77/4/1
f 91/5/4 172/6/4 163/7/4 92/8/4
f 163/9/5 115/10/5 19/11/5 92/12/5
f 165/13/5 117/14/5 20/15/5 94/16/5
f 90/17/6 161/18/6 173/19/6 102/20/6
f 99/21/7 169/22/7 168/23/7 98/24/7
f 80/25/8 152/26/9 137/27/10 56/28/8
f 10/29/5 110/30/5 106/31/5 4/32/5
f 106/31/5 110/30/5 9/33/5 6/34/5
f 14/35/5 112/36/5 107/37/5 6/38/5
f 107/37/5 112/36/5 13/39/5 5/40/5
f 18/41/5 114/42/5 108/43/5 5/44/5
f 11/45/6 31/46/6 70/47/6 2/48/11
f 7/49/6 29/50/6 71/51/6 26/52/12
f 24/53/13 118/54/14 103/55/6 70/47/6
f 7/49/6 121/56/6 109/57/6 29/50/6
f 24/53/13 70/47/6 22/58/6 8/59/6
f 28/60/15 119/61/16 104/62/6 72/63/6
f 11/45/6 122/64/6 111/65/6 31/46/6
f 28/60/15 72/63/6 30/66/6 12/67/6
f 1/68/17 120/69/18 105/70/6 71/51/6
f 15/71/6 123/72/6 113/73/6 33/74/6
f 1/68/17 71/51/6 32/75/6 16/76/6
f 40/77/6 127/78/6 124/79/6 34/80/6
f 42/81/6 128/82/6 125/83/6 36/84/6
f 44/85/6 129/86/6 126/87/6 38/88/6
f 50/89/3 51/90/2 52/91/19 53/92/19
f 78/93/20 59/94/21 58/95/22 81/96/20
f 49/97/23 48/98/23 47/99/24 46/100/25
f 57/101/26 56/102/27 55/103/28 54/104/29
f 83/105/7 156/106/7 162/107/7 89/108/7
f 77/109/30 65/110/31 64/111/32 79/112/30
f 178/113/33 183/114/33 126/115/33 39/116/33
f 47/117/24 48/98/23 15/118/23 3/119/23
f 178/113/23 39/116/23 45/120/23 180/121/23
f 3/119/17 120/122/18 133/123/34 47/117/34
f 181/124/35 182/125/35 129/126/35 44/127/35
f 16/128/36 123/129/36 131/130/37 52/91/37
f 181/124/19 44/127/19 38/131/19 179/132/19
f 16/128/19 52/91/19 51/133/2 1/134/19
f 190/135/38 195/136/38 128/137/38 42/138/38
f 55/103/28 56/139/27 28/140/39 12/141/39
f 190/135/40 42/138/41 36/142/41 192/143/42
f 12/141/43 122/144/43 135/145/44 55/103/45
f 193/146/46 194/147/46 125/148/46 37/149/46
f 2/150/11 119/151/16 137/152/47 58/153/47
f 193/146/48 37/149/49 43/154/49 191/155/50
f 62/156/51 63/157/52 78/158/53 81/159/53
f 184/160/54 189/161/54 124/162/54 35/163/54
f 67/164/55 62/165/51 24/166/56 8/167/56
f 26/168/12 118/169/14 141/170/57 64/171/57
f 186/172/58 185/173/59 63/174/52 66/175/60
f 184/160/61 35/163/62 41/176/62 187/177/63
f 26/168/64 64/171/32 68/178/65 7/179/64
f 186/172/66 188/180/66 127/181/66 40/182/66
f 15/71/6 33/74/6 72/63/6 3/183/17
f 25/184/6 142/185/6 103/55/6 71/51/6
f 23/186/6 143/187/6 104/62/6 70/47/6
f 73/188/67 145/189/67 177/190/67
f 77/191/68 150/192/68 147/193/68 74/194/68
f 76/195/69 149/196/69 146/197/69 75/198/69
f 8/167/70 121/199/70 139/200/71 67/164/72
f 56/28/27 57/201/26 76/202/73 80/25/73
f 46/203/25 47/204/24 80/205/74 76/206/74
f 77/109/75 148/207/76 140/208/77 65/110/75
f 25/209/68 144/210/68 151/211/68 79/212/68
f 27/213/69 143/214/69 152/215/69 80/216/69
f 23/217/78 142/218/78 153/219/78 81/220/78
f 81/159/79 153/221/80 141/222/81 62/156/79
f 79/1/82 151/223/83 133/224/83 51/2/82
f 76/206/84 150/225/85 132/226/85 46/203/84
f 78/93/86 149/227/87 136/228/88 59/94/86
f 87/229/6 159/230/6 171/231/6 95/232/6
f 164/233/5 116/234/5 21/235/5 93/236/5
f 84/237/89 154/238/90 166/239/90 97/240/89
f 167/241/91 155/242/91 84/237/89 97/240/89
f 5/243/7 108/244/7 157/245/7 85/246/7
f 6/247/92 107/248/92 158/249/92 86/250/92
f 82/251/4 154/252/4 160/253/4 88/254/4
f 84/255/92 155/256/92 161/257/92 90/258/92
f 101/259/7 174/260/7 165/261/7 94/262/7
f 102/263/92 173/264/92 164/265/92 93/266/92
f 4/267/4 106/268/4 159/269/4 87/270/4
f 95/271/4 171/272/4 166/273/4 96/274/4
f 100/275/92 170/276/92 167/277/92 97/278/92
f 89/279/6 162/280/6 174/281/6 101/282/6
f 168/283/93 156/284/93 83/285/94 98/286/94
f 86/287/6 158/288/6 170/289/6 100/290/6
f 88/291/6 160/292/6 172/293/6 91/294/6
f 161/18/6 89/279/6 101/282/6 173/19/6
f 157/295/6 87/229/6 95/232/6 169/296/6
f 160/292/6 90/17/6 102/20/6 172/293/6
f 169/22/95 95/271/95 96/274/95 168/23/95
f 170/276/96 99/21/96 98/24/96 167/277/96
f 171/272/97 100/297/97 97/298/97 166/273/97
f 172/6/97 102/299/97 93/300/97 163/7/97
f 173/264/96 101/259/96 94/262/96 164/265/96
f 174/260/95 91/5/95 92/8/95 165/261/95
f 156/106/95 82/251/95 88/254/95 162/107/95
f 155/256/96 83/105/96 89/108/96 161/257/96
f 154/252/97 84/301/97 90/302/97 160/253/97
f 106/268/97 6/303/97 86/304/97 159/269/97
f 107/248/96 5/243/96 85/246/96 158/249/96
f 108/244/95 4/267/95 87/270/95 157/245/95
f 82/305/98 156/284/93 168/283/93 96/306/98
f 83/285/94 155/242/91 167/241/91 98/286/94
f 158/288/6 85/307/6 99/308/6 170/289/6
f 162/280/6 88/291/6 91/294/6 174/281/6
f 152/26/9 81/96/99 58/95/99 137/27/10
f 150/309/85 77/4/100 50/3/100 132/310/85
f 63/311/52 62/312/51 67/164/55 66/175/60
f 153/221/80 79/112/101 64/111/101 141/222/81
f 142/218/102 25/209/102 79/212/102 153/219/102
f 143/214/103 23/313/103 81/314/103 152/215/103
f 144/210/104 27/213/104 80/216/104 151/211/104
f 151/223/83 80/205/105 47/204/105 133/224/83
f 149/315/87 76/202/106 57/201/106 136/316/88
f 148/317/76 78/158/107 63/157/107 140/318/77
f 148/319/102 77/320/102 74/321/102 145/189/102
f 149/196/103 78/322/103 73/323/103 146/197/103
f 146/197/108 175/324/108 75/198/108
f 146/197/109 177/190/109 175/324/109
f 145/189/110 74/321/110 176/325/110
f 144/326/6 25/184/6 71/51/6 105/70/6
f 143/187/6 27/327/6 72/63/6 104/62/6
f 142/185/6 23/186/6 70/47/6 103/55/6
f 121/199/70 7/179/70 68/178/111 139/200/71
f 188/180/66 187/177/66 41/176/66 127/181/66
f 118/328/14 24/166/13 62/165/57 141/329/57
f 189/330/54 185/173/54 34/331/54 124/332/54
f 119/333/16 28/140/15 56/139/47 137/334/47
f 194/335/46 192/143/46 36/142/46 125/336/46
f 122/144/43 11/337/43 60/338/112 135/145/44
f 195/136/38 191/155/38 43/154/38 128/137/38
f 123/129/36 15/118/36 48/98/37 131/130/37
f 182/125/35 180/121/35 45/120/35 129/126/35
f 120/339/18 1/134/17 51/133/34 133/340/34
f 183/341/33 179/132/33 38/131/33 126/342/33
f 69/343/113 138/344/114 139/200/71 68/178/111
f 69/343/115 68/178/65 64/345/32 65/346/31
f 138/344/114 66/175/116 67/164/72 139/200/71
f 61/347/117 134/348/118 135/145/44 60/338/112
f 61/347/119 60/338/120 58/349/22 59/350/21
f 134/348/118 54/104/121 55/103/45 135/145/44
f 49/97/122 130/351/122 131/130/37 48/98/37
f 130/351/122 53/92/122 52/91/37 131/130/37
f 126/87/6 129/86/6 45/352/6 39/353/6
f 125/83/6 128/82/6 43/354/6 37/355/6
f 124/79/6 127/78/6 41/356/6 35/357/6
f 123/72/6 16/76/6 32/75/6 113/73/6
f 122/64/6 12/67/6 30/66/6 111/65/6
f 108/43/5 114/42/5 17/358/5 4/359/5
f 121/56/6 8/59/6 22/58/6 109/57/6
f 120/69/18 3/183/17 72/63/6 105/70/6
f 119/61/16 2/48/11 70/47/6 104/62/6
f 118/54/14 26/52/12 71/51/6 103/55/6
f 20/15/5 116/234/5 164/233/5 94/16/5
f 72/360/123 33/361/123 18/41/123 5/362/123
f 33/361/124 113/363/124 114/42/124 18/41/124
f 17/358/125 32/364/125 71/365/125 4/366/125
f 113/363/126 32/364/126 17/358/126 114/42/126
f 70/367/127 31/368/127 14/35/127 6/369/127
f 31/368/128 111/370/128 112/36/128 14/35/128
f 13/39/129 30/371/129 72/372/129 5/373/129
f 111/370/130 30/371/130 13/39/130 112/36/130
f 71/374/131 29/375/131 10/29/131 4/376/131
f 29/375/132 109/377/132 110/30/132 10/29/132
f 9/33/133 22/378/133 70/379/133 6/380/133
f 109/377/134 22/378/134 9/33/134 110/30/134
f 154/238/90 82/305/98 96/306/98 166/239/90
f 159/230/6 86/287/6 100/290/6 171/231/6
f 92/12/5 19/11/5 117/14/5 165/13/5
f 93/236/5 21/235/5 115/10/5 163/9/5
f 150/192/104 76/381/104 75/382/104 147/193/104
f 78/383/78 148/319/78 145/189/78 73/188/78
f 2/150/135 58/153/22 60/338/120 11/337/135
f 175/324/136 176/325/136 147/193/136
f 176/325/137 177/190/137 145/189/137
f 176/325/6 175/324/6 177/190/6
f 132/384/33 50/385/33 179/132/33 183/341/33
f 130/351/122 49/97/122 180/121/35 182/125/35
f 53/92/19 181/124/19 179/132/19 50/385/3
f 53/92/122 130/351/122 182/125/35 181/124/35
f 46/386/25 178/113/23 180/121/23 49/97/23
f 46/386/33 132/387/33 183/114/33 178/113/33
f 140/388/54 63/174/54 185/173/54 189/330/54
f 138/344/114 69/343/113 187/177/66 188/180/66
f 66/175/116 138/344/114 188/180/66 186/172/66
f 65/389/31 184/160/61 187/177/63 69/343/115
f 40/182/138 34/331/138 185/173/59 186/172/58
f 65/389/54 140/390/54 189/161/54 184/160/54
f 134/348/118 61/347/117 191/155/38 195/136/38
f 136/391/46 57/392/46 192/143/46 194/335/46
f 59/393/21 193/146/48 191/155/50 61/347/119
f 59/393/46 136/394/46 194/147/46 193/146/46
f 54/104/29 190/135/40 192/143/42 57/392/26
f 54/104/121 134/348/118 195/136/38 190/135/38
f 27/327/6 144/326/6 105/70/6 72/63/6
f 85/307/6 157/295/6 169/296/6 99/308/6
f 236/395/97 238/396/97 197/397/97 201/398/97
f 235/399/96 237/400/139 196/401/140 200/402/96
f 217/403/6 216/404/6 210/405/6 213/406/6
f 323/407/5 322/408/5 292/409/5 289/410/5
f 238/411/92 235/399/92 200/402/92 197/412/92
f 234/413/141 236/395/4 201/398/4 198/414/142
f 19/415/4 115/416/4 207/417/4 204/418/142
f 21/419/92 116/420/92 206/421/92 203/422/92
f 20/423/7 117/424/7 205/425/7 202/426/7
f 117/424/95 19/415/95 204/418/95 205/425/95
f 116/420/96 20/423/96 202/426/140 206/421/96
f 115/416/97 21/427/97 203/428/97 207/417/97
f 240/429/143 239/430/143 209/431/143 211/432/143
f 241/433/143 240/429/143 211/432/143 212/434/143
f 219/435/5 218/436/5 212/434/5 211/432/5
f 301/437/143 299/438/143 223/439/143 245/440/143
f 216/404/6 215/441/6 208/442/6 210/405/6
f 214/443/5 219/435/5 211/432/5 209/431/5
f 198/414/5 199/444/5 219/445/5 214/446/5
f 205/447/6 204/448/6 215/449/6 216/450/6
f 237/451/139 202/452/140 217/453/23 242/454/23
f 199/444/5 196/401/5 218/455/5 219/445/5
f 234/413/141 198/414/142 214/446/19 243/456/19
f 202/457/6 205/447/6 216/450/6 217/458/6
f 262/459/144 261/460/144 248/461/144 255/462/144
f 246/463/23 227/464/23 224/465/23 245/466/23
f 298/467/143 301/468/143 245/469/143 224/465/143
f 302/470/6 304/471/6 226/472/6 222/473/6
f 307/474/144 305/475/144 220/476/144 247/477/144
f 296/478/6 298/467/6 224/465/6 227/464/6
f 306/479/143 302/470/143 222/473/143 244/480/143
f 300/481/144 296/478/144 227/464/144 246/482/144
f 197/483/92 200/484/92 231/485/92 228/486/92
f 200/487/96 196/488/140 230/489/96 231/485/96
f 233/490/5 232/491/5 229/492/5 228/486/5
f 228/486/5 231/485/5 230/489/5 233/490/5
f 199/493/95 198/494/95 232/491/95 233/490/95
f 201/495/97 197/496/97 228/486/97 229/492/97
f 198/497/142 201/498/4 229/492/4 232/491/4
f 196/499/7 199/500/7 233/490/7 230/489/7
f 299/438/5 297/501/5 225/502/5 223/439/5
f 305/475/5 303/503/5 221/504/5 220/476/5
f 303/503/143 306/505/143 244/506/143 221/504/143
f 317/507/144 330/508/144 328/509/144 270/510/144
f 226/472/19 247/511/19 244/512/19 222/473/19
f 204/513/142 234/514/141 243/515/19 215/516/19
f 196/401/140 237/400/139 242/517/23 218/455/23
f 213/406/143 210/405/143 240/518/143 241/519/143
f 210/405/143 208/442/143 239/520/143 240/518/143
f 204/513/142 207/521/4 236/522/4 234/514/141
f 203/523/92 206/524/92 235/525/92 238/526/92
f 297/501/144 300/527/144 246/528/144 225/502/144
f 206/524/96 202/452/140 237/451/139 235/525/96
f 207/521/97 203/529/97 238/530/97 236/522/97
f 255/531/19 248/532/19 249/533/19 250/534/19
f 251/535/23 253/536/23 254/537/23 252/538/23
f 257/539/143 256/540/143 252/541/143 254/537/143
f 263/542/6 262/543/6 255/531/6 250/534/6
f 333/544/144 287/545/144 271/546/144 326/547/144
f 260/548/143 263/542/143 250/534/143 249/549/143
f 258/550/144 259/551/144 253/552/144 251/553/144
f 259/554/6 257/539/6 254/537/6 253/536/6
f 246/555/6 245/556/6 257/539/6 259/554/6
f 225/557/144 246/558/144 259/551/144 258/550/144
f 223/559/5 225/557/5 258/550/5 256/540/5
f 245/556/143 223/559/143 256/540/143 257/539/143
f 221/560/143 244/561/143 263/542/143 260/548/143
f 244/561/6 247/562/6 262/543/6 263/542/6
f 220/563/5 221/560/5 260/548/5 261/460/5
f 247/564/144 220/563/144 261/460/144 262/459/144
f 271/546/5 268/565/5 327/566/5 326/567/5
f 269/568/5 270/510/5 328/569/5 329/570/5
f 287/545/23 285/571/23 268/565/23 271/546/23
f 285/571/143 331/572/143 327/573/143 268/565/143
f 293/574/144 310/575/144 340/576/144 341/577/144
f 319/578/19 317/507/19 270/510/19 269/568/19
f 294/579/5 293/580/5 341/581/5 337/582/5
f 332/583/143 319/578/143 269/568/143 329/584/143
f 215/441/144 243/585/144 277/586/144 272/587/144
f 209/431/143 239/430/143 276/588/143 275/589/143
f 214/443/5 209/431/5 275/589/5 274/590/5
f 239/520/143 208/442/143 273/591/143 276/592/143
f 243/593/144 214/443/144 274/590/144 277/594/144
f 208/442/6 215/441/6 272/587/6 273/591/6
f 213/406/143 241/519/143 283/595/143 278/596/143
f 218/436/144 242/597/144 282/598/144 281/599/144
f 212/434/5 218/436/5 281/599/5 280/600/5
f 242/601/144 217/403/144 279/602/144 282/603/144
f 217/403/6 213/406/6 278/596/6 279/602/6
f 241/433/143 212/434/143 280/600/143 283/604/143
f 305/605/144 274/606/144 324/607/144 309/608/144
f 248/609/144 261/610/144 287/611/144 333/612/144
f 261/613/23 260/614/23 285/615/23 287/616/23
f 260/614/143 249/617/143 331/618/143 285/615/143
f 249/617/19 248/609/19 333/612/19 331/618/19
f 320/619/143 311/620/143 295/621/143 321/622/143
f 311/620/19 309/623/19 288/624/19 295/621/19
f 314/625/145 334/626/145 323/627/145 289/410/145
f 291/628/5 290/629/5 339/630/5 338/631/5
f 312/632/23 314/625/23 289/410/23 292/409/23
f 335/633/144 312/632/144 292/409/144 322/634/144
f 325/635/5 321/636/5 295/621/5 288/624/5
f 283/604/143 280/600/143 299/438/143 301/437/143
f 279/602/6 278/596/6 298/467/6 296/478/6
f 282/603/144 279/602/144 296/478/144 300/481/144
f 284/637/6 286/638/6 349/639/6 347/640/6
f 281/599/144 282/598/144 300/527/144 297/501/144
f 278/596/143 283/595/143 301/468/143 298/467/143
f 273/591/6 272/587/6 304/471/6 302/470/6
f 277/594/144 274/590/144 305/475/144 307/474/144
f 276/592/143 273/591/143 302/470/143 306/479/143
f 309/623/144 324/641/144 325/642/144 288/624/144
f 275/589/143 276/588/143 306/505/143 303/503/143
f 272/587/144 277/586/144 307/643/144 304/471/144
f 304/471/144 307/643/144 247/644/144 226/472/144
f 274/645/23 275/646/23 320/647/23 324/648/23
f 303/649/19 305/605/19 309/608/19 311/650/19
f 275/646/143 303/649/143 311/650/143 320/647/143
f 281/651/144 297/652/144 312/653/144 335/654/144
f 297/652/23 299/655/23 314/656/23 312/653/23
f 280/657/19 281/658/19 335/659/19 334/660/19
f 299/655/143 280/657/143 334/660/145 314/656/145
f 252/661/143 256/662/143 319/663/143 332/664/143
f 256/662/19 258/665/19 317/666/19 319/663/19
f 251/667/23 252/661/23 332/664/23 330/668/23
f 258/669/144 251/667/144 330/668/144 317/670/144
f 294/671/23 308/672/23 320/673/23 321/674/23
f 290/629/19 291/628/19 322/675/19 323/676/19
f 310/575/23 293/574/23 325/677/23 324/678/23
f 265/679/19 264/680/19 326/681/19 327/682/19
f 266/683/23 267/684/23 329/685/23 328/686/23
f 316/687/23 266/688/23 328/689/23 330/690/23
f 284/691/19 265/692/19 327/693/19 331/694/19
f 267/695/23 318/696/23 332/697/23 329/698/23
f 286/638/19 284/637/19 331/699/19 333/700/19
f 293/580/23 294/579/23 321/701/23 325/702/23
f 264/703/19 286/704/19 333/705/19 326/706/19
f 308/707/23 310/708/23 324/709/23 320/710/23
f 313/711/19 290/712/19 323/713/19 334/714/19
f 291/715/19 315/716/19 335/717/19 322/718/19
f 315/719/19 313/720/19 334/721/19 335/722/19
f 318/723/23 316/724/23 330/725/23 332/726/23
f 348/727/146 345/728/146 361/729/146 364/730/146
f 350/731/147 351/732/147 367/733/147 366/734/147
f 343/735/148 347/736/148 363/737/148 359/738/148
f 351/739/149 338/740/149 354/741/149 367/742/149
f 286/704/144 264/703/144 342/743/144 349/744/144
f 264/680/5 265/679/5 343/745/5 342/746/5
f 310/708/6 308/707/6 336/747/6 340/748/6
f 267/684/5 266/683/5 344/749/5 345/750/5
f 290/712/143 313/711/143 350/751/143 339/752/143
f 266/688/144 316/687/144 346/753/144 344/754/144
f 315/716/144 291/715/144 338/740/144 351/739/144
f 265/692/143 284/691/143 347/736/143 343/735/143
f 313/720/6 315/719/6 351/732/6 350/731/6
f 318/696/143 267/695/143 345/728/143 348/727/143
f 308/672/143 294/671/143 337/755/143 336/756/143
f 316/724/6 318/723/6 348/757/6 346/758/6
f 355/759/143 366/760/143 382/761/143 371/762/143
f 361/763/5 360/764/5 376/765/5 377/766/5
f 356/767/6 352/768/6 368/769/6 372/770/6
f 358/771/5 359/772/5 375/773/5 374/774/5
f 336/756/146 337/755/146 353/775/146 352/776/146
f 346/758/150 348/757/150 364/777/150 362/778/150
f 347/640/151 349/639/151 365/779/151 363/780/151
f 338/631/152 339/630/152 355/781/152 354/782/152
f 337/582/153 341/581/153 357/783/153 353/784/153
f 341/577/154 340/576/154 356/785/154 357/786/154
f 349/744/149 342/743/149 358/787/149 365/788/149
f 342/746/155 343/745/155 359/772/155 358/771/155
f 340/748/156 336/747/156 352/768/156 356/767/156
f 345/750/157 344/749/157 360/764/157 361/763/157
f 339/752/148 350/751/148 366/760/148 355/759/148
f 344/754/154 346/753/154 362/789/154 360/790/154
f 378/791/23 380/792/23 377/766/23 376/765/23
f 379/793/19 381/794/19 374/774/19 375/773/19
f 382/761/19 383/795/19 370/796/19 371/762/19
f 372/770/23 368/769/23 369/797/23 373/798/23
f 360/790/144 362/789/144 378/791/144 376/765/144
f 367/742/144 354/741/144 370/796/144 383/795/144
f 359/738/143 363/737/143 379/793/143 375/773/143
f 366/734/6 367/733/6 383/795/6 382/761/6
f 364/730/143 361/729/143 377/766/143 380/792/143
f 352/776/143 353/775/143 369/797/143 368/769/143
f 362/778/6 364/777/6 380/792/6 378/791/6
f 363/780/6 365/779/6 381/794/6 379/793/6
f 354/782/5 355/781/5 371/762/5 370/796/5
f 353/784/5 357/783/5 373/798/5 369/797/5
f 357/786/144 356/785/144 372/770/144 373/798/144
f 365/788/144 358/787/144 374/774/144 381/794/144
f 177/190/158 146/197/158 73/323/158
f 75/382/159 175/324/159 147/193/159
f 176/325/160 74/194/160 147/193/160
o TripodLight1
v -0.164058 4.046588 -0.366904
v -0.061234 4.459815 -0.366904
v -0.164058 4.046588 -0.934387
v -0.061235 4.459815 -0.934387
v -0.024729 4.049926 -0.416056
v 0.060283 4.391571 -0.416056
v -0.024729 4.049926 -0.885235
v 0.060282 4.391571 -0.885235
v -0.102079 4.017371 -0.952227
v 0.007209 4.456578 -0.952227
v -0.102079 4.017371 -0.349065
v 0.007209 4.456578 -0.349065
v -0.169439 4.024961 -0.964087
v -0.169439 4.024961 -0.337204
v -0.055853 4.481441 -0.337204
v -0.055853 4.481441 -0.964087
v -0.091760 4.185685 -0.761457
v -0.091760 4.185685 -0.539835
v -0.062554 4.303056 -0.539835
v -0.062554 4.303056 -0.761457
v -0.142121 4.041130 -0.934387
v -0.142121 4.041130 -0.366904
v -0.039298 4.454356 -0.366904
v -0.039298 4.454356 -0.934387
vn -0.0000 -0.0000 1.0000
vn 0.6851 -0.1705 -0.7082
vn 0.9704 -0.2415 -0.0000
vn 0.1687 -0.0420 0.9848
vn 0.0596 -0.9982 -0.0000
vn 0.3879 -0.9217 -0.0000
vn 0.5204 0.8539 -0.0000
vn 0.3668 0.9303 -0.0000
vn 0.7746 0.6324 -0.0000
vn -0.1120 -0.9937 -0.0000
vn 0.6851 -0.1705 0.7082
vn 0.1687 -0.0420 -0.9848
vn -0.9704 0.2415 -0.0000
vn -0.9609 0.2753 -0.0294
vn -0.9779 0.2071 -0.0294
vn -0.9779 0.2071 0.0294
vn -0.9609 0.2753 0.0294
vn -0.0000 -0.0000 -1.0000
vn -0.2415 -0.9704 -0.0000
vn 0.2415 0.9704 -0.0000
vn -0.9585 0.2818 0.0435
vn -0.9585 0.2818 -0.0435
vn -0.9788 0.2002 -0.0435
vn -0.9788 0.2002 0.0435
vt 0.021251 0.425029
vt 0.021250 0.295747
vt 0.028113 0.295747
vt 0.028114 0.425030
vt 0.361604 0.718793
vt 0.224194 0.718793
vt 0.239456 0.689985
vt 0.346343 0.689985
vt 0.239456 0.547541
vt 0.346343 0.547541
vt 0.361605 0.518733
vt 0.224195 0.518734
vt 0.221493 0.498016
vt 0.364307 0.498016
vt 0.371821 0.710324
vt 0.371821 0.527203
vt 0.213978 0.710323
vt 0.193397 0.713924
vt 0.193397 0.523602
vt 0.213978 0.527203
vt 0.392402 0.713924
vt 0.392402 0.523602
vt 0.364306 0.739510
vt 0.221492 0.739510
vt 0.776460 0.865943
vt 0.776460 0.693654
vt 0.783226 0.684637
vt 0.783226 0.874960
vt 0.647178 0.865943
vt 0.640411 0.874960
vt 0.647177 0.693654
vt 0.640411 0.684637
vt 0.871320 0.804769
vt 0.834619 0.804854
vt 0.834582 0.737594
vt 0.871286 0.737591
vt 0.021249 0.123457
vt 0.021250 -0.005825
vt 0.028113 -0.005825
vt 0.028113 0.123457
vt 0.021251 0.597319
vt 0.028114 0.597319
vt 0.917625 0.684876
vt 0.917807 0.857325
vt 0.788251 0.857558
vt 0.788046 0.685035
s 1
f 387/799/161 386/800/161 404/801/161 407/802/161
f 392/803/162 393/804/162 391/805/162 390/806/162
f 390/806/163 391/805/163 389/807/163 388/808/163
f 394/809/164 395/810/164 398/811/164 397/812/164
f 392/813/165 390/806/166 388/808/166 394/814/165
f 393/815/167 399/816/168 398/817/168 395/818/167
f 391/805/169 393/815/167 395/818/167 389/807/169
f 396/819/170 392/813/165 394/814/165 397/820/170
f 388/808/171 389/807/171 395/810/171 394/809/171
f 396/821/172 399/822/172 393/804/172 392/803/172
f 384/823/173 386/824/173 396/825/173 397/826/173
f 385/827/173 384/823/173 397/826/173 398/828/173
f 387/829/173 385/827/173 398/828/173 399/830/173
f 386/824/173 387/829/173 399/830/173 396/825/173
f 401/831/174 402/832/175 403/833/176 400/834/177
f 384/835/178 385/836/178 406/837/178 405/838/178
f 385/839/179 387/799/179 407/802/179 406/840/179
f 386/800/180 384/835/180 405/838/180 404/801/180
f 401/831/174 400/834/177 404/841/181 405/842/182
f 402/832/175 401/831/174 405/842/182 406/843/183
f 403/833/176 402/832/175 406/843/183 407/844/184
f 400/834/177 403/833/176 407/844/184 404/841/181
o TripodLight2
v -0.164058 4.046588 0.934387
v -0.061234 4.459815 0.934387
v -0.164058 4.046588 0.366904
v -0.061234 4.459815 0.366904
v -0.024729 4.049926 0.885235
v 0.060283 4.391571 0.885235
v -0.024729 4.049926 0.416056
v 0.060283 4.391571 0.416056
v -0.102079 4.017371 0.349065
v 0.007209 4.456578 0.349065
v -0.102078 4.017371 0.952227
v 0.007210 4.456578 0.952227
v -0.169439 4.024961 0.337204
v -0.169439 4.024961 0.964087
v -0.055853 4.481441 0.964087
v -0.055853 4.481441 0.337204
v -0.091760 4.185685 0.539835
v -0.091760 4.185685 0.761457
v -0.062554 4.303056 0.761457
v -0.062554 4.303056 0.539835
v -0.142121 4.041130 0.366904
v -0.142121 4.041130 0.934387
v -0.039298 4.454356 0.934387
v -0.039298 4.454356 0.366904
vn -0.0000 -0.0000 1.0000
vn 0.6851 -0.1705 -0.7082
vn 0.9704 -0.2415 -0.0000
vn 0.1687 -0.0420 0.9848
vn 0.0596 -0.9982 -0.0000
vn 0.3879 -0.9217 -0.0000
vn 0.5204 0.8539 -0.0000
vn 0.3668 0.9303 -0.0000
vn 0.7746 0.6324 -0.0000
vn -0.1120 -0.9937 -0.0000
vn 0.6851 -0.1705 0.7082
vn 0.1687 -0.0420 -0.9848
vn -0.9704 0.2415 -0.0000
vn -0.9609 0.2753 -0.0294
vn -0.9779 0.2071 -0.0294
vn -0.9779 0.2071 0.0294
vn -0.9609 0.2753 0.0294
vn -0.0000 -0.0000 -1.0000
vn -0.2415 -0.9704 -0.0000
vn 0.2415 0.9704 -0.0000
vn -0.9585 0.2818 0.0435
vn -0.9585 0.2818 -0.0435
vn -0.9788 0.2002 -0.0435
vn -0.9788 0.2002 0.0435
vt 0.004815 0.602401
vt 0.004815 0.473119
vt 0.011678 0.473119
vt 0.011678 0.602401
vt 0.604246 0.666750
vt 0.466836 0.666750
vt 0.482098 0.637942
vt 0.588985 0.637942
vt 0.482098 0.495499
vt 0.588985 0.495499
vt 0.604246 0.466691
vt 0.466836 0.466691
vt 0.464134 0.445974
vt 0.606948 0.445974
vt 0.614463 0.658281
vt 0.614463 0.475160
vt 0.456619 0.658281
vt 0.436039 0.661882
vt 0.436039 0.471560
vt 0.456619 0.475161
vt 0.635043 0.661882
vt 0.635043 0.471559
vt 0.606948 0.687468
vt 0.464134 0.687468
vt 0.710203 0.251068
vt 0.710203 0.423356
vt 0.703437 0.432373
vt 0.703437 0.242051
vt 0.839484 0.251067
vt 0.846251 0.242050
vt 0.839485 0.423356
vt 0.846251 0.432373
vt 0.483050 0.746034
vt 0.519746 0.745974
vt 0.519888 0.813191
vt 0.483192 0.813251
vt 0.004815 0.300831
vt 0.004815 0.171549
vt 0.011678 0.171549
vt 0.011678 0.300831
vt 0.004815 -0.000739
vt 0.011679 -0.000739
vt 0.436938 0.866046
vt 0.436434 0.693560
vt 0.566000 0.693179
vt 0.566504 0.865665
s 1
f 411/845/185 410/846/185 428/847/185 431/848/185
f 416/849/186 417/850/186 415/851/186 414/852/186
f 414/852/187 415/851/187 413/853/187 412/854/187
f 418/855/188 419/856/188 422/857/188 421/858/188
f 416/859/189 414/852/190 412/854/190 418/860/189
f 417/861/191 423/862/192 422/863/192 419/864/191
f 415/851/193 417/861/191 419/864/191 413/853/193
f 420/865/194 416/859/189 418/860/189 421/866/194
f 412/854/195 413/853/195 419/856/195 418/855/195
f 420/867/196 423/868/196 417/850/196 416/849/196
f 408/869/197 410/870/197 420/871/197 421/872/197
f 409/873/197 408/869/197 421/872/197 422/874/197
f 411/875/197 409/873/197 422/874/197 423/876/197
f 410/870/197 411/875/197 423/876/197 420/871/197
f 425/877/198 426/878/199 427/879/200 424/880/201
f 408/881/202 409/882/202 430/883/202 429/884/202
f 409/882/203 411/885/203 431/886/203 430/883/203
f 410/846/204 408/881/204 429/884/204 428/847/204
f 425/877/198 424/880/201 428/887/205 429/888/206
f 426/878/199 425/877/198 429/888/206 430/889/207
f 427/879/200 426/878/199 430/889/207 431/890/208
f 424/880/201 427/879/200 431/890/208 428/887/205
