# Blender 5.2.1 LTS
# www.blender.org
mtllib MetalShelves.mtl
o MetalShelves
v -0.497344 -0.027000 1.350000
v -0.497344 0.027000 1.350000
v -0.497344 -0.027000 -1.350000
v -0.497344 0.027000 -1.350000
v 0.497344 -0.027000 1.350000
v 0.497344 0.027000 1.350000
v 0.497344 -0.027000 -1.350000
v 0.497344 0.027000 -1.350000
v -0.540000 2.654461 -1.348335
v -0.540000 2.686861 -1.348335
v -0.460000 2.654461 -1.348335
v -0.460000 2.686861 -1.348335
v -0.540000 2.654461 -1.468335
v -0.540000 2.686861 -1.468335
v -0.460000 2.654461 -1.468335
v -0.460000 2.686861 -1.468335
v -0.540000 -0.045539 -1.348335
v -0.540000 -0.013139 -1.348335
v -0.460000 -0.045539 -1.348335
v -0.460000 -0.013139 -1.348335
v -0.540000 -0.045539 -1.468335
v -0.540000 -0.013139 -1.468335
v -0.460000 -0.045539 -1.468335
v -0.460000 -0.013139 -1.468335
v 0.460000 -0.045539 -1.348334
v 0.460000 -0.013139 -1.348334
v 0.540000 -0.045539 -1.348334
v 0.540000 -0.013139 -1.348334
v 0.460000 -0.045539 -1.468334
v 0.460000 -0.013139 -1.468334
v 0.540000 -0.045539 -1.468334
v 0.540000 -0.013139 -1.468334
v 0.460000 2.654461 -1.348334
v 0.460000 2.686861 -1.348334
v 0.540000 2.654461 -1.348334
v 0.540000 2.686861 -1.348334
v 0.460000 2.654461 -1.468334
v 0.460000 2.686861 -1.468334
v 0.540000 2.654461 -1.468334
v 0.540000 2.686861 -1.468334
v -0.540000 2.850036 -1.348335
v -0.460000 2.850036 -1.348335
v -0.460000 2.850036 -1.468335
v -0.540000 2.850036 -1.468335
v -0.460000 -0.121370 -1.348335
v -0.540000 -0.121370 -1.348335
v -0.460000 -0.121370 -1.468335
v -0.540000 -0.121370 -1.468335
v 0.540000 -0.121370 -1.348334
v 0.460000 -0.121370 -1.348334
v 0.540000 -0.121370 -1.468334
v 0.460000 -0.121370 -1.468334
v 0.460000 2.850036 -1.348334
v 0.540000 2.850036 -1.348334
v 0.540000 2.850036 -1.468334
v 0.460000 2.850036 -1.468334
v 0.460000 1.419906 -1.348334
v 0.460000 1.221417 -1.348334
v 0.460000 1.336344 -1.348334
v 0.460000 1.304979 -1.348334
v 0.460000 1.419906 -1.468334
v 0.460000 1.221417 -1.468334
v 0.460000 1.336344 -1.468334
v 0.460000 1.304979 -1.468334
v 0.540000 1.221417 -1.468334
v 0.540000 1.419906 -1.468334
v 0.540000 1.304979 -1.468334
v 0.540000 1.336344 -1.468334
v 0.540000 1.221417 -1.348334
v 0.540000 1.419906 -1.348334
v 0.540000 1.304979 -1.348334
v 0.540000 1.336344 -1.348334
v -0.460000 1.305311 -1.348335
v -0.460000 1.336012 -1.348335
v -0.460000 1.305311 -1.468335
v -0.460000 1.336012 -1.468335
v -0.540000 1.336012 -1.468335
v -0.540000 1.305311 -1.468335
v -0.540000 1.336012 -1.348335
v -0.540000 1.305311 -1.348335
v -0.460000 2.401070 -1.468335
v -0.460000 2.463252 -1.468335
v -0.540000 2.463252 -1.468335
v -0.540000 2.401070 -1.468335
v -0.540000 2.463252 -1.348335
v -0.540000 2.401070 -1.348335
v -0.460000 2.401070 -1.348335
v -0.460000 2.463252 -1.348335
v -0.540000 0.240252 -1.468335
v -0.540000 0.178070 -1.468335
v -0.460000 0.178070 -1.468335
v -0.460000 0.240252 -1.468335
v -0.460000 0.178070 -1.348335
v -0.460000 0.240252 -1.348335
v -0.540000 0.240252 -1.348335
v -0.540000 0.178070 -1.348335
v -0.497344 0.873000 1.350000
v -0.497344 0.927000 1.350000
v -0.497343 0.873000 -1.350000
v -0.497343 0.927000 -1.350000
v 0.497343 0.873000 1.350000
v 0.497343 0.927000 1.350000
v 0.497344 0.873000 -1.350000
v 0.497344 0.927000 -1.350000
v -0.497344 1.773000 1.350000
v -0.497344 1.827000 1.350000
v -0.497343 1.773000 -1.350000
v -0.497343 1.827000 -1.350000
v 0.497343 1.773000 1.350000
v 0.497343 1.827000 1.350000
v 0.497344 1.773000 -1.350000
v 0.497344 1.827000 -1.350000
v -0.497344 2.645304 1.350000
v -0.497344 2.699304 1.350000
v -0.497343 2.645304 -1.350000
v -0.497343 2.699304 -1.350000
v 0.497343 2.645304 1.350000
v 0.497343 2.699304 1.350000
v 0.497344 2.645304 -1.350000
v 0.497344 2.699304 -1.350000
v 0.540000 2.654461 1.350279
v 0.540000 2.686861 1.350279
v 0.459999 2.654461 1.350279
v 0.459999 2.686861 1.350279
v 0.539999 2.654461 1.470279
v 0.539999 2.686861 1.470279
v 0.459999 2.654461 1.470279
v 0.459999 2.686861 1.470279
v 0.540000 -0.045539 1.350279
v 0.540000 -0.013139 1.350279
v 0.459999 -0.045539 1.350279
v 0.459999 -0.013139 1.350279
v 0.539999 -0.045539 1.470279
v 0.539999 -0.013139 1.470279
v 0.459999 -0.045539 1.470279
v 0.459999 -0.013139 1.470279
v -0.460001 -0.045539 1.350279
v -0.460001 -0.013139 1.350279
v -0.540000 -0.045539 1.350279
v -0.540000 -0.013139 1.350279
v -0.460001 -0.045539 1.470279
v -0.460001 -0.013139 1.470279
v -0.540001 -0.045539 1.470279
v -0.540001 -0.013139 1.470279
v -0.460001 2.654461 1.350279
v -0.460001 2.686861 1.350279
v -0.540000 2.654461 1.350279
v -0.540000 2.686861 1.350279
v -0.460001 2.654461 1.470279
v -0.460001 2.686861 1.470279
v -0.540001 2.654461 1.470279
v -0.540001 2.686861 1.470279
v 0.540000 2.850036 1.350279
v 0.459999 2.850036 1.350279
v 0.459999 2.850036 1.470279
v 0.539999 2.850036 1.470279
v 0.459999 -0.121370 1.350279
v 0.540000 -0.121370 1.350279
v 0.459999 -0.121370 1.470279
v 0.539999 -0.121370 1.470279
v -0.540000 -0.121370 1.350279
v -0.460001 -0.121370 1.350279
v -0.540001 -0.121370 1.470279
v -0.460001 -0.121370 1.470279
v -0.460001 2.850036 1.350279
v -0.540000 2.850036 1.350279
v -0.540001 2.850036 1.470279
v -0.460001 2.850036 1.470279
v -0.460001 1.419906 1.350279
v -0.460001 1.221417 1.350279
v -0.460001 1.336344 1.350279
v -0.460001 1.304979 1.350279
v -0.460001 1.419906 1.470279
v -0.460001 1.221417 1.470279
v -0.460001 1.336344 1.470279
v -0.460001 1.304979 1.470279
v -0.540001 1.221417 1.470279
v -0.540001 1.419906 1.470279
v -0.540001 1.304979 1.470279
v -0.540001 1.336344 1.470279
v -0.540000 1.221417 1.350279
v -0.540000 1.419906 1.350279
v -0.540000 1.304979 1.350279
v -0.540000 1.336344 1.350279
v 0.459999 1.305311 1.350279
v 0.459999 1.336012 1.350279
v 0.459999 1.305311 1.470279
v 0.459999 1.336012 1.470279
v 0.539999 1.336012 1.470279
v 0.539999 1.305311 1.470279
v 0.540000 1.336012 1.350279
v 0.540000 1.305311 1.350279
v 0.459999 2.401070 1.470279
v 0.459999 2.463252 1.470279
v 0.539999 2.463252 1.470279
v 0.539999 2.401070 1.470279
v 0.540000 2.463252 1.350279
v 0.540000 2.401070 1.350279
v 0.459999 2.401070 1.350279
v 0.459999 2.463252 1.350279
v 0.539999 0.240252 1.470279
v 0.539999 0.178070 1.470279
v 0.459999 0.178070 1.470279
v 0.459999 0.240252 1.470279
v 0.459999 0.178070 1.350279
v 0.459999 0.240252 1.350279
v 0.540000 0.240252 1.350279
v 0.540000 0.178070 1.350279
vn -1.0000 -0.0000 -0.0000
vn -0.0000 -0.0000 -1.0000
vn 1.0000 -0.0000 -0.0000
vn -0.0000 -0.0000 1.0000
vn -0.0000 -1.0000 -0.0000
vn -0.0000 1.0000 -0.0000
vn -0.7567 0.6538 -0.0000
vn 0.7501 0.6614 -0.0000
vn -0.0004 1.0000 -0.0000
vn -0.0004 -1.0000 -0.0000
vn -0.7567 -0.6538 -0.0000
vn 0.7501 -0.6614 -0.0000
vn 0.7567 0.6538 -0.0000
vn -0.7501 0.6614 -0.0000
vn 0.0004 1.0000 -0.0000
vn 0.0004 -1.0000 -0.0000
vn 0.7567 -0.6538 -0.0000
vn -0.7501 -0.6614 -0.0000
vt 0.305719 0.722611
vt 0.299184 0.722611
vt 0.299184 0.395878
vt 0.305719 0.395878
vt 0.299184 0.389344
vt 0.178815 0.395878
vt 0.178815 0.389344
vt 0.172280 0.395878
vt 0.178815 0.722611
vt 0.172280 0.722611
vt 0.178815 0.729145
vt 0.299184 0.729145
vt 0.803186 0.336634
vt 0.923555 0.336634
vt 0.923555 0.663366
vt 0.803186 0.663366
vt 0.192026 0.344554
vt 0.201707 0.344554
vt 0.201707 0.348475
vt 0.192026 0.348475
vt 0.535533 0.709307
vt 0.535533 0.705386
vt 0.646864 0.705386
vt 0.646864 0.709307
vt 0.656545 0.705386
vt 0.656545 0.709307
vt 0.177505 0.344554
vt 0.177505 0.348475
vt 0.102312 0.173581
vt 0.087791 0.173581
vt 0.087791 0.003300
vt 0.102312 0.003300
vt 0.172280 0.382743
vt 0.172280 0.368221
vt 0.192026 0.368221
vt 0.192026 0.382743
vt 0.192026 0.185006
vt 0.201707 0.185006
vt 0.201707 0.313891
vt 0.192026 0.313891
vt 0.130035 0.114631
vt 0.144557 0.114631
vt 0.144557 0.243516
vt 0.130035 0.243516
vt 0.646864 0.545838
vt 0.656545 0.545838
vt 0.656545 0.674723
vt 0.646864 0.674723
vt 0.177505 0.185006
vt 0.177505 0.313891
vt 0.192026 0.017822
vt 0.201707 0.017822
vt 0.201707 0.021743
vt 0.192026 0.021743
vt 0.535533 0.382574
vt 0.535533 0.378654
vt 0.646864 0.378654
vt 0.646864 0.382574
vt 0.656545 0.378654
vt 0.656545 0.382574
vt 0.177505 0.017822
vt 0.177505 0.021743
vt 0.201707 0.368221
vt 0.060067 0.171632
vt 0.045546 0.171632
vt 0.045546 0.003300
vt 0.060067 0.003300
vt 0.192026 0.181291
vt 0.192026 0.052406
vt 0.201707 0.052406
vt 0.201707 0.181291
vt 0.087791 0.302466
vt 0.102312 0.302466
vt 0.646864 0.542123
vt 0.646864 0.413238
vt 0.656545 0.413238
vt 0.656545 0.542123
vt 0.177505 0.181291
vt 0.177505 0.052406
vt 0.130035 0.003301
vt 0.144557 0.003301
vt 0.201707 0.321416
vt 0.313038 0.185046
vt 0.313038 0.195158
vt 0.313038 0.017822
vt 0.322719 0.017822
vt 0.322719 0.021743
vt 0.313038 0.021743
vt 0.337241 0.017822
vt 0.337241 0.021743
vt 0.525852 0.378654
vt 0.525852 0.382574
vt 0.038945 0.306102
vt 0.024423 0.306102
vt 0.024423 0.194771
vt 0.038945 0.194771
vt 0.192026 0.008645
vt 0.201707 0.008645
vt 0.535533 0.531970
vt 0.525852 0.531970
vt 0.313038 0.171139
vt 0.322719 0.171139
vt 0.337241 0.171139
vt 0.024423 0.455498
vt 0.038945 0.455498
vt 0.313038 0.344554
vt 0.322719 0.195158
vt 0.322719 0.344554
vt 0.337241 0.195158
vt 0.337241 0.344554
vt 0.525852 0.705386
vt 0.525852 0.555990
vt 0.535533 0.555990
vt 0.060067 0.306102
vt 0.060067 0.455498
vt 0.045546 0.455498
vt 0.045546 0.306102
vt 0.322719 0.348475
vt 0.313038 0.348475
vt 0.337241 0.348475
vt 0.525852 0.709307
vt 0.313038 0.362997
vt 0.201707 0.362997
vt 0.646864 0.369477
vt 0.656545 0.369477
vt 0.201707 0.382743
vt 0.123434 0.429575
vt 0.123434 0.439256
vt 0.108913 0.439256
vt 0.108913 0.429575
vt 0.102312 0.429575
vt 0.102312 0.439256
vt 0.087791 0.439256
vt 0.087791 0.429575
vt 0.322719 0.382743
vt 0.313038 0.382743
vt 0.313038 0.368221
vt 0.322719 0.368221
vt 0.535533 0.729053
vt 0.525852 0.729053
vt 0.525852 0.369477
vt 0.535533 0.369477
vt 0.313038 0.008646
vt 0.322719 0.008646
vt 0.123434 0.448432
vt 0.108913 0.448432
vt 0.221453 0.368221
vt 0.221453 0.382743
vt 0.108913 0.420398
vt 0.123434 0.420398
vt 0.293292 0.382743
vt 0.293292 0.368221
vt 0.102312 0.448432
vt 0.087791 0.448432
vt 0.656545 0.729053
vt 0.646864 0.729053
vt 0.342465 0.368221
vt 0.342465 0.382743
vt 0.087791 0.420398
vt 0.102312 0.420398
vt 0.313038 0.181251
vt 0.201707 0.044881
vt 0.322719 0.181251
vt 0.322719 0.185046
vt 0.337241 0.181251
vt 0.337241 0.185046
vt 0.646864 0.405713
vt 0.535533 0.542082
vt 0.535533 0.545878
vt 0.646864 0.682247
vt 0.525852 0.542082
vt 0.525852 0.545878
vt 0.102312 0.413797
vt 0.087791 0.413797
vt 0.192026 0.321416
vt 0.177505 0.321416
vt 0.144557 0.413797
vt 0.130035 0.413797
vt 0.656545 0.682247
vt 0.192026 0.044881
vt 0.038945 0.171632
vt 0.024423 0.171632
vt 0.024423 0.003300
vt 0.038945 0.003300
vt 0.177505 0.044881
vt 0.656545 0.405713
vt 0.060067 0.194771
vt 0.045546 0.194771
vt 0.313038 0.003301
vt 0.201707 0.003300
vt 0.312320 0.395878
vt 0.318854 0.395878
vt 0.318854 0.722611
vt 0.312320 0.722611
vt 0.318854 0.729145
vt 0.439224 0.722611
vt 0.439224 0.729145
vt 0.445758 0.722611
vt 0.439224 0.395878
vt 0.445758 0.395878
vt 0.439224 0.389344
vt 0.318854 0.389344
vt 0.003300 0.462099
vt 0.123670 0.462099
vt 0.123670 0.788831
vt 0.003301 0.788831
vt 0.663146 0.009835
vt 0.669681 0.009835
vt 0.669681 0.336567
vt 0.663147 0.336567
vt 0.669681 0.343102
vt 0.790050 0.336567
vt 0.790050 0.343102
vt 0.796585 0.336567
vt 0.790050 0.009835
vt 0.796585 0.009835
vt 0.790050 0.003300
vt 0.669681 0.003301
vt 0.803186 0.669967
vt 0.923555 0.669967
vt 0.923555 0.996700
vt 0.803186 0.996700
vt 0.663147 0.356238
vt 0.669681 0.356238
vt 0.669681 0.682970
vt 0.663147 0.682970
vt 0.669681 0.689505
vt 0.790050 0.682970
vt 0.790050 0.689505
vt 0.796585 0.682970
vt 0.790050 0.356238
vt 0.796585 0.356238
vt 0.790050 0.349703
vt 0.669681 0.349703
vt 0.803186 0.003301
vt 0.923555 0.003300
vt 0.923555 0.330033
vt 0.803186 0.330033
vt 0.368812 0.344554
vt 0.378493 0.344554
vt 0.378493 0.348475
vt 0.368812 0.348475
vt 0.535534 0.343130
vt 0.535534 0.339209
vt 0.646865 0.339209
vt 0.646865 0.343130
vt 0.656546 0.339209
vt 0.656546 0.343130
vt 0.354291 0.344554
vt 0.354291 0.348475
vt 0.123434 0.173581
vt 0.108913 0.173581
vt 0.108913 0.003300
vt 0.123434 0.003300
vt 0.349066 0.382743
vt 0.349066 0.368221
vt 0.368812 0.368221
vt 0.368812 0.382743
vt 0.368812 0.185006
vt 0.378493 0.185006
vt 0.378493 0.313891
vt 0.368812 0.313891
vt 0.151158 0.114632
vt 0.165679 0.114632
vt 0.165679 0.243516
vt 0.151158 0.243516
vt 0.646864 0.179661
vt 0.656545 0.179661
vt 0.656546 0.308546
vt 0.646865 0.308546
vt 0.354291 0.185006
vt 0.354291 0.313891
vt 0.368813 0.017822
vt 0.378494 0.017822
vt 0.378494 0.021743
vt 0.368813 0.021743
vt 0.535533 0.016398
vt 0.535533 0.012477
vt 0.646864 0.012477
vt 0.646864 0.016398
vt 0.656545 0.012477
vt 0.656545 0.016398
vt 0.354291 0.017822
vt 0.354291 0.021743
vt 0.378493 0.368221
vt 0.017822 0.171632
vt 0.003301 0.171632
vt 0.003301 0.003300
vt 0.017822 0.003300
vt 0.368812 0.181291
vt 0.368813 0.052406
vt 0.378494 0.052406
vt 0.378493 0.181291
vt 0.108913 0.302466
vt 0.123434 0.302466
vt 0.646864 0.175946
vt 0.646864 0.047061
vt 0.656545 0.047061
vt 0.656545 0.175946
vt 0.354291 0.181291
vt 0.354291 0.052406
vt 0.151158 0.003301
vt 0.165679 0.003301
vt 0.378493 0.321416
vt 0.489824 0.185046
vt 0.489824 0.195158
vt 0.489825 0.017822
vt 0.499505 0.017822
vt 0.499505 0.021743
vt 0.489825 0.021743
vt 0.514027 0.017822
vt 0.514027 0.021743
vt 0.525852 0.012477
vt 0.525852 0.016398
vt 0.081190 0.306102
vt 0.066668 0.306102
vt 0.066668 0.194771
vt 0.081190 0.194771
vt 0.368813 0.008645
vt 0.378494 0.008645
vt 0.535533 0.165794
vt 0.525853 0.165794
vt 0.489824 0.171139
vt 0.499505 0.171139
vt 0.514027 0.171139
vt 0.066668 0.455498
vt 0.081190 0.455498
vt 0.489824 0.344554
vt 0.499505 0.195158
vt 0.499505 0.344554
vt 0.514027 0.195158
vt 0.514027 0.344554
vt 0.525853 0.339209
vt 0.525853 0.189813
vt 0.535533 0.189813
vt 0.017822 0.306102
vt 0.017822 0.455498
vt 0.003300 0.455498
vt 0.003301 0.306102
vt 0.499505 0.348475
vt 0.489824 0.348475
vt 0.514027 0.348475
vt 0.525853 0.343130
vt 0.489824 0.362997
vt 0.378493 0.362996
vt 0.646864 0.003300
vt 0.656545 0.003300
vt 0.378493 0.382743
vt 0.151158 0.439256
vt 0.151158 0.429575
vt 0.165679 0.429575
vt 0.165679 0.439255
vt 0.144557 0.429575
vt 0.144557 0.439256
vt 0.130035 0.439256
vt 0.130035 0.429575
vt 0.499505 0.382743
vt 0.489824 0.382743
vt 0.489824 0.368221
vt 0.499505 0.368221
vt 0.535534 0.362876
vt 0.525853 0.362876
vt 0.525852 0.003301
vt 0.535533 0.003301
vt 0.489825 0.008645
vt 0.499505 0.008646
vt 0.151158 0.420398
vt 0.165679 0.420398
vt 0.398239 0.368221
vt 0.398239 0.382743
vt 0.165679 0.448432
vt 0.151158 0.448432
vt 0.470078 0.382743
vt 0.470078 0.368221
vt 0.144557 0.448432
vt 0.130035 0.448432
vt 0.656546 0.362876
vt 0.646865 0.362876
vt 0.519251 0.368221
vt 0.519251 0.382743
vt 0.130035 0.420398
vt 0.144557 0.420398
vt 0.489824 0.181251
vt 0.378494 0.044881
vt 0.499505 0.181251
vt 0.499505 0.185046
vt 0.514027 0.181251
vt 0.514027 0.185046
vt 0.646864 0.039536
vt 0.535533 0.175906
vt 0.535533 0.179701
vt 0.646865 0.316071
vt 0.525853 0.175906
vt 0.525853 0.179701
vt 0.123434 0.413797
vt 0.108913 0.413797
vt 0.368812 0.321416
vt 0.354291 0.321416
vt 0.165679 0.413797
vt 0.151158 0.413797
vt 0.656546 0.316071
vt 0.368813 0.044881
vt 0.081190 0.171632
vt 0.066668 0.171632
vt 0.066668 0.003300
vt 0.081190 0.003300
vt 0.354291 0.044881
vt 0.656545 0.039536
vt 0.017822 0.194771
vt 0.003301 0.194771
vt 0.489825 0.003301
vt 0.378494 0.003300
s 0
f 1/1/1 2/2/1 4/3/1 3/4/1
f 3/5/2 4/3/2 8/6/2 7/7/2
f 7/8/3 8/6/3 6/9/3 5/10/3
f 5/11/4 6/9/4 2/2/4 1/12/4
f 3/13/5 7/14/5 5/15/5 1/16/5
f 8/6/6 4/3/6 2/2/6 6/9/6
f 9/17/4 11/18/4 12/19/4 10/20/4
f 38/21/2 37/22/2 15/23/2 16/24/2
f 15/23/2 13/25/2 14/26/2 16/24/2
f 13/27/1 9/17/1 10/20/1 14/28/1
f 92/29/7 94/30/7 60/31/7 64/32/7
f 14/33/1 10/34/1 41/35/1 44/36/1
f 79/37/4 74/38/4 87/39/4 86/40/4
f 74/41/3 76/42/3 81/43/3 87/44/3
f 76/45/2 77/46/2 84/47/2 81/48/2
f 77/49/1 79/37/1 86/40/1 84/50/1
f 17/51/4 19/52/4 20/53/4 18/54/4
f 30/55/2 29/56/2 23/57/2 24/58/2
f 23/57/2 21/59/2 22/60/2 24/58/2
f 21/61/1 17/51/1 18/54/1 22/62/1
f 10/20/4 12/19/4 42/63/4 41/35/4
f 82/64/8 88/65/8 57/66/8 61/67/8
f 80/68/4 95/69/4 94/70/4 73/71/4
f 73/72/3 94/30/3 92/29/3 75/73/3
f 75/74/2 92/75/2 89/76/2 78/77/2
f 78/78/1 89/79/1 95/69/1 80/68/1
f 76/42/9 74/41/9 59/80/9 63/81/9
f 88/82/4 87/39/4 59/83/4 57/84/4
f 25/85/4 27/86/4 28/87/4 26/88/4
f 27/86/3 31/89/3 32/90/3 28/87/3
f 31/91/2 29/56/2 30/55/2 32/92/2
f 26/93/6 30/94/6 24/95/6 20/96/6
f 19/52/4 17/51/4 46/97/4 45/98/4
f 62/99/2 65/100/2 32/92/2 30/55/2
f 58/101/4 26/88/4 28/87/4 69/102/4
f 69/102/3 28/87/3 32/90/3 65/103/3
f 62/104/1 30/94/1 26/93/1 58/105/1
f 33/106/4 57/84/4 70/107/4 35/108/4
f 35/108/3 70/107/3 66/109/3 39/110/3
f 39/111/2 66/112/2 61/113/2 37/22/2
f 37/114/1 61/115/1 57/116/1 33/117/1
f 33/106/4 35/108/4 36/118/4 34/119/4
f 35/108/3 39/110/3 40/120/3 36/118/3
f 39/111/2 37/22/2 38/21/2 40/121/2
f 34/119/6 38/122/6 16/123/6 12/19/6
f 21/59/2 23/57/2 47/124/2 48/125/2
f 43/126/6 44/36/6 41/35/6 42/63/6
f 45/127/5 46/128/5 48/129/5 47/130/5
f 49/131/5 50/132/5 52/133/5 51/134/5
f 55/135/6 56/136/6 53/137/6 54/138/6
f 40/121/2 38/21/2 56/139/2 55/140/2
f 29/56/2 31/91/2 51/141/2 52/142/2
f 27/86/4 25/85/4 50/143/4 49/144/4
f 17/145/1 21/146/1 48/129/1 46/128/1
f 12/147/3 16/148/3 43/126/3 42/63/3
f 34/119/4 36/118/4 54/138/4 53/137/4
f 23/149/3 19/150/3 45/127/3 47/130/3
f 38/151/1 34/152/1 53/137/1 56/136/1
f 25/153/1 29/154/1 52/133/1 50/132/1
f 16/24/2 14/26/2 44/155/2 43/156/2
f 36/157/3 40/158/3 55/135/3 54/138/3
f 31/159/3 27/160/3 49/131/3 51/134/3
f 74/38/4 73/71/4 60/161/4 59/83/4
f 94/70/4 93/162/4 58/101/4 60/161/4
f 58/101/4 69/102/4 71/163/4 60/161/4
f 60/161/4 71/163/4 72/164/4 59/83/4
f 59/83/4 72/164/4 70/107/4 57/84/4
f 69/102/3 65/103/3 67/165/3 71/163/3
f 71/163/3 67/165/3 68/166/3 72/164/3
f 72/164/3 68/166/3 66/109/3 70/107/3
f 91/167/2 92/75/2 64/168/2 62/99/2
f 75/74/2 76/45/2 63/169/2 64/168/2
f 81/48/2 82/170/2 61/113/2 63/169/2
f 65/100/2 62/99/2 64/168/2 67/171/2
f 67/171/2 64/168/2 63/169/2 68/172/2
f 68/172/2 63/169/2 61/113/2 66/112/2
f 74/38/4 79/37/4 80/68/4 73/71/4
f 79/37/1 77/49/1 78/78/1 80/68/1
f 73/72/10 75/73/10 64/173/10 60/174/10
f 77/46/2 76/45/2 75/74/2 78/77/2
f 88/82/4 85/175/4 86/40/4 87/39/4
f 85/175/1 83/176/1 84/50/1 86/40/1
f 87/44/11 81/43/11 63/177/11 59/178/11
f 83/179/2 82/170/2 81/48/2 84/47/2
f 96/180/4 93/162/4 94/70/4 95/69/4
f 93/181/12 91/182/12 62/183/12 58/184/12
f 90/185/1 96/180/1 95/69/1 89/79/1
f 91/167/2 90/186/2 89/76/2 92/75/2
f 88/65/3 82/64/3 15/187/3 11/188/3
f 82/170/2 83/179/2 13/25/2 15/23/2
f 83/176/1 85/175/1 9/17/1 13/27/1
f 85/175/4 88/82/4 11/18/4 9/17/4
f 96/180/1 90/185/1 22/62/1 18/54/1
f 90/186/2 91/167/2 24/58/2 22/60/2
f 91/182/3 93/181/3 20/96/3 24/95/3
f 93/162/4 96/180/4 18/54/4 20/53/4
f 29/189/5 25/85/5 19/52/5 23/190/5
f 25/85/4 26/88/4 20/53/4 19/52/4
f 37/114/5 33/117/5 11/188/5 15/187/5
f 33/106/4 34/119/4 12/19/4 11/18/4
f 97/191/1 98/192/1 100/193/1 99/194/1
f 99/195/2 100/193/2 104/196/2 103/197/2
f 103/198/3 104/196/3 102/199/3 101/200/3
f 101/201/4 102/199/4 98/192/4 97/202/4
f 99/203/5 103/204/5 101/205/5 97/206/5
f 104/196/6 100/193/6 98/192/6 102/199/6
f 105/207/1 106/208/1 108/209/1 107/210/1
f 107/211/2 108/209/2 112/212/2 111/213/2
f 111/214/3 112/212/3 110/215/3 109/216/3
f 109/217/4 110/215/4 106/208/4 105/218/4
f 107/219/5 111/220/5 109/221/5 105/222/5
f 112/212/6 108/209/6 106/208/6 110/215/6
f 113/223/1 114/224/1 116/225/1 115/226/1
f 115/227/2 116/225/2 120/228/2 119/229/2
f 119/230/3 120/228/3 118/231/3 117/232/3
f 117/233/4 118/231/4 114/224/4 113/234/4
f 115/235/5 119/236/5 117/237/5 113/238/5
f 120/228/6 116/225/6 114/224/6 118/231/6
f 121/239/2 123/240/2 124/241/2 122/242/2
f 150/243/4 149/244/4 127/245/4 128/246/4
f 127/245/4 125/247/4 126/248/4 128/246/4
f 125/249/3 121/239/3 122/242/3 126/250/3
f 204/251/13 206/252/13 172/253/13 176/254/13
f 126/255/3 122/256/3 153/257/3 156/258/3
f 191/259/2 186/260/2 199/261/2 198/262/2
f 186/263/1 188/264/1 193/265/1 199/266/1
f 188/267/4 189/268/4 196/269/4 193/270/4
f 189/271/3 191/259/3 198/262/3 196/272/3
f 129/273/2 131/274/2 132/275/2 130/276/2
f 142/277/4 141/278/4 135/279/4 136/280/4
f 135/279/4 133/281/4 134/282/4 136/280/4
f 133/283/3 129/273/3 130/276/3 134/284/3
f 122/242/2 124/241/2 154/285/2 153/257/2
f 194/286/14 200/287/14 169/288/14 173/289/14
f 192/290/2 207/291/2 206/292/2 185/293/2
f 185/294/1 206/252/1 204/251/1 187/295/1
f 187/296/4 204/297/4 201/298/4 190/299/4
f 190/300/3 201/301/3 207/291/3 192/290/3
f 188/264/15 186/263/15 171/302/15 175/303/15
f 200/304/2 199/261/2 171/305/2 169/306/2
f 137/307/2 139/308/2 140/309/2 138/310/2
f 139/308/1 143/311/1 144/312/1 140/309/1
f 143/313/4 141/278/4 142/277/4 144/314/4
f 138/315/6 142/316/6 136/317/6 132/318/6
f 131/274/2 129/273/2 158/319/2 157/320/2
f 174/321/4 177/322/4 144/314/4 142/277/4
f 170/323/2 138/310/2 140/309/2 181/324/2
f 181/324/1 140/309/1 144/312/1 177/325/1
f 174/326/3 142/316/3 138/315/3 170/327/3
f 145/328/2 169/306/2 182/329/2 147/330/2
f 147/330/1 182/329/1 178/331/1 151/332/1
f 151/333/4 178/334/4 173/335/4 149/244/4
f 149/336/3 173/337/3 169/338/3 145/339/3
f 145/328/2 147/330/2 148/340/2 146/341/2
f 147/330/1 151/332/1 152/342/1 148/340/1
f 151/333/4 149/244/4 150/243/4 152/343/4
f 146/341/6 150/344/6 128/345/6 124/241/6
f 133/281/4 135/279/4 159/346/4 160/347/4
f 155/348/6 156/258/6 153/257/6 154/285/6
f 157/349/5 158/350/5 160/351/5 159/352/5
f 161/353/5 162/354/5 164/355/5 163/356/5
f 167/357/6 168/358/6 165/359/6 166/360/6
f 152/343/4 150/243/4 168/361/4 167/362/4
f 141/278/4 143/313/4 163/363/4 164/364/4
f 139/308/2 137/307/2 162/365/2 161/366/2
f 129/367/3 133/368/3 160/351/3 158/350/3
f 124/369/1 128/370/1 155/348/1 154/285/1
f 146/341/2 148/340/2 166/360/2 165/359/2
f 135/371/1 131/372/1 157/349/1 159/352/1
f 150/373/3 146/374/3 165/359/3 168/358/3
f 137/375/3 141/376/3 164/355/3 162/354/3
f 128/246/4 126/248/4 156/377/4 155/378/4
f 148/379/1 152/380/1 167/357/1 166/360/1
f 143/381/1 139/382/1 161/353/1 163/356/1
f 186/260/2 185/293/2 172/383/2 171/305/2
f 206/292/2 205/384/2 170/323/2 172/383/2
f 170/323/2 181/324/2 183/385/2 172/383/2
f 172/383/2 183/385/2 184/386/2 171/305/2
f 171/305/2 184/386/2 182/329/2 169/306/2
f 181/324/1 177/325/1 179/387/1 183/385/1
f 183/385/1 179/387/1 180/388/1 184/386/1
f 184/386/1 180/388/1 178/331/1 182/329/1
f 203/389/4 204/297/4 176/390/4 174/321/4
f 187/296/4 188/267/4 175/391/4 176/390/4
f 193/270/4 194/392/4 173/335/4 175/391/4
f 177/322/4 174/321/4 176/390/4 179/393/4
f 179/393/4 176/390/4 175/391/4 180/394/4
f 180/394/4 175/391/4 173/335/4 178/334/4
f 186/260/2 191/259/2 192/290/2 185/293/2
f 191/259/3 189/271/3 190/300/3 192/290/3
f 185/294/16 187/295/16 176/395/16 172/396/16
f 189/268/4 188/267/4 187/296/4 190/299/4
f 200/304/2 197/397/2 198/262/2 199/261/2
f 197/397/3 195/398/3 196/272/3 198/262/3
f 199/266/17 193/265/17 175/399/17 171/400/17
f 195/401/4 194/392/4 193/270/4 196/269/4
f 208/402/2 205/384/2 206/292/2 207/291/2
f 205/403/18 203/404/18 174/405/18 170/406/18
f 202/407/3 208/402/3 207/291/3 201/301/3
f 203/389/4 202/408/4 201/298/4 204/297/4
f 200/287/1 194/286/1 127/409/1 123/410/1
f 194/392/4 195/401/4 125/247/4 127/245/4
f 195/398/3 197/397/3 121/239/3 125/249/3
f 197/397/2 200/304/2 123/240/2 121/239/2
f 208/402/3 202/407/3 134/284/3 130/276/3
f 202/408/4 203/389/4 136/280/4 134/282/4
f 203/404/1 205/403/1 132/318/1 136/317/1
f 205/384/2 208/402/2 130/276/2 132/275/2
f 141/411/5 137/307/5 131/274/5 135/412/5
f 137/307/2 138/310/2 132/275/2 131/274/2
f 149/336/5 145/339/5 123/410/5 127/409/5
f 145/328/2 146/341/2 124/241/2 123/240/2
