# Blender 5.2.1 LTS
# www.blender.org
mtllib PalletJack.mtl
o PalletJack
v 0.408739 0.022805 -0.048870
v 0.145397 0.578257 -0.048870
v 0.408739 0.022805 0.120149
v 0.145397 0.578257 0.120149
v -0.408671 0.022805 -0.048870
v -0.145397 0.578257 -0.048870
v -0.408671 0.022805 0.120149
v -0.145397 0.578257 0.120149
v 0.408580 0.096220 -0.048870
v 0.408580 0.096220 0.120149
v -0.408647 0.096220 0.120149
v -0.408647 0.096220 -0.048870
v 0.000000 0.022805 0.120149
v 0.000000 0.599927 0.120149
v 0.000000 0.022805 -0.048870
v 0.000000 0.599927 -0.048870
v 0.000000 0.096220 -0.048870
v 0.000000 0.096220 0.120149
v -0.060075 0.599927 0.120149
v -0.204438 0.022805 -0.048870
v -0.200903 0.096220 0.120149
v -0.207756 0.022805 0.120149
v -0.060075 0.599927 -0.048870
v -0.204221 0.096220 -0.048870
v 0.207756 0.022805 0.120149
v 0.060075 0.599927 -0.048870
v 0.204348 0.096220 -0.048870
v 0.060075 0.599927 0.120149
v 0.204311 0.022805 -0.048870
v 0.200903 0.096220 0.120149
v 0.334671 0.216283 -0.048870
v 0.334671 0.216283 0.120149
v -0.334671 0.216283 0.120149
v -0.334671 0.216283 -0.048870
v 0.000000 0.216283 -0.048870
v 0.000000 0.216283 0.120149
v -0.167336 0.216283 -0.048870
v -0.167336 0.216283 0.120149
v 0.167336 0.216283 0.120149
v 0.167336 0.216283 -0.048870
v 0.306375 0.266888 -0.048870
v 0.306375 0.266888 0.120149
v -0.306375 0.266888 0.120149
v -0.306375 0.266888 -0.048870
v 0.000000 0.266888 -0.048870
v 0.000000 0.266888 0.120149
v -0.153187 0.266888 -0.048870
v -0.153187 0.266888 0.120149
v 0.153187 0.266888 0.120149
v 0.153187 0.266888 -0.048870
v -0.408647 0.096220 -1.672592
v -0.408671 0.022805 -1.672592
v -0.204438 0.022805 -1.672592
v 0.408739 0.022805 -1.672592
v 0.408580 0.096220 -1.672592
v 0.204348 0.096220 -1.672592
v -0.204221 0.096220 -1.672592
v 0.204311 0.022805 -1.672592
v 0.308247 0.022805 0.120149
v 0.090112 0.599927 -0.048870
v 0.306464 0.096220 -0.048870
v 0.090112 0.599927 0.120149
v 0.306525 0.022805 -0.048870
v 0.304742 0.096220 0.120149
v 0.251004 0.216283 0.120149
v 0.251004 0.216283 -0.048870
v 0.229781 0.266888 0.120149
v 0.229781 0.266888 -0.048870
v 0.306464 0.096220 -1.773728
v 0.306525 0.022805 -1.773728
v -0.090112 0.599927 0.120149
v -0.306555 0.022805 -0.048870
v -0.304775 0.096220 0.120149
v -0.308214 0.022805 0.120149
v -0.090112 0.599927 -0.048870
v -0.306434 0.096220 -0.048870
v -0.251004 0.216283 -0.048870
v -0.251004 0.216283 0.120149
v -0.229781 0.266888 -0.048870
v -0.229781 0.266888 0.120149
v -0.306555 0.022805 -1.773728
v -0.306434 0.096220 -1.773728
v 0.000000 0.266888 0.168705
v 0.000000 0.216283 0.168705
v -0.153187 0.266888 0.168705
v -0.167336 0.216283 0.168705
v 0.153187 0.266888 0.168705
v 0.167336 0.216283 0.168705
v 0.000000 0.266888 0.340051
v 0.000000 0.216285 0.340355
v -0.153187 0.266888 0.340051
v -0.167336 0.216285 0.340355
v 0.153187 0.266888 0.340051
v 0.167336 0.216285 0.340355
v -0.210034 0.282781 0.168705
v -0.224182 0.232176 0.168705
v 0.210034 0.282781 0.168705
v 0.224182 0.232176 0.168705
v -0.210034 0.282781 0.339955
v -0.224182 0.232178 0.340260
v 0.210034 0.282781 0.339955
v 0.224182 0.232178 0.340260
v -0.111543 0.415835 0.339154
v -0.111543 0.415840 0.168705
v 0.111543 0.415835 0.339154
v 0.111543 0.415840 0.168705
v -0.168389 0.431728 0.339058
v -0.168389 0.431733 0.168705
v 0.168389 0.431728 0.339058
v 0.168389 0.431733 0.168705
v -0.176718 0.401939 0.339237
v -0.176718 0.401943 0.168705
v -0.119871 0.386049 0.168705
v -0.119871 0.386046 0.339333
v 0.119871 0.386049 0.168705
v 0.176718 0.401943 0.168705
v 0.176718 0.401939 0.339237
v 0.119871 0.386046 0.339333
v -0.060201 0.510397 0.338584
v -0.060201 0.510385 0.268860
v 0.060201 0.510397 0.338584
v 0.060201 0.510385 0.268860
v -0.043156 0.566777 0.335344
v -0.043156 0.566765 0.281733
v 0.043156 0.566777 0.335344
v 0.043156 0.566765 0.281733
v -0.043156 1.588928 0.335144
v -0.043156 1.588916 0.281533
v 0.043156 1.588928 0.335144
v 0.043156 1.588916 0.281533
v -0.043156 1.543738 0.281542
v 0.043156 1.543738 0.281542
v -0.043156 1.543750 0.335153
v 0.043156 1.543750 0.335153
v 0.043156 1.288436 0.281594
v -0.043156 1.288436 0.281594
v -0.043156 1.288447 0.335205
v 0.043156 1.288447 0.335205
v 0.043156 1.258116 0.281598
v -0.043156 1.258116 0.281598
v -0.043156 1.258128 0.335209
v 0.043156 1.258128 0.335209
v -0.043156 1.416100 0.281568
v -0.043156 1.416108 0.335179
v 0.043156 1.416108 0.335179
v 0.043156 1.416100 0.281568
v -0.043156 1.432818 0.281563
v -0.043156 1.432825 0.335174
v 0.043156 1.432825 0.335174
v 0.043156 1.432818 0.281563
v -0.172612 1.588928 0.335144
v -0.172612 1.588916 0.281533
v 0.172612 1.588928 0.335144
v 0.172612 1.588916 0.281533
v -0.172612 1.543738 0.281542
v -0.172612 1.543750 0.335153
v 0.172612 1.543750 0.335153
v 0.172612 1.543738 0.281542
v -0.172612 1.334229 0.281598
v -0.165369 1.355157 0.281594
v -0.172612 1.334241 0.335209
v -0.165369 1.355169 0.335205
v 0.172612 1.334241 0.335209
v 0.165369 1.355169 0.335205
v 0.165369 1.355157 0.281594
v 0.172612 1.334229 0.281598
v -0.196580 1.569871 0.335144
v -0.196580 1.569860 0.281533
v 0.196580 1.569871 0.335144
v 0.196580 1.569860 0.281533
v -0.196580 1.543738 0.281542
v -0.196580 1.543750 0.335153
v 0.196580 1.543750 0.335153
v 0.196580 1.543738 0.281542
v -0.196580 1.350483 0.281598
v -0.196580 1.377162 0.281594
v -0.196580 1.350495 0.335209
v -0.196580 1.377174 0.335205
v 0.196580 1.350495 0.335209
v 0.196580 1.377174 0.335205
v 0.196580 1.377162 0.281594
v 0.196580 1.350483 0.281598
v 0.043156 1.543742 0.299412
v 0.043156 1.543746 0.317283
v 0.043156 1.288440 0.299464
v 0.043156 1.288444 0.317334
v 0.043156 1.416103 0.299438
v 0.043156 1.416105 0.317309
v 0.043156 1.432820 0.299433
v 0.043156 1.432823 0.317303
v 0.172612 1.543742 0.299412
v 0.172612 1.543746 0.317283
v 0.165369 1.355161 0.299464
v 0.165369 1.355165 0.317334
v -0.043156 1.543746 0.317283
v -0.043156 1.543741 0.299412
v -0.043156 1.288443 0.317334
v -0.043156 1.288440 0.299464
v -0.043156 1.416105 0.317309
v -0.043156 1.416103 0.299438
v -0.043156 1.432823 0.317303
v -0.043156 1.432820 0.299433
v -0.172612 1.543746 0.317283
v -0.172612 1.543741 0.299412
v -0.165369 1.355165 0.317334
v -0.165369 1.355161 0.299464
v 0.117553 1.402761 0.299438
v 0.117553 1.402763 0.317309
v 0.117553 1.419479 0.299433
v 0.117553 1.419481 0.317303
v 0.079580 1.432823 0.317303
v 0.079580 1.432820 0.299433
v 0.079580 1.416103 0.299438
v 0.079580 1.416105 0.317309
v -0.132458 0.216283 0.203583
v -0.034878 0.216283 0.203583
v -0.034878 0.216285 0.305478
v -0.132458 0.216285 0.305478
v 0.034878 0.216283 0.203583
v 0.132458 0.216283 0.203583
v 0.132458 0.216285 0.305478
v 0.034878 0.216285 0.305478
v -0.034878 0.216283 0.203583
v -0.132458 0.216283 0.203583
v -0.132458 0.216285 0.305478
v -0.034878 0.216285 0.305478
v 0.132458 0.216283 0.203583
v 0.034878 0.216283 0.203583
v 0.034878 0.216285 0.305478
v 0.132458 0.216285 0.305478
v -0.034878 0.019803 0.203586
v -0.132458 0.019803 0.203586
v -0.132458 0.019804 0.305480
v -0.034878 0.019804 0.305480
v 0.132458 0.019803 0.203586
v 0.034878 0.019803 0.203586
v 0.034878 0.019804 0.305480
v 0.132458 0.019804 0.305480
v 0.000000 0.216284 0.253210
v -0.167336 0.216284 0.253210
v 0.167336 0.216284 0.253210
v -0.224182 0.232177 0.253163
v -0.210034 0.282781 0.253013
v 0.210034 0.282781 0.253013
v 0.224182 0.232177 0.253163
v -0.111543 0.415838 0.252619
v 0.111543 0.415838 0.252619
v -0.168389 0.431731 0.252571
v 0.168389 0.431731 0.252571
v -0.176718 0.401941 0.252660
v 0.176718 0.401941 0.252660
v -0.060201 0.510391 0.303186
v 0.060201 0.510391 0.303186
v -0.043156 0.566771 0.308126
v 0.043156 0.566771 0.308126
v -0.043156 1.588921 0.307926
v 0.043156 1.588921 0.307926
v 0.043156 1.258122 0.307991
v -0.043156 1.258122 0.307991
v -0.172612 1.588921 0.307926
v 0.172612 1.588921 0.307926
v 0.172612 1.334235 0.307991
v -0.172612 1.334235 0.307991
v -0.196580 1.569865 0.307926
v 0.196580 1.569865 0.307926
v 0.196580 1.543743 0.307935
v -0.196580 1.543743 0.307935
v -0.196580 1.377168 0.307987
v 0.196580 1.377168 0.307987
v 0.196580 1.350489 0.307991
v -0.196580 1.350489 0.307991
v -0.132458 0.216284 0.253747
v -0.034878 0.216284 0.253747
v 0.034878 0.216284 0.253747
v 0.132458 0.216284 0.253747
v -0.132458 0.216284 0.253747
v -0.034878 0.216284 0.253747
v 0.034878 0.216284 0.253747
v 0.132458 0.216284 0.253747
v -0.132458 0.002917 0.253749
v -0.034878 0.002917 0.253749
v 0.034878 0.002917 0.253749
v 0.132458 0.002917 0.253749
v -0.132458 0.118835 0.145258
v -0.132458 0.118837 0.363805
v -0.034878 0.118837 0.363805
v -0.034878 0.118835 0.145258
v -0.034878 0.118836 0.253748
v -0.132458 0.118836 0.253748
v 0.132458 0.118044 0.363805
v 0.132458 0.118043 0.145258
v 0.034878 0.118043 0.145258
v 0.034878 0.118044 0.363805
v 0.034878 0.118044 0.253748
v 0.132458 0.118044 0.253748
v -0.132458 0.167561 0.351870
v -0.034878 0.167559 0.157304
v -0.132458 0.167559 0.157304
v -0.034878 0.167561 0.351870
v -0.034878 0.167560 0.253635
v -0.132458 0.167560 0.253635
v -0.132458 0.069319 0.157305
v -0.034878 0.069320 0.351871
v -0.034878 0.069320 0.253637
v -0.132458 0.069320 0.253637
v -0.132458 0.069320 0.351871
v -0.034878 0.069319 0.157305
v 0.132458 0.167163 0.157304
v 0.034878 0.167163 0.157304
v 0.132458 0.167164 0.351870
v 0.034878 0.167164 0.351870
v 0.034878 0.167164 0.253635
v 0.132458 0.167164 0.253635
v 0.132458 0.068924 0.351871
v 0.034878 0.068924 0.351871
v 0.034878 0.068924 0.253637
v 0.132458 0.068924 0.253637
v 0.132458 0.068923 0.157305
v 0.034878 0.068923 0.157305
v -0.371165 0.096220 -1.521153
v -0.371189 0.022805 -1.521153
v -0.241920 0.022805 -1.521153
v -0.241704 0.096220 -1.521153
v -0.306434 0.096220 -1.521208
v -0.306555 0.022805 -1.521208
v 0.241831 0.096220 -1.521153
v 0.241794 0.022805 -1.521153
v 0.371097 0.096220 -1.521153
v 0.371256 0.022805 -1.521153
v 0.306525 0.022805 -1.521208
v 0.306464 0.096220 -1.521208
v -0.371189 0.022805 -1.357136
v -0.241704 0.096220 -1.357136
v -0.371165 0.096220 -1.357136
v -0.241920 0.022805 -1.357136
v -0.306434 0.096220 -1.319648
v -0.306555 0.022805 -1.319648
v 0.241794 0.022805 -1.357136
v 0.241831 0.096220 -1.357136
v 0.371097 0.096220 -1.357136
v 0.371256 0.022805 -1.357136
v 0.306525 0.022805 -1.319648
v 0.306464 0.096220 -1.319648
v -0.306555 0.022805 -1.558690
v -0.204438 0.022805 -1.558604
v -0.306434 0.096220 -1.558690
v -0.408647 0.096220 -1.558604
v -0.204221 0.096220 -1.558604
v -0.408671 0.022805 -1.558604
v 0.306464 0.096220 -1.558690
v 0.204348 0.096220 -1.558604
v 0.306525 0.022805 -1.558690
v 0.408739 0.022805 -1.558604
v 0.204311 0.022805 -1.558604
v 0.408580 0.096220 -1.558604
v 0.204348 0.096220 -1.319656
v 0.408580 0.096220 -1.319656
v 0.408739 0.022805 -1.319656
v -0.408647 0.096220 -1.319656
v -0.204438 0.022805 -1.319656
v -0.408671 0.022805 -1.319656
v -0.204221 0.096220 -1.319656
v -0.306555 0.022805 -1.357131
v -0.306434 0.096220 -1.357131
v 0.204311 0.022805 -1.319656
v 0.306464 0.096220 -1.357131
v 0.306525 0.022805 -1.357131
v 0.408580 0.096220 -1.399305
v 0.408580 0.096220 -1.478955
v 0.408739 0.022805 -1.399305
v 0.408739 0.022805 -1.478955
v 0.371097 0.096220 -1.411808
v 0.371097 0.096220 -1.466481
v 0.371256 0.022805 -1.411808
v 0.371256 0.022805 -1.466481
v 0.204348 0.096220 -1.399305
v 0.204348 0.096220 -1.478955
v 0.204311 0.022805 -1.478955
v 0.204311 0.022805 -1.399305
v 0.241831 0.096220 -1.411808
v 0.241831 0.096220 -1.466481
v 0.241794 0.022805 -1.466481
v 0.241794 0.022805 -1.411808
v -0.204438 0.022805 -1.399305
v -0.204438 0.022805 -1.478955
v -0.204221 0.096220 -1.478955
v -0.204221 0.096220 -1.399305
v -0.241920 0.022805 -1.411808
v -0.241920 0.022805 -1.466481
v -0.241704 0.096220 -1.466481
v -0.241704 0.096220 -1.411808
v -0.408647 0.096220 -1.399305
v -0.408647 0.096220 -1.478955
v -0.408671 0.022805 -1.478955
v -0.408671 0.022805 -1.399305
v -0.371165 0.096220 -1.411808
v -0.371165 0.096220 -1.466481
v -0.371189 0.022805 -1.466481
v -0.371189 0.022805 -1.411808
v -0.258643 0.022805 -1.466481
v -0.354614 0.022805 -1.466481
v -0.354417 0.096220 -1.466481
v -0.258304 0.096220 -1.466481
v -0.354417 0.096220 -1.411808
v -0.258304 0.096220 -1.411808
v -0.354614 0.022805 -1.411808
v -0.258643 0.022805 -1.411808
v 0.354411 0.096220 -1.411808
v 0.258442 0.096220 -1.411808
v 0.258505 0.022805 -1.411808
v 0.354620 0.022805 -1.411808
v 0.258505 0.022805 -1.466481
v 0.354620 0.022805 -1.466481
v 0.258442 0.096220 -1.466481
v 0.354411 0.096220 -1.466481
v -0.258643 0.013409 -1.509501
v -0.354614 0.013356 -1.509408
v -0.354417 0.105630 -1.509476
v -0.258304 0.105683 -1.509384
v -0.354417 0.105630 -1.368813
v -0.258304 0.105683 -1.368905
v -0.354614 0.013356 -1.368881
v -0.258643 0.013409 -1.368788
v 0.354411 0.105629 -1.368811
v 0.258442 0.105655 -1.368857
v 0.258505 0.013382 -1.368836
v 0.354620 0.013355 -1.368883
v 0.258505 0.013382 -1.509453
v 0.354620 0.013355 -1.509406
v 0.258442 0.105655 -1.509431
v 0.354411 0.105629 -1.509478
v 0.408580 0.096220 -1.439130
v 0.408739 0.022805 -1.439130
v 0.371097 0.096220 -1.439144
v 0.371256 0.022805 -1.439144
v 0.204348 0.096220 -1.439130
v 0.204311 0.022805 -1.439130
v 0.241831 0.096220 -1.439144
v 0.241794 0.022805 -1.439144
v 0.258442 0.096220 -1.439144
v 0.354411 0.096220 -1.439144
v 0.258505 0.022805 -1.439144
v 0.354620 0.022805 -1.439144
v 0.258442 0.116846 -1.439144
v 0.354411 0.116813 -1.439144
v 0.258505 0.002195 -1.439144
v 0.354620 0.002162 -1.439144
v -0.204438 0.022805 -1.439130
v -0.204221 0.096220 -1.439130
v -0.241920 0.022805 -1.439144
v -0.241704 0.096220 -1.439144
v -0.408647 0.096220 -1.439130
v -0.408671 0.022805 -1.439130
v -0.371165 0.096220 -1.439144
v -0.371189 0.022805 -1.439144
v -0.354614 0.022805 -1.439144
v -0.258643 0.022805 -1.439144
v -0.354417 0.096220 -1.439144
v -0.258304 0.096220 -1.439144
v -0.354614 0.002163 -1.439144
v -0.258643 0.002228 -1.439144
v -0.354417 0.116814 -1.439144
v -0.258304 0.116879 -1.439144
v 0.000000 0.415840 0.168705
v 0.000000 0.386049 0.168705
v 0.000000 0.386046 0.339333
v 0.000000 0.415835 0.339154
v 0.000000 0.510385 0.268860
v 0.000000 0.510397 0.338584
v 0.000000 0.566765 0.281733
v 0.000000 0.566777 0.335344
v 0.000000 1.588916 0.281533
v 0.000000 1.588928 0.335144
v 0.000000 1.543750 0.335153
v 0.000000 1.543738 0.281542
v 0.000000 1.288436 0.281594
v 0.000000 1.288447 0.335205
v 0.000000 1.258128 0.335209
v 0.000000 1.258116 0.281598
v 0.000000 1.416100 0.281568
v 0.000000 1.416108 0.335179
v 0.000000 1.432818 0.281563
v 0.000000 1.432825 0.335174
v 0.000000 1.588921 0.307926
vn 0.8807 0.4737 -0.0000
vn 0.8883 0.4593 -0.0000
vn -0.0000 -0.0000 1.0000
vn -0.8807 0.4737 -0.0000
vn -0.8883 0.4593 -0.0000
vn -0.0000 -0.0000 -1.0000
vn -0.0000 -1.0000 -0.0000
vn 0.1857 0.9826 -0.0000
vn 0.3649 0.9310 -0.0000
vn -1.0000 0.0003 -0.0000
vn 1.0000 0.0022 -0.0000
vn -0.0000 1.0000 -0.0000
vn -0.1857 0.9826 -0.0000
vn -1.0000 0.0005 -0.0000
vn -0.8514 0.5246 -0.0000
vn -0.8623 0.5064 -0.0000
vn 0.8516 0.5242 -0.0000
vn 0.8624 0.5062 -0.0000
vn -0.9631 0.2693 -0.0000
vn 0.9631 0.2693 -0.0000
vn 0.7035 0.0011 -0.7107
vn 0.7035 -0.0016 -0.7107
vn 1.0000 -0.0029 -0.0000
vn -0.7035 -0.0001 -0.7107
vn -0.7035 0.0007 -0.7107
vn -0.3649 0.9310 -0.0000
vn 0.1359 -0.9907 -0.0000
vn 0.0905 -0.9959 -0.0000
vn 0.2693 -0.9631 -0.0000
vn -0.0905 -0.9959 -0.0000
vn -0.0000 0.0060 1.0000
vn -0.1359 -0.9907 -0.0000
vn -0.1358 -0.9907 -0.0000
vn -0.2693 -0.9631 -0.0000
vn -0.2693 0.9631 -0.0000
vn 0.2693 0.9631 -0.0000
vn 0.9631 -0.2693 -0.0000
vn -0.9631 -0.2693 -0.0000
vn -0.8788 0.4772 -0.0000
vn -0.9220 0.3871 -0.0000
vn -0.9228 0.3853 -0.0000
vn -0.0000 0.2226 -0.9749
vn -0.0000 0.1213 -0.9926
vn -0.0000 0.1119 -0.9937
vn 0.8788 0.4772 -0.0000
vn 0.9121 0.4099 -0.0000
vn 0.9228 0.3853 -0.0000
vn -0.0000 0.7272 -0.6864
vn -0.0000 0.0256 0.9997
vn -0.0000 0.0317 0.9995
vn -0.0000 -0.0002 -1.0000
vn -0.9889 0.1488 -0.0000
vn -0.9892 0.1463 -0.0000
vn -0.0000 0.0312 0.9995
vn -0.0000 0.0288 0.9996
vn 0.9878 0.1557 -0.0000
vn 0.9892 0.1463 -0.0000
vn -0.0000 1.0000 -0.0002
vn 0.0001 -0.0002 -1.0000
vn -0.0000 0.0002 1.0000
vn 1.0000 -0.0000 -0.0000
vn -1.0000 -0.0000 -0.0000
vn -0.4792 0.8777 -0.0002
vn -0.0000 -0.0003 -1.0000
vn -0.0000 0.0003 1.0000
vn -0.5343 -0.8453 0.0002
vn -0.5613 -0.8276 0.0002
vn -0.6223 0.7827 -0.0002
vn 0.5343 -0.8453 0.0002
vn 0.5613 -0.8276 0.0002
vn -0.0001 -0.0002 -1.0000
vn 0.0001 0.0002 1.0000
vn -0.0001 0.0002 1.0000
vn -0.0000 -1.0000 0.0002
vn 0.5068 -0.8620 0.0002
vn 0.4792 0.8777 -0.0002
vn -0.5068 -0.8620 0.0002
vn -0.0001 -0.0003 -1.0000
vn 0.6223 0.7827 -0.0002
vn 0.0001 0.0003 1.0000
vn -0.0001 0.0003 1.0000
vn 0.0001 -0.0003 -1.0000
vn -0.9993 0.0384 -0.0000
vn 0.9993 0.0384 -0.0000
vn 0.1681 0.9858 -0.0001
vn 0.3315 0.9435 -0.0001
vn -0.1681 -0.9858 0.0001
vn -0.3315 -0.9435 0.0001
vn -0.0000 -1.0000 0.0001
vn -0.0000 1.0000 -0.0001
vn 0.1358 -0.9907 -0.0000
vn -0.0000 -0.9506 0.3103
vn -0.0000 -0.8436 0.5369
vn -0.0000 -0.8447 0.5352
vn -0.0000 -0.4777 -0.8785
vn -0.0000 -0.8419 -0.5396
vn -0.0000 -0.4752 -0.8799
vn -0.0000 -0.8409 -0.5413
vn -0.0000 -0.4773 0.8787
vn -0.0000 -0.4747 0.8801
vn -0.0000 -0.9477 -0.3190
vn -0.9878 0.1557 -0.0000
vn 0.9889 0.1488 -0.0000
vn 0.9220 0.3871 -0.0000
vn -0.9121 0.4099 -0.0000
vn -0.0000 0.4799 0.8773
vn -0.0000 0.0019 1.0000
vn -0.0000 0.4803 -0.8771
vn -0.0000 0.0018 -1.0000
vn -0.0000 0.4773 0.8787
vn -0.0000 0.4777 -0.8785
vn -0.0000 0.6887 -0.7251
vn -0.0000 0.6896 0.7242
vn -0.0000 0.6857 -0.7278
vn -0.0000 0.6866 0.7270
vn -0.0001 -0.0000 -1.0000
vn 0.0001 -0.0000 -1.0000
vn 1.0000 -0.0003 -0.0000
vn 0.0008 -0.0000 1.0000
vn -1.0000 -0.0022 -0.0000
vn -0.0008 -0.0000 1.0000
vn -1.0000 0.0029 -0.0000
vn 1.0000 -0.0005 -0.0000
vn 1.0000 0.0010 -0.0000
vn 1.0000 0.0020 -0.0000
vn -1.0000 0.0009 -0.0000
vn -1.0000 0.0019 -0.0000
vn -1.0000 -0.0003 -0.0000
vn -1.0000 -0.0006 -0.0000
vn 1.0000 -0.0016 -0.0000
vn 1.0000 -0.0032 -0.0000
vn 0.0005 -1.0000 -0.0000
vn 0.0005 -0.9876 -0.1571
vn -0.0000 0.0003 -1.0000
vn -0.0005 1.0000 -0.0000
vn -0.0005 0.9876 0.1572
vn 0.0003 1.0000 -0.0000
vn 0.0003 0.9876 0.1571
vn -0.0000 -0.0003 1.0000
vn -0.0003 -1.0000 -0.0000
vn -0.0003 -0.9876 -0.1572
vn -0.0003 -0.9876 0.1572
vn 0.0003 0.9876 -0.1571
vn -0.0005 0.9876 -0.1572
vn 0.0005 -0.9876 0.1571
vt 0.320462 0.563357
vt 0.215319 0.623455
vt 0.185974 0.573274
vt 0.290796 0.511771
vt 0.267297 0.844127
vt 0.165745 0.772291
vt 0.185842 0.768541
vt 0.289982 0.830201
vt 0.215297 0.718538
vt 0.320140 0.779009
vt 0.320878 0.590353
vt 0.211038 0.641891
vt 0.467256 0.780919
vt 0.467156 0.816634
vt 0.407061 0.816463
vt 0.407165 0.780155
vt 0.155401 0.640541
vt 0.156558 0.619106
vt 0.655133 0.729276
vt 0.655133 0.754869
vt 0.615395 0.754869
vt 0.615395 0.729276
vt 0.371556 0.879367
vt 0.349608 0.866006
vt 0.380369 0.815474
vt 0.402318 0.828836
vt 0.493358 0.779768
vt 0.493257 0.816697
vt 0.402721 0.513928
vt 0.380819 0.527080
vt 0.350539 0.476655
vt 0.372441 0.463503
vt 0.467599 0.597603
vt 0.493694 0.600056
vt 0.493628 0.671453
vt 0.467554 0.671410
vt 0.407272 0.743848
vt 0.381185 0.743632
vt 0.381655 0.671269
vt 0.407627 0.671318
vt 0.155790 0.692175
vt 0.155154 0.671481
vt 0.211052 0.671001
vt 0.211163 0.690204
vt 0.407502 0.598807
vt 0.321230 0.724624
vt 0.321746 0.671164
vt 0.245647 0.483620
vt 0.157013 0.563882
vt 0.139439 0.552807
vt 0.200834 0.455380
vt 0.320625 0.752025
vt 0.211119 0.699929
vt 0.156322 0.702780
vt 0.004119 0.679224
vt 0.004119 0.653630
vt 0.043858 0.653630
vt 0.043858 0.679224
vt 0.493456 0.742844
vt 0.467356 0.745209
vt 0.200119 0.885933
vt 0.139439 0.788709
vt 0.156977 0.777764
vt 0.244838 0.858022
vt 0.268128 0.497687
vt 0.165800 0.569419
vt 0.467619 0.561877
vt 0.407518 0.562460
vt 0.493720 0.563140
vt 0.381409 0.598868
vt 0.155171 0.650717
vt 0.211101 0.651709
vt 0.321404 0.617724
vt 0.339458 0.671195
vt 0.339160 0.612395
vt 0.536395 0.582280
vt 0.536369 0.612030
vt 0.536294 0.671525
vt 0.536167 0.731016
vt 0.380566 0.779741
vt 0.338403 0.759744
vt 0.338976 0.730016
vt 0.380912 0.562791
vt 0.338679 0.582681
vt 0.338276 0.553041
vt 0.307446 0.840339
vt 0.337891 0.789366
vt 0.536093 0.760763
vt 0.536015 0.790510
vt 0.308360 0.501764
vt 0.283598 0.486671
vt 0.259060 0.471381
vt 0.663371 0.643683
vt 0.663371 0.625365
vt 0.680299 0.625365
vt 0.680299 0.643683
vt 0.663371 0.508691
vt 0.663371 0.490372
vt 0.680299 0.490373
vt 0.680299 0.508691
vt 0.282643 0.855194
vt 0.093986 0.556914
vt 0.093962 0.582507
vt 0.043858 0.582430
vt 0.043858 0.556837
vt 0.565290 0.851835
vt 0.565266 0.826241
vt 0.615395 0.826136
vt 0.615395 0.851730
vt 0.655133 0.826136
vt 0.655133 0.851730
vt 0.004149 0.618030
vt 0.004119 0.582430
vt 0.079116 0.618030
vt 0.004119 0.556837
vt 0.655103 0.693675
vt 0.580136 0.693675
vt 0.004149 0.714858
vt 0.079116 0.714858
vt 0.655103 0.790503
vt 0.580136 0.790503
vt 0.004149 0.521203
vt 0.079116 0.521203
vt 0.093962 0.653612
vt 0.093987 0.679206
vt 0.493745 0.526219
vt 0.536418 0.552530
vt 0.467640 0.526146
vt 0.407537 0.526113
vt 0.655103 0.887330
vt 0.580136 0.887330
vt 0.565266 0.754881
vt 0.565290 0.729287
vt 0.258126 0.870278
vt 0.157874 0.722954
vt 0.723060 0.539236
vt 0.695252 0.541424
vt 0.693658 0.520644
vt 0.723111 0.519115
vt 0.742560 0.553578
vt 0.739527 0.577126
vt 0.739495 0.577106
vt 0.742534 0.553596
vt 0.663371 0.567028
vt 0.680299 0.567028
vt 0.663371 0.436968
vt 0.680299 0.436968
vt 0.663371 0.697087
vt 0.680299 0.697087
vt 0.833851 0.082274
vt 0.851492 0.082274
vt 0.851492 0.135678
vt 0.833851 0.140611
vt 0.833851 0.023937
vt 0.851492 0.028869
vt 0.688537 0.821747
vt 0.688537 0.768343
vt 0.748272 0.768343
vt 0.748272 0.821747
vt 0.721032 0.599484
vt 0.739592 0.603253
vt 0.739568 0.603271
vt 0.721034 0.599509
vt 0.839391 0.004119
vt 0.857033 0.009051
vt 0.873372 0.959974
vt 0.873372 0.906570
vt 0.933107 0.906570
vt 0.933107 0.959974
vt 0.720294 0.681076
vt 0.719756 0.662329
vt 0.750419 0.660359
vt 0.751580 0.679362
vt 0.722740 0.500416
vt 0.754738 0.499960
vt 0.755067 0.519460
vt 0.061588 0.854655
vt 0.079230 0.859588
vt 0.073689 0.879405
vt 0.056047 0.874473
vt 0.719751 0.642270
vt 0.748196 0.639339
vt 0.079230 0.742914
vt 0.061588 0.747846
vt 0.056047 0.728028
vt 0.073689 0.723096
vt 0.857033 0.155496
vt 0.839391 0.160429
vt 0.014505 0.739643
vt 0.020045 0.759461
vt 0.009660 0.762365
vt 0.004119 0.742547
vt 0.722048 0.725923
vt 0.753576 0.724464
vt 0.754036 0.735739
vt 0.722524 0.737196
vt 0.720049 0.422635
vt 0.751794 0.421446
vt 0.752571 0.443101
vt 0.720839 0.444239
vt 0.723524 0.758714
vt 0.692910 0.760105
vt 0.691934 0.738572
vt 0.020045 0.843041
vt 0.014505 0.862858
vt 0.004119 0.859955
vt 0.009660 0.840137
vt 0.721280 0.455548
vt 0.690665 0.456742
vt 0.690211 0.445443
vt 0.898574 0.143882
vt 0.893034 0.124064
vt 0.903419 0.121160
vt 0.908960 0.140978
vt 0.893034 0.040484
vt 0.898574 0.020666
vt 0.908960 0.023570
vt 0.903419 0.043388
vt 0.873373 0.821645
vt 0.932858 0.821646
vt 0.932857 0.863436
vt 0.873372 0.863434
vt 0.009660 0.801251
vt 0.020045 0.801251
vt 0.748022 0.864881
vt 0.688537 0.864883
vt 0.692601 0.501796
vt 0.893034 0.082274
vt 0.903419 0.082274
vt 0.101033 0.004119
vt 0.131201 0.004119
vt 0.131002 0.041631
vt 0.118661 0.041629
vt 0.611762 0.052150
vt 0.632756 0.052149
vt 0.626812 0.072317
vt 0.611762 0.072317
vt 0.034287 0.004119
vt 0.063541 0.004119
vt 0.028626 0.041627
vt 0.016659 0.041629
vt 0.611761 0.004119
vt 0.650659 0.004119
vt 0.757074 0.004120
vt 0.795972 0.004119
vt 0.778068 0.037096
vt 0.757074 0.037096
vt 0.611738 0.412926
vt 0.626805 0.412922
vt 0.626794 0.428681
vt 0.611735 0.428683
vt 0.129872 0.062165
vt 0.120383 0.062163
vt 0.772124 0.056790
vt 0.757075 0.056790
vt 0.024138 0.062161
vt 0.014937 0.062163
vt 0.120292 0.512963
vt 0.111090 0.512960
vt 0.111094 0.497915
vt 0.120295 0.497918
vt 0.596715 0.313407
vt 0.596717 0.323979
vt 0.554104 0.347249
vt 0.551578 0.339954
vt 0.757050 0.397403
vt 0.772118 0.397400
vt 0.772107 0.413159
vt 0.757047 0.413160
vt 0.596680 0.412925
vt 0.596684 0.428678
vt 0.551580 0.428695
vt 0.551576 0.412955
vt 0.648903 0.646768
vt 0.655133 0.646768
vt 0.655131 0.685437
vt 0.648901 0.685437
vt 0.757058 0.358773
vt 0.772027 0.358827
vt 0.621965 0.646767
vt 0.628195 0.646767
vt 0.628197 0.685437
vt 0.621967 0.685437
vt 0.611746 0.374297
vt 0.626714 0.374352
vt 0.611762 0.313406
vt 0.626814 0.313407
vt 0.626812 0.323981
vt 0.611759 0.323978
vt 0.015025 0.497918
vt 0.005537 0.497920
vt 0.005526 0.452788
vt 0.015015 0.452786
vt 0.757074 0.297882
vt 0.772127 0.297883
vt 0.772125 0.308458
vt 0.757072 0.308454
vt 0.642673 0.596434
vt 0.636443 0.596434
vt 0.636438 0.547891
vt 0.642668 0.547891
vt 0.024186 0.303180
vt 0.014985 0.303182
vt 0.129824 0.303184
vt 0.120336 0.303182
vt 0.626805 0.368530
vt 0.611747 0.368481
vt 0.621965 0.596434
vt 0.628195 0.596434
vt 0.628196 0.640939
vt 0.621966 0.640939
vt 0.772118 0.353006
vt 0.757060 0.352956
vt 0.648903 0.596433
vt 0.655133 0.596434
vt 0.655132 0.640940
vt 0.648902 0.640940
vt 0.120330 0.355536
vt 0.129818 0.355538
vt 0.129817 0.365634
vt 0.120329 0.365632
vt 0.120305 0.452786
vt 0.111104 0.452784
vt 0.111105 0.442109
vt 0.120306 0.442111
vt 0.120327 0.374933
vt 0.129816 0.374935
vt 0.129798 0.433007
vt 0.120309 0.433005
vt 0.014991 0.355536
vt 0.024192 0.355534
vt 0.024193 0.365630
vt 0.014992 0.365632
vt 0.671946 0.339970
vt 0.669418 0.347265
vt 0.742028 0.297883
vt 0.742030 0.308455
vt 0.699416 0.331726
vt 0.696890 0.324430
vt 0.671923 0.412987
vt 0.671913 0.428730
vt 0.817260 0.324446
vt 0.814731 0.331742
vt 0.648902 0.436968
vt 0.655132 0.436968
vt 0.655132 0.482100
vt 0.648902 0.482100
vt 0.741992 0.397403
vt 0.741996 0.413155
vt 0.696892 0.413173
vt 0.696888 0.397433
vt 0.615735 0.596434
vt 0.609505 0.596434
vt 0.609510 0.547891
vt 0.615740 0.547891
vt 0.621967 0.436968
vt 0.628197 0.436968
vt 0.628197 0.482100
vt 0.621967 0.482100
vt 0.817236 0.397464
vt 0.817226 0.413207
vt 0.129795 0.442114
vt 0.015011 0.433005
vt 0.024212 0.433003
vt 0.024216 0.442109
vt 0.015014 0.442111
vt 0.024194 0.374931
vt 0.014993 0.374933
vt 0.680299 0.345640
vt 0.680295 0.354940
vt 0.005526 0.442114
vt 0.688539 0.339395
vt 0.688537 0.330097
vt 0.680275 0.412991
vt 0.680270 0.422094
vt 0.825612 0.330117
vt 0.825608 0.339416
vt 0.688539 0.406535
vt 0.688537 0.397434
vt 0.825588 0.397468
vt 0.825583 0.406572
vt 0.543227 0.422058
vt 0.543225 0.412956
vt 0.543227 0.354919
vt 0.543225 0.345621
vt 0.636442 0.482099
vt 0.642672 0.482099
vt 0.609507 0.482100
vt 0.615737 0.482100
vt 0.655128 0.547891
vt 0.648898 0.547891
vt 0.636442 0.436968
vt 0.642672 0.436968
vt 0.636442 0.640939
vt 0.642672 0.640939
vt 0.642673 0.646767
vt 0.636443 0.646767
vt 0.108600 0.533522
vt 0.114323 0.533418
vt 0.114429 0.547136
vt 0.107910 0.546997
vt 0.642671 0.685437
vt 0.636442 0.685437
vt 0.628200 0.547891
vt 0.621970 0.547891
vt 0.609507 0.436968
vt 0.615737 0.436968
vt 0.609506 0.640940
vt 0.615736 0.640940
vt 0.615735 0.646768
vt 0.609505 0.646768
vt 0.615737 0.685437
vt 0.609507 0.685437
vt 0.103986 0.554724
vt 0.102225 0.548646
vt 0.109671 0.553075
vt 0.119916 0.534503
vt 0.126319 0.534706
vt 0.126233 0.549051
vt 0.119865 0.549012
vt 0.103017 0.534417
vt 0.102225 0.521623
vt 0.108097 0.521259
vt 0.114589 0.521203
vt 0.120686 0.521454
vt 0.127019 0.521797
vt 0.688537 0.640387
vt 0.692385 0.590371
vt 0.703426 0.604346
vt 0.700617 0.627962
vt 0.721149 0.590672
vt 0.750335 0.590800
vt 0.737766 0.626954
vt 0.719878 0.632419
vt 0.705543 0.554173
vt 0.703387 0.577762
vt 0.754572 0.541600
vt 0.723141 0.549007
vt 0.721634 0.581829
vt 0.810127 0.759962
vt 0.773842 0.746826
vt 0.800350 0.734004
vt 0.823912 0.738237
vt 0.876789 0.560795
vt 0.852921 0.570954
vt 0.855452 0.555707
vt 0.862824 0.537107
vt 0.703458 0.604365
vt 0.700642 0.627944
vt 0.703411 0.577744
vt 0.721632 0.581804
vt 0.737734 0.626935
vt 0.719875 0.632393
vt 0.723143 0.549033
vt 0.705575 0.554192
vt 0.823992 0.538168
vt 0.823400 0.516513
vt 0.862232 0.515452
vt 0.862723 0.737180
vt 0.823323 0.716593
vt 0.862133 0.715536
vt 0.852810 0.770937
vt 0.833723 0.769902
vt 0.831001 0.754949
vt 0.855355 0.755762
vt 0.810162 0.560041
vt 0.773843 0.546982
vt 0.800424 0.533950
vt 0.833803 0.569922
vt 0.831090 0.554890
vt 0.822591 0.689721
vt 0.861402 0.688664
vt 0.876641 0.760714
vt 0.822662 0.489512
vt 0.861494 0.488450
vt 0.913888 0.748563
vt 0.887659 0.734146
vt 0.914061 0.548718
vt 0.887766 0.534082
vt 0.005504 0.374935
vt 0.005522 0.433007
vt 0.024216 0.452784
vt 0.005503 0.365634
vt 0.111127 0.365630
vt 0.111126 0.374931
vt 0.111108 0.433003
vt 0.111134 0.303180
vt 0.111128 0.355534
vt 0.129784 0.497920
vt 0.129794 0.452788
vt 0.005496 0.303185
vt 0.005502 0.355538
vt 0.111182 0.062161
vt 0.005448 0.062165
vt 0.024227 0.497916
vt 0.129780 0.512965
vt 0.004319 0.041631
vt 0.106694 0.041627
vt 0.004119 0.004119
vt 0.071779 0.004119
vt 0.753048 0.454454
vt 0.689441 0.682070
vt 0.691426 0.727286
vt 0.755067 0.757253
vt 0.689353 0.423843
vt 0.688808 0.662677
vt 0.922318 0.589527
vt 0.883182 0.594498
vt 0.881837 0.577223
vt 0.923686 0.568269
vt 0.832206 0.591586
vt 0.802909 0.593794
vt 0.804735 0.576311
vt 0.833940 0.580396
vt 0.821562 0.449280
vt 0.860394 0.448218
vt 0.860940 0.468181
vt 0.822108 0.469243
vt 0.854411 0.592574
vt 0.852707 0.581399
vt 0.763610 0.587262
vt 0.763305 0.565918
vt 0.832089 0.791569
vt 0.802803 0.793686
vt 0.804694 0.776079
vt 0.833847 0.780295
vt 0.922239 0.789350
vt 0.883103 0.794399
vt 0.881699 0.776995
vt 0.923523 0.767911
vt 0.854335 0.792555
vt 0.852606 0.781299
vt 0.821496 0.649510
vt 0.860307 0.648453
vt 0.860854 0.668559
vt 0.822043 0.669616
vt 0.763511 0.787073
vt 0.763305 0.765556
vt 0.883061 0.613342
vt 0.862321 0.611903
vt 0.802215 0.613342
vt 0.780078 0.611201
vt 0.824130 0.612978
vt 0.820831 0.422507
vt 0.859662 0.421446
vt 0.904800 0.612395
vt 0.802068 0.813406
vt 0.779919 0.811230
vt 0.862255 0.812010
vt 0.824005 0.813095
vt 0.820764 0.622638
vt 0.859575 0.621581
vt 0.883013 0.813406
vt 0.904763 0.812431
vt 0.025750 0.887644
vt 0.039206 0.897077
vt 0.027789 0.923672
vt 0.013251 0.901637
vt 0.936190 0.020081
vt 0.951679 0.004119
vt 0.969754 0.021716
vt 0.955458 0.044964
vt 0.922669 0.027219
vt 0.930588 0.053577
vt 0.926577 0.241805
vt 0.926026 0.267522
vt 0.893938 0.267476
vt 0.898233 0.240198
vt 0.858841 0.194348
vt 0.885579 0.189954
vt 0.880037 0.211541
vt 0.867337 0.214597
vt 0.880291 0.287515
vt 0.856284 0.279903
vt 0.866009 0.263832
vt 0.878070 0.265546
vt 0.982490 0.435670
vt 0.969495 0.459567
vt 0.953496 0.433343
vt 0.966840 0.421445
vt 0.969384 0.691885
vt 0.983924 0.714902
vt 0.966292 0.732589
vt 0.950733 0.717053
vt 0.943984 0.683657
vt 0.937215 0.710313
vt 0.786818 0.852338
vt 0.811921 0.844505
vt 0.809567 0.867546
vt 0.796966 0.869189
vt 0.829038 0.893983
vt 0.826462 0.865843
vt 0.858031 0.868510
vt 0.857586 0.893879
vt 0.438193 0.004119
vt 0.473793 0.004119
vt 0.473793 0.447140
vt 0.438193 0.447142
vt 0.341332 0.004119
vt 0.376966 0.004119
vt 0.376966 0.447140
vt 0.341332 0.447142
vt 0.412599 0.004119
vt 0.412599 0.447142
vt 0.509393 0.004119
vt 0.509393 0.447142
vt 0.534987 0.004119
vt 0.534987 0.447142
vt 0.261894 0.004119
vt 0.297494 0.004119
vt 0.297494 0.447140
vt 0.261894 0.447142
vt 0.165033 0.004119
vt 0.200667 0.004119
vt 0.200667 0.447140
vt 0.165033 0.447142
vt 0.236301 0.004119
vt 0.236301 0.447142
vt 0.139439 0.004119
vt 0.139439 0.447142
vt 0.333094 0.004119
vt 0.333094 0.447142
vt 0.815101 0.942441
vt 0.789447 0.938268
vt 0.797640 0.921040
vt 0.810084 0.919832
vt 0.896986 0.211773
vt 0.886746 0.239558
vt 0.853099 0.261509
vt 0.849567 0.239026
vt 0.861566 0.239136
vt 0.853204 0.215658
vt 0.783895 0.919284
vt 0.779924 0.894676
vt 0.792395 0.894448
vt 0.817683 0.894180
vt 0.826027 0.920774
vt 0.783562 0.871553
vt 0.775616 0.937888
vt 0.962030 0.637197
vt 0.978052 0.640808
vt 0.986881 0.654280
vt 0.962870 0.649150
vt 0.827995 0.836508
vt 0.843289 0.277917
vt 0.902513 0.183955
vt 0.968837 0.060600
vt 0.941747 0.064674
vt 0.036585 0.980087
vt 0.019910 0.976134
vt 0.010997 0.962177
vt 0.035645 0.967516
vt 0.014821 0.939854
vt 0.004119 0.906104
vt 0.967951 0.115587
vt 0.964035 0.096206
vt 0.972991 0.082717
vt 0.979173 0.113321
vt 0.015554 0.995881
vt 0.004119 0.993359
vt 0.979173 0.026091
vt 0.943999 0.466135
vt 0.982881 0.475079
vt 0.955070 0.478549
vt 0.980786 0.531683
vt 0.977173 0.511654
vt 0.986693 0.497943
vt 0.992402 0.529588
vt 0.982637 0.676250
vt 0.993206 0.710470
vt 0.992402 0.439762
vt 0.982055 0.621581
vt 0.993206 0.623901
vt 0.935114 0.199351
vt 0.928673 0.218725
vt 0.831902 0.947979
vt 0.858448 0.916906
vt 0.863017 0.936843
vt 0.955591 0.672231
vt 0.820730 0.825423
vt 0.807640 0.830676
vt 0.773217 0.854447
vt 0.954228 0.635158
vt 0.951436 0.645857
vt 0.781471 0.839358
vt 0.862475 0.848607
vt 0.825455 0.821645
vt 0.832790 0.829656
vt 0.939038 0.439242
vt 0.931761 0.709038
vt 0.937437 0.685058
vt 0.936898 0.475350
vt 0.943303 0.484036
vt 0.960452 0.514932
vt 0.961703 0.502572
vt 0.772588 0.947621
vt 0.785932 0.951778
vt 0.812867 0.956449
vt 0.054933 0.900288
vt 0.053554 0.930729
vt 0.043552 0.987346
vt 0.035242 0.985134
vt 0.044896 0.982300
vt 0.843658 0.195014
vt 0.047926 0.970904
vt 0.042774 0.943144
vt 0.896891 0.171817
vt 0.883139 0.175235
vt 0.854948 0.179776
vt 0.896232 0.295602
vt 0.924324 0.062124
vt 0.930646 0.070259
vt 0.947914 0.099722
vt 0.948847 0.087738
vt 0.839210 0.286665
vt 0.851203 0.292263
vt 0.876032 0.300482
vt 0.928341 0.287302
vt 0.908436 0.177760
vt 0.937941 0.193705
vt 0.865134 0.841263
vt 0.955473 0.630396
vt 0.963275 0.632435
vt 0.060095 0.900413
vt 0.060398 0.927997
vt 0.902243 0.168667
vt 0.888064 0.305911
vt 0.900714 0.301987
vt 0.893204 0.310465
vt 0.347673 0.894178
vt 0.347663 0.903708
vt 0.344354 0.918670
vt 0.340476 0.894171
vt 0.923962 0.052714
vt 0.917198 0.028747
vt 0.257576 0.894171
vt 0.257576 0.903701
vt 0.254282 0.918666
vt 0.250380 0.894171
vt 0.930177 0.294019
vt 0.167538 0.894179
vt 0.167540 0.903709
vt 0.164259 0.918691
vt 0.160352 0.894181
vt 0.940065 0.101701
vt 0.949127 0.104530
vt 0.941278 0.106510
vt 0.283192 0.976681
vt 0.283202 0.967151
vt 0.286516 0.952197
vt 0.290394 0.976688
vt 0.952283 0.516800
vt 0.961588 0.519896
vt 0.953418 0.521764
vt 0.373257 0.903734
vt 0.376522 0.918728
vt 0.865134 0.942192
vt 0.837295 0.954159
vt 0.861933 0.318736
vt 0.861943 0.328266
vt 0.858678 0.343259
vt 0.854754 0.318744
vt 0.937264 0.463949
vt 0.934493 0.439923
vt 0.373257 0.967158
vt 0.347663 0.967158
vt 0.344378 0.952177
vt 0.376547 0.952185
vt 0.826210 0.959689
vt 0.831200 0.962733
vt 0.257608 0.967125
vt 0.254347 0.952124
vt 0.229477 0.918689
vt 0.229512 0.952146
vt 0.890846 0.343203
vt 0.890815 0.376660
vt 0.858647 0.376766
vt 0.286450 0.918690
vt 0.833851 0.343262
vt 0.833851 0.376769
vt 0.401359 0.952179
vt 0.401350 0.918722
vt 0.196427 0.918675
vt 0.196411 0.952132
vt 0.164243 0.952199
vt 0.139439 0.918693
vt 0.139439 0.952200
vt 0.887589 0.401194
vt 0.887570 0.391664
vt 0.894763 0.401180
vt 0.373257 0.976688
vt 0.380448 0.976688
vt 0.887537 0.328240
vt 0.193163 0.976656
vt 0.193151 0.967126
vt 0.200342 0.976647
vt 0.861976 0.391716
vt 0.193134 0.903703
vt 0.283170 0.903701
vt 0.167557 0.967159
vt 0.373267 0.894204
vt 0.380446 0.894212
vt 0.193131 0.894173
vt 0.200322 0.894171
vt 0.319559 0.952182
vt 0.319550 0.918675
vt 0.221239 0.918674
vt 0.221239 0.952131
vt 0.931924 0.472086
vt 0.766673 0.945781
vt 0.769701 0.936048
vt 0.347663 0.976688
vt 0.340478 0.976688
vt 0.167569 0.976689
vt 0.160372 0.976699
vt 0.767621 0.857081
vt 0.763305 0.847913
vt 0.768902 0.845279
vt 0.949725 0.505597
vt 0.932972 0.676982
vt 0.937887 0.674265
vt 0.944503 0.666380
vt 0.257598 0.976655
vt 0.250424 0.976647
vt 0.311278 0.918667
vt 0.311312 0.952174
vt 0.915651 0.343200
vt 0.915651 0.376657
vt 0.283170 0.894171
vt 0.290349 0.894171
vt 0.861995 0.401246
vt 0.854793 0.401261
vt 0.833851 0.284166
vt 0.837930 0.275417
vt 0.887527 0.318710
vt 0.894724 0.318703
vt 0.920568 0.059955
vt 0.066120 0.936315
vt 0.061031 0.939816
vt 0.937355 0.090937
vt 0.054539 0.948679
vt 0.840327 0.184349
vt 0.837182 0.197037
vt 0.833851 0.186372
vt 0.015029 0.512963
vt 0.005540 0.512965
vt 0.742008 0.353007
vt 0.742097 0.358814
vt 0.596696 0.368532
vt 0.596784 0.374339
vt 0.596713 0.072317
vt 0.742025 0.056790
vt 0.024230 0.512960
vt 0.736080 0.037097
vt 0.718176 0.004120
vt 0.572864 0.004120
vt 0.590768 0.052150
vt 0.748023 0.906671
vt 0.688538 0.906672
s 1
f 41/1/1 2/2/2 4/3/2 42/4/1
f 80/5/3 71/6/3 8/7/3 43/8/3
f 43/8/4 8/7/5 6/9/5 44/10/4
f 68/11/6 60/12/6 2/2/6 41/1/6
f 74/13/7 7/14/7 5/15/7 72/16/7
f 62/17/8 4/18/9 2/2/9 60/12/8
f 349/19/10 347/20/10 51/21/10 52/22/10
f 7/23/10 11/24/10 12/25/10 5/26/10
f 74/13/3 73/27/3 11/28/3 7/14/3
f 1/29/11 9/30/11 10/31/11 3/32/11
f 25/33/3 30/34/3 18/35/3 13/36/3
f 20/37/6 24/38/6 17/39/6 15/40/6
f 19/41/12 14/42/12 16/43/12 23/44/12
f 25/33/7 13/36/7 15/40/7 29/45/7
f 47/46/6 23/44/6 16/43/6 45/47/6
f 49/48/3 28/49/3 14/50/3 46/51/3
f 79/52/6 75/53/6 23/44/6 47/46/6
f 71/54/13 19/41/12 23/44/12 75/53/13
f 354/55/14 351/56/14 56/57/14 58/58/14
f 13/36/3 18/35/3 21/59/3 22/60/3
f 13/36/7 22/60/7 20/37/7 15/40/7
f 46/61/3 14/62/3 19/63/3 48/64/3
f 67/65/3 62/66/3 28/49/3 49/48/3
f 59/67/7 25/33/7 29/45/7 63/68/7
f 59/67/3 64/69/3 30/34/3 25/33/3
f 15/40/6 17/39/6 27/70/6 29/45/6
f 14/42/12 28/71/12 26/72/12 16/43/12
f 45/47/6 16/43/6 26/72/6 50/73/6
f 17/39/6 35/74/6 40/75/6 27/70/6
f 64/69/3 65/76/3 39/77/3 30/34/3
f 18/35/3 36/78/3 38/79/3 21/59/3
f 76/80/6 77/81/6 37/82/6 24/38/6
f 30/34/3 39/77/3 36/78/3 18/35/3
f 24/38/6 37/82/6 35/74/6 17/39/6
f 61/83/6 66/84/6 31/85/6 9/30/6
f 11/24/15 33/86/16 34/87/16 12/25/15
f 73/27/3 78/88/3 33/89/3 11/28/3
f 9/30/17 31/85/18 32/90/18 10/31/17
f 35/74/6 45/47/6 50/73/6 40/75/6
f 65/91/3 67/65/3 49/48/3 39/92/3
f 48/93/19 38/94/19 86/95/19 85/96/19
f 77/81/6 79/52/6 47/46/6 37/82/6
f 39/97/20 49/98/20 87/99/20 88/100/20
f 37/82/6 47/46/6 45/47/6 35/74/6
f 66/84/6 68/11/6 41/1/6 31/85/6
f 33/86/16 43/8/4 44/10/4 34/87/16
f 78/101/3 80/5/3 43/8/3 33/86/3
f 31/85/18 41/1/1 42/4/1 32/90/18
f 70/102/21 69/103/21 55/104/21 54/105/21
f 81/106/22 82/107/22 57/108/22 53/109/22
f 348/110/23 345/111/23 53/109/23 57/108/23
f 350/112/12 355/113/12 55/104/12 69/114/12
f 355/113/11 353/115/11 54/105/11 55/104/11
f 344/116/7 349/19/7 52/22/7 81/117/7
f 352/118/7 354/55/7 58/58/7 70/119/7
f 346/120/12 348/110/12 57/108/12 82/121/12
f 353/115/7 352/122/7 70/123/7 54/105/7
f 351/56/12 350/112/12 69/114/12 56/57/12
f 58/58/24 56/57/24 69/124/24 70/125/24
f 40/75/6 50/73/6 68/11/6 66/84/6
f 32/90/3 42/4/3 67/65/3 65/91/3
f 27/70/6 40/75/6 66/84/6 61/83/6
f 10/126/3 32/127/3 65/76/3 64/69/3
f 3/128/3 10/126/3 64/69/3 59/67/3
f 3/128/7 59/67/7 63/68/7 1/129/7
f 42/4/3 4/3/3 62/66/3 67/65/3
f 28/71/12 62/17/8 60/12/8 26/72/12
f 50/73/6 26/72/6 60/12/6 68/11/6
f 347/20/12 346/120/12 82/121/12 51/21/12
f 345/111/7 344/130/7 81/131/7 53/109/7
f 52/22/25 51/21/25 82/132/25 81/133/25
f 38/134/3 48/64/3 80/5/3 78/101/3
f 34/87/6 44/10/6 79/52/6 77/81/6
f 21/59/3 38/79/3 78/88/3 73/27/3
f 12/25/6 34/87/6 77/81/6 76/80/6
f 8/135/26 71/54/13 75/53/13 6/9/26
f 44/10/6 6/9/6 75/53/6 79/52/6
f 22/60/3 21/59/3 73/27/3 74/13/3
f 22/60/7 74/13/7 72/16/7 20/37/7
f 48/64/3 19/63/3 71/6/3 80/5/3
f 241/136/27 88/137/28 98/138/29 245/139/29
f 221/140/12 222/141/12 229/142/12 230/143/12
f 36/144/7 39/97/7 88/100/28 84/145/7
f 49/98/12 46/146/12 83/147/12 87/99/12
f 38/94/7 36/144/7 84/145/7 86/95/30
f 46/148/12 48/93/12 85/96/12 83/149/12
f 90/150/31 89/151/31 91/152/31 92/153/31
f 94/154/31 93/155/31 89/151/31 90/150/31
f 87/156/12 83/157/12 89/158/12 93/159/12
f 273/160/12 217/161/12 226/162/12 277/163/12
f 93/155/31 94/154/31 102/164/31 101/165/31
f 83/166/12 85/167/12 91/168/12 89/169/12
f 243/170/19 242/171/19 100/172/19 99/173/19
f 245/139/20 244/174/20 101/175/20 102/176/20
f 85/177/6 86/178/6 96/179/6 95/180/6
f 240/181/32 92/182/33 100/172/34 242/171/34
f 88/183/6 87/184/6 97/185/6 98/186/6
f 92/153/31 91/152/31 99/187/31 100/188/31
f 116/189/6 115/190/6 106/191/6 110/192/6
f 250/193/19 111/194/19 107/195/19 248/196/19
f 247/197/35 105/198/35 109/199/35 249/200/35
f 246/201/36 104/202/36 108/203/36 248/196/36
f 113/204/6 112/205/6 108/206/6 104/207/6
f 251/208/20 116/209/20 110/210/20 249/200/20
f 111/211/31 114/212/31 103/213/31 107/214/31
f 118/215/31 117/216/31 109/217/31 105/218/31
f 465/219/7 466/220/7 114/221/7 113/222/7
f 464/223/6 465/224/6 113/204/6 104/207/6
f 91/168/37 85/167/37 113/222/37 114/221/37
f 99/187/31 91/152/31 114/212/31 111/211/31
f 85/177/6 95/180/6 112/205/6 113/204/6
f 243/170/19 99/173/19 111/194/19 250/193/19
f 87/156/38 93/159/38 118/225/38 115/226/38
f 93/155/31 101/165/31 117/216/31 118/215/31
f 244/174/20 97/227/20 116/209/20 251/208/20
f 97/185/6 87/184/6 115/190/6 116/189/6
f 466/228/31 467/229/31 103/213/31 114/212/31
f 246/230/39 103/231/39 119/232/40 252/233/41
f 468/234/42 120/235/42 124/236/43 470/237/44
f 247/238/45 106/239/45 122/240/46 253/241/47
f 464/242/48 104/243/48 120/235/48 468/234/48
f 467/244/31 105/245/31 121/246/49 469/247/50
f 475/248/51 131/249/51 128/250/51 472/251/51
f 252/233/41 119/232/40 123/252/52 254/253/53
f 469/247/50 121/246/49 125/254/54 471/255/55
f 253/241/47 122/240/46 126/256/56 255/257/57
f 484/258/58 472/259/58 128/260/58 256/261/58
f 139/262/51 135/263/51 165/264/59 166/265/59
f 474/266/60 134/267/60 129/268/60 473/269/60
f 132/270/51 130/271/51 154/272/51 158/273/51
f 189/274/61 150/275/61 132/276/61 183/277/61
f 483/278/60 149/279/60 134/267/60 474/266/60
f 201/280/62 148/281/62 133/282/62 195/283/62
f 482/284/51 147/285/51 131/249/51 475/248/51
f 479/286/51 140/287/51 136/288/51 476/289/51
f 257/290/58 129/291/58 153/292/58 261/293/58
f 478/294/60 142/295/60 138/296/60 477/297/60
f 186/298/63 138/299/63 164/300/63 194/301/63
f 255/257/57 126/256/56 139/302/61 258/303/61
f 471/255/55 125/254/54 142/295/60 478/294/60
f 254/253/53 123/252/52 141/304/62 259/305/62
f 470/237/44 124/236/43 140/287/51 479/286/51
f 476/289/51 136/288/51 143/306/64 480/307/64
f 197/308/62 137/309/62 144/310/62 199/311/62
f 477/297/60 138/296/60 145/312/65 481/313/65
f 185/314/61 135/315/61 146/316/61 187/317/61
f 480/307/64 143/306/64 147/285/51 482/284/51
f 199/311/62 144/310/62 148/281/62 201/280/62
f 481/313/65 145/312/65 149/279/60 483/278/60
f 187/317/61 146/316/61 150/275/61 189/274/61
f 263/318/66 161/319/66 177/320/67 271/321/67
f 260/322/68 152/323/68 168/324/68 264/325/68
f 268/326/62 178/327/62 172/328/62 267/329/62
f 262/330/69 166/331/69 182/332/70 270/333/70
f 136/288/51 140/287/51 159/334/71 160/335/71
f 141/336/60 137/337/60 162/338/72 161/339/72
f 128/250/51 131/249/51 155/340/51 152/341/51
f 138/296/60 142/295/60 163/342/73 164/343/73
f 183/344/74 132/345/74 158/346/74 191/347/74
f 258/303/75 139/302/75 166/331/69 262/330/69
f 133/348/60 127/349/60 151/350/60 156/351/60
f 198/352/76 136/353/76 160/354/76 206/355/76
f 195/356/74 133/357/74 156/358/74 203/359/74
f 129/268/60 134/267/60 157/360/60 153/361/60
f 256/261/58 128/260/58 152/323/58 260/322/58
f 259/305/77 141/304/77 161/319/66 263/318/66
f 267/329/62 172/328/62 167/362/62 264/325/62
f 266/363/61 174/364/61 170/365/61 265/366/61
f 271/321/62 177/320/62 178/327/62 268/326/62
f 270/333/61 182/332/61 181/367/61 269/368/61
f 160/335/71 159/334/71 175/369/71 176/370/78
f 261/293/79 153/292/79 169/371/79 265/366/79
f 161/339/72 162/338/72 178/372/80 177/373/72
f 152/341/51 155/340/51 171/374/64 168/375/59
f 164/343/73 163/342/73 179/376/73 180/377/81
f 156/351/60 151/350/60 167/378/73 172/379/65
f 160/335/71 176/370/78 171/374/64 155/340/51
f 153/361/60 157/360/60 173/380/65 169/381/72
f 269/368/61 181/367/61 174/364/61 266/363/61
f 158/273/51 154/272/51 170/382/71 174/383/64
f 166/265/59 165/264/59 181/384/82 182/385/59
f 164/343/73 180/377/81 173/380/65 157/360/60
f 181/384/82 165/264/59 158/273/51 174/383/64
f 194/301/83 164/300/83 157/386/83 192/387/83
f 178/372/80 162/338/72 156/351/60 172/379/65
f 206/355/84 160/354/84 155/388/84 204/389/84
f 165/390/83 193/391/83 191/347/83 158/346/83
f 193/391/83 194/301/83 192/387/83 191/347/83
f 134/392/74 184/393/74 192/387/74 157/386/74
f 184/393/74 183/344/74 191/347/74 192/387/74
f 145/394/61 188/395/61 190/396/61 149/397/61
f 212/398/85 211/399/85 210/400/86 209/401/86
f 138/299/61 186/298/61 188/395/61 145/394/61
f 186/298/61 185/314/61 187/317/61 188/395/61
f 135/315/63 185/314/63 193/391/63 165/390/63
f 185/314/63 186/298/63 194/301/63 193/391/63
f 149/397/61 190/396/61 184/402/61 134/403/61
f 190/396/61 189/274/61 183/277/61 184/402/61
f 162/404/84 205/405/84 203/359/84 156/358/84
f 205/405/84 206/355/84 204/389/84 203/359/84
f 131/406/74 196/407/74 204/389/74 155/388/74
f 196/407/74 195/356/74 203/359/74 204/389/74
f 137/309/76 197/308/76 205/405/76 162/404/76
f 197/308/76 198/352/76 206/355/76 205/405/76
f 143/408/62 200/409/62 202/410/62 147/411/62
f 200/409/62 199/311/62 201/280/62 202/410/62
f 136/353/62 198/352/62 200/409/62 143/408/62
f 198/352/62 197/308/62 199/311/62 200/409/62
f 147/411/62 202/410/62 196/412/62 131/413/62
f 202/410/62 201/280/62 195/283/62 196/412/62
f 208/414/61 207/415/61 209/401/61 210/416/61
f 214/417/87 213/418/87 207/419/88 208/420/88
f 211/399/65 214/417/80 208/420/80 210/400/80
f 213/421/78 212/398/64 209/401/78 207/415/78
f 187/422/64 189/423/64 212/398/64 213/421/78
f 190/424/65 188/425/65 214/417/80 211/399/65
f 188/425/89 187/426/89 213/418/87 214/417/87
f 189/423/90 190/424/90 211/399/85 212/398/85
f 86/427/30 84/428/7 216/429/7 215/430/7
f 239/431/7 90/432/7 217/161/7 273/160/7
f 90/432/7 92/182/33 218/433/7 217/161/7
f 240/181/32 86/427/30 215/430/7 272/434/7
f 84/428/7 88/137/28 220/435/7 219/436/7
f 241/136/27 94/437/91 221/140/7 275/438/7
f 94/437/91 90/432/7 222/141/7 221/140/7
f 239/431/7 84/428/7 219/436/7 274/439/7
f 317/440/61 314/441/61 238/442/61 283/443/61
f 305/444/62 302/445/62 232/446/62 280/447/62
f 215/430/12 216/429/12 223/448/12 224/449/12
f 274/439/12 219/436/12 228/450/12 278/451/12
f 217/161/12 218/433/12 225/452/12 226/162/12
f 272/434/12 215/430/12 224/449/12 276/453/12
f 275/438/12 221/140/12 230/143/12 279/454/12
f 219/436/12 220/435/12 227/455/12 228/450/12
f 280/447/92 281/456/92 234/457/93 233/458/93
f 282/459/92 283/443/92 238/460/94 237/461/94
f 319/462/95 318/463/95 235/464/96 236/465/96
f 304/466/61 303/467/61 234/468/61 281/456/61
f 302/445/97 307/469/97 231/470/98 232/446/98
f 314/471/99 315/472/99 237/461/94 238/460/94
f 316/473/62 319/462/62 236/465/62 282/459/62
f 303/474/100 306/475/100 233/458/93 234/457/93
f 315/476/62 316/473/62 282/459/62 237/477/62
f 307/469/61 304/466/61 281/456/61 231/470/61
f 236/465/96 235/464/96 283/443/101 282/459/101
f 232/446/98 231/470/98 281/456/101 280/447/101
f 220/435/12 275/438/12 279/454/12 227/455/12
f 218/433/12 272/434/12 276/453/12 225/452/12
f 222/141/12 274/439/12 278/451/12 229/142/12
f 306/478/62 305/444/62 280/447/62 233/479/62
f 318/463/61 317/440/61 283/443/61 235/464/61
f 90/432/7 239/431/7 274/439/7 222/141/7
f 88/137/28 241/136/27 275/438/7 220/435/7
f 92/182/33 240/181/32 272/434/7 218/433/7
f 84/428/7 239/431/7 273/160/7 216/429/7
f 180/480/61 269/368/61 266/363/61 173/481/61
f 154/482/79 261/293/79 265/366/79 170/365/79
f 179/483/61 270/333/61 269/368/61 180/480/61
f 175/484/62 271/321/62 268/326/62 176/485/62
f 173/481/61 266/363/61 265/366/61 169/371/61
f 171/486/62 267/329/62 264/325/62 168/324/62
f 140/487/77 259/305/77 263/318/66 159/488/66
f 127/489/58 256/261/58 260/322/58 151/490/58
f 142/491/75 258/303/75 262/330/69 163/492/69
f 163/492/69 262/330/69 270/333/70 179/483/70
f 176/485/62 268/326/62 267/329/62 171/486/62
f 151/490/68 260/322/68 264/325/68 167/362/68
f 159/488/66 263/318/66 271/321/67 175/484/67
f 124/493/102 254/253/53 259/305/62 140/487/62
f 125/494/103 255/257/57 258/303/61 142/491/61
f 130/495/58 257/290/58 261/293/58 154/482/58
f 473/496/58 484/258/58 256/261/58 127/489/58
f 121/497/104 253/241/47 255/257/57 125/494/103
f 120/498/105 252/233/41 254/253/53 124/493/102
f 105/499/45 247/238/45 253/241/47 121/497/104
f 104/500/39 246/230/39 252/233/41 120/498/105
f 101/175/20 244/174/20 251/208/20 117/501/20
f 95/502/19 243/170/19 250/193/19 112/503/19
f 117/501/20 251/208/20 249/200/20 109/199/20
f 103/504/36 246/201/36 248/196/36 107/195/36
f 106/505/35 247/197/35 249/200/35 110/210/35
f 112/503/19 250/193/19 248/196/19 108/203/19
f 86/427/30 240/181/32 242/171/34 96/506/34
f 98/138/20 97/227/20 244/174/20 245/139/20
f 95/502/19 96/506/19 242/171/19 243/170/19
f 216/429/12 273/160/12 277/163/12 223/448/12
f 94/437/91 241/136/27 245/139/29 102/176/29
f 296/507/62 301/508/62 289/509/62 285/510/62
f 297/511/61 300/512/61 288/513/61 287/514/61
f 299/515/106 296/516/106 285/517/107 286/518/107
f 298/519/108 297/511/108 287/514/109 284/520/109
f 300/512/61 299/521/61 286/522/61 288/513/61
f 301/508/62 298/519/62 284/520/62 289/509/62
f 308/523/61 313/524/61 295/525/61 291/526/61
f 311/527/62 312/528/62 294/529/62 293/530/62
f 312/528/62 309/531/62 292/532/62 294/529/62
f 310/533/110 311/534/110 293/535/3 290/536/3
f 309/531/111 308/523/111 291/526/6 292/532/6
f 313/524/61 310/537/61 290/538/61 295/525/61
f 276/539/62 224/540/62 298/519/62 301/508/62
f 277/541/61 226/542/61 299/521/61 300/512/61
f 224/540/112 223/543/112 297/511/108 298/519/108
f 226/544/113 225/545/113 296/516/106 299/515/106
f 223/543/61 277/541/61 300/512/61 297/511/61
f 225/546/62 276/539/62 301/508/62 296/507/62
f 285/510/62 289/509/62 305/444/62 306/478/62
f 287/514/61 288/513/61 304/466/61 307/469/61
f 286/518/107 285/517/107 306/475/100 303/474/100
f 284/520/109 287/514/109 307/469/97 302/445/97
f 288/513/61 286/522/61 303/467/61 304/466/61
f 289/509/62 284/520/62 302/445/62 305/444/62
f 279/547/61 230/548/61 310/537/61 313/524/61
f 228/549/114 227/550/114 308/523/111 309/531/111
f 230/551/115 229/552/115 311/534/110 310/533/110
f 278/553/62 228/549/62 309/531/62 312/528/62
f 229/554/62 278/553/62 312/528/62 311/527/62
f 227/550/61 279/547/61 313/524/61 308/523/61
f 291/526/61 295/525/61 317/440/61 318/463/61
f 293/530/62 294/529/62 316/473/62 315/476/62
f 294/529/62 292/532/62 319/462/62 316/473/62
f 290/536/3 293/535/3 315/472/99 314/471/99
f 292/532/6 291/526/6 318/463/95 319/462/95
f 295/525/61 290/538/61 314/441/61 317/440/61
f 364/555/6 333/556/116 335/557/116 363/558/6
f 334/559/117 364/560/6 363/561/6 332/562/117
f 396/563/118 334/559/118 332/562/118 399/564/118
f 324/565/3 320/566/119 321/567/119 325/568/3
f 386/569/23 385/570/23 345/571/23 348/572/23
f 394/573/10 393/574/10 347/575/10 349/576/10
f 367/577/6 338/578/117 339/579/117 366/580/6
f 341/581/116 367/582/6 366/583/6 340/584/116
f 374/585/120 341/581/120 340/584/120 372/586/120
f 369/587/11 371/588/11 353/589/11 355/590/11
f 330/591/3 329/592/121 328/593/121 331/594/3
f 20/595/7 72/596/7 337/597/7 360/598/7
f 12/599/12 76/600/12 336/601/12 359/602/12
f 76/600/12 24/603/12 362/604/12 336/601/12
f 72/596/7 5/605/7 361/606/7 337/597/7
f 24/603/23 20/595/23 360/598/23 362/604/23
f 5/605/10 12/607/10 359/608/10 361/606/10
f 27/609/12 61/610/12 343/611/12 356/612/12
f 1/613/7 63/614/7 342/615/7 358/616/7
f 63/614/7 29/617/7 365/618/7 342/615/7
f 9/619/11 1/613/11 358/616/11 357/620/11
f 61/610/12 9/621/12 357/622/12 343/611/12
f 29/617/14 27/609/14 356/612/14 365/618/14
f 378/623/14 377/624/14 351/625/14 354/626/14
f 322/627/7 325/568/7 344/628/7 345/571/7
f 320/629/12 324/630/12 346/631/12 347/575/12
f 324/630/12 323/632/12 348/572/12 346/631/12
f 325/568/7 321/567/7 349/576/7 344/628/7
f 326/633/12 331/634/12 350/635/12 351/625/12
f 329/592/7 330/591/7 352/636/7 353/589/7
f 330/591/7 327/637/7 354/626/7 352/636/7
f 331/634/12 328/638/12 355/590/12 350/635/12
f 381/639/12 326/633/12 351/625/12 377/624/12
f 372/640/12 340/641/12 357/642/12 368/643/12
f 375/644/7 329/592/7 353/589/7 371/588/7
f 397/645/12 320/629/12 347/575/12 393/574/12
f 389/646/7 322/627/7 345/571/7 385/570/7
f 399/564/7 332/562/7 361/647/7 395/648/7
f 391/649/12 333/650/12 362/651/12 387/652/12
f 363/558/7 335/557/7 360/653/7 337/654/7
f 364/655/12 334/656/12 359/657/12 336/658/12
f 333/650/12 364/659/12 336/660/12 362/651/12
f 332/562/7 363/561/7 337/661/7 361/647/7
f 383/662/7 338/578/7 365/663/7 379/664/7
f 366/665/12 339/666/12 356/667/12 343/668/12
f 367/582/7 341/581/7 358/669/7 342/670/7
f 338/578/7 367/577/7 342/671/7 365/663/7
f 340/641/12 366/672/12 343/673/12 357/642/12
f 390/674/122 323/675/122 322/627/122 389/646/122
f 323/675/121 324/565/3 325/568/3 322/627/121
f 382/676/123 327/637/123 326/677/123 381/678/123
f 327/637/119 330/591/3 331/594/3 326/677/119
f 341/581/7 374/585/7 370/679/7 358/669/7
f 435/680/7 375/644/7 371/588/7 433/681/7
f 328/638/12 373/682/12 369/587/12 355/590/12
f 434/683/12 372/640/12 368/643/12 432/684/12
f 357/642/11 358/669/11 370/679/11 368/643/11
f 432/685/11 433/681/11 371/588/11 369/587/11
f 329/592/120 375/644/120 373/686/120 328/593/120
f 443/687/7 413/688/7 375/644/7 435/680/7
f 338/578/123 383/662/123 380/689/123 339/579/123
f 408/690/3 411/691/3 374/585/3 372/586/3
f 327/637/7 382/676/7 378/623/7 354/626/7
f 439/692/7 383/662/7 379/664/7 437/693/7
f 339/666/12 380/694/12 376/695/12 356/667/12
f 438/696/12 381/639/12 377/624/12 436/697/12
f 365/663/14 356/667/14 376/695/14 379/664/14
f 437/698/14 436/697/14 377/624/14 378/623/14
f 333/556/122 391/699/122 388/700/122 335/557/122
f 459/701/12 405/702/12 391/649/12 451/703/12
f 323/632/12 390/704/12 386/569/12 348/572/12
f 451/703/12 391/649/12 387/652/12 449/705/12
f 335/557/7 388/700/7 384/706/7 360/653/7
f 450/707/7 389/646/7 385/570/7 448/708/7
f 362/651/23 360/653/23 384/706/23 387/652/23
f 449/709/23 448/708/23 385/570/23 386/569/23
f 321/567/7 398/710/7 394/573/7 349/576/7
f 455/711/7 399/564/7 395/648/7 453/712/7
f 334/656/12 396/713/12 392/714/12 359/657/12
f 454/715/12 397/645/12 393/574/12 452/716/12
f 361/647/10 359/657/10 392/714/10 395/648/10
f 453/717/10 452/716/10 393/574/10 394/573/10
f 320/566/118 397/718/118 398/710/118 321/567/118
f 400/719/6 403/720/6 390/674/6 389/646/6
f 413/688/6 415/721/6 373/686/6 375/644/6
f 441/722/12 408/723/12 372/640/12 434/683/12
f 405/724/3 407/725/3 388/700/3 391/699/3
f 457/726/7 400/719/7 389/646/7 450/707/7
f 455/727/7 398/710/7 401/728/7 456/729/7
f 443/730/61 411/731/124 427/732/125 447/733/61
f 396/563/3 399/564/3 406/734/3 404/735/3
f 456/736/62 401/737/126 417/738/127 460/739/62
f 398/710/6 397/718/6 402/740/6 401/728/6
f 442/741/62 412/742/128 428/743/129 446/744/62
f 454/745/12 396/713/12 404/746/12 458/747/12
f 459/748/61 403/749/130 419/750/131 463/751/61
f 438/752/12 380/694/12 409/753/12 440/754/12
f 411/731/124 408/755/124 424/756/125 427/732/125
f 382/676/6 381/678/6 414/757/6 412/758/6
f 458/759/62 404/760/126 420/761/127 462/762/62
f 380/689/3 383/662/3 410/763/3 409/764/3
f 409/765/128 410/766/128 426/767/129 425/768/129
f 439/769/7 382/676/7 412/758/7 442/770/7
f 403/749/130 400/771/130 416/772/131 419/750/131
f 460/773/132 417/738/133 416/772/133 461/774/132
f 420/761/65 422/775/65 423/776/65 421/777/65
f 417/738/134 418/778/134 419/750/134 416/772/134
f 462/779/135 420/761/136 421/777/136 463/780/135
f 444/781/137 425/768/138 424/756/138 445/782/137
f 428/743/64 430/783/64 431/784/64 429/785/64
f 425/768/139 426/767/139 427/732/139 424/756/139
f 446/786/140 428/743/141 429/785/141 447/787/140
f 457/788/61 407/789/130 423/776/131 461/790/61
f 440/791/62 409/765/128 425/768/129 444/792/62
f 404/760/126 406/793/126 422/775/127 420/761/127
f 441/794/61 415/795/124 431/784/125 445/796/61
f 407/789/130 405/797/130 421/777/131 423/776/131
f 412/742/128 414/798/128 430/783/129 428/743/129
f 401/737/126 402/799/126 418/778/127 417/738/127
f 415/795/124 413/800/124 429/785/125 431/784/125
f 408/755/124 441/801/61 445/802/61 424/756/125
f 414/798/128 440/803/62 444/804/62 430/783/129
f 426/767/142 446/805/140 447/806/140 427/732/142
f 430/783/143 444/807/137 445/808/137 431/784/143
f 383/662/7 439/692/7 442/809/7 410/763/7
f 381/639/12 438/696/12 440/810/12 414/811/12
f 410/766/128 442/812/62 446/813/62 426/767/129
f 413/800/124 443/814/61 447/815/61 429/785/125
f 415/816/12 441/817/12 434/818/12 373/682/12
f 379/664/14 376/695/14 436/819/14 437/693/14
f 380/694/12 438/752/12 436/819/12 376/695/12
f 382/676/7 439/769/7 437/698/7 378/623/7
f 411/691/7 443/820/7 435/821/7 374/585/7
f 368/643/11 370/679/11 433/822/11 432/684/11
f 373/682/12 434/818/12 432/685/12 369/587/12
f 374/585/7 435/821/7 433/822/7 370/679/7
f 400/771/130 457/823/61 461/824/61 416/772/131
f 418/778/144 462/825/135 463/826/135 419/750/144
f 422/775/145 460/827/132 461/828/132 423/776/145
f 402/799/126 458/829/62 462/830/62 418/778/127
f 405/797/130 459/831/61 463/832/61 421/777/131
f 397/645/12 454/715/12 458/833/12 402/834/12
f 406/793/126 456/835/62 460/836/62 422/775/127
f 399/564/7 455/711/7 456/837/7 406/734/7
f 407/725/7 457/838/7 450/839/7 388/700/7
f 395/648/10 392/714/10 452/840/10 453/712/10
f 396/713/12 454/745/12 452/840/12 392/714/12
f 398/710/7 455/727/7 453/717/7 394/573/7
f 387/652/23 384/706/23 448/841/23 449/705/23
f 388/700/7 450/839/7 448/841/7 384/706/7
f 390/704/12 451/842/12 449/709/12 386/569/12
f 403/843/12 459/844/12 451/842/12 390/704/12
f 129/291/58 257/290/58 484/845/58 473/846/58
f 144/847/65 481/313/65 483/278/60 148/848/60
f 146/849/64 480/307/64 482/284/51 150/850/51
f 137/337/60 477/297/60 481/313/65 144/847/65
f 135/263/51 476/289/51 480/307/64 146/849/64
f 126/851/43 470/237/44 479/286/51 139/262/51
f 123/852/54 471/255/55 478/294/60 141/336/60
f 141/336/60 478/294/60 477/297/60 137/337/60
f 139/262/51 479/286/51 476/289/51 135/263/51
f 150/850/51 482/284/51 475/248/51 132/270/51
f 148/848/60 483/278/60 474/266/60 133/348/60
f 133/348/60 474/266/60 473/269/60 127/349/60
f 257/290/58 130/495/58 472/853/58 484/845/58
f 119/854/49 469/247/50 471/255/55 123/852/54
f 132/270/51 475/248/51 472/251/51 130/271/51
f 103/855/31 467/244/31 469/247/50 119/854/49
f 106/856/48 464/242/48 468/234/48 122/857/48
f 122/857/42 468/234/42 470/237/44 126/851/43
f 118/215/31 105/218/31 467/229/31 466/228/31
f 106/191/6 115/190/6 465/224/6 464/223/6
f 115/226/7 118/225/7 466/858/7 465/859/7
