# Blender 5.2.1 LTS
# www.blender.org
mtllib TrolleyFlat.mtl
o TrolleyFlat
v 0.654946 0.257672 -1.366200
v 0.702000 0.257672 -1.319146
v 0.672953 0.257672 -1.362618
v 0.688218 0.257672 -1.352418
v 0.698418 0.257672 -1.337153
v 0.702000 0.365672 -1.319146
v 0.654946 0.365672 -1.366200
v 0.698418 0.365672 -1.337153
v 0.688218 0.365672 -1.352418
v 0.672953 0.365672 -1.362618
v 0.702000 0.257672 1.319146
v 0.654946 0.257672 1.366200
v 0.698418 0.257672 1.337153
v 0.688218 0.257672 1.352418
v 0.672953 0.257672 1.362618
v 0.654946 0.365672 1.366200
v 0.702000 0.365672 1.319146
v 0.672953 0.365672 1.362618
v 0.688218 0.365672 1.352418
v 0.698418 0.365672 1.337153
v -0.702000 0.257672 -1.319146
v -0.654946 0.257672 -1.366200
v -0.698418 0.257672 -1.337153
v -0.688218 0.257672 -1.352418
v -0.672953 0.257672 -1.362618
v -0.654946 0.365672 -1.366200
v -0.702000 0.365672 -1.319146
v -0.672953 0.365672 -1.362618
v -0.688218 0.365672 -1.352418
v -0.698418 0.365672 -1.337153
v -0.654946 0.257672 1.366200
v -0.702000 0.257672 1.319146
v -0.672953 0.257672 1.362618
v -0.688218 0.257672 1.352418
v -0.698418 0.257672 1.337153
v -0.702000 0.365672 1.319146
v -0.654946 0.365672 1.366200
v -0.698418 0.365672 1.337153
v -0.688218 0.365672 1.352418
v -0.672953 0.365672 1.362618
v 0.672953 0.365672 -1.319146
v 0.672953 0.365672 -1.337153
v -0.654946 0.365672 -1.337153
v -0.672953 0.365672 -1.337153
v -0.654946 0.365672 -1.319146
v -0.672953 0.365672 -1.319146
v -0.654946 0.365672 1.337152
v -0.672953 0.365672 1.337153
v -0.672953 0.365672 1.319146
v -0.654946 0.365672 1.319146
v 0.672953 0.365672 1.319146
v 0.672953 0.365672 1.337153
v 0.654946 0.365672 1.337153
v 0.654946 0.365672 1.319146
v 0.654946 0.365672 -1.319146
v 0.654946 0.365672 -1.337153
v 0.654946 0.257672 -1.337153
v 0.672953 0.257672 -1.337153
v -0.654946 0.257672 -1.337153
v -0.672953 0.257672 -1.337153
v 0.672953 0.257672 1.319146
v 0.672953 0.257672 1.337153
v 0.654946 0.257672 1.319146
v 0.654946 0.257672 1.337153
v -0.654946 0.257672 1.319146
v -0.654946 0.257672 1.337153
v -0.672953 0.257672 1.319146
v -0.672953 0.257672 1.337153
v 0.672953 0.257672 -1.319146
v 0.654946 0.257672 -1.319146
v -0.654946 0.257672 -1.319146
v -0.672953 0.257672 -1.319146
v 0.702000 0.257672 1.155317
v -0.702000 0.257672 1.155317
v 0.702000 0.365672 1.155317
v -0.702000 0.365672 1.155317
v -0.672953 0.365672 1.155317
v -0.654946 0.365672 1.155316
v 0.654946 0.365672 1.155317
v 0.672953 0.365672 1.155316
v 0.672953 0.257672 1.155316
v 0.654946 0.257672 1.155317
v -0.654946 0.257672 1.155317
v -0.672953 0.257672 1.155316
v 0.569179 0.257672 1.366200
v -0.569179 0.257672 1.366200
v -0.569179 0.257672 -1.366200
v 0.569179 0.257672 -1.366200
v -0.569179 0.365672 -1.366200
v 0.569179 0.365672 -1.366200
v -0.569179 0.365672 1.366200
v 0.569179 0.365672 1.366200
v -0.569179 0.365672 1.337152
v 0.569179 0.365672 1.337152
v -0.569179 0.365672 1.319146
v 0.569179 0.365672 1.319146
v -0.569179 0.365672 -1.319146
v 0.569179 0.365672 -1.319146
v -0.569179 0.365672 -1.337153
v 0.569179 0.365672 -1.337153
v 0.569179 0.257672 1.319146
v -0.569179 0.257672 1.319146
v 0.569179 0.257672 1.337153
v -0.569179 0.257672 1.337153
v 0.569179 0.257672 -1.319146
v -0.569179 0.257672 -1.319146
v -0.569179 0.257672 -1.337153
v 0.569179 0.257672 -1.337153
v 0.569179 0.257672 1.155317
v -0.569179 0.257672 1.155317
v -0.569179 0.365672 1.155316
v 0.569179 0.365672 1.155317
v -0.654946 0.435485 1.155316
v -0.654946 0.435485 1.319146
v 0.569179 0.435485 1.319146
v 0.654946 0.435485 1.319146
v 0.654946 0.435485 1.155317
v 0.569179 0.435485 1.155317
v -0.569179 0.435485 1.319146
v -0.569179 0.435485 1.155316
v -0.632718 0.497381 1.162393
v -0.632718 0.497381 1.207862
v 0.591407 0.497381 1.207862
v 0.632717 0.497381 1.207862
v 0.632717 0.497381 1.162393
v 0.591407 0.497381 1.162393
v -0.591407 0.497381 1.207862
v -0.591407 0.497381 1.162393
v -0.654946 0.497381 1.155316
v -0.654946 0.497381 1.245242
v 0.569179 0.497381 1.245242
v 0.654946 0.497381 1.245242
v 0.654946 0.497381 1.155317
v 0.569179 0.497381 1.155317
v -0.569179 0.497381 1.245242
v -0.569179 0.497381 1.155316
v -0.459134 1.547170 1.356719
v -0.459134 1.537513 1.391808
v 0.429157 1.537513 1.391808
v 0.459134 1.537513 1.391808
v 0.459134 1.547170 1.356719
v 0.429157 1.547170 1.356719
v -0.429157 1.537513 1.391808
v -0.429157 1.547170 1.356719
v -0.440298 1.496400 1.385243
v -0.484963 1.507012 1.385243
v -0.484963 1.518710 1.338801
v -0.440298 1.508098 1.338801
v 0.484963 1.518710 1.338802
v 0.484963 1.507012 1.385243
v 0.440298 1.496400 1.385243
v 0.440298 1.508098 1.338802
v -0.622200 1.179031 1.189215
v -0.632718 1.122157 1.177545
v -0.632718 1.100323 1.223014
v -0.622200 1.157459 1.234136
v 0.581576 1.157459 1.234136
v 0.591407 1.100323 1.223014
v 0.632717 1.100323 1.223014
v 0.622199 1.157459 1.234136
v 0.632717 1.122157 1.177545
v 0.622199 1.179031 1.189215
v 0.591407 1.122157 1.177545
v 0.581576 1.179031 1.189215
v -0.591407 1.100323 1.223014
v -0.581576 1.157459 1.234136
v -0.581576 1.179031 1.189215
v -0.591407 1.122157 1.177545
v 0.000000 0.257672 1.366200
v 0.000000 0.257672 -1.366200
v 0.000000 0.365672 -1.366200
v 0.000000 0.365672 1.366200
v -0.000000 0.365672 1.337152
v -0.000000 0.365672 1.319146
v -0.000000 0.365672 -1.319146
v 0.000000 0.365672 -1.337153
v 0.000000 0.257672 1.319146
v 0.000000 0.257672 1.337153
v 0.000000 0.257672 -1.319146
v 0.000000 0.257672 -1.337153
v 0.000000 0.257672 1.155317
v -0.000000 0.365672 1.155317
v -0.702000 0.257672 -0.081915
v 0.654946 0.365672 -0.081915
v 0.672953 0.365672 -0.081915
v 0.672953 0.257672 -0.081915
v 0.654946 0.257672 -0.081915
v -0.654946 0.257672 -0.081915
v -0.672953 0.257672 -0.081915
v 0.702000 0.257672 -0.081915
v 0.702000 0.365672 -0.081915
v -0.702000 0.365672 -0.081915
v -0.672953 0.365672 -0.081914
v -0.654946 0.365672 -0.081915
v -0.569179 0.365672 -0.081915
v 0.569179 0.365672 -0.081915
v 0.569179 0.257672 -0.081915
v -0.569179 0.257672 -0.081915
v 0.000000 0.257672 -0.081915
v -0.000000 0.365672 -0.081915
v -0.000000 1.547170 1.356719
v -0.000000 1.508098 1.338801
v -0.000000 1.496400 1.385243
v -0.000000 1.537513 1.391808
vn 0.0980 -0.0000 -0.9952
vn 0.3827 -0.0000 -0.9239
vn 0.7071 -0.0000 -0.7071
vn 0.9239 -0.0000 -0.3827
vn 0.9952 -0.0000 -0.0980
vn 0.0980 -0.0000 0.9952
vn 0.3827 -0.0000 0.9239
vn 0.7071 -0.0000 0.7071
vn 0.9239 -0.0000 0.3827
vn 0.9952 -0.0000 0.0980
vn -0.9952 -0.0000 0.0980
vn -0.9239 -0.0000 0.3827
vn -0.7071 -0.0000 0.7071
vn -0.3827 -0.0000 0.9239
vn -0.0980 -0.0000 0.9952
vn -0.0980 -0.0000 -0.9952
vn -0.3827 -0.0000 -0.9239
vn -0.7071 -0.0000 -0.7071
vn -0.9239 -0.0000 -0.3827
vn -0.9952 -0.0000 -0.0980
vn -0.0000 -1.0000 -0.0000
vn 1.0000 -0.0000 -0.0000
vn -0.0000 -0.0000 -1.0000
vn -0.0000 1.0000 -0.0000
vn -0.0000 -0.0000 1.0000
vn -1.0000 -0.0000 -0.0000
vn -0.0000 0.7666 0.6421
vn 0.8656 0.4802 0.1418
vn 0.8800 0.4544 0.1380
vn 0.7745 0.6120 0.1603
vn -0.0387 -0.3015 0.9527
vn -0.0247 -0.2377 0.9710
vn -0.0100 -0.1621 0.9867
vn -0.0239 -0.1683 0.9854
vn -0.0000 0.9642 0.2653
vn -0.8800 0.4544 0.1380
vn -0.8656 0.4802 0.1418
vn -0.7745 0.6120 0.1603
vn -0.0000 -0.9697 -0.2443
vn 0.0391 0.4176 -0.9078
vn 0.0542 0.4108 -0.9101
vn 0.0627 0.4408 -0.8954
vn 0.0263 0.4271 -0.9038
vn -0.0542 0.4108 -0.9101
vn -0.0391 0.4176 -0.9078
vn -0.0263 0.4271 -0.9038
vn -0.0627 0.4408 -0.8954
vn 0.0247 -0.2377 0.9710
vn 0.0387 -0.3015 0.9527
vn 0.0239 -0.1683 0.9854
vn 0.0100 -0.1621 0.9867
vn -0.0000 0.4168 -0.9090
vn -0.0000 -0.1577 0.9875
vn -0.9936 0.1017 0.0489
vn -0.9973 0.0662 0.0318
vn -0.9663 0.2382 0.0972
vn -0.9624 0.2523 0.1006
vn -0.0000 -0.1127 0.9936
vn -0.0000 -0.1035 0.9946
vn 0.0198 -0.2724 0.9620
vn 0.0279 -0.3052 0.9519
vn 0.9973 0.0662 0.0318
vn 0.9936 0.1017 0.0489
vn 0.9624 0.2523 0.1006
vn 0.9663 0.2382 0.0972
vn -0.0284 0.3129 -0.9494
vn -0.0200 0.2803 -0.9597
vn -0.0000 0.1077 -0.9942
vn -0.0000 0.1176 -0.9931
vn -0.0279 -0.3052 0.9519
vn -0.0198 -0.2724 0.9620
vn 0.0201 0.2803 -0.9597
vn 0.0284 0.3129 -0.9494
vn 0.9976 -0.0619 -0.0297
vn 0.9944 -0.0953 -0.0457
vn 0.9612 -0.2565 -0.1016
vn 0.9657 -0.2405 -0.0974
vn -0.9657 -0.2405 -0.0974
vn -0.9612 -0.2565 -0.1016
vn -0.9944 -0.0953 -0.0457
vn -0.9976 -0.0619 -0.0297
vn -0.0000 0.0242 -0.9997
vn -0.0000 -0.0251 0.9997
vn -0.9327 -0.3389 -0.1234
vn 0.9327 -0.3389 -0.1234
vt 0.845151 0.287368
vt 0.822774 0.287368
vt 0.822774 0.283564
vt 0.845151 0.283564
vt 0.822774 0.279760
vt 0.845151 0.279760
vt 0.822774 0.275956
vt 0.845151 0.275956
vt 0.822774 0.272152
vt 0.845151 0.272152
vt 0.714805 0.151505
vt 0.737182 0.151505
vt 0.737182 0.155309
vt 0.714805 0.155309
vt 0.737182 0.159113
vt 0.714805 0.159113
vt 0.737182 0.162917
vt 0.714805 0.162917
vt 0.737182 0.166721
vt 0.714805 0.166721
vt 0.660821 0.306096
vt 0.683198 0.306096
vt 0.683198 0.309900
vt 0.660821 0.309900
vt 0.683198 0.313704
vt 0.660821 0.313704
vt 0.683198 0.317508
vt 0.660821 0.317508
vt 0.683198 0.321312
vt 0.660821 0.321312
vt 0.791167 0.287368
vt 0.768790 0.287368
vt 0.768790 0.283564
vt 0.791167 0.283564
vt 0.768790 0.279760
vt 0.791167 0.279760
vt 0.768790 0.275956
vt 0.791167 0.275956
vt 0.768790 0.272152
vt 0.791167 0.272152
vt 0.338312 0.315846
vt 0.344331 0.315846
vt 0.344331 0.572194
vt 0.338312 0.572194
vt 0.737182 0.200666
vt 0.714805 0.200666
vt 0.845151 0.305138
vt 0.822774 0.305138
vt 0.306705 0.281901
vt 0.300687 0.281901
vt 0.300687 0.025553
vt 0.306705 0.025553
vt 0.683198 0.339083
vt 0.660821 0.339083
vt 0.768790 0.015804
vt 0.791167 0.015804
vt 0.300687 0.021822
vt 0.305963 0.021822
vt 0.300687 0.016546
vt 0.303850 0.018659
vt 0.296956 0.021822
vt 0.296956 0.015803
vt 0.043323 0.015804
vt 0.043323 0.021822
vt 0.025553 0.021822
vt 0.025553 0.015804
vt 0.021822 0.021822
vt 0.021822 0.016546
vt 0.016546 0.021822
vt 0.018659 0.018659
vt 0.021822 0.025553
vt 0.015803 0.025553
vt 0.015804 0.538249
vt 0.021822 0.538249
vt 0.021822 0.572194
vt 0.015804 0.572194
vt 0.021822 0.575925
vt 0.016546 0.575925
vt 0.021822 0.581201
vt 0.018659 0.579087
vt 0.025553 0.575925
vt 0.025553 0.581943
vt 0.279185 0.581943
vt 0.279186 0.575924
vt 0.296956 0.575924
vt 0.296956 0.581943
vt 0.300687 0.575924
vt 0.300687 0.581201
vt 0.305963 0.575924
vt 0.303850 0.579087
vt 0.300687 0.572194
vt 0.306705 0.572194
vt 0.296956 0.572194
vt 0.043324 0.572194
vt 0.043324 0.575925
vt 0.025553 0.572194
vt 0.025553 0.281901
vt 0.021822 0.281901
vt 0.025553 0.025553
vt 0.279185 0.025553
vt 0.279185 0.021822
vt 0.296956 0.025553
vt 0.296956 0.538249
vt 0.300687 0.538249
vt 0.579617 0.867533
vt 0.545673 0.867533
vt 0.545673 0.853068
vt 0.579617 0.853068
vt 0.344331 0.575924
vt 0.339055 0.575924
vt 0.344331 0.581201
vt 0.341168 0.579087
vt 0.348062 0.575924
vt 0.348062 0.581943
vt 0.601694 0.581943
vt 0.601694 0.575924
vt 0.619465 0.575924
vt 0.619465 0.581943
vt 0.623196 0.575924
vt 0.623196 0.581201
vt 0.628472 0.575924
vt 0.626359 0.579087
vt 0.623196 0.572194
vt 0.629214 0.572194
vt 0.629214 0.059497
vt 0.623196 0.059498
vt 0.623196 0.025553
vt 0.629214 0.025553
vt 0.623196 0.021822
vt 0.628472 0.021822
vt 0.623196 0.016546
vt 0.626359 0.018659
vt 0.619465 0.021822
vt 0.619465 0.015804
vt 0.365832 0.015804
vt 0.365832 0.021822
vt 0.348062 0.021822
vt 0.348062 0.015804
vt 0.344331 0.021822
vt 0.344331 0.016546
vt 0.339054 0.021822
vt 0.341168 0.018659
vt 0.344331 0.025553
vt 0.338312 0.025553
vt 0.348062 0.025553
vt 0.601694 0.025553
vt 0.601694 0.021822
vt 0.619465 0.025553
vt 0.619465 0.315846
vt 0.623196 0.315846
vt 0.619465 0.572194
vt 0.365832 0.572194
vt 0.365832 0.575924
vt 0.348062 0.572194
vt 0.348062 0.059498
vt 0.344331 0.059498
vt 0.601694 0.059497
vt 0.619465 0.059497
vt 0.601694 0.315846
vt 0.348062 0.315846
vt 0.629214 0.315846
vt 0.043323 0.281901
vt 0.043324 0.538249
vt 0.025553 0.538249
vt 0.296956 0.281901
vt 0.015804 0.281901
vt 0.660821 0.272152
vt 0.683198 0.272152
vt 0.306705 0.538249
vt 0.737182 0.457014
vt 0.714805 0.457014
vt 0.338312 0.059498
vt 0.279186 0.538249
vt 0.279185 0.281901
vt 0.161254 0.281901
vt 0.161255 0.538249
vt 0.365832 0.059498
vt 0.365832 0.315846
vt 0.483763 0.315846
vt 0.483763 0.059498
vt 0.365832 0.025553
vt 0.483763 0.025553
vt 0.601694 0.572194
vt 0.483763 0.572194
vt 0.483763 0.575924
vt 0.483763 0.021822
vt 0.601694 0.015804
vt 0.483763 0.015804
vt 0.365832 0.581943
vt 0.483763 0.581943
vt 0.611224 0.795183
vt 0.628995 0.795183
vt 0.628995 0.809648
vt 0.611224 0.809648
vt 0.161255 0.572194
vt 0.043323 0.025553
vt 0.161254 0.025553
vt 0.161254 0.021822
vt 0.279185 0.572194
vt 0.161255 0.575924
vt 0.043324 0.581943
vt 0.161254 0.581943
vt 0.279185 0.015803
vt 0.161254 0.015804
vt 0.714805 0.133735
vt 0.737182 0.133734
vt 0.683198 0.457014
vt 0.660821 0.457014
vt 0.791167 0.305138
vt 0.768790 0.305138
vt 0.845151 0.423069
vt 0.822774 0.423069
vt 0.821860 0.867221
vt 0.787916 0.867221
vt 0.803228 0.854396
vt 0.821860 0.854396
vt 0.545673 0.809648
vt 0.579617 0.809648
vt 0.579617 0.822473
vt 0.560985 0.822473
vt 0.768790 0.854397
vt 0.768790 0.836626
vt 0.783255 0.836626
vt 0.783255 0.854396
vt 0.821860 0.881686
vt 0.787916 0.881686
vt 0.845665 0.913293
vt 0.863435 0.913293
vt 0.863435 0.927758
vt 0.845665 0.927758
vt 0.545673 0.795183
vt 0.579617 0.795183
vt 0.787916 0.809336
vt 0.821860 0.809336
vt 0.821860 0.823801
vt 0.787916 0.823801
vt 0.526547 0.840243
vt 0.526547 0.822473
vt 0.541012 0.822473
vt 0.541012 0.840243
vt 0.560985 0.840243
vt 0.579617 0.840243
vt 0.863435 0.940583
vt 0.845665 0.940583
vt 0.628995 0.822473
vt 0.611224 0.822473
vt 0.821860 0.836626
vt 0.803228 0.836626
vt 0.810973 0.849791
vt 0.820394 0.849791
vt 0.568730 0.827078
vt 0.568730 0.835638
vt 0.578151 0.827078
vt 0.578151 0.835638
vt 0.810973 0.841232
vt 0.820394 0.841232
vt 0.779683 0.674527
vt 0.789603 0.674251
vt 0.787680 0.682825
vt 0.780140 0.682907
vt 0.231376 0.848394
vt 0.229208 0.839132
vt 0.237834 0.836824
vt 0.237834 0.843035
vt 0.787748 0.689035
vt 0.780208 0.689118
vt 0.675116 0.716769
vt 0.682656 0.716851
vt 0.682588 0.723062
vt 0.675048 0.722980
vt 0.673193 0.708196
vt 0.683113 0.708472
vt 0.898020 0.324943
vt 0.888099 0.325130
vt 0.886373 0.233919
vt 0.896294 0.233731
vt 0.486033 0.653028
vt 0.488010 0.643724
vt 0.494939 0.649126
vt 0.494939 0.655337
vt 0.488010 0.844788
vt 0.486033 0.835484
vt 0.494939 0.833175
vt 0.494939 0.839386
vt 0.229208 0.656677
vt 0.231376 0.647415
vt 0.237834 0.652774
vt 0.237834 0.658985
vt 0.494939 0.744256
vt 0.486033 0.744256
vt 0.229208 0.747904
vt 0.237834 0.747904
vt 0.681618 0.811976
vt 0.674078 0.811894
vt 0.663541 0.614712
vt 0.673857 0.613038
vt 0.672751 0.625244
vt 0.662559 0.626898
vt 0.140755 0.623992
vt 0.140884 0.615434
vt 0.152910 0.617795
vt 0.152784 0.626211
vt 0.788939 0.579094
vt 0.799255 0.580768
vt 0.800237 0.592954
vt 0.790045 0.591299
vt 0.411010 0.864425
vt 0.410969 0.872842
vt 0.398928 0.874962
vt 0.398971 0.866403
vt 0.140884 0.880375
vt 0.140755 0.871817
vt 0.152784 0.869598
vt 0.152911 0.878015
vt 0.410969 0.615670
vt 0.411010 0.624087
vt 0.398971 0.622109
vt 0.398928 0.613550
vt 0.897022 0.140289
vt 0.907325 0.142041
vt 0.908219 0.154209
vt 0.898040 0.152478
vt 0.844903 0.591349
vt 0.834724 0.593080
vt 0.835618 0.580912
vt 0.845921 0.579160
vt 0.269484 0.622749
vt 0.269441 0.614190
vt 0.697149 0.489661
vt 0.706185 0.492326
vt 0.015933 0.882259
vt 0.015804 0.873701
vt 0.868281 0.455611
vt 0.877337 0.458208
vt 0.015803 0.622109
vt 0.015932 0.613550
vt 0.856571 0.672791
vt 0.846649 0.672603
vt 0.756612 0.458382
vt 0.765648 0.455717
vt 0.269442 0.874322
vt 0.269484 0.865763
vt 0.865607 0.019336
vt 0.874663 0.016739
vt 0.791167 0.423069
vt 0.768790 0.423069
vt 0.714805 0.015804
vt 0.737182 0.015804
vt 0.822774 0.015804
vt 0.845151 0.015804
vt 0.660821 0.015804
vt 0.683198 0.015804
vt 0.788718 0.777949
vt 0.781178 0.778031
vt 0.854844 0.764002
vt 0.844923 0.763814
s 1
f 1/1/1 7/2/1 10/3/2 3/4/2
f 3/4/2 10/3/2 9/5/3 4/6/3
f 4/6/3 9/5/3 8/7/4 5/8/4
f 5/8/4 8/7/4 6/9/5 2/10/5
f 16/11/6 12/12/6 15/13/7 18/14/7
f 18/14/7 15/13/7 14/15/8 19/16/8
f 19/16/8 14/15/8 13/17/9 20/18/9
f 20/18/9 13/17/9 11/19/10 17/20/10
f 36/21/11 32/22/11 35/23/12 38/24/12
f 38/24/12 35/23/12 34/25/13 39/26/13
f 39/26/13 34/25/13 33/27/14 40/28/14
f 40/28/14 33/27/14 31/29/15 37/30/15
f 26/31/16 22/32/16 25/33/17 28/34/17
f 28/34/17 25/33/17 24/35/18 29/36/18
f 29/36/18 24/35/18 23/37/19 30/38/19
f 30/38/19 23/37/19 21/39/20 27/40/20
f 190/41/21 186/42/21 69/43/21 2/44/21
f 73/45/22 75/46/22 17/20/10 11/19/10
f 88/47/23 90/48/23 7/2/1 1/1/1
f 192/49/24 193/50/24 46/51/24 27/52/24
f 86/53/25 91/54/25 37/30/15 31/29/15
f 183/55/26 192/56/26 27/40/20 21/39/20
f 27/52/24 46/51/24 44/57/24 30/58/24
f 30/58/24 44/57/24 28/59/24 29/60/24
f 28/59/24 44/57/24 43/61/24 26/62/24
f 90/63/24 100/64/24 56/65/24 7/66/24
f 7/66/24 56/65/24 42/67/24 10/68/24
f 10/68/24 42/67/24 8/69/24 9/70/24
f 8/69/24 42/67/24 41/71/24 6/72/24
f 75/73/24 80/74/24 51/75/24 17/76/24
f 17/76/24 51/75/24 52/77/24 20/78/24
f 20/78/24 52/77/24 18/79/24 19/80/24
f 18/79/24 52/77/24 53/81/24 16/82/24
f 91/83/24 93/84/24 47/85/24 37/86/24
f 37/86/24 47/85/24 48/87/24 40/88/24
f 40/88/24 48/87/24 38/89/24 39/90/24
f 38/89/24 48/87/24 49/91/24 36/92/24
f 48/87/24 47/85/24 50/93/24 49/91/24
f 96/94/24 94/95/24 53/81/24 54/96/24
f 54/96/24 53/81/24 52/77/24 51/75/24
f 184/97/24 185/98/24 41/71/24 55/99/24
f 55/99/24 41/71/24 42/67/24 56/65/24
f 97/100/24 99/101/24 43/61/24 45/102/24
f 45/102/24 43/61/24 44/57/24 46/51/24
f 78/103/24 77/104/24 49/91/24 50/93/24
f 112/105/26 96/106/26 115/107/26 118/108/26
f 2/44/21 69/43/21 58/109/21 5/110/21
f 5/110/21 58/109/21 3/111/21 4/112/21
f 3/111/21 58/109/21 57/113/21 1/114/21
f 87/115/21 107/116/21 59/117/21 22/118/21
f 22/118/21 59/117/21 60/119/21 25/120/21
f 25/120/21 60/119/21 23/121/21 24/122/21
f 23/121/21 60/119/21 72/123/21 21/124/21
f 74/125/21 84/126/21 67/127/21 32/128/21
f 32/128/21 67/127/21 68/129/21 35/130/21
f 35/130/21 68/129/21 33/131/21 34/132/21
f 33/131/21 68/129/21 66/133/21 31/134/21
f 85/135/21 103/136/21 64/137/21 12/138/21
f 12/138/21 64/137/21 62/139/21 15/140/21
f 15/140/21 62/139/21 13/141/21 14/142/21
f 13/141/21 62/139/21 61/143/21 11/144/21
f 62/139/21 64/137/21 63/145/21 61/143/21
f 102/146/21 104/147/21 66/133/21 65/148/21
f 65/148/21 66/133/21 68/129/21 67/127/21
f 188/149/21 189/150/21 72/123/21 71/151/21
f 71/151/21 72/123/21 60/119/21 59/117/21
f 105/152/21 108/153/21 57/113/21 70/154/21
f 70/154/21 57/113/21 58/109/21 69/43/21
f 82/155/21 81/156/21 61/143/21 63/145/21
f 110/157/21 102/146/21 65/148/21 83/158/21
f 198/159/21 110/157/21 83/158/21 188/149/21
f 187/160/21 186/42/21 81/156/21 82/155/21
f 65/148/21 67/127/21 84/126/21 83/158/21
f 183/161/21 189/150/21 84/126/21 74/125/21
f 196/162/24 112/163/24 79/164/24 184/97/24
f 194/165/24 193/50/24 77/104/24 78/103/24
f 54/96/24 51/75/24 80/74/24 79/164/24
f 191/166/24 185/98/24 80/74/24 75/73/24
f 32/22/11 36/21/11 76/167/26 74/168/26
f 36/92/24 49/91/24 77/104/24 76/169/24
f 190/170/22 191/171/22 75/46/22 73/45/22
f 11/144/21 61/143/21 81/156/21 73/172/21
f 194/165/24 78/103/24 111/173/24 195/174/24
f 200/175/24 182/176/24 112/163/24 196/162/24
f 187/160/21 82/155/21 109/177/21 197/178/21
f 199/179/21 181/180/21 110/157/21 198/159/21
f 82/155/21 63/145/21 101/181/21 109/177/21
f 181/180/21 177/182/21 102/146/21 110/157/21
f 71/151/21 59/117/21 107/116/21 106/183/21
f 179/184/21 180/185/21 108/153/21 105/152/21
f 63/145/21 64/137/21 103/136/21 101/181/21
f 177/182/21 178/186/21 104/147/21 102/146/21
f 31/134/21 66/133/21 104/147/21 86/187/21
f 169/188/21 178/186/21 103/136/21 85/135/21
f 1/114/21 57/113/21 108/153/21 88/189/21
f 170/190/21 180/185/21 107/116/21 87/115/21
f 79/191/23 112/192/23 118/193/23 117/194/23
f 182/176/24 174/195/24 96/94/24 112/163/24
f 55/99/24 56/65/24 100/64/24 98/196/24
f 175/197/24 176/198/24 99/101/24 97/100/24
f 50/93/24 47/85/24 93/84/24 95/199/24
f 174/195/24 173/200/24 94/95/24 96/94/24
f 16/82/24 53/81/24 94/95/24 92/201/24
f 172/202/24 173/200/24 93/84/24 91/83/24
f 26/62/24 43/61/24 99/101/24 89/203/24
f 171/204/24 176/198/24 100/64/24 90/63/24
f 12/12/6 16/11/6 92/205/25 85/206/25
f 169/207/25 172/208/25 91/54/25 86/53/25
f 22/32/16 26/31/16 89/209/23 87/210/23
f 170/211/23 171/212/23 90/48/23 88/47/23
f 113/213/26 114/214/26 130/215/26 129/216/26
f 116/217/22 117/218/22 133/219/22 132/220/22
f 50/221/25 95/222/25 119/223/25 114/224/25
f 78/225/26 50/226/26 114/214/26 113/213/26
f 111/227/23 78/228/23 113/229/23 120/230/23
f 54/231/22 79/232/22 117/218/22 116/217/22
f 95/233/22 111/234/22 120/235/22 119/236/22
f 96/237/25 54/238/25 116/239/25 115/240/25
f 118/108/26 115/107/26 131/241/26 134/242/26
f 120/230/23 113/229/23 129/243/23 136/244/23
f 117/194/23 118/193/23 134/245/23 133/246/23
f 115/240/27 116/239/27 132/220/27 131/241/27
f 119/236/22 120/235/22 136/247/22 135/248/22
f 114/224/27 119/223/27 135/248/27 130/215/27
f 122/249/24 121/250/24 129/216/24 130/215/24
f 124/251/24 123/252/24 131/241/24 132/220/24
f 125/253/24 124/251/24 132/220/24 133/219/24
f 126/254/24 125/253/24 133/219/24 134/242/24
f 127/255/24 122/249/24 130/215/24 135/248/24
f 121/250/24 128/256/24 136/247/24 129/216/24
f 128/256/24 127/255/24 135/248/24 136/247/24
f 123/252/24 126/254/24 134/242/24 131/241/24
f 150/257/28 149/258/29 141/259/30 140/260/30
f 146/261/31 145/262/32 143/263/33 138/264/34
f 142/265/35 139/266/35 140/260/35 141/259/35
f 137/267/35 138/268/35 143/269/35 144/270/35
f 147/271/36 146/272/37 138/268/38 137/267/38
f 202/273/39 203/274/39 145/275/39 148/276/39
f 148/277/40 147/278/41 137/279/42 144/280/43
f 149/281/44 152/282/45 142/283/46 141/284/47
f 151/285/48 150/286/49 140/287/50 139/288/51
f 201/289/52 202/290/52 148/277/40 144/280/43
f 203/291/53 204/292/53 143/263/33 145/262/32
f 204/293/35 201/294/35 144/270/35 143/269/35
f 154/295/54 155/296/55 156/297/56 153/298/57
f 158/299/58 159/300/59 160/301/60 157/302/61
f 159/303/62 161/304/63 162/305/64 160/306/65
f 164/307/66 162/308/67 161/309/68 163/310/69
f 155/311/59 165/312/58 166/313/70 156/314/71
f 153/315/72 167/316/73 168/317/69 154/318/68
f 165/319/74 168/320/75 167/321/76 166/322/77
f 157/323/78 164/324/79 163/325/80 158/326/81
f 153/298/57 156/297/56 146/272/37 147/271/36
f 128/327/82 121/328/82 154/318/68 168/317/69
f 121/329/26 122/330/26 155/296/55 154/295/54
f 167/316/73 153/315/72 147/278/41 148/277/40
f 156/314/71 166/313/70 145/262/32 146/261/31
f 122/331/83 127/332/83 165/312/58 155/311/59
f 157/302/61 160/301/60 150/286/49 151/285/48
f 126/333/26 123/334/26 158/326/81 163/325/80
f 123/335/83 124/336/83 159/300/59 158/299/58
f 164/324/79 157/323/78 151/337/84 152/338/84
f 160/306/65 162/305/64 149/258/29 150/257/28
f 124/339/22 125/340/22 161/304/63 159/303/62
f 162/308/67 164/307/66 152/282/45 149/281/44
f 125/341/82 126/342/82 163/310/69 161/309/68
f 166/322/77 167/321/76 148/276/85 145/275/85
f 127/343/22 128/344/22 168/320/75 165/319/74
f 87/210/23 89/209/23 171/345/23 170/346/23
f 85/206/25 92/205/25 172/347/25 169/348/25
f 89/203/24 99/101/24 176/198/24 171/204/24
f 92/201/24 94/95/24 173/200/24 172/202/24
f 95/199/24 93/84/24 173/200/24 174/195/24
f 98/196/24 100/64/24 176/198/24 175/197/24
f 111/173/24 95/199/24 174/195/24 182/176/24
f 88/189/21 108/153/21 180/185/21 170/190/21
f 86/187/21 104/147/21 178/186/21 169/188/21
f 101/181/21 103/136/21 178/186/21 177/182/21
f 106/183/21 107/116/21 180/185/21 179/184/21
f 109/177/21 101/181/21 177/182/21 181/180/21
f 197/178/21 109/177/21 181/180/21 199/179/21
f 195/174/24 111/173/24 182/176/24 200/175/24
f 97/100/24 195/174/24 200/175/24 175/197/24
f 105/152/21 197/178/21 199/179/21 179/184/21
f 179/184/21 199/179/21 198/159/21 106/183/21
f 70/154/21 187/160/21 197/178/21 105/152/21
f 175/197/24 200/175/24 196/162/24 98/196/24
f 45/102/24 194/165/24 195/174/24 97/100/24
f 2/10/5 6/9/5 191/349/22 190/350/22
f 6/72/24 41/71/24 185/98/24 191/166/24
f 45/102/24 46/51/24 193/50/24 194/165/24
f 98/196/24 196/162/24 184/97/24 55/99/24
f 21/124/21 72/123/21 189/150/21 183/161/21
f 70/154/21 69/43/21 186/42/21 187/160/21
f 106/183/21 198/159/21 188/149/21 71/151/21
f 83/158/21 84/126/21 189/150/21 188/149/21
f 79/164/24 80/74/24 185/98/24 184/97/24
f 74/168/26 76/167/26 192/351/26 183/352/26
f 76/169/24 77/104/24 193/50/24 192/49/24
f 73/172/21 81/156/21 186/42/21 190/41/21
f 139/266/35 142/265/35 201/353/35 204/354/35
f 151/285/48 139/288/51 204/292/53 203/291/53
f 142/283/46 152/282/45 202/290/52 201/289/52
f 152/338/39 151/337/39 203/355/39 202/356/39
o Cube.006
v -0.483300 0.016607 -1.176793
v -0.483300 0.210193 -1.176793
v -0.483300 0.016607 -0.983207
v -0.483300 0.195888 -0.997512
v -0.596700 0.016607 -1.176793
v -0.596700 0.210193 -1.176793
v -0.596700 0.016607 -0.983207
v -0.596700 0.195888 -0.997512
v -0.483300 -0.023486 -1.080000
v -0.483300 0.222314 -1.061310
v -0.596700 -0.023486 -1.080000
v -0.596700 0.222314 -1.061310
v -0.483300 0.113400 -1.216886
v -0.483300 0.132091 -0.971086
v -0.596700 0.132091 -0.971087
v -0.596700 0.113400 -1.216886
v -0.596700 0.132091 -1.061310
v -0.483300 0.132091 -1.061310
v -0.483300 0.250286 -1.080000
v -0.483300 0.210193 -0.983207
v -0.596700 0.210193 -0.983207
v -0.596700 0.250286 -1.080000
v -0.483300 0.113400 -0.943114
v -0.596700 0.113400 -0.943114
v -0.596700 0.113400 -1.080000
v -0.483300 0.113400 -1.080000
v -0.448262 0.222314 -1.061310
v -0.448262 0.195888 -0.997512
v -0.631738 0.195888 -0.997512
v -0.631738 0.222314 -1.061310
v -0.448262 0.132091 -0.971086
v -0.631738 0.132091 -0.971087
v -0.631738 0.132091 -1.061310
v -0.448262 0.132091 -1.061310
v -0.483300 0.260976 -1.030286
v -0.483300 0.260264 -0.966488
v -0.596700 0.260264 -0.966488
v -0.596700 0.260976 -1.030286
v -0.448263 0.260976 -1.030286
v -0.448263 0.260264 -0.966488
v -0.631738 0.260264 -0.966488
v -0.631738 0.260976 -1.030286
vn -0.0000 0.3827 0.9239
vn -1.0000 -0.0000 -0.0000
vn -0.0000 0.3827 -0.9239
vn -0.0000 -0.9239 -0.3827
vn -0.0000 0.9239 -0.3827
vn -0.0000 0.9239 0.3827
vn -0.0000 -0.9239 0.3827
vn -0.0000 -0.0000 -1.0000
vn 1.0000 -0.0000 -0.0000
vn -0.0000 -0.3827 -0.9239
vn -0.0000 -0.3827 0.9239
vn -0.0000 -0.4341 0.9008
vn -0.0000 -1.0000 -0.0000
vn -0.0000 0.9999 0.0111
vn -0.0000 0.6259 -0.7799
vn -0.0000 -0.4341 0.9009
vt 0.524251 0.901021
vt 0.536547 0.899770
vt 0.537181 0.906008
vt 0.524886 0.907259
vt 0.578452 0.651051
vt 0.578452 0.632301
vt 0.598748 0.632301
vt 0.598748 0.651051
vt 0.038438 0.936500
vt 0.038438 0.960999
vt 0.021114 0.953823
vt 0.013939 0.936500
vt 0.598748 0.726054
vt 0.598748 0.744805
vt 0.578452 0.744805
vt 0.578452 0.726054
vt 0.578452 0.688553
vt 0.598748 0.688553
vt 0.598748 0.707304
vt 0.578452 0.707304
vt 0.598748 0.763556
vt 0.578452 0.763556
vt 0.578452 0.613550
vt 0.598748 0.613550
vt 0.578452 0.669802
vt 0.598748 0.669802
vt 0.898008 0.831800
vt 0.899643 0.815735
vt 0.905881 0.816369
vt 0.904247 0.832434
vt 0.445839 0.953702
vt 0.428515 0.946526
vt 0.421339 0.929203
vt 0.445838 0.929203
vt 0.463162 0.946526
vt 0.470337 0.929203
vt 0.055761 0.919177
vt 0.062937 0.936500
vt 0.038438 0.912001
vt 0.021114 0.919177
vt 0.445838 0.904704
vt 0.463162 0.911879
vt 0.431075 0.914440
vt 0.426346 0.925858
vt 0.428515 0.911880
vt 0.041783 0.955993
vt 0.053201 0.951263
vt 0.055761 0.953824
vt 0.442493 0.909710
vt 0.057930 0.939845
vt 0.041783 0.939845
vt 0.442493 0.925858
vt 0.553246 0.904374
vt 0.554880 0.920439
vt 0.543042 0.916889
vt 0.921946 0.818004
vt 0.916085 0.828884
vt 0.537146 0.914753
vt 0.538684 0.928914
vt 0.532789 0.926777
vt 0.552611 0.898136
vt 0.559485 0.903740
vt 0.561119 0.919804
vt 0.922580 0.811765
vt 0.934876 0.813016
vt 0.934241 0.819254
vt 0.556703 0.940589
vt 0.545694 0.946206
vt 0.539249 0.935159
vt 0.550621 0.934130
vt 0.906516 0.810131
vt 0.550056 0.927885
vt 0.919878 0.847154
vt 0.908506 0.846125
vt 0.909071 0.839880
vt 0.920443 0.840909
vt 0.898984 0.835844
vt 0.903808 0.843289
vt 0.913433 0.858201
vt 0.902424 0.852584
vt 0.921981 0.826748
vt 0.926339 0.838772
vt 0.560143 0.923848
vt 0.555319 0.931294
s 1
f 208/357/86 218/358/86 235/359/86 232/360/86
f 227/361/86 224/362/86 225/363/86 228/364/86
f 229/365/87 226/366/87 210/367/87 220/368/87
f 220/369/88 210/370/88 206/371/88 217/372/88
f 213/373/89 215/374/89 209/375/89 205/376/89
f 226/377/90 223/378/90 206/371/90 210/370/90
f 225/363/91 224/362/91 223/379/91 226/380/91
f 207/381/92 211/382/92 215/374/92 213/373/92
f 216/383/93 221/384/93 237/385/93 234/386/93
f 217/387/94 206/388/94 223/389/94 230/390/94
f 205/391/94 217/387/94 230/390/94 213/392/94
f 211/393/87 228/394/87 229/365/87 215/395/87
f 209/375/95 220/369/95 217/372/95 205/376/95
f 215/395/87 229/365/87 220/368/87 209/396/87
f 207/381/96 227/361/96 228/364/96 211/382/96
f 213/392/94 230/390/94 227/397/94 207/398/94
f 208/399/94 214/400/94 223/389/94 224/401/94
f 216/402/87 212/403/87 225/404/87 226/366/87
f 218/405/94 208/399/94 224/401/94 227/397/94
f 212/403/87 219/406/87 228/394/87 225/404/87
f 221/407/87 216/402/87 226/366/87 229/365/87
f 214/400/94 222/408/94 230/390/94 223/389/94
f 219/406/87 221/407/87 229/365/87 228/394/87
f 222/408/94 218/405/94 227/397/94 230/390/94
f 238/409/94 231/410/94 232/411/94 235/359/94
f 236/412/87 233/413/87 234/386/87 237/385/87
f 208/414/97 232/411/97 244/415/97 240/416/97
f 218/358/98 222/417/98 238/409/98 235/359/98
f 222/418/93 214/419/93 231/410/93 238/409/93
f 219/420/86 212/421/86 233/422/86 236/412/86
f 214/423/87 208/424/87 240/425/87 239/426/87
f 221/427/98 219/420/98 236/412/98 237/385/98
f 239/426/99 240/425/99 244/415/99 243/428/99
f 241/429/99 242/430/99 246/431/99 245/432/99
f 232/411/94 231/410/94 243/428/94 244/415/94
f 216/433/100 234/386/100 246/431/100 242/434/100
f 212/435/94 216/436/94 242/430/94 241/429/94
f 233/413/101 212/437/101 241/438/101 245/432/101
f 231/410/100 214/439/100 239/440/100 243/428/100
f 234/386/87 233/413/87 245/432/87 246/431/87
o Cube.007
v 0.596700 0.016607 -1.176793
v 0.596700 0.210193 -1.176793
v 0.596700 0.016607 -0.983207
v 0.596700 0.195888 -0.997512
v 0.483300 0.016607 -1.176793
v 0.483300 0.210193 -1.176793
v 0.483300 0.016607 -0.983207
v 0.483300 0.195888 -0.997512
v 0.596700 -0.023486 -1.080000
v 0.596700 0.222314 -1.061310
v 0.483300 -0.023486 -1.080000
v 0.483300 0.222314 -1.061310
v 0.596700 0.113400 -1.216886
v 0.596700 0.132091 -0.971086
v 0.483300 0.132091 -0.971087
v 0.483300 0.113400 -1.216886
v 0.483300 0.132091 -1.061310
v 0.596700 0.132091 -1.061310
v 0.596700 0.250286 -1.080000
v 0.596700 0.210193 -0.983207
v 0.483300 0.210193 -0.983207
v 0.483300 0.250286 -1.080000
v 0.596700 0.113400 -0.943114
v 0.483300 0.113400 -0.943114
v 0.483300 0.113400 -1.080000
v 0.596700 0.113400 -1.080000
v 0.631738 0.222314 -1.061310
v 0.631738 0.195888 -0.997512
v 0.448262 0.195888 -0.997512
v 0.448262 0.222314 -1.061310
v 0.631738 0.132091 -0.971086
v 0.448262 0.132091 -0.971087
v 0.448262 0.132091 -1.061310
v 0.631738 0.132091 -1.061310
v 0.596700 0.260976 -1.030286
v 0.596700 0.260264 -0.966488
v 0.483300 0.260264 -0.966488
v 0.483300 0.260976 -1.030286
v 0.631737 0.260976 -1.030286
v 0.631737 0.260264 -0.966488
v 0.448262 0.260264 -0.966488
v 0.448262 0.260976 -1.030286
vn -0.0000 0.3827 0.9239
vn -1.0000 -0.0000 -0.0000
vn -0.0000 0.3827 -0.9239
vn -0.0000 -0.9239 -0.3827
vn -0.0000 0.9239 -0.3827
vn -0.0000 0.9239 0.3827
vn -0.0000 -0.9239 0.3827
vn -0.0000 -0.0000 -1.0000
vn 1.0000 -0.0000 -0.0000
vn -0.0000 -0.3827 -0.9239
vn -0.0000 -0.3827 0.9239
vn -0.0000 -0.4341 0.9009
vn -0.0000 -1.0000 -0.0000
vn -0.0000 0.9999 0.0111
vn -0.0000 0.6259 -0.7799
vn -0.0000 -0.4341 0.9008
vt 0.895508 0.891746
vt 0.907804 0.890496
vt 0.908438 0.896734
vt 0.896143 0.897985
vt 0.897803 0.492178
vt 0.897803 0.473427
vt 0.918099 0.473427
vt 0.918099 0.492178
vt 0.115313 0.936500
vt 0.115313 0.960999
vt 0.097990 0.953823
vt 0.090814 0.936500
vt 0.918099 0.567180
vt 0.918099 0.585931
vt 0.897803 0.585931
vt 0.897803 0.567180
vt 0.897803 0.529679
vt 0.918099 0.529679
vt 0.918099 0.548430
vt 0.897803 0.548430
vt 0.918099 0.604682
vt 0.897803 0.604682
vt 0.897803 0.454676
vt 0.918099 0.454676
vt 0.897803 0.510928
vt 0.918099 0.510928
vt 0.593136 0.919804
vt 0.594770 0.903740
vt 0.601009 0.904374
vt 0.599374 0.920439
vt 0.791424 0.960426
vt 0.774100 0.953251
vt 0.766925 0.935928
vt 0.791424 0.935927
vt 0.808747 0.953250
vt 0.815923 0.935927
vt 0.132636 0.919177
vt 0.139812 0.936500
vt 0.115313 0.912001
vt 0.097990 0.919177
vt 0.791423 0.911428
vt 0.808747 0.918604
vt 0.776660 0.921164
vt 0.771931 0.932582
vt 0.774100 0.918604
vt 0.118658 0.955993
vt 0.130076 0.951263
vt 0.132636 0.953824
vt 0.788078 0.916435
vt 0.134806 0.939845
vt 0.118658 0.939845
vt 0.788079 0.932582
vt 0.924503 0.895100
vt 0.926137 0.911165
vt 0.914299 0.907615
vt 0.617073 0.906009
vt 0.611212 0.916889
vt 0.908403 0.905478
vt 0.909941 0.919639
vt 0.904045 0.917503
vt 0.923868 0.888861
vt 0.930741 0.894465
vt 0.932376 0.910530
vt 0.617708 0.899770
vt 0.630003 0.901021
vt 0.629369 0.907259
vt 0.927960 0.931315
vt 0.916951 0.936932
vt 0.910506 0.925885
vt 0.921878 0.924856
vt 0.601643 0.898136
vt 0.921313 0.918611
vt 0.615005 0.935159
vt 0.603633 0.934130
vt 0.604198 0.927885
vt 0.615570 0.928914
vt 0.594111 0.923848
vt 0.598935 0.931294
vt 0.608560 0.946206
vt 0.597551 0.940589
vt 0.617108 0.914753
vt 0.621466 0.926777
vt 0.931400 0.914574
vt 0.926576 0.922020
s 1
f 250/441/102 260/442/102 277/443/102 274/444/102
f 269/445/102 266/446/102 267/447/102 270/448/102
f 271/449/103 268/450/103 252/451/103 262/452/103
f 262/453/104 252/454/104 248/455/104 259/456/104
f 255/457/105 257/458/105 251/459/105 247/460/105
f 268/461/106 265/462/106 248/455/106 252/454/106
f 267/447/107 266/446/107 265/463/107 268/464/107
f 249/465/108 253/466/108 257/458/108 255/457/108
f 258/467/109 263/468/109 279/469/109 276/470/109
f 259/471/110 248/472/110 265/473/110 272/474/110
f 247/475/110 259/471/110 272/474/110 255/476/110
f 253/477/103 270/478/103 271/449/103 257/479/103
f 251/459/111 262/453/111 259/456/111 247/460/111
f 257/479/103 271/449/103 262/452/103 251/480/103
f 249/465/112 269/445/112 270/448/112 253/466/112
f 255/476/110 272/474/110 269/481/110 249/482/110
f 250/483/110 256/484/110 265/473/110 266/485/110
f 258/486/103 254/487/103 267/488/103 268/450/103
f 260/489/110 250/483/110 266/485/110 269/481/110
f 254/487/103 261/490/103 270/478/103 267/488/103
f 263/491/103 258/486/103 268/450/103 271/449/103
f 256/484/110 264/492/110 272/474/110 265/473/110
f 261/490/103 263/491/103 271/449/103 270/478/103
f 264/492/110 260/489/110 269/481/110 272/474/110
f 280/493/110 273/494/110 274/495/110 277/443/110
f 278/496/103 275/497/103 276/470/103 279/469/103
f 250/498/113 274/495/113 286/499/113 282/500/113
f 260/442/114 264/501/114 280/493/114 277/443/114
f 264/502/109 256/503/109 273/494/109 280/493/109
f 261/504/102 254/505/102 275/506/102 278/496/102
f 256/507/103 250/508/103 282/509/103 281/510/103
f 263/511/114 261/504/114 278/496/114 279/469/114
f 281/510/115 282/509/115 286/499/115 285/512/115
f 283/513/115 284/514/115 288/515/115 287/516/115
f 274/495/110 273/494/110 285/512/110 286/499/110
f 258/517/116 276/470/116 288/515/116 284/518/116
f 254/519/110 258/520/110 284/514/110 283/513/110
f 275/497/117 254/521/117 283/522/117 287/516/117
f 273/494/116 256/523/116 281/524/116 285/512/116
f 276/470/103 275/497/103 287/516/103 288/515/103
o Cube.008
v 0.596700 0.016607 0.983207
v 0.596700 0.210193 0.983207
v 0.596700 0.016607 1.176793
v 0.596700 0.195888 1.162488
v 0.483300 0.016607 0.983207
v 0.483300 0.210193 0.983207
v 0.483300 0.016607 1.176793
v 0.483300 0.195888 1.162488
v 0.596700 -0.023486 1.080000
v 0.596700 0.222314 1.098691
v 0.483300 -0.023486 1.080000
v 0.483300 0.222314 1.098691
v 0.596700 0.113400 0.943114
v 0.596700 0.132091 1.188914
v 0.483300 0.132091 1.188914
v 0.483300 0.113400 0.943114
v 0.483300 0.132091 1.098691
v 0.596700 0.132091 1.098691
v 0.596700 0.250286 1.080000
v 0.596700 0.210193 1.176793
v 0.483300 0.210193 1.176793
v 0.483300 0.250286 1.080000
v 0.596700 0.113400 1.216886
v 0.483300 0.113400 1.216886
v 0.483300 0.113400 1.080000
v 0.596700 0.113400 1.080000
v 0.631738 0.222314 1.098691
v 0.631738 0.195888 1.162488
v 0.448262 0.195888 1.162488
v 0.448262 0.222314 1.098691
v 0.631738 0.132091 1.188914
v 0.448262 0.132091 1.188914
v 0.448262 0.132091 1.098691
v 0.631738 0.132091 1.098691
v 0.596700 0.260976 1.129714
v 0.596700 0.260264 1.193511
v 0.483300 0.260264 1.193511
v 0.483300 0.260976 1.129714
v 0.631737 0.260976 1.129714
v 0.631737 0.260264 1.193511
v 0.448262 0.260264 1.193511
v 0.448262 0.260976 1.129714
vn -0.0000 -1.0000 -0.0000
vn -0.0000 0.3827 0.9239
vn -1.0000 -0.0000 -0.0000
vn -0.0000 0.3827 -0.9239
vn -0.0000 -0.9239 -0.3827
vn -0.0000 0.9239 -0.3827
vn -0.0000 0.9239 0.3827
vn -0.0000 -0.9239 0.3827
vn -0.0000 0.6258 -0.7800
vn 1.0000 -0.0000 -0.0000
vn -0.0000 -0.3827 -0.9239
vn -0.0000 -0.3827 0.9239
vn -0.0000 -0.0000 -1.0000
vn -0.0000 0.9999 0.0111
vn -0.0000 -0.4341 0.9009
vt 0.669141 0.921059
vt 0.684481 0.922619
vt 0.683875 0.928577
vt 0.668535 0.927016
vt 0.897803 0.672099
vt 0.897803 0.654194
vt 0.917184 0.654194
vt 0.917184 0.672099
vt 0.962583 0.112250
vt 0.985977 0.112250
vt 0.979126 0.128792
vt 0.962584 0.135644
vt 0.917184 0.743718
vt 0.917184 0.761623
vt 0.897803 0.761623
vt 0.897803 0.743718
vt 0.897803 0.707908
vt 0.917184 0.707908
vt 0.917184 0.725813
vt 0.897803 0.725813
vt 0.917184 0.779528
vt 0.897803 0.779528
vt 0.897803 0.636289
vt 0.917184 0.636289
vt 0.897803 0.690004
vt 0.917184 0.690004
vt 0.175707 0.938525
vt 0.170682 0.935270
vt 0.175287 0.928160
vt 0.180313 0.931415
vt 0.962583 0.060811
vt 0.946042 0.053959
vt 0.939190 0.037417
vt 0.962583 0.037417
vt 0.979125 0.053959
vt 0.985977 0.037417
vt 0.946041 0.095708
vt 0.962583 0.088856
vt 0.939189 0.112250
vt 0.946042 0.128792
vt 0.962583 0.014023
vt 0.979125 0.020875
vt 0.948486 0.023319
vt 0.943970 0.034222
vt 0.946041 0.020875
vt 0.981197 0.109055
vt 0.976680 0.098152
vt 0.979125 0.095708
vt 0.959389 0.018803
vt 0.965777 0.093637
vt 0.965778 0.109056
vt 0.959389 0.034222
vt 0.177267 0.953865
vt 0.187011 0.941915
vt 0.192607 0.952305
vt 0.678278 0.938967
vt 0.666974 0.942356
vt 0.661017 0.941750
vt 0.662577 0.926410
vt 0.204954 0.957068
vt 0.193213 0.958262
vt 0.204348 0.951111
vt 0.675745 0.966961
vt 0.665233 0.961598
vt 0.671041 0.955430
vt 0.681900 0.956412
vt 0.177873 0.959823
vt 0.171310 0.954471
vt 0.169750 0.939131
vt 0.696221 0.923814
vt 0.695615 0.929771
vt 0.671580 0.949466
vt 0.682439 0.950449
vt 0.179773 0.925452
vt 0.190633 0.924469
vt 0.191172 0.930433
vt 0.661949 0.945612
vt 0.666554 0.952722
vt 0.173966 0.919284
vt 0.184478 0.913921
vt 0.192641 0.943955
vt 0.196802 0.932473
vt 0.683908 0.936926
vt 0.688069 0.948408
s 1
f 305/525/118 303/526/118 320/527/118 321/528/118
f 311/529/119 308/530/119 309/531/119 312/532/119
f 313/533/120 310/534/120 294/535/120 304/536/120
f 304/537/121 294/538/121 290/539/121 301/540/121
f 297/541/122 299/542/122 293/543/122 289/544/122
f 310/545/123 307/546/123 290/539/123 294/538/123
f 309/531/124 308/530/124 307/547/124 310/548/124
f 291/549/125 295/550/125 299/542/125 297/541/125
f 315/551/126 298/552/126 323/553/126 327/554/126
f 301/555/127 290/556/127 307/557/127 314/558/127
f 289/559/127 301/555/127 314/558/127 297/560/127
f 295/561/120 312/562/120 313/533/120 299/563/120
f 293/543/128 304/537/128 301/540/128 289/544/128
f 299/563/120 313/533/120 304/536/120 293/564/120
f 291/549/129 311/529/129 312/532/129 295/550/129
f 297/560/127 314/558/127 311/565/127 291/566/127
f 292/567/127 298/568/127 307/557/127 308/569/127
f 300/570/120 296/571/120 309/572/120 310/534/120
f 302/573/127 292/567/127 308/569/127 311/565/127
f 296/571/120 303/574/120 312/562/120 309/572/120
f 305/575/120 300/570/120 310/534/120 313/533/120
f 298/568/127 306/576/127 314/558/127 307/557/127
f 303/574/120 305/575/120 313/533/120 312/562/120
f 306/576/127 302/573/127 311/565/127 314/558/127
f 322/577/127 315/551/127 316/578/127 319/579/127
f 320/527/120 317/580/120 318/581/120 321/528/120
f 300/582/130 305/583/130 321/528/130 318/581/130
f 292/584/119 302/585/119 319/579/119 316/586/119
f 296/587/127 300/588/127 326/589/127 325/590/127
f 302/585/118 306/591/118 322/577/118 319/579/118
f 306/592/130 298/593/130 315/551/130 322/577/130
f 303/526/119 296/594/119 317/595/119 320/527/119
f 325/590/131 326/589/131 330/596/131 329/597/131
f 323/598/131 324/599/131 328/600/131 327/554/131
f 318/581/120 317/580/120 329/597/120 330/596/120
f 300/601/126 318/581/126 330/596/126 326/602/126
f 298/603/120 292/604/120 324/599/120 323/598/120
f 292/605/132 316/578/132 328/600/132 324/606/132
f 316/578/127 315/551/127 327/554/127 328/600/127
f 317/580/132 296/607/132 325/608/132 329/597/132
o Cube.013
v -0.483300 0.016607 0.983207
v -0.483300 0.210193 0.983207
v -0.483300 0.016607 1.176793
v -0.483300 0.195888 1.162488
v -0.596700 0.016607 0.983207
v -0.596700 0.210193 0.983207
v -0.596700 0.016607 1.176793
v -0.596700 0.195888 1.162488
v -0.483300 -0.023486 1.080000
v -0.483300 0.222314 1.098691
v -0.596700 -0.023486 1.080000
v -0.596700 0.222314 1.098691
v -0.483300 0.113400 0.943114
v -0.483300 0.132091 1.188914
v -0.596700 0.132091 1.188914
v -0.596700 0.113400 0.943114
v -0.596700 0.132091 1.098691
v -0.483300 0.132091 1.098691
v -0.483300 0.250286 1.080000
v -0.483300 0.210193 1.176793
v -0.596700 0.210193 1.176793
v -0.596700 0.250286 1.080000
v -0.483300 0.113400 1.216886
v -0.596700 0.113400 1.216886
v -0.596700 0.113400 1.080000
v -0.483300 0.113400 1.080000
v -0.448262 0.222314 1.098691
v -0.448262 0.195888 1.162488
v -0.631738 0.195888 1.162488
v -0.631738 0.222314 1.098691
v -0.448262 0.132091 1.188914
v -0.631738 0.132091 1.188914
v -0.631738 0.132091 1.098691
v -0.448262 0.132091 1.098691
v -0.483300 0.260976 1.129714
v -0.483300 0.260264 1.193511
v -0.596700 0.260264 1.193511
v -0.596700 0.260976 1.129714
v -0.448262 0.260976 1.129714
v -0.448262 0.260264 1.193511
v -0.631737 0.260264 1.193511
v -0.631737 0.260976 1.129714
vn -0.0000 -0.0000 -1.0000
vn -0.0000 0.3827 0.9239
vn -1.0000 -0.0000 -0.0000
vn -0.0000 0.3827 -0.9239
vn -0.0000 -0.9239 -0.3827
vn -0.0000 0.9239 -0.3827
vn -0.0000 0.9239 0.3827
vn -0.0000 -0.9239 0.3827
vn -0.0000 -1.0000 -0.0000
vn 1.0000 -0.0000 -0.0000
vn -0.0000 -0.3827 -0.9239
vn -0.0000 -0.3827 0.9239
vn -0.0000 0.6258 -0.7800
vn -0.0000 -0.4341 0.9009
vn -0.0000 0.9999 0.0111
vt 0.662661 0.885810
vt 0.661026 0.869744
vt 0.667266 0.869109
vt 0.668900 0.885176
vt 0.526547 0.651057
vt 0.526547 0.632303
vt 0.546845 0.632303
vt 0.546845 0.651057
vt 0.368960 0.929206
vt 0.393462 0.929206
vt 0.386286 0.946532
vt 0.368960 0.953708
vt 0.546845 0.726070
vt 0.546845 0.744823
vt 0.526547 0.744823
vt 0.526547 0.726070
vt 0.526547 0.688563
vt 0.546845 0.688563
vt 0.546845 0.707316
vt 0.526547 0.707316
vt 0.546845 0.763576
vt 0.526547 0.763576
vt 0.526547 0.613550
vt 0.546845 0.613550
vt 0.526547 0.669810
vt 0.546845 0.669810
vt 0.685602 0.889781
vt 0.669535 0.891415
vt 0.684967 0.883541
vt 0.292079 0.904704
vt 0.309404 0.911880
vt 0.316581 0.929206
vt 0.292079 0.929206
vt 0.274753 0.911880
vt 0.267576 0.929206
vt 0.351634 0.911880
vt 0.368960 0.904704
vt 0.344458 0.929206
vt 0.351634 0.946532
vt 0.292079 0.953708
vt 0.274753 0.946532
vt 0.306844 0.943971
vt 0.311574 0.932552
vt 0.309404 0.946532
vt 0.388455 0.925861
vt 0.383725 0.914441
vt 0.386286 0.911880
vt 0.295424 0.948702
vt 0.372306 0.909711
vt 0.372306 0.925860
vt 0.295424 0.932552
vt 0.679105 0.872659
vt 0.900904 0.363367
vt 0.895042 0.374249
vt 0.883203 0.377799
vt 0.884837 0.361732
vt 0.901538 0.357127
vt 0.913835 0.358378
vt 0.913201 0.364618
vt 0.877939 0.381209
vt 0.888027 0.385246
vt 0.882763 0.388656
vt 0.885472 0.355493
vt 0.876963 0.377164
vt 0.878597 0.361098
vt 0.697899 0.888530
vt 0.697264 0.882290
vt 0.685002 0.874796
vt 0.683464 0.860633
vt 0.689360 0.862770
vt 0.898835 0.392521
vt 0.887462 0.391492
vt 0.899401 0.386275
vt 0.671525 0.855416
vt 0.682899 0.854387
vt 0.672090 0.861662
vt 0.900939 0.372112
vt 0.905297 0.384138
vt 0.892389 0.403570
vt 0.881379 0.397952
vt 0.662002 0.865699
vt 0.666826 0.858252
vt 0.665442 0.848956
vt 0.676453 0.843338
s 1
f 348/609/133 340/610/133 357/611/133 364/612/133
f 353/613/134 350/614/134 351/615/134 354/616/134
f 355/617/135 352/618/135 336/619/135 346/620/135
f 346/621/136 336/622/136 332/623/136 343/624/136
f 339/625/137 341/626/137 335/627/137 331/628/137
f 352/629/138 349/630/138 332/623/138 336/622/138
f 351/615/139 350/614/139 349/631/139 352/632/139
f 333/633/140 337/634/140 341/626/140 339/625/140
f 344/635/141 348/636/141 364/612/141 361/637/141
f 343/638/142 332/639/142 349/640/142 356/641/142
f 331/642/142 343/638/142 356/641/142 339/643/142
f 337/644/135 354/645/135 355/617/135 341/646/135
f 335/627/143 346/621/143 343/624/143 331/628/143
f 341/646/135 355/617/135 346/620/135 335/647/135
f 333/633/144 353/613/144 354/616/144 337/634/144
f 339/643/142 356/641/142 353/648/142 333/649/142
f 334/650/142 340/651/142 349/640/142 350/652/142
f 342/653/135 338/654/135 351/655/135 352/618/135
f 344/656/142 334/650/142 350/652/142 353/648/142
f 338/654/135 345/657/135 354/645/135 351/655/135
f 347/658/135 342/653/135 352/618/135 355/617/135
f 340/651/142 348/659/142 356/641/142 349/640/142
f 345/657/135 347/658/135 355/617/135 354/645/135
f 348/659/142 344/656/142 353/648/142 356/641/142
f 364/612/142 357/611/142 358/660/142 361/637/142
f 362/661/135 359/662/135 360/663/135 363/664/135
f 345/665/134 338/666/134 359/667/134 362/661/134
f 342/668/145 360/663/145 372/669/145 368/670/145
f 347/671/141 345/665/141 362/661/141 363/664/141
f 342/672/133 347/673/133 363/664/133 360/663/133
f 334/674/134 344/635/134 361/637/134 358/675/134
f 334/676/146 358/660/146 370/677/146 366/678/146
f 367/679/147 368/680/147 372/669/147 371/681/147
f 365/682/147 366/683/147 370/677/147 369/684/147
f 359/662/146 338/685/146 367/686/146 371/681/146
f 358/660/142 357/611/142 369/684/142 370/677/142
f 338/687/142 342/688/142 368/680/142 367/679/142
f 360/663/135 359/662/135 371/681/135 372/669/135
f 357/611/145 340/689/145 365/690/145 369/684/145
f 340/691/135 334/692/135 366/683/135 365/682/135
