# Blender 5.1.2
# www.blender.org
mtllib WoodenPallet.mtl
o WoodenPallet
v 0.630000 0.123133 -0.630000
v 0.630000 0.158536 -0.630000
v 0.630000 0.123133 0.630000
v 0.630000 0.158536 0.630000
v -0.630000 0.123133 -0.630000
v -0.630000 0.158536 -0.630000
v -0.630000 0.123133 0.630000
v -0.630000 0.158536 0.630000
v -0.450000 0.123133 0.630000
v -0.090000 0.123133 0.630000
v 0.090000 0.123133 0.630000
v 0.450000 0.123133 0.630000
v 0.448996 0.158536 0.630000
v 0.089507 0.158536 0.630000
v -0.089507 0.158536 0.630000
v -0.448996 0.158536 0.630000
v 0.450000 0.123133 -0.630000
v 0.090000 0.123133 -0.630000
v -0.090000 0.123133 -0.630000
v -0.450000 0.123133 -0.630000
v -0.448996 0.158536 -0.630000
v -0.089507 0.158536 -0.630000
v 0.089507 0.158536 -0.630000
v 0.448996 0.158536 -0.630000
v 0.630000 0.000237 0.630000
v 0.630000 0.000237 -0.630000
v 0.450000 0.000237 0.630000
v -0.630000 0.000237 -0.630000
v -0.630000 0.000237 0.630000
v -0.450000 0.000237 -0.630000
v -0.450000 0.000237 0.630000
v -0.090000 0.000237 0.630000
v 0.090000 0.000237 0.630000
v 0.450000 0.000237 -0.630000
v 0.090000 0.000237 -0.630000
v -0.090000 0.000237 -0.630000
v 0.630000 0.123133 0.484312
v 0.630000 0.123133 0.067334
v 0.630000 0.123133 -0.067334
v 0.630000 0.123133 -0.484312
v 0.630000 0.158536 -0.484312
v 0.630000 0.158536 -0.067334
v 0.630000 0.158536 0.067334
v 0.630000 0.158536 0.484312
v -0.630000 0.123133 -0.484312
v -0.630000 0.123133 -0.067334
v -0.630000 0.123133 0.067334
v -0.630000 0.123133 0.484312
v -0.630000 0.158536 0.484312
v -0.630000 0.158536 0.067334
v -0.630000 0.158536 -0.067334
v -0.630000 0.158536 -0.484312
v -0.448996 0.158536 0.484312
v -0.448996 0.158536 0.067334
v -0.448996 0.158536 -0.067334
v -0.448996 0.158536 -0.484312
v -0.089507 0.158536 0.484312
v -0.089507 0.158536 0.067334
v -0.089507 0.158536 -0.067334
v -0.089507 0.158536 -0.484312
v 0.089507 0.158536 0.484312
v 0.089507 0.158536 0.067334
v 0.089507 0.158536 -0.067334
v 0.089507 0.158536 -0.484312
v 0.448996 0.158536 0.484312
v 0.448996 0.158536 0.067334
v 0.448996 0.158536 -0.067334
v 0.448996 0.158536 -0.484312
v 0.450000 0.123133 0.484312
v 0.450000 0.123133 0.067334
v 0.450000 0.123133 -0.067334
v 0.450000 0.123133 -0.484312
v 0.090000 0.123133 0.484312
v 0.090000 0.123133 0.067334
v 0.090000 0.123133 -0.067334
v 0.090000 0.123133 -0.484312
v -0.090000 0.123133 0.484312
v -0.090000 0.123133 0.067334
v -0.090000 0.123133 -0.067334
v -0.090000 0.123133 -0.484312
v -0.450000 0.123133 0.484312
v -0.450000 0.123133 0.067334
v -0.450000 0.123133 -0.067334
v -0.450000 0.123133 -0.484312
v 0.630000 0.000237 0.484312
v 0.630000 0.000237 0.067334
v 0.630000 0.000237 -0.067334
v 0.630000 0.000237 -0.484312
v -0.630000 0.000237 -0.484312
v -0.630000 0.000237 -0.067334
v -0.630000 0.000237 0.067334
v -0.630000 0.000237 0.484312
v 0.450000 0.000237 0.484312
v 0.450000 0.000237 0.067334
v 0.450000 0.000237 -0.067334
v 0.450000 0.000237 -0.484312
v 0.090000 0.000237 0.484312
v 0.090000 0.000237 0.067334
v 0.090000 0.000237 -0.067334
v 0.090000 0.000237 -0.484312
v -0.090000 0.000237 0.484312
v -0.090000 0.000237 0.067334
v -0.090000 0.000237 -0.067334
v -0.090000 0.000237 -0.484312
v -0.450000 0.000237 0.484312
v -0.450000 0.000237 0.067334
v -0.450000 0.000237 -0.067334
v -0.450000 0.000237 -0.484312
v -0.630000 0.020117 0.630000
v -0.450000 0.020117 0.630000
v -0.450000 0.020117 -0.630000
v -0.630000 0.020117 -0.630000
v -0.450000 0.020117 -0.484312
v -0.450000 0.020117 -0.067334
v -0.450000 0.020117 0.067334
v -0.450000 0.020117 0.484312
v -0.630000 0.020117 0.484312
v -0.630000 0.020117 0.067334
v -0.630000 0.020117 -0.067334
v -0.630000 0.020117 -0.484312
v 0.090000 0.020117 0.630000
v 0.090000 0.020117 -0.630000
v -0.090000 0.020117 -0.630000
v -0.090000 0.020117 0.630000
v -0.090000 0.020117 0.484312
v -0.090000 0.020117 0.067334
v -0.090000 0.020117 -0.067334
v -0.090000 0.020117 -0.484312
v 0.090000 0.020117 -0.484312
v 0.090000 0.020117 -0.067334
v 0.090000 0.020117 0.067334
v 0.090000 0.020117 0.484312
v 0.630000 0.020117 -0.630000
v 0.450000 0.020117 -0.630000
v 0.630000 0.020117 0.630000
v 0.450000 0.020117 0.630000
v 0.450000 0.020117 0.484312
v 0.450000 0.020117 0.067334
v 0.450000 0.020117 -0.067334
v 0.450000 0.020117 -0.484312
v 0.630000 0.020117 -0.484312
v 0.630000 0.020117 -0.067334
v 0.630000 0.020117 0.067334
v 0.630000 0.020117 0.484312
v 0.210000 0.123133 0.630000
v 0.330000 0.123133 0.630000
v 0.322499 0.158536 0.630000
v 0.213120 0.158536 0.630000
v 0.330000 0.123133 -0.630000
v 0.210000 0.123133 -0.630000
v 0.213120 0.158536 -0.630000
v 0.322499 0.158536 -0.630000
v 0.210000 0.123133 0.484312
v 0.330000 0.123133 0.484312
v 0.210000 0.123133 0.067334
v 0.330000 0.123133 0.067334
v 0.210000 0.123133 -0.067334
v 0.330000 0.123133 -0.067334
v 0.210000 0.123133 -0.484312
v 0.330000 0.123133 -0.484312
v 0.322499 0.158536 0.484312
v 0.213120 0.158536 0.484312
v 0.322499 0.158536 0.067334
v 0.213120 0.158536 0.067334
v 0.322499 0.158536 -0.067334
v 0.213120 0.158536 -0.067334
v 0.322499 0.158536 -0.484312
v 0.213120 0.158536 -0.484312
v -0.330000 0.123133 0.630000
v -0.210000 0.123133 0.630000
v -0.213120 0.158536 0.630000
v -0.322499 0.158536 0.630000
v -0.210000 0.123133 -0.630000
v -0.330000 0.123133 -0.630000
v -0.322499 0.158536 -0.630000
v -0.213120 0.158536 -0.630000
v -0.213120 0.158536 0.484312
v -0.322499 0.158536 0.484312
v -0.213120 0.158536 0.067334
v -0.322499 0.158536 0.067334
v -0.213120 0.158536 -0.067334
v -0.322499 0.158536 -0.067334
v -0.213120 0.158536 -0.484312
v -0.322499 0.158536 -0.484312
v -0.330000 0.123133 0.484312
v -0.210000 0.123133 0.484312
v -0.330000 0.123133 0.067334
v -0.210000 0.123133 0.067334
v -0.330000 0.123133 -0.067334
v -0.210000 0.123133 -0.067334
v -0.330000 0.123133 -0.484312
v -0.210000 0.123133 -0.484312
v 0.630000 0.195922 0.484312
v 0.630000 0.195922 0.630000
v -0.448996 0.195922 0.630000
v -0.630000 0.195922 0.630000
v -0.630000 0.195922 -0.484312
v -0.630000 0.195922 -0.630000
v 0.448996 0.195922 -0.630000
v 0.630000 0.195922 -0.630000
v 0.448996 0.195922 0.630000
v -0.448996 0.195922 -0.630000
v -0.448996 0.195922 -0.484312
v -0.089507 0.195922 -0.484312
v -0.089507 0.195922 -0.630000
v 0.089507 0.195922 -0.484312
v 0.089507 0.195922 -0.630000
v 0.448996 0.195922 -0.484312
v 0.630000 0.195922 -0.484312
v 0.630000 0.195922 -0.067334
v 0.630000 0.195922 0.067334
v -0.630000 0.195922 0.484312
v -0.630000 0.195922 0.067334
v -0.630000 0.195922 -0.067334
v -0.448996 0.195922 0.484312
v -0.448996 0.195922 0.067334
v -0.448996 0.195922 -0.067334
v -0.089507 0.195922 0.630000
v -0.089507 0.195922 0.484312
v -0.089507 0.195922 0.067334
v -0.089507 0.195922 -0.067334
v 0.089507 0.195922 0.630000
v 0.089507 0.195922 0.484312
v 0.089507 0.195922 0.067334
v 0.089507 0.195922 -0.067334
v 0.448996 0.195922 0.484312
v 0.448996 0.195922 0.067334
v 0.448996 0.195922 -0.067334
v 0.322499 0.195922 0.630000
v 0.213120 0.195922 0.630000
v 0.213120 0.195922 -0.630000
v 0.322499 0.195922 -0.630000
v 0.322499 0.195922 0.484312
v 0.213120 0.195922 0.484312
v 0.322499 0.195922 0.067334
v 0.213120 0.195922 0.067334
v 0.322499 0.195922 -0.067334
v 0.213120 0.195922 -0.067334
v 0.322499 0.195922 -0.484312
v 0.213120 0.195922 -0.484312
v -0.213120 0.195922 0.630000
v -0.322499 0.195922 0.630000
v -0.322499 0.195922 -0.630000
v -0.213120 0.195922 -0.630000
v -0.213120 0.195922 0.484312
v -0.322499 0.195922 0.484312
v -0.213120 0.195922 0.067334
v -0.322499 0.195922 0.067334
v -0.213120 0.195922 -0.067334
v -0.322499 0.195922 -0.067334
v -0.213120 0.195922 -0.484312
v -0.322499 0.195922 -0.484312
vn 1.0000 -0.0000 -0.0000
vn -0.0000 -0.0000 1.0000
vn -1.0000 -0.0000 -0.0000
vn -0.0000 -0.0000 -1.0000
vn -0.0000 1.0000 -0.0000
vn -0.0000 -1.0000 -0.0000
vn -0.9783 0.2073 -0.0000
vn 0.9961 0.0878 -0.0000
vn 0.9783 0.2073 -0.0000
vn -0.9961 0.0878 -0.0000
vn 0.9999 0.0139 -0.0000
vn -0.9999 0.0139 -0.0000
vn 0.9996 -0.0283 -0.0000
vn -0.9996 -0.0283 -0.0000
vt 0.368068 0.035851
vt 0.368068 0.025002
vt 0.412716 0.025002
vt 0.412716 0.035851
vt 0.582071 0.088003
vt 0.577315 0.098911
vt 0.530481 0.065932
vt 0.536581 0.056985
vt 0.071217 0.647978
vt 0.071217 0.658828
vt 0.026569 0.658828
vt 0.026569 0.647978
vt 0.849368 0.518849
vt 0.854124 0.507922
vt 0.901052 0.540916
vt 0.894948 0.549881
vt 0.831608 0.544935
vt 0.877189 0.575967
vt 0.873761 0.581001
vt 0.828181 0.549969
vt 0.582678 0.443121
vt 0.585007 0.315064
vt 0.596417 0.315670
vt 0.594879 0.441614
vt 0.848463 0.163577
vt 0.846126 0.291568
vt 0.834724 0.290980
vt 0.836264 0.165111
vt 0.826451 0.455871
vt 0.860278 0.463742
vt 0.810898 0.497393
vt 0.337401 0.852783
vt 0.373878 0.848108
vt 0.375407 0.858851
vt 0.337831 0.863666
vt 0.071217 0.239894
vt 0.071217 0.276670
vt 0.026569 0.276670
vt 0.026569 0.239894
vt 0.368068 0.308240
vt 0.412716 0.308240
vt 0.412716 0.314333
vt 0.368068 0.314333
vt 0.071217 0.480712
vt 0.071217 0.517488
vt 0.026569 0.517488
vt 0.026569 0.480712
vt 0.599823 0.061969
vt 0.554333 0.030951
vt 0.557759 0.025927
vt 0.603249 0.056944
vt 0.634501 0.497747
vt 0.632878 0.487368
vt 0.676864 0.485046
vt 0.676320 0.496889
vt 0.484649 0.537432
vt 0.479829 0.524881
vt 0.544520 0.499721
vt 0.548463 0.512924
vt 0.810888 0.508424
vt 0.240278 0.025002
vt 0.199007 0.025002
vt 0.199007 0.013544
vt 0.240278 0.013544
vt 0.796595 0.109156
vt 0.798223 0.119505
vt 0.754321 0.121839
vt 0.754865 0.110016
vt 0.945711 0.069204
vt 0.950560 0.081695
vt 0.886172 0.106986
vt 0.882205 0.093853
vt 0.620490 0.098438
vt 0.620472 0.109454
vt 0.732774 0.489981
vt 0.732809 0.500504
vt 0.638380 0.440994
vt 0.671202 0.440957
vt 0.071217 0.555151
vt 0.071217 0.610315
vt 0.026569 0.610315
vt 0.026569 0.555151
vt 0.071217 0.073515
vt 0.071217 0.128679
vt 0.026569 0.128679
vt 0.026569 0.073515
vt 0.698492 0.116897
vt 0.698461 0.106390
vt 0.498675 0.573953
vt 0.562488 0.549446
vt 0.565195 0.556494
vt 0.501381 0.581001
vt 0.071217 0.375589
vt 0.026569 0.375589
vt 0.026569 0.369497
vt 0.071217 0.369497
vt 0.368068 0.067422
vt 0.412716 0.067422
vt 0.412716 0.073515
vt 0.368067 0.073515
vt 0.071217 0.616408
vt 0.026569 0.616408
vt 0.071217 0.314333
vt 0.026569 0.314333
vt 0.931605 0.032858
vt 0.868098 0.057508
vt 0.865375 0.050494
vt 0.928882 0.025844
vt 0.368068 0.549059
vt 0.412716 0.549059
vt 0.412716 0.555151
vt 0.368068 0.555151
vt 0.071217 0.134771
vt 0.026569 0.134771
vt 0.756940 0.077736
vt 0.700536 0.074110
vt 0.700937 0.067880
vt 0.757340 0.071506
vt 0.412716 0.134771
vt 0.368067 0.134771
vt 0.368067 0.128679
vt 0.412716 0.128679
vt 0.199007 0.134771
vt 0.199007 0.128679
vt 0.240278 0.134771
vt 0.240278 0.128679
vt 0.199007 0.549059
vt 0.199007 0.555151
vt 0.071217 0.549059
vt 0.026569 0.549059
vt 0.240278 0.555151
vt 0.240278 0.549059
vt 0.240278 0.616408
vt 0.240278 0.610315
vt 0.368068 0.610315
vt 0.368068 0.616408
vt 0.412716 0.616408
vt 0.412716 0.610315
vt 0.199007 0.610315
vt 0.199007 0.616408
vt 0.199007 0.067422
vt 0.199007 0.073515
vt 0.071217 0.067422
vt 0.026569 0.067422
vt 0.240278 0.073515
vt 0.240278 0.067422
vt 0.368067 0.375589
vt 0.240278 0.375589
vt 0.240278 0.369497
vt 0.368067 0.369497
vt 0.412716 0.375589
vt 0.412716 0.369497
vt 0.199007 0.375589
vt 0.199007 0.369497
vt 0.674251 0.529218
vt 0.730740 0.532833
vt 0.730341 0.539072
vt 0.673851 0.535457
vt 0.240278 0.314333
vt 0.199007 0.314333
vt 0.044829 0.773295
vt 0.171840 0.787378
vt 0.170618 0.798401
vt 0.043607 0.784319
vt 0.656385 0.114927
vt 0.688836 0.162348
vt 0.657166 0.158694
vt 0.247174 0.716256
vt 0.374185 0.702173
vt 0.375407 0.713196
vt 0.248396 0.727279
vt 0.643438 0.278770
vt 0.679577 0.281255
vt 0.677042 0.320437
vt 0.640805 0.318369
vt 0.209711 0.894439
vt 0.337401 0.889385
vt 0.337831 0.900268
vt 0.210142 0.905322
vt 0.412716 0.480712
vt 0.412716 0.517488
vt 0.368068 0.517488
vt 0.368068 0.480712
vt 0.082768 0.961360
vt 0.210457 0.966413
vt 0.210026 0.977297
vt 0.082337 0.972243
vt 0.240278 0.480712
vt 0.240278 0.517488
vt 0.199007 0.517488
vt 0.199007 0.480712
vt 0.199007 0.308240
vt 0.071217 0.308240
vt 0.026569 0.308240
vt 0.240278 0.308240
vt 0.247174 0.749972
vt 0.374185 0.735889
vt 0.375407 0.746912
vt 0.248396 0.760995
vt 0.412716 0.239894
vt 0.412716 0.276670
vt 0.368068 0.276670
vt 0.368068 0.239894
vt 0.044829 0.811932
vt 0.171840 0.826015
vt 0.170618 0.837038
vt 0.043607 0.822955
vt 0.240278 0.239894
vt 0.240278 0.276670
vt 0.199007 0.276670
vt 0.199007 0.239894
vt 0.628402 0.440395
vt 0.629747 0.317834
vt 0.956038 0.097946
vt 0.898939 0.115331
vt 0.837187 0.117558
vt 0.829402 0.130060
vt 0.807443 0.128311
vt 0.082768 0.927217
vt 0.210457 0.932271
vt 0.210027 0.943155
vt 0.082337 0.938101
vt 0.886497 0.160919
vt 0.209711 0.857836
vt 0.210142 0.868720
vt 0.885775 0.293877
vt 0.882213 0.336509
vt 0.842959 0.332896
vt 0.071217 0.025002
vt 0.071217 0.013544
vt 0.593797 0.489257
vt 0.601637 0.476732
vt 0.623649 0.478524
vt 0.893982 0.337922
vt 0.872400 0.465746
vt 0.632474 0.277826
vt 0.792785 0.165803
vt 0.802753 0.166394
vt 0.026569 0.025002
vt 0.026569 0.013544
vt 0.897731 0.294466
vt 0.368068 0.658828
vt 0.240278 0.658828
vt 0.240278 0.647978
vt 0.368068 0.647978
vt 0.412716 0.647978
vt 0.412716 0.658828
vt 0.199007 0.658828
vt 0.199007 0.647978
vt 0.199007 0.035851
vt 0.071217 0.035851
vt 0.026569 0.035851
vt 0.240278 0.035851
vt 0.922172 0.818464
vt 0.922172 0.690675
vt 0.977336 0.690675
vt 0.977336 0.818464
vt 0.756681 0.690675
vt 0.756681 0.818464
vt 0.701517 0.818464
vt 0.701517 0.690675
vt 0.756681 0.659104
vt 0.701517 0.659104
vt 0.922172 0.850035
vt 0.977336 0.850035
vt 0.811845 0.818464
vt 0.811845 0.690675
vt 0.867009 0.690675
vt 0.867009 0.818464
vt 0.756681 0.946254
vt 0.811845 0.818464
vt 0.811845 0.946254
vt 0.240278 0.407160
vt 0.199007 0.407160
vt 0.756681 0.977824
vt 0.811845 0.977824
vt 0.412716 0.407160
vt 0.368067 0.407160
vt 0.811845 0.850035
vt 0.867009 0.850035
vt 0.588275 0.273752
vt 0.599534 0.274857
vt 0.071217 0.407160
vt 0.026569 0.407160
vt 0.922172 0.946254
vt 0.867009 0.946254
vt 0.922172 0.786893
vt 0.867009 0.786893
vt 0.701517 0.690675
vt 0.646353 0.818464
vt 0.646353 0.690675
vt 0.240278 0.166342
vt 0.199007 0.166342
vt 0.701517 0.659104
vt 0.646353 0.659104
vt 0.412716 0.166342
vt 0.368067 0.166342
vt 0.071217 0.166342
vt 0.026569 0.166342
vt 0.811845 0.659104
vt 0.867009 0.659104
vt 0.811845 0.977824
vt 0.867009 0.977824
vt 0.756681 0.850035
vt 0.701517 0.850035
vt 0.701517 0.977824
vt 0.922172 0.659104
vt 0.977336 0.659104
vt 0.922172 0.977824
vt 0.977336 0.977824
vt 0.756681 0.786893
vt 0.811845 0.786893
vt 0.756681 0.659104
vt 0.811845 0.659104
vt 0.646353 0.850035
vt 0.701517 0.977824
vt 0.646353 0.977824
vt 0.867009 0.977824
vt 0.922172 0.659104
vt 0.867009 0.659104
vt 0.754147 0.286289
vt 0.790372 0.288335
vt 0.787770 0.327938
vt 0.751627 0.325471
vt 0.774130 0.448117
vt 0.798739 0.328874
vt 0.785417 0.448672
vt 0.335915 0.813464
vt 0.372658 0.811932
vt 0.375407 0.822676
vt 0.336674 0.824292
vt 0.898007 0.160976
vt 0.759988 0.165863
vt 0.816904 0.453540
vt 0.831690 0.331807
vt 0.210576 0.746361
vt 0.209816 0.757188
vt 0.240278 0.203118
vt 0.199007 0.203118
vt 0.172978 0.856060
vt 0.172303 0.866889
vt 0.071217 0.203118
vt 0.412716 0.203118
vt 0.368068 0.203118
vt 0.046290 0.922543
vt 0.044761 0.933285
vt 0.837815 0.105183
vt 0.774936 0.491935
vt 0.772886 0.501752
vt 0.026569 0.203118
vt 0.742425 0.444473
vt 0.865429 0.502702
vt 0.906549 0.533291
vt 0.240278 0.443936
vt 0.199007 0.443936
vt 0.210576 0.712644
vt 0.209816 0.723472
vt 0.071217 0.443936
vt 0.412716 0.443936
vt 0.368067 0.443936
vt 0.335914 0.774827
vt 0.372658 0.773295
vt 0.375407 0.784040
vt 0.336674 0.785655
vt 0.549115 0.270090
vt 0.545511 0.312677
vt 0.046290 0.956685
vt 0.044761 0.967428
vt 0.732686 0.442968
vt 0.740826 0.324735
vt 0.604909 0.150912
vt 0.571137 0.143025
vt 0.646731 0.124918
vt 0.626984 0.119128
vt 0.172978 0.892662
vt 0.172303 0.903492
vt 0.801425 0.288863
vt 0.544289 0.445596
vt 0.743309 0.285654
vt 0.658438 0.105123
vt 0.593135 0.501680
vt 0.026569 0.443936
vt 0.247190 0.930494
vt 0.374732 0.922543
vt 0.375407 0.933373
vt 0.247865 0.941324
vt 0.045436 0.848108
vt 0.044761 0.858938
vt 0.247190 0.964637
vt 0.247865 0.975466
vt 0.374732 0.956685
vt 0.375407 0.967515
vt 0.046355 0.702173
vt 0.083099 0.703705
vt 0.082340 0.714532
vt 0.043607 0.712917
vt 0.208438 0.783767
vt 0.209197 0.794595
vt 0.373878 0.884710
vt 0.375407 0.895453
vt 0.045436 0.884710
vt 0.044761 0.895540
vt 0.208438 0.822403
vt 0.209197 0.833231
vt 0.046355 0.735889
vt 0.083099 0.737421
vt 0.082340 0.748249
vt 0.043607 0.746634
vt 0.930216 0.484252
vt 0.469341 0.451582
vt 0.532766 0.445510
vt 0.531725 0.491307
vt 0.474392 0.508557
vt 0.682594 0.440305
vt 0.724045 0.480500
vt 0.685901 0.474180
vt 0.748607 0.166516
vt 0.690374 0.281995
vt 0.698564 0.163854
vt 0.707207 0.126367
vt 0.745299 0.132686
vt 0.687885 0.321074
vt 0.559032 0.141014
vt 0.537362 0.268664
vt 0.477669 0.261420
vt 0.501321 0.122487
vt 0.524986 0.073542
vt 0.566022 0.104114
vt 0.533560 0.312059
vt 0.472546 0.307449
vt 0.958802 0.298922
vt 0.961329 0.154703
vt 0.953771 0.345056
vt 0.804371 0.487710
vt 0.784595 0.481925
vt 0.645890 0.158132
vt 0.614442 0.153248
vt 0.368067 0.013544
vt 0.412716 0.670286
vt 0.368068 0.670286
vt 0.240278 0.670286
vt 0.199007 0.670286
vt 0.071217 0.670286
vt 0.412716 0.013544
vt 0.026569 0.670286
s 0
f 37/1/1 44/2/1 4/3/1 3/4/1
f 9/5/2 16/6/2 8/7/2 7/8/2
f 45/9/3 52/10/3 6/11/3 5/12/3
f 17/13/4 24/14/4 2/15/4 1/16/4
f 134/17/4 133/18/4 26/19/4 34/20/4
f 184/21/3 182/22/3 250/23/3 252/24/3
f 161/25/1 163/26/1 235/27/1 233/28/1
f 167/29/5 68/30/5 24/14/5 152/31/5
f 157/32/4 75/33/4 63/34/4 166/35/4
f 159/36/6 76/37/6 18/38/6 150/39/6
f 132/40/1 121/41/1 33/42/1 97/43/1
f 191/44/6 84/45/6 20/46/6 174/47/6
f 110/48/2 109/49/2 29/50/2 31/51/2
f 173/52/4 176/53/4 22/54/4 19/55/4
f 5/56/4 6/57/4 21/58/4 20/59/4
f 149/60/4 152/31/4 24/14/4 17/13/4
f 43/61/1 42/62/1 210/63/1 211/64/1
f 145/65/2 148/66/2 14/67/2 11/68/2
f 3/69/2 4/70/2 13/71/2 12/72/2
f 169/73/2 172/74/2 16/6/2 9/5/2
f 19/55/4 22/54/4 23/75/4 18/76/4
f 183/77/5 60/78/5 22/54/5 176/53/5
f 108/79/6 89/80/6 28/81/6 30/82/6
f 88/83/6 96/84/6 34/85/6 26/86/6
f 11/68/2 14/67/2 15/87/2 10/88/2
f 112/89/4 111/90/4 30/91/4 28/92/4
f 128/93/3 123/94/3 36/95/3 104/96/3
f 144/97/1 135/98/1 25/99/1 85/100/1
f 120/101/3 112/102/3 28/81/3 89/80/3
f 100/103/6 104/96/6 36/95/6 35/104/6
f 135/105/2 136/106/2 27/107/2 25/108/2
f 116/109/1 110/110/1 31/111/1 105/112/1
f 140/113/3 134/114/3 34/85/3 96/84/3
f 121/115/2 124/116/2 32/117/2 33/118/2
f 136/119/3 137/120/3 93/121/3 27/122/3
f 139/123/3 140/113/3 96/84/3 95/124/3
f 138/125/3 139/123/3 95/124/3 94/126/3
f 114/127/1 107/128/1 108/79/1 113/129/1
f 111/130/1 113/129/1 108/79/1 30/82/1
f 116/109/1 105/112/1 106/131/1 115/132/1
f 114/127/1 115/132/1 106/131/1 107/128/1
f 118/133/3 91/134/3 92/135/3 117/136/3
f 109/137/3 117/136/3 92/135/3 29/138/3
f 120/101/3 89/80/3 90/139/3 119/140/3
f 118/133/3 119/140/3 90/139/3 91/134/3
f 142/141/1 87/142/1 88/83/1 141/143/1
f 133/144/1 141/143/1 88/83/1 26/86/1
f 144/97/1 85/100/1 86/145/1 143/146/1
f 142/141/1 143/146/1 86/145/1 87/142/1
f 125/147/3 126/148/3 102/149/3 101/150/3
f 124/151/3 125/147/3 101/150/3 32/152/3
f 127/153/3 128/93/3 104/96/3 103/154/3
f 126/148/3 127/153/3 103/154/3 102/149/3
f 123/155/4 122/156/4 35/157/4 36/158/4
f 101/150/6 102/149/6 98/159/6 97/43/6
f 33/42/6 32/152/6 101/150/6 97/43/6
f 103/154/6 104/96/6 100/103/6 99/160/6
f 93/121/6 94/126/6 86/145/6 85/100/6
f 25/99/6 27/122/6 93/121/6 85/100/6
f 95/124/6 96/84/6 88/83/6 87/142/6
f 86/145/6 94/126/6 95/124/6 87/142/6
f 91/134/6 106/131/6 105/112/6 92/135/6
f 31/111/6 29/138/6 92/135/6 105/112/6
f 89/80/6 108/79/6 107/128/6 90/139/6
f 106/131/6 91/134/6 90/139/6 107/128/6
f 187/161/7 185/162/7 178/163/7 180/164/7
f 171/165/5 15/87/5 57/166/5 177/167/5
f 191/168/7 189/169/7 182/170/7 184/171/7
f 179/172/5 58/173/5 59/174/5 181/175/5
f 186/176/8 188/177/8 179/178/8 177/179/8
f 169/180/6 9/181/6 81/182/6 185/183/6
f 190/184/8 192/185/8 183/186/8 181/187/8
f 187/188/6 82/189/6 83/190/6 189/191/6
f 130/192/1 99/160/1 100/103/1 129/193/1
f 122/194/1 129/193/1 100/103/1 35/104/1
f 132/40/1 97/43/1 98/159/1 131/195/1
f 130/192/1 131/195/1 98/159/1 99/160/1
f 154/196/9 156/197/9 163/198/9 161/199/9
f 145/200/6 11/201/6 73/202/6 153/203/6
f 158/204/9 160/205/9 167/206/9 165/207/9
f 155/208/6 74/209/6 75/210/6 157/211/6
f 98/159/6 102/149/6 103/154/6 99/160/6
f 181/175/1 183/77/1 251/212/1 249/213/1
f 13/71/2 4/70/2 194/214/2 201/215/2
f 148/66/2 147/216/2 229/217/2 230/218/2
f 155/219/10 153/220/10 162/221/10 164/222/10
f 147/216/5 13/71/5 65/223/5 161/25/5
f 159/224/10 157/32/10 166/35/10 168/225/10
f 163/26/5 66/226/5 67/227/5 165/228/5
f 147/216/1 161/25/1 233/28/1 229/217/1
f 42/62/1 41/229/1 209/230/1 210/63/1
f 176/53/4 175/231/4 243/232/4 244/233/4
f 68/30/3 67/227/3 228/234/3 208/235/3
f 179/172/1 181/175/1 249/213/1 247/236/1
f 162/237/3 148/66/3 230/218/3 234/238/3
f 41/229/1 2/239/1 200/240/1 209/230/1
f 67/227/3 66/226/3 227/241/3 228/234/3
f 49/242/3 50/243/3 47/244/3 48/245/3
f 7/246/3 8/247/3 49/242/3 48/245/3
f 51/248/3 52/10/3 45/9/3 46/249/3
f 47/244/3 50/243/3 51/248/3 46/249/3
f 41/229/1 42/62/1 39/250/1 40/251/1
f 1/252/1 2/239/1 41/229/1 40/251/1
f 43/61/1 44/2/1 37/1/1 38/253/1
f 39/250/1 42/62/1 43/61/1 38/253/1
f 137/120/3 138/125/3 94/126/3 93/121/3
f 47/244/3 46/249/3 119/140/3 118/133/3
f 114/254/5 113/255/5 120/256/5 119/257/5
f 7/246/3 48/245/3 117/136/3 109/137/3
f 116/258/5 115/259/5 118/260/5 117/261/5
f 83/190/1 82/189/1 115/132/1 114/127/1
f 81/262/4 116/258/4 117/261/4 48/263/4
f 20/46/1 84/45/1 113/129/1 111/130/1
f 83/264/4 114/254/4 119/257/4 46/265/4
f 81/182/1 9/181/1 110/110/1 116/109/1
f 45/9/3 5/12/3 112/102/3 120/101/3
f 5/56/4 20/59/4 111/90/4 112/89/4
f 9/5/2 7/8/2 109/49/2 110/48/2
f 75/210/1 74/209/1 131/195/1 130/192/1
f 126/266/5 125/267/5 132/268/5 131/269/5
f 18/38/1 76/37/1 129/193/1 122/194/1
f 128/270/5 127/259/5 130/271/5 129/272/5
f 78/273/3 79/274/3 127/153/3 126/148/3
f 80/275/2 128/270/2 129/272/2 76/276/2
f 10/277/3 77/278/3 125/147/3 124/151/3
f 78/279/2 126/266/2 131/269/2 74/280/2
f 182/22/3 180/281/3 248/282/3 250/23/3
f 19/55/4 18/76/4 122/156/4 123/155/4
f 80/283/3 19/284/3 123/94/3 128/93/3
f 73/202/1 11/201/1 121/41/1 132/40/1
f 138/254/5 137/285/5 144/286/5 143/269/5
f 39/250/1 38/253/1 143/146/1 142/141/1
f 70/287/2 138/254/2 143/269/2 38/288/2
f 1/252/1 40/251/1 141/143/1 133/144/1
f 140/289/5 139/260/5 142/290/5 141/291/5
f 70/292/3 71/293/3 139/123/3 138/125/3
f 72/294/2 140/289/2 141/291/2 40/295/2
f 12/296/3 69/297/3 137/120/3 136/119/3
f 72/298/3 17/299/3 134/114/3 140/113/3
f 3/69/2 12/72/2 136/106/2 135/105/2
f 37/1/1 3/4/1 135/98/1 144/97/1
f 17/13/4 1/16/4 133/18/4 134/17/4
f 125/267/4 77/300/4 73/301/4 132/268/4
f 77/302/6 78/279/6 74/280/6 73/303/6
f 115/259/2 82/304/2 47/305/2 118/260/2
f 82/304/6 81/275/6 48/306/6 47/305/6
f 113/255/2 84/307/2 45/308/2 120/256/2
f 84/309/6 83/264/6 46/265/6 45/310/6
f 127/259/4 79/311/4 75/312/4 130/271/4
f 79/311/6 80/313/6 76/314/6 75/312/6
f 139/260/4 71/305/4 39/315/4 142/290/4
f 71/305/6 72/316/6 40/317/6 39/315/6
f 137/285/4 69/309/4 37/318/4 144/286/4
f 69/319/6 70/287/6 38/288/6 37/320/6
f 62/321/5 164/322/5 166/323/5 63/324/5
f 168/325/3 166/323/3 238/326/3 240/327/3
f 71/328/4 158/329/4 165/330/4 67/331/4
f 66/226/3 65/223/3 226/332/3 227/241/3
f 14/67/5 148/66/5 162/237/5 61/333/5
f 165/228/1 167/29/1 239/334/1 237/335/1
f 69/336/4 154/196/4 161/199/4 65/337/4
f 65/223/3 13/71/3 201/215/3 226/332/3
f 70/292/6 156/338/6 158/339/6 71/293/6
f 156/338/6 155/208/6 157/211/6 158/339/6
f 76/340/2 159/224/2 168/225/2 64/341/2
f 157/211/6 159/36/6 160/342/6 158/339/6
f 12/296/6 146/343/6 154/344/6 69/297/6
f 146/343/6 145/200/6 153/203/6 154/344/6
f 74/345/2 155/219/2 164/222/2 62/346/2
f 153/203/6 155/208/6 156/338/6 154/344/6
f 12/72/2 13/71/2 147/216/2 146/347/2
f 146/347/2 147/216/2 148/66/2 145/65/2
f 18/76/4 23/75/4 151/348/4 150/349/4
f 150/349/4 151/348/4 152/31/4 149/60/4
f 72/298/6 160/342/6 149/350/6 17/299/6
f 160/342/6 159/36/6 150/39/6 149/350/6
f 64/351/5 168/325/5 151/348/5 23/75/5
f 2/15/4 24/14/4 199/352/4 200/353/4
f 78/273/6 188/354/6 190/355/6 79/274/6
f 188/354/6 187/188/6 189/191/6 190/355/6
f 84/356/2 191/168/2 184/171/2 56/357/2
f 189/191/6 191/44/6 192/358/6 190/355/6
f 10/277/6 170/359/6 186/360/6 77/278/6
f 170/359/6 169/180/6 185/183/6 186/360/6
f 82/361/2 187/362/2 180/363/2 54/364/2
f 185/183/6 187/188/6 188/354/6 186/360/6
f 54/365/5 180/281/5 182/22/5 55/366/5
f 163/26/1 165/228/1 237/335/1 235/27/1
f 79/367/4 190/184/4 181/187/4 59/368/4
f 63/324/1 64/351/1 206/369/1 225/370/1
f 16/6/5 172/74/5 178/371/5 53/372/5
f 172/74/2 171/165/2 241/373/2 242/374/2
f 77/375/4 186/176/4 177/179/4 57/376/4
f 166/323/3 164/322/3 236/377/3 238/326/3
f 56/378/5 184/21/5 175/231/5 21/58/5
f 62/321/1 63/324/1 225/370/1 224/379/1
f 10/88/2 15/87/2 171/165/2 170/380/2
f 170/380/2 171/165/2 172/74/2 169/73/2
f 20/59/4 21/58/4 175/231/4 174/381/4
f 174/381/4 175/231/4 176/53/4 173/52/4
f 80/283/6 192/358/6 173/382/6 19/284/6
f 192/358/6 191/44/6 174/47/6 173/382/6
f 73/383/11 74/384/11 62/385/11 61/386/11
f 153/220/4 73/383/4 61/386/4 162/221/4
f 75/387/11 76/340/11 64/341/11 63/388/11
f 192/185/2 80/389/2 60/390/2 183/186/2
f 80/389/12 79/391/12 59/392/12 60/390/12
f 189/393/4 83/394/4 55/395/4 182/396/4
f 83/394/13 84/356/13 56/357/13 55/395/13
f 185/162/4 81/397/4 53/398/4 178/163/4
f 81/397/13 82/361/13 54/364/13 53/398/13
f 188/177/2 78/399/2 58/400/2 179/178/2
f 78/401/12 77/375/12 57/376/12 58/402/12
f 11/68/2 10/88/2 124/116/2 121/115/2
f 160/205/2 72/403/2 68/404/2 167/206/2
f 72/403/14 71/328/14 67/331/14 68/404/14
f 156/405/2 70/406/2 66/407/2 163/408/2
f 70/406/14 69/336/14 65/337/14 66/407/14
f 208/235/5 209/409/5 200/353/5 199/352/5
f 197/410/5 203/411/5 202/412/5 198/413/5
f 204/414/5 206/369/5 207/415/5 205/416/5
f 223/417/5 224/379/5 220/418/5 219/419/5
f 218/420/5 222/421/5 223/417/5 219/419/5
f 225/370/5 206/369/5 204/414/5 221/422/5
f 215/423/5 216/424/5 213/425/5 212/426/5
f 196/427/5 195/428/5 215/423/5 212/426/5
f 217/429/5 203/411/5 197/410/5 214/430/5
f 213/425/5 216/424/5 217/429/5 214/430/5
f 211/431/5 227/241/5 226/332/5 193/432/5
f 201/215/5 194/214/5 193/432/5 226/332/5
f 209/409/5 208/235/5 228/234/5 210/433/5
f 227/241/5 211/431/5 210/433/5 228/234/5
f 220/418/5 224/379/5 225/370/5 221/422/5
f 236/377/5 235/27/5 237/335/5 238/326/5
f 237/335/5 239/334/5 240/327/5 238/326/5
f 230/218/5 229/217/5 233/28/5 234/238/5
f 233/28/5 235/27/5 236/377/5 234/238/5
f 240/327/5 239/334/5 232/434/5 231/435/5
f 248/282/5 247/236/5 249/213/5 250/23/5
f 249/213/5 251/212/5 252/24/5 250/23/5
f 242/374/5 241/373/5 245/436/5 246/437/5
f 245/436/5 247/236/5 248/282/5 246/437/5
f 252/24/5 251/212/5 244/233/5 243/232/5
f 44/2/1 43/61/1 211/64/1 193/438/1
f 164/322/3 162/237/3 234/238/3 236/377/3
f 178/371/3 172/74/3 242/374/3 246/437/3
f 171/165/1 177/167/1 245/436/1 241/373/1
f 152/31/4 151/348/4 231/435/4 232/434/4
f 177/167/1 179/172/1 247/236/1 245/436/1
f 180/281/3 178/371/3 246/437/3 248/282/3
f 21/58/4 6/57/4 198/413/4 202/412/4
f 175/231/3 184/21/3 252/24/3 243/232/3
f 49/242/3 8/247/3 196/439/3 212/440/3
f 183/77/1 176/53/1 244/233/1 251/212/1
f 50/243/3 49/242/3 212/440/3 213/441/3
f 51/248/3 50/243/3 213/441/3 214/442/3
f 56/378/1 21/58/1 202/412/1 203/411/1
f 52/10/3 51/248/3 214/442/3 197/443/3
f 22/54/3 60/78/3 204/414/3 205/416/3
f 16/6/1 53/372/1 215/423/1 195/428/1
f 64/351/1 23/75/1 207/415/1 206/369/1
f 53/372/1 54/365/1 216/424/1 215/423/1
f 24/14/3 68/30/3 208/235/3 199/352/3
f 54/365/1 55/366/1 217/429/1 216/424/1
f 4/3/1 44/2/1 193/438/1 194/444/1
f 55/366/1 56/378/1 203/411/1 217/429/1
f 57/166/3 15/87/3 218/420/3 219/419/3
f 15/87/2 14/67/2 222/421/2 218/420/2
f 58/173/3 57/166/3 219/419/3 220/418/3
f 8/7/2 16/6/2 195/428/2 196/427/2
f 59/174/3 58/173/3 220/418/3 221/422/3
f 151/348/3 168/325/3 240/327/3 231/435/3
f 23/75/4 22/54/4 205/416/4 207/415/4
f 60/78/3 59/174/3 221/422/3 204/414/3
f 167/29/1 152/31/1 232/434/1 239/334/1
f 14/67/1 61/333/1 223/417/1 222/421/1
f 6/11/3 52/10/3 197/443/3 198/445/3
f 61/333/1 62/321/1 224/379/1 223/417/1
