# Blender 5.2.0 LTS
# www.blender.org
mtllib CellCrainRail.mtl
o CellCrainRail
v 1.638771 0.335604 -0.276970
v 0.807175 0.335602 -0.276970
v 0.807175 -0.335602 0.276970
v 1.638771 -0.335602 -0.276970
v 0.807175 -0.335602 -0.276970
v 0.807175 0.335604 0.276970
v 0.807175 0.335604 -0.135016
v 0.807175 0.335604 0.135016
v 0.807175 -0.335604 -0.135016
v 0.807175 -0.335604 0.135016
v 0.000000 0.335604 -0.135016
v 0.000000 0.335604 0.135016
v 0.000000 -0.335604 -0.135016
v 0.000000 -0.335604 0.135016
v 0.807175 -5.019009 0.276970
v 0.807175 -5.019009 -0.276970
v 1.638771 -5.019009 -0.276970
v 1.638771 -5.019009 0.276970
v 0.807175 -5.019011 0.135016
v 0.807175 -5.019011 -0.135016
v 0.807175 5.019011 -0.276970
v 1.638771 5.019011 0.276970
v 0.807175 5.019011 0.276970
v 1.638771 5.019011 -0.276970
v 0.807175 5.019011 0.135016
v 0.807175 5.019011 -0.135016
vn -1.0000 -0.0000 -0.0000
vn 1.0000 -0.0000 -0.0000
vn -0.0000 -0.0000 -1.0000
vn -0.0000 -0.0000 1.0000
vn -0.0000 1.0000 -0.0000
vn -0.0000 -1.0000 -0.0000
vt 0.000000 0.000000
s 0
f 20/1/1 9/1/1 5/1/1 16/1/1
f 1/1/2 24/1/2 22/1/2 18/1/2 17/1/2 4/1/2
f 5/1/3 2/1/3 1/1/3 4/1/3
f 9/1/1 7/1/1 2/1/1 5/1/1
f 16/1/3 5/1/3 4/1/3 17/1/3
f 18/1/4 22/1/4 23/1/4 6/1/4 3/1/4 15/1/4
f 3/1/1 6/1/1 8/1/1 10/1/1
f 15/1/1 3/1/1 10/1/1 19/1/1
f 19/1/1 10/1/1 9/1/1 20/1/1
f 9/1/3 13/1/3 11/1/3 7/1/3
f 14/1/1 12/1/1 11/1/1 13/1/1
f 7/1/5 11/1/5 12/1/5 8/1/5
f 10/1/6 14/1/6 13/1/6 9/1/6
f 8/1/4 12/1/4 14/1/4 10/1/4
f 8/1/1 25/1/1 26/1/1 7/1/1
f 6/1/1 23/1/1 25/1/1 8/1/1
f 7/1/1 26/1/1 21/1/1 2/1/1
f 2/1/3 21/1/3 24/1/3 1/1/3
