# Blender 5.2.1 LTS
# www.blender.org
mtllib CellCranePrt.03.5.mtl
o CellCranePrt.03.5
v -3.391262 4.896472 -1.375386
v -3.391262 4.896472 1.375386
v -3.391262 4.944280 -1.375386
v -3.391262 4.944280 1.375386
v -2.874327 4.944280 -2.504906
v -2.874327 4.896472 -2.504906
v 1.691712 4.896472 -1.375386
v 1.691712 4.896472 1.375386
v 1.691712 4.944280 -1.375386
v 1.691712 4.944280 1.375386
v 1.691712 4.896472 -2.504906
v 1.691712 4.944280 -2.504906
v -2.875603 4.944280 2.502117
v -2.875603 4.896472 2.502117
v 1.691712 4.896472 2.502117
v 1.691712 4.944280 2.502117
v -3.391262 4.944280 0.000000
v 1.691712 4.944280 0.000000
v -3.391262 4.896472 0.000000
v 1.691712 4.896472 0.000000
v -14.598657 3.828169 1.329776
v -15.263079 3.828169 1.151744
v -15.749470 3.828169 0.665353
v -15.927501 3.828169 0.000931
v -15.749470 3.828169 -0.663491
v -15.263079 3.828169 -1.149882
v -14.598657 3.828169 -1.327913
v -13.934235 3.828169 -1.149882
v -13.447844 3.828169 -0.663491
v -13.269813 3.828169 0.000931
v -13.447844 3.828169 0.665353
v -13.934235 3.828169 1.151744
v -14.598657 3.860101 1.329776
v -15.263079 3.860101 1.151744
v -15.749470 3.860101 0.665353
v -15.927501 3.860101 0.000931
v -15.749470 3.860101 -0.663491
v -15.263079 3.860101 -1.149882
v -14.598657 3.860101 -1.327913
v -13.934235 3.860101 -1.149882
v -13.447844 3.860101 -0.663491
v -13.269813 3.860101 0.000931
v -13.447844 3.860101 0.665353
v -13.934235 3.860101 1.151744
v -16.043238 3.860101 -2.501163
v -14.598657 3.860101 -2.888238
v -13.154070 3.860101 -2.501163
v -12.096560 3.860101 -1.443653
v -14.598657 3.860101 2.890100
v -16.043238 3.860101 2.503025
v -17.100750 3.860101 -1.443653
v -13.154070 3.860101 2.503025
v -17.487825 3.860101 0.000931
v -12.096560 3.860101 1.445516
v -17.100750 3.860101 1.445516
v -11.709486 3.860101 0.000931
v -17.487825 3.828169 0.000931
v -14.598657 3.828169 2.890100
v -13.154070 3.828169 2.503025
v -17.100750 3.828169 -1.443653
v -14.598657 3.828169 -2.888238
v -16.043238 3.828169 -2.501163
v -12.096560 3.828169 1.445516
v -17.100750 3.828169 1.445516
v -11.709486 3.828169 0.000931
v -16.043238 3.828169 2.503025
v -12.096560 3.828169 -1.443653
v -13.154070 3.828169 -2.501163
vn -0.0000 1.0000 -0.0000
vn -0.0000 -1.0000 -0.0000
vt 0.999933 0.999634
vt -0.027498 0.999634
vt -0.027498 0.721625
vt 0.999933 0.721625
vt 0.999933 1.000198
vt 0.076991 1.000197
vt -0.027498 0.771885
vt 0.999933 0.771885
vt 0.999933 0.493876
vt -0.027498 0.493876
vt 0.999933 0.722188
vt -0.027498 0.722188
vt 0.076991 0.493876
vt 0.999933 0.999634
vt 0.076733 0.999634
vt 0.076733 0.493876
vt 0.999933 0.493876
vt 0.999933 1.000197
vt -0.027498 1.000197
vt 0.617794 0.695965
vt 0.704025 0.609734
vt 0.943590 0.748047
vt 0.756107 0.935530
vt 0.500000 0.727528
vt 0.617794 0.695965
vt 0.756107 0.935530
vt 0.500000 1.004154
vt 0.735588 0.491940
vt 1.012214 0.491940
vt 0.704025 0.609734
vt 0.943590 0.748047
vt 0.264413 0.491940
vt 0.295976 0.609734
vt 0.056410 0.748047
vt -0.012214 0.491940
vt 0.735588 0.491940
vt 1.012214 0.491940
vt 0.382207 0.695965
vt 0.243894 0.935530
vt 0.500000 0.727528
vt 0.500000 1.004154
vt 0.382206 0.695965
vt 0.243893 0.935530
vt 0.295975 0.609734
vt 0.056410 0.748047
vt 0.264412 0.491940
vt -0.012213 0.491940
vt 0.500000 0.727527
vt 0.617794 0.695965
vt 0.756107 0.935530
vt 0.500000 1.004154
vt 0.382206 0.695965
vt 0.243893 0.935530
vt 0.500000 0.727528
vt 0.617793 0.695965
vt 0.756106 0.935530
vt 0.500000 1.004154
vt 0.295976 0.609734
vt 0.056410 0.748047
vt 0.382206 0.695965
vt 0.243893 0.935530
vt 0.264413 0.491940
vt -0.012214 0.491940
vt 0.704025 0.609734
vt 0.943590 0.748047
vt 0.735588 0.491940
vt 1.012214 0.491940
vt 0.704024 0.609734
vt 0.943590 0.748047
vt 0.264412 0.491940
vt 0.295975 0.609734
vt 0.056410 0.748047
vt -0.012214 0.491940
vt 0.735587 0.491940
vt 1.012214 0.491940
s 0
usemtl M_Mesh
f 18/1/1 17/2/1 4/3/1 10/4/1
f 12/5/1 5/6/1 3/7/1 9/8/1
f 20/9/2 8/8/2 2/7/2 19/10/2
f 11/9/2 7/11/2 1/12/2 6/13/2
f 8/8/2 15/14/2 14/15/2 2/7/2
f 10/4/1 4/3/1 13/16/1 16/17/1
f 9/8/1 3/7/1 17/10/1 18/9/1
f 7/11/2 20/18/2 19/19/2 1/12/2
f 41/20/1 42/21/1 56/22/1 48/23/1
f 34/24/1 35/25/1 55/26/1 50/27/1
f 42/21/1 43/28/1 54/29/1 56/22/1
f 35/25/1 36/30/1 53/31/1 55/26/1
f 43/32/1 44/33/1 52/34/1 54/35/1
f 36/30/1 37/36/1 51/37/1 53/31/1
f 33/38/1 34/24/1 50/27/1 49/39/1
f 40/40/1 41/20/1 48/23/1 47/41/1
f 39/42/1 40/40/1 47/41/1 46/43/1
f 38/44/1 39/42/1 46/43/1 45/45/1
f 37/46/1 38/44/1 45/45/1 51/47/1
f 44/33/1 33/38/1 49/39/1 52/34/1
f 28/48/2 27/49/2 61/50/2 68/51/2
f 29/52/2 28/48/2 68/51/2 67/53/2
f 22/54/2 21/55/2 58/56/2 66/57/2
f 30/58/2 29/52/2 67/53/2 65/59/2
f 23/60/2 22/54/2 66/57/2 64/61/2
f 31/62/2 30/58/2 65/59/2 63/63/2
f 27/49/2 26/64/2 62/65/2 61/50/2
f 26/64/2 25/66/2 60/67/2 62/65/2
f 21/55/2 32/68/2 59/69/2 58/56/2
f 25/70/2 24/71/2 57/72/2 60/73/2
f 32/68/2 31/74/2 63/75/2 59/69/2
f 24/71/2 23/60/2 64/61/2 57/72/2
