# Blender 5.1.2
# www.blender.org
mtllib CellCranePrt.02.mtl
o CellCranePrt.02
v 0.000000 -1.000000 1.000000
v 0.000000 1.000000 1.000000
v 0.000000 -1.000000 -1.000000
v 0.000000 1.000000 -1.000000
v 0.500000 -1.000000 -0.866025
v 0.500000 1.000000 -0.866025
v 0.866025 -1.000000 -0.500000
v 0.866025 1.000000 -0.500000
v 1.000000 -1.000000 0.000000
v 1.000000 1.000000 0.000000
v 0.866025 -1.000000 0.500000
v 0.866025 1.000000 0.500000
v 0.500000 -1.000000 0.866025
v 0.500000 1.000000 0.866025
v 0.000000 1.000000 -0.500000
v 0.000000 1.000000 0.000000
v 0.000000 1.000000 0.500000
v 0.000000 -1.000000 0.500000
v 0.000000 -1.000000 0.000000
v 0.000000 -1.000000 -0.500000
v -8.271530 -1.000000 1.038285
v -8.271530 1.000000 1.038285
v -8.710361 -1.000000 0.599454
v -8.710361 1.000000 0.599454
v -8.870984 -1.000000 0.000000
v -8.870984 1.000000 0.000000
v -8.710361 -1.000000 -0.599454
v -8.710361 1.000000 -0.599454
v -8.271530 -1.000000 -1.038285
v -8.271530 1.000000 -1.038285
v -7.672076 -1.000000 -1.198908
v -7.672076 1.000000 -1.198908
v -7.672076 -1.000000 0.599454
v -7.672076 -1.000000 0.000000
v -7.672076 -1.000000 -0.599454
v -7.072623 -1.000000 -1.038285
v -7.072623 1.000000 -1.038285
v -6.633792 -1.000000 -0.599454
v -6.633792 1.000000 -0.599454
v -6.473168 -1.000000 -0.000000
v -6.473168 1.000000 -0.000000
v -6.633792 -1.000000 0.599454
v -6.633792 1.000000 0.599454
v -7.072622 -1.000000 1.038284
v -7.072622 1.000000 1.038284
v -7.672076 -1.000000 1.198908
v -7.672076 1.000000 1.198908
v 0.683013 -1.000000 0.683013
v 0.683013 1.000000 0.683013
v 0.000000 1.000000 0.750000
v 0.000000 -1.000000 0.750000
v 0.683013 -1.000000 -0.683013
v 0.683013 1.000000 -0.683013
v 0.000000 1.000000 -0.750000
v 0.000000 -1.000000 -0.750000
v -8.710361 1.236915 0.599454
v -8.271530 1.236915 1.038285
v -8.870984 1.236915 0.000000
v -8.710361 1.236915 -0.599454
v -8.271530 1.236915 -1.038285
v -7.672076 1.236915 -1.198908
v -7.672076 1.236915 -0.599454
v -7.672076 1.236915 0.000000
v -7.672076 1.236915 0.599454
v -6.633792 1.236915 -0.599454
v -7.072623 1.236915 -1.038285
v -6.473168 1.236915 -0.000000
v -6.633792 1.236915 0.599454
v -7.072622 1.236915 1.038284
v -7.672076 1.236915 1.198908
vn 0.2588 -0.0000 -0.9659
vn 0.7071 -0.0000 -0.7071
vn 0.9659 -0.0000 -0.2588
vn 0.9659 -0.0000 0.2588
vn -0.0000 1.0000 -0.0000
vn 0.7071 -0.0000 0.7071
vn 0.2588 -0.0000 0.9659
vn -0.0000 -1.0000 -0.0000
vn -0.2588 -0.0000 0.9659
vn -0.7071 -0.0000 0.7071
vn -0.9659 -0.0000 0.2588
vn -0.9659 -0.0000 -0.2588
vn -0.7071 -0.0000 -0.7071
vn -0.2588 -0.0000 -0.9659
vn 0.0259 -0.0000 0.9997
vn 0.0259 -0.0000 -0.9997
vt 0.500000 0.500000
vt 0.500000 1.000000
vt 0.416667 1.000000
vt 0.416667 0.500000
vt 0.375000 0.500000
vt 0.375000 1.000000
vt 0.333333 1.000000
vt 0.333333 0.500000
vt 0.250000 1.000000
vt 0.250000 0.500000
vt 0.166667 1.000000
vt 0.166667 0.500000
vt 0.500000 1.000000
vt 0.125000 0.500000
vt 0.125000 1.000000
vt 0.083333 1.000000
vt 0.083333 0.500000
vt 0.000000 1.000000
vt 0.000000 0.500000
vt 0.750000 1.000000
vt 1.000000 1.000000
vt 0.500000 0.500000
vt 1.000000 0.500000
vt 0.750000 0.500000
vt 0.916667 1.000000
vt 0.916667 0.500000
vt 0.833333 1.000000
vt 0.833333 0.500000
vt 0.750000 1.000000
vt 0.750000 0.500000
vt 0.666667 1.000000
vt 0.666667 0.500000
vt 0.583333 1.000000
vt 0.583333 0.500000
s 0
f 3/1/1 4/2/1 6/3/1 5/4/1
f 52/5/2 53/6/2 8/7/2 7/8/2
f 7/8/3 8/7/3 10/9/3 9/10/3
f 9/10/4 10/9/4 12/11/4 11/12/4
f 16/13/5 17/13/5 12/11/5 10/9/5
f 48/14/6 49/15/6 14/16/6 13/17/6
f 13/17/7 14/16/7 2/18/7 1/19/7
f 15/2/5 16/13/5 10/9/5 8/7/5
f 53/6/5 54/2/5 15/2/5 8/7/5
f 49/15/5 50/20/5 2/21/5 14/16/5
f 18/22/8 19/22/8 9/10/8 11/12/8
f 19/22/8 20/1/8 7/8/8 9/10/8
f 52/5/8 7/8/8 20/1/8 55/1/8
f 48/14/8 13/17/8 1/23/8 51/24/8
f 46/23/9 47/21/9 22/25/9 21/26/9
f 21/26/10 22/25/10 24/27/10 23/28/10
f 23/28/11 24/27/11 26/29/11 25/30/11
f 25/30/12 26/29/12 28/31/12 27/32/12
f 27/32/13 28/31/13 30/33/13 29/34/13
f 29/34/14 30/33/14 32/2/14 31/1/14
f 45/33/6 43/31/6 68/31/6 69/33/6
f 30/33/13 28/31/13 59/31/13 60/33/13
f 32/2/14 30/33/14 60/33/14 61/2/14
f 41/29/3 39/27/3 65/27/3 67/29/3
f 25/30/8 27/32/8 35/1/8 34/22/8
f 23/28/8 25/30/8 34/22/8 33/22/8
f 27/32/8 29/34/8 31/1/8 35/1/8
f 46/23/8 21/26/8 23/28/8 33/22/8
f 37/25/1 32/2/1 61/2/1 66/25/1
f 47/21/7 45/33/7 69/33/7 70/21/7
f 22/25/9 47/21/9 70/21/9 57/25/9
f 43/31/4 41/29/4 67/29/4 68/31/4
f 40/30/8 42/32/8 33/1/8 34/22/8
f 38/28/8 40/30/8 34/22/8 35/22/8
f 42/32/8 44/34/8 46/1/8 33/1/8
f 31/23/8 36/26/8 38/28/8 35/22/8
f 2/18/15 47/21/15 46/23/15 1/19/15
f 11/12/8 48/14/8 51/24/8 18/22/8
f 12/11/5 17/13/5 50/20/5 49/15/5
f 11/12/6 12/11/6 49/15/6 48/14/6
f 5/4/8 52/5/8 55/1/8 3/1/8
f 6/3/5 4/2/5 54/2/5 53/6/5
f 5/4/2 6/3/2 53/6/2 52/5/2
f 44/34/8 51/24/8 1/23/8 46/23/8
f 51/24/8 44/34/8 42/32/8 18/22/8
f 18/22/8 42/32/8 40/30/8 19/22/8
f 19/22/8 40/30/8 38/28/8 20/1/8
f 20/1/8 38/28/8 36/26/8 55/1/8
f 36/26/8 31/23/8 3/1/8 55/1/8
f 3/1/16 31/23/16 32/2/16 4/2/16
f 37/25/5 54/2/5 4/2/5 32/2/5
f 54/2/5 37/25/5 39/27/5 15/2/5
f 15/2/5 39/27/5 41/29/5 16/13/5
f 16/13/5 41/29/5 43/31/5 17/13/5
f 17/13/5 43/31/5 45/33/5 50/20/5
f 45/33/5 47/21/5 2/21/5 50/20/5
f 59/31/5 58/29/5 63/13/5 62/2/5
f 58/29/5 56/27/5 64/13/5 63/13/5
f 59/31/5 62/2/5 61/2/5 60/33/5
f 70/21/5 64/13/5 56/27/5 57/25/5
f 68/31/5 67/29/5 63/13/5 64/2/5
f 67/29/5 65/27/5 62/13/5 63/13/5
f 68/31/5 64/2/5 70/2/5 69/33/5
f 61/21/5 62/13/5 65/27/5 66/25/5
f 28/31/12 26/29/12 58/29/12 59/31/12
f 26/29/11 24/27/11 56/27/11 58/29/11
f 39/27/2 37/25/2 66/25/2 65/27/2
f 24/27/10 22/25/10 57/25/10 56/27/10
