# Blender 5.2.1 LTS
# www.blender.org
mtllib CellCranePrt.01.mtl
o CellCranePrt.01
v -5.868817 1.279395 2.392344
v -5.868817 3.729133 2.392344
v -6.551094 1.279395 2.209529
v -6.551094 3.729133 2.209529
v -7.050554 1.279395 1.710068
v -7.050554 3.729133 1.710068
v -7.233369 1.279395 1.027792
v -7.233369 3.729133 1.027792
v -7.050554 1.279395 0.345516
v -7.050554 3.729133 0.345516
v -6.551094 1.279395 -0.153945
v -6.551094 3.729133 -0.153945
v -5.868817 1.279395 -0.336760
v -5.868817 3.729133 -0.336760
v -5.186542 1.279395 -0.153945
v -5.186542 3.729133 -0.153945
v -4.687081 1.279395 0.345516
v -4.687081 3.729133 0.345516
v -4.504266 1.279395 1.027792
v -4.504266 3.729133 1.027792
v -4.687081 1.279395 1.710068
v -4.687081 3.729133 1.710068
v -5.186542 1.279395 2.209529
v -5.186542 3.729133 2.209529
v -1.945593 1.699750 0.097004
v -1.945593 2.297842 0.097004
v -1.945593 1.699750 0.422310
v -1.945593 2.297842 0.422310
v -2.362094 1.699750 0.097004
v -2.362094 2.297842 0.097004
v -2.362094 1.699750 0.422310
v -2.362094 2.297842 0.422310
v -3.753139 1.781437 0.422310
v -3.753139 1.279397 0.422310
v -3.753139 1.279397 0.097004
v -3.753139 1.781437 0.097004
v -2.748873 1.279395 0.097004
v -2.748873 1.279395 0.422310
v -3.386275 1.279395 0.422310
v -3.753141 0.789298 0.097004
v -3.753141 0.789298 0.422310
v -3.386276 0.789296 0.422310
v -1.945593 -1.699692 -0.486486
v -1.945593 -2.297784 -0.486486
v -1.945593 -1.699692 -0.161179
v -1.945593 -2.297784 -0.161179
v -2.362094 -1.699692 -0.486486
v -2.362094 -2.297784 -0.486486
v -2.362094 -1.699692 -0.161179
v -2.362094 -2.297784 -0.161179
v -3.753139 -1.781379 -0.161179
v -3.753139 -1.279339 -0.161179
v -3.753139 -1.279339 -0.486486
v -3.753139 -1.781379 -0.486486
v -2.748873 -1.279337 -0.486486
v -2.748873 -1.279337 -0.161179
v -3.386275 -1.279337 -0.486486
v -3.753141 -0.789240 -0.486486
v -3.753141 -0.789240 -0.161179
v -3.386276 -0.789238 -0.486486
v -3.054908 -0.948370 -0.161179
v -3.054908 0.948428 -0.161179
v -3.054908 -0.948370 0.097004
v -3.054908 0.948428 0.097004
v -3.918190 -1.279339 -0.161179
v -3.918190 1.279395 -0.161179
v -3.918190 -1.279339 0.097004
v -3.918190 1.279395 0.097004
v -3.054908 -0.789240 -0.161179
v -3.054908 -0.789240 0.097004
v -3.918190 -0.789240 0.097004
v -3.918190 -0.789240 -0.161179
v -3.386276 -1.279339 0.097004
v -3.386276 1.279395 0.097004
v -3.386276 -1.279338 -0.161179
v -3.386276 1.279395 -0.161179
v -3.386276 -0.789239 -0.161179
v -3.386276 -0.789240 0.097004
v -3.054908 0.789296 -0.161179
v -3.054908 0.789296 0.097004
v -3.918190 0.789296 0.097004
v -3.918190 0.789296 -0.161179
v -3.386276 0.789296 -0.161179
v -3.386276 0.789296 0.097004
v -3.918190 0.789296 0.370814
v -3.918190 -0.789240 0.370814
v -3.386276 -0.789240 0.370814
v -3.386276 0.789296 0.370814
v -3.918190 0.789296 -0.434990
v -3.918190 -0.789240 -0.434990
v -3.386276 -0.789240 -0.434990
v -3.386276 0.789296 -0.434990
v -7.551979 1.000030 2.471333
v -4.296118 -1.279339 0.097004
v -4.296118 -1.279339 -0.161179
v -4.296118 1.279395 0.097004
v -4.296118 1.279395 -0.161179
v -4.296118 1.000030 2.471333
v -4.296118 1.279395 2.471333
v -7.551979 1.279395 2.471333
v -4.296118 1.000030 0.370814
v -4.296118 -0.999972 0.370814
v -4.296118 1.000030 -0.434990
v -4.296118 -0.999972 -0.434990
v -3.918190 -1.279339 -0.434990
v -3.918190 1.279395 -0.434990
v -3.918190 -1.279339 0.370814
v -3.918190 1.279395 0.370814
v -4.296118 1.279395 -0.434990
v -4.296118 1.279395 0.370814
v -4.296118 -1.279339 0.370814
v -4.296118 -1.279339 -0.434990
v -7.551979 1.000030 -0.434990
v -7.551979 1.279395 -0.434990
v -6.766436 -0.999972 0.097004
v -6.766436 -1.279339 0.097004
v -6.766436 -1.279339 -0.161179
v -7.551979 1.279395 0.097004
v -7.551979 1.279395 -0.161179
v -6.766436 -0.999972 -0.161179
v -7.551979 1.000030 0.097004
v -7.551979 1.000030 -0.161179
v -7.551979 1.000030 0.370814
v -6.766436 -0.999972 0.370814
v -6.766436 -0.999972 -0.434990
v -7.551979 1.279395 0.370814
v -6.766436 -1.279339 -0.434990
v -6.766436 -1.279339 0.370814
v -6.766436 -1.279339 2.471333
v -4.296118 -1.279339 2.471333
v -4.296118 -0.999972 2.471333
v -6.766436 -0.999972 2.471333
v -5.113013 1.279395 -0.161179
v -5.113013 1.279395 -0.434990
v -5.113013 -1.279339 0.097004
v -5.113013 1.279395 0.370814
v -5.113013 1.279395 0.097004
v -5.113013 -1.279339 0.370814
v -5.113013 1.000030 -0.434990
v -5.113013 -0.999972 -0.434990
v -5.113013 -1.279339 -0.434990
v -5.113013 -1.279339 -0.161179
v -5.113013 1.279395 2.471333
v -5.113013 1.000030 2.471333
v -5.113013 -1.279339 2.471333
v -5.113013 -0.999972 2.471333
v -5.113013 1.000030 0.370814
v -5.113013 -0.999972 0.370814
v -5.113013 1.000030 0.097004
v -5.113013 -0.999972 0.097004
v -5.113013 1.000030 -0.161179
v -5.113013 -0.999972 -0.161179
v -0.617901 3.144716 0.402570
v -0.617901 0.922966 0.402570
v -0.617901 3.144716 -0.415126
v -0.617901 0.922966 -0.415126
v -1.435597 1.059352 0.402570
v -1.435597 1.059352 -0.415126
v -0.617901 2.404133 0.402570
v -0.617901 1.663549 0.402570
v -0.617901 1.663549 -0.415126
v -0.617901 2.404133 -0.415126
v -1.435597 1.663549 -0.309269
v -1.435597 2.404133 -0.309269
v -1.435597 1.663549 0.402570
v -1.435597 2.404133 0.402570
v -0.617901 1.416688 0.402570
v -0.617901 1.169827 0.402570
v -0.617901 1.169827 -0.415126
v -0.617901 1.416688 -0.415126
v -1.435597 1.169827 -0.415126
v -1.435597 1.416688 -0.415126
v -1.435597 1.169827 0.402570
v -1.435597 1.416688 0.402570
v -0.617901 2.650994 -0.415126
v -0.617901 2.897855 -0.415126
v -1.435597 2.650994 -0.415126
v -1.435597 2.897855 -0.415126
v -1.435597 2.650994 0.402570
v -1.435597 2.897855 0.402570
v -0.617901 2.897855 0.402570
v -0.617901 2.650994 0.402570
v -0.617901 3.144716 0.203412
v -0.617901 0.922966 0.203412
v -1.435597 1.059352 0.203412
v -1.435597 1.663549 0.309269
v -0.617901 2.404133 0.203412
v -0.617901 1.663549 0.203412
v -1.435597 1.416688 0.203412
v -1.435597 1.169827 0.203412
v -0.617901 1.416688 0.203412
v -0.617901 1.169827 0.203412
v -0.617901 2.897855 0.203412
v -0.617901 2.650994 0.203412
v -1.435597 2.897855 0.203412
v -1.435597 2.650994 0.203412
v -0.415793 1.169827 -0.415126
v -0.415793 1.416688 -0.415126
v -0.415793 1.416688 0.203412
v -0.415793 1.169827 0.203412
v -0.415793 2.650994 -0.415126
v -0.415793 2.897855 -0.415126
v -0.415793 2.897855 0.203412
v -0.415793 2.650994 0.203412
v -0.617901 1.169827 -0.643013
v -0.617901 1.416688 -0.643013
v -0.617901 2.650994 -0.643013
v -0.617901 2.897855 -0.643013
v -0.415793 1.169827 -0.781192
v -0.415793 1.416688 -0.781192
v -0.415793 2.650994 -0.781192
v -0.415793 2.897855 -0.781192
v 0.415801 1.169827 -0.415126
v 0.415801 1.416688 -0.415126
v 0.415801 2.650994 -0.415126
v 0.415801 2.897855 -0.415126
v 0.415801 1.169827 -0.781192
v 0.415801 1.416688 -0.781192
v 0.415801 2.650994 -0.781192
v 0.415801 2.897855 -0.781192
v 0.617754 1.169827 -0.415126
v 0.617754 1.416688 -0.415126
v 0.617754 2.650994 -0.415126
v 0.617754 2.897855 -0.415126
v 0.617754 1.169827 -0.643013
v 0.617754 1.416688 -0.643013
v 0.617754 2.650994 -0.643013
v 0.617754 2.897855 -0.643013
v 0.415801 1.169827 0.203412
v 0.415801 1.416688 0.203412
v 0.415801 2.650994 0.203412
v 0.415801 2.897855 0.203412
v 0.617754 1.169827 0.203412
v 0.617754 1.416688 0.203412
v 0.617754 2.650994 0.203412
v 0.617754 2.897855 0.203412
v 0.415801 3.037879 -0.415126
v 0.617754 3.037879 -0.415126
v 0.617754 1.029801 -0.415126
v 0.415801 1.029801 -0.415126
v 0.415801 3.037879 0.203412
v 0.617754 3.037879 0.203412
v 0.617754 1.029801 0.203412
v 0.415801 1.029801 0.203412
v 0.415801 2.510689 -0.415126
v 0.617754 2.510689 -0.415126
v 0.415801 1.556993 -0.415126
v 0.617754 1.556993 -0.415126
v 0.415801 2.510689 0.203412
v 0.617754 2.510689 0.203412
v 0.415801 1.556993 0.203412
v 0.617754 1.556993 0.203412
v -1.168032 3.144716 -0.415126
v -1.168032 0.922966 -0.415126
v -1.168032 3.144716 0.402570
v -1.168032 0.922966 0.402570
v -1.168032 2.404133 0.402570
v -1.168032 1.663549 0.402570
v -1.435597 1.169827 -0.484131
v -1.168032 1.416688 0.402570
v -1.168032 1.169827 0.402570
v -1.435597 2.404133 -0.484131
v -1.168032 1.169827 -0.415126
v -1.168032 2.897855 -0.415126
v -1.435597 1.663549 -0.484131
v -1.168032 2.897855 0.402570
v -1.168032 2.650994 0.402570
v -1.168032 0.922966 0.203412
v -1.168032 3.144716 0.203412
v -1.435597 1.416688 -0.484131
v -1.435597 2.650994 -0.484131
v -1.435597 2.897855 -0.484131
v -1.168032 1.169827 -0.643013
v -1.168032 2.897855 -0.643013
v -1.168031 2.404133 -0.643013
v -1.168031 1.416688 -0.643013
v -1.168031 2.650994 -0.643013
v -1.168031 1.663549 -0.643013
v -0.617901 1.663549 -0.643013
v -0.617901 2.404133 -0.643013
v 0.415801 1.169827 0.343653
v 0.415801 1.416688 0.343653
v 0.415801 2.650994 0.343653
v 0.415801 2.897855 0.343653
v 0.617754 1.169827 0.343653
v 0.617754 1.416688 0.343653
v 0.617754 2.650994 0.343653
v 0.617754 2.897855 0.343653
v 0.415801 3.037879 0.343653
v 0.617754 3.037879 0.343653
v 0.617754 1.029801 0.343653
v 0.415801 1.029801 0.343653
v 0.415801 2.510689 0.343653
v 0.617754 2.510689 0.343653
v 0.415801 1.556993 0.343653
v 0.617754 1.556993 0.343653
v 0.415801 1.556993 0.107416
v 0.617754 1.556993 0.107416
v 0.222624 2.650994 0.203412
v 0.222624 2.897855 0.203412
v 0.222624 3.037879 0.203412
v 0.222624 3.037879 0.343653
v -0.415796 1.029801 0.203412
v 0.222624 2.510689 0.203412
v -0.415796 1.556993 0.203412
v -0.415796 1.169827 0.343653
v -0.415796 1.416688 0.343653
v 0.222624 2.650994 0.343653
v 0.222624 2.897855 0.343653
v -0.415796 1.029801 0.343653
v 0.222624 2.510689 0.343653
v -0.415796 1.556993 0.343653
v -0.415791 1.663549 -0.415126
v -0.415791 2.404133 -0.415126
v -0.415791 2.404133 0.203412
v -0.415791 1.663549 0.203412
v -0.415791 1.663549 -0.202861
v -0.415791 2.404133 -0.202861
v -1.168032 0.922966 -0.202861
v -1.168032 3.144716 -0.202861
v -0.415793 2.650994 -0.202861
v -0.415793 2.897855 -0.202861
v -0.415793 1.169827 -0.202861
v -0.415793 1.416688 -0.202861
v -1.435597 2.650994 -0.202861
v -1.435597 2.897855 -0.202861
v -1.435597 1.169827 -0.202861
v -1.435597 1.416688 -0.202861
v -1.435597 1.663549 -0.202861
v -1.435597 2.404133 -0.202861
v -1.435597 1.059352 -0.202861
v -0.617901 3.144716 -0.202861
v -0.617901 2.650994 -0.202861
v -0.617901 2.897855 -0.202861
v -0.617901 1.169827 -0.202861
v -0.617901 1.416688 -0.202861
v -0.617901 1.663549 -0.202861
v -0.617901 2.404133 -0.202861
v -0.617901 0.922966 -0.202861
v -0.617903 1.029801 0.203412
v -0.617903 1.556993 0.203412
v -0.617903 1.169827 0.343653
v -0.617903 1.416688 0.343653
v -0.617903 1.029801 0.343653
v -0.617903 1.556993 0.343653
v 0.415801 1.029801 0.107416
v 0.617754 1.029801 0.107416
v 0.415801 1.416688 0.107416
v 0.617754 1.416688 0.107416
v 0.415801 1.169827 0.107416
v 0.617754 1.169827 0.107416
v -0.415796 3.037879 0.203412
v -0.415796 3.037879 0.343653
v -0.415796 2.510689 0.203412
v -0.415796 2.650994 0.343653
v -0.415796 2.897855 0.343653
v -0.415796 2.510689 0.343653
v -0.617903 3.037879 0.343653
v -0.617903 2.510689 0.203412
v -0.617903 2.650994 0.343653
v -0.617903 2.897855 0.343653
v -0.617903 2.510689 0.343653
v 0.617754 2.650994 0.107416
v 0.415801 2.650994 0.107416
v 0.415801 2.897855 0.107416
v 0.617754 2.897855 0.107416
v 0.415801 3.037879 0.107416
v 0.617754 3.037879 0.107416
v 0.617754 2.510689 0.107416
v 0.415801 2.510689 0.107416
v 0.617754 1.556993 -0.311681
v 0.415801 1.556993 -0.311681
v 0.617754 1.029801 -0.311681
v 0.415801 1.416688 -0.311681
v 0.617754 1.416688 -0.311681
v 0.617754 1.169827 -0.311681
v 0.415801 1.169827 -0.311681
v 0.415801 1.029801 -0.311681
v 0.415801 2.650994 -0.311681
v 0.415801 2.897855 -0.311681
v 0.415801 3.037879 -0.311681
v 0.415801 2.510689 -0.311681
v 0.617754 2.650994 -0.311681
v 0.617754 2.897855 -0.311681
v 0.617754 3.037879 -0.311681
v 0.617754 2.510689 -0.311681
v -0.617901 3.037442 0.203412
v -1.435597 1.097995 0.402570
v -1.435597 1.097995 -0.415126
v -0.617901 1.029801 0.402570
v -1.435597 1.097995 0.203412
v -1.168032 1.029801 0.402570
v -1.435597 1.097995 -0.202861
v -0.617901 1.029801 -0.415126
v -0.617901 1.029801 -0.202861
v -1.168032 1.029801 -0.415126
v -0.617901 1.556994 -0.415126
v -1.435597 1.556994 -0.415126
v -1.435597 1.556994 0.402570
v -0.617901 1.556993 0.402570
v -1.435597 1.556994 -0.484131
v -0.617901 2.404133 0.343653
v -1.435597 1.556994 0.203412
v -1.168032 1.556994 0.402570
v -0.617901 1.556994 -0.643013
v -1.168031 1.556994 -0.643013
v -1.435597 1.556994 -0.202861
v -0.617901 1.556994 -0.202861
v -0.617901 1.663549 0.343653
v -0.617901 2.510689 0.402570
v -0.617901 2.510689 -0.415126
v -1.435597 2.510689 -0.415126
v -1.435597 2.510689 0.402570
v -0.617901 3.144716 0.343653
v -1.435597 2.510689 0.203412
v -1.435597 2.510689 -0.484131
v -1.168032 2.510689 0.402570
v -1.168031 2.510689 -0.643013
v -0.617901 2.510689 -0.643013
v -0.617901 2.510689 -0.202861
v -1.435597 2.510689 -0.202861
v -1.435597 1.059352 0.343653
v -1.435597 2.404133 0.343653
v -1.435597 1.663549 0.343653
v -1.435597 1.416688 0.343653
v -1.435597 1.169827 0.343653
v -1.435597 2.897855 0.343653
v -1.435597 2.650994 0.343653
v -0.617901 0.922966 0.343653
v -1.168032 0.922966 0.343653
v -1.168032 3.144716 0.343653
v -1.435597 1.097995 0.343653
v -1.435597 1.556994 0.343653
v -1.435597 2.510689 0.343653
v -0.617901 3.037879 -0.415126
v -0.617901 3.037879 -0.202861
v -1.168032 3.037879 -0.415126
v -0.617901 3.037879 0.402570
v -1.168032 3.037879 0.402570
v -0.617901 -0.857977 0.402570
v -0.617901 -3.079727 0.402570
v -0.617901 -0.857977 -0.415126
v -0.617901 -3.079727 -0.415126
v -1.435597 -2.943341 0.402570
v -1.435597 -2.943341 -0.415126
v -0.617901 -1.598560 0.402570
v -0.617901 -2.339144 0.402570
v -0.617901 -2.339144 -0.415126
v -0.617901 -1.598560 -0.415126
v -1.435597 -2.339144 -0.415126
v -1.435597 -1.598560 -0.415126
v -1.435597 -2.339144 0.402570
v -1.435597 -1.598560 0.402570
v -0.617901 -2.586004 0.402570
v -0.617901 -2.832866 0.402570
v -0.617901 -2.832866 -0.415126
v -0.617901 -2.586004 -0.415126
v -1.435597 -2.832866 -0.415126
v -1.435597 -2.586004 -0.415126
v -1.435597 -2.832866 0.402570
v -1.435597 -2.586004 0.402570
v -0.617901 -1.351699 -0.415126
v -0.617901 -1.104838 -0.415126
v -1.435597 -1.351699 -0.415126
v -1.435597 -1.104838 -0.415126
v -1.435597 -1.351699 0.402570
v -1.435597 -1.104838 0.402570
v -0.617901 -1.104838 0.402570
v -0.617901 -1.351699 0.402570
v -0.617901 -0.857977 0.203412
v -0.617901 -3.079727 0.203412
v -1.435597 -2.943341 0.203412
v -1.435597 -1.598560 0.203412
v -1.435597 -2.339144 0.203412
v -0.617901 -1.598560 0.203412
v -0.617901 -2.339144 0.203412
v -1.435597 -2.586004 0.203412
v -1.435597 -2.832866 0.203412
v -0.617901 -2.586004 0.203412
v -0.617901 -2.832866 0.203412
v -0.617901 -1.104838 0.203412
v -0.617901 -1.351699 0.203412
v -1.435597 -1.104838 0.203412
v -1.435597 -1.351699 0.203412
v -0.415793 -2.832866 -0.415126
v -0.415793 -2.586004 -0.415126
v -0.415793 -2.586004 0.203412
v -0.415793 -2.832866 0.203412
v -0.415793 -1.351699 -0.415126
v -0.415793 -1.104838 -0.415126
v -0.415793 -1.104838 0.203412
v -0.415793 -1.351699 0.203412
v -0.617901 -2.832866 -0.643013
v -0.617901 -2.586004 -0.643013
v -0.617901 -1.351699 -0.643013
v -0.617901 -1.104838 -0.643013
v -0.415793 -2.832866 -0.781192
v -0.415793 -2.586004 -0.781192
v -0.415793 -1.351699 -0.781192
v -0.415793 -1.104838 -0.781192
v 0.415801 -2.832866 -0.415126
v 0.415801 -2.586004 -0.415126
v 0.415801 -1.351699 -0.415126
v 0.415801 -1.104838 -0.415126
v 0.415801 -2.832866 -0.781192
v 0.415801 -2.586004 -0.781192
v 0.415801 -1.351699 -0.781192
v 0.415801 -1.104838 -0.781192
v 0.617754 -2.832866 -0.415126
v 0.617754 -2.586004 -0.415126
v 0.617754 -1.351699 -0.415126
v 0.617754 -1.104838 -0.415126
v 0.617754 -2.832866 -0.643013
v 0.617754 -2.586004 -0.643013
v 0.617754 -1.351699 -0.643013
v 0.617754 -1.104838 -0.643013
v 0.415801 -2.832866 0.203412
v 0.415801 -2.586004 0.203412
v 0.415801 -1.351699 0.203412
v 0.415801 -1.104838 0.203412
v 0.617754 -2.832866 0.203412
v 0.617754 -2.586004 0.203412
v 0.617754 -1.351699 0.203412
v 0.617754 -1.104838 0.203412
v 0.415801 -0.964813 -0.415126
v 0.617754 -0.964813 -0.415126
v 0.617754 -2.972891 -0.415126
v 0.415801 -2.972891 -0.415126
v 0.415801 -0.964813 0.203412
v 0.617754 -0.964813 0.203412
v 0.617754 -2.972891 0.203412
v 0.415801 -2.972891 0.203412
v 0.415801 -1.492004 -0.415126
v 0.617754 -1.492004 -0.415126
v 0.415801 -2.445699 -0.415126
v 0.617754 -2.445699 -0.415126
v 0.415801 -1.492004 0.203412
v 0.617754 -1.492004 0.203412
v 0.415801 -2.445699 0.203412
v 0.617754 -2.445699 0.203412
v -1.168032 -0.857977 -0.415126
v -1.168032 -3.079727 -0.415126
v -1.168032 -0.857977 0.402570
v -1.168032 -3.079727 0.402570
v -1.168032 -1.598560 0.402570
v -1.168032 -2.339144 0.402570
v -1.435597 -2.832866 -0.484131
v -1.168032 -2.586004 0.402570
v -1.168032 -2.832866 0.402570
v -1.435597 -1.598560 -0.484131
v -1.168032 -2.832866 -0.415126
v -1.168032 -1.104838 -0.415126
v -1.435597 -2.339144 -0.484131
v -1.168032 -1.104838 0.402570
v -1.168032 -1.351699 0.402570
v -1.168032 -3.079727 0.203412
v -1.168032 -0.857977 0.203412
v -1.435597 -2.586004 -0.484131
v -1.435597 -1.351699 -0.484131
v -1.435597 -1.104838 -0.484131
v -1.168032 -2.832866 -0.643013
v -1.168032 -1.104838 -0.643013
v -1.168031 -1.598560 -0.643013
v -1.168031 -2.586004 -0.643013
v -1.168031 -1.351699 -0.643013
v -1.168031 -2.339144 -0.643013
v -0.617901 -2.339144 -0.643013
v -0.617901 -1.598560 -0.643013
v 0.415801 -2.832866 0.343653
v 0.415801 -2.586004 0.343653
v 0.415801 -1.351699 0.343653
v 0.415801 -1.104838 0.343653
v 0.617754 -2.832866 0.343653
v 0.617754 -2.586004 0.343653
v 0.617754 -1.351699 0.343653
v 0.617754 -1.104838 0.343653
v 0.415801 -0.964813 0.343653
v 0.617754 -0.964813 0.343653
v 0.617754 -2.972891 0.343653
v 0.415801 -2.972891 0.343653
v 0.415801 -1.492004 0.343653
v 0.617754 -1.492004 0.343653
v 0.415801 -2.445699 0.343653
v 0.617754 -2.445699 0.343653
v 0.415801 -2.445699 0.107416
v 0.617754 -2.445699 0.107416
v 0.222624 -1.351699 0.203412
v 0.222624 -1.104838 0.203412
v 0.222624 -0.964813 0.203412
v 0.222624 -0.964813 0.343653
v -0.415796 -2.972891 0.203412
v 0.222624 -1.492004 0.203412
v -0.415796 -2.445699 0.203412
v -0.415796 -2.832866 0.343653
v -0.415796 -2.586004 0.343653
v 0.222624 -1.351699 0.343653
v 0.222624 -1.104838 0.343653
v -0.415796 -2.972891 0.343653
v 0.222624 -1.492004 0.343653
v -0.415796 -2.445699 0.343653
v -0.415791 -2.339144 -0.415126
v -0.415791 -1.598560 -0.415126
v -0.415791 -1.598560 0.203412
v -0.415791 -2.339144 0.203412
v -2.393260 -2.339144 -0.202861
v -2.393260 -1.598560 -0.202861
v -1.914428 -2.339144 -0.202861
v -1.914428 -1.598560 -0.202861
v -0.415791 -2.339144 -0.202861
v -0.415791 -1.598560 -0.202861
v -1.168032 -3.079727 -0.202861
v -1.168032 -0.857977 -0.202861
v -0.415793 -1.351699 -0.202861
v -0.415793 -1.104838 -0.202861
v -0.415793 -2.832866 -0.202861
v -0.415793 -2.586004 -0.202861
v -1.435597 -1.351699 -0.202861
v -1.435597 -1.104838 -0.202861
v -1.435597 -2.832866 -0.202861
v -1.435597 -2.586004 -0.202861
v -1.435597 -2.339144 -0.202861
v -1.435597 -1.598560 -0.202861
v -1.435597 -2.943341 -0.202861
v -0.617901 -0.857977 -0.202861
v -0.617901 -1.351699 -0.202861
v -0.617901 -1.104838 -0.202861
v -0.617901 -2.832866 -0.202861
v -0.617901 -2.586004 -0.202861
v -0.617901 -2.339144 -0.202861
v -0.617901 -1.598560 -0.202861
v -0.617901 -3.079727 -0.202861
v -1.914428 -2.339144 0.203412
v -1.914428 -2.339144 -0.415126
v -1.914428 -1.598560 0.203412
v -1.914428 -1.598560 -0.415126
v -2.393260 -2.339144 0.203412
v -2.393260 -1.598560 0.203412
v -0.617903 -2.972891 0.203412
v -0.617903 -2.445699 0.203412
v -0.617903 -2.832866 0.343653
v -0.617903 -2.586004 0.343653
v -0.617903 -2.972891 0.343653
v -0.617903 -2.445699 0.343653
v 0.415801 -2.972891 0.107416
v 0.617754 -2.972891 0.107416
v 0.415801 -2.586004 0.107416
v 0.617754 -2.586004 0.107416
v 0.415801 -2.832866 0.107416
v 0.617754 -2.832866 0.107416
v -0.415796 -0.964813 0.203412
v -0.415796 -0.964813 0.343653
v -0.415796 -1.492004 0.203412
v -0.415796 -1.351699 0.343653
v -0.415796 -1.104838 0.343653
v -0.415796 -1.492004 0.343653
v -0.617903 -0.964813 0.343653
v -0.617903 -1.492004 0.203412
v -0.617903 -1.351699 0.343653
v -0.617903 -1.104838 0.343653
v -0.617903 -1.492004 0.343653
v 0.617754 -1.351699 0.107416
v 0.415801 -1.351699 0.107416
v 0.415801 -1.104838 0.107416
v 0.617754 -1.104838 0.107416
v 0.415801 -0.964813 0.107416
v 0.617754 -0.964813 0.107416
v 0.617754 -1.492004 0.107416
v 0.415801 -1.492004 0.107416
v 0.617754 -2.445699 -0.311681
v 0.415801 -2.445699 -0.311681
v 0.617754 -2.972891 -0.311681
v 0.415801 -2.586004 -0.311681
v 0.617754 -2.586004 -0.311681
v 0.617754 -2.832866 -0.311681
v 0.415801 -2.832866 -0.311681
v 0.415801 -2.972891 -0.311681
v 0.415801 -1.351699 -0.311681
v 0.415801 -1.104838 -0.311681
v 0.415801 -0.964813 -0.311681
v 0.415801 -1.492004 -0.311681
v 0.617754 -1.351699 -0.311681
v 0.617754 -1.104838 -0.311681
v 0.617754 -0.964813 -0.311681
v 0.617754 -1.492004 -0.311681
v -0.617901 -0.965250 0.203412
v -1.435597 -2.904698 0.402570
v -1.435597 -2.904698 -0.415126
v -0.617901 -2.972891 0.402570
v -1.435597 -2.904698 0.203412
v -1.168032 -2.972891 0.402570
v -1.435597 -2.904698 -0.202861
v -0.617901 -2.972891 -0.415126
v -0.617901 -2.972891 -0.202861
v -1.168032 -2.972891 -0.415126
v -0.617901 -2.445699 -0.415126
v -1.435597 -2.445699 -0.415126
v -1.435597 -2.445699 0.402570
v -0.617901 -2.445699 0.402570
v -1.435597 -2.445699 -0.484131
v -0.617901 -1.598560 0.343653
v -1.435597 -2.445699 0.203412
v -1.168032 -2.445699 0.402570
v -0.617901 -2.445699 -0.643013
v -1.168031 -2.445699 -0.643013
v -1.435597 -2.445699 -0.202861
v -0.617901 -2.445699 -0.202861
v -0.617901 -2.339144 0.343653
v -0.617901 -1.492004 0.402570
v -0.617901 -1.492004 -0.415126
v -1.435597 -1.492004 -0.415126
v -1.435597 -1.492004 0.402570
v -0.617901 -0.857977 0.343653
v -1.435597 -1.492004 0.203412
v -1.435597 -1.492004 -0.484131
v -1.168032 -1.492004 0.402570
v -1.168031 -1.492004 -0.643013
v -0.617901 -1.492004 -0.643013
v -0.617901 -1.492004 -0.202861
v -1.435597 -1.492004 -0.202861
v -1.435597 -2.943341 0.343653
v -1.435597 -1.598560 0.343653
v -1.435597 -2.339144 0.343653
v -1.435597 -2.586004 0.343653
v -1.435597 -2.832866 0.343653
v -1.435597 -1.104838 0.343653
v -1.435597 -1.351699 0.343653
v -0.617901 -3.079727 0.343653
v -1.168032 -3.079727 0.343653
v -1.168032 -0.857977 0.343653
v -1.435597 -2.904698 0.343653
v -1.435597 -2.445699 0.343653
v -1.435597 -1.492004 0.343653
v -0.617901 -0.964814 -0.415126
v -0.617901 -0.964814 -0.202861
v -1.168032 -0.964814 -0.415126
v -0.617901 -0.964813 0.402570
v -1.168032 -0.964813 0.402570
v -1.435597 2.404133 0.309269
v -2.393260 2.404133 0.097004
v -2.393260 1.663549 0.097004
v -1.914428 2.404133 0.097004
v -1.914428 1.663549 0.097004
v -1.435597 2.404133 0.097004
v -1.435597 1.663549 0.097004
v -1.914428 2.404133 -0.309269
v -1.914428 2.404133 0.309269
v -1.914428 1.663549 -0.309269
v -1.914428 1.663549 0.309269
v -2.393260 2.404133 -0.309269
v -2.393260 1.663549 -0.309269
vn -0.2588 -0.0000 0.9659
vn -0.7071 -0.0000 0.7071
vn -0.9659 -0.0000 0.2588
vn -0.9659 -0.0000 -0.2588
vn -0.7071 -0.0000 -0.7071
vn -0.2588 -0.0000 -0.9659
vn 0.2588 -0.0000 -0.9659
vn 0.7071 -0.0000 -0.7071
vn 0.9659 -0.0000 -0.2588
vn 0.9659 -0.0000 0.2588
vn -0.0000 1.0000 -0.0000
vn 0.7071 -0.0000 0.7071
vn 0.2588 -0.0000 0.9659
vn 1.0000 -0.0000 -0.0000
vn -0.0000 -0.0000 1.0000
vn -0.3480 0.9375 -0.0000
vn -0.0000 -0.0000 -1.0000
vn -0.0000 -1.0000 -0.0000
vn -1.0000 -0.0000 -0.0000
vn 0.7359 -0.6771 -0.0000
vn -0.3480 -0.9375 -0.0000
vn 0.7359 0.6771 -0.0000
vn 0.7067 0.7075 -0.0000
vn 0.7067 -0.7075 -0.0000
vn -0.5644 -0.0000 -0.8255
vn 0.5647 -0.0000 -0.8253
vn -0.4541 -0.8909 -0.0000
vn -0.6781 0.7350 -0.0000
vn -0.5106 -0.0000 -0.8598
vn -0.0011 1.0000 -0.0016
vt 0.000000 0.150206
vt 0.173647 0.150206
vt 0.173647 0.200274
vt 0.000000 0.200274
vt 0.173647 0.250343
vt 0.000000 0.250343
vt 0.173647 0.300411
vt 0.000000 0.300411
vt 0.173647 0.350480
vt 0.000000 0.350480
vt 0.173647 0.400548
vt 0.000000 0.400548
vt 0.173647 0.450617
vt 0.000000 0.450617
vt 0.173647 0.500685
vt 0.000000 0.500685
vt 0.173647 0.550754
vt 0.000000 0.550754
vt 0.173647 0.600822
vt 0.000000 0.600822
vt -0.000000 0.000000
vt 0.173647 -0.000000
vt 0.173647 0.050069
vt 0.000000 0.050069
vt 0.786709 0.788025
vt 0.786709 0.838093
vt 0.761675 0.881454
vt 0.718314 0.906488
vt 0.668246 0.906488
vt 0.624885 0.881454
vt 0.599851 0.838093
vt 0.599851 0.788025
vt 0.624885 0.744664
vt 0.668246 0.719630
vt 0.718314 0.719630
vt 0.761675 0.744664
vt 0.173647 0.100137
vt -0.000000 0.100137
vt 0.622910 0.471223
vt 0.622910 0.513618
vt 0.599851 0.513618
vt 0.599851 0.471223
vt 0.883947 0.656195
vt 0.844202 0.670949
vt 0.833928 0.643272
vt 0.873672 0.628517
vt 0.691024 0.029523
vt 0.714083 0.029523
vt 0.714083 0.134701
vt 0.691024 0.134701
vt 0.532337 0.781889
vt 0.492593 0.767135
vt 0.502867 0.739457
vt 0.542612 0.754212
vt 0.599851 0.441699
vt 0.622910 0.441699
vt 0.691024 -0.000000
vt 0.714083 -0.000000
vt 0.691024 0.170288
vt 0.714083 0.170288
vt 0.833928 0.538094
vt 0.867290 0.525708
vt 0.525954 0.884698
vt 0.492593 0.872313
vt 0.550729 0.817962
vt 0.535005 0.860319
vt 0.622910 0.401209
vt 0.599851 0.401209
vt 0.599851 0.356027
vt 0.622910 0.356027
vt 0.876340 0.550087
vt 0.899858 0.513618
vt 0.908908 0.537997
vt 0.892065 0.592445
vt 0.599851 0.295282
vt 0.622910 0.295282
vt 0.622910 0.321287
vt 0.599851 0.321287
vt 0.714083 0.205028
vt 0.691024 0.205028
vt 0.567573 0.872410
vt 0.558523 0.896789
vt 0.561033 0.175941
vt 0.584092 0.175941
vt 0.584092 0.218336
vt 0.561033 0.218336
vt 0.648629 0.128126
vt 0.648629 0.098603
vt 0.691024 0.098603
vt 0.691024 0.128126
vt 0.714083 0.175505
vt 0.714083 0.070327
vt 0.737142 0.070327
vt 0.737142 0.175505
vt 0.330594 0.876676
vt 0.340868 0.904354
vt 0.301124 0.919109
vt 0.290849 0.891431
vt 0.561033 0.146417
vt 0.584092 0.146417
vt 0.737142 0.205028
vt 0.714083 0.205028
vt 0.714083 0.034740
vt 0.737142 0.034740
vt 0.618832 0.000000
vt 0.654419 0.000000
vt 0.290849 0.786253
vt 0.324211 0.773868
vt 0.333261 0.798247
vt 0.348986 0.840604
vt 0.561033 0.105927
vt 0.561033 0.060745
vt 0.584092 0.060745
vt 0.584092 0.105927
vt 0.618832 0.026005
vt 0.584092 0.026005
vt 0.584092 0.000000
vt 0.618832 0.071187
vt 0.561033 0.026005
vt 0.561033 -0.000000
vt 0.714083 -0.000000
vt 0.737142 0.000000
vt 0.356779 0.761777
vt 0.365829 0.786156
vt 0.397960 0.708435
vt 0.397960 0.719715
vt 0.379659 0.719715
vt 0.379659 0.708435
vt 0.868668 0.708654
vt 0.833928 0.708654
vt 0.833928 0.670949
vt 0.868668 0.670949
vt 0.453218 0.563775
vt 0.438280 0.590564
vt 0.418477 0.590564
vt 0.418477 0.563775
vt 0.851020 0.441915
vt 0.851020 0.476655
vt 0.827531 0.453195
vt 0.827531 0.441915
vt 0.341949 0.574487
vt 0.341949 0.536782
vt 0.360251 0.536782
vt 0.360251 0.574487
vt 0.379659 0.752913
vt 0.397960 0.752913
vt 0.851020 0.295282
vt 0.851020 0.330022
vt 0.827531 0.330022
vt 0.827531 0.318742
vt 0.810439 0.513618
vt 0.810439 0.548358
vt 0.772735 0.548358
vt 0.772735 0.513618
vt 0.397960 0.585262
vt 0.397960 0.596542
vt 0.379659 0.596542
vt 0.379659 0.585262
vt 0.833928 0.537078
vt 0.833928 0.548358
vt 0.868668 0.670949
vt 0.903408 0.670949
vt 0.903408 0.708654
vt 0.868668 0.708654
vt 0.341950 0.037704
vt 0.341950 -0.000000
vt 0.360251 0.000000
vt 0.360251 0.037704
vt 0.379659 0.552064
vt 0.397960 0.552064
vt 0.888724 0.441915
vt 0.888724 0.476655
vt 0.833928 0.660251
vt 0.833928 0.671531
vt 0.810439 0.694991
vt 0.810439 0.660251
vt 0.414400 0.037704
vt 0.526293 0.037704
vt 0.541230 0.064493
vt 0.399462 0.064493
vt 0.561033 0.037704
vt 0.561033 0.064493
vt 0.341949 0.509993
vt 0.360251 0.509993
vt 0.379659 0.479619
vt 0.379660 0.367726
vt 0.399068 0.367726
vt 0.399068 0.479619
vt 0.418477 0.479619
vt 0.418477 0.517324
vt 0.399069 0.517324
vt 0.399068 0.479619
vt 0.418477 0.330022
vt 0.418477 0.367726
vt 0.399068 0.367726
vt 0.399068 0.330022
vt 0.453218 0.526071
vt 0.565111 0.526071
vt 0.565111 0.563775
vt 0.379659 0.517324
vt 0.399068 0.517324
vt 0.379659 0.064493
vt 0.379659 0.037704
vt 0.379660 0.330022
vt 0.399068 0.330022
vt 0.360251 0.122398
vt 0.379659 0.122398
vt 0.379659 0.295282
vt 0.360251 0.295282
vt 0.379659 0.122398
vt 0.399462 0.122398
vt 0.399462 0.295282
vt 0.379659 0.295282
vt 0.360251 0.452088
vt 0.341949 0.452088
vt 0.341949 0.334887
vt 0.360251 0.334887
vt 0.322541 0.122398
vt 0.341949 0.122398
vt 0.341949 0.295282
vt 0.322541 0.295282
vt 0.580048 0.590564
vt 0.599851 0.590564
vt 0.599851 0.739457
vt 0.580048 0.739457
vt 0.599851 0.563775
vt 0.360251 0.064493
vt 0.341949 0.064493
vt 0.418477 0.552064
vt 0.399069 0.552064
vt 0.379659 0.295282
vt 0.399068 0.295282
vt 0.399068 0.552064
vt 0.418477 0.295282
vt 0.399068 0.295282
vt 0.322541 0.536782
vt 0.322541 0.509993
vt 0.541230 0.122398
vt 0.561033 0.122398
vt 0.561033 0.239599
vt 0.541230 0.239599
vt 0.379659 0.509993
vt 0.379659 0.536782
vt 0.438280 0.739457
vt 0.418477 0.739457
vt 0.379659 0.037704
vt 0.379659 0.064493
vt 0.322541 0.064493
vt 0.322541 0.037704
vt 0.379659 0.452088
vt 0.379659 0.334887
vt 0.341949 0.315084
vt 0.360251 0.315084
vt 0.341949 0.315085
vt 0.360251 0.315084
vt 0.322541 0.334887
vt 0.322541 0.315085
vt 0.379659 0.315085
vt 0.379659 0.315084
vt 0.322541 0.315084
vt 0.173647 0.315084
vt 0.173647 0.295282
vt 0.322541 0.452088
vt 0.599851 0.468166
vt 0.580048 0.468166
vt 0.580048 0.350964
vt 0.599851 0.350964
vt 0.438280 0.468166
vt 0.418477 0.468166
vt 0.418477 0.295282
vt 0.438280 0.295282
vt 0.173647 0.122398
vt 0.414400 -0.000000
vt 0.526293 0.000000
vt 0.173647 0.334887
vt 0.173647 0.315084
vt 0.173647 0.509993
vt 0.173647 0.452088
vt 0.173647 0.064493
vt 0.438280 0.526071
vt 0.418477 0.526071
vt 0.599851 0.526071
vt 0.580048 0.526071
vt 0.764678 0.481885
vt 0.764678 0.501294
vt 0.622910 0.501294
vt 0.622910 0.481885
vt 0.764678 0.295282
vt 0.764678 0.444175
vt 0.622910 0.444175
vt 0.622910 0.295282
vt 0.290849 0.780499
vt 0.173647 0.780499
vt 0.173647 0.761090
vt 0.290849 0.761090
vt 0.173647 0.742789
vt 0.290849 0.742789
vt 0.173647 0.723380
vt 0.290849 0.723380
vt 0.290849 0.574487
vt 0.173647 0.574487
vt 0.599851 0.513618
vt 0.772735 0.513618
vt 0.772735 0.533027
vt 0.599851 0.533027
vt 0.772735 0.551328
vt 0.599851 0.551328
vt 0.772735 0.570736
vt 0.599851 0.570736
vt 0.772735 0.719630
vt 0.599851 0.719630
vt 0.764678 0.463584
vt 0.622910 0.463584
vt 0.752418 0.925454
vt 0.744845 0.925454
vt 0.754513 0.906488
vt 0.757252 0.906488
vt 0.432594 0.747030
vt 0.461393 0.747030
vt 0.461393 0.756956
vt 0.432594 0.756956
vt 0.942510 0.504378
vt 0.942510 0.501638
vt 0.946686 0.501638
vt 0.946686 0.504378
vt 0.879791 0.727203
vt 0.879791 0.719630
vt 0.918786 0.719630
vt 0.918786 0.727203
vt 0.942510 0.480351
vt 0.942510 0.441355
vt 0.946686 0.441355
vt 0.946686 0.480351
vt 0.879791 0.832174
vt 0.879791 0.824621
vt 0.918786 0.824621
vt 0.918786 0.832174
vt 0.879791 0.772125
vt 0.918786 0.772125
vt 0.349525 0.669532
vt 0.349525 0.661979
vt 0.353702 0.661979
vt 0.353702 0.669532
vt 0.349525 0.609484
vt 0.353702 0.609484
vt 0.461393 0.852001
vt 0.461393 0.844448
vt 0.476439 0.844448
vt 0.476439 0.852001
vt 0.744845 0.920814
vt 0.744845 0.973310
vt 0.730519 0.973310
vt 0.730519 0.920814
vt 0.879791 0.764572
vt 0.879791 0.754627
vt 0.918786 0.754627
vt 0.918786 0.764572
vt 0.879791 0.737128
vt 0.918786 0.737128
vt 0.349525 0.601931
vt 0.349525 0.591985
vt 0.353702 0.591985
vt 0.353702 0.601931
vt 0.349525 0.574487
vt 0.353702 0.574487
vt 0.944907 0.441355
vt 0.941481 0.422701
vt 0.957368 0.419783
vt 0.949718 0.440471
vt 0.461393 0.784400
vt 0.461393 0.774454
vt 0.476439 0.774454
vt 0.476439 0.784400
vt 0.934857 0.698607
vt 0.934857 0.712934
vt 0.918703 0.712934
vt 0.908908 0.698607
vt 0.432594 0.889340
vt 0.432594 0.879445
vt 0.461393 0.879445
vt 0.461393 0.889371
vt 0.849251 0.245146
vt 0.839305 0.245146
vt 0.839305 0.199892
vt 0.849251 0.199892
vt 0.135750 0.775917
vt 0.125824 0.775917
vt 0.125824 0.736921
vt 0.135750 0.736921
vt 0.295740 0.679478
vt 0.295740 0.696976
vt 0.290849 0.696976
vt 0.290849 0.679478
vt 0.349525 0.696976
vt 0.349525 0.679478
vt 0.353702 0.679478
vt 0.353702 0.696976
vt 0.879790 0.869543
vt 0.879791 0.859618
vt 0.918786 0.859618
vt 0.918786 0.869543
vt 0.879791 0.842119
vt 0.918786 0.842119
vt 0.310786 0.696976
vt 0.310786 0.679478
vt 0.339585 0.679478
vt 0.339585 0.696976
vt 0.476439 0.879445
vt 0.476439 0.889371
vt 0.370447 0.634067
vt 0.360506 0.634067
vt 0.360506 0.588813
vt 0.370447 0.588813
vt 0.821807 0.245146
vt 0.821807 0.199892
vt 0.153253 0.791218
vt 0.163194 0.791218
vt 0.163194 0.805544
vt 0.153253 0.805544
vt 0.584319 0.753783
vt 0.574378 0.753783
vt 0.574378 0.739457
vt 0.584319 0.739457
vt 0.310786 0.591985
vt 0.310786 0.574487
vt 0.339585 0.574487
vt 0.339585 0.591985
vt 0.310786 0.601931
vt 0.339585 0.601931
vt 0.422654 0.844448
vt 0.422654 0.791953
vt 0.432594 0.791953
vt 0.432594 0.844448
vt 0.942906 0.217067
vt 0.925407 0.217067
vt 0.925407 0.171813
vt 0.942906 0.171813
vt 0.310786 0.669532
vt 0.310786 0.661979
vt 0.347088 0.661979
vt 0.339585 0.669532
vt 0.903770 0.480351
vt 0.903770 0.441355
vt 0.932569 0.441355
vt 0.932569 0.480351
vt 0.903770 0.504378
vt 0.903770 0.501639
vt 0.932569 0.501638
vt 0.932569 0.504378
vt 0.676256 0.253333
vt 0.676256 0.235834
vt 0.690582 0.235834
vt 0.690582 0.253333
vt 0.946210 0.800955
vt 0.928712 0.800955
vt 0.928712 0.785909
vt 0.946210 0.785909
vt 0.407103 0.951371
vt 0.389605 0.951371
vt 0.389605 0.936325
vt 0.407103 0.936325
vt 0.099557 0.840678
vt 0.114356 0.843396
vt 0.111767 0.857487
vt 0.096969 0.854768
vt 0.919637 0.387066
vt 0.891312 0.392269
vt 0.888724 0.378178
vt 0.917049 0.372975
vt 0.949903 0.712934
vt 0.949903 0.698607
vt 0.121401 0.805042
vt 0.124827 0.786388
vt 0.129638 0.787272
vt 0.137289 0.807961
vt 0.827704 0.877116
vt 0.856502 0.877116
vt 0.856502 0.891443
vt 0.827704 0.891443
vt 0.774512 0.199892
vt 0.764566 0.199892
vt 0.764566 0.185566
vt 0.774512 0.185566
vt 0.135770 0.600822
vt 0.153268 0.600822
vt 0.153268 0.618177
vt 0.135770 0.618177
vt 0.740683 0.068055
vt 0.758152 0.067040
vt 0.759158 0.084365
vt 0.741689 0.085380
vt 0.786709 0.891443
vt 0.812658 0.891443
vt 0.812658 0.950389
vt 0.786709 0.950389
vt 0.303244 0.609484
vt 0.303244 0.661979
vt 0.290849 0.661979
vt 0.290849 0.609484
vt 0.812658 0.877116
vt 0.796504 0.877116
vt 0.153268 0.677124
vt 0.135770 0.677124
vt 0.130243 0.846314
vt 0.137289 0.862175
vt 0.934435 0.384347
vt 0.931847 0.370257
vt 0.957368 0.365569
vt 0.950323 0.381429
vt 0.101117 0.915463
vt 0.126639 0.920151
vt 0.114419 0.932461
vt 0.098531 0.929543
vt 0.946719 0.307592
vt 0.921197 0.312280
vt 0.918611 0.298200
vt 0.934499 0.295282
vt 0.908908 0.639661
vt 0.934857 0.639661
vt 0.928712 0.726962
vt 0.946210 0.726962
vt 0.762577 0.143212
vt 0.745108 0.144227
vt 0.389605 0.877378
vt 0.407103 0.877378
vt 0.764520 0.176655
vt 0.747051 0.177670
vt 0.746114 0.161544
vt 0.763583 0.160529
vt 0.153268 0.710623
vt 0.135770 0.710623
vt 0.135770 0.694469
vt 0.153268 0.694469
vt 0.575348 0.218336
vt 0.589664 0.218336
vt 0.589664 0.228261
vt 0.575348 0.228261
vt 0.812658 0.964705
vt 0.796504 0.964705
vt 0.918703 0.625345
vt 0.934857 0.625345
vt 0.925407 0.251880
vt 0.925407 0.258684
vt 0.915462 0.258684
vt 0.915462 0.251880
vt 0.925407 0.268625
vt 0.915462 0.268625
vt 0.407901 0.712925
vt 0.407901 0.727241
vt 0.397961 0.727241
vt 0.397961 0.712925
vt 0.942906 0.237564
vt 0.925407 0.237564
vt 0.925407 0.230760
vt 0.942906 0.230760
vt 0.762344 0.933932
vt 0.762344 0.916433
vt 0.769148 0.916433
vt 0.769148 0.933932
vt 0.942906 0.251880
vt 0.942906 0.258684
vt 0.764945 0.183975
vt 0.774449 0.176078
vt 0.774874 0.183399
vt 0.769148 0.943858
vt 0.762344 0.943858
vt 0.764566 0.265644
vt 0.747068 0.265644
vt 0.747068 0.258839
vt 0.764566 0.258839
vt 0.353702 0.662075
vt 0.353702 0.647760
vt 0.360506 0.647760
vt 0.360506 0.662075
vt 0.153268 0.717955
vt 0.163194 0.710623
vt 0.163194 0.717955
vt 0.153253 0.732271
vt 0.153253 0.717955
vt 0.163194 0.732271
vt 0.952831 0.230760
vt 0.952831 0.237564
vt 0.146448 0.732271
vt 0.146448 0.717955
vt 0.769148 0.906488
vt 0.779089 0.906488
vt 0.779089 0.916433
vt 0.618294 0.290241
vt 0.603979 0.290241
vt 0.603979 0.280316
vt 0.618294 0.280316
vt 0.414706 0.712925
vt 0.414706 0.727241
vt 0.928712 0.719630
vt 0.918786 0.726962
vt 0.918786 0.719630
vt 0.603979 0.218336
vt 0.618294 0.218336
vt 0.618294 0.228281
vt 0.603979 0.228281
vt 0.370447 0.647760
vt 0.370447 0.662075
vt 0.389605 0.870045
vt 0.379659 0.877378
vt 0.379659 0.870045
vt 0.589664 0.290241
vt 0.575348 0.290241
vt 0.575348 0.280296
vt 0.589664 0.280296
vt 0.942906 0.268625
vt 0.567573 0.827046
vt 0.567573 0.812730
vt 0.574378 0.812730
vt 0.574378 0.827046
vt 0.310786 0.761777
vt 0.310786 0.722782
vt 0.339585 0.722782
vt 0.339585 0.761777
vt 0.860824 0.859618
vt 0.860824 0.842119
vt 0.879791 0.877116
vt 0.295740 0.601931
vt 0.290849 0.601931
vt 0.353702 0.722782
vt 0.349525 0.722782
vt 0.295740 0.574487
vt 0.295740 0.591985
vt 0.290849 0.591985
vt 0.290849 0.574487
vt 0.860824 0.754627
vt 0.860824 0.737128
vt 0.860824 0.764572
vt 0.295740 0.669532
vt 0.290849 0.669532
vt 0.860824 0.824621
vt 0.860824 0.772125
vt 0.860824 0.832174
vt 0.349525 0.761777
vt 0.353702 0.761777
vt 0.860824 0.732037
vt 0.860824 0.729297
vt 0.461393 0.739457
vt 0.476439 0.739457
vt 0.476439 0.747030
vt 0.862966 0.060951
vt 0.845497 0.061965
vt 0.843236 0.023036
vt 0.860705 0.022021
vt 0.738421 0.029125
vt 0.755890 0.028110
vt 0.841956 0.001015
vt 0.859425 0.000000
vt 0.737142 0.007104
vt 0.754611 0.006089
vt 0.765819 0.027533
vt 0.764540 0.005512
vt 0.772080 0.005074
vt 0.773359 0.027095
vt 0.768081 0.066463
vt 0.775621 0.066025
vt 0.825767 0.024050
vt 0.828028 0.062980
vt 0.824487 0.002030
vt 0.833307 0.023612
vt 0.832028 0.001592
vt 0.835569 0.062542
vt 0.821807 0.258839
vt 0.839305 0.258839
vt 0.839305 0.273154
vt 0.821807 0.273154
vt 0.252237 0.964910
vt 0.269736 0.964910
vt 0.269736 0.979226
vt 0.252237 0.979226
vt 0.811881 0.273154
vt 0.811881 0.258839
vt 0.279661 0.964910
vt 0.279661 0.979226
vt 0.849251 0.258839
vt 0.849251 0.273154
vt 0.242292 0.979226
vt 0.242292 0.964910
vt 0.584319 0.812730
vt 0.584319 0.827046
vt 0.952831 0.258684
vt 0.952831 0.268625
vt 0.952831 0.217067
vt 0.269736 0.905963
vt 0.279661 0.905963
vt 0.811881 0.245146
vt 0.242292 0.905963
vt 0.252237 0.905963
vt 0.779089 0.933932
vt 0.779089 0.943858
vt 0.952831 0.171813
vt 0.269736 0.891637
vt 0.279661 0.891637
vt 0.407901 0.699232
vt 0.397961 0.699232
vt 0.397961 0.653978
vt 0.407901 0.653978
vt 0.915462 0.217067
vt 0.915462 0.171813
vt 0.242292 0.891637
vt 0.252237 0.891637
vt 0.747068 0.199892
vt 0.915462 0.230760
vt 0.737142 0.258839
vt 0.737142 0.199892
vt 0.774512 0.258839
vt 0.492592 0.852001
vt 0.492592 0.861947
vt 0.476439 0.861947
vt 0.476439 0.791953
vt 0.492592 0.791953
vt 0.492592 0.844448
vt 0.492592 0.784400
vt 0.715473 0.973310
vt 0.715473 0.920814
vt 0.715473 0.906488
vt 0.730519 0.906488
vt 0.715473 0.987636
vt 0.686675 0.987636
vt 0.686675 0.973310
vt 0.672348 0.973310
vt 0.672348 0.920814
vt 0.686674 0.920814
vt 0.762344 0.964450
vt 0.752418 0.964450
vt 0.762344 0.925454
vt 0.143323 0.736921
vt 0.125824 0.717955
vt 0.432594 0.784400
vt 0.432594 0.774454
vt 0.888724 0.504378
vt 0.888724 0.501639
vt 0.071233 0.835475
vt 0.068644 0.849565
vt 0.978701 0.712934
vt 0.978701 0.698607
vt 0.946210 0.829754
vt 0.928712 0.829754
vt 0.407103 0.980169
vt 0.389605 0.980169
vt 0.295740 0.761777
vt 0.295740 0.722782
vt 0.888724 0.480351
vt 0.686675 0.906488
vt 0.888724 0.441355
vt 0.432594 0.852001
vt 0.730519 0.987636
vt 0.737142 0.185566
vt 0.747068 0.185566
vt 0.888724 0.509469
vt 0.903770 0.509469
vt 0.476439 0.756956
vt 0.418477 0.774454
vt 0.418477 0.756956
vt 0.422654 0.756956
vt 0.422654 0.774454
vt 0.744845 0.964450
vt 0.762344 0.906488
vt 0.915462 0.237564
vt 0.762344 0.906488
vt 0.952831 0.251880
vt 0.737142 0.265644
vt 0.811881 0.199892
vt 0.676256 0.218336
vt 0.690582 0.218336
vt 0.360506 0.574487
vt 0.370447 0.574487
vt 0.821807 0.185566
vt 0.839305 0.185566
vt 0.397961 0.639652
vt 0.407901 0.639652
vt 0.915462 0.157487
vt 0.925407 0.157487
vt 0.811881 0.185566
vt 0.942906 0.157487
vt 0.952800 0.157487
vt 0.849251 0.185566
vt 0.418477 0.844448
vt 0.418477 0.791953
vt 0.422654 0.784400
vt 0.418477 0.879445
vt 0.418477 0.861947
vt 0.422654 0.861947
vt 0.422654 0.879445
vt 0.347088 0.609484
vt 0.774512 0.265644
vt 0.774512 0.279959
vt 0.764566 0.279959
vt 0.747068 0.279959
vt 0.737142 0.279959
vt 0.618294 0.263058
vt 0.618294 0.272983
vt 0.603979 0.272983
vt 0.603979 0.263058
vt 0.603979 0.245559
vt 0.618294 0.245559
vt 0.575348 0.272963
vt 0.589664 0.272963
vt 0.589664 0.235594
vt 0.575348 0.235594
vt 0.946210 0.719630
vt 0.747476 0.184990
vt 0.737567 0.185566
vt 0.737142 0.178246
vt 0.603979 0.235614
vt 0.618294 0.235614
vt 0.575348 0.263018
vt 0.589664 0.263018
vt 0.956155 0.719630
vt 0.956155 0.726962
vt 0.135770 0.717955
vt 0.125824 0.717955
vt 0.125824 0.710623
vt 0.407103 0.870045
vt 0.417029 0.870045
vt 0.417029 0.877378
vt 0.575348 0.245520
vt 0.589664 0.245520
vt 0.932569 0.509469
vt 0.942510 0.509469
vt 0.946686 0.509469
vt 0.418477 0.784400
vt 0.432594 0.739457
vt 0.422654 0.747030
vt 0.422654 0.739457
vt 0.418477 0.747030
vt 0.461393 0.791953
vt 0.310786 0.609484
vt 0.492592 0.774454
vt 0.432594 0.861947
vt 0.461393 0.861947
vt 0.422654 0.852001
vt 0.418477 0.852001
vt 0.418477 0.739457
vt 0.432594 0.896944
vt 0.422654 0.896944
vt 0.422654 0.889371
vt 0.461393 0.896944
vt 0.476439 0.896944
vt 0.143323 0.775917
vt 0.918786 0.877117
vt 0.418477 0.889371
vt 0.418477 0.896944
vt 0.154021 0.912098
vt 0.146448 0.912098
vt 0.156116 0.893132
vt 0.158855 0.893132
vt 0.800826 0.727203
vt 0.829625 0.727203
vt 0.829625 0.737128
vt 0.800826 0.737128
vt 0.672079 0.281358
vt 0.672079 0.278619
vt 0.676256 0.278619
vt 0.676256 0.281358
vt 0.881932 0.007573
vt 0.881932 0.000000
vt 0.920928 0.000000
vt 0.920928 0.007573
vt 0.672079 0.257331
vt 0.672079 0.218336
vt 0.676256 0.218336
vt 0.676256 0.257331
vt 0.881932 0.112544
vt 0.881932 0.104991
vt 0.920928 0.104991
vt 0.920928 0.112544
vt 0.881932 0.052496
vt 0.920928 0.052496
vt 0.823355 0.390328
vt 0.823355 0.382775
vt 0.827531 0.382775
vt 0.827531 0.390328
vt 0.823355 0.330279
vt 0.827531 0.330279
vt 0.829625 0.832174
vt 0.829625 0.824621
vt 0.844671 0.824621
vt 0.844671 0.832174
vt 0.672348 0.920814
vt 0.672348 0.973310
vt 0.658022 0.973310
vt 0.658022 0.920814
vt 0.881932 0.044942
vt 0.881932 0.034997
vt 0.920928 0.034997
vt 0.920928 0.044942
vt 0.881932 0.017499
vt 0.920928 0.017499
vt 0.823355 0.322726
vt 0.823355 0.312780
vt 0.827531 0.312780
vt 0.827531 0.322726
vt 0.823355 0.295282
vt 0.827531 0.295282
vt 0.229830 0.926572
vt 0.226404 0.907918
vt 0.242292 0.904999
vt 0.234641 0.925688
vt 0.829625 0.764572
vt 0.829625 0.754627
vt 0.844671 0.754627
vt 0.844671 0.764572
vt 0.444426 0.970206
vt 0.444426 0.984532
vt 0.428272 0.984532
vt 0.418477 0.970206
vt 0.800826 0.869512
vt 0.800826 0.859618
vt 0.829625 0.859618
vt 0.829625 0.869543
vt 0.898194 0.936696
vt 0.888248 0.936696
vt 0.888248 0.891443
vt 0.898194 0.891443
vt 0.905767 0.877116
vt 0.915692 0.877116
vt 0.915692 0.916112
vt 0.905767 0.916112
vt 0.769570 0.400273
vt 0.769570 0.417772
vt 0.764678 0.417772
vt 0.764678 0.400273
vt 0.823355 0.417772
vt 0.823355 0.400273
vt 0.827531 0.400273
vt 0.827531 0.417772
vt 0.881932 0.149914
vt 0.881932 0.139988
vt 0.920928 0.139988
vt 0.920928 0.149914
vt 0.881932 0.122490
vt 0.920928 0.122490
vt 0.784616 0.417772
vt 0.784616 0.400273
vt 0.813414 0.400273
vt 0.813414 0.417772
vt 0.844671 0.859618
vt 0.844671 0.869543
vt 0.397961 0.580072
vt 0.407902 0.580072
vt 0.407902 0.625326
vt 0.397961 0.625326
vt 0.870750 0.936696
vt 0.870750 0.891443
vt 0.577514 0.841372
vt 0.567573 0.841372
vt 0.567573 0.827046
vt 0.577514 0.827046
vt 0.353702 0.735337
vt 0.363643 0.735337
vt 0.363643 0.749664
vt 0.353702 0.749664
vt 0.784616 0.312780
vt 0.784616 0.295282
vt 0.813414 0.295282
vt 0.813414 0.312780
vt 0.784616 0.322726
vt 0.813414 0.322726
vt 0.790886 0.824621
vt 0.790886 0.772125
vt 0.800826 0.772125
vt 0.800826 0.824621
vt 0.252217 0.832057
vt 0.269716 0.832057
vt 0.269716 0.877311
vt 0.252217 0.877311
vt 0.784616 0.390328
vt 0.784616 0.382775
vt 0.813414 0.382775
vt 0.813414 0.390328
vt 0.633340 0.257331
vt 0.633340 0.218336
vt 0.662139 0.218336
vt 0.662139 0.257331
vt 0.633340 0.281358
vt 0.633340 0.278619
vt 0.662139 0.278619
vt 0.662139 0.281358
vt 0.676256 0.288330
vt 0.676256 0.270831
vt 0.690582 0.270831
vt 0.690582 0.288330
vt 0.946210 0.911079
vt 0.928712 0.911079
vt 0.928712 0.896033
vt 0.946210 0.896033
vt 0.948372 0.081326
vt 0.930873 0.081326
vt 0.930873 0.066279
vt 0.948372 0.066279
vt 0.030913 0.840678
vt 0.045711 0.843396
vt 0.043123 0.857486
vt 0.028324 0.854768
vt 0.204560 0.872282
vt 0.176236 0.877485
vt 0.173647 0.863395
vt 0.201972 0.858192
vt 0.459472 0.984532
vt 0.459472 0.970206
vt 0.052757 0.805042
vt 0.056183 0.786388
vt 0.060994 0.787272
vt 0.068644 0.807961
vt 0.533587 0.896789
vt 0.562385 0.896789
vt 0.562385 0.911115
vt 0.533587 0.911115
vt 0.811881 0.199892
vt 0.801936 0.199892
vt 0.801936 0.185566
vt 0.811881 0.185566
vt 0.407083 0.870045
vt 0.389585 0.870045
vt 0.389585 0.852691
vt 0.407083 0.852691
vt 0.003541 0.668877
vt 0.021010 0.667862
vt 0.022016 0.685187
vt 0.004547 0.686202
vt 0.492592 0.911115
vt 0.518541 0.911115
vt 0.518541 0.970062
vt 0.492592 0.970062
vt 0.769570 0.330279
vt 0.769570 0.382775
vt 0.764678 0.382775
vt 0.764678 0.330279
vt 0.518541 0.896789
vt 0.502387 0.896789
vt 0.389585 0.793744
vt 0.407083 0.793744
vt 0.061599 0.846314
vt 0.068644 0.862175
vt 0.219359 0.869564
vt 0.216770 0.855474
vt 0.242292 0.850785
vt 0.235246 0.866646
vt 0.032473 0.915463
vt 0.057994 0.920151
vt 0.045775 0.932461
vt 0.029887 0.929543
vt 0.231642 0.792809
vt 0.206121 0.797497
vt 0.203534 0.783417
vt 0.219422 0.780499
vt 0.418477 0.911259
vt 0.444426 0.911259
vt 0.928712 0.837086
vt 0.946210 0.837086
vt 0.025435 0.744035
vt 0.007966 0.745050
vt 0.930873 0.007333
vt 0.948372 0.007333
vt 0.027378 0.777478
vt 0.009909 0.778492
vt 0.008972 0.762366
vt 0.026441 0.761351
vt 0.389585 0.760245
vt 0.407083 0.760245
vt 0.407083 0.776399
vt 0.389585 0.776399
vt 0.561033 0.218336
vt 0.575348 0.218336
vt 0.575348 0.228261
vt 0.561033 0.228261
vt 0.518541 0.984377
vt 0.502387 0.984377
vt 0.428272 0.896944
vt 0.444426 0.896944
vt 0.269716 0.797244
vt 0.269716 0.790440
vt 0.279661 0.790440
vt 0.279661 0.797244
vt 0.269716 0.780499
vt 0.279661 0.780499
vt 0.156389 0.878817
vt 0.156389 0.893132
vt 0.146448 0.893132
vt 0.146448 0.878817
vt 0.252217 0.811559
vt 0.269716 0.811559
vt 0.269716 0.818364
vt 0.252217 0.818364
vt 0.937673 0.120049
vt 0.937673 0.137548
vt 0.930869 0.137548
vt 0.930869 0.120049
vt 0.252217 0.797244
vt 0.252217 0.790440
vt 0.027803 0.784798
vt 0.037307 0.776901
vt 0.037732 0.784221
vt 0.930869 0.110124
vt 0.937673 0.110124
vt 0.801936 0.265644
vt 0.784437 0.265644
vt 0.784437 0.258839
vt 0.801936 0.258839
vt 0.414707 0.552064
vt 0.414707 0.566379
vt 0.407902 0.566379
vt 0.407902 0.552064
vt 0.389585 0.752913
vt 0.379659 0.760245
vt 0.577514 0.900319
vt 0.577514 0.914634
vt 0.567573 0.914634
vt 0.567573 0.900319
vt 0.242292 0.818364
vt 0.242292 0.811559
vt 0.584319 0.900319
vt 0.584319 0.914634
vt 0.930869 0.147493
vt 0.920928 0.147493
vt 0.920928 0.137548
vt 0.603979 0.290241
vt 0.589664 0.290241
vt 0.589664 0.280316
vt 0.603979 0.280316
vt 0.163194 0.878817
vt 0.163194 0.893132
vt 0.928712 0.829754
vt 0.918786 0.837086
vt 0.918786 0.829754
vt 0.589664 0.218336
vt 0.603979 0.218336
vt 0.603979 0.228281
vt 0.589664 0.228281
vt 0.397961 0.566379
vt 0.397961 0.552064
vt 0.930873 0.000000
vt 0.920928 0.007333
vt 0.920928 0.000000
vt 0.561033 0.290241
vt 0.561033 0.280296
vt 0.252217 0.780499
vt 0.370447 0.662075
vt 0.370447 0.676390
vt 0.363643 0.676390
vt 0.363643 0.662075
vt 0.784616 0.482572
vt 0.784616 0.443577
vt 0.813414 0.443577
vt 0.813414 0.482572
vt 0.862966 0.139988
vt 0.862966 0.122490
vt 0.881932 0.157487
vt 0.769570 0.322726
vt 0.764678 0.322726
vt 0.827531 0.443577
vt 0.823355 0.443577
vt 0.769570 0.295282
vt 0.769570 0.312780
vt 0.764678 0.312780
vt 0.764678 0.295282
vt 0.862966 0.034997
vt 0.862966 0.017499
vt 0.862966 0.044942
vt 0.769570 0.390328
vt 0.764678 0.390328
vt 0.862966 0.104991
vt 0.862966 0.052496
vt 0.862966 0.112544
vt 0.823355 0.482572
vt 0.827531 0.482572
vt 0.862966 0.012407
vt 0.862966 0.009668
vt 0.829625 0.719630
vt 0.844671 0.719630
vt 0.844671 0.727203
vt 0.125824 0.661773
vt 0.108355 0.662788
vt 0.106094 0.623858
vt 0.123563 0.622843
vt 0.001279 0.629947
vt 0.018748 0.628932
vt 0.104814 0.601837
vt 0.122283 0.600822
vt -0.000000 0.607926
vt 0.017469 0.606912
vt 0.028677 0.628356
vt 0.027398 0.606335
vt 0.034938 0.605897
vt 0.036217 0.627917
vt 0.030939 0.667285
vt 0.038479 0.666847
vt 0.088625 0.624873
vt 0.090886 0.663803
vt 0.087345 0.602852
vt 0.096165 0.624435
vt 0.094886 0.602414
vt 0.098427 0.663365
vt 0.870750 0.950390
vt 0.888248 0.950390
vt 0.888248 0.964705
vt 0.870750 0.964705
vt 0.718448 0.219344
vt 0.700949 0.219344
vt 0.700949 0.205028
vt 0.718448 0.205028
vt 0.860824 0.964705
vt 0.860824 0.950390
vt 0.691024 0.219344
vt 0.691024 0.205028
vt 0.898194 0.950390
vt 0.898194 0.964705
vt 0.728393 0.205028
vt 0.728393 0.219344
vt 0.353702 0.676390
vt 0.353702 0.662075
vt 0.242292 0.790440
vt 0.242292 0.780499
vt 0.242292 0.832057
vt 0.700949 0.278291
vt 0.691024 0.278291
vt 0.860824 0.936696
vt 0.728393 0.278291
vt 0.718448 0.278291
vt 0.920928 0.120049
vt 0.920928 0.110124
vt 0.242292 0.877311
vt 0.700949 0.292617
vt 0.691024 0.292617
vt 0.156389 0.865124
vt 0.146448 0.865124
vt 0.146448 0.819870
vt 0.156389 0.819870
vt 0.279661 0.832057
vt 0.279661 0.877311
vt 0.728393 0.292617
vt 0.718448 0.292617
vt 0.784437 0.199892
vt 0.279661 0.818364
vt 0.774512 0.258839
vt 0.774512 0.199892
vt 0.811881 0.258839
vt 0.860824 0.832174
vt 0.860824 0.842119
vt 0.844671 0.842119
vt 0.844671 0.772125
vt 0.860824 0.772125
vt 0.860824 0.824621
vt 0.860824 0.764572
vt 0.642976 0.973310
vt 0.642976 0.920814
vt 0.642975 0.906488
vt 0.658022 0.906488
vt 0.642976 0.987636
vt 0.614177 0.987636
vt 0.614177 0.973310
vt 0.599851 0.973310
vt 0.599851 0.920814
vt 0.614177 0.920814
vt 0.163947 0.951094
vt 0.154021 0.951094
vt 0.163947 0.912098
vt 0.898194 0.916112
vt 0.915692 0.935078
vt 0.800826 0.764572
vt 0.800826 0.754627
vt 0.618294 0.281358
vt 0.618294 0.278619
vt 0.002588 0.835475
vt 0.000000 0.849565
vt 0.488270 0.984532
vt 0.488270 0.970206
vt 0.946210 0.939877
vt 0.928712 0.939877
vt 0.948372 0.110124
vt 0.930873 0.110124
vt 0.990530 0.509238
vt 0.975484 0.509238
vt 0.975484 0.475297
vt 0.990530 0.475297
vt 0.769570 0.482572
vt 0.769570 0.443577
vt 0.618294 0.257331
vt 0.956155 0.753571
vt 0.984954 0.753571
vt 0.984954 0.787513
vt 0.956155 0.787513
vt 0.614177 0.906488
vt 0.618294 0.218336
vt 0.800826 0.832174
vt 0.915462 0.269214
vt 0.862966 0.269214
vt 0.862966 0.235273
vt 0.915462 0.235273
vt 0.658022 0.987636
vt 0.946686 0.475297
vt 0.946686 0.441355
vt 0.975484 0.441355
vt 0.946686 0.509238
vt 0.862966 0.186285
vt 0.915462 0.186285
vt 0.915462 0.220226
vt 0.862966 0.220226
vt 0.226143 0.960513
vt 0.173647 0.960513
vt 0.173647 0.926572
vt 0.226143 0.926572
vt 0.984954 0.719630
vt 1.000000 0.719630
vt 1.000000 0.753571
vt 0.226143 0.994455
vt 0.173647 0.994455
vt 0.956155 0.719630
vt 0.862966 0.157487
vt 0.774512 0.185566
vt 0.784437 0.185566
vt 0.618294 0.286450
vt 0.633340 0.286450
vt 0.844671 0.737128
vt 0.786709 0.754627
vt 0.786709 0.737128
vt 0.790886 0.737128
vt 0.790886 0.754627
vt 0.146448 0.951094
vt 0.163947 0.893132
vt 0.279661 0.811559
vt 0.937673 0.147493
vt 0.242292 0.797244
vt 0.774512 0.265644
vt 0.860824 0.891443
vt 0.676256 0.253333
vt 0.690582 0.253333
vt 0.407901 0.639652
vt 0.397961 0.639652
vt 0.870750 0.877116
vt 0.888248 0.877116
vt 0.146448 0.805544
vt 0.156389 0.805544
vt 0.279661 0.891637
vt 0.269716 0.891637
vt 0.860824 0.877116
vt 0.252217 0.891637
vt 0.242323 0.891637
vt 0.898194 0.877116
vt 0.786709 0.824621
vt 0.786709 0.772125
vt 0.790886 0.764572
vt 0.786709 0.859618
vt 0.786709 0.842119
vt 0.790886 0.842119
vt 0.790886 0.859618
vt 0.813414 0.330279
vt 0.811881 0.265644
vt 0.811881 0.279959
vt 0.801936 0.279959
vt 0.784437 0.279959
vt 0.774512 0.279959
vt 0.603979 0.263058
vt 0.603979 0.272983
vt 0.589664 0.272983
vt 0.589664 0.263058
vt 0.589664 0.245559
vt 0.603979 0.245559
vt 0.561033 0.272963
vt 0.575348 0.235594
vt 0.561033 0.235594
vt 0.946210 0.829754
vt 0.010334 0.785813
vt 0.000425 0.786388
vt -0.000000 0.779068
vt 0.589664 0.235614
vt 0.603979 0.235614
vt 0.561033 0.263018
vt 0.956155 0.829754
vt 0.956155 0.837086
vt 0.407083 0.752913
vt 0.417029 0.752913
vt 0.417029 0.760245
vt 0.948372 0.000000
vt 0.958297 0.000000
vt 0.958297 0.007333
vt 0.561033 0.245520
vt 0.575348 0.245520
vt 0.662139 0.286450
vt 0.672079 0.286450
vt 0.676256 0.286450
vt 0.786709 0.764572
vt 0.800826 0.719630
vt 0.790886 0.727203
vt 0.790886 0.719630
vt 0.786709 0.727203
vt 0.829625 0.772125
vt 0.784616 0.330279
vt 0.860824 0.754627
vt 0.800826 0.842119
vt 0.829625 0.842119
vt 0.790886 0.832174
vt 0.786709 0.832174
vt 0.786709 0.719630
vt 0.800826 0.877116
vt 0.790886 0.877116
vt 0.790886 0.869543
vt 0.829625 0.877116
vt 0.844671 0.877116
vt 0.898194 0.877116
vt 0.920928 0.157487
vt 0.786709 0.869543
vt 0.786709 0.877116
vt 0.996676 0.293253
vt 0.981630 0.293253
vt 0.981630 0.259311
vt 0.996676 0.259311
vt 0.952831 0.191428
vt 0.981630 0.191428
vt 0.981630 0.225370
vt 0.952831 0.225370
vt 0.961404 0.625345
vt 0.908908 0.625345
vt 0.908908 0.591404
vt 0.961404 0.591404
vt 0.952831 0.259311
vt 0.952831 0.225370
vt 0.981630 0.225370
vt 0.952831 0.293253
vt 0.908908 0.542416
vt 0.961404 0.542416
vt 0.961404 0.576358
vt 0.908908 0.576358
vt 0.290849 0.953050
vt 0.343344 0.953050
vt 0.343344 0.986992
vt 0.290849 0.986992
vt 0.981630 0.157487
vt 0.996676 0.157487
vt 0.996676 0.191428
vt 0.290849 0.919109
vt 0.343344 0.919109
vt 0.952831 0.157487
vt 0.908908 0.513618
vt 0.961404 0.513618
s 0
usemtl M_MetalInterface
f 1/1/1 2/2/1 4/3/1 3/4/1
f 3/4/2 4/3/2 6/5/2 5/6/2
f 5/6/3 6/5/3 8/7/3 7/8/3
f 7/8/4 8/7/4 10/9/4 9/10/4
f 9/10/5 10/9/5 12/11/5 11/12/5
f 11/12/6 12/11/6 14/13/6 13/14/6
f 13/14/7 14/13/7 16/15/7 15/16/7
f 15/16/8 16/15/8 18/17/8 17/18/8
f 17/18/9 18/17/9 20/19/9 19/20/9
f 19/21/10 20/22/10 22/23/10 21/24/10
f 4/25/11 2/26/11 24/27/11 22/28/11 20/29/11 18/30/11 16/31/11 14/32/11 12/33/11 10/34/11 8/35/11 6/36/11
f 21/24/12 22/23/12 24/37/12 23/38/12
f 23/38/13 24/37/13 2/2/13 1/1/13
f 25/39/14 26/40/14 28/41/14 27/42/14
f 27/43/15 28/44/15 32/45/15 31/46/15
f 32/47/16 30/48/16 36/49/16 33/50/16
f 29/51/17 30/52/17 26/53/17 25/54/17
f 27/42/18 31/55/18 29/56/18 25/39/18
f 32/47/11 28/57/11 26/58/11 30/48/11
f 34/59/19 33/50/19 36/49/19 35/60/19
f 31/46/15 32/45/15 33/61/15 34/62/15
f 30/52/17 29/51/17 35/63/17 36/64/17
f 35/63/17 29/51/17 37/65/17 74/66/17
f 37/67/18 38/68/18 39/69/18 74/70/18
f 39/71/15 34/62/15 41/72/15 42/73/15
f 29/56/20 31/55/20 38/68/20 37/67/20
f 31/46/15 34/62/15 39/71/15 38/74/15
f 41/75/18 40/76/18 84/77/18 42/78/18
f 34/59/19 35/60/19 40/79/19 41/80/19
f 35/63/17 74/66/17 84/81/17 40/82/17
f 74/70/14 39/69/14 42/78/14 84/77/14
f 43/83/14 45/84/14 46/85/14 44/86/14
f 45/87/15 49/88/15 50/89/15 46/90/15
f 50/91/21 51/92/21 54/93/21 48/94/21
f 47/95/17 43/96/17 44/97/17 48/98/17
f 45/84/11 43/83/11 47/99/11 49/100/11
f 50/91/18 48/94/18 44/101/18 46/102/18
f 52/103/19 53/104/19 54/93/19 51/92/19
f 49/88/15 52/105/15 51/106/15 50/89/15
f 48/98/17 54/107/17 53/108/17 47/95/17
f 53/108/17 57/109/17 55/110/17 47/95/17
f 55/111/11 57/112/11 75/113/11 56/114/11
f 75/115/15 77/116/15 59/117/15 52/105/15
f 47/99/22 55/111/22 56/114/22 49/100/22
f 49/88/15 56/118/15 75/115/15 52/105/15
f 59/117/11 77/116/11 60/119/11 58/120/11
f 52/103/19 59/121/19 58/122/19 53/104/19
f 53/108/17 58/123/17 60/124/17 57/109/17
f 57/112/14 60/119/14 77/116/14 75/113/14
f 79/125/14 62/126/14 64/127/14 80/128/14
f 84/129/15 74/130/15 68/131/15 81/132/15
f 86/133/15 102/134/15 111/135/15 107/136/15
f 83/137/17 76/138/17 62/139/17 79/140/17
f 73/141/18 67/142/18 65/143/18 75/144/18
f 74/145/23 64/127/23 62/126/23 76/146/23
f 75/147/17 77/148/17 69/149/17 61/150/17
f 73/151/15 78/152/15 71/153/15 67/154/15
f 61/155/14 69/156/14 70/157/14 63/158/14
f 63/159/15 70/160/15 78/152/15 73/151/15
f 65/161/17 72/162/17 77/163/17 75/164/17
f 68/165/11 74/166/11 76/167/11 66/168/11
f 63/158/24 73/169/24 75/170/24 61/155/24
f 82/171/17 66/172/17 76/138/17 83/137/17
f 80/173/15 64/174/15 74/175/15 84/176/15
f 89/177/17 90/178/17 104/179/17 103/180/17
f 70/160/15 80/173/15 84/176/15 78/152/15
f 104/179/17 90/178/17 105/181/17 112/182/17
f 65/143/18 67/142/18 94/183/18 95/184/18
f 83/185/14 77/186/14 91/187/14 92/188/14
f 77/148/17 83/137/17 79/140/17 69/149/17
f 69/156/14 79/125/14 80/128/14 70/157/14
f 84/189/11 81/190/11 85/191/11 88/192/11
f 71/193/18 78/194/18 87/195/18 86/196/18
f 87/197/15 88/198/15 85/199/15 86/133/15
f 82/200/11 83/185/11 92/188/11 89/201/11
f 89/177/17 103/180/17 109/202/17 106/203/17
f 77/186/18 72/204/18 90/205/18 91/187/18
f 133/206/11 134/207/11 114/208/11 119/209/11
f 134/210/17 139/211/17 113/212/17 114/213/17
f 142/214/18 135/215/18 116/216/18 117/217/18
f 136/218/11 137/219/11 118/220/11 126/221/11
f 101/222/14 110/223/14 99/224/14 98/225/14
f 101/222/15 85/199/15 108/226/15 110/223/15
f 68/165/11 66/168/11 97/227/11 96/228/11
f 81/190/14 68/229/14 108/230/14 85/191/14
f 72/204/14 65/231/14 105/232/14 90/205/14
f 66/169/14 82/200/14 89/201/14 106/233/14
f 78/194/14 84/189/14 88/192/14 87/195/14
f 67/234/14 71/193/14 86/196/14 107/235/14
f 94/183/18 67/142/18 107/236/18 111/237/18
f 140/238/17 141/239/17 127/240/17 125/241/17
f 95/184/18 112/242/18 105/243/18 65/143/18
f 111/135/14 102/134/14 131/244/14 130/245/14
f 97/227/11 66/168/11 106/246/11 109/247/11
f 110/248/11 108/249/11 68/165/11 96/228/11
f 141/250/18 142/214/18 117/217/18 127/251/18
f 121/252/19 118/220/19 119/209/19 122/253/19
f 116/216/19 115/254/19 120/255/19 117/217/19
f 116/216/19 128/256/19 124/257/19 115/254/19
f 120/255/19 125/258/19 127/251/19 117/217/19
f 113/259/19 122/253/19 119/209/19 114/208/19
f 121/252/19 123/260/19 126/221/19 118/220/19
f 126/221/19 123/260/19 93/261/19 100/262/19
f 135/215/18 138/263/18 128/256/18 116/216/18
f 137/219/11 133/206/11 119/209/11 118/220/11
f 145/264/15 146/265/15 132/266/15 129/267/15
f 144/268/15 143/269/15 100/270/15 93/271/15
f 136/218/11 126/221/11 100/262/11 143/272/11
f 90/178/17 89/177/17 92/273/17 91/274/17
f 124/257/19 128/256/19 129/275/19 132/276/19
f 138/263/18 111/237/18 130/277/18 145/278/18
f 128/256/18 138/263/18 145/278/18 129/275/18
f 110/248/11 136/218/11 143/272/11 99/279/11
f 98/280/15 99/281/15 143/269/15 144/268/15
f 130/282/15 131/283/15 146/265/15 145/264/15
f 86/133/15 85/199/15 101/222/15 102/134/15
f 96/228/11 97/227/11 133/206/11 137/219/11
f 94/183/18 111/237/18 138/263/18 135/215/18
f 112/242/18 95/184/18 142/214/18 141/250/18
f 102/134/14 101/222/14 98/225/14 131/244/14
f 104/179/17 112/182/17 141/239/17 140/238/17
f 110/248/11 96/228/11 137/219/11 136/218/11
f 95/184/18 94/183/18 135/215/18 142/214/18
f 109/202/17 103/180/17 139/211/17 134/210/17
f 97/227/11 109/247/11 134/207/11 133/206/11
f 131/283/15 98/280/15 144/268/15 146/265/15
f 103/180/17 104/179/17 140/238/17 139/211/17
f 151/284/19 139/285/19 140/286/19 152/287/19
f 144/288/19 147/289/19 148/290/19 146/291/19
f 140/292/11 125/293/11 120/294/11 152/295/11
f 120/294/11 115/296/11 150/297/11 152/295/11
f 115/296/11 124/298/11 148/299/11 150/297/11
f 146/300/11 148/299/11 124/298/11 132/301/11
f 113/302/18 139/303/18 151/304/18 122/305/18
f 122/305/18 151/304/18 149/306/18 121/307/18
f 121/307/18 149/306/18 147/308/18 123/309/18
f 123/309/18 147/308/18 144/310/18 93/311/18
f 147/289/19 149/312/19 150/313/19 148/290/19
f 396/314/17 254/315/17 158/316/17 389/317/17
f 340/318/14 395/319/14 335/320/14 192/321/14
f 432/322/19 422/323/19 157/324/19 388/325/19
f 392/326/15 256/327/15 154/328/15 390/329/15
f 430/330/18 429/331/18 154/332/18 256/333/18
f 417/334/15 257/335/15 159/336/15 410/337/15
f 257/335/15 258/338/15 160/339/15 159/336/15
f 434/340/19 423/341/19 166/342/19 413/343/19
f 423/341/19 424/344/19 165/345/19 166/342/19
f 420/346/14 338/347/14 162/348/14 411/349/14
f 161/350/17 162/351/17 314/352/17 313/353/17
f 404/354/15 260/355/15 167/356/15 400/357/15
f 260/355/15 261/358/15 168/359/15 167/356/15
f 433/360/19 425/361/19 174/362/19 399/363/19
f 425/361/19 426/364/19 173/365/19 174/362/19
f 178/366/11 264/367/11 274/368/11 272/369/11
f 408/370/14 336/371/14 170/372/14 397/373/14
f 201/374/18 175/375/18 207/376/18 211/377/18
f 387/378/14 193/379/14 334/380/14 436/381/14
f 311/382/15 308/383/15 355/384/15 357/385/15
f 435/386/17 176/387/17 264/388/17 437/389/17
f 177/390/19 178/391/19 272/392/19 271/393/19
f 427/394/19 428/395/19 179/396/19 180/397/19
f 439/398/15 266/399/15 181/400/15 438/401/15
f 266/399/15 267/402/15 182/403/15 181/400/15
f 326/404/19 325/405/19 196/406/19 195/407/19
f 436/381/14 334/380/14 176/408/14 435/409/14
f 302/410/11 301/411/11 352/412/11 353/413/11
f 308/383/15 309/414/15 356/415/15 355/384/15
f 303/416/18 310/417/18 344/418/18 340/419/18
f 312/420/11 305/421/11 341/422/11 345/423/11
f 328/424/19 327/425/19 190/426/19 189/427/19
f 407/428/19 328/424/19 189/427/19 403/429/19
f 402/430/14 409/431/14 188/432/14 187/433/14
f 300/434/17 299/435/17 204/436/17 203/437/17
f 421/438/19 330/439/19 738/440/19 415/441/19
f 319/442/18 339/443/18 184/444/18 268/445/18
f 393/446/19 331/447/19 185/448/19 391/449/19
f 199/450/17 200/451/17 192/452/17 191/453/17
f 324/454/14 323/455/14 197/456/14 198/457/14
f 322/458/14 321/459/14 201/460/14 202/461/14
f 335/462/18 169/463/18 197/464/18 323/465/18
f 334/466/11 193/467/11 203/468/11 322/469/11
f 333/470/18 175/375/18 201/374/18 321/471/18
f 263/472/18 171/473/18 259/474/18 273/475/18
f 336/476/11 191/477/11 199/478/11 324/479/11
f 305/480/17 199/481/17 191/482/17 341/483/17
f 207/484/25 208/485/25 212/486/25 211/487/25
f 205/488/25 206/489/25 210/490/25 209/491/25
f 210/492/11 198/493/11 214/494/11 218/495/11
f 163/496/19 164/497/19 262/498/19 265/499/19
f 170/500/11 198/493/11 210/492/11 206/501/11
f 211/487/17 212/486/17 220/502/17 219/503/17
f 197/464/18 169/463/18 205/504/18 209/505/18
f 176/506/11 202/507/11 212/508/11 208/509/11
f 213/510/18 217/511/18 225/512/18 221/513/18
f 220/514/11 216/515/11 224/516/11 228/517/11
f 201/374/18 211/377/18 219/518/18 215/519/18
f 198/457/15 197/456/15 213/520/15 214/521/15
f 212/508/11 202/507/11 216/515/11 220/514/11
f 209/491/17 210/490/17 218/522/17 217/523/17
f 197/464/18 209/505/18 217/511/18 213/510/18
f 202/461/15 201/460/15 215/524/15 216/525/15
f 222/526/14 221/527/14 225/528/14 226/529/14
f 224/530/14 223/531/14 227/532/14 228/533/14
f 219/503/26 220/502/26 228/533/26 227/532/26
f 213/534/17 221/535/17 239/536/17 240/537/17
f 218/495/11 214/494/11 222/538/11 226/539/11
f 215/519/18 219/518/18 227/540/18 223/541/18
f 217/523/26 218/522/26 226/529/26 225/528/26
f 363/542/14 235/543/14 250/544/14 369/545/14
f 250/544/14 235/543/14 287/546/14 294/547/14
f 249/548/18 250/549/18 294/550/18 293/551/18
f 365/552/19 364/553/19 231/554/19 232/555/19
f 351/556/14 349/557/14 234/558/14 233/559/14
f 363/542/14 366/560/14 236/561/14 235/543/14
f 375/562/14 222/526/14 248/563/14 371/564/14
f 351/556/14 233/559/14 243/565/14 347/566/14
f 348/567/19 350/568/19 229/569/19 230/570/19
f 368/571/11 367/572/11 241/573/11 242/574/11
f 384/575/14 224/530/14 238/576/14 385/577/14
f 244/578/18 243/579/18 291/577/18 292/580/18
f 365/552/19 232/555/19 241/581/19 367/582/19
f 346/583/18 347/584/18 243/579/18 244/578/18
f 234/558/14 252/585/14 296/586/14 286/587/14
f 224/588/17 216/589/17 237/590/17 238/591/17
f 370/592/18 369/593/18 250/549/18 249/548/18
f 377/594/19 213/520/19 240/595/19 378/596/19
f 215/597/17 223/598/17 246/599/17 245/600/17
f 242/574/11 241/573/11 289/601/11 290/602/11
f 379/603/19 215/524/19 245/604/19 382/605/19
f 222/606/17 214/607/17 247/608/17 248/609/17
f 235/543/14 236/561/14 288/610/14 287/546/14
f 298/611/11 297/612/11 251/613/11 252/614/11
f 332/615/11 320/616/11 269/617/11 183/618/11
f 331/447/27 319/442/27 268/445/27 185/448/27
f 180/619/15 179/620/15 267/402/15 266/399/15
f 180/619/15 266/399/15 439/398/15 255/621/15
f 398/622/19 163/496/19 265/499/19 401/623/19
f 427/394/28 180/397/28 255/624/28 431/625/28
f 171/626/19 172/627/19 270/628/19 259/629/19
f 264/367/11 176/506/11 208/509/11 274/368/11
f 174/630/15 173/631/15 261/358/15 260/355/15
f 399/632/15 174/630/15 260/355/15 404/354/15
f 412/633/19 177/390/19 271/393/19 416/634/19
f 169/463/18 263/472/18 273/475/18 205/504/18
f 166/635/15 165/636/15 258/338/15 257/335/15
f 413/637/15 166/635/15 257/335/15 417/334/15
f 422/323/27 430/330/27 256/333/27 157/324/27
f 414/638/11 431/625/11 255/624/11 153/639/11
f 388/640/15 157/641/15 256/327/15 392/326/15
f 395/319/14 339/642/14 156/643/14 394/644/14
f 208/645/17 207/646/17 277/647/17 274/648/17
f 206/489/17 205/488/17 273/649/17 276/650/17
f 274/648/29 277/647/29 271/651/29 272/652/29
f 276/650/29 273/649/29 259/653/29 270/654/29
f 406/655/29 401/656/29 265/657/29 278/658/29
f 405/659/17 406/655/17 278/658/17 279/660/17
f 279/660/17 278/658/17 275/661/17 280/662/17
f 278/658/29 265/657/29 262/663/29 275/661/29
f 418/664/29 416/665/29 271/651/29 277/647/29
f 419/666/17 418/664/17 277/647/17 207/646/17
f 284/667/15 283/668/15 287/669/15 288/670/15
f 282/671/15 281/672/15 285/673/15 286/674/15
f 284/667/15 288/670/15 290/675/15 289/676/15
f 285/673/15 281/672/15 292/677/15 291/678/15
f 287/669/15 283/668/15 293/679/15 294/680/15
f 282/671/15 286/674/15 296/681/15 295/682/15
f 252/614/11 251/613/11 295/683/11 296/684/11
f 236/561/14 242/685/14 290/686/14 288/610/14
f 241/581/17 232/555/17 300/434/17 301/687/17
f 292/677/15 281/672/15 306/688/15 310/689/15
f 289/601/11 241/573/11 301/411/11 302/410/11
f 284/667/15 289/676/15 302/690/15 309/414/15
f 282/671/15 295/682/15 312/691/15 307/692/15
f 243/565/14 233/559/14 285/693/14 291/694/14
f 233/559/14 234/558/14 286/587/14 285/693/14
f 295/683/11 251/613/11 305/421/11 312/420/11
f 301/687/17 300/434/17 203/437/17 352/695/17
f 310/689/15 306/688/15 342/696/15 344/697/15
f 304/698/18 311/699/18 357/700/18 354/701/18
f 299/435/17 304/702/17 354/703/17 204/436/17
f 307/692/15 312/691/15 345/704/15 343/705/15
f 306/688/15 307/692/15 343/705/15 342/696/15
f 281/672/15 282/671/15 307/692/15 306/688/15
f 230/570/17 229/569/17 200/706/17 199/481/17
f 244/578/18 292/580/18 310/417/18 303/416/18
f 283/668/15 284/667/15 309/414/15 308/383/15
f 231/554/17 249/707/17 304/702/17 299/435/17
f 232/555/17 231/554/17 299/435/17 300/434/17
f 229/569/17 244/708/17 303/709/17 200/706/17
f 249/548/18 293/551/18 311/699/18 304/698/18
f 251/710/17 230/570/17 199/481/17 305/480/17
f 293/679/15 283/668/15 308/383/15 311/382/15
f 411/349/14 419/711/14 207/712/14 175/713/14
f 161/714/14 279/715/14 280/716/14 162/348/14
f 397/373/14 405/717/14 279/715/14 161/714/14
f 318/718/14 317/719/14 313/353/14 314/352/14
f 337/720/18 161/721/18 313/353/18 317/719/18
f 338/722/11 187/723/11 315/724/11 318/718/11
f 187/725/15 188/726/15 316/727/15 315/724/15
f 398/622/19 172/627/19 328/424/19 407/428/19
f 169/728/17 394/729/17 396/314/17 263/730/17
f 253/731/17 437/389/17 264/388/17 178/732/17
f 269/617/28 195/407/28 427/394/28 431/625/28
f 172/627/19 171/626/19 327/425/19 328/424/19
f 341/733/14 191/734/14 336/371/14 408/370/14
f 176/506/11 334/466/11 322/469/11 202/507/11
f 389/735/19 158/736/19 331/447/19 393/446/19
f 192/737/18 335/462/18 323/465/18 200/738/18
f 194/739/18 333/470/18 321/471/18 204/740/18
f 199/741/14 200/742/14 323/455/14 324/454/14
f 203/743/14 204/744/14 321/459/14 322/458/14
f 155/745/11 253/746/11 320/616/11 332/615/11
f 158/736/27 254/747/27 319/442/27 331/447/27
f 188/748/18 337/720/18 317/719/18 316/727/18
f 254/747/18 156/749/18 339/443/18 319/442/18
f 315/724/14 316/727/14 317/719/14 318/718/14
f 359/750/14 187/433/14 338/347/14 420/346/14
f 162/751/11 338/722/11 318/718/11 314/352/11
f 170/500/11 336/476/11 324/479/11 198/493/11
f 178/391/19 177/390/19 325/405/19 326/404/19
f 412/633/19 164/497/19 330/439/19 421/438/19
f 200/706/17 303/709/17 340/752/17 192/753/17
f 171/754/19 389/735/19 393/446/19 327/755/19
f 335/320/14 395/319/14 394/644/14 169/756/14
f 167/757/14 168/758/14 342/759/14 343/760/14
f 394/729/17 156/761/17 254/315/17 396/314/17
f 263/730/17 396/314/17 389/317/17 171/762/17
f 231/554/19 364/553/19 370/763/19 249/707/19
f 234/558/14 349/557/14 298/764/14 252/585/14
f 366/560/17 365/552/17 367/582/17 368/765/17
f 229/569/19 350/568/19 346/766/19 244/708/19
f 366/560/17 363/542/17 364/553/17 365/552/17
f 309/414/15 302/690/15 353/767/15 356/415/15
f 203/451/17 204/768/17 194/769/17 193/452/17
f 353/413/30 352/412/30 387/770/30 358/771/30
f 355/384/15 356/415/15 361/772/15 360/773/15
f 354/701/18 357/700/18 362/774/18 359/775/18
f 204/436/17 354/703/17 359/776/17 194/777/17
f 356/415/15 353/767/15 358/778/15 361/772/15
f 352/695/17 203/437/17 193/779/17 387/780/17
f 357/385/15 355/384/15 360/773/15 362/781/15
f 159/782/14 160/783/14 409/431/14 402/430/14
f 409/431/14 345/784/14 341/733/14 188/432/14
f 181/785/14 182/786/14 360/787/14 361/788/14
f 196/406/19 415/441/19 434/340/19 428/395/19
f 186/789/19 403/429/19 433/360/19 424/344/19
f 348/567/19 230/570/19 251/710/19 297/790/19
f 364/553/17 363/542/17 369/545/17 370/763/17
f 298/791/17 349/792/17 348/567/17 297/790/17
f 236/561/14 366/560/14 368/765/14 242/685/14
f 349/792/17 351/793/17 350/568/17 348/567/17
f 347/794/17 346/766/17 350/568/17 351/793/17
f 384/795/15 385/796/15 381/797/15 380/798/15
f 380/798/15 379/799/15 383/800/15 384/795/15
f 248/609/11 247/608/11 372/801/11 371/802/11
f 240/537/18 239/536/18 373/803/18 378/804/18
f 214/521/19 213/520/19 377/594/19 374/805/19
f 221/527/14 376/806/14 373/807/14 239/808/14
f 221/527/14 222/526/14 375/562/14 376/806/14
f 379/799/15 382/809/15 386/810/15 383/800/15
f 371/802/15 372/801/15 374/811/15 375/812/15
f 214/521/19 374/805/19 372/813/19 247/814/19
f 223/531/14 383/815/14 386/816/14 246/817/14
f 216/525/19 215/524/19 379/603/19 380/818/19
f 223/531/14 224/530/14 384/575/14 383/815/14
f 238/591/11 237/590/11 381/797/11 385/796/11
f 216/525/19 380/818/19 381/819/19 237/820/19
f 245/600/18 246/599/18 386/810/18 382/809/18
f 377/821/15 376/822/15 375/812/15 374/811/15
f 378/804/15 373/803/15 376/822/15 377/821/15
f 149/312/19 151/284/19 152/287/19 150/313/19
f 261/358/15 392/326/15 390/329/15 168/359/15
f 173/631/15 388/640/15 392/326/15 261/358/15
f 327/755/19 393/446/19 391/449/19 190/823/19
f 426/824/19 432/322/19 388/325/19 173/825/19
f 167/757/14 343/760/14 345/784/14 400/826/14
f 184/827/14 340/318/14 344/828/14 429/829/14
f 344/828/14 342/759/14 168/758/14 390/830/14
f 188/432/14 341/733/14 408/370/14 337/831/14
f 163/496/19 398/622/19 407/428/19 329/832/19
f 170/372/14 206/833/14 405/717/14 397/373/14
f 206/489/17 276/650/17 406/655/17 405/659/17
f 276/650/29 270/654/29 401/656/29 406/655/29
f 165/636/15 399/632/15 404/354/15 258/338/15
f 172/627/19 398/622/19 401/623/19 270/628/19
f 329/832/19 407/428/19 403/429/19 186/789/19
f 337/831/14 408/370/14 397/373/14 161/714/14
f 424/344/19 433/360/19 399/363/19 165/345/19
f 258/338/15 404/354/15 400/357/15 160/339/15
f 177/390/19 412/633/19 421/438/19 325/405/19
f 400/826/14 345/784/14 409/431/14 160/783/14
f 194/834/14 359/750/14 420/346/14 333/835/14
f 162/348/14 280/716/14 419/711/14 411/349/14
f 280/662/17 275/661/17 418/664/17 419/666/17
f 275/661/29 262/663/29 416/665/29 418/664/29
f 179/620/15 413/637/15 417/334/15 267/402/15
f 164/497/19 412/633/19 416/634/19 262/498/19
f 325/405/19 421/438/19 415/441/19 196/406/19
f 333/835/14 420/346/14 411/349/14 175/713/14
f 428/395/19 434/340/19 413/343/19 179/396/19
f 267/402/15 417/334/15 410/337/15 182/403/15
f 187/433/14 359/750/14 362/836/14 402/430/14
f 410/837/14 159/782/14 402/430/14 362/836/14
f 362/836/14 360/787/14 182/786/14 410/837/14
f 190/823/19 391/449/19 432/322/19 426/824/19
f 183/618/11 269/617/11 431/625/11 414/638/11
f 185/448/27 268/445/27 430/330/27 422/323/27
f 195/407/19 196/406/19 428/395/19 427/394/19
f 320/616/28 326/404/28 195/407/28 269/617/28
f 189/427/19 190/426/19 426/364/19 425/361/19
f 403/429/19 189/427/19 425/361/19 433/360/19
f 738/440/19 186/789/19 424/344/19 423/341/19
f 415/441/19 738/440/19 423/341/19 434/340/19
f 268/445/18 184/444/18 429/331/18 430/330/18
f 391/449/19 185/448/19 422/323/19 432/322/19
f 390/830/14 154/838/14 429/829/14 344/828/14
f 387/378/14 183/839/14 414/840/14 358/841/14
f 253/746/28 178/391/28 326/404/28 320/616/28
f 332/842/14 436/381/14 435/409/14 155/843/14
f 155/844/17 435/386/17 437/389/17 253/731/17
f 255/621/15 439/398/15 438/401/15 153/845/15
f 181/785/14 361/788/14 358/841/14 438/846/14
f 414/840/14 153/847/14 438/846/14 358/841/14
f 436/381/14 332/842/14 183/839/14 387/378/14
f 395/319/14 340/318/14 184/827/14 339/642/14
f 694/848/17 542/849/17 445/850/17 687/851/17
f 638/852/14 693/853/14 627/854/14 480/855/14
f 730/856/19 720/857/19 444/858/19 686/859/19
f 690/860/15 544/861/15 441/862/15 688/863/15
f 728/864/18 727/865/18 441/866/18 544/867/18
f 715/868/15 545/869/15 446/870/15 708/871/15
f 545/869/15 546/872/15 447/873/15 446/870/15
f 732/874/19 721/875/19 453/876/19 711/877/19
f 721/875/19 722/878/19 452/879/19 453/876/19
f 718/880/14 630/881/14 449/882/14 709/883/14
f 448/884/17 449/885/17 602/886/17 601/887/17
f 702/888/15 548/889/15 454/890/15 698/891/15
f 548/889/15 549/892/15 455/893/15 454/890/15
f 731/894/19 723/895/19 461/896/19 697/897/19
f 723/895/19 724/898/19 460/899/19 461/896/19
f 465/900/11 552/901/11 562/902/11 560/903/11
f 706/904/14 628/905/14 457/906/14 695/907/14
f 489/908/18 462/909/18 495/910/18 499/911/18
f 685/912/14 481/913/14 626/914/14 734/915/14
f 599/916/15 596/917/15 653/918/15 655/919/15
f 733/920/17 463/921/17 552/922/17 735/923/17
f 464/924/19 465/925/19 560/926/19 559/927/19
f 725/928/19 726/929/19 466/930/19 467/931/19
f 737/932/15 554/933/15 468/934/15 736/935/15
f 554/933/15 555/936/15 469/937/15 468/934/15
f 618/938/19 617/939/19 484/940/19 483/941/19
f 734/915/14 626/914/14 463/942/14 733/943/14
f 590/944/11 589/945/11 650/946/11 651/947/11
f 596/917/15 597/948/15 654/949/15 653/918/15
f 591/950/18 598/951/18 642/952/18 638/953/18
f 600/954/11 593/955/11 639/956/11 643/957/11
f 620/958/19 619/959/19 478/960/19 477/961/19
f 705/962/19 620/958/19 477/961/19 701/963/19
f 700/964/14 707/965/14 476/966/14 475/967/14
f 588/968/17 587/969/17 492/970/17 491/971/17
f 719/972/19 622/973/19 473/974/19 713/975/19
f 611/976/18 631/977/18 471/978/18 556/979/18
f 691/980/19 623/981/19 472/982/19 689/983/19
f 487/984/17 488/985/17 480/986/17 479/987/17
f 616/988/14 615/989/14 485/990/14 486/991/14
f 614/992/14 613/993/14 489/994/14 490/995/14
f 627/996/18 456/997/18 485/998/18 615/999/18
f 626/1000/11 481/1001/11 491/1002/11 614/1003/11
f 625/1004/18 462/909/18 489/908/18 613/1005/18
f 551/1006/18 458/1007/18 547/1008/18 561/1009/18
f 628/1010/11 479/1011/11 487/1012/11 616/1013/11
f 593/1014/17 487/1015/17 479/1016/17 639/1017/17
f 495/1018/25 496/1019/25 500/1020/25 499/1021/25
f 493/1022/25 494/1023/25 498/1024/25 497/1025/25
f 498/1026/11 486/1027/11 502/1028/11 506/1029/11
f 450/1030/19 451/1031/19 550/1032/19 553/1033/19
f 457/1034/11 486/1027/11 498/1026/11 494/1035/11
f 499/1021/17 500/1020/17 508/1036/17 507/1037/17
f 485/998/18 456/997/18 493/1038/18 497/1039/18
f 463/1040/11 490/1041/11 500/1042/11 496/1043/11
f 501/1044/18 505/1045/18 513/1046/18 509/1047/18
f 508/1048/11 504/1049/11 512/1050/11 516/1051/11
f 489/908/18 499/911/18 507/1052/18 503/1053/18
f 486/991/15 485/990/15 501/1054/15 502/1055/15
f 500/1042/11 490/1041/11 504/1049/11 508/1048/11
f 497/1025/17 498/1024/17 506/1056/17 505/1057/17
f 485/998/18 497/1039/18 505/1045/18 501/1044/18
f 490/995/15 489/994/15 503/1058/15 504/1059/15
f 510/1060/14 509/1061/14 513/1062/14 514/1063/14
f 512/1064/14 511/1065/14 515/1066/14 516/1067/14
f 507/1037/26 508/1036/26 516/1067/26 515/1066/26
f 501/1068/17 509/1069/17 527/1070/17 528/1071/17
f 506/1029/11 502/1028/11 510/1072/11 514/1073/11
f 503/1053/18 507/1052/18 515/1074/18 511/1075/18
f 505/1057/26 506/1056/26 514/1063/26 513/1062/26
f 661/1076/14 523/1077/14 538/1078/14 667/1079/14
f 538/1078/14 523/1077/14 575/1080/14 582/1081/14
f 537/1082/18 538/1083/18 582/1084/18 581/1085/18
f 663/1086/19 662/1087/19 519/1088/19 520/1089/19
f 649/1090/14 647/1091/14 522/1092/14 521/1093/14
f 661/1076/14 664/1094/14 524/1095/14 523/1077/14
f 673/1096/14 510/1060/14 536/1097/14 669/1098/14
f 649/1090/14 521/1093/14 531/1099/14 645/1100/14
f 646/1101/19 648/1102/19 517/1103/19 518/1104/19
f 666/1105/11 665/1106/11 529/1107/11 530/1108/11
f 682/1109/14 512/1064/14 526/1110/14 683/145/14
f 532/1111/18 531/1112/18 579/1113/18 580/1114/18
f 663/1086/19 520/1089/19 529/1115/19 665/1116/19
f 644/1117/18 645/1118/18 531/1112/18 532/1111/18
f 522/1092/14 540/1119/14 584/1120/14 574/1121/14
f 512/1122/17 504/1123/17 525/1124/17 526/1125/17
f 668/1126/18 667/1127/18 538/1083/18 537/1082/18
f 675/1128/19 501/1054/19 528/1129/19 676/1130/19
f 503/1131/17 511/1132/17 534/1133/17 533/1134/17
f 530/1108/11 529/1107/11 577/1135/11 578/1136/11
f 677/1137/19 503/1058/19 533/1138/19 680/1139/19
f 510/607/17 502/1140/17 535/1141/17 536/608/17
f 523/1077/14 524/1095/14 576/1142/14 575/1080/14
f 586/1143/11 585/1144/11 539/1145/11 540/1146/11
f 624/1147/11 612/1148/11 557/1149/11 470/1150/11
f 623/981/27 611/976/27 556/979/27 472/982/27
f 467/1151/15 466/1152/15 555/936/15 554/933/15
f 467/1151/15 554/933/15 737/932/15 543/1153/15
f 696/1154/19 450/1030/19 553/1033/19 699/1155/19
f 725/928/28 467/931/28 543/1156/28 729/1157/28
f 458/1158/19 459/1159/19 558/1160/19 547/1161/19
f 552/901/11 463/1040/11 496/1043/11 562/902/11
f 461/1162/15 460/1163/15 549/892/15 548/889/15
f 697/1164/15 461/1162/15 548/889/15 702/888/15
f 710/1165/19 464/924/19 559/927/19 714/1166/19
f 456/997/18 551/1006/18 561/1009/18 493/1038/18
f 453/1167/15 452/1168/15 546/872/15 545/869/15
f 711/1169/15 453/1167/15 545/869/15 715/868/15
f 720/857/27 728/864/27 544/867/27 444/858/27
f 712/1170/11 729/1157/11 543/1156/11 440/1171/11
f 686/1172/15 444/1173/15 544/861/15 690/860/15
f 693/853/14 631/1174/14 443/1175/14 692/1176/14
f 496/1177/17 495/1178/17 565/1179/17 562/1180/17
f 494/1023/17 493/1022/17 561/1181/17 564/1182/17
f 562/1180/29 565/1179/29 559/1183/29 560/1184/29
f 564/1182/29 561/1181/29 547/1185/29 558/1186/29
f 704/1187/29 699/1188/29 553/1189/29 566/1190/29
f 703/1191/17 704/1187/17 566/1190/17 567/1192/17
f 567/1192/17 566/1190/17 563/1193/17 568/1194/17
f 566/1190/29 553/1189/29 550/1195/29 563/1193/29
f 716/1196/29 714/1197/29 559/1183/29 565/1179/29
f 717/1198/17 716/1196/17 565/1179/17 495/1178/17
f 572/1199/15 571/1200/15 575/1201/15 576/1202/15
f 570/1203/15 569/1204/15 573/1205/15 574/1206/15
f 572/1199/15 576/1202/15 578/1207/15 577/1208/15
f 573/1205/15 569/1204/15 580/1209/15 579/1210/15
f 575/1201/15 571/1200/15 581/1211/15 582/1212/15
f 570/1203/15 574/1206/15 584/1213/15 583/1214/15
f 540/1146/11 539/1145/11 583/1215/11 584/1216/11
f 524/1095/14 530/1217/14 578/1218/14 576/1142/14
f 529/1115/17 520/1089/17 588/968/17 589/1219/17
f 580/1209/15 569/1204/15 594/1220/15 598/1221/15
f 577/1135/11 529/1107/11 589/945/11 590/944/11
f 572/1199/15 577/1208/15 590/1222/15 597/948/15
f 570/1203/15 583/1214/15 600/1223/15 595/1224/15
f 531/1099/14 521/1093/14 573/1225/14 579/1226/14
f 521/1093/14 522/1092/14 574/1121/14 573/1225/14
f 583/1215/11 539/1145/11 593/955/11 600/954/11
f 589/1219/17 588/968/17 491/971/17 650/1227/17
f 598/1221/15 594/1220/15 640/1228/15 642/1229/15
f 592/1230/18 599/1231/18 655/1232/18 652/1233/18
f 587/969/17 592/1234/17 652/1235/17 492/970/17
f 595/1224/15 600/1223/15 643/1236/15 641/1237/15
f 594/1220/15 595/1224/15 641/1237/15 640/1228/15
f 569/1204/15 570/1203/15 595/1224/15 594/1220/15
f 518/1104/17 517/1103/17 488/1238/17 487/1015/17
f 532/1111/18 580/1114/18 598/951/18 591/950/18
f 571/1200/15 572/1199/15 597/948/15 596/917/15
f 519/1088/17 537/1239/17 592/1234/17 587/969/17
f 520/1089/17 519/1088/17 587/969/17 588/968/17
f 517/1103/17 532/1240/17 591/1241/17 488/1238/17
f 537/1082/18 581/1085/18 599/1231/18 592/1230/18
f 539/1242/17 518/1104/17 487/1015/17 593/1014/17
f 581/1211/15 571/1200/15 596/917/15 599/916/15
f 709/883/14 717/1243/14 495/1244/14 462/1245/14
f 448/1246/14 567/1247/14 568/1248/14 449/882/14
f 695/907/14 703/1249/14 567/1247/14 448/1246/14
f 610/1250/14 609/1251/14 601/887/14 602/886/14
f 629/1252/18 448/1253/18 601/887/18 609/1251/18
f 630/1254/11 475/1255/11 603/1256/11 610/1250/11
f 475/1257/15 476/1258/15 604/1259/15 603/1256/15
f 696/1154/19 459/1159/19 620/958/19 705/962/19
f 456/1260/17 692/1261/17 694/848/17 551/1262/17
f 541/1263/17 735/923/17 552/922/17 465/1264/17
f 557/1149/28 483/941/28 725/928/28 729/1157/28
f 459/1159/19 458/1158/19 619/959/19 620/958/19
f 639/1265/14 479/1266/14 628/905/14 706/904/14
f 463/1040/11 626/1000/11 614/1003/11 490/1041/11
f 687/1267/19 445/1268/19 623/981/19 691/980/19
f 480/1269/18 627/996/18 615/999/18 488/1270/18
f 482/1271/18 625/1004/18 613/1005/18 492/1272/18
f 487/1273/14 488/1274/14 615/989/14 616/988/14
f 491/1275/14 492/1276/14 613/993/14 614/992/14
f 450/1277/18 621/1278/18 607/1279/18 633/1280/18
f 442/1281/11 541/1282/11 612/1148/11 624/1147/11
f 445/1268/27 542/1283/27 611/976/27 623/981/27
f 634/1284/11 608/1285/11 606/1286/11 637/1287/11
f 476/1288/18 629/1252/18 609/1251/18 604/1259/18
f 542/1283/18 443/1289/18 631/977/18 611/976/18
f 603/1256/14 604/1259/14 609/1251/14 610/1250/14
f 657/1290/14 475/967/14 630/881/14 718/880/14
f 451/1291/17 450/1292/17 633/1293/17 635/1294/17
f 449/1295/11 630/1254/11 610/1250/11 602/886/11
f 607/1279/18 632/1296/18 636/1297/18 605/1298/18
f 621/1278/18 474/1299/18 632/1296/18 607/1279/18
f 605/1300/17 606/1301/17 608/1302/17 607/1303/17
f 632/1304/15 634/1305/15 637/1306/15 636/1307/15
f 622/1308/11 451/1309/11 635/1310/11 608/1285/11
f 474/1311/15 473/1312/15 634/1305/15 632/1304/15
f 457/1034/11 628/1010/11 616/1013/11 486/1027/11
f 465/925/19 464/924/19 617/939/19 618/938/19
f 635/1294/19 633/1293/19 607/1303/19 608/1302/19
f 710/1165/19 451/1031/19 622/973/19 719/972/19
f 473/1313/11 622/1308/11 608/1285/11 634/1284/11
f 606/1301/19 605/1300/19 636/1314/19 637/776/19
f 488/1238/17 591/1241/17 638/1315/17 480/1316/17
f 458/1317/19 687/1267/19 691/980/19 619/1318/19
f 627/854/14 693/853/14 692/1176/14 456/1319/14
f 454/1320/14 455/1321/14 640/1322/14 641/1323/14
f 692/1261/17 443/1324/17 542/849/17 694/848/17
f 551/1262/17 694/848/17 687/851/17 458/1325/17
f 519/1088/19 662/1087/19 668/1326/19 537/1239/19
f 522/1092/14 647/1091/14 586/1327/14 540/1119/14
f 664/1094/17 663/1086/17 665/1116/17 666/1328/17
f 517/1103/19 648/1102/19 644/1329/19 532/1240/19
f 664/1094/17 661/1076/17 662/1087/17 663/1086/17
f 597/948/15 590/1222/15 651/1330/15 654/949/15
f 491/985/17 492/1331/17 482/1332/17 481/986/17
f 651/947/30 650/946/30 685/1333/30 656/1334/30
f 653/918/15 654/949/15 659/1335/15 658/1336/15
f 652/1233/18 655/1232/18 660/1337/18 657/1338/18
f 492/970/17 652/1235/17 657/1339/17 482/1340/17
f 654/949/15 651/1330/15 656/1341/15 659/1335/15
f 650/1227/17 491/971/17 481/1342/17 685/1343/17
f 655/919/15 653/918/15 658/1336/15 660/1344/15
f 446/1345/14 447/1346/14 707/965/14 700/964/14
f 707/965/14 643/1347/14 639/1265/14 476/966/14
f 468/1348/14 469/1349/14 658/1350/14 659/1351/14
f 484/940/19 713/975/19 732/874/19 726/929/19
f 474/1352/19 701/963/19 731/894/19 722/878/19
f 646/1101/19 518/1104/19 539/1242/19 585/1353/19
f 662/1087/17 661/1076/17 667/1079/17 668/1326/17
f 586/1354/17 647/1355/17 646/1101/17 585/1353/17
f 524/1095/14 664/1094/14 666/1328/14 530/1217/14
f 647/1355/17 649/1356/17 648/1102/17 646/1101/17
f 645/1357/17 644/1329/17 648/1102/17 649/1356/17
f 682/1358/15 683/1359/15 679/1360/15 678/1361/15
f 678/1361/15 677/1362/15 681/1363/15 682/1358/15
f 536/608/11 535/1141/11 670/1364/11 669/801/11
f 528/1071/18 527/1070/18 671/1365/18 676/1366/18
f 502/1055/19 501/1054/19 675/1128/19 672/1367/19
f 509/1061/14 674/1368/14 671/1369/14 527/1370/14
f 509/1061/14 510/1060/14 673/1096/14 674/1368/14
f 677/1362/15 680/1371/15 684/1372/15 681/1363/15
f 669/801/15 670/1364/15 672/1373/15 673/811/15
f 502/1055/19 672/1367/19 670/1374/19 535/1375/19
f 511/1065/14 681/1376/14 684/1377/14 534/1378/14
f 504/1059/19 503/1058/19 677/1137/19 678/1379/19
f 511/1065/14 512/1064/14 682/1109/14 681/1376/14
f 526/1125/11 525/1124/11 679/1360/11 683/1359/11
f 504/1059/19 678/1379/19 679/1380/19 525/1381/19
f 533/1134/18 534/1133/18 684/1372/18 680/1371/18
f 675/1382/15 674/1383/15 673/811/15 672/1373/15
f 676/1366/15 671/1365/15 674/1383/15 675/1382/15
f 549/892/15 690/860/15 688/863/15 455/893/15
f 460/1163/15 686/1172/15 690/860/15 549/892/15
f 619/1318/19 691/980/19 689/983/19 478/1384/19
f 724/1385/19 730/856/19 686/859/19 460/1386/19
f 454/1320/14 641/1323/14 643/1347/14 698/1387/14
f 471/1388/14 638/852/14 642/1389/14 727/1390/14
f 642/1389/14 640/1322/14 455/1321/14 688/1391/14
f 476/966/14 639/1265/14 706/904/14 629/1392/14
f 450/1030/19 696/1154/19 705/962/19 621/1393/19
f 457/906/14 494/1394/14 703/1249/14 695/907/14
f 494/1023/17 564/1182/17 704/1187/17 703/1191/17
f 564/1182/29 558/1186/29 699/1188/29 704/1187/29
f 452/1168/15 697/1164/15 702/888/15 546/872/15
f 459/1159/19 696/1154/19 699/1155/19 558/1160/19
f 621/1393/19 705/962/19 701/963/19 474/1352/19
f 629/1392/14 706/904/14 695/907/14 448/1246/14
f 722/878/19 731/894/19 697/897/19 452/879/19
f 546/872/15 702/888/15 698/891/15 447/873/15
f 464/924/19 710/1165/19 719/972/19 617/939/19
f 698/1387/14 643/1347/14 707/965/14 447/1346/14
f 482/1395/14 657/1290/14 718/880/14 625/1396/14
f 449/882/14 568/1248/14 717/1243/14 709/883/14
f 568/1194/17 563/1193/17 716/1196/17 717/1198/17
f 563/1193/29 550/1195/29 714/1197/29 716/1196/29
f 466/1152/15 711/1169/15 715/868/15 555/936/15
f 451/1031/19 710/1165/19 714/1166/19 550/1032/19
f 617/939/19 719/972/19 713/975/19 484/940/19
f 625/1396/14 718/880/14 709/883/14 462/1245/14
f 726/929/19 732/874/19 711/877/19 466/930/19
f 555/936/15 715/868/15 708/871/15 469/937/15
f 475/967/14 657/1290/14 660/1397/14 700/964/14
f 708/1398/14 446/1345/14 700/964/14 660/1397/14
f 660/1397/14 658/1350/14 469/1349/14 708/1398/14
f 478/1384/19 689/983/19 730/856/19 724/1385/19
f 470/1150/11 557/1149/11 729/1157/11 712/1170/11
f 472/982/27 556/979/27 728/864/27 720/857/27
f 483/941/19 484/940/19 726/929/19 725/928/19
f 612/1148/28 618/938/28 483/941/28 557/1149/28
f 477/961/19 478/960/19 724/898/19 723/895/19
f 701/963/19 477/961/19 723/895/19 731/894/19
f 473/974/19 474/1352/19 722/878/19 721/875/19
f 713/975/19 473/974/19 721/875/19 732/874/19
f 556/979/18 471/978/18 727/865/18 728/864/18
f 689/983/19 472/982/19 720/857/19 730/856/19
f 688/1391/14 441/1399/14 727/1390/14 642/1389/14
f 685/912/14 470/1400/14 712/1401/14 656/1402/14
f 541/1282/28 465/925/28 618/938/28 612/1148/28
f 624/1403/14 734/915/14 733/943/14 442/1404/14
f 442/1405/17 733/920/17 735/923/17 541/1263/17
f 543/1153/15 737/932/15 736/935/15 440/1406/15
f 468/1348/14 659/1351/14 656/1402/14 736/1407/14
f 712/1401/14 440/1408/14 736/1407/14 656/1402/14
f 734/915/14 624/1403/14 470/1400/14 685/912/14
f 693/853/14 638/852/14 471/1388/14 631/1174/14
f 738/1409/11 743/1410/11 741/1411/11 746/1412/11
f 747/1413/18 742/1414/18 740/1415/18 750/1416/18
f 186/1417/15 738/1418/15 746/1419/15 748/1420/15
f 741/1411/11 745/1421/11 749/1422/11 739/1423/11
f 743/1410/11 164/1424/11 745/1421/11 741/1411/11
f 739/1425/15 740/1426/15 742/1427/15 741/1428/15
f 745/1429/17 747/1430/17 750/1431/17 749/1432/17
f 744/1433/18 186/1434/18 748/1435/18 742/1414/18
f 164/1436/17 163/1437/17 747/1430/17 745/1429/17
f 748/1420/19 746/1419/19 741/1428/19 742/1427/19
f 163/1438/18 744/1433/18 742/1414/18 747/1413/18
f 740/1426/19 739/1425/19 749/1439/19 750/1440/19
