# Blender 5.2.1 LTS
# www.blender.org
mtllib FloorShootingPanopticonPrt01.mtl
o FloorShootingPanopticonPrt01
v -0.000000 -0.200342 10.708261
v -0.000000 0.100006 10.708261
v -4.835944 -0.200342 10.708261
v -4.835944 0.100006 10.708261
v -8.195748 -0.200342 8.195748
v -8.195748 0.100006 8.195748
v -10.708261 -0.200342 4.760664
v -10.708261 0.100006 4.760664
v -10.708261 -0.200342 -0.000000
v -10.708261 0.100006 -0.000000
v -10.708261 -0.200342 -4.760664
v -10.708261 0.100006 -4.760664
v -8.195748 -0.200342 -8.195748
v -8.195748 0.100006 -8.195748
v -4.835944 -0.200342 -10.708261
v -4.835944 0.100006 -10.708261
v -0.000000 -0.200342 -10.708261
v -0.000000 0.100006 -10.708261
v 4.835951 -0.200342 -10.708261
v 4.835951 0.100006 -10.708261
v 8.195748 -0.200342 -8.195748
v 8.195748 0.100006 -8.195748
v 10.708261 -0.200342 -4.760664
v 10.708261 0.100006 -4.760664
v 10.708261 -0.200342 -0.000000
v 10.708261 0.100006 -0.000000
v 10.708261 -0.200342 4.760664
v 10.708261 0.100006 4.760664
v 8.195748 -0.200342 8.195748
v 8.195748 0.100006 8.195748
v 4.835951 -0.200342 10.708261
v 4.835951 0.100006 10.708261
v 4.307272 0.100005 4.238802
v 0.000000 0.100005 4.238802
v -4.307265 0.100005 4.238802
v 4.307272 0.100005 0.000000
v -4.307265 0.100005 0.000000
v 4.307272 0.100005 -4.238802
v 0.000000 0.100005 -4.238802
v -4.307265 0.100005 -4.238802
v -4.307265 -0.200342 4.238802
v 0.000000 -0.200342 4.238802
v 4.307272 -0.200342 4.238802
v -4.307265 -0.200342 0.000000
v 4.307272 -0.200342 0.000000
v -4.307265 -0.200342 -4.238802
v 0.000000 -0.200342 -4.238802
v 4.307272 -0.200342 -4.238802
v 4.736097 0.100005 0.000000
v 4.736097 0.100005 4.660810
v 4.736097 0.100005 -4.660810
v -0.000000 0.100005 4.660810
v -0.000000 0.100005 -4.660810
v -4.736090 0.100005 4.660810
v -4.736090 0.100005 0.000000
v -4.736090 0.100005 -4.660810
v -4.736089 -0.200342 0.000000
v -4.736090 -0.200342 4.660810
v -4.736090 -0.200342 -4.660810
v -0.000000 -0.200342 4.660810
v -0.000000 -0.200342 -4.660810
v 4.736097 -0.200342 4.660810
v 4.736097 -0.200342 0.000000
v 4.736097 -0.200342 -4.660810
v -0.000000 -0.200342 10.467192
v -4.736090 -0.200342 10.467192
v -4.736090 0.100006 10.467192
v -0.000000 0.100006 10.467192
v -8.011242 -0.200342 8.011242
v -8.011242 0.100006 8.011242
v -10.467192 -0.200342 4.660810
v -10.467192 0.100006 4.660810
v -10.467192 -0.200342 -0.000000
v -10.467192 0.100006 -0.000000
v -10.467192 -0.200342 -4.660810
v -10.467192 0.100006 -4.660810
v -8.011242 -0.200342 -8.011242
v -8.011242 0.100006 -8.011242
v -4.736090 -0.200342 -10.467192
v -4.736090 0.100006 -10.467192
v -0.000000 -0.200342 -10.467192
v -0.000000 0.100006 -10.467192
v 4.736097 -0.200342 -10.467192
v 4.736097 0.100006 -10.467192
v 8.011242 -0.200342 -8.011242
v 8.011242 0.100006 -8.011242
v 10.467192 -0.200342 -4.660810
v 10.467192 0.100006 -4.660810
v 10.467192 -0.200342 -0.000000
v 10.467192 0.100006 -0.000000
v 10.467192 -0.200342 4.660810
v 10.467192 0.100006 4.660810
v 8.011242 -0.200342 8.011242
v 8.011242 0.100006 8.011242
v 4.736097 -0.200342 10.467192
v 4.736097 0.100006 10.467192
vn -0.0000 -0.0000 1.0000
vn -0.5989 -0.0000 0.8008
vn -0.8071 -0.0000 0.5904
vn -1.0000 -0.0000 -0.0000
vn -0.8071 -0.0000 -0.5904
vn -0.5989 -0.0000 -0.8008
vn -0.0000 -0.0000 -1.0000
vn 0.5989 -0.0000 -0.8008
vn 0.8071 -0.0000 -0.5904
vn 1.0000 -0.0000 -0.0000
vn 0.8071 -0.0000 0.5904
vn 0.5989 -0.0000 0.8008
vn -0.5999 -0.0000 -0.8000
vn -0.8065 -0.0000 -0.5912
vn -0.8065 -0.0000 0.5912
vn -0.5999 -0.0000 0.8000
vn 0.5999 -0.0000 0.8000
vn 0.8065 -0.0000 0.5912
vn 0.8065 -0.0000 -0.5912
vn 0.5999 -0.0000 -0.8000
vn -0.0000 -1.0000 -0.0000
vn -0.0000 1.0000 -0.0000
vt 0.021042 0.632186
vt 0.010521 0.632186
vt 0.010521 0.462791
vt 0.021042 0.462791
vt 0.010521 0.315835
vt 0.021042 0.315835
vt 0.010521 0.166758
vt 0.021042 0.166758
vt 0.010521 -0.000000
vt 0.021041 -0.000000
vt 0.010521 0.632186
vt 0.000000 0.632186
vt 0.000000 0.465428
vt 0.010521 0.465428
vt 0.000000 0.316352
vt 0.010521 0.316352
vt 0.000000 0.169395
vt 0.010521 0.169395
vt 0.000000 0.000000
vt 0.010521 0.000000
vt 0.021042 0.000000
vt 0.031563 0.000000
vt 0.031563 0.169395
vt 0.021042 0.169395
vt 0.031563 0.316352
vt 0.021042 0.316352
vt 0.031563 0.465428
vt 0.021042 0.465428
vt 0.031563 0.632186
vt 0.021042 0.632186
vt 0.800334 0.846297
vt 0.789814 0.846297
vt 0.789814 0.679538
vt 0.800334 0.679538
vt 0.789814 0.530462
vt 0.800334 0.530462
vt 0.789814 0.846813
vt 0.779293 0.846813
vt 0.779293 0.699857
vt 0.789814 0.699857
vt 0.779293 0.530462
vt 0.789814 0.530462
vt 0.817856 0.696359
vt 0.817856 0.530461
vt 0.828377 0.530461
vt 0.828377 0.696359
vt 0.817856 0.839755
vt 0.828377 0.839755
vt 0.807335 0.675975
vt 0.807335 0.530461
vt 0.817856 0.530461
vt 0.817856 0.675975
vt 0.807335 0.839236
vt 0.817856 0.839236
vt 0.063125 0.454806
vt 0.063125 0.618067
vt 0.052604 0.618067
vt 0.052604 0.454806
vt 0.063125 0.309293
vt 0.052604 0.309293
vt 0.063125 0.165898
vt 0.052604 0.165898
vt 0.063125 0.000000
vt 0.052604 -0.000000
vt 0.042083 0.165897
vt 0.042083 0.000000
vt 0.052604 0.000000
vt 0.052604 0.165897
vt 0.042083 0.309293
vt 0.052604 0.309293
vt 0.042083 0.454806
vt 0.052604 0.454806
vt 0.042083 0.618067
vt 0.052604 0.618067
vt 0.042083 0.454806
vt 0.031563 0.618067
vt 0.031563 0.454806
vt 0.042083 0.309293
vt 0.031563 0.309293
vt 0.042083 0.165897
vt 0.031563 0.165897
vt 0.042083 -0.000000
vt 0.031563 -0.000000
vt 0.063125 0.598710
vt 0.063125 0.450231
vt 0.073646 0.450231
vt 0.073646 0.598710
vt 0.425471 0.696359
vt 0.410689 0.696359
vt 0.410689 0.530462
vt 0.425471 0.545483
vt 0.425471 0.847236
vt 0.410688 0.862257
vt 0.084167 0.598710
vt 0.073646 0.598710
vt 0.073646 0.447833
vt 0.084167 0.447833
vt 0.073646 0.296957
vt 0.084167 0.296957
vt 0.098949 0.847236
vt 0.084167 0.862257
vt 0.084167 0.696360
vt 0.098949 0.696360
vt 0.098949 0.545483
vt 0.084167 0.530462
vt 0.247428 0.530462
vt 0.247428 0.545483
vt 0.073646 0.148478
vt 0.084167 0.148478
vt 0.073646 -0.000000
vt 0.084167 -0.000000
vt 0.063125 0.150876
vt 0.063125 0.000000
vt 0.073646 0.000000
vt 0.073646 0.150876
vt 0.063125 0.301753
vt 0.073646 0.301753
vt 0.573950 0.545483
vt 0.573950 0.530462
vt 0.737210 0.530462
vt 0.722428 0.545483
vt 0.722428 0.847236
vt 0.737210 0.862257
vt 0.573950 0.862257
vt 0.573950 0.847236
vt 0.395906 0.545483
vt 0.410688 0.530462
vt 0.410688 0.696360
vt 0.395906 0.696360
vt 0.737210 0.696359
vt 0.722428 0.696359
vt 0.768772 0.856983
vt 0.768772 0.693722
vt 0.779293 0.693722
vt 0.779293 0.856983
vt 0.747731 0.696359
vt 0.747731 0.530462
vt 0.758252 0.530462
vt 0.758252 0.696359
vt 0.747731 0.862257
vt 0.758252 0.862257
vt 0.758252 0.530462
vt 0.768772 0.530462
vt 0.768772 0.693722
vt 0.758252 0.693722
vt 0.768772 0.856983
vt 0.758252 0.856983
vt 0.768772 0.530462
vt 0.779293 0.530462
vt 0.737210 0.696359
vt 0.737210 0.530462
vt 0.747731 0.530462
vt 0.737210 0.862257
vt 0.247428 0.847236
vt 0.247428 0.862257
vt 0.410688 0.862257
vt 0.395906 0.847236
vt 0.084167 0.530462
vt 0.098950 0.545483
vt 0.410690 0.862257
vt 0.425472 0.847236
vt 0.650132 0.119780
vt 0.641688 0.123278
vt 0.524380 0.005971
vt 0.530351 0.000000
vt 0.383613 0.530461
vt 0.377643 0.524490
vt 0.493085 0.409048
vt 0.501529 0.412546
vt 0.943050 0.689896
vt 0.933951 0.689027
vt 0.886100 0.532936
vt 0.894173 0.530461
vt 0.208054 0.117916
vt 0.199609 0.121414
vt 0.084167 0.005971
vt 0.090138 0.000000
vt 0.951123 0.830732
vt 0.943050 0.828257
vt 0.990901 0.672167
vt 1.000000 0.671298
vt 0.943608 0.119781
vt 0.935163 0.123278
vt 0.817856 0.005971
vt 0.823827 -0.000000
vt 0.371672 0.000000
vt 0.377643 0.005971
vt 0.260335 0.123278
vt 0.251891 0.119781
vt 0.693969 0.412545
vt 0.702413 0.409048
vt 0.817856 0.524490
vt 0.811885 0.530461
vt 0.894173 0.830733
vt 0.886100 0.826448
vt 0.503394 0.119780
vt 0.494950 0.123278
vt 0.377643 0.005971
vt 0.383613 -0.000000
vt 0.530351 0.530461
vt 0.524380 0.524490
vt 0.639823 0.409048
vt 0.648267 0.412546
vt 0.943050 0.534746
vt 0.951123 0.530461
vt 0.090138 0.530462
vt 0.084167 0.524491
vt 0.201474 0.407183
vt 0.209918 0.410681
vt 0.964594 0.265231
vt 0.955454 0.265231
vt 0.240045 0.265231
vt 0.230905 0.265231
vt 0.671118 0.265230
vt 0.680258 0.265230
vt 0.057723 0.770501
vt 0.048624 0.771370
vt 0.000000 0.636471
vt 0.008073 0.632186
vt 0.661978 0.265231
vt 0.671118 0.265231
vt 0.836450 0.830732
vt 0.828377 0.826447
vt 0.877001 0.691548
vt 0.886100 0.692417
vt 0.524380 0.265231
vt 0.515240 0.265231
vt 0.941743 0.412545
vt 0.933299 0.409048
vt 0.221765 0.265231
vt 0.230905 0.265231
vt 0.262200 0.409048
vt 0.253756 0.412546
vt 0.692105 0.119780
vt 0.700549 0.123278
vt 0.008073 0.932457
vt 0.000000 0.929982
vt 0.828377 0.532936
vt 0.836450 0.530461
vt 0.823827 0.530461
vt 0.817856 0.524490
vt 0.377642 0.524491
vt 0.371671 0.530462
vt 0.811885 0.000000
vt 0.817856 0.005971
s 0
usemtl Checker
f 1/1/1 2/2/1 4/3/1 3/4/1
f 3/4/2 4/3/2 6/5/2 5/6/2
f 5/6/3 6/5/3 8/7/3 7/8/3
f 7/8/4 8/7/4 10/9/4 9/10/4
f 9/11/4 10/12/4 12/13/4 11/14/4
f 11/14/5 12/13/5 14/15/5 13/16/5
f 13/16/6 14/15/6 16/17/6 15/18/6
f 15/18/7 16/17/7 18/19/7 17/20/7
f 17/21/7 18/22/7 20/23/7 19/24/7
f 19/24/8 20/23/8 22/25/8 21/26/8
f 21/26/9 22/25/9 24/27/9 23/28/9
f 23/28/10 24/27/10 26/29/10 25/30/10
f 25/31/10 26/32/10 28/33/10 27/34/10
f 27/34/11 28/33/11 30/35/11 29/36/11
f 29/37/12 30/38/12 32/39/12 31/40/12
f 31/40/1 32/39/1 2/41/1 1/42/1
f 95/43/7 65/44/7 68/45/7 96/46/7
f 93/47/13 95/43/13 96/46/13 94/48/13
f 91/49/14 93/50/14 94/51/14 92/52/14
f 89/53/4 91/49/4 92/52/4 90/54/4
f 87/55/4 89/56/4 90/57/4 88/58/4
f 85/59/15 87/55/15 88/58/15 86/60/15
f 83/61/16 85/59/16 86/60/16 84/62/16
f 81/63/1 83/61/1 84/62/1 82/64/1
f 79/65/1 81/66/1 82/67/1 80/68/1
f 77/69/17 79/65/17 80/68/17 78/70/17
f 75/71/18 77/69/18 78/70/18 76/72/18
f 73/73/10 75/71/10 76/72/10 74/74/10
f 71/75/10 73/73/10 74/76/10 72/77/10
f 69/78/19 71/75/19 72/77/19 70/79/19
f 66/80/20 69/78/20 70/79/20 67/81/20
f 65/82/7 66/80/7 67/81/7 68/83/7
f 33/84/4 36/85/4 45/86/4 43/87/4
f 42/88/21 60/89/21 58/90/21 41/91/21
f 43/92/21 62/93/21 60/89/21 42/88/21
f 33/94/7 43/95/7 42/96/7 34/97/7
f 34/97/7 42/96/7 41/98/7 35/99/7
f 35/100/22 54/101/22 52/102/22 34/103/22
f 33/104/22 50/105/22 49/106/22 36/107/22
f 35/99/10 41/98/10 44/108/10 37/109/10
f 37/109/10 44/108/10 46/110/10 40/111/10
f 39/112/1 40/113/1 46/114/1 47/115/1
f 38/116/1 39/112/1 47/115/1 48/117/1
f 36/85/4 38/116/4 48/117/4 45/86/4
f 44/118/21 57/119/21 59/120/21 46/121/21
f 48/122/21 64/123/21 63/124/21 45/125/21
f 38/126/22 51/127/22 53/128/22 39/129/22
f 46/121/21 59/120/21 61/130/21 47/131/21
f 54/132/4 55/133/4 57/134/4 58/135/4
f 52/136/1 54/137/1 58/138/1 60/139/1
f 50/140/1 52/136/1 60/139/1 62/141/1
f 50/142/10 62/143/10 63/144/10 49/145/10
f 49/145/10 63/144/10 64/146/10 51/147/10
f 55/133/4 56/148/4 59/149/4 57/134/4
f 53/136/7 61/150/7 59/151/7 56/152/7
f 51/140/7 64/153/7 61/150/7 53/136/7
f 36/107/22 49/106/22 51/127/22 38/126/22
f 37/154/22 55/155/22 54/101/22 35/100/22
f 39/129/22 53/128/22 56/156/22 40/157/22
f 34/103/22 52/102/22 50/158/22 33/159/22
f 45/125/21 63/124/21 62/160/21 43/161/21
f 40/157/22 56/156/22 55/155/22 37/154/22
f 41/91/21 58/90/21 57/119/21 44/118/21
f 47/131/21 61/130/21 64/123/21 48/122/21
f 16/162/22 80/163/22 82/164/22 18/165/22
f 9/166/21 73/167/21 71/168/21 7/169/21
f 27/170/21 91/171/21 89/172/21 25/173/21
f 8/174/22 72/175/22 74/176/22 10/177/22
f 26/178/22 90/179/22 92/180/22 28/181/22
f 19/182/21 83/183/21 81/184/21 17/185/21
f 18/186/22 82/187/22 84/188/22 20/189/22
f 11/190/21 75/191/21 73/192/21 9/193/21
f 29/194/21 93/195/21 91/171/21 27/170/21
f 3/196/21 66/197/21 65/198/21 1/199/21
f 10/200/22 74/201/22 76/202/22 12/203/22
f 28/181/22 92/180/22 94/204/22 30/205/22
f 2/206/22 68/207/22 67/208/22 4/209/22
f 21/210/21 85/211/21 83/183/21 19/182/21
f 20/189/22 84/188/22 86/212/22 22/213/22
f 13/214/21 77/215/21 75/191/21 11/190/21
f 31/216/21 95/217/21 93/218/21 29/219/21
f 12/203/22 76/202/22 78/220/22 14/221/22
f 30/222/22 94/223/22 96/224/22 32/225/22
f 5/226/21 69/227/21 66/197/21 3/196/21
f 23/228/21 87/229/21 85/211/21 21/210/21
f 4/209/22 67/208/22 70/230/22 6/231/22
f 22/213/22 86/212/22 88/232/22 24/233/22
f 15/234/21 79/235/21 77/215/21 13/214/21
f 1/236/21 65/237/21 95/217/21 31/216/21
f 14/221/22 78/220/22 80/163/22 16/162/22
f 32/225/22 96/224/22 68/238/22 2/239/22
f 7/169/21 71/168/21 69/227/21 5/226/21
f 25/240/21 89/241/21 87/229/21 23/228/21
f 6/231/22 70/230/22 72/175/22 8/174/22
f 24/233/22 88/232/22 90/242/22 26/243/22
f 17/244/21 81/245/21 79/235/21 15/234/21
