# Blender 5.2.1 LTS
# www.blender.org
mtllib FloorShootingPanopticonPrt02.mtl
o FloorShootingPanopticonPrt02
v 4.736097 0.100005 0.000000
v 4.736097 0.100005 4.660810
v 4.736097 0.100005 -4.660810
v -0.000000 0.100005 4.660810
v -0.000000 0.100005 -4.660810
v -4.736090 0.100005 4.660810
v -4.736090 0.100005 0.000000
v -4.736090 0.100005 -4.660810
v -4.736090 0.100006 10.467192
v -0.000000 0.100006 10.467192
v -8.011242 0.100006 8.011242
v -10.467192 0.100006 4.660810
v -10.467192 0.100006 -0.000000
v -10.467192 0.100006 -4.660810
v -8.011242 0.100006 -8.011242
v -4.736090 0.100006 -10.467192
v -0.000000 0.100006 -10.467192
v 4.736097 0.100006 -10.467192
v 8.011242 0.100006 -8.011242
v 10.467192 0.100006 -4.660810
v 10.467192 0.100006 -0.000000
v 10.467192 0.100006 4.660810
v 8.011242 0.100006 8.011242
v 4.736097 0.100006 10.467192
v -10.467192 0.033930 -4.660810
v -10.467192 0.033930 -0.000000
v -10.467192 0.033930 4.660810
v -8.011242 0.033930 8.011242
v -4.736090 0.033930 10.467192
v -0.000000 0.033930 10.467192
v 4.736097 0.033930 0.000000
v 4.736097 0.033930 4.660810
v 4.736097 0.033930 -4.660810
v -0.000000 0.033930 4.660810
v -0.000000 0.033930 -4.660810
v -4.736090 0.033930 4.660810
v -4.736090 0.033930 0.000000
v -4.736090 0.033930 -4.660810
v -8.011242 0.033930 -8.011242
v -4.736090 0.033930 -10.467192
v -0.000000 0.033930 -10.467192
v 4.736097 0.033930 -10.467192
v 8.011242 0.033930 -8.011242
v 10.467192 0.033930 -4.660810
v 10.467192 0.033930 -0.000000
v 10.467192 0.033930 4.660810
v 8.011242 0.033930 8.011242
v 4.736097 0.033930 10.467192
vn -0.0000 1.0000 -0.0000
vn -0.0000 -1.0000 -0.0000
vt 0.043306 1.000623
vt 0.553325 1.000623
vt 0.553325 0.585233
vt 0.043306 0.585233
vt 0.550019 1.000623
vt 0.334294 0.709635
vt 0.043306 0.493910
vt 0.334294 0.784898
vt 0.550019 0.493910
s 0
usemtl M_Mesh
f 17/1/1 5/2/1 3/3/1 18/4/1
f 5/3/1 17/4/1 16/1/1 8/2/1
f 16/5/1 15/6/1 14/7/1 8/1/1
f 8/3/1 14/4/1 13/1/1 7/2/1
f 7/3/1 13/4/1 12/1/1 6/2/1
f 10/1/1 4/2/1 6/3/1 9/4/1
f 24/1/1 2/2/1 4/3/1 10/4/1
f 21/1/1 1/2/1 2/3/1 22/4/1
f 20/1/1 3/2/1 1/3/1 21/4/1
f 20/5/1 19/6/1 18/7/1 3/1/1
f 24/5/1 23/6/1 22/7/1 2/1/1
f 6/7/1 12/1/1 11/8/1 9/9/1
f 41/4/2 42/1/2 33/2/2 35/3/2
f 35/2/2 38/3/2 40/4/2 41/1/2
f 40/9/2 38/7/2 25/1/2 39/8/2
f 38/2/2 37/3/2 26/4/2 25/1/2
f 37/2/2 36/3/2 27/4/2 26/1/2
f 30/4/2 29/1/2 36/2/2 34/3/2
f 48/4/2 30/1/2 34/2/2 32/3/2
f 45/4/2 46/1/2 32/2/2 31/3/2
f 44/4/2 45/1/2 31/2/2 33/3/2
f 44/9/2 33/7/2 42/1/2 43/8/2
f 48/9/2 32/7/2 46/1/2 47/8/2
f 36/1/2 29/5/2 28/6/2 27/7/2
