# Blender 5.2.1 LTS
# www.blender.org
mtllib PanopticonRingAlternate.mtl
o PanopticonRingAlternate
v -31.129753 10.107744 -20.801899
v -20.800192 10.107744 -31.131460
v -36.720066 10.107744 -7.302753
v -14.327381 10.107744 -34.591248
v -34.589531 10.107744 -14.329100
v -26.473658 10.107744 -26.475368
v -7.320399 10.107744 -36.718925
v -37.193989 10.107744 3.688158
v -37.193916 10.107744 -2.489893
v 31.130049 10.107744 -20.801899
v 20.800488 10.107744 -31.131460
v 36.720364 10.107744 -7.302753
v 14.327678 10.107744 -34.591248
v 34.589825 10.107744 -14.329100
v 26.473955 10.107744 -26.475368
v 7.320696 10.107744 -36.718925
v 37.194283 10.107744 4.283773
v 37.194214 10.107744 -2.489893
v -30.221649 10.107743 -20.195076
v -20.193417 10.107743 -30.223310
v -35.648884 10.107743 -7.089720
v -13.909428 10.107743 -33.582172
v -33.580502 10.107743 -13.911097
v -25.701380 10.107743 -25.703043
v -7.106851 10.107743 -35.647781
v -36.108982 10.107743 3.615579
v -36.108913 10.107743 -2.417259
v 30.221939 10.107743 -20.195076
v 20.193707 10.107743 -30.223310
v 35.649174 10.107743 -7.089720
v 13.909717 10.107743 -33.582172
v 33.580788 10.107743 -13.911097
v 25.701668 10.107743 -25.703043
v 7.107139 10.107743 -35.647781
v 36.109268 10.107743 4.211195
v 36.109200 10.107743 -2.417259
v -26.473656 6.558243 -26.475363
v -31.129751 6.558243 -20.801897
v -34.589527 6.558243 -14.329097
v -36.720062 6.558243 -7.302751
v -7.320398 6.558243 -36.718925
v -14.327379 6.558243 -34.591244
v -20.800190 6.558243 -31.131458
v -37.193913 6.558243 -2.489891
v -37.193985 6.558243 1.389169
v 26.473951 6.558243 -26.475363
v 31.130047 6.558243 -20.801897
v 34.589825 6.558243 -14.329097
v 36.720360 6.558243 -7.302751
v 7.320695 6.558243 -36.718925
v 14.327676 6.558243 -34.591244
v 20.800488 6.558243 -31.131458
v 37.194210 6.558243 -2.489891
v 37.194283 6.558243 1.605878
v -25.701378 6.558242 -25.703037
v -30.221645 6.558242 -20.195072
v -33.580498 6.558242 -13.911094
v -35.648880 6.558242 -7.089718
v -7.106851 6.558242 -35.647778
v -13.909427 6.558242 -33.582169
v -20.193415 6.558242 -30.223305
v -36.108910 6.558242 -2.417257
v -36.108978 6.558242 1.316589
v 25.701666 6.558242 -25.703037
v 30.221937 6.558242 -20.195072
v 33.580788 6.558242 -13.911094
v 35.649170 6.558242 -7.089718
v 7.107139 6.558242 -35.647778
v 13.909716 6.558242 -33.582169
v 20.193707 6.558242 -30.223305
v 36.109196 6.558242 -2.417257
v 36.109264 6.558242 1.533299
v -25.701374 9.855223 -25.703043
v -30.221643 9.855223 -20.195076
v -33.580494 9.855223 -13.911097
v -35.648880 9.855223 -7.089722
v -7.106850 9.855223 -35.647781
v -13.909425 9.855223 -33.582172
v -20.193415 9.855223 -30.223310
v -36.108906 9.855223 -2.417261
v -36.108978 9.855223 3.615576
v 25.701662 9.855223 -25.703043
v 30.221933 9.855223 -20.195076
v 33.580784 9.855223 -13.911097
v 35.649166 9.855223 -7.089722
v 7.107138 9.855223 -35.647781
v 13.909714 9.855223 -33.582172
v 20.193705 9.855223 -30.223310
v 36.109196 9.855223 -2.417261
v 36.109261 9.855223 4.211192
v -25.701372 6.810762 -25.703037
v -30.221640 6.810762 -20.195072
v -33.580494 6.810762 -13.911094
v -35.648876 6.810762 -7.089720
v -7.106849 6.810762 -35.647774
v -13.909424 6.810762 -33.582165
v -20.193413 6.810762 -30.223305
v -36.108902 6.810762 -2.417260
v -36.108974 6.810762 1.316586
v 25.701660 6.810762 -25.703037
v 30.221931 6.810762 -20.195072
v 33.580780 6.810762 -13.911094
v 35.649162 6.810762 -7.089720
v 7.107137 6.810762 -35.647774
v 13.909713 6.810762 -33.582165
v 20.193703 6.810762 -30.223305
v 36.109192 6.810762 -2.417260
v 36.109261 6.810762 1.533295
v -26.002436 9.855221 -26.004126
v -30.575653 9.855221 -20.431639
v -33.973854 9.855221 -14.074050
v -36.066463 9.855221 -7.172770
v -7.190098 9.855221 -36.065353
v -14.072358 9.855221 -33.975548
v -20.429956 9.855221 -30.577343
v -36.531879 9.855221 -2.445577
v -36.531952 9.855221 3.643870
v 26.002729 9.855221 -26.004126
v 30.575949 9.855221 -20.431639
v 33.974144 9.855221 -14.074050
v 36.066757 9.855221 -7.172770
v 7.190390 9.855221 -36.065353
v 14.072652 9.855221 -33.975548
v 20.430250 9.855221 -30.577343
v 36.532169 9.855221 -2.445577
v 36.532242 9.855221 4.239485
v -26.002432 6.810761 -26.004120
v -30.575649 6.810761 -20.431635
v -33.973850 6.810761 -14.074047
v -36.066463 6.810761 -7.172768
v -7.190097 6.810761 -36.065346
v -14.072356 6.810761 -33.975544
v -20.429955 6.810761 -30.577337
v -36.531879 6.810761 -2.445575
v -36.531948 6.810761 1.344880
v 26.002726 6.810761 -26.004120
v 30.575947 6.810761 -20.431635
v 33.974140 6.810761 -14.074047
v 36.066753 6.810761 -7.172768
v 7.190389 6.810761 -36.065346
v 14.072650 6.810761 -33.975544
v 20.430248 6.810761 -30.577337
v 36.532166 6.810761 -2.445575
v 36.532242 6.810761 1.561589
v 26.087811 10.107744 -26.089207
v 20.497097 10.107744 -30.677385
v -34.085014 10.107744 -14.120098
v -30.675701 10.107744 -20.498487
v 34.085308 10.107744 -14.120098
v 30.675995 10.107744 -20.498487
v -36.651413 10.107744 -2.453576
v -36.184475 10.107744 -7.196237
v 36.651707 10.107744 -2.453576
v 36.184769 10.107744 -7.196237
v -36.651485 10.107744 3.651868
v -26.087519 10.107744 -26.089207
v 7.213917 10.107744 -36.183353
v -7.213625 10.107744 -36.183353
v 36.651775 10.107744 4.247484
v -14.118403 10.107744 -34.086712
v 14.118697 10.107744 -34.086712
v -20.496803 10.107744 -30.677385
v 26.087811 6.558242 -26.089201
v 20.497097 6.558242 -30.677380
v -34.085014 6.558242 -14.120095
v -30.675697 6.558242 -20.498486
v 34.085304 6.558242 -14.120095
v 30.675991 6.558242 -20.498486
v -36.651413 6.558242 -2.453574
v -36.184475 6.558242 -7.196235
v 36.651703 6.558242 -2.453574
v 36.184765 6.558242 -7.196235
v -36.651482 6.558242 1.352879
v -26.087517 6.558242 -26.089201
v 7.213917 6.558242 -36.183350
v -7.213625 6.558242 -36.183350
v 36.651772 6.558242 1.569588
v -14.118403 6.558242 -34.086708
v 14.118696 6.558242 -34.086708
v -20.496803 6.558242 -30.677380
v 37.194214 6.810761 -2.489892
v 36.720364 6.810761 -7.302752
v -36.720066 6.810761 -7.302752
v 37.194283 6.810761 1.605877
v -37.193985 6.810761 1.389168
v -37.193916 6.810761 -2.489892
v 36.720364 9.855221 -7.302752
v -36.720066 9.855221 -7.302752
v -37.193916 9.855221 -2.489892
v 37.194214 9.855221 -2.489892
v 37.194283 9.855221 4.283773
v -37.193985 9.855221 3.688158
v 7.190389 8.332991 -36.065350
v 14.072650 8.332991 -33.975544
v 20.430250 8.332991 -30.577339
v 26.002729 8.332991 -26.004122
v 30.575947 8.332991 -20.431637
v 33.974144 8.332991 -14.074048
v -30.575649 8.332991 -20.431637
v -26.002432 8.332991 -26.004122
v -36.531948 8.332991 1.679122
v 36.066757 8.332991 -7.172769
v 36.532166 8.332991 -2.445576
v -36.066463 8.332991 -7.172769
v -33.973854 8.332991 -14.074048
v -7.190098 8.332991 -36.065350
v -14.072356 8.332991 -33.975544
v 36.532242 8.332991 2.175962
v -20.429956 8.332991 -30.577339
v -36.531879 8.332991 -2.445576
v 37.194214 8.332991 -2.489892
v 37.194283 8.332991 2.220250
v -37.193985 8.332991 1.723410
v 36.720364 8.332991 -7.302752
v -36.720066 8.332991 -7.302752
v -37.193916 8.332991 -2.489892
v 0.000148 10.107744 -36.718925
v 0.000144 10.107743 -35.647781
v 0.000148 6.558243 -36.718925
v 0.000144 6.558242 -35.647778
v 0.000144 9.855223 -35.647781
v 0.000144 6.810762 -35.647774
v 0.000145 9.855221 -36.065353
v 0.000146 6.810761 -36.065346
v 0.000146 10.107744 -36.183353
v 0.000146 6.558242 -36.183350
v 0.000145 8.332991 -36.065350
vn -0.0000 1.0000 -0.0000
vn -0.0000 -1.0000 -0.0000
vn -0.6344 -0.0000 0.7730
vn 0.9952 -0.0000 -0.0980
vn 0.7730 -0.0000 0.6344
vn -0.8819 -0.0000 0.4714
vn 1.0000 -0.0000 -0.0000
vn -0.4714 -0.0000 0.8819
vn -0.2906 -0.0000 0.9569
vn -0.9570 -0.0000 0.2902
vn -0.9952 -0.0000 -0.0980
vn -0.7730 -0.0000 0.6344
vn -1.0000 -0.0000 -0.0000
vn 0.9952 -0.0000 0.0980
vn -0.9952 -0.0000 0.0980
vn 0.9570 -0.0000 0.2902
vn -0.0000 -0.0000 1.0000
vn 0.2906 -0.0000 0.9569
vn 0.4714 -0.0000 0.8819
vn 0.6344 -0.0000 0.7730
vn 0.8819 -0.0000 0.4714
vn 0.0667 -0.0000 0.9978
vn 0.0409 -0.7898 0.6119
vn -0.0667 -0.0000 0.9978
vn -0.0397 -0.8041 0.5932
vn -0.0619 -0.3736 0.9255
vn 0.0652 -0.2140 0.9747
vt 0.891781 0.368847
vt 0.901012 0.366784
vt 0.939603 0.484006
vt 0.930952 0.487830
vt 0.241536 0.121902
vt 0.260226 0.245765
vt 0.250781 0.246253
vt 0.232367 0.124224
vt 0.081642 0.121686
vt 0.090796 0.124065
vt 0.071615 0.245976
vt 0.062173 0.245429
vt 0.254377 0.370941
vt 0.234519 0.451057
vt 0.225454 0.448506
vt 0.245017 0.369576
vt 0.067235 0.370639
vt 0.076602 0.369334
vt 0.095669 0.448385
vt 0.086588 0.450878
vt 0.199145 0.550711
vt 0.190500 0.546975
vt 0.199040 0.004066
vt 0.190500 0.008131
vt 0.930952 0.003347
vt 0.939603 0.006695
vt 0.895183 0.121494
vt 0.885865 0.119871
vt 0.124878 0.004119
vt 0.133393 0.008239
vt 0.124725 0.560496
vt 0.133392 0.556815
vt 0.885865 0.863436
vt 0.876576 0.738799
vt 0.886032 0.739022
vt 0.895183 0.861814
vt 0.886032 0.244286
vt 0.876576 0.244508
vt 0.891781 0.614461
vt 0.901012 0.616523
vt 0.930951 0.495478
vt 0.939602 0.499301
vt 0.819299 0.122807
vt 0.858469 0.003824
vt 0.867120 0.007648
vt 0.828530 0.124870
vt 0.532315 0.394338
vt 0.523088 0.392261
vt 0.538254 0.269785
vt 0.547709 0.270022
vt 0.459139 0.122679
vt 0.474865 0.246952
vt 0.465410 0.247215
vt 0.449917 0.124780
vt 0.538537 0.145046
vt 0.529217 0.146659
vt 0.507564 0.068276
vt 0.516558 0.065486
vt 0.466026 0.371953
vt 0.444260 0.451571
vt 0.435258 0.448805
vt 0.456702 0.370365
vt 0.492862 0.003964
vt 0.484320 0.007928
vt 0.492965 0.513261
vt 0.484320 0.509424
vt 0.858469 0.488306
vt 0.813382 0.371783
vt 0.822701 0.370160
vt 0.867120 0.484959
vt 0.419471 0.003860
vt 0.410836 0.007721
vt 0.419389 0.516663
vt 0.410836 0.512722
vt 0.848376 0.863436
vt 0.839057 0.861814
vt 0.848208 0.739022
vt 0.857664 0.738799
vt 0.804094 0.247146
vt 0.813550 0.247368
vt 0.833228 0.616523
vt 0.842459 0.614461
vt 0.794638 0.499301
vt 0.803289 0.495477
vt 0.948351 -0.000000
vt 0.948351 0.123411
vt 0.943977 0.123411
vt 0.943977 0.000000
vt 0.415209 0.520604
vt 0.415209 0.604366
vt 0.410836 0.604366
vt 0.410836 0.520604
vt 0.561548 0.123411
vt 0.561551 -0.000000
vt 0.565925 0.000000
vt 0.565921 0.123411
vt 0.557165 0.396610
vt 0.557165 0.273200
vt 0.561538 0.273200
vt 0.561539 0.396610
vt 0.415209 0.675304
vt 0.410836 0.675304
vt 0.867120 0.244730
vt 0.882550 0.370909
vt 0.948351 0.246822
vt 0.943977 0.246822
vt 0.867120 0.738577
vt 0.882550 0.612398
vt 0.952725 0.123410
vt 0.952726 -0.000000
vt 0.957099 0.000000
vt 0.957099 0.123411
vt 0.948351 0.369954
vt 0.943977 0.369954
vt 0.952725 0.246821
vt 0.957099 0.246821
vt 0.133393 0.370279
vt 0.133394 0.246821
vt 0.137767 0.246821
vt 0.137766 0.370279
vt 0.400294 0.628687
vt 0.400294 0.544925
vt 0.404668 0.544925
vt 0.404668 0.628687
vt 0.952725 0.369953
vt 0.957099 0.369953
vt 0.133395 0.123411
vt 0.133396 0.000000
vt 0.137770 0.000000
vt 0.137768 0.123411
vt 0.400294 0.695872
vt 0.404668 0.695872
vt 0.922300 0.491654
vt 0.052730 0.244881
vt 0.057867 0.371945
vt 0.557165 0.149742
vt 0.561538 0.149742
vt 0.338812 0.104489
vt 0.338811 0.000000
vt 0.343185 0.000000
vt 0.343185 0.104489
vt 0.557166 0.520021
vt 0.561540 0.520021
vt 0.338812 0.185807
vt 0.343186 0.185807
vt 0.561540 0.516270
vt 0.561541 0.451599
vt 0.565914 0.451599
vt 0.565913 0.516270
vt 0.876546 0.865059
vt 0.681805 0.242631
vt 0.666639 0.120155
vt 0.673834 0.118536
vt 0.689177 0.242446
vt 0.312268 0.119038
vt 0.269672 0.003212
vt 0.276311 0.000000
vt 0.319406 0.117184
vt 0.626868 0.514065
vt 0.588277 0.631287
vt 0.581080 0.629678
vt 0.620123 0.511084
vt 0.375882 0.443544
vt 0.410836 0.542013
vt 0.404096 0.544925
vt 0.368815 0.445532
vt 0.573297 0.753785
vt 0.565925 0.753611
vt 0.590347 0.066989
vt 0.565925 0.003073
vt 0.572593 0.000000
vt 0.597366 0.064832
vt 0.356319 0.364614
vt 0.349021 0.365678
vt 0.582448 0.876576
vt 0.575183 0.877841
vt 0.484320 0.997390
vt 0.528739 0.882591
vt 0.536004 0.883857
vt 0.491065 1.000000
vt 0.368969 0.119262
vt 0.350555 0.241291
vt 0.343191 0.240910
vt 0.361820 0.117452
vt 0.672768 0.365757
vt 0.680035 0.367015
vt 0.611791 0.145429
vt 0.619061 0.144191
vt 0.711530 0.861522
vt 0.750120 0.978744
vt 0.743375 0.981725
vt 0.704333 0.863130
vt 0.627871 0.002992
vt 0.634611 0.000000
vt 0.605006 0.391014
vt 0.620499 0.268580
vt 0.627871 0.268784
vt 0.612196 0.392653
vt 0.696550 0.739024
vt 0.689177 0.739197
vt 0.557165 0.068424
vt 0.561539 0.068424
vt 0.561542 0.370281
vt 0.561545 0.246822
vt 0.565918 0.246822
vt 0.565916 0.370281
vt 0.952726 0.493046
vt 0.957099 0.493046
vt 0.338817 0.556086
vt 0.338815 0.432675
vt 0.343189 0.432675
vt 0.343191 0.556086
vt 0.943977 0.246823
vt 0.943977 0.369956
vt 0.939603 0.369956
vt 0.939603 0.246823
vt 0.133393 0.451597
vt 0.137766 0.451597
vt 0.557165 0.000000
vt 0.561539 0.000000
vt 0.338813 0.309265
vt 0.343187 0.309265
vt 0.943977 0.123411
vt 0.939603 0.123411
vt 0.952725 -0.000000
vt 0.952725 0.123093
vt 0.948351 0.123093
vt 0.948351 -0.000000
vt 0.952725 0.246225
vt 0.948352 0.246225
vt 0.943976 0.000000
vt 0.939603 0.000000
vt 0.133393 0.566402
vt 0.137766 0.566402
vt 0.952725 0.369636
vt 0.948351 0.369636
vt 0.952725 0.493047
vt 0.948351 0.493047
vt 0.715542 0.249110
vt 0.715542 0.124535
vt 0.741907 0.124535
vt 0.741907 0.249110
vt 0.715542 0.373966
vt 0.741907 0.373966
vt 0.715542 0.498823
vt 0.741908 0.498823
vt 0.026365 0.249713
vt 0.026365 0.124857
vt 0.052730 0.124857
vt 0.052730 0.249713
vt 0.164135 0.000000
vt 0.164135 0.124857
vt 0.137770 0.124857
vt 0.137770 0.000000
vt 0.026365 0.456888
vt 0.026365 0.374617
vt 0.052730 0.374617
vt 0.052730 0.456888
vt 0.164135 0.249713
vt 0.164135 0.374617
vt 0.137770 0.374617
vt 0.137770 0.249713
vt 0.768273 0.000000
vt 0.768273 0.124535
vt 0.741908 0.124535
vt 0.741908 0.000000
vt 0.768273 0.249110
vt 0.741908 0.249110
vt 0.026365 0.536933
vt 0.052730 0.526292
vt 0.768273 0.373966
vt 0.741908 0.373966
vt 0.768272 0.498823
vt 0.741907 0.498823
vt 0.164135 0.456888
vt 0.137770 0.456888
vt 0.164135 0.528328
vt 0.137770 0.522538
vt 0.026365 0.000000
vt 0.052730 0.000000
vt 0.326462 0.364307
vt 0.331449 0.240949
vt 0.338811 0.240522
vt 0.333766 0.365325
vt 0.651115 0.444140
vt 0.658128 0.446315
vt 0.681441 0.747779
vt 0.672290 0.624988
vt 0.679556 0.623722
vt 0.688814 0.747953
vt 0.627871 0.504488
vt 0.634531 0.507579
vt 0.666461 0.870277
vt 0.673658 0.871886
vt 0.565925 0.508074
vt 0.572657 0.511084
vt 0.627871 0.987499
vt 0.634616 0.990481
vt 0.410836 0.003170
vt 0.404177 -0.000000
vt 0.537890 0.759800
vt 0.545263 0.759626
vt 0.307395 0.443358
vt 0.314475 0.445302
vt 0.522910 0.637302
vt 0.530107 0.635693
vt 0.750120 0.501433
vt 0.705701 0.616232
vt 0.698436 0.614966
vt 0.743375 0.498823
vt 0.876546 0.118249
vt 0.484320 0.520080
vt 0.491065 0.517099
vt 0.269672 0.551788
vt 0.276430 0.554658
vt 0.116057 0.564177
vt 0.077507 0.453372
vt 0.269672 0.245277
vt 0.263736 0.372306
vt 0.116364 -0.000000
vt 0.072488 0.119307
vt 0.922300 0.000000
vt 0.207580 0.000000
vt 0.250705 0.119581
vt 0.207789 0.554446
vt 0.243584 0.453607
vt 0.922300 0.491654
vt 0.851690 0.612398
vt 0.811940 0.491654
vt 0.794638 0.246923
vt 0.810068 0.120744
vt 0.867120 0.738577
vt 0.804064 0.373405
vt 0.857694 0.865059
vt 0.484320 0.246690
vt 0.475350 0.373541
vt 0.427942 0.520604
vt 0.453262 0.454338
vt 0.557165 0.270260
vt 0.547856 0.143433
vt 0.428106 -0.000000
vt 0.468361 0.120577
vt 0.849818 0.491654
vt 0.501610 0.517099
vt 0.541543 0.396415
vt 0.501404 0.000000
vt 0.525552 0.062695
vt 0.849818 0.000000
vt 0.209495 0.555119
vt 0.218906 0.554783
vt 0.216989 0.559228
vt 0.209651 0.559490
vt 0.209651 0.633889
vt 0.209495 0.629519
vt 0.216833 0.629256
vt 0.219062 0.633553
vt 0.373930 0.701661
vt 0.373929 0.628687
vt 0.373930 0.544925
vt 0.441574 0.604366
vt 0.441574 0.685945
vt 0.441574 0.520604
vt 0.472313 0.520604
vt 0.472313 0.604365
vt 0.467939 0.604366
vt 0.467939 0.520604
vt 0.472313 0.721685
vt 0.467939 0.721685
vt 0.343191 0.628687
vt 0.343191 0.544925
vt 0.347564 0.544925
vt 0.347564 0.628687
vt 0.343191 0.735691
vt 0.347564 0.735691
vt 0.228317 0.554446
vt 0.228474 0.558817
vt 0.216255 0.602269
vt 0.227739 0.601859
vt 0.228474 0.633217
vt 0.228317 0.628846
vt 0.190500 0.636023
vt 0.190675 0.631653
vt 0.198012 0.631948
vt 0.199910 0.636401
vt 0.190676 0.554446
vt 0.200085 0.554824
vt 0.197837 0.559111
vt 0.190500 0.558817
vt 0.209495 0.555202
vt 0.209320 0.559572
vt 0.197407 0.587539
vt 0.208890 0.588000
vt 0.209495 0.632408
vt 0.209319 0.636779
vt 0.000000 0.374617
vt 0.000000 0.249713
vt 0.000000 0.124857
vt 0.000000 0.000000
vt 0.190500 0.456888
vt 0.190500 0.562357
vt 0.190500 0.374617
vt 0.190500 0.124857
vt 0.190500 0.249713
vt 0.794638 0.373966
vt 0.794638 0.498823
vt 0.794638 0.249110
vt -0.000000 0.572673
vt 0.000000 0.456888
vt 0.794638 0.124535
vt 0.794638 0.000000
vt 0.190500 0.000000
vt 0.689177 0.498823
vt 0.689177 0.373966
vt 0.689177 0.249110
vt 0.689177 0.124535
vt 0.689177 0.000000
vt 0.715542 0.000000
vt 0.811940 0.983308
vt 0.803289 0.979960
vt 0.930951 0.979960
vt 0.922300 0.983307
vt 0.627871 0.510189
vt 0.634616 0.507579
vt 0.741907 0.000000
vt 0.948351 0.493047
vt 0.943977 0.493047
vt 0.943976 0.493049
vt 0.939603 0.493049
vt 0.626868 0.991375
vt 0.620123 0.993985
vt 0.794638 0.976613
vt 0.939602 0.976613
s 0
usemtl Checker
f 146/1/1 29/2/1 33/3/1 145/4/1
f 148/5/1 147/6/1 23/7/1 19/8/1
f 150/9/1 28/10/1 32/11/1 149/12/1
f 152/13/1 151/14/1 27/15/1 21/16/1
f 154/17/1 30/18/1 36/19/1 153/20/1
f 155/21/1 26/22/1 27/15/1 151/14/1
f 156/23/1 148/5/1 19/8/1 24/24/1
f 225/25/1 218/26/1 34/27/1 157/28/1
f 145/29/1 33/30/1 28/10/1 150/9/1
f 147/6/1 152/13/1 21/16/1 23/7/1
f 159/31/1 153/20/1 36/19/1 35/32/1
f 149/12/1 32/11/1 30/18/1 154/17/1
f 158/33/1 160/34/1 22/35/1 25/36/1
f 157/28/1 34/27/1 31/37/1 161/38/1
f 160/34/1 162/39/1 20/40/1 22/35/1
f 161/38/1 31/37/1 29/2/1 146/1/1
f 162/39/1 156/41/1 24/42/1 20/40/1
f 164/43/2 163/44/2 64/45/2 70/46/2
f 166/47/2 56/48/2 57/49/2 165/50/2
f 168/51/2 167/52/2 66/53/2 65/54/2
f 170/55/2 58/56/2 62/57/2 169/58/2
f 172/59/2 171/60/2 71/61/2 67/62/2
f 173/63/2 169/58/2 62/57/2 63/64/2
f 174/65/2 55/66/2 56/48/2 166/47/2
f 226/67/2 175/68/2 68/69/2 220/70/2
f 163/71/2 168/51/2 65/54/2 64/72/2
f 165/50/2 57/49/2 58/56/2 170/55/2
f 177/73/2 72/74/2 71/61/2 171/60/2
f 167/52/2 172/59/2 67/62/2 66/53/2
f 176/75/2 59/76/2 60/77/2 178/78/2
f 175/68/2 179/79/2 69/80/2 68/69/2
f 178/78/2 60/77/2 61/81/2 180/82/2
f 179/79/2 164/43/2 70/46/2 69/80/2
f 180/82/2 61/81/2 55/83/2 174/84/2
f 33/85/3 29/86/3 88/87/3 82/88/3
f 182/89/4 181/90/4 53/91/4 49/92/4
f 56/93/5 55/94/5 91/95/5 92/96/5
f 65/97/6 66/98/6 102/99/6 101/100/6
f 181/90/7 184/101/7 54/102/7 53/91/7
f 13/103/1 161/38/1 146/1/1 11/104/1
f 29/86/8 31/105/8 87/106/8 88/87/8
f 4/107/1 2/108/1 162/39/1 160/34/1
f 70/109/3 64/110/3 100/111/3 106/112/3
f 31/105/9 34/113/9 86/114/9 87/106/9
f 69/115/8 70/109/8 106/112/8 105/116/8
f 30/117/10 32/118/10 84/119/10 85/120/10
f 186/121/11 183/122/11 40/123/11 44/124/11
f 68/125/9 69/115/9 105/116/9 104/126/9
f 28/127/12 33/128/12 82/129/12 83/130/12
f 185/131/13 186/121/13 44/124/13 45/132/13
f 2/108/1 6/133/1 156/41/1 162/39/1
f 14/134/1 149/12/1 154/17/1 12/135/1
f 66/98/10 67/136/10 103/137/10 102/99/10
f 27/138/7 26/139/7 81/140/7 80/141/7
f 64/142/12 65/97/12 101/100/12 100/143/12
f 21/144/14 27/138/14 80/141/14 76/145/14
f 63/146/7 62/147/7 98/148/7 99/149/7
f 7/150/1 4/107/1 160/34/1 158/33/1
f 93/151/1 92/152/1 128/153/1 129/154/1
f 83/155/2 82/156/2 118/157/2 119/158/2
f 91/159/1 97/160/1 133/161/1 127/162/1
f 80/163/2 81/164/2 117/165/2 116/166/2
f 97/160/1 96/167/1 132/168/1 133/161/1
f 107/169/1 108/170/1 144/171/1 143/172/1
f 76/173/2 80/163/2 116/166/2 112/174/2
f 96/167/1 95/175/1 131/176/1 132/168/1
f 222/177/1 104/178/1 140/179/1 224/180/1
f 74/181/2 75/182/2 111/183/2 110/184/2
f 94/185/1 93/151/1 129/154/1 130/186/1
f 103/187/1 107/169/1 143/172/1 139/188/1
f 79/189/2 73/190/2 109/191/2 115/192/2
f 92/152/1 91/193/1 127/194/1 128/153/1
f 101/195/1 102/196/1 138/197/1 137/198/1
f 78/199/2 79/189/2 115/192/2 114/200/2
f 67/136/15 71/201/15 107/202/15 103/137/15
f 58/203/16 57/204/16 93/205/16 94/206/16
f 32/118/6 28/127/6 83/130/6 84/119/6
f 220/207/17 68/125/17 104/126/17 222/208/17
f 24/209/5 19/210/5 74/211/5 73/212/5
f 60/213/18 59/214/18 95/215/18 96/216/18
f 36/217/15 30/117/15 85/120/15 89/218/15
f 71/201/13 72/219/13 108/220/13 107/202/13
f 23/221/16 21/144/16 76/145/16 75/222/16
f 61/223/19 60/213/19 96/216/19 97/224/19
f 218/225/17 25/226/17 77/227/17 221/228/17
f 25/226/18 22/229/18 78/230/18 77/227/18
f 55/231/20 61/223/20 97/224/20 91/232/20
f 35/233/13 36/217/13 89/218/13 90/234/13
f 22/229/19 20/235/19 79/236/19 78/230/19
f 57/204/21 56/93/21 92/96/21 93/205/21
f 20/235/20 24/237/20 73/238/20 79/236/20
f 62/147/14 58/203/14 94/206/14 98/148/14
f 19/210/21 23/221/21 75/222/21 74/211/21
f 194/239/9 193/240/9 140/241/9 141/242/9
f 195/243/8 194/239/8 141/242/8 142/244/8
f 196/245/3 195/243/3 142/244/3 136/246/3
f 198/247/6 197/248/6 137/249/6 138/250/6
f 200/251/5 199/252/5 128/253/5 127/254/5
f 203/255/15 202/256/15 139/257/15 143/258/15
f 205/259/16 204/260/16 130/261/16 129/262/16
f 227/263/17 206/264/17 131/265/17 224/266/17
f 206/264/18 207/267/18 132/268/18 131/265/18
f 208/269/13 203/255/13 143/258/13 144/270/13
f 207/267/19 209/271/19 133/272/19 132/268/19
f 209/271/20 200/273/20 127/274/20 133/272/20
f 199/252/21 205/259/21 129/262/21 128/253/21
f 204/260/14 210/275/14 134/276/14 130/261/14
f 210/275/7 201/277/7 135/278/7 134/276/7
f 197/248/12 196/279/12 136/280/12 137/249/12
f 202/256/10 198/247/10 138/250/10 139/257/10
f 85/281/2 84/282/2 120/283/2 121/284/2
f 98/285/1 94/185/1 130/186/1 134/286/1
f 87/287/2 86/288/2 122/289/2 123/290/2
f 99/291/1 98/285/1 134/286/1 135/292/1
f 88/293/2 87/287/2 123/290/2 124/294/2
f 100/295/1 101/195/1 137/198/1 136/296/1
f 82/297/2 88/293/2 124/294/2 118/298/2
f 102/196/1 103/187/1 139/188/1 138/197/1
f 84/282/2 83/155/2 119/158/2 120/283/2
f 73/299/2 74/181/2 110/184/2 109/300/2
f 104/178/1 105/301/1 141/302/1 140/179/1
f 89/303/2 85/281/2 121/284/2 125/304/2
f 75/182/2 76/173/2 112/174/2 111/183/2
f 105/301/1 106/305/1 142/306/1 141/302/1
f 221/307/2 77/308/2 113/309/2 223/310/2
f 16/311/1 157/28/1 161/38/1 13/103/1
f 77/308/2 78/199/2 114/200/2 113/309/2
f 106/305/1 100/312/1 136/313/1 142/306/1
f 90/314/2 89/303/2 125/304/2 126/315/2
f 17/316/1 18/317/1 153/20/1 159/31/1
f 5/318/1 3/319/1 152/13/1 147/6/1
f 15/320/1 145/29/1 150/9/1 10/321/1
f 217/322/1 225/25/1 157/28/1 16/311/1
f 6/323/1 1/324/1 148/5/1 156/23/1
f 8/325/1 155/21/1 151/14/1 9/326/1
f 12/135/1 154/17/1 153/20/1 18/317/1
f 3/319/1 9/326/1 151/14/1 152/13/1
f 10/321/1 150/9/1 149/12/1 14/134/1
f 1/324/1 5/318/1 147/6/1 148/5/1
f 11/104/1 146/1/1 145/4/1 15/327/1
f 43/328/2 180/82/2 174/84/2 37/329/2
f 51/330/2 52/331/2 164/43/2 179/79/2
f 42/332/2 178/78/2 180/82/2 43/328/2
f 50/333/2 51/330/2 179/79/2 175/68/2
f 41/334/2 176/75/2 178/78/2 42/332/2
f 48/335/2 49/336/2 172/59/2 167/52/2
f 54/337/2 177/73/2 171/60/2 53/338/2
f 39/339/2 165/50/2 170/55/2 40/340/2
f 46/341/2 47/342/2 168/51/2 163/71/2
f 219/343/2 50/333/2 175/68/2 226/67/2
f 37/344/2 174/65/2 166/47/2 38/345/2
f 45/346/2 44/347/2 169/58/2 173/63/2
f 49/336/2 53/338/2 171/60/2 172/59/2
f 40/340/2 170/55/2 169/58/2 44/347/2
f 47/342/2 48/335/2 167/52/2 168/51/2
f 38/345/2 166/47/2 165/50/2 39/339/2
f 52/331/2 46/348/2 163/44/2 164/43/2
f 26/349/22 155/350/22 117/351/22 81/352/22
f 63/353/22 99/354/22 135/355/22 173/356/22
f 213/357/13 216/358/13 186/121/13 185/131/13
f 216/358/11 215/359/11 183/122/11 186/121/11
f 211/360/7 212/361/7 184/101/7 181/90/7
f 214/362/4 211/360/4 181/90/4 182/89/4
f 12/363/4 18/364/4 190/365/4 187/366/4
f 18/364/7 17/367/7 191/368/7 190/365/7
f 9/369/11 3/370/11 188/371/11 189/372/11
f 8/373/13 9/369/13 189/372/13 192/374/13
f 8/375/22 192/376/22 117/351/22 155/350/22
f 201/377/23 117/351/23 192/376/23 213/378/23
f 45/379/22 173/356/22 135/355/22 185/380/22
f 35/381/24 90/382/24 126/383/24 159/384/24
f 72/385/24 177/386/24 144/387/24 108/388/24
f 177/386/24 54/389/24 184/390/24 144/387/24
f 208/391/25 212/392/25 191/393/25 126/383/25
f 17/394/24 159/384/24 126/383/24 191/393/24
f 144/387/26 184/390/26 212/392/26 208/391/26
f 135/355/27 201/377/27 213/378/27 185/380/27
f 187/366/4 190/365/4 211/360/4 214/362/4
f 190/365/7 191/368/7 212/361/7 211/360/7
f 189/372/11 188/371/11 215/359/11 216/358/11
f 192/374/13 189/372/13 216/358/13 213/357/13
f 121/395/10 120/396/10 198/247/10 202/256/10
f 119/397/12 118/398/12 196/279/12 197/248/12
f 116/399/7 117/400/7 201/277/7 210/275/7
f 112/401/14 116/399/14 210/275/14 204/260/14
f 110/402/21 111/403/21 205/259/21 199/252/21
f 115/404/20 109/405/20 200/273/20 209/271/20
f 114/406/19 115/404/19 209/271/19 207/267/19
f 126/407/13 125/408/13 203/255/13 208/269/13
f 113/409/18 114/406/18 207/267/18 206/264/18
f 223/410/17 113/409/17 206/264/17 227/263/17
f 111/403/16 112/401/16 204/260/16 205/259/16
f 125/408/15 121/395/15 202/256/15 203/255/15
f 109/411/5 110/402/5 199/252/5 200/251/5
f 120/396/6 119/397/6 197/248/6 198/247/6
f 118/412/3 124/413/3 195/243/3 196/245/3
f 124/413/8 123/414/8 194/239/8 195/243/8
f 123/414/9 122/415/9 193/240/9 194/239/9
f 122/415/17 223/416/17 227/417/17 193/240/17
f 41/334/2 219/418/2 226/419/2 176/75/2
f 7/150/1 158/33/1 225/420/1 217/421/1
f 86/288/2 221/422/2 223/423/2 122/289/2
f 193/240/17 227/417/17 224/424/17 140/241/17
f 34/113/17 218/425/17 221/426/17 86/114/17
f 59/214/17 220/427/17 222/428/17 95/215/17
f 95/175/1 222/429/1 224/430/1 131/176/1
f 176/75/2 226/419/2 220/431/2 59/76/2
f 158/33/1 25/36/1 218/432/1 225/420/1
