# Blender 5.2.1 LTS
# www.blender.org
mtllib PanopticonBillboard.mtl
o PanopticonBillboard
v -30.633879 -10.404133 -20.470539
v -20.468863 -10.404133 -30.635561
v -14.099157 -10.404133 -34.040237
v -34.038544 -10.404133 -14.100848
v -26.051954 -10.404133 -26.053633
v -30.633879 10.604144 -20.470539
v -20.468863 10.604144 -30.635561
v -14.099157 10.604144 -34.040237
v -34.038544 10.604144 -14.100848
v -26.051954 10.604144 -26.053633
v -25.774149 -10.404134 -25.775808
v -30.307215 -10.404134 -20.252253
v -33.675575 -10.404134 -13.950483
v -13.948811 -10.404134 -33.677246
v -20.250591 -10.404134 -30.308876
v -25.774149 10.604138 -25.775808
v -30.307215 10.604138 -20.252253
v -33.675575 10.604138 -13.950483
v -13.948811 10.604138 -33.677246
v -20.250591 10.604138 -30.308876
v -34.038544 0.100005 -14.100848
v -14.099157 0.100005 -34.040237
v -33.675575 0.100001 -13.950483
v -30.307215 0.100001 -20.252253
v -25.774149 0.100001 -25.775808
v -20.250591 0.100001 -30.308876
v -13.948811 0.100001 -33.677246
vn 0.8819 -0.0000 0.4714
vn 0.8315 -0.0000 0.5556
vn 0.7071 -0.0000 0.7071
vn 0.5556 -0.0000 0.8315
vn 0.4714 -0.0000 0.8819
vn -0.0000 1.0000 -0.0000
vn -0.0000 -1.0000 -0.0000
vn 0.9239 -0.0000 -0.3827
vn -0.3827 -0.0000 0.9239
vt 0.367508 1.000000
vt 0.367508 0.750000
vt 0.735016 0.750000
vt 0.735017 1.000000
vt 0.367508 0.500000
vt 0.735016 0.500000
vt 0.367508 0.250000
vt 0.735016 0.250000
vt 0.367508 0.000000
vt 0.735016 0.000000
vt 0.735017 0.493292
vt 0.759785 0.241813
vt 0.773267 0.244495
vt 0.748763 0.493291
vt 0.870606 0.744769
vt 0.845838 0.493291
vt 0.859584 0.493291
vt 0.884088 0.742087
vt 0.833138 0.986584
vt 0.759785 0.744770
vt 0.773267 0.742088
vt 0.845838 0.981323
vt 0.870606 0.241813
vt 0.943960 0.000000
vt 0.956659 0.005261
vt 0.884088 0.244495
vt 0.833138 0.000000
vt 0.845838 0.005260
vt 0.943960 0.986581
vt 0.956659 0.981322
vt 0.956659 0.000000
vt 0.970406 0.000000
vt 0.970407 0.367508
vt 0.956661 0.367508
vt 0.000000 0.250000
vt 0.000000 0.000000
vt 0.000000 0.500000
vt 0.000000 0.750000
vt 0.000000 1.000000
vt 0.970409 0.735016
vt 0.956662 0.735016
vt 0.984154 -0.000000
vt 0.984154 0.367508
vt 0.970409 0.367508
vt 0.970408 0.000000
vt 0.970409 0.735016
vt 0.984154 0.735016
s 1
usemtl M_WallPrison
f 23/1/1 24/2/2 17/3/2 18/4/1
f 24/2/2 25/5/3 16/6/3 17/3/2
f 25/5/3 26/7/4 20/8/4 16/6/3
f 26/7/4 27/9/5 19/10/5 20/8/4
f 10/11/6 6/12/6 17/13/6 16/14/6
f 1/15/7 5/16/7 11/17/7 12/18/7
f 8/19/6 7/20/6 20/21/6 19/22/6
f 7/20/6 10/11/6 16/14/6 20/21/6
f 2/23/7 3/24/7 14/25/7 15/26/7
f 6/12/6 9/27/6 18/28/6 17/13/6
f 5/16/7 2/23/7 15/26/7 11/17/7
f 4/29/7 1/15/7 12/18/7 13/30/7
f 14/31/8 3/32/8 22/33/8 27/34/8
f 15/35/4 14/36/5 27/9/5 26/7/4
f 11/37/3 15/35/4 26/7/4 25/5/3
f 12/38/2 11/37/3 25/5/3 24/2/2
f 13/39/1 12/38/2 24/2/2 23/1/1
f 8/40/8 19/41/8 27/34/8 22/33/8
f 13/42/9 23/43/9 21/44/9 4/45/9
f 9/46/9 21/44/9 23/43/9 18/47/9
