# Blender 5.2.1 LTS
# www.blender.org
mtllib PanopticonBridge.mtl
o PanopticonBridge
v -0.000009 0.100005 9.494465
v 4.747220 0.100005 8.222448
v 8.222431 0.100005 4.747237
v 8.222414 0.100005 0.000009
v 8.222431 0.100005 -4.747220
v 4.747220 0.100005 -8.222431
v -0.000009 0.100005 -9.494448
v -0.000009 -0.903102 9.494465
v 4.747220 -0.903102 8.222448
v 8.222431 -0.903102 4.747237
v 8.222414 -0.903102 0.000009
v 8.222431 -0.903102 -4.747220
v 4.747220 -0.903102 -8.222431
v -0.000009 -0.903102 -9.494448
v 27.594656 0.100005 0.000009
v 27.594656 0.100005 4.747237
v 27.594656 0.100005 -4.747220
v 27.594656 -0.903102 0.000009
v 27.594656 -0.903102 4.747237
v 27.594656 -0.903102 -4.747220
v 8.354234 0.100005 0.000009
v 8.354252 0.100005 4.584680
v 8.354252 0.100005 -4.584662
v 8.354234 -0.903102 0.000009
v 8.354252 -0.903102 4.584680
v 8.354252 -0.903102 -4.584662
v 27.462835 0.100005 -4.584662
v 27.462835 0.100005 0.000009
v 27.462835 0.100005 4.584680
v 27.462835 -0.903102 0.000009
v 27.462835 -0.903102 4.584680
v 27.462835 -0.903102 -4.584662
v -4.747237 0.100005 8.222448
v -8.222448 0.100005 4.747237
v -8.222431 0.100005 0.000009
v -8.222448 0.100005 -4.747220
v -4.747237 0.100005 -8.222431
v -4.747237 -0.903102 8.222448
v -8.222448 -0.903102 4.747237
v -8.222431 -0.903102 0.000009
v -8.222448 -0.903102 -4.747220
v -4.747237 -0.903102 -8.222431
v -27.594795 0.100005 0.000009
v -27.594795 0.100005 4.747237
v -27.594795 0.100005 -4.747220
v -27.594795 -0.903102 0.000009
v -27.594795 -0.903102 4.747237
v -27.594795 -0.903102 -4.747220
v -8.354251 0.100005 0.000009
v -8.354269 0.100005 4.584680
v -8.354269 0.100005 -4.584662
v -8.354251 -0.903102 0.000009
v -8.354269 -0.903102 4.584680
v -8.354269 -0.903102 -4.584662
v -27.462976 0.100005 -4.584662
v -27.462976 0.100005 0.000009
v -27.462976 0.100005 4.584680
v -27.462976 -0.903102 0.000009
v -27.462976 -0.903102 4.584680
v -27.462976 -0.903102 -4.584662
v 1.993273 0.100005 3.908263
v -0.000009 0.100005 3.908263
v 3.908239 0.100005 3.908263
v 3.908239 0.100005 0.000009
v 3.908239 0.100005 -3.908246
v 1.993273 0.100005 -3.908246
v -0.000009 0.100005 -3.908246
v 3.908239 -0.903102 3.908263
v -0.000009 -0.903102 3.908262
v -1.993291 0.100005 3.908263
v -3.908261 0.100005 3.908263
v -3.908261 0.100005 0.000009
v -3.908261 0.100005 -3.908246
v -1.993291 0.100005 -3.908246
v 1.993273 -0.903102 3.908263
v 3.908239 -0.903102 0.000009
v 3.908239 -0.903102 -3.908246
v 1.993273 -0.903102 -3.908246
v -0.000009 -0.903102 -3.908246
v -1.993291 -0.903102 3.908263
v -3.908261 -0.903102 3.908263
v -3.908261 -0.903102 0.000009
v -3.908261 -0.903102 -3.908246
v -1.993291 -0.903102 -3.908246
vn 0.2588 -0.0000 0.9659
vn 0.7071 -0.0000 -0.7071
vn 0.7071 -0.0000 0.7071
vn 0.2588 -0.0000 -0.9659
vn -0.0000 1.0000 -0.0000
vn -0.0000 -0.0000 -1.0000
vn 1.0000 -0.0000 -0.0000
vn -0.0000 -1.0000 -0.0000
vn -0.0000 -0.0000 1.0000
vn -1.0000 -0.0000 -0.0000
vn -0.2588 -0.0000 0.9659
vn -0.7071 -0.0000 -0.7071
vn -0.7071 -0.0000 0.7071
vn -0.2588 -0.0000 -0.9659
vt 0.221483 0.111766
vt 0.221483 0.223532
vt 0.198671 0.223532
vt 0.198671 0.111766
vt 0.244295 0.335298
vt 0.244295 0.447064
vt 0.221483 0.447064
vt 0.221483 0.335298
vt 0.221483 -0.000000
vt 0.198671 -0.000000
vt 0.244295 0.223532
vt 0.221483 0.223532
vt 0.000000 0.571736
vt 0.000008 0.098453
vt 0.003033 0.097694
vt 0.003338 0.572541
vt 0.198671 0.548505
vt 0.175859 0.548505
vt 0.175859 0.107958
vt 0.198671 0.107958
vt 0.175859 0.000000
vt 0.175859 0.107958
vt 0.153048 0.107958
vt 0.153047 0.000000
vt 0.175859 0.000000
vt 0.198671 0.000000
vt 0.020892 0.000000
vt 0.030900 0.098886
vt 0.027533 0.098108
vt 0.018744 0.000208
vt 0.175859 0.548505
vt 0.153048 0.548505
vt 0.051792 0.000000
vt 0.061800 0.098886
vt 0.058433 0.098108
vt 0.049644 0.000208
vt 0.061800 0.570980
vt 0.054778 0.669956
vt 0.052626 0.669813
vt 0.058742 0.571714
vt 0.813012 0.735497
vt 0.784085 0.627539
vt 0.911122 0.627539
vt 0.911122 0.672869
vt 0.784085 0.373976
vt 0.676127 0.373976
vt 0.676127 0.275867
vt 0.765005 0.275867
vt 0.568169 0.440551
vt 0.676127 0.440551
vt 0.657048 0.538661
vt 0.568169 0.538661
vt 0.676127 0.814527
vt 0.568169 0.814527
vt 0.568169 0.716418
vt 0.657048 0.716418
vt 0.892042 0.440551
vt 1.000000 0.440551
vt 1.000000 0.538661
vt 0.911122 0.538661
vt 0.460211 0.627541
vt 0.431283 0.735499
vt 0.333174 0.672871
vt 0.333174 0.627541
vt 0.431283 0.519584
vt 0.333174 0.582212
vt 0.784085 0.000000
vt 0.863115 0.079030
vt 0.765005 0.141659
vt 0.765005 0.098110
vt 0.027842 0.571714
vt 0.021726 0.669813
vt 0.010396 0.669731
vt 0.041296 0.669731
vt 0.034238 0.572541
vt 0.033933 0.097694
vt 0.030900 0.570980
vt 0.023878 0.669956
vt 0.030908 0.098453
vt 0.036232 0.000649
vt 0.038357 0.000755
vt 0.008264 0.669902
vt 0.005332 0.000649
vt 0.007457 0.000755
vt 0.030900 0.571736
vt 0.039165 0.669902
vt 0.221483 0.335298
vt 0.198671 0.335298
vt 0.244295 0.111766
vt 0.221483 0.111766
vt 0.221483 0.000000
vt 0.244295 0.000000
vt 0.221483 0.447064
vt 0.198671 0.447064
vt 0.352255 0.000002
vt 0.355952 0.002999
vt 0.355950 0.437555
vt 0.352253 0.440552
vt 0.107424 0.548508
vt 0.107424 0.107958
vt 0.130236 0.107958
vt 0.130236 0.548508
vt 0.130236 -0.000000
vt 0.153047 -0.000000
vt 0.153047 0.107958
vt 0.130236 0.107958
vt 0.107424 -0.000000
vt 0.130236 -0.000000
vt 0.568169 0.440551
vt 0.568169 0.437553
vt 0.672430 0.437553
vt 0.676127 0.440551
vt 0.130236 0.548508
vt 0.153048 0.548508
vt 0.460211 0.440551
vt 0.460211 0.437553
vt 0.564472 0.437553
vt 0.568169 0.440551
vt 0.568169 0.000001
vt 0.564472 0.002998
vt 0.460211 0.002998
vt 0.460211 -0.000000
vt 0.755157 0.519582
vt 0.784085 0.627539
vt 0.657048 0.627539
vt 0.657048 0.582210
vt 0.863115 0.294946
vt 0.765005 0.232318
vt 1.000000 0.814527
vt 0.892042 0.814527
vt 0.911122 0.716418
vt 1.000000 0.716418
vt 0.755157 0.735497
vt 0.657048 0.672869
vt 0.813012 0.519582
vt 0.911122 0.582210
vt 0.352253 0.814530
vt 0.333174 0.716420
vt 0.352253 0.440553
vt 0.333174 0.538663
vt 0.892042 0.186988
vt 0.765005 0.186988
vt 0.084612 0.104261
vt 0.084612 0.538816
vt 0.061800 0.538816
vt 0.061800 0.104261
vt 0.084612 0.643077
vt 0.061800 0.643077
vt 0.084612 0.643077
vt 0.084612 0.538816
vt 0.107424 0.538816
vt 0.107424 0.643077
vt 0.084612 0.104261
vt 0.107424 0.104261
vt 0.676127 0.000001
vt 0.672430 0.002998
vt 0.568169 0.002998
vt 0.568169 0.000000
vt 0.244295 0.440553
vt 0.247992 0.437555
vt 0.352253 0.437556
vt 0.352253 0.440553
vt 0.460211 0.000000
vt 0.460211 0.002998
vt 0.460211 0.437555
vt 0.460211 0.440553
vt 0.244297 0.000002
vt 0.247994 0.002999
vt 0.352253 0.000000
vt 0.352253 0.002998
vt 0.061800 -0.000000
vt 0.084612 -0.000000
vt 0.084612 -0.000000
vt 0.107424 -0.000000
vt 0.545357 0.572978
vt 0.545357 0.618308
vt 0.522545 0.618308
vt 0.522545 0.572978
vt 0.545357 0.663637
vt 0.522545 0.663637
vt 0.545357 0.707186
vt 0.522545 0.707186
vt 0.545357 0.796064
vt 0.522545 0.796064
vt 0.545357 0.707186
vt 0.568169 0.707186
vt 0.568169 0.796064
vt 0.545357 0.796064
vt 0.568169 0.663637
vt 0.545357 0.618308
vt 0.568169 0.618308
vt 0.545357 0.572978
vt 0.568169 0.572978
vt 0.676127 0.000000
vt 0.676127 0.098110
vt 0.244295 0.440554
vt 0.244295 0.538663
vt 0.244295 0.814529
vt 0.244295 0.716420
vt 0.545357 0.529429
vt 0.522545 0.529429
vt 0.545357 0.440551
vt 0.522545 0.440551
vt 0.545357 0.440551
vt 0.568169 0.440551
vt 0.568169 0.529429
s 0
usemtl Checker
f 2/1/1 1/2/1 8/3/1 9/4/1
f 6/5/2 5/6/2 12/7/2 13/8/2
f 3/9/3 2/1/3 9/4/3 10/10/3
f 7/11/4 6/5/4 13/8/4 14/12/4
f 3/13/5 16/14/5 29/15/5 22/16/5
f 12/17/6 5/18/6 17/19/6 20/20/6
f 15/21/7 16/22/7 19/23/7 18/24/7
f 17/19/7 15/25/7 18/26/7 20/20/7
f 18/27/8 19/28/8 31/29/8 30/30/8
f 3/31/9 10/32/9 19/23/9 16/22/9
f 15/33/5 17/34/5 27/35/5 28/36/5
f 5/37/5 4/38/5 21/39/5 23/40/5
f 33/41/5 1/42/5 62/43/5 70/44/5
f 39/45/8 40/46/8 82/47/8 81/48/8
f 4/49/5 5/50/5 65/51/5 64/52/5
f 36/53/5 35/54/5 72/55/5 73/56/5
f 3/57/5 4/58/5 64/59/5 63/60/5
f 14/61/8 13/62/8 78/63/8 79/64/8
f 42/65/8 14/61/8 79/64/8 84/66/8
f 10/67/8 9/68/8 75/69/8 68/70/8
f 29/15/6 31/29/6 25/71/6 22/16/6
f 22/16/7 25/71/7 24/72/7 21/73/7
f 21/39/7 24/74/7 26/75/7 23/40/7
f 23/40/9 26/75/9 32/76/9 27/35/9
f 17/34/5 5/37/5 23/40/5 27/35/5
f 10/77/8 11/78/8 24/72/8 25/71/8
f 20/79/8 18/80/8 30/81/8 32/76/8
f 4/82/5 3/13/5 22/16/5 21/73/5
f 16/14/5 15/83/5 28/84/5 29/15/5
f 12/85/8 20/79/8 32/76/8 26/75/8
f 11/86/8 12/85/8 26/75/8 24/74/8
f 19/28/8 10/77/8 25/71/8 31/29/8
f 29/15/10 28/84/10 30/30/10 31/29/10
f 28/36/10 27/35/10 32/76/10 30/81/10
f 33/87/11 38/88/11 8/3/11 1/2/11
f 37/89/12 42/90/12 41/91/12 36/92/12
f 34/93/13 39/94/13 38/88/13 33/87/13
f 7/11/14 14/12/14 42/90/14 37/89/14
f 34/95/5 50/96/5 57/97/5 44/98/5
f 41/99/6 48/100/6 45/101/6 36/102/6
f 43/103/10 46/104/10 47/105/10 44/106/10
f 45/101/10 48/100/10 46/107/10 43/108/10
f 46/109/8 58/110/8 59/111/8 47/112/8
f 34/113/9 44/106/9 47/105/9 39/114/9
f 43/115/5 56/116/5 55/117/5 45/118/5
f 36/119/5 51/120/5 49/121/5 35/122/5
f 6/123/5 7/124/5 67/125/5 66/126/5
f 38/127/8 39/45/8 81/48/8 80/128/8
f 35/129/5 34/130/5 71/131/5 72/132/5
f 7/124/5 37/133/5 74/134/5 67/125/5
f 2/135/5 3/57/5 63/60/5 61/136/5
f 13/62/8 12/137/8 77/138/8 78/63/8
f 41/139/8 42/65/8 84/66/8 83/140/8
f 9/68/8 8/141/8 69/142/8 75/69/8
f 57/143/6 50/144/6 53/145/6 59/146/6
f 50/144/10 49/147/10 52/148/10 53/145/10
f 49/149/10 51/150/10 54/151/10 52/152/10
f 51/150/9 55/153/9 60/154/9 54/151/9
f 45/118/5 55/117/5 51/120/5 36/119/5
f 39/155/8 53/156/8 52/157/8 40/158/8
f 48/159/8 60/160/8 58/161/8 46/162/8
f 35/163/5 49/164/5 50/96/5 34/95/5
f 44/98/5 57/97/5 56/165/5 43/166/5
f 41/167/8 54/168/8 60/160/8 48/159/8
f 40/169/8 52/170/8 54/168/8 41/167/8
f 47/112/8 59/111/8 53/156/8 39/155/8
f 57/143/7 59/146/7 58/171/7 56/172/7
f 56/173/7 58/174/7 60/154/7 55/153/7
f 66/175/9 67/176/9 79/177/9 78/178/9
f 79/177/9 67/176/9 74/179/9 84/180/9
f 84/180/9 74/179/9 73/181/9 83/182/9
f 72/183/7 82/184/7 83/182/7 73/181/7
f 71/185/7 81/186/7 82/187/7 72/188/7
f 70/179/6 80/189/6 81/186/6 71/185/6
f 62/190/6 69/191/6 80/189/6 70/179/6
f 62/190/6 61/192/6 75/193/6 69/191/6
f 1/42/5 2/135/5 61/136/5 62/43/5
f 37/133/5 36/53/5 73/56/5 74/134/5
f 5/50/5 6/123/5 66/126/5 65/51/5
f 34/130/5 33/41/5 70/44/5 71/131/5
f 11/194/8 10/67/8 68/70/8 76/195/8
f 40/196/8 41/139/8 83/140/8 82/197/8
f 12/137/8 11/198/8 76/199/8 77/138/8
f 8/141/8 38/127/8 80/128/8 69/142/8
f 65/200/9 66/175/9 78/178/9 77/201/9
f 64/202/10 65/200/10 77/201/10 76/203/10
f 63/200/10 64/204/10 76/205/10 68/206/10
f 61/192/6 63/200/6 68/206/6 75/193/6
