# Blender 5.2.1 LTS
# www.blender.org
mtllib PanopticonBridgeBeamSupport.mtl
o PanopticonBridgeBeamSupport
v 27.594564 -0.930974 5.247186
v 27.594564 0.079944 5.247186
v 27.594564 -0.930974 5.441686
v 27.594564 0.079944 5.441686
v 27.444685 -0.930974 5.247186
v 27.444685 0.079944 5.247186
v 27.444685 -0.930974 5.441686
v 27.444685 0.079944 5.441686
v 27.594564 0.079944 6.919909
v 27.594564 -0.301454 6.919909
v 27.444685 -0.301454 6.919909
v 27.444685 0.079944 6.919909
v 23.648390 -0.930974 5.247186
v 23.648390 0.079944 5.247186
v 23.648390 -0.930974 5.441686
v 23.648390 0.079944 5.441686
v 23.498510 -0.930974 5.247186
v 23.498510 0.079944 5.247186
v 23.498510 -0.930974 5.441686
v 23.498510 0.079944 5.441686
v 23.648390 0.079944 6.919909
v 23.648390 -0.301454 6.919909
v 23.498510 -0.301454 6.919909
v 23.498510 0.079944 6.919909
v 19.702211 -0.930974 5.247186
v 19.702211 0.079944 5.247186
v 19.702211 -0.930974 5.441686
v 19.702211 0.079944 5.441686
v 19.552332 -0.930974 5.247186
v 19.552332 0.079944 5.247186
v 19.552332 -0.930974 5.441686
v 19.552332 0.079944 5.441686
v 19.702211 0.079944 6.919909
v 19.702211 -0.301454 6.919909
v 19.552332 -0.301454 6.919909
v 19.552332 0.079944 6.919909
v 15.756038 -0.930974 5.247186
v 15.756038 0.079944 5.247186
v 15.756038 -0.930974 5.441686
v 15.756038 0.079944 5.441686
v 15.606158 -0.930974 5.247186
v 15.606158 0.079944 5.247186
v 15.606158 -0.930974 5.441686
v 15.606158 0.079944 5.441686
v 15.756038 0.079944 6.919909
v 15.756038 -0.301454 6.919909
v 15.606158 -0.301454 6.919909
v 15.606158 0.079944 6.919909
v 11.809861 -0.930974 5.247186
v 11.809861 0.079944 5.247186
v 11.809861 -0.930974 5.441686
v 11.809861 0.079944 5.441686
v 11.659982 -0.930974 5.247186
v 11.659982 0.079944 5.247186
v 11.659982 -0.930974 5.441686
v 11.659982 0.079944 5.441686
v 11.809861 0.079944 6.919909
v 11.809861 -0.301454 6.919909
v 11.659982 -0.301454 6.919909
v 11.659982 0.079944 6.919909
v 7.863685 -0.930974 5.247186
v 7.863685 0.079944 5.247186
v 7.863685 -0.930974 5.441686
v 7.863685 0.079944 5.441686
v 7.713805 -0.930974 5.247186
v 7.713805 0.079944 5.247186
v 7.713805 -0.930974 5.441686
v 7.713805 0.079944 5.441686
v 7.863685 0.079944 6.919909
v 7.863685 -0.301454 6.919909
v 7.713805 -0.301454 6.919909
v 7.713805 0.079944 6.919909
v -27.594797 -0.930974 5.247186
v -27.594797 0.079944 5.247186
v -27.594797 -0.930974 5.441686
v -27.594797 0.079944 5.441686
v -27.444918 -0.930974 5.247186
v -27.444918 0.079944 5.247186
v -27.444918 -0.930974 5.441686
v -27.444918 0.079944 5.441686
v -27.594797 0.079944 6.919909
v -27.594797 -0.301454 6.919909
v -27.444918 -0.301454 6.919909
v -27.444918 0.079944 6.919909
v -23.648623 -0.930974 5.247186
v -23.648623 0.079944 5.247186
v -23.648623 -0.930974 5.441686
v -23.648623 0.079944 5.441686
v -23.498743 -0.930974 5.247186
v -23.498743 0.079944 5.247186
v -23.498743 -0.930974 5.441686
v -23.498743 0.079944 5.441686
v -23.648623 0.079944 6.919909
v -23.648623 -0.301454 6.919909
v -23.498743 -0.301454 6.919909
v -23.498743 0.079944 6.919909
v -19.702444 -0.930974 5.247186
v -19.702444 0.079944 5.247186
v -19.702444 -0.930974 5.441686
v -19.702444 0.079944 5.441686
v -19.552565 -0.930974 5.247186
v -19.552565 0.079944 5.247186
v -19.552565 -0.930974 5.441686
v -19.552565 0.079944 5.441686
v -19.702444 0.079944 6.919909
v -19.702444 -0.301454 6.919909
v -19.552565 -0.301454 6.919909
v -19.552565 0.079944 6.919909
v -15.756269 -0.930974 5.247186
v -15.756269 0.079944 5.247186
v -15.756269 -0.930974 5.441686
v -15.756269 0.079944 5.441686
v -15.606389 -0.930974 5.247186
v -15.606389 0.079944 5.247186
v -15.606389 -0.930974 5.441686
v -15.606389 0.079944 5.441686
v -15.756269 0.079944 6.919909
v -15.756269 -0.301454 6.919909
v -15.606389 -0.301454 6.919909
v -15.606389 0.079944 6.919909
v -11.810092 -0.930974 5.247186
v -11.810092 0.079944 5.247186
v -11.810092 -0.930974 5.441686
v -11.810092 0.079944 5.441686
v -11.660213 -0.930974 5.247186
v -11.660213 0.079944 5.247186
v -11.660213 -0.930974 5.441686
v -11.660213 0.079944 5.441686
v -11.810092 0.079944 6.919909
v -11.810092 -0.301454 6.919909
v -11.660213 -0.301454 6.919909
v -11.660213 0.079944 6.919909
v -7.863915 -0.930974 5.247186
v -7.863915 0.079944 5.247186
v -7.863915 -0.930974 5.441686
v -7.863915 0.079944 5.441686
v -7.714036 -0.930974 5.247186
v -7.714036 0.079944 5.247186
v -7.714036 -0.930974 5.441686
v -7.714036 0.079944 5.441686
v -7.863915 0.079944 6.919909
v -7.863915 -0.301454 6.919909
v -7.714036 -0.301454 6.919909
v -7.714036 0.079944 6.919909
v 27.594564 -0.930974 -5.247169
v 27.594564 0.079944 -5.247169
v 27.594564 -0.930974 -5.441669
v 27.594564 0.079944 -5.441669
v 27.444685 -0.930974 -5.247169
v 27.444685 0.079944 -5.247169
v 27.444685 -0.930974 -5.441669
v 27.444685 0.079944 -5.441669
v 27.594564 0.079944 -6.919892
v 27.594564 -0.301454 -6.919892
v 27.444685 -0.301454 -6.919892
v 27.444685 0.079944 -6.919892
v 23.648390 -0.930974 -5.247169
v 23.648390 0.079944 -5.247169
v 23.648390 -0.930974 -5.441669
v 23.648390 0.079944 -5.441669
v 23.498510 -0.930974 -5.247169
v 23.498510 0.079944 -5.247169
v 23.498510 -0.930974 -5.441669
v 23.498510 0.079944 -5.441669
v 23.648390 0.079944 -6.919892
v 23.648390 -0.301454 -6.919892
v 23.498510 -0.301454 -6.919892
v 23.498510 0.079944 -6.919892
v 19.702211 -0.930974 -5.247169
v 19.702211 0.079944 -5.247169
v 19.702211 -0.930974 -5.441669
v 19.702211 0.079944 -5.441669
v 19.552332 -0.930974 -5.247169
v 19.552332 0.079944 -5.247169
v 19.552332 -0.930974 -5.441669
v 19.552332 0.079944 -5.441669
v 19.702211 0.079944 -6.919892
v 19.702211 -0.301454 -6.919892
v 19.552332 -0.301454 -6.919892
v 19.552332 0.079944 -6.919892
v 15.756038 -0.930974 -5.247169
v 15.756038 0.079944 -5.247169
v 15.756038 -0.930974 -5.441669
v 15.756038 0.079944 -5.441669
v 15.606158 -0.930974 -5.247169
v 15.606158 0.079944 -5.247169
v 15.606158 -0.930974 -5.441669
v 15.606158 0.079944 -5.441669
v 15.756038 0.079944 -6.919892
v 15.756038 -0.301454 -6.919892
v 15.606158 -0.301454 -6.919892
v 15.606158 0.079944 -6.919892
v 11.809861 -0.930974 -5.247169
v 11.809861 0.079944 -5.247169
v 11.809861 -0.930974 -5.441669
v 11.809861 0.079944 -5.441669
v 11.659982 -0.930974 -5.247169
v 11.659982 0.079944 -5.247169
v 11.659982 -0.930974 -5.441669
v 11.659982 0.079944 -5.441669
v 11.809861 0.079944 -6.919892
v 11.809861 -0.301454 -6.919892
v 11.659982 -0.301454 -6.919892
v 11.659982 0.079944 -6.919892
v 7.863685 -0.930974 -5.247169
v 7.863685 0.079944 -5.247169
v 7.863685 -0.930974 -5.441669
v 7.863685 0.079944 -5.441669
v 7.713805 -0.930974 -5.247169
v 7.713805 0.079944 -5.247169
v 7.713805 -0.930974 -5.441669
v 7.713805 0.079944 -5.441669
v 7.863685 0.079944 -6.919892
v 7.863685 -0.301454 -6.919892
v 7.713805 -0.301454 -6.919892
v 7.713805 0.079944 -6.919892
v -27.594797 -0.930974 -5.247169
v -27.594797 0.079944 -5.247169
v -27.594797 -0.930974 -5.441669
v -27.594797 0.079944 -5.441669
v -27.444918 -0.930974 -5.247169
v -27.444918 0.079944 -5.247169
v -27.444918 -0.930974 -5.441669
v -27.444918 0.079944 -5.441669
v -27.594797 0.079944 -6.919892
v -27.594797 -0.301454 -6.919892
v -27.444918 -0.301454 -6.919892
v -27.444918 0.079944 -6.919892
v -23.648623 -0.930974 -5.247169
v -23.648623 0.079944 -5.247169
v -23.648623 -0.930974 -5.441669
v -23.648623 0.079944 -5.441669
v -23.498743 -0.930974 -5.247169
v -23.498743 0.079944 -5.247169
v -23.498743 -0.930974 -5.441669
v -23.498743 0.079944 -5.441669
v -23.648623 0.079944 -6.919892
v -23.648623 -0.301454 -6.919892
v -23.498743 -0.301454 -6.919892
v -23.498743 0.079944 -6.919892
v -19.702444 -0.930974 -5.247169
v -19.702444 0.079944 -5.247169
v -19.702444 -0.930974 -5.441669
v -19.702444 0.079944 -5.441669
v -19.552565 -0.930974 -5.247169
v -19.552565 0.079944 -5.247169
v -19.552565 -0.930974 -5.441669
v -19.552565 0.079944 -5.441669
v -19.702444 0.079944 -6.919892
v -19.702444 -0.301454 -6.919892
v -19.552565 -0.301454 -6.919892
v -19.552565 0.079944 -6.919892
v -15.756269 -0.930974 -5.247169
v -15.756269 0.079944 -5.247169
v -15.756269 -0.930974 -5.441669
v -15.756269 0.079944 -5.441669
v -15.606389 -0.930974 -5.247169
v -15.606389 0.079944 -5.247169
v -15.606389 -0.930974 -5.441669
v -15.606389 0.079944 -5.441669
v -15.756269 0.079944 -6.919892
v -15.756269 -0.301454 -6.919892
v -15.606389 -0.301454 -6.919892
v -15.606389 0.079944 -6.919892
v -11.810092 -0.930974 -5.247169
v -11.810092 0.079944 -5.247169
v -11.810092 -0.930974 -5.441669
v -11.810092 0.079944 -5.441669
v -11.660213 -0.930974 -5.247169
v -11.660213 0.079944 -5.247169
v -11.660213 -0.930974 -5.441669
v -11.660213 0.079944 -5.441669
v -11.810092 0.079944 -6.919892
v -11.810092 -0.301454 -6.919892
v -11.660213 -0.301454 -6.919892
v -11.660213 0.079944 -6.919892
v -7.863915 -0.930974 -5.247169
v -7.863915 0.079944 -5.247169
v -7.863915 -0.930974 -5.441669
v -7.863915 0.079944 -5.441669
v -7.714036 -0.930974 -5.247169
v -7.714036 0.079944 -5.247169
v -7.714036 -0.930974 -5.441669
v -7.714036 0.079944 -5.441669
v -7.863915 0.079944 -6.919892
v -7.863915 -0.301454 -6.919892
v -7.714036 -0.301454 -6.919892
v -7.714036 0.079944 -6.919892
v -11.660213 0.853055 -6.919892
v -11.660213 0.853055 -5.441669
v -7.863915 0.853055 -6.919892
v -7.863915 0.853055 -5.441669
v 11.659982 0.853055 -6.919892
v 11.659982 0.853055 -5.441669
v 7.863685 0.853055 -6.919892
v 7.863685 0.853055 -5.441669
vn 1.0000 -0.0000 -0.0000
vn -1.0000 -0.0000 -0.0000
vn -0.0000 -0.0000 -1.0000
vn -0.0000 -1.0000 -0.0000
vn -0.0000 1.0000 -0.0000
vn -0.0000 -0.0000 1.0000
vn -0.0000 -0.9200 0.3918
vn -0.0000 -0.9200 -0.3918
vt 0.077300 0.960580
vt 0.000000 0.960580
vt 0.000000 0.945707
vt 0.077300 0.945707
vt 0.983089 0.496745
vt 0.905790 0.496745
vt 0.953926 0.383713
vt 0.983089 0.383713
vt 0.983089 0.511617
vt 0.905790 0.511617
vt 0.045842 0.755376
vt 0.045842 0.832675
vt 0.034382 0.832675
vt 0.034382 0.755376
vt 0.034382 0.740503
vt 0.045842 0.740503
vt 0.045842 0.475453
vt 0.034382 0.475453
vt 0.034382 0.460581
vt 0.045842 0.460581
vt 0.034382 0.617649
vt 0.034382 0.588485
vt 0.045842 0.588485
vt 0.045842 0.617649
vt -0.000000 0.832676
vt 0.029163 0.832676
vt 0.894328 0.872096
vt 0.817028 0.872096
vt 0.817028 0.857223
vt 0.894328 0.857223
vt 0.406731 0.957326
vt 0.329432 0.957326
vt 0.377568 0.844294
vt 0.406731 0.844294
vt 0.406731 0.972198
vt 0.329432 0.972198
vt 0.252132 0.755375
vt 0.252132 0.832674
vt 0.240672 0.832674
vt 0.240672 0.755375
vt 0.240672 0.740502
vt 0.252132 0.740502
vt 0.252131 0.475453
vt 0.240671 0.475453
vt 0.240671 0.460581
vt 0.252131 0.460581
vt 0.240671 0.617648
vt 0.240671 0.588485
vt 0.252132 0.588485
vt 0.252132 0.617648
vt 0.817028 0.744191
vt 0.846192 0.744191
vt 0.817028 0.872096
vt 0.894328 0.886968
vt 0.817028 0.886968
vt 0.484031 0.829421
vt 0.406731 0.829421
vt 0.454867 0.716390
vt 0.484031 0.716390
vt 0.484031 0.844294
vt 0.406731 0.844294
vt 0.206289 0.537880
vt 0.206289 0.460581
vt 0.217750 0.460581
vt 0.217750 0.537880
vt 0.217750 0.552753
vt 0.206289 0.552753
vt 0.206289 0.817803
vt 0.217750 0.817803
vt 0.217750 0.832675
vt 0.206289 0.832675
vt 0.217750 0.675608
vt 0.217750 0.704771
vt 0.206289 0.704771
vt 0.206289 0.675608
vt 0.894328 1.000000
vt 0.865164 1.000000
vt 0.905790 0.127904
vt 0.828490 0.127904
vt 0.828490 0.113032
vt 0.905790 0.113032
vt 0.406731 0.859166
vt 0.484031 0.859166
vt 0.435895 0.972198
vt 0.406731 0.972198
vt 0.406731 0.844294
vt 0.484031 0.844294
vt 0.229210 0.537880
vt 0.229210 0.460581
vt 0.240671 0.460581
vt 0.240671 0.537880
vt 0.240671 0.552753
vt 0.229210 0.552753
vt 0.229210 0.817803
vt 0.240671 0.817803
vt 0.240671 0.832675
vt 0.229210 0.832675
vt 0.240671 0.675608
vt 0.240671 0.704771
vt 0.229210 0.704771
vt 0.229210 0.675608
vt 0.828490 -0.000000
vt 0.857653 -0.000000
vt 0.406731 0.716390
vt 0.329432 0.716390
vt 0.329432 0.701517
vt 0.406731 0.701517
vt 0.561330 0.829421
vt 0.484031 0.829421
vt 0.532167 0.716390
vt 0.561330 0.716390
vt 0.561330 0.844294
vt 0.484031 0.844294
vt 0.091684 0.755376
vt 0.091684 0.832675
vt 0.080224 0.832675
vt 0.080224 0.755376
vt 0.080224 0.740503
vt 0.091684 0.740503
vt 0.091684 0.475453
vt 0.080224 0.475453
vt 0.080224 0.460581
vt 0.091684 0.460581
vt 0.080224 0.617649
vt 0.080224 0.588485
vt 0.091684 0.588485
vt 0.091684 0.617649
vt 0.329432 0.588485
vt 0.358595 0.588485
vt 0.905790 0.511617
vt 0.983089 0.511617
vt 0.983089 0.526489
vt 0.905790 0.526489
vt 0.561330 0.957326
vt 0.484031 0.957326
vt 0.532167 0.844294
vt 0.561330 0.844294
vt 0.561330 0.972198
vt 0.484031 0.972198
vt 0.103145 0.755376
vt 0.103145 0.832675
vt 0.091684 0.832675
vt 0.091684 0.755376
vt 0.091684 0.740503
vt 0.103145 0.740503
vt 0.103145 0.475453
vt 0.091684 0.475453
vt 0.091684 0.460581
vt 0.103145 0.460581
vt 0.091684 0.617649
vt 0.091684 0.588485
vt 0.103145 0.588485
vt 0.103145 0.617649
vt 0.983089 0.639521
vt 0.953926 0.639521
vt 0.638630 0.957326
vt 0.638630 0.972198
vt 0.077300 0.832676
vt 0.106463 0.832676
vt 0.154599 0.945707
vt 0.154599 0.960580
vt 0.828490 0.077300
vt 0.817029 0.077300
vt 0.817029 0.000000
vt 0.828490 0.000000
vt 0.817029 0.092173
vt 0.828490 0.092173
vt 0.828488 0.357224
vt 0.828488 0.372097
vt 0.817028 0.372097
vt 0.817028 0.357224
vt 0.817029 0.215028
vt 0.828489 0.215028
vt 0.828489 0.244192
vt 0.817028 0.244192
vt 0.609466 0.844294
vt 0.638630 0.844294
vt 0.715929 0.957326
vt 0.715929 0.972198
vt 0.793229 0.475453
vt 0.793229 0.588485
vt 0.764066 0.588485
vt 0.715930 0.475453
vt 0.715930 0.460581
vt 0.793229 0.460581
vt 0.068763 0.537881
vt 0.057303 0.537881
vt 0.057303 0.460581
vt 0.068763 0.460581
vt 0.057303 0.552753
vt 0.068763 0.552753
vt 0.068763 0.817803
vt 0.068763 0.832676
vt 0.057303 0.832676
vt 0.057303 0.817803
vt 0.057303 0.675608
vt 0.068763 0.675608
vt 0.068763 0.704771
vt 0.057303 0.704771
vt 0.686766 0.844294
vt 0.715929 0.844294
vt 0.715930 0.972198
vt 0.715930 0.957326
vt 0.793229 0.957326
vt 0.793229 0.972198
vt 0.793229 0.603358
vt 0.793229 0.716390
vt 0.764066 0.716390
vt 0.715930 0.603358
vt 0.715930 0.588485
vt 0.793229 0.588485
vt 0.148987 0.537881
vt 0.137526 0.537881
vt 0.137526 0.460581
vt 0.148987 0.460581
vt 0.137526 0.552753
vt 0.148987 0.552753
vt 0.148987 0.817803
vt 0.148987 0.832675
vt 0.137526 0.832675
vt 0.137526 0.817803
vt 0.137526 0.675608
vt 0.148987 0.675608
vt 0.148987 0.704771
vt 0.137526 0.704771
vt 0.764066 0.844294
vt 0.793229 0.844294
vt 0.905790 0.127904
vt 0.905790 0.113032
vt 0.983089 0.113032
vt 0.983089 0.127904
vt 0.329432 0.731262
vt 0.329432 0.844294
vt 0.300268 0.844294
vt 0.252132 0.731262
vt 0.252132 0.716390
vt 0.329432 0.716390
vt 0.080224 0.537881
vt 0.068763 0.537881
vt 0.068763 0.460581
vt 0.080224 0.460581
vt 0.068763 0.552753
vt 0.080224 0.552753
vt 0.080224 0.817803
vt 0.080224 0.832676
vt 0.068763 0.832676
vt 0.068763 0.817803
vt 0.068763 0.675608
vt 0.080224 0.675608
vt 0.080224 0.704771
vt 0.068763 0.704771
vt 0.953926 -0.000000
vt 0.983089 -0.000000
vt 0.905790 0.255809
vt 0.905790 0.240936
vt 0.983089 0.240936
vt 0.983089 0.255809
vt 0.160447 0.945707
vt 0.160447 0.832675
vt 0.189611 0.832675
vt 0.237747 0.945707
vt 0.237747 0.960580
vt 0.160447 0.960580
vt 0.229210 0.537881
vt 0.217750 0.537881
vt 0.217750 0.460581
vt 0.229210 0.460581
vt 0.217750 0.552753
vt 0.229210 0.552753
vt 0.229210 0.817803
vt 0.229210 0.832675
vt 0.217750 0.832675
vt 0.217750 0.817803
vt 0.217750 0.675608
vt 0.229210 0.675608
vt 0.229210 0.704771
vt 0.217750 0.704771
vt 0.953926 0.127904
vt 0.983089 0.127904
vt 0.905790 0.383713
vt 0.905790 0.368840
vt 0.983089 0.368840
vt 0.983089 0.383713
vt 0.894328 0.744191
vt 0.923491 0.744191
vt 0.971627 0.857223
vt 0.971627 0.872096
vt 0.894328 0.872096
vt 0.000000 0.755376
vt 0.011460 0.755376
vt 0.011460 0.832676
vt -0.000000 0.832676
vt 0.011460 0.740504
vt -0.000000 0.740504
vt 0.000000 0.475453
vt 0.000000 0.460581
vt 0.011461 0.460581
vt 0.011461 0.475453
vt 0.011461 0.617649
vt 0.000000 0.617649
vt 0.000000 0.588485
vt 0.011461 0.588485
vt 0.953926 0.255809
vt 0.484031 0.460581
vt 0.484031 0.475453
vt 0.406731 0.475453
vt 0.406731 0.460581
vt 0.406731 0.731262
vt 0.406731 0.844294
vt 0.377568 0.844294
vt 0.329432 0.731262
vt 0.329432 0.716390
vt 0.406731 0.716390
vt 0.817028 0.666892
vt 0.828489 0.666892
vt 0.828489 0.744191
vt 0.817028 0.744191
vt 0.828489 0.652019
vt 0.817028 0.652019
vt 0.817028 0.386969
vt 0.817028 0.372097
vt 0.828489 0.372097
vt 0.828489 0.386969
vt 0.828489 0.529164
vt 0.817028 0.529164
vt 0.817028 0.500001
vt 0.828489 0.500001
vt 0.435895 0.588485
vt 0.406731 0.588485
vt 0.561330 0.460581
vt 0.561330 0.475453
vt 0.484031 0.475453
vt 0.484031 0.460581
vt 0.484031 0.603358
vt 0.484031 0.716390
vt 0.454867 0.716390
vt 0.406731 0.603358
vt 0.406731 0.588485
vt 0.484031 0.588485
vt 0.126066 0.755376
vt 0.137526 0.755376
vt 0.137526 0.832675
vt 0.126066 0.832675
vt 0.137526 0.740504
vt 0.126066 0.740504
vt 0.126066 0.475454
vt 0.126066 0.460581
vt 0.137526 0.460581
vt 0.137526 0.475453
vt 0.137526 0.617649
vt 0.126066 0.617649
vt 0.126066 0.588485
vt 0.137526 0.588485
vt 0.513194 0.588485
vt 0.484031 0.588485
vt 0.638630 0.460581
vt 0.638630 0.475453
vt 0.561331 0.475453
vt 0.561330 0.460581
vt 0.561330 0.603358
vt 0.561330 0.716390
vt 0.532167 0.716390
vt 0.484031 0.603358
vt 0.484031 0.588485
vt 0.561330 0.588485
vt 0.114605 0.537881
vt 0.103145 0.537881
vt 0.103145 0.460581
vt 0.114605 0.460581
vt 0.103145 0.552753
vt 0.114605 0.552753
vt 0.114605 0.817803
vt 0.114605 0.832675
vt 0.103145 0.832676
vt 0.103145 0.817803
vt 0.103145 0.675608
vt 0.114605 0.675608
vt 0.114605 0.704771
vt 0.103145 0.704771
vt 0.590494 0.588485
vt 0.561331 0.588485
vt 0.715930 0.460581
vt 0.715930 0.475453
vt 0.638630 0.475453
vt 0.638630 0.460581
vt 0.638630 0.603358
vt 0.638630 0.716390
vt 0.609467 0.716390
vt 0.561330 0.603358
vt 0.561330 0.588485
vt 0.638630 0.588485
vt 0.011461 0.755376
vt 0.022921 0.755376
vt 0.022921 0.832676
vt 0.011461 0.832675
vt 0.022921 0.740503
vt 0.011461 0.740503
vt 0.011461 0.475453
vt 0.011461 0.460581
vt 0.022921 0.460581
vt 0.022921 0.475453
vt 0.022921 0.617649
vt 0.011461 0.617649
vt 0.011461 0.588485
vt 0.022921 0.588485
vt 0.667794 0.588485
vt 0.638630 0.588485
vt 0.329432 0.588485
vt 0.329432 0.603358
vt 0.252132 0.603358
vt 0.252132 0.588485
vt 0.757912 0.372302
vt 0.757912 0.401465
vt 0.467630 0.401465
vt 0.467630 0.372302
vt 0.467630 0.249447
vt 0.452757 0.249447
vt 0.452757 0.172148
vt 0.467630 0.172148
vt 0.045842 0.755376
vt 0.057303 0.755376
vt 0.057303 0.832675
vt 0.045842 0.832675
vt 0.057303 0.740503
vt 0.045842 0.740503
vt 0.045842 0.475453
vt 0.045842 0.460581
vt 0.057303 0.460581
vt 0.057303 0.475453
vt 0.057303 0.617649
vt 0.045842 0.617649
vt 0.045842 0.588485
vt 0.057303 0.588485
vt 0.281296 0.716390
vt 0.252132 0.716390
vt 0.772785 0.249447
vt 0.757912 0.249447
vt 0.757912 0.172148
vt 0.772785 0.172148
vt 0.715930 0.603358
vt 0.715930 0.716390
vt 0.686766 0.716390
vt 0.715930 0.588485
vt 0.022921 0.755376
vt 0.034382 0.755376
vt 0.034382 0.832676
vt 0.022921 0.832675
vt 0.034382 0.740503
vt 0.022921 0.740503
vt 0.022921 0.475453
vt 0.022921 0.460581
vt 0.034382 0.460581
vt 0.034382 0.475453
vt 0.034382 0.617649
vt 0.022921 0.617649
vt 0.022921 0.588485
vt 0.034382 0.588485
vt 0.252132 0.844294
vt 0.329432 0.844294
vt 0.329432 0.859166
vt 0.252132 0.859166
vt 0.252132 0.475453
vt 0.329432 0.475453
vt 0.281296 0.588485
vt 0.252132 0.588485
vt 0.252132 0.460581
vt 0.329432 0.460581
vt 0.114605 0.537881
vt 0.114605 0.460581
vt 0.126066 0.460581
vt 0.126066 0.537881
vt 0.126066 0.552753
vt 0.114605 0.552753
vt 0.114605 0.817803
vt 0.126066 0.817803
vt 0.126066 0.832675
vt 0.114605 0.832675
vt 0.126066 0.675608
vt 0.126066 0.704771
vt 0.114605 0.704771
vt 0.114605 0.675608
vt 0.329432 0.972198
vt 0.300268 0.972198
vt 0.828490 0.127904
vt 0.905790 0.127904
vt 0.905790 0.142777
vt 0.828490 0.142777
vt 0.329432 0.475453
vt 0.406731 0.475453
vt 0.358595 0.588485
vt 0.329432 0.588485
vt 0.329432 0.460581
vt 0.406731 0.460581
vt 0.148987 0.537881
vt 0.148987 0.460581
vt 0.160447 0.460581
vt 0.160447 0.537880
vt 0.160447 0.552753
vt 0.148987 0.552753
vt 0.148987 0.817803
vt 0.160447 0.817803
vt 0.160447 0.832675
vt 0.148987 0.832675
vt 0.160447 0.675608
vt 0.160447 0.704771
vt 0.148987 0.704771
vt 0.148987 0.675608
vt 0.905790 0.255809
vt 0.876626 0.255809
vt 0.828490 0.255809
vt 0.905790 0.270681
vt 0.828490 0.270681
vt 0.561330 0.731262
vt 0.638630 0.731262
vt 0.590494 0.844294
vt 0.561330 0.844294
vt 0.561330 0.716390
vt 0.638630 0.716390
vt 0.160447 0.537881
vt 0.171908 0.460581
vt 0.171908 0.537880
vt 0.171908 0.552753
vt 0.160447 0.552753
vt 0.160447 0.817803
vt 0.171908 0.817803
vt 0.171908 0.832675
vt 0.160447 0.832675
vt 0.171908 0.675608
vt 0.171908 0.704771
vt 0.160447 0.704771
vt 0.160447 0.675608
vt 0.905790 0.383713
vt 0.876626 0.383713
vt 0.828490 0.383713
vt 0.905790 0.398585
vt 0.828490 0.398585
vt 0.638630 0.731262
vt 0.715930 0.731262
vt 0.667793 0.844294
vt 0.638630 0.844294
vt 0.715930 0.716390
vt 0.171908 0.537881
vt 0.171908 0.460581
vt 0.183368 0.460581
vt 0.183368 0.537880
vt 0.183368 0.552753
vt 0.171908 0.552753
vt 0.171908 0.817803
vt 0.183368 0.817803
vt 0.183368 0.832675
vt 0.171908 0.832675
vt 0.183368 0.675608
vt 0.183368 0.704771
vt 0.171908 0.704771
vt 0.171908 0.675608
vt 0.876626 0.511617
vt 0.828490 0.511617
vt 0.828490 0.526489
vt 0.059116 0.401465
vt 0.059116 0.372302
vt 0.349398 0.372302
vt 0.349398 0.401465
vt 0.349398 0.249447
vt 0.349398 0.172148
vt 0.364271 0.172148
vt 0.364271 0.249447
vt 0.183368 0.537881
vt 0.194829 0.460581
vt 0.194829 0.537880
vt 0.194829 0.552753
vt 0.183368 0.552753
vt 0.183368 0.817803
vt 0.194829 0.817803
vt 0.194829 0.832675
vt 0.183368 0.832675
vt 0.194829 0.675608
vt 0.194829 0.704771
vt 0.183368 0.704771
vt 0.183368 0.675608
vt 0.905790 0.639521
vt 0.876626 0.639521
vt 0.044243 0.249447
vt 0.044243 0.172148
vt 0.059116 0.172148
vt 0.059116 0.249447
vt 0.715930 0.731262
vt 0.793229 0.731262
vt 0.745093 0.844294
vt 0.715930 0.844294
vt 0.715930 0.716390
vt 0.793229 0.716390
vt 0.194829 0.537881
vt 0.206289 0.460581
vt 0.206289 0.537880
vt 0.206289 0.552753
vt 0.194829 0.552753
vt 0.194829 0.817803
vt 0.206289 0.817803
vt 0.206289 0.832675
vt 0.194829 0.832675
vt 0.206289 0.675608
vt 0.206289 0.704771
vt 0.194829 0.704771
vt 0.194829 0.675608
vt 0.349398 0.460581
vt 0.059116 0.460581
vt 0.059116 0.113032
vt 0.059116 -0.000000
vt 0.349398 -0.000000
vt 0.349398 0.113032
vt 0.408514 -0.000000
vt 0.408514 0.113032
vt -0.000000 0.113032
vt -0.000000 -0.000000
vt 0.408514 0.113032
vt 0.408514 0.000000
vt 0.467630 0.000000
vt 0.467630 0.113032
vt 0.757912 0.000000
vt 0.757912 0.113032
vt 0.817028 0.000000
vt 0.817028 0.113032
vt 0.757912 0.460581
vt 0.467630 0.460581
s 0
usemtl Checker
f 1/1/1 2/2/1 4/3/1 3/4/1
f 8/5/2 7/6/2 11/7/2 12/8/2
f 7/6/2 8/5/2 6/9/2 5/10/2
f 5/11/3 6/12/3 2/13/3 1/14/3
f 3/15/4 7/16/4 5/11/4 1/14/4
f 8/17/5 4/18/5 2/19/5 6/20/5
f 10/21/6 9/22/6 12/23/6 11/24/6
f 7/16/7 3/15/7 10/21/7 11/24/7
f 4/18/5 8/17/5 12/23/5 9/22/5
f 3/4/1 4/3/1 9/25/1 10/26/1
f 13/27/1 14/28/1 16/29/1 15/30/1
f 20/31/2 19/32/2 23/33/2 24/34/2
f 19/32/2 20/31/2 18/35/2 17/36/2
f 17/37/3 18/38/3 14/39/3 13/40/3
f 15/41/4 19/42/4 17/37/4 13/40/4
f 20/43/5 16/44/5 14/45/5 18/46/5
f 22/47/6 21/48/6 24/49/6 23/50/6
f 19/42/7 15/41/7 22/47/7 23/50/7
f 16/44/5 20/43/5 24/49/5 21/48/5
f 15/30/1 16/29/1 21/51/1 22/52/1
f 25/53/1 26/27/1 28/54/1 27/55/1
f 32/56/2 31/57/2 35/58/2 36/59/2
f 31/57/2 32/56/2 30/60/2 29/61/2
f 29/62/3 30/63/3 26/64/3 25/65/3
f 27/66/4 31/67/4 29/62/4 25/65/4
f 32/68/5 28/69/5 26/70/5 30/71/5
f 34/72/6 33/73/6 36/74/6 35/75/6
f 31/67/7 27/66/7 34/72/7 35/75/7
f 28/69/5 32/68/5 36/74/5 33/73/5
f 27/55/1 28/54/1 33/76/1 34/77/1
f 37/78/1 38/79/1 40/80/1 39/81/1
f 44/82/2 43/83/2 47/84/2 48/85/2
f 43/83/2 44/82/2 42/86/2 41/87/2
f 41/88/3 42/89/3 38/90/3 37/91/3
f 39/92/4 43/93/4 41/88/4 37/91/4
f 44/94/5 40/95/5 38/96/5 42/97/5
f 46/98/6 45/99/6 48/100/6 47/101/6
f 43/93/7 39/92/7 46/98/7 47/101/7
f 40/95/5 44/94/5 48/100/5 45/99/5
f 39/81/1 40/80/1 45/102/1 46/103/1
f 49/104/1 50/105/1 52/106/1 51/107/1
f 56/108/2 55/109/2 59/110/2 60/111/2
f 55/109/2 56/108/2 54/112/2 53/113/2
f 53/114/3 54/115/3 50/116/3 49/117/3
f 51/118/4 55/119/4 53/114/4 49/117/4
f 56/120/5 52/121/5 50/122/5 54/123/5
f 58/124/6 57/125/6 60/126/6 59/127/6
f 55/119/7 51/118/7 58/124/7 59/127/7
f 52/121/5 56/120/5 60/126/5 57/125/5
f 51/107/1 52/106/1 57/128/1 58/129/1
f 61/130/1 62/131/1 64/132/1 63/133/1
f 68/134/2 67/135/2 71/136/2 72/137/2
f 67/135/2 68/134/2 66/138/2 65/139/2
f 65/140/3 66/141/3 62/142/3 61/143/3
f 63/144/4 67/145/4 65/140/4 61/143/4
f 68/146/5 64/147/5 62/148/5 66/149/5
f 70/150/6 69/151/6 72/152/6 71/153/6
f 67/145/7 63/144/7 70/150/7 71/153/7
f 64/147/5 68/146/5 72/152/5 69/151/5
f 63/133/1 64/132/1 69/154/1 70/155/1
f 73/138/2 75/134/2 76/156/2 74/157/2
f 80/4/1 84/158/1 83/159/1 79/160/1
f 79/160/1 77/161/1 78/1/1 80/4/1
f 77/162/3 73/163/3 74/164/3 78/165/3
f 75/166/4 73/163/4 77/162/4 79/167/4
f 80/168/5 78/169/5 74/170/5 76/171/5
f 82/172/6 83/173/6 84/174/6 81/175/6
f 79/167/7 83/173/7 82/172/7 75/166/7
f 76/171/5 81/175/5 84/174/5 80/168/5
f 75/134/2 82/176/2 81/177/2 76/156/2
f 85/157/2 87/156/2 88/178/2 86/179/2
f 92/180/1 96/181/1 95/182/1 91/183/1
f 91/183/1 89/184/1 90/185/1 92/180/1
f 89/186/3 85/187/3 86/188/3 90/189/3
f 87/190/4 85/187/4 89/186/4 91/191/4
f 92/192/5 90/193/5 86/194/5 88/195/5
f 94/196/6 95/197/6 96/198/6 93/199/6
f 91/191/7 95/197/7 94/196/7 87/190/7
f 88/195/5 93/199/5 96/198/5 92/192/5
f 87/156/2 94/200/2 93/201/2 88/178/2
f 97/202/2 99/203/2 100/204/2 98/205/2
f 104/206/1 108/207/1 107/208/1 103/209/1
f 103/209/1 101/210/1 102/211/1 104/206/1
f 101/212/3 97/213/3 98/214/3 102/215/3
f 99/216/4 97/213/4 101/212/4 103/217/4
f 104/218/5 102/219/5 98/220/5 100/221/5
f 106/222/6 107/223/6 108/224/6 105/225/6
f 103/217/7 107/223/7 106/222/7 99/216/7
f 100/221/5 105/225/5 108/224/5 104/218/5
f 99/203/2 106/226/2 105/227/2 100/204/2
f 109/228/2 111/229/2 112/230/2 110/231/2
f 116/232/1 120/233/1 119/234/1 115/235/1
f 115/235/1 113/236/1 114/237/1 116/232/1
f 113/238/3 109/239/3 110/240/3 114/241/3
f 111/242/4 109/239/4 113/238/4 115/243/4
f 116/244/5 114/245/5 110/246/5 112/247/5
f 118/248/6 119/249/6 120/250/6 117/251/6
f 115/243/7 119/249/7 118/248/7 111/242/7
f 112/247/5 117/251/5 120/250/5 116/244/5
f 111/229/2 118/252/2 117/253/2 112/230/2
f 121/254/2 123/255/2 124/256/2 122/257/2
f 128/258/1 132/259/1 131/260/1 127/261/1
f 127/261/1 125/262/1 126/263/1 128/258/1
f 125/264/3 121/265/3 122/266/3 126/267/3
f 123/268/4 121/265/4 125/264/4 127/269/4
f 128/270/5 126/271/5 122/272/5 124/273/5
f 130/274/6 131/275/6 132/276/6 129/277/6
f 127/269/7 131/275/7 130/274/7 123/268/7
f 124/273/5 129/277/5 132/276/5 128/270/5
f 123/255/2 130/278/2 129/279/2 124/256/2
f 133/280/2 135/281/2 136/282/2 134/283/2
f 140/30/1 144/284/1 143/285/1 139/286/1
f 139/286/1 137/287/1 138/288/1 140/30/1
f 137/289/3 133/290/3 134/291/3 138/292/3
f 135/293/4 133/290/4 137/289/4 139/294/4
f 140/295/5 138/296/5 134/297/5 136/298/5
f 142/299/6 143/300/6 144/301/6 141/302/6
f 139/294/7 143/300/7 142/299/7 135/293/7
f 136/298/5 141/302/5 144/301/5 140/295/5
f 135/281/2 142/303/2 141/257/2 136/282/2
f 145/304/1 147/305/1 148/306/1 146/307/1
f 152/308/2 156/309/2 155/310/2 151/311/2
f 151/311/2 149/312/2 150/313/2 152/308/2
f 149/314/6 145/315/6 146/316/6 150/317/6
f 147/318/4 145/315/4 149/314/4 151/319/4
f 152/320/5 150/321/5 146/322/5 148/323/5
f 154/324/3 155/325/3 156/326/3 153/327/3
f 151/319/8 155/325/8 154/324/8 147/318/8
f 148/323/5 153/327/5 156/326/5 152/320/5
f 147/305/1 154/328/1 153/329/1 148/306/1
f 157/330/1 159/331/1 160/332/1 158/333/1
f 164/334/2 168/335/2 167/336/2 163/337/2
f 163/337/2 161/338/2 162/339/2 164/334/2
f 161/340/6 157/341/6 158/342/6 162/343/6
f 159/344/4 157/341/4 161/340/4 163/345/4
f 164/346/5 162/347/5 158/348/5 160/349/5
f 166/350/3 167/351/3 168/352/3 165/353/3
f 163/345/8 167/351/8 166/350/8 159/344/8
f 160/349/5 165/353/5 168/352/5 164/346/5
f 159/331/1 166/354/1 165/355/1 160/332/1
f 169/356/1 171/357/1 172/358/1 170/359/1
f 176/360/2 180/361/2 179/362/2 175/363/2
f 175/363/2 173/364/2 174/365/2 176/360/2
f 173/366/6 169/367/6 170/368/6 174/369/6
f 171/370/4 169/367/4 173/366/4 175/371/4
f 176/372/5 174/373/5 170/374/5 172/375/5
f 178/376/3 179/377/3 180/378/3 177/379/3
f 175/371/8 179/377/8 178/376/8 171/370/8
f 172/375/5 177/379/5 180/378/5 176/372/5
f 171/357/1 178/380/1 177/381/1 172/358/1
f 181/382/1 183/383/1 184/384/1 182/385/1
f 188/386/2 192/387/2 191/388/2 187/389/2
f 187/389/2 185/390/2 186/391/2 188/386/2
f 185/392/6 181/393/6 182/394/6 186/395/6
f 183/396/4 181/393/4 185/392/4 187/397/4
f 188/398/5 186/399/5 182/400/5 184/401/5
f 190/402/3 191/403/3 192/404/3 189/405/3
f 187/397/8 191/403/8 190/402/8 183/396/8
f 184/401/5 189/405/5 192/404/5 188/398/5
f 183/383/1 190/406/1 189/407/1 184/384/1
f 193/408/1 195/409/1 196/410/1 194/411/1
f 214/412/3 213/413/3 204/414/3 203/415/3
f 199/416/2 197/417/2 198/418/2 200/419/2
f 197/420/6 193/421/6 194/422/6 198/423/6
f 195/424/4 193/421/4 197/420/4 199/425/4
f 200/426/5 198/427/5 194/428/5 196/429/5
f 202/430/3 203/431/3 204/432/3 201/433/3
f 199/425/8 203/431/8 202/430/8 195/424/8
f 196/429/5 201/433/5 204/432/5 200/426/5
f 195/409/1 202/434/1 201/435/1 196/410/1
f 205/436/1 207/437/1 208/438/1 206/439/1
f 212/440/2 216/441/2 215/442/2 211/386/2
f 211/386/2 209/391/2 210/443/2 212/440/2
f 209/444/6 205/445/6 206/446/6 210/447/6
f 207/448/4 205/445/4 209/444/4 211/449/4
f 212/450/5 210/451/5 206/452/5 208/453/5
f 214/454/3 215/455/3 216/456/3 213/457/3
f 211/449/8 215/455/8 214/454/8 207/448/8
f 208/453/5 213/457/5 216/456/5 212/450/5
f 207/437/8 214/412/8 203/415/8 199/416/8
f 217/458/2 218/459/2 220/460/2 219/461/2
f 224/462/1 223/463/1 227/464/1 228/465/1
f 223/463/1 224/462/1 222/466/1 221/467/1
f 221/468/6 222/469/6 218/470/6 217/471/6
f 219/472/4 223/473/4 221/468/4 217/471/4
f 224/474/5 220/475/5 218/476/5 222/477/5
f 226/478/3 225/479/3 228/480/3 227/481/3
f 223/473/8 219/472/8 226/478/8 227/481/8
f 220/475/5 224/474/5 228/480/5 225/479/5
f 219/461/2 220/460/2 225/482/2 226/483/2
f 229/484/2 230/485/2 232/486/2 231/487/2
f 236/488/1 235/489/1 239/490/1 240/491/1
f 235/489/1 236/488/1 234/492/1 233/493/1
f 233/494/6 234/495/6 230/496/6 229/497/6
f 231/498/4 235/499/4 233/494/4 229/497/4
f 236/500/5 232/501/5 230/502/5 234/503/5
f 238/504/3 237/505/3 240/506/3 239/507/3
f 235/499/8 231/498/8 238/504/8 239/507/8
f 232/501/5 236/500/5 240/506/5 237/505/5
f 231/487/2 232/486/2 237/508/2 238/509/2
f 241/510/2 242/508/2 244/511/2 243/512/2
f 248/513/1 247/514/1 251/515/1 252/516/1
f 247/514/1 248/513/1 246/517/1 245/518/1
f 245/519/6 246/496/6 242/520/6 241/521/6
f 243/522/4 247/523/4 245/519/4 241/521/4
f 248/524/5 244/525/5 242/526/5 246/527/5
f 250/528/3 249/529/3 252/530/3 251/531/3
f 247/523/8 243/522/8 250/528/8 251/531/8
f 244/525/5 248/524/5 252/530/5 249/529/5
f 243/512/2 244/511/2 249/532/2 250/533/2
f 253/534/2 254/532/2 256/535/2 255/536/2
f 260/537/1 259/538/1 263/539/1 264/540/1
f 259/538/1 260/537/1 258/518/1 257/541/1
f 257/542/6 258/543/6 254/544/6 253/545/6
f 255/546/4 259/547/4 257/542/4 253/545/4
f 260/548/5 256/549/5 254/550/5 258/551/5
f 262/552/3 261/553/3 264/554/3 263/555/3
f 259/547/8 255/546/8 262/552/8 263/555/8
f 256/549/5 260/548/5 264/554/5 261/553/5
f 255/536/2 256/535/2 261/10/2 262/556/2
f 265/557/2 266/10/2 268/133/2 267/558/2
f 285/559/3 286/560/3 275/561/3 276/562/3
f 271/563/1 272/564/1 270/565/1 269/566/1
f 269/567/6 270/544/6 266/568/6 265/569/6
f 267/570/4 271/571/4 269/567/4 265/569/4
f 272/572/5 268/573/5 266/574/5 270/575/5
f 274/576/3 273/577/3 276/578/3 275/579/3
f 271/571/8 267/570/8 274/576/8 275/579/8
f 268/573/5 272/572/5 276/578/5 273/577/5
f 267/558/2 268/133/2 273/580/2 274/581/2
f 277/582/2 278/583/2 280/584/2 279/585/2
f 284/586/1 283/587/1 287/588/1 288/589/1
f 283/587/1 284/586/1 282/590/1 281/591/1
f 281/592/6 282/568/6 278/593/6 277/594/6
f 279/595/4 283/596/4 281/592/4 277/594/4
f 284/597/5 280/598/5 278/599/5 282/600/5
f 286/601/3 285/602/3 288/603/3 287/604/3
f 283/596/8 279/595/8 286/601/8 287/604/8
f 280/598/5 284/597/5 288/603/5 285/602/5
f 285/559/3 276/562/3 289/605/3 291/606/3
f 286/560/8 279/585/8 271/563/8 275/561/8
f 279/585/6 280/584/6 272/564/6 271/563/6
f 292/607/5 291/608/5 289/609/5 290/610/5
f 276/611/2 272/612/2 290/610/2 289/609/2
f 280/613/1 285/614/1 291/608/1 292/607/1
f 272/564/6 280/584/6 292/607/6 290/610/6
f 200/615/1 204/616/1 293/617/1 294/618/1
f 208/438/6 207/437/6 199/416/6 200/419/6
f 295/619/5 296/620/5 294/618/5 293/617/5
f 213/621/2 208/622/2 296/620/2 295/619/2
f 204/414/3 213/413/3 295/623/3 293/624/3
f 208/438/6 200/419/6 294/618/6 296/620/6
