# Blender 5.1.2
# www.blender.org
mtllib PanopticonConnectorBasePrt02.mtl
o PanopticonConnectorBasePrt02
v 3.651531 0.100005 3.055855
v 0.000000 0.100005 3.055855
v 3.651531 0.100005 -3.055855
v 0.000000 0.100005 -3.055855
v 3.651531 -0.000293 3.055855
v 0.000000 -0.000293 3.055855
v 3.651531 -0.000293 -3.055855
v 0.000000 -0.000293 -3.055855
vn -0.0000 1.0000 -0.0000
vn -0.0000 -1.0000 -0.0000
vn 1.0000 -0.0000 -0.0000
vn -0.0000 -0.0000 1.0000
vn -1.0000 -0.0000 -0.0000
vn -0.0000 -0.0000 -1.0000
vt 0.960429 0.000000
vt 0.960429 0.803754
vt 0.480215 0.803754
vt 0.480215 0.000000
vt 0.480214 0.803754
vt 0.000000 0.803754
vt 0.000000 0.000000
vt 0.480215 0.000000
vt 0.986810 0.000000
vt 0.986810 0.803753
vt 0.973619 0.803753
vt 0.973619 0.000000
vt 0.959466 0.767069
vt 0.959466 0.286855
vt 0.972656 0.286855
vt 0.972656 0.767069
vt 0.973619 -0.000000
vt 0.973619 0.803754
vt 0.960429 0.803754
vt 0.960429 -0.000000
vt 1.000000 0.000000
vt 1.000000 0.480214
vt 0.986810 0.480214
vt 0.986810 0.000000
s 0
usemtl M_Mesh
f 1/1/1 3/2/1 4/3/1 2/4/1
f 5/5/2 6/6/2 8/7/2 7/8/2
f 3/9/3 1/10/3 5/11/3 7/12/3
f 1/13/4 2/14/4 6/15/4 5/16/4
f 2/17/5 4/18/5 8/19/5 6/20/5
f 4/21/6 3/22/6 7/23/6 8/24/6
