# Blender 5.2.0 LTS
# www.blender.org
mtllib PanopticonConnectorBasePrt04.mtl
o PanopticonConnectorBasePrt04
v 3.651531 0.100005 3.356353
v 0.000000 0.100005 3.356353
v 3.651531 0.100005 -3.356354
v 0.000000 0.100005 -3.356354
v 3.651531 -0.000293 3.356353
v 0.000000 -0.000293 3.356353
v 3.651531 -0.000293 -3.356354
v 0.000000 -0.000293 -3.356354
vn -0.0000 1.0000 -0.0000
vn -0.0000 -1.0000 -0.0000
vn 1.0000 -0.0000 -0.0000
vn -0.0000 -0.0000 1.0000
vn -1.0000 -0.0000 -0.0000
vn -0.0000 -0.0000 -1.0000
vt 0.940337 0.976967
vt 0.062768 0.976967
vt 0.062768 0.499593
vt 0.940337 0.499593
vt 0.940337 0.499593
vt 0.062768 0.499593
vt 0.439576 0.398201
vt 0.319400 0.398201
vt 0.319400 0.396406
vt 0.439576 0.396406
vt 0.308831 0.398201
vt 0.374203 0.398201
vt 0.374203 0.399997
vt 0.308831 0.399997
vt 0.319400 0.394610
vt 0.439576 0.394610
vt 0.319400 0.396406
vt 0.439576 0.399997
s 0
usemtl M_Mesh
f 1/1/1 3/2/1 4/3/1 2/4/1
f 5/5/2 6/1/2 8/2/2 7/6/2
f 3/7/3 1/8/3 5/9/3 7/10/3
f 1/11/4 2/12/4 6/13/4 5/14/4
f 2/15/5 4/16/5 8/10/5 6/17/5
f 4/18/6 3/13/6 7/12/6 8/7/6
