# Blender 5.1.2
# www.blender.org
mtllib PanopticonAccessShaft.mtl
o PanopticonAccessShaft
v -7.362437 -29.311584 -11.097151
v -7.362437 -29.311584 -11.770462
v -7.362437 33.713253 -7.986073
v -7.362437 33.713253 -7.312762
v -8.036307 -29.311584 -7.312762
v -7.362437 -29.311584 -7.312762
v -11.147944 33.713253 -7.312762
v -11.821815 33.713253 -7.312762
v -11.821815 -29.311584 -7.986073
v -11.821815 -29.311584 -7.312762
v -11.821815 33.713253 -11.097151
v -11.821815 33.713253 -11.770462
v -11.147944 -29.311584 -11.770462
v -11.821815 -29.311584 -11.770462
v -8.036307 33.713253 -11.770462
v -7.362437 33.713253 -11.770462
v -11.147944 -29.311584 -7.312762
v -8.036307 33.713253 -7.312762
v -8.036307 -29.311584 -11.770462
v -11.147944 33.713253 -11.770462
v -8.036307 33.713253 -7.986073
v -11.147944 33.713253 -7.986073
v -8.036307 -29.311584 -11.097151
v -11.147944 -29.311584 -11.097151
v -7.362437 -29.311584 -7.986073
v -7.362437 33.713253 -11.097151
v -11.821815 -29.311584 -11.097151
v -11.821815 33.713253 -7.986073
v -8.036307 33.713253 -11.097151
v -11.147944 33.713253 -11.097151
v -8.036307 -29.311584 -7.986073
v -11.147944 -29.311584 -7.986073
vn -1.0000 -0.0000 -0.0000
vn -0.0000 -0.0000 -1.0000
vn 1.0000 -0.0000 -0.0000
vn -0.0000 -0.0000 1.0000
vt 0.625000 0.541426
vt 0.375000 0.541426
vt 0.375000 0.506131
vt 0.625000 0.506131
vt 0.625000 0.743869
vt 0.375000 0.743869
vt 0.375000 0.708574
vt 0.625000 0.708574
vt 0.625000 0.898770
vt 0.375000 0.898770
vt 0.375000 0.874749
vt 0.625000 0.874749
vt 0.375000 0.799916
vt 0.625000 0.799916
vt 0.625000 0.724111
vt 0.375000 0.724111
vt 0.375000 0.767891
vt 0.625000 0.767891
vt 0.625000 0.375251
vt 0.375000 0.375251
vt 0.375000 0.351230
vt 0.625000 0.351230
vt 0.375000 0.815453
vt 0.625000 0.815453
vt 0.625000 0.450084
vt 0.375000 0.450084
vt 0.625000 0.482109
vt 0.375000 0.482109
vt 0.375000 0.525889
vt 0.625000 0.525889
vt 0.625000 0.434547
vt 0.375000 0.434547
s 0
f 28/1/1 9/2/1 10/3/1 8/4/1
f 12/5/1 14/6/1 27/7/1 11/8/1
f 16/9/2 2/10/2 19/11/2 15/12/2
f 15/12/1 19/11/1 23/13/1 29/14/1
f 30/15/3 24/16/3 13/17/3 20/18/3
f 18/19/4 5/20/4 6/21/4 4/22/4
f 29/14/4 23/13/4 1/23/4 26/24/4
f 20/18/2 13/17/2 14/6/2 12/5/2
f 21/25/1 31/26/1 5/20/1 18/19/1
f 7/27/3 17/28/3 32/29/3 22/30/3
f 3/31/2 25/32/2 31/26/2 21/25/2
f 26/24/3 1/23/3 2/10/3 16/9/3
f 11/8/4 27/7/4 24/16/4 30/15/4
f 8/4/4 10/3/4 17/28/4 7/27/4
f 22/30/2 32/29/2 9/2/2 28/1/2
f 4/22/3 6/21/3 25/32/3 3/31/3
