# Blender 5.1.2
# www.blender.org
mtllib PanopticonConnectorBasePrt01.mtl
o PanopticonConnectorBasePrt01
v 3.651531 -0.199885 3.356354
v 3.651531 0.100005 3.356354
v -0.000000 -0.199885 3.356354
v 0.000000 0.100005 3.356354
v 3.651531 0.100005 3.055855
v -0.000000 -0.199885 3.055855
v 3.651531 -0.199885 3.055855
v 0.000000 0.100005 3.055855
v 3.651531 -0.199885 -3.356354
v 3.651531 0.100005 -3.356354
v -0.000000 -0.199885 -3.356354
v 0.000000 0.100005 -3.356354
v 3.651531 0.100005 -3.055855
v -0.000000 -0.199885 -3.055855
v 3.651531 -0.199885 -3.055855
v 0.000000 0.100005 -3.055855
vn 1.0000 -0.0000 -0.0000
vn -0.0000 -0.0000 1.0000
vn -1.0000 -0.0000 -0.0000
vn -0.0000 -1.0000 -0.0000
vn -0.0000 1.0000 -0.0000
vn -0.0000 -0.0000 -1.0000
vt 0.500977 0.947294
vt 0.500977 0.865166
vt 0.583270 0.865166
vt 0.583270 0.947294
vt 0.001502 0.945053
vt 0.001502 0.862926
vt 1.001502 0.862926
vt 1.001502 0.945053
vt 0.418683 0.947294
vt 0.418683 0.865166
vt 0.007361 0.865686
vt 1.007361 0.865686
vt 1.007361 0.947980
vt 0.007361 0.947980
vt 1.007361 0.948242
vt 0.007361 0.948242
vt 0.007361 0.865948
vt 1.007361 0.865948
vt 1.001502 0.863022
vt 1.001502 0.945149
vt 0.001502 0.945149
vt 0.001502 0.863022
vt 0.665564 0.947293
vt 0.583270 0.947293
vt 0.665564 0.865166
vt 0.001502 0.863117
vt 1.001502 0.863117
vt 1.001502 0.945245
vt 0.001502 0.945245
vt 0.336389 0.865166
vt 0.418683 0.865166
vt 0.418683 0.947293
vt 0.336389 0.947293
vt 0.007361 0.944598
vt 0.007361 0.862305
vt 1.007361 0.862305
vt 1.007361 0.944598
vt 1.007361 0.862567
vt 1.007361 0.944861
vt 0.007361 0.944861
vt 0.007361 0.862567
vt 0.007361 0.864783
vt 1.007361 0.864783
vt 1.007361 0.946910
vt 0.007361 0.946910
s 0
usemtl M_Mesh
f 7/1/1 5/2/1 2/3/1 1/4/1
f 1/5/2 2/6/2 4/7/2 3/8/2
f 3/2/3 4/1/3 8/9/3 6/10/3
f 1/11/4 3/12/4 6/13/4 7/14/4
f 4/15/5 2/16/5 5/17/5 8/18/5
f 6/19/6 8/20/6 5/21/6 7/22/6
f 15/23/1 9/24/1 10/3/1 13/25/1
f 9/26/6 11/27/6 12/28/6 10/29/6
f 11/30/3 14/31/3 16/32/3 12/33/3
f 9/34/4 15/35/4 14/36/4 11/37/4
f 12/38/5 16/39/5 13/40/5 10/41/5
f 14/42/2 15/43/2 13/44/2 16/45/2
