# Blender 5.2.1 LTS
# www.blender.org
mtllib PanopticonBridgeWire.mtl
o PanopticonBridgeWire
v 27.444685 -0.223201 6.520195
v 27.444685 -0.101484 6.468116
v 27.444685 -0.171122 6.641913
v 27.444685 -0.049404 6.589833
v 7.863683 -0.049404 6.589819
v 7.863683 -0.171122 6.641899
v 7.863683 -0.101484 6.468102
v 7.863683 -0.223201 6.520181
v -27.444918 -0.223201 6.520195
v -27.444918 -0.101484 6.468116
v -27.444918 -0.171122 6.641913
v -27.444918 -0.049404 6.589833
v -7.863945 -0.049404 6.589819
v -7.863945 -0.171122 6.641899
v -7.863945 -0.101484 6.468102
v -7.863945 -0.223201 6.520181
v 27.444685 -0.223201 -6.520178
v 27.444685 -0.101484 -6.468099
v 27.444685 -0.171122 -6.641896
v 27.444685 -0.049404 -6.589816
v 11.809861 -0.049404 -6.589802
v 11.809861 -0.171122 -6.641882
v 11.809861 -0.101484 -6.468084
v 11.809861 -0.223201 -6.520164
v -27.444918 -0.223201 -6.520178
v -27.444918 -0.101484 -6.468099
v -27.444918 -0.171122 -6.641896
v -27.444918 -0.049404 -6.589816
v -11.810092 -0.049404 -6.589802
v -11.810092 -0.171122 -6.641882
v -11.810092 -0.101484 -6.468084
v -11.810092 -0.223201 -6.520164
v 17.654184 -0.171122 6.641906
v 17.654184 -0.101484 6.468109
v 17.654184 -0.049404 6.589826
v 17.654184 -0.223201 6.520188
v -17.654432 -0.171122 6.641906
v -17.654432 -0.101484 6.468109
v -17.654432 -0.049404 6.589826
v -17.654432 -0.223201 6.520188
vn -0.0000 -0.9194 -0.3934
vn -0.0000 0.3934 0.9194
vn -0.0000 -0.3934 -0.9194
vn -0.0000 0.9194 -0.3934
vn -0.0000 -0.9194 0.3934
vn -0.0000 0.3934 -0.9194
vn -0.0000 -0.3934 0.9194
vn -0.0000 0.9194 0.3934
vt 0.059274 0.000000
vt 0.067742 0.000000
vt 0.067742 1.000000
vt 0.059274 1.000000
vt 0.110080 -0.000000
vt 0.118548 -0.000000
vt 0.118548 0.626199
vt 0.110080 0.626199
vt 0.093145 0.626199
vt 0.093145 -0.000000
vt 0.101613 -0.000000
vt 0.101613 0.626199
vt 0.067742 0.626199
vt 0.067742 -0.000000
vt 0.076210 -0.000000
vt 0.076210 0.626199
vt 0.008468 -0.000000
vt 0.008468 1.000000
vt 0.000000 1.000000
vt 0.000000 -0.000000
vt 0.143951 -0.000000
vt 0.152419 -0.000000
vt 0.152419 0.626197
vt 0.143951 0.626197
vt 0.160887 -0.000000
vt 0.169355 -0.000000
vt 0.169355 0.626197
vt 0.160887 0.626197
vt 0.135484 -0.000000
vt 0.135484 0.626197
vt 0.050806 0.000000
vt 0.050806 1.000000
vt 0.033871 0.000000
vt 0.042339 0.000000
vt 0.042339 1.000000
vt 0.033871 1.000000
vt 0.016936 1.000000
vt 0.016935 0.000000
vt 0.033871 0.000000
vt 0.033871 1.000000
vt 0.025403 1.000000
vt 0.025403 0.000000
vt 0.084677 0.626199
vt 0.084677 -0.000000
vt 0.127016 -0.000000
vt 0.127016 0.626199
vt 0.101613 0.626199
vt 0.101613 -0.000000
vt 0.135484 -0.000000
vt 0.135484 0.626199
vt 0.186290 -0.000000
vt 0.194758 -0.000000
vt 0.194758 0.626197
vt 0.186290 0.626197
vt 0.169355 -0.000000
vt 0.177822 -0.000000
vt 0.177822 0.626197
vt 0.169355 0.626197
vt 0.203225 -0.000000
vt 0.203225 0.626197
s 0
usemtl Checker
f 19/1/1 17/2/1 24/3/1 22/4/1
f 35/5/2 33/6/2 3/7/2 4/8/2
f 36/9/3 8/10/3 7/11/3 34/12/3
f 34/13/4 7/14/4 5/15/4 35/16/4
f 27/17/1 30/18/1 32/19/1 25/20/1
f 39/21/2 37/22/2 14/23/2 13/24/2
f 40/25/3 38/26/3 15/27/3 16/28/3
f 38/29/4 39/21/4 13/24/4 15/30/4
f 37/22/5 40/25/5 16/28/5 14/23/5
f 20/31/6 19/1/6 22/4/6 21/32/6
f 17/33/7 18/34/7 23/35/7 24/36/7
f 18/34/8 20/31/8 21/32/8 23/35/8
f 29/37/6 30/18/6 27/17/6 28/38/6
f 25/39/7 32/40/7 31/41/7 26/42/7
f 26/42/8 31/41/8 29/37/8 28/38/8
f 33/43/5 6/44/5 8/10/5 36/9/5
f 3/7/5 33/6/5 36/45/5 1/46/5
f 2/47/4 34/48/4 35/5/4 4/8/4
f 1/46/3 36/45/3 34/49/3 2/50/3
f 5/15/2 6/44/2 33/43/2 35/16/2
f 11/51/5 9/52/5 40/53/5 37/54/5
f 10/55/4 12/56/4 39/57/4 38/58/4
f 9/52/3 10/59/3 38/60/3 40/53/3
f 12/56/2 11/51/2 37/54/2 39/57/2
