# Blender 5.2.0 LTS
# www.blender.org
mtllib PanopticonAccessBridgeWalkway.mtl
o PanopticonAccessBridgeWalkway
v 5.621415 0.100005 2.177907
v 5.621415 0.100005 -2.177907
v 25.185755 0.100005 2.177907
v 25.185755 0.100005 -2.177907
v 5.621415 0.000018 2.177907
v 5.621415 0.000018 -2.177907
v 25.185755 0.000018 2.177907
v 25.185755 0.000018 -2.177907
v 22.390850 0.100005 2.177907
v 19.595943 0.100005 2.177907
v 16.801037 0.100005 2.177907
v 14.006131 0.100005 2.177907
v 11.211226 0.100005 2.177907
v 8.416321 0.100005 2.177907
v 22.390850 0.100005 -2.177907
v 19.595943 0.100005 -2.177907
v 16.801037 0.100005 -2.177907
v 14.006131 0.100005 -2.177907
v 11.211226 0.100005 -2.177907
v 8.416321 0.100005 -2.177907
v 22.390850 0.000018 2.177907
v 19.595943 0.000018 2.177907
v 16.801037 0.000018 2.177907
v 14.006131 0.000018 2.177907
v 11.211226 0.000018 2.177907
v 8.416321 0.000018 2.177907
v 22.390850 0.000018 -2.177907
v 19.595943 0.000018 -2.177907
v 16.801037 0.000018 -2.177907
v 14.006131 0.000018 -2.177907
v 11.211226 0.000018 -2.177907
v 8.416321 0.000018 -2.177907
vn -0.0000 1.0000 -0.0000
vn -0.0000 -1.0000 -0.0000
vn 1.0000 -0.0000 -0.0000
vn -0.0000 -0.0000 1.0000
vn -0.0000 -0.0000 -1.0000
vn -1.0000 -0.0000 -0.0000
vt 0.969936 0.495059
vt 0.969936 0.995623
vt 0.189816 0.995623
vt 0.189816 0.495059
vt 0.969936 0.995623
vt 0.189816 0.995623
vt 0.189816 0.495059
vt 0.969936 0.495059
vt 0.437258 0.387931
vt 0.437258 0.390967
vt 0.305020 0.390967
vt 0.305020 0.387931
vt 0.437258 0.424357
vt 0.437258 0.427393
vt 0.352407 0.427393
vt 0.352407 0.424357
vt 0.352407 0.409180
vt 0.352407 0.406144
vt 0.437258 0.406144
vt 0.437258 0.409180
vt 0.437258 0.384896
vt 0.305020 0.387931
vt 0.305020 0.384896
vt 0.437258 0.421322
vt 0.437258 0.424357
vt 0.352407 0.424357
vt 0.352407 0.421322
vt 0.352407 0.400073
vt 0.352407 0.397038
vt 0.437258 0.397038
vt 0.437258 0.400073
vt 0.352407 0.394002
vt 0.352407 0.390967
vt 0.437258 0.394002
vt 0.352407 0.406144
vt 0.352407 0.403109
vt 0.437258 0.403109
vt 0.352407 0.412215
vt 0.437258 0.412215
vt 0.352407 0.433464
vt 0.352407 0.430428
vt 0.437258 0.430428
vt 0.437258 0.433464
vt 0.437258 0.415251
vt 0.352407 0.415251
vt 0.437258 0.418286
vt 0.352407 0.418286
vt 0.437258 0.421322
vt 0.352407 0.418286
vt 0.189816 0.495059
vt 0.969936 0.495059
vt 0.969936 0.995623
vt 0.189816 0.995623
vt 0.969936 0.995623
vt 0.189816 0.995623
vt 0.969936 0.495059
vt 0.189816 0.495059
vt 0.969936 0.495059
vt 0.969936 0.995623
vt 0.189816 0.995623
vt 0.189816 0.995623
s 0
usemtl M_Mesh
f 9/1/1 3/2/1 4/3/1 15/4/1
f 21/5/2 27/6/2 8/7/2 7/8/2
f 3/9/3 7/10/3 8/11/3 4/12/3
f 9/13/4 21/14/4 7/15/4 3/16/4
f 20/17/5 32/18/5 6/19/5 2/20/5
f 2/21/6 6/9/6 5/22/6 1/23/6
f 4/24/5 8/25/5 27/26/5 15/27/5
f 15/28/5 27/29/5 28/30/5 16/31/5
f 16/32/5 28/33/5 29/10/5 17/34/5
f 17/35/5 29/36/5 30/37/5 18/19/5
f 18/38/5 30/17/5 31/20/5 19/39/5
f 19/40/5 31/41/5 32/42/5 20/43/5
f 1/39/4 5/44/4 26/45/4 14/38/4
f 14/14/4 26/42/4 25/41/4 13/15/4
f 13/44/4 25/46/4 24/47/4 12/45/4
f 12/46/4 24/48/4 23/27/4 11/49/4
f 11/31/4 23/37/4 22/36/4 10/28/4
f 10/34/4 22/30/4 21/29/4 9/32/4
f 5/50/2 6/51/2 32/52/2 26/53/2
f 26/54/2 32/55/2 31/4/2 25/56/2
f 25/5/2 31/6/2 30/57/2 24/58/2
f 24/52/2 30/53/2 29/4/2 23/51/2
f 23/59/2 29/60/2 28/50/2 22/56/2
f 22/59/2 28/6/2 27/4/2 21/56/2
f 1/56/1 14/54/1 20/61/1 2/50/1
f 14/1/1 13/2/1 19/3/1 20/50/1
f 13/56/1 12/54/1 18/53/1 19/50/1
f 12/56/1 11/54/1 17/53/1 18/50/1
f 11/56/1 10/59/1 16/6/1 17/4/1
f 10/56/1 9/59/1 15/6/1 16/4/1
