# Blender 5.1.2
# www.blender.org
mtllib PanopticonBridgeBearing.01.mtl
o PanopticonBridgeBearing.01
v 4.792614 8.234428 -4.792615
v 4.792615 8.234428 4.792614
v -4.792615 8.234428 -4.792614
v -4.792614 8.234428 4.792615
v 0.000000 8.234428 6.777781
v -0.000000 8.234428 -6.777781
v 6.777781 8.234428 -0.000000
v -6.777781 8.234428 0.000000
v -2.593744 8.234428 6.261853
v -2.593745 8.234428 -6.261853
v -3.908252 8.234428 0.000000
v 2.593744 8.234428 -6.261853
v 2.593745 8.234428 6.261853
v 3.908248 8.234428 0.000000
v -6.261853 8.234428 -2.593744
v 0.000000 8.234428 -3.908254
v 6.261853 8.234428 -2.593745
v -3.908252 8.234428 -3.908254
v 3.908248 8.234428 -3.908254
v 6.261853 8.234428 2.593744
v -6.261853 8.234428 2.593745
v 0.000000 8.234428 3.908254
v -3.908252 8.234428 3.908254
v 3.908248 8.234428 3.908254
v -1.322280 8.234428 -6.647547
v -1.322279 8.234428 6.647548
v -1.471538 8.234428 -3.908254
v -1.471538 8.234428 3.908254
v -3.765533 8.234428 5.635519
v -4.414613 8.234428 0.000000
v -3.765533 8.234428 -5.635519
v -4.414613 8.234428 -2.943075
v -4.414613 8.234428 2.943075
v 1.322280 8.234428 6.647547
v 1.322279 8.234428 -6.647548
v 1.471538 8.234428 -3.908254
v 1.471538 8.234428 3.908254
v 3.765533 8.234428 -5.635519
v 3.765533 8.234428 5.635519
v 4.414613 8.234428 0.000000
v 4.414613 8.234428 -2.943075
v 4.414613 8.234428 2.943075
v 6.647547 8.234428 -1.322280
v -6.647548 8.234428 -1.322279
v -3.908252 8.234428 -1.471538
v 3.908248 8.234428 -1.471538
v -4.414613 8.234428 -1.471538
v 4.414613 8.234428 -1.471538
v -5.635519 8.234428 -3.765533
v 0.000000 8.234428 -4.414613
v -2.943075 8.234428 -4.414613
v 2.943075 8.234428 -4.414613
v 5.635519 8.234428 -3.765533
v -1.471538 8.234428 -4.414613
v -4.414613 8.234428 -4.414613
v 1.471538 8.234428 -4.414613
v 4.414613 8.234428 -4.414613
v -6.647547 8.234428 1.322280
v -3.908252 8.234428 1.471538
v 3.908248 8.234428 1.471538
v 6.647548 8.234428 1.322279
v -4.414613 8.234428 1.471538
v 4.414613 8.234428 1.471538
v 5.635519 8.234428 3.765533
v -5.635519 8.234428 3.765533
v 0.000000 8.234428 4.414613
v -2.943075 8.234428 4.414613
v 2.943075 8.234428 4.414613
v -1.471538 8.234428 4.414613
v -4.414613 8.234428 4.414613
v 1.471538 8.234428 4.414613
v 4.414613 8.234428 4.414613
v 5.635519 7.045236 3.765533
v 4.792615 7.045236 4.792614
v -3.765533 7.045236 5.635519
v -4.792614 7.045236 4.792615
v -5.635519 7.045236 -3.765533
v -4.792615 7.045236 -4.792614
v 3.765533 7.045236 -5.635519
v 4.792614 7.045236 -4.792615
v 1.322280 7.045236 6.647547
v 0.000000 7.045236 6.777781
v -1.322280 7.045236 -6.647547
v -0.000000 7.045236 -6.777781
v 0.000000 7.045236 -4.414613
v 6.647547 7.045236 -1.322280
v 6.777781 7.045236 -0.000000
v -6.647547 7.045236 1.322280
v -6.777781 7.045236 0.000000
v -4.414613 7.045236 0.000000
v -1.322279 7.045236 6.647548
v -2.593744 7.045236 6.261853
v -3.765533 7.045236 -5.635519
v -2.593745 7.045236 -6.261853
v -3.908252 7.045236 0.000000
v -3.908252 7.045236 1.471538
v -2.943075 7.045236 -4.414613
v 1.322279 7.045236 -6.647548
v 2.593744 7.045236 -6.261853
v 3.765533 7.045236 5.635519
v 2.593745 7.045236 6.261853
v 4.414613 7.045236 0.000000
v 3.908248 7.045236 0.000000
v 3.908248 7.045236 1.471538
v 2.943075 7.045236 -4.414613
v -6.647548 7.045236 -1.322279
v -6.261853 7.045236 -2.593744
v 0.000000 7.045236 -3.908254
v 5.635519 7.045236 -3.765533
v 6.261853 7.045236 -2.593745
v -3.908252 7.045236 -1.471538
v -3.908252 7.045236 -3.908254
v 3.908248 7.045236 -1.471538
v 3.908248 7.045236 -3.908254
v 1.471538 7.045236 -3.908254
v -4.414613 7.045236 -2.943075
v -1.471538 7.045236 -3.908254
v 4.414613 7.045236 -2.943075
v 6.647548 7.045236 1.322279
v 6.261853 7.045236 2.593744
v -5.635519 7.045236 3.765533
v -6.261853 7.045236 2.593745
v 0.000000 7.045236 4.414613
v 0.000000 7.045236 3.908254
v -2.943075 7.045236 4.414613
v -3.908252 7.045236 3.908254
v 2.943075 7.045236 4.414613
v 3.908248 7.045236 3.908254
v 1.471538 7.045236 3.908254
v -4.414613 7.045236 2.943075
v 4.414613 7.045236 2.943075
v -1.471538 7.045236 3.908254
v -1.471538 7.045236 4.414613
v -1.471538 7.045236 -4.414613
v -4.414613 7.045236 4.414613
v -4.414613 7.045236 -1.471538
v -4.414613 7.045236 -4.414613
v -4.414613 7.045236 1.471538
v 1.471538 7.045236 4.414613
v 1.471538 7.045236 -4.414613
v 4.414613 7.045236 4.414613
v 4.414613 7.045236 -1.471538
v 4.414613 7.045236 1.471538
v 4.414613 7.045236 -4.414613
vn -0.0000 1.0000 -0.0000
vn -0.0000 -1.0000 -0.0000
vn 1.0000 -0.0000 -0.0000
vn -0.0000 -0.0000 1.0000
vn -1.0000 -0.0000 -0.0000
vn -0.0000 -0.0000 -1.0000
vn 0.8819 -0.0000 0.4714
vn 0.0980 -0.0000 -0.9952
vn 0.9952 -0.0000 0.0980
vn 0.9952 -0.0000 -0.0980
vn -0.7730 -0.0000 0.6344
vn -0.9952 -0.0000 0.0980
vn -0.9569 -0.0000 -0.2903
vn -0.4714 -0.0000 0.8819
vn 0.9569 -0.0000 -0.2903
vn -0.9952 -0.0000 -0.0980
vn 0.8819 -0.0000 -0.4714
vn -0.6344 -0.0000 -0.7730
vn -0.2903 -0.0000 0.9569
vn -0.8819 -0.0000 -0.4714
vn -0.4714 -0.0000 -0.8819
vn -0.2903 -0.0000 -0.9569
vn 0.4714 -0.0000 -0.8819
vn 0.7730 -0.0000 0.6344
vn -0.0980 -0.0000 0.9952
vn 0.6344 -0.0000 0.7730
vn -0.6344 -0.0000 0.7730
vn -0.7730 -0.0000 -0.6344
vn -0.9569 -0.0000 0.2903
vn 0.6344 -0.0000 -0.7730
vn 0.7730 -0.0000 -0.6344
vn 0.2903 -0.0000 -0.9569
vn 0.0980 -0.0000 0.9952
vn 0.9569 -0.0000 0.2903
vn 0.2903 -0.0000 0.9569
vn 0.4714 -0.0000 0.8819
vn -0.0980 -0.0000 -0.9952
vn -0.8819 -0.0000 0.4714
vt 0.843750 0.718750
vt 0.875000 0.718750
vt 0.875000 0.750000
vt 0.843750 0.750000
vt 0.718750 0.718750
vt 0.750000 0.718750
vt 0.750000 0.750000
vt 0.718750 0.750000
vt 0.843750 0.593750
vt 0.875000 0.593750
vt 0.875000 0.625000
vt 0.843750 0.625000
vt 0.656250 0.593750
vt 0.687500 0.593750
vt 0.687500 0.625000
vt 0.656250 0.625000
vt 0.656250 0.718750
vt 0.687500 0.718750
vt 0.687500 0.750000
vt 0.656250 0.750000
vt 0.781250 0.718750
vt 0.812500 0.718750
vt 0.812500 0.750000
vt 0.781250 0.750000
vt 0.656250 0.656250
vt 0.687500 0.656250
vt 0.687500 0.687500
vt 0.656250 0.687500
vt 0.843750 0.656250
vt 0.875000 0.656250
vt 0.875000 0.687500
vt 0.843750 0.687500
vt 0.781250 0.531250
vt 0.812500 0.531250
vt 0.812500 0.562500
vt 0.781250 0.562500
vt 0.656250 0.531250
vt 0.687500 0.531250
vt 0.687500 0.562500
vt 0.656250 0.562500
vt 0.843750 0.531250
vt 0.875000 0.531250
vt 0.875000 0.562500
vt 0.843750 0.562500
vt 0.718750 0.531250
vt 0.750000 0.531250
vt 0.750000 0.562500
vt 0.718750 0.562500
vt 0.625000 0.531250
vt 0.625000 0.562500
vt 0.625000 0.656250
vt 0.625000 0.687500
vt 0.625000 0.718750
vt 0.625000 0.750000
vt 0.625000 0.593750
vt 0.625000 0.625000
vt 0.812500 0.656250
vt 0.812500 0.687500
vt 0.812500 0.593750
vt 0.812500 0.625000
vt 0.750000 0.687500
vt 0.781250 0.687500
vt 0.718750 0.687500
vt 0.812500 0.500000
vt 0.843750 0.500000
vt 0.750000 0.500000
vt 0.781250 0.500000
vt 0.625000 0.500000
vt 0.656250 0.500000
vt 0.687500 0.500000
vt 0.718750 0.500000
vt 0.875000 0.500000
s 0
f 57/1/1 53/2/1 1/3/1 38/4/1
f 54/5/1 50/6/1 6/7/1 25/8/1
f 63/9/1 61/10/1 7/11/1 40/12/1
f 62/13/1 59/14/1 11/15/1 30/16/1
f 55/17/1 51/18/1 10/19/1 31/20/1
f 56/21/1 52/22/1 12/23/1 35/24/1
f 47/25/1 45/26/1 18/27/1 32/28/1
f 48/29/1 43/30/1 17/31/1 41/32/1
f 71/33/1 68/34/1 24/35/1 37/36/1
f 70/37/1 67/38/1 23/39/1 33/40/1
f 72/41/1 64/42/1 20/43/1 42/44/1
f 69/45/1 66/46/1 22/47/1 28/48/1
f 67/38/1 69/45/1 28/48/1 23/39/1
f 51/18/1 54/5/1 25/8/1 10/19/1
f 65/49/1 70/37/1 33/40/1 21/50/1
f 44/51/1 47/25/1 32/28/1 15/52/1
f 49/53/1 55/17/1 31/20/1 3/54/1
f 58/55/1 62/13/1 30/16/1 8/56/1
f 66/46/1 71/33/1 37/36/1 22/47/1
f 50/6/1 56/21/1 35/24/1 6/7/1
f 68/34/1 72/41/1 42/44/1 24/35/1
f 46/57/1 48/29/1 41/32/1 19/58/1
f 60/59/1 63/9/1 40/12/1 14/60/1
f 52/22/1 57/1/1 38/4/1 12/23/1
f 14/60/1 40/12/1 48/29/1 46/57/1
f 8/56/1 30/16/1 47/25/1 44/51/1
f 40/12/1 7/11/1 43/30/1 48/29/1
f 30/16/1 11/15/1 45/26/1 47/25/1
f 19/58/1 41/32/1 57/1/1 52/22/1
f 16/61/1 36/62/1 56/21/1 50/6/1
f 15/52/1 32/28/1 55/17/1 49/53/1
f 18/27/1 27/63/1 54/5/1 51/18/1
f 36/62/1 19/58/1 52/22/1 56/21/1
f 32/28/1 18/27/1 51/18/1 55/17/1
f 27/63/1 16/61/1 50/6/1 54/5/1
f 41/32/1 17/31/1 53/2/1 57/1/1
f 24/35/1 42/44/1 63/9/1 60/59/1
f 21/50/1 33/40/1 62/13/1 58/55/1
f 33/40/1 23/39/1 59/14/1 62/13/1
f 42/44/1 20/43/1 61/10/1 63/9/1
f 13/64/1 39/65/1 72/41/1 68/34/1
f 5/66/1 34/67/1 71/33/1 66/46/1
f 4/68/1 29/69/1 70/37/1 65/49/1
f 9/70/1 26/71/1 69/45/1 67/38/1
f 26/71/1 5/66/1 66/46/1 69/45/1
f 39/65/1 2/72/1 64/42/1 72/41/1
f 29/69/1 9/70/1 67/38/1 70/37/1
f 34/67/1 13/64/1 68/34/1 71/33/1
f 144/1/2 79/4/2 80/3/2 109/2/2
f 134/5/2 83/8/2 84/7/2 85/6/2
f 59/14/3 23/39/3 126/39/3 96/14/3
f 143/9/2 102/12/2 87/11/2 119/10/2
f 138/13/2 90/16/2 95/15/2 96/14/2
f 137/17/2 93/20/2 94/19/2 97/18/2
f 11/15/3 59/14/3 96/14/3 95/15/3
f 140/21/2 98/24/2 99/23/2 105/22/2
f 45/26/3 11/15/3 95/15/3 111/26/3
f 136/25/2 116/28/2 112/27/2 111/26/2
f 18/27/3 45/26/3 111/26/3 112/27/3
f 142/29/2 118/32/2 110/31/2 86/30/2
f 139/33/2 129/36/2 128/35/2 127/34/2
f 135/37/2 130/40/2 126/39/2 125/38/2
f 141/41/2 131/44/2 120/43/2 73/42/2
f 133/45/2 132/48/2 124/47/2 123/46/2
f 125/38/2 126/39/2 132/48/2 133/45/2
f 18/27/4 112/27/4 117/63/4 27/63/4
f 27/63/4 117/63/4 108/61/4 16/61/4
f 97/18/2 94/19/2 83/8/2 134/5/2
f 121/49/2 122/50/2 130/40/2 135/37/2
f 106/51/2 107/52/2 116/28/2 136/25/2
f 77/53/2 78/54/2 93/20/2 137/17/2
f 88/55/2 89/56/2 90/16/2 138/13/2
f 123/46/2 124/47/2 129/36/2 139/33/2
f 16/61/4 108/61/4 115/62/4 36/62/4
f 85/6/2 84/7/2 98/24/2 140/21/2
f 36/62/4 115/62/4 114/58/4 19/58/4
f 127/34/2 128/35/2 131/44/2 141/41/2
f 113/57/2 114/58/2 118/32/2 142/29/2
f 104/59/2 103/60/2 102/12/2 143/9/2
f 105/22/2 99/23/2 79/4/2 144/1/2
f 103/60/2 113/57/2 142/29/2 102/12/2
f 19/58/5 114/58/5 113/57/5 46/57/5
f 89/56/2 106/51/2 136/25/2 90/16/2
f 46/57/5 113/57/5 103/60/5 14/60/5
f 102/12/2 142/29/2 86/30/2 87/11/2
f 14/60/5 103/60/5 104/59/5 60/59/5
f 90/16/2 136/25/2 111/26/2 95/15/2
f 60/59/5 104/59/5 128/35/5 24/35/5
f 114/58/2 105/22/2 144/1/2 118/32/2
f 108/61/2 85/6/2 140/21/2 115/62/2
f 107/52/2 77/53/2 137/17/2 116/28/2
f 112/27/2 97/18/2 134/5/2 117/63/2
f 115/62/2 140/21/2 105/22/2 114/58/2
f 116/28/2 137/17/2 97/18/2 112/27/2
f 117/63/2 134/5/2 85/6/2 108/61/2
f 118/32/2 144/1/2 109/2/2 110/31/2
f 128/35/2 104/59/2 143/9/2 131/44/2
f 37/36/6 24/35/6 128/35/6 129/36/6
f 122/50/2 88/55/2 138/13/2 130/40/2
f 22/47/6 37/36/6 129/36/6 124/47/6
f 28/48/6 22/47/6 124/47/6 132/48/6
f 130/40/2 138/13/2 96/14/2 126/39/2
f 131/44/2 143/9/2 119/10/2 120/43/2
f 23/39/6 28/48/6 132/48/6 126/39/6
f 101/64/2 127/34/2 141/41/2 100/65/2
f 82/66/2 123/46/2 139/33/2 81/67/2
f 76/68/2 121/49/2 135/37/2 75/69/2
f 92/70/2 125/38/2 133/45/2 91/71/2
f 91/71/2 133/45/2 123/46/2 82/66/2
f 100/65/2 141/41/2 73/42/2 74/72/2
f 75/69/2 135/37/2 125/38/2 92/70/2
f 81/67/2 139/33/2 127/34/2 101/64/2
f 64/42/7 73/42/7 120/43/7 20/43/7
f 35/24/8 98/24/8 84/7/8 6/7/8
f 61/10/9 119/10/9 87/11/9 7/11/9
f 7/11/10 87/11/10 86/30/10 43/30/10
f 65/49/11 121/49/11 76/68/11 4/68/11
f 8/56/12 89/56/12 88/55/12 58/55/12
f 15/52/13 107/52/13 106/51/13 44/51/13
f 29/69/14 75/69/14 92/70/14 9/70/14
f 43/30/15 86/30/15 110/31/15 17/31/15
f 44/51/16 106/51/16 89/56/16 8/56/16
f 17/31/17 110/31/17 109/2/17 53/2/17
f 31/20/18 93/20/18 78/54/18 3/54/18
f 9/70/19 92/70/19 91/71/19 26/71/19
f 49/53/20 77/53/20 107/52/20 15/52/20
f 10/19/21 94/19/21 93/20/21 31/20/21
f 25/8/22 83/8/22 94/19/22 10/19/22
f 38/4/23 79/4/23 99/23/23 12/23/23
f 2/72/24 74/72/24 73/42/24 64/42/24
f 26/71/25 91/71/25 82/66/25 5/66/25
f 39/65/26 100/65/26 74/72/26 2/72/26
f 4/68/27 76/68/27 75/69/27 29/69/27
f 3/54/28 78/54/28 77/53/28 49/53/28
f 58/55/29 88/55/29 122/50/29 21/50/29
f 1/3/30 80/3/30 79/4/30 38/4/30
f 53/2/31 109/2/31 80/3/31 1/3/31
f 12/23/32 99/23/32 98/24/32 35/24/32
f 5/66/33 82/66/33 81/67/33 34/67/33
f 20/43/34 120/43/34 119/10/34 61/10/34
f 34/67/35 81/67/35 101/64/35 13/64/35
f 13/64/36 101/64/36 100/65/36 39/65/36
f 6/7/37 84/7/37 83/8/37 25/8/37
f 21/50/38 122/50/38 121/49/38 65/49/38
