# Blender 5.2.1 LTS
# www.blender.org
mtllib PanopticonRingSmall.mtl
o PanopticonRingSmall
v -31.129755 -0.155335 -20.801899
v -20.800192 -0.155335 -31.131464
v -36.720070 -0.155335 -7.302752
v -14.327382 -0.155335 -34.591248
v -34.589531 -0.155335 -14.329100
v -26.473660 -0.155335 -26.475368
v -7.320400 -0.155335 -36.718933
v 31.130053 -0.155335 -20.801899
v 20.800489 -0.155335 -31.131464
v 36.720367 -0.155335 -7.302752
v 14.327680 -0.155335 -34.591248
v 34.589828 -0.155335 -14.329100
v 26.473957 -0.155335 -26.475368
v 7.320696 -0.155335 -36.718933
v -31.129755 0.418444 -20.801899
v -20.800192 0.418444 -31.131464
v -36.720070 0.418444 -7.302752
v -14.327382 0.418444 -34.591248
v -34.589531 0.418444 -14.329100
v -26.473660 0.418444 -26.475368
v -7.320400 0.418444 -36.718933
v 31.130053 0.418444 -20.801899
v 20.800489 0.418444 -31.131464
v 36.720367 0.418444 -7.302752
v 14.327680 0.418444 -34.591248
v 34.589828 0.418444 -14.329100
v 26.473957 0.418444 -26.475368
v 7.320696 0.418444 -36.718933
v -26.129974 -0.152021 -26.099361
v -30.725622 -0.152021 -20.499546
v -34.140484 -0.152021 -14.110777
v -36.243362 -0.152021 -7.175647
v -7.225364 -0.152021 -36.209938
v -14.141379 -0.152021 -34.109886
v -20.530159 -0.152021 -30.695013
v 26.130272 -0.152021 -26.099361
v 30.725920 -0.152021 -20.499546
v 34.140781 -0.152021 -14.110777
v 36.243660 -0.152021 -7.175647
v 7.225660 -0.152021 -36.209938
v 14.141677 -0.152021 -34.109886
v 20.530457 -0.152021 -30.695013
v -26.129974 0.414310 -26.099361
v -30.725622 0.414310 -20.499546
v -34.140484 0.414310 -14.110777
v -36.243362 0.414310 -7.175647
v -7.225364 0.414310 -36.209938
v -14.141379 0.414310 -34.109886
v -20.530159 0.414310 -30.695013
v 26.130272 0.414310 -26.099361
v 30.725920 0.414310 -20.499546
v 34.140781 0.414310 -14.110777
v 36.243660 0.414310 -7.175647
v 7.225660 0.414310 -36.209938
v 14.141677 0.414310 -34.109886
v 20.530457 0.414310 -30.695013
v 20.530457 -0.100700 -30.695013
v 20.530457 0.360077 -30.695013
v 14.141677 0.360077 -34.109886
v 14.141677 -0.100700 -34.109886
v -26.129974 -0.100700 -26.099361
v -26.129974 0.360077 -26.099361
v -20.530159 0.360077 -30.695013
v -20.530159 -0.100700 -30.695013
v -34.140484 -0.100700 -14.110777
v -34.140484 0.360077 -14.110777
v -30.725622 0.360077 -20.499546
v -30.725622 -0.100700 -20.499546
v 26.130272 -0.100700 -26.099361
v 26.130272 0.360077 -26.099361
v -36.243362 0.360077 -7.175647
v -36.243362 -0.100700 -7.175647
v 34.140781 -0.100700 -14.110777
v 34.140781 0.360077 -14.110777
v 30.725920 0.360077 -20.499546
v 30.725920 -0.100700 -20.499546
v 36.243660 0.360077 -7.175647
v 36.243660 -0.100700 -7.175647
v -14.141379 -0.100700 -34.109886
v -14.141379 0.360077 -34.109886
v -7.225364 0.360077 -36.209938
v -7.225364 -0.100700 -36.209938
v 7.225660 -0.100700 -36.209938
v 7.225660 0.360077 -36.209938
v 20.604055 -0.100700 -30.813971
v 20.604055 0.360077 -30.813971
v 14.192372 0.360077 -34.241089
v 14.192372 -0.100700 -34.241089
v -26.223648 -0.100700 -26.201843
v -26.223648 0.360077 -26.201843
v -20.603758 0.360077 -30.813971
v -20.603758 -0.100700 -30.813971
v -34.262875 -0.100700 -14.170280
v -34.262875 0.360077 -14.170280
v -30.835770 0.360077 -20.581953
v -30.835770 -0.100700 -20.581953
v 26.223946 -0.100700 -26.201843
v 26.223946 0.360077 -26.201843
v -36.373291 0.360077 -7.210290
v -36.373291 -0.100700 -7.210290
v 34.263172 -0.100700 -14.170280
v 34.263172 0.360077 -14.170280
v 30.836067 0.360077 -20.581953
v 30.836067 -0.100700 -20.581953
v 36.373589 0.360077 -7.210290
v 36.373589 -0.100700 -7.210290
v -14.192075 -0.100700 -34.241089
v -14.192075 0.360077 -34.241089
v -7.251266 0.360077 -36.348663
v -7.251266 -0.100700 -36.348663
v 7.251562 -0.100700 -36.348663
v 7.251562 0.360077 -36.348663
v -34.262878 0.415437 -14.170283
v -36.373295 0.415437 -7.210291
v 30.836071 0.415437 -20.581957
v 34.263176 0.415437 -14.170283
v -7.251267 0.415437 -36.348671
v -14.192077 0.415437 -34.241089
v 36.373592 0.415437 -7.210291
v -20.603760 0.415437 -30.813974
v 7.251564 0.415437 -36.348671
v -26.223650 0.415437 -26.201847
v -30.835773 0.415437 -20.581957
v 26.223948 0.415437 -26.201847
v 14.192374 0.415437 -34.241089
v 20.604057 0.415437 -30.813974
v -36.373287 -0.152924 -7.210289
v 30.836065 -0.152924 -20.581951
v 26.223942 -0.152924 -26.201841
v 36.373585 -0.152924 -7.210289
v 34.263165 -0.152924 -14.170280
v 14.192371 -0.152924 -34.241077
v 7.251562 -0.152924 -36.348663
v 20.604053 -0.152924 -30.813967
v -30.835768 -0.152924 -20.581951
v -26.223644 -0.152924 -26.201841
v -34.262867 -0.152924 -14.170280
v -14.192074 -0.152924 -34.241077
v -7.251266 -0.152924 -36.348663
v -20.603756 -0.152924 -30.813967
vn -0.4714 -0.0000 0.8819
vn 0.6344 -0.0000 0.7730
vn 0.8819 -0.0000 0.4714
vn -0.6344 -0.0000 0.7730
vn 0.7730 -0.0000 0.6344
vn -0.8819 -0.0000 0.4714
vn 0.9570 -0.0000 0.2902
vn -0.7730 -0.0000 0.6344
vn 0.2906 -0.0000 0.9569
vn -0.9570 -0.0000 0.2902
vn 0.4714 -0.0000 0.8819
vn -0.2906 -0.0000 0.9569
vn 0.0080 1.0000 0.0024
vn -0.0073 1.0000 0.0039
vn 0.0023 1.0000 0.0077
vn 0.0038 1.0000 0.0071
vn -0.0051 -1.0000 0.0042
vn -0.0064 -1.0000 0.0020
vn 0.0052 1.0000 0.0063
vn -0.0019 -1.0000 0.0062
vn 0.0073 1.0000 0.0039
vn -0.0031 -1.0000 0.0057
vn 0.0051 -1.0000 0.0042
vn -0.0041 -1.0000 0.0050
vn 0.0064 -1.0000 0.0020
vn -0.0063 1.0000 0.0052
vn -0.0059 -1.0000 0.0031
vn 0.0019 -1.0000 0.0062
vn -0.0080 1.0000 0.0024
vn 0.0031 -1.0000 0.0057
vn -0.0023 1.0000 0.0077
vn -0.0038 1.0000 0.0071
vn 0.0041 -1.0000 0.0050
vn 0.0063 1.0000 0.0052
vn 0.0059 -1.0000 0.0031
vn -0.0052 1.0000 0.0063
vn -0.0000 1.0000 -0.0000
vn -0.0000 -1.0000 -0.0000
vt 0.863759 0.660798
vt 0.863221 0.329081
vt 0.865693 0.329079
vt 0.866220 0.660795
vt 0.823062 0.667597
vt 0.825534 0.667597
vt 0.825692 0.996328
vt 0.823231 0.996330
vt 0.783122 0.336072
vt 0.785580 0.336073
vt 0.785420 0.667809
vt 0.782945 0.667809
vt 0.863400 0.000331
vt 0.865861 0.000332
vt 0.783484 0.000952
vt 0.785918 0.000955
vt 0.708782 0.336125
vt 0.708958 0.667914
vt 0.706483 0.667914
vt 0.706323 0.336126
vt 0.785565 0.997309
vt 0.783100 0.997310
vt 0.708419 0.000952
vt 0.705986 0.000955
vt 0.823802 0.000777
vt 0.826241 0.000781
vt 0.825685 0.335866
vt 0.823224 0.335863
vt 0.708779 0.997466
vt 0.706388 0.997466
vt 0.864124 0.995895
vt 0.866563 0.995892
vt 0.006023 0.996232
vt -0.000000 0.994821
vt 0.065051 0.667866
vt 0.071306 0.668106
vt 0.247312 0.331894
vt 0.247291 0.666323
vt 0.241035 0.665368
vt 0.241056 0.332134
vt 0.546220 0.666657
vt 0.552642 0.665867
vt 0.617492 0.991965
vt 0.611303 0.993924
vt 0.546140 0.332227
vt 0.552562 0.332632
vt 0.270031 0.005676
vt 0.335294 0.333676
vt 0.329039 0.334631
vt 0.264008 0.007803
vt 0.335315 0.668105
vt 0.270031 0.996232
vt 0.264008 0.994820
vt 0.329060 0.667866
vt 0.611302 0.004207
vt 0.617492 0.005784
vt 0.446694 0.005228
vt 0.511777 0.332495
vt 0.505356 0.333285
vt 0.440505 0.007187
vt 0.065030 0.334632
vt 0.071285 0.333677
vt 0.511858 0.666925
vt 0.505436 0.666520
vt 0.094025 0.994323
vt 0.088003 0.992196
vt 0.153033 0.665368
vt 0.159289 0.666323
vt 0.446694 0.994945
vt 0.440505 0.993368
vt 0.159309 0.331894
vt 0.153054 0.332134
vt 0.088003 0.005179
vt 0.094025 0.003768
vt 0.182029 0.994323
vt 0.176006 0.992197
vt 0.699796 0.005228
vt 0.705986 0.007187
vt 0.641135 0.333285
vt 0.634714 0.332495
vt 0.182029 0.003768
vt 0.176006 0.005179
vt 0.641055 0.666520
vt 0.634633 0.666925
vt 0.423284 0.666658
vt 0.358201 0.993926
vt 0.352012 0.991967
vt 0.416862 0.665869
vt 0.423364 0.332228
vt 0.416942 0.332633
vt 0.705986 0.993368
vt 0.699797 0.994944
vt -0.000000 0.007803
vt 0.006023 0.005676
vt 0.358201 0.004207
vt 0.352012 0.005784
vt 0.087982 0.331128
vt 0.022097 0.000000
vt 0.826241 0.995888
vt 0.826873 0.660778
vt 0.829237 0.660782
vt 0.828620 0.995892
vt 0.789373 0.667578
vt 0.788701 0.335870
vt 0.795240 0.335704
vt 0.795610 0.667350
vt 0.786337 0.335874
vt 0.787069 0.667581
vt 0.777173 0.997515
vt 0.776879 0.667440
vt 0.744642 0.667895
vt 0.744569 0.997469
vt 0.742305 0.997468
vt 0.742335 0.667893
vt 0.785918 0.000751
vt 0.788297 0.000749
vt 0.749579 0.997310
vt 0.749574 0.667786
vt 0.755641 0.667411
vt 0.755507 0.997514
vt 0.745955 0.000959
vt 0.745333 0.336109
vt 0.742971 0.336104
vt 0.743581 0.000955
vt 0.776741 0.335726
vt 0.747267 0.667789
vt 0.747316 0.997310
vt 0.748938 0.336050
vt 0.755318 0.335697
vt 0.857417 0.996645
vt 0.857221 0.660961
vt 0.745955 0.000959
vt 0.748329 0.000954
vt 0.746576 0.336055
vt 0.856983 0.329304
vt 0.857296 0.000001
vt 0.827228 0.329056
vt 0.827313 0.000328
vt 0.829571 0.000328
vt 0.829532 0.329057
vt 0.835776 0.660946
vt 0.835326 0.996645
vt 0.714977 -0.000000
vt 0.715164 0.335779
vt 0.835675 -0.000000
vt 0.835769 0.329282
vt 0.789403 0.996331
vt 0.787144 0.996332
vt 0.736590 0.335750
vt 0.737024 0.000000
vt 0.816685 0.335702
vt 0.817096 0.000023
vt 0.816824 0.667377
vt 0.736267 0.667517
vt 0.736377 0.997672
vt 0.714707 0.997672
vt 0.715026 0.667545
vt 0.795004 -0.000000
vt 0.754884 0.000000
vt 0.776928 0.000000
vt 0.817129 0.996660
vt 0.795507 0.996660
vt 0.374721 -0.000000
vt 0.440505 0.331147
vt 0.440423 0.668766
vt 0.374721 0.999155
vt 0.198103 -0.000000
vt 0.264008 0.331255
vt 0.263987 0.668872
vt 0.198103 0.999999
vt 0.088003 0.668745
vt 0.594783 -0.000000
vt 0.528999 0.331147
vt 0.529081 0.668765
vt 0.594783 0.999152
vt 0.022097 1.000000
vt 0.175985 0.668872
vt 0.176006 0.331255
vt 0.617492 0.668005
vt 0.683277 0.999152
vt 0.617574 0.330387
vt 0.683277 -0.000000
vt 0.351991 0.331127
vt 0.352012 0.668744
vt 0.110100 -0.000000
vt 0.528999 0.668005
vt 0.463214 0.999152
vt 0.110099 0.999999
vt 0.528917 0.330387
vt 0.463214 -0.000000
vt 0.286105 0.999999
vt 0.286105 -0.000000
s 0
usemtl Checker
f 59/1/1 58/2/1 56/3/1 55/4/1
f 63/5/2 49/6/2 43/7/2 62/8/2
f 67/9/3 44/10/3 45/11/3 66/12/3
f 58/2/4 70/13/4 50/14/4 56/3/4
f 62/15/5 43/16/5 44/10/5 67/9/5
f 75/17/6 74/18/6 52/19/6 51/20/6
f 66/12/7 45/11/7 46/21/7 71/22/7
f 70/23/8 75/17/8 51/20/8 50/24/8
f 81/25/9 47/26/9 48/27/9 80/28/9
f 74/18/10 77/29/10 53/30/10 52/19/10
f 80/28/11 48/27/11 49/6/11 63/5/11
f 84/31/12 59/1/12 55/4/12 54/32/12
f 114/33/13 46/34/13 45/35/13 113/36/13
f 116/37/14 115/38/14 51/39/14 52/40/14
f 118/41/15 48/42/15 47/43/15 117/44/15
f 120/45/16 49/46/16 48/42/16 118/41/16
f 129/47/17 128/48/17 37/49/17 36/50/17
f 131/51/18 130/52/18 39/53/18 38/54/18
f 122/55/19 43/56/19 49/46/19 120/45/19
f 133/57/20 132/58/20 41/59/20 40/60/20
f 113/36/21 45/35/21 44/61/21 123/62/21
f 132/58/22 134/63/22 42/64/22 41/59/22
f 136/65/23 29/66/23 30/67/23 135/68/23
f 134/63/24 129/69/24 36/70/24 42/64/24
f 137/71/25 31/72/25 32/73/25 127/74/25
f 115/38/26 124/75/26 50/76/26 51/39/26
f 128/48/27 131/51/27 38/54/27 37/49/27
f 139/77/28 33/78/28 34/79/28 138/80/28
f 119/81/29 116/37/29 52/40/29 53/82/29
f 138/80/30 34/79/30 35/83/30 140/84/30
f 125/85/31 121/86/31 54/87/31 55/88/31
f 126/89/32 125/85/32 55/88/32 56/90/32
f 140/84/33 35/83/33 29/91/33 136/92/33
f 123/62/34 44/61/34 43/93/34 122/94/34
f 135/68/35 30/67/35 31/72/35 137/71/35
f 124/95/36 126/89/36 56/90/36 50/96/36
f 15/97/34 123/62/34 122/94/34 20/98/34
f 40/99/12 41/100/12 60/101/12 83/102/12
f 64/103/37 79/104/37 107/105/37 92/106/37
f 34/107/11 79/104/11 64/103/11 35/108/11
f 66/12/38 71/22/38 99/109/38 94/110/38
f 38/111/10 39/112/10 78/113/10 73/114/10
f 33/115/9 82/116/9 79/104/9 34/107/9
f 72/117/37 65/118/37 93/119/37 100/120/37
f 36/121/8 37/122/8 76/123/8 69/124/8
f 67/9/38 66/12/38 94/110/38 95/125/38
f 31/126/7 65/118/7 72/117/7 32/127/7
f 65/118/37 68/128/37 96/129/37 93/119/37
f 37/122/6 38/111/6 73/114/6 76/123/6
f 59/1/38 84/31/38 112/130/38 87/131/38
f 29/132/5 61/133/5 68/128/5 30/134/5
f 70/13/38 58/2/38 86/135/38 98/136/38
f 42/137/4 36/138/4 69/139/4 57/140/4
f 83/102/37 60/101/37 88/141/37 111/142/37
f 30/134/3 68/128/3 65/118/3 31/126/3
f 75/17/38 70/23/38 98/143/38 103/144/38
f 57/140/37 69/139/37 97/145/37 85/146/37
f 35/108/2 64/103/2 61/147/2 29/148/2
f 69/124/37 76/123/37 104/149/37 97/150/37
f 41/100/1 42/137/1 57/140/1 60/101/1
f 81/25/38 80/28/38 108/151/38 109/152/38
f 111/142/12 88/141/12 87/131/12 112/130/12
f 107/105/11 108/151/11 91/153/11 92/106/11
f 101/154/10 106/155/10 105/156/10 102/157/10
f 110/158/9 109/152/9 108/151/9 107/105/9
f 97/150/8 104/149/8 103/144/8 98/143/8
f 93/119/7 94/110/7 99/109/7 100/120/7
f 104/149/6 101/154/6 102/157/6 103/144/6
f 89/159/5 90/160/5 95/125/5 96/129/5
f 85/146/4 97/145/4 98/136/4 86/135/4
f 96/129/3 95/125/3 94/110/3 93/119/3
f 92/106/2 91/153/2 90/161/2 89/162/2
f 88/141/1 85/146/1 86/135/1 87/131/1
f 80/28/38 63/5/38 91/153/38 108/151/38
f 61/147/37 64/103/37 92/106/37 89/162/37
f 73/114/37 78/113/37 106/155/37 101/154/37
f 63/5/38 62/8/38 90/161/38 91/153/38
f 76/123/37 73/114/37 101/154/37 104/149/37
f 77/29/38 74/18/38 102/157/38 105/156/38
f 60/101/37 57/140/37 85/146/37 88/141/37
f 74/18/38 75/17/38 103/144/38 102/157/38
f 58/2/38 59/1/38 87/131/38 86/135/38
f 68/128/37 61/133/37 89/159/37 96/129/37
f 27/163/36 23/164/36 126/89/36 124/95/36
f 62/15/38 67/9/38 95/125/38 90/160/38
f 79/104/37 82/116/37 110/158/37 107/105/37
f 23/164/32 25/165/32 125/85/32 126/89/32
f 25/165/31 28/166/31 121/86/31 125/85/31
f 24/167/29 26/168/29 116/37/29 119/81/29
f 22/169/26 27/170/26 124/75/26 115/38/26
f 19/171/21 113/36/21 123/62/21 15/97/21
f 20/172/19 122/55/19 120/45/19 16/173/19
f 16/173/16 120/45/16 118/41/16 18/174/16
f 18/174/15 118/41/15 117/44/15 21/175/15
f 26/168/14 22/169/14 115/38/14 116/37/14
f 17/176/13 114/33/13 113/36/13 19/171/13
f 1/177/35 135/68/35 137/71/35 5/178/35
f 2/179/33 140/84/33 136/92/33 6/180/33
f 4/181/30 138/80/30 140/84/30 2/179/30
f 7/182/28 139/77/28 138/80/28 4/181/28
f 8/183/27 12/184/27 131/51/27 128/48/27
f 5/178/25 137/71/25 127/74/25 3/185/25
f 9/186/24 13/187/24 129/69/24 134/63/24
f 6/188/23 136/65/23 135/68/23 1/177/23
f 11/189/22 9/186/22 134/63/22 132/58/22
f 14/190/20 11/189/20 132/58/20 133/57/20
f 12/184/18 10/191/18 130/52/18 131/51/18
f 13/192/17 8/183/17 128/48/17 129/47/17
