# Blender 5.2.2 LTS
# www.blender.org
mtllib PanopticonElevatorPlatform.mtl
o PanopticonElevatorPlatform
v -3.812984 -0.903102 3.812984
v -3.812984 0.100005 3.812984
v -3.812984 -0.903102 3.431127
v -3.812984 0.100005 3.431126
v -3.431242 0.100005 3.812984
v -3.431242 -0.903102 3.812984
v -3.431242 -0.903102 3.431127
v -3.431242 0.100005 3.431126
v -3.431242 5.960507 3.812984
v -3.812984 5.960507 3.812984
v -3.812984 5.960507 3.431126
v -3.431242 5.960507 3.431126
v -3.431242 6.232809 3.812984
v -3.812984 6.232809 3.812984
v -3.812984 6.232809 3.431126
v -3.431242 6.232809 3.431126
v -3.431242 -0.399642 3.431126
v 3.812984 -0.903102 3.812984
v 3.812984 0.100005 3.812984
v 3.812984 -0.903102 3.431126
v 3.812984 0.100005 3.431126
v 3.431242 0.100005 3.812984
v 3.431242 -0.903102 3.812984
v 3.431242 -0.903102 3.431126
v 3.431242 0.100005 3.431126
v 3.431242 5.960507 3.812983
v 3.812984 5.960507 3.812983
v 3.812984 5.960507 3.431125
v 3.431242 5.960507 3.431125
v 3.431242 6.232809 3.812983
v 3.812984 6.232809 3.812983
v 3.812984 6.232809 3.431125
v 3.431242 6.232809 3.431125
v 3.431242 -0.399642 3.431126
v -3.812984 -0.903102 -3.812984
v -3.812984 0.100005 -3.812984
v -3.812984 -0.903102 -3.431126
v -3.812984 0.100005 -3.431126
v -3.431242 0.100005 -3.812984
v -3.431242 -0.903102 -3.812984
v -3.431242 -0.903102 -3.431126
v -3.431242 5.960506 -3.812984
v -3.812984 5.960506 -3.812984
v -3.812984 5.960506 -3.431126
v -3.431242 5.960506 -3.431126
v -3.431242 6.232808 -3.812984
v -3.812984 6.232808 -3.812984
v -3.812984 6.232808 -3.431126
v -3.431242 6.232808 -3.431126
v -3.431242 -0.399642 -3.431126
v 3.812984 -0.903102 -3.812984
v 3.812984 0.100005 -3.812984
v 3.812984 -0.903102 -3.431126
v 3.812984 0.100005 -3.431126
v 3.431242 0.100005 -3.812984
v 3.431242 -0.903102 -3.812984
v 3.431242 -0.903102 -3.431126
v 3.431242 5.960506 -3.812985
v 3.812984 5.960506 -3.812985
v 3.812984 5.960506 -3.431127
v 3.431242 5.960506 -3.431127
v 3.431242 6.232808 -3.812985
v 3.812984 6.232808 -3.812985
v 3.812984 6.232808 -3.431127
v 3.431242 6.232808 -3.431127
v 3.431242 -0.399642 -3.431126
v -3.812984 3.030256 -3.812984
v -3.812984 3.030256 -3.431126
v -3.431242 3.030256 -3.431126
v -3.431242 3.030256 -3.812984
v 3.812984 3.030256 -3.812984
v 3.812984 3.030256 -3.431127
v 3.431242 3.030256 -3.431127
v 3.431242 3.030256 -3.812984
v -3.431242 5.960506 -3.622055
v 3.431242 5.960506 -3.622056
v -3.431242 3.030256 -3.622055
v 3.431242 3.030256 -3.622056
v 0.381889 0.100005 3.431126
v -0.381889 0.100005 3.431126
v -0.381889 -0.399642 3.431126
v 0.381889 -0.399642 3.431126
v 0.381889 3.030256 -3.622055
v -0.381889 3.030256 -3.622055
v 0.381889 -0.903102 -3.812984
v -0.381889 -0.903102 -3.812984
v -0.381889 0.100005 -3.812984
v 0.381889 0.100005 -3.812984
v -0.381889 -0.903102 -3.431126
v 0.381889 -0.903102 -3.431126
v -0.381889 3.030256 -3.812984
v 0.381889 3.030256 -3.812984
v -0.381889 -0.399642 -3.431126
v 0.381889 -0.399642 -3.431126
v 0.381889 5.960506 -3.812984
v 0.381889 6.232808 -3.812984
v 0.381889 6.232808 -3.431127
v 0.381889 5.960506 -3.431127
v 0.381889 5.960506 -3.622056
v -0.381889 5.960506 -3.812984
v -0.381889 5.960506 -3.431127
v -0.381889 5.960506 -3.622056
v -0.381889 6.232808 -3.812984
v -0.381889 6.232808 -3.431127
v -3.431242 6.232808 -3.039206
v -3.431242 6.232808 3.039206
v -3.563405 6.126679 3.431126
v -3.431242 5.960507 3.039206
v -3.431242 5.960507 -3.039206
v 3.431242 6.232808 -3.039207
v 3.431242 6.232808 3.039205
v 3.431242 5.960507 3.039205
v 3.431242 5.960507 -3.039207
v -3.431242 6.126679 3.431126
v -3.431242 6.126679 3.812984
v -3.812984 6.126679 3.812984
v -3.812984 6.126679 3.431126
v 3.431242 6.126679 3.431125
v 3.431242 6.126679 3.812983
v 3.812984 6.126679 3.812983
v 3.812984 6.126679 3.431125
v -3.431242 6.126679 3.039206
v 3.563405 6.126679 3.431125
v 3.431242 6.126679 3.039205
v -3.431242 6.161590 -3.431126
v -3.431242 6.161590 -3.812984
v -3.812984 6.161590 -3.812984
v -3.812984 6.161590 -3.431126
v 3.431242 6.161590 -3.431127
v 3.431242 6.161590 -3.812985
v 3.812984 6.161590 -3.812985
v 3.812984 6.161590 -3.431127
v 0.381889 6.161590 -3.812984
v 0.381889 6.126033 -3.431127
v -0.381889 6.161590 -3.812984
v -0.381889 6.126033 -3.431127
v -3.563405 6.161590 -3.431126
v -3.431242 6.161590 -3.039206
v 3.563405 6.161590 -3.431127
v 3.431242 6.161590 -3.039207
v 2.722239 6.992631 -2.722240
v -2.722239 6.992631 -2.722239
v 2.722239 6.992631 2.722238
v -2.722239 6.992631 2.722239
v 2.722239 6.992631 1.654184
v 2.722239 6.992631 -1.654186
v -2.722239 6.992631 -1.654185
v -2.722239 6.992631 1.654185
v 2.722239 7.098760 -1.654186
v 2.722239 7.098760 -2.722240
v -2.722239 7.098760 -2.722239
v -2.722239 7.098760 1.654185
v -2.722239 7.098760 2.722239
v 2.722239 7.098760 2.722238
v 2.722239 7.098760 1.654184
v -2.722239 7.098760 -1.654185
v 3.431242 6.992631 -1.654186
v 3.431242 6.992631 1.654184
v 3.431242 7.098760 -1.654186
v 3.431242 7.098760 1.654184
v -3.431242 6.992631 1.654185
v -3.431242 6.992631 -1.654185
v -3.431242 7.098760 1.654185
v -3.431242 7.098760 -1.654185
v -3.477445 5.990986 -3.717615
v -0.449001 3.001280 -3.750425
v -3.477445 5.990986 -3.764015
v -0.449001 3.001280 -3.684805
v -3.477445 5.990986 -3.671215
v -0.487739 2.962543 -3.750425
v -3.504837 5.963594 -3.717615
v -0.487739 2.962543 -3.684805
v -3.450054 6.018377 -3.717615
v -0.440978 3.009303 -3.717615
v -3.496814 5.971618 -3.684805
v -0.495761 2.954520 -3.717615
v -3.496814 5.971618 -3.750425
v -0.468370 2.981912 -3.671215
v -3.458076 6.010355 -3.684805
v -0.468370 2.981912 -3.764015
v -0.468370 2.981912 -3.717615
v -3.458076 6.010355 -3.750425
v 3.477445 5.990986 -3.717616
v 0.449001 3.001280 -3.750425
v 3.477445 5.990986 -3.764016
v 0.449001 3.001280 -3.684805
v 3.477445 5.990986 -3.671216
v 0.487739 2.962543 -3.750425
v 3.504837 5.963594 -3.717616
v 0.487739 2.962543 -3.684805
v 3.450054 6.018377 -3.717616
v 0.440978 3.009303 -3.717615
v 3.496814 5.971618 -3.684806
v 0.495761 2.954520 -3.717615
v 3.496814 5.971618 -3.750426
v 0.468370 2.981912 -3.671215
v 3.458076 6.010355 -3.684806
v 0.468370 2.981912 -3.764015
v 0.468370 2.981912 -3.717615
v 3.458076 6.010355 -3.750426
v 3.452339 6.161590 -3.410031
v 3.409912 6.161590 -3.452457
v 3.388698 6.109628 -3.473669
v 3.409912 6.057666 -3.452457
v 3.452339 6.057666 -3.410031
v 3.473552 6.109628 -3.388818
v -3.409912 6.161591 3.452456
v -3.452339 6.161591 3.410030
v -3.473552 6.109629 3.388817
v -3.452339 6.057667 3.410030
v -3.409912 6.057667 3.452456
v -3.388698 6.109629 3.473668
v 3.410030 6.161591 3.452338
v 3.452455 6.161591 3.409911
v 3.473668 6.109629 3.388698
v 3.452455 6.057667 3.409911
v 3.410030 6.057667 3.452338
v 3.388817 6.109629 3.473552
v -3.452455 6.161590 -3.409912
v -3.410030 6.161590 -3.452339
v -3.388817 6.109628 -3.473553
v -3.410030 6.057666 -3.452339
v -3.452455 6.057666 -3.409912
v -3.473668 6.109628 -3.388699
v 0.502080 3.030256 -3.767793
v 0.502080 5.960506 -3.767793
v 0.502080 3.030256 -3.667247
v 0.502080 5.960506 -3.667248
v -0.502080 3.030256 -3.767793
v -0.502080 5.960506 -3.767793
v -0.502080 3.030256 -3.667247
v -0.502080 5.960506 -3.667248
v -0.196824 3.030256 -3.667247
v 0.196824 3.030256 -3.667247
v 0.196824 5.960506 -3.667248
v -0.196824 5.960506 -3.667248
v 0.196824 3.030256 -3.767793
v -0.196824 3.030256 -3.767793
v -0.196824 5.960506 -3.767793
v 0.196824 5.960506 -3.767793
v -0.196824 3.030256 -3.717221
v 0.196824 3.030256 -3.717221
v 0.196824 5.960506 -3.717221
v -0.196824 5.960506 -3.717221
v 3.563405 0.100005 3.812984
v 3.563405 -0.903102 3.431126
v 3.563405 -0.903102 3.812984
v 3.563405 5.960507 3.812983
v 3.563405 6.232809 3.812983
v 3.563405 6.232809 3.431125
v 3.563405 0.100005 -3.812984
v 3.563405 -0.903102 -3.431126
v 3.563405 -0.903102 -3.812984
v 3.563405 5.960506 -3.812985
v 3.563405 6.232808 -3.812985
v 3.563405 6.232808 -3.431127
v 3.563405 3.030256 -3.812984
v 3.563405 6.232808 -3.039207
v 3.563405 6.232808 3.039205
v 3.563405 6.126679 3.812983
v 3.563405 6.161590 -3.812985
v 3.563405 7.098760 1.654184
v 3.563405 7.098760 -1.654186
v -3.563405 0.100005 3.812984
v -3.563405 -0.903102 3.431127
v -3.563405 -0.903102 3.812984
v -3.563405 5.960507 3.812984
v -3.563405 6.232809 3.812984
v -3.563405 6.232809 3.431126
v -3.563405 0.100005 -3.812984
v -3.563405 -0.903102 -3.431126
v -3.563405 -0.903102 -3.812984
v -3.563405 5.960506 -3.812984
v -3.563405 6.232808 -3.812984
v -3.563405 6.232808 -3.431126
v -3.563405 3.030256 -3.812984
v -3.563405 6.232808 -3.039206
v -3.563405 6.232808 3.039206
v -3.563405 6.126679 3.812984
v -3.563405 6.161590 -3.812984
v -3.563405 7.098760 -1.654185
v -3.563405 7.098760 1.654185
v -0.381889 0.149968 -3.431126
v -3.563405 5.960507 3.431126
v -0.381889 0.149968 3.431126
v -3.563405 5.960506 -3.431126
v -3.563405 3.030256 -3.431126
v -3.563405 5.960507 -3.039206
v -3.563405 5.960507 3.039206
v -3.563405 6.126679 3.039206
v -3.563405 6.161590 -3.039206
v -3.563405 6.992631 -1.654185
v -3.563405 6.992631 1.654185
v 0.381889 0.149968 3.431126
v 3.563405 5.960507 3.431125
v 0.381889 0.149968 -3.431126
v 3.563405 5.960506 -3.431127
v 3.563405 3.030256 -3.431127
v 3.563405 5.960507 -3.039207
v 3.563405 5.960507 3.039205
v 3.563405 6.126679 3.039205
v 3.563405 6.161590 -3.039207
v 3.563405 6.992631 1.654184
v 3.563405 6.992631 -1.654186
v 0.381889 6.992631 -2.722239
v -0.381889 6.992631 -2.722239
v -0.381889 6.992631 2.722239
v 0.381889 6.992631 2.722239
v -0.381889 6.992631 -1.654186
v 0.381889 6.992631 -1.654186
v -0.381889 6.992631 1.654185
v 0.381889 6.992631 1.654184
v 0.381889 7.098760 -2.722239
v -0.381889 7.098760 -2.722239
v -0.381889 7.098760 2.722239
v 0.381889 7.098760 2.722239
v -0.381889 7.098760 -1.654186
v 0.381889 7.098760 -1.654186
v -0.381889 7.098760 1.654185
v 0.381889 7.098760 1.654184
v 0.381889 5.960507 3.812984
v 0.381889 6.232809 3.812984
v 0.381889 6.232809 3.431126
v 0.381889 5.960507 3.431126
v 0.381889 6.126679 3.812984
v 0.381889 6.125648 3.431126
v -0.381889 5.960507 3.812984
v -0.381889 5.960507 3.431126
v -0.381889 6.232809 3.812984
v -0.381889 6.232809 3.431126
v -0.381889 6.126679 3.812984
v -0.381889 6.125648 3.431126
v -2.335050 3.030256 -3.812984
v -1.571272 3.030256 -3.812984
v -2.335050 5.960506 -3.812984
v -1.571272 5.960506 -3.812984
v 2.335050 3.030256 -3.812984
v 1.571272 3.030256 -3.812984
v 2.335050 5.960506 -3.812985
v 1.571272 5.960506 -3.812984
v -3.812984 -0.399642 3.812984
v -3.812984 -0.399642 3.431127
v -3.431242 -0.399642 3.812984
v 3.812984 -0.399642 3.812984
v 3.812984 -0.399642 3.431126
v 3.431242 -0.399642 3.812984
v -3.812984 -0.399642 -3.812984
v -3.812984 -0.399642 -3.431126
v -3.431242 -0.399642 -3.812984
v 3.812984 -0.399642 -3.812984
v 3.812984 -0.399642 -3.431126
v 3.431242 -0.399642 -3.812984
v -0.381889 -0.399642 -3.812984
v 0.381889 -0.399642 -3.812984
v 3.563405 -0.399642 -3.812984
v 3.563405 -0.399642 3.812984
v -3.563405 -0.399642 -3.812984
v -3.563405 -0.399642 3.812984
v -3.812984 0.149968 -3.431126
v -3.431242 0.149968 -3.431126
v -3.431242 0.149968 -3.812984
v 3.812984 0.149968 -3.431126
v 3.431242 0.149968 -3.431126
v 3.431242 0.149968 -3.812984
v -3.812984 0.149968 -3.812984
v 3.812984 0.149968 -3.812984
v 3.431242 0.149968 -3.622055
v -3.431242 0.149968 -3.622055
v -0.381889 0.149968 -3.812984
v 0.381889 0.149968 -3.812984
v -0.381889 0.149968 -3.622055
v 0.381889 0.149968 -3.622055
v 3.563405 0.149968 -3.812984
v -3.563405 0.149968 -3.812984
v -3.563405 0.149968 -3.431126
v 3.563405 0.149968 -3.431126
v -3.812984 0.149968 3.812984
v -3.812984 0.149968 3.431126
v -3.431242 0.149968 3.431126
v -3.431242 0.149968 3.812984
v -3.563405 0.149968 3.812984
v -3.563405 0.149968 3.431126
v 3.812984 0.149968 3.812984
v 3.812984 0.149968 3.431126
v 3.431242 0.149968 3.431126
v 3.431242 0.149968 3.812984
v 3.563405 0.149968 3.812984
v 3.563405 0.149968 3.431126
vn -1.0000 -0.0000 -0.0000
vn -0.0000 -0.0000 1.0000
vn 1.0000 -0.0000 -0.0000
vn -0.0000 -1.0000 -0.0000
vn -0.0000 -0.0000 -1.0000
vn -0.0000 1.0000 -0.0000
vn -0.0000 -0.6332 0.7740
vn -0.0000 -0.8575 0.5145
vn -0.0000 0.8479 -0.5301
vn -0.0000 -0.8479 -0.5301
vn -0.0000 0.8479 0.5301
vn 0.3143 0.3143 0.8958
vn -0.7071 0.7071 -0.0000
vn 0.3143 0.3143 -0.8958
vn -0.6683 -0.6683 0.3268
vn 0.7071 -0.7071 -0.0000
vn 0.6683 0.6683 0.3268
vn -0.3143 -0.3143 -0.8958
vn 0.6683 0.6683 -0.3268
vn -0.3143 -0.3143 0.8958
vn -0.6683 -0.6683 -0.3268
vn -0.3143 0.3143 0.8958
vn 0.7071 0.7071 -0.0000
vn -0.3143 0.3143 -0.8958
vn 0.6683 -0.6683 0.3268
vn -0.7071 -0.7071 -0.0000
vn -0.6683 0.6683 0.3268
vn 0.3143 -0.3143 -0.8958
vn -0.6683 0.6683 -0.3268
vn 0.3143 -0.3143 0.8958
vn 0.6683 -0.6683 -0.3268
vn 0.6124 0.5000 0.6124
vn -0.6124 0.5000 -0.6124
vn -0.6124 -0.5000 -0.6124
vn 0.6124 -0.5000 0.6124
vn -0.6124 0.5000 0.6124
vn 0.6124 0.5000 -0.6124
vn 0.6124 -0.5000 -0.6124
vn -0.6124 -0.5000 0.6124
vn -0.0000 0.6334 0.7738
vn -0.0000 0.6334 -0.7738
vn -0.0000 -0.6330 -0.7742
vt 0.480813 0.512938
vt 0.480813 0.526110
vt 0.280380 0.526110
vt 0.280380 0.512938
vt 0.745922 0.271664
vt 0.745922 0.263055
vt 0.763289 0.263055
vt 0.763289 0.271664
vt 0.531583 0.526110
vt 0.548949 0.526110
vt 0.548949 0.762822
vt 0.531583 0.762822
vt 0.499771 0.526110
vt 0.499771 0.512938
vt 0.517138 0.512938
vt 0.517138 0.526110
vt 0.279282 0.249883
vt 0.279282 0.013172
vt 0.287892 0.013172
vt 0.287892 0.249883
vt 0.499771 0.276227
vt 0.517138 0.276227
vt 0.033445 0.249883
vt 0.038004 0.249883
vt 0.038004 0.263055
vt 0.033445 0.263055
vt 0.916352 0.749302
vt 0.916352 0.762822
vt 0.912691 0.762822
vt 0.912691 0.749302
vt 0.876304 0.972647
vt 0.867695 0.972647
vt 0.867695 0.772215
vt 0.876304 0.772215
vt 0.567908 0.775994
vt 0.567908 0.762822
vt 0.768341 0.762822
vt 0.768341 0.775994
vt 0.726964 0.271664
vt 0.726964 0.276223
vt 0.526531 0.276223
vt 0.526531 0.271664
vt 0.547214 0.254446
vt 0.547214 0.263055
vt 0.534042 0.263055
vt 0.534042 0.254446
vt 0.274648 0.512938
vt 0.274648 0.526110
vt 0.270987 0.526110
vt 0.270987 0.512938
vt 0.376054 0.833631
vt 0.381977 0.845784
vt 0.376824 0.848295
vt 0.370902 0.836142
vt 0.520799 0.271664
vt 0.520799 0.276223
vt 0.517138 0.276223
vt 0.517138 0.271664
vt 0.560734 0.254446
vt 0.547214 0.249887
vt 0.560734 0.249887
vt 0.962606 0.131533
vt 0.962570 0.236719
vt 0.958910 0.236719
vt 0.958910 0.131533
vt 0.547214 0.144701
vt 0.534042 0.249887
vt 0.534042 0.144701
vt 0.520799 0.381410
vt 0.526531 0.381410
vt 0.143191 0.013172
vt 0.038004 0.013172
vt 0.038004 0.000000
vt 0.143191 0.000000
vt 0.042203 0.276227
vt 0.042203 0.512938
vt 0.024836 0.512938
vt 0.024836 0.276227
vt 0.061162 0.512938
vt 0.261594 0.512938
vt 0.261594 0.526110
vt 0.061162 0.526110
vt 0.745922 0.517501
vt 0.763289 0.517501
vt 0.763289 0.526110
vt 0.745922 0.526110
vt 0.531583 0.526111
vt 0.531583 0.762822
vt 0.514216 0.762822
vt 0.514216 0.526111
vt 0.042203 0.526110
vt 0.024836 0.526110
vt 0.763289 0.394588
vt 1.000000 0.394588
vt 1.000000 0.499774
vt 0.763289 0.499774
vt 0.279282 0.263055
vt 0.274723 0.263055
vt 0.274723 0.249883
vt 0.885422 0.972647
vt 0.885422 0.772215
vt 0.894031 0.772215
vt 0.894031 0.972647
vt 0.495257 0.775994
vt 0.294825 0.775994
vt 0.294825 0.762822
vt 0.495257 0.762822
vt 0.726964 0.517501
vt 0.526531 0.517501
vt 0.526531 0.512942
vt 0.726964 0.512942
vt 0.547214 0.008609
vt 0.534042 0.008609
vt 0.534042 0.000000
vt 0.547214 0.000000
vt 0.267326 0.512938
vt 0.270987 0.512938
vt 0.270987 0.526110
vt 0.267326 0.526110
vt 0.365749 0.833631
vt 0.370901 0.836142
vt 0.364979 0.848295
vt 0.359826 0.845784
vt 0.520799 0.517501
vt 0.517138 0.517501
vt 0.517138 0.512942
vt 0.520799 0.512942
vt 0.942931 0.131533
vt 0.949517 0.131533
vt 0.949517 0.236719
vt 0.942931 0.236719
vt 0.560734 0.008609
vt 0.560734 0.013168
vt 0.547214 0.013168
vt 0.381458 0.276227
vt 0.280380 0.276227
vt 0.280380 0.263055
vt 0.381458 0.263055
vt 0.516676 0.254446
vt 0.534042 0.254446
vt 0.534042 0.263055
vt 0.516676 0.263055
vt 0.516676 0.118354
vt 0.516676 0.013168
vt 0.534042 0.013168
vt 0.534042 0.118354
vt 0.499771 0.263055
vt 0.517138 0.263055
vt 0.033445 0.013172
vt 0.033445 0.000000
vt 0.017367 0.703019
vt 0.017367 0.808205
vt 0.000000 0.808205
vt 0.000000 0.703019
vt 0.968004 0.625465
vt 0.968004 0.726543
vt 0.959395 0.726543
vt 0.959395 0.625465
vt 0.913545 0.863900
vt 0.913545 0.762822
vt 0.920131 0.762822
vt 0.920131 0.863900
vt 0.398362 0.254446
vt 0.297284 0.254446
vt 0.297284 0.249887
vt 0.398362 0.249887
vt 0.281306 0.534720
vt 0.268134 0.534720
vt 0.268134 0.526110
vt 0.281306 0.526110
vt 0.273444 0.276227
vt 0.270987 0.276227
vt 0.270987 0.263055
vt 0.273444 0.263055
vt 0.290348 0.254446
vt 0.287892 0.254446
vt 0.287892 0.249887
vt 0.290348 0.249887
vt 0.955226 0.131533
vt 0.958910 0.131533
vt 0.958910 0.236719
vt 0.956453 0.236719
vt 0.281306 0.644465
vt 0.268134 0.644465
vt 0.268134 0.539279
vt 0.281306 0.539279
vt 0.290348 0.144701
vt 0.297284 0.144701
vt 0.160516 0.276227
vt 0.160516 0.263055
vt 0.261594 0.263055
vt 0.261594 0.276227
vt 0.516676 0.008609
vt 0.516676 0.000000
vt 0.534042 0.000000
vt 0.042203 0.263055
vt 0.024836 0.263055
vt 0.274723 0.013172
vt 0.274723 0.000000
vt 0.279282 0.000000
vt 0.968004 0.846407
vt 0.959395 0.846407
vt 0.959395 0.745329
vt 0.968004 0.745329
vt 0.926717 0.863900
vt 0.920131 0.863900
vt 0.920131 0.762822
vt 0.926717 0.762822
vt 0.398362 0.008609
vt 0.398362 0.013168
vt 0.297284 0.013168
vt 0.297284 0.008609
vt 0.281306 0.780557
vt 0.281306 0.789166
vt 0.268133 0.789166
vt 0.268133 0.780557
vt 0.268531 0.276227
vt 0.268531 0.263055
vt 0.270987 0.263055
vt 0.270987 0.276227
vt 0.290348 0.008609
vt 0.290348 0.013168
vt 0.287892 0.013168
vt 0.287892 0.008609
vt 0.959395 0.657643
vt 0.959395 0.762830
vt 0.946223 0.762830
vt 0.946223 0.657643
vt 0.497717 0.254446
vt 0.497717 0.249887
vt 0.913545 0.963254
vt 0.920131 0.963254
vt 0.968004 0.526110
vt 0.959395 0.526110
vt 0.480813 0.276227
vt 0.480813 0.263055
vt 0.497717 0.008609
vt 0.497717 0.013168
vt 0.926717 0.963254
vt 0.920131 0.963254
vt 0.968004 0.945762
vt 0.959395 0.945762
vt 0.061162 0.276227
vt 0.061162 0.263055
vt 0.017367 0.703019
vt 0.023953 0.703019
vt 0.023953 0.808205
vt 0.017367 0.808205
vt 0.497717 0.118354
vt 0.398362 0.118354
vt 0.933303 0.863900
vt 0.933303 0.762822
vt 0.906959 0.863900
vt 0.906959 0.762822
vt 0.936345 0.131533
vt 0.936345 0.236719
vt 0.398362 0.144701
vt 0.497717 0.144701
vt 0.017367 0.571486
vt 0.023953 0.571486
vt 0.023953 0.676672
vt 0.017367 0.676672
vt 0.017367 0.571486
vt 0.017367 0.676672
vt 0.000000 0.676672
vt 0.000000 0.571486
vt 0.482536 0.512938
vt 0.482536 0.526110
vt 0.516676 0.249887
vt 0.516676 0.144701
vt 0.534042 0.144701
vt 0.534042 0.249887
vt 0.728687 0.263055
vt 0.728687 0.271664
vt 0.726964 0.263055
vt 0.728687 0.276223
vt 0.763289 0.263055
vt 1.000000 0.263055
vt 1.000000 0.368242
vt 0.763289 0.368242
vt 0.169537 0.013172
vt 0.169537 0.000000
vt 0.936345 0.000000
vt 0.942931 -0.000000
vt 0.942931 0.105186
vt 0.936345 0.105186
vt 0.297284 0.118354
vt 0.290348 0.118354
vt 0.281306 0.775998
vt 0.268133 0.775998
vt 0.268134 0.670811
vt 0.281306 0.670811
vt 0.956453 -0.000000
vt 0.958910 -0.000000
vt 0.958910 0.105186
vt 0.955226 0.105186
vt 0.949517 -0.000000
vt 0.949517 0.105186
vt 0.471798 0.775994
vt 0.498144 0.775994
vt 0.498144 0.814614
vt 0.471798 0.814614
vt 0.897566 0.539630
vt 0.897566 0.526110
vt 0.900023 0.526110
vt 0.900023 0.539630
vt 0.294825 0.534720
vt 0.294825 0.539279
vt 0.354327 0.779032
vt 0.348405 0.791185
vt 0.342169 0.788147
vt 0.348092 0.775994
vt 0.381977 0.777598
vt 0.385268 0.775994
vt 0.379345 0.832027
vt 0.294825 0.775998
vt 0.294825 0.780557
vt 0.588087 0.245837
vt 0.588087 0.251569
vt 0.583528 0.251569
vt 0.583528 0.245837
vt 0.387476 0.779032
vt 0.393711 0.775994
vt 0.399634 0.788147
vt 0.393398 0.791185
vt 0.019799 0.562286
vt 0.024358 0.562286
vt 0.024358 0.569222
vt 0.019799 0.569222
vt 0.916352 0.526110
vt 0.916352 0.539630
vt 0.913895 0.539630
vt 0.913895 0.526110
vt 0.356535 0.848295
vt 0.353244 0.846691
vt 0.350613 0.792261
vt 0.867695 0.766483
vt 0.876304 0.766483
vt 0.362458 0.832027
vt 0.356535 0.844180
vt 0.517138 0.381410
vt 0.968302 0.131533
vt 0.968303 0.236719
vt 0.901227 0.762822
vt 0.901227 0.749303
vt 0.906959 0.749303
vt 0.906959 0.762822
vt 0.385268 0.844180
vt 0.431546 0.831710
vt 0.426987 0.831710
vt 0.426987 0.775994
vt 0.431546 0.775994
vt 0.385268 0.780109
vt 0.391190 0.792261
vt 0.356535 0.780109
vt 0.968004 0.733479
vt 0.959395 0.733479
vt 0.287892 0.118354
vt 0.287892 0.144701
vt 0.711697 0.136092
vt 0.748539 0.136092
vt 0.748539 0.216821
vt 0.711697 0.216821
vt 0.560734 0.136092
vt 0.597576 0.136092
vt 0.597576 0.216821
vt 0.560734 0.216821
vt 0.899502 0.109745
vt 0.899502 0.029016
vt 0.936345 0.029016
vt 0.936345 0.109745
vt 0.748539 0.109745
vt 0.748539 0.029016
vt 0.785381 0.029016
vt 0.785381 0.109745
vt 0.550837 0.812836
vt 0.550837 0.775994
vt 0.554498 0.775994
vt 0.554498 0.812836
vt 0.777932 0.499774
vt 0.777932 0.524231
vt 0.774271 0.524231
vt 0.774271 0.499774
vt 0.558158 0.775994
vt 0.558158 0.812836
vt 0.020697 0.562286
vt 0.020697 0.481556
vt 0.024358 0.481556
vt 0.024358 0.562286
vt 0.356535 0.775994
vt 0.359826 0.777597
vt 0.763289 0.524231
vt 0.763289 0.499774
vt 0.766950 0.499774
vt 0.766950 0.524231
vt 0.561819 0.775994
vt 0.561819 0.812836
vt 0.565480 0.775994
vt 0.565480 0.812836
vt 0.561819 0.775994
vt 0.413310 0.832339
vt 0.408752 0.832339
vt 0.408752 0.775994
vt 0.413310 0.775994
vt 0.338508 0.856723
vt 0.338508 0.775994
vt 0.342169 0.775994
vt 0.342169 0.856723
vt 0.766950 0.524231
vt 0.766950 0.499774
vt 0.770611 0.499774
vt 0.770611 0.524231
vt 0.885422 0.766483
vt 0.894031 0.766483
vt 0.785381 0.216821
vt 0.899502 0.216821
vt 0.899502 0.241278
vt 0.785381 0.241278
vt 0.597576 0.029016
vt 0.597576 0.004559
vt 0.711697 0.004559
vt 0.711697 0.029016
vt 0.770611 0.499774
vt 0.774272 0.499774
vt 0.774272 0.524231
vt 0.413310 0.775994
vt 0.417869 0.775994
vt 0.417869 0.832339
vt 0.413310 0.832339
vt 0.785381 0.004559
vt 0.899502 0.004559
vt 0.711697 0.241278
vt 0.597576 0.241278
vt 0.906959 0.526110
vt 0.906959 0.539630
vt 0.871356 0.587406
vt 0.867695 0.587406
vt 0.871356 0.701527
vt 0.867695 0.701527
vt 0.942562 0.701527
vt 0.946223 0.701527
vt 0.422428 0.775994
vt 0.426987 0.832339
vt 0.422428 0.832339
vt 0.388559 0.846691
vt 0.385268 0.848294
vt 0.942562 0.587406
vt 0.946223 0.587406
vt 0.905293 0.762822
vt 0.906348 0.762822
vt 0.906348 0.909613
vt 0.905293 0.909613
vt 0.566525 0.262381
vt 0.565785 0.261630
vt 0.565785 0.260432
vt 0.567048 0.260869
vt 0.904238 0.909613
vt 0.904238 0.762822
vt 0.905293 0.762822
vt 0.897624 0.762822
vt 0.898821 0.762822
vt 0.898821 0.909613
vt 0.897624 0.909613
vt 0.568311 0.261305
vt 0.567571 0.259356
vt 0.568311 0.260108
vt 0.569574 0.260869
vt 0.569051 0.259356
vt 0.570097 0.259490
vt 0.570836 0.260432
vt 0.570097 0.262381
vt 0.570836 0.261630
vt 0.566525 0.259490
vt 0.567571 0.262247
vt 0.022767 0.334764
vt 0.023964 0.334764
vt 0.023964 0.481556
vt 0.022767 0.481556
vt 0.770450 0.909620
vt 0.769395 0.909620
vt 0.769395 0.762830
vt 0.770450 0.762830
vt 0.569051 0.262247
vt 0.568311 0.260108
vt 0.020697 0.481557
vt 0.019499 0.481557
vt 0.019499 0.334765
vt 0.020697 0.334765
vt 0.902129 0.762822
vt 0.903183 0.762822
vt 0.903183 0.909613
vt 0.902129 0.909613
vt 0.896426 0.909613
vt 0.895229 0.909613
vt 0.895229 0.762822
vt 0.896426 0.762822
vt 0.901074 0.762822
vt 0.901074 0.909614
vt 0.900019 0.909614
vt 0.900019 0.762822
vt 0.563999 0.262381
vt 0.564522 0.260869
vt 0.565785 0.261305
vt 0.565045 0.262247
vt 0.903183 0.909613
vt 0.903183 0.762822
vt 0.904238 0.762822
vt 0.904238 0.909613
vt 0.898822 0.909613
vt 0.898822 0.762822
vt 0.900019 0.762822
vt 0.900019 0.909613
vt 0.563259 0.260432
vt 0.563999 0.259490
vt 0.565045 0.259356
vt 0.561996 0.260869
vt 0.560734 0.261306
vt 0.560734 0.260108
vt 0.561473 0.259356
vt 0.562520 0.262381
vt 0.561473 0.262247
vt 0.565785 0.260108
vt 0.563259 0.261630
vt 0.021894 0.334765
vt 0.021894 0.481556
vt 0.020697 0.481556
vt 0.020697 0.334765
vt 0.769395 0.762830
vt 0.769395 0.909620
vt 0.768341 0.909621
vt 0.768341 0.762830
vt 0.563259 0.261630
vt 0.563259 0.260432
vt 0.562520 0.259490
vt 0.895229 0.762822
vt 0.895229 0.909613
vt 0.894031 0.909613
vt 0.894031 0.762822
vt 0.901074 0.909613
vt 0.901074 0.762822
vt 0.897624 0.909613
vt 0.896426 0.909613
vt 0.896426 0.762822
vt 0.008279 0.000000
vt 0.008279 0.334766
vt 0.006209 0.334766
vt 0.006209 0.000000
vt 0.022767 0.000000
vt 0.022767 0.334765
vt 0.020697 0.334765
vt 0.020697 0.000000
vt 0.010348 0.000000
vt 0.010348 0.334766
vt 0.008279 0.334766
vt 0.008279 0.000000
vt 0.010348 0.334766
vt 0.010348 0.000000
vt 0.012418 0.000000
vt 0.012418 0.334766
vt 0.020697 0.000000
vt 0.020697 0.334765
vt 0.018627 0.334765
vt 0.018627 0.000000
vt 0.004139 0.334767
vt 0.004139 0.000000
vt 0.006209 0.000000
vt 0.006209 0.334767
vt 0.004139 0.000000
vt 0.004139 0.334767
vt 0.002070 0.334767
vt 0.002070 -0.000000
vt 0.022767 0.334764
vt 0.022767 0.000000
vt 0.024836 0.000000
vt 0.024836 0.334764
vt 0.000000 0.334767
vt 0.000000 0.000000
vt 0.002070 0.000000
vt 0.002070 0.334767
vt 0.012418 0.334766
vt 0.012418 0.000000
vt 0.014488 0.000000
vt 0.014488 0.334766
vt 0.016558 0.334766
vt 0.016558 0.000000
vt 0.018627 0.000000
vt 0.018627 0.334766
vt 0.014488 0.334766
vt 0.014488 0.000000
vt 0.016558 0.000000
vt 0.016558 0.334766
vt 0.857781 0.863908
vt 0.857781 0.762830
vt 0.861249 0.762830
vt 0.861249 0.863908
vt 0.308403 0.877072
vt 0.308403 0.775994
vt 0.318933 0.775994
vt 0.318933 0.877072
vt 0.864718 0.762830
vt 0.864718 0.863908
vt 0.861249 0.863908
vt 0.861249 0.762830
vt 0.794559 0.863908
vt 0.794559 0.762830
vt 0.805088 0.762830
vt 0.805088 0.863908
vt 0.866441 0.762830
vt 0.866441 0.863908
vt 0.864717 0.863908
vt 0.864717 0.762830
vt 0.329463 0.877072
vt 0.329463 0.775994
vt 0.331187 0.775994
vt 0.331187 0.877072
vt 0.308403 0.775994
vt 0.308403 0.877072
vt 0.294825 0.877072
vt 0.294825 0.775994
vt 0.770450 0.863908
vt 0.770450 0.762830
vt 0.780980 0.762830
vt 0.780980 0.863908
vt 0.318933 0.877072
vt 0.318933 0.775994
vt 0.329463 0.775994
vt 0.329463 0.877072
vt 0.408752 0.832339
vt 0.404193 0.832339
vt 0.404193 0.775994
vt 0.408752 0.775994
vt 0.899502 0.245837
vt 0.785381 0.245837
vt 0.297284 0.000000
vt 0.290348 0.000000
vt 0.526531 0.526110
vt 0.520799 0.526110
vt 0.959395 0.738393
vt 0.968004 0.738393
vt 0.497717 0.000000
vt 0.398362 0.000000
vt 0.287892 0.000000
vt 0.287892 0.000000
vt 0.906959 0.762822
vt 0.906959 0.749302
vt 0.534042 0.013168
vt 0.726964 0.526110
vt 0.287892 0.263055
vt 0.745922 0.512942
vt 0.763289 0.512942
vt 0.399634 0.775994
vt 0.404193 0.775994
vt 0.404193 0.832339
vt 0.399634 0.832339
vt 0.897566 0.749303
vt 0.785381 0.000000
vt 0.899502 0.000000
vt 0.297284 0.263055
vt 0.290348 0.263055
vt 0.526531 0.263055
vt 0.520799 0.263055
vt 0.968004 0.735936
vt 0.959395 0.735936
vt 0.497717 0.263055
vt 0.398362 0.263055
vt 0.024836 0.249883
vt 0.024836 0.013172
vt 0.287892 0.263055
vt 0.024836 0.000000
vt 0.867695 0.762822
vt 0.876304 0.762822
vt 0.517138 0.263055
vt 0.024836 0.263055
vt 0.745922 0.276223
vt 0.763289 0.276223
vt 0.436105 0.831710
vt 0.431546 0.831710
vt 0.431546 0.775994
vt 0.436105 0.775994
vt 0.897566 0.762822
vt 0.711697 0.245837
vt 0.597576 0.245837
vt 0.578969 0.252773
vt 0.578969 0.245837
vt 0.583528 0.245837
vt 0.583528 0.252773
vt 0.583528 0.258505
vt 0.578969 0.258505
vt 0.578969 0.252773
vt 0.583528 0.252773
vt 0.574410 0.245837
vt 0.574410 0.259356
vt 0.569852 0.259356
vt 0.569852 0.245837
vt 0.972563 0.526110
vt 0.972563 0.625465
vt 0.972563 0.726543
vt 0.578969 0.245837
vt 0.578969 0.259356
vt 0.574410 0.259356
vt 0.574410 0.245837
vt 0.880863 0.972647
vt 0.880863 0.772215
vt 0.566185 0.775994
vt 0.566185 0.762822
vt 0.597576 0.000000
vt 0.711697 0.000000
vt 0.906959 0.526110
vt 0.417869 0.775994
vt 0.422428 0.775994
vt 0.422428 0.832339
vt 0.417869 0.832339
vt 0.560734 0.245837
vt 0.565293 0.245837
vt 0.565293 0.259356
vt 0.560734 0.259356
vt 0.968004 0.735936
vt 0.885422 0.762822
vt 0.894031 0.762822
vt 0.972563 0.945762
vt 0.972563 0.846407
vt 0.972563 0.745329
vt 0.880863 0.972647
vt 0.880863 0.772215
vt 0.017235 0.466300
vt 0.018959 0.466300
vt 0.018959 0.571486
vt 0.017235 0.571486
vt 0.565293 0.245837
vt 0.569852 0.245837
vt 0.569852 0.259356
vt 0.565293 0.259356
vt 0.334848 0.856723
vt 0.334848 0.775994
vt 0.338508 0.775994
vt 0.338508 0.856723
vt 0.524490 0.775994
vt 0.550837 0.814597
vt 0.524490 0.814597
vt 0.334848 0.775994
vt 0.334848 0.856723
vt 0.331187 0.856723
vt 0.331187 0.775994
vt 0.443104 0.817448
vt 0.440787 0.814614
vt 0.440787 0.775994
vt 0.443119 0.778845
vt 0.785381 0.136092
vt 0.899502 0.136092
vt 0.748539 0.216821
vt 0.748539 0.136092
vt 0.936345 0.136092
vt 0.936345 0.216821
vt 0.711697 0.109745
vt 0.597576 0.109745
vt 0.560734 0.029016
vt 0.560734 0.109745
vt 0.748539 0.109745
vt 0.968302 -0.000000
vt 0.968302 0.105186
vt 0.962606 0.105186
vt 0.962570 -0.000000
vt 0.517138 0.407756
vt 0.520799 0.407756
vt 0.959395 0.526111
vt 0.959395 0.631297
vt 0.946223 0.631297
vt 0.946223 0.526111
vt 0.526531 0.407756
vt 0.547214 0.118354
vt 0.534042 0.118354
vt 0.958910 0.105186
vt 0.958910 -0.000000
vt 0.436105 0.775994
vt 0.438445 0.778855
vt 0.438422 0.817459
vt 0.436105 0.814624
vt 0.445437 0.814614
vt 0.443118 0.817447
vt 0.443118 0.778844
vt 0.445452 0.775994
vt 0.498144 0.814597
vt 0.498144 0.775994
vt 0.438445 0.778854
vt 0.440786 0.775994
vt 0.440764 0.814624
vt 0.438445 0.817457
vt 0.471798 0.814624
vt 0.445452 0.814624
vt 0.445452 0.775994
vt 0.471798 0.775994
vt 0.831435 0.762830
vt 0.831435 0.863908
vt 0.857781 0.863908
vt 0.831435 0.863908
vt 0.831435 0.762830
vt 0.857781 0.762830
vt 0.499441 0.249887
vt 0.499441 0.254446
vt 0.728687 0.512942
vt 0.728687 0.517501
vt 0.499440 0.013168
vt 0.499440 0.008609
vt 0.499441 0.144701
vt 0.499441 0.118354
vt 0.059438 0.263055
vt 0.059438 0.276227
vt 0.499440 0.000000
vt 0.482536 0.263055
vt 0.482536 0.276227
vt 0.499441 0.263055
vt 0.059438 0.526110
vt 0.059438 0.512938
vt 0.728687 0.526110
vt 0.548949 0.775994
vt 0.531583 0.775994
vt 0.531583 0.775994
vt 0.514216 0.775994
vt 0.496981 0.762822
vt 0.496981 0.775994
vt 0.000000 0.439953
vt -0.000000 0.334767
vt 0.017235 0.334767
vt 0.017235 0.439953
vt 0.000000 0.466300
vt 0.000000 0.571486
vt 0.018959 0.439953
vt 0.018959 0.334767
vt 0.867695 0.657643
vt 0.768341 0.657643
vt 0.768341 0.631297
vt 0.867695 0.631297
vt 0.867695 0.762830
vt 0.768341 0.762830
vt 0.261547 0.526110
vt 0.261547 0.534720
vt 0.024836 0.534720
vt 0.024836 0.526111
vt 0.024836 0.789166
vt 0.024836 0.780557
vt 0.261547 0.780557
vt 0.261547 0.789166
vt 0.768341 0.526111
vt 0.867695 0.526111
vt 0.268133 0.644465
vt 0.261547 0.644465
vt 0.261547 0.539279
vt 0.268133 0.539279
vt 0.268133 0.670811
vt 0.261547 0.670811
vt 0.261547 0.775998
vt 0.268133 0.775998
vt 0.024836 0.775998
vt 0.024836 0.670811
vt 0.024836 0.644465
vt 0.024836 0.539279
s 0
usemtl Checker.001
f 378/1/1 377/2/1 10/3/1 11/4/1
f 358/5/2 341/6/2 1/7/2 266/8/2
f 41/9/3 50/10/3 17/11/3 7/12/3
f 341/13/1 342/14/1 3/15/1 1/16/1
f 246/17/4 252/18/4 53/19/4 20/20/4
f 348/21/1 37/22/1 3/15/1 342/14/1
f 265/23/4 7/24/4 6/25/4 266/26/4
f 259/27/3 250/28/3 123/29/3 301/30/3
f 382/31/5 378/32/5 11/33/5 284/34/5
f 380/35/3 379/36/3 12/37/3 9/38/3
f 381/39/2 380/40/2 9/41/2 267/42/2
f 269/43/6 15/44/6 14/45/6 268/46/6
f 117/47/1 116/48/1 14/49/1 15/50/1
f 122/51/3 114/52/3 12/53/3 108/54/3
f 279/55/2 115/56/2 13/57/2 268/58/2
f 278/59/6 269/43/6 16/60/6 106/61/6
f 332/62/5 114/63/5 16/64/5 330/65/5
f 330/66/6 16/60/6 13/67/6 329/68/6
f 331/69/2 115/56/2 9/41/2 327/70/2
f 89/71/4 41/72/4 40/73/4 86/74/4
f 351/75/3 345/76/3 20/77/3 53/78/3
f 384/79/3 28/80/3 27/81/3 383/82/3
f 356/83/2 247/84/2 18/85/2 344/86/2
f 57/87/1 24/88/1 34/89/1 66/90/1
f 344/91/3 18/92/3 20/77/3 345/76/3
f 82/93/4 94/94/4 66/95/4 34/96/4
f 246/17/4 247/97/4 23/98/4 24/99/4
f 388/100/5 295/101/5 28/102/5 384/103/5
f 386/104/1 26/105/1 29/106/1 385/107/1
f 387/108/2 248/109/2 26/110/2 386/111/2
f 250/112/6 249/113/6 31/114/6 32/115/6
f 121/116/3 32/117/3 31/118/3 120/119/3
f 124/120/1 112/121/1 29/122/1 118/123/1
f 260/124/2 249/125/2 30/126/2 119/127/2
f 102/128/4 101/129/4 45/130/4 75/131/4
f 259/132/6 111/133/6 33/134/6 250/112/6
f 68/135/1 44/136/1 43/137/1 67/138/1
f 357/139/5 272/140/5 35/141/5 347/142/5
f 354/143/5 352/144/5 56/145/5 85/146/5
f 347/147/1 35/148/1 37/22/1 348/21/1
f 271/149/4 272/150/4 40/73/4 41/72/4
f 90/151/2 57/152/2 66/153/2 94/154/2
f 287/155/2 286/156/2 44/157/2 68/158/2
f 77/159/3 75/160/3 45/161/3 69/162/3
f 276/163/5 273/164/5 42/165/5 70/166/5
f 275/167/6 274/168/6 47/169/6 48/170/6
f 128/171/1 48/172/1 47/173/1 127/174/1
f 280/175/5 274/176/5 46/177/5 126/178/5
f 136/179/2 104/180/2 49/181/2 125/182/2
f 104/183/6 103/184/6 46/185/6 49/186/6
f 135/187/5 100/188/5 42/165/5 126/178/5
f 265/23/4 271/149/4 41/72/4 7/24/4
f 72/189/3 71/190/3 59/191/3 60/192/3
f 355/193/5 350/194/5 51/195/5 253/113/5
f 350/196/3 351/75/3 53/78/3 51/197/3
f 252/18/4 57/198/4 56/199/4 253/200/4
f 298/201/2 72/202/2 60/203/2 297/204/2
f 78/205/1 73/206/1 61/207/1 76/208/1
f 257/209/5 74/210/5 58/211/5 254/212/5
f 256/213/6 64/214/6 63/215/6 255/216/6
f 132/217/3 131/218/3 63/219/3 64/220/3
f 261/221/5 130/222/5 62/223/5 255/224/5
f 327/225/4 9/226/4 12/227/4 328/228/4
f 374/229/5 276/163/5 70/166/5 361/230/5
f 368/231/3 77/159/3 69/162/3 360/232/3
f 375/233/2 287/155/2 68/158/2 359/234/2
f 359/235/1 68/135/1 67/138/1 365/236/1
f 373/237/5 364/238/5 74/210/5 257/209/5
f 367/239/1 363/240/1 73/206/1 78/205/1
f 376/241/2 362/242/2 72/202/2 298/201/2
f 362/243/3 366/244/3 71/190/3 72/189/3
f 84/245/6 91/246/6 70/247/6 77/248/6
f 370/249/5 92/250/5 74/210/5 364/238/5
f 74/251/1 78/205/1 76/208/1 58/252/1
f 70/253/3 42/254/3 75/160/3 77/159/3
f 100/255/4 102/128/4 75/131/4 42/256/4
f 361/230/5 70/166/5 91/257/5 369/258/5
f 369/258/5 91/257/5 92/250/5 370/249/5
f 78/259/6 74/260/6 92/261/6 83/262/6
f 41/263/2 89/264/2 93/265/2 50/266/2
f 89/264/2 90/151/2 94/154/2 93/265/2
f 378/1/1 4/267/1 2/268/1 377/2/1
f 349/269/5 353/270/5 86/271/5 40/272/5
f 353/270/5 354/143/5 85/146/5 86/271/5
f 2/273/2 264/274/2 381/39/2 377/275/2
f 381/39/2 264/274/2 5/276/2 380/40/2
f 17/277/4 50/278/4 93/279/4 81/280/4
f 81/280/4 93/279/4 94/94/4 82/93/4
f 57/198/4 90/281/4 85/282/4 56/199/4
f 90/281/4 89/71/4 86/74/4 85/282/4
f 58/283/4 76/284/4 99/285/4 95/286/4
f 130/222/5 58/211/5 95/287/5 133/288/5
f 65/289/6 62/290/6 96/291/6 97/292/6
f 129/293/2 65/294/2 97/295/2 134/296/2
f 76/284/4 61/297/4 98/298/4 99/285/4
f 133/288/5 95/287/5 100/188/5 135/187/5
f 97/292/6 96/291/6 103/184/6 104/183/6
f 305/299/7 306/300/7 136/301/7 134/302/7
f 99/285/4 98/298/4 101/129/4 102/128/4
f 83/262/6 92/261/6 91/246/6 84/245/6
f 95/286/4 99/285/4 102/128/4 100/255/4
f 277/303/1 275/304/1 137/305/1 291/306/1
f 275/167/6 277/307/6 105/308/6 49/186/6
f 125/309/3 138/310/3 109/311/3 45/312/3
f 161/313/3 163/314/3 106/315/3 122/51/3
f 256/213/6 65/289/6 110/316/6 258/317/6
f 301/318/5 300/319/5 112/320/5 124/321/5
f 129/322/1 61/323/1 113/324/1 140/325/1
f 302/326/2 140/327/2 113/328/2 299/329/2
f 256/330/3 258/331/3 302/332/3 139/333/3
f 164/334/3 162/335/3 138/310/3 105/336/3
f 117/337/5 107/338/5 284/34/5 11/33/5
f 248/109/2 260/124/2 119/127/2 26/110/2
f 111/339/1 124/120/1 118/123/1 33/340/1
f 28/80/3 121/116/3 120/119/3 27/81/3
f 329/341/2 13/57/2 115/56/2 331/69/2
f 328/342/5 12/343/5 114/63/5 332/62/5
f 107/344/1 290/345/1 289/346/1 284/347/1
f 267/42/2 9/41/2 115/56/2 279/55/2
f 106/315/3 16/348/3 114/52/3 122/51/3
f 11/4/1 10/3/1 116/48/1 117/47/1
f 304/349/8 157/350/8 140/351/8 302/352/8
f 65/353/1 129/322/1 140/325/1 110/354/1
f 49/355/3 105/336/3 138/310/3 125/309/3
f 137/356/2 128/357/2 44/157/2 286/156/2
f 98/298/2 134/296/2 136/179/2 101/129/2
f 96/358/5 133/288/5 135/187/5 103/359/5
f 61/297/2 129/293/2 134/296/2 98/298/2
f 62/223/5 130/222/5 133/288/5 96/358/5
f 254/212/5 58/211/5 130/222/5 261/221/5
f 60/192/3 59/191/3 131/218/3 132/217/3
f 103/359/5 135/187/5 126/178/5 46/177/5
f 101/129/2 136/179/2 125/182/2 45/130/2
f 273/164/5 280/175/5 126/178/5 42/165/5
f 44/136/1 128/171/1 127/174/1 43/137/1
f 311/360/4 307/361/4 144/362/4 148/363/4
f 306/364/4 309/365/4 147/366/4 142/367/4
f 309/365/4 311/360/4 148/363/4 147/366/4
f 319/368/6 152/369/6 153/370/6 315/371/6
f 314/372/6 151/373/6 156/374/6 317/375/6
f 317/375/6 156/374/6 152/369/6 319/368/6
f 146/376/3 141/377/3 150/378/3 149/379/3
f 157/380/5 146/381/5 149/382/5 159/383/5
f 143/379/3 145/378/3 155/384/3 154/385/3
f 306/386/5 142/387/5 151/388/5 314/389/5
f 160/390/1 158/391/1 124/120/1 111/339/1
f 161/392/2 148/393/2 152/394/2 163/395/2
f 148/396/1 144/397/1 153/385/1 152/384/1
f 142/398/1 147/399/1 156/397/1 151/400/1
f 281/401/9 164/402/9 105/403/9 277/404/9
f 308/405/2 143/406/2 154/407/2 316/408/2
f 145/409/2 158/410/2 160/411/2 155/412/2
f 123/413/5 121/414/5 28/102/5 295/101/5
f 149/415/6 155/416/6 160/417/6 159/418/6
f 146/419/4 157/420/4 158/421/4 145/422/4
f 147/412/5 162/423/5 164/424/5 156/425/5
f 293/426/10 161/427/10 122/428/10 290/429/10
f 152/369/6 156/374/6 164/430/6 163/431/6
f 148/363/4 161/432/4 162/433/4 147/366/4
f 291/306/1 137/305/1 286/434/1 288/435/1
f 291/306/1 292/436/1 281/437/1 277/303/1
f 292/436/1 293/438/1 282/439/1 281/437/1
f 301/30/3 303/440/3 262/441/3 259/27/3
f 262/442/11 160/351/11 111/443/11 259/444/11
f 157/445/1 159/446/1 110/354/1 140/325/1
f 303/440/3 304/447/3 263/448/3 262/441/3
f 178/449/12 168/450/12 179/451/12 169/452/12
f 169/453/13 179/454/13 173/455/13 165/456/13
f 166/452/14 180/457/14 167/458/14 182/459/14
f 176/460/15 172/461/15 175/462/15 171/463/15
f 171/464/13 165/456/13 167/465/13 177/466/13
f 181/467/16 180/468/16 166/469/16 174/470/16
f 178/471/16 181/467/16 174/470/16 168/472/16
f 165/456/13 173/455/13 182/473/13 167/465/13
f 175/474/13 169/453/13 165/456/13 171/464/13
f 168/475/17 174/476/17 173/477/17 179/478/17
f 180/479/18 170/480/18 177/481/18 167/482/18
f 172/483/16 176/464/16 181/467/16 178/471/16
f 176/464/16 170/484/16 180/468/16 181/467/16
f 174/485/19 166/486/19 182/487/19 173/488/19
f 172/489/20 178/490/20 169/491/20 175/492/20
f 170/493/21 176/494/21 171/495/21 177/496/21
f 196/497/22 187/498/22 197/499/22 186/500/22
f 187/501/23 183/502/23 191/503/23 197/504/23
f 184/505/24 200/506/24 185/507/24 198/508/24
f 194/509/25 189/510/25 193/511/25 190/512/25
f 189/513/23 195/514/23 185/515/23 183/502/23
f 199/516/26 192/517/26 184/518/26 198/519/26
f 196/520/26 186/521/26 192/517/26 199/516/26
f 183/502/23 185/515/23 200/522/23 191/503/23
f 193/523/23 189/513/23 183/502/23 187/501/23
f 186/524/27 197/525/27 191/526/27 192/527/27
f 198/528/28 185/529/28 195/530/28 188/531/28
f 190/532/26 196/520/26 199/516/26 194/533/26
f 194/533/26 199/516/26 198/519/26 188/534/26
f 192/535/29 191/536/29 200/537/29 184/538/29
f 190/489/30 193/492/30 187/539/30 196/540/30
f 188/460/31 195/541/31 189/542/31 194/543/31
f 201/544/32 207/545/32 212/546/32 206/547/32
f 202/548/6 208/549/6 207/550/6 201/551/6
f 203/552/33 209/553/33 208/554/33 202/555/33
f 204/556/34 210/557/34 209/558/34 203/559/34
f 205/560/4 211/561/4 210/562/4 204/563/4
f 206/564/35 212/565/35 211/566/35 205/567/35
f 213/568/36 219/569/36 224/570/36 218/571/36
f 214/572/6 220/573/6 219/574/6 213/575/6
f 215/576/37 221/577/37 220/578/37 214/579/37
f 216/580/38 222/581/38 221/582/38 215/583/38
f 217/584/4 223/585/4 222/586/4 216/587/4
f 218/588/39 224/589/39 223/590/39 217/591/39
f 225/592/3 226/593/3 228/594/3 227/595/3
f 233/596/2 236/597/2 232/598/2 231/599/2
f 231/600/1 232/601/1 230/602/1 229/603/1
f 237/604/5 240/605/5 226/606/5 225/607/5
f 236/608/3 233/609/3 241/610/3 244/611/3
f 234/612/1 235/613/1 243/614/1 242/615/1
f 242/616/2 243/617/2 244/618/2 241/619/2
f 229/620/5 230/621/5 239/622/5 238/623/5
f 238/623/5 239/622/5 240/605/5 237/604/5
f 227/624/2 228/625/2 235/626/2 234/627/2
f 159/628/9 263/629/9 258/630/9 110/631/9
f 304/447/3 302/332/3 258/331/3 263/448/3
f 159/418/6 160/417/6 262/632/6 263/633/6
f 59/634/5 254/212/5 261/221/5 131/635/5
f 27/636/2 120/637/2 260/124/2 248/109/2
f 132/638/2 139/639/2 297/204/2 60/203/2
f 366/640/5 373/237/5 257/209/5 71/641/5
f 131/635/5 261/221/5 255/224/5 63/642/5
f 65/289/6 256/213/6 255/216/6 62/290/6
f 71/641/5 257/209/5 254/212/5 59/634/5
f 53/19/4 252/18/4 253/200/4 51/643/4
f 352/144/5 355/193/5 253/113/5 56/145/5
f 301/30/3 123/29/3 295/644/3 300/645/3
f 120/637/2 31/16/2 249/125/2 260/124/2
f 33/134/6 30/646/6 249/113/6 250/112/6
f 383/647/2 27/636/2 248/109/2 387/108/2
f 20/20/4 18/648/4 247/97/4 246/17/4
f 346/649/2 23/650/2 247/84/2 356/83/2
f 24/99/4 57/198/4 252/18/4 246/17/4
f 163/651/11 282/652/11 278/653/11 106/654/11
f 293/438/1 290/345/1 278/655/1 282/439/1
f 163/431/6 164/430/6 281/656/6 282/657/6
f 43/658/5 127/659/5 280/175/5 273/164/5
f 10/660/2 267/42/2 279/55/2 116/661/2
f 275/662/2 48/663/2 128/357/2 137/356/2
f 365/664/5 67/665/5 276/163/5 374/229/5
f 3/666/4 37/667/4 271/149/4 265/23/4
f 127/659/5 47/668/5 274/176/5 280/175/5
f 49/186/6 46/185/6 274/168/6 275/167/6
f 67/665/5 43/658/5 273/164/5 276/163/5
f 37/667/4 35/669/4 272/150/4 271/149/4
f 349/269/5 40/272/5 272/140/5 357/139/5
f 15/670/5 269/671/5 107/338/5 117/337/5
f 116/661/2 279/55/2 268/58/2 14/672/2
f 16/60/6 269/43/6 268/46/6 13/67/6
f 377/275/2 381/39/2 267/42/2 10/660/2
f 3/666/4 265/23/4 266/26/4 1/673/4
f 343/674/2 358/5/2 266/8/2 6/675/2
f 162/676/8 292/677/8 291/678/8 138/679/8
f 269/680/1 278/655/1 290/345/1 107/344/1
f 161/432/4 293/681/4 292/682/4 162/433/4
f 109/683/2 138/684/2 291/685/2 288/686/2
f 108/687/5 289/688/5 290/689/5 122/690/5
f 45/691/4 109/692/4 288/693/4 286/694/4
f 360/695/2 69/696/2 287/155/2 375/233/2
f 69/696/2 45/697/2 286/156/2 287/155/2
f 108/698/4 12/699/4 284/700/4 289/701/4
f 379/702/5 382/31/5 284/34/5 12/703/5
f 379/36/3 380/35/3 5/704/3 8/705/3
f 157/420/4 304/706/4 303/707/4 158/421/4
f 139/333/3 302/332/3 299/435/3 297/708/3
f 158/709/10 303/710/10 301/711/10 124/712/10
f 61/713/4 297/714/4 299/715/4 113/716/4
f 64/663/2 256/717/2 139/639/2 132/638/2
f 250/718/5 32/719/5 121/414/5 123/413/5
f 363/720/2 376/241/2 298/201/2 73/721/2
f 73/721/2 298/201/2 297/204/2 61/722/2
f 385/723/5 29/724/5 295/101/5 388/100/5
f 80/725/2 285/726/2 379/727/2 8/728/2
f 112/729/4 300/730/4 295/731/4 29/732/4
f 144/733/2 307/734/2 315/735/2 153/736/2
f 330/737/40 323/377/40 316/738/40 315/739/40
f 141/740/5 305/741/5 313/742/5 150/743/5
f 313/744/3 305/745/3 134/746/3 97/747/3
f 149/415/6 318/748/6 320/749/6 155/416/6
f 318/748/6 317/375/6 319/368/6 320/749/6
f 150/750/6 313/751/6 318/748/6 149/415/6
f 313/751/6 314/372/6 317/375/6 318/748/6
f 155/416/6 320/749/6 316/752/6 154/753/6
f 320/749/6 319/368/6 315/371/6 316/752/6
f 146/419/4 145/422/4 312/754/4 310/755/4
f 310/755/4 312/754/4 311/360/4 309/365/4
f 141/756/4 146/419/4 310/755/4 305/757/4
f 305/757/4 310/755/4 309/365/4 306/364/4
f 145/422/4 143/373/4 308/758/4 312/754/4
f 312/754/4 308/758/4 307/361/4 311/360/4
f 29/759/5 324/760/5 326/761/5 118/762/5
f 30/126/2 322/763/2 325/764/2 119/127/2
f 26/765/4 321/766/4 324/767/4 29/768/4
f 119/127/2 325/764/2 321/769/2 26/110/2
f 33/134/6 323/770/6 322/771/6 30/646/6
f 118/762/5 326/761/5 323/772/5 33/773/5
f 324/760/5 328/342/5 332/62/5 326/761/5
f 322/763/2 329/341/2 331/69/2 325/764/2
f 321/766/4 327/225/4 328/228/4 324/767/4
f 325/764/2 331/69/2 327/70/2 321/769/2
f 323/770/6 330/66/6 329/68/6 322/771/6
f 332/774/1 330/775/1 315/776/1 307/777/1
f 306/778/1 314/779/1 104/780/1 136/781/1
f 314/739/41 313/782/41 97/783/41 104/737/41
f 323/784/3 326/785/3 308/786/3 316/787/3
f 326/788/42 332/789/42 307/790/42 308/791/42
f 334/607/2 336/606/2 335/792/2 333/793/2
f 338/794/2 337/795/2 339/796/2 340/797/2
f 5/276/2 264/274/2 358/5/2 343/674/2
f 39/798/5 349/269/5 357/139/5 270/799/5
f 22/800/2 346/649/2 356/83/2 245/801/2
f 55/802/5 251/803/5 355/193/5 352/144/5
f 87/804/5 88/805/5 354/143/5 353/270/5
f 39/798/5 87/804/5 353/270/5 349/269/5
f 52/806/3 54/807/3 351/75/3 350/196/3
f 251/803/5 52/808/5 350/194/5 355/193/5
f 36/809/1 347/147/1 348/21/1 38/810/1
f 88/805/5 55/802/5 352/144/5 354/143/5
f 270/799/5 357/139/5 347/142/5 36/811/5
f 19/812/3 344/91/3 345/76/3 21/813/3
f 245/801/2 356/83/2 344/86/2 19/814/2
f 54/807/3 21/813/3 345/76/3 351/75/3
f 38/810/1 348/21/1 342/14/1 4/267/1
f 2/268/1 4/267/1 342/14/1 341/13/1
f 264/274/2 2/273/2 341/6/2 358/5/2
f 7/12/3 17/11/3 343/815/3 6/816/3
f 24/88/1 23/817/1 346/818/1 34/89/1
f 25/819/1 34/89/1 346/818/1 22/820/1
f 82/821/2 34/822/2 25/823/2 79/824/2
f 79/824/2 80/725/2 81/825/2 82/821/2
f 80/725/2 8/728/2 17/826/2 81/825/2
f 8/705/3 5/704/3 343/815/3 17/11/3
f 285/726/2 80/725/2 79/824/2 294/827/2
f 79/824/2 25/823/2 385/828/2 294/827/2
f 385/107/1 25/819/1 22/820/1 386/104/1
f 387/108/2 386/111/2 22/800/2 245/801/2
f 84/829/2 371/830/2 372/831/2 83/832/2
f 77/833/2 368/834/2 371/830/2 84/829/2
f 387/108/2 245/801/2 19/814/2 383/647/2
f 384/79/3 383/82/3 19/812/3 21/813/3
f 21/813/3 54/807/3 362/243/3 384/79/3
f 362/243/3 54/807/3 52/806/3 366/244/3
f 362/835/6 376/836/6 388/837/6 384/838/6
f 373/237/5 366/640/5 52/808/5 251/803/5
f 373/237/5 251/803/5 55/802/5 364/238/5
f 370/249/5 364/238/5 55/802/5 88/805/5
f 378/839/6 382/840/6 375/841/6 359/842/6
f 370/249/5 88/805/5 87/804/5 369/258/5
f 369/258/5 87/804/5 39/798/5 361/230/5
f 83/832/2 372/831/2 367/843/2 78/844/2
f 374/229/5 361/230/5 39/798/5 270/799/5
f 374/229/5 270/799/5 36/811/5 365/664/5
f 359/235/1 365/236/1 36/809/1 38/810/1
f 4/267/1 378/1/1 359/235/1 38/810/1
f 372/845/6 296/846/6 363/847/6 367/848/6
f 371/849/6 283/850/6 296/846/6 372/845/6
f 360/851/6 283/850/6 371/849/6 368/852/6
f 379/853/6 360/851/6 375/841/6 382/840/6
f 285/854/6 283/850/6 360/851/6 379/853/6
f 294/855/6 296/846/6 283/850/6 285/854/6
f 385/856/6 363/847/6 296/846/6 294/855/6
f 388/837/6 376/836/6 363/847/6 385/856/6
