# Blender 5.2.1 LTS
# www.blender.org
mtllib PanopticonRing.mtl
o PanopticonRing
v -31.129898 4.907738 -20.801901
v -20.800337 4.907738 -31.131464
v -36.720211 4.907738 -7.302754
v -14.327526 4.907738 -34.591248
v -34.589676 4.907738 -14.329102
v -26.473803 4.907738 -26.475370
v -7.320545 4.907738 -36.718933
v -37.194130 4.907738 2.488019
v -37.194061 4.907738 -2.489894
v 31.129906 4.907738 -20.801901
v 20.800343 4.907738 -31.131464
v 36.720219 4.907738 -7.302754
v 14.327533 4.907738 -34.591248
v 34.589680 4.907738 -14.329102
v 26.473810 4.907738 -26.475370
v 7.320550 4.907738 -36.718933
v 37.194138 4.907738 2.488019
v 37.194069 4.907738 -2.489894
v -30.221794 4.907737 -20.195078
v -20.193562 4.907737 -30.223314
v -35.649029 4.907737 -7.089722
v -13.909573 4.907737 -33.582176
v -33.580647 4.907737 -13.911098
v -25.701525 4.907737 -25.703045
v -7.106997 4.907737 -35.647781
v -36.109123 4.907735 2.488019
v -36.109058 4.907737 -2.417260
v 30.221794 4.907737 -20.195078
v 20.193563 4.907737 -30.223314
v 35.649029 4.907737 -7.089722
v 13.909573 4.907737 -33.582176
v 33.580643 4.907737 -13.911098
v 25.701523 4.907737 -25.703045
v 7.106994 4.907737 -35.647781
v 36.109119 4.907735 2.488019
v 36.109055 4.907737 -2.417260
v -26.473801 1.358237 -26.475367
v -31.129894 1.358237 -20.801897
v -34.589672 1.358237 -14.329098
v -36.720207 1.358237 -7.302752
v -7.320544 1.358237 -36.718925
v -14.327524 1.358237 -34.591248
v -20.800335 1.358237 -31.131460
v -37.194057 1.358237 -2.489893
v -37.194126 1.358236 2.488019
v 26.473806 1.358237 -26.475367
v 31.129902 1.358237 -20.801897
v 34.589680 1.358237 -14.329098
v 36.720215 1.358237 -7.302752
v 7.320549 1.358237 -36.718925
v 14.327531 1.358237 -34.591248
v 20.800343 1.358237 -31.131460
v 37.194065 1.358237 -2.489893
v 37.194134 1.358236 2.488019
v -25.701523 1.358236 -25.703039
v -30.221790 1.358236 -20.195074
v -33.580643 1.358236 -13.911095
v -35.649025 1.358236 -7.089720
v -7.106996 1.358236 -35.647781
v -13.909571 1.358236 -33.582169
v -20.193560 1.358236 -30.223307
v -36.109055 1.358236 -2.417258
v -36.109123 1.358233 2.488019
v 25.701521 1.358236 -25.703039
v 30.221792 1.358236 -20.195074
v 33.580643 1.358236 -13.911095
v 35.649025 1.358236 -7.089720
v 7.106993 1.358236 -35.647781
v 13.909571 1.358236 -33.582169
v 20.193562 1.358236 -30.223307
v 36.109051 1.358236 -2.417258
v 36.109119 1.358233 2.488019
v -25.701519 4.655216 -25.703045
v -30.221788 4.655216 -20.195078
v -33.580639 4.655216 -13.911098
v -35.649025 4.655216 -7.089723
v -7.106996 4.655216 -35.647781
v -13.909570 4.655216 -33.582176
v -20.193558 4.655216 -30.223314
v -36.109051 4.655216 -2.417263
v -36.109119 4.655215 2.488019
v 25.701517 4.655216 -25.703045
v 30.221788 4.655216 -20.195078
v 33.580639 4.655216 -13.911098
v 35.649021 4.655216 -7.089723
v 7.106992 4.655216 -35.647781
v 13.909570 4.655216 -33.582176
v 20.193560 4.655216 -30.223314
v 36.109051 4.655216 -2.417263
v 36.109116 4.655215 2.488019
v -25.701517 1.610756 -25.703039
v -30.221785 1.610756 -20.195074
v -33.580639 1.610756 -13.911095
v -35.649021 1.610756 -7.089721
v -7.106995 1.610756 -35.647781
v -13.909568 1.610756 -33.582169
v -20.193558 1.610756 -30.223307
v -36.109047 1.610756 -2.417261
v -36.109116 1.610755 2.488019
v 25.701515 1.610756 -25.703039
v 30.221786 1.610756 -20.195074
v 33.580635 1.610756 -13.911095
v 35.649017 1.610756 -7.089721
v 7.106991 1.610756 -35.647781
v 13.909568 1.610756 -33.582169
v 20.193558 1.610756 -30.223307
v 36.109047 1.610756 -2.417261
v 36.109112 1.610755 2.488019
v -26.002581 4.655215 -26.004128
v -30.575798 4.655215 -20.431639
v -33.973999 4.655215 -14.074051
v -36.066608 4.655215 -7.172771
v -7.190244 4.655215 -36.065353
v -14.072503 4.655215 -33.975548
v -20.430101 4.655215 -30.577345
v -36.532024 4.655215 -2.445578
v -36.532093 4.655213 2.488019
v 26.002584 4.655215 -26.004128
v 30.575804 4.655215 -20.431639
v 33.973999 4.655215 -14.074051
v 36.066612 4.655215 -7.172771
v 7.190244 4.655215 -36.065353
v 14.072507 4.655215 -33.975548
v 20.430105 4.655215 -30.577345
v 36.532024 4.655215 -2.445578
v 36.532097 4.655213 2.488019
v -26.002577 1.610755 -26.004122
v -30.575794 1.610755 -20.431637
v -33.973995 1.610755 -14.074049
v -36.066608 1.610755 -7.172769
v -7.190243 1.610755 -36.065353
v -14.072501 1.610755 -33.975548
v -20.430099 1.610755 -30.577341
v -36.532024 1.610755 -2.445577
v -36.532093 1.610754 2.488019
v 26.002581 1.610755 -26.004122
v 30.575802 1.610755 -20.431637
v 33.973995 1.610755 -14.074049
v 36.066608 1.610755 -7.172769
v 7.190243 1.610755 -36.065353
v 14.072505 1.610755 -33.975548
v 20.430103 1.610755 -30.577341
v 36.532021 1.610755 -2.445577
v 36.532093 1.610754 2.488019
v 26.087666 4.907738 -26.089211
v 20.496952 4.907738 -30.677389
v -34.085159 4.907738 -14.120100
v -30.675846 4.907738 -20.498489
v 34.085163 4.907738 -14.120100
v 30.675850 4.907738 -20.498489
v -36.651558 4.907738 -2.453577
v -36.184620 4.907738 -7.196238
v 36.651562 4.907738 -2.453577
v 36.184624 4.907738 -7.196238
v -36.651627 4.907736 2.488019
v -26.087664 4.907738 -26.089211
v 7.213771 4.907738 -36.183357
v -7.213770 4.907738 -36.183357
v 36.651630 4.907736 2.488019
v -14.118548 4.907738 -34.086716
v 14.118552 4.907738 -34.086716
v -20.496948 4.907738 -30.677389
v 26.087666 1.358236 -26.089205
v 20.496952 1.358236 -30.677382
v -34.085159 1.358236 -14.120096
v -30.675842 1.358236 -20.498487
v 34.085159 1.358236 -14.120096
v 30.675846 1.358236 -20.498487
v -36.651558 1.358236 -2.453576
v -36.184620 1.358236 -7.196236
v 36.651558 1.358236 -2.453576
v 36.184620 1.358236 -7.196236
v -36.651623 1.358235 2.488019
v -26.087662 1.358236 -26.089205
v 7.213771 1.358236 -36.183357
v -7.213770 1.358236 -36.183357
v 36.651623 1.358235 2.488019
v -14.118548 1.358236 -34.086708
v 14.118551 1.358236 -34.086708
v -20.496948 1.358236 -30.677382
v 37.194069 1.610756 -2.489893
v 36.720219 1.610756 -7.302752
v -36.720211 1.610756 -7.302752
v 37.194134 1.610755 2.488019
v -37.194126 1.610755 2.488019
v -37.194061 1.610756 -2.489893
v 34.589680 1.610756 -14.329100
v 36.720219 4.655215 -7.302752
v -36.720211 4.655215 -7.302752
v -37.194061 4.655215 -2.489894
v 34.589680 4.655215 -14.329102
v 37.194069 4.655215 -2.489894
v 37.194134 4.655213 2.488019
v -37.194126 4.655213 2.488019
v 0.000003 4.907738 -36.718933
v -0.000001 4.907737 -35.647781
v 0.000003 1.358237 -36.718925
v -0.000001 1.358236 -35.647781
v -0.000001 4.655216 -35.647781
v -0.000001 1.610756 -35.647781
v 0.000000 4.655215 -36.065353
v 0.000001 1.610755 -36.065353
v 0.000001 4.907738 -36.183357
v 0.000001 1.358236 -36.183357
vn -0.0000 1.0000 -0.0000
vn -0.0000 -1.0000 -0.0000
vn -0.6344 -0.0000 0.7730
vn 0.9952 -0.0000 -0.0980
vn -0.0000 -0.0000 1.0000
vn 0.7730 -0.0000 0.6344
vn -0.8819 -0.0000 0.4714
vn 1.0000 -0.0000 -0.0000
vn -0.4714 -0.0000 0.8819
vn -0.2906 -0.0000 0.9569
vn -0.9570 -0.0000 0.2902
vn -0.9952 -0.0000 -0.0980
vn -0.7730 -0.0000 0.6344
vn -1.0000 -0.0000 -0.0000
vn 0.9952 -0.0000 0.0980
vn -0.9952 -0.0000 0.0980
vn 0.9570 -0.0000 0.2902
vn 0.2906 -0.0000 0.9569
vn 0.4714 -0.0000 0.8819
vn 0.6344 -0.0000 0.7730
vn 0.8819 -0.0000 0.4714
vt 0.960565 0.121711
vt 0.951416 0.123755
vt 0.913170 0.007579
vt 0.921744 0.003790
vt 0.365626 0.121227
vt 0.382608 0.244206
vt 0.373241 0.244572
vt 0.356511 0.123413
vt 0.191796 0.121227
vt 0.200911 0.123413
vt 0.184181 0.244573
vt 0.174814 0.244206
vt 0.375253 0.368182
vt 0.354578 0.447329
vt 0.345626 0.444689
vt 0.365995 0.366714
vt 0.182169 0.368183
vt 0.191427 0.366714
vt 0.211796 0.444690
vt 0.202844 0.447330
vt 0.325201 0.526905
vt 0.316466 0.523679
vt 0.324979 0.003923
vt 0.316465 0.007846
vt 0.921744 0.483947
vt 0.913170 0.480630
vt 0.957193 0.366855
vt 0.966428 0.368464
vt 0.232443 0.003923
vt 0.240957 0.007846
vt 0.232221 0.526905
vt 0.240957 0.523680
vt 0.894593 0.118801
vt 0.903799 0.242325
vt 0.894427 0.242105
vt 0.885358 0.120409
vt 0.966263 0.245160
vt 0.975634 0.244939
vt 0.888729 0.365554
vt 0.879581 0.363510
vt 0.849909 0.483475
vt 0.841335 0.479685
vt 0.865776 0.608975
vt 0.904596 0.491054
vt 0.913170 0.494844
vt 0.874924 0.611019
vt 0.441135 0.408903
vt 0.432020 0.406716
vt 0.448750 0.285557
vt 0.458116 0.285923
vt 0.290118 0.121227
vt 0.307099 0.244206
vt 0.297732 0.244572
vt 0.281002 0.123413
vt 0.450762 0.161947
vt 0.441504 0.163416
vt 0.421135 0.085440
vt 0.430086 0.082800
vt 0.299745 0.368183
vt 0.279069 0.447330
vt 0.270117 0.444689
vt 0.290487 0.366714
vt 0.400710 0.003225
vt 0.391974 0.006450
vt 0.400488 0.526207
vt 0.391974 0.522284
vt 0.904597 0.971212
vt 0.859912 0.855728
vt 0.869147 0.854120
vt 0.913170 0.967894
vt 0.249470 0.003923
vt 0.240957 0.007846
vt 0.249693 0.526905
vt 0.240957 0.523679
vt 0.755393 0.613171
vt 0.764629 0.614779
vt 0.755559 0.736475
vt 0.746188 0.736695
vt 0.850707 0.732204
vt 0.860078 0.732424
vt 0.770406 0.857879
vt 0.761257 0.859923
vt 0.808651 0.974055
vt 0.800078 0.977844
vt 0.817321 0.494369
vt 0.817322 0.616679
vt 0.812987 0.616679
vt 0.812987 0.494370
vt 0.230711 0.530130
vt 0.230711 0.613144
vt 0.226376 0.613144
vt 0.226376 0.530130
vt 0.789076 0.370946
vt 0.789075 0.494369
vt 0.736816 0.494369
vt 0.736816 0.370946
vt 0.476165 0.122309
vt 0.476168 -0.000000
vt 0.480502 0.000000
vt 0.480500 0.122309
vt 0.467486 0.409458
vt 0.467484 0.287149
vt 0.471819 0.287149
vt 0.471820 0.409458
vt 0.230711 0.698592
vt 0.226376 0.698592
vt 0.985005 0.244719
vt 0.969713 0.119666
vt 0.817322 0.738988
vt 0.812987 0.738988
vt 0.913170 0.242546
vt 0.897878 0.367598
vt 0.821657 0.860705
vt 0.821656 0.983014
vt 0.817322 0.983014
vt 0.817322 0.860705
vt 0.817322 0.861021
vt 0.812987 0.861021
vt 0.821657 0.738397
vt 0.817322 0.738397
vt 0.471823 0.366974
vt 0.471823 0.244618
vt 0.476158 0.244618
vt 0.476157 0.366974
vt 0.222042 0.613144
vt 0.222042 0.530130
vt 0.226376 0.530130
vt 0.226376 0.613144
vt 0.821657 0.616363
vt 0.817322 0.616363
vt 0.471825 0.122309
vt 0.471826 -0.000000
vt 0.476161 -0.000000
vt 0.476159 0.122309
vt 0.222042 0.698592
vt 0.226376 0.698592
vt 0.858483 0.487265
vt 0.165448 0.243840
vt 0.172911 0.369652
vt 0.467484 0.164793
vt 0.471818 0.164793
vt 0.746158 0.611562
vt 0.791504 0.494370
vt 0.800078 0.497687
vt 0.000000 0.102826
vt 0.000000 0.018626
vt 0.004335 0.018626
vt 0.004335 0.102826
vt 0.467488 0.531767
vt 0.471822 0.531767
vt 0.000000 0.183418
vt 0.004335 0.183419
vt 0.476161 0.531767
vt 0.476161 0.447566
vt 0.480496 0.447566
vt 0.480495 0.531767
vt 0.903828 0.117193
vt 0.601356 0.239786
vt 0.584626 0.118626
vt 0.591733 0.116921
vt 0.608659 0.239500
vt 0.520548 0.118626
vt 0.480502 0.003058
vt 0.487140 -0.000000
vt 0.527655 0.116922
vt 0.729457 0.524362
vt 0.691211 0.640537
vt 0.684078 0.638943
vt 0.722772 0.521407
vt 0.701898 0.081505
vt 0.672738 0.002515
vt 0.679549 -0.000000
vt 0.708878 0.079446
vt 0.676365 0.761942
vt 0.669058 0.761770
vt 0.637820 0.081505
vt 0.608659 0.002515
vt 0.615471 -0.000000
vt 0.644799 0.079446
vt 0.722268 0.159480
vt 0.729486 0.158335
vt 0.685434 0.883637
vt 0.678234 0.884891
vt 0.540901 0.997413
vt 0.584924 0.883638
vt 0.592125 0.884892
vt 0.547586 0.999999
vt 0.712783 0.402781
vt 0.729513 0.281622
vt 0.736816 0.281907
vt 0.719890 0.404486
vt 0.594111 0.361927
vt 0.601329 0.363072
vt 0.658189 0.159480
vt 0.665408 0.158335
vt 0.502655 0.880870
vt 0.540901 0.997045
vt 0.534216 1.000000
vt 0.495522 0.882463
vt 0.544581 0.003059
vt 0.551219 -0.000000
vt 0.648705 0.402781
vt 0.665435 0.281622
vt 0.672738 0.281907
vt 0.655812 0.404486
vt 0.487809 0.759465
vt 0.480502 0.759636
vt 0.467483 0.084201
vt 0.471818 0.084201
vt 0.476162 0.366974
vt 0.476163 0.244618
vt 0.480498 0.244618
vt 0.480497 0.366974
vt 0.821656 0.494369
vt 0.817322 0.494369
vt 0.000002 0.550392
vt 0.000001 0.428083
vt 0.004336 0.428083
vt 0.004337 0.550392
vt 0.812987 0.738988
vt 0.812987 0.861022
vt 0.808652 0.861022
vt 0.808652 0.738988
vt 0.471822 0.447566
vt 0.476157 0.447566
vt 0.467483 0.000000
vt 0.471818 0.000000
vt 0.000000 0.305774
vt 0.004335 0.305774
vt 0.812987 0.616679
vt 0.808652 0.616679
vt 0.825992 0.494369
vt 0.825992 0.616363
vt 0.821657 0.616363
vt 0.821657 0.494369
vt 0.825992 0.738397
vt 0.821658 0.738396
vt 0.812986 0.494369
vt 0.808652 0.494370
vt 0.471822 0.531767
vt 0.476157 0.531767
vt 0.825992 0.860705
vt 0.821657 0.860705
vt 0.825992 0.983014
vt 0.821657 0.983014
vt 0.789076 0.247484
vt 0.736816 0.247483
vt 0.789076 0.123742
vt 0.736816 0.123742
vt 0.789076 0.000000
vt 0.736816 0.000000
vt 0.060929 0.247483
vt 0.060929 0.123742
vt 0.113188 0.123742
vt 0.113188 0.247483
vt 0.113188 0.537496
vt 0.113188 0.413754
vt 0.165448 0.413754
vt 0.165448 0.537496
vt 0.060929 0.452809
vt 0.060929 0.371273
vt 0.113188 0.371273
vt 0.113188 0.452809
vt 0.113188 0.290012
vt 0.113188 0.166223
vt 0.165447 0.166223
vt 0.165447 0.290012
vt 0.789076 0.494369
vt 0.789076 0.370946
vt 0.841335 0.370946
vt 0.841335 0.494369
vt 0.789076 0.247484
vt 0.841335 0.247484
vt 0.060929 0.537496
vt 0.113188 0.537496
vt 0.789076 0.123742
vt 0.841335 0.123742
vt 0.789076 0.000000
vt 0.841335 0.000000
vt 0.113188 0.084687
vt 0.165448 0.084687
vt 0.113188 -0.000000
vt 0.165448 0.000000
vt 0.060929 0.000000
vt 0.113188 0.000000
vt 0.530032 0.361927
vt 0.537278 0.239786
vt 0.544581 0.239500
vt 0.537251 0.363072
vt 0.573741 0.439903
vt 0.580721 0.441961
vt 0.661751 0.759463
vt 0.652682 0.637768
vt 0.659883 0.636514
vt 0.669058 0.759635
vt 0.544581 0.518893
vt 0.551392 0.521408
vt 0.646905 0.880868
vt 0.654038 0.882462
vt 0.608659 0.518349
vt 0.615297 0.521407
vt 0.608659 0.997043
vt 0.615344 0.999998
vt 0.672738 0.518348
vt 0.679376 0.521407
vt 0.593993 0.761943
vt 0.601300 0.761771
vt 0.509663 0.439903
vt 0.516642 0.441961
vt 0.579147 0.640538
vt 0.586280 0.638944
vt 0.540901 0.523995
vt 0.496878 0.637769
vt 0.489678 0.636515
vt 0.534216 0.521408
vt 0.975664 0.370072
vt 0.540901 0.524363
vt 0.547586 0.521408
vt 0.480502 0.518893
vt 0.487314 0.521408
vt 0.223485 0.530130
vt 0.193892 0.449970
vt 0.391974 0.243840
vt 0.384511 0.369651
vt 0.223929 -0.000000
vt 0.182680 0.119040
vt 0.930318 0.487264
vt 0.333493 0.000000
vt 0.374742 0.119040
vt 0.333937 0.530130
vt 0.363530 0.449970
vt 0.930318 -0.000000
vt 0.752109 0.861968
vt 0.791504 0.981634
vt 0.841335 0.731984
vt 0.856627 0.606931
vt 0.736816 0.736915
vt 0.850677 0.857336
vt 0.316466 0.243840
vt 0.309002 0.369651
vt 0.258429 0.530130
vt 0.288021 0.449970
vt 0.467483 0.286290
vt 0.460020 0.160478
vt 0.257984 0.000000
vt 0.299233 0.119040
vt 0.896023 0.974529
vt 0.409002 0.530130
vt 0.450251 0.411089
vt 0.409446 0.000000
vt 0.439038 0.080160
vt 0.896022 0.487265
vt 0.000000 0.009313
vt 0.004335 0.011365
vt 0.060929 0.018624
vt 0.056594 0.018625
vt 0.056594 0.011364
vt 0.060929 0.009312
vt 0.169782 0.698592
vt 0.169782 0.613144
vt 0.169782 0.530130
vt 0.282970 0.613144
vt 0.282970 0.698592
vt 0.608659 0.523994
vt 0.615344 0.521407
vt 0.287305 0.530130
vt 0.287305 0.613144
vt 0.282970 0.530130
vt 0.849909 0.003318
vt 0.858483 0.000000
vt 0.287305 0.698592
vt 0.165448 0.613144
vt 0.165448 0.530130
vt 0.165448 0.698592
vt 0.000000 0.000001
vt 0.004335 0.000001
vt 0.060928 -0.000000
vt 0.056594 0.000000
vt 0.287305 0.591059
vt 0.287305 0.586724
vt 0.294565 0.586724
vt 0.296617 0.591059
vt 0.287305 0.530130
vt 0.296617 0.530130
vt 0.294565 0.534465
vt 0.287305 0.534465
vt 0.305929 0.530130
vt 0.305929 0.534465
vt 0.305930 0.591059
vt 0.305930 0.586724
vt 0.817321 0.983016
vt 0.812987 0.983016
vt 0.812986 0.983016
vt 0.808652 0.983016
vt 0.729457 0.997411
vt 0.722772 0.999998
vt 0.808651 0.501005
vt 0.841335 0.006635
s 0
usemtl Checker
f 146/1/1 29/2/1 33/3/1 145/4/1
f 148/5/1 147/6/1 23/7/1 19/8/1
f 150/9/1 28/10/1 32/11/1 149/12/1
f 152/13/1 151/14/1 27/15/1 21/16/1
f 154/17/1 30/18/1 36/19/1 153/20/1
f 155/21/1 26/22/1 27/15/1 151/14/1
f 156/23/1 148/5/1 19/8/1 24/24/1
f 203/25/1 196/26/1 34/27/1 157/28/1
f 145/29/1 33/30/1 28/10/1 150/9/1
f 147/6/1 152/13/1 21/16/1 23/7/1
f 159/31/1 153/20/1 36/19/1 35/32/1
f 149/12/1 32/11/1 30/18/1 154/17/1
f 158/33/1 160/34/1 22/35/1 25/36/1
f 157/28/1 34/27/1 31/37/1 161/38/1
f 160/34/1 162/39/1 20/40/1 22/35/1
f 161/38/1 31/37/1 29/2/1 146/1/1
f 162/39/1 156/41/1 24/42/1 20/40/1
f 164/43/2 163/44/2 64/45/2 70/46/2
f 166/47/2 56/48/2 57/49/2 165/50/2
f 168/51/2 167/52/2 66/53/2 65/54/2
f 170/55/2 58/56/2 62/57/2 169/58/2
f 172/59/2 171/60/2 71/61/2 67/62/2
f 173/63/2 169/58/2 62/57/2 63/64/2
f 174/65/2 55/66/2 56/48/2 166/47/2
f 204/67/2 175/68/2 68/69/2 198/70/2
f 163/71/2 168/51/2 65/54/2 64/72/2
f 165/50/2 57/49/2 58/56/2 170/55/2
f 177/73/2 72/74/2 71/61/2 171/60/2
f 167/52/2 172/59/2 67/62/2 66/53/2
f 176/75/2 59/76/2 60/77/2 178/78/2
f 175/68/2 179/79/2 69/80/2 68/69/2
f 178/78/2 60/77/2 61/81/2 180/82/2
f 179/79/2 164/43/2 70/46/2 69/80/2
f 180/82/2 61/81/2 55/83/2 174/84/2
f 33/85/3 29/86/3 88/87/3 82/88/3
f 182/89/4 181/90/4 53/91/4 49/92/4
f 122/93/5 201/94/5 202/95/5 140/96/5
f 56/97/6 55/98/6 91/99/6 92/100/6
f 65/101/7 66/102/7 102/103/7 101/104/7
f 181/90/8 184/105/8 54/106/8 53/91/8
f 13/107/1 161/38/1 146/1/1 11/108/1
f 29/86/9 31/109/9 87/110/9 88/87/9
f 4/111/1 2/112/1 162/39/1 160/34/1
f 70/113/3 64/114/3 100/115/3 106/116/3
f 31/109/10 34/117/10 86/118/10 87/110/10
f 69/119/9 70/113/9 106/116/9 105/120/9
f 30/121/11 32/122/11 84/123/11 85/124/11
f 186/125/12 183/126/12 40/127/12 44/128/12
f 68/129/10 69/119/10 105/120/10 104/130/10
f 28/131/13 33/132/13 82/133/13 83/134/13
f 185/135/14 186/125/14 44/128/14 45/136/14
f 2/112/1 6/137/1 156/41/1 162/39/1
f 14/138/1 149/12/1 154/17/1 12/139/1
f 66/102/11 67/140/11 103/141/11 102/103/11
f 41/142/2 197/143/2 204/144/2 176/75/2
f 27/145/8 26/146/8 81/147/8 80/148/8
f 64/149/13 65/101/13 101/104/13 100/150/13
f 21/151/15 27/145/15 80/148/15 76/152/15
f 63/153/8 62/154/8 98/155/8 99/156/8
f 7/157/1 4/111/1 160/34/1 158/33/1
f 93/158/1 92/159/1 128/160/1 129/161/1
f 83/162/2 82/163/2 118/164/2 119/165/2
f 91/166/1 97/167/1 133/168/1 127/169/1
f 80/170/2 81/171/2 117/172/2 116/173/2
f 97/167/1 96/174/1 132/175/1 133/168/1
f 107/176/1 108/177/1 144/178/1 143/179/1
f 76/180/2 80/170/2 116/173/2 112/181/2
f 96/174/1 95/182/1 131/183/1 132/175/1
f 200/184/1 104/185/1 140/186/1 202/187/1
f 74/188/2 75/189/2 111/190/2 110/191/2
f 94/192/1 93/158/1 129/161/1 130/193/1
f 103/194/1 107/176/1 143/179/1 139/195/1
f 79/196/2 73/197/2 109/198/2 115/199/2
f 92/159/1 91/200/1 127/201/1 128/160/1
f 101/202/1 102/203/1 138/204/1 137/205/1
f 78/206/2 79/196/2 115/199/2 114/207/2
f 67/140/16 71/208/16 107/209/16 103/141/16
f 58/210/17 57/211/17 93/212/17 94/213/17
f 32/122/7 28/131/7 83/134/7 84/123/7
f 198/214/5 68/129/5 104/130/5 200/215/5
f 24/216/6 19/217/6 74/218/6 73/219/6
f 60/220/18 59/221/18 95/222/18 96/223/18
f 36/224/16 30/121/16 85/124/16 89/225/16
f 71/208/14 72/226/14 108/227/14 107/209/14
f 23/228/17 21/151/17 76/152/17 75/229/17
f 61/230/19 60/220/19 96/223/19 97/231/19
f 196/232/5 25/233/5 77/234/5 199/235/5
f 25/233/18 22/236/18 78/237/18 77/234/18
f 55/238/20 61/230/20 97/231/20 91/239/20
f 35/240/14 36/224/14 89/225/14 90/241/14
f 22/236/19 20/242/19 79/243/19 78/237/19
f 57/211/21 56/97/21 92/100/21 93/212/21
f 20/242/20 24/244/20 73/245/20 79/243/20
f 62/154/15 58/210/15 94/213/15 98/155/15
f 19/217/21 23/228/21 75/229/21 74/218/21
f 123/246/10 122/93/10 140/96/10 141/247/10
f 124/248/9 123/246/9 141/247/9 142/249/9
f 118/250/3 124/248/3 142/249/3 136/251/3
f 120/252/7 119/253/7 137/254/7 138/255/7
f 109/256/6 110/257/6 128/258/6 127/259/6
f 125/260/16 121/261/16 139/262/16 143/263/16
f 111/264/17 112/265/17 130/266/17 129/267/17
f 201/268/5 113/269/5 131/270/5 202/271/5
f 113/269/18 114/272/18 132/273/18 131/270/18
f 126/274/14 125/260/14 143/263/14 144/275/14
f 114/272/19 115/276/19 133/277/19 132/273/19
f 115/276/20 109/278/20 127/279/20 133/277/20
f 110/257/21 111/264/21 129/267/21 128/258/21
f 112/265/15 116/280/15 134/281/15 130/266/15
f 116/280/8 117/282/8 135/283/8 134/281/8
f 119/253/13 118/284/13 136/285/13 137/254/13
f 85/286/2 84/287/2 120/288/2 121/289/2
f 98/290/1 94/192/1 130/193/1 134/291/1
f 87/292/2 86/293/2 122/294/2 123/295/2
f 99/296/1 98/290/1 134/291/1 135/297/1
f 88/298/2 87/292/2 123/295/2 124/299/2
f 100/300/1 101/202/1 137/205/1 136/301/1
f 82/302/2 88/298/2 124/299/2 118/303/2
f 102/203/1 103/194/1 139/195/1 138/204/1
f 84/287/2 83/162/2 119/165/2 120/288/2
f 73/304/2 74/188/2 110/191/2 109/305/2
f 104/185/1 105/306/1 141/307/1 140/186/1
f 89/308/2 85/286/2 121/289/2 125/309/2
f 75/189/2 76/180/2 112/181/2 111/190/2
f 105/306/1 106/310/1 142/311/1 141/307/1
f 199/312/2 77/313/2 113/314/2 201/315/2
f 16/316/1 157/28/1 161/38/1 13/107/1
f 77/313/2 78/206/2 114/207/2 113/314/2
f 106/310/1 100/317/1 136/318/1 142/311/1
f 90/319/2 89/308/2 125/309/2 126/320/2
f 17/321/1 18/322/1 153/20/1 159/31/1
f 5/323/1 3/324/1 152/13/1 147/6/1
f 15/325/1 145/29/1 150/9/1 10/326/1
f 195/327/1 203/25/1 157/28/1 16/316/1
f 6/328/1 1/329/1 148/5/1 156/23/1
f 8/330/1 155/21/1 151/14/1 9/331/1
f 12/139/1 154/17/1 153/20/1 18/322/1
f 3/324/1 9/331/1 151/14/1 152/13/1
f 10/326/1 150/9/1 149/12/1 14/138/1
f 1/329/1 5/323/1 147/6/1 148/5/1
f 11/108/1 146/1/1 145/4/1 15/332/1
f 43/333/2 180/82/2 174/84/2 37/334/2
f 51/335/2 52/336/2 164/43/2 179/79/2
f 42/337/2 178/78/2 180/82/2 43/333/2
f 50/338/2 51/335/2 179/79/2 175/68/2
f 41/142/2 176/75/2 178/78/2 42/337/2
f 48/339/2 49/340/2 172/59/2 167/52/2
f 54/341/2 177/73/2 171/60/2 53/342/2
f 39/343/2 165/50/2 170/55/2 40/344/2
f 46/345/2 47/346/2 168/51/2 163/71/2
f 197/347/2 50/338/2 175/68/2 204/67/2
f 37/348/2 174/65/2 166/47/2 38/349/2
f 45/350/2 44/351/2 169/58/2 173/63/2
f 49/340/2 53/342/2 171/60/2 172/59/2
f 40/344/2 170/55/2 169/58/2 44/351/2
f 47/346/2 48/339/2 167/52/2 168/51/2
f 38/349/2 166/47/2 165/50/2 39/343/2
f 52/336/2 46/352/2 163/44/2 164/43/2
f 26/146/5 155/353/5 117/354/5 81/147/5
f 63/355/5 99/356/5 135/357/5 173/358/5
f 121/261/11 120/252/11 138/255/11 139/262/11
f 194/359/14 190/360/14 186/125/14 185/135/14
f 190/360/12 189/361/12 183/126/12 186/125/12
f 192/362/8 193/363/8 184/105/8 181/90/8
f 86/293/2 199/364/2 201/365/2 122/294/2
f 12/366/4 18/367/4 192/362/4 188/368/4
f 7/157/1 158/33/1 203/369/1 195/370/1
f 18/367/8 17/371/8 193/363/8 192/362/8
f 9/372/12 3/373/12 189/361/12 190/360/12
f 8/374/14 9/372/14 190/360/14 194/359/14
f 8/375/5 194/376/5 117/354/5 155/353/5
f 188/368/4 192/362/4 181/90/4 182/89/4
f 45/377/5 173/358/5 135/357/5 185/378/5
f 35/379/5 90/380/5 126/381/5 159/382/5
f 72/383/5 177/384/5 144/385/5 108/386/5
f 177/384/5 54/387/5 184/388/5 144/385/5
f 135/357/5 117/354/5 194/376/5 185/378/5
f 17/389/5 159/382/5 126/381/5 193/390/5
f 144/385/5 184/388/5 193/390/5 126/381/5
f 34/117/5 196/391/5 199/392/5 86/118/5
f 59/221/5 198/393/5 200/394/5 95/222/5
f 95/182/1 200/395/1 202/396/1 131/183/1
f 176/75/2 204/144/2 198/397/2 59/76/2
f 158/33/1 25/36/1 196/398/1 203/369/1
l 182 187
l 188 191
