# Blender 5.2.0 LTS
# www.blender.org
mtllib PanopticonConnectorBasePrt03.mtl
o PanopticonConnectorBasePrt03
v 3.651531 -0.199885 3.055856
v 3.651531 -0.000293 3.055856
v -0.000000 -0.199885 3.055856
v 0.000000 -0.000293 3.055856
v 3.651531 -0.000293 2.755357
v -0.000000 -0.199885 2.755357
v 3.651531 -0.199885 2.755357
v 0.000000 -0.000293 2.755357
v 3.651531 -0.199885 -3.055856
v 3.651531 -0.000293 -3.055856
v -0.000000 -0.199885 -3.055856
v 0.000000 -0.000293 -3.055856
v 3.651531 -0.000293 -2.755357
v -0.000000 -0.199885 -2.755357
v 3.651531 -0.199885 -2.755357
v 0.000000 -0.000293 -2.755357
v 3.946060 -0.000293 2.755357
v 3.946060 -0.000293 3.055856
v 3.946060 -0.199885 3.055856
v 3.946060 -0.199885 2.755357
v 3.946060 -0.000293 -2.755357
v 3.946060 -0.000293 -3.055856
v 3.946060 -0.199885 -3.055856
v 3.946060 -0.199885 -2.755357
v 3.651531 0.100005 2.755357
v 3.651531 0.100005 3.055856
v 3.651531 0.100005 -2.755357
v 3.651531 0.100005 -3.055856
v 3.946060 0.100005 2.755357
v 3.946060 0.100005 3.055856
v 3.946060 0.100005 -2.755357
v 3.946060 0.100005 -3.055856
vn -0.0000 -0.0000 -1.0000
vn -0.0000 -0.0000 1.0000
vn -1.0000 -0.0000 -0.0000
vn -0.0000 -1.0000 -0.0000
vn -0.0000 1.0000 -0.0000
vn 1.0000 -0.0000 -0.0000
vt 0.927765 0.187018
vt 0.927765 0.163235
vt 0.962861 0.163235
vt 0.962861 0.187018
vt 0.488993 0.227766
vt 0.488993 0.203983
vt 0.924103 0.203983
vt 0.924103 0.227766
vt 0.947886 0.203983
vt 0.924103 0.168176
vt 0.947886 0.168176
vt 0.512776 0.227766
vt 0.947886 0.227766
vt 0.947886 0.263573
vt 0.512776 0.263573
vt 0.488993 0.168176
vt 0.924103 0.144393
vt 0.488993 0.144393
vt 0.477681 0.263573
vt 0.477681 0.227766
vt 0.492655 0.187018
vt 0.492655 0.163235
vt 0.468872 0.163235
vt 0.468873 0.127428
vt 0.492655 0.127428
vt 0.033763 0.163235
vt 0.033763 0.127428
vt 0.927765 0.127428
vt 0.492655 0.103646
vt 0.927765 0.103646
vt 0.418091 0.227766
vt 0.418091 0.203983
vt 0.453898 0.203983
vt 0.453898 0.227766
vt 0.998667 0.187018
vt 0.998667 0.163235
vt 0.950909 0.187018
vt 0.986716 0.187018
vt 0.986716 0.198970
vt 0.950909 0.198970
vt 0.453898 0.168176
vt 0.453898 0.144393
vt -0.001333 0.163235
vt -0.001333 0.127428
vt 0.962861 0.103646
vt 0.962861 0.127428
vt 0.950909 0.234065
vt 0.294263 0.234065
vt 0.294263 0.198970
vt 0.258456 0.234065
vt 0.258456 0.198970
vt 0.986716 0.234065
vt 0.294263 0.187018
vt 0.258456 0.187018
vt 0.294263 0.246016
vt 0.258456 0.246017
vt 0.246505 0.234065
vt 0.246505 0.198970
vt 0.998667 0.198970
vt 0.998667 0.234065
vt 0.986716 0.246016
vt 0.950909 0.246016
vt 0.342021 0.281112
vt 0.342021 0.246017
vt 0.998667 0.246017
vt 0.998667 0.281112
s 0
usemtl M_Mesh
f 9/1/1 10/2/1 22/3/1 23/4/1
f 1/5/2 2/6/2 4/7/2 3/8/2
f 3/9/3 4/7/3 8/10/3 6/11/3
f 1/12/4 3/13/4 6/14/4 7/15/4
f 4/7/5 2/6/5 5/16/5 8/10/5
f 6/17/1 8/10/1 5/16/1 7/18/1
f 1/12/4 7/15/4 20/19/4 19/20/4
f 9/1/1 11/21/1 12/22/1 10/2/1
f 11/23/3 14/24/3 16/25/3 12/22/3
f 9/26/4 15/27/4 14/24/4 11/23/4
f 12/22/5 16/25/5 13/28/5 10/2/5
f 14/29/2 15/30/2 13/28/2 16/25/2
f 20/31/6 17/32/6 18/33/6 19/34/6
f 24/35/6 23/4/6 22/3/6 21/36/6
f 21/37/6 22/38/6 32/39/6 31/40/6
f 7/18/1 5/16/1 17/41/1 20/42/1
f 15/27/4 9/26/4 23/43/4 24/44/4
f 13/28/2 15/30/2 24/45/2 21/46/2
f 31/40/5 27/47/5 25/48/5 29/49/5
f 2/6/2 1/5/2 19/34/2 18/33/2
f 25/48/5 26/50/5 30/51/5 29/49/5
f 28/52/5 27/47/5 31/40/5 32/39/5
f 21/37/6 31/40/6 29/49/6 17/53/6
f 18/54/6 17/53/6 29/49/6 30/51/6
f 5/55/3 2/56/3 26/50/3 25/48/3
f 2/57/2 18/58/2 30/51/2 26/50/2
f 22/59/1 10/60/1 28/52/1 32/39/1
f 10/61/3 13/62/3 27/47/3 28/52/3
f 27/47/3 13/62/3 5/55/3 25/48/3
f 13/63/4 21/64/4 17/65/4 5/66/4
