# Blender 5.2.1 LTS
# www.blender.org
mtllib DoorwayBulkhead.mtl
o DoorwayBulkhead
v -8.272476 -0.100005 -2.121219
v -8.272476 10.431274 -2.121219
v -6.321023 -0.100005 -2.121219
v -6.321023 10.431274 -2.121219
v -8.272476 7.813591 -2.121219
v -8.272476 -0.100005 -2.500938
v -8.272476 10.431274 -2.500938
v -6.321023 10.431274 -2.500938
v -6.321023 -0.100005 -2.500938
v -8.272476 7.813591 -2.500938
v -7.392311 10.431274 -2.121219
v -7.392311 -0.100005 -2.121219
v -7.392311 7.813591 -2.121219
v -7.392311 10.431274 -2.500938
v -7.144276 -0.100005 -2.500938
v -3.989105 9.122433 -1.868145
v -3.989105 7.813591 -1.868145
v -3.989105 9.122433 -2.354643
v -8.272476 9.122433 -2.121219
v -1.994535 9.122433 -2.354643
v -6.321023 9.122433 -2.121219
v -8.272476 9.122433 -2.500938
v -3.989105 10.431274 -2.500938
v -7.392311 9.122433 -2.121219
v -1.994535 10.431274 -2.500938
v -7.392311 -0.100005 -1.868145
v -6.321023 -0.100005 -1.868145
v -1.994535 7.813591 -2.500938
v -6.321023 7.813591 -1.868145
v -3.989105 7.813591 -2.354643
v -6.321023 9.122433 -1.868145
v -1.994535 7.813591 -2.354643
v -7.392311 7.813591 -1.868145
v -7.392311 9.122433 -1.868145
v -3.989105 10.431274 -2.354643
v -1.994535 10.431274 -2.354643
v -0.000000 10.431274 -2.354643
v -0.000000 7.813591 -2.354643
v -0.000000 10.431274 -2.500938
v -0.000000 9.122433 -2.354643
v -3.449204 18.859676 -2.009115
v -2.534436 18.859676 -2.009115
v -1.994535 18.859676 -2.500938
v -1.994535 18.859676 -2.000938
v -3.989105 18.859676 -2.000938
v -3.449204 18.859676 -1.918560
v -2.534436 18.859676 -1.918560
v -2.534436 18.859676 -2.500938
v -3.449204 18.859676 -2.500938
v -3.989105 18.859676 -2.500938
v -3.989105 18.859676 -1.918560
v -1.994535 18.859676 -1.918560
v -1.994535 7.813591 -1.918560
v -3.989105 7.813591 -1.918560
v -3.449204 7.813591 -1.918560
v -2.534436 7.813591 -1.918560
v -2.534436 7.813591 -2.500938
v -3.449204 7.813591 -2.500938
v -1.994535 7.813591 -2.000938
v -3.989105 7.813591 -2.000938
v -2.534436 7.813591 -2.009115
v -3.449204 7.813591 -2.009115
v -1.994535 19.553524 -2.500938
v -1.994535 19.553524 -1.918560
v -3.989105 19.553524 -1.918560
v -3.989105 19.553524 -2.500938
v -2.382792 19.553524 -2.036024
v -3.600847 19.553524 -2.036024
v -3.600847 19.553524 -2.500938
v -2.382792 19.553524 -2.500938
v -2.382792 19.553524 -1.918560
v -3.600847 19.553524 -1.918560
v -3.989105 19.553524 -2.000938
v -1.994535 19.553524 -2.000938
v -8.272476 7.595676 -2.121219
v -6.321023 7.595676 -2.121219
v -8.272476 7.595676 -2.500938
v -6.321023 7.595676 -2.500938
v -7.392311 7.595676 -2.121219
v -6.321023 7.595676 -1.868145
v -7.392311 7.595676 -1.868145
v -3.989105 7.595676 -2.121219
v -3.989105 7.595676 -2.500938
v -3.989105 7.595676 -1.868145
v -1.994535 7.595676 -2.121220
v -0.000000 7.595676 -2.121220
v -0.000000 7.595676 -2.500938
v -1.994535 7.595676 -2.500938
v -0.000000 7.595676 -1.868145
v -0.000000 7.813591 -1.868145
v -1.994535 7.813591 -1.868145
v -1.994535 7.595676 -1.868145
v -2.500571 19.721151 -2.036024
v -2.500571 19.721151 -2.500938
v -3.483068 19.721151 -2.036024
v -3.483068 19.721151 -2.500938
v -3.483068 19.721151 -1.918560
v -2.500571 19.721151 -1.918560
v -3.449204 7.813591 -2.234150
v -3.449204 18.859676 -2.234150
v -2.534436 7.813591 -2.234151
v -2.534436 18.859676 -2.234151
v -1.994535 18.859676 -2.234150
v -2.382792 19.553524 -2.251694
v -3.600847 19.553524 -2.251693
v -3.989105 18.859676 -2.234151
v -3.989105 19.553524 -2.234151
v -1.994535 19.553524 -2.234150
v -1.994535 7.813591 -2.234151
v -2.500571 19.721151 -2.251694
v -3.483068 19.721151 -2.251693
v -2.433011 18.859676 -2.234151
v -2.433011 7.813591 -2.234151
v -3.550628 18.859676 -2.234150
v -3.550628 7.813591 -2.234150
v -2.433011 18.859676 -2.009115
v -2.433011 7.813591 -2.009115
v -3.550628 18.859676 -2.009115
v -3.989105 7.813591 -2.225974
v -3.550628 7.813591 -2.009115
v -3.989105 7.813591 -2.492762
v 8.272476 -0.100005 -2.121220
v 8.272476 10.431274 -2.121220
v 6.321023 -0.100005 -2.121220
v 6.321023 10.431274 -2.121220
v 8.272476 7.813591 -2.121220
v 8.272476 -0.100005 -2.500939
v 8.272476 10.431274 -2.500939
v 6.321023 10.431274 -2.500939
v 6.321023 -0.100005 -2.500939
v 8.272476 7.813591 -2.500939
v 7.392311 10.431274 -2.121220
v 7.392311 -0.100005 -2.121220
v 7.392311 7.813591 -2.121220
v 7.392311 10.431274 -2.500939
v 7.144276 -0.100005 -2.500939
v 3.989105 9.122433 -1.868145
v 3.989105 7.813591 -1.868145
v 3.989105 9.122433 -2.354644
v 8.272476 9.122433 -2.121220
v 1.994535 9.122433 -2.354643
v 6.321023 9.122433 -2.121220
v 8.272476 9.122433 -2.500939
v 3.989105 10.431274 -2.500939
v 7.392311 9.122433 -2.121220
v 1.994535 10.431274 -2.500938
v 7.392311 -0.100005 -1.868145
v 6.321023 -0.100005 -1.868146
v 1.994535 7.813591 -2.500938
v 6.321023 7.813591 -1.868146
v 3.989105 7.813591 -2.354644
v 6.321023 9.122433 -1.868146
v 1.994535 7.813591 -2.354643
v 7.392311 7.813591 -1.868145
v 7.392311 9.122433 -1.868145
v 3.989105 10.431274 -2.354644
v 1.994535 10.431274 -2.354643
v 3.449204 18.859676 -2.009115
v 2.534436 18.859676 -2.009115
v 1.994535 18.859676 -2.500938
v 1.994535 18.859676 -2.000938
v 3.989105 18.859676 -2.000939
v 3.449204 18.859676 -1.918560
v 2.534436 18.859676 -1.918560
v 2.534436 18.859676 -2.500938
v 3.449204 18.859676 -2.500939
v 3.989105 18.859676 -2.500939
v 3.989105 18.859676 -1.918560
v 1.994535 18.859676 -1.918560
v 1.994535 7.813591 -1.918560
v 3.989105 7.813591 -1.918560
v 3.449204 7.813591 -1.918560
v 2.534436 7.813591 -1.918560
v 2.534436 7.813591 -2.500938
v 3.449204 7.813591 -2.500939
v 1.994535 7.813591 -2.000938
v 3.989105 7.813591 -2.000939
v 2.534436 7.813591 -2.009115
v 3.449204 7.813591 -2.009115
v 1.994535 19.553524 -2.500938
v 1.994535 19.553524 -1.918560
v 3.989105 19.553524 -1.918560
v 3.989105 19.553524 -2.500939
v 2.382792 19.553524 -2.036024
v 3.600847 19.553524 -2.036024
v 3.600847 19.553524 -2.500939
v 2.382792 19.553524 -2.500938
v 2.382792 19.553524 -1.918560
v 3.600847 19.553524 -1.918560
v 3.989105 19.553524 -2.000939
v 1.994535 19.553524 -2.000938
v 8.272476 7.595676 -2.121220
v 6.321023 7.595676 -2.121220
v 8.272476 7.595676 -2.500939
v 6.321023 7.595676 -2.500939
v 7.392311 7.595676 -2.121220
v 6.321023 7.595676 -1.868146
v 7.392311 7.595676 -1.868145
v 3.989105 7.595676 -2.121220
v 3.989105 7.595676 -2.500939
v 3.989105 7.595676 -1.868145
v 1.994535 7.595676 -2.121220
v 1.994535 7.595676 -2.500938
v 1.994535 7.813591 -1.868145
v 1.994535 7.595676 -1.868145
v 2.500571 19.721151 -2.036024
v 2.500571 19.721151 -2.500938
v 3.483068 19.721151 -2.036024
v 3.483068 19.721151 -2.500939
v 3.483068 19.721151 -1.918560
v 2.500571 19.721151 -1.918560
v 3.449204 7.813591 -2.234151
v 3.449204 18.859676 -2.234151
v 2.534436 7.813591 -2.234151
v 2.534436 18.859676 -2.234151
v 1.994535 18.859676 -2.234150
v 2.382792 19.553524 -2.251694
v 3.600847 19.553524 -2.251694
v 3.989105 18.859676 -2.234151
v 3.989105 19.553524 -2.234151
v 1.994535 19.553524 -2.234150
v 1.994535 7.813591 -2.234151
v 2.500571 19.721151 -2.251694
v 3.483068 19.721151 -2.251694
v 2.433011 18.859676 -2.234151
v 2.433011 7.813591 -2.234151
v 3.550628 18.859676 -2.234151
v 3.550628 7.813591 -2.234151
v 2.433011 18.859676 -2.009115
v 2.433011 7.813591 -2.009115
v 3.550628 18.859676 -2.009115
v 3.989105 7.813591 -2.225975
v 3.550628 7.813591 -2.009115
v 3.989105 7.813591 -2.492762
vn -0.0000 -0.0000 1.0000
vn -0.0000 -1.0000 -0.0000
vn 1.0000 -0.0000 -0.0000
vn 0.0996 -0.0000 0.9950
vn -1.0000 -0.0000 -0.0000
vn -0.0000 1.0000 -0.0000
vn -0.0000 -0.0000 -1.0000
vn 0.8182 0.5749 -0.0000
vn -0.8182 0.5749 -0.0000
vn -0.0076 -0.0004 -1.0000
vn -0.0996 -0.0000 0.9950
vn 0.0076 -0.0004 -1.0000
vt 0.097884 0.661317
vt 0.035941 0.661317
vt 0.035941 0.619662
vt 0.097884 0.619662
vt 0.017971 0.607923
vt 0.035941 0.619662
vt 0.035941 0.661317
vt 0.017971 0.661317
vt 0.017971 0.204756
vt 0.035941 0.204756
vt 0.035941 0.568962
vt 0.017971 0.568962
vt 0.097884 0.822929
vt 0.035941 0.822929
vt 0.035941 0.712017
vt 0.097884 0.712017
vt 0.851799 0.364206
vt 0.851799 -0.000000
vt 0.863776 -0.000000
vt 0.863776 0.364206
vt 0.851799 0.364206
vt 0.851799 0.374519
vt 0.810144 0.374519
vt 0.810144 0.364206
vt 0.750518 0.364206
vt 0.750518 0.374519
vt 0.732548 0.374519
vt 0.732548 0.364206
vt 0.831465 0.627813
vt 0.838389 0.627813
vt 0.838389 0.738174
vt 0.820418 0.738174
vt 0.820418 0.788874
vt 0.838389 0.788874
vt 0.838389 0.830528
vt 0.820418 0.830528
vt 0.750518 0.436462
vt 0.750518 0.498404
vt 0.732548 0.498404
vt 0.732548 0.436462
vt 0.059895 0.000000
vt 0.059895 0.050700
vt 0.047918 0.050700
vt 0.047918 0.000000
vt 0.987660 0.000000
vt 0.987660 0.094394
vt 0.925718 0.094394
vt 0.925718 0.000000
vt 0.886800 0.727421
vt 0.875753 0.837782
vt 0.863776 0.837782
vt 0.863776 0.727421
vt 0.851799 0.436462
vt 0.810144 0.436462
vt 0.863776 0.094394
vt 0.863776 0.000000
vt 0.213655 0.927745
vt 0.213655 0.938058
vt 0.162955 0.938058
vt 0.162955 0.927745
vt 0.213655 1.000000
vt 0.162955 1.000000
vt 0.324016 0.938058
vt 0.324016 1.000000
vt 0.159826 0.917324
vt 0.097884 0.917324
vt 0.159826 0.822929
vt 0.875753 0.888481
vt 0.863776 0.888481
vt 0.831465 0.533418
vt 0.838389 0.533418
vt 0.851799 0.436462
vt 0.851799 0.374519
vt 0.863776 0.374519
vt 0.863776 0.436462
vt 0.870699 0.471967
vt 0.863776 0.471967
vt 0.863776 0.377574
vt 0.870699 0.377574
vt 0.838389 0.627811
vt 0.838389 0.533418
vt 0.848702 0.533418
vt 0.848702 0.627811
vt 0.881746 0.345125
vt 0.881746 0.283182
vt 0.904770 0.283182
vt 0.904770 0.345124
vt 0.035941 0.917324
vt 0.059895 0.525266
vt 0.059895 0.619661
vt 0.047918 0.619661
vt 0.047918 0.525266
vt 0.461080 0.000000
vt 0.461080 0.522768
vt 0.450043 0.522768
vt 0.450043 0.000000
vt 0.137293 0.012802
vt 0.137334 0.535370
vt 0.094028 0.535377
vt 0.094034 0.012675
vt 0.628505 0.533418
vt 0.628505 0.522768
vt 0.633305 0.522768
vt 0.633305 0.533418
vt 0.899426 0.771637
vt 0.886800 0.771637
vt 0.886800 0.753263
vt 0.898596 0.753263
vt 0.908802 0.753263
vt 0.914361 0.753263
vt 0.914361 0.771637
vt 0.910463 0.771637
vt 0.908802 0.743567
vt 0.914361 0.743567
vt 0.898596 0.687374
vt 0.899426 0.668999
vt 0.910463 0.668999
vt 0.908802 0.687374
vt 0.914361 0.668999
vt 0.914361 0.687374
vt 0.585213 0.000000
vt 0.585213 0.522768
vt 0.580413 0.522768
vt 0.580413 0.000000
vt 0.446144 0.522768
vt 0.446144 0.000000
vt 0.064181 0.025551
vt 0.064181 0.548319
vt 0.059895 0.548319
vt 0.059895 0.025551
vt 0.068473 0.535376
vt 0.068467 0.012641
vt 0.556391 0.000000
vt 0.556391 0.522768
vt 0.552492 0.522768
vt 0.552492 0.000000
vt 0.564962 0.025551
vt 0.564962 0.548319
vt 0.560677 0.548319
vt 0.560677 0.025551
vt 0.351749 0.000000
vt 0.351749 0.522768
vt 0.326197 0.522768
vt 0.326197 0.000000
vt 0.282905 0.000000
vt 0.282905 0.522768
vt 0.257354 0.522768
vt 0.257354 0.000000
vt 0.094064 0.000029
vt 0.137386 0.000184
vt 0.886800 0.743567
vt 0.886800 0.697069
vt 0.898596 0.697069
vt 0.898596 0.743567
vt 0.450043 0.555605
vt 0.446144 0.555605
vt 0.086847 0.568226
vt 0.144523 0.568238
vt 0.138944 0.576174
vt 0.092422 0.576165
vt 0.333374 0.555605
vt 0.275728 0.555605
vt 0.162925 0.535366
vt 0.162919 0.568242
vt 0.351749 0.555605
vt 0.068467 0.568223
vt 0.541455 0.522768
vt 0.541455 0.555605
vt 0.528829 0.555605
vt 0.528829 0.522768
vt 0.257354 0.555605
vt 0.556391 0.555605
vt 0.552492 0.555605
vt 0.059895 0.591612
vt 0.064181 0.591612
vt 0.461080 0.555605
vt 0.904770 0.188787
vt 0.881746 0.188787
vt 0.564575 -0.000000
vt 0.560677 -0.000000
vt 0.886800 0.687374
vt 0.059895 0.414906
vt 0.047918 0.414906
vt 0.213655 0.563538
vt 0.162956 0.563538
vt 0.750518 0.000000
vt 0.732548 0.000000
vt 0.851799 0.000000
vt 0.810144 0.000000
vt 0.017971 0.094395
vt 0.035941 0.094395
vt 0.881746 0.283181
vt 0.881746 0.377574
vt 0.863776 0.377574
vt 0.863776 0.283181
vt 0.035941 -0.000000
vt 0.017971 -0.000000
vt 0.324016 0.927745
vt 0.418411 0.938058
vt 0.418411 0.927745
vt 0.035001 0.661317
vt 0.035001 0.755710
vt 0.023024 0.755710
vt 0.023024 0.661317
vt 0.000000 0.755710
vt -0.000000 0.661317
vt 0.023024 0.661317
vt 0.023024 0.755710
vt 0.908802 0.697069
vt 0.914361 0.697069
vt 0.585213 0.533418
vt 0.580413 0.533418
vt 0.327800 0.563538
vt 0.281302 0.563538
vt 0.648755 0.000000
vt 0.648755 0.522768
vt 0.643955 0.522768
vt 0.643955 0.000000
vt 0.633305 0.000000
vt 0.628505 0.000000
vt 0.473706 0.522768
vt 0.473706 0.555605
vt 0.564962 0.522768
vt 0.564962 0.000000
vt 0.569762 0.000000
vt 0.569762 0.522768
vt 0.886800 0.668999
vt 0.473706 0.000000
vt 0.060282 0.000000
vt 0.064181 0.000000
vt 0.068481 0.000000
vt 0.162955 0.000054
vt 0.162828 0.012687
vt 0.541842 0.000000
vt 0.529216 0.000000
vt 0.480353 0.819545
vt 0.480353 0.861200
vt 0.418411 0.861200
vt 0.418411 0.819545
vt 0.000000 0.053393
vt 0.000000 -0.000000
vt 0.017971 -0.000000
vt 0.017971 0.041655
vt 0.000000 0.456561
vt 0.000000 0.092355
vt 0.017971 0.092355
vt 0.017971 0.456561
vt 0.480353 0.657933
vt 0.480353 0.768845
vt 0.418411 0.768845
vt 0.418411 0.657933
vt 0.863776 0.800668
vt 0.851799 0.800668
vt 0.863776 0.436462
vt 0.768489 0.364206
vt 0.810144 0.364206
vt 0.810144 0.374520
vt 0.768489 0.374520
vt 0.768489 0.134198
vt 0.750518 0.134198
vt 0.750518 0.123885
vt 0.768489 0.123885
vt 0.549219 0.657933
vt 0.560266 0.768294
vt 0.542296 0.768294
vt 0.542296 0.657933
vt 0.560266 0.818994
vt 0.560266 0.860649
vt 0.542296 0.860649
vt 0.542296 0.818994
vt 0.768489 0.061942
vt 0.750518 0.061942
vt 0.750518 0.000000
vt 0.768489 0.000000
vt 0.035941 0.000000
vt 0.047918 0.000000
vt 0.047918 0.050700
vt 0.035941 0.050700
vt 0.987660 0.188787
vt 0.925718 0.188787
vt 0.886800 0.727421
vt 0.863776 0.727421
vt 0.863776 0.617061
vt 0.875753 0.617061
vt 0.810144 0.436462
vt 0.768489 0.436462
vt 0.863776 0.188787
vt 0.769718 0.897624
vt 0.820418 0.897624
vt 0.820418 0.907937
vt 0.769718 0.907937
vt 0.820418 0.969880
vt 0.769718 0.969880
vt 0.659358 0.907937
vt 0.659358 0.969880
vt 0.542296 0.563538
vt 0.542296 0.657933
vt 0.480353 0.563538
vt 0.863776 0.566361
vt 0.875753 0.566361
vt 0.549219 0.563538
vt 0.542296 0.563538
vt 0.863776 0.872924
vt 0.851799 0.872924
vt 0.851799 0.810981
vt 0.863776 0.810981
vt 0.870699 0.566361
vt 0.848702 0.722205
vt 0.838389 0.722205
vt 0.893723 0.533912
vt 0.870699 0.533912
vt 0.870699 0.471969
vt 0.893723 0.471969
vt 0.418411 0.563538
vt 0.035941 0.525267
vt 0.047918 0.525267
vt 0.047918 0.619662
vt 0.035941 0.619662
vt 0.513894 0.000000
vt 0.524931 0.000000
vt 0.524931 0.522768
vt 0.513894 0.522768
vt 0.188510 0.000000
vt 0.231802 0.000000
vt 0.231802 0.522768
vt 0.188510 0.522768
vt 0.669005 0.533418
vt 0.664205 0.533418
vt 0.664205 0.522768
vt 0.669005 0.522768
vt 0.899426 0.566361
vt 0.898596 0.584735
vt 0.886800 0.584735
vt 0.886800 0.566361
vt 0.908802 0.584735
vt 0.910463 0.566361
vt 0.914362 0.566361
vt 0.914362 0.584735
vt 0.914362 0.594431
vt 0.908802 0.594431
vt 0.898596 0.650624
vt 0.908802 0.650624
vt 0.910463 0.668999
vt 0.899426 0.668999
vt 0.914362 0.650624
vt 0.914362 0.668999
vt 0.712298 0.000000
vt 0.717098 0.000000
vt 0.717098 0.522768
vt 0.712298 0.522768
vt 0.528829 0.000000
vt 0.528829 0.522768
vt 0.064181 0.025551
vt 0.068467 0.025551
vt 0.068467 0.548319
vt 0.064181 0.548319
vt 0.257354 0.000000
vt 0.257354 0.522768
vt 0.473706 0.000000
vt 0.477605 0.000000
vt 0.477605 0.522768
vt 0.473706 0.522768
vt 0.556391 0.025551
vt 0.560677 0.025551
vt 0.560677 0.548320
vt 0.556391 0.548320
vt 0.351749 0.000000
vt 0.377301 0.000000
vt 0.377300 0.522768
vt 0.351749 0.522768
vt 0.420593 0.000000
vt 0.446144 0.000000
vt 0.446144 0.522768
vt 0.420593 0.522768
vt 0.768666 0.505358
vt 0.768489 0.462066
vt 0.781115 0.462015
vt 0.781292 0.505307
vt 0.886800 0.594431
vt 0.898596 0.594431
vt 0.898596 0.640929
vt 0.886800 0.640929
vt 0.528829 0.555605
vt 0.524931 0.555605
vt 0.238979 0.555605
vt 0.233405 0.563538
vt 0.186907 0.563538
vt 0.181333 0.555605
vt 0.427769 0.555605
vt 0.370123 0.555605
vt 0.162958 0.522768
vt 0.162958 0.555605
vt 0.351749 0.555605
vt 0.257354 0.555605
vt 0.488642 0.522768
vt 0.501268 0.522768
vt 0.501268 0.555605
vt 0.488642 0.555605
vt 0.446144 0.555605
vt 0.477605 0.555605
vt 0.473706 0.555605
vt 0.068467 0.591612
vt 0.064181 0.591612
vt 0.513894 0.555605
vt 0.870699 0.377574
vt 0.893723 0.377574
vt 0.556778 -0.000000
vt 0.560677 -0.000000
vt 0.886800 0.650624
vt 0.047918 0.414907
vt 0.035941 0.414907
vt 0.769718 0.533418
vt 0.820418 0.533418
vt 0.768489 0.498404
vt 0.750518 0.498404
vt 0.768489 -0.000000
vt 0.810144 -0.000000
vt 0.000000 0.566922
vt 0.017971 0.566922
vt 0.863776 0.188787
vt 0.881746 0.188787
vt 0.017971 0.661317
vt 0.000000 0.661317
vt 0.659358 0.897624
vt 0.564962 0.907937
vt 0.564962 0.897624
vt 0.035001 0.850104
vt 0.023024 0.850104
vt 0.023024 0.850104
vt 0.000000 0.850104
vt 0.908802 0.640929
vt 0.914362 0.640929
vt 0.717098 0.533418
vt 0.712298 0.533418
vt 0.422195 0.563538
vt 0.375697 0.563538
vt 0.648755 0.000000
vt 0.653555 0.000000
vt 0.653555 0.522768
vt 0.664205 0.000000
vt 0.669005 0.000000
vt 0.501268 0.522768
vt 0.732548 0.522768
vt 0.727748 0.522768
vt 0.727748 0.000000
vt 0.732548 0.000000
vt 0.886800 0.668999
vt 0.501268 0.000000
vt 0.064181 0.000000
vt 0.068080 0.000000
vt 0.781397 0.530858
vt 0.768771 0.530910
vt 0.768771 0.436514
vt 0.781397 0.436462
vt 0.488255 0.000000
vt 0.500881 0.000000
vt 0.162955 0.000000
s 0
usemtl M_MetalGrate
f 24/1/1 11/2/1 2/3/1 19/4/1
f 15/5/2 12/6/2 1/7/2 6/8/2
f 78/9/3 76/10/3 3/11/3 9/12/3
f 18/13/4 35/14/4 4/15/4 21/16/4
f 79/17/5 12/18/5 26/19/5 81/20/5
f 79/21/1 13/22/1 5/23/1 75/24/1
f 75/25/5 5/26/5 10/27/5 77/28/5
f 35/29/6 23/30/6 8/31/6 4/32/6
f 11/33/6 14/34/6 7/35/6 2/36/6
f 19/37/5 2/38/5 7/39/5 22/40/5
f 4/32/6 8/31/6 14/34/6 11/33/6
f 12/41/2 3/42/2 27/43/2 26/44/2
f 9/12/2 3/11/2 12/6/2 15/5/2
f 21/16/1 4/15/1 11/2/1 24/1/1
f 32/45/1 38/46/1 40/47/1 20/48/1
f 5/26/5 19/37/5 22/40/5 10/27/5
f 18/49/6 21/50/6 31/51/6 16/52/6
f 13/22/1 24/53/1 19/54/1 5/23/1
f 40/47/1 37/55/1 36/56/1 20/48/1
f 80/57/1 29/58/1 33/59/1 81/60/1
f 29/58/1 31/61/1 34/62/1 33/59/1
f 17/63/1 16/64/1 31/61/1 29/58/1
f 32/65/1 20/66/1 18/13/1 30/67/1
f 21/50/6 24/68/6 34/69/6 31/51/6
f 36/70/6 25/71/6 23/30/6 35/29/6
f 24/72/5 13/73/5 33/74/5 34/75/5
f 37/76/6 39/77/6 25/78/6 36/79/6
f 90/80/1 91/81/1 92/82/1 89/83/1
f 16/84/3 17/85/3 30/86/3 18/87/3
f 20/66/1 36/88/1 35/14/1 18/13/1
f 82/89/2 85/90/2 92/91/2 84/92/2
f 109/93/3 103/94/3 44/95/3 59/96/3
f 58/97/7 49/98/7 48/99/7 57/100/7
f 42/101/2 102/102/2 112/103/2 116/104/2
f 108/105/6 63/106/6 70/107/6 104/108/6
f 67/109/6 71/110/6 64/111/6 74/112/6
f 71/110/8 67/109/8 93/113/8 98/114/8
f 105/115/6 107/116/6 73/117/6 68/118/6
f 73/117/6 65/119/6 72/120/6 68/118/6
f 99/121/1 100/122/1 114/123/1 115/124/1
f 59/96/3 44/95/3 52/125/3 53/126/3
f 56/127/5 47/128/5 42/129/5 61/130/5
f 57/100/7 48/99/7 43/131/7 28/132/7
f 54/133/5 51/134/5 45/135/5 60/136/5
f 62/137/3 41/138/3 46/139/3 55/140/3
f 53/141/1 52/142/1 47/143/1 56/144/1
f 55/145/1 46/146/1 51/147/1 54/148/1
f 57/100/2 101/149/2 99/150/2 58/97/2
f 94/151/6 96/152/6 111/153/6 110/154/6
f 44/95/3 74/155/3 64/156/3 52/125/3
f 70/157/7 69/158/7 96/159/7 94/160/7
f 46/146/1 47/143/1 71/161/1 72/162/1
f 50/163/7 66/164/7 69/158/7 49/98/7
f 52/142/1 64/165/1 71/161/1 47/143/1
f 48/99/7 70/157/7 63/166/7 43/131/7
f 106/167/5 107/168/5 66/169/5 50/170/5
f 46/146/1 72/162/1 65/171/1 51/147/1
f 51/134/5 65/172/5 73/173/5 45/135/5
f 41/174/2 42/129/2 47/128/2 46/175/2
f 103/94/3 108/176/3 74/155/3 44/95/3
f 49/98/7 69/158/7 70/157/7 48/99/7
f 32/177/6 30/86/6 17/85/6 91/178/6
f 60/179/2 62/137/2 55/140/2 54/180/2
f 69/181/9 105/115/9 111/153/9 96/152/9
f 3/42/3 76/182/3 80/183/3 27/43/3
f 27/184/1 80/57/1 81/60/1 26/185/1
f 1/186/5 75/25/5 77/28/5 6/187/5
f 12/188/1 79/21/1 75/24/1 1/189/1
f 13/73/5 79/17/5 81/20/5 33/74/5
f 76/182/2 82/89/2 84/92/2 80/183/2
f 83/190/2 82/191/2 76/10/2 78/9/2
f 86/192/2 85/193/2 88/194/2 87/195/2
f 85/196/2 82/191/2 83/190/2 88/197/2
f 17/63/1 29/58/1 80/57/1 84/198/1
f 91/199/1 17/63/1 84/198/1 92/200/1
f 85/201/2 86/202/2 89/203/2 92/204/2
f 38/205/6 32/206/6 91/207/6 90/208/6
f 110/154/6 111/153/6 95/209/6 93/113/6
f 97/210/6 98/114/6 93/113/6 95/209/6
f 100/122/2 41/211/2 118/212/2 114/123/2
f 72/162/1 71/161/1 98/213/1 97/214/1
f 104/108/8 70/107/8 94/151/8 110/154/8
f 68/118/9 72/120/9 97/210/9 95/209/9
f 105/115/9 68/118/9 95/209/9 111/153/9
f 61/215/7 42/216/7 116/217/7 117/218/7
f 117/218/5 116/217/5 112/103/5 113/219/5
f 99/121/1 101/220/1 102/102/1 100/122/1
f 43/221/3 63/222/3 108/176/3 103/94/3
f 41/223/7 62/224/7 120/225/7 118/226/7
f 42/101/2 41/211/2 100/122/2 102/102/2
f 67/109/8 104/108/8 110/154/8 93/113/8
f 45/135/5 73/173/5 107/168/5 106/167/5
f 69/181/6 66/227/6 107/116/6 105/115/6
f 74/112/6 108/105/6 104/108/6 67/109/6
f 28/228/3 43/221/3 103/94/3 109/93/3
f 56/127/2 61/130/2 59/229/2 53/230/2
f 57/100/2 28/132/2 109/231/2 101/149/2
f 118/226/3 120/225/3 115/124/3 114/123/3
f 102/102/1 101/220/1 113/219/1 112/103/1
f 99/150/2 119/232/2 121/233/2 58/97/2
f 106/167/5 119/234/5 60/136/5 45/135/5
f 50/170/5 121/235/5 119/234/5 106/167/5
f 49/98/10 58/97/10 121/233/10 50/163/10
f 145/236/1 140/237/1 123/238/1 132/239/1
f 136/240/2 127/241/2 122/242/2 133/243/2
f 195/244/5 130/245/5 124/246/5 193/247/5
f 139/248/11 142/249/11 125/250/11 156/251/11
f 196/252/3 198/253/3 147/72/3 133/254/3
f 196/255/1 192/256/1 126/257/1 134/258/1
f 192/259/3 194/260/3 131/261/3 126/262/3
f 156/263/6 125/264/6 129/265/6 144/266/6
f 132/267/6 123/268/6 128/269/6 135/270/6
f 140/271/3 143/272/3 128/273/3 123/274/3
f 125/264/6 132/267/6 135/270/6 129/265/6
f 133/275/2 147/276/2 148/277/2 124/278/2
f 130/245/2 136/240/2 133/243/2 124/246/2
f 142/249/1 145/236/1 132/239/1 125/250/1
f 153/279/1 141/280/1 40/47/1 38/46/1
f 126/262/3 131/261/3 143/272/3 140/271/3
f 139/281/6 137/282/6 152/283/6 142/284/6
f 134/258/1 126/257/1 140/285/1 145/286/1
f 40/47/1 141/280/1 157/287/1 37/55/1
f 197/288/1 198/289/1 154/290/1 150/291/1
f 150/291/1 154/290/1 155/292/1 152/293/1
f 138/294/1 150/291/1 152/293/1 137/295/1
f 153/296/1 151/297/1 139/248/1 141/298/1
f 142/284/6 152/283/6 155/299/6 145/300/6
f 157/301/6 156/263/6 144/266/6 146/302/6
f 145/303/3 155/304/3 154/305/3 134/306/3
f 37/76/6 157/307/6 146/299/6 39/77/6
f 90/80/1 89/83/1 205/308/1 204/309/1
f 137/310/5 139/311/5 151/312/5 138/313/5
f 141/298/1 139/248/1 156/251/1 157/314/1
f 199/315/2 201/316/2 205/317/2 202/318/2
f 222/319/5 176/320/5 161/321/5 216/322/5
f 175/323/7 174/324/7 165/325/7 166/326/7
f 159/327/2 229/328/2 225/329/2 215/330/2
f 221/331/6 217/332/6 187/333/6 180/334/6
f 184/335/6 191/336/6 181/337/6 188/338/6
f 188/338/9 211/339/9 206/340/9 184/335/9
f 218/341/6 185/342/6 190/343/6 220/344/6
f 190/343/6 185/342/6 189/345/6 182/346/6
f 212/347/1 228/348/1 227/349/1 213/350/1
f 176/320/5 170/351/5 169/352/5 161/321/5
f 173/353/3 178/354/3 159/355/3 164/356/3
f 174/324/7 149/357/7 160/358/7 165/325/7
f 171/359/3 177/360/3 162/361/3 168/362/3
f 179/363/5 172/364/5 163/365/5 158/366/5
f 170/367/1 173/368/1 164/369/1 169/370/1
f 172/371/1 171/372/1 168/373/1 163/374/1
f 174/375/2 175/376/2 212/377/2 214/378/2
f 207/379/6 223/380/6 224/381/6 209/382/6
f 161/321/5 169/352/5 181/383/5 191/384/5
f 187/385/7 207/386/7 209/387/7 186/388/7
f 163/374/1 189/389/1 188/390/1 164/369/1
f 167/391/7 166/326/7 186/388/7 183/392/7
f 169/370/1 164/369/1 188/390/1 181/393/1
f 165/325/7 160/358/7 180/394/7 187/385/7
f 219/395/3 167/396/3 183/397/3 220/398/3
f 163/374/1 168/373/1 182/399/1 189/389/1
f 168/362/3 162/361/3 190/400/3 182/401/3
f 158/402/2 163/403/2 164/356/2 159/355/2
f 216/322/5 161/321/5 191/384/5 221/404/5
f 166/326/7 165/325/7 187/385/7 186/388/7
f 153/405/6 204/406/6 138/313/6 151/312/6
f 177/407/2 171/408/2 172/364/2 179/363/2
f 186/409/8 209/382/8 224/381/8 218/341/8
f 124/278/5 148/277/5 197/410/5 193/411/5
f 148/412/1 147/413/1 198/289/1 197/288/1
f 122/414/3 127/415/3 194/260/3 192/259/3
f 133/416/1 122/417/1 192/256/1 196/255/1
f 134/306/3 154/305/3 198/253/3 196/252/3
f 193/411/2 197/410/2 201/316/2 199/315/2
f 200/418/2 195/244/2 193/247/2 199/419/2
f 86/192/2 87/195/2 203/420/2 202/421/2
f 202/422/2 203/423/2 200/418/2 199/419/2
f 138/294/1 201/424/1 197/288/1 150/291/1
f 204/425/1 205/426/1 201/424/1 138/294/1
f 202/427/2 205/428/2 89/203/2 86/202/2
f 38/205/6 90/208/6 204/429/6 153/430/6
f 223/380/6 206/340/6 208/431/6 224/381/6
f 210/432/6 208/431/6 206/340/6 211/339/6
f 213/350/2 227/349/2 231/433/2 158/434/2
f 189/389/1 210/435/1 211/436/1 188/390/1
f 217/332/9 223/380/9 207/379/9 187/333/9
f 185/342/8 208/431/8 210/432/8 189/345/8
f 218/341/8 224/381/8 208/431/8 185/342/8
f 178/437/7 230/438/7 229/439/7 159/216/7
f 230/438/3 226/440/3 225/329/3 229/439/3
f 212/347/1 213/350/1 215/330/1 214/441/1
f 160/442/5 216/322/5 221/404/5 180/397/5
f 158/443/7 231/444/7 233/445/7 179/446/7
f 159/327/2 215/330/2 213/350/2 158/434/2
f 184/335/9 206/340/9 223/380/9 217/332/9
f 162/361/3 219/395/3 220/398/3 190/400/3
f 186/409/6 218/341/6 220/344/6 183/447/6
f 191/336/6 184/335/6 217/332/6 221/331/6
f 149/448/5 222/319/5 216/322/5 160/442/5
f 173/353/2 170/449/2 176/450/2 178/354/2
f 174/375/2 214/378/2 222/451/2 149/452/2
f 231/444/5 227/349/5 228/348/5 233/445/5
f 215/330/1 225/329/1 226/440/1 214/441/1
f 212/377/2 175/376/2 234/453/2 232/454/2
f 219/395/3 162/361/3 177/360/3 232/455/3
f 167/396/3 219/395/3 232/455/3 234/456/3
f 166/326/12 167/391/12 234/457/12 175/323/12
