# Blender 5.2.1 LTS
# www.blender.org
mtllib DoorBulkhead.mtl
o DoorBulkhead
v -3.022935 7.613581 -1.064297
v -2.894414 7.613581 -1.064297
v -6.447658 7.613581 -1.064297
v -6.447658 -0.100005 -1.064297
v -3.022935 -0.100005 -1.064297
v -2.894414 -0.100005 -1.064297
v -6.447658 7.613581 -1.703976
v -2.894414 -0.100005 -1.703976
v -6.447658 -0.100005 -1.703976
v -3.022935 7.613581 -1.703976
v -2.894414 7.613581 -1.703976
v -3.022935 -0.100005 -1.703976
v -6.265807 7.481951 -0.756897
v -6.265807 0.031624 -0.756897
v -6.327555 -0.028163 -1.064297
v -6.327555 7.541739 -1.703976
v -6.327555 7.541739 -1.868145
v -6.327555 -0.028163 -1.868145
v -2.876284 7.481951 -0.756897
v -2.894414 7.541739 -1.064297
v -3.022935 -0.028163 -1.064297
v -2.894414 -0.028163 -1.064297
v -3.022935 7.541739 -1.064297
v -6.327555 7.541739 -1.064297
v -3.041064 0.031624 -0.756897
v -3.041064 7.481951 -0.756897
v -2.894414 7.541739 -1.703976
v -2.894414 7.541739 -1.868145
v -3.022935 7.541739 -1.868145
v -2.876284 0.031624 -0.756897
v -3.022935 -0.028163 -1.703976
v -3.022935 -0.028163 -1.868145
v -2.894414 -0.028163 -1.868145
v -2.894414 -0.028163 -1.703976
v -6.327555 -0.028163 -1.703976
v -3.022935 7.541739 -1.703976
v -6.327555 -0.028163 -0.827541
v -2.894414 7.541739 -0.827541
v -3.022935 -0.028163 -0.827541
v -6.327555 7.541739 -0.827541
v -3.022935 7.541739 -0.827541
v -2.894414 -0.028163 -0.827541
v 0.000000 -0.100005 -1.064297
v 0.000000 -0.100005 -1.703976
v 0.000000 -0.028163 -1.064297
v 0.000000 0.031624 -0.756897
v 0.000000 -0.028163 -1.868145
v 0.000000 -0.028163 -1.703976
v 0.000000 -0.028163 -0.827541
v 0.000000 7.541739 -1.868145
v 0.000000 7.481951 -0.756897
v 0.000000 7.613581 -1.703976
v 0.000000 7.541739 -1.064297
v 0.000000 7.613581 -1.064297
v 0.000000 7.541739 -0.827541
v 0.000000 7.541739 -1.703976
v -2.894414 7.481951 -0.827541
v -2.894414 7.481951 -1.064297
v -3.022935 0.031624 -1.064297
v -2.894414 0.031624 -1.064297
v -3.022935 0.031624 -0.827541
v -3.022935 7.481951 -1.064297
v -3.022935 7.481951 -0.827541
v -2.894414 0.031624 -0.827541
v 3.022935 7.613581 -1.064297
v 2.894414 7.613581 -1.064297
v 6.447658 7.613581 -1.064297
v 6.447658 -0.100005 -1.064297
v 3.022935 -0.100005 -1.064297
v 2.894414 -0.100005 -1.064297
v 6.447658 7.613581 -1.703976
v 2.894414 -0.100005 -1.703976
v 6.447658 -0.100005 -1.703976
v 3.022935 7.613581 -1.703976
v 2.894414 7.613581 -1.703976
v 3.022935 -0.100005 -1.703976
v 6.265807 7.481951 -0.756897
v 6.265807 0.031624 -0.756897
v 6.327555 -0.028163 -1.064297
v 6.327555 7.541739 -1.703976
v 6.327555 7.541739 -1.868145
v 6.327555 -0.028163 -1.868145
v 2.876284 7.481951 -0.756897
v 2.894414 7.541739 -1.064297
v 3.022935 -0.028163 -1.064297
v 2.894414 -0.028163 -1.064297
v 3.022935 7.541739 -1.064297
v 6.327555 7.541739 -1.064297
v 3.041064 0.031624 -0.756897
v 3.041064 7.481951 -0.756897
v 2.894414 7.541739 -1.703976
v 2.894414 7.541739 -1.868145
v 3.022935 7.541739 -1.868145
v 2.876284 0.031624 -0.756897
v 3.022935 -0.028163 -1.703976
v 3.022935 -0.028163 -1.868145
v 2.894414 -0.028163 -1.868145
v 2.894414 -0.028163 -1.703976
v 6.327555 -0.028163 -1.703976
v 3.022935 7.541739 -1.703976
v 6.327555 -0.028163 -0.827541
v 2.894414 7.541739 -0.827541
v 3.022935 -0.028163 -0.827541
v 6.327555 7.541739 -0.827541
v 3.022935 7.541739 -0.827541
v 2.894414 -0.028163 -0.827541
v 2.894414 7.481951 -0.827541
v 2.894414 7.481951 -1.064297
v 3.022935 0.031624 -1.064297
v 2.894414 0.031624 -1.064297
v 3.022935 0.031624 -0.827541
v 3.022935 7.481951 -1.064297
v 3.022935 7.481951 -0.827541
v 2.894414 0.031624 -0.827541
v -2.540256 7.613581 -2.253656
v -2.540256 9.434002 -2.253656
v -2.540256 7.613581 -1.064297
v -3.443873 7.613581 -2.253656
v -3.443873 9.434002 -2.253656
v -3.443873 7.613581 -1.064297
v -2.540256 7.613581 -1.857358
v -2.540256 9.434002 -1.857358
v -3.443873 7.613581 -1.857358
v -3.443873 9.434002 -1.857358
v -1.900797 9.434002 -1.857358
v -4.083332 7.613581 -1.857358
v -1.900797 7.613581 -1.857358
v -4.083332 9.434002 -1.857358
v 2.540256 7.613581 -2.253656
v 2.540256 9.434002 -2.253656
v 2.540256 7.613581 -1.064297
v 3.443873 7.613581 -2.253656
v 3.443873 9.434002 -2.253656
v 3.443873 7.613581 -1.064297
v 2.540256 7.613581 -1.857358
v 2.540256 9.434002 -1.857358
v 3.443873 7.613581 -1.857358
v 3.443873 9.434002 -1.857358
v 1.900797 9.434002 -1.857358
v 4.083332 7.613581 -1.857358
v 1.900797 7.613581 -1.857358
v 4.083332 9.434002 -1.857358
v -3.248145 6.357718 -1.824937
v -3.248144 7.637589 -1.757493
v -3.248145 6.357718 -0.657094
v -3.248144 7.637589 -0.719603
v -5.938765 6.420226 -1.757493
v -5.938765 6.420226 -0.719603
v -3.248144 7.818241 -0.719603
v -5.938765 6.357718 -0.657094
v -5.938765 6.357718 -1.824937
v -3.248144 7.818241 -1.757493
v -5.938765 7.818241 -0.719603
v -6.041982 7.637589 -0.719603
v -6.041982 7.637589 -1.757493
v -5.938765 7.818241 -1.757493
v -3.248145 7.637589 -0.657094
v -5.938765 7.637589 -0.657094
v -5.938765 7.637589 -0.719603
v -3.248145 7.637589 -1.824937
v -5.938765 7.637589 -1.824937
v -5.938765 7.637589 -1.757493
v -3.248145 6.357718 -1.757493
v -5.938765 6.357718 -1.757493
v -5.938765 6.357718 -0.719603
v -3.248145 6.357718 -0.719603
v -5.938765 6.420226 -1.824937
v -3.248145 6.420226 -1.824937
v -3.248145 6.420226 -0.657094
v -5.938765 6.420226 -0.657094
v -3.248145 6.420226 -1.757493
v -3.248145 6.420226 -0.719603
v -5.938765 7.028908 -0.719603
v -5.938765 7.028908 -1.757493
v -6.041982 7.028908 -0.719603
v -6.041982 7.028908 -1.757493
v -3.248145 7.028908 -1.824937
v -5.938765 7.028908 -1.824937
v -3.248145 7.028908 -0.657094
v -5.938765 7.028908 -0.657094
v -3.248145 7.028908 -1.757493
v -3.248145 7.028908 -0.719603
v 3.248442 6.357718 -1.824937
v 3.248442 7.637589 -1.757493
v 3.248442 6.357718 -0.657094
v 3.248442 7.637589 -0.719603
v 5.939062 6.420226 -1.757493
v 5.939062 6.420226 -0.719603
v 3.248442 7.818241 -0.719603
v 5.939062 6.357718 -0.657094
v 5.939062 6.357718 -1.824937
v 3.248442 7.818241 -1.757493
v 5.939062 7.818241 -0.719603
v 6.042279 7.637589 -0.719603
v 6.042279 7.637589 -1.757493
v 5.939062 7.818241 -1.757493
v 3.248442 7.637589 -0.657094
v 5.939062 7.637589 -0.657094
v 5.939062 7.637589 -0.719603
v 3.248442 7.637589 -1.824937
v 5.939062 7.637589 -1.824937
v 5.939062 7.637589 -1.757493
v 3.248442 6.357718 -1.757493
v 5.939062 6.357718 -1.757493
v 5.939062 6.357718 -0.719603
v 3.248442 6.357718 -0.719603
v 5.939062 6.420226 -1.824937
v 3.248442 6.420226 -1.824937
v 3.248442 6.420226 -0.657094
v 5.939062 6.420226 -0.657094
v 3.248442 6.420226 -1.757493
v 3.248442 6.420226 -0.719603
v 5.939062 7.028908 -0.719603
v 5.939062 7.028908 -1.757493
v 6.042279 7.028908 -0.719603
v 6.042279 7.028908 -1.757493
v 3.248442 7.028908 -1.824937
v 5.939062 7.028908 -1.824937
v 3.248442 7.028908 -0.657094
v 5.939062 7.028908 -0.657094
v 3.248442 7.028908 -1.757493
v 3.248442 7.028908 -0.719603
v -2.348639 4.889314 -0.863443
v -2.348639 5.904628 -0.863443
v -2.348639 4.889314 -0.734274
v -2.348639 5.904628 -0.734274
v -2.949681 4.889314 -0.863443
v -2.949681 5.904628 -0.863443
v -2.949681 4.889314 -0.734274
v -2.949681 5.904628 -0.734274
v 2.949801 0.911731 -0.863444
v 2.949801 1.291895 -0.863444
v 2.949801 0.911731 -0.734274
v 2.949801 1.291895 -0.734274
v 2.739175 0.911731 -0.863444
v 2.739175 1.291895 -0.863444
v 2.739175 0.911731 -0.734274
v 2.739175 1.291895 -0.734274
v 3.164143 3.317337 -0.863443
v 3.164143 3.697501 -0.863443
v 3.164143 3.317337 -0.734274
v 3.164143 3.697501 -0.734274
v 2.953516 3.317337 -0.863443
v 2.953516 3.697501 -0.863443
v 2.953516 3.317337 -0.734274
v 2.953516 3.697501 -0.734274
v -2.540256 9.237550 -1.064297
v -2.540256 9.434002 -1.260749
v -3.443873 9.434002 -1.260749
v -3.443873 9.237550 -1.064297
v -2.097248 9.237550 -1.064297
v -1.900797 9.434002 -1.260749
v -1.900797 7.613581 -1.260749
v -2.097248 7.613581 -1.064297
v -3.886880 9.237550 -1.064297
v -4.083332 9.434002 -1.260749
v -3.886880 7.613581 -1.064297
v -4.083332 7.613581 -1.260749
v 2.540256 9.434002 -1.260749
v 2.540256 9.237550 -1.064297
v 3.443873 9.237550 -1.064297
v 3.443873 9.434002 -1.260749
v 2.097248 9.237550 -1.064297
v 1.900797 9.434002 -1.260749
v 2.097248 7.613581 -1.064297
v 1.900797 7.613581 -1.260749
v 3.886880 9.237550 -1.064297
v 4.083332 9.434002 -1.260749
v 4.083332 7.613581 -1.260749
v 3.886880 7.613581 -1.064297
vn -0.0000 -0.0000 1.0000
vn -0.0000 -0.0000 -1.0000
vn -0.0000 1.0000 -0.0000
vn -0.0000 -1.0000 -0.0000
vn -1.0000 -0.0000 -0.0000
vn -0.7529 -0.0000 0.6581
vn 0.9686 -0.0000 0.2486
vn -0.9686 -0.0000 0.2486
vn -0.0000 0.7633 0.6460
vn -0.0000 -0.7633 0.6460
vn 1.0000 -0.0000 -0.0000
vn 0.7529 -0.0000 0.6581
vn -0.8683 0.4961 -0.0000
vn 0.8683 0.4961 -0.0000
vn -0.0000 0.7071 0.7071
vn 0.7071 -0.0000 0.7071
vn -0.7071 -0.0000 0.7071
vt 0.406735 0.432629
vt 0.406954 0.438394
vt 0.403732 0.438515
vt 0.403523 0.432755
vt 0.683931 0.946516
vt 0.554334 0.947093
vt 0.551289 0.603007
vt 0.684031 0.602598
vt 0.803883 0.158592
vt 0.803883 0.164544
vt 0.800556 0.164544
vt 0.800556 0.158592
vt 0.803883 0.164544
vt 0.803883 0.158592
vt 0.807210 0.158592
vt 0.807210 0.164544
vt 0.029622 0.601994
vt 0.033112 0.442255
vt 0.036462 0.442328
vt 0.033096 0.596466
vt 0.803883 0.000000
vt 0.807210 0.005562
vt 0.029622 0.164544
vt 0.029622 0.298579
vt 0.000000 0.298579
vt 0.000000 0.164544
vt 0.029622 -0.000000
vt 0.029622 0.158592
vt 0.000000 0.158592
vt 0.000000 -0.000000
vt 0.792954 0.438565
vt 0.763331 0.438565
vt 0.763331 0.432614
vt 0.792954 0.432614
vt 0.844434 -0.000000
vt 0.844434 0.357201
vt 0.814812 0.357201
vt 0.814812 -0.000000
vt 0.792954 0.298579
vt 0.763331 0.298579
vt 0.865201 0.003327
vt 0.865201 0.353875
vt 0.857599 0.353875
vt 0.857599 0.003327
vt 0.792954 0.597158
vt 0.763331 0.597158
vt 0.194071 0.613835
vt 0.042019 0.613067
vt 0.042106 0.601995
vt 0.196653 0.603219
vt 0.040959 0.615262
vt 0.040566 0.965181
vt 0.029622 0.965169
vt 0.030015 0.615250
vt 0.418173 0.953207
vt 0.415675 0.964166
vt 0.412783 0.963461
vt 0.415575 0.952012
vt 0.792954 0.164544
vt 0.792954 0.158592
vt 0.814812 0.158592
vt 0.814812 0.164544
vt 0.041618 0.967382
vt 0.193803 0.966901
vt 0.196320 0.977503
vt 0.041760 0.980120
vt 0.554375 0.951367
vt 0.554533 0.963268
vt 0.814812 0.005562
vt 0.045293 0.618031
vt 0.044907 0.962422
vt 0.800556 0.298579
vt 0.792954 0.298579
vt 0.800556 0.005562
vt 0.792954 0.005562
vt 0.033242 0.436261
vt 0.036603 0.436354
vt 0.803883 0.000000
vt 0.193970 0.962589
vt 0.196199 0.965636
vt 0.803883 0.298579
vt 0.418393 0.598320
vt 0.418213 0.602653
vt 0.415986 0.599581
vt 0.412716 0.591962
vt 0.409293 0.586698
vt 0.417817 0.948706
vt 0.050213 0.436578
vt 0.390265 0.433094
vt 0.390373 0.438918
vt 0.050208 0.442496
vt 0.414429 0.948702
vt 0.414826 0.602649
vt 0.870763 0.000000
vt 0.870763 0.357201
vt 0.876325 -0.000000
vt 0.881886 0.003327
vt 0.881886 0.353875
vt 0.876325 0.357201
vt 0.803883 0.298579
vt 0.807210 0.298579
vt 0.412783 0.427052
vt 0.412784 0.293017
vt 0.763331 0.293017
vt 0.763331 0.427052
vt 0.037693 0.300167
vt 0.041077 0.300171
vt 0.401175 0.300255
vt 0.397879 0.300255
vt 0.814812 0.298579
vt 0.551288 0.598732
vt 0.415919 0.587712
vt 0.551284 0.586034
vt 0.763331 0.586034
vt 0.412783 0.586034
vt 0.412783 0.433003
vt 0.763331 0.433003
vt 0.400854 0.432857
vt 0.401045 0.438611
vt 0.039243 0.442387
vt 0.039359 0.436427
vt 0.199452 0.976655
vt 0.199452 0.603946
vt 0.196573 0.615028
vt 0.412783 0.588545
vt 0.194356 0.618198
vt 0.197728 0.618202
vt 0.197342 0.962593
vt 0.406766 0.167899
vt 0.403554 0.167772
vt 0.403764 0.162013
vt 0.406985 0.162135
vt 0.803883 0.438565
vt 0.800556 0.438565
vt 0.800556 0.432614
vt 0.803883 0.432614
vt 0.803883 0.432614
vt 0.807210 0.432614
vt 0.807210 0.438565
vt 0.803883 0.438565
vt 0.029622 -0.000000
vt 0.033071 0.005465
vt 0.036711 0.158021
vt 0.033394 0.158100
vt 0.807210 0.591596
vt 0.803883 0.597158
vt 0.000000 0.432614
vt 0.029622 0.432614
vt 0.029622 0.597157
vt 0.000000 0.597157
vt 0.000000 0.438565
vt 0.029622 0.438565
vt 0.792954 0.158592
vt 0.792954 0.164544
vt 0.763331 0.164544
vt 0.763331 0.158592
vt 0.000000 0.954359
vt 0.029622 0.954359
vt 0.857599 0.003327
vt 0.857599 0.353875
vt 0.849996 0.353875
vt 0.849996 0.003327
vt 0.763331 0.000000
vt 0.792954 0.000000
vt 0.809670 0.608828
vt 0.807100 0.598209
vt 0.961648 0.597158
vt 0.961723 0.608230
vt 0.973725 0.610427
vt 0.973725 0.960345
vt 0.962781 0.960345
vt 0.962781 0.610427
vt 0.683683 0.950775
vt 0.686100 0.949592
vt 0.688992 0.960230
vt 0.686305 0.960960
vt 0.792954 0.438565
vt 0.792954 0.432614
vt 0.814812 0.432614
vt 0.814812 0.438565
vt 0.961727 0.962546
vt 0.961570 0.975284
vt 0.807013 0.972493
vt 0.809543 0.961894
vt 0.814812 0.591596
vt 0.958444 0.957582
vt 0.958444 0.613190
vt 0.800556 0.591596
vt 0.792954 0.591596
vt 0.036840 0.163949
vt 0.033536 0.164033
vt 0.803883 0.597158
vt 0.809380 0.957582
vt 0.807148 0.960627
vt 0.683851 0.598276
vt 0.686252 0.599534
vt 0.409359 0.013858
vt 0.412783 0.008595
vt 0.050414 0.163748
vt 0.050410 0.157841
vt 0.390408 0.161606
vt 0.390298 0.167428
vt 0.687398 0.602599
vt 0.687297 0.946517
vt 0.844435 0.357201
vt 0.844435 0.000000
vt 0.870763 0.003327
vt 0.876325 -0.000000
vt 0.870763 0.353875
vt 0.763331 0.158982
vt 0.412784 0.158982
vt 0.686318 0.587695
vt 0.809380 0.613190
vt 0.763331 0.000000
vt 0.763331 0.153031
vt 0.412784 0.153031
vt 0.412784 -0.000000
vt 0.401078 0.161917
vt 0.400885 0.167669
vt 0.039586 0.163883
vt 0.039475 0.157959
vt 0.803883 0.971642
vt 0.807167 0.610018
vt 0.804301 0.598933
vt 0.689446 0.588525
vt 0.806009 0.957582
vt 0.806009 0.613190
vt 0.283752 0.825080
vt 0.199452 0.825080
vt 0.199452 0.795468
vt 0.283752 0.795468
vt 0.941423 0.504931
vt 0.941423 0.589231
vt 0.923072 0.589231
vt 0.923072 0.504931
vt 0.881227 0.589231
vt 0.881227 0.504931
vt 0.881227 0.486579
vt 0.923072 0.486579
vt 0.959507 0.029612
vt 0.959507 0.071457
vt 0.941155 0.071457
vt 0.941155 0.029612
vt 0.862875 0.589231
vt 0.862875 0.504931
vt 0.199452 0.601995
vt 0.283752 0.601995
vt 0.283752 0.631607
vt 0.199452 0.631607
vt 0.368052 0.601994
vt 0.368052 0.631607
vt 0.283752 0.631607
vt 0.283752 0.601994
vt 0.881886 0.267547
vt 0.900238 0.267547
vt 0.900238 0.351847
vt 0.881886 0.351847
vt 0.942083 0.267547
vt 0.942083 0.351847
vt 0.942083 0.249195
vt 0.900238 0.249195
vt 0.707798 0.965954
vt 0.689446 0.965954
vt 0.689446 0.924110
vt 0.707798 0.924110
vt 0.960435 0.267547
vt 0.960435 0.351847
vt 0.283752 0.825080
vt 0.283752 0.795468
vt 0.368052 0.795468
vt 0.368052 0.825080
vt 0.692340 0.642408
vt 0.740403 0.642408
vt 0.740403 0.645302
vt 0.692340 0.645302
vt 0.862875 0.395023
vt 0.814812 0.395023
vt 0.814812 0.385388
vt 0.862875 0.385388
vt 0.862875 0.357202
vt 0.814812 0.357202
vt 0.207817 0.825080
vt 0.207817 0.829860
vt 0.199452 0.829860
vt 0.312254 0.825080
vt 0.320619 0.829860
vt 0.312254 0.829860
vt 0.284067 0.829860
vt 0.284067 0.825080
vt 0.799671 0.953766
vt 0.799671 0.962132
vt 0.751609 0.962132
vt 0.751609 0.953766
vt 0.689446 0.645302
vt 0.689446 0.642408
vt 0.692340 0.614221
vt 0.689446 0.614221
vt 0.689446 0.586034
vt 0.692340 0.586034
vt 0.743526 0.645302
vt 0.743526 0.642408
vt 0.740403 0.614221
vt 0.740403 0.586034
vt 0.743526 0.586034
vt 0.743526 0.614221
vt 0.748714 0.894497
vt 0.751609 0.894498
vt 0.751609 0.897392
vt 0.748714 0.897392
vt 0.799671 0.894497
vt 0.799671 0.897392
vt 0.802795 0.894498
vt 0.802795 0.897392
vt 0.751609 0.925579
vt 0.748714 0.925579
vt 0.802795 0.925579
vt 0.802795 0.953766
vt 0.799671 0.925579
vt 0.748714 0.953766
vt 0.236004 0.829860
vt 0.236004 0.825080
vt 0.689446 0.894497
vt 0.689446 0.769900
vt 0.717633 0.769900
vt 0.717633 0.894497
vt 0.380088 0.601995
vt 0.380088 0.726592
vt 0.377193 0.726592
vt 0.377193 0.601995
vt 0.862875 0.519621
vt 0.814812 0.519621
vt 0.740403 0.769900
vt 0.743526 0.769900
vt 0.207817 0.954457
vt 0.199452 0.954457
vt 0.320619 0.954457
vt 0.312254 0.954457
vt 0.941155 0.000000
vt 0.941155 0.124597
vt 0.912968 0.124597
vt 0.912968 0.000000
vt 0.368052 0.726592
vt 0.368052 0.601994
vt 0.371175 0.601994
vt 0.371175 0.726592
vt 0.884781 0.000000
vt 0.884781 0.124597
vt 0.881886 0.124597
vt 0.881886 0.000000
vt 0.745819 0.894497
vt 0.745819 0.769900
vt 0.748714 0.769900
vt 0.748714 0.894497
vt 0.692340 0.769900
vt 0.992341 0.225077
vt 0.992341 0.227972
vt 0.944278 0.227972
vt 0.944278 0.225077
vt 0.792954 0.721755
vt 0.792954 0.731390
vt 0.744891 0.731390
vt 0.744891 0.721755
vt 0.792954 0.759577
vt 0.744891 0.759577
vt 0.975677 0.357201
vt 0.984043 0.361981
vt 0.975677 0.361981
vt 0.871241 0.357201
vt 0.871241 0.361981
vt 0.862875 0.361981
vt 0.899428 0.361981
vt 0.899428 0.357201
vt 0.944278 0.160337
vt 0.992341 0.160337
vt 0.992341 0.168703
vt 0.944278 0.168703
vt 0.995235 0.227972
vt 0.995235 0.225077
vt 0.992341 0.196890
vt 0.992341 0.168703
vt 0.995235 0.168703
vt 0.995235 0.196890
vt 0.941155 0.227972
vt 0.941155 0.225077
vt 0.944278 0.196890
vt 0.941155 0.196890
vt 0.941155 0.168703
vt 0.995235 0.101069
vt 0.995235 0.103964
vt 0.992341 0.103964
vt 0.992341 0.101069
vt 0.944278 0.103964
vt 0.944278 0.101069
vt 0.941155 0.103964
vt 0.941155 0.101069
vt 0.992341 0.132151
vt 0.995235 0.132151
vt 0.941155 0.132151
vt 0.944278 0.132151
vt 0.941155 0.160337
vt 0.995235 0.160337
vt 0.947490 0.357201
vt 0.947490 0.361981
vt 0.881886 0.124598
vt 0.910073 0.124598
vt 0.910073 0.249195
vt 0.881886 0.249195
vt 0.374299 0.601994
vt 0.377193 0.601995
vt 0.377193 0.726592
vt 0.374299 0.726592
vt 0.744891 0.597158
vt 0.792954 0.597158
vt 0.799671 0.769900
vt 0.802795 0.769900
vt 0.802795 0.894497
vt 0.799671 0.894497
vt 0.984043 0.486579
vt 0.975677 0.486579
vt 0.871241 0.486579
vt 0.862875 0.486579
vt 0.379888 0.949677
vt 0.351701 0.949677
vt 0.351701 0.825080
vt 0.379888 0.825080
vt 0.371175 0.601995
vt 0.374299 0.601994
vt 0.374299 0.726592
vt 0.371175 0.726592
vt 0.323514 0.949677
vt 0.320619 0.949677
vt 0.320619 0.825080
vt 0.323514 0.825080
vt 0.938260 0.124598
vt 0.941155 0.124598
vt 0.941155 0.249195
vt 0.938260 0.249195
vt 0.751609 0.769900
vt 0.751609 0.894497
vt 0.748714 0.894497
vt 0.748714 0.769900
vt 0.407848 0.732574
vt 0.407848 0.779591
vt 0.401867 0.779591
vt 0.401867 0.732574
vt 0.374034 0.779591
vt 0.374034 0.732574
vt 0.368052 0.779591
vt 0.368052 0.732574
vt 0.374034 0.726592
vt 0.401867 0.726592
vt 0.401867 0.785572
vt 0.374034 0.785572
vt 0.401805 0.607976
vt 0.401805 0.625581
vt 0.395823 0.625581
vt 0.395823 0.607976
vt 0.386069 0.625581
vt 0.386069 0.607976
vt 0.380088 0.625581
vt 0.380088 0.607976
vt 0.386069 0.601994
vt 0.395823 0.601994
vt 0.395823 0.631562
vt 0.386069 0.631562
vt 0.401805 0.637544
vt 0.401805 0.655149
vt 0.395823 0.655149
vt 0.395823 0.637544
vt 0.386069 0.655149
vt 0.386069 0.637544
vt 0.380088 0.655149
vt 0.380088 0.637544
vt 0.386069 0.631562
vt 0.395823 0.631562
vt 0.395823 0.661130
vt 0.386069 0.661130
vt 0.987134 0.071457
vt 0.987134 0.029612
vt 1.000000 0.029612
vt 1.000000 0.071457
vt 0.274655 0.672100
vt 0.199452 0.672100
vt 0.199452 0.659234
vt 0.283752 0.659234
vt 0.283752 0.767840
vt 0.199452 0.767840
vt 0.199452 0.754974
vt 0.274655 0.754974
vt 1.000000 0.091972
vt 0.987134 0.101069
vt 0.987134 0.000000
vt 1.000000 0.009097
vt 0.748291 0.924110
vt 0.748291 0.965954
vt 0.735425 0.965954
vt 0.735425 0.924110
vt 0.368052 0.767840
vt 0.283752 0.767840
vt 0.283752 0.754974
vt 0.358955 0.754974
vt 0.358955 0.672100
vt 0.283752 0.672100
vt 0.283752 0.659234
vt 0.368052 0.659234
vt 0.735425 0.894497
vt 0.748291 0.903595
vt 0.748291 0.986469
vt 0.735425 0.995566
vt 0.959507 0.101069
vt 0.274655 0.692615
vt 0.199452 0.692615
vt 0.274655 0.734460
vt 0.199452 0.734460
vt 0.959507 0.000000
vt 0.707798 0.894497
vt 0.283752 0.734460
vt 0.283752 0.692615
vt 0.358955 0.692615
vt 0.358955 0.734460
vt 0.707798 0.995566
s 0
usemtl M_MetalInterface
f 2/1/1 1/2/1 23/3/1 20/4/1
f 83/5/1 51/6/1 46/7/1 94/8/1
f 10/9/2 11/10/2 27/11/2 36/12/2
f 8/13/2 12/14/2 31/15/2 34/16/2
f 4/17/1 5/18/1 21/19/1 15/20/1
f 12/14/2 9/21/2 35/22/2 31/15/2
f 2/23/3 54/24/3 52/25/3 11/26/3
f 3/27/3 1/28/3 10/29/3 7/30/3
f 5/31/4 12/32/4 8/33/4 6/34/4
f 2/23/3 11/26/3 10/29/3 1/28/3
f 4/35/5 3/36/5 7/37/5 9/38/5
f 43/39/4 6/34/4 8/33/4 44/40/4
f 35/41/5 16/42/5 17/43/5 18/44/5
f 5/31/4 4/45/4 9/46/4 12/32/4
f 39/47/4 37/48/4 15/49/4 21/50/4
f 37/51/5 40/52/5 24/53/5 15/54/5
f 38/55/5 20/56/5 58/57/5 57/58/5
f 27/11/3 28/59/3 29/60/3 36/12/3
f 31/15/4 32/61/4 33/62/4 34/16/4
f 40/63/3 41/64/3 23/65/3 24/66/3
f 38/55/3 55/67/3 53/68/3 20/56/3
f 31/15/4 35/22/4 18/69/4 32/61/4
f 14/70/6 13/71/6 40/52/6 37/51/6
f 27/11/3 56/72/3 50/73/3 28/59/3
f 16/74/3 36/12/3 29/60/3 17/75/3
f 5/18/1 6/76/1 22/77/1 21/19/1
f 7/78/2 10/9/2 36/12/2 16/74/2
f 26/79/7 63/80/7 41/64/7
f 11/10/2 52/81/2 56/72/2 27/11/2
f 42/82/8 30/83/8 64/84/8
f 1/2/1 3/85/1 24/86/1 23/3/1
f 13/71/9 26/79/9 41/64/9 40/63/9
f 19/87/9 51/6/9 55/67/9 38/55/9
f 64/88/1 57/89/1 63/90/1 61/91/1
f 30/83/8 19/87/8 57/92/8 64/93/8
f 9/94/2 7/95/2 16/42/2 35/41/2
f 57/58/8 19/87/8 38/55/8
f 4/96/1 15/97/1 24/98/1 3/99/1
f 44/100/2 8/13/2 34/16/2 48/101/2
f 28/102/2 50/103/2 47/104/2 33/105/2
f 6/76/1 43/106/1 45/107/1 22/77/1
f 54/108/1 2/1/1 20/4/1 53/109/1
f 48/101/4 34/16/4 33/62/4 47/110/4
f 49/111/4 42/82/4 22/112/4 45/113/4
f 18/114/2 17/115/2 29/116/2 32/117/2
f 46/7/10 30/83/10 42/82/10 49/111/10
f 57/89/3 58/118/3 62/119/3 63/90/3
f 61/91/4 59/120/4 60/121/4 64/88/4
f 23/65/11 41/64/11 63/80/11 62/122/11
f 39/47/11 21/50/11 59/123/11 61/124/11
f 21/19/1 22/77/1 60/121/1 59/120/1
f 20/4/1 23/3/1 62/119/1 58/118/1
f 22/112/5 42/82/5 64/84/5 60/125/5
f 39/47/7 61/124/7 25/126/7
f 25/126/7 61/127/7 63/128/7 26/79/7
f 25/126/10 14/70/10 37/48/10 39/47/10
f 33/105/2 32/117/2 29/116/2 28/102/2
f 66/129/1 84/130/1 87/131/1 65/132/1
f 30/83/1 46/7/1 51/6/1 19/87/1
f 74/133/2 100/134/2 91/135/2 75/136/2
f 72/137/2 98/138/2 95/139/2 76/140/2
f 68/141/1 79/142/1 85/143/1 69/144/1
f 76/140/2 95/139/2 99/145/2 73/146/2
f 75/147/3 52/25/3 54/24/3 66/148/3
f 67/149/3 71/150/3 74/151/3 65/152/3
f 69/153/4 70/154/4 72/155/4 76/156/4
f 66/148/3 65/152/3 74/151/3 75/147/3
f 73/157/11 71/150/11 67/149/11 68/158/11
f 43/39/4 44/40/4 72/155/4 70/154/4
f 82/159/11 81/160/11 80/161/11 99/162/11
f 69/153/4 76/156/4 73/163/4 68/164/4
f 103/165/4 85/166/4 79/167/4 101/168/4
f 79/169/11 88/170/11 104/171/11 101/172/11
f 102/173/11 107/174/11 108/175/11 84/176/11
f 91/135/3 100/134/3 93/177/3 92/178/3
f 95/139/4 98/138/4 97/179/4 96/180/4
f 104/181/3 88/182/3 87/183/3 105/184/3
f 84/176/3 53/68/3 55/67/3 102/173/3
f 95/139/4 96/180/4 82/185/4 99/145/4
f 101/172/12 104/171/12 77/186/12 78/187/12
f 92/178/3 50/73/3 56/72/3 91/135/3
f 80/188/3 81/189/3 93/177/3 100/134/3
f 69/144/1 85/143/1 86/190/1 70/191/1
f 71/192/2 80/188/2 100/134/2 74/133/2
f 90/193/8 105/184/8 113/194/8
f 91/135/2 56/72/2 52/81/2 75/136/2
f 106/195/7 114/196/7 94/8/7
f 65/132/1 87/131/1 88/197/1 67/198/1
f 77/186/9 104/181/9 105/184/9 90/193/9
f 102/173/9 55/67/9 51/6/9 83/5/9
f 114/199/1 111/200/1 113/201/1 107/202/1
f 114/203/7 107/204/7 83/5/7 94/8/7
f 99/162/2 80/161/2 71/205/2 73/206/2
f 107/174/7 102/173/7 83/5/7
f 79/207/1 68/208/1 67/99/1 88/209/1
f 44/100/2 48/101/2 98/138/2 72/137/2
f 97/210/2 47/104/2 50/103/2 92/211/2
f 86/190/1 45/107/1 43/106/1 70/191/1
f 54/108/1 53/109/1 84/130/1 66/129/1
f 48/101/4 47/110/4 97/179/4 98/138/4
f 49/111/4 45/113/4 86/212/4 106/195/4
f 89/213/1 78/187/1 77/186/1 90/193/1
f 82/214/2 96/215/2 93/216/2 81/217/2
f 46/7/10 49/111/10 106/195/10 94/8/10
f 14/70/1 25/126/1 26/79/1 13/71/1
f 107/202/3 113/201/3 112/218/3 108/219/3
f 111/200/4 114/199/4 110/220/4 109/221/4
f 87/183/5 112/222/5 113/194/5 105/184/5
f 103/165/5 111/223/5 109/224/5 85/166/5
f 85/143/1 109/221/1 110/220/1 86/190/1
f 84/130/1 108/219/1 112/218/1 87/131/1
f 86/212/11 110/225/11 114/196/11 106/195/11
f 103/165/8 89/213/8 111/223/8
f 89/213/8 90/193/8 113/226/8 111/227/8
f 89/213/10 103/165/10 101/168/10 78/187/10
f 96/215/2 97/210/2 92/211/2 93/216/2
f 124/228/2 123/229/2 126/230/2 128/231/2
f 123/232/5 124/233/5 119/234/5 118/235/5
f 118/235/2 119/234/2 116/236/2 115/237/2
f 121/238/4 123/239/4 118/235/4 115/237/4
f 124/240/3 122/241/3 116/242/3 119/243/3
f 115/237/11 116/236/11 122/244/11 121/245/11
f 121/246/2 122/247/2 125/248/2 127/249/2
f 138/250/2 142/251/2 140/252/2 137/253/2
f 137/254/11 132/255/11 133/256/11 138/257/11
f 132/255/2 129/258/2 130/259/2 133/256/2
f 135/260/4 129/258/4 132/255/4 137/261/4
f 138/262/3 133/263/3 130/264/3 136/265/3
f 129/258/5 135/266/5 136/267/5 130/259/5
f 135/268/2 141/269/2 139/270/2 136/271/2
f 148/272/5 147/273/5 164/274/5 165/275/5
f 153/276/13 156/277/13 155/278/13 154/279/13
f 175/280/5 154/279/5 155/278/5 176/281/5
f 154/282/1 159/283/1 153/284/1
f 155/285/2 156/286/2 162/287/2
f 174/288/2 176/289/2 155/285/2 162/287/2
f 144/290/11 152/291/11 149/292/11 146/293/11
f 150/294/5 170/295/5 148/272/5 165/275/5
f 173/296/5 180/297/5 158/298/5 159/299/5
f 151/300/5 164/274/5 147/273/5 167/301/5
f 174/302/5 162/303/5 161/304/5 178/305/5
f 145/306/11 166/307/11 172/308/11 169/309/11
f 166/307/11 163/310/11 171/311/11 172/308/11
f 163/310/11 143/312/11 168/313/11 171/311/11
f 182/314/11 179/315/11 169/309/11 172/308/11
f 177/316/11 160/317/11 144/290/11 181/318/11
f 181/318/11 182/314/11 172/308/11 171/311/11
f 144/290/11 146/293/11 182/314/11 181/318/11
f 168/313/11 177/316/11 181/318/11 171/311/11
f 146/293/11 157/319/11 179/315/11 182/314/11
f 147/273/5 174/302/5 178/305/5 167/301/5
f 148/272/5 170/295/5 180/297/5 173/296/5
f 174/288/4 173/320/4 175/321/4 176/289/4
f 159/283/1 154/282/1 175/321/1 173/320/1
f 148/272/5 173/296/5 174/302/5 147/273/5
f 157/322/1 158/323/1 180/324/1 179/325/1
f 146/326/3 159/327/3 158/328/3 157/329/3
f 153/276/3 149/330/3 152/331/3 156/277/3
f 163/332/4 164/274/4 151/300/4 143/333/4
f 159/283/1 146/334/1 149/335/1 153/284/1
f 156/286/2 152/336/2 144/337/2 162/287/2
f 161/338/2 160/339/2 177/340/2 178/341/2
f 160/342/3 161/343/3 162/344/3 144/345/3
f 167/346/2 168/347/2 143/348/2 151/349/2
f 169/350/1 170/351/1 150/352/1 145/353/1
f 178/341/2 177/340/2 168/347/2 167/346/2
f 179/325/1 180/324/1 170/351/1 169/350/1
f 166/354/4 145/323/4 150/294/4 165/275/4
f 164/274/4 163/332/4 166/354/4 165/275/4
f 188/355/11 205/356/11 204/357/11 187/358/11
f 193/359/14 194/360/14 195/361/14 196/362/14
f 215/363/11 216/364/11 195/361/11 194/360/11
f 194/365/1 193/366/1 199/367/1
f 195/368/2 202/369/2 196/370/2
f 214/371/2 202/369/2 195/368/2 216/372/2
f 184/373/5 186/374/5 189/375/5 192/376/5
f 190/377/11 205/356/11 188/355/11 210/378/11
f 213/379/11 199/380/11 198/381/11 220/382/11
f 191/383/11 207/384/11 187/358/11 204/357/11
f 214/385/11 218/386/11 201/387/11 202/376/11
f 185/388/5 209/389/5 212/390/5 206/391/5
f 206/391/5 212/390/5 211/392/5 203/393/5
f 203/393/5 211/392/5 208/394/5 183/395/5
f 222/396/5 212/390/5 209/389/5 219/397/5
f 217/398/5 221/399/5 184/373/5 200/400/5
f 221/399/5 211/392/5 212/390/5 222/396/5
f 184/373/5 221/399/5 222/396/5 186/374/5
f 208/394/5 211/392/5 221/399/5 217/398/5
f 186/374/5 222/396/5 219/397/5 197/401/5
f 187/358/11 207/384/11 218/386/11 214/385/11
f 188/355/11 213/379/11 220/382/11 210/378/11
f 214/371/4 216/372/4 215/402/4 213/403/4
f 199/367/1 213/403/1 215/402/1 194/365/1
f 188/355/11 187/358/11 214/385/11 213/379/11
f 197/404/1 219/405/1 220/406/1 198/407/1
f 186/408/3 197/409/3 198/410/3 199/411/3
f 193/359/3 196/362/3 192/412/3 189/413/3
f 203/414/4 183/415/4 191/416/4 204/417/4
f 199/367/1 193/366/1 189/418/1 186/419/1
f 196/370/2 202/369/2 184/420/2 192/421/2
f 201/422/2 218/423/2 217/424/2 200/425/2
f 200/426/3 184/427/3 202/428/3 201/429/3
f 207/430/2 191/431/2 183/432/2 208/433/2
f 209/434/1 185/435/1 190/436/1 210/437/1
f 218/423/2 207/430/2 208/433/2 217/424/2
f 219/405/1 209/434/1 210/437/1 220/406/1
f 206/438/4 205/439/4 190/440/4 185/441/4
f 204/417/4 205/439/4 206/438/4 203/414/4
f 223/442/11 224/443/11 226/444/11 225/445/11
f 225/445/1 226/444/1 230/446/1 229/447/1
f 229/447/5 230/446/5 228/448/5 227/449/5
f 225/445/4 229/447/4 227/450/4 223/451/4
f 230/446/3 226/444/3 224/452/3 228/453/3
f 231/454/11 232/455/11 234/456/11 233/457/11
f 233/457/1 234/456/1 238/458/1 237/459/1
f 237/459/5 238/458/5 236/460/5 235/461/5
f 233/457/4 237/459/4 235/462/4 231/463/4
f 238/458/3 234/456/3 232/464/3 236/465/3
f 239/466/11 240/467/11 242/468/11 241/469/11
f 241/469/1 242/468/1 246/470/1 245/471/1
f 245/471/5 246/470/5 244/472/5 243/473/5
f 241/469/4 245/471/4 243/474/4 239/475/4
f 246/470/3 242/468/3 240/476/3 244/477/3
f 248/478/15 249/479/15 250/480/15 247/481/15
f 251/482/16 254/483/16 253/484/16 252/485/16
f 256/486/17 258/487/17 257/488/17 255/489/17
f 247/481/15 251/490/15 252/491/15 248/478/15
f 249/479/15 256/492/15 255/493/15 250/480/15
f 260/494/15 261/495/15 262/496/15 259/497/15
f 264/498/17 266/499/17 265/500/17 263/501/17
f 267/502/16 270/503/16 269/504/16 268/505/16
f 259/497/15 264/506/15 263/507/15 260/494/15
f 261/495/15 267/508/15 268/509/15 262/496/15
f 122/241/3 248/478/3 252/491/3 125/510/3
f 249/479/3 248/478/3 122/241/3 124/240/3
f 247/511/1 117/512/1 254/483/1 251/482/1
f 117/512/1 247/511/1 250/513/1 120/514/1
f 249/479/3 124/240/3 128/515/3 256/492/3
f 120/514/1 250/513/1 255/489/1 257/488/1
f 127/249/11 125/248/11 252/485/11 253/484/11
f 258/487/5 256/486/5 128/231/5 126/230/5
f 136/265/3 139/516/3 264/506/3 259/497/3
f 131/517/1 134/518/1 261/519/1 260/520/1
f 262/496/3 138/262/3 136/265/3 259/497/3
f 260/520/1 263/501/1 265/500/1 131/517/1
f 262/496/3 268/509/3 142/521/3 138/262/3
f 134/518/1 270/503/1 267/502/1 261/519/1
f 141/269/5 266/499/5 264/498/5 139/270/5
f 269/504/11 140/252/11 142/251/11 268/505/11
