# Blender 5.2.0 LTS
# www.blender.org
mtllib WareHouseBulkheadDoor.mtl
o WareHouseBulkheadDoor
v 7.874079 0.100005 -1.868145
v 7.874079 7.813591 -1.868145
v 7.874079 0.100005 -0.756897
v 7.874079 7.813591 -0.756897
v -7.874080 0.100005 -1.868145
v -7.874080 7.813591 -1.868145
v -7.874080 0.100005 -0.756897
v -7.874080 7.813591 -0.756897
v -3.026829 7.813591 -2.036024
v -3.026829 9.634012 -2.036024
v -3.026829 7.813591 -1.064297
v -3.026829 9.634012 -1.064297
v -4.847251 7.813591 -2.036024
v -4.847251 9.634012 -2.036024
v -4.847251 7.813591 -1.064297
v -4.847251 9.634012 -1.064297
v -3.026829 7.813591 -1.703976
v -3.026829 9.634012 -1.703976
v -4.847251 7.813591 -1.703976
v -4.847251 9.634012 -1.703976
v -2.446195 9.634012 -1.703976
v -2.446195 9.634012 -1.064297
v -2.446195 7.813591 -1.064297
v -5.427885 9.634012 -1.064297
v -5.427885 7.813591 -1.064297
v -5.427885 7.813591 -1.703976
v -2.446195 7.813591 -1.703976
v -5.427885 9.634012 -1.703976
v 3.026829 7.813591 -2.036024
v 3.026829 9.634012 -2.036024
v 3.026829 7.813591 -1.064297
v 3.026829 9.634012 -1.064297
v 4.847250 7.813591 -2.036024
v 4.847250 9.634012 -2.036024
v 4.847250 7.813591 -1.064297
v 4.847250 9.634012 -1.064297
v 3.026829 7.813591 -1.703976
v 3.026829 9.634012 -1.703976
v 4.847250 7.813591 -1.703976
v 4.847250 9.634012 -1.703976
v 2.446194 9.634012 -1.703976
v 2.446194 9.634012 -1.064297
v 2.446194 7.813591 -1.064297
v 5.427884 9.634012 -1.064297
v 5.427884 7.813591 -1.064297
v 5.427884 7.813591 -1.703976
v 2.446194 7.813591 -1.703976
v 5.427884 9.634012 -1.703976
vn 1.0000 -0.0000 -0.0000
vn -0.0000 -0.0000 1.0000
vn -1.0000 -0.0000 -0.0000
vn -0.0000 -0.0000 -1.0000
vn -0.0000 -1.0000 -0.0000
vn -0.0000 1.0000 -0.0000
vt 0.375000 0.000000
vt 0.625000 0.000000
vt 0.625000 0.250000
vt 0.375000 0.250000
vt 0.625000 0.500000
vt 0.375000 0.500000
vt 0.625000 0.750000
vt 0.375000 0.750000
vt 0.625000 1.000000
vt 0.375000 1.000000
vt 0.125000 0.500000
vt 0.125000 0.750000
vt 0.875000 0.500000
vt 0.875000 0.750000
vt 0.625000 0.625000
vt 0.375000 0.625000
vt 0.125000 0.625000
vt 0.875000 0.625000
vt 0.625000 0.125000
vt 0.375000 0.125000
s 0
f 1/1/1 2/2/1 4/3/1 3/4/1
f 3/4/2 4/3/2 8/5/2 7/6/2
f 7/6/3 8/5/3 6/7/3 5/8/3
f 5/8/4 6/7/4 2/9/4 1/10/4
f 3/11/5 7/6/5 5/8/5 1/12/5
f 8/5/6 4/13/6 2/14/6 6/7/6
f 20/15/4 19/16/4 26/16/4 28/15/4
f 11/4/2 12/3/2 16/5/2 15/6/2
f 19/16/3 20/15/3 14/7/3 13/8/3
f 13/8/4 14/7/4 10/9/4 9/10/4
f 17/17/5 19/16/5 13/8/5 9/12/5
f 20/15/6 18/18/6 10/14/6 14/7/6
f 16/5/6 12/13/6 18/18/6 20/15/6
f 11/11/5 15/6/5 19/16/5 17/17/5
f 18/18/6 12/13/6 22/13/6 21/18/6
f 9/1/1 10/2/1 18/19/1 17/20/1
f 27/20/1 21/19/1 22/3/1 23/4/1
f 25/6/3 24/5/3 28/15/3 26/16/3
f 19/16/5 15/6/5 25/6/5 26/16/5
f 12/3/2 11/4/2 23/4/2 22/3/2
f 11/11/5 17/17/5 27/17/5 23/11/5
f 17/20/4 18/19/4 21/19/4 27/20/4
f 15/6/2 16/5/2 24/5/2 25/6/2
f 16/5/6 20/15/6 28/15/6 24/5/6
f 40/15/4 48/15/4 46/16/4 39/16/4
f 31/4/2 35/6/2 36/5/2 32/3/2
f 39/16/1 33/8/1 34/7/1 40/15/1
f 33/8/4 29/10/4 30/9/4 34/7/4
f 37/17/5 29/12/5 33/8/5 39/16/5
f 40/15/6 34/7/6 30/14/6 38/18/6
f 36/5/6 40/15/6 38/18/6 32/13/6
f 31/11/5 37/17/5 39/16/5 35/6/5
f 38/18/6 41/18/6 42/13/6 32/13/6
f 29/1/3 37/20/3 38/19/3 30/2/3
f 47/20/3 43/4/3 42/3/3 41/19/3
f 45/6/1 46/16/1 48/15/1 44/5/1
f 39/16/5 46/16/5 45/6/5 35/6/5
f 32/3/2 42/3/2 43/4/2 31/4/2
f 31/11/5 43/11/5 47/17/5 37/17/5
f 37/20/4 47/20/4 41/19/4 38/19/4
f 35/6/2 45/6/2 44/5/2 36/5/2
f 36/5/6 44/5/6 48/15/6 40/15/6
