# Blender 5.2.0 LTS
# www.blender.org
mtllib WareHouseBulkhead.mtl
o WareHouseBulkhead
v -11.102798 -0.100005 -2.121219
v -11.102798 10.431274 -2.121219
v -7.874080 -0.100005 -2.121220
v -7.874080 10.431274 -2.121220
v -11.102798 7.813591 -2.121219
v -7.874080 7.813591 -2.121220
v -11.102798 -0.100005 -2.500938
v -11.102798 10.431274 -2.500938
v -7.874080 7.813591 -2.500938
v -7.874080 10.431274 -2.500938
v -7.874080 -0.100005 -2.500938
v -11.102798 7.813591 -2.500938
v -9.488439 10.431274 -2.121219
v -9.488439 -0.100005 -2.121219
v -9.488439 7.813591 -2.121219
v -9.488439 10.431274 -2.500938
v -9.488439 -0.100005 -2.500938
v -5.249387 9.122433 -1.868145
v -2.624693 9.122433 -1.868145
v -5.249387 7.813591 -1.868145
v -2.624693 7.813591 -1.868145
v -5.249387 9.122433 -2.121220
v -11.102798 9.122433 -2.121219
v -2.624693 9.122433 -2.121220
v -7.874080 9.122433 -2.121220
v -11.102798 9.122433 -2.500938
v -5.249387 10.431274 -2.500938
v -9.488439 9.122433 -2.121219
v -2.624693 10.431274 -2.500938
v -9.488439 -0.100005 -1.868145
v -7.874080 -0.100005 -1.868145
v -5.249387 7.813591 -2.500938
v -2.624693 7.813591 -2.500938
v -7.874080 7.813591 -1.868145
v -5.249387 7.813591 -2.121220
v -7.874080 9.122433 -1.868145
v -2.624693 7.813591 -2.121220
v -9.488439 7.813591 -1.868145
v -9.488439 9.122433 -1.868145
v -5.249387 10.431274 -2.121220
v -2.624693 10.431274 -2.121220
v 0.000000 10.431274 -2.121220
v 0.000000 7.813591 -2.121220
v 0.000000 7.813591 -2.500938
v 0.000000 10.431274 -2.500938
v 0.000000 9.122433 -2.121220
v 0.000000 7.813591 -1.868145
v 0.000000 9.122433 -1.868145
v 11.102798 -0.100005 -2.121220
v 11.102798 10.431274 -2.121220
v 7.874080 -0.100005 -2.121220
v 7.874080 10.431274 -2.121220
v 11.102798 7.813591 -2.121220
v 7.874080 7.813591 -2.121220
v 11.102798 -0.100005 -2.500939
v 11.102798 10.431274 -2.500939
v 7.874080 7.813591 -2.500939
v 7.874080 10.431274 -2.500939
v 7.874080 -0.100005 -2.500939
v 11.102798 7.813591 -2.500939
v 9.488439 10.431274 -2.121220
v 9.488439 -0.100005 -2.121220
v 9.488439 7.813591 -2.121220
v 9.488439 10.431274 -2.500939
v 9.488439 -0.100005 -2.500939
v 5.249387 9.122433 -1.868145
v 2.624694 9.122433 -1.868145
v 5.249387 7.813591 -1.868145
v 2.624694 7.813591 -1.868145
v 5.249387 9.122433 -2.121220
v 11.102798 9.122433 -2.121220
v 2.624694 9.122433 -2.121220
v 7.874080 9.122433 -2.121220
v 11.102798 9.122433 -2.500939
v 5.249387 10.431274 -2.500939
v 9.488439 9.122433 -2.121220
v 2.624694 10.431274 -2.500938
v 9.488439 -0.100005 -1.868146
v 7.874080 -0.100005 -1.868146
v 5.249387 7.813591 -2.500939
v 2.624694 7.813591 -2.500938
v 7.874080 7.813591 -1.868146
v 5.249387 7.813591 -2.121220
v 7.874080 9.122433 -1.868146
v 2.624694 7.813591 -2.121220
v 9.488439 7.813591 -1.868146
v 9.488439 9.122433 -1.868146
v 5.249387 10.431274 -2.121220
v 2.624694 10.431274 -2.121220
v -3.046614 15.311573 -2.116905
v -3.046614 15.658845 -2.116905
v -3.046614 15.311573 -1.832111
v -3.046614 15.658845 -1.832111
v -4.827466 15.311573 -2.116905
v -4.827466 15.658845 -2.116905
v -4.827466 15.311573 -1.832111
v -4.827466 15.658845 -1.832111
v -3.046614 16.214479 -2.116905
v -3.046614 16.561752 -2.116905
v -3.046614 16.214479 -1.832111
v -3.046614 16.561752 -1.832111
v -4.827466 16.214479 -2.116905
v -4.827466 16.561752 -2.116905
v -4.827466 16.214479 -1.832111
v -4.827466 16.561752 -1.832111
v -3.046614 17.117388 -2.116905
v -3.046614 17.464661 -2.116905
v -3.046614 17.117388 -1.832111
v -3.046614 17.464661 -1.832111
v -4.827466 17.117388 -2.116905
v -4.827466 17.464661 -2.116905
v -4.827466 17.117388 -1.832111
v -4.827466 17.464661 -1.832111
v -3.046614 18.020294 -2.116905
v -3.046614 18.367567 -2.116905
v -3.046614 18.020294 -1.832111
v -3.046614 18.367567 -1.832111
v -4.827466 18.020294 -2.116905
v -4.827466 18.367567 -2.116905
v -4.827466 18.020294 -1.832111
v -4.827466 18.367567 -1.832111
v 4.827466 18.859676 -2.500938
v 5.249387 18.859676 -2.500938
v 5.249387 18.859676 -1.778648
v 2.624694 18.859676 -1.778648
v -4.827466 18.859676 -2.036024
v -3.046614 18.859676 -2.036024
v -2.624694 18.859676 -2.500938
v -2.624694 18.859676 -2.000938
v 3.046614 15.311573 -2.116905
v 3.046614 15.658845 -2.116905
v 3.046614 15.311573 -1.832111
v 3.046614 15.658845 -1.832111
v 4.827466 15.311573 -2.116905
v 4.827466 15.658845 -2.116905
v 4.827466 15.311573 -1.832111
v 4.827466 15.658845 -1.832111
v 3.046614 16.214479 -2.116905
v 3.046614 16.561752 -2.116905
v 3.046614 16.214479 -1.832111
v 3.046614 16.561752 -1.832111
v 4.827466 16.214479 -2.116905
v 4.827466 16.561752 -2.116905
v 4.827466 16.214479 -1.832111
v 4.827466 16.561752 -1.832111
v 3.046614 17.117388 -2.116905
v 3.046614 17.464661 -2.116905
v 3.046614 17.117388 -1.832111
v 3.046614 17.464661 -1.832111
v 4.827466 17.117388 -2.116905
v 4.827466 17.464661 -2.116905
v 4.827466 17.117388 -1.832111
v 4.827466 17.464661 -1.832111
v 3.046614 18.020294 -2.116905
v 3.046614 18.367567 -2.116905
v 3.046614 18.020294 -1.832111
v 3.046614 18.367567 -1.832111
v 4.827466 18.020294 -2.116905
v 4.827466 18.367567 -2.116905
v 4.827466 18.020294 -1.832111
v 4.827466 18.367567 -1.832111
v -5.249387 18.859676 -2.000938
v -4.827466 18.859676 -1.778648
v -3.046614 18.859676 -1.778648
v -3.046614 18.859676 -2.500938
v -4.827466 18.859676 -2.500938
v -5.249387 18.859676 -2.500938
v -5.249387 18.859676 -1.778648
v -2.624694 18.859676 -1.778648
v 4.827466 18.859676 -2.036024
v 3.046614 18.859676 -2.036024
v 2.624694 18.859676 -2.500938
v 2.624694 18.859676 -2.000938
v 5.249387 18.859676 -2.000938
v 4.827466 18.859676 -1.778648
v 3.046614 18.859676 -1.778648
v 3.046614 18.859676 -2.500938
v -2.624694 7.813591 -2.500938
v -2.624694 7.813591 -1.778648
v -5.249387 7.813591 -2.500938
v -5.249387 7.813591 -1.778648
v -4.827466 7.813591 -1.778648
v -3.046614 7.813591 -1.778648
v -3.046614 7.813591 -2.500938
v -4.827466 7.813591 -2.500938
v -2.624694 7.813591 -2.000938
v -5.249387 7.813591 -2.000938
v -3.046614 7.813591 -2.036024
v -4.827466 7.813591 -2.036024
v 2.624694 7.813591 -2.500938
v 2.624694 7.813591 -1.778648
v 5.249387 7.813591 -2.500938
v 5.249387 7.813591 -1.778648
v 4.827466 7.813591 -1.778648
v 3.046614 7.813591 -1.778648
v 3.046614 7.813591 -2.500938
v 4.827466 7.813591 -2.500938
v 2.624694 7.813591 -2.000938
v 5.249387 7.813591 -2.000938
v 3.046614 7.813591 -2.036024
v 4.827466 7.813591 -2.036024
v -3.046614 8.065428 -2.116905
v -3.046614 8.412700 -2.116905
v -3.046614 8.065428 -1.832111
v -3.046614 8.412700 -1.832111
v -4.827466 8.065428 -2.116905
v -4.827466 8.412700 -2.116905
v -4.827466 8.065428 -1.832111
v -4.827466 8.412700 -1.832111
v -3.046614 8.968334 -2.116905
v -3.046614 9.315607 -2.116905
v -3.046614 8.968334 -1.832111
v -3.046614 9.315607 -1.832111
v -4.827466 8.968334 -2.116905
v -4.827466 9.315607 -2.116905
v -4.827466 8.968334 -1.832111
v -4.827466 9.315607 -1.832111
v -3.046614 9.871243 -2.116905
v -3.046614 10.218514 -2.116905
v -3.046614 9.871243 -1.832111
v -3.046614 10.218514 -1.832111
v -4.827466 9.871243 -2.116905
v -4.827466 10.218514 -2.116905
v -4.827466 9.871243 -1.832111
v -4.827466 10.218514 -1.832111
v -3.046614 10.774150 -2.116905
v -3.046614 11.121422 -2.116905
v -3.046614 10.774150 -1.832111
v -3.046614 11.121422 -1.832111
v -4.827466 10.774150 -2.116905
v -4.827466 11.121422 -2.116905
v -4.827466 10.774150 -1.832111
v -4.827466 11.121422 -1.832111
v -3.046614 11.677057 -2.116905
v -3.046614 12.024329 -2.116905
v -3.046614 11.677057 -1.832111
v -3.046614 12.024329 -1.832111
v -4.827466 11.677057 -2.116905
v -4.827466 12.024329 -2.116905
v -4.827466 11.677057 -1.832111
v -4.827466 12.024329 -1.832111
v -3.046614 12.579965 -2.116905
v -3.046614 12.927237 -2.116905
v -3.046614 12.579965 -1.832111
v -3.046614 12.927237 -1.832111
v -4.827466 12.579965 -2.116905
v -4.827466 12.927237 -2.116905
v -4.827466 12.579965 -1.832111
v -4.827466 12.927237 -1.832111
v -3.046614 13.482872 -2.116905
v -3.046614 13.830144 -2.116905
v -3.046614 13.482872 -1.832111
v -3.046614 13.830144 -1.832111
v -4.827466 13.482872 -2.116905
v -4.827466 13.830144 -2.116905
v -4.827466 13.482872 -1.832111
v -4.827466 13.830144 -1.832111
v -3.046614 14.385779 -2.116905
v -3.046614 14.733051 -2.116905
v -3.046614 14.385779 -1.832111
v -3.046614 14.733051 -1.832111
v -4.827466 14.385779 -2.116905
v -4.827466 14.733051 -2.116905
v -4.827466 14.385779 -1.832111
v -4.827466 14.733051 -1.832111
v 3.046614 8.065428 -2.116905
v 3.046614 8.412700 -2.116905
v 3.046614 8.065428 -1.832111
v 3.046614 8.412700 -1.832111
v 4.827466 8.065428 -2.116905
v 4.827466 8.412700 -2.116905
v 4.827466 8.065428 -1.832111
v 4.827466 8.412700 -1.832111
v 3.046614 8.968334 -2.116905
v 3.046614 9.315607 -2.116905
v 3.046614 8.968334 -1.832111
v 3.046614 9.315607 -1.832111
v 4.827466 8.968334 -2.116905
v 4.827466 9.315607 -2.116905
v 4.827466 8.968334 -1.832111
v 4.827466 9.315607 -1.832111
v 3.046614 9.871243 -2.116905
v 3.046614 10.218514 -2.116905
v 3.046614 9.871243 -1.832111
v 3.046614 10.218514 -1.832111
v 4.827466 9.871243 -2.116905
v 4.827466 10.218514 -2.116905
v 4.827466 9.871243 -1.832111
v 4.827466 10.218514 -1.832111
v 3.046614 10.774150 -2.116905
v 3.046614 11.121422 -2.116905
v 3.046614 10.774150 -1.832111
v 3.046614 11.121422 -1.832111
v 4.827466 10.774150 -2.116905
v 4.827466 11.121422 -2.116905
v 4.827466 10.774150 -1.832111
v 4.827466 11.121422 -1.832111
v 3.046614 11.677057 -2.116905
v 3.046614 12.024329 -2.116905
v 3.046614 11.677057 -1.832111
v 3.046614 12.024329 -1.832111
v 4.827466 11.677057 -2.116905
v 4.827466 12.024329 -2.116905
v 4.827466 11.677057 -1.832111
v 4.827466 12.024329 -1.832111
v 3.046614 12.579965 -2.116905
v 3.046614 12.927237 -2.116905
v 3.046614 12.579965 -1.832111
v 3.046614 12.927237 -1.832111
v 4.827466 12.579965 -2.116905
v 4.827466 12.927237 -2.116905
v 4.827466 12.579965 -1.832111
v 4.827466 12.927237 -1.832111
v 3.046614 13.482872 -2.116905
v 3.046614 13.830144 -2.116905
v 3.046614 13.482872 -1.832111
v 3.046614 13.830144 -1.832111
v 4.827466 13.482872 -2.116905
v 4.827466 13.830144 -2.116905
v 4.827466 13.482872 -1.832111
v 4.827466 13.830144 -1.832111
v 3.046614 14.385779 -2.116905
v 3.046614 14.733051 -2.116905
v 3.046614 14.385779 -1.832111
v 3.046614 14.733051 -1.832111
v 4.827466 14.385779 -2.116905
v 4.827466 14.733051 -2.116905
v 4.827466 14.385779 -1.832111
v 4.827466 14.733051 -1.832111
v -2.624694 19.553524 -2.500938
v -2.624694 19.553524 -1.778648
v -5.249387 19.553524 -1.778648
v -5.249387 19.553524 -2.500938
v -3.046614 19.553524 -2.036024
v -4.827466 19.553524 -2.036024
v -4.827466 19.553524 -2.500938
v -3.046614 19.553524 -2.500938
v -3.046614 19.553524 -1.778648
v -4.827466 19.553524 -1.778648
v -5.249387 19.553524 -2.000938
v -2.624694 19.553524 -2.000938
v 2.624694 19.553524 -2.500938
v 2.624694 19.553524 -1.778648
v 5.249387 19.553524 -1.778648
v 5.249387 19.553524 -2.500938
v 3.046614 19.553524 -2.036024
v 4.827466 19.553524 -2.036024
v 4.827466 19.553524 -2.500938
v 3.046614 19.553524 -2.500938
v 3.046614 19.553524 -1.778648
v 4.827466 19.553524 -1.778648
v 5.249387 19.553524 -2.000938
v 2.624694 19.553524 -2.000938
vn -0.0000 -0.0000 1.0000
vn -0.0000 -1.0000 -0.0000
vn 1.0000 -0.0000 -0.0000
vn -1.0000 -0.0000 -0.0000
vn -0.0000 1.0000 -0.0000
vn -0.0000 -0.0000 -1.0000
vt 0.562500 0.708333
vt 0.625000 0.708333
vt 0.625000 0.750000
vt 0.562500 0.750000
vt 0.250000 0.708333
vt 0.375000 0.708333
vt 0.375000 0.750000
vt 0.250000 0.750000
vt 0.500000 0.375000
vt 0.500000 0.666667
vt 0.375000 0.666667
vt 0.375000 0.375000
vt 0.562500 0.652778
vt 0.625000 0.652778
vt 0.625000 0.666667
vt 0.562500 0.666667
vt 0.500000 0.652778
vt 0.500000 0.708333
vt 0.500000 0.750000
vt 0.500000 0.875000
vt 0.375000 0.875000
vt 0.750000 0.652778
vt 0.750000 0.666667
vt 0.750000 0.708333
vt 0.750000 0.750000
vt 0.625000 0.875000
vt 0.562500 0.875000
vt 0.250000 0.666667
vt 0.500000 0.638889
vt 0.562500 0.638889
vt 0.562500 0.625000
vt 0.625000 0.625000
vt 0.625000 0.638889
vt 0.500000 0.625000
vt 0.750000 0.638889
vt 0.750000 0.625000
vt 0.500000 0.375000
vt 0.375000 0.000000
vt 0.625000 0.000000
vt 0.625000 0.250000
vt 0.375000 0.250000
vt 0.625000 0.500000
vt 0.375000 0.500000
vt 0.625000 1.000000
vt 0.375000 1.000000
vt 0.125000 0.500000
vt 0.125000 0.750000
vt 0.875000 0.500000
vt 0.875000 0.750000
vt 0.437500 0.000000
vt 0.437500 0.125000
vt 0.375000 0.125000
vt 0.375000 0.833333
vt 0.437500 0.833333
vt 0.437500 0.916667
vt 0.375000 0.916667
vt 0.500000 0.916667
vt 0.500000 0.625000
vt 0.500000 0.833333
vt 0.500000 1.000000
vt 0.500000 0.125000
vt 0.458333 0.458333
vt 0.500000 0.500000
vt 0.437500 1.000000
vt 0.437500 0.750000
vt 0.437500 0.625000
vt 0.375000 0.625000
vt 0.437500 0.500000
vt 0.437500 0.416667
vt 0.375000 0.416667
vt 0.208333 0.625000
vt 0.354167 0.625000
vt 0.312500 0.458333
vt 0.208333 0.500000
vt 0.500000 0.250000
vt 0.500000 0.333333
vt 0.500000 0.000000
vt 0.416667 0.416667
vt 0.500000 0.416667
vt 0.291667 0.500000
vt 0.375000 0.479167
vt 0.395833 0.625000
vt 0.291667 0.625000
vt 0.437500 0.250000
vt 0.375000 0.333333
vt 0.437500 0.333333
vt 0.291667 0.750000
vt 0.125000 0.625000
vt 0.208333 0.750000
s 0
f 28/1/1 13/2/1 2/3/1 23/4/1
f 17/5/2 14/6/2 1/7/2 7/8/2
f 9/9/3 6/10/3 3/11/3 11/12/3
f 22/13/1 40/14/1 4/15/1 25/16/1
f 32/9/2 35/17/2 6/10/2 9/9/2
f 15/18/4 14/6/4 30/6/4 38/18/4
f 14/6/1 15/18/1 5/19/1 1/7/1
f 1/7/4 5/19/4 12/20/4 7/21/4
f 40/14/5 27/22/5 10/23/5 4/15/5
f 13/2/5 16/24/5 8/25/5 2/3/5
f 23/4/4 2/3/4 8/26/4 26/27/4
f 4/15/5 10/23/5 16/24/5 13/2/5
f 14/6/2 3/11/2 31/11/2 30/6/2
f 11/28/2 3/11/2 14/6/2 17/5/2
f 25/16/1 4/15/1 13/2/1 28/1/1
f 33/9/2 37/29/2 35/17/2 32/9/2
f 37/29/4 21/29/4 19/30/4 24/30/4
f 5/19/4 23/4/4 26/27/4 12/20/4
f 22/13/5 25/16/5 36/16/5 18/13/5
f 15/18/1 28/1/1 23/4/1 5/19/1
f 46/31/1 42/32/1 41/33/1 24/30/1
f 47/34/1 48/31/1 19/30/1 21/29/1
f 31/11/1 34/10/1 38/18/1 30/6/1
f 34/10/1 36/16/1 39/1/1 38/18/1
f 20/17/1 18/13/1 36/16/1 34/10/1
f 37/29/1 24/30/1 22/13/1 35/17/1
f 46/31/5 24/30/5 19/30/5 48/31/5
f 25/16/5 28/1/5 39/1/5 36/16/5
f 41/33/5 29/35/5 27/22/5 40/14/5
f 28/1/4 15/18/4 38/18/4 39/1/4
f 42/32/5 45/36/5 29/35/5 41/33/5
f 3/11/3 6/10/3 34/10/3 31/11/3
f 37/29/2 43/34/2 47/34/2 21/29/2
f 6/10/2 35/17/2 20/17/2 34/10/2
f 18/13/3 20/17/3 35/17/3 22/13/3
f 44/37/2 43/34/2 37/29/2 33/9/2
f 24/30/1 41/33/1 40/14/1 22/13/1
f 76/1/1 71/4/1 50/3/1 61/2/1
f 65/5/2 55/8/2 49/7/2 62/6/2
f 57/9/4 59/12/4 51/11/4 54/10/4
f 70/13/1 73/16/1 52/15/1 88/14/1
f 80/9/2 57/9/2 54/10/2 83/17/2
f 63/18/3 86/18/3 78/6/3 62/6/3
f 62/6/1 49/7/1 53/19/1 63/18/1
f 49/7/3 55/21/3 60/20/3 53/19/3
f 88/14/5 52/15/5 58/23/5 75/22/5
f 61/2/5 50/3/5 56/25/5 64/24/5
f 71/4/3 74/27/3 56/26/3 50/3/3
f 52/15/5 61/2/5 64/24/5 58/23/5
f 62/6/2 78/6/2 79/11/2 51/11/2
f 59/28/2 65/5/2 62/6/2 51/11/2
f 73/16/1 76/1/1 61/2/1 52/15/1
f 81/9/2 80/9/2 83/17/2 85/29/2
f 85/29/3 72/30/3 67/30/3 69/29/3
f 53/19/3 60/20/3 74/27/3 71/4/3
f 70/13/5 66/13/5 84/16/5 73/16/5
f 63/18/1 53/19/1 71/4/1 76/1/1
f 46/31/1 72/30/1 89/33/1 42/32/1
f 47/34/1 69/29/1 67/30/1 48/31/1
f 79/11/1 78/6/1 86/18/1 82/10/1
f 82/10/1 86/18/1 87/1/1 84/16/1
f 68/17/1 82/10/1 84/16/1 66/13/1
f 85/29/1 83/17/1 70/13/1 72/30/1
f 46/31/5 48/31/5 67/30/5 72/30/5
f 73/16/5 84/16/5 87/1/5 76/1/5
f 89/33/5 88/14/5 75/22/5 77/35/5
f 76/1/3 87/1/3 86/18/3 63/18/3
f 42/32/5 89/33/5 77/35/5 45/36/5
f 51/11/4 79/11/4 82/10/4 54/10/4
f 85/29/2 69/29/2 47/34/2 43/34/2
f 54/10/2 82/10/2 68/17/2 83/17/2
f 66/13/4 70/13/4 83/17/4 68/17/4
f 44/37/2 81/9/2 85/29/2 43/34/2
f 72/30/1 70/13/1 88/14/1 89/33/1
f 90/38/3 91/39/3 93/40/3 92/41/3
f 92/41/1 93/40/1 97/42/1 96/43/1
f 96/43/4 97/42/4 95/3/4 94/7/4
f 94/7/6 95/3/6 91/44/6 90/45/6
f 92/46/2 96/43/2 94/7/2 90/47/2
f 97/42/5 93/48/5 91/49/5 95/3/5
f 98/38/3 99/39/3 101/40/3 100/41/3
f 100/41/1 101/40/1 105/42/1 104/43/1
f 104/43/4 105/42/4 103/3/4 102/7/4
f 102/7/6 103/3/6 99/44/6 98/45/6
f 100/46/2 104/43/2 102/7/2 98/47/2
f 105/42/5 101/48/5 99/49/5 103/3/5
f 106/38/3 107/39/3 109/40/3 108/41/3
f 108/41/1 109/40/1 113/42/1 112/43/1
f 112/43/4 113/42/4 111/3/4 110/7/4
f 110/7/6 111/3/6 107/44/6 106/45/6
f 108/46/2 112/43/2 110/7/2 106/47/2
f 113/42/5 109/48/5 107/49/5 111/3/5
f 114/38/3 115/39/3 117/40/3 116/41/3
f 116/41/1 117/40/1 121/42/1 120/43/1
f 120/43/4 121/42/4 119/3/4 118/7/4
f 118/7/6 119/3/6 115/44/6 114/45/6
f 116/46/2 120/43/2 118/7/2 114/47/2
f 121/42/5 117/48/5 115/49/5 119/3/5
f 178/38/3 128/50/3 129/51/3 186/52/3
f 185/53/6 166/54/6 165/55/6 184/56/6
f 349/57/5 346/58/5 347/34/5 348/59/5
f 349/57/5 342/60/5 353/61/5 346/58/5
f 347/34/5 352/34/5 345/19/5 348/59/5
f 347/34/5 351/62/5 344/63/5 352/34/5
f 196/56/6 190/45/6 172/64/6 177/55/6
f 192/7/3 123/65/3 174/66/3 199/67/3
f 193/43/1 124/68/1 175/69/1 194/70/1
f 200/71/3 171/72/3 176/73/3 195/74/3
f 130/38/4 132/41/4 133/40/4 131/39/4
f 132/41/1 136/43/1 137/42/1 133/40/1
f 136/43/3 134/7/3 135/3/3 137/42/3
f 134/7/6 130/45/6 131/44/6 135/3/6
f 132/46/2 130/47/2 134/7/2 136/43/2
f 137/42/5 135/3/5 131/49/5 133/48/5
f 138/38/4 140/41/4 141/40/4 139/39/4
f 140/41/1 144/43/1 145/42/1 141/40/1
f 144/43/3 142/7/3 143/3/3 145/42/3
f 142/7/6 138/45/6 139/44/6 143/3/6
f 140/46/2 138/47/2 142/7/2 144/43/2
f 145/42/5 143/3/5 139/49/5 141/48/5
f 146/38/4 148/41/4 149/40/4 147/39/4
f 148/41/1 152/43/1 153/42/1 149/40/1
f 152/43/3 150/7/3 151/3/3 153/42/3
f 150/7/6 146/45/6 147/44/6 151/3/6
f 148/46/2 146/47/2 150/7/2 152/43/2
f 153/42/5 151/3/5 147/49/5 149/48/5
f 154/38/4 156/41/4 157/40/4 155/39/4
f 156/41/1 160/43/1 161/42/1 157/40/1
f 160/43/3 158/7/3 159/3/3 161/42/3
f 158/7/6 154/45/6 155/44/6 159/3/6
f 156/46/2 154/47/2 158/7/2 160/43/2
f 161/42/5 159/3/5 155/49/5 157/48/5
f 353/61/5 343/75/5 350/76/5 346/58/5
f 341/61/5 330/77/5 337/57/5 334/58/5
f 334/58/5 338/78/5 331/75/5 341/61/5
f 337/57/5 336/59/5 335/34/5 334/58/5
f 336/59/5 333/19/5 340/34/5 335/34/5
f 340/34/5 332/63/5 339/79/5 335/34/5
f 194/80/4 175/81/4 170/82/4 201/83/4
f 192/7/6 197/53/6 122/54/6 123/65/6
f 193/43/3 199/67/3 174/66/3 124/68/3
f 190/38/4 198/52/4 173/51/4 172/50/4
f 198/52/4 191/41/4 125/84/4 173/51/4
f 200/71/1 201/83/1 170/82/1 171/72/1
f 191/41/1 195/85/1 176/86/1 125/84/1
f 189/83/1 188/71/1 127/72/1 126/82/1
f 180/7/6 167/65/6 166/54/6 185/53/6
f 186/52/3 129/51/3 169/84/3 179/41/3
f 197/53/6 196/56/6 177/55/6 122/54/6
f 183/74/4 164/73/4 127/72/4 188/71/4
f 184/56/6 165/55/6 128/64/6 178/45/6
f 181/43/4 168/68/4 162/66/4 187/67/4
f 189/83/3 126/82/3 163/81/3 182/80/3
f 187/67/4 162/66/4 167/65/4 180/7/4
f 179/41/1 169/84/1 164/86/1 183/85/1
f 182/70/1 163/69/1 168/68/1 181/43/1
f 189/83/2 187/67/2 180/7/2 185/87/2
f 186/88/2 188/71/2 184/89/2 178/47/2
f 188/71/2 189/83/2 185/87/2 184/89/2
f 179/46/2 183/74/2 188/71/2 186/88/2
f 182/80/2 181/43/2 187/67/2 189/83/2
f 201/83/2 197/87/2 192/7/2 199/67/2
f 198/88/2 190/47/2 196/89/2 200/71/2
f 200/71/2 196/89/2 197/87/2 201/83/2
f 191/46/2 198/88/2 200/71/2 195/74/2
f 194/80/2 201/83/2 199/67/2 193/43/2
f 202/38/3 203/39/3 205/40/3 204/41/3
f 204/41/1 205/40/1 209/42/1 208/43/1
f 208/43/4 209/42/4 207/3/4 206/7/4
f 206/7/6 207/3/6 203/44/6 202/45/6
f 204/46/2 208/43/2 206/7/2 202/47/2
f 209/42/5 205/48/5 203/49/5 207/3/5
f 210/38/3 211/39/3 213/40/3 212/41/3
f 212/41/1 213/40/1 217/42/1 216/43/1
f 216/43/4 217/42/4 215/3/4 214/7/4
f 214/7/6 215/3/6 211/44/6 210/45/6
f 212/46/2 216/43/2 214/7/2 210/47/2
f 217/42/5 213/48/5 211/49/5 215/3/5
f 218/38/3 219/39/3 221/40/3 220/41/3
f 220/41/1 221/40/1 225/42/1 224/43/1
f 224/43/4 225/42/4 223/3/4 222/7/4
f 222/7/6 223/3/6 219/44/6 218/45/6
f 220/46/2 224/43/2 222/7/2 218/47/2
f 225/42/5 221/48/5 219/49/5 223/3/5
f 226/38/3 227/39/3 229/40/3 228/41/3
f 228/41/1 229/40/1 233/42/1 232/43/1
f 232/43/4 233/42/4 231/3/4 230/7/4
f 230/7/6 231/3/6 227/44/6 226/45/6
f 228/46/2 232/43/2 230/7/2 226/47/2
f 233/42/5 229/48/5 227/49/5 231/3/5
f 234/38/3 235/39/3 237/40/3 236/41/3
f 236/41/1 237/40/1 241/42/1 240/43/1
f 240/43/4 241/42/4 239/3/4 238/7/4
f 238/7/6 239/3/6 235/44/6 234/45/6
f 236/46/2 240/43/2 238/7/2 234/47/2
f 241/42/5 237/48/5 235/49/5 239/3/5
f 242/38/3 243/39/3 245/40/3 244/41/3
f 244/41/1 245/40/1 249/42/1 248/43/1
f 248/43/4 249/42/4 247/3/4 246/7/4
f 246/7/6 247/3/6 243/44/6 242/45/6
f 244/46/2 248/43/2 246/7/2 242/47/2
f 249/42/5 245/48/5 243/49/5 247/3/5
f 250/38/3 251/39/3 253/40/3 252/41/3
f 252/41/1 253/40/1 257/42/1 256/43/1
f 256/43/4 257/42/4 255/3/4 254/7/4
f 254/7/6 255/3/6 251/44/6 250/45/6
f 252/46/2 256/43/2 254/7/2 250/47/2
f 257/42/5 253/48/5 251/49/5 255/3/5
f 258/38/3 259/39/3 261/40/3 260/41/3
f 260/41/1 261/40/1 265/42/1 264/43/1
f 264/43/4 265/42/4 263/3/4 262/7/4
f 262/7/6 263/3/6 259/44/6 258/45/6
f 260/46/2 264/43/2 262/7/2 258/47/2
f 265/42/5 261/48/5 259/49/5 263/3/5
f 266/38/4 268/41/4 269/40/4 267/39/4
f 268/41/1 272/43/1 273/42/1 269/40/1
f 272/43/3 270/7/3 271/3/3 273/42/3
f 270/7/6 266/45/6 267/44/6 271/3/6
f 268/46/2 266/47/2 270/7/2 272/43/2
f 273/42/5 271/3/5 267/49/5 269/48/5
f 274/38/4 276/41/4 277/40/4 275/39/4
f 276/41/1 280/43/1 281/42/1 277/40/1
f 280/43/3 278/7/3 279/3/3 281/42/3
f 278/7/6 274/45/6 275/44/6 279/3/6
f 276/46/2 274/47/2 278/7/2 280/43/2
f 281/42/5 279/3/5 275/49/5 277/48/5
f 282/38/4 284/41/4 285/40/4 283/39/4
f 284/41/1 288/43/1 289/42/1 285/40/1
f 288/43/3 286/7/3 287/3/3 289/42/3
f 286/7/6 282/45/6 283/44/6 287/3/6
f 284/46/2 282/47/2 286/7/2 288/43/2
f 289/42/5 287/3/5 283/49/5 285/48/5
f 290/38/4 292/41/4 293/40/4 291/39/4
f 292/41/1 296/43/1 297/42/1 293/40/1
f 296/43/3 294/7/3 295/3/3 297/42/3
f 294/7/6 290/45/6 291/44/6 295/3/6
f 292/46/2 290/47/2 294/7/2 296/43/2
f 297/42/5 295/3/5 291/49/5 293/48/5
f 298/38/4 300/41/4 301/40/4 299/39/4
f 300/41/1 304/43/1 305/42/1 301/40/1
f 304/43/3 302/7/3 303/3/3 305/42/3
f 302/7/6 298/45/6 299/44/6 303/3/6
f 300/46/2 298/47/2 302/7/2 304/43/2
f 305/42/5 303/3/5 299/49/5 301/48/5
f 306/38/4 308/41/4 309/40/4 307/39/4
f 308/41/1 312/43/1 313/42/1 309/40/1
f 312/43/3 310/7/3 311/3/3 313/42/3
f 310/7/6 306/45/6 307/44/6 311/3/6
f 308/46/2 306/47/2 310/7/2 312/43/2
f 313/42/5 311/3/5 307/49/5 309/48/5
f 314/38/4 316/41/4 317/40/4 315/39/4
f 316/41/1 320/43/1 321/42/1 317/40/1
f 320/43/3 318/7/3 319/3/3 321/42/3
f 318/7/6 314/45/6 315/44/6 319/3/6
f 316/46/2 314/47/2 318/7/2 320/43/2
f 321/42/5 319/3/5 315/49/5 317/48/5
f 322/38/4 324/41/4 325/40/4 323/39/4
f 324/41/1 328/43/1 329/42/1 325/40/1
f 328/43/3 326/7/3 327/3/3 329/42/3
f 326/7/6 322/45/6 323/44/6 327/3/6
f 324/46/2 322/47/2 326/7/2 328/43/2
f 329/42/5 327/3/5 323/49/5 325/48/5
f 129/51/3 341/61/3 331/75/3 169/84/3
f 339/79/5 338/78/5 334/58/5 335/34/5
f 163/81/1 164/73/1 338/76/1 339/79/1
f 167/65/6 333/19/6 336/59/6 166/54/6
f 169/84/1 331/75/1 338/76/1 164/86/1
f 165/55/6 337/57/6 330/60/6 128/64/6
f 162/66/4 340/34/4 333/19/4 167/65/4
f 163/69/1 339/79/1 332/63/1 168/68/1
f 168/68/4 332/63/4 340/34/4 162/66/4
f 126/82/2 127/72/2 164/73/2 163/81/2
f 128/50/3 330/77/3 341/61/3 129/51/3
f 166/54/6 336/59/6 337/57/6 165/55/6
f 124/68/1 344/63/1 351/79/1 175/69/1
f 350/76/5 351/62/5 347/34/5 346/58/5
f 177/55/6 172/64/6 342/60/6 349/57/6
f 123/65/3 345/19/3 352/34/3 174/66/3
f 173/51/4 125/84/4 343/75/4 353/61/4
f 176/73/1 175/81/1 351/79/1 350/76/1
f 172/50/4 173/51/4 353/61/4 342/77/4
f 171/72/2 170/82/2 175/81/2 176/73/2
f 123/65/6 122/54/6 348/59/6 345/19/6
f 124/68/3 174/66/3 352/34/3 344/63/3
f 122/54/6 177/55/6 349/57/6 348/59/6
f 125/84/1 176/86/1 350/76/1 343/75/1
