# Blender 5.2.0 LTS
# www.blender.org
mtllib BrainReactorLegs.mtl
o BrainReactorLegs
v -36.679848 2.515116 -16.182549
v -36.533386 2.515116 -15.635960
v -35.989964 2.515116 -16.388008
v -36.679848 4.088689 -16.182549
v -36.679848 1.030701 -16.182549
v -37.001785 0.919775 -16.447784
v -35.989964 1.030701 -16.388008
v -36.533386 1.030701 -15.635960
v -36.679577 0.919775 -15.245290
v -35.833202 1.030701 -15.802968
v -35.292332 0.328107 -15.869513
v -35.833202 2.515116 -15.802968
v -35.833202 4.088688 -15.802968
v -35.833202 5.662261 -15.802968
v -36.533386 4.088689 -15.635960
v -35.989964 4.088689 -16.388008
v -35.989964 5.662261 -16.388008
v -36.679848 5.662261 -16.182549
v -37.273075 7.059448 -16.077740
v -37.099545 7.059448 -15.430113
v -37.266445 6.296157 -16.081533
v -37.091904 6.296157 -15.430141
v -36.533386 5.662261 -15.635960
v -35.488281 0.328107 -16.600813
v -34.821564 0.159406 -15.956465
v -34.821564 -0.009294 -15.956465
v -35.037109 0.159406 -16.760893
v -36.659439 0.455241 -15.170134
v -35.124176 0.163110 -15.294486
v -35.124176 -0.005591 -15.294486
v -36.773720 0.458944 -14.650608
v -36.755951 -0.005590 -14.584292
v -36.639301 -0.009294 -15.094977
v -37.042061 -0.009294 -16.598095
v -35.037109 -0.009294 -16.760893
v -37.021923 0.455241 -16.522940
v -37.398422 -0.005591 -16.982037
v -35.630169 -0.005591 -17.182877
v -37.380653 0.458944 -16.915722
v -35.630169 0.163110 -17.182877
v -42.684193 2.515116 -17.284063
v -42.284065 2.515116 -17.684195
v -43.207069 2.515116 -17.778790
v -42.684193 4.088689 -17.284063
v -42.684193 1.024606 -17.284063
v -42.752926 0.913680 -16.872639
v -43.207069 1.024606 -17.778790
v -42.284061 1.024606 -17.684195
v -41.872639 0.913680 -17.752926
v -42.778790 1.024606 -18.207067
v -43.106853 0.322012 -18.642204
v -42.778790 2.515116 -18.207067
v -42.778790 4.088688 -18.207067
v -42.778790 5.662261 -18.207067
v -42.284065 4.088689 -17.684195
v -43.207069 4.088689 -17.778790
v -43.207069 5.662261 -17.778790
v -42.684193 5.662261 -17.284063
v -42.296814 7.059448 -16.822718
v -41.822716 7.059448 -17.296812
v -42.303413 6.296157 -16.826561
v -41.826561 6.296157 -17.303413
v -42.284065 5.662261 -17.684195
v -43.642204 0.322012 -18.106855
v -43.417542 0.156359 -19.006424
v -43.417542 -0.009294 -19.006424
v -44.006424 0.156359 -18.417542
v -41.817619 0.452193 -17.807943
v -42.693050 0.160800 -19.075306
v -42.693050 -0.004853 -19.075306
v -41.310654 0.456635 -17.968702
v -41.262108 -0.004853 -18.017248
v -41.762604 -0.009294 -17.862961
v -42.862961 -0.009294 -16.762602
v -44.006424 -0.009294 -18.417542
v -42.807941 0.452193 -16.817621
v -43.017250 -0.004853 -16.262108
v -44.075306 -0.004853 -17.693050
v -42.968704 0.456634 -16.310652
v -44.075306 0.160800 -17.693050
v -41.182549 2.515116 -11.679847
v -40.635960 2.515116 -11.533388
v -41.388008 2.515116 -10.989964
v -41.182549 4.088688 -11.679847
v -41.182549 1.024606 -11.679847
v -41.447784 0.913680 -12.001785
v -40.635960 1.024606 -11.533388
v -41.388008 1.024606 -10.989964
v -41.600815 0.322011 -10.488283
v -40.802967 1.024606 -10.833203
v -40.869514 0.322011 -10.292332
v -40.802967 2.515116 -10.833203
v -40.802967 4.088689 -10.833203
v -40.802967 5.662261 -10.833203
v -40.635960 4.088688 -11.533388
v -41.388008 4.088688 -10.989964
v -41.388008 5.662261 -10.989964
v -41.182549 5.662261 -11.679847
v -41.077740 7.059448 -12.273074
v -40.430115 7.059448 -12.099543
v -41.081535 6.296157 -12.266445
v -40.430141 6.296157 -12.091906
v -40.635960 5.662261 -11.533388
v -40.245289 0.913680 -11.679577
v -40.956463 0.156358 -9.821566
v -40.956463 -0.009294 -9.821566
v -41.760895 0.156359 -10.037112
v -40.170132 0.452193 -11.659440
v -40.294598 0.160800 -10.124157
v -40.294598 -0.004853 -10.124157
v -39.650707 0.456634 -11.773701
v -39.584393 -0.004853 -11.755932
v -40.094978 -0.009294 -11.639302
v -41.598095 -0.009294 -12.042062
v -41.760895 -0.009294 -10.037112
v -41.522942 0.452193 -12.021924
v -41.981964 -0.004853 -12.398358
v -42.182796 -0.004853 -10.630098
v -41.915649 0.456634 -12.380589
v -42.182796 0.160800 -10.630098
vn -0.9659 -0.0000 0.2588
vn -0.2854 -0.0000 -0.9584
vn -0.4020 0.9093 0.1077
vn -0.0045 0.5059 -0.8626
vn 0.4274 0.5059 0.7493
vn 0.2320 -0.0000 0.9727
vn 0.7660 0.6091 -0.2053
vn 0.9659 -0.0000 -0.2588
vn 0.7022 0.6867 -0.1882
vn -0.2488 -0.0330 -0.9680
vn -0.9659 -0.0097 0.2588
vn -0.7055 -0.6830 0.1890
vn 0.2685 -0.0330 0.9627
vn 0.3219 0.9428 -0.0863
vn 0.4535 0.3362 0.8254
vn 0.9095 -0.0000 0.4158
vn 0.1914 0.9796 0.0614
vn 0.3875 0.1068 0.9157
vn -0.9733 -0.0729 -0.2177
vn 0.0034 -1.0000 0.0075
vn -0.0000 -1.0000 -0.0000
vn -0.0008 -1.0000 -0.0083
vn -0.7341 -0.0729 0.6751
vn -0.1223 0.1068 -0.9867
vn 0.1350 0.9796 -0.1488
vn 0.5798 -0.0000 -0.8148
vn -0.0199 0.3362 -0.9416
vn 0.7071 -0.0000 0.7071
vn -0.6873 -0.0000 0.7264
vn 0.2943 0.9093 0.2943
vn -0.7448 0.5059 0.4352
vn 0.4352 0.5059 -0.7448
vn 0.7264 -0.0000 -0.6873
vn -0.5608 0.6092 -0.5608
vn -0.7071 -0.0000 -0.7071
vn -0.5140 0.6867 -0.5141
vn -0.7139 -0.0330 0.6995
vn 0.7071 -0.0097 0.7071
vn 0.5165 -0.6830 0.5165
vn 0.6995 -0.0330 -0.7139
vn -0.2319 0.9447 -0.2319
vn 0.4865 0.3397 -0.8049
vn -0.0946 -0.0000 -0.9955
vn -0.0435 0.9798 -0.1952
vn 0.5991 0.1078 -0.7934
vn 0.2982 -0.0733 0.9517
vn 0.0058 -1.0000 -0.0081
vn -0.0081 -1.0000 0.0058
vn 0.9517 -0.0733 0.2983
vn -0.7934 0.1078 0.5991
vn -0.1952 0.9798 -0.0435
vn -0.9955 -0.0000 -0.0947
vn -0.8049 0.3397 0.4865
vn 0.2588 -0.0000 -0.9659
vn -0.9584 -0.0000 -0.2854
vn -0.8626 0.5059 -0.0045
vn 0.1077 0.9093 -0.4020
vn -0.2053 0.6092 0.7660
vn -0.2588 -0.0000 0.9659
vn 0.7493 0.5059 0.4274
vn 0.9727 -0.0000 0.2320
vn -0.1882 0.6867 0.7022
vn -0.9680 -0.0330 -0.2488
vn 0.2588 -0.0097 -0.9659
vn 0.1890 -0.6830 -0.7055
vn 0.9627 -0.0330 0.2685
vn -0.0849 0.9447 0.3167
vn 0.8238 0.3397 0.4538
vn 0.4158 -0.0000 0.9095
vn 0.0600 0.9798 0.1908
vn 0.9155 0.1078 0.3875
vn -0.2175 -0.0733 -0.9733
vn 0.0090 -1.0000 0.0041
vn -0.0099 -1.0000 -0.0010
vn 0.6750 -0.0733 -0.7341
vn -0.9866 0.1078 -0.1222
vn -0.1473 0.9798 0.1353
vn -0.8148 -0.0000 0.5797
vn -0.9403 0.3397 -0.0189
vt 0.186893 0.392940
vt 0.186893 0.473571
vt 0.156155 0.473571
vt 0.156155 0.392940
vt 0.156155 0.307465
vt 0.186893 0.307465
vt 0.821446 0.738421
vt 0.821424 0.657789
vt 0.860524 0.657779
vt 0.860546 0.738410
vt 0.860569 0.823885
vt 0.821469 0.823895
vt 0.205335 0.488047
vt 0.137713 0.488047
vt 0.785375 0.625646
vt 0.873166 0.638034
vt 0.256732 0.638034
vt 0.344522 0.625646
vt 0.308474 0.657790
vt 0.269374 0.657779
vt 0.269351 0.738410
vt 0.308452 0.738421
vt 0.749340 0.066784
vt 0.790465 0.066784
vt 0.786353 0.114907
vt 0.753453 0.114907
vt 0.753453 0.195538
vt 0.786353 0.195538
vt 0.308428 0.823895
vt 0.269328 0.823885
vt 0.786353 0.281013
vt 0.753453 0.281013
vt 0.308405 0.909370
vt 0.269305 0.909359
vt 0.786353 0.366487
vt 0.753453 0.366487
vt 0.860593 0.909359
vt 0.821492 0.909370
vt 0.788113 0.470882
vt 0.751693 0.470882
vt 0.892706 0.943996
vt 0.892991 0.985458
vt 0.189840 0.174850
vt 0.153209 0.174850
vt 0.153315 0.133387
vt 0.189734 0.133387
vt 0.186893 0.221991
vt 0.156156 0.221991
vt 0.236906 0.985457
vt 0.237191 0.943996
vt 0.747285 0.039290
vt 0.792521 0.039290
vt 0.261792 0.612955
vt 0.371371 0.619376
vt 0.747284 0.030126
vt 0.792521 0.030126
vt 0.707748 0.039491
vt 0.707748 0.030327
vt 0.246535 0.588416
vt 0.344023 0.590822
vt 0.250909 0.563287
vt 0.345781 0.581829
vt 0.133486 0.513280
vt 0.129260 0.538513
vt 0.100815 0.537762
vt 0.104601 0.512537
vt 0.065653 0.028062
vt 0.085298 0.135546
vt 0.054820 0.110362
vt 0.040498 0.014763
vt 0.209561 0.513280
vt 0.213788 0.538513
vt 0.150181 0.028062
vt 0.130535 0.135546
vt 0.175336 0.014763
vt 0.161014 0.110362
vt 0.238447 0.512537
vt 0.242233 0.537761
vt 0.883362 0.588416
vt 0.785874 0.590822
vt 0.784116 0.581829
vt 0.878988 0.563287
vt 0.868105 0.612955
vt 0.758526 0.619376
vt 0.832058 0.030327
vt 0.832058 0.039491
vt 0.516512 0.392940
vt 0.516512 0.473902
vt 0.485775 0.473902
vt 0.485775 0.392940
vt 0.485775 0.307466
vt 0.516512 0.307466
vt 0.569593 0.738421
vt 0.569568 0.657459
vt 0.608669 0.657447
vt 0.608693 0.738410
vt 0.608719 0.823884
vt 0.569619 0.823896
vt 0.534955 0.488378
vt 0.467332 0.488378
vt 0.533519 0.625317
vt 0.621310 0.637702
vt 0.118583 0.637702
vt 0.206374 0.625316
vt 0.170324 0.657459
vt 0.131224 0.657447
vt 0.131200 0.738409
vt 0.170300 0.738421
vt 0.595023 0.065592
vt 0.636148 0.065592
vt 0.632035 0.113715
vt 0.599136 0.113715
vt 0.599136 0.194677
vt 0.632035 0.194677
vt 0.170273 0.823896
vt 0.131174 0.823884
vt 0.632036 0.280152
vt 0.599136 0.280152
vt 0.170247 0.909370
vt 0.131147 0.909358
vt 0.632036 0.365626
vt 0.599136 0.365626
vt 0.608745 0.909358
vt 0.569645 0.909370
vt 0.633795 0.470021
vt 0.597376 0.470021
vt 0.640859 0.943994
vt 0.641146 0.985456
vt 0.519459 0.174850
vt 0.482828 0.174850
vt 0.482934 0.133388
vt 0.519353 0.133388
vt 0.516512 0.221991
vt 0.485775 0.221991
vt 0.098746 0.985455
vt 0.099033 0.943993
vt 0.592967 0.038152
vt 0.638204 0.038152
vt 0.123606 0.612782
vt 0.233188 0.619140
vt 0.592967 0.029154
vt 0.553436 0.038394
vt 0.553436 0.029396
vt 0.638204 0.029154
vt 0.108331 0.588260
vt 0.205821 0.590613
vt 0.112661 0.563289
vt 0.207543 0.581781
vt 0.463106 0.513445
vt 0.458880 0.538513
vt 0.430441 0.537718
vt 0.434227 0.512659
vt 0.373765 0.028893
vt 0.393410 0.136378
vt 0.362936 0.111196
vt 0.348614 0.015596
vt 0.539181 0.513445
vt 0.543407 0.538513
vt 0.458292 0.028893
vt 0.438647 0.136377
vt 0.483443 0.015596
vt 0.469121 0.111196
vt 0.568060 0.512659
vt 0.571846 0.537718
vt 0.631561 0.588260
vt 0.534071 0.590613
vt 0.532350 0.581781
vt 0.627231 0.563289
vt 0.616287 0.612782
vt 0.506704 0.619140
vt 0.677735 0.029396
vt 0.677735 0.038394
vt 0.348670 0.392940
vt 0.348670 0.473902
vt 0.317932 0.473902
vt 0.317932 0.392940
vt 0.317932 0.307465
vt 0.348670 0.307465
vt 0.395624 0.738409
vt 0.395649 0.657447
vt 0.434749 0.657459
vt 0.434724 0.738421
vt 0.434699 0.823896
vt 0.395598 0.823884
vt 0.383007 0.637702
vt 0.470798 0.625316
vt 0.367112 0.488378
vt 0.299490 0.488378
vt 0.903118 0.066564
vt 0.944243 0.066564
vt 0.940130 0.114687
vt 0.907230 0.114687
vt 0.907231 0.195649
vt 0.940130 0.195649
vt 0.659777 0.625317
vt 0.747568 0.637702
vt 0.734927 0.657447
vt 0.695827 0.657459
vt 0.695851 0.738421
vt 0.734951 0.738409
vt 0.940130 0.281124
vt 0.907230 0.281124
vt 0.734977 0.823884
vt 0.695877 0.823896
vt 0.735003 0.909358
vt 0.695903 0.909370
vt 0.940130 0.366598
vt 0.907230 0.366598
vt 0.434672 0.909370
vt 0.395572 0.909358
vt 0.941890 0.470993
vt 0.905471 0.470993
vt 0.363171 0.985456
vt 0.363458 0.943994
vt 0.351617 0.174850
vt 0.314985 0.174850
vt 0.315092 0.133387
vt 0.351511 0.133387
vt 0.348670 0.221991
vt 0.317932 0.221991
vt 0.767118 0.943994
vt 0.767404 0.985456
vt 0.901062 0.039125
vt 0.946299 0.039124
vt 0.632962 0.619140
vt 0.742545 0.612782
vt 0.946299 0.030126
vt 0.985830 0.030368
vt 0.985830 0.039366
vt 0.901062 0.030126
vt 0.660329 0.590613
vt 0.757819 0.588260
vt 0.658608 0.581781
vt 0.753490 0.563289
vt 0.375565 0.538513
vt 0.371338 0.513445
vt 0.400217 0.512659
vt 0.404003 0.537718
vt 0.282307 0.135539
vt 0.301953 0.028055
vt 0.327103 0.014758
vt 0.312781 0.110358
vt 0.295263 0.513445
vt 0.291037 0.538513
vt 0.237070 0.135539
vt 0.217425 0.028055
vt 0.206596 0.110358
vt 0.192274 0.014758
vt 0.262598 0.537718
vt 0.266384 0.512659
vt 0.470246 0.590613
vt 0.372756 0.588260
vt 0.377086 0.563289
vt 0.471967 0.581781
vt 0.497613 0.619140
vt 0.388030 0.612782
vt 0.861531 0.039366
vt 0.861531 0.030368
s 0
f 1/1/1 5/2/1 8/3/1 2/4/1
f 1/1/1 2/4/1 15/5/1 4/6/1
f 3/7/2 7/8/2 5/9/2 1/10/2
f 3/7/2 1/10/2 4/11/2 16/12/2
f 6/13/3 9/14/3 8/3/3 5/2/3
f 24/15/4 6/16/4 5/9/4 7/8/4
f 9/17/5 11/18/5 10/19/5 8/20/5
f 2/21/6 8/20/6 10/19/6 12/22/6
f 11/23/7 24/24/7 7/25/7 10/26/7
f 12/27/8 10/26/8 7/25/8 3/28/8
f 2/21/6 12/22/6 13/29/6 15/30/6
f 12/27/8 3/28/8 16/31/8 13/32/8
f 15/30/6 13/29/6 14/33/6 23/34/6
f 13/32/8 16/31/8 17/35/8 14/36/8
f 16/12/2 4/11/2 18/37/2 17/38/2
f 14/36/9 17/35/9 19/39/9 20/40/9
f 17/38/10 18/37/10 21/41/10 19/42/10
f 21/43/11 22/44/11 20/45/11 19/46/11
f 18/47/12 23/48/12 22/44/12 21/43/12
f 23/34/13 14/33/13 20/49/13 22/50/13
f 4/6/1 15/5/1 23/48/1 18/47/1
f 24/24/14 11/23/14 25/51/14 27/52/14
f 11/18/15 9/17/15 28/53/15 25/54/15
f 27/52/8 25/51/8 26/55/8 35/56/8
f 26/55/16 25/51/16 29/57/16 30/58/16
f 25/54/17 28/53/17 31/59/17 29/60/17
f 29/60/18 31/59/18 32/61/18 30/62/18
f 28/63/19 33/64/19 32/65/19 31/66/19
f 33/67/20 26/68/20 30/69/20 32/70/20
f 28/63/1 36/71/1 34/72/1 33/64/1
f 34/73/21 35/74/21 26/68/21 33/67/21
f 35/74/22 34/73/22 37/75/22 38/76/22
f 34/72/23 36/71/23 39/77/23 37/78/23
f 39/79/24 40/80/24 38/81/24 37/82/24
f 36/83/25 27/84/25 40/80/25 39/79/25
f 27/52/26 35/56/26 38/85/26 40/86/26
f 9/14/1 6/13/1 36/71/1 28/63/1
f 6/16/27 24/15/27 27/84/27 36/83/27
f 41/87/28 45/88/28 48/89/28 42/90/28
f 41/87/28 42/90/28 55/91/28 44/92/28
f 43/93/29 47/94/29 45/95/29 41/96/29
f 43/93/29 41/96/29 44/97/29 56/98/29
f 46/99/30 49/100/30 48/89/30 45/88/30
f 64/101/31 46/102/31 45/95/31 47/94/31
f 49/103/32 51/104/32 50/105/32 48/106/32
f 42/107/33 48/106/33 50/105/33 52/108/33
f 51/109/34 64/110/34 47/111/34 50/112/34
f 52/113/35 50/112/35 47/111/35 43/114/35
f 42/107/33 52/108/33 53/115/33 55/116/33
f 52/113/35 43/114/35 56/117/35 53/118/35
f 55/116/33 53/115/33 54/119/33 63/120/33
f 53/118/35 56/117/35 57/121/35 54/122/35
f 56/98/29 44/97/29 58/123/29 57/124/29
f 54/122/36 57/121/36 59/125/36 60/126/36
f 57/124/37 58/123/37 61/127/37 59/128/37
f 61/129/38 62/130/38 60/131/38 59/132/38
f 58/133/39 63/134/39 62/130/39 61/129/39
f 63/120/40 54/119/40 60/135/40 62/136/40
f 44/92/28 55/91/28 63/134/28 58/133/28
f 64/110/41 51/109/41 65/137/41 67/138/41
f 51/104/42 49/103/42 68/139/42 65/140/42
f 66/141/43 65/137/43 69/142/43 70/143/43
f 67/138/35 65/137/35 66/141/35 75/144/35
f 65/140/44 68/139/44 71/145/44 69/146/44
f 69/146/45 71/145/45 72/147/45 70/148/45
f 68/149/46 73/150/46 72/151/46 71/152/46
f 73/153/47 66/154/47 70/155/47 72/156/47
f 68/149/28 76/157/28 74/158/28 73/150/28
f 74/159/21 75/160/21 66/154/21 73/153/21
f 75/160/48 74/159/48 77/161/48 78/162/48
f 74/158/49 76/157/49 79/163/49 77/164/49
f 79/165/50 80/166/50 78/167/50 77/168/50
f 76/169/51 67/170/51 80/166/51 79/165/51
f 67/138/52 75/144/52 78/171/52 80/172/52
f 49/100/28 46/99/28 76/157/28 68/149/28
f 46/102/53 64/101/53 67/170/53 76/169/53
f 82/173/54 87/174/54 85/175/54 81/176/54
f 82/173/54 81/176/54 84/177/54 95/178/54
f 81/179/55 85/180/55 88/181/55 83/182/55
f 81/179/55 83/182/55 96/183/55 84/184/55
f 86/185/56 89/186/56 88/181/56 85/180/56
f 104/187/57 86/188/57 85/175/57 87/174/57
f 89/189/58 91/190/58 90/191/58 88/192/58
f 83/193/59 88/192/59 90/191/59 92/194/59
f 91/195/60 104/196/60 87/197/60 90/198/60
f 92/199/61 90/198/61 87/197/61 82/200/61
f 83/193/59 92/194/59 93/201/59 96/202/59
f 92/199/61 82/200/61 95/203/61 93/204/61
f 93/204/61 95/203/61 103/205/61 94/206/61
f 96/202/59 93/201/59 94/207/59 97/208/59
f 84/184/55 96/183/55 97/209/55 98/210/55
f 97/208/62 94/207/62 100/211/62 99/212/62
f 98/210/63 97/209/63 99/213/63 101/214/63
f 102/215/64 101/216/64 99/217/64 100/218/64
f 103/219/65 98/220/65 101/216/65 102/215/65
f 94/206/66 103/205/66 102/221/66 100/222/66
f 95/178/54 84/177/54 98/220/54 103/219/54
f 91/190/67 89/189/67 107/223/67 105/224/67
f 104/196/68 91/195/68 105/225/68 108/226/68
f 105/224/69 106/227/69 110/228/69 109/229/69
f 105/224/59 107/223/59 115/230/59 106/227/59
f 108/226/70 105/225/70 109/231/70 111/232/70
f 111/232/71 109/231/71 110/233/71 112/234/71
f 113/235/72 108/236/72 111/237/72 112/238/72
f 106/239/73 113/240/73 112/241/73 110/242/73
f 116/243/54 108/236/54 113/235/54 114/244/54
f 115/245/21 114/246/21 113/240/21 106/239/21
f 114/246/74 115/245/74 118/247/74 117/248/74
f 116/243/75 114/244/75 117/249/75 119/250/75
f 120/251/76 119/252/76 117/253/76 118/254/76
f 107/255/77 116/256/77 119/252/77 120/251/77
f 115/230/78 107/223/78 120/257/78 118/258/78
f 86/188/54 104/187/54 108/236/54 116/243/54
f 89/186/79 86/185/79 116/256/79 107/255/79
