# Blender 5.2.0 LTS
# www.blender.org
mtllib BrainReactorBelt.mtl
o BrainReactorBelt
v -37.117458 2.990000 -13.262505
v -36.634899 1.820000 -15.063444
v -36.634899 2.515116 -15.063444
v -37.117458 3.685116 -13.262505
v -40.063446 1.820000 -11.634898
v -38.262505 2.990000 -12.117458
v -38.262505 3.685116 -12.117458
v -40.063446 2.515116 -11.634898
v -42.945984 2.990000 -13.372394
v -41.627605 1.820000 -12.054014
v -41.627605 2.515116 -12.054014
v -42.945984 3.685116 -13.372394
v -42.882542 1.820000 -16.737495
v -43.365101 2.990000 -14.936556
v -43.365101 3.685116 -14.936556
v -42.882542 2.515116 -16.737495
v -39.936554 2.990000 -18.365101
v -41.737495 1.820000 -17.882542
v -41.737495 2.515116 -17.882542
v -39.936554 3.685116 -18.365101
v -37.054016 1.820000 -16.627605
v -38.372395 2.990000 -17.945986
v -38.372395 3.685116 -17.945986
v -37.054016 2.515116 -16.627605
v -36.115063 2.990000 -12.993914
v -35.632504 1.820000 -14.794853
v -39.794853 1.820000 -10.632503
v -37.993916 2.990000 -11.115063
v -37.993912 3.685116 -11.115063
v -39.794853 2.515116 -10.632503
v -35.632504 2.515116 -14.794853
v -36.115063 3.685116 -12.993914
v -43.679790 2.990000 -12.638589
v -42.361412 1.820000 -11.320210
v -42.361412 2.515116 -11.320210
v -43.679790 3.685116 -12.638589
v -43.884937 1.820000 -17.006086
v -44.367496 2.990000 -15.205147
v -44.367496 3.685116 -15.205147
v -43.884937 2.515116 -17.006086
v -40.205147 2.990000 -19.367496
v -42.006084 1.820000 -18.884937
v -42.006088 2.515116 -18.884937
v -40.205147 3.685116 -19.367496
v -36.320210 1.820000 -17.361410
v -37.638588 2.990000 -18.679790
v -37.638588 3.685116 -18.679790
v -36.320210 2.515116 -17.361410
v -38.262505 0.650000 -12.117458
v -40.063446 1.124884 -11.634898
v -38.262505 -0.045116 -12.117458
v -37.117458 0.650000 -13.262505
v -37.117458 -0.045116 -13.262505
v -36.634899 1.124885 -15.063444
v -38.372395 0.650001 -17.945986
v -37.054016 1.124885 -16.627605
v -38.372395 -0.045115 -17.945986
v -39.936554 0.650000 -18.365101
v -39.936554 -0.045115 -18.365101
v -41.737495 1.124884 -17.882542
v -43.365101 0.650000 -14.936556
v -42.882542 1.124884 -16.737495
v -43.365101 -0.045116 -14.936556
v -42.945984 0.650000 -13.372394
v -42.945984 -0.045116 -13.372395
v -41.627605 1.124884 -12.054014
v -37.993912 0.650000 -11.115063
v -36.115063 0.650000 -12.993914
v -36.115063 -0.045116 -12.993914
v -35.632504 1.124885 -14.794853
v -39.794853 1.124884 -10.632503
v -37.993912 -0.045116 -11.115063
v -37.638588 0.650001 -18.679790
v -36.320210 1.124885 -17.361410
v -37.638588 -0.045115 -18.679790
v -40.205147 0.650001 -19.367496
v -40.205147 -0.045115 -19.367496
v -42.006084 1.124884 -18.884937
v -44.367496 0.650000 -15.205147
v -43.884937 1.124884 -17.006086
v -44.367496 -0.045116 -15.205147
v -43.679790 0.649999 -12.638590
v -43.679790 -0.045116 -12.638590
v -42.361412 1.124884 -11.320210
v -35.747929 1.820000 -16.835085
v -35.400055 1.820000 -15.536805
v -36.771259 1.820000 -15.248852
v -37.079403 1.820000 -16.398857
v -36.679848 2.515116 -16.182549
v -36.533390 2.515116 -15.635960
v -35.989964 2.515116 -16.388008
v -35.833202 2.515116 -15.802968
v -36.533390 1.124885 -15.635960
v -36.679848 1.124885 -16.182549
v -35.989964 1.124885 -16.388008
v -35.833202 1.124885 -15.802968
v -42.684193 2.515116 -17.284063
v -42.284065 2.515116 -17.684195
v -42.778790 2.515116 -18.207067
v -43.207069 2.515116 -17.778790
v -42.684193 1.124884 -17.284063
v -42.284061 1.124884 -17.684195
v -42.778790 1.124884 -18.207069
v -43.207069 1.124884 -17.778790
v -41.829884 1.820000 -17.671745
v -42.671745 1.820000 -16.829884
v -43.715267 1.820000 -17.764860
v -42.764858 1.820000 -18.715267
v -41.182549 2.515116 -11.679847
v -40.635960 2.515116 -11.533388
v -40.802967 2.515116 -10.833203
v -41.388008 2.515116 -10.989964
v -41.388008 1.124884 -10.989964
v -40.802967 1.124884 -10.833203
v -40.635960 1.124884 -11.533388
v -41.182549 1.124884 -11.679847
v -41.398857 1.820000 -12.079403
v -40.248852 1.820000 -11.771260
v -40.536804 1.820000 -10.400055
v -41.835087 1.820000 -10.747929
v -35.548588 2.275034 -14.790912
v -35.546829 2.065120 -14.790829
v -36.041412 3.226890 -12.955882
v -36.038063 3.437449 -12.954152
v -39.790829 2.065119 -10.546827
v -39.790913 2.275034 -10.548589
v -37.954151 3.437449 -11.038062
v -37.955883 3.226890 -11.041412
v -43.749550 3.226890 -12.593822
v -43.752724 3.437449 -12.591785
v -42.406780 2.275034 -11.249509
v -42.407734 2.065119 -11.248026
v -43.961147 2.065119 -17.045439
v -43.959579 2.275034 -17.044630
v -44.454063 3.437449 -15.209213
v -44.450294 3.226889 -15.209036
v -40.209038 3.226890 -19.450294
v -40.209213 3.437449 -19.454063
v -42.044628 2.275034 -18.959579
v -42.045441 2.065120 -18.961145
v -36.248024 2.065120 -17.407734
v -36.249508 2.275034 -17.406782
v -37.591785 3.437449 -18.752724
v -37.593822 3.226890 -18.749550
v -35.309769 2.065259 -15.547341
v -35.311485 2.274519 -15.547141
v -35.666058 2.274519 -16.870419
v -35.664471 2.065259 -16.871103
v -42.819126 2.065259 -18.788189
v -42.818096 2.274519 -18.786802
v -43.786804 2.274519 -17.818096
v -43.788189 2.065259 -17.819126
v -41.871105 2.065259 -10.664471
v -41.870419 2.274519 -10.666057
v -40.547142 2.274519 -10.311485
v -40.547340 2.065259 -10.309770
v -35.546829 1.574881 -14.790829
v -35.548588 1.364966 -14.790912
v -37.955883 0.413111 -11.041412
v -37.954151 0.202551 -11.038062
v -36.038063 0.202551 -12.954152
v -36.041412 0.413111 -12.955883
v -37.593822 0.413111 -18.749552
v -37.591785 0.202552 -18.752726
v -40.209213 0.202552 -19.454063
v -40.209034 0.413111 -19.450294
v -44.450294 0.413110 -15.209037
v -44.454063 0.202551 -15.209213
v -43.752724 0.202551 -12.591785
v -43.749550 0.413110 -12.593822
v -36.249508 1.364966 -17.406782
v -36.248024 1.574881 -17.407734
v -43.959579 1.364966 -17.044630
v -43.961147 1.574881 -17.045439
v -39.790913 1.364966 -10.548589
v -39.790829 1.574880 -10.546827
v -42.045441 1.574881 -18.961145
v -42.044628 1.364966 -18.959579
v -42.407734 1.574880 -11.248026
v -42.406780 1.364965 -11.249509
v -35.664471 1.574742 -16.871103
v -35.666058 1.365482 -16.870419
v -35.311485 1.365482 -15.547141
v -35.309769 1.574742 -15.547341
v -42.818096 1.365481 -18.786802
v -42.819126 1.574742 -18.788189
v -43.788189 1.574742 -17.819128
v -43.786800 1.365481 -17.818096
v -41.870419 1.365481 -10.666057
v -41.871105 1.574741 -10.664471
v -40.547340 1.574741 -10.309770
v -40.547142 1.365481 -10.311485
v -40.543129 2.276093 -10.122589
v -40.543415 2.066832 -10.120871
v -39.737091 2.065669 -10.365686
v -39.738461 2.275155 -10.367069
v -42.542965 2.275155 -11.118536
v -42.544842 2.065669 -11.118021
v -41.968956 2.066832 -10.502844
v -41.968342 2.276092 -10.504474
v -42.089966 2.275155 -19.143005
v -42.089470 2.065669 -19.144888
v -42.910175 2.066833 -18.953743
v -42.909069 2.276093 -18.952396
v -43.952396 2.276093 -17.909069
v -43.953743 2.066833 -17.910175
v -44.144890 2.065669 -17.089472
v -44.143005 2.275155 -17.089964
v -35.120872 2.066833 -15.543413
v -35.122589 2.276093 -15.543130
v -35.367069 2.275155 -14.738459
v -35.365685 2.065669 -14.737091
v -36.118019 2.065670 -17.544842
v -36.118534 2.275155 -17.542965
v -35.504475 2.276093 -16.968342
v -35.502846 2.066833 -16.968954
v -37.506927 3.435071 -18.921528
v -37.493217 3.224945 -18.909473
v -40.216198 3.224945 -19.639095
v -40.198299 3.435071 -19.642677
v -44.642677 3.435071 -15.198299
v -44.639095 3.224945 -15.216200
v -43.909473 3.224945 -12.493218
v -43.921528 3.435071 -12.506929
v -37.850395 3.435071 -10.880174
v -37.867687 3.224945 -10.874326
v -35.874325 3.224945 -12.867687
v -35.880173 3.435071 -12.850393
v -40.543415 1.573167 -10.120871
v -40.543129 1.363907 -10.122589
v -39.738461 1.364845 -10.367069
v -39.737091 1.574331 -10.365686
v -42.544842 1.574330 -11.118021
v -42.542965 1.364844 -11.118536
v -41.968342 1.363907 -10.504474
v -41.968956 1.573167 -10.502844
v -42.089470 1.574331 -19.144888
v -42.089966 1.364845 -19.143005
v -42.909069 1.363907 -18.952396
v -42.910175 1.573168 -18.953743
v -43.953743 1.573168 -17.910175
v -43.952396 1.363907 -17.909069
v -44.143005 1.364845 -17.089964
v -44.144890 1.574331 -17.089472
v -35.502846 1.573168 -16.968954
v -35.504475 1.363908 -16.968342
v -36.118534 1.364845 -17.542965
v -36.118019 1.574331 -17.544842
v -35.365685 1.574331 -14.737091
v -35.367069 1.364845 -14.738459
v -35.122589 1.363908 -15.543130
v -35.120872 1.573168 -15.543413
v -43.921528 0.204929 -12.506929
v -43.909473 0.415055 -12.493218
v -44.639095 0.415055 -15.216200
v -44.642677 0.204929 -15.198299
v -40.198299 0.204930 -19.642677
v -40.216198 0.415056 -19.639095
v -37.493217 0.415056 -18.909473
v -37.506927 0.204930 -18.921528
v -35.880173 0.204929 -12.850393
v -35.874325 0.415056 -12.867687
v -37.867687 0.415055 -10.874326
v -37.850391 0.204929 -10.880174
v -36.771259 1.124885 -15.248852
v -37.079403 1.124885 -16.398857
v -35.747929 1.124885 -16.835085
v -35.400055 1.124885 -15.536805
v -35.747929 2.515116 -16.835085
v -35.400055 2.515116 -15.536805
v -37.079403 2.515116 -16.398857
v -36.771259 2.515116 -15.248852
v -42.764858 1.124884 -18.715267
v -43.715267 1.124884 -17.764860
v -42.671745 1.124884 -16.829884
v -41.829884 1.124884 -17.671745
v -42.671745 2.515116 -16.829884
v -41.829884 2.515116 -17.671745
v -42.764858 2.515116 -18.715267
v -43.715267 2.515116 -17.764860
v -41.835087 1.124884 -10.747929
v -40.536804 1.124884 -10.400055
v -40.248852 1.124884 -11.771260
v -41.398857 1.124884 -12.079403
v -40.536804 2.515116 -10.400055
v -41.835087 2.515116 -10.747929
v -41.398857 2.515116 -12.079403
v -40.248852 2.515116 -11.771260
vn 0.1376 0.8470 -0.5134
vn -0.5134 0.8470 0.1376
vn 0.3759 0.8470 0.3759
vn -0.9659 -0.0000 -0.2588
vn -0.7071 -0.0000 0.7071
vn 0.2588 -0.0000 0.9659
vn 0.9659 -0.0000 0.2588
vn -0.3759 0.8470 -0.3759
vn -0.0000 1.0000 -0.0000
vn -0.1376 0.8470 0.5134
vn -0.0000 -1.0000 -0.0000
vn -0.3759 0.8470 -0.3758
vn 0.9659 -0.0000 -0.2588
vn 0.5134 -0.8470 -0.1376
vn -0.7071 -0.0000 -0.7071
vn -0.2588 -0.0000 0.9659
vn 0.5134 0.8470 -0.1376
vn -0.5134 -0.8470 0.1376
vn 0.1376 -0.8470 -0.5134
vn 0.3759 -0.8470 0.3759
vn -0.3759 -0.8470 -0.3759
vn -0.1376 -0.8470 0.5134
vn 0.7071 -0.0000 -0.7071
vn -0.2588 -0.0000 -0.9659
vn -0.9659 -0.0000 0.2588
vn -0.2320 -0.0000 -0.9727
vn 0.7071 -0.0000 0.7071
vn 0.6873 -0.0000 -0.7264
vn 0.2588 -0.0000 -0.9659
vn -0.9727 -0.0000 -0.2320
vn -0.9939 -0.0000 -0.1103
vn -0.8056 -0.0000 0.5925
vn 0.9159 -0.0000 0.4014
vn 0.4014 -0.0000 0.9159
vn -0.1103 -0.0000 -0.9939
vn 0.5925 -0.0000 -0.8056
vn 0.0022 1.0000 -0.0084
vn -0.4719 0.8530 0.2228
vn 0.0056 1.0000 0.0009
vn 0.4289 -0.8530 0.2972
vn -0.0022 -1.0000 0.0084
vn 0.4809 -0.8538 -0.1994
vn -0.4132 0.8538 -0.3168
vn 0.0044 -1.0000 -0.0036
vn 0.2972 0.8530 0.4289
vn -0.0044 -1.0000 -0.0011
vn -0.5201 -0.8530 0.0429
vn -0.3168 -0.8538 -0.4132
vn 0.5162 0.8538 -0.0677
vn -0.0033 1.0000 0.0031
vn 0.0429 0.8530 -0.5201
vn 0.0044 1.0000 -0.0036
vn 0.0429 -0.8530 -0.5201
vn -0.0677 -0.8538 0.5162
vn -0.0677 0.8538 0.5162
vn 0.0056 -1.0000 0.0009
vn -0.5201 0.8530 0.0430
vn -0.0033 -1.0000 0.0031
vn 0.2972 -0.8530 0.4289
vn 0.5162 -0.8538 -0.0677
vn -0.3168 0.8538 -0.4132
vn -0.0044 1.0000 -0.0011
vn 0.4289 0.8530 0.2972
vn -0.0053 1.0000 -0.0020
vn 0.0091 -0.9999 0.0091
vn -0.4132 -0.8538 -0.3168
vn 0.0044 1.0000 0.0013
vn 0.0091 0.9999 0.0091
vn 0.0044 -1.0000 0.0013
vn -0.0076 0.9999 -0.0076
vn -0.0053 -1.0000 -0.0020
vn -0.0076 -0.9999 -0.0076
vn 0.9039 0.3206 0.2832
vn 0.8452 -0.3169 0.4304
vn 0.9471 0.3169 0.0499
vn 0.9039 -0.3206 0.2832
vn 0.6708 0.3163 0.6708
vn 0.6708 -0.3163 0.6708
vn 0.2832 -0.3206 0.9039
vn 0.0499 0.3169 0.9471
vn 0.4304 -0.3169 0.8452
vn 0.2832 0.3206 0.9039
vn -0.9164 -0.3163 0.2455
vn -0.5168 0.3169 0.7953
vn -0.7953 -0.3169 0.5167
vn -0.9163 0.3163 0.2455
vn -0.6972 -0.3206 0.6412
vn -0.6972 0.3206 0.6412
vn -0.9244 -0.3206 -0.2067
vn -0.8452 0.3169 -0.4304
vn -0.9471 -0.3169 -0.0499
vn -0.9244 0.3206 -0.2067
vn 0.2455 -0.3162 -0.9164
vn -0.4304 0.3169 -0.8452
vn -0.0499 -0.3169 -0.9471
vn 0.2455 0.3163 -0.9164
vn -0.2067 -0.3206 -0.9244
vn -0.2067 0.3206 -0.9244
vn 0.6412 -0.3206 -0.6972
vn 0.7953 0.3169 -0.5168
vn 0.5167 -0.3169 -0.7953
vn 0.6412 0.3206 -0.6972
vn 0.9069 0.3443 -0.2430
vn 0.9069 -0.3443 -0.2430
vn -0.6639 0.3443 -0.6639
vn -0.6639 -0.3443 -0.6639
vn -0.2430 0.3443 0.9069
vn -0.2430 -0.3443 0.9069
vn 0.9471 -0.3169 0.0499
vn 0.8452 0.3169 0.4304
vn 0.4304 0.3169 0.8452
vn 0.0499 -0.3169 0.9471
vn 0.2455 0.3162 -0.9164
vn 0.7953 -0.3169 -0.5168
vn 0.5167 0.3169 -0.7953
vn 0.2455 -0.3163 -0.9164
vn -0.4304 -0.3169 -0.8452
vn -0.0499 0.3169 -0.9471
vn -0.8452 -0.3169 -0.4304
vn -0.9471 0.3169 -0.0499
vn -0.9163 -0.3163 0.2455
vn -0.5168 -0.3169 0.7953
vn -0.7953 0.3169 0.5167
vn 0.2906 0.0078 0.9568
vn -0.7301 0.0078 0.6833
vn -0.2267 0.0078 -0.9739
vn -0.9739 0.0078 -0.2267
vn 0.9568 0.0078 0.2906
vn 0.6833 0.0078 -0.7301
vn -0.2588 0.0083 0.9659
vn -0.7071 0.0083 -0.7071
vn 0.9659 0.0083 -0.2588
vn 0.2586 -0.0385 -0.9652
vn -0.9652 -0.0385 0.2586
vn 0.7066 -0.0385 0.7066
vn 0.7073 0.0068 -0.7068
vn -0.2592 0.0068 -0.9658
vn -0.9658 0.0068 -0.2592
vn -0.7068 0.0068 0.7074
vn 0.2585 0.0068 0.9660
vn 0.9660 0.0068 0.2585
vn 0.2906 -0.0078 0.9568
vn -0.7301 -0.0078 0.6833
vn -0.2267 -0.0078 -0.9739
vn -0.9739 -0.0078 -0.2267
vn 0.6833 -0.0078 -0.7301
vn 0.9568 -0.0078 0.2906
vn -0.2588 -0.0083 0.9659
vn -0.7071 -0.0083 -0.7071
vn 0.9659 -0.0083 -0.2588
vn -0.9652 0.0385 0.2586
vn 0.2586 0.0385 -0.9652
vn 0.7066 0.0385 0.7066
vn -0.7068 -0.0068 0.7073
vn -0.9658 -0.0068 -0.2592
vn -0.2592 -0.0068 -0.9658
vn 0.7073 -0.0068 -0.7068
vn 0.9660 -0.0068 0.2585
vn 0.2585 -0.0068 0.9660
vn -0.1994 0.8538 0.4809
vn 0.0022 -1.0000 -0.0084
vn 0.2228 0.8530 -0.4719
vn -0.0061 -1.0000 -0.0061
vn 0.2228 -0.8530 -0.4719
vn -0.0022 1.0000 0.0084
vn -0.1994 -0.8538 0.4809
vn 0.0061 1.0000 0.0061
vn 0.0009 -1.0000 0.0056
vn -0.4719 -0.8530 0.2228
vn 0.0061 -1.0000 0.0061
vn 0.0084 -1.0000 -0.0022
vn 0.4809 0.8538 -0.1994
vn -0.0061 1.0000 -0.0061
vn -0.0011 -1.0000 -0.0044
vn -0.0084 1.0000 0.0022
vn -0.0011 1.0000 -0.0044
vn 0.0084 1.0000 -0.0022
vn -0.0084 -1.0000 0.0022
vn 0.0009 1.0000 0.0056
vn -0.0028 -0.9999 0.0104
vn -0.0036 -1.0000 0.0044
vn 0.0104 0.9999 -0.0028
vn 0.0031 -1.0000 -0.0033
vn 0.0033 0.9999 -0.0124
vn 0.0031 1.0000 -0.0033
vn -0.0124 -0.9999 0.0033
vn -0.0036 1.0000 0.0044
vn 0.0104 -0.9999 -0.0028
vn -0.0020 -1.0000 -0.0053
vn -0.0028 0.9999 0.0104
vn 0.0013 -1.0000 0.0044
vn -0.0124 0.9999 0.0033
vn 0.0013 1.0000 0.0044
vn 0.0033 -0.9999 -0.0124
vn -0.0020 1.0000 -0.0053
vn -0.7264 -0.0000 0.6873
vn 0.9584 -0.0000 0.2854
vn 0.2854 -0.0000 0.9584
vt 0.316984 0.879798
vt 0.329459 0.935683
vt 0.216053 0.952877
vt 0.225894 0.905041
vt 0.020016 0.940346
vt 0.027746 0.883339
vt 0.121825 0.905846
vt 0.132838 0.947907
vt 0.545402 0.951535
vt 0.556195 0.909727
vt 0.649375 0.885566
vt 0.658005 0.942412
vt 0.348454 0.941436
vt 0.359662 0.885063
vt 0.452244 0.908299
vt 0.462428 0.956258
vt 0.874324 0.945843
vt 0.883962 0.902660
vt 0.975054 0.879560
vt 0.984303 0.934690
vt 0.676488 0.934821
vt 0.686169 0.881968
vt 0.780096 0.904948
vt 0.788593 0.955355
vt 0.208418 0.429829
vt 0.208418 0.398832
vt 0.291560 0.451006
vt 0.291560 0.482003
vt 0.448319 0.398832
vt 0.448319 0.429829
vt 0.365177 0.482003
vt 0.365177 0.451006
vt 0.603672 0.451006
vt 0.603672 0.482003
vt 0.520530 0.429829
vt 0.520530 0.398832
vt 0.760431 0.398832
vt 0.760431 0.429829
vt 0.677289 0.482003
vt 0.677289 0.451006
vt 0.692586 0.770411
vt 0.679213 0.723323
vt 0.775974 0.698695
vt 0.793547 0.739850
vt 0.227701 0.696407
vt 0.324393 0.720437
vt 0.310718 0.767650
vt 0.210575 0.738643
vt 0.136384 0.819950
vt 0.209209 0.821826
vt 0.228175 0.862134
vt 0.118917 0.861524
vt 0.467809 0.824384
vt 0.540261 0.825739
vt 0.559209 0.865558
vt 0.450055 0.865211
vt 0.652182 0.727962
vt 0.637689 0.773842
vt 0.540373 0.743103
vt 0.559322 0.702881
vt 0.795733 0.820272
vt 0.868551 0.819076
vt 0.886233 0.859926
vt 0.776930 0.860729
vt 0.832642 0.398832
vt 0.832642 0.429829
vt 0.979444 0.834319
vt 0.966099 0.788832
vt 0.208418 0.565174
vt 0.136207 0.565174
vt 0.136207 0.534176
vt 0.208418 0.534176
vt 0.977349 0.725161
vt 0.962179 0.770411
vt 0.866200 0.738236
vt 0.885215 0.698063
vt 0.030539 0.676891
vt 0.022835 0.627401
vt 0.127807 0.611060
vt 0.120318 0.655283
vt 0.328388 0.620531
vt 0.318921 0.674084
vt 0.223940 0.652114
vt 0.214798 0.600449
vt 0.790441 0.611848
vt 0.779148 0.653754
vt 0.684449 0.676815
vt 0.676667 0.619254
vt 0.022586 0.836720
vt 0.036812 0.789776
vt 0.986083 0.624659
vt 0.973917 0.680160
vt 0.883152 0.655756
vt 0.873499 0.607930
vt 0.039698 0.767650
vt 0.025618 0.721782
vt 0.118078 0.697638
vt 0.136987 0.737784
vt 0.464390 0.609258
vt 0.452891 0.658308
vt 0.358389 0.680295
vt 0.347760 0.622655
vt 0.653776 0.839658
vt 0.639609 0.793241
vt 0.655171 0.632755
vt 0.647673 0.682879
vt 0.556703 0.659734
vt 0.548853 0.616851
vt 0.677289 0.513000
vt 0.760431 0.534176
vt 0.760431 0.565174
vt 0.520530 0.565174
vt 0.520530 0.534176
vt 0.603672 0.513000
vt 0.365177 0.513000
vt 0.448319 0.534176
vt 0.448319 0.565174
vt 0.291560 0.513000
vt 0.681279 0.835803
vt 0.696102 0.788832
vt 0.355307 0.839296
vt 0.369036 0.793241
vt 0.320310 0.835032
vt 0.305200 0.789776
vt 0.467074 0.744191
vt 0.449799 0.702141
vt 0.367195 0.773842
vt 0.353216 0.726754
vt 0.832642 0.565174
vt 0.832642 0.534176
vt 0.136207 0.398832
vt 0.136207 0.429829
vt 0.915784 0.482003
vt 0.915784 0.513000
vt 0.053065 0.513000
vt 0.053065 0.482003
vt 0.915784 0.451006
vt 0.053065 0.451006
vt 0.064771 0.242974
vt 0.037762 0.242973
vt 0.037762 0.180979
vt 0.064771 0.180979
vt 0.096870 0.242974
vt 0.096870 0.180979
vt 0.354914 0.482003
vt 0.354914 0.513000
vt 0.301823 0.513000
vt 0.301823 0.482003
vt 0.354914 0.451006
vt 0.301823 0.451006
vt 0.667026 0.482003
vt 0.667026 0.513000
vt 0.613935 0.513000
vt 0.613935 0.482003
vt 0.329474 0.181444
vt 0.354708 0.181444
vt 0.354708 0.243439
vt 0.329474 0.243439
vt 0.297375 0.181444
vt 0.297375 0.243439
vt 0.667026 0.451006
vt 0.613935 0.451006
vt 0.926047 0.513000
vt 0.926047 0.482003
vt 0.979138 0.482003
vt 0.979138 0.513000
vt 0.979138 0.451006
vt 0.926047 0.451006
vt 0.250777 0.243439
vt 0.225543 0.243439
vt 0.225543 0.181445
vt 0.250777 0.181445
vt 0.282876 0.243439
vt 0.282876 0.181445
vt 0.805345 0.215383
vt 0.815689 0.210627
vt 0.816114 0.273891
vt 0.782394 0.264272
vt 0.875448 0.212484
vt 0.885521 0.218123
vt 0.903485 0.268874
vt 0.870689 0.276307
vt 0.812327 0.180893
vt 0.802054 0.175984
vt 0.780117 0.126986
vt 0.813536 0.117590
vt 0.882315 0.174519
vt 0.872157 0.180019
vt 0.868137 0.116155
vt 0.901283 0.123766
vt 0.634465 0.216674
vt 0.644394 0.210913
vt 0.650113 0.274399
vt 0.617390 0.267238
vt 0.704155 0.208000
vt 0.714639 0.212639
vt 0.738445 0.261717
vt 0.704659 0.271593
vt 0.726218 0.178026
vt 0.715978 0.183083
vt 0.714456 0.119731
vt 0.746677 0.128832
vt 0.656110 0.183083
vt 0.645919 0.177722
vt 0.625530 0.127105
vt 0.659862 0.119249
vt 0.479348 0.218968
vt 0.489551 0.213941
vt 0.491256 0.277187
vt 0.458494 0.267889
vt 0.549419 0.213942
vt 0.559652 0.219332
vt 0.579685 0.270209
vt 0.545877 0.277898
vt 0.042802 0.482003
vt 0.042802 0.451006
vt 0.459112 0.123157
vt 0.492311 0.115322
vt 0.488376 0.178278
vt 0.478368 0.172911
vt 0.546902 0.116081
vt 0.580290 0.125274
vt 0.558596 0.175227
vt 0.548176 0.180261
vt 0.042802 0.513000
vt 0.490559 0.287305
vt 0.546143 0.288552
vt 0.546549 0.296248
vt 0.489837 0.294330
vt 0.120329 0.896037
vt 0.023945 0.873349
vt 0.025761 0.865802
vt 0.121447 0.887867
vt 0.869586 0.082753
vt 0.904963 0.084148
vt 0.904585 0.092410
vt 0.869392 0.090080
vt 0.680712 0.686648
vt 0.777276 0.665077
vt 0.778383 0.673253
vt 0.682512 0.694168
vt 0.547221 0.312086
vt 0.488559 0.310859
vt 0.489125 0.302789
vt 0.547076 0.304706
vt 0.024897 0.848108
vt 0.120624 0.871740
vt 0.119271 0.879208
vt 0.022967 0.856804
vt 0.777689 0.688460
vt 0.681580 0.711901
vt 0.679679 0.703175
vt 0.776385 0.681113
vt 0.813049 0.309008
vt 0.776071 0.305450
vt 0.776924 0.296748
vt 0.813618 0.300833
vt 0.652913 0.875811
vt 0.557949 0.898464
vt 0.556832 0.891596
vt 0.651023 0.868415
vt 0.902717 0.111171
vt 0.868413 0.105519
vt 0.868850 0.098487
vt 0.903783 0.102812
vt 0.884450 0.665576
vt 0.977192 0.689784
vt 0.975199 0.696985
vt 0.883253 0.672412
vt 0.557591 0.875683
vt 0.651644 0.850944
vt 0.653661 0.859496
vt 0.558933 0.882973
vt 0.975474 0.714077
vt 0.883802 0.688373
vt 0.885241 0.680999
vt 0.977609 0.705754
vt 0.780006 0.277230
vt 0.815307 0.284609
vt 0.814530 0.292336
vt 0.778376 0.285919
vt 0.450836 0.898426
vt 0.356161 0.875333
vt 0.358059 0.867983
vt 0.452024 0.890289
vt 0.774177 0.086235
vt 0.810908 0.083094
vt 0.811431 0.091234
vt 0.774957 0.094878
vt 0.354669 0.690128
vt 0.451273 0.668252
vt 0.452322 0.676490
vt 0.356477 0.697633
vt 0.357446 0.850566
vt 0.451547 0.875008
vt 0.450132 0.882445
vt 0.355432 0.859096
vt 0.451580 0.691891
vt 0.355564 0.715355
vt 0.353655 0.706641
vt 0.450279 0.684372
vt 0.906886 0.308022
vt 0.871743 0.309074
vt 0.871588 0.301765
vt 0.906555 0.299820
vt 0.978562 0.869904
vt 0.885281 0.892871
vt 0.884101 0.886028
vt 0.976705 0.862638
vt 0.812854 0.107452
vt 0.777866 0.114208
vt 0.776324 0.105610
vt 0.812139 0.099748
vt 0.558304 0.670774
vt 0.651214 0.692470
vt 0.649392 0.699754
vt 0.557158 0.677525
vt 0.884675 0.870042
vt 0.977332 0.845419
vt 0.979310 0.853830
vt 0.886112 0.877444
vt 0.650056 0.716880
vt 0.557829 0.693233
vt 0.559186 0.686029
vt 0.652010 0.708482
vt 0.870882 0.286354
vt 0.904812 0.281269
vt 0.905809 0.289524
vt 0.871261 0.293354
vt 0.778213 0.893705
vt 0.682518 0.872207
vt 0.684346 0.864738
vt 0.779287 0.885579
vt 0.621480 0.085525
vt 0.658666 0.083993
vt 0.658792 0.092191
vt 0.621853 0.094278
vt 0.119002 0.664868
vt 0.225944 0.663431
vt 0.224956 0.670365
vt 0.120194 0.672821
vt 0.683543 0.847170
vt 0.778551 0.870476
vt 0.777282 0.877775
vt 0.681596 0.855817
vt 0.616160 0.279552
vt 0.649981 0.284474
vt 0.649637 0.291491
vt 0.615206 0.287752
vt 0.227535 0.893727
vt 0.226351 0.886880
vt 0.659614 0.108494
vt 0.623861 0.113985
vt 0.622708 0.105196
vt 0.659249 0.100731
vt 0.225983 0.686553
vt 0.119685 0.687665
vt 0.118340 0.680486
vt 0.227249 0.679036
vt 0.649066 0.307158
vt 0.614188 0.306105
vt 0.614498 0.297971
vt 0.649197 0.299865
vt 0.226759 0.871833
vt 0.228159 0.879074
vt 0.318433 0.846113
vt 0.320161 0.870342
vt 0.872465 0.320627
vt 0.908135 0.319873
vt 0.452585 0.307576
vt 0.487330 0.322493
vt 0.450632 0.319712
vt 0.456357 0.280344
vt 0.583345 0.310877
vt 0.584560 0.323030
vt 0.547997 0.323602
vt 0.581217 0.283130
vt 0.648264 0.318484
vt 0.612983 0.317830
vt 0.707752 0.306693
vt 0.744931 0.303155
vt 0.746916 0.315714
vt 0.708949 0.318484
vt 0.740921 0.274753
vt 0.705529 0.282274
vt 0.774110 0.317901
vt 0.811749 0.320627
vt 0.906266 0.072258
vt 0.870465 0.071356
vt 0.322712 0.683857
vt 0.321975 0.709054
vt 0.027826 0.710779
vt 0.026907 0.686459
vt 0.809788 0.071356
vt 0.772304 0.073828
vt 0.620205 0.072964
vt 0.658000 0.072315
vt 0.457508 0.110542
vt 0.492001 0.105250
vt 0.453779 0.071168
vt 0.490064 0.070165
vt 0.490866 0.081793
vt 0.455129 0.083217
vt 0.718593 0.075636
vt 0.754075 0.078330
vt 0.752185 0.090064
vt 0.717246 0.087116
vt 0.715174 0.109722
vt 0.748669 0.116581
vt 0.550735 0.070165
vt 0.587780 0.072556
vt 0.585947 0.084818
vt 0.549528 0.081707
vt 0.547574 0.105368
vt 0.582379 0.112507
vt 0.453417 0.299132
vt 0.454835 0.288683
vt 0.583027 0.302424
vt 0.582291 0.291745
vt 0.744068 0.294393
vt 0.707153 0.298518
vt 0.706344 0.289980
vt 0.742589 0.283494
vt 0.318161 0.863192
vt 0.320568 0.854435
vt 0.491541 0.097597
vt 0.456378 0.102088
vt 0.455531 0.091572
vt 0.491093 0.089140
vt 0.583861 0.103999
vt 0.548250 0.098301
vt 0.549045 0.089834
vt 0.585188 0.093375
vt 0.750107 0.108421
vt 0.715923 0.102762
vt 0.716698 0.094395
vt 0.751410 0.098213
vt 0.323828 0.700348
vt 0.320962 0.691400
vt 0.028655 0.693693
vt 0.025959 0.702396
vt 0.828176 0.164690
vt 0.855459 0.164578
vt 0.828289 0.132044
vt 0.853880 0.131698
vt 0.831026 0.259726
vt 0.856603 0.260486
vt 0.858608 0.227631
vt 0.831346 0.227103
vt 0.699648 0.134797
vt 0.674073 0.134192
vt 0.672760 0.167358
vt 0.700060 0.167166
vt 0.688665 0.224779
vt 0.661385 0.225767
vt 0.689403 0.257188
vt 0.663848 0.258811
vt 0.531972 0.131051
vt 0.506406 0.130333
vt 0.504864 0.162879
vt 0.532118 0.164019
vt 0.505908 0.262515
vt 0.531509 0.262561
vt 0.532786 0.229652
vt 0.505491 0.229879
vt 0.386807 0.181444
vt 0.386807 0.243439
vt 0.413815 0.181444
vt 0.413816 0.243439
vt 0.193444 0.243439
vt 0.193444 0.181445
vt 0.166435 0.243439
vt 0.166435 0.181445
vt 0.154203 0.242974
vt 0.122104 0.242974
vt 0.122104 0.180979
vt 0.154203 0.180979
s 0
f 31/1/1 3/2/1 4/3/1 32/4/1
f 8/5/2 30/6/2 29/7/2 7/8/2
f 12/9/3 36/10/3 35/11/3 11/12/3
f 16/13/1 40/14/1 39/15/1 15/16/1
f 20/17/2 44/18/2 43/19/2 19/20/2
f 24/21/3 48/22/3 47/23/3 23/24/3
f 1/25/4 4/26/4 3/27/4 2/28/4
f 23/29/5 22/30/5 21/31/5 24/32/5
f 19/33/6 18/34/6 17/35/6 20/36/6
f 15/37/7 14/38/7 13/39/7 16/40/7
f 21/41/8 45/42/8 73/43/8 55/44/8
f 4/3/9 7/8/9 29/7/9 32/4/9
f 68/45/10 26/46/10 2/47/10 52/48/10
f 6/49/11 1/50/11 25/51/11 28/52/11
f 12/9/9 15/16/9 39/15/9 36/10/9
f 14/53/11 9/54/11 33/55/11 38/56/11
f 34/57/12 10/58/12 64/59/12 82/60/12
f 22/61/11 17/62/11 41/63/11 46/64/11
f 20/17/9 23/24/9 47/23/9 44/18/9
f 15/37/13 12/65/13 9/66/13 14/38/13
f 42/67/14 41/63/14 17/62/14 18/68/14
f 53/69/15 51/70/15 49/71/15 52/72/15
f 23/29/16 20/36/16 17/35/16 22/30/16
f 42/73/17 18/74/17 58/75/17 76/76/17
f 71/77/18 50/78/18 51/79/18 72/80/18
f 54/81/19 70/82/19 69/83/19 53/84/19
f 57/85/20 75/86/20 74/87/20 56/88/20
f 28/52/14 27/89/14 5/90/14 6/49/14
f 60/91/18 78/92/18 77/93/18 59/94/18
f 5/95/17 27/96/17 67/97/17 49/98/17
f 63/99/19 81/100/19 80/101/19 62/102/19
f 34/103/21 33/55/21 9/54/21 10/104/21
f 66/105/20 84/106/20 83/107/20 65/108/20
f 62/109/7 13/39/7 61/110/7 63/111/7
f 59/112/6 58/113/6 18/34/6 60/114/6
f 56/115/5 21/31/5 55/116/5 57/117/5
f 53/69/4 52/72/4 2/28/4 54/118/4
f 51/79/11 53/84/11 69/83/11 72/80/11
f 52/48/9 49/98/9 67/97/9 68/45/9
f 63/99/11 65/108/11 83/107/11 81/100/11
f 46/64/21 45/119/21 21/120/21 22/61/21
f 57/85/11 59/94/11 77/93/11 75/86/11
f 58/75/9 55/44/9 73/43/9 76/76/9
f 38/56/22 37/121/22 13/122/22 14/53/22
f 26/123/22 25/51/22 1/50/22 2/124/22
f 64/59/9 61/125/9 79/126/9 82/60/9
f 59/112/16 57/117/16 55/116/16 58/113/16
f 13/127/10 37/128/10 79/126/10 61/125/10
f 65/129/13 63/111/13 61/110/13 64/130/13
f 7/131/15 4/26/15 1/25/15 6/132/15
f 65/129/23 64/130/23 10/133/23 66/134/23
f 50/135/24 5/136/24 49/71/24 51/70/24
f 9/66/23 12/65/23 11/137/23 10/133/23
f 5/136/24 8/138/24 7/131/24 6/132/24
f 92/139/25 91/140/25 95/141/25 96/142/25
f 90/143/26 92/139/26 96/142/26 93/144/26
f 88/145/25 266/146/25 265/147/25 87/148/25
f 271/149/25 88/145/25 87/148/25 272/150/25
f 106/151/27 275/152/27 276/153/27 105/154/27
f 97/155/15 98/156/15 102/157/15 101/158/15
f 100/159/28 97/155/28 101/158/28 104/160/28
f 277/161/27 106/151/27 105/154/27 278/162/27
f 284/163/29 117/164/29 118/165/29 283/166/29
f 288/167/29 118/165/29 117/164/29 287/168/29
f 110/169/16 109/170/16 116/171/16 115/172/16
f 111/173/30 110/169/30 115/172/30 114/174/30
f 88/145/31 21/31/31 56/115/31 266/146/31
f 3/27/32 272/150/32 87/148/32 2/28/32
f 2/28/32 87/148/32 265/147/32 54/118/32
f 271/149/31 24/32/31 21/31/31 88/145/31
f 24/175/9 271/176/9 269/177/9 48/178/9
f 272/179/9 3/180/9 31/181/9 270/182/9
f 266/183/11 56/184/11 74/185/11 267/186/11
f 54/187/11 265/188/11 268/189/11 70/190/11
f 16/191/9 277/192/9 280/193/9 40/194/9
f 19/33/33 278/162/33 105/154/33 18/34/33
f 277/161/34 16/40/34 13/39/34 106/151/34
f 278/195/9 19/196/9 43/197/9 279/198/9
f 60/199/11 276/200/11 273/201/11 78/202/11
f 18/34/33 105/154/33 276/153/33 60/114/33
f 275/203/11 62/204/11 80/205/11 274/206/11
f 106/151/34 13/39/34 62/109/34 275/152/34
f 10/133/35 11/137/35 287/168/35 117/164/35
f 8/207/9 288/208/9 285/209/9 30/210/9
f 287/211/9 11/212/9 35/213/9 286/214/9
f 118/215/36 288/216/36 8/138/36 5/136/36
f 71/217/11 282/218/11 283/219/11 50/220/11
f 281/221/11 84/222/11 66/223/11 284/224/11
f 117/164/35 284/163/35 66/134/35 10/133/35
f 5/136/36 50/135/36 283/225/36 118/215/36
f 155/226/37 154/227/37 200/228/37 193/229/37
f 127/230/38 126/231/38 196/232/38 225/233/38
f 184/234/39 157/235/39 249/236/39 252/237/39
f 171/238/40 164/239/40 260/240/40 247/241/40
f 153/242/41 156/243/41 194/244/41 199/245/41
f 125/246/42 128/247/42 226/248/42 195/249/42
f 163/250/43 172/251/43 248/252/43 259/253/43
f 148/254/44 141/255/44 213/256/44 216/257/44
f 131/258/45 130/259/45 224/260/45 197/261/45
f 158/262/46 183/263/46 251/264/46 250/265/46
f 165/266/47 178/267/47 238/268/47 257/269/47
f 129/270/48 132/271/48 198/272/48 223/273/48
f 177/274/49 166/275/49 258/276/49 237/277/49
f 142/278/50 147/279/50 215/280/50 214/281/50
f 135/282/51 134/283/51 208/284/51 221/285/51
f 172/286/52 181/287/52 245/288/52 248/289/52
f 173/290/53 168/291/53 256/292/53 243/293/53
f 133/294/54 136/295/54 222/296/54 207/297/54
f 167/298/55 174/299/55 244/300/55 255/301/55
f 122/302/56 145/303/56 209/304/56 212/305/56
f 139/306/57 138/307/57 220/308/57 201/309/57
f 182/310/58 171/311/58 247/312/58 246/313/58
f 169/314/59 180/315/59 234/316/59 253/317/59
f 137/318/60 140/319/60 202/320/60 219/321/60
f 179/322/61 170/323/61 254/324/61 233/325/61
f 146/326/62 121/327/62 211/328/62 210/329/62
f 143/330/63 142/331/63 214/332/63 217/333/63
f 174/334/64 187/335/64 241/336/64 244/337/64
f 160/338/65 161/339/65 261/340/65 264/341/65
f 141/342/66 144/343/66 218/344/66 213/345/66
f 134/346/67 151/347/67 205/348/67 208/349/67
f 124/350/68 127/230/68 225/233/68 228/351/68
f 188/352/69 173/353/69 243/354/69 242/355/69
f 162/356/70 159/357/70 263/358/70 262/359/70
f 152/360/71 133/361/71 207/362/71 206/363/71
f 128/247/72 123/364/72 227/365/72 226/248/72
f 146/326/73 270/182/73 31/181/73 121/327/73
f 26/123/74 122/366/74 123/364/74 25/51/74
f 121/367/75 31/1/75 32/4/75 124/350/75
f 86/368/76 145/303/76 122/302/76 26/369/76
f 32/4/77 29/7/77 127/230/77 124/350/77
f 123/364/78 128/247/78 28/52/78 25/51/78
f 125/370/79 156/243/79 119/371/79 27/372/79
f 30/6/80 126/231/80 127/230/80 29/7/80
f 125/246/81 27/89/81 28/52/81 128/247/81
f 30/210/82 285/209/82 155/226/82 126/373/82
f 129/270/83 136/295/83 38/56/83 33/55/83
f 36/10/84 130/259/84 131/258/84 35/11/84
f 129/270/85 33/55/85 34/103/85 132/271/85
f 36/10/86 39/15/86 135/282/86 130/259/86
f 153/242/87 132/374/87 34/375/87 120/376/87
f 286/214/88 35/213/88 131/377/88 154/227/88
f 133/361/89 152/360/89 107/378/89 37/379/89
f 40/14/90 134/283/90 135/282/90 39/15/90
f 133/294/91 37/121/91 38/56/91 136/295/91
f 40/194/92 280/193/92 151/347/92 134/346/92
f 137/318/93 144/343/93 46/64/93 41/63/93
f 44/18/94 138/307/94 139/306/94 43/19/94
f 137/318/95 41/63/95 42/67/95 140/319/95
f 44/18/96 47/23/96 143/330/96 138/307/96
f 149/380/97 140/381/97 42/382/97 108/383/97
f 279/198/98 43/197/98 139/384/98 150/385/98
f 45/386/99 141/255/99 148/254/99 85/387/99
f 48/22/100 142/331/100 143/330/100 47/23/100
f 141/342/101 45/119/101 46/64/101 144/343/101
f 142/278/102 48/178/102 269/177/102 147/279/102
f 270/182/103 146/326/103 147/279/103 269/177/103
f 145/303/104 86/368/104 85/387/104 148/254/104
f 279/198/105 150/385/105 151/347/105 280/193/105
f 149/380/106 108/383/106 107/378/106 152/360/106
f 286/214/107 154/227/107 155/226/107 285/209/107
f 153/242/108 120/376/108 119/371/108 156/243/108
f 26/388/73 157/235/73 184/234/73 86/389/73
f 70/82/109 158/390/109 161/339/109 69/83/109
f 157/391/110 26/46/110 68/45/110 162/356/110
f 158/262/76 70/190/76 268/189/76 183/263/76
f 27/96/111 176/392/111 159/357/111 67/97/111
f 72/80/78 69/83/78 161/339/78 160/338/78
f 159/357/77 162/356/77 68/45/77 67/97/77
f 175/393/112 71/77/112 72/80/112 160/338/112
f 163/250/113 166/275/113 76/76/113 73/43/113
f 75/86/114 164/239/114 171/238/114 74/87/114
f 163/250/115 73/43/115 45/42/115 172/251/115
f 75/86/116 77/93/116 165/266/116 164/239/116
f 78/92/117 178/267/117 165/266/117 77/93/117
f 177/274/118 42/73/118 76/76/118 166/275/118
f 167/298/86 170/323/86 82/60/86 79/126/86
f 81/100/119 168/291/119 173/290/119 80/101/119
f 167/298/120 79/126/120 37/128/120 174/299/120
f 81/100/121 83/107/121 169/314/121 168/291/121
f 84/106/122 180/315/122 169/314/122 83/107/122
f 179/322/123 34/57/123 82/60/123 170/323/123
f 85/394/102 181/287/102 172/286/102 45/395/102
f 182/310/99 267/186/99 74/185/99 171/311/99
f 37/396/92 107/397/92 187/335/92 174/334/92
f 173/353/89 188/352/89 274/206/89 80/205/89
f 175/398/79 192/399/79 282/218/79 71/217/79
f 27/400/82 119/401/82 191/402/82 176/403/82
f 108/404/98 42/405/98 177/406/98 186/407/98
f 185/408/97 178/409/97 78/202/97 273/201/97
f 120/410/88 34/411/88 179/412/88 190/413/88
f 189/414/87 180/415/87 84/222/87 281/221/87
f 267/186/104 182/310/104 183/263/104 268/189/104
f 181/287/103 85/394/103 86/389/103 184/234/103
f 108/404/105 186/407/105 187/335/105 107/397/105
f 185/408/106 273/201/106 274/206/106 188/352/106
f 120/410/107 190/413/107 191/402/107 119/401/107
f 189/414/108 281/221/108 282/218/108 192/399/108
f 194/244/124 195/416/124 196/417/124 193/229/124
f 198/418/125 199/245/125 200/228/125 197/419/125
f 202/420/126 203/421/126 204/422/126 201/423/126
f 206/363/127 207/362/127 208/349/127 205/348/127
f 210/329/128 211/328/128 212/305/128 209/304/128
f 214/281/129 215/280/129 216/257/129 213/256/129
f 199/245/130 194/244/130 193/229/130 200/228/130
f 203/421/131 206/363/131 205/348/131 204/422/131
f 209/304/132 216/257/132 215/280/132 210/329/132
f 218/344/133 219/321/133 220/308/133 217/333/133
f 222/296/134 223/273/134 224/260/134 221/285/134
f 226/248/135 227/365/135 228/351/135 225/233/135
f 213/345/136 218/344/136 217/333/136 214/332/136
f 219/321/137 202/320/137 201/309/137 220/308/137
f 207/297/138 222/296/138 221/285/138 208/284/138
f 223/273/139 198/272/139 197/261/139 224/260/139
f 195/249/140 226/248/140 225/233/140 196/232/140
f 211/424/141 228/351/141 227/365/141 212/425/141
f 230/426/142 231/427/142 232/428/142 229/429/142
f 234/430/143 235/431/143 236/432/143 233/433/143
f 238/434/144 239/435/144 240/436/144 237/437/144
f 242/355/145 243/354/145 244/337/145 241/336/145
f 246/313/146 247/312/146 248/289/146 245/288/146
f 250/265/147 251/264/147 252/237/147 249/236/147
f 235/431/148 230/426/148 229/429/148 236/432/148
f 239/435/149 242/355/149 241/336/149 240/436/149
f 245/288/150 252/237/150 251/264/150 246/313/150
f 254/324/151 255/301/151 256/292/151 253/317/151
f 258/276/152 259/253/152 260/240/152 257/269/152
f 262/359/153 263/358/153 264/341/153 261/340/153
f 233/325/154 254/324/154 253/317/154 234/316/154
f 255/301/155 244/300/155 243/293/155 256/292/155
f 237/277/156 258/276/156 257/269/156 238/268/156
f 259/253/157 248/252/157 247/241/157 260/240/157
f 249/438/158 262/359/158 261/340/158 250/439/158
f 231/440/159 264/341/159 263/358/159 232/441/159
f 157/391/160 162/356/160 262/359/160 249/438/160
f 189/414/161 192/399/161 230/426/161 235/431/161
f 121/367/162 124/350/162 228/351/162 211/424/162
f 149/380/163 152/360/163 206/363/163 203/421/163
f 161/339/164 158/390/164 250/439/164 261/340/164
f 191/402/165 190/413/165 236/432/165 229/429/165
f 123/364/166 122/366/166 212/425/166 227/365/166
f 151/347/167 150/385/167 204/422/167 205/348/167
f 156/243/168 125/370/168 195/416/168 194/244/168
f 175/393/169 160/338/169 264/341/169 231/440/169
f 185/408/170 188/352/170 242/355/170 239/435/170
f 145/303/171 148/254/171 216/257/171 209/304/171
f 159/357/172 176/392/172 232/441/172 263/358/172
f 187/335/173 186/407/173 240/436/173 241/336/173
f 192/399/174 175/398/174 231/427/174 230/426/174
f 147/279/175 146/326/175 210/329/175 215/280/175
f 126/373/176 155/226/176 193/229/176 196/417/176
f 181/287/177 184/234/177 252/237/177 245/288/177
f 183/263/178 182/310/178 246/313/178 251/264/178
f 176/403/179 191/402/179 229/429/179 232/428/179
f 144/343/180 137/318/180 219/321/180 218/344/180
f 132/374/181 153/242/181 199/245/181 198/418/181
f 170/323/182 167/298/182 255/301/182 254/324/182
f 180/415/183 189/414/183 235/431/183 234/430/183
f 138/307/184 143/330/184 217/333/184 220/308/184
f 154/227/185 131/377/185 197/419/185 200/228/185
f 168/291/186 169/314/186 253/317/186 256/292/186
f 190/413/187 179/412/187 233/433/187 236/432/187
f 136/295/188 129/270/188 223/273/188 222/296/188
f 140/381/189 149/380/189 203/421/189 202/420/189
f 166/275/190 163/250/190 259/253/190 258/276/190
f 178/409/191 185/408/191 239/435/191 238/434/191
f 130/259/192 135/282/192 221/285/192 224/260/192
f 150/385/193 139/384/193 201/423/193 204/422/193
f 164/239/194 165/266/194 257/269/194 260/240/194
f 186/407/195 177/406/195 237/437/195 240/436/195
f 94/442/11 93/443/11 265/188/11 266/183/11
f 95/444/11 94/442/11 266/183/11 267/186/11
f 96/445/11 95/444/11 267/186/11 268/189/11
f 93/443/11 96/445/11 268/189/11 265/188/11
f 91/446/9 92/447/9 270/182/9 269/177/9
f 90/448/9 89/449/9 271/176/9 272/179/9
f 92/447/9 90/448/9 272/179/9 270/182/9
f 89/449/9 91/446/9 269/177/9 271/176/9
f 103/450/11 104/451/11 274/206/11 273/201/11
f 101/452/11 102/453/11 276/200/11 275/203/11
f 104/451/11 101/452/11 275/203/11 274/206/11
f 102/453/11 103/450/11 273/201/11 276/200/11
f 98/454/9 97/455/9 277/192/9 278/195/9
f 99/456/9 98/454/9 278/195/9 279/198/9
f 100/457/9 99/456/9 279/198/9 280/193/9
f 97/455/9 100/457/9 280/193/9 277/192/9
f 113/458/11 114/459/11 282/218/11 281/221/11
f 115/460/11 116/461/11 284/224/11 283/219/11
f 111/462/9 112/463/9 286/214/9 285/209/9
f 109/464/9 110/465/9 288/208/9 287/211/9
f 116/461/11 113/458/11 281/221/11 284/224/11
f 114/459/11 115/460/11 283/219/11 282/218/11
f 112/463/9 109/464/9 287/211/9 286/214/9
f 110/465/9 111/462/9 285/209/9 288/208/9
f 98/156/196 99/466/196 103/467/196 102/157/196
f 99/466/27 100/468/27 104/469/27 103/467/27
f 109/170/197 112/470/197 113/471/197 116/171/197
f 112/470/29 111/472/29 114/473/29 113/471/29
f 91/474/198 89/475/198 94/476/198 95/477/198
f 89/475/13 90/143/13 93/144/13 94/476/13
