# Blender 5.2.1 LTS
# www.blender.org
mtllib FacilityFire.mtl
o FacilityCore.002
v 1.770748 3.006354 -1.769839
v 1.770749 2.507641 1.717854
v 0.958322 3.101570 -2.304437
v 0.000000 3.257479 -2.492164
v 2.313594 2.527669 0.917771
v 2.504217 2.695760 -0.025993
v 2.313595 2.986326 -0.969755
v 0.000000 2.256437 2.440129
v 0.958323 2.412425 2.252452
v 2.408906 2.734188 0.445889
v 2.408906 2.779806 -0.497874
v 0.479162 2.273233 2.346315
v 1.364536 2.337559 1.985153
v 2.042172 2.456418 1.317812
v 1.364535 3.053962 -2.037138
v -1.770748 3.128827 -1.769839
v -1.770749 2.507641 1.717854
v -0.958322 3.101570 -2.304437
v -2.313594 2.650142 0.917771
v -2.504217 2.818234 -0.025993
v -2.313595 2.863852 -0.969755
v -0.958323 2.289951 2.252452
v -2.408906 2.611715 0.445889
v -2.408906 2.902280 -0.497874
v -0.479162 2.273233 2.346315
v -1.364536 2.460033 1.985153
v -2.042172 2.456418 1.317812
v -1.364535 3.176435 -2.037138
v 0.939738 1.311028 2.354089
v 2.361996 1.318340 0.569609
v 2.268546 1.317575 1.035722
v 1.736300 1.311894 1.826025
v 1.736300 1.321931 -1.619034
v 2.268546 1.316250 -0.828731
v 2.361996 1.319870 -0.362618
v 2.455446 1.314720 0.103495
v 0.939738 1.318413 -2.147098
v 0.000000 1.323102 -2.332530
v 0.000000 1.310723 2.536303
v 0.469934 1.315260 2.446805
v 1.338019 1.311461 2.090057
v 2.002423 1.316927 1.430874
v 1.338019 1.317980 -1.883066
v -0.939738 1.315412 2.354089
v -2.361996 1.318340 0.569609
v -2.268546 1.313191 1.035722
v -1.736300 1.316279 1.826025
v -1.736300 1.317547 -1.619034
v -2.268546 1.320635 -0.828731
v -2.361996 1.319870 -0.362618
v -2.455446 1.314720 0.103495
v -0.939738 1.322798 -2.147098
v -0.469934 1.310875 2.446805
v -1.338019 1.315845 2.090057
v -2.002423 1.316927 1.430874
v -1.338019 1.322365 -1.883066
v -2.042171 2.935103 -1.369797
v -2.002423 1.316898 -1.223883
v -0.479161 3.240761 -2.398300
v -0.469869 1.318565 -2.239814
v 0.479161 3.240761 -2.398300
v 0.469869 1.322950 -2.239814
v 2.042171 2.935103 -1.369797
v 2.002423 1.316898 -1.223883
v 1.906460 3.093202 -1.569818
v 1.567642 2.361363 1.851503
v 1.161428 3.077766 -2.170787
v 0.239580 3.126647 -2.445232
v 2.177883 2.492043 1.117791
v 2.456562 2.653738 0.209948
v 2.361250 2.944303 -0.733815
v 0.718742 2.281592 2.299384
v 2.361250 2.569692 0.681830
v 2.456562 2.737783 -0.261933
v 0.239581 2.264835 2.393222
v 1.161429 2.313755 2.118803
v 1.906460 2.420793 1.517833
v 1.567642 3.030158 -1.903488
v -1.906460 3.093202 -1.569818
v -1.567642 2.361363 1.851503
v -1.161428 3.200239 -2.170787
v -0.239580 3.126647 -2.445232
v -2.177883 2.614517 1.117791
v -2.456562 2.653738 0.209948
v -2.361250 2.821829 -0.733815
v -0.718742 2.404066 2.299384
v -2.361250 2.692165 0.681830
v -2.456562 2.737783 -0.261933
v -0.239581 2.387309 2.393222
v -1.161429 2.313755 2.118803
v -1.906460 2.543266 1.517833
v -1.567642 3.152631 -1.903488
v -1.138878 1.322581 -2.015082
v -2.135484 1.312867 1.233298
v -1.537160 1.316062 1.958041
v -0.704836 1.315336 2.400447
v -0.234967 1.310799 2.491554
v -0.234934 1.323026 -2.286172
v -2.408721 1.319487 -0.129561
v -1.869361 1.321607 -1.421458
v -1.869362 1.316603 1.628450
v -2.408721 1.318723 0.336552
v -1.138879 1.311244 2.222074
v -2.315271 1.320252 -0.595674
v -2.315271 1.313573 0.802665
v -1.537159 1.322148 -1.751050
v 1.138878 1.322581 -2.015082
v 2.135484 1.317251 1.233298
v 1.537160 1.316062 1.958041
v 0.704836 1.310951 2.400447
v 0.234967 1.310799 2.491554
v 0.704803 1.322874 -2.193456
v 2.408721 1.319487 -0.129561
v 2.135484 1.316574 -1.026307
v 1.869362 1.312218 1.628450
v 2.408721 1.314338 0.336552
v 1.138879 1.311244 2.222074
v 2.315271 1.315867 -0.595674
v 2.315271 1.317958 0.802665
v 1.537159 1.322148 -1.751050
v -2.177883 3.021951 -1.169776
v -2.135484 1.320959 -1.026307
v -0.718741 3.109929 -2.351369
v -0.704803 1.322874 -2.193456
v 0.718741 3.109929 -2.351369
v 0.234934 1.323026 -2.286172
v 2.177883 3.021951 -1.169776
v 1.869361 1.321607 -1.421458
v 1.838604 3.178751 -1.669828
v 1.669196 2.563476 1.784678
v 1.059875 3.279878 -2.237612
v 0.119790 3.198563 -2.468698
v 2.245739 2.577593 1.017781
v 2.480389 2.864959 0.091978
v 2.337422 3.033051 -0.851785
v 0.838532 2.475982 2.275918
v 2.385078 2.780914 0.563859
v 2.432734 2.826532 -0.379904
v 0.359371 2.459244 2.369769
v 1.262983 2.515867 2.051978
v 1.974316 2.506342 1.417822
v 1.466088 3.109797 -1.970313
v -1.838604 3.178751 -1.669828
v -1.669196 2.563476 1.784678
v -1.059875 3.279878 -2.237612
v -0.119790 3.198563 -2.468698
v -2.245739 2.577593 1.017781
v -2.480389 2.742486 0.091978
v -2.337422 2.910578 -0.851785
v -0.838532 2.475982 2.275918
v -2.385078 2.780914 0.563859
v -2.432734 2.826532 -0.379904
v -0.359371 2.459244 2.369769
v -1.262983 2.393394 2.051978
v -1.974316 2.628816 1.417822
v -1.466088 3.109797 -1.970313
v -1.039308 1.318305 -2.081090
v -2.202015 1.317413 1.134510
v -1.636730 1.316170 1.892033
v -0.822287 1.315374 2.377268
v -0.352450 1.310837 2.469180
v -0.117467 1.323064 -2.309351
v -2.385358 1.319679 -0.246090
v -1.802830 1.317384 -1.520247
v -1.935892 1.316765 1.529662
v -2.432084 1.318914 0.220024
v -1.238449 1.315737 2.156065
v -2.291908 1.316059 -0.712203
v -2.338633 1.318149 0.686137
v -1.437589 1.317871 -1.817058
v 1.238449 1.318088 -1.949074
v 2.068954 1.317089 1.332086
v 1.437589 1.311569 2.024049
v 0.587385 1.315298 2.423626
v 0.117483 1.315146 2.513929
v 0.822271 1.318451 -2.170277
v 2.432084 1.314911 -0.013033
v 2.202015 1.320797 -0.927519
v 1.802831 1.316441 1.727237
v 2.385358 1.318531 0.453080
v 1.039308 1.311136 2.288082
v 2.338633 1.315676 -0.479146
v 2.291908 1.313382 0.919194
v 1.636729 1.322040 -1.685042
v -2.110027 2.985027 -1.269787
v -2.068954 1.316736 -1.125095
v -0.598951 3.181845 -2.374835
v -0.587336 1.318527 -2.216635
v 0.598951 3.304319 -2.374835
v 0.352402 1.322988 -2.262993
v 2.110027 3.107501 -1.269787
v 1.935892 1.321445 -1.322671
v 1.974316 3.020652 -1.469808
v 1.466089 2.417198 1.918328
v 1.262982 3.133601 -2.103962
v 0.359371 3.312678 -2.421766
v 2.110027 2.541967 1.217802
v 2.432734 2.700463 0.327918
v 2.385078 2.868555 -0.615844
v 0.598952 2.345150 2.322850
v 2.337422 2.616417 0.799800
v 2.480389 2.906982 -0.143963
v 0.119790 2.328373 2.416675
v 1.059876 2.492064 2.185627
v 1.838605 2.470717 1.617843
v 1.669195 3.085993 -1.836663
v -1.974316 3.020652 -1.469808
v -1.466089 2.539672 1.918328
v -1.262982 3.256074 -2.103962
v -0.359371 3.190204 -2.421766
v -2.110027 2.541967 1.217802
v -2.432734 2.700463 0.327918
v -2.385078 2.868555 -0.615844
v -0.598952 2.467623 2.322850
v -2.337422 2.616417 0.799800
v -2.480389 2.906982 -0.143963
v -0.119790 2.328373 2.416675
v -1.059876 2.492064 2.185627
v -1.838605 2.470717 1.617843
v -1.669195 3.085993 -1.836663
v -1.238449 1.318088 -1.949074
v -2.068954 1.312704 1.332086
v -1.437589 1.315954 2.024049
v -0.587385 1.315298 2.423626
v -0.117483 1.310761 2.513929
v -0.352402 1.318603 -2.262993
v -2.432084 1.319296 -0.013033
v -1.935892 1.317060 -1.322671
v -1.802831 1.312056 1.727237
v -2.385358 1.318531 0.453080
v -1.039308 1.315521 2.288082
v -2.338633 1.315676 -0.479146
v -2.291908 1.317767 0.919194
v -1.636729 1.322040 -1.685042
v 1.039308 1.318305 -2.081090
v 2.202015 1.313029 1.134510
v 1.636730 1.311786 1.892033
v 0.822287 1.315374 2.377268
v 0.352450 1.310837 2.469180
v 0.587336 1.322912 -2.216635
v 2.385358 1.315294 -0.246090
v 2.068954 1.321121 -1.125095
v 1.935892 1.316765 1.529662
v 2.432084 1.318914 0.220024
v 1.238449 1.311352 2.156065
v 2.291908 1.320443 -0.712203
v 2.338633 1.318149 0.686137
v 1.437589 1.317871 -1.817058
v -2.245739 3.071875 -1.069766
v -2.202015 1.316412 -0.927519
v -0.838532 3.295960 -2.327903
v -0.822271 1.322836 -2.170277
v 0.838532 3.295960 -2.327903
v 0.117467 1.323064 -2.309351
v 2.245739 2.949402 -1.069766
v 1.802830 1.321769 -1.520247
v -1.257040 2.730577 -2.066449
v -2.100080 2.453895 1.245481
v -1.459187 2.344023 1.943933
v -0.596150 2.280577 2.347257
v -0.119232 2.021499 2.440229
v -0.834593 2.765701 -2.289727
v -2.468690 2.423166 -0.112252
v -2.235149 2.812683 -1.035314
v -1.829940 2.146840 1.644338
v -2.421260 2.349154 0.358232
v -1.054895 2.057787 2.210441
v -2.373829 2.497177 -0.582737
v -2.326399 2.275143 0.828717
v -1.661332 2.688653 -1.799942
v 1.257040 2.974890 -2.066449
v 2.100080 2.209583 1.245481
v 1.459187 2.344023 1.943933
v 0.596150 2.280577 2.347257
v 0.119232 2.265811 2.440229
v 0.834593 3.010013 -2.289727
v 2.468690 2.423166 -0.112252
v 2.235149 2.568371 -1.035314
v 1.829940 2.146840 1.644338
v 2.421260 2.349154 0.358232
v 1.054895 2.302099 2.210441
v 2.373829 2.741489 -0.582737
v 2.326399 2.519456 0.828717
v 1.661332 2.932966 -1.799942
v -1.965010 2.875427 -1.434172
v -0.357683 3.024735 -2.383312
v 0.357683 2.780422 -2.383312
v 1.965010 2.631114 -1.434172
v 1.829940 2.906799 -1.633600
v 0.119228 3.032096 -2.430105
v -0.119228 3.032096 -2.430105
v -1.829940 2.906799 -1.633600
v 1.054894 2.751539 -2.199703
v 2.235149 2.240955 1.046052
v 1.661333 2.120672 1.810679
v 0.834598 2.287938 2.300465
v 0.357695 2.028889 2.393846
v 0.596138 2.773062 -2.336519
v 2.421260 2.704484 -0.347494
v 2.100080 2.599743 -1.234743
v 1.965010 2.178211 1.444909
v 2.468690 2.386160 0.122990
v 1.257041 2.323061 2.077187
v 2.326399 2.778495 -0.817979
v 2.373829 2.556461 0.593474
v 1.459186 2.709615 -1.933195
v -1.459186 2.709615 -1.933195
v -2.373829 2.312149 0.593474
v -2.326399 2.778495 -0.817979
v -1.257041 2.078749 2.077187
v -2.468690 2.386160 0.122990
v -1.965010 2.178211 1.444909
v -2.100080 2.599743 -1.234743
v -2.421260 2.704484 -0.347494
v -0.596138 2.773062 -2.336519
v -0.357695 2.028889 2.393846
v -0.834598 2.043625 2.300465
v -1.661333 2.364985 1.810679
v -2.235149 2.485267 1.046052
v -1.054894 2.751539 -2.199703
v -1.155967 2.985370 -2.133076
v -2.167614 2.469581 1.145766
v -1.560260 2.354504 1.877306
v -0.715374 2.039945 2.323861
v -0.238463 2.269506 2.417037
v -0.715366 2.769381 -2.313123
v -2.444975 2.441669 -0.229873
v -2.167614 2.828369 -1.135029
v -1.897475 2.162525 1.544624
v -2.444975 2.367657 0.240611
v -1.155968 2.312580 2.143814
v -2.350114 2.515680 -0.700358
v -2.350114 2.537959 0.711095
v -1.560259 2.699134 -1.866569
v 1.560259 2.943447 -1.866569
v 2.350114 2.293646 0.711095
v 2.350114 2.759992 -0.700358
v 1.155968 2.312580 2.143814
v 2.444975 2.611970 0.240611
v 1.897475 2.162525 1.544624
v 2.167614 2.828369 -1.135029
v 2.444975 2.685981 -0.229873
v 0.715366 2.769381 -2.313123
v 0.238463 2.025194 2.417037
v 0.715374 2.284257 2.323861
v 1.560260 2.110191 1.877306
v 2.167614 2.225269 1.145766
v 1.155967 2.985370 -2.133076
v -1.897475 2.891113 -1.533886
v -0.238455 3.028415 -2.406708
v 0.238455 2.784103 -2.406708
v 1.897475 2.646801 -1.533886
v 2.032545 2.859741 -1.334457
v 0.476910 3.021054 -2.359916
v -0.476910 3.021054 -2.359916
v -2.032545 2.859741 -1.334457
v -2.032545 2.438210 1.345195
v -1.358114 2.089230 2.010560
v -0.476927 2.276896 2.370654
v -2.492405 2.404663 0.005369
v -2.302684 2.796997 -0.935600
v -1.762406 2.375466 1.744052
v -2.397545 2.330652 0.475853
v -0.953821 2.047306 2.277068
v 2.032545 2.438210 1.345195
v 1.358114 2.089230 2.010560
v 0.476927 2.032584 2.370654
v 2.492405 2.404663 0.005369
v 2.302684 2.796997 -0.935600
v 1.762406 2.375466 1.744052
v 2.397545 2.330652 0.475853
v 0.953821 2.291618 2.277068
v -1.358113 2.964408 -1.999822
v -0.953821 3.006332 -2.266330
v -2.397545 2.722986 -0.465116
v -1.762405 2.922485 -1.733315
v -2.302684 2.256641 0.946338
v 1.358113 2.720096 -1.999822
v 0.000000 2.017804 2.463422
v 0.000000 2.791464 -2.453501
v 0.953821 3.006332 -2.266330
v 2.397545 2.722986 -0.465116
v 1.762405 2.678172 -1.733315
v 2.302684 2.500953 0.946338
vn -0.3558 0.1523 0.9220
vn 0.4832 0.0724 0.8725
vn 0.8278 -0.0197 -0.5607
vn 0.5487 -0.0531 -0.8343
vn 0.2736 -0.0836 -0.9582
vn 0.0989 -0.0877 -0.9912
vn 0.1912 0.0825 0.9781
vn 0.9784 0.0500 0.2007
vn 0.8245 0.0585 0.5628
vn 0.8270 -0.0285 -0.5615
vn 0.9805 0.0161 -0.1959
vn 0.4892 -0.0686 -0.8695
vn 0.9784 0.0465 0.2013
vn 0.9836 0.0163 -0.1798
vn -0.5469 0.0651 0.8347
vn -0.8275 -0.0252 -0.5609
vn -0.5944 -0.0561 -0.8022
vn -0.1927 -0.0753 -0.9784
vn -0.2719 -0.0845 -0.9586
vn -0.2642 0.0752 0.9615
vn -0.9670 0.0486 0.2500
vn -0.7847 0.0669 0.6162
vn -0.8276 -0.0284 -0.5606
vn -0.9835 0.0157 -0.1804
vn -0.5485 -0.0563 -0.8342
vn -0.9791 0.0384 0.1999
vn -0.9777 0.0136 -0.2094
vn -0.5477 0.0675 0.8339
vn -0.8579 0.1115 0.5016
vn -0.5487 -0.0679 -0.8332
vn -0.2758 0.1168 0.9541
vn 0.8248 0.0554 0.5627
vn 0.1903 0.0696 0.9793
vn 0.4800 0.0960 0.8720
vn 0.9843 0.0434 0.1709
vn 0.6273 -0.1497 -0.7642
vn 0.2703 -0.0843 -0.9591
vn 0.8255 0.0538 0.5618
vn 0.1915 0.0697 0.9790
vn 0.9675 0.0478 0.2482
vn 0.1926 0.0820 0.9778
vn -0.9328 0.2176 0.2873
vn -0.9800 0.0138 -0.1986
vn -0.8759 0.0900 0.4740
vn -0.0291 0.1968 0.9800
vn 0.0179 -0.1580 -0.9873
vn -0.8396 -0.0382 -0.5418
vn 0.5260 0.0827 0.8464
vn 0.9806 0.0169 -0.1955
vn 0.5078 -0.0557 -0.8597
vn 0.8455 -0.0301 -0.5332
vn 0.9757 0.0407 0.2154
vn 0.1865 -0.1008 -0.9773
vn 0.4676 -0.0684 -0.8813
vn 0.6054 0.0684 0.7930
vn -0.3886 -0.1287 -0.9124
vn 0.8582 0.0594 0.5100
vn 0.8253 0.0560 0.5619
vn -0.0239 -0.2574 -0.9660
vn 0.6044 0.0670 0.7939
vn -0.6371 -0.0932 -0.7651
vn 0.2660 0.0756 0.9610
vn 0.8276 -0.0192 -0.5609
vn -0.3611 -0.1425 -0.9216
vn 0.6998 0.1910 0.6883
vn 0.5488 -0.0522 -0.8343
vn -0.9722 0.0689 0.2236
vn 0.9816 0.0173 -0.1902
vn 0.1906 -0.1001 -0.9765
vn -0.8295 -0.0259 -0.5579
vn -0.6331 -0.1627 -0.7568
vn 0.8229 -0.0223 -0.5677
vn 0.8312 0.1212 0.5427
vn -0.9745 0.0231 -0.2233
vn -0.2638 0.0733 0.9618
vn 0.9863 0.0249 -0.1632
vn 0.9801 0.0512 0.1917
vn 0.2506 0.2737 0.9286
vn 0.0129 -0.1537 -0.9880
vn 0.8274 -0.0277 -0.5610
vn 0.8313 0.1124 0.5443
vn -0.9687 0.0492 0.2435
vn 0.9805 0.0159 -0.1959
vn 0.9330 0.1045 0.3443
vn -0.8455 -0.0301 -0.5332
vn 0.5967 -0.0592 -0.8003
vn 0.8749 0.0880 0.4762
vn -0.5082 -0.1201 -0.8528
vn 0.9687 0.0446 0.2440
vn 0.5945 0.0897 0.7991
vn -0.9830 0.1042 -0.1510
vn 0.9778 0.0135 -0.2093
vn 0.3850 -0.1988 -0.9012
vn -0.9836 0.0162 -0.1796
vn 0.5481 0.0785 0.8327
vn -0.6065 0.0699 0.7920
vn -0.5486 -0.0554 -0.8343
vn -0.9789 0.0379 0.2006
vn -0.8271 -0.0276 -0.5614
vn -0.9778 0.0131 -0.2090
vn -0.9791 0.0402 0.1993
vn -0.8571 0.0595 0.5117
vn -0.1865 -0.1011 -0.9772
vn -0.1901 -0.0749 -0.9789
vn -0.6044 0.0670 0.7939
vn -0.2586 0.0995 0.9608
vn -0.8245 0.0657 0.5621
vn -0.7871 0.0625 0.6136
vn -0.1912 0.0813 0.9782
vn -0.1157 0.0756 0.9904
vn 0.2758 0.1168 0.9541
vn -0.8558 0.0553 0.5144
vn 0.7923 0.1206 0.5982
vn 0.0991 0.2789 0.9552
vn 0.8371 -0.0269 -0.5464
vn 0.5170 0.1113 0.8487
vn 0.2413 -0.0675 -0.9681
vn -0.5621 0.0935 0.8217
vn 0.0386 0.1214 0.9919
vn 0.1629 -0.1098 -0.9805
vn -0.9777 0.0134 -0.2095
vn 0.7513 0.1308 0.6468
vn 0.9615 0.1257 0.2443
vn -0.9793 0.0373 0.1992
vn 0.9812 0.0144 -0.1923
vn 0.8205 -0.0332 -0.5707
vn -0.5966 -0.0579 -0.8004
vn 0.9702 0.1670 0.1758
vn 0.5352 -0.0526 -0.8431
vn -0.9804 0.0157 -0.1962
vn 0.4076 0.1189 0.9054
vn 0.9785 0.0131 -0.2059
vn -0.8124 -0.0258 -0.5825
vn -0.8140 -0.0229 -0.5804
vn -0.4857 0.0710 0.8712
vn -0.8278 -0.0243 -0.5605
vn -0.8033 0.0979 0.5875
vn -0.2257 -0.1471 -0.9630
vn -0.5043 -0.0640 -0.8611
vn -0.9671 0.1864 0.1728
vn -0.1152 0.0761 0.9904
vn -0.2411 -0.0684 -0.9681
vn -0.1912 0.0822 0.9781
vn -0.1153 0.1017 0.9881
vn -0.7861 0.0650 0.6147
vn -0.9788 0.0397 0.2007
vn -0.1847 -0.1016 -0.9775
vn -0.9785 0.0132 -0.2059
vn -0.8016 -0.0499 -0.5958
vn -0.1928 -0.0745 -0.9784
vn -0.9791 0.0772 0.1883
vn -0.6434 -0.0694 -0.7624
vn -0.4941 -0.0623 -0.8672
vn -0.5469 0.0776 0.8336
vn -0.9767 0.0148 -0.2143
vn -0.8042 -0.0451 -0.5926
vn 0.9783 0.0156 -0.2065
vn 0.5572 0.0810 0.8264
vn -0.5170 0.1113 0.8487
vn 0.6012 -0.1043 -0.7923
vn 0.9364 0.0990 0.3367
vn 0.8232 -0.0187 -0.5675
vn 0.4820 0.0736 0.8731
vn 0.1741 -0.0589 -0.9830
vn 0.9805 0.0164 -0.1958
vn 0.8292 -0.0589 -0.5558
vn 0.9790 0.0374 0.2005
vn 0.7303 0.2652 0.6295
vn 0.5474 -0.0722 -0.8338
vn 0.1603 0.1016 0.9818
vn 0.9804 0.0157 -0.1962
vn 0.2251 0.1928 0.9551
vn 0.8124 -0.0258 -0.5825
vn 0.2470 -0.0831 -0.9654
vn 0.7854 0.0650 0.6156
vn 0.7809 0.1653 0.6024
vn 0.9790 0.0397 0.2000
vn -0.5710 0.2740 0.7739
vn 0.1154 0.0759 0.9904
vn 0.0518 -0.1105 -0.9925
vn -0.9625 0.1211 0.2427
vn 0.0981 -0.0885 -0.9912
vn -0.9850 0.0314 -0.1699
vn 0.1906 -0.0994 -0.9766
vn -0.7304 0.1077 0.6745
vn 0.5488 -0.0514 -0.8343
vn -0.3866 0.1161 0.9149
vn 0.8388 -0.0191 -0.5441
vn -0.2937 -0.5742 -0.7642
vn 0.4844 0.0711 0.8719
vn 0.7716 -0.1748 -0.6116
vn 0.8260 0.0545 0.5610
vn -0.5710 0.2593 0.7789
vn 0.1916 0.0695 0.9790
vn 0.2638 0.0733 0.9618
vn -0.8918 0.0793 0.4454
vn 0.2904 -0.0813 -0.9534
vn -0.2542 0.0856 0.9634
vn 0.9797 0.0163 -0.1997
vn 0.0066 0.1498 0.9887
vn -0.8118 0.0674 0.5801
vn 0.2549 0.0867 0.9631
vn -0.7510 0.0842 0.6549
vn -0.8563 0.0577 0.5132
vn 0.5630 -0.1019 -0.8202
vn -0.2647 0.0743 0.9615
vn 0.8116 -0.0682 -0.5803
vn 0.5257 -0.0842 -0.8465
vn 0.9864 0.0397 0.1593
vn -0.8294 -0.0239 -0.5581
vn -0.3606 0.1489 0.9207
vn 0.6056 0.0715 0.7926
vn -0.5586 0.1096 0.8222
vn -0.8216 -0.0247 -0.5695
vn -0.5100 -0.0529 -0.8586
vn 0.0231 -0.2564 -0.9663
vn -0.1348 -0.0701 -0.9884
vn -0.1212 0.0877 0.9887
vn -0.9278 0.2316 0.2927
vn -0.8499 0.0764 0.5214
vn -0.8211 -0.0268 -0.5702
vn -0.9798 0.0203 -0.1990
vn -0.3726 -0.2120 -0.9035
vn -0.9685 0.0848 0.2340
vn -0.9891 0.0272 -0.1449
vn -0.6151 0.1361 0.7766
vn -0.9805 0.0134 -0.1963
vn -0.9792 0.0390 0.1993
vn -0.5484 -0.0572 -0.8342
vn -0.9805 0.0162 -0.1958
vn -0.8406 -0.0235 -0.5412
vn -0.8579 0.0613 0.5102
vn -0.9783 0.0508 0.2008
vn -0.1915 0.0706 0.9789
vn -0.0975 -0.0876 -0.9914
vn -0.1019 -0.0889 -0.9908
vn -0.4912 -0.0653 -0.8686
vn -0.8395 -0.0209 -0.5429
vn -0.4839 0.0729 0.8721
vn 0.5468 0.0795 0.8335
vn 0.6463 0.1090 0.7553
vn 0.9800 0.0137 -0.1986
vn 0.9890 0.0570 0.1368
vn 0.5470 -0.0764 -0.8336
vn 0.9805 0.0162 -0.1958
vn 0.8410 -0.0234 -0.5405
vn 0.8257 0.0592 0.5611
vn 0.9781 0.0509 0.2017
vn 0.2135 0.1211 0.9694
vn 0.1651 -0.0842 -0.9827
vn 0.1900 -0.0758 -0.9789
vn 0.4909 -0.0656 -0.8687
vn 0.8280 -0.0203 -0.5604
vn 0.5951 0.0910 0.7985
vn -0.4812 0.0757 0.8733
vt 0.482826 0.467885
vt 0.482448 0.448005
vt 0.488503 0.447160
vt 0.488903 0.466968
vt 0.324149 0.451386
vt 0.325056 0.388292
vt 0.331043 0.388914
vt 0.330204 0.452231
vt 0.134097 0.406462
vt 0.135927 0.354481
vt 0.141821 0.355654
vt 0.140018 0.407972
vt 0.086489 0.395424
vt 0.088620 0.345809
vt 0.094565 0.346744
vt 0.092491 0.396586
vt 0.038239 0.387609
vt 0.040903 0.339384
vt 0.046899 0.339967
vt 0.044318 0.388277
vt 0.013925 0.384940
vt 0.016935 0.337060
vt 0.022925 0.337640
vt 0.020003 0.385607
vt 0.348424 0.454216
vt 0.349037 0.390373
vt 0.355059 0.390588
vt 0.354533 0.454510
vt 0.204794 0.425797
vt 0.206457 0.369250
vt 0.212343 0.370431
vt 0.210695 0.427372
vt 0.252071 0.438116
vt 0.253594 0.378476
vt 0.259527 0.379434
vt 0.258043 0.439408
vt 0.110415 0.400421
vt 0.112351 0.349787
vt 0.118245 0.350960
vt 0.116336 0.401931
vt 0.181255 0.419261
vt 0.182960 0.364294
vt 0.188831 0.365552
vt 0.187134 0.420914
vt 0.062480 0.390774
vt 0.064838 0.342070
vt 0.070783 0.343004
vt 0.068482 0.391937
vt 0.228397 0.432098
vt 0.230002 0.373975
vt 0.235888 0.375156
vt 0.234298 0.433673
vt 0.157738 0.412646
vt 0.159480 0.359260
vt 0.165350 0.360518
vt 0.163617 0.414300
vt 0.452173 0.452231
vt 0.451335 0.388914
vt 0.457322 0.388292
vt 0.458228 0.451386
vt 0.642360 0.407972
vt 0.640557 0.355654
vt 0.646451 0.354481
vt 0.648281 0.406462
vt 0.689887 0.396586
vt 0.687812 0.346744
vt 0.693758 0.345809
vt 0.695889 0.395424
vt 0.738059 0.388277
vt 0.735478 0.339967
vt 0.741475 0.339384
vt 0.744139 0.387609
vt 0.762375 0.385607
vt 0.759452 0.337640
vt 0.765443 0.337060
vt 0.768453 0.384940
vt 0.427845 0.454510
vt 0.427319 0.390588
vt 0.433341 0.390373
vt 0.433954 0.454216
vt 0.571683 0.427372
vt 0.570034 0.370431
vt 0.575921 0.369250
vt 0.577584 0.425797
vt 0.524335 0.439408
vt 0.522851 0.379434
vt 0.528784 0.378476
vt 0.530307 0.438116
vt 0.666042 0.401931
vt 0.664133 0.350960
vt 0.670027 0.349787
vt 0.671962 0.400421
vt 0.595243 0.420914
vt 0.593547 0.365552
vt 0.599417 0.364294
vt 0.601123 0.419261
vt 0.713896 0.391937
vt 0.711594 0.343004
vt 0.717540 0.342070
vt 0.719898 0.390774
vt 0.548080 0.433673
vt 0.546489 0.375156
vt 0.552375 0.373975
vt 0.553981 0.432098
vt 0.618761 0.414300
vt 0.617028 0.360518
vt 0.622898 0.359260
vt 0.624640 0.412646
vt 0.476393 0.448850
vt 0.475281 0.386426
vt 0.481267 0.385804
vt 0.506856 0.462772
vt 0.506419 0.443284
vt 0.512391 0.441992
vt 0.512840 0.461373
vt 0.681867 0.347679
vt 0.683885 0.397749
vt 0.391189 0.456272
vt 0.397298 0.455979
vt 0.397326 0.476533
vt 0.391189 0.476852
vt 0.275959 0.443284
vt 0.277326 0.382308
vt 0.283259 0.383266
vt 0.281931 0.444576
vt 0.372861 0.455391
vt 0.373124 0.391235
vt 0.379146 0.391450
vt 0.378970 0.455685
vt 0.323859 0.471551
vt 0.329936 0.472468
vt 0.204262 0.443869
vt 0.210168 0.445571
vt 0.085807 0.411281
vt 0.091828 0.412516
vt 0.028916 0.338220
vt 0.026081 0.386274
vt 0.287903 0.445868
vt 0.289192 0.384224
vt 0.295125 0.385182
vt 0.293875 0.447160
vt 0.366752 0.455097
vt 0.367102 0.391019
vt 0.218230 0.371613
vt 0.216595 0.428948
vt 0.361080 0.390804
vt 0.360642 0.454803
vt 0.554494 0.450674
vt 0.559881 0.430523
vt 0.560399 0.448973
vt 0.601668 0.436828
vt 0.607002 0.417607
vt 0.607550 0.435048
vt 0.530793 0.457177
vt 0.536278 0.436824
vt 0.536778 0.455778
vt 0.434150 0.474620
vt 0.440064 0.453922
vt 0.440288 0.474301
vt 0.744991 0.403022
vt 0.750219 0.386942
vt 0.751097 0.402328
vt 0.648865 0.423075
vt 0.654201 0.404952
vt 0.654794 0.421457
vt 0.299552 0.467885
vt 0.299929 0.448005
vt 0.305984 0.448850
vt 0.305629 0.468801
vt 0.153609 0.358001
vt 0.151858 0.410993
vt 0.055706 0.405105
vt 0.056478 0.389612
vt 0.061726 0.406341
vt 0.103868 0.414986
vt 0.104495 0.398911
vt 0.109797 0.416604
vt 0.198357 0.442168
vt 0.198893 0.424222
vt 0.010944 0.336480
vt 0.007847 0.384272
vt 0.079787 0.410046
vt 0.080486 0.394261
vt 0.319070 0.387670
vt 0.318094 0.450541
vt 0.696570 0.411281
vt 0.701891 0.394261
vt 0.702591 0.410046
vt 0.265460 0.380392
vt 0.264015 0.440700
vt 0.269987 0.441992
vt 0.271393 0.381350
vt 0.031281 0.402328
vt 0.032159 0.386942
vt 0.037387 0.403022
vt 0.337029 0.389536
vt 0.336259 0.453077
vt 0.690550 0.412516
vt 0.343015 0.390158
vt 0.342314 0.453922
vt 0.147715 0.356828
vt 0.145938 0.409482
vt 0.763309 0.400937
vt 0.769415 0.400242
vt 0.245600 0.455778
vt 0.246099 0.436824
vt 0.251585 0.457177
vt 0.100511 0.347679
vt 0.098493 0.397749
vt 0.572210 0.445571
vt 0.578116 0.443869
vt 0.174828 0.435048
vt 0.175376 0.417607
vt 0.180710 0.436828
vt 0.052896 0.340551
vt 0.050398 0.388944
vt 0.666652 0.418222
vt 0.672581 0.416604
vt 0.714631 0.407576
vt 0.720652 0.406341
vt 0.115726 0.418222
vt 0.257569 0.458576
vt 0.619314 0.431489
vt 0.625197 0.429709
vt 0.391189 0.391881
vt 0.397211 0.391665
vt 0.157181 0.429709
vt 0.163063 0.431488
vt 0.227884 0.450674
vt 0.233789 0.452376
vt 0.372777 0.475895
vt 0.378914 0.476214
vt 0.774531 0.384272
vt 0.775521 0.399547
vt 0.124139 0.352134
vt 0.122256 0.403442
vt 0.287491 0.465569
vt 0.293475 0.466968
vt 0.583485 0.424222
vt 0.584021 0.442168
vt 0.194701 0.366811
vt 0.193014 0.422568
vt 0.216073 0.447272
vt 0.677883 0.398911
vt 0.678510 0.414986
vt 0.076729 0.343939
vt 0.074484 0.393099
vt 0.263553 0.459974
vt 0.725900 0.389612
vt 0.726672 0.405106
vt 0.241775 0.376337
vt 0.240199 0.435249
vt 0.336013 0.473384
vt 0.630519 0.410993
vt 0.631079 0.427929
vt 0.171220 0.361777
vt 0.169496 0.415953
vt 0.097848 0.413751
vt 0.611158 0.361777
vt 0.612881 0.415953
vt 0.307097 0.386426
vt 0.313084 0.387048
vt 0.312039 0.449695
vt 0.469294 0.387048
vt 0.470338 0.449695
vt 0.705649 0.343939
vt 0.707894 0.393099
vt 0.540603 0.376337
vt 0.542179 0.435249
vt 0.658239 0.352134
vt 0.660122 0.403442
vt 0.587677 0.366811
vt 0.589364 0.422568
vt 0.564148 0.371613
vt 0.565782 0.428948
vt 0.516918 0.380392
vt 0.518363 0.440700
vt 0.753462 0.338220
vt 0.756297 0.386274
vt 0.729482 0.340551
vt 0.731980 0.388944
vt 0.445349 0.389536
vt 0.446119 0.453077
vt 0.409601 0.475895
vt 0.409517 0.455391
vt 0.415626 0.455097
vt 0.415738 0.475577
vt 0.499119 0.383266
vt 0.505052 0.382308
vt 0.500447 0.444576
vt 0.493186 0.384224
vt 0.494475 0.445868
vt 0.403232 0.391450
vt 0.409254 0.391235
vt 0.403408 0.455685
vt 0.385052 0.476533
vt 0.385080 0.455979
vt 0.487253 0.385182
vt 0.281506 0.464171
vt 0.145370 0.426311
vt 0.151299 0.427929
vt 0.342090 0.474301
vt 0.049600 0.404411
vt 0.464283 0.450541
vt 0.470672 0.469718
vt 0.464595 0.470634
vt 0.360502 0.475258
vt 0.366639 0.475577
vt 0.025175 0.401633
vt 0.605288 0.363035
vt 0.269538 0.461373
vt 0.222496 0.430523
vt 0.221979 0.448973
vt 0.534717 0.377518
vt 0.192475 0.440388
vt 0.121655 0.419840
vt 0.128177 0.404952
vt 0.127583 0.421457
vt 0.699704 0.344874
vt 0.239695 0.454077
vt 0.073767 0.408811
vt 0.581807 0.368069
vt 0.311706 0.469718
vt 0.317783 0.470634
vt 0.168946 0.433268
vt 0.652345 0.353307
vt 0.628768 0.358001
vt 0.634663 0.356828
vt 0.636440 0.409482
vt 0.439362 0.390158
vt 0.518825 0.459974
vt 0.732778 0.404411
vt 0.684530 0.413751
vt 0.566305 0.447272
vt 0.415276 0.391019
vt 0.421297 0.390804
vt 0.421736 0.454803
vt 0.757203 0.401633
vt 0.421876 0.475258
vt 0.510985 0.381350
vt 0.558262 0.372794
vt 0.747471 0.338800
vt 0.589903 0.440388
vt 0.660723 0.419840
vt 0.723485 0.341135
vt 0.542683 0.454077
vt 0.708611 0.408811
vt 0.675921 0.348613
vt 0.463308 0.387670
vt 0.613432 0.433268
vt 0.637008 0.426311
vt 0.446365 0.473384
vt 0.067747 0.407576
vt 0.186592 0.438608
vt 0.043494 0.403717
vt 0.177090 0.363035
vt 0.139441 0.424693
vt 0.247661 0.377518
vt 0.275522 0.462772
vt 0.082674 0.344874
vt 0.354365 0.474939
vt 0.200571 0.368069
vt 0.130033 0.353307
vt 0.019069 0.400937
vt 0.224116 0.372794
vt 0.476749 0.468801
vt 0.012963 0.400242
vt 0.548588 0.452376
vt 0.034907 0.338800
vt 0.595785 0.438608
vt 0.058892 0.341135
vt 0.524809 0.458576
vt 0.106456 0.348613
vt 0.428013 0.474939
vt 0.738884 0.403717
vt 0.133512 0.423075
vt 0.452441 0.472468
vt 0.458518 0.471551
vt 0.385167 0.391665
vt 0.494887 0.465569
vt 0.403464 0.476214
vt 0.500871 0.464171
vt 0.348227 0.474620
vt 0.642937 0.424693
vt 0.301111 0.385804
vt 0.771434 0.336480
vt 0.006857 0.399547
s 0
f 206/1/1 284/2/1 383/3/1 1/4/1
f 257/5/2 221/6/2 93/7/2 321/8/2
f 258/9/3 222/10/3 94/11/3 322/12/3
f 259/13/4 223/14/4 95/15/4 323/16/4
f 260/17/5 224/18/5 96/19/5 324/20/5
f 261/21/6 225/22/6 97/23/6 325/24/6
f 262/25/7 252/26/7 124/27/7 326/28/7
f 263/29/8 227/30/8 99/31/8 327/32/8
f 264/33/9 250/34/9 122/35/9 328/36/9
f 265/37/10 229/38/10 101/39/10 329/40/10
f 266/41/11 230/42/11 102/43/11 330/44/11
f 267/45/12 231/46/12 103/47/12 331/48/12
f 268/49/13 232/50/13 104/51/13 332/52/13
f 269/53/14 233/54/14 105/55/14 333/56/14
f 348/57/15 107/58/15 171/59/15 271/60/15
f 347/61/16 108/62/16 172/63/16 272/64/16
f 346/65/17 109/66/17 173/67/17 273/68/17
f 345/69/18 110/70/18 174/71/18 274/72/18
f 344/73/19 111/74/19 175/75/19 275/76/19
f 343/77/20 112/78/20 176/79/20 276/80/20
f 342/81/21 113/82/21 177/83/21 277/84/21
f 341/85/22 114/86/22 178/87/22 278/88/22
f 340/89/23 115/90/23 179/91/23 279/92/23
f 339/93/24 116/94/24 180/95/24 280/96/24
f 338/97/25 117/98/25 181/99/25 281/100/25
f 337/101/26 118/102/26 182/103/26 282/104/26
f 336/105/27 119/106/27 183/107/27 283/108/27
f 335/109/28 120/110/28 184/111/28 284/2/28
f 193/112/29 288/113/29 353/114/29 63/115/29
f 237/116/30 109/66/30 346/65/30 295/117/30
f 380/118/31 290/119/31 132/120/31 4/121/31
f 285/122/32 228/123/32 100/124/32 349/125/32
f 286/126/33 226/127/33 98/128/33 350/129/33
f 209/130/34 257/5/34 321/8/34 81/131/34
f 216/132/35 263/29/35 327/32/35 88/133/35
f 208/134/36 259/13/36 323/16/36 80/135/36
f 325/24/37 97/23/37 161/136/37 316/137/37
f 292/138/38 164/139/38 48/140/38 376/141/38
f 355/142/39 60/143/39 226/127/39 286/126/39
f 327/32/40 99/31/40 163/144/40 314/145/40
f 326/28/41 124/27/41 188/146/41 315/147/41
f 199/148/42 282/104/42 382/149/42 11/150/42
f 198/151/43 280/96/43 371/152/43 10/153/43
f 255/154/44 278/88/44 369/155/44 7/156/44
f 253/157/45 276/80/45 381/158/45 3/159/45
f 200/160/46 274/72/46 367/161/46 12/162/46
f 197/163/47 272/64/47 365/164/47 14/165/47
f 220/166/48 270/167/48 334/168/48 92/169/48
f 46/170/49 233/54/49 269/53/49 377/171/49
f 22/172/50 364/173/50 267/45/50 218/174/50
f 17/175/51 362/176/51 265/37/51 219/177/51
f 20/178/52 360/179/52 263/29/52 216/132/52
f 39/180/53 225/22/53 261/21/53 379/181/53
f 26/182/54 358/183/54 259/13/54 208/134/54
f 56/184/55 221/6/55 257/5/55 373/185/55
f 194/186/56 273/68/56 366/187/56 13/188/56
f 328/36/57 122/35/57 186/189/57 313/190/57
f 356/191/58 58/192/58 228/123/58 285/122/58
f 25/193/59 359/194/59 260/17/59 214/195/59
f 321/8/60 93/7/60 157/196/60 320/197/60
f 66/198/61 346/65/61 273/68/61 194/186/61
f 52/199/62 252/26/62 262/25/62 374/200/62
f 322/12/63 94/11/63 158/201/63 319/202/63
f 75/203/64 344/73/64 275/76/64 203/204/64
f 21/205/65 361/206/65 264/33/65 249/207/65
f 323/16/66 95/15/66 159/208/66 318/209/66
f 74/210/67 342/81/67 277/84/67 202/211/67
f 23/212/68 363/213/68 266/41/68 212/214/68
f 324/20/69 96/19/69 160/215/69 317/216/69
f 77/217/70 340/89/70 279/92/70 205/218/70
f 76/219/71 338/97/71 281/100/71 204/220/71
f 219/177/72 265/37/72 329/40/72 91/221/72
f 249/207/73 264/33/73 328/36/73 121/222/73
f 73/223/74 336/105/74 283/108/74 201/224/74
f 38/225/75 254/226/75 290/119/75 380/118/75
f 215/227/76 269/53/76 333/56/76 87/228/76
f 213/229/77 268/49/77 332/52/77 85/230/77
f 210/231/78 286/126/78 350/129/78 82/232/78
f 203/204/79 275/76/79 379/233/79 8/234/79
f 329/40/80 101/39/80 165/235/80 312/236/80
f 143/237/81 292/138/81 376/141/81 16/238/81
f 202/211/82 277/84/82 368/239/82 6/240/82
f 330/44/83 102/43/83 166/241/83 311/242/83
f 88/133/84 327/32/84 314/145/84 152/243/84
f 205/218/85 279/92/85 370/244/85 2/245/85
f 331/48/86 103/47/86 167/246/86 310/247/86
f 121/222/87 328/36/87 313/190/87 185/248/87
f 204/220/88 281/100/88 372/249/88 9/250/88
f 332/52/89 104/51/89 168/251/89 309/252/89
f 81/131/90 321/8/90 320/197/90 145/253/90
f 201/224/91 283/108/91 384/254/91 5/255/91
f 333/56/92 105/55/92 169/256/92 308/257/92
f 80/135/93 323/16/93 318/209/93 144/258/93
f 247/259/94 119/106/94 336/105/94 305/260/94
f 334/168/95 106/261/95 170/262/95 307/263/95
f 248/264/96 120/110/96 335/109/96 306/265/96
f 245/266/97 117/98/97 338/97/97 303/267/97
f 246/268/98 118/102/98 337/101/98 304/269/98
f 243/270/99 115/90/99 340/89/99 301/271/99
f 244/272/100 116/94/100 339/93/100 302/273/100
f 241/274/101 113/82/101 342/81/101 299/275/101
f 242/276/102 114/86/102 341/85/102 300/277/102
f 239/278/103 111/74/103 344/73/103 297/279/103
f 238/280/104 110/70/104 345/69/104 296/281/104
f 235/282/105 107/58/105 348/57/105 293/283/105
f 196/284/106 287/285/106 354/286/106 61/287/106
f 128/288/107 192/289/107 288/113/107 352/290/107
f 256/291/108 128/288/108 352/290/108 289/292/108
f 126/293/109 190/294/109 287/285/109 351/295/109
f 254/226/110 126/293/110 351/295/110 290/119/110
f 146/296/111 291/297/111 380/118/111 4/121/111
f 33/298/112 256/291/112 289/292/112 383/3/112
f 79/299/113 349/125/113 292/138/113 143/237/113
f 82/232/114 350/129/114 291/297/114 146/296/114
f 147/300/115 319/202/115 377/171/115 19/301/115
f 145/253/116 320/197/116 374/200/116 18/302/116
f 150/303/117 317/216/117 364/173/117 22/172/117
f 378/304/118 306/265/118 142/305/118 15/306/118
f 187/307/119 315/147/119 355/142/119 59/308/119
f 153/309/120 316/137/120 359/194/120 25/193/120
f 371/152/121 30/310/121 247/259/121 305/260/121
f 185/248/122 313/190/122 356/191/122 57/311/122
f 152/243/123 314/145/123 375/312/123 24/313/123
f 369/155/124 34/314/124 246/268/124 304/269/124
f 148/315/125 311/242/125 360/179/125 20/178/125
f 155/316/126 312/236/126 357/317/126 27/318/126
f 366/187/127 41/319/127 245/266/127 303/267/127
f 149/320/128 309/252/128 361/206/128 21/205/128
f 154/321/129 310/247/129 358/183/129 26/182/129
f 368/239/130 36/322/130 244/272/130 302/273/130
f 156/323/131 307/263/131 373/185/131 28/324/131
f 151/325/132 308/257/132 363/213/132 23/212/132
f 365/164/133 42/326/133 243/270/133 301/271/133
f 31/327/134 236/328/134 294/329/134 384/254/134
f 37/330/135 235/282/135 293/283/135 381/158/135
f 236/328/136 108/62/136 347/61/136 294/329/136
f 353/114/137 300/277/137 191/331/137 63/115/137
f 9/250/138 372/249/138 296/281/138 136/332/138
f 2/245/139 370/244/139 295/117/139 130/333/139
f 382/149/140 299/275/140 138/334/140 11/150/140
f 62/335/141 240/336/141 298/337/141 354/286/141
f 12/162/142 367/161/142 297/279/142 139/338/142
f 240/336/143 112/78/143 343/77/143 298/337/143
f 354/286/144 298/337/144 189/339/144 61/287/144
f 64/340/145 242/276/145 300/277/145 353/114/145
f 35/341/146 241/274/146 299/275/146 382/149/146
f 367/161/147 40/342/147 239/278/147 297/279/147
f 6/240/148 368/239/148 302/273/148 134/343/148
f 14/165/149 365/164/149 301/271/149 141/344/149
f 372/249/150 29/345/150 238/280/150 296/281/150
f 7/156/151 369/155/151 304/269/151 135/346/151
f 13/188/152 366/187/152 303/267/152 140/347/152
f 370/244/153 32/348/153 237/116/153 295/117/153
f 43/349/154 248/264/154 306/265/154 378/304/154
f 10/153/155 371/152/155 305/260/155 137/350/155
f 384/254/156 294/329/156 133/351/156 5/255/156
f 87/228/157 333/56/157 308/257/157 151/325/157
f 92/169/158 334/168/158 307/263/158 156/323/158
f 381/158/159 293/283/159 131/352/159 3/159/159
f 90/353/160 331/48/160 310/247/160 154/321/160
f 85/230/161 332/52/161 309/252/161 149/320/161
f 91/221/162 329/40/162 312/236/162 155/316/162
f 84/354/68 330/44/68 311/242/68 148/315/68
f 307/263/163 170/262/163 56/184/163 373/185/163
f 86/355/164 324/20/164 317/216/164 150/303/164
f 308/257/165 169/256/165 45/356/165 363/213/165
f 83/357/166 322/12/166 319/202/166 147/300/166
f 309/252/167 168/251/167 49/358/167 361/206/167
f 57/311/168 356/191/168 285/122/168 207/359/168
f 310/247/169 167/246/169 54/360/169 358/183/169
f 123/361/170 326/28/170 315/147/170 187/307/170
f 311/242/171 166/241/171 51/362/171 360/179/171
f 59/308/172 355/142/172 286/126/172 210/231/172
f 312/236/173 165/235/173 55/363/173 357/317/173
f 89/364/174 325/24/174 316/137/174 153/309/174
f 313/190/175 186/189/175 58/192/175 356/191/175
f 207/359/176 285/122/176 349/125/176 79/299/176
f 314/145/177 163/144/177 50/365/177 375/312/177
f 78/366/178 335/109/178 284/2/178 206/1/178
f 315/147/179 188/146/179 60/143/179 355/142/179
f 217/367/180 261/21/180 325/24/180 89/364/180
f 71/368/181 337/101/181 282/104/181 199/148/181
f 316/137/182 161/136/182 53/369/182 359/194/182
f 70/370/183 339/93/183 280/96/183 198/151/183
f 317/216/184 160/215/184 44/371/184 364/173/184
f 127/372/185 341/85/185 278/88/185 255/154/185
f 318/209/186 159/208/186 47/373/186 362/176/186
f 125/374/187 343/77/187 276/80/187 253/157/187
f 319/202/188 158/201/188 46/170/188 377/171/188
f 72/375/189 345/69/189 274/72/189 200/160/189
f 320/197/190 157/196/190 52/199/190 374/200/190
f 27/318/191 357/317/191 258/9/191 211/376/191
f 349/125/192 100/124/192 164/139/192 292/138/192
f 67/377/193 348/57/193 271/60/193 195/378/193
f 350/129/194 98/128/194 162/379/194 291/297/194
f 291/297/195 162/379/195 38/225/195 380/118/195
f 383/3/196 289/292/196 129/380/196 1/4/196
f 214/195/197 260/17/197 324/20/197 86/355/197
f 351/295/198 287/285/198 196/284/198 68/381/198
f 212/214/199 266/41/199 330/44/199 84/354/199
f 290/119/200 351/295/200 68/381/200 132/120/200
f 352/290/201 288/113/201 193/112/201 65/382/201
f 251/383/202 262/25/202 326/28/202 123/361/202
f 289/292/203 352/290/203 65/382/203 129/380/203
f 288/113/204 192/289/204 64/340/204 353/114/204
f 144/258/205 318/209/205 362/176/205 17/175/205
f 287/285/206 190/294/206 62/335/206 354/286/206
f 211/376/207 258/9/207 322/12/207 83/357/207
f 218/174/208 267/45/208 331/48/208 90/353/208
f 50/365/209 232/50/209 268/49/209 375/312/209
f 69/384/210 347/61/210 272/64/210 197/163/210
f 195/378/211 271/60/211 378/304/211 15/306/211
f 48/140/212 234/385/212 270/167/212 376/141/212
f 293/283/213 348/57/213 67/377/213 131/352/213
f 294/329/214 347/61/214 69/384/214 133/351/214
f 295/117/215 346/65/215 66/198/215 130/333/215
f 296/281/216 345/69/216 72/375/216 136/332/216
f 297/279/217 344/73/217 75/203/217 139/338/217
f 298/337/218 343/77/218 125/374/218 189/339/218
f 299/275/219 342/81/219 74/210/219 138/334/219
f 300/277/220 341/85/220 127/372/220 191/331/220
f 301/271/221 340/89/221 77/217/221 141/344/221
f 302/273/222 339/93/222 70/370/222 134/343/222
f 303/267/223 338/97/223 76/219/223 140/347/223
f 304/269/224 337/101/224 71/368/224 135/346/224
f 305/260/225 336/105/225 73/223/225 137/350/225
f 306/265/226 335/109/226 78/366/226 142/305/226
f 283/108/227 183/107/227 31/327/227 384/254/227
f 282/104/228 182/103/228 35/341/228 382/149/228
f 281/100/229 181/99/229 29/345/229 372/249/229
f 280/96/230 180/95/230 30/310/230 371/152/230
f 279/92/231 179/91/231 32/348/231 370/244/231
f 278/88/232 178/87/232 34/314/232 369/155/232
f 277/84/233 177/83/233 36/322/233 368/239/233
f 276/80/234 176/79/234 37/330/234 381/158/234
f 275/76/235 175/75/235 39/386/235 379/233/235
f 274/72/236 174/71/236 40/342/236 367/161/236
f 273/68/237 173/67/237 41/319/237 366/187/237
f 272/64/238 172/63/238 42/326/238 365/164/238
f 271/60/239 171/59/239 43/349/239 378/304/239
f 270/167/240 234/385/240 106/261/240 334/168/240
f 376/141/241 270/167/241 220/166/241 16/238/241
f 377/171/242 269/53/242 215/227/242 19/301/242
f 375/312/243 268/49/243 213/229/243 24/313/243
f 364/173/244 44/371/244 231/46/244 267/45/244
f 363/213/245 45/356/245 230/42/245 266/41/245
f 362/176/246 47/373/246 229/38/246 265/37/246
f 361/206/247 49/358/247 250/34/247 264/33/247
f 360/179/248 51/362/248 227/30/248 263/29/248
f 374/200/249 262/25/249 251/383/249 18/302/249
f 379/181/250 261/21/250 217/367/250 8/387/250
f 359/194/251 53/369/251 224/18/251 260/17/251
f 358/183/252 54/360/252 223/14/252 259/13/252
f 357/317/253 55/363/253 222/10/253 258/9/253
f 373/185/254 257/5/254 209/130/254 28/324/254
f 284/2/255 184/111/255 33/298/255 383/3/255
