# Blender 5.2.0 LTS
# www.blender.org
mtllib ReactorWire.mtl
o ReactorWire
v -36.142014 2.057456 -11.715160
v -36.300922 2.178897 -11.445768
v -36.484589 2.046797 -11.195734
v -36.585419 1.738267 -11.111525
v -36.544350 1.433782 -11.242468
v -36.385441 1.313422 -11.511860
v -36.201775 1.445878 -11.761894
v -36.100945 1.753940 -11.846104
v -35.144039 1.903004 -11.223979
v -35.241604 2.013291 -10.921392
v -35.397087 1.876189 -10.656109
v -35.519409 1.572009 -10.583528
v -35.536915 1.276285 -10.746165
v -35.439350 1.168636 -11.048752
v -35.283867 1.305741 -11.314035
v -35.161545 1.609928 -11.386617
v -34.072445 1.558969 -10.825093
v -34.160240 1.666796 -10.518378
v -34.318581 1.530413 -10.254302
v -34.454712 1.229712 -10.187556
v -34.488895 0.935763 -10.357240
v -34.401100 0.833012 -10.663955
v -34.242760 0.969395 -10.928031
v -34.106628 1.270096 -10.994777
v -33.086136 1.210673 -10.375051
v -33.182613 1.321277 -10.071956
v -33.333660 1.182561 -9.804840
v -33.450794 0.875783 -9.730177
v -33.465401 0.580649 -9.891703
v -33.368923 0.470044 -10.194798
v -33.217876 0.608760 -10.461914
v -33.100742 0.915539 -10.536577
v -32.127380 1.008837 -10.002888
v -32.209755 1.116496 -9.694613
v -32.320038 0.969266 -9.412533
v -32.393627 0.653394 -9.321884
v -32.387421 0.353912 -9.475769
v -32.305046 0.246254 -9.784043
v -32.194763 0.393483 -10.066124
v -32.121174 0.709356 -10.156773
v -30.058338 0.920391 -9.617958
v -30.081392 1.024758 -9.298608
v -30.103428 0.872155 -8.999217
v -30.111538 0.551975 -8.895164
v -30.100971 0.251774 -9.047401
v -30.077917 0.147407 -9.366752
v -30.055882 0.300010 -9.666142
v -30.047771 0.620191 -9.770196
v -29.061623 0.925633 -9.592559
v -29.061628 1.030039 -9.272390
v -29.060368 0.877476 -8.972173
v -29.058575 0.557312 -8.867767
v -29.057304 0.257096 -9.020335
v -29.057299 0.152690 -9.340504
v -29.058559 0.305253 -9.640722
v -29.060352 0.625417 -9.745127
v -28.078768 0.930523 -9.620349
v -28.045713 1.035064 -9.301936
v -28.013945 0.882625 -9.003338
v -28.002071 0.562502 -8.899467
v -28.017050 0.262220 -9.051173
v -28.050104 0.157679 -9.369586
v -28.081873 0.310118 -9.668185
v -28.093746 0.630241 -9.772055
v -27.113384 0.931618 -9.795069
v -27.022532 1.036268 -9.488145
v -26.937136 0.883930 -9.200206
v -26.907219 0.563842 -9.099922
v -26.950306 0.263506 -9.246040
v -27.041159 0.158856 -9.552965
v -27.126554 0.311194 -9.840904
v -27.156471 0.631283 -9.941187
v -26.166281 0.931703 -10.191115
v -26.011503 1.036377 -9.910944
v -25.866259 0.884061 -9.648052
v -25.815628 0.563980 -9.556438
v -25.889269 0.263634 -9.689769
v -26.044046 0.158960 -9.969940
v -26.189291 0.311276 -10.232832
v -26.239922 0.631357 -10.324446
v -25.352558 0.931705 -10.765037
v -25.149481 1.036380 -10.517629
v -24.958923 0.884065 -10.285473
v -24.892511 0.563985 -10.204564
v -24.989147 0.263638 -10.322297
v -25.192225 0.158963 -10.569705
v -25.382782 0.311277 -10.801861
v -25.449194 0.631357 -10.882770
v -24.595961 0.931705 -11.486973
v -24.371542 1.036380 -11.258746
v -24.160959 0.884066 -11.044589
v -24.087568 0.563986 -10.969953
v -24.194361 0.263638 -11.078558
v -24.418779 0.158963 -11.306785
v -24.629362 0.311278 -11.520942
v -24.702753 0.631358 -11.595578
v -23.078045 0.931706 -13.029284
v -22.851683 1.036381 -12.802983
v -22.639277 0.884067 -12.590633
v -22.565250 0.563987 -12.516627
v -22.672966 0.263639 -12.624315
v -22.899328 0.158964 -12.850616
v -23.111734 0.311278 -13.062965
v -23.185760 0.631359 -13.136971
v -22.296492 0.931706 -13.797662
v -22.080898 1.036382 -13.561079
v -21.878597 0.884067 -13.339082
v -21.808092 0.563987 -13.261713
v -21.910685 0.263640 -13.374293
v -22.126278 0.158964 -13.610876
v -22.328579 0.311279 -13.832873
v -22.399084 0.631359 -13.910242
v -21.438860 0.931708 -14.521161
v -21.245712 1.036383 -14.265925
v -21.064466 0.884068 -14.026428
v -21.001295 0.563988 -13.942965
v -21.093203 0.263640 -14.064425
v -21.286350 0.158965 -14.319661
v -21.467596 0.311280 -14.559158
v -21.530767 0.631361 -14.642622
v -20.449305 0.931768 -15.250535
v -20.284555 1.036437 -14.986590
v -20.129900 0.884117 -14.737714
v -20.075935 0.564035 -14.648768
v -20.154272 0.263690 -14.777330
v -20.319021 0.159021 -15.041882
v -20.473677 0.311341 -15.290017
v -20.527641 0.631423 -15.377110
v -19.382370 0.932405 -15.838406
v -19.243996 1.037050 -15.548641
v -19.113853 0.884707 -15.270184
v -19.068178 0.564617 -15.163982
v -19.133728 0.264284 -15.316673
v -19.272102 0.159640 -15.610595
v -19.402245 0.311983 -15.883950
v -19.447920 0.632073 -15.984589
v -18.319185 0.935048 -16.159609
v -18.200317 1.039651 -15.846479
v -18.088205 0.887269 -15.553179
v -18.048523 0.567166 -15.451375
v -18.104517 0.266854 -15.600586
v -18.223385 0.162252 -15.913567
v -18.335497 0.314633 -16.207075
v -18.375179 0.634736 -16.309027
v -17.187960 0.938560 -16.163778
v -17.110056 1.043040 -15.859589
v -17.036228 0.890544 -15.572553
v -17.009726 0.570401 -15.474041
v -17.046072 0.270148 -15.618333
v -17.123976 0.165668 -15.925404
v -17.197803 0.318165 -16.208717
v -17.224306 0.638307 -16.302639
v -15.080729 0.940585 -15.798074
v -15.205199 1.044909 -15.503062
v -15.322242 0.892266 -15.229750
v -15.363295 0.572071 -15.137082
v -15.304309 0.271891 -15.273936
v -15.179839 0.167567 -15.566531
v -15.062797 0.320211 -15.842954
v -15.021744 0.640406 -15.938861
v -14.221732 0.939141 -15.330229
v -14.424917 1.043468 -15.022802
v -14.615116 0.890826 -14.762953
v -14.680915 0.570633 -14.681991
v -14.583768 0.270452 -14.799728
v -14.380583 0.166125 -15.074810
v -14.190384 0.318766 -15.367005
v -14.124585 0.638960 -15.502241
v -13.528833 0.943541 -14.777795
v -13.766030 1.047681 -14.513099
v -13.987206 0.894870 -14.286958
v -14.062798 0.574623 -14.210890
v -13.948526 0.274536 -14.320095
v -13.711329 0.170396 -14.558918
v -13.490154 0.323207 -14.810729
v -13.414562 0.643454 -14.923886
v -12.883054 0.951995 -14.343549
v -13.137533 1.055878 -14.116835
v -13.373901 0.902841 -13.913559
v -13.453698 0.582531 -13.839797
v -13.330180 0.282581 -13.943684
v -13.075701 0.178698 -14.157665
v -12.839333 0.331736 -14.372967
v -12.759536 0.652046 -14.459643
v -12.257017 0.970387 -13.617617
v -12.531898 1.073685 -13.452760
v -12.786354 0.920129 -13.294112
v -12.871327 0.599670 -13.234290
v -12.737041 0.300030 -13.309975
v -12.462160 0.196732 -13.474908
v -12.207705 0.350288 -13.633278
v -12.122731 0.670746 -13.692390
v -11.703207 0.997289 -12.563301
v -11.997374 1.099679 -12.435276
v -12.269376 0.945299 -12.310419
v -12.359879 0.624580 -12.261870
v -12.215868 0.325397 -12.318068
v -11.921701 0.223006 -12.446093
v -11.649699 0.377387 -12.570950
v -11.559196 0.698105 -12.619498
v -11.293472 1.026709 -11.450260
v -11.600088 1.128254 -11.354954
v -11.883633 0.973090 -11.260427
v -11.978007 0.652109 -11.222054
v -11.827930 0.353337 -11.262310
v -11.521314 0.251791 -11.357616
v -11.237770 0.406956 -11.452143
v -11.143395 0.727937 -11.490517
v -10.584206 1.098192 -8.853647
v -10.890704 1.199895 -8.758129
v -11.172596 1.045066 -8.658263
v -11.264753 0.724402 -8.612549
v -11.113192 0.425743 -8.647766
v -10.806693 0.324040 -8.743284
v -10.524801 0.478869 -8.843150
v -10.432644 0.799533 -8.888865
v -10.194336 1.166072 -7.834093
v -10.489124 1.270075 -7.708827
v -10.755373 1.118318 -7.569221
v -10.837118 0.799699 -7.497055
v -10.686474 0.500860 -7.534603
v -10.391685 0.396857 -7.659869
v -10.125437 0.548614 -7.799474
v -10.043692 0.867233 -7.871640
v -9.679567 1.306388 -6.898904
v -9.966082 1.413143 -6.757762
v -10.211944 1.268168 -6.579038
v -10.273132 0.956387 -6.467427
v -10.113802 0.660438 -6.488308
v -9.827288 0.553682 -6.629451
v -9.581425 0.698657 -6.808175
v -9.520237 1.010438 -6.919786
v -9.169285 1.585212 -6.080012
v -9.468927 1.683633 -5.961962
v -9.704322 1.545304 -5.764825
v -9.737576 1.251257 -5.604081
v -9.549212 0.973740 -5.573892
v -9.249569 0.875319 -5.691942
v -9.014174 1.013649 -5.889079
v -8.980920 1.307696 -6.049823
v -8.794707 2.077962 -5.303290
v -9.110209 2.157876 -5.216800
v -9.344177 2.021212 -5.016825
v -9.359555 1.748025 -4.820506
v -9.147336 1.498346 -4.742845
v -8.831834 1.418432 -4.829335
v -8.597866 1.555096 -5.029310
v -8.582488 1.828283 -5.225629
v -8.468346 2.666745 -4.517505
v -8.790811 2.739149 -4.447564
v -9.023629 2.604562 -4.244856
v -9.030419 2.346900 -4.028124
v -8.807203 2.117098 -3.924327
v -8.484737 2.049771 -3.994267
v -8.251920 2.179282 -4.196975
v -8.245131 2.425923 -4.413707
v -8.175302 3.391563 -3.709802
v -8.496857 3.471880 -3.637631
v -8.725062 3.352347 -3.423614
v -8.726239 3.106829 -3.193119
v -8.499698 2.879146 -3.081168
v -8.178143 2.798829 -3.153339
v -7.949937 2.913462 -3.367356
v -7.948760 3.158980 -3.597851
v -7.304427 4.604795 -2.331000
v -7.580379 4.737075 -2.190420
v -7.781323 4.651330 -1.934041
v -7.789550 4.398877 -1.712047
v -7.600240 4.127826 -1.654479
v -7.324288 3.995539 -1.795058
v -7.123343 4.079511 -2.051437
v -7.115117 4.331978 -2.273432
v -6.674513 5.041972 -1.725613
v -6.910483 5.202902 -1.547210
v -7.095116 5.129156 -1.275401
v -7.120257 4.863934 -1.069407
v -6.971178 4.562598 -1.049899
v -6.735208 4.401668 -1.228302
v -6.550575 4.475413 -1.500112
v -6.525434 4.740636 -1.706105
v -5.971273 5.326644 -1.220893
v -6.162971 5.506545 -1.010426
v -6.324912 5.442522 -0.722182
v -6.362233 5.172080 -0.525010
v -6.253073 4.853640 -0.534412
v -6.060576 4.673740 -0.744659
v -5.897918 4.737762 -1.032520
v -5.862113 5.008204 -1.230294
v -5.258197 5.504107 -0.823517
v -5.397653 5.694864 -0.583074
v -5.542433 5.634206 -0.285124
v -5.608202 5.357664 -0.105416
v -5.549495 5.027233 -0.148537
v -5.402164 4.836475 -0.386660
v -5.257800 4.897134 -0.680868
v -5.199969 5.173676 -0.862764
v -4.494295 5.440012 -0.481934
v -4.555738 5.621965 -0.209749
v -4.688682 5.560169 0.089896
v -4.814178 5.290822 0.237216
v -4.855584 4.971703 0.146895
v -4.790769 4.789749 -0.123271
v -4.660384 4.851545 -0.416208
v -4.538161 5.120893 -0.565378
v -3.813739 5.097144 -0.264465
v -3.785643 5.233726 0.028533
v -3.905060 5.166731 0.323685
v -4.100176 4.935405 0.442795
v -4.254904 4.675254 0.318739
v -4.280010 4.538672 0.028625
v -4.163326 4.605667 -0.259665
v -3.970583 4.836993 -0.381541
v -3.207498 4.387572 -0.174075
v -3.119989 4.457541 0.115369
v -3.230880 4.386777 0.397093
v -3.474177 4.216731 0.503891
v -3.705769 4.047014 0.374539
v -3.791087 3.977044 0.086695
v -3.681511 4.047809 -0.192205
v -3.440409 4.217855 -0.300596
v -2.936642 3.730265 -0.199182
v -2.825019 3.737515 0.082873
v -2.936605 3.673954 0.359145
v -3.206034 3.576814 0.467798
v -3.475479 3.503000 0.345185
v -3.587102 3.495750 0.063130
v -3.475516 3.559311 -0.213142
v -3.206086 3.656450 -0.321795
v -36.566689 2.109504 -12.078337
v -36.504787 1.800242 -12.190754
v -36.749981 2.238143 -11.828863
v -36.947296 2.110087 -11.588469
v -37.043045 1.800272 -11.497974
v -36.981144 1.490259 -11.610390
v -36.797852 1.362390 -11.859865
v -36.600540 1.491134 -12.100259
v -36.816517 1.227572 -12.629570
v -37.231827 1.000929 -12.215114
v -37.640247 1.256766 -11.812576
v -37.801655 1.840769 -11.658368
v -37.625828 2.410139 -11.839691
v -37.215889 2.636960 -12.250505
v -36.640842 1.803282 -12.811283
v -36.807625 2.387500 -12.653422
v -36.706493 2.225211 -12.338865
v -36.494869 2.216109 -12.155954
v -36.609478 1.807229 -12.477520
v -36.407333 1.800439 -12.305014
v -36.969116 2.400747 -12.017260
v -36.745640 2.388180 -11.824052
v -37.243301 2.231056 -11.701552
v -37.012161 2.216400 -11.504546
v -37.368927 1.815868 -11.576618
v -37.139889 1.802177 -11.383210
v -37.272308 1.397904 -11.715614
v -37.054295 1.386011 -11.530741
v -37.009552 1.222361 -12.037106
v -36.803936 1.212717 -11.862036
v -36.734962 1.392033 -12.352473
v -36.535473 1.384873 -12.183065
v -36.606205 2.383028 -12.459914
v -36.450951 1.799925 -12.625923
v -37.003109 2.633550 -12.046022
v -37.408695 2.404735 -11.627702
v -37.586365 1.831369 -11.450235
v -37.431942 1.248636 -11.617280
v -37.034981 0.998274 -12.030580
v -36.628555 1.226792 -12.447872
v -31.157282 0.934597 -9.759841
v -30.997772 0.927925 -9.730446
v -31.210987 1.039668 -9.444418
v -31.051476 1.032932 -9.415005
v -31.271746 0.887966 -9.149984
v -31.112240 0.881141 -9.120553
v -31.303959 0.568353 -9.049018
v -31.144464 0.561467 -9.019577
v -31.288767 0.268059 -9.200662
v -31.129272 0.261170 -9.171225
v -31.235069 0.162993 -9.516087
v -31.075563 0.156159 -9.486663
v -31.174313 0.314698 -9.810519
v -31.014799 0.307951 -9.781115
v -30.982580 0.627628 -9.882093
v -31.142090 0.634305 -9.911485
v -23.896339 0.931705 -12.196967
v -23.782324 0.931706 -12.312815
v -23.668217 1.036381 -11.972446
v -23.554199 1.036381 -12.088293
v -23.454157 0.884066 -11.761767
v -23.340139 0.884067 -11.877612
v -23.379557 0.563986 -11.688343
v -23.265537 0.563986 -11.804188
v -23.488110 0.263639 -11.795184
v -23.374090 0.263639 -11.911029
v -23.716232 0.158964 -12.019705
v -23.602215 0.158964 -12.135551
v -23.930292 0.311278 -12.230384
v -23.816277 0.311278 -12.346231
v -23.890879 0.631358 -12.419657
v -24.004894 0.631358 -12.303808
v -16.202934 0.941777 -16.102537
v -16.041878 0.941930 -16.072130
v -16.216448 1.046058 -15.804165
v -16.055359 1.046210 -15.770297
v -16.228842 0.893372 -15.519769
v -16.067795 0.893522 -15.483671
v -16.232870 0.573163 -15.424007
v -16.071873 0.573311 -15.387353
v -16.226240 0.273004 -15.565516
v -16.065182 0.273154 -15.530385
v -16.212757 0.168725 -15.868614
v -16.051668 0.168877 -15.835106
v -16.200323 0.321409 -16.147879
v -16.039272 0.321562 -16.117779
v -16.035227 0.641771 -16.212673
v -16.196257 0.641617 -16.240480
v -10.956575 1.057524 -10.213428
v -10.913759 1.061844 -10.056685
v -11.267097 1.158718 -10.131370
v -11.224278 1.163043 -9.974627
v -11.554117 1.003240 -10.048645
v -11.511291 1.007572 -9.891905
v -11.649507 0.682168 -10.013712
v -11.606669 0.686504 -9.856976
v -11.497387 0.383580 -10.047036
v -11.454542 0.387916 -9.890301
v -11.186867 0.282386 -10.129095
v -11.144023 0.286717 -9.972359
v -10.899845 0.437863 -10.211820
v -10.857012 0.442188 -10.055081
v -10.761633 0.763256 -10.090011
v -10.804456 0.758936 -10.246753
v -7.839108 4.016965 -3.025491
v -7.771209 4.108446 -2.918906
v -8.144981 4.120510 -2.923511
v -8.077016 4.211355 -2.816868
v -8.361365 4.019242 -2.687029
v -8.293354 4.109835 -2.580366
v -8.361510 3.775387 -2.454575
v -8.293491 3.865984 -2.347927
v -8.145334 3.532218 -2.362319
v -8.077351 3.623070 -2.255717
v -7.839460 3.428679 -2.464298
v -7.771543 3.520172 -2.357761
v -7.623065 3.525708 -2.700771
v -7.555209 3.617815 -2.594280
v -7.555072 3.861632 -2.826713
v -7.622919 3.769531 -2.933226
v -31.138926 1.027974 -9.838182
v -30.979418 1.021316 -9.808771
v -30.959934 0.636900 -10.002902
v -31.119444 0.643538 -10.032296
v -31.207651 1.162476 -9.434384
v -31.048138 1.155740 -9.404975
v -31.285393 0.968268 -9.057470
v -31.125889 0.961433 -9.028030
v -31.326658 0.559120 -8.928216
v -31.167164 0.552199 -8.898778
v -31.307243 0.174686 -9.122343
v -31.147747 0.167785 -9.092920
v -31.238476 0.040188 -9.526134
v -31.078970 0.033354 -9.496706
v -31.160667 0.234395 -9.903033
v -31.001152 0.227659 -9.873638
v -23.953522 1.025282 -12.253245
v -23.839506 1.025282 -12.369093
v -23.978472 0.640795 -12.505865
v -24.092487 0.640795 -12.390017
v -23.661491 1.159281 -11.965827
v -23.547474 1.159281 -12.081674
v -23.387465 0.964297 -11.696127
v -23.273447 0.964297 -11.811971
v -23.291965 0.554549 -11.602133
v -23.177946 0.554549 -11.717977
v -23.430929 0.170062 -11.738905
v -23.316910 0.170063 -11.854749
v -23.722958 0.036063 -12.026324
v -23.608940 0.036063 -12.142171
v -23.996986 0.231047 -12.296023
v -23.882971 0.231048 -12.411871
v -16.199560 1.035443 -16.177889
v -16.038506 1.035637 -16.146965
v -16.029886 0.651364 -16.327877
v -16.190916 0.651200 -16.355947
v -16.216923 1.168947 -15.792617
v -16.055832 1.169099 -15.759077
v -16.232668 0.973482 -15.428611
v -16.071619 0.973685 -15.392178
v -16.237743 0.563580 -15.304813
v -16.076746 0.563716 -15.267627
v -16.229368 0.179336 -15.486444
v -16.068308 0.179440 -15.450672
v -16.212200 0.045836 -15.875763
v -16.051111 0.045988 -15.842650
v -16.196192 0.241300 -16.235605
v -16.035143 0.241407 -16.205303
v -10.880814 1.151921 -10.236728
v -10.837999 1.156243 -10.079985
v -10.643257 0.774009 -10.122648
v -10.686081 0.769692 -10.279390
v -11.278332 1.281466 -10.131687
v -11.235518 1.285791 -9.974943
v -11.645769 1.082430 -10.025788
v -11.602942 1.086762 -9.869048
v -11.767879 0.671412 -9.981063
v -11.725041 0.675751 -9.824327
v -11.573143 0.289182 -10.023719
v -11.530296 0.293517 -9.866983
v -11.175631 0.159637 -10.128774
v -11.132782 0.163969 -9.972038
v -10.808194 0.358673 -10.234679
v -10.765361 0.362998 -10.077941
v -7.796229 4.082488 -3.118378
v -7.728347 4.174261 -3.011792
v -7.451644 3.858571 -2.893757
v -7.519470 3.766017 -3.000237
v -8.187742 4.214892 -2.987795
v -8.119780 4.305888 -2.881151
v -8.464711 4.085239 -2.685067
v -8.396713 4.175913 -2.578375
v -8.464932 3.773128 -2.387521
v -8.396894 3.863780 -2.280844
v -8.188209 3.461844 -2.269423
v -8.120208 3.552828 -2.162822
v -7.796647 3.329505 -2.399931
v -7.728725 3.421273 -2.293397
v -7.519648 3.454004 -2.702615
v -7.451775 3.546537 -2.596158
v -2.892887 3.464045 -0.249215
v -3.158925 3.466953 -0.345739
v -2.768331 3.427824 0.046889
v -2.899719 3.376579 0.349503
v -3.171826 3.353117 0.434892
v -3.453429 3.363878 0.313032
v -3.554951 3.393649 0.037481
v -3.445123 3.440933 -0.234397
v -2.834674 3.136744 0.415165
v -2.832750 3.254319 0.416894
v -2.661436 3.214314 0.010519
v -2.666173 3.322753 0.028416
v -3.164174 3.388121 -0.453940
v -3.167347 3.294023 -0.465868
v -2.840477 3.274698 -0.372729
v -2.831965 3.375620 -0.344754
v -2.867377 3.368762 -0.307656
v -3.162425 3.380016 -0.402866
v -2.717885 3.321022 0.028778
v -2.867813 3.256955 0.378934
v -3.169946 3.235720 0.463742
v -3.487195 3.256439 0.327937
v -3.598904 3.297858 0.024432
v -3.483115 3.354007 -0.276710
v -3.159502 3.474087 -0.390915
v -3.476859 3.445725 -0.266985
v -3.600688 3.393824 0.036998
v -3.486354 3.358813 0.344375
v -3.174588 3.347599 0.480213
v -2.868425 3.374297 0.382782
v -2.722620 3.429392 0.047265
v -2.860681 3.469942 -0.281154
v -3.174079 3.229536 0.514947
v -3.168133 3.117791 0.498583
v -3.524726 3.250780 0.363103
v -3.525100 3.148329 0.347149
v -3.650645 3.298128 0.024029
v -3.648858 3.201925 0.012832
v -3.519237 3.359390 -0.313364
v -3.527628 3.267430 -0.320840
vn 0.6272 0.3762 -0.6819
vn 0.3169 0.9191 -0.2340
vn -0.1755 0.9196 0.3515
vn -0.5650 0.3857 0.7294
vn -0.6261 -0.3755 0.6833
vn -0.3121 -0.9206 0.2346
vn 0.1856 -0.9198 -0.3457
vn 0.5716 -0.3869 -0.7236
vn 0.4521 0.4081 -0.7931
vn 0.2703 0.9284 -0.2549
vn -0.0696 0.9023 0.4255
vn -0.3702 0.3546 0.8586
vn -0.4550 -0.4056 0.7928
vn -0.2672 -0.9304 0.2510
vn 0.0702 -0.9021 -0.4257
vn 0.3663 -0.3539 -0.8606
vn 0.4317 0.4181 -0.7993
vn 0.3691 0.9050 -0.2117
vn 0.0904 0.8619 0.4989
vn -0.2409 0.3144 0.9182
vn -0.4315 -0.4139 0.8015
vn -0.3687 -0.9075 0.2012
vn -0.0929 -0.8611 -0.5000
vn 0.2396 -0.3140 -0.9187
vn 0.4931 0.3976 -0.7738
vn 0.4054 0.8926 -0.1972
vn 0.0799 0.8654 0.4947
vn -0.2924 0.3308 0.8973
vn -0.4915 -0.3955 0.7759
vn -0.4004 -0.8959 0.1924
vn -0.0796 -0.8655 -0.4946
vn 0.2920 -0.3307 -0.8974
vn 0.4038 0.4242 -0.8106
vn 0.2900 0.9250 -0.2454
vn 0.0065 0.8857 0.4643
vn -0.2806 0.3257 0.9029
vn -0.4024 -0.4245 0.8111
vn -0.2894 -0.9252 0.2456
vn -0.0069 -0.8856 -0.4644
vn 0.2810 -0.3258 -0.9027
vn 0.0203 0.4529 -0.8913
vn 0.0030 0.9507 -0.3102
vn -0.0163 0.8913 0.4531
vn -0.0263 0.3097 0.9505
vn -0.0209 -0.4529 0.8913
vn -0.0031 -0.9507 0.3102
vn 0.0162 -0.8913 -0.4531
vn 0.0258 -0.3097 -0.9505
vn -0.0273 0.4523 -0.8914
vn -0.0136 0.9505 -0.3103
vn 0.0090 0.8912 0.4535
vn 0.0269 0.3097 0.9504
vn 0.0288 -0.4523 0.8914
vn 0.0138 -0.9505 0.3103
vn -0.0085 -0.8912 -0.4535
vn -0.0251 -0.3097 -0.9505
vn -0.1592 0.4509 -0.8783
vn -0.0567 0.9501 -0.3066
vn 0.0805 0.8910 0.4469
vn 0.1708 0.3095 0.9355
vn 0.1611 -0.4509 0.8779
vn 0.0570 -0.9501 0.3066
vn -0.0800 -0.8910 -0.4470
vn -0.1687 -0.3094 -0.9358
vn -0.3445 0.4502 -0.8238
vn -0.1206 0.9499 -0.2882
vn 0.1752 0.8908 0.4193
vn 0.3669 0.3092 0.8774
vn 0.3446 -0.4502 0.8238
vn 0.1206 -0.9499 0.2882
vn -0.1753 -0.8908 -0.4193
vn -0.3669 -0.3092 -0.8774
vn -0.5147 0.4507 -0.7293
vn -0.1797 0.9501 -0.2551
vn 0.2610 0.8911 0.3713
vn 0.5465 0.3096 0.7781
vn 0.5131 -0.4507 0.7305
vn 0.1795 -0.9501 0.2552
vn -0.2615 -0.8911 -0.3710
vn -0.5483 -0.3096 -0.7769
vn -0.6160 0.4518 -0.6453
vn -0.2148 0.9503 -0.2253
vn 0.3122 0.8916 0.3280
vn 0.6551 0.3104 0.6888
vn 0.6149 -0.4518 0.6464
vn 0.2146 -0.9503 0.2254
vn -0.3125 -0.8916 -0.3277
vn -0.6564 -0.3104 -0.6876
vn -0.6253 0.4522 -0.6361
vn -0.2180 0.9504 -0.2217
vn 0.3173 0.8918 0.3225
vn 0.6667 0.3107 0.6775
vn 0.6256 -0.4522 0.6358
vn 0.2180 -0.9504 0.2217
vn -0.3172 -0.8918 -0.3226
vn -0.6663 -0.3107 -0.6778
vn -0.5752 0.4519 -0.6819
vn -0.2006 0.9504 -0.2378
vn 0.2920 0.8917 0.3459
vn 0.6132 0.3105 0.7263
vn 0.5755 -0.4519 0.6816
vn 0.2007 -0.9504 0.2378
vn -0.2919 -0.8917 -0.3460
vn -0.6129 -0.3105 -0.7266
vn -0.5294 0.4476 -0.7207
vn -0.1881 0.9490 -0.2530
vn 0.2757 0.8892 0.3651
vn 0.5763 0.3092 0.7565
vn 0.5410 -0.4493 0.7109
vn 0.1896 -0.9491 0.2517
vn -0.2724 -0.8891 -0.3678
vn -0.5629 -0.3074 -0.7672
vn -0.4330 0.4566 -0.7772
vn -0.1512 0.9492 -0.2760
vn 0.2125 0.8914 0.4003
vn 0.4348 0.3238 0.8403
vn 0.4085 -0.4655 0.7852
vn 0.1482 -0.9498 0.2755
vn -0.2191 -0.8898 -0.4002
vn -0.4626 -0.3150 -0.8287
vn -0.2568 0.4681 -0.8456
vn -0.0884 0.9521 -0.2927
vn 0.1178 0.8962 0.4277
vn 0.2529 0.3293 0.9097
vn 0.2376 -0.4742 0.8478
vn 0.0850 -0.9525 0.2924
vn -0.1245 -0.8952 -0.4280
vn -0.2734 -0.3232 -0.9060
vn -0.0005 0.4328 -0.9015
vn -0.0054 0.9477 -0.3192
vn 0.0043 0.8858 0.4640
vn 0.0182 0.3003 0.9537
vn 0.0187 -0.4413 0.8972
vn 0.0073 -0.9483 0.3174
vn -0.0001 -0.8841 -0.4673
vn 0.0029 -0.2923 -0.9563
vn 0.3963 0.5032 -0.7679
vn 0.1471 0.9567 -0.2513
vn -0.2376 0.8957 0.3759
vn -0.5264 0.3032 0.7943
vn -0.4951 -0.4452 0.7461
vn -0.1642 -0.9528 0.2554
vn 0.2129 -0.9041 -0.3704
vn 0.4255 -0.3692 -0.8262
vn 0.5280 0.5353 -0.6593
vn 0.1676 0.9608 -0.2211
vn -0.2668 0.9015 0.3408
vn -0.5761 0.3124 0.7553
vn -0.5356 -0.4571 0.7100
vn -0.1751 -0.9555 0.2375
vn 0.2556 -0.9126 -0.3191
vn 0.5752 -0.4031 -0.7118
vn 0.4862 0.5045 -0.7135
vn 0.1520 0.9556 -0.2524
vn -0.2446 0.8938 0.3759
vn -0.4974 0.3102 0.8102
vn -0.4593 -0.4533 0.7639
vn -0.1545 -0.9507 0.2690
vn 0.2426 -0.9033 -0.3538
vn 0.5319 -0.3671 -0.7631
vn 0.6679 0.4707 -0.5765
vn 0.2142 0.9529 -0.2146
vn -0.3416 0.8929 0.2932
vn -0.6911 0.3135 0.6512
vn -0.6380 -0.4594 0.6180
vn -0.2138 -0.9514 0.2216
vn 0.3462 -0.8954 -0.2800
vn 0.7276 -0.3246 -0.6044
vn 0.7829 0.4563 -0.4229
vn 0.2610 0.9518 -0.1614
vn -0.4147 0.8888 0.1952
vn -0.8460 0.3054 0.4370
vn -0.7825 -0.4568 0.4230
vn -0.2609 -0.9518 0.1614
vn 0.4148 -0.8887 -0.1952
vn 0.8463 -0.3050 -0.4368
vn 0.8296 0.4592 -0.3176
vn 0.2762 0.9527 -0.1268
vn -0.4399 0.8874 0.1382
vn -0.8974 0.3021 0.3216
vn -0.8298 -0.4593 0.3170
vn -0.2763 -0.9527 0.1268
vn 0.4398 -0.8874 -0.1384
vn 0.8971 -0.3021 -0.3224
vn 0.8203 0.4568 -0.3441
vn 0.2646 0.9502 -0.1646
vn -0.4474 0.8873 0.1118
vn -0.8964 0.3034 0.3231
vn -0.8199 -0.4567 0.3451
vn -0.2644 -0.9502 0.1653
vn 0.4474 -0.8873 -0.1118
vn 0.8966 -0.3034 -0.3227
vn 0.7564 0.4416 -0.4825
vn 0.2204 0.9395 -0.2624
vn -0.4458 0.8883 0.1109
vn -0.8515 0.3152 0.4190
vn -0.7568 -0.4418 0.4817
vn -0.2198 -0.9393 0.2635
vn 0.4463 -0.8881 -0.1099
vn 0.8510 -0.3154 -0.4199
vn 0.7018 0.4161 -0.5781
vn 0.1419 0.9068 -0.3970
vn -0.4980 0.8670 0.0159
vn -0.8495 0.3207 0.4189
vn -0.7024 -0.4165 0.5772
vn -0.1413 -0.9065 0.3980
vn 0.5004 -0.8657 -0.0118
vn 0.8508 -0.3200 -0.4168
vn 0.6949 0.4067 -0.5930
vn 0.0563 0.8302 -0.5546
vn -0.6124 0.7666 -0.1930
vn -0.9243 0.2569 0.2823
vn -0.6949 -0.4067 0.5930
vn -0.0575 -0.8317 0.5522
vn 0.6104 -0.7692 0.1888
vn 0.9234 -0.2580 -0.2841
vn 0.6997 0.4029 -0.5899
vn 0.0389 0.7906 -0.6111
vn -0.6472 0.7129 -0.2700
vn -0.9486 0.2180 0.2292
vn -0.6942 -0.4053 0.5948
vn -0.0326 -0.7907 0.6113
vn 0.6429 -0.7160 0.2719
vn 0.9478 -0.2222 -0.2288
vn 0.6976 0.3884 -0.6020
vn 0.0262 0.7379 -0.6744
vn -0.6736 0.6523 -0.3474
vn -0.9656 0.1811 0.1866
vn -0.6906 -0.3924 0.6076
vn -0.0214 -0.7402 0.6720
vn 0.6640 -0.6626 0.3464
vn 0.9650 -0.1848 -0.1861
vn 0.5820 0.2386 -0.7774
vn 0.0577 0.7794 -0.6238
vn -0.4987 0.8605 -0.1042
vn -0.7620 0.4411 0.4741
vn -0.5814 -0.2390 0.7777
vn -0.0594 -0.7806 0.6222
vn 0.4953 -0.8625 0.1040
vn 0.7618 -0.4412 -0.4743
vn 0.5160 0.2014 -0.8326
vn 0.1000 0.8002 -0.5913
vn -0.3744 0.9273 -0.0036
vn -0.6285 0.5132 0.5845
vn -0.5160 -0.2014 0.8326
vn -0.1005 -0.8003 0.5911
vn 0.3720 -0.9282 0.0024
vn 0.6269 -0.5132 -0.5862
vn 0.4434 0.1802 -0.8780
vn 0.1211 0.8086 -0.5757
vn -0.2708 0.9606 0.0626
vn -0.5053 0.5522 0.6632
vn -0.4400 -0.1850 0.8787
vn -0.1168 -0.8071 0.5787
vn 0.2722 -0.9602 -0.0621
vn 0.5048 -0.5489 -0.6662
vn 0.4146 0.1777 -0.8925
vn 0.2872 0.8248 -0.4871
vn -0.0031 0.9799 0.1994
vn -0.2886 0.5644 0.7734
vn -0.4001 -0.1946 0.8956
vn -0.2750 -0.8265 0.4912
vn 0.0120 -0.9800 -0.1988
vn 0.2991 -0.5650 -0.7690
vn 0.3823 0.1812 -0.9061
vn 0.5096 0.7621 -0.3994
vn 0.3404 0.8787 0.3347
vn -0.0181 0.4787 0.8778
vn -0.3653 -0.2118 0.9065
vn -0.4962 -0.7694 0.4023
vn -0.3317 -0.8814 -0.3363
vn 0.0333 -0.4920 -0.8700
vn 0.3605 0.1906 -0.9131
vn 0.7313 0.5840 -0.3523
vn 0.6682 0.6180 0.4143
vn 0.2253 0.2793 0.9334
vn -0.3476 -0.2243 0.9104
vn -0.7220 -0.5963 0.3510
vn -0.6635 -0.6220 -0.4158
vn -0.2143 -0.3014 -0.9291
vn 0.3631 0.1852 -0.9132
vn 0.8613 0.3685 -0.3499
vn 0.8477 0.3281 0.4169
vn 0.3446 0.0921 0.9342
vn -0.3599 -0.2019 0.9109
vn -0.8568 -0.3808 0.3477
vn -0.8436 -0.3375 -0.4177
vn -0.3416 -0.1058 -0.9339
vn -0.0423 0.9878 0.1496
vn -0.0389 0.9897 0.1380
vn -0.0528 0.9885 0.1418
vn -0.0493 0.9920 0.1163
vn 0.7590 -0.0440 0.6496
vn 0.7674 -0.0716 0.6371
vn 0.7853 -0.0582 0.6164
vn 0.7783 -0.0333 0.6270
vn 0.7622 -0.0464 0.6456
vn 0.7691 -0.0711 0.6351
vn 0.7855 -0.0571 0.6162
vn 0.7770 -0.0297 0.6288
vn 0.5889 -0.3902 -0.7077
vn 0.2227 -0.9253 -0.3070
vn -0.2787 -0.9208 0.2730
vn -0.6116 -0.3732 0.6976
vn -0.5817 0.3897 0.7140
vn -0.2145 0.9247 0.3145
vn 0.2796 0.9213 -0.2704
vn 0.6121 0.3757 -0.6958
vn 0.6823 0.0149 0.7309
vn 0.7332 -0.0027 0.6800
vn 0.6929 -0.1451 0.7062
vn 0.5392 -0.1197 0.8336
vn 0.6515 0.3644 -0.6654
vn 0.2858 0.9167 -0.2793
vn -0.2440 0.9310 0.2716
vn -0.6305 0.4033 0.6632
vn -0.6511 -0.3602 0.6680
vn -0.2890 -0.9148 0.2823
vn 0.2458 -0.9318 -0.2670
vn 0.6358 -0.4019 -0.6590
vn 0.7279 -0.0251 0.6852
vn 0.7708 0.1099 0.6275
vn 0.6457 0.2362 0.7262
vn 0.5023 0.1083 0.8579
vn 0.4141 0.6279 0.6590
vn -0.9826 0.0416 -0.1809
vn -0.9991 0.0006 -0.0430
vn 0.2635 0.0266 0.9643
vn -0.7015 -0.0000 0.7127
vn 0.9990 -0.0002 0.0447
vn -0.4136 -0.6281 -0.6591
vn 0.9826 -0.0416 0.1808
vn -0.2635 -0.0266 -0.9643
vn 0.4169 0.6325 0.6528
vn -0.9990 0.0001 -0.0451
vn 0.7015 -0.0000 -0.7127
vn -0.9989 -0.0010 -0.0462
vn -0.4167 -0.6331 -0.6524
vn 0.4282 0.6325 0.6455
vn 0.9826 -0.0418 0.1811
vn 0.9989 0.0006 0.0461
vn -0.2634 -0.0266 -0.9643
vn -0.9826 0.0418 -0.1811
vn -0.4291 -0.6330 -0.6444
vn 0.9826 -0.0420 0.1812
vn 0.2634 0.0266 0.9643
vn -0.4398 -0.6251 -0.6449
vn -0.9826 0.0420 -0.1812
vn 0.9989 0.0011 0.0463
vn 0.4380 0.6252 0.6460
vn 0.9825 -0.0422 0.1814
vn -0.9989 -0.0007 -0.0463
vn 0.9990 0.0020 0.0450
vn -0.9825 0.0422 -0.1814
vn 0.1454 0.9457 -0.2908
vn 0.2495 0.4466 -0.8592
vn 0.0447 0.9503 -0.3080
vn 0.1096 0.4526 -0.8850
vn -0.0437 0.8921 0.4496
vn -0.0464 0.8916 0.4505
vn -0.2076 0.3139 0.9265
vn -0.1109 0.3096 0.9444
vn -0.2500 -0.4466 0.8591
vn -0.1107 -0.4525 0.8848
vn -0.1465 -0.9456 0.2905
vn -0.0456 -0.9503 0.3079
vn 0.0435 -0.8921 -0.4497
vn 0.0465 -0.8916 -0.4505
vn 0.2079 -0.3140 -0.9264
vn 0.1106 -0.3096 -0.9444
vn -0.2214 0.9505 -0.2182
vn -0.6353 0.4523 -0.6260
vn -0.2217 0.9505 -0.2179
vn -0.6360 0.4523 -0.6252
vn 0.3222 0.8919 0.3175
vn 0.3226 0.8919 0.3171
vn 0.6770 0.3108 0.6672
vn 0.6778 0.3108 0.6663
vn 0.6352 -0.4523 0.6260
vn 0.6361 -0.4523 0.6252
vn 0.2214 -0.9505 0.2182
vn 0.2217 -0.9505 0.2179
vn -0.3222 -0.8919 -0.3175
vn -0.3226 -0.8919 -0.3171
vn -0.6770 -0.3108 -0.6671
vn -0.6778 -0.3108 -0.6663
vn 0.0173 0.9442 -0.3290
vn 0.0543 0.4158 -0.9078
vn 0.0938 0.9464 -0.3091
vn 0.2415 0.4333 -0.8683
vn -0.0332 0.8801 0.4736
vn -0.1448 0.8824 0.4477
vn -0.0630 0.2877 0.9556
vn -0.3132 0.2890 0.9046
vn -0.0566 -0.4268 0.9026
vn -0.2950 -0.4301 0.8533
vn -0.0174 -0.9454 0.3253
vn -0.1003 -0.9463 0.3073
vn 0.0324 -0.8770 -0.4793
vn 0.1315 -0.8825 -0.4515
vn 0.0591 -0.2773 -0.9590
vn 0.2538 -0.2926 -0.9220
vn 0.2842 0.9534 -0.1011
vn 0.8529 0.4615 -0.2439
vn 0.2829 0.9532 -0.1064
vn 0.8519 0.4616 -0.2473
vn -0.4514 0.8866 0.1007
vn -0.4523 0.8865 0.0972
vn -0.9223 0.3004 0.2433
vn -0.9221 0.3002 0.2441
vn -0.8531 -0.4615 0.2435
vn -0.8517 -0.4616 0.2481
vn -0.2842 -0.9534 0.1011
vn -0.2828 -0.9532 0.1066
vn 0.4514 -0.8866 -0.1008
vn 0.4523 -0.8865 -0.0972
vn 0.9221 -0.3004 -0.2438
vn 0.9223 -0.3001 -0.2436
vn 0.0259 0.7326 -0.6802
vn 0.6761 0.3471 -0.6499
vn 0.0301 0.7528 -0.6575
vn 0.6244 0.2767 -0.7305
vn -0.6535 0.6925 -0.3056
vn -0.5850 0.7869 -0.1963
vn -0.9390 0.2377 0.2485
vn -0.8542 0.3588 0.3762
vn -0.6734 -0.3510 0.6506
vn -0.6241 -0.2797 0.7296
vn -0.0258 -0.7325 0.6802
vn -0.0300 -0.7527 0.6577
vn 0.6492 -0.6921 0.3155
vn 0.5828 -0.7868 0.2035
vn 0.9405 -0.2348 -0.2455
vn 0.8549 -0.3581 -0.3754
vn 0.1800 0.4507 -0.8744
vn 0.0951 0.9492 -0.2999
vn -0.0451 0.8918 0.4503
vn -0.1594 0.3119 0.9366
vn -0.1808 -0.4506 0.8742
vn -0.0962 -0.9492 0.2997
vn 0.0451 -0.8917 -0.4503
vn 0.1595 -0.3119 -0.9366
vn -0.6357 0.4523 -0.6256
vn -0.2215 0.9505 -0.2180
vn 0.3224 0.8919 0.3173
vn 0.6774 0.3108 0.6667
vn 0.6356 -0.4523 0.6256
vn 0.2215 -0.9505 0.2180
vn -0.3224 -0.8919 -0.3173
vn -0.6774 -0.3108 -0.6667
vn 0.1630 0.4205 -0.8925
vn 0.0637 0.9442 -0.3232
vn -0.1021 0.8790 0.4657
vn -0.2139 0.2856 0.9342
vn -0.1998 -0.4236 0.8835
vn -0.0677 -0.9450 0.3199
vn 0.0933 -0.8774 -0.4706
vn 0.1713 -0.2819 -0.9440
vn 0.8524 0.4617 -0.2456
vn 0.2833 0.9534 -0.1037
vn -0.4518 0.8866 0.0989
vn -0.9221 0.3005 0.2437
vn -0.8523 -0.4617 0.2458
vn -0.2833 -0.9534 0.1038
vn 0.4518 -0.8866 -0.0990
vn 0.9221 -0.3005 -0.2437
vn 0.6534 0.3148 -0.6885
vn 0.0317 0.7488 -0.6620
vn -0.6172 0.7481 -0.2438
vn -0.8992 0.3022 0.3164
vn -0.6521 -0.3191 0.6877
vn -0.0316 -0.7487 0.6621
vn 0.6146 -0.7467 0.2543
vn 0.9010 -0.2997 -0.3137
vn -0.9826 0.0414 -0.1811
vn -0.4164 -0.6218 -0.6633
vn 0.9991 -0.0005 0.0429
vn -0.9991 -0.0000 -0.0413
vn 0.9826 -0.0414 0.1810
vn 0.4166 0.6223 0.6627
vn -0.2636 -0.0267 -0.9643
vn -0.9826 0.0416 -0.1813
vn -0.4286 -0.6143 -0.6625
vn 0.9992 -0.0001 0.0412
vn 0.2636 0.0267 0.9643
vn -0.9991 -0.0023 -0.0415
vn 0.9826 -0.0416 0.1813
vn 0.4278 0.6154 0.6620
vn -0.2635 -0.0267 -0.9643
vn -0.9825 0.0418 -0.1813
vn -0.4391 -0.6153 -0.6547
vn 0.9991 0.0024 0.0413
vn 0.2635 0.0267 0.9643
vn -0.9991 -0.0025 -0.0434
vn 0.9825 -0.0418 0.1813
vn 0.4374 0.6163 0.6548
vn -0.9825 0.0420 -0.1815
vn -0.4413 -0.6192 -0.6495
vn 0.9991 0.0025 0.0432
vn 0.4394 0.6198 0.6502
vn -0.9990 -0.0018 -0.0454
vn 0.9825 -0.0420 0.1815
vn -0.3757 0.0413 -0.9258
vn -0.9011 -0.1708 -0.3985
vn -0.8999 -0.2819 0.3326
vn -0.3745 -0.2196 0.9008
vn 0.3431 -0.0299 0.9388
vn 0.9085 0.1097 0.4031
vn 0.9083 0.2122 -0.3604
vn 0.3450 0.2171 -0.9132
vn -0.0189 0.9916 0.1281
vn -0.0161 0.9931 0.1163
vn -0.0079 0.9860 0.1666
vn -0.0257 0.9865 0.1620
vn -0.0312 0.9876 0.1539
vn -0.0560 0.9866 0.1530
vn -0.0392 0.9930 0.1118
vn 0.0031 0.9905 0.1373
vn -0.3713 0.1257 -0.9200
vn -0.9317 0.0647 -0.3574
vn -0.9387 -0.0543 0.3405
vn -0.3985 -0.1461 0.9055
vn 0.2917 -0.0778 0.9533
vn 0.9192 -0.0172 0.3935
vn 0.9188 0.0746 -0.3875
vn 0.3255 0.1672 -0.9306
vn 0.2967 0.1743 -0.9389
vn 0.9116 0.0722 -0.4047
vn 0.9204 -0.0224 0.3902
vn 0.2633 -0.0713 0.9621
vn -0.3987 -0.1470 0.9052
vn -0.9389 -0.0532 0.3401
vn -0.9379 0.0667 -0.3405
vn -0.3761 0.1192 -0.9189
vn -0.0153 0.9867 0.1616
vn -0.0171 0.9871 0.1592
vn -0.0112 0.9842 0.1766
vn -0.0057 0.9903 0.1389
vt 0.092981 0.992602
vt 0.092981 0.964394
vt 0.110525 0.964394
vt 0.110525 0.992602
vt 0.075258 0.992602
vt 0.075258 0.964394
vt 0.057512 0.992602
vt 0.057512 0.964394
vt 0.039995 0.992602
vt 0.039995 0.964394
vt 0.022371 0.992602
vt 0.022371 0.964394
vt 0.004824 0.992602
vt 0.004824 0.964394
vt 0.128156 0.992602
vt 0.128156 0.964394
vt 0.145714 0.964394
vt 0.145714 0.992602
vt 0.092981 0.908310
vt 0.110525 0.908310
vt 0.075258 0.908310
vt 0.057512 0.908310
vt 0.039995 0.908310
vt 0.022371 0.908310
vt 0.004824 0.908310
vt 0.128156 0.908310
vt 0.145714 0.908310
vt 0.092981 0.849610
vt 0.110525 0.849610
vt 0.075258 0.849610
vt 0.057512 0.849610
vt 0.039995 0.849610
vt 0.022371 0.849610
vt 0.004824 0.849610
vt 0.128156 0.849610
vt 0.145714 0.849610
vt 0.092981 0.791982
vt 0.110525 0.791982
vt 0.075258 0.791982
vt 0.057512 0.791982
vt 0.039995 0.791982
vt 0.022371 0.791982
vt 0.004824 0.791982
vt 0.128156 0.791982
vt 0.145714 0.791982
vt 0.092981 0.736676
vt 0.110525 0.736676
vt 0.075258 0.736676
vt 0.057512 0.736676
vt 0.039995 0.736676
vt 0.022371 0.736676
vt 0.004824 0.736676
vt 0.128156 0.736676
vt 0.145714 0.736676
vt 0.674590 0.512886
vt 0.674590 0.565558
vt 0.657674 0.565558
vt 0.657674 0.512886
vt 0.691677 0.512886
vt 0.691677 0.565558
vt 0.708787 0.512886
vt 0.708787 0.565558
vt 0.725677 0.512886
vt 0.725677 0.565558
vt 0.742670 0.512886
vt 0.742670 0.565558
vt 0.759589 0.512886
vt 0.759589 0.565558
vt 0.640675 0.512886
vt 0.640675 0.565558
vt 0.623746 0.565558
vt 0.623746 0.512886
vt 0.674590 0.617789
vt 0.657674 0.617789
vt 0.691677 0.617789
vt 0.708787 0.617789
vt 0.725677 0.617789
vt 0.742670 0.617789
vt 0.759589 0.617789
vt 0.640675 0.617789
vt 0.623746 0.617789
vt 0.674590 0.671090
vt 0.657674 0.671090
vt 0.691677 0.671090
vt 0.708787 0.671090
vt 0.725677 0.671090
vt 0.742670 0.671090
vt 0.759589 0.671090
vt 0.640675 0.671090
vt 0.623746 0.671090
vt 0.674590 0.727261
vt 0.657674 0.727261
vt 0.691677 0.727261
vt 0.708787 0.727261
vt 0.725677 0.727261
vt 0.742670 0.727261
vt 0.759589 0.727261
vt 0.640675 0.727261
vt 0.623746 0.727261
vt 0.674590 0.781347
vt 0.657674 0.781347
vt 0.691677 0.781347
vt 0.708787 0.781347
vt 0.725677 0.781347
vt 0.742670 0.781347
vt 0.759589 0.781347
vt 0.640675 0.781347
vt 0.623746 0.781347
vt 0.674590 0.836645
vt 0.657674 0.836645
vt 0.691677 0.836645
vt 0.708787 0.836645
vt 0.725677 0.836645
vt 0.742670 0.836645
vt 0.759589 0.836645
vt 0.640675 0.836645
vt 0.623746 0.836645
vt 0.563704 0.401954
vt 0.563704 0.345802
vt 0.580471 0.345802
vt 0.580471 0.401954
vt 0.546768 0.401954
vt 0.546768 0.345802
vt 0.529809 0.401954
vt 0.529809 0.345802
vt 0.513069 0.401954
vt 0.513069 0.345802
vt 0.496226 0.401954
vt 0.496226 0.345802
vt 0.479457 0.401954
vt 0.479457 0.345802
vt 0.597320 0.401954
vt 0.597320 0.345802
vt 0.614099 0.345802
vt 0.614099 0.401954
vt 0.563704 0.288962
vt 0.580471 0.288962
vt 0.546768 0.288962
vt 0.529809 0.288962
vt 0.513069 0.288962
vt 0.496226 0.288962
vt 0.479457 0.288962
vt 0.597320 0.288962
vt 0.614099 0.288962
vt 0.563704 0.226518
vt 0.580471 0.226518
vt 0.546768 0.226518
vt 0.529809 0.226518
vt 0.513069 0.226518
vt 0.496226 0.226518
vt 0.479457 0.226518
vt 0.597320 0.226518
vt 0.614099 0.226518
vt 0.563704 0.164999
vt 0.580471 0.164999
vt 0.546768 0.164999
vt 0.529809 0.164999
vt 0.513069 0.164999
vt 0.496227 0.164999
vt 0.479457 0.164999
vt 0.597320 0.164999
vt 0.614099 0.164999
vt 0.563704 0.108506
vt 0.580471 0.108506
vt 0.546768 0.108506
vt 0.529809 0.108506
vt 0.513069 0.108506
vt 0.496226 0.108506
vt 0.479457 0.108506
vt 0.597320 0.108506
vt 0.614099 0.108506
vt 0.563704 0.051719
vt 0.580471 0.051719
vt 0.546768 0.051719
vt 0.529809 0.051719
vt 0.513069 0.051719
vt 0.496226 0.051719
vt 0.479457 0.051719
vt 0.597320 0.051719
vt 0.614099 0.051719
vt 0.864326 0.342645
vt 0.864326 0.298339
vt 0.882633 0.298339
vt 0.882633 0.342645
vt 0.845833 0.342645
vt 0.845833 0.298339
vt 0.827316 0.342645
vt 0.827316 0.298339
vt 0.809037 0.342645
vt 0.809037 0.298339
vt 0.790647 0.342645
vt 0.790647 0.298339
vt 0.772337 0.342645
vt 0.772337 0.298339
vt 0.901030 0.342645
vt 0.901030 0.298339
vt 0.919351 0.298339
vt 0.919351 0.342645
vt 0.864326 0.257762
vt 0.882633 0.257762
vt 0.845833 0.257762
vt 0.827316 0.257762
vt 0.809037 0.257762
vt 0.790647 0.257762
vt 0.772337 0.257762
vt 0.901030 0.257762
vt 0.919351 0.257762
vt 0.864326 0.221521
vt 0.882633 0.221521
vt 0.845833 0.221521
vt 0.827316 0.221521
vt 0.809037 0.221521
vt 0.790647 0.221521
vt 0.772337 0.221521
vt 0.901030 0.221521
vt 0.919351 0.221521
vt 0.864326 0.177493
vt 0.882633 0.177493
vt 0.845833 0.177493
vt 0.827316 0.177493
vt 0.809037 0.177493
vt 0.790647 0.177493
vt 0.772337 0.177493
vt 0.901030 0.177493
vt 0.919351 0.177493
vt 0.864326 0.121784
vt 0.882633 0.121784
vt 0.845833 0.121784
vt 0.827316 0.121784
vt 0.809037 0.121784
vt 0.790647 0.121784
vt 0.772337 0.121784
vt 0.901030 0.121784
vt 0.919351 0.121784
vt 0.864326 0.066081
vt 0.882633 0.066081
vt 0.845833 0.066081
vt 0.827316 0.066081
vt 0.809037 0.066081
vt 0.790647 0.066081
vt 0.772337 0.066081
vt 0.901030 0.066081
vt 0.919351 0.066081
vt 0.710685 0.388056
vt 0.710685 0.330300
vt 0.727988 0.330300
vt 0.727988 0.388056
vt 0.693208 0.388056
vt 0.693208 0.330300
vt 0.675707 0.388056
vt 0.675707 0.330300
vt 0.658432 0.388056
vt 0.658432 0.330300
vt 0.641051 0.388056
vt 0.641051 0.330300
vt 0.623746 0.388056
vt 0.623746 0.330300
vt 0.745375 0.388056
vt 0.745375 0.330300
vt 0.762690 0.330300
vt 0.762690 0.388056
vt 0.710685 0.272748
vt 0.727988 0.272748
vt 0.693208 0.272748
vt 0.675707 0.272748
vt 0.658432 0.272748
vt 0.641051 0.272748
vt 0.623746 0.272748
vt 0.745375 0.272748
vt 0.762690 0.272748
vt 0.710685 0.219142
vt 0.727988 0.219142
vt 0.693208 0.219142
vt 0.675707 0.219142
vt 0.658432 0.219142
vt 0.641051 0.219142
vt 0.623746 0.219142
vt 0.745375 0.219142
vt 0.762690 0.219142
vt 0.710685 0.167273
vt 0.727988 0.167273
vt 0.693208 0.167273
vt 0.675707 0.167273
vt 0.658432 0.167273
vt 0.641051 0.167273
vt 0.623746 0.167273
vt 0.745375 0.167273
vt 0.762690 0.167273
vt 0.710685 0.113892
vt 0.727988 0.113892
vt 0.693208 0.113892
vt 0.675707 0.113892
vt 0.658432 0.113892
vt 0.641051 0.113892
vt 0.623746 0.113892
vt 0.745375 0.113892
vt 0.762690 0.113892
vt 0.710685 0.055815
vt 0.727988 0.055815
vt 0.693208 0.055815
vt 0.675707 0.055815
vt 0.658432 0.055815
vt 0.641051 0.055815
vt 0.623746 0.055815
vt 0.745375 0.055815
vt 0.762690 0.055815
vt 0.361299 0.586737
vt 0.361299 0.634830
vt 0.344026 0.634830
vt 0.344026 0.586737
vt 0.378746 0.586737
vt 0.378746 0.634830
vt 0.396217 0.586737
vt 0.396217 0.634830
vt 0.413462 0.586737
vt 0.413462 0.634830
vt 0.430812 0.586737
vt 0.430812 0.634830
vt 0.448088 0.586737
vt 0.448088 0.634830
vt 0.326669 0.586737
vt 0.326669 0.634830
vt 0.309384 0.634830
vt 0.309384 0.586737
vt 0.361299 0.680221
vt 0.344026 0.680221
vt 0.378746 0.680221
vt 0.396217 0.680221
vt 0.413462 0.680221
vt 0.430812 0.680221
vt 0.448088 0.680221
vt 0.326669 0.680221
vt 0.309384 0.680221
vt 0.361299 0.721128
vt 0.344026 0.721128
vt 0.378746 0.721128
vt 0.396217 0.721128
vt 0.413462 0.721128
vt 0.430812 0.721128
vt 0.448088 0.721128
vt 0.326669 0.721128
vt 0.309384 0.721128
vt 0.361299 0.760373
vt 0.344026 0.760373
vt 0.378746 0.760373
vt 0.396217 0.760373
vt 0.413462 0.760373
vt 0.430812 0.760373
vt 0.448088 0.760373
vt 0.326669 0.760373
vt 0.309384 0.760373
vt 0.361299 0.796933
vt 0.344026 0.796933
vt 0.378746 0.796933
vt 0.396217 0.796933
vt 0.413462 0.796933
vt 0.430812 0.796932
vt 0.448088 0.796932
vt 0.326669 0.796933
vt 0.309384 0.796933
vt 0.361299 0.840631
vt 0.344026 0.840631
vt 0.378746 0.840631
vt 0.396217 0.840631
vt 0.413462 0.840631
vt 0.430812 0.840631
vt 0.448088 0.840631
vt 0.326669 0.840631
vt 0.309384 0.840631
vt 0.361299 0.872726
vt 0.344026 0.872726
vt 0.378746 0.872726
vt 0.396217 0.872726
vt 0.413462 0.872726
vt 0.430812 0.872726
vt 0.448088 0.872726
vt 0.326669 0.872726
vt 0.309384 0.872726
vt 0.187976 0.874461
vt 0.173554 0.873599
vt 0.172696 0.871427
vt 0.188923 0.872327
vt 0.161697 0.885077
vt 0.159549 0.884163
vt 0.161691 0.902119
vt 0.159549 0.903048
vt 0.172695 0.911724
vt 0.171903 0.913921
vt 0.820728 0.432221
vt 0.820714 0.415073
vt 0.827775 0.412161
vt 0.827784 0.435216
vt 0.808644 0.444306
vt 0.811491 0.451423
vt 0.791531 0.444263
vt 0.788509 0.451310
vt 0.779433 0.432080
vt 0.772337 0.434982
vt 0.779437 0.414896
vt 0.772337 0.412002
vt 0.791538 0.402777
vt 0.788529 0.395723
vt 0.808635 0.402859
vt 0.811499 0.395768
vt 0.165605 0.788483
vt 0.179172 0.788187
vt 0.179281 0.811242
vt 0.165919 0.811523
vt 0.180168 0.834324
vt 0.166377 0.834554
vt 0.165349 0.650345
vt 0.179144 0.650390
vt 0.179985 0.673344
vt 0.165381 0.673356
vt 0.180658 0.696293
vt 0.165340 0.696375
vt 0.180802 0.719270
vt 0.165281 0.719418
vt 0.180373 0.742244
vt 0.165281 0.742454
vt 0.179670 0.765213
vt 0.165386 0.765465
vt 0.237731 0.903617
vt 0.260745 0.903851
vt 0.265591 0.913921
vt 0.233587 0.913921
vt 0.277231 0.887734
vt 0.288256 0.891252
vt 0.277289 0.864715
vt 0.288273 0.859140
vt 0.261117 0.848520
vt 0.265537 0.836396
vt 0.510034 0.623207
vt 0.524294 0.623293
vt 0.524421 0.655239
vt 0.510874 0.655239
vt 0.509244 0.591287
vt 0.524309 0.591349
vt 0.508952 0.559481
vt 0.524445 0.559396
vt 0.509339 0.527688
vt 0.524630 0.527444
vt 0.510219 0.495785
vt 0.524798 0.495512
vt 0.511145 0.463745
vt 0.524918 0.463590
vt 0.511307 0.687331
vt 0.524651 0.687187
vt 0.524918 0.719127
vt 0.511148 0.719438
vt 0.221638 0.887190
vt 0.211005 0.891281
vt 0.221990 0.864244
vt 0.210913 0.859273
vt 0.238371 0.848264
vt 0.233476 0.836452
vt 0.934839 0.040464
vt 0.946940 0.052682
vt 0.944488 0.058445
vt 0.928998 0.042805
vt 0.946965 0.263252
vt 0.934811 0.275408
vt 0.928998 0.273000
vt 0.944558 0.257439
vt 0.946293 0.073942
vt 0.934639 0.085607
vt 0.928998 0.083040
vt 0.943914 0.068108
vt 0.545225 0.978448
vt 0.562414 0.978448
vt 0.564822 0.984261
vt 0.542817 0.984261
vt 0.934811 0.355374
vt 0.946966 0.367530
vt 0.944558 0.373343
vt 0.928998 0.357782
vt 0.946404 0.179177
vt 0.962709 0.178571
vt 0.964976 0.184260
vt 0.944031 0.185012
vt 0.937218 0.444022
vt 0.949321 0.431805
vt 0.955162 0.434146
vt 0.939669 0.449783
vt 0.964157 0.200472
vt 0.946967 0.200473
vt 0.944559 0.194659
vt 0.966565 0.194659
vt 0.934811 0.338184
vt 0.928998 0.335776
vt 0.977209 0.509055
vt 0.989363 0.496899
vt 0.995176 0.499307
vt 0.979617 0.514868
vt 0.964102 0.052693
vt 0.966459 0.058461
vt 0.962428 0.074626
vt 0.964730 0.068935
vt 0.574568 0.966293
vt 0.580381 0.968700
vt 0.470295 0.949102
vt 0.470295 0.966293
vt 0.464482 0.968701
vt 0.464482 0.946694
vt 0.973609 0.087253
vt 0.979116 0.085077
vt 0.920059 0.444021
vt 0.917703 0.449783
vt 0.960019 0.509055
vt 0.957611 0.514868
vt 0.976232 0.040395
vt 0.981989 0.042722
vt 0.934811 0.212630
vt 0.928998 0.210222
vt 0.974038 0.166001
vt 0.979528 0.168182
vt 0.947864 0.496899
vt 0.942051 0.499307
vt 0.964154 0.263252
vt 0.966562 0.257439
vt 0.907939 0.431695
vt 0.902186 0.434011
vt 0.934811 0.229822
vt 0.928998 0.232231
vt 0.482450 0.978448
vt 0.480042 0.984261
vt 0.574568 0.949102
vt 0.580381 0.946694
vt 0.907954 0.414274
vt 0.902202 0.411718
vt 0.946966 0.326028
vt 0.944558 0.320215
vt 0.976308 0.275408
vt 0.982121 0.272999
vt 0.499641 0.978448
vt 0.502049 0.984261
vt 0.974154 0.148952
vt 0.979624 0.146338
vt 0.976229 0.022999
vt 0.981989 0.020462
vt 0.946966 0.241979
vt 0.944558 0.247792
vt 0.973810 0.104268
vt 0.979284 0.106885
vt 0.964157 0.326028
vt 0.966564 0.320215
vt 0.962603 0.137293
vt 0.964797 0.131403
vt 0.562413 0.936947
vt 0.564821 0.931134
vt 0.976307 0.292599
vt 0.982121 0.295007
vt 0.511796 0.966293
vt 0.517609 0.968701
vt 0.947863 0.479709
vt 0.942050 0.477301
vt 0.075258 0.683529
vt 0.092981 0.683529
vt 0.110525 0.683529
vt 0.691677 0.461740
vt 0.674590 0.461740
vt 0.657674 0.461740
vt 0.057512 0.683529
vt 0.708787 0.461740
vt 0.039995 0.683529
vt 0.725677 0.461740
vt 0.022371 0.683529
vt 0.742670 0.461740
vt 0.004824 0.683529
vt 0.759589 0.461740
vt 0.128156 0.683529
vt 0.145714 0.683529
vt 0.640675 0.461740
vt 0.623746 0.461740
vt 0.691677 0.888333
vt 0.674590 0.888333
vt 0.657674 0.888333
vt 0.546768 0.453943
vt 0.563704 0.453943
vt 0.580471 0.453943
vt 0.708787 0.888333
vt 0.529809 0.453943
vt 0.725677 0.888333
vt 0.513069 0.453943
vt 0.742670 0.888333
vt 0.496226 0.453943
vt 0.759589 0.888333
vt 0.479457 0.453943
vt 0.640675 0.888333
vt 0.623746 0.888333
vt 0.597320 0.453943
vt 0.614099 0.453943
vt 0.546768 0.004824
vt 0.563704 0.004824
vt 0.580471 0.004824
vt 0.845833 0.386076
vt 0.864326 0.386076
vt 0.882633 0.386076
vt 0.529809 0.004824
vt 0.827316 0.386076
vt 0.513069 0.004824
vt 0.809037 0.386076
vt 0.496226 0.004824
vt 0.790647 0.386076
vt 0.479457 0.004824
vt 0.772337 0.386076
vt 0.597320 0.004824
vt 0.614099 0.004824
vt 0.901030 0.386076
vt 0.919351 0.386076
vt 0.845833 0.004824
vt 0.864326 0.004824
vt 0.882633 0.004824
vt 0.693208 0.452093
vt 0.710685 0.452093
vt 0.727988 0.452093
vt 0.827316 0.004824
vt 0.675707 0.452093
vt 0.809037 0.004824
vt 0.658432 0.452093
vt 0.790647 0.004824
vt 0.641051 0.452093
vt 0.772337 0.004824
vt 0.623746 0.452093
vt 0.901030 0.004824
vt 0.919351 0.004824
vt 0.745375 0.452093
vt 0.762690 0.452093
vt 0.693208 0.004824
vt 0.710685 0.004824
vt 0.727988 0.004824
vt 0.378746 0.541919
vt 0.361299 0.541919
vt 0.344026 0.541919
vt 0.675707 0.004824
vt 0.396216 0.541919
vt 0.658432 0.004824
vt 0.413462 0.541919
vt 0.641051 0.004824
vt 0.430812 0.541919
vt 0.623746 0.004824
vt 0.448088 0.541919
vt 0.745375 0.004824
vt 0.762690 0.004824
vt 0.326669 0.541919
vt 0.309384 0.541919
vt 0.239724 0.760379
vt 0.239716 0.782385
vt 0.231430 0.782387
vt 0.231438 0.760381
vt 0.231439 0.738374
vt 0.239726 0.738373
vt 0.231435 0.716369
vt 0.239721 0.716365
vt 0.231429 0.694365
vt 0.239716 0.694357
vt 0.231420 0.672359
vt 0.239707 0.672351
vt 0.231404 0.650352
vt 0.239691 0.650345
vt 0.231404 0.826396
vt 0.231418 0.804391
vt 0.239705 0.804393
vt 0.239691 0.826402
vt 0.299736 0.760376
vt 0.299736 0.782382
vt 0.291439 0.782382
vt 0.291439 0.760376
vt 0.291439 0.738370
vt 0.299737 0.738370
vt 0.291439 0.716364
vt 0.299736 0.716364
vt 0.291439 0.694358
vt 0.299736 0.694357
vt 0.291439 0.672351
vt 0.299736 0.672351
vt 0.291438 0.650345
vt 0.299735 0.650345
vt 0.291438 0.826394
vt 0.291439 0.804388
vt 0.299736 0.804388
vt 0.299735 0.826395
vt 0.579438 0.737193
vt 0.580641 0.715541
vt 0.588985 0.715553
vt 0.587809 0.737143
vt 0.585087 0.757797
vt 0.576689 0.757970
vt 0.582527 0.778747
vt 0.574103 0.779047
vt 0.582188 0.800604
vt 0.573759 0.800918
vt 0.584680 0.822160
vt 0.576265 0.822505
vt 0.588985 0.842742
vt 0.580603 0.843211
vt 0.585773 0.672983
vt 0.588246 0.693756
vt 0.579881 0.693711
vt 0.577380 0.672815
vt 0.273494 0.716363
vt 0.273493 0.694357
vt 0.281790 0.694357
vt 0.281791 0.716363
vt 0.281791 0.738368
vt 0.273494 0.738369
vt 0.281790 0.760374
vt 0.273493 0.760374
vt 0.281790 0.782380
vt 0.273493 0.782379
vt 0.281789 0.804386
vt 0.273492 0.804385
vt 0.281787 0.826391
vt 0.273489 0.826391
vt 0.281787 0.650345
vt 0.281788 0.672351
vt 0.273491 0.672351
vt 0.273489 0.650347
vt 0.213561 0.716502
vt 0.212722 0.694258
vt 0.220712 0.694204
vt 0.221533 0.716481
vt 0.221757 0.738605
vt 0.213804 0.738611
vt 0.221227 0.760565
vt 0.213282 0.760576
vt 0.220134 0.782549
vt 0.212188 0.782561
vt 0.219114 0.804625
vt 0.211162 0.804622
vt 0.218884 0.826749
vt 0.210913 0.826731
vt 0.218884 0.650345
vt 0.219651 0.672219
vt 0.211661 0.672273
vt 0.210913 0.650385
vt 0.989363 0.479709
vt 0.995176 0.477301
vt 0.482450 0.936947
vt 0.480042 0.931134
vt 0.934811 0.292599
vt 0.928998 0.295007
vt 0.949271 0.414541
vt 0.955098 0.412047
vt 0.934660 0.167459
vt 0.928998 0.170015
vt 0.964156 0.367530
vt 0.966564 0.373343
vt 0.533070 0.966293
vt 0.527257 0.968701
vt 0.934685 0.102669
vt 0.928998 0.104899
vt 0.976312 0.212628
vt 0.982125 0.210220
vt 0.934895 0.023211
vt 0.929070 0.020720
vt 0.977207 0.467553
vt 0.979615 0.461740
vt 0.499641 0.936947
vt 0.502049 0.931134
vt 0.946964 0.304755
vt 0.944556 0.310568
vt 0.937151 0.402216
vt 0.939581 0.396274
vt 0.934707 0.150389
vt 0.928998 0.148141
vt 0.976312 0.355374
vt 0.982125 0.357782
vt 0.533070 0.949102
vt 0.527256 0.946695
vt 0.946040 0.115243
vt 0.943557 0.120989
vt 0.976312 0.229821
vt 0.982125 0.232228
vt 0.947025 0.010913
vt 0.944600 0.004982
vt 0.960018 0.467553
vt 0.957610 0.461740
vt 0.511796 0.949102
vt 0.517609 0.946695
vt 0.964153 0.304755
vt 0.966560 0.310568
vt 0.920057 0.402057
vt 0.917695 0.396083
vt 0.946158 0.137856
vt 0.943653 0.132095
vt 0.976312 0.338184
vt 0.982125 0.335776
vt 0.545224 0.936947
vt 0.542816 0.931134
vt 0.962406 0.115858
vt 0.964571 0.121756
vt 0.964156 0.241978
vt 0.966563 0.247791
vt 0.964129 0.010782
vt 0.966500 0.004824
vt 0.344026 0.883166
vt 0.326669 0.883166
vt 0.309384 0.883166
vt 0.448088 0.883166
vt 0.430812 0.883166
vt 0.413462 0.883166
vt 0.396216 0.883166
vt 0.378746 0.883166
vt 0.361299 0.883166
vt 0.188368 0.911673
vt 0.189272 0.913825
vt 0.198716 0.900728
vt 0.200872 0.901626
vt 0.199114 0.885572
vt 0.201266 0.884666
vt 0.958259 0.587351
vt 0.944471 0.600354
vt 0.942050 0.599297
vt 0.957343 0.584873
vt 0.944458 0.620068
vt 0.942050 0.621153
vt 0.956934 0.630164
vt 0.956102 0.632671
vt 0.974579 0.630018
vt 0.975635 0.632439
vt 0.558652 0.712239
vt 0.553827 0.711820
vt 0.554345 0.694186
vt 0.559025 0.694791
vt 0.554853 0.677477
vt 0.559781 0.677845
vt 0.559781 0.816290
vt 0.554846 0.816531
vt 0.553844 0.799917
vt 0.559118 0.799467
vt 0.552528 0.782319
vt 0.558302 0.782117
vt 0.551777 0.766281
vt 0.557739 0.765669
vt 0.552412 0.746574
vt 0.558025 0.746787
vt 0.552962 0.727632
vt 0.558243 0.728485
vt 0.606914 0.769101
vt 0.612190 0.770064
vt 0.610764 0.787383
vt 0.605940 0.786936
vt 0.607518 0.748092
vt 0.613131 0.748273
vt 0.608075 0.726241
vt 0.614029 0.725475
vt 0.607228 0.708089
vt 0.612999 0.707932
vt 0.605809 0.688605
vt 0.611084 0.688170
vt 0.604578 0.670024
vt 0.609519 0.669835
vt 0.605293 0.806474
vt 0.609960 0.807239
vt 0.609501 0.825661
vt 0.604578 0.825206
vt 0.974040 0.588712
vt 0.975150 0.586315
vt 0.986565 0.601138
vt 0.989000 0.600114
vt 0.985925 0.617841
vt 0.988366 0.618849
s 0
f 329/1/1 1/2/1 8/3/1 330/4/1
f 331/5/2 2/6/2 1/2/2 329/1/2
f 332/7/3 3/8/3 2/6/3 331/5/3
f 333/9/4 4/10/4 3/8/4 332/7/4
f 334/11/5 5/12/5 4/10/5 333/9/5
f 335/13/6 6/14/6 5/12/6 334/11/6
f 336/15/7 7/16/7 6/17/7 335/18/7
f 330/4/8 8/3/8 7/16/8 336/15/8
f 1/2/9 9/19/9 16/20/9 8/3/9
f 2/6/10 10/21/10 9/19/10 1/2/10
f 3/8/11 11/22/11 10/21/11 2/6/11
f 4/10/12 12/23/12 11/22/12 3/8/12
f 5/12/13 13/24/13 12/23/13 4/10/13
f 6/14/14 14/25/14 13/24/14 5/12/14
f 7/16/15 15/26/15 14/27/15 6/17/15
f 8/3/16 16/20/16 15/26/16 7/16/16
f 9/19/17 17/28/17 24/29/17 16/20/17
f 10/21/18 18/30/18 17/28/18 9/19/18
f 11/22/19 19/31/19 18/30/19 10/21/19
f 12/23/20 20/32/20 19/31/20 11/22/20
f 13/24/21 21/33/21 20/32/21 12/23/21
f 14/25/22 22/34/22 21/33/22 13/24/22
f 15/26/23 23/35/23 22/36/23 14/27/23
f 16/20/24 24/29/24 23/35/24 15/26/24
f 17/28/25 25/37/25 32/38/25 24/29/25
f 18/30/26 26/39/26 25/37/26 17/28/26
f 19/31/27 27/40/27 26/39/27 18/30/27
f 20/32/28 28/41/28 27/40/28 19/31/28
f 21/33/29 29/42/29 28/41/29 20/32/29
f 22/34/30 30/43/30 29/42/30 21/33/30
f 23/35/31 31/44/31 30/45/31 22/36/31
f 24/29/32 32/38/32 31/44/32 23/35/32
f 25/37/33 33/46/33 40/47/33 32/38/33
f 26/39/34 34/48/34 33/46/34 25/37/34
f 27/40/35 35/49/35 34/48/35 26/39/35
f 28/41/36 36/50/36 35/49/36 27/40/36
f 29/42/37 37/51/37 36/50/37 28/41/37
f 30/43/38 38/52/38 37/51/38 29/42/38
f 31/44/39 39/53/39 38/54/39 30/45/39
f 32/38/40 40/47/40 39/53/40 31/44/40
f 41/55/41 49/56/41 56/57/41 48/58/41
f 42/59/42 50/60/42 49/56/42 41/55/42
f 43/61/43 51/62/43 50/60/43 42/59/43
f 44/63/44 52/64/44 51/62/44 43/61/44
f 45/65/45 53/66/45 52/64/45 44/63/45
f 46/67/46 54/68/46 53/66/46 45/65/46
f 47/69/47 55/70/47 54/71/47 46/72/47
f 48/58/48 56/57/48 55/70/48 47/69/48
f 49/56/49 57/73/49 64/74/49 56/57/49
f 50/60/50 58/75/50 57/73/50 49/56/50
f 51/62/51 59/76/51 58/75/51 50/60/51
f 52/64/52 60/77/52 59/76/52 51/62/52
f 53/66/53 61/78/53 60/77/53 52/64/53
f 54/68/54 62/79/54 61/78/54 53/66/54
f 55/70/55 63/80/55 62/81/55 54/71/55
f 56/57/56 64/74/56 63/80/56 55/70/56
f 57/73/57 65/82/57 72/83/57 64/74/57
f 58/75/58 66/84/58 65/82/58 57/73/58
f 59/76/59 67/85/59 66/84/59 58/75/59
f 60/77/60 68/86/60 67/85/60 59/76/60
f 61/78/61 69/87/61 68/86/61 60/77/61
f 62/79/62 70/88/62 69/87/62 61/78/62
f 63/80/63 71/89/63 70/90/63 62/81/63
f 64/74/64 72/83/64 71/89/64 63/80/64
f 65/82/65 73/91/65 80/92/65 72/83/65
f 66/84/66 74/93/66 73/91/66 65/82/66
f 67/85/67 75/94/67 74/93/67 66/84/67
f 68/86/68 76/95/68 75/94/68 67/85/68
f 69/87/69 77/96/69 76/95/69 68/86/69
f 70/88/70 78/97/70 77/96/70 69/87/70
f 71/89/71 79/98/71 78/99/71 70/90/71
f 72/83/72 80/92/72 79/98/72 71/89/72
f 73/91/73 81/100/73 88/101/73 80/92/73
f 74/93/74 82/102/74 81/100/74 73/91/74
f 75/94/75 83/103/75 82/102/75 74/93/75
f 76/95/76 84/104/76 83/103/76 75/94/76
f 77/96/77 85/105/77 84/104/77 76/95/77
f 78/97/78 86/106/78 85/105/78 77/96/78
f 79/98/79 87/107/79 86/108/79 78/99/79
f 80/92/80 88/101/80 87/107/80 79/98/80
f 81/100/81 89/109/81 96/110/81 88/101/81
f 82/102/82 90/111/82 89/109/82 81/100/82
f 83/103/83 91/112/83 90/111/83 82/102/83
f 84/104/84 92/113/84 91/112/84 83/103/84
f 85/105/85 93/114/85 92/113/85 84/104/85
f 86/106/86 94/115/86 93/114/86 85/105/86
f 87/107/87 95/116/87 94/117/87 86/108/87
f 88/101/88 96/110/88 95/116/88 87/107/88
f 97/118/89 105/119/89 112/120/89 104/121/89
f 98/122/90 106/123/90 105/119/90 97/118/90
f 99/124/91 107/125/91 106/123/91 98/122/91
f 100/126/92 108/127/92 107/125/92 99/124/92
f 101/128/93 109/129/93 108/127/93 100/126/93
f 102/130/94 110/131/94 109/129/94 101/128/94
f 103/132/95 111/133/95 110/134/95 102/135/95
f 104/121/96 112/120/96 111/133/96 103/132/96
f 105/119/97 113/136/97 120/137/97 112/120/97
f 106/123/98 114/138/98 113/136/98 105/119/98
f 107/125/99 115/139/99 114/138/99 106/123/99
f 108/127/100 116/140/100 115/139/100 107/125/100
f 109/129/101 117/141/101 116/140/101 108/127/101
f 110/131/102 118/142/102 117/141/102 109/129/102
f 111/133/103 119/143/103 118/144/103 110/134/103
f 112/120/104 120/137/104 119/143/104 111/133/104
f 113/136/105 121/145/105 128/146/105 120/137/105
f 114/138/106 122/147/106 121/145/106 113/136/106
f 115/139/107 123/148/107 122/147/107 114/138/107
f 116/140/108 124/149/108 123/148/108 115/139/108
f 117/141/109 125/150/109 124/149/109 116/140/109
f 118/142/110 126/151/110 125/150/110 117/141/110
f 119/143/111 127/152/111 126/153/111 118/144/111
f 120/137/112 128/146/112 127/152/112 119/143/112
f 121/145/113 129/154/113 136/155/113 128/146/113
f 122/147/114 130/156/114 129/154/114 121/145/114
f 123/148/115 131/157/115 130/156/115 122/147/115
f 124/149/116 132/158/116 131/157/116 123/148/116
f 125/150/117 133/159/117 132/158/117 124/149/117
f 126/151/118 134/160/118 133/159/118 125/150/118
f 127/152/119 135/161/119 134/162/119 126/153/119
f 128/146/120 136/155/120 135/161/120 127/152/120
f 129/154/121 137/163/121 144/164/121 136/155/121
f 130/156/122 138/165/122 137/163/122 129/154/122
f 131/157/123 139/166/123 138/165/123 130/156/123
f 132/158/124 140/167/124 139/166/124 131/157/124
f 133/159/125 141/168/125 140/167/125 132/158/125
f 134/160/126 142/169/126 141/168/126 133/159/126
f 135/161/127 143/170/127 142/171/127 134/162/127
f 136/155/128 144/164/128 143/170/128 135/161/128
f 137/163/129 145/172/129 152/173/129 144/164/129
f 138/165/130 146/174/130 145/172/130 137/163/130
f 139/166/131 147/175/131 146/174/131 138/165/131
f 140/167/132 148/176/132 147/175/132 139/166/132
f 141/168/133 149/177/133 148/176/133 140/167/133
f 142/169/134 150/178/134 149/177/134 141/168/134
f 143/170/135 151/179/135 150/180/135 142/171/135
f 144/164/136 152/173/136 151/179/136 143/170/136
f 153/181/137 161/182/137 168/183/137 160/184/137
f 154/185/138 162/186/138 161/182/138 153/181/138
f 155/187/139 163/188/139 162/186/139 154/185/139
f 156/189/140 164/190/140 163/188/140 155/187/140
f 157/191/141 165/192/141 164/190/141 156/189/141
f 158/193/142 166/194/142 165/192/142 157/191/142
f 159/195/143 167/196/143 166/197/143 158/198/143
f 160/184/144 168/183/144 167/196/144 159/195/144
f 161/182/145 169/199/145 176/200/145 168/183/145
f 162/186/146 170/201/146 169/199/146 161/182/146
f 163/188/147 171/202/147 170/201/147 162/186/147
f 164/190/148 172/203/148 171/202/148 163/188/148
f 165/192/149 173/204/149 172/203/149 164/190/149
f 166/194/150 174/205/150 173/204/150 165/192/150
f 167/196/151 175/206/151 174/207/151 166/197/151
f 168/183/152 176/200/152 175/206/152 167/196/152
f 169/199/153 177/208/153 184/209/153 176/200/153
f 170/201/154 178/210/154 177/208/154 169/199/154
f 171/202/155 179/211/155 178/210/155 170/201/155
f 172/203/156 180/212/156 179/211/156 171/202/156
f 173/204/157 181/213/157 180/212/157 172/203/157
f 174/205/158 182/214/158 181/213/158 173/204/158
f 175/206/159 183/215/159 182/216/159 174/207/159
f 176/200/160 184/209/160 183/215/160 175/206/160
f 177/208/161 185/217/161 192/218/161 184/209/161
f 178/210/162 186/219/162 185/217/162 177/208/162
f 179/211/163 187/220/163 186/219/163 178/210/163
f 180/212/164 188/221/164 187/220/164 179/211/164
f 181/213/165 189/222/165 188/221/165 180/212/165
f 182/214/166 190/223/166 189/222/166 181/213/166
f 183/215/167 191/224/167 190/225/167 182/216/167
f 184/209/168 192/218/168 191/224/168 183/215/168
f 185/217/169 193/226/169 200/227/169 192/218/169
f 186/219/170 194/228/170 193/226/170 185/217/170
f 187/220/171 195/229/171 194/228/171 186/219/171
f 188/221/172 196/230/172 195/229/172 187/220/172
f 189/222/173 197/231/173 196/230/173 188/221/173
f 190/223/174 198/232/174 197/231/174 189/222/174
f 191/224/175 199/233/175 198/234/175 190/225/175
f 192/218/176 200/227/176 199/233/176 191/224/176
f 193/226/177 201/235/177 208/236/177 200/227/177
f 194/228/178 202/237/178 201/235/178 193/226/178
f 195/229/179 203/238/179 202/237/179 194/228/179
f 196/230/180 204/239/180 203/238/180 195/229/180
f 197/231/181 205/240/181 204/239/181 196/230/181
f 198/232/182 206/241/182 205/240/182 197/231/182
f 199/233/183 207/242/183 206/243/183 198/234/183
f 200/227/184 208/236/184 207/242/184 199/233/184
f 209/244/185 217/245/185 224/246/185 216/247/185
f 210/248/186 218/249/186 217/245/186 209/244/186
f 211/250/187 219/251/187 218/249/187 210/248/187
f 212/252/188 220/253/188 219/251/188 211/250/188
f 213/254/189 221/255/189 220/253/189 212/252/189
f 214/256/190 222/257/190 221/255/190 213/254/190
f 215/258/191 223/259/191 222/260/191 214/261/191
f 216/247/192 224/246/192 223/259/192 215/258/192
f 217/245/193 225/262/193 232/263/193 224/246/193
f 218/249/194 226/264/194 225/262/194 217/245/194
f 219/251/195 227/265/195 226/264/195 218/249/195
f 220/253/196 228/266/196 227/265/196 219/251/196
f 221/255/197 229/267/197 228/266/197 220/253/197
f 222/257/198 230/268/198 229/267/198 221/255/198
f 223/259/199 231/269/199 230/270/199 222/260/199
f 224/246/200 232/263/200 231/269/200 223/259/200
f 225/262/201 233/271/201 240/272/201 232/263/201
f 226/264/202 234/273/202 233/271/202 225/262/202
f 227/265/203 235/274/203 234/273/203 226/264/203
f 228/266/204 236/275/204 235/274/204 227/265/204
f 229/267/205 237/276/205 236/275/205 228/266/205
f 230/268/206 238/277/206 237/276/206 229/267/206
f 231/269/207 239/278/207 238/279/207 230/270/207
f 232/263/208 240/272/208 239/278/208 231/269/208
f 233/271/209 241/280/209 248/281/209 240/272/209
f 234/273/210 242/282/210 241/280/210 233/271/210
f 235/274/211 243/283/211 242/282/211 234/273/211
f 236/275/212 244/284/212 243/283/212 235/274/212
f 237/276/213 245/285/213 244/284/213 236/275/213
f 238/277/214 246/286/214 245/285/214 237/276/214
f 239/278/215 247/287/215 246/288/215 238/279/215
f 240/272/216 248/281/216 247/287/216 239/278/216
f 241/280/217 249/289/217 256/290/217 248/281/217
f 242/282/218 250/291/218 249/289/218 241/280/218
f 243/283/219 251/292/219 250/291/219 242/282/219
f 244/284/220 252/293/220 251/292/220 243/283/220
f 245/285/221 253/294/221 252/293/221 244/284/221
f 246/286/222 254/295/222 253/294/222 245/285/222
f 247/287/223 255/296/223 254/297/223 246/288/223
f 248/281/224 256/290/224 255/296/224 247/287/224
f 249/289/225 257/298/225 264/299/225 256/290/225
f 250/291/226 258/300/226 257/298/226 249/289/226
f 251/292/227 259/301/227 258/300/227 250/291/227
f 252/293/228 260/302/228 259/301/228 251/292/228
f 253/294/229 261/303/229 260/302/229 252/293/229
f 254/295/230 262/304/230 261/303/230 253/294/230
f 255/296/231 263/305/231 262/306/231 254/297/231
f 256/290/232 264/299/232 263/305/232 255/296/232
f 265/307/233 273/308/233 280/309/233 272/310/233
f 266/311/234 274/312/234 273/308/234 265/307/234
f 267/313/235 275/314/235 274/312/235 266/311/235
f 268/315/236 276/316/236 275/314/236 267/313/236
f 269/317/237 277/318/237 276/316/237 268/315/237
f 270/319/238 278/320/238 277/318/238 269/317/238
f 271/321/239 279/322/239 278/323/239 270/324/239
f 272/310/240 280/309/240 279/322/240 271/321/240
f 273/308/241 281/325/241 288/326/241 280/309/241
f 274/312/242 282/327/242 281/325/242 273/308/242
f 275/314/243 283/328/243 282/327/243 274/312/243
f 276/316/244 284/329/244 283/328/244 275/314/244
f 277/318/245 285/330/245 284/329/245 276/316/245
f 278/320/246 286/331/246 285/330/246 277/318/246
f 279/322/247 287/332/247 286/333/247 278/323/247
f 280/309/248 288/326/248 287/332/248 279/322/248
f 281/325/249 289/334/249 296/335/249 288/326/249
f 282/327/250 290/336/250 289/334/250 281/325/250
f 283/328/251 291/337/251 290/336/251 282/327/251
f 284/329/252 292/338/252 291/337/252 283/328/252
f 285/330/253 293/339/253 292/338/253 284/329/253
f 286/331/254 294/340/254 293/339/254 285/330/254
f 287/332/255 295/341/255 294/342/255 286/333/255
f 288/326/256 296/335/256 295/341/256 287/332/256
f 289/334/257 297/343/257 304/344/257 296/335/257
f 290/336/258 298/345/258 297/343/258 289/334/258
f 291/337/259 299/346/259 298/345/259 290/336/259
f 292/338/260 300/347/260 299/346/260 291/337/260
f 293/339/261 301/348/261 300/347/261 292/338/261
f 294/340/262 302/349/262 301/348/262 293/339/262
f 295/341/263 303/350/263 302/351/263 294/342/263
f 296/335/264 304/344/264 303/350/264 295/341/264
f 297/343/265 305/352/265 312/353/265 304/344/265
f 298/345/266 306/354/266 305/352/266 297/343/266
f 299/346/267 307/355/267 306/354/267 298/345/267
f 300/347/268 308/356/268 307/355/268 299/346/268
f 301/348/269 309/357/269 308/356/269 300/347/269
f 302/349/270 310/358/270 309/357/270 301/348/270
f 303/350/271 311/359/271 310/360/271 302/351/271
f 304/344/272 312/353/272 311/359/272 303/350/272
f 305/352/273 313/361/273 320/362/273 312/353/273
f 306/354/274 314/363/274 313/361/274 305/352/274
f 307/355/275 315/364/275 314/363/275 306/354/275
f 308/356/276 316/365/276 315/364/276 307/355/276
f 309/357/277 317/366/277 316/365/277 308/356/277
f 310/358/278 318/367/278 317/366/278 309/357/278
f 311/359/279 319/368/279 318/369/279 310/360/279
f 312/353/280 320/362/280 319/368/280 311/359/280
f 313/361/281 321/370/281 328/371/281 320/362/281
f 314/363/282 322/372/282 321/370/282 313/361/282
f 315/364/283 323/373/283 322/372/283 314/363/283
f 316/365/284 324/374/284 323/373/284 315/364/284
f 317/366/285 325/375/285 324/374/285 316/365/285
f 318/367/286 326/376/286 325/375/286 317/366/286
f 319/368/287 327/377/287 326/378/287 318/369/287
f 320/362/288 328/371/288 327/377/288 319/368/288
f 530/379/289 529/380/289 560/381/289 553/382/289
f 529/380/290 531/383/290 559/384/290 560/381/290
f 531/383/291 532/385/291 558/386/291 559/384/291
f 532/385/292 533/387/292 557/388/292 558/386/292
f 330/389/293 336/390/293 360/391/293 348/392/293
f 329/393/294 330/389/294 348/392/294 346/394/294
f 331/395/295 329/393/295 346/394/295 350/396/295
f 332/397/296 331/395/296 350/396/296 352/398/296
f 333/399/297 332/397/297 352/398/297 354/400/297
f 334/401/298 333/399/298 354/400/298 356/402/298
f 335/403/299 334/401/299 356/402/299 358/404/299
f 336/390/300 335/403/300 358/404/300 360/391/300
f 347/405/301 348/406/301 360/407/301 359/408/301
f 359/408/302 360/407/302 358/409/302 357/410/302
f 357/411/303 358/412/303 356/413/303 355/414/303
f 355/414/304 356/413/304 354/415/304 353/416/304
f 353/416/305 354/415/305 352/417/305 351/418/305
f 351/418/306 352/417/306 350/419/306 349/420/306
f 349/420/307 350/419/307 346/421/307 345/422/307
f 345/422/308 346/421/308 348/406/308 347/405/308
f 347/423/309 359/424/309 368/425/309 362/426/309
f 359/424/310 357/427/310 367/428/310 368/425/310
f 357/427/311 355/429/311 366/430/311 367/428/311
f 355/429/312 353/431/312 365/432/312 366/430/312
f 344/433/313 361/434/313 362/435/313 343/436/313
f 342/437/314 363/438/314 361/434/314 344/433/314
f 341/439/315 364/440/315 363/438/315 342/437/315
f 340/441/316 365/442/316 364/440/316 341/439/316
f 339/443/317 366/444/317 365/442/317 340/441/317
f 338/445/318 367/446/318 366/444/318 339/443/318
f 337/447/319 368/448/319 367/449/319 338/450/319
f 343/436/320 362/435/320 368/448/320 337/447/320
f 345/451/321 347/423/321 362/426/321 361/452/321
f 349/453/322 345/451/322 361/452/322 363/454/322
f 351/455/323 349/453/323 363/454/323 364/456/323
f 353/431/324 351/455/324 364/456/324 365/432/324
f 440/457/325 438/458/325 520/459/325 522/460/325
f 384/461/326 369/462/326 449/463/326 452/464/326
f 403/465/327 405/466/327 487/467/327 485/468/327
f 422/469/328 420/470/328 502/471/328 504/472/328
f 385/473/329 387/474/329 469/475/329 465/476/329
f 404/477/330 402/478/330 482/479/330 486/480/330
f 437/481/331 439/482/331 521/483/331 519/484/331
f 370/485/332 383/486/332 451/487/332 450/488/332
f 400/489/329 385/473/329 465/476/329 468/490/329
f 419/491/333 421/492/333 503/493/333 501/494/333
f 438/458/334 436/495/334 518/496/334 520/459/334
f 401/497/335 403/465/335 485/468/335 481/498/335
f 420/470/328 418/499/328 498/500/328 502/471/328
f 386/501/336 399/502/336 467/503/336 466/504/336
f 416/505/337 401/497/337 481/498/337 484/506/337
f 435/507/338 437/481/338 519/484/338 517/508/338
f 417/509/333 419/491/333 501/494/333 497/510/333
f 436/495/339 434/511/339 514/512/339 518/496/339
f 383/486/340 382/513/340 464/514/340 451/487/340
f 402/478/341 415/515/341 483/516/341 482/479/341
f 432/517/342 417/509/342 497/510/342 500/518/342
f 381/519/343 384/461/343 452/464/343 463/520/343
f 433/521/344 435/507/344 517/508/344 513/522/344
f 382/513/345 380/523/345 462/524/345 464/514/345
f 399/502/336 398/525/336 480/526/336 467/503/336
f 418/499/346 431/527/346 499/528/346 498/500/346
f 448/529/347 433/521/347 513/522/347 516/530/347
f 397/531/329 400/489/329 468/490/329 479/532/329
f 379/533/348 381/519/348 463/520/348 461/534/348
f 398/525/336 396/535/336 478/536/336 480/526/336
f 415/515/349 414/537/349 496/538/349 483/516/349
f 434/511/350 447/539/350 515/540/350 514/512/350
f 380/523/351 378/541/351 460/542/351 462/524/351
f 413/543/352 416/505/352 484/506/352 495/544/352
f 395/545/329 397/531/329 479/532/329 477/546/329
f 414/537/353 412/547/353 494/548/353 496/538/353
f 431/527/328 430/549/328 512/550/328 499/528/328
f 377/551/354 379/533/354 461/534/354 459/552/354
f 396/535/336 394/553/336 476/554/336 478/536/336
f 429/555/333 432/517/333 500/518/333 511/556/333
f 34/48/355 371/557/355 369/558/355 33/46/355
f 33/46/356 369/558/356 384/559/356 40/47/356
f 372/560/357 42/59/357 41/55/357 370/561/357
f 370/561/358 41/55/358 48/58/358 383/562/358
f 35/49/359 373/563/359 371/557/359 34/48/359
f 374/564/360 43/61/360 42/59/360 372/560/360
f 36/50/361 375/565/361 373/563/361 35/49/361
f 376/566/362 44/63/362 43/61/362 374/564/362
f 37/51/363 377/567/363 375/565/363 36/50/363
f 378/568/364 45/65/364 44/63/364 376/566/364
f 38/52/365 379/569/365 377/567/365 37/51/365
f 380/570/366 46/67/366 45/65/366 378/568/366
f 39/53/367 381/571/367 379/572/367 38/54/367
f 382/573/368 47/69/368 46/72/368 380/574/368
f 40/47/369 384/559/369 381/571/369 39/53/369
f 383/562/370 48/58/370 47/69/370 382/573/370
f 90/111/371 387/575/371 385/576/371 89/109/371
f 89/109/372 385/576/372 400/577/372 96/110/372
f 388/578/373 98/122/373 97/118/373 386/579/373
f 386/579/374 97/118/374 104/121/374 399/580/374
f 91/112/375 389/581/375 387/575/375 90/111/375
f 390/582/376 99/124/376 98/122/376 388/578/376
f 92/113/377 391/583/377 389/581/377 91/112/377
f 392/584/378 100/126/378 99/124/378 390/582/378
f 93/114/379 393/585/379 391/583/379 92/113/379
f 394/586/380 101/128/380 100/126/380 392/584/380
f 94/115/381 395/587/381 393/585/381 93/114/381
f 396/588/382 102/130/382 101/128/382 394/586/382
f 95/116/383 397/589/383 395/590/383 94/117/383
f 398/591/384 103/132/384 102/135/384 396/592/384
f 96/110/385 400/577/385 397/589/385 95/116/385
f 399/580/386 104/121/386 103/132/386 398/591/386
f 146/174/387 403/593/387 401/594/387 145/172/387
f 145/172/388 401/594/388 416/595/388 152/173/388
f 404/596/389 154/185/389 153/181/389 402/597/389
f 402/597/390 153/181/390 160/184/390 415/598/390
f 147/175/391 405/599/391 403/593/391 146/174/391
f 406/600/392 155/187/392 154/185/392 404/596/392
f 148/176/393 407/601/393 405/599/393 147/175/393
f 408/602/394 156/189/394 155/187/394 406/600/394
f 149/177/395 409/603/395 407/601/395 148/176/395
f 410/604/396 157/191/396 156/189/396 408/602/396
f 150/178/397 411/605/397 409/603/397 149/177/397
f 412/606/398 158/193/398 157/191/398 410/604/398
f 151/179/399 413/607/399 411/608/399 150/180/399
f 414/609/400 159/195/400 158/198/400 412/610/400
f 152/173/401 416/595/401 413/607/401 151/179/401
f 415/598/402 160/184/402 159/195/402 414/609/402
f 202/237/403 419/611/403 417/612/403 201/235/403
f 201/235/404 417/612/404 432/613/404 208/236/404
f 420/614/405 210/248/405 209/244/405 418/615/405
f 418/615/406 209/244/406 216/247/406 431/616/406
f 203/238/407 421/617/407 419/611/407 202/237/407
f 422/618/408 211/250/408 210/248/408 420/614/408
f 204/239/409 423/619/409 421/617/409 203/238/409
f 424/620/410 212/252/410 211/250/410 422/618/410
f 205/240/411 425/621/411 423/619/411 204/239/411
f 426/622/412 213/254/412 212/252/412 424/620/412
f 206/241/413 427/623/413 425/621/413 205/240/413
f 428/624/414 214/256/414 213/254/414 426/622/414
f 207/242/415 429/625/415 427/626/415 206/243/415
f 430/627/416 215/258/416 214/261/416 428/628/416
f 208/236/417 432/613/417 429/625/417 207/242/417
f 431/616/418 216/247/418 215/258/418 430/627/418
f 258/300/419 435/629/419 433/630/419 257/298/419
f 257/298/420 433/630/420 448/631/420 264/299/420
f 436/632/421 266/311/421 265/307/421 434/633/421
f 434/633/422 265/307/422 272/310/422 447/634/422
f 259/301/423 437/635/423 435/629/423 258/300/423
f 438/636/424 267/313/424 266/311/424 436/632/424
f 260/302/425 439/637/425 437/635/425 259/301/425
f 440/638/426 268/315/426 267/313/426 438/636/426
f 261/303/427 441/639/427 439/637/427 260/302/427
f 442/640/428 269/317/428 268/315/428 440/638/428
f 262/304/429 443/641/429 441/639/429 261/303/429
f 444/642/430 270/319/430 269/317/430 442/640/430
f 263/305/431 445/643/431 443/644/431 262/306/431
f 446/645/432 271/321/432 270/324/432 444/646/432
f 264/299/433 448/631/433 445/643/433 263/305/433
f 447/634/434 272/310/434 271/321/434 446/645/434
f 450/647/435 451/648/435 452/649/435 449/650/435
f 449/650/436 453/651/436 454/652/436 450/647/436
f 453/651/437 455/653/437 456/654/437 454/652/437
f 455/653/438 457/655/438 458/656/438 456/654/438
f 457/655/439 459/657/439 460/658/439 458/656/439
f 459/657/440 461/659/440 462/660/440 460/658/440
f 461/661/441 463/662/441 464/663/441 462/664/441
f 463/662/442 452/649/442 451/648/442 464/663/442
f 466/665/443 467/666/443 468/667/443 465/668/443
f 465/668/444 469/669/444 470/670/444 466/665/444
f 469/669/445 471/671/445 472/672/445 470/670/445
f 471/671/446 473/673/446 474/674/446 472/672/446
f 473/673/447 475/675/447 476/676/447 474/674/447
f 475/675/448 477/677/448 478/678/448 476/676/448
f 477/679/449 479/680/449 480/681/449 478/682/449
f 479/680/450 468/667/450 467/666/450 480/681/450
f 482/683/451 483/684/451 484/685/451 481/686/451
f 481/686/452 485/687/452 486/688/452 482/683/452
f 485/687/453 487/689/453 488/690/453 486/688/453
f 487/689/454 489/691/454 490/692/454 488/690/454
f 489/691/455 491/693/455 492/694/455 490/692/455
f 491/693/456 493/695/456 494/696/456 492/694/456
f 493/697/457 495/698/457 496/699/457 494/700/457
f 495/698/458 484/685/458 483/684/458 496/699/458
f 498/701/459 499/702/459 500/703/459 497/704/459
f 497/704/460 501/705/460 502/706/460 498/701/460
f 501/705/461 503/707/461 504/708/461 502/706/461
f 503/707/462 505/709/462 506/710/462 504/708/462
f 505/709/463 507/711/463 508/712/463 506/710/463
f 507/711/464 509/713/464 510/714/464 508/712/464
f 509/715/465 511/716/465 512/717/465 510/718/465
f 511/716/466 500/703/466 499/702/466 512/717/466
f 514/719/467 515/720/467 516/721/467 513/722/467
f 513/722/468 517/723/468 518/724/468 514/719/468
f 517/723/469 519/725/469 520/726/469 518/724/469
f 519/725/470 521/727/470 522/728/470 520/726/470
f 521/727/471 523/729/471 524/730/471 522/728/471
f 523/729/472 525/731/472 526/732/472 524/730/472
f 525/733/473 527/734/473 528/735/473 526/736/473
f 527/734/474 516/721/474 515/720/474 528/735/474
f 421/492/333 423/737/333 505/738/333 503/493/333
f 388/739/336 386/501/336 466/504/336 470/740/336
f 369/462/475 371/741/475 453/742/475 449/463/475
f 439/482/476 441/743/476 523/744/476 521/483/476
f 406/745/477 404/477/477 486/480/477 488/746/477
f 387/474/329 389/747/329 471/748/329 469/475/329
f 424/749/328 422/469/328 504/472/328 506/750/328
f 405/466/478 407/751/478 489/752/478 487/467/478
f 372/753/479 370/485/479 450/488/479 454/754/479
f 442/755/480 440/457/480 522/460/480 524/756/480
f 423/737/481 425/757/481 507/758/481 505/738/481
f 390/759/336 388/739/336 470/740/336 472/760/336
f 371/741/482 373/761/482 455/762/482 453/742/482
f 441/743/483 443/763/483 525/764/483 523/744/483
f 408/765/484 406/745/484 488/746/484 490/766/484
f 389/747/329 391/767/329 473/768/329 471/748/329
f 426/769/485 424/749/485 506/750/485 508/770/485
f 407/751/486 409/771/486 491/772/486 489/752/486
f 374/773/487 372/753/487 454/754/487 456/774/487
f 444/775/488 442/755/488 524/756/488 526/776/488
f 425/757/489 427/777/489 509/778/489 507/758/489
f 392/779/336 390/759/336 472/760/336 474/780/336
f 373/761/490 375/781/490 457/782/490 455/762/490
f 443/763/491 445/783/491 527/784/491 525/764/491
f 410/785/492 408/765/492 490/766/492 492/786/492
f 391/767/329 393/787/329 475/788/329 473/768/329
f 428/789/493 426/769/493 508/770/493 510/790/493
f 409/771/494 411/791/494 493/792/494 491/772/494
f 376/793/495 374/773/495 456/774/495 458/794/495
f 446/795/496 444/775/496 526/776/496 528/796/496
f 427/777/333 429/555/333 511/556/333 509/778/333
f 394/553/336 392/779/336 474/780/336 476/554/336
f 375/781/497 377/551/497 459/552/497 457/782/497
f 445/783/498 448/529/498 516/530/498 527/784/498
f 412/547/499 410/785/499 492/786/499 494/548/499
f 393/787/329 395/545/329 477/546/329 475/788/329
f 447/539/500 446/795/500 528/796/500 515/540/500
f 430/549/328 428/789/328 510/790/328 512/550/328
f 411/791/501 413/543/501 495/544/501 493/792/501
f 378/541/502 376/793/502 458/794/502 460/542/502
f 328/371/503 530/797/503 536/798/503 327/377/503
f 327/377/504 536/798/504 535/799/504 326/378/504
f 326/376/505 535/800/505 534/801/505 325/375/505
f 325/375/506 534/801/506 533/802/506 324/374/506
f 324/374/507 533/802/507 532/803/507 323/373/507
f 323/373/508 532/803/508 531/804/508 322/372/508
f 322/372/509 531/804/509 529/805/509 321/370/509
f 321/370/510 529/805/510 530/797/510 328/371/510
f 533/387/511 534/806/511 556/807/511 557/388/511
f 534/806/512 535/808/512 555/809/512 556/807/512
f 535/808/513 536/810/513 554/811/513 555/809/513
f 536/810/514 530/379/514 553/382/514 554/811/514
f 545/812/515 547/813/515 540/814/515 544/815/515
f 547/813/516 548/816/516 538/817/516 540/814/516
f 548/816/517 549/818/517 561/819/517 538/817/517
f 549/818/518 550/820/518 563/821/518 561/819/518
f 553/822/519 546/823/519 552/824/519 554/825/519
f 554/825/520 552/824/520 551/826/520 555/827/520
f 555/828/521 551/829/521 550/830/521 556/831/521
f 556/831/522 550/830/522 549/832/522 557/833/522
f 557/833/523 549/832/523 548/834/523 558/835/523
f 558/835/524 548/834/524 547/836/524 559/837/524
f 559/837/525 547/836/525 545/838/525 560/839/525
f 560/839/526 545/838/526 546/823/526 553/822/526
f 544/840/527 543/841/527 542/842/527 541/843/527
f 540/844/528 539/845/528 543/841/528 544/840/528
f 538/846/529 537/847/529 539/845/529 540/844/529
f 561/848/530 562/849/530 537/847/530 538/846/530
f 563/850/531 564/851/531 562/849/531 561/848/531
f 565/852/532 566/853/532 564/851/532 563/850/532
f 567/854/533 568/855/533 566/856/533 565/857/533
f 541/843/534 542/842/534 568/855/534 567/854/534
f 546/858/535 545/812/535 544/815/535 541/859/535
f 552/860/536 546/858/536 541/859/536 567/861/536
f 551/862/537 552/860/537 567/861/537 565/863/537
f 550/820/538 551/862/538 565/863/538 563/821/538
