# Blender 5.2.1 LTS
# www.blender.org
mtllib ScaffoldStation.mtl
o ScaffoldStation
v 2.700000 0.000000 3.600000
v -2.700000 0.000000 3.600000
v -1.404000 0.000000 3.600000
v 1.404000 0.000000 3.600000
v 1.404000 1.699757 3.672162
v -1.404000 1.699757 3.672162
v 1.404000 0.000000 2.100000
v -1.404000 0.000000 2.100000
v -1.404000 0.000000 4.200000
v 1.404000 0.000000 4.200000
v 2.700000 1.360000 3.600000
v -2.700000 1.360000 3.600000
v 1.404000 1.360000 4.200000
v -1.404000 1.360000 4.200000
v -1.404000 0.800000 2.100000
v 1.404000 0.800000 2.100000
v 1.125628 0.000000 2.737481
v -1.125628 0.000000 2.737481
v -1.125628 0.800000 2.737481
v 1.125628 0.800000 2.737481
v 2.376000 0.000000 2.850000
v -2.376000 0.000000 2.850000
v -1.476217 1.375135 3.584337
v 1.476217 1.375135 3.584337
v -2.376000 1.080000 2.850000
v 2.376000 1.080000 2.850000
v -0.748800 0.000000 3.600000
v 0.748800 0.000000 3.600000
v -0.748800 0.000000 4.200000
v 0.748800 0.000000 4.200000
v -0.748800 0.800000 2.100000
v 0.748800 0.800000 2.100000
v 0.748800 1.360000 4.200000
v -0.748800 1.360000 4.200000
v 0.748800 0.000000 3.100000
v -0.748800 0.000000 3.100000
v -0.748800 0.800000 3.100000
v 0.748800 0.800000 3.100000
v 0.841133 1.049613 3.506831
v -0.841132 1.049613 3.506831
v -2.538000 0.000000 3.225000
v 2.538000 0.000000 3.225000
v 2.538000 1.220000 3.225000
v 1.404000 0.000000 3.350000
v -1.404000 0.000000 3.350000
v -1.471069 1.500466 3.652170
v 1.471069 1.500466 3.652170
v -2.538000 1.220000 3.225000
v -0.857314 1.517585 3.638716
v 0.857314 1.517585 3.638716
v -0.748800 0.000000 3.350000
v 0.748800 0.000000 3.350000
v 0.000000 0.000000 3.600000
v 0.000000 0.000000 4.200000
v 0.000000 0.800000 2.100000
v 0.000000 1.360000 4.200000
v -0.000000 0.000000 3.100000
v 0.000000 0.800000 3.100000
v 0.000000 1.049613 3.506831
v -0.000000 0.000000 3.350000
v 0.000000 1.517585 3.638716
v 1.520000 0.000000 2.100000
v 1.690992 0.000000 2.170429
v 1.611504 0.000000 2.120628
v 1.520000 0.899294 2.100000
v 1.574019 1.042281 2.190603
v 1.690992 0.929774 2.170429
v 1.547068 0.982892 2.126541
v 1.604497 0.972562 2.130460
v 1.643651 0.999330 2.163333
v 1.611504 0.914534 2.120628
v 2.596496 1.699757 3.672162
v 2.700000 1.589930 3.648801
v 2.669684 1.667761 3.665319
v -1.690992 0.000000 2.170429
v -1.520000 0.000000 2.100000
v -1.611504 0.000000 2.120628
v -1.574019 1.042281 2.190603
v -1.520000 0.899294 2.100000
v -1.690992 0.929774 2.170429
v -1.547068 0.982892 2.126541
v -1.604497 0.972562 2.130460
v -1.611504 0.914534 2.120628
v -1.643651 0.999329 2.163333
v -2.596496 1.699757 3.672162
v -2.700000 1.589930 3.648801
v -2.669684 1.667761 3.665319
v 2.596631 1.699761 4.100000
v 2.600000 1.600000 4.200000
v 2.700000 1.590318 4.100000
v 2.598315 1.670711 4.170712
v 2.657025 1.655690 4.157737
v 2.670711 1.595159 4.170712
v 2.669616 1.667951 4.100000
v 2.700000 0.000000 4.100000
v 2.600000 0.000000 4.200000
v 2.670711 0.000000 4.170712
v -2.600000 0.000000 4.200000
v -2.700000 0.000000 4.100000
v -2.670711 0.000000 4.170712
v -2.596631 1.699761 4.100000
v -2.700000 1.590318 4.100000
v -2.600000 1.600000 4.200000
v -2.669616 1.667951 4.100000
v -2.657025 1.655690 4.157737
v -2.670711 1.595159 4.170712
v -2.598315 1.670711 4.170712
v -1.404000 0.899266 2.100000
v -1.408716 1.024498 2.196934
v -1.405381 0.977671 2.128391
v 1.408716 1.024498 2.196934
v 1.404000 0.899266 2.100000
v 1.405382 0.977671 2.128391
v 1.404000 1.600000 4.200000
v 1.404000 1.699761 4.100000
v 1.404000 1.670711 4.170712
v -1.404000 1.699761 4.100000
v -1.404000 1.600000 4.200000
v -1.404000 1.670711 4.170712
v 1.690992 0.826293 2.170429
v 1.520000 0.800000 2.100000
v 1.611504 0.807701 2.120628
v -1.690992 0.826293 2.170429
v -1.520000 0.800000 2.100000
v -1.611504 0.807701 2.120628
v 2.700000 1.360000 4.100000
v 2.600000 1.360000 4.200000
v 2.670711 1.360000 4.170712
v -2.600000 1.360000 4.200000
v -2.700000 1.360000 4.100000
v -2.670711 1.360000 4.170712
v 2.297093 1.352204 2.914398
v 2.376000 1.246994 2.850000
v 2.352889 1.320476 2.868862
v -2.376000 1.246994 2.850000
v -2.297093 1.352204 2.914398
v -2.352889 1.320476 2.868862
v 0.748800 1.600000 4.200000
v 0.750066 1.670643 4.170712
v -0.748800 1.600000 4.200000
v -0.750066 1.670643 4.170712
v -0.715919 1.046607 2.386974
v -0.826310 0.920196 2.100371
v -0.872304 0.996563 2.129095
v 0.826311 0.920196 2.100371
v 0.715920 1.046607 2.386974
v 0.872305 0.996563 2.129095
v 2.538000 1.417810 3.248401
v 2.446445 1.522895 3.294641
v 2.511185 1.492988 3.267196
v -2.538000 1.417810 3.248401
v -2.446445 1.522895 3.294641
v -2.511185 1.492988 3.267196
v 0.000000 0.920138 2.100371
v 0.000000 1.046361 2.295270
v 0.000000 0.996547 2.129095
v 0.000000 1.600000 4.200000
v 0.000000 1.670643 4.170712
v 0.000000 1.361696 3.510604
v -1.198515 1.361696 3.510604
v 1.198515 1.361696 3.510604
v 0.000000 1.046089 2.198008
v 0.893507 1.046089 2.198007
v -0.893507 1.046089 2.198007
v 1.491368 1.033390 2.193768
v 1.476225 0.980282 2.127466
v 1.462000 0.899280 2.100000
v 2.000315 1.699761 4.100000
v 2.001158 1.670711 4.170712
v 2.002000 1.600000 4.200000
v 1.462000 0.000000 2.100000
v 1.462000 0.800000 2.100000
v 1.886655 1.363669 3.249368
v 2.000248 1.699757 3.672162
v 1.958757 1.511680 3.473405
v 2.002000 1.360000 4.200000
v 2.002000 0.000000 4.200000
v -2.000315 1.699761 4.100000
v -2.001158 1.670711 4.170712
v -2.002000 1.600000 4.200000
v -1.491368 1.033390 2.193768
v -1.476225 0.980282 2.127466
v -1.462000 0.899280 2.100000
v -1.462000 0.000000 2.100000
v -1.462000 0.800000 2.100000
v -1.886655 1.363669 3.249368
v -2.000248 1.699757 3.672162
v -1.958757 1.511680 3.473405
v -2.002000 0.000000 4.200000
v -2.002000 1.360000 4.200000
v -2.057004 1.197243 2.552500
v -2.123653 1.159903 2.516098
v -2.161089 1.088384 2.510214
v 2.057004 1.197243 2.552500
v 2.123652 1.159903 2.516098
v 2.161089 1.088384 2.510214
v 2.161089 0.000000 2.510214
v 2.161089 0.953147 2.510214
v 1.532975 1.199816 2.890635
v -2.161089 0.000000 2.510214
v -2.161089 0.953147 2.510214
v -1.532975 1.199816 2.890635
v -1.111644 1.203893 2.854306
v 1.111644 1.203893 2.854306
v 0.000000 1.047987 2.901051
v -0.767077 1.047741 2.809347
v 0.767077 1.047741 2.809347
v 1.794990 1.198529 2.721568
v -1.794989 1.198529 2.721568
v 0.000000 1.046607 2.386974
v 0.797187 1.046361 2.295270
v -0.797186 1.046361 2.295270
v -0.870558 1.047987 2.901051
v 0.870559 1.047987 2.901051
v 0.000000 1.047741 2.809347
v 0.000000 1.120145 2.808573
v 0.000000 1.087753 2.387443
v 0.715920 1.087753 2.387443
v -0.715919 1.087753 2.387443
v -0.767077 1.120145 2.808573
v 0.767077 1.120145 2.808573
v 0.000000 1.699757 3.673453
v -0.771564 1.699757 3.673453
v 0.771564 1.699757 3.673453
v 0.000000 1.699761 4.100000
v -0.753123 1.699761 4.100000
v 0.753123 1.699761 4.100000
v -2.596563 1.699759 3.886081
v -2.669650 1.667856 3.882660
v -2.700000 1.590124 3.874401
v 2.700000 1.590124 3.874401
v 2.669650 1.667856 3.882660
v 2.596563 1.699759 3.886081
v 2.700000 1.360000 3.850000
v 1.404000 1.699759 3.886081
v -2.700000 1.360000 3.850000
v -1.404000 1.699759 3.886081
v 2.700000 0.000000 3.850000
v -2.700000 0.000000 3.850000
v 0.762344 1.699759 3.886726
v -0.762344 1.699759 3.886726
v 2.000282 1.699759 3.886081
v -2.000282 1.699759 3.886081
v -0.000000 1.699759 3.886726
vn -0.0000 -1.0000 -0.0000
vn -0.9180 -0.0000 -0.3966
vn -0.9164 -0.0000 -0.4002
vn -0.0000 -0.0000 1.0000
vn 0.9180 -0.0000 -0.3966
vn -0.6933 -0.0000 -0.7207
vn 0.9164 -0.0000 -0.4002
vn 0.0780 0.6328 -0.7704
vn -0.0780 0.6328 -0.7704
vn -0.0000 0.6349 -0.7726
vn 0.6933 -0.0000 -0.7207
vn -0.0000 -0.0000 -1.0000
vn -0.0000 0.1873 -0.9823
vn -0.0117 0.1466 -0.9891
vn 0.0117 0.1466 -0.9891
vn 0.1512 0.2257 -0.9624
vn 0.1555 0.6833 -0.7134
vn 0.4999 0.2309 -0.8347
vn -0.1555 0.6833 -0.7134
vn -0.1512 0.2257 -0.9624
vn -0.4999 0.2309 -0.8347
vn 0.3454 0.8844 0.3138
vn 0.3382 0.3241 0.8835
vn 0.8968 0.3152 0.3106
vn -0.3454 0.8844 0.3138
vn -0.8968 0.3152 0.3106
vn -0.3382 0.3241 0.8835
vn 0.2199 -0.0000 -0.9755
vn 0.5309 -0.0000 -0.8474
vn 0.2563 0.8379 -0.4818
vn 0.7760 0.4019 -0.4861
vn -0.1840 0.7833 -0.5938
vn -0.4974 0.2919 -0.8169
vn -0.2199 -0.0000 -0.9755
vn -0.5309 -0.0000 -0.8474
vn 0.3827 -0.0000 0.9239
vn 0.9239 -0.0000 0.3827
vn -0.9239 -0.0000 0.3827
vn -0.3827 -0.0000 0.9239
vn -0.4003 0.9164 -0.0002
vn -0.9317 0.3633 -0.0002
vn 0.9317 0.3633 -0.0002
vn 0.4003 0.9164 -0.0002
vn 0.0305 0.8159 -0.5774
vn 0.0114 0.3431 -0.9392
vn -0.0000 0.9248 0.3804
vn -0.0000 0.3828 0.9238
vn 0.1604 0.8597 -0.4849
vn 0.6826 0.3905 -0.6177
vn -0.1725 0.8744 -0.4536
vn -0.7861 0.3862 -0.4825
vn -0.0305 0.8159 -0.5774
vn -0.0114 0.3431 -0.9392
vn -0.0000 0.8120 -0.5837
vn -0.0000 0.3520 -0.9360
vn -0.0000 0.9247 0.3808
vn -0.0000 0.3830 0.9238
vn -0.0745 0.7667 -0.6376
vn -0.0132 0.3147 -0.9491
vn -0.0000 0.9250 0.3800
vn -0.0000 0.3827 0.9239
vn 0.0760 0.8060 -0.5869
vn 0.0135 0.3318 -0.9432
vn 0.1725 0.8744 -0.4536
vn 0.7861 0.3862 -0.4825
vn -0.2563 0.8379 -0.4818
vn -0.7760 0.4019 -0.4861
vn 0.8451 -0.0000 -0.5345
vn -0.1350 0.9644 -0.2276
vn -0.0930 0.8549 -0.5104
vn 1.0000 -0.0000 -0.0000
vn 0.9103 0.0689 -0.4081
vn -0.0000 1.0000 -0.0000
vn -0.5858 -0.0000 -0.8105
vn 0.1326 0.9658 -0.2227
vn -1.0000 -0.0000 -0.0000
vn 0.1477 0.4789 -0.8654
vn -0.9103 0.0689 -0.4081
vn -0.0359 0.9681 -0.2480
vn 0.0003 0.0018 -1.0000
vn -0.0003 0.0018 -1.0000
vn 0.0359 0.9681 -0.2480
vn -0.2227 0.8936 -0.3897
vn 0.9184 0.0253 -0.3949
vn 0.3425 0.7237 -0.5992
vn -0.9184 0.0253 -0.3949
vn -0.9927 -0.0003 -0.1204
vn -0.0000 0.0031 -1.0000
vn -0.0000 0.0107 0.9999
vn -0.0000 0.0121 -0.9999
vn -0.0000 1.0000 -0.0028
vn 0.4245 0.9053 -0.0163
vn -0.6176 0.7833 -0.0708
vn -0.3425 0.7237 -0.5992
vn -0.1477 0.4789 -0.8654
vn -0.1326 0.9658 -0.2227
vn -0.0135 0.3318 -0.9432
vn -0.0760 0.8060 -0.5869
vn 0.2227 0.8936 -0.3897
vn 0.0930 0.8549 -0.5104
vn 0.1350 0.9644 -0.2276
vn 0.0132 0.3147 -0.9491
vn 0.0745 0.7667 -0.6376
vn 0.1851 0.9447 -0.2709
vn -0.1766 0.9494 -0.2596
vn -0.4245 0.9053 -0.0163
vn 0.6176 0.7833 -0.0708
vn -0.0000 1.0000 -0.0027
vn 0.0248 0.9705 -0.2400
vn -0.0248 0.9705 -0.2400
vn -0.8451 -0.0000 -0.5345
vn 0.1766 0.9494 -0.2596
vn -0.1851 0.9447 -0.2709
vn 0.5858 -0.0000 -0.8105
vn 0.4974 0.2919 -0.8169
vn 0.1840 0.7833 -0.5938
vn -0.6826 0.3905 -0.6177
vn -0.1604 0.8597 -0.4849
vn -0.0000 0.9971 -0.0767
vn -0.0000 0.0114 -0.9999
vn 0.9927 -0.0003 -0.1204
vn 0.3998 0.9166 -0.0002
vn 0.9314 0.3641 -0.0002
vn -0.9314 0.3641 -0.0002
vn -0.3998 0.9166 -0.0002
vt 0.322609 0.561774
vt 0.335909 0.441115
vt 0.362509 0.441115
vt 0.362509 0.579011
vt 0.362509 0.212055
vt 0.362509 0.142341
vt 0.426350 0.142341
vt 0.426350 0.212055
vt 0.188045 0.779274
vt 0.058114 0.772264
vt 0.075381 0.729975
vt 0.190138 0.735372
vt 0.202907 0.767920
vt 0.288028 0.767920
vt 0.288028 0.841934
vt 0.202907 0.841934
vt 0.435229 0.369240
vt 0.580103 0.369239
vt 0.580085 0.438998
vt 0.435230 0.439045
vt 0.188148 0.110008
vt 0.058240 0.116965
vt 0.041545 0.074641
vt 0.185777 0.066127
vt 0.288028 0.897570
vt 0.202907 0.897570
vt 0.622708 0.620108
vt 0.622708 0.550394
vt 0.690537 0.580013
vt 0.729109 0.620108
vt 0.975358 0.854021
vt 0.890238 0.854021
vt 0.890238 0.780008
vt 0.975358 0.780008
vt 0.282708 0.544537
vt 0.270736 0.411496
vt 0.335909 0.212055
vt 0.335909 0.142341
vt 0.805178 0.363660
vt 0.801626 0.427020
vt 0.786256 0.427672
vt 0.782110 0.397596
vt 0.322609 0.021682
vt 0.362509 0.004445
vt 0.802505 0.122218
vt 0.805815 0.186673
vt 0.782850 0.153357
vt 0.786633 0.121639
vt 0.805089 0.275046
vt 0.783732 0.274846
vt 0.335909 0.371401
vt 0.362509 0.371401
vt 0.335909 0.291728
vt 0.362509 0.291728
vt 0.622708 0.849168
vt 0.622708 0.779454
vt 0.729109 0.779454
vt 0.690537 0.819549
vt 0.622708 0.699781
vt 0.729109 0.699781
vt 0.890238 0.724371
vt 0.975358 0.724371
vt 0.865217 0.804044
vt 0.780096 0.804044
vt 0.780096 0.724371
vt 0.865217 0.724371
vt 0.435303 0.139898
vt 0.580074 0.140010
vt 0.580111 0.209749
vt 0.435260 0.209697
vt 0.435239 0.289468
vt 0.580112 0.289491
vt 0.426350 0.371401
vt 0.426350 0.441115
vt 0.426350 0.291728
vt 0.270736 0.171960
vt 0.282708 0.038919
vt 0.309308 0.291728
vt 0.309308 0.212055
vt 0.309308 0.371401
vt 0.827664 0.275236
vt 0.826215 0.354274
vt 0.827084 0.128542
vt 0.826964 0.196125
vt 0.825823 0.420817
vt 0.190222 0.153898
vt 0.075494 0.159247
vt 0.185652 0.823165
vt 0.041426 0.814600
vt 0.865217 0.883717
vt 0.780096 0.883717
vt 0.098115 0.281333
vt 0.088858 0.278137
vt 0.090128 0.271947
vt 0.096400 0.271524
vt 0.640212 0.451729
vt 0.635668 0.460142
vt 0.630417 0.456214
vt 0.630297 0.449565
vt 0.094491 0.261725
vt 0.086972 0.266619
vt 0.634120 0.099515
vt 0.623819 0.102021
vt 0.623775 0.095066
vt 0.629170 0.090828
vt 0.098052 0.607866
vt 0.096333 0.617675
vt 0.090059 0.617250
vt 0.088793 0.611059
vt 0.094420 0.627476
vt 0.086900 0.622578
vt 0.863218 0.531919
vt 0.870474 0.532290
vt 0.869589 0.538292
vt 0.863797 0.539477
vt 0.604903 0.013684
vt 0.604838 0.005617
vt 0.611580 0.006911
vt 0.612952 0.013480
vt 0.013294 0.024130
vt 0.004501 0.024434
vt 0.005097 0.017908
vt 0.011753 0.016185
vt 0.866008 0.014191
vt 0.866658 0.006366
vt 0.872647 0.007633
vt 0.873523 0.013854
vt 0.013195 0.865205
vt 0.011658 0.873161
vt 0.004992 0.871442
vt 0.004389 0.864908
vt 0.605192 0.565678
vt 0.613292 0.565870
vt 0.611915 0.572495
vt 0.605117 0.573801
vt 0.108593 0.281278
vt 0.107632 0.271343
vt 0.105440 0.261446
vt 0.781929 0.527949
vt 0.822797 0.533773
vt 0.822416 0.541282
vt 0.779530 0.535106
vt 0.028194 0.115646
vt 0.008563 0.070935
vt 0.017571 0.071240
vt 0.036990 0.115754
vt 0.684339 0.047123
vt 0.679397 0.038509
vt 0.068407 0.685323
vt 0.076506 0.688054
vt 0.108530 0.607923
vt 0.193751 0.609627
vt 0.193550 0.619637
vt 0.107567 0.617860
vt 0.193343 0.629647
vt 0.105371 0.627759
vt 0.579810 0.013127
vt 0.435663 0.012551
vt 0.435697 0.004434
vt 0.579929 0.005032
vt 0.036790 0.013757
vt 0.182002 0.004456
vt 0.182525 0.012627
vt 0.037459 0.021963
vt 0.037395 0.867358
vt 0.182377 0.876586
vt 0.181860 0.884754
vt 0.036729 0.875571
vt 0.580002 0.574298
vt 0.435341 0.574670
vt 0.435321 0.566530
vt 0.579902 0.566157
vt 0.845036 0.013113
vt 0.824092 0.012033
vt 0.823736 0.004216
vt 0.845089 0.005157
vt 0.005910 0.841633
vt 0.008418 0.818337
vt 0.017435 0.818026
vt 0.014927 0.841525
vt 0.015046 0.047775
vt 0.006041 0.047674
vt 0.842978 0.540504
vt 0.842973 0.532836
vt 0.635832 0.375613
vt 0.638317 0.433384
vt 0.628980 0.433659
vt 0.626302 0.373770
vt 0.087079 0.350819
vt 0.089087 0.293486
vt 0.098063 0.293681
vt 0.095846 0.355768
vt 0.873058 0.197605
vt 0.871401 0.129158
vt 0.878987 0.128722
vt 0.881053 0.197842
vt 0.613807 0.369383
vt 0.613782 0.439024
vt 0.605635 0.439017
vt 0.605663 0.369246
vt 0.689192 0.500770
vt 0.736046 0.520812
vt 0.731231 0.527857
vt 0.684616 0.509041
vt 0.068507 0.203883
vt 0.049465 0.160293
vt 0.057843 0.160235
vt 0.076604 0.201156
vt 0.193783 0.279603
vt 0.193585 0.269596
vt 0.193383 0.259590
vt 0.781458 0.017903
vt 0.733380 0.025517
vt 0.728269 0.018145
vt 0.778956 0.010419
vt 0.028055 0.773583
vt 0.049344 0.728921
vt 0.057726 0.728981
vt 0.036857 0.773475
vt 0.632600 0.118641
vt 0.632066 0.178363
vt 0.622414 0.180604
vt 0.622913 0.118648
vt 0.089028 0.595709
vt 0.087042 0.538375
vt 0.095811 0.533429
vt 0.098004 0.595517
vt 0.632100 0.277517
vt 0.622723 0.277704
vt 0.087060 0.444597
vt 0.095839 0.444599
vt 0.869226 0.420483
vt 0.871816 0.353253
vt 0.879728 0.353141
vt 0.876629 0.420993
vt 0.613783 0.139959
vt 0.613814 0.209604
vt 0.605670 0.209741
vt 0.605636 0.139969
vt 0.872206 0.275578
vt 0.880126 0.275645
vt 0.613819 0.289493
vt 0.605674 0.289492
vt 0.639213 0.442588
vt 0.629610 0.441585
vt 0.088913 0.285832
vt 0.098079 0.287477
vt 0.862776 0.474862
vt 0.870051 0.475359
vt 0.613669 0.076409
vt 0.605569 0.076368
vt 0.865209 0.073224
vt 0.872714 0.072765
vt 0.613698 0.502569
vt 0.605571 0.502629
vt 0.633295 0.109066
vt 0.623321 0.110373
vt 0.088851 0.603363
vt 0.098017 0.601722
vt 0.202907 0.142341
vt 0.202907 0.136169
vt 0.202907 0.129998
vt 0.205102 0.120262
vt 0.210401 0.111804
vt 0.246555 0.061785
vt 0.191871 0.197094
vt 0.090731 0.200666
vt 0.193904 0.285787
vt 0.108656 0.287444
vt 0.703018 0.469601
vt 0.819436 0.470388
vt 0.789022 0.479919
vt 0.039567 0.048339
vt 0.841695 0.473212
vt 0.848861 0.419919
vt 0.191806 0.692164
vt 0.090636 0.688549
vt 0.202907 0.441115
vt 0.246555 0.521670
vt 0.210401 0.471651
vt 0.205102 0.463193
vt 0.202907 0.453457
vt 0.202907 0.447286
vt 0.193875 0.603442
vt 0.108594 0.601758
vt 0.108660 0.595564
vt 0.193998 0.597255
vt 0.699225 0.079513
vt 0.714498 0.110598
vt 0.039479 0.840936
vt 0.820497 0.077688
vt 0.789002 0.067775
vt 0.843476 0.074806
vt 0.579909 0.076437
vt 0.435409 0.076199
vt 0.184181 0.039351
vt 0.389109 0.004445
vt 0.415710 0.004445
vt 0.423233 0.007561
vt 0.426350 0.015085
vt 0.426350 0.078713
vt 0.435248 0.502769
vt 0.580032 0.502598
vt 0.184033 0.849873
vt 0.426350 0.504743
vt 0.426350 0.568371
vt 0.423233 0.575894
vt 0.415709 0.579011
vt 0.389109 0.579011
vt 0.706730 0.158227
vt 0.108739 0.525107
vt 0.108771 0.364096
vt 0.108719 0.293638
vt 0.709928 0.393819
vt 0.717378 0.439524
vt 0.849876 0.353473
vt 0.850881 0.197113
vt 0.850582 0.129557
vt 0.761296 0.473860
vt 0.760176 0.074274
vt 0.754054 0.814300
vt 0.754813 0.859563
vt 0.747109 0.859631
vt 0.749678 0.814434
vt 0.108755 0.444601
vt 0.591968 0.665188
vt 0.591968 0.746806
vt 0.584264 0.746806
vt 0.584264 0.665188
vt 0.737999 0.677917
vt 0.737999 0.588420
vt 0.771207 0.550394
vt 0.771207 0.677917
vt 0.737999 0.767415
vt 0.771207 0.805440
vt 0.445958 0.723810
vt 0.445737 0.809303
vt 0.435239 0.819373
vt 0.435643 0.723810
vt 0.445737 0.638318
vt 0.435239 0.628248
vt 0.510736 0.631200
vt 0.505753 0.600939
vt 0.510736 0.816421
vt 0.574637 0.814029
vt 0.575374 0.864050
vt 0.505753 0.846682
vt 0.819395 0.470360
vt 0.194025 0.291972
vt 0.820540 0.077659
vt 0.574637 0.633591
vt 0.575374 0.583571
vt 0.575072 0.813151
vt 0.510465 0.723810
vt 0.574922 0.723810
vt 0.575072 0.634469
vt 0.782074 0.397598
vt 0.782811 0.153356
vt 0.455760 0.723810
vt 0.455605 0.800478
vt 0.455605 0.647143
vt 0.500940 0.642089
vt 0.500940 0.805532
vt 0.500704 0.723810
vt 0.379802 0.669518
vt 0.334860 0.669518
vt 0.334861 0.593343
vt 0.379802 0.587900
vt 0.379802 0.751136
vt 0.334860 0.745693
vt 0.890181 0.156794
vt 0.890181 0.080619
vt 0.894559 0.080619
vt 0.894559 0.156794
vt 0.591968 0.583571
vt 0.584264 0.583571
vt 0.763124 0.859531
vt 0.763883 0.814268
vt 0.768259 0.814403
vt 0.770828 0.859600
vt 0.890181 0.004445
vt 0.894559 0.004445
vt 0.850007 0.275398
vt 0.827759 0.275237
vt 0.826301 0.354275
vt 0.827051 0.196125
vt 0.827171 0.128536
vt 0.820604 0.077657
vt 0.819498 0.470390
vt 0.825908 0.420823
s 0
f 41/1/1 45/2/1 3/3/1 2/4/1
f 28/5/1 4/6/1 10/7/1 30/8/1
f 41/9/2 48/10/2 25/11/2 22/12/2
f 16/13/3 7/14/3 17/15/3 20/16/3
f 29/17/4 34/18/4 14/19/4 9/20/4
f 42/21/5 43/22/5 11/23/5 1/24/5
f 35/25/6 38/26/6 20/16/6 17/15/6
f 32/27/1 16/28/1 20/29/1 38/30/1
f 8/31/7 15/32/7 19/33/7 18/34/7
f 22/35/1 18/36/1 45/2/1 41/1/1
f 52/37/1 44/38/1 4/6/1 28/5/1
f 50/39/8 47/40/8 24/41/8 161/42/8
f 44/38/1 42/43/1 1/44/1 4/6/1
f 46/45/9 49/46/9 160/47/9 23/48/9
f 61/49/10 50/39/10 161/42/10 159/50/10
f 45/2/1 51/51/1 27/52/1 3/3/1
f 60/53/1 52/37/1 28/5/1 53/54/1
f 15/55/1 31/56/1 37/57/1 19/58/1
f 55/59/1 32/27/1 38/30/1 58/60/1
f 18/34/11 19/33/11 37/61/11 36/62/11
f 57/63/12 58/64/12 38/65/12 35/66/12
f 10/67/4 13/68/4 33/69/4 30/70/4
f 54/71/4 56/72/4 34/18/4 29/17/4
f 3/3/1 27/52/1 29/73/1 9/74/1
f 53/54/1 28/5/1 30/8/1 54/75/1
f 44/38/1 17/76/1 21/77/1 42/43/1
f 57/78/1 35/79/1 52/37/1 60/53/1
f 18/36/1 36/80/1 51/51/1 45/2/1
f 222/81/13 224/82/13 50/39/13 61/49/13
f 6/83/14 223/84/14 49/46/14 46/45/14
f 224/82/15 5/85/15 47/40/15 50/39/15
f 35/79/1 17/76/1 44/38/1 52/37/1
f 21/86/5 26/87/5 43/22/5 42/21/5
f 2/88/2 12/89/2 48/10/2 41/9/2
f 223/84/13 222/81/13 61/49/13 49/46/13
f 36/80/1 57/78/1 60/53/1 51/51/1
f 27/52/1 53/54/1 54/75/1 29/73/1
f 30/70/4 33/69/4 56/72/4 54/71/4
f 36/90/12 37/91/12 58/64/12 57/63/12
f 31/56/1 55/59/1 58/60/1 37/57/1
f 51/51/1 60/53/1 53/54/1 27/52/1
f 49/46/10 61/49/10 159/50/10 160/47/10
f 65/92/16 68/93/16 69/94/16 71/95/16
f 66/96/17 70/97/17 69/98/17 68/99/17
f 67/100/18 71/95/18 69/94/18 70/101/18
f 78/102/19 81/103/19 82/104/19 84/105/19
f 79/106/20 83/107/20 82/108/20 81/109/20
f 80/110/21 84/111/21 82/108/21 83/107/21
f 88/112/22 91/113/22 92/114/22 94/115/22
f 89/116/23 93/117/23 92/118/23 91/119/23
f 90/120/24 94/121/24 92/122/24 93/123/24
f 101/124/25 104/125/25 105/126/25 107/127/25
f 102/128/26 106/129/26 105/130/26 104/131/26
f 103/132/27 107/133/27 105/134/27 106/135/27
f 121/136/28 65/92/28 71/95/28 122/137/28
f 122/137/29 71/95/29 67/100/29 120/138/29
f 149/139/30 72/140/30 74/141/30 150/142/30
f 150/143/31 74/144/31 73/145/31 148/146/31
f 191/147/32 78/102/32 84/105/32 192/148/32
f 192/149/33 84/111/33 80/110/33 193/150/33
f 124/151/34 76/152/34 77/153/34 125/154/34
f 125/154/35 77/153/35 75/155/35 123/156/35
f 127/157/36 96/158/36 97/159/36 128/160/36
f 128/161/37 97/162/37 95/163/37 126/164/37
f 130/165/38 99/166/38 100/167/38 131/168/38
f 131/169/39 100/170/39 98/171/39 129/172/39
f 228/173/40 85/174/40 87/175/40 229/176/40
f 229/177/41 87/178/41 86/179/41 230/180/41
f 231/181/42 73/145/42 74/144/42 232/182/42
f 232/183/43 74/141/43 72/140/43 233/184/43
f 163/185/44 111/186/44 113/187/44 147/188/44
f 147/189/45 113/190/45 112/191/45 145/192/45
f 226/193/46 117/194/46 119/195/46 141/196/46
f 141/197/47 119/198/47 118/199/47 140/200/47
f 194/201/48 132/202/48 134/203/48 195/204/48
f 195/205/49 134/206/49 133/207/49 196/208/49
f 62/209/28 121/136/28 122/137/28 64/210/28
f 64/210/29 122/137/29 120/138/29 63/211/29
f 79/106/34 124/151/34 125/154/34 83/107/34
f 83/107/35 125/154/35 123/156/35 80/110/35
f 89/116/36 127/157/36 128/160/36 93/117/36
f 93/123/37 128/161/37 126/164/37 90/120/37
f 102/128/38 130/165/38 131/168/38 106/129/38
f 106/135/39 131/169/39 129/172/39 103/132/39
f 152/212/50 136/213/50 137/214/50 153/215/50
f 153/216/51 137/217/51 135/218/51 151/219/51
f 109/220/52 164/221/52 144/222/52 110/223/52
f 110/224/53 144/225/53 143/226/53 108/227/53
f 162/228/54 163/185/54 147/188/54 156/229/54
f 156/230/55 147/189/55 145/192/55 154/231/55
f 115/232/46 227/233/46 139/234/46 116/235/46
f 116/236/47 139/237/47 138/238/47 114/239/47
f 225/240/56 226/193/56 141/196/56 158/241/56
f 158/242/57 141/197/57 140/200/57 157/243/57
f 165/244/58 66/96/58 68/99/58 166/245/58
f 166/246/59 68/93/59 65/92/59 167/247/59
f 168/248/60 115/232/60 116/235/60 169/249/60
f 169/250/61 116/236/61 114/239/61 170/251/61
f 178/252/60 101/124/60 107/127/60 179/253/60
f 179/254/61 107/133/61 103/132/61 180/255/61
f 181/256/62 109/220/62 110/223/62 182/257/62
f 182/258/63 110/224/63 108/227/63 183/259/63
f 132/202/64 149/139/64 150/142/64 134/203/64
f 134/206/65 150/143/65 148/146/65 133/207/65
f 85/174/66 152/212/66 153/215/66 87/175/66
f 87/178/67 153/216/67 151/219/67 86/179/67
f 164/221/54 162/228/54 156/229/54 144/222/54
f 144/225/55 156/230/55 154/231/55 143/226/55
f 227/233/56 225/240/56 158/241/56 139/234/56
f 139/237/57 158/242/57 157/243/57 138/238/57
f 21/77/1 17/76/1 7/260/1 171/261/1 62/262/1 64/263/1 63/264/1 197/265/1
f 197/266/68 198/267/68 26/87/68 21/86/68
f 171/268/12 172/269/12 121/136/12 62/209/12
f 198/267/68 196/208/68 133/207/68 26/87/68
f 208/270/69 194/201/69 66/96/69 165/244/69
f 172/269/12 167/247/12 65/92/12 121/136/12
f 174/271/70 72/140/70 149/139/70 175/272/70
f 234/273/71 231/181/71 90/120/71 126/164/71
f 43/22/72 148/146/72 73/145/72 11/23/72
f 242/274/73 235/275/73 115/232/73 168/248/73
f 200/276/74 201/277/74 123/156/74 75/155/74
f 8/278/1 18/36/1 22/35/1 200/279/1 75/280/1 77/281/1 76/282/1 184/283/1
f 184/284/12 185/285/12 15/286/12 8/287/12
f 209/288/75 202/289/75 109/220/75 181/256/75
f 201/277/74 193/150/74 80/110/74 123/156/74
f 185/285/12 183/259/12 108/227/12 15/286/12
f 230/180/76 236/290/76 130/165/76 102/128/76
f 187/291/77 6/83/77 46/45/77 188/292/77
f 12/89/78 86/179/78 151/219/78 48/10/78
f 243/293/73 228/173/73 101/124/73 178/252/73
f 176/294/4 170/251/4 114/239/4 13/68/4
f 177/295/4 176/294/4 13/68/4 10/67/4
f 238/296/71 234/273/71 126/164/71 95/163/71
f 4/6/1 1/44/1 238/297/1 95/298/1 97/299/1 96/300/1 177/301/1 10/7/1
f 189/302/4 190/303/4 129/172/4 98/171/4
f 236/290/76 239/304/76 99/166/76 130/165/76
f 2/4/1 3/3/1 9/74/1 189/305/1 98/306/1 100/307/1 99/308/1 239/309/1
f 190/303/4 180/255/4 103/132/4 129/172/4
f 202/289/79 203/310/79 164/221/79 109/220/79
f 15/286/80 108/227/80 143/226/80 31/311/80
f 32/312/81 145/192/81 112/191/81 16/313/81
f 204/314/82 199/315/82 111/186/82 163/185/82
f 235/275/73 240/316/73 227/233/73 115/232/73
f 13/68/4 114/239/4 138/238/4 33/69/4
f 34/18/4 140/200/4 118/199/4 14/19/4
f 241/317/73 237/318/73 117/194/73 226/193/73
f 175/272/83 149/139/83 132/202/83 173/319/83
f 26/87/84 133/207/84 148/146/84 43/22/84
f 188/292/85 46/45/85 23/48/85 186/320/85
f 48/10/86 151/219/86 135/218/86 25/11/86
f 33/69/4 138/238/4 157/243/4 56/72/4
f 56/72/4 157/243/4 140/200/4 34/18/4
f 142/321/87 206/322/87 220/323/87 219/324/87
f 31/311/88 143/226/88 154/231/88 55/325/88
f 215/326/89 207/327/89 221/328/89 216/329/89
f 55/325/88 154/231/88 145/192/88 32/312/88
f 59/330/90 40/331/90 160/332/90 159/333/90
f 39/334/90 59/330/90 159/333/90 161/335/90
f 155/336/91 211/337/91 163/338/91 162/339/91
f 212/340/91 155/336/91 162/339/91 164/341/91
f 213/342/92 212/340/92 164/341/92 203/343/92
f 214/344/93 39/345/93 161/346/93 204/347/93
f 47/40/94 175/272/94 173/319/94 24/41/94
f 96/158/4 127/157/4 176/294/4 177/295/4
f 127/157/4 89/116/4 170/251/4 176/294/4
f 233/184/73 242/274/73 168/248/73 88/112/73
f 5/85/95 174/348/95 175/272/95 47/40/95
f 16/313/12 112/191/12 167/247/12 172/269/12
f 199/315/96 208/270/96 165/244/96 111/186/96
f 7/349/12 16/313/12 172/269/12 171/268/12
f 91/119/61 169/250/61 170/251/61 89/116/61
f 88/112/60 168/248/60 169/249/60 91/113/60
f 113/190/97 166/246/97 167/247/97 112/191/97
f 111/186/98 165/244/98 166/245/98 113/187/98
f 152/212/99 188/292/99 186/320/99 136/213/99
f 14/19/4 118/199/4 180/255/4 190/303/4
f 9/20/4 14/19/4 190/303/4 189/302/4
f 237/318/73 243/293/73 178/252/73 117/194/73
f 85/174/100 187/350/100 188/292/100 152/212/100
f 124/151/12 79/106/12 183/259/12 185/285/12
f 191/147/101 209/288/101 181/256/101 78/102/101
f 76/152/12 124/151/12 185/285/12 184/284/12
f 81/109/102 182/258/102 183/259/102 79/106/102
f 78/102/103 181/256/103 182/257/103 81/103/103
f 119/198/61 179/254/61 180/255/61 118/199/61
f 117/194/60 178/252/60 179/253/60 119/195/60
f 136/213/104 186/320/104 209/288/104 191/147/104
f 24/41/105 173/319/105 208/270/105 199/315/105
f 211/337/106 214/344/106 204/347/106 163/338/106
f 40/351/107 213/342/107 203/343/107 160/352/107
f 39/353/108 214/344/108 205/354/108 59/355/108
f 59/355/108 205/354/108 213/342/108 40/356/108
f 161/357/109 24/41/109 199/315/109 204/314/109
f 23/48/110 160/358/110 203/310/110 202/289/110
f 25/11/111 135/218/111 193/150/111 201/277/111
f 186/320/112 23/48/112 202/289/112 209/288/112
f 22/12/111 25/11/111 201/277/111 200/276/111
f 173/319/113 132/202/113 194/201/113 208/270/113
f 120/138/114 67/100/114 196/208/114 198/267/114
f 63/211/114 120/138/114 198/267/114 197/266/114
f 70/101/115 195/205/115 196/208/115 67/100/115
f 66/96/116 194/201/116 195/204/116 70/97/116
f 137/217/117 192/149/117 193/150/117 135/218/117
f 136/213/118 191/147/118 192/148/118 137/214/118
f 210/359/108 146/360/108 211/337/108 155/336/108
f 142/361/108 210/359/108 155/336/108 212/340/108
f 206/362/108 142/361/108 212/340/108 213/342/108
f 146/360/108 207/363/108 214/344/108 211/337/108
f 207/363/108 215/364/108 205/354/108 214/344/108
f 215/364/108 206/362/108 213/342/108 205/354/108
f 216/365/119 217/366/119 219/367/119 220/368/119
f 221/369/119 218/370/119 217/366/119 216/365/119
f 146/371/120 210/372/120 217/373/120 218/374/120
f 206/375/89 215/326/89 216/329/89 220/376/89
f 207/377/121 146/378/121 218/379/121 221/380/121
f 210/372/120 142/381/120 219/382/120 217/373/120
f 225/240/73 244/383/73 241/317/73 226/193/73
f 240/316/73 244/383/73 225/240/73 227/233/73
f 222/384/73 244/383/73 240/316/73 224/385/73
f 223/386/73 241/317/73 244/383/73 222/384/73
f 6/387/73 187/388/73 243/293/73 237/318/73
f 72/140/73 174/389/73 242/274/73 233/184/73
f 223/386/73 6/387/73 237/318/73 241/317/73
f 5/390/73 224/385/73 240/316/73 235/275/73
f 12/89/76 2/88/76 239/304/76 236/290/76
f 1/24/71 11/23/71 234/273/71 238/296/71
f 187/388/73 85/174/73 228/173/73 243/293/73
f 86/179/76 12/89/76 236/290/76 230/180/76
f 174/389/73 5/390/73 235/275/73 242/274/73
f 11/23/71 73/145/71 231/181/71 234/273/71
f 94/115/122 232/183/122 233/184/122 88/112/122
f 90/120/123 231/181/123 232/182/123 94/121/123
f 104/131/124 229/177/124 230/180/124 102/128/124
f 101/124/125 228/173/125 229/176/125 104/125/125
o Jug1
v 2.119498 1.700000 3.780503
v 2.093401 1.740000 3.806599
v 2.119498 1.700000 4.019497
v 2.093401 1.740000 3.993401
v 1.880503 1.700000 3.780503
v 1.906599 1.740000 3.806599
v 1.880503 1.700000 4.019497
v 1.906599 1.740000 3.993401
v 2.000000 1.700000 4.068995
v 2.000000 1.740000 4.032089
v 2.000000 1.700000 3.731005
v 2.000000 1.740000 3.767911
v 2.168995 1.700000 3.900000
v 2.132089 1.740000 3.900000
v 1.831005 1.700000 3.900000
v 1.867911 1.740000 3.900000
v 2.000000 1.700000 3.900000
v 2.168995 1.740000 3.900000
v 2.119498 1.740000 4.019497
v 2.000000 1.740000 4.068995
v 1.880503 1.740000 4.019497
v 1.831005 1.740000 3.900000
v 1.880503 1.740000 3.780503
v 2.000000 1.740000 3.731005
v 2.119498 1.740000 3.780503
v 2.000000 2.217732 3.900000
v 2.000000 2.101881 3.767911
v 2.000000 2.101881 4.032089
v 1.867911 2.101881 3.900000
v 2.132089 2.101881 3.900000
v 2.093401 2.101881 3.993401
v 1.906599 2.101881 3.993401
v 1.906599 2.101881 3.806599
v 2.093401 2.101881 3.806599
v 2.000000 2.161425 3.794329
v 2.000000 2.161425 4.005671
v 1.894329 2.161425 3.900000
v 2.105671 2.161425 3.900000
v 2.074721 2.161425 3.974721
v 1.925279 2.161425 3.974721
v 1.925279 2.161425 3.825279
v 2.074721 2.161425 3.825279
v 2.000000 2.211146 3.857731
v 2.000000 2.211146 3.942268
v 1.957731 2.211146 3.900000
v 2.042269 2.211146 3.900000
v 2.029888 2.211146 3.929888
v 1.970112 2.211146 3.929888
v 1.970112 2.211146 3.870112
v 2.029888 2.211146 3.870111
vn 0.9239 -0.0000 0.3827
vn -0.3827 -0.0000 0.9239
vn -0.9239 -0.0000 -0.3827
vn 0.3827 -0.0000 -0.9239
vn -0.0000 -1.0000 -0.0000
vn -0.3827 -0.0000 -0.9239
vn 0.3827 -0.0000 0.9239
vn 0.9239 -0.0000 -0.3827
vn -0.9239 -0.0000 0.3827
vn -0.0000 1.0000 -0.0000
vn 0.3541 0.3793 -0.8549
vn -0.3541 0.3793 -0.8549
vn -0.8549 0.3793 0.3541
vn 0.8549 0.3793 0.3541
vn 0.5979 0.7624 0.2476
vn -0.5979 0.7624 -0.2476
vn 0.2476 0.7624 0.5979
vn 0.5979 0.7624 -0.2476
vn -0.3541 0.3793 0.8549
vn 0.8549 0.3793 -0.3541
vn 0.3541 0.3793 0.8549
vn -0.8549 0.3793 -0.3541
vn 0.1089 0.9881 -0.1089
vn -0.1089 0.9881 -0.1089
vn -0.1089 0.9881 0.1089
vn 0.1089 0.9881 0.1089
vn -0.5979 0.7624 0.2476
vn -0.2476 0.7624 -0.5979
vn 0.2476 0.7624 -0.5979
vn -0.2476 0.7624 0.5979
vt 0.915841 0.586400
vt 0.911648 0.586400
vt 0.911648 0.572842
vt 0.915841 0.572842
vt 0.915841 0.631296
vt 0.911648 0.631296
vt 0.911648 0.617737
vt 0.915841 0.617737
vt 0.907284 0.429246
vt 0.911477 0.429246
vt 0.911477 0.442804
vt 0.907284 0.442804
vt 0.907284 0.451694
vt 0.911477 0.451694
vt 0.911477 0.465252
vt 0.907284 0.465252
vt 0.104502 0.909999
vt 0.104502 0.892284
vt 0.117028 0.897472
vt 0.122217 0.909999
vt 0.515614 0.975096
vt 0.506095 0.979361
vt 0.490828 0.945289
vt 0.500347 0.941024
vt 0.461771 0.878361
vt 0.471714 0.874166
vt 0.486729 0.909758
vt 0.476786 0.913952
vt 0.104502 0.927714
vt 0.117028 0.922525
vt 0.914108 0.644730
vt 0.918301 0.644730
vt 0.918301 0.658288
vt 0.914108 0.658288
vt 0.915841 0.608848
vt 0.911648 0.608848
vt 0.911648 0.595289
vt 0.915841 0.595289
vt 0.091975 0.922525
vt 0.086787 0.909999
vt 0.540888 0.943037
vt 0.537013 0.952695
vt 0.502440 0.938824
vt 0.506315 0.929166
vt 0.474246 0.981924
vt 0.464108 0.978169
vt 0.477550 0.941878
vt 0.487689 0.945633
vt 0.091975 0.897472
vt 0.918301 0.680736
vt 0.914108 0.680736
vt 0.914108 0.667178
vt 0.918301 0.667178
vt 0.911648 0.550394
vt 0.915841 0.550394
vt 0.915841 0.563952
vt 0.911648 0.563952
vt 0.140189 0.897489
vt 0.133082 0.905349
vt 0.129438 0.904050
vt 0.138531 0.893994
vt 0.133614 0.915933
vt 0.141475 0.923041
vt 0.140176 0.926685
vt 0.130119 0.917592
vt 0.152059 0.922509
vt 0.159166 0.914648
vt 0.162810 0.915947
vt 0.153717 0.926004
vt 0.158634 0.904064
vt 0.150773 0.896956
vt 0.152072 0.893312
vt 0.162129 0.902406
vt 0.475082 0.939683
vt 0.470543 0.929745
vt 0.477323 0.927849
vt 0.480955 0.935800
vt 0.470577 0.926359
vt 0.474486 0.916375
vt 0.480450 0.919862
vt 0.489972 0.909650
vt 0.500106 0.913705
vt 0.496512 0.919750
vt 0.488404 0.916506
vt 0.489065 0.938804
vt 0.496680 0.935392
vt 0.504486 0.873374
vt 0.514620 0.877429
vt 0.434840 0.912366
vt 0.438749 0.902382
vt 0.439508 0.955934
vt 0.434968 0.945996
vt 0.537819 0.901538
vt 0.541904 0.911432
vt 0.506487 0.926055
vt 0.502401 0.916160
vt 0.488704 0.931336
vt 0.491326 0.930233
vt 0.488469 0.924107
vt 0.485824 0.925134
vt 0.499780 0.927666
vt 0.492325 0.927570
vt 0.486060 0.930350
vt 0.338983 0.919903
vt 0.338983 0.915441
vt 0.342138 0.916748
vt 0.343445 0.919903
vt 0.338983 0.924365
vt 0.342138 0.923058
vt 0.335828 0.923058
vt 0.334521 0.919903
vt 0.335828 0.916748
vt 0.491121 0.925021
vt 0.484866 0.927829
s 0
f 257/391/126 262/392/126 263/393/126 247/394/126
f 253/395/127 264/396/127 265/397/127 251/398/127
f 259/399/128 266/400/128 267/401/128 249/402/128
f 255/403/129 268/404/129 269/405/129 245/406/129
f 261/407/130 259/408/130 249/409/130 255/410/130
f 248/411/126 258/412/126 274/413/126 275/414/126
f 250/415/128 260/416/128 273/417/128 277/418/128
f 257/419/130 261/407/130 255/410/130 245/420/130
f 249/421/131 267/422/131 268/423/131 255/424/131
f 247/425/132 263/426/132 264/427/132 253/428/132
f 247/429/130 253/430/130 261/407/130 257/419/130
f 254/431/132 248/432/132 275/433/132 272/434/132
f 258/435/133 246/436/133 278/437/133 274/438/133
f 253/430/130 251/439/130 259/408/130 261/407/130
f 251/440/134 265/441/134 266/442/134 259/443/134
f 245/444/133 269/445/133 262/446/133 257/447/133
f 258/448/135 248/449/135 263/450/135 262/451/135
f 254/452/135 252/453/135 265/454/135 264/455/135
f 260/456/135 250/457/135 267/458/135 266/459/135
f 256/460/135 246/461/135 269/462/135 268/463/135
f 248/449/135 254/452/135 264/455/135 263/450/135
f 250/457/135 256/460/135 268/463/135 267/458/135
f 246/461/135 258/448/135 262/451/135 269/462/135
f 252/453/135 260/456/135 266/459/135 265/454/135
f 278/464/136 271/465/136 279/466/136 286/467/136
f 271/468/137 277/469/137 285/470/137 279/466/137
f 273/471/138 276/472/138 284/473/138 281/474/138
f 275/414/139 274/413/139 282/475/139 283/476/139
f 260/477/134 252/478/134 276/472/134 273/471/134
f 256/479/131 250/480/131 277/469/131 271/468/131
f 246/481/129 256/482/129 271/465/129 278/464/129
f 252/483/127 254/484/127 272/485/127 276/486/127
f 283/476/140 282/475/140 290/487/140 291/488/140
f 285/470/141 281/474/141 289/489/141 293/490/141
f 280/491/142 283/476/142 291/488/142 288/492/142
f 282/475/143 286/467/143 294/493/143 290/487/143
f 276/486/144 272/485/144 280/491/144 284/473/144
f 274/438/145 278/437/145 286/467/145 282/475/145
f 272/434/146 275/433/146 283/476/146 280/491/146
f 277/418/147 273/417/147 281/474/147 285/470/147
f 270/494/148 290/495/148 294/496/148 287/497/148
f 289/498/149 270/494/149 287/497/149 293/499/149
f 292/500/150 288/501/150 270/494/150 289/498/150
f 288/501/151 291/502/151 290/495/151 270/494/151
f 281/474/152 284/473/152 292/503/152 289/489/152
f 279/466/153 285/470/153 293/490/153 287/504/153
f 286/467/154 279/466/154 287/504/154 294/493/154
f 284/473/155 280/491/155 288/492/155 292/503/155
o Jug2
v 1.719497 1.700000 3.780503
v 1.693401 1.740000 3.806599
v 1.719497 1.700000 4.019497
v 1.693401 1.740000 3.993401
v 1.480503 1.700000 3.780503
v 1.506599 1.740000 3.806599
v 1.480503 1.700000 4.019497
v 1.506599 1.740000 3.993401
v 1.600000 1.700000 4.068995
v 1.600000 1.740000 4.032089
v 1.600000 1.700000 3.731005
v 1.600000 1.740000 3.767911
v 1.768995 1.700000 3.900000
v 1.732089 1.740000 3.900000
v 1.431005 1.700000 3.900000
v 1.467911 1.740000 3.900000
v 1.600000 1.700000 3.900000
v 1.768995 1.740000 3.900000
v 1.719497 1.740000 4.019497
v 1.600000 1.740000 4.068995
v 1.480503 1.740000 4.019497
v 1.431005 1.740000 3.900000
v 1.480503 1.740000 3.780503
v 1.600000 1.740000 3.731005
v 1.719497 1.740000 3.780503
v 1.600000 2.617733 3.900000
v 1.600000 2.501881 3.767911
v 1.600000 2.501881 4.032089
v 1.467911 2.501881 3.900000
v 1.732089 2.501881 3.900000
v 1.693401 2.501881 3.993401
v 1.506599 2.501881 3.993401
v 1.506599 2.501881 3.806599
v 1.693401 2.501881 3.806599
v 1.600000 2.561425 3.794329
v 1.600000 2.561425 4.005671
v 1.494329 2.561425 3.900000
v 1.705671 2.561425 3.900000
v 1.674721 2.561425 3.974721
v 1.525279 2.561425 3.974721
v 1.525279 2.561425 3.825279
v 1.674721 2.561425 3.825279
v 1.600000 2.611146 3.857731
v 1.600000 2.611146 3.942268
v 1.557732 2.611146 3.900000
v 1.642269 2.611146 3.900000
v 1.629888 2.611146 3.929888
v 1.570112 2.611146 3.929888
v 1.570112 2.611146 3.870112
v 1.629888 2.611146 3.870111
v 1.674721 2.120940 3.974721
v 1.705671 2.120940 3.900000
v 1.494329 2.120940 3.900000
v 1.525279 2.120940 3.825279
v 1.674721 2.120940 3.825279
v 1.600000 2.120940 3.794329
v 1.525279 2.120940 3.974721
v 1.600000 2.120940 4.005672
v 1.600000 2.070940 4.032089
v 1.600000 2.170940 4.032089
v 1.693401 2.070940 3.993401
v 1.693401 2.170940 3.993401
v 1.732089 2.170940 3.900000
v 1.732089 2.070940 3.900000
v 1.693401 2.170940 3.806599
v 1.693401 2.070940 3.806599
v 1.467911 2.170940 3.900000
v 1.467911 2.070940 3.900000
v 1.506599 2.070940 3.806599
v 1.506599 2.170940 3.806599
v 1.506599 2.170940 3.993401
v 1.506599 2.070940 3.993401
v 1.600000 2.070940 3.767911
v 1.600000 2.170940 3.767911
vn 0.9239 -0.0000 0.3827
vn -0.3827 -0.0000 0.9239
vn -0.9239 -0.0000 -0.3827
vn 0.3827 -0.0000 -0.9239
vn -0.0000 -1.0000 -0.0000
vn -0.3439 -0.4387 -0.8302
vn 0.8302 -0.4387 -0.3439
vn -0.3827 -0.0000 -0.9239
vn 0.3827 -0.0000 0.9239
vn -0.9239 -0.0000 0.3827
vn 0.9239 -0.0000 -0.3827
vn -0.0000 1.0000 -0.0000
vn 0.3541 0.3793 -0.8549
vn -0.3541 0.3793 -0.8549
vn -0.8549 0.3793 0.3541
vn 0.8549 0.3793 0.3541
vn -0.3439 -0.4387 0.8302
vn 0.5979 0.7624 0.2476
vn -0.5979 0.7624 -0.2476
vn 0.2476 0.7624 0.5979
vn 0.5979 0.7624 -0.2476
vn -0.3541 0.3793 0.8549
vn 0.8549 0.3793 -0.3541
vn 0.3541 0.3793 0.8549
vn -0.8549 0.3793 -0.3541
vn 0.1089 0.9881 -0.1089
vn -0.1089 0.9881 -0.1089
vn -0.1089 0.9881 0.1089
vn 0.1089 0.9881 0.1089
vn -0.5979 0.7624 0.2476
vn -0.2476 0.7624 -0.5979
vn 0.2476 0.7624 -0.5979
vn -0.2476 0.7624 0.5979
vn 0.3439 -0.4387 -0.8302
vn -0.8302 -0.4387 0.3439
vn 0.3439 -0.4387 0.8302
vn -0.8302 -0.4387 -0.3439
vn 0.8302 -0.4387 0.3439
vn -0.3439 0.4387 0.8302
vn 0.3439 0.4387 -0.8302
vn -0.3439 0.4387 -0.8302
vn -0.8302 0.4387 0.3439
vn 0.8302 0.4387 -0.3439
vn 0.3439 0.4387 0.8302
vn -0.8302 0.4387 -0.3439
vn 0.8302 0.4387 0.3439
vt 0.911506 0.403903
vt 0.907285 0.403903
vt 0.907285 0.390252
vt 0.911506 0.390252
vt 0.878328 0.908234
vt 0.874107 0.908234
vt 0.874107 0.894583
vt 0.878328 0.894583
vt 0.767725 0.904680
vt 0.763503 0.904680
vt 0.763503 0.891029
vt 0.767725 0.891029
vt 0.907284 0.322632
vt 0.911506 0.322632
vt 0.911506 0.336283
vt 0.907284 0.336283
vt 0.020923 0.910110
vt 0.038758 0.910110
vt 0.033534 0.922722
vt 0.020923 0.927946
vt 0.652838 0.960409
vt 0.662930 0.964679
vt 0.659571 0.969806
vt 0.651497 0.966390
vt 0.725659 0.937932
vt 0.729631 0.927847
vt 0.734785 0.931042
vt 0.731606 0.939110
vt 0.003087 0.910110
vt 0.008311 0.922722
vt 0.907285 0.367712
vt 0.911506 0.367712
vt 0.911506 0.381363
vt 0.907285 0.381363
vt 0.911506 0.313743
vt 0.907285 0.313743
vt 0.907285 0.300092
vt 0.911506 0.300092
vt 0.008311 0.897498
vt 0.020923 0.892274
vt 0.033534 0.897498
vt 0.763503 0.868489
vt 0.767724 0.868489
vt 0.767724 0.882140
vt 0.763503 0.882140
vt 0.911506 0.358823
vt 0.907285 0.358823
vt 0.907285 0.345172
vt 0.911506 0.345172
vt 0.056811 0.897507
vt 0.049643 0.905411
vt 0.045976 0.904098
vt 0.055146 0.893985
vt 0.050164 0.916068
vt 0.058068 0.923235
vt 0.056755 0.926902
vt 0.046643 0.917732
vt 0.068725 0.922714
vt 0.075893 0.914810
vt 0.079560 0.916123
vt 0.070390 0.926235
vt 0.075372 0.904153
vt 0.067467 0.896986
vt 0.068781 0.893319
vt 0.078893 0.902488
vt 0.690330 0.927336
vt 0.680321 0.931587
vt 0.678616 0.924791
vt 0.686623 0.921390
vt 0.676907 0.931642
vt 0.666815 0.927372
vt 0.670542 0.921375
vt 0.660603 0.911729
vt 0.664678 0.901964
vt 0.670487 0.905534
vt 0.667227 0.913346
vt 0.692225 0.901735
vt 0.696499 0.911586
vt 0.689801 0.913322
vt 0.686382 0.905441
vt 0.663545 0.863298
vt 0.653675 0.867345
vt 0.652434 0.861508
vt 0.660331 0.858271
vt 0.682173 0.913608
vt 0.681123 0.910889
vt 0.674727 0.913523
vt 0.675888 0.916036
vt 0.678382 0.902297
vt 0.678403 0.909876
vt 0.681018 0.916234
vt 0.666923 0.899656
vt 0.676794 0.895609
vt 0.696618 0.914842
vt 0.692645 0.924927
vt 0.679884 0.895539
vt 0.689883 0.899469
vt 0.664568 0.925017
vt 0.660424 0.914981
vt 0.907599 0.152620
vt 0.903106 0.152620
vt 0.904422 0.149444
vt 0.907599 0.148128
vt 0.912091 0.152620
vt 0.910775 0.149444
vt 0.910775 0.155797
vt 0.907599 0.157113
vt 0.904422 0.155797
vt 0.675746 0.910873
vt 0.678387 0.917220
vt 0.694238 0.964350
vt 0.704246 0.960099
vt 0.705585 0.966033
vt 0.697578 0.969434
vt 0.632712 0.888625
vt 0.628637 0.898390
vt 0.623670 0.895171
vt 0.626930 0.887359
vt 0.702749 0.866737
vt 0.692750 0.862807
vt 0.695913 0.857696
vt 0.703912 0.860841
vt 0.627572 0.928547
vt 0.631716 0.938583
vt 0.625778 0.939860
vt 0.622463 0.931831
vt 0.728748 0.897595
vt 0.724473 0.887743
vt 0.730323 0.886376
vt 0.733742 0.894257
vt 0.916887 0.206483
vt 0.908352 0.206483
vt 0.907285 0.200611
vt 0.917954 0.200611
vt 0.916887 0.256171
vt 0.908352 0.256171
vt 0.907285 0.250299
vt 0.917954 0.250299
vt 0.610460 0.907396
vt 0.601924 0.907396
vt 0.600857 0.901524
vt 0.611527 0.901524
vt 0.904151 0.685530
vt 0.895616 0.685529
vt 0.894549 0.679657
vt 0.905218 0.679657
vt 0.579097 0.913739
vt 0.570562 0.913739
vt 0.569495 0.907867
vt 0.580164 0.907867
vt 0.753547 0.909287
vt 0.745011 0.909287
vt 0.743944 0.903415
vt 0.754614 0.903415
vt 0.559538 0.913739
vt 0.551003 0.913739
vt 0.549936 0.907867
vt 0.560605 0.907867
vt 0.913051 0.139580
vt 0.904515 0.139580
vt 0.903448 0.133708
vt 0.914118 0.133708
vt 0.743944 0.868487
vt 0.754614 0.868487
vt 0.907285 0.165683
vt 0.917954 0.165683
vt 0.903448 0.098781
vt 0.914118 0.098781
vt 0.569495 0.872940
vt 0.580164 0.872940
vt 0.907284 0.215372
vt 0.917954 0.215372
vt 0.549936 0.872940
vt 0.560605 0.872940
vt 0.894549 0.644730
vt 0.905218 0.644730
vt 0.600857 0.866597
vt 0.611527 0.866597
s 0
f 307/505/156 312/506/156 313/507/156 297/508/156
f 303/509/157 314/510/157 315/511/157 301/512/157
f 309/513/158 316/514/158 317/515/158 299/516/158
f 305/517/159 318/518/159 319/519/159 295/520/159
f 311/521/160 309/522/160 299/523/160 305/524/160
f 364/525/161 368/526/161 350/527/161 348/528/161
f 359/529/162 357/530/162 346/531/162 349/532/162
f 307/533/160 311/521/160 305/524/160 295/534/160
f 299/535/163 317/536/163 318/537/163 305/538/163
f 297/539/164 313/540/164 314/541/164 303/542/164
f 297/543/160 303/544/160 311/521/160 307/533/160
f 303/544/160 301/545/160 309/522/160 311/521/160
f 301/546/165 315/547/165 316/548/165 309/549/165
f 295/550/166 319/551/166 312/552/166 307/553/166
f 308/554/167 298/555/167 313/556/167 312/557/167
f 304/558/167 302/559/167 315/560/167 314/561/167
f 310/562/167 300/563/167 317/564/167 316/565/167
f 306/566/167 296/567/167 319/568/167 318/569/167
f 298/555/167 304/558/167 314/561/167 313/556/167
f 300/563/167 306/566/167 318/569/167 317/564/167
f 296/567/167 308/554/167 312/557/167 319/568/167
f 302/559/167 310/562/167 316/565/167 315/560/167
f 328/570/168 321/571/168 329/572/168 336/573/168
f 321/574/169 327/575/169 335/576/169 329/572/169
f 323/577/170 326/578/170 334/579/170 331/580/170
f 325/581/171 324/582/171 332/583/171 333/584/171
f 354/585/172 365/586/172 351/587/172 352/588/172
f 333/584/173 332/583/173 340/589/173 341/590/173
f 335/576/174 331/580/174 339/591/174 343/592/174
f 330/593/175 333/584/175 341/590/175 338/594/175
f 332/583/176 336/573/176 344/595/176 340/589/176
f 326/596/177 322/597/177 330/593/177 334/579/177
f 324/598/178 328/599/178 336/573/178 332/583/178
f 322/600/179 325/601/179 333/584/179 330/593/179
f 327/602/180 323/603/180 331/580/180 335/576/180
f 320/604/181 340/605/181 344/606/181 337/607/181
f 339/608/182 320/604/182 337/607/182 343/609/182
f 342/610/183 338/611/183 320/604/183 339/608/183
f 338/611/184 341/612/184 340/605/184 320/604/184
f 331/580/185 334/579/185 342/613/185 339/591/185
f 329/572/186 335/576/186 343/592/186 337/614/186
f 336/573/187 329/572/187 337/614/187 344/595/187
f 334/579/188 330/593/188 338/594/188 342/613/188
f 368/615/189 359/616/189 349/617/189 350/618/189
f 365/619/190 361/620/190 347/621/190 351/622/190
f 356/623/191 354/624/191 352/625/191 345/626/191
f 361/627/192 364/628/192 348/629/192 347/630/192
f 357/631/193 356/632/193 345/633/193 346/634/193
f 352/635/194 351/636/194 366/637/194 353/638/194
f 350/639/195 349/640/195 360/641/195 367/642/195
f 348/643/196 350/644/196 367/645/196 363/646/196
f 351/647/197 347/648/197 362/649/197 366/650/197
f 349/651/198 346/652/198 358/653/198 360/654/198
f 345/655/199 352/656/199 353/657/199 355/658/199
f 347/659/200 348/660/200 363/661/200 362/662/200
f 346/663/201 345/664/201 355/665/201 358/666/201
f 304/667/164 298/668/164 355/658/164 353/657/164
f 365/586/157 354/585/157 322/597/157 326/596/157
f 302/669/157 304/670/157 353/638/157 366/637/157
f 354/624/164 356/623/164 325/601/164 322/600/164
f 298/671/156 308/672/156 358/666/156 355/665/156
f 356/632/156 357/631/156 324/582/156 325/581/156
f 308/673/166 296/674/166 360/654/166 358/653/166
f 357/530/166 359/529/166 328/599/166 324/598/166
f 359/616/159 368/615/159 321/571/159 328/570/159
f 296/675/159 306/676/159 367/642/159 360/641/159
f 361/620/165 365/619/165 326/578/165 323/577/165
f 300/677/158 310/678/158 362/662/158 363/661/158
f 364/628/158 361/627/158 323/603/158 327/602/158
f 310/679/165 302/680/165 366/650/165 362/649/165
f 368/526/163 364/525/163 327/575/163 321/574/163
f 306/681/163 300/682/163 363/646/163 367/645/163
o Jug3
v -1.450503 1.700000 3.780503
v -1.476599 1.740000 3.806599
v -1.450503 1.700000 4.019497
v -1.476599 1.740000 3.993401
v -1.689497 1.700000 3.780503
v -1.663401 1.740000 3.806599
v -1.689497 1.700000 4.019497
v -1.663401 1.740000 3.993401
v -1.570000 1.700000 4.068995
v -1.570000 1.740000 4.032089
v -1.570000 1.700000 3.731005
v -1.570000 1.740000 3.767911
v -1.401005 1.700000 3.900000
v -1.437911 1.740000 3.900000
v -1.738995 1.700000 3.900000
v -1.702089 1.740000 3.900000
v -1.570000 1.700000 3.900000
v -1.401005 1.740000 3.900000
v -1.450503 1.740000 4.019497
v -1.570000 1.740000 4.068995
v -1.689497 1.740000 4.019497
v -1.738995 1.740000 3.900000
v -1.689497 1.740000 3.780503
v -1.570000 1.740000 3.731005
v -1.450503 1.740000 3.780503
v -1.570000 2.217732 3.900000
v -1.570000 2.101881 3.767911
v -1.570000 2.101881 4.032089
v -1.702089 2.101881 3.900000
v -1.437911 2.101881 3.900000
v -1.476599 2.101881 3.993401
v -1.663401 2.101881 3.993401
v -1.663401 2.101881 3.806599
v -1.476599 2.101881 3.806599
v -1.570000 2.161425 3.794329
v -1.570000 2.161425 4.005671
v -1.675671 2.161425 3.900000
v -1.464329 2.161425 3.900000
v -1.495279 2.161425 3.974721
v -1.644721 2.161425 3.974721
v -1.644721 2.161425 3.825279
v -1.495279 2.161425 3.825279
v -1.570000 2.211146 3.857731
v -1.570000 2.211146 3.942268
v -1.612268 2.211146 3.900000
v -1.527731 2.211146 3.900000
v -1.540112 2.211146 3.929888
v -1.599888 2.211146 3.929888
v -1.599888 2.211146 3.870112
v -1.540112 2.211146 3.870111
vn 0.9239 -0.0000 0.3827
vn -0.3827 -0.0000 0.9239
vn -0.9239 -0.0000 -0.3827
vn 0.3827 -0.0000 -0.9239
vn -0.0000 -1.0000 -0.0000
vn -0.3827 -0.0000 -0.9239
vn 0.3827 -0.0000 0.9239
vn 0.9239 -0.0000 -0.3827
vn -0.9239 -0.0000 0.3827
vn -0.0000 1.0000 -0.0000
vn 0.3541 0.3793 -0.8549
vn -0.3541 0.3793 -0.8549
vn -0.8549 0.3793 0.3541
vn 0.8549 0.3793 0.3541
vn 0.5979 0.7624 0.2476
vn -0.5979 0.7624 -0.2476
vn 0.2476 0.7624 0.5979
vn 0.5979 0.7624 -0.2476
vn -0.3541 0.3793 0.8549
vn 0.8549 0.3793 -0.3541
vn 0.3541 0.3793 0.8549
vn -0.8549 0.3793 -0.3541
vn 0.1089 0.9881 -0.1089
vn -0.1089 0.9881 -0.1089
vn -0.1089 0.9881 0.1089
vn 0.1089 0.9881 0.1089
vn -0.5979 0.7624 0.2476
vn -0.2476 0.7624 -0.5979
vn 0.2476 0.7624 -0.5979
vn -0.2476 0.7624 0.5979
vt 0.920366 0.429246
vt 0.924510 0.429246
vt 0.924510 0.442646
vt 0.920366 0.442646
vt 0.924510 0.465094
vt 0.920366 0.465094
vt 0.920366 0.451694
vt 0.924510 0.451694
vt 0.920547 0.004445
vt 0.924691 0.004445
vt 0.924691 0.017845
vt 0.920547 0.017845
vt 0.920395 0.345172
vt 0.924539 0.345172
vt 0.924540 0.358572
vt 0.920395 0.358572
vt 0.219082 0.922635
vt 0.236590 0.922635
vt 0.231462 0.935014
vt 0.219082 0.940142
vt 0.958229 0.862587
vt 0.968090 0.866546
vt 0.953919 0.901846
vt 0.944058 0.897887
vt 0.925815 0.968537
vt 0.915974 0.964333
vt 0.931020 0.929107
vt 0.940861 0.933310
vt 0.201575 0.922635
vt 0.206703 0.935014
vt 0.920395 0.322883
vt 0.924539 0.322883
vt 0.924539 0.336283
vt 0.920395 0.336283
vt 0.924539 0.381112
vt 0.920395 0.381112
vt 0.920395 0.367712
vt 0.924539 0.367712
vt 0.206703 0.910255
vt 0.219082 0.905127
vt 0.916365 0.867376
vt 0.926067 0.863243
vt 0.940863 0.897971
vt 0.931161 0.902104
vt 0.991005 0.889104
vt 0.995191 0.898832
vt 0.960372 0.913817
vt 0.956186 0.904090
vt 0.231462 0.910255
vt 0.920395 0.390001
vt 0.924539 0.390001
vt 0.924539 0.403401
vt 0.920395 0.403401
vt 0.924539 0.313492
vt 0.920395 0.313492
vt 0.920395 0.300092
vt 0.924539 0.300092
vt 0.254636 0.935082
vt 0.265103 0.935456
vt 0.266439 0.939039
vt 0.253048 0.938560
vt 0.272769 0.928320
vt 0.273143 0.917853
vt 0.276726 0.916517
vt 0.276247 0.929909
vt 0.266007 0.910187
vt 0.255540 0.909813
vt 0.254204 0.906230
vt 0.267596 0.906710
vt 0.247874 0.916949
vt 0.247500 0.927416
vt 0.243917 0.928752
vt 0.244397 0.915361
vt 0.960459 0.917063
vt 0.956463 0.926957
vt 0.950565 0.923424
vt 0.953762 0.915509
vt 0.954114 0.929399
vt 0.944098 0.933401
vt 0.942552 0.926625
vt 0.928929 0.926698
vt 0.925047 0.917054
vt 0.931574 0.915548
vt 0.934679 0.923263
vt 0.950413 0.907727
vt 0.942524 0.904560
vt 0.894408 0.940593
vt 0.890526 0.930950
vt 0.968439 0.965251
vt 0.958424 0.969253
vt 0.995875 0.931367
vt 0.991879 0.941261
vt 0.890696 0.899706
vt 0.894681 0.890105
vt 0.929049 0.904370
vt 0.925064 0.913971
vt 0.945301 0.913206
vt 0.942767 0.912012
vt 0.940069 0.918179
vt 0.942640 0.919189
vt 0.934762 0.907867
vt 0.940140 0.912998
vt 0.946325 0.915800
vt 0.356069 0.919855
vt 0.356069 0.915445
vt 0.359187 0.916737
vt 0.360478 0.919855
vt 0.356069 0.924265
vt 0.359187 0.922973
vt 0.352950 0.922973
vt 0.351659 0.919855
vt 0.352951 0.916737
vt 0.938954 0.915587
vt 0.945189 0.918300
s 0
f 381/683/202 386/684/202 387/685/202 371/686/202
f 377/687/203 388/688/203 389/689/203 375/690/203
f 383/691/204 390/692/204 391/693/204 373/694/204
f 379/695/205 392/696/205 393/697/205 369/698/205
f 385/699/206 383/700/206 373/701/206 379/702/206
f 372/703/202 382/704/202 398/705/202 399/706/202
f 374/707/204 384/708/204 397/709/204 401/710/204
f 381/711/206 385/699/206 379/702/206 369/712/206
f 373/713/207 391/714/207 392/715/207 379/716/207
f 371/717/208 387/718/208 388/719/208 377/720/208
f 371/721/206 377/722/206 385/699/206 381/711/206
f 378/723/208 372/724/208 399/725/208 396/726/208
f 382/727/209 370/728/209 402/729/209 398/730/209
f 377/722/206 375/731/206 383/700/206 385/699/206
f 375/732/210 389/733/210 390/734/210 383/735/210
f 369/736/209 393/737/209 386/738/209 381/739/209
f 382/740/211 372/741/211 387/742/211 386/743/211
f 378/744/211 376/745/211 389/746/211 388/747/211
f 384/748/211 374/749/211 391/750/211 390/751/211
f 380/752/211 370/753/211 393/754/211 392/755/211
f 372/741/211 378/744/211 388/747/211 387/742/211
f 374/749/211 380/752/211 392/755/211 391/750/211
f 370/753/211 382/740/211 386/743/211 393/754/211
f 376/745/211 384/748/211 390/751/211 389/746/211
f 402/756/212 395/757/212 403/758/212 410/759/212
f 395/760/213 401/761/213 409/762/213 403/758/213
f 397/763/214 400/764/214 408/765/214 405/766/214
f 399/706/215 398/705/215 406/767/215 407/768/215
f 384/769/210 376/770/210 400/764/210 397/763/210
f 380/771/207 374/772/207 401/761/207 395/760/207
f 370/773/205 380/774/205 395/757/205 402/756/205
f 376/775/203 378/776/203 396/777/203 400/778/203
f 407/768/216 406/767/216 414/779/216 415/780/216
f 409/762/217 405/766/217 413/781/217 417/782/217
f 404/783/218 407/768/218 415/780/218 412/784/218
f 406/767/219 410/759/219 418/785/219 414/779/219
f 400/778/220 396/777/220 404/783/220 408/765/220
f 398/730/221 402/729/221 410/759/221 406/767/221
f 396/726/222 399/725/222 407/768/222 404/783/222
f 401/710/223 397/709/223 405/766/223 409/762/223
f 394/786/224 414/787/224 418/788/224 411/789/224
f 413/790/225 394/786/225 411/789/225 417/791/225
f 416/792/226 412/793/226 394/786/226 413/790/226
f 412/793/227 415/794/227 414/787/227 394/786/227
f 405/766/228 408/765/228 416/795/228 413/781/228
f 403/758/229 409/762/229 417/782/229 411/796/229
f 410/759/230 403/758/230 411/796/230 418/785/230
f 408/765/231 404/783/231 412/784/231 416/795/231
o Jug4
v -1.824402 1.700000 3.804402
v -1.845279 1.732000 3.825279
v -1.824402 1.700000 3.995598
v -1.845279 1.732000 3.974721
v -2.015598 1.700000 3.804402
v -1.994721 1.732000 3.825279
v -2.015598 1.700000 3.995598
v -1.994721 1.732000 3.974721
v -1.920000 1.700000 4.035196
v -1.920000 1.732000 4.005672
v -1.920000 1.700000 3.764804
v -1.920000 1.732000 3.794329
v -1.784804 1.700000 3.900000
v -1.814329 1.732000 3.900000
v -2.055196 1.700000 3.900000
v -2.025671 1.732000 3.900000
v -1.920000 1.700000 3.900000
v -1.784804 1.732000 3.900000
v -1.824402 1.732000 3.995598
v -1.920000 1.732000 4.035196
v -2.015598 1.732000 3.995598
v -2.055196 1.732000 3.900000
v -2.015598 1.732000 3.804402
v -1.920000 1.732000 3.764804
v -1.824402 1.732000 3.804402
v -1.920000 2.114186 3.900000
v -1.920000 2.021505 3.794329
v -1.920000 2.021505 4.005672
v -2.025671 2.021505 3.900000
v -1.814329 2.021505 3.900000
v -1.845279 2.021505 3.974721
v -1.994721 2.021505 3.974721
v -1.994721 2.021505 3.825279
v -1.845279 2.021505 3.825279
v -1.920000 2.069140 3.815463
v -1.920000 2.069140 3.984537
v -2.004537 2.069140 3.900000
v -1.835463 2.069140 3.900000
v -1.860223 2.069140 3.959777
v -1.979777 2.069140 3.959777
v -1.979777 2.069140 3.840223
v -1.860223 2.069140 3.840223
v -1.920000 2.108917 3.866185
v -1.920000 2.108917 3.933815
v -1.953815 2.108917 3.900000
v -1.886185 2.108917 3.900000
v -1.896089 2.108917 3.923911
v -1.943911 2.108917 3.923911
v -1.943911 2.108917 3.876089
v -1.896089 2.108917 3.876089
vn 0.9239 -0.0000 0.3827
vn -0.3827 -0.0000 0.9239
vn -0.9239 -0.0000 -0.3827
vn 0.3827 -0.0000 -0.9239
vn -0.0000 -1.0000 -0.0000
vn -0.3827 -0.0000 -0.9239
vn 0.3827 -0.0000 0.9239
vn 0.9239 -0.0000 -0.3827
vn -0.9239 -0.0000 0.3827
vn -0.0000 1.0000 -0.0000
vn 0.3541 0.3793 -0.8549
vn -0.3541 0.3793 -0.8549
vn -0.8549 0.3793 0.3541
vn 0.8549 0.3793 0.3541
vn 0.5979 0.7624 0.2476
vn -0.5979 0.7624 -0.2476
vn 0.2476 0.7624 0.5979
vn 0.5979 0.7624 -0.2476
vn -0.3541 0.3793 0.8549
vn 0.8549 0.3793 -0.3541
vn 0.3541 0.3793 0.8549
vn -0.8549 0.3793 -0.3541
vn 0.1089 0.9881 -0.1089
vn -0.1089 0.9881 -0.1089
vn -0.1089 0.9881 0.1089
vn 0.1089 0.9881 0.1089
vn -0.5979 0.7624 0.2476
vn -0.2476 0.7624 -0.5979
vn 0.2476 0.7624 -0.5979
vn -0.2476 0.7624 0.5979
vt 0.312504 0.925916
vt 0.309156 0.925916
vt 0.309156 0.915087
vt 0.312504 0.915087
vt 0.920547 0.046451
vt 0.923896 0.046451
vt 0.923896 0.057280
vt 0.920547 0.057280
vt 0.920547 0.026734
vt 0.923896 0.026734
vt 0.923896 0.037562
vt 0.920547 0.037562
vt 0.766851 0.924397
vt 0.763503 0.924397
vt 0.763503 0.913569
vt 0.766852 0.913569
vt 0.920355 0.278132
vt 0.920355 0.263984
vt 0.930359 0.268128
vt 0.934503 0.278132
vt 0.864981 0.948935
vt 0.861735 0.956634
vt 0.834177 0.945013
vt 0.837423 0.937314
vt 0.780037 0.921923
vt 0.783520 0.913866
vt 0.812359 0.926332
vt 0.808877 0.934388
vt 0.920355 0.292279
vt 0.930359 0.288136
vt 0.923896 0.076997
vt 0.920547 0.076997
vt 0.920547 0.066169
vt 0.923896 0.066169
vt 0.296918 0.915087
vt 0.300266 0.915087
vt 0.300266 0.925915
vt 0.296918 0.925915
vt 0.910351 0.288136
vt 0.906208 0.278132
vt 0.862326 0.916395
vt 0.865318 0.924180
vt 0.837453 0.934892
vt 0.834460 0.927107
vt 0.844408 0.974636
vt 0.836630 0.977964
vt 0.824719 0.950122
vt 0.832497 0.946795
vt 0.910351 0.268128
vt 0.321394 0.915087
vt 0.324742 0.915087
vt 0.324742 0.925916
vt 0.321394 0.925916
vt 0.926356 0.109609
vt 0.923007 0.109609
vt 0.923007 0.098781
vt 0.926356 0.098781
vt 0.314049 0.882841
vt 0.305587 0.882983
vt 0.304357 0.880148
vt 0.315184 0.879968
vt 0.299703 0.889066
vt 0.299844 0.897529
vt 0.297010 0.898758
vt 0.296829 0.887932
vt 0.305928 0.903413
vt 0.314390 0.903271
vt 0.315620 0.906106
vt 0.304793 0.906286
vt 0.320274 0.897188
vt 0.320133 0.888725
vt 0.322967 0.887496
vt 0.323148 0.898322
vt 0.822151 0.950238
vt 0.814169 0.947055
vt 0.816993 0.942292
vt 0.823379 0.944839
vt 0.812157 0.945204
vt 0.808857 0.937088
vt 0.814354 0.935799
vt 0.814405 0.924505
vt 0.822498 0.921481
vt 0.823614 0.926934
vt 0.817140 0.929354
vt 0.829601 0.942177
vt 0.832198 0.936018
vt 0.803579 0.895536
vt 0.811672 0.892511
vt 0.783105 0.957016
vt 0.779805 0.948900
vt 0.810757 0.978810
vt 0.802775 0.975627
vt 0.837891 0.893953
vt 0.845630 0.897523
vt 0.832851 0.925222
vt 0.825113 0.921652
vt 0.825266 0.938020
vt 0.826234 0.935916
vt 0.821214 0.933815
vt 0.820400 0.935883
vt 0.829804 0.929790
vt 0.825361 0.933785
vt 0.823157 0.938854
vt 0.910576 0.417064
vt 0.907013 0.417064
vt 0.908056 0.414545
vt 0.910576 0.413501
vt 0.914140 0.417064
vt 0.913096 0.414545
vt 0.913096 0.419584
vt 0.910576 0.420628
vt 0.908056 0.419584
vt 0.823271 0.932932
vt 0.821128 0.937943
s 0
f 431/797/232 436/798/232 437/799/232 421/800/232
f 427/801/233 438/802/233 439/803/233 425/804/233
f 433/805/234 440/806/234 441/807/234 423/808/234
f 429/809/235 442/810/235 443/811/235 419/812/235
f 435/813/236 433/814/236 423/815/236 429/816/236
f 422/817/232 432/818/232 448/819/232 449/820/232
f 424/821/234 434/822/234 447/823/234 451/824/234
f 431/825/236 435/813/236 429/816/236 419/826/236
f 423/827/237 441/828/237 442/829/237 429/830/237
f 421/831/238 437/832/238 438/833/238 427/834/238
f 421/835/236 427/836/236 435/813/236 431/825/236
f 428/837/238 422/838/238 449/839/238 446/840/238
f 432/841/239 420/842/239 452/843/239 448/844/239
f 427/836/236 425/845/236 433/814/236 435/813/236
f 425/846/240 439/847/240 440/848/240 433/849/240
f 419/850/239 443/851/239 436/852/239 431/853/239
f 432/854/241 422/855/241 437/856/241 436/857/241
f 428/858/241 426/859/241 439/860/241 438/861/241
f 434/862/241 424/863/241 441/864/241 440/865/241
f 430/866/241 420/867/241 443/868/241 442/869/241
f 422/855/241 428/858/241 438/861/241 437/856/241
f 424/863/241 430/866/241 442/869/241 441/864/241
f 420/867/241 432/854/241 436/857/241 443/868/241
f 426/859/241 434/862/241 440/865/241 439/860/241
f 452/870/242 445/871/242 453/872/242 460/873/242
f 445/874/243 451/875/243 459/876/243 453/872/243
f 447/877/244 450/878/244 458/879/244 455/880/244
f 449/820/245 448/819/245 456/881/245 457/882/245
f 434/883/240 426/884/240 450/878/240 447/877/240
f 430/885/237 424/886/237 451/875/237 445/874/237
f 420/887/235 430/888/235 445/871/235 452/870/235
f 426/889/233 428/890/233 446/891/233 450/892/233
f 457/882/246 456/881/246 464/893/246 465/894/246
f 459/876/247 455/880/247 463/895/247 467/896/247
f 454/897/248 457/882/248 465/894/248 462/898/248
f 456/881/249 460/873/249 468/899/249 464/893/249
f 450/892/250 446/891/250 454/897/250 458/879/250
f 448/844/251 452/843/251 460/873/251 456/881/251
f 446/840/252 449/839/252 457/882/252 454/897/252
f 451/824/253 447/823/253 455/880/253 459/876/253
f 444/900/254 464/901/254 468/902/254 461/903/254
f 463/904/255 444/900/255 461/903/255 467/905/255
f 466/906/256 462/907/256 444/900/256 463/904/256
f 462/907/257 465/908/257 464/901/257 444/900/257
f 455/880/258 458/879/258 466/909/258 463/895/258
f 453/872/259 459/876/259 467/896/259 461/910/259
f 460/873/260 453/872/260 461/910/260 468/899/260
f 458/879/261 454/897/261 462/898/261 466/909/261
o Jug5
v -2.128302 1.700000 3.828302
v -2.143960 1.724000 3.843960
v -2.128302 1.700000 3.971699
v -2.143960 1.724000 3.956041
v -2.271698 1.700000 3.828302
v -2.256041 1.724000 3.843960
v -2.271698 1.700000 3.971699
v -2.256041 1.724000 3.956041
v -2.200000 1.700000 4.001397
v -2.200000 1.724000 3.979254
v -2.200000 1.700000 3.798603
v -2.200000 1.724000 3.820747
v -2.098603 1.700000 3.900000
v -2.120747 1.724000 3.900000
v -2.301397 1.700000 3.900000
v -2.279253 1.724000 3.900000
v -2.200000 1.700000 3.900000
v -2.098603 1.724000 3.900000
v -2.128302 1.724000 3.971699
v -2.200000 1.724000 4.001397
v -2.271698 1.724000 3.971699
v -2.301397 1.724000 3.900000
v -2.271698 1.724000 3.828302
v -2.200000 1.724000 3.798603
v -2.128302 1.724000 3.828302
v -2.200000 2.010640 3.900000
v -2.200000 1.941128 3.820747
v -2.200000 1.941128 3.979254
v -2.279253 1.941128 3.900000
v -2.120747 1.941128 3.900000
v -2.143960 1.941128 3.956041
v -2.256041 1.941128 3.956041
v -2.256041 1.941128 3.843960
v -2.143960 1.941128 3.843960
v -2.200000 1.976855 3.836597
v -2.200000 1.976855 3.963403
v -2.263403 1.976855 3.900000
v -2.136597 1.976855 3.900000
v -2.155168 1.976855 3.944833
v -2.244833 1.976855 3.944833
v -2.244833 1.976855 3.855168
v -2.155168 1.976855 3.855168
v -2.200000 2.006688 3.874639
v -2.200000 2.006688 3.925361
v -2.225361 2.006688 3.900000
v -2.174639 2.006688 3.900000
v -2.182067 2.006688 3.917933
v -2.217933 2.006688 3.917933
v -2.217933 2.006688 3.882067
v -2.182067 2.006688 3.882067
vn 0.9239 -0.0000 0.3827
vn -0.3827 -0.0000 0.9239
vn -0.9239 -0.0000 -0.3827
vn 0.3827 -0.0000 -0.9239
vn -0.0000 -1.0000 -0.0000
vn -0.3827 -0.0000 -0.9239
vn 0.3827 -0.0000 0.9239
vn 0.9239 -0.0000 -0.3827
vn -0.9239 -0.0000 0.3827
vn -0.0000 1.0000 -0.0000
vn 0.3541 0.3793 -0.8549
vn -0.3541 0.3793 -0.8549
vn -0.8549 0.3793 0.3541
vn 0.8548 0.3793 0.3541
vn 0.5979 0.7624 0.2476
vn -0.5979 0.7624 -0.2476
vn 0.2476 0.7624 0.5979
vn 0.5979 0.7624 -0.2476
vn -0.3541 0.3793 0.8549
vn 0.8549 0.3793 -0.3541
vn 0.3541 0.3793 0.8549
vn -0.8549 0.3793 -0.3541
vn 0.1089 0.9881 -0.1089
vn -0.1089 0.9881 -0.1089
vn -0.1089 0.9881 0.1089
vn 0.1089 0.9881 0.1089
vn -0.5979 0.7624 0.2476
vn -0.2476 0.7624 -0.5979
vn 0.2476 0.7624 -0.5979
vn -0.2476 0.7624 0.5979
vt 0.425644 0.681082
vt 0.423132 0.681082
vt 0.423132 0.672960
vt 0.425644 0.672960
vt 0.425644 0.647059
vt 0.423132 0.647059
vt 0.423132 0.638936
vt 0.425644 0.638936
vt 0.423132 0.587900
vt 0.425644 0.587900
vt 0.425644 0.596023
vt 0.423132 0.596023
vt 0.423132 0.689972
vt 0.425644 0.689972
vt 0.425644 0.698094
vt 0.423132 0.698094
vt 0.181185 0.903437
vt 0.191797 0.903437
vt 0.188689 0.910941
vt 0.181185 0.914050
vt 0.950650 0.489949
vt 0.953202 0.495673
vt 0.932714 0.504809
vt 0.930162 0.499085
vt 0.892377 0.521921
vt 0.889895 0.515931
vt 0.911335 0.507047
vt 0.913817 0.513036
vt 0.170572 0.903437
vt 0.173680 0.910941
vt 0.423132 0.706984
vt 0.425644 0.706984
vt 0.425644 0.715106
vt 0.423132 0.715106
vt 0.425644 0.664070
vt 0.423132 0.664070
vt 0.423132 0.655948
vt 0.425644 0.655948
vt 0.173680 0.895933
vt 0.181185 0.892824
vt 0.931504 0.474718
vt 0.937301 0.477077
vt 0.928855 0.497828
vt 0.923058 0.495469
vt 0.954362 0.514581
vt 0.952152 0.520588
vt 0.930649 0.512675
vt 0.932860 0.506668
vt 0.188689 0.895933
vt 0.423132 0.621924
vt 0.425644 0.621924
vt 0.425644 0.630047
vt 0.423132 0.630047
vt 0.425644 0.613035
vt 0.423132 0.613035
vt 0.423132 0.604912
vt 0.425644 0.604912
vt 0.896967 0.700448
vt 0.896461 0.706777
vt 0.894256 0.707490
vt 0.894904 0.699394
vt 0.900578 0.711610
vt 0.906907 0.712116
vt 0.907620 0.714321
vt 0.899523 0.713673
vt 0.911740 0.707999
vt 0.912246 0.701671
vt 0.914451 0.700957
vt 0.913803 0.709054
vt 0.908129 0.696838
vt 0.901800 0.696331
vt 0.901087 0.694126
vt 0.909184 0.694774
vt 0.929333 0.514216
vt 0.923342 0.516866
vt 0.922254 0.512787
vt 0.927047 0.510667
vt 0.921327 0.516905
vt 0.915237 0.514493
vt 0.917381 0.510858
vt 0.911365 0.505066
vt 0.913869 0.499128
vt 0.917399 0.501316
vt 0.915396 0.506066
vt 0.928815 0.505861
vt 0.926774 0.501283
vt 0.890109 0.496104
vt 0.892613 0.490166
vt 0.912694 0.538707
vt 0.906603 0.536295
vt 0.938820 0.535663
vt 0.932829 0.538313
vt 0.906685 0.476591
vt 0.912606 0.474190
vt 0.921200 0.495386
vt 0.915278 0.497786
vt 0.924325 0.506098
vt 0.923657 0.504499
vt 0.919924 0.506183
vt 0.920637 0.507705
vt 0.922136 0.499395
vt 0.922043 0.503883
vt 0.923696 0.507668
vt 0.371502 0.918250
vt 0.368829 0.918250
vt 0.369612 0.916360
vt 0.371502 0.915577
vt 0.374175 0.918250
vt 0.373392 0.916360
vt 0.373392 0.920141
vt 0.371502 0.920923
vt 0.369612 0.920140
vt 0.920502 0.504596
vt 0.922179 0.508313
s 0
f 481/911/262 486/912/262 487/913/262 471/914/262
f 477/915/263 488/916/263 489/917/263 475/918/263
f 483/919/264 490/920/264 491/921/264 473/922/264
f 479/923/265 492/924/265 493/925/265 469/926/265
f 485/927/266 483/928/266 473/929/266 479/930/266
f 472/931/262 482/932/262 498/933/262 499/934/262
f 474/935/264 484/936/264 497/937/264 501/938/264
f 481/939/266 485/927/266 479/930/266 469/940/266
f 473/941/267 491/942/267 492/943/267 479/944/267
f 471/945/268 487/946/268 488/947/268 477/948/268
f 471/949/266 477/950/266 485/927/266 481/939/266
f 478/951/268 472/952/268 499/953/268 496/954/268
f 482/955/269 470/956/269 502/957/269 498/958/269
f 477/950/266 475/959/266 483/928/266 485/927/266
f 475/960/270 489/961/270 490/962/270 483/963/270
f 469/964/269 493/965/269 486/966/269 481/967/269
f 482/968/271 472/969/271 487/970/271 486/971/271
f 478/972/271 476/973/271 489/974/271 488/975/271
f 484/976/271 474/977/271 491/978/271 490/979/271
f 480/980/271 470/981/271 493/982/271 492/983/271
f 472/969/271 478/972/271 488/975/271 487/970/271
f 474/977/271 480/980/271 492/983/271 491/978/271
f 470/981/271 482/968/271 486/971/271 493/982/271
f 476/973/271 484/976/271 490/979/271 489/974/271
f 502/984/272 495/985/272 503/986/272 510/987/272
f 495/988/273 501/989/273 509/990/273 503/986/273
f 497/991/274 500/992/274 508/993/274 505/994/274
f 499/934/275 498/933/275 506/995/275 507/996/275
f 484/997/270 476/998/270 500/992/270 497/991/270
f 480/999/267 474/1000/267 501/989/267 495/988/267
f 470/1001/265 480/1002/265 495/985/265 502/984/265
f 476/1003/263 478/1004/263 496/1005/263 500/1006/263
f 507/996/276 506/995/276 514/1007/276 515/1008/276
f 509/990/277 505/994/277 513/1009/277 517/1010/277
f 504/1011/278 507/996/278 515/1008/278 512/1012/278
f 506/995/279 510/987/279 518/1013/279 514/1007/279
f 500/1006/280 496/1005/280 504/1011/280 508/993/280
f 498/958/281 502/957/281 510/987/281 506/995/281
f 496/954/282 499/953/282 507/996/282 504/1011/282
f 501/938/283 497/937/283 505/994/283 509/990/283
f 494/1014/284 514/1015/284 518/1016/284 511/1017/284
f 513/1018/285 494/1014/285 511/1017/285 517/1019/285
f 516/1020/286 512/1021/286 494/1014/286 513/1018/286
f 512/1021/287 515/1022/287 514/1015/287 494/1014/287
f 505/994/288 508/993/288 516/1023/288 513/1009/288
f 503/986/289 509/990/289 517/1010/289 511/1024/289
f 510/987/290 503/986/290 511/1024/290 518/1013/290
f 508/993/291 504/1011/291 512/1012/291 516/1023/291
o MonitorDisplay
v 0.501517 1.794713 3.430634
v 0.384309 1.662325 3.589719
v 0.501517 1.341559 3.219326
v 0.384309 1.306573 3.423830
v -0.384309 1.662325 3.589719
v -0.501517 1.794713 3.430634
v -0.384309 1.306573 3.423830
v -0.501517 1.341559 3.219326
v 0.078506 1.555599 3.539953
v -0.078506 1.555599 3.539953
v -0.078506 1.413298 3.473597
v 0.078506 1.413298 3.473597
v -0.100000 1.658767 3.367242
v 0.100000 1.658767 3.367242
v 0.100000 1.477505 3.282718
v -0.100000 1.477505 3.282718
v -0.078506 1.662325 3.589719
v 0.078506 1.662325 3.589719
v 0.100000 1.794713 3.430634
v -0.100000 1.794713 3.430634
v 0.100000 1.341559 3.219326
v -0.100000 1.341559 3.219326
v -0.078506 1.306573 3.423830
v 0.078506 1.306573 3.423830
v 0.501517 1.477505 3.282718
v 0.501517 1.658767 3.367242
v 0.384309 1.413298 3.473597
v 0.384309 1.555599 3.539953
v -0.384309 1.413298 3.473597
v -0.384309 1.555599 3.539953
v -0.501517 1.477505 3.282718
v -0.501517 1.658767 3.367242
v -0.666331 1.794713 3.430634
v -0.766734 1.797018 3.426305
v -0.747219 1.810874 3.396157
v -0.757953 1.761392 3.503815
v -0.529783 1.662325 3.589719
v 0.766734 1.797018 3.426305
v 0.666331 1.794713 3.430634
v 0.747219 1.810874 3.396157
v 0.529783 1.662325 3.589719
v 0.757953 1.761392 3.503815
v 0.666331 1.341559 3.219326
v 0.766734 1.343864 3.214995
v 0.747219 1.357720 3.184847
v 0.757953 1.308239 3.292506
v 0.529783 1.306573 3.423830
v -0.766734 1.343864 3.214995
v -0.666331 1.341559 3.219326
v -0.747219 1.357720 3.184847
v -0.529783 1.306573 3.423830
v -0.757953 1.308239 3.292506
v 0.498376 1.117282 3.109352
v 0.501517 1.210356 3.158144
v 0.500597 1.151924 3.088887
v 0.384309 1.184400 3.366859
v 0.492671 1.081667 3.186841
v 0.501517 1.925917 3.491816
v 0.498376 2.023590 3.531970
v 0.500597 2.016668 3.492124
v 0.492671 1.987974 3.609459
v 0.384309 1.784497 3.646689
v -0.501517 1.210356 3.158144
v -0.498376 1.117282 3.109352
v -0.500597 1.151924 3.088887
v -0.492670 1.081667 3.186841
v -0.384309 1.184400 3.366859
v -0.498376 2.023590 3.531970
v -0.501517 1.925917 3.491816
v -0.500597 2.016668 3.492124
v -0.384309 1.784497 3.646689
v -0.492670 1.987974 3.609459
v -0.766734 1.661073 3.362909
v -0.666331 1.658767 3.367242
v -0.747219 1.674928 3.332763
v -0.666331 1.477505 3.282718
v -0.766734 1.479811 3.278386
v -0.747219 1.493667 3.248240
v 0.766734 1.479811 3.278386
v 0.666331 1.477505 3.282718
v 0.747219 1.493667 3.248240
v 0.666331 1.658767 3.367242
v 0.766734 1.661073 3.362909
v 0.747219 1.674928 3.332763
v -0.529783 1.555599 3.539953
v -0.757953 1.625445 3.440425
v -0.757953 1.444183 3.355901
v -0.529783 1.413298 3.473597
v 0.757953 1.625445 3.440425
v 0.529783 1.555599 3.539953
v 0.529783 1.413298 3.473597
v 0.757953 1.444183 3.355901
v -0.100000 1.117281 3.109354
v -0.100000 1.210356 3.158144
v -0.100000 1.151924 3.088888
v 0.100000 1.210356 3.158144
v 0.100000 1.117281 3.109354
v 0.100000 1.151924 3.088888
v 0.100000 1.081668 3.186838
v 0.078506 1.184400 3.366859
v -0.078506 1.184400 3.366859
v -0.100000 1.081668 3.186838
v -0.100000 1.925917 3.491816
v -0.100000 2.023588 3.531973
v -0.100000 2.016667 3.492124
v 0.100000 2.023588 3.531973
v 0.100000 1.925917 3.491816
v 0.100000 2.016667 3.492124
v 0.078506 1.784497 3.646689
v 0.100000 1.987976 3.609456
v -0.100000 1.987976 3.609456
v -0.078506 1.784497 3.646689
v 0.666331 1.315321 3.207090
v 0.550863 1.210356 3.158144
v 0.632495 1.241085 3.172473
v 0.766734 1.239891 3.166515
v 0.631474 1.117283 3.109349
v 0.727117 1.153195 3.126091
v 0.611151 1.151924 3.088886
v 0.747219 1.275475 3.146497
v 0.707366 1.188112 3.105760
v -0.550863 1.210356 3.158144
v -0.666331 1.315321 3.207090
v -0.632495 1.241085 3.172473
v -0.631474 1.117283 3.109349
v -0.766734 1.239891 3.166515
v -0.727117 1.153195 3.126091
v -0.747219 1.275475 3.146497
v -0.611151 1.151924 3.088886
v -0.707366 1.188112 3.105760
v 0.421658 1.184400 3.366859
v 0.529783 1.281973 3.412358
v 0.498114 1.212979 3.380186
v 0.622484 1.081665 3.186843
v 0.757954 1.204220 3.243998
v 0.718276 1.117560 3.203585
v -0.529783 1.281973 3.412358
v -0.421658 1.184400 3.366859
v -0.498114 1.212979 3.380186
v -0.757954 1.204220 3.243998
v -0.622484 1.081665 3.186843
v -0.718276 1.117560 3.203585
v 0.550874 1.925917 3.491816
v 0.666331 1.820915 3.442853
v 0.632496 1.895179 3.477483
v 0.631474 2.023591 3.531967
v 0.766734 1.900974 3.474783
v 0.727117 1.987678 3.515217
v 0.747219 1.893087 3.434494
v 0.611158 2.016668 3.492123
v 0.707367 1.980472 3.475243
v -0.666331 1.820915 3.442853
v -0.550873 1.925917 3.491816
v -0.632496 1.895179 3.477483
v -0.766734 1.900974 3.474783
v -0.631474 2.023591 3.531967
v -0.727117 1.987678 3.515217
v -0.747219 1.893087 3.434494
v -0.611158 2.016668 3.492123
v -0.707367 1.980472 3.475243
v 0.529783 1.686949 3.601202
v 0.421641 1.784497 3.646689
v 0.498109 1.755926 3.633366
v 0.757954 1.865420 3.552321
v 0.622477 1.987973 3.609461
v 0.718274 1.952078 3.592726
v -0.421641 1.784497 3.646689
v -0.529783 1.686949 3.601202
v -0.498109 1.755926 3.633366
v -0.622477 1.987973 3.609461
v -0.757954 1.865420 3.552321
v -0.718274 1.952078 3.592726
v 0.556244 1.658767 3.367242
v -0.100000 1.825759 3.445112
v 0.556241 1.477505 3.282718
v -0.100000 1.310476 3.204831
v -0.556244 1.658767 3.367242
v 0.100000 1.310476 3.204831
v -0.501517 1.825759 3.445112
v -0.501517 1.310476 3.204831
v -0.556246 1.794713 3.430634
v -0.556238 1.341559 3.219326
v 0.556246 1.794713 3.430634
v 0.100000 1.825759 3.445112
v 0.501517 1.310476 3.204831
v 0.501517 1.825759 3.445112
v -0.556240 1.477505 3.282718
v 0.556238 1.341559 3.219326
v -0.556246 1.825759 3.445112
v 0.556246 1.825759 3.445112
v -0.556238 1.310476 3.204831
v 0.556238 1.310476 3.204831
v -0.078506 1.686949 3.601202
v 0.421654 1.306573 3.423830
v -0.421644 1.662325 3.589719
v -0.421651 1.413298 3.473597
v 0.421647 1.555599 3.539953
v -0.384309 1.281973 3.412358
v -0.384309 1.686949 3.601202
v -0.421654 1.306573 3.423830
v 0.078506 1.686949 3.601202
v -0.078506 1.281973 3.412358
v 0.078506 1.281973 3.412358
v 0.421651 1.413298 3.473597
v -0.421647 1.555599 3.539953
v 0.384309 1.686949 3.601202
v 0.384309 1.281973 3.412358
v 0.421644 1.662325 3.589719
v 0.421644 1.686949 3.601202
v 0.421655 1.281973 3.412359
v -0.421644 1.686949 3.601202
v -0.421655 1.281973 3.412358
v 0.693275 1.499406 3.235752
v 0.693275 1.680668 3.320276
v -0.693275 1.680668 3.320276
v -0.693275 1.499406 3.235752
v 0.100000 1.972236 3.456237
v -0.100000 1.972236 3.456237
v -0.100000 1.207837 3.099792
v 0.100000 1.207837 3.099792
v -0.693275 1.363460 3.172360
v -0.693275 1.816614 3.383669
v 0.693275 1.816614 3.383669
v 0.693275 1.363460 3.172360
v 0.501517 1.207837 3.099792
v -0.501517 1.207837 3.099792
v 0.501517 1.972236 3.456237
v -0.501517 1.972236 3.456237
v -0.693275 1.332376 3.157865
v -0.653137 1.244314 3.116801
v -0.556236 1.207837 3.099792
v -0.653141 1.935749 3.439222
v -0.693275 1.847659 3.398146
v -0.556248 1.972236 3.456237
v 0.556236 1.207837 3.099792
v 0.653137 1.244314 3.116801
v 0.693275 1.332376 3.157865
v 0.653141 1.935749 3.439222
v 0.556249 1.972236 3.456237
v 0.693275 1.847659 3.398146
vn -0.0000 -0.4226 0.9063
vn -0.0000 0.4226 -0.9063
vn 0.4646 -0.3742 0.8025
vn 0.2469 0.4095 -0.8783
vn 0.8619 0.2143 -0.4595
vn -0.0000 0.1800 0.9837
vn -0.2469 0.4095 -0.8783
vn -0.8619 0.2143 -0.4595
vn -0.0000 -0.8685 0.4956
vn -0.0000 0.9852 -0.1711
vn -0.0000 0.6283 -0.7779
vn -0.0000 0.1914 -0.9815
vn -0.0000 -0.5087 -0.8610
vn -0.4646 -0.3742 0.8025
vn -0.8620 0.2143 -0.4595
vn 0.8620 0.2143 -0.4595
vn -0.0000 -0.5086 -0.8610
vn -0.3801 -0.5283 0.7592
vn -0.9947 -0.0433 0.0928
vn 0.9947 -0.0433 0.0928
vn -0.0000 -0.9086 -0.4176
vn -0.0000 0.9086 0.4176
vn -0.7157 -0.0011 -0.6984
vn -0.2891 -0.3549 -0.8891
vn -0.1748 0.3495 -0.9205
vn -0.0718 0.2585 -0.9634
vn -0.1745 -0.7588 0.6276
vn -0.3803 -0.2419 0.8927
vn -0.1746 0.4804 -0.8595
vn -0.0717 0.5716 -0.8174
vn -0.7142 0.5360 -0.4502
vn -0.2877 0.9078 -0.3051
vn -0.1747 0.0078 0.9846
vn 0.1745 -0.7588 0.6276
vn 0.2891 -0.3549 -0.8891
vn 0.7157 -0.0011 -0.6984
vn 0.0718 0.2585 -0.9634
vn 0.1748 0.3495 -0.9205
vn 0.3801 -0.5283 0.7592
vn 0.1747 0.0078 0.9846
vn 0.2877 0.9078 -0.3051
vn 0.7142 0.5360 -0.4502
vn 0.0717 0.5716 -0.8174
vn 0.1746 0.4804 -0.8595
vn 0.3803 -0.2419 0.8927
vn 0.3820 -0.8556 -0.3494
vn 0.9194 -0.3864 -0.0732
vn -0.9194 -0.3864 -0.0732
vn -0.3820 -0.8556 -0.3494
vn 0.3822 0.8222 0.4218
vn 0.9198 0.3064 0.2452
vn -0.9198 0.3064 0.2452
vn -0.3822 0.8222 0.4218
vn 0.8620 0.2142 -0.4595
vn -0.8620 0.2142 -0.4595
vn 0.2469 0.4095 -0.8782
vn -0.0000 0.9852 -0.1712
vn -0.2469 0.4095 -0.8782
vn -0.8872 0.1950 -0.4181
vn 0.8872 0.1950 -0.4181
vn -0.0000 -0.6092 -0.7931
vn -0.0000 0.9991 -0.0431
vn 0.8200 0.5020 -0.2749
vn 0.3403 0.9376 -0.0718
vn 0.8201 -0.1119 -0.5612
vn 0.3404 -0.5476 -0.7643
vn -0.3403 0.9376 -0.0718
vn -0.8200 0.5020 -0.2749
vn -0.3404 -0.5476 -0.7643
vn -0.8201 -0.1119 -0.5612
vn -0.0000 -0.6092 -0.7930
vt 0.272703 0.665420
vt 0.272627 0.682792
vt 0.255683 0.682720
vt 0.255739 0.665384
vt 0.389386 0.822438
vt 0.389386 0.844479
vt 0.367345 0.844479
vt 0.367345 0.822438
vt 0.272503 0.632901
vt 0.255475 0.633008
vt 0.389386 0.778189
vt 0.367345 0.778189
vt 0.350815 0.822438
vt 0.350815 0.844479
vt 0.243044 0.665083
vt 0.242905 0.682942
vt 0.285570 0.665250
vt 0.285324 0.683184
vt 0.405917 0.822438
vt 0.405917 0.844479
vt 0.389386 0.888728
vt 0.367345 0.888728
vt 0.272685 0.714816
vt 0.255858 0.714766
vt 0.242674 0.633285
vt 0.285256 0.714717
vt 0.243094 0.714465
vt 0.285343 0.633064
vt 0.350815 0.778189
vt 0.405917 0.888728
vt 0.350815 0.888728
vt 0.405917 0.778189
vt 0.255275 0.617100
vt 0.251996 0.588589
vt 0.274747 0.587896
vt 0.272473 0.616909
vt 0.821847 0.709342
vt 0.843896 0.709344
vt 0.843906 0.715483
vt 0.821854 0.715480
vt 0.588525 0.795968
vt 0.588491 0.818009
vt 0.584249 0.818022
vt 0.584283 0.795981
vt 0.324946 0.687628
vt 0.301009 0.684233
vt 0.300956 0.663669
vt 0.325967 0.662077
vt 0.843912 0.556535
vt 0.821862 0.556531
vt 0.821869 0.550392
vt 0.843923 0.550395
vt 0.318310 0.830233
vt 0.318277 0.808192
vt 0.322519 0.808206
vt 0.322552 0.830247
vt 0.227915 0.683988
vt 0.202912 0.686065
vt 0.203231 0.660584
vt 0.227065 0.663532
vt 0.881348 0.794012
vt 0.881348 0.816053
vt 0.876891 0.816053
vt 0.876891 0.794012
vt 0.885659 0.621914
vt 0.885658 0.643968
vt 0.879360 0.643965
vt 0.879360 0.621915
vt 0.786379 0.621916
vt 0.786381 0.643965
vt 0.780100 0.643969
vt 0.780098 0.621913
vt 0.411481 0.657547
vt 0.411481 0.679588
vt 0.407047 0.679588
vt 0.407047 0.657547
vt 0.253241 0.759035
vt 0.236284 0.758896
vt 0.242982 0.730557
vt 0.255786 0.730578
vt 0.322494 0.791675
vt 0.318251 0.791661
vt 0.805323 0.550401
vt 0.805332 0.556543
vt 0.285367 0.730339
vt 0.292191 0.758097
vt 0.275566 0.758695
vt 0.272752 0.730478
vt 0.860447 0.556548
vt 0.860471 0.550407
vt 0.318335 0.846764
vt 0.322578 0.846777
vt 0.292077 0.587889
vt 0.285468 0.616857
vt 0.584224 0.834553
vt 0.588466 0.834539
vt 0.860454 0.715473
vt 0.860432 0.709330
vt 0.584308 0.779451
vt 0.588550 0.779437
vt 0.805312 0.715475
vt 0.805319 0.709336
vt 0.242476 0.617350
vt 0.235205 0.589435
vt 0.205996 0.619951
vt 0.227992 0.633684
vt 0.786433 0.688228
vt 0.780146 0.688145
vt 0.411482 0.723735
vt 0.407047 0.723491
vt 0.227932 0.714143
vt 0.205592 0.728484
vt 0.786420 0.577651
vt 0.780133 0.577735
vt 0.411481 0.613399
vt 0.407047 0.613643
vt 0.323704 0.618831
vt 0.301013 0.633653
vt 0.879313 0.688242
vt 0.885616 0.688155
vt 0.876891 0.860201
vt 0.881348 0.859956
vt 0.321669 0.728210
vt 0.300003 0.714213
vt 0.879330 0.577638
vt 0.885636 0.577726
vt 0.876891 0.749864
vt 0.881348 0.750109
vt 0.239998 0.730519
vt 0.223155 0.758532
vt 0.212177 0.753915
vt 0.231702 0.727080
vt 0.389386 0.772157
vt 0.405917 0.772157
vt 0.296952 0.830549
vt 0.306403 0.830575
vt 0.306450 0.847105
vt 0.296999 0.847080
vt 0.272694 0.718814
vt 0.285270 0.718717
vt 0.601272 0.817115
vt 0.610724 0.817090
vt 0.610677 0.833620
vt 0.601226 0.833645
vt 0.389386 0.906891
vt 0.389386 0.894759
vt 0.405917 0.894759
vt 0.405917 0.906891
vt 0.272506 0.628832
vt 0.285378 0.628922
vt 0.350815 0.906891
vt 0.350815 0.894759
vt 0.367345 0.894759
vt 0.367345 0.906891
vt 0.601382 0.778543
vt 0.610832 0.778518
vt 0.610786 0.795049
vt 0.601335 0.795074
vt 0.242613 0.629113
vt 0.255430 0.628940
vt 0.296843 0.791978
vt 0.306294 0.792003
vt 0.306341 0.808534
vt 0.296889 0.808508
vt 0.350815 0.772158
vt 0.367345 0.772158
vt 0.243033 0.718673
vt 0.255826 0.718804
vt 0.610371 0.675591
vt 0.610372 0.719494
vt 0.600973 0.718865
vt 0.600974 0.675591
vt 0.334860 0.888728
vt 0.334860 0.844479
vt 0.347035 0.844479
vt 0.347035 0.888728
vt 0.227093 0.663532
vt 0.227997 0.633684
vt 0.239728 0.633389
vt 0.240104 0.665033
vt 0.409692 0.844479
vt 0.409692 0.888728
vt 0.388692 0.679921
vt 0.398089 0.679921
vt 0.398090 0.723196
vt 0.388691 0.723824
vt 0.288293 0.633135
vt 0.288552 0.665223
vt 0.610372 0.609647
vt 0.610371 0.653550
vt 0.600974 0.653550
vt 0.600973 0.610276
vt 0.334860 0.822438
vt 0.334860 0.778189
vt 0.347035 0.778189
vt 0.347035 0.822438
vt 0.227938 0.714142
vt 0.227943 0.683988
vt 0.239971 0.682995
vt 0.240149 0.714349
vt 0.388691 0.613977
vt 0.398090 0.614606
vt 0.398089 0.657880
vt 0.388692 0.657880
vt 0.409692 0.778189
vt 0.409692 0.822438
vt 0.288257 0.683276
vt 0.288126 0.714681
vt 0.389386 0.760025
vt 0.367345 0.760025
vt 0.322475 0.779032
vt 0.318236 0.781660
vt 0.315636 0.770463
vt 0.319889 0.767919
vt 0.409787 0.587900
vt 0.414242 0.590072
vt 0.411481 0.601215
vt 0.407048 0.598975
vt 0.795294 0.550457
vt 0.801558 0.556549
vt 0.790875 0.560976
vt 0.784650 0.554901
vt 0.786434 0.571630
vt 0.780197 0.565525
vt 0.207021 0.743212
vt 0.228047 0.718745
vt 0.304911 0.757515
vt 0.288287 0.730273
vt 0.296344 0.726847
vt 0.315487 0.752902
vt 0.864218 0.556553
vt 0.870492 0.550457
vt 0.881136 0.554892
vt 0.874901 0.560960
vt 0.885584 0.565513
vt 0.879324 0.571609
vt 0.318351 0.856761
vt 0.322597 0.859418
vt 0.320040 0.870540
vt 0.315779 0.867967
vt 0.874107 0.726542
vt 0.878585 0.724371
vt 0.881348 0.735441
vt 0.876891 0.737680
vt 0.299842 0.718675
vt 0.320379 0.742459
vt 0.228085 0.629206
vt 0.207063 0.605614
vt 0.211827 0.595019
vt 0.231461 0.620980
vt 0.407048 0.738159
vt 0.411482 0.735919
vt 0.414242 0.747062
vt 0.409787 0.749234
vt 0.586912 0.755694
vt 0.591166 0.758239
vt 0.588565 0.769436
vt 0.584327 0.766808
vt 0.780208 0.700354
vt 0.786448 0.694252
vt 0.790877 0.704908
vt 0.784653 0.710975
vt 0.801547 0.709333
vt 0.795289 0.715420
vt 0.222403 0.590213
vt 0.239523 0.617438
vt 0.322144 0.603720
vt 0.300850 0.628924
vt 0.297020 0.620369
vt 0.316792 0.592804
vt 0.876891 0.872385
vt 0.881348 0.874624
vt 0.878585 0.885694
vt 0.874107 0.883522
vt 0.591022 0.855743
vt 0.586761 0.858315
vt 0.584204 0.847194
vt 0.588451 0.844536
vt 0.879304 0.694267
vt 0.885561 0.700360
vt 0.881119 0.710978
vt 0.874883 0.704912
vt 0.870480 0.715421
vt 0.864204 0.709328
vt 0.288507 0.616892
vt 0.305521 0.588157
vt 0.600973 0.733172
vt 0.610372 0.734162
vt 0.610257 0.745571
vt 0.600857 0.744595
vt 0.600998 0.754493
vt 0.610448 0.754473
vt 0.610868 0.765875
vt 0.601418 0.765894
vt 0.306258 0.779354
vt 0.296808 0.779335
vt 0.297227 0.767933
vt 0.306677 0.767953
vt 0.600857 0.584547
vt 0.610257 0.583571
vt 0.610372 0.594979
vt 0.600973 0.595970
vt 0.388691 0.738492
vt 0.398090 0.737501
vt 0.398158 0.748925
vt 0.388758 0.749901
vt 0.610166 0.857663
vt 0.600716 0.857693
vt 0.601190 0.846295
vt 0.610641 0.846261
vt 0.297035 0.859721
vt 0.306485 0.859755
vt 0.306959 0.871153
vt 0.297509 0.871123
vt 0.388758 0.587900
vt 0.398158 0.588877
vt 0.398090 0.600301
vt 0.388691 0.599309
vt 0.347624 0.906891
vt 0.347035 0.894758
vt 0.334860 0.772750
vt 0.347035 0.772158
vt 0.239631 0.629112
vt 0.240022 0.718686
vt 0.409692 0.894759
vt 0.409103 0.906891
vt 0.409692 0.772157
vt 0.288399 0.628942
vt 0.288180 0.718699
vt 0.421871 0.844479
vt 0.421871 0.888728
vt 0.421871 0.772749
vt 0.421871 0.778189
vt 0.409103 0.760025
vt 0.418134 0.763754
vt 0.405917 0.760025
vt 0.350815 0.760025
vt 0.421871 0.894167
vt 0.418134 0.903162
vt 0.347624 0.760025
vt 0.338597 0.763754
vt 0.421871 0.822438
vt 0.334860 0.894166
vt 0.338597 0.903162
vt 0.301007 0.633653
vt 0.300980 0.684232
vt 0.299998 0.714213
vt 0.300927 0.663669
vt 0.900985 0.582097
vt 0.900986 0.604139
vt 0.894549 0.604139
vt 0.894549 0.582097
vt 0.905221 0.058190
vt 0.905221 0.036148
vt 0.911658 0.036149
vt 0.911658 0.058190
vt 0.896617 0.227333
vt 0.896617 0.249374
vt 0.890181 0.249374
vt 0.890181 0.227333
vt 0.896617 0.381562
vt 0.896617 0.403603
vt 0.890181 0.403603
vt 0.890181 0.381562
vt 0.905222 0.019618
vt 0.911658 0.019618
vt 0.905221 0.074720
vt 0.911658 0.074720
vt 0.900986 0.620669
vt 0.894549 0.620669
vt 0.900985 0.565567
vt 0.894549 0.565567
vt 0.896617 0.447853
vt 0.890181 0.447853
vt 0.896617 0.337313
vt 0.890181 0.337313
vt 0.896617 0.183084
vt 0.890181 0.183084
vt 0.896617 0.293623
vt 0.890181 0.293623
vt 0.905222 0.016427
vt 0.903449 0.006823
vt 0.909555 0.004445
vt 0.911658 0.015838
vt 0.898395 0.322297
vt 0.896617 0.331875
vt 0.890181 0.331283
vt 0.892290 0.319913
vt 0.903448 0.087514
vt 0.905221 0.077906
vt 0.911658 0.078495
vt 0.909555 0.089892
vt 0.896617 0.299063
vt 0.898395 0.308640
vt 0.892291 0.311024
vt 0.890181 0.299655
vt 0.896617 0.453291
vt 0.898395 0.462869
vt 0.892290 0.465252
vt 0.890181 0.453883
vt 0.902758 0.552772
vt 0.900985 0.562376
vt 0.894549 0.561787
vt 0.896652 0.550394
vt 0.898395 0.168067
vt 0.896617 0.177645
vt 0.890181 0.177052
vt 0.892291 0.165683
vt 0.900986 0.623855
vt 0.902759 0.633463
vt 0.896652 0.635841
vt 0.894549 0.624444
s 0
f 527/1025/292 528/1026/292 529/1027/292 530/1028/292
f 531/1029/293 532/1030/293 533/1031/293 534/1032/293
f 546/1033/292 527/1025/292 530/1028/292 545/1034/292
f 550/1035/293 531/1029/293 534/1032/293 549/1036/293
f 540/1037/293 534/1032/293 533/1031/293 539/1038/293
f 542/1039/292 530/1028/292 529/1027/292 541/1040/292
f 527/1025/292 536/1041/292 535/1042/292 528/1026/292
f 531/1029/293 538/1043/293 537/1044/293 532/1030/293
f 532/1030/293 544/1045/293 543/1046/293 533/1031/293
f 528/1026/292 548/1047/292 547/1048/292 529/1027/292
f 542/1039/292 522/1049/292 545/1034/292 530/1028/292
f 548/1047/292 528/1026/292 535/1042/292 523/1050/292
f 525/1051/292 541/1040/292 529/1027/292 547/1048/292
f 527/1025/292 546/1033/292 520/1052/292 536/1041/292
f 540/1037/293 526/1053/293 549/1036/293 534/1032/293
f 544/1045/293 532/1030/293 537/1044/293 519/1054/293
f 521/1055/293 539/1038/293 533/1031/293 543/1046/293
f 531/1029/293 550/1035/293 524/1056/293 538/1043/293
f 609/1057/294 610/1058/294 607/1059/294 608/1060/294
f 731/1061/295 732/1062/295 602/1063/295 599/1064/295
f 599/1065/296 602/1066/296 601/1067/296 597/1068/296
f 629/1069/297 630/1070/297 627/1071/297 628/1072/297
f 733/1073/298 734/1074/298 596/1075/298 593/1076/298
f 593/1077/299 596/1078/299 595/1079/299 591/1080/299
f 619/1081/300 620/1082/300 617/1083/300 618/1084/300
f 622/1085/301 624/1086/301 626/1087/301 623/1088/301
f 623/1089/302 626/1090/302 735/1091/302 736/1092/302
f 737/1093/303 738/1094/303 616/1095/303 613/1096/303
f 613/1097/304 616/1098/304 615/1099/304 611/1100/304
f 605/1101/305 570/1102/305 569/1103/305 606/1104/305
f 566/1105/306 595/1079/306 596/1078/306 568/1106/306
f 568/1107/298 596/1075/298 734/1074/298 739/1108/298
f 555/1109/305 554/1110/305 604/1111/305 603/1112/305
f 740/1113/298 733/1073/298 593/1076/298 553/1114/298
f 553/1115/306 593/1077/306 591/1080/306 552/1116/306
f 608/1060/294 607/1059/294 560/1117/294 559/1118/294
f 556/1119/307 601/1067/307 602/1066/307 558/1120/307
f 558/1121/295 602/1063/295 732/1062/295 741/1122/295
f 597/1068/307 562/1123/307 563/1124/307 599/1065/307
f 599/1064/295 563/1125/295 742/1126/295 731/1061/295
f 565/1127/294 564/1128/294 610/1058/294 609/1057/294
f 618/1084/300 617/1083/300 575/1129/300 574/1130/300
f 738/1094/303 743/1131/303 573/1132/303 616/1095/303
f 616/1098/308 573/1133/308 571/1134/308 615/1099/308
f 585/1135/300 584/1136/300 620/1082/300 619/1081/300
f 744/1137/303 737/1093/303 613/1096/303 583/1138/303
f 583/1139/308 613/1097/308 611/1100/308 582/1140/308
f 579/1141/297 628/1072/297 627/1071/297 580/1142/297
f 745/1143/302 735/1091/302 626/1090/302 578/1144/302
f 578/1145/301 626/1087/301 624/1086/301 577/1146/301
f 629/1069/297 590/1147/297 589/1148/297 630/1070/297
f 736/1092/302 746/1149/302 588/1150/302 623/1089/302
f 623/1088/301 588/1151/301 586/1152/301 622/1085/301
f 655/1153/309 658/1154/309 660/1155/309 657/1156/309
f 550/1035/293 695/1157/293 699/1158/293 524/1056/293
f 591/1159/310 604/1160/310 554/1161/310 552/1162/310
f 603/1112/292 723/1163/292 713/1164/292 555/1109/292
f 607/1165/311 601/1166/311 556/1167/311 560/1168/311
f 600/1169/293 691/1170/293 701/1171/293 557/1172/293
f 546/1033/292 715/1173/292 726/1174/292 520/1052/292
f 561/1175/293 706/1176/293 693/1177/293 598/1178/293
f 564/1179/311 562/1180/311 597/1181/311 610/1182/311
f 522/1049/292 712/1183/292 722/1184/292 545/1034/292
f 566/1185/310 570/1186/310 605/1187/310 595/1188/310
f 526/1053/293 700/1189/293 705/1190/293 549/1036/293
f 569/1103/292 718/1191/292 714/1192/292 606/1104/292
f 615/1193/312 571/1194/312 575/1195/312 617/1196/312
f 572/1197/293 614/1198/293 696/1199/293 703/1200/293
f 618/1201/292 574/1202/292 725/1203/292 721/1204/292
f 519/1054/293 537/1044/293 702/1205/293 704/1206/293
f 624/1207/313 628/1208/313 579/1209/313 577/1210/313
f 536/1041/292 520/1052/292 724/1211/292 719/1212/292
f 582/1213/312 611/1214/312 620/1215/312 584/1216/312
f 612/1217/293 581/1218/293 698/1219/293 694/1220/293
f 585/1221/292 619/1222/292 720/1223/292 716/1224/292
f 586/1225/313 590/1226/313 629/1227/313 622/1228/313
f 538/1043/293 524/1056/293 697/1229/293 692/1230/293
f 523/1050/292 535/1042/292 711/1231/292 717/1232/292
f 604/1160/310 591/1159/310 595/1188/310 605/1187/310
f 592/1233/293 695/1157/293 705/1190/293 594/1234/293
f 544/1045/293 691/1170/293 693/1177/293 543/1046/293
f 601/1166/311 607/1165/311 610/1182/311 597/1181/311
f 548/1047/292 723/1163/292 714/1192/292 547/1048/292
f 608/1060/292 715/1173/292 722/1184/292 609/1057/292
f 612/1217/293 694/1220/293 696/1199/293 614/1198/293
f 615/1193/312 617/1196/312 620/1215/312 611/1214/312
f 618/1201/292 721/1204/292 720/1223/292 619/1222/292
f 538/1043/293 692/1230/293 702/1205/293 537/1044/293
f 628/1208/313 624/1207/313 622/1228/313 629/1227/313
f 536/1041/292 719/1212/292 711/1231/292 535/1042/292
f 644/1235/314 646/1236/314 648/1237/314 645/1238/314
f 645/1239/315 648/1240/315 647/1241/315 643/1242/315
f 646/1243/316 747/1244/316 748/1245/316 648/1246/316
f 648/1246/317 748/1245/317 749/1247/317 647/1248/317
f 657/1156/318 660/1155/318 659/1249/318 656/1250/318
f 689/1251/319 686/1252/319 687/1253/319 690/1254/319
f 751/1255/320 676/1256/320 678/1257/320 750/1258/320
f 750/1258/321 678/1257/321 677/1259/321 752/1260/321
f 676/1261/322 673/1262/322 675/1263/322 678/1264/322
f 678/1265/323 675/1266/323 674/1267/323 677/1268/323
f 690/1254/324 687/1253/324 685/1269/324 688/1270/324
f 649/1271/325 652/1272/325 654/1273/325 651/1274/325
f 635/1275/326 637/1276/326 639/1277/326 636/1278/326
f 636/1279/327 639/1280/327 638/1281/327 634/1282/327
f 637/1283/328 753/1284/328 754/1285/328 639/1286/328
f 639/1286/329 754/1285/329 755/1287/329 638/1288/329
f 651/1274/330 654/1273/330 653/1289/330 650/1290/330
f 683/1291/331 680/1292/331 681/1293/331 684/1294/331
f 668/1295/332 664/1296/332 666/1297/332 669/1298/332
f 669/1299/333 666/1300/333 665/1301/333 667/1302/333
f 757/1303/334 668/1304/334 669/1305/334 756/1306/334
f 756/1306/335 669/1305/335 667/1307/335 758/1308/335
f 684/1294/336 681/1293/336 679/1309/336 682/1310/336
f 650/1290/294 653/1289/294 564/1128/294 565/1127/294
f 652/1311/337 635/1312/337 636/1313/337 654/1314/337
f 654/1315/338 636/1316/338 634/1317/338 653/1318/338
f 658/1319/339 644/1320/339 645/1321/339 660/1322/339
f 660/1323/340 645/1324/340 643/1325/340 659/1326/340
f 664/1327/341 683/1328/341 684/1329/341 666/1330/341
f 666/1331/342 684/1332/342 682/1333/342 665/1334/342
f 673/1335/343 689/1336/343 690/1337/343 675/1338/343
f 675/1339/344 690/1340/344 688/1341/344 674/1342/344
f 637/1283/303 573/1132/303 743/1131/303 753/1284/303
f 563/1125/295 638/1288/295 755/1287/295 742/1126/295
f 631/1343/293 710/1344/293 706/1176/293 561/1175/293
f 653/1318/311 634/1317/311 562/1180/311 564/1179/311
f 562/1123/345 634/1282/345 638/1281/345 563/1124/345
f 635/1275/308 571/1134/308 573/1133/308 637/1276/308
f 571/1194/312 635/1312/312 652/1311/312 575/1195/312
f 646/1243/298 568/1107/298 739/1108/298 747/1244/298
f 583/1138/303 647/1248/303 749/1247/303 744/1137/303
f 581/1218/293 640/1345/293 709/1346/293 698/1219/293
f 643/1325/312 582/1213/312 584/1216/312 659/1326/312
f 582/1140/308 643/1242/308 647/1241/308 583/1139/308
f 644/1235/346 566/1105/346 568/1106/346 646/1236/346
f 644/1320/310 658/1319/310 570/1186/310 566/1185/310
f 574/1202/292 649/1271/292 728/1347/292 725/1203/292
f 574/1130/300 575/1129/300 652/1272/300 649/1271/300
f 656/1250/300 659/1249/300 584/1136/300 585/1135/300
f 655/1153/292 730/1348/292 718/1191/292 569/1103/292
f 569/1103/305 570/1102/305 658/1154/305 655/1153/305
f 683/1291/297 579/1141/297 580/1142/297 680/1292/297
f 757/1303/302 745/1143/302 578/1144/302 668/1304/302
f 667/1307/347 558/1121/347 741/1122/347 758/1308/347
f 557/1172/293 701/1171/293 708/1349/293 662/1350/293
f 668/1295/348 578/1145/348 577/1146/348 664/1296/348
f 665/1301/307 556/1119/307 558/1120/307 667/1302/307
f 577/1210/313 579/1209/313 683/1328/313 664/1327/313
f 560/1168/311 556/1167/311 665/1334/311 682/1333/311
f 524/1056/293 699/1158/293 707/1351/293 697/1229/293
f 746/1149/302 752/1260/302 677/1259/302 588/1150/302
f 553/1114/349 676/1256/349 751/1255/349 740/1113/349
f 552/1116/306 673/1262/306 676/1261/306 553/1115/306
f 588/1151/348 677/1268/348 674/1267/348 586/1152/348
f 552/1162/310 554/1161/310 689/1336/310 673/1335/310
f 674/1342/313 688/1341/313 590/1226/313 586/1225/313
f 559/1118/294 560/1117/294 682/1310/294 679/1309/294
f 689/1251/305 554/1110/305 555/1109/305 686/1252/305
f 520/1052/292 726/1174/292 727/1352/292 724/1211/292
f 590/1147/297 688/1270/297 685/1269/297 589/1148/297
f 555/1109/292 713/1164/292 729/1353/292 686/1252/292
f 704/1206/293 702/1205/293 625/1354/293 576/1355/293
f 693/1177/293 706/1176/293 521/1055/293 543/1046/293
f 697/1229/293 707/1351/293 671/1356/293 587/1357/293
f 671/1356/293 707/1351/293 670/1358/293 672/1359/293
f 670/1358/293 707/1351/293 699/1158/293 551/1360/293
f 705/1190/293 695/1157/293 550/1035/293 549/1036/293
f 693/1177/293 691/1170/293 600/1169/293 598/1178/293
f 699/1158/293 695/1157/293 592/1233/293 551/1360/293
f 694/1220/293 698/1219/293 526/1053/293 540/1037/293
f 705/1190/293 700/1189/293 567/1361/293 594/1234/293
f 703/1200/293 696/1199/293 539/1038/293 521/1055/293
f 662/1350/293 708/1349/293 661/1362/293 663/1363/293
f 661/1362/293 708/1349/293 704/1206/293 576/1355/293
f 704/1206/293 708/1349/293 701/1171/293 519/1054/293
f 698/1219/293 709/1346/293 700/1189/293 526/1053/293
f 700/1189/293 709/1346/293 641/1364/293 567/1361/293
f 641/1364/293 709/1346/293 640/1345/293 642/1365/293
f 696/1199/293 694/1220/293 540/1037/293 539/1038/293
f 692/1230/293 697/1229/293 587/1357/293 621/1366/293
f 701/1171/293 691/1170/293 544/1045/293 519/1054/293
f 706/1176/293 710/1344/293 703/1200/293 521/1055/293
f 703/1200/293 710/1344/293 632/1367/293 572/1197/293
f 632/1367/293 710/1344/293 631/1343/293 633/1368/293
f 702/1205/293 692/1230/293 621/1366/293 625/1354/293
f 724/1211/292 727/1352/292 680/1292/292 580/1369/292
f 680/1292/292 727/1352/292 679/1309/292 681/1293/292
f 679/1309/292 727/1352/292 726/1174/292 559/1118/292
f 717/1232/292 711/1231/292 630/1370/292 589/1371/292
f 711/1231/292 719/1212/292 627/1372/292 630/1370/292
f 725/1203/292 728/1347/292 712/1183/292 522/1049/292
f 712/1183/292 728/1347/292 650/1290/292 565/1127/292
f 650/1290/292 728/1347/292 649/1271/292 651/1274/292
f 722/1184/292 712/1183/292 565/1127/292 609/1057/292
f 721/1204/292 725/1203/292 522/1049/292 542/1039/292
f 716/1224/292 720/1223/292 541/1040/292 525/1051/292
f 720/1223/292 721/1204/292 542/1039/292 541/1040/292
f 714/1192/292 723/1163/292 603/1112/292 606/1104/292
f 722/1184/292 715/1173/292 546/1033/292 545/1034/292
f 714/1192/292 718/1191/292 525/1051/292 547/1048/292
f 686/1252/292 729/1353/292 685/1269/292 687/1253/292
f 685/1269/292 729/1353/292 717/1232/292 589/1371/292
f 717/1232/292 729/1353/292 713/1164/292 523/1050/292
f 713/1164/292 723/1163/292 548/1047/292 523/1050/292
f 718/1191/292 730/1348/292 716/1224/292 525/1051/292
f 716/1224/292 730/1348/292 656/1250/292 585/1221/292
f 656/1250/292 730/1348/292 655/1153/292 657/1156/292
f 719/1212/292 724/1211/292 580/1369/292 627/1372/292
f 726/1174/292 715/1173/292 608/1060/292 559/1118/292
f 605/1101/305 606/1104/305 603/1112/305 604/1111/305
f 598/1373/350 600/1374/350 732/1375/350 731/1376/350
f 592/1377/351 594/1378/351 734/1379/351 733/1380/351
f 625/1381/352 621/1382/352 736/1383/352 735/1384/352
f 612/1385/353 614/1386/353 738/1387/353 737/1388/353
f 594/1378/351 567/1389/351 739/1390/351 734/1379/351
f 551/1391/351 592/1377/351 733/1380/351 740/1392/351
f 600/1374/350 557/1393/350 741/1394/350 732/1375/350
f 561/1395/350 598/1373/350 731/1376/350 742/1396/350
f 614/1386/353 572/1397/353 743/1398/353 738/1387/353
f 581/1399/353 612/1385/353 737/1388/353 744/1400/353
f 576/1401/352 625/1381/352 735/1384/352 745/1402/352
f 621/1382/352 587/1403/352 746/1404/352 736/1383/352
f 641/1405/354 642/1406/354 748/1407/354 747/1408/354
f 642/1409/355 640/1410/355 749/1411/355 748/1412/355
f 672/1413/356 670/1414/356 751/1415/356 750/1416/356
f 671/1417/357 672/1418/357 750/1419/357 752/1420/357
f 632/1421/358 633/1422/358 754/1423/358 753/1424/358
f 633/1425/359 631/1426/359 755/1427/359 754/1428/359
f 663/1429/360 661/1430/360 757/1431/360 756/1432/360
f 662/1433/361 663/1434/361 756/1435/361 758/1436/361
f 572/1397/353 632/1421/353 753/1424/353 743/1398/353
f 631/1426/350 561/1395/350 742/1396/350 755/1427/350
f 567/1389/351 641/1405/351 747/1408/351 739/1390/351
f 640/1410/353 581/1399/353 744/1400/353 749/1411/353
f 661/1430/352 576/1401/352 745/1402/352 757/1431/352
f 557/1393/350 662/1433/350 758/1436/350 741/1394/350
f 670/1414/351 551/1391/351 740/1392/351 751/1415/351
f 587/1403/362 671/1417/362 752/1420/362 746/1404/362
