# Blender 5.2.1 LTS
# www.blender.org
mtllib ServerRack1.mtl
o ServerRack1
v 0.600000 0.000000 -0.600000
v 0.600000 2.400000 -0.600000
v 0.600000 0.000000 0.600000
v 0.600000 2.400000 0.600000
v -0.600000 0.050000 -0.550000
v -0.600000 2.350000 -0.550000
v -0.600000 0.050000 0.550000
v -0.600000 2.350000 0.550000
v -0.600000 1.459738 -0.550000
v 0.600000 1.049741 -0.600000
v 0.600000 1.271704 -0.600000
v 0.600000 1.817824 -0.600000
v 0.600000 2.000000 -0.600000
v 0.600000 2.000000 0.600000
v 0.600000 1.817824 0.600000
v 0.600000 1.271704 0.600000
v 0.600000 1.049741 0.600000
v -0.600000 1.459738 0.550000
v -0.600000 2.000000 0.550000
v -0.600000 1.817824 0.550000
v -0.652809 1.247731 0.526027
v -0.652809 1.073714 0.526027
v 0.600000 1.459738 0.600000
v -0.600000 2.000000 -0.550000
v -0.600000 1.817824 -0.550000
v -0.652809 1.247731 -0.526027
v -0.652809 1.073714 -0.526027
v 0.600000 1.459738 -0.600000
v -0.600000 1.817824 0.600000
v -0.600000 1.459738 0.600000
v -0.600000 0.000000 -0.600000
v -0.600000 0.000000 0.600000
v -0.600000 2.400000 0.600000
v -0.600000 2.400000 -0.600000
v -0.600000 1.817824 -0.600000
v -0.600000 1.459738 -0.600000
v -0.600000 2.000000 0.600000
v -0.600000 1.271704 0.600000
v -0.600000 1.049741 0.600000
v -0.600000 2.000000 -0.600000
v -0.600000 1.271704 -0.600000
v -0.600000 1.049741 -0.600000
v -0.562622 1.459738 0.550000
v -0.562622 1.459738 -0.550000
v -0.562622 1.049741 0.550000
v -0.562622 1.049741 -0.550000
v -0.562622 1.817824 0.550000
v -0.562622 1.817824 -0.550000
v -0.562622 2.000000 0.550000
v -0.562622 2.000000 -0.550000
v -0.562622 0.050000 -0.550000
v -0.562622 0.050000 0.550000
v -0.562622 2.350000 0.550000
v -0.562622 2.350000 -0.550000
v -0.600000 1.049741 0.550000
v -0.600000 1.049741 -0.550000
v -0.600000 1.271704 0.550000
v -0.600000 1.271704 -0.550000
v 0.600000 0.537418 -0.600000
v 0.600000 0.537418 0.600000
v -0.600000 0.537418 0.600000
v -0.600000 0.537418 -0.600000
v -0.600000 0.537323 0.550000
v -0.600000 0.537323 -0.550000
v -0.562622 0.537323 0.550000
v -0.562622 0.537323 -0.550000
v 0.600000 0.580559 -0.600000
v 0.600000 0.580559 0.600000
v -0.600000 0.580559 0.600000
v -0.600000 0.580559 -0.600000
v -0.600000 0.580472 0.550000
v -0.600000 0.580472 -0.550000
v -0.562622 0.580472 0.550000
v -0.562622 0.580472 -0.550000
v 0.600000 1.007260 -0.600000
v 0.600000 1.007260 0.600000
v -0.600000 1.007260 0.600000
v -0.600000 1.007260 -0.600000
v -0.600000 1.007252 0.550000
v -0.600000 1.007252 -0.550000
v -0.562622 1.007252 0.550000
v -0.562622 1.007252 -0.550000
v 0.600000 1.313580 -0.600000
v 0.600000 1.313580 0.600000
v -0.600000 1.313580 0.600000
v -0.600000 1.313580 -0.600000
v -0.600000 1.313580 0.550000
v -0.600000 1.313580 -0.550000
vn 1.0000 -0.0000 -0.0000
vn -0.0000 -0.0000 1.0000
vn -0.0000 1.0000 -0.0000
vn -0.0000 -0.0000 -1.0000
vn -0.0000 -1.0000 -0.0000
vn -1.0000 -0.0000 -0.0000
vn -0.4134 -0.9106 -0.0000
vn -0.4134 0.9106 -0.0000
vn -0.4134 -0.0000 0.9106
vn -0.4134 -0.0000 -0.9106
vt 0.230252 0.768583
vt 0.230252 0.806246
vt 0.117265 0.806246
vt 0.117265 0.768583
vt 0.004277 0.806246
vt 0.004277 0.768583
vt 0.468002 0.170883
vt 0.468002 0.167364
vt 0.571574 0.167364
vt 0.571574 0.170883
vt 0.343239 0.768583
vt 0.343239 0.806246
vt 0.117265 0.580271
vt 0.117265 0.467284
vt 0.230252 0.467284
vt 0.230252 0.580271
vt 0.117265 0.919233
vt 0.230252 0.919233
vt 0.972266 0.407937
vt 0.972266 0.441653
vt 0.968746 0.441653
vt 0.968746 0.407937
vt 0.343239 0.679111
vt 0.343239 0.700010
vt 0.230252 0.700010
vt 0.230252 0.679111
vt 0.343239 0.717714
vt 0.343239 0.751430
vt 0.230252 0.751430
vt 0.230252 0.717714
vt 0.117265 0.675111
vt 0.117265 0.679111
vt 0.004277 0.679111
vt 0.004277 0.675111
vt 0.343239 0.703953
vt 0.230252 0.703953
vt 0.801514 0.254718
vt 0.800402 0.271067
vt 0.709413 0.270835
vt 0.708786 0.254000
vt 0.954588 0.108125
vt 0.954588 0.154009
vt 0.951069 0.154009
vt 0.951069 0.108125
vt 0.695029 0.176466
vt 0.695029 0.193619
vt 0.591457 0.193619
vt 0.591457 0.176466
vt 0.230252 0.675111
vt 0.695029 0.128988
vt 0.695029 0.142750
vt 0.591457 0.142750
vt 0.591457 0.128988
vt 0.117265 0.700010
vt 0.004277 0.700010
vt 0.117265 0.717714
vt 0.117265 0.751430
vt 0.004277 0.751430
vt 0.004277 0.717714
vt 0.117265 0.703953
vt 0.004277 0.703953
vt 0.343239 0.675111
vt 0.699737 0.142750
vt 0.699737 0.176466
vt 0.695029 0.010014
vt 0.591457 0.010014
vt 0.586749 0.005306
vt 0.699737 0.005306
vt 0.591457 0.226574
vt 0.695029 0.226574
vt 0.699737 0.231281
vt 0.586749 0.231281
vt 0.586749 0.176466
vt 0.586749 0.142750
vt 0.699737 0.193619
vt 0.695029 0.125045
vt 0.699737 0.125045
vt 0.699737 0.128988
vt 0.695029 0.104146
vt 0.699737 0.104146
vt 0.695029 0.055899
vt 0.699737 0.055908
vt 0.586749 0.193619
vt 0.586749 0.128988
vt 0.591457 0.104146
vt 0.591457 0.125045
vt 0.586749 0.125045
vt 0.586749 0.104146
vt 0.591457 0.100146
vt 0.586749 0.100146
vt 0.804329 0.420769
vt 0.804329 0.453724
vt 0.700757 0.453724
vt 0.700757 0.420769
vt 0.468002 0.163363
vt 0.571574 0.163363
vt 0.692371 0.291846
vt 0.692371 0.325562
vt 0.588799 0.325562
vt 0.588799 0.291846
vt 0.972266 0.545224
vt 0.972266 0.578940
vt 0.968746 0.578940
vt 0.968746 0.545224
vt 0.982578 0.951096
vt 0.982578 0.984051
vt 0.979058 0.984051
vt 0.979058 0.951096
vt 0.954588 0.257580
vt 0.951069 0.257580
vt 0.695029 0.100146
vt 0.972266 0.304365
vt 0.968746 0.304365
vt 0.982578 0.710997
vt 0.982578 0.814569
vt 0.979058 0.814569
vt 0.979058 0.710997
vt 0.982578 0.847524
vt 0.979058 0.847524
vt 0.702730 0.247836
vt 0.807275 0.249469
vt 0.806908 0.276422
vt 0.702208 0.276948
vt 0.954588 0.303465
vt 0.951069 0.303465
vt 0.568628 0.180978
vt 0.568628 0.226862
vt 0.465056 0.226862
vt 0.465056 0.180978
vt 0.591457 0.055899
vt 0.586749 0.055908
vt 0.695029 0.059962
vt 0.699737 0.059970
vt 0.343239 0.580271
vt 0.343239 0.630872
vt 0.230252 0.630872
vt 0.117265 0.630872
vt 0.969319 0.147924
vt 0.965800 0.147924
vt 0.965800 0.044352
vt 0.969319 0.044352
vt 0.004277 0.630872
vt 0.004277 0.580271
vt 0.965800 0.188108
vt 0.969319 0.188108
vt 0.699737 0.100146
vt 0.951069 0.004553
vt 0.954588 0.004553
vt 0.343239 0.464392
vt 0.343239 0.468455
vt 0.239668 0.468455
vt 0.239668 0.464392
vt 0.591457 0.059962
vt 0.586749 0.059970
vt 0.343239 0.634934
vt 0.230252 0.634934
vt 0.117265 0.634934
vt 0.004277 0.634934
vt 0.969319 0.291680
vt 0.965800 0.291680
vt 0.965800 0.004169
vt 0.969319 0.004169
vt 0.692371 0.242657
vt 0.692371 0.282841
vt 0.588799 0.282841
vt 0.588799 0.242657
s 0
f 13/1/1 2/2/1 4/3/1 14/4/1
f 14/4/2 4/3/2 33/5/2 37/6/2
f 55/7/3 45/8/3 46/9/3 56/10/3
f 40/11/4 34/12/4 2/2/4 13/1/4
f 3/13/5 32/14/5 31/15/5 1/16/5
f 33/17/3 4/3/3 2/2/3 34/18/3
f 25/19/2 9/20/2 44/21/2 48/22/2
f 42/23/4 41/24/4 11/25/4 10/26/4
f 36/27/4 35/28/4 12/29/4 28/30/4
f 35/28/4 40/11/4 13/1/4 12/29/4
f 76/31/2 17/32/2 39/33/2 77/34/2
f 86/35/4 36/27/4 28/30/4 83/36/4
f 22/37/6 21/38/6 26/39/6 27/40/6
f 64/41/2 5/42/2 51/43/2 66/44/2
f 20/45/6 19/46/6 24/47/6 25/48/6
f 75/49/1 10/26/1 17/32/1 76/31/1
f 87/50/6 18/51/6 9/52/6 88/53/6
f 17/32/2 16/54/2 38/55/2 39/33/2
f 23/56/2 15/57/2 29/58/2 30/59/2
f 15/57/2 14/4/2 37/6/2 29/58/2
f 83/36/1 28/30/1 23/56/1 84/60/1
f 84/60/2 23/56/2 30/59/2 85/61/2
f 10/26/1 11/25/1 16/54/1 17/32/1
f 28/30/1 12/29/1 15/57/1 23/56/1
f 12/29/1 13/1/1 14/4/1 15/57/1
f 78/62/4 42/23/4 10/26/4 75/49/4
f 20/45/6 18/51/6 30/63/6 29/64/6
f 7/65/6 5/66/6 31/67/6 32/68/6
f 6/69/6 8/70/6 33/71/6 34/72/6
f 9/52/6 25/48/6 35/73/6 36/74/6
f 8/70/6 19/46/6 37/75/6 33/71/6
f 19/46/6 20/45/6 29/64/6 37/75/6
f 87/50/6 57/76/6 38/77/6 85/78/6
f 57/76/6 55/79/6 39/80/6 38/77/6
f 63/81/6 7/65/6 32/68/6 61/82/6
f 24/47/6 6/69/6 34/72/6 40/83/6
f 25/48/6 24/47/6 40/83/6 35/73/6
f 88/53/6 9/52/6 36/74/6 86/84/6
f 56/85/6 58/86/6 41/87/6 42/88/6
f 80/89/6 56/85/6 42/88/6 78/90/6
f 49/91/6 53/92/6 54/93/6 50/94/6
f 81/95/1 82/96/1 46/9/1 45/8/1
f 43/97/6 47/98/6 48/99/6 44/100/6
f 18/101/4 20/102/4 47/103/4 43/104/4
f 19/105/4 8/106/4 53/107/4 49/108/4
f 5/42/3 7/109/3 52/110/3 51/43/3
f 79/111/6 55/79/6 56/85/6 80/89/6
f 20/112/5 25/19/5 48/22/5 47/113/5
f 9/20/3 18/101/3 43/104/3 44/21/3
f 8/114/5 6/115/5 54/116/5 53/117/5
f 6/115/2 24/118/2 50/119/2 54/116/2
f 24/118/3 19/105/3 49/108/3 50/119/3
f 22/37/7 27/40/7 56/120/7 55/121/7
f 26/39/8 21/38/8 57/122/8 58/123/8
f 21/38/9 22/37/9 55/121/9 57/122/9
f 27/40/10 26/39/10 58/123/10 56/120/10
f 7/109/4 63/124/4 65/125/4 52/110/4
f 52/126/6 65/127/6 66/128/6 51/129/6
f 5/66/6 64/130/6 62/131/6 31/67/6
f 71/132/6 63/81/6 61/82/6 69/133/6
f 31/134/4 62/135/4 59/136/4 1/16/4
f 1/16/1 59/136/1 60/137/1 3/13/1
f 74/138/3 72/139/3 71/140/3 73/141/3
f 3/13/2 60/137/2 61/142/2 32/143/2
f 80/144/2 72/139/2 74/138/2 82/145/2
f 79/111/6 71/132/6 69/133/6 77/146/6
f 64/41/5 66/44/5 65/147/5 63/148/5
f 65/149/6 73/150/6 74/151/6 66/152/6
f 64/130/6 72/153/6 70/154/6 62/131/6
f 62/135/4 70/155/4 67/156/4 59/136/4
f 59/136/1 67/156/1 68/157/1 60/137/1
f 60/137/2 68/157/2 69/158/2 61/142/2
f 72/153/6 64/130/6 63/81/6 71/132/6
f 55/79/6 79/111/6 77/146/6 39/80/6
f 81/159/5 79/160/5 80/144/5 82/145/5
f 71/140/4 79/161/4 81/162/4 73/141/4
f 73/163/6 81/164/6 82/165/6 74/166/6
f 72/153/6 80/89/6 78/90/6 70/154/6
f 70/155/4 78/62/4 75/49/4 67/156/4
f 67/156/1 75/49/1 76/31/1 68/157/1
f 68/157/2 76/31/2 77/34/2 69/158/2
f 58/86/6 88/53/6 86/84/6 41/87/6
f 18/51/6 87/50/6 85/78/6 30/63/6
f 16/54/2 84/60/2 85/61/2 38/55/2
f 11/25/1 83/36/1 84/60/1 16/54/1
f 57/76/6 87/50/6 88/53/6 58/86/6
f 41/24/4 86/35/4 83/36/4 11/25/4
