# Blender 5.2.1 LTS
# www.blender.org
mtllib ServerRack4.mtl
o ServerRack4
v 0.600000 0.000000 -0.600000
v 0.600000 2.400000 -0.600000
v 0.600000 0.000000 0.600000
v 0.600000 2.400000 0.600000
v -0.600000 0.050000 -0.550000
v -0.600000 2.350000 -0.550000
v -0.600000 0.050000 0.550000
v -0.600000 2.350000 0.550000
v 0.600000 0.400000 -0.600000
v 0.600000 0.800000 -0.600000
v 0.600000 1.358523 -0.600000
v 0.600000 1.600000 -0.600000
v 0.600000 1.841476 -0.600000
v 0.600000 1.841476 0.600000
v 0.600000 1.600000 0.600000
v 0.600000 1.358523 0.600000
v 0.600000 0.800000 0.600000
v 0.600000 0.400000 0.600000
v -0.600000 1.841476 0.550000
v -0.600000 1.600000 0.550000
v -0.600000 1.358523 0.550000
v -0.600000 0.800000 0.550000
v -0.600000 0.400000 0.550000
v -0.600000 1.841476 -0.550000
v -0.600000 1.600000 -0.550000
v -0.600000 1.358523 -0.550000
v -0.600000 0.800000 -0.550000
v -0.600000 0.400000 -0.550000
v 0.600000 1.800000 -0.600000
v 0.600000 1.800000 0.600000
v -0.600000 1.800000 0.550000
v -0.600000 1.800000 -0.550000
v 0.600000 1.400000 -0.600000
v 0.600000 1.400000 0.600000
v -0.600000 1.400000 0.550000
v -0.600000 1.400000 -0.550000
v 0.600000 0.600000 -0.600000
v 0.600000 0.600000 0.600000
v -0.600000 0.600000 0.550000
v -0.600000 0.600000 -0.550000
v 0.600000 0.355541 0.600000
v -0.600000 0.355541 0.550000
v -0.600000 0.355541 -0.550000
v 0.600000 0.355541 -0.600000
v 0.600000 0.645934 -0.600000
v 0.600000 0.645934 0.600000
v -0.600000 0.645934 0.550000
v -0.600000 0.645934 -0.550000
v -0.600000 0.355541 0.600000
v -0.600000 0.000000 0.600000
v -0.600000 0.000000 -0.600000
v -0.600000 2.400000 0.600000
v -0.600000 2.400000 -0.600000
v -0.600000 0.355541 -0.600000
v -0.600000 1.841476 0.600000
v -0.600000 1.800000 0.600000
v -0.600000 1.600000 0.600000
v -0.600000 1.400000 0.600000
v -0.600000 1.358523 0.600000
v -0.600000 0.800000 0.600000
v -0.600000 0.600000 0.600000
v -0.600000 0.400000 0.600000
v -0.600000 1.841476 -0.600000
v -0.600000 1.800000 -0.600000
v -0.600000 1.600000 -0.600000
v -0.600000 1.400000 -0.600000
v -0.600000 1.358523 -0.600000
v -0.600000 0.800000 -0.600000
v -0.600000 0.600000 -0.600000
v -0.600000 0.400000 -0.600000
v -0.600000 0.645934 0.600000
v -0.600000 0.645934 -0.600000
v -0.636561 1.432786 0.517214
v -0.636561 1.567214 0.517214
v -0.636561 1.567214 -0.517214
v -0.636561 1.432786 -0.517214
v -0.636561 1.632786 0.517214
v -0.636561 1.767214 0.517214
v -0.636561 1.767214 -0.517214
v -0.636561 1.632786 -0.517214
v -0.636561 0.432786 0.517214
v -0.636561 0.567214 0.517214
v -0.636561 0.567214 -0.517214
v -0.636561 0.432786 -0.517214
v -0.561559 0.800000 0.550000
v -0.561559 0.800000 -0.550000
v -0.561559 1.358523 0.550000
v -0.561559 1.358523 -0.550000
v -0.561559 1.841476 0.550000
v -0.561559 1.841476 -0.550000
v -0.561559 0.355541 0.550000
v -0.561559 0.355541 -0.550000
v -0.561559 0.050000 0.550000
v -0.561559 0.050000 -0.550000
v -0.561559 2.350000 0.550000
v -0.561559 2.350000 -0.550000
vn 1.0000 -0.0000 -0.0000
vn -0.0000 -0.0000 1.0000
vn -0.0000 -0.0000 -1.0000
vn -0.0000 -1.0000 -0.0000
vn -0.0000 1.0000 -0.0000
vn -1.0000 -0.0000 -0.0000
vn -0.6676 -0.0000 0.7445
vn -0.6676 0.7445 -0.0000
vn -0.6676 -0.0000 -0.7445
vn -0.6676 -0.7445 -0.0000
vt 0.577911 0.525322
vt 0.577910 0.577911
vt 0.464923 0.577911
vt 0.464923 0.525322
vt 0.351936 0.577910
vt 0.351936 0.525322
vt 0.942803 0.582901
vt 0.942803 0.630781
vt 0.939184 0.630781
vt 0.939184 0.582901
vt 0.690898 0.525322
vt 0.690898 0.577910
vt 0.464923 0.351936
vt 0.464923 0.238949
vt 0.577910 0.238949
vt 0.577910 0.351936
vt 0.464923 0.690898
vt 0.577910 0.690898
vt 0.690898 0.385412
vt 0.690898 0.389598
vt 0.577911 0.389598
vt 0.577911 0.385412
vt 0.690898 0.412755
vt 0.690898 0.427261
vt 0.577911 0.427261
vt 0.577911 0.412755
vt 0.690898 0.479849
vt 0.577910 0.479849
vt 0.690898 0.483754
vt 0.690898 0.502586
vt 0.577910 0.502586
vt 0.577911 0.483754
vt 0.690898 0.521417
vt 0.577911 0.521417
vt 0.462274 0.735573
vt 0.462274 0.739760
vt 0.358703 0.739760
vt 0.358703 0.735573
vt 0.462274 0.762916
vt 0.462274 0.777422
vt 0.358703 0.777422
vt 0.358703 0.762916
vt 0.942803 0.479330
vt 0.939184 0.479330
vt 0.577054 0.863312
vt 0.576353 0.876070
vt 0.482309 0.876060
vt 0.483010 0.863301
vt 0.462274 0.871578
vt 0.462274 0.875483
vt 0.358703 0.875483
vt 0.358703 0.871578
vt 0.464923 0.385412
vt 0.464923 0.389598
vt 0.351936 0.389598
vt 0.351936 0.385412
vt 0.464923 0.412755
vt 0.464923 0.427261
vt 0.351936 0.427261
vt 0.351936 0.412755
vt 0.464923 0.479849
vt 0.351936 0.479849
vt 0.464923 0.483754
vt 0.464923 0.502586
vt 0.351936 0.502586
vt 0.351936 0.483754
vt 0.464923 0.521417
vt 0.351936 0.521417
vt 0.338490 0.362665
vt 0.337910 0.375343
vt 0.243829 0.375202
vt 0.244464 0.362362
vt 0.462274 0.830010
vt 0.462274 0.833916
vt 0.358703 0.833916
vt 0.358703 0.830010
vt 0.577911 0.408430
vt 0.464923 0.408430
vt 0.351936 0.408430
vt 0.577137 0.828174
vt 0.576557 0.840852
vt 0.482476 0.840711
vt 0.483111 0.827872
vt 0.690898 0.408430
vt 0.351936 0.351936
vt 0.447971 0.024283
vt 0.395383 0.024283
vt 0.395383 0.020663
vt 0.447971 0.020663
vt 0.690898 0.351936
vt 0.462274 0.758591
vt 0.358703 0.758591
vt 0.462274 0.706805
vt 0.466982 0.702097
vt 0.466982 0.735573
vt 0.358703 0.706805
vt 0.353995 0.702097
vt 0.358703 0.923364
vt 0.462274 0.923364
vt 0.466982 0.928072
vt 0.353995 0.928072
vt 0.353995 0.735573
vt 0.466982 0.875483
vt 0.462274 0.852747
vt 0.466982 0.852747
vt 0.466982 0.871578
vt 0.466982 0.830010
vt 0.466982 0.833916
vt 0.466982 0.777422
vt 0.466982 0.739760
vt 0.466982 0.758591
vt 0.353995 0.875483
vt 0.358703 0.852747
vt 0.353995 0.871578
vt 0.353995 0.852747
vt 0.353995 0.833916
vt 0.353995 0.830010
vt 0.353995 0.777422
vt 0.353995 0.758591
vt 0.353995 0.739760
vt 0.466982 0.762916
vt 0.353995 0.762916
vt 0.581886 0.858742
vt 0.581466 0.880932
vt 0.477477 0.880629
vt 0.477897 0.858440
vt 0.343239 0.358130
vt 0.342920 0.379905
vt 0.238901 0.380067
vt 0.239277 0.357463
vt 0.581886 0.823639
vt 0.581567 0.845414
vt 0.477548 0.845577
vt 0.477924 0.822972
vt 0.456670 0.124476
vt 0.456670 0.172356
vt 0.353099 0.172356
vt 0.353099 0.124476
vt 0.344712 0.049058
vt 0.344712 0.101646
vt 0.241141 0.101646
vt 0.241141 0.049058
vt 0.807275 0.287954
vt 0.807275 0.316723
vt 0.703703 0.316723
vt 0.703703 0.287954
vt 0.166017 0.935837
vt 0.137248 0.935837
vt 0.137248 0.932218
vt 0.166017 0.932218
vt 0.942803 0.734352
vt 0.939184 0.734352
vt 0.033676 0.935838
vt 0.004908 0.935838
vt 0.004908 0.932218
vt 0.033676 0.932218
vt 0.291812 0.024283
vt 0.239224 0.024283
vt 0.239224 0.020663
vt 0.291812 0.020663
vt 0.269589 0.935837
vt 0.269589 0.932218
vt 0.942803 0.782232
vt 0.939184 0.782232
vt 0.551542 0.024283
vt 0.551542 0.020664
s 0
f 13/1/1 2/2/1 4/3/1 14/4/1
f 14/4/2 4/3/2 52/5/2 55/6/2
f 6/7/2 24/8/2 90/9/2 96/10/2
f 63/11/3 53/12/3 2/2/3 13/1/3
f 3/13/4 50/14/4 51/15/4 1/16/4
f 52/17/5 4/3/5 2/2/5 53/18/5
f 54/19/3 70/20/3 9/21/3 44/22/3
f 72/23/3 68/24/3 10/25/3 45/26/3
f 68/24/3 67/27/3 11/28/3 10/25/3
f 66/29/3 65/30/3 12/31/3 33/32/3
f 64/33/3 63/11/3 13/1/3 29/34/3
f 42/35/6 23/36/6 28/37/6 43/38/6
f 47/39/6 22/40/6 27/41/6 48/42/6
f 8/43/4 6/7/4 96/10/4 95/44/4
f 73/45/6 74/46/6 75/47/6 76/48/6
f 31/49/6 19/50/6 24/51/6 32/52/6
f 41/53/2 18/54/2 62/55/2 49/56/2
f 46/57/2 17/58/2 60/59/2 71/60/2
f 17/58/2 16/61/2 59/62/2 60/59/2
f 34/63/2 15/64/2 57/65/2 58/66/2
f 30/67/2 14/4/2 55/6/2 56/68/2
f 44/22/1 9/21/1 18/54/1 41/53/1
f 45/26/1 10/25/1 17/58/1 46/57/1
f 10/25/1 11/28/1 16/61/1 17/58/1
f 33/32/1 12/31/1 15/64/1 34/63/1
f 29/34/1 13/1/1 14/4/1 30/67/1
f 12/31/1 29/34/1 30/67/1 15/64/1
f 15/64/2 30/67/2 56/68/2 57/65/2
f 77/69/6 78/70/6 79/71/6 80/72/6
f 65/30/3 64/33/3 29/34/3 12/31/3
f 11/28/1 33/32/1 34/63/1 16/61/1
f 16/61/2 34/63/2 58/66/2 59/62/2
f 21/73/6 35/74/6 36/75/6 26/76/6
f 67/27/3 66/29/3 33/32/3 11/28/3
f 9/21/1 37/77/1 38/78/1 18/54/1
f 18/54/2 38/78/2 61/79/2 62/55/2
f 81/80/6 82/81/6 83/82/6 84/83/6
f 70/20/3 69/84/3 37/77/3 9/21/3
f 1/16/1 44/22/1 41/53/1 3/13/1
f 3/13/2 41/53/2 49/56/2 50/85/2
f 26/86/2 27/87/2 86/88/2 88/89/2
f 51/90/3 54/19/3 44/22/3 1/16/3
f 37/77/1 45/26/1 46/57/1 38/78/1
f 38/78/2 46/57/2 71/60/2 61/79/2
f 39/91/6 47/39/6 48/42/6 40/92/6
f 69/84/3 72/23/3 45/26/3 37/77/3
f 42/35/6 7/93/6 50/94/6 49/95/6
f 7/93/6 5/96/6 51/97/6 50/94/6
f 6/98/6 8/99/6 52/100/6 53/101/6
f 5/96/6 43/38/6 54/102/6 51/97/6
f 8/99/6 19/50/6 55/103/6 52/100/6
f 31/49/6 20/104/6 57/105/6 56/106/6
f 35/74/6 21/73/6 59/107/6 58/108/6
f 21/73/6 22/40/6 60/109/6 59/107/6
f 39/91/6 23/36/6 62/110/6 61/111/6
f 24/51/6 6/98/6 53/101/6 63/112/6
f 25/113/6 32/52/6 64/114/6 65/115/6
f 26/76/6 36/75/6 66/116/6 67/117/6
f 27/41/6 26/76/6 67/117/6 68/118/6
f 28/37/6 40/92/6 69/119/6 70/120/6
f 19/50/6 31/49/6 56/106/6 55/103/6
f 32/52/6 24/51/6 63/112/6 64/114/6
f 20/104/6 35/74/6 58/108/6 57/105/6
f 36/75/6 25/113/6 65/115/6 66/116/6
f 47/39/6 39/91/6 61/111/6 71/121/6
f 40/92/6 48/42/6 72/122/6 69/119/6
f 23/36/6 42/35/6 49/95/6 62/110/6
f 43/38/6 28/37/6 70/120/6 54/102/6
f 22/40/6 47/39/6 71/121/6 60/109/6
f 48/42/6 27/41/6 68/118/6 72/122/6
f 35/123/7 20/124/7 74/46/7 73/45/7
f 20/124/8 25/125/8 75/47/8 74/46/8
f 25/125/9 36/126/9 76/48/9 75/47/9
f 36/126/10 35/123/10 73/45/10 76/48/10
f 20/127/7 31/128/7 78/70/7 77/69/7
f 31/128/8 32/129/8 79/71/8 78/70/8
f 32/129/9 25/130/9 80/72/9 79/71/9
f 25/130/10 20/127/10 77/69/10 80/72/10
f 23/131/7 39/132/7 82/81/7 81/80/7
f 39/132/8 40/133/8 83/82/8 82/81/8
f 40/133/9 28/134/9 84/83/9 83/82/9
f 28/134/10 23/131/10 81/80/10 84/83/10
f 89/135/6 95/136/6 96/137/6 90/138/6
f 85/139/6 87/140/6 88/141/6 86/142/6
f 93/143/6 91/144/6 92/145/6 94/146/6
f 43/147/2 5/148/2 94/149/2 92/150/2
f 24/8/5 19/151/5 89/152/5 90/9/5
f 7/153/3 42/154/3 91/155/3 93/156/3
f 22/157/3 21/158/3 87/159/3 85/160/3
f 42/161/4 43/147/4 92/150/4 91/162/4
f 27/87/5 22/157/5 85/160/5 86/88/5
f 19/151/3 8/163/3 95/164/3 89/152/3
f 5/148/5 7/153/5 93/156/5 94/149/5
f 21/165/4 26/86/4 88/89/4 87/166/4
