# Blender 5.1.1
# www.blender.org
mtllib 12mRearWall.mtl
o 12mRearWall
v 6.000000 -2.000823 0.419470
v -6.000000 -2.000823 0.419470
v 6.000000 -0.929937 -0.419470
v -6.000000 -0.929937 -0.419470
v 6.000000 0.929937 -0.419470
v -6.000000 0.929937 -0.419470
v 6.000000 2.000823 0.419470
v -6.000000 2.000823 0.419470
vn -0.0000 0.6167 0.7872
vn -0.0000 -0.0000 1.0000
vn -0.0000 -0.6167 0.7872
vn 1.0000 -0.0000 -0.0000
vn -1.0000 -0.0000 -0.0000
vt 0.000000 0.000000
s 0
usemtl Material
f 1/1/1 3/1/1 4/1/1 2/1/1
f 3/1/2 5/1/2 6/1/2 4/1/2
f 5/1/3 7/1/3 8/1/3 6/1/3
f 2/1/4 4/1/4 6/1/4 8/1/4
f 3/1/5 1/1/5 7/1/5 5/1/5
