# Blender 5.1.1
# www.blender.org
mtllib 12mRoofVent.mtl
o 12mRoofVent
v 6.000000 -0.100005 -2.500249
v 6.000000 0.100005 -2.496497
v -6.000000 -0.100005 -2.500249
v -6.000000 0.100005 -2.496497
v 6.000000 -0.100005 -0.885162
v 6.000000 0.100005 -0.882661
v -6.000000 -0.100005 -0.885162
v -6.000000 0.100005 -0.882661
v 6.000000 -0.100005 -1.084545
v -6.000000 0.100005 -1.082535
v 6.000000 0.100005 -1.082535
v -6.000000 -0.100005 -1.084545
v 6.000000 1.033576 -1.082535
v 6.000000 1.033576 -0.882661
v -6.000000 1.033576 1.090857
v -6.000000 1.033576 -0.882661
v 6.000000 1.033576 1.090857
v -6.000000 1.033576 -1.082535
v 6.000000 1.234058 -1.082535
v 6.000000 1.234058 -0.882661
v -6.000000 1.234058 1.090857
v -6.000000 1.234058 -0.882661
v 6.000000 1.234058 1.090857
v -6.000000 1.234058 -1.082535
vn -0.0000 -1.0000 -0.0000
vn -0.0000 0.0188 -0.9998
vn -0.0000 -0.0125 0.9999
vn -1.0000 -0.0000 -0.0000
vn 1.0000 -0.0000 -0.0000
vn -0.0000 1.0000 -0.0000
vn -0.0000 -0.0000 -1.0000
vn -0.0000 -0.0000 1.0000
vt 1.000000 0.166667
vt 1.000000 0.000000
vt 0.000000 0.000000
vt 0.000000 0.166667
vt 0.666667 0.000000
vt 1.000000 0.333333
vt 0.000000 0.333333
vt 0.833333 0.000000
vt 0.166667 0.000000
s 0
usemtl Material
f 12/1/1 3/2/1 1/3/1 9/4/1
f 1/3/2 3/2/2 4/2/2 2/3/2
f 6/3/3 8/5/3 7/6/3 5/7/3
f 12/1/4 7/6/4 8/5/4 10/8/4
f 9/4/5 11/3/5 6/3/5 5/7/5
f 10/8/4 8/5/4 16/5/4 18/8/4
f 1/3/5 2/3/5 11/3/5 9/4/5
f 3/2/4 12/1/4 10/8/4 4/2/4
f 4/3/6 10/3/6 11/3/6 2/3/6
f 7/6/1 12/1/1 9/4/1 5/7/1
f 17/3/5 14/3/5 20/3/5 23/3/5
f 15/9/4 21/9/4 22/5/4 16/5/4
f 11/3/7 10/3/7 18/3/7 13/3/7
f 8/5/8 6/3/8 14/3/8 16/5/8
f 15/3/1 16/5/1 14/3/1 17/3/1
f 6/3/5 11/3/5 13/3/5 14/3/5
f 24/3/6 22/3/6 20/3/6 19/3/6
f 14/3/5 13/3/5 19/3/5 20/3/5
f 13/3/7 18/3/7 24/3/7 19/3/7
f 15/3/8 17/3/8 23/3/8 21/3/8
f 18/8/4 16/5/4 22/5/4 24/8/4
f 21/3/6 23/3/6 20/3/6 22/3/6
