# Blender 5.1.1
# www.blender.org
mtllib 6mFloorLong.mtl
o 6mFloorLong
v 3.001934 0.100005 5.016087
v -3.001934 0.100005 5.016087
v 3.001934 -0.100005 -5.017962
v -3.001934 -0.100005 -5.017962
v -3.001934 -0.100005 5.016087
v 3.001934 -0.100005 5.016087
v 3.001934 0.100005 -5.014211
v -3.001934 0.100005 -5.014211
vn -0.0000 -0.0000 1.0000
vn 1.0000 -0.0000 -0.0000
vn -0.0000 0.0188 -0.9998
vn -1.0000 -0.0000 -0.0000
vn -0.0000 1.0000 -0.0000
vn -0.0000 -1.0000 -0.0000
vt 0.000000 0.000000
vt 0.000000 1.000000
vt 1.000000 0.000000
vt 1.000000 1.000000
s 0
usemtl Material
f 2/1/1 5/1/1 6/1/1 1/1/1
f 7/1/2 1/1/2 6/2/2 3/1/2
f 7/1/3 3/1/3 4/3/3 8/3/3
f 2/1/4 8/3/4 4/3/4 5/4/4
f 8/1/5 2/1/5 1/1/5 7/1/5
f 3/1/6 6/2/6 5/4/6 4/3/6
