# Blender 5.1.1
# www.blender.org
mtllib 6mRearWallLong.mtl
o 6mRearWallLong
v 3.001935 -2.100005 -1.397118
v -3.001935 -2.100005 -1.397118
v 3.001935 -1.029120 -2.236058
v -3.001935 -1.029120 -2.236058
v 3.001935 0.830754 -2.236058
v -3.001935 0.830754 -2.236058
v 3.001935 1.901640 -1.397118
v -3.001935 1.901640 -1.397118
v 3.001935 -2.100005 3.633179
v -3.001935 -2.100005 3.633179
v 3.001935 1.901640 3.633179
v -3.001935 1.901640 3.633179
vn -0.0000 0.6167 0.7872
vn -0.0000 -0.0000 1.0000
vn -0.0000 -0.6167 0.7872
vn 1.0000 -0.0000 -0.0000
vn -1.0000 -0.0000 -0.0000
vt 0.000000 0.000000
s 0
usemtl Material
f 1/1/1 3/1/1 4/1/1 2/1/1
f 3/1/2 5/1/2 6/1/2 4/1/2
f 5/1/3 7/1/3 8/1/3 6/1/3
f 2/1/4 4/1/4 6/1/4 8/1/4
f 3/1/5 1/1/5 7/1/5 5/1/5
f 7/1/5 1/1/5 9/1/5 11/1/5
f 2/1/4 8/1/4 12/1/4 10/1/4
