# Blender 5.1.1
# www.blender.org
mtllib DoorwaySingleWVent.mtl
o DoorwaySingleWVent
v -0.099879 0.100006 2.499758
v -0.099879 0.100006 0.600161
v -0.099879 0.100006 -0.601070
v 0.099879 5.435713 -2.500938
v 0.099879 5.435713 -0.882896
v -0.099879 2.327184 -2.500938
v -0.099879 2.327184 2.499758
v -0.099879 5.435713 -0.882896
v -0.099879 5.435713 -2.500938
v -0.099879 5.435713 2.499758
v -0.099879 5.435713 0.883458
v 0.099879 0.100005 -0.601070
v 0.099879 0.100006 -2.500938
v 0.099879 2.327184 -2.500938
v 0.099879 2.327184 2.499758
v 0.099879 0.100006 2.499758
v 0.099879 0.100005 0.600161
v 0.099879 2.327184 -0.601070
v 0.099879 2.327184 0.600161
v 0.099879 5.435713 2.499758
v -0.099879 0.100006 -2.500938
v -0.099879 2.327184 -0.603951
v -0.099879 2.327184 0.598720
v 0.099879 -0.100005 -0.601070
v -0.099879 -0.100005 -0.601070
v 0.099879 -0.100005 2.499758
v -0.099879 -0.100005 2.499758
v 0.099879 -0.100005 -2.500938
v 0.099879 -0.100005 0.600161
v -0.099879 -0.100005 0.600161
v -0.099879 -0.100005 -2.500938
v -0.099879 3.467233 -0.884336
v -0.099879 3.467233 2.499758
v -0.099879 3.467233 -2.500938
v 0.099879 3.467233 -0.882896
v 0.099879 3.467233 -2.500938
v 0.099879 3.467233 2.499758
v 0.099879 3.467233 0.883458
v -0.099879 3.467233 0.882738
v 0.099879 5.235231 -0.882896
v -0.099879 5.235231 -0.883616
v -0.099879 5.235231 -2.500938
v 0.099879 5.235231 -2.500938
v 0.099879 5.435713 0.883458
v 0.099879 5.235231 0.883458
v 0.099879 5.235231 2.499758
v -0.099879 5.235231 2.499758
v -0.099879 5.235231 0.883098
vn -1.0000 -0.0000 -0.0000
vn 0.0036 -0.0003 -1.0000
vn -0.0000 -0.0000 -1.0000
vn 1.0000 -0.0000 -0.0000
vn -0.0072 0.0006 1.0000
vn -0.0000 1.0000 -0.0000
vn -0.0000 -0.0000 1.0000
vn -0.0000 -1.0000 -0.0000
vn -0.0054 -0.0002 1.0000
vn 0.0027 0.0001 -1.0000
vn -0.0009 -0.0009 1.0000
vt 0.000000 0.000000
vt 0.000000 0.166667
vt 0.000000 0.666667
vt 0.000000 1.000000
vt 0.000000 0.333333
vt 0.000000 0.500000
vt 0.000000 0.500000
vt 0.000000 0.750000
vt 0.000000 0.250000
s 0
usemtl Material
f 34/1/1 6/1/1 22/1/1 32/2/1
f 23/1/2 19/1/2 17/1/2 2/1/2
f 34/1/3 36/1/3 14/1/3 6/1/3
f 45/3/4 44/3/4 20/4/4 46/4/4
f 3/1/5 12/1/5 18/1/5 22/1/5
f 8/5/6 5/5/6 4/1/6 9/1/6
f 43/1/4 4/1/4 5/5/4 40/5/4
f 1/1/7 16/1/7 15/1/7 7/1/7
f 37/6/7 33/1/7 7/1/7 15/1/7
f 10/4/6 20/4/6 44/3/6 11/3/6
f 13/1/4 14/1/4 18/5/4 12/5/4
f 17/3/4 19/3/4 15/4/4 16/4/4
f 6/1/3 14/1/3 13/1/3 21/1/3
f 22/1/8 18/1/8 19/1/8 23/1/8
f 39/5/1 23/1/1 7/1/1 33/1/1
f 32/2/1 22/1/1 23/1/1 39/5/1
f 21/1/1 3/1/1 22/1/1 6/1/1
f 1/1/1 7/1/1 23/1/1 2/1/1
f 17/3/4 16/4/4 26/4/4 29/3/4
f 29/3/8 30/1/8 25/1/8 24/5/8
f 25/1/8 31/1/8 28/1/8 24/5/8
f 26/4/8 27/1/8 30/1/8 29/3/8
f 17/3/4 29/3/4 24/5/4 12/5/4
f 13/1/4 12/5/4 24/5/4 28/1/4
f 1/1/1 2/1/1 30/1/1 27/1/1
f 21/1/3 13/1/3 28/1/3 31/1/3
f 3/1/1 21/1/1 31/1/1 25/1/1
f 16/1/7 1/1/7 27/1/7 26/1/7
f 30/1/1 2/1/1 3/1/1 25/1/1
f 2/1/6 17/1/6 12/1/6 3/1/6
f 48/7/1 39/5/1 33/1/1 47/1/1
f 46/8/7 47/1/7 33/1/7 37/6/7
f 14/1/4 36/1/4 35/5/4 18/5/4
f 19/3/4 38/3/4 37/4/4 15/4/4
f 42/1/3 43/1/3 36/1/3 34/1/3
f 18/5/4 35/5/4 38/3/4 19/3/4
f 42/1/1 34/1/1 32/2/1 41/9/1
f 41/9/9 32/2/9 35/5/9 40/5/9
f 39/5/6 38/3/6 35/5/6 32/2/6
f 45/3/10 38/3/10 39/5/10 48/7/10
f 5/5/6 8/5/6 11/5/6 44/5/6
f 9/1/1 42/1/1 41/9/1 8/5/1
f 9/1/3 4/1/3 43/1/3 42/1/3
f 36/1/4 43/1/4 40/5/4 35/5/4
f 11/5/11 48/9/11 45/5/11 44/5/11
f 41/9/8 40/5/8 45/5/8 48/9/8
f 40/5/4 5/5/4 44/5/4 45/5/4
f 8/5/1 41/9/1 48/9/1 11/5/1
f 20/4/7 10/1/7 47/1/7 46/8/7
f 11/3/1 48/7/1 47/1/1 10/1/1
f 38/3/4 45/3/4 46/4/4 37/4/4
