# Blender 5.1.1
# www.blender.org
mtllib DoorwayLarge.mtl
o DoorwayLarge
v -0.099879 0.100005 2.499758
v -0.099879 0.100005 1.791993
v -0.099879 0.100005 -1.793478
v 0.099879 4.301660 -2.500938
v 0.099879 4.301660 -1.793478
v -0.099879 3.603875 -2.500938
v -0.099879 3.603875 2.499758
v -0.099879 4.301660 -1.793478
v -0.099879 4.301660 -2.500938
v -0.099879 4.301660 2.499758
v -0.099879 4.301660 1.791993
v 0.099879 0.100005 -1.793478
v 0.099879 0.100005 -2.500938
v 0.099879 3.603875 -2.500938
v 0.099879 3.603875 2.499758
v 0.099879 0.100005 2.499758
v 0.099879 0.100005 1.791993
v 0.099879 3.603875 -1.793478
v 0.099879 3.603875 1.791993
v 0.099879 4.301660 2.499758
v 0.099879 4.301660 1.791993
v -0.099879 0.100005 -2.500938
v -0.099879 3.603875 -1.793478
v -0.099879 3.603875 1.791993
v 0.099879 -0.100005 -1.793478
v -0.099879 -0.100005 -1.793478
v 0.099879 -0.100005 2.499758
v -0.099879 -0.100005 2.499758
v 0.099879 -0.100005 -2.500938
v 0.099879 -0.100005 1.791993
v -0.099879 -0.100005 1.791993
v -0.099879 -0.100005 -2.500938
vn -1.0000 -0.0000 -0.0000
vn 1.0000 -0.0000 -0.0000
vn -0.0000 -0.0000 -1.0000
vn -0.0000 -0.0000 1.0000
vn -0.0000 1.0000 -0.0000
vn -0.0000 -1.0000 -0.0000
vt 0.000000 0.000000
vt 0.000000 0.333333
vt 0.000000 0.666667
vt 0.000000 1.000000
s 0
usemtl Material
f 9/1/1 6/1/1 23/1/1 8/2/1
f 18/2/2 5/2/2 21/3/2 19/3/2
f 24/1/3 19/1/3 17/1/3 2/1/3
f 9/1/3 4/1/3 14/1/3 6/1/3
f 19/3/2 21/3/2 20/4/2 15/4/2
f 3/1/4 12/1/4 18/1/4 23/1/4
f 8/2/5 5/2/5 4/1/5 9/1/5
f 14/1/2 4/1/2 5/2/2 18/2/2
f 1/1/4 16/1/4 15/1/4 7/1/4
f 20/4/4 10/1/4 7/1/4 15/1/4
f 10/4/5 20/4/5 21/3/5 11/3/5
f 13/1/2 14/1/2 18/2/2 12/2/2
f 17/3/2 19/3/2 15/4/2 16/4/2
f 6/1/3 14/1/3 13/1/3 22/1/3
f 23/1/6 18/1/6 19/1/6 24/1/6
f 11/3/5 21/3/5 5/2/5 8/2/5
f 11/3/1 24/1/1 7/1/1 10/1/1
f 8/2/1 23/1/1 24/1/1 11/3/1
f 22/1/1 3/1/1 23/1/1 6/1/1
f 1/1/1 7/1/1 24/1/1 2/1/1
f 17/3/2 16/4/2 27/4/2 30/3/2
f 30/3/6 31/1/6 26/1/6 25/2/6
f 26/1/6 32/1/6 29/1/6 25/2/6
f 27/4/6 28/1/6 31/1/6 30/3/6
f 17/3/2 30/3/2 25/2/2 12/2/2
f 13/1/2 12/2/2 25/2/2 29/1/2
f 1/1/1 2/1/1 31/1/1 28/1/1
f 22/1/3 13/1/3 29/1/3 32/1/3
f 3/1/1 22/1/1 32/1/1 26/1/1
f 16/1/4 1/1/4 28/1/4 27/1/4
f 31/1/1 2/1/1 3/1/1 26/1/1
f 2/1/5 17/1/5 12/1/5 3/1/5
