# Blender 5.1.2
# www.blender.org
mtllib DoorSlidingBasic.mtl
o DoorSlidingBasic
v -0.123398 2.278639 -0.600075
v 0.123398 2.327184 -0.600075
v -0.123398 2.278639 0.639126
v 0.123398 2.327184 0.639126
v 0.123398 2.278639 0.639126
v -0.123398 2.327184 -0.600075
v 0.123398 2.278638 -0.600075
v -0.123398 2.327184 0.639126
v 0.123398 1.213595 -0.600075
v 0.123398 1.213595 0.639126
v -0.123398 1.213595 0.639126
v -0.123398 1.213595 -0.600075
v 0.123398 2.185761 -0.600075
v 0.123398 2.185762 0.639126
v -0.123398 2.185762 0.639126
v -0.123398 2.185762 -0.600075
v 0.123398 2.278638 0.541942
v 0.123398 2.327184 0.541942
v -0.123398 2.327184 0.541942
v -0.123398 2.278639 0.541942
v -0.123398 1.213595 0.541942
v 0.123398 1.213595 0.541942
v 0.123398 2.185762 0.541942
v -0.123398 2.185762 0.541942
v 0.099879 2.185761 -0.600075
v 0.099879 2.278638 -0.600075
v 0.099879 2.278638 0.541942
v 0.099879 2.185762 0.541942
v 0.000000 2.290571 0.541942
v 0.000000 2.290571 0.482098
v -0.041325 2.273453 0.541942
v -0.041325 2.273453 0.482098
v -0.058443 2.232128 0.541942
v -0.058443 2.232128 0.482098
v -0.041325 2.190803 0.541942
v -0.041325 2.190803 0.482098
v 0.000000 2.173686 0.541942
v 0.000000 2.173686 0.482098
v 0.041325 2.190803 0.541942
v 0.041325 2.190803 0.482098
v 0.058443 2.232128 0.541942
v 0.058443 2.232128 0.482098
v 0.041325 2.273453 0.541942
v 0.041325 2.273453 0.482098
v 0.000000 2.274141 0.482492
v -0.029707 2.261836 0.482492
v -0.042012 2.232128 0.482492
v -0.029707 2.202421 0.482492
v 0.000000 2.190116 0.482492
v 0.029707 2.202421 0.482492
v 0.042012 2.232128 0.482492
v 0.029707 2.261836 0.482492
v -0.029707 2.261836 -0.600075
v 0.000000 2.274141 -0.600075
v -0.042012 2.232128 -0.600075
v -0.029707 2.202421 -0.600075
v 0.000000 2.190116 -0.600075
v 0.029707 2.202421 -0.600075
v 0.042012 2.232128 -0.600075
v 0.029707 2.261836 -0.600075
v -0.099879 2.327184 0.639126
v 0.099879 2.327184 0.639126
v 0.099879 2.278639 0.639126
v 0.099879 2.327184 -0.600075
v 0.099879 1.213595 0.639126
v 0.099879 2.185762 0.639126
v 0.099879 2.327184 0.541942
v -0.099879 2.278639 0.639126
v -0.099879 1.213595 0.639126
v -0.099879 2.278638 0.541942
v -0.099879 2.185762 0.639126
v -0.099879 2.327184 0.541942
v -0.099879 2.185762 0.541942
v -0.099879 2.327184 -0.600075
v -0.099879 2.278638 -0.600075
v 0.099879 1.213595 0.555613
v -0.099879 1.213595 0.555613
v 0.099879 2.185762 0.555613
v 0.099879 2.278639 0.555613
v -0.099879 2.278639 0.555613
v 0.099879 2.327184 0.555613
v -0.099879 2.327184 0.555613
v -0.099879 2.185762 0.555613
v -0.123398 0.148551 -0.600075
v 0.123398 0.100005 -0.600075
v -0.123398 0.148551 0.639126
v 0.123398 0.100005 0.639126
v 0.123398 0.148551 0.639126
v -0.123398 0.100005 -0.600075
v 0.123398 0.148551 -0.600075
v -0.123398 0.100005 0.639126
v 0.123398 0.241428 -0.600075
v 0.123398 0.241427 0.639126
v -0.123398 0.241427 0.639126
v -0.123398 0.241427 -0.600075
v 0.123398 0.148551 0.541942
v 0.123398 0.100005 0.541942
v -0.123398 0.100005 0.541942
v -0.123398 0.148551 0.541942
v 0.123398 0.241427 0.541942
v -0.123398 0.241427 0.541942
v 0.099879 0.241428 -0.600075
v 0.099879 0.148551 -0.600075
v 0.099879 0.148551 0.541942
v 0.099879 0.241427 0.541942
v 0.000000 0.136618 0.541942
v 0.000000 0.136618 0.482098
v -0.041325 0.153736 0.541942
v -0.041325 0.153736 0.482098
v -0.058443 0.195061 0.541942
v -0.058443 0.195061 0.482098
v -0.041325 0.236386 0.541942
v -0.041325 0.236386 0.482098
v 0.000000 0.253504 0.541942
v 0.000000 0.253504 0.482098
v 0.041325 0.236386 0.541942
v 0.041325 0.236386 0.482098
v 0.058443 0.195061 0.541942
v 0.058443 0.195061 0.482098
v 0.041325 0.153736 0.541942
v 0.041325 0.153736 0.482098
v 0.000000 0.153049 0.482492
v -0.029707 0.165354 0.482492
v -0.042012 0.195061 0.482492
v -0.029707 0.224768 0.482492
v 0.000000 0.237073 0.482492
v 0.029707 0.224768 0.482492
v 0.042012 0.195061 0.482492
v 0.029707 0.165354 0.482492
v -0.029707 0.165354 -0.600075
v 0.000000 0.153049 -0.600075
v -0.042012 0.195061 -0.600075
v -0.029707 0.224768 -0.600075
v 0.000000 0.237073 -0.600075
v 0.029707 0.224768 -0.600075
v 0.042012 0.195061 -0.600075
v 0.029707 0.165354 -0.600075
v -0.099879 0.100005 0.639126
v 0.099879 0.100005 0.639126
v 0.099879 0.148551 0.639126
v 0.099879 0.100005 -0.600075
v 0.099879 0.241427 0.639126
v 0.099879 0.100005 0.541942
v -0.099879 0.148551 0.639126
v -0.099879 0.148551 0.541942
v -0.099879 0.241427 0.639126
v -0.099879 0.100005 0.541942
v -0.099879 0.241427 0.541942
v -0.099879 0.100005 -0.600075
v -0.099879 0.148551 -0.600075
v 0.099879 0.241427 0.555613
v 0.099879 0.148551 0.555613
v -0.099879 0.148551 0.555613
v 0.099879 0.100005 0.555613
v -0.099879 0.100005 0.555613
v -0.099879 0.241427 0.555613
vn 1.0000 -0.0000 -0.0000
vn -0.0000 -0.0000 1.0000
vn -1.0000 -0.0000 -0.0000
vn -0.0000 -0.0000 -1.0000
vn -0.0000 1.0000 -0.0000
vn -0.0000 -1.0000 -0.0000
vn -0.3827 0.9239 -0.0000
vn -0.9239 0.3827 -0.0000
vn -0.9239 -0.3827 -0.0000
vn -0.3827 -0.9239 -0.0000
vn 0.3827 -0.9239 -0.0000
vn 0.9239 -0.3827 -0.0000
vn 0.9239 0.3827 -0.0000
vn 0.3827 0.9239 -0.0000
vt 0.562500 0.125000
vt 0.625000 0.125000
vt 0.625000 0.250000
vt 0.562500 0.250000
vt 0.562500 0.437500
vt 0.625000 0.437500
vt 0.625000 0.500000
vt 0.562500 0.500000
vt 0.562500 0.625000
vt 0.625000 0.625000
vt 0.625000 0.750000
vt 0.562500 0.750000
vt 0.562500 0.875000
vt 0.625000 0.875000
vt 0.625000 1.000000
vt 0.562500 1.000000
vt 0.500000 0.125000
vt 0.531250 0.125000
vt 0.531250 0.250000
vt 0.500000 0.250000
vt 0.750000 0.625000
vt 0.875000 0.625000
vt 0.875000 0.750000
vt 0.750000 0.750000
vt 0.531250 0.437500
vt 0.531250 0.500000
vt 0.562500 0.375000
vt 0.265625 0.062500
vt 0.000000 0.000000
vt 0.500000 0.625000
vt 0.531250 0.625000
vt 0.531250 0.750000
vt 0.500000 0.750000
vt 0.531250 1.000000
vt 0.500000 1.000000
vt 0.500000 0.437500
vt 0.500000 0.500000
vt 0.750000 0.500000
vt 0.875000 0.500000
vt 0.500000 0.000000
vt 0.531250 0.000000
vt 0.562500 0.000000
vt 0.625000 0.000000
vt 1.000000 0.500000
vt 1.000000 1.000000
vt 0.875000 1.000000
vt 0.750000 1.000000
vt 0.375000 1.000000
vt 0.375000 0.500000
vt 0.250000 1.000000
vt 0.250000 0.500000
vt 0.419706 0.419706
vt 0.250000 0.490000
vt 0.080294 0.419706
vt 0.010000 0.250000
vt 0.080294 0.080294
vt 0.250000 0.010000
vt 0.419706 0.080294
vt 0.490000 0.250000
vt 0.125000 1.000000
vt 0.125000 0.500000
vt 0.000000 1.000000
vt 0.000000 0.500000
vt 0.750000 0.490000
vt 0.919706 0.419706
vt 0.990000 0.250000
vt 0.919706 0.080294
vt 0.750000 0.010000
vt 0.580294 0.080294
vt 0.510000 0.250000
vt 0.580294 0.419706
vt 0.687500 0.500000
vt 0.687500 0.625000
vt 0.531250 0.375000
vt 0.500000 0.375000
vt 0.687500 0.750000
vt 0.562500 0.812500
vt 0.625000 0.812500
vt 0.625000 0.375000
s 0
f 17/1/1 18/2/1 4/3/1 5/4/1
f 68/5/2 61/6/2 8/7/2 3/8/2
f 20/9/3 19/10/3 6/11/3 1/12/3
f 26/13/4 64/14/4 2/15/4 7/16/4
f 22/17/1 23/18/1 14/19/1 10/20/1
f 67/21/5 18/22/5 2/23/5 64/24/5
f 71/25/2 68/5/2 3/8/2 15/26/2
f 70/27/4 73/28/4 24/29/4 20/9/4
f 20/29/6 1/29/6 75/29/6 70/29/6
f 23/18/1 17/1/1 5/4/1 14/19/1
f 21/30/3 24/31/3 16/32/3 12/33/3
f 12/33/4 16/32/4 13/34/4 9/35/4
f 69/36/2 71/25/2 15/26/2 11/37/2
f 11/37/3 15/26/3 24/31/3 21/30/3
f 13/34/2 7/16/2 26/16/2 25/34/2
f 15/26/3 3/8/3 20/9/3 24/31/3
f 62/38/5 4/39/5 18/22/5 67/21/5
f 9/40/1 13/41/1 23/18/1 22/17/1
f 3/8/3 8/7/3 19/10/3 20/9/3
f 7/42/1 2/43/1 18/2/1 17/1/1
f 24/29/5 73/29/5 28/29/5 25/29/5 13/29/5 16/29/5
f 7/42/6 17/1/6 27/1/6 26/42/6
f 17/1/4 23/18/4 28/18/4 27/1/4
f 23/18/5 13/41/5 25/41/5 28/18/5
f 29/44/7 30/45/7 32/46/7 31/39/7
f 31/39/8 32/46/8 34/47/8 33/38/8
f 33/38/9 34/47/9 36/15/9 35/7/9
f 35/7/10 36/15/10 38/35/10 37/37/10
f 37/37/11 38/35/11 40/48/11 39/49/11
f 39/49/12 40/48/12 42/50/12 41/51/12
f 32/52/4 30/53/4 44/54/4 42/55/4 40/56/4 38/57/4 36/58/4 34/59/4
f 41/51/13 42/50/13 44/60/13 43/61/13
f 43/61/14 44/60/14 30/62/14 29/63/14
f 29/64/2 31/65/2 33/66/2 35/67/2 37/68/2 39/69/2 41/70/2 43/71/2
f 46/52/2 47/59/2 48/58/2 49/57/2 50/56/2 51/55/2 52/54/2 45/53/2
f 53/52/4 54/53/4 60/54/4 59/55/4 58/56/4 57/57/4 56/58/4 55/59/4
f 47/59/8 46/52/8 53/52/8 55/59/8
f 52/54/13 51/55/13 59/55/13 60/54/13
f 50/56/11 49/57/11 57/57/11 58/56/11
f 48/58/9 47/59/9 55/59/9 56/58/9
f 46/52/7 45/53/7 54/53/7 53/52/7
f 45/53/14 52/54/14 60/54/14 54/53/14
f 51/55/12 50/56/12 58/56/12 59/55/12
f 49/57/10 48/58/10 56/58/10 57/57/10
f 61/72/5 62/38/5 67/21/5 72/73/5
f 10/20/2 14/19/2 66/74/2 65/75/2
f 14/19/2 5/4/2 63/27/2 66/74/2
f 72/73/5 67/21/5 64/24/5 74/76/5
f 75/77/4 74/78/4 64/14/4 26/13/4
f 5/4/2 4/3/2 62/79/2 63/27/2
f 70/29/6 75/29/6 26/29/6 27/29/6
f 1/12/4 6/11/4 74/78/4 75/77/4
f 19/10/5 72/73/5 74/76/5 6/11/5
f 8/7/5 61/72/5 72/73/5 19/10/5
f 61/6/1 68/5/1 80/5/1 82/6/1
f 27/1/4 28/18/4 73/28/4 70/27/4
f 65/75/3 66/74/3 78/74/3 76/75/3
f 63/27/3 62/79/3 81/79/3 79/27/3
f 76/75/2 78/74/2 83/25/2 77/36/2
f 78/74/2 79/27/2 80/5/2 83/25/2
f 79/27/2 81/79/2 82/6/2 80/5/2
f 62/38/6 61/72/6 82/72/6 81/38/6
f 66/74/3 63/27/3 79/27/3 78/74/3
f 68/5/1 71/25/1 83/25/1 80/5/1
f 71/25/1 69/36/1 77/36/1 83/25/1
f 96/1/1 88/4/1 87/3/1 97/2/1
f 144/5/2 86/8/2 91/7/2 138/6/2
f 99/9/3 84/12/3 89/11/3 98/10/3
f 103/13/4 90/16/4 85/15/4 141/14/4
f 22/17/1 10/20/1 93/19/1 100/18/1
f 143/21/6 141/24/6 85/23/6 97/22/6
f 146/25/2 94/26/2 86/8/2 144/5/2
f 145/27/4 99/9/4 101/29/4 148/28/4
f 99/29/5 145/29/5 150/29/5 84/29/5
f 100/18/1 93/19/1 88/4/1 96/1/1
f 21/30/3 12/33/3 95/32/3 101/31/3
f 12/33/4 9/35/4 92/34/4 95/32/4
f 69/36/2 11/37/2 94/26/2 146/25/2
f 11/37/3 21/30/3 101/31/3 94/26/3
f 92/34/2 102/34/2 103/16/2 90/16/2
f 94/26/3 101/31/3 99/9/3 86/8/3
f 139/38/6 143/21/6 97/22/6 87/39/6
f 9/40/1 22/17/1 100/18/1 92/41/1
f 86/8/3 99/9/3 98/10/3 91/7/3
f 90/42/1 96/1/1 97/2/1 85/43/1
f 101/29/6 95/29/6 92/29/6 102/29/6 105/29/6 148/29/6
f 90/42/5 103/42/5 104/1/5 96/1/5
f 96/1/4 104/1/4 105/18/4 100/18/4
f 100/18/6 105/18/6 102/41/6 92/41/6
f 106/44/10 108/39/10 109/46/10 107/45/10
f 108/39/9 110/38/9 111/47/9 109/46/9
f 110/38/8 112/7/8 113/15/8 111/47/8
f 112/7/7 114/37/7 115/35/7 113/15/7
f 114/37/14 116/49/14 117/48/14 115/35/14
f 116/49/13 118/51/13 119/50/13 117/48/13
f 109/52/4 111/59/4 113/58/4 115/57/4 117/56/4 119/55/4 121/54/4 107/53/4
f 118/51/12 120/61/12 121/60/12 119/50/12
f 120/61/11 106/63/11 107/62/11 121/60/11
f 106/64/2 120/71/2 118/70/2 116/69/2 114/68/2 112/67/2 110/66/2 108/65/2
f 123/52/2 122/53/2 129/54/2 128/55/2 127/56/2 126/57/2 125/58/2 124/59/2
f 130/52/4 132/59/4 133/58/4 134/57/4 135/56/4 136/55/4 137/54/4 131/53/4
f 124/59/9 132/59/9 130/52/9 123/52/9
f 129/54/12 137/54/12 136/55/12 128/55/12
f 127/56/14 135/56/14 134/57/14 126/57/14
f 125/58/8 133/58/8 132/59/8 124/59/8
f 123/52/10 130/52/10 131/53/10 122/53/10
f 122/53/11 131/53/11 137/54/11 129/54/11
f 128/55/13 136/55/13 135/56/13 127/56/13
f 126/57/7 134/57/7 133/58/7 125/58/7
f 138/72/6 147/73/6 143/21/6 139/38/6
f 10/20/2 65/75/2 142/74/2 93/19/2
f 93/19/2 142/74/2 140/27/2 88/4/2
f 147/73/6 149/76/6 141/24/6 143/21/6
f 150/77/4 103/13/4 141/14/4 149/78/4
f 88/4/2 140/27/2 139/79/2 87/3/2
f 145/29/5 104/29/5 103/29/5 150/29/5
f 84/12/4 150/77/4 149/78/4 89/11/4
f 98/10/6 89/11/6 149/76/6 147/73/6
f 91/7/6 98/10/6 147/73/6 138/72/6
f 138/6/1 155/6/1 153/5/1 144/5/1
f 104/1/4 145/27/4 148/28/4 105/18/4
f 65/75/3 76/75/3 151/74/3 142/74/3
f 140/27/3 152/27/3 154/79/3 139/79/3
f 76/75/2 77/36/2 156/25/2 151/74/2
f 151/74/2 156/25/2 153/5/2 152/27/2
f 152/27/2 153/5/2 155/6/2 154/79/2
f 139/38/5 154/38/5 155/72/5 138/72/5
f 142/74/3 151/74/3 152/27/3 140/27/3
f 144/5/1 153/5/1 156/25/1 146/25/1
f 146/25/1 156/25/1 77/36/1 69/36/1
