# Blender 5.1.2
# www.blender.org
mtllib DoorwayLargeBasic.mtl
o DoorwayLargeBasic
v -0.351344 0.100005 -5.487736
v -0.351344 0.100005 2.276143
v 0.000000 0.100005 2.276143
v 0.000000 0.100005 -5.487736
v -0.351344 0.100005 -1.826715
v 0.000000 0.100005 -1.826715
v -0.351344 0.100005 1.758756
v 0.000000 0.100005 1.758756
v -0.351344 3.603875 2.276143
v -0.351344 3.603875 -5.487736
v 0.000000 3.603875 -5.487736
v 0.000000 3.603875 2.276143
v -0.351344 3.603875 -1.826715
v -0.351344 3.603875 1.758756
v -0.351344 0.195951 -5.487736
v 0.000000 0.195951 -5.487736
v -0.351344 0.195951 -1.826715
v -0.351344 0.195951 2.276143
v 0.000000 0.195951 2.276143
v -0.351344 0.195951 1.758756
v 0.000000 4.101650 2.276143
v -0.565626 4.101650 2.276143
v -0.565626 4.101650 -1.826715
v -0.565626 4.101650 -5.487736
v 0.000000 4.101650 -5.487736
v 0.000000 4.101650 -1.826715
v -0.565626 4.101650 1.758756
v 0.000000 4.101650 1.758756
v -0.175672 0.195951 1.758756
v -0.175672 0.195951 -1.826715
v -0.175672 3.603875 1.758756
v -0.175672 3.603875 -1.826715
v 0.000000 0.195951 -5.377280
v 0.000000 3.603875 -5.377280
v -0.175672 0.195951 -5.377280
v -0.175672 3.603875 -5.377280
v -0.351344 3.603875 -0.033980
v -0.565626 4.101650 -0.033980
v 0.000000 4.101650 -0.033980
v -0.175672 3.603875 -0.033980
v 0.000000 3.723964 2.276143
v -0.351344 3.723964 2.276143
v -0.351344 3.723964 1.758756
v -0.351344 3.723964 -0.033980
v -0.351344 3.723964 -1.826715
v -0.351344 3.723964 -5.487736
v 0.000000 3.723964 -5.487736
v 0.000000 3.937906 2.276143
v -0.565626 3.937906 2.276143
v -0.565626 3.937906 1.758756
v -0.565626 3.937906 -0.033980
v -0.565626 3.937906 -1.826715
v -0.565626 3.937906 -5.487736
v 0.000000 3.937906 -5.487736
v -0.175672 0.116048 1.758756
v 0.000000 0.116048 1.758756
v 0.000000 0.116048 -1.826715
v -0.175672 0.116048 -1.826715
v -0.175672 0.116048 -5.377280
v 0.000000 0.116048 -5.377280
v -0.175672 3.683830 -1.826715
v 0.000000 3.683830 -1.826715
v -0.175672 3.683830 -0.033980
v -0.175672 3.683830 -5.377280
v 0.000000 3.683830 -5.377280
v 0.000000 3.683830 -0.033980
v 0.000000 3.683829 1.758756
v -0.175672 3.683830 1.758756
v -0.175672 0.195951 1.835612
v 0.000000 0.195951 1.835612
v -0.175672 0.116048 1.835612
v 0.000000 3.603875 1.835612
v -0.175672 3.603875 1.835612
v 0.000000 0.116048 1.835612
v -0.175672 3.683830 1.835612
v 0.000000 3.683829 1.835612
v 0.000000 0.100005 -4.483725
v -0.351344 0.100005 -4.483725
v -0.351344 3.603875 -4.483725
v -0.351344 0.195951 -4.483725
v -0.565626 4.101650 -4.483725
v 0.000000 4.101650 -4.483725
v -0.351344 3.723964 -4.483725
v -0.565626 3.937906 -4.483725
v -0.351344 1.899913 -5.487736
v 0.000000 1.899913 -5.487736
v -0.351344 1.899913 -1.826715
v -0.175672 1.899913 -1.826715
v -0.175672 1.899913 -5.377280
v 0.000000 1.899913 -5.377280
v -0.351344 1.899913 -4.483725
v -0.570951 0.195951 -5.487736
v -0.570951 0.100005 -5.487736
v -0.570951 1.899913 -5.487736
v -0.570951 0.195951 -4.483725
v -0.570951 0.100005 -4.483725
v -0.570951 1.899913 -4.483725
v -1.151775 0.195951 -5.487736
v -1.151775 0.100005 -5.487736
v -1.151775 1.106978 -5.487736
v -1.151775 0.195951 -4.483725
v -1.151775 0.100005 -4.483725
v -1.151775 1.106978 -4.483725
v 0.000000 2.399716 -5.377280
v -0.351344 2.399716 -5.487736
v 0.000000 2.399716 -5.487736
v -0.351344 2.399716 -1.826715
v -0.175672 2.399716 -1.826715
v -0.175672 2.399716 -5.377280
v -0.351344 2.399716 -4.483725
v 0.351344 0.100005 -5.487736
v 0.351344 0.100005 2.276143
v 0.351344 0.100005 -1.826715
v 0.351344 0.100005 1.758756
v 0.351344 3.603875 2.276143
v 0.351344 3.603875 -5.487736
v 0.351344 3.603875 -1.826715
v 0.351344 3.603875 1.758756
v 0.351344 0.195951 -5.487736
v 0.351344 0.195951 -1.826715
v 0.351344 0.195951 2.276143
v 0.351344 0.195951 1.758756
v 0.565626 4.101650 2.276143
v 0.565626 4.101650 -1.826715
v 0.565626 4.101650 -5.487736
v 0.565626 4.101650 1.758756
v 0.175672 0.195951 1.758756
v 0.175672 0.195951 -1.826715
v 0.175672 3.603875 1.758756
v 0.175672 3.603875 -1.826715
v 0.175672 0.195951 -5.377280
v 0.175672 3.603875 -5.377280
v 0.351344 3.603875 -0.033980
v 0.565626 4.101650 -0.033980
v 0.175672 3.603875 -0.033980
v 0.351344 3.723964 2.276143
v 0.351344 3.723964 1.758756
v 0.351344 3.723964 -0.033980
v 0.351344 3.723964 -1.826715
v 0.351344 3.723964 -5.487736
v 0.565626 3.937906 2.276143
v 0.565626 3.937906 1.758756
v 0.565626 3.937906 -0.033980
v 0.565626 3.937906 -1.826715
v 0.565626 3.937906 -5.487736
v 0.175672 0.116048 1.758756
v 0.175672 0.116048 -1.826715
v 0.175672 0.116048 -5.377280
v 0.175672 3.683830 -1.826715
v 0.175672 3.683830 -0.033980
v 0.175672 3.683830 -5.377280
v 0.175672 3.683830 1.758756
v 0.175672 0.195951 1.835612
v 0.175672 0.116048 1.835612
v 0.175672 3.603875 1.835612
v 0.175672 3.683830 1.835612
v 0.351344 0.100005 -4.483725
v 0.351344 3.603875 -4.483725
v 0.351344 0.195951 -4.483725
v 0.565626 4.101650 -4.483725
v 0.351344 3.723964 -4.483725
v 0.565626 3.937906 -4.483725
v 0.351344 1.899913 -5.487736
v 0.351344 1.899913 -1.826715
v 0.175672 1.899913 -1.826715
v 0.175672 1.899913 -5.377280
v 0.351344 1.899913 -4.483725
v 0.570951 0.195951 -5.487736
v 0.570951 0.100005 -5.487736
v 0.570951 1.899913 -5.487736
v 0.570951 0.195951 -4.483725
v 0.570951 0.100005 -4.483725
v 0.570951 1.899913 -4.483725
v 1.151775 0.195951 -5.487736
v 1.151775 0.100005 -5.487736
v 1.151775 1.106978 -5.487736
v 1.151775 0.195951 -4.483725
v 1.151775 0.100005 -4.483725
v 1.151775 1.106978 -4.483725
v 0.351344 2.399716 -5.487736
v 0.351344 2.399716 -1.826715
v 0.175672 2.399716 -1.826715
v 0.175672 2.399716 -5.377280
v 0.351344 2.399716 -4.483725
vn -0.0000 -1.0000 -0.0000
vn -1.0000 -0.0000 -0.0000
vn -0.0000 -0.0000 -1.0000
vn -0.0000 -0.0000 1.0000
vn -0.0000 1.0000 -0.0000
vn 1.0000 -0.0000 -0.0000
vn -0.7065 -0.7077 -0.0000
vn -0.8067 0.5909 -0.0000
vn 0.7065 -0.7077 -0.0000
vn 0.8067 0.5909 -0.0000
vt 0.250000 0.687500
vt 0.375000 0.687500
vt 0.375000 0.750000
vt 0.250000 0.750000
vt 0.250000 0.500000
vt 0.375000 0.500000
vt 0.375000 0.562500
vt 0.250000 0.562500
vt 0.437500 0.500000
vt 0.500000 0.500000
vt 0.500000 0.562500
vt 0.437500 0.562500
vt 0.484375 0.750000
vt 0.500000 0.750000
vt 0.500000 0.875000
vt 0.484375 0.875000
vt 0.484375 0.687500
vt 0.500000 0.687500
vt 0.437500 0.375000
vt 0.500000 0.375000
vt 0.468750 0.687500
vt 0.468750 0.750000
vt 0.437500 0.750000
vt 0.437500 0.875000
vt 0.375000 0.875000
vt 0.375000 0.375000
vt 0.375000 0.625000
vt 0.250000 0.625000
vt 0.625000 0.687500
vt 0.750000 0.687500
vt 0.750000 0.750000
vt 0.625000 0.750000
vt 0.625000 0.593750
vt 0.750000 0.593750
vt 0.750000 0.625000
vt 0.625000 0.625000
vt 0.625000 0.500000
vt 0.750000 0.500000
vt 0.750000 0.562500
vt 0.625000 0.562500
vt 0.375000 0.578125
vt 0.593750 0.500000
vt 0.687500 0.468750
vt 0.593750 0.562500
vt 0.562500 0.585938
vt 0.562500 0.609375
vt 0.500000 0.625000
vt 0.484375 0.625000
vt 0.687500 0.781250
vt 0.593750 0.750000
vt 0.562500 0.750000
vt 0.625000 0.812500
vt 0.578125 0.679688
vt 0.500000 0.578125
vt 0.500000 0.593750
vt 0.562500 0.562500
vt 0.562500 0.500000
vt 0.625000 0.437500
vt 0.437500 0.656250
vt 0.531250 0.671875
vt 0.375000 0.593750
vt 0.468750 0.875000
vt 0.437500 0.687500
vt 0.468750 0.625000
vt 0.437500 0.625000
s 0
f 77/1/1 78/2/1 1/3/1 4/4/1
f 3/5/1 2/6/1 7/7/1 8/8/1
f 18/9/2 9/10/2 14/11/2 20/12/2
f 105/13/3 10/14/3 11/15/3 106/16/3
f 110/17/2 79/18/2 10/14/2 105/13/2
f 19/19/4 12/20/4 9/10/4 18/9/4
f 91/21/5 85/22/5 94/22/5 97/21/5
f 1/3/3 15/23/3 16/24/3 4/25/3
f 3/26/4 19/19/4 18/9/4 2/6/4
f 2/6/2 18/9/2 20/12/2 7/7/2
f 68/7/1 67/7/1 76/7/1 75/7/1
f 7/7/2 20/7/2 17/27/2 5/27/2
f 8/8/1 7/7/1 5/27/1 6/28/1
f 29/7/3 20/7/3 14/7/3 31/7/3
f 40/7/1 37/7/1 13/7/1 32/7/1
f 88/7/4 87/7/4 17/7/4 30/7/4
f 81/29/5 82/30/5 25/31/5 24/32/5
f 38/33/5 39/34/5 26/35/5 23/36/5
f 22/37/5 21/38/5 28/39/5 27/40/5
f 32/7/6 36/7/6 64/7/6 61/7/6
f 29/7/6 31/7/6 73/7/6 69/7/6
f 20/7/5 29/7/5 30/27/5 17/27/5
f 88/7/6 30/7/6 35/7/6 89/7/6
f 67/7/1 68/7/1 63/7/1 66/7/1
f 30/27/6 29/7/6 55/7/6 58/27/6
f 104/41/4 34/7/4 36/7/4 109/7/4
f 31/7/6 68/7/6 75/7/6 73/7/6
f 27/40/5 28/39/5 39/34/5 38/33/5
f 31/7/1 14/7/1 37/7/1 40/7/1
f 49/42/4 48/43/4 21/38/4 22/37/4
f 50/44/2 49/42/2 22/37/2 27/40/2
f 51/45/2 50/44/2 27/40/2 38/33/2
f 52/46/2 51/45/2 38/33/2 23/36/2
f 13/47/2 79/18/2 110/17/2 107/48/2
f 54/49/3 53/50/3 24/32/3 25/31/3
f 11/15/3 10/14/3 46/51/3 47/52/3
f 84/53/2 52/46/2 23/36/2 81/29/2
f 13/7/2 37/7/2 44/54/2 45/55/2
f 37/7/2 14/11/2 43/56/2 44/54/2
f 14/11/2 9/10/2 42/57/2 43/56/2
f 9/10/4 12/20/4 41/58/4 42/57/4
f 47/52/3 46/51/3 53/50/3 54/49/3
f 79/59/2 13/7/2 45/55/2 83/60/2
f 45/55/7 44/54/7 51/45/7 52/46/7
f 44/54/7 43/56/7 50/44/7 51/45/7
f 43/56/7 42/57/7 49/42/7 50/44/7
f 42/57/4 41/58/4 48/43/4 49/42/4
f 55/7/5 56/7/5 57/27/5 58/27/5
f 58/27/5 57/27/5 60/27/5 59/27/5
f 35/7/6 30/7/6 58/7/6 59/7/6
f 33/27/4 35/7/4 59/7/4 60/27/4
f 66/7/1 63/7/1 61/7/1 62/7/1
f 62/7/1 61/7/1 64/7/1 65/7/1
f 36/7/4 34/7/4 65/7/4 64/7/4
f 40/7/6 32/7/6 61/7/6 63/7/6
f 31/7/6 40/7/6 63/7/6 68/7/6
f 69/7/3 70/7/3 74/7/3 71/7/3
f 70/7/3 69/7/3 73/7/3 72/7/3
f 72/7/3 73/7/3 75/7/3 76/7/3
f 55/7/6 29/7/6 69/7/6 71/7/6
f 56/7/5 55/7/5 71/7/5 74/7/5
f 46/51/7 83/60/7 84/53/7 53/50/7
f 10/14/2 79/59/2 83/60/2 46/51/2
f 53/50/2 84/53/2 81/29/2 24/32/2
f 33/27/4 90/61/4 89/7/4 35/7/4
f 108/7/6 88/7/6 89/7/6 109/7/6
f 108/7/4 107/7/4 87/7/4 88/7/4
f 15/23/3 1/3/3 93/3/3 92/23/3
f 15/23/3 85/22/3 86/62/3 16/24/3
f 92/23/3 93/3/3 99/3/3 98/23/3
f 96/2/4 95/63/4 101/63/4 102/2/4
f 80/63/4 91/21/4 97/21/4 95/63/4
f 85/22/3 15/23/3 92/23/3 94/22/3
f 1/3/1 78/2/1 96/2/1 93/3/1
f 78/2/4 80/63/4 95/63/4 96/2/4
f 102/2/2 101/63/2 98/23/2 99/3/2
f 101/63/2 103/21/2 100/22/2 98/23/2
f 95/63/4 97/21/4 103/21/4 101/63/4
f 93/3/1 96/2/1 102/2/1 99/3/1
f 94/22/3 92/23/3 98/23/3 100/22/3
f 97/21/8 94/22/8 100/22/8 103/21/8
f 5/27/1 78/2/1 77/1/1 6/28/1
f 91/21/2 87/64/2 107/48/2 110/17/2
f 120/65/6 159/63/6 167/21/6 164/64/6
f 26/35/5 82/30/5 81/29/5 23/36/5
f 83/60/7 45/55/7 52/46/7 84/53/7
f 17/65/2 80/63/2 78/2/2 5/27/2
f 32/7/4 13/7/4 107/7/4 108/7/4
f 32/7/6 108/7/6 109/7/6 36/7/6
f 90/61/4 104/41/4 109/7/4 89/7/4
f 91/21/2 110/17/2 105/13/2 85/22/2
f 85/22/3 105/13/3 106/16/3 86/62/3
f 77/1/1 4/4/1 111/3/1 157/2/1
f 3/5/1 8/8/1 114/7/1 112/6/1
f 121/9/6 122/12/6 118/11/6 115/10/6
f 180/13/3 106/16/3 11/15/3 116/14/3
f 184/17/6 180/13/6 116/14/6 158/18/6
f 19/19/4 121/9/4 115/10/4 12/20/4
f 167/21/5 173/21/5 170/22/5 163/22/5
f 111/3/3 4/25/3 16/24/3 119/23/3
f 3/26/4 112/6/4 121/9/4 19/19/4
f 112/6/6 114/7/6 122/12/6 121/9/6
f 152/7/1 156/7/1 76/7/1 67/7/1
f 114/7/6 113/27/6 120/27/6 122/7/6
f 8/8/1 6/28/1 113/27/1 114/7/1
f 127/7/3 129/7/3 118/7/3 122/7/3
f 135/7/1 130/7/1 117/7/1 133/7/1
f 165/7/4 128/7/4 120/7/4 164/7/4
f 160/29/5 125/32/5 25/31/5 82/30/5
f 134/33/5 124/36/5 26/35/5 39/34/5
f 123/37/5 126/40/5 28/39/5 21/38/5
f 130/7/2 149/7/2 151/7/2 132/7/2
f 127/7/2 153/7/2 155/7/2 129/7/2
f 122/7/5 120/27/5 128/27/5 127/7/5
f 165/7/2 166/7/2 131/7/2 128/7/2
f 67/7/1 66/7/1 150/7/1 152/7/1
f 128/27/2 147/27/2 146/7/2 127/7/2
f 104/41/4 183/7/4 132/7/4 34/7/4
f 129/7/2 155/7/2 156/7/2 152/7/2
f 126/40/5 134/33/5 39/34/5 28/39/5
f 129/7/1 135/7/1 133/7/1 118/7/1
f 141/42/4 123/37/4 21/38/4 48/43/4
f 142/44/6 126/40/6 123/37/6 141/42/6
f 143/45/6 134/33/6 126/40/6 142/44/6
f 144/46/6 124/36/6 134/33/6 143/45/6
f 181/48/6 184/17/6 158/18/6 117/47/6
f 54/49/3 25/31/3 125/32/3 145/50/3
f 11/15/3 47/52/3 140/51/3 116/14/3
f 160/29/6 124/36/6 144/46/6 162/53/6
f 117/7/6 139/55/6 138/54/6 133/7/6
f 133/7/6 138/54/6 137/56/6 118/11/6
f 118/11/6 137/56/6 136/57/6 115/10/6
f 115/10/4 136/57/4 41/58/4 12/20/4
f 47/52/3 54/49/3 145/50/3 140/51/3
f 161/60/6 139/55/6 117/7/6 158/59/6
f 139/55/9 144/46/9 143/45/9 138/54/9
f 138/54/9 143/45/9 142/44/9 137/56/9
f 137/56/9 142/44/9 141/42/9 136/57/9
f 136/57/4 141/42/4 48/43/4 41/58/4
f 146/7/5 147/27/5 57/27/5 56/7/5
f 147/27/5 148/27/5 60/27/5 57/27/5
f 131/7/2 148/7/2 147/7/2 128/7/2
f 33/27/4 60/27/4 148/7/4 131/7/4
f 66/7/1 62/7/1 149/7/1 150/7/1
f 62/7/1 65/7/1 151/7/1 149/7/1
f 132/7/4 151/7/4 65/7/4 34/7/4
f 135/7/2 150/7/2 149/7/2 130/7/2
f 129/7/2 152/7/2 150/7/2 135/7/2
f 153/7/3 154/7/3 74/7/3 70/7/3
f 70/7/3 72/7/3 155/7/3 153/7/3
f 72/7/3 76/7/3 156/7/3 155/7/3
f 146/7/2 154/7/2 153/7/2 127/7/2
f 56/7/5 74/7/5 154/7/5 146/7/5
f 140/51/9 145/50/9 162/53/9 161/60/9
f 116/14/6 140/51/6 161/60/6 158/59/6
f 145/50/6 125/32/6 160/29/6 162/53/6
f 87/64/2 91/21/2 80/63/2 17/65/2
f 33/27/4 131/7/4 166/7/4 90/61/4
f 182/7/2 183/7/2 166/7/2 165/7/2
f 182/7/4 165/7/4 164/7/4 181/7/4
f 119/23/3 168/23/3 169/3/3 111/3/3
f 119/23/3 16/24/3 86/62/3 163/22/3
f 168/23/3 174/23/3 175/3/3 169/3/3
f 172/2/4 178/2/4 177/63/4 171/63/4
f 159/63/4 171/63/4 173/21/4 167/21/4
f 163/22/3 170/22/3 168/23/3 119/23/3
f 111/3/1 169/3/1 172/2/1 157/2/1
f 157/2/4 172/2/4 171/63/4 159/63/4
f 178/2/6 175/3/6 174/23/6 177/63/6
f 177/63/6 174/23/6 176/22/6 179/21/6
f 171/63/4 177/63/4 179/21/4 173/21/4
f 169/3/1 175/3/1 178/2/1 172/2/1
f 170/22/3 176/22/3 174/23/3 168/23/3
f 173/21/10 179/21/10 176/22/10 170/22/10
f 6/28/1 77/1/1 157/2/1 113/27/1
f 164/64/6 167/21/6 184/17/6 181/48/6
f 124/36/5 160/29/5 82/30/5 26/35/5
f 162/53/9 144/46/9 139/55/9 161/60/9
f 113/27/6 157/2/6 159/63/6 120/65/6
f 130/7/4 182/7/4 181/7/4 117/7/4
f 130/7/2 132/7/2 183/7/2 182/7/2
f 90/61/4 166/7/4 183/7/4 104/41/4
f 167/21/6 163/22/6 180/13/6 184/17/6
f 163/22/3 86/62/3 106/16/3 180/13/3
