# Blender 5.1.1
# www.blender.org
mtllib DoorwaySingle.mtl
o DoorwaySingle
v -0.099871 0.100005 2.499758
v -0.099871 0.100005 0.600857
v -0.099871 0.100005 -0.600374
v 0.099886 4.301661 -2.500938
v -0.099871 2.327184 -2.500938
v -0.099871 2.327184 2.499758
v -0.099871 4.301661 -2.500938
v -0.099871 4.301661 2.499758
v 0.099886 0.100005 -0.600374
v 0.099886 0.100005 -2.500938
v 0.099886 2.327184 -2.500938
v 0.099886 2.327184 2.499758
v 0.099886 0.100005 2.499758
v 0.099886 0.100005 0.600857
v 0.099886 2.327184 -0.600374
v 0.099886 2.327184 0.600857
v 0.099886 4.301661 2.499758
v -0.099871 0.100005 -2.500938
v -0.099871 2.327184 -0.603254
v -0.099871 2.327184 0.599417
v 0.099886 -0.100005 -0.600374
v -0.099871 -0.100005 -0.600374
v 0.099886 -0.100005 2.499758
v -0.099871 -0.100005 2.499758
v 0.099886 -0.100005 -2.500938
v 0.099886 -0.100005 0.600857
v -0.099871 -0.100005 0.600857
v -0.099871 -0.100005 -2.500938
vn 1.0000 -0.0000 -0.0000
vn 0.0036 -0.0003 -1.0000
vn -0.0000 -0.0000 -1.0000
vn -0.0072 0.0006 1.0000
vn -1.0000 -0.0000 -0.0000
vn -0.0000 -0.0000 1.0000
vn -0.0000 -1.0000 -0.0000
vn -0.0000 1.0000 -0.0000
vt 0.000000 0.000000
vt 0.000000 1.000000
vt 0.000000 0.666667
vt 0.000000 0.333333
s 0
usemtl Material
f 4/1/1 17/2/1 12/2/1 16/3/1 15/4/1 11/1/1
f 20/1/2 16/1/2 14/1/2 2/1/2
f 7/1/3 4/1/3 11/1/3 5/1/3
f 3/1/4 9/1/4 15/1/4 19/1/4
f 19/1/5 20/1/5 6/1/5 8/1/5 7/1/5 5/1/5
f 1/1/6 13/1/6 12/1/6 6/1/6
f 17/2/6 8/1/6 6/1/6 12/1/6
f 10/1/1 11/1/1 15/4/1 9/4/1
f 14/3/1 16/3/1 12/2/1 13/2/1
f 5/1/3 11/1/3 10/1/3 18/1/3
f 19/1/7 15/1/7 16/1/7 20/1/7
f 7/1/8 8/2/8 17/2/8 4/1/8
f 18/1/5 3/1/5 19/1/5 5/1/5
f 1/1/5 6/1/5 20/1/5 2/1/5
f 14/3/1 13/2/1 23/2/1 26/3/1
f 26/3/7 27/1/7 22/1/7 21/4/7
f 22/1/7 28/1/7 25/1/7 21/4/7
f 23/2/7 24/1/7 27/1/7 26/3/7
f 14/3/1 26/3/1 21/4/1 9/4/1
f 10/1/1 9/4/1 21/4/1 25/1/1
f 1/1/5 2/1/5 27/1/5 24/1/5
f 18/1/3 10/1/3 25/1/3 28/1/3
f 3/1/5 18/1/5 28/1/5 22/1/5
f 13/1/6 1/1/6 24/1/6 23/1/6
f 27/1/5 2/1/5 3/1/5 22/1/5
f 2/1/8 14/1/8 9/1/8 3/1/8
