# Blender 5.1.1
# www.blender.org
mtllib DoorwayMultiLevel.mtl
o DoorwayMultiLevel
v -0.099878 0.100005 2.499758
v -0.099879 2.327184 -0.602510
v -0.099878 2.327184 -2.500938
v -0.099879 0.100005 0.600161
v -0.099879 0.100005 -0.601070
v -0.099878 8.501672 -2.500938
v -0.099878 8.501672 2.499758
v 0.099879 0.100005 -0.601070
v 0.099878 0.100005 -2.500938
v 0.099879 2.327184 -0.601070
v 0.099878 2.327184 -2.500938
v 0.099878 8.501672 -2.500938
v 0.099878 8.501672 2.499758
v -0.099879 2.327184 0.599441
v 0.099878 0.100005 2.499758
v 0.099879 0.100005 0.600161
v 0.099879 2.327184 0.600161
v 0.099879 8.501672 -0.601070
v 0.099879 8.501672 0.600161
v -0.099878 0.100005 -2.500938
v -0.099879 8.501672 -0.603951
v -0.099879 8.501672 0.598720
v 0.099878 2.327184 2.499758
v -0.099878 2.327184 2.499758
v 0.099879 -0.100005 -0.601070
v -0.099879 -0.100005 -0.601070
v 0.099878 -0.100005 2.499758
v -0.099878 -0.100005 2.499758
v 0.099878 -0.100005 -2.500938
v 0.099879 -0.100005 0.600161
v -0.099879 -0.100005 0.600161
v -0.099878 -0.100005 -2.500938
v -0.099878 4.301661 2.499758
v 0.099878 4.301661 2.499758
v 0.099879 4.301661 0.600161
v -0.099879 4.301661 0.599080
v -0.099879 4.301661 -0.603231
v 0.099878 4.301661 -2.500938
v 0.099879 4.301661 -0.601070
v -0.099878 4.301661 -2.500938
v -0.099878 6.328829 2.499758
v 0.099878 6.328829 2.499758
v 0.099879 6.328829 0.600161
v -0.099879 6.328829 0.598900
v 0.099878 6.328829 -2.500938
v 0.099879 6.328829 -0.601070
v -0.099878 6.328829 -2.500938
v -0.099879 6.328829 -0.603591
v -0.099879 4.101650 -0.602871
v -0.099879 4.101650 0.599260
v -0.099878 4.101650 2.499758
v 0.099878 4.101650 2.499758
v 0.099879 4.101650 0.600161
v 0.099878 4.101650 -2.500938
v 0.099879 4.101650 -0.601070
v -0.099878 4.101650 -2.500938
vn 0.0018 -0.0002 -1.0000
vn 1.0000 -0.0000 -0.0000
vn -1.0000 -0.0000 -0.0000
vn -0.0000 -0.0000 -1.0000
vn -0.0000 -0.0000 1.0000
vn -0.0000 1.0000 -0.0000
vn -0.0000 -1.0000 -0.0000
vn -0.0036 0.0003 1.0000
vn 0.0059 -0.0000 -1.0000
vn -0.0117 0.0001 0.9999
vt 0.000000 0.000000
vt 0.000000 0.666667
vt 0.000000 0.333333
vt 0.000000 1.000000
s 0
usemtl Material
f 14/1/1 17/1/1 16/1/1 4/1/1
f 53/2/2 17/2/2 10/3/2 55/3/2
f 44/1/3 22/1/3 21/1/3 48/1/3
f 56/1/4 54/1/4 11/1/4 3/1/4
f 41/1/5 42/1/5 13/1/5 7/1/5
f 1/1/3 24/1/3 14/1/3 4/1/3
f 1/1/5 15/1/5 23/1/5 24/1/5
f 16/2/2 17/2/2 23/4/2 15/4/2
f 45/1/2 12/1/2 18/3/2 46/3/2
f 43/2/2 19/2/2 13/4/2 42/4/2
f 3/1/4 11/1/4 9/1/4 20/1/4
f 12/1/6 6/1/6 21/1/6 18/3/6
f 9/1/2 11/1/2 10/3/2 8/3/2
f 20/1/3 5/1/3 2/1/3 3/1/3
f 7/1/6 13/4/6 19/1/6 22/1/6
f 47/1/3 48/1/3 21/1/3 6/1/3
f 41/1/3 7/1/3 22/1/3 44/1/3
f 16/2/2 15/4/2 27/4/2 30/2/2
f 30/2/7 31/1/7 26/1/7 25/3/7
f 26/1/7 32/1/7 29/1/7 25/3/7
f 27/4/7 28/1/7 31/1/7 30/2/7
f 16/2/2 30/2/2 25/3/2 8/3/2
f 9/1/2 8/3/2 25/3/2 29/1/2
f 1/1/3 4/1/3 31/1/3 28/1/3
f 20/1/4 9/1/4 29/1/4 32/1/4
f 5/1/3 20/1/3 32/1/3 26/1/3
f 15/1/5 1/1/5 28/1/5 27/1/5
f 31/1/3 4/1/3 5/1/3 26/1/3
f 4/1/6 16/1/6 8/1/6 5/1/6
f 5/1/8 8/1/8 10/1/8 2/1/8
f 51/1/3 33/1/3 36/1/3 50/1/3
f 53/2/2 35/2/2 34/4/2 52/4/2
f 51/1/5 52/1/5 34/1/5 33/1/5
f 44/1/9 43/1/9 35/1/9 36/1/9
f 56/1/3 49/1/3 37/1/3 40/1/3
f 54/1/2 38/1/2 39/3/2 55/3/2
f 47/1/4 45/1/4 38/1/4 40/1/4
f 36/1/6 35/1/6 39/1/6 37/1/6
f 43/1/7 44/1/7 48/1/7 46/1/7
f 33/1/3 41/1/3 44/1/3 36/1/3
f 35/2/2 43/2/2 42/4/2 34/4/2
f 33/1/5 34/1/5 42/1/5 41/1/5
f 6/1/4 12/1/4 45/1/4 47/1/4
f 40/1/3 37/1/3 48/1/3 47/1/3
f 38/1/2 45/1/2 46/3/2 39/3/2
f 37/1/10 39/1/10 46/1/10 48/1/10
f 22/1/6 19/1/6 18/3/6 21/1/6
f 19/2/2 43/2/2 46/3/2 18/3/2
f 17/1/7 14/1/7 2/1/7 10/1/7
f 50/1/3 36/1/3 37/1/3 49/1/3
f 14/1/3 50/1/3 49/1/3 2/1/3
f 11/1/2 54/1/2 55/3/2 10/3/2
f 3/1/3 2/1/3 49/1/3 56/1/3
f 24/1/5 23/1/5 52/1/5 51/1/5
f 17/2/2 53/2/2 52/4/2 23/4/2
f 24/1/3 51/1/3 50/1/3 14/1/3
f 40/1/4 38/1/4 54/1/4 56/1/4
f 35/2/2 53/2/2 55/3/2 39/3/2
