# Blender 5.1.1
# www.blender.org
mtllib DoorwayVentLarge.mtl
o DoorwayVentLarge
v -0.099879 0.100005 2.499758
v -0.099879 0.100005 1.791993
v -0.099879 0.100005 -1.793478
v 0.099879 4.101650 -2.500938
v 0.099879 4.101650 -1.793478
v -0.099879 3.603875 -2.500938
v -0.099879 3.603875 2.499758
v -0.099879 4.101650 -1.793478
v -0.099879 4.101650 -2.500938
v -0.099879 4.101650 2.499758
v -0.099879 4.101650 1.791993
v 0.099879 0.100005 -1.793478
v 0.099879 0.100005 -2.500938
v 0.099879 3.603875 -2.500938
v 0.099879 3.603875 2.499758
v 0.099879 0.100005 2.499758
v 0.099879 0.100005 1.791993
v 0.099879 3.603875 -1.793478
v 0.099879 3.603875 1.791993
v 0.099879 4.101650 2.499758
v 0.099879 4.101650 1.791993
v -0.099879 0.100005 -2.500938
v -0.099879 3.603875 -1.793478
v -0.099879 3.603875 1.791993
v 0.099879 -0.100005 -1.793478
v -0.099879 -0.100005 -1.793478
v 0.099879 -0.100005 2.499758
v -0.099879 -0.100005 2.499758
v 0.099879 -0.100005 -2.500938
v 0.099879 -0.100005 1.791993
v -0.099879 -0.100005 1.791993
v -0.099879 -0.100005 -2.500938
v 0.099879 4.101650 0.882381
v 0.099879 4.101650 -0.884693
v -0.099879 4.101650 0.882381
v -0.099879 4.101650 -0.884693
v 0.099879 3.603875 0.882381
v 0.099879 3.603875 -0.884693
v -0.099879 3.603875 -0.891857
v -0.099879 3.603875 0.876649
v -0.099879 5.235231 -2.500938
v 0.099879 5.235231 -2.500938
v 0.099879 5.235231 2.499758
v -0.099879 5.235231 2.499758
v -0.099879 5.235231 -1.793478
v 0.099879 5.235231 -1.793478
v 0.099879 5.235231 1.791993
v -0.099879 5.235231 1.791993
v 0.099879 5.235231 -0.884693
v -0.099879 5.235231 -0.884693
v 0.099879 5.235231 0.882381
v -0.099879 5.235231 0.882381
v -0.099879 5.435713 -2.500938
v 0.099879 5.435713 -2.500938
v 0.099879 5.435713 2.499758
v -0.099879 5.435713 2.499758
v -0.099879 5.435713 -1.793478
v 0.099879 5.435713 -1.793478
v 0.099879 5.435713 1.791993
v -0.099879 5.435713 1.791993
v 0.099879 5.435713 -0.884693
v -0.099879 5.435713 -0.884693
v 0.099879 5.435713 0.882381
v -0.099879 5.435713 0.882381
vn -1.0000 -0.0000 -0.0000
vn 1.0000 -0.0000 -0.0000
vn -0.0000 -0.0000 -1.0000
vn -0.0000 -0.0000 1.0000
vn -0.0000 -1.0000 -0.0000
vn -0.0000 1.0000 -0.0000
vt 0.000000 0.000000
vt 0.000000 0.333333
vt 0.000000 0.555555
vt 0.000000 0.666667
vt 0.000000 1.000000
vt 0.000000 0.444444
s 0
usemtl Material
f 9/1/1 6/1/1 23/1/1 8/2/1
f 37/3/2 33/3/2 21/4/2 19/4/2
f 24/1/3 19/1/3 17/1/3 2/1/3
f 9/1/3 4/1/3 14/1/3 6/1/3
f 19/4/2 21/4/2 20/5/2 15/5/2
f 3/1/4 12/1/4 18/1/4 23/1/4
f 34/6/2 5/2/2 46/2/2 49/6/2
f 14/1/2 4/1/2 5/2/2 18/2/2
f 1/1/4 16/1/4 15/1/4 7/1/4
f 20/5/4 10/1/4 7/1/4 15/1/4
f 8/2/1 36/6/1 50/6/1 45/2/1
f 13/1/2 14/1/2 18/2/2 12/2/2
f 17/4/2 19/4/2 15/5/2 16/5/2
f 6/1/3 14/1/3 13/1/3 22/1/3
f 40/1/5 37/1/5 19/1/5 24/1/5
f 36/6/4 34/6/4 49/6/4 50/6/4
f 11/4/1 24/1/1 7/1/1 10/1/1
f 35/3/1 40/1/1 24/1/1 11/4/1
f 22/1/1 3/1/1 23/1/1 6/1/1
f 1/1/1 7/1/1 24/1/1 2/1/1
f 17/4/2 16/5/2 27/5/2 30/4/2
f 30/4/5 31/1/5 26/1/5 25/2/5
f 26/1/5 32/1/5 29/1/5 25/2/5
f 27/5/5 28/1/5 31/1/5 30/4/5
f 17/4/2 30/4/2 25/2/2 12/2/2
f 13/1/2 12/2/2 25/2/2 29/1/2
f 1/1/1 2/1/1 31/1/1 28/1/1
f 22/1/3 13/1/3 29/1/3 32/1/3
f 3/1/1 22/1/1 32/1/1 26/1/1
f 16/1/4 1/1/4 28/1/4 27/1/4
f 31/1/1 2/1/1 3/1/1 26/1/1
f 2/1/6 17/1/6 12/1/6 3/1/6
f 8/2/1 23/1/1 39/1/1 36/6/1
f 36/6/1 39/1/1 40/1/1 35/3/1
f 4/1/3 9/1/3 41/1/3 42/1/3
f 35/3/6 33/3/6 34/6/6 36/6/6
f 23/1/5 18/1/5 38/1/5 39/1/5
f 39/1/5 38/1/5 37/1/5 40/1/5
f 18/2/2 5/2/2 34/6/2 38/6/2
f 38/6/2 34/6/2 33/3/2 37/3/2
f 43/5/2 47/4/2 59/4/2 55/5/2
f 48/4/1 44/1/1 56/1/1 60/4/1
f 44/1/4 43/5/4 55/5/4 56/1/4
f 52/3/1 48/4/1 60/4/1 64/3/1
f 10/1/4 20/5/4 43/5/4 44/1/4
f 5/2/2 4/1/2 42/1/2 46/2/2
f 35/3/1 11/4/1 48/4/1 52/3/1
f 9/1/1 8/2/1 45/2/1 41/1/1
f 33/3/3 35/3/3 52/3/3 51/3/3
f 20/5/2 21/4/2 47/4/2 43/5/2
f 21/4/2 33/3/2 51/3/2 47/4/2
f 11/4/1 10/1/1 44/1/1 48/4/1
f 57/2/6 58/2/6 54/1/6 53/1/6
f 56/5/6 55/5/6 59/4/6 60/4/6
f 62/6/6 61/6/6 58/2/6 57/2/6
f 60/4/6 59/4/6 63/3/6 64/3/6
f 49/6/2 61/6/2 63/3/2 51/3/2
f 45/2/1 50/6/1 62/6/1 57/2/1
f 46/2/2 42/1/2 54/1/2 58/2/2
f 50/6/5 49/6/5 51/3/5 52/3/5
f 47/4/2 51/3/2 63/3/2 59/4/2
f 42/1/3 41/1/3 53/1/3 54/1/3
f 41/1/1 45/2/1 57/2/1 53/1/1
f 49/6/2 46/2/2 58/2/2 61/6/2
f 61/6/6 62/6/6 64/3/6 63/3/6
f 62/6/1 50/6/1 52/3/1 64/3/1
