# Blender 5.1.1
# www.blender.org
mtllib DoorwayWarden.mtl
o DoorwayWarden
v -0.099879 0.100005 2.500209
v -0.099879 0.100005 1.792444
v -0.099879 0.100005 -1.793027
v 0.099879 4.301660 -2.500488
v 0.099879 4.301660 -1.793027
v -0.099879 3.603875 -2.500488
v -0.099879 4.301660 -1.793027
v -0.099879 4.301660 1.792444
v 0.099879 0.100005 -1.793027
v 0.099879 0.100005 -2.500488
v 0.099879 3.603875 -2.500488
v 0.099879 0.100005 2.500209
v 0.099879 0.100005 1.792444
v 0.099879 3.603875 -1.793027
v 0.099879 3.603875 1.792444
v 0.099879 4.301660 2.500209
v 0.099879 4.301660 1.792444
v -0.099879 0.100005 -2.500488
v -0.099879 3.603875 -1.793027
v -0.099879 3.603875 1.792444
v 0.099879 -0.100005 -1.793027
v -0.099879 -0.100005 -1.793027
v 0.099879 -0.100005 2.500209
v -0.099879 -0.100005 2.500209
v 0.099879 -0.100005 -2.500488
v 0.099879 -0.100005 1.792444
v -0.099879 -0.100005 1.792444
v -0.099879 -0.100005 -2.500488
v -0.099879 4.301660 -12.529284
v 0.099879 4.301660 -12.529284
v -0.099879 3.603875 -12.529284
v 0.099879 3.603875 -12.529284
v 0.099879 0.100005 -12.529284
v -0.099879 0.100005 -12.529284
v 0.099879 -0.100005 -12.529284
v -0.099879 -0.100005 -12.529284
v -0.099879 3.603875 2.500209
v 0.099879 3.603875 2.500209
v 0.099879 4.301660 0.599531
v -0.099879 4.301660 0.599531
v 0.099879 3.603875 0.599531
v -0.099879 3.603875 0.599531
v 0.099879 4.301660 -0.596748
v -0.099879 4.301660 -0.596748
v 0.099879 3.603875 -0.596748
v -0.099879 3.603875 -0.596748
v -0.099878 4.501670 2.500209
v -0.099879 6.728849 -0.602060
v -0.099878 6.728849 -2.500488
v -0.099879 4.501670 0.600611
v -0.099879 4.501670 -0.600620
v -0.099878 12.903337 -2.500488
v -0.099878 12.903337 2.500209
v 0.099879 4.501670 -0.600620
v 0.099878 4.501670 -2.500488
v 0.099879 6.728849 -0.600620
v 0.099878 6.728849 -2.500488
v 0.099878 12.903337 -2.500488
v 0.099878 12.903337 2.500209
v -0.099879 6.728849 0.599891
v 0.099878 4.501670 2.500209
v 0.099879 4.501670 0.600611
v 0.099879 6.728849 0.600611
v 0.099879 12.903337 -0.600620
v 0.099879 12.903337 0.600611
v -0.099878 4.501670 -2.500488
v -0.099879 12.903337 -0.603500
v -0.099879 12.903337 0.599171
v 0.099878 6.728849 2.500209
v -0.099878 6.728849 2.500209
v 0.099879 4.301660 -0.600620
v -0.099879 4.301660 -0.600620
v -0.099878 4.301660 2.500209
v 0.099879 4.301660 0.600611
v -0.099879 4.301660 0.600611
v -0.099878 4.301660 -2.500488
v -0.099878 8.703325 2.500209
v 0.099878 8.703325 2.500209
v 0.099879 8.703325 0.600611
v -0.099879 8.703325 0.599531
v -0.099879 8.703325 -0.602780
v 0.099878 8.703325 -2.500488
v 0.099879 8.703325 -0.600620
v -0.099878 8.703325 -2.500488
v -0.099878 10.730494 2.500209
v 0.099878 10.730494 2.500209
v 0.099879 10.730494 0.600611
v -0.099879 10.730494 0.599351
v 0.099878 10.730494 -2.500488
v 0.099879 10.730494 -0.600620
v -0.099878 10.730494 -2.500488
v -0.099879 10.730494 -0.603140
v -0.099879 8.503315 -0.602420
v -0.099879 8.503315 0.599711
v -0.099878 8.503315 2.500209
v 0.099878 8.503315 2.500209
v 0.099879 8.503315 0.600611
v 0.099878 8.503315 -2.500488
v 0.099879 8.503315 -0.600620
v -0.099878 8.503315 -2.500488
v 0.099879 6.728849 -1.793027
v 0.099879 4.501670 -1.793028
v 0.099879 12.903337 -1.793028
v -0.099879 12.903337 -1.794468
v -0.099879 6.728849 -1.793748
v -0.099879 4.501670 -1.793027
v 0.099878 4.501670 1.792444
v -0.099878 12.903337 1.791907
v -0.099879 8.703325 -1.794108
v 0.099879 8.703325 -1.793027
v -0.099879 10.730494 -1.794288
v 0.099879 10.730494 -1.793027
v 0.099879 8.503315 -1.793027
v -0.099879 8.503315 -1.793928
v 0.099878 6.728849 1.792444
v 0.099878 12.903337 1.792444
v -0.099878 6.728849 1.792175
v -0.099878 4.501670 1.792444
v -0.099878 8.703325 1.792041
v 0.099878 8.703325 1.792444
v -0.099878 10.730494 1.791974
v 0.099878 10.730494 1.792444
v 0.099878 8.503315 1.792444
v -0.099878 8.503315 1.792108
v -0.099879 6.728849 -12.529284
v 0.099879 6.728849 -12.529284
v -0.099879 8.503315 -12.529284
v 0.099879 8.503315 -12.529284
v -0.099879 8.703325 -12.529284
v 0.099879 8.703325 -12.529284
v -0.099879 10.730494 -12.529284
v 0.099879 10.730494 -12.529284
v -0.099879 12.903337 -12.529284
v 0.099879 12.903337 -12.529284
vn -1.0000 -0.0000 -0.0000
vn 1.0000 -0.0000 -0.0000
vn -0.0000 -0.0000 -1.0000
vn -0.0000 -0.0000 1.0000
vn -0.0000 -1.0000 -0.0000
vn -0.0000 1.0000 -0.0000
vn 0.0018 -0.0002 -1.0000
vn -0.0036 0.0003 1.0000
vn 0.0059 -0.0000 -1.0000
vn -0.0117 0.0001 0.9999
vt 0.000000 0.000000
vt 0.000000 0.333333
vt 0.000000 0.500000
vt 0.000000 0.666667
vt 0.000000 1.000000
vt 0.000000 0.833926
vt 0.000000 0.416667
vt 0.000000 0.875804
vt 0.000000 0.166667
vt 0.000000 0.627413
vt 0.000000 0.875804
s 0
usemtl Material
f 76/1/1 6/1/1 19/1/1 7/2/1
f 41/3/2 39/3/2 17/4/2 15/4/2
f 20/1/3 15/1/3 13/1/3 2/1/3
f 3/1/4 9/1/4 14/1/4 19/1/4
f 11/1/2 4/1/2 5/2/2 14/2/2
f 1/1/1 37/1/1 20/1/1 2/1/1
f 10/1/2 11/1/2 14/2/2 9/2/2
f 10/1/2 25/1/2 35/1/2 33/1/2
f 42/1/5 41/1/5 15/1/5 20/1/5
f 13/4/2 15/4/2 38/5/2 12/5/2
f 40/3/1 42/1/1 20/1/1 8/4/1
f 18/1/1 3/1/1 19/1/1 6/1/1
f 13/4/2 12/5/2 23/5/2 26/4/2
f 26/4/5 27/1/5 22/1/5 21/2/5
f 22/1/5 28/1/5 25/1/5 21/2/5
f 23/5/5 24/1/5 27/1/5 26/4/5
f 13/4/2 26/4/2 21/2/2 9/2/2
f 10/1/2 9/2/2 21/2/2 25/1/2
f 1/1/1 2/1/1 27/1/1 24/1/1
f 28/1/1 18/1/1 34/1/1 36/1/1
f 3/1/1 18/1/1 28/1/1 22/1/1
f 12/1/4 1/1/4 24/1/4 23/1/4
f 27/1/1 2/1/1 3/1/1 22/1/1
f 2/1/6 13/1/6 9/1/6 3/1/6
f 29/1/3 30/1/3 32/1/3 31/1/3
f 31/1/3 32/1/3 33/1/3 34/1/3
f 34/1/3 33/1/3 35/1/3 36/1/3
f 25/1/5 28/1/5 36/1/5 35/1/5
f 18/1/1 6/1/1 31/1/1 34/1/1
f 11/1/2 10/1/2 33/1/2 32/1/2
f 4/1/2 11/1/2 32/1/2 30/1/2
f 6/1/1 76/1/1 29/1/1 31/1/1
f 16/5/4 73/1/4 37/1/4 38/6/4
f 38/5/2 15/4/2 17/4/2 16/5/2
f 38/6/4 37/1/4 1/1/4 12/1/4
f 20/1/1 37/1/1 73/1/1 8/4/1
f 44/7/1 46/1/1 42/1/1 40/3/1
f 46/1/5 45/1/5 41/1/5 42/1/5
f 45/7/2 43/7/2 39/3/2 41/3/2
f 14/2/2 5/2/2 43/7/2 45/7/2
f 19/1/5 14/1/5 45/1/5 46/1/5
f 7/2/1 19/1/1 46/1/1 44/7/1
f 60/1/7 63/1/7 62/1/7 50/1/7
f 97/4/2 63/4/2 56/2/2 99/2/2
f 88/1/1 68/1/1 67/1/1 92/1/1
f 126/1/3 125/1/3 127/1/3 128/1/3
f 85/1/4 86/1/4 59/1/4 53/1/4
f 118/1/1 117/1/1 60/1/1 50/1/1
f 47/1/4 61/1/4 69/1/4 70/1/4
f 107/8/2 115/8/2 69/5/2 61/5/2
f 112/9/2 103/9/2 64/2/2 90/2/2
f 122/8/2 116/8/2 59/5/2 86/5/2
f 125/1/1 49/1/1 100/1/1 127/1/1
f 103/9/6 104/1/6 67/1/6 64/2/6
f 102/9/2 101/9/2 56/2/2 54/2/2
f 106/1/1 51/1/1 48/1/1 105/1/1
f 108/1/6 116/10/6 65/1/6 68/1/6
f 111/1/1 92/1/1 67/1/1 104/1/1
f 121/1/1 108/1/1 68/1/1 88/1/1
f 107/8/2 61/5/2 16/5/2 17/11/2
f 74/4/5 75/1/5 72/1/5 71/2/5
f 7/1/5 76/1/5 4/1/5 5/9/5
f 17/11/5 8/1/5 75/1/5 74/4/5
f 62/4/2 74/4/2 71/2/2 54/2/2
f 102/9/2 54/2/2 71/2/2 5/9/2
f 118/1/1 50/1/1 75/1/1 8/1/1
f 57/1/2 126/1/2 128/1/2 98/1/2
f 106/1/1 66/1/1 76/1/1 7/1/1
f 61/1/4 47/1/4 73/1/4 16/1/4
f 75/1/1 50/1/1 51/1/1 72/1/1
f 50/1/6 62/1/6 54/1/6 51/1/6
f 51/1/8 54/1/8 56/1/8 48/1/8
f 124/1/1 119/1/1 80/1/1 94/1/1
f 123/8/2 120/8/2 78/5/2 96/5/2
f 95/1/4 96/1/4 78/1/4 77/1/4
f 88/1/9 87/1/9 79/1/9 80/1/9
f 114/1/1 93/1/1 81/1/1 109/1/1
f 113/9/2 110/9/2 83/2/2 99/2/2
f 30/1/3 29/1/3 125/1/3 126/1/3
f 80/1/6 79/1/6 83/1/6 81/1/6
f 87/1/5 88/1/5 92/1/5 90/1/5
f 119/1/1 121/1/1 88/1/1 80/1/1
f 120/8/2 122/8/2 86/5/2 78/5/2
f 77/1/4 78/1/4 86/1/4 85/1/4
f 4/1/2 30/1/2 126/1/2 57/1/2
f 109/1/1 81/1/1 92/1/1 111/1/1
f 110/9/2 112/9/2 90/2/2 83/2/2
f 81/1/10 83/1/10 90/1/10 92/1/10
f 68/1/6 65/1/6 64/2/6 67/1/6
f 65/4/2 87/4/2 90/2/2 64/2/2
f 63/1/5 60/1/5 48/1/5 56/1/5
f 94/1/1 80/1/1 81/1/1 93/1/1
f 60/1/1 94/1/1 93/1/1 48/1/1
f 101/9/2 113/9/2 99/2/2 56/2/2
f 105/1/1 48/1/1 93/1/1 114/1/1
f 70/1/4 69/1/4 96/1/4 95/1/4
f 115/8/2 123/8/2 96/5/2 69/5/2
f 117/1/1 124/1/1 94/1/1 60/1/1
f 29/1/1 76/1/1 49/1/1 125/1/1
f 79/4/2 97/4/2 99/2/2 83/2/2
f 49/1/1 105/1/1 114/1/1 100/1/1
f 57/1/2 98/1/2 113/9/2 101/9/2
f 82/1/2 89/1/2 112/9/2 110/9/2
f 84/1/1 109/1/1 111/1/1 91/1/1
f 98/1/2 82/1/2 110/9/2 113/9/2
f 100/1/1 114/1/1 109/1/1 84/1/1
f 51/1/1 106/1/1 7/1/1 72/1/1
f 55/1/2 102/9/2 5/9/2 4/1/2
f 72/1/5 7/1/5 5/9/5 71/2/5
f 91/1/1 111/1/1 104/1/1 52/1/1
f 66/1/1 106/1/1 105/1/1 49/1/1
f 55/1/2 57/1/2 101/9/2 102/9/2
f 58/1/6 52/1/6 104/1/6 103/9/6
f 89/1/2 58/1/2 103/9/2 112/9/2
f 70/1/1 95/1/1 124/1/1 117/1/1
f 63/4/2 97/4/2 123/8/2 115/8/2
f 79/4/2 87/4/2 122/8/2 120/8/2
f 77/1/1 85/1/1 121/1/1 119/1/1
f 97/4/2 79/4/2 120/8/2 123/8/2
f 95/1/1 77/1/1 119/1/1 124/1/1
f 47/1/1 118/1/1 8/1/1 73/1/1
f 16/5/5 73/1/5 8/1/5 17/11/5
f 62/4/2 107/8/2 17/11/2 74/4/2
f 85/1/1 53/1/1 108/1/1 121/1/1
f 53/1/6 59/5/6 116/10/6 108/1/6
f 87/4/2 65/4/2 116/8/2 122/8/2
f 62/4/2 63/4/2 115/8/2 107/8/2
f 47/1/1 70/1/1 117/1/1 118/1/1
f 127/1/1 100/1/1 84/1/1 129/1/1
f 98/1/2 128/1/2 130/1/2 82/1/2
f 128/1/3 127/1/3 129/1/3 130/1/3
f 82/1/2 130/1/2 132/1/2 89/1/2
f 129/1/1 84/1/1 91/1/1 131/1/1
f 130/1/3 129/1/3 131/1/3 132/1/3
f 131/1/1 91/1/1 52/1/1 133/1/1
f 89/1/2 132/1/2 134/1/2 58/1/2
f 132/1/3 131/1/3 133/1/3 134/1/3
f 58/1/6 134/1/6 133/1/6 52/1/6
