# Blender 5.1.1
# www.blender.org
mtllib ElevatorPanopticon.mtl
o ElevatorPanopticon
v 4.501322 -28.740847 -4.501376
v 4.501322 28.740852 -4.501376
v 4.501322 -28.740847 4.501376
v 4.501322 28.740852 4.501376
v -4.501429 -28.740847 -4.501376
v -4.501429 28.740852 -4.501376
v -4.501429 -28.740847 4.501376
v -4.501429 28.740852 4.501376
v 4.501322 0.100003 -4.501376
v 4.501322 0.100005 4.501376
v -4.501429 0.100005 4.501376
v -4.501429 0.100005 -4.501376
v 4.501322 5.095548 -4.501376
v 4.501322 5.095549 4.501376
v -4.501429 5.095549 4.501376
v -4.501429 5.095549 -4.501376
v 4.501322 -28.740847 4.001126
v 4.501322 -28.740847 -4.001126
v 4.501322 28.740852 -4.001126
v 4.501322 28.740852 4.001126
v -4.501429 -28.740847 -4.001126
v -4.501429 -28.740847 4.001126
v -4.501429 28.740852 4.001126
v -4.501429 28.740852 -4.001126
v -4.501429 0.100005 4.001126
v -4.501429 0.100005 -4.001126
v 4.501322 0.100004 -4.001126
v 4.501322 0.100005 4.001126
v -4.501429 5.095549 4.001126
v -4.501429 5.095549 -4.001126
v 4.501322 5.095548 -4.001126
v 4.501322 5.095549 4.001126
vn -1.0000 -0.0000 -0.0000
vn -0.0000 -0.0000 -1.0000
vn 1.0000 -0.0000 -0.0000
vn -0.0000 -0.0000 1.0000
vt 0.562500 0.166667
vt 0.562500 0.250000
vt 0.625000 0.250000
vt 0.625000 0.166667
vt 0.562500 0.500000
vt 0.625000 0.500000
vt 0.562500 0.666667
vt 0.562500 0.750000
vt 0.625000 0.750000
vt 0.625000 0.666667
vt 0.562500 1.000000
vt 0.625000 1.000000
vt 0.375000 0.750000
vt 0.375000 1.000000
vt 0.500000 1.000000
vt 0.500000 0.750000
vt 0.375000 0.666667
vt 0.500000 0.666667
vt 0.375000 0.250000
vt 0.375000 0.500000
vt 0.500000 0.500000
vt 0.500000 0.250000
vt 0.375000 0.166667
vt 0.500000 0.166667
vt 0.500000 0.000000
vt 0.500000 0.083333
vt 0.562500 0.083333
vt 0.562500 0.000000
vt 0.500000 0.583333
vt 0.562500 0.583333
vt 0.375000 0.000000
vt 0.375000 0.083333
vt 0.375000 0.583333
vt 0.625000 0.583333
vt 0.625000 0.083333
vt 0.625000 0.000000
s 0
f 32/1/1 14/2/1 4/3/1 20/4/1
f 14/2/2 15/5/2 8/6/2 4/3/2
f 30/7/3 16/8/3 6/9/3 24/10/3
f 16/8/4 13/11/4 2/12/4 6/9/4
f 5/13/4 1/14/4 9/15/4 12/16/4
f 21/17/3 5/13/3 12/16/3 26/18/3
f 3/19/2 7/20/2 11/21/2 10/22/2
f 17/23/1 3/19/1 10/22/1 28/24/1
f 12/16/4 9/15/4 13/11/4 16/8/4
f 26/18/3 12/16/3 16/8/3 30/7/3
f 10/22/2 11/21/2 15/5/2 14/2/2
f 28/24/1 10/22/1 14/2/1 32/1/1
f 9/25/1 27/26/1 31/27/1 13/28/1
f 11/21/3 25/29/3 29/30/3 15/5/3
f 1/31/1 18/32/1 27/26/1 9/25/1
f 18/32/1 17/23/1 28/24/1 27/26/1
f 7/20/3 22/33/3 25/29/3 11/21/3
f 22/33/3 21/17/3 26/18/3 25/29/3
f 15/5/3 29/30/3 23/34/3 8/6/3
f 29/30/3 30/7/3 24/10/3 23/34/3
f 13/28/1 31/27/1 19/35/1 2/36/1
f 31/27/1 32/1/1 20/4/1 19/35/1
