# Blender 5.1.2
# www.blender.org
mtllib ElevatorPanopticon.mtl
o ElevatorPanopticon
v 4.307213 57.482910 -4.238802
v 4.307213 57.482910 4.238802
v -4.307324 57.482910 -4.238802
v -4.307324 57.482910 4.238802
v 4.307213 57.482910 -2.990041
v 4.307213 57.482910 2.990041
v -4.307324 57.482910 2.990041
v -4.307324 57.482910 -2.990041
v 3.908187 57.482910 -3.908254
v 3.908187 57.482910 3.908254
v -3.908313 57.482910 -3.908254
v -3.908313 57.482910 3.908254
v 3.908187 57.482910 -2.990041
v 3.908187 57.482910 2.990041
v -3.908313 57.482910 2.990041
v -3.908313 57.482910 -2.990041
v 4.307213 8.234428 -4.238802
v 4.307213 8.234428 4.238802
v -4.307324 8.234428 4.238802
v -4.307324 8.234428 -4.238802
v -4.307324 8.234428 2.990041
v -4.307324 8.234428 -2.990041
v 4.307213 8.234428 -2.990041
v 4.307213 8.234428 2.990041
v 3.908187 8.234428 -3.908254
v 3.908187 8.234428 3.908254
v -3.908313 8.234428 3.908254
v -3.908313 8.234428 -3.908254
v -3.908313 8.234428 2.990041
v -3.908313 8.234428 -2.990041
v 3.908187 8.234428 -2.990041
v 3.908187 8.234428 2.990041
v 4.307213 33.613247 -4.238802
v 4.307213 33.613247 4.238802
v -4.307324 33.613247 4.238802
v -4.307324 33.613247 -4.238802
v -4.307324 33.613247 2.990041
v -4.307324 33.613247 -2.990041
v 4.307213 33.613247 -2.990041
v 4.307213 33.613247 2.990041
v 4.307213 37.613827 -4.238802
v 4.307213 37.613827 4.238802
v -4.307324 37.613827 4.238802
v -4.307324 37.613827 -4.238802
v -4.307324 37.613827 2.990041
v -4.307324 37.613827 -2.990041
v 4.307213 37.613827 -2.990041
v 4.307213 37.613827 2.990041
v 3.908187 37.613827 -3.908254
v 3.908187 37.613827 2.990041
v 3.908187 37.613827 -2.990041
v -3.908313 37.613827 -2.990041
v -3.908313 37.613827 2.990041
v -3.908313 37.613827 -3.908254
v -3.908313 37.613827 3.908254
v 3.908187 37.613827 3.908254
v 3.908187 33.613247 2.990041
v 3.908187 33.613247 -2.990041
v -3.908313 33.613247 -2.990041
v -3.908313 33.613247 2.990041
v -3.908313 33.613247 -3.908254
v -3.908313 33.613247 3.908254
v 3.908187 33.613247 3.908254
v 3.908187 33.613247 -3.908254
v 3.101164 57.482910 4.238802
v -3.101283 57.482910 4.238802
v 3.101164 57.482910 3.908254
v -3.101283 57.482910 3.908254
v 3.101164 8.234428 4.238802
v -3.101283 8.234428 4.238802
v -3.101283 8.234428 3.908254
v 3.101164 8.234428 3.908254
v 3.101164 33.613247 4.238802
v -3.101283 33.613247 4.238802
v 3.101164 37.613827 4.238802
v -3.101283 37.613827 4.238802
v -3.101283 37.613827 3.908254
v 3.101164 37.613827 3.908254
v -3.101283 33.613247 3.908254
v 3.101164 33.613247 3.908254
v -3.101283 57.482910 -4.238802
v -3.101283 57.482910 -3.908254
v -3.101283 8.234428 -4.238802
v -3.101283 8.234428 -3.908254
v -3.101283 33.613247 -4.238802
v -3.101283 37.613827 -4.238802
v -3.101283 37.613827 -3.908254
v -3.101283 33.613247 -3.908254
v 3.101164 57.482910 -4.238802
v 3.101164 57.482910 -3.908254
v 3.101164 8.234428 -4.238802
v 3.101164 33.613247 -4.238802
v 3.101164 37.613827 -4.238802
v 3.101164 8.234428 -3.908254
v 3.101164 37.613827 -3.908254
v 3.101164 33.613247 -3.908254
vn 1.0000 -0.0000 -0.0000
vn -0.0000 -0.0000 1.0000
vn -1.0000 -0.0000 -0.0000
vn -0.0000 -0.0000 -1.0000
vn -0.0000 1.0000 -0.0000
vn -0.0000 -1.0000 -0.0000
vt 0.617188 0.166667
vt 0.625000 0.166667
vt 0.625000 0.250000
vt 0.617188 0.250000
vt 0.617188 0.416667
vt 0.625000 0.416667
vt 0.625000 0.500000
vt 0.617188 0.500000
vt 0.617188 0.666667
vt 0.625000 0.666667
vt 0.625000 0.750000
vt 0.617188 0.750000
vt 0.617188 0.937500
vt 0.625000 0.937500
vt 0.625000 1.000000
vt 0.617188 1.000000
vt 0.625000 0.583333
vt 0.617188 0.583333
vt 0.617188 0.000000
vt 0.625000 0.000000
vt 0.625000 0.083333
vt 0.617188 0.083333
vt 0.609375 0.166667
vt 0.609375 0.250000
vt 0.609375 0.416667
vt 0.609375 0.500000
vt 0.609375 0.666667
vt 0.609375 0.750000
vt 0.609375 0.937500
vt 0.609375 1.000000
vt 0.609375 0.583333
vt 0.609375 0.000000
vt 0.609375 0.083333
vt 0.625000 0.333333
vt 0.625000 0.875000
vt 0.593750 0.500000
vt 0.593750 0.583333
vt 0.593750 0.416667
vt 0.593750 0.166667
vt 0.593750 0.250000
vt 0.593750 0.083333
vt 0.593750 0.000000
vt 0.593750 0.187500
vt 0.593750 1.000000
vt 0.593750 0.937500
vt 0.593750 0.666667
vt 0.593750 0.750000
vt 0.601562 0.166667
vt 0.601562 0.083333
vt 0.601562 0.000000
vt 0.601562 0.500000
vt 0.601562 0.583333
vt 0.601562 0.937500
vt 0.601562 1.000000
vt 0.601562 0.666667
vt 0.601562 0.750000
vt 0.601562 0.416667
vt 0.601562 0.250000
vt 0.593750 0.333333
vt 0.601562 0.333333
vt 0.609375 0.333333
vt 0.617188 0.333333
vt 0.593750 0.875000
vt 0.601562 0.875000
vt 0.609375 0.875000
vt 0.617188 0.875000
vt 0.593750 0.375000
s 0
f 48/1/1 6/2/1 2/3/1 42/4/1
f 76/5/2 66/6/2 4/7/2 43/8/2
f 46/9/3 8/10/3 3/11/3 44/12/3
f 93/13/4 89/14/4 1/15/4 41/16/4
f 43/8/3 4/7/3 7/17/3 45/18/3
f 45/18/3 7/17/3 8/10/3 46/9/3
f 41/19/1 1/20/1 5/21/1 47/22/1
f 47/22/1 5/21/1 6/2/1 48/1/1
f 50/23/3 56/24/3 10/3/3 14/2/3
f 77/25/4 55/26/4 12/7/4 68/6/4
f 52/27/1 54/28/1 11/11/1 16/10/1
f 95/29/2 49/30/2 9/15/2 90/14/2
f 55/26/1 53/31/1 15/17/1 12/7/1
f 53/31/1 52/27/1 16/10/1 15/17/1
f 49/32/3 51/33/3 13/21/3 9/20/3
f 51/33/3 50/23/3 14/2/3 13/21/3
f 2/3/5 6/2/5 14/2/5 10/3/5
f 65/34/5 2/3/5 10/3/5 67/34/5
f 3/11/5 8/10/5 16/10/5 11/11/5
f 81/35/5 3/11/5 11/11/5 82/35/5
f 5/21/5 1/20/5 9/20/5 13/21/5
f 6/2/5 5/21/5 13/21/5 14/2/5
f 7/17/5 4/7/5 12/7/5 15/17/5
f 8/10/5 7/17/5 15/17/5 16/10/5
f 19/36/6 21/37/6 29/37/6 27/36/6
f 70/38/6 19/36/6 27/36/6 71/38/6
f 24/39/6 18/40/6 26/40/6 32/39/6
f 23/41/6 24/39/6 32/39/6 31/41/6
f 17/42/6 23/41/6 31/41/6 25/42/6
f 91/43/6 17/42/6 25/44/6 94/45/6
f 22/46/6 20/47/6 28/47/6 30/46/6
f 21/37/6 22/46/6 30/46/6 29/37/6
f 23/41/1 39/33/1 40/23/1 24/39/1
f 17/42/1 33/32/1 39/33/1 23/41/1
f 21/37/3 37/31/3 38/27/3 22/46/3
f 19/36/3 35/26/3 37/31/3 21/37/3
f 91/45/4 92/29/4 33/30/4 17/44/4
f 22/46/3 38/27/3 36/28/3 20/47/3
f 70/38/2 74/25/2 35/26/2 19/36/2
f 24/39/1 40/23/1 34/24/1 18/40/1
f 47/22/6 48/1/6 50/23/6 51/33/6
f 33/32/1 41/19/1 47/22/1 39/33/1
f 40/23/4 57/48/4 50/23/4 48/1/4
f 35/26/3 43/8/3 45/18/3 37/31/3
f 92/29/4 93/13/4 41/16/4 33/30/4
f 38/27/3 46/9/3 44/12/3 36/28/3
f 74/25/2 76/5/2 43/8/2 35/26/2
f 40/23/1 48/1/1 42/4/1 34/24/1
f 39/33/5 58/49/5 57/48/5 40/23/5
f 64/50/3 58/49/3 51/33/3 49/32/3
f 39/33/2 47/22/2 51/33/2 58/49/2
f 62/51/1 60/52/1 53/31/1 55/26/1
f 96/53/2 64/54/2 49/30/2 95/29/2
f 59/55/1 61/56/1 54/28/1 52/27/1
f 79/57/4 62/51/4 55/26/4 77/25/4
f 57/48/3 63/58/3 56/24/3 50/23/3
f 32/39/3 26/40/3 63/58/3 57/48/3
f 71/38/4 27/36/4 62/51/4 79/57/4
f 30/46/1 28/47/1 61/56/1 59/55/1
f 94/45/2 25/44/2 64/54/2 96/53/2
f 27/36/1 29/37/1 60/52/1 62/51/1
f 29/37/1 30/46/1 59/55/1 60/52/1
f 25/42/3 31/41/3 58/49/3 64/50/3
f 31/41/3 32/39/3 57/48/3 58/49/3
f 38/27/2 59/55/2 52/27/2 46/9/2
f 37/31/5 60/52/5 59/55/5 38/27/5
f 37/31/4 45/18/4 53/31/4 60/52/4
f 45/18/6 46/9/6 52/27/6 53/31/6
f 26/40/4 72/59/4 80/60/4 63/58/4
f 63/58/4 80/60/4 78/61/4 56/24/4
f 34/24/2 42/4/2 75/62/2 73/61/2
f 18/40/2 34/24/2 73/61/2 69/59/2
f 18/40/6 69/59/6 72/59/6 26/40/6
f 72/59/3 69/59/3 73/61/3 80/60/3
f 4/7/5 66/6/5 68/6/5 12/7/5
f 80/60/3 73/61/3 75/62/3 78/61/3
f 56/24/4 78/61/4 67/34/4 10/3/4
f 65/34/3 67/34/3 78/61/3 75/62/3
f 42/4/2 2/3/2 65/34/2 75/62/2
f 96/53/3 92/29/3 91/43/3 94/45/3
f 28/47/2 84/63/2 88/64/2 61/56/2
f 61/56/2 88/64/2 87/65/2 54/28/2
f 36/28/4 44/12/4 86/66/4 85/65/4
f 20/47/4 36/28/4 85/65/4 83/63/4
f 20/47/6 83/67/6 84/63/6 28/47/6
f 92/29/3 96/53/3 95/29/3 93/13/3
f 54/28/2 87/65/2 82/35/2 11/11/2
f 44/12/4 3/11/4 81/35/4 86/66/4
f 1/15/5 89/14/5 90/14/5 9/15/5
f 95/29/3 90/14/3 89/14/3 93/13/3
f 84/63/1 83/67/1 85/65/1 88/64/1
f 88/64/1 85/65/1 86/66/1 87/65/1
f 81/35/1 82/35/1 87/65/1 86/66/1
f 71/38/1 79/57/1 74/25/1 70/38/1
f 79/57/1 77/25/1 76/5/1 74/25/1
f 66/6/1 76/5/1 77/25/1 68/6/1
