# Blender 5.1.1
# www.blender.org
mtllib FloorMeshCentreBrokenSide.01.mtl
o FloorMeshCentreBrokenSide.01
v 3.001934 -0.100005 -2.359406
v 3.001934 -0.100005 2.357530
v 3.001934 0.100005 2.357530
v 3.001934 0.100005 -2.359406
v -3.001934 0.100005 2.357530
v -3.001934 -0.100005 2.357530
v -3.001934 -0.100005 -2.359406
v -3.001934 0.100005 -2.359406
v 3.001934 0.100005 -2.500938
v -3.001934 0.100005 -2.500938
v 3.001934 -0.100005 -2.500938
v -3.001934 -0.100005 -2.500938
v 3.001934 -0.100005 2.499062
v -3.001934 -0.100005 2.499062
v -3.001934 0.100005 2.499062
v 3.001934 0.100005 2.499062
vn -0.0000 -0.0000 1.0000
vn -0.0000 -0.0000 -1.0000
vn -0.0000 1.0000 -0.0000
vn -0.0000 -1.0000 -0.0000
vn -1.0000 -0.0000 -0.0000
vn 1.0000 -0.0000 -0.0000
vt 0.000000 0.000000
vt 1.000000 0.000000
vt 0.023574 0.028306
vt 0.976426 0.028306
vt 0.976426 0.971694
vt 0.023574 0.971694
vt 0.000000 1.000000
vt 1.000000 1.000000
s 0
usemtl Material
f 16/1/1 15/1/1 14/1/1 13/1/1
f 11/1/2 12/2/2 10/2/2 9/1/2
f 8/1/3 4/1/3 9/1/3 10/1/3
f 1/3/4 7/4/4 12/2/4 11/1/4
f 6/5/4 2/6/4 13/7/4 14/8/4
f 3/1/3 5/1/3 15/1/3 16/1/3
f 14/8/5 15/1/5 5/1/5 6/5/5
f 8/1/1 7/4/1 1/3/1 4/1/1
f 12/2/5 7/4/5 8/1/5 10/1/5
f 2/6/2 6/5/2 5/1/2 3/1/2
f 9/1/6 4/1/6 1/3/6 11/1/6
f 16/1/6 13/7/6 2/6/6 3/1/6
