# Blender 5.1.2
# www.blender.org
mtllib FloorBroken.mtl
o FloorBroken
v 3.001934 0.100005 2.499062
v -3.001934 0.100005 2.499062
v 3.001934 0.100005 -2.500938
v -3.001934 0.100005 -2.500938
v -3.001934 0.100005 1.665729
v -3.001934 0.100005 0.832395
v -3.001934 0.100005 -0.000938
v -3.001934 0.100005 -0.834271
v -3.001934 0.100005 -1.667605
v 3.001934 0.100005 -1.667605
v 3.001934 0.100005 -0.834271
v 3.001934 0.100005 -0.000938
v 3.001934 0.100005 0.832395
v 3.001934 0.100005 1.665729
v -2.001289 0.100005 2.499062
v -1.000644 0.100005 2.499062
v 0.000000 0.100005 2.499062
v 1.000645 0.100005 2.499062
v 2.001289 0.100005 2.499062
v -2.001289 0.100005 -2.500938
v -1.000644 0.100005 -2.500938
v 0.000000 0.100005 -2.500938
v 1.000645 0.100005 -2.500938
v 2.001289 0.100005 -2.500938
v -2.001289 0.100005 -1.667605
v -1.000644 0.100005 -1.667605
v 0.000000 0.100005 -1.667605
v 1.000645 0.100005 -1.667605
v 2.001289 0.100005 -1.667605
v -2.001289 0.100005 -0.834271
v 2.001289 0.100005 -0.834271
v -2.001289 0.100005 -0.000938
v 2.001289 0.100005 -0.000938
v -2.001289 0.100005 0.832395
v 2.001289 0.100005 0.832395
v -2.001289 0.100005 1.665729
v -1.000644 0.100005 1.665729
v 0.000000 0.100005 1.665729
v 1.000645 0.100005 1.665729
v 2.001289 0.100005 1.665729
v -1.000644 0.100005 -1.667605
v -1.210895 0.041567 -0.834271
v -1.178217 -0.053680 -0.000938
v 0.000000 -0.141701 0.832395
v -1.143875 0.065543 0.802209
v -1.000644 0.100005 1.665729
v -1.000644 0.082965 -0.834271
v 1.000645 -0.119762 -0.000938
v 1.000645 -0.078260 0.832395
v -1.086344 0.018023 0.802209
v 1.000645 0.029052 -0.866236
v 1.000645 -0.041043 -0.794038
v 0.000000 -0.150482 -0.834271
v 2.001289 -0.100005 2.499062
v 3.001934 -0.100005 2.499062
v 2.001289 -0.100005 -2.500938
v 3.001934 -0.100005 -2.500938
v -3.001934 -0.100005 -1.667605
v -3.001934 -0.100005 -2.500938
v 3.001934 -0.100005 1.665729
v -3.001934 -0.100005 2.499062
v -3.001934 -0.100005 1.665729
v -3.001934 -0.100005 0.832395
v -3.001934 -0.100005 -0.000938
v -3.001934 -0.100005 -0.834271
v 3.001934 -0.100005 -1.667605
v 3.001934 -0.100005 -0.834271
v 3.001934 -0.100005 -0.000938
v 3.001934 -0.100005 0.832395
v 2.001289 -0.100005 -1.667605
v 2.001289 -0.100005 -0.834271
v 2.001289 -0.100005 -0.000938
v 2.001289 -0.100005 0.832395
v 2.001289 -0.100005 1.665729
v -2.001289 -0.100005 2.499062
v -1.000644 -0.100005 2.499062
v 0.000000 -0.100005 2.499062
v 1.000645 -0.100005 2.499062
v -2.001289 -0.100005 -2.500938
v -1.000644 -0.100005 -2.500938
v 0.000000 -0.100005 -2.500938
v 1.000645 -0.100005 -2.500938
v -2.001289 -0.100005 -1.667605
v -1.000644 -0.100005 -1.667605
v 0.000000 -0.100005 -1.667605
v 1.000645 -0.100005 -1.667605
v -2.001289 -0.100005 -0.834271
v -2.001289 -0.100005 -0.000938
v -2.001289 -0.100005 0.832395
v -2.001289 -0.100005 1.665729
v -1.000644 -0.100005 1.665729
v 0.000000 -0.100005 1.665729
v 1.000645 -0.100005 1.665729
v -1.178217 -0.186698 -0.000938
v -1.210895 -0.158443 -0.834271
v -1.143875 -0.134467 0.802209
v 1.000645 -0.176829 0.832395
v 1.000645 -0.241015 -0.000938
v 0.000000 -0.341711 0.832395
v 1.000645 -0.095130 -0.866236
v -1.086344 -0.181987 0.802209
v -1.000644 -0.117045 -0.834271
v 0.000000 -0.275072 -0.834271
v 1.000645 -0.204178 -0.794038
vn -0.0000 1.0000 -0.0000
vn 0.0326 0.9987 0.0391
vn 0.1302 0.9900 0.0540
vn 0.1096 0.9912 -0.0745
vn 0.0182 0.9996 -0.0218
vn -0.0361 0.9984 0.0433
vn -0.1763 0.9832 0.0476
vn -0.1950 0.9805 -0.0244
vn -0.0882 0.9905 -0.1059
vn -0.0307 0.9692 -0.2442
vn 0.0777 0.9786 -0.1906
vn -0.0846 0.9777 0.1922
vn 0.1144 0.9809 0.1574
vn -0.0000 -1.0000 -0.0000
vn -0.0326 -0.9987 -0.0391
vn -0.0896 -0.9959 -0.0151
vn -0.0713 -0.9969 0.0333
vn -0.0182 -0.9996 0.0218
vn -0.0025 -1.0000 0.0030
vn 0.1211 -0.9924 -0.0225
vn 0.1081 -0.9934 0.0383
vn 0.0383 -0.9982 0.0460
vn 0.0807 -0.9790 0.1871
vn -0.0777 -0.9786 0.1906
vn 0.0874 -0.9908 -0.1032
vn -0.0782 -0.9904 -0.1142
vn -0.0319 -0.0000 0.9995
vn -1.0000 -0.0000 -0.0000
vn -0.0000 -0.0000 1.0000
vn 0.9992 -0.0000 -0.0392
vn 0.9696 -0.0000 0.2446
vn 0.0278 -0.0000 -0.9996
vn -0.0000 -0.0000 -1.0000
vn 1.0000 -0.0000 -0.0000
vn -0.9951 -0.0000 0.0988
vn 0.9865 -0.0000 -0.1636
vn -0.0402 -0.0000 -0.9992
vn 0.9991 -0.0000 -0.0427
vn 0.0319 -0.0000 0.9995
vt 0.000000 0.000000
s 0
usemtl Material
f 40/1/1 19/1/1 1/1/1 14/1/1
f 24/1/1 29/1/1 10/1/1 3/1/1
f 29/1/1 31/1/1 11/1/1 10/1/1
f 31/1/1 33/1/1 12/1/1 11/1/1
f 33/1/1 35/1/1 13/1/1 12/1/1
f 35/1/1 40/1/1 14/1/1 13/1/1
f 6/1/1 5/1/1 36/1/1 34/1/1
f 7/1/1 6/1/1 34/1/1 32/1/1
f 8/1/1 7/1/1 32/1/1 30/1/1
f 9/1/1 8/1/1 30/1/1 25/1/1
f 4/1/1 9/1/1 25/1/1 20/1/1
f 20/1/1 25/1/1 26/1/1 21/1/1
f 21/1/1 26/1/1 27/1/1 22/1/1
f 22/1/1 27/1/1 28/1/1 23/1/1
f 23/1/1 28/1/1 29/1/1 24/1/1
f 5/1/1 2/1/1 15/1/1 36/1/1
f 36/1/1 15/1/1 16/1/1 37/1/1
f 37/1/1 16/1/1 17/1/1 38/1/1
f 38/1/1 17/1/1 18/1/1 39/1/1
f 39/1/1 18/1/1 19/1/1 40/1/1
f 25/1/2 30/1/2 42/1/2 41/1/2
f 30/1/3 32/1/3 43/1/3 42/1/3
f 32/1/4 34/1/4 45/1/4 43/1/4
f 34/1/5 36/1/5 46/1/5 45/1/5
f 31/1/6 29/1/6 28/1/6 51/1/6
f 33/1/7 31/1/7 52/1/7 48/1/7
f 35/1/8 33/1/8 48/1/8 49/1/8
f 40/1/9 35/1/9 49/1/9 39/1/9
f 38/1/10 39/1/10 49/1/10 44/1/10
f 37/1/11 38/1/11 44/1/11 50/1/11
f 28/1/12 27/1/12 53/1/12 51/1/12
f 27/1/13 26/1/13 47/1/13 53/1/13
f 74/1/14 60/1/14 55/1/14 54/1/14
f 56/1/14 57/1/14 66/1/14 70/1/14
f 70/1/14 66/1/14 67/1/14 71/1/14
f 71/1/14 67/1/14 68/1/14 72/1/14
f 72/1/14 68/1/14 69/1/14 73/1/14
f 73/1/14 69/1/14 60/1/14 74/1/14
f 63/1/14 89/1/14 90/1/14 62/1/14
f 64/1/14 88/1/14 89/1/14 63/1/14
f 65/1/14 87/1/14 88/1/14 64/1/14
f 58/1/14 83/1/14 87/1/14 65/1/14
f 59/1/14 79/1/14 83/1/14 58/1/14
f 79/1/14 80/1/14 84/1/14 83/1/14
f 80/1/14 81/1/14 85/1/14 84/1/14
f 81/1/14 82/1/14 86/1/14 85/1/14
f 82/1/14 56/1/14 70/1/14 86/1/14
f 62/1/14 90/1/14 75/1/14 61/1/14
f 90/1/14 91/1/14 76/1/14 75/1/14
f 91/1/14 92/1/14 77/1/14 76/1/14
f 92/1/14 93/1/14 78/1/14 77/1/14
f 93/1/14 74/1/14 54/1/14 78/1/14
f 83/1/15 84/1/15 95/1/15 87/1/15
f 87/1/16 95/1/16 94/1/16 88/1/16
f 88/1/17 94/1/17 96/1/17 89/1/17
f 89/1/18 96/1/18 91/1/18 90/1/18
f 71/1/19 100/1/19 86/1/19 70/1/19
f 72/1/20 98/1/20 104/1/20 71/1/20
f 73/1/21 97/1/21 98/1/21 72/1/21
f 74/1/22 93/1/22 97/1/22 73/1/22
f 92/1/23 99/1/23 97/1/23 93/1/23
f 91/1/24 101/1/24 99/1/24 92/1/24
f 86/1/25 100/1/25 103/1/25 85/1/25
f 85/1/26 103/1/26 102/1/26 84/1/26
f 51/1/27 100/1/27 71/1/27 31/1/27
f 5/1/28 62/1/28 61/1/28 2/1/28
f 6/1/28 63/1/28 62/1/28 5/1/28
f 2/1/29 61/1/29 75/1/29 15/1/29
f 7/1/28 64/1/28 63/1/28 6/1/28
f 43/1/30 94/1/30 95/1/30 42/1/30
f 15/1/29 75/1/29 76/1/29 16/1/29
f 8/1/28 65/1/28 64/1/28 7/1/28
f 42/1/31 95/1/31 84/1/31 41/1/31
f 16/1/29 76/1/29 77/1/29 17/1/29
f 44/1/32 99/1/32 101/1/32 50/1/32
f 9/1/28 58/1/28 65/1/28 8/1/28
f 41/1/33 84/1/33 83/1/33 25/1/33
f 17/1/29 77/1/29 78/1/29 18/1/29
f 47/1/29 102/1/29 103/1/29 53/1/29
f 10/1/34 66/1/34 57/1/34 3/1/34
f 18/1/29 78/1/29 54/1/29 19/1/29
f 11/1/34 67/1/34 66/1/34 10/1/34
f 20/1/33 79/1/33 59/1/33 4/1/33
f 50/1/35 101/1/35 91/1/35 37/1/35
f 12/1/34 68/1/34 67/1/34 11/1/34
f 37/1/33 91/1/33 90/1/33 36/1/33
f 46/1/36 91/1/36 96/1/36 45/1/36
f 21/1/33 80/1/33 79/1/33 20/1/33
f 49/1/33 97/1/33 99/1/33 44/1/33
f 13/1/34 69/1/34 68/1/34 12/1/34
f 48/1/28 98/1/28 97/1/28 49/1/28
f 22/1/33 81/1/33 80/1/33 21/1/33
f 31/1/37 71/1/37 104/1/37 52/1/37
f 14/1/34 60/1/34 69/1/34 13/1/34
f 19/1/29 54/1/29 55/1/29 1/1/29
f 23/1/33 82/1/33 81/1/33 22/1/33
f 52/1/28 104/1/28 98/1/28 48/1/28
f 36/1/29 90/1/29 91/1/29 46/1/29
f 3/1/33 57/1/33 56/1/33 24/1/33
f 24/1/33 56/1/33 82/1/33 23/1/33
f 45/1/38 96/1/38 94/1/38 43/1/38
f 4/1/28 59/1/28 58/1/28 9/1/28
f 26/1/28 84/1/28 102/1/28 47/1/28
f 1/1/34 55/1/34 60/1/34 14/1/34
f 25/1/29 83/1/29 84/1/29 26/1/29
f 53/1/39 103/1/39 100/1/39 51/1/39
