# Blender 5.1.1
# www.blender.org
mtllib FloorMeshCentreBrokenSide.02.mtl
o FloorMeshCentreBrokenSide.02
v 3.001934 0.040425 2.357530
v 3.001934 0.040425 -2.359406
v -3.001934 -0.074339 -2.359406
v -2.692332 -0.042745 2.357530
v -2.692332 -0.103664 1.178296
v -3.001934 -0.244273 -1.180172
v 3.001934 0.040425 1.178296
v 3.001934 0.040425 -0.000938
v 3.001934 0.040425 -1.180172
v 0.000000 0.040425 2.357530
v 0.000000 0.040425 -2.359406
v 0.000000 0.040425 1.178296
v 0.000000 0.040425 -0.000938
v 0.000000 0.040425 -1.180172
v -1.000645 -0.029593 1.178296
v -2.001289 -0.154175 1.178296
v -1.000645 -0.076732 -0.000938
v -2.001289 -0.205158 -0.000938
v -1.000645 0.016836 -1.180172
v -2.001289 -0.060252 -1.180172
v -2.001289 -0.044139 2.357530
v -1.000645 0.040425 2.357530
v -2.001289 -0.010138 -2.359406
v -1.000645 -0.024959 -2.359406
v -2.001289 -0.111591 -1.180172
v -2.001289 -0.104420 1.178296
v 0.000000 0.010589 2.357530
v 3.001934 0.010589 2.357530
v -3.001934 -0.274110 -1.180172
v -3.001934 -0.104175 -2.359406
v 3.001934 0.010589 -1.180172
v 3.001934 0.010589 -2.359406
v 0.000000 0.010589 -2.359406
v -2.692332 -0.072581 2.357530
v -2.692332 -0.133500 1.178296
v 3.001934 0.010589 1.178296
v 3.001934 0.010589 -0.000938
v -2.001289 -0.184012 1.178296
v -2.001289 -0.090089 -1.180172
v -1.000645 0.010589 2.357530
v -1.000645 -0.054795 -2.359406
v 0.000000 0.010589 1.178296
v 0.000000 0.010589 -0.000938
v 0.000000 0.010589 -1.180172
v -1.000645 -0.059429 1.178296
v -1.000645 -0.106569 -0.000938
v -1.000645 -0.013001 -1.180172
v -2.001289 -0.141427 -1.180172
v -2.001289 -0.073975 2.357530
v -2.001289 -0.039975 -2.359406
v -2.001289 -0.234995 -0.000938
v -2.001289 -0.134256 1.178296
vn -0.1226 0.9882 0.0922
vn 0.0374 0.9967 -0.0722
vn -0.0000 1.0000 -0.0000
vn -0.0701 0.9968 0.0395
vn -0.1008 0.9930 -0.0623
vn -0.0931 0.9955 -0.0199
vn -0.1269 0.9888 0.0785
vn -0.0349 0.9989 -0.0297
vn -0.1036 0.9917 -0.0757
vn -0.0444 0.9989 -0.0177
vn -0.0311 0.9995 0.0035
vn 0.1226 -0.9882 -0.0922
vn -0.0374 -0.9967 0.0722
vn -0.0000 -1.0000 -0.0000
vn 0.0701 -0.9968 -0.0395
vn 0.1008 -0.9930 0.0623
vn 0.0931 -0.9955 0.0199
vn 0.1269 -0.9888 -0.0785
vn 0.0349 -0.9989 0.0297
vn 0.1036 -0.9917 0.0757
vn 0.0444 -0.9989 0.0177
vn 0.0311 -0.9995 -0.0035
vn -0.0000 -0.0000 -1.0000
vn 1.0000 -0.0000 -0.0000
vn -0.0000 -0.0000 1.0000
vn -1.0000 -0.0000 -0.0000
vt 0.000000 0.000000
s 0
usemtl Material
f 20/1/1 23/1/1 3/1/1 6/1/1
f 21/1/2 16/1/2 5/1/2 4/1/2
f 8/1/3 9/1/3 14/1/3 13/1/3
f 7/1/3 8/1/3 13/1/3 12/1/3
f 1/1/3 7/1/3 12/1/3 10/1/3
f 9/1/3 2/1/3 11/1/3 14/1/3
f 13/1/4 14/1/4 19/1/4 17/1/4
f 15/1/5 17/1/5 18/1/5 26/1/5
f 12/1/6 13/1/6 17/1/6 15/1/6
f 17/1/7 19/1/7 25/1/7 18/1/7
f 10/1/8 12/1/8 15/1/8 22/1/8
f 22/1/9 15/1/9 16/1/9 21/1/9
f 14/1/10 11/1/10 24/1/10 19/1/10
f 19/1/11 24/1/11 23/1/11 20/1/11
f 39/1/12 29/1/12 30/1/12 50/1/12
f 49/1/13 34/1/13 35/1/13 38/1/13
f 37/1/14 43/1/14 44/1/14 31/1/14
f 36/1/14 42/1/14 43/1/14 37/1/14
f 28/1/14 27/1/14 42/1/14 36/1/14
f 31/1/14 44/1/14 33/1/14 32/1/14
f 43/1/15 46/1/15 47/1/15 44/1/15
f 45/1/16 52/1/16 51/1/16 46/1/16
f 42/1/17 45/1/17 46/1/17 43/1/17
f 46/1/18 51/1/18 48/1/18 47/1/18
f 27/1/19 40/1/19 45/1/19 42/1/19
f 40/1/20 49/1/20 38/1/20 45/1/20
f 44/1/21 47/1/21 41/1/21 33/1/21
f 47/1/22 39/1/22 50/1/22 41/1/22
f 24/1/23 41/1/23 50/1/23 23/1/23
f 7/1/24 36/1/24 37/1/24 8/1/24
f 8/1/24 37/1/24 31/1/24 9/1/24
f 19/1/23 47/1/23 48/1/23 25/1/23
f 26/1/25 52/1/25 45/1/25 15/1/25
f 10/1/25 27/1/25 28/1/25 1/1/25
f 16/1/23 38/1/23 35/1/23 5/1/23
f 18/1/26 51/1/26 52/1/26 26/1/26
f 3/1/26 30/1/26 29/1/26 6/1/26
f 6/1/25 29/1/25 39/1/25 20/1/25
f 20/1/25 39/1/25 47/1/25 19/1/25
f 9/1/24 31/1/24 32/1/24 2/1/24
f 25/1/26 48/1/26 51/1/26 18/1/26
f 22/1/25 40/1/25 27/1/25 10/1/25
f 4/1/25 34/1/25 49/1/25 21/1/25
f 2/1/23 32/1/23 33/1/23 11/1/23
f 11/1/23 33/1/23 41/1/23 24/1/23
f 21/1/25 49/1/25 40/1/25 22/1/25
f 5/1/26 35/1/26 34/1/26 4/1/26
f 23/1/23 50/1/23 30/1/23 3/1/23
f 1/1/24 28/1/24 36/1/24 7/1/24
f 15/1/23 45/1/23 38/1/23 16/1/23
