# Blender 5.1.2
# www.blender.org
mtllib FloorMeshEdgeBroken.01.mtl
o FloorMeshEdgeBroken.01
v 3.001934 -0.297438 -2.359406
v 3.001934 -0.176420 2.357530
v 3.001934 0.023590 2.357530
v 3.001934 -0.097428 -2.359406
v -1.883345 0.100005 2.357530
v -1.883345 -0.100005 2.357530
v -1.883345 -0.100005 -2.359406
v -1.883345 0.100005 -2.359406
v 3.001934 -0.097428 -2.500938
v -3.001934 0.100005 -2.500938
v 3.001934 -0.297438 -2.500938
v -3.001934 -0.100005 -2.500938
v 3.001934 -0.176420 2.499062
v -3.001934 -0.100005 2.499062
v -3.001934 0.100005 2.499062
v 3.001934 0.023590 2.499062
v 1.587974 -0.100005 2.499062
v 1.587974 0.100005 2.499062
v 1.587974 -0.100005 2.357530
v 1.587974 0.100005 2.357530
v 1.587974 0.100005 -2.500938
v 1.587974 -0.100005 -2.500938
v 1.587974 0.100005 -2.359406
v 1.587974 -0.100005 -2.359406
v 2.294954 0.028125 -2.500938
v 2.294954 -0.171885 -2.500938
v 2.294954 0.028125 -2.359406
v 2.294954 -0.171885 -2.359406
v 2.294954 0.045529 2.499062
v 2.294954 0.045529 2.357530
v 2.294954 -0.154482 2.499062
v 2.294954 -0.154482 2.357530
vn -0.0000 -0.0000 1.0000
vn -0.0000 -0.0000 -1.0000
vn -1.0000 -0.0000 -0.0000
vn 0.1749 0.9846 -0.0000
vn -0.0000 -1.0000 -0.0000
vn -0.0310 -0.9995 -0.0000
vn -0.0000 1.0000 -0.0000
vn 1.0000 -0.0000 -0.0000
vn 0.0768 0.9970 -0.0000
vn -0.1011 -0.9949 -0.0000
vn -0.1749 -0.9846 -0.0000
vn 0.1011 0.9949 -0.0000
vn 0.0310 0.9995 -0.0000
vn -0.0768 -0.9970 -0.0000
vt 0.260037 0.934984
vt 0.998072 0.944378
vt 0.997663 0.976538
vt 0.259627 0.967145
vt 0.769775 0.887966
vt 0.032078 0.912225
vt 0.031021 0.880079
vt 0.768718 0.855820
vt 0.982570 0.860059
vt 0.178529 0.860059
vt 0.178529 0.827896
vt 0.982570 0.827896
vt 0.145702 0.833060
vt 0.030235 0.833060
vt 0.030235 0.810301
vt 0.145702 0.810300
vt 0.768331 0.934984
vt 0.210113 0.934984
vt 0.030235 0.912225
vt 0.768331 0.912225
vt 0.145952 0.999302
vt 0.032209 0.999302
vt 0.032209 0.976543
vt 0.145952 0.976542
vt 0.259977 0.833060
vt 0.818194 0.833060
vt 0.998072 0.855820
vt 0.259977 0.855820
vt 0.975312 0.992161
vt 0.216790 0.992161
vt 0.194031 0.812283
vt 0.998072 0.812283
vt 0.216790 0.814427
vt 0.975312 0.814427
vt 0.998072 0.994305
vt 0.194030 0.994305
vt 0.310746 0.867018
vt 0.309447 0.899155
vt 0.195036 0.914738
vt 0.196335 0.882601
vt 0.982570 0.955627
vt 0.982570 0.987791
vt 0.224047 0.987791
vt 0.224047 0.955627
vt 0.423918 0.923468
vt 0.982067 0.914738
vt 0.982570 0.946897
vt 0.424421 0.955627
vt -0.001928 0.833060
vt -0.001928 0.810301
vt 0.032208 0.855820
vt 0.000045 0.855820
vt 0.000045 0.833060
vt 0.032208 0.833060
vt 0.310107 0.916487
vt 0.310610 0.948646
vt 0.145951 0.833060
vt 0.145951 0.855820
vt 0.818194 0.999299
vt 0.259977 0.999301
vt 0.259977 0.976542
vt 0.998072 0.976538
vt 0.146246 0.942297
vt 0.145837 0.974458
vt 0.982570 0.882601
vt 0.981271 0.914738
vt 0.423510 0.892196
vt 0.424808 0.860059
vt 0.882605 0.934984
vt 0.882605 0.912225
vt 0.818194 0.833056
vt 0.259977 0.833059
vt 0.259977 0.810299
vt 0.998072 0.810295
vt 0.883782 0.895782
vt 0.882725 0.863636
vt 0.998072 0.912225
vt 0.997015 0.880079
vt 0.998072 0.934984
vt 0.998072 0.912225
vt 0.032522 0.944378
vt 0.032113 0.976538
vt 0.196377 0.914738
vt 0.196880 0.946897
s 0
usemtl M_Mesh
f 18/1/1 15/2/1 14/3/1 17/4/1
f 22/5/2 12/6/2 10/7/2 21/8/2
f 12/9/3 14/10/3 15/11/3 10/12/3
f 27/13/4 4/14/4 9/15/4 25/16/4
f 24/17/5 7/18/5 12/19/5 22/20/5
f 32/21/6 2/22/6 13/23/6 31/24/6
f 20/25/7 5/26/7 15/27/7 18/28/7
f 5/29/7 8/30/7 10/31/7 15/32/7
f 7/33/5 6/34/5 14/35/5 12/36/5
f 27/37/1 28/38/1 1/39/1 4/40/1
f 5/41/8 6/42/8 7/43/8 8/44/8
f 19/45/2 6/46/2 5/47/2 20/48/2
f 9/15/8 4/14/8 1/49/8 11/50/8
f 16/51/8 13/52/8 2/53/8 3/54/8
f 32/55/2 19/45/2 20/48/2 30/56/2
f 30/57/9 20/25/9 18/28/9 29/58/9
f 6/59/5 19/60/5 17/61/5 14/62/5
f 29/63/1 18/1/1 17/4/1 31/64/1
f 8/65/1 7/66/1 24/67/1 23/68/1
f 28/69/10 24/17/10 22/20/10 26/70/10
f 8/71/7 23/72/7 21/73/7 10/74/7
f 26/75/2 22/5/2 21/8/2 25/76/2
f 11/77/2 26/75/2 25/76/2 9/78/2
f 1/79/11 28/69/11 26/70/11 11/80/11
f 23/68/1 24/67/1 28/38/1 27/37/1
f 23/72/12 27/13/12 25/16/12 21/73/12
f 16/81/1 29/63/1 31/64/1 13/82/1
f 3/54/13 30/57/13 29/58/13 16/51/13
f 2/83/2 32/55/2 30/56/2 3/84/2
f 19/60/14 32/21/14 31/24/14 17/61/14
