# Blender 5.1.1
# www.blender.org
mtllib FloorMeshEdge.01.mtl
o FloorMeshEdge.01
v 3.001934 -0.100005 -2.359406
v 3.001934 -0.100005 2.357530
v 3.001934 0.100005 2.357530
v 3.001934 0.100005 -2.359406
v -2.860401 0.100005 2.357530
v -2.860401 -0.100005 2.357530
v -2.860401 -0.100005 -2.359406
v -2.860401 0.100005 -2.359406
v 3.001934 0.100005 -2.500938
v -3.001934 0.100005 -2.500938
v 3.001934 -0.100005 -2.500938
v -3.001934 -0.100005 -2.500938
v 3.001934 -0.100005 2.499062
v -3.001934 -0.100005 2.499062
v -3.001934 0.100005 2.499062
v 3.001934 0.100005 2.499062
vn -0.0000 -0.0000 1.0000
vn -0.0000 -0.0000 -1.0000
vn -1.0000 -0.0000 -0.0000
vn -0.0000 1.0000 -0.0000
vn -0.0000 -1.0000 -0.0000
vn 1.0000 -0.0000 -0.0000
vt 0.000000 0.000000
vt 1.000000 0.000000
vt 1.000000 1.000000
vt 0.023574 0.028306
vt 0.976426 0.028306
vt 0.976426 0.971694
vt 0.023574 0.971694
vt 0.000000 1.000000
s 0
usemtl Material
f 16/1/1 15/1/1 14/1/1 13/1/1
f 11/1/2 12/2/2 10/2/2 9/1/2
f 12/2/3 14/3/3 15/1/3 10/2/3
f 8/1/4 4/1/4 9/1/4 10/1/4
f 1/4/5 7/5/5 12/2/5 11/1/5
f 6/6/5 2/7/5 13/8/5 14/3/5
f 3/1/4 5/1/4 15/1/4 16/1/4
f 5/1/4 8/1/4 10/1/4 15/1/4
f 7/5/5 6/6/5 14/3/5 12/2/5
f 8/1/1 7/5/1 1/4/1 4/1/1
f 5/1/6 6/6/6 7/5/6 8/1/6
f 2/7/2 6/6/2 5/1/2 3/1/2
f 9/1/6 4/1/6 1/4/6 11/1/6
f 16/1/6 13/8/6 2/7/6 3/1/6
