# Blender 5.1.1
# www.blender.org
mtllib FloorShooting.mtl
o FloorShooting
v -2.001630 0.100005 2.499758
v -2.001630 0.100005 -2.500242
v -2.001630 -0.100006 2.499758
v -2.001630 -0.100006 -2.500242
v 2.001614 -0.100006 2.499758
v 2.001614 0.100005 2.499758
v 2.001614 -0.100006 -2.500242
v 2.001614 0.100005 -2.500242
vn 1.0000 -0.0000 -0.0000
vn -0.0000 -1.0000 -0.0000
vn -0.0000 -0.0000 1.0000
vn -1.0000 -0.0000 -0.0000
vn -0.0000 1.0000 -0.0000
vn -0.0000 -0.0000 -1.0000
vt 0.000000 1.000000
vt 0.000000 0.000000
s 0
usemtl Material
f 5/1/1 7/2/1 8/2/1 6/1/1
f 3/1/2 4/2/2 7/2/2 5/1/2
f 1/1/3 3/1/3 5/1/3 6/1/3
f 1/1/4 2/2/4 4/2/4 3/1/4
f 2/2/5 1/1/5 6/1/5 8/2/5
f 4/2/6 2/2/6 8/2/6 7/2/6
