# Blender 5.1.1
# www.blender.org
mtllib FloorMeshEdgeBroken.03.mtl
o FloorMeshEdgeBroken.03
v 3.001934 0.040425 2.357530
v 3.001934 0.040425 -2.359406
v -2.860401 0.040425 -2.359406
v -2.860401 0.040425 2.357530
v -2.860401 0.040425 1.178296
v -2.860401 0.040425 -0.000938
v -2.860401 0.040425 -1.180172
v 3.001934 0.040425 1.178296
v 3.001934 0.040425 -0.000938
v 3.001934 0.040425 -1.180172
v -1.883345 0.040425 2.357530
v -0.906289 0.040425 2.357530
v -1.017984 -0.058933 -0.000938
v 1.047822 0.040425 2.357530
v 2.024879 0.040425 2.357530
v -1.883345 0.040425 -2.359406
v -0.906289 0.040425 -2.359406
v -0.906290 0.005513 1.178296
v 1.047822 0.040425 -2.359406
v 2.024879 0.040425 -2.359406
v 1.222695 -0.051615 -0.000938
v 1.157448 -0.076268 1.178296
v 2.024878 0.040425 1.178296
v 1.047822 -0.020708 1.178296
v -0.906290 -0.057778 -1.180172
v -0.906290 0.040425 1.178296
v -1.883345 0.040425 1.178296
v 2.024878 0.040425 -0.000938
v 1.047822 -0.001670 -1.180172
v 1.072247 -0.005332 -0.000938
v -1.883345 0.040425 -0.000938
v 2.024878 0.040425 -1.180172
v 1.047822 0.040425 -1.180172
v -1.079244 -0.153102 -0.000938
v -0.906290 -0.035789 -1.180172
v -1.883345 0.040425 -1.180172
v 0.070767 0.040425 -2.359406
v 0.070766 -0.066731 -1.253831
v 0.070767 0.040425 2.357530
v 0.070766 -0.020708 1.239775
v 0.070767 0.040425 2.357530
v 0.070766 -0.057265 1.239775
v 3.001934 0.010589 2.357530
v 3.001934 0.010589 -2.359406
v -2.860401 0.010589 -2.359406
v -2.860401 0.010589 2.357530
v -2.860401 0.010589 1.178296
v -2.860401 0.010589 -0.000938
v -2.860401 0.010589 -1.180172
v 3.001934 0.010589 1.178296
v 3.001934 0.010589 -0.000938
v 3.001934 0.010589 -1.180172
v -1.883345 0.010589 2.357530
v -0.906289 0.010589 2.357530
v -1.017984 -0.088769 -0.000938
v 1.047822 0.010589 2.357530
v 2.024879 0.010589 2.357530
v -1.883345 0.010589 -2.359406
v -0.906289 0.010589 -2.359406
v -0.906290 -0.024324 1.178296
v 1.047822 0.010589 -2.359406
v 2.024879 0.010589 -2.359406
v 1.222695 -0.081452 -0.000938
v 1.157448 -0.106104 1.178296
v 2.024878 0.010589 1.178296
v 1.047822 -0.050544 1.178296
v -0.906290 -0.087615 -1.180172
v -0.906290 0.010589 1.178296
v -1.883345 0.010589 1.178296
v 2.024878 0.010589 -0.000938
v 1.047822 -0.031506 -1.180172
v 1.072247 -0.035169 -0.000938
v -1.883345 0.010589 -0.000938
v 2.024878 0.010589 -1.180172
v 1.047822 0.010589 -1.180172
v -1.079244 -0.182938 -0.000938
v -0.906290 -0.065625 -1.180172
v -1.883345 0.010589 -1.180172
v 0.070767 0.010589 -2.359406
v 0.070766 -0.096568 -1.253831
v 0.070767 0.010589 2.357530
v 0.070766 -0.050544 1.239775
v 0.070767 0.010589 2.357530
v 0.070766 -0.087101 1.239775
vn -0.0000 1.0000 -0.0000
vn -0.0313 0.9992 -0.0259
vn -0.1241 0.9923 0.0069
vn -0.0455 0.9990 0.0020
vn 0.0727 0.9969 -0.0307
vn 0.1614 0.9855 0.0517
vn 0.0390 0.9987 0.0323
vn 0.0188 0.9966 0.0800
vn -0.0565 0.9973 0.0468
vn -0.0017 0.9986 -0.0532
vn 0.0512 0.9978 -0.0424
vn -0.0000 -1.0000 -0.0000
vn 0.0313 -0.9992 0.0259
vn 0.1241 -0.9923 -0.0069
vn 0.0455 -0.9990 -0.0020
vn -0.0727 -0.9969 0.0307
vn -0.1614 -0.9855 -0.0517
vn -0.0390 -0.9987 -0.0323
vn -0.0188 -0.9966 -0.0800
vn 0.0565 -0.9973 -0.0468
vn 0.0017 -0.9986 0.0532
vn -0.0512 -0.9978 0.0424
vn -0.0000 -0.0000 -1.0000
vn -0.0752 -0.0000 0.9972
vn -0.0000 -0.0000 1.0000
vn -1.0000 -0.0000 -0.0000
vn -0.9985 -0.0000 -0.0552
vn 1.0000 -0.0000 -0.0000
vn -0.0628 -0.0000 -0.9980
vn 0.9955 -0.0000 -0.0943
vn 0.0628 -0.0000 -0.9980
vn 0.9894 -0.0000 0.1451
vn -0.9998 -0.0000 0.0207
vn 0.0752 -0.0000 0.9972
vt 0.000000 0.000000
s 0
usemtl Material
f 36/1/1 16/1/1 3/1/1 7/1/1
f 11/1/1 27/1/1 5/1/1 4/1/1
f 27/1/1 31/1/1 6/1/1 5/1/1
f 31/1/1 36/1/1 7/1/1 6/1/1
f 9/1/1 10/1/1 32/1/1 28/1/1
f 8/1/1 9/1/1 28/1/1 23/1/1
f 1/1/1 8/1/1 23/1/1 15/1/1
f 15/1/2 23/1/2 24/1/2 14/1/2
f 23/1/3 28/1/3 21/1/3 22/1/3
f 28/1/4 32/1/4 29/1/4 30/1/4
f 12/1/1 26/1/1 27/1/1 11/1/1
f 10/1/1 2/1/1 20/1/1 32/1/1
f 32/1/1 20/1/1 19/1/1 33/1/1
f 31/1/5 27/1/5 18/1/5 13/1/5
f 36/1/6 31/1/6 34/1/6 25/1/6
f 35/1/7 17/1/7 16/1/7 36/1/7
f 38/1/8 37/1/8 17/1/8 35/1/8
f 33/1/9 19/1/9 37/1/9 38/1/9
f 14/1/10 24/1/10 40/1/10 39/1/10
f 26/1/11 12/1/11 41/1/11 42/1/11
f 78/1/12 49/1/12 45/1/12 58/1/12
f 53/1/12 46/1/12 47/1/12 69/1/12
f 69/1/12 47/1/12 48/1/12 73/1/12
f 73/1/12 48/1/12 49/1/12 78/1/12
f 51/1/12 70/1/12 74/1/12 52/1/12
f 50/1/12 65/1/12 70/1/12 51/1/12
f 43/1/12 57/1/12 65/1/12 50/1/12
f 57/1/13 56/1/13 66/1/13 65/1/13
f 65/1/14 64/1/14 63/1/14 70/1/14
f 70/1/15 72/1/15 71/1/15 74/1/15
f 54/1/12 53/1/12 69/1/12 68/1/12
f 52/1/12 74/1/12 62/1/12 44/1/12
f 74/1/12 75/1/12 61/1/12 62/1/12
f 73/1/16 55/1/16 60/1/16 69/1/16
f 78/1/17 67/1/17 76/1/17 73/1/17
f 77/1/18 78/1/18 58/1/18 59/1/18
f 80/1/19 77/1/19 59/1/19 79/1/19
f 75/1/20 80/1/20 79/1/20 61/1/20
f 56/1/21 81/1/21 82/1/21 66/1/21
f 68/1/22 84/1/22 83/1/22 54/1/22
f 13/1/23 55/1/23 73/1/23 31/1/23
f 38/1/24 80/1/24 75/1/24 33/1/24
f 4/1/25 46/1/25 53/1/25 11/1/25
f 15/1/25 57/1/25 43/1/25 1/1/25
f 26/1/23 68/1/23 69/1/23 27/1/23
f 11/1/25 53/1/25 54/1/25 12/1/25
f 3/1/26 45/1/26 49/1/26 7/1/26
f 40/1/26 82/1/26 81/1/26 39/1/26
f 21/1/27 63/1/27 64/1/27 22/1/27
f 25/1/23 67/1/23 78/1/23 36/1/23
f 10/1/28 52/1/28 44/1/28 2/1/28
f 39/1/25 81/1/25 56/1/25 14/1/25
f 32/1/23 74/1/23 71/1/23 29/1/23
f 2/1/23 44/1/23 62/1/23 20/1/23
f 33/1/25 75/1/25 74/1/25 32/1/25
f 24/1/29 66/1/29 82/1/29 40/1/29
f 14/1/25 56/1/25 57/1/25 15/1/25
f 5/1/26 47/1/26 46/1/26 4/1/26
f 18/1/30 60/1/30 55/1/30 13/1/30
f 41/1/28 83/1/28 84/1/28 42/1/28
f 16/1/23 58/1/23 45/1/23 3/1/23
f 6/1/26 48/1/26 47/1/26 5/1/26
f 31/1/25 73/1/25 76/1/25 34/1/25
f 42/1/31 84/1/31 68/1/31 26/1/31
f 17/1/23 59/1/23 58/1/23 16/1/23
f 7/1/26 49/1/26 48/1/26 6/1/26
f 36/1/25 78/1/25 77/1/25 35/1/25
f 12/1/25 54/1/25 83/1/25 41/1/25
f 30/1/25 72/1/25 70/1/25 28/1/25
f 34/1/32 76/1/32 67/1/32 25/1/32
f 1/1/28 43/1/28 50/1/28 8/1/28
f 29/1/33 71/1/33 72/1/33 30/1/33
f 8/1/28 50/1/28 51/1/28 9/1/28
f 20/1/23 62/1/23 61/1/23 19/1/23
f 9/1/28 51/1/28 52/1/28 10/1/28
f 37/1/23 79/1/23 59/1/23 17/1/23
f 28/1/23 70/1/23 63/1/23 21/1/23
f 23/1/23 65/1/23 66/1/23 24/1/23
f 35/1/34 77/1/34 80/1/34 38/1/34
f 22/1/25 64/1/25 65/1/25 23/1/25
f 27/1/25 69/1/25 60/1/25 18/1/25
f 19/1/23 61/1/23 79/1/23 37/1/23
