# Blender 5.1.2
# www.blender.org
mtllib FloorMeshEdgeBroken.02.mtl
o FloorMeshEdgeBroken.02
v 3.001934 -0.485632 -2.359406
v -2.860401 0.040425 -2.359406
v -2.860401 0.040425 2.357530
v -2.860401 0.040425 1.178296
v -2.860401 0.040425 -0.000938
v -2.860401 0.040425 -1.180172
v 0.660095 -0.083934 1.178296
v 3.001934 -0.788136 -1.180172
v -0.428425 0.040425 2.357530
v -0.428425 0.040425 -2.359406
v -0.428425 0.040425 1.178296
v -0.428425 0.040425 -0.000938
v -0.428425 0.040425 -1.180172
v 1.447849 -0.033738 2.357530
v 1.447849 -0.064253 -2.359406
v 1.447849 -0.299337 1.178296
v 1.447849 -0.345685 -0.000938
v 1.447849 -0.246428 -1.180172
v 0.660095 -0.152630 -0.000938
v 0.660095 -0.097239 -1.180172
v 0.660095 0.040425 2.357530
v 0.660095 -0.026067 -2.359406
v 2.233077 -0.126517 2.357530
v 2.233077 -0.393396 1.178296
v 2.233077 -0.242917 -2.359406
v 2.233077 -0.648973 -1.180172
v -2.860401 0.010589 -1.180172
v -2.860401 0.010589 -2.359406
v 3.001934 -0.817973 -1.180172
v 3.001934 -0.515468 -2.359406
v 2.233077 -0.272753 -2.359406
v -2.860401 0.010589 2.357530
v -2.860401 0.010589 1.178296
v -2.860401 0.010589 -0.000938
v 1.447849 -0.276264 -1.180172
v 0.660095 -0.127075 -1.180172
v 1.447849 -0.375522 -0.000938
v 0.660095 -0.182467 -0.000938
v -0.428425 0.010589 1.178296
v -0.428425 0.010589 -0.000938
v -0.428425 0.010589 -1.180172
v -0.428425 0.010589 2.357530
v -0.428425 0.010589 -2.359406
v 0.660095 -0.113770 1.178296
v 0.660095 0.010589 2.357530
v 1.447849 -0.063574 2.357530
v 0.660095 -0.055903 -2.359406
v 1.447849 -0.094089 -2.359406
v 2.233077 -0.423233 1.178296
v 1.447849 -0.329174 1.178296
v 2.233077 -0.678810 -1.180172
v 2.233077 -0.156354 2.357530
vn -0.0000 1.0000 -0.0000
vn 0.1501 0.9884 0.0232
vn 0.1442 0.9891 -0.0288
vn 0.0570 0.9970 -0.0526
vn 0.0933 0.9952 0.0300
vn 0.3380 0.9132 0.2278
vn 0.1153 0.9689 -0.2188
vn 0.1784 0.9708 -0.1605
vn 0.1174 0.9874 0.1061
vn 0.2507 0.9669 -0.0472
vn 0.2118 0.9752 0.0639
vn 0.2314 0.9317 0.2799
vn -0.0000 -1.0000 -0.0000
vn -0.1501 -0.9884 -0.0232
vn -0.1442 -0.9891 0.0288
vn -0.0570 -0.9970 0.0526
vn -0.0933 -0.9952 -0.0300
vn -0.3380 -0.9132 -0.2278
vn -0.1153 -0.9689 0.2188
vn -0.1784 -0.9708 0.1605
vn -0.1174 -0.9874 -0.1061
vn -0.2507 -0.9669 0.0472
vn -0.2118 -0.9752 -0.0639
vn -0.2314 -0.9317 -0.2799
vn -0.0000 -0.0000 -1.0000
vn -0.0000 -0.0000 1.0000
vn 1.0000 -0.0000 -0.0000
vn -1.0000 -0.0000 -0.0000
vt 0.414799 0.578473
vt 0.414069 0.766623
vt 0.026287 0.765931
vt 0.026622 0.577901
vt 0.413740 0.013062
vt 0.414962 0.201421
vt 0.026729 0.202023
vt 0.026287 0.014229
vt 0.415156 0.389992
vt 0.026820 0.389927
vt 0.591950 0.390204
vt 0.590127 0.579067
vt 0.590467 0.200920
vt 0.587109 0.011610
vt 0.587763 0.767476
vt 0.858126 0.569950
vt 0.841351 0.767705
vt 0.713208 0.768812
vt 0.718001 0.578994
vt 0.838531 0.008336
vt 0.846611 0.200425
vt 0.720871 0.202410
vt 0.712815 0.010365
vt 0.721599 0.390492
vt 0.982432 0.572662
vt 0.969639 0.765967
vt 0.412290 0.203921
vt 0.024776 0.204492
vt 0.024441 0.016782
vt 0.411561 0.016092
vt 0.411232 0.768366
vt 0.024441 0.767201
vt 0.024882 0.579727
vt 0.412452 0.580328
vt 0.024974 0.392144
vt 0.412646 0.392080
vt 0.589138 0.391868
vt 0.587318 0.203327
vt 0.587657 0.580828
vt 0.584305 0.769815
vt 0.584959 0.015241
vt 0.854859 0.212429
vt 0.714974 0.203400
vt 0.710189 0.013907
vt 0.838113 0.015012
vt 0.835297 0.773084
vt 0.709796 0.771058
vt 0.717838 0.579341
vt 0.843364 0.581323
vt 0.718565 0.391580
vt 0.978953 0.209721
vt 0.966182 0.016747
vt 0.982227 0.351648
vt 0.979252 0.351915
vt 0.976142 0.242776
vt 0.979117 0.242509
vt 0.163177 0.565590
vt 0.166153 0.565850
vt 0.173322 0.643748
vt 0.170346 0.643487
vt 0.132859 0.758720
vt 0.129883 0.758459
vt 0.129883 0.483760
vt 0.132859 0.484021
vt 0.957356 0.589281
vt 0.954381 0.589548
vt 0.971704 0.510708
vt 0.974679 0.510441
vt 0.749225 0.431854
vt 0.749225 0.425528
vt 0.999225 0.425528
vt 0.999225 0.431854
vt 0.988454 0.510318
vt 0.985468 0.510221
vt 0.993444 0.266868
vt 0.996430 0.266966
vt 0.499225 0.431854
vt 0.499225 0.425528
vt 0.954381 0.000267
vt 0.957356 0.000000
vt 0.173322 0.483827
vt 0.176308 0.483760
vt 0.183595 0.601689
vt 0.180609 0.601756
vt 0.249225 0.431854
vt 0.249225 0.425528
vt 1.000000 0.158044
vt 0.997014 0.157946
vt 0.992177 0.078877
vt 0.995162 0.078975
vt 0.985468 -0.000000
vt 0.988454 0.000098
vt 0.176308 0.719944
vt 0.173322 0.720011
vt 0.985468 0.430542
vt 0.982493 0.430809
vt 0.053713 0.599971
vt 0.056688 0.600233
vt 0.072958 0.720183
vt 0.069983 0.719921
vt 0.056688 0.797670
vt 0.053713 0.797408
vt -0.000775 0.431854
vt -0.000775 0.425528
s 0
usemtl M_Mesh
f 13/1/1 10/2/1 2/3/1 6/4/1
f 9/5/1 11/6/1 4/7/1 3/8/1
f 11/6/1 12/9/1 5/10/1 4/7/1
f 12/9/1 13/1/1 6/4/1 5/10/1
f 19/11/2 20/12/2 13/1/2 12/9/2
f 7/13/3 19/11/3 12/9/3 11/6/3
f 21/14/4 7/13/4 11/6/4 9/5/4
f 20/12/5 22/15/5 10/2/5 13/1/5
f 26/16/6 25/17/6 15/18/6 18/19/6
f 23/20/7 24/21/7 16/22/7 14/23/7
f 14/23/8 16/22/8 7/13/8 21/14/8
f 18/19/9 15/18/9 22/15/9 20/12/9
f 16/22/10 17/24/10 19/11/10 7/13/10
f 17/24/11 18/19/11 20/12/11 19/11/11
f 8/25/12 1/26/12 25/17/12 26/16/12
f 41/27/13 27/28/13 28/29/13 43/30/13
f 42/31/13 32/32/13 33/33/13 39/34/13
f 39/34/13 33/33/13 34/35/13 40/36/13
f 40/36/13 34/35/13 27/28/13 41/27/13
f 38/37/14 40/36/14 41/27/14 36/38/14
f 44/39/15 39/34/15 40/36/15 38/37/15
f 45/40/16 42/31/16 39/34/16 44/39/16
f 36/38/17 41/27/17 43/30/17 47/41/17
f 51/42/18 35/43/18 48/44/18 31/45/18
f 52/46/19 46/47/19 50/48/19 49/49/19
f 46/47/20 45/40/20 44/39/20 50/48/20
f 35/43/21 36/38/21 47/41/21 48/44/21
f 50/48/22 44/39/22 38/37/22 37/50/22
f 37/50/23 38/37/23 36/38/23 35/43/23
f 29/51/24 51/42/24 31/45/24 30/52/24
f 22/53/25 47/54/25 43/55/25 10/56/25
f 26/57/26 51/58/26 29/59/26 8/60/26
f 8/60/27 29/59/27 30/61/27 1/62/27
f 18/63/26 35/64/26 51/58/26 26/57/26
f 1/65/25 30/66/25 31/67/25 25/68/25
f 4/69/28 33/70/28 32/71/28 3/72/28
f 3/73/26 32/74/26 42/75/26 9/76/26
f 5/77/28 34/78/28 33/70/28 4/69/28
f 10/56/25 43/55/25 28/79/25 2/80/25
f 16/81/27 50/82/27 37/83/27 17/84/27
f 6/85/28 27/86/28 34/78/28 5/77/28
f 21/87/26 45/88/26 46/89/26 14/90/26
f 14/90/26 46/89/26 52/91/26 23/92/26
f 17/84/27 37/83/27 35/93/27 18/94/27
f 15/95/25 48/96/25 47/54/25 22/53/25
f 23/97/27 52/98/27 49/99/27 24/100/27
f 9/76/26 42/75/26 45/88/26 21/87/26
f 24/100/25 49/99/25 50/101/25 16/102/25
f 25/68/25 31/67/25 48/96/25 15/95/25
f 2/103/28 28/104/28 27/86/28 6/85/28
