# Blender 5.1.2
# www.blender.org
mtllib Floor.mtl
o Floor
v 3.001934 0.100005 2.499062
v -3.001934 0.100005 2.499062
v 3.001934 -0.100005 -2.500938
v -3.001934 -0.100005 -2.500938
v -3.001934 -0.100005 2.499062
v 3.001934 -0.100005 2.499062
v 3.001934 0.100005 -2.500938
v -3.001934 0.100005 -2.500938
v 3.001934 -0.100005 -2.079334
v -3.001934 -0.100005 -2.079334
v -3.001934 0.100005 -2.079334
v 3.001934 0.100005 -2.079334
vn -0.0000 -0.0000 1.0000
vn 1.0000 -0.0000 -0.0000
vn -0.0000 -0.0000 -1.0000
vn -1.0000 -0.0000 -0.0000
vn -0.0000 1.0000 -0.0000
vn -0.0000 -1.0000 -0.0000
vt 1.000318 0.019835
vt 1.000318 0.053148
vt 0.000318 0.053148
vt 0.000318 0.019835
vt 0.084790 0.013202
vt 1.000470 0.013202
vt 1.000470 0.053204
vt 0.084790 0.053204
vt -0.001232 0.053148
vt -0.001232 0.019835
vt 0.998768 0.019835
vt 0.998768 0.053148
vt 0.914691 0.011840
vt 0.999012 0.011840
vt 0.999012 0.051842
vt 0.914691 0.051842
vt 0.546865 0.104226
vt 0.546865 0.502788
vt 0.024213 0.502788
vt 0.024213 0.104226
vt 0.302536 0.454667
vt 0.302536 0.022744
vt 0.868937 0.022744
vt 0.868937 0.454667
vt 0.302536 0.494441
vt 0.868937 0.494441
vt 0.000802 0.876713
vt 0.000802 0.806491
vt 1.000802 0.806491
vt 1.000802 0.876713
vt -0.000988 0.011840
vt -0.000988 0.051842
vt 0.000470 0.013202
vt 0.000470 0.053204
s 0
usemtl M_Floor
f 2/1/1 5/2/1 6/3/1 1/4/1
f 12/5/2 1/6/2 6/7/2 9/8/2
f 7/9/3 3/10/3 4/11/3 8/12/3
f 11/13/4 8/14/4 4/15/4 10/16/4
f 11/17/5 2/18/5 1/19/5 12/20/5
f 9/21/6 6/22/6 5/23/6 10/24/6
f 3/25/6 9/21/6 10/24/6 4/26/6
f 8/27/5 11/28/5 12/29/5 7/30/5
f 2/31/4 11/13/4 10/16/4 5/32/4
f 7/33/2 12/5/2 9/8/2 3/34/2
