# Blender 5.1.2
# www.blender.org
mtllib FloorMeshCentreBroken.02.mtl
o FloorMeshCentreBroken.02
v 3.001934 0.040425 2.357530
v 3.001934 0.040425 -2.359406
v -3.001934 0.040425 -2.359406
v -3.001934 0.040425 2.357530
v -3.001934 0.040425 1.178296
v -3.001934 0.040425 -0.000938
v -3.001934 0.040425 -1.180172
v 3.001934 0.040425 1.178296
v 3.001934 0.040425 -0.000938
v 3.001934 0.040425 -1.180172
v -2.001289 0.040425 2.357530
v -1.000645 0.040425 2.357530
v 0.000000 0.040425 2.357530
v 2.001289 0.040425 2.357530
v -2.001289 0.040425 -2.359406
v -1.000645 0.040425 -2.359406
v 0.000000 0.040425 -2.359406
v 1.000645 0.040425 -2.359406
v 2.001289 0.040425 -2.359406
v 2.001289 0.040425 1.178296
v 0.000000 -0.132719 1.399508
v -1.000645 -0.048254 1.178296
v -2.001289 0.040425 1.178296
v 2.001289 0.040425 -0.000938
v -1.000645 -0.123019 -1.180172
v -1.176734 -0.170243 -0.000938
v -2.001289 0.040425 -0.000938
v 2.001289 0.040425 -1.180172
v 1.000645 -0.133980 -1.180172
v 0.000000 -0.235671 -1.180172
v -1.000645 -0.044105 -1.180172
v -2.001289 0.040425 -1.180172
v -1.000645 -0.147444 1.178296
v 1.162235 -0.231589 -1.180172
v 1.000645 -0.056152 1.178296
v 1.000645 -0.231589 -0.000938
v 0.000000 0.040425 2.357530
v 0.000000 -0.224967 1.607421
v 1.000645 0.040425 2.357530
v 1.000645 -0.090575 1.178296
v 2.001289 0.010589 2.357530
v 3.001934 0.010589 2.357530
v -3.001934 0.010589 -1.180172
v -3.001934 0.010589 -2.359406
v 3.001934 0.010589 -1.180172
v 3.001934 0.010589 -2.359406
v 2.001289 0.010589 -2.359406
v -3.001934 0.010589 2.357530
v -3.001934 0.010589 1.178296
v -3.001934 0.010589 -0.000938
v 3.001934 0.010589 1.178296
v 3.001934 0.010589 -0.000938
v -2.001289 0.010589 1.178296
v -2.001289 0.010589 -0.000938
v -2.001289 0.010589 -1.180172
v -2.001289 0.010589 2.357530
v -1.000645 0.010589 2.357530
v 1.000645 0.010589 2.357530
v -2.001289 0.010589 -2.359406
v -1.000645 0.010589 -2.359406
v 0.000000 0.010589 -2.359406
v 1.000645 0.010589 -2.359406
v 2.001289 0.010589 1.178296
v 1.000645 -0.120412 1.178296
v 0.000000 -0.162556 1.399508
v -1.000645 -0.078090 1.178296
v 2.001289 0.010589 -0.000938
v 2.001289 0.010589 -1.180172
v 1.000645 -0.163816 -1.180172
v 0.000000 -0.265508 -1.180172
v -1.000645 -0.073941 -1.180172
v -1.176734 -0.200079 -0.000938
v -1.000645 -0.152856 -1.180172
v 0.000000 0.010589 2.357530
v 1.162235 -0.261425 -1.180172
v 1.000645 -0.261425 -0.000938
v -1.000645 -0.177281 1.178296
v 1.000645 -0.085988 1.178296
v 0.000000 -0.254804 1.607421
vn -0.0000 1.0000 -0.0000
vn 0.2007 0.9790 0.0346
vn -0.0364 0.9894 -0.1408
vn 0.0442 0.9983 -0.0375
vn -0.0866 0.9935 0.0735
vn -0.0498 0.9810 0.1874
vn 0.0942 0.9841 0.1505
vn 0.0422 0.9985 0.0358
vn 0.2133 0.9767 -0.0254
vn -0.2835 0.9588 -0.0194
vn -0.1806 0.9808 -0.0730
vn 0.1246 0.9759 -0.1791
vn -0.0652 0.9963 -0.0553
vn -0.0000 -1.0000 -0.0000
vn -0.2007 -0.9790 -0.0346
vn 0.0364 -0.9894 0.1408
vn -0.0442 -0.9983 0.0375
vn 0.0866 -0.9935 -0.0735
vn 0.0498 -0.9810 -0.1874
vn -0.0942 -0.9841 -0.1505
vn -0.0422 -0.9985 -0.0358
vn -0.2133 -0.9767 0.0254
vn 0.2835 -0.9588 0.0194
vn 0.1806 -0.9808 0.0730
vn -0.1246 -0.9759 0.1791
vn 0.0652 -0.9963 0.0553
vn -0.0000 -0.0000 -1.0000
vn 1.0000 -0.0000 -0.0000
vn 0.9890 -0.0000 0.1477
vn -0.2159 -0.0000 -0.9764
vn -1.0000 -0.0000 -0.0000
vn -0.0000 -0.0000 1.0000
vn 0.3941 -0.0000 -0.9191
vn 0.9890 -0.0000 -0.1477
vn -0.9907 -0.0000 -0.1358
vt 0.171053 0.600238
vt 0.174028 0.791046
vt 0.012118 0.793571
vt 0.009142 0.602763
vt 0.162128 0.027814
vt 0.165103 0.218622
vt 0.003192 0.221147
vt 0.000217 0.030339
vt 0.168078 0.409430
vt 0.006167 0.411955
vt 0.990898 0.411925
vt 0.987173 0.602773
vt 0.825271 0.599732
vt 0.828621 0.408482
vt 0.995167 0.220868
vt 0.833045 0.217245
vt 0.305782 0.407283
vt 0.335116 0.598140
vt 0.999437 0.029811
vt 0.837314 0.026188
vt 0.675191 0.022565
vt 0.669517 0.214762
vt 0.508098 0.175105
vt 0.513110 0.017414
vt 0.324039 0.025290
vt 0.327656 0.216626
vt 0.983589 0.793571
vt 0.821687 0.790529
vt 0.659785 0.787488
vt 0.660980 0.594584
vt 0.497857 0.786484
vt 0.498267 0.590493
vt 0.335939 0.788521
vt 0.333532 0.597216
vt 0.329839 0.215806
vt 0.682551 0.597398
vt 0.660435 0.406003
vt 0.670403 0.213275
vt 0.485795 0.017785
vt 0.491763 0.146407
vt 0.827336 0.593193
vt 0.989527 0.595722
vt 0.986547 0.786859
vt 0.824356 0.784330
vt 0.836277 0.019779
vt 0.998468 0.022308
vt 0.995488 0.213446
vt 0.833297 0.210917
vt 0.992508 0.404584
vt 0.830317 0.402055
vt 0.006074 0.404554
vt 0.168632 0.401104
vt 0.171987 0.592685
vt 0.009805 0.595732
vt 0.001797 0.213166
vt 0.164200 0.209537
vt 0.662989 0.591091
vt 0.692374 0.399904
vt -0.002479 0.021778
vt 0.159924 0.018150
vt 0.322327 0.014521
vt 0.484688 0.009360
vt 0.489709 0.167324
vt 0.328011 0.207050
vt 0.674086 0.017250
vt 0.670463 0.208917
vt 0.175578 0.783813
vt 0.013396 0.786859
vt 0.336563 0.587529
vt 0.337760 0.780766
vt 0.499557 0.583431
vt 0.499967 0.779761
vt 0.664576 0.590165
vt 0.662165 0.781801
vt 0.668276 0.208096
vt 0.337108 0.398622
vt 0.314954 0.590348
vt 0.327123 0.205561
vt 0.506072 0.138577
vt 0.512050 0.009732
vt 0.938762 0.213823
vt 0.941684 0.213823
vt 0.968318 0.295978
vt 0.965396 0.295978
vt 0.970591 0.203278
vt 0.973512 0.203278
vt 0.973512 0.318741
vt 0.970591 0.318741
vt 0.994140 0.214720
vt 0.997061 0.214720
vt 0.992437 0.331464
vt 0.989516 0.331464
vt 0.453965 0.712219
vt 0.453965 0.709298
vt 0.554307 0.705171
vt 0.554307 0.708093
vt 0.965396 0.412521
vt 0.968318 0.412521
vt 0.951140 0.527984
vt 0.948218 0.527984
vt 0.973512 0.434205
vt 0.970591 0.434205
vt 0.950367 0.097977
vt 0.953288 0.097977
vt 0.944605 -0.000000
vt 0.941684 -0.000000
vt 0.941684 0.625961
vt 0.938762 0.625961
vt 0.648111 0.722124
vt 0.648111 0.725046
vt 0.941684 0.278030
vt 0.944605 0.278030
vt 0.970591 0.204584
vt 0.967669 0.204584
vt 0.550134 0.685173
vt 0.550134 0.682251
vt 0.648111 0.699328
vt 0.648111 0.702250
vt 0.941684 0.571961
vt 0.941684 0.473984
vt 0.944605 0.473984
vt 0.944605 0.571961
vt 0.550134 0.702250
vt 0.648111 0.705171
vt 0.550134 0.705171
vt 0.452157 0.675215
vt 0.452157 0.672294
vt 0.941684 0.376007
vt 0.944605 0.376007
vt 0.973512 0.461853
vt 0.970591 0.461853
vt 0.970591 0.346390
vt 0.973512 0.346390
vt 0.354180 0.693972
vt 0.354180 0.691051
vt 0.354180 0.702250
vt 0.452157 0.702250
vt 0.452157 0.705171
vt 0.354180 0.705171
vt 0.973512 0.549668
vt 0.970591 0.549668
vt 0.256203 0.702249
vt 0.256203 0.699327
vt 0.355988 0.725046
vt 0.355988 0.722124
vt 0.941684 0.489885
vt 0.941684 0.587862
vt 0.938762 0.587862
vt 0.938762 0.489885
vt 0.941684 -0.000000
vt 0.941684 0.097977
vt 0.938762 0.097977
vt 0.938762 -0.000000
vt 0.941684 0.391908
vt 0.938762 0.391908
vt 0.973512 0.115463
vt 0.970591 0.115463
vt 0.970591 0.000000
vt 0.973512 0.000000
vt 0.991907 0.097977
vt 0.994829 0.097977
vt 0.941684 0.293931
vt 0.938762 0.293931
vt 0.973512 0.230927
vt 0.970591 0.230927
vt 0.941684 0.195954
vt 0.938762 0.195954
vt 0.973512 0.000000
vt 0.976434 0.000000
vt 0.970591 0.087815
vt 0.973512 0.087815
vt 0.976434 0.429441
vt 0.973512 0.429441
s 0
usemtl M_Mesh
f 32/1/1 15/2/1 3/3/1 7/4/1
f 11/5/1 23/6/1 5/7/1 4/8/1
f 23/6/1 27/9/1 6/10/1 5/7/1
f 27/9/1 32/1/1 7/4/1 6/10/1
f 9/11/1 10/12/1 28/13/1 24/14/1
f 8/15/1 9/11/1 24/14/1 20/16/1
f 32/1/2 27/9/2 26/17/2 25/18/2
f 1/19/1 8/15/1 20/16/1 14/20/1
f 39/21/3 40/22/3 21/23/3 13/24/3
f 12/25/4 22/26/4 23/6/4 11/5/4
f 10/12/1 2/27/1 19/28/1 28/13/1
f 28/13/5 19/28/5 18/29/5 29/30/5
f 29/30/6 18/29/6 17/31/6 30/32/6
f 30/32/7 17/31/7 16/33/7 31/34/7
f 31/34/8 16/33/8 15/2/8 32/1/8
f 27/9/9 23/6/9 33/35/9 26/17/9
f 24/14/10 28/13/10 34/36/10 36/37/10
f 20/16/11 24/14/11 36/37/11 35/38/11
f 22/26/12 12/25/12 37/39/12 38/40/12
f 14/20/13 20/16/13 40/22/13 39/21/13
f 55/41/14 43/42/14 44/43/14 59/44/14
f 56/45/14 48/46/14 49/47/14 53/48/14
f 53/48/14 49/47/14 50/49/14 54/50/14
f 54/50/14 50/49/14 43/42/14 55/41/14
f 52/51/14 67/52/14 68/53/14 45/54/14
f 51/55/14 63/56/14 67/52/14 52/51/14
f 55/41/15 73/57/15 72/58/15 54/50/15
f 42/59/14 41/60/14 63/56/14 51/55/14
f 58/61/16 74/62/16 65/63/16 64/64/16
f 57/65/17 56/45/17 53/48/17 66/66/17
f 45/54/14 68/53/14 47/67/14 46/68/14
f 68/53/18 69/69/18 62/70/18 47/67/18
f 69/69/19 70/71/19 61/72/19 62/70/19
f 70/71/20 71/73/20 60/74/20 61/72/20
f 71/73/21 55/41/21 59/44/21 60/74/21
f 54/50/22 72/58/22 77/75/22 53/48/22
f 67/52/23 76/76/23 75/77/23 68/53/23
f 63/56/24 78/78/24 76/76/24 67/52/24
f 66/66/25 79/79/25 74/80/25 57/65/25
f 41/60/26 58/61/26 64/64/26 63/56/26
f 28/81/27 68/82/27 75/83/27 34/84/27
f 8/85/28 51/86/28 52/87/28 9/88/28
f 26/89/29 72/90/29 73/91/29 25/92/29
f 40/93/30 64/94/30 65/95/30 21/96/30
f 36/97/31 76/98/31 78/99/31 35/100/31
f 9/88/28 52/87/28 45/101/28 10/102/28
f 22/103/27 66/104/27 53/105/27 23/106/27
f 35/100/32 78/99/32 63/107/32 20/108/32
f 21/96/31 65/95/31 74/109/31 13/110/31
f 37/111/28 74/112/28 79/113/28 38/114/28
f 29/115/32 69/116/32 68/117/32 28/118/32
f 38/114/33 79/113/33 66/104/33 22/103/33
f 4/119/27 11/120/27 56/121/27 48/122/27
f 14/123/27 1/118/27 42/124/27 41/125/27
f 30/126/32 70/127/32 69/116/32 29/115/32
f 12/128/27 37/111/27 74/112/27 57/129/27
f 11/120/27 12/128/27 57/129/27 56/121/27
f 3/130/31 44/131/31 43/132/31 7/133/31
f 31/134/32 71/135/32 70/127/32 30/126/32
f 13/136/27 39/137/27 58/138/27 74/139/27
f 39/137/27 14/123/27 41/125/27 58/138/27
f 10/102/28 45/101/28 46/140/28 2/141/28
f 32/142/32 55/143/32 71/135/32 31/134/32
f 20/144/27 63/145/27 64/94/27 40/93/27
f 15/146/32 3/147/32 44/148/32 59/149/32
f 2/150/32 19/151/32 47/152/32 46/153/32
f 16/154/32 15/146/32 59/149/32 60/155/32
f 5/156/31 49/157/31 48/158/31 4/159/31
f 33/160/34 77/161/34 72/90/34 26/89/34
f 17/162/32 16/154/32 60/155/32 61/163/32
f 6/164/31 50/165/31 49/157/31 5/156/31
f 18/166/32 17/162/32 61/163/32 62/167/32
f 34/84/35 75/83/35 76/98/35 36/97/35
f 7/133/31 43/132/31 50/165/31 6/164/31
f 19/151/32 18/166/32 62/167/32 47/152/32
f 23/168/32 53/169/32 77/161/32 33/160/32
f 1/170/28 42/171/28 51/86/28 8/85/28
f 25/92/27 73/91/27 55/172/27 32/173/27
