# Blender 5.1.2
# www.blender.org
mtllib FloorMeshCentre.02.mtl
o FloorMeshCentre.02
v 3.001934 0.040425 2.357530
v 3.001934 0.040425 -2.359406
v -3.001934 0.040425 -2.359406
v -3.001934 0.040425 2.357530
v -3.001934 0.010589 2.357530
v 3.001934 0.010589 2.357530
v -3.001934 0.010589 -2.359406
v 3.001934 0.010589 -2.359406
vn -0.0000 1.0000 -0.0000
vn -0.0000 -1.0000 -0.0000
vn -0.0000 -0.0000 -1.0000
vn -1.0000 -0.0000 -0.0000
vn 1.0000 -0.0000 -0.0000
vn -0.0000 -0.0000 1.0000
vt 0.010209 0.782176
vt 0.010209 0.015679
vt 0.985831 0.015680
vt 0.985831 0.782176
vt 0.011245 0.015895
vt 0.986319 0.015895
vt 0.986319 0.781961
vt 0.011245 0.781961
vt 0.993734 0.630435
vt 0.990601 0.630435
vt 0.990601 0.000000
vt 0.993734 0.000000
vt 1.000000 0.495300
vt 0.996867 0.495300
vt 0.996867 0.000000
vt 1.000000 0.000000
vt 1.000000 0.990601
vt 0.996867 0.990601
vt 0.996867 0.000000
vt 0.996867 0.630434
vt 0.993734 0.630434
s 0
usemtl M_Mesh
f 1/1/1 2/2/1 3/3/1 4/4/1
f 6/5/2 5/6/2 7/7/2 8/8/2
f 2/9/3 8/10/3 7/11/3 3/12/3
f 3/13/4 7/14/4 5/15/4 4/16/4
f 1/14/5 6/13/5 8/17/5 2/18/5
f 4/12/6 5/19/6 6/20/6 1/21/6
