# Blender 5.1.2
# www.blender.org
mtllib PanopticonAccessBridgeWalkway.mtl
o PanopticonAccessBridgeWalkway
v 5.621415 0.100005 2.177907
v 5.621415 0.100005 -2.177907
v 25.185755 0.100005 2.177907
v 25.185755 0.100005 -2.177907
v 5.621415 0.000018 2.177907
v 5.621415 0.000018 -2.177907
v 25.185755 0.000018 2.177907
v 25.185755 0.000018 -2.177907
vn -0.0000 1.0000 -0.0000
vn -0.0000 -1.0000 -0.0000
vn 1.0000 -0.0000 -0.0000
vn -0.0000 -0.0000 1.0000
vn -0.0000 -0.0000 -1.0000
vn -1.0000 -0.0000 -0.0000
vt 0.000000 0.000000
s 0
f 1/1/1 3/1/1 4/1/1 2/1/1
f 5/1/2 6/1/2 8/1/2 7/1/2
f 3/1/3 7/1/3 8/1/3 4/1/3
f 1/1/4 5/1/4 7/1/4 3/1/4
f 4/1/5 8/1/5 6/1/5 2/1/5
f 2/1/6 6/1/6 5/1/6 1/1/6
