# Blender 5.1.2
# www.blender.org
mtllib PanopticonBridge.mtl
o PanopticonBridge.001
v 0.000000 -0.000000 9.494456
v 4.747228 -0.000000 8.222440
v 8.222440 -0.000000 4.747228
v 8.222423 -0.000000 0.000000
v 8.222440 -0.000000 -4.747228
v 4.747228 -0.000000 -8.222440
v 0.000000 -0.000000 -9.494456
v 0.000000 -1.003107 9.494456
v 4.747228 -1.003107 8.222440
v 8.222440 -1.003107 4.747228
v 8.222423 -1.003107 0.000000
v 8.222440 -1.003107 -4.747228
v 4.747228 -1.003107 -8.222440
v 0.000000 -1.003107 -9.494456
v 31.540846 -0.000000 0.000000
v 31.540846 -0.000000 4.747228
v 31.540846 -0.000000 -4.747228
v 31.540846 -1.003107 0.000000
v 31.540846 -1.003107 4.747228
v 31.540846 -1.003107 -4.747228
v 4.747228 -0.000000 0.000000
v 0.000000 -0.000000 0.000000
v 4.747228 -1.003107 0.000000
v 0.000000 -1.003107 0.000000
v 8.354242 -0.000000 0.000000
v 8.354260 -0.000000 4.584671
v 8.354260 -0.000000 -4.584671
v 8.354242 -1.003107 0.000000
v 8.354260 -1.003107 4.584671
v 8.354260 -1.003107 -4.584671
v 31.409027 -0.000000 -4.584671
v 31.409027 -0.000000 0.000000
v 31.409027 -0.000000 4.584671
v 31.409027 -1.003107 0.000000
v 31.409027 -1.003107 4.584671
v 31.409027 -1.003107 -4.584671
v -4.747228 -0.000000 8.222440
v -8.222440 -0.000000 4.747228
v -8.222423 -0.000000 0.000000
v -8.222440 -0.000000 -4.747228
v -4.747228 -0.000000 -8.222440
v -4.747228 -1.003107 8.222440
v -8.222440 -1.003107 4.747228
v -8.222423 -1.003107 0.000000
v -8.222440 -1.003107 -4.747228
v -4.747228 -1.003107 -8.222440
v -31.540846 -0.000000 0.000000
v -31.540846 -0.000000 4.747228
v -31.540846 -0.000000 -4.747228
v -31.540846 -1.003107 0.000000
v -31.540846 -1.003107 4.747228
v -31.540846 -1.003107 -4.747228
v -4.747228 -0.000000 0.000000
v -4.747228 -1.003107 0.000000
v -8.354242 -0.000000 0.000000
v -8.354260 -0.000000 4.584671
v -8.354260 -0.000000 -4.584671
v -8.354242 -1.003107 0.000000
v -8.354260 -1.003107 4.584671
v -8.354260 -1.003107 -4.584671
v -31.409027 -0.000000 -4.584671
v -31.409027 -0.000000 0.000000
v -31.409027 -0.000000 4.584671
v -31.409027 -1.003107 0.000000
v -31.409027 -1.003107 4.584671
v -31.409027 -1.003107 -4.584671
v 31.540855 -1.003107 4.747228
v 31.540855 -0.000000 4.747228
v 31.540855 -1.003107 5.247177
v 31.540855 -0.000000 5.247177
v 8.222436 -1.003107 4.747228
v 8.222436 -0.000000 4.747228
v 7.713077 -1.003107 5.247177
v 7.713077 -0.000000 5.247177
v 31.540855 0.304383 4.747228
v 31.540855 0.304383 5.247177
v 7.713077 0.304383 5.247177
v 8.222436 0.304383 4.747228
v 31.540855 -1.503179 5.247177
v 31.540855 -1.503179 4.747228
v 7.713077 -1.503179 5.247177
v 8.222436 -1.503179 4.747228
v -31.540747 -1.003107 4.747228
v -31.540747 -0.000000 4.747228
v -31.540747 -1.003107 5.247177
v -31.540747 -0.000000 5.247177
v -8.222327 -1.003107 4.747228
v -8.222327 -0.000000 4.747228
v -7.712968 -1.003107 5.247177
v -7.712968 -0.000000 5.247177
v -31.540747 0.304383 4.747228
v -31.540747 0.304383 5.247177
v -7.712968 0.304383 5.247177
v -8.222327 0.304383 4.747228
v -31.540747 -1.503179 5.247177
v -31.540747 -1.503179 4.747228
v -7.712968 -1.503179 5.247177
v -8.222327 -1.503179 4.747228
v 31.540855 -1.003107 -4.747228
v 31.540855 -0.000000 -4.747228
v 31.540855 -1.003107 -5.247177
v 31.540855 -0.000000 -5.247177
v 8.222436 -1.003107 -4.747228
v 8.222436 -0.000000 -4.747228
v 7.713077 -1.003107 -5.247177
v 7.713077 -0.000000 -5.247177
v 31.540855 0.304383 -4.747228
v 31.540855 0.304383 -5.247177
v 7.713077 0.304383 -5.247177
v 8.222436 0.304383 -4.747228
v 31.540855 -1.503179 -5.247177
v 31.540855 -1.503179 -4.747228
v 7.713077 -1.503179 -5.247177
v 8.222436 -1.503179 -4.747228
v -31.540747 -1.003107 -4.747228
v -31.540747 -0.000000 -4.747228
v -31.540747 -1.003107 -5.247177
v -31.540747 -0.000000 -5.247177
v -8.222327 -1.003107 -4.747228
v -8.222327 -0.000000 -4.747228
v -7.712968 -1.003107 -5.247177
v -7.712968 -0.000000 -5.247177
v -31.540747 0.304383 -4.747228
v -31.540747 0.304383 -5.247177
v -7.712968 0.304383 -5.247177
v -8.222327 0.304383 -4.747228
v -31.540747 -1.503179 -5.247177
v -31.540747 -1.503179 -4.747228
v -7.712968 -1.503179 -5.247177
v -8.222327 -1.503179 -4.747228
v 31.540854 -1.030980 5.247177
v 31.540854 -0.020061 5.247177
v 31.540854 -1.030980 5.441677
v 31.540854 -0.020061 5.441677
v 31.390972 -1.030980 5.247177
v 31.390972 -0.020061 5.247177
v 31.390972 -1.030980 5.441677
v 31.390972 -0.020061 5.441677
v 31.540854 -0.020061 6.919900
v 31.540854 -0.401459 6.919900
v 31.390972 -0.401459 6.919900
v 31.390972 -0.020061 6.919900
v 27.594677 -1.030980 5.247177
v 27.594677 -0.020061 5.247177
v 27.594677 -1.030980 5.441677
v 27.594677 -0.020061 5.441677
v 27.444798 -1.030980 5.247177
v 27.444798 -0.020061 5.247177
v 27.444798 -1.030980 5.441677
v 27.444798 -0.020061 5.441677
v 27.594677 -0.020061 6.919900
v 27.594677 -0.401459 6.919900
v 27.444798 -0.401459 6.919900
v 27.444798 -0.020061 6.919900
v 23.648500 -1.030980 5.247177
v 23.648500 -0.020061 5.247177
v 23.648500 -1.030980 5.441677
v 23.648500 -0.020061 5.441677
v 23.498623 -1.030980 5.247177
v 23.498623 -0.020061 5.247177
v 23.498623 -1.030980 5.441677
v 23.498623 -0.020061 5.441677
v 23.648500 -0.020061 6.919900
v 23.648500 -0.401459 6.919900
v 23.498623 -0.401459 6.919900
v 23.498623 -0.020061 6.919900
v 19.702324 -1.030980 5.247177
v 19.702324 -0.020061 5.247177
v 19.702324 -1.030980 5.441677
v 19.702324 -0.020061 5.441677
v 19.552443 -1.030980 5.247177
v 19.552443 -0.020061 5.247177
v 19.552443 -1.030980 5.441677
v 19.552443 -0.020061 5.441677
v 19.702324 -0.020061 6.919900
v 19.702324 -0.401459 6.919900
v 19.552443 -0.401459 6.919900
v 19.552443 -0.020061 6.919900
v 15.756148 -1.030980 5.247177
v 15.756148 -0.020061 5.247177
v 15.756148 -1.030980 5.441677
v 15.756148 -0.020061 5.441677
v 15.606269 -1.030980 5.247177
v 15.606269 -0.020061 5.247177
v 15.606269 -1.030980 5.441677
v 15.606269 -0.020061 5.441677
v 15.756148 -0.020061 6.919900
v 15.756148 -0.401459 6.919900
v 15.606269 -0.401459 6.919900
v 15.606269 -0.020061 6.919900
v 11.809972 -1.030980 5.247177
v 11.809972 -0.020061 5.247177
v 11.809972 -1.030980 5.441677
v 11.809972 -0.020061 5.441677
v 11.660092 -1.030980 5.247177
v 11.660092 -0.020061 5.247177
v 11.660092 -1.030980 5.441677
v 11.660092 -0.020061 5.441677
v 11.809972 -0.020061 6.919900
v 11.809972 -0.401459 6.919900
v 11.660092 -0.401459 6.919900
v 11.660092 -0.020061 6.919900
v 7.863795 -1.030980 5.247177
v 7.863795 -0.020061 5.247177
v 7.863795 -1.030980 5.441677
v 7.863795 -0.020061 5.441677
v 7.713916 -1.030980 5.247177
v 7.713916 -0.020061 5.247177
v 7.713916 -1.030980 5.441677
v 7.713916 -0.020061 5.441677
v 7.863795 -0.020061 6.919900
v 7.863795 -0.401459 6.919900
v 7.713916 -0.401459 6.919900
v 7.713916 -0.020061 6.919900
v -31.540863 -1.030980 5.247177
v -31.540863 -0.020061 5.247177
v -31.540863 -1.030980 5.441677
v -31.540863 -0.020061 5.441677
v -31.390982 -1.030980 5.247177
v -31.390982 -0.020061 5.247177
v -31.390982 -1.030980 5.441677
v -31.390982 -0.020061 5.441677
v -31.540863 -0.020061 6.919900
v -31.540863 -0.401459 6.919900
v -31.390982 -0.401459 6.919900
v -31.390982 -0.020061 6.919900
v -27.594685 -1.030980 5.247177
v -27.594685 -0.020061 5.247177
v -27.594685 -1.030980 5.441677
v -27.594685 -0.020061 5.441677
v -27.444807 -1.030980 5.247177
v -27.444807 -0.020061 5.247177
v -27.444807 -1.030980 5.441677
v -27.444807 -0.020061 5.441677
v -27.594685 -0.020061 6.919900
v -27.594685 -0.401459 6.919900
v -27.444807 -0.401459 6.919900
v -27.444807 -0.020061 6.919900
v -23.648510 -1.030980 5.247177
v -23.648510 -0.020061 5.247177
v -23.648510 -1.030980 5.441677
v -23.648510 -0.020061 5.441677
v -23.498631 -1.030980 5.247177
v -23.498631 -0.020061 5.247177
v -23.498631 -1.030980 5.441677
v -23.498631 -0.020061 5.441677
v -23.648510 -0.020061 6.919900
v -23.648510 -0.401459 6.919900
v -23.498631 -0.401459 6.919900
v -23.498631 -0.020061 6.919900
v -19.702333 -1.030980 5.247177
v -19.702333 -0.020061 5.247177
v -19.702333 -1.030980 5.441677
v -19.702333 -0.020061 5.441677
v -19.552452 -1.030980 5.247177
v -19.552452 -0.020061 5.247177
v -19.552452 -1.030980 5.441677
v -19.552452 -0.020061 5.441677
v -19.702333 -0.020061 6.919900
v -19.702333 -0.401459 6.919900
v -19.552452 -0.401459 6.919900
v -19.552452 -0.020061 6.919900
v -15.756158 -1.030980 5.247177
v -15.756158 -0.020061 5.247177
v -15.756158 -1.030980 5.441677
v -15.756158 -0.020061 5.441677
v -15.606277 -1.030980 5.247177
v -15.606277 -0.020061 5.247177
v -15.606277 -1.030980 5.441677
v -15.606277 -0.020061 5.441677
v -15.756158 -0.020061 6.919900
v -15.756158 -0.401459 6.919900
v -15.606277 -0.401459 6.919900
v -15.606277 -0.020061 6.919900
v -11.809980 -1.030980 5.247177
v -11.809980 -0.020061 5.247177
v -11.809980 -1.030980 5.441677
v -11.809980 -0.020061 5.441677
v -11.660102 -1.030980 5.247177
v -11.660102 -0.020061 5.247177
v -11.660102 -1.030980 5.441677
v -11.660102 -0.020061 5.441677
v -11.809980 -0.020061 6.919900
v -11.809980 -0.401459 6.919900
v -11.660102 -0.401459 6.919900
v -11.660102 -0.020061 6.919900
v -7.863804 -1.030980 5.247177
v -7.863804 -0.020061 5.247177
v -7.863804 -1.030980 5.441677
v -7.863804 -0.020061 5.441677
v -7.713925 -1.030980 5.247177
v -7.713925 -0.020061 5.247177
v -7.713925 -1.030980 5.441677
v -7.713925 -0.020061 5.441677
v -7.863804 -0.020061 6.919900
v -7.863804 -0.401459 6.919900
v -7.713925 -0.401459 6.919900
v -7.713925 -0.020061 6.919900
v 31.540854 -1.030980 -5.247177
v 31.540854 -0.020061 -5.247177
v 31.540854 -1.030980 -5.441677
v 31.540854 -0.020061 -5.441677
v 31.390972 -1.030980 -5.247177
v 31.390972 -0.020061 -5.247177
v 31.390972 -1.030980 -5.441677
v 31.390972 -0.020061 -5.441677
v 31.540854 -0.020061 -6.919900
v 31.540854 -0.401459 -6.919900
v 31.390972 -0.401459 -6.919900
v 31.390972 -0.020061 -6.919900
v 27.594677 -1.030980 -5.247177
v 27.594677 -0.020061 -5.247177
v 27.594677 -1.030980 -5.441677
v 27.594677 -0.020061 -5.441677
v 27.444798 -1.030980 -5.247177
v 27.444798 -0.020061 -5.247177
v 27.444798 -1.030980 -5.441677
v 27.444798 -0.020061 -5.441677
v 27.594677 -0.020061 -6.919900
v 27.594677 -0.401459 -6.919900
v 27.444798 -0.401459 -6.919900
v 27.444798 -0.020061 -6.919900
v 23.648500 -1.030980 -5.247177
v 23.648500 -0.020061 -5.247177
v 23.648500 -1.030980 -5.441677
v 23.648500 -0.020061 -5.441677
v 23.498623 -1.030980 -5.247177
v 23.498623 -0.020061 -5.247177
v 23.498623 -1.030980 -5.441677
v 23.498623 -0.020061 -5.441677
v 23.648500 -0.020061 -6.919900
v 23.648500 -0.401459 -6.919900
v 23.498623 -0.401459 -6.919900
v 23.498623 -0.020061 -6.919900
v 19.702324 -1.030980 -5.247177
v 19.702324 -0.020061 -5.247177
v 19.702324 -1.030980 -5.441677
v 19.702324 -0.020061 -5.441677
v 19.552443 -1.030980 -5.247177
v 19.552443 -0.020061 -5.247177
v 19.552443 -1.030980 -5.441677
v 19.552443 -0.020061 -5.441677
v 19.702324 -0.020061 -6.919900
v 19.702324 -0.401459 -6.919900
v 19.552443 -0.401459 -6.919900
v 19.552443 -0.020061 -6.919900
v 15.756148 -1.030980 -5.247177
v 15.756148 -0.020061 -5.247177
v 15.756148 -1.030980 -5.441677
v 15.756148 -0.020061 -5.441677
v 15.606269 -1.030980 -5.247177
v 15.606269 -0.020061 -5.247177
v 15.606269 -1.030980 -5.441677
v 15.606269 -0.020061 -5.441677
v 15.756148 -0.020061 -6.919900
v 15.756148 -0.401459 -6.919900
v 15.606269 -0.401459 -6.919900
v 15.606269 -0.020061 -6.919900
v 11.809972 -1.030980 -5.247177
v 11.809972 -0.020061 -5.247177
v 11.809972 -1.030980 -5.441677
v 11.809972 -0.020061 -5.441677
v 11.660092 -1.030980 -5.247177
v 11.660092 -0.020061 -5.247177
v 11.660092 -1.030980 -5.441677
v 11.660092 -0.020061 -5.441677
v 11.809972 -0.020061 -6.919900
v 11.809972 -0.401459 -6.919900
v 11.660092 -0.401459 -6.919900
v 11.660092 -0.020061 -6.919900
v 7.863795 -1.030980 -5.247177
v 7.863795 -0.020061 -5.247177
v 7.863795 -1.030980 -5.441677
v 7.863795 -0.020061 -5.441677
v 7.713916 -1.030980 -5.247177
v 7.713916 -0.020061 -5.247177
v 7.713916 -1.030980 -5.441677
v 7.713916 -0.020061 -5.441677
v 7.863795 -0.020061 -6.919900
v 7.863795 -0.401459 -6.919900
v 7.713916 -0.401459 -6.919900
v 7.713916 -0.020061 -6.919900
v -31.540863 -1.030980 -5.247177
v -31.540863 -0.020061 -5.247177
v -31.540863 -1.030980 -5.441677
v -31.540863 -0.020061 -5.441677
v -31.390982 -1.030980 -5.247177
v -31.390982 -0.020061 -5.247177
v -31.390982 -1.030980 -5.441677
v -31.390982 -0.020061 -5.441677
v -31.540863 -0.020061 -6.919900
v -31.540863 -0.401459 -6.919900
v -31.390982 -0.401459 -6.919900
v -31.390982 -0.020061 -6.919900
v -27.594685 -1.030980 -5.247177
v -27.594685 -0.020061 -5.247177
v -27.594685 -1.030980 -5.441677
v -27.594685 -0.020061 -5.441677
v -27.444807 -1.030980 -5.247177
v -27.444807 -0.020061 -5.247177
v -27.444807 -1.030980 -5.441677
v -27.444807 -0.020061 -5.441677
v -27.594685 -0.020061 -6.919900
v -27.594685 -0.401459 -6.919900
v -27.444807 -0.401459 -6.919900
v -27.444807 -0.020061 -6.919900
v -23.648510 -1.030980 -5.247177
v -23.648510 -0.020061 -5.247177
v -23.648510 -1.030980 -5.441677
v -23.648510 -0.020061 -5.441677
v -23.498631 -1.030980 -5.247177
v -23.498631 -0.020061 -5.247177
v -23.498631 -1.030980 -5.441677
v -23.498631 -0.020061 -5.441677
v -23.648510 -0.020061 -6.919900
v -23.648510 -0.401459 -6.919900
v -23.498631 -0.401459 -6.919900
v -23.498631 -0.020061 -6.919900
v -19.702333 -1.030980 -5.247177
v -19.702333 -0.020061 -5.247177
v -19.702333 -1.030980 -5.441677
v -19.702333 -0.020061 -5.441677
v -19.552452 -1.030980 -5.247177
v -19.552452 -0.020061 -5.247177
v -19.552452 -1.030980 -5.441677
v -19.552452 -0.020061 -5.441677
v -19.702333 -0.020061 -6.919900
v -19.702333 -0.401459 -6.919900
v -19.552452 -0.401459 -6.919900
v -19.552452 -0.020061 -6.919900
v -15.756158 -1.030980 -5.247177
v -15.756158 -0.020061 -5.247177
v -15.756158 -1.030980 -5.441677
v -15.756158 -0.020061 -5.441677
v -15.606277 -1.030980 -5.247177
v -15.606277 -0.020061 -5.247177
v -15.606277 -1.030980 -5.441677
v -15.606277 -0.020061 -5.441677
v -15.756158 -0.020061 -6.919900
v -15.756158 -0.401459 -6.919900
v -15.606277 -0.401459 -6.919900
v -15.606277 -0.020061 -6.919900
v -11.809980 -1.030980 -5.247177
v -11.809980 -0.020061 -5.247177
v -11.809980 -1.030980 -5.441677
v -11.809980 -0.020061 -5.441677
v -11.660102 -1.030980 -5.247177
v -11.660102 -0.020061 -5.247177
v -11.660102 -1.030980 -5.441677
v -11.660102 -0.020061 -5.441677
v -11.809980 -0.020061 -6.919900
v -11.809980 -0.401459 -6.919900
v -11.660102 -0.401459 -6.919900
v -11.660102 -0.020061 -6.919900
v -7.863804 -1.030980 -5.247177
v -7.863804 -0.020061 -5.247177
v -7.863804 -1.030980 -5.441677
v -7.863804 -0.020061 -5.441677
v -7.713925 -1.030980 -5.247177
v -7.713925 -0.020061 -5.247177
v -7.713925 -1.030980 -5.441677
v -7.713925 -0.020061 -5.441677
v -7.863804 -0.020061 -6.919900
v -7.863804 -0.401459 -6.919900
v -7.713925 -0.401459 -6.919900
v -7.713925 -0.020061 -6.919900
v 31.540855 -0.323206 6.520187
v 31.540855 -0.273134 6.468938
v 31.540855 -0.201489 6.468107
v 31.540855 -0.150240 6.518180
v 31.540855 -0.271127 6.641904
v 31.540855 -0.322375 6.591832
v 31.540855 -0.149409 6.589825
v 31.540855 -0.199482 6.641073
v 7.863791 -0.149409 6.589811
v 7.863791 -0.271127 6.641890
v 7.863791 -0.199482 6.641059
v 7.863791 -0.150240 6.518166
v 7.863791 -0.322375 6.591817
v 7.863791 -0.201489 6.468093
v 7.863791 -0.273134 6.468925
v 7.863791 -0.323206 6.520173
v -31.540869 -0.323206 6.520187
v -31.540869 -0.273134 6.468938
v -31.540869 -0.201489 6.468107
v -31.540869 -0.150240 6.518180
v -31.540869 -0.271127 6.641904
v -31.540869 -0.322375 6.591832
v -31.540869 -0.149409 6.589825
v -31.540869 -0.199482 6.641073
v -7.863837 -0.149409 6.589811
v -7.863837 -0.271127 6.641890
v -7.863837 -0.199482 6.641059
v -7.863837 -0.150240 6.518166
v -7.863837 -0.322375 6.591817
v -7.863837 -0.201489 6.468093
v -7.863837 -0.273134 6.468925
v -7.863837 -0.323206 6.520173
v 31.540855 -0.323206 -6.520187
v 31.540855 -0.273134 -6.468938
v 31.540855 -0.201489 -6.468107
v 31.540855 -0.150240 -6.518180
v 31.540855 -0.271127 -6.641904
v 31.540855 -0.322375 -6.591832
v 31.540855 -0.149409 -6.589825
v 31.540855 -0.199482 -6.641073
v 7.863791 -0.149409 -6.589811
v 7.863791 -0.271127 -6.641890
v 7.863791 -0.199482 -6.641059
v 7.863791 -0.150240 -6.518166
v 7.863791 -0.322375 -6.591817
v 7.863791 -0.201489 -6.468093
v 7.863791 -0.273134 -6.468925
v 7.863791 -0.323206 -6.520173
v -31.540869 -0.323206 -6.520187
v -31.540869 -0.273134 -6.468938
v -31.540869 -0.201489 -6.468107
v -31.540869 -0.150240 -6.518180
v -31.540869 -0.271127 -6.641904
v -31.540869 -0.322375 -6.591832
v -31.540869 -0.149409 -6.589825
v -31.540869 -0.199482 -6.641073
v -7.863837 -0.149409 -6.589811
v -7.863837 -0.271127 -6.641890
v -7.863837 -0.199482 -6.641059
v -7.863837 -0.150240 -6.518166
v -7.863837 -0.322375 -6.591817
v -7.863837 -0.201489 -6.468093
v -7.863837 -0.273134 -6.468925
v -7.863837 -0.323206 -6.520173
v 4.307271 -0.000002 -4.238802
v 4.307271 -0.000000 4.238802
v -4.307266 -0.000000 4.238802
v -4.307266 -0.000000 -4.238802
v 4.307271 5.942122 -4.238802
v 4.307271 5.942123 4.238802
v -4.307266 5.942123 4.238802
v -4.307266 5.942123 -4.238802
v -4.307266 -0.000000 2.990041
v -4.307266 -0.000000 -2.990041
v 4.307271 -0.000001 -2.990041
v 4.307271 -0.000001 2.990041
v -4.307266 5.942123 2.990041
v -4.307266 5.942123 -2.990041
v 4.307271 5.942122 -2.990041
v 4.307271 5.942123 2.990041
v 3.908264 -0.000002 -3.908254
v 3.908264 -0.000000 3.908254
v -3.908245 -0.000000 3.908254
v -3.908245 -0.000000 -3.908254
v 3.908246 5.942122 -3.908254
v 3.908246 5.942123 3.908254
v -3.908254 5.942123 3.908254
v -3.908254 5.942123 -3.908254
v -3.908245 -0.000000 2.990041
v -3.908245 -0.000000 -2.990041
v 3.908264 -0.000001 -2.990041
v 3.908264 -0.000001 2.990041
v -3.908254 5.942123 2.990041
v -3.908254 5.942123 -2.990041
v 3.908246 5.942122 -2.990041
v 3.908246 5.942123 2.990041
v 4.307271 6.132804 4.238802
v -4.307266 6.132804 4.238802
v -4.307266 6.132804 -4.238802
v -4.307266 6.132804 2.990041
v -4.307266 6.132804 -2.990041
v 4.307271 6.132803 -2.990041
v 4.307271 6.132804 2.990041
v 4.307271 6.132803 -4.238802
v 3.908246 6.132804 3.908254
v -3.908254 6.132804 3.908254
v -3.908254 6.132804 -3.908254
v -3.908254 6.132804 2.990041
v -3.908254 6.132804 -2.990041
v 3.908246 6.132803 -2.990041
v 3.908246 6.132804 2.990041
v 3.908246 6.132803 -3.908254
v 2.585722 -0.000000 4.238802
v -2.585639 -0.000000 4.238802
v 2.585722 5.942123 4.238802
v -2.585639 5.942123 4.238802
v 2.585722 -0.000000 3.908254
v -2.585639 -0.000000 3.908254
v 2.585722 5.942123 3.908254
v -2.585639 5.942123 3.908254
v 2.585722 6.132804 4.238802
v -2.585639 6.132804 4.238802
v -2.585639 6.132804 3.908254
v 2.585722 6.132804 3.908254
v -2.585639 -0.000001 -4.238802
v 2.585722 -0.000002 -4.238802
v -2.585639 5.942122 -4.238802
v 2.585722 5.942122 -4.238802
v -2.585639 -0.000001 -3.908254
v 2.585722 -0.000002 -3.908254
v -2.585639 5.942122 -3.908254
v 2.585722 5.942122 -3.908254
v -2.585639 6.132804 -4.238802
v 2.585722 6.132803 -4.238802
v 2.585722 6.132803 -3.908254
v -2.585639 6.132803 -3.908254
v -0.000019 -3.540307 7.202339
v 3.601150 -3.540307 6.237409
v 5.495602 -3.540307 3.172899
v 7.202320 -3.540307 0.000000
v 5.495602 -3.540307 -3.172899
v 3.601150 -3.540307 -6.237409
v -0.000019 -3.540307 -7.202339
v -0.000019 -4.352733 7.689653
v 3.844807 -4.352733 6.659435
v 6.659415 -4.352733 3.844826
v 7.689633 -4.352733 0.000000
v 6.659415 -4.352733 -3.844826
v 3.844807 -4.352733 -6.659435
v -0.000019 -4.352733 -7.689653
v 3.844807 -3.540307 0.000000
v -0.000019 -3.540307 0.000000
v 3.844807 -4.352733 0.000000
v -0.000019 -4.352733 0.000000
v -3.601189 -3.540307 6.237409
v -5.495641 -3.540307 3.172899
v -7.202358 -3.540307 0.000000
v -5.495641 -3.540307 -3.172899
v -3.601189 -3.540307 -6.237409
v -3.844846 -4.352733 6.659435
v -6.659454 -4.352733 3.844826
v -7.689672 -4.352733 0.000000
v -6.659454 -4.352733 -3.844826
v -3.844846 -4.352733 -6.659435
v -3.844846 -3.540307 0.000000
v -3.844846 -4.352733 0.000000
v -0.000019 6.945230 7.689653
v 3.844807 6.945230 6.659435
v 6.659415 6.945230 3.844826
v 7.689633 6.945230 0.000000
v 6.659415 6.945230 -3.844826
v 3.844807 6.945230 -6.659435
v -0.000019 6.945230 -7.689653
v -0.000019 6.132804 7.202339
v 3.601150 6.132804 6.237409
v 5.495602 6.132804 3.172899
v 7.202320 6.132804 0.000000
v 5.495602 6.132804 -3.172899
v 3.601150 6.132804 -6.237409
v -0.000019 6.132804 -7.202339
v 3.844807 6.945230 0.000000
v -0.000019 6.945230 0.000000
v 3.844807 6.132804 0.000000
v -0.000019 6.132804 0.000000
v -3.844846 6.945230 6.659435
v -6.659454 6.945230 3.844826
v -7.689672 6.945230 0.000000
v -6.659454 6.945230 -3.844826
v -3.844846 6.945230 -6.659435
v -3.601189 6.132804 6.237409
v -5.495641 6.132804 3.172899
v -7.202358 6.132804 0.000000
v -5.495641 6.132804 -3.172899
v -3.601189 6.132804 -6.237409
v -3.844846 6.945230 0.000000
v -3.844846 6.132804 0.000000
v 3.844807 -3.540307 6.659435
v -0.000019 -3.540307 7.689653
v 6.659415 -3.540307 3.844826
v 7.689633 -3.540307 0.000000
v 6.659415 -3.540307 -3.844826
v 3.844807 -3.540307 -6.659435
v -0.000019 -3.540307 -7.689653
v -3.844846 -3.540307 6.659435
v -6.659454 -3.540307 3.844826
v -7.689672 -3.540307 0.000000
v -6.659454 -3.540307 -3.844826
v -3.844846 -3.540307 -6.659435
v 3.844807 6.132804 6.659435
v -0.000019 6.132804 7.689653
v 6.659415 6.132804 3.844826
v 7.689633 6.132804 0.000000
v 6.659415 6.132804 -3.844826
v 3.844807 6.132804 -6.659435
v -0.000019 6.132804 -7.689653
v -3.844846 6.132804 6.659435
v -6.659454 6.132804 3.844826
v -7.689672 6.132804 0.000000
v -6.659454 6.132804 -3.844826
v -3.844846 6.132804 -6.659435
v 3.172879 -3.540307 5.495621
v -0.000019 -3.540307 6.345798
v 6.237389 -3.540307 3.601169
v 6.345778 -3.540307 0.000000
v 6.237389 -3.540307 -3.601169
v 3.172879 -3.540307 -5.495621
v -0.000019 -3.540307 -6.345798
v -3.172918 -3.540307 5.495621
v -6.237428 -3.540307 3.601169
v -6.345817 -3.540307 0.000000
v -6.237428 -3.540307 -3.601169
v -3.172918 -3.540307 -5.495621
v 3.172879 6.132804 5.495621
v -0.000019 6.132804 6.345798
v 6.237389 6.132804 3.601169
v 6.345778 6.132804 0.000000
v 6.237389 6.132804 -3.601169
v 3.172879 6.132804 -5.495621
v -0.000019 6.132804 -6.345798
v -3.172918 6.132804 5.495621
v -6.237428 6.132804 3.601169
v -6.345817 6.132804 0.000000
v -6.237428 6.132804 -3.601169
v -3.172918 6.132804 -5.495621
v 6.237389 -1.003107 3.601169
v 3.601150 -1.003107 6.237409
v 5.495602 -1.003107 3.172899
v 3.172879 -1.003107 5.495621
v -6.237428 -1.003107 3.601169
v -3.601189 -1.003107 6.237409
v -5.495641 -1.003107 3.172899
v -3.172918 -1.003107 5.495621
v 3.601150 -1.003107 -6.237409
v 6.237389 -1.003107 -3.601169
v 3.172879 -1.003107 -5.495621
v 5.495602 -1.003107 -3.172899
v -6.237428 -1.003107 -3.601169
v -3.601189 -1.003107 -6.237409
v -5.495641 -1.003107 -3.172899
v -3.172918 -1.003107 -5.495621
v 6.237389 0.000001 3.601169
v 3.601150 0.000001 6.237409
v 5.495602 0.000001 3.172899
v 3.172879 0.000001 5.495621
v -6.237428 0.000001 -3.601169
v -3.601189 0.000001 -6.237409
v -5.495641 0.000001 -3.172899
v -3.172918 0.000001 -5.495621
v -6.237428 0.000001 3.601169
v -3.601189 0.000001 6.237409
v -5.495641 0.000001 3.172899
v -3.172918 0.000001 5.495621
v 3.601150 0.000001 -6.237409
v 6.237389 0.000001 -3.601169
v 3.172879 0.000001 -5.495621
v 5.495602 0.000001 -3.172899
v 4.792614 8.134423 -4.792615
v 4.792615 8.134423 4.792614
v -4.792615 8.134423 -4.792614
v -4.792614 8.134423 4.792615
v 0.000000 8.134423 6.777781
v -0.000000 8.134423 -6.777781
v 6.777781 8.134423 -0.000000
v -6.777781 8.134423 0.000000
v 0.000000 8.134423 0.000000
v -2.593744 8.134423 6.261854
v -2.593745 8.134423 -6.261853
v -2.943075 8.134423 0.000000
v 2.593744 8.134423 -6.261854
v 2.593745 8.134423 6.261853
v 2.943075 8.134423 0.000000
v -6.261854 8.134423 -2.593744
v 0.000000 8.134423 -2.943075
v 6.261853 8.134423 -2.593745
v -2.943075 8.134423 -2.943075
v 2.943075 8.134423 -2.943075
v 6.261854 8.134423 2.593744
v -6.261853 8.134423 2.593745
v 0.000000 8.134423 2.943075
v -2.943075 8.134423 2.943075
v 2.943075 8.134423 2.943075
v -1.322280 8.134423 -6.647548
v -1.322279 8.134423 6.647548
v -1.471538 8.134423 0.000000
v -1.471538 8.134423 -2.943075
v -1.471538 8.134423 2.943075
v -3.765533 8.134423 5.635519
v -4.414613 8.134423 0.000000
v -3.765533 8.134423 -5.635519
v -4.414613 8.134423 -2.943075
v -4.414613 8.134423 2.943075
v 1.322280 8.134423 6.647548
v 1.471538 8.134423 0.000000
v 1.322279 8.134423 -6.647548
v 1.471538 8.134423 -2.943075
v 1.471538 8.134423 2.943075
v 3.765533 8.134423 -5.635519
v 3.765533 8.134423 5.635519
v 4.414613 8.134423 0.000000
v 4.414613 8.134423 -2.943075
v 4.414613 8.134423 2.943075
v 6.647548 8.134423 -1.322280
v -6.647548 8.134423 -1.322279
v 0.000000 8.134423 -1.471538
v -2.943075 8.134423 -1.471538
v 2.943075 8.134423 -1.471538
v -1.471538 8.134423 -1.471538
v -4.414613 8.134423 -1.471538
v 1.471538 8.134423 -1.471538
v 4.414613 8.134423 -1.471538
v -5.635519 8.134423 -3.765533
v 0.000000 8.134423 -4.414613
v -2.943075 8.134423 -4.414613
v 2.943075 8.134423 -4.414613
v 5.635519 8.134423 -3.765533
v -1.471538 8.134423 -4.414613
v -4.414613 8.134423 -4.414613
v 1.471538 8.134423 -4.414613
v 4.414613 8.134423 -4.414613
v -6.647548 8.134423 1.322280
v 0.000000 8.134423 1.471538
v -2.943075 8.134423 1.471538
v 2.943075 8.134423 1.471538
v 6.647548 8.134423 1.322279
v -1.471538 8.134423 1.471538
v -4.414613 8.134423 1.471538
v 1.471538 8.134423 1.471538
v 4.414613 8.134423 1.471538
v 5.635519 8.134423 3.765533
v -5.635519 8.134423 3.765533
v 0.000000 8.134423 4.414613
v -2.943075 8.134423 4.414613
v 2.943075 8.134423 4.414613
v -1.471538 8.134423 4.414613
v -4.414613 8.134423 4.414613
v 1.471538 8.134423 4.414613
v 4.414613 8.134423 4.414613
v 5.635519 6.945231 3.765533
v 4.792615 6.945231 4.792614
v -3.765533 6.945231 5.635519
v -4.792614 6.945231 4.792615
v -5.635519 6.945231 -3.765533
v -4.792615 6.945231 -4.792614
v 3.765533 6.945231 -5.635519
v 4.792614 6.945231 -4.792615
v 1.322280 6.945231 6.647548
v 0.000000 6.945231 6.777781
v -1.322280 6.945231 -6.647548
v -0.000000 6.945231 -6.777781
v 0.000000 6.945231 -4.414613
v 6.647548 6.945231 -1.322280
v 6.777781 6.945231 -0.000000
v -6.647548 6.945231 1.322280
v -6.777781 6.945231 0.000000
v 0.000000 6.945231 1.471538
v 0.000000 6.945231 0.000000
v -4.414613 6.945231 0.000000
v 1.471538 6.945231 0.000000
v -1.322279 6.945231 6.647548
v -2.593744 6.945231 6.261854
v -3.765533 6.945231 -5.635519
v -2.593745 6.945231 -6.261853
v -1.471538 6.945231 0.000000
v -2.943075 6.945231 0.000000
v -2.943075 6.945231 1.471538
v -2.943075 6.945231 -4.414613
v 1.322279 6.945231 -6.647548
v 2.593744 6.945231 -6.261854
v 3.765533 6.945231 5.635519
v 2.593745 6.945231 6.261853
v 4.414613 6.945231 0.000000
v 2.943075 6.945231 0.000000
v 2.943075 6.945231 1.471538
v 2.943075 6.945231 -4.414613
v -6.647548 6.945231 -1.322279
v -6.261854 6.945231 -2.593744
v 0.000000 6.945231 -1.471538
v 0.000000 6.945231 -2.943075
v 5.635519 6.945231 -3.765533
v 6.261853 6.945231 -2.593745
v -2.943075 6.945231 -1.471538
v -2.943075 6.945231 -2.943075
v 2.943075 6.945231 -1.471538
v 2.943075 6.945231 -2.943075
v 1.471538 6.945231 -2.943075
v -4.414613 6.945231 -2.943075
v -1.471538 6.945231 -2.943075
v 4.414613 6.945231 -2.943075
v 6.647548 6.945231 1.322279
v 6.261854 6.945231 2.593744
v -5.635519 6.945231 3.765533
v -6.261853 6.945231 2.593745
v 0.000000 6.945231 4.414613
v 0.000000 6.945231 2.943075
v -2.943075 6.945231 4.414613
v -2.943075 6.945231 2.943075
v 2.943075 6.945231 4.414613
v 2.943075 6.945231 2.943075
v 1.471538 6.945231 2.943075
v -4.414613 6.945231 2.943075
v 4.414613 6.945231 2.943075
v -1.471538 6.945231 2.943075
v -1.471538 6.945231 4.414613
v -1.471538 6.945231 -1.471538
v -1.471538 6.945231 1.471538
v -1.471538 6.945231 -4.414613
v -4.414613 6.945231 4.414613
v -4.414613 6.945231 -1.471538
v -4.414613 6.945231 -4.414613
v -4.414613 6.945231 1.471538
v 1.471538 6.945231 4.414613
v 1.471538 6.945231 -1.471538
v 1.471538 6.945231 -4.414613
v 1.471538 6.945231 1.471538
v 4.414613 6.945231 4.414613
v 4.414613 6.945231 -1.471538
v 4.414613 6.945231 1.471538
v 4.414613 6.945231 -4.414613
v 4.792614 -4.352734 -4.792615
v 4.792615 -4.352734 4.792614
v -4.792615 -4.352734 -4.792614
v -4.792614 -4.352734 4.792615
v 0.000000 -4.352734 6.777781
v -0.000000 -4.352734 -6.777781
v 6.777781 -4.352734 -0.000000
v -6.777781 -4.352734 0.000000
v 0.000000 -4.352734 0.000000
v -2.593744 -4.352734 6.261854
v -2.593745 -4.352734 -6.261853
v -2.943075 -4.352734 0.000000
v 2.593744 -4.352734 -6.261854
v 2.593745 -4.352734 6.261853
v 2.943075 -4.352734 0.000000
v -6.261854 -4.352734 -2.593744
v 0.000000 -4.352734 -2.943075
v 6.261853 -4.352734 -2.593745
v -2.943075 -4.352734 -2.943075
v 2.943075 -4.352734 -2.943075
v 6.261854 -4.352734 2.593744
v -6.261853 -4.352734 2.593745
v 0.000000 -4.352734 2.943075
v -2.943075 -4.352734 2.943075
v 2.943075 -4.352734 2.943075
v -1.322280 -4.352734 -6.647548
v -1.322279 -4.352734 6.647548
v -1.471538 -4.352734 0.000000
v -1.471538 -4.352734 -2.943075
v -1.471538 -4.352734 2.943075
v -3.765533 -4.352734 5.635519
v -4.414613 -4.352734 0.000000
v -3.765533 -4.352734 -5.635519
v -4.414613 -4.352734 -2.943075
v -4.414613 -4.352734 2.943075
v 1.322280 -4.352734 6.647548
v 1.471538 -4.352734 0.000000
v 1.322279 -4.352734 -6.647548
v 1.471538 -4.352734 -2.943075
v 1.471538 -4.352734 2.943075
v 3.765533 -4.352734 -5.635519
v 3.765533 -4.352734 5.635519
v 4.414613 -4.352734 0.000000
v 4.414613 -4.352734 -2.943075
v 4.414613 -4.352734 2.943075
v 6.647548 -4.352734 -1.322280
v -6.647548 -4.352734 -1.322279
v 0.000000 -4.352734 -1.471538
v -2.943075 -4.352734 -1.471538
v 2.943075 -4.352734 -1.471538
v -1.471538 -4.352734 -1.471538
v -4.414613 -4.352734 -1.471538
v 1.471538 -4.352734 -1.471538
v 4.414613 -4.352734 -1.471538
v -5.635519 -4.352734 -3.765533
v 0.000000 -4.352734 -4.414613
v -2.943075 -4.352734 -4.414613
v 2.943075 -4.352734 -4.414613
v 5.635519 -4.352734 -3.765533
v -1.471538 -4.352734 -4.414613
v -4.414613 -4.352734 -4.414613
v 1.471538 -4.352734 -4.414613
v 4.414613 -4.352734 -4.414613
v -6.647548 -4.352734 1.322280
v 0.000000 -4.352734 1.471538
v -2.943075 -4.352734 1.471538
v 2.943075 -4.352734 1.471538
v 6.647548 -4.352734 1.322279
v -1.471538 -4.352734 1.471538
v -4.414613 -4.352734 1.471538
v 1.471538 -4.352734 1.471538
v 4.414613 -4.352734 1.471538
v 5.635519 -4.352734 3.765533
v -5.635519 -4.352734 3.765533
v 0.000000 -4.352734 4.414613
v -2.943075 -4.352734 4.414613
v 2.943075 -4.352734 4.414613
v -1.471538 -4.352734 4.414613
v -4.414613 -4.352734 4.414613
v 1.471538 -4.352734 4.414613
v 4.414613 -4.352734 4.414613
v 5.635519 -5.541926 3.765533
v 4.792615 -5.541926 4.792614
v -3.765533 -5.541926 5.635519
v -4.792614 -5.541926 4.792615
v -5.635519 -5.541926 -3.765533
v -4.792615 -5.541926 -4.792614
v 3.765533 -5.541926 -5.635519
v 4.792614 -5.541926 -4.792615
v 1.322280 -5.541926 6.647548
v 0.000000 -5.541926 6.777781
v -1.322280 -5.541926 -6.647548
v -0.000000 -5.541926 -6.777781
v 0.000000 -5.541926 -4.414613
v 6.647548 -5.541926 -1.322280
v 6.777781 -5.541926 -0.000000
v -6.647548 -5.541926 1.322280
v -6.777781 -5.541926 0.000000
v 0.000000 -5.541926 1.471538
v 0.000000 -5.541926 0.000000
v -4.414613 -5.541926 0.000000
v 1.471538 -5.541926 0.000000
v -1.322279 -5.541926 6.647548
v -2.593744 -5.541926 6.261854
v -3.765533 -5.541926 -5.635519
v -2.593745 -5.541926 -6.261853
v -1.471538 -5.541926 0.000000
v -2.943075 -5.541926 0.000000
v -2.943075 -5.541926 1.471538
v -2.943075 -5.541926 -4.414613
v 1.322279 -5.541926 -6.647548
v 2.593744 -5.541926 -6.261854
v 3.765533 -5.541926 5.635519
v 2.593745 -5.541926 6.261853
v 4.414613 -5.541926 0.000000
v 2.943075 -5.541926 0.000000
v 2.943075 -5.541926 1.471538
v 2.943075 -5.541926 -4.414613
v -6.647548 -5.541926 -1.322279
v -6.261854 -5.541926 -2.593744
v 0.000000 -5.541926 -1.471538
v 0.000000 -5.541926 -2.943075
v 5.635519 -5.541926 -3.765533
v 6.261853 -5.541926 -2.593745
v -2.943075 -5.541926 -1.471538
v -2.943075 -5.541926 -2.943075
v 2.943075 -5.541926 -1.471538
v 2.943075 -5.541926 -2.943075
v 1.471538 -5.541926 -2.943075
v -4.414613 -5.541926 -2.943075
v -1.471538 -5.541926 -2.943075
v 4.414613 -5.541926 -2.943075
v 6.647548 -5.541926 1.322279
v 6.261854 -5.541926 2.593744
v -5.635519 -5.541926 3.765533
v -6.261853 -5.541926 2.593745
v 0.000000 -5.541926 4.414613
v 0.000000 -5.541926 2.943075
v -2.943075 -5.541926 4.414613
v -2.943075 -5.541926 2.943075
v 2.943075 -5.541926 4.414613
v 2.943075 -5.541926 2.943075
v 1.471538 -5.541926 2.943075
v -4.414613 -5.541926 2.943075
v 4.414613 -5.541926 2.943075
v -1.471538 -5.541926 2.943075
v -1.471538 -5.541926 4.414613
v -1.471538 -5.541926 -1.471538
v -1.471538 -5.541926 1.471538
v -1.471538 -5.541926 -4.414613
v -4.414613 -5.541926 4.414613
v -4.414613 -5.541926 -1.471538
v -4.414613 -5.541926 -4.414613
v -4.414613 -5.541926 1.471538
v 1.471538 -5.541926 4.414613
v 1.471538 -5.541926 -1.471538
v 1.471538 -5.541926 -4.414613
v 1.471538 -5.541926 1.471538
v 4.414613 -5.541926 4.414613
v 4.414613 -5.541926 -1.471538
v 4.414613 -5.541926 1.471538
v 4.414613 -5.541926 -4.414613
v 8.354260 -0.087452 4.584671
v 8.354260 0.000000 4.584671
v 8.354260 0.000000 -4.584671
v 31.409027 0.000000 -4.584671
v 8.354260 -0.087452 -4.584671
v 31.409027 0.000000 4.584671
v 31.409027 -0.087452 -4.584671
v 31.409027 -0.087452 4.584671
v -8.354260 -0.087452 4.584671
v -8.354260 0.000000 4.584671
v -8.354260 0.000000 -4.584671
v -31.409027 0.000000 -4.584671
v -8.354260 -0.087452 -4.584671
v -31.409027 0.000000 4.584671
v -31.409027 -0.087452 -4.584671
v -31.409027 -0.087452 4.584671
v 11.966644 -0.711554 -4.587385
v 11.966644 -0.087452 -4.587385
v 11.966644 -0.711554 4.587383
v 11.966644 -0.087452 4.587383
v 11.503525 -0.711554 -4.587385
v 11.503525 -0.087452 -4.587385
v 11.503525 -0.711554 4.587383
v 11.503525 -0.087452 4.587383
v 15.912429 -0.711554 -4.587385
v 15.912429 -0.087452 -4.587385
v 15.912429 -0.711554 4.587383
v 15.912429 -0.087452 4.587383
v 15.449310 -0.711554 -4.587385
v 15.449310 -0.087452 -4.587385
v 15.449310 -0.711554 4.587383
v 15.449310 -0.087452 4.587383
v 19.858198 -0.711554 -4.587385
v 19.858198 -0.087452 -4.587385
v 19.858198 -0.711554 4.587383
v 19.858198 -0.087452 4.587383
v 19.395081 -0.711554 -4.587385
v 19.395081 -0.087452 -4.587385
v 19.395081 -0.711554 4.587383
v 19.395081 -0.087452 4.587383
v 23.803986 -0.711554 -4.587385
v 23.803986 -0.087452 -4.587385
v 23.803986 -0.711554 4.587383
v 23.803986 -0.087452 4.587383
v 23.340866 -0.711554 -4.587385
v 23.340866 -0.087452 -4.587385
v 23.340866 -0.711554 4.587383
v 23.340866 -0.087452 4.587383
v 27.749754 -0.711554 -4.587385
v 27.749754 -0.087452 -4.587385
v 27.749754 -0.711554 4.587383
v 27.749754 -0.087452 4.587383
v 27.286636 -0.711554 -4.587385
v 27.286636 -0.087452 -4.587385
v 27.286636 -0.711554 4.587383
v 27.286636 -0.087452 4.587383
v -11.966644 -0.711554 -4.587385
v -11.966644 -0.087452 -4.587385
v -11.966644 -0.711554 4.587383
v -11.966644 -0.087452 4.587383
v -11.503525 -0.711554 -4.587385
v -11.503525 -0.087452 -4.587385
v -11.503525 -0.711554 4.587383
v -11.503525 -0.087452 4.587383
v -15.912429 -0.711554 -4.587385
v -15.912429 -0.087452 -4.587385
v -15.912429 -0.711554 4.587383
v -15.912429 -0.087452 4.587383
v -15.449310 -0.711554 -4.587385
v -15.449310 -0.087452 -4.587385
v -15.449310 -0.711554 4.587383
v -15.449310 -0.087452 4.587383
v -19.858198 -0.711554 -4.587385
v -19.858198 -0.087452 -4.587385
v -19.858198 -0.711554 4.587383
v -19.858198 -0.087452 4.587383
v -19.395081 -0.711554 -4.587385
v -19.395081 -0.087452 -4.587385
v -19.395081 -0.711554 4.587383
v -19.395081 -0.087452 4.587383
v -23.803986 -0.711554 -4.587385
v -23.803986 -0.087452 -4.587385
v -23.803986 -0.711554 4.587383
v -23.803986 -0.087452 4.587383
v -23.340866 -0.711554 -4.587385
v -23.340866 -0.087452 -4.587385
v -23.340866 -0.711554 4.587383
v -23.340866 -0.087452 4.587383
v -27.749754 -0.711554 -4.587385
v -27.749754 -0.087452 -4.587385
v -27.749754 -0.711554 4.587383
v -27.749754 -0.087452 4.587383
v -27.286636 -0.711554 -4.587385
v -27.286636 -0.087452 -4.587385
v -27.286636 -0.711554 4.587383
v -27.286636 -0.087452 4.587383
vn 0.2588 -0.0000 0.9659
vn 0.7071 -0.0000 -0.7071
vn 0.7071 -0.0000 0.7071
vn 0.2588 -0.0000 -0.9659
vn -0.0000 1.0000 -0.0000
vn -0.0000 -0.0000 -1.0000
vn 1.0000 -0.0000 -0.0000
vn -0.0000 -1.0000 -0.0000
vn -0.0000 -0.0000 1.0000
vn -1.0000 -0.0000 -0.0000
vn -0.2588 -0.0000 0.9659
vn -0.7071 -0.0000 -0.7071
vn -0.7071 -0.0000 0.7071
vn -0.2588 -0.0000 -0.9659
vn -0.7005 -0.0000 -0.7137
vn 0.7005 -0.0000 -0.7137
vn -0.7005 -0.0000 0.7137
vn 0.7005 -0.0000 0.7137
vn -0.0000 -0.9200 0.3918
vn -0.0000 -0.9200 -0.3918
vn -0.0000 -0.0116 -0.9999
vn -0.0000 -0.9999 0.0116
vn -0.0000 0.9999 -0.0116
vn -0.0000 -0.6989 0.7153
vn -0.0000 0.7153 0.6989
vn -0.0000 -0.7153 -0.6988
vn -0.0000 0.0116 0.9999
vn -0.0000 0.6989 -0.7153
vn -0.0000 -0.7153 -0.6989
vn -0.0000 -0.0116 0.9999
vn -0.0000 -0.9999 -0.0116
vn -0.0000 0.9999 0.0116
vn -0.0000 -0.6989 -0.7153
vn -0.0000 0.7153 -0.6989
vn -0.0000 -0.7153 0.6988
vn -0.0000 0.0116 -0.9999
vn -0.0000 0.6989 0.7153
vn -0.0000 -0.7153 0.6989
vn 0.9659 -0.0000 0.2588
vn 0.9659 -0.0000 -0.2588
vn -0.9659 -0.0000 0.2588
vn -0.9659 -0.0000 -0.2588
vn 0.5000 -0.0000 -0.8660
vn 0.5000 -0.0000 0.8660
vn 0.8660 -0.0000 0.5000
vn -0.8660 -0.0000 0.5000
vn -0.5000 -0.0000 0.8660
vn -0.5000 -0.0000 -0.8660
vn -0.8660 -0.0000 -0.5000
vn 0.8660 -0.0000 -0.5000
vn 0.8819 -0.0000 0.4714
vn 0.0980 -0.0000 -0.9952
vn 0.9952 -0.0000 0.0980
vn 0.9952 -0.0000 -0.0980
vn -0.7730 -0.0000 0.6344
vn -0.9952 -0.0000 0.0980
vn -0.9569 -0.0000 -0.2903
vn -0.4714 -0.0000 0.8819
vn 0.9569 -0.0000 -0.2903
vn -0.9952 -0.0000 -0.0980
vn 0.8819 -0.0000 -0.4714
vn -0.6344 -0.0000 -0.7730
vn -0.2903 -0.0000 0.9569
vn -0.8819 -0.0000 -0.4714
vn -0.4714 -0.0000 -0.8819
vn -0.2903 -0.0000 -0.9569
vn 0.4714 -0.0000 -0.8819
vn 0.7730 -0.0000 0.6344
vn -0.0980 -0.0000 0.9952
vn 0.6344 -0.0000 0.7730
vn -0.6344 -0.0000 0.7730
vn -0.7730 -0.0000 -0.6344
vn -0.9569 -0.0000 0.2903
vn 0.6344 -0.0000 -0.7730
vn 0.7730 -0.0000 -0.6344
vn 0.2903 -0.0000 -0.9569
vn 0.0980 -0.0000 0.9952
vn 0.9569 -0.0000 0.2903
vn 0.2903 -0.0000 0.9569
vn 0.4714 -0.0000 0.8819
vn -0.0980 -0.0000 -0.9952
vn -0.8819 -0.0000 0.4714
vt 0.000000 0.000000
vt 0.375000 0.000000
vt 0.625000 0.000000
vt 0.625000 0.250000
vt 0.375000 0.250000
vt 0.625000 0.500000
vt 0.375000 0.500000
vt 0.875000 0.500000
vt 0.875000 0.750000
vt 0.625000 0.750000
vt 0.125000 0.500000
vt 0.375000 0.750000
vt 0.125000 0.750000
vt 0.625000 1.000000
vt 0.375000 1.000000
vt 0.446516 0.000000
vt 0.446516 0.000000
vt 0.553484 0.000000
vt 0.375000 0.178484
vt 0.375000 0.071516
vt 0.625000 0.071516
vt 0.625000 0.214242
vt 0.446516 0.250000
vt 0.446516 0.250000
vt 0.553484 0.250000
vt 0.500000 0.916667
vt 0.562500 0.916667
vt 0.562500 1.000000
vt 0.500000 1.000000
vt 0.500000 0.666667
vt 0.562500 0.666667
vt 0.562500 0.750000
vt 0.500000 0.750000
vt 0.500000 0.416667
vt 0.562500 0.416667
vt 0.562500 0.500000
vt 0.500000 0.500000
vt 0.500000 0.166667
vt 0.562500 0.166667
vt 0.562500 0.250000
vt 0.500000 0.250000
vt 0.500000 0.000000
vt 0.562500 0.000000
vt 0.562500 0.083333
vt 0.500000 0.083333
vt 0.562500 0.583333
vt 0.500000 0.583333
vt 0.578125 0.166667
vt 0.578125 0.250000
vt 0.578125 0.416667
vt 0.578125 0.500000
vt 0.578125 0.666667
vt 0.578125 0.750000
vt 0.578125 0.916667
vt 0.578125 1.000000
vt 0.578125 0.583333
vt 0.578125 0.000000
vt 0.578125 0.083333
vt 0.578125 0.333333
vt 0.562500 0.333333
vt 0.500000 0.333333
vt 0.578125 0.833333
vt 0.562500 0.833333
vt 0.500000 0.833333
vt 0.843750 0.718750
vt 0.875000 0.718750
vt 0.843750 0.750000
vt 0.718750 0.718750
vt 0.750000 0.718750
vt 0.750000 0.750000
vt 0.718750 0.750000
vt 0.718750 0.593750
vt 0.750000 0.593750
vt 0.750000 0.625000
vt 0.718750 0.625000
vt 0.843750 0.593750
vt 0.875000 0.593750
vt 0.875000 0.625000
vt 0.843750 0.625000
vt 0.656250 0.593750
vt 0.687500 0.593750
vt 0.687500 0.625000
vt 0.656250 0.625000
vt 0.656250 0.718750
vt 0.687500 0.718750
vt 0.687500 0.750000
vt 0.656250 0.750000
vt 0.781250 0.593750
vt 0.812500 0.593750
vt 0.812500 0.625000
vt 0.781250 0.625000
vt 0.781250 0.718750
vt 0.812500 0.718750
vt 0.812500 0.750000
vt 0.781250 0.750000
vt 0.781250 0.656250
vt 0.812500 0.656250
vt 0.812500 0.687500
vt 0.781250 0.687500
vt 0.656250 0.656250
vt 0.687500 0.656250
vt 0.687500 0.687500
vt 0.656250 0.687500
vt 0.718750 0.656250
vt 0.750000 0.656250
vt 0.750000 0.687500
vt 0.718750 0.687500
vt 0.843750 0.656250
vt 0.875000 0.656250
vt 0.875000 0.687500
vt 0.843750 0.687500
vt 0.781250 0.531250
vt 0.812500 0.531250
vt 0.812500 0.562500
vt 0.781250 0.562500
vt 0.656250 0.531250
vt 0.687500 0.531250
vt 0.687500 0.562500
vt 0.656250 0.562500
vt 0.843750 0.531250
vt 0.875000 0.531250
vt 0.875000 0.562500
vt 0.843750 0.562500
vt 0.718750 0.531250
vt 0.750000 0.531250
vt 0.750000 0.562500
vt 0.718750 0.562500
vt 0.625000 0.531250
vt 0.625000 0.562500
vt 0.625000 0.656250
vt 0.625000 0.687500
vt 0.625000 0.718750
vt 0.625000 0.593750
vt 0.625000 0.625000
vt 0.812500 0.500000
vt 0.843750 0.500000
vt 0.750000 0.500000
vt 0.781250 0.500000
vt 0.656250 0.500000
vt 0.687500 0.500000
vt 0.718750 0.500000
s 0
f 2/1/1 1/1/1 8/1/1 9/1/1
f 6/1/2 5/1/2 12/1/2 13/1/2
f 3/1/3 2/1/3 9/1/3 10/1/3
f 7/1/4 6/1/4 13/1/4 14/1/4
f 3/1/5 16/1/5 33/1/5 26/1/5
f 12/1/6 5/1/6 17/1/6 20/1/6
f 15/1/7 16/1/7 19/1/7 18/1/7
f 17/1/7 15/1/7 18/1/7 20/1/7
f 18/1/8 19/1/8 35/1/8 34/1/8
f 3/1/9 10/1/9 19/1/9 16/1/9
f 15/1/5 17/1/5 31/1/5 32/1/5
f 5/1/5 4/1/5 25/1/5 27/1/5
f 21/1/5 6/1/5 7/1/5 22/1/5
f 23/1/8 24/1/8 14/1/8 13/1/8
f 2/1/5 21/1/5 22/1/5 1/1/5
f 2/1/5 3/1/5 4/1/5 21/1/5
f 5/1/5 6/1/5 21/1/5 4/1/5
f 9/1/8 8/1/8 24/1/8 23/1/8
f 9/1/8 23/1/8 11/1/8 10/1/8
f 12/1/8 11/1/8 23/1/8 13/1/8
f 33/1/6 35/1/6 29/1/6 26/1/6
f 26/1/7 29/1/7 28/1/7 25/1/7
f 25/1/7 28/1/7 30/1/7 27/1/7
f 27/1/9 30/1/9 36/1/9 31/1/9
f 17/1/5 5/1/5 27/1/5 31/1/5
f 10/1/8 11/1/8 28/1/8 29/1/8
f 20/1/8 18/1/8 34/1/8 36/1/8
f 4/1/5 3/1/5 26/1/5 25/1/5
f 16/1/5 15/1/5 32/1/5 33/1/5
f 12/1/8 20/1/8 36/1/8 30/1/8
f 11/1/8 12/1/8 30/1/8 28/1/8
f 19/1/8 10/1/8 29/1/8 35/1/8
f 33/1/10 32/1/10 34/1/10 35/1/10
f 32/1/10 31/1/10 36/1/10 34/1/10
f 37/1/11 42/1/11 8/1/11 1/1/11
f 41/1/12 46/1/12 45/1/12 40/1/12
f 38/1/13 43/1/13 42/1/13 37/1/13
f 7/1/14 14/1/14 46/1/14 41/1/14
f 38/1/5 56/1/5 63/1/5 48/1/5
f 45/1/6 52/1/6 49/1/6 40/1/6
f 47/1/10 50/1/10 51/1/10 48/1/10
f 49/1/10 52/1/10 50/1/10 47/1/10
f 50/1/8 64/1/8 65/1/8 51/1/8
f 38/1/9 48/1/9 51/1/9 43/1/9
f 47/1/5 62/1/5 61/1/5 49/1/5
f 40/1/5 57/1/5 55/1/5 39/1/5
f 53/1/5 22/1/5 7/1/5 41/1/5
f 54/1/8 46/1/8 14/1/8 24/1/8
f 37/1/5 1/1/5 22/1/5 53/1/5
f 37/1/5 53/1/5 39/1/5 38/1/5
f 40/1/5 39/1/5 53/1/5 41/1/5
f 42/1/8 54/1/8 24/1/8 8/1/8
f 42/1/8 43/1/8 44/1/8 54/1/8
f 45/1/8 46/1/8 54/1/8 44/1/8
f 63/1/6 56/1/6 59/1/6 65/1/6
f 56/1/10 55/1/10 58/1/10 59/1/10
f 55/1/10 57/1/10 60/1/10 58/1/10
f 57/1/9 61/1/9 66/1/9 60/1/9
f 49/1/5 61/1/5 57/1/5 40/1/5
f 43/1/8 59/1/8 58/1/8 44/1/8
f 52/1/8 66/1/8 64/1/8 50/1/8
f 39/1/5 55/1/5 56/1/5 38/1/5
f 48/1/5 63/1/5 62/1/5 47/1/5
f 45/1/8 60/1/8 66/1/8 52/1/8
f 44/1/8 58/1/8 60/1/8 45/1/8
f 51/1/8 65/1/8 59/1/8 43/1/8
f 63/1/7 65/1/7 64/1/7 62/1/7
f 62/1/7 64/1/7 66/1/7 61/1/7
f 67/2/7 68/3/7 70/4/7 69/5/7
f 69/5/9 70/4/9 74/6/9 73/7/9
f 67/2/7 69/5/7 79/5/7 80/2/7
f 74/6/9 70/4/9 76/4/9 77/6/9
f 77/6/5 76/8/5 75/9/5 78/10/5
f 68/1/6 72/1/6 78/1/6 75/1/6
f 70/4/7 68/3/7 75/3/7 76/4/7
f 79/11/8 81/7/8 82/12/8 80/13/8
f 71/1/6 67/1/6 80/1/6 82/1/6
f 69/5/9 73/7/9 81/7/9 79/5/9
f 78/1/15 72/1/15 74/6/15 77/6/15
f 82/12/15 81/7/15 73/7/15 71/1/15
f 83/2/10 85/5/10 86/4/10 84/3/10
f 85/5/9 89/7/9 90/6/9 86/4/9
f 83/2/10 96/2/10 95/5/10 85/5/10
f 90/6/9 93/6/9 92/4/9 86/4/9
f 93/6/5 94/10/5 91/9/5 92/8/5
f 84/1/6 91/1/6 94/1/6 88/1/6
f 86/4/10 92/4/10 91/3/10 84/3/10
f 95/11/8 96/13/8 98/12/8 97/7/8
f 87/1/6 98/1/6 96/1/6 83/1/6
f 85/5/9 95/5/9 97/7/9 89/7/9
f 94/1/16 93/6/16 90/6/16 88/1/16
f 98/12/16 87/1/16 89/7/16 97/7/16
f 99/2/7 101/5/7 102/4/7 100/3/7
f 101/5/6 105/7/6 106/6/6 102/4/6
f 99/2/7 112/2/7 111/5/7 101/5/7
f 106/6/6 109/6/6 108/4/6 102/4/6
f 109/6/5 110/10/5 107/9/5 108/8/5
f 100/1/9 107/1/9 110/1/9 104/1/9
f 102/4/7 108/4/7 107/3/7 100/3/7
f 111/11/8 112/13/8 114/12/8 113/7/8
f 103/1/9 114/1/9 112/1/9 99/1/9
f 101/5/6 111/5/6 113/7/6 105/7/6
f 110/1/17 109/6/17 106/6/17 104/1/17
f 114/12/17 103/1/17 105/7/17 113/7/17
f 115/2/10 116/3/10 118/4/10 117/5/10
f 117/5/6 118/4/6 122/6/6 121/7/6
f 115/2/10 117/5/10 127/5/10 128/2/10
f 122/6/6 118/4/6 124/4/6 125/6/6
f 125/6/5 124/8/5 123/9/5 126/10/5
f 116/1/9 120/1/9 126/1/9 123/1/9
f 118/4/10 116/3/10 123/3/10 124/4/10
f 127/11/8 129/7/8 130/12/8 128/13/8
f 119/1/9 115/1/9 128/1/9 130/1/9
f 117/5/6 121/7/6 129/7/6 127/5/6
f 126/1/18 120/1/18 122/6/18 125/6/18
f 130/12/18 129/7/18 121/7/18 119/1/18
f 131/2/7 132/3/7 134/4/7 133/5/7
f 138/6/10 137/7/10 141/7/10 142/6/10
f 137/7/10 138/6/10 136/10/10 135/12/10
f 135/12/6 136/10/6 132/14/6 131/15/6
f 133/11/8 137/7/8 135/12/8 131/13/8
f 138/6/5 134/8/5 132/9/5 136/10/5
f 140/5/9 139/4/9 142/6/9 141/7/9
f 137/7/19 133/11/19 140/11/19 141/7/19
f 134/8/5 138/6/5 142/6/5 139/8/5
f 133/5/7 134/4/7 139/4/7 140/5/7
f 143/2/7 144/3/7 146/4/7 145/5/7
f 150/6/10 149/7/10 153/7/10 154/6/10
f 149/7/10 150/6/10 148/10/10 147/12/10
f 147/12/6 148/10/6 144/14/6 143/15/6
f 145/11/8 149/7/8 147/12/8 143/13/8
f 150/6/5 146/8/5 144/9/5 148/10/5
f 152/5/9 151/4/9 154/6/9 153/7/9
f 149/7/19 145/11/19 152/11/19 153/7/19
f 146/8/5 150/6/5 154/6/5 151/8/5
f 145/5/7 146/4/7 151/4/7 152/5/7
f 155/2/7 156/3/7 158/4/7 157/5/7
f 162/6/10 161/7/10 165/7/10 166/6/10
f 161/7/10 162/6/10 160/10/10 159/12/10
f 159/12/6 160/10/6 156/14/6 155/15/6
f 157/11/8 161/7/8 159/12/8 155/13/8
f 162/6/5 158/8/5 156/9/5 160/10/5
f 164/5/9 163/4/9 166/6/9 165/7/9
f 161/7/19 157/11/19 164/11/19 165/7/19
f 158/8/5 162/6/5 166/6/5 163/8/5
f 157/5/7 158/4/7 163/4/7 164/5/7
f 167/2/7 168/3/7 170/4/7 169/5/7
f 174/6/10 173/7/10 177/7/10 178/6/10
f 173/7/10 174/6/10 172/10/10 171/12/10
f 171/12/6 172/10/6 168/14/6 167/15/6
f 169/11/8 173/7/8 171/12/8 167/13/8
f 174/6/5 170/8/5 168/9/5 172/10/5
f 176/5/9 175/4/9 178/6/9 177/7/9
f 173/7/19 169/11/19 176/11/19 177/7/19
f 170/8/5 174/6/5 178/6/5 175/8/5
f 169/5/7 170/4/7 175/4/7 176/5/7
f 179/2/7 180/3/7 182/4/7 181/5/7
f 186/6/10 185/7/10 189/7/10 190/6/10
f 185/7/10 186/6/10 184/10/10 183/12/10
f 183/12/6 184/10/6 180/14/6 179/15/6
f 181/11/8 185/7/8 183/12/8 179/13/8
f 186/6/5 182/8/5 180/9/5 184/10/5
f 188/5/9 187/4/9 190/6/9 189/7/9
f 185/7/19 181/11/19 188/11/19 189/7/19
f 182/8/5 186/6/5 190/6/5 187/8/5
f 181/5/7 182/4/7 187/4/7 188/5/7
f 191/2/7 192/3/7 194/4/7 193/5/7
f 198/6/10 197/7/10 201/7/10 202/6/10
f 197/7/10 198/6/10 196/10/10 195/12/10
f 195/12/6 196/10/6 192/14/6 191/15/6
f 193/11/8 197/7/8 195/12/8 191/13/8
f 198/6/5 194/8/5 192/9/5 196/10/5
f 200/5/9 199/4/9 202/6/9 201/7/9
f 197/7/19 193/11/19 200/11/19 201/7/19
f 194/8/5 198/6/5 202/6/5 199/8/5
f 193/5/7 194/4/7 199/4/7 200/5/7
f 203/2/7 204/3/7 206/4/7 205/5/7
f 210/6/10 209/7/10 213/7/10 214/6/10
f 209/7/10 210/6/10 208/10/10 207/12/10
f 207/12/6 208/10/6 204/14/6 203/15/6
f 205/11/8 209/7/8 207/12/8 203/13/8
f 210/6/5 206/8/5 204/9/5 208/10/5
f 212/5/9 211/4/9 214/6/9 213/7/9
f 209/7/19 205/11/19 212/11/19 213/7/19
f 206/8/5 210/6/5 214/6/5 211/8/5
f 205/5/7 206/4/7 211/4/7 212/5/7
f 215/2/10 217/5/10 218/4/10 216/3/10
f 222/6/7 226/6/7 225/7/7 221/7/7
f 221/7/7 219/12/7 220/10/7 222/6/7
f 219/12/6 215/15/6 216/14/6 220/10/6
f 217/11/8 215/13/8 219/12/8 221/7/8
f 222/6/5 220/10/5 216/9/5 218/8/5
f 224/5/9 225/7/9 226/6/9 223/4/9
f 221/7/19 225/7/19 224/11/19 217/11/19
f 218/8/5 223/8/5 226/6/5 222/6/5
f 217/5/10 224/5/10 223/4/10 218/4/10
f 227/2/10 229/5/10 230/4/10 228/3/10
f 234/6/7 238/6/7 237/7/7 233/7/7
f 233/7/7 231/12/7 232/10/7 234/6/7
f 231/12/6 227/15/6 228/14/6 232/10/6
f 229/11/8 227/13/8 231/12/8 233/7/8
f 234/6/5 232/10/5 228/9/5 230/8/5
f 236/5/9 237/7/9 238/6/9 235/4/9
f 233/7/19 237/7/19 236/11/19 229/11/19
f 230/8/5 235/8/5 238/6/5 234/6/5
f 229/5/10 236/5/10 235/4/10 230/4/10
f 239/2/10 241/5/10 242/4/10 240/3/10
f 246/6/7 250/6/7 249/7/7 245/7/7
f 245/7/7 243/12/7 244/10/7 246/6/7
f 243/12/6 239/15/6 240/14/6 244/10/6
f 241/11/8 239/13/8 243/12/8 245/7/8
f 246/6/5 244/10/5 240/9/5 242/8/5
f 248/5/9 249/7/9 250/6/9 247/4/9
f 245/7/19 249/7/19 248/11/19 241/11/19
f 242/8/5 247/8/5 250/6/5 246/6/5
f 241/5/10 248/5/10 247/4/10 242/4/10
f 251/2/10 253/5/10 254/4/10 252/3/10
f 258/6/7 262/6/7 261/7/7 257/7/7
f 257/7/7 255/12/7 256/10/7 258/6/7
f 255/12/6 251/15/6 252/14/6 256/10/6
f 253/11/8 251/13/8 255/12/8 257/7/8
f 258/6/5 256/10/5 252/9/5 254/8/5
f 260/5/9 261/7/9 262/6/9 259/4/9
f 257/7/19 261/7/19 260/11/19 253/11/19
f 254/8/5 259/8/5 262/6/5 258/6/5
f 253/5/10 260/5/10 259/4/10 254/4/10
f 263/2/10 265/5/10 266/4/10 264/3/10
f 270/6/7 274/6/7 273/7/7 269/7/7
f 269/7/7 267/12/7 268/10/7 270/6/7
f 267/12/6 263/15/6 264/14/6 268/10/6
f 265/11/8 263/13/8 267/12/8 269/7/8
f 270/6/5 268/10/5 264/9/5 266/8/5
f 272/5/9 273/7/9 274/6/9 271/4/9
f 269/7/19 273/7/19 272/11/19 265/11/19
f 266/8/5 271/8/5 274/6/5 270/6/5
f 265/5/10 272/5/10 271/4/10 266/4/10
f 275/2/10 277/5/10 278/4/10 276/3/10
f 282/6/7 286/6/7 285/7/7 281/7/7
f 281/7/7 279/12/7 280/10/7 282/6/7
f 279/12/6 275/15/6 276/14/6 280/10/6
f 277/11/8 275/13/8 279/12/8 281/7/8
f 282/6/5 280/10/5 276/9/5 278/8/5
f 284/5/9 285/7/9 286/6/9 283/4/9
f 281/7/19 285/7/19 284/11/19 277/11/19
f 278/8/5 283/8/5 286/6/5 282/6/5
f 277/5/10 284/5/10 283/4/10 278/4/10
f 287/2/10 289/5/10 290/4/10 288/3/10
f 294/6/7 298/6/7 297/7/7 293/7/7
f 293/7/7 291/12/7 292/10/7 294/6/7
f 291/12/6 287/15/6 288/14/6 292/10/6
f 289/11/8 287/13/8 291/12/8 293/7/8
f 294/6/5 292/10/5 288/9/5 290/8/5
f 296/5/9 297/7/9 298/6/9 295/4/9
f 293/7/19 297/7/19 296/11/19 289/11/19
f 290/8/5 295/8/5 298/6/5 294/6/5
f 289/5/10 296/5/10 295/4/10 290/4/10
f 299/2/7 301/5/7 302/4/7 300/3/7
f 306/6/10 310/6/10 309/7/10 305/7/10
f 305/7/10 303/12/10 304/10/10 306/6/10
f 303/12/9 299/15/9 300/14/9 304/10/9
f 301/11/8 299/13/8 303/12/8 305/7/8
f 306/6/5 304/10/5 300/9/5 302/8/5
f 308/5/6 309/7/6 310/6/6 307/4/6
f 305/7/20 309/7/20 308/11/20 301/11/20
f 302/8/5 307/8/5 310/6/5 306/6/5
f 301/5/7 308/5/7 307/4/7 302/4/7
f 311/2/7 313/5/7 314/4/7 312/3/7
f 318/6/10 322/6/10 321/7/10 317/7/10
f 317/7/10 315/12/10 316/10/10 318/6/10
f 315/12/9 311/15/9 312/14/9 316/10/9
f 313/11/8 311/13/8 315/12/8 317/7/8
f 318/6/5 316/10/5 312/9/5 314/8/5
f 320/5/6 321/7/6 322/6/6 319/4/6
f 317/7/20 321/7/20 320/11/20 313/11/20
f 314/8/5 319/8/5 322/6/5 318/6/5
f 313/5/7 320/5/7 319/4/7 314/4/7
f 323/2/7 325/5/7 326/4/7 324/3/7
f 330/6/10 334/6/10 333/7/10 329/7/10
f 329/7/10 327/12/10 328/10/10 330/6/10
f 327/12/9 323/15/9 324/14/9 328/10/9
f 325/11/8 323/13/8 327/12/8 329/7/8
f 330/6/5 328/10/5 324/9/5 326/8/5
f 332/5/6 333/7/6 334/6/6 331/4/6
f 329/7/20 333/7/20 332/11/20 325/11/20
f 326/8/5 331/8/5 334/6/5 330/6/5
f 325/5/7 332/5/7 331/4/7 326/4/7
f 335/2/7 337/5/7 338/4/7 336/3/7
f 342/6/10 346/6/10 345/7/10 341/7/10
f 341/7/10 339/12/10 340/10/10 342/6/10
f 339/12/9 335/15/9 336/14/9 340/10/9
f 337/11/8 335/13/8 339/12/8 341/7/8
f 342/6/5 340/10/5 336/9/5 338/8/5
f 344/5/6 345/7/6 346/6/6 343/4/6
f 341/7/20 345/7/20 344/11/20 337/11/20
f 338/8/5 343/8/5 346/6/5 342/6/5
f 337/5/7 344/5/7 343/4/7 338/4/7
f 347/2/7 349/5/7 350/4/7 348/3/7
f 354/6/10 358/6/10 357/7/10 353/7/10
f 353/7/10 351/12/10 352/10/10 354/6/10
f 351/12/9 347/15/9 348/14/9 352/10/9
f 349/11/8 347/13/8 351/12/8 353/7/8
f 354/6/5 352/10/5 348/9/5 350/8/5
f 356/5/6 357/7/6 358/6/6 355/4/6
f 353/7/20 357/7/20 356/11/20 349/11/20
f 350/8/5 355/8/5 358/6/5 354/6/5
f 349/5/7 356/5/7 355/4/7 350/4/7
f 359/2/7 361/5/7 362/4/7 360/3/7
f 366/6/10 370/6/10 369/7/10 365/7/10
f 365/7/10 363/12/10 364/10/10 366/6/10
f 363/12/9 359/15/9 360/14/9 364/10/9
f 361/11/8 359/13/8 363/12/8 365/7/8
f 366/6/5 364/10/5 360/9/5 362/8/5
f 368/5/6 369/7/6 370/6/6 367/4/6
f 365/7/20 369/7/20 368/11/20 361/11/20
f 362/8/5 367/8/5 370/6/5 366/6/5
f 361/5/7 368/5/7 367/4/7 362/4/7
f 371/2/7 373/5/7 374/4/7 372/3/7
f 378/6/10 382/6/10 381/7/10 377/7/10
f 377/7/10 375/12/10 376/10/10 378/6/10
f 375/12/9 371/15/9 372/14/9 376/10/9
f 373/11/8 371/13/8 375/12/8 377/7/8
f 378/6/5 376/10/5 372/9/5 374/8/5
f 380/5/6 381/7/6 382/6/6 379/4/6
f 377/7/20 381/7/20 380/11/20 373/11/20
f 374/8/5 379/8/5 382/6/5 378/6/5
f 373/5/7 380/5/7 379/4/7 374/4/7
f 383/2/10 384/3/10 386/4/10 385/5/10
f 390/6/7 389/7/7 393/7/7 394/6/7
f 389/7/7 390/6/7 388/10/7 387/12/7
f 387/12/9 388/10/9 384/14/9 383/15/9
f 385/11/8 389/7/8 387/12/8 383/13/8
f 390/6/5 386/8/5 384/9/5 388/10/5
f 392/5/6 391/4/6 394/6/6 393/7/6
f 389/7/20 385/11/20 392/11/20 393/7/20
f 386/8/5 390/6/5 394/6/5 391/8/5
f 385/5/10 386/4/10 391/4/10 392/5/10
f 395/2/10 396/3/10 398/4/10 397/5/10
f 402/6/7 401/7/7 405/7/7 406/6/7
f 401/7/7 402/6/7 400/10/7 399/12/7
f 399/12/9 400/10/9 396/14/9 395/15/9
f 397/11/8 401/7/8 399/12/8 395/13/8
f 402/6/5 398/8/5 396/9/5 400/10/5
f 404/5/6 403/4/6 406/6/6 405/7/6
f 401/7/20 397/11/20 404/11/20 405/7/20
f 398/8/5 402/6/5 406/6/5 403/8/5
f 397/5/10 398/4/10 403/4/10 404/5/10
f 407/2/10 408/3/10 410/4/10 409/5/10
f 414/6/7 413/7/7 417/7/7 418/6/7
f 413/7/7 414/6/7 412/10/7 411/12/7
f 411/12/9 412/10/9 408/14/9 407/15/9
f 409/11/8 413/7/8 411/12/8 407/13/8
f 414/6/5 410/8/5 408/9/5 412/10/5
f 416/5/6 415/4/6 418/6/6 417/7/6
f 413/7/20 409/11/20 416/11/20 417/7/20
f 410/8/5 414/6/5 418/6/5 415/8/5
f 409/5/10 410/4/10 415/4/10 416/5/10
f 419/2/10 420/3/10 422/4/10 421/5/10
f 426/6/7 425/7/7 429/7/7 430/6/7
f 425/7/7 426/6/7 424/10/7 423/12/7
f 423/12/9 424/10/9 420/14/9 419/15/9
f 421/11/8 425/7/8 423/12/8 419/13/8
f 426/6/5 422/8/5 420/9/5 424/10/5
f 428/5/6 427/4/6 430/6/6 429/7/6
f 425/7/20 421/11/20 428/11/20 429/7/20
f 422/8/5 426/6/5 430/6/5 427/8/5
f 421/5/10 422/4/10 427/4/10 428/5/10
f 431/2/10 432/3/10 434/4/10 433/5/10
f 438/6/7 437/7/7 441/7/7 442/6/7
f 437/7/7 438/6/7 436/10/7 435/12/7
f 435/12/9 436/10/9 432/14/9 431/15/9
f 433/11/8 437/7/8 435/12/8 431/13/8
f 438/6/5 434/8/5 432/9/5 436/10/5
f 440/5/6 439/4/6 442/6/6 441/7/6
f 437/7/20 433/11/20 440/11/20 441/7/20
f 434/8/5 438/6/5 442/6/5 439/8/5
f 433/5/10 434/4/10 439/4/10 440/5/10
f 443/2/10 444/3/10 446/4/10 445/5/10
f 450/6/7 449/7/7 453/7/7 454/6/7
f 449/7/7 450/6/7 448/10/7 447/12/7
f 447/12/9 448/10/9 444/14/9 443/15/9
f 445/11/8 449/7/8 447/12/8 443/13/8
f 450/6/5 446/8/5 444/9/5 448/10/5
f 452/5/6 451/4/6 454/6/6 453/7/6
f 449/7/20 445/11/20 452/11/20 453/7/20
f 446/8/5 450/6/5 454/6/5 451/8/5
f 445/5/10 446/4/10 451/4/10 452/5/10
f 455/2/10 456/3/10 458/4/10 457/5/10
f 462/6/7 461/7/7 465/7/7 466/6/7
f 461/7/7 462/6/7 460/10/7 459/12/7
f 459/12/9 460/10/9 456/14/9 455/15/9
f 457/11/8 461/7/8 459/12/8 455/13/8
f 462/6/5 458/8/5 456/9/5 460/10/5
f 464/5/6 463/4/6 466/6/6 465/7/6
f 461/7/20 457/11/20 464/11/20 465/7/20
f 458/8/5 462/6/5 466/6/5 463/8/5
f 457/5/10 458/4/10 463/4/10 464/5/10
f 468/16/21 481/17/21 480/18/21 469/18/21
f 472/19/22 479/19/22 482/20/22 467/20/22
f 470/21/23 478/21/23 475/22/23 473/22/23
f 471/23/24 476/24/24 479/19/24 472/19/24
f 473/22/25 475/22/25 477/25/25 474/25/25
f 467/20/26 482/20/26 481/17/26 468/16/26
f 474/25/27 477/25/27 476/24/27 471/23/27
f 469/18/28 480/18/28 478/21/28 470/21/28
f 484/16/21 485/18/21 496/18/21 497/17/21
f 488/19/22 483/20/22 498/20/22 495/19/22
f 486/21/23 489/22/23 491/22/23 494/21/23
f 487/23/24 488/19/24 495/19/24 492/24/24
f 489/22/25 490/25/25 493/25/25 491/22/25
f 483/20/29 484/16/29 497/17/29 498/20/29
f 490/25/27 487/23/27 492/24/27 493/25/27
f 485/18/28 486/21/28 494/21/28 496/18/28
f 500/16/30 501/18/30 512/18/30 513/17/30
f 504/19/31 499/20/31 514/20/31 511/19/31
f 502/21/32 505/22/32 507/22/32 510/21/32
f 503/23/33 504/19/33 511/19/33 508/24/33
f 505/22/34 506/25/34 509/25/34 507/22/34
f 499/20/35 500/16/35 513/17/35 514/20/35
f 506/25/36 503/23/36 508/24/36 509/25/36
f 501/18/37 502/21/37 510/21/37 512/18/37
f 516/16/30 529/17/30 528/18/30 517/18/30
f 520/19/31 527/19/31 530/20/31 515/20/31
f 518/21/32 526/21/32 523/22/32 521/22/32
f 519/23/33 524/24/33 527/19/33 520/19/33
f 521/22/34 523/22/34 525/25/34 522/25/34
f 515/20/38 530/20/38 529/17/38 516/16/38
f 522/25/36 525/25/36 524/24/36 519/23/36
f 517/18/37 528/18/37 526/21/37 518/21/37
f 592/26/6 594/27/6 535/28/6 531/29/6
f 540/30/10 544/31/10 538/32/10 534/33/10
f 580/34/9 582/35/9 537/36/9 533/37/9
f 542/38/7 546/39/7 536/40/7 532/41/7
f 531/42/7 535/43/7 545/44/7 541/45/7
f 533/37/10 537/36/10 543/46/10 539/47/10
f 596/26/9 547/29/9 551/28/9 598/27/9
f 556/30/7 550/33/7 554/32/7 560/31/7
f 584/34/6 549/37/6 553/36/6 586/35/6
f 558/38/10 548/41/10 552/40/10 562/39/10
f 547/42/10 557/45/10 561/44/10 551/43/10
f 549/37/7 555/47/7 559/46/7 553/36/7
f 592/26/8 531/29/8 547/29/8 596/26/8
f 540/30/8 534/33/8 550/33/8 556/30/8
f 580/34/8 533/37/8 549/37/8 584/34/8
f 542/38/8 532/41/8 548/41/8 558/38/8
f 533/37/8 539/47/8 555/47/8 549/37/8
f 531/42/8 541/45/8 557/45/8 547/42/8
f 541/45/9 545/44/9 561/44/9 557/45/9
f 546/39/6 542/38/6 558/38/6 562/39/6
f 539/47/6 543/46/6 559/46/6 555/47/6
f 544/31/9 540/30/9 556/30/9 560/31/9
f 543/46/8 544/31/8 560/31/8 559/46/8
f 545/44/8 546/39/8 562/39/8 561/44/8
f 546/39/7 569/48/7 563/49/7 536/40/7
f 582/35/9 588/50/9 564/51/9 537/36/9
f 544/31/10 567/52/10 565/53/10 538/32/10
f 594/27/6 600/54/6 570/55/6 535/28/6
f 537/36/10 564/51/10 566/56/10 543/46/10
f 543/46/10 566/56/10 567/52/10 544/31/10
f 535/43/7 570/57/7 568/58/7 545/44/7
f 545/44/7 568/58/7 569/48/7 546/39/7
f 561/44/10 562/39/10 577/48/10 576/58/10
f 551/43/10 561/44/10 576/58/10 578/57/10
f 559/46/7 560/31/7 575/52/7 574/56/7
f 553/36/7 559/46/7 574/56/7 572/51/7
f 598/27/9 551/28/9 578/55/9 601/54/9
f 560/31/7 554/32/7 573/53/7 575/52/7
f 586/35/6 553/36/6 572/51/6 589/50/6
f 562/39/10 552/40/10 571/49/10 577/48/10
f 588/50/5 589/50/5 572/51/5 564/51/5
f 564/51/5 572/51/5 574/56/5 566/56/5
f 566/56/5 574/56/5 575/52/5 567/52/5
f 567/52/5 575/52/5 573/53/5 565/53/5
f 600/54/5 601/54/5 578/55/5 570/55/5
f 570/55/5 578/55/5 576/58/5 568/58/5
f 568/58/5 576/58/5 577/48/5 569/48/5
f 569/48/5 577/48/5 571/49/5 563/49/5
f 563/49/5 571/49/5 590/59/5 587/59/5
f 552/40/6 585/60/6 590/59/6 571/49/6
f 536/40/9 563/49/9 587/59/9 581/60/9
f 532/41/8 579/61/8 583/61/8 548/41/8
f 548/41/6 583/61/6 585/60/6 552/40/6
f 588/50/7 582/35/7 586/35/7 589/50/7
f 532/41/9 536/40/9 581/60/9 579/61/9
f 580/34/7 584/34/7 586/35/7 582/35/7
f 565/53/5 573/53/5 602/62/5 599/62/5
f 593/63/7 599/62/7 602/62/7 597/63/7
f 554/32/9 597/63/9 602/62/9 573/53/9
f 597/63/7 595/64/7 591/64/7 593/63/7
f 538/32/6 565/53/6 599/62/6 593/63/6
f 594/27/10 598/27/10 601/54/10 600/54/10
f 534/33/8 591/64/8 595/64/8 550/33/8
f 598/27/10 594/27/10 592/26/10 596/26/10
f 550/33/9 595/64/9 597/63/9 554/32/9
f 579/61/10 581/60/10 585/60/10 583/61/10
f 534/33/6 538/32/6 593/63/6 591/64/6
f 587/59/10 590/59/10 585/60/10 581/60/10
f 663/1/1 664/1/1 610/1/1 611/1/1
f 668/1/2 667/1/2 614/1/2 615/1/2
f 665/1/3 663/1/3 611/1/3 612/1/3
f 669/1/4 668/1/4 615/1/4 616/1/4
f 617/1/5 692/1/5 693/1/5 618/1/5
f 619/1/8 620/1/8 616/1/8 615/1/8
f 687/1/5 617/1/5 618/1/5 688/1/5
f 687/1/5 605/1/5 690/1/5 617/1/5
f 607/1/5 692/1/5 617/1/5 690/1/5
f 611/1/8 610/1/8 620/1/8 619/1/8
f 611/1/8 619/1/8 613/1/8 612/1/8
f 614/1/8 613/1/8 619/1/8 615/1/8
f 665/1/39 612/1/39 613/1/39 666/1/39
f 666/1/40 613/1/40 614/1/40 667/1/40
f 670/1/11 626/1/11 610/1/11 664/1/11
f 674/1/12 630/1/12 629/1/12 673/1/12
f 671/1/13 627/1/13 626/1/13 670/1/13
f 669/1/14 616/1/14 630/1/14 674/1/14
f 631/1/5 618/1/5 693/1/5 698/1/5
f 632/1/8 630/1/8 616/1/8 620/1/8
f 694/1/5 688/1/5 618/1/5 631/1/5
f 694/1/5 631/1/5 696/1/5 622/1/5
f 624/1/5 696/1/5 631/1/5 698/1/5
f 626/1/8 632/1/8 620/1/8 610/1/8
f 626/1/8 627/1/8 628/1/8 632/1/8
f 629/1/8 630/1/8 632/1/8 628/1/8
f 671/1/41 672/1/41 628/1/41 627/1/41
f 672/1/42 673/1/42 629/1/42 628/1/42
f 634/1/1 633/1/1 676/1/1 675/1/1
f 638/1/2 637/1/2 679/1/2 680/1/2
f 635/1/3 634/1/3 675/1/3 677/1/3
f 639/1/4 638/1/4 680/1/4 681/1/4
f 647/1/5 638/1/5 639/1/5 648/1/5
f 649/1/8 650/1/8 705/1/8 704/1/8
f 634/1/5 647/1/5 648/1/5 633/1/5
f 634/1/5 635/1/5 636/1/5 647/1/5
f 637/1/5 638/1/5 647/1/5 636/1/5
f 699/1/8 700/1/8 650/1/8 649/1/8
f 699/1/8 649/1/8 702/1/8 642/1/8
f 644/1/8 702/1/8 649/1/8 704/1/8
f 635/1/39 677/1/39 678/1/39 636/1/39
f 636/1/40 678/1/40 679/1/40 637/1/40
f 651/1/11 682/1/11 676/1/11 633/1/11
f 655/1/12 686/1/12 685/1/12 654/1/12
f 652/1/13 683/1/13 682/1/13 651/1/13
f 639/1/14 681/1/14 686/1/14 655/1/14
f 661/1/5 648/1/5 639/1/5 655/1/5
f 662/1/8 710/1/8 705/1/8 650/1/8
f 651/1/5 633/1/5 648/1/5 661/1/5
f 651/1/5 661/1/5 653/1/5 652/1/5
f 654/1/5 653/1/5 661/1/5 655/1/5
f 706/1/8 662/1/8 650/1/8 700/1/8
f 706/1/8 657/1/8 708/1/8 662/1/8
f 659/1/8 710/1/8 662/1/8 708/1/8
f 652/1/41 653/1/41 684/1/41 683/1/41
f 653/1/42 654/1/42 685/1/42 684/1/42
f 604/1/5 603/1/5 664/1/5 663/1/5
f 689/1/5 604/1/5 663/1/5 665/1/5
f 606/1/5 689/1/5 665/1/5 666/1/5
f 691/1/5 606/1/5 666/1/5 667/1/5
f 608/1/5 691/1/5 667/1/5 668/1/5
f 609/1/5 608/1/5 668/1/5 669/1/5
f 603/1/5 621/1/5 670/1/5 664/1/5
f 621/1/5 695/1/5 671/1/5 670/1/5
f 695/1/5 623/1/5 672/1/5 671/1/5
f 623/1/5 697/1/5 673/1/5 672/1/5
f 697/1/5 625/1/5 674/1/5 673/1/5
f 625/1/5 609/1/5 669/1/5 674/1/5
f 640/1/8 641/1/8 675/1/8 676/1/8
f 641/1/8 701/1/8 677/1/8 675/1/8
f 701/1/8 643/1/8 678/1/8 677/1/8
f 643/1/8 703/1/8 679/1/8 678/1/8
f 703/1/8 645/1/8 680/1/8 679/1/8
f 645/1/8 646/1/8 681/1/8 680/1/8
f 656/1/8 640/1/8 676/1/8 682/1/8
f 707/1/8 656/1/8 682/1/8 683/1/8
f 658/1/8 707/1/8 683/1/8 684/1/8
f 709/1/8 658/1/8 684/1/8 685/1/8
f 660/1/8 709/1/8 685/1/8 686/1/8
f 646/1/8 660/1/8 686/1/8 681/1/8
f 736/1/13 656/1/13 707/1/13 735/1/13
f 731/1/12 709/1/12 660/1/12 732/1/12
f 740/1/2 739/1/2 645/1/2 703/1/2
f 728/1/3 727/1/3 701/1/3 641/1/3
f 738/1/2 737/1/2 657/1/2 706/1/2
f 733/1/3 734/1/3 710/1/3 659/1/3
f 742/1/13 644/1/13 704/1/13 741/1/13
f 730/1/12 699/1/12 642/1/12 729/1/12
f 701/1/8 642/1/8 702/1/8 643/1/8
f 711/1/43 689/1/43 605/1/43 713/1/43
f 689/1/5 606/1/5 690/1/5 605/1/5
f 606/1/5 691/1/5 607/1/5 690/1/5
f 720/1/44 722/1/44 607/1/44 691/1/44
f 643/1/8 702/1/8 644/1/8 703/1/8
f 640/1/8 656/1/8 706/1/8 700/1/8
f 716/1/45 621/1/45 694/1/45 718/1/45
f 603/1/5 688/1/5 694/1/5 621/1/5
f 603/1/5 604/1/5 687/1/5 688/1/5
f 712/1/46 714/1/46 687/1/46 604/1/46
f 640/1/8 700/1/8 699/1/8 641/1/8
f 658/1/8 709/1/8 659/1/8 708/1/8
f 723/1/47 697/1/47 624/1/47 725/1/47
f 623/1/5 696/1/5 624/1/5 697/1/5
f 695/1/5 622/1/5 696/1/5 623/1/5
f 715/1/48 717/1/48 622/1/48 695/1/48
f 707/1/8 658/1/8 708/1/8 657/1/8
f 645/1/8 704/1/8 705/1/8 646/1/8
f 719/1/49 608/1/49 692/1/49 721/1/49
f 608/1/5 609/1/5 693/1/5 692/1/5
f 625/1/5 698/1/5 693/1/5 609/1/5
f 724/1/50 726/1/50 698/1/50 625/1/50
f 660/1/8 646/1/8 705/1/8 710/1/8
f 687/1/12 714/1/12 713/1/12 605/1/12
f 604/1/3 689/1/3 711/1/3 712/1/3
f 694/1/2 622/1/2 717/1/2 718/1/2
f 621/1/13 716/1/13 715/1/13 695/1/13
f 607/1/13 722/1/13 721/1/13 692/1/13
f 691/1/2 608/1/2 719/1/2 720/1/2
f 624/1/3 698/1/3 726/1/3 725/1/3
f 697/1/12 723/1/12 724/1/12 625/1/12
f 701/1/43 727/1/43 729/1/43 642/1/43
f 641/1/46 699/1/46 730/1/46 728/1/46
f 709/1/47 731/1/47 733/1/47 659/1/47
f 660/1/50 710/1/50 734/1/50 732/1/50
f 656/1/45 736/1/45 738/1/45 706/1/45
f 707/1/48 657/1/48 737/1/48 735/1/48
f 703/1/44 644/1/44 742/1/44 740/1/44
f 645/1/49 739/1/49 741/1/49 704/1/49
f 805/65/5 801/66/5 743/9/5 783/67/5
f 802/68/5 798/69/5 748/70/5 768/71/5
f 811/72/5 807/73/5 751/74/5 770/75/5
f 814/76/5 810/77/5 749/78/5 785/79/5
f 812/80/5 808/81/5 754/82/5 774/83/5
f 803/84/5 799/85/5 753/86/5 775/87/5
f 813/88/5 809/89/5 757/90/5 779/91/5
f 804/92/5 800/93/5 755/94/5 780/95/5
f 795/96/5 792/97/5 762/98/5 781/99/5
f 794/100/5 791/101/5 761/102/5 776/103/5
f 793/104/5 790/105/5 759/106/5 771/107/5
f 796/108/5 788/109/5 760/110/5 786/111/5
f 822/112/5 819/113/5 767/114/5 782/115/5
f 821/116/5 818/117/5 766/118/5 777/119/5
f 823/120/5 815/121/5 763/122/5 787/123/5
f 820/124/5 817/125/5 765/126/5 772/127/5
f 818/117/5 820/124/5 772/127/5 766/118/5
f 791/101/5 793/104/5 771/107/5 761/102/5
f 808/81/5 811/72/5 770/75/5 754/82/5
f 799/85/5 802/68/5 768/71/5 753/86/5
f 816/128/5 821/116/5 777/119/5 764/129/5
f 789/130/5 794/100/5 776/103/5 758/131/5
f 797/132/5 803/84/5 775/87/5 745/10/5
f 806/133/5 812/80/5 774/83/5 750/134/5
f 817/125/5 822/112/5 782/115/5 765/126/5
f 790/105/5 795/96/5 781/99/5 759/106/5
f 798/69/5 804/92/5 780/95/5 748/70/5
f 807/73/5 813/88/5 779/91/5 751/74/5
f 819/113/5 823/120/5 787/123/5 767/114/5
f 792/97/5 796/108/5 786/111/5 762/98/5
f 809/89/5 814/76/5 785/79/5 757/90/5
f 800/93/5 805/65/5 783/67/5 755/94/5
f 757/90/5 785/79/5 796/108/5 792/97/5
f 751/74/5 779/91/5 795/96/5 790/105/5
f 750/134/5 774/83/5 794/100/5 789/130/5
f 754/82/5 770/75/5 793/104/5 791/101/5
f 785/79/5 749/78/5 788/109/5 796/108/5
f 770/75/5 751/74/5 790/105/5 793/104/5
f 774/83/5 754/82/5 791/101/5 794/100/5
f 779/91/5 757/90/5 792/97/5 795/96/5
f 762/98/5 786/111/5 805/65/5 800/93/5
f 759/106/5 781/99/5 804/92/5 798/69/5
f 758/131/5 776/103/5 803/84/5 797/132/5
f 761/102/5 771/107/5 802/68/5 799/85/5
f 781/99/5 762/98/5 800/93/5 804/92/5
f 776/103/5 761/102/5 799/85/5 803/84/5
f 771/107/5 759/106/5 798/69/5 802/68/5
f 786/111/5 760/110/5 801/66/5 805/65/5
f 767/114/5 787/123/5 814/76/5 809/89/5
f 765/126/5 782/115/5 813/88/5 807/73/5
f 764/129/5 777/119/5 812/80/5 806/133/5
f 766/118/5 772/127/5 811/72/5 808/81/5
f 782/115/5 767/114/5 809/89/5 813/88/5
f 777/119/5 766/118/5 808/81/5 812/80/5
f 787/123/5 763/122/5 810/77/5 814/76/5
f 772/127/5 765/126/5 807/73/5 811/72/5
f 756/135/5 784/136/5 823/120/5 819/113/5
f 747/137/5 778/138/5 822/112/5 817/125/5
f 746/6/5 773/139/5 821/116/5 816/128/5
f 752/140/5 769/141/5 820/124/5 818/117/5
f 769/141/5 747/137/5 817/125/5 820/124/5
f 784/136/5 744/8/5 815/121/5 823/120/5
f 773/139/5 752/140/5 818/117/5 821/116/5
f 778/138/5 756/135/5 819/113/5 822/112/5
f 904/65/8 830/67/8 831/9/8 865/66/8
f 892/68/8 834/71/8 835/70/8 836/69/8
f 891/72/8 849/75/8 842/74/8 841/73/8
f 903/76/8 857/79/8 838/78/8 875/77/8
f 896/80/8 843/83/8 850/82/8 851/81/8
f 895/84/8 847/87/8 848/86/8 852/85/8
f 900/88/8 844/91/8 858/90/8 859/89/8
f 899/92/8 853/95/8 854/94/8 860/93/8
f 898/96/8 871/99/8 870/98/8 869/97/8
f 894/100/8 872/103/8 868/102/8 867/101/8
f 890/104/8 873/107/8 864/106/8 863/105/8
f 902/108/8 874/111/8 866/110/8 837/109/8
f 897/112/8 885/115/8 884/114/8 883/113/8
f 893/116/8 886/119/8 882/118/8 881/117/8
f 901/120/8 887/123/8 876/122/8 824/121/8
f 889/124/8 888/127/8 880/126/8 879/125/8
f 881/117/8 882/118/8 888/127/8 889/124/8
f 867/101/8 868/102/8 873/107/8 890/104/8
f 851/81/8 850/82/8 849/75/8 891/72/8
f 852/85/8 848/86/8 834/71/8 892/68/8
f 877/128/8 878/129/8 886/119/8 893/116/8
f 861/130/8 862/131/8 872/103/8 894/100/8
f 828/132/8 829/10/8 847/87/8 895/84/8
f 839/133/8 840/134/8 843/83/8 896/80/8
f 879/125/8 880/126/8 885/115/8 897/112/8
f 863/105/8 864/106/8 871/99/8 898/96/8
f 836/69/8 835/70/8 853/95/8 899/92/8
f 841/73/8 842/74/8 844/91/8 900/88/8
f 883/113/8 884/114/8 887/123/8 901/120/8
f 869/97/8 870/98/8 874/111/8 902/108/8
f 859/89/8 858/90/8 857/79/8 903/76/8
f 860/93/8 854/94/8 830/67/8 904/65/8
f 858/90/8 869/97/8 902/108/8 857/79/8
f 842/74/8 863/105/8 898/96/8 844/91/8
f 840/134/8 861/130/8 894/100/8 843/83/8
f 850/82/8 867/101/8 890/104/8 849/75/8
f 857/79/8 902/108/8 837/109/8 838/78/8
f 849/75/8 890/104/8 863/105/8 842/74/8
f 843/83/8 894/100/8 867/101/8 850/82/8
f 844/91/8 898/96/8 869/97/8 858/90/8
f 870/98/8 860/93/8 904/65/8 874/111/8
f 864/106/8 836/69/8 899/92/8 871/99/8
f 862/131/8 828/132/8 895/84/8 872/103/8
f 868/102/8 852/85/8 892/68/8 873/107/8
f 871/99/8 899/92/8 860/93/8 870/98/8
f 872/103/8 895/84/8 852/85/8 868/102/8
f 873/107/8 892/68/8 836/69/8 864/106/8
f 874/111/8 904/65/8 865/66/8 866/110/8
f 884/114/8 859/89/8 903/76/8 887/123/8
f 880/126/8 841/73/8 900/88/8 885/115/8
f 878/129/8 839/133/8 896/80/8 886/119/8
f 882/118/8 851/81/8 891/72/8 888/127/8
f 885/115/8 900/88/8 859/89/8 884/114/8
f 886/119/8 896/80/8 851/81/8 882/118/8
f 887/123/8 903/76/8 875/77/8 876/122/8
f 888/127/8 891/72/8 841/73/8 880/126/8
f 856/135/8 883/113/8 901/120/8 855/136/8
f 833/137/8 879/125/8 897/112/8 832/138/8
f 827/6/8 877/128/8 893/116/8 826/139/8
f 846/140/8 881/117/8 889/124/8 845/141/8
f 845/141/8 889/124/8 879/125/8 833/137/8
f 855/136/8 901/120/8 824/121/8 825/8/8
f 826/139/8 893/116/8 881/117/8 846/140/8
f 832/138/8 897/112/8 883/113/8 856/135/8
f 815/121/51 824/121/51 876/122/51 763/122/51
f 780/95/52 853/95/52 835/70/52 748/70/52
f 810/77/53 875/77/53 838/78/53 749/78/53
f 749/78/54 838/78/54 837/109/54 788/109/54
f 816/128/55 877/128/55 827/6/55 746/6/55
f 750/134/56 840/134/56 839/133/56 806/133/56
f 758/131/57 862/131/57 861/130/57 789/130/57
f 773/139/58 826/139/58 846/140/58 752/140/58
f 788/109/59 837/109/59 866/110/59 760/110/59
f 789/130/60 861/130/60 840/134/60 750/134/60
f 760/110/61 866/110/61 865/66/61 801/66/61
f 775/87/62 847/87/62 829/10/62 745/10/62
f 752/140/63 846/140/63 845/141/63 769/141/63
f 797/132/64 828/132/64 862/131/64 758/131/64
f 753/86/65 848/86/65 847/87/65 775/87/65
f 768/71/66 834/71/66 848/86/66 753/86/66
f 783/67/67 830/67/67 854/94/67 755/94/67
f 744/8/68 825/8/68 824/121/68 815/121/68
f 769/141/69 845/141/69 833/137/69 747/137/69
f 784/136/70 855/136/70 825/8/70 744/8/70
f 746/6/71 827/6/71 826/139/71 773/139/71
f 745/10/72 829/10/72 828/132/72 797/132/72
f 806/133/73 839/133/73 878/129/73 764/129/73
f 743/9/74 831/9/74 830/67/74 783/67/74
f 801/66/75 865/66/75 831/9/75 743/9/75
f 755/94/76 854/94/76 853/95/76 780/95/76
f 747/137/77 833/137/77 832/138/77 778/138/77
f 763/122/78 876/122/78 875/77/78 810/77/78
f 778/138/79 832/138/79 856/135/79 756/135/79
f 756/135/80 856/135/80 855/136/80 784/136/80
f 748/70/81 835/70/81 834/71/81 768/71/81
f 764/129/82 878/129/82 877/128/82 816/128/82
f 967/65/5 963/66/5 905/9/5 945/67/5
f 964/68/5 960/69/5 910/70/5 930/71/5
f 973/72/5 969/73/5 913/74/5 932/75/5
f 976/76/5 972/77/5 911/78/5 947/79/5
f 974/80/5 970/81/5 916/82/5 936/83/5
f 965/84/5 961/85/5 915/86/5 937/87/5
f 975/88/5 971/89/5 919/90/5 941/91/5
f 966/92/5 962/93/5 917/94/5 942/95/5
f 957/96/5 954/97/5 924/98/5 943/99/5
f 956/100/5 953/101/5 923/102/5 938/103/5
f 955/104/5 952/105/5 921/106/5 933/107/5
f 958/108/5 950/109/5 922/110/5 948/111/5
f 984/112/5 981/113/5 929/114/5 944/115/5
f 983/116/5 980/117/5 928/118/5 939/119/5
f 985/120/5 977/121/5 925/122/5 949/123/5
f 982/124/5 979/125/5 927/126/5 934/127/5
f 980/117/5 982/124/5 934/127/5 928/118/5
f 953/101/5 955/104/5 933/107/5 923/102/5
f 970/81/5 973/72/5 932/75/5 916/82/5
f 961/85/5 964/68/5 930/71/5 915/86/5
f 978/128/5 983/116/5 939/119/5 926/129/5
f 951/130/5 956/100/5 938/103/5 920/131/5
f 959/132/5 965/84/5 937/87/5 907/10/5
f 968/133/5 974/80/5 936/83/5 912/134/5
f 979/125/5 984/112/5 944/115/5 927/126/5
f 952/105/5 957/96/5 943/99/5 921/106/5
f 960/69/5 966/92/5 942/95/5 910/70/5
f 969/73/5 975/88/5 941/91/5 913/74/5
f 981/113/5 985/120/5 949/123/5 929/114/5
f 954/97/5 958/108/5 948/111/5 924/98/5
f 971/89/5 976/76/5 947/79/5 919/90/5
f 962/93/5 967/65/5 945/67/5 917/94/5
f 919/90/5 947/79/5 958/108/5 954/97/5
f 913/74/5 941/91/5 957/96/5 952/105/5
f 912/134/5 936/83/5 956/100/5 951/130/5
f 916/82/5 932/75/5 955/104/5 953/101/5
f 947/79/5 911/78/5 950/109/5 958/108/5
f 932/75/5 913/74/5 952/105/5 955/104/5
f 936/83/5 916/82/5 953/101/5 956/100/5
f 941/91/5 919/90/5 954/97/5 957/96/5
f 924/98/5 948/111/5 967/65/5 962/93/5
f 921/106/5 943/99/5 966/92/5 960/69/5
f 920/131/5 938/103/5 965/84/5 959/132/5
f 923/102/5 933/107/5 964/68/5 961/85/5
f 943/99/5 924/98/5 962/93/5 966/92/5
f 938/103/5 923/102/5 961/85/5 965/84/5
f 933/107/5 921/106/5 960/69/5 964/68/5
f 948/111/5 922/110/5 963/66/5 967/65/5
f 929/114/5 949/123/5 976/76/5 971/89/5
f 927/126/5 944/115/5 975/88/5 969/73/5
f 926/129/5 939/119/5 974/80/5 968/133/5
f 928/118/5 934/127/5 973/72/5 970/81/5
f 944/115/5 929/114/5 971/89/5 975/88/5
f 939/119/5 928/118/5 970/81/5 974/80/5
f 949/123/5 925/122/5 972/77/5 976/76/5
f 934/127/5 927/126/5 969/73/5 973/72/5
f 918/135/5 946/136/5 985/120/5 981/113/5
f 909/137/5 940/138/5 984/112/5 979/125/5
f 908/6/5 935/139/5 983/116/5 978/128/5
f 914/140/5 931/141/5 982/124/5 980/117/5
f 931/141/5 909/137/5 979/125/5 982/124/5
f 946/136/5 906/8/5 977/121/5 985/120/5
f 935/139/5 914/140/5 980/117/5 983/116/5
f 940/138/5 918/135/5 981/113/5 984/112/5
f 1066/65/8 992/67/8 993/9/8 1027/66/8
f 1054/68/8 996/71/8 997/70/8 998/69/8
f 1053/72/8 1011/75/8 1004/74/8 1003/73/8
f 1065/76/8 1019/79/8 1000/78/8 1037/77/8
f 1058/80/8 1005/83/8 1012/82/8 1013/81/8
f 1057/84/8 1009/87/8 1010/86/8 1014/85/8
f 1062/88/8 1006/91/8 1020/90/8 1021/89/8
f 1061/92/8 1015/95/8 1016/94/8 1022/93/8
f 1060/96/8 1033/99/8 1032/98/8 1031/97/8
f 1056/100/8 1034/103/8 1030/102/8 1029/101/8
f 1052/104/8 1035/107/8 1026/106/8 1025/105/8
f 1064/108/8 1036/111/8 1028/110/8 999/109/8
f 1059/112/8 1047/115/8 1046/114/8 1045/113/8
f 1055/116/8 1048/119/8 1044/118/8 1043/117/8
f 1063/120/8 1049/123/8 1038/122/8 986/121/8
f 1051/124/8 1050/127/8 1042/126/8 1041/125/8
f 1043/117/8 1044/118/8 1050/127/8 1051/124/8
f 1029/101/8 1030/102/8 1035/107/8 1052/104/8
f 1013/81/8 1012/82/8 1011/75/8 1053/72/8
f 1014/85/8 1010/86/8 996/71/8 1054/68/8
f 1039/128/8 1040/129/8 1048/119/8 1055/116/8
f 1023/130/8 1024/131/8 1034/103/8 1056/100/8
f 990/132/8 991/10/8 1009/87/8 1057/84/8
f 1001/133/8 1002/134/8 1005/83/8 1058/80/8
f 1041/125/8 1042/126/8 1047/115/8 1059/112/8
f 1025/105/8 1026/106/8 1033/99/8 1060/96/8
f 998/69/8 997/70/8 1015/95/8 1061/92/8
f 1003/73/8 1004/74/8 1006/91/8 1062/88/8
f 1045/113/8 1046/114/8 1049/123/8 1063/120/8
f 1031/97/8 1032/98/8 1036/111/8 1064/108/8
f 1021/89/8 1020/90/8 1019/79/8 1065/76/8
f 1022/93/8 1016/94/8 992/67/8 1066/65/8
f 1020/90/8 1031/97/8 1064/108/8 1019/79/8
f 1004/74/8 1025/105/8 1060/96/8 1006/91/8
f 1002/134/8 1023/130/8 1056/100/8 1005/83/8
f 1012/82/8 1029/101/8 1052/104/8 1011/75/8
f 1019/79/8 1064/108/8 999/109/8 1000/78/8
f 1011/75/8 1052/104/8 1025/105/8 1004/74/8
f 1005/83/8 1056/100/8 1029/101/8 1012/82/8
f 1006/91/8 1060/96/8 1031/97/8 1020/90/8
f 1032/98/8 1022/93/8 1066/65/8 1036/111/8
f 1026/106/8 998/69/8 1061/92/8 1033/99/8
f 1024/131/8 990/132/8 1057/84/8 1034/103/8
f 1030/102/8 1014/85/8 1054/68/8 1035/107/8
f 1033/99/8 1061/92/8 1022/93/8 1032/98/8
f 1034/103/8 1057/84/8 1014/85/8 1030/102/8
f 1035/107/8 1054/68/8 998/69/8 1026/106/8
f 1036/111/8 1066/65/8 1027/66/8 1028/110/8
f 1046/114/8 1021/89/8 1065/76/8 1049/123/8
f 1042/126/8 1003/73/8 1062/88/8 1047/115/8
f 1040/129/8 1001/133/8 1058/80/8 1048/119/8
f 1044/118/8 1013/81/8 1053/72/8 1050/127/8
f 1047/115/8 1062/88/8 1021/89/8 1046/114/8
f 1048/119/8 1058/80/8 1013/81/8 1044/118/8
f 1049/123/8 1065/76/8 1037/77/8 1038/122/8
f 1050/127/8 1053/72/8 1003/73/8 1042/126/8
f 1018/135/8 1045/113/8 1063/120/8 1017/136/8
f 995/137/8 1041/125/8 1059/112/8 994/138/8
f 989/6/8 1039/128/8 1055/116/8 988/139/8
f 1008/140/8 1043/117/8 1051/124/8 1007/141/8
f 1007/141/8 1051/124/8 1041/125/8 995/137/8
f 1017/136/8 1063/120/8 986/121/8 987/8/8
f 988/139/8 1055/116/8 1043/117/8 1008/140/8
f 994/138/8 1059/112/8 1045/113/8 1018/135/8
f 977/121/51 986/121/51 1038/122/51 925/122/51
f 942/95/52 1015/95/52 997/70/52 910/70/52
f 972/77/53 1037/77/53 1000/78/53 911/78/53
f 911/78/54 1000/78/54 999/109/54 950/109/54
f 978/128/55 1039/128/55 989/6/55 908/6/55
f 912/134/56 1002/134/56 1001/133/56 968/133/56
f 920/131/57 1024/131/57 1023/130/57 951/130/57
f 935/139/58 988/139/58 1008/140/58 914/140/58
f 950/109/59 999/109/59 1028/110/59 922/110/59
f 951/130/60 1023/130/60 1002/134/60 912/134/60
f 922/110/61 1028/110/61 1027/66/61 963/66/61
f 937/87/62 1009/87/62 991/10/62 907/10/62
f 914/140/63 1008/140/63 1007/141/63 931/141/63
f 959/132/64 990/132/64 1024/131/64 920/131/64
f 915/86/65 1010/86/65 1009/87/65 937/87/65
f 930/71/66 996/71/66 1010/86/66 915/86/66
f 945/67/67 992/67/67 1016/94/67 917/94/67
f 906/8/68 987/8/68 986/121/68 977/121/68
f 931/141/69 1007/141/69 995/137/69 909/137/69
f 946/136/70 1017/136/70 987/8/70 906/8/70
f 908/6/71 989/6/71 988/139/71 935/139/71
f 907/10/72 991/10/72 990/132/72 959/132/72
f 968/133/73 1001/133/73 1040/129/73 926/129/73
f 905/9/74 993/9/74 992/67/74 945/67/74
f 963/66/75 1027/66/75 993/9/75 905/9/75
f 917/94/76 1016/94/76 1015/95/76 942/95/76
f 909/137/77 995/137/77 994/138/77 940/138/77
f 925/122/78 1038/122/78 1037/77/78 972/77/78
f 940/138/79 994/138/79 1018/135/79 918/135/79
f 918/135/80 1018/135/80 1017/136/80 946/136/80
f 910/70/81 997/70/81 996/71/81 930/71/81
f 926/129/82 1040/129/82 1039/128/82 978/128/82
f 1068/1/5 1072/1/5 1070/1/5 1069/1/5
f 1067/1/8 1071/1/8 1073/1/8 1074/1/8
f 1068/1/9 1067/1/9 1074/1/9 1072/1/9
f 1069/1/10 1071/1/10 1067/1/10 1068/1/10
f 1072/1/7 1074/1/7 1073/1/7 1070/1/7
f 1070/1/6 1073/1/6 1071/1/6 1069/1/6
f 1076/1/5 1077/1/5 1078/1/5 1080/1/5
f 1075/1/8 1082/1/8 1081/1/8 1079/1/8
f 1076/1/9 1080/1/9 1082/1/9 1075/1/9
f 1077/1/7 1076/1/7 1075/1/7 1079/1/7
f 1080/1/10 1078/1/10 1081/1/10 1082/1/10
f 1078/1/6 1077/1/6 1079/1/6 1081/1/6
f 1083/2/7 1084/3/7 1086/4/7 1085/5/7
f 1085/5/9 1086/4/9 1090/6/9 1089/7/9
f 1089/7/10 1090/6/10 1088/10/10 1087/12/10
f 1087/12/6 1088/10/6 1084/14/6 1083/15/6
f 1085/11/8 1089/7/8 1087/12/8 1083/13/8
f 1090/6/5 1086/8/5 1084/9/5 1088/10/5
f 1091/2/7 1092/3/7 1094/4/7 1093/5/7
f 1093/5/9 1094/4/9 1098/6/9 1097/7/9
f 1097/7/10 1098/6/10 1096/10/10 1095/12/10
f 1095/12/6 1096/10/6 1092/14/6 1091/15/6
f 1093/11/8 1097/7/8 1095/12/8 1091/13/8
f 1098/6/5 1094/8/5 1092/9/5 1096/10/5
f 1099/2/7 1100/3/7 1102/4/7 1101/5/7
f 1101/5/9 1102/4/9 1106/6/9 1105/7/9
f 1105/7/10 1106/6/10 1104/10/10 1103/12/10
f 1103/12/6 1104/10/6 1100/14/6 1099/15/6
f 1101/11/8 1105/7/8 1103/12/8 1099/13/8
f 1106/6/5 1102/8/5 1100/9/5 1104/10/5
f 1107/2/7 1108/3/7 1110/4/7 1109/5/7
f 1109/5/9 1110/4/9 1114/6/9 1113/7/9
f 1113/7/10 1114/6/10 1112/10/10 1111/12/10
f 1111/12/6 1112/10/6 1108/14/6 1107/15/6
f 1109/11/8 1113/7/8 1111/12/8 1107/13/8
f 1114/6/5 1110/8/5 1108/9/5 1112/10/5
f 1115/2/7 1116/3/7 1118/4/7 1117/5/7
f 1117/5/9 1118/4/9 1122/6/9 1121/7/9
f 1121/7/10 1122/6/10 1120/10/10 1119/12/10
f 1119/12/6 1120/10/6 1116/14/6 1115/15/6
f 1117/11/8 1121/7/8 1119/12/8 1115/13/8
f 1122/6/5 1118/8/5 1116/9/5 1120/10/5
f 1123/2/10 1125/5/10 1126/4/10 1124/3/10
f 1125/5/9 1129/7/9 1130/6/9 1126/4/9
f 1129/7/7 1127/12/7 1128/10/7 1130/6/7
f 1127/12/6 1123/15/6 1124/14/6 1128/10/6
f 1125/11/8 1123/13/8 1127/12/8 1129/7/8
f 1130/6/5 1128/10/5 1124/9/5 1126/8/5
f 1131/2/10 1133/5/10 1134/4/10 1132/3/10
f 1133/5/9 1137/7/9 1138/6/9 1134/4/9
f 1137/7/7 1135/12/7 1136/10/7 1138/6/7
f 1135/12/6 1131/15/6 1132/14/6 1136/10/6
f 1133/11/8 1131/13/8 1135/12/8 1137/7/8
f 1138/6/5 1136/10/5 1132/9/5 1134/8/5
f 1139/2/10 1141/5/10 1142/4/10 1140/3/10
f 1141/5/9 1145/7/9 1146/6/9 1142/4/9
f 1145/7/7 1143/12/7 1144/10/7 1146/6/7
f 1143/12/6 1139/15/6 1140/14/6 1144/10/6
f 1141/11/8 1139/13/8 1143/12/8 1145/7/8
f 1146/6/5 1144/10/5 1140/9/5 1142/8/5
f 1147/2/10 1149/5/10 1150/4/10 1148/3/10
f 1149/5/9 1153/7/9 1154/6/9 1150/4/9
f 1153/7/7 1151/12/7 1152/10/7 1154/6/7
f 1151/12/6 1147/15/6 1148/14/6 1152/10/6
f 1149/11/8 1147/13/8 1151/12/8 1153/7/8
f 1154/6/5 1152/10/5 1148/9/5 1150/8/5
f 1155/2/10 1157/5/10 1158/4/10 1156/3/10
f 1157/5/9 1161/7/9 1162/6/9 1158/4/9
f 1161/7/7 1159/12/7 1160/10/7 1162/6/7
f 1159/12/6 1155/15/6 1156/14/6 1160/10/6
f 1157/11/8 1155/13/8 1159/12/8 1161/7/8
f 1162/6/5 1160/10/5 1156/9/5 1158/8/5
