# Blender 5.1.1
# www.blender.org
mtllib PanopticonWalls.mtl
o PanopticonWalls
v -37.052685 -38.800262 7.368772
v -37.052685 23.920155 7.368772
v -37.778591 -38.800262 -0.001464
v -37.778591 23.920155 -0.001464
v -37.052685 -38.800262 -7.371701
v -37.052685 23.920155 -7.371701
v -34.902863 -38.800262 -14.458703
v -34.902863 23.920155 -14.458703
v -31.411753 -38.800262 -20.990126
v -31.411753 23.920155 -20.990126
v -26.713501 -38.800262 -26.714962
v -26.713501 23.920155 -26.714962
v -20.988665 -38.800262 -31.413212
v -20.988665 23.920155 -31.413212
v -14.457250 -38.800262 -34.904324
v -14.457250 23.920155 -34.904324
v -7.370242 -38.800262 -37.054142
v -7.370242 23.920155 -37.054142
v 0.000000 -38.800262 -37.780048
v 0.000000 23.920155 -37.780048
v -37.052685 0.100005 7.368772
v -37.778591 0.100005 -0.001464
v -37.052685 0.100005 -7.371701
v -34.902863 0.100005 -14.458703
v -31.411753 0.100005 -20.990126
v -26.713501 0.100005 -26.714962
v -20.988665 0.100005 -31.413212
v -14.457250 0.100005 -34.904324
v -7.370242 0.100005 -37.054142
v 0.000000 0.100005 -37.780048
v -37.052685 4.300015 7.368772
v -37.778591 4.300015 -0.001464
v -37.052685 4.300015 -7.371701
v -34.902863 4.300015 -14.458703
v -31.411753 4.300015 -20.990126
v -26.713501 4.300015 -26.714962
v -20.988665 4.300015 -31.413212
v -14.457250 4.300015 -34.904324
v -7.370242 4.300015 -37.054142
v 0.000000 4.300015 -37.780048
v -37.544594 -38.800262 -2.377266
v -37.544594 23.920155 -2.377266
v -37.532330 0.100005 -2.501782
v -37.532330 4.300015 -2.501782
v -37.532001 -38.800262 2.502181
v -37.532001 23.920155 2.502182
v -37.532001 0.100005 2.502181
v -37.532001 4.300015 2.502181
v 37.052685 -38.800262 7.368772
v 37.052685 23.920155 7.368772
v 37.778591 -38.800262 -0.001464
v 37.778591 23.920155 -0.001464
v 37.052685 -38.800262 -7.371701
v 37.052685 23.920155 -7.371701
v 34.902863 -38.800262 -14.458703
v 34.902863 23.920155 -14.458703
v 31.411753 -38.800262 -20.990126
v 31.411753 23.920155 -20.990126
v 26.713501 -38.800262 -26.714962
v 26.713501 23.920155 -26.714962
v 20.988665 -38.800262 -31.413212
v 20.988665 23.920155 -31.413212
v 14.457250 -38.800262 -34.904324
v 14.457250 23.920155 -34.904324
v 7.370242 -38.800262 -37.054142
v 7.370242 23.920155 -37.054142
v 37.052685 0.100005 7.368772
v 37.778591 0.100005 -0.001464
v 37.052685 0.100005 -7.371701
v 34.902863 0.100005 -14.458703
v 31.411753 0.100005 -20.990126
v 26.713501 0.100005 -26.714962
v 20.988665 0.100005 -31.413212
v 14.457250 0.100005 -34.904324
v 7.370242 0.100005 -37.054142
v 37.052685 4.300015 7.368772
v 37.778591 4.300015 -0.001464
v 37.052685 4.300015 -7.371701
v 34.902863 4.300015 -14.458703
v 31.411753 4.300015 -20.990126
v 26.713501 4.300015 -26.714962
v 20.988665 4.300015 -31.413212
v 14.457250 4.300015 -34.904324
v 7.370242 4.300015 -37.054142
v 37.544594 -38.800262 -2.377266
v 37.544594 23.920155 -2.377266
v 37.532330 0.100005 -2.501782
v 37.532330 4.300015 -2.501782
v 37.532001 -38.800262 2.502181
v 37.532001 23.920155 2.502182
v 37.532001 0.100005 2.502181
v 37.532001 4.300015 2.502181
vn 0.9952 -0.0000 -0.0980
vn 0.9952 -0.0000 0.0980
vn 0.9569 -0.0000 0.2903
vn 0.8819 -0.0000 0.4714
vn 0.7730 -0.0000 0.6344
vn 0.6344 -0.0000 0.7730
vn 0.4714 -0.0000 0.8819
vn 0.2903 -0.0000 0.9569
vn 0.0980 -0.0000 0.9952
vn -0.9952 -0.0000 -0.0980
vn -0.9952 -0.0000 0.0980
vn -0.9569 -0.0000 0.2903
vn -0.8819 -0.0000 0.4714
vn -0.7730 -0.0000 0.6344
vn -0.6344 -0.0000 0.7730
vn -0.4714 -0.0000 0.8819
vn -0.2903 -0.0000 0.9569
vn -0.0980 -0.0000 0.9952
vt 0.760616 0.875000
vt 0.750000 0.875000
vt 0.750000 1.000000
vt 0.760615 1.000000
vt 0.739399 0.875000
vt 0.718750 0.875000
vt 0.718750 1.000000
vt 0.739927 1.000000
vt 0.687500 0.875000
vt 0.687500 1.000000
vt 0.656250 0.875000
vt 0.656250 1.000000
vt 0.625000 0.875000
vt 0.625000 1.000000
vt 0.593750 0.875000
vt 0.593750 1.000000
vt 0.562500 0.875000
vt 0.562500 1.000000
vt 0.531250 0.875000
vt 0.531250 1.000000
vt 0.500000 0.875000
vt 0.500000 1.000000
vt 0.531250 0.500000
vt 0.500000 0.500000
vt 0.500000 0.750000
vt 0.531250 0.750000
vt 0.562500 0.500000
vt 0.562500 0.750000
vt 0.593750 0.500000
vt 0.593750 0.750000
vt 0.625000 0.500000
vt 0.625000 0.750000
vt 0.656250 0.500000
vt 0.656250 0.750000
vt 0.687500 0.500000
vt 0.687500 0.750000
vt 0.718750 0.500000
vt 0.718750 0.750000
vt 0.739927 0.500000
vt 0.739399 0.750000
vt 0.760615 0.500000
vt 0.750000 0.500000
vt 0.750000 0.750000
vt 0.760615 0.750000
vt 0.781250 0.750000
vt 0.781250 0.875000
vt 0.781250 0.500000
vt 0.781250 1.000000
s 0
usemtl Material
f 48/1/1 32/2/1 4/3/1 46/4/1
f 44/5/2 33/6/2 6/7/2 42/8/2
f 33/6/3 34/9/3 8/10/3 6/7/3
f 34/9/4 35/11/4 10/12/4 8/10/4
f 35/11/5 36/13/5 12/14/5 10/12/5
f 36/13/6 37/15/6 14/16/6 12/14/6
f 37/15/7 38/17/7 16/18/7 14/16/7
f 38/17/8 39/19/8 18/20/8 16/18/8
f 39/19/9 40/21/9 20/22/9 18/20/9
f 17/23/9 19/24/9 30/25/9 29/26/9
f 15/27/8 17/23/8 29/26/8 28/28/8
f 13/29/7 15/27/7 28/28/7 27/30/7
f 11/31/6 13/29/6 27/30/6 26/32/6
f 9/33/5 11/31/5 26/32/5 25/34/5
f 7/35/4 9/33/4 25/34/4 24/36/4
f 5/37/3 7/35/3 24/36/3 23/38/3
f 41/39/2 5/37/2 23/38/2 43/40/2
f 45/41/1 3/42/1 22/43/1 47/44/1
f 29/26/9 30/25/9 40/21/9 39/19/9
f 28/28/8 29/26/8 39/19/8 38/17/8
f 27/30/7 28/28/7 38/17/7 37/15/7
f 26/32/6 27/30/6 37/15/6 36/13/6
f 25/34/5 26/32/5 36/13/5 35/11/5
f 24/36/4 25/34/4 35/11/4 34/9/4
f 23/38/3 24/36/3 34/9/3 33/6/3
f 43/40/2 23/38/2 33/6/2 44/5/2
f 3/42/2 41/39/2 43/40/2 22/43/2
f 32/2/2 44/5/2 42/8/2 4/3/2
f 21/45/1 47/44/1 48/1/1 31/46/1
f 1/47/1 45/41/1 47/44/1 21/45/1
f 31/46/1 48/1/1 46/4/1 2/48/1
f 92/1/10 90/4/10 52/3/10 77/2/10
f 88/5/11 86/8/11 54/7/11 78/6/11
f 78/6/12 54/7/12 56/10/12 79/9/12
f 79/9/13 56/10/13 58/12/13 80/11/13
f 80/11/14 58/12/14 60/14/14 81/13/14
f 81/13/15 60/14/15 62/16/15 82/15/15
f 82/15/16 62/16/16 64/18/16 83/17/16
f 83/17/17 64/18/17 66/20/17 84/19/17
f 84/19/18 66/20/18 20/22/18 40/21/18
f 65/23/18 75/26/18 30/25/18 19/24/18
f 63/27/17 74/28/17 75/26/17 65/23/17
f 61/29/16 73/30/16 74/28/16 63/27/16
f 59/31/15 72/32/15 73/30/15 61/29/15
f 57/33/14 71/34/14 72/32/14 59/31/14
f 55/35/13 70/36/13 71/34/13 57/33/13
f 53/37/12 69/38/12 70/36/12 55/35/12
f 85/39/11 87/40/11 69/38/11 53/37/11
f 89/41/10 91/44/10 68/43/10 51/42/10
f 75/26/18 84/19/18 40/21/18 30/25/18
f 74/28/17 83/17/17 84/19/17 75/26/17
f 73/30/16 82/15/16 83/17/16 74/28/16
f 72/32/15 81/13/15 82/15/15 73/30/15
f 71/34/14 80/11/14 81/13/14 72/32/14
f 70/36/13 79/9/13 80/11/13 71/34/13
f 69/38/12 78/6/12 79/9/12 70/36/12
f 87/40/11 88/5/11 78/6/11 69/38/11
f 51/42/11 68/43/11 87/40/11 85/39/11
f 77/2/11 52/3/11 86/8/11 88/5/11
f 67/45/10 76/46/10 92/1/10 91/44/10
f 49/47/10 67/45/10 91/44/10 89/41/10
f 76/46/10 50/48/10 90/4/10 92/1/10
