# Blender 5.1.2
# www.blender.org
mtllib PanopticonAccessBridge.mtl
o PanopticonAccessBridge
v 25.485661 0.200190 -2.477878
v 25.485661 0.500000 -2.477878
v 25.485661 0.200190 2.477878
v 25.485661 0.500000 2.477878
v -1.000000 0.200190 -2.477878
v -1.000000 0.500000 -2.477878
v -1.000000 0.200190 2.477878
v -1.000000 0.500000 2.477878
v 5.621415 -2.056949 2.477878
v 5.621415 -2.056949 -2.477878
v -1.000000 -6.129527 2.477878
v -1.000000 -6.129527 -2.477878
v 5.621415 0.500000 2.477878
v 5.621415 0.200190 -2.477878
v 5.621415 0.200190 2.477878
v 5.621415 0.500000 -2.477878
v 0.875818 -6.129527 2.477878
v 0.875818 0.500000 2.477878
v 0.875818 0.200190 -2.477878
v 0.875818 -6.129527 -2.477878
v 0.875818 0.200190 2.477878
v 0.875818 0.500000 -2.477878
v 25.485661 0.200190 2.177907
v 25.485661 0.200190 -2.177907
v 25.485661 0.500000 -2.177907
v 25.485661 0.500000 2.177907
v -1.000000 0.200190 -2.177907
v -1.000000 0.200190 2.177907
v -1.000000 0.500000 2.177907
v -1.000000 0.500000 -2.177907
v 5.621415 -2.056949 2.177907
v 5.621415 -2.056949 -2.177907
v -1.000000 -6.129527 -2.177907
v -1.000000 -6.129527 2.177907
v 5.621415 0.500000 2.177907
v 5.621415 0.500000 -2.177907
v 5.621415 0.200190 2.177907
v 5.621415 0.200190 -2.177907
v 0.875818 0.500000 2.177907
v 0.875818 0.500000 -2.177907
v 0.875818 -6.129527 2.177907
v 0.875818 -6.129527 -2.177907
v 25.185757 0.200190 2.477878
v 25.185755 0.500000 2.477878
v 25.185755 0.500000 2.177907
v 25.185757 0.200190 2.177907
v 25.185757 0.500000 -2.477878
v 25.185755 0.200190 -2.477878
v 25.185755 0.500000 -2.177907
v 25.185757 0.200190 -2.177907
vn 1.0000 -0.0000 -0.0000
vn -1.0000 -0.0000 -0.0000
vn -0.0000 -1.0000 -0.0000
vn -0.0000 -0.0000 -1.0000
vn -0.0000 -0.0000 1.0000
vn -0.0000 1.0000 -0.0000
vn 0.6512 -0.7589 -0.0000
vt 0.375000 0.166667
vt 0.625000 0.166667
vt 0.625000 0.250000
vt 0.375000 0.250000
vt 0.375000 0.666667
vt 0.625000 0.666667
vt 0.625000 0.750000
vt 0.375000 0.750000
vt 0.357294 0.666667
vt 0.357294 0.750000
vt 0.375000 0.906250
vt 0.625000 0.906250
vt 0.625000 1.000000
vt 0.375000 1.000000
vt 0.375000 0.767706
vt 0.375000 0.812500
vt 0.375000 0.767706
vt 0.375000 0.482294
vt 0.625000 0.482294
vt 0.625000 0.500000
vt 0.375000 0.500000
vt 0.642706 0.666667
vt 0.642706 0.750000
vt 0.312500 0.583333
vt 0.312500 0.500000
vt 0.625000 0.767706
vt 0.625000 0.812500
vt 0.687500 0.666667
vt 0.687500 0.750000
vt 0.218750 0.666667
vt 0.312500 0.666667
vt 0.312500 0.750000
vt 0.218750 0.750000
vt 0.781250 0.666667
vt 0.875000 0.666667
vt 0.875000 0.750000
vt 0.781250 0.750000
vt 0.375000 0.343750
vt 0.625000 0.343750
vt 0.625000 0.437500
vt 0.375000 0.437500
vt 0.357294 0.500000
vt 0.357294 0.583333
vt 0.781250 0.500000
vt 0.875000 0.500000
vt 0.875000 0.583333
vt 0.781250 0.583333
vt 0.218750 0.500000
vt 0.218750 0.583333
vt 0.687500 0.583333
vt 0.642706 0.500000
vt 0.687500 0.500000
vt 0.642706 0.583333
vt 0.375000 0.583333
vt 0.625000 0.583333
vt 0.375000 0.000000
vt 0.625000 0.000000
vt 0.625000 0.083333
vt 0.375000 0.083333
vt 0.125000 0.500000
vt 0.125000 0.583333
vt 0.656250 0.375000
vt 0.656250 0.375000
vt 0.125000 0.666667
vt 0.125000 0.750000
s 0
f 23/1/1 26/2/1 4/3/1 3/4/1
f 27/5/2 30/6/2 6/7/2 5/8/2
f 42/9/3 33/5/3 12/8/3 20/10/3
f 48/11/4 47/12/4 2/13/4 1/14/4
f 19/15/4 14/16/4 10/16/4 20/17/4
f 21/18/5 18/19/5 8/20/5 7/21/5
f 30/6/6 40/22/6 22/23/6 6/7/6
f 37/24/1 15/25/1 9/25/1 31/24/1
f 27/5/2 5/8/2 12/8/2 33/5/2
f 21/18/5 7/21/5 11/21/5 17/18/5
f 19/15/4 22/26/4 16/27/4 14/16/4
f 40/22/6 36/28/6 16/29/6 22/23/6
f 50/30/3 38/31/3 14/32/3 48/33/3
f 49/34/6 25/35/6 2/36/6 47/37/6
f 43/38/5 44/39/5 13/40/5 15/41/5
f 5/8/4 6/7/4 22/26/4 19/15/4
f 15/41/5 21/18/5 17/18/5 9/41/5
f 15/41/5 13/40/5 18/19/5 21/18/5
f 5/8/4 19/15/4 20/17/4 12/8/4
f 32/31/7 42/9/7 20/10/7 10/32/7
f 9/25/7 17/42/7 41/43/7 31/24/7
f 31/24/7 41/43/7 42/9/7 32/31/7
f 44/44/6 4/45/6 26/46/6 45/47/6
f 25/35/6 49/34/6 45/47/6 26/46/6
f 43/48/3 15/25/3 37/24/3 46/49/3
f 37/24/1 38/31/1 36/28/1 35/50/1
f 18/51/6 13/52/6 35/50/6 39/53/6
f 39/53/6 35/50/6 36/28/6 40/22/6
f 7/21/2 28/54/2 34/54/2 11/21/2
f 28/54/2 27/5/2 33/5/2 34/54/2
f 14/32/1 38/31/1 32/31/1 10/32/1
f 38/31/1 37/24/1 31/24/1 32/31/1
f 8/20/6 18/51/6 39/53/6 29/55/6
f 29/55/6 39/53/6 40/22/6 30/6/6
f 17/42/3 11/21/3 34/54/3 41/43/3
f 41/43/3 34/54/3 33/5/3 42/9/3
f 7/21/2 8/20/2 29/55/2 28/54/2
f 28/54/2 29/55/2 30/6/2 27/5/2
f 1/56/1 2/57/1 25/58/1 24/59/1
f 24/59/1 25/58/1 26/2/1 23/1/1
f 3/60/3 43/48/3 46/49/3 23/61/3
f 37/24/4 35/50/4 45/62/4 46/49/4
f 13/52/6 44/44/6 45/47/6 35/50/6
f 3/4/5 4/3/5 44/39/5 43/38/5
f 38/31/5 50/30/5 49/63/5 36/28/5
f 36/28/6 49/34/6 47/37/6 16/29/6
f 24/64/3 50/30/3 48/33/3 1/65/3
f 14/16/4 16/27/4 47/12/4 48/11/4
f 49/63/2 50/30/2 46/49/2 45/62/2
f 50/30/3 24/64/3 23/61/3 46/49/3
