# Blender 5.1.2
# www.blender.org
mtllib PanopticonBridgeConnector.mtl
o PanopticonBridgeConnector
v 2.826714 -0.504181 3.356354
v 2.826714 0.100005 3.356354
v -2.826714 -0.504181 3.356354
v -2.826714 0.100005 3.356354
v 2.826714 -0.504181 2.535847
v 2.826714 0.100005 2.535847
v -2.826714 -0.504181 2.535847
v -2.826714 0.100005 2.535847
v 2.826714 -0.504181 -0.000888
v 2.826714 0.100005 -0.000888
v -2.826714 -0.504181 -0.000888
v -2.826714 0.100005 -0.000888
v 2.826714 -0.504181 -3.356354
v 2.826714 0.100005 -3.356354
v -2.826714 -0.504181 -3.356354
v -2.826714 0.100005 -3.356354
v 2.826714 -0.504181 -2.535847
v 2.826714 0.100005 -2.535847
v -2.826714 -0.504181 -2.535847
v -2.826714 0.100005 -2.535847
v 2.826714 -0.504181 0.000888
v 2.826714 0.100005 0.000888
v -2.826714 -0.504181 0.000888
v -2.826714 0.100005 0.000888
vn 1.0000 -0.0000 -0.0000
vn -0.0000 -0.0000 1.0000
vn -0.0000 1.0000 -0.0000
vn -0.0000 -1.0000 -0.0000
vn -1.0000 -0.0000 -0.0000
vn -0.0000 -0.0000 -1.0000
vt 0.375000 0.166667
vt 0.625000 0.166667
vt 0.625000 0.250000
vt 0.375000 0.250000
vt 0.625000 0.500000
vt 0.375000 0.500000
vt 0.875000 0.500000
vt 0.875000 0.583333
vt 0.625000 0.583333
vt 0.125000 0.500000
vt 0.375000 0.583333
vt 0.125000 0.583333
vt 0.375000 0.125000
vt 0.625000 0.125000
vt 0.625000 0.625000
vt 0.375000 0.625000
vt 0.125000 0.625000
vt 0.875000 0.625000
s 0
f 5/1/1 6/2/1 2/3/1 1/4/1
f 1/4/2 2/3/2 4/5/2 3/6/2
f 4/5/3 2/7/3 6/8/3 8/9/3
f 1/10/4 3/6/4 7/11/4 5/12/4
f 3/6/5 4/5/5 8/9/5 7/11/5
f 9/13/1 10/14/1 6/2/1 5/1/1
f 7/11/5 8/9/5 12/15/5 11/16/5
f 5/12/4 7/11/4 11/16/4 9/17/4
f 8/9/3 6/8/3 10/18/3 12/15/3
f 17/1/1 13/4/1 14/3/1 18/2/1
f 13/4/6 15/6/6 16/5/6 14/3/6
f 16/5/3 20/9/3 18/8/3 14/7/3
f 13/10/4 17/12/4 19/11/4 15/6/4
f 15/6/5 19/11/5 20/9/5 16/5/5
f 21/13/1 17/1/1 18/2/1 22/14/1
f 19/11/5 23/16/5 24/15/5 20/9/5
f 17/12/4 21/17/4 23/16/4 19/11/4
f 20/9/3 24/15/3 22/18/3 18/8/3
