# Blender 5.1.2
# www.blender.org
mtllib PanopticonBridgeBase.mtl
o PanopticonBridgeBase
v -0.000121 -3.440302 6.345798
v 3.601048 -3.440302 6.237409
v 5.495500 -3.440302 3.172899
v 5.495500 -3.440302 -3.172899
v 3.601048 -3.440302 -6.237409
v 6.345676 -3.440302 -0.000000
v -0.000121 -3.440303 -6.345798
v -3.844948 -3.440302 6.659435
v -6.659556 -3.440302 3.844826
v -7.689775 -3.440302 -0.000000
v -6.659556 -3.440303 -3.844826
v -3.844948 -3.440303 -6.659435
v -0.000121 -3.440302 7.689653
v 3.844705 -3.440302 6.659435
v 6.659313 -3.440302 3.844826
v 7.689531 -3.440302 -0.000000
v -3.601291 -3.440302 6.237409
v -5.495743 -3.440302 3.172899
v 6.659313 -3.440303 -3.844826
v -5.495743 -3.440302 -3.172899
v -3.601291 -3.440302 -6.237409
v -0.000121 -3.440303 -7.689653
v 3.844705 -3.440303 -6.659435
v 3.908141 -3.440303 -3.908254
v -7.202461 -3.440302 -0.000000
v -0.000122 7.045236 3.908254
v 3.908141 7.045236 3.908254
v 3.908141 7.045236 -0.000000
v 3.908141 7.045236 -3.908254
v -0.000122 7.045236 -3.908255
v -0.000121 6.232809 7.202339
v 3.601048 6.232809 6.237409
v 5.495500 6.232809 3.172899
v 7.202218 6.232809 0.000000
v 5.495500 6.232809 -3.172899
v 3.601048 6.232809 -6.237409
v -0.000121 6.232809 -7.202339
v -3.908359 7.045236 3.908254
v -3.908349 7.045236 -0.000000
v -3.908359 7.045236 -3.908254
v -3.601291 6.232809 6.237409
v -5.495743 6.232809 3.172899
v -7.202461 6.232809 0.000000
v -5.495743 6.232809 -3.172899
v -3.601291 6.232809 -6.237409
v 3.908141 6.232809 3.908254
v -3.908359 -4.252728 3.908254
v -3.908349 -4.252728 0.000000
v -3.908359 -4.252729 -3.908254
v -0.000121 -3.440302 7.202339
v 7.202218 -3.440302 -0.000000
v -0.000121 -3.440303 -7.202339
v -0.000122 -4.252728 3.908255
v 3.844705 6.232809 6.659435
v -0.000121 6.232809 7.689653
v 6.659313 6.232809 3.844826
v 7.689531 6.232809 0.000000
v 6.659313 6.232809 -3.844826
v 3.844705 6.232809 -6.659435
v -0.000121 6.232809 -7.689653
v -3.844948 6.232809 6.659435
v -6.659556 6.232809 3.844826
v -7.689775 6.232809 0.000000
v -6.659556 6.232809 -3.844826
v -3.844948 6.232809 -6.659435
v 3.172777 -3.440302 5.495622
v 3.908141 -4.252728 3.908254
v 6.237287 -3.440302 3.601170
v 3.908141 -4.252728 0.000000
v 6.237287 -3.440302 -3.601170
v 3.172777 -3.440302 -5.495622
v 3.908141 -4.252729 -3.908254
v -3.173020 -3.440302 5.495622
v -6.237530 -3.440302 3.601170
v -0.000122 -4.252729 -3.908254
v -6.237530 -3.440302 -3.601170
v -3.173020 -3.440302 -5.495622
v -0.000121 6.232809 6.345798
v 6.237287 6.232809 3.601170
v 6.345676 6.232809 0.000000
v 6.237287 6.232809 -3.601170
v -0.000121 6.232809 -6.345798
v -3.908359 6.232809 3.908254
v -6.237530 6.232809 3.601170
v -6.345919 6.232809 0.000000
v -6.237530 6.232809 -3.601170
v 6.237287 -0.903102 3.601170
v 3.601048 -0.903102 6.237409
v 5.495500 -0.903102 3.172899
v 3.172777 -0.903102 5.495622
v -6.237530 -0.903102 3.601170
v -3.601291 -0.903102 6.237409
v -5.495743 -0.903102 3.172899
v -3.173020 -0.903102 5.495622
v 3.601048 -0.903102 -6.237409
v 6.237287 -0.903102 -3.601170
v 3.172777 -0.903102 -5.495622
v 5.495500 -0.903102 -3.172899
v -6.237530 -0.903102 -3.601170
v -3.601291 -0.903102 -6.237409
v -5.495743 -0.903102 -3.172899
v -3.173020 -0.903102 -5.495622
v 6.237287 0.100005 3.601170
v 3.601048 0.100005 6.237409
v 5.495500 0.100005 3.172899
v 3.172777 0.100005 5.495622
v -6.237530 0.100005 -3.601170
v -3.601291 0.100005 -6.237409
v -5.495743 0.100005 -3.172899
v -3.173020 0.100005 -5.495622
v -6.237530 0.100005 3.601170
v -3.601291 0.100005 6.237409
v -5.495743 0.100005 3.172899
v -3.173020 0.100005 5.495622
v 3.601048 0.100005 -6.237409
v 6.237287 0.100005 -3.601170
v 3.172777 0.100005 -5.495622
v 5.495500 0.100005 -3.172899
v 3.844705 7.045236 6.659435
v -0.000121 7.045236 7.689653
v 6.659313 7.045236 3.844826
v 7.689531 7.045236 0.000000
v 6.659313 7.045236 -3.844826
v 3.844705 7.045236 -6.659435
v -0.000121 7.045236 -7.689653
v -3.844948 7.045236 6.659435
v -6.659556 7.045236 3.844826
v -7.689775 7.045236 0.000000
v -6.659556 7.045236 -3.844826
v -3.844948 7.045236 -6.659435
v 3.908141 6.232809 0.000000
v 3.172777 6.232809 -5.495622
v 3.172777 6.232809 5.495622
v -3.908349 6.232809 0.000000
v -3.173020 6.232809 -5.495622
v -3.173020 6.232809 5.495622
v -0.000121 6.232809 3.908254
v 3.908141 6.232809 -3.908254
v -3.908359 6.232809 -3.908254
v -0.000121 6.232809 -3.908255
v -3.908359 -3.440303 -3.908254
v -6.345919 -3.440302 -0.000000
v 3.844705 -4.252729 -6.659435
v -0.000121 -4.252729 -7.689653
v 6.659313 -4.252729 -3.844826
v 7.689531 -4.252728 0.000000
v 6.659313 -4.252728 3.844826
v 3.844705 -4.252728 6.659435
v -0.000121 -4.252728 7.689653
v -3.844948 -4.252729 -6.659435
v -6.659556 -4.252729 -3.844826
v -7.689775 -4.252728 0.000000
v -6.659556 -4.252728 3.844826
v -3.844948 -4.252728 6.659435
v 3.844705 -3.440302 -0.000000
v -3.844948 -3.440302 -0.000000
v -0.000121 -3.440303 -3.908254
v 3.908141 -3.440302 3.908254
v -3.908359 -3.440302 3.908254
v -0.000121 -3.440302 3.908255
v 4.307273 0.100003 -4.238802
v 4.307273 0.100005 4.238802
v -4.307263 0.100005 4.238802
v -4.307263 0.100005 -4.238802
v 4.307273 6.042128 -4.238802
v 4.307273 6.042129 4.238802
v -4.307263 6.042129 4.238802
v -4.307263 6.042129 -4.238802
v -4.307263 0.100005 2.990041
v -4.307263 0.100005 -2.990041
v 4.307273 0.100004 -2.990041
v 4.307273 0.100004 2.990041
v -4.307263 6.042129 2.990041
v -4.307263 6.042129 -2.990041
v 4.307273 6.042128 -2.990041
v 4.307273 6.042129 2.990041
v 3.908266 0.100003 -3.908254
v 3.908266 0.100005 3.908254
v -3.908243 0.100005 3.908254
v -3.908243 0.100005 -3.908254
v 3.908248 6.042128 -3.908254
v 3.908248 6.042129 3.908254
v -3.908252 6.042129 3.908254
v -3.908252 6.042129 -3.908254
v -3.908243 0.100005 2.990041
v -3.908243 0.100005 -2.990041
v 3.908266 0.100004 -2.990041
v 3.908266 0.100004 2.990041
v -3.908252 6.042129 2.990041
v -3.908252 6.042129 -2.990041
v 3.908248 6.042128 -2.990041
v 3.908248 6.042129 2.990041
v 4.307273 6.232809 4.238802
v -4.307263 6.232809 4.238802
v -4.307263 6.232809 -4.238802
v -4.307263 6.232809 2.990041
v -4.307263 6.232809 -2.990041
v 4.307273 6.232809 -2.990041
v 4.307273 6.232809 2.990041
v 4.307273 6.232809 -4.238802
v 3.908248 6.232809 3.908254
v -3.908252 6.232809 3.908254
v -3.908252 6.232809 -3.908254
v -3.908252 6.232809 2.990041
v -3.908252 6.232809 -2.990041
v 3.908248 6.232809 -2.990041
v 3.908248 6.232809 2.990041
v 3.908248 6.232809 -3.908254
v 2.585723 0.100005 4.238802
v -2.585638 0.100005 4.238802
v 2.585723 6.042129 4.238802
v -2.585638 6.042129 4.238802
v 2.585723 0.100005 3.908254
v -2.585638 0.100005 3.908254
v 2.585723 6.042129 3.908254
v -2.585638 6.042129 3.908254
v 2.585723 6.232809 4.238802
v -2.585638 6.232809 4.238802
v -2.585638 6.232809 3.908254
v 2.585723 6.232809 3.908254
v -2.585638 0.100005 -4.238802
v 2.585723 0.100003 -4.238802
v -2.585638 6.042128 -4.238802
v 2.585723 6.042128 -4.238802
v -2.585638 0.100005 -3.908254
v 2.585723 0.100003 -3.908254
v -2.585638 6.042128 -3.908254
v 2.585723 6.042128 -3.908254
v -2.585638 6.232809 -4.238802
v 2.585723 6.232809 -4.238802
v 2.585723 6.232809 -3.908254
v -2.585638 6.232809 -3.908254
vn -0.0000 1.0000 -0.0000
vn -0.0000 -1.0000 -0.0000
vn -0.9659 -0.0000 0.2588
vn -0.9659 -0.0000 -0.2588
vn 0.9659 -0.0000 0.2588
vn 0.9659 -0.0000 -0.2588
vn 0.2588 -0.0000 0.9659
vn 0.7071 -0.0000 -0.7071
vn 0.7071 -0.0000 0.7071
vn 0.2588 -0.0000 -0.9659
vn -1.0000 -0.0000 -0.0000
vn -0.2588 -0.0000 0.9659
vn -0.7071 -0.0000 -0.7071
vn -0.7071 -0.0000 0.7071
vn -0.2588 -0.0000 -0.9659
vn 0.5000 -0.0000 -0.8660
vn -0.9992 -0.0390 0.0081
vn 0.5000 -0.0000 0.8660
vn 0.8660 -0.0000 0.5000
vn -0.8660 -0.0000 0.5000
vn -0.5000 -0.0000 0.8660
vn -0.5000 -0.0000 -0.8660
vn -0.8660 -0.0000 -0.5000
vn 0.8660 -0.0000 -0.5000
vn 1.0000 -0.0000 -0.0000
vn -0.0000 -0.0000 -1.0000
vn -0.0000 -0.0000 1.0000
vn 0.9992 -0.0390 -0.0081
vn -0.9992 -0.0390 -0.0081
vn 0.9992 -0.0390 0.0081
vt 0.000000 0.000000
vt 0.500000 0.916667
vt 0.562500 0.916667
vt 0.562500 1.000000
vt 0.500000 1.000000
vt 0.500000 0.666667
vt 0.562500 0.666667
vt 0.562500 0.750000
vt 0.500000 0.750000
vt 0.500000 0.416667
vt 0.562500 0.416667
vt 0.562500 0.500000
vt 0.500000 0.500000
vt 0.500000 0.166667
vt 0.562500 0.166667
vt 0.562500 0.250000
vt 0.500000 0.250000
vt 0.500000 0.000000
vt 0.562500 0.000000
vt 0.562500 0.083333
vt 0.500000 0.083333
vt 0.562500 0.583333
vt 0.500000 0.583333
vt 0.578125 0.166667
vt 0.578125 0.250000
vt 0.578125 0.416667
vt 0.578125 0.500000
vt 0.578125 0.666667
vt 0.578125 0.750000
vt 0.578125 0.916667
vt 0.578125 1.000000
vt 0.578125 0.583333
vt 0.578125 0.000000
vt 0.578125 0.083333
vt 0.578125 0.333333
vt 0.562500 0.333333
vt 0.500000 0.333333
vt 0.578125 0.833333
vt 0.562500 0.833333
vt 0.500000 0.833333
s 0
f 160/1/1 159/1/1 73/1/1 1/1/1
f 47/1/2 53/1/2 149/1/2 154/1/2
f 47/1/2 154/1/2 153/1/2
f 25/1/1 74/1/1 18/1/1 142/1/1
f 49/1/2 151/1/2 150/1/2
f 75/1/2 49/1/2 150/1/2 144/1/2
f 53/1/2 67/1/2 148/1/2 149/1/2
f 67/1/2 147/1/2 148/1/2
f 51/1/1 6/1/1 3/1/1 68/1/1
f 72/1/2 143/1/2 145/1/2
f 72/1/2 75/1/2 144/1/2 143/1/2
f 17/1/1 50/1/1 1/1/1 73/1/1
f 2/1/1 66/1/1 1/1/1 50/1/1
f 25/1/1 76/1/1 11/1/1 10/1/1
f 74/1/1 25/1/1 10/1/1 9/1/1
f 52/1/1 7/1/1 71/1/1 5/1/1
f 52/1/1 21/1/1 77/1/1 7/1/1
f 51/1/1 68/1/1 15/1/1 16/1/1
f 50/1/1 17/1/1 8/1/1 13/1/1
f 17/1/1 74/1/1 9/1/1 8/1/1
f 152/1/3 153/1/3 9/1/3 10/1/3
f 151/1/4 152/1/4 10/1/4 11/1/4
f 76/1/1 21/1/1 12/1/1 11/1/1
f 21/1/1 52/1/1 22/1/1 12/1/1
f 2/1/1 50/1/1 13/1/1 14/1/1
f 68/1/1 2/1/1 14/1/1 15/1/1
f 146/1/5 16/1/5 15/1/5 147/1/5
f 145/1/6 19/1/6 16/1/6 146/1/6
f 119/1/7 120/1/7 55/1/7 54/1/7
f 124/1/8 123/1/8 58/1/8 59/1/8
f 121/1/9 119/1/9 54/1/9 56/1/9
f 125/1/10 124/1/10 59/1/10 60/1/10
f 79/1/2 34/1/2 57/1/2 56/1/2
f 84/1/2 43/1/2 85/1/2 42/1/2
f 29/1/11 138/1/11 131/1/11 28/1/11
f 133/1/2 46/1/2 33/1/2
f 35/1/2 80/1/2 131/1/2 138/1/2
f 126/1/12 61/1/12 55/1/12 120/1/12
f 130/1/13 65/1/13 64/1/13 129/1/13
f 127/1/14 62/1/14 61/1/14 126/1/14
f 125/1/15 60/1/15 65/1/15 130/1/15
f 33/1/2 80/1/2 34/1/2 79/1/2
f 137/1/2 46/1/2 133/1/2 78/1/2
f 38/1/1 39/1/1 128/1/1 127/1/1
f 136/1/2 42/1/2 83/1/2
f 44/1/2 139/1/2 134/1/2 85/1/2
f 5/1/1 70/1/1 19/1/1 23/1/1
f 52/1/1 5/1/1 23/1/1 22/1/1
f 18/1/1 159/1/1 156/1/1 142/1/1
f 77/1/1 20/1/1 141/1/1
f 49/1/2 48/1/2 152/1/2 151/1/2
f 157/1/1 24/1/1 71/1/1 7/1/1
f 4/1/1 6/1/1 51/1/1 70/1/1
f 149/1/12 13/1/12 8/1/12 154/1/12
f 151/1/13 11/1/13 12/1/13 150/1/13
f 154/1/14 8/1/14 9/1/14 153/1/14
f 150/1/15 12/1/15 22/1/15 144/1/15
f 3/1/1 6/1/1 155/1/1 158/1/1
f 31/1/2 32/1/2 54/1/2 55/1/2
f 32/1/2 79/1/2 56/1/2 54/1/2
f 121/1/5 56/1/5 57/1/5 122/1/5
f 122/1/6 57/1/6 58/1/6 123/1/6
f 81/1/2 36/1/2 59/1/2 58/1/2
f 36/1/2 37/1/2 60/1/2 59/1/2
f 41/1/2 31/1/2 55/1/2 61/1/2
f 84/1/2 41/1/2 61/1/2 62/1/2
f 127/1/3 128/1/3 63/1/3 62/1/3
f 128/1/4 129/1/4 64/1/4 63/1/4
f 45/1/2 86/1/2 64/1/2 65/1/2
f 37/1/2 45/1/2 65/1/2 60/1/2
f 112/1/14 41/1/14 84/1/14 111/1/14
f 107/1/13 86/1/13 45/1/13 108/1/13
f 116/1/8 115/1/8 36/1/8 81/1/8
f 104/1/9 103/1/9 79/1/9 32/1/9
f 114/1/8 113/1/8 42/1/8 136/1/8
f 109/1/9 110/1/9 135/1/9 44/1/9
f 118/1/14 35/1/14 132/1/14 117/1/14
f 106/1/13 133/1/13 33/1/13 105/1/13
f 87/1/16 68/1/16 3/1/16 89/1/16
f 71/1/1 24/1/1 4/1/1
f 67/1/17 158/1/17 155/1/17 69/1/17
f 96/1/18 98/1/18 4/1/18 70/1/18
f 34/1/2 81/1/2 58/1/2 57/1/2
f 31/1/2 41/1/2 136/1/2 78/1/2
f 92/1/19 17/1/19 73/1/19 94/1/19
f 76/1/1 25/1/1 142/1/1 20/1/1
f 70/1/1 51/1/1 16/1/1 19/1/1
f 88/1/20 90/1/20 66/1/20 2/1/20
f 31/1/2 78/1/2 133/1/2 32/1/2
f 86/1/2 43/1/2 63/1/2 64/1/2
f 99/1/21 76/1/21 20/1/21 101/1/21
f 149/1/7 148/1/7 14/1/7 13/1/7
f 145/1/8 143/1/8 23/1/8 19/1/8
f 91/1/22 93/1/22 18/1/22 74/1/22
f 43/1/2 84/1/2 62/1/2 63/1/2
f 36/1/2 132/1/2 82/1/2 37/1/2
f 95/1/23 5/1/23 71/1/23 97/1/23
f 148/1/9 147/1/9 15/1/9 14/1/9
f 143/1/10 144/1/10 22/1/10 23/1/10
f 100/1/24 102/1/24 77/1/24 21/1/24
f 45/1/2 37/1/2 82/1/2 135/1/2
f 66/1/13 90/1/13 89/1/13 3/1/13
f 2/1/9 68/1/9 87/1/9 88/1/9
f 73/1/8 18/1/8 93/1/8 94/1/8
f 17/1/14 92/1/14 91/1/14 74/1/14
f 4/1/14 98/1/14 97/1/14 71/1/14
f 70/1/8 5/1/8 95/1/8 96/1/8
f 20/1/9 77/1/9 102/1/9 101/1/9
f 76/1/13 99/1/13 100/1/13 21/1/13
f 79/1/16 103/1/16 105/1/16 33/1/16
f 32/1/20 133/1/20 106/1/20 104/1/20
f 86/1/21 107/1/21 109/1/21 44/1/21
f 45/1/24 135/1/24 110/1/24 108/1/24
f 41/1/19 112/1/19 114/1/19 136/1/19
f 84/1/22 42/1/22 113/1/22 111/1/22
f 81/1/18 35/1/18 118/1/18 116/1/18
f 36/1/23 115/1/23 117/1/23 132/1/23
f 27/1/1 26/1/1 120/1/1 119/1/1
f 27/1/1 119/1/1 121/1/1
f 34/1/2 80/1/2 35/1/2 81/1/2
f 29/1/1 123/1/1 124/1/1
f 30/1/1 29/1/1 124/1/1 125/1/1
f 26/1/1 38/1/1 126/1/1 120/1/1
f 38/1/1 127/1/1 126/1/1
f 43/1/2 86/1/2 44/1/2 85/1/2
f 40/1/1 130/1/1 129/1/1
f 40/1/1 30/1/1 125/1/1 130/1/1
f 140/1/2 139/1/2 135/1/2 82/1/2
f 136/1/2 83/1/2 137/1/2 78/1/2
f 33/1/2 46/1/2 131/1/2 80/1/2
f 132/1/2 138/1/2 140/1/2 82/1/2
f 83/1/25 134/1/25 39/1/25 38/1/25
f 137/1/26 83/1/26 38/1/26 26/1/26
f 26/1/26 27/1/26 46/1/26 137/1/26
f 27/1/11 28/1/11 131/1/11 46/1/11
f 138/1/2 132/1/2 35/1/2
f 39/1/1 40/1/1 129/1/1 128/1/1
f 27/1/1 121/1/1 122/1/1 28/1/1
f 139/1/2 44/1/2 135/1/2
f 83/1/2 42/1/2 85/1/2 134/1/2
f 29/1/1 28/1/1 122/1/1 123/1/1
f 134/1/25 139/1/25 40/1/25 39/1/25
f 139/1/27 140/1/27 30/1/27 40/1/27
f 29/1/27 30/1/27 140/1/27 138/1/27
f 77/1/1 141/1/1 157/1/1 7/1/1
f 4/1/1 24/1/1 155/1/1 6/1/1
f 66/1/1 158/1/1 160/1/1 1/1/1
f 141/1/28 156/1/28 48/1/28 49/1/28
f 157/1/27 141/1/27 49/1/27 75/1/27
f 75/1/27 72/1/27 24/1/27 157/1/27
f 72/1/29 69/1/29 155/1/29 24/1/29
f 158/1/1 66/1/1 3/1/1
f 48/1/2 47/1/2 153/1/2 152/1/2
f 72/1/2 145/1/2 146/1/2 69/1/2
f 159/1/1 18/1/1 73/1/1
f 141/1/1 20/1/1 142/1/1 156/1/1
f 67/1/2 69/1/2 146/1/2 147/1/2
f 156/1/30 159/1/30 47/1/30 48/1/30
f 159/1/26 160/1/26 53/1/26 47/1/26
f 67/1/26 53/1/26 160/1/26 158/1/26
f 222/2/26 224/3/26 165/4/26 161/5/26
f 170/6/11 174/7/11 168/8/11 164/9/11
f 210/10/27 212/11/27 167/12/27 163/13/27
f 172/14/25 176/15/25 166/16/25 162/17/25
f 161/18/25 165/19/25 175/20/25 171/21/25
f 163/13/11 167/12/11 173/22/11 169/23/11
f 226/2/27 177/5/27 181/4/27 228/3/27
f 186/6/25 180/9/25 184/8/25 190/7/25
f 214/10/26 179/13/26 183/12/26 216/11/26
f 188/14/11 178/17/11 182/16/11 192/15/11
f 177/18/11 187/21/11 191/20/11 181/19/11
f 179/13/25 185/23/25 189/22/25 183/12/25
f 222/2/2 161/5/2 177/5/2 226/2/2
f 170/6/2 164/9/2 180/9/2 186/6/2
f 210/10/2 163/13/2 179/13/2 214/10/2
f 172/14/2 162/17/2 178/17/2 188/14/2
f 163/13/2 169/23/2 185/23/2 179/13/2
f 161/18/2 171/21/2 187/21/2 177/18/2
f 171/21/27 175/20/27 191/20/27 187/21/27
f 176/15/26 172/14/26 188/14/26 192/15/26
f 169/23/26 173/22/26 189/22/26 185/23/26
f 174/7/27 170/6/27 186/6/27 190/7/27
f 173/22/2 174/7/2 190/7/2 189/22/2
f 175/20/2 176/15/2 192/15/2 191/20/2
f 176/15/25 199/24/25 193/25/25 166/16/25
f 212/11/27 218/26/27 194/27/27 167/12/27
f 174/7/11 197/28/11 195/29/11 168/8/11
f 224/3/26 230/30/26 200/31/26 165/4/26
f 167/12/11 194/27/11 196/32/11 173/22/11
f 173/22/11 196/32/11 197/28/11 174/7/11
f 165/19/25 200/33/25 198/34/25 175/20/25
f 175/20/25 198/34/25 199/24/25 176/15/25
f 191/20/11 192/15/11 207/24/11 206/34/11
f 181/19/11 191/20/11 206/34/11 208/33/11
f 189/22/25 190/7/25 205/28/25 204/32/25
f 183/12/25 189/22/25 204/32/25 202/27/25
f 228/3/27 181/4/27 208/31/27 231/30/27
f 190/7/25 184/8/25 203/29/25 205/28/25
f 216/11/26 183/12/26 202/27/26 219/26/26
f 192/15/11 182/16/11 201/25/11 207/24/11
f 218/26/1 219/26/1 202/27/1 194/27/1
f 194/27/1 202/27/1 204/32/1 196/32/1
f 196/32/1 204/32/1 205/28/1 197/28/1
f 197/28/1 205/28/1 203/29/1 195/29/1
f 230/30/1 231/30/1 208/31/1 200/31/1
f 200/31/1 208/31/1 206/34/1 198/34/1
f 198/34/1 206/34/1 207/24/1 199/24/1
f 199/24/1 207/24/1 201/25/1 193/25/1
f 193/25/1 201/25/1 220/35/1 217/35/1
f 182/16/26 215/36/26 220/35/26 201/25/26
f 166/16/27 193/25/27 217/35/27 211/36/27
f 162/17/2 209/37/2 213/37/2 178/17/2
f 178/17/26 213/37/26 215/36/26 182/16/26
f 218/26/25 212/11/25 216/11/25 219/26/25
f 162/17/27 166/16/27 211/36/27 209/37/27
f 210/10/25 214/10/25 216/11/25 212/11/25
f 195/29/1 203/29/1 232/38/1 229/38/1
f 223/39/25 229/38/25 232/38/25 227/39/25
f 184/8/27 227/39/27 232/38/27 203/29/27
f 227/39/25 225/40/25 221/40/25 223/39/25
f 168/8/26 195/29/26 229/38/26 223/39/26
f 224/3/11 228/3/11 231/30/11 230/30/11
f 164/9/2 221/40/2 225/40/2 180/9/2
f 228/3/11 224/3/11 222/2/11 226/2/11
f 180/9/27 225/40/27 227/39/27 184/8/27
f 209/37/11 211/36/11 215/36/11 213/37/11
f 164/9/26 168/8/26 223/39/26 221/40/26
f 217/35/11 220/35/11 215/36/11 211/36/11
