# Blender 5.1.1
# www.blender.org
mtllib PlainWall.mtl
o PlainWall
v 0.099879 -2.401916 2.499673
v 0.099879 0.402167 2.499673
v 0.099879 1.999749 -2.500327
v 0.099879 1.999749 0.600317
v 0.099879 1.999749 2.499673
v 0.099879 1.999749 -0.600914
v -0.099879 -2.401916 0.600317
v -0.099879 -2.401916 2.499673
v -0.099879 0.402167 2.499673
v -0.099879 0.402167 -2.500327
v -0.099879 -2.401916 -2.500327
v -0.099879 -2.401916 -0.600914
v -0.099879 0.402167 0.600317
v -0.099879 0.402167 -0.600914
v -0.099879 1.999749 0.600317
v -0.099879 1.999749 2.499673
v -0.099879 1.999749 -2.500327
v -0.099879 1.999749 -0.600914
v 0.099879 -2.401916 -2.496576
v 0.099879 0.402167 -2.496576
v 0.099879 -2.401916 0.600317
v 0.099879 -2.401916 -0.600914
v 0.099879 0.402167 -0.600914
v 0.099879 0.402167 0.600317
vn -1.0000 -0.0000 -0.0000
vn -0.0000 -0.0000 1.0000
vn 0.0094 -0.0012 -1.0000
vn 0.0188 -0.0000 -0.9998
vn 1.0000 -0.0000 -0.0000
vn -0.0000 1.0000 -0.0000
vt 1.000000 0.666667
vt 1.000000 0.333333
vt 1.000000 0.000000
vt 0.000000 0.000000
vt 1.000000 1.000000
s 0
usemtl Material
f 13/1/1 15/1/1 18/2/1 14/2/1
f 14/2/1 18/2/1 17/3/1 10/3/1
f 2/4/2 5/5/2 16/5/2 9/4/2
f 7/1/1 13/1/1 14/2/1 12/2/1
f 8/5/1 9/5/1 13/1/1 7/1/1
f 12/2/1 14/2/1 10/3/1 11/3/1
f 3/3/3 20/3/3 10/3/3 17/3/3
f 19/3/4 11/3/4 10/3/4 20/3/4
f 2/4/2 9/4/2 8/4/2 1/4/2
f 6/2/5 23/4/5 20/4/5 3/3/5
f 6/2/6 3/3/6 17/3/6 18/2/6
f 4/1/6 6/2/6 18/2/6 15/1/6
f 5/5/6 4/1/6 15/1/6 16/5/6
f 4/1/5 5/5/5 2/4/5 24/4/5
f 22/4/5 19/4/5 20/4/5 23/4/5
f 9/5/1 16/5/1 15/1/1 13/1/1
f 1/4/5 21/4/5 24/4/5 2/4/5
f 21/4/5 22/4/5 23/4/5 24/4/5
f 23/4/5 6/2/5 4/1/5 24/4/5
