# Blender 5.1.1
# www.blender.org
mtllib PlatformWarden.001.mtl
o PlatformWarden.001
v -14.975647 4.301660 -2.500938
v -14.975647 4.301660 2.499759
v -14.975647 4.501670 -2.500938
v -14.975647 4.501670 2.499759
v -2.979158 4.301684 2.499759
v -2.979158 4.501694 -2.500938
v -2.979158 4.301684 -2.500938
v -2.979158 4.501694 2.499759
v -9.977130 4.501682 -2.500938
v -9.977130 4.501682 2.499759
v -9.977130 4.301672 2.499759
v -9.977130 4.301672 -2.500938
v -14.975647 4.501670 -4.989204
v -14.975647 4.301660 -4.989204
v -9.977130 4.501682 -4.989204
v -9.977130 4.301672 -4.989204
v 14.975647 4.301660 -2.500938
v 14.975647 4.301660 2.499759
v 14.975647 4.501670 -2.500938
v 14.975647 4.501670 2.499759
v 2.979158 4.301684 2.499759
v 2.979158 4.501694 -2.500938
v 2.979158 4.301684 -2.500938
v 2.979158 4.501694 2.499759
v 9.977130 4.501682 -2.500938
v 9.977130 4.501682 2.499759
v 9.977130 4.301672 2.499759
v 9.977130 4.301672 -2.500938
v 14.975647 4.501670 -4.989204
v 14.975647 4.301660 -4.989204
v 9.977130 4.501682 -4.989204
v 9.977130 4.301672 -4.989204
vn -1.0000 -0.0000 -0.0000
vn -0.0000 1.0000 -0.0000
vn -0.0000 -0.0000 -1.0000
vn -0.0000 -0.0000 1.0000
vn -0.0000 -1.0000 -0.0000
vn 1.0000 -0.0000 -0.0000
vt 0.000000 1.000000
vt 0.000000 0.000000
s 0
usemtl Material
f 2/1/1 4/1/1 3/2/1 1/2/1
f 9/2/2 10/1/2 8/1/2 6/2/2
f 12/2/3 9/2/3 6/2/3 7/2/3
f 10/1/4 11/1/4 5/1/4 8/1/4
f 11/1/5 12/2/5 7/2/5 5/1/5
f 8/1/6 5/1/6 7/2/6 6/2/6
f 2/1/5 1/2/5 12/2/5 11/1/5
f 4/1/4 2/1/4 11/1/4 10/1/4
f 12/2/5 1/2/5 14/2/5 16/2/5
f 3/2/2 4/1/2 10/1/2 9/2/2
f 14/2/3 13/2/3 15/2/3 16/2/3
f 9/2/6 12/2/6 16/2/6 15/2/6
f 3/2/2 9/2/2 15/2/2 13/2/2
f 1/2/1 3/2/1 13/2/1 14/2/1
f 18/1/6 17/2/6 19/2/6 20/1/6
f 25/2/2 22/2/2 24/1/2 26/1/2
f 28/2/3 23/2/3 22/2/3 25/2/3
f 26/1/4 24/1/4 21/1/4 27/1/4
f 27/1/5 21/1/5 23/2/5 28/2/5
f 24/1/1 22/2/1 23/2/1 21/1/1
f 18/1/5 27/1/5 28/2/5 17/2/5
f 20/1/4 26/1/4 27/1/4 18/1/4
f 28/2/5 32/2/5 30/2/5 17/2/5
f 19/2/2 25/2/2 26/1/2 20/1/2
f 30/2/3 32/2/3 31/2/3 29/2/3
f 25/2/1 31/2/1 32/2/1 28/2/1
f 19/2/2 29/2/2 31/2/2 25/2/2
f 17/2/6 30/2/6 29/2/6 19/2/6
