# Blender 5.1.1
# www.blender.org
mtllib PlatformWarden.002.mtl
o PlatformWarden.002
v -14.975647 8.503243 -2.500938
v 14.975647 8.503315 2.499758
v -14.975647 8.503243 2.499758
v 14.975647 8.503315 -2.500938
v -14.975647 8.703254 -2.500938
v -14.975647 8.703254 2.499758
v 14.975647 8.703325 2.499758
v 14.975647 8.703325 -2.500938
v -6.972876 8.503267 2.499758
v 6.972876 8.503291 2.499758
v 6.972876 8.703301 -2.500938
v -6.972876 8.703278 -2.500938
v -6.972876 8.503267 -2.500938
v 6.972876 8.503291 -2.500938
v 6.972876 8.703301 2.499758
v -6.972876 8.703278 2.499758
vn 1.0000 -0.0000 -0.0000
vn -0.0000 -1.0000 -0.0000
vn -0.0000 -0.0000 1.0000
vn -1.0000 -0.0000 -0.0000
vn -0.0000 -0.0000 -1.0000
vn -0.0000 1.0000 -0.0000
vt 0.000000 1.000000
vt 0.000000 0.000000
s 0
usemtl Material
f 2/1/1 4/2/1 8/2/1 7/1/1
f 10/1/2 14/2/2 4/2/2 2/1/2
f 15/1/3 10/1/3 2/1/3 7/1/3
f 3/1/4 6/1/4 5/2/4 1/2/4
f 14/2/5 11/2/5 8/2/5 4/2/5
f 11/2/6 15/1/6 7/1/6 8/2/6
f 5/2/6 6/1/6 16/1/6 12/2/6
f 1/2/5 5/2/5 12/2/5 13/2/5
f 6/1/3 3/1/3 9/1/3 16/1/3
f 15/1/4 11/2/4 14/2/4 10/1/4
f 3/1/2 1/2/2 13/2/2 9/1/2
f 16/1/1 9/1/1 13/2/1 12/2/1
