# Blender 5.1.1
# www.blender.org
mtllib Roof.mtl
o Roof
v 3.001934 -0.100005 -2.500938
v 3.001934 -0.100005 2.499062
v 3.001934 0.100005 2.499062
v 3.001934 0.100005 -2.500938
v -3.001934 0.100005 2.499062
v -3.001934 -0.100005 2.499062
v -3.001934 -0.100005 -2.500938
v -3.001934 0.100005 -2.500938
vn -0.0000 -0.0000 1.0000
vn -0.0000 -0.0000 -1.0000
vn 1.0000 -0.0000 -0.0000
vn -0.0000 -1.0000 -0.0000
vn -0.0000 1.0000 -0.0000
vn -1.0000 -0.0000 -0.0000
vt 0.000000 0.000000
vt 1.000000 0.000000
vt 0.000000 1.000000
vt 1.000000 1.000000
s 0
usemtl Material
f 3/1/1 5/1/1 6/1/1 2/1/1
f 1/1/2 7/2/2 8/2/2 4/1/2
f 1/1/3 4/1/3 3/1/3 2/3/3
f 6/4/4 7/2/4 1/1/4 2/3/4
f 8/1/5 5/1/5 3/1/5 4/1/5
f 7/2/6 6/4/6 5/1/6 8/2/6
