# Blender 5.1.1
# www.blender.org
mtllib SingleDoorway.mtl
o SingleDoorway
v -0.099879 -1.556795 2.499886
v -0.099879 -1.556795 0.600530
v -0.099879 -1.556795 -0.600701
v 0.099879 2.644860 -2.500114
v 0.099879 2.644860 -0.600701
v -0.099879 0.670383 -2.500114
v -0.099879 0.670383 2.499886
v -0.099879 2.644860 -0.600701
v -0.099879 2.644860 -2.500114
v -0.099879 2.644860 2.499886
v -0.099879 2.644860 0.600530
v 0.099879 -1.556795 -0.600701
v 0.099879 -1.556795 -2.500114
v 0.099879 0.670383 -2.500114
v 0.099879 0.670383 2.499886
v 0.099879 -1.556795 2.499886
v 0.099879 -1.556795 0.600530
v 0.099879 0.670383 -0.600701
v 0.099879 0.670383 0.600530
v 0.099879 2.644860 2.499886
v 0.099879 2.644860 0.600530
v -0.099879 -1.556795 -2.496362
v -0.099879 0.670383 -0.603581
v -0.099879 0.670383 0.599090
v 0.099879 -1.756805 -0.600701
v -0.099879 -1.756805 -0.600701
v 0.099879 -1.756805 2.499886
v -0.099879 -1.756805 2.499886
v 0.099879 -1.756805 -2.500114
v 0.099879 -1.756805 0.600530
v -0.099879 -1.756805 0.600530
v -0.099879 -1.756805 -2.496362
vn -1.0000 -0.0000 -0.0000
vn 1.0000 -0.0000 -0.0000
vn 0.0036 -0.0003 -1.0000
vn -0.0000 -0.0000 -1.0000
vn -0.0072 0.0006 1.0000
vn -0.0000 1.0000 -0.0000
vn -0.0000 -0.0000 1.0000
vn -0.0094 -0.0008 -1.0000
vn -0.0000 -1.0000 -0.0000
vn -0.0188 -0.0000 -0.9998
vt 0.000000 0.000000
vt 0.000000 0.333333
vt 0.000000 0.666667
vt 0.000000 1.000000
s 0
usemtl Material
f 9/1/1 6/1/1 23/1/1 8/2/1
f 18/2/2 5/2/2 21/3/2 19/3/2
f 24/1/3 19/1/3 17/1/3 2/1/3
f 9/1/4 4/1/4 14/1/4 6/1/4
f 19/3/2 21/3/2 20/4/2 15/4/2
f 3/1/5 12/1/5 18/1/5 23/1/5
f 8/2/6 5/2/6 4/1/6 9/1/6
f 14/1/2 4/1/2 5/2/2 18/2/2
f 1/1/7 16/1/7 15/1/7 7/1/7
f 20/4/7 10/1/7 7/1/7 15/1/7
f 10/4/6 20/4/6 21/3/6 11/3/6
f 13/1/2 14/1/2 18/2/2 12/2/2
f 17/3/2 19/3/2 15/4/2 16/4/2
f 6/1/8 14/1/8 13/1/8 22/1/8
f 23/1/9 18/1/9 19/1/9 24/1/9
f 11/3/6 21/3/6 5/2/6 8/2/6
f 11/3/1 24/1/1 7/1/1 10/1/1
f 8/2/1 23/1/1 24/1/1 11/3/1
f 22/1/1 3/1/1 23/1/1 6/1/1
f 1/1/1 7/1/1 24/1/1 2/1/1
f 17/3/2 16/4/2 27/4/2 30/3/2
f 30/3/9 31/1/9 26/1/9 25/2/9
f 26/1/9 32/1/9 29/1/9 25/2/9
f 27/4/9 28/1/9 31/1/9 30/3/9
f 17/3/2 30/3/2 25/2/2 12/2/2
f 13/1/2 12/2/2 25/2/2 29/1/2
f 1/1/1 2/1/1 31/1/1 28/1/1
f 22/1/10 13/1/10 29/1/10 32/1/10
f 3/1/1 22/1/1 32/1/1 26/1/1
f 16/1/7 1/1/7 28/1/7 27/1/7
f 31/1/1 2/1/1 3/1/1 26/1/1
f 2/1/6 17/1/6 12/1/6 3/1/6
