# Blender 5.1.1
# www.blender.org
mtllib SingleDoorwayVent.mtl
o SingleDoorwayWVent
v -0.099878 -1.918882 2.499813
v -0.099878 -1.918882 0.600457
v -0.099878 -1.918882 -0.600774
v 0.099879 3.415181 -2.500187
v 0.099879 3.415181 -0.882600
v -0.099878 0.308297 -2.500187
v -0.099878 0.308297 2.499813
v -0.099878 3.415181 -0.882600
v -0.099878 3.415181 -2.500187
v -0.099878 3.411635 2.499813
v -0.099878 3.411635 0.883754
v 0.099879 -1.918882 -0.600774
v 0.099879 -1.918882 -2.500187
v 0.099879 0.308297 -2.500187
v 0.099879 0.308297 2.499813
v 0.099879 -1.918882 2.499813
v 0.099879 -1.918882 0.600457
v 0.099879 0.308297 -0.600774
v 0.099879 0.308297 0.600457
v 0.099879 3.411635 2.499813
v -0.099878 -1.918882 -2.496436
v -0.099878 0.308297 -0.603655
v -0.099878 0.308297 0.599017
v 0.099879 -2.118892 -0.600774
v -0.099878 -2.118892 -0.600774
v 0.099879 -2.118892 2.499813
v -0.099878 -2.118892 2.499813
v 0.099879 -2.118892 -2.500187
v 0.099879 -2.118892 0.600457
v -0.099878 -2.118892 0.600457
v -0.099878 -2.118892 -2.496436
v -0.099878 1.448346 -0.884040
v -0.099878 1.448346 2.499813
v -0.099878 1.448346 -2.500187
v 0.099879 1.448346 -0.882600
v 0.099879 1.448346 -2.500187
v 0.099879 1.448346 2.499813
v 0.099879 1.448346 0.883754
v -0.099878 1.448346 0.883034
v 0.099879 3.214700 -0.882600
v -0.099878 3.214700 -0.883320
v -0.099878 3.214700 -2.500187
v 0.099879 3.214700 -2.500187
v 0.096321 3.411635 0.883754
v 0.096321 3.211154 0.883754
v 0.099879 3.211154 2.499813
v -0.099878 3.211154 2.499813
v 0.099849 3.214700 0.883754
v -0.099878 3.211154 0.883394
vn -1.0000 -0.0000 -0.0000
vn 0.0036 -0.0003 -1.0000
vn -0.0000 -0.0000 -1.0000
vn 1.0000 0.0089 -0.0011
vn -0.0072 0.0006 1.0000
vn -0.0000 1.0000 -0.0000
vn 1.0000 -0.0000 -0.0000
vn -0.0000 -0.0000 1.0000
vn -0.0094 -0.0008 -1.0000
vn -0.0000 -1.0000 -0.0000
vn -0.0188 -0.0000 -0.9998
vn -0.0054 -0.0002 1.0000
vn 0.0027 0.0001 -1.0000
vn -0.0000 1.0000 0.0020
vn -0.0009 -0.0009 1.0000
vn -0.0000 -1.0000 -0.0020
vn 1.0000 -0.0000 0.0020
vt 0.000000 0.000000
vt 0.000000 0.166667
vt 0.000000 0.666667
vt 0.000000 1.000000
vt 0.000000 0.333333
vt 0.000000 0.500000
vt 0.000000 0.500000
vt 0.000000 0.750000
vt 0.000000 0.250000
s 0
usemtl Material
f 34/1/1 6/1/1 22/1/1 32/2/1
f 23/1/2 19/1/2 17/1/2 2/1/2
f 34/1/3 36/1/3 14/1/3 6/1/3
f 48/3/4 44/3/4 20/4/4 46/4/4
f 3/1/5 12/1/5 18/1/5 22/1/5
f 8/5/6 5/5/6 4/1/6 9/1/6
f 43/1/7 4/1/7 5/5/7 40/5/7
f 1/1/8 16/1/8 15/1/8 7/1/8
f 37/6/8 33/1/8 7/1/8 15/1/8
f 10/4/6 20/4/6 44/3/6 11/3/6
f 13/1/7 14/1/7 18/5/7 12/5/7
f 17/3/7 19/3/7 15/4/7 16/4/7
f 6/1/9 14/1/9 13/1/9 21/1/9
f 22/1/10 18/1/10 19/1/10 23/1/10
f 39/5/1 23/1/1 7/1/1 33/1/1
f 32/2/1 22/1/1 23/1/1 39/5/1
f 21/1/1 3/1/1 22/1/1 6/1/1
f 1/1/1 7/1/1 23/1/1 2/1/1
f 17/3/7 16/4/7 26/4/7 29/3/7
f 29/3/10 30/1/10 25/1/10 24/5/10
f 25/1/10 31/1/10 28/1/10 24/5/10
f 26/4/10 27/1/10 30/1/10 29/3/10
f 17/3/7 29/3/7 24/5/7 12/5/7
f 13/1/7 12/5/7 24/5/7 28/1/7
f 1/1/1 2/1/1 30/1/1 27/1/1
f 21/1/11 13/1/11 28/1/11 31/1/11
f 3/1/1 21/1/1 31/1/1 25/1/1
f 16/1/8 1/1/8 27/1/8 26/1/8
f 30/1/1 2/1/1 3/1/1 25/1/1
f 2/1/6 17/1/6 12/1/6 3/1/6
f 49/7/1 39/5/1 33/1/1 47/1/1
f 46/8/8 47/1/8 33/1/8 37/6/8
f 14/1/7 36/1/7 35/5/7 18/5/7
f 19/3/7 38/3/7 37/4/7 15/4/7
f 42/1/3 43/1/3 36/1/3 34/1/3
f 18/5/7 35/5/7 38/3/7 19/3/7
f 42/1/1 34/1/1 32/2/1 41/9/1
f 41/9/12 32/2/12 35/5/12 40/5/12
f 39/5/6 38/3/6 35/5/6 32/2/6
f 48/3/13 38/3/13 39/5/13 49/7/13
f 5/5/14 8/5/14 11/5/14 44/5/14
f 9/1/1 42/1/1 41/9/1 8/5/1
f 9/1/3 4/1/3 43/1/3 42/1/3
f 36/1/7 43/1/7 40/5/7 35/5/7
f 11/5/15 49/9/15 45/5/15 44/5/15
f 41/9/16 40/5/16 45/5/16 49/9/16
f 40/5/17 5/5/17 44/5/17 45/5/17
f 8/5/1 41/9/1 49/9/1 11/5/1
f 20/4/8 10/1/8 47/1/8 46/8/8
f 11/3/1 49/7/1 47/1/1 10/1/1
f 38/3/7 48/3/7 46/4/7 37/4/7
