# Blender 5.1.1
# www.blender.org
mtllib SlidingDoorFrame.mtl
o SlidingDoorFrameGreeble.003
v -0.101779 0.484527 0.713418
v -0.101779 0.484525 -0.713417
v -0.101779 1.048752 0.713417
v -0.101779 1.048751 -0.713418
v -0.335355 1.048752 0.713417
v -0.478832 0.938783 0.713417
v -0.478832 0.484526 0.713418
v -0.478832 0.938781 -0.713417
v -0.335355 1.048751 -0.713418
v -0.478832 0.484525 -0.713417
v 0.098253 0.484527 0.713418
v 0.098253 0.484525 -0.713417
v 0.098253 1.048752 0.713417
v 0.098253 1.048751 -0.713418
v 0.331829 1.048752 0.713417
v 0.475306 0.938783 0.713417
v 0.475306 0.484526 0.713418
v 0.475306 0.938781 -0.713417
v 0.331829 1.048751 -0.713418
v 0.475306 0.484525 -0.713417
v 0.213290 -2.288890 -0.676410
v 0.213290 0.496415 -0.676411
v 0.213290 -2.288890 0.676411
v 0.213290 0.496415 0.676410
v -0.216817 -2.288890 -0.676410
v -0.216817 0.496415 -0.676411
v -0.216817 -2.288890 0.676411
v -0.216817 0.496415 0.676410
v 0.213290 -2.288890 0.521425
v 0.213290 -2.288890 -0.521425
v 0.213290 0.496415 -0.521425
v 0.213290 0.496415 0.521425
v -0.216817 -2.288890 -0.521425
v -0.216817 -2.288890 0.521425
v -0.216817 0.496415 0.521425
v -0.216817 0.496415 -0.521425
v 0.213290 -0.079873 -0.676411
v -0.216817 -0.079873 -0.676411
v -0.216817 -0.079873 -0.521425
v 0.213290 -0.079873 -0.521425
v 0.213290 -0.079873 0.676411
v -0.216817 -0.079873 0.676411
v -0.216817 -0.079873 0.521425
v 0.213290 -0.079873 0.521425
v 0.120252 -2.288890 -0.676410
v -0.123778 -2.288890 -0.676410
v -0.123778 0.496415 -0.676411
v 0.120252 0.496415 -0.676411
v 0.120252 0.496415 -0.521425
v -0.123778 0.496415 -0.521425
v -0.123778 -2.288890 -0.521425
v 0.120252 -2.288890 -0.521425
v -0.123778 -0.079873 -0.521425
v 0.120252 -0.079873 -0.521425
v -0.123778 -0.079873 -0.676411
v 0.120252 -0.079873 -0.676411
v -0.123778 -2.288890 0.676411
v 0.120252 -2.288890 0.676411
v 0.120252 0.496415 0.676410
v -0.123778 0.496415 0.676410
v 0.120252 0.496415 0.521425
v -0.123778 0.496415 0.521425
v -0.123778 -2.288890 0.521425
v 0.120252 -2.288890 0.521425
v 0.120252 -0.079873 0.521425
v -0.123778 -0.079873 0.521425
v 0.120252 -0.079873 0.676411
v -0.123778 -0.079873 0.676411
v -0.123778 0.496589 -0.509268
v -0.123778 0.496589 0.509268
v -0.123778 -0.067637 -0.509268
v -0.123778 -0.067637 0.509268
v -0.295500 -0.067637 -0.509268
v -0.421835 0.042333 -0.509268
v -0.421835 0.496589 -0.509268
v -0.421835 0.042333 0.509268
v -0.295500 -0.067637 0.509268
v -0.421835 0.496589 0.509268
v 0.120252 0.496589 -0.509268
v 0.120252 0.496589 0.509268
v 0.120252 -0.067637 -0.509268
v 0.120252 -0.067637 0.509268
v 0.291974 -0.067637 -0.509268
v 0.418309 0.042333 -0.509268
v 0.418309 0.496589 -0.509268
v 0.418309 0.042333 0.509268
v 0.291974 -0.067637 0.509268
v 0.418309 0.496589 0.509268
v -0.216816 0.076408 0.529003
v -0.216816 0.494826 0.529003
v -0.216816 0.076408 0.668832
v -0.216816 0.494826 0.668832
v -0.460207 0.494826 0.529003
v -0.460207 0.494826 0.668832
v -0.387168 0.076408 0.529003
v -0.460207 0.149447 0.529003
v -0.460207 0.149447 0.668832
v -0.387168 0.076408 0.668832
v 0.213288 0.076408 0.529003
v 0.213288 0.494826 0.529003
v 0.213288 0.076408 0.668832
v 0.213288 0.494826 0.668832
v 0.475488 0.494826 0.529003
v 0.475488 0.494826 0.668832
v 0.402450 0.076408 0.529003
v 0.475488 0.149447 0.529003
v 0.475488 0.149447 0.668832
v 0.402450 0.076408 0.668832
v -0.216816 0.076408 -0.529003
v -0.216816 0.494826 -0.529003
v -0.216816 0.076408 -0.668833
v -0.216816 0.494826 -0.668833
v -0.460207 0.494826 -0.529003
v -0.460207 0.494826 -0.668833
v -0.387168 0.076408 -0.529003
v -0.460207 0.149447 -0.529003
v -0.460207 0.149447 -0.668833
v -0.387168 0.076408 -0.668833
v 0.213288 0.076408 -0.529003
v 0.213288 0.494826 -0.529003
v 0.213288 0.076408 -0.668833
v 0.213288 0.494826 -0.668833
v 0.475488 0.494826 -0.529003
v 0.475488 0.494826 -0.668833
v 0.402450 0.076408 -0.529003
v 0.475488 0.149447 -0.529003
v 0.475488 0.149447 -0.668833
v 0.402450 0.076408 -0.668833
vn 1.0000 -0.0000 -0.0000
vn -0.6083 0.7937 -0.0000
vn -0.0000 1.0000 -0.0000
vn -1.0000 -0.0000 -0.0000
vn -0.0000 -0.0000 1.0000
vn -0.0000 -1.0000 -0.0000
vn -0.0000 -0.0000 -1.0000
vn 0.6083 0.7937 -0.0000
vn -0.6566 -0.7543 -0.0000
vn 0.6566 -0.7543 -0.0000
vn -0.7071 -0.7071 -0.0000
vn 0.7071 -0.7071 -0.0000
vt 0.425310 0.000000
vt 0.625000 0.000000
vt 0.625000 0.250000
vt 0.425310 0.250000
vt 0.311465 0.785322
vt 0.311465 0.464678
vt 0.423726 0.500000
vt 0.423726 0.750000
vt 0.125000 0.500000
vt 0.125000 0.750000
vt 0.576274 0.500000
vt 0.576274 0.750000
vt 0.695644 0.785322
vt 0.625000 1.000000
vt 0.425310 1.000000
vt 0.695644 0.464678
vt 0.875000 0.500000
vt 0.875000 0.750000
vt 0.500000 0.166667
vt 0.625000 0.166667
vt 0.500000 0.250000
vt 0.500000 0.416667
vt 0.625000 0.416667
vt 0.625000 0.500000
vt 0.500000 0.500000
vt 0.500000 0.666667
vt 0.625000 0.666667
vt 0.625000 0.750000
vt 0.500000 0.750000
vt 0.500000 0.916667
vt 0.625000 0.916667
vt 0.500000 1.000000
vt 0.291667 0.666667
vt 0.375000 0.666667
vt 0.375000 0.750000
vt 0.291667 0.750000
vt 0.791667 0.666667
vt 0.875000 0.666667
vt 0.791667 0.750000
vt 0.791667 0.500000
vt 0.875000 0.583333
vt 0.791667 0.583333
vt 0.291667 0.500000
vt 0.375000 0.500000
vt 0.375000 0.583333
vt 0.291667 0.583333
vt 0.625000 0.583333
vt 0.500000 0.583333
vt 0.500000 0.444444
vt 0.375000 0.444444
vt 0.500000 0.000000
vt 0.625000 0.083333
vt 0.500000 0.083333
vt 0.500000 0.472222
vt 0.375000 0.472222
vt 0.375000 0.000000
vt 0.375000 0.083333
vt 0.375000 0.916667
vt 0.375000 1.000000
vt 0.375000 0.416667
vt 0.375000 0.166667
vt 0.375000 0.250000
vt 0.625000 0.472222
vt 0.625000 0.277778
vt 0.500000 0.277778
vt 0.625000 0.444444
vt 0.500000 0.833333
vt 0.375000 0.833333
vt 0.375000 0.277778
vt 0.708333 0.666667
vt 0.708333 0.750000
vt 0.125000 0.666667
vt 0.208333 0.666667
vt 0.208333 0.750000
vt 0.625000 0.833333
vt 0.625000 0.305556
vt 0.500000 0.305556
vt 0.500000 0.333333
vt 0.375000 0.333333
vt 0.375000 0.305556
vt 0.208333 0.500000
vt 0.208333 0.583333
vt 0.125000 0.583333
vt 0.708333 0.500000
vt 0.708333 0.583333
vt 0.625000 0.333333
vt 0.328573 0.773214
vt 0.328573 0.476787
vt 0.409820 0.500000
vt 0.409820 0.750000
s 0
usemtl Material
f 3/1/1 1/2/1 2/3/1 4/4/1
f 5/5/2 9/6/2 8/7/2 6/8/2
f 4/9/3 9/6/3 5/5/3 3/10/3
f 8/7/4 10/11/4 7/12/4 6/8/4
f 5/5/5 6/8/5 7/13/5 1/14/5 3/15/5
f 10/16/6 2/17/6 1/18/6 7/13/6
f 4/4/7 2/3/7 10/11/7 8/7/7 9/6/7
f 13/1/4 14/4/4 12/3/4 11/2/4
f 15/5/8 16/8/8 18/7/8 19/6/8
f 14/9/3 13/10/3 15/5/3 19/6/3
f 18/7/1 16/8/1 17/12/1 20/11/1
f 15/5/5 13/15/5 11/14/5 17/13/5 16/8/5
f 20/16/6 17/13/6 11/18/6 12/17/6
f 14/4/7 19/6/7 18/7/7 20/11/7 12/3/7
f 44/19/1 32/20/1 24/3/1 41/21/1
f 68/22/5 60/23/5 28/24/5 42/25/5
f 39/26/4 36/27/4 26/28/4 38/29/4
f 56/30/7 48/31/7 22/14/7 37/32/7
f 51/33/6 33/34/6 25/35/6 46/36/6
f 49/37/3 31/38/3 22/18/3 48/39/3
f 59/40/3 24/17/3 32/41/3 61/42/3
f 57/43/6 27/44/6 34/45/6 63/46/6
f 42/25/4 28/24/4 35/47/4 43/48/4
f 66/49/7 63/50/7 34/45/7 43/48/7
f 37/51/1 22/2/1 31/52/1 40/53/1
f 53/54/5 39/26/5 33/34/5 51/55/5
f 21/56/1 37/51/1 40/53/1 30/57/1
f 45/58/7 56/30/7 37/32/7 21/59/7
f 33/34/4 39/26/4 38/29/4 25/35/4
f 27/44/4 42/25/4 43/48/4 34/45/4
f 57/60/5 68/22/5 42/25/5 27/44/5
f 29/61/1 44/19/1 41/21/1 23/62/1
f 50/63/5 36/27/5 39/26/5 53/54/5
f 31/52/5 49/64/5 54/65/5 40/53/5
f 53/54/4 66/49/4 62/66/4 50/63/4
f 25/35/7 38/29/7 55/67/7 46/68/7
f 46/68/7 55/67/7 56/30/7 45/58/7
f 40/53/5 54/65/5 52/69/5 30/57/5
f 54/65/5 53/54/5 51/55/5 52/69/5
f 36/27/3 50/70/3 47/71/3 26/28/3
f 50/70/3 49/37/3 48/39/3 47/71/3
f 30/72/6 52/73/6 45/74/6 21/10/6
f 52/73/6 51/33/6 46/36/6 45/74/6
f 38/29/7 26/28/7 47/75/7 55/67/7
f 55/67/7 47/75/7 48/31/7 56/30/7
f 61/76/7 32/20/7 44/19/7 65/77/7
f 35/47/7 62/66/7 66/49/7 43/48/7
f 53/54/6 54/65/6 65/77/6 66/49/6
f 23/62/5 41/21/5 67/78/5 58/79/5
f 58/79/5 67/78/5 68/22/5 57/60/5
f 44/19/7 29/61/7 64/80/7 65/77/7
f 65/77/7 64/80/7 63/50/7 66/49/7
f 23/9/6 58/81/6 64/82/6 29/83/6
f 58/81/6 57/43/6 63/46/6 64/82/6
f 28/24/3 60/84/3 62/85/3 35/47/3
f 60/84/3 59/40/3 61/42/3 62/85/3
f 41/21/5 24/3/5 59/86/5 67/78/5
f 67/78/5 59/86/5 60/23/5 68/22/5
f 50/63/3 62/66/3 61/42/3 49/37/3
f 54/65/1 49/37/1 61/76/1 65/77/1
f 71/1/1 69/2/1 70/3/1 72/4/1
f 73/5/9 77/6/9 76/7/9 74/8/9
f 72/9/6 77/6/6 73/5/6 71/10/6
f 76/7/4 78/11/4 75/12/4 74/8/4
f 73/5/7 74/8/7 75/13/7 69/14/7 71/15/7
f 78/16/3 70/17/3 69/18/3 75/13/3
f 72/4/5 70/3/5 78/11/5 76/7/5 77/6/5
f 81/1/4 82/4/4 80/3/4 79/2/4
f 83/5/10 84/8/10 86/7/10 87/6/10
f 82/9/6 81/10/6 83/5/6 87/6/6
f 86/7/1 84/8/1 85/12/1 88/11/1
f 83/5/7 81/15/7 79/14/7 85/13/7 84/8/7
f 88/16/3 85/13/3 79/18/3 80/17/3
f 82/4/5 87/6/5 86/7/5 88/11/5 80/3/5
f 89/56/1 90/2/1 92/3/1 91/62/1
f 94/24/3 92/17/3 90/18/3 93/28/3
f 95/87/11 98/88/11 97/89/11 96/90/11
f 91/9/6 98/88/6 95/87/6 89/10/6
f 97/89/4 94/24/4 93/28/4 96/90/4
f 95/87/7 96/90/7 93/28/7 90/14/7 89/59/7
f 91/62/5 92/3/5 94/24/5 97/89/5 98/88/5
f 99/56/4 101/62/4 102/3/4 100/2/4
f 104/24/3 103/28/3 100/18/3 102/17/3
f 105/87/12 106/90/12 107/89/12 108/88/12
f 101/9/6 99/10/6 105/87/6 108/88/6
f 107/89/1 106/90/1 103/28/1 104/24/1
f 105/87/7 99/59/7 100/14/7 103/28/7 106/90/7
f 101/62/5 108/88/5 107/89/5 104/24/5 102/3/5
f 109/56/1 111/62/1 112/3/1 110/2/1
f 114/24/3 113/28/3 110/18/3 112/17/3
f 115/87/11 116/90/11 117/89/11 118/88/11
f 111/9/6 109/10/6 115/87/6 118/88/6
f 117/89/4 116/90/4 113/28/4 114/24/4
f 115/87/5 109/59/5 110/14/5 113/28/5 116/90/5
f 111/62/7 118/88/7 117/89/7 114/24/7 112/3/7
f 119/56/4 120/2/4 122/3/4 121/62/4
f 124/24/3 122/17/3 120/18/3 123/28/3
f 125/87/12 128/88/12 127/89/12 126/90/12
f 121/9/6 128/88/6 125/87/6 119/10/6
f 127/89/1 124/24/1 123/28/1 126/90/1
f 125/87/5 126/90/5 123/28/5 120/14/5 119/59/5
f 121/62/7 122/3/7 124/24/7 127/89/7 128/88/7
