# Blender 5.1.1
# www.blender.org
mtllib Ventilation.mtl
o Ventilation
v 6.082288 -2.897586 -0.601129
v 6.082288 -1.695328 -0.601129
v 6.082288 -2.897586 0.601129
v 6.082288 -1.695328 0.601129
v -4.877539 -2.897586 -0.601129
v -4.877539 -1.695328 -0.601129
v -4.877539 -2.897586 0.601129
v -4.877539 -1.695328 0.601129
v -0.631668 -2.897586 0.601129
v 0.631638 -2.897586 0.601129
v 0.631638 -1.665944 0.586827
v -0.631668 -1.665944 0.586827
v 0.631638 -2.897586 -0.601129
v -0.631668 -2.897586 -0.601129
v -0.631668 -1.665944 -0.586827
v 0.631638 -1.665944 -0.586827
v -4.877540 -3.179633 -0.883177
v -4.877540 -1.413280 -0.883177
v -4.877540 -3.179633 0.883177
v -4.877540 -1.413280 0.883177
v -5.882534 -3.179633 -0.883177
v -5.882534 -1.413280 -0.883177
v -5.882534 -3.179633 0.883177
v -5.882534 -1.413280 0.883177
v 6.082288 7.158363 -0.601129
v 6.082288 5.956105 -0.601129
v 6.082288 7.158363 0.601129
v 6.082288 5.956105 0.601129
v -11.755051 7.158363 -0.601129
v -11.755051 5.956105 -0.601129
v -11.755051 7.158363 0.601129
v -11.755051 5.956105 0.601129
v -0.631668 7.158363 0.601129
v 0.631638 7.158363 0.601129
v 0.631638 5.926722 0.586827
v -0.631668 5.926722 0.586827
v 0.631638 7.158363 -0.601129
v -0.631668 7.158363 -0.601129
v -0.631668 5.926722 -0.586827
v 0.631638 5.926722 -0.586827
v -11.755052 7.440412 -0.883177
v -11.755052 5.674057 -0.883177
v -11.755052 7.440412 0.883177
v -11.755052 5.674057 0.883177
v -12.760046 7.440412 -0.883177
v -12.760046 5.674057 -0.883177
v -12.760046 7.440412 0.883177
v -12.760046 5.674057 0.883177
v -0.631668 2.746211 -0.586827
v -0.631668 2.746211 0.586827
v 0.631638 2.746211 0.586827
v 0.631638 2.746211 -0.586827
v -0.631668 1.514569 -0.586827
v 0.631638 1.514569 0.586827
v 6.082288 2.746211 -0.601129
v 6.082288 1.543952 -0.601129
v 6.082288 2.746211 0.601129
v 6.082288 1.543952 0.601129
v -4.877539 2.746211 -0.601129
v -4.877539 1.543952 -0.601129
v -4.877539 2.746211 0.601129
v -4.877539 1.543952 0.601129
v -0.631668 1.514569 0.586827
v 0.631638 1.514569 -0.586827
vn 0.0069 -1.0000 -0.0000
vn 0.0013 -0.0059 1.0000
vn -0.0000 1.0000 -0.0000
vn -0.0054 -1.0000 -0.0000
vn -0.0017 -0.0059 1.0000
vn -0.0000 -0.0116 0.9999
vn -1.0000 -0.0000 -0.0000
vn 1.0000 -0.0000 -0.0000
vn -0.0000 -0.0000 1.0000
vn -0.0000 -1.0000 -0.0000
vn 0.0026 1.0000 -0.0000
vn 0.0013 0.0059 1.0000
vn -0.0054 1.0000 -0.0000
vn -0.0006 0.0059 1.0000
vn -0.0000 0.0116 0.9999
vn 0.0069 1.0000 -0.0000
vn 0.0026 -0.0000 1.0000
vn -0.0034 -0.0000 1.0000
vt 0.625000 0.500000
vt 0.625000 0.750000
vt 0.708333 0.750000
vt 0.708333 0.500000
vt 0.375000 0.916667
vt 0.375000 1.000000
vt 0.625000 1.000000
vt 0.625000 0.916667
vt 0.291667 0.500000
vt 0.291667 0.750000
vt 0.375000 0.750000
vt 0.375000 0.500000
vt 0.791667 0.500000
vt 0.791667 0.750000
vt 0.875000 0.750000
vt 0.875000 0.500000
vt 0.125000 0.500000
vt 0.125000 0.750000
vt 0.208333 0.750000
vt 0.208333 0.500000
vt 0.375000 0.833333
vt 0.625000 0.833333
s 0
f 8/1/1 6/2/1 15/3/1 12/4/1
f 13/5/2 1/6/2 2/7/2 16/8/2
f 9/9/3 14/10/3 5/11/3 7/12/3
f 11/13/4 16/14/4 2/15/4 4/16/4
f 3/17/3 1/18/3 13/19/3 10/20/3
f 10/20/3 13/19/3 14/10/3 9/9/3
f 5/11/5 14/21/5 15/22/5 6/2/5
f 14/21/6 13/5/6 16/8/6 15/22/6
f 64/14/7 16/14/7 11/13/7 54/13/7
f 63/4/8 12/4/8 15/3/8 53/3/8
f 6/2/7 8/1/7 20/1/7 18/2/7
f 5/11/7 6/2/7 18/2/7 17/11/7
f 7/12/7 5/11/7 17/11/7 19/12/7
f 17/11/9 18/2/9 22/2/9 21/11/9
f 19/12/3 17/11/3 21/11/3 23/12/3
f 18/2/10 20/1/10 24/1/10 22/2/10
f 32/1/11 36/4/11 39/3/11 30/2/11
f 37/5/12 40/8/12 26/7/12 25/6/12
f 33/9/10 31/12/10 29/11/10 38/10/10
f 35/13/13 28/16/13 26/15/13 40/14/13
f 27/17/10 34/20/10 37/19/10 25/18/10
f 34/20/10 33/9/10 38/10/10 37/19/10
f 29/11/14 30/2/14 39/22/14 38/21/14
f 38/21/15 39/22/15 40/8/15 37/5/15
f 30/2/7 42/2/7 44/1/7 32/1/7
f 29/11/7 41/11/7 42/2/7 30/2/7
f 31/12/7 43/12/7 41/11/7 29/11/7
f 41/11/9 45/11/9 46/2/9 42/2/9
f 43/12/10 47/12/10 45/11/10 41/11/10
f 42/2/3 46/2/3 48/1/3 44/1/3
f 53/22/9 15/22/9 16/8/9 64/8/9
f 39/22/9 49/22/9 52/8/9 40/8/9
f 36/4/8 50/4/8 49/3/8 39/3/8
f 40/14/7 52/14/7 51/13/7 35/13/7
f 62/1/16 63/4/16 53/3/16 60/2/16
f 52/5/17 64/8/17 56/7/17 55/6/17
f 50/9/10 61/12/10 59/11/10 49/10/10
f 54/13/13 58/16/13 56/15/13 64/14/13
f 57/17/10 51/20/10 52/19/10 55/18/10
f 51/20/10 50/9/10 49/10/10 52/19/10
f 59/11/18 60/2/18 53/22/18 49/21/18
f 49/21/9 53/22/9 64/8/9 52/5/9
f 59/11/8 61/12/8 62/1/8 60/2/8
f 57/17/7 55/6/7 56/15/7 58/16/7
f 27/17/7 25/6/7 26/15/7 28/16/7
f 3/17/7 4/16/7 2/15/7 1/6/7
