# Blender 5.1.1
# www.blender.org
mtllib VentStraight.mtl
o VentStraight
v 3.001929 -0.883177 0.883177
v 3.001929 -0.883177 -0.883177
v -3.001934 0.883177 -0.883177
v -3.001934 -0.883177 -0.883177
v -3.001934 0.883177 0.883177
v -3.001934 -0.883177 0.883177
v 3.001929 0.883177 0.883177
v 3.001929 0.883177 -0.883177
v -3.001934 1.083108 0.883177
v 3.001929 1.083108 0.883177
v 3.001929 1.083108 -1.112559
v -3.001934 1.083108 -1.112559
v 3.001929 -1.083335 0.883177
v 3.001929 -1.083335 -1.112559
v -3.001934 -1.083335 0.883177
v -3.001934 -1.083335 -1.112559
vn -0.0000 -0.0000 1.0000
vn -0.0000 1.0000 -0.0000
vn -0.0000 -1.0000 -0.0000
vn -0.0000 -0.0000 -1.0000
vn 1.0000 -0.0000 -0.0000
vn -1.0000 -0.0000 -0.0000
vt 0.625000 0.750000
vt 0.375000 0.750000
vt 0.625000 0.500000
vt 0.375000 0.500000
s 0
f 4/1/1 2/1/1 8/2/1 3/2/1
f 6/3/2 1/3/2 2/1/2 4/1/2
f 3/2/3 8/2/3 7/4/3 5/4/3
f 16/1/4 12/2/4 11/2/4 14/1/4
f 15/3/3 16/1/3 14/1/3 13/3/3
f 12/2/2 9/4/2 10/4/2 11/2/2
f 8/2/5 11/2/5 10/4/5 7/4/5
f 4/1/6 16/1/6 15/3/6 6/3/6
f 1/3/5 13/3/5 14/1/5 2/1/5
f 7/4/1 10/4/1 9/4/1 5/4/1
f 6/3/1 15/3/1 13/3/1 1/3/1
f 2/1/5 14/1/5 11/2/5 8/2/5
f 3/2/6 12/2/6 16/1/6 4/1/6
f 5/4/6 9/4/6 12/2/6 3/2/6
