# Blender 5.1.1
# www.blender.org
mtllib VentCorner.mtl
o VentCorner
v 0.883178 0.883180 -0.883177
v 0.883178 -0.883176 -0.883177
v 0.883178 -0.883176 0.883177
v -0.883177 0.883180 0.883177
v -0.883177 0.883180 -0.883177
v -0.883177 -0.883176 -0.883177
v -0.883177 -0.883176 0.883177
v 0.883178 -1.083335 0.883177
v 0.883178 -1.083335 -1.083022
v 0.883178 0.883180 -1.083022
v -1.083298 -1.083335 0.883177
v -1.083298 0.883180 0.883177
v -1.083298 0.883180 -1.083022
v -1.083298 -1.083335 -1.083022
vn 1.0000 -0.0000 -0.0000
vn -0.0000 -0.0000 1.0000
vn -0.0000 1.0000 -0.0000
vn -1.0000 -0.0000 -0.0000
vn -0.0000 -0.0000 -1.0000
vn -0.0000 -1.0000 -0.0000
vt 0.375000 0.750000
vt 0.375000 0.500000
vt 0.625000 0.750000
vt 0.625000 0.500000
s 0
f 6/1/1 5/1/1 4/2/1 7/2/1
f 2/3/2 1/3/2 5/1/2 6/1/2
f 3/4/3 2/3/3 6/1/3 7/2/3
f 14/1/4 11/2/4 12/2/4 13/1/4
f 9/3/5 14/1/5 13/1/5 10/3/5
f 8/4/6 11/2/6 14/1/6 9/3/6
f 7/2/2 11/2/2 8/4/2 3/4/2
f 5/1/3 13/1/3 12/2/3 4/2/3
f 2/3/1 9/3/1 10/3/1 1/3/1
f 1/3/3 10/3/3 13/1/3 5/1/3
f 4/2/2 12/2/2 11/2/2 7/2/2
f 3/4/1 8/4/1 9/3/1 2/3/1
