# Blender 5.1.1
# www.blender.org
mtllib Ventilation.mtl
o Ventilation
v 6.082288 -2.897586 -0.601129
v 6.082288 -1.695328 -0.601129
v 6.082288 -2.897586 0.601129
v 6.082288 -1.695328 0.601129
v -4.877539 -2.897586 -0.601129
v -4.877539 -1.695328 -0.601129
v -4.877539 -2.897586 0.601129
v -4.877539 -1.695328 0.601129
v -0.650366 -2.897586 0.601129
v 0.650365 -2.897586 0.601129
v 0.628522 -1.665944 0.586827
v -0.628523 -1.665944 0.586827
v 0.650365 -2.897586 -0.601129
v -0.650366 -2.897586 -0.601129
v -0.628523 -1.665944 -0.586827
v 0.628522 -1.665944 -0.586827
v -4.877540 -3.179634 -0.883177
v -4.877540 -1.413280 -0.883177
v -4.877540 -3.179634 0.883177
v -4.877540 -1.413280 0.883177
v -5.882534 -3.179634 -0.883177
v -5.882534 -1.413280 -0.883177
v -5.882534 -3.179634 0.883177
v -5.882534 -1.413280 0.883177
v 6.082288 7.158363 -0.601129
v 6.082288 5.956105 -0.601129
v 6.082288 7.158363 0.601129
v 6.082288 5.956105 0.601129
v -4.877539 7.158363 -0.601129
v -4.877539 5.956105 -0.601129
v -4.877539 7.158363 0.601129
v -4.877539 5.956105 0.601129
v -0.650366 7.158363 0.601129
v 0.650365 7.158363 0.601129
v 0.628522 5.926722 0.586827
v -0.628523 5.926722 0.586827
v 0.650365 7.158363 -0.601129
v -0.650366 7.158363 -0.601129
v -0.628523 5.926722 -0.586827
v 0.628522 5.926722 -0.586827
v -4.877540 7.440411 -0.883177
v -4.877540 5.674057 -0.883177
v -4.877540 7.440411 0.883177
v -4.877540 5.674057 0.883177
v -5.882534 7.440411 -0.883177
v -5.882534 5.674057 -0.883177
v -5.882534 7.440411 0.883177
v -5.882534 5.674057 0.883177
vn 0.0069 -1.0000 -0.0000
vn -1.0000 -0.0000 -0.0000
vn 0.0013 -0.0059 1.0000
vn -0.0000 1.0000 -0.0000
vn -0.0054 -1.0000 -0.0000
vn -0.0017 -0.0059 1.0000
vn -0.0000 -0.0116 0.9999
vn 1.0000 -0.0000 -0.0000
vn -0.0000 -0.0000 1.0000
vn -0.0000 -1.0000 -0.0000
vn 0.0069 1.0000 -0.0000
vn 0.0013 0.0059 1.0000
vn -0.0054 1.0000 -0.0000
vn -0.0017 0.0059 1.0000
vn -0.0000 0.0116 0.9999
vt 0.625000 0.500000
vt 0.625000 0.750000
vt 0.708333 0.750000
vt 0.708333 0.500000
vt 0.791667 0.750000
vt 0.791667 0.500000
vt 0.375000 0.916667
vt 0.375000 1.000000
vt 0.625000 1.000000
vt 0.625000 0.916667
vt 0.291667 0.500000
vt 0.291667 0.750000
vt 0.375000 0.750000
vt 0.375000 0.500000
vt 0.875000 0.750000
vt 0.875000 0.500000
vt 0.125000 0.500000
vt 0.125000 0.750000
vt 0.208333 0.750000
vt 0.208333 0.500000
vt 0.375000 0.833333
vt 0.625000 0.833333
s 0
f 8/1/1 6/2/1 15/3/1 12/4/1
f 40/5/2 16/5/2 11/6/2 35/6/2
f 13/7/3 1/8/3 2/9/3 16/10/3
f 9/11/4 14/12/4 5/13/4 7/14/4
f 11/6/5 16/5/5 2/15/5 4/16/5
f 3/17/4 1/18/4 13/19/4 10/20/4
f 10/20/4 13/19/4 14/12/4 9/11/4
f 5/13/6 14/21/6 15/22/6 6/2/6
f 14/21/7 13/7/7 16/10/7 15/22/7
f 36/4/8 12/4/8 15/3/8 39/3/8
f 39/22/9 15/22/9 16/10/9 40/10/9
f 6/2/2 8/1/2 20/1/2 18/2/2
f 5/13/2 6/2/2 18/2/2 17/13/2
f 7/14/2 5/13/2 17/13/2 19/14/2
f 17/13/9 18/2/9 22/2/9 21/13/9
f 19/14/4 17/13/4 21/13/4 23/14/4
f 18/2/10 20/1/10 24/1/10 22/2/10
f 32/1/11 36/4/11 39/3/11 30/2/11
f 37/7/12 40/10/12 26/9/12 25/8/12
f 33/11/10 31/14/10 29/13/10 38/12/10
f 35/6/13 28/16/13 26/15/13 40/5/13
f 27/17/10 34/20/10 37/19/10 25/18/10
f 34/20/10 33/11/10 38/12/10 37/19/10
f 29/13/14 30/2/14 39/22/14 38/21/14
f 38/21/15 39/22/15 40/10/15 37/7/15
f 30/2/2 42/2/2 44/1/2 32/1/2
f 29/13/2 41/13/2 42/2/2 30/2/2
f 31/14/2 43/14/2 41/13/2 29/13/2
f 41/13/9 45/13/9 46/2/9 42/2/9
f 43/14/10 47/14/10 45/13/10 41/13/10
f 42/2/4 46/2/4 48/1/4 44/1/4
