# Blender 5.1.1
# www.blender.org
mtllib WallRearLong.mtl
o WallRearLong
v 3.001935 0.100005 -7.531235
v -3.001935 0.100005 -7.531235
v 3.001935 1.170891 -8.370174
v -3.001935 1.170891 -8.370174
v 3.001935 3.030765 -8.370174
v -3.001935 3.030765 -8.370174
v 3.001935 4.101650 -7.531235
v -3.001935 4.101650 -7.531235
v 3.001935 0.100005 -2.500938
v -3.001935 0.100005 -2.500938
v 3.001935 4.101650 -2.500938
v -3.001935 4.101650 -2.500938
vn -0.0000 0.6167 0.7872
vn -0.0000 -0.0000 1.0000
vn -0.0000 -0.6167 0.7872
vn 1.0000 -0.0000 -0.0000
vn -1.0000 -0.0000 -0.0000
vt 0.000000 0.000000
s 0
usemtl Material
f 1/1/1 3/1/1 4/1/1 2/1/1
f 3/1/2 5/1/2 6/1/2 4/1/2
f 5/1/3 7/1/3 8/1/3 6/1/3
f 2/1/4 4/1/4 6/1/4 8/1/4
f 3/1/5 1/1/5 7/1/5 5/1/5
f 7/1/5 1/1/5 9/1/5 11/1/5
f 2/1/4 8/1/4 12/1/4 10/1/4
