# Blender 5.1.2
# www.blender.org
mtllib WallMultiLevelRear.mtl
o WallMultiLevelRear
v 3.001934 0.100005 -2.500938
v -3.001934 0.100005 -2.500938
v 3.001934 1.170891 -3.339877
v -3.001934 1.170891 -3.339877
v 3.001934 7.230776 -3.339877
v -3.001934 7.230776 -3.339877
v 3.001934 8.301661 -2.500938
v -3.001934 8.301661 -2.500938
vn -0.0000 0.6167 0.7872
vn -0.0000 -0.0000 1.0000
vn -0.0000 -0.6167 0.7872
vt 0.000000 0.000000
s 0
usemtl Material
f 1/1/1 3/1/1 4/1/1 2/1/1
f 3/1/2 5/1/2 6/1/2 4/1/2
f 5/1/3 7/1/3 8/1/3 6/1/3
