# Blender 5.1.2
# www.blender.org
mtllib WallCells.mtl
o WallCells
v 3.001934 0.100005 -2.500938
v -3.001934 0.100005 -2.500938
v 3.001934 1.170891 -3.339877
v -3.001934 1.170891 -3.339877
v 3.001934 7.230776 -3.339877
v -3.001934 7.230776 -3.339877
v 3.001934 8.301661 -2.500938
v -3.001934 8.301661 -2.500938
v 3.001934 4.200833 -3.339877
v -3.001934 4.200833 -3.339877
v 0.000000 0.100005 -2.500938
v 0.000000 1.170891 -3.339877
v 0.000000 7.230776 -3.339877
v 0.000000 8.301661 -2.500938
v 0.000000 4.200833 -3.339877
v -0.783557 4.518595 -3.378272
v -0.783557 6.913014 -3.496531
v -2.216132 6.913014 -3.496531
v -2.216132 4.518595 -3.378272
v -0.103434 1.274325 -3.339877
v -0.103434 4.097400 -3.339877
v -2.898499 4.097400 -3.339877
v -2.898499 1.274325 -3.339877
v 2.898499 1.274325 -3.339877
v 2.898499 4.097400 -3.339877
v 0.103434 4.097400 -3.339877
v 0.103434 1.274325 -3.339877
v 2.898499 4.304267 -3.339877
v 2.898499 7.127342 -3.339877
v 0.103434 7.127342 -3.339877
v 0.103434 4.304267 -3.339877
v 2.898499 4.097400 -6.141592
v 2.898499 1.274325 -6.141592
v -2.216132 4.518595 -6.103198
v -2.216132 6.913014 -5.984939
v 2.898499 7.127342 -6.141592
v 2.898499 4.304267 -6.141592
v -2.898499 1.274325 -6.141592
v -2.898499 4.097400 -6.141592
v -0.783557 6.913014 -5.984939
v -0.783557 4.518595 -6.103198
v -0.103434 4.097400 -6.141592
v -0.103434 1.274325 -6.141592
v 0.103434 1.274325 -6.141592
v 0.103434 4.097400 -6.141592
v 0.103434 4.304267 -6.141592
v 0.103434 7.127342 -6.141592
v -0.221196 4.518595 -3.339877
v -2.780738 4.518595 -3.339877
v -0.221196 4.518595 -6.141592
v -2.780738 4.518595 -6.141592
v -0.783557 4.748554 -3.378272
v -2.216132 4.748554 -3.378272
v -0.783557 4.748554 -6.103198
v -2.216132 4.748554 -6.103198
v -2.780738 6.913014 -3.339877
v -0.221196 6.913014 -3.339877
v -2.780738 6.913014 -6.141592
v -0.221196 6.913014 -6.141592
v -1.261082 4.200833 -3.339877
v -1.738607 4.200833 -3.339877
v -1.738607 0.100005 -2.500938
v -1.261082 0.100005 -2.500938
v -1.738607 1.170891 -3.339877
v -1.261082 1.170891 -3.339877
v -1.738607 7.230776 -3.339877
v -1.261082 7.230776 -3.339877
v -1.738607 8.301661 -2.500938
v -1.261082 8.301661 -2.500938
v -1.261082 4.518595 -3.339877
v -1.738607 4.518595 -3.339877
v -1.738607 6.913014 -3.339877
v -1.261082 6.913014 -3.339877
v -1.738607 1.274325 -3.339877
v -1.261082 1.274325 -3.339877
v -1.261082 4.097400 -3.339877
v -1.738607 4.097400 -3.339877
v -1.074376 4.518595 -6.141592
v -1.927557 4.518595 -6.141592
v -1.927557 6.913014 -6.141592
v -1.074376 6.913014 -6.141592
v -1.738607 1.274325 -6.141592
v -1.261082 1.274325 -6.141592
v -1.261082 4.097400 -6.141592
v -1.738607 4.097400 -6.141592
v -1.261082 4.518595 -3.378272
v -1.738607 4.518595 -3.378272
v -1.261082 4.518595 -6.103198
v -1.738607 4.518595 -6.103198
v -1.261082 4.748554 -3.378272
v -1.738607 4.748554 -3.378272
v -1.261082 4.748554 -6.103198
v -1.738607 4.748554 -6.103198
v -1.738607 6.913014 -3.496531
v -1.261082 6.913014 -3.496531
v -1.738607 6.913014 -5.984939
v -1.261082 6.913014 -5.984939
v -1.261082 6.797473 -3.496531
v -0.783557 6.797473 -3.496531
v -1.261082 6.797473 -5.984939
v -0.783557 6.797473 -5.984939
v -2.216132 6.797473 -3.496531
v -2.216132 6.797473 -5.984939
v -1.738607 6.797473 -3.496531
v -1.738607 6.797473 -5.984939
vn -0.0000 0.6167 0.7872
vn -0.0000 1.0000 -0.0000
vn -0.0000 -0.6167 0.7872
vn 1.0000 -0.0000 -0.0000
vn -0.0000 -0.0000 1.0000
vn -1.0000 -0.0000 -0.0000
vn -0.0000 -1.0000 -0.0000
vn -0.0000 -0.0000 -1.0000
vt 0.000000 0.000000
s 0
usemtl Material
f 62/1/1 64/1/1 4/1/1 2/1/1
f 31/1/2 28/1/2 37/1/2 46/1/2
f 66/1/3 68/1/3 8/1/3 6/1/3
f 75/1/2 20/1/2 43/1/2 83/1/2
f 27/1/2 24/1/2 33/1/2 44/1/2
f 5/1/3 7/1/3 14/1/3 13/1/3
f 16/1/4 41/1/4 54/1/4 52/1/4
f 1/1/1 3/1/1 12/1/1 11/1/1
f 15/1/5 13/1/5 57/1/5 48/1/5
f 66/1/5 6/1/5 56/1/5 72/1/5
f 6/1/5 10/1/5 49/1/5 56/1/5
f 60/1/5 15/1/5 48/1/5 70/1/5
f 12/1/5 15/1/5 21/1/5 20/1/5
f 61/1/5 10/1/5 22/1/5 77/1/5
f 10/1/5 4/1/5 23/1/5 22/1/5
f 65/1/5 12/1/5 20/1/5 75/1/5
f 3/1/5 9/1/5 25/1/5 24/1/5
f 9/1/5 15/1/5 26/1/5 25/1/5
f 15/1/5 12/1/5 27/1/5 26/1/5
f 12/1/5 3/1/5 24/1/5 27/1/5
f 9/1/5 5/1/5 29/1/5 28/1/5
f 5/1/5 13/1/5 30/1/5 29/1/5
f 13/1/5 15/1/5 31/1/5 30/1/5
f 15/1/5 9/1/5 28/1/5 31/1/5
f 79/1/5 80/1/5 58/1/5 51/1/5
f 82/1/5 85/1/5 39/1/5 38/1/5
f 33/1/5 32/1/5 45/1/5 44/1/5
f 37/1/5 36/1/5 47/1/5 46/1/5
f 95/1/6 97/1/6 100/1/6 98/1/6
f 25/1/7 26/1/7 45/1/7 32/1/7
f 77/1/7 22/1/7 39/1/7 85/1/7
f 29/1/7 30/1/7 47/1/7 36/1/7
f 28/1/6 29/1/6 36/1/6 37/1/6
f 26/1/4 27/1/4 44/1/4 45/1/4
f 30/1/4 31/1/4 46/1/4 47/1/4
f 22/1/4 23/1/4 38/1/4 39/1/4
f 24/1/6 25/1/6 32/1/6 33/1/6
f 56/1/4 49/1/4 51/1/4 58/1/4
f 48/1/6 57/1/6 59/1/6 50/1/6
f 20/1/6 21/1/6 42/1/6 43/1/6
f 87/1/2 19/1/2 49/1/2 71/1/2
f 88/1/2 41/1/2 50/1/2 78/1/2
f 41/1/2 16/1/2 48/1/2 50/1/2
f 19/1/2 34/1/2 51/1/2 49/1/2
f 90/1/2 52/1/2 54/1/2 92/1/2
f 86/1/5 16/1/5 52/1/5 90/1/5
f 34/1/6 19/1/6 53/1/6 55/1/6
f 89/1/8 34/1/8 55/1/8 93/1/8
f 95/1/7 17/1/7 57/1/7 73/1/7
f 96/1/7 35/1/7 58/1/7 80/1/7
f 35/1/7 18/1/7 56/1/7 58/1/7
f 17/1/7 40/1/7 59/1/7 57/1/7
f 40/1/7 97/1/7 81/1/7 59/1/7
f 97/1/7 96/1/7 80/1/7 81/1/7
f 18/1/7 94/1/7 72/1/7 56/1/7
f 94/1/7 95/1/7 73/1/7 72/1/7
f 41/1/8 88/1/8 92/1/8 54/1/8
f 88/1/8 89/1/8 93/1/8 92/1/8
f 19/1/5 87/1/5 91/1/5 53/1/5
f 87/1/5 86/1/5 90/1/5 91/1/5
f 53/1/2 91/1/2 93/1/2 55/1/2
f 91/1/2 90/1/2 92/1/2 93/1/2
f 34/1/2 89/1/2 79/1/2 51/1/2
f 89/1/2 88/1/2 78/1/2 79/1/2
f 16/1/2 86/1/2 70/1/2 48/1/2
f 86/1/2 87/1/2 71/1/2 70/1/2
f 21/1/7 76/1/7 84/1/7 42/1/7
f 76/1/7 77/1/7 85/1/7 84/1/7
f 94/1/5 18/1/5 102/1/5 104/1/5
f 95/1/7 94/1/7 96/1/7 97/1/7
f 43/1/5 42/1/5 84/1/5 83/1/5
f 83/1/5 84/1/5 85/1/5 82/1/5
f 50/1/5 59/1/5 81/1/5 78/1/5
f 78/1/5 81/1/5 80/1/5 79/1/5
f 4/1/5 64/1/5 74/1/5 23/1/5
f 64/1/5 65/1/5 75/1/5 74/1/5
f 15/1/5 60/1/5 76/1/5 21/1/5
f 60/1/5 61/1/5 77/1/5 76/1/5
f 10/1/5 61/1/5 71/1/5 49/1/5
f 61/1/5 60/1/5 70/1/5 71/1/5
f 13/1/5 67/1/5 73/1/5 57/1/5
f 67/1/5 66/1/5 72/1/5 73/1/5
f 23/1/2 74/1/2 82/1/2 38/1/2
f 74/1/2 75/1/2 83/1/2 82/1/2
f 13/1/3 14/1/3 69/1/3 67/1/3
f 67/1/3 69/1/3 68/1/3 66/1/3
f 11/1/1 12/1/1 65/1/1 63/1/1
f 63/1/1 65/1/1 64/1/1 62/1/1
f 104/1/7 102/1/7 103/1/7 105/1/7
f 99/1/7 98/1/7 100/1/7 101/1/7
f 40/1/4 17/1/4 99/1/4 101/1/4
f 97/1/8 40/1/8 101/1/8 100/1/8
f 96/1/4 94/1/4 104/1/4 105/1/4
f 18/1/6 35/1/6 103/1/6 102/1/6
f 35/1/8 96/1/8 105/1/8 103/1/8
f 17/1/5 95/1/5 98/1/5 99/1/5
