# Blender 5.1.2
# www.blender.org
mtllib FireAlarm.mtl
o Fire_Alarm
v 0.015300 0.000000 -0.023212
v 0.015300 0.012488 -0.035700
v 0.015300 0.001673 -0.029456
v 0.015300 0.003658 -0.032042
v 0.015300 0.089512 -0.035700
v 0.015300 0.102000 -0.023212
v 0.015300 0.098342 -0.032042
v 0.015300 0.100327 -0.029456
v 0.015300 0.012488 0.035700
v 0.015300 0.000000 0.023212
v 0.015300 0.003658 0.032042
v 0.015300 0.001673 0.029456
v 0.015300 0.102000 0.023212
v 0.015300 0.089512 0.035700
v 0.015300 0.100327 0.029456
v 0.015300 0.098342 0.032042
v -0.015300 0.089345 0.028170
v -0.015300 0.012655 0.028170
v -0.015300 0.089345 -0.028170
v -0.015300 0.012655 -0.028170
v -0.015300 0.012655 -0.023045
v -0.015300 0.089345 -0.023045
v -0.015300 0.012655 0.023045
v -0.015300 0.089345 0.023045
v -0.015300 0.012655 -0.033150
v -0.012750 0.012488 -0.035700
v -0.015300 0.002550 -0.023045
v -0.012750 0.000000 -0.023212
v -0.015300 0.005476 -0.030224
v -0.012750 0.003658 -0.032042
v -0.015300 0.003901 -0.028170
v -0.012750 0.001673 -0.029456
v -0.015300 0.099450 -0.023045
v -0.012750 0.102000 -0.023212
v -0.015300 0.089345 -0.033150
v -0.012750 0.089512 -0.035700
v -0.015300 0.098099 -0.028170
v -0.012750 0.100327 -0.029456
v -0.015300 0.096524 -0.030224
v -0.012750 0.098342 -0.032042
v -0.015300 0.002550 0.023045
v -0.012750 0.000000 0.023212
v -0.015300 0.012655 0.033150
v -0.012750 0.012488 0.035700
v -0.015300 0.003901 0.028170
v -0.012750 0.001673 0.029456
v -0.015300 0.005476 0.030224
v -0.012750 0.003658 0.032042
v -0.015300 0.089345 0.033150
v -0.012750 0.089512 0.035700
v -0.015300 0.099450 0.023045
v -0.012750 0.102000 0.023212
v -0.015300 0.096524 0.030224
v -0.012750 0.098342 0.032042
v -0.015300 0.098099 0.028170
v -0.012750 0.100327 0.029456
v 0.015300 0.051000 -0.035700
v 0.015300 0.051000 0.035700
v -0.015300 0.051000 -0.033150
v -0.012750 0.051000 -0.035700
v -0.015300 0.051000 0.033150
v -0.012750 0.051000 0.035700
v -0.002203 0.025643 -0.012813
v -0.002203 0.030344 -0.012813
v -0.000719 0.024159 0.006913
v -0.000719 0.024159 -0.006913
v -0.002203 0.030344 0.012813
v -0.002203 0.025643 0.012813
v -0.000719 0.032633 0.003295
v -0.000719 0.032633 -0.003295
v -0.000719 0.077841 0.006913
v -0.000719 0.051000 0.004100
v -0.000719 0.077841 -0.006913
v -0.000719 0.077841 -0.028170
v -0.000719 0.077841 0.023045
v -0.000719 0.051000 -0.004100
v -0.000719 0.051805 0.023045
v 0.015300 0.051000 -0.029456
v 0.015300 0.051000 -0.023212
v -0.000719 0.051805 -0.027364
v 0.015300 0.051000 0.023212
v 0.015300 0.051000 0.029456
v -0.000719 0.051805 0.027364
v 0.015300 0.089512 0.023212
v -0.000719 0.077841 0.028170
v 0.015300 0.089512 -0.029456
v 0.015300 0.089512 -0.023212
v -0.000719 0.051805 -0.023045
v 0.015300 0.089512 0.029456
v -0.000719 0.077841 -0.023045
v 0.015300 0.012488 -0.023212
v 0.015300 0.012488 0.023212
v 0.015300 0.012488 0.029456
v 0.015300 0.012488 -0.029456
v 0.015300 0.077958 -0.035700
v -0.015300 0.077841 -0.033150
v -0.012750 0.077958 0.035700
v 0.015300 0.077958 0.035700
v -0.012750 0.077958 -0.035700
v -0.015300 0.077841 0.033150
v -0.021034 0.079414 -0.006913
v -0.021034 0.079414 0.006913
v 0.015300 0.077958 0.023212
v 0.015300 0.077958 -0.023212
v 0.015300 0.077958 0.029456
v 0.015300 0.077958 -0.029456
v -0.015300 0.089345 -0.006913
v -0.015300 0.002550 -0.006913
v -0.012750 0.102000 -0.006964
v -0.015300 0.012655 -0.006913
v 0.015300 0.000000 -0.006964
v 0.015300 0.102000 -0.006964
v -0.012750 0.000000 -0.006964
v -0.015300 0.099450 -0.006913
v 0.015300 0.051000 -0.006964
v 0.015300 0.089512 -0.006964
v 0.015300 0.012488 -0.006964
v 0.015300 0.077958 -0.006964
v -0.015300 0.012655 0.006913
v 0.015300 0.000000 0.006964
v 0.015300 0.102000 0.006964
v -0.012750 0.000000 0.006964
v -0.015300 0.099450 0.006913
v -0.015300 0.089345 0.006913
v -0.015300 0.002550 0.006913
v -0.012750 0.102000 0.006964
v 0.015300 0.051000 0.006964
v 0.015300 0.089512 0.006964
v 0.015300 0.012488 0.006964
v 0.015300 0.077958 0.006964
v -0.013816 0.030344 -0.012813
v 0.015300 0.031744 0.035700
v -0.012750 0.031744 -0.035700
v -0.015300 0.031828 0.033150
v -0.015300 0.031828 0.028170
v -0.013816 0.030344 0.012813
v 0.015300 0.031744 -0.035700
v -0.015300 0.031828 -0.033150
v -0.012750 0.031744 0.035700
v -0.015300 0.031828 -0.028170
v 0.015300 0.031744 -0.023212
v 0.015300 0.031744 0.023212
v 0.015300 0.031744 0.029456
v 0.015300 0.031744 -0.029456
v 0.015300 0.031744 -0.006964
v -0.015300 0.031828 -0.004100
v 0.015300 0.031744 0.006964
v -0.015300 0.031828 0.004100
v -0.013816 0.025643 -0.012813
v 0.015300 0.024042 0.035700
v -0.012750 0.024042 -0.035700
v -0.015300 0.024159 0.033150
v -0.015300 0.024159 0.028170
v 0.015300 0.024042 0.023212
v 0.015300 0.024042 0.029456
v 0.015300 0.024042 -0.029456
v -0.013816 0.025643 0.012813
v 0.015300 0.024042 -0.035700
v -0.015300 0.024159 -0.033150
v -0.012750 0.024042 0.035700
v -0.015300 0.024159 -0.028170
v 0.015300 0.024042 -0.023212
v 0.015300 0.024042 -0.006964
v -0.015300 0.024159 -0.006913
v 0.015300 0.024042 0.006964
v -0.015300 0.024159 0.006913
v 0.015300 0.060435 0.035700
v -0.012750 0.060435 -0.035700
v -0.015300 0.060394 0.033150
v -0.000719 0.059589 -0.027364
v -0.000719 0.059589 0.023045
v -0.000719 0.059589 0.027364
v -0.000719 0.060394 -0.023045
v 0.015300 0.060435 0.023212
v 0.015300 0.060435 0.029456
v 0.015300 0.060435 -0.029456
v 0.015300 0.060435 -0.035700
v -0.015300 0.060394 -0.033150
v -0.012750 0.060435 0.035700
v -0.000719 0.059589 0.005085
v 0.015300 0.060435 -0.023212
v 0.015300 0.060435 -0.006964
v 0.015300 0.060435 0.006964
v -0.000719 0.059589 -0.005085
v -0.000719 0.051805 -0.003295
v -0.000719 0.051000 -0.023045
v -0.000719 0.051000 0.023045
v -0.000719 0.051000 0.028170
v -0.000719 0.051000 -0.028170
v -0.000719 0.060394 0.028170
v -0.000719 0.031828 0.004100
v -0.000719 0.031828 -0.004100
v -0.000719 0.051805 0.003295
v -0.000719 0.060394 -0.028170
v -0.000719 0.060394 0.023045
v -0.000719 0.060394 0.005085
v -0.000719 0.060394 -0.005085
v -0.000719 0.059589 -0.023045
v -0.015006 0.051805 0.003295
v -0.015006 0.051805 -0.003295
v -0.015006 0.059589 -0.023045
v -0.015006 0.051805 -0.023045
v -0.015006 0.051805 0.023045
v -0.015006 0.059589 0.023045
v -0.015006 0.059589 0.005085
v -0.015006 0.059589 -0.005085
v -0.015006 0.051805 0.027364
v -0.015006 0.051805 -0.027364
v -0.015006 0.059589 0.027364
v -0.015006 0.032633 0.003295
v -0.015006 0.032633 -0.003295
v -0.015006 0.059589 -0.027364
v -0.015300 0.049938 0.022478
v -0.015300 0.049938 -0.022478
v -0.015300 0.049938 0.029232
v -0.015300 0.049938 -0.029232
v -0.015300 0.078904 0.023045
v -0.015300 0.078904 -0.029232
v -0.015300 0.078904 -0.023045
v -0.015300 0.078904 0.029232
v -0.015300 0.049938 -0.004100
v -0.016051 0.078593 -0.006913
v -0.015300 0.049938 0.004100
v -0.016051 0.078593 0.006913
v -0.015300 0.060394 0.029232
v -0.015300 0.060394 -0.029232
v -0.000719 0.024159 0.012813
v -0.015300 0.024159 0.012813
v -0.000719 0.031828 -0.012813
v -0.000719 0.024159 -0.012813
v -0.000719 0.031828 0.012813
v -0.015300 0.031828 -0.012813
v -0.015300 0.031828 0.012813
v -0.015300 0.024159 -0.012813
v -0.021034 0.089345 0.006913
v -0.021034 0.089345 -0.006913
vn -1.0000 -0.0000 -0.0000
vn -0.6994 -0.6907 0.1837
vn -0.6850 0.2771 0.6738
vn 1.0000 -0.0000 -0.0000
vn -0.0000 1.0000 -0.0000
vn -0.6994 0.6907 0.1837
vn -0.7071 -0.5610 0.4305
vn -0.6850 -0.2771 0.6738
vn -0.6994 -0.6907 -0.1837
vn -0.7071 0.5610 0.4305
vn -0.6850 0.2771 -0.6738
vn -0.6994 0.6907 -0.1837
vn -0.7071 -0.5610 -0.4305
vn -0.6850 -0.2771 -0.6738
vn -0.0000 -0.9659 -0.2588
vn -0.7071 0.5610 -0.4305
vn -0.0000 0.3827 -0.9239
vn -0.0000 0.3827 0.9239
vn -0.7071 -0.7071 -0.0000
vn -0.7071 -0.0000 -0.7071
vn -0.7071 0.7071 -0.0000
vn -0.7071 -0.0000 0.7071
vn -0.0000 -0.3827 -0.9239
vn -0.0000 -0.0000 -1.0000
vn -0.0000 -1.0000 -0.0000
vn -0.0000 0.9659 -0.2588
vn -0.0000 -0.7934 -0.6088
vn -0.0000 -0.9659 0.2588
vn -0.0000 0.7934 -0.6088
vn -0.0000 0.9659 0.2588
vn -0.0000 -0.3827 0.9239
vn -0.0000 -0.0000 1.0000
vn -0.0000 -0.7934 0.6088
vn -0.0000 0.7934 0.6088
vn -0.0727 -0.0000 -0.9974
vn -0.0727 0.9974 -0.0000
vn -0.0605 -0.9981 0.0110
vn -0.0727 -0.0000 0.9974
vn -0.0489 -0.9988 -0.0000
vn -0.9991 0.0354 0.0229
vn -0.0727 -0.9974 -0.0000
vn -0.0605 -0.9981 -0.0110
vn -0.9991 0.0354 -0.0229
vn -0.1626 -0.9867 -0.0000
vt 0.412095 0.160961
vt 0.393280 0.161269
vt 0.392620 0.117936
vt 0.411260 0.117543
vt 0.162805 0.407291
vt 0.181439 0.406971
vt 0.181706 0.439841
vt 0.174137 0.434047
vt 0.373135 0.080279
vt 0.374010 0.066694
vt 0.398698 0.073327
vt 0.392223 0.085068
vt 0.411346 0.407288
vt 0.424866 0.408979
vt 0.409856 0.443449
vt 0.400024 0.434036
vt 0.200612 0.406761
vt 0.200806 0.444698
vt 0.392713 0.406972
vt 0.392457 0.439832
vt 0.373356 0.444700
vt 0.373543 0.406777
vt 0.373457 0.118241
vt 0.399809 0.090827
vt 0.767663 0.212012
vt 0.715873 0.212080
vt 0.715758 0.165655
vt 0.767897 0.165589
vt 0.261121 0.406523
vt 0.261202 0.444502
vt 0.874787 0.254062
vt 0.851590 0.254456
vt 0.851243 0.210682
vt 0.872795 0.210992
vt 0.482922 0.853695
vt 0.483055 0.810050
vt 0.579509 0.810042
vt 0.579393 0.853794
vt 0.399007 0.451532
vt 0.374300 0.458281
vt 0.409580 0.081344
vt 0.424765 0.115757
vt 0.181834 0.085166
vt 0.175360 0.073424
vt 0.200037 0.066791
vt 0.200916 0.080376
vt 0.164311 0.443467
vt 0.149284 0.408981
vt 0.199887 0.458281
vt 0.175170 0.451548
vt 0.174253 0.090922
vt 0.164480 0.081440
vt 0.162823 0.117626
vt 0.149316 0.115852
vt 0.652490 0.648206
vt 0.627521 0.647215
vt 0.630922 0.539789
vt 0.655203 0.543614
vt 0.618120 0.174499
vt 0.610830 0.210895
vt 0.505858 0.206695
vt 0.508090 0.169906
vt 0.974842 0.169690
vt 0.977146 0.205720
vt 0.865335 0.174051
vt 0.261059 0.067093
vt 0.261189 0.080680
vt 0.148548 0.364532
vt 0.162155 0.363916
vt 0.313084 0.458155
vt 0.312954 0.444567
vt 0.425715 0.160254
vt 0.181447 0.118040
vt 0.508850 0.540702
vt 0.506623 0.504673
vt 0.611038 0.499644
vt 0.618501 0.536556
vt 0.503919 0.251331
vt 0.608984 0.254216
vt 0.716044 0.544906
vt 0.715292 0.649871
vt 0.654828 0.167342
vt 0.630387 0.171138
vt 0.627208 0.063348
vt 0.651858 0.062177
vt 0.615261 0.646780
vt 0.829042 0.543188
vt 0.853529 0.539380
vt 0.856732 0.647175
vt 0.832084 0.648343
vt 0.714730 0.060623
vt 0.614790 0.063758
vt 0.828266 0.211832
vt 0.828673 0.166924
vt 0.831536 0.062363
vt 0.856511 0.063398
vt 0.852927 0.170783
vt 0.865823 0.535993
vt 0.873157 0.499516
vt 0.978151 0.503726
vt 0.975926 0.540519
vt 0.979578 0.250457
vt 0.869150 0.646767
vt 0.403817 0.891793
vt 0.422687 0.894681
vt 0.417104 0.959704
vt 0.398093 0.957556
vt 0.200613 0.118329
vt 0.868770 0.063863
vt 0.828586 0.498469
vt 0.828729 0.455590
vt 0.851872 0.455851
vt 0.851582 0.499627
vt 0.875629 0.427412
vt 0.876154 0.355116
vt 0.981530 0.354883
vt 0.980932 0.429266
vt 0.503329 0.430022
vt 0.502328 0.355525
vt 0.607816 0.355384
vt 0.608390 0.427611
vt 0.412170 0.297985
vt 0.412191 0.262497
vt 0.425768 0.262505
vt 0.425747 0.298196
vt 0.161949 0.190107
vt 0.161995 0.262534
vt 0.148419 0.262546
vt 0.148365 0.189754
vt 0.716205 0.498546
vt 0.716038 0.455561
vt 0.768023 0.455475
vt 0.767955 0.498461
vt 0.261097 0.118630
vt 0.036747 0.367607
vt 0.036530 0.345338
vt 0.091420 0.344933
vt 0.091622 0.367062
vt 0.335513 0.747125
vt 0.355028 0.739329
vt 0.364552 0.767233
vt 0.330287 0.777700
vt 0.655532 0.212030
vt 0.632497 0.210994
vt 0.313049 0.406526
vt 0.335538 0.886075
vt 0.340517 0.951334
vt 0.607908 0.319979
vt 0.631377 0.320088
vt 0.631308 0.355358
vt 0.767839 0.255023
vt 0.828448 0.254763
vt 0.632117 0.254529
vt 0.655303 0.254860
vt 0.654823 0.320202
vt 0.829018 0.320057
vt 0.852471 0.319940
vt 0.852638 0.355173
vt 0.829146 0.355196
vt 0.852271 0.427124
vt 0.654781 0.355346
vt 0.655139 0.427137
vt 0.631767 0.427350
vt 0.655598 0.498687
vt 0.655371 0.455798
vt 0.234177 0.957567
vt 0.215295 0.959705
vt 0.209692 0.894473
vt 0.228774 0.891691
vt 0.632231 0.456180
vt 0.632651 0.499739
vt 0.609136 0.456430
vt 0.768266 0.544859
vt 0.038978 0.503866
vt 0.038199 0.470971
vt 0.093074 0.469843
vt 0.093780 0.502502
vt 0.768049 0.320188
vt 0.268606 0.745743
vt 0.288582 0.751167
vt 0.298641 0.779225
vt 0.262615 0.774872
vt 0.393416 0.190155
vt 0.335465 0.190489
vt 0.335367 0.161706
vt 0.715877 0.255093
vt 0.412011 0.363919
vt 0.425616 0.364544
vt 0.875926 0.319714
vt 0.981346 0.318330
vt 0.502575 0.318999
vt 0.162017 0.298001
vt 0.148440 0.298207
vt 0.037385 0.419735
vt 0.092234 0.418981
vt 0.715805 0.320224
vt 0.385471 0.560080
vt 0.435999 0.604497
vt 0.397256 0.636464
vt 0.328811 0.604789
vt 0.297071 0.886247
vt 0.292097 0.952074
vt 0.261055 0.458079
vt 0.312834 0.080589
vt 0.312994 0.118592
vt 0.768709 0.060623
vt 0.769246 0.649864
vt 0.312932 0.067015
vt 0.648712 0.855427
vt 0.649142 0.818378
vt 0.700576 0.817417
vt 0.701441 0.855203
vt 0.447717 0.626908
vt 0.409040 0.644593
vt 0.180834 0.161338
vt 0.238758 0.161733
vt 0.715821 0.355291
vt 0.768110 0.355246
vt 0.721866 0.816626
vt 0.720527 0.857140
vt 0.768061 0.426838
vt 0.715941 0.426903
vt 0.828896 0.426936
vt 0.037704 0.441991
vt 0.092554 0.441119
vt 0.875019 0.456305
vt 0.162021 0.161072
vt 0.180735 0.190218
vt 0.482938 0.871391
vt 0.579323 0.871478
vt 0.148401 0.160368
vt 0.504263 0.459923
vt 0.980061 0.459091
vt 0.412186 0.190028
vt 0.425770 0.189664
vt 0.313127 0.161782
vt 0.261005 0.161778
vt 0.238686 0.190507
vt 0.036418 0.316322
vt 0.036411 0.283386
vt 0.091231 0.283602
vt 0.091221 0.316237
vt 0.238636 0.565070
vt 0.269432 0.508123
vt 0.299864 0.541538
vt 0.285807 0.606718
vt 0.178636 0.615833
vt 0.222179 0.637334
vt 0.213561 0.646775
vt 0.167711 0.639270
vt 0.438877 0.683185
vt 0.409576 0.706273
vt 0.387537 0.662285
vt 0.400220 0.663257
vt 0.225142 0.859830
vt 0.208746 0.862475
vt 0.205307 0.860030
vt 0.224707 0.856833
vt 0.303228 0.853433
vt 0.300010 0.850611
vt 0.424475 0.862942
vt 0.408004 0.859449
vt 0.408472 0.856456
vt 0.427999 0.860674
vt 0.404148 0.888777
vt 0.420119 0.891236
vt 0.327270 0.780907
vt 0.301831 0.782091
vt 0.329127 0.853421
vt 0.332265 0.850529
vt 0.212332 0.891065
vt 0.228464 0.888672
vt 0.297013 0.883227
vt 0.335613 0.883009
vt 0.213509 0.667898
vt 0.227795 0.663547
vt 0.318943 0.542361
vt 0.185690 0.692494
vt 0.218193 0.713530
vt 0.327888 0.642380
vt 0.290584 0.645951
vt 0.327258 0.495756
vt 0.326905 0.704377
vt 0.290543 0.702283
vt 0.202198 0.258515
vt 0.176745 0.258514
vt 0.087377 0.122072
vt 0.032517 0.119668
vt 0.037279 0.079868
vt 0.091996 0.087662
vt 0.037672 0.640594
vt 0.040883 0.572040
vt 0.095930 0.574568
vt 0.092317 0.646340
vt 0.397439 0.258482
vt 0.371987 0.258491
vt 0.091185 0.666099
vt 0.035701 0.665310
vt 0.373891 0.367514
vt 0.397203 0.367738
vt 0.302553 0.190546
vt 0.302574 0.258480
vt 0.041627 0.905481
vt 0.099231 0.903529
vt 0.101309 0.964039
vt 0.046249 0.966217
vt 0.092121 0.769626
vt 0.036640 0.771649
vt 0.037765 0.703512
vt 0.092293 0.702502
vt 0.271595 0.190542
vt 0.271601 0.258474
vt 0.088281 0.141048
vt 0.033347 0.145467
vt 0.397419 0.297927
vt 0.176768 0.297946
vt 0.039683 0.853916
vt 0.097635 0.851093
vt 0.176962 0.367739
vt 0.200275 0.367516
vt 0.048765 0.010575
vt 0.102169 0.023391
vt 0.313124 0.366051
vt 0.102169 0.983222
vt 0.047470 0.989551
vt 0.039076 0.794099
vt 0.093651 0.789491
vt 0.261053 0.366072
vt 0.091862 0.211792
vt 0.036958 0.214950
vt 0.701088 0.874315
vt 0.648784 0.874315
vt 0.042081 0.339695
vt 0.085795 0.339413
vt 0.087381 0.464393
vt 0.087069 0.446774
vt 0.085672 0.321810
vt 0.043684 0.465257
vt 0.042014 0.321919
vt 0.043373 0.447502
vt 0.483070 0.792406
vt 0.579531 0.792307
vt 0.482922 0.748799
vt 0.579222 0.748516
vt 0.629671 0.857691
vt 0.627830 0.817468
vt 0.648336 0.796912
vt 0.699931 0.795757
s 0
f 152/1/1 153/2/1 18/3/1 43/4/1
f 35/5/1 19/6/1 37/7/1 39/8/1
f 41/9/2 42/10/2 46/11/2 45/12/2
f 49/13/3 50/14/3 54/15/3 53/16/3
f 37/7/1 19/6/1 22/17/1 33/18/1
f 17/19/1 55/20/1 51/21/1 24/22/1
f 45/12/1 18/3/1 23/23/1 41/9/1
f 43/4/1 18/3/1 45/12/1 47/24/1
f 128/25/4 116/26/4 112/27/4 121/28/4
f 33/18/1 22/17/1 107/29/1 114/30/1
f 98/31/4 105/32/4 89/33/4 14/34/4
f 64/35/5 131/36/5 136/37/5 67/38/5
f 55/20/6 56/39/6 52/40/6 51/21/6
f 45/12/7 46/11/7 48/41/7 47/24/7
f 47/24/8 48/41/8 44/42/8 43/4/8
f 31/43/9 32/44/9 28/45/9 27/46/9
f 53/16/10 54/15/10 56/39/10 55/20/10
f 39/8/11 40/47/11 36/48/11 35/5/11
f 33/18/12 34/49/12 38/50/12 37/7/12
f 29/51/13 30/52/13 32/44/13 31/43/13
f 25/53/14 26/54/14 30/52/14 29/51/14
f 28/55/15 32/56/15 3/57/15 1/58/15
f 37/7/16 38/50/16 40/47/16 39/8/16
f 7/59/17 5/60/17 36/61/17 40/62/17
f 54/63/18 50/64/18 14/34/18 16/65/18
f 27/46/19 28/45/19 113/66/19 108/67/19
f 35/5/20 36/48/20 99/68/20 96/69/20
f 51/21/21 52/40/21 126/70/21 123/71/21
f 43/4/22 44/42/22 160/72/22 152/1/22
f 31/43/1 20/73/1 25/53/1 29/51/1
f 30/74/23 26/75/23 2/76/23 4/77/23
f 99/78/24 36/61/24 5/60/24 95/79/24
f 111/80/25 113/81/25 28/55/25 1/58/25
f 6/82/26 8/83/26 38/84/26 34/85/26
f 3/57/27 32/56/27 30/86/27 4/77/27
f 10/87/28 12/88/28 46/89/28 42/90/28
f 109/91/5 112/27/5 6/82/5 34/85/5
f 38/84/29 8/83/29 7/59/29 40/92/29
f 84/93/4 128/25/4 121/28/4 13/94/4
f 52/95/30 56/96/30 15/97/30 13/94/30
f 11/98/31 9/99/31 44/100/31 48/101/31
f 98/31/32 14/34/32 50/64/32 97/102/32
f 46/89/33 12/88/33 11/98/33 48/103/33
f 195/104/1 190/105/1 85/106/1 75/107/1
f 27/46/1 21/108/1 20/73/1 31/43/1
f 15/97/34 56/96/34 54/109/34 16/65/34
f 92/110/4 154/111/4 155/112/4 93/113/4
f 132/114/32 58/115/32 62/116/32 139/117/32
f 133/118/24 60/119/24 57/120/24 137/121/24
f 169/122/22 61/123/22 62/124/22 179/125/22
f 138/126/20 59/127/20 60/128/20 133/129/20
f 117/130/4 163/131/4 165/132/4 129/133/4
f 110/134/1 21/108/1 27/46/1 108/67/1
f 166/135/5 228/136/5 227/137/5 65/138/5
f 15/97/4 16/65/4 14/34/4 89/33/4
f 65/139/1 227/140/1 231/141/1 191/142/1
f 6/82/4 87/143/4 86/144/4 8/83/4
f 24/22/1 51/21/1 123/71/1 124/145/1
f 8/83/4 86/144/4 5/60/4 7/59/4
f 196/146/1 195/104/1 75/107/1 71/147/1
f 116/26/4 87/143/4 6/82/4 112/27/4
f 177/148/4 176/149/4 78/150/4 57/120/4
f 15/97/4 89/33/4 84/93/4 13/94/4
f 130/151/4 128/25/4 84/93/4 103/152/4
f 176/149/4 106/153/4 104/154/4 181/155/4
f 174/156/4 175/157/4 82/158/4 81/159/4
f 84/93/4 89/33/4 105/32/4 103/152/4
f 93/113/4 9/99/4 11/98/4 12/88/4
f 132/114/4 143/160/4 82/158/4 58/115/4
f 79/161/4 141/162/4 144/163/4 78/150/4
f 91/164/4 117/130/4 111/80/4 1/58/4
f 163/131/4 117/130/4 91/164/4 162/165/4
f 90/166/1 74/167/1 194/168/1 173/169/1
f 156/170/4 94/171/4 2/76/4 158/172/4
f 93/113/4 12/88/4 10/87/4 92/110/4
f 94/171/4 3/57/4 4/77/4 2/76/4
f 111/80/4 117/130/4 129/133/4 120/173/4
f 146/174/25 232/175/25 229/176/25 192/177/25
f 176/149/4 181/155/4 79/161/4 78/150/4
f 183/178/4 130/151/4 103/152/4 174/156/4
f 230/179/1 66/180/1 192/181/1 229/182/1
f 153/2/1 135/183/1 233/184/1 228/185/1
f 5/60/4 86/144/4 106/153/4 95/79/4
f 118/186/4 116/26/4 128/25/4 130/151/4
f 100/187/22 97/188/22 50/14/22 49/13/22
f 167/189/32 98/31/32 97/102/32 179/190/32
f 168/191/24 99/78/24 95/79/24 177/148/24
f 178/192/20 96/69/20 99/68/20 168/193/20
f 167/189/4 175/157/4 105/32/4 98/31/4
f 164/194/5 166/135/5 65/138/5 66/195/5
f 181/155/4 104/154/4 118/186/4 182/196/4
f 193/197/25 77/198/25 203/199/25 199/200/25
f 66/180/1 65/139/1 191/142/1 192/181/1
f 173/169/1 197/201/1 73/202/1 90/166/1
f 104/154/4 87/143/4 116/26/4 118/186/4
f 114/30/21 109/203/21 34/49/21 33/18/21
f 125/204/1 119/205/1 110/134/1 108/67/1
f 126/206/5 121/28/5 112/27/5 109/91/5
f 120/173/25 122/207/25 113/81/25 111/80/25
f 125/204/19 108/67/19 113/66/19 122/208/19
f 102/209/1 235/210/1 236/211/1 101/212/1
f 41/9/1 23/23/1 119/205/1 125/204/1
f 77/198/25 83/213/25 207/214/25 203/199/25
f 196/146/1 71/147/1 73/202/1 197/201/1
f 154/111/4 92/110/4 129/133/4 165/132/4
f 161/215/1 20/73/1 21/108/1 234/216/1
f 125/204/19 122/208/19 42/10/19 41/9/19
f 92/110/4 10/87/4 120/173/4 129/133/4
f 10/87/25 42/90/25 122/207/25 120/173/25
f 52/95/5 13/94/5 121/28/5 126/206/5
f 115/217/4 182/196/4 183/178/4 127/218/4
f 114/30/21 123/71/21 126/70/21 109/203/21
f 107/219/24 222/220/24 101/212/24 236/211/24
f 182/196/4 118/186/4 130/151/4 183/178/4
f 127/218/4 147/221/4 145/222/4 115/217/4
f 81/159/4 142/223/4 147/221/4 127/218/4
f 234/224/5 164/194/5 66/195/5 230/225/5
f 163/131/4 145/222/4 147/221/4 165/132/4
f 78/150/4 144/163/4 137/121/4 57/120/4
f 94/171/4 91/164/4 1/58/4 3/57/4
f 115/217/4 145/222/4 141/162/4 79/161/4
f 141/162/4 162/165/4 156/170/4 144/163/4
f 150/226/4 155/112/4 143/160/4 132/114/4
f 159/227/1 161/215/1 140/228/1 138/126/1
f 63/229/4 64/35/4 67/38/4 68/230/4
f 82/158/4 143/160/4 142/223/4 81/159/4
f 138/126/20 133/129/20 151/231/20 159/227/20
f 151/232/24 133/118/24 137/121/24 158/172/24
f 150/226/32 132/114/32 139/117/32 160/233/32
f 61/123/22 134/234/22 139/235/22 62/124/22
f 91/164/4 94/171/4 156/170/4 162/165/4
f 9/99/32 150/226/32 160/233/32 44/100/32
f 26/75/24 151/232/24 158/172/24 2/76/24
f 25/53/20 159/227/20 151/231/20 26/54/20
f 119/205/1 23/23/1 228/185/1 166/236/1
f 25/53/1 20/73/1 161/215/1 159/227/1
f 9/99/4 93/113/4 155/112/4 150/226/4
f 21/108/1 110/134/1 164/237/1 234/216/1
f 107/29/1 124/145/1 123/71/1 114/30/1
f 142/223/4 154/111/4 165/132/4 147/221/4
f 144/163/4 156/170/4 158/172/4 137/121/4
f 232/238/1 140/228/1 161/215/1 234/216/1
f 145/222/4 163/131/4 162/165/4 141/162/4
f 110/134/1 119/205/1 166/236/1 164/237/1
f 23/23/1 18/3/1 153/2/1 228/185/1
f 143/160/4 155/112/4 154/111/4 142/223/4
f 134/234/22 152/1/22 160/72/22 139/235/22
f 134/234/1 135/183/1 153/2/1 152/1/1
f 233/239/25 148/240/25 191/241/25 231/242/25
f 185/243/24 70/244/24 211/245/24 200/246/24
f 88/247/25 202/248/25 208/249/25 80/250/25
f 174/156/4 103/152/4 105/32/4 175/157/4
f 172/251/5 171/252/5 204/253/5 209/254/5
f 79/161/4 181/155/4 182/196/4 115/217/4
f 58/115/4 82/158/4 175/157/4 167/189/4
f 178/192/20 168/193/20 60/128/20 59/127/20
f 60/119/24 168/191/24 177/148/24 57/120/24
f 58/115/32 167/189/32 179/190/32 62/116/32
f 88/255/1 80/256/1 189/257/1 186/258/1
f 127/218/4 183/178/4 174/156/4 81/159/4
f 87/143/4 104/154/4 106/153/4 86/144/4
f 95/79/4 106/153/4 176/149/4 177/148/4
f 88/247/25 185/243/25 200/246/25 202/248/25
f 169/122/22 179/125/22 97/188/22 100/187/22
f 185/259/1 88/255/1 186/258/1 76/260/1
f 83/261/1 77/262/1 187/263/1 188/264/1
f 171/265/1 172/266/1 190/105/1 195/104/1
f 172/266/1 83/261/1 188/264/1 190/105/1
f 69/267/1 70/268/1 192/181/1 191/142/1
f 193/269/1 69/267/1 191/142/1 72/270/1
f 77/262/1 193/269/1 72/270/1 187/263/1
f 70/268/1 185/259/1 76/260/1 192/181/1
f 80/256/1 170/271/1 194/168/1 189/257/1
f 170/271/1 198/272/1 173/169/1 194/168/1
f 184/273/1 180/274/1 196/146/1 197/201/1
f 212/275/1 208/249/1 202/248/1 201/276/1
f 198/272/1 184/273/1 197/201/1 173/169/1
f 180/274/1 171/265/1 195/104/1 196/146/1
f 207/214/1 209/254/1 204/253/1 203/199/1
f 210/277/1 199/200/1 200/246/1 211/245/1
f 170/278/5 212/275/5 201/276/5 198/279/5
f 199/200/1 205/280/1 206/281/1 200/246/1
f 202/248/1 200/246/1 206/281/1 201/276/1
f 199/200/1 203/199/1 204/253/1 205/280/1
f 69/282/32 193/197/32 199/200/32 210/277/32
f 171/252/5 180/283/5 205/280/5 204/253/5
f 170/278/24 80/250/24 208/249/24 212/275/24
f 180/283/5 184/284/5 206/281/5 205/280/5
f 83/213/32 172/251/32 209/254/32 207/214/32
f 70/244/25 69/282/25 210/277/25 211/245/25
f 214/285/1 216/286/1 140/228/1 232/238/1
f 188/287/35 215/288/35 225/289/35 190/290/35
f 214/291/36 221/292/36 76/293/36 186/294/36
f 135/183/1 215/295/1 213/296/1 233/184/1
f 214/291/36 186/294/36 189/297/36 216/298/36
f 217/299/1 220/300/1 17/19/1 24/22/1
f 148/301/1 233/184/1 213/296/1 223/302/1
f 224/303/37 71/304/37 75/305/37 217/306/37
f 74/307/38 218/308/38 226/309/38 194/310/38
f 232/238/1 146/311/1 221/312/1 214/285/1
f 187/313/36 213/314/36 215/288/36 188/287/36
f 169/122/1 225/315/1 215/295/1 61/123/1
f 61/123/1 215/295/1 135/183/1 134/234/1
f 138/126/1 140/228/1 216/286/1 59/127/1
f 184/284/5 198/279/5 201/276/5 206/281/5
f 59/127/1 216/286/1 226/316/1 178/192/1
f 222/317/39 73/318/39 71/304/39 224/303/39
f 22/17/1 19/6/1 218/319/1 219/320/1
f 190/290/35 225/289/35 220/321/35 85/322/35
f 224/323/40 217/299/40 24/22/40 124/145/40
f 217/306/41 75/305/41 85/324/41 220/325/41
f 178/192/1 226/316/1 218/319/1 96/69/1
f 96/69/1 218/319/1 19/6/1 35/5/1
f 219/326/42 90/327/42 73/318/42 222/317/42
f 219/326/41 218/308/41 74/307/41 90/327/41
f 219/320/43 222/328/43 107/29/43 22/17/43
f 100/187/1 220/300/1 225/315/1 169/122/1
f 194/310/38 226/309/38 216/298/38 189/297/38
f 49/13/1 17/19/1 220/300/1 100/187/1
f 76/293/32 221/292/32 146/174/32 192/177/32
f 72/329/36 223/330/36 213/314/36 187/313/36
f 222/331/44 224/332/44 102/209/44 101/212/44
f 148/240/24 223/330/24 72/329/24 191/241/24
f 157/333/24 68/334/24 227/137/24 228/136/24
f 64/335/32 63/336/32 230/225/32 229/176/32
f 68/334/24 67/337/24 231/242/24 227/137/24
f 131/338/32 64/335/32 229/176/32 232/175/32
f 136/339/24 157/333/24 228/136/24 233/239/24
f 63/336/32 149/340/32 234/224/32 230/225/32
f 67/337/24 136/339/24 233/239/24 231/242/24
f 149/340/32 131/338/32 232/175/32 234/224/32
f 131/36/1 149/341/1 157/342/1 136/37/1
f 149/341/25 63/343/25 68/344/25 157/342/25
f 224/345/32 124/346/32 235/210/32 102/209/32
f 17/19/1 49/13/1 53/16/1 55/20/1
f 235/210/5 124/347/5 107/348/5 236/211/5
