# Blender 5.1.2
# www.blender.org
mtllib FuseBox.mtl
o Fuse
v 0.011001 0.322958 -0.211824
v 0.012001 -0.291443 -0.211824
v 0.027629 0.322958 -0.204936
v 0.030477 -0.291443 -0.204936
v 0.040356 0.322958 -0.192210
v 0.044618 -0.291443 -0.192210
v 0.047244 0.322958 -0.175581
v 0.052271 -0.291443 -0.175581
v 0.047244 0.322958 -0.157583
v 0.052271 -0.291443 -0.157583
v 0.040356 0.322958 -0.140955
v 0.044618 -0.291443 -0.140955
v 0.027629 0.322958 -0.128228
v 0.030477 -0.291443 -0.128228
v 0.011001 0.322958 -0.121340
v 0.012001 -0.291443 -0.121340
v -0.006997 0.322958 -0.121340
v -0.007997 -0.291443 -0.121340
v -0.023626 0.322958 -0.128228
v -0.026473 -0.291443 -0.128228
v -0.036352 0.322958 -0.140955
v -0.040614 -0.291443 -0.140955
v -0.043240 0.322958 -0.157583
v -0.048267 -0.291443 -0.157583
v -0.043240 0.322958 -0.175581
v -0.048267 -0.291443 -0.175581
v -0.036352 0.322958 -0.192210
v -0.040614 -0.291443 -0.192210
v -0.023626 0.322958 -0.204936
v -0.026473 -0.291443 -0.204936
v -0.006997 0.322958 -0.211824
v -0.007997 -0.291443 -0.211824
v 0.013112 0.276878 -0.222436
v 0.033641 0.276878 -0.213933
v 0.049353 0.276878 -0.198221
v 0.057856 0.276878 -0.177692
v 0.057856 0.276878 -0.155472
v 0.049353 0.276878 -0.134943
v 0.033641 0.276878 -0.119231
v 0.013112 0.276878 -0.110728
v -0.009108 0.276878 -0.110728
v -0.029637 0.276878 -0.119231
v -0.045349 0.276878 -0.134943
v -0.053852 0.276878 -0.155472
v -0.053852 0.276878 -0.177692
v -0.045349 0.276878 -0.198221
v -0.029637 0.276878 -0.213933
v -0.009108 0.276878 -0.222436
v 0.013112 -0.245363 -0.222436
v 0.033641 -0.245363 -0.213933
v 0.049353 -0.245363 -0.198221
v 0.057856 -0.245363 -0.177692
v 0.057856 -0.245363 -0.155472
v 0.049353 -0.245363 -0.134943
v 0.033641 -0.245363 -0.119231
v 0.013112 -0.245363 -0.110728
v -0.009108 -0.245363 -0.110728
v -0.029637 -0.245363 -0.119231
v -0.045349 -0.245363 -0.134943
v -0.053852 -0.245363 -0.155472
v -0.053852 -0.245363 -0.177692
v -0.045349 -0.245363 -0.198221
v -0.029637 -0.245363 -0.213933
v -0.009108 -0.245363 -0.222436
vn 0.3729 0.2244 -0.9003
vn 0.6891 0.2244 -0.6891
vn 0.9003 0.2244 -0.3729
vn 0.9745 0.2244 -0.0000
vn 0.9003 0.2244 0.3729
vn 0.6891 0.2244 0.6891
vn 0.3729 0.2244 0.9003
vn -0.0000 0.2244 0.9745
vn -0.3729 0.2244 0.9003
vn -0.6891 0.2244 0.6891
vn -0.9003 0.2244 0.3729
vn -0.9745 0.2244 -0.0000
vn -0.9003 0.2244 -0.3729
vn -0.6891 0.2244 -0.6891
vn -0.3729 0.2244 -0.9003
vn -0.0000 -1.0000 -0.0000
vn -0.0000 1.0000 -0.0000
vn -0.0000 -0.2244 -0.9745
vn -0.3827 -0.0000 -0.9239
vn -0.7071 -0.0000 -0.7071
vn -0.9239 -0.0000 -0.3827
vn -1.0000 -0.0000 -0.0000
vn -0.9239 -0.0000 0.3827
vn -0.7071 -0.0000 0.7071
vn -0.3827 -0.0000 0.9239
vn -0.0000 -0.0000 1.0000
vn 0.3827 -0.0000 0.9239
vn 0.7071 -0.0000 0.7071
vn 0.9239 -0.0000 0.3827
vn 1.0000 -0.0000 -0.0000
vn 0.9239 -0.0000 -0.3827
vn 0.7071 -0.0000 -0.7071
vn 0.3827 -0.0000 -0.9239
vn -0.0000 0.2244 -0.9745
vn 0.3589 -0.2101 -0.9094
vn 0.6792 -0.1743 -0.7130
vn 0.9085 -0.1365 -0.3950
vn 0.9927 -0.1203 -0.0000
vn 0.9085 -0.1365 0.3950
vn 0.6792 -0.1743 0.7130
vn 0.3589 -0.2101 0.9094
vn -0.0000 -0.2244 0.9745
vn -0.3589 -0.2101 0.9094
vn -0.6792 -0.1743 0.7130
vn -0.9085 -0.1365 0.3950
vn -0.9927 -0.1203 -0.0000
vn -0.9085 -0.1365 -0.3950
vn -0.6792 -0.1743 -0.7130
vn -0.3589 -0.2101 -0.9094
vn -0.0000 -0.0000 -1.0000
vt 0.467916 0.042863
vt 0.467445 0.028648
vt 0.473324 0.028410
vt 0.474050 0.042689
vt 0.479176 0.028084
vt 0.480237 0.042425
vt 0.484987 0.027619
vt 0.486495 0.042056
vt 0.490760 0.027052
vt 0.492874 0.041478
vt 0.496395 0.026088
vt 0.499397 0.040811
vt 0.400012 0.040500
vt 0.403097 0.025656
vt 0.408775 0.026656
vt 0.406520 0.041205
vt 0.414511 0.027351
vt 0.412897 0.041760
vt 0.420310 0.027834
vt 0.419168 0.042181
vt 0.426165 0.028172
vt 0.425367 0.042493
vt 0.432063 0.028415
vt 0.431512 0.042717
vt 0.437985 0.028601
vt 0.437615 0.042871
vt 0.443913 0.028750
vt 0.443686 0.042966
vt 0.449825 0.028875
vt 0.449736 0.043004
vt 0.455699 0.028975
vt 0.455774 0.042979
vt 0.461561 0.028830
vt 0.461825 0.042962
vt 0.864924 0.959160
vt 0.870137 0.961104
vt 0.874127 0.964694
vt 0.876286 0.969386
vt 0.876286 0.974464
vt 0.874127 0.979155
vt 0.870137 0.982746
vt 0.864924 0.984689
vt 0.859282 0.984689
vt 0.854069 0.982746
vt 0.850079 0.979155
vt 0.847920 0.974464
vt 0.847920 0.969386
vt 0.850079 0.964694
vt 0.854069 0.961104
vt 0.859282 0.959160
vt 0.643895 0.970670
vt 0.647486 0.967080
vt 0.652178 0.965137
vt 0.657256 0.965138
vt 0.661947 0.967082
vt 0.665537 0.970673
vt 0.667480 0.975365
vt 0.667479 0.980443
vt 0.665535 0.985134
vt 0.661944 0.988724
vt 0.657252 0.990667
vt 0.652174 0.990666
vt 0.647483 0.988722
vt 0.643893 0.985131
vt 0.641950 0.980439
vt 0.641951 0.975361
vt 0.461773 0.186731
vt 0.467960 0.186849
vt 0.467936 0.200981
vt 0.461430 0.201027
vt 0.455584 0.186777
vt 0.449389 0.186854
vt 0.443184 0.186922
vt 0.436981 0.186962
vt 0.430784 0.186928
vt 0.424582 0.186912
vt 0.418362 0.186967
vt 0.412095 0.187229
vt 0.405750 0.187639
vt 0.399252 0.188198
vt 0.499403 0.188418
vt 0.492981 0.188012
vt 0.486634 0.187669
vt 0.480361 0.187335
vt 0.474146 0.187056
vt 0.474250 0.201011
vt 0.480235 0.201142
vt 0.485894 0.201382
vt 0.491364 0.201814
vt 0.496908 0.202428
vt 0.400858 0.202428
vt 0.406647 0.201712
vt 0.412788 0.201293
vt 0.419132 0.201101
vt 0.425419 0.200921
vt 0.431471 0.200827
vt 0.437264 0.200766
vt 0.442972 0.200836
vt 0.448838 0.200887
vt 0.454995 0.200941
s 1
f 33/1/1 1/2/1 3/3/1 34/4/1
f 34/4/2 3/3/2 5/5/2 35/6/2
f 35/6/3 5/5/3 7/7/3 36/8/3
f 36/8/4 7/7/4 9/9/4 37/10/4
f 37/10/5 9/9/5 11/11/5 38/12/5
f 38/13/6 11/14/6 13/15/6 39/16/6
f 39/16/7 13/15/7 15/17/7 40/18/7
f 40/18/8 15/17/8 17/19/8 41/20/8
f 41/20/9 17/19/9 19/21/9 42/22/9
f 42/22/10 19/21/10 21/23/10 43/24/10
f 43/24/11 21/23/11 23/25/11 44/26/11
f 44/26/12 23/25/12 25/27/12 45/28/12
f 45/28/13 25/27/13 27/29/13 46/30/13
f 46/30/14 27/29/14 29/31/14 47/32/14
f 47/32/15 29/31/15 31/33/15 48/34/15
f 2/35/16 4/36/16 6/37/16 8/38/16 10/39/16 12/40/16 14/41/16 16/42/16 18/43/16 20/44/16 22/45/16 24/46/16 26/47/16 28/48/16 30/49/16 32/50/16
f 1/51/17 31/52/17 29/53/17 27/54/17 25/55/17 23/56/17 21/57/17 19/58/17 17/59/17 15/60/17 13/61/17 11/62/17 9/63/17 7/64/17 5/65/17 3/66/17
f 64/67/18 49/68/18 2/69/18 32/70/18
f 64/67/19 63/71/19 47/32/19 48/34/19
f 63/71/20 62/72/20 46/30/20 47/32/20
f 62/72/21 61/73/21 45/28/21 46/30/21
f 61/73/22 60/74/22 44/26/22 45/28/22
f 60/74/23 59/75/23 43/24/23 44/26/23
f 59/75/24 58/76/24 42/22/24 43/24/24
f 58/76/25 57/77/25 41/20/25 42/22/25
f 57/77/26 56/78/26 40/18/26 41/20/26
f 56/78/27 55/79/27 39/16/27 40/18/27
f 55/79/28 54/80/28 38/13/28 39/16/28
f 54/81/29 53/82/29 37/10/29 38/12/29
f 53/82/30 52/83/30 36/8/30 37/10/30
f 52/83/31 51/84/31 35/6/31 36/8/31
f 51/84/32 50/85/32 34/4/32 35/6/32
f 50/85/33 49/68/33 33/1/33 34/4/33
f 31/33/34 1/2/34 33/1/34 48/34/34
f 2/69/35 49/68/35 50/85/35 4/86/35
f 4/86/36 50/85/36 51/84/36 6/87/36
f 6/87/37 51/84/37 52/83/37 8/88/37
f 8/88/38 52/83/38 53/82/38 10/89/38
f 10/89/39 53/82/39 54/81/39 12/90/39
f 12/91/40 54/80/40 55/79/40 14/92/40
f 14/92/41 55/79/41 56/78/41 16/93/41
f 16/93/42 56/78/42 57/77/42 18/94/42
f 18/94/43 57/77/43 58/76/43 20/95/43
f 20/95/44 58/76/44 59/75/44 22/96/44
f 22/96/45 59/75/45 60/74/45 24/97/45
f 24/97/46 60/74/46 61/73/46 26/98/46
f 26/98/47 61/73/47 62/72/47 28/99/47
f 28/99/48 62/72/48 63/71/48 30/100/48
f 30/100/49 63/71/49 64/67/49 32/70/49
f 64/67/50 48/34/50 33/1/50 49/68/50
o Fuse.001
v 0.011001 0.322958 -0.003388
v 0.012001 -0.291443 -0.003388
v 0.027629 0.322958 0.003500
v 0.030477 -0.291443 0.003500
v 0.040356 0.322958 0.016226
v 0.044618 -0.291443 0.016226
v 0.047244 0.322958 0.032855
v 0.052271 -0.291443 0.032855
v 0.047244 0.322958 0.050853
v 0.052271 -0.291443 0.050853
v 0.040356 0.322958 0.067481
v 0.044618 -0.291443 0.067481
v 0.027629 0.322958 0.080208
v 0.030477 -0.291443 0.080208
v 0.011001 0.322958 0.087096
v 0.012001 -0.291443 0.087096
v -0.006997 0.322958 0.087096
v -0.007997 -0.291443 0.087096
v -0.023626 0.322958 0.080208
v -0.026473 -0.291443 0.080208
v -0.036352 0.322958 0.067481
v -0.040614 -0.291443 0.067481
v -0.043240 0.322958 0.050853
v -0.048267 -0.291443 0.050853
v -0.043240 0.322958 0.032855
v -0.048267 -0.291443 0.032855
v -0.036352 0.322958 0.016226
v -0.040614 -0.291443 0.016226
v -0.023626 0.322958 0.003500
v -0.026473 -0.291443 0.003500
v -0.006997 0.322958 -0.003388
v -0.007997 -0.291443 -0.003388
v 0.013112 0.276878 -0.014000
v 0.033641 0.276878 -0.005497
v 0.049353 0.276878 0.010215
v 0.057856 0.276878 0.030744
v 0.057856 0.276878 0.052964
v 0.049353 0.276878 0.073493
v 0.033641 0.276878 0.089205
v 0.013112 0.276878 0.097708
v -0.009108 0.276878 0.097708
v -0.029637 0.276878 0.089205
v -0.045349 0.276878 0.073493
v -0.053852 0.276878 0.052964
v -0.053852 0.276878 0.030744
v -0.045349 0.276878 0.010215
v -0.029637 0.276878 -0.005497
v -0.009108 0.276878 -0.014000
v 0.013112 -0.245363 -0.014000
v 0.033641 -0.245363 -0.005497
v 0.049353 -0.245363 0.010215
v 0.057856 -0.245363 0.030744
v 0.057856 -0.245363 0.052964
v 0.049353 -0.245363 0.073493
v 0.033641 -0.245363 0.089205
v 0.013112 -0.245363 0.097708
v -0.009108 -0.245363 0.097708
v -0.029637 -0.245363 0.089205
v -0.045349 -0.245363 0.073493
v -0.053852 -0.245363 0.052964
v -0.053852 -0.245363 0.030744
v -0.045349 -0.245363 0.010215
v -0.029637 -0.245363 -0.005497
v -0.009108 -0.245363 -0.014000
vn 0.3729 0.2244 -0.9003
vn 0.6891 0.2244 -0.6891
vn 0.9003 0.2244 -0.3729
vn 0.9745 0.2244 -0.0000
vn 0.9003 0.2244 0.3729
vn 0.6891 0.2244 0.6891
vn 0.3729 0.2244 0.9003
vn -0.0000 0.2244 0.9745
vn -0.3729 0.2244 0.9003
vn -0.6891 0.2244 0.6891
vn -0.9003 0.2244 0.3729
vn -0.9745 0.2244 -0.0000
vn -0.9003 0.2244 -0.3729
vn -0.6891 0.2244 -0.6891
vn -0.3729 0.2244 -0.9003
vn -0.0000 -1.0000 -0.0000
vn -0.0000 1.0000 -0.0000
vn -0.0000 -0.2244 -0.9745
vn -0.3827 -0.0000 -0.9239
vn -0.7071 -0.0000 -0.7071
vn -0.9239 -0.0000 -0.3827
vn -1.0000 -0.0000 -0.0000
vn -0.9239 -0.0000 0.3827
vn -0.7071 -0.0000 0.7071
vn -0.3827 -0.0000 0.9239
vn -0.0000 -0.0000 1.0000
vn 0.3827 -0.0000 0.9239
vn 0.7071 -0.0000 0.7071
vn 0.9239 -0.0000 0.3827
vn 1.0000 -0.0000 -0.0000
vn 0.9239 -0.0000 -0.3827
vn 0.7071 -0.0000 -0.7071
vn 0.3827 -0.0000 -0.9239
vn -0.0000 0.2244 -0.9745
vn 0.3589 -0.2101 -0.9094
vn 0.6792 -0.1743 -0.7130
vn 0.9085 -0.1365 -0.3950
vn 0.9927 -0.1203 -0.0000
vn 0.9085 -0.1365 0.3950
vn 0.6792 -0.1743 0.7130
vn 0.3589 -0.2101 0.9094
vn -0.0000 -0.2244 0.9745
vn -0.3589 -0.2101 0.9094
vn -0.6792 -0.1743 0.7130
vn -0.9085 -0.1365 0.3950
vn -0.9927 -0.1203 -0.0000
vn -0.9085 -0.1365 -0.3950
vn -0.6792 -0.1743 -0.7130
vn -0.3589 -0.2101 -0.9094
vn -0.0000 -0.0000 -1.0000
vt 0.573639 0.305378
vt 0.559425 0.305849
vt 0.559188 0.299970
vt 0.573465 0.299244
vt 0.558861 0.294118
vt 0.573202 0.293058
vt 0.558397 0.288307
vt 0.572833 0.286800
vt 0.557830 0.282535
vt 0.572255 0.280422
vt 0.556867 0.276900
vt 0.571589 0.273900
vt 0.571274 0.373280
vt 0.556431 0.370194
vt 0.557431 0.364516
vt 0.571979 0.366772
vt 0.558126 0.358780
vt 0.572535 0.360395
vt 0.558609 0.352982
vt 0.572955 0.354124
vt 0.558947 0.347127
vt 0.573268 0.347925
vt 0.559191 0.341229
vt 0.573492 0.341781
vt 0.559376 0.335307
vt 0.573647 0.335678
vt 0.559526 0.329380
vt 0.573741 0.329607
vt 0.559651 0.323467
vt 0.573780 0.323557
vt 0.559751 0.317594
vt 0.573755 0.317520
vt 0.559607 0.311732
vt 0.573738 0.311468
vt 0.897610 0.984692
vt 0.892398 0.982749
vt 0.888408 0.979159
vt 0.886249 0.974467
vt 0.886249 0.969390
vt 0.888408 0.964698
vt 0.892398 0.961108
vt 0.897610 0.959165
vt 0.903252 0.959165
vt 0.908465 0.961108
vt 0.912454 0.964698
vt 0.914613 0.969390
vt 0.914613 0.974467
vt 0.912454 0.979159
vt 0.908465 0.982749
vt 0.903252 0.984692
vt 0.930003 0.988725
vt 0.926413 0.985134
vt 0.924471 0.980442
vt 0.924471 0.975364
vt 0.926416 0.970673
vt 0.930007 0.967084
vt 0.934698 0.965141
vt 0.939776 0.965142
vt 0.944467 0.967086
vt 0.948057 0.970677
vt 0.949999 0.975369
vt 0.949998 0.980446
vt 0.948054 0.985137
vt 0.944463 0.988727
vt 0.939771 0.990669
vt 0.934694 0.990668
vt 0.717498 0.311519
vt 0.717614 0.305331
vt 0.731756 0.305347
vt 0.731803 0.311858
vt 0.717546 0.317710
vt 0.717624 0.323905
vt 0.717692 0.330110
vt 0.717733 0.336314
vt 0.717699 0.342512
vt 0.717683 0.348714
vt 0.717737 0.354934
vt 0.717999 0.361200
vt 0.718408 0.367545
vt 0.718967 0.374043
vt 0.719183 0.273900
vt 0.718788 0.280304
vt 0.718413 0.286657
vt 0.718089 0.292928
vt 0.717816 0.299144
vt 0.731785 0.299027
vt 0.731911 0.293034
vt 0.732144 0.287365
vt 0.732506 0.281873
vt 0.733108 0.276363
vt 0.733197 0.372438
vt 0.732481 0.366649
vt 0.732063 0.360508
vt 0.731872 0.354165
vt 0.731692 0.347878
vt 0.731599 0.341826
vt 0.731538 0.336033
vt 0.731609 0.330324
vt 0.731661 0.324456
vt 0.731716 0.318297
s 1
f 97/101/51 65/102/51 67/103/51 98/104/51
f 98/104/52 67/103/52 69/105/52 99/106/52
f 99/106/53 69/105/53 71/107/53 100/108/53
f 100/108/54 71/107/54 73/109/54 101/110/54
f 101/110/55 73/109/55 75/111/55 102/112/55
f 102/113/56 75/114/56 77/115/56 103/116/56
f 103/116/57 77/115/57 79/117/57 104/118/57
f 104/118/58 79/117/58 81/119/58 105/120/58
f 105/120/59 81/119/59 83/121/59 106/122/59
f 106/122/60 83/121/60 85/123/60 107/124/60
f 107/124/61 85/123/61 87/125/61 108/126/61
f 108/126/62 87/125/62 89/127/62 109/128/62
f 109/128/63 89/127/63 91/129/63 110/130/63
f 110/130/64 91/129/64 93/131/64 111/132/64
f 111/132/65 93/131/65 95/133/65 112/134/65
f 66/135/66 68/136/66 70/137/66 72/138/66 74/139/66 76/140/66 78/141/66 80/142/66 82/143/66 84/144/66 86/145/66 88/146/66 90/147/66 92/148/66 94/149/66 96/150/66
f 65/151/67 95/152/67 93/153/67 91/154/67 89/155/67 87/156/67 85/157/67 83/158/67 81/159/67 79/160/67 77/161/67 75/162/67 73/163/67 71/164/67 69/165/67 67/166/67
f 128/167/68 113/168/68 66/169/68 96/170/68
f 128/167/69 127/171/69 111/132/69 112/134/69
f 127/171/70 126/172/70 110/130/70 111/132/70
f 126/172/71 125/173/71 109/128/71 110/130/71
f 125/173/72 124/174/72 108/126/72 109/128/72
f 124/174/73 123/175/73 107/124/73 108/126/73
f 123/175/74 122/176/74 106/122/74 107/124/74
f 122/176/75 121/177/75 105/120/75 106/122/75
f 121/177/76 120/178/76 104/118/76 105/120/76
f 120/178/77 119/179/77 103/116/77 104/118/77
f 119/179/78 118/180/78 102/113/78 103/116/78
f 118/181/79 117/182/79 101/110/79 102/112/79
f 117/182/80 116/183/80 100/108/80 101/110/80
f 116/183/81 115/184/81 99/106/81 100/108/81
f 115/184/82 114/185/82 98/104/82 99/106/82
f 114/185/83 113/168/83 97/101/83 98/104/83
f 95/133/84 65/102/84 97/101/84 112/134/84
f 66/169/85 113/168/85 114/185/85 68/186/85
f 68/186/86 114/185/86 115/184/86 70/187/86
f 70/187/87 115/184/87 116/183/87 72/188/87
f 72/188/88 116/183/88 117/182/88 74/189/88
f 74/189/89 117/182/89 118/181/89 76/190/89
f 76/191/90 118/180/90 119/179/90 78/192/90
f 78/192/91 119/179/91 120/178/91 80/193/91
f 80/193/92 120/178/92 121/177/92 82/194/92
f 82/194/93 121/177/93 122/176/93 84/195/93
f 84/195/94 122/176/94 123/175/94 86/196/94
f 86/196/95 123/175/95 124/174/95 88/197/95
f 88/197/96 124/174/96 125/173/96 90/198/96
f 90/198/97 125/173/97 126/172/97 92/199/97
f 92/199/98 126/172/98 127/171/98 94/200/98
f 94/200/99 127/171/99 128/167/99 96/170/99
f 128/167/100 112/134/100 97/101/100 113/168/100
o Fuse.002
v 0.011001 0.322958 0.409577
v 0.012001 -0.291443 0.409577
v 0.027629 0.322958 0.416464
v 0.030477 -0.291443 0.416464
v 0.040356 0.322958 0.429191
v 0.044618 -0.291443 0.429191
v 0.047244 0.322958 0.445820
v 0.052271 -0.291443 0.445820
v 0.047244 0.322958 0.463818
v 0.052271 -0.291443 0.463818
v 0.040356 0.322958 0.480446
v 0.044618 -0.291443 0.480446
v 0.027629 0.322958 0.493173
v 0.030477 -0.291443 0.493173
v 0.011001 0.322958 0.500061
v 0.012001 -0.291443 0.500061
v -0.006997 0.322958 0.500061
v -0.007997 -0.291443 0.500061
v -0.023626 0.322958 0.493173
v -0.026473 -0.291443 0.493173
v -0.036352 0.322958 0.480446
v -0.040614 -0.291443 0.480446
v -0.043240 0.322958 0.463818
v -0.048267 -0.291443 0.463818
v -0.043240 0.322958 0.445820
v -0.048267 -0.291443 0.445820
v -0.036352 0.322958 0.429191
v -0.040614 -0.291443 0.429191
v -0.023626 0.322958 0.416464
v -0.026473 -0.291443 0.416464
v -0.006997 0.322958 0.409577
v -0.007997 -0.291443 0.409577
v 0.013112 0.276878 0.398965
v 0.033641 0.276878 0.407468
v 0.049353 0.276878 0.423180
v 0.057856 0.276878 0.443709
v 0.057856 0.276878 0.465929
v 0.049353 0.276878 0.486458
v 0.033641 0.276878 0.502170
v 0.013112 0.276878 0.510673
v -0.009108 0.276878 0.510673
v -0.029637 0.276878 0.502170
v -0.045349 0.276878 0.486458
v -0.053852 0.276878 0.465929
v -0.053852 0.276878 0.443709
v -0.045349 0.276878 0.423180
v -0.029637 0.276878 0.407468
v -0.009108 0.276878 0.398965
v 0.013112 -0.245363 0.398965
v 0.033641 -0.245363 0.407468
v 0.049353 -0.245363 0.423180
v 0.057856 -0.245363 0.443709
v 0.057856 -0.245363 0.465929
v 0.049353 -0.245363 0.486458
v 0.033641 -0.245363 0.502170
v 0.013112 -0.245363 0.510673
v -0.009108 -0.245363 0.510673
v -0.029637 -0.245363 0.502170
v -0.045349 -0.245363 0.486458
v -0.053852 -0.245363 0.465929
v -0.053852 -0.245363 0.443709
v -0.045349 -0.245363 0.423180
v -0.029637 -0.245363 0.407468
v -0.009108 -0.245363 0.398965
vn 0.3729 0.2244 -0.9003
vn 0.6891 0.2244 -0.6891
vn 0.9003 0.2244 -0.3729
vn 0.9745 0.2244 -0.0000
vn 0.9003 0.2244 0.3729
vn 0.6891 0.2244 0.6891
vn 0.3729 0.2244 0.9003
vn -0.0000 0.2244 0.9745
vn -0.3729 0.2244 0.9003
vn -0.6891 0.2244 0.6891
vn -0.9003 0.2244 0.3729
vn -0.9745 0.2244 -0.0000
vn -0.9003 0.2244 -0.3729
vn -0.6891 0.2244 -0.6891
vn -0.3729 0.2244 -0.9003
vn -0.0000 -1.0000 -0.0000
vn -0.0000 1.0000 -0.0000
vn -0.0000 -0.2244 -0.9745
vn -0.3827 -0.0000 -0.9239
vn -0.7071 -0.0000 -0.7071
vn -0.9239 -0.0000 -0.3827
vn -1.0000 -0.0000 -0.0000
vn -0.9239 -0.0000 0.3827
vn -0.7071 -0.0000 0.7071
vn -0.3827 -0.0000 0.9239
vn -0.0000 -0.0000 1.0000
vn 0.3827 -0.0000 0.9239
vn 0.7071 -0.0000 0.7071
vn 0.9239 -0.0000 0.3827
vn 1.0000 -0.0000 -0.0000
vn 0.9239 -0.0000 -0.3827
vn 0.7071 -0.0000 -0.7071
vn 0.3827 -0.0000 -0.9239
vn -0.0000 0.2244 -0.9745
vn 0.3588 -0.2101 -0.9094
vn 0.6792 -0.1743 -0.7130
vn 0.9085 -0.1365 -0.3950
vn 0.9927 -0.1203 -0.0000
vn 0.9085 -0.1365 0.3950
vn 0.6792 -0.1743 0.7130
vn 0.3589 -0.2101 0.9094
vn -0.0000 -0.2244 0.9745
vn -0.3589 -0.2101 0.9094
vn -0.6792 -0.1743 0.7130
vn -0.9085 -0.1365 0.3950
vn -0.9927 -0.1203 -0.0000
vn -0.9085 -0.1365 -0.3950
vn -0.6792 -0.1743 -0.7130
vn -0.3588 -0.2101 -0.9094
vn -0.0000 -0.0000 -1.0000
vt 0.307289 0.245592
vt 0.293138 0.246021
vt 0.292903 0.240167
vt 0.307131 0.239466
vt 0.292577 0.234333
vt 0.306878 0.233288
vt 0.292112 0.228537
vt 0.306516 0.227037
vt 0.291543 0.222776
vt 0.305941 0.220664
vt 0.290579 0.217151
vt 0.305275 0.214147
vt 0.304955 0.313542
vt 0.290298 0.310468
vt 0.291217 0.304848
vt 0.305722 0.307028
vt 0.291888 0.299116
vt 0.306259 0.300669
vt 0.292354 0.293325
vt 0.306661 0.294411
vt 0.292679 0.287482
vt 0.306953 0.288224
vt 0.292911 0.281605
vt 0.307154 0.282088
vt 0.293079 0.275713
vt 0.307279 0.275993
vt 0.292992 0.269729
vt 0.307434 0.269909
vt 0.293121 0.263725
vt 0.307458 0.263820
vt 0.293231 0.257768
vt 0.307441 0.257744
vt 0.293311 0.251872
vt 0.307366 0.251675
vt 0.179930 0.959160
vt 0.185143 0.961103
vt 0.189133 0.964694
vt 0.191293 0.969386
vt 0.191293 0.974464
vt 0.189133 0.979156
vt 0.185143 0.982747
vt 0.179930 0.984691
vt 0.174287 0.984691
vt 0.169074 0.982747
vt 0.165084 0.979156
vt 0.162925 0.974464
vt 0.162925 0.969386
vt 0.165084 0.964694
vt 0.169074 0.961103
vt 0.174287 0.959160
vt 0.547255 0.990667
vt 0.542177 0.990667
vt 0.537485 0.988723
vt 0.533894 0.985132
vt 0.531950 0.980440
vt 0.531950 0.975362
vt 0.533894 0.970670
vt 0.537485 0.967079
vt 0.542177 0.965135
vt 0.547255 0.965135
vt 0.551947 0.967079
vt 0.555538 0.970670
vt 0.557481 0.975362
vt 0.557481 0.980440
vt 0.555538 0.985132
vt 0.551947 0.988723
vt 0.451192 0.251776
vt 0.451311 0.245589
vt 0.465441 0.245615
vt 0.465485 0.252121
vt 0.451238 0.257964
vt 0.451316 0.264157
vt 0.451386 0.270359
vt 0.451429 0.276558
vt 0.451402 0.282751
vt 0.451399 0.288947
vt 0.451474 0.295160
vt 0.451679 0.301423
vt 0.452114 0.307788
vt 0.452686 0.314308
vt 0.452882 0.214147
vt 0.452475 0.220569
vt 0.452131 0.226916
vt 0.451797 0.233188
vt 0.451517 0.239404
vt 0.465472 0.239302
vt 0.465604 0.233317
vt 0.465845 0.227658
vt 0.466278 0.222187
vt 0.466892 0.216643
vt 0.467015 0.312682
vt 0.466291 0.306853
vt 0.465862 0.300659
vt 0.465539 0.294338
vt 0.465357 0.288084
vt 0.465266 0.282053
vt 0.465209 0.276273
vt 0.465284 0.270572
vt 0.465338 0.264710
vt 0.465396 0.258555
s 1
f 161/201/101 129/202/101 131/203/101 162/204/101
f 162/204/102 131/203/102 133/205/102 163/206/102
f 163/206/103 133/205/103 135/207/103 164/208/103
f 164/208/104 135/207/104 137/209/104 165/210/104
f 165/210/105 137/209/105 139/211/105 166/212/105
f 166/213/106 139/214/106 141/215/106 167/216/106
f 167/216/107 141/215/107 143/217/107 168/218/107
f 168/218/108 143/217/108 145/219/108 169/220/108
f 169/220/109 145/219/109 147/221/109 170/222/109
f 170/222/110 147/221/110 149/223/110 171/224/110
f 171/224/111 149/223/111 151/225/111 172/226/111
f 172/226/112 151/225/112 153/227/112 173/228/112
f 173/228/113 153/227/113 155/229/113 174/230/113
f 174/230/114 155/229/114 157/231/114 175/232/114
f 175/232/115 157/231/115 159/233/115 176/234/115
f 130/235/116 132/236/116 134/237/116 136/238/116 138/239/116 140/240/116 142/241/116 144/242/116 146/243/116 148/244/116 150/245/116 152/246/116 154/247/116 156/248/116 158/249/116 160/250/116
f 129/251/117 159/252/117 157/253/117 155/254/117 153/255/117 151/256/117 149/257/117 147/258/117 145/259/117 143/260/117 141/261/117 139/262/117 137/263/117 135/264/117 133/265/117 131/266/117
f 192/267/118 177/268/118 130/269/118 160/270/118
f 192/267/119 191/271/119 175/232/119 176/234/119
f 191/271/120 190/272/120 174/230/120 175/232/120
f 190/272/121 189/273/121 173/228/121 174/230/121
f 189/273/122 188/274/122 172/226/122 173/228/122
f 188/274/123 187/275/123 171/224/123 172/226/123
f 187/275/124 186/276/124 170/222/124 171/224/124
f 186/276/125 185/277/125 169/220/125 170/222/125
f 185/277/126 184/278/126 168/218/126 169/220/126
f 184/278/127 183/279/127 167/216/127 168/218/127
f 183/279/128 182/280/128 166/213/128 167/216/128
f 182/281/129 181/282/129 165/210/129 166/212/129
f 181/282/130 180/283/130 164/208/130 165/210/130
f 180/283/131 179/284/131 163/206/131 164/208/131
f 179/284/132 178/285/132 162/204/132 163/206/132
f 178/285/133 177/268/133 161/201/133 162/204/133
f 159/233/134 129/202/134 161/201/134 176/234/134
f 130/269/135 177/268/135 178/285/135 132/286/135
f 132/286/136 178/285/136 179/284/136 134/287/136
f 134/287/137 179/284/137 180/283/137 136/288/137
f 136/288/138 180/283/138 181/282/138 138/289/138
f 138/289/139 181/282/139 182/281/139 140/290/139
f 140/291/140 182/280/140 183/279/140 142/292/140
f 142/292/141 183/279/141 184/278/141 144/293/141
f 144/293/142 184/278/142 185/277/142 146/294/142
f 146/294/143 185/277/143 186/276/143 148/295/143
f 148/295/144 186/276/144 187/275/144 150/296/144
f 150/296/145 187/275/145 188/274/145 152/297/145
f 152/297/146 188/274/146 189/273/146 154/298/146
f 154/298/147 189/273/147 190/272/147 156/299/147
f 156/299/148 190/272/148 191/271/148 158/300/148
f 158/300/149 191/271/149 192/267/149 160/270/149
f 192/267/150 176/234/150 161/201/150 177/268/150
o Fuse.003
v 0.011001 0.322958 0.201140
v 0.012001 -0.291443 0.201140
v 0.027629 0.322958 0.208028
v 0.030477 -0.291443 0.208028
v 0.040356 0.322958 0.220754
v 0.044618 -0.291443 0.220754
v 0.047244 0.322958 0.237383
v 0.052271 -0.291443 0.237383
v 0.047244 0.322958 0.255381
v 0.052271 -0.291443 0.255381
v 0.040356 0.322958 0.272009
v 0.044618 -0.291443 0.272009
v 0.027629 0.322958 0.284736
v 0.030477 -0.291443 0.284736
v 0.011001 0.322958 0.291624
v 0.012001 -0.291443 0.291624
v -0.006997 0.322958 0.291624
v -0.007997 -0.291443 0.291624
v -0.023626 0.322958 0.284736
v -0.026473 -0.291443 0.284736
v -0.036352 0.322958 0.272009
v -0.040614 -0.291443 0.272009
v -0.043240 0.322958 0.255381
v -0.048267 -0.291443 0.255381
v -0.043240 0.322958 0.237383
v -0.048267 -0.291443 0.237383
v -0.036352 0.322958 0.220754
v -0.040614 -0.291443 0.220754
v -0.023626 0.322958 0.208028
v -0.026473 -0.291443 0.208028
v -0.006997 0.322958 0.201140
v -0.007997 -0.291443 0.201140
v 0.013112 0.276878 0.190528
v 0.033641 0.276878 0.199031
v 0.049353 0.276878 0.214743
v 0.057856 0.276878 0.235272
v 0.057856 0.276878 0.257492
v 0.049353 0.276878 0.278021
v 0.033641 0.276878 0.293733
v 0.013112 0.276878 0.302236
v -0.009108 0.276878 0.302236
v -0.029637 0.276878 0.293733
v -0.045349 0.276878 0.278021
v -0.053852 0.276878 0.257492
v -0.053852 0.276878 0.235272
v -0.045349 0.276878 0.214743
v -0.029637 0.276878 0.199031
v -0.009108 0.276878 0.190528
v 0.013112 -0.245363 0.190528
v 0.033641 -0.245363 0.199031
v 0.049353 -0.245363 0.214743
v 0.057856 -0.245363 0.235272
v 0.057856 -0.245363 0.257492
v 0.049353 -0.245363 0.278021
v 0.033641 -0.245363 0.293733
v 0.013112 -0.245363 0.302236
v -0.009108 -0.245363 0.302236
v -0.029637 -0.245363 0.293733
v -0.045349 -0.245363 0.278021
v -0.053852 -0.245363 0.257492
v -0.053852 -0.245363 0.235272
v -0.045349 -0.245363 0.214743
v -0.029637 -0.245363 0.199031
v -0.009108 -0.245363 0.190528
vn 0.3729 0.2244 -0.9003
vn 0.6891 0.2244 -0.6891
vn 0.9003 0.2244 -0.3729
vn 0.9745 0.2244 -0.0000
vn 0.9003 0.2244 0.3729
vn 0.6891 0.2244 0.6891
vn 0.3729 0.2244 0.9003
vn -0.0000 0.2244 0.9745
vn -0.3729 0.2244 0.9003
vn -0.6891 0.2244 0.6891
vn -0.9003 0.2244 0.3729
vn -0.9745 0.2244 -0.0000
vn -0.9003 0.2244 -0.3729
vn -0.6891 0.2244 -0.6891
vn -0.3729 0.2244 -0.9003
vn -0.0000 -1.0000 -0.0000
vn -0.0000 1.0000 -0.0000
vn -0.0000 -0.2244 -0.9745
vn -0.3827 -0.0000 -0.9239
vn -0.7071 -0.0000 -0.7071
vn -0.9239 -0.0000 -0.3827
vn -1.0000 -0.0000 -0.0000
vn -0.9239 -0.0000 0.3827
vn -0.7071 -0.0000 0.7071
vn -0.3827 -0.0000 0.9239
vn -0.0000 -0.0000 1.0000
vn 0.3827 -0.0000 0.9239
vn 0.7071 -0.0000 0.7071
vn 0.9239 -0.0000 0.3827
vn 1.0000 -0.0000 -0.0000
vn 0.9239 -0.0000 -0.3827
vn 0.7071 -0.0000 -0.7071
vn 0.3827 -0.0000 -0.9239
vn -0.0000 0.2244 -0.9745
vn 0.3589 -0.2101 -0.9094
vn 0.6792 -0.1743 -0.7130
vn 0.9085 -0.1365 -0.3950
vn 0.9927 -0.1203 -0.0000
vn 0.9085 -0.1365 0.3950
vn 0.6792 -0.1743 0.7130
vn 0.3589 -0.2101 0.9094
vn -0.0000 -0.2244 0.9745
vn -0.3589 -0.2101 0.9094
vn -0.6792 -0.1743 0.7130
vn -0.9085 -0.1365 0.3950
vn -0.9927 -0.1203 -0.0000
vn -0.9085 -0.1365 -0.3950
vn -0.6792 -0.1743 -0.7130
vn -0.3589 -0.2101 -0.9094
vn -0.0000 -0.0000 -1.0000
vt 0.321423 0.185182
vt 0.321916 0.199459
vt 0.316022 0.199687
vt 0.315273 0.185373
vt 0.310167 0.200009
vt 0.309074 0.185655
vt 0.304364 0.200476
vt 0.302804 0.186044
vt 0.298618 0.201156
vt 0.296422 0.186567
vt 0.292921 0.202142
vt 0.289864 0.187253
vt 0.389287 0.187507
vt 0.386202 0.202185
vt 0.380573 0.201262
vt 0.382768 0.186736
vt 0.374832 0.200585
vt 0.376405 0.186193
vt 0.369030 0.200112
vt 0.370143 0.185784
vt 0.363176 0.199776
vt 0.363954 0.185482
vt 0.357285 0.199528
vt 0.357820 0.185268
vt 0.351379 0.199335
vt 0.351730 0.185127
vt 0.345478 0.199176
vt 0.345674 0.185051
vt 0.339608 0.199043
vt 0.339643 0.185040
vt 0.333735 0.199152
vt 0.333605 0.185016
vt 0.327828 0.199288
vt 0.327532 0.185062
vt 0.471412 0.345028
vt 0.473356 0.339813
vt 0.476948 0.335821
vt 0.481642 0.333661
vt 0.486722 0.333661
vt 0.491415 0.335821
vt 0.495008 0.339813
vt 0.496952 0.345028
vt 0.496952 0.350672
vt 0.495008 0.355887
vt 0.491415 0.359879
vt 0.486722 0.362039
vt 0.481642 0.362039
vt 0.476948 0.359879
vt 0.473356 0.355887
vt 0.471412 0.350672
vt 0.492256 0.965138
vt 0.496949 0.967082
vt 0.500542 0.970675
vt 0.502486 0.975368
vt 0.502486 0.980448
vt 0.500542 0.985142
vt 0.496949 0.988734
vt 0.492256 0.990678
vt 0.487176 0.990678
vt 0.482482 0.988734
vt 0.478890 0.985142
vt 0.476946 0.980448
vt 0.476946 0.975368
vt 0.478890 0.970675
vt 0.482482 0.967082
vt 0.487176 0.965138
vt 0.327497 0.041233
vt 0.321313 0.041118
vt 0.321345 0.027000
vt 0.327843 0.026964
vt 0.333680 0.041183
vt 0.339866 0.041097
vt 0.346059 0.041013
vt 0.352265 0.041009
vt 0.358480 0.041025
vt 0.364696 0.041030
vt 0.370928 0.040969
vt 0.377204 0.040704
vt 0.383557 0.040295
vt 0.390061 0.039738
vt 0.289864 0.039542
vt 0.296290 0.039950
vt 0.302639 0.040296
vt 0.308913 0.040632
vt 0.315129 0.040912
vt 0.315034 0.026962
vt 0.309049 0.026825
vt 0.303389 0.026580
vt 0.297915 0.026143
vt 0.292369 0.025525
vt 0.388468 0.025484
vt 0.382670 0.026196
vt 0.376518 0.026608
vt 0.370158 0.026792
vt 0.363851 0.026965
vt 0.357771 0.027052
vt 0.351943 0.027110
vt 0.346239 0.027181
vt 0.340403 0.027124
vt 0.334266 0.027060
s 1
f 225/301/151 193/302/151 195/303/151 226/304/151
f 226/304/152 195/303/152 197/305/152 227/306/152
f 227/306/153 197/305/153 199/307/153 228/308/153
f 228/308/154 199/307/154 201/309/154 229/310/154
f 229/310/155 201/309/155 203/311/155 230/312/155
f 230/313/156 203/314/156 205/315/156 231/316/156
f 231/316/157 205/315/157 207/317/157 232/318/157
f 232/318/158 207/317/158 209/319/158 233/320/158
f 233/320/159 209/319/159 211/321/159 234/322/159
f 234/322/160 211/321/160 213/323/160 235/324/160
f 235/324/161 213/323/161 215/325/161 236/326/161
f 236/326/162 215/325/162 217/327/162 237/328/162
f 237/328/163 217/327/163 219/329/163 238/330/163
f 238/330/164 219/329/164 221/331/164 239/332/164
f 239/332/165 221/331/165 223/333/165 240/334/165
f 194/335/166 196/336/166 198/337/166 200/338/166 202/339/166 204/340/166 206/341/166 208/342/166 210/343/166 212/344/166 214/345/166 216/346/166 218/347/166 220/348/166 222/349/166 224/350/166
f 193/351/167 223/352/167 221/353/167 219/354/167 217/355/167 215/356/167 213/357/167 211/358/167 209/359/167 207/360/167 205/361/167 203/362/167 201/363/167 199/364/167 197/365/167 195/366/167
f 256/367/168 241/368/168 194/369/168 224/370/168
f 256/367/169 255/371/169 239/332/169 240/334/169
f 255/371/170 254/372/170 238/330/170 239/332/170
f 254/372/171 253/373/171 237/328/171 238/330/171
f 253/373/172 252/374/172 236/326/172 237/328/172
f 252/374/173 251/375/173 235/324/173 236/326/173
f 251/375/174 250/376/174 234/322/174 235/324/174
f 250/376/175 249/377/175 233/320/175 234/322/175
f 249/377/176 248/378/176 232/318/176 233/320/176
f 248/378/177 247/379/177 231/316/177 232/318/177
f 247/379/178 246/380/178 230/313/178 231/316/178
f 246/381/179 245/382/179 229/310/179 230/312/179
f 245/382/180 244/383/180 228/308/180 229/310/180
f 244/383/181 243/384/181 227/306/181 228/308/181
f 243/384/182 242/385/182 226/304/182 227/306/182
f 242/385/183 241/368/183 225/301/183 226/304/183
f 223/333/184 193/302/184 225/301/184 240/334/184
f 194/369/185 241/368/185 242/385/185 196/386/185
f 196/386/186 242/385/186 243/384/186 198/387/186
f 198/387/187 243/384/187 244/383/187 200/388/187
f 200/388/188 244/383/188 245/382/188 202/389/188
f 202/389/189 245/382/189 246/381/189 204/390/189
f 204/391/190 246/380/190 247/379/190 206/392/190
f 206/392/191 247/379/191 248/378/191 208/393/191
f 208/393/192 248/378/192 249/377/192 210/394/192
f 210/394/193 249/377/193 250/376/193 212/395/193
f 212/395/194 250/376/194 251/375/194 214/396/194
f 214/396/195 251/375/195 252/374/195 216/397/195
f 216/397/196 252/374/196 253/373/196 218/398/196
f 218/398/197 253/373/197 254/372/197 220/399/197
f 220/399/198 254/372/198 255/371/198 222/400/198
f 222/400/199 255/371/199 256/367/199 224/370/199
f 256/367/200 240/334/200 225/301/200 241/368/200
o Fuzebox
v 0.094524 -0.659949 -0.300367
v 0.094524 0.687001 -0.300367
v 0.094524 -0.659949 0.589949
v 0.094524 0.687001 0.589949
v -0.146063 -0.630764 -0.271182
v -0.146063 0.657816 -0.271182
v -0.146063 -0.630764 0.560764
v -0.146063 0.657816 0.560764
v -0.146063 0.687001 0.589949
v -0.146063 -0.659949 0.589949
v -0.139937 -0.632238 -0.327393
v -0.139937 0.659290 -0.327393
v 0.059673 0.657816 0.542405
v 0.078032 -0.630764 0.560764
v 0.078032 -0.616518 -0.256936
v 0.064729 0.644513 -0.271182
v -0.112526 -0.659949 0.589949
v -0.112526 0.687001 0.589949
v -0.112526 -0.659949 -0.300367
v -0.112526 0.687001 -0.300367
v 0.035724 0.659290 -1.102311
v 0.035724 -0.632238 -1.102311
v 0.075024 -0.659949 -1.124410
v 0.075024 0.687001 -1.124410
v -0.034016 -0.630764 -0.271182
v -0.020712 0.644513 -0.271182
v -0.034016 -0.630764 0.560764
v -0.015657 0.657816 0.542405
v 0.094524 -0.323212 0.589949
v -0.146063 -0.323212 0.589949
v -0.139937 -0.323212 -0.327393
v -0.146063 -0.308619 0.560764
v -0.146063 -0.308619 -0.271182
v 0.078032 -0.308619 0.560764
v 0.078032 -0.322865 -0.256936
v -0.112526 -0.323212 -0.300367
v -0.112526 -0.323212 0.589949
v 0.035724 -0.323212 -1.102311
v 0.075024 -0.323212 -1.124410
v -0.034016 -0.308619 0.560764
v 0.094524 -0.323212 -0.300367
v -0.034016 -0.308619 -0.271182
v 0.094524 0.350264 -0.300367
v -0.020712 0.348974 -0.271182
v 0.094524 0.350263 0.589949
v -0.146063 0.350263 0.589949
v -0.139937 0.350263 -0.327393
v -0.146063 0.335671 0.560764
v -0.146063 0.335671 -0.271182
v 0.078032 0.335671 0.560764
v 0.064729 0.348974 -0.271182
v -0.112526 0.350263 -0.300367
v -0.112526 0.350263 0.589949
v 0.035724 0.350263 -1.102311
v 0.075024 0.350263 -1.124410
v -0.034016 0.335671 0.560764
v 0.094524 -0.659949 0.144791
v 0.094524 0.687001 0.144791
v -0.146063 -0.659949 0.144791
v -0.146063 0.687001 0.144791
v -0.146063 -0.630764 0.144791
v -0.146063 0.657816 0.144791
v 0.078032 -0.616518 0.144791
v 0.059673 0.657816 0.163150
v -0.112526 0.687001 0.144791
v -0.112526 -0.659949 0.144791
v -0.015657 0.657816 0.163150
v -0.034016 -0.630764 0.144791
v 0.094524 -0.323212 0.144791
v 0.078032 -0.322865 0.144791
v 0.078032 0.335671 0.144791
v 0.094524 0.350263 0.144791
v 0.094524 0.687001 0.367370
v -0.146063 -0.659949 0.367370
v -0.146063 -0.630764 0.352777
v 0.078032 -0.616518 0.338531
v -0.015657 0.657816 0.352777
v 0.094524 -0.323212 0.367370
v 0.094524 0.350263 0.367370
v 0.094524 -0.659949 0.367370
v -0.146063 0.687001 0.367370
v -0.146063 0.657816 0.352777
v 0.059673 0.657816 0.352777
v -0.112526 0.687001 0.367370
v -0.112526 -0.659949 0.367370
v -0.034016 -0.630764 0.352777
v 0.078032 -0.322865 0.338531
v 0.078032 0.335671 0.352777
v 0.094524 -0.659949 -0.077788
v -0.146063 0.687001 -0.077788
v -0.146063 0.657816 -0.063196
v 0.078032 0.657816 -0.063196
v -0.112526 0.687001 -0.077788
v -0.112526 -0.659949 -0.077788
v -0.034016 -0.630764 -0.063196
v 0.078032 -0.322865 -0.063196
v 0.078032 0.335671 -0.063196
v 0.094524 0.687001 -0.077788
v -0.146063 -0.659949 -0.077788
v -0.146063 -0.630764 -0.063196
v 0.078032 -0.616518 -0.063196
v -0.034016 0.657816 -0.063196
v 0.094524 -0.323212 -0.077788
v 0.094524 0.350263 -0.077788
v 0.078032 -0.308619 -0.271182
v 0.078032 -0.630764 -0.271182
v 0.078032 -0.308619 -0.063196
v 0.078032 -0.630764 -0.063196
v 0.078032 -0.630764 0.144791
v 0.078032 -0.308619 0.352777
v 0.078032 -0.308619 0.144791
v 0.078032 -0.630764 0.352777
v 0.078032 0.657816 0.560764
v -0.034016 0.657816 0.560764
v -0.034016 0.657816 0.352777
v 0.078032 0.657816 0.352777
v 0.078032 0.657816 0.144791
v -0.034016 0.657816 0.144791
v -0.015657 0.589751 0.352777
v 0.059673 0.589751 0.352777
v 0.059673 0.589751 0.542405
v -0.015657 0.589751 0.542405
v 0.059673 0.589751 0.163150
v -0.015657 0.589751 0.163150
v -0.146063 -0.323212 -0.300367
v -0.146063 -0.659949 -0.300367
v 0.041851 -0.323212 -1.129337
v 0.041851 -0.659949 -1.129337
v -0.146063 0.687001 -0.300367
v 0.041851 0.687001 -1.129337
v -0.146063 0.350263 -0.300367
v 0.041851 0.350263 -1.129337
v -0.109393 -0.323212 -0.320469
v 0.066268 -0.323212 -1.095388
v -0.109393 0.350263 -0.320469
v 0.066268 0.350263 -1.095388
v -0.109393 -0.632238 -0.320469
v 0.066268 -0.632238 -1.095388
v -0.109393 0.659290 -0.320469
v 0.066268 0.659290 -1.095388
v 0.078032 0.657816 -0.271182
v -0.034016 0.657816 -0.271182
v -0.034016 0.335671 -0.271182
v 0.078032 0.335671 -0.271182
v 0.064729 0.644513 -0.225622
v -0.020712 0.644513 -0.225622
v -0.020712 0.348974 -0.225622
v 0.064729 0.348974 -0.225622
v 0.065054 0.309830 -0.089037
v 0.065054 0.309830 -0.245341
v 0.065054 -0.282778 -0.245341
v 0.065054 -0.282778 -0.089037
v 0.065054 -0.282778 0.326936
v 0.065054 0.309830 0.326936
v 0.065054 0.309830 0.170632
v 0.065054 -0.282778 0.170632
v 0.065054 -0.282778 0.118950
v 0.065054 0.309830 0.118950
v 0.065054 0.309830 -0.037355
v 0.065054 -0.282778 -0.037355
v 0.065054 0.309830 0.534922
v 0.065054 0.309830 0.378618
v 0.065054 -0.282778 0.378618
v 0.065054 -0.282778 0.534922
v 0.094524 0.013526 0.589949
v -0.146063 0.013526 0.589949
v -0.146063 0.013526 -0.300367
v -0.146063 0.013526 0.560764
v -0.146063 0.013526 -0.271182
v 0.078032 0.013526 0.560764
v 0.078032 0.013526 -0.271182
v -0.112526 0.013526 -0.300367
v -0.112526 0.013526 0.589949
v 0.041851 0.013526 -1.129337
v 0.075024 0.013526 -1.124410
v -0.034016 0.013526 0.560764
v 0.094524 0.013526 -0.300367
v -0.034016 0.013526 -0.271182
v 0.094524 0.013526 0.144791
v 0.078032 0.013526 0.144791
v 0.078032 0.013526 0.352777
v 0.094524 0.013526 0.367370
v 0.094524 0.013526 -0.077788
v 0.078032 0.013526 -0.063196
v -0.139937 0.013526 -0.327393
v 0.035724 0.013526 -1.102311
v -0.109393 0.013526 -0.320469
v 0.066268 0.013526 -1.095388
v 0.065054 0.013526 -0.089037
v 0.065054 0.013526 -0.245341
v 0.065054 0.013526 0.326936
v 0.065054 0.013526 0.170632
v 0.065054 0.013526 0.118950
v 0.065054 0.013526 -0.037355
v 0.065054 0.013526 0.534922
v 0.065054 0.013526 0.378618
v 0.094524 -0.154843 0.589949
v -0.146063 -0.154843 0.589949
v -0.146063 -0.154843 -0.300367
v -0.146063 -0.147547 0.560764
v -0.146063 -0.147547 -0.271182
v 0.078032 -0.147547 0.560764
v 0.078032 -0.147547 -0.271182
v -0.112526 -0.154843 -0.300367
v -0.112526 -0.154843 0.589949
v 0.041851 -0.154843 -1.129337
v 0.075024 -0.154843 -1.124410
v -0.034016 -0.147547 0.560764
v 0.094524 -0.154843 0.144791
v 0.078032 -0.147547 0.144791
v 0.078032 -0.147547 0.352777
v 0.094524 -0.154843 0.367370
v 0.094524 -0.154843 -0.077788
v 0.078032 -0.147547 -0.063196
v -0.139937 -0.154843 -0.327393
v 0.035724 -0.154843 -1.102311
v -0.109393 -0.154843 -0.320469
v 0.066268 -0.154843 -1.095388
v 0.065054 -0.134626 -0.089037
v 0.065054 -0.134626 -0.245341
v 0.065054 -0.134626 0.326936
v 0.065054 -0.134626 0.170632
v 0.065054 -0.134626 0.118950
v 0.065054 -0.134626 -0.037355
v 0.065054 -0.134626 0.534922
v 0.065054 -0.134626 0.378618
v 0.094524 -0.154843 -0.300367
v -0.034016 -0.147547 -0.271182
v 0.094524 0.181895 -0.300367
v -0.034016 0.174598 -0.271182
v 0.094524 0.181895 0.589949
v -0.146063 0.181895 0.589949
v -0.146063 0.181895 -0.300367
v -0.146063 0.174598 0.560764
v -0.146063 0.174598 -0.271182
v 0.078032 0.174598 0.560764
v 0.078032 0.174598 -0.271182
v -0.112526 0.181895 -0.300367
v -0.112526 0.181895 0.589949
v 0.041851 0.181895 -1.129337
v 0.075024 0.181895 -1.124410
v -0.034016 0.174598 0.560764
v 0.094524 0.181895 0.144791
v 0.078032 0.174598 0.144791
v 0.078032 0.174598 0.352777
v 0.094524 0.181895 0.367370
v 0.094524 0.181895 -0.077788
v 0.078032 0.174598 -0.063196
v -0.139937 0.181895 -0.327393
v 0.035724 0.181895 -1.102311
v -0.109393 0.181895 -0.320469
v 0.066268 0.181895 -1.095388
v 0.065054 0.161678 -0.089037
v 0.065054 0.161678 -0.245341
v 0.065054 0.161678 0.326936
v 0.065054 0.161678 0.170632
v 0.065054 0.161678 0.118950
v 0.065054 0.161678 -0.037355
v 0.065054 0.161678 0.534922
v 0.065054 0.161678 0.378618
v 0.013207 0.309830 -0.089037
v 0.013207 0.309830 -0.245341
v 0.013207 -0.134626 -0.089037
v 0.013207 -0.282778 -0.089037
v 0.013207 -0.134626 -0.245341
v 0.013207 -0.282778 -0.245341
v 0.013207 -0.134626 0.326936
v 0.013207 -0.282778 0.326936
v 0.013207 -0.282778 0.170632
v 0.013207 0.309830 0.326936
v 0.013207 0.309830 0.170632
v 0.013207 -0.134626 0.170632
v 0.013207 -0.134626 0.118950
v 0.013207 -0.282778 0.118950
v 0.013207 -0.282778 -0.037355
v 0.013207 0.309830 0.118950
v 0.013207 0.309830 -0.037355
v 0.013207 -0.134626 -0.037355
v 0.013207 0.309830 0.534922
v 0.013207 0.309830 0.378618
v 0.013207 -0.134626 0.534922
v 0.013207 -0.282778 0.534922
v 0.013207 -0.134626 0.378618
v 0.013207 -0.282778 0.378618
v 0.013207 0.161678 -0.089037
v 0.013207 0.161678 -0.245341
v 0.013207 0.161678 0.326936
v 0.013207 0.161678 0.170632
v 0.013207 0.161678 0.118950
v 0.013207 0.161678 -0.037355
v 0.013207 0.161678 0.534922
v 0.013207 0.161678 0.378618
v -0.038718 -0.322865 0.144791
v -0.054301 -0.338448 0.144791
v -0.049737 -0.327429 0.144791
v -0.038718 -0.616518 0.144791
v -0.054301 -0.600935 0.144791
v -0.049737 -0.611954 0.144791
v -0.054301 -0.338448 -0.063196
v -0.038718 -0.322865 -0.063196
v -0.049737 -0.327429 -0.063196
v -0.054301 -0.600935 -0.063196
v -0.038718 -0.616518 -0.063196
v -0.049737 -0.611954 -0.063196
v -0.054301 -0.338448 -0.241354
v -0.038718 -0.322865 -0.256936
v -0.049737 -0.327429 -0.252372
v -0.054301 -0.600935 -0.241354
v -0.038718 -0.616518 -0.256936
v -0.049737 -0.611954 -0.252372
v -0.054301 -0.338448 0.322948
v -0.038718 -0.322865 0.338531
v -0.049737 -0.327429 0.333967
v -0.038718 -0.616518 0.338531
v -0.054301 -0.600935 0.322948
v -0.049737 -0.611954 0.333967
v 0.094524 0.687001 0.033501
v -0.146063 -0.659949 0.033501
v -0.146063 -0.630764 0.040797
v 0.078032 -0.630764 0.040797
v -0.034016 0.657816 0.040797
v 0.094524 -0.323212 0.033501
v 0.094524 0.350263 0.033501
v 0.094524 -0.659949 0.033501
v -0.146063 0.687001 0.033501
v -0.146063 0.657816 0.040797
v 0.078032 0.657816 0.040797
v -0.112526 0.687001 0.033501
v -0.112526 -0.659949 0.033501
v -0.034016 -0.630764 0.040797
v 0.078032 -0.308619 0.040797
v 0.078032 0.335671 0.040797
v 0.078032 -0.616518 0.040797
v 0.078032 -0.322865 0.040797
v 0.065054 -0.282778 0.040797
v 0.065054 0.309830 0.040797
v 0.065054 0.013526 0.040797
v 0.094524 0.013526 0.033501
v 0.094524 -0.154843 0.033501
v 0.065054 -0.134626 0.040797
v 0.065054 0.161678 0.040797
v 0.094524 0.181895 0.033501
v 0.051153 -0.282778 0.040797
v 0.051153 0.309830 0.040797
v 0.051153 -0.134626 0.040797
v 0.051153 0.161678 0.040797
v -0.038718 -0.616518 0.040797
v -0.049737 -0.611954 0.040797
v -0.054301 -0.600935 0.040797
v -0.038718 -0.322865 0.040797
v -0.049737 -0.327429 0.040797
v -0.054301 -0.338448 0.040797
v 0.094524 -0.659949 0.256117
v -0.146063 0.687001 0.256117
v -0.146063 0.657816 0.248818
v 0.078032 0.657816 0.248818
v -0.112526 0.687001 0.256117
v -0.112526 -0.659949 0.256117
v -0.034016 -0.630764 0.248818
v 0.078032 -0.308619 0.248818
v 0.078032 0.335671 0.248818
v 0.094524 0.687001 0.256117
v -0.146063 -0.659949 0.256117
v -0.146063 -0.630764 0.248818
v 0.078032 -0.630764 0.248818
v -0.034016 0.657816 0.248818
v 0.094524 -0.323212 0.256117
v 0.094524 0.350263 0.256117
v 0.078032 -0.322865 0.241693
v 0.078032 -0.616518 0.241693
v 0.059673 0.657816 0.257995
v -0.015657 0.657816 0.257995
v 0.059673 0.589751 0.257995
v -0.015657 0.589751 0.257995
v 0.065054 -0.282778 0.248810
v 0.065054 0.309830 0.248810
v 0.094524 0.013526 0.256117
v 0.065054 0.013526 0.248810
v 0.065054 -0.134626 0.248810
v 0.094524 -0.154843 0.256117
v 0.094524 0.181895 0.256117
v 0.065054 0.161678 0.248810
v 0.051153 -0.282778 0.248810
v 0.051153 0.309830 0.248810
v 0.051153 -0.134626 0.248810
v 0.051153 0.161678 0.248810
v -0.038718 -0.322865 0.241693
v -0.049737 -0.327429 0.239410
v -0.054301 -0.338448 0.233899
v -0.038718 -0.616518 0.241693
v -0.049737 -0.611954 0.239410
v -0.054301 -0.600935 0.233899
v 0.094524 0.687001 0.478659
v -0.146063 -0.659949 0.478659
v -0.146063 -0.630764 0.456770
v 0.078032 -0.630764 0.456770
v -0.034016 0.657816 0.456770
v 0.094524 -0.323212 0.478659
v 0.094524 0.350263 0.478659
v 0.094524 -0.659949 0.478659
v -0.146063 0.687001 0.478659
v -0.146063 0.657816 0.456770
v 0.078032 0.657816 0.456770
v -0.112526 0.687001 0.478659
v -0.112526 -0.659949 0.478659
v -0.034016 -0.630764 0.456770
v 0.078032 -0.308619 0.456770
v 0.078032 0.335671 0.456770
v -0.015657 0.657816 0.447591
v 0.059673 0.657816 0.447591
v -0.015657 0.589751 0.447591
v 0.059673 0.589751 0.447591
v 0.065054 0.309830 0.456770
v 0.065054 -0.282778 0.456770
v 0.065054 0.013526 0.456770
v 0.094524 0.013526 0.478659
v 0.065054 -0.134626 0.456770
v 0.094524 -0.154843 0.478659
v 0.094524 0.181895 0.478659
v 0.065054 0.161678 0.456770
v 0.051153 0.309830 0.456770
v 0.051153 -0.282778 0.456770
v 0.051153 -0.134626 0.456770
v 0.051153 0.161678 0.456770
v 0.094524 -0.659949 -0.189078
v -0.146063 0.687001 -0.189078
v -0.146063 0.657816 -0.167189
v 0.078032 0.657816 -0.167189
v -0.112526 0.687001 -0.189078
v -0.112526 -0.659949 -0.189078
v -0.034016 -0.630764 -0.167189
v 0.078032 -0.308619 -0.167189
v 0.078032 0.335671 -0.167189
v 0.094524 0.687001 -0.189078
v -0.146063 -0.659949 -0.189078
v -0.146063 -0.630764 -0.167189
v 0.078032 -0.630764 -0.167189
v -0.034016 0.657816 -0.167189
v 0.094524 -0.323212 -0.189078
v 0.094524 0.350263 -0.189078
v 0.078032 -0.322865 -0.160066
v 0.078032 -0.616518 -0.160066
v 0.065054 0.309830 -0.167189
v 0.065054 -0.282778 -0.167189
v 0.094524 0.013526 -0.189078
v 0.065054 0.013526 -0.167189
v 0.094524 -0.154843 -0.189078
v 0.065054 -0.134626 -0.167189
v 0.065054 0.161678 -0.167189
v 0.094524 0.181895 -0.189078
v 0.051153 0.309830 -0.167189
v 0.051153 -0.282778 -0.167189
v 0.051153 -0.134626 -0.167189
v 0.051153 0.161678 -0.167189
v -0.038718 -0.322865 -0.160066
v -0.049737 -0.327429 -0.157784
v -0.054301 -0.338448 -0.152275
v -0.038718 -0.616518 -0.160066
v -0.049737 -0.611954 -0.157784
v -0.054301 -0.600935 -0.152275
vn 1.0000 -0.0000 -0.0000
vn -0.0000 -0.0000 1.0000
vn -0.0000 -0.0000 -1.0000
vn -0.0000 -1.0000 -0.0000
vn -0.0000 1.0000 -0.0000
vn -1.0000 -0.0000 -0.0000
vn 0.9751 -0.0000 0.2219
vn 0.1469 -0.0000 -0.9891
vn -0.2210 -0.0000 0.9753
vn 0.2211 -0.0000 -0.9753
vn -0.9753 -0.0000 -0.2211
vn -0.8936 0.4488 -0.0000
vn -0.8936 -0.0000 -0.4488
vn -0.8936 -0.4488 -0.0000
vn -0.8936 -0.0000 0.4488
vn -0.8996 -0.0000 0.4368
vn -0.8996 -0.0000 0.4367
vn -0.3827 -0.0000 -0.9239
vn -0.9239 -0.0000 -0.3827
vn -0.3827 0.9239 -0.0000
vn -0.9239 0.3827 -0.0000
vn -0.3827 -0.9239 -0.0000
vn -0.9239 -0.3827 -0.0000
vn -0.9239 -0.0000 0.3827
vn -0.3827 -0.0000 0.9239
vn -0.8996 -0.0000 -0.4368
vn -0.8995 -0.0000 -0.4369
vt 0.229469 0.102016
vt 0.229469 0.004981
vt 0.261538 0.004981
vt 0.261538 0.102016
vt 0.802562 0.296085
vt 0.802562 0.393120
vt 0.792898 0.393120
vt 0.792898 0.296085
vt 0.664745 0.836070
vt 0.757574 0.836070
vt 0.757574 0.868358
vt 0.664745 0.868358
vt 0.832682 0.500426
vt 0.832682 0.403391
vt 0.892346 0.403391
vt 0.892346 0.500426
vt 0.551231 0.733765
vt 0.551231 0.724101
vt 0.583300 0.724101
vt 0.583300 0.733765
vt 0.229465 0.718027
vt 0.229465 0.658363
vt 0.261534 0.658363
vt 0.261534 0.718027
vt 0.519637 0.106221
vt 0.519637 0.013391
vt 0.528047 0.004981
vt 0.528047 0.102016
vt 0.309869 0.013391
vt 0.279902 0.013391
vt 0.271492 0.004981
vt 0.303561 0.004981
vt 0.489670 0.384710
vt 0.519637 0.384710
vt 0.528047 0.393120
vt 0.495977 0.393120
vt 0.279902 0.291881
vt 0.279902 0.384710
vt 0.271492 0.393120
vt 0.271492 0.296085
vt 0.658740 0.232676
vt 0.751570 0.232676
vt 0.751570 0.262642
vt 0.658740 0.262642
vt 0.540949 0.674723
vt 0.510982 0.674723
vt 0.510982 0.642435
vt 0.540949 0.642435
vt 0.904472 0.214749
vt 0.904472 0.244716
vt 0.872184 0.244716
vt 0.872184 0.214749
vt 0.097808 0.836075
vt 0.004978 0.836075
vt 0.004978 0.803787
vt 0.097808 0.803787
vt 0.229465 0.727691
vt 0.261534 0.727691
vt 0.551231 0.793429
vt 0.583300 0.793429
vt 0.102019 0.646914
vt 0.004985 0.646914
vt 0.004985 0.403384
vt 0.102019 0.403384
vt 0.862226 0.296085
vt 0.862226 0.393120
vt 0.102016 0.889141
vt 0.004981 0.889141
vt 0.004981 0.879477
vt 0.102016 0.879477
vt 0.822178 0.778250
vt 0.820758 0.787810
vt 0.403077 0.887446
vt 0.492126 0.887446
vt 0.492126 0.896471
vt 0.403077 0.896471
vt 0.498992 0.663982
vt 0.500411 0.673541
vt 0.097808 0.868363
vt 0.004978 0.868363
vt 0.936759 0.214749
vt 0.936759 0.244716
vt 0.540949 0.707011
vt 0.510982 0.707011
vt 0.664745 0.803782
vt 0.757574 0.803782
vt 0.237053 0.868363
vt 0.237053 0.836075
vt 0.283468 0.836075
vt 0.283468 0.868363
vt 0.637679 0.887446
vt 0.686196 0.887446
vt 0.686196 0.896471
vt 0.637679 0.896471
vt 0.855010 0.916398
vt 0.626043 0.916398
vt 0.626043 0.907373
vt 0.855010 0.907373
vt 0.862226 0.150533
vt 0.802562 0.150533
vt 0.802562 0.102016
vt 0.862226 0.102016
vt 0.150537 0.646914
vt 0.150537 0.403384
vt 0.237053 0.803787
vt 0.283468 0.803787
vt 0.425605 0.660343
vt 0.403092 0.660343
vt 0.403092 0.645402
vt 0.425605 0.656337
vt 0.279902 0.152636
vt 0.271492 0.150533
vt 0.271492 0.102016
vt 0.279902 0.106221
vt 0.519637 0.152636
vt 0.528047 0.150533
vt 0.832682 0.645979
vt 0.892346 0.645979
vt 0.892346 0.694496
vt 0.832682 0.694496
vt 0.525500 0.836070
vt 0.525500 0.868358
vt 0.479085 0.868358
vt 0.479085 0.836070
vt 0.792898 0.150533
vt 0.792898 0.102016
vt 0.229469 0.247568
vt 0.261538 0.247568
vt 0.261538 0.296086
vt 0.229469 0.296086
vt 0.492484 0.947208
vt 0.515012 0.947208
vt 0.515012 0.962148
vt 0.492484 0.951213
vt 0.229469 0.393120
vt 0.261538 0.393120
vt 0.802562 0.004981
vt 0.792898 0.004981
vt 0.832682 0.791531
vt 0.892346 0.791531
vt 0.376298 0.836075
vt 0.376298 0.803787
vt 0.862226 0.004981
vt 0.393120 0.889141
vt 0.296086 0.889141
vt 0.296086 0.879477
vt 0.393120 0.879477
vt 0.247568 0.889141
vt 0.247568 0.879477
vt 0.376298 0.868363
vt 0.458102 0.642431
vt 0.482723 0.642431
vt 0.482723 0.655560
vt 0.458102 0.655560
vt 0.519637 0.291881
vt 0.528047 0.296086
vt 0.393124 0.646914
vt 0.296089 0.646914
vt 0.296089 0.403384
vt 0.393124 0.403384
vt 0.386255 0.803782
vt 0.479085 0.803782
vt 0.386255 0.836070
vt 0.288099 0.899403
vt 0.377148 0.899403
vt 0.377148 0.908428
vt 0.288099 0.908428
vt 0.165341 0.150533
vt 0.165341 0.102016
vt 0.197400 0.102016
vt 0.197400 0.150533
vt 0.101191 0.150533
vt 0.101191 0.102016
vt 0.133261 0.102016
vt 0.133261 0.150533
vt 0.101191 0.393120
vt 0.101191 0.296086
vt 0.133261 0.296086
vt 0.133261 0.393120
vt 0.660817 0.707011
vt 0.630850 0.707011
vt 0.630850 0.674723
vt 0.660817 0.674723
vt 0.936759 0.094872
vt 0.936759 0.124848
vt 0.904472 0.124848
vt 0.904472 0.094872
vt 0.422943 0.793429
vt 0.422943 0.733765
vt 0.455023 0.733765
vt 0.455023 0.793429
vt 0.101176 0.727691
vt 0.101176 0.718027
vt 0.133256 0.718027
vt 0.133256 0.727691
vt 0.891800 0.337933
vt 0.891800 0.365264
vt 0.872186 0.365264
vt 0.872186 0.337933
vt 0.630850 0.642435
vt 0.660817 0.642435
vt 0.658740 0.112798
vt 0.751570 0.112798
vt 0.751570 0.142775
vt 0.658740 0.142775
vt 0.369802 0.384710
vt 0.399769 0.384710
vt 0.399769 0.393120
vt 0.367700 0.393120
vt 0.429746 0.013391
vt 0.399769 0.013391
vt 0.399769 0.004981
vt 0.431849 0.004981
vt 0.101176 0.658363
vt 0.133256 0.658363
vt 0.422943 0.724101
vt 0.455023 0.724101
vt 0.101191 0.004981
vt 0.133261 0.004981
vt 0.358815 0.733765
vt 0.358815 0.724101
vt 0.390884 0.724101
vt 0.390884 0.733765
vt 0.037048 0.718027
vt 0.037048 0.658363
vt 0.069118 0.658363
vt 0.069118 0.718027
vt 0.489670 0.013391
vt 0.459703 0.013391
vt 0.463908 0.004981
vt 0.495977 0.004981
vt 0.658740 0.052874
vt 0.751570 0.052874
vt 0.751570 0.082841
vt 0.658740 0.082841
vt 0.891800 0.283299
vt 0.891800 0.310621
vt 0.872186 0.310621
vt 0.872186 0.283299
vt 0.037048 0.727691
vt 0.069118 0.727691
vt 0.358815 0.793429
vt 0.390884 0.793429
vt 0.936759 0.034948
vt 0.936759 0.064915
vt 0.904472 0.064915
vt 0.904472 0.034948
vt 0.958805 0.965998
vt 0.958805 0.923307
vt 0.973746 0.923307
vt 0.973746 0.965998
vt 0.555946 0.052874
vt 0.648776 0.052874
vt 0.648776 0.082841
vt 0.555946 0.082841
vt 0.472295 0.714136
vt 0.449782 0.714136
vt 0.449782 0.699196
vt 0.472295 0.710130
vt 0.165341 0.393120
vt 0.165341 0.296086
vt 0.197400 0.296086
vt 0.197400 0.393120
vt 0.600873 0.707011
vt 0.570916 0.707011
vt 0.570916 0.674723
vt 0.600873 0.674723
vt 0.570916 0.642435
vt 0.600873 0.642435
vt 0.429746 0.384710
vt 0.459703 0.384710
vt 0.463908 0.393120
vt 0.431849 0.393120
vt 0.165341 0.004981
vt 0.197400 0.004981
vt 0.037052 0.102016
vt 0.037052 0.004981
vt 0.069122 0.004981
vt 0.069122 0.102016
vt 0.309869 0.384710
vt 0.339836 0.384710
vt 0.335631 0.393120
vt 0.303561 0.393120
vt 0.720750 0.674723
vt 0.690783 0.674723
vt 0.690783 0.642435
vt 0.720750 0.642435
vt 0.720750 0.707011
vt 0.690783 0.707011
vt 0.545991 0.247572
vt 0.545991 0.296089
vt 0.538006 0.296089
vt 0.538006 0.247572
vt 0.037052 0.393120
vt 0.037052 0.296086
vt 0.069122 0.296086
vt 0.069122 0.393120
vt 0.037053 0.150533
vt 0.069122 0.150533
vt 0.936759 0.154815
vt 0.936759 0.184782
vt 0.904472 0.184782
vt 0.904472 0.154815
vt 0.487092 0.793429
vt 0.487092 0.733765
vt 0.519161 0.733765
vt 0.519161 0.793429
vt 0.165326 0.727691
vt 0.165326 0.718027
vt 0.197395 0.718027
vt 0.197395 0.727691
vt 0.872184 0.184782
vt 0.872184 0.154815
vt 0.658740 0.172742
vt 0.751570 0.172742
vt 0.751570 0.202709
vt 0.658740 0.202709
vt 0.369802 0.013391
vt 0.339836 0.013391
vt 0.335631 0.004981
vt 0.367700 0.004981
vt 0.165326 0.658363
vt 0.197395 0.658363
vt 0.487092 0.724101
vt 0.519161 0.724101
vt 0.560051 0.258537
vt 0.644671 0.258537
vt 0.648776 0.262642
vt 0.555946 0.262642
vt 0.644671 0.230623
vt 0.644671 0.202709
vt 0.648776 0.202709
vt 0.648776 0.232676
vt 0.560051 0.172742
vt 0.560051 0.202709
vt 0.555946 0.202709
vt 0.555946 0.172742
vt 0.644671 0.114851
vt 0.644671 0.086946
vt 0.648776 0.112798
vt 0.560051 0.114851
vt 0.560051 0.142775
vt 0.555946 0.142775
vt 0.555946 0.112798
vt 0.560051 0.086946
vt 0.644671 0.172742
vt 0.644671 0.142775
vt 0.648776 0.142775
vt 0.648776 0.172742
vt 0.560051 0.230623
vt 0.555946 0.232676
vt 0.899181 0.010271
vt 0.877474 0.010271
vt 0.872184 0.004981
vt 0.904472 0.004981
vt 0.899181 0.037593
vt 0.877474 0.092227
vt 0.877474 0.119558
vt 0.872184 0.124848
vt 0.872184 0.094872
vt 0.899181 0.119558
vt 0.899181 0.092227
vt 0.899181 0.064915
vt 0.877474 0.037593
vt 0.877474 0.064915
vt 0.872184 0.064915
vt 0.872184 0.034948
vt 0.499226 0.296101
vt 0.499226 0.323431
vt 0.477519 0.323431
vt 0.477519 0.296101
vt 0.499226 0.241466
vt 0.499226 0.268788
vt 0.477519 0.268788
vt 0.477519 0.241466
vt 0.785219 0.580961
vt 0.785219 0.553649
vt 0.804833 0.553649
vt 0.804833 0.580961
vt 0.381680 0.994711
vt 0.359973 0.994711
vt 0.359973 0.975097
vt 0.381680 0.975097
vt 0.785219 0.526327
vt 0.785219 0.499005
vt 0.804833 0.499005
vt 0.804833 0.526327
vt 0.689971 0.973111
vt 0.711678 0.973111
vt 0.711678 0.992724
vt 0.689971 0.992724
vt 0.545991 0.385139
vt 0.538006 0.393124
vt 0.774958 0.385139
vt 0.774958 0.296089
vt 0.782944 0.296089
vt 0.782944 0.393124
vt 0.774958 0.012970
vt 0.545991 0.012970
vt 0.538006 0.004984
vt 0.782944 0.004984
vt 0.774958 0.150537
vt 0.774958 0.102020
vt 0.782944 0.102020
vt 0.782944 0.150537
vt 0.540654 0.403382
vt 0.540654 0.632349
vt 0.492137 0.632349
vt 0.492137 0.403382
vt 0.545991 0.102020
vt 0.538006 0.102020
vt 0.686206 0.403382
vt 0.775256 0.403382
vt 0.775256 0.632349
vt 0.686206 0.632349
vt 0.142546 0.899404
vt 0.142546 0.908428
vt 0.094029 0.908428
vt 0.094029 0.899404
vt 0.403087 0.403382
vt 0.403087 0.632349
vt 0.387115 0.907373
vt 0.616083 0.907373
vt 0.616083 0.916398
vt 0.387115 0.916398
vt 0.004979 0.899404
vt 0.004979 0.908428
vt 0.775246 0.887446
vt 0.775246 0.896471
vt 0.390088 0.839903
vt 0.390088 0.864524
vt 0.386255 0.868357
vt 0.475251 0.839903
vt 0.475251 0.864524
vt 0.926921 0.534857
vt 0.926921 0.620021
vt 0.902300 0.620021
vt 0.902300 0.534857
vt 0.915429 0.630475
vt 0.915429 0.715638
vt 0.902300 0.715638
vt 0.902300 0.630475
vt 0.756595 0.273906
vt 0.756595 0.359069
vt 0.743466 0.359069
vt 0.743466 0.273906
vt 0.809841 0.631652
vt 0.785221 0.631652
vt 0.785221 0.618523
vt 0.809841 0.618523
vt 0.618330 0.803782
vt 0.618330 0.836070
vt 0.991005 0.388423
vt 0.991005 0.418390
vt 0.982672 0.410943
vt 0.982672 0.388423
vt 0.809091 0.947574
vt 0.762676 0.947574
vt 0.770122 0.939241
vt 0.812814 0.939241
vt 0.815673 0.895785
vt 0.785706 0.895785
vt 0.793152 0.887453
vt 0.815673 0.887453
vt 0.945215 0.671008
vt 0.945215 0.717423
vt 0.936883 0.709977
vt 0.936883 0.667285
vt 0.052284 0.947574
vt 0.005869 0.947574
vt 0.013315 0.939242
vt 0.056007 0.939242
vt 0.223379 0.989410
vt 0.193402 0.989410
vt 0.200849 0.981077
vt 0.223377 0.981077
vt 0.940096 0.773399
vt 0.940096 0.726984
vt 0.948429 0.734431
vt 0.948429 0.777123
vt 0.990765 0.649383
vt 0.990765 0.679340
vt 0.982432 0.671894
vt 0.982432 0.649381
vt 0.145114 0.919320
vt 0.191529 0.919320
vt 0.184082 0.927653
vt 0.141391 0.927653
vt 0.980072 0.585636
vt 0.980072 0.555669
vt 0.988404 0.563115
vt 0.988404 0.585636
vt 0.721032 0.927289
vt 0.767447 0.927289
vt 0.760001 0.935622
vt 0.717309 0.935622
vt 0.989345 0.519899
vt 0.989345 0.549866
vt 0.981012 0.542419
vt 0.981012 0.519899
vt 0.625011 0.129460
vt 0.625011 0.099493
vt 0.633344 0.106940
vt 0.633344 0.129460
vt 0.242084 0.929646
vt 0.195669 0.929646
vt 0.203115 0.921313
vt 0.245807 0.921313
vt 0.980891 0.454160
vt 0.980891 0.424193
vt 0.989223 0.431640
vt 0.989223 0.454160
vt 0.436619 0.935621
vt 0.390204 0.935621
vt 0.397651 0.927288
vt 0.440342 0.927288
vt 0.529449 0.935621
vt 0.483034 0.935621
vt 0.483034 0.927288
vt 0.525726 0.927288
vt 0.334914 0.929646
vt 0.288499 0.929646
vt 0.288499 0.921313
vt 0.331191 0.921313
vt 0.628202 0.927289
vt 0.674617 0.927289
vt 0.674617 0.935622
vt 0.631926 0.935622
vt 0.052284 0.919320
vt 0.098699 0.919320
vt 0.098699 0.927653
vt 0.056007 0.927653
vt 0.940096 0.866229
vt 0.940096 0.819814
vt 0.948429 0.819814
vt 0.948429 0.862506
vt 0.145114 0.947574
vt 0.098699 0.947574
vt 0.098699 0.939242
vt 0.141390 0.939242
vt 0.945215 0.578178
vt 0.945215 0.624593
vt 0.936883 0.624593
vt 0.936883 0.581901
vt 0.901921 0.947574
vt 0.855506 0.947574
vt 0.855506 0.939241
vt 0.898198 0.939241
vt 0.525500 0.803782
vt 0.571915 0.803782
vt 0.571915 0.836070
vt 0.239581 0.899403
vt 0.239581 0.908428
vt 0.191064 0.908428
vt 0.191064 0.899404
vt 0.637689 0.403382
vt 0.637689 0.632349
vt 0.589172 0.632349
vt 0.589172 0.403382
vt 0.774958 0.247572
vt 0.774958 0.199054
vt 0.782944 0.199054
vt 0.782944 0.247572
vt 0.037052 0.247568
vt 0.037052 0.199051
vt 0.069122 0.199051
vt 0.069122 0.247568
vt 0.545991 0.150537
vt 0.545991 0.199054
vt 0.538006 0.199054
vt 0.538006 0.150537
vt 0.090360 0.760564
vt 0.090360 0.783085
vt 0.047669 0.783085
vt 0.047669 0.760564
vt 0.100314 0.760566
vt 0.143006 0.760566
vt 0.143006 0.783086
vt 0.100314 0.783086
vt 0.101191 0.247568
vt 0.101191 0.199051
vt 0.133261 0.199051
vt 0.133261 0.247568
vt 0.165341 0.247568
vt 0.165341 0.199051
vt 0.197400 0.199051
vt 0.197400 0.247568
vt 0.150533 0.889141
vt 0.150533 0.879477
vt 0.199051 0.879477
vt 0.199051 0.889141
vt 0.592538 0.098606
vt 0.592538 0.141297
vt 0.570010 0.141297
vt 0.570010 0.098606
vt 0.229469 0.150533
vt 0.261538 0.150533
vt 0.261538 0.199051
vt 0.229469 0.199051
vt 0.802562 0.247568
vt 0.792898 0.247568
vt 0.792898 0.199051
vt 0.802562 0.199051
vt 0.618330 0.868358
vt 0.571915 0.868358
vt 0.832682 0.548943
vt 0.892346 0.548943
vt 0.892346 0.597461
vt 0.832682 0.597461
vt 0.519637 0.245466
vt 0.519637 0.199051
vt 0.528047 0.199051
vt 0.528047 0.247568
vt 0.279902 0.245466
vt 0.271492 0.247568
vt 0.271492 0.199051
vt 0.279902 0.199051
vt 0.783204 0.727810
vt 0.760683 0.727810
vt 0.760683 0.685118
vt 0.783204 0.685118
vt 0.144223 0.836075
vt 0.144223 0.803787
vt 0.190638 0.803787
vt 0.190638 0.836075
vt 0.247572 0.646914
vt 0.199055 0.646914
vt 0.199055 0.403384
vt 0.247572 0.403384
vt 0.862226 0.247568
vt 0.862226 0.199051
vt 0.540644 0.887446
vt 0.589161 0.887446
vt 0.589161 0.896471
vt 0.540644 0.896471
vt 0.144223 0.868363
vt 0.190638 0.868363
vt 0.668425 0.769921
vt 0.690946 0.769921
vt 0.690946 0.784861
vt 0.668425 0.773927
vt 0.973323 0.869518
vt 0.973323 0.912210
vt 0.958383 0.912210
vt 0.958383 0.869518
vt 0.945215 0.531763
vt 0.936883 0.539210
vt 0.191529 0.947574
vt 0.184082 0.939242
vt 0.005869 0.919320
vt 0.013315 0.927653
vt 0.575864 0.935621
vt 0.568418 0.927288
vt 0.004977 0.783085
vt 0.004977 0.760564
vt 0.760683 0.642426
vt 0.783204 0.642426
vt 0.946722 0.139058
vt 0.946722 0.116538
vt 0.961662 0.116538
vt 0.950728 0.139058
vt 0.946724 0.083282
vt 0.946724 0.060762
vt 0.961664 0.060762
vt 0.950729 0.083282
vt 0.948336 0.947574
vt 0.940889 0.939241
vt 0.940096 0.912644
vt 0.948429 0.905198
vt 0.581787 0.927289
vt 0.589234 0.935622
vt 0.381329 0.929646
vt 0.373882 0.921313
vt 0.185698 0.760566
vt 0.185698 0.783086
vt 0.592538 0.183989
vt 0.570010 0.183989
vt 0.630050 0.236918
vt 0.605015 0.236918
vt 0.605015 0.194226
vt 0.630050 0.194226
vt 0.271497 0.658369
vt 0.314189 0.658369
vt 0.314189 0.683410
vt 0.271497 0.683410
vt 0.970932 0.439243
vt 0.970932 0.481935
vt 0.945897 0.481935
vt 0.945897 0.439243
vt 0.970942 0.406233
vt 0.945908 0.406233
vt 0.945908 0.363541
vt 0.970942 0.363541
vt 0.593257 0.757969
vt 0.635949 0.757969
vt 0.635949 0.783010
vt 0.593257 0.783010
vt 0.970941 0.309756
vt 0.970941 0.352448
vt 0.945906 0.352448
vt 0.945906 0.309756
vt 0.290999 0.742035
vt 0.290999 0.767070
vt 0.248307 0.767070
vt 0.248307 0.742035
vt 0.927338 0.768787
vt 0.902303 0.768787
vt 0.902303 0.726095
vt 0.927338 0.726095
vt 0.602493 0.965127
vt 0.579972 0.965127
vt 0.579972 0.950187
vt 0.602493 0.961121
vt 0.973330 0.708169
vt 0.973330 0.750861
vt 0.958390 0.750861
vt 0.958390 0.708169
vt 0.657485 0.947214
vt 0.680012 0.947214
vt 0.680012 0.962155
vt 0.657485 0.951220
vt 0.787218 0.738049
vt 0.809738 0.738049
vt 0.809738 0.752989
vt 0.787218 0.742055
vt 0.973330 0.761953
vt 0.973330 0.804645
vt 0.958390 0.804645
vt 0.958390 0.761953
vt 0.004983 0.959159
vt 0.047674 0.959159
vt 0.047674 0.974100
vt 0.004983 0.974100
vt 0.946723 0.194835
vt 0.946723 0.172315
vt 0.961663 0.172315
vt 0.950729 0.194835
vt 0.958391 0.858425
vt 0.958391 0.815734
vt 0.973331 0.815734
vt 0.973331 0.858425
vt 0.970114 0.546818
vt 0.970114 0.589509
vt 0.955173 0.589509
vt 0.955173 0.546818
vt 0.970108 0.600601
vt 0.970108 0.643293
vt 0.955168 0.643293
vt 0.955168 0.600601
vt 0.970114 0.654387
vt 0.970114 0.697078
vt 0.955173 0.697078
vt 0.955173 0.654387
vt 0.716909 0.722107
vt 0.739429 0.722107
vt 0.739429 0.737047
vt 0.716909 0.726112
vt 0.547487 0.947208
vt 0.570008 0.947208
vt 0.570008 0.962148
vt 0.547487 0.951214
vt 0.437489 0.965125
vt 0.414969 0.965125
vt 0.414969 0.950185
vt 0.437489 0.961120
vt 0.110278 0.959161
vt 0.152970 0.959161
vt 0.152970 0.974101
vt 0.110278 0.974101
vt 0.955171 0.535723
vt 0.955171 0.493031
vt 0.970112 0.493031
vt 0.970112 0.535723
vt 0.742619 0.959161
vt 0.785311 0.959161
vt 0.785311 0.974101
vt 0.742619 0.974101
vt 0.795268 0.959161
vt 0.837960 0.959161
vt 0.837960 0.974101
vt 0.795268 0.974101
vt 0.689969 0.947209
vt 0.732661 0.947209
vt 0.732661 0.962149
vt 0.689969 0.962149
vt 0.238346 0.792825
vt 0.195654 0.792825
vt 0.195654 0.777885
vt 0.238346 0.777885
vt 0.314025 0.754596
vt 0.314025 0.777116
vt 0.299084 0.777116
vt 0.310019 0.754596
vt 0.382488 0.965123
vt 0.359968 0.965123
vt 0.359968 0.950183
vt 0.382488 0.961117
vt 0.057631 0.959161
vt 0.100323 0.959161
vt 0.100323 0.974101
vt 0.057631 0.974101
vt 0.946730 0.027505
vt 0.946730 0.004985
vt 0.961670 0.004985
vt 0.950735 0.027505
vt 0.987983 0.091855
vt 0.987983 0.007235
vt 0.991420 0.008550
vt 0.991420 0.090539
vt 0.822298 0.635353
vt 0.822298 0.717342
vt 0.818862 0.714166
vt 0.818862 0.638528
vt 0.435785 0.369525
vt 0.463699 0.369525
vt 0.462384 0.372962
vt 0.435127 0.372962
vt 0.978024 0.147571
vt 0.978024 0.174828
vt 0.974587 0.171653
vt 0.974587 0.145984
vt 0.761522 0.110961
vt 0.761522 0.080994
vt 0.764959 0.080994
vt 0.764959 0.110961
vt 0.980894 0.269629
vt 0.980894 0.239661
vt 0.984331 0.239661
vt 0.984331 0.269629
vt 0.320013 0.369525
vt 0.347936 0.369525
vt 0.347936 0.372962
vt 0.320671 0.372962
vt 0.978024 0.033115
vt 0.978024 0.060381
vt 0.974587 0.060381
vt 0.974587 0.034703
vt 0.761522 0.053071
vt 0.761522 0.025166
vt 0.764959 0.026481
vt 0.764959 0.053729
vt 0.980894 0.212396
vt 0.980894 0.185148
vt 0.984331 0.188323
vt 0.984331 0.213984
vt 0.990321 0.180295
vt 0.990321 0.104657
vt 0.993757 0.101481
vt 0.993757 0.183471
vt 0.815467 0.582569
vt 0.815467 0.500580
vt 0.818904 0.499265
vt 0.818904 0.583885
vt 0.377904 0.369525
vt 0.407870 0.369525
vt 0.407870 0.372962
vt 0.377904 0.372962
vt 0.978024 0.090348
vt 0.978024 0.120315
vt 0.974587 0.120315
vt 0.974587 0.090348
vt 0.761522 0.168842
vt 0.761522 0.140928
vt 0.764959 0.140928
vt 0.764959 0.168185
vt 0.980894 0.326852
vt 0.980894 0.299595
vt 0.984331 0.299595
vt 0.984331 0.325264
vt 0.848836 0.877434
vt 0.848836 0.801795
vt 0.878803 0.801795
vt 0.878803 0.877434
vt 0.375654 0.325698
vt 0.405621 0.325698
vt 0.405621 0.359341
vt 0.375654 0.359341
vt 0.793191 0.877434
vt 0.793191 0.801795
vt 0.818869 0.801795
vt 0.818869 0.877434
vt 0.317764 0.325698
vt 0.345687 0.325698
vt 0.345687 0.359341
vt 0.317764 0.359341
vt 0.902304 0.341775
vt 0.902304 0.311808
vt 0.935947 0.311808
vt 0.935947 0.341775
vt 0.902304 0.283884
vt 0.902304 0.255979
vt 0.935947 0.255979
vt 0.935947 0.283884
vt 0.904472 0.877434
vt 0.904472 0.801795
vt 0.930141 0.801795
vt 0.930141 0.877434
vt 0.433535 0.325698
vt 0.461450 0.325698
vt 0.461450 0.359341
vt 0.433535 0.359341
vt 0.902304 0.399656
vt 0.902304 0.371742
vt 0.935947 0.371742
vt 0.935947 0.399656
vt 0.902297 0.523866
vt 0.902297 0.439246
vt 0.935940 0.439246
vt 0.935940 0.523866
vt 0.785217 0.488003
vt 0.785217 0.403383
vt 0.818860 0.403383
vt 0.818860 0.488003
vt 0.946730 0.050026
vt 0.961670 0.050026
vt 0.946723 0.217356
vt 0.961663 0.217356
vt 0.864972 0.887451
vt 0.907663 0.887451
vt 0.907663 0.912486
vt 0.864972 0.912486
vt 0.254662 0.941232
vt 0.297354 0.941232
vt 0.297354 0.966267
vt 0.254662 0.966267
vt 0.143006 0.738045
vt 0.185698 0.738045
vt 0.946724 0.105803
vt 0.961664 0.105803
vt 0.946722 0.161579
vt 0.961662 0.161579
vt 0.100314 0.738045
vt 0.989345 0.489932
vt 0.981012 0.497378
vt 0.980072 0.615603
vt 0.988404 0.608156
vt 0.289859 0.325698
vt 0.289859 0.359341
vt 0.767531 0.877434
vt 0.767531 0.801795
vt 0.978024 0.005868
vt 0.974587 0.009043
vt 0.292108 0.369525
vt 0.293423 0.372962
vt 0.634972 0.947214
vt 0.634972 0.962155
vt 0.307316 0.941233
vt 0.350008 0.941233
vt 0.350008 0.966261
vt 0.307316 0.966261
vt 0.202005 0.941233
vt 0.244696 0.941233
vt 0.244696 0.966261
vt 0.202005 0.966261
vt 0.615050 0.141297
vt 0.615051 0.183989
vt 0.615050 0.098606
vt 0.990765 0.619407
vt 0.982432 0.626853
vt 0.253336 0.989410
vt 0.245889 0.981077
vt 0.785219 0.608292
vt 0.804833 0.608292
vt 0.494823 0.714136
vt 0.494823 0.699196
vt 0.469971 0.947208
vt 0.469971 0.962148
vt 0.448133 0.660343
vt 0.448133 0.645402
vt 0.314025 0.732076
vt 0.299084 0.732076
vt 0.460009 0.965125
vt 0.460009 0.950185
vt 0.694388 0.722107
vt 0.694388 0.737047
vt 0.764697 0.738049
vt 0.764697 0.752989
vt 0.238350 0.742037
vt 0.238350 0.767071
vt 0.195658 0.767071
vt 0.195658 0.742037
vt 0.595048 0.236918
vt 0.570014 0.236918
vt 0.570014 0.194227
vt 0.595048 0.194227
vt 0.047669 0.738044
vt 0.004977 0.738044
vt 0.090360 0.738044
vt 0.980891 0.484127
vt 0.989223 0.476681
vt 0.625011 0.159427
vt 0.633344 0.151981
vt 0.499226 0.214144
vt 0.477519 0.214144
vt 0.555946 0.022907
vt 0.648776 0.022907
vt 0.936759 0.004981
vt 0.326745 0.793429
vt 0.326745 0.733765
vt 0.004979 0.727691
vt 0.004979 0.718027
vt 0.891800 0.255977
vt 0.872186 0.255977
vt 0.658740 0.022907
vt 0.751570 0.022907
vt 0.004979 0.658363
vt 0.326745 0.724101
vt 0.902304 0.427570
vt 0.935947 0.427570
vt 0.980894 0.354109
vt 0.984331 0.350934
vt 0.761522 0.196756
vt 0.764959 0.195441
vt 0.405009 0.965123
vt 0.405009 0.950183
vt 0.524967 0.947208
vt 0.524967 0.962148
vt 0.625013 0.965127
vt 0.625013 0.950187
vt 0.366848 0.658369
vt 0.366848 0.683403
vt 0.324156 0.683403
vt 0.324156 0.658369
vt 0.970942 0.298664
vt 0.945908 0.298664
vt 0.945908 0.255973
vt 0.970942 0.255973
vt 0.004983 0.199051
vt 0.004983 0.150533
vt 0.805724 0.685118
vt 0.805724 0.642426
vt 0.004983 0.296086
vt 0.004983 0.247568
vt 0.645905 0.769921
vt 0.645905 0.784861
vt 0.805724 0.727810
vt 0.845640 0.895785
vt 0.838193 0.887453
vt 0.991005 0.358456
vt 0.982672 0.365903
vt 0.004983 0.102016
vt 0.004983 0.393120
vt 0.750717 0.707011
vt 0.750717 0.674723
vt 0.750717 0.642435
vt 0.004983 0.004981
s 1
f 655/401/201 649/402/201 260/403/201 301/404/201
f 309/405/202 274/406/202 265/407/202 302/408/202
f 298/409/202 281/410/202 362/411/202 361/412/202
f 308/413/203 276/414/203 258/415/203 299/416/203
f 686/417/204 691/418/204 382/419/204 275/420/204
f 685/421/205 690/422/205 258/423/205 276/424/205
f 288/425/206 263/426/206 266/427/206 286/428/206
f 692/429/206 261/430/206 382/431/206 691/432/206
f 658/433/206 264/434/206 265/435/206 657/436/206
f 305/437/206 262/438/206 385/439/206 387/440/206
f 689/441/206 684/442/206 397/443/206 400/444/206
f 662/445/205 283/446/205 270/447/205 652/448/205
f 694/449/204 398/450/204 397/451/204 684/452/204
f 312/453/203 370/454/203 369/455/203 306/456/203
f 682/457/205 685/421/205 276/424/205 385/458/205
f 681/459/204 686/417/204 275/420/204 257/460/204
f 292/461/207 275/462/207 279/463/207 295/464/207
f 301/465/202 260/466/202 274/406/202 309/405/202
f 388/467/208 386/468/208 280/469/208 311/470/208
f 275/420/204 382/419/204 384/471/204 279/472/204
f 277/473/209 310/474/209 392/475/209 396/476/209
f 385/458/205 276/424/205 280/477/205 386/478/205
f 304/479/203 264/480/203 370/454/203 312/453/203
f 683/481/204 262/482/204 398/450/204 694/449/204
f 651/483/205 263/484/205 283/446/205 662/445/205
f 289/485/202 261/486/202 281/410/202 298/409/202
f 456/487/203 464/488/203 296/489/203 288/490/203
f 472/491/209 294/492/209 390/493/209 474/494/209
f 278/495/205 267/496/205 393/497/205 394/498/205
f 453/499/202 461/500/202 293/501/202 285/502/202
f 460/503/207 292/461/207 295/464/207 463/504/207
f 464/488/203 458/505/203 290/506/203 296/489/203
f 631/507/204 409/508/204 524/509/204 639/510/204
f 457/511/206 455/512/206 381/513/206 289/514/206
f 456/515/206 288/425/206 286/428/206 454/516/206
f 460/517/203 483/518/203 297/519/203 292/520/203
f 486/521/202 493/522/202 400/523/202 399/524/202
f 461/500/202 454/525/202 286/526/202 293/501/202
f 674/527/201 453/528/201 285/529/201 654/530/201
f 635/531/205 478/532/205 528/533/205 641/534/205
f 656/535/201 654/530/201 285/529/201 259/536/201
f 273/537/202 293/501/202 286/526/202 266/538/202
f 275/539/203 292/520/203 297/519/203 257/540/203
f 261/430/206 289/514/206 381/513/206 382/431/206
f 283/541/203 296/489/203 290/506/203 270/542/203
f 259/543/202 285/502/202 293/501/202 273/537/202
f 384/544/208 383/545/208 295/546/208 279/547/208
f 462/548/208 463/549/208 295/546/208 383/545/208
f 263/550/203 288/490/203 296/489/203 283/541/203
f 300/551/204 307/552/204 404/553/204 403/554/204
f 264/434/206 304/555/206 302/556/206 265/435/206
f 276/557/207 308/558/207 311/559/207 280/560/207
f 262/561/202 305/562/202 399/524/202 398/563/202
f 303/564/210 268/565/210 395/566/210 391/567/210
f 637/568/201 624/569/201 335/570/201 502/571/201
f 598/572/201 579/573/201 328/574/201 499/575/201
f 580/576/201 578/577/201 325/578/201 313/579/201
f 575/580/205 317/581/205 324/582/205 586/583/205
f 611/584/204 318/585/204 374/586/204 622/587/204
f 609/588/204 614/589/204 322/590/204 313/591/204
f 610/592/205 613/593/205 321/594/205 316/595/205
f 628/596/206 323/597/206 380/598/206 630/599/206
f 586/583/205 324/582/205 365/600/205 576/601/205
f 617/602/206 612/603/206 373/604/206 327/605/206
f 582/606/206 318/607/206 316/608/206 581/609/206
f 620/610/206 317/611/206 315/612/206 619/613/206
f 613/593/205 618/614/205 314/615/205 321/594/205
f 614/589/204 619/616/204 315/617/204 322/590/204
f 579/573/201 573/618/201 314/619/201 328/574/201
f 661/620/204 650/621/204 330/622/204 341/623/204
f 660/624/205 649/625/205 329/626/205 340/627/205
f 651/628/206 331/629/206 330/630/206 650/631/206
f 664/632/206 659/633/206 372/634/206 344/635/206
f 665/636/206 333/637/206 375/638/206 667/639/206
f 657/640/205 660/624/205 340/627/205 337/641/205
f 656/642/204 661/620/204 341/623/204 336/643/204
f 658/644/204 338/645/204 371/646/204 653/647/204
f 409/648/202 477/649/202 523/650/202 524/651/202
f 652/652/206 663/653/206 366/654/206 368/655/206
f 638/656/204 511/657/204 543/658/204 642/659/204
f 609/660/201 623/661/201 334/662/201 336/663/201
f 620/664/205 331/665/205 342/666/205 615/667/205
f 615/667/205 342/666/205 368/668/205 621/669/205
f 611/670/206 338/671/206 337/672/206 610/673/206
f 624/569/201 618/674/201 329/675/201 335/570/201
f 696/676/201 690/677/201 354/678/201 360/679/201
f 683/680/206 347/681/206 346/682/206 682/683/206
f 687/684/205 351/685/205 364/686/205 693/687/205
f 692/688/205 356/689/205 351/685/205 687/684/205
f 471/690/211 287/691/211 381/692/211 455/693/211
f 681/694/201 695/695/201 359/696/201 345/697/201
f 706/698/201 696/676/201 360/679/201 503/699/201
f 582/700/204 347/701/204 358/702/204 577/703/204
f 580/704/204 585/705/204 350/706/204 345/707/204
f 581/708/205 584/709/205 349/710/205 346/711/205
f 577/703/204 358/702/204 348/712/204 583/713/204
f 588/714/206 583/715/206 348/716/206 353/717/206
f 575/718/206 356/719/206 355/720/206 574/721/206
f 584/709/205 573/722/205 354/723/205 349/710/205
f 585/705/204 574/724/204 355/725/204 350/706/204
f 271/726/206 291/727/206 361/728/206 362/729/206
f 697/730/206 352/731/206 363/732/206 688/733/206
f 589/734/206 357/735/206 364/736/206 576/737/206
f 625/738/206 343/739/206 366/654/206 616/740/206
f 626/741/206 319/742/206 365/743/206 621/744/206
f 343/739/206 332/745/206 368/655/206 366/654/206
f 590/746/206 326/747/206 367/748/206 587/749/206
f 698/750/206 271/726/206 362/729/206 693/751/206
f 284/752/204 269/753/204 369/754/204 370/755/204
f 665/756/204 284/752/204 370/755/204 653/647/204
f 627/757/204 320/758/204 373/759/204 612/760/204
f 320/758/204 323/761/204 374/586/204 373/759/204
f 628/762/204 333/763/204 371/646/204 622/587/204
f 666/764/204 339/765/204 372/766/204 659/767/204
f 630/768/204 380/769/204 379/770/204 629/771/204
f 667/772/204 375/773/204 376/774/204 668/775/204
f 627/776/201 339/777/201 376/778/201 629/779/201
f 269/780/202 284/781/202 378/782/202 377/783/202
f 666/784/201 269/785/201 377/786/201 668/787/201
f 323/788/203 320/789/203 379/790/203 380/791/203
f 287/691/211 267/792/211 382/793/211 381/692/211
f 278/794/211 294/795/211 383/796/211 384/797/211
f 267/792/211 278/794/211 384/797/211 382/793/211
f 277/798/211 268/799/211 385/800/211 386/801/211
f 506/802/211 310/803/211 388/804/211 496/805/211
f 473/806/211 474/807/211 390/808/211 389/809/211
f 268/799/211 303/810/211 387/811/211 385/800/211
f 310/803/211 277/798/211 386/801/211 388/804/211
f 391/812/211 395/813/211 396/814/211 392/815/211
f 471/816/210 473/817/210 389/818/210 287/819/210
f 393/820/211 389/809/211 390/808/211 394/821/211
f 268/822/204 277/823/204 396/824/204 395/825/204
f 267/826/210 287/819/210 389/818/210 393/827/210
f 294/492/209 278/828/209 394/829/209 390/493/209
f 282/830/202 272/831/202 397/832/202 398/563/202
f 300/833/202 282/830/202 398/563/202 399/524/202
f 272/831/202 307/834/202 400/523/202 397/832/202
f 307/834/202 300/833/202 399/524/202 400/523/202
f 402/835/202 403/836/202 404/837/202 401/838/202
f 282/839/206 300/840/206 403/841/206 402/842/206
f 307/843/201 272/844/201 401/845/201 404/846/201
f 272/847/205 282/848/205 402/849/205 401/850/205
f 457/851/202 289/485/202 298/409/202 484/852/202
f 689/853/212 400/854/212 406/855/212 699/856/212
f 459/857/213 361/858/213 407/859/213 476/860/213
f 688/861/214 363/862/214 408/863/214 700/864/214
f 504/865/215 353/866/215 405/867/215 509/868/215
f 501/869/215 344/870/215 410/871/215 511/872/215
f 617/873/212 327/874/212 411/875/212 632/876/212
f 466/877/213 367/878/213 412/879/213 478/880/213
f 616/881/214 366/882/214 409/883/214 631/884/214
f 500/885/215 327/886/215 414/887/215 513/888/215
f 588/889/212 353/890/212 415/891/212 592/892/212
f 470/893/213 363/894/213 416/895/213 480/896/213
f 587/897/214 367/898/214 413/899/214 591/900/214
f 664/901/212 344/902/212 418/903/212 669/904/212
f 467/905/213 366/906/213 419/907/213 482/908/213
f 663/909/214 290/910/214 420/911/214 670/912/214
f 492/913/215 306/914/215 417/915/215 515/916/215
f 458/917/215 426/918/215 451/919/215 481/920/215
f 501/921/213 437/922/213 452/923/213 516/924/213
f 504/925/213 440/926/213 450/927/213 514/928/213
f 466/929/215 436/930/215 449/931/215 479/932/215
f 500/933/213 436/934/213 448/935/213 512/936/213
f 467/937/215 437/938/215 447/939/215 477/940/215
f 470/941/215 440/942/215 445/943/215 475/944/215
f 493/945/213 427/946/213 446/947/213 510/948/213
f 491/949/202 425/950/202 434/951/202 486/521/202
f 505/952/210 507/953/210 443/954/210 441/955/210
f 507/956/211 508/957/211 444/958/211 443/959/211
f 472/960/211 442/961/211 430/962/211 462/963/211
f 703/964/201 701/965/201 439/966/201 469/967/201
f 505/968/211 441/969/211 423/970/211 489/971/211
f 676/972/206 516/973/206 452/974/206 671/975/206
f 596/976/206 593/977/206 450/978/206 480/979/206
f 595/980/201 594/981/201 435/982/201 465/983/201
f 636/984/201 633/985/201 438/986/201 468/987/201
f 496/988/208 497/989/208 431/990/208 430/991/208
f 635/992/206 634/993/206 448/994/206 478/995/206
f 675/996/201 487/997/201 421/998/201 672/999/201
f 495/1000/202 488/1001/202 422/1002/202 429/1003/202
f 484/852/202 459/1004/202 427/1005/202 434/951/202
f 494/1006/203 485/1007/203 433/1008/203 428/1009/203
f 490/1010/206 424/1011/206 422/1012/206 488/1013/206
f 491/1014/206 489/1015/206 423/1016/206 425/1017/206
f 705/1018/206 510/1019/206 446/1020/206 702/1021/206
f 498/1022/203 492/1023/203 426/1024/203 432/1025/203
f 494/1026/207 428/1027/207 431/1028/207 497/1029/207
f 487/1030/202 495/1000/202 429/1003/202 421/1031/202
f 506/1032/209 442/1033/209 444/1034/209 508/1035/209
f 490/1036/203 498/1022/203 432/1025/203 424/1037/203
f 298/409/202 361/412/202 459/1004/202 484/852/202
f 704/1038/205 476/1039/205 521/1040/205 709/1041/205
f 623/661/201 636/984/201 468/987/201 334/662/201
f 578/577/201 595/980/201 465/983/201 325/578/201
f 480/1042/203 416/1043/203 531/1044/203 534/1045/203
f 695/695/201 703/964/201 469/967/201 359/696/201
f 294/795/211 472/960/211 462/963/211 383/796/211
f 363/1046/215 470/941/215 475/944/215 408/1047/215
f 366/1048/215 467/937/215 477/940/215 409/1049/215
f 367/1050/215 466/929/215 479/932/215 413/1051/215
f 290/1052/215 458/917/215 481/920/215 420/1053/215
f 437/922/213 467/905/213 482/908/213 452/923/213
f 440/926/213 470/893/213 480/896/213 450/927/213
f 436/934/213 466/877/213 478/880/213 448/935/213
f 427/946/213 459/857/213 476/860/213 446/947/213
f 425/950/202 457/851/202 484/852/202 434/951/202
f 441/955/210 443/954/210 473/817/210 471/816/210
f 443/959/211 444/958/211 474/807/211 473/806/211
f 441/969/211 471/690/211 455/693/211 423/970/211
f 671/975/206 452/974/206 482/1054/206 673/1055/206
f 430/991/208 431/990/208 463/549/208 462/548/208
f 672/999/201 421/998/201 453/528/201 674/527/201
f 429/1003/202 422/1002/202 454/525/202 461/500/202
f 428/1009/203 433/1008/203 483/518/203 460/517/203
f 424/1011/206 456/515/206 454/516/206 422/1012/206
f 425/1017/206 423/1016/206 455/512/206 457/511/206
f 702/1021/206 446/1020/206 476/1056/206 704/1057/206
f 432/1025/203 426/1024/203 458/505/203 464/488/203
f 428/1027/207 460/503/207 463/504/207 431/1028/207
f 421/1031/202 429/1003/202 461/500/202 453/499/202
f 442/1033/209 472/491/209 474/494/209 444/1034/209
f 424/1037/203 432/1025/203 464/488/203 456/487/203
f 304/479/203 312/453/203 498/1022/203 490/1036/203
f 310/474/209 506/1032/209 508/1035/209 392/475/209
f 301/465/202 309/405/202 495/1000/202 487/1030/202
f 308/558/207 494/1026/207 497/1029/207 311/559/207
f 312/453/203 306/456/203 492/1023/203 498/1022/203
f 592/1058/205 415/1059/205 533/1060/205 600/1061/205
f 305/437/206 387/440/206 489/1015/206 491/1014/206
f 304/555/206 490/1010/206 488/1013/206 302/556/206
f 308/413/203 299/416/203 485/1007/203 494/1006/203
f 309/405/202 302/408/202 488/1001/202 495/1000/202
f 655/401/201 301/404/201 487/997/201 675/996/201
f 388/467/208 311/470/208 497/989/208 496/988/208
f 597/1062/204 513/1063/204 545/1064/204 602/1065/204
f 303/810/211 505/968/211 489/971/211 387/811/211
f 391/812/211 392/815/211 508/957/211 507/956/211
f 303/564/210 391/567/210 507/953/210 505/952/210
f 305/562/202 491/949/202 486/521/202 399/524/202
f 400/1066/213 493/945/213 510/948/213 406/1067/213
f 327/1068/213 500/933/213 512/936/213 411/1069/213
f 353/1070/213 504/925/213 514/928/213 415/1071/213
f 344/1072/213 501/921/213 516/924/213 418/1073/213
f 426/918/215 492/913/215 515/916/215 451/919/215
f 436/930/215 500/885/215 513/888/215 449/931/215
f 437/938/215 501/869/215 511/872/215 447/939/215
f 440/942/215 504/865/215 509/868/215 445/943/215
f 442/961/211 506/802/211 496/805/211 430/962/211
f 701/965/201 706/698/201 503/699/201 439/966/201
f 593/977/206 597/1074/206 514/1075/206 450/978/206
f 594/981/201 598/572/201 499/575/201 435/982/201
f 633/985/201 637/568/201 502/571/201 438/986/201
f 634/993/206 638/1076/206 512/1077/206 448/994/206
f 434/951/202 427/1005/202 493/522/202 486/521/202
f 709/1078/216 521/1079/216 522/1080/216 708/1081/216
f 642/1082/217 640/1083/217 527/1084/217 544/1085/217
f 602/1086/216 600/1087/216 533/1088/216 546/1089/216
f 679/1090/216 539/1091/216 540/1092/216 678/1093/216
f 639/1094/217 641/1095/217 528/1096/217 525/1097/217
f 599/1098/216 601/1099/216 534/1100/216 531/1101/216
f 707/1102/216 518/1103/216 542/1104/216 710/1105/216
f 677/1106/216 536/1107/216 548/1108/216 680/1109/216
f 705/1110/204 509/1111/204 541/1112/204 710/1113/204
f 509/1114/202 405/1115/202 517/1116/202 541/1117/202
f 632/1118/205 411/1119/205 527/1120/205 640/1121/205
f 669/1122/205 418/1123/205 536/1124/205 677/1125/205
f 406/1126/203 510/1127/203 542/1128/203 518/1129/203
f 478/1130/203 412/1131/203 525/1132/203 528/1133/203
f 596/1134/205 480/1135/205 534/1136/205 601/1137/205
f 420/1138/202 481/1139/202 537/1140/202 538/1141/202
f 511/1142/202 410/1143/202 526/1144/202 543/1145/202
f 482/1146/203 419/1147/203 540/1148/203 539/1149/203
f 411/1150/203 512/1151/203 544/1152/203 527/1153/203
f 673/1154/205 482/1155/205 539/1156/205 679/1157/205
f 699/1158/205 406/1159/205 518/1160/205 707/1161/205
f 670/1162/204 420/1163/204 538/1164/204 678/1165/204
f 513/1166/202 414/1167/202 532/1168/202 545/1169/202
f 408/1170/202 475/1171/202 519/1172/202 520/1173/202
f 415/1174/203 514/1175/203 546/1176/203 533/1177/203
f 476/1178/203 407/1179/203 522/1180/203 521/1181/203
f 515/1182/202 417/1183/202 535/1184/202 547/1185/202
f 413/1186/202 479/1187/202 529/1188/202 530/1189/202
f 676/1190/204 515/1191/204 547/1192/204 680/1193/204
f 700/1194/204 408/1195/204 520/1196/204 708/1197/204
f 418/1198/203 516/1199/203 548/1200/203 536/1201/203
f 591/1202/204 413/1203/204 530/1204/204 599/1205/204
f 562/1206/218 565/1207/218 566/1208/218 563/1209/218
f 563/1210/219 566/1211/219 564/1212/219 561/1213/219
f 711/1214/220 562/1215/220 563/1216/220 712/1217/220
f 712/1218/221 563/1219/221 561/1220/221 713/1221/221
f 603/1222/222 552/1223/222 554/1224/222 604/1225/222
f 604/1226/223 554/1227/223 553/1228/223 605/1229/223
f 643/1230/220 549/1231/220 551/1232/220 644/1233/220
f 644/1234/221 551/1235/221 550/1236/221 645/1237/221
f 646/1238/222 570/1239/222 572/1240/222 647/1241/222
f 647/1242/223 572/1243/223 571/1244/223 648/1245/223
f 567/1246/224 571/1247/224 572/1248/224 569/1249/224
f 569/1250/225 572/1251/225 570/1252/225 568/1253/225
f 606/1254/220 556/1255/220 557/1256/220 607/1257/220
f 607/1258/221 557/1259/221 555/1260/221 608/1261/221
f 714/1262/222 559/1263/222 560/1264/222 715/1265/222
f 715/1266/223 560/1267/223 558/1268/223 716/1269/223
f 605/1270/206 608/1271/206 555/1272/206 558/1273/206
f 590/1274/205 352/1275/205 556/1276/205 606/1277/205
f 648/1278/206 645/1279/206 550/1280/206 553/1281/206
f 625/1282/205 326/1283/205 549/1284/205 643/1285/205
f 589/1286/204 319/1287/204 552/1288/204 603/1289/204
f 626/1290/204 332/1291/204 570/1292/204 646/1293/204
f 716/1294/206 713/1295/206 561/1296/206 564/1297/206
f 697/1298/205 291/1299/205 562/1300/205 711/1301/205
f 698/1302/204 357/1303/204 559/1304/204 714/1305/204
f 291/1306/203 271/1307/203 565/1308/203 562/1309/203
f 332/1310/202 343/1311/202 568/1312/202 570/1313/202
f 357/1303/204 589/1286/204 603/1289/204 559/1304/204
f 326/1283/205 590/1274/205 606/1277/205 549/1284/205
f 553/1281/206 550/1280/206 608/1271/206 605/1270/206
f 551/1235/221 607/1258/221 608/1261/221 550/1236/221
f 549/1231/220 606/1254/220 607/1257/220 551/1232/220
f 560/1267/223 604/1226/223 605/1229/223 558/1268/223
f 559/1263/222 603/1222/222 604/1225/222 560/1264/222
f 416/1314/204 591/1202/204 599/1205/204 531/1315/204
f 479/1316/205 596/1134/205 601/1137/205 529/1317/205
f 530/1318/226 529/1319/226 601/1320/226 599/1321/226
f 545/1322/226 532/1323/226 600/1324/226 602/1325/226
f 439/966/201 503/699/201 598/572/201 594/981/201
f 449/1326/206 513/1327/206 597/1074/206 593/977/206
f 514/1328/204 597/1062/204 602/1065/204 546/1329/204
f 414/1330/205 592/1058/205 600/1061/205 532/1331/205
f 359/696/201 469/967/201 595/980/201 578/577/201
f 469/967/201 439/966/201 594/981/201 595/980/201
f 479/1332/206 449/1326/206 593/977/206 596/976/206
f 363/1333/214 587/897/214 591/900/214 416/1334/214
f 327/1335/212 588/889/212 592/892/212 414/1336/212
f 352/731/206 590/746/206 587/749/206 363/732/206
f 319/742/206 589/734/206 576/737/206 365/743/206
f 322/590/204 315/617/204 574/724/204 585/705/204
f 321/594/205 314/615/205 573/722/205 584/709/205
f 317/611/206 575/718/206 574/721/206 315/612/206
f 327/605/206 373/604/206 583/715/206 588/714/206
f 374/586/204 577/703/204 583/713/204 373/759/204
f 316/595/205 321/594/205 584/709/205 581/708/205
f 313/591/204 322/590/204 585/705/204 580/704/204
f 318/585/204 582/700/204 577/703/204 374/586/204
f 360/679/201 354/678/201 573/618/201 579/573/201
f 347/681/206 582/606/206 581/609/206 346/682/206
f 351/685/205 586/583/205 576/601/205 364/686/205
f 356/689/205 575/580/205 586/583/205 351/685/205
f 345/697/201 359/696/201 578/577/201 580/576/201
f 503/699/201 360/679/201 579/573/201 598/572/201
f 319/1287/204 626/1290/204 646/1293/204 552/1288/204
f 343/1337/205 625/1282/205 643/1285/205 568/1338/205
f 571/1339/206 567/1340/206 645/1279/206 648/1278/206
f 554/1227/223 647/1242/223 648/1245/223 553/1228/223
f 552/1223/222 646/1238/222 647/1241/222 554/1224/222
f 569/1341/221 644/1234/221 645/1237/221 567/1342/221
f 568/1343/220 643/1230/220 644/1233/220 569/1344/220
f 410/1345/205 632/1118/205 640/1121/205 526/1346/205
f 524/1347/227 523/1348/227 641/1349/227 639/1350/227
f 543/1351/227 526/1352/227 640/1353/227 642/1354/227
f 447/1355/206 511/1356/206 638/1076/206 634/993/206
f 435/982/201 499/575/201 637/568/201 633/985/201
f 325/578/201 465/983/201 636/984/201 623/661/201
f 477/1357/206 447/1355/206 634/993/206 635/992/206
f 465/983/201 435/982/201 633/985/201 636/984/201
f 367/1358/214 616/881/214 631/884/214 412/1359/214
f 344/1360/212 617/873/212 632/876/212 410/1361/212
f 320/1362/201 627/776/201 629/779/201 379/1363/201
f 375/773/204 630/768/204 629/771/204 376/774/204
f 323/761/204 628/762/204 622/587/204 374/586/204
f 339/765/204 627/757/204 612/760/204 372/766/204
f 332/745/206 626/741/206 621/744/206 368/655/206
f 326/747/206 625/738/206 616/740/206 367/748/206
f 328/574/201 314/619/201 618/674/201 624/569/201
f 318/607/206 611/670/206 610/673/206 316/608/206
f 324/582/205 615/667/205 621/669/205 365/600/205
f 317/581/205 620/664/205 615/667/205 324/582/205
f 313/579/201 325/578/201 623/661/201 609/660/201
f 512/1364/204 638/656/204 642/659/204 544/1365/204
f 341/623/204 330/622/204 619/616/204 614/589/204
f 340/627/205 329/626/205 618/614/205 613/593/205
f 331/629/206 620/610/206 619/613/206 330/630/206
f 344/635/206 372/634/206 612/603/206 617/602/206
f 333/637/206 628/596/206 630/599/206 375/638/206
f 337/641/205 340/627/205 613/593/205 610/592/205
f 336/643/204 341/623/204 614/589/204 609/588/204
f 338/645/204 611/584/204 622/587/204 371/646/204
f 499/575/201 328/574/201 624/569/201 637/568/201
f 477/1366/205 635/531/205 641/534/205 523/1367/205
f 412/1368/204 631/507/204 639/510/204 525/1369/204
f 516/1370/204 676/1190/204 680/1193/204 548/1371/204
f 419/1372/204 670/1162/204 678/1165/204 540/1373/204
f 481/1374/205 673/1154/205 679/1157/205 537/1375/205
f 417/1376/205 669/1122/205 677/1125/205 535/1377/205
f 535/1378/226 677/1379/226 680/1380/226 547/1381/226
f 537/1382/226 679/1383/226 678/1384/226 538/1385/226
f 335/570/201 655/401/201 675/996/201 502/571/201
f 438/986/201 672/999/201 674/527/201 468/987/201
f 451/1386/206 671/975/206 673/1055/206 481/1387/206
f 502/571/201 675/996/201 672/999/201 438/986/201
f 515/1388/206 676/972/206 671/975/206 451/1386/206
f 366/1389/214 663/909/214 670/912/214 419/1390/214
f 306/1391/212 664/901/212 669/904/212 417/1392/212
f 339/777/201 666/784/201 668/787/201 376/778/201
f 378/1393/204 667/772/204 668/775/204 377/1394/204
f 269/753/204 666/764/204 659/767/204 369/754/204
f 333/763/204 665/756/204 653/647/204 371/646/204
f 270/1395/206 290/1396/206 663/653/206 652/652/206
f 264/1397/204 658/644/204 653/647/204 370/755/204
f 259/1398/204 273/1399/204 661/620/204 656/642/204
f 265/1400/205 274/1401/205 660/624/205 657/640/205
f 284/1402/206 665/636/206 667/639/206 378/1403/206
f 306/1404/206 369/1405/206 659/633/206 664/632/206
f 263/426/206 651/628/206 650/631/206 266/427/206
f 274/1401/205 260/1406/205 649/625/205 660/624/205
f 273/1399/204 266/1407/204 650/621/204 661/620/204
f 336/663/201 334/662/201 654/530/201 656/535/201
f 468/987/201 674/527/201 654/530/201 334/662/201
f 331/665/205 651/483/205 662/445/205 342/666/205
f 342/666/205 662/445/205 652/448/205 368/668/205
f 338/671/206 658/433/206 657/436/206 337/672/206
f 335/570/201 329/675/201 649/402/201 655/401/201
f 271/1408/204 698/1302/204 714/1305/204 565/1409/204
f 352/1275/205 697/1298/205 711/1301/205 556/1276/205
f 558/1273/206 555/1272/206 713/1295/206 716/1294/206
f 566/1410/223 715/1266/223 716/1269/223 564/1411/223
f 565/1412/222 714/1262/222 715/1265/222 566/1413/222
f 557/1259/221 712/1218/221 713/1221/221 555/1260/221
f 556/1255/220 711/1214/220 712/1217/220 557/1256/220
f 407/1414/204 700/1194/204 708/1197/204 522/1415/204
f 405/1416/205 699/1158/205 707/1161/205 517/1417/205
f 510/1418/204 705/1110/204 710/1113/204 542/1419/204
f 517/1420/226 707/1421/226 710/1422/226 541/1423/226
f 519/1424/226 709/1425/226 708/1426/226 520/1427/226
f 433/1428/201 485/1429/201 706/698/201 701/965/201
f 445/1430/206 702/1021/206 704/1057/206 475/1431/206
f 297/1432/201 483/1433/201 703/964/201 695/695/201
f 475/1434/205 704/1038/205 709/1041/205 519/1435/205
f 509/1436/206 705/1018/206 702/1021/206 445/1430/206
f 483/1433/201 433/1428/201 701/965/201 703/964/201
f 361/1437/214 688/861/214 700/864/214 407/1438/214
f 353/1439/212 689/853/212 699/856/212 405/1440/212
f 357/735/206 698/750/206 693/751/206 364/736/206
f 291/727/206 697/730/206 688/733/206 361/728/206
f 485/1429/201 299/1441/201 696/676/201 706/698/201
f 257/1442/201 297/1432/201 695/695/201 681/694/201
f 261/1443/205 692/688/205 687/684/205 281/1444/205
f 281/1444/205 687/684/205 693/687/205 362/1445/205
f 262/438/206 683/680/206 682/683/206 385/439/206
f 299/1441/201 258/1446/201 690/677/201 696/676/201
f 347/701/204 683/481/204 694/449/204 358/702/204
f 345/707/204 350/706/204 686/417/204 681/459/204
f 346/711/205 349/710/205 685/421/205 682/457/205
f 358/702/204 694/449/204 684/452/204 348/712/204
f 353/717/206 348/716/206 684/442/206 689/441/206
f 356/719/206 692/429/206 691/432/206 355/720/206
f 349/710/205 354/723/205 690/422/205 685/421/205
f 350/706/204 355/725/204 691/418/204 686/417/204
