# Blender 5.1.2
# www.blender.org
mtllib SecurityCameraPivot.mtl
o Cube.001
v -0.012280 0.000029 0.000000
v 0.010963 0.000029 0.000000
v -0.012280 0.000029 0.014984
v 0.010963 0.000029 0.014984
v 0.010963 0.000029 -0.014984
v -0.012280 0.000029 -0.014984
v -0.012280 -0.016218 0.000000
v 0.010963 -0.016218 0.000000
v -0.012280 -0.016218 0.014984
v 0.010963 -0.016218 0.014984
v 0.010963 -0.016218 -0.014984
v -0.012280 -0.016218 -0.014984
v 0.174137 0.000029 0.014984
v 0.174137 0.000029 0.000000
v 0.174137 0.000029 -0.014984
v 0.174137 -0.034352 0.014984
v 0.174137 -0.034352 0.000000
v 0.174137 -0.034352 -0.014984
v 0.177082 0.000029 0.014984
v 0.177082 0.000029 0.000000
v 0.177082 0.000029 -0.014984
v 0.177082 -0.034352 0.014984
v 0.177082 -0.034352 0.000000
v 0.177082 -0.034352 -0.014984
v 0.174137 0.000029 0.014984
v 0.174137 0.000029 0.000000
v 0.174137 0.000029 -0.014984
v 0.174137 -0.034352 0.014984
v 0.174137 -0.034352 0.000000
v 0.174137 -0.034352 -0.014984
v 0.177082 0.000029 -0.014984
v 0.177082 0.000029 0.014984
v 0.177082 0.000029 0.000000
v 0.177082 -0.034352 0.014984
v 0.177082 -0.034352 0.000000
v 0.177082 -0.034352 -0.014984
v 0.174137 0.012487 0.027443
v 0.174137 0.017648 0.000000
v 0.174137 0.012487 -0.027443
v 0.174137 -0.046811 0.027443
v 0.174137 -0.051971 0.000000
v 0.174137 -0.046811 -0.027443
v 0.177082 0.012487 -0.027443
v 0.177082 0.012487 0.027443
v 0.177082 0.017648 0.000000
v 0.177082 -0.046811 0.027443
v 0.177082 -0.051971 0.000000
v 0.177082 -0.046811 -0.027443
vn -0.0000 -0.0000 -1.0000
vn -1.0000 -0.0000 -0.0000
vn -0.0000 -1.0000 -0.0000
vn -0.0000 1.0000 -0.0000
vn -0.1105 -0.9939 -0.0000
vn -0.0000 -0.0000 1.0000
vn 1.0000 -0.0000 -0.0000
vn -0.0000 -0.9828 0.1848
vn -0.0000 0.9828 0.1848
vn -0.0000 -0.9828 -0.1848
vn -0.0000 0.9828 -0.1848
vt 0.279928 0.714563
vt 0.256083 0.714563
vt 0.279928 0.625000
vt 0.256083 0.535437
vt 0.279928 0.535437
vt 0.256083 0.625000
s 0
f 6/1/1 5/2/1 11/2/1 12/1/1
f 1/3/2 6/1/2 12/1/2 7/3/2
f 10/4/3 9/5/3 7/3/3 8/6/3
f 8/6/3 7/3/3 12/1/3 11/2/3
f 2/6/4 4/4/4 13/4/4 14/6/4
f 3/5/2 1/3/2 7/3/2 9/5/2
f 8/6/5 11/2/5 18/2/5 17/6/5
f 4/4/6 3/5/6 9/5/6 10/4/6
f 23/6/4 22/4/4 34/4/4 35/6/4
f 14/6/4 13/4/4 25/4/4 26/6/4
f 11/2/1 5/2/1 15/2/1 18/2/1
f 5/2/4 2/6/4 14/6/4 15/2/4
f 10/4/5 8/6/5 17/6/5 16/4/5
f 4/4/6 10/4/6 16/4/6 13/4/6
f 20/6/7 19/4/7 22/4/7 23/6/7
f 21/2/7 20/6/7 23/6/7 24/2/7
f 22/4/4 19/4/4 32/4/4 34/4/4
f 17/6/4 18/2/4 30/2/4 29/6/4
f 20/6/4 21/2/4 31/2/4 33/6/4
f 21/2/4 24/2/4 36/2/4 31/2/4
f 30/2/2 27/2/2 39/2/2 42/2/2
f 32/4/7 33/6/7 45/6/7 44/4/7
f 26/6/2 25/4/2 37/4/2 38/6/2
f 36/2/7 35/6/7 47/6/7 48/2/7
f 29/6/2 30/2/2 42/2/2 41/6/2
f 35/6/7 34/4/7 46/4/7 47/6/7
f 18/2/4 15/2/4 27/2/4 30/2/4
f 15/2/4 14/6/4 26/6/4 27/2/4
f 24/2/4 23/6/4 35/6/4 36/2/4
f 13/4/4 16/4/4 28/4/4 25/4/4
f 19/4/4 20/6/4 33/6/4 32/4/4
f 16/4/4 17/6/4 29/6/4 28/4/4
f 40/4/8 41/6/8 47/6/8 46/4/8
f 42/2/1 39/2/1 43/2/1 48/2/1
f 38/6/9 37/4/9 44/4/9 45/6/9
f 37/4/6 40/4/6 46/4/6 44/4/6
f 41/6/10 42/2/10 48/2/10 47/6/10
f 39/2/11 38/6/11 45/6/11 43/2/11
f 31/2/7 36/2/7 48/2/7 43/2/7
f 27/2/2 26/6/2 38/6/2 39/2/2
f 33/6/7 31/2/7 43/2/7 45/6/7
f 25/4/2 28/4/2 40/4/2 37/4/2
f 34/4/7 32/4/7 44/4/7 46/4/7
f 28/4/2 29/6/2 41/6/2 40/4/2
f 3/5/4 4/4/4 2/6/4 1/3/4
f 1/3/4 2/6/4 5/2/4 6/1/4
