# Blender 5.1.2
# www.blender.org
mtllib SecurityCamera.mtl
o Cube
v -0.250000 0.054755 -0.029477
v -0.250000 0.109496 -0.023150
v -0.250000 0.054755 0.029477
v -0.250000 0.109496 0.023150
v 0.090000 0.066610 -0.050000
v 0.090000 0.066610 0.050000
v -0.250000 0.083969 0.023150
v -0.250000 0.083969 -0.023150
v -0.250000 0.047659 0.000000
v -0.250000 0.148832 0.000000
v -0.250000 0.062396 0.000000
v 0.090000 0.066610 0.000000
v 0.027126 0.040000 0.035825
v -0.080000 0.160000 0.050000
v 0.027126 0.040000 -0.035825
v -0.080000 0.160000 -0.050000
v 0.040209 0.066610 -0.050000
v 0.040209 0.066610 0.050000
v -0.080000 0.165185 0.000000
v 0.027126 0.040000 0.000000
v -0.250000 0.066610 0.050000
v -0.250000 0.040000 0.050000
v -0.250000 0.040000 0.000000
v -0.250000 0.165185 0.000000
v -0.250000 0.160000 -0.050000
v -0.250000 0.066610 -0.050000
v -0.250000 0.040000 -0.050000
v -0.250000 0.160000 0.050000
v -0.276724 0.163955 0.000000
v -0.276724 0.158769 -0.050000
v -0.276724 0.158769 0.050000
v -0.253639 0.068278 0.050000
v -0.253639 0.068278 -0.050000
v -0.274831 0.158201 0.000000
v -0.274831 0.151348 -0.043617
v -0.274831 0.151348 0.043617
v -0.253639 0.068278 0.043617
v -0.253639 0.068278 -0.043617
v -0.080000 0.151352 0.057522
v -0.250000 0.151352 0.057522
v -0.080000 0.151352 -0.057522
v -0.250000 0.066610 0.057522
v -0.250000 0.151352 -0.057522
v -0.250000 0.066610 -0.057522
v 0.040209 0.066610 -0.057522
v 0.040209 0.066610 0.057522
v -0.253639 0.068278 0.057522
v -0.276724 0.150121 0.057522
v -0.276724 0.150121 -0.057522
v -0.253639 0.068278 -0.057522
v -0.250000 0.054708 0.000000
v -0.250000 0.066610 -0.043617
v -0.250000 0.066610 0.043617
v -0.250000 0.129602 0.000000
v -0.250000 0.138742 -0.036018
v -0.250000 0.138742 0.036018
v -0.250000 0.069150 0.000000
v -0.250000 0.080394 -0.028116
v -0.250000 0.080394 0.028116
v -0.250000 0.122978 0.000000
v -0.250000 0.113228 -0.028116
v -0.250000 0.113228 0.028116
v -0.256589 0.062396 0.000000
v -0.256589 0.080394 -0.028116
v -0.256589 0.080394 0.028116
v -0.256589 0.129602 0.000000
v -0.256589 0.113228 -0.028116
v -0.256589 0.113228 0.028116
v -0.256589 0.069150 0.000000
v -0.256589 0.083969 -0.023150
v -0.256589 0.083969 0.023150
v -0.256589 0.122978 0.000000
v -0.256589 0.109496 -0.023150
v -0.256589 0.109496 0.023150
v 0.090000 0.156087 -0.050000
v 0.080232 0.160000 -0.050000
v 0.080232 0.160000 0.050000
v 0.090000 0.156087 0.050000
v 0.090000 0.161290 0.000000
v 0.080232 0.165185 0.000000
v 0.080232 0.066610 -0.057522
v 0.090000 0.066610 -0.054649
v 0.090000 0.150709 -0.054649
v 0.080232 0.151352 -0.057522
v 0.080232 0.151352 0.057522
v 0.090000 0.150709 0.054649
v 0.090000 0.066610 0.054649
v 0.080232 0.066610 0.057522
v 0.076771 0.045447 0.000000
v 0.076771 0.045447 -0.050000
v 0.076771 0.058234 0.050000
v 0.076771 0.045447 0.050000
v 0.050717 0.045447 0.050000
v 0.076771 0.058234 -0.050000
v 0.050133 0.058234 -0.050000
v 0.076771 0.058234 0.000000
v 0.050717 0.045447 0.000000
v 0.050717 0.045447 -0.050000
v 0.050133 0.058234 0.050000
v -0.128974 0.160000 0.050000
v -0.028444 0.040000 -0.035825
v -0.043396 0.066610 0.050000
v -0.128974 0.165185 0.000000
v -0.028444 0.040000 0.035825
v -0.128974 0.160000 -0.050000
v -0.043396 0.066610 -0.050000
v -0.042618 0.040000 0.000000
v -0.128974 0.151352 0.057522
v -0.043396 0.066610 0.057522
v -0.128974 0.151352 -0.057522
v -0.043396 0.066610 -0.057522
v -0.042618 0.040000 0.050000
v 0.041301 0.040000 0.050000
v 0.041301 0.040000 0.000000
v 0.041301 0.040000 -0.050000
v -0.042618 0.040000 -0.050000
v -0.028444 0.040000 0.000000
v -0.012280 0.000029 0.000000
v 0.010963 0.000029 0.000000
v -0.012280 0.000029 0.014984
v 0.010963 0.000029 0.014984
v 0.010963 0.000029 -0.014984
v -0.012280 0.000029 -0.014984
vn -0.0000 0.6563 0.7545
vn -1.0000 -0.0000 -0.0000
vn -0.4167 -0.9091 -0.0000
vn -0.0000 -1.0000 -0.0000
vn 0.5349 -0.8449 -0.0000
vn -0.0000 -0.0000 1.0000
vn 0.5007 -0.8656 -0.0000
vn -0.0000 0.9947 0.1031
vn -0.0000 -0.0000 -1.0000
vn -0.0000 0.9947 -0.1031
vn -0.0302 0.6560 0.7542
vn -0.2975 -0.0872 -0.9507
vn -0.4214 -0.8870 -0.1887
vn -0.9648 -0.2610 0.0336
vn -0.9690 -0.2472 -0.0000
vn -0.9648 -0.2610 -0.0336
vn -0.0458 0.9936 -0.1030
vn -0.2975 -0.0872 0.9507
vn -0.4214 -0.8870 0.1887
vn -0.0458 0.9936 0.1030
vn -0.0000 0.6563 -0.7545
vn -0.9554 -0.2560 -0.1471
vn -0.9554 -0.2560 0.1471
vn -0.0302 0.6560 -0.7542
vn -0.0000 0.8422 0.5391
vn -0.0000 0.8641 0.5033
vn -0.0000 -0.8422 0.5391
vn -0.0000 -0.8641 0.5033
vn -0.0000 0.8641 -0.5033
vn -0.0000 0.8422 -0.5391
vn -0.0000 -0.8641 -0.5033
vn -0.0000 -0.8422 -0.5391
vn 0.3694 0.9243 0.0960
vn 0.2552 0.6337 0.7303
vn 0.3694 0.9243 -0.0960
vn 0.2822 -0.0000 -0.9594
vn 0.2822 -0.0000 0.9594
vn 0.2552 0.6337 -0.7303
vn 1.0000 -0.0000 -0.0000
vn 0.9271 -0.3749 -0.0000
vn -0.9271 -0.3749 -0.0000
vn -0.0000 -0.4623 0.8867
vn -0.0000 -0.4623 -0.8867
vt 0.911895 0.416697
vt 0.911895 0.654930
vt 0.889334 0.654930
vt 0.889334 0.416697
vt 0.229795 0.758838
vt 0.319035 0.701713
vt 0.321251 0.754401
vt 0.278931 0.781491
vt 0.676569 0.347598
vt 0.684449 0.347598
vt 0.684449 0.362405
vt 0.676569 0.362405
vt 0.170073 0.458844
vt 0.578294 0.458844
vt 0.578294 0.557267
vt 0.170073 0.557267
vt 0.328216 0.836647
vt 0.229793 0.836647
vt 0.229793 0.805826
vt 0.328216 0.805826
vt 0.701999 0.763598
vt 0.688123 0.763598
vt 0.664695 0.677741
vt 0.688031 0.705574
vt 0.879564 0.413104
vt 0.827183 0.411573
vt 0.827183 0.004883
vt 0.879563 0.004883
vt 0.802979 0.907409
vt 0.901401 0.907409
vt 0.901401 0.928822
vt 0.802979 0.928821
vt 0.827183 0.674156
vt 0.827183 0.576145
vt 0.843671 0.595680
vt 0.843671 0.648115
vt 0.688031 0.821622
vt 0.664695 0.849456
vt 0.170073 0.360422
vt 0.578294 0.360422
vt 0.229795 0.704731
vt 0.272116 0.677641
vt 0.704556 0.907409
vt 0.704556 0.928821
vt 0.718464 0.416697
vt 0.718464 0.320294
vt 0.817414 0.320294
vt 0.817414 0.416697
vt 0.123526 0.924628
vt 0.025515 0.924628
vt 0.051556 0.908141
vt 0.103992 0.908141
vt 0.286567 0.872248
vt 0.288099 0.924628
vt 0.121377 0.872248
vt 0.416697 0.666450
vt 0.320294 0.666450
vt 0.320294 0.567499
vt 0.416697 0.567499
vt 0.879564 0.578295
vt 0.868841 0.596829
vt 0.669807 0.425952
vt 0.617147 0.425952
vt 0.616363 0.403404
vt 0.669024 0.403404
vt 0.717075 0.862021
vt 0.664695 0.862021
vt 0.717075 0.763598
vt 0.693686 0.937380
vt 0.831363 0.975187
vt 0.826316 0.981237
vt 0.657559 0.981237
vt 0.664695 0.665176
vt 0.717075 0.665176
vt 0.676569 0.335034
vt 0.684449 0.335034
vt 0.915174 0.875720
vt 0.911599 0.802178
vt 0.967359 0.791252
vt 0.967359 0.878163
vt 0.993385 0.784421
vt 0.988994 0.871221
vt 0.977127 0.872381
vt 0.977127 0.773430
vt 0.991133 0.593219
vt 0.991133 0.761975
vt 0.978568 0.761975
vt 0.978568 0.578143
vt 0.980875 0.566624
vt 0.980875 0.397868
vt 0.993440 0.382792
vt 0.993440 0.566624
vt 0.696445 0.363299
vt 0.692054 0.276499
vt 0.708313 0.265508
vt 0.708313 0.364459
vt 0.588080 0.501082
vt 0.687030 0.501082
vt 0.687280 0.553742
vt 0.588329 0.553742
vt 0.411570 0.934765
vt 0.576142 0.934765
vt 0.576142 0.949572
vt 0.411570 0.949572
vt 0.119020 0.407375
vt 0.106455 0.407375
vt 0.106455 0.399495
vt 0.119020 0.399495
vt 0.991620 0.944720
vt 0.853943 0.982526
vt 0.817816 0.938669
vt 0.986572 0.938669
vt 0.635583 0.731851
vt 0.632007 0.805393
vt 0.579822 0.807837
vt 0.579822 0.720926
vt 0.492711 0.683029
vt 0.492711 0.781979
vt 0.440051 0.781729
vt 0.440051 0.682779
vt 0.248237 0.349468
vt 0.416691 0.182655
vt 0.654924 0.182651
vt 0.654927 0.349462
vt 0.248235 0.004883
vt 0.416691 0.171694
vt 0.320288 0.171694
vt 0.083662 0.004883
vt 0.707529 0.185074
vt 0.662090 0.346178
vt 0.654924 0.171694
vt 0.654924 0.004883
vt 0.662088 0.008167
vt 0.707529 0.169270
vt 0.921662 0.416697
vt 0.921662 0.320294
vt 0.944223 0.320294
vt 0.944223 0.416697
vt 0.978567 0.384133
vt 0.978567 0.200301
vt 0.993373 0.200249
vt 0.993960 0.367638
vt 0.953994 0.411570
vt 0.953994 0.004880
vt 0.968801 0.004880
vt 0.968801 0.411570
vt 0.978568 0.189597
vt 0.978568 0.005766
vt 0.993961 0.022261
vt 0.993374 0.189649
vt 0.687243 0.564554
vt 0.687243 0.617214
vt 0.664695 0.616431
vt 0.664695 0.563770
vt 0.091648 0.407375
vt 0.091648 0.399495
vt 0.672990 0.763598
vt 0.637562 0.708253
vt 0.637562 0.818943
vt 0.572929 0.708253
vt 0.540698 0.763598
vt 0.502845 0.763598
vt 0.522706 0.692699
vt 0.572929 0.818943
vt 0.522706 0.834498
vt 0.911167 0.889835
vt 0.965274 0.889835
vt 0.965274 0.902805
vt 0.911167 0.902805
vt 0.378593 0.848808
vt 0.442640 0.848808
vt 0.442640 0.861778
vt 0.378593 0.861778
vt 0.577321 0.973124
vt 0.527073 0.973124
vt 0.527073 0.960154
vt 0.577321 0.960154
vt 0.373943 0.789493
vt 0.308230 0.789493
vt 0.308230 0.776523
vt 0.373943 0.776523
vt 0.368826 0.859821
vt 0.304194 0.859821
vt 0.304194 0.846851
vt 0.368826 0.846851
vt 0.963906 0.926247
vt 0.911172 0.926247
vt 0.911172 0.913277
vt 0.963906 0.913277
vt 0.599257 0.454551
vt 0.648391 0.477208
vt 0.647734 0.489235
vt 0.588059 0.461718
vt 0.599262 0.400445
vt 0.588065 0.396005
vt 0.690714 0.450121
vt 0.688502 0.397433
vt 0.699484 0.390404
vt 0.702171 0.454394
vt 0.641584 0.373357
vt 0.642502 0.361164
vt 0.452407 0.848811
vt 0.516454 0.848811
vt 0.516454 0.861781
vt 0.452407 0.861781
vt 0.517309 0.973129
vt 0.467060 0.973129
vt 0.467060 0.960159
vt 0.517309 0.960159
vt 0.612947 0.436610
vt 0.667054 0.436610
vt 0.667054 0.449580
vt 0.612947 0.449580
vt 0.294426 0.859824
vt 0.229794 0.859824
vt 0.229794 0.846854
vt 0.294426 0.846854
vt 0.004884 0.917169
vt 0.004884 0.864435
vt 0.017854 0.864435
vt 0.017854 0.917169
vt 0.690686 0.070601
vt 0.690686 0.004887
vt 0.703656 0.004887
vt 0.703656 0.070601
vt 0.457455 0.980859
vt 0.358505 0.980859
vt 0.357710 0.960161
vt 0.456664 0.960174
vt 0.687592 0.489310
vt 0.687603 0.475316
vt 0.707484 0.469505
vt 0.707484 0.492066
vt 0.886984 0.846065
vt 0.788034 0.846062
vt 0.788826 0.825377
vt 0.887780 0.825368
vt 0.172009 0.980197
vt 0.005199 0.980197
vt 0.006464 0.960155
vt 0.172009 0.960155
vt 0.348589 0.980200
vt 0.181778 0.980200
vt 0.181778 0.960157
vt 0.347323 0.960157
vt 0.112652 0.497189
vt 0.126646 0.497178
vt 0.129402 0.517070
vt 0.106840 0.517070
vt 0.210877 0.853025
vt 0.210877 0.676894
vt 0.220029 0.676894
vt 0.220029 0.842439
vt 0.004885 0.666450
vt 0.004885 0.567499
vt 0.112455 0.863267
vt 0.112455 0.676894
vt 0.921662 0.004885
vt 0.944223 0.004885
vt 0.718464 0.004885
vt 0.817414 0.004885
vt 0.014032 0.853025
vt 0.014032 0.676894
vt 0.004881 0.842439
vt 0.004881 0.676894
vt 0.911896 0.004885
vt 0.911895 0.320294
vt 0.889334 0.320294
vt 0.889334 0.004885
vt 0.004879 0.171693
vt 0.004879 0.004883
vt 0.953994 0.674153
vt 0.953994 0.576142
vt 0.968801 0.576142
vt 0.968801 0.654925
vt 0.963146 0.674153
vt 0.004882 0.349471
vt 0.004879 0.182661
vt 0.320288 0.182656
vt 0.083665 0.349470
vt 0.674153 0.934765
vt 0.674153 0.943917
vt 0.654925 0.949572
vt 0.102842 0.882970
vt 0.051556 0.882970
vt 0.802979 0.872253
vt 0.802979 0.897423
vt 0.704556 0.897423
vt 0.704556 0.872253
vt 0.901401 0.872253
vt 0.901401 0.897423
vt 0.726835 0.665176
vt 0.778121 0.665176
vt 0.778121 0.763599
vt 0.726835 0.763599
vt 0.868841 0.648115
vt 0.778121 0.862021
vt 0.726835 0.862021
vt 0.426638 0.836647
vt 0.426638 0.805826
vt 0.921661 0.654930
vt 0.944223 0.654930
vt 0.004880 0.934765
vt 0.004880 0.949572
vt 0.654930 0.666450
vt 0.654930 0.567500
vt 0.694788 0.872248
vt 0.694788 0.924628
vt 0.718464 0.654930
vt 0.817414 0.654931
vt 0.882522 0.805209
vt 0.882522 0.734689
vt 0.967392 0.734689
vt 0.967392 0.764184
vt 0.787891 0.813027
vt 0.787891 0.742507
vt 0.872762 0.742507
vt 0.872762 0.772002
vt 0.142172 0.388324
vt 0.032785 0.388324
vt 0.004882 0.360422
vt 0.032785 0.458844
vt 0.004882 0.458844
vt 0.032785 0.529364
vt 0.004882 0.557267
vt 0.142172 0.529364
vt 0.142172 0.458844
vt 0.320958 0.676901
vt 0.430345 0.676901
vt 0.398527 0.765634
vt 0.352774 0.765634
vt 0.787891 0.671987
vt 0.872762 0.713012
vt 0.042550 0.510940
vt 0.042550 0.401553
vt 0.131284 0.433369
vt 0.131284 0.479122
vt 0.882522 0.664169
vt 0.967392 0.705194
vt 0.436404 0.792152
vt 0.465899 0.792152
vt 0.465899 0.837905
vt 0.436404 0.837905
vt 0.495394 0.792152
vt 0.495394 0.837905
s 1
f 100/1/1 28/2/1 40/3/1 108/4/1
f 57/5/2 60/6/2 2/7/2 8/8/2
f 26/9/3 33/10/3 50/11/3 44/12/3
f 107/13/4 23/14/4 27/15/4 116/16/4
f 12/17/5 6/18/5 91/19/5 96/20/5
f 9/21/2 51/22/2 52/23/2 1/24/2
f 112/25/6 102/26/6 21/27/6 22/28/6
f 114/29/7 115/30/7 98/31/7 97/32/7
f 6/33/6 18/34/6 99/35/6 91/36/6
f 3/37/2 53/38/2 51/22/2 9/21/2
f 112/39/4 22/40/4 23/14/4 107/13/4
f 7/41/2 4/42/2 60/6/2 57/5/2
f 113/43/7 114/29/7 97/32/7 93/44/7
f 100/45/8 14/46/8 19/47/8 103/48/8
f 17/49/9 5/50/9 94/51/9 95/52/9
f 116/53/9 106/54/9 17/49/9 115/55/9
f 103/56/10 19/57/10 16/58/10 105/59/10
f 18/34/6 113/60/6 93/61/6 99/35/6
f 28/62/11 31/63/11 48/64/11 40/65/11
f 53/38/2 3/37/2 22/66/2 21/67/2
f 3/37/2 9/21/2 23/68/2 22/66/2
f 56/69/12 53/70/12 37/71/12 36/72/12
f 1/24/2 52/23/2 26/73/2 27/74/2
f 26/9/3 52/75/3 38/76/3 33/10/3
f 10/77/13 56/78/13 36/79/13 34/80/13
f 9/21/2 1/24/2 27/74/2 23/68/2
f 35/81/14 34/82/14 29/83/14 30/84/14
f 36/85/15 37/86/15 32/87/15 31/88/15
f 38/89/15 35/90/15 30/91/15 33/92/15
f 34/93/16 36/94/16 31/95/16 29/96/16
f 24/97/17 25/98/17 30/99/17 29/100/17
f 102/101/4 18/102/4 46/103/4 109/104/4
f 53/105/3 21/106/3 32/107/3 37/108/3
f 52/109/18 55/110/18 35/111/18 38/112/18
f 55/113/19 10/114/19 34/115/19 35/116/19
f 28/117/20 24/118/20 29/119/20 31/120/20
f 109/121/6 108/122/6 40/123/6 42/124/6
f 111/125/9 110/126/9 41/127/9 45/128/9
f 42/124/6 40/123/6 48/129/6 47/130/6
f 43/131/9 44/132/9 50/133/9 49/134/9
f 105/135/21 16/136/21 41/137/21 110/138/21
f 31/139/22 32/140/22 47/141/22 48/142/22
f 106/143/4 26/144/4 44/145/4 111/146/4
f 33/147/23 30/148/23 49/149/23 50/150/23
f 30/151/24 25/152/24 43/153/24 49/154/24
f 32/107/3 21/106/3 42/155/3 47/156/3
f 11/157/2 58/158/2 52/23/2 51/22/2
f 59/159/2 11/157/2 51/22/2 53/38/2
f 61/160/2 54/161/2 10/162/2 55/163/2
f 62/164/2 59/159/2 53/38/2 56/165/2
f 58/158/2 61/160/2 55/163/2 52/23/2
f 54/161/2 62/164/2 56/165/2 10/162/2
f 57/166/25 8/167/25 70/168/25 69/169/25
f 62/170/26 54/171/26 66/172/26 68/173/26
f 4/174/9 7/175/9 71/176/9 74/177/9
f 11/178/27 59/179/27 65/180/27 63/181/27
f 61/182/9 58/183/9 64/184/9 67/185/9
f 2/186/28 60/187/28 72/188/28 73/189/28
f 69/190/2 70/191/2 64/192/2 63/193/2
f 71/194/2 69/190/2 63/193/2 65/195/2
f 73/196/2 72/197/2 66/198/2 67/199/2
f 74/200/2 71/194/2 65/195/2 68/201/2
f 70/191/2 73/196/2 67/199/2 64/192/2
f 72/197/2 74/200/2 68/201/2 66/198/2
f 54/202/29 61/203/29 67/204/29 66/205/29
f 8/206/6 2/207/6 73/208/6 70/209/6
f 7/210/30 57/211/30 69/212/30 71/213/30
f 59/214/6 62/215/6 68/216/6 65/217/6
f 60/218/31 4/219/31 74/220/31 72/221/31
f 58/222/32 11/223/32 63/224/32 64/225/32
f 80/226/33 77/227/33 78/228/33 79/229/33
f 86/230/34 78/231/34 77/232/34 85/233/34
f 76/234/35 80/235/35 79/236/35 75/237/35
f 81/238/36 84/239/36 83/240/36 82/241/36
f 85/242/37 88/243/37 87/244/37 86/245/37
f 75/246/38 83/247/38 84/248/38 76/249/38
f 75/250/39 5/251/39 82/252/39 83/253/39
f 19/57/10 80/254/10 76/255/10 16/58/10
f 5/251/39 75/250/39 79/256/39 12/257/39
f 16/136/21 76/258/21 84/259/21 41/137/21
f 14/46/8 77/260/8 80/261/8 19/47/8
f 12/257/39 79/256/39 78/262/39 6/263/39
f 6/263/39 78/262/39 86/264/39 87/265/39
f 77/266/1 14/267/1 39/268/1 85/269/1
f 45/128/9 41/127/9 84/270/9 81/271/9
f 5/272/4 17/273/4 45/274/4 81/275/4 82/276/4
f 88/277/6 85/278/6 39/279/6 46/280/6
f 18/102/4 6/281/4 87/282/4 88/283/4 46/103/4
f 98/284/9 95/52/9 94/51/9 90/285/9
f 89/286/39 96/287/39 91/288/39 92/289/39
f 90/290/39 94/291/39 96/287/39 89/286/39
f 92/292/4 93/293/4 97/294/4 89/295/4
f 92/296/6 91/36/6 99/35/6 93/61/6
f 89/295/4 97/294/4 98/297/4 90/298/4
f 115/55/9 17/49/9 95/52/9 98/284/9
f 5/299/5 12/17/5 96/20/5 94/300/5
f 17/273/4 106/143/4 111/146/4 45/274/4
f 25/301/21 105/135/21 110/138/21 43/302/21
f 44/132/9 43/131/9 110/126/9 111/125/9
f 46/280/6 39/279/6 108/122/6 109/121/6
f 21/303/4 102/101/4 109/104/4 42/304/4
f 24/305/10 103/56/10 105/59/10 25/306/10
f 27/307/9 26/308/9 106/54/9 116/53/9
f 28/309/8 100/45/8 103/48/8 24/310/8
f 15/311/40 20/312/40 119/313/40 122/314/40
f 113/60/6 18/34/6 102/26/6 112/25/6
f 104/315/41 117/316/41 118/317/41 120/318/41
f 14/267/1 100/1/1 108/4/1 39/268/1
f 104/319/4 13/320/4 113/321/4 112/39/4
f 13/320/4 20/322/4 114/323/4 113/321/4
f 20/322/4 15/324/4 115/325/4 114/323/4
f 15/324/4 101/326/4 116/16/4 115/325/4
f 117/327/4 104/319/4 112/39/4 107/13/4
f 101/326/4 117/327/4 107/13/4 116/16/4
f 13/328/42 104/329/42 120/330/42 121/331/42
f 117/316/41 101/332/41 123/333/41 118/317/41
f 101/334/43 15/335/43 122/336/43 123/337/43
f 20/312/40 13/338/40 121/339/40 119/313/40
f 120/340/4 118/341/4 119/342/4 121/343/4
f 119/342/4 118/341/4 123/344/4 122/345/4
