# Blender 5.1.2
# www.blender.org
mtllib SecurityCardReader.mtl
o SecurityCardReader
v -0.007322 0.000070 -0.030410
v -0.007322 0.110344 -0.030410
v -0.007322 0.000070 0.030387
v -0.007322 0.110344 0.030387
v -0.024000 0.013955 -0.030410
v -0.024000 0.103223 -0.030410
v -0.024000 0.013955 0.030387
v -0.024000 0.103223 0.030387
v -0.007322 0.071024 -0.030410
v -0.007322 0.071024 0.030387
v -0.034363 0.074406 0.030387
v -0.034363 0.074406 -0.030410
v -0.007322 0.082775 -0.030410
v -0.007322 0.082775 0.030387
v -0.034363 0.080906 0.030387
v -0.034363 0.080906 -0.030410
v -0.000247 0.000070 0.030387
v -0.000247 0.000070 -0.030410
v -0.000247 0.082775 -0.030410
v -0.000247 0.110344 -0.030410
v -0.000247 0.110344 0.030387
v -0.000247 0.071024 0.030387
v -0.000247 0.071024 -0.030410
v -0.000247 0.082775 0.030387
vn -0.0000 -1.0000 -0.0000
vn -0.0000 -0.0000 1.0000
vn -0.9070 0.4212 -0.0000
vn -0.0000 -0.0000 -1.0000
vn -0.6398 -0.7685 -0.0000
vn -0.3926 0.9197 -0.0000
vn -0.9856 -0.1690 -0.0000
vn -0.0000 1.0000 -0.0000
vn -1.0000 -0.0000 -0.0000
vn 1.0000 -0.0000 -0.0000
vt 0.488396 0.047703
vt 0.174715 0.047712
vt 0.174715 0.011148
vt 0.488396 0.011148
vt 0.611178 0.519797
vt 0.583452 0.667189
vt 0.488396 0.625833
vt 0.488396 0.501634
vt 0.174715 0.626241
vt 0.174715 0.505349
vt 0.081904 0.669461
vt 0.052306 0.522923
vt 0.488396 0.160068
vt 0.174715 0.159664
vt 0.488396 0.719215
vt 0.174715 0.720336
vt 0.174715 0.473402
vt 0.047564 0.454491
vt 0.092843 0.078742
vt 0.488396 0.469743
vt 0.567114 0.078244
vt 0.615934 0.451252
vt 0.488396 0.755787
vt 0.174715 0.756883
vt 0.652178 0.448290
vt 0.647596 0.523547
vt 0.988852 0.438813
vt 0.988851 0.581368
vt 0.674473 0.581367
vt 0.674474 0.438813
vt 0.988851 0.011148
vt 0.988852 0.378048
vt 0.674474 0.378048
vt 0.674473 0.011149
vt 0.016225 0.527150
vt 0.011148 0.452013
vt 0.603405 0.073736
vt 0.056428 0.074613
vt 0.045692 0.675503
vt 0.619940 0.672857
s 0
f 3/1/1 1/2/1 18/3/1 17/4/1
f 14/5/2 4/6/2 8/7/2 15/8/2
f 15/8/3 8/7/3 6/9/3 16/10/3
f 16/10/4 6/9/4 2/11/4 13/12/4
f 3/1/5 7/13/5 5/14/5 1/2/5
f 8/7/6 4/15/6 2/16/6 6/9/6
f 5/14/4 12/17/4 9/18/4 1/19/4
f 7/13/7 11/20/7 12/17/7 5/14/7
f 3/21/2 10/22/2 11/20/2 7/13/2
f 2/16/8 4/15/8 21/23/8 20/24/8
f 12/17/4 16/10/4 13/12/4 9/18/4
f 11/20/9 15/8/9 16/10/9 12/17/9
f 10/22/2 14/5/2 15/8/2 11/20/2
f 14/5/2 10/22/2 22/25/2 24/26/2
f 19/27/10 20/28/10 21/29/10 24/30/10
f 18/31/10 23/32/10 22/33/10 17/34/10
f 23/32/10 19/27/10 24/30/10 22/33/10
f 9/18/4 13/12/4 19/35/4 23/36/4
f 10/22/2 3/21/2 17/37/2 22/25/2
f 1/19/4 9/18/4 23/36/4 18/38/4
f 13/12/4 2/11/4 20/39/4 19/35/4
f 4/6/2 14/5/2 24/26/2 21/40/2
