# Blender 5.1.2
# www.blender.org
mtllib SecurityHandReader.mtl
o SecurityHandReader
v -0.012500 0.000000 -0.074862
v -0.012500 0.250000 -0.074862
v -0.012500 0.000000 0.075138
v -0.012500 0.250000 0.075138
v 0.012500 0.000000 -0.074862
v 0.012500 0.250000 -0.074862
v 0.012500 0.000000 0.075138
v 0.012500 0.250000 0.075138
v -0.012500 0.063642 -0.074862
v -0.012500 0.063642 0.075138
v 0.012500 0.063642 0.075138
v 0.012500 0.063642 -0.074862
v -0.012500 0.075526 -0.058808
v -0.012500 0.233005 -0.058808
v -0.012500 0.233005 0.059084
v -0.012500 0.075526 0.059084
v -0.012500 0.026757 -0.058808
v -0.012500 0.052033 -0.058808
v -0.012500 0.052033 0.059084
v -0.012500 0.026757 0.059084
v -0.005382 0.075526 -0.058808
v -0.005382 0.233005 -0.058808
v -0.005382 0.075526 0.059084
v -0.005382 0.233005 0.059084
v -0.005382 0.026757 -0.058808
v -0.005382 0.052033 -0.058808
v -0.005382 0.026757 0.059084
v -0.005382 0.052033 0.059084
vn -0.0000 -0.0000 -1.0000
vn -0.0000 -0.0000 1.0000
vn 1.0000 -0.0000 -0.0000
vn -0.0000 -1.0000 -0.0000
vn -0.0000 1.0000 -0.0000
vn -1.0000 -0.0000 -0.0000
vt 0.452772 0.489278
vt 0.468721 0.481251
vt 0.517150 0.485530
vt 0.514336 0.501165
vt 0.426092 0.526960
vt 0.434980 0.583586
vt 0.033460 0.688381
vt 0.019268 0.633796
vt 0.613671 0.163932
vt 0.953007 0.163932
vt 0.953007 0.585519
vt 0.613671 0.585519
vt 0.434658 0.124984
vt 0.425654 0.181347
vt 0.019268 0.073171
vt 0.033591 0.019015
vt 0.421706 0.965315
vt 0.421706 0.625980
vt 0.478262 0.625980
vt 0.478262 0.965315
vt 0.019011 0.522220
vt 0.019011 0.182884
vt 0.075567 0.182884
vt 0.075567 0.522220
vt 0.569936 0.110224
vt 0.573612 0.166042
vt 0.613671 0.019960
vt 0.953007 0.019960
vt 0.574090 0.539079
vt 0.572253 0.592860
vt 0.114013 0.219202
vt 0.130115 0.219202
vt 0.130115 0.485901
vt 0.114013 0.485901
vt 0.395968 0.213523
vt 0.047145 0.117797
vt 0.047299 0.589256
vt 0.396185 0.494731
vt 0.513969 0.205136
vt 0.452675 0.218972
vt 0.361175 0.928997
vt 0.361175 0.662298
vt 0.608943 0.624885
vt 0.875641 0.624885
vt 0.875641 0.981140
vt 0.608943 0.981140
vt 0.037490 0.727028
vt 0.304189 0.727028
vt 0.304189 0.784209
vt 0.037490 0.784209
vt 0.381841 0.224875
vt 0.042897 0.133278
vt 0.345073 0.928997
vt 0.345073 0.662298
vt 0.042965 0.574129
vt 0.382649 0.483038
vt 0.468169 0.227911
vt 0.520119 0.216556
s 0
f 19/1/1 28/2/1 27/3/1 20/4/1
f 10/5/2 11/6/2 8/7/2 4/8/2
f 11/9/3 12/10/3 6/11/3 8/12/3
f 12/13/1 9/14/1 2/15/1 6/16/1
f 3/17/4 1/18/4 5/19/4 7/20/4
f 8/21/5 6/22/5 2/23/5 4/24/5
f 5/25/1 1/26/1 9/14/1 12/13/1
f 7/27/3 5/28/3 12/10/3 11/9/3
f 3/29/2 7/30/2 11/6/2 10/5/2
f 14/31/4 22/32/4 24/33/4 15/34/4
f 9/14/6 13/35/6 14/36/6 2/15/6
f 2/23/6 14/31/6 15/34/6 4/24/6
f 4/8/6 15/37/6 16/38/6 10/5/6
f 10/5/6 16/38/6 13/35/6 9/14/6
f 1/26/6 17/39/6 18/40/6 9/14/6
f 9/14/6 18/40/6 19/1/6 10/5/6
f 10/5/6 19/1/6 20/4/6 3/29/6
f 3/17/6 20/41/6 17/42/6 1/18/6
f 21/43/6 23/44/6 24/45/6 22/46/6
f 25/47/6 27/48/6 28/49/6 26/50/6
f 13/35/2 21/51/2 22/52/2 14/36/2
f 20/41/5 27/53/5 25/54/5 17/42/5
f 15/37/1 24/55/1 23/56/1 16/38/1
f 16/38/5 23/56/5 21/51/5 13/35/5
f 18/40/4 26/57/4 28/2/4 19/1/4
f 17/39/2 25/58/2 26/57/2 18/40/2
