# Blender 5.1.2
# www.blender.org
mtllib SpeakerModern.mtl
o SpeakerModern
v 0.025000 0.000000 -0.125768
v 0.025000 0.250000 -0.125768
v 0.025000 0.000000 0.124232
v 0.025000 0.250000 0.124232
v -0.029626 0.053103 -0.072664
v -0.057362 0.196897 -0.072664
v -0.029626 0.053103 0.071129
v -0.057362 0.196897 0.071129
v -0.067606 0.250000 0.124232
v -0.019382 0.000000 0.124232
v -0.019382 0.000000 -0.125768
v -0.067606 0.250000 -0.125768
v 0.025000 0.000000 -0.000768
v 0.025000 0.250000 -0.000768
v -0.019382 0.000000 -0.000768
v -0.067606 0.250000 -0.000768
v -0.024684 0.027485 -0.000768
v -0.062304 0.222515 -0.000768
v 0.025000 0.125000 -0.125768
v 0.025000 0.125000 0.124232
v -0.043494 0.125000 0.124232
v -0.043494 0.125000 -0.125768
v -0.043494 0.125000 0.096747
v -0.043494 0.125000 -0.098283
v 0.025000 0.125000 -0.000768
v 0.025000 0.250000 0.061732
v -0.019382 0.000000 0.061732
v -0.027286 0.040973 0.054950
v 0.025000 0.000000 0.061732
v -0.067606 0.250000 0.061732
v -0.059702 0.209027 0.054950
v 0.025000 0.125000 0.061732
v 0.025000 0.000000 -0.063268
v -0.067606 0.250000 -0.063268
v -0.059702 0.209027 -0.056486
v 0.025000 0.250000 -0.063268
v -0.019382 0.000000 -0.063268
v -0.027286 0.040973 -0.056486
v 0.025000 0.125000 -0.063268
v 0.025000 0.187500 -0.125768
v 0.025000 0.187500 0.124232
v -0.055550 0.187500 0.124232
v -0.055550 0.187500 -0.125768
v -0.054242 0.180718 0.083259
v -0.054242 0.180718 -0.084795
v 0.025000 0.187500 -0.000768
v 0.025000 0.187500 0.061732
v 0.025000 0.187500 -0.063268
v 0.025000 0.062500 0.124232
v -0.031438 0.062500 0.124232
v -0.031438 0.062500 -0.125768
v -0.032746 0.069282 0.083259
v -0.032746 0.069282 -0.084795
v 0.025000 0.062500 -0.000768
v 0.025000 0.062500 -0.125768
v 0.025000 0.062500 0.061732
v 0.025000 0.062500 -0.063268
v -0.055019 0.065505 0.083259
v -0.051899 0.049327 0.071129
v -0.049559 0.037197 0.054950
v -0.081975 0.205250 -0.056486
v -0.079635 0.193120 -0.072664
v -0.055019 0.065505 -0.084795
v -0.051899 0.049327 -0.072664
v -0.049559 0.037197 -0.056486
v -0.046957 0.023709 -0.000768
v -0.081975 0.205250 0.054950
v -0.084577 0.218739 -0.000768
v -0.061609 0.071224 -0.000768
v -0.076515 0.176942 0.083259
v -0.065767 0.121224 0.096747
v -0.076515 0.176942 -0.084795
v -0.065767 0.121224 -0.098283
v -0.080898 0.171224 -0.000768
v -0.071254 0.121224 -0.000768
v -0.071254 0.121224 0.049232
v -0.071254 0.121224 -0.050768
v -0.079635 0.193120 0.071129
v -0.062725 0.077008 0.043447
v -0.079783 0.165439 0.043447
v -0.062725 0.077008 -0.044983
v -0.079783 0.165439 -0.044983
vn 1.0000 -0.0000 -0.0000
vn -0.0000 -0.0000 1.0000
vn 0.1623 -0.9573 -0.2393
vn -0.0000 -0.0000 -1.0000
vn -0.0000 -1.0000 -0.0000
vn -0.0000 1.0000 -0.0000
vn -0.9819 -0.1894 -0.0000
vn -0.1329 0.7837 0.6068
vn 0.0991 -0.5846 -0.8052
vn -0.0387 0.2281 -0.9729
vn -0.1623 0.9573 -0.2393
vn -0.1329 0.7837 -0.6068
vn -0.0387 0.2281 0.9729
vn 0.1623 -0.9573 0.2393
vn 0.1329 -0.7837 0.6068
vn 0.0991 -0.5846 0.8052
vn 0.0387 -0.2281 -0.9729
vn -0.0991 0.5846 -0.8052
vn 0.0387 -0.2281 0.9729
vn -0.1623 0.9573 0.2393
vn -0.0991 0.5846 0.8052
vn 0.1329 -0.7837 -0.6068
vn -0.9908 -0.0929 -0.0982
vn -0.9973 -0.0702 0.0236
vn -0.9704 -0.2101 -0.1189
vn -0.9704 -0.2101 0.1189
vn -0.9908 -0.0929 0.0982
vn -0.9973 -0.0702 -0.0236
vn -0.9789 -0.1657 0.1200
vn -0.9789 -0.1657 -0.1200
vn -0.9534 -0.3008 -0.0225
vn -0.9556 -0.2790 0.0947
vn -0.9556 -0.2790 -0.0947
vn -0.9534 -0.3008 0.0225
vt 0.357937 0.429596
vt 0.450811 0.429597
vt 0.450811 0.522472
vt 0.357936 0.522471
vt 0.450809 0.660084
vt 0.357935 0.642167
vt 0.691288 0.441771
vt 0.776036 0.413445
vt 0.787757 0.445152
vt 0.705635 0.471119
vt 0.357935 0.031276
vt 0.450809 0.013359
vt 0.450811 0.150971
vt 0.357936 0.150972
vt 0.079313 0.243847
vt 0.013361 0.243848
vt 0.013359 0.150974
vt 0.079312 0.150972
vt 0.588422 0.243847
vt 0.450811 0.243847
vt 0.588423 0.150973
vt 0.676028 0.286857
vt 0.694053 0.311341
vt 0.615143 0.391708
vt 0.615142 0.297121
vt 0.883688 0.329699
vt 0.907729 0.311341
vt 0.986640 0.391707
vt 0.893766 0.391707
vt 0.718095 0.075369
vt 0.694053 0.093726
vt 0.615143 0.013359
vt 0.708017 0.013360
vt 0.925755 0.118211
vt 0.907729 0.093726
vt 0.986640 0.013360
vt 0.986641 0.107947
vt 0.883688 0.075369
vt 0.800891 0.054956
vt 0.800892 0.013361
vt 0.893766 0.013361
vt 0.718095 0.329699
vt 0.800891 0.350111
vt 0.800892 0.391707
vt 0.708017 0.391707
vt 0.588422 0.429596
vt 0.450811 0.336722
vt 0.588422 0.336722
vt 0.079313 0.429596
vt 0.013361 0.429596
vt 0.013361 0.336722
vt 0.079313 0.336722
vt 0.921006 0.721892
vt 0.890182 0.746278
vt 0.873398 0.717684
vt 0.896288 0.700378
vt 0.357937 0.243847
vt 0.357937 0.336721
vt 0.172187 0.243847
vt 0.265062 0.243847
vt 0.265062 0.336721
vt 0.172187 0.336721
vt 0.637341 0.496793
vt 0.660421 0.465108
vt 0.682958 0.488959
vt 0.666497 0.512716
vt 0.925755 0.286857
vt 0.945798 0.202534
vt 0.986641 0.202534
vt 0.986641 0.297121
vt 0.676028 0.118211
vt 0.655984 0.202534
vt 0.615142 0.202534
vt 0.615142 0.107946
vt 0.172186 0.067106
vt 0.265061 0.049191
vt 0.265061 0.150972
vt 0.172187 0.150972
vt 0.639083 0.693894
vt 0.611043 0.607438
vt 0.643024 0.596553
vt 0.668737 0.680265
vt 0.172187 0.522470
vt 0.265062 0.522470
vt 0.265061 0.624252
vt 0.172187 0.606337
vt 0.172187 0.429596
vt 0.265062 0.429596
vt 0.780451 0.776851
vt 0.693694 0.748993
vt 0.709682 0.719947
vt 0.791888 0.743978
vt 0.662208 0.725469
vt 0.686322 0.703281
vt 0.079312 0.522471
vt 0.013360 0.522470
vt 0.588423 0.522471
vt 0.968889 0.602492
vt 0.943250 0.689690
vt 0.913230 0.676886
vt 0.936620 0.592495
vt 0.798598 0.413133
vt 0.884097 0.439106
vt 0.870566 0.468840
vt 0.915597 0.461581
vt 0.893727 0.486046
vt 0.939543 0.492616
vt 0.910839 0.509339
vt 0.610210 0.585085
vt 0.969104 0.580125
vt 0.804229 0.776523
vt 0.079312 0.588422
vt 0.079312 0.085021
vt 0.726335 0.662548
vt 0.855165 0.660767
vt 0.790891 0.671862
vt 0.853413 0.529491
vt 0.864403 0.595030
vt 0.789843 0.596017
vt 0.788794 0.520178
vt 0.724458 0.531273
vt 0.715284 0.597091
s 0
f 47/1/1 26/2/1 4/3/1 41/4/1
f 41/4/2 4/3/2 9/5/2 42/6/2
f 38/7/3 17/8/3 66/9/3 65/10/3
f 43/11/4 12/12/4 2/13/4 40/14/4
f 33/15/5 37/16/5 11/17/5 1/18/5
f 34/19/6 36/20/6 2/13/6 12/21/6
f 52/22/7 7/23/7 10/24/7 50/25/7
f 38/26/7 5/27/7 11/28/7 37/29/7
f 31/30/7 8/31/7 9/32/7 30/33/7
f 45/34/7 6/35/7 12/36/7 43/37/7
f 35/38/7 18/39/7 16/40/7 34/41/7
f 28/42/7 17/43/7 15/44/7 27/45/7
f 30/46/6 26/2/6 14/47/6 16/48/6
f 29/49/5 27/50/5 15/51/5 13/52/5
f 8/53/8 31/54/8 67/55/8 78/56/8
f 48/57/1 36/20/1 14/47/1 46/58/1
f 57/59/1 39/60/1 25/61/1 54/62/1
f 53/63/9 5/64/9 64/65/9 63/66/9
f 53/67/7 24/68/7 22/69/7 51/70/7
f 44/71/7 23/72/7 21/73/7 42/74/7
f 51/75/4 22/76/4 19/77/4 55/78/4
f 45/79/10 24/80/10 73/81/10 72/82/10
f 49/83/2 20/84/2 21/85/2 50/86/2
f 56/87/1 32/88/1 20/84/1 49/83/1
f 54/62/1 25/61/1 32/88/1 56/87/1
f 18/89/11 35/90/11 61/91/11 68/92/11
f 35/90/12 6/93/12 62/94/12 61/91/12
f 3/95/5 10/96/5 27/50/5 29/49/5
f 9/97/6 4/3/6 26/2/6 30/46/6
f 7/23/7 28/42/7 27/45/7 10/24/7
f 18/39/7 31/30/7 30/33/7 16/40/7
f 46/58/1 14/47/1 26/2/1 47/1/1
f 23/98/13 44/99/13 70/100/13 71/101/13
f 55/78/1 19/77/1 39/60/1 57/59/1
f 40/14/1 2/13/1 36/20/1 48/57/1
f 6/35/7 35/38/7 34/41/7 12/36/7
f 17/43/7 38/26/7 37/29/7 15/44/7
f 16/48/6 14/47/6 36/20/6 34/19/6
f 13/52/5 15/51/5 37/16/5 33/15/5
f 17/102/14 28/103/14 60/104/14 66/9/14
f 28/103/15 7/105/15 59/106/15 60/104/15
f 19/77/1 40/14/1 48/57/1 39/60/1
f 25/61/1 46/58/1 47/1/1 32/88/1
f 7/105/16 52/107/16 58/108/16 59/106/16
f 8/31/7 44/71/7 42/74/7 9/32/7
f 39/60/1 48/57/1 46/58/1 25/61/1
f 24/109/17 53/63/17 63/66/17 73/81/17
f 24/68/7 45/34/7 43/37/7 22/69/7
f 22/76/4 43/11/4 40/14/4 19/77/4
f 6/93/18 45/79/18 72/82/18 62/94/18
f 20/84/2 41/4/2 42/6/2 21/85/2
f 32/88/1 47/1/1 41/4/1 20/84/1
f 1/18/1 55/78/1 57/59/1 33/15/1
f 52/107/19 23/110/19 71/101/19 58/108/19
f 31/54/20 18/111/20 68/92/20 67/55/20
f 13/52/1 54/62/1 56/87/1 29/49/1
f 29/49/1 56/87/1 49/83/1 3/95/1
f 3/95/2 49/83/2 50/86/2 10/112/2
f 44/99/21 8/53/21 78/56/21 70/100/21
f 11/113/4 51/75/4 55/78/4 1/18/4
f 5/27/7 53/67/7 51/70/7 11/28/7
f 5/64/22 38/7/22 65/10/22 64/65/22
f 33/15/1 57/59/1 54/62/1 13/52/1
f 23/72/7 52/22/7 50/25/7 21/73/7
f 82/114/23 61/91/23 62/94/23 72/82/23
f 80/115/24 67/55/24 68/92/24 74/116/24
f 79/117/7 76/118/7 75/119/7 69/120/7
f 81/121/25 77/122/25 73/81/25 63/66/25
f 58/108/26 71/101/26 76/118/26 79/117/26
f 70/100/27 78/56/27 67/55/27 80/115/27
f 69/120/7 75/119/7 77/122/7 81/121/7
f 74/116/28 68/92/28 61/91/28 82/114/28
f 75/119/7 74/116/7 82/114/7 77/122/7
f 71/101/29 70/100/29 80/115/29 76/118/29
f 76/118/7 80/115/7 74/116/7 75/119/7
f 77/122/30 82/114/30 72/82/30 73/81/30
f 66/9/31 69/120/31 81/121/31 65/10/31
f 59/106/32 58/108/32 79/117/32 60/104/32
f 65/10/33 81/121/33 63/66/33 64/65/33
f 60/104/34 79/117/34 69/120/34 66/9/34
