# Blender 5.1.2
# www.blender.org
mtllib SpeakerConeCone.mtl
o SpeakerCone
v -0.078703 0.000368 0.023185
v -0.328703 -0.019881 0.124982
v -0.078703 -0.008644 0.019452
v -0.328703 -0.066308 0.105751
v -0.078703 -0.015542 0.012555
v -0.328703 -0.101841 0.070218
v -0.078703 -0.019275 0.003542
v -0.328703 -0.121072 0.023791
v -0.078703 -0.019275 -0.006212
v -0.328703 -0.121072 -0.026461
v -0.078703 -0.015542 -0.015224
v -0.328703 -0.101841 -0.072887
v -0.078703 -0.008644 -0.022121
v -0.328703 -0.066308 -0.108421
v -0.078703 0.000368 -0.025854
v -0.328703 -0.019881 -0.127651
v -0.078703 0.010122 -0.025854
v -0.328703 0.030371 -0.127651
v -0.078703 0.019134 -0.022121
v -0.328703 0.076798 -0.108421
v -0.078703 0.026032 -0.015224
v -0.328703 0.112331 -0.072887
v -0.078703 0.029765 -0.006212
v -0.328703 0.131562 -0.026461
v -0.078703 0.029765 0.003542
v -0.328703 0.131562 0.023791
v -0.078703 0.026032 0.012555
v -0.328703 0.112331 0.070218
v -0.078703 0.019134 0.019452
v -0.328703 0.076798 0.105751
v -0.078703 0.010122 0.023185
v -0.328703 0.030371 0.124982
v -0.203703 -0.007924 0.064868
v -0.203703 -0.032256 0.054789
v -0.203703 -0.050879 0.036166
v -0.203703 -0.060958 0.011834
v -0.203703 -0.060958 -0.014504
v -0.203703 -0.050879 -0.038836
v -0.203703 -0.032256 -0.057459
v -0.203703 -0.007924 -0.067538
v -0.203703 0.018414 -0.067538
v -0.203703 0.042746 -0.057459
v -0.203703 0.061369 -0.038836
v -0.203703 0.071448 -0.014504
v -0.203703 0.071448 0.011834
v -0.203703 0.061369 0.036166
v -0.203703 0.042746 0.054789
v -0.203703 0.018414 0.064868
v -0.266203 -0.013277 0.091781
v -0.266203 -0.047501 0.077605
v -0.266203 -0.073695 0.051411
v -0.266203 -0.087871 0.017187
v -0.266203 -0.087871 -0.019857
v -0.266203 -0.073695 -0.054081
v -0.266203 -0.047501 -0.080275
v -0.266203 -0.013277 -0.094451
v -0.266203 0.023767 -0.094451
v -0.266203 0.057991 -0.080275
v -0.266203 0.084185 -0.054081
v -0.266203 0.098361 -0.019857
v -0.266203 0.098361 0.017187
v -0.266203 0.084185 0.051411
v -0.266203 0.057991 0.077605
v -0.266203 0.023767 0.091781
v -0.125578 -0.002675 0.038483
v -0.125578 -0.017310 0.032421
v -0.125578 -0.028511 0.021220
v -0.125578 -0.034573 0.006586
v -0.125578 -0.034573 -0.009255
v -0.125578 -0.028511 -0.023890
v -0.125578 -0.017310 -0.035091
v -0.125578 -0.002675 -0.041153
v -0.125578 0.013165 -0.041153
v -0.125578 0.027800 -0.035091
v -0.125578 0.039001 -0.023890
v -0.125578 0.045063 -0.009255
v -0.125578 0.045063 0.006586
v -0.125578 0.039001 0.021220
v -0.125578 0.027800 0.032421
v -0.125578 0.013165 0.038483
v -0.147453 -0.004113 0.045711
v -0.147453 -0.021404 0.038549
v -0.147453 -0.034639 0.025315
v -0.147453 -0.041801 0.008023
v -0.147453 -0.041801 -0.010693
v -0.147453 -0.034639 -0.027984
v -0.147453 -0.021404 -0.041218
v -0.147453 -0.004113 -0.048380
v -0.147453 0.014603 -0.048380
v -0.147453 0.031894 -0.041218
v -0.147453 0.045129 -0.027984
v -0.147453 0.052291 -0.010693
v -0.147453 0.052291 0.008023
v -0.147453 0.045129 0.025315
v -0.147453 0.031894 0.038549
v -0.147453 0.014603 0.045711
v -0.153355 -0.000696 0.028530
v -0.131480 0.000742 0.021302
v -0.153355 -0.011672 0.023983
v -0.131480 -0.007578 0.017856
v -0.153355 -0.020073 0.015583
v -0.131480 -0.013946 0.011488
v -0.153355 -0.024620 0.004606
v -0.131480 -0.017392 0.003168
v -0.153355 -0.024620 -0.007275
v -0.131480 -0.017392 -0.005838
v -0.153355 -0.020073 -0.018252
v -0.131480 -0.013946 -0.014157
v -0.153355 -0.011672 -0.026653
v -0.131480 -0.007578 -0.020526
v -0.153355 -0.000695 -0.031200
v -0.131480 0.000742 -0.023972
v -0.153355 0.011186 -0.031200
v -0.131480 0.009748 -0.023972
v -0.153355 0.022162 -0.026653
v -0.131480 0.018068 -0.020526
v -0.153355 0.030563 -0.018252
v -0.131480 0.024436 -0.014157
v -0.153355 0.035110 -0.007275
v -0.131480 0.027882 -0.005838
v -0.153355 0.035110 0.004606
v -0.131480 0.027882 0.003168
v -0.153355 0.030563 0.015583
v -0.131480 0.024436 0.011488
v -0.153355 0.022162 0.023983
v -0.131480 0.018068 0.017856
v -0.153355 0.011186 0.028530
v -0.131480 0.009748 0.021302
v -0.325578 -0.018848 0.119790
v -0.325578 -0.063366 0.101349
v -0.325578 -0.097439 0.067276
v -0.325578 -0.115879 0.022758
v -0.325578 -0.115879 -0.025428
v -0.325578 -0.097439 -0.069946
v -0.325578 -0.063366 -0.104019
v -0.325578 -0.018848 -0.122459
v -0.325578 0.029338 -0.122459
v -0.325578 0.073856 -0.104019
v -0.325578 0.107929 -0.069946
v -0.325578 0.126369 -0.025428
v -0.325578 0.126369 0.022758
v -0.325578 0.107929 0.067276
v -0.325578 0.073856 0.101349
v -0.325578 0.029338 0.119790
v -0.332638 -0.019018 0.120646
v -0.332638 -0.063851 0.102076
v -0.332638 -0.098165 0.067762
v -0.332638 -0.116735 0.022929
v -0.332638 -0.116735 -0.025598
v -0.332638 -0.098165 -0.070431
v -0.332638 -0.063851 -0.104745
v -0.332638 -0.019018 -0.123315
v -0.332638 0.029508 -0.123315
v -0.332638 0.074341 -0.104745
v -0.332638 0.108655 -0.070431
v -0.332638 0.127225 -0.025598
v -0.332638 0.127225 0.022929
v -0.332638 0.108655 0.067762
v -0.332638 0.074341 0.102076
v -0.332638 0.029508 0.120646
v -0.332638 -0.019881 0.124982
v -0.332638 -0.066308 0.105751
v -0.332638 -0.101841 0.070218
v -0.332638 -0.121072 0.023791
v -0.332638 -0.121072 -0.026461
v -0.332638 -0.101841 -0.072887
v -0.332638 -0.066308 -0.108421
v -0.332638 -0.019881 -0.127651
v -0.332638 0.030371 -0.127651
v -0.332638 0.076798 -0.108421
v -0.332638 0.112331 -0.072887
v -0.332638 0.131562 -0.026461
v -0.332638 0.131562 0.023791
v -0.332638 0.112331 0.070218
v -0.332638 0.076798 0.105751
v -0.332638 0.030371 0.124982
v -0.182996 -0.002127 0.035728
v -0.182996 -0.015749 0.030086
v -0.182996 -0.026175 0.019659
v -0.182996 -0.031818 0.006038
v -0.182996 -0.031818 -0.008707
v -0.182996 -0.026175 -0.022329
v -0.182996 -0.015749 -0.032755
v -0.182996 -0.002127 -0.038397
v -0.182996 0.012617 -0.038397
v -0.182996 0.026239 -0.032755
v -0.182996 0.036665 -0.022329
v -0.182996 0.042308 -0.008707
v -0.182996 0.042308 0.006038
v -0.182996 0.036665 0.019659
v -0.182996 0.026239 0.030086
v -0.182996 0.012617 0.035728
v -0.310496 0.000811 0.020957
v -0.310496 -0.007382 0.017564
v -0.310496 -0.013653 0.011293
v -0.310496 -0.017047 0.003099
v -0.310496 -0.017047 -0.005769
v -0.310496 -0.013653 -0.013962
v -0.310496 -0.007382 -0.020233
v -0.310496 0.000811 -0.023627
v -0.310496 0.009679 -0.023627
v -0.310496 0.017872 -0.020233
v -0.310496 0.024143 -0.013962
v -0.310496 0.027537 -0.005769
v -0.310496 0.027537 0.003099
v -0.310496 0.024143 0.011293
v -0.310496 0.017872 0.017564
v -0.310496 0.009679 0.020957
vn 0.3103 -0.3638 0.8783
vn 0.8568 -0.3646 0.3646
vn 0.8568 -0.4764 0.1973
vn 0.8568 -0.5156 -0.0000
vn 0.8568 -0.4764 -0.1973
vn 0.8568 -0.3646 -0.3646
vn 0.8568 -0.1973 -0.4764
vn 0.8568 -0.0000 -0.5157
vn 0.8568 0.1973 -0.4764
vn 0.8568 0.3646 -0.3646
vn 0.8568 0.4764 -0.1973
vn 0.8568 0.5156 -0.0000
vn 0.8568 0.4764 0.1973
vn 0.8568 0.3646 0.3646
vn 0.8568 0.1973 0.4764
vn -0.0000 0.3827 -0.9239
vn -0.0000 0.7071 0.7071
vn 1.0000 -0.0000 -0.0000
vn 0.3955 -0.3515 0.8486
vn 0.3137 -0.3634 0.8772
vn 0.3224 0.3623 0.8746
vn 0.3224 0.6693 0.6694
vn 0.3224 0.8746 0.3622
vn 0.3224 0.9466 -0.0000
vn 0.3224 0.8746 -0.3623
vn 0.3224 0.6693 -0.6694
vn 0.3224 0.3623 -0.8745
vn 0.3224 -0.0000 -0.9466
vn 0.3224 -0.3623 -0.8745
vn 0.3224 -0.6693 -0.6694
vn 0.3224 -0.8746 -0.3623
vn 0.3224 -0.9466 -0.0000
vn 0.3224 -0.8746 0.3622
vn 0.3224 -0.6693 0.6694
vn 0.4266 -0.3461 0.8356
vn 0.3955 -0.0000 0.9185
vn 0.3955 0.3515 0.8486
vn 0.3955 0.6495 0.6495
vn 0.3955 0.8486 0.3515
vn 0.3955 0.9185 -0.0000
vn 0.3955 0.8486 -0.3515
vn 0.3955 0.6495 -0.6495
vn 0.3955 0.3515 -0.8486
vn 0.3955 -0.0000 -0.9185
vn 0.3955 -0.3515 -0.8486
vn 0.3955 -0.6495 -0.6495
vn 0.3955 -0.8486 -0.3515
vn 0.3955 -0.9185 -0.0000
vn 0.3955 -0.8486 0.3515
vn 0.3955 -0.6495 0.6495
vn 0.3224 -0.3623 0.8746
vn 0.3224 -0.0000 0.9466
vn 0.3103 0.3638 0.8783
vn 0.3103 0.6722 0.6722
vn 0.3103 0.8783 0.3638
vn 0.3103 0.9507 -0.0000
vn 0.3103 0.8783 -0.3638
vn 0.3103 0.6722 -0.6722
vn 0.3103 0.3638 -0.8783
vn 0.3103 -0.0000 -0.9506
vn 0.3103 -0.3638 -0.8783
vn 0.3103 -0.6722 -0.6722
vn 0.3103 -0.8783 -0.3638
vn 0.3103 -0.9507 -0.0000
vn 0.3103 -0.8783 0.3638
vn 0.3103 -0.6722 0.6722
vn -0.9458 0.3249 -0.0000
vn 0.9458 -0.2297 0.2297
vn -0.9458 0.2297 0.2297
vn -0.9458 -0.3002 0.1243
vn -0.9458 -0.1243 0.3002
vn 0.9457 -0.1243 0.3002
vn -0.9458 0.1243 0.3002
vn -0.9458 -0.2297 0.2297
vn 0.9457 -0.0000 0.3249
vn -0.9458 -0.0000 0.3249
vn 0.9458 0.1243 0.3002
vn -0.9458 -0.3249 -0.0000
vn 0.9458 0.2297 0.2297
vn -0.9458 -0.3002 -0.1243
vn 0.9458 0.3001 0.1243
vn -0.9458 -0.2297 -0.2297
vn 0.3103 -0.0000 0.9507
vn 0.3137 -0.6714 0.6714
vn 0.3137 -0.8772 0.3634
vn 0.3137 -0.9495 -0.0000
vn 0.3137 -0.8772 -0.3634
vn 0.3137 -0.6714 -0.6714
vn 0.3137 -0.3634 -0.8772
vn 0.3137 -0.0000 -0.9495
vn 0.3137 0.3634 -0.8772
vn 0.3137 0.6714 -0.6714
vn 0.3137 0.8772 -0.3634
vn 0.3137 0.9495 -0.0000
vn 0.3137 0.8772 0.3634
vn 0.3137 0.6714 0.6714
vn 0.3137 0.3634 0.8772
vn 0.3137 -0.0000 0.9495
vn 0.9458 -0.3001 0.1243
vn 0.9458 -0.3249 -0.0000
vn -0.9458 0.3002 -0.1243
vn 0.9458 -0.3002 -0.1243
vn -0.9458 0.2297 -0.2297
vn 0.9458 -0.0000 -0.3249
vn 0.9458 -0.2297 -0.2297
vn 0.9458 0.1243 -0.3002
vn -0.9458 0.1243 -0.3002
vn 0.9458 -0.1243 -0.3002
vn 0.9458 0.2297 -0.2297
vn -0.9458 -0.0000 -0.3249
vn 0.9458 0.3002 -0.1243
vn -0.9458 -0.1243 -0.3002
vn 0.9458 0.3249 -0.0000
vn 0.4266 -0.0000 0.9044
vn 0.8568 -0.1973 0.4764
vn -0.9458 0.3002 0.1243
vn 0.4266 0.3461 0.8356
vn 0.4266 0.6395 0.6395
vn 0.4266 0.8356 0.3461
vn 0.4266 0.9044 -0.0000
vn 0.4266 0.8356 -0.3461
vn 0.4266 0.6395 -0.6395
vn 0.4266 0.3461 -0.8356
vn 0.4266 -0.0000 -0.9044
vn 0.4266 -0.3461 -0.8356
vn 0.4266 -0.6395 -0.6395
vn 0.4266 -0.8356 -0.3461
vn 0.4266 -0.9044 -0.0000
vn 0.4266 -0.8356 0.3461
vn 0.4266 -0.6395 0.6395
vn -0.4935 -0.8035 0.3328
vn -0.0000 -0.9239 0.3827
vn -0.0000 -0.3827 -0.9239
vn -0.0000 1.0000 -0.0000
vn -0.0000 -0.3827 0.9239
vn -0.0000 -0.9239 -0.3827
vn -0.0000 0.7071 -0.7071
vn -0.0000 -0.0000 -1.0000
vn -0.0000 -0.7071 -0.7071
vn -0.0000 0.3827 0.9239
vn -0.0000 -1.0000 -0.0000
vn -0.0000 0.9239 0.3827
vn -0.0000 -0.7071 0.7071
vn -0.0000 0.9239 -0.3827
vn -0.0000 -0.0000 1.0000
vn -1.0000 -0.0000 -0.0000
vn -0.4935 0.8697 -0.0000
vn -0.1151 0.7024 -0.7024
vn -0.4935 0.8035 0.3328
vn -0.4935 -0.8697 -0.0000
vn -0.4935 0.6150 0.6150
vn -0.4935 -0.8035 -0.3328
vn -0.4935 0.3328 0.8035
vn -0.4935 -0.0000 -0.8697
vn -0.4935 -0.6150 -0.6150
vn -0.4935 0.3328 -0.8035
vn -0.4935 -0.0000 0.8697
vn -0.4935 -0.3328 -0.8035
vn -0.4935 0.6150 -0.6150
vn -0.4935 -0.3328 0.8035
vn -0.4935 0.8035 -0.3328
vn -0.4935 -0.6150 0.6150
vn -0.1151 -0.9177 0.3802
vn -0.1151 -0.9934 -0.0000
vn -0.1151 0.9177 -0.3802
vn -0.1151 -0.9177 -0.3802
vn -0.1151 0.9934 -0.0000
vn -0.1151 -0.7024 -0.7024
vn -0.1151 0.9177 0.3802
vn -0.1151 -0.3801 -0.9177
vn -0.1151 -0.0000 0.9934
vn -0.1151 0.7024 0.7024
vn -0.1151 -0.3801 0.9178
vn -0.1151 -0.0000 -0.9934
vn -0.1151 0.3801 0.9178
vn -0.1151 -0.7024 0.7024
vn -0.1151 0.3801 -0.9177
vn 0.8568 -0.0000 0.5157
vt 0.136732 0.837004
vt 0.140986 0.905943
vt 0.118839 0.905943
vt 0.123094 0.837004
vt 0.856966 0.947001
vt 0.927224 0.947001
vt 0.925780 0.955474
vt 0.858410 0.955474
vt 0.088022 0.934998
vt 0.158281 0.934998
vt 0.156837 0.943472
vt 0.089467 0.943471
vt 0.134152 0.599005
vt 0.204411 0.599005
vt 0.202966 0.607478
vt 0.135597 0.607478
vt 0.962897 0.597920
vt 0.962897 0.668177
vt 0.954425 0.666733
vt 0.954424 0.599364
vt 0.962493 0.681919
vt 0.962493 0.752177
vt 0.954019 0.750734
vt 0.954020 0.683363
vt 0.959954 0.299919
vt 0.959954 0.370177
vt 0.951481 0.368733
vt 0.951480 0.301364
vt 0.288048 0.953002
vt 0.358306 0.953002
vt 0.356862 0.961475
vt 0.289492 0.961475
vt 0.956520 0.839919
vt 0.956520 0.910177
vt 0.948047 0.908732
vt 0.948048 0.841362
vt 0.656045 0.517476
vt 0.585787 0.517476
vt 0.587231 0.509004
vt 0.654602 0.509003
vt 0.948052 0.830177
vt 0.948052 0.759920
vt 0.956525 0.761364
vt 0.956525 0.828734
vt 0.005004 0.336176
vt 0.005004 0.265918
vt 0.013478 0.267362
vt 0.013478 0.334732
vt 0.212167 0.033475
vt 0.141908 0.033475
vt 0.143353 0.025002
vt 0.210722 0.025002
vt 0.553773 0.555476
vt 0.483516 0.555476
vt 0.484960 0.547002
vt 0.552330 0.547002
vt 0.656586 0.939000
vt 0.726844 0.939000
vt 0.725401 0.947473
vt 0.658030 0.947474
vt 0.729312 0.990502
vt 0.729312 0.985000
vt 0.799570 0.985000
vt 0.799570 0.990502
vt 0.993898 0.582997
vt 0.993898 0.653255
vt 0.988396 0.653255
vt 0.988396 0.582997
vt 0.735883 0.831863
vt 0.741101 0.844464
vt 0.741101 0.858102
vt 0.735880 0.870702
vt 0.726236 0.880345
vt 0.713636 0.885563
vt 0.699998 0.885561
vt 0.687398 0.880341
vt 0.677756 0.870697
vt 0.672538 0.858097
vt 0.672538 0.844459
vt 0.677758 0.831859
vt 0.687402 0.822217
vt 0.700003 0.816998
vt 0.713641 0.817000
vt 0.726241 0.822220
vt 0.255057 0.792894
vt 0.350196 0.785409
vt 0.350196 0.837201
vt 0.255056 0.829716
vt 0.957856 0.419002
vt 0.974466 0.419002
vt 0.972457 0.451212
vt 0.959866 0.451212
vt 0.449394 0.920825
vt 0.366314 0.926153
vt 0.366314 0.889331
vt 0.449394 0.894658
vt 0.908452 0.828999
vt 0.913779 0.912079
vt 0.876957 0.912079
vt 0.882284 0.828999
vt 0.902479 0.123001
vt 0.907807 0.206081
vt 0.870984 0.206081
vt 0.876311 0.123001
vt 0.273238 0.888654
vt 0.356318 0.883326
vt 0.356318 0.920150
vt 0.273238 0.914821
vt 0.893560 0.488076
vt 0.888232 0.404996
vt 0.925054 0.404996
vt 0.919727 0.488076
vt 0.884304 0.394084
vt 0.878977 0.311004
vt 0.915799 0.311004
vt 0.910472 0.394084
vt 0.577949 0.848662
vt 0.661029 0.843334
vt 0.661029 0.880157
vt 0.577949 0.874829
vt 0.870208 0.300083
vt 0.864879 0.217002
vt 0.901703 0.217002
vt 0.896375 0.300082
vt 0.545607 0.920824
vt 0.462526 0.926151
vt 0.462526 0.889329
vt 0.545607 0.894657
vt 0.896770 0.582084
vt 0.891443 0.499004
vt 0.928266 0.499004
vt 0.922938 0.582085
vt 0.650748 0.916825
vt 0.567668 0.922152
vt 0.567668 0.885330
vt 0.650748 0.890658
vt 0.772456 0.888659
vt 0.855536 0.883330
vt 0.855536 0.920154
vt 0.772456 0.914826
vt 0.905388 0.016999
vt 0.910715 0.100079
vt 0.873892 0.100079
vt 0.879220 0.016999
vt 0.872605 0.728084
vt 0.867278 0.645004
vt 0.904100 0.645004
vt 0.898773 0.728083
vt 0.678646 0.515237
vt 0.770432 0.507447
vt 0.770432 0.574817
vt 0.678647 0.567029
vt 0.085150 0.200141
vt 0.033359 0.200141
vt 0.040843 0.105001
vt 0.077666 0.105001
vt 0.775984 0.458143
vt 0.768500 0.363003
vt 0.820291 0.363003
vt 0.812806 0.458142
vt 0.764498 0.694896
vt 0.859638 0.687411
vt 0.859638 0.739203
vt 0.764498 0.731718
vt 0.455337 0.831713
vt 0.360197 0.839198
vt 0.360197 0.787407
vt 0.455337 0.794891
vt 0.808238 0.005001
vt 0.815722 0.100141
vt 0.763930 0.100141
vt 0.771414 0.005001
vt 0.765575 0.352136
vt 0.758091 0.256997
vt 0.809883 0.256997
vt 0.802398 0.352136
vt 0.822849 0.206137
vt 0.815364 0.110997
vt 0.867156 0.110997
vt 0.859671 0.206137
vt 0.244043 0.857711
vt 0.148904 0.865196
vt 0.148904 0.813405
vt 0.244043 0.820889
vt 0.785333 0.564141
vt 0.777849 0.469001
vt 0.829641 0.469001
vt 0.822157 0.564141
vt 0.771966 0.682144
vt 0.764481 0.587004
vt 0.816273 0.587004
vt 0.808788 0.682144
vt 0.560481 0.831718
vt 0.465341 0.839202
vt 0.465342 0.787411
vt 0.560481 0.794896
vt 0.856735 0.256998
vt 0.864220 0.352137
vt 0.812429 0.352137
vt 0.819913 0.256998
vt 0.117161 0.290891
vt 0.212300 0.283407
vt 0.212300 0.335199
vt 0.117161 0.327715
vt 0.825753 0.100135
vt 0.818269 0.004996
vt 0.870060 0.004995
vt 0.862575 0.100135
vt 0.665613 0.831718
vt 0.570473 0.839203
vt 0.570473 0.787411
vt 0.665613 0.794896
vt 0.025750 0.870654
vt 0.108830 0.865327
vt 0.108830 0.902149
vt 0.025751 0.896821
vt 0.239446 0.869332
vt 0.239446 0.906155
vt 0.156366 0.900827
vt 0.156366 0.874660
vt 0.938568 0.324999
vt 0.942823 0.393938
vt 0.920676 0.393938
vt 0.924930 0.324999
vt 0.073940 0.023210
vt 0.005001 0.027465
vt 0.005001 0.005318
vt 0.073940 0.009572
vt 0.311376 0.941206
vt 0.242438 0.945460
vt 0.242438 0.923314
vt 0.311376 0.927567
vt 0.054673 0.279943
vt 0.050418 0.211004
vt 0.072566 0.211004
vt 0.068310 0.279943
vt 0.885548 0.807943
vt 0.881293 0.739005
vt 0.903440 0.739005
vt 0.899186 0.807943
vt 0.625102 0.163001
vt 0.629357 0.231940
vt 0.607210 0.231940
vt 0.611463 0.163001
vt 0.924738 0.227000
vt 0.928993 0.295939
vt 0.906846 0.295939
vt 0.911100 0.227000
vt 0.576734 0.931570
vt 0.645673 0.927316
vt 0.645673 0.949462
vt 0.576734 0.945207
vt 0.951036 0.512996
vt 0.955290 0.581935
vt 0.933143 0.581935
vt 0.937398 0.512996
vt 0.919075 0.073940
vt 0.914821 0.005001
vt 0.936968 0.005001
vt 0.932713 0.073940
vt 0.352360 0.291001
vt 0.356614 0.359940
vt 0.334467 0.359940
vt 0.338722 0.291001
vt 0.471431 0.935576
vt 0.540369 0.931320
vt 0.540369 0.953468
vt 0.471431 0.949213
vt 0.846050 0.943213
vt 0.777111 0.947466
vt 0.777111 0.925320
vt 0.846050 0.929574
vt 0.375379 0.935568
vt 0.444317 0.931314
vt 0.444317 0.953461
vt 0.375379 0.949206
vt 0.990610 0.174030
vt 0.990610 0.196177
vt 0.965211 0.191400
vt 0.965211 0.178808
vt 0.977388 0.408398
vt 0.951220 0.408398
vt 0.956000 0.382999
vt 0.972611 0.383000
vt 0.985677 0.932398
vt 0.963530 0.932398
vt 0.968308 0.906999
vt 0.980899 0.906999
vt 0.647510 0.990395
vt 0.625364 0.990395
vt 0.630142 0.964996
vt 0.642732 0.964996
vt 0.989434 0.894399
vt 0.967287 0.894399
vt 0.972065 0.869001
vt 0.984656 0.869001
vt 0.126887 0.980394
vt 0.100720 0.980394
vt 0.105498 0.954996
vt 0.122109 0.954997
vt 0.718541 0.984399
vt 0.696394 0.984399
vt 0.701172 0.959001
vt 0.713763 0.959001
vt 0.072608 0.578031
vt 0.072608 0.600178
vt 0.047210 0.595400
vt 0.047210 0.582809
vt 0.842435 0.980395
vt 0.816268 0.980395
vt 0.821045 0.954997
vt 0.837656 0.954997
vt 0.965800 0.164399
vt 0.970577 0.139000
vt 0.983168 0.139000
vt 0.987946 0.164399
vt 0.275238 0.980394
vt 0.249072 0.980394
vt 0.253848 0.954996
vt 0.270460 0.954996
vt 0.132286 0.955003
vt 0.154433 0.955003
vt 0.149654 0.980402
vt 0.137063 0.980402
vt 0.550366 0.978190
vt 0.550366 0.952022
vt 0.575764 0.956800
vt 0.575765 0.973410
vt 0.988394 0.068399
vt 0.966247 0.068399
vt 0.971025 0.043001
vt 0.983615 0.043000
vt 0.826530 0.244189
vt 0.826530 0.218023
vt 0.851930 0.222800
vt 0.851929 0.239412
vt 0.989431 0.858398
vt 0.967284 0.858398
vt 0.972061 0.832999
vt 0.984653 0.833000
vt 0.952080 0.487942
vt 0.929933 0.487942
vt 0.934188 0.419004
vt 0.947825 0.419004
vt 0.960688 0.507002
vt 0.977297 0.507002
vt 0.975288 0.539212
vt 0.962697 0.539212
vt 0.963405 0.551000
vt 0.980016 0.551000
vt 0.978006 0.583210
vt 0.965416 0.583210
vt 0.496525 0.977934
vt 0.496525 0.961323
vt 0.528736 0.963332
vt 0.528736 0.975923
vt 0.960570 0.462999
vt 0.977182 0.462999
vt 0.975171 0.495209
vt 0.962581 0.495209
vt 0.980679 0.237210
vt 0.964068 0.237210
vt 0.966078 0.205000
vt 0.978670 0.205000
vt 0.570656 0.378998
vt 0.587268 0.378998
vt 0.585257 0.411208
vt 0.572666 0.411208
vt 0.585773 0.973928
vt 0.585773 0.957317
vt 0.617983 0.959328
vt 0.617983 0.971919
vt 0.005002 0.593929
vt 0.005002 0.577318
vt 0.037212 0.579328
vt 0.037212 0.591918
vt 0.454316 0.975931
vt 0.454316 0.959320
vt 0.486527 0.961329
vt 0.486526 0.973921
vt 0.368201 0.975936
vt 0.368201 0.959324
vt 0.400411 0.961335
vt 0.400411 0.973925
vt 0.318607 0.535210
vt 0.301996 0.535210
vt 0.304007 0.503000
vt 0.316598 0.503000
vt 0.769390 0.973930
vt 0.769390 0.957318
vt 0.801600 0.959329
vt 0.801600 0.971920
vt 0.655671 0.973936
vt 0.655671 0.957326
vt 0.687881 0.959335
vt 0.687882 0.971926
vt 0.293819 0.418998
vt 0.310430 0.418998
vt 0.308419 0.451208
vt 0.295829 0.451208
vt 0.976160 0.248995
vt 0.974149 0.281205
vt 0.961558 0.281205
vt 0.959548 0.248995
vt 0.069156 0.954999
vt 0.095323 0.954999
vt 0.090546 0.980398
vt 0.073934 0.980398
vt 0.079466 0.283001
vt 0.105634 0.283001
vt 0.100856 0.308399
vt 0.084245 0.308399
vt 0.989441 0.786399
vt 0.967294 0.786399
vt 0.972073 0.761000
vt 0.984663 0.761000
vt 0.190058 0.960397
vt 0.163891 0.960397
vt 0.168669 0.934998
vt 0.185280 0.934999
vt 0.988387 0.104396
vt 0.966239 0.104396
vt 0.971017 0.078997
vt 0.983609 0.078996
vt 0.195460 0.934997
vt 0.221627 0.934997
vt 0.216850 0.960396
vt 0.200237 0.960396
vt 0.758617 0.964402
vt 0.732449 0.964402
vt 0.737227 0.939002
vt 0.753837 0.939003
vt 0.006026 0.954999
vt 0.032192 0.954999
vt 0.027415 0.980399
vt 0.010804 0.980398
vt 0.988394 0.030399
vt 0.966246 0.030399
vt 0.971025 0.005001
vt 0.983616 0.005001
vt 0.063759 0.980400
vt 0.037592 0.980400
vt 0.042371 0.955002
vt 0.058981 0.955001
vt 0.005000 0.792201
vt 0.005000 0.766033
vt 0.030400 0.770813
vt 0.030400 0.787423
vt 0.989432 0.822398
vt 0.967286 0.822398
vt 0.972063 0.796999
vt 0.984654 0.796999
vt 0.968970 0.968402
vt 0.942802 0.968402
vt 0.947580 0.943003
vt 0.964191 0.943002
vt 0.085469 0.072029
vt 0.085469 0.094176
vt 0.060070 0.089398
vt 0.060070 0.076807
vt 0.822588 0.666196
vt 0.822588 0.640029
vt 0.847987 0.644807
vt 0.847987 0.661418
vt 0.357345 0.712811
vt 0.357345 0.645441
vt 0.449131 0.653230
vt 0.449131 0.705022
vt 0.005922 0.935000
vt 0.076181 0.935000
vt 0.074736 0.943474
vt 0.007366 0.943473
vt 0.410414 0.986176
vt 0.410414 0.964030
vt 0.435813 0.968808
vt 0.435813 0.981399
vt 0.550921 0.705025
vt 0.459136 0.712813
vt 0.459136 0.645443
vt 0.550922 0.653233
vt 0.321110 0.103004
vt 0.328900 0.194789
vt 0.261529 0.194789
vt 0.269319 0.103004
vt 0.149007 0.749234
vt 0.240793 0.741445
vt 0.240793 0.808815
vt 0.149007 0.801026
vt 0.754498 0.747022
vt 0.662713 0.754811
vt 0.662713 0.687441
vt 0.754498 0.695230
vt 0.664642 0.625233
vt 0.756428 0.617444
vt 0.756428 0.684813
vt 0.664642 0.677024
vt 0.560907 0.723231
vt 0.652693 0.715441
vt 0.652693 0.782812
vt 0.560907 0.775022
vt 0.347337 0.685020
vt 0.255551 0.692809
vt 0.255551 0.625439
vt 0.347337 0.633228
vt 0.728884 0.759235
vt 0.820670 0.751446
vt 0.820670 0.818816
vt 0.728884 0.811027
vt 0.808454 0.154999
vt 0.816242 0.246784
vt 0.748873 0.246784
vt 0.756662 0.154999
vt 0.047122 0.759232
vt 0.138908 0.751443
vt 0.138908 0.818814
vt 0.047122 0.811024
vt 0.347346 0.775020
vt 0.255560 0.782809
vt 0.255560 0.715439
vt 0.347346 0.723228
vt 0.459126 0.723235
vt 0.550911 0.715446
vt 0.550912 0.782816
vt 0.459126 0.775027
vt 0.357346 0.723228
vt 0.449132 0.715439
vt 0.449132 0.782809
vt 0.357346 0.775020
vt 0.652709 0.705024
vt 0.560923 0.712814
vt 0.560923 0.645443
vt 0.652709 0.653232
vt 0.083832 0.593359
vt 0.083832 0.525513
vt 0.324389 0.549129
vt 0.324388 0.569744
vt 0.972891 0.747255
vt 0.972891 0.676996
vt 0.978393 0.676996
vt 0.978393 0.747255
vt 0.851697 0.972501
vt 0.851697 0.966999
vt 0.921955 0.966999
vt 0.921955 0.972501
vt 0.443618 0.199004
vt 0.513877 0.199004
vt 0.513877 0.204506
vt 0.443618 0.204506
vt 0.731007 0.902505
vt 0.660749 0.902505
vt 0.660749 0.897003
vt 0.731007 0.897003
vt 0.988397 0.664997
vt 0.993898 0.664997
vt 0.993898 0.735255
vt 0.988397 0.735255
vt 0.190241 0.440506
vt 0.119983 0.440506
vt 0.119983 0.435004
vt 0.190241 0.435004
vt 0.229694 0.992501
vt 0.159435 0.992501
vt 0.159435 0.986999
vt 0.229694 0.986999
vt 0.923463 0.988499
vt 0.853205 0.988499
vt 0.853205 0.982997
vt 0.923463 0.982997
vt 0.285999 0.988999
vt 0.356258 0.988999
vt 0.356258 0.994501
vt 0.285999 0.994501
vt 0.987505 0.489254
vt 0.987505 0.418996
vt 0.993007 0.418996
vt 0.993007 0.489254
vt 0.978393 0.594996
vt 0.978393 0.665255
vt 0.972891 0.665255
vt 0.972891 0.594996
vt 0.445807 0.988997
vt 0.516065 0.988997
vt 0.516065 0.994499
vt 0.445807 0.994499
vt 0.162450 0.970999
vt 0.232708 0.970999
vt 0.232708 0.976500
vt 0.162450 0.976500
vt 0.285631 0.973002
vt 0.355889 0.973002
vt 0.355889 0.978504
vt 0.285631 0.978504
vt 0.037030 0.084991
vt 0.011064 0.147671
vt 0.005001 0.146466
vt 0.031891 0.081557
vt 0.011060 0.215517
vt 0.004999 0.216724
vt 0.037021 0.278201
vt 0.031882 0.281635
vt 0.084994 0.326177
vt 0.081560 0.331318
vt 0.147675 0.352143
vt 0.146469 0.358207
vt 0.215521 0.352147
vt 0.216727 0.358209
vt 0.278205 0.326186
vt 0.281638 0.331327
vt 0.326181 0.278213
vt 0.331320 0.281648
vt 0.352147 0.215534
vt 0.358209 0.216739
vt 0.352150 0.147687
vt 0.358213 0.146481
vt 0.326189 0.085004
vt 0.331329 0.081570
vt 0.278217 0.037028
vt 0.281652 0.031888
vt 0.215536 0.011061
vt 0.216743 0.004998
vt 0.147690 0.011058
vt 0.146484 0.004995
vt 0.085006 0.037019
vt 0.081574 0.031879
vt 0.661172 0.497559
vt 0.593326 0.497559
vt 0.616942 0.257003
vt 0.637557 0.257003
vt 0.425711 0.009242
vt 0.446191 0.006888
vt 0.462600 0.185636
vt 0.450282 0.187052
vt 0.004998 0.673364
vt 0.004998 0.605518
vt 0.245554 0.629133
vt 0.245554 0.649747
vt 0.706992 0.245557
vt 0.639146 0.245557
vt 0.662761 0.005001
vt 0.683377 0.005001
vt 0.769735 0.497557
vt 0.701888 0.497557
vt 0.725504 0.257000
vt 0.746118 0.257000
vt 0.073361 0.565553
vt 0.005515 0.565553
vt 0.029130 0.324996
vt 0.049743 0.324996
vt 0.078726 0.513358
vt 0.078726 0.445512
vt 0.319282 0.469129
vt 0.319283 0.489743
vt 0.321027 0.441359
vt 0.321027 0.373514
vt 0.561584 0.397129
vt 0.561584 0.417743
vt 0.070471 0.429366
vt 0.070471 0.361519
vt 0.311028 0.385135
vt 0.311027 0.405750
vt 0.479856 0.633366
vt 0.479856 0.565520
vt 0.720413 0.589135
vt 0.720413 0.609749
vt 0.469860 0.565510
vt 0.469861 0.633355
vt 0.229304 0.609740
vt 0.229304 0.589126
vt 0.005003 0.753360
vt 0.005003 0.685514
vt 0.245560 0.709130
vt 0.245560 0.729745
vt 0.693429 0.004997
vt 0.761276 0.004997
vt 0.737660 0.245554
vt 0.717044 0.245554
vt 0.569839 0.427515
vt 0.569839 0.495361
vt 0.329282 0.471746
vt 0.329282 0.451132
vt 0.647609 0.257003
vt 0.715455 0.257003
vt 0.691837 0.497560
vt 0.671224 0.497559
vt 0.334387 0.551363
vt 0.334387 0.483516
vt 0.574944 0.507132
vt 0.574944 0.527747
vt 0.569371 0.012531
vt 0.589548 0.016747
vt 0.548825 0.191566
vt 0.536687 0.189030
vt 0.310005 0.209749
vt 0.318772 0.218516
vt 0.323518 0.229970
vt 0.323518 0.242369
vt 0.318772 0.253825
vt 0.310005 0.262593
vt 0.298550 0.267337
vt 0.286151 0.267337
vt 0.274696 0.262593
vt 0.265929 0.253825
vt 0.261184 0.242370
vt 0.261184 0.229971
vt 0.265929 0.218516
vt 0.274696 0.209749
vt 0.286152 0.205003
vt 0.298551 0.205003
vt 0.549019 0.009242
vt 0.524448 0.187052
vt 0.405360 0.012530
vt 0.438042 0.189030
vt 0.528539 0.006888
vt 0.512130 0.185636
vt 0.385180 0.016747
vt 0.425905 0.191565
vt 0.507973 0.005474
vt 0.499760 0.184786
vt 0.365217 0.021882
vt 0.413896 0.194654
vt 0.487365 0.005002
vt 0.487365 0.184502
vt 0.629222 0.027925
vt 0.648633 0.034864
vt 0.584362 0.202462
vt 0.572687 0.198289
vt 0.345507 0.027925
vt 0.402041 0.198289
vt 0.609514 0.021882
vt 0.560834 0.194654
vt 0.466756 0.005474
vt 0.474969 0.184785
vt 0.326096 0.034864
vt 0.390367 0.202462
vt 0.949218 0.290732
vt 0.940746 0.292176
vt 0.940746 0.221918
vt 0.949218 0.223362
s 1
f 1/1/1 65/2/1 66/3/1 3/4/1
f 4/5/2 6/6/2 131/7/2 130/8/2
f 6/9/3 8/10/3 132/11/3 131/12/3
f 8/13/4 10/14/4 133/15/4 132/16/4
f 10/17/5 12/18/5 134/19/5 133/20/5
f 12/21/6 14/22/6 135/23/6 134/24/6
f 14/25/7 16/26/7 136/27/7 135/28/7
f 16/29/8 18/30/8 137/31/8 136/32/8
f 18/33/9 20/34/9 138/35/9 137/36/9
f 20/37/10 22/38/10 139/39/10 138/40/10
f 22/41/11 24/42/11 140/43/11 139/44/11
f 24/45/12 26/46/12 141/47/12 140/48/12
f 26/49/13 28/50/13 142/51/13 141/52/13
f 28/53/14 30/54/14 143/55/14 142/56/14
f 30/57/15 32/58/15 144/59/15 143/60/15
f 18/61/16 169/62/16 170/63/16 20/64/16
f 30/65/17 28/66/17 174/67/17 175/68/17
f 1/69/18 3/70/18 5/71/18 7/72/18 9/73/18 11/74/18 13/75/18 15/76/18 17/77/18 19/78/18 21/79/18 23/80/18 25/81/18 27/82/18 29/83/18 31/84/18
f 33/85/19 49/86/19 50/87/19 34/88/19
f 97/89/20 99/90/20 100/91/20 98/92/20
f 95/93/21 47/94/21 48/95/21 96/96/21
f 94/97/22 46/98/22 47/99/22 95/100/22
f 93/101/23 45/102/23 46/103/23 94/104/23
f 92/105/24 44/106/24 45/107/24 93/108/24
f 91/109/25 43/110/25 44/111/25 92/112/25
f 90/113/26 42/114/26 43/115/26 91/116/26
f 89/117/27 41/118/27 42/119/27 90/120/27
f 88/121/28 40/122/28 41/123/28 89/124/28
f 87/125/29 39/126/29 40/127/29 88/128/29
f 86/129/30 38/130/30 39/131/30 87/132/30
f 85/133/31 37/134/31 38/135/31 86/136/31
f 84/137/32 36/138/32 37/139/32 85/140/32
f 83/141/33 35/142/33 36/143/33 84/144/33
f 82/145/34 34/146/34 35/147/34 83/148/34
f 49/149/35 129/150/35 130/151/35 50/152/35
f 64/153/36 49/154/36 33/155/36 48/156/36
f 47/157/37 63/158/37 64/159/37 48/160/37
f 46/161/38 62/162/38 63/163/38 47/164/38
f 45/165/39 61/166/39 62/167/39 46/168/39
f 44/169/40 60/170/40 61/171/40 45/172/40
f 43/173/41 59/174/41 60/175/41 44/176/41
f 42/177/42 58/178/42 59/179/42 43/180/42
f 41/181/43 57/182/43 58/183/43 42/184/43
f 40/185/44 56/186/44 57/187/44 41/188/44
f 39/189/45 55/190/45 56/191/45 40/192/45
f 38/193/46 54/194/46 55/195/46 39/196/46
f 37/197/47 53/198/47 54/199/47 38/200/47
f 36/201/48 52/202/48 53/203/48 37/204/48
f 35/205/49 51/206/49 52/207/49 36/208/49
f 34/209/50 50/210/50 51/211/50 35/212/50
f 81/213/51 33/214/51 34/215/51 82/216/51
f 48/217/52 33/218/52 81/219/52 96/220/52
f 29/221/53 79/222/53 80/223/53 31/224/53
f 27/225/54 78/226/54 79/227/54 29/228/54
f 25/229/55 77/230/55 78/231/55 27/232/55
f 23/233/56 76/234/56 77/235/56 25/236/56
f 21/237/57 75/238/57 76/239/57 23/240/57
f 19/241/58 74/242/58 75/243/58 21/244/58
f 17/245/59 73/246/59 74/247/59 19/248/59
f 15/249/60 72/250/60 73/251/60 17/252/60
f 13/253/61 71/254/61 72/255/61 15/256/61
f 11/257/62 70/258/62 71/259/62 13/260/62
f 9/261/63 69/262/63 70/263/63 11/264/63
f 7/265/64 68/266/64 69/267/64 9/268/64
f 5/269/65 67/270/65 68/271/65 7/272/65
f 3/273/66 66/274/66 67/275/66 5/276/66
f 77/277/67 76/278/67 120/279/67 122/280/67
f 90/281/68 91/282/68 117/283/68 115/284/68
f 79/285/69 78/286/69 124/287/69 126/288/69
f 68/289/70 67/290/70 102/291/70 104/292/70
f 66/293/71 65/294/71 98/295/71 100/296/71
f 89/297/72 90/298/72 115/299/72 113/300/72
f 80/301/73 79/302/73 126/303/73 128/304/73
f 67/305/74 66/306/74 100/307/74 102/308/74
f 88/309/75 89/310/75 113/311/75 111/312/75
f 80/313/76 128/314/76 98/315/76 65/316/76
f 87/317/77 88/318/77 111/319/77 109/320/77
f 69/321/78 68/322/78 104/323/78 106/324/78
f 86/325/79 87/326/79 109/327/79 107/328/79
f 70/329/80 69/330/80 106/331/80 108/332/80
f 85/333/81 86/334/81 107/335/81 105/336/81
f 71/337/82 70/338/82 108/339/82 110/340/82
f 80/341/83 65/342/83 1/343/83 31/344/83
f 99/345/84 101/346/84 102/347/84 100/348/84
f 101/349/85 103/350/85 104/351/85 102/352/85
f 103/353/86 105/354/86 106/355/86 104/356/86
f 105/357/87 107/358/87 108/359/87 106/360/87
f 107/361/88 109/362/88 110/363/88 108/364/88
f 109/365/89 111/366/89 112/367/89 110/368/89
f 111/369/90 113/370/90 114/371/90 112/372/90
f 113/373/91 115/374/91 116/375/91 114/376/91
f 115/377/92 117/378/92 118/379/92 116/380/92
f 117/381/93 119/382/93 120/383/93 118/384/93
f 119/385/94 121/386/94 122/387/94 120/388/94
f 121/389/95 123/390/95 124/391/95 122/392/95
f 123/393/96 125/394/96 126/395/96 124/396/96
f 125/397/97 127/398/97 128/399/97 126/400/97
f 97/401/98 98/402/98 128/403/98 127/404/98
f 91/405/99 92/406/99 119/407/99 117/408/99
f 92/409/100 93/410/100 121/411/100 119/412/100
f 76/413/101 75/414/101 118/415/101 120/416/101
f 93/417/102 94/418/102 123/419/102 121/420/102
f 75/421/103 74/422/103 116/423/103 118/424/103
f 96/425/104 81/426/104 97/427/104 127/428/104
f 94/429/105 95/430/105 125/431/105 123/432/105
f 81/433/106 82/434/106 99/435/106 97/436/106
f 74/437/107 73/438/107 114/439/107 116/440/107
f 95/441/108 96/442/108 127/443/108 125/444/108
f 82/445/109 83/446/109 101/447/109 99/448/109
f 73/449/110 72/450/110 112/451/110 114/452/110
f 83/453/111 84/454/111 103/455/111 101/456/111
f 72/457/112 71/458/112 110/459/112 112/460/112
f 84/461/113 85/462/113 105/463/113 103/464/113
f 144/465/114 129/466/114 49/467/114 64/468/114
f 2/469/115 4/470/115 130/471/115 129/472/115
f 78/473/116 77/474/116 122/475/116 124/476/116
f 63/477/117 143/478/117 144/479/117 64/480/117
f 62/481/118 142/482/118 143/483/118 63/484/118
f 61/485/119 141/486/119 142/487/119 62/488/119
f 60/489/120 140/490/120 141/491/120 61/492/120
f 59/493/121 139/494/121 140/495/121 60/496/121
f 58/497/122 138/498/122 139/499/122 59/500/122
f 57/501/123 137/502/123 138/503/123 58/504/123
f 56/505/124 136/506/124 137/507/124 57/508/124
f 55/509/125 135/510/125 136/511/125 56/512/125
f 54/513/126 134/514/126 135/515/126 55/516/126
f 53/517/127 133/518/127 134/519/127 54/520/127
f 52/521/128 132/522/128 133/523/128 53/524/128
f 51/525/129 131/526/129 132/527/129 52/528/129
f 50/529/130 130/530/130 131/531/130 51/532/130
f 156/533/131 155/534/131 187/535/131 188/536/131
f 8/537/132 6/538/132 163/539/132 164/540/132
f 14/541/133 167/542/133 168/543/133 16/544/133
f 26/545/134 24/546/134 172/547/134 173/548/134
f 4/549/135 2/550/135 161/551/135 162/552/135
f 10/553/136 165/554/136 166/555/136 12/556/136
f 22/557/137 20/558/137 170/559/137 171/560/137
f 18/561/138 16/562/138 168/563/138 169/564/138
f 14/565/139 12/566/139 166/567/139 167/568/139
f 32/569/140 30/570/140 175/571/140 176/572/140
f 10/573/141 8/574/141 164/575/141 165/576/141
f 28/577/142 26/578/142 173/579/142 174/580/142
f 6/581/143 4/582/143 162/583/143 163/584/143
f 24/585/144 22/586/144 171/587/144 172/588/144
f 2/589/145 32/590/145 176/591/145 161/592/145
f 160/593/146 145/594/146 161/595/146 176/596/146
f 145/594/146 146/597/146 162/598/146 161/595/146
f 146/597/146 147/599/146 163/600/146 162/598/146
f 147/599/146 148/601/146 164/602/146 163/600/146
f 148/601/146 149/603/146 165/604/146 164/602/146
f 149/603/146 150/605/146 166/606/146 165/604/146
f 150/605/146 151/607/146 167/608/146 166/606/146
f 151/607/146 152/609/146 168/610/146 167/608/146
f 152/609/146 153/611/146 169/612/146 168/610/146
f 153/611/146 154/613/146 170/614/146 169/612/146
f 154/613/146 155/615/146 171/616/146 170/614/146
f 155/615/146 156/617/146 172/618/146 171/616/146
f 156/617/146 157/619/146 173/620/146 172/618/146
f 157/619/146 158/621/146 174/622/146 173/620/146
f 158/621/146 159/623/146 175/624/146 174/622/146
f 159/623/146 160/593/146 176/596/146 175/624/146
f 149/625/147 148/626/147 180/627/147 181/628/147
f 187/629/148 186/630/148 202/631/148 203/632/148
f 150/633/149 149/634/149 181/635/149 182/636/149
f 157/637/150 156/638/150 188/639/150 189/640/150
f 151/641/151 150/642/151 182/643/151 183/644/151
f 158/645/152 157/646/152 189/647/152 190/648/152
f 152/649/153 151/650/153 183/651/153 184/652/153
f 145/653/154 160/654/154 192/655/154 177/656/154
f 159/657/155 158/658/155 190/659/155 191/660/155
f 146/661/156 145/662/156 177/663/156 178/664/156
f 153/665/157 152/666/157 184/667/157 185/668/157
f 160/669/158 159/670/158 191/671/158 192/672/158
f 147/673/159 146/674/159 178/675/159 179/676/159
f 154/677/160 153/678/160 185/679/160 186/680/160
f 148/681/161 147/682/161 179/683/161 180/684/161
f 155/685/162 154/686/162 186/687/162 187/688/162
f 180/689/163 179/690/163 195/691/163 196/692/163
f 193/693/146 208/694/146 207/695/146 206/696/146 205/697/146 204/698/146 203/699/146 202/700/146 201/701/146 200/702/146 199/703/146 198/704/146 197/705/146 196/706/146 195/707/146 194/708/146
f 181/709/164 180/689/164 196/692/164 197/710/164
f 188/711/165 187/629/165 203/632/165 204/712/165
f 182/713/166 181/709/166 197/710/166 198/714/166
f 189/715/167 188/711/167 204/712/167 205/716/167
f 183/717/168 182/713/168 198/714/168 199/718/168
f 190/719/169 189/715/169 205/716/169 206/720/169
f 184/721/170 183/717/170 199/718/170 200/722/170
f 177/723/171 192/724/171 208/725/171 193/726/171
f 191/727/172 190/719/172 206/720/172 207/728/172
f 178/729/173 177/723/173 193/726/173 194/730/173
f 185/731/174 184/721/174 200/722/174 201/732/174
f 192/733/175 191/727/175 207/728/175 208/734/175
f 179/690/176 178/729/176 194/730/176 195/691/176
f 186/630/177 185/731/177 201/732/177 202/631/177
f 144/735/178 32/736/178 2/737/178 129/738/178
