# Blender 5.1.2
# www.blender.org
mtllib SpeakerConePivot.mtl
o SpeakerConePivot
v -0.088188 -0.004235 0.005073
v -0.088188 -0.004235 -0.007743
v -0.088188 0.014725 -0.007743
v -0.088188 0.014725 0.005073
v -0.116093 -0.009993 0.010226
v -0.116093 -0.009993 -0.012896
v -0.116093 0.020483 -0.012896
v -0.116093 0.020483 0.010226
v -0.102339 0.078710 0.010621
v -0.102339 0.078710 -0.013290
v -0.102339 -0.068220 -0.013290
v -0.102339 -0.068220 0.010621
v -0.074433 -0.060513 0.008382
v -0.074433 -0.060513 -0.011051
v -0.074433 0.071003 -0.011051
v -0.074433 0.071003 0.008382
v -0.099061 0.088167 0.008101
v -0.099061 0.088167 -0.010770
v -0.099061 -0.077676 -0.010770
v -0.099061 -0.077676 0.008101
v -0.071155 -0.069970 0.006998
v -0.071155 -0.069970 -0.009667
v -0.071155 0.080460 -0.009667
v -0.071155 0.080460 0.006998
v -0.005211 0.046574 0.011502
v -0.005181 0.056030 0.011574
v -0.005211 -0.036084 0.011502
v -0.005211 -0.036083 -0.014255
v -0.005211 0.046574 -0.014255
v -0.005181 -0.045540 0.011574
v -0.005026 -0.045539 -0.014213
v -0.005181 0.056030 -0.014213
v 0.000515 0.046539 0.011568
v 0.000515 0.055996 0.011572
v 0.000515 -0.036049 0.011568
v 0.000515 -0.036049 -0.014218
v 0.000515 0.046539 -0.014218
v 0.000515 -0.045506 0.011572
v 0.000515 -0.045506 -0.014212
v 0.000515 0.055995 -0.014212
v 0.000515 -0.035966 0.053376
v -0.005571 -0.035999 0.053309
v -0.005571 0.046490 0.053309
v -0.005416 0.055862 0.053383
v -0.005416 -0.045372 0.053383
v 0.000515 -0.045338 0.053380
v -0.004885 -0.045644 -0.056022
v -0.005004 -0.036136 -0.056064
v -0.005043 0.056135 -0.056022
v -0.005006 0.046626 -0.056064
v 0.000515 -0.036101 -0.056027
v 0.000515 0.046455 0.053376
v 0.000515 0.055828 0.053380
v 0.000515 -0.045612 -0.056021
v 0.000515 0.056101 -0.056022
v 0.000515 0.046592 -0.056026
v -0.005003 -0.074927 0.011634
v -0.004848 -0.074927 -0.014175
v -0.005003 0.085415 -0.014175
v -0.005003 0.085415 0.011634
v 0.000515 -0.074924 0.011631
v -0.005238 -0.074914 0.053502
v 0.000515 -0.074925 -0.014176
v 0.000515 0.085415 -0.014176
v 0.000515 0.085415 0.011630
v 0.000515 -0.074911 0.053499
v -0.005238 0.085413 0.053502
v 0.000515 0.085413 0.053499
v 0.000515 -0.074933 -0.055947
v -0.004707 -0.074935 -0.055947
v -0.004865 0.085416 -0.055947
v 0.000515 0.085416 -0.055947
vn 0.1168 -0.0601 -0.9913
vn -0.9732 -0.2299 -0.0000
vn 0.1168 0.0601 -0.9913
vn -0.9732 0.2299 -0.0000
vn -0.0299 -0.0743 0.9968
vn 0.1046 0.1661 0.9805
vn 0.9714 -0.2374 -0.0000
vn 0.1168 0.0601 0.9913
vn 0.9714 0.2374 -0.0000
vn 0.1168 -0.0601 0.9913
vn -0.2021 0.9794 -0.0000
vn -0.2021 -0.9794 -0.0000
vn -0.9448 0.3275 -0.0000
vn 0.2662 0.9639 -0.0000
vn 0.2662 -0.9639 -0.0000
vn 0.1046 -0.1661 -0.9805
vn -0.9448 -0.3275 -0.0000
vn 0.1046 0.1661 -0.9805
vn -0.0281 -0.0803 -0.9964
vn -0.3328 0.9430 -0.0000
vn 0.1046 -0.1661 0.9805
vn 1.0000 -0.0000 -0.0000
vn -0.0000 -0.0025 -1.0000
vn -0.0299 0.0743 0.9968
vn 0.3472 0.9378 -0.0000
vn -0.3328 -0.9430 -0.0000
vn -0.0282 0.0801 -0.9964
vn 0.3469 -0.9379 0.0012
vn -0.9999 -0.0099 -0.0071
vn -1.0000 -0.0000 -0.0000
vn -1.0000 -0.0000 -0.0049
vn 0.0068 -0.0000 -1.0000
vn -0.0054 0.0041 1.0000
vn 0.0035 -0.0025 -1.0000
vn -0.0054 -0.0041 1.0000
vn 0.0034 0.0025 -1.0000
vn -0.0110 -0.0000 0.9999
vn -1.0000 -0.0061 -0.0060
vn -1.0000 -0.0061 -0.0034
vn -0.9999 -0.0160 -0.0041
vn 0.0005 -0.0040 1.0000
vn -1.0000 -0.0003 -0.0041
vn -0.9999 0.0099 -0.0071
vn -1.0000 -0.0000 -0.0086
vn 0.0001 1.0000 -0.0000
vn 0.0005 -1.0000 -0.0000
vn 0.0005 -1.0000 0.0003
vn 0.0005 -1.0000 0.0002
vn -1.0000 0.0061 -0.0000
vn -0.0000 0.0025 -1.0000
vn -1.0000 0.0061 -0.0033
vn 0.0005 0.0040 1.0000
vn -1.0000 -0.0061 -0.0056
vn -1.0000 0.0061 -0.0056
vt 0.595017 0.495047
vt 0.613039 0.441320
vt 0.723334 0.468622
vt 0.710160 0.525843
vt 0.123443 0.345194
vt 0.066476 0.239390
vt 0.109277 0.219578
vt 0.161187 0.323124
vt 0.160322 0.390127
vt 0.064995 0.460431
vt 0.031142 0.412547
vt 0.570138 0.431384
vt 0.597936 0.315582
vt 0.643425 0.328568
vt 0.289806 0.325790
vt 0.305818 0.313219
vt 0.398147 0.415332
vt 0.390057 0.432282
vt 0.455542 0.425696
vt 0.452231 0.484049
vt 0.432546 0.478917
vt 0.436277 0.425102
vt 0.562627 0.606578
vt 0.526808 0.592533
vt 0.569945 0.488202
vt 0.181780 0.374492
vt 0.263854 0.273349
vt 0.261024 0.453731
vt 0.234193 0.480983
vt 0.609122 0.297195
vt 0.643808 0.309069
vt 0.663122 0.257346
vt 0.633256 0.243106
vt 0.080616 0.152582
vt 0.097489 0.204513
vt 0.062928 0.217750
vt 0.048169 0.159492
vt 0.046174 0.468277
vt 0.015695 0.423903
vt 0.741909 0.473181
vt 0.730573 0.525769
vt 0.108121 0.600300
vt 0.089373 0.599222
vt 0.370831 0.547020
vt 0.336683 0.584412
vt 0.281278 0.265203
vt 0.902446 0.255821
vt 0.902447 0.092995
vt 0.984874 0.093157
vt 0.984872 0.255661
vt 0.026896 0.701064
vt 0.016245 0.701031
vt 0.016745 0.643230
vt 0.027039 0.643314
vt 0.851610 0.092997
vt 0.851609 0.255819
vt 0.769182 0.255919
vt 0.769182 0.092896
vt 0.403129 0.621799
vt 0.388913 0.609527
vt 0.688935 0.115095
vt 0.733926 0.138524
vt 0.511975 0.742935
vt 0.465388 0.723012
vt 0.741909 0.662854
vt 0.725210 0.671478
vt 0.015695 0.023218
vt 0.065762 0.015263
vt 0.902452 0.274465
vt 0.851618 0.274464
vt 0.851619 0.074353
vt 0.902453 0.074351
vt 0.984880 0.074678
vt 0.984878 0.274139
vt 0.985104 0.332447
vt 0.902562 0.332465
vt 0.160044 0.719883
vt 0.160185 0.701239
vt 0.242629 0.701563
vt 0.242465 0.720040
vt 0.160068 0.882849
vt 0.109289 0.882852
vt 0.109267 0.719890
vt 0.026858 0.882968
vt 0.026851 0.719804
vt 0.015973 0.882904
vt 0.015973 0.719852
vt 0.254325 0.701593
vt 0.254463 0.720094
vt 0.242657 0.901139
vt 0.242487 0.882663
vt 0.254486 0.882605
vt 0.254354 0.901104
vt 0.026954 0.901709
vt 0.015997 0.901707
vt 0.109342 0.701246
vt 0.109402 0.643303
vt 0.160294 0.643305
vt 0.769191 0.274668
vt 0.851685 0.332463
vt 0.769332 0.332474
vt 0.254237 0.959423
vt 0.242896 0.959401
vt 0.109376 0.901494
vt 0.160217 0.901494
vt 0.769190 0.074149
vt 0.109454 0.959421
vt 0.160341 0.959435
vt 0.160298 0.970316
vt 0.109430 0.970299
vt 0.109355 0.632728
vt 0.160226 0.632428
vt 0.242831 0.970741
vt 0.242772 0.631974
vt 0.242841 0.643315
vt 0.027003 0.633019
vt 0.027063 0.970046
vt 0.027096 0.959438
vt 0.769332 0.016355
vt 0.851686 0.016353
vt 0.902563 0.016351
vt 0.985107 0.016347
vt 0.016486 0.959526
vt 0.254181 0.643293
s 0
f 3/1/1 7/2/1 10/3/1 15/4/1
f 6/5/2 11/6/2 12/7/2 5/8/2
f 6/5/3 2/9/3 14/10/3 11/11/3
f 8/12/4 9/13/4 10/14/4 7/2/4
f 13/15/5 21/16/5 30/17/5 27/18/5
f 9/19/6 16/20/6 24/21/6 17/22/6
f 3/1/7 15/23/7 16/24/7 4/25/7
f 1/26/8 5/8/8 12/27/8 13/15/8
f 1/26/9 13/28/9 14/29/9 2/9/9
f 8/12/10 4/25/10 16/20/10 9/19/10
f 6/5/11 5/8/11 1/26/11 2/9/11
f 8/12/12 7/2/12 3/1/12 4/25/12
f 9/13/13 17/30/13 18/31/13 10/14/13
f 23/32/14 18/31/14 17/30/14 24/33/14
f 21/34/15 20/35/15 19/36/15 22/37/15
f 11/11/16 14/10/16 22/38/16 19/39/16
f 11/6/17 19/36/17 20/35/17 12/7/17
f 15/4/18 10/3/18 18/40/18 23/41/18
f 22/38/19 14/10/19 28/42/19 31/43/19
f 13/28/20 27/44/20 28/45/20 14/29/20
f 13/15/21 12/27/21 20/46/21 21/16/21
f 35/47/22 33/48/22 52/49/22 41/50/22
f 47/51/23 54/52/23 69/53/23 70/54/23
f 37/55/22 36/56/22 51/57/22 56/58/22
f 24/21/24 16/20/24 25/59/24 26/60/24
f 23/32/25 24/33/25 26/61/25 32/62/25
f 15/23/26 29/63/26 25/64/26 16/24/26
f 15/4/27 23/41/27 32/65/27 29/66/27
f 21/34/28 22/37/28 31/67/28 30/68/28
f 35/47/22 38/69/22 39/70/22 36/56/22
f 37/55/22 40/71/22 34/72/22 33/48/22
f 33/48/22 34/72/22 53/73/22 52/49/22
f 38/69/22 46/74/22 66/75/22 61/76/22
f 38/69/22 35/47/22 41/50/22 46/74/22
f 27/77/29 30/78/29 45/79/29 42/80/29
f 25/81/30 29/82/30 28/83/30 27/77/30
f 37/55/22 33/48/22 35/47/22 36/56/22
f 28/83/31 29/82/31 50/84/31 48/85/31
f 50/84/32 56/86/32 51/87/32 48/85/32
f 42/80/33 45/79/33 46/88/33 41/89/33
f 47/51/34 48/85/34 51/87/34 54/52/34
f 44/90/35 43/91/35 52/92/35 53/93/35
f 50/84/36 49/94/36 55/95/36 56/86/36
f 52/92/37 43/91/37 42/80/37 41/89/37
f 30/78/38 31/96/38 58/97/38 57/98/38
f 54/99/22 39/70/22 63/100/22 69/101/22
f 31/96/39 47/51/39 70/54/39 58/97/39
f 31/96/40 28/83/40 48/85/40 47/51/40
f 44/90/41 53/93/41 68/102/41 67/103/41
f 29/82/42 32/104/42 49/94/42 50/84/42
f 36/56/22 39/70/22 54/99/22 51/57/22
f 26/105/43 25/81/43 43/91/43 44/90/43
f 25/81/44 27/77/44 42/80/44 43/91/44
f 40/71/22 37/55/22 56/58/22 55/106/22
f 59/107/45 60/108/45 65/109/45 64/110/45
f 57/98/46 58/97/46 63/111/46 61/112/46
f 65/109/45 60/108/45 67/103/45 68/113/45
f 57/98/47 61/112/47 66/114/47 62/115/47
f 63/111/48 58/97/48 70/54/48 69/116/48
f 59/107/45 64/110/45 72/117/45 71/118/45
f 40/71/22 55/106/22 72/119/22 64/120/22
f 32/104/49 26/105/49 60/108/49 59/107/49
f 53/73/22 34/72/22 65/121/22 68/122/22
f 55/95/50 49/94/50 71/118/50 72/123/50
f 49/94/51 32/104/51 59/107/51 71/118/51
f 39/70/22 38/69/22 61/76/22 63/100/22
f 34/72/22 40/71/22 64/120/22 65/121/22
f 46/88/52 45/79/52 62/115/52 66/124/52
f 45/79/53 30/78/53 57/98/53 62/115/53
f 26/105/54 44/90/54 67/103/54 60/108/54
