# Blender 5.1.2
# www.blender.org
mtllib VentGrate.mtl
o VentGrate
v 0.010418 0.060373 -0.389026
v 0.010417 0.060373 0.389026
v 0.010417 0.789625 0.389026
v 0.010418 0.789625 -0.389026
v 0.010417 0.133298 0.389026
v 0.010417 0.206223 0.389026
v 0.010417 0.279149 0.389026
v 0.010417 0.352074 0.389026
v 0.010417 0.424999 0.389026
v 0.010417 0.497924 0.389026
v 0.010417 0.570849 0.389026
v 0.010417 0.643775 0.389026
v 0.010417 0.716700 0.389026
v 0.010418 0.716700 -0.389026
v 0.010418 0.643775 -0.389026
v 0.010418 0.570849 -0.389026
v 0.010418 0.497924 -0.389026
v 0.010418 0.424999 -0.389026
v 0.010418 0.352074 -0.389026
v 0.010418 0.279149 -0.389026
v 0.010418 0.206223 -0.389026
v 0.010418 0.133298 -0.389026
v -0.011461 0.728040 0.389026
v -0.011461 0.728040 -0.389026
v -0.011461 0.655114 0.389026
v -0.011461 0.655114 -0.389026
v -0.011461 0.580052 0.389026
v -0.011461 0.580052 -0.389026
v -0.011461 0.509264 0.389026
v -0.011461 0.509264 -0.389026
v -0.011461 0.436339 0.389026
v -0.011461 0.436339 -0.389026
v -0.011461 0.363288 0.389026
v -0.011461 0.363288 -0.389026
v -0.011461 0.290488 0.389026
v -0.011461 0.290488 -0.389026
v -0.011461 0.217563 0.389026
v -0.011461 0.217563 -0.389026
v -0.011461 0.144638 0.389026
v -0.011461 0.144638 -0.389026
v -0.011461 0.071713 -0.389026
v -0.011461 0.071713 0.389026
vn -0.9423 0.3348 -0.0000
vn -0.9425 0.3341 -0.0000
vn -0.9458 0.3247 -0.0000
vn -0.4602 -0.8878 -0.0000
vn -0.3877 -0.9218 -0.0000
vn -0.4561 -0.8899 -0.0000
vt 0.153761 0.378291
vt 0.153761 0.359836
vt 0.373457 0.359836
vt 0.373457 0.378291
vt 0.153761 0.607335
vt 0.153761 0.588881
vt 0.373457 0.588881
vt 0.373457 0.607335
vt 0.153761 0.581922
vt 0.153761 0.563468
vt 0.373457 0.563468
vt 0.373457 0.581922
vt 0.153761 0.556510
vt 0.153761 0.538055
vt 0.373457 0.538055
vt 0.373457 0.556510
vt 0.153761 0.531097
vt 0.153761 0.512643
vt 0.373457 0.512643
vt 0.373457 0.531097
vt 0.153761 0.505701
vt 0.153761 0.487213
vt 0.373457 0.487213
vt 0.373457 0.505701
vt 0.153761 0.480255
vt 0.153761 0.461800
vt 0.373457 0.461800
vt 0.373457 0.480255
vt 0.153761 0.454842
vt 0.153761 0.436388
vt 0.373457 0.436388
vt 0.373457 0.454842
vt 0.153761 0.429686
vt 0.153761 0.410662
vt 0.373457 0.410662
vt 0.373457 0.429686
vt 0.153761 0.403703
vt 0.153761 0.385249
vt 0.373457 0.385249
vt 0.373457 0.403703
vt 0.153761 0.614293
vt 0.373457 0.614293
s 0
f 23/1/1 3/2/1 4/3/1 24/4/1
f 42/5/1 5/6/1 22/7/1 41/8/1
f 39/9/1 6/10/1 21/11/1 40/12/1
f 37/13/1 7/14/1 20/15/1 38/16/1
f 35/17/1 8/18/1 19/19/1 36/20/1
f 33/21/2 9/22/2 18/23/2 34/24/2
f 31/25/1 10/26/1 17/27/1 32/28/1
f 29/29/1 11/30/1 16/31/1 30/32/1
f 27/33/3 12/34/3 15/35/3 28/36/3
f 25/37/1 13/38/1 14/39/1 26/40/1
f 13/38/4 23/1/4 24/4/4 14/39/4
f 12/34/4 25/37/4 26/40/4 15/35/4
f 11/30/5 27/33/5 28/36/5 16/31/5
f 10/26/4 29/29/4 30/32/4 17/27/4
f 9/22/4 31/25/4 32/28/4 18/23/4
f 8/18/6 33/21/6 34/24/6 19/19/6
f 7/14/4 35/17/4 36/20/4 20/15/4
f 6/10/4 37/13/4 38/16/4 21/11/4
f 5/6/4 39/9/4 40/12/4 22/7/4
f 2/41/4 42/5/4 41/8/4 1/42/4
o VentGrate1
v 0.014434 0.061281 0.386408
v 0.014434 0.787718 0.386408
v 0.014434 0.061281 -0.386408
v 0.014434 0.787718 -0.386408
v -0.033770 0.061281 0.386408
v -0.033770 0.787718 0.386408
v -0.033770 0.787718 -0.386408
v -0.033770 0.061281 -0.386408
v 0.014434 0.001827 0.445862
v 0.014434 0.847172 0.445862
v 0.014434 0.847172 -0.445862
v 0.014434 0.001827 -0.445862
v -0.033770 0.001827 0.445862
v -0.033770 0.847172 0.445862
v -0.033770 0.847172 -0.445862
v -0.033770 0.001827 -0.445862
v -0.033770 0.061281 0.386408
v -0.033770 0.787718 0.386408
v -0.033770 0.787718 -0.386408
v -0.033770 0.061281 -0.386408
vn -0.0000 -0.0000 1.0000
vn -0.0000 -1.0000 -0.0000
vn -0.0000 1.0000 -0.0000
vn -0.0000 -0.0000 -1.0000
vn -1.0000 -0.0000 -0.0000
vn 1.0000 -0.0000 -0.0000
vt 0.610107 0.710250
vt 0.610160 0.915368
vt 0.596549 0.915374
vt 0.596496 0.710249
vt 0.610107 0.068688
vt 0.610225 0.286908
vt 0.596614 0.286911
vt 0.596496 0.068697
vt 0.610182 0.492034
vt 0.596571 0.492029
vt 0.501579 0.011355
vt 0.501658 0.250056
vt 0.488047 0.250056
vt 0.487968 0.011362
vt 0.501547 0.740546
vt 0.501658 0.992336
vt 0.488047 0.992343
vt 0.487936 0.740548
vt 0.696425 0.388767
vt 0.901547 0.388767
vt 0.918335 0.405554
vt 0.679638 0.405554
vt 0.901547 0.170549
vt 0.696425 0.170549
vt 0.679638 0.153761
vt 0.918335 0.153761
vt 0.501594 0.501851
vt 0.487983 0.501847
vt 0.701335 0.510844
vt 0.684547 0.494056
vt 0.923244 0.494056
vt 0.906457 0.510844
vt 0.701335 0.729061
vt 0.684547 0.745849
vt 0.906457 0.729061
vt 0.923244 0.745849
s 0
f 45/43/7 46/44/7 49/45/7 50/46/7
f 46/47/8 44/48/8 48/49/8 49/50/8
f 43/51/9 45/43/9 50/46/9 47/52/9
f 44/48/10 43/51/10 47/52/10 48/49/10
f 53/53/10 54/54/10 58/55/10 57/56/10
f 52/57/9 53/58/9 57/59/9 56/60/9
f 60/61/11 59/62/11 55/63/11 56/64/11
f 62/65/11 61/66/11 57/67/11 58/68/11
f 59/62/11 62/65/11 58/68/11 55/63/11
f 61/66/11 60/61/11 56/64/11 57/67/11
f 51/69/7 52/57/7 56/60/7 55/70/7
f 54/54/8 51/69/8 55/70/8 58/55/8
f 44/71/12 52/72/12 51/73/12 43/74/12
f 44/71/12 46/75/12 53/76/12 52/72/12
f 45/77/12 54/78/12 53/76/12 46/75/12
f 45/77/12 43/74/12 51/73/12 54/78/12
