# Blender 5.2.1 LTS
# www.blender.org
mtllib VentilationPipe1.mtl
o VentilationPipe
v 0.264991 -0.742327 1.012565
v 0.264991 -0.243406 1.012565
v -0.264991 -0.742327 1.012565
v -0.264991 -0.243406 1.012565
v 0.264991 -0.842269 -1.016213
v 0.264991 -0.483558 -1.081677
v -0.264991 -0.842269 -1.016213
v -0.264991 -0.483558 -1.081677
v -0.264991 -0.842269 0.000000
v -0.264991 -0.483604 -0.000000
v 0.264991 -0.842269 0.000000
v 0.264991 -0.483604 -0.000000
v -0.389026 -0.857493 1.960924
v 0.389026 -0.857493 1.960924
v 0.389026 -0.128240 1.960924
v -0.389026 -0.128240 1.960924
v -0.091869 -0.118579 -1.812020
v -0.091869 -0.118031 -2.031002
v 0.091869 -0.118031 -2.031002
v 0.091869 -0.118579 -1.812020
v 0.264991 -0.483558 -1.256157
v 0.188892 -0.483552 -1.402631
v 0.177470 -0.454912 -1.571576
v 0.140800 -0.335757 -1.696527
v 0.105968 -0.196059 -1.779759
v -0.105968 -0.196058 -1.779759
v -0.140800 -0.335757 -1.696527
v -0.177470 -0.454912 -1.571576
v -0.188892 -0.483552 -1.402631
v -0.264991 -0.483558 -1.256157
v -0.121248 -0.249024 -2.031075
v -0.170153 -0.485709 -1.989553
v -0.188892 -0.668060 -1.852767
v -0.188892 -0.754093 -1.632996
v -0.264991 -0.773080 -1.308839
v 0.264991 -0.773080 -1.308839
v 0.188893 -0.754093 -1.632996
v 0.188893 -0.668060 -1.852767
v 0.170153 -0.485709 -1.989553
v 0.121248 -0.249024 -2.031075
v -0.091869 0.004493 -1.811712
v -0.091869 0.005040 -2.030694
v 0.091869 0.005040 -2.030694
v 0.091869 0.004493 -1.811712
v -0.416314 -0.884781 1.960924
v 0.416314 -0.884781 1.960924
v 0.416314 -0.100952 1.960924
v -0.416314 -0.100952 1.960924
v -0.389026 -0.857493 1.922153
v 0.389026 -0.857493 1.922153
v 0.389026 -0.128240 1.922153
v -0.389026 -0.128240 1.922153
vn -0.9960 -0.0000 -0.0889
vn -0.9968 -0.0000 -0.0802
vn -0.9875 -0.0000 -0.1576
vn -1.0000 -0.0000 -0.0000
vn -0.0000 0.4568 0.8896
vn -0.0000 0.2047 0.9788
vn 1.0000 -0.0000 -0.0000
vn 0.9960 -0.0000 -0.0889
vn 0.9968 -0.0000 -0.0802
vn -0.0000 -0.9988 0.0492
vn -0.0000 -0.9933 -0.1158
vn -0.0000 0.9932 -0.1162
vn -0.0000 0.9822 -0.1879
vn -0.0000 1.0000 -0.0000
vn -0.0000 -0.9995 -0.0313
vn 0.9875 -0.0000 -0.1576
vn -0.0000 0.9889 -0.1485
vn -0.0000 -0.9889 -0.1485
vn -0.0000 -0.0025 1.0000
vn -0.9773 0.2117 0.0036
vn -0.9773 0.2120 0.0033
vn -0.9934 0.1147 0.0050
vn -0.9946 0.1032 0.0045
vn 0.9773 0.2120 0.0033
vn 0.9773 0.2117 0.0036
vn 0.9946 0.1032 0.0045
vn 0.9934 0.1147 0.0050
vn -0.0000 -0.0982 -0.9952
vn -0.0000 0.0015 -1.0000
vn -0.0000 -0.9884 -0.1516
vn -0.0000 -0.9791 -0.2036
vn -0.0000 -0.9312 -0.3645
vn -0.0000 -0.6001 -0.8000
vn -0.0000 -0.4178 -0.9085
vn 0.9849 0.0781 -0.1546
vn 0.9885 0.0683 -0.1352
vn 0.9906 0.0787 -0.1116
vn 0.9706 0.1170 -0.2103
vn 0.9935 0.1112 -0.0242
vn 0.9961 0.0854 -0.0216
vn 0.9826 0.1851 -0.0156
vn 0.9829 0.1836 -0.0163
vn -0.9885 0.0683 -0.1352
vn -0.9849 0.0781 -0.1546
vn -0.9706 0.1170 -0.2103
vn -0.9906 0.0787 -0.1116
vn -0.9961 0.0854 -0.0216
vn -0.9935 0.1112 -0.0242
vn -0.9829 0.1836 -0.0163
vn -0.9826 0.1851 -0.0156
vn -0.0000 0.9975 0.0710
vn -0.0000 0.9859 0.1671
vn -0.0000 0.7237 0.6901
vn -0.0000 0.6377 0.7703
vn -0.0000 1.0000 0.0025
vn -0.0000 0.0025 -1.0000
vn -0.0000 -0.0000 1.0000
vn -0.0000 -1.0000 -0.0000
vt 0.133502 0.191633
vt 0.043999 0.189218
vt 0.023094 0.016248
vt 0.163706 0.020043
vt 0.021168 0.370380
vt 0.085510 0.372116
vt 0.080281 0.566161
vt 0.016248 0.552680
vt 0.168825 0.838427
vt 0.206858 0.838427
vt 0.204328 0.853488
vt 0.171355 0.853488
vt 0.201122 0.391632
vt 0.265464 0.389896
vt 0.313456 0.570379
vt 0.223953 0.572794
vt 0.403312 0.353202
vt 0.403312 0.170835
vt 0.498421 0.170835
vt 0.498421 0.353202
vt 0.680338 0.298711
vt 0.680338 0.485466
vt 0.585229 0.485466
vt 0.585229 0.298711
vt 0.680338 0.104596
vt 0.585229 0.104596
vt 0.403312 0.535797
vt 0.498421 0.535797
vt 0.196202 0.209332
vt 0.260235 0.195852
vt 0.343661 0.741969
vt 0.203048 0.745764
vt 0.707494 0.657565
vt 0.558073 0.657565
vt 0.525577 0.707896
vt 0.376156 0.707896
vt 0.204328 0.875574
vt 0.171355 0.875574
vt 0.115091 0.742737
vt 0.127956 0.698393
vt 0.141666 0.705122
vt 0.139129 0.744338
vt 0.307910 0.063619
vt 0.295045 0.019275
vt 0.319083 0.017674
vt 0.321620 0.056890
vt 0.028387 0.862291
vt 0.071905 0.862291
vt 0.066633 0.885799
vt 0.033659 0.885799
vt 0.403312 0.116874
vt 0.498421 0.116874
vt 0.416969 0.058602
vt 0.484765 0.058602
vt 0.416969 0.016248
vt 0.484765 0.016248
vt 0.016248 0.778260
vt 0.084044 0.778260
vt 0.080681 0.819167
vt 0.019611 0.819167
vt 0.207197 0.156502
vt 0.259390 0.164551
vt 0.208192 0.096660
vt 0.259198 0.134930
vt 0.221116 0.056326
vt 0.262507 0.104289
vt 0.252265 0.029596
vt 0.283124 0.080241
vt 0.079436 0.597461
vt 0.027243 0.605510
vt 0.079244 0.627082
vt 0.028238 0.665352
vt 0.082553 0.657723
vt 0.041162 0.705686
vt 0.103169 0.681771
vt 0.072311 0.732416
vt 0.585229 0.073285
vt 0.680338 0.073285
vt 0.598885 0.046999
vt 0.666681 0.046999
vt 0.600935 0.016248
vt 0.664631 0.016248
vt 0.155993 0.778260
vt 0.219690 0.778260
vt 0.213109 0.809245
vt 0.162574 0.809245
vt 0.452826 0.952849
vt 0.452826 0.913551
vt 0.485799 0.913551
vt 0.485799 0.952849
vt 0.163706 0.706548
vt 0.161169 0.745764
vt 0.341123 0.016248
vt 0.343661 0.055464
vt 0.066633 0.907885
vt 0.033659 0.907885
vt 0.739989 0.160772
vt 0.739989 0.021145
vt 0.744887 0.016248
vt 0.744887 0.165669
vt 0.452826 0.876158
vt 0.452826 0.745289
vt 0.457723 0.740392
vt 0.457723 0.881055
vt 0.739989 0.342688
vt 0.739989 0.203062
vt 0.744886 0.198164
vt 0.744887 0.347585
vt 0.495116 0.745289
vt 0.495116 0.876158
vt 0.490219 0.881055
vt 0.490219 0.740392
vt 0.907028 0.016248
vt 0.907028 0.155875
vt 0.900070 0.155875
vt 0.900070 0.016248
vt 0.688942 0.690060
vt 0.688942 0.829687
vt 0.558073 0.829687
vt 0.558073 0.690060
vt 0.116540 0.909129
vt 0.116540 0.778260
vt 0.123497 0.778260
vt 0.123497 0.909129
vt 0.908142 0.727434
vt 0.908142 0.858303
vt 0.901184 0.858303
vt 0.901184 0.727434
vt 0.907028 0.189924
vt 0.907028 0.329551
vt 0.900070 0.329551
vt 0.900070 0.189924
s 1
f 4/1/1 3/2/2 45/3/3 48/4/3
f 9/5/4 10/6/4 8/7/4 7/8/4
f 26/9/5 25/10/5 20/11/6 17/12/6
f 11/13/7 12/14/7 2/15/8 1/16/9
f 9/17/10 7/18/11 5/19/11 11/20/10
f 10/21/12 4/22/13 2/23/13 12/24/12
f 8/25/14 10/21/12 12/24/12 6/26/14
f 3/27/15 9/17/10 11/20/10 1/28/15
f 5/29/7 6/30/7 12/14/7 11/13/7
f 3/2/2 4/1/1 10/6/4 9/5/4
f 1/16/9 2/15/8 47/31/16 46/32/16
f 2/23/13 4/22/13 48/33/17 47/34/17
f 3/27/15 1/28/15 46/35/18 45/36/18
f 17/12/6 20/11/6 44/37/19 41/38/19
f 31/39/20 26/40/21 17/41/22 18/42/23
f 25/43/24 40/44/25 19/45/26 20/46/27
f 40/47/28 31/48/28 18/49/29 19/50/29
f 5/19/11 7/18/11 35/51/30 36/52/30
f 36/52/30 35/51/30 34/53/31 37/54/31
f 37/54/31 34/53/31 33/55/32 38/56/32
f 38/57/33 33/58/33 32/59/34 39/60/34
f 39/60/34 32/59/34 31/48/28 40/47/28
f 6/30/7 5/29/7 36/61/35 21/62/36
f 21/62/36 36/61/35 37/63/37 22/64/38
f 22/64/38 37/63/37 38/65/39 23/66/40
f 23/66/40 38/65/39 39/67/41 24/68/42
f 24/68/42 39/67/41 40/44/25 25/43/24
f 7/8/4 8/7/4 30/69/43 35/70/44
f 35/70/44 30/69/43 29/71/45 34/72/46
f 34/72/46 29/71/45 28/73/47 33/74/48
f 33/74/48 28/73/47 27/75/49 32/76/50
f 32/76/50 27/75/49 26/40/21 31/39/20
f 8/25/14 6/26/14 21/77/14 30/78/14
f 30/78/14 21/77/14 22/79/51 29/80/51
f 29/80/51 22/79/51 23/81/52 28/82/52
f 28/83/53 23/84/53 24/85/54 27/86/54
f 27/86/54 24/85/54 25/10/5 26/9/5
f 42/87/55 41/88/55 44/89/55 43/90/55
f 18/42/23 17/41/22 41/91/4 42/92/4
f 20/46/27 19/45/26 43/93/7 44/94/7
f 19/50/29 18/49/29 42/95/56 43/96/56
f 14/97/57 13/98/57 45/99/57 46/100/57
f 15/101/57 14/102/57 46/103/57 47/104/57
f 16/105/57 15/106/57 47/107/57 48/108/57
f 13/109/57 16/110/57 48/111/57 45/112/57
f 13/113/14 14/114/14 50/115/14 49/116/14
f 49/117/57 50/118/57 51/119/57 52/120/57
f 16/121/7 13/122/7 49/123/7 52/124/7
f 14/125/4 15/126/4 51/127/4 50/128/4
f 15/129/58 16/130/58 52/131/58 51/132/58
o VentilationChain.001
v 0.217821 -0.174910 1.467714
v 0.217821 -0.170631 1.485549
v -0.217820 -0.174910 1.467714
v -0.217820 -0.170631 1.485549
v 0.217821 0.006000 1.467714
v 0.217821 0.006000 1.485549
v -0.217820 0.006000 1.467714
v -0.217820 0.006000 1.485549
v 0.184251 -0.482793 -1.366332
v 0.184251 -0.482793 -1.348497
v -0.184251 -0.482793 -1.366332
v -0.184251 -0.482793 -1.348497
v 0.217820 0.009357 -1.366332
v 0.217820 0.009357 -1.348497
v -0.217821 0.009357 -1.366332
v -0.217821 0.009357 -1.348497
v 0.217820 -0.482793 -0.049090
v 0.217820 -0.482793 -0.031256
v -0.217820 -0.482793 -0.049090
v -0.217820 -0.482793 -0.031256
v 0.217821 0.009357 -0.049090
v 0.217821 0.009357 -0.031256
v -0.217820 0.009357 -0.049090
v -0.217820 0.009357 -0.031256
v -0.197293 -0.151429 1.462081
v 0.197293 -0.151428 1.462081
v 0.193905 -0.150407 1.480697
v -0.193905 -0.150407 1.480697
v 0.186127 0.006000 1.467714
v 0.186127 0.006000 1.485549
v -0.186127 0.006000 1.485549
v -0.186127 0.006000 1.467714
v -0.162616 -0.459632 -1.366332
v 0.162616 -0.459632 -1.366332
v 0.162616 -0.459632 -1.348497
v -0.162616 -0.459632 -1.348497
v 0.186200 0.011514 -1.366332
v 0.186200 0.011514 -1.348497
v -0.186200 0.011514 -1.348497
v -0.186200 0.011514 -1.366332
v -0.195410 -0.460382 -0.049090
v 0.195410 -0.460382 -0.049090
v 0.195410 -0.460382 -0.031256
v -0.195410 -0.460382 -0.031256
v 0.186127 0.009357 -0.049090
v 0.186127 0.009357 -0.031256
v -0.186127 0.009357 -0.031256
v -0.186127 0.009357 -0.049090
vn -0.0000 -0.9724 0.2333
vn -1.0000 -0.0000 -0.0000
vn 1.0000 -0.0000 -0.0000
vn -0.0000 -1.0000 -0.0000
vn -0.9977 -0.0681 -0.0000
vn 0.9977 -0.0681 -0.0000
vn -0.0000 0.9985 -0.0548
vn 0.9942 -0.0570 -0.0908
vn -0.9942 -0.0570 -0.0908
vn -0.0000 1.0000 -0.0000
vn 0.9987 0.0500 -0.0000
vn -0.9987 0.0500 -0.0000
vn 0.9998 -0.0198 -0.0000
vn -0.9998 -0.0198 -0.0000
vn -0.0000 -0.0000 1.0000
vn -0.0000 -0.0000 -1.0000
vn -0.1163 0.0204 -0.9930
vn -0.0610 -0.1025 -0.9929
vn -0.0540 -0.1179 -0.9916
vn 0.0681 0.9977 -0.0000
vn 0.0517 0.0964 0.9940
vn 0.0457 0.1125 0.9926
vn 0.0929 -0.0167 0.9955
vn 0.0610 -0.1025 -0.9929
vn 0.0540 -0.1179 -0.9916
vn -0.0681 0.9977 -0.0000
vn -0.0929 -0.0167 0.9955
vn -0.0457 0.1125 0.9926
vn -0.0517 0.0964 0.9940
vn 0.1163 0.0204 -0.9930
vt 0.320985 0.979293
vt 0.317662 0.979293
vt 0.317662 0.900340
vt 0.320985 0.900340
vt 0.939524 0.311613
vt 0.942756 0.312389
vt 0.942756 0.344400
vt 0.939524 0.344400
vt 0.518295 0.914326
vt 0.521527 0.913551
vt 0.521527 0.946338
vt 0.518295 0.946338
vt 0.159225 0.974855
vt 0.155993 0.974855
vt 0.155993 0.908070
vt 0.159225 0.908070
vt 0.939524 0.016248
vt 0.942756 0.016248
vt 0.942756 0.105649
vt 0.939524 0.105649
vt 0.905133 0.380081
vt 0.908365 0.380081
vt 0.908365 0.469482
vt 0.905133 0.469482
vt 0.979598 0.806386
vt 0.976365 0.806386
vt 0.976365 0.727433
vt 0.979598 0.727433
vt 0.939524 0.189924
vt 0.942756 0.189924
vt 0.942756 0.279118
vt 0.939524 0.279118
vt 0.940638 0.727433
vt 0.943870 0.727433
vt 0.943870 0.816627
vt 0.940638 0.816627
vt 0.804642 0.972622
vt 0.804642 0.901110
vt 0.808020 0.901724
vt 0.808020 0.972008
vt 0.379575 0.914068
vt 0.379387 0.942688
vt 0.376156 0.942788
vt 0.376156 0.914394
vt 0.418044 0.914394
vt 0.418044 0.942789
vt 0.414813 0.942688
vt 0.414625 0.914068
vt 0.191721 0.967013
vt 0.191721 0.908070
vt 0.194953 0.908070
vt 0.194953 0.967013
vt 0.944093 0.380081
vt 0.944093 0.465575
vt 0.940861 0.465575
vt 0.940861 0.380081
vt 0.672753 0.862183
vt 0.672753 0.947677
vt 0.669521 0.947677
vt 0.669521 0.862183
vt 0.843748 0.901110
vt 0.843748 0.971939
vt 0.840516 0.971939
vt 0.840516 0.901110
vt 0.978484 0.016248
vt 0.978484 0.101397
vt 0.975251 0.101397
vt 0.975251 0.016248
vt 0.978484 0.189924
vt 0.978484 0.275073
vt 0.975252 0.275073
vt 0.975252 0.189924
vt 0.637025 0.951377
vt 0.631295 0.951768
vt 0.627020 0.866380
vt 0.630941 0.862183
vt 0.980137 0.979992
vt 0.974393 0.979992
vt 0.976075 0.894860
vt 0.980137 0.890799
vt 0.905133 0.507722
vt 0.905133 0.501978
vt 0.908365 0.501978
vt 0.908366 0.507722
vt 0.258269 0.778260
vt 0.262190 0.782457
vt 0.257916 0.867845
vt 0.252185 0.867454
vt 0.568078 0.866380
vt 0.564157 0.862183
vt 0.904800 0.553757
vt 0.908861 0.557819
vt 0.910544 0.642951
vt 0.904800 0.642951
vt 0.942756 0.138144
vt 0.942756 0.143888
vt 0.939524 0.143888
vt 0.939524 0.138144
vt 0.905246 0.894860
vt 0.901184 0.890799
vt 0.983752 0.642951
vt 0.978008 0.642951
vt 0.979691 0.557819
vt 0.983752 0.553757
vt 0.252396 0.981382
vt 0.252185 0.975641
vt 0.280790 0.976617
vt 0.285166 0.980337
vt 0.904800 0.681191
vt 0.904800 0.675447
vt 0.908032 0.675447
vt 0.908032 0.681191
vt 0.906928 0.979992
vt 0.901184 0.979992
vt 0.772146 0.901870
vt 0.768377 0.906204
vt 0.739989 0.906851
vt 0.740144 0.901110
vt 0.280790 0.905105
vt 0.285166 0.901385
vt 0.944093 0.498071
vt 0.944093 0.503815
vt 0.940861 0.503815
vt 0.940861 0.498071
vt 0.740144 0.981583
vt 0.739989 0.975841
vt 0.768377 0.976488
vt 0.772146 0.980822
vt 0.331138 0.867454
vt 0.325407 0.867845
vt 0.321133 0.782457
vt 0.325054 0.778260
vt 0.252185 0.906080
vt 0.252396 0.900340
vt 0.940528 0.681191
vt 0.940528 0.675447
vt 0.943760 0.675447
vt 0.943760 0.681191
vt 0.563803 0.951768
vt 0.558073 0.951377
vt 0.943870 0.849123
vt 0.943870 0.854867
vt 0.940638 0.854867
vt 0.940638 0.849123
s 1
f 53/133/59 54/134/59 56/135/59 55/136/59
f 55/137/60 56/138/60 60/139/60 59/140/60
f 54/141/61 53/142/61 57/143/61 58/144/61
f 61/145/62 62/146/62 64/147/62 63/148/62
f 63/149/63 64/150/63 68/151/63 67/152/63
f 62/153/64 61/154/64 65/155/64 66/156/64
f 69/157/62 70/158/62 72/159/62 71/160/62
f 71/161/60 72/162/60 76/163/60 75/164/60
f 70/165/61 69/166/61 73/167/61 74/168/61
f 78/169/65 77/170/65 80/171/65 79/172/65
f 77/173/66 84/174/66 83/175/66 80/176/66
f 79/177/67 82/178/67 81/179/67 78/180/67
f 86/181/68 85/182/68 88/183/68 87/184/68
f 85/185/69 92/186/69 91/187/69 88/188/69
f 87/189/70 90/190/70 89/191/70 86/192/70
f 94/193/68 93/194/68 96/195/68 95/196/68
f 93/197/71 100/198/71 99/199/71 96/200/71
f 95/201/72 98/202/72 97/203/72 94/204/72
f 66/205/73 90/206/73 87/207/73 62/208/73
f 75/209/74 100/210/74 93/211/74 71/212/74
f 57/213/68 81/214/68 82/215/68 58/216/68
f 61/217/74 86/218/74 89/219/74 65/220/74
f 62/208/73 87/207/73 88/221/73 64/222/73
f 72/223/73 96/224/73 99/225/73 76/226/73
f 60/227/68 83/228/68 84/229/68 59/230/68
f 71/212/74 93/211/74 94/231/74 69/232/74
f 74/233/73 98/234/73 95/235/73 70/236/73
f 59/237/75 84/238/75 77/239/76 55/240/77
f 65/241/78 89/242/78 90/243/78 66/244/78
f 69/232/74 94/231/74 97/245/74 73/246/74
f 56/247/79 80/248/80 83/249/81 60/250/81
f 70/236/73 95/235/73 96/224/73 72/223/73
f 55/240/77 77/239/76 78/251/82 53/252/83
f 68/253/84 91/254/84 92/255/84 67/256/84
f 58/257/85 82/258/85 79/259/86 54/260/87
f 67/261/74 92/262/74 85/263/74 63/264/74
f 53/252/83 78/251/82 81/265/88 57/266/88
f 73/267/68 97/268/68 98/269/68 74/270/68
f 54/260/87 79/259/86 80/248/80 56/247/79
f 64/222/73 88/221/73 91/271/73 68/272/73
f 63/264/74 85/263/74 86/218/74 61/217/74
f 76/273/68 99/274/68 100/275/68 75/276/68
o VentilationGrate.001
v -0.389026 -0.857492 1.926980
v 0.389026 -0.857493 1.926980
v 0.389026 -0.128241 1.926980
v -0.389026 -0.128240 1.926980
v 0.389026 -0.784567 1.926980
v 0.389026 -0.711642 1.926980
v 0.389026 -0.638717 1.926980
v 0.389026 -0.565792 1.926980
v 0.389026 -0.492866 1.926980
v 0.389026 -0.419941 1.926980
v 0.389026 -0.347016 1.926980
v 0.389026 -0.274091 1.926980
v 0.389026 -0.201166 1.926980
v -0.389026 -0.201166 1.926980
v -0.389026 -0.274091 1.926980
v -0.389026 -0.347016 1.926980
v -0.389026 -0.419941 1.926980
v -0.389026 -0.492866 1.926980
v -0.389026 -0.565792 1.926980
v -0.389026 -0.638717 1.926980
v -0.389026 -0.711642 1.926980
v -0.389026 -0.784567 1.926980
v 0.389026 -0.176445 1.948858
v -0.389026 -0.176445 1.948858
v 0.389026 -0.249370 1.948858
v -0.389026 -0.249370 1.948858
v 0.389026 -0.324433 1.948858
v -0.389026 -0.324433 1.948858
v 0.389026 -0.395220 1.948858
v -0.389026 -0.395220 1.948858
v 0.389026 -0.468145 1.948858
v -0.389026 -0.468145 1.948858
v 0.389026 -0.541196 1.948858
v -0.389026 -0.541196 1.948858
v 0.389026 -0.613996 1.948858
v -0.389026 -0.613996 1.948858
v 0.389026 -0.686921 1.948858
v -0.389026 -0.686921 1.948858
v 0.389026 -0.759846 1.948858
v -0.389026 -0.759846 1.948858
v -0.389026 -0.832771 1.948858
v 0.389026 -0.832771 1.948858
vn -0.0000 0.4133 0.9106
vn -0.0000 0.4124 0.9110
vn -0.0000 0.3986 0.9171
vn -0.0000 -0.6627 0.7488
vn -0.0000 -0.6958 0.7182
vn -0.0000 -0.6646 0.7472
vt 0.819483 0.189924
vt 0.829089 0.189924
vt 0.829089 0.331105
vt 0.819483 0.331105
vt 0.782445 0.380081
vt 0.792051 0.380081
vt 0.792051 0.521262
vt 0.782445 0.521262
vt 0.786988 0.157428
vt 0.777382 0.157428
vt 0.777382 0.016248
vt 0.786988 0.016248
vt 0.786988 0.331105
vt 0.777382 0.331105
vt 0.777382 0.189924
vt 0.786988 0.189924
vt 0.782112 0.553757
vt 0.791717 0.553757
vt 0.791717 0.694938
vt 0.782112 0.694938
vt 0.739989 0.553757
vt 0.749616 0.553757
vt 0.749616 0.694938
vt 0.739989 0.694938
vt 0.834152 0.521262
vt 0.824546 0.521262
vt 0.824546 0.380081
vt 0.834152 0.380081
vt 0.829089 0.157428
vt 0.819483 0.157428
vt 0.819483 0.016248
vt 0.829089 0.016248
vt 0.749950 0.521262
vt 0.739989 0.521262
vt 0.739989 0.380081
vt 0.749950 0.380081
vt 0.824213 0.553757
vt 0.833818 0.553757
vt 0.833818 0.694938
vt 0.824213 0.694938
vt 0.824213 0.727434
vt 0.830203 0.727434
vt 0.830203 0.868614
vt 0.824213 0.868614
vt 0.791717 0.868614
vt 0.785727 0.868614
vt 0.785727 0.727433
vt 0.791717 0.727433
vt 0.420330 0.881572
vt 0.414625 0.881572
vt 0.414625 0.740392
vt 0.420330 0.740392
vt 0.868689 0.868614
vt 0.862698 0.868614
vt 0.862698 0.727433
vt 0.868689 0.727433
vt 0.872638 0.521262
vt 0.866648 0.521262
vt 0.866648 0.380081
vt 0.872638 0.380081
vt 0.382129 0.881572
vt 0.376156 0.881572
vt 0.376156 0.740392
vt 0.382129 0.740392
vt 0.872304 0.694938
vt 0.866314 0.694938
vt 0.866314 0.553757
vt 0.872304 0.553757
vt 0.867575 0.331105
vt 0.861585 0.331105
vt 0.861585 0.189924
vt 0.867575 0.189924
vt 0.739989 0.727433
vt 0.745980 0.727433
vt 0.745980 0.868614
vt 0.739989 0.868614
vt 0.861585 0.016248
vt 0.867575 0.016248
vt 0.867575 0.157428
vt 0.861585 0.157428
s 1
f 123/277/89 103/278/89 104/279/89 124/280/89
f 142/281/89 105/282/89 122/283/89 141/284/89
f 139/285/89 106/286/89 121/287/89 140/288/89
f 137/289/89 107/290/89 120/291/89 138/292/89
f 135/293/89 108/294/89 119/295/89 136/296/89
f 133/297/90 109/298/90 118/299/90 134/300/90
f 131/301/89 110/302/89 117/303/89 132/304/89
f 129/305/89 111/306/89 116/307/89 130/308/89
f 127/309/91 112/310/91 115/311/91 128/312/91
f 125/313/89 113/314/89 114/315/89 126/316/89
f 113/317/92 123/318/92 124/319/92 114/320/92
f 112/321/92 125/322/92 126/323/92 115/324/92
f 111/325/93 127/326/93 128/327/93 116/328/93
f 110/329/92 129/330/92 130/331/92 117/332/92
f 109/333/92 131/334/92 132/335/92 118/336/92
f 108/337/94 133/338/94 134/339/94 119/340/94
f 107/341/92 135/342/92 136/343/92 120/344/92
f 106/345/92 137/346/92 138/347/92 121/348/92
f 105/349/92 139/350/92 140/351/92 122/352/92
f 102/353/92 142/354/92 141/355/92 101/356/92
