# Blender 5.1.2
# www.blender.org
mtllib 22.5Ramp.mtl
o Cube.007
v 1.000000 0.000000 -4.000000
v 1.000000 0.000000 0.000000
v 1.000000 2.000000 0.000000
v -1.000000 0.000000 -4.000000
v -1.000000 0.000000 0.000000
v -1.000000 2.000000 0.000000
vn 1.0000 -0.0000 -0.0000
vn -0.0000 -0.0000 1.0000
vn -1.0000 -0.0000 -0.0000
vn -0.0000 -1.0000 -0.0000
vn -0.0000 0.8944 -0.4472
vt 0.625000 0.000000
vt 0.625000 0.250000
vt 0.375000 0.250000
vt 0.625000 0.500000
vt 0.375000 0.500000
vt 0.375000 0.750000
vt 0.125000 0.500000
vt 0.125000 0.750000
vt 0.875000 0.500000
vt 0.875000 0.750000
vt 0.625000 0.750000
s 0
f 1/1/1 3/2/1 2/3/1
f 2/3/2 3/2/2 6/4/2 5/5/2
f 5/5/3 6/4/3 4/6/3
f 2/7/4 5/5/4 4/6/4 1/8/4
f 6/4/5 3/9/5 1/10/5 4/11/5
