# Blender 5.2.1 LTS
# www.blender.org
mtllib BrainWallAngled.mtl
o BrainWallAngled.001
v -0.226376 0.000000 0.244469
v -4.734847 0.000000 4.752939
v -0.226376 0.000000 0.101601
v -4.734847 0.000000 4.610071
v -4.734847 4.800000 4.752939
v -0.226376 4.800000 0.244469
v -0.226376 4.800000 0.101601
v -4.734847 4.800000 4.610071
v -4.622135 0.000000 4.640228
v -4.622135 4.800000 4.640228
v -4.622135 0.000000 4.497360
v -4.622135 4.800000 4.497360
v -0.339088 0.000000 0.214313
v -0.339088 4.800000 0.214313
v -0.339088 0.000000 0.357181
v -0.339088 4.800000 0.357181
v -0.514991 0.000000 0.533084
v -0.514991 0.000000 0.390216
v -0.514991 4.800000 0.533084
v -0.514991 4.800000 0.390216
v -4.446232 0.000000 4.464324
v -4.446232 0.000000 4.321456
v -4.446232 4.800000 4.464324
v -4.446232 4.800000 4.321456
v -0.593943 4.646852 0.469168
v -4.367280 4.646852 4.242505
v -0.407571 1.549375 0.262240
v -4.553652 1.549375 4.408321
v -0.593951 0.153269 0.469176
v -4.367271 0.153269 4.242496
v -4.622135 0.228344 4.640228
v -0.226376 0.228344 0.101601
v -0.440555 0.246511 0.315780
v -4.520668 0.246511 4.395892
v -4.734847 0.228344 4.752939
v -4.734847 0.228344 4.610071
v -0.226376 0.228344 0.244469
v -0.339088 0.228344 0.357181
v -0.514991 0.228344 0.533084
v -4.446232 0.228344 4.464324
v -4.734847 4.571897 4.752939
v -4.734847 4.571897 4.610071
v -0.226376 4.571897 0.244469
v -0.339088 4.571897 0.357181
v -0.514991 4.571897 0.533084
v -4.446232 4.571897 4.464324
v -4.622135 4.571897 4.640228
v -0.226376 4.571897 0.101601
v -0.440551 4.553722 0.315776
v -4.520672 4.553722 4.395897
v -2.481554 1.413176 2.356779
v -2.481554 3.388321 2.356779
v -2.481554 3.280385 2.356779
v -2.481318 3.252259 2.499411
v -2.481318 1.549375 2.499411
v -2.481554 1.521248 2.356779
v -2.481318 4.571897 2.499411
v -2.481318 4.800000 2.499411
v -2.481554 1.275972 2.356779
v -2.481554 0.228344 2.356779
v -2.481554 3.525383 2.356779
v -1.841803 0.243308 1.717028
v -1.841807 4.556924 1.717032
v -1.842134 3.545907 1.717359
v -1.842130 1.255456 1.717355
v -3.121838 0.243165 2.997063
v -3.121835 4.557066 2.997059
v -3.121510 3.545767 2.996735
v -3.121514 1.255596 2.996738
v -2.481554 4.571897 2.356779
v -2.481318 0.000000 2.499411
v -2.481318 0.228344 2.499411
v -2.481318 0.154756 2.356543
v -2.481318 4.800000 2.356543
v -2.481318 0.000000 2.356543
v -2.057970 0.241793 1.933195
v -2.055818 1.337123 1.931043
v -2.057966 4.558438 1.933191
v -2.055814 3.464226 1.931039
v -2.122441 4.800000 2.140533
v -2.122441 4.800000 1.997666
v -2.137801 0.151480 2.013026
v -2.122441 0.228344 2.140533
v -2.122441 4.571897 2.140533
v -2.122441 0.000000 2.140533
v -2.122441 0.000000 1.997666
v -2.137792 4.648639 2.013017
v -2.905154 0.241835 2.780379
v -2.905158 4.558397 2.780383
v -2.907269 3.464272 2.782494
v -2.907265 1.337076 2.782490
v -2.840197 0.000000 2.715421
v -2.824885 4.648621 2.700110
v -2.824876 0.151498 2.700101
v -2.840197 0.228344 2.858289
v -2.840197 0.000000 2.858289
v -2.840197 4.800000 2.858289
v -2.840197 4.800000 2.715421
v -2.840197 4.571897 2.858289
v -1.757780 0.000000 1.775873
v -1.757780 0.000000 1.633005
v -1.743935 4.648005 1.619160
v -1.757780 4.800000 1.775873
v -1.757780 4.800000 1.633005
v -1.743926 0.152115 1.619151
v -1.757780 0.228344 1.775873
v -1.757780 4.571897 1.775873
v -3.203859 0.000000 3.221952
v -3.203859 4.800000 3.221952
v -3.203859 4.800000 3.079083
v -3.203859 4.571897 3.221952
v -3.203859 0.000000 3.079083
v -3.217847 4.648063 3.093072
v -3.217857 0.152057 3.093081
v -3.203859 0.228344 3.221952
v -4.734847 1.549375 4.752939
v -4.734847 1.549375 4.610071
v -0.226376 1.549375 0.244469
v -0.339088 1.549375 0.357181
v -0.514991 1.549375 0.390216
v -0.514991 1.549375 0.533084
v -4.446232 1.549375 4.321456
v -4.446232 1.549375 4.464324
v -1.923154 1.574354 1.798379
v -3.040426 1.574354 2.915650
v -4.622135 1.549375 4.640228
v -0.226376 1.549375 0.101601
v -0.445227 1.549375 0.320452
v -4.515996 1.549375 4.391221
v -2.022797 1.574354 1.898022
v -2.122441 1.549375 2.140533
v -2.940311 1.574354 2.815536
v -2.840197 1.549375 2.858289
v -1.757780 1.549375 1.775873
v -1.793424 1.561518 1.668649
v -3.168177 1.561407 3.043401
v -3.203859 1.549375 3.221952
v -1.624224 0.000000 1.642318
v -1.624224 0.000000 1.499449
v -1.624224 4.645368 1.499449
v -1.624224 4.800000 1.642318
v -1.624224 4.800000 1.499449
v -1.624224 0.154756 1.499449
v -1.624224 0.228344 1.642318
v -1.624224 4.571897 1.642318
v -1.624224 1.549375 1.642318
v -3.333532 0.000000 3.351625
v -3.333532 4.800000 3.351625
v -3.333532 4.800000 3.208757
v -3.333532 4.571897 3.351625
v -3.333532 0.000000 3.208757
v -3.333532 4.645368 3.208757
v -3.333532 0.154756 3.208757
v -3.333532 0.228344 3.351625
v -3.333532 1.549375 3.351625
v -4.622135 3.252259 4.640228
v -0.226376 3.252259 0.101601
v -0.445227 3.252259 0.320452
v -4.515996 3.252259 4.391221
v -4.734847 3.252259 4.752939
v -4.734847 3.252259 4.610071
v -0.226376 3.252259 0.244469
v -0.339088 3.252259 0.357181
v -0.514991 3.252259 0.390216
v -0.514991 3.252259 0.533084
v -4.446232 3.252259 4.321456
v -4.446232 3.252259 4.464324
v -1.923154 3.227279 1.798379
v -3.040426 3.227279 2.915650
v -2.022797 3.227279 1.898022
v -2.122441 3.252259 2.140533
v -2.940311 3.227279 2.815536
v -2.840197 3.252259 2.858289
v -1.757780 3.252259 1.775873
v -3.168181 3.240215 3.043406
v -3.203859 3.252259 3.221952
v -1.624224 3.252259 1.642318
v -1.588535 3.264270 1.463760
v -3.369306 3.264017 3.244530
v -3.333532 3.252259 3.351625
v -3.087368 3.343951 2.962593
v -3.087352 1.457497 2.962577
v -1.876102 1.456630 1.751327
v -1.936621 3.285690 1.811846
v -3.026959 3.285214 2.902184
v -2.022797 3.338941 1.898022
v -2.940311 3.338941 2.815536
v -2.022797 1.462556 1.898022
v -2.940311 1.462556 2.815536
v -3.026959 1.516335 2.902184
v -1.936621 1.515858 1.811846
v -0.583474 0.117100 0.438143
v -4.377749 0.117100 4.232418
v -0.407571 4.571897 0.262240
v -4.553652 4.571897 4.408321
v -0.583474 4.683024 0.438143
v -4.377749 4.683024 4.232418
v -2.481318 0.117100 2.335988
v -2.122441 0.117100 1.977110
v -0.407571 0.228344 0.262240
v -4.553652 0.228344 4.408321
v -2.840197 0.117100 2.694866
v -0.407571 3.252259 0.262240
v -4.553652 3.252259 4.408321
v -2.481318 4.683024 2.335988
v -2.022797 4.571897 1.877467
v -1.876358 4.571897 1.731028
v -2.022797 3.482333 1.877467
v -1.876358 3.530201 1.731028
v -1.876358 1.271154 1.731028
v -1.876358 0.228344 1.731028
v -3.087222 1.271154 2.941891
v -3.087222 0.228344 2.941891
v -3.087222 4.571897 2.941891
v -3.087222 3.530201 2.941891
v -1.624224 4.683024 1.478894
v -3.333532 3.252259 3.188201
v -1.624224 3.252259 1.478894
v -3.203859 3.252259 3.058528
v -2.022797 0.228344 1.877467
v -2.022797 1.319023 1.877467
v -1.757780 0.117100 1.612449
v -2.122441 4.683024 1.977110
v -2.940311 0.228344 2.794980
v -2.940311 4.571897 2.794980
v -2.940311 3.482333 2.794980
v -2.940311 1.319023 2.794980
v -3.203859 4.683024 3.058528
v -2.840197 4.683024 2.694866
v -3.203859 0.117100 3.058528
v -1.757780 4.683024 1.612449
v -1.624224 0.117100 1.478894
v -1.757780 1.549375 1.612449
v -3.333532 4.683024 3.188201
v -3.333532 0.117100 3.188201
v -3.203859 1.549375 3.058528
v -3.333532 1.549375 3.188201
v -1.624224 1.549375 1.478894
v -1.757780 3.252259 1.612449
v -1.757780 3.428210 1.612449
v -3.203859 3.428211 3.058528
v -3.203859 1.373238 3.058528
v -1.757780 1.373238 1.612449
v -3.112898 3.371632 2.967567
v -3.112898 1.429830 2.967567
v -1.850682 1.428849 1.705352
v -1.850682 3.372611 1.705352
v -2.481318 4.645368 2.356543
v -1.588532 1.537374 1.463757
v -3.369309 1.537626 3.244534
v -1.793420 3.240103 1.668645
v -1.730353 3.454012 1.605577
v -3.231572 3.453705 3.106797
v -3.231585 1.347757 3.106809
v -1.730340 1.347449 1.605565
v -1.876086 3.344815 1.751311
v -1.069608 0.000000 1.087701
v -1.069608 0.000000 0.944833
v -1.069608 4.800000 1.087701
v -1.069608 4.800000 0.944833
v -1.069608 0.228344 1.087701
v -1.069608 4.571897 1.087701
v -1.069608 1.549375 1.087701
v -1.051761 1.543374 0.926986
v -1.051763 3.258264 0.926988
v -1.069608 3.252259 1.087701
v -1.069608 4.683024 0.924277
v -1.069608 0.117100 0.924277
v -1.074842 4.646110 0.950067
v -1.074846 0.154012 0.950071
v -3.889882 0.000000 3.907975
v -3.889882 4.800000 3.907975
v -3.889882 4.800000 3.765107
v -3.889882 4.571897 3.907975
v -3.889882 0.000000 3.765107
v -3.889882 0.228344 3.907975
v -3.907770 1.543501 3.782995
v -3.889882 1.549375 3.907975
v -3.889882 3.252259 3.907975
v -3.907769 3.258138 3.782993
v -3.889882 4.683024 3.744551
v -3.889882 0.117100 3.744551
v -3.884648 4.646110 3.759872
v -3.884643 0.154012 3.759868
v -4.622135 3.912078 4.640228
v -0.226376 3.912077 0.101601
v -2.481554 4.048640 2.356779
v -2.481318 3.912078 2.499411
v -4.734847 3.912077 4.752939
v -4.734847 3.912078 4.610071
v -0.226376 3.912078 0.244469
v -0.339088 3.912078 0.357181
v -0.520225 3.949556 0.395450
v -0.514991 3.912078 0.533084
v -4.440998 3.949556 4.316222
v -4.446232 3.912078 4.464324
v -2.122441 3.912078 2.140533
v -2.840197 3.912078 2.858289
v -1.757780 3.912078 1.775873
v -3.203859 3.912078 3.221952
v -1.624224 3.912078 1.642318
v -1.606380 3.954819 1.481605
v -3.351419 3.954692 3.226644
v -3.333532 3.912078 3.351625
v -3.224710 4.050884 3.099935
v -1.737144 4.051008 1.612369
v -0.407571 3.912078 0.262240
v -4.553652 3.912078 4.408321
v -1.876358 4.051049 1.731028
v -3.087222 4.051049 2.941891
v -2.022797 4.027115 1.877467
v -2.940311 4.027115 2.794980
v -0.442889 3.902990 0.318114
v -4.518334 3.902990 4.393559
v -1.841970 4.051415 1.717195
v -3.121672 4.051416 2.996897
v -2.056890 4.011332 1.932115
v -2.906214 4.011334 2.781438
v -1.063303 3.952187 0.938528
v -1.069608 3.912078 1.087701
v -3.889882 3.912078 3.907975
v -3.896208 3.952124 3.771433
v -4.734847 0.888860 4.752939
v -4.734847 0.888860 4.610071
v -0.226376 0.888860 0.244469
v -0.339088 0.888860 0.357181
v -0.520229 0.851322 0.395455
v -0.514991 0.888860 0.533084
v -4.440993 0.851322 4.316218
v -4.446232 0.888860 4.464324
v -2.481554 0.752158 2.356779
v -2.481318 0.888860 2.499411
v -2.122441 0.888860 2.140533
v -2.840197 0.888860 2.858289
v -1.757780 0.888860 1.775873
v -1.737133 0.749782 1.612358
v -3.224720 0.749907 3.099945
v -3.203859 0.888860 3.221952
v -4.622135 0.888860 4.640228
v -0.226376 0.888860 0.101601
v -1.624224 0.888860 1.642318
v -1.606378 0.846065 1.481603
v -3.351420 0.846191 3.226645
v -3.333532 0.888860 3.351625
v -1.876358 0.749749 1.731028
v -3.087222 0.749749 2.941891
v -2.022797 0.773683 1.877467
v -2.940311 0.773683 2.794980
v -0.407571 0.888860 0.262240
v -4.553652 0.888860 4.408321
v -1.841967 0.749382 1.717192
v -3.121676 0.749381 2.996901
v -2.056894 0.789458 1.932119
v -2.906210 0.789456 2.781435
v -0.442891 0.897943 0.318116
v -4.518332 0.897943 4.393557
v -1.063304 0.848693 0.938529
v -1.069608 0.888860 1.087701
v -3.896207 0.848757 3.771431
v -3.889882 0.888860 3.907975
v -4.553652 2.570034 4.408321
v -4.553652 2.231600 4.408321
v -2.481318 2.570034 2.499411
v -2.481318 2.231600 2.499411
v -2.481554 2.570033 2.356779
v -2.481554 2.231599 2.356779
v -4.515996 2.231600 4.391221
v -4.515996 2.570034 4.391221
v -0.445227 2.570034 0.320452
v -0.445227 2.231600 0.320452
v -0.226376 2.231600 0.101601
v -0.226376 2.570034 0.101601
v -4.622135 2.231600 4.640228
v -4.622135 2.570034 4.640228
v -3.333532 2.231600 3.351625
v -3.333532 2.570034 3.351625
v -1.624224 2.570034 1.642318
v -1.624224 2.231600 1.642318
v -1.757780 2.231600 1.775873
v -1.757780 2.570034 1.775873
v -2.840197 2.231600 2.858289
v -2.840197 2.570034 2.858289
v -2.957147 2.231599 2.832372
v -2.957147 2.570033 2.832372
v -2.122441 2.570034 2.140533
v -2.122441 2.231600 2.140533
v -3.060937 2.570033 2.936162
v -3.060937 2.231599 2.936162
v -1.902652 2.570033 1.777877
v -1.902652 2.231599 1.777877
v -4.446232 2.231600 4.464324
v -4.446232 2.570034 4.464324
v -4.446232 2.570034 4.321456
v -4.446232 2.231600 4.321456
v -0.514991 2.570034 0.533084
v -0.514991 2.231600 0.533084
v -0.514991 2.231600 0.390216
v -0.514991 2.570034 0.390216
v -0.226376 2.570034 0.244469
v -0.226376 2.231600 0.244469
v -4.734847 2.570034 4.610071
v -4.734847 2.231600 4.610071
v -4.734847 2.231600 4.752939
v -4.734847 2.570034 4.752939
v -2.005953 2.231599 1.881178
v -2.005953 2.570033 1.881178
v -3.203859 2.231600 3.221952
v -3.203859 2.570034 3.221952
v -0.339088 2.231600 0.357181
v -0.339088 2.570034 0.357181
v -0.407571 2.231600 0.262240
v -0.407571 2.570034 0.262240
v -3.333532 2.231600 3.188201
v -3.333532 2.570034 3.188201
v -3.203859 2.570034 3.058528
v -3.203859 2.231600 3.058528
v -1.624224 2.570034 1.478894
v -1.624224 2.231600 1.478894
v -1.757780 2.231600 1.612449
v -1.757780 2.570034 1.612449
v -3.370819 2.570034 3.246044
v -3.370820 2.231600 3.246045
v -1.586953 2.231600 1.462178
v -1.586954 2.570034 1.462179
v -3.166601 2.231600 3.041825
v -3.166601 2.570034 3.041826
v -1.795030 2.570034 1.670255
v -1.795030 2.231600 1.670255
v -1.069608 2.231600 1.087701
v -1.069608 2.570034 1.087701
v -1.050974 2.570034 0.926199
v -1.050973 2.231600 0.926198
v -3.908525 2.231600 3.783749
v -3.908524 2.570034 3.783749
v -3.889882 2.570034 3.907975
v -3.889882 2.231600 3.907975
v -4.446232 4.757298 4.300900
v -2.840197 4.757298 2.694866
v -2.481318 4.757298 2.335988
v -2.122441 0.042701 1.977110
v -2.481318 0.042701 2.335988
v -0.514991 0.042701 0.369660
v -4.622135 4.757298 4.476804
v -4.692145 4.757298 4.546814
v -4.622135 0.042701 4.476804
v -4.692145 0.042701 4.546814
v -0.269078 4.757298 0.123747
v -0.339088 4.757298 0.193757
v -0.269078 0.042701 0.123747
v -0.339088 0.042701 0.193757
v -0.514991 4.757298 0.369660
v -4.446232 0.042701 4.300900
v -0.269078 4.571897 0.123747
v -0.269078 1.549375 0.123747
v -4.692145 0.228344 4.546814
v -0.269078 0.228344 0.123747
v -4.692145 4.571897 4.546814
v -2.122441 4.757298 1.977110
v -2.840197 0.042701 2.694866
v -0.269078 3.252259 0.123747
v -4.692145 1.549375 4.546814
v -3.333532 4.757298 3.188201
v -1.624224 0.042701 1.478894
v -1.757780 4.757298 1.612449
v -3.203859 0.042701 3.058528
v -1.757780 0.042701 1.612449
v -1.624224 4.757298 1.478894
v -3.203859 4.757298 3.058528
v -3.333532 0.042701 3.188201
v -4.692145 3.252259 4.546814
v -1.069608 0.042701 0.924277
v -1.069608 4.757298 0.924277
v -3.889882 4.757298 3.744551
v -3.889882 0.042701 3.744551
v -0.269078 3.912077 0.123747
v -4.692145 3.912078 4.546814
v -4.692145 0.888860 4.546814
v -0.269078 0.888860 0.123747
v -0.269078 2.231600 0.123747
v -0.269078 2.570034 0.123747
v -4.692145 2.570034 4.546814
v -4.692145 2.231600 4.546814
vn 0.7071 -0.0000 0.7071
vn -0.0000 1.0000 -0.0000
vn -0.0000 -1.0000 -0.0000
vn -0.3744 0.0001 -0.9273
vn 1.0000 -0.0000 -0.0000
vn -0.4803 0.3476 -0.8053
vn -1.0000 -0.0000 -0.0000
vn -0.7609 0.2927 -0.5791
vn -0.4001 0.0009 -0.9165
vn -0.7071 -0.0000 -0.7071
vn -0.6585 0.3711 -0.6547
vn -0.3617 -0.0006 -0.9323
vn -0.7641 -0.2837 -0.5793
vn -0.8068 -0.1941 -0.5580
vn -0.7911 -0.2408 -0.5622
vn -0.8069 0.1939 -0.5580
vn -0.8484 0.0006 -0.5294
vn -0.5212 -0.3748 -0.7667
vn -0.6566 0.3740 -0.6549
vn -0.6539 0.3733 -0.6580
vn -0.4626 0.2888 -0.8382
vn -0.5223 -0.3848 -0.7610
vn -0.7642 0.2836 -0.5793
vn -0.6589 0.3632 -0.6587
vn -0.5222 0.3847 -0.7611
vn -0.5212 0.3747 -0.7668
vn -0.7608 -0.2929 -0.5791
vn -0.4627 -0.2890 -0.8381
vn -0.4617 0.3253 -0.8252
vn -0.6539 -0.3733 -0.6580
vn -0.8018 0.2186 -0.5562
vn -0.3767 0.0005 -0.9263
vn -0.6585 -0.3711 -0.6547
vn -0.8017 -0.2188 -0.5562
vn -0.6572 -0.3696 -0.6569
vn -0.6587 -0.3633 -0.6589
vn -0.4804 -0.3477 -0.8052
vn -0.7912 0.2407 -0.5622
vn -0.8424 -0.0005 -0.5388
vn -0.6566 -0.3740 -0.6549
vn -0.8470 -0.0003 -0.5316
vn -0.6569 0.3697 -0.6571
vn -0.4628 0.2838 -0.8398
vn -0.6546 0.3750 -0.6564
vn -0.8498 0.0003 -0.5271
vn -0.6546 -0.3749 -0.6564
vn -0.8096 0.1846 -0.5572
vn -0.7831 -0.2488 -0.5699
vn -0.4992 -0.3490 -0.7931
vn -0.3695 -0.0010 -0.9292
vn -0.4992 0.3491 -0.7930
vn -0.8097 -0.1845 -0.5571
vn -0.3720 -0.0001 -0.9282
vn -0.4628 -0.2837 -0.8399
vn -0.8477 0.0001 -0.5305
vn -0.7830 0.2489 -0.5700
vn -0.8473 -0.0001 -0.5311
vn -0.4618 -0.3254 -0.8251
vn -0.6587 0.3633 -0.6589
vn -0.6569 -0.3697 -0.6572
vn -0.6590 -0.3632 -0.6587
vn -0.6572 0.3696 -0.6569
vn -0.8477 -0.0000 -0.5305
vn -0.3743 -0.0001 -0.9273
vn -0.8498 -0.0003 -0.5271
vn -0.8424 0.0005 -0.5388
vn -0.3766 -0.0005 -0.9264
vn -0.3695 0.0010 -0.9292
vn -0.8473 -0.0000 -0.5311
vn -0.4001 -0.0009 -0.9165
vn -0.8470 0.0003 -0.5316
vn -0.8483 -0.0006 -0.5294
vn -0.3618 0.0006 -0.9323
vn -0.3721 0.0001 -0.9282
vn -0.4135 -0.0000 -0.9105
vn -0.8396 -0.0000 -0.5431
vn -0.8405 -0.0000 -0.5418
vn -0.4092 -0.0000 -0.9124
vn -0.4091 -0.0000 -0.9125
vn -0.8406 -0.0000 -0.5417
vn -0.8423 -0.0003 -0.5390
vn -0.8423 0.0003 -0.5390
vn -0.3999 -0.0006 -0.9166
vn -0.3998 0.0006 -0.9166
vn -0.4001 0.0006 -0.9164
vn -0.4002 -0.0006 -0.9164
vn -0.8425 0.0004 -0.5387
vn -0.8425 -0.0004 -0.5387
vn -0.6694 0.3222 -0.6694
vn -0.6694 -0.3222 -0.6694
vn -0.8288 -0.0000 -0.5595
vn -0.4604 -0.0000 -0.8877
vt 0.382356 0.536332
vt 0.440199 0.536332
vt 0.440199 0.553102
vt 0.382356 0.553102
vt 0.758528 0.396471
vt 0.751101 0.403898
vt 0.751101 0.392180
vt 0.758528 0.384753
vt 0.001464 0.553102
vt 0.001464 0.536332
vt 0.013183 0.536332
vt 0.013183 0.553102
vt 0.749097 0.849204
vt 0.749097 0.860922
vt 0.741670 0.853495
vt 0.741670 0.841777
vt 0.555596 0.084339
vt 0.555384 0.047234
vt 0.558102 0.046016
vt 0.558348 0.084360
vt 0.758528 0.853495
vt 0.751101 0.860922
vt 0.751101 0.849204
vt 0.758528 0.841777
vt 0.083807 0.363168
vt 0.094310 0.363168
vt 0.094311 0.379937
vt 0.083807 0.379937
vt 0.749097 0.392178
vt 0.749097 0.403897
vt 0.741670 0.396470
vt 0.741670 0.384751
vt 0.545338 0.040587
vt 0.545793 0.037790
vt 0.749097 0.626624
vt 0.741670 0.619197
vt 0.741670 0.581884
vt 0.749096 0.589311
vt 0.751101 0.626625
vt 0.758528 0.619198
vt 0.758528 0.656510
vt 0.751101 0.663937
vt 0.273221 0.872428
vt 0.273221 0.889215
vt 0.235909 0.889215
vt 0.235909 0.872428
vt 0.749097 0.830915
vt 0.741670 0.823488
vt 0.440199 0.872428
vt 0.458488 0.872428
vt 0.458488 0.889215
vt 0.440199 0.889215
vt 0.071682 0.379938
vt 0.071682 0.363168
vt 0.082185 0.363168
vt 0.082185 0.379938
vt 0.758528 0.414760
vt 0.751101 0.422187
vt 0.458488 0.536332
vt 0.458488 0.553102
vt 0.426227 0.040788
vt 0.410395 0.047592
vt 0.405810 0.046147
vt 0.424034 0.037946
vt 0.835169 0.316252
vt 0.835062 0.268308
vt 0.838111 0.268312
vt 0.838000 0.316939
vt 0.751101 0.479850
vt 0.758528 0.472423
vt 0.758528 0.530086
vt 0.751101 0.537513
vt 0.749097 0.422185
vt 0.741670 0.414758
vt 0.751101 0.830915
vt 0.758528 0.823488
vt 0.031471 0.536332
vt 0.031471 0.553102
vt 0.089134 0.823869
vt 0.146797 0.823869
vt 0.146797 0.872428
vt 0.089134 0.872428
vt 0.749097 0.773071
vt 0.741670 0.765645
vt 0.673405 0.799410
vt 0.673648 0.847250
vt 0.657700 0.854097
vt 0.665364 0.802833
vt 0.089134 0.601610
vt 0.146797 0.601610
vt 0.146797 0.650118
vt 0.089134 0.650118
vt 0.470206 0.536332
vt 0.470206 0.553102
vt 0.160683 0.536332
vt 0.198597 0.536332
vt 0.198597 0.553102
vt 0.160683 0.553102
vt 0.013183 0.889215
vt 0.013183 0.872428
vt 0.031471 0.872428
vt 0.031471 0.889215
vt 0.231597 0.071794
vt 0.218002 0.078872
vt 0.219857 0.028049
vt 0.232303 0.027855
vt 0.673405 0.578487
vt 0.673162 0.626378
vt 0.665908 0.626378
vt 0.665364 0.575060
vt 0.573457 0.086103
vt 0.573454 0.045976
vt 0.082185 0.043841
vt 0.071682 0.043841
vt 0.071682 0.027054
vt 0.082185 0.027054
vt 0.001464 0.889215
vt 0.001464 0.872428
vt 0.470206 0.872428
vt 0.470206 0.889215
vt 0.198597 0.889215
vt 0.198597 0.872428
vt 0.082185 0.092401
vt 0.071682 0.092401
vt 0.440199 0.823869
vt 0.458488 0.823869
vt 0.198597 0.823869
vt 0.160683 0.872428
vt 0.160683 0.823869
vt 0.475326 0.928149
vt 0.469916 0.928173
vt 0.469676 0.892454
vt 0.476317 0.884107
vt 0.160683 0.889215
vt 0.071682 0.314660
vt 0.071682 0.266152
vt 0.082185 0.266152
vt 0.082185 0.314660
vt 0.001464 0.601610
vt 0.013183 0.601610
vt 0.532916 0.040747
vt 0.531855 0.037788
vt 0.083807 0.314660
vt 0.094311 0.314660
vt 0.756184 0.928149
vt 0.794652 0.928149
vt 0.793662 0.972189
vt 0.753441 0.972301
vt 0.458488 0.601610
vt 0.470206 0.601610
vt 0.440199 0.601610
vt 0.666900 0.324046
vt 0.667344 0.283984
vt 0.669910 0.285434
vt 0.669616 0.325236
vt 0.031471 0.601610
vt 0.573565 0.325110
vt 0.573608 0.365273
vt 0.558249 0.365234
vt 0.558432 0.326867
vt 0.574281 0.880452
vt 0.570376 0.928149
vt 0.562431 0.928149
vt 0.566062 0.880452
vt 0.161539 0.307226
vt 0.218002 0.307420
vt 0.219857 0.358187
vt 0.162738 0.358241
vt 0.749097 0.663936
vt 0.741670 0.656509
vt 0.793660 0.884107
vt 0.800293 0.892453
vt 0.800053 0.928174
vt 0.513835 0.928149
vt 0.516577 0.883998
vt 0.608723 0.803022
vt 0.609925 0.752002
vt 0.665909 0.751570
vt 0.013183 0.823869
vt 0.013183 0.775309
vt 0.031471 0.775309
vt 0.031471 0.823869
vt 0.235909 0.823869
vt 0.800294 0.963890
vt 0.001464 0.823869
vt 0.001464 0.775309
vt 0.458488 0.775309
vt 0.470206 0.775309
vt 0.470206 0.823869
vt 0.242496 0.071764
vt 0.242479 0.034559
vt 0.528195 0.810322
vt 0.538908 0.810283
vt 0.538195 0.854186
vt 0.528212 0.847496
vt 0.273221 0.601610
vt 0.273221 0.650118
vt 0.235909 0.650118
vt 0.235909 0.601610
vt 0.704008 0.975846
vt 0.695799 0.975846
vt 0.699704 0.928149
vt 0.707639 0.928149
vt 0.552345 0.928149
vt 0.556837 0.883888
vt 0.089134 0.553102
vt 0.089134 0.536332
vt 0.566062 0.975846
vt 0.569980 0.984805
vt 0.565626 0.991097
vt 0.556840 0.972412
vt 0.713219 0.972413
vt 0.704440 0.991099
vt 0.700093 0.984805
vt 0.559527 0.274759
vt 0.578141 0.283713
vt 0.573514 0.285137
vt 0.555707 0.276917
vt 0.696750 0.856761
vt 0.704377 0.865163
vt 0.700059 0.871444
vt 0.695799 0.870044
vt 0.382356 0.823869
vt 0.324513 0.823869
vt 0.324513 0.775309
vt 0.382356 0.775309
vt 0.382356 0.601610
vt 0.440199 0.650118
vt 0.382356 0.650118
vt 0.751101 0.773072
vt 0.758528 0.765645
vt 0.608723 0.574871
vt 0.552082 0.574682
vt 0.550222 0.523850
vt 0.607520 0.523795
vt 0.550975 0.267060
vt 0.546107 0.267998
vt 0.749097 0.479848
vt 0.741670 0.472421
vt 0.689546 0.364246
vt 0.699509 0.370893
vt 0.696929 0.373649
vt 0.684754 0.365419
vt 0.476314 0.972189
vt 0.469675 0.963889
vt 0.094311 0.027055
vt 0.094311 0.043842
vt 0.083807 0.043842
vt 0.083808 0.027055
vt 0.753441 0.883998
vt 0.198597 0.601610
vt 0.198597 0.650118
vt 0.160683 0.650118
vt 0.160683 0.601610
vt 0.311031 0.553102
vt 0.311031 0.536332
vt 0.324513 0.536332
vt 0.324513 0.553102
vt 0.382356 0.872428
vt 0.382356 0.889215
vt 0.324513 0.889215
vt 0.324513 0.872428
vt 0.161539 0.079066
vt 0.105076 0.079259
vt 0.112741 0.027940
vt 0.162739 0.027994
vt 0.559498 0.136403
vt 0.551006 0.144144
vt 0.546140 0.143218
vt 0.555688 0.134262
vt 0.231597 0.314491
vt 0.242496 0.314521
vt 0.242479 0.351685
vt 0.232304 0.358381
vt 0.094311 0.092402
vt 0.094311 0.140961
vt 0.083807 0.140961
vt 0.083807 0.092402
vt 0.311031 0.823869
vt 0.273221 0.823869
vt 0.273221 0.775309
vt 0.311031 0.775309
vt 0.410090 0.315739
vt 0.409925 0.363442
vt 0.405319 0.364881
vt 0.405225 0.316410
vt 0.704009 0.880452
vt 0.713222 0.883888
vt 0.717715 0.928149
vt 0.146797 0.553102
vt 0.146797 0.536332
vt 0.751101 0.551399
vt 0.758528 0.543972
vt 0.758528 0.581885
vt 0.751101 0.589312
vt 0.685803 0.274892
vt 0.687549 0.277100
vt 0.311031 0.889215
vt 0.311031 0.872428
vt 0.235909 0.553102
vt 0.235909 0.536332
vt 0.273221 0.536332
vt 0.273221 0.553102
vt 0.741670 0.543971
vt 0.749097 0.551398
vt 0.146798 0.889215
vt 0.749097 0.701746
vt 0.741670 0.694319
vt 0.658015 0.040353
vt 0.622199 0.040509
vt 0.621124 0.037544
vt 0.658626 0.037587
vt 0.711316 0.040334
vt 0.699306 0.040181
vt 0.696727 0.037430
vt 0.710232 0.037359
vt 0.694038 0.144007
vt 0.685710 0.136329
vt 0.687453 0.134121
vt 0.696875 0.143032
vt 0.819189 0.370802
vt 0.835027 0.363932
vt 0.837591 0.365415
vt 0.819277 0.373700
vt 0.578071 0.127476
vt 0.573448 0.126054
vt 0.749097 0.537512
vt 0.741670 0.530085
vt 0.311031 0.601610
vt 0.311031 0.650118
vt 0.574281 0.986205
vt 0.573337 0.999693
vt 0.695799 0.986206
vt 0.696742 0.999694
vt 0.552082 0.803211
vt 0.550222 0.853988
vt 0.768671 0.040132
vt 0.768146 0.037217
vt 0.758528 0.707802
vt 0.751101 0.715229
vt 0.751101 0.701746
vt 0.758528 0.694320
vt 0.834803 0.047029
vt 0.818963 0.040179
vt 0.819047 0.037283
vt 0.837364 0.045542
vt 0.538909 0.567604
vt 0.528196 0.567565
vt 0.528212 0.530350
vt 0.538195 0.523651
vt 0.667236 0.127271
vt 0.669801 0.125817
vt 0.324513 0.601610
vt 0.425806 0.370308
vt 0.423598 0.373157
vt 0.694127 0.267219
vt 0.696964 0.268191
vt 0.097035 0.082686
vt 0.096792 0.034795
vt 0.105076 0.307033
vt 0.112740 0.358296
vt 0.096792 0.351449
vt 0.097035 0.303609
vt 0.516577 0.972300
vt 0.666375 0.046875
vt 0.669157 0.045761
vt 0.749097 0.715228
vt 0.741670 0.707801
vt 0.089134 0.889215
vt 0.565690 0.865165
vt 0.570015 0.871444
vt 0.711524 0.370773
vt 0.710440 0.373745
vt 0.586578 0.040493
vt 0.578295 0.047045
vt 0.583864 0.037781
vt 0.666747 0.087155
vt 0.669462 0.085961
vt 0.532939 0.370524
vt 0.545399 0.370622
vt 0.545854 0.373432
vt 0.531878 0.373492
vt 0.574281 0.870044
vt 0.578454 0.364199
vt 0.586758 0.370753
vt 0.584039 0.373474
vt 0.573329 0.856761
vt 0.768871 0.370929
vt 0.768349 0.373845
vt 0.695799 0.880452
vt 0.574281 0.975845
vt 0.475770 0.370507
vt 0.474145 0.373425
vt 0.684569 0.045714
vt 0.684659 0.084145
vt 0.684873 0.122425
vt 0.684814 0.327032
vt 0.669353 0.365396
vt 0.658835 0.373576
vt 0.696926 0.130023
vt 0.710414 0.143014
vt 0.546032 0.280908
vt 0.532310 0.267957
vt 0.697029 0.281185
vt 0.684986 0.288795
vt 0.710483 0.268208
vt 0.546039 0.130299
vt 0.532343 0.143283
vt 0.558258 0.122615
vt 0.558291 0.288587
vt 0.555527 0.364009
vt 0.689367 0.046879
vt 0.410442 0.095168
vt 0.410575 0.142900
vt 0.405489 0.142891
vt 0.405591 0.094485
vt 0.622432 0.370698
vt 0.658221 0.370811
vt 0.621361 0.373665
vt 0.578320 0.323938
vt 0.475973 0.040712
vt 0.474358 0.037804
vt 0.544085 0.282975
vt 0.529478 0.268922
vt 0.578205 0.087267
vt 0.715387 0.269136
vt 0.701098 0.283165
vt 0.689602 0.121209
vt 0.700994 0.128037
vt 0.544091 0.128238
vt 0.555566 0.121355
vt 0.835040 0.094774
vt 0.837871 0.094083
vt 0.555596 0.289854
vt 0.715325 0.142081
vt 0.555676 0.326891
vt 0.529514 0.142321
vt 0.689451 0.084100
vt 0.689717 0.290005
vt 0.689606 0.327072
vt 0.666570 0.364285
vt 0.031471 0.650118
vt 0.657699 0.523740
vt 0.324513 0.650118
vt 0.440199 0.775309
vt 0.553941 0.752434
vt 0.607521 0.854042
vt 0.104531 0.255769
vt 0.160339 0.256211
vt 0.097278 0.255769
vt 0.216147 0.256652
vt 0.230891 0.270602
vt 0.539622 0.766380
vt 0.410369 0.267980
vt 0.405277 0.267972
vt 0.242513 0.277357
vt 0.528178 0.773148
vt 0.013183 0.650118
vt 0.458488 0.650118
vt 0.470206 0.650118
vt 0.083807 0.266152
vt 0.094311 0.266152
vt 0.001464 0.650118
vt 0.673162 0.751570
vt 0.609925 0.625947
vt 0.089134 0.775309
vt 0.216147 0.129695
vt 0.160339 0.130137
vt 0.834963 0.142728
vt 0.838010 0.142720
vt 0.235909 0.775309
vt 0.104531 0.130578
vt 0.097278 0.130578
vt 0.146798 0.775309
vt 0.160683 0.775309
vt 0.553942 0.625515
vt 0.539623 0.611556
vt 0.528179 0.604781
vt 0.242513 0.108970
vt 0.230890 0.115733
vt 0.198597 0.775309
vt 0.082185 0.140960
vt 0.071682 0.140960
vt 0.673648 0.530595
vt 0.097278 0.180733
vt 0.104531 0.180733
vt 0.104531 0.205614
vt 0.097278 0.205614
vt 0.089134 0.700273
vt 0.146798 0.700273
vt 0.146797 0.725154
vt 0.089134 0.725154
vt 0.160257 0.180733
vt 0.215982 0.180733
vt 0.215982 0.205614
vt 0.160257 0.205614
vt 0.647480 0.856925
vt 0.647480 0.867911
vt 0.622600 0.867911
vt 0.622600 0.856925
vt 0.094311 0.215997
vt 0.083807 0.215997
vt 0.083807 0.191116
vt 0.094311 0.191116
vt 0.647480 0.977597
vt 0.647480 0.988337
vt 0.622600 0.988337
vt 0.622600 0.977597
vt 0.071682 0.191115
vt 0.082185 0.191115
vt 0.082185 0.215996
vt 0.071682 0.215996
vt 0.665908 0.676534
vt 0.673162 0.676534
vt 0.673162 0.701415
vt 0.665908 0.701415
vt 0.031471 0.725154
vt 0.013183 0.725154
vt 0.013183 0.700273
vt 0.031471 0.700273
vt 0.001464 0.725154
vt 0.001464 0.700273
vt 0.458488 0.700273
vt 0.470206 0.700273
vt 0.470206 0.725154
vt 0.458488 0.725154
vt 0.622600 0.928149
vt 0.622600 0.878702
vt 0.647480 0.878702
vt 0.647480 0.928149
vt 0.198597 0.725154
vt 0.160683 0.725154
vt 0.160683 0.700273
vt 0.198597 0.700273
vt 0.610003 0.701415
vt 0.554099 0.701415
vt 0.554099 0.676534
vt 0.610004 0.676534
vt 0.235909 0.725154
vt 0.235909 0.700273
vt 0.382356 0.725154
vt 0.324513 0.725154
vt 0.324513 0.700273
vt 0.382356 0.700273
vt 0.440199 0.725154
vt 0.440199 0.700273
vt 0.311031 0.725154
vt 0.311031 0.700273
vt 0.273221 0.725154
vt 0.273221 0.700273
vt 0.622600 0.999526
vt 0.647480 0.999526
vt 0.710738 0.218103
vt 0.697259 0.218097
vt 0.697263 0.193186
vt 0.710707 0.193172
vt 0.532132 0.193111
vt 0.546031 0.193128
vt 0.546041 0.217978
vt 0.532155 0.218001
vt 0.838142 0.217992
vt 0.835092 0.217992
vt 0.835070 0.193034
vt 0.838120 0.193029
vt 0.410452 0.217851
vt 0.405358 0.217843
vt 0.405399 0.192979
vt 0.410490 0.192988
vt 0.715781 0.193156
vt 0.715811 0.218111
vt 0.529123 0.193105
vt 0.529141 0.218007
vt 0.694247 0.193196
vt 0.694246 0.218090
vt 0.551100 0.217972
vt 0.551079 0.193134
vt 0.417501 0.381900
vt 0.399210 0.381783
vt 0.398182 0.378454
vt 0.416452 0.378578
vt 0.845787 0.382412
vt 0.827473 0.382453
vt 0.826393 0.379132
vt 0.844703 0.379094
vt 0.827230 0.028510
vt 0.845548 0.028534
vt 0.844466 0.031854
vt 0.826155 0.031832
vt 0.857639 0.365570
vt 0.857465 0.382299
vt 0.851940 0.379067
vt 0.852022 0.365524
vt 0.387961 0.046057
vt 0.388160 0.029459
vt 0.391587 0.032656
vt 0.391484 0.046084
vt 0.659914 0.382406
vt 0.622421 0.382447
vt 0.621355 0.379120
vt 0.658839 0.379070
vt 0.584900 0.028977
vt 0.622172 0.028764
vt 0.621111 0.032089
vt 0.583841 0.032300
vt 0.857230 0.028643
vt 0.857408 0.045394
vt 0.851791 0.045442
vt 0.851704 0.031877
vt 0.399774 0.029282
vt 0.417986 0.029217
vt 0.416933 0.032523
vt 0.398741 0.032593
vt 0.387547 0.381569
vt 0.390999 0.378369
vt 0.585087 0.382270
vt 0.584023 0.378940
vt 0.659687 0.028740
vt 0.658618 0.032080
vt 0.387399 0.364920
vt 0.387307 0.316420
vt 0.390841 0.316419
vt 0.390935 0.364904
vt 0.857819 0.093969
vt 0.852201 0.094007
vt 0.769426 0.382632
vt 0.768352 0.379308
vt 0.475408 0.029057
vt 0.474350 0.032363
vt 0.546943 0.382269
vt 0.545863 0.378932
vt 0.697759 0.028618
vt 0.696700 0.031954
vt 0.546857 0.028990
vt 0.545786 0.032317
vt 0.532963 0.382300
vt 0.531887 0.378970
vt 0.697969 0.382455
vt 0.696909 0.379121
vt 0.711271 0.028558
vt 0.710212 0.031883
vt 0.387590 0.142852
vt 0.387724 0.094422
vt 0.391248 0.094435
vt 0.391119 0.142861
vt 0.532927 0.028999
vt 0.531859 0.032317
vt 0.475185 0.382204
vt 0.474126 0.378880
vt 0.711476 0.382525
vt 0.710418 0.379200
vt 0.769213 0.028422
vt 0.768143 0.031746
vt 0.858187 0.268352
vt 0.858026 0.317034
vt 0.852405 0.317003
vt 0.852555 0.268341
vt 0.387352 0.267947
vt 0.390887 0.267952
vt 0.858072 0.142650
vt 0.852444 0.142671
vt 0.852570 0.193007
vt 0.858204 0.192998
vt 0.858228 0.217987
vt 0.852594 0.217988
vt 0.390967 0.217818
vt 0.387433 0.217812
vt 0.387480 0.192945
vt 0.391013 0.192953
s 0
f 272/1/1 23/2/1 46/3/1 274/4/1
f 14/5/2 16/6/2 6/7/2 7/8/2
f 43/9/1 6/10/1 16/11/1 44/12/1
f 9/13/3 2/14/3 4/15/3 11/16/3
f 351/17/4 62/18/4 211/19/4 345/20/4
f 8/21/2 5/22/2 10/23/2 12/24/2
f 43/25/5 48/26/5 7/27/5 6/28/5
f 1/29/3 15/30/3 13/31/3 3/32/3
f 62/18/6 105/33/6 222/34/6 211/19/6
f 71/35/3 75/36/3 86/37/3 85/38/3
f 58/39/2 74/40/2 98/41/2 97/42/2
f 95/43/1 96/44/1 71/45/1 72/46/1
f 21/47/3 9/13/3 11/16/3 22/48/3
f 40/49/1 31/50/1 9/51/1 21/52/1
f 8/53/7 42/54/7 41/55/7 5/56/7
f 20/57/2 19/58/2 16/6/2 14/5/2
f 46/3/1 23/2/1 10/59/1 47/60/1
f 29/61/8 33/62/8 200/63/8 192/64/8
f 314/65/9 159/66/9 204/67/9 308/68/9
f 259/69/2 260/70/2 142/71/2 141/72/2
f 15/30/3 17/73/3 18/74/3 13/31/3
f 12/24/2 10/23/2 23/75/2 24/76/2
f 44/12/1 16/11/1 19/77/1 45/78/1
f 358/79/1 341/80/1 144/81/1 261/82/1
f 271/83/3 21/47/3 22/48/3 275/84/3
f 314/85/10 50/86/10 26/87/10 295/88/10
f 320/89/1 301/90/1 177/91/1 266/92/1
f 47/60/1 10/59/1 5/93/1 41/94/1
f 103/95/1 80/96/1 84/97/1 107/98/1
f 15/99/1 38/100/1 39/101/1 17/102/1
f 336/103/10 342/104/10 143/105/10 105/106/10
f 356/107/10 129/108/10 122/109/10 329/110/10
f 347/111/10 345/20/10 211/19/10 220/112/10
f 35/113/7 36/114/7 4/115/7 2/116/7
f 1/117/1 37/118/1 38/100/1 15/99/1
f 9/51/1 31/50/1 35/119/1 2/120/1
f 72/46/1 71/45/1 85/121/1 83/122/1
f 323/123/7 324/124/7 36/114/7 35/113/7
f 330/125/1 339/126/1 31/50/1 40/49/1
f 333/127/1 83/122/1 106/128/1 335/129/1
f 60/130/10 73/131/10 94/132/10 88/133/10
f 83/122/1 85/121/1 100/134/1 106/128/1
f 290/135/7 161/136/7 160/137/7 289/138/7
f 291/139/1 43/9/1 44/12/1 292/140/1
f 105/33/11 143/141/11 232/142/11 222/34/11
f 291/143/5 286/144/5 48/26/5 43/25/5
f 287/145/10 70/146/10 78/147/10 317/148/10
f 285/149/1 47/60/1 41/94/1 289/150/1
f 296/151/1 46/3/1 47/60/1 285/149/1
f 318/152/12 90/153/12 226/154/12 312/155/12
f 292/140/1 44/12/1 45/78/1 294/156/1
f 311/157/10 206/158/10 207/159/10 309/160/10
f 132/161/10 56/162/10 51/163/10 189/164/10
f 319/165/10 302/166/10 140/167/10 269/168/10
f 96/169/3 92/170/3 75/36/3 71/35/3
f 89/171/10 93/172/10 248/173/10 70/146/10
f 331/174/10 60/130/10 88/133/10 354/175/10
f 322/176/10 280/177/10 166/178/10 295/88/10
f 326/179/1 119/180/1 121/181/1 328/182/1
f 332/183/1 72/46/1 83/122/1 333/127/1
f 70/146/10 248/173/10 87/184/10 78/147/10
f 325/185/1 118/186/1 119/180/1 326/179/1
f 339/126/1 126/187/1 116/188/1 323/189/1
f 351/190/10 336/103/10 105/106/10 62/191/10
f 316/192/10 305/193/10 113/194/10 67/195/10
f 298/196/1 173/197/1 54/198/1 288/199/1
f 186/200/10 170/201/10 53/202/10 52/203/10
f 189/164/10 51/163/10 59/204/10 91/205/10
f 262/206/1 45/78/1 19/77/1 259/207/1
f 188/208/10 191/209/10 183/210/10 77/211/10
f 186/200/10 79/212/10 256/213/10 184/214/10
f 256/215/13 79/216/13 208/217/13 247/218/13
f 175/219/10 181/220/10 185/221/10 169/222/10
f 360/223/1 344/224/1 155/225/1 278/226/1
f 321/227/1 296/151/1 167/228/1 279/229/1
f 272/230/2 273/231/2 24/76/2 23/75/2
f 359/232/10 343/233/10 153/234/10 284/235/10
f 251/236/14 256/215/14 247/218/14 239/237/14
f 257/238/3 258/239/3 18/74/3 17/73/3
f 67/240/15 113/241/15 228/242/15 214/243/15
f 76/244/10 82/245/10 73/131/10 60/130/10
f 3/246/5 32/247/5 37/248/5 1/249/5
f 318/250/10 89/171/10 70/146/10 287/145/10
f 297/251/1 171/252/1 174/253/1 299/254/1
f 111/255/1 109/256/1 148/257/1 150/258/1
f 276/259/1 271/260/1 147/261/1 154/262/1
f 357/263/10 327/264/10 29/265/10 270/266/10
f 183/267/16 135/268/16 233/269/16 246/270/16
f 306/271/10 315/272/10 63/273/10 102/274/10
f 340/275/5 127/276/5 118/277/5 325/278/5
f 338/279/1 334/280/1 133/281/1 137/282/1
f 313/283/17 49/284/17 194/285/17 307/286/17
f 187/287/10 90/288/10 61/289/10 52/203/10
f 145/290/1 141/291/1 103/95/1 107/98/1
f 103/292/2 104/293/2 81/294/2 80/295/2
f 90/153/18 181/296/18 244/297/18 226/154/18
f 51/163/10 188/208/10 77/211/10 59/204/10
f 108/298/1 96/44/1 95/43/1 115/299/1
f 57/300/1 58/301/1 97/302/1 99/303/1
f 85/38/3 86/37/3 101/304/3 100/305/3
f 144/81/1 106/128/1 100/134/1 138/306/1
f 84/97/1 80/96/1 58/301/1 57/300/1
f 96/169/3 108/307/3 112/308/3 92/170/3
f 94/309/19 73/310/19 198/311/19 202/312/19
f 153/313/20 114/314/20 230/315/20 235/316/20
f 185/221/10 181/220/10 90/288/10 187/287/10
f 136/317/21 182/318/21 245/319/21 236/320/21
f 52/203/10 61/289/10 79/212/10 186/200/10
f 26/321/22 50/322/22 195/323/22 197/324/22
f 77/325/23 183/267/23 246/270/23 221/326/23
f 138/327/3 100/305/3 101/304/3 139/328/3
f 97/302/1 109/256/1 111/255/1 99/303/1
f 115/299/1 154/262/1 147/261/1 108/298/1
f 300/329/1 176/330/1 173/197/1 298/196/1
f 338/279/1 344/224/1 154/262/1 115/299/1
f 124/331/10 135/332/10 183/210/10 191/209/10
f 168/333/10 184/214/10 256/213/10 251/334/10
f 305/193/10 303/335/10 152/336/10 113/194/10
f 301/90/1 145/290/1 107/98/1 299/254/1
f 284/337/24 153/313/24 235/316/24 282/338/24
f 149/339/2 148/340/2 109/341/2 110/342/2
f 302/166/10 306/271/10 102/274/10 140/167/10
f 34/343/25 30/344/25 193/345/25 201/346/25
f 337/347/10 352/348/10 66/349/10 114/350/10
f 182/318/26 91/351/26 227/352/26 245/319/26
f 80/295/2 81/294/2 74/40/2 58/39/2
f 300/329/1 111/255/1 150/258/1 304/353/1
f 49/284/27 25/354/27 196/355/27 194/285/27
f 104/293/2 103/292/2 141/72/2 142/71/2
f 181/296/28 175/356/28 219/357/28 244/297/28
f 343/233/10 337/347/10 114/350/10 153/234/10
f 341/80/1 335/129/1 106/128/1 144/81/1
f 327/264/10 355/358/10 33/359/10 29/265/10
f 293/360/10 25/361/10 49/362/10 313/363/10
f 353/364/10 76/244/10 60/130/10 331/174/10
f 334/280/1 95/43/1 72/46/1 332/183/1
f 88/365/29 94/309/29 202/312/29 224/366/29
f 108/307/3 147/367/3 151/368/3 112/308/3
f 261/82/1 144/81/1 138/306/1 257/369/1
f 288/199/1 54/198/1 171/252/1 297/251/1
f 91/205/10 182/370/10 190/371/10 189/164/10
f 113/241/30 152/372/30 234/373/30 228/242/30
f 82/374/31 76/375/31 220/112/31 199/376/31
f 97/42/2 98/41/2 110/342/2 109/341/2
f 354/377/32 88/365/32 224/366/32 348/378/32
f 140/379/33 102/380/33 231/381/33 216/382/33
f 189/164/10 190/371/10 125/383/10 132/161/10
f 78/384/34 87/385/34 223/386/34 206/158/34
f 182/370/10 136/387/10 125/383/10 190/371/10
f 283/388/35 26/321/35 197/324/35 281/389/35
f 52/203/10 53/202/10 172/390/10 187/287/10
f 170/201/10 186/200/10 184/214/10 168/333/10
f 56/162/10 130/391/10 188/208/10 51/163/10
f 169/222/10 185/221/10 187/287/10 172/390/10
f 130/391/10 124/331/10 191/209/10 188/208/10
f 269/392/36 140/379/36 216/382/36 267/393/36
f 211/19/10 222/34/10 199/376/10 220/112/10
f 230/315/10 213/394/10 224/366/10 202/312/10
f 346/395/10 212/396/10 227/352/10 348/378/10
f 310/397/10 214/243/10 225/398/10 312/155/10
f 214/243/10 228/242/10 229/399/10 225/398/10
f 245/319/10 242/400/10 237/401/10 236/320/10
f 239/237/10 247/218/10 240/402/10 218/403/10
f 241/404/10 215/405/10 226/154/10 244/297/10
f 244/297/10 219/357/10 217/406/10 241/404/10
f 243/407/10 246/270/10 233/269/10 238/408/10
f 246/270/10 243/407/10 210/409/10 221/326/10
f 231/381/10 207/159/10 206/158/10 223/386/10
f 212/396/10 242/400/10 245/319/10 227/352/10
f 240/402/10 247/218/10 208/217/10 209/410/10
f 102/380/37 63/411/37 207/159/37 231/381/37
f 114/314/38 66/412/38 213/394/38 230/315/38
f 355/413/39 128/414/39 27/415/39 349/416/39
f 248/417/40 93/418/40 229/399/40 205/419/40
f 317/420/41 78/384/41 206/158/41 311/157/41
f 270/421/42 29/61/42 192/64/42 268/422/42
f 252/423/43 178/424/43 218/403/43 240/402/43
f 73/310/44 82/374/44 199/376/44 198/311/44
f 353/425/45 77/325/45 221/326/45 347/111/45
f 87/385/46 248/417/46 205/419/46 223/386/46
f 179/426/47 253/427/47 241/404/47 217/406/47
f 69/428/48 254/429/48 242/400/48 212/396/48
f 255/430/49 65/431/49 210/409/49 243/407/49
f 356/432/50 34/343/50 201/346/50 350/433/50
f 64/434/51 252/423/51 240/402/51 209/410/51
f 254/429/52 250/435/52 237/401/52 242/400/52
f 315/436/53 64/434/53 209/410/53 309/160/53
f 249/437/54 255/430/54 243/407/54 238/408/54
f 352/438/55 69/428/55 212/396/55 346/395/55
f 253/427/56 68/439/56 215/405/56 241/404/56
f 316/440/57 67/240/57 214/243/57 310/397/57
f 93/418/58 89/441/58 225/398/58 229/399/58
f 143/141/59 270/421/59 268/422/59 232/142/59
f 25/354/60 269/392/60 267/393/60 196/355/60
f 39/101/1 261/82/1 257/369/1 17/102/1
f 342/104/10 357/263/10 270/266/10 143/105/10
f 138/327/3 139/328/3 258/239/3 257/238/3
f 145/290/1 262/206/1 259/207/1 141/291/1
f 293/360/10 319/165/10 269/168/10 25/361/10
f 294/156/1 320/89/1 266/92/1 165/442/1
f 328/182/1 358/79/1 261/82/1 39/101/1
f 19/58/2 20/57/2 260/70/2 259/69/2
f 152/372/61 283/388/61 281/389/61 234/373/61
f 30/344/62 284/337/62 282/338/62 193/345/62
f 40/49/1 21/52/1 271/260/1 276/259/1
f 329/110/10 359/232/10 284/235/10 30/443/10
f 148/340/2 149/339/2 273/231/2 272/230/2
f 304/353/1 321/227/1 279/229/1 180/444/1
f 330/125/1 360/223/1 278/226/1 123/445/1
f 303/335/10 179/446/10 280/177/10 322/176/10
f 147/367/3 271/83/3 275/84/3 151/368/3
f 148/257/1 272/1/1 274/4/1 150/258/1
f 152/336/10 303/335/10 322/176/10 283/447/10
f 150/258/1 274/4/1 321/227/1 304/353/1
f 45/78/1 262/206/1 320/89/1 294/156/1
f 164/448/10 265/449/10 319/165/10 293/360/10
f 68/439/63 316/440/63 310/397/63 215/405/63
f 63/411/64 315/436/64 309/160/64 207/159/64
f 79/216/65 317/420/65 311/157/65 208/217/65
f 215/405/10 310/397/10 312/155/10 226/154/10
f 57/300/1 288/199/1 297/251/1 84/97/1
f 164/448/10 293/360/10 313/363/10 158/450/10
f 176/330/1 300/329/1 304/353/1 180/444/1
f 178/451/10 252/452/10 306/271/10 302/166/10
f 177/91/1 301/90/1 299/254/1 174/253/1
f 253/453/10 179/446/10 303/335/10 305/193/10
f 111/255/1 300/329/1 298/196/1 99/303/1
f 158/454/66 313/283/66 307/286/66 203/455/66
f 252/452/10 64/456/10 315/272/10 306/271/10
f 84/97/1 297/251/1 299/254/1 107/98/1
f 90/288/10 318/250/10 287/145/10 61/289/10
f 274/4/1 46/3/1 296/151/1 321/227/1
f 99/303/1 298/196/1 288/199/1 57/300/1
f 68/457/10 253/453/10 305/193/10 316/192/10
f 283/447/10 322/176/10 295/88/10 26/87/10
f 265/449/10 178/451/10 302/166/10 319/165/10
f 208/217/10 311/157/10 309/160/10 209/410/10
f 163/458/1 292/140/1 294/156/1 165/442/1
f 89/441/67 318/152/67 312/155/67 225/398/67
f 167/228/1 296/151/1 285/149/1 156/459/1
f 156/459/1 285/149/1 289/150/1 160/460/1
f 61/289/10 287/145/10 317/148/10 79/212/10
f 162/461/5 157/462/5 286/144/5 291/143/5
f 162/463/1 291/139/1 292/140/1 163/458/1
f 42/54/7 290/135/7 289/138/7 41/55/7
f 262/206/1 145/290/1 301/90/1 320/89/1
f 159/464/10 314/85/10 295/88/10 166/178/10
f 50/322/68 314/65/68 308/68/68 195/323/68
f 40/49/1 276/259/1 360/223/1 330/125/1
f 122/109/10 277/465/10 359/232/10 329/110/10
f 121/181/1 263/466/1 358/79/1 328/182/1
f 249/467/10 264/468/10 357/263/10 342/104/10
f 66/412/69 352/438/69 346/395/69 213/394/69
f 129/469/70 356/432/70 350/433/70 28/470/70
f 76/375/71 353/425/71 347/111/71 220/112/71
f 33/62/72 355/413/72 349/416/72 200/63/72
f 213/394/10 346/395/10 348/378/10 224/366/10
f 91/351/73 354/377/73 348/378/73 227/352/73
f 133/281/1 334/280/1 332/183/1 55/471/1
f 77/211/10 353/364/10 331/174/10 59/204/10
f 120/472/10 128/473/10 355/358/10 327/264/10
f 146/474/1 134/475/1 335/129/1 341/80/1
f 250/476/10 254/477/10 337/347/10 343/233/10
f 254/477/10 69/478/10 352/348/10 337/347/10
f 137/282/1 155/225/1 344/224/1 338/279/1
f 115/299/1 95/43/1 334/280/1 338/279/1
f 32/247/5 340/275/5 325/278/5 37/248/5
f 264/468/10 120/472/10 327/264/10 357/263/10
f 277/465/10 250/476/10 343/233/10 359/232/10
f 276/259/1 154/262/1 344/224/1 360/223/1
f 65/479/10 255/480/10 336/103/10 351/190/10
f 31/50/1 339/126/1 323/189/1 35/119/1
f 37/118/1 325/185/1 326/179/1 38/100/1
f 55/471/1 332/183/1 333/127/1 131/481/1
f 38/100/1 326/179/1 328/182/1 39/101/1
f 59/204/10 331/174/10 354/175/10 91/205/10
f 131/481/1 333/127/1 335/129/1 134/475/1
f 123/445/1 126/187/1 339/126/1 330/125/1
f 116/482/7 117/483/7 324/124/7 323/123/7
f 221/326/10 210/409/10 345/20/10 347/111/10
f 34/484/10 356/107/10 329/110/10 30/443/10
f 255/480/10 249/467/10 342/104/10 336/103/10
f 263/466/1 146/474/1 341/80/1 358/79/1
f 65/431/74 351/17/74 345/20/74 210/409/74
f 370/485/10 397/486/10 398/487/10 369/488/10
f 430/489/1 377/490/1 378/491/1 429/492/1
f 432/493/10 423/494/10 424/495/10 431/496/10
f 426/497/10 387/498/10 388/499/10 425/500/10
f 372/501/5 399/502/5 400/503/5 371/504/5
f 406/505/10 389/506/10 390/507/10 405/508/10
f 402/509/7 403/510/7 404/511/7 401/512/7
f 394/513/10 367/514/10 368/515/10 393/516/10
f 396/517/1 409/518/1 410/519/1 395/520/1
f 409/518/1 400/521/1 399/522/1 410/519/1
f 374/523/1 404/524/1 403/525/1 373/526/1
f 366/527/10 383/528/10 384/529/10 365/530/10
f 386/531/1 379/532/1 380/533/1 385/534/1
f 434/535/10 421/536/10 422/537/10 433/538/10
f 364/539/1 386/531/1 385/534/1 363/540/1
f 436/541/1 375/542/1 376/543/1 435/544/1
f 373/526/1 391/545/1 392/546/1 374/523/1
f 377/490/1 380/533/1 379/532/1 378/491/1
f 375/542/1 407/547/1 408/548/1 376/543/1
f 407/547/1 381/549/1 382/550/1 408/548/1
f 428/551/10 390/507/10 389/506/10 427/552/10
f 383/528/10 388/499/10 387/498/10 384/529/10
f 414/553/10 415/554/10 416/555/10 413/556/10
f 381/549/1 364/539/1 363/540/1 382/550/1
f 405/508/10 366/527/10 365/530/10 406/505/10
f 418/557/10 419/558/10 420/559/10 417/560/10
f 361/561/75 368/562/75 367/563/75 362/564/75
f 369/565/76 412/566/76 411/567/76 370/568/76
f 413/556/77 422/569/77 421/570/77 414/553/77
f 423/571/78 418/557/78 417/560/78 424/572/78
f 425/573/79 416/555/79 415/554/79 426/574/79
f 427/575/80 420/559/80 419/558/80 428/576/80
f 395/520/1 430/489/1 429/492/1 396/517/1
f 397/486/10 432/493/10 431/496/10 398/487/10
f 393/516/10 434/535/10 433/538/10 394/513/10
f 391/545/1 436/541/1 435/544/1 392/546/1
f 367/563/75 129/469/75 28/470/75 362/564/75
f 159/66/75 368/562/75 361/561/75 204/67/75
f 54/198/1 363/540/1 385/534/1 171/252/1
f 364/539/1 55/471/1 131/481/1 386/531/1
f 173/197/1 382/550/1 363/540/1 54/198/1
f 381/549/1 133/281/1 55/471/1 364/539/1
f 53/202/10 365/530/10 384/529/10 172/390/10
f 366/527/10 56/162/10 132/161/10 383/528/10
f 170/201/10 406/505/10 365/530/10 53/202/10
f 405/508/10 130/391/10 56/162/10 366/527/10
f 394/513/10 122/109/10 129/108/10 367/514/10
f 166/178/10 393/516/10 368/515/10 159/464/10
f 397/486/10 370/485/10 128/473/10 120/472/10
f 369/565/76 158/454/76 203/455/76 412/566/76
f 128/414/76 370/568/76 411/567/76 27/415/76
f 164/448/10 158/450/10 369/488/10 398/487/10
f 127/276/5 371/504/5 400/503/5 118/277/5
f 372/501/5 157/462/5 162/461/5 399/502/5
f 374/523/1 156/459/1 160/460/1 404/524/1
f 126/187/1 373/526/1 403/525/1 116/188/1
f 167/228/1 156/459/1 374/523/1 392/546/1
f 391/545/1 373/526/1 126/187/1 123/445/1
f 180/444/1 279/229/1 435/544/1 376/543/1
f 375/542/1 155/225/1 137/282/1 407/547/1
f 375/542/1 436/541/1 278/226/1 155/225/1
f 180/444/1 376/543/1 408/548/1 176/330/1
f 146/474/1 263/466/1 429/492/1 378/491/1
f 377/490/1 430/489/1 266/92/1 177/91/1
f 146/474/1 378/491/1 379/532/1 134/475/1
f 377/490/1 177/91/1 174/253/1 380/533/1
f 171/252/1 385/534/1 380/533/1 174/253/1
f 386/531/1 131/481/1 134/475/1 379/532/1
f 407/547/1 137/282/1 133/281/1 381/549/1
f 176/330/1 408/548/1 382/550/1 173/197/1
f 172/390/10 384/529/10 387/498/10 169/222/10
f 383/528/10 132/161/10 125/383/10 388/499/10
f 426/497/10 175/219/10 169/222/10 387/498/10
f 136/387/10 425/500/10 388/499/10 125/383/10
f 406/505/10 170/201/10 168/333/10 389/506/10
f 428/551/10 135/332/10 124/331/10 390/507/10
f 130/391/10 405/508/10 390/507/10 124/331/10
f 251/334/10 427/552/10 389/506/10 168/333/10
f 436/541/1 391/545/1 123/445/1 278/226/1
f 279/229/1 167/228/1 392/546/1 435/544/1
f 434/535/10 393/516/10 166/178/10 280/177/10
f 277/465/10 122/109/10 394/513/10 433/538/10
f 165/442/1 395/520/1 410/519/1 163/458/1
f 396/517/1 121/181/1 119/180/1 409/518/1
f 430/489/1 395/520/1 165/442/1 266/92/1
f 263/466/1 121/181/1 396/517/1 429/492/1
f 432/493/10 397/486/10 120/472/10 264/468/10
f 265/449/10 164/448/10 398/487/10 431/496/10
f 400/521/1 409/518/1 119/180/1 118/186/1
f 162/463/1 163/458/1 410/519/1 399/522/1
f 402/509/7 117/483/7 116/482/7 403/510/7
f 161/136/7 401/512/7 404/511/7 160/137/7
f 237/401/10 413/556/10 416/555/10 236/320/10
f 414/553/10 217/406/10 219/357/10 415/554/10
f 250/435/81 422/569/81 413/556/81 237/401/81
f 421/570/82 179/426/82 217/406/82 414/553/82
f 425/573/83 136/317/83 236/320/83 416/555/83
f 175/356/84 426/574/84 415/554/84 219/357/84
f 218/403/10 417/560/10 420/559/10 239/237/10
f 178/424/85 424/572/85 417/560/85 218/403/85
f 418/557/10 238/408/10 233/269/10 419/558/10
f 423/571/86 249/437/86 238/408/86 418/557/86
f 427/575/87 251/236/87 239/237/87 420/559/87
f 135/268/88 428/576/88 419/558/88 233/269/88
f 421/536/10 434/535/10 280/177/10 179/446/10
f 250/476/10 277/465/10 433/538/10 422/537/10
f 423/494/10 432/493/10 264/468/10 249/467/10
f 178/451/10 265/449/10 431/496/10 424/495/10
f 20/577/89 14/578/89 448/579/89 451/580/89
f 12/581/89 24/582/89 437/583/89 443/584/89
f 22/585/90 11/586/90 445/587/90 452/588/90
f 42/589/91 8/590/91 444/591/91 457/592/91
f 32/593/92 3/594/92 449/595/92 456/596/92
f 98/597/89 74/598/89 439/599/89 438/600/89
f 86/601/90 75/602/90 441/603/90 440/604/90
f 4/605/91 36/606/91 455/607/91 446/608/91
f 13/609/90 18/610/90 442/611/90 450/612/90
f 8/590/89 12/581/89 443/584/89 444/591/89
f 11/586/90 4/605/90 446/608/90 445/587/90
f 14/578/89 7/613/89 447/614/89 448/579/89
f 3/594/90 13/609/90 450/612/90 449/595/90
f 74/598/89 81/615/89 458/616/89 439/599/89
f 75/602/90 92/617/90 459/618/90 441/603/90
f 48/619/92 286/620/92 475/621/92 453/622/92
f 36/606/91 324/623/91 477/624/91 455/607/91
f 24/582/89 273/625/89 473/626/89 437/583/89
f 18/610/90 258/627/90 471/628/90 442/611/90
f 81/615/89 104/629/89 464/630/89 458/616/89
f 92/617/90 112/631/90 465/632/90 459/618/90
f 101/633/90 86/601/90 440/604/90 466/634/90
f 104/629/89 142/635/89 467/636/89 464/630/89
f 110/637/89 98/597/89 438/600/89 468/638/89
f 112/631/90 151/639/90 469/640/90 465/632/90
f 127/641/92 340/642/92 478/643/92 454/644/92
f 139/645/90 101/633/90 466/634/90 463/646/90
f 142/635/89 260/647/89 472/648/89 467/636/89
f 149/649/89 110/637/89 468/638/89 462/650/89
f 151/639/90 275/651/90 474/652/90 469/640/90
f 161/653/91 290/654/91 476/655/91 470/656/91
f 258/627/90 139/645/90 463/646/90 471/628/90
f 260/647/89 20/577/89 451/580/89 472/648/89
f 273/625/89 149/649/89 462/650/89 473/626/89
f 275/651/90 22/585/90 452/588/90 474/652/90
f 286/620/92 157/657/92 460/658/92 475/621/92
f 290/654/91 42/589/91 457/592/91 476/655/91
f 324/623/91 117/659/91 461/660/91 477/624/91
f 340/642/92 32/593/92 456/596/92 478/643/92
f 482/661/91 402/662/91 401/663/91 481/664/91
f 480/665/92 372/666/92 371/667/92 479/668/92
f 117/659/91 402/662/91 482/661/91 461/660/91
f 401/663/91 161/653/91 470/656/91 481/664/91
f 371/667/92 127/641/92 454/644/92 479/668/92
f 157/657/92 372/666/92 480/665/92 460/658/92
f 197/324/10 195/323/10 443/584/10 437/583/10
f 473/626/10 281/389/10 197/324/10 437/583/10
f 438/600/10 229/399/10 228/242/10 468/638/10
f 229/399/10 438/600/10 439/599/10 205/419/10
f 205/419/10 439/599/10 458/616/10 223/386/10
f 199/376/10 440/604/10 441/603/10 198/311/10
f 222/34/10 466/634/10 440/604/10 199/376/10
f 198/311/10 441/603/10 459/618/10 202/312/10
f 192/64/10 442/611/10 471/628/10 268/422/10
f 192/64/10 200/63/10 450/612/10 442/611/10
f 457/592/10 444/591/10 443/584/10 195/323/10
f 445/587/10 201/346/10 193/345/10 452/588/10
f 446/608/10 455/607/10 201/346/10 445/587/10
f 194/285/10 448/579/10 447/614/10 453/622/10
f 194/285/10 196/355/10 451/580/10 448/579/10
f 450/612/10 200/63/10 456/596/10 449/595/10
f 451/580/10 196/355/10 267/393/10 472/648/10
f 193/345/10 282/338/10 474/652/10 452/588/10
f 307/286/10 194/285/10 453/622/10 475/621/10
f 349/416/10 27/415/10 454/644/10 478/643/10
f 27/415/10 411/567/10 479/668/10 454/644/10
f 455/607/10 477/624/10 350/433/10 201/346/10
f 200/63/10 349/416/10 478/643/10 456/596/10
f 476/655/10 457/592/10 195/323/10 308/68/10
f 464/630/10 231/381/10 223/386/10 458/616/10
f 230/315/10 202/312/10 459/618/10 465/632/10
f 412/566/10 203/455/10 460/658/10 480/665/10
f 203/455/10 307/286/10 475/621/10 460/658/10
f 482/661/10 362/564/10 28/470/10 461/660/10
f 477/624/10 461/660/10 28/470/10 350/433/10
f 234/373/10 462/650/10 468/638/10 228/242/10
f 462/650/10 234/373/10 281/389/10 473/626/10
f 222/34/10 232/142/10 463/646/10 466/634/10
f 268/422/10 471/628/10 463/646/10 232/142/10
f 231/381/10 464/630/10 467/636/10 216/382/10
f 469/640/10 235/316/10 230/315/10 465/632/10
f 472/648/10 267/393/10 216/382/10 467/636/10
f 282/338/10 235/316/10 469/640/10 474/652/10
f 470/656/10 476/655/10 308/68/10 204/67/10
f 470/656/10 204/67/10 361/561/10 481/664/10
f 412/566/10 480/665/10 479/668/10 411/567/10
f 362/564/10 482/661/10 481/664/10 361/561/10
f 7/613/92 48/619/92 453/622/92 447/614/92
o BrainWallAngled.002
v -5.000398 -0.200000 4.818490
v 0.000002 -0.200000 -0.181910
v -0.000002 0.000000 -0.181905
v -5.000402 0.000000 4.818494
v -5.000398 -0.200000 5.018490
v 0.000002 -0.200000 0.018091
v -0.000002 0.000000 0.018095
v -5.000402 0.000000 5.018495
v -0.226372 -0.200000 0.044464
v -0.226376 0.000000 0.044469
v -0.226372 -0.200000 0.244465
v -0.226376 0.000000 0.244469
v -4.734847 0.000000 4.552938
v -4.734847 0.000000 4.752939
v -4.734842 -0.200000 4.552934
v -4.734842 -0.200000 4.752935
v -5.000398 -0.200000 4.852876
v 0.000002 -0.200000 -0.147523
v -5.000402 0.000000 4.852880
v -0.000002 0.000000 -0.147518
v -0.226372 -0.200000 0.078851
v -0.226376 0.000000 0.078856
v -4.734847 0.000000 4.587325
v -4.734842 -0.200000 4.587321
v -4.734847 4.800000 4.552938
v -5.000402 4.800000 4.818494
v -4.734847 4.800000 4.752939
v -5.000402 4.800000 5.018495
v -5.000402 4.800000 4.852880
v -0.000002 4.800000 -0.147518
v -0.000002 4.800000 -0.181905
v -0.226376 4.800000 0.044469
v -0.000002 4.800000 0.018095
v -0.226376 4.800000 0.244469
v -0.226376 4.800000 0.078856
v -4.734847 4.800000 4.587325
v -4.734847 2.400000 4.577713
v -5.000402 2.400000 5.018495
v -5.000402 2.400000 4.843268
v -5.000402 2.400000 4.852880
v -4.734847 2.400000 4.752939
v -4.734847 2.400000 4.587325
v -0.000002 2.400000 -0.147518
v -0.000002 2.400000 0.018095
v -0.000002 2.400000 -0.157130
v -0.226376 2.400000 0.069244
v -0.226376 2.400000 0.244469
v -0.226376 2.400000 0.078856
v -0.226376 2.426076 0.078856
v -0.226376 2.373925 0.078856
v -0.000002 2.373925 0.018095
v -0.000002 2.426076 0.018095
v -0.000002 2.373925 -0.147518
v -0.000002 2.426076 -0.147518
v -0.226376 2.373925 0.244469
v -0.226376 2.426076 0.244469
v -0.000002 2.426076 -0.181905
v -0.000002 2.373925 -0.181905
v -0.226376 2.373925 0.044469
v -0.226376 2.426076 0.044469
v -4.734847 2.373925 4.587325
v -4.734847 2.426076 4.587325
v -4.734847 2.426076 4.752939
v -4.734847 2.373925 4.752939
v -5.000402 2.426076 4.818494
v -5.000402 2.373925 4.818494
v -4.734847 2.373925 4.552938
v -4.734847 2.426076 4.552938
v -5.000402 2.426076 5.018495
v -5.000402 2.373925 5.018495
v -5.000402 2.373925 4.852880
v -5.000402 2.426076 4.852880
vn 0.7071 -0.0000 0.7071
vn -0.7071 -0.0000 -0.7071
vn -1.0000 -0.0000 -0.0000
vn 1.0000 -0.0000 -0.0000
vn -0.0000 -1.0000 -0.0000
vn -0.0000 1.0000 -0.0000
vn -0.5869 -0.5577 -0.5869
vn -0.5869 0.5577 -0.5869
vt 0.370732 0.025052
vt 0.370732 0.001516
vt 0.385435 0.001516
vt 0.385435 0.025052
vt 0.369159 0.024437
vt 0.354456 0.024438
vt 0.354456 0.000902
vt 0.369159 0.000901
vt 0.003992 0.025824
vt 0.003992 0.040528
vt 0.001464 0.040528
vt 0.001464 0.025824
vt 0.031155 0.025825
vt 0.031154 0.040528
vt 0.018979 0.040528
vt 0.018979 0.025825
vt 0.025875 0.533089
vt 0.002339 0.533089
vt 0.010948 0.524480
vt 0.034484 0.524480
vt 0.494616 0.533089
vt 0.503225 0.524480
vt 0.369159 0.493180
vt 0.354455 0.493180
vt 0.051196 0.205413
vt 0.048668 0.205413
vt 0.048668 0.203496
vt 0.049375 0.203496
vt 0.370732 0.493794
vt 0.385435 0.493794
vt 0.370732 0.521403
vt 0.385435 0.521404
vt 0.369159 0.520789
vt 0.354455 0.520789
vt 0.522225 0.533089
vt 0.530835 0.524479
vt 0.520438 0.534876
vt 0.492829 0.534877
vt 0.860922 0.850525
vt 0.859134 0.852313
vt 0.859135 0.383572
vt 0.860922 0.381784
vt 0.024087 0.534876
vt 0.000551 0.534877
vt 0.033682 0.025825
vt 0.033682 0.040528
vt 0.016167 0.025824
vt 0.016168 0.040528
vt 0.227253 0.144982
vt 0.218643 0.153592
vt 0.218643 0.130056
vt 0.227253 0.121446
vt 0.225905 0.220431
vt 0.217296 0.229040
vt 0.217296 0.201431
vt 0.225905 0.192822
vt 0.227693 0.218643
vt 0.227693 0.191034
vt 0.229040 0.143195
vt 0.229040 0.119659
vt 0.003991 0.218886
vt 0.001463 0.218886
vt 0.003285 0.216969
vt 0.003992 0.216969
vt 0.016167 0.218886
vt 0.016167 0.216969
vt 0.056536 0.201579
vt 0.068712 0.201579
vt 0.068712 0.203496
vt 0.056536 0.203496
vt 0.175312 0.024437
vt 0.175312 0.000902
vt 0.177621 0.002189
vt 0.177622 0.025725
vt 0.563794 0.001516
vt 0.563794 0.025052
vt 0.561877 0.025052
vt 0.561877 0.001516
vt 0.056536 0.205413
vt 0.054008 0.205413
vt 0.055829 0.203496
vt 0.850525 0.392181
vt 0.850525 0.860922
vt 0.031154 0.218886
vt 0.018978 0.218886
vt 0.018978 0.216969
vt 0.031154 0.216969
vt 0.033682 0.218886
vt 0.031860 0.216969
vt 0.036493 0.205413
vt 0.036493 0.203496
vt 0.563794 0.493794
vt 0.563794 0.521403
vt 0.561877 0.521403
vt 0.561877 0.493794
vt 0.175311 0.520789
vt 0.175311 0.493180
vt 0.177621 0.494468
vt 0.177621 0.522077
vt 0.068712 0.205413
vt 0.179931 0.000902
vt 0.179931 0.024437
vt 0.559960 0.025052
vt 0.559960 0.001516
vt 0.054008 0.201579
vt 0.018978 0.215052
vt 0.031154 0.215052
vt 0.033682 0.215052
vt 0.036493 0.201579
vt 0.048668 0.201579
vt 0.001464 0.215052
vt 0.003992 0.215052
vt 0.559960 0.521403
vt 0.559960 0.493794
vt 0.016167 0.215052
vt 0.051196 0.201579
vt 0.179930 0.493180
vt 0.179930 0.520789
vt 0.054007 0.027055
vt 0.056536 0.027055
vt 0.068711 0.027055
vt 0.056537 0.379937
vt 0.054009 0.379938
vt 0.068712 0.379937
vt 0.738318 0.001516
vt 0.738318 0.025052
vt 0.031154 0.393410
vt 0.018978 0.393410
vt 0.033682 0.393410
vt 0.000787 0.024437
vt 0.000787 0.000901
vt 0.048669 0.379937
vt 0.036494 0.379937
vt 0.048667 0.027054
vt 0.051195 0.027054
vt 0.036492 0.027054
vt 0.051197 0.379937
vt 0.738318 0.493794
vt 0.738318 0.521404
vt 0.003991 0.393410
vt 0.001463 0.393410
vt 0.000787 0.520789
vt 0.000787 0.493180
vt 0.016167 0.393410
s 0
f 493/669/93 488/670/93 489/671/93 494/672/93
f 491/673/94 492/674/94 485/675/94 484/676/94
f 499/677/95 501/678/95 486/679/95 483/680/95
f 500/681/96 502/682/96 489/683/96 488/684/96
f 503/685/97 500/686/97 488/687/97 493/688/97
f 506/689/97 503/685/97 493/688/97 498/690/97
f 497/691/94 495/692/94 492/674/94 491/673/94
f 550/693/96 544/694/96 524/695/96 519/696/96
f 498/697/93 493/669/93 494/672/93 496/698/93
f 487/699/93 498/697/93 496/698/93 490/700/93
f 483/701/94 486/702/94 495/692/94 497/691/94
f 499/703/97 506/689/97 498/690/97 487/704/97
f 483/705/97 497/706/97 506/689/97 499/703/97
f 495/707/98 505/708/98 504/709/98 492/710/98
f 497/706/97 491/711/97 503/685/97 506/689/97
f 491/711/97 484/712/97 500/686/97 503/685/97
f 484/713/96 485/714/96 502/682/96 500/681/96
f 487/715/95 490/716/95 501/678/95 499/677/95
f 517/717/98 516/718/98 515/719/98 512/720/98
f 511/721/98 510/722/98 509/723/98 518/724/98
f 508/725/98 511/721/98 518/724/98 507/726/98
f 514/727/98 517/717/98 512/720/98 513/728/98
f 554/729/95 547/730/95 521/731/95 522/732/95
f 551/733/95 554/729/95 522/732/95 520/734/95
f 532/735/95 537/736/95 529/737/95 530/738/95
f 542/739/99 539/740/99 527/741/99 528/742/99
f 534/743/93 538/744/93 529/745/93 526/746/93
f 531/747/95 542/748/95 528/749/95 530/738/95
f 494/750/98 504/709/98 505/708/98 496/751/98
f 536/752/96 534/753/96 526/754/96 525/755/96
f 539/756/96 536/752/96 525/755/96 527/757/96
f 544/694/96 545/758/96 523/759/96 524/695/96
f 545/760/93 551/761/93 520/762/93 523/763/93
f 547/764/99 550/765/99 519/766/99 521/767/99
f 530/738/95 529/737/95 538/768/95 531/747/95
f 528/742/100 527/741/100 540/769/100 541/770/100
f 526/746/93 529/745/93 537/771/93 533/772/93
f 530/738/95 528/749/95 541/773/95 532/735/95
f 525/755/96 526/754/96 533/774/96 535/775/96
f 527/757/96 525/755/96 535/775/96 540/776/96
f 524/695/96 523/759/96 546/777/96 543/778/96
f 522/732/95 521/731/95 548/779/95 553/780/95
f 523/763/93 520/762/93 552/781/93 546/782/93
f 520/734/95 522/732/95 553/780/95 552/783/95
f 519/696/96 524/695/96 543/778/96 549/784/96
f 521/767/100 519/766/100 549/785/100 548/786/100
f 492/787/95 504/788/95 532/735/95 541/773/95
f 532/735/95 504/788/95 494/789/95 537/736/95
f 542/748/95 531/747/95 517/790/95 514/791/95
f 517/790/95 531/747/95 538/768/95 516/792/95
f 489/683/96 502/682/96 535/775/96 533/774/96
f 538/744/93 534/743/93 515/793/93 516/794/93
f 494/672/93 489/671/93 533/772/93 537/771/93
f 534/753/96 536/752/96 512/795/96 515/796/96
f 502/682/96 485/714/96 540/776/96 535/775/96
f 536/752/96 539/756/96 513/797/96 512/795/96
f 539/740/94 542/739/94 514/798/94 513/799/94
f 485/675/94 492/674/94 541/770/94 540/769/94
f 544/694/96 518/800/96 509/801/96 545/758/96
f 505/802/96 495/803/96 549/784/96 543/778/96
f 505/802/96 543/778/96 546/777/96 496/804/96
f 544/694/96 550/693/96 507/805/96 518/800/96
f 490/700/93 496/698/93 546/782/93 552/781/93
f 551/761/93 545/760/93 509/806/93 510/807/93
f 547/730/95 554/729/95 511/808/95 508/809/95
f 495/692/94 486/702/94 548/786/94 549/785/94
f 550/765/94 547/764/94 508/810/94 507/811/94
f 486/679/95 501/678/95 553/780/95 548/779/95
f 501/678/95 490/716/95 552/783/95 553/780/95
f 554/729/95 551/733/95 510/812/95 511/808/95
