# Blender 5.2.2 LTS
# www.blender.org
mtllib BrainPlatformHalf.mtl
o HalfBorder
v -2.332586 -0.200000 0.167414
v -0.167414 -0.200000 0.167414
v -2.332586 -0.200000 4.832586
v -0.167414 -0.200000 4.832586
v -0.167414 0.000000 0.167414
v -0.167414 0.000000 4.832586
v -2.332586 0.000000 0.167414
v -2.332586 0.000000 4.832586
v -2.500000 -0.181175 0.167414
v -2.452937 -0.200000 0.167414
v -2.452937 -0.200000 0.332587
v -2.500000 -0.181175 0.332587
v -2.500000 -0.181175 4.667414
v -2.452936 -0.200000 4.667414
v -2.452936 -0.200000 4.832586
v -2.500000 -0.181175 4.832586
v 0.000000 -0.181175 4.832586
v -0.047063 -0.200000 4.832586
v -0.047063 -0.200000 4.667414
v 0.000000 -0.181175 4.667414
v 0.000000 -0.181175 0.332587
v -0.047063 -0.200000 0.332587
v -0.047063 -0.200000 0.167414
v 0.000000 -0.181175 0.167414
v -0.167414 -0.181175 0.000000
v -0.167414 -0.200000 0.047063
v -0.332586 -0.200000 0.047063
v -0.332586 -0.181175 0.000000
v -2.167413 -0.181175 0.000000
v -2.167413 -0.200000 0.047063
v -2.332586 -0.200000 0.047063
v -2.332586 -0.181175 0.000000
v -2.332586 -0.181175 5.000000
v -2.332586 -0.200000 4.952936
v -2.167413 -0.200000 4.952936
v -2.167413 -0.181175 5.000000
v -0.332586 -0.181175 5.000000
v -0.332586 -0.200000 4.952936
v -0.167414 -0.200000 4.952936
v -0.167414 -0.181175 5.000000
v -2.250000 -0.181175 0.332587
v -2.297063 -0.200000 0.313093
v -2.167413 -0.181175 0.250001
v -2.186908 -0.200000 0.202938
v -0.332586 -0.181175 0.250001
v -0.313092 -0.200000 0.202938
v -0.250000 -0.181175 0.332587
v -0.202937 -0.200000 0.313093
v -2.167413 -0.181175 4.750000
v -2.186907 -0.200000 4.797063
v -2.249999 -0.181175 4.667414
v -2.297063 -0.200000 4.686908
v -0.250000 -0.181175 4.667414
v -0.202937 -0.200000 4.686908
v -0.332586 -0.181175 4.750000
v -0.313092 -0.200000 4.797063
v -2.332586 -0.018825 0.000000
v -2.332586 0.000000 0.047063
v -2.167413 0.000000 0.047063
v -2.167413 -0.018825 0.000000
v -2.452936 0.000000 4.667414
v -2.500000 -0.018825 4.667414
v -2.500000 -0.018825 4.832586
v -2.452936 0.000000 4.832586
v -0.167414 -0.018825 5.000000
v -0.167414 0.000000 4.952936
v -0.332586 0.000000 4.952936
v -0.332586 -0.018825 5.000000
v 0.000000 -0.018825 0.167414
v -0.047063 0.000000 0.167414
v -0.047063 0.000000 0.332587
v 0.000000 -0.018825 0.332587
v -2.452937 0.000000 0.167414
v -2.500000 -0.018825 0.167414
v -2.500000 -0.018825 0.332587
v -2.452937 0.000000 0.332587
v 0.000000 -0.018825 4.667414
v -0.047063 0.000000 4.667414
v -0.047063 0.000000 4.832586
v 0.000000 -0.018825 4.832586
v -0.250000 -0.018825 0.332587
v -0.202937 0.000000 0.313093
v -0.332586 -0.018825 0.250001
v -0.313092 0.000000 0.202938
v -0.250000 -0.018825 4.667414
v -0.202937 0.000000 4.686908
v -0.332586 -0.018825 4.750000
v -0.313092 0.000000 4.797063
v -0.167414 0.000000 0.047063
v -0.167414 -0.018825 0.000000
v -0.332586 -0.018825 0.000000
v -0.332586 0.000000 0.047063
v -2.167413 -0.018825 5.000000
v -2.167413 0.000000 4.952936
v -2.332586 0.000000 4.952936
v -2.332586 -0.018825 5.000000
v -2.250000 -0.018825 0.332587
v -2.297063 0.000000 0.313093
v -2.167413 -0.018825 0.250001
v -2.186908 0.000000 0.202938
v -2.167413 -0.018825 4.750000
v -2.186907 0.000000 4.797063
v -2.249999 -0.018825 4.667414
v -2.297063 0.000000 4.686908
v -2.241985 -0.200000 4.741985
v -2.208706 -0.181175 4.708707
v -2.241985 0.000000 4.741985
v -2.208706 -0.018825 4.708707
v -0.258014 -0.200000 4.741985
v -0.291293 -0.181175 4.708707
v -0.258014 0.000000 4.741985
v -0.291293 -0.018825 4.708707
v -0.258015 -0.200000 0.258015
v -0.291293 -0.181175 0.291294
v -0.258015 0.000000 0.258015
v -0.291293 -0.018825 0.291294
v -2.241985 -0.200000 0.258015
v -2.208706 -0.181175 0.291294
v -2.241985 0.000000 0.258015
v -2.208706 -0.018825 0.291294
v -2.452937 -0.200000 0.080614
v -2.500000 -0.181175 0.061120
v -2.419386 -0.200000 0.047063
v -2.438880 -0.181175 0.000000
v -2.419386 -0.200000 4.952936
v -2.438880 -0.181175 5.000000
v -2.452937 -0.200000 4.919386
v -2.500000 -0.181175 4.938880
v -0.080614 -0.200000 0.047063
v -0.061120 -0.181175 0.000000
v -0.047063 -0.200000 0.080614
v 0.000000 -0.181175 0.061120
v -0.047063 -0.200000 4.919386
v 0.000000 -0.181175 4.938880
v -0.080614 -0.200000 4.952936
v -0.061120 -0.181175 5.000000
v -2.419386 0.000000 0.047063
v -2.438880 -0.018825 0.000000
v -2.452937 0.000000 0.080614
v -2.500000 -0.018825 0.061120
v -2.452937 0.000000 4.919386
v -2.500000 -0.018825 4.938880
v -2.419386 0.000000 4.952936
v -2.438880 -0.018825 5.000000
v -0.080614 0.000000 4.952936
v -0.061120 -0.018825 5.000000
v -0.047063 0.000000 4.919386
v 0.000000 -0.018825 4.938880
v -0.047063 0.000000 0.080614
v 0.000000 -0.018825 0.061120
v -0.080614 0.000000 0.047063
v -0.061120 -0.018825 0.000000
v -0.047063 -0.200000 2.500000
v 0.000000 -0.181175 2.500000
v -0.047063 0.000000 2.500000
v 0.000000 -0.018825 2.500000
v -0.250000 -0.181175 2.500000
v -0.202937 -0.200000 2.500000
v -0.202937 0.000000 2.500000
v -0.250000 -0.018825 2.500000
v -2.452937 -0.200000 2.500000
v -2.500000 -0.181175 2.500000
v -2.452937 0.000000 2.500000
v -2.500000 -0.018825 2.500000
v -2.250000 -0.181175 2.500000
v -2.297063 -0.200000 2.500000
v -2.297063 0.000000 2.500000
v -2.250000 -0.018825 2.500000
v -2.500000 -0.127058 0.332587
v -2.500000 -0.072942 0.332587
v -2.500000 -0.072942 0.167414
v -2.500000 -0.127058 0.167414
v -2.500000 -0.072942 0.061120
v -2.500000 -0.127058 0.061120
v -2.500000 -0.127058 4.667414
v -2.500000 -0.072942 4.667414
v -2.500000 -0.127058 4.832586
v -2.500000 -0.072942 4.832586
v -2.500000 -0.127058 4.938880
v -2.500000 -0.072942 4.938880
v 0.000000 -0.127058 4.667414
v 0.000000 -0.072942 4.667414
v 0.000000 -0.072942 4.832586
v 0.000000 -0.127058 4.832586
v 0.000000 -0.072942 4.938880
v 0.000000 -0.127058 4.938880
v 0.000000 -0.127058 0.332587
v 0.000000 -0.072942 0.332587
v 0.000000 -0.127058 0.167414
v 0.000000 -0.072942 0.167414
v 0.000000 -0.127058 0.061120
v 0.000000 -0.072942 0.061120
v -0.332586 -0.127058 0.000000
v -0.332586 -0.072942 0.000000
v -0.167414 -0.072942 0.000000
v -0.167414 -0.127058 0.000000
v -0.061120 -0.072942 0.000000
v -0.061120 -0.127058 0.000000
v -2.167413 -0.127058 0.000000
v -2.167413 -0.072942 0.000000
v -2.332586 -0.127058 0.000000
v -2.332586 -0.072942 0.000000
v -2.438880 -0.127058 0.000000
v -2.438880 -0.072942 0.000000
v -2.438880 -0.072942 5.000000
v -2.438880 -0.127058 5.000000
v -2.332586 -0.127058 5.000000
v -2.332586 -0.072942 5.000000
v -2.167413 -0.127058 5.000000
v -2.167413 -0.072942 5.000000
v -0.332586 -0.127058 5.000000
v -0.332586 -0.072942 5.000000
v -0.167414 -0.127058 5.000000
v -0.167414 -0.072942 5.000000
v -0.061120 -0.127058 5.000000
v -0.061120 -0.072942 5.000000
v 0.000000 -0.127058 2.500000
v 0.000000 -0.072942 2.500000
v -2.500000 -0.127058 2.500000
v -2.500000 -0.072942 2.500000
vn 0.2626 -0.9285 0.2626
vn -0.2626 -0.9285 0.2626
vn 0.2626 -0.9285 -0.2626
vn -0.2626 -0.9285 -0.2626
vn -0.2626 0.9285 0.2626
vn -0.2626 0.9285 -0.2626
vn 0.2626 0.9285 0.2626
vn 0.2626 0.9285 -0.2626
vn -0.0000 0.9285 -0.3714
vn -0.0000 -0.9285 -0.3714
vn 0.3714 -0.9285 -0.0000
vn 0.3714 0.9285 -0.0000
vn -0.0000 0.9285 0.3714
vn -0.0000 -0.9285 0.3714
vn -0.3714 0.9285 -0.0000
vn -0.3714 -0.9285 -0.0000
vn -0.0000 -1.0000 -0.0000
vn -1.0000 -0.0000 -0.0000
vn 1.0000 -0.0000 -0.0000
vn -0.0000 -0.0000 -1.0000
vn -0.0000 -0.0000 1.0000
vn 0.7071 -0.0000 0.7071
vn -0.7071 -0.0000 0.7071
vn 0.7071 -0.0000 -0.7071
vn -0.7071 -0.0000 -0.7071
vn -0.0000 1.0000 -0.0000
vt 0.252472 0.189594
vt 0.253793 0.188259
vt 0.255425 0.188941
vt 0.253638 0.190753
vt 0.190909 0.189891
vt 0.192249 0.191203
vt 0.191576 0.192845
vt 0.189755 0.191059
vt 0.253062 0.046268
vt 0.251728 0.044943
vt 0.252407 0.043310
vt 0.254228 0.045100
vt 0.190828 0.046224
vt 0.189492 0.047558
vt 0.187853 0.046868
vt 0.189660 0.045048
vt 0.456177 0.553137
vt 0.454868 0.554468
vt 0.453237 0.553787
vt 0.455025 0.551977
vt 0.455988 0.696763
vt 0.457328 0.698092
vt 0.456647 0.699740
vt 0.454818 0.697938
vt 0.517772 0.553450
vt 0.516447 0.552117
vt 0.517133 0.550487
vt 0.518942 0.552286
vt 0.518219 0.696805
vt 0.519551 0.695477
vt 0.521186 0.696160
vt 0.519384 0.697974
vt 0.521882 0.545473
vt 0.516541 0.545452
vt 0.516548 0.543815
vt 0.521898 0.543832
vt 0.251235 0.197572
vt 0.256568 0.197554
vt 0.256584 0.199192
vt 0.251242 0.199207
vt 0.182856 0.188657
vt 0.182926 0.194048
vt 0.181273 0.194082
vt 0.181201 0.188675
vt 0.448213 0.548995
vt 0.448140 0.554373
vt 0.446486 0.554355
vt 0.446561 0.548958
vt 0.182800 0.042063
vt 0.182754 0.047458
vt 0.181100 0.047446
vt 0.181142 0.042039
vt 0.447916 0.695517
vt 0.447954 0.700913
vt 0.446298 0.700935
vt 0.446262 0.695528
vt 0.516937 0.704834
vt 0.522318 0.704827
vt 0.522333 0.706480
vt 0.516939 0.706486
vt 0.257171 0.038251
vt 0.251792 0.038238
vt 0.251795 0.036587
vt 0.257186 0.036598
vt 0.192119 0.038157
vt 0.186721 0.038167
vt 0.186706 0.036510
vt 0.192117 0.036503
vt 0.451870 0.704813
vt 0.457266 0.704832
vt 0.457263 0.706486
vt 0.451853 0.706473
vt 0.527413 0.549314
vt 0.527458 0.554690
vt 0.525810 0.554704
vt 0.525767 0.549340
vt 0.527918 0.695565
vt 0.527881 0.700964
vt 0.526227 0.700941
vt 0.526267 0.695557
vt 0.452131 0.543506
vt 0.457487 0.543532
vt 0.457480 0.545170
vt 0.452134 0.545148
vt 0.261110 0.047527
vt 0.261077 0.042141
vt 0.262731 0.042118
vt 0.262763 0.047521
vt 0.186855 0.197903
vt 0.192211 0.197883
vt 0.192218 0.199522
vt 0.186851 0.199551
vt 0.260447 0.193699
vt 0.260495 0.188347
vt 0.262140 0.188363
vt 0.262089 0.193724
vt 0.261116 0.117988
vt 0.262763 0.117995
vt 0.526358 0.625108
vt 0.528005 0.625102
vt 0.254397 0.117959
vt 0.254393 0.047598
vt 0.256028 0.046917
vt 0.256056 0.117966
vt 0.182299 0.117956
vt 0.180648 0.117957
vt 0.447548 0.625028
vt 0.445898 0.625026
vt 0.189033 0.117950
vt 0.189593 0.188559
vt 0.187962 0.189244
vt 0.187371 0.117952
vt 0.251152 0.190925
vt 0.251834 0.192541
vt 0.192171 0.044897
vt 0.191492 0.043248
vt 0.456840 0.550205
vt 0.457508 0.551829
vt 0.521296 0.625124
vt 0.519637 0.625130
vt 0.452618 0.625037
vt 0.454280 0.625040
vt 0.517560 0.699762
vt 0.516884 0.698128
vt 0.454653 0.695428
vt 0.453014 0.696115
vt 0.519095 0.554788
vt 0.520731 0.554105
vt 0.259330 0.197524
vt 0.260404 0.196467
vt 0.262000 0.197155
vt 0.260019 0.199125
vt 0.525721 0.546569
vt 0.524655 0.545500
vt 0.525334 0.543896
vt 0.527321 0.545868
vt 0.447993 0.703709
vt 0.449076 0.704780
vt 0.448376 0.706398
vt 0.446377 0.704402
vt 0.183927 0.038197
vt 0.182842 0.039266
vt 0.181228 0.038571
vt 0.183230 0.036578
vt 0.261033 0.039354
vt 0.259961 0.038278
vt 0.260645 0.036664
vt 0.262644 0.038651
vt 0.525104 0.704797
vt 0.526186 0.703731
vt 0.527797 0.704424
vt 0.525799 0.706411
vt 0.449357 0.545154
vt 0.448279 0.546217
vt 0.446680 0.545501
vt 0.448689 0.543541
vt 0.182986 0.196834
vt 0.184074 0.197891
vt 0.183392 0.199508
vt 0.181382 0.197538
vt 0.256565 0.193677
vt 0.972449 0.297327
vt 0.974207 0.297327
vt 0.974207 0.302692
vt 0.972449 0.302692
vt 0.972449 0.306144
vt 0.974207 0.306144
vt 0.972449 0.226934
vt 0.972449 0.156541
vt 0.974207 0.156541
vt 0.974207 0.226934
vt 0.970692 0.156541
vt 0.968934 0.156541
vt 0.968934 0.151177
vt 0.970692 0.151177
vt 0.257167 0.042155
vt 0.972449 0.151177
vt 0.972449 0.147725
vt 0.974207 0.147725
vt 0.974207 0.151177
vt 0.186717 0.042087
vt 0.682418 0.967869
vt 0.684176 0.967869
vt 0.684176 0.973234
vt 0.682418 0.973233
vt 0.682418 0.976686
vt 0.684176 0.976686
vt 0.682418 0.897476
vt 0.682418 0.827083
vt 0.684176 0.827083
vt 0.684176 0.897476
vt 0.186835 0.194009
vt 0.682418 0.821719
vt 0.684176 0.821719
vt 0.682418 0.818267
vt 0.684176 0.818267
vt 0.075088 0.692711
vt 0.076846 0.692711
vt 0.076846 0.698076
vt 0.075088 0.698076
vt 0.075088 0.701528
vt 0.076846 0.701528
vt 0.075088 0.633120
vt 0.076846 0.633120
vt 0.073331 0.633120
vt 0.071573 0.633120
vt 0.071573 0.627756
vt 0.073331 0.627756
vt 0.075088 0.627756
vt 0.075088 0.624304
vt 0.076846 0.624304
vt 0.076846 0.627756
vt 0.085004 0.704007
vt 0.085004 0.700555
vt 0.086761 0.700555
vt 0.086761 0.704007
vt 0.083246 0.700555
vt 0.081489 0.700555
vt 0.081489 0.695190
vt 0.083246 0.695190
vt 0.085004 0.695190
vt 0.085004 0.635599
vt 0.086761 0.635599
vt 0.086761 0.695190
vt 0.085004 0.630235
vt 0.086761 0.630235
vt 0.085004 0.626782
vt 0.086761 0.626782
vt 0.087926 0.188396
vt 0.087926 0.183123
vt 0.089823 0.183123
vt 0.089823 0.188396
vt 0.297468 0.913729
vt 0.297468 0.984122
vt 0.292195 0.984122
vt 0.292195 0.913729
vt 0.091719 0.183123
vt 0.091719 0.188396
vt 0.352003 0.064354
vt 0.352003 0.123945
vt 0.346731 0.123945
vt 0.346731 0.064354
vt 0.082386 0.180645
vt 0.082386 0.185917
vt 0.080489 0.185917
vt 0.080489 0.180645
vt 0.084282 0.180645
vt 0.084282 0.185917
vt 0.284758 0.913729
vt 0.284758 0.843337
vt 0.290031 0.843337
vt 0.290031 0.913729
vt 0.102217 0.180645
vt 0.102217 0.185917
vt 0.100320 0.185917
vt 0.100320 0.180645
vt 0.160813 0.359440
vt 0.160813 0.299849
vt 0.166086 0.299849
vt 0.166086 0.359440
vt 0.104114 0.180645
vt 0.104114 0.185917
vt 0.107757 0.188396
vt 0.107757 0.183123
vt 0.109654 0.183123
vt 0.109654 0.188396
vt 0.111550 0.183123
vt 0.111550 0.188396
vt 0.521877 0.549357
vt 0.522319 0.700921
vt 0.451871 0.700895
vt 0.452115 0.549033
vt 0.166086 0.184160
vt 0.166086 0.185917
vt 0.163279 0.185917
vt 0.163279 0.184160
vt 0.128903 0.196554
vt 0.128903 0.198312
vt 0.126095 0.198312
vt 0.126095 0.196554
vt 0.133532 0.194797
vt 0.133532 0.193039
vt 0.136339 0.193039
vt 0.136339 0.194797
vt 0.042141 0.164328
vt 0.042141 0.166086
vt 0.039334 0.166086
vt 0.039334 0.164329
vt 0.284758 0.984122
vt 0.290031 0.984122
vt 0.297468 0.843337
vt 0.292195 0.843337
vt 0.968934 0.297327
vt 0.968934 0.226934
vt 0.970692 0.226934
vt 0.970692 0.297327
vt 0.678903 0.967869
vt 0.678903 0.897476
vt 0.680661 0.897476
vt 0.680661 0.967869
vt 0.042141 0.160813
vt 0.042141 0.162571
vt 0.039334 0.162571
vt 0.039334 0.160813
vt 0.133532 0.198312
vt 0.133532 0.196554
vt 0.136339 0.196554
vt 0.136339 0.198312
vt 0.128903 0.193039
vt 0.128903 0.194797
vt 0.126095 0.194797
vt 0.126095 0.193039
vt 0.166086 0.180645
vt 0.166086 0.182402
vt 0.163279 0.182402
vt 0.163279 0.180645
vt 0.081489 0.630235
vt 0.081489 0.626782
vt 0.083246 0.626782
vt 0.083246 0.630235
vt 0.083246 0.635599
vt 0.081489 0.635599
vt 0.081489 0.704007
vt 0.083246 0.704007
vt 0.071573 0.624304
vt 0.073331 0.624304
vt 0.071573 0.692711
vt 0.073331 0.692711
vt 0.071573 0.701528
vt 0.071573 0.698076
vt 0.073331 0.698076
vt 0.073331 0.701528
vt 0.678903 0.821719
vt 0.678903 0.818267
vt 0.680661 0.818267
vt 0.680661 0.821719
vt 0.680661 0.827083
vt 0.678903 0.827083
vt 0.678903 0.976686
vt 0.678903 0.973234
vt 0.680661 0.973233
vt 0.680661 0.976686
vt 0.968934 0.147725
vt 0.970692 0.147725
vt 0.968934 0.306144
vt 0.968934 0.302692
vt 0.970692 0.302692
vt 0.970692 0.306144
s 0
f 118/1/1 41/2/1 42/3/1 117/4/1
f 114/5/2 45/6/2 46/7/2 113/8/2
f 106/9/3 49/10/3 50/11/3 105/12/3
f 110/13/4 53/14/4 54/15/4 109/16/4
f 116/17/5 81/18/5 82/19/5 115/20/5
f 112/21/6 87/22/6 88/23/6 111/24/6
f 120/25/7 99/26/7 100/27/7 119/28/7
f 108/29/8 103/30/8 104/31/8 107/32/8
f 58/33/9 59/34/9 60/35/9 57/36/9
f 30/37/10 31/38/10 32/39/10 29/40/10
f 22/41/11 23/42/11 24/43/11 21/44/11
f 70/45/12 71/46/12 72/47/12 69/48/12
f 18/49/11 19/50/11 20/51/11 17/52/11
f 78/53/12 79/54/12 80/55/12 77/56/12
f 94/57/13 95/58/13 96/59/13 93/60/13
f 34/61/14 35/62/14 36/63/14 33/64/14
f 38/65/14 39/66/14 40/67/14 37/68/14
f 66/69/13 67/70/13 68/71/13 65/72/13
f 74/73/15 75/74/15 76/75/15 73/76/15
f 62/77/15 63/78/15 64/79/15 61/80/15
f 90/81/9 91/82/9 92/83/9 89/84/9
f 14/85/16 15/86/16 16/87/16 13/88/16
f 26/89/10 27/90/10 28/91/10 25/92/10
f 10/93/16 11/94/16 12/95/16 9/96/16
f 161/97/16 14/85/16 13/88/16 162/98/16
f 163/99/15 76/75/15 75/74/15 164/100/15
f 165/101/11 51/102/11 52/103/11 166/104/11
f 153/105/11 22/41/11 21/44/11 154/106/11
f 155/107/12 78/53/12 77/56/12 156/108/12
f 157/109/16 47/110/16 48/111/16 158/112/16
f 27/90/10 30/37/10 29/40/10 28/91/10
f 59/34/9 92/83/9 91/82/9 60/35/9
f 45/6/14 43/113/14 44/114/14 46/7/14
f 35/62/14 38/65/14 37/68/14 36/63/14
f 67/70/13 94/57/13 93/60/13 68/71/13
f 49/10/10 55/115/10 56/116/10 50/11/10
f 84/117/13 100/27/13 99/26/13 83/118/13
f 167/119/12 104/31/12 103/30/12 168/120/12
f 159/121/15 82/19/15 81/18/15 160/122/15
f 102/123/9 88/23/9 87/22/9 101/124/9
f 51/102/3 106/9/3 105/12/3 52/103/3
f 101/124/8 108/29/8 107/32/8 102/123/8
f 55/115/4 110/13/4 109/16/4 56/116/4
f 85/125/6 112/21/6 111/24/6 86/126/6
f 47/110/2 114/5/2 113/8/2 48/111/2
f 83/118/5 116/17/5 115/20/5 84/117/5
f 43/113/1 118/1/1 117/4/1 44/114/1
f 97/127/7 120/25/7 119/28/7 98/128/7
f 123/129/4 121/130/4 122/131/4 124/132/4
f 139/133/6 137/134/6 138/135/6 140/136/6
f 147/137/7 145/138/7 146/139/7 148/140/7
f 135/141/1 133/142/1 134/143/1 136/144/1
f 127/145/2 125/146/2 126/147/2 128/148/2
f 143/149/5 141/150/5 142/151/5 144/152/5
f 151/153/8 149/154/8 150/155/8 152/156/8
f 131/157/3 129/158/3 130/159/3 132/160/3
f 31/38/10 123/129/10 124/132/10 32/39/10
f 137/134/9 58/33/9 57/36/9 138/135/9
f 9/96/16 122/131/16 121/130/16 10/93/16
f 73/76/15 139/133/15 140/136/15 74/73/15
f 125/146/14 34/61/14 33/64/14 126/147/14
f 95/58/13 143/149/13 144/152/13 96/59/13
f 15/86/16 127/145/16 128/148/16 16/87/16
f 141/150/15 64/79/15 63/78/15 142/151/15
f 129/158/10 26/89/10 25/92/10 130/159/10
f 89/84/9 151/153/9 152/156/9 90/81/9
f 23/42/11 131/157/11 132/160/11 24/43/11
f 149/154/12 70/45/12 69/48/12 150/155/12
f 39/66/14 135/141/14 136/144/14 40/67/14
f 145/138/13 66/69/13 65/72/13 146/139/13
f 17/52/11 134/143/11 133/142/11 18/49/11
f 79/54/12 147/137/12 148/140/12 80/55/12
f 10/93/17 1/161/17 42/3/17 11/94/17
f 31/38/17 1/161/17 10/93/17 121/130/17 123/129/17
f 170/162/18 75/163/18 74/164/18 171/165/18
f 173/166/18 171/165/18 74/164/18 140/167/18
f 161/97/17 166/104/17 52/103/17 14/85/17
f 220/168/18 176/169/18 62/170/18 164/171/18
f 175/172/18 13/173/18 16/174/18 177/175/18
f 14/85/17 52/103/17 3/176/17 15/86/17
f 15/86/17 3/176/17 34/61/17 125/146/17 127/145/17
f 178/177/18 180/178/18 142/179/18 63/180/18
f 18/49/17 4/181/17 54/15/17 19/50/17
f 39/66/17 4/181/17 18/49/17 133/142/17 135/141/17
f 182/182/19 77/183/19 80/184/19 183/185/19
f 185/186/19 183/185/19 80/184/19 148/187/19
f 153/105/17 19/50/17 54/15/17 158/112/17
f 218/188/19 188/189/19 72/190/19 156/191/19
f 22/41/17 48/111/17 2/192/17 23/42/17
f 190/193/19 69/194/19 72/190/19 188/189/19
f 23/42/17 2/192/17 26/89/17 129/158/17 131/157/17
f 190/193/19 192/195/19 150/196/19 69/194/19
f 26/89/17 2/192/17 46/7/17 27/90/17
f 194/197/20 91/198/20 90/199/20 195/200/20
f 197/201/20 195/200/20 90/199/20 152/202/20
f 27/90/17 46/7/17 44/114/17 30/37/17
f 194/197/20 200/203/20 60/204/20 91/198/20
f 199/205/20 29/206/20 32/207/20 201/208/20
f 30/37/17 44/114/17 1/161/17 31/38/17
f 202/209/20 204/210/20 138/211/20 57/212/20
f 205/213/21 208/214/21 96/215/21 144/216/21
f 207/217/21 33/218/21 36/219/21 209/220/21
f 34/61/17 3/176/17 50/11/17 35/62/17
f 38/65/17 35/62/17 50/11/17 56/116/17
f 210/221/21 212/222/21 68/223/21 93/224/21
f 38/65/17 56/116/17 4/181/17 39/66/17
f 214/225/21 65/226/21 68/223/21 212/222/21
f 214/225/21 216/227/21 146/228/21 65/226/21
f 97/229/22 41/230/22 118/231/22 120/232/22
f 42/3/17 1/161/17 44/114/17 117/4/17
f 165/233/19 41/234/19 97/235/19 168/236/19
f 120/232/22 118/231/22 43/237/22 99/238/22
f 43/239/21 45/240/21 83/241/21 99/242/21
f 114/243/23 116/244/23 83/245/23 45/246/23
f 46/7/17 2/192/17 48/111/17 113/8/17
f 47/247/23 81/248/23 116/244/23 114/243/23
f 157/249/18 53/250/18 85/251/18 160/252/18
f 106/253/24 108/254/24 101/255/24 49/256/24
f 50/11/17 3/176/17 52/103/17 105/12/17
f 55/257/20 49/258/20 101/259/20 87/260/20
f 51/261/24 103/262/24 108/254/24 106/253/24
f 85/263/25 53/264/25 110/265/25 112/266/25
f 54/15/17 4/181/17 56/116/17 109/16/17
f 112/266/25 110/265/25 55/267/25 87/268/25
f 100/27/26 59/34/26 58/33/26 7/269/26
f 137/134/26 139/133/26 73/76/26 7/269/26 58/33/26
f 59/34/26 100/27/26 84/117/26 92/83/26
f 64/79/26 8/270/26 104/31/26 61/80/26
f 163/99/26 61/80/26 104/31/26 167/119/26
f 64/79/26 141/150/26 143/149/26 95/58/26 8/270/26
f 66/69/26 6/271/26 88/23/26 67/70/26
f 6/271/26 66/69/26 145/138/26 147/137/26 79/54/26
f 102/123/26 94/57/26 67/70/26 88/23/26
f 82/19/26 71/46/26 70/45/26 5/272/26
f 89/84/26 5/272/26 70/45/26 149/154/26 151/153/26
f 159/121/26 86/126/26 78/53/26 155/107/26
f 76/75/26 98/128/26 7/269/26 73/76/26
f 6/271/26 79/54/26 78/53/26 86/126/26
f 82/19/26 5/272/26 84/117/26 115/20/26
f 5/272/26 89/84/26 92/83/26 84/117/26
f 6/271/26 86/126/26 111/24/26 88/23/26
f 94/57/26 102/123/26 8/270/26 95/58/26
f 7/269/26 98/128/26 119/28/26 100/27/26
f 8/270/26 102/123/26 107/32/26 104/31/26
f 173/273/25 140/274/25 138/275/25 204/276/25
f 205/277/23 144/278/23 142/279/23 180/280/23
f 191/281/24 132/282/24 130/283/24 198/284/24
f 215/285/22 136/286/22 134/287/22 186/288/22
f 82/19/26 159/121/26 155/107/26 71/46/26
f 47/289/18 157/249/18 160/252/18 81/290/18
f 182/182/19 218/188/19 156/191/19 77/183/19
f 22/41/17 153/105/17 158/112/17 48/111/17
f 86/126/15 159/121/15 160/122/15 85/125/15
f 53/14/16 157/109/16 158/112/16 54/15/16
f 71/46/12 155/107/12 156/108/12 72/47/12
f 19/50/11 153/105/11 154/106/11 20/51/11
f 76/75/26 163/99/26 167/119/26 98/128/26
f 51/291/19 165/233/19 168/236/19 103/292/19
f 170/162/18 220/168/18 164/171/18 75/163/18
f 11/94/17 42/3/17 166/104/17 161/97/17
f 98/128/12 167/119/12 168/120/12 97/127/12
f 41/2/11 165/101/11 166/104/11 42/3/11
f 61/80/15 163/99/15 164/100/15 62/77/15
f 11/94/16 161/97/16 162/98/16 12/95/16
f 12/293/18 162/294/18 219/295/18 169/296/18
f 169/296/18 219/295/18 220/168/18 170/162/18
f 20/297/19 154/298/19 217/299/19 181/300/19
f 181/300/19 217/299/19 218/188/19 182/182/19
f 146/301/22 216/302/22 185/303/22 148/304/22
f 216/302/22 215/285/22 186/288/22 185/303/22
f 150/305/24 192/306/24 197/307/24 152/308/24
f 192/306/24 191/281/24 198/284/24 197/307/24
f 126/309/23 206/310/23 179/311/23 128/312/23
f 206/310/23 205/277/23 180/280/23 179/311/23
f 122/313/25 174/314/25 203/315/25 124/316/25
f 174/314/25 173/273/25 204/276/25 203/315/25
f 40/317/21 136/318/21 215/319/21 213/320/21
f 213/320/21 215/319/21 216/227/21 214/225/21
f 40/317/21 213/320/21 211/321/21 37/322/21
f 213/320/21 214/225/21 212/222/21 211/321/21
f 36/219/21 37/322/21 211/321/21 209/220/21
f 209/220/21 211/321/21 212/222/21 210/221/21
f 96/215/21 208/214/21 210/221/21 93/224/21
f 208/214/21 207/217/21 209/220/21 210/221/21
f 126/323/21 33/218/21 207/217/21 206/324/21
f 206/324/21 207/217/21 208/214/21 205/213/21
f 32/207/20 124/325/20 203/326/20 201/208/20
f 201/208/20 203/326/20 204/210/20 202/209/20
f 60/204/20 200/203/20 202/209/20 57/212/20
f 200/203/20 199/205/20 201/208/20 202/209/20
f 28/327/20 29/206/20 199/205/20 193/328/20
f 193/328/20 199/205/20 200/203/20 194/197/20
f 130/329/20 25/330/20 196/331/20 198/332/20
f 198/332/20 196/331/20 195/200/20 197/201/20
f 28/327/20 193/328/20 196/331/20 25/330/20
f 193/328/20 194/197/20 195/200/20 196/331/20
f 24/333/19 132/334/19 191/335/19 189/336/19
f 189/336/19 191/335/19 192/195/19 190/193/19
f 24/333/19 189/336/19 187/337/19 21/338/19
f 189/336/19 190/193/19 188/189/19 187/337/19
f 154/298/19 21/338/19 187/337/19 217/299/19
f 217/299/19 187/337/19 188/189/19 218/188/19
f 134/339/19 17/340/19 184/341/19 186/342/19
f 186/342/19 184/341/19 183/185/19 185/186/19
f 20/297/19 181/300/19 184/341/19 17/340/19
f 181/300/19 182/182/19 183/185/19 184/341/19
f 16/174/18 128/343/18 179/344/18 177/175/18
f 177/175/18 179/344/18 180/178/18 178/177/18
f 62/170/18 176/169/18 178/177/18 63/180/18
f 176/169/18 175/172/18 177/175/18 178/177/18
f 162/294/18 13/173/18 175/172/18 219/295/18
f 219/295/18 175/172/18 176/169/18 220/168/18
f 122/345/18 9/346/18 172/347/18 174/348/18
f 174/348/18 172/347/18 171/165/18 173/166/18
f 12/293/18 169/296/18 172/347/18 9/346/18
f 169/296/18 170/162/18 171/165/18 172/347/18
o HalfCentre
v -0.387516 -0.076842 4.612484
v -2.112483 -0.076842 4.612484
v -2.112484 -0.076842 0.387516
v -0.387516 -0.076842 0.387517
v -2.112484 -0.123158 0.387517
v -0.387516 -0.123158 0.387517
v -2.112483 -0.123158 4.612484
v -0.387516 -0.123158 4.612484
v -1.250000 -0.076842 0.387517
v -1.250000 -0.076842 4.612484
v -1.250000 -0.123158 0.387517
v -1.250000 -0.123158 4.612484
v -2.112484 -0.076842 1.416293
v -0.387516 -0.123158 1.416294
v -0.387516 -0.076842 1.416294
v -2.112484 -0.123158 1.416294
v -1.250000 -0.076842 1.416294
v -1.250000 -0.123158 1.416294
v -0.387516 -0.076842 3.583707
v -2.112483 -0.123158 3.583707
v -2.112483 -0.076842 3.583707
v -0.387516 -0.123158 3.583707
v -1.250000 -0.123158 3.583707
v -1.250000 -0.076842 3.583707
v -2.112484 -0.076842 2.600622
v -2.112484 -0.076842 2.399378
v -0.387516 -0.076842 2.600622
v -0.387516 -0.076842 2.399379
v -2.112484 -0.123158 2.399379
v -2.112484 -0.123158 2.600622
v -0.387516 -0.123158 2.399379
v -0.387516 -0.123158 2.600622
v -1.250000 -0.123158 2.600622
v -1.250000 -0.123158 2.399379
v -1.250000 -0.076842 2.399378
v -1.250000 -0.076842 2.600622
v -2.250000 -0.136551 0.332587
v -2.214063 -0.150000 0.332587
v -2.167413 -0.136551 0.250001
v -2.167413 -0.150000 0.288265
v -0.332586 -0.136551 0.250001
v -0.332586 -0.150000 0.288265
v -0.250000 -0.136551 0.332587
v -0.285937 -0.150000 0.332587
v -2.167413 -0.136551 4.750000
v -2.167413 -0.150000 4.711736
v -2.249999 -0.136551 4.667414
v -2.214062 -0.150000 4.667414
v -0.250000 -0.136551 4.667414
v -0.285937 -0.150000 4.667414
v -0.332586 -0.136551 4.750000
v -0.332586 -0.150000 4.711736
v -2.189395 -0.150000 4.689396
v -2.208706 -0.136551 4.708707
v -0.310604 -0.150000 4.689396
v -0.291293 -0.136551 4.708707
v -0.310604 -0.150000 0.310605
v -0.291293 -0.136551 0.291294
v -2.189396 -0.150000 0.310605
v -2.208706 -0.136551 0.291294
v -2.208706 -0.063449 0.291294
v -2.189396 -0.050000 0.310605
v -2.214063 -0.050000 0.332587
v -2.250000 -0.063449 0.332587
v -0.291293 -0.063449 0.291294
v -0.310604 -0.050000 0.310605
v -0.332586 -0.050000 0.288265
v -0.332586 -0.063449 0.250001
v -2.208706 -0.063449 4.708707
v -2.189395 -0.050000 4.689396
v -2.167413 -0.050000 4.711736
v -2.167413 -0.063449 4.750000
v -0.291293 -0.063449 4.708707
v -0.310604 -0.050000 4.689396
v -0.285937 -0.050000 4.667414
v -0.250000 -0.063449 4.667414
v -2.214062 -0.050000 4.667414
v -2.249999 -0.063449 4.667414
v -0.285937 -0.050000 0.332587
v -0.250000 -0.063449 0.332587
v -2.167413 -0.050000 0.288265
v -2.167413 -0.063449 0.250001
v -0.332586 -0.050000 4.711736
v -0.332586 -0.063449 4.750000
v -1.250000 -0.150000 0.288086
v -1.250000 -0.136551 0.250001
v -1.250000 -0.150000 4.711914
v -1.250000 -0.136551 4.750000
v -1.250000 -0.063449 0.250001
v -1.250000 -0.050000 0.288086
v -1.250000 -0.063449 4.750000
v -1.250000 -0.050000 4.711914
v -0.285574 -0.150000 1.416294
v -0.250000 -0.136551 1.416294
v -0.250000 -0.063449 1.416294
v -0.285574 -0.050000 1.416294
v -2.250000 -0.136551 1.416294
v -2.214425 -0.150000 1.416294
v -2.214425 -0.050000 1.416294
v -2.250000 -0.063449 1.416294
v -2.214425 -0.150000 3.583707
v -2.249999 -0.136551 3.583707
v -2.249999 -0.063449 3.583707
v -2.214425 -0.050000 3.583707
v -0.250000 -0.136551 3.583707
v -0.285574 -0.150000 3.583707
v -0.285574 -0.050000 3.583707
v -0.250000 -0.063449 3.583707
v -2.250000 -0.136551 2.454309
v -2.214632 -0.150000 2.454309
v -2.250000 -0.136551 2.545692
v -2.214632 -0.150000 2.545692
v -0.250000 -0.136551 2.545692
v -0.285367 -0.150000 2.545692
v -0.250000 -0.136551 2.454309
v -0.285367 -0.150000 2.454309
v -2.250000 -0.063449 2.545692
v -2.214632 -0.050000 2.545692
v -2.250000 -0.063449 2.454309
v -2.214632 -0.050000 2.454309
v -0.250000 -0.063449 2.454309
v -0.285367 -0.050000 2.454309
v -0.250000 -0.063449 2.545692
v -0.285367 -0.050000 2.545692
v -2.167413 -0.050000 1.416293
v -2.167413 -0.050000 0.332586
v -1.250000 -0.050000 0.332587
v -0.332586 -0.050000 0.332587
v -0.332586 -0.050000 3.583707
v -0.332586 -0.050000 4.667414
v -1.250000 -0.050000 4.667414
v -1.250000 -0.150000 0.332587
v -2.167414 -0.150000 0.332587
v -2.167413 -0.150000 3.583707
v -2.167413 -0.150000 4.667414
v -1.250000 -0.150000 4.667414
v -0.332586 -0.150000 4.667414
v -0.332586 -0.150000 1.416294
v -0.332586 -0.150000 0.332587
v -2.167413 -0.050000 4.667414
v -0.332586 -0.050000 1.416294
v -2.167413 -0.150000 1.416294
v -2.167413 -0.050000 3.583707
v -0.332586 -0.150000 3.583707
v -1.250000 -0.150000 2.454309
v -2.167413 -0.150000 2.454309
v -2.167413 -0.150000 2.545692
v -1.250000 -0.150000 2.545692
v -1.250000 -0.050000 2.545692
v -2.167413 -0.050000 2.545691
v -2.167413 -0.050000 2.454308
v -1.250000 -0.050000 2.454309
v -0.332586 -0.150000 2.454309
v -0.332586 -0.150000 2.545692
v -0.332586 -0.050000 2.545692
v -0.332586 -0.050000 2.454309
vn -0.0000 1.0000 -0.0000
vn -0.0000 -1.0000 -0.0000
vn -0.3554 -0.9347 -0.0000
vn -0.3172 -0.8889 -0.3306
vn 0.3148 -0.8961 -0.3130
vn -0.3148 -0.8961 0.3130
vn 0.3172 -0.8889 0.3306
vn -0.3521 -0.9360 0.0001
vn 0.3521 -0.9360 -0.0001
vn -0.0000 -0.9432 -0.3323
vn -0.0000 -0.9432 0.3323
vn -0.3172 -0.8889 0.3306
vn 0.3148 -0.8961 0.3130
vn 0.3172 -0.8889 -0.3306
vn -0.3148 -0.8961 -0.3130
vn -0.3172 0.8889 -0.3306
vn 0.3148 0.8961 -0.3130
vn -0.3148 0.8961 0.3130
vn 0.3172 0.8889 0.3306
vn -0.3521 0.9360 0.0001
vn 0.3521 0.9360 -0.0001
vn -0.0000 0.9432 -0.3323
vn -0.0000 0.9432 0.3323
vn -0.3172 0.8889 0.3306
vn 0.3148 0.8961 0.3130
vn 0.3172 0.8889 -0.3306
vn -0.3148 0.8961 -0.3130
vn -0.3521 -0.9360 -0.0001
vn -0.3521 0.9360 -0.0001
vn 0.3521 -0.9360 0.0001
vn 0.3521 0.9360 0.0001
vn 0.3554 -0.9347 -0.0000
vn 0.3554 0.9347 -0.0000
vn -0.3554 0.9347 -0.0000
vn -0.3545 -0.9350 -0.0000
vn -0.3545 0.9350 -0.0000
vn 0.3545 -0.9350 -0.0000
vn 0.3545 0.9350 -0.0000
vn -0.7071 -0.0000 -0.7071
vn -1.0000 -0.0000 -0.0000
vn -0.0000 -0.0000 -1.0000
vn 0.7071 -0.0000 -0.7071
vn 1.0000 -0.0000 -0.0000
vn -0.7071 -0.0000 0.7071
vn -0.0000 -0.0000 1.0000
vn 0.7071 -0.0000 0.7071
vn 0.4390 0.8985 -0.0000
vn -0.0000 0.8985 0.4390
vn -0.4390 0.8985 -0.0000
vn -0.0000 0.8985 -0.4390
vn -0.0000 -0.8985 0.4390
vn 0.4390 -0.8985 -0.0000
vn -0.0000 -0.8985 -0.4390
vn -0.4390 -0.8985 -0.0000
vn -0.0000 0.8985 -0.4391
vt 0.641281 0.213471
vt 0.669302 0.213471
vt 0.669302 0.180047
vt 0.641281 0.180047
vt 0.633844 0.624968
vt 0.633844 0.591544
vt 0.605823 0.591544
vt 0.605823 0.624968
vt 0.661866 0.624968
vt 0.661866 0.591544
vt 0.613260 0.213471
vt 0.613260 0.180047
vt 0.458329 0.619724
vt 0.486350 0.619724
vt 0.486350 0.586300
vt 0.458329 0.586300
vt 0.514371 0.619724
vt 0.514371 0.586300
vt 0.065691 0.689134
vt 0.065691 0.655710
vt 0.037670 0.655710
vt 0.037670 0.689134
vt 0.009648 0.655710
vt 0.009648 0.689134
vt 0.275906 0.891516
vt 0.274672 0.891509
vt 0.274675 0.894493
vt 0.275909 0.894485
vt 0.243318 0.891649
vt 0.243322 0.894555
vt 0.273128 0.894505
vt 0.273135 0.891502
vt 0.202426 0.371547
vt 0.202426 0.368636
vt 0.172558 0.368599
vt 0.172565 0.371604
vt 0.213503 0.891590
vt 0.213491 0.894594
vt 0.641281 0.245411
vt 0.669302 0.245411
vt 0.514371 0.554361
vt 0.486350 0.554361
vt 0.458329 0.554361
vt 0.613260 0.245411
vt 0.661866 0.656908
vt 0.633844 0.656908
vt 0.065691 0.623770
vt 0.037670 0.623770
vt 0.009648 0.623770
vt 0.605823 0.656908
vt 0.274616 0.821189
vt 0.273911 0.821890
vt 0.274699 0.822603
vt 0.275942 0.822558
vt 0.212262 0.821058
vt 0.212966 0.821764
vt 0.213676 0.821044
vt 0.213633 0.819726
vt 0.274586 0.964944
vt 0.273880 0.964241
vt 0.273172 0.964963
vt 0.273220 0.966280
vt 0.212208 0.965009
vt 0.212912 0.964304
vt 0.212120 0.963594
vt 0.210877 0.963643
vt 0.276397 0.928412
vt 0.275159 0.928412
vt 0.274670 0.963528
vt 0.275914 0.963574
vt 0.210340 0.857609
vt 0.211580 0.857612
vt 0.212173 0.822474
vt 0.210929 0.822424
vt 0.243452 0.819331
vt 0.243449 0.820642
vt 0.273204 0.821168
vt 0.273253 0.819852
vt 0.243398 0.966770
vt 0.243396 0.965458
vt 0.213622 0.965025
vt 0.213577 0.966342
vt 0.171921 0.298844
vt 0.171215 0.298140
vt 0.169885 0.299509
vt 0.171130 0.299556
vt 0.232919 0.298814
vt 0.233624 0.298110
vt 0.232255 0.296775
vt 0.232209 0.298093
vt 0.171997 0.441301
vt 0.171295 0.442006
vt 0.172663 0.443334
vt 0.172706 0.442019
vt 0.232765 0.441181
vt 0.233466 0.441883
vt 0.234794 0.440524
vt 0.233554 0.440473
vt 0.170603 0.405526
vt 0.169366 0.405529
vt 0.169964 0.440643
vt 0.171206 0.440593
vt 0.234256 0.334659
vt 0.235495 0.334657
vt 0.234955 0.299478
vt 0.233710 0.299526
vt 0.202418 0.297646
vt 0.202418 0.296333
vt 0.172583 0.296804
vt 0.172630 0.298122
vt 0.202411 0.442415
vt 0.202414 0.443723
vt 0.232105 0.443211
vt 0.232058 0.441899
vt 0.275161 0.857676
vt 0.276397 0.857678
vt 0.169366 0.334686
vt 0.170604 0.334688
vt 0.211553 0.928486
vt 0.210315 0.928488
vt 0.235450 0.405455
vt 0.234215 0.405450
vt 0.210716 0.894581
vt 0.211952 0.894587
vt 0.211953 0.891598
vt 0.210716 0.891604
vt 0.235066 0.368608
vt 0.233829 0.368600
vt 0.233826 0.371587
vt 0.235061 0.371582
vt 0.169780 0.371587
vt 0.171017 0.371593
vt 0.171018 0.368605
vt 0.169783 0.368611
vt 0.069409 0.159813
vt 0.067034 0.159813
vt 0.067034 0.161710
vt 0.069409 0.161710
vt 0.319882 0.880976
vt 0.322257 0.880976
vt 0.322257 0.845767
vt 0.319882 0.845767
vt 0.273189 0.822606
vt 0.273640 0.857675
vt 0.406539 0.099038
vt 0.404164 0.099038
vt 0.404164 0.128844
vt 0.406539 0.128844
vt 0.067034 0.163607
vt 0.069409 0.163607
vt 0.243446 0.822098
vt 0.213685 0.822483
vt 0.074471 0.166086
vt 0.076846 0.166086
vt 0.076846 0.164189
vt 0.074471 0.164189
vt 0.404164 0.158649
vt 0.406539 0.158649
vt 0.213106 0.857616
vt 0.317299 0.845767
vt 0.314924 0.845767
vt 0.314924 0.880976
vt 0.317299 0.880976
vt 0.076846 0.162292
vt 0.074471 0.162292
vt 0.273159 0.963524
vt 0.243395 0.964002
vt 0.084283 0.159813
vt 0.081907 0.159813
vt 0.081907 0.161710
vt 0.084282 0.161710
vt 0.416559 0.094139
vt 0.418934 0.094139
vt 0.418934 0.064333
vt 0.416559 0.064333
vt 0.273634 0.928413
vt 0.319882 0.986601
vt 0.322257 0.986601
vt 0.322257 0.951393
vt 0.319882 0.951393
vt 0.081907 0.163607
vt 0.084283 0.163607
vt 0.213632 0.963586
vt 0.213077 0.928483
vt 0.091719 0.162292
vt 0.089344 0.162292
vt 0.089344 0.164189
vt 0.091719 0.164189
vt 0.317299 0.951393
vt 0.314924 0.951393
vt 0.314924 0.986601
vt 0.317299 0.986601
vt 0.416559 0.123945
vt 0.418934 0.123945
vt 0.089344 0.166086
vt 0.091719 0.166086
vt 0.172642 0.299562
vt 0.172129 0.334689
vt 0.232198 0.299533
vt 0.202419 0.299102
vt 0.172714 0.440583
vt 0.202408 0.440964
vt 0.232047 0.440465
vt 0.232694 0.405446
vt 0.172127 0.405523
vt 0.232731 0.334660
vt 0.314924 0.914700
vt 0.317299 0.914700
vt 0.232282 0.368589
vt 0.319882 0.914700
vt 0.322257 0.914700
vt 0.322257 0.917669
vt 0.319882 0.917669
vt 0.317299 0.917669
vt 0.314924 0.917669
vt 0.232288 0.371592
vt 0.174584 0.301502
vt 0.174147 0.334691
vt 0.230257 0.301476
vt 0.202420 0.301116
vt 0.230117 0.438533
vt 0.230681 0.405439
vt 0.202405 0.438959
vt 0.271247 0.824541
vt 0.243442 0.824109
vt 0.271216 0.961585
vt 0.271617 0.928415
vt 0.215570 0.961644
vt 0.243393 0.961990
vt 0.215623 0.824428
vt 0.215126 0.857621
vt 0.174648 0.438642
vt 0.230713 0.334662
vt 0.271626 0.857673
vt 0.174143 0.405520
vt 0.215093 0.928479
vt 0.243316 0.889641
vt 0.271184 0.889532
vt 0.271176 0.896487
vt 0.243325 0.896563
vt 0.202426 0.373559
vt 0.174523 0.373581
vt 0.174515 0.366620
vt 0.202427 0.366623
vt 0.215464 0.889614
vt 0.215448 0.896570
vt 0.230332 0.373569
vt 0.230324 0.366611
s 0
f 244/349/27 241/350/27 222/351/27 230/352/27
f 238/353/28 231/354/28 226/355/28 234/356/28
f 236/357/28 225/358/28 231/354/28 238/353/28
f 239/359/27 244/349/27 230/352/27 221/360/27
f 224/361/27 229/362/27 237/363/27 235/364/27
f 229/362/27 223/365/27 233/366/27 237/363/27
f 227/367/28 240/368/28 243/369/28 232/370/28
f 232/370/28 243/369/28 242/371/28 228/372/28
f 329/373/29 330/374/29 332/375/29 331/376/29
f 365/377/28 368/378/28 367/379/28 366/380/28
f 369/381/27 372/382/27 371/383/27 370/384/27
f 373/385/28 374/386/28 368/378/28 365/377/28
f 256/387/27 245/388/27 241/350/27 244/349/27
f 237/363/27 233/366/27 246/389/27 255/390/27
f 235/364/27 237/363/27 255/390/27 248/391/27
f 247/392/27 256/387/27 244/349/27 239/359/27
f 249/393/28 236/357/28 238/353/28 254/394/28
f 240/368/28 250/395/28 253/396/28 243/369/28
f 243/369/28 253/396/28 252/397/28 242/371/28
f 254/394/28 238/353/28 234/356/28 251/398/28
f 280/399/30 279/400/30 258/401/30 257/402/30
f 278/403/31 277/404/31 262/405/31 261/406/31
f 274/407/32 273/408/32 266/409/32 265/410/32
f 276/411/33 275/412/33 270/413/33 269/414/33
f 322/415/34 321/416/34 268/417/34 267/418/34
f 314/419/35 313/420/35 264/421/35 263/422/35
f 306/423/36 305/424/36 260/425/36 259/426/36
f 308/427/37 307/428/37 272/429/37 271/430/37
f 267/418/38 268/417/38 273/408/38 274/407/38
f 271/430/39 272/429/39 275/412/39 276/411/39
f 263/422/40 264/421/40 277/404/40 278/403/40
f 259/426/41 260/425/41 279/400/41 280/399/41
f 282/431/42 281/432/42 284/433/42 283/434/42
f 286/435/43 285/436/43 288/437/43 287/438/43
f 290/439/44 289/440/44 292/441/44 291/442/44
f 294/443/45 293/444/45 296/445/45 295/446/45
f 324/447/46 323/448/46 298/449/46 297/450/46
f 316/451/47 315/452/47 300/453/47 299/454/47
f 310/455/48 309/456/48 302/457/48 301/458/48
f 312/459/49 311/460/49 304/461/49 303/462/49
f 297/450/50 298/449/50 289/440/50 290/439/50
f 303/462/51 304/461/51 293/444/51 294/443/51
f 299/454/52 300/453/52 285/436/52 286/435/52
f 301/458/53 302/457/53 281/432/53 282/431/53
f 261/406/36 262/405/36 305/424/36 306/423/36
f 265/410/37 266/409/37 307/428/37 308/427/37
f 287/438/48 288/437/48 309/456/48 310/455/48
f 291/442/49 292/441/49 311/460/49 312/459/49
f 257/402/54 258/401/54 318/463/54 317/464/54
f 283/434/55 284/433/55 320/465/55 319/466/55
f 269/414/56 270/413/56 326/467/56 325/468/56
f 295/446/57 296/445/57 328/469/57 327/470/57
f 333/471/58 334/472/58 336/473/58 335/474/58
f 341/475/59 342/476/59 344/477/59 343/478/59
f 337/479/60 338/480/60 340/481/60 339/482/60
f 332/375/28 330/374/28 366/380/28 367/379/28
f 330/374/61 329/373/61 317/464/61 318/463/61
f 319/466/62 320/465/62 339/482/62 340/481/62
f 321/416/61 322/415/61 331/376/61 332/375/61
f 338/480/62 337/479/62 323/448/62 324/447/62
f 334/472/63 333/471/63 325/468/63 326/467/63
f 327/470/64 328/469/64 343/478/64 344/477/64
f 313/420/63 314/419/63 335/474/63 336/473/63
f 342/476/64 341/475/64 315/452/64 316/451/64
f 257/483/65 284/484/65 281/485/65 280/486/65
f 317/487/66 320/488/66 284/489/66 257/490/66
f 279/400/28 260/425/28 353/491/28 258/401/28
f 318/463/28 258/401/28 353/491/28 362/492/28
f 259/493/67 302/494/67 309/495/67 306/496/67
f 280/486/65 281/485/65 302/497/65 259/498/65
f 260/425/28 305/424/28 352/499/28 353/491/28
f 262/405/28 277/404/28 264/421/28 359/500/28
f 305/424/28 262/405/28 359/500/28 352/499/28
f 261/501/68 288/502/68 285/503/68 278/504/68
f 306/496/67 309/495/67 288/505/67 261/506/67
f 264/421/28 313/420/28 358/507/28 359/500/28
f 263/508/69 300/509/69 315/510/69 314/511/69
f 278/504/68 285/503/68 300/512/68 263/513/68
f 266/409/28 273/408/28 268/417/28 355/514/28
f 307/428/28 266/409/28 355/514/28 356/515/28
f 265/516/70 292/517/70 289/518/70 274/519/70
f 308/520/71 311/521/71 292/522/71 265/523/71
f 268/417/28 321/416/28 354/524/28 355/514/28
f 267/525/66 298/526/66 323/527/66 322/528/66
f 274/519/70 289/518/70 298/529/70 267/530/70
f 270/413/28 275/412/28 272/429/28 357/531/28
f 326/467/28 270/413/28 357/531/28 364/532/28
f 269/533/72 296/534/72 293/535/72 276/536/72
f 325/537/69 328/538/69 296/539/69 269/540/69
f 271/541/71 304/542/71 311/521/71 308/520/71
f 276/536/72 293/535/72 304/543/72 271/544/72
f 272/429/28 307/428/28 356/515/28 357/531/28
f 282/431/27 283/434/27 346/545/27 301/458/27
f 283/434/27 319/466/27 345/546/27 346/545/27
f 299/454/27 286/435/27 287/438/27 348/547/27
f 287/438/27 310/455/27 347/548/27 348/547/27
f 297/450/27 290/439/27 291/442/27 360/549/27
f 291/442/27 312/459/27 351/550/27 360/549/27
f 303/462/27 294/443/27 295/446/27 350/551/27
f 295/446/27 327/470/27 349/552/27 350/551/27
f 324/447/27 297/450/27 360/549/27 363/553/27
f 316/451/27 299/454/27 348/547/27 361/554/27
f 310/455/27 301/458/27 346/545/27 347/548/27
f 312/459/27 303/462/27 350/551/27 351/550/27
f 313/420/28 336/473/28 373/385/28 358/507/28
f 314/511/69 315/510/69 341/555/69 335/556/69
f 342/476/27 316/451/27 361/554/27 376/557/27
f 329/558/66 339/559/66 320/488/66 317/487/66
f 330/374/28 318/463/28 362/492/28 366/380/28
f 319/466/27 340/481/27 371/383/27 345/546/27
f 321/416/28 332/375/28 367/379/28 354/524/28
f 322/528/66 323/527/66 337/560/66 331/561/66
f 338/480/27 324/447/27 363/553/27 370/384/27
f 333/562/69 343/563/69 328/538/69 325/537/69
f 334/472/28 326/467/28 364/532/28 374/386/28
f 327/470/27 344/477/27 375/564/27 349/552/27
f 339/559/66 329/558/66 331/561/66 337/560/66
f 336/473/28 334/472/28 374/386/28 373/385/28
f 343/563/69 333/562/69 335/556/69 341/555/69
f 340/481/27 338/480/27 370/384/27 371/383/27
f 344/477/27 342/476/27 376/557/27 375/564/27
f 223/565/73 346/545/73 345/546/73 233/566/73
f 224/567/74 348/547/74 347/548/74 229/568/74
f 221/569/75 350/551/75 349/552/75 239/570/75
f 230/571/76 351/550/76 350/551/76 221/569/76
f 225/572/77 353/491/77 352/499/77 231/573/77
f 227/574/78 355/514/78 354/524/78 240/575/78
f 228/576/79 357/531/79 356/515/79 232/577/79
f 226/578/80 359/500/80 358/507/80 234/579/80
f 229/568/74 347/548/74 346/545/74 223/565/74
f 222/580/81 360/549/81 351/550/81 230/571/81
f 231/573/77 352/499/77 359/500/77 226/578/77
f 232/577/79 356/515/79 355/514/79 227/574/79
f 235/581/75 361/554/75 348/547/75 224/567/75
f 236/582/78 362/492/78 353/491/78 225/572/78
f 241/583/73 363/553/73 360/549/73 222/580/73
f 242/584/80 364/532/80 357/531/80 228/576/80
f 254/585/79 365/377/79 366/380/79 249/586/79
f 250/587/77 367/379/77 368/378/77 253/588/77
f 256/589/74 369/381/74 370/384/74 245/590/74
f 246/591/76 371/383/76 372/382/76 255/592/76
f 251/593/79 373/385/79 365/377/79 254/585/79
f 253/588/77 368/378/77 374/386/77 252/594/77
f 247/595/74 375/564/74 369/381/74 256/589/74
f 255/592/76 372/382/76 376/557/76 248/596/76
f 249/586/78 366/380/78 362/492/78 236/582/78
f 240/575/78 354/524/78 367/379/78 250/587/78
f 252/594/80 374/386/80 364/532/80 242/584/80
f 234/579/80 358/507/80 373/385/80 251/593/80
f 233/566/73 345/546/73 371/383/73 246/591/73
f 245/590/73 370/384/73 363/553/73 241/583/73
f 239/570/75 349/552/75 375/564/75 247/595/75
f 248/596/75 376/557/75 361/554/75 235/581/75
f 375/564/27 376/557/27 372/382/27 369/381/27
