# Blender 5.2.2 LTS
# www.blender.org
mtllib BrainPlatform.mtl
o SquareBorder
v -0.167414 -0.200000 0.167414
v -4.832586 -0.200000 0.167414
v -4.832586 -0.200000 4.832586
v -0.167414 0.000000 4.832586
v -4.832586 0.000000 4.832586
v -0.167414 0.000000 0.167414
v -4.832586 0.000000 0.167414
v -0.167414 -0.181175 0.000000
v -0.167414 -0.200000 0.047063
v -0.332587 -0.200000 0.047063
v -0.332587 -0.181175 0.000000
v -4.667414 -0.181175 0.000000
v -4.667414 -0.200000 0.047063
v -4.832586 -0.200000 0.047063
v -4.832586 -0.181175 0.000000
v -4.832586 -0.181175 5.000000
v -4.832586 -0.200000 4.952937
v -4.667414 -0.200000 4.952936
v -4.667414 -0.181175 5.000000
v -0.332587 -0.181175 5.000000
v -0.332587 -0.200000 4.952936
v -0.214477 -0.200000 4.952937
v -0.120351 -0.200000 4.952937
v -0.167414 -0.181175 5.000000
v -0.047063 -0.200000 4.785523
v -0.000000 -0.181175 4.832586
v -0.047063 -0.200000 4.879650
v -0.047063 -0.200000 4.667414
v -0.000000 -0.181175 4.667414
v -0.000000 -0.181175 0.332587
v -0.047063 -0.200000 0.332587
v -0.047063 -0.200000 0.167414
v -0.000000 -0.181175 0.167414
v -5.000000 -0.181175 0.167414
v -4.952937 -0.200000 0.167414
v -4.952936 -0.200000 0.332587
v -5.000000 -0.181175 0.332587
v -5.000000 -0.181175 4.667414
v -4.952936 -0.200000 4.667414
v -4.952937 -0.200000 4.832586
v -5.000000 -0.181175 4.832586
v -0.332587 -0.181175 0.250000
v -0.313093 -0.200000 0.202937
v -0.250001 -0.181175 0.332587
v -0.200563 -0.200000 0.315467
v -0.250001 -0.181175 4.667414
v -0.200469 -0.200000 4.667414
v -0.262894 -0.200000 4.746864
v -0.141295 -0.200000 4.785523
v -0.120351 -0.200000 4.879650
v -0.214478 -0.200000 4.858706
v -0.272651 -0.200000 4.727350
v -0.253137 -0.200000 4.737107
v -0.332587 -0.200000 4.799532
v -0.332587 -0.181175 4.750000
v -4.750000 -0.181175 0.332587
v -4.797063 -0.200000 0.313093
v -4.667414 -0.181175 0.250000
v -4.686908 -0.200000 0.202937
v -4.667414 -0.181175 4.750000
v -4.684534 -0.200000 4.799438
v -4.750000 -0.181175 4.667414
v -4.797063 -0.200000 4.686908
v -0.000000 -0.018825 0.167414
v -0.047063 0.000000 0.167414
v -0.047063 0.000000 0.332587
v -0.000000 -0.018825 0.332587
v -4.667414 0.000000 0.047063
v -4.667414 -0.018825 0.000000
v -4.832586 -0.018825 0.000000
v -4.832586 0.000000 0.047063
v -5.000000 -0.018825 4.832586
v -4.952937 0.000000 4.832586
v -4.952936 0.000000 4.667414
v -5.000000 -0.018825 4.667414
v -0.167414 -0.018825 5.000000
v -0.167414 0.000000 4.952937
v -0.332587 0.000000 4.952936
v -0.332587 -0.018825 5.000000
v -0.167414 0.000000 0.047063
v -0.167414 -0.018825 0.000000
v -0.332587 -0.018825 0.000000
v -0.332587 0.000000 0.047063
v -4.667414 -0.018825 5.000000
v -4.667414 0.000000 4.952936
v -4.832586 0.000000 4.952937
v -4.832586 -0.018825 5.000000
v -0.332587 -0.018825 4.750000
v -0.313093 0.000000 4.797063
v -0.250001 -0.018825 4.667414
v -0.202937 0.000000 4.686908
v -4.667414 -0.018825 4.750000
v -4.686908 0.000000 4.797063
v -4.750000 -0.018825 4.667414
v -4.797063 0.000000 4.686908
v -0.047063 0.000000 4.832586
v -0.000000 -0.018825 4.832586
v -0.000000 -0.018825 4.667414
v -0.047063 0.000000 4.667414
v -5.000000 -0.018825 0.332587
v -4.952936 0.000000 0.332587
v -4.952937 0.000000 0.167414
v -5.000000 -0.018825 0.167414
v -0.332587 -0.018825 0.250000
v -0.313093 0.000000 0.202937
v -0.250001 -0.018825 0.332587
v -0.202937 0.000000 0.313093
v -4.750000 -0.018825 0.332587
v -4.797063 0.000000 0.313093
v -4.667414 -0.018825 0.250000
v -4.686908 0.000000 0.202937
v -4.741985 -0.200000 0.258015
v -4.708707 -0.181175 0.291294
v -4.741985 0.000000 0.258015
v -4.708707 -0.018825 0.291294
v -4.741985 -0.200000 4.741985
v -4.708707 -0.181175 4.708707
v -4.741985 0.000000 4.741985
v -4.708707 -0.018825 4.708707
v -0.258015 -0.200000 4.741985
v -0.291294 -0.181175 4.708707
v -0.258015 0.000000 4.741985
v -0.291294 -0.018825 4.708707
v -0.258015 -0.200000 0.258015
v -0.291294 -0.181175 0.291294
v -0.258015 0.000000 0.258015
v -0.291294 -0.018825 0.291294
v -0.080614 -0.200000 0.047063
v -0.061120 -0.181175 0.000000
v -0.047063 -0.200000 0.080614
v 0.000000 -0.181175 0.061120
v -4.952937 -0.200000 0.080614
v -5.000000 -0.181175 0.061120
v -4.919386 -0.200000 0.047063
v -4.938880 -0.181175 0.000000
v -0.047063 -0.200000 4.919386
v 0.000000 -0.181175 4.938880
v -0.080614 -0.200000 4.952937
v -0.061120 -0.181175 5.000000
v -4.919386 -0.200000 4.952937
v -4.938880 -0.181175 5.000000
v -4.952937 -0.200000 4.919386
v -5.000000 -0.181175 4.938880
v -0.047063 0.000000 0.080614
v 0.000000 -0.018825 0.061120
v -0.080614 0.000000 0.047063
v -0.061120 -0.018825 0.000000
v -4.919386 0.000000 0.047063
v -4.938880 -0.018825 0.000000
v -4.952937 0.000000 0.080614
v -5.000000 -0.018825 0.061120
v -4.952937 0.000000 4.919386
v -5.000000 -0.018825 4.938880
v -4.919386 0.000000 4.952937
v -4.938880 -0.018825 5.000000
v -0.080614 0.000000 4.952937
v -0.061120 -0.018825 5.000000
v -0.047063 0.000000 4.919386
v 0.000000 -0.018825 4.938880
v -4.952936 -0.200000 2.500000
v -5.000000 -0.181175 2.500000
v -4.952936 0.000000 2.500000
v -5.000000 -0.018825 2.500000
v -4.750000 -0.181175 2.500000
v -4.797063 -0.200000 2.500000
v -4.797063 0.000000 2.500000
v -4.750000 -0.018825 2.500000
v -2.499294 -0.200000 0.047063
v -2.499294 -0.181175 0.000000
v -2.499294 0.000000 0.047063
v -2.499294 -0.018825 0.000000
v -2.499294 -0.181175 0.250000
v -2.499288 -0.200000 0.202937
v -2.499288 0.000000 0.202937
v -2.499294 -0.018825 0.250000
v -2.500000 -0.200000 4.952936
v -2.500000 -0.181175 5.000000
v -2.500000 0.000000 4.952936
v -2.500000 -0.018825 5.000000
v -2.500000 -0.181175 4.750000
v -2.508560 -0.200000 4.799485
v -2.500000 0.000000 4.797063
v -2.500000 -0.018825 4.750000
v -0.047063 -0.200000 2.500000
v -0.000000 -0.181175 2.500000
v -0.047063 0.000000 2.500000
v -0.000000 -0.018825 2.500000
v -0.250001 -0.181175 2.500000
v -0.200516 -0.200000 2.491440
v -0.202937 0.000000 2.500000
v -0.250001 -0.018825 2.500000
v -0.332587 -0.127058 0.000000
v -0.332587 -0.072942 0.000000
v -0.167414 -0.072942 0.000000
v -0.167414 -0.127058 0.000000
v -0.061120 -0.072942 0.000000
v -0.061120 -0.127058 0.000000
v -4.667414 -0.127058 0.000000
v -4.667414 -0.072942 0.000000
v -4.832586 -0.127058 0.000000
v -4.832586 -0.072942 0.000000
v -4.938880 -0.127058 0.000000
v -4.938880 -0.072942 0.000000
v -4.667414 -0.127058 5.000000
v -4.667414 -0.072942 5.000000
v -4.832586 -0.072942 5.000000
v -4.832586 -0.127058 5.000000
v -4.938880 -0.072942 5.000000
v -4.938880 -0.127058 5.000000
v -0.332587 -0.127058 5.000000
v -0.332587 -0.072942 5.000000
v -0.167414 -0.127058 5.000000
v -0.167414 -0.072942 5.000000
v -0.061120 -0.127058 5.000000
v -0.061120 -0.072942 5.000000
v -0.000000 -0.127058 4.667414
v -0.000000 -0.072942 4.667414
v -0.000000 -0.072942 4.832586
v -0.000000 -0.127058 4.832586
v 0.000000 -0.072942 4.938880
v 0.000000 -0.127058 4.938880
v -0.000000 -0.127058 0.332587
v -0.000000 -0.072942 0.332587
v -0.000000 -0.127058 0.167414
v -0.000000 -0.072942 0.167414
v 0.000000 -0.127058 0.061120
v 0.000000 -0.072942 0.061120
v -5.000000 -0.072942 0.061120
v -5.000000 -0.127058 0.061120
v -5.000000 -0.127058 0.167414
v -5.000000 -0.072942 0.167414
v -5.000000 -0.127058 0.332587
v -5.000000 -0.072942 0.332587
v -5.000000 -0.127058 4.667414
v -5.000000 -0.072942 4.667414
v -5.000000 -0.127058 4.832586
v -5.000000 -0.072942 4.832586
v -5.000000 -0.127058 4.938880
v -5.000000 -0.072942 4.938880
v -5.000000 -0.127058 2.500000
v -5.000000 -0.072942 2.500000
v -2.499294 -0.127058 0.000000
v -2.499294 -0.072942 0.000000
v -2.500000 -0.127058 5.000000
v -2.500000 -0.072942 5.000000
v -0.000000 -0.127058 2.500000
v -0.000000 -0.072942 2.500000
vn -0.0000 -0.9285 0.3714
vn 0.3714 -0.9285 -0.0000
vn -0.3422 -0.9003 -0.2689
vn -0.0000 -1.0000 -0.0000
vn -0.2689 -0.9003 -0.3422
vn -0.2626 -0.9285 0.2626
vn -0.2626 -0.9285 -0.2626
vn 0.2626 -0.9285 0.2626
vn 0.2626 -0.9285 -0.2626
vn -0.2626 0.9285 -0.2626
vn 0.2626 0.9285 -0.2626
vn -0.2626 0.9285 0.2626
vn 0.2626 0.9285 0.2626
vn 0.3714 0.9285 -0.0000
vn -0.0000 0.9285 0.3714
vn -0.3714 0.9285 -0.0000
vn -0.3714 -0.9285 -0.0000
vn -0.0000 0.9285 -0.3714
vn -0.0000 -0.9285 -0.3714
vn -0.0000 -0.9347 -0.3554
vn -0.3557 -0.9346 -0.0000
vn -0.0000 -0.0000 -1.0000
vn -0.0000 -0.0000 1.0000
vn 1.0000 -0.0000 -0.0000
vn -1.0000 -0.0000 -0.0000
vn -0.7071 -0.0000 0.7071
vn -0.7071 -0.0000 -0.7071
vn 0.7071 -0.0000 0.7071
vn 0.7071 -0.0000 -0.7071
vn -0.0000 1.0000 -0.0000
vn -0.0000 -0.9346 -0.3557
vn -0.3554 -0.9347 -0.0000
vt 0.175531 0.019559
vt 0.175462 0.016365
vt 0.177241 0.017929
vt 0.169712 0.013975
vt 0.171295 0.012224
vt 0.172926 0.013929
vt 0.165949 0.020894
vt 0.165899 0.019125
vt 0.168658 0.020837
vt 0.169703 0.017169
vt 0.172976 0.016418
vt 0.172428 0.019622
vt 0.169010 0.021185
vt 0.168537 0.021226
vt 0.170249 0.023459
vt 0.168503 0.023494
vt 0.022674 0.023747
vt 0.021335 0.025084
vt 0.019697 0.024402
vt 0.021499 0.022574
vt 0.167232 0.022093
vt 0.168500 0.020995
vt 0.022632 0.167017
vt 0.023976 0.168332
vt 0.023292 0.169975
vt 0.021470 0.168181
vt 0.166553 0.167236
vt 0.167898 0.165908
vt 0.169599 0.166527
vt 0.167716 0.168414
vt 0.290558 0.435973
vt 0.291901 0.437309
vt 0.291212 0.438957
vt 0.289382 0.437149
vt 0.434731 0.436206
vt 0.436070 0.434861
vt 0.437719 0.435551
vt 0.435908 0.437384
vt 0.291396 0.291665
vt 0.290053 0.293009
vt 0.288405 0.292312
vt 0.290221 0.290485
vt 0.434736 0.291604
vt 0.433396 0.290284
vt 0.434076 0.288641
vt 0.435897 0.290437
vt 0.283337 0.287477
vt 0.283275 0.292895
vt 0.281611 0.292876
vt 0.281674 0.287448
vt 0.023904 0.015650
vt 0.018503 0.015712
vt 0.018472 0.014055
vt 0.023883 0.013992
vt 0.175516 0.023536
vt 0.177226 0.023542
vt 0.286398 0.444041
vt 0.291815 0.444081
vt 0.291803 0.445743
vt 0.286374 0.445706
vt 0.174547 0.171389
vt 0.174592 0.166025
vt 0.176235 0.166040
vt 0.176194 0.171413
vt 0.433461 0.444309
vt 0.438875 0.444286
vt 0.438892 0.445949
vt 0.433468 0.445969
vt 0.442821 0.292869
vt 0.442765 0.287456
vt 0.444425 0.287427
vt 0.444484 0.292854
vt 0.018500 0.175036
vt 0.023893 0.175080
vt 0.023880 0.176737
vt 0.018475 0.176692
vt 0.165270 0.175298
vt 0.170651 0.175273
vt 0.170670 0.176923
vt 0.165277 0.176951
vt 0.442807 0.440369
vt 0.442847 0.434947
vt 0.444512 0.434959
vt 0.444471 0.440394
vt 0.287266 0.281917
vt 0.292686 0.281918
vt 0.292687 0.283575
vt 0.287279 0.283578
vt 0.433455 0.281924
vt 0.438844 0.281917
vt 0.438833 0.283572
vt 0.433454 0.283571
vt 0.280820 0.440128
vt 0.280802 0.434701
vt 0.282463 0.434697
vt 0.282482 0.440112
vt 0.014595 0.165738
vt 0.014609 0.171122
vt 0.012955 0.171137
vt 0.012945 0.165740
vt 0.165783 0.014035
vt 0.165757 0.012359
vt 0.014618 0.019639
vt 0.014611 0.025025
vt 0.012960 0.025024
vt 0.012963 0.019627
vt 0.014590 0.095376
vt 0.012945 0.095376
vt 0.363223 0.283573
vt 0.363223 0.281927
vt 0.021307 0.095377
vt 0.021315 0.165682
vt 0.019678 0.166360
vt 0.019650 0.095376
vt 0.175252 0.096118
vt 0.176917 0.096129
vt 0.362697 0.444545
vt 0.362694 0.446202
vt 0.168690 0.096083
vt 0.170376 0.096364
vt 0.094683 0.014713
vt 0.094664 0.013054
vt 0.282460 0.363909
vt 0.280802 0.363899
vt 0.094761 0.021448
vt 0.024019 0.022407
vt 0.023399 0.020689
vt 0.094462 0.019718
vt 0.094652 0.175588
vt 0.094649 0.177241
vt 0.443301 0.363955
vt 0.444962 0.363954
vt 0.094663 0.168844
vt 0.165205 0.168564
vt 0.165886 0.170206
vt 0.094660 0.170508
vt 0.287555 0.363939
vt 0.289225 0.363949
vt 0.363224 0.288635
vt 0.363226 0.290293
vt 0.362706 0.439456
vt 0.362709 0.437787
vt 0.438197 0.363956
vt 0.436524 0.363957
vt 0.436049 0.292945
vt 0.437690 0.292264
vt 0.433387 0.437546
vt 0.434075 0.439193
vt 0.289219 0.434634
vt 0.287574 0.435318
vt 0.292741 0.290325
vt 0.292058 0.288680
vt 0.015712 0.015767
vt 0.014637 0.016844
vt 0.013019 0.016164
vt 0.015001 0.014156
vt 0.284477 0.283602
vt 0.283387 0.284672
vt 0.281770 0.283970
vt 0.283783 0.281978
vt 0.441683 0.444257
vt 0.442762 0.443174
vt 0.444383 0.443882
vt 0.442373 0.445881
vt 0.173435 0.175242
vt 0.174503 0.174167
vt 0.176110 0.174868
vt 0.174120 0.176851
vt 0.014639 0.173911
vt 0.015706 0.174994
vt 0.015012 0.176605
vt 0.013023 0.174606
vt 0.442714 0.284658
vt 0.441625 0.283594
vt 0.442315 0.281974
vt 0.444326 0.283957
vt 0.282511 0.442918
vt 0.283594 0.443997
vt 0.282886 0.445618
vt 0.280887 0.443607
vt 0.175409 0.015027
vt 0.174269 0.013921
vt 0.174942 0.012201
vt 0.177099 0.014267
vt 0.018535 0.019631
vt 0.958275 0.165511
vt 0.956506 0.165511
vt 0.956506 0.160113
vt 0.958275 0.160113
vt 0.958275 0.156639
vt 0.956506 0.156639
vt 0.958275 0.236326
vt 0.958275 0.307187
vt 0.956506 0.307187
vt 0.956506 0.236326
vt 0.960043 0.307187
vt 0.961812 0.307187
vt 0.961812 0.312585
vt 0.960043 0.312585
vt 0.018522 0.171122
vt 0.958275 0.312585
vt 0.958275 0.316059
vt 0.956506 0.316059
vt 0.956506 0.312585
vt 0.170646 0.171369
vt 0.284544 0.677782
vt 0.286313 0.677782
vt 0.286313 0.683181
vt 0.284544 0.683181
vt 0.284544 0.686655
vt 0.286313 0.686655
vt 0.284544 0.606944
vt 0.284544 0.536106
vt 0.286313 0.536106
vt 0.286313 0.606944
vt 0.284544 0.530708
vt 0.286313 0.530708
vt 0.284544 0.527234
vt 0.286313 0.527234
vt 0.966241 0.960377
vt 0.968010 0.960377
vt 0.968010 0.965775
vt 0.966241 0.965775
vt 0.966241 0.969249
vt 0.968010 0.969249
vt 0.966241 0.889539
vt 0.966241 0.818701
vt 0.968010 0.818701
vt 0.968010 0.889539
vt 0.964472 0.818701
vt 0.962703 0.818701
vt 0.962703 0.813302
vt 0.964472 0.813302
vt 0.966241 0.813302
vt 0.966241 0.809828
vt 0.968010 0.809828
vt 0.968010 0.813302
vt 0.279057 0.059962
vt 0.279057 0.063436
vt 0.277288 0.063436
vt 0.277288 0.059962
vt 0.280826 0.063436
vt 0.282594 0.063436
vt 0.282594 0.068834
vt 0.280826 0.068834
vt 0.279057 0.139672
vt 0.279057 0.210510
vt 0.277288 0.210510
vt 0.277288 0.139672
vt 0.279057 0.215908
vt 0.277288 0.215908
vt 0.279057 0.219382
vt 0.277288 0.219382
vt 0.144917 0.158649
vt 0.144917 0.153343
vt 0.146825 0.153343
vt 0.146825 0.158649
vt 0.971380 0.072915
vt 0.971380 0.002100
vt 0.976686 0.002100
vt 0.976686 0.072915
vt 0.148734 0.153343
vt 0.148734 0.158649
vt 0.722250 0.910806
vt 0.722250 0.839967
vt 0.727556 0.839967
vt 0.727556 0.910806
vt 0.129473 0.158301
vt 0.129473 0.163607
vt 0.127564 0.163607
vt 0.127564 0.158301
vt 0.131382 0.158301
vt 0.131382 0.163607
vt 0.934196 0.183249
vt 0.934196 0.112411
vt 0.939502 0.112411
vt 0.939502 0.183249
vt 0.027838 0.180611
vt 0.027838 0.185917
vt 0.025930 0.185917
vt 0.025930 0.180611
vt 0.936675 0.898411
vt 0.936675 0.827573
vt 0.941981 0.827573
vt 0.941981 0.898411
vt 0.029747 0.180611
vt 0.029747 0.185917
vt 0.033366 0.185917
vt 0.033366 0.180611
vt 0.035275 0.180611
vt 0.035275 0.185917
vt 0.037183 0.180611
vt 0.037183 0.185917
vt 0.287269 0.287510
vt 0.438839 0.287482
vt 0.438870 0.440352
vt 0.286415 0.440108
vt 0.190875 0.018062
vt 0.190875 0.019831
vt 0.188050 0.019831
vt 0.188050 0.018062
vt 0.156170 0.146965
vt 0.156171 0.148734
vt 0.153346 0.148734
vt 0.153345 0.146965
vt 0.188396 0.030457
vt 0.188396 0.032226
vt 0.185571 0.032226
vt 0.185571 0.030457
vt 0.024443 0.194774
vt 0.024443 0.193006
vt 0.027268 0.193006
vt 0.027268 0.194774
vt 0.936675 0.969249
vt 0.941981 0.969249
vt 0.279057 0.068834
vt 0.277288 0.068834
vt 0.971380 0.143776
vt 0.976686 0.143776
vt 0.934196 0.254087
vt 0.939502 0.254087
vt 0.722250 0.981643
vt 0.727556 0.981643
vt 0.962703 0.960377
vt 0.962703 0.889539
vt 0.964472 0.889539
vt 0.964472 0.960377
vt 0.281007 0.677782
vt 0.281007 0.606944
vt 0.282775 0.606944
vt 0.282775 0.677782
vt 0.961812 0.165511
vt 0.961812 0.236326
vt 0.960043 0.236326
vt 0.960043 0.165511
vt 0.282594 0.139672
vt 0.280826 0.139672
vt 0.024443 0.198312
vt 0.024443 0.196543
vt 0.027268 0.196543
vt 0.027268 0.198312
vt 0.188396 0.026920
vt 0.188396 0.028688
vt 0.185571 0.028688
vt 0.185571 0.026920
vt 0.156171 0.143428
vt 0.156170 0.145196
vt 0.153345 0.145196
vt 0.153346 0.143428
vt 0.190875 0.014525
vt 0.190875 0.016294
vt 0.188050 0.016294
vt 0.188050 0.014525
vt 0.282594 0.215908
vt 0.282594 0.219382
vt 0.280826 0.219382
vt 0.280826 0.215908
vt 0.280826 0.210510
vt 0.282594 0.210510
vt 0.282594 0.059962
vt 0.280826 0.059962
vt 0.962703 0.809828
vt 0.964472 0.809828
vt 0.962703 0.969249
vt 0.962703 0.965775
vt 0.964472 0.965775
vt 0.964472 0.969249
vt 0.281007 0.530708
vt 0.281007 0.527234
vt 0.282775 0.527234
vt 0.282775 0.530708
vt 0.282775 0.536106
vt 0.281007 0.536106
vt 0.281007 0.686655
vt 0.281007 0.683181
vt 0.282775 0.683181
vt 0.282775 0.686655
vt 0.961812 0.316059
vt 0.960043 0.316059
vt 0.961812 0.156639
vt 0.961812 0.160113
vt 0.960044 0.160113
vt 0.960044 0.156639
s 0
f 22/1/1 23/2/1 24/3/1
f 25/4/2 26/5/2 27/6/2
f 46/7/3 47/8/3 48/9/3
f 49/10/4 50/11/4 51/12/4 52/13/4
f 53/14/5 54/15/5 55/16/5
f 125/17/6 42/18/6 43/19/6 124/20/6
f 121/21/7 46/7/7 48/9/7 120/22/7
f 47/8/4 49/10/4 52/13/4 48/9/4
f 51/12/4 54/15/4 53/14/4 52/13/4
f 113/23/8 56/24/8 57/25/8 112/26/8
f 117/27/9 60/28/9 61/29/9 116/30/9
f 123/31/10 88/32/10 89/33/10 122/34/10
f 119/35/11 94/36/11 95/37/11 118/38/11
f 127/39/12 106/40/12 107/41/12 126/42/12
f 115/43/13 110/44/13 111/45/13 114/46/13
f 65/47/14 66/48/14 67/49/14 64/50/14
f 31/51/2 32/52/2 33/53/2 30/54/2
f 21/55/1 22/1/1 24/3/1 20/56/1
f 77/57/15 78/58/15 79/59/15 76/60/15
f 17/61/1 18/62/1 19/63/1 16/64/1
f 85/65/15 86/66/15 87/67/15 84/68/15
f 101/69/16 102/70/16 103/71/16 100/72/16
f 35/73/17 36/74/17 37/75/17 34/76/17
f 39/77/17 40/78/17 41/79/17 38/80/17
f 73/81/16 74/82/16 75/83/16 72/84/16
f 81/85/18 82/86/18 83/87/18 80/88/18
f 69/89/18 70/90/18 71/91/18 68/92/18
f 97/93/14 98/94/14 99/95/14 96/96/14
f 13/97/19 14/98/19 15/99/19 12/100/19
f 25/4/2 28/101/2 29/102/2 26/5/2
f 9/103/19 10/104/19 11/105/19 8/106/19
f 50/11/4 23/2/4 22/1/4 51/12/4
f 27/6/4 50/11/4 49/10/4 25/4/4
f 168/107/19 13/97/19 12/100/19 169/108/19
f 170/109/18 83/87/18 82/86/18 171/110/18
f 172/111/1 58/112/1 59/113/1 173/114/1
f 176/115/1 21/55/1 20/56/1 177/116/1
f 178/117/15 85/65/15 84/68/15 179/118/15
f 180/119/20 55/16/20 54/15/20 181/120/20
f 184/121/2 31/51/2 30/54/2 185/122/2
f 186/123/14 99/95/14 98/94/14 187/124/14
f 188/125/21 44/126/21 45/127/21 189/128/21
f 160/129/17 39/77/17 38/80/17 161/130/17
f 162/131/16 101/69/16 100/72/16 163/132/16
f 164/133/2 62/134/2 63/135/2 165/136/2
f 190/137/16 107/41/16 106/40/16 191/138/16
f 174/139/15 111/45/15 110/44/15 175/140/15
f 182/141/18 89/33/18 88/32/18 183/142/18
f 166/143/14 95/37/14 94/36/14 167/144/14
f 58/112/8 113/23/8 112/26/8 59/113/8
f 108/145/13 115/43/13 114/46/13 109/146/13
f 62/134/9 117/27/9 116/30/9 63/135/9
f 92/147/11 119/35/11 118/38/11 93/148/11
f 55/16/7 121/21/7 120/22/7 53/14/7
f 90/149/10 123/31/10 122/34/10 91/150/10
f 44/126/6 125/17/6 124/20/6 45/127/6
f 104/151/12 127/39/12 126/42/12 105/152/12
f 130/153/9 128/154/9 129/155/9 131/156/9
f 146/157/11 144/158/11 145/159/11 147/160/11
f 154/161/12 152/162/12 153/163/12 155/164/12
f 142/165/6 140/166/6 141/167/6 143/168/6
f 134/169/7 132/170/7 133/171/7 135/172/7
f 150/173/10 148/174/10 149/175/10 151/176/10
f 158/177/13 156/178/13 157/179/13 159/180/13
f 138/181/8 136/182/8 137/183/8 139/184/8
f 32/52/2 130/153/2 131/156/2 33/53/2
f 144/158/14 65/47/14 64/50/14 145/159/14
f 8/106/19 129/155/19 128/154/19 9/103/19
f 80/88/18 146/157/18 147/160/18 81/85/18
f 132/170/17 35/73/17 34/76/17 133/171/17
f 102/70/16 150/173/16 151/176/16 103/71/16
f 14/98/19 134/169/19 135/172/19 15/99/19
f 148/174/18 71/91/18 70/90/18 149/175/18
f 136/182/2 27/6/2 26/5/2 137/183/2
f 96/96/14 158/177/14 159/180/14 97/93/14
f 23/2/1 138/181/1 139/184/1 24/3/1
f 156/178/15 77/57/15 76/60/15 157/179/15
f 40/78/17 142/165/17 143/168/17 41/79/17
f 152/162/16 73/81/16 72/84/16 153/163/16
f 16/64/1 141/167/1 140/166/1 17/61/1
f 86/66/15 154/161/15 155/164/15 87/67/15
f 9/103/4 1/185/4 43/19/4 10/104/4
f 32/52/4 1/185/4 9/103/4 128/154/4 130/153/4
f 193/186/22 82/187/22 81/188/22 194/189/22
f 196/190/22 194/189/22 81/188/22 147/191/22
f 168/107/4 173/114/4 59/113/4 13/97/4
f 243/192/22 199/193/22 69/194/22 171/195/22
f 198/196/22 12/197/22 15/198/22 200/199/22
f 13/97/4 59/113/4 2/200/4 14/98/4
f 14/98/4 2/200/4 35/73/4 132/170/4 134/169/4
f 201/201/22 203/202/22 149/203/22 70/204/22
f 17/61/4 3/205/4 61/29/4 18/62/4
f 40/78/4 3/205/4 17/61/4 140/166/4 142/165/4
f 205/206/23 84/207/23 87/208/23 206/209/23
f 208/210/23 206/209/23 87/208/23 155/211/23
f 176/115/4 18/62/4 61/29/4 181/120/4
f 245/212/23 211/213/23 79/214/23 179/215/23
f 21/55/4 54/15/4 51/12/4 22/1/4
f 213/216/23 76/217/23 79/214/23 211/213/23
f 23/2/4 50/11/4 27/6/4 136/182/4 138/181/4
f 213/216/23 215/218/23 157/219/23 76/217/23
f 25/4/4 49/10/4 47/8/4 28/101/4
f 217/220/24 98/221/24 97/222/24 218/223/24
f 220/224/24 218/223/24 97/222/24 159/225/24
f 184/121/4 189/128/4 45/127/4 31/51/4
f 247/226/24 223/227/24 67/228/24 187/229/24
f 222/230/24 30/231/24 33/232/24 224/233/24
f 31/51/4 45/127/4 1/185/4 32/52/4
f 225/234/24 227/235/24 145/236/24 64/237/24
f 228/238/25 231/239/25 103/240/25 151/241/25
f 230/242/25 34/243/25 37/244/25 232/245/25
f 35/73/4 2/200/4 57/25/4 36/74/4
f 160/129/4 36/74/4 57/25/4 165/136/4
f 241/246/25 235/247/25 75/248/25 163/249/25
f 39/77/4 63/135/4 3/205/4 40/78/4
f 237/250/25 72/251/25 75/248/25 235/247/25
f 237/250/25 239/252/25 153/253/25 72/251/25
f 104/254/26 42/255/26 125/256/26 127/257/26
f 43/19/4 1/185/4 45/127/4 124/20/4
f 172/258/23 42/259/23 104/260/23 175/261/23
f 127/257/26 125/256/26 44/262/26 106/263/26
f 188/264/25 46/265/25 90/266/25 191/267/25
f 121/268/27 123/269/27 90/270/27 46/271/27
f 48/9/4 52/13/4 53/14/4 120/22/4
f 55/272/27 88/273/27 123/269/27 121/268/27
f 180/274/22 60/275/22 92/276/22 183/277/22
f 113/278/28 115/279/28 108/280/28 56/281/28
f 57/25/4 2/200/4 59/113/4 112/26/4
f 164/282/24 56/283/24 108/284/24 167/285/24
f 58/286/28 110/287/28 115/279/28 113/278/28
f 92/288/29 60/289/29 117/290/29 119/291/29
f 61/29/4 3/205/4 63/135/4 116/30/4
f 119/291/29 117/290/29 62/292/29 94/293/29
f 107/41/30 66/48/30 65/47/30 6/294/30
f 144/158/30 146/157/30 80/88/30 6/294/30 65/47/30
f 186/123/30 190/137/30 91/150/30 99/95/30
f 71/91/30 7/295/30 111/45/30 68/92/30
f 170/109/30 68/92/30 111/45/30 174/139/30
f 71/91/30 148/174/30 150/173/30 102/70/30 7/295/30
f 73/81/30 5/296/30 95/37/30 74/82/30
f 5/296/30 73/81/30 152/162/30 154/161/30 86/66/30
f 166/143/30 162/131/30 74/82/30 95/37/30
f 89/33/30 78/58/30 77/57/30 4/297/30
f 96/96/30 4/297/30 77/57/30 156/178/30 158/177/30
f 182/141/30 93/148/30 85/65/30 178/117/30
f 83/87/30 105/152/30 6/294/30 80/88/30
f 5/296/30 86/66/30 85/65/30 93/148/30
f 89/33/30 4/297/30 91/150/30 122/34/30
f 4/297/30 96/96/30 99/95/30 91/150/30
f 5/296/30 93/148/30 118/38/30 95/37/30
f 101/69/30 109/146/30 7/295/30 102/70/30
f 6/294/30 105/152/30 126/42/30 107/41/30
f 7/295/30 109/146/30 114/46/30 111/45/30
f 196/298/29 147/299/29 145/300/29 227/301/29
f 228/302/27 151/303/27 149/304/27 203/305/27
f 214/306/28 139/307/28 137/308/28 221/309/28
f 238/310/26 143/311/26 141/312/26 209/313/26
f 109/146/30 101/69/30 162/131/30 166/143/30
f 62/314/24 164/282/24 167/285/24 94/315/24
f 233/316/25 241/246/25 163/249/25 100/317/25
f 39/77/4 160/129/4 165/136/4 63/135/4
f 109/146/14 166/143/14 167/144/14 108/145/14
f 56/24/2 164/133/2 165/136/2 57/25/2
f 74/82/16 162/131/16 163/132/16 75/83/16
f 36/74/17 160/129/17 161/130/17 37/75/17
f 83/87/30 170/109/30 174/139/30 105/152/30
f 58/318/23 172/258/23 175/261/23 110/319/23
f 193/186/22 243/192/22 171/195/22 82/187/22
f 10/104/4 43/19/4 173/114/4 168/107/4
f 105/152/15 174/139/15 175/140/15 104/151/15
f 42/18/1 172/111/1 173/114/1 43/19/1
f 68/92/18 170/109/18 171/110/18 69/89/18
f 10/104/19 168/107/19 169/108/19 11/105/19
f 89/33/30 182/141/30 178/117/30 78/58/30
f 55/320/22 180/274/22 183/277/22 88/321/22
f 205/206/23 245/212/23 179/215/23 84/207/23
f 21/55/4 176/115/4 181/120/4 54/15/4
f 93/148/18 182/141/18 183/142/18 92/147/18
f 60/28/31 180/119/31 181/120/31 61/29/31
f 78/58/15 178/117/15 179/118/15 79/59/15
f 18/62/1 176/115/1 177/116/1 19/63/1
f 66/48/30 107/41/30 190/137/30 186/123/30
f 44/322/25 188/264/25 191/267/25 106/323/25
f 217/220/24 247/226/24 187/229/24 98/221/24
f 28/101/4 47/8/4 189/128/4 184/121/4
f 91/150/16 190/137/16 191/138/16 90/149/16
f 46/7/32 188/125/32 189/128/32 47/8/32
f 66/48/14 186/123/14 187/124/14 67/49/14
f 28/101/2 184/121/2 185/122/2 29/102/2
f 29/324/24 185/325/24 246/326/24 216/327/24
f 216/327/24 246/326/24 247/226/24 217/220/24
f 19/328/23 177/329/23 244/330/23 204/331/23
f 204/331/23 244/330/23 245/212/23 205/206/23
f 11/332/22 169/333/22 242/334/22 192/335/22
f 192/335/22 242/334/22 243/192/22 193/186/22
f 37/244/25 161/336/25 240/337/25 232/245/25
f 232/245/25 240/337/25 241/246/25 233/316/25
f 153/338/26 239/339/26 208/340/26 155/341/26
f 239/339/26 238/310/26 209/313/26 208/340/26
f 157/342/28 215/343/28 220/344/28 159/345/28
f 215/343/28 214/306/28 221/309/28 220/344/28
f 133/346/27 229/347/27 202/348/27 135/349/27
f 229/347/27 228/302/27 203/305/27 202/348/27
f 129/350/29 197/351/29 226/352/29 131/353/29
f 197/351/29 196/298/29 227/301/29 226/352/29
f 41/354/25 143/355/25 238/356/25 236/357/25
f 236/357/25 238/356/25 239/252/25 237/250/25
f 41/354/25 236/357/25 234/358/25 38/359/25
f 236/357/25 237/250/25 235/247/25 234/358/25
f 161/336/25 38/359/25 234/358/25 240/337/25
f 240/337/25 234/358/25 235/247/25 241/246/25
f 103/240/25 231/239/25 233/316/25 100/317/25
f 231/239/25 230/242/25 232/245/25 233/316/25
f 133/360/25 34/243/25 230/242/25 229/361/25
f 229/361/25 230/242/25 231/239/25 228/238/25
f 33/232/24 131/362/24 226/363/24 224/233/24
f 224/233/24 226/363/24 227/235/24 225/234/24
f 67/228/24 223/227/24 225/234/24 64/237/24
f 223/227/24 222/230/24 224/233/24 225/234/24
f 185/325/24 30/231/24 222/230/24 246/326/24
f 246/326/24 222/230/24 223/227/24 247/226/24
f 137/364/24 26/365/24 219/366/24 221/367/24
f 221/367/24 219/366/24 218/223/24 220/224/24
f 29/324/24 216/327/24 219/366/24 26/365/24
f 216/327/24 217/220/24 218/223/24 219/366/24
f 24/368/23 139/369/23 214/370/23 212/371/23
f 212/371/23 214/370/23 215/218/23 213/216/23
f 24/368/23 212/371/23 210/372/23 20/373/23
f 212/371/23 213/216/23 211/213/23 210/372/23
f 177/329/23 20/373/23 210/372/23 244/330/23
f 244/330/23 210/372/23 211/213/23 245/212/23
f 141/374/23 16/375/23 207/376/23 209/377/23
f 209/377/23 207/376/23 206/209/23 208/210/23
f 19/328/23 204/331/23 207/376/23 16/375/23
f 204/331/23 205/206/23 206/209/23 207/376/23
f 15/198/22 135/378/22 202/379/22 200/199/22
f 200/199/22 202/379/22 203/202/22 201/201/22
f 69/194/22 199/193/22 201/201/22 70/204/22
f 199/193/22 198/196/22 200/199/22 201/201/22
f 169/333/22 12/197/22 198/196/22 242/334/22
f 242/334/22 198/196/22 199/193/22 243/192/22
f 129/380/22 8/381/22 195/382/22 197/383/22
f 197/383/22 195/382/22 194/189/22 196/190/22
f 11/332/22 192/335/22 195/382/22 8/381/22
f 192/335/22 193/186/22 194/189/22 195/382/22
o SquareCentre
v -0.387517 -0.076842 4.612484
v -0.387517 -0.076842 0.387517
v -4.612484 -0.076842 0.387517
v -4.612484 -0.076842 4.612484
v -0.387517 -0.123158 0.387517
v -0.387517 -0.123158 4.612484
v -4.612484 -0.123158 0.387517
v -4.612484 -0.123158 4.612484
v -1.416294 -0.076842 4.612484
v -1.416294 -0.123158 4.612484
v -1.416294 -0.076842 0.387517
v -1.416294 -0.123158 0.387517
v -0.387517 -0.123158 1.416294
v -4.612484 -0.076842 1.416294
v -0.387517 -0.076842 1.416294
v -4.612484 -0.123158 1.416294
v -1.416294 -0.076842 1.416294
v -1.416294 -0.123158 1.416294
v -3.583707 -0.076842 0.387517
v -3.583707 -0.123158 0.387517
v -3.583707 -0.076842 4.612484
v -3.583707 -0.123158 4.612484
v -3.583707 -0.123158 1.416294
v -3.583707 -0.076842 1.416294
v -4.612484 -0.076842 3.583707
v -0.387517 -0.076842 3.583707
v -4.612484 -0.123158 3.583707
v -0.387517 -0.123158 3.583707
v -1.416294 -0.123158 3.583707
v -1.416294 -0.076842 3.583707
v -3.583707 -0.076842 3.583707
v -3.583707 -0.123158 3.583707
v -4.612484 -0.076842 2.600622
v -4.612484 -0.076842 2.399379
v -0.387517 -0.076842 2.600622
v -0.387517 -0.076842 2.399379
v -0.387517 -0.123158 2.600622
v -0.387517 -0.123158 2.399379
v -4.612484 -0.123158 2.600622
v -4.612484 -0.123158 2.399379
v -2.399379 -0.076842 0.387517
v -2.600622 -0.076842 0.387517
v -2.399378 -0.076842 4.612484
v -2.600622 -0.076842 4.612484
v -2.600622 -0.123158 0.387517
v -2.399379 -0.123158 0.387517
v -2.399378 -0.123158 4.612484
v -2.600622 -0.123158 4.612484
v -2.600622 -0.123158 2.399379
v -2.600622 -0.123158 2.600622
v -2.399379 -0.123158 2.600622
v -2.399379 -0.123158 2.399379
v -2.399379 -0.076842 2.600622
v -2.600622 -0.076842 2.600622
v -2.600622 -0.076842 2.399379
v -2.399379 -0.076842 2.399379
v -1.416294 -0.123158 2.399379
v -1.416294 -0.123158 2.600622
v -1.416294 -0.076842 2.399379
v -1.416294 -0.076842 2.600622
v -2.600622 -0.076842 1.416294
v -2.399379 -0.076842 1.416294
v -2.600622 -0.123158 1.416294
v -2.399379 -0.123158 1.416294
v -3.583707 -0.076842 2.399379
v -3.583707 -0.076842 2.600622
v -3.583707 -0.123158 2.399379
v -3.583707 -0.123158 2.600622
v -2.600622 -0.123158 3.583707
v -2.399378 -0.123158 3.583707
v -2.600622 -0.076842 3.583707
v -2.399378 -0.076842 3.583707
v -0.332587 -0.136551 0.250000
v -0.332587 -0.150000 0.285938
v -0.250001 -0.136551 0.332587
v -0.285938 -0.150000 0.332587
v -0.250001 -0.136551 4.667414
v -0.285938 -0.150000 4.667414
v -0.332587 -0.136551 4.750000
v -0.332587 -0.150000 4.714063
v -4.750000 -0.136551 0.332587
v -4.714063 -0.150000 0.332587
v -4.667414 -0.136551 0.250000
v -4.667414 -0.150000 0.285938
v -4.667414 -0.136551 4.750000
v -4.667414 -0.150000 4.714063
v -4.750000 -0.136551 4.667414
v -4.714063 -0.150000 4.667414
v -0.332587 -0.050000 0.285938
v -0.332587 -0.063449 0.250000
v -0.285938 -0.050000 4.667414
v -0.250001 -0.063449 4.667414
v -4.714063 -0.050000 0.332587
v -4.750000 -0.063449 0.332587
v -4.667414 -0.050000 4.714063
v -4.667414 -0.063449 4.750000
v -4.667414 -0.050000 0.285938
v -4.667414 -0.063449 0.250000
v -0.332587 -0.050000 4.714063
v -0.332587 -0.063449 4.750000
v -0.285938 -0.050000 0.332587
v -0.250001 -0.063449 0.332587
v -4.714063 -0.050000 4.667414
v -4.750000 -0.063449 4.667414
v -0.309486 -0.150000 0.309486
v -0.291294 -0.136551 0.291294
v -0.291294 -0.063449 0.291294
v -0.309486 -0.050000 0.309486
v -4.690515 -0.150000 0.309486
v -4.708707 -0.136551 0.291294
v -4.708707 -0.063449 0.291294
v -4.690515 -0.050000 0.309486
v -4.690515 -0.150000 4.690515
v -4.708707 -0.136551 4.708707
v -4.708707 -0.063449 4.708707
v -4.690515 -0.050000 4.690515
v -0.309486 -0.150000 4.690515
v -0.291294 -0.136551 4.708707
v -0.291294 -0.063449 4.708707
v -0.309486 -0.050000 4.690515
v -1.416294 -0.150000 4.714426
v -1.416294 -0.136551 4.750000
v -1.416294 -0.063449 4.750000
v -1.416294 -0.050000 4.714426
v -1.416294 -0.136551 0.250000
v -1.416294 -0.150000 0.285575
v -1.416294 -0.050000 0.285575
v -1.416294 -0.063449 0.250000
v -0.285575 -0.150000 1.416294
v -0.250001 -0.136551 1.416294
v -0.250001 -0.063449 1.416294
v -0.285575 -0.050000 1.416294
v -4.750000 -0.136551 1.416294
v -4.714426 -0.150000 1.416294
v -4.714426 -0.050000 1.416294
v -4.750000 -0.063449 1.416294
v -3.583707 -0.150000 0.285575
v -3.583707 -0.136551 0.250000
v -3.583707 -0.063449 0.250000
v -3.583707 -0.050000 0.285575
v -3.583707 -0.136551 4.750000
v -3.583707 -0.150000 4.714426
v -3.583707 -0.050000 4.714426
v -3.583707 -0.063449 4.750000
v -4.714426 -0.150000 3.583707
v -4.750000 -0.136551 3.583707
v -4.750000 -0.063449 3.583707
v -4.714426 -0.050000 3.583707
v -0.250001 -0.136551 3.583707
v -0.285575 -0.150000 3.583707
v -0.285575 -0.050000 3.583707
v -0.250001 -0.063449 3.583707
v -0.250001 -0.136551 2.545692
v -0.285368 -0.150000 2.545692
v -0.250001 -0.136551 2.454309
v -0.285368 -0.150000 2.454309
v -4.750000 -0.136551 2.454308
v -4.714632 -0.150000 2.454309
v -4.750000 -0.136551 2.545692
v -4.714632 -0.150000 2.545692
v -0.250001 -0.063449 2.454309
v -0.285368 -0.050000 2.454309
v -0.250001 -0.063449 2.545692
v -0.285368 -0.050000 2.545692
v -4.750000 -0.063449 2.545692
v -4.714632 -0.050000 2.545692
v -4.750000 -0.063449 2.454308
v -4.714632 -0.050000 2.454309
v -2.454309 -0.136551 0.250000
v -2.454309 -0.150000 0.285368
v -2.545692 -0.136551 0.250000
v -2.545692 -0.150000 0.285368
v -2.545692 -0.136551 4.750000
v -2.545692 -0.150000 4.714632
v -2.454308 -0.136551 4.750000
v -2.454308 -0.150000 4.714632
v -2.545692 -0.063449 0.250000
v -2.545692 -0.050000 0.285368
v -2.454309 -0.063449 0.250000
v -2.454309 -0.050000 0.285368
v -2.454308 -0.063449 4.750000
v -2.454308 -0.050000 4.714632
v -2.545692 -0.063449 4.750000
v -2.545692 -0.050000 4.714632
v -3.583707 -0.050000 0.332587
v -4.667414 -0.050000 0.332587
v -4.667414 -0.050000 3.583707
v -4.667414 -0.050000 4.667414
v -1.416294 -0.050000 4.667414
v -0.332587 -0.050000 4.667414
v -0.332587 -0.050000 3.583707
v -0.332587 -0.150000 1.416294
v -0.332587 -0.150000 0.332587
v -3.583707 -0.150000 0.332587
v -4.667414 -0.150000 0.332587
v -4.667414 -0.150000 3.583707
v -4.667414 -0.150000 4.667414
v -1.416294 -0.150000 4.667414
v -0.332587 -0.150000 4.667414
v -0.332587 -0.050000 0.332587
v -1.416294 -0.050000 0.332587
v -1.416294 -0.150000 0.332587
v -4.667414 -0.050000 1.416294
v -0.332587 -0.050000 1.416294
v -4.667414 -0.150000 1.416294
v -3.583707 -0.050000 4.667414
v -3.583707 -0.150000 4.667414
v -0.332587 -0.150000 3.583707
v -1.416294 -0.150000 2.545692
v -0.332587 -0.150000 2.545692
v -0.332587 -0.150000 2.454309
v -1.416294 -0.150000 2.454309
v -3.583707 -0.050000 2.545692
v -4.667414 -0.050000 2.545692
v -4.667414 -0.050000 2.454309
v -3.583707 -0.050000 2.454309
v -3.583707 -0.150000 2.545692
v -2.545692 -0.150000 2.545692
v -2.545692 -0.150000 2.454309
v -3.583707 -0.150000 2.454309
v -1.416294 -0.050000 2.545692
v -2.454309 -0.050000 2.545692
v -2.454309 -0.050000 2.454309
v -1.416294 -0.050000 2.454309
v -2.454309 -0.050000 1.416294
v -2.545692 -0.050000 2.454309
v -2.545692 -0.050000 1.416294
v -2.454308 -0.150000 3.583707
v -2.454309 -0.150000 2.545692
v -2.545692 -0.150000 3.583707
v -2.454308 -0.050000 3.583707
v -2.454308 -0.050000 4.667414
v -2.545692 -0.050000 4.667414
v -2.545692 -0.050000 3.583707
v -2.454309 -0.150000 1.416294
v -2.454309 -0.150000 0.332587
v -2.545692 -0.150000 0.332587
v -2.545692 -0.150000 1.416294
v -2.454309 -0.150000 2.454309
v -0.332587 -0.050000 2.545692
v -0.332587 -0.050000 2.454309
v -2.454309 -0.050000 0.332587
v -2.545692 -0.050000 0.332587
v -2.545692 -0.050000 2.545692
v -4.667414 -0.150000 2.545692
v -4.667414 -0.150000 2.454309
v -2.454308 -0.150000 4.667414
v -2.545692 -0.150000 4.667414
vn -0.0000 1.0000 -0.0000
vn -0.0000 -1.0000 -0.0000
vn -0.3554 -0.9347 -0.0000
vn -0.0001 -0.9360 -0.3521
vn 0.0001 -0.9360 0.3520
vn 0.3521 -0.9360 -0.0001
vn -0.3521 -0.9360 0.0001
vn -0.3285 -0.8847 -0.3307
vn -0.3307 -0.8847 0.3285
vn 0.3285 -0.8847 0.3307
vn 0.3307 -0.8847 -0.3285
vn -0.0001 0.9360 -0.3521
vn 0.0001 0.9360 0.3520
vn 0.3521 0.9360 -0.0001
vn -0.3521 0.9360 0.0001
vn -0.3285 0.8847 -0.3307
vn -0.3307 0.8847 0.3285
vn 0.3285 0.8847 0.3307
vn 0.3307 0.8847 -0.3285
vn 0.3285 -0.8847 -0.3307
vn 0.3285 0.8847 -0.3307
vn -0.3307 -0.8847 -0.3285
vn -0.3307 0.8847 -0.3285
vn -0.3285 -0.8847 0.3307
vn -0.3285 0.8847 0.3307
vn 0.3307 -0.8847 0.3285
vn 0.3307 0.8847 0.3285
vn 0.0001 -0.9360 -0.3521
vn 0.0001 0.9360 -0.3521
vn -0.3521 -0.9360 -0.0001
vn -0.3521 0.9360 -0.0001
vn -0.0001 -0.9360 0.3520
vn -0.0001 0.9360 0.3520
vn 0.3521 -0.9360 0.0001
vn 0.3521 0.9360 0.0001
vn 0.3554 -0.9347 -0.0000
vn -0.3554 0.9347 -0.0000
vn 0.3554 0.9347 -0.0000
vn -0.0000 -0.9347 -0.3554
vn -0.0000 -0.9347 0.3554
vn -0.0000 0.9347 -0.3554
vn -0.0000 0.9347 0.3554
vn 0.3545 -0.9350 -0.0000
vn 0.3545 0.9350 -0.0000
vn -0.3545 -0.9350 -0.0000
vn -0.3545 0.9350 -0.0000
vn -0.0000 -0.9350 -0.3545
vn -0.0000 0.9350 -0.3545
vn -0.0000 -0.9350 0.3545
vn -0.0000 0.9350 0.3545
vn 0.7071 -0.0000 -0.7071
vn -0.0000 -0.0000 -1.0000
vn 1.0000 -0.0000 -0.0000
vn 0.7071 -0.0000 0.7071
vn -0.0000 -0.0000 1.0000
vn -0.7071 -0.0000 -0.7071
vn -1.0000 -0.0000 -0.0000
vn -0.7071 -0.0000 0.7071
vn -0.0000 0.8985 0.4390
vn 0.4390 0.8985 -0.0000
vn -0.0000 0.8985 -0.4390
vn -0.4390 0.8985 -0.0000
vn -0.4390 -0.8985 -0.0000
vn -0.0000 -0.8985 0.4390
vn 0.4390 -0.8985 -0.0000
vn -0.0000 -0.8985 -0.4390
vt 0.509010 0.119824
vt 0.509010 0.086976
vt 0.476162 0.086976
vt 0.476162 0.119824
vt 0.390023 0.480284
vt 0.357175 0.480284
vt 0.357175 0.513132
vt 0.390023 0.513132
vt 0.507552 0.177455
vt 0.507552 0.210303
vt 0.540400 0.210303
vt 0.540400 0.177455
vt 0.040279 0.550315
vt 0.073127 0.550315
vt 0.073127 0.517467
vt 0.040279 0.517467
vt 0.146469 0.550315
vt 0.179317 0.550315
vt 0.179317 0.517467
vt 0.146469 0.517467
vt 0.353243 0.448895
vt 0.320395 0.448895
vt 0.320395 0.481743
vt 0.353243 0.481743
vt 0.476162 0.050195
vt 0.476162 0.083043
vt 0.509010 0.083043
vt 0.509010 0.050195
vt 0.575941 0.530484
vt 0.575941 0.497636
vt 0.543093 0.497636
vt 0.543093 0.530484
vt 0.769345 0.325016
vt 0.766398 0.324997
vt 0.766399 0.327943
vt 0.769347 0.327961
vt 0.075288 0.828217
vt 0.072341 0.828199
vt 0.072343 0.831146
vt 0.075292 0.831163
vt 0.766459 0.254403
vt 0.766452 0.255616
vt 0.769385 0.255618
vt 0.769380 0.254404
vt 0.769284 0.361248
vt 0.766418 0.361249
vt 0.766394 0.395945
vt 0.769351 0.395954
vt 0.108515 0.828252
vt 0.108517 0.831108
vt 0.143078 0.831124
vt 0.143089 0.828179
vt 0.769348 0.291775
vt 0.766488 0.291774
vt 0.769394 0.257138
vt 0.766444 0.257126
vt 0.072356 0.864446
vt 0.075223 0.864447
vt 0.802560 0.327924
vt 0.802561 0.325067
vt 0.072418 0.794971
vt 0.075278 0.794971
vt 0.075317 0.760335
vt 0.072367 0.760322
vt 0.039076 0.828219
vt 0.039075 0.831082
vt 0.733147 0.327858
vt 0.733148 0.324998
vt 0.698496 0.324984
vt 0.698485 0.327939
vt 0.072302 0.899177
vt 0.075260 0.899188
vt 0.004396 0.828175
vt 0.004383 0.831128
vt 0.837158 0.327973
vt 0.837168 0.325028
vt 0.210706 0.550315
vt 0.210706 0.517467
vt 0.476162 0.018806
vt 0.509010 0.018806
vt 0.507552 0.241693
vt 0.540400 0.241693
vt 0.509010 0.151213
vt 0.476162 0.151213
vt 0.390023 0.448895
vt 0.357175 0.448895
vt 0.073127 0.486078
vt 0.040279 0.486078
vt 0.320395 0.513132
vt 0.353243 0.513132
vt 0.607330 0.530484
vt 0.607330 0.497636
vt 0.476162 0.177455
vt 0.476162 0.210303
vt 0.179317 0.486078
vt 0.146469 0.486078
vt 0.540400 0.083043
vt 0.540400 0.050195
vt 0.540400 0.119824
vt 0.540400 0.086976
vt 0.008890 0.550315
vt 0.008890 0.517467
vt 0.289006 0.448895
vt 0.289006 0.481743
vt 0.421413 0.480284
vt 0.421413 0.513132
vt 0.575941 0.466247
vt 0.543093 0.466247
vt 0.607330 0.466247
vt 0.421413 0.448895
vt 0.008890 0.486078
vt 0.289006 0.513132
vt 0.540400 0.151213
vt 0.476162 0.241693
vt 0.210706 0.486078
vt 0.540400 0.018806
vt 0.695346 0.291591
vt 0.696564 0.291595
vt 0.697223 0.257069
vt 0.696000 0.257019
vt 0.840346 0.361201
vt 0.839131 0.361202
vt 0.838693 0.395710
vt 0.839915 0.395753
vt 0.732983 0.399103
vt 0.732986 0.397883
vt 0.698404 0.397284
vt 0.698355 0.398509
vt 0.802750 0.254008
vt 0.802746 0.255225
vt 0.837234 0.255894
vt 0.837285 0.254673
vt 0.697312 0.255677
vt 0.697970 0.256340
vt 0.698704 0.255598
vt 0.698662 0.254375
vt 0.838624 0.255984
vt 0.837962 0.256640
vt 0.838703 0.257374
vt 0.839924 0.257332
vt 0.838613 0.397102
vt 0.837951 0.396444
vt 0.837222 0.397190
vt 0.837273 0.398413
vt 0.697010 0.397198
vt 0.697672 0.396538
vt 0.696929 0.395804
vt 0.695704 0.395848
vt 0.108632 0.901079
vt 0.108639 0.902297
vt 0.143202 0.901528
vt 0.143148 0.900307
vt 0.039144 0.758353
vt 0.039145 0.757138
vt 0.004582 0.757563
vt 0.004624 0.758785
vt 0.002406 0.864387
vt 0.001190 0.864385
vt 0.001605 0.898984
vt 0.002830 0.898942
vt 0.145042 0.795017
vt 0.146255 0.795018
vt 0.145824 0.760513
vt 0.144603 0.760555
vt 0.143875 0.899560
vt 0.144537 0.900215
vt 0.145833 0.898867
vt 0.144614 0.898826
vt 0.143862 0.759822
vt 0.144524 0.759165
vt 0.143185 0.757856
vt 0.143134 0.759077
vt 0.003890 0.759527
vt 0.003232 0.758865
vt 0.001920 0.760206
vt 0.003143 0.760256
vt 0.003572 0.899678
vt 0.002909 0.900336
vt 0.004251 0.901650
vt 0.004302 0.900426
vt 0.696447 0.361250
vt 0.695230 0.361248
vt 0.038863 0.902319
vt 0.038868 0.901099
vt 0.733222 0.255160
vt 0.733223 0.253945
vt 0.146255 0.864423
vt 0.145041 0.864424
vt 0.839133 0.291851
vt 0.840346 0.291853
vt 0.108663 0.757199
vt 0.108659 0.758416
vt 0.802714 0.397852
vt 0.802718 0.399069
vt 0.001258 0.794780
vt 0.002476 0.794784
vt 0.769340 0.398684
vt 0.769345 0.397468
vt 0.766405 0.397469
vt 0.766411 0.398686
vt 0.145806 0.828192
vt 0.144596 0.828186
vt 0.144596 0.831114
vt 0.145809 0.831106
vt 0.001658 0.831113
vt 0.002872 0.831120
vt 0.002873 0.828184
vt 0.001658 0.828189
vt 0.695756 0.327922
vt 0.696972 0.327930
vt 0.696974 0.324993
vt 0.695758 0.324998
vt 0.839885 0.325042
vt 0.838674 0.325036
vt 0.838675 0.327962
vt 0.839885 0.327955
vt 0.075249 0.901920
vt 0.075255 0.900702
vt 0.072312 0.900703
vt 0.072318 0.901920
vt 0.072383 0.757600
vt 0.072375 0.758812
vt 0.075308 0.758814
vt 0.075303 0.757600
vt 0.094343 0.185917
vt 0.096677 0.185917
vt 0.096677 0.184053
vt 0.094343 0.184053
vt 0.337275 0.882795
vt 0.339609 0.882795
vt 0.339609 0.848194
vt 0.337275 0.848194
vt 0.698416 0.395796
vt 0.697946 0.361252
vt 0.732989 0.396382
vt 0.989225 0.743669
vt 0.991559 0.743669
vt 0.991559 0.709067
vt 0.989225 0.709067
vt 0.096677 0.182188
vt 0.094343 0.182188
vt 0.837207 0.395705
vt 0.802708 0.396354
vt 0.106737 0.166086
vt 0.109071 0.166086
vt 0.109071 0.164222
vt 0.106737 0.164222
vt 0.989225 0.639863
vt 0.991559 0.639863
vt 0.991559 0.605261
vt 0.989225 0.605261
vt 0.837636 0.361204
vt 0.195978 0.996517
vt 0.198312 0.996517
vt 0.198312 0.961915
vt 0.195978 0.961915
vt 0.109071 0.162357
vt 0.106737 0.162357
vt 0.698709 0.257084
vt 0.733221 0.256656
vt 0.064451 0.179709
vt 0.062117 0.179709
vt 0.062117 0.181574
vt 0.064451 0.181574
vt 0.280260 0.880317
vt 0.282594 0.880317
vt 0.282594 0.845715
vt 0.280260 0.845715
vt 0.698063 0.291599
vt 0.337275 0.986601
vt 0.339609 0.986601
vt 0.339609 0.951999
vt 0.337275 0.951999
vt 0.062117 0.183438
vt 0.064451 0.183438
vt 0.837219 0.257379
vt 0.837639 0.291850
vt 0.022310 0.179709
vt 0.019976 0.179709
vt 0.019976 0.181574
vt 0.022310 0.181574
vt 0.195978 0.892711
vt 0.198312 0.892711
vt 0.198312 0.858109
vt 0.195978 0.858109
vt 0.802741 0.256722
vt 0.280260 0.984122
vt 0.282594 0.984122
vt 0.282594 0.949521
vt 0.280260 0.949521
vt 0.019976 0.183438
vt 0.022310 0.183438
vt 0.038873 0.899598
vt 0.004317 0.898938
vt 0.004629 0.760271
vt 0.003976 0.794789
vt 0.143131 0.898823
vt 0.143546 0.864426
vt 0.143119 0.760560
vt 0.108655 0.759913
vt 0.108625 0.899580
vt 0.039142 0.759849
vt 0.003903 0.864388
vt 0.143549 0.795016
vt 0.198312 0.928772
vt 0.195978 0.928772
vt 0.337275 0.915938
vt 0.339609 0.915938
vt 0.991559 0.675924
vt 0.989225 0.675924
vt 0.280260 0.913460
vt 0.282594 0.913460
vt 0.339609 0.918856
vt 0.337275 0.918856
vt 0.195978 0.925854
vt 0.198312 0.925854
vt 0.282594 0.916377
vt 0.280260 0.916377
vt 0.989225 0.673006
vt 0.991559 0.673006
vt 0.108615 0.897597
vt 0.141222 0.896930
vt 0.141573 0.795015
vt 0.141211 0.762457
vt 0.039141 0.761828
vt 0.006529 0.762184
vt 0.005960 0.794795
vt 0.700328 0.393890
vt 0.732993 0.394395
vt 0.700609 0.258996
vt 0.700048 0.291604
vt 0.835309 0.259276
vt 0.802735 0.258705
vt 0.835296 0.393806
vt 0.835656 0.361205
vt 0.006232 0.897036
vt 0.038879 0.897611
vt 0.699928 0.361254
vt 0.141567 0.864429
vt 0.005885 0.864390
vt 0.733220 0.258635
vt 0.108649 0.761895
vt 0.835662 0.291849
vt 0.802702 0.394370
vt 0.771265 0.361248
vt 0.771297 0.394025
vt 0.764445 0.394017
vt 0.764436 0.361250
vt 0.108515 0.826276
vt 0.141174 0.826240
vt 0.141159 0.833067
vt 0.108519 0.833083
vt 0.771326 0.291776
vt 0.771293 0.323072
vt 0.764457 0.323048
vt 0.764511 0.291773
vt 0.039077 0.826239
vt 0.070398 0.826251
vt 0.070393 0.833092
vt 0.039073 0.833062
vt 0.070374 0.864446
vt 0.077237 0.833108
vt 0.077205 0.864447
vt 0.802560 0.329900
vt 0.771292 0.329907
vt 0.802562 0.323091
vt 0.070440 0.794970
vt 0.070424 0.762240
vt 0.077262 0.762259
vt 0.077256 0.794971
vt 0.733146 0.329837
vt 0.700405 0.329884
vt 0.700422 0.323036
vt 0.733149 0.323019
vt 0.764449 0.329887
vt 0.006323 0.826228
vt 0.006304 0.833075
vt 0.070353 0.897247
vt 0.077210 0.897258
vt 0.077235 0.826272
vt 0.771339 0.259064
vt 0.764500 0.259044
vt 0.835241 0.329915
vt 0.835252 0.323086
s 0
f 277/384/33 256/385/33 248/386/33 273/387/33
f 276/388/34 275/389/34 253/390/34 257/391/34
f 258/392/33 264/393/33 262/394/33 249/395/33
f 259/396/34 252/397/34 260/398/34 265/399/34
f 250/400/33 261/401/33 271/402/33 266/403/33
f 254/404/34 267/405/34 270/406/34 263/407/34
f 272/408/33 251/409/33 268/410/33 278/411/33
f 274/412/34 279/413/34 269/414/34 255/415/34
f 465/416/34 466/417/34 486/418/34 476/419/34
f 491/420/33 469/421/33 470/422/33 473/423/33
f 404/424/35 405/425/35 407/426/35 406/427/35
f 456/428/34 459/429/34 458/430/34 457/431/34
f 460/432/33 463/433/33 462/434/33 461/435/33
f 464/436/34 467/437/34 466/417/34 465/416/34
f 492/438/34 493/439/34 467/437/34 464/436/34
f 472/440/33 474/441/33 473/423/33 470/422/33
f 475/442/34 477/443/34 465/416/34 476/419/34
f 478/444/33 481/445/33 480/446/33 479/447/33
f 468/448/33 471/449/33 470/422/33 469/421/33
f 476/419/34 486/418/34 459/429/34 456/428/34
f 482/450/34 485/451/34 484/452/34 483/453/34
f 489/454/33 490/455/33 474/441/33 472/440/33
f 487/456/33 488/457/33 471/449/33 468/448/33
f 491/420/33 473/423/33 463/433/33 460/432/33
f 486/418/34 466/417/34 485/451/34 482/450/34
f 494/458/34 495/459/34 477/443/34 475/442/34
f 261/401/33 281/460/33 312/461/33 271/402/33
f 280/462/33 272/408/33 278/411/33 313/463/33
f 264/393/33 306/464/33 283/465/33 262/394/33
f 307/466/33 277/384/33 273/387/33 282/467/33
f 305/468/34 284/469/34 275/389/34 276/388/34
f 265/399/34 260/398/34 285/470/34 304/471/34
f 263/407/34 270/406/34 314/472/34 287/473/34
f 286/474/34 315/475/34 279/413/34 274/412/34
f 288/476/33 309/477/33 264/393/33 258/392/33
f 266/403/33 271/402/33 308/478/33 289/479/33
f 278/411/33 268/410/33 291/480/33 318/481/33
f 319/482/33 290/483/33 256/385/33 277/384/33
f 293/484/34 259/396/34 265/399/34 311/485/34
f 267/405/34 292/486/34 310/487/34 270/406/34
f 317/488/34 276/388/34 257/391/34 294/489/34
f 279/413/34 316/490/34 295/491/34 269/414/34
f 315/475/34 297/492/34 316/490/34 279/413/34
f 298/493/34 305/468/34 276/388/34 317/488/34
f 311/485/34 265/399/34 304/471/34 299/494/34
f 270/406/34 310/487/34 296/495/34 314/472/34
f 300/496/33 319/482/33 277/384/33 307/466/33
f 309/477/33 303/497/33 306/464/33 264/393/33
f 271/402/33 312/461/33 302/498/33 308/478/33
f 313/463/33 278/411/33 318/481/33 301/499/33
f 385/500/36 384/501/36 331/502/36 330/503/36
f 369/504/37 368/505/37 327/506/37 326/507/37
f 377/508/38 376/509/38 323/510/38 322/511/38
f 393/512/39 392/513/39 335/514/39 334/515/39
f 357/516/40 356/517/40 329/518/40 328/519/40
f 361/520/41 360/521/41 333/522/41 332/523/41
f 365/524/42 364/525/42 325/526/42 324/527/42
f 353/528/43 352/529/43 321/530/43 320/531/43
f 387/532/44 386/533/44 345/534/44 344/535/44
f 371/536/45 370/537/45 347/538/45 346/539/45
f 379/540/46 378/541/46 349/542/46 348/543/46
f 395/544/47 394/545/47 351/546/47 350/547/47
f 359/548/48 358/549/48 341/550/48 340/551/48
f 363/552/49 362/553/49 343/554/49 342/555/49
f 367/556/50 366/557/50 339/558/50 338/559/50
f 355/560/51 354/561/51 337/562/51 336/563/51
f 322/511/52 323/510/52 352/529/52 353/528/52
f 348/543/53 349/542/53 354/561/53 355/560/53
f 330/503/54 331/502/54 356/517/54 357/516/54
f 344/535/55 345/534/55 358/549/55 359/548/55
f 334/515/56 335/514/56 360/521/56 361/520/56
f 350/547/57 351/546/57 362/553/57 363/552/57
f 326/507/58 327/506/58 364/525/58 365/524/58
f 346/539/59 347/538/59 366/557/59 367/556/59
f 320/531/60 321/530/60 373/564/60 372/565/60
f 336/563/61 337/562/61 375/566/61 374/567/61
f 328/519/62 329/518/62 381/568/62 380/569/62
f 340/551/63 341/550/63 383/570/63 382/571/63
f 332/523/64 333/522/64 389/572/64 388/573/64
f 342/555/65 343/554/65 391/574/65 390/575/65
f 324/527/66 325/526/66 397/576/66 396/577/66
f 338/559/67 339/558/67 399/578/67 398/579/67
f 400/580/68 401/581/68 403/582/68 402/583/68
f 412/584/69 413/585/69 415/586/69 414/587/69
f 408/588/70 409/589/70 411/590/70 410/591/70
f 416/592/71 417/593/71 419/594/71 418/595/71
f 420/596/72 421/597/72 423/598/72 422/599/72
f 424/600/73 425/601/73 427/602/73 426/603/73
f 428/604/74 429/605/74 431/606/74 430/607/74
f 403/582/34 401/581/34 457/431/34 458/430/34
f 401/581/75 400/580/75 396/577/75 397/576/75
f 398/579/76 399/578/76 410/591/76 411/590/76
f 376/509/75 377/508/75 402/583/75 403/582/75
f 409/589/76 408/588/76 378/541/76 379/540/76
f 405/425/77 404/424/77 380/569/77 381/568/77
f 382/571/78 383/570/78 414/587/78 415/586/78
f 392/513/77 393/512/77 406/427/77 407/426/77
f 413/585/78 412/584/78 394/545/78 395/544/78
f 417/593/79 416/592/79 372/565/79 373/564/79
f 374/567/80 375/566/80 426/603/80 427/602/80
f 384/501/79 385/500/79 418/595/79 419/594/79
f 425/601/80 424/600/80 386/533/80 387/532/80
f 421/597/81 420/596/81 388/573/81 389/572/81
f 390/575/82 391/574/82 430/607/82 431/606/82
f 368/505/81 369/504/81 422/599/81 423/598/81
f 429/605/82 428/604/82 370/537/82 371/536/82
f 320/608/83 337/609/83 354/610/83 353/611/83
f 372/612/84 375/613/84 337/614/84 320/615/84
f 321/530/34 352/529/34 323/510/34 440/616/34
f 373/564/34 321/530/34 440/616/34 449/617/34
f 323/510/34 376/509/34 439/618/34 440/616/34
f 322/619/85 349/620/85 378/621/85 377/622/85
f 353/611/83 354/610/83 349/623/83 322/624/83
f 325/526/34 364/525/34 327/506/34 446/625/34
f 397/576/34 325/526/34 446/625/34 455/626/34
f 324/627/86 339/628/86 366/629/86 365/630/86
f 396/631/85 399/632/85 339/633/85 324/634/85
f 327/506/34 368/505/34 445/635/34 446/625/34
f 326/636/87 347/637/87 370/638/87 369/639/87
f 365/630/86 366/629/86 347/640/86 326/641/86
f 329/518/34 356/517/34 331/502/34 442/642/34
f 381/568/34 329/518/34 442/642/34 452/643/34
f 328/644/88 341/645/88 358/646/88 357/647/88
f 380/648/89 383/649/89 341/650/89 328/651/89
f 331/502/34 384/501/34 441/652/34 442/642/34
f 330/653/84 345/654/84 386/655/84 385/656/84
f 357/647/88 358/646/88 345/657/88 330/658/88
f 333/522/34 360/521/34 335/514/34 444/659/34
f 389/572/34 333/522/34 444/659/34 454/660/34
f 332/661/90 343/662/90 362/663/90 361/664/90
f 388/665/87 391/666/87 343/667/87 332/668/87
f 335/514/34 392/513/34 443/669/34 444/659/34
f 334/670/89 351/671/89 394/672/89 393/673/89
f 361/664/90 362/663/90 351/674/90 334/675/90
f 374/567/33 448/676/33 447/677/33 336/563/33
f 336/563/33 447/677/33 348/543/33 355/560/33
f 437/678/33 346/539/33 367/556/33 338/559/33
f 438/679/33 437/678/33 338/559/33 398/579/33
f 433/680/33 344/535/33 359/548/33 340/551/33
f 382/571/33 450/681/33 433/680/33 340/551/33
f 435/682/33 350/547/33 363/552/33 342/555/33
f 390/575/33 453/683/33 435/682/33 342/555/33
f 344/535/33 433/680/33 432/684/33 387/532/33
f 346/539/33 437/678/33 436/685/33 371/536/33
f 447/677/33 451/686/33 379/540/33 348/543/33
f 350/547/33 435/682/33 434/687/33 395/544/33
f 368/505/34 423/598/34 494/458/34 445/635/34
f 369/639/87 370/638/87 428/688/87 422/689/87
f 371/536/33 436/685/33 479/447/33 429/605/33
f 416/690/84 426/691/84 375/613/84 372/612/84
f 417/593/34 373/564/34 449/617/34 483/453/34
f 427/602/33 489/454/33 448/676/33 374/567/33
f 376/509/34 403/582/34 458/430/34 439/618/34
f 377/622/85 378/621/85 408/692/85 402/693/85
f 451/686/33 488/457/33 409/589/33 379/540/33
f 404/694/89 414/695/89 383/649/89 380/648/89
f 405/425/34 381/568/34 452/643/34 493/439/34
f 415/586/33 462/434/33 450/681/33 382/571/33
f 384/501/34 419/594/34 484/452/34 441/652/34
f 385/656/84 386/655/84 424/696/84 418/697/84
f 387/532/33 432/684/33 490/455/33 425/601/33
f 420/698/87 430/699/87 391/666/87 388/665/87
f 421/597/34 389/572/34 454/660/34 495/459/34
f 431/606/33 480/446/33 453/683/33 390/575/33
f 392/513/34 407/426/34 492/438/34 443/669/34
f 393/673/89 394/672/89 412/700/89 406/701/89
f 395/544/33 434/687/33 461/435/33 413/585/33
f 400/702/85 410/703/85 399/632/85 396/631/85
f 401/581/34 397/576/34 455/626/34 457/431/34
f 487/456/33 438/679/33 398/579/33 411/590/33
f 410/703/85 400/702/85 402/693/85 408/692/85
f 407/426/34 405/425/34 493/439/34 492/438/34
f 414/695/89 404/694/89 406/701/89 412/700/89
f 411/590/33 409/589/33 488/457/33 487/456/33
f 415/586/33 413/585/33 461/435/33 462/434/33
f 419/594/34 417/593/34 483/453/34 484/452/34
f 426/691/84 416/690/84 418/697/84 424/696/84
f 423/598/34 421/597/34 495/459/34 494/458/34
f 430/699/87 420/698/87 422/689/87 428/688/87
f 427/602/33 425/601/33 490/455/33 489/454/33
f 431/606/33 429/605/33 479/447/33 480/446/33
f 266/704/91 432/684/91 433/680/91 250/705/91
f 272/706/92 434/687/92 435/682/92 251/707/92
f 256/708/93 436/685/93 437/678/93 248/709/93
f 248/709/94 437/678/94 438/679/94 273/710/94
f 252/711/95 440/616/95 439/618/95 260/712/95
f 254/713/96 442/642/96 441/652/96 267/714/96
f 255/715/97 444/659/97 443/669/97 274/716/97
f 253/717/98 446/625/98 445/635/98 257/718/98
f 249/719/91 447/677/91 448/676/91 258/720/91
f 259/721/96 449/617/96 440/616/96 252/711/96
f 250/705/92 433/680/92 450/681/92 261/722/92
f 262/723/94 451/686/94 447/677/94 249/719/94
f 263/724/97 452/643/97 442/642/97 254/713/97
f 251/707/93 435/682/93 453/683/93 268/725/93
f 269/726/98 454/660/98 444/659/98 255/715/98
f 275/727/95 455/626/95 446/625/95 253/717/95
f 305/728/96 456/428/96 457/431/96 284/729/96
f 285/730/98 458/430/98 459/429/98 304/731/98
f 313/732/91 460/432/91 461/435/91 280/733/91
f 281/734/93 462/434/93 463/433/93 312/735/93
f 315/736/96 464/436/96 465/416/96 297/737/96
f 296/738/98 466/417/98 467/437/98 314/739/98
f 307/740/91 468/448/91 469/421/91 300/741/91
f 303/742/93 470/422/93 471/449/93 306/743/93
f 309/744/92 472/440/92 470/422/92 303/742/92
f 302/745/94 473/423/94 474/441/94 308/746/94
f 317/747/97 475/442/97 476/419/97 298/748/97
f 297/737/95 465/416/95 477/443/95 316/749/95
f 319/750/92 478/444/92 479/447/92 290/751/92
f 291/752/94 480/446/94 481/445/94 318/753/94
f 311/754/97 482/450/97 483/453/97 293/755/97
f 292/756/95 484/452/95 485/451/95 310/757/95
f 298/748/96 476/419/96 456/428/96 305/728/96
f 304/731/98 459/429/98 486/418/98 299/758/98
f 282/759/91 487/456/91 468/448/91 307/740/91
f 306/743/93 471/449/93 488/457/93 283/760/93
f 288/761/92 489/454/92 472/440/92 309/744/92
f 308/746/94 474/441/94 490/455/94 289/762/94
f 299/758/97 486/418/97 482/450/97 311/754/97
f 310/757/95 485/451/95 466/417/95 296/738/95
f 301/763/91 491/420/91 460/432/91 313/732/91
f 312/735/93 463/433/93 473/423/93 302/745/93
f 286/764/96 492/438/96 464/436/96 315/736/96
f 314/739/98 467/437/98 493/439/98 287/765/98
f 294/766/97 494/458/97 475/442/97 317/747/97
f 316/749/95 477/443/95 495/459/95 295/767/95
f 300/741/92 469/421/92 478/444/92 319/750/92
f 318/753/94 481/445/94 491/420/94 301/763/94
f 284/729/95 457/431/95 455/626/95 275/727/95
f 260/712/95 439/618/95 458/430/95 285/730/95
f 287/765/97 493/439/97 452/643/97 263/724/97
f 274/716/97 443/669/97 492/438/97 286/764/97
f 273/710/94 438/679/94 487/456/94 282/759/94
f 283/760/94 488/457/94 451/686/94 262/723/94
f 261/722/92 450/681/92 462/434/92 281/734/92
f 280/733/92 461/435/92 434/687/92 272/706/92
f 293/755/96 483/453/96 449/617/96 259/721/96
f 267/714/96 441/652/96 484/452/96 292/756/96
f 295/767/98 495/459/98 454/660/98 269/726/98
f 257/718/98 445/635/98 494/458/98 294/766/98
f 258/720/91 448/676/91 489/454/91 288/761/91
f 289/762/91 490/455/91 432/684/91 266/704/91
f 268/725/93 453/683/93 480/446/93 291/752/93
f 290/751/93 479/447/93 436/685/93 256/708/93
f 469/421/33 491/420/33 481/445/33 478/444/33
