# Blender 5.2.0 LTS
# www.blender.org
mtllib BrainFloorCornerExtended.mtl
o BrainFloorCornerExtended
v 0.000005 -0.200000 10.000000
v -0.000004 -0.000000 10.000000
v -10.000803 -0.000000 0.000000
v -0.000003 -0.000000 0.000000
v 0.000004 -0.200000 0.000000
v -10.000796 -0.200000 0.000000
v -5.000403 -0.000000 5.000000
v -5.000396 -0.200000 5.000000
v -0.000003 -0.000000 5.000000
v -5.000403 -0.000000 0.000000
v -2.500203 -0.000000 2.500000
v 0.000004 -0.200000 5.000000
v -5.000396 -0.200000 0.000000
v -2.500196 -0.200000 2.500000
vn -0.0000 -1.0000 -0.0000
vn -0.0000 1.0000 -0.0000
vn -0.0000 -0.0000 -1.0000
vn 1.0000 -0.0000 -0.0000
vn -0.7071 -0.0000 0.7071
vt 0.090360 0.819536
vt 0.090360 0.416522
vt 0.291867 0.416538
vt 0.291867 0.618045
vt 0.520388 0.013507
vt 0.721895 0.214998
vt 0.721895 0.416505
vt 0.520388 0.416521
vt 0.024905 0.583478
vt 0.013507 0.583478
vt 0.013516 0.298493
vt 0.024915 0.298493
vt 0.051948 0.416521
vt 0.063347 0.416521
vt 0.063346 0.701485
vt 0.051947 0.701485
vt 0.013516 0.986493
vt 0.024915 0.986493
vt 0.051937 0.013507
vt 0.063336 0.013507
vt 0.721895 0.618013
vt 0.923403 0.416489
vt 0.520388 0.819536
vt 0.013526 0.013507
vt 0.024924 0.013507
vt 0.291867 0.215030
vt 0.493375 0.416554
vt 0.090360 0.013507
vt 0.063345 0.986448
vt 0.051946 0.986448
s 0
f 1/1/1 8/2/1 14/3/1 12/4/1
f 2/5/2 9/6/2 11/7/2 7/8/2
f 6/9/3 3/10/3 10/11/3 13/12/3
f 2/13/4 1/14/4 12/15/4 9/16/4
f 7/17/5 3/10/5 6/9/5 8/18/5
f 2/13/5 7/19/5 8/20/5 1/14/5
f 10/21/2 11/7/2 9/6/2 4/22/2
f 7/8/2 11/7/2 10/21/2 3/23/2
f 13/12/3 10/11/3 4/24/3 5/25/3
f 12/4/1 14/3/1 13/26/1 5/27/1
f 13/26/1 14/3/1 8/2/1 6/28/1
f 9/16/4 12/15/4 5/29/4 4/30/4
