# Blender 5.2.0 LTS
# www.blender.org
mtllib BrainCanopy.mtl
o BrainCanopy
v 65.000000 39.799999 15.000000
v -65.000000 39.799999 15.000000
v 0.012683 59.799999 15.000000
v 0.000000 39.799999 -35.000000
v 15.072682 59.799999 15.000000
v 10.040000 39.799999 -35.000000
v 5.032683 59.799999 15.000000
v 10.052683 59.799999 15.000000
v 20.012844 59.799999 15.000000
v 54.905357 49.799999 15.000000
v -10.000000 39.799999 -35.000000
v -54.945038 49.799999 15.000000
v -19.987316 59.799999 15.000000
v -14.987318 59.799999 15.000000
v -9.987318 59.799999 15.000000
v -4.987317 59.799999 15.000000
v 65.000000 39.799999 5.000000
v 65.000000 39.799999 -5.000000
v 65.000000 39.799999 -15.000000
v -65.000000 39.799999 -15.000000
v -65.000000 39.799999 -5.000000
v -65.000000 39.799999 5.000000
v 0.012683 59.799999 5.000000
v 0.012683 59.799999 -5.000000
v 0.012683 55.797096 -18.293810
v 0.000000 51.875210 -25.000000
v 15.072682 59.799999 5.000000
v 15.072682 59.799999 -5.000000
v 30.120001 51.913319 -17.337952
v 30.120001 39.799999 -25.000000
v 10.052683 59.799999 5.000000
v 10.052683 59.799999 -5.000000
v 20.080002 51.913319 -17.337952
v 20.080002 39.799999 -25.000000
v 5.032683 59.799999 5.000000
v 5.032683 59.799999 -5.000000
v 5.032683 55.797096 -18.293810
v 10.040001 51.875210 -25.000000
v 54.905357 49.799999 5.000000
v 54.905357 49.799999 -5.000000
v 49.960320 39.799999 -15.000000
v 20.012844 59.799999 5.000000
v 20.012844 59.799999 -5.000000
v 40.000320 51.913319 -17.337952
v 40.000320 39.799999 -25.000000
v -4.987317 59.799999 5.000000
v -4.987317 59.799999 -5.000000
v -4.987317 55.797096 -18.293810
v -10.000000 51.875210 -25.000000
v -9.987318 59.799999 5.000000
v -9.987318 59.799999 -5.000000
v -20.000000 51.913319 -17.337952
v -20.000000 39.799999 -25.000000
v -14.987318 59.799999 5.000000
v -14.987318 59.799999 -5.000000
v -30.000000 51.913319 -17.337952
v -30.000000 39.799999 -25.000000
v -19.987316 59.799999 5.000000
v -19.987316 59.799999 -5.000000
v -40.000000 51.913319 -17.337952
v -40.000000 39.799999 -25.000000
v -54.945038 49.799999 5.000000
v -54.945038 49.799999 -5.000000
v -50.000000 39.799999 -15.000000
v 7.542683 59.799999 15.000000
v 7.542683 59.799999 5.000000
v 7.542683 59.799999 -5.000000
v 12.556343 54.799999 -15.000000
v -7.487318 59.799999 15.000000
v -7.487318 59.799999 5.000000
v -7.487318 59.799999 -5.000000
v -12.493658 54.799999 -15.000000
v 34.986580 57.799999 15.000000
v 34.986580 57.799999 5.000000
v 34.986580 57.799999 -5.000000
v -34.993660 57.799999 15.000000
v -34.993660 57.799999 5.000000
v -34.993660 57.799999 -5.000000
v 42.473450 55.632214 15.000000
v 0.012683 59.799999 -10.000000
v 22.596342 56.632214 -10.000000
v 15.066342 56.632214 -10.000000
v 5.032683 59.799999 -10.000000
v 30.006582 56.632214 -10.000000
v -4.987317 59.799999 -10.000000
v -14.993659 56.632214 -10.000000
v -22.493660 56.632214 -10.000000
v -29.993658 56.632214 -10.000000
v 42.473450 55.632214 5.000000
v 42.473450 55.632214 -5.000000
v 10.049513 59.132214 -10.000000
v -9.990488 59.132214 -10.000000
v -42.496830 55.632214 15.000000
v -42.496830 55.632214 5.000000
v -42.496830 55.632214 -5.000000
v -27.490488 58.799999 5.000000
v -23.000000 45.355675 -23.240520
v -30.000000 45.355675 -23.240520
v -37.000000 45.355675 -23.240520
v 0.000000 45.959072 -31.813215
v 7.034001 45.959072 -31.813215
v -6.994000 45.959072 -31.813215
v 30.120001 45.355675 -23.240520
v 23.068050 45.355675 -23.240520
v 37.012272 45.355675 -23.240520
v -60.546814 44.799999 15.000000
v -60.546814 44.799999 5.000000
v -60.546814 44.799999 -5.000000
v 60.526974 44.799999 15.000000
v 60.526974 44.799999 5.000000
v 60.526974 44.799999 -5.000000
v -27.490488 58.799999 15.000000
v -27.490488 58.799999 -5.000000
v -36.245243 56.132214 -7.500000
v -47.472519 50.856659 -11.168976
v 47.452839 50.856659 -11.168976
v 27.499712 58.799999 15.000000
v 27.499712 58.799999 5.000000
v 27.499712 58.799999 -5.000000
v 36.240017 56.132214 -7.500000
v 48.689404 52.716106 15.000000
v 0.012683 57.798546 -14.146905
v 26.358171 54.272766 -13.668976
v 17.573172 54.272766 -13.668976
v 5.032683 57.798546 -14.146905
v 35.003452 54.272766 -13.668976
v -4.987317 57.798546 -14.146905
v -17.496830 54.272766 -13.668976
v -26.246830 54.272766 -13.668976
v -34.996830 54.272766 -13.668976
v 48.689404 52.716106 5.000000
v 48.689404 52.716106 -5.000000
v 11.302928 56.966106 -12.500000
v -11.242073 56.966106 -12.500000
v -48.720932 52.716106 15.000000
v -48.720932 52.716106 5.000000
v -48.720932 52.716106 -5.000000
v -41.858879 53.494438 -9.334488
v 41.846428 53.494438 -9.334488
v 15.060001 39.799999 -30.000000
v -15.000000 39.799999 -30.000000
v 0.000000 49.600956 -28.406609
v 8.537001 49.600956 -28.406609
v -8.497000 49.600956 -28.406609
v -49.371521 44.900902 -15.984509
v 49.481239 44.739697 -15.953395
v 59.946754 44.769714 -13.080821
v -59.603531 44.852711 -13.318251
v 0.000000 43.048290 -34.258747
v 8.537001 43.048290 -34.258747
v -8.497000 43.048290 -34.258747
v -15.000000 46.585896 -25.852137
v 15.060001 46.585896 -25.852137
v -21.500000 49.382790 -21.141373
v -30.000000 49.382790 -21.141373
v -36.316181 49.382790 -21.141373
v 30.120001 49.382790 -21.141373
v 21.574026 49.382790 -21.141373
v 36.322475 49.382790 -21.141373
v -11.748500 44.817093 -30.055441
v 11.798501 44.817093 -30.055441
v -23.738903 59.299999 15.000000
v -23.738903 59.299999 5.000000
v -23.738903 59.299999 -5.000000
v -43.736259 51.384987 -14.253464
v -33.119450 56.382214 -8.750000
v -57.500000 39.799999 -15.000000
v -38.427856 53.883602 -11.501732
v -54.487526 44.876808 -14.651380
v -45.000000 39.799999 -20.000000
v -12.500000 49.230553 -25.426067
v 44.980320 39.799999 -20.000000
v 10.167751 47.209023 -29.231026
v -43.185760 45.128288 -19.612514
v 43.246758 45.047684 -19.596958
v 0.000000 44.503681 -33.035980
v 7.785501 44.503681 -33.035980
v -7.745500 44.503681 -33.035980
v 12.550001 49.230553 -25.426067
v -20.750000 50.648056 -19.239662
v -30.000000 50.648056 -19.239662
v -39.250000 50.648056 -19.239662
v 30.120001 50.648056 -19.239662
v 20.827015 50.648056 -19.239662
v 39.253307 50.648056 -19.239662
v -10.122749 47.209023 -29.231026
v 33.123299 56.382214 -8.750000
v 57.480160 39.799999 -15.000000
v 43.726578 51.384987 -14.253464
v 23.756279 59.299999 15.000000
v 23.756279 59.299999 5.000000
v 23.756279 59.299999 -5.000000
v 38.424942 53.883602 -11.501732
v 54.713997 44.754707 -14.517108
v 65.149055 39.933346 15.000000
v -65.149353 39.933018 15.000000
v 0.012683 60.000000 15.000000
v 0.000000 39.844494 -35.194988
v 15.072682 60.000000 15.000000
v 10.121511 39.873028 -35.167400
v 5.032683 60.000000 15.000000
v 10.052683 60.000000 15.000000
v 20.026112 59.999557 15.000000
v 55.015430 49.966984 15.000000
v -10.081671 39.873024 -35.167324
v -55.055214 49.966915 15.000000
v -20.000557 59.999561 15.000000
v -14.987318 60.000000 15.000000
v -9.987318 60.000000 15.000000
v -4.987317 60.000000 15.000000
v 65.149055 39.933346 5.000000
v 65.146606 39.936012 -5.002429
v 65.117928 39.933025 -15.091640
v -65.118759 39.932991 -15.090604
v -65.145844 39.936813 -5.003460
v -65.149353 39.933018 5.000000
v 0.012683 60.000000 5.000000
v 0.012683 60.000000 -5.000000
v 0.012683 55.973618 -18.387833
v 0.000000 52.044777 -25.106052
v 15.072682 60.000000 5.000000
v 15.072682 59.992081 -5.055726
v 30.120001 52.080688 -17.447437
v 30.120001 39.860382 -25.190666
v 10.052683 60.000000 5.000000
v 10.075979 59.997108 -5.024605
v 20.109945 52.080463 -17.443623
v 20.147524 39.869915 -25.174793
v 5.032683 60.000000 5.000000
v 5.037102 59.999939 -5.002218
v 5.054817 55.974411 -18.383640
v 10.091057 52.036552 -25.106592
v 55.015430 49.966984 5.000000
v 55.007542 49.970177 -5.024440
v 50.030247 39.807220 -15.187238
v 20.026112 59.999557 5.000000
v 20.022306 59.993038 -5.051449
v 40.057117 52.069660 -17.448996
v 40.072819 39.874977 -25.170652
v -4.987317 60.000000 5.000000
v -4.991749 59.999939 -5.002216
v -5.009496 55.974415 -18.383621
v -10.051182 52.036530 -25.106565
v -9.987318 60.000000 5.000000
v -10.010675 59.997105 -5.024585
v -20.030033 52.080479 -17.443573
v -20.067720 39.869881 -25.174728
v -14.987318 60.000000 5.000000
v -14.987318 59.992081 -5.055726
v -30.000000 52.080688 -17.447437
v -30.000000 39.860382 -25.190666
v -20.000557 59.999561 5.000000
v -19.996756 59.993034 -5.051457
v -40.056522 52.069820 -17.448914
v -40.072353 39.875015 -25.170698
v -55.055214 49.966915 5.000000
v -55.047413 49.970001 -5.024884
v -50.068462 39.806183 -15.187816
v 7.542683 60.000000 15.000000
v 7.542683 60.000000 5.000000
v 7.559568 59.999149 -5.007371
v 12.605906 54.974174 -15.084894
v -7.487318 60.000000 15.000000
v -7.487318 60.000000 5.000000
v -7.504257 59.999146 -5.007355
v -12.543336 54.974163 -15.084848
v 35.027744 57.995716 15.000000
v 35.027744 57.995716 5.000000
v 35.026615 57.989845 -5.048535
v -35.034740 57.995735 15.000000
v -35.034740 57.995735 5.000000
v -35.033611 57.989853 -5.048569
v 42.543949 55.819374 15.000000
v 0.012683 59.994965 -10.044588
v 22.596342 56.800797 -10.107609
v 15.099166 56.807255 -10.091011
v 5.046562 59.993195 -10.049829
v 30.026453 56.812626 -10.084004
v -5.001233 59.993195 -10.049823
v -15.026570 56.807255 -10.090981
v -22.493660 56.800797 -10.107609
v -30.013481 56.812618 -10.084034
v 42.543949 55.819374 5.000000
v 42.540733 55.814671 -5.046718
v 10.097742 59.317780 -10.056911
v -10.038845 59.317760 -10.056863
v -42.567230 55.819412 15.000000
v -42.567230 55.819412 5.000000
v -42.564014 55.814690 -5.046781
v -27.516911 58.998245 5.000000
v -23.025528 45.427189 -23.425545
v -30.000000 45.432381 -23.425226
v -37.045864 45.435673 -23.417994
v 0.000000 46.091759 -31.962864
v 7.062153 46.088741 -31.962858
v -7.022197 46.088734 -31.962856
v 30.120001 45.432381 -23.425226
v 23.093586 45.427200 -23.425539
v 37.058338 45.435638 -23.417957
v -60.688313 44.941345 15.000000
v -60.688313 44.941345 5.000000
v -60.679741 44.948910 -5.012485
v 60.668190 44.941624 15.000000
v 60.668190 44.941624 5.000000
v 60.659966 44.948902 -5.011895
v -27.516911 58.998245 15.000000
v -27.520811 58.994221 -5.036849
v -36.291473 56.307976 -7.583486
v -47.546165 51.024139 -11.249764
v 47.526649 51.023769 -11.250375
v 27.526190 58.998238 15.000000
v 27.526190 58.998238 5.000000
v 27.530102 58.994217 -5.036821
v 36.286346 56.307991 -7.583405
v 48.774345 52.897171 15.000000
v 0.012683 57.978664 -14.233837
v 26.358171 54.440983 -13.777154
v 17.598125 54.442993 -13.770959
v 5.056654 57.974232 -14.239427
v 35.030346 54.452633 -13.752194
v -5.011345 57.974228 -14.239420
v -17.521847 54.442993 -13.770943
v -26.246830 54.440983 -13.777154
v -35.023666 54.452625 -13.752228
v 48.774345 52.897171 5.000000
v 48.768280 52.896217 -5.036581
v 11.358320 57.135162 -12.591387
v -11.297596 57.135139 -12.591348
v -48.805786 52.897213 15.000000
v -48.805786 52.897213 5.000000
v -48.799713 52.896248 -5.036639
v -41.922348 53.669945 -9.406382
v 41.910007 53.669949 -9.406273
v 15.187738 39.881420 -30.130590
v -15.127996 39.881332 -30.130390
v 0.000000 49.753445 -28.536018
v 8.583649 49.742924 -28.539534
v -8.543751 49.742893 -28.539532
v -49.457336 44.961609 -16.154655
v 49.567173 44.799557 -16.123783
v 60.041370 44.909065 -13.188658
v -59.696171 44.989670 -13.430767
v 0.000000 43.137360 -34.437820
v 8.593650 43.141567 -34.426350
v -8.553774 43.141560 -34.426311
v -15.093340 46.687675 -25.996803
v 15.153148 46.687763 -25.996868
v -21.534212 49.508625 -21.293013
v -30.000000 49.516479 -21.290125
v -36.345810 49.508411 -21.294151
v 30.120001 49.516479 -21.290125
v 21.608175 49.508621 -21.293030
v 36.352264 49.508381 -21.294146
v -11.860538 44.918896 -30.186146
v 11.910313 44.918972 -30.186281
v -23.765326 59.498245 15.000000
v -23.765326 59.498245 5.000000
v -23.768335 59.495319 -5.031365
v -43.808365 51.542713 -14.353082
v -33.161137 56.566540 -8.815472
v -57.520748 39.835716 -15.195688
v -38.484161 54.066406 -11.560143
v -54.537094 44.961716 -14.825546
v -45.119431 39.846252 -20.153614
v -12.588857 49.357243 -25.552771
v 45.099987 39.845558 -20.153637
v 10.258006 47.328136 -29.363937
v -43.293530 45.202087 -19.763973
v 43.354996 45.121048 -19.748291
v 0.000000 44.632336 -33.189110
v 7.827807 44.632336 -33.183147
v -7.787891 44.632328 -33.183128
v 12.638653 49.357323 -25.552835
v -20.787308 50.802650 -19.360941
v -30.000000 50.814568 -19.350449
v -39.308079 50.776379 -19.381647
v 30.120001 50.814568 -19.350449
v 20.864223 50.802650 -19.360973
v 39.311760 50.776268 -19.381594
v -10.213183 47.328053 -29.363892
v 33.165073 56.566540 -8.815407
v 57.502018 39.841053 -15.194516
v 43.799118 51.542149 -14.353651
v 23.782757 59.498238 15.000000
v 23.782757 59.498238 5.000000
v 23.785776 59.495316 -5.031336
v 38.481354 54.066399 -11.560063
v 54.764202 44.841118 -14.690350
vn 0.6346 -0.4189 0.6495
vn 0.4360 -0.4174 0.7973
vn -0.5188 -0.5820 0.6262
vn -0.3523 -0.6002 0.7181
vn 0.4243 -0.9055 -0.0000
vn 0.1640 -0.9228 0.3487
vn -0.5681 -0.3930 0.7231
vn -0.0000 -1.0000 -0.0000
vn -0.0000 -0.8411 0.5409
vn -0.0000 -0.3019 0.9533
vn 0.2187 -0.8455 0.4871
vn 0.2561 -0.9087 0.3296
vn -0.0000 -0.9006 0.4347
vn -0.0000 -0.8632 0.5048
vn -0.1324 -0.9912 -0.0000
vn -0.1581 -0.9396 0.3037
vn -0.6646 -0.7472 -0.0000
vn -0.2798 -0.8363 0.4716
vn -0.2555 -0.9087 0.3301
vn 0.7468 -0.6651 -0.0000
vn -0.4384 -0.4165 0.7965
vn -0.3373 -0.3059 0.8903
vn -0.2181 -0.8455 0.4873
vn 0.2804 -0.8361 0.4714
vn -0.2781 -0.9605 -0.0000
vn 0.1321 -0.9912 -0.0000
vn -0.4247 -0.9053 -0.0000
vn 0.0886 -0.9951 0.0443
vn -0.3127 -0.9415 0.1259
vn -0.0000 -0.8447 0.5352
vn -0.0883 -0.9951 0.0443
vn -0.2471 -0.9212 0.3006
vn 0.3136 -0.9412 0.1255
vn 0.1810 -0.8576 0.4815
vn 0.2776 -0.9607 -0.0000
vn 0.3376 -0.3056 0.8903
vn -0.0000 -0.4622 0.8868
vn -0.0000 -0.6831 0.7303
vn 0.6659 -0.7460 -0.0000
vn -0.7453 -0.6667 -0.0000
vn -0.1119 0.0105 0.9937
vn 0.1050 0.0245 0.9942
vn 0.3571 -0.8719 0.3351
vn -0.3195 -0.8307 0.4559
vn 0.3145 -0.9100 0.2702
vn -0.1814 -0.8576 0.4812
vn 0.2719 -0.8947 0.3544
vn -0.3577 -0.8719 0.3345
vn 0.3189 -0.8306 0.4566
vn -0.2913 -0.9274 0.2345
vn 0.1856 -0.8479 0.4967
vn -0.3463 -0.8445 0.4085
vn -0.1852 -0.8479 0.4967
vn 0.3471 -0.8444 0.4081
vn -0.0000 -0.2225 0.9749
vn -0.0000 -0.8317 0.5552
vn 0.6431 -0.3994 0.6534
vn -0.4039 -0.5389 0.7392
vn -0.4928 -0.8426 0.2171
vn -0.7205 -0.6931 0.0243
vn 0.5665 -0.3934 0.7241
vn 0.3380 -0.7372 0.5851
vn 0.4944 -0.8402 0.2228
vn 0.7110 -0.7024 0.0346
vn -0.0000 -0.8326 0.5539
vn 0.5133 -0.5780 0.6344
vn -0.0000 -0.6433 0.7656
vn 0.3122 -0.6640 0.6794
vn -0.3115 -0.6641 0.6796
vn -0.6334 -0.4191 0.6505
vn -0.6418 -0.4000 0.6543
vn 0.4378 -0.6180 0.6530
vn 0.4013 -0.5453 0.7360
vn 0.2466 -0.9212 0.3009
vn 0.2908 -0.9275 0.2348
vn 0.1015 -0.2759 0.9558
vn 0.1577 -0.9395 0.3040
vn 0.3528 -0.6000 0.7180
vn -0.4000 -0.6914 0.6017
vn 0.4010 -0.6912 0.6011
vn 0.5199 -0.5813 0.6260
vn 0.6091 -0.0976 0.7871
vn -0.5061 -0.4760 0.7193
vn -0.6095 -0.0898 0.7876
vn -0.4370 -0.6182 0.6533
vn -0.5121 -0.5786 0.6348
vn 0.5029 -0.4776 0.7204
vn -0.3406 -0.7303 0.5922
vn -0.3150 -0.9099 0.2698
vn -0.1060 -0.3120 0.9441
vn -0.2725 -0.8947 0.3540
vn -0.1644 -0.9228 0.3485
vn -0.6331 0.4192 -0.6507
vn -0.4349 0.4184 -0.7974
vn 0.5166 0.5843 -0.6259
vn 0.3511 0.6007 -0.7182
vn -0.4245 0.9054 -0.0000
vn -0.4243 0.9055 -0.0002
vn -0.1639 0.9229 -0.3483
vn 0.5671 0.3932 -0.7237
vn -0.0001 1.0000 -0.0000
vn 0.0001 1.0000 -0.0007
vn -0.0006 0.8412 -0.5408
vn -0.0012 0.3016 -0.9534
vn -0.0000 1.0000 -0.0000
vn -0.0005 1.0000 -0.0005
vn 0.0002 0.8410 -0.5411
vn 0.0008 0.3013 -0.9535
vn -0.0004 1.0000 -0.0002
vn -0.2188 0.8455 -0.4871
vn -0.2562 0.9085 -0.3300
vn -0.0003 0.9006 -0.4346
vn -0.0006 0.8631 -0.5050
vn 0.1323 0.9912 -0.0000
vn 0.1317 0.9913 -0.0005
vn 0.1580 0.9396 -0.3037
vn 0.6644 0.7474 -0.0000
vn 0.6643 0.7475 -0.0001
vn 0.0002 1.0000 -0.0000
vn 0.2795 0.8363 -0.4717
vn 0.2556 0.9085 -0.3305
vn 0.0005 1.0000 -0.0005
vn -0.0002 0.8410 -0.5411
vn -0.0008 0.3013 -0.9535
vn 0.0001 1.0000 -0.0000
vn -0.0001 1.0000 -0.0007
vn 0.0007 0.8412 -0.5408
vn 0.0012 0.3016 -0.9534
vn 0.0003 0.9006 -0.4346
vn 0.0005 0.8631 -0.5050
vn -0.7467 0.6651 -0.0000
vn -0.7467 0.6652 -0.0001
vn 0.4374 0.4175 -0.7965
vn 0.3370 0.3073 -0.8899
vn 0.2182 0.8456 -0.4873
vn 0.0004 1.0000 -0.0002
vn -0.2801 0.8361 -0.4716
vn -0.0002 1.0000 -0.0000
vn 0.2781 0.9606 -0.0006
vn 0.2781 0.9605 -0.0000
vn -0.1323 0.9912 -0.0005
vn -0.1322 0.9912 -0.0000
vn 0.4246 0.9054 -0.0000
vn 0.4245 0.9054 -0.0005
vn -0.0890 0.9950 -0.0454
vn 0.3137 0.9412 -0.1257
vn 0.0002 1.0000 -0.0012
vn 0.0003 0.8456 -0.5337
vn -0.0013 0.8451 -0.5346
vn 0.0888 0.9950 -0.0454
vn 0.2466 0.9211 -0.3012
vn -0.0002 1.0000 -0.0012
vn -0.3146 0.9409 -0.1253
vn 0.0013 0.8451 -0.5346
vn -0.0003 0.8456 -0.5337
vn -0.1811 0.8585 -0.4797
vn -0.2775 0.9607 -0.0006
vn -0.2776 0.9607 -0.0000
vn -0.3373 0.3071 -0.8899
vn 0.0002 0.4632 -0.8863
vn -0.0004 0.6834 -0.7300
vn 0.0004 0.6834 -0.7300
vn -0.0004 0.4629 -0.8864
vn 0.0004 0.4629 -0.8864
vn -0.6656 0.7463 -0.0001
vn -0.6657 0.7462 -0.0000
vn 0.7452 0.6668 -0.0001
vn 0.7453 0.6668 -0.0000
vn 0.1119 -0.0072 -0.9937
vn -0.1049 -0.0210 -0.9943
vn -0.3575 0.8718 -0.3348
vn -0.1322 0.9912 -0.0003
vn -0.1321 0.9912 -0.0000
vn 0.3200 0.8310 -0.4551
vn -0.3147 0.9096 -0.2712
vn 0.1815 0.8586 -0.4794
vn 0.1326 0.9912 -0.0005
vn 0.1325 0.9912 -0.0000
vn -0.2719 0.8947 -0.3544
vn 0.3581 0.8718 -0.3343
vn -0.3194 0.8308 -0.4557
vn 0.2915 0.9269 -0.2363
vn 0.4248 0.9053 -0.0002
vn 0.4250 0.9052 -0.0000
vn -0.1853 0.8487 -0.4954
vn 0.3468 0.8445 -0.4081
vn 0.0001 0.9010 -0.4339
vn 0.0004 0.8413 -0.5406
vn -0.0003 0.8411 -0.5409
vn 0.1848 0.8488 -0.4954
vn -0.0001 0.9010 -0.4339
vn -0.3476 0.8443 -0.4078
vn 0.0003 0.8411 -0.5409
vn -0.0004 0.8413 -0.5406
vn -0.4240 0.9056 -0.0005
vn -0.4242 0.9056 -0.0000
vn 0.0016 0.2230 -0.9748
vn -0.0017 0.2230 -0.9748
vn 0.0007 0.8314 -0.5556
vn -0.0007 0.8314 -0.5556
vn -0.6441 0.3995 -0.6524
vn 0.4037 0.5394 -0.7390
vn 0.4931 0.8422 -0.2180
vn 0.7195 0.6940 -0.0271
vn -0.5655 0.3936 -0.7247
vn -0.3375 0.7356 -0.5873
vn -0.4948 0.8397 -0.2239
vn -0.7099 0.7033 -0.0374
vn -0.0002 0.4632 -0.8863
vn -0.0005 0.8309 -0.5564
vn -0.5135 0.5779 -0.6343
vn -0.0007 0.6409 -0.7677
vn 0.0007 0.6409 -0.7677
vn 0.0012 0.8318 -0.5550
vn -0.0012 0.8318 -0.5550
vn 0.0005 0.8309 -0.5564
vn -0.3124 0.6637 -0.6796
vn 0.3117 0.6638 -0.6799
vn 0.6319 0.4194 -0.6518
vn 0.6427 0.4001 -0.6533
vn -0.4377 0.6171 -0.6539
vn -0.4012 0.5457 -0.7357
vn -0.2461 0.9211 -0.3016
vn -0.2909 0.9270 -0.2366
vn -0.1320 0.9913 -0.0000
vn -0.1314 0.9913 -0.0005
vn -0.1094 0.2804 -0.9536
vn -0.1576 0.9395 -0.3040
vn -0.3517 0.6005 -0.7181
vn 0.3997 0.6923 -0.6007
vn -0.4008 0.6922 -0.6002
vn 0.0003 0.8323 -0.5543
vn -0.0012 0.8317 -0.5552
vn 0.0012 0.8317 -0.5552
vn 0.0004 0.6428 -0.7660
vn -0.0004 0.6428 -0.7660
vn -0.5176 0.5836 -0.6257
vn -0.0003 0.8323 -0.5543
vn -0.6095 0.0981 -0.7867
vn 0.5065 0.4779 -0.7177
vn 0.6099 0.0904 -0.7873
vn 0.4369 0.6174 -0.6542
vn 0.5123 0.5786 -0.6347
vn -0.5033 0.4795 -0.7188
vn 0.3403 0.7289 -0.5941
vn 0.3152 0.9096 -0.2708
vn 0.1133 0.3160 -0.9420
vn 0.2724 0.8947 -0.3540
vn 0.1643 0.9230 -0.3480
vn 0.1325 0.9912 -0.0003
vn 0.1324 0.9912 -0.0000
vn -0.0000 -0.0000 1.0000
vn -0.7138 -0.7003 -0.0008
vn 0.2201 -0.9497 -0.2226
vn 0.2793 -0.9185 -0.2799
vn -0.6747 -0.7381 -0.0003
vn -0.0091 -0.8634 -0.5044
vn 0.0087 -0.8562 -0.5166
vn -0.0018 -0.9513 -0.3082
vn 0.2769 -0.9196 -0.2787
vn -0.0007 -0.9419 -0.3359
vn -0.2773 -0.9197 -0.2779
vn 0.0022 -0.9922 -0.1249
vn -0.2209 -0.9492 -0.2243
vn -0.0010 -0.9365 -0.3507
vn -0.6651 -0.7468 -0.0000
vn 0.0010 -0.9365 -0.3506
vn -0.2797 -0.9186 -0.2792
vn 0.0964 -0.9903 -0.0997
vn -0.0019 -0.9941 -0.1082
vn 0.0018 -0.9513 -0.3081
vn 0.7129 -0.7013 -0.0009
vn 0.6667 -0.7453 -0.0000
vn 0.6734 -0.7392 -0.0002
vn -0.0957 -0.9904 -0.0995
vn 0.0007 -0.9419 -0.3359
vt 0.276042 0.718750
vt 0.281250 0.725000
vt 0.270833 0.750000
vt 0.270833 0.737500
vt 0.333333 0.656250
vt 0.339364 0.662500
vt 0.333333 0.675000
vt 0.333333 0.662500
vt 0.226469 0.715625
vt 0.223854 0.700000
vt 0.229083 0.700000
vt 0.229083 0.712500
vt 0.229083 0.725000
vt 0.229083 0.731250
vt 0.351562 0.500000
vt 0.354167 0.500000
vt 0.354167 0.550000
vt 0.351562 0.550000
vt 0.354167 0.600000
vt 0.351563 0.600000
vt 0.335938 0.600000
vt 0.338542 0.600000
vt 0.341146 0.612500
vt 0.337240 0.618750
vt 0.156291 0.675000
vt 0.160522 0.662500
vt 0.166666 0.675000
vt 0.166666 0.700000
vt 0.312500 0.500000
vt 0.333333 0.500000
vt 0.333333 0.550000
vt 0.312500 0.550000
vt 0.333333 0.600000
vt 0.312500 0.600000
vt 0.312500 0.637500
vt 0.333333 0.637500
vt 0.333333 0.650000
vt 0.312500 0.650000
vt 0.312500 0.675000
vt 0.333333 0.700000
vt 0.312500 0.700000
vt 0.291667 0.500000
vt 0.291667 0.550000
vt 0.291667 0.600000
vt 0.291667 0.637500
vt 0.291667 0.650000
vt 0.291667 0.675000
vt 0.291667 0.700000
vt 0.281250 0.500000
vt 0.281250 0.550000
vt 0.281250 0.600000
vt 0.281250 0.637500
vt 0.281250 0.650000
vt 0.270833 0.650000
vt 0.270833 0.700000
vt 0.250000 0.500000
vt 0.270833 0.500000
vt 0.270833 0.550000
vt 0.250000 0.550000
vt 0.270833 0.600000
vt 0.250000 0.600000
vt 0.250000 0.637500
vt 0.270833 0.637500
vt 0.250000 0.650000
vt 0.250000 0.700000
vt 0.164072 0.500000
vt 0.166666 0.500000
vt 0.166666 0.550000
vt 0.164072 0.550000
vt 0.166666 0.600000
vt 0.164072 0.600000
vt 0.162775 0.618750
vt 0.166666 0.625000
vt 0.135458 0.500000
vt 0.145916 0.500000
vt 0.145916 0.550000
vt 0.135458 0.550000
vt 0.145916 0.600000
vt 0.135458 0.600000
vt 0.218625 0.500000
vt 0.229083 0.500000
vt 0.229083 0.550000
vt 0.218625 0.550000
vt 0.229083 0.600000
vt 0.218625 0.600000
vt 0.218625 0.637500
vt 0.229083 0.637500
vt 0.229083 0.650000
vt 0.218625 0.650000
vt 0.208167 0.650000
vt 0.187250 0.500000
vt 0.208167 0.500000
vt 0.208167 0.550000
vt 0.187250 0.550000
vt 0.208167 0.600000
vt 0.187250 0.600000
vt 0.187250 0.637500
vt 0.208167 0.637500
vt 0.187250 0.650000
vt 0.187250 0.675000
vt 0.208167 0.675000
vt 0.208167 0.700000
vt 0.187250 0.700000
vt 0.166666 0.637500
vt 0.166666 0.650000
vt 0.364583 0.500000
vt 0.375000 0.500000
vt 0.375000 0.550000
vt 0.364583 0.550000
vt 0.375000 0.600000
vt 0.364583 0.600000
vt 0.166666 0.656250
vt 0.166666 0.662500
vt 0.218625 0.700000
vt 0.208167 0.662500
vt 0.151104 0.550000
vt 0.156291 0.550000
vt 0.156291 0.600000
vt 0.151104 0.600000
vt 0.151104 0.500000
vt 0.156291 0.500000
vt 0.338542 0.550000
vt 0.343750 0.550000
vt 0.343750 0.600000
vt 0.338542 0.500000
vt 0.343750 0.500000
vt 0.148510 0.500000
vt 0.148510 0.550000
vt 0.148510 0.600000
vt 0.281250 0.625000
vt 0.270833 0.625000
vt 0.218625 0.625000
vt 0.208167 0.625000
vt 0.250000 0.625000
vt 0.229083 0.625000
vt 0.187250 0.625000
vt 0.162127 0.628125
vt 0.291667 0.625000
vt 0.312500 0.625000
vt 0.333333 0.625000
vt 0.348958 0.600000
vt 0.348958 0.550000
vt 0.348958 0.500000
vt 0.281250 0.700000
vt 0.291667 0.662500
vt 0.312500 0.662500
vt 0.250000 0.712500
vt 0.270833 0.712500
vt 0.270833 0.725000
vt 0.250000 0.725000
vt 0.187250 0.662500
vt 0.125000 0.550000
vt 0.125000 0.600000
vt 0.125000 0.500000
vt 0.260458 0.375000
vt 0.170474 0.595065
vt 0.154378 0.650000
vt 0.145916 0.650000
vt 0.364583 0.650000
vt 0.354167 0.650000
vt 0.345394 0.650000
vt 0.350153 0.639231
vt 0.342448 0.618750
vt 0.343750 0.625000
vt 0.335938 0.550000
vt 0.335938 0.500000
vt 0.158885 0.612500
vt 0.157588 0.618750
vt 0.337891 0.628125
vt 0.338542 0.637500
vt 0.161478 0.600000
vt 0.161479 0.550000
vt 0.161479 0.500000
vt 0.156291 0.625000
vt 0.161479 0.637500
vt 0.229083 0.737500
vt 0.250000 0.737500
vt 0.250000 0.750000
vt 0.229083 0.750000
vt 0.186570 0.540130
vt 0.375000 0.100000
vt 0.375000 0.150000
vt 0.343750 0.675000
vt 0.354912 0.628463
vt 0.375000 0.650000
vt 0.187250 0.656250
vt 0.208167 0.656250
vt 0.273437 0.715625
vt 0.276042 0.700000
vt 0.250000 0.731250
vt 0.270833 0.731250
vt 0.312500 0.656250
vt 0.291667 0.656250
vt 0.218625 0.725000
vt 0.223854 0.718750
s 0
f 160/1/1 141/2/1 11/3/1 151/4/1
f 182/5/2 174/6/2 99/7/2 156/8/2
f 173/9/3 179/10/3 38/11/3 143/12/3
f 173/9/4 143/12/4 101/13/4 177/14/4
f 135/15/5 12/16/5 62/17/5 136/18/5
f 136/18/5 62/17/5 63/19/5 137/20/5
f 164/21/6 113/22/6 114/23/6 166/24/6
f 172/25/7 175/26/7 105/27/7 45/28/7
f 14/29/8 13/30/8 58/31/8 54/32/8
f 54/32/8 58/31/8 59/33/8 55/34/8
f 129/35/9 130/36/9 60/37/9 56/38/9
f 98/39/10 99/7/10 61/40/10 57/41/10
f 15/42/8 14/29/8 54/32/8 50/43/8
f 50/43/8 54/32/8 55/34/8 51/44/8
f 128/45/9 129/35/9 56/38/9 52/46/9
f 97/47/10 98/39/10 57/41/10 53/48/10
f 69/49/8 15/42/8 50/43/8 70/50/8
f 70/50/8 50/43/8 51/44/8 71/51/8
f 134/52/11 128/45/11 52/46/11 72/53/11
f 48/54/12 72/53/12 52/46/12 49/55/12
f 3/56/8 16/57/8 46/58/8 23/59/8
f 23/59/8 46/58/8 47/60/8 24/61/8
f 122/62/13 127/63/13 48/54/13 25/64/13
f 25/64/14 48/54/14 49/55/14 26/65/14
f 190/66/15 9/67/15 42/68/15 191/69/15
f 191/69/15 42/68/15 43/70/15 192/71/15
f 187/72/16 192/71/16 43/70/16 84/73/16
f 109/74/17 10/75/17 39/76/17 110/77/17
f 110/77/17 39/76/17 40/78/17 111/79/17
f 65/80/8 7/81/8 35/82/8 66/83/8
f 66/83/8 35/82/8 36/84/8 67/85/8
f 133/86/18 125/87/18 37/88/18 68/89/18
f 33/90/19 68/89/19 37/88/19 38/11/19
f 5/91/8 8/92/8 31/93/8 27/94/8
f 27/94/8 31/93/8 32/95/8 28/96/8
f 123/97/9 124/98/9 33/90/9 29/99/9
f 103/100/10 104/101/10 34/102/10 30/103/10
f 9/67/8 5/91/8 27/94/8 42/68/8
f 42/68/8 27/94/8 28/96/8 43/70/8
f 126/104/9 123/97/9 29/99/9 44/105/9
f 105/27/10 103/100/10 30/103/10 45/28/10
f 7/81/8 3/56/8 23/59/8 35/82/8
f 35/82/8 23/59/8 24/61/8 36/84/8
f 125/87/13 122/62/13 25/64/13 37/88/13
f 37/88/14 25/64/14 26/65/14 38/11/14
f 106/106/20 2/107/20 22/108/20 107/109/20
f 107/109/20 22/108/20 21/110/20 108/111/20
f 175/26/21 185/112/21 159/113/21 105/27/21
f 153/114/22 34/102/22 104/101/22 158/115/22
f 124/98/23 133/86/23 68/89/23 33/90/23
f 31/93/8 66/83/8 67/85/8 32/95/8
f 8/92/8 65/80/8 66/83/8 31/93/8
f 127/63/24 134/52/24 72/53/24 48/54/24
f 46/58/8 70/50/8 71/51/8 47/60/8
f 16/57/8 69/49/8 70/50/8 46/58/8
f 89/116/25 74/117/25 75/118/25 90/119/25
f 79/120/25 73/121/25 74/117/25 89/116/25
f 96/122/26 77/123/26 78/124/26 113/22/26
f 112/125/26 76/126/26 77/123/26 96/122/26
f 121/127/27 79/120/27 89/116/27 131/128/27
f 131/128/27 89/116/27 90/119/27 132/129/27
f 47/60/28 71/51/28 92/130/28 85/131/28
f 32/95/29 67/85/29 91/132/29 82/133/29
f 36/84/8 24/61/8 80/134/8 83/135/8
f 43/70/30 28/96/30 81/136/30 84/73/30
f 28/96/30 32/95/30 82/133/30 81/136/30
f 67/85/31 36/84/31 83/135/31 91/132/31
f 193/137/32 187/72/32 84/73/32 126/104/32
f 24/61/8 47/60/8 85/131/8 80/134/8
f 71/51/33 51/44/33 86/138/33 92/130/33
f 51/44/30 55/34/30 87/139/30 86/138/30
f 55/34/30 59/33/30 88/140/30 87/139/30
f 113/22/34 78/124/34 95/141/34 114/23/34
f 77/123/35 94/142/35 95/141/35 78/124/35
f 76/126/35 93/143/35 94/142/35 77/123/35
f 152/144/36 154/145/36 97/47/36 53/48/36
f 154/145/37 155/146/37 98/39/37 97/47/37
f 142/147/38 144/148/38 102/149/38 100/150/38
f 143/12/38 142/147/38 100/150/38 101/13/38
f 155/146/37 156/8/37 99/7/37 98/39/37
f 159/113/37 157/151/37 103/100/37 105/27/37
f 62/17/39 107/109/39 108/111/39 63/19/39
f 12/16/39 106/106/39 107/109/39 62/17/39
f 17/152/40 110/77/40 111/79/40 18/153/40
f 1/154/40 109/74/40 110/77/40 17/152/40
f 188/155/41 194/156/41 146/157/41 41/158/41
f 167/159/42 64/160/42 145/161/42 169/162/42
f 138/163/43 137/20/43 63/19/43 115/164/43
f 163/165/26 96/122/26 113/22/26 164/21/26
f 162/166/26 112/125/26 96/122/26 163/165/26
f 132/129/44 90/119/44 120/167/44 139/168/44
f 168/169/45 138/163/45 115/164/45 165/170/45
f 90/119/46 75/118/46 119/171/46 120/167/46
f 74/117/15 118/172/15 119/171/15 75/118/15
f 73/121/15 117/173/15 118/172/15 74/117/15
f 166/24/47 114/23/47 138/163/47 168/169/47
f 40/78/48 132/129/48 139/168/48 116/174/48
f 114/23/49 95/141/49 137/20/49 138/163/49
f 189/175/50 193/137/50 126/104/50 44/105/50
f 39/76/27 131/128/27 132/129/27 40/78/27
f 10/75/27 121/127/27 131/128/27 39/76/27
f 85/131/51 92/130/51 134/52/51 127/63/51
f 82/133/52 91/132/52 133/86/52 124/98/52
f 83/135/13 80/134/13 122/62/13 125/87/13
f 84/73/9 81/136/9 123/97/9 126/104/9
f 81/136/9 82/133/9 124/98/9 123/97/9
f 91/132/53 83/135/53 125/87/53 133/86/53
f 80/134/13 85/131/13 127/63/13 122/62/13
f 92/130/54 86/138/54 128/45/54 134/52/54
f 86/138/9 87/139/9 129/35/9 128/45/9
f 87/139/9 88/140/9 130/36/9 129/35/9
f 94/142/5 136/18/5 137/20/5 95/141/5
f 93/143/5 135/15/5 136/18/5 94/142/5
f 150/176/55 149/177/55 4/178/55 6/179/55
f 149/177/55 151/4/55 11/3/55 4/178/55
f 38/11/56 26/65/56 142/147/56 143/12/56
f 26/65/56 49/55/56 144/148/56 142/147/56
f 160/1/57 152/144/57 53/48/57 141/2/57
f 194/156/58 189/175/58 44/105/58 146/157/58
f 116/174/59 147/180/59 111/79/59 40/78/59
f 111/79/60 147/180/60 19/181/60 18/182/60
f 174/6/61 170/183/61 61/40/61 99/7/61
f 169/162/62 165/170/62 115/164/62 148/184/62
f 115/164/63 63/19/63 108/111/63 148/184/63
f 108/111/64 21/110/64 20/185/64 148/184/64
f 157/151/37 158/115/37 104/101/37 103/100/37
f 183/186/65 184/187/65 158/115/65 157/151/65
f 186/188/66 171/189/66 152/144/66 160/1/66
f 176/190/67 178/191/67 151/4/67 149/177/67
f 177/14/67 176/190/67 149/177/67 150/176/67
f 185/112/65 183/186/65 157/151/65 159/113/65
f 181/192/65 182/5/65 156/8/65 155/146/65
f 180/193/65 181/192/65 155/146/65 154/145/65
f 171/189/68 180/193/68 154/145/68 152/144/68
f 179/10/69 153/114/69 158/115/69 184/187/69
f 140/194/70 161/195/70 150/176/70 6/179/70
f 140/194/71 34/102/71 153/114/71 161/195/71
f 186/188/72 160/1/72 151/4/72 178/191/72
f 145/161/73 60/37/73 165/170/73 169/162/73
f 88/140/74 166/24/74 168/169/74 130/36/74
f 130/36/75 168/169/75 165/170/75 60/37/75
f 13/30/26 162/166/26 163/165/26 58/31/26
f 58/31/26 163/165/26 164/21/26 59/33/26
f 20/185/76 167/159/76 169/162/76 148/184/76
f 59/33/77 164/21/77 166/24/77 88/140/77
f 144/148/78 186/188/78 178/191/78 102/149/78
f 38/11/79 179/10/79 184/187/79 33/90/79
f 49/55/80 52/46/80 180/193/80 171/189/80
f 52/46/65 56/38/65 181/192/65 180/193/65
f 56/38/65 60/37/65 182/5/65 181/192/65
f 44/105/65 29/99/65 183/186/65 185/112/65
f 101/13/67 100/150/67 176/190/67 177/14/67
f 100/150/67 102/149/67 178/191/67 176/190/67
f 144/148/81 49/55/81 171/189/81 186/188/81
f 29/99/65 33/90/65 184/187/65 183/186/65
f 145/161/82 64/160/82 170/183/82 174/6/82
f 146/157/83 44/105/83 185/112/83 175/26/83
f 41/158/84 146/157/84 175/26/84 172/25/84
f 161/195/85 173/9/85 177/14/85 150/176/85
f 161/195/86 153/114/86 179/10/86 173/9/86
f 60/37/87 145/161/87 174/6/87 182/5/87
f 147/180/88 116/174/88 189/175/88 194/156/88
f 116/174/89 139/168/89 193/137/89 189/175/89
f 19/181/90 147/180/90 194/156/90 188/155/90
f 139/168/91 120/167/91 187/72/91 193/137/91
f 120/167/92 119/171/92 192/71/92 187/72/92
f 118/172/15 191/69/15 192/71/15 119/171/15
f 117/173/15 190/66/15 191/69/15 118/172/15
f 354/1/93 345/4/93 205/3/93 335/2/93
f 376/5/94 350/8/94 293/7/94 368/6/94
f 367/9/95 337/12/95 232/11/95 373/10/95
f 367/9/96 371/14/96 295/13/96 337/12/96
f 329/15/97 330/18/97 256/17/97 206/16/97
f 330/18/98 331/20/98 257/19/98 256/17/98
f 358/21/99 360/24/99 308/23/99 307/22/99
f 366/25/100 239/28/100 299/27/100 369/26/100
f 208/29/101 248/32/101 252/31/101 207/30/101
f 248/32/102 249/34/102 253/33/102 252/31/102
f 323/35/103 250/38/103 254/37/103 324/36/103
f 292/39/104 251/41/104 255/40/104 293/7/104
f 209/42/105 244/43/105 248/32/105 208/29/105
f 244/43/106 245/44/106 249/34/106 248/32/106
f 322/45/107 246/46/107 250/38/107 323/35/107
f 291/47/108 247/48/108 251/41/108 292/39/108
f 263/49/105 264/50/105 244/43/105 209/42/105
f 264/50/109 265/51/109 245/44/109 244/43/109
f 328/52/110 266/53/110 246/46/110 322/45/110
f 242/54/111 243/55/111 246/46/111 266/53/111
f 197/56/105 217/59/105 240/58/105 210/57/105
f 217/59/105 218/61/105 241/60/105 240/58/105
f 316/62/112 219/64/112 242/54/112 321/63/112
f 219/64/113 220/65/113 243/55/113 242/54/113
f 384/66/114 385/69/114 236/68/114 203/67/114
f 385/69/115 386/71/115 237/70/115 236/68/115
f 381/72/116 278/73/116 237/70/116 386/71/116
f 303/74/117 304/77/117 233/76/117 204/75/117
f 304/77/118 305/79/118 234/78/118 233/76/118
f 259/80/105 260/83/105 229/82/105 201/81/105
f 260/83/119 261/85/119 230/84/119 229/82/119
f 327/86/120 262/89/120 231/88/120 319/87/120
f 227/90/121 232/11/121 231/88/121 262/89/121
f 199/91/105 221/94/105 225/93/105 202/92/105
f 221/94/122 222/96/122 226/95/122 225/93/122
f 317/97/123 223/99/123 227/90/123 318/98/123
f 297/100/124 224/103/124 228/102/124 298/101/124
f 203/67/125 236/68/125 221/94/125 199/91/125
f 236/68/126 237/70/126 222/96/126 221/94/126
f 320/104/127 238/105/127 223/99/127 317/97/127
f 299/27/128 239/28/128 224/103/128 297/100/128
f 201/81/105 229/82/105 217/59/105 197/56/105
f 229/82/105 230/84/105 218/61/105 217/59/105
f 319/87/129 231/88/129 219/64/129 316/62/129
f 231/88/130 232/11/130 220/65/130 219/64/130
f 300/106/131 301/109/131 216/108/131 196/107/131
f 301/109/132 302/111/132 215/110/132 216/108/132
f 369/26/133 299/27/133 353/113/133 379/112/133
f 347/114/134 352/115/134 298/101/134 228/102/134
f 318/98/135 227/90/135 262/89/135 327/86/135
f 225/93/136 226/95/136 261/85/136 260/83/136
f 202/92/105 225/93/105 260/83/105 259/80/105
f 321/63/137 242/54/137 266/53/137 328/52/137
f 240/58/138 241/60/138 265/51/138 264/50/138
f 210/57/105 240/58/105 264/50/105 263/49/105
f 283/116/139 284/119/139 269/118/139 268/117/139
f 273/120/140 283/116/140 268/117/140 267/121/140
f 290/122/141 307/22/141 272/124/141 271/123/141
f 306/125/142 290/122/142 271/123/142 270/126/142
f 315/127/143 325/128/143 283/116/143 273/120/143
f 325/128/144 326/129/144 284/119/144 283/116/144
f 241/60/145 279/131/145 286/130/145 265/51/145
f 226/95/146 276/133/146 285/132/146 261/85/146
f 230/84/147 277/135/147 274/134/147 218/61/147
f 237/70/148 278/73/148 275/136/148 222/96/148
f 222/96/149 275/136/149 276/133/149 226/95/149
f 261/85/150 285/132/150 277/135/150 230/84/150
f 387/137/151 320/104/151 278/73/151 381/72/151
f 218/61/152 274/134/152 279/131/152 241/60/152
f 265/51/153 286/130/153 280/138/153 245/44/153
f 245/44/154 280/138/154 281/139/154 249/34/154
f 249/34/155 281/139/155 282/140/155 253/33/155
f 307/22/156 308/23/156 289/141/156 272/124/156
f 271/123/157 272/124/157 289/141/157 288/142/157
f 270/126/158 271/123/158 288/142/158 287/143/158
f 346/144/159 247/48/159 291/47/159 348/145/159
f 348/145/160 291/47/160 292/39/160 349/146/160
f 336/147/161 294/150/161 296/149/161 338/148/161
f 337/12/162 295/13/162 294/150/162 336/147/162
f 349/146/163 292/39/163 293/7/163 350/8/163
f 353/113/164 299/27/164 297/100/164 351/151/164
f 256/17/165 257/19/165 302/111/165 301/109/165
f 206/16/166 256/17/166 301/109/166 300/106/166
f 211/152/167 212/153/167 305/79/167 304/77/167
f 195/154/168 211/152/168 304/77/168 303/74/168
f 382/155/169 235/158/169 340/157/169 388/156/169
f 361/159/170 363/162/170 339/161/170 258/160/170
f 332/163/171 309/164/171 257/19/171 331/20/171
f 357/165/172 358/21/172 307/22/172 290/122/172
f 356/166/173 357/165/173 290/122/173 306/125/173
f 326/129/174 333/168/174 314/167/174 284/119/174
f 362/169/175 359/170/175 309/164/175 332/163/175
f 284/119/176 314/167/176 313/171/176 269/118/176
f 268/117/177 269/118/177 313/171/177 312/172/177
f 267/121/178 268/117/178 312/172/178 311/173/178
f 360/24/179 362/169/179 332/163/179 308/23/179
f 234/78/180 310/174/180 333/168/180 326/129/180
f 308/23/181 332/163/181 331/20/181 289/141/181
f 383/175/182 238/105/182 320/104/182 387/137/182
f 233/76/183 234/78/183 326/129/183 325/128/183
f 204/75/184 233/76/184 325/128/184 315/127/184
f 279/131/185 321/63/185 328/52/185 286/130/185
f 276/133/186 318/98/186 327/86/186 285/132/186
f 277/135/187 319/87/187 316/62/187 274/134/187
f 278/73/188 320/104/188 317/97/188 275/136/188
f 275/136/189 317/97/189 318/98/189 276/133/189
f 285/132/190 327/86/190 319/87/190 277/135/190
f 274/134/191 316/62/191 321/63/191 279/131/191
f 286/130/192 328/52/192 322/45/192 280/138/192
f 280/138/193 322/45/193 323/35/193 281/139/193
f 281/139/194 323/35/194 324/36/194 282/140/194
f 288/142/195 289/141/195 331/20/195 330/18/195
f 287/143/196 288/142/196 330/18/196 329/15/196
f 344/176/197 200/179/197 198/178/197 343/177/197
f 343/177/198 198/178/198 205/3/198 345/4/198
f 232/11/199 337/12/199 336/147/199 220/65/199
f 220/65/200 336/147/200 338/148/200 243/55/200
f 354/1/201 335/2/201 247/48/201 346/144/201
f 388/156/202 340/157/202 238/105/202 383/175/202
f 310/174/203 234/78/203 305/79/203 341/180/203
f 305/79/204 212/182/204 213/181/204 341/180/204
f 368/6/205 293/7/205 255/40/205 364/183/205
f 363/162/206 342/184/206 309/164/206 359/170/206
f 309/164/207 342/184/207 302/111/207 257/19/207
f 302/111/208 342/184/208 214/185/208 215/110/208
f 351/151/209 297/100/209 298/101/209 352/115/209
f 377/186/210 351/151/210 352/115/210 378/187/210
f 380/188/211 354/1/211 346/144/211 365/189/211
f 370/190/212 343/177/212 345/4/212 372/191/212
f 371/14/213 344/176/213 343/177/213 370/190/213
f 379/112/214 353/113/214 351/151/214 377/186/214
f 375/192/215 349/146/215 350/8/215 376/5/215
f 374/193/216 348/145/216 349/146/216 375/192/216
f 365/189/217 346/144/217 348/145/217 374/193/217
f 373/10/218 378/187/218 352/115/218 347/114/218
f 334/194/219 200/179/219 344/176/219 355/195/219
f 334/194/220 355/195/220 347/114/220 228/102/220
f 380/188/221 372/191/221 345/4/221 354/1/221
f 339/161/222 363/162/222 359/170/222 254/37/222
f 282/140/223 324/36/223 362/169/223 360/24/223
f 324/36/224 254/37/224 359/170/224 362/169/224
f 207/30/225 252/31/225 357/165/225 356/166/225
f 252/31/226 253/33/226 358/21/226 357/165/226
f 214/185/227 342/184/227 363/162/227 361/159/227
f 253/33/228 282/140/228 360/24/228 358/21/228
f 338/148/229 296/149/229 372/191/229 380/188/229
f 232/11/230 227/90/230 378/187/230 373/10/230
f 243/55/231 365/189/231 374/193/231 246/46/231
f 246/46/232 374/193/232 375/192/232 250/38/232
f 250/38/233 375/192/233 376/5/233 254/37/233
f 238/105/234 379/112/234 377/186/234 223/99/234
f 295/13/235 371/14/235 370/190/235 294/150/235
f 294/150/236 370/190/236 372/191/236 296/149/236
f 338/148/237 380/188/237 365/189/237 243/55/237
f 223/99/238 377/186/238 378/187/238 227/90/238
f 339/161/239 368/6/239 364/183/239 258/160/239
f 340/157/240 369/26/240 379/112/240 238/105/240
f 235/158/241 366/25/241 369/26/241 340/157/241
f 355/195/242 344/176/242 371/14/242 367/9/242
f 355/195/243 367/9/243 373/10/243 347/114/243
f 254/37/244 376/5/244 368/6/244 339/161/244
f 341/180/245 388/156/245 383/175/245 310/174/245
f 310/174/246 383/175/246 387/137/246 333/168/246
f 213/181/247 382/155/247 388/156/247 341/180/247
f 333/168/248 387/137/248 381/72/248 314/167/248
f 314/167/249 381/72/249 386/71/249 313/171/249
f 312/172/250 313/171/250 386/71/250 385/69/250
f 311/173/251 312/172/251 385/69/251 384/66/251
f 10/75/252 109/74/252 303/74/252 204/75/252
f 65/80/252 8/92/252 202/92/252 259/80/252
f 190/66/252 117/173/252 311/173/252 384/66/252
f 20/185/253 21/110/253 215/110/253 214/185/253
f 172/25/254 45/28/254 239/28/254 366/25/254
f 15/42/252 69/49/252 263/49/252 209/42/252
f 140/194/255 6/179/255 200/179/255 334/194/255
f 21/110/256 22/108/256 216/108/256 215/110/256
f 5/91/252 9/67/252 203/67/252 199/91/252
f 167/159/257 20/185/257 214/185/257 361/159/257
f 19/181/258 188/155/258 382/155/258 213/181/258
f 121/127/252 10/75/252 204/75/252 315/127/252
f 4/178/259 11/3/259 205/3/259 198/178/259
f 73/121/252 79/120/252 273/120/252 267/121/252
f 34/102/260 140/194/260 334/194/260 228/102/260
f 135/15/252 93/143/252 287/143/252 329/15/252
f 106/106/252 12/16/252 206/16/252 300/106/252
f 30/103/261 34/102/261 228/102/261 224/103/261
f 141/2/262 53/48/262 247/48/262 335/2/262
f 188/155/263 41/158/263 235/158/263 382/155/263
f 162/166/252 13/30/252 207/30/252 356/166/252
f 13/30/252 14/29/252 208/29/252 207/30/252
f 2/107/252 106/106/252 300/106/252 196/107/252
f 7/81/252 65/80/252 259/80/252 201/81/252
f 109/74/252 1/154/252 195/154/252 303/74/252
f 117/173/252 73/121/252 267/121/252 311/173/252
f 9/67/252 190/66/252 384/66/252 203/67/252
f 14/29/252 15/42/252 209/42/252 208/29/252
f 61/40/264 170/183/264 364/183/264 255/40/264
f 79/120/252 121/127/252 315/127/252 273/120/252
f 57/41/265 61/40/265 255/40/265 251/41/265
f 22/108/266 2/107/266 196/107/266 216/108/266
f 12/16/252 135/15/252 329/15/252 206/16/252
f 69/49/252 16/57/252 210/57/252 263/49/252
f 16/57/252 3/56/252 197/56/252 210/57/252
f 45/28/267 30/103/267 224/103/267 239/28/267
f 11/3/268 141/2/268 335/2/268 205/3/268
f 41/158/269 172/25/269 366/25/269 235/158/269
f 64/160/270 167/159/270 361/159/270 258/160/270
f 6/179/271 4/178/271 198/178/271 200/179/271
f 112/125/252 162/166/252 356/166/252 306/125/252
f 18/182/272 19/181/272 213/181/272 212/182/272
f 1/154/273 17/152/273 211/152/273 195/154/273
f 8/92/252 5/91/252 199/91/252 202/92/252
f 76/126/252 112/125/252 306/125/252 270/126/252
f 17/152/274 18/153/274 212/153/274 211/152/274
f 170/183/275 64/160/275 258/160/275 364/183/275
f 53/48/276 57/41/276 251/41/276 247/48/276
f 3/56/252 7/81/252 201/81/252 197/56/252
f 93/143/252 76/126/252 270/126/252 287/143/252
