# Blender 5.2.1 LTS
# www.blender.org
mtllib BrainWall.mtl
o BrainWallSide.001
v -5.000398 -0.200000 -0.200000
v 0.000002 -0.200000 -0.200000
v -0.000002 0.000000 -0.200000
v -5.000402 0.000000 -0.200000
v -5.000398 -0.200000 0.000000
v 0.000002 -0.200000 0.000001
v -0.000002 0.000000 0.000001
v -5.000402 0.000000 0.000000
v -0.226372 -0.200000 -0.200000
v -0.226376 0.000000 -0.200000
v -0.226372 -0.200000 0.000001
v -0.226376 0.000000 0.000001
v -4.734847 0.000000 -0.200000
v -4.734847 0.000000 0.000000
v -4.734842 -0.200000 -0.200000
v -4.734842 -0.200000 0.000000
v -5.000398 -0.200000 -0.165614
v 0.000002 -0.200000 -0.165613
v -5.000402 0.000000 -0.165614
v -0.000002 0.000000 -0.165613
v -0.226372 -0.200000 -0.165613
v -0.226376 0.000000 -0.165613
v -4.734847 0.000000 -0.165614
v -4.734842 -0.200000 -0.165614
v -4.734847 4.800000 -0.200000
v -5.000402 4.800000 -0.200000
v -4.734847 4.800000 0.000000
v -5.000402 4.800000 0.000000
v -5.000402 4.800000 -0.165614
v -0.000002 4.800000 -0.165613
v -0.000002 4.800000 -0.200000
v -0.226376 4.800000 -0.200000
v -0.000002 4.800000 0.000001
v -0.226376 4.800000 0.000001
v -0.226376 4.800000 -0.165613
v -4.734847 4.800000 -0.165614
v -4.734847 2.400000 -0.175226
v -5.000402 2.400000 0.000000
v -5.000402 2.400000 -0.175226
v -5.000402 2.400000 -0.165614
v -4.734847 2.400000 0.000000
v -4.734847 2.400000 -0.165614
v -0.000002 2.400000 -0.165613
v -0.000002 2.400000 0.000001
v -0.000002 2.400000 -0.175225
v -0.226376 2.400000 -0.175225
v -0.226376 2.400000 0.000001
v -0.226376 2.400000 -0.165613
v -0.226376 2.426076 -0.165613
v -0.226376 2.373925 -0.165613
v -0.000002 2.373925 0.000001
v -0.000002 2.426076 0.000001
v -0.000002 2.373925 -0.165613
v -0.000002 2.426076 -0.165613
v -0.226376 2.373925 0.000001
v -0.226376 2.426076 0.000001
v -0.000002 2.426076 -0.200000
v -0.000002 2.373925 -0.200000
v -0.226376 2.373925 -0.200000
v -0.226376 2.426076 -0.200000
v -4.734847 2.373925 -0.165614
v -4.734847 2.426076 -0.165614
v -4.734847 2.426076 0.000000
v -4.734847 2.373925 0.000000
v -5.000402 2.426076 -0.200000
v -5.000402 2.373925 -0.200000
v -4.734847 2.373925 -0.200000
v -4.734847 2.426076 -0.200000
v -5.000402 2.426076 0.000000
v -5.000402 2.373925 0.000000
v -5.000402 2.373925 -0.165614
v -5.000402 2.426076 -0.165614
vn -0.0000 -0.0000 1.0000
vn -0.0000 -0.0000 -1.0000
vn -1.0000 -0.0000 -0.0000
vn 1.0000 -0.0000 -0.0000
vn -0.0000 -1.0000 -0.0000
vn -0.0000 1.0000 -0.0000
vn -0.0000 -0.6888 -0.7250
vn -0.0000 0.6888 -0.7250
vt 0.062199 0.533202
vt 0.039676 0.533202
vt 0.039677 0.513303
vt 0.062199 0.513303
vt 0.026387 0.004322
vt 0.026387 0.024221
vt 0.003865 0.024221
vt 0.003864 0.004322
vt 0.648831 0.490949
vt 0.648831 0.510847
vt 0.645410 0.510847
vt 0.645410 0.490949
vt 0.631646 0.490948
vt 0.631646 0.510847
vt 0.615168 0.510847
vt 0.615168 0.490948
vt 0.588348 0.513431
vt 0.588348 0.490908
vt 0.604826 0.490908
vt 0.604826 0.513431
vt 0.588348 0.961992
vt 0.604826 0.961992
vt 0.474947 0.004323
vt 0.474948 0.024222
vt 0.714649 0.733124
vt 0.711228 0.733124
vt 0.711228 0.730530
vt 0.712184 0.730530
vt 0.510760 0.533200
vt 0.510760 0.513302
vt 0.537180 0.533200
vt 0.537181 0.513302
vt 0.501368 0.004323
vt 0.501369 0.024222
vt 0.588348 0.988413
vt 0.604826 0.988413
vt 0.584927 0.988413
vt 0.584927 0.961992
vt 0.391545 0.480677
vt 0.388124 0.480677
vt 0.388124 0.032117
vt 0.391545 0.032117
vt 0.584927 0.513431
vt 0.584927 0.490908
vt 0.635067 0.490948
vt 0.635067 0.510847
vt 0.665308 0.490949
vt 0.665308 0.510847
vt 0.206675 0.179618
vt 0.206675 0.163141
vt 0.229197 0.163141
vt 0.229197 0.179618
vt 0.201578 0.193226
vt 0.218056 0.193226
vt 0.218056 0.219647
vt 0.201578 0.219647
vt 0.198157 0.193226
vt 0.198157 0.219647
vt 0.206675 0.183039
vt 0.229197 0.183039
vt 0.648831 0.752224
vt 0.645410 0.752224
vt 0.647875 0.749630
vt 0.648831 0.749630
vt 0.665308 0.752224
vt 0.665308 0.749630
vt 0.747513 0.727936
vt 0.763990 0.727936
vt 0.763990 0.730530
vt 0.747513 0.730530
vt 0.026386 0.267566
vt 0.003864 0.267566
vt 0.003864 0.263988
vt 0.026386 0.263988
vt 0.039676 0.271926
vt 0.062199 0.271926
vt 0.062199 0.274520
vt 0.039676 0.274520
vt 0.747513 0.733124
vt 0.744092 0.733124
vt 0.746557 0.730530
vt 0.371646 0.032117
vt 0.371646 0.480677
vt 0.631646 0.752224
vt 0.615168 0.752224
vt 0.615168 0.749630
vt 0.631646 0.749630
vt 0.635067 0.752224
vt 0.632602 0.749630
vt 0.694751 0.733124
vt 0.694751 0.730530
vt 0.510759 0.271924
vt 0.537180 0.271924
vt 0.537180 0.274519
vt 0.510759 0.274519
vt 0.501368 0.267568
vt 0.474947 0.267568
vt 0.474947 0.263989
vt 0.501368 0.263989
vt 0.763990 0.733124
vt 0.003864 0.260409
vt 0.026386 0.260409
vt 0.062199 0.277114
vt 0.039676 0.277114
vt 0.744092 0.727936
vt 0.615168 0.747035
vt 0.631646 0.747035
vt 0.635067 0.747035
vt 0.694751 0.727935
vt 0.711228 0.727935
vt 0.645410 0.747036
vt 0.648831 0.747036
vt 0.537180 0.277113
vt 0.510759 0.277113
vt 0.665308 0.747036
vt 0.714649 0.727935
vt 0.474947 0.260410
vt 0.501368 0.260410
vt 0.744092 0.491747
vt 0.747513 0.491747
vt 0.763990 0.491747
vt 0.747513 0.969313
vt 0.744092 0.969313
vt 0.763990 0.969313
vt 0.039675 0.035737
vt 0.062198 0.035737
vt 0.631645 0.988413
vt 0.615168 0.988413
vt 0.635067 0.988413
vt 0.026386 0.503755
vt 0.003863 0.503755
vt 0.711228 0.969313
vt 0.694751 0.969313
vt 0.711228 0.491747
vt 0.714649 0.491747
vt 0.694751 0.491747
vt 0.714649 0.969313
vt 0.510759 0.035736
vt 0.537179 0.035736
vt 0.648831 0.988413
vt 0.645410 0.988413
vt 0.501367 0.503756
vt 0.474947 0.503756
vt 0.665308 0.988413
s 0
f 11/1/1 6/2/1 7/3/1 12/4/1
f 9/5/2 10/6/2 3/7/2 2/8/2
f 17/9/3 19/10/3 4/11/3 1/12/3
f 18/13/4 20/14/4 7/15/4 6/16/4
f 21/17/5 18/18/5 6/19/5 11/20/5
f 24/21/5 21/17/5 11/20/5 16/22/5
f 15/23/2 13/24/2 10/6/2 9/5/2
f 68/25/4 62/26/4 42/27/4 37/28/4
f 16/29/1 11/1/1 12/4/1 14/30/1
f 5/31/1 16/29/1 14/30/1 8/32/1
f 1/33/2 4/34/2 13/24/2 15/23/2
f 17/35/5 24/21/5 16/22/5 5/36/5
f 1/37/5 15/38/5 24/21/5 17/35/5
f 13/39/6 23/40/6 22/41/6 10/42/6
f 15/38/5 9/43/5 21/17/5 24/21/5
f 9/43/5 2/44/5 18/18/5 21/17/5
f 2/45/4 3/46/4 20/14/4 18/13/4
f 5/47/3 8/48/3 19/10/3 17/9/3
f 35/49/6 34/50/6 33/51/6 30/52/6
f 29/53/6 28/54/6 27/55/6 36/56/6
f 26/57/6 29/53/6 36/56/6 25/58/6
f 32/59/6 35/49/6 30/52/6 31/60/6
f 72/61/3 65/62/3 39/63/3 40/64/3
f 69/65/3 72/61/3 40/64/3 38/66/3
f 50/67/3 55/68/3 47/69/3 48/70/3
f 60/71/7 57/72/7 45/73/7 46/74/7
f 52/75/1 56/76/1 47/77/1 44/78/1
f 49/79/3 60/80/3 46/81/3 48/70/3
f 12/82/6 22/41/6 23/40/6 14/83/6
f 54/84/4 52/85/4 44/86/4 43/87/4
f 57/88/4 54/84/4 43/87/4 45/89/4
f 62/26/4 63/90/4 41/91/4 42/27/4
f 63/92/1 69/93/1 38/94/1 41/95/1
f 65/96/7 68/97/7 37/98/7 39/99/7
f 48/70/3 47/69/3 56/100/3 49/79/3
f 46/74/8 45/73/8 58/101/8 59/102/8
f 44/78/1 47/77/1 55/103/1 51/104/1
f 48/70/3 46/81/3 59/105/3 50/67/3
f 43/87/4 44/86/4 51/106/4 53/107/4
f 45/89/4 43/87/4 53/107/4 58/108/4
f 42/27/4 41/91/4 64/109/4 61/110/4
f 40/64/3 39/63/3 66/111/3 71/112/3
f 41/95/1 38/94/1 70/113/1 64/114/1
f 38/66/3 40/64/3 71/112/3 70/115/3
f 37/28/4 42/27/4 61/110/4 67/116/4
f 39/99/8 37/98/8 67/117/8 66/118/8
f 10/119/3 22/120/3 50/67/3 59/105/3
f 50/67/3 22/120/3 12/121/3 55/68/3
f 60/80/3 49/79/3 35/122/3 32/123/3
f 35/122/3 49/79/3 56/100/3 34/124/3
f 7/15/4 20/14/4 53/107/4 51/106/4
f 56/76/1 52/75/1 33/125/1 34/126/1
f 12/4/1 7/3/1 51/104/1 55/103/1
f 52/85/4 54/84/4 30/127/4 33/128/4
f 20/14/4 3/46/4 58/108/4 53/107/4
f 54/84/4 57/88/4 31/129/4 30/127/4
f 57/72/2 60/71/2 32/130/2 31/131/2
f 3/7/2 10/6/2 59/102/2 58/101/2
f 62/26/4 36/132/4 27/133/4 63/90/4
f 23/134/4 13/135/4 67/116/4 61/110/4
f 23/134/4 61/110/4 64/109/4 14/136/4
f 62/26/4 68/25/4 25/137/4 36/132/4
f 8/32/1 14/30/1 64/114/1 70/113/1
f 69/93/1 63/92/1 27/138/1 28/139/1
f 65/62/3 72/61/3 29/140/3 26/141/3
f 13/24/2 4/34/2 66/118/2 67/117/2
f 68/97/2 65/96/2 26/142/2 25/143/2
f 4/11/3 19/10/3 71/112/3 66/111/3
f 19/10/3 8/48/3 70/115/3 71/112/3
f 72/61/3 69/65/3 28/144/3 29/140/3
o BrainWallSide.003
v -0.226376 0.000000 0.000001
v -4.734847 0.000000 0.000000
v -0.226376 0.000000 -0.142867
v -4.734847 0.000000 -0.142868
v -4.734847 4.800000 0.000000
v -0.226376 4.800000 0.000001
v -0.226376 4.800000 -0.142867
v -4.734847 4.800000 -0.142868
v -4.622135 0.000000 0.000000
v -4.622135 4.800000 0.000000
v -4.622135 0.000000 -0.142868
v -4.622135 4.800000 -0.142868
v -0.339088 0.000000 -0.142867
v -0.339088 4.800000 -0.142867
v -0.339088 0.000000 0.000001
v -0.339088 4.800000 0.000001
v -0.514991 0.000000 0.000001
v -0.514991 0.000000 -0.142867
v -0.514991 4.800000 0.000001
v -0.514991 4.800000 -0.142867
v -4.446232 0.000000 0.000000
v -4.446232 0.000000 -0.142868
v -4.446232 4.800000 0.000000
v -4.446232 4.800000 -0.142868
v -0.593943 4.646852 -0.142867
v -4.367280 4.646852 -0.142868
v -0.407571 1.549375 -0.163423
v -4.553652 1.549375 -0.163423
v -0.593951 0.153269 -0.142867
v -4.367271 0.153269 -0.142868
v -4.622135 0.228344 0.000000
v -0.226376 0.228344 -0.142867
v -0.440555 0.246511 -0.142867
v -4.520668 0.246511 -0.142868
v -4.734847 0.228344 0.000000
v -4.734847 0.228344 -0.142868
v -0.226376 0.228344 0.000001
v -0.339088 0.228344 0.000001
v -0.514991 0.228344 0.000001
v -4.446232 0.228344 0.000000
v -4.734847 4.571897 0.000000
v -4.734847 4.571897 -0.142868
v -0.226376 4.571897 0.000001
v -0.339088 4.571897 0.000001
v -0.514991 4.571897 0.000001
v -4.446232 4.571897 0.000000
v -4.622135 4.571897 0.000000
v -0.226376 4.571897 -0.142867
v -0.440550 4.553722 -0.142867
v -4.520672 4.553722 -0.142868
v -2.481554 1.413176 -0.142868
v -2.481554 3.388321 -0.142868
v -2.481554 3.280385 -0.142868
v -2.481318 3.252259 0.000001
v -2.481318 1.549375 0.000001
v -2.481554 1.521248 -0.142868
v -2.481318 4.571897 0.000001
v -2.481318 4.800000 0.000001
v -2.481554 1.275972 -0.142868
v -2.481554 0.228344 -0.142868
v -2.481554 3.525383 -0.142868
v -1.841803 0.243308 -0.142868
v -1.841807 4.556924 -0.142868
v -1.842134 3.545907 -0.142868
v -1.842130 1.255456 -0.142868
v -3.121838 0.243165 -0.142868
v -3.121835 4.557066 -0.142868
v -3.121510 3.545767 -0.142868
v -3.121514 1.255596 -0.142868
v -2.481554 4.571897 -0.142868
v -2.481318 0.000000 0.000001
v -2.481318 0.228344 0.000001
v -2.481318 0.154756 -0.142868
v -2.481318 4.800000 -0.142868
v -2.481318 0.000000 -0.142868
v -2.057970 0.241793 -0.142868
v -2.055818 1.337123 -0.142868
v -2.057966 4.558438 -0.142868
v -2.055814 3.464226 -0.142868
v -2.122441 4.800000 0.000001
v -2.122441 4.800000 -0.142868
v -2.137801 0.151480 -0.142868
v -2.122441 0.228344 0.000001
v -2.122441 4.571897 0.000001
v -2.122441 0.000000 0.000001
v -2.122441 0.000000 -0.142868
v -2.137792 4.648639 -0.142868
v -2.905154 0.241835 -0.142868
v -2.905158 4.558397 -0.142868
v -2.907269 3.464272 -0.142868
v -2.907265 1.337076 -0.142868
v -2.840197 0.000000 -0.142868
v -2.824885 4.648621 -0.142868
v -2.824876 0.151498 -0.142868
v -2.840197 0.228344 0.000001
v -2.840197 0.000000 0.000001
v -2.840197 4.800000 0.000001
v -2.840197 4.800000 -0.142868
v -2.840197 4.571897 0.000001
v -1.757780 0.000000 0.000001
v -1.757780 0.000000 -0.142867
v -1.743935 4.648005 -0.142867
v -1.757780 4.800000 0.000001
v -1.757780 4.800000 -0.142867
v -1.743926 0.152115 -0.142867
v -1.757780 0.228344 0.000001
v -1.757780 4.571897 0.000001
v -3.203859 0.000000 0.000000
v -3.203859 4.800000 0.000000
v -3.203859 4.800000 -0.142868
v -3.203859 4.571897 0.000000
v -3.203859 0.000000 -0.142868
v -3.217847 4.648063 -0.142868
v -3.217857 0.152057 -0.142868
v -3.203859 0.228344 0.000000
v -4.734847 1.549375 0.000000
v -4.734847 1.549375 -0.142868
v -0.226376 1.549375 0.000001
v -0.339088 1.549375 0.000001
v -0.514991 1.549375 -0.142867
v -0.514991 1.549375 0.000001
v -4.446232 1.549375 -0.142868
v -4.446232 1.549375 0.000000
v -1.923154 1.574354 -0.142867
v -3.040426 1.574354 -0.142868
v -4.622135 1.549375 0.000000
v -0.226376 1.549375 -0.142867
v -0.445227 1.549375 -0.142867
v -4.515996 1.549375 -0.142868
v -2.022797 1.574354 -0.142868
v -2.122441 1.549375 0.000001
v -2.940311 1.574354 -0.142868
v -2.840197 1.549375 0.000001
v -1.757780 1.549375 0.000001
v -1.793424 1.561518 -0.142868
v -3.168177 1.561407 -0.142868
v -3.203859 1.549375 0.000000
v -1.624224 0.000000 0.000001
v -1.624224 0.000000 -0.142867
v -1.624224 4.645368 -0.142867
v -1.624224 4.800000 0.000001
v -1.624224 4.800000 -0.142867
v -1.624224 0.154756 -0.142867
v -1.624224 0.228344 0.000001
v -1.624224 4.571897 0.000001
v -1.624224 1.549375 0.000001
v -3.333532 0.000000 0.000000
v -3.333532 4.800000 0.000000
v -3.333532 4.800000 -0.142868
v -3.333532 4.571897 0.000000
v -3.333532 0.000000 -0.142868
v -3.333532 4.645368 -0.142868
v -3.333532 0.154756 -0.142868
v -3.333532 0.228344 0.000000
v -3.333532 1.549375 0.000000
v -4.622135 3.252259 0.000000
v -0.226376 3.252259 -0.142867
v -0.445227 3.252259 -0.142867
v -4.515996 3.252259 -0.142868
v -4.734847 3.252259 0.000000
v -4.734847 3.252259 -0.142868
v -0.226376 3.252259 0.000001
v -0.339088 3.252259 0.000001
v -0.514991 3.252259 -0.142867
v -0.514991 3.252259 0.000001
v -4.446232 3.252259 -0.142868
v -4.446232 3.252259 0.000000
v -1.923154 3.227279 -0.142867
v -3.040426 3.227279 -0.142868
v -2.022797 3.227279 -0.142868
v -2.122441 3.252259 0.000001
v -2.940311 3.227279 -0.142868
v -2.840197 3.252259 0.000001
v -1.757780 3.252259 0.000001
v -3.168181 3.240215 -0.142868
v -3.203859 3.252259 0.000000
v -1.624224 3.252259 0.000001
v -1.588535 3.264270 -0.142867
v -3.369306 3.264017 -0.142868
v -3.333532 3.252259 0.000000
v -3.087368 3.343951 -0.142868
v -3.087352 1.457497 -0.142868
v -1.876102 1.456630 -0.142867
v -1.936621 3.285690 -0.142867
v -3.026959 3.285214 -0.142868
v -2.022797 3.338941 -0.142868
v -2.940311 3.338941 -0.142868
v -2.022797 1.462556 -0.142868
v -2.940311 1.462556 -0.142868
v -3.026959 1.516335 -0.142868
v -1.936621 1.515858 -0.142867
v -0.583474 0.117100 -0.163423
v -4.377749 0.117100 -0.163423
v -0.407571 4.571897 -0.163423
v -4.553652 4.571897 -0.163423
v -0.583474 4.683024 -0.163423
v -4.377749 4.683024 -0.163423
v -2.481318 0.117100 -0.163423
v -2.122441 0.117100 -0.163423
v -0.407571 0.228344 -0.163423
v -4.553652 0.228344 -0.163423
v -2.840197 0.117100 -0.163423
v -0.407571 3.252259 -0.163423
v -4.553652 3.252259 -0.163423
v -2.481318 4.683024 -0.163423
v -2.022797 4.571897 -0.163423
v -1.876358 4.571897 -0.163423
v -2.022797 3.482333 -0.163423
v -1.876358 3.530201 -0.163423
v -1.876358 1.271154 -0.163423
v -1.876358 0.228344 -0.163423
v -3.087222 1.271154 -0.163423
v -3.087222 0.228344 -0.163423
v -3.087222 4.571897 -0.163423
v -3.087222 3.530201 -0.163423
v -1.624224 4.683024 -0.163423
v -3.333532 3.252259 -0.163423
v -1.624224 3.252259 -0.163423
v -3.203859 3.252259 -0.163423
v -2.022797 0.228344 -0.163423
v -2.022797 1.319023 -0.163423
v -1.757780 0.117100 -0.163423
v -2.122441 4.683024 -0.163423
v -2.940311 0.228344 -0.163423
v -2.940311 4.571897 -0.163423
v -2.940311 3.482333 -0.163423
v -2.940311 1.319023 -0.163423
v -3.203859 4.683024 -0.163423
v -2.840197 4.683024 -0.163423
v -3.203859 0.117100 -0.163423
v -1.757780 4.683024 -0.163423
v -1.624224 0.117100 -0.163423
v -1.757780 1.549375 -0.163423
v -3.333532 4.683024 -0.163423
v -3.333532 0.117100 -0.163423
v -3.203859 1.549375 -0.163423
v -3.333532 1.549375 -0.163423
v -1.624224 1.549375 -0.163423
v -1.757780 3.252259 -0.163423
v -1.757780 3.428210 -0.163423
v -3.203859 3.428211 -0.163423
v -3.203859 1.373238 -0.163423
v -1.757780 1.373238 -0.163423
v -3.112898 3.371632 -0.163423
v -3.112898 1.429830 -0.163423
v -1.850682 1.428849 -0.163423
v -1.850682 3.372611 -0.163423
v -2.481318 4.645368 -0.142868
v -1.588532 1.537374 -0.142867
v -3.369309 1.537626 -0.142868
v -1.793420 3.240103 -0.142868
v -1.730353 3.454012 -0.142867
v -3.231572 3.453705 -0.142868
v -3.231585 1.347757 -0.142868
v -1.730340 1.347449 -0.142867
v -1.876086 3.344815 -0.142867
v -1.069608 0.000000 0.000001
v -1.069608 0.000000 -0.142867
v -1.069608 4.800000 0.000001
v -1.069608 4.800000 -0.142867
v -1.069608 0.228344 0.000001
v -1.069608 4.571897 0.000001
v -1.069608 1.549375 0.000001
v -1.051761 1.543374 -0.142867
v -1.051763 3.258264 -0.142867
v -1.069608 3.252259 0.000001
v -1.069608 4.683024 -0.163423
v -1.069608 0.117100 -0.163423
v -1.074842 4.646110 -0.142867
v -1.074846 0.154012 -0.142867
v -3.889882 0.000000 0.000000
v -3.889882 4.800000 0.000000
v -3.889882 4.800000 -0.142868
v -3.889882 4.571897 0.000000
v -3.889882 0.000000 -0.142868
v -3.889882 0.228344 0.000000
v -3.907770 1.543501 -0.142868
v -3.889882 1.549375 0.000000
v -3.889882 3.252259 0.000000
v -3.907769 3.258138 -0.142868
v -3.889882 4.683024 -0.163423
v -3.889882 0.117100 -0.163423
v -3.884648 4.646110 -0.142868
v -3.884643 0.154012 -0.142868
v -4.622135 3.912078 0.000000
v -0.226376 3.912077 -0.142867
v -2.481554 4.048640 -0.142868
v -2.481318 3.912078 0.000001
v -4.734847 3.912077 0.000000
v -4.734847 3.912078 -0.142868
v -0.226376 3.912078 0.000001
v -0.339088 3.912078 0.000001
v -0.520225 3.949556 -0.142867
v -0.514991 3.912078 0.000001
v -4.440998 3.949556 -0.142868
v -4.446232 3.912078 0.000000
v -2.122441 3.912078 0.000001
v -2.840197 3.912078 0.000001
v -1.757780 3.912078 0.000001
v -3.203859 3.912078 0.000000
v -1.624224 3.912078 0.000001
v -1.606380 3.954819 -0.142867
v -3.351419 3.954692 -0.142868
v -3.333532 3.912078 0.000000
v -3.224710 4.050884 -0.142868
v -1.737144 4.051008 -0.142867
v -0.407571 3.912078 -0.163423
v -4.553652 3.912078 -0.163423
v -1.876358 4.051049 -0.163423
v -3.087222 4.051049 -0.163423
v -2.022797 4.027115 -0.163423
v -2.940311 4.027115 -0.163423
v -0.442889 3.902990 -0.142867
v -4.518334 3.902990 -0.142868
v -1.841970 4.051415 -0.142868
v -3.121672 4.051416 -0.142868
v -2.056890 4.011332 -0.142868
v -2.906214 4.011334 -0.142868
v -1.063303 3.952187 -0.142867
v -1.069608 3.912078 0.000001
v -3.889882 3.912078 0.000000
v -3.896208 3.952124 -0.142868
v -4.734847 0.888860 0.000000
v -4.734847 0.888860 -0.142868
v -0.226376 0.888860 0.000001
v -0.339088 0.888860 0.000001
v -0.520229 0.851322 -0.142867
v -0.514991 0.888860 0.000001
v -4.440993 0.851322 -0.142868
v -4.446232 0.888860 0.000000
v -2.481554 0.752158 -0.142868
v -2.481318 0.888860 0.000001
v -2.122441 0.888860 0.000001
v -2.840197 0.888860 0.000001
v -1.757780 0.888860 0.000001
v -1.737133 0.749782 -0.142867
v -3.224720 0.749907 -0.142868
v -3.203859 0.888860 0.000000
v -4.622135 0.888860 0.000000
v -0.226376 0.888860 -0.142867
v -1.624224 0.888860 0.000001
v -1.606378 0.846065 -0.142867
v -3.351420 0.846191 -0.142868
v -3.333532 0.888860 0.000000
v -1.876358 0.749749 -0.163423
v -3.087222 0.749749 -0.163423
v -2.022797 0.773683 -0.163423
v -2.940311 0.773683 -0.163423
v -0.407571 0.888860 -0.163423
v -4.553652 0.888860 -0.163423
v -1.841967 0.749382 -0.142868
v -3.121676 0.749381 -0.142868
v -2.056894 0.789458 -0.142868
v -2.906210 0.789456 -0.142868
v -0.442891 0.897943 -0.142867
v -4.518332 0.897943 -0.142868
v -1.063304 0.848693 -0.142867
v -1.069608 0.888860 0.000001
v -3.896207 0.848756 -0.142868
v -3.889882 0.888860 0.000000
v -4.553652 2.570034 -0.163423
v -4.553652 2.231600 -0.163423
v -2.481318 2.570034 0.000001
v -2.481318 2.231600 0.000001
v -2.481554 2.570033 -0.142868
v -2.481554 2.231599 -0.142868
v -4.515996 2.231600 -0.142868
v -4.515996 2.570034 -0.142868
v -0.445227 2.570034 -0.142867
v -0.445227 2.231600 -0.142867
v -0.226376 2.231600 -0.142867
v -0.226376 2.570034 -0.142867
v -4.622135 2.231600 0.000000
v -4.622135 2.570034 0.000000
v -3.333532 2.231600 0.000000
v -3.333532 2.570034 0.000000
v -1.624224 2.570034 0.000001
v -1.624224 2.231600 0.000001
v -1.757780 2.231600 0.000001
v -1.757780 2.570034 0.000001
v -2.840197 2.231600 0.000001
v -2.840197 2.570034 0.000001
v -2.957147 2.231599 -0.142868
v -2.957147 2.570033 -0.142868
v -2.122441 2.570034 0.000001
v -2.122441 2.231600 0.000001
v -3.060937 2.570033 -0.142868
v -3.060937 2.231599 -0.142868
v -1.902652 2.570033 -0.142867
v -1.902652 2.231599 -0.142867
v -4.446232 2.231600 0.000000
v -4.446232 2.570034 0.000000
v -4.446232 2.570034 -0.142868
v -4.446232 2.231600 -0.142868
v -0.514991 2.570034 0.000001
v -0.514991 2.231600 0.000001
v -0.514991 2.231600 -0.142867
v -0.514991 2.570034 -0.142867
v -0.226376 2.570034 0.000001
v -0.226376 2.231600 0.000001
v -4.734847 2.570034 -0.142868
v -4.734847 2.231600 -0.142868
v -4.734847 2.231600 0.000000
v -4.734847 2.570034 0.000000
v -2.005953 2.231599 -0.142868
v -2.005953 2.570033 -0.142868
v -3.203859 2.231600 0.000000
v -3.203859 2.570034 0.000000
v -0.339088 2.231600 0.000001
v -0.339088 2.570034 0.000001
v -0.407571 2.231600 -0.163423
v -0.407571 2.570034 -0.163423
v -3.333532 2.231600 -0.163423
v -3.333532 2.570034 -0.163423
v -3.203859 2.570034 -0.163423
v -3.203859 2.231600 -0.163423
v -1.624224 2.570034 -0.163423
v -1.624224 2.231600 -0.163423
v -1.757780 2.231600 -0.163423
v -1.757780 2.570034 -0.163423
v -3.370819 2.570034 -0.142868
v -3.370820 2.231600 -0.142868
v -1.586953 2.231600 -0.142867
v -1.586954 2.570034 -0.142867
v -3.166601 2.231600 -0.142868
v -3.166601 2.570034 -0.142868
v -1.795030 2.570034 -0.142868
v -1.795030 2.231600 -0.142868
v -1.069608 2.231600 0.000001
v -1.069608 2.570034 0.000001
v -1.050974 2.570034 -0.142867
v -1.050973 2.231600 -0.142867
v -3.908525 2.231600 -0.142868
v -3.908524 2.570034 -0.142868
v -3.889882 2.570034 0.000000
v -3.889882 2.231600 0.000000
v -4.446232 4.757298 -0.163423
v -2.840197 4.757298 -0.163423
v -2.481318 4.757298 -0.163423
v -2.122441 0.042701 -0.163423
v -2.481318 0.042701 -0.163423
v -0.514991 0.042701 -0.163423
v -4.622135 4.757298 -0.163423
v -4.692145 4.757298 -0.163423
v -4.622135 0.042701 -0.163423
v -4.692145 0.042701 -0.163423
v -0.269078 4.757298 -0.163423
v -0.339088 4.757298 -0.163423
v -0.269078 0.042701 -0.163423
v -0.339088 0.042701 -0.163423
v -0.514991 4.757298 -0.163423
v -4.446232 0.042701 -0.163423
v -0.269078 4.571897 -0.163423
v -0.269078 1.549375 -0.163423
v -4.692145 0.228344 -0.163423
v -0.269078 0.228344 -0.163423
v -4.692145 4.571897 -0.163423
v -2.122441 4.757298 -0.163423
v -2.840197 0.042701 -0.163423
v -0.269078 3.252259 -0.163423
v -4.692145 1.549375 -0.163423
v -3.333532 4.757298 -0.163423
v -1.624224 0.042701 -0.163423
v -1.757780 4.757298 -0.163423
v -3.203859 0.042701 -0.163423
v -1.757780 0.042701 -0.163423
v -1.624224 4.757298 -0.163423
v -3.203859 4.757298 -0.163423
v -3.333532 0.042701 -0.163423
v -4.692145 3.252259 -0.163423
v -1.069608 0.042701 -0.163423
v -1.069608 4.757298 -0.163423
v -3.889882 4.757298 -0.163423
v -3.889882 0.042701 -0.163423
v -0.269078 3.912077 -0.163423
v -4.692145 3.912078 -0.163423
v -4.692145 0.888860 -0.163423
v -0.269078 0.888860 -0.163423
v -0.269078 2.231600 -0.163423
v -0.269078 2.570034 -0.163423
v -4.692145 2.570034 -0.163423
v -4.692145 2.231600 -0.163423
vn -0.0000 -0.0000 1.0000
vn -0.0000 1.0000 -0.0000
vn -0.0000 -1.0000 -0.0000
vn 0.5121 0.0001 -0.8589
vn 1.0000 -0.0000 -0.0000
vn 0.3475 0.3716 -0.8609
vn -1.0000 -0.0000 -0.0000
vn -0.2698 0.4344 -0.8594
vn 0.4909 0.0009 -0.8712
vn -0.0000 -0.0000 -1.0000
vn -0.0051 0.4931 -0.8699
vn 0.5220 -0.0005 -0.8529
vn -0.2753 -0.4228 -0.8634
vn -0.3881 -0.3027 -0.8705
vn -0.3505 -0.3687 -0.8609
vn -0.3883 0.3025 -0.8705
vn -0.5160 0.0009 -0.8566
vn 0.2764 -0.4220 -0.8634
vn -0.0023 0.4959 -0.8684
vn 0.0054 0.4935 -0.8697
vn 0.3901 0.2999 -0.8706
vn 0.2696 -0.4346 -0.8594
vn -0.2755 0.4227 -0.8634
vn -0.0003 0.4828 -0.8757
vn 0.2698 0.4344 -0.8594
vn 0.2766 0.4219 -0.8634
vn -0.2696 -0.4346 -0.8594
vn 0.3899 -0.3002 -0.8706
vn 0.3792 0.3393 -0.8609
vn 0.0054 -0.4934 -0.8698
vn -0.3800 0.3384 -0.8608
vn 0.5103 0.0005 -0.8600
vn -0.0051 -0.4931 -0.8700
vn -0.3799 -0.3386 -0.8608
vn -0.0004 -0.4903 -0.8715
vn 0.0003 -0.4828 -0.8757
vn 0.3473 -0.3718 -0.8609
vn -0.3507 0.3685 -0.8609
vn -0.4909 -0.0009 -0.8712
vn -0.0023 -0.4959 -0.8684
vn -0.5103 -0.0005 -0.8600
vn 0.0004 0.4903 -0.8715
vn 0.3913 0.2947 -0.8718
vn 0.0023 0.4960 -0.8683
vn -0.5221 0.0005 -0.8529
vn 0.0023 -0.4960 -0.8683
vn -0.3951 0.2890 -0.8720
vn -0.3243 -0.3785 -0.8670
vn 0.3213 -0.3814 -0.8668
vn 0.5159 -0.0009 -0.8566
vn 0.3211 0.3815 -0.8668
vn -0.3952 -0.2888 -0.8720
vn 0.5140 -0.0001 -0.8578
vn 0.3915 -0.2945 -0.8718
vn -0.5133 0.0001 -0.8582
vn -0.3241 0.3786 -0.8669
vn -0.5115 -0.0001 -0.8593
vn 0.3790 -0.3395 -0.8609
vn 0.0003 0.4828 -0.8757
vn 0.0004 -0.4903 -0.8715
vn -0.0003 -0.4828 -0.8757
vn -0.0004 0.4903 -0.8715
vn -0.5133 -0.0001 -0.8582
vn 0.5122 -0.0001 -0.8589
vn -0.5222 -0.0005 -0.8528
vn -0.4909 0.0009 -0.8712
vn 0.5103 -0.0005 -0.8600
vn 0.5160 0.0009 -0.8566
vn -0.5114 0.0001 -0.8593
vn 0.4909 -0.0009 -0.8712
vn -0.5102 0.0005 -0.8600
vn -0.5160 -0.0009 -0.8566
vn 0.5220 0.0005 -0.8530
vn 0.5140 0.0001 -0.8578
vn 0.4791 -0.0000 -0.8777
vn -0.4791 -0.0000 -0.8777
vn -0.4828 -0.0000 -0.8757
vn 0.4829 -0.0000 -0.8757
vn 0.4831 -0.0000 -0.8756
vn -0.4831 -0.0000 -0.8755
vn -0.4903 -0.0005 -0.8715
vn -0.4903 0.0005 -0.8715
vn 0.4911 -0.0006 -0.8711
vn 0.4911 0.0006 -0.8711
vn 0.4908 0.0006 -0.8713
vn 0.4908 -0.0006 -0.8713
vn -0.4913 0.0006 -0.8710
vn -0.4913 -0.0006 -0.8710
vn -0.0000 0.4337 -0.9010
vn -0.0000 -0.4337 -0.9010
vn -0.4337 -0.0000 -0.9010
vn 0.4337 -0.0000 -0.9010
vt 0.631878 0.482269
vt 0.576525 0.482269
vt 0.576525 0.459574
vt 0.631878 0.459574
vt 0.437703 0.043332
vt 0.423488 0.043332
vt 0.423488 0.032118
vt 0.437703 0.032118
vt 0.996371 0.459574
vt 0.996371 0.482269
vt 0.985157 0.482269
vt 0.985157 0.459574
vt 0.399614 0.043330
vt 0.399614 0.032116
vt 0.413828 0.032116
vt 0.413828 0.043330
vt 0.143143 0.833168
vt 0.093150 0.833294
vt 0.091417 0.829340
vt 0.143207 0.829138
vt 0.437703 0.480677
vt 0.423488 0.480677
vt 0.423488 0.469464
vt 0.437703 0.469464
vt 0.557186 0.948210
vt 0.571400 0.948210
vt 0.571400 0.970904
vt 0.557186 0.970904
vt 0.399614 0.480677
vt 0.399614 0.469463
vt 0.413828 0.469463
vt 0.413828 0.480677
vt 0.084178 0.842966
vt 0.080165 0.841302
vt 0.399614 0.256326
vt 0.413828 0.256326
vt 0.413828 0.292032
vt 0.399614 0.292032
vt 0.423488 0.256468
vt 0.437703 0.256468
vt 0.437703 0.292174
vt 0.423488 0.292174
vt 0.736314 0.027422
vt 0.736314 0.004703
vt 0.772020 0.004703
vt 0.772020 0.027422
vt 0.399614 0.060831
vt 0.413828 0.060831
vt 0.576525 0.027422
vt 0.559024 0.027422
vt 0.559024 0.004703
vt 0.576525 0.004703
vt 0.773650 0.969313
vt 0.773650 0.946618
vt 0.787865 0.946618
vt 0.787865 0.969313
vt 0.437703 0.060833
vt 0.423488 0.060833
vt 0.559024 0.482269
vt 0.559024 0.459574
vt 0.083936 0.957491
vt 0.093121 0.972624
vt 0.091011 0.976416
vt 0.079755 0.958740
vt 0.457505 0.565656
vt 0.392885 0.565221
vt 0.392919 0.560954
vt 0.458465 0.561583
vt 0.423488 0.116013
vt 0.437703 0.116013
vt 0.437703 0.171193
vt 0.423488 0.171193
vt 0.399614 0.451962
vt 0.413828 0.451962
vt 0.423488 0.451962
vt 0.437703 0.451962
vt 0.967656 0.482269
vt 0.967656 0.459574
vt 0.912475 0.093138
vt 0.857295 0.093138
vt 0.857295 0.027422
vt 0.912475 0.027422
vt 0.399614 0.116184
vt 0.413828 0.116184
vt 0.362656 0.406550
vt 0.362887 0.471294
vt 0.347626 0.480559
vt 0.354961 0.411183
vt 0.912475 0.393927
vt 0.857295 0.393927
vt 0.857295 0.328280
vt 0.912475 0.328280
vt 0.547810 0.482269
vt 0.547810 0.459574
vt 0.844007 0.482269
vt 0.807726 0.482269
vt 0.807726 0.459574
vt 0.844007 0.459574
vt 0.985157 0.004703
vt 0.985157 0.027422
vt 0.967656 0.027422
vt 0.967656 0.004703
vt 0.204420 0.092832
vt 0.191411 0.102412
vt 0.193185 0.033631
vt 0.205095 0.033368
vt 0.362662 0.107570
vt 0.362428 0.172383
vt 0.355487 0.172383
vt 0.354967 0.102931
vt 0.145673 0.814886
vt 0.091369 0.814576
vt 0.787865 0.514466
vt 0.773651 0.514466
vt 0.773651 0.491747
vt 0.787865 0.491747
vt 0.996371 0.004703
vt 0.996371 0.027422
vt 0.547810 0.027422
vt 0.547810 0.004703
vt 0.807726 0.004703
vt 0.807726 0.027422
vt 0.787865 0.580182
vt 0.773651 0.580182
vt 0.576525 0.093138
vt 0.559024 0.093138
vt 0.807726 0.093138
vt 0.844007 0.027422
vt 0.844007 0.093138
vt 0.865982 0.502467
vt 0.865959 0.495146
vt 0.900140 0.494822
vt 0.908127 0.503809
vt 0.844007 0.004703
vt 0.773650 0.880971
vt 0.773651 0.815324
vt 0.787865 0.815324
vt 0.787865 0.880971
vt 0.996371 0.393927
vt 0.985157 0.393927
vt 0.084199 0.854776
vt 0.079897 0.854718
vt 0.557186 0.882563
vt 0.571401 0.882562
vt 0.865982 0.882559
vt 0.865982 0.934620
vt 0.823838 0.933280
vt 0.823731 0.878847
vt 0.559024 0.393927
vt 0.547810 0.393927
vt 0.576525 0.393927
vt 0.467241 0.726732
vt 0.413236 0.726019
vt 0.415302 0.722215
vt 0.468854 0.722751
vt 0.967656 0.393927
vt 0.469224 0.814856
vt 0.523405 0.814312
vt 0.523441 0.829057
vt 0.471691 0.829129
vt 0.911625 0.636386
vt 0.865982 0.631102
vt 0.865982 0.620349
vt 0.911625 0.625262
vt 0.137385 0.411450
vt 0.191417 0.411710
vt 0.193194 0.480415
vt 0.138534 0.480490
vt 0.399614 0.220621
vt 0.413828 0.220621
vt 0.908128 0.933276
vt 0.900141 0.942253
vt 0.865959 0.941929
vt 0.865982 0.554583
vt 0.908232 0.558294
vt 0.300759 0.411438
vt 0.301910 0.342391
vt 0.355484 0.341807
vt 0.985157 0.093138
vt 0.985157 0.158855
vt 0.967656 0.158855
vt 0.967656 0.093138
vt 0.772020 0.093138
vt 0.831780 0.942255
vt 0.996371 0.093138
vt 0.996371 0.158855
vt 0.559024 0.158855
vt 0.547810 0.158855
vt 0.547810 0.093138
vt 0.214850 0.092792
vt 0.214833 0.042441
vt 0.223698 0.421315
vt 0.233949 0.421262
vt 0.233265 0.480677
vt 0.223713 0.471624
vt 0.736314 0.393927
vt 0.736314 0.328280
vt 0.772020 0.328280
vt 0.772020 0.393927
vt 0.820339 0.811949
vt 0.820339 0.800840
vt 0.865982 0.806123
vt 0.865982 0.816862
vt 0.865982 0.606699
vt 0.908337 0.612778
vt 0.912475 0.459574
vt 0.912475 0.482269
vt 0.820339 0.625262
vt 0.811765 0.630566
vt 0.805744 0.624673
vt 0.823624 0.612783
vt 0.823624 0.824414
vt 0.805742 0.812534
vt 0.811765 0.806651
vt 0.401444 0.829144
vt 0.413641 0.811622
vt 0.415703 0.815420
vt 0.404569 0.832123
vt 0.934297 0.802127
vt 0.926256 0.812448
vt 0.920246 0.806604
vt 0.921586 0.800840
vt 0.631878 0.093138
vt 0.687231 0.093138
vt 0.687231 0.158855
vt 0.631878 0.158855
vt 0.631878 0.393927
vt 0.576525 0.328280
vt 0.631878 0.328280
vt 0.423488 0.396610
vt 0.437703 0.396610
vt 0.300765 0.102675
vt 0.246562 0.102419
vt 0.244784 0.033626
vt 0.299616 0.033553
vt 0.390961 0.837218
vt 0.392342 0.841275
vt 0.399614 0.396782
vt 0.413828 0.396782
vt 0.521176 0.704477
vt 0.530059 0.695204
vt 0.534020 0.696863
vt 0.522855 0.708415
vt 0.823838 0.503805
vt 0.831781 0.494820
vt 0.571401 0.493339
vt 0.571401 0.516057
vt 0.557187 0.516057
vt 0.557187 0.493339
vt 0.908233 0.878848
vt 0.807726 0.393927
vt 0.807726 0.328280
vt 0.844007 0.328280
vt 0.844007 0.393927
vt 0.700133 0.459574
vt 0.700133 0.482269
vt 0.687231 0.482269
vt 0.687231 0.459574
vt 0.631878 0.027422
vt 0.631878 0.004703
vt 0.687231 0.004703
vt 0.687231 0.027422
vt 0.137379 0.102674
vt 0.083347 0.102937
vt 0.090680 0.033485
vt 0.138526 0.033558
vt 0.213654 0.829313
vt 0.224126 0.837356
vt 0.222750 0.841412
vt 0.210529 0.832285
vt 0.204428 0.421280
vt 0.214857 0.421321
vt 0.214842 0.471615
vt 0.205105 0.480677
vt 0.571401 0.581774
vt 0.571401 0.647491
vt 0.557186 0.647491
vt 0.557187 0.581774
vt 0.700133 0.093138
vt 0.736314 0.093138
vt 0.736314 0.158855
vt 0.700133 0.158855
vt 0.457776 0.972789
vt 0.522000 0.972077
vt 0.524110 0.975852
vt 0.458735 0.976883
vt 0.911625 0.811949
vt 0.908338 0.824419
vt 0.865982 0.830499
vt 0.857295 0.459574
vt 0.857295 0.482269
vt 0.423488 0.184481
vt 0.437703 0.184481
vt 0.437703 0.220762
vt 0.423488 0.220762
vt 0.401067 0.708415
vt 0.404170 0.705468
vt 0.700133 0.004703
vt 0.700133 0.027422
vt 0.772020 0.459574
vt 0.772020 0.482269
vt 0.736314 0.482269
vt 0.736314 0.459574
vt 0.413828 0.328313
vt 0.399614 0.328313
vt 0.857295 0.004703
vt 0.399614 0.184439
vt 0.413828 0.184439
vt 0.084361 0.734973
vt 0.084302 0.768872
vt 0.079986 0.768864
vt 0.080449 0.733222
vt 0.084381 0.683342
vt 0.084335 0.694750
vt 0.080334 0.696436
vt 0.080077 0.683399
vt 0.224308 0.700342
vt 0.213959 0.708148
vt 0.210875 0.705175
vt 0.222966 0.696295
vt 0.530443 0.581459
vt 0.521398 0.566431
vt 0.523501 0.562679
vt 0.534592 0.580235
vt 0.201528 0.811770
vt 0.199449 0.815567
vt 0.399614 0.341601
vt 0.413828 0.341601
vt 0.700133 0.393927
vt 0.700133 0.328280
vt 0.810425 0.636386
vt 0.797518 0.635108
vt 0.810425 0.800840
vt 0.797518 0.802116
vt 0.246556 0.411692
vt 0.244775 0.480409
vt 0.084043 0.628343
vt 0.079801 0.627815
vt 0.437703 0.341257
vt 0.423488 0.341257
vt 0.423488 0.328355
vt 0.437703 0.328355
vt 0.093519 0.565104
vt 0.084302 0.580222
vt 0.080122 0.578964
vt 0.091416 0.561307
vt 0.233957 0.092839
vt 0.223705 0.092786
vt 0.223722 0.042421
vt 0.233275 0.033357
vt 0.201867 0.725690
vt 0.199799 0.721889
vt 0.687231 0.393927
vt 0.531110 0.956977
vt 0.535282 0.958212
vt 0.390850 0.700673
vt 0.392198 0.696642
vt 0.075652 0.107576
vt 0.075419 0.042763
vt 0.083353 0.411189
vt 0.090688 0.480565
vt 0.075427 0.471299
vt 0.075658 0.406556
vt 0.823731 0.558294
vt 0.093217 0.727073
vt 0.091583 0.723015
vt 0.399614 0.171537
vt 0.413828 0.171537
vt 0.912475 0.004703
vt 0.926255 0.624759
vt 0.920246 0.630613
vt 0.529917 0.683832
vt 0.534208 0.683884
vt 0.084121 0.802739
vt 0.092969 0.810517
vt 0.080226 0.804483
vt 0.147517 0.726690
vt 0.145887 0.722693
vt 0.530623 0.854307
vt 0.530722 0.842477
vt 0.534705 0.840814
vt 0.534936 0.854246
vt 0.921586 0.636385
vt 0.521777 0.810264
vt 0.530563 0.802456
vt 0.534463 0.804172
vt 0.934296 0.635097
vt 0.530455 0.629174
vt 0.534666 0.628669
vt 0.911625 0.800840
vt 0.820339 0.636386
vt 0.531166 0.909148
vt 0.535405 0.909658
vt 0.091594 0.708195
vt 0.143420 0.708376
vt 0.195107 0.707479
vt 0.471269 0.708447
vt 0.522872 0.723161
vt 0.533943 0.733306
vt 0.205445 0.696137
vt 0.222977 0.683421
vt 0.409937 0.841401
vt 0.392353 0.854603
vt 0.409622 0.696477
vt 0.419978 0.707854
vt 0.392194 0.683772
vt 0.205158 0.841538
vt 0.222720 0.854691
vt 0.194796 0.829963
vt 0.420360 0.829785
vt 0.521758 0.833009
vt 0.093288 0.704237
vt 0.157724 0.973242
vt 0.222758 0.973360
vt 0.222742 0.977644
vt 0.156774 0.977350
vt 0.530215 0.768697
vt 0.530068 0.735052
vt 0.534509 0.768667
vt 0.467597 0.810873
vt 0.083775 0.909566
vt 0.079536 0.910086
vt 0.412869 0.844594
vt 0.393736 0.858685
vt 0.147299 0.810894
vt 0.393545 0.679712
vt 0.412502 0.693276
vt 0.193360 0.703578
vt 0.202569 0.692928
vt 0.202228 0.844720
vt 0.193012 0.833856
vt 0.158120 0.564611
vt 0.157177 0.560502
vt 0.422142 0.833680
vt 0.221643 0.679345
vt 0.471757 0.833154
vt 0.221340 0.858765
vt 0.143352 0.704340
vt 0.421739 0.703961
vt 0.471323 0.704422
vt 0.521259 0.727200
vt 0.967656 0.328280
vt 0.347634 0.033480
vt 0.687231 0.328280
vt 0.576525 0.158855
vt 0.248337 0.342975
vt 0.299607 0.480484
vt 0.082831 0.341813
vt 0.136236 0.342409
vt 0.075889 0.341813
vt 0.189641 0.343006
vt 0.203751 0.361884
vt 0.234633 0.361847
vt 0.392882 0.973135
vt 0.392909 0.977419
vt 0.214872 0.371026
vt 0.223683 0.371007
vt 0.985157 0.328280
vt 0.559024 0.328280
vt 0.547810 0.328280
vt 0.557186 0.816915
vt 0.571401 0.816915
vt 0.996371 0.328280
vt 0.362425 0.341807
vt 0.301914 0.171797
vt 0.912475 0.158855
vt 0.189637 0.171192
vt 0.136232 0.171790
vt 0.223109 0.564624
vt 0.223105 0.560343
vt 0.772020 0.158855
vt 0.082827 0.172388
vt 0.075886 0.172388
vt 0.857295 0.158855
vt 0.844007 0.158855
vt 0.248341 0.171211
vt 0.234639 0.152321
vt 0.223688 0.143151
vt 0.214867 0.143143
vt 0.203745 0.152296
vt 0.807726 0.158855
vt 0.787865 0.645899
vt 0.773651 0.645899
vt 0.362895 0.042757
vt 0.075887 0.240265
vt 0.082829 0.240265
vt 0.082829 0.273936
vt 0.075888 0.273936
vt 0.912475 0.260403
vt 0.857295 0.260403
vt 0.857295 0.226731
vt 0.912475 0.226731
vt 0.136155 0.240264
vt 0.189481 0.240263
vt 0.189482 0.273934
vt 0.136155 0.273935
vt 0.934140 0.735448
vt 0.923627 0.735448
vt 0.923626 0.701777
vt 0.934139 0.701777
vt 0.571401 0.749039
vt 0.557186 0.749039
vt 0.557186 0.715367
vt 0.571401 0.715367
vt 0.818663 0.735448
vt 0.808385 0.735448
vt 0.808385 0.701777
vt 0.818663 0.701777
vt 0.773651 0.713775
vt 0.787865 0.713775
vt 0.787865 0.747447
vt 0.773651 0.747447
vt 0.355486 0.240259
vt 0.362427 0.240259
vt 0.362426 0.273931
vt 0.355485 0.273931
vt 0.967656 0.226731
vt 0.985157 0.226731
vt 0.985157 0.260403
vt 0.967656 0.260403
vt 0.996371 0.226731
vt 0.996371 0.260403
vt 0.559024 0.260403
vt 0.547810 0.260403
vt 0.547810 0.226731
vt 0.559024 0.226731
vt 0.865982 0.701777
vt 0.913300 0.701777
vt 0.913300 0.735448
vt 0.865982 0.735448
vt 0.807726 0.226731
vt 0.844007 0.226731
vt 0.844007 0.260403
vt 0.807726 0.260403
vt 0.301987 0.273930
vt 0.248489 0.273929
vt 0.248490 0.240257
vt 0.301988 0.240258
vt 0.772020 0.226731
vt 0.772020 0.260403
vt 0.631878 0.226731
vt 0.687231 0.226731
vt 0.687231 0.260403
vt 0.631878 0.260403
vt 0.576525 0.226731
vt 0.576525 0.260403
vt 0.700133 0.226731
vt 0.700133 0.260403
vt 0.736314 0.226731
vt 0.736314 0.260403
vt 0.797678 0.701777
vt 0.797678 0.735448
vt 0.324665 0.682970
vt 0.324607 0.695926
vt 0.290799 0.695811
vt 0.290800 0.682935
vt 0.290463 0.855422
vt 0.290491 0.842049
vt 0.324341 0.842051
vt 0.324390 0.855335
vt 0.324962 0.560497
vt 0.324941 0.564772
vt 0.291194 0.564662
vt 0.291203 0.560380
vt 0.324690 0.973440
vt 0.324704 0.977729
vt 0.290879 0.977788
vt 0.290880 0.973503
vt 0.290786 0.678657
vt 0.324690 0.678705
vt 0.290448 0.859697
vt 0.324419 0.859621
vt 0.290808 0.700079
vt 0.324582 0.700185
vt 0.324318 0.837775
vt 0.290506 0.837784
vt 0.547391 0.965041
vt 0.547302 0.982586
vt 0.542560 0.982500
vt 0.542661 0.965023
vt 0.546559 0.556008
vt 0.546640 0.573458
vt 0.541937 0.573470
vt 0.541852 0.556087
vt 0.067985 0.572059
vt 0.068150 0.554435
vt 0.072913 0.554545
vt 0.072732 0.572096
vt 0.523862 0.544294
vt 0.546161 0.544859
vt 0.541760 0.549307
vt 0.523768 0.548988
vt 0.090748 0.994977
vt 0.068188 0.994507
vt 0.072617 0.989991
vt 0.090821 0.990235
vt 0.546037 0.733210
vt 0.546452 0.768584
vt 0.541773 0.768617
vt 0.541333 0.733235
vt 0.068039 0.804522
vt 0.067954 0.768837
vt 0.072663 0.768849
vt 0.072780 0.804519
vt 0.068629 0.543165
vt 0.091193 0.542745
vt 0.091255 0.547487
vt 0.073049 0.547691
vt 0.067735 0.983237
vt 0.067609 0.965617
vt 0.072354 0.965590
vt 0.072497 0.983138
vt 0.546881 0.993806
vt 0.542459 0.989324
vt 0.546552 0.804110
vt 0.541829 0.804137
vt 0.068237 0.733164
vt 0.072982 0.733179
vt 0.524449 0.994339
vt 0.458942 0.995373
vt 0.458884 0.990654
vt 0.524362 0.989618
vt 0.157069 0.542079
vt 0.157103 0.546809
vt 0.546709 0.628715
vt 0.542002 0.628699
vt 0.067392 0.910066
vt 0.072134 0.910073
vt 0.546938 0.840662
vt 0.542178 0.840718
vt 0.068096 0.696536
vt 0.072864 0.696493
vt 0.067940 0.841203
vt 0.072702 0.841246
vt 0.547122 0.854093
vt 0.542369 0.854148
vt 0.546139 0.696929
vt 0.541411 0.696895
vt 0.067929 0.683529
vt 0.072677 0.683483
vt 0.222659 0.996218
vt 0.156628 0.995777
vt 0.156672 0.991046
vt 0.222680 0.991480
vt 0.067766 0.854579
vt 0.072507 0.854628
vt 0.547526 0.909624
vt 0.542788 0.909636
vt 0.546271 0.684010
vt 0.541557 0.683966
vt 0.067651 0.627810
vt 0.072396 0.627812
vt 0.393086 0.542455
vt 0.458696 0.543182
vt 0.458631 0.547878
vt 0.393043 0.547173
vt 0.393038 0.995993
vt 0.393004 0.991256
vt 0.223066 0.541780
vt 0.223076 0.546515
vt 0.291236 0.546553
vt 0.291247 0.541818
vt 0.325059 0.541955
vt 0.325033 0.546684
vt 0.324745 0.991580
vt 0.324760 0.996323
vt 0.290878 0.996371
vt 0.290880 0.991630
s 0
f 344/145/9 95/146/9 118/147/9 346/148/9
f 86/149/10 88/150/10 78/151/10 79/152/10
f 115/153/9 78/154/9 88/155/9 116/156/9
f 81/157/11 74/158/11 76/159/11 83/160/11
f 423/161/12 134/162/12 283/163/12 417/164/12
f 80/165/10 77/166/10 82/167/10 84/168/10
f 115/169/13 120/170/13 79/171/13 78/172/13
f 73/173/11 87/174/11 85/175/11 75/176/11
f 134/162/14 177/177/14 294/178/14 283/163/14
f 143/179/11 147/180/11 158/181/11 157/182/11
f 130/183/10 146/184/10 170/185/10 169/186/10
f 167/187/9 168/188/9 143/189/9 144/190/9
f 93/191/11 81/157/11 83/160/11 94/192/11
f 112/193/9 103/194/9 81/195/9 93/196/9
f 80/197/15 114/198/15 113/199/15 77/200/15
f 92/201/10 91/202/10 88/150/10 86/149/10
f 118/147/9 95/146/9 82/203/9 119/204/9
f 101/205/16 105/206/16 272/207/16 264/208/16
f 386/209/17 231/210/17 276/211/17 380/212/17
f 331/213/10 332/214/10 214/215/10 213/216/10
f 87/174/11 89/217/11 90/218/11 85/175/11
f 84/168/10 82/167/10 95/219/10 96/220/10
f 116/156/9 88/155/9 91/221/9 117/222/9
f 430/223/9 413/224/9 216/225/9 333/226/9
f 343/227/11 93/191/11 94/192/11 347/228/11
f 386/229/18 122/230/18 98/231/18 367/232/18
f 392/233/9 373/234/9 249/235/9 338/236/9
f 119/204/9 82/203/9 77/237/9 113/238/9
f 175/239/9 152/240/9 156/241/9 179/242/9
f 87/243/9 110/244/9 111/245/9 89/246/9
f 408/247/18 414/248/18 215/249/18 177/250/18
f 428/251/18 201/252/18 194/253/18 401/254/18
f 419/255/18 417/164/18 283/163/18 292/256/18
f 107/257/15 108/258/15 76/259/15 74/260/15
f 73/261/9 109/262/9 110/244/9 87/243/9
f 81/195/9 103/194/9 107/263/9 74/264/9
f 144/190/9 143/189/9 157/265/9 155/266/9
f 395/267/15 396/268/15 108/258/15 107/257/15
f 402/269/9 411/270/9 103/194/9 112/193/9
f 405/271/9 155/266/9 178/272/9 407/273/9
f 132/274/18 145/275/18 166/276/18 160/277/18
f 155/266/9 157/265/9 172/278/9 178/272/9
f 362/279/15 233/280/15 232/281/15 361/282/15
f 363/283/9 115/153/9 116/156/9 364/284/9
f 177/177/19 215/285/19 304/286/19 294/178/19
f 363/287/13 358/288/13 120/170/13 115/169/13
f 359/289/18 142/290/18 150/291/18 389/292/18
f 357/293/9 119/204/9 113/238/9 361/294/9
f 368/295/9 118/147/9 119/204/9 357/293/9
f 390/296/20 162/297/20 298/298/20 384/299/20
f 364/284/9 116/156/9 117/222/9 366/300/9
f 383/301/18 278/302/18 279/303/18 381/304/18
f 204/305/18 128/306/18 123/307/18 261/308/18
f 391/309/18 374/310/18 212/311/18 341/312/18
f 168/313/11 164/314/11 147/180/11 143/179/11
f 161/315/18 165/316/18 320/317/18 142/290/18
f 403/318/18 132/274/18 160/277/18 426/319/18
f 394/320/18 352/321/18 238/322/18 367/232/18
f 398/323/9 191/324/9 193/325/9 400/326/9
f 404/327/9 144/190/9 155/266/9 405/271/9
f 142/290/18 320/317/18 159/328/18 150/291/18
f 397/329/9 190/330/9 191/324/9 398/323/9
f 411/270/9 198/331/9 188/332/9 395/333/9
f 423/334/18 408/247/18 177/250/18 134/335/18
f 388/336/18 377/337/18 185/338/18 139/339/18
f 370/340/9 245/341/9 126/342/9 360/343/9
f 258/344/18 242/345/18 125/346/18 124/347/18
f 261/308/18 123/307/18 131/348/18 163/349/18
f 334/350/9 117/222/9 91/221/9 331/351/9
f 260/352/18 263/353/18 255/354/18 149/355/18
f 258/344/18 151/356/18 328/357/18 256/358/18
f 328/359/21 151/360/21 280/361/21 319/362/21
f 247/363/18 253/364/18 257/365/18 241/366/18
f 432/367/9 416/368/9 227/369/9 350/370/9
f 393/371/9 368/295/9 239/372/9 351/373/9
f 344/374/10 345/375/10 96/220/10 95/219/10
f 431/376/18 415/377/18 225/378/18 356/379/18
f 323/380/22 328/359/22 319/362/22 311/381/22
f 329/382/11 330/383/11 90/218/11 89/217/11
f 139/384/23 185/385/23 300/386/23 286/387/23
f 148/388/18 154/389/18 145/275/18 132/274/18
f 75/390/13 104/391/13 109/392/13 73/393/13
f 390/394/18 161/315/18 142/290/18 359/289/18
f 369/395/9 243/396/9 246/397/9 371/398/9
f 183/399/9 181/400/9 220/401/9 222/402/9
f 348/403/9 343/404/9 219/405/9 226/406/9
f 429/407/18 399/408/18 101/409/18 342/410/18
f 255/411/24 207/412/24 305/413/24 318/414/24
f 378/415/18 387/416/18 135/417/18 174/418/18
f 412/419/13 199/420/13 190/421/13 397/422/13
f 410/423/9 406/424/9 205/425/9 209/426/9
f 385/427/25 121/428/25 266/429/25 379/430/25
f 259/431/18 162/432/18 133/433/18 124/347/18
f 217/434/9 213/435/9 175/239/9 179/242/9
f 175/436/10 176/437/10 153/438/10 152/439/10
f 162/297/26 253/440/26 316/441/26 298/298/26
f 123/307/18 260/352/18 149/355/18 131/348/18
f 180/442/9 168/188/9 167/187/9 187/443/9
f 129/444/9 130/445/9 169/446/9 171/447/9
f 157/182/11 158/181/11 173/448/11 172/449/11
f 216/225/9 178/272/9 172/278/9 210/450/9
f 156/241/9 152/240/9 130/445/9 129/444/9
f 168/313/11 180/451/11 184/452/11 164/314/11
f 166/453/27 145/454/27 270/455/27 274/456/27
f 225/457/28 186/458/28 302/459/28 307/460/28
f 257/365/18 253/364/18 162/432/18 259/431/18
f 208/461/29 254/462/29 317/463/29 308/464/29
f 124/347/18 133/433/18 151/356/18 258/344/18
f 98/465/30 122/466/30 267/467/30 269/468/30
f 149/469/31 255/411/31 318/414/31 293/470/31
f 210/471/11 172/449/11 173/448/11 211/472/11
f 169/446/9 181/400/9 183/399/9 171/447/9
f 187/443/9 226/406/9 219/405/9 180/442/9
f 372/473/9 248/474/9 245/341/9 370/340/9
f 410/423/9 416/368/9 226/406/9 187/443/9
f 196/475/18 207/476/18 255/354/18 263/353/18
f 240/477/18 256/358/18 328/357/18 323/478/18
f 377/337/18 375/479/18 224/480/18 185/338/18
f 373/234/9 217/434/9 179/242/9 371/398/9
f 356/481/32 225/457/32 307/460/32 354/482/32
f 221/483/10 220/484/10 181/485/10 182/486/10
f 374/310/18 378/415/18 174/418/18 212/311/18
f 106/487/33 102/488/33 265/489/33 273/490/33
f 409/491/18 424/492/18 138/493/18 186/494/18
f 254/462/34 163/495/34 299/496/34 317/463/34
f 152/439/10 153/438/10 146/184/10 130/183/10
f 372/473/9 183/399/9 222/402/9 376/497/9
f 121/428/35 97/498/35 268/499/35 266/429/35
f 176/437/10 175/436/10 213/216/10 214/215/10
f 253/440/36 247/500/36 291/501/36 316/441/36
f 415/377/18 409/491/18 186/494/18 225/378/18
f 413/224/9 407/273/9 178/272/9 216/225/9
f 399/408/18 427/502/18 105/503/18 101/409/18
f 365/504/18 97/505/18 121/506/18 385/507/18
f 425/508/18 148/388/18 132/274/18 403/318/18
f 406/424/9 167/187/9 144/190/9 404/327/9
f 160/509/37 166/453/37 274/456/37 296/510/37
f 180/451/11 219/511/11 223/512/11 184/452/11
f 333/226/9 216/225/9 210/450/9 329/513/9
f 360/343/9 126/342/9 243/396/9 369/395/9
f 163/349/18 254/514/18 262/515/18 261/308/18
f 185/385/38 224/516/38 306/517/38 300/386/38
f 154/518/39 148/519/39 292/256/39 271/520/39
f 169/186/10 170/185/10 182/486/10 181/485/10
f 426/521/40 160/509/40 296/510/40 420/522/40
f 212/523/41 174/524/41 303/525/41 288/526/41
f 261/308/18 262/515/18 197/527/18 204/305/18
f 150/528/42 159/529/42 295/530/42 278/302/42
f 254/514/18 208/531/18 197/527/18 262/515/18
f 355/532/43 98/465/43 269/468/43 353/533/43
f 124/347/18 125/346/18 244/534/18 259/431/18
f 242/345/18 258/344/18 256/358/18 240/477/18
f 128/306/18 202/535/18 260/352/18 123/307/18
f 241/366/18 257/365/18 259/431/18 244/534/18
f 202/535/18 196/475/18 263/353/18 260/352/18
f 341/536/44 212/523/44 288/526/44 339/537/44
f 283/163/18 294/178/18 271/520/18 292/256/18
f 302/459/18 285/538/18 296/510/18 274/456/18
f 418/539/18 284/540/18 299/496/18 420/522/18
f 382/541/18 286/387/18 297/542/18 384/299/18
f 286/387/18 300/386/18 301/543/18 297/542/18
f 317/463/18 314/544/18 309/545/18 308/464/18
f 311/381/18 319/362/18 312/546/18 290/547/18
f 313/548/18 287/549/18 298/298/18 316/441/18
f 316/441/18 291/501/18 289/550/18 313/548/18
f 315/551/18 318/414/18 305/413/18 310/552/18
f 318/414/18 315/551/18 282/553/18 293/470/18
f 303/525/18 279/303/18 278/302/18 295/530/18
f 284/540/18 314/544/18 317/463/18 299/496/18
f 312/546/18 319/362/18 280/361/18 281/554/18
f 174/524/45 135/555/45 279/303/45 303/525/45
f 186/458/46 138/556/46 285/538/46 302/459/46
f 427/557/47 200/558/47 99/559/47 421/560/47
f 320/561/48 165/562/48 301/543/48 277/563/48
f 389/564/49 150/528/49 278/302/49 383/301/49
f 342/565/50 101/205/50 264/208/50 340/566/50
f 324/567/51 250/568/51 290/547/51 312/546/51
f 145/454/52 154/518/52 271/520/52 270/455/52
f 425/569/53 149/469/53 293/470/53 419/255/53
f 159/529/54 320/561/54 277/563/54 295/530/54
f 251/570/55 325/571/55 313/548/55 289/550/55
f 141/572/56 326/573/56 314/544/56 284/540/56
f 327/574/57 137/575/57 282/553/57 315/551/57
f 428/576/58 106/487/58 273/490/58 422/577/58
f 136/578/59 324/567/59 312/546/59 281/554/59
f 326/573/60 322/579/60 309/545/60 314/544/60
f 387/580/61 136/578/61 281/554/61 381/304/61
f 321/581/62 327/574/62 315/551/62 310/552/62
f 424/582/63 141/572/63 284/540/63 418/539/63
f 325/571/64 140/583/64 287/549/64 313/548/64
f 388/584/65 139/384/65 286/387/65 382/541/65
f 165/562/66 161/585/66 297/542/66 301/543/66
f 215/285/67 342/565/67 340/566/67 304/286/67
f 97/498/68 341/536/68 339/537/68 268/499/68
f 111/245/9 333/226/9 329/513/9 89/246/9
f 414/248/18 429/407/18 342/410/18 215/249/18
f 210/471/11 211/472/11 330/383/11 329/382/11
f 217/434/9 334/350/9 331/351/9 213/435/9
f 365/504/18 391/309/18 341/312/18 97/505/18
f 366/300/9 392/233/9 338/236/9 237/586/9
f 400/326/9 430/223/9 333/226/9 111/245/9
f 91/202/10 92/201/10 332/214/10 331/213/10
f 224/516/69 355/532/69 353/533/69 306/517/69
f 102/488/70 356/481/70 354/482/70 265/489/70
f 112/193/9 93/196/9 343/404/9 348/403/9
f 401/254/18 431/376/18 356/379/18 102/587/18
f 220/484/10 221/483/10 345/375/10 344/374/10
f 376/497/9 393/371/9 351/373/9 252/588/9
f 402/269/9 432/367/9 350/370/9 195/589/9
f 375/479/18 251/590/18 352/321/18 394/320/18
f 219/511/11 343/227/11 347/228/11 223/512/11
f 220/401/9 344/145/9 346/148/9 222/402/9
f 224/480/18 375/479/18 394/320/18 355/591/18
f 222/402/9 346/148/9 393/371/9 376/497/9
f 117/222/9 334/350/9 392/233/9 366/300/9
f 236/592/18 337/593/18 391/309/18 365/504/18
f 140/583/71 388/584/71 382/541/71 287/549/71
f 135/555/72 387/580/72 381/304/72 279/303/72
f 151/360/73 389/564/73 383/301/73 280/361/73
f 287/549/18 382/541/18 384/299/18 298/298/18
f 129/444/9 360/343/9 369/395/9 156/241/9
f 236/592/18 365/504/18 385/507/18 230/594/18
f 248/474/9 372/473/9 376/497/9 252/588/9
f 250/595/18 324/596/18 378/415/18 374/310/18
f 249/235/9 373/234/9 371/398/9 246/397/9
f 325/597/18 251/590/18 375/479/18 377/337/18
f 183/399/9 372/473/9 370/340/9 171/447/9
f 230/598/74 385/427/74 379/430/74 275/599/74
f 324/596/18 136/600/18 387/416/18 378/415/18
f 156/241/9 369/395/9 371/398/9 179/242/9
f 162/432/18 390/394/18 359/289/18 133/433/18
f 346/148/9 118/147/9 368/295/9 393/371/9
f 171/447/9 370/340/9 360/343/9 129/444/9
f 140/601/18 325/597/18 377/337/18 388/336/18
f 355/591/18 394/320/18 367/232/18 98/231/18
f 337/593/18 250/595/18 374/310/18 391/309/18
f 280/361/18 383/301/18 381/304/18 281/554/18
f 235/602/9 364/284/9 366/300/9 237/586/9
f 161/585/75 390/296/75 384/299/75 297/542/75
f 239/372/9 368/295/9 357/293/9 228/603/9
f 228/603/9 357/293/9 361/294/9 232/604/9
f 133/433/18 359/289/18 389/292/18 151/356/18
f 234/605/13 229/606/13 358/288/13 363/287/13
f 234/607/9 363/283/9 364/284/9 235/602/9
f 114/198/15 362/279/15 361/282/15 113/199/15
f 334/350/9 217/434/9 373/234/9 392/233/9
f 231/608/18 386/229/18 367/232/18 238/322/18
f 122/466/76 386/209/76 380/212/76 267/467/76
f 112/193/9 348/403/9 432/367/9 402/269/9
f 194/253/18 349/609/18 431/376/18 401/254/18
f 193/325/9 335/610/9 430/223/9 400/326/9
f 321/611/18 336/612/18 429/407/18 414/248/18
f 138/556/77 424/582/77 418/539/77 285/538/77
f 201/613/78 428/576/78 422/577/78 100/614/78
f 148/519/79 425/569/79 419/255/79 292/256/79
f 105/206/80 427/557/80 421/560/80 272/207/80
f 285/538/18 418/539/18 420/522/18 296/510/18
f 163/495/81 426/521/81 420/522/81 299/496/81
f 205/425/9 406/424/9 404/327/9 127/615/9
f 149/355/18 425/508/18 403/318/18 131/348/18
f 192/616/18 200/617/18 427/502/18 399/408/18
f 218/618/9 206/619/9 407/273/9 413/224/9
f 322/620/18 326/621/18 409/491/18 415/377/18
f 326/621/18 141/622/18 424/492/18 409/491/18
f 209/426/9 227/369/9 416/368/9 410/423/9
f 187/443/9 167/187/9 406/424/9 410/423/9
f 104/391/13 412/419/13 397/422/13 109/392/13
f 336/612/18 192/616/18 399/408/18 429/407/18
f 349/609/18 322/620/18 415/377/18 431/376/18
f 348/403/9 226/406/9 416/368/9 432/367/9
f 137/623/18 327/624/18 408/247/18 423/334/18
f 103/194/9 411/270/9 395/333/9 107/263/9
f 109/262/9 397/329/9 398/323/9 110/244/9
f 127/615/9 404/327/9 405/271/9 203/625/9
f 110/244/9 398/323/9 400/326/9 111/245/9
f 131/348/18 403/318/18 426/319/18 163/349/18
f 203/625/9 405/271/9 407/273/9 206/619/9
f 195/589/9 198/331/9 411/270/9 402/269/9
f 188/626/15 189/627/15 396/268/15 395/267/15
f 293/470/18 282/553/18 417/164/18 419/255/18
f 106/628/18 428/251/18 401/254/18 102/587/18
f 327/624/18 321/611/18 414/248/18 408/247/18
f 335/610/9 218/618/9 413/224/9 430/223/9
f 137/575/82 423/161/82 417/164/82 282/553/82
f 442/629/18 469/630/18 470/631/18 441/632/18
f 502/633/9 449/634/9 450/635/9 501/636/9
f 504/637/18 495/638/18 496/639/18 503/640/18
f 498/641/18 459/642/18 460/643/18 497/644/18
f 444/645/13 471/646/13 472/647/13 443/648/13
f 478/649/18 461/650/18 462/651/18 477/652/18
f 474/653/15 475/654/15 476/655/15 473/656/15
f 466/657/18 439/658/18 440/659/18 465/660/18
f 468/661/9 481/662/9 482/663/9 467/664/9
f 481/662/9 472/665/9 471/666/9 482/663/9
f 446/667/9 476/668/9 475/669/9 445/670/9
f 438/671/18 455/672/18 456/673/18 437/674/18
f 458/675/9 451/676/9 452/677/9 457/678/9
f 506/679/18 493/680/18 494/681/18 505/682/18
f 436/683/9 458/675/9 457/678/9 435/684/9
f 508/685/9 447/686/9 448/687/9 507/688/9
f 445/670/9 463/689/9 464/690/9 446/667/9
f 449/634/9 452/677/9 451/676/9 450/635/9
f 447/686/9 479/691/9 480/692/9 448/687/9
f 479/691/9 453/693/9 454/694/9 480/692/9
f 500/695/18 462/651/18 461/650/18 499/696/18
f 455/672/18 460/643/18 459/642/18 456/673/18
f 486/697/18 487/698/18 488/699/18 485/700/18
f 453/693/9 436/683/9 435/684/9 454/694/9
f 477/652/18 438/671/18 437/674/18 478/649/18
f 490/701/18 491/702/18 492/703/18 489/704/18
f 433/705/83 440/706/83 439/707/83 434/708/83
f 441/709/84 484/710/84 483/711/84 442/712/84
f 485/700/85 494/713/85 493/714/85 486/697/85
f 495/715/86 490/701/86 489/704/86 496/716/86
f 497/717/87 488/699/87 487/698/87 498/718/87
f 499/719/88 492/703/88 491/702/88 500/720/88
f 467/664/9 502/633/9 501/636/9 468/661/9
f 469/630/18 504/637/18 503/640/18 470/631/18
f 465/660/18 506/679/18 505/682/18 466/657/18
f 463/689/9 508/685/9 507/688/9 464/690/9
f 439/707/83 201/613/83 100/614/83 434/708/83
f 231/210/83 440/706/83 433/705/83 276/211/83
f 126/342/9 435/684/9 457/678/9 243/396/9
f 436/683/9 127/615/9 203/625/9 458/675/9
f 245/341/9 454/694/9 435/684/9 126/342/9
f 453/693/9 205/425/9 127/615/9 436/683/9
f 125/346/18 437/674/18 456/673/18 244/534/18
f 438/671/18 128/306/18 204/305/18 455/672/18
f 242/345/18 478/649/18 437/674/18 125/346/18
f 477/652/18 202/535/18 128/306/18 438/671/18
f 466/657/18 194/253/18 201/252/18 439/658/18
f 238/322/18 465/660/18 440/659/18 231/608/18
f 469/630/18 442/629/18 200/617/18 192/616/18
f 441/709/84 230/598/84 275/599/84 484/710/84
f 200/558/84 442/712/84 483/711/84 99/559/84
f 236/592/18 230/594/18 441/632/18 470/631/18
f 199/420/13 443/648/13 472/647/13 190/421/13
f 444/645/13 229/606/13 234/605/13 471/646/13
f 446/667/9 228/603/9 232/604/9 476/668/9
f 198/331/9 445/670/9 475/669/9 188/332/9
f 239/372/9 228/603/9 446/667/9 464/690/9
f 463/689/9 445/670/9 198/331/9 195/589/9
f 252/588/9 351/373/9 507/688/9 448/687/9
f 447/686/9 227/369/9 209/426/9 479/691/9
f 447/686/9 508/685/9 350/370/9 227/369/9
f 252/588/9 448/687/9 480/692/9 248/474/9
f 218/618/9 335/610/9 501/636/9 450/635/9
f 449/634/9 502/633/9 338/236/9 249/235/9
f 218/618/9 450/635/9 451/676/9 206/619/9
f 449/634/9 249/235/9 246/397/9 452/677/9
f 243/396/9 457/678/9 452/677/9 246/397/9
f 458/675/9 203/625/9 206/619/9 451/676/9
f 479/691/9 209/426/9 205/425/9 453/693/9
f 248/474/9 480/692/9 454/694/9 245/341/9
f 244/534/18 456/673/18 459/642/18 241/366/18
f 455/672/18 204/305/18 197/527/18 460/643/18
f 498/641/18 247/363/18 241/366/18 459/642/18
f 208/531/18 497/644/18 460/643/18 197/527/18
f 478/649/18 242/345/18 240/477/18 461/650/18
f 500/695/18 207/476/18 196/475/18 462/651/18
f 202/535/18 477/652/18 462/651/18 196/475/18
f 323/478/18 499/696/18 461/650/18 240/477/18
f 508/685/9 463/689/9 195/589/9 350/370/9
f 351/373/9 239/372/9 464/690/9 507/688/9
f 506/679/18 465/660/18 238/322/18 352/321/18
f 349/609/18 194/253/18 466/657/18 505/682/18
f 237/586/9 467/664/9 482/663/9 235/602/9
f 468/661/9 193/325/9 191/324/9 481/662/9
f 502/633/9 467/664/9 237/586/9 338/236/9
f 335/610/9 193/325/9 468/661/9 501/636/9
f 504/637/18 469/630/18 192/616/18 336/612/18
f 337/593/18 236/592/18 470/631/18 503/640/18
f 472/665/9 481/662/9 191/324/9 190/330/9
f 234/607/9 235/602/9 482/663/9 471/666/9
f 474/653/15 189/627/15 188/626/15 475/654/15
f 233/280/15 473/656/15 476/655/15 232/281/15
f 309/545/18 485/700/18 488/699/18 308/464/18
f 486/697/18 289/550/18 291/501/18 487/698/18
f 322/579/89 494/713/89 485/700/89 309/545/89
f 493/714/90 251/570/90 289/550/90 486/697/90
f 497/717/91 208/461/91 308/464/91 488/699/91
f 247/500/92 498/718/92 487/698/92 291/501/92
f 290/547/18 489/704/18 492/703/18 311/381/18
f 250/568/93 496/716/93 489/704/93 290/547/93
f 490/701/18 310/552/18 305/413/18 491/702/18
f 495/715/94 321/581/94 310/552/94 490/701/94
f 499/719/95 323/380/95 311/381/95 492/703/95
f 207/412/96 500/720/96 491/702/96 305/413/96
f 493/680/18 506/679/18 352/321/18 251/590/18
f 322/620/18 349/609/18 505/682/18 494/681/18
f 495/638/18 504/637/18 336/612/18 321/611/18
f 250/595/18 337/593/18 503/640/18 496/639/18
f 92/721/97 86/722/97 520/723/97 523/724/97
f 84/725/97 96/726/97 509/727/97 515/728/97
f 94/729/98 83/730/98 517/731/98 524/732/98
f 114/733/99 80/734/99 516/735/99 529/736/99
f 104/737/100 75/738/100 521/739/100 528/740/100
f 170/741/97 146/742/97 511/743/97 510/744/97
f 158/745/98 147/746/98 513/747/98 512/748/98
f 76/749/99 108/750/99 527/751/99 518/752/99
f 85/753/98 90/754/98 514/755/98 522/756/98
f 80/734/97 84/725/97 515/728/97 516/735/97
f 83/730/98 76/749/98 518/752/98 517/731/98
f 86/722/97 79/757/97 519/758/97 520/723/97
f 75/738/98 85/753/98 522/756/98 521/739/98
f 146/742/97 153/759/97 530/760/97 511/743/97
f 147/746/98 164/761/98 531/762/98 513/747/98
f 120/763/100 358/764/100 547/765/100 525/766/100
f 108/750/99 396/767/99 549/768/99 527/751/99
f 96/726/97 345/769/97 545/770/97 509/727/97
f 90/754/98 330/771/98 543/772/98 514/755/98
f 153/759/97 176/773/97 536/774/97 530/760/97
f 164/761/98 184/775/98 537/776/98 531/762/98
f 173/777/98 158/745/98 512/748/98 538/778/98
f 176/773/97 214/779/97 539/780/97 536/774/97
f 182/781/97 170/741/97 510/744/97 540/782/97
f 184/775/98 223/783/98 541/784/98 537/776/98
f 199/785/100 412/786/100 550/787/100 526/788/100
f 211/789/98 173/777/98 538/778/98 535/790/98
f 214/779/97 332/791/97 544/792/97 539/780/97
f 221/793/97 182/781/97 540/782/97 534/794/97
f 223/783/98 347/795/98 546/796/98 541/784/98
f 233/797/99 362/798/99 548/799/99 542/800/99
f 330/771/98 211/789/98 535/790/98 543/772/98
f 332/791/97 92/721/97 523/724/97 544/792/97
f 345/769/97 221/793/97 534/794/97 545/770/97
f 347/795/98 94/729/98 524/732/98 546/796/98
f 358/764/100 229/801/100 532/802/100 547/765/100
f 362/798/99 114/733/99 529/736/99 548/799/99
f 396/767/99 189/803/99 533/804/99 549/768/99
f 412/786/100 104/737/100 528/740/100 550/787/100
f 554/805/99 474/806/99 473/807/99 553/808/99
f 552/809/100 444/810/100 443/811/100 551/812/100
f 189/803/99 474/806/99 554/805/99 533/804/99
f 473/807/99 233/797/99 542/800/99 553/808/99
f 443/811/100 199/785/100 526/788/100 551/812/100
f 229/801/100 444/810/100 552/809/100 532/802/100
f 269/468/18 267/467/18 515/728/18 509/727/18
f 545/770/18 353/533/18 269/468/18 509/727/18
f 510/744/18 301/543/18 300/386/18 540/782/18
f 301/543/18 510/744/18 511/743/18 277/563/18
f 277/563/18 511/743/18 530/760/18 295/530/18
f 271/520/18 512/748/18 513/747/18 270/455/18
f 294/178/18 538/778/18 512/748/18 271/520/18
f 270/455/18 513/747/18 531/762/18 274/456/18
f 264/208/18 514/755/18 543/772/18 340/566/18
f 264/208/18 272/207/18 522/756/18 514/755/18
f 529/736/18 516/735/18 515/728/18 267/467/18
f 517/731/18 273/490/18 265/489/18 524/732/18
f 518/752/18 527/751/18 273/490/18 517/731/18
f 266/429/18 520/723/18 519/758/18 525/766/18
f 266/429/18 268/499/18 523/724/18 520/723/18
f 522/756/18 272/207/18 528/740/18 521/739/18
f 523/724/18 268/499/18 339/537/18 544/792/18
f 265/489/18 354/482/18 546/796/18 524/732/18
f 379/430/18 266/429/18 525/766/18 547/765/18
f 421/560/18 99/559/18 526/788/18 550/787/18
f 99/559/18 483/711/18 551/812/18 526/788/18
f 527/751/18 549/768/18 422/577/18 273/490/18
f 272/207/18 421/560/18 550/787/18 528/740/18
f 548/799/18 529/736/18 267/467/18 380/212/18
f 536/774/18 303/525/18 295/530/18 530/760/18
f 302/459/18 274/456/18 531/762/18 537/776/18
f 484/710/18 275/599/18 532/802/18 552/809/18
f 275/599/18 379/430/18 547/765/18 532/802/18
f 554/805/18 434/708/18 100/614/18 533/804/18
f 549/768/18 533/804/18 100/614/18 422/577/18
f 306/517/18 534/794/18 540/782/18 300/386/18
f 534/794/18 306/517/18 353/533/18 545/770/18
f 294/178/18 304/286/18 535/790/18 538/778/18
f 340/566/18 543/772/18 535/790/18 304/286/18
f 303/525/18 536/774/18 539/780/18 288/526/18
f 541/784/18 307/460/18 302/459/18 537/776/18
f 544/792/18 339/537/18 288/526/18 539/780/18
f 354/482/18 307/460/18 541/784/18 546/796/18
f 542/800/18 548/799/18 380/212/18 276/211/18
f 542/800/18 276/211/18 433/705/18 553/808/18
f 484/710/18 552/809/18 551/812/18 483/711/18
f 434/708/18 554/805/18 553/808/18 433/705/18
f 79/757/100 120/763/100 525/766/100 519/758/100
