# Blender 5.2.2 LTS
# www.blender.org
mtllib BrainPlatformCorner.mtl
o TriangleBorder
v -4.832586 -0.200000 2.332586
v -4.832586 0.000000 2.332586
v -0.167414 -0.200000 0.167414
v -0.167414 -0.200000 4.832586
v -4.832585 -0.200000 0.167414
v -0.167414 -0.000000 4.832586
v -0.167414 -0.000000 0.167414
v -4.832585 -0.000000 0.167414
v -2.332586 -0.200000 4.832586
v -2.332586 -0.000000 4.832586
v -4.832586 -0.181175 2.500000
v -4.832586 -0.200000 2.450835
v -4.667414 -0.200000 2.450586
v -4.667414 -0.181175 2.500000
v -5.000000 -0.181175 2.167414
v -4.952936 -0.200000 2.167414
v -4.952937 -0.200000 2.332586
v -5.000000 -0.181175 2.332586
v -4.667414 -0.181175 2.250000
v -4.700692 -0.200000 2.283278
v -4.797063 -0.200000 2.186908
v -4.750000 -0.181175 2.167414
v -5.000000 -0.018825 2.332586
v -4.952937 0.000000 2.332586
v -4.952936 0.000000 2.167414
v -5.000000 -0.018825 2.167414
v -4.667414 -0.018825 2.500000
v -4.667414 0.000000 2.450586
v -4.832586 0.000000 2.450835
v -4.832586 -0.018825 2.500000
v -4.700692 0.000000 2.283278
v -4.667414 -0.018825 2.250000
v -4.750000 -0.018825 2.167414
v -4.797063 0.000000 2.186908
v -4.741985 -0.200000 2.241985
v -4.708707 -0.181175 2.208707
v -4.741985 0.000000 2.241985
v -4.708707 -0.018825 2.208707
v -4.921406 -0.200000 2.450916
v -4.938880 -0.181175 2.500000
v -4.952937 -0.200000 2.419386
v -5.000000 -0.181175 2.438880
v -4.952937 0.000000 2.419386
v -5.000000 -0.018825 2.438880
v -4.921406 0.000000 2.450916
v -4.938880 -0.018825 2.500000
v -0.167414 -0.181175 0.000000
v -0.167414 -0.200000 0.047063
v -0.332586 -0.200000 0.047063
v -0.332586 -0.181175 0.000000
v -4.667413 -0.181175 0.000000
v -4.667413 -0.200000 0.047063
v -4.832585 -0.200000 0.047063
v -4.832585 -0.181175 0.000000
v -0.332586 -0.181175 5.000000
v -0.332586 -0.200000 4.952936
v -0.167414 -0.200000 4.952936
v -0.167414 -0.181175 5.000000
v 0.000000 -0.181175 4.832586
v -0.047063 -0.200000 4.832586
v -0.047063 -0.200000 4.667414
v 0.000000 -0.181175 4.667414
v 0.000000 -0.181175 0.332587
v -0.047063 -0.200000 0.332587
v -0.047063 -0.200000 0.167414
v 0.000000 -0.181175 0.167414
v -4.999999 -0.181175 0.167414
v -4.952936 -0.200000 0.167414
v -4.952936 -0.200000 0.332587
v -4.999999 -0.181175 0.332587
v -0.332587 -0.181175 0.250000
v -0.313092 -0.200000 0.202937
v -0.250000 -0.181175 0.332587
v -0.202937 -0.200000 0.313093
v -0.250000 -0.181175 4.667414
v -0.202937 -0.200000 4.686908
v -0.313092 -0.200000 4.797063
v -0.332587 -0.181175 4.750000
v -4.749999 -0.181175 0.332587
v -4.797062 -0.200000 0.313093
v -4.667413 -0.181175 0.250000
v -4.686907 -0.200000 0.202937
v 0.000000 -0.018825 0.167414
v -0.047063 -0.000000 0.167414
v -0.047063 -0.000000 0.332587
v 0.000000 -0.018825 0.332587
v -4.667413 -0.000000 0.047063
v -4.667413 -0.018825 0.000000
v -4.832585 -0.018825 0.000000
v -4.832585 -0.000000 0.047063
v -0.167414 -0.018825 5.000000
v -0.167414 -0.000000 4.952936
v -0.332586 -0.000000 4.952936
v -0.332586 -0.018825 5.000000
v -0.167414 -0.000000 0.047063
v -0.167414 -0.018825 0.000000
v -0.332586 -0.018825 0.000000
v -0.332586 -0.000000 0.047063
v -0.332587 -0.018825 4.750000
v -0.313092 -0.000000 4.797063
v -0.250000 -0.018825 4.667414
v -0.202937 -0.000000 4.686908
v -0.047063 -0.000000 4.832586
v 0.000000 -0.018825 4.832586
v 0.000000 -0.018825 4.667414
v -0.047063 -0.000000 4.667414
v -4.999999 -0.018825 0.332587
v -4.952936 -0.000000 0.332587
v -4.952936 -0.000000 0.167414
v -4.999999 -0.018825 0.167414
v -0.332587 -0.018825 0.250000
v -0.313092 -0.000000 0.202937
v -0.250000 -0.018825 0.332587
v -0.202937 -0.000000 0.313093
v -4.797062 -0.000000 0.313093
v -4.749999 -0.018825 0.332587
v -4.667413 -0.018825 0.250000
v -4.686907 -0.000000 0.202937
v -4.741984 -0.200000 0.258015
v -4.708706 -0.181175 0.291294
v -4.741984 -0.000000 0.258015
v -4.708706 -0.018825 0.291294
v -0.258015 -0.200000 4.741985
v -0.291293 -0.181175 4.708706
v -0.258015 -0.000000 4.741985
v -0.291293 -0.018825 4.708706
v -0.258015 -0.200000 0.258015
v -0.291293 -0.181175 0.291294
v -0.258015 -0.000000 0.258015
v -0.291293 -0.018825 0.291294
v -0.080614 -0.200000 0.047063
v -0.061119 -0.181175 0.000000
v -0.047063 -0.200000 0.080614
v 0.000000 -0.181175 0.061120
v -4.952936 -0.200000 0.080614
v -4.999999 -0.181175 0.061120
v -4.919385 -0.200000 0.047063
v -4.938879 -0.181175 0.000000
v -0.047063 -0.200000 4.919386
v 0.000000 -0.181175 4.938880
v -0.080614 -0.200000 4.952936
v -0.061119 -0.181175 5.000000
v -0.047063 -0.000000 0.080614
v 0.000000 -0.018825 0.061120
v -0.080614 -0.000000 0.047063
v -0.061119 -0.018825 0.000000
v -4.919385 -0.000000 0.047063
v -4.938879 -0.018825 0.000000
v -4.952936 -0.000000 0.080614
v -4.999999 -0.018825 0.061120
v -0.080614 -0.000000 4.952936
v -0.061119 -0.018825 5.000000
v -0.047063 -0.000000 4.919386
v 0.000000 -0.018825 4.938880
v -2.332586 -0.181175 5.000000
v -2.332586 -0.200000 4.952936
v -2.167413 -0.200000 4.952936
v -2.167413 -0.181175 5.000000
v -2.500000 -0.181175 4.667414
v -2.450586 -0.200000 4.667414
v -2.450835 -0.200000 4.832586
v -2.500000 -0.181175 4.832586
v -2.167413 -0.181175 4.750000
v -2.186908 -0.200000 4.797063
v -2.283278 -0.200000 4.700692
v -2.250000 -0.181175 4.667414
v -2.500000 -0.018825 4.832586
v -2.450835 -0.000000 4.832586
v -2.450586 -0.000000 4.667414
v -2.500000 -0.018825 4.667414
v -2.167413 -0.018825 5.000000
v -2.167413 -0.000000 4.952936
v -2.332586 -0.000000 4.952936
v -2.332586 -0.018825 5.000000
v -2.186908 -0.000000 4.797063
v -2.167413 -0.018825 4.750000
v -2.250000 -0.018825 4.667414
v -2.283278 -0.000000 4.700692
v -2.241985 -0.200000 4.741985
v -2.208706 -0.181175 4.708706
v -2.241985 -0.000000 4.741985
v -2.208706 -0.018825 4.708706
v -2.419386 -0.200000 4.952936
v -2.438880 -0.181175 5.000000
v -2.450916 -0.200000 4.921406
v -2.500000 -0.181175 4.938880
v -2.450916 -0.000000 4.921406
v -2.500000 -0.018825 4.938880
v -2.419386 -0.000000 4.952936
v -2.438880 -0.018825 5.000000
v -2.500000 -0.200000 0.047063
v -2.500000 -0.181175 0.000000
v -2.500000 -0.000000 0.047063
v -2.500000 -0.018825 0.000000
v -2.500000 -0.181175 0.250000
v -2.500000 -0.200000 0.202937
v -2.500000 -0.000000 0.202937
v -2.500000 -0.018825 0.250000
v -0.047063 -0.200000 2.500000
v 0.000000 -0.181175 2.500000
v -0.047063 -0.000000 2.500000
v 0.000000 -0.018825 2.500000
v -0.250000 -0.181175 2.500000
v -0.202937 -0.200000 2.500000
v -0.202937 -0.000000 2.500000
v -0.250000 -0.018825 2.500000
v -4.667414 -0.127058 2.500000
v -4.667414 -0.072942 2.500000
v -4.832586 -0.072942 2.500000
v -4.832586 -0.127058 2.500000
v -4.938880 -0.072942 2.500000
v -4.938880 -0.127058 2.500000
v -2.500000 -0.127058 4.667414
v -2.500000 -0.072942 4.667414
v -5.000000 -0.127058 2.332586
v -5.000000 -0.072942 2.332586
v -5.000000 -0.072942 2.167414
v -5.000000 -0.127058 2.167414
v -4.999999 -0.072942 0.332587
v -4.999999 -0.127058 0.332587
v -5.000000 -0.127058 2.438880
v -5.000000 -0.072942 2.438880
v -0.332586 -0.127058 0.000000
v -0.332586 -0.072942 0.000000
v -0.167414 -0.072942 0.000000
v -0.167414 -0.127058 0.000000
v -0.061119 -0.072942 0.000000
v -0.061119 -0.127058 0.000000
v -4.667413 -0.127058 0.000000
v -4.667413 -0.072942 0.000000
v -4.832585 -0.127058 0.000000
v -4.832585 -0.072942 0.000000
v -4.938879 -0.127058 0.000000
v -4.938879 -0.072942 0.000000
v -0.167414 -0.127058 5.000000
v -0.167414 -0.072942 5.000000
v -0.332586 -0.072942 5.000000
v -0.332586 -0.127058 5.000000
v -2.167413 -0.072942 5.000000
v -2.167413 -0.127058 5.000000
v -0.061119 -0.127058 5.000000
v -0.061119 -0.072942 5.000000
v 0.000000 -0.127058 4.667414
v 0.000000 -0.072942 4.667414
v 0.000000 -0.072942 4.832586
v 0.000000 -0.127058 4.832586
v 0.000000 -0.072942 4.938880
v 0.000000 -0.127058 4.938880
v 0.000000 -0.127058 0.332587
v 0.000000 -0.072942 0.332587
v 0.000000 -0.127058 0.167414
v 0.000000 -0.072942 0.167414
v 0.000000 -0.127058 0.061120
v 0.000000 -0.072942 0.061120
v -4.999999 -0.072942 0.061120
v -4.999999 -0.127058 0.061120
v -4.999999 -0.127058 0.167414
v -4.999999 -0.072942 0.167414
v -2.332586 -0.072942 5.000000
v -2.332586 -0.127058 5.000000
v -2.438880 -0.072942 5.000000
v -2.438880 -0.127058 5.000000
v -2.500000 -0.127058 4.832586
v -2.500000 -0.072942 4.832586
v -2.500000 -0.127058 4.938880
v -2.500000 -0.072942 4.938880
v -2.500000 -0.127058 0.000000
v -2.500000 -0.072942 0.000000
v 0.000000 -0.127058 2.500000
v 0.000000 -0.072942 2.500000
vn 0.2626 -0.9285 -0.2626
vn 0.2626 0.9285 -0.2626
vn 0.0003 -0.9342 0.3568
vn 0.0003 0.9342 0.3568
vn -0.3714 -0.9285 -0.0000
vn -0.3714 0.9285 -0.0000
vn -0.2626 0.9285 0.2626
vn -0.2626 -0.9285 0.2626
vn 0.0001 -0.9338 0.3579
vn 0.0001 0.9338 0.3579
vn -0.2626 -0.9285 -0.2626
vn 0.2626 -0.9285 0.2626
vn -0.2626 0.9285 -0.2626
vn 0.2626 0.9285 0.2626
vn 0.3714 0.9285 -0.0000
vn 0.3714 -0.9285 -0.0000
vn -0.0000 -0.9285 0.3714
vn -0.0000 0.9285 0.3714
vn -0.0000 0.9285 -0.3714
vn -0.0000 -0.9285 -0.3714
vn -0.3568 -0.9342 -0.0003
vn -0.3568 0.9342 -0.0003
vn -0.3579 -0.9338 -0.0001
vn -0.3579 0.9338 -0.0001
vn -0.3354 0.8804 0.3354
vn -0.3354 -0.8804 0.3354
vn -0.0000 -1.0000 -0.0000
vn -0.0000 -0.0000 1.0000
vn -0.7071 -0.0000 0.7071
vn -1.0000 -0.0000 -0.0000
vn 0.7071 -0.0000 -0.7071
vn 1.0000 -0.0000 -0.0000
vn -0.0000 1.0000 -0.0000
vn -0.0000 -0.0000 -1.0000
vn -0.7071 -0.0000 -0.7071
vn 0.7071 -0.0000 0.7071
vt 0.155187 0.388406
vt 0.153865 0.387049
vt 0.155052 0.385896
vt 0.156371 0.387261
vt 0.450144 0.121151
vt 0.451461 0.119799
vt 0.453103 0.120460
vt 0.451332 0.122299
vt 0.159424 0.380582
vt 0.154014 0.380427
vt 0.154108 0.378695
vt 0.159484 0.378876
vt 0.448958 0.129153
vt 0.454394 0.129002
vt 0.454454 0.130716
vt 0.449053 0.130898
vt 0.163149 0.389772
vt 0.163213 0.384449
vt 0.164847 0.384459
vt 0.164783 0.389789
vt 0.458196 0.125123
vt 0.458133 0.119784
vt 0.459770 0.119767
vt 0.459835 0.125113
vt 0.156502 0.389752
vt 0.158128 0.389094
vt 0.448819 0.122510
vt 0.450007 0.123667
vt 0.457235 0.128914
vt 0.458212 0.127887
vt 0.459825 0.128549
vt 0.457890 0.130565
vt 0.163228 0.381694
vt 0.162254 0.380671
vt 0.162907 0.379026
vt 0.164835 0.381035
vt 0.011186 0.449270
vt 0.012509 0.450615
vt 0.011812 0.452245
vt 0.010006 0.450430
vt 0.011809 0.306000
vt 0.010487 0.307331
vt 0.008856 0.306647
vt 0.010646 0.304837
vt 0.154686 0.450096
vt 0.156016 0.448766
vt 0.157652 0.449459
vt 0.155844 0.451263
vt 0.306773 0.203505
vt 0.308104 0.204833
vt 0.307426 0.206472
vt 0.305606 0.204674
vt 0.306246 0.060146
vt 0.304924 0.061494
vt 0.303281 0.060818
vt 0.305067 0.058985
vt 0.449650 0.059398
vt 0.448301 0.058099
vt 0.448969 0.056464
vt 0.450798 0.058233
vt 0.298194 0.056070
vt 0.298193 0.061450
vt 0.296542 0.061449
vt 0.296542 0.056060
vt 0.003134 0.447956
vt 0.003127 0.453339
vt 0.001476 0.453347
vt 0.001483 0.447955
vt 0.013072 0.298005
vt 0.007721 0.298015
vt 0.007706 0.296372
vt 0.013070 0.296361
vt 0.302673 0.211524
vt 0.308043 0.211539
vt 0.308041 0.213185
vt 0.302657 0.213176
vt 0.457642 0.060610
vt 0.457597 0.055262
vt 0.459239 0.055239
vt 0.459281 0.060596
vt 0.162658 0.454239
vt 0.162701 0.448883
vt 0.164340 0.448896
vt 0.164304 0.454261
vt 0.302035 0.050496
vt 0.307428 0.050431
vt 0.307448 0.052082
vt 0.302067 0.052148
vt 0.448337 0.049725
vt 0.453723 0.049741
vt 0.453706 0.051391
vt 0.448334 0.051376
vt 0.297119 0.207669
vt 0.297073 0.202282
vt 0.298722 0.202268
vt 0.298768 0.207645
vt 0.153374 0.458136
vt 0.158761 0.458121
vt 0.158778 0.459774
vt 0.153378 0.459790
vt 0.003831 0.301878
vt 0.003782 0.307236
vt 0.002136 0.307221
vt 0.002187 0.301853
vt 0.006997 0.457265
vt 0.012378 0.457338
vt 0.012357 0.458988
vt 0.006964 0.458919
vt 0.082786 0.458187
vt 0.082777 0.459835
vt 0.377829 0.051310
vt 0.377820 0.049663
vt 0.082823 0.451462
vt 0.153338 0.451401
vt 0.154009 0.453038
vt 0.082815 0.453122
vt 0.003122 0.377536
vt 0.001476 0.377528
vt 0.298103 0.131882
vt 0.296456 0.131888
vt 0.009836 0.377566
vt 0.009865 0.447920
vt 0.008222 0.448595
vt 0.008178 0.377559
vt 0.303162 0.131863
vt 0.304821 0.131857
vt 0.377853 0.056372
vt 0.377861 0.058030
vt 0.450976 0.060718
vt 0.452594 0.060029
vt 0.013133 0.304673
vt 0.012457 0.303050
vt 0.305446 0.202172
vt 0.303810 0.202859
vt 0.307570 0.058803
vt 0.306875 0.057172
vt 0.003141 0.456127
vt 0.004212 0.457205
vt 0.003499 0.458811
vt 0.001525 0.456803
vt 0.299282 0.052205
vt 0.298211 0.053281
vt 0.296595 0.052603
vt 0.298572 0.050599
vt 0.161542 0.458087
vt 0.162619 0.457020
vt 0.164226 0.457708
vt 0.162239 0.459697
vt 0.457557 0.052487
vt 0.456482 0.051423
vt 0.457177 0.049817
vt 0.459160 0.051800
vt 0.298811 0.210429
vt 0.299891 0.211494
vt 0.299196 0.213105
vt 0.297204 0.211121
vt 0.004951 0.298044
vt 0.003875 0.299104
vt 0.002275 0.298414
vt 0.004261 0.296439
vt 0.073756 0.305972
vt 0.072414 0.304638
vt 0.073092 0.302995
vt 0.074921 0.304792
vt 0.368705 0.203531
vt 0.370050 0.202190
vt 0.371219 0.203365
vt 0.369867 0.204704
vt 0.077830 0.297917
vt 0.072457 0.297924
vt 0.072455 0.296278
vt 0.077837 0.296265
vt 0.367415 0.211533
vt 0.372763 0.211543
vt 0.372771 0.213185
vt 0.367414 0.213175
vt 0.081787 0.307252
vt 0.081695 0.301786
vt 0.083420 0.301745
vt 0.083538 0.307179
vt 0.376608 0.207695
vt 0.376705 0.202264
vt 0.378442 0.202336
vt 0.378322 0.207736
vt 0.075106 0.307315
vt 0.076278 0.306138
vt 0.367372 0.204863
vt 0.368047 0.206489
vt 0.375532 0.211529
vt 0.376550 0.210539
vt 0.378210 0.211178
vt 0.376212 0.213137
vt 0.081638 0.298925
vt 0.080614 0.297930
vt 0.081298 0.296313
vt 0.083307 0.298283
vt 0.159341 0.384386
vt 0.016312 0.195833
vt 0.014553 0.195833
vt 0.014553 0.190463
vt 0.016312 0.190463
vt 0.016312 0.187007
vt 0.014553 0.187007
vt 0.246130 0.078828
vt 0.247890 0.078828
vt 0.247890 0.178481
vt 0.246130 0.178481
vt 0.256046 0.736752
vt 0.257805 0.736752
vt 0.257805 0.742121
vt 0.256046 0.742121
vt 0.254287 0.801774
vt 0.252527 0.801774
vt 0.252527 0.742121
vt 0.254287 0.742121
vt 0.256046 0.733296
vt 0.257805 0.733296
vt 0.670542 0.556837
vt 0.665263 0.556837
vt 0.665263 0.554939
vt 0.670542 0.554939
vt 0.670542 0.667984
vt 0.665264 0.667984
vt 0.665263 0.553040
vt 0.670542 0.553040
vt 0.242612 0.203111
vt 0.247890 0.203111
vt 0.247890 0.262763
vt 0.242612 0.262763
vt 0.454312 0.125186
vt 0.046768 0.194793
vt 0.046768 0.193034
vt 0.049578 0.193034
vt 0.049578 0.194793
vt 0.007036 0.453355
vt 0.965730 0.647210
vt 0.963971 0.647210
vt 0.963971 0.641840
vt 0.965730 0.641840
vt 0.965730 0.638384
vt 0.963971 0.638384
vt 0.965730 0.717675
vt 0.965730 0.788140
vt 0.963971 0.788140
vt 0.963971 0.717675
vt 0.967489 0.788140
vt 0.969249 0.788140
vt 0.969249 0.793510
vt 0.967489 0.793510
vt 0.158765 0.454214
vt 0.965730 0.793510
vt 0.965730 0.796966
vt 0.963971 0.796966
vt 0.963971 0.793510
vt 0.007720 0.301903
vt 0.746868 0.159168
vt 0.748627 0.159168
vt 0.748627 0.164538
vt 0.746868 0.164538
vt 0.745108 0.224191
vt 0.743349 0.224191
vt 0.743349 0.164538
vt 0.745108 0.164538
vt 0.746868 0.155713
vt 0.748627 0.155713
vt 0.967490 0.627012
vt 0.969249 0.627012
vt 0.969249 0.632382
vt 0.967490 0.632382
vt 0.967490 0.635837
vt 0.969249 0.635837
vt 0.967490 0.556547
vt 0.967490 0.486081
vt 0.969249 0.486081
vt 0.969249 0.556547
vt 0.965730 0.486081
vt 0.963971 0.486081
vt 0.963971 0.480712
vt 0.965730 0.480712
vt 0.967490 0.480712
vt 0.967490 0.477256
vt 0.969249 0.477256
vt 0.969249 0.480712
vt 0.256046 0.810599
vt 0.256046 0.807144
vt 0.257805 0.807144
vt 0.257805 0.810600
vt 0.254287 0.807144
vt 0.252527 0.807144
vt 0.055696 0.185917
vt 0.055696 0.180639
vt 0.057595 0.180639
vt 0.057595 0.185917
vt 0.201710 0.913657
vt 0.201710 0.843192
vt 0.206988 0.843192
vt 0.206988 0.913657
vt 0.059494 0.180639
vt 0.059494 0.185917
vt 0.976365 0.229482
vt 0.976365 0.159016
vt 0.981643 0.159016
vt 0.981643 0.229482
vt 0.074947 0.183118
vt 0.074947 0.188396
vt 0.073049 0.188396
vt 0.073049 0.183118
vt 0.076846 0.183118
vt 0.076846 0.188396
vt 0.339289 0.064293
vt 0.344567 0.064293
vt 0.344567 0.123945
vt 0.339289 0.123945
vt 0.050158 0.183118
vt 0.050158 0.188396
vt 0.048260 0.188396
vt 0.048260 0.183118
vt 0.052057 0.183118
vt 0.052057 0.188396
vt 0.302102 0.056058
vt 0.453711 0.055289
vt 0.302671 0.207621
vt 0.083951 0.194793
vt 0.083951 0.193034
vt 0.086761 0.193034
vt 0.086761 0.194793
vt 0.094198 0.194073
vt 0.094198 0.195833
vt 0.091388 0.195833
vt 0.091388 0.194073
vt 0.081804 0.194073
vt 0.081804 0.195833
vt 0.078993 0.195833
vt 0.078993 0.194074
vt 0.077853 0.301827
vt 0.746868 0.224191
vt 0.748627 0.224191
vt 0.748627 0.229561
vt 0.746868 0.229561
vt 0.746868 0.233016
vt 0.748627 0.233016
vt 0.016312 0.254350
vt 0.014553 0.254350
vt 0.014553 0.248980
vt 0.016312 0.248980
vt 0.016312 0.257805
vt 0.014553 0.257805
vt 0.670542 0.671781
vt 0.665264 0.671781
vt 0.665264 0.669883
vt 0.670542 0.669883
vt 0.372785 0.207654
vt 0.096346 0.194793
vt 0.096346 0.193034
vt 0.099156 0.193034
vt 0.099156 0.194793
vt 0.201710 0.984122
vt 0.206988 0.984122
vt 0.976365 0.299947
vt 0.981643 0.299947
vt 0.963971 0.627012
vt 0.963971 0.556547
vt 0.965730 0.556547
vt 0.965730 0.627012
vt 0.969249 0.647210
vt 0.969249 0.717675
vt 0.967489 0.717675
vt 0.967490 0.647210
vt 0.096346 0.198312
vt 0.096346 0.196552
vt 0.099156 0.196552
vt 0.099156 0.198312
vt 0.019831 0.254350
vt 0.019831 0.257805
vt 0.018072 0.257805
vt 0.018072 0.254350
vt 0.018072 0.248980
vt 0.019831 0.248980
vt 0.743349 0.233016
vt 0.743349 0.229561
vt 0.745108 0.229561
vt 0.745108 0.233016
vt 0.081804 0.190555
vt 0.081804 0.192314
vt 0.078993 0.192314
vt 0.078993 0.190555
vt 0.094198 0.190555
vt 0.094198 0.192314
vt 0.091388 0.192314
vt 0.091388 0.190555
vt 0.083951 0.198312
vt 0.083951 0.196552
vt 0.086761 0.196552
vt 0.086761 0.198312
vt 0.256046 0.801774
vt 0.257805 0.801774
vt 0.252527 0.810600
vt 0.254287 0.810599
vt 0.963971 0.477256
vt 0.965730 0.477256
vt 0.963971 0.635837
vt 0.963971 0.632382
vt 0.965730 0.632382
vt 0.965730 0.635837
vt 0.743349 0.159168
vt 0.743349 0.155713
vt 0.745108 0.155713
vt 0.745108 0.159168
vt 0.969249 0.796966
vt 0.967489 0.796966
vt 0.969249 0.638384
vt 0.969249 0.641840
vt 0.967490 0.641840
vt 0.967490 0.638384
vt 0.046768 0.198312
vt 0.046768 0.196552
vt 0.049578 0.196552
vt 0.049578 0.198312
vt 0.252527 0.736752
vt 0.252527 0.733296
vt 0.254287 0.733296
vt 0.254287 0.736752
vt 0.242612 0.078828
vt 0.244371 0.078828
vt 0.244371 0.178481
vt 0.242612 0.178481
vt 0.019831 0.187007
vt 0.019831 0.190463
vt 0.018072 0.190463
vt 0.018072 0.187007
vt 0.019831 0.195833
vt 0.018072 0.195833
s 0
f 36/1/1 19/2/1 20/3/1 35/4/1
f 38/5/2 33/6/2 34/7/2 37/8/2
f 12/9/3 13/10/3 14/11/3 11/12/3
f 28/13/4 29/14/4 30/15/4 27/16/4
f 16/17/5 17/18/5 18/19/5 15/20/5
f 24/21/6 25/22/6 26/23/6 23/24/6
f 22/25/1 36/1/1 35/4/1 21/26/1
f 32/27/2 38/5/2 37/8/2 31/28/2
f 45/29/7 43/30/7 44/31/7 46/32/7
f 41/33/8 39/34/8 40/35/8 42/36/8
f 17/18/5 41/33/5 42/36/5 18/19/5
f 43/30/6 24/21/6 23/24/6 44/31/6
f 11/12/9 40/35/9 39/34/9 12/9/9
f 29/14/10 45/29/10 46/32/10 30/15/10
f 128/37/8 71/38/8 72/39/8 127/40/8
f 124/41/11 75/42/11 76/43/11 123/44/11
f 120/45/12 79/46/12 80/47/12 119/48/12
f 126/49/13 99/50/13 100/51/13 125/52/13
f 130/53/7 113/54/7 114/55/7 129/56/7
f 122/57/14 117/58/14 118/59/14 121/60/14
f 84/61/15 85/62/15 86/63/15 83/64/15
f 64/65/16 65/66/16 66/67/16 63/68/16
f 56/69/17 57/70/17 58/71/17 55/72/17
f 92/73/18 93/74/18 94/75/18 91/76/18
f 108/77/6 109/78/6 110/79/6 107/80/6
f 68/81/5 69/82/5 70/83/5 67/84/5
f 96/85/19 97/86/19 98/87/19 95/88/19
f 88/89/19 89/90/19 90/91/19 87/92/19
f 104/93/15 105/94/15 106/95/15 103/96/15
f 52/97/20 53/98/20 54/99/20 51/100/20
f 60/101/16 61/102/16 62/103/16 59/104/16
f 48/105/20 49/106/20 50/107/20 47/108/20
f 191/109/20 52/97/20 51/100/20 192/110/20
f 193/111/19 98/87/19 97/86/19 194/112/19
f 195/113/17 81/114/17 82/115/17 196/116/17
f 199/117/16 64/65/16 63/68/16 200/118/16
f 201/119/15 106/95/15 105/94/15 202/120/15
f 203/121/5 73/122/5 74/123/5 204/124/5
f 205/125/6 114/55/6 113/54/6 206/126/6
f 197/127/18 118/59/18 117/58/18 198/128/18
f 81/114/12 120/45/12 119/48/12 82/115/12
f 116/129/14 122/57/14 121/60/14 115/130/14
f 78/131/11 124/41/11 123/44/11 77/132/11
f 101/133/13 126/49/13 125/52/13 102/134/13
f 73/122/8 128/37/8 127/40/8 74/123/8
f 111/135/7 130/53/7 129/56/7 112/136/7
f 133/137/1 131/138/1 132/139/1 134/140/1
f 145/141/2 143/142/2 144/143/2 146/144/2
f 137/145/11 135/146/11 136/147/11 138/148/11
f 149/149/13 147/150/13 148/151/13 150/152/13
f 153/153/14 151/154/14 152/155/14 154/156/14
f 141/157/12 139/158/12 140/159/12 142/160/12
f 65/66/16 133/137/16 134/140/16 66/67/16
f 143/142/15 84/61/15 83/64/15 144/143/15
f 47/108/20 132/139/20 131/138/20 48/105/20
f 95/88/19 145/141/19 146/144/19 96/85/19
f 135/146/5 68/81/5 67/84/5 136/147/5
f 109/78/6 149/149/6 150/152/6 110/79/6
f 53/98/20 137/145/20 138/148/20 54/99/20
f 147/150/19 90/91/19 89/90/19 148/151/19
f 139/158/16 60/101/16 59/104/16 140/159/16
f 103/96/15 153/153/15 154/156/15 104/93/15
f 57/70/17 141/157/17 142/160/17 58/71/17
f 151/154/18 92/73/18 91/76/18 152/155/18
f 180/161/1 163/162/1 164/163/1 179/164/1
f 182/165/2 177/166/2 178/167/2 181/168/2
f 156/169/17 157/170/17 158/171/17 155/172/17
f 172/173/18 173/174/18 174/175/18 171/176/18
f 160/177/21 161/178/21 162/179/21 159/180/21
f 168/181/22 169/182/22 170/183/22 167/184/22
f 166/185/1 180/161/1 179/164/1 165/186/1
f 176/187/2 182/165/2 181/168/2 175/188/2
f 189/189/7 187/190/7 188/191/7 190/192/7
f 185/193/8 183/194/8 184/195/8 186/196/8
f 161/178/23 185/193/23 186/196/23 162/179/23
f 187/190/24 168/181/24 167/184/24 188/191/24
f 155/172/17 184/195/17 183/194/17 156/169/17
f 173/174/18 189/189/18 190/192/18 174/175/18
f 55/72/17 158/171/17 157/170/17 56/69/17
f 163/162/20 78/131/20 77/132/20 164/163/20
f 175/188/19 100/51/19 99/50/19 176/187/19
f 171/176/18 94/75/18 93/74/18 172/173/18
f 15/20/5 70/83/5 69/82/5 16/17/5
f 79/46/16 22/25/16 21/26/16 80/47/16
f 115/130/15 34/7/15 33/6/15 116/129/15
f 107/80/6 26/23/6 25/22/6 108/77/6
f 27/16/25 170/183/25 169/182/25 28/13/25
f 177/166/2 32/27/2 31/28/2 178/167/2
f 165/186/1 20/3/1 19/2/1 166/185/1
f 159/180/26 14/11/26 13/10/26 160/177/26
f 12/9/27 1/197/27 20/3/27 13/10/27
f 17/18/27 1/197/27 12/9/27 39/34/27 41/33/27
f 208/198/28 27/199/28 30/200/28 209/201/28
f 211/202/28 209/201/28 30/200/28 46/203/28
f 165/186/27 160/177/27 13/10/27 20/3/27
f 214/204/29 170/205/29 27/206/29 208/207/29
f 16/17/27 21/26/27 1/197/27 17/18/27
f 69/82/27 80/47/27 21/26/27 16/17/27
f 216/208/30 23/209/30 26/210/30 217/211/30
f 220/212/30 70/213/30 15/214/30 218/215/30
f 216/208/30 222/216/30 44/217/30 23/209/30
f 32/218/31 19/219/31 36/220/31 38/221/31
f 20/3/27 1/197/27 21/26/27 35/4/27
f 177/222/31 166/223/31 19/219/31 32/218/31
f 38/221/31 36/220/31 22/224/31 33/225/31
f 79/226/32 116/227/32 33/228/32 22/229/32
f 24/21/33 2/230/33 34/7/33 25/22/33
f 2/230/33 24/21/33 43/30/33 45/29/33 29/14/33
f 115/130/33 108/77/33 25/22/33 34/7/33
f 2/230/33 29/14/33 28/13/33 31/28/33
f 169/182/33 178/167/33 31/28/33 28/13/33
f 2/230/33 31/28/33 37/8/33 34/7/33
f 221/231/29 42/232/29 40/233/29 212/234/29
f 48/105/27 3/235/27 72/39/27 49/106/27
f 65/66/27 3/235/27 48/105/27 131/138/27 133/137/27
f 224/236/34 97/237/34 96/238/34 225/239/34
f 227/240/34 225/239/34 96/238/34 146/241/34
f 191/109/27 196/116/27 82/115/27 52/97/27
f 268/242/34 230/243/34 88/244/34 194/245/34
f 229/246/34 51/247/34 54/248/34 231/249/34
f 52/97/27 82/115/27 5/250/27 53/98/27
f 53/98/27 5/250/27 68/81/27 135/146/27 137/145/27
f 232/251/34 234/252/34 148/253/34 89/254/34
f 56/69/27 77/132/27 4/255/27 57/70/27
f 157/170/27 164/163/27 77/132/27 56/69/27
f 236/256/28 91/257/28 94/258/28 237/259/28
f 240/260/28 158/261/28 55/262/28 238/263/28
f 57/70/27 4/255/27 60/101/27 139/158/27 141/157/27
f 236/256/28 242/264/28 152/265/28 91/257/28
f 60/101/27 4/255/27 76/43/27 61/102/27
f 244/266/32 105/267/32 104/268/32 245/269/32
f 247/270/32 245/269/32 104/268/32 154/271/32
f 199/117/27 204/124/27 74/123/27 64/65/27
f 270/272/32 250/273/32 86/274/32 202/275/32
f 249/276/32 63/277/32 66/278/32 251/279/32
f 64/65/27 74/123/27 3/235/27 65/66/27
f 252/280/32 254/281/32 144/282/32 83/283/32
f 255/284/30 258/285/30 110/286/30 150/287/30
f 257/288/30 67/289/30 70/213/30 220/212/30
f 68/81/27 5/250/27 80/47/27 69/82/27
f 111/290/29 71/291/29 128/292/29 130/293/29
f 72/39/27 3/235/27 74/123/27 127/40/27
f 195/294/28 71/295/28 111/296/28 198/297/28
f 130/293/29 128/292/29 73/298/29 113/299/29
f 203/300/30 75/301/30 101/302/30 206/303/30
f 124/304/35 126/305/35 101/306/35 75/307/35
f 76/43/27 4/255/27 77/132/27 123/44/27
f 78/308/35 99/309/35 126/305/35 124/304/35
f 163/310/34 176/311/34 99/312/34 78/313/34
f 120/314/36 122/315/36 116/316/36 79/317/36
f 80/47/27 5/250/27 82/115/27 119/48/27
f 81/318/36 117/319/36 122/315/36 120/314/36
f 114/55/33 85/62/33 84/61/33 7/320/33
f 143/142/33 145/141/33 95/88/33 7/320/33 84/61/33
f 201/119/33 205/125/33 102/134/33 106/95/33
f 90/91/33 8/321/33 118/59/33 87/92/33
f 193/111/33 87/92/33 118/59/33 197/127/33
f 90/91/33 147/150/33 149/149/33 109/78/33 8/321/33
f 100/51/33 93/74/33 92/73/33 6/322/33
f 103/96/33 6/322/33 92/73/33 151/154/33 153/153/33
f 175/188/33 172/173/33 93/74/33 100/51/33
f 98/87/33 112/136/33 7/320/33 95/88/33
f 100/51/33 6/322/33 102/134/33 125/52/33
f 6/322/33 103/96/33 106/95/33 102/134/33
f 108/77/33 115/130/33 8/321/33 109/78/33
f 7/320/33 112/136/33 129/56/33 114/55/33
f 8/321/33 115/130/33 121/60/33 118/59/33
f 227/323/31 146/324/31 144/325/31 254/326/31
f 255/327/35 150/328/35 148/329/35 234/330/35
f 241/331/36 142/332/36 140/333/36 248/334/36
f 156/169/27 9/335/27 164/163/27 157/170/27
f 161/178/27 9/335/27 156/169/27 183/194/27 185/193/27
f 239/336/28 171/337/28 174/338/28 259/339/28
f 261/340/28 259/339/28 174/338/28 190/341/28
f 160/177/27 165/186/27 9/335/27 161/178/27
f 264/342/30 167/343/30 170/344/30 214/345/30
f 264/342/30 266/346/30 188/347/30 167/343/30
f 176/348/31 163/349/31 180/350/31 182/351/31
f 164/163/27 9/335/27 165/186/27 179/164/27
f 182/351/31 180/350/31 166/223/31 177/222/31
f 168/181/33 10/352/33 178/167/33 169/182/33
f 10/352/33 168/181/33 187/190/33 189/189/33 173/174/33
f 10/352/33 173/174/33 172/173/33 175/188/33
f 10/352/33 175/188/33 181/168/33 178/167/33
f 265/353/29 186/354/29 184/355/29 262/356/29
f 98/87/33 193/111/33 197/127/33 112/136/33
f 81/357/28 195/294/28 198/297/28 117/358/28
f 224/236/34 268/242/34 194/245/34 97/237/34
f 49/106/27 72/39/27 196/116/27 191/109/27
f 112/136/18 197/127/18 198/128/18 111/135/18
f 71/38/17 195/113/17 196/116/17 72/39/17
f 87/92/19 193/111/19 194/112/19 88/89/19
f 49/106/20 191/109/20 192/110/20 50/107/20
f 85/62/33 114/55/33 205/125/33 201/119/33
f 73/359/30 203/300/30 206/303/30 113/360/30
f 244/266/32 270/272/32 202/275/32 105/267/32
f 61/102/27 76/43/27 204/124/27 199/117/27
f 102/134/6 205/125/6 206/126/6 101/133/6
f 75/42/5 203/121/5 204/124/5 76/43/5
f 85/62/15 201/119/15 202/120/15 86/63/15
f 61/102/16 199/117/16 200/118/16 62/103/16
f 62/361/32 200/362/32 269/363/32 243/364/32
f 243/364/32 269/363/32 270/272/32 244/266/32
f 50/365/34 192/366/34 267/367/34 223/368/34
f 223/368/34 267/367/34 268/242/34 224/236/34
f 188/369/29 266/370/29 261/371/29 190/372/29
f 266/370/29 265/353/29 262/356/29 261/371/29
f 162/373/30 186/374/30 265/375/30 263/376/30
f 263/376/30 265/375/30 266/346/30 264/342/30
f 162/373/30 263/376/30 213/377/30 159/378/30
f 263/376/30 264/342/30 214/345/30 213/377/30
f 184/379/28 155/380/28 260/381/28 262/382/28
f 262/382/28 260/381/28 259/339/28 261/340/28
f 158/261/28 240/260/28 260/381/28 155/380/28
f 240/260/28 239/336/28 259/339/28 260/381/28
f 152/383/36 242/384/36 247/385/36 154/386/36
f 242/384/36 241/331/36 248/334/36 247/385/36
f 136/387/35 256/388/35 233/389/35 138/390/35
f 256/388/35 255/327/35 234/330/35 233/389/35
f 132/391/31 228/392/31 253/393/31 134/394/31
f 228/392/31 227/323/31 254/326/31 253/393/31
f 110/286/30 258/285/30 219/395/30 107/396/30
f 258/285/30 257/288/30 220/212/30 219/395/30
f 136/397/30 67/289/30 257/288/30 256/398/30
f 256/398/30 257/288/30 258/285/30 255/284/30
f 66/278/32 134/399/32 253/400/32 251/279/32
f 251/279/32 253/400/32 254/281/32 252/280/32
f 86/274/32 250/273/32 252/280/32 83/283/32
f 250/273/32 249/276/32 251/279/32 252/280/32
f 200/362/32 63/277/32 249/276/32 269/363/32
f 269/363/32 249/276/32 250/273/32 270/272/32
f 140/401/32 59/402/32 246/403/32 248/404/32
f 248/404/32 246/403/32 245/269/32 247/270/32
f 62/361/32 243/364/32 246/403/32 59/402/32
f 243/364/32 244/266/32 245/269/32 246/403/32
f 58/405/28 142/406/28 241/407/28 235/408/28
f 235/408/28 241/407/28 242/264/28 236/256/28
f 171/337/28 239/336/28 237/259/28 94/258/28
f 239/336/28 240/260/28 238/263/28 237/259/28
f 58/405/28 235/408/28 238/263/28 55/262/28
f 235/408/28 236/256/28 237/259/28 238/263/28
f 54/248/34 138/409/34 233/410/34 231/249/34
f 231/249/34 233/410/34 234/252/34 232/251/34
f 88/244/34 230/243/34 232/251/34 89/254/34
f 230/243/34 229/246/34 231/249/34 232/251/34
f 192/366/34 51/247/34 229/246/34 267/367/34
f 267/367/34 229/246/34 230/243/34 268/242/34
f 132/411/34 47/412/34 226/413/34 228/414/34
f 228/414/34 226/413/34 225/239/34 227/240/34
f 50/365/34 223/368/34 226/413/34 47/412/34
f 223/368/34 224/236/34 225/239/34 226/413/34
f 44/415/29 222/416/29 211/417/29 46/418/29
f 222/416/29 221/231/29 212/234/29 211/417/29
f 18/419/30 42/420/30 221/421/30 215/422/30
f 215/422/30 221/421/30 222/216/30 216/208/30
f 107/396/30 219/395/30 217/211/30 26/210/30
f 219/395/30 220/212/30 218/215/30 217/211/30
f 18/419/30 215/422/30 218/215/30 15/214/30
f 215/422/30 216/208/30 217/211/30 218/215/30
f 159/423/29 213/424/29 207/425/29 14/426/29
f 213/424/29 214/204/29 208/207/29 207/425/29
f 40/427/28 11/428/28 210/429/28 212/430/28
f 212/430/28 210/429/28 209/201/28 211/202/28
f 14/431/28 207/432/28 210/429/28 11/428/28
f 207/432/28 208/198/28 209/201/28 210/429/28
o TriangleCentre
v -0.387516 -0.076842 4.612483
v -0.387516 -0.076842 0.387517
v -4.612484 -0.076842 0.387517
v -0.387516 -0.123158 0.387517
v -4.612483 -0.123158 0.387517
v -0.387516 -0.123158 4.612484
v -0.387516 -0.076842 2.112484
v -0.387516 -0.076842 2.304930
v -4.612484 -0.076842 2.112484
v -2.112483 -0.076842 4.612483
v -2.112483 -0.076842 0.387517
v -2.304931 -0.076842 0.387517
v -2.112483 -0.076842 2.304930
v -2.112483 -0.076842 2.112484
v -2.304930 -0.076842 2.304930
v -2.304931 -0.076842 2.112484
v -4.452215 -0.076842 2.304930
v -2.304930 -0.076842 4.452215
v -2.112483 -0.123158 4.612484
v -0.387516 -0.123158 2.112484
v -0.387516 -0.123158 2.304931
v -2.304929 -0.123158 0.387517
v -2.112483 -0.123158 0.387517
v -4.612484 -0.123158 2.112484
v -2.112483 -0.123158 2.304931
v -2.304929 -0.123158 2.112484
v -2.304929 -0.123158 2.304931
v -2.112483 -0.123158 2.112484
v -3.378572 -0.076842 3.378572
v -1.250000 -0.123158 0.387517
v -1.250000 -0.076842 4.612483
v -1.250000 -0.076842 0.387517
v -1.250000 -0.076842 2.304930
v -1.250000 -0.076842 2.112484
v -1.250000 -0.123158 4.612484
v -1.250000 -0.123158 2.112484
v -1.250000 -0.123158 2.304931
v -4.612483 -0.123158 1.250000
v -0.387516 -0.076842 1.250000
v -4.612484 -0.076842 1.250000
v -2.112483 -0.076842 1.250000
v -2.304931 -0.076842 1.250000
v -0.387516 -0.123158 1.250000
v -2.304929 -0.123158 1.250000
v -2.112483 -0.123158 1.250000
v -1.250000 -0.123158 1.250000
v -1.250000 -0.076842 1.250000
v -0.387516 -0.076842 3.458706
v -0.387516 -0.123158 3.458707
v -2.112483 -0.076842 3.458707
v -2.304930 -0.076842 3.417414
v -3.962279 -0.076842 2.794866
v -2.112483 -0.123158 3.458707
v -2.304929 -0.123158 3.459258
v -1.250000 -0.123158 3.458707
v -1.250000 -0.076842 3.458706
v -3.458708 -0.076842 0.387517
v -3.417415 -0.076842 2.304930
v -3.458707 -0.076842 2.112484
v -3.458706 -0.123158 0.387517
v -3.458706 -0.123158 2.112484
v -3.459257 -0.123158 2.304931
v -2.794866 -0.076842 3.962279
v -3.458706 -0.123158 1.250000
v -3.458708 -0.076842 1.250000
v -3.156529 -0.123158 3.156530
v -3.125561 -0.076842 3.125561
v -4.667414 -0.136551 2.250000
v -4.508300 -0.123158 2.283882
v -4.750000 -0.136551 2.167414
v -4.710463 -0.150000 2.167414
v -0.250000 -0.136551 2.167414
v -0.285368 -0.150000 2.167414
v -0.332587 -0.136551 0.250000
v -0.332586 -0.150000 0.285938
v -0.250000 -0.136551 0.332587
v -0.285937 -0.150000 0.332587
v -0.250000 -0.136551 4.667414
v -0.285937 -0.150000 4.667414
v -0.332587 -0.150000 4.710712
v -0.332587 -0.136551 4.750000
v -4.749999 -0.136551 0.332587
v -4.710711 -0.150000 0.332587
v -4.667413 -0.136551 0.250000
v -4.667413 -0.150000 0.285938
v -4.688904 -0.150000 0.311096
v -4.708706 -0.136551 0.291294
v -0.311096 -0.150000 4.688904
v -0.291293 -0.136551 4.708706
v -0.309485 -0.150000 0.309485
v -0.291293 -0.136551 0.291294
v -2.167413 -0.136551 4.750000
v -2.167413 -0.150000 4.710463
v -2.250000 -0.136551 4.667414
v -2.283881 -0.123158 4.508300
v -0.250000 -0.136551 2.250000
v -0.285368 -0.150000 2.250000
v -2.249999 -0.136551 0.250000
v -2.249999 -0.150000 0.285368
v -4.624517 -0.050000 2.250000
v -4.667414 -0.065334 2.250000
v -4.709276 -0.050000 2.167414
v -4.750000 -0.065334 2.167414
v -0.291293 -0.065334 0.291294
v -0.309485 -0.050000 0.309486
v -0.332587 -0.050000 0.285938
v -0.332587 -0.065334 0.250000
v -0.291293 -0.065334 4.708706
v -0.311554 -0.050000 4.688446
v -0.285937 -0.050000 4.667413
v -0.250000 -0.065334 4.667414
v -4.708706 -0.065334 0.291294
v -4.688445 -0.050000 0.311554
v -4.709759 -0.050000 0.332587
v -4.749999 -0.065334 0.332587
v -4.667414 -0.050000 0.285938
v -4.667413 -0.065334 0.250000
v -0.285937 -0.050000 0.332587
v -0.250000 -0.065334 0.332587
v -0.332587 -0.065349 4.750000
v -0.332587 -0.050000 4.709759
v -2.167413 -0.136551 0.250000
v -2.167413 -0.150000 0.285368
v -2.167413 -0.050000 4.709276
v -2.167413 -0.065334 4.750000
v -2.250000 -0.050000 4.624517
v -2.250000 -0.065334 4.667414
v -0.285368 -0.050000 2.250000
v -0.250000 -0.065334 2.250000
v -0.285368 -0.050000 2.167414
v -0.250000 -0.065334 2.167414
v -2.167413 -0.050000 0.285368
v -2.167413 -0.065334 0.250000
v -2.250000 -0.050000 0.285368
v -2.249999 -0.065334 0.250000
v -3.396091 -0.123158 3.396091
v -3.458707 -0.136551 3.458707
v -3.458707 -0.065334 3.458707
v -3.436933 -0.050000 3.436933
v -1.250000 -0.150000 4.710810
v -1.250000 -0.136551 4.750000
v -1.250000 -0.150000 0.285575
v -1.250000 -0.136551 0.250000
v -1.250000 -0.065349 4.750000
v -1.250000 -0.050000 4.709782
v -1.250000 -0.065334 0.250000
v -1.250000 -0.050000 0.285575
v -0.285575 -0.150000 1.250000
v -0.250000 -0.136551 1.250000
v -4.710810 -0.150000 1.250000
v -4.749999 -0.136551 1.250000
v -0.250000 -0.065334 1.250000
v -0.285574 -0.050000 1.250000
v -4.749999 -0.065334 1.250000
v -4.709781 -0.050000 1.250000
v -0.285575 -0.150000 3.458707
v -0.250000 -0.136551 3.458707
v -4.063060 -0.136551 2.854353
v -3.952895 -0.123158 2.839287
v -4.030519 -0.050000 2.843506
v -4.063060 -0.065334 2.854353
v -0.250000 -0.065334 3.458707
v -0.285574 -0.050000 3.458706
v -3.458706 -0.150000 0.285575
v -3.458706 -0.136551 0.250000
v -3.458706 -0.065334 0.250000
v -3.458707 -0.050000 0.285575
v -2.854353 -0.136551 4.063060
v -2.839286 -0.123158 3.952896
v -2.843506 -0.050000 4.030519
v -2.854353 -0.065334 4.063060
v -0.332587 -0.050000 3.458706
v -0.332587 -0.050000 4.667413
v -3.458708 -0.050000 0.332587
v -4.667414 -0.050000 0.332587
v -1.250000 -0.150000 0.332587
v -0.332586 -0.150000 0.332587
v -0.332587 -0.150000 3.458707
v -0.332587 -0.150000 4.667414
v -4.667413 -0.150000 1.250000
v -4.667413 -0.150000 0.332587
v -0.332587 -0.050000 1.250000
v -0.332587 -0.050000 2.167414
v -4.667414 -0.050000 1.250000
v -4.667414 -0.050000 2.167414
v -1.250000 -0.050000 4.667413
v -2.167413 -0.050000 4.667414
v -1.250000 -0.050000 0.332587
v -2.167413 -0.050000 0.332587
v -1.250000 -0.050000 2.250000
v -0.332587 -0.050000 2.250000
v -1.250000 -0.050000 2.167414
v -2.167413 -0.050000 3.458707
v -2.167413 -0.050000 2.250000
v -2.167413 -0.050000 1.250000
v -2.250000 -0.050000 3.417414
v -2.250000 -0.050000 2.250000
v -3.417415 -0.050000 2.250000
v -3.458707 -0.050000 2.167414
v -2.250000 -0.050000 2.167414
v -2.250001 -0.050000 1.250000
v -2.250001 -0.050000 0.332587
v -4.001121 -0.050000 2.833707
v -4.584828 -0.050000 2.250000
v -1.250000 -0.150000 4.667414
v -2.167413 -0.150000 4.667414
v -0.332586 -0.150000 1.250000
v -0.332586 -0.150000 2.167414
v -3.458706 -0.150000 0.332587
v -2.249999 -0.150000 0.332587
v -2.167413 -0.150000 3.458707
v -2.249999 -0.150000 1.250000
v -3.458706 -0.150000 2.167414
v -2.249999 -0.150000 2.167414
v -2.167412 -0.150000 1.250000
v -2.167412 -0.150000 2.167414
v -1.250000 -0.150000 2.167414
v -1.250000 -0.150000 2.250001
v -2.167412 -0.150000 2.250001
v -2.249999 -0.150000 3.458707
v -2.249999 -0.150000 2.250001
v -2.833707 -0.050000 4.001121
v -3.417414 -0.050000 3.417414
v -2.167412 -0.150000 0.332587
v -0.332587 -0.050000 0.332587
v -2.167413 -0.050000 2.167414
v -0.332586 -0.150000 2.250001
v -4.667414 -0.150000 2.167414
v -2.250000 -0.050000 4.584827
v -3.458706 -0.150000 2.250000
v -3.991736 -0.150000 2.878128
v -4.643639 -0.150000 2.226225
v -2.878128 -0.150000 3.991737
v -3.434932 -0.150000 3.434933
v -2.226225 -0.150000 4.643639
vn -0.0000 1.0000 -0.0000
vn 0.3554 -0.9347 -0.0000
vn -0.0000 -1.0000 -0.0000
vn -0.2781 -0.9145 0.2939
vn -0.2939 -0.9145 0.2781
vn 0.3307 -0.8847 -0.3285
vn 0.3123 -0.8906 0.3306
vn -0.3066 -0.9005 -0.3082
vn -0.0001 -0.9360 -0.3521
vn 0.3521 -0.9360 -0.0001
vn -0.3306 -0.8906 -0.3123
vn 0.3082 -0.9005 0.3066
vn 0.3285 -0.8847 -0.3307
vn 0.3545 -0.9350 -0.0000
vn -0.0000 -0.9347 -0.3554
vn -0.0000 -0.9460 0.3242
vn -0.3233 -0.9463 0.0001
vn -0.2626 -0.9285 0.2626
vn -0.3251 0.8865 0.3294
vn -0.3294 0.8865 0.3251
vn 0.3654 0.8572 -0.3629
vn 0.3408 0.8661 0.3658
vn -0.3341 0.8808 -0.3356
vn -0.0001 0.9190 -0.3941
vn 0.3941 0.9190 -0.0001
vn -0.3658 0.8661 -0.3407
vn 0.3356 0.8807 0.3343
vn 0.3629 0.8572 -0.3654
vn 0.3978 0.9175 -0.0000
vn -0.0000 -0.9350 -0.3545
vn -0.0000 0.9343 0.3565
vn -0.3543 0.9351 0.0001
vn -0.3175 0.8934 0.3177
vn 0.3968 0.9179 -0.0000
vn -0.0000 0.9175 -0.3978
vn -0.0000 0.9179 -0.3968
vn -0.3157 0.8948 0.3156
vn -0.0001 -0.9463 0.3233
vn 0.0001 -0.9360 -0.3521
vn -0.0001 0.9351 0.3545
vn 0.0001 0.9190 -0.3941
vn -0.3242 -0.9460 -0.0000
vn -0.3562 0.9344 -0.0000
vn 0.3521 -0.9360 0.0001
vn -0.3156 0.8948 0.3157
vn 0.3941 0.9190 0.0001
vn -0.3177 0.8934 0.3175
vn -0.7071 -0.0000 0.7071
vn 1.0000 -0.0000 -0.0000
vn -1.0000 -0.0000 -0.0000
vn 0.7071 -0.0000 -0.7071
vn -0.0000 -0.0000 -1.0000
vn 0.7071 -0.0000 0.7071
vn -0.0000 -0.0000 1.0000
vn -0.7071 -0.0000 -0.7071
vn -0.4390 0.8985 -0.0000
vn -0.0000 0.8985 0.4390
vn -0.0000 -0.8985 0.4390
vn -0.4390 -0.8985 -0.0000
vn 0.4390 -0.8985 -0.0000
vn 0.4390 0.8985 -0.0000
vn -0.0000 0.8985 -0.4390
vn 0.3105 0.8985 -0.3105
vn -0.0000 -0.8985 -0.4390
vn 0.3105 -0.8985 -0.3105
vn -0.0088 -0.8985 0.4390
vn -0.4390 -0.8985 0.0088
vt 0.713442 0.086126
vt 0.710759 0.086117
vt 0.710772 0.088802
vt 0.713454 0.088807
vt 0.279688 0.759486
vt 0.280912 0.759489
vt 0.280908 0.756816
vt 0.279683 0.756824
vt 0.582088 0.218243
vt 0.554367 0.218243
vt 0.554367 0.255326
vt 0.582088 0.255326
vt 0.173070 0.582088
vt 0.173070 0.609809
vt 0.200791 0.609809
vt 0.200791 0.582088
vt 0.344252 0.759341
vt 0.344251 0.756660
vt 0.341570 0.756676
vt 0.341571 0.759358
vt 0.575891 0.585120
vt 0.575891 0.548036
vt 0.548169 0.548036
vt 0.548169 0.585120
vt 0.743120 0.088735
vt 0.743116 0.086127
vt 0.710911 0.118406
vt 0.710964 0.147925
vt 0.713651 0.147910
vt 0.713511 0.118399
vt 0.129795 0.324237
vt 0.120414 0.297861
vt 0.087154 0.297861
vt 0.102902 0.313608
vt 0.673125 0.086281
vt 0.671831 0.088892
vt 0.711120 0.011014
vt 0.710896 0.048471
vt 0.713506 0.047175
vt 0.713818 0.008401
vt 0.572172 0.116608
vt 0.544451 0.116608
vt 0.544451 0.153692
vt 0.572172 0.153692
vt 0.098703 0.582088
vt 0.126424 0.582088
vt 0.126424 0.554367
vt 0.098703 0.554367
vt 0.383199 0.756515
vt 0.383209 0.759119
vt 0.241239 0.567767
vt 0.241239 0.530684
vt 0.213518 0.530684
vt 0.213518 0.567767
vt 0.268960 0.567767
vt 0.268960 0.530684
vt 0.311984 0.756825
vt 0.311989 0.759427
vt 0.070981 0.582088
vt 0.070981 0.554367
vt 0.145348 0.582088
vt 0.145348 0.609809
vt 0.609809 0.218243
vt 0.609809 0.255326
vt 0.282442 0.756805
vt 0.282435 0.759493
vt 0.145348 0.554367
vt 0.173070 0.554367
vt 0.070981 0.609809
vt 0.098703 0.609809
vt 0.126424 0.609809
vt 0.599893 0.116608
vt 0.599893 0.153692
vt 0.344148 0.727059
vt 0.344153 0.697518
vt 0.341469 0.697515
vt 0.341543 0.727063
vt 0.603612 0.585120
vt 0.603612 0.548036
vt 0.200791 0.554367
vt 0.609809 0.181159
vt 0.582088 0.181159
vt 0.268960 0.604851
vt 0.241239 0.604851
vt 0.213518 0.604851
vt 0.047285 0.205805
vt 0.021051 0.232040
vt 0.047285 0.258274
vt 0.059759 0.232040
vt 0.140424 0.351130
vt 0.121663 0.332369
vt 0.772704 0.088739
vt 0.772708 0.086050
vt 0.554367 0.181159
vt 0.635657 0.086494
vt 0.633045 0.089193
vt 0.156171 0.366877
vt 0.156171 0.333617
vt 0.603612 0.622203
vt 0.575891 0.622203
vt 0.599893 0.079524
vt 0.572172 0.079524
vt 0.544451 0.079524
vt 0.156171 0.297861
vt 0.421942 0.756349
vt 0.421188 0.758251
vt 0.548169 0.622203
vt 0.344198 0.798298
vt 0.341595 0.798299
vt 0.424651 0.756389
vt 0.423311 0.756344
vt 0.422029 0.759063
vt 0.344300 0.837118
vt 0.343484 0.836280
vt 0.341585 0.838411
vt 0.341636 0.839751
vt 0.281045 0.696243
vt 0.281710 0.696907
vt 0.282446 0.696157
vt 0.282398 0.694927
vt 0.281312 0.838685
vt 0.282021 0.837972
vt 0.281222 0.837286
vt 0.279992 0.837337
vt 0.423350 0.696081
vt 0.422640 0.696793
vt 0.423338 0.697478
vt 0.424672 0.697432
vt 0.383209 0.694214
vt 0.383209 0.695439
vt 0.421951 0.695996
vt 0.421997 0.694766
vt 0.279288 0.727072
vt 0.280515 0.727073
vt 0.280961 0.697644
vt 0.279730 0.697598
vt 0.282669 0.840001
vt 0.282709 0.838667
vt 0.279288 0.798550
vt 0.280512 0.798546
vt 0.341476 0.694771
vt 0.341472 0.695993
vt 0.344141 0.695988
vt 0.344132 0.694765
vt 0.312171 0.840346
vt 0.312166 0.839016
vt 0.425131 0.726928
vt 0.423801 0.726928
vt 0.400834 0.779795
vt 0.403154 0.779040
vt 0.713825 0.007073
vt 0.713775 0.005685
vt 0.711103 0.008269
vt 0.711153 0.009739
vt 0.634381 0.086527
vt 0.632910 0.086477
vt 0.630324 0.089156
vt 0.631715 0.089203
vt 0.773419 0.148579
vt 0.774107 0.149266
vt 0.775420 0.147899
vt 0.774166 0.147842
vt 0.632542 0.148632
vt 0.631800 0.149378
vt 0.633163 0.150688
vt 0.633219 0.149437
vt 0.773156 0.007668
vt 0.773900 0.006923
vt 0.772539 0.005608
vt 0.772486 0.006989
vt 0.774649 0.047000
vt 0.775895 0.046995
vt 0.775214 0.008280
vt 0.773964 0.008341
vt 0.743295 0.149841
vt 0.743297 0.151088
vt 0.772741 0.150579
vt 0.772683 0.149326
vt 0.631860 0.147964
vt 0.630479 0.148022
vt 0.710972 0.149447
vt 0.710979 0.150691
vt 0.713636 0.150689
vt 0.713642 0.149443
vt 0.311842 0.694441
vt 0.311845 0.695665
vt 0.631309 0.118573
vt 0.629929 0.118577
vt 0.743117 0.006550
vt 0.743115 0.005173
vt 0.690961 0.027185
vt 0.691372 0.028329
vt 0.671892 0.149966
vt 0.671892 0.151213
vt 0.774237 0.088726
vt 0.775485 0.088717
vt 0.775477 0.086056
vt 0.774231 0.086053
vt 0.774646 0.118432
vt 0.775895 0.118434
vt 0.364947 0.815836
vt 0.364201 0.818159
vt 0.384000 0.798917
vt 0.383169 0.798089
vt 0.651827 0.066337
vt 0.652970 0.066748
vt 0.671996 0.047364
vt 0.671208 0.046577
vt 0.696760 0.553188
vt 0.699049 0.553188
vt 0.699049 0.549434
vt 0.696760 0.549434
vt 0.991749 0.937544
vt 0.994038 0.937544
vt 0.994038 0.934889
vt 0.991749 0.934889
vt 0.070649 0.181485
vt 0.070649 0.206730
vt 0.696760 0.580658
vt 0.699049 0.580658
vt 0.426560 0.121466
vt 0.428849 0.121466
vt 0.428849 0.091979
vt 0.426560 0.091979
vt 0.422397 0.726927
vt 0.991749 0.967030
vt 0.994038 0.967030
vt 0.696760 0.666823
vt 0.699049 0.666823
vt 0.699049 0.663070
vt 0.696760 0.663070
vt 0.282025 0.727074
vt 0.282457 0.697653
vt 0.311849 0.697172
vt 0.134050 0.166086
vt 0.136339 0.166086
vt 0.136339 0.164209
vt 0.134050 0.164209
vt 0.733754 0.889156
vt 0.733754 0.859670
vt 0.731465 0.859670
vt 0.731465 0.889156
vt 0.991749 0.996517
vt 0.994038 0.996517
vt 0.136339 0.162332
vt 0.134050 0.162332
vt 0.282716 0.837276
vt 0.282020 0.798540
vt 0.114219 0.183438
vt 0.116508 0.183438
vt 0.116508 0.181561
vt 0.114219 0.181561
vt 0.994038 0.896040
vt 0.994038 0.857191
vt 0.991749 0.857191
vt 0.991749 0.896040
vt 0.131382 0.372355
vt 0.129093 0.372355
vt 0.129093 0.401842
vt 0.131382 0.401842
vt 0.116508 0.179685
vt 0.114219 0.179685
vt 0.312160 0.837612
vt 0.421947 0.697490
vt 0.104114 0.192079
vt 0.101825 0.192079
vt 0.101825 0.193956
vt 0.104114 0.193956
vt 0.428849 0.062493
vt 0.426560 0.062493
vt 0.731465 0.998996
vt 0.733754 0.998996
vt 0.733754 0.960147
vt 0.731465 0.960147
vt 0.101825 0.195833
vt 0.104114 0.195833
vt 0.383209 0.696947
vt 0.341584 0.837042
vt 0.129093 0.431328
vt 0.131382 0.431328
vt 0.731465 0.921297
vt 0.733754 0.921297
vt 0.733754 0.918643
vt 0.731465 0.918643
vt 0.699049 0.635599
vt 0.696760 0.635599
vt 0.070649 0.282594
vt 0.070649 0.257349
vt 0.691667 0.029278
vt 0.743119 0.007917
vt 0.772672 0.147833
vt 0.773135 0.118431
vt 0.633218 0.147947
vt 0.671891 0.148456
vt 0.772475 0.008346
vt 0.773140 0.047004
vt 0.743293 0.148332
vt 0.632679 0.118570
vt 0.653919 0.067043
vt 0.070649 0.232040
vt 0.699049 0.608129
vt 0.696760 0.608129
vt 0.672628 0.047996
vt 0.635128 0.146027
vt 0.671890 0.146461
vt 0.771146 0.047010
vt 0.770563 0.010261
vt 0.311854 0.699165
vt 0.284375 0.699567
vt 0.284016 0.798533
vt 0.284631 0.835349
vt 0.420409 0.726927
vt 0.420027 0.699412
vt 0.715602 0.145976
vt 0.743290 0.146339
vt 0.743120 0.009899
vt 0.715752 0.010315
vt 0.634968 0.091127
vt 0.634664 0.118564
vt 0.771139 0.118430
vt 0.770769 0.090701
vt 0.709001 0.145989
vt 0.708923 0.118412
vt 0.715499 0.118394
vt 0.708819 0.090769
vt 0.671838 0.090883
vt 0.743123 0.090730
vt 0.673117 0.084297
vt 0.708801 0.084160
vt 0.708912 0.048464
vt 0.715496 0.047181
vt 0.715409 0.084162
vt 0.743114 0.084132
vt 0.770766 0.084093
vt 0.709148 0.015534
vt 0.693042 0.030704
vt 0.312151 0.835624
vt 0.339635 0.835130
vt 0.284023 0.727074
vt 0.284379 0.754845
vt 0.383210 0.698943
vt 0.346113 0.699453
vt 0.339606 0.798301
vt 0.346139 0.727054
vt 0.346205 0.754691
vt 0.383193 0.754526
vt 0.339605 0.754723
vt 0.339552 0.727067
vt 0.311980 0.754835
vt 0.339612 0.761323
vt 0.311992 0.761417
vt 0.346214 0.761294
vt 0.346182 0.798319
vt 0.674028 0.049395
vt 0.655345 0.068417
vt 0.339514 0.699451
vt 0.770757 0.145921
vt 0.715420 0.090766
vt 0.284377 0.761449
vt 0.420023 0.754407
vt 0.640176 0.084523
vt 0.383237 0.761102
vt 0.399411 0.778431
vt 0.416588 0.760297
vt 0.363576 0.814418
vt 0.381767 0.796693
vt 0.345511 0.831671
s 0
f 470/433/37 467/434/37 464/435/37 496/436/37
f 366/437/38 367/438/38 343/439/38 342/440/38
f 326/441/37 320/442/37 280/443/37 301/444/37
f 317/445/37 302/446/37 281/447/37 311/448/37
f 491/449/39 484/450/39 486/451/39 489/452/39
f 335/453/37 310/454/37 279/455/37 329/456/37
f 465/457/37 471/458/37 470/433/37 496/436/37
f 460/459/37 461/460/37 453/461/37 462/462/37
f 337/463/37 328/464/37 287/465/37 322/466/37
f 466/467/37 463/468/37 464/435/37 467/434/37
f 474/469/37 468/470/37 469/471/37 455/472/37
f 334/473/39 331/474/39 294/475/39 308/476/39
f 468/470/37 467/434/37 470/433/37 469/471/37
f 316/477/39 313/478/39 290/479/39 306/480/39
f 483/481/39 484/450/39 491/449/39 500/482/39
f 325/483/39 305/484/39 289/485/39 323/486/39
f 319/487/39 276/488/39 305/484/39 325/483/39
f 487/489/39 488/490/39 489/452/39 486/451/39
f 315/491/39 316/477/39 306/480/39 298/492/39
f 309/493/37 272/494/37 302/446/37 317/445/37
f 318/495/37 326/441/37 301/444/37 271/496/37
f 478/497/39 497/498/39 488/490/39 487/489/39
f 277/499/37 309/493/37 317/445/37 304/500/37
f 293/501/39 300/502/39 316/477/39 315/491/39
f 300/502/39 274/503/39 313/478/39 316/477/39
f 330/504/39 334/473/39 308/476/39 275/505/39
f 482/506/39 480/507/39 494/508/39 485/509/39
f 327/510/37 273/511/37 310/454/37 335/453/37
f 484/450/39 482/506/39 485/509/39 486/451/39
f 304/500/37 317/445/37 311/448/37 284/512/37
f 278/513/37 303/514/37 326/441/37 318/495/37
f 291/515/39 319/487/39 325/483/39 307/516/39
f 307/516/39 325/483/39 323/486/39 295/517/39
f 332/518/39 297/519/39 324/520/39 336/521/39
f 333/522/37 337/463/37 322/466/37 299/523/37
f 459/524/37 472/525/37 471/458/37 465/457/37
f 303/514/37 283/526/37 320/442/37 326/441/37
f 499/527/37 457/528/37 463/468/37 466/467/37
f 288/529/37 321/530/37 337/463/37 333/522/37
f 282/531/37 327/510/37 335/453/37 312/532/37
f 292/533/39 314/534/39 334/473/39 330/504/39
f 314/534/39 296/535/39 331/474/39 334/473/39
f 321/530/37 285/536/37 328/464/37 337/463/37
f 498/537/39 483/481/39 500/482/39 502/538/39
f 312/532/37 335/453/37 329/456/37 286/539/37
f 490/540/39 491/449/39 489/452/39 481/541/39
f 464/435/37 460/459/37 462/462/37 496/436/37
f 340/542/40 341/543/40 502/538/40 338/544/40
f 364/545/41 505/546/41 363/547/41 362/548/41
f 361/549/42 360/550/42 345/551/42 344/552/42
f 359/553/43 358/554/43 349/555/43 348/556/43
f 357/557/44 356/558/44 353/559/44 352/560/44
f 435/561/45 434/562/45 355/563/45 354/564/45
f 419/565/46 418/566/46 347/567/46 346/568/46
f 354/564/47 355/563/47 356/558/47 357/557/47
f 351/569/48 350/570/48 358/554/48 359/553/48
f 346/568/49 347/567/49 360/550/49 361/549/49
f 427/571/50 426/572/50 367/438/50 366/437/50
f 392/573/51 393/574/51 369/575/51 368/576/51
f 411/577/52 410/578/52 350/570/52 351/569/52
f 421/579/53 420/580/53 341/543/53 340/542/53
f 501/581/54 428/582/54 338/544/54 502/538/54
f 372/583/55 373/584/55 371/585/55 370/586/55
f 396/587/56 397/588/56 395/589/56 394/590/56
f 375/591/57 374/592/57 377/593/57 376/594/57
f 379/595/58 378/596/58 381/597/58 380/598/58
f 383/599/59 382/600/59 385/601/59 384/602/59
f 437/603/60 436/604/60 387/605/60 386/606/60
f 423/607/61 422/608/61 389/609/61 388/610/61
f 386/606/62 387/605/62 382/600/62 383/599/62
f 391/611/63 390/612/63 378/596/63 379/595/63
f 388/610/64 389/609/64 374/592/64 375/591/64
f 398/613/65 399/614/65 401/615/65 400/616/65
f 413/617/66 412/618/66 393/574/66 392/573/66
f 415/619/67 414/620/67 390/612/67 391/611/67
f 425/621/68 424/622/68 373/584/68 372/583/68
f 431/623/69 430/624/69 370/586/69 371/585/69
f 433/625/70 432/626/70 399/614/70 398/613/70
f 402/627/71 403/628/71 405/629/71 404/630/71
f 417/631/72 416/632/72 403/628/72 402/627/72
f 498/537/39 502/538/39 341/543/39
f 503/633/54 438/634/54 407/635/54 504/636/54
f 441/637/73 440/638/73 409/639/73 408/640/73
f 362/548/74 363/547/74 410/578/74 411/577/74
f 344/552/75 345/551/75 412/618/75 413/617/75
f 394/590/76 395/589/76 414/620/76 415/619/76
f 376/594/77 377/593/77 416/632/77 417/631/77
f 342/440/50 343/439/50 418/566/50 419/565/50
f 352/560/78 353/559/78 420/580/78 421/579/78
f 400/616/70 401/615/70 422/608/70 423/607/70
f 384/602/79 385/601/79 424/622/79 425/621/79
f 348/556/80 349/555/80 426/572/80 427/571/80
f 504/636/54 407/635/54 428/582/54 501/581/54
f 408/640/81 409/639/81 430/624/81 431/623/81
f 380/598/82 381/597/82 432/626/82 433/625/82
f 368/576/66 369/575/66 434/562/66 435/561/66
f 404/630/72 405/629/72 436/604/72 437/603/72
f 505/546/54 364/545/54 438/634/54 503/633/54
f 397/588/83 396/587/83 440/638/83 441/637/83
f 338/641/84 371/642/84 373/643/84 340/644/84
f 342/645/85 401/646/85 399/647/85 366/648/85
f 339/649/39 332/518/39 336/521/39 429/650/39
f 428/651/84 431/652/84 371/642/84 338/641/84
f 340/653/86 373/654/86 424/655/86 421/656/86
f 341/543/39 420/580/39 450/657/39 498/537/39
f 497/498/39 478/497/39 343/439/39 367/438/39
f 419/658/85 422/659/85 401/646/85 342/645/85
f 362/660/84 395/661/84 397/662/84 364/663/84
f 418/566/39 343/439/39 478/497/39 477/664/39
f 345/551/39 360/550/39 347/567/39 447/665/39
f 412/618/39 345/551/39 447/665/39 446/666/39
f 344/667/87 377/668/87 374/669/87 361/670/87
f 416/671/88 377/672/88 344/673/88 413/674/88
f 346/675/85 389/676/85 422/659/85 419/658/85
f 361/670/87 374/669/87 389/677/87 346/678/87
f 347/567/39 418/566/39 477/664/39 447/665/39
f 349/555/39 358/554/39 350/570/39 449/679/39
f 426/572/39 349/555/39 449/679/39 448/680/39
f 348/681/89 381/682/89 378/683/89 359/684/89
f 432/685/85 381/686/85 348/687/85 427/688/85
f 351/689/90 390/690/90 414/691/90 411/692/90
f 359/684/89 378/683/89 390/693/89 351/694/89
f 350/570/39 410/578/39 475/695/39 449/679/39
f 353/559/39 356/558/39 355/563/39 451/696/39
f 420/580/39 353/559/39 451/696/39 450/657/39
f 352/697/91 385/698/91 382/699/91 357/700/91
f 421/656/86 424/655/86 385/701/86 352/702/86
f 354/703/88 387/704/88 436/705/88 435/706/88
f 357/700/91 382/699/91 387/707/91 354/708/91
f 355/563/39 434/562/39 479/709/39 451/696/39
f 476/710/39 363/547/39 505/546/39
f 411/692/90 414/691/90 395/711/90 362/712/90
f 368/713/88 405/714/88 403/715/88 392/716/88
f 410/578/39 363/547/39 476/710/39 475/695/39
f 364/663/84 397/662/84 441/717/84 438/718/84
f 336/521/39 324/520/39 365/719/39 439/720/39
f 399/647/85 432/685/85 427/688/85 366/648/85
f 367/438/39 426/572/39 448/680/39 497/498/39
f 494/508/39 480/507/39 369/575/39 393/574/39
f 435/706/88 436/705/88 405/714/88 368/713/88
f 455/472/37 372/583/37 370/586/37 474/469/37
f 434/562/39 369/575/39 480/507/39 479/709/39
f 430/624/37 473/721/37 474/469/37 370/586/37
f 396/587/37 394/590/37 457/528/37 499/527/37
f 455/472/37 454/722/37 425/621/37 372/583/37
f 388/610/37 375/591/37 376/594/37 495/723/37
f 376/594/37 417/631/37 458/724/37 495/723/37
f 391/611/37 379/595/37 380/598/37 443/725/37
f 380/598/37 433/625/37 442/726/37 443/725/37
f 386/606/37 383/599/37 384/602/37 445/727/37
f 454/722/37 445/727/37 384/602/37 425/621/37
f 437/603/37 386/606/37 445/727/37 444/728/37
f 423/607/37 388/610/37 495/723/37 452/729/37
f 415/619/37 391/611/37 443/725/37 456/730/37
f 403/715/88 416/671/88 413/674/88 392/716/88
f 393/574/39 412/618/39 446/666/39 494/508/39
f 394/590/37 415/619/37 456/730/37 457/528/37
f 461/460/37 398/613/37 400/616/37 453/461/37
f 396/587/37 499/527/37 492/731/37 440/638/37
f 433/625/37 398/613/37 461/460/37 442/726/37
f 472/525/37 459/524/37 402/627/37 404/630/37
f 400/616/37 423/607/37 452/729/37 453/461/37
f 417/631/37 402/627/37 459/524/37 458/724/37
f 404/630/37 437/603/37 444/728/37 472/525/37
f 429/650/39 336/521/39 439/720/39 406/732/39
f 438/718/84 441/717/84 408/733/84 407/734/84
f 407/734/84 408/733/84 431/652/84 428/651/84
f 440/638/37 492/731/37 493/735/37 409/639/37
f 409/639/37 493/735/37 473/721/37 430/624/37
f 271/736/92 443/725/92 442/726/92 318/737/92
f 327/738/93 444/728/93 445/727/93 273/739/93
f 300/740/94 446/666/94 447/665/94 274/741/94
f 319/742/95 448/680/95 449/679/95 276/743/95
f 308/744/96 450/657/96 451/696/96 275/745/96
f 277/746/92 453/461/92 452/729/92 309/747/92
f 310/748/97 454/722/97 455/472/97 279/749/97
f 280/750/98 457/528/98 456/730/98 301/751/98
f 302/752/93 458/724/93 459/524/93 281/753/93
f 278/754/93 461/460/93 460/459/93 303/755/93
f 304/756/98 462/462/98 453/461/98 277/746/98
f 283/757/97 464/435/97 463/468/97 320/758/97
f 281/753/97 459/524/97 465/457/97 311/759/97
f 321/760/92 466/467/92 467/434/92 285/761/92
f 285/761/93 467/434/93 468/470/93 328/762/93
f 329/763/98 469/471/98 470/433/98 286/764/98
f 312/765/92 471/458/92 472/525/92 282/766/92
f 287/767/99 474/469/99 473/721/99 322/768/99
f 305/769/100 475/695/100 476/710/100 289/770/100
f 313/771/95 477/664/95 478/497/95 290/772/95
f 330/773/94 479/709/94 480/507/94 292/774/94
f 289/770/96 476/710/96 481/541/96 323/775/96
f 292/774/95 480/507/95 482/506/95 314/776/95
f 296/777/100 484/450/100 483/481/100 331/778/100
f 298/779/96 486/451/96 485/509/96 315/780/96
f 290/772/100 478/497/100 487/489/100 306/781/100
f 295/782/94 489/452/94 488/490/94 307/783/94
f 297/784/95 491/449/95 490/540/95 324/785/95
f 299/786/99 493/735/99 492/731/99 333/787/99
f 293/788/94 494/508/94 446/666/94 300/740/94
f 301/751/98 456/730/98 443/725/98 271/736/98
f 272/789/93 495/723/93 458/724/93 302/752/93
f 303/755/93 460/459/93 464/435/93 283/757/93
f 284/790/98 496/436/98 462/462/98 304/756/98
f 276/743/100 449/679/100 475/695/100 305/769/100
f 306/781/100 487/489/100 486/451/100 298/779/100
f 307/783/94 488/490/94 497/498/94 291/791/94
f 294/792/96 498/537/96 450/657/96 308/744/96
f 309/747/92 452/729/92 495/723/92 272/789/92
f 273/739/97 445/727/97 454/722/97 310/748/97
f 311/759/97 465/457/97 496/436/97 284/790/97
f 286/764/92 470/433/92 471/458/92 312/765/92
f 274/741/95 447/665/95 477/664/95 313/771/95
f 314/776/95 482/506/95 484/450/95 296/777/95
f 315/780/96 485/509/96 494/508/96 293/788/96
f 318/737/92 442/726/92 461/460/92 278/754/92
f 291/791/95 497/498/95 448/680/95 319/742/95
f 320/758/97 463/468/97 457/528/97 280/750/97
f 288/793/92 499/527/92 466/467/92 321/760/92
f 322/768/99 473/721/99 493/735/99 299/786/99
f 323/775/96 481/541/96 489/452/96 295/782/96
f 282/766/93 472/525/93 444/728/93 327/738/93
f 328/762/93 468/470/93 474/469/93 287/767/93
f 279/749/98 455/472/98 469/471/98 329/763/98
f 275/745/94 451/696/94 479/709/94 330/773/94
f 331/778/100 483/481/100 498/537/100 294/792/100
f 332/794/94 500/482/94 491/449/94 297/784/94
f 333/787/99 492/731/99 499/527/99 288/793/99
f 429/795/101 501/581/101 502/538/101 339/796/101
f 439/797/101 503/633/101 504/636/101 406/798/101
f 406/798/101 504/636/101 501/581/101 429/795/101
f 365/799/101 505/546/101 503/633/101 439/797/101
f 339/796/102 502/538/102 500/482/102 332/794/102
f 324/785/103 490/540/103 505/546/103 365/799/103
f 505/546/39 490/540/39 481/541/39 476/710/39
