# Blender 5.2.1 LTS
# www.blender.org
mtllib WoodenCrate2.mtl
o WoodenCrate2
v 0.170100 0.008262 -0.170100
v -0.170100 0.008262 -0.170100
v 0.170100 0.008262 0.170100
v -0.170100 0.008262 0.170100
v 0.190249 0.008262 -0.170100
v 0.195059 0.001002 -0.195059
v 0.187852 0.303543 0.170100
v 0.193947 0.320313 0.193947
v 0.170100 0.008262 0.190249
v 0.195059 0.001002 0.195059
v -0.170100 0.303543 0.187852
v -0.193947 0.320313 0.193947
v -0.190249 0.008262 0.170100
v -0.195059 0.001002 0.195059
v -0.187852 0.303543 -0.170100
v -0.193947 0.320313 -0.193947
v -0.170100 0.008262 -0.190249
v -0.195059 0.001002 -0.195059
v 0.170100 0.303543 -0.187852
v 0.193947 0.320313 -0.193947
v 0.170100 0.303543 0.187852
v 0.170100 0.008262 -0.190249
v 0.169735 0.303404 -0.169735
v -0.170100 0.008262 0.190249
v -0.170100 0.303543 -0.187852
v -0.169735 0.303404 -0.169735
v 0.187852 0.303543 -0.170100
v -0.190249 0.008262 -0.170100
v 0.190249 0.008262 0.170100
v -0.187852 0.303543 0.170100
v 0.169735 0.303404 0.169735
v -0.169735 0.303404 0.169735
v -0.170100 0.001002 -0.170100
v -0.170100 0.001002 -0.197568
v 0.170100 0.001002 -0.197568
v 0.170100 0.001002 -0.170100
v 0.197568 0.001002 -0.170100
v -0.197568 0.001002 -0.170100
v 0.170100 0.001002 0.197568
v 0.170100 0.001002 0.170100
v -0.170100 0.001002 0.197568
v -0.170100 0.001002 0.170100
v 0.197568 0.001002 0.170100
v -0.197568 0.001002 0.170100
v 0.170100 0.323934 -0.170100
v 0.170100 0.321425 -0.195059
v -0.170100 0.323934 -0.170100
v -0.170100 0.321425 -0.195059
v -0.195059 0.321425 -0.170100
v 0.195059 0.321425 -0.170100
v 0.170100 0.321425 0.195059
v 0.170100 0.323934 0.170100
v -0.170100 0.321425 0.195059
v -0.170100 0.323934 0.170100
v -0.195059 0.321425 0.170100
v 0.195059 0.321425 0.170100
v -0.194283 0.215453 0.194283
v -0.194352 0.196347 0.194352
v -0.194653 0.112992 0.194653
v -0.194722 0.093910 0.194722
v -0.170100 0.216136 0.188558
v -0.170100 0.197028 0.188714
v -0.170100 0.113303 0.189395
v -0.170100 0.094222 0.189550
v -0.188714 0.197028 0.170100
v -0.188558 0.216136 0.170100
v -0.189550 0.094222 0.170100
v -0.189395 0.113303 0.170100
v -0.170100 0.198767 0.170100
v -0.170064 0.217865 0.170064
v -0.170100 0.095121 0.170100
v -0.170100 0.114195 0.170100
v 0.194283 0.215453 0.194283
v 0.194352 0.196347 0.194352
v 0.194653 0.112992 0.194653
v 0.194722 0.093910 0.194722
v 0.170100 0.197028 0.188714
v 0.170100 0.216136 0.188558
v 0.170100 0.094222 0.189550
v 0.170100 0.113303 0.189395
v 0.188558 0.216136 0.170100
v 0.188714 0.197028 0.170100
v 0.189395 0.113303 0.170100
v 0.189550 0.094222 0.170100
v 0.170064 0.217865 0.170064
v 0.170100 0.198767 0.170100
v 0.170100 0.114195 0.170100
v 0.170100 0.095121 0.170100
v 0.194283 0.215453 -0.194283
v 0.194352 0.196347 -0.194352
v 0.194653 0.112992 -0.194653
v 0.194722 0.093910 -0.194722
v 0.170100 0.216136 -0.188558
v 0.170100 0.197028 -0.188714
v 0.170100 0.113303 -0.189395
v 0.170100 0.094222 -0.189550
v 0.188714 0.197028 -0.170100
v 0.188558 0.216136 -0.170100
v 0.189550 0.094222 -0.170100
v 0.189395 0.113303 -0.170100
v 0.170100 0.095121 -0.170100
v 0.170100 0.114195 -0.170100
v 0.170100 0.198767 -0.170100
v 0.170064 0.217865 -0.170064
v -0.194653 0.112992 -0.194653
v -0.194722 0.093910 -0.194722
v -0.194283 0.215453 -0.194283
v -0.194352 0.196347 -0.194352
v -0.170100 0.197028 -0.188714
v -0.170100 0.216136 -0.188558
v -0.170100 0.094222 -0.189550
v -0.170100 0.113303 -0.189395
v -0.188558 0.216136 -0.170100
v -0.188714 0.197028 -0.170100
v -0.189395 0.113303 -0.170100
v -0.189550 0.094222 -0.170100
v -0.170100 0.095121 -0.170100
v -0.170100 0.114195 -0.170100
v -0.170100 0.198767 -0.170100
v -0.170064 0.217865 -0.170064
v 0.170100 0.113362 0.196654
v 0.170100 0.094282 0.196809
v 0.170100 0.094282 -0.196809
v 0.170100 0.113362 -0.196654
v -0.170100 0.113362 -0.196654
v -0.170100 0.094282 -0.196809
v -0.170100 0.094282 0.196809
v -0.170100 0.113362 0.196654
v 0.196654 0.113362 -0.170100
v 0.196809 0.094282 -0.170100
v -0.196809 0.094282 -0.170100
v -0.196654 0.113362 -0.170100
v -0.196654 0.113362 0.170100
v -0.196809 0.094282 0.170100
v 0.196809 0.094282 0.170100
v 0.196654 0.113362 0.170100
v -0.170100 0.197089 0.195973
v -0.170100 0.216193 0.195817
v -0.195817 0.216193 0.170100
v -0.195973 0.197089 0.170100
v 0.170100 0.216193 0.195817
v 0.170100 0.197089 0.195973
v 0.195973 0.197089 0.170100
v 0.195817 0.216193 0.170100
v 0.170100 0.197089 -0.195973
v 0.170100 0.216193 -0.195817
v 0.195817 0.216193 -0.170100
v 0.195973 0.197089 -0.170100
v -0.170100 0.216193 -0.195817
v -0.170100 0.197089 -0.195973
v -0.195973 0.197089 -0.170100
v -0.195817 0.216193 -0.170100
v -0.170100 0.016947 0.170100
v 0.170100 0.016947 0.170100
v 0.170100 0.016947 -0.170100
v -0.170100 0.016947 -0.170100
vn -0.0000 -1.0000 -0.0000
vn 0.0755 0.9943 -0.0755
vn -0.0755 0.9943 -0.0755
vn -0.0755 0.9943 0.0755
vn 0.0755 0.9943 0.0755
vn 1.0000 -0.0000 -0.0000
vn -1.0000 -0.0000 -0.0000
vn -0.0000 -0.0000 1.0000
vn -0.0000 -0.0000 -1.0000
vn -1.0000 0.0032 -0.0037
vn -0.9999 0.0077 -0.0089
vn -1.0000 0.0059 -0.0068
vn 0.9999 0.0077 -0.0089
vn 1.0000 0.0032 -0.0037
vn 1.0000 0.0059 -0.0068
vn -0.0037 0.0032 1.0000
vn -0.0089 0.0077 0.9999
vn -0.0068 0.0059 1.0000
vn 0.0089 0.0077 0.9999
vn 0.0037 0.0032 1.0000
vn 0.0068 0.0059 1.0000
vn -0.9999 0.0077 0.0089
vn -1.0000 0.0032 0.0037
vn -1.0000 0.0059 0.0068
vn 1.0000 0.0032 0.0037
vn 0.9999 0.0077 0.0089
vn 1.0000 0.0059 0.0068
vn -0.0089 0.0077 -0.9999
vn -0.0037 0.0032 -1.0000
vn -0.0068 0.0059 -1.0000
vn 0.0037 0.0032 -1.0000
vn 0.0089 0.0077 -0.9999
vn 0.0068 0.0059 -1.0000
vn -0.0698 0.0060 0.9975
vn -0.0696 0.0060 0.9976
vn -0.0601 0.0056 0.9982
vn -0.0603 0.0056 0.9982
vn -0.0877 0.0060 0.9961
vn -0.0876 0.0060 0.9961
vn -0.0785 0.0060 0.9969
vn -0.0786 0.0060 0.9969
vn -0.9976 0.0060 0.0696
vn -0.9975 0.0060 0.0698
vn -0.9982 0.0056 0.0603
vn -0.9982 0.0056 0.0601
vn -0.9961 0.0060 0.0876
vn -0.9961 0.0060 0.0877
vn -0.9969 0.0060 0.0786
vn -0.9969 0.0060 0.0785
vn 1.0000 -0.0009 0.0009
vn 1.0000 -0.0003 0.0003
vn -0.0009 -0.0009 -1.0000
vn -0.0003 -0.0003 -1.0000
vn -1.0000 -0.0009 0.0009
vn -1.0000 -0.0003 0.0003
vn 0.9975 0.0060 0.0698
vn 0.9976 0.0060 0.0696
vn 0.9982 0.0056 0.0601
vn 0.9982 0.0056 0.0603
vn 0.9961 0.0060 0.0877
vn 0.9961 0.0060 0.0876
vn 0.9969 0.0060 0.0785
vn 0.9969 0.0060 0.0786
vn 0.0696 0.0060 0.9976
vn 0.0698 0.0060 0.9975
vn 0.0603 0.0056 0.9982
vn 0.0601 0.0056 0.9982
vn 0.0876 0.0060 0.9961
vn 0.0877 0.0060 0.9961
vn 0.0786 0.0060 0.9969
vn 0.0785 0.0060 0.9969
vn 0.0009 -0.0009 -1.0000
vn 0.0003 -0.0003 -1.0000
vn 0.0698 0.0060 -0.9975
vn 0.0696 0.0060 -0.9976
vn 0.0601 0.0056 -0.9982
vn 0.0603 0.0056 -0.9982
vn 0.0877 0.0060 -0.9961
vn 0.0876 0.0060 -0.9961
vn 0.0785 0.0060 -0.9969
vn 0.0786 0.0060 -0.9969
vn 0.9969 0.0060 -0.0786
vn 0.9969 0.0060 -0.0785
vn 0.9961 0.0060 -0.0876
vn 0.9961 0.0060 -0.0877
vn 0.9982 0.0056 -0.0603
vn 0.9982 0.0056 -0.0601
vn 0.9976 0.0060 -0.0696
vn 0.9975 0.0060 -0.0698
vn -1.0000 -0.0009 -0.0009
vn -1.0000 -0.0003 -0.0003
vn 0.0009 -0.0009 1.0000
vn 0.0003 -0.0003 1.0000
vn -0.9975 0.0060 -0.0698
vn -0.9976 0.0060 -0.0696
vn -0.9982 0.0056 -0.0601
vn -0.9982 0.0056 -0.0603
vn -0.9961 0.0060 -0.0877
vn -0.9961 0.0060 -0.0876
vn -0.9969 0.0060 -0.0785
vn -0.9969 0.0060 -0.0786
vn -0.0696 0.0060 -0.9976
vn -0.0698 0.0060 -0.9975
vn -0.0603 0.0056 -0.9982
vn -0.0601 0.0056 -0.9982
vn -0.0876 0.0060 -0.9961
vn -0.0877 0.0060 -0.9961
vn -0.0786 0.0060 -0.9969
vn -0.0785 0.0060 -0.9969
vn -0.0009 -0.0009 1.0000
vn -0.0003 -0.0003 1.0000
vn 1.0000 -0.0009 -0.0009
vn 1.0000 -0.0003 -0.0003
vn -0.9985 0.0053 0.0552
vn -0.0552 0.0053 0.9985
vn -0.0923 0.0060 0.9957
vn -0.9957 0.0060 0.0923
vn -0.0000 0.9957 0.0930
vn -0.0000 -0.9957 -0.0931
vn -0.0000 0.9989 0.0462
vn 0.0462 -0.9989 -0.0000
vn 0.0931 -0.9957 -0.0000
vn -0.0462 0.9989 -0.0000
vn 0.0552 0.0053 0.9985
vn 0.9985 0.0053 0.0552
vn 0.9957 0.0060 0.0923
vn 0.0923 0.0060 0.9957
vn -0.0000 0.0081 1.0000
vn 0.0930 0.9957 -0.0000
vn -0.0931 -0.9957 -0.0000
vn 0.0462 0.9989 -0.0000
vn 0.0552 0.0053 -0.9985
vn 0.9985 0.0053 -0.0552
vn 0.9957 0.0060 -0.0923
vn 0.0923 0.0060 -0.9957
vn -0.0000 0.9957 -0.0930
vn -0.0000 -0.9957 0.0931
vn -0.0000 0.9989 -0.0462
vn 1.0000 0.0081 -0.0000
vn -0.9957 0.0060 -0.0923
vn -0.0923 0.0060 -0.9957
vn -0.0552 0.0053 -0.9985
vn -0.9985 0.0053 -0.0552
vn -0.0000 0.0081 -1.0000
vn -0.0000 -0.0038 1.0000
vn -1.0000 0.0081 -0.0000
vn 1.0000 -0.0038 -0.0000
vn -0.0000 -0.0038 -1.0000
vn -0.0000 1.0000 -0.0077
vn -0.0000 -0.9989 -0.0462
vn -0.0930 0.9957 -0.0000
vn 0.0077 1.0000 -0.0000
vn -0.0000 1.0000 0.0077
vn -0.0000 -0.9989 0.0462
vn -0.0462 -0.9989 -0.0000
vn -1.0000 -0.0038 -0.0000
vn -0.0077 1.0000 -0.0000
vn -0.0000 1.0000 -0.0000
vt 0.353164 0.828808
vt 0.332217 0.828808
vt 0.332217 0.807860
vt 0.351251 0.809774
vt 0.323779 0.807860
vt 0.323779 0.828808
vt 0.302832 0.828808
vt 0.304745 0.809774
vt 0.380635 0.809774
vt 0.382549 0.828808
vt 0.361602 0.828808
vt 0.361602 0.807860
vt 0.410021 0.826894
vt 0.390987 0.828808
vt 0.390987 0.807860
vt 0.411934 0.807860
vt 0.467067 0.807860
vt 0.467067 0.826990
vt 0.448857 0.826232
vt 0.447938 0.808029
vt 0.439501 0.826822
vt 0.420372 0.826990
vt 0.420372 0.807860
vt 0.438581 0.808619
vt 0.493714 0.826232
vt 0.475504 0.826990
vt 0.475504 0.807860
vt 0.494633 0.808029
vt 0.522200 0.826990
vt 0.503990 0.826232
vt 0.503071 0.808029
vt 0.522200 0.807860
vt 0.820606 0.009762
vt 0.805240 0.009780
vt 0.805233 0.004244
vt 0.826181 0.004219
vt 0.884951 0.009755
vt 0.869585 0.009755
vt 0.864003 0.004219
vt 0.884951 0.004219
vt 0.820606 0.277642
vt 0.805240 0.277661
vt 0.805233 0.272125
vt 0.826181 0.272099
vt 0.855566 0.277635
vt 0.840200 0.277635
vt 0.834618 0.272099
vt 0.855566 0.272099
vt 0.287472 0.308375
vt 0.272106 0.308393
vt 0.272099 0.302857
vt 0.293047 0.302832
vt 0.914617 0.009755
vt 0.899251 0.009755
vt 0.893669 0.004219
vt 0.914617 0.004219
vt 0.885232 0.277635
vt 0.869866 0.277635
vt 0.864284 0.272099
vt 0.885232 0.272099
vt 0.849991 0.009762
vt 0.834625 0.009780
vt 0.834618 0.004244
vt 0.855566 0.004219
vt 0.871413 0.234942
vt 0.885232 0.234834
vt 0.884951 0.250493
vt 0.865917 0.248579
vt 0.805233 0.234859
vt 0.819053 0.234951
vt 0.824565 0.248582
vt 0.805534 0.250519
vt 0.842028 0.502823
vt 0.855847 0.502714
vt 0.855566 0.518374
vt 0.836532 0.516460
vt 0.805233 0.502740
vt 0.819053 0.502831
vt 0.824565 0.516462
vt 0.805534 0.518399
vt 0.272099 0.533473
vt 0.285919 0.533564
vt 0.291431 0.547195
vt 0.272399 0.549132
vt 0.901079 0.234942
vt 0.914898 0.234834
vt 0.914617 0.250493
vt 0.895583 0.248579
vt 0.834618 0.234859
vt 0.848438 0.234951
vt 0.853950 0.248582
vt 0.834918 0.250519
vt 0.871694 0.502823
vt 0.885513 0.502714
vt 0.885232 0.518374
vt 0.866198 0.516460
vt 0.923922 0.153207
vt 0.942459 0.153763
vt 0.942459 0.168333
vt 0.923979 0.167778
vt 0.923616 0.075087
vt 0.942461 0.075358
vt 0.942460 0.089909
vt 0.923673 0.089638
vt 0.949090 0.421644
vt 0.967627 0.421088
vt 0.967570 0.435658
vt 0.949091 0.436214
vt 0.949088 0.343238
vt 0.967934 0.342967
vt 0.967876 0.357519
vt 0.949089 0.357790
vt 0.914617 0.090542
vt 0.899902 0.089862
vt 0.899784 0.075310
vt 0.914617 0.075996
vt 0.914644 0.169603
vt 0.900540 0.168284
vt 0.900422 0.153712
vt 0.914617 0.155038
vt 0.834802 0.155063
vt 0.848996 0.153720
vt 0.848895 0.168292
vt 0.834792 0.169628
vt 0.834706 0.076021
vt 0.849538 0.075317
vt 0.849437 0.089869
vt 0.834724 0.090567
vt 0.272283 0.453676
vt 0.286476 0.452333
vt 0.286376 0.466905
vt 0.272273 0.468241
vt 0.272187 0.374634
vt 0.287019 0.373931
vt 0.286918 0.388482
vt 0.272204 0.389181
vt 0.931885 0.688968
vt 0.950421 0.689525
vt 0.950421 0.704094
vt 0.931941 0.703539
vt 0.931578 0.610848
vt 0.950423 0.611119
vt 0.950422 0.625670
vt 0.931635 0.625400
vt 0.893956 0.421644
vt 0.912493 0.421088
vt 0.912436 0.435658
vt 0.893956 0.436214
vt 0.893954 0.343238
vt 0.912799 0.342967
vt 0.912742 0.357519
vt 0.893955 0.357790
vt 0.885232 0.358423
vt 0.870517 0.357742
vt 0.870399 0.343191
vt 0.885232 0.343876
vt 0.885259 0.437483
vt 0.871155 0.436164
vt 0.871037 0.421593
vt 0.885232 0.422918
vt 0.959344 0.688955
vt 0.977880 0.689525
vt 0.977869 0.704094
vt 0.959390 0.703526
vt 0.959094 0.610834
vt 0.977939 0.611119
vt 0.977928 0.625670
vt 0.959141 0.625386
vt 0.940309 0.357519
vt 0.921522 0.357790
vt 0.921521 0.343238
vt 0.940366 0.342967
vt 0.940003 0.435658
vt 0.921524 0.436214
vt 0.921523 0.421644
vt 0.940060 0.421088
vt 0.884951 0.090542
vt 0.870236 0.089862
vt 0.870118 0.075310
vt 0.884951 0.075996
vt 0.884978 0.169603
vt 0.870874 0.168284
vt 0.870756 0.153712
vt 0.884951 0.155038
vt 0.805417 0.422944
vt 0.819611 0.421601
vt 0.819510 0.436173
vt 0.805407 0.437509
vt 0.805321 0.343902
vt 0.820153 0.343198
vt 0.820052 0.357750
vt 0.805339 0.358448
vt 0.977131 0.421074
vt 0.995667 0.421644
vt 0.995656 0.436214
vt 0.977177 0.435645
vt 0.976881 0.342954
vt 0.995726 0.343238
vt 0.995715 0.357790
vt 0.976928 0.357505
vt 0.951017 0.153763
vt 0.969553 0.153194
vt 0.969507 0.167764
vt 0.951027 0.168333
vt 0.950958 0.075358
vt 0.969803 0.075073
vt 0.969756 0.089625
vt 0.950969 0.089909
vt 0.855566 0.358423
vt 0.840851 0.357742
vt 0.840733 0.343191
vt 0.855566 0.343876
vt 0.855593 0.437483
vt 0.841489 0.436164
vt 0.841371 0.421593
vt 0.855566 0.422918
vt 0.805417 0.155063
vt 0.819611 0.153720
vt 0.819510 0.168292
vt 0.805407 0.169628
vt 0.805321 0.076021
vt 0.820153 0.075317
vt 0.820052 0.089869
vt 0.805339 0.090567
vt 0.292454 0.388520
vt 0.292555 0.373969
vt 0.864700 0.089906
vt 0.864582 0.075355
vt 0.825588 0.089907
vt 0.825689 0.075356
vt 0.894366 0.089906
vt 0.894248 0.075355
vt 0.825588 0.357788
vt 0.825689 0.343237
vt 0.835315 0.357787
vt 0.835197 0.343236
vt 0.854973 0.089907
vt 0.855074 0.075356
vt 0.864981 0.357787
vt 0.864863 0.343236
vt 0.894886 0.153759
vt 0.895004 0.168328
vt 0.854532 0.153760
vt 0.854431 0.168329
vt 0.292013 0.452373
vt 0.291912 0.466942
vt 0.865501 0.421639
vt 0.865619 0.436208
vt 0.865220 0.153759
vt 0.865338 0.168328
vt 0.825147 0.421640
vt 0.825046 0.436210
vt 0.825147 0.153760
vt 0.825046 0.168329
vt 0.835835 0.421639
vt 0.835953 0.436208
vt 0.967291 0.515627
vt 0.949084 0.516468
vt 0.942465 0.248587
vt 0.924259 0.247747
vt 0.923335 0.004233
vt 0.942465 0.004219
vt 0.949084 0.272099
vt 0.968214 0.272113
vt 0.381584 0.799423
vt 0.367327 0.799423
vt 0.367327 0.539980
vt 0.381584 0.539980
vt 0.316997 0.263662
vt 0.302832 0.263634
vt 0.302832 0.004246
vt 0.316997 0.004219
vt 0.212295 0.570712
vt 0.227144 0.570712
vt 0.227144 0.830156
vt 0.212295 0.830156
vt 0.654191 0.263662
vt 0.639461 0.263662
vt 0.639461 0.004219
vt 0.654191 0.004219
vt 0.462709 0.531515
vt 0.448543 0.531543
vt 0.448543 0.272099
vt 0.462709 0.272127
vt 0.708843 0.799423
vt 0.693994 0.799423
vt 0.693994 0.539980
vt 0.708843 0.539980
vt 0.912156 0.515627
vt 0.893950 0.516468
vt 0.950427 0.784348
vt 0.932221 0.783508
vt 0.931297 0.539994
vt 0.950427 0.539980
vt 0.893950 0.272099
vt 0.913080 0.272113
vt 0.445437 0.799423
vt 0.445437 0.539980
vt 0.383658 0.263662
vt 0.383658 0.004219
vt 0.152679 0.570712
vt 0.152679 0.830156
vt 0.547357 0.799423
vt 0.533100 0.799423
vt 0.533100 0.539980
vt 0.547357 0.539980
vt 0.485312 0.263662
vt 0.471146 0.263634
vt 0.471146 0.004246
vt 0.485312 0.004219
vt 0.842454 0.539980
vt 0.857303 0.539980
vt 0.857303 0.799423
vt 0.842454 0.799423
vt 0.977817 0.784348
vt 0.959612 0.783495
vt 0.939723 0.515627
vt 0.921517 0.516468
vt 0.940647 0.272113
vt 0.921517 0.272099
vt 0.958865 0.539980
vt 0.977994 0.539980
vt 0.718044 0.272099
vt 0.732300 0.272099
vt 0.732300 0.531543
vt 0.718044 0.531543
vt 0.471146 0.272127
vt 0.485312 0.272099
vt 0.485312 0.531543
vt 0.471146 0.531515
vt 0.084625 0.830156
vt 0.069776 0.830156
vt 0.069776 0.570712
vt 0.084625 0.570712
vt 0.611210 0.799423
vt 0.611210 0.539980
vt 0.551972 0.263662
vt 0.551972 0.004219
vt 0.782837 0.539980
vt 0.782837 0.799423
vt 0.976652 0.272099
vt 0.995781 0.272099
vt 0.950902 0.004219
vt 0.970032 0.004219
vt 0.969285 0.247733
vt 0.951079 0.248587
vt 0.995604 0.516467
vt 0.977399 0.515614
vt 0.654191 0.272099
vt 0.654191 0.531543
vt 0.565789 0.272378
vt 0.631023 0.272127
vt 0.631023 0.531515
vt 0.565789 0.531264
vt 0.144241 0.830156
vt 0.144241 0.570712
vt 0.718044 0.263662
vt 0.718044 0.004219
vt 0.368066 0.531264
vt 0.302832 0.531515
vt 0.302832 0.272127
vt 0.368066 0.272378
vt 0.774400 0.799423
vt 0.774400 0.539980
vt 0.462709 0.263634
vt 0.397475 0.263384
vt 0.397475 0.004497
vt 0.462709 0.004246
vt 0.302832 0.799423
vt 0.302832 0.539980
vt 0.460167 0.799423
vt 0.460167 0.539980
vt 0.292701 0.570712
vt 0.292701 0.830156
vt 0.279028 0.004219
vt 0.279028 0.019585
vt 0.019585 0.019585
vt 0.019585 0.004219
vt 0.294394 0.019585
vt 0.294394 0.279028
vt 0.279028 0.279028
vt 0.796796 0.263662
vt 0.732300 0.263662
vt 0.732300 0.004219
vt 0.796796 0.004219
vt 0.381883 0.531543
vt 0.381883 0.272099
vt 0.551972 0.272099
vt 0.551972 0.531543
vt 0.796796 0.272099
vt 0.796796 0.531543
vt 0.639460 0.272099
vt 0.639461 0.531543
vt 0.004219 0.830156
vt 0.004219 0.570712
vt 0.019585 0.294394
vt 0.019585 0.279028
vt 0.279028 0.294394
vt 0.922860 0.539980
vt 0.922860 0.799423
vt 0.004219 0.019585
vt 0.004219 0.279028
vt 0.468605 0.799423
vt 0.468605 0.539980
vt 0.625940 0.799423
vt 0.625940 0.539980
vt 0.631023 0.263634
vt 0.565789 0.263384
vt 0.565789 0.004497
vt 0.631023 0.004246
vt 0.634377 0.799423
vt 0.634377 0.539980
vt 0.263662 0.302832
vt 0.263662 0.562275
vt 0.004219 0.562275
vt 0.004219 0.302832
s 1
f 37/1/1 36/2/1 35/3/1 6/4/1
f 39/5/1 40/6/1 43/7/1 10/8/1
f 14/9/1 44/10/1 42/11/1 41/12/1
f 18/13/1 34/14/1 33/15/1 38/16/1
f 45/17/2 50/18/2 20/19/2 46/20/2
f 49/21/3 47/22/3 48/23/3 16/24/3
f 12/25/4 53/26/4 54/27/4 55/28/4
f 51/29/5 8/30/5 56/31/5 52/32/5
f 17/33/6 2/34/6 33/35/6 34/36/6
f 1/37/7 22/38/7 35/39/7 36/40/7
f 5/41/8 1/42/8 36/43/8 37/44/8
f 2/45/8 28/46/8 38/47/8 33/48/8
f 9/49/7 3/50/7 40/51/7 39/52/7
f 4/53/6 24/54/6 41/55/6 42/56/6
f 3/57/9 29/58/9 43/59/9 40/60/9
f 13/61/9 4/62/9 42/63/9 44/64/9
f 19/65/10 23/66/11 45/67/11 46/68/12
f 26/69/13 25/70/14 48/71/15 47/72/13
f 15/73/16 26/74/17 47/75/17 49/76/18
f 23/77/19 27/78/20 50/79/21 45/80/19
f 31/81/22 21/82/23 51/83/24 52/84/22
f 11/85/25 32/86/26 54/87/26 53/88/27
f 32/89/28 30/90/29 55/91/30 54/92/28
f 7/93/31 31/94/32 52/95/32 56/96/33
f 58/97/34 137/98/35 138/99/36 57/100/37
f 60/101/38 127/102/39 128/103/40 59/104/41
f 140/105/42 58/106/43 57/107/44 139/108/45
f 134/109/46 60/110/47 59/111/48 133/112/49
f 72/113/6 63/114/6 64/115/6 71/116/6
f 70/117/50 61/118/51 62/119/51 69/120/50
f 69/121/52 65/122/53 66/123/53 70/124/52
f 71/125/9 67/126/9 68/127/9 72/128/9
f 86/129/54 77/130/55 78/131/55 85/132/54
f 88/133/7 79/134/7 80/135/7 87/136/7
f 74/137/56 143/138/57 144/139/58 73/140/59
f 76/141/60 135/142/61 136/143/62 75/144/63
f 142/145/64 74/146/65 73/147/66 141/148/67
f 122/149/68 76/150/69 75/151/70 121/152/71
f 87/153/9 83/154/9 84/155/9 88/156/9
f 85/157/72 81/158/73 82/159/73 86/160/72
f 90/161/74 145/162/75 146/163/76 89/164/77
f 92/165/78 123/166/79 124/167/80 91/168/81
f 91/169/82 129/170/83 130/171/84 92/172/85
f 89/173/86 147/174/87 148/175/88 90/176/89
f 102/177/7 95/178/7 96/179/7 101/180/7
f 104/181/90 93/182/91 94/183/91 103/184/90
f 103/185/92 97/186/93 98/187/93 104/188/92
f 101/189/8 99/190/8 100/191/8 102/192/8
f 108/193/94 151/194/95 152/195/96 107/196/97
f 106/197/98 131/198/99 132/199/100 105/200/101
f 150/201/102 108/202/103 107/203/104 149/204/105
f 126/205/106 106/206/107 105/207/108 125/208/109
f 118/209/8 115/210/8 116/211/8 117/212/8
f 120/213/110 113/214/111 114/215/111 119/216/110
f 119/217/112 109/218/113 110/219/113 120/220/112
f 117/221/6 111/222/6 112/223/6 118/224/6
f 121/225/7 80/135/7 79/134/7 122/226/7
f 95/178/7 124/227/7 123/228/7 96/179/7
f 125/229/6 112/223/6 111/222/6 126/230/6
f 63/114/6 128/231/6 127/232/6 64/115/6
f 129/233/8 100/191/8 99/190/8 130/234/8
f 115/210/8 132/235/8 131/236/8 116/211/8
f 133/237/9 68/127/9 67/126/9 134/238/9
f 83/154/9 136/239/9 135/240/9 84/155/9
f 137/241/6 62/119/51 61/118/51 138/242/6
f 65/122/53 140/243/9 139/244/9 66/123/53
f 77/130/55 142/245/7 141/246/7 78/131/55
f 143/247/9 82/159/73 81/158/73 144/248/9
f 145/249/7 94/183/91 93/182/91 146/250/7
f 97/186/93 148/251/8 147/252/8 98/187/93
f 109/218/113 150/253/6 149/254/6 110/219/113
f 151/255/8 114/215/111 113/214/111 152/256/8
f 12/257/114 55/258/114 139/108/45 57/107/44
f 137/98/35 58/97/34 59/104/41 128/103/40
f 53/259/115 12/260/115 57/100/37 138/99/36
f 58/106/43 140/105/42 133/112/49 59/111/48
f 127/102/39 60/101/38 14/261/116 41/262/116
f 60/110/47 134/109/46 44/263/117 14/264/117
f 77/265/118 86/266/118 69/267/118 62/268/118
f 63/114/6 62/119/51 137/241/6 128/231/6
f 61/269/119 70/270/119 85/271/119 78/272/119
f 61/118/51 11/85/25 53/88/27 138/242/6
f 71/273/120 64/274/120 79/275/120 88/276/120
f 24/54/6 64/115/6 127/232/6 41/55/6
f 115/277/121 118/278/121 72/279/121 68/280/121
f 70/281/122 66/282/122 113/283/122 120/284/122
f 65/122/53 68/127/9 133/237/9 140/243/9
f 30/90/29 66/123/53 139/244/9 55/91/30
f 67/285/123 71/286/123 117/287/123 116/288/123
f 67/126/9 13/61/9 44/64/9 134/238/9
f 8/289/124 51/290/124 141/148/67 73/147/66
f 143/138/57 74/137/56 75/144/63 136/143/62
f 56/291/125 8/292/125 73/140/59 144/139/58
f 74/146/65 142/145/64 121/152/71 75/151/70
f 135/142/61 76/141/60 10/293/126 43/294/126
f 76/150/69 122/149/68 39/295/127 10/296/127
f 80/297/128 77/265/128 62/268/128 63/298/128
f 11/299/128 61/269/128 78/272/128 21/300/128
f 77/130/55 80/135/7 121/225/7 142/245/7
f 21/82/23 78/131/55 141/246/7 51/83/24
f 153/301/9 71/273/9 88/276/9 154/302/9
f 79/134/7 9/49/7 39/52/7 122/226/7
f 97/303/129 103/304/129 86/305/129 82/306/129
f 83/154/9 82/159/73 143/247/9 136/239/9
f 81/307/130 85/308/130 104/309/130 98/310/130
f 81/158/73 7/93/31 56/96/33 144/248/9
f 88/311/131 84/312/131 99/313/131 101/314/131
f 29/58/9 84/155/9 135/240/9 43/59/9
f 46/315/132 20/316/132 89/164/77 146/163/76
f 91/169/82 90/176/89 148/175/88 129/170/83
f 89/173/86 20/317/133 50/318/133 147/174/87
f 145/162/75 90/161/74 91/168/81 124/167/80
f 6/319/134 92/172/85 130/171/84 37/320/134
f 123/166/79 92/165/78 6/321/135 35/322/135
f 109/323/136 119/324/136 103/325/136 94/326/136
f 95/178/7 94/183/91 145/249/7 124/227/7
f 120/327/137 110/328/137 93/329/137 104/330/137
f 93/182/91 19/65/10 46/68/12 146/250/7
f 101/331/138 96/332/138 111/333/138 117/334/138
f 22/38/7 96/179/7 123/228/7 35/39/7
f 100/335/139 97/303/139 82/306/139 83/336/139
f 7/337/139 81/307/139 98/310/139 27/338/139
f 97/186/93 100/191/8 129/233/8 148/251/8
f 27/78/20 98/187/93 147/252/8 50/79/21
f 154/339/7 88/311/7 101/314/7 155/340/7
f 99/190/8 5/41/8 37/44/8 130/234/8
f 131/198/99 106/197/98 18/341/140 38/342/140
f 108/202/103 150/201/102 125/208/109 105/207/108
f 151/194/95 108/193/94 105/200/101 132/199/100
f 106/206/107 126/205/106 34/343/141 18/344/141
f 16/345/142 48/346/142 149/204/105 107/203/104
f 49/347/143 16/348/143 107/196/97 152/195/96
f 112/349/144 109/323/144 94/326/144 95/350/144
f 26/351/145 120/352/145 104/353/145 23/354/145
f 109/218/113 112/223/6 125/229/6 150/253/6
f 25/70/14 110/219/113 149/254/6 48/71/15
f 155/355/8 101/331/8 117/334/8 156/356/8
f 111/222/6 17/33/6 34/36/6 126/230/6
f 114/357/146 115/277/146 68/280/146 65/358/146
f 115/210/8 114/215/111 151/255/8 132/235/8
f 32/359/147 70/360/147 120/361/147 26/362/147
f 113/214/111 15/73/16 49/76/18 152/256/8
f 13/363/146 67/285/146 116/288/146 28/364/146
f 28/46/8 116/211/8 131/236/8 38/47/8
f 70/365/148 32/366/148 31/367/148 85/368/148
f 32/366/149 11/299/149 21/300/149 31/367/149
f 86/266/9 87/369/9 72/370/9 69/267/9
f 87/371/150 80/297/150 63/298/150 72/372/150
f 64/274/128 24/373/128 9/374/128 79/275/128
f 24/375/1 4/376/1 3/377/1 9/378/1
f 4/376/1 13/379/1 28/380/1 2/381/1
f 118/382/6 119/383/6 69/384/6 72/385/6
f 119/383/151 114/357/151 65/358/151 69/384/151
f 66/282/146 30/386/146 15/387/146 113/283/146
f 30/386/152 32/359/152 26/362/152 15/387/152
f 110/328/144 25/388/144 19/389/144 93/329/144
f 25/388/153 26/351/153 23/354/153 19/389/153
f 119/324/8 118/390/8 102/391/8 103/325/8
f 118/392/154 112/349/154 95/350/154 102/393/154
f 96/332/144 22/394/144 17/395/144 111/333/144
f 22/396/1 1/397/1 2/381/1 17/398/1
f 84/312/139 29/399/139 5/400/139 99/313/139
f 29/401/1 3/377/1 1/397/1 5/402/1
f 103/304/7 102/403/7 87/404/7 86/305/7
f 102/405/155 100/335/155 83/336/155 87/406/155
f 85/407/156 31/408/156 23/409/156 104/410/156
f 31/408/157 7/337/157 27/338/157 23/409/157
f 71/286/6 153/411/6 156/412/6 117/287/6
f 3/377/1 4/376/1 2/381/1 1/397/1
f 156/413/158 153/414/158 154/415/158 155/416/158
