# Blender 5.1.2
# www.blender.org
mtllib BrickPallet.mtl
o BrickPallet.001
v 0.800000 0.277227 -0.800000
v 0.800000 1.480992 -0.800000
v 0.800000 0.277227 0.800000
v 0.800000 1.480992 0.800000
v -0.800000 0.277227 -0.800000
v -0.800000 1.480992 -0.800000
v -0.800000 0.277227 0.800000
v -0.800000 1.480992 0.800000
v 0.900000 0.175904 -0.900000
v 0.900000 0.226480 -0.900000
v 0.900000 0.175904 0.900000
v 0.900000 0.226480 0.900000
v -0.900000 0.175904 -0.900000
v -0.900000 0.226480 -0.900000
v -0.900000 0.175904 0.900000
v -0.900000 0.226480 0.900000
v -0.642857 0.175904 0.900000
v -0.128571 0.175904 0.900000
v 0.128571 0.175904 0.900000
v 0.642857 0.175904 0.900000
v 0.641423 0.226480 0.900000
v 0.127867 0.226480 0.900000
v -0.127867 0.226480 0.900000
v -0.641423 0.226480 0.900000
v 0.642857 0.175904 -0.900000
v 0.128571 0.175904 -0.900000
v -0.128571 0.175904 -0.900000
v -0.642857 0.175904 -0.900000
v -0.641423 0.226480 -0.900000
v -0.127867 0.226480 -0.900000
v 0.127867 0.226480 -0.900000
v 0.641423 0.226480 -0.900000
v 0.900000 0.000339 0.900000
v 0.900000 0.000339 -0.900000
v 0.642857 0.000339 0.900000
v -0.900000 0.000339 -0.900000
v -0.900000 0.000339 0.900000
v -0.642857 0.000339 -0.900000
v -0.642857 0.000339 0.900000
v -0.128571 0.000339 0.900000
v 0.128571 0.000339 0.900000
v 0.642857 0.000339 -0.900000
v 0.128571 0.000339 -0.900000
v -0.128571 0.000339 -0.900000
v 0.900000 0.175904 0.691875
v 0.900000 0.175904 0.096192
v 0.900000 0.175904 -0.096192
v 0.900000 0.175904 -0.691875
v 0.900000 0.226480 -0.691875
v 0.900000 0.226480 -0.096192
v 0.900000 0.226480 0.096192
v 0.900000 0.226480 0.691875
v -0.900000 0.175904 -0.691875
v -0.900000 0.175904 -0.096192
v -0.900000 0.175904 0.096192
v -0.900000 0.175904 0.691875
v -0.900000 0.226480 0.691875
v -0.900000 0.226480 0.096192
v -0.900000 0.226480 -0.096192
v -0.900000 0.226480 -0.691875
v -0.641423 0.226480 0.691875
v -0.641423 0.226480 0.096192
v -0.641423 0.226480 -0.096192
v -0.641423 0.226480 -0.691875
v -0.127867 0.226480 0.691875
v -0.127867 0.226480 0.096192
v -0.127867 0.226480 -0.096192
v -0.127867 0.226480 -0.691875
v 0.127867 0.226480 0.691875
v 0.127867 0.226480 0.096192
v 0.127867 0.226480 -0.096192
v 0.127867 0.226480 -0.691875
v 0.641423 0.226480 0.691875
v 0.641423 0.226480 0.096192
v 0.641423 0.226480 -0.096192
v 0.641423 0.226480 -0.691875
v 0.642857 0.175904 0.691875
v 0.642857 0.175904 0.096192
v 0.642857 0.175904 -0.096192
v 0.642857 0.175904 -0.691875
v 0.128571 0.175904 0.691875
v 0.128571 0.175904 0.096192
v 0.128571 0.175904 -0.096192
v 0.128571 0.175904 -0.691875
v -0.128571 0.175904 0.691875
v -0.128571 0.175904 0.096192
v -0.128571 0.175904 -0.096192
v -0.128571 0.175904 -0.691875
v -0.642857 0.175904 0.691875
v -0.642857 0.175904 0.096192
v -0.642857 0.175904 -0.096192
v -0.642857 0.175904 -0.691875
v 0.900000 0.000339 0.691875
v 0.900000 0.000339 0.096192
v 0.900000 0.000339 -0.096192
v 0.900000 0.000339 -0.691875
v -0.900000 0.000339 -0.691875
v -0.900000 0.000339 -0.096192
v -0.900000 0.000339 0.096192
v -0.900000 0.000339 0.691875
v 0.642857 0.000339 0.691875
v 0.642857 0.000339 0.096192
v 0.642857 0.000339 -0.096192
v 0.642857 0.000339 -0.691875
v 0.128571 0.000339 0.691875
v 0.128571 0.000339 0.096192
v 0.128571 0.000339 -0.096192
v 0.128571 0.000339 -0.691875
v -0.128571 0.000339 0.691875
v -0.128571 0.000339 0.096192
v -0.128571 0.000339 -0.096192
v -0.128571 0.000339 -0.691875
v -0.642857 0.000339 0.691875
v -0.642857 0.000339 0.096192
v -0.642857 0.000339 -0.096192
v -0.642857 0.000339 -0.691875
v -0.900000 0.028739 0.900000
v -0.642857 0.028739 0.900000
v -0.642857 0.028739 -0.900000
v -0.900000 0.028739 -0.900000
v -0.642857 0.028739 -0.691875
v -0.642857 0.028739 -0.096192
v -0.642857 0.028739 0.096192
v -0.642857 0.028739 0.691875
v -0.900000 0.028739 0.691875
v -0.900000 0.028739 0.096192
v -0.900000 0.028739 -0.096192
v -0.900000 0.028739 -0.691875
v 0.128571 0.028739 0.900000
v 0.128571 0.028739 -0.900000
v -0.128571 0.028739 -0.900000
v -0.128571 0.028739 0.900000
v -0.128571 0.028739 0.691875
v -0.128571 0.028739 0.096192
v -0.128571 0.028739 -0.096192
v -0.128571 0.028739 -0.691875
v 0.128571 0.028739 -0.691875
v 0.128571 0.028739 -0.096192
v 0.128571 0.028739 0.096192
v 0.128571 0.028739 0.691875
v 0.900000 0.028739 -0.900000
v 0.642857 0.028739 -0.900000
v 0.900000 0.028739 0.900000
v 0.642857 0.028739 0.900000
v 0.642857 0.028739 0.691875
v 0.642857 0.028739 0.096192
v 0.642857 0.028739 -0.096192
v 0.642857 0.028739 -0.691875
v 0.900000 0.028739 -0.691875
v 0.900000 0.028739 -0.096192
v 0.900000 0.028739 0.096192
v 0.900000 0.028739 0.691875
v 0.300000 0.175904 0.900000
v 0.471429 0.175904 0.900000
v 0.460713 0.226480 0.900000
v 0.304457 0.226480 0.900000
v 0.471429 0.175904 -0.900000
v 0.300000 0.175904 -0.900000
v 0.304457 0.226480 -0.900000
v 0.460713 0.226480 -0.900000
v 0.300000 0.175904 0.691875
v 0.471429 0.175904 0.691875
v 0.300000 0.175904 0.096192
v 0.471429 0.175904 0.096192
v 0.300000 0.175904 -0.096192
v 0.471429 0.175904 -0.096192
v 0.300000 0.175904 -0.691875
v 0.471429 0.175904 -0.691875
v 0.460713 0.226480 0.691875
v 0.304457 0.226480 0.691875
v 0.460713 0.226480 0.096192
v 0.304457 0.226480 0.096192
v 0.460713 0.226480 -0.096192
v 0.304457 0.226480 -0.096192
v 0.460713 0.226480 -0.691875
v 0.304457 0.226480 -0.691875
v -0.471429 0.175904 0.900000
v -0.300000 0.175904 0.900000
v -0.304457 0.226480 0.900000
v -0.460713 0.226480 0.900000
v -0.300000 0.175904 -0.900000
v -0.471429 0.175904 -0.900000
v -0.460713 0.226480 -0.900000
v -0.304457 0.226480 -0.900000
v -0.304457 0.226480 0.691875
v -0.460713 0.226480 0.691875
v -0.304457 0.226480 0.096192
v -0.460713 0.226480 0.096192
v -0.304457 0.226480 -0.096192
v -0.460713 0.226480 -0.096192
v -0.304457 0.226480 -0.691875
v -0.460713 0.226480 -0.691875
v -0.471429 0.175904 0.691875
v -0.300000 0.175904 0.691875
v -0.471429 0.175904 0.096192
v -0.300000 0.175904 0.096192
v -0.471429 0.175904 -0.096192
v -0.300000 0.175904 -0.096192
v -0.471429 0.175904 -0.691875
v -0.300000 0.175904 -0.691875
v 0.900000 0.279889 0.691875
v 0.900000 0.279889 0.900000
v -0.641423 0.279889 0.900000
v -0.900000 0.279889 0.900000
v -0.900000 0.279889 -0.691875
v -0.900000 0.279889 -0.900000
v 0.641423 0.279889 -0.900000
v 0.900000 0.279889 -0.900000
v 0.641423 0.279889 0.900000
v -0.641423 0.279889 -0.900000
v -0.641423 0.279889 -0.691875
v -0.127867 0.279889 -0.691875
v -0.127867 0.279889 -0.900000
v 0.127867 0.279889 -0.691875
v 0.127867 0.279889 -0.900000
v 0.641423 0.279889 -0.691875
v 0.900000 0.279889 -0.691875
v 0.900000 0.279889 -0.096192
v 0.900000 0.279889 0.096192
v -0.900000 0.279889 0.691875
v -0.900000 0.279889 0.096192
v -0.900000 0.279889 -0.096192
v -0.641423 0.279889 0.691875
v -0.641423 0.279889 0.096192
v -0.641423 0.279889 -0.096192
v -0.127867 0.279889 0.900000
v -0.127867 0.279889 0.691875
v -0.127867 0.279889 0.096192
v -0.127867 0.279889 -0.096192
v 0.127867 0.279889 0.900000
v 0.127867 0.279889 0.691875
v 0.127867 0.279889 0.096192
v 0.127867 0.279889 -0.096192
v 0.641423 0.279889 0.691875
v 0.641423 0.279889 0.096192
v 0.641423 0.279889 -0.096192
v 0.460713 0.279889 0.900000
v 0.304457 0.279889 0.900000
v 0.304457 0.279889 -0.900000
v 0.460713 0.279889 -0.900000
v 0.460713 0.279889 0.691875
v 0.304457 0.279889 0.691875
v 0.460713 0.279889 0.096192
v 0.304457 0.279889 0.096192
v 0.460713 0.279889 -0.096192
v 0.304457 0.279889 -0.096192
v 0.460713 0.279889 -0.691875
v 0.304457 0.279889 -0.691875
v -0.304457 0.279889 0.900000
v -0.460713 0.279889 0.900000
v -0.460713 0.279889 -0.900000
v -0.304457 0.279889 -0.900000
v -0.304457 0.279889 0.691875
v -0.460713 0.279889 0.691875
v -0.304457 0.279889 0.096192
v -0.460713 0.279889 0.096192
v -0.304457 0.279889 -0.096192
v -0.460713 0.279889 -0.096192
v -0.304457 0.279889 -0.691875
v -0.460713 0.279889 -0.691875
vn 1.0000 -0.0000 -0.0000
vn -0.0000 -0.0000 1.0000
vn -1.0000 -0.0000 -0.0000
vn -0.0000 -0.0000 -1.0000
vn -0.0000 -1.0000 -0.0000
vn -0.0000 1.0000 -0.0000
vn -0.9783 0.2073 -0.0000
vn 0.9961 0.0878 -0.0000
vn 0.9783 0.2073 -0.0000
vn -0.9961 0.0878 -0.0000
vn 0.9999 0.0139 -0.0000
vn -0.9999 0.0139 -0.0000
vn 0.9996 -0.0283 -0.0000
vn -0.9996 -0.0283 -0.0000
vt 0.726521 0.689781
vt 0.570767 0.689781
vt 0.570767 0.482759
vt 0.726521 0.482759
vt 0.570767 0.327006
vt 0.363745 0.482759
vt 0.363745 0.327006
vt 0.207992 0.482759
vt 0.363745 0.689781
vt 0.207992 0.689781
vt 0.363745 0.845534
vt 0.570767 0.845534
vt 0.363745 0.119984
vt 0.570767 0.119984
vt 0.283343 0.060714
vt 0.283343 0.054170
vt 0.310272 0.054170
vt 0.310272 0.060714
vt 0.676206 0.157006
vt 0.673362 0.163526
vt 0.645367 0.143813
vt 0.649014 0.138465
vt 0.104301 0.429911
vt 0.104301 0.436455
vt 0.077372 0.436455
vt 0.077372 0.429911
vt 0.835983 0.414545
vt 0.838826 0.408013
vt 0.866877 0.427735
vt 0.863228 0.433094
vt 0.825367 0.430138
vt 0.852613 0.448687
vt 0.850564 0.451696
vt 0.823318 0.433147
vt 0.676568 0.369279
vt 0.677960 0.292732
vt 0.684781 0.293094
vt 0.683862 0.368377
vt 0.835442 0.202181
vt 0.834045 0.278687
vt 0.827229 0.278336
vt 0.828150 0.203097
vt 0.822284 0.376900
vt 0.842504 0.381605
vt 0.812987 0.401720
vt 0.281575 0.837781
vt 0.303576 0.834962
vt 0.304498 0.841441
vt 0.281835 0.844345
vt 0.104301 0.183779
vt 0.104301 0.205960
vt 0.077372 0.205960
vt 0.077372 0.183779
vt 0.283343 0.225002
vt 0.310272 0.225002
vt 0.310272 0.228676
vt 0.283343 0.228676
vt 0.104301 0.329026
vt 0.104301 0.351207
vt 0.077372 0.351207
vt 0.077372 0.329026
vt 0.686817 0.141444
vt 0.659625 0.122903
vt 0.661673 0.119900
vt 0.688865 0.138441
vt 0.707546 0.401931
vt 0.706576 0.395727
vt 0.732868 0.394339
vt 0.732543 0.401418
vt 0.617971 0.425653
vt 0.615090 0.418151
vt 0.653760 0.403111
vt 0.656116 0.411004
vt 0.812981 0.408314
vt 0.206268 0.054170
vt 0.181376 0.054170
vt 0.181376 0.047259
vt 0.206268 0.047259
vt 0.804437 0.169650
vt 0.805410 0.175837
vt 0.779168 0.177232
vt 0.779493 0.170164
vt 0.893572 0.145769
vt 0.896470 0.153235
vt 0.857983 0.168353
vt 0.855611 0.160503
vt 0.699170 0.163243
vt 0.699160 0.169828
vt 0.766288 0.397289
vt 0.766309 0.403579
vt 0.709864 0.368007
vt 0.729483 0.367985
vt 0.104301 0.373923
vt 0.104301 0.407194
vt 0.077372 0.407194
vt 0.077372 0.373923
vt 0.104301 0.083430
vt 0.104301 0.116701
vt 0.077372 0.116701
vt 0.077372 0.083430
vt 0.745797 0.174278
vt 0.745778 0.167997
vt 0.626355 0.447484
vt 0.664500 0.432834
vt 0.666118 0.437047
vt 0.627973 0.451696
vt 0.104301 0.265622
vt 0.077372 0.265622
vt 0.077372 0.261948
vt 0.104301 0.261948
vt 0.283343 0.079755
vt 0.310272 0.079755
vt 0.310272 0.083430
vt 0.283343 0.083430
vt 0.104301 0.410869
vt 0.077372 0.410869
vt 0.104301 0.228676
vt 0.077372 0.228676
vt 0.885140 0.124043
vt 0.847178 0.138777
vt 0.845551 0.134585
vt 0.883512 0.119851
vt 0.283343 0.370248
vt 0.310272 0.370248
vt 0.310272 0.373923
vt 0.283343 0.373923
vt 0.104301 0.120376
vt 0.077372 0.120376
vt 0.780734 0.150869
vt 0.747018 0.148701
vt 0.747258 0.144978
vt 0.780973 0.147145
vt 0.310272 0.120376
vt 0.283343 0.120376
vt 0.283343 0.116701
vt 0.310272 0.116701
vt 0.181376 0.120376
vt 0.181376 0.116701
vt 0.206268 0.120376
vt 0.206268 0.116701
vt 0.181376 0.370248
vt 0.181376 0.373923
vt 0.104301 0.370248
vt 0.077372 0.370248
vt 0.206268 0.373923
vt 0.206268 0.370248
vt 0.206268 0.410869
vt 0.206268 0.407194
vt 0.283343 0.407194
vt 0.283343 0.410869
vt 0.310272 0.410869
vt 0.310272 0.407194
vt 0.181376 0.407194
vt 0.181376 0.410869
vt 0.181376 0.079755
vt 0.181376 0.083430
vt 0.104301 0.079755
vt 0.077372 0.079755
vt 0.206268 0.083430
vt 0.206268 0.079755
vt 0.283343 0.265622
vt 0.206268 0.265622
vt 0.206268 0.261948
vt 0.283343 0.261948
vt 0.310272 0.265622
vt 0.310272 0.261948
vt 0.181376 0.265622
vt 0.181376 0.261948
vt 0.731306 0.420743
vt 0.765073 0.422904
vt 0.764834 0.426633
vt 0.731067 0.424473
vt 0.206268 0.228676
vt 0.181376 0.228676
vt 0.105058 0.782811
vt 0.181663 0.791304
vt 0.180926 0.797953
vt 0.104321 0.789459
vt 0.720627 0.173100
vt 0.740024 0.201446
vt 0.721094 0.199262
vt 0.227100 0.741519
vt 0.303705 0.733025
vt 0.304442 0.739673
vt 0.227837 0.748167
vt 0.712888 0.271038
vt 0.734490 0.272523
vt 0.732975 0.295944
vt 0.711314 0.294708
vt 0.204560 0.866451
vt 0.281575 0.863403
vt 0.281835 0.869967
vt 0.204820 0.873015
vt 0.310272 0.329026
vt 0.310272 0.351207
vt 0.283343 0.351207
vt 0.283343 0.329026
vt 0.127996 0.913785
vt 0.205010 0.916833
vt 0.204750 0.923398
vt 0.127736 0.920349
vt 0.206268 0.329026
vt 0.206268 0.351207
vt 0.181376 0.351207
vt 0.181376 0.329026
vt 0.181376 0.225002
vt 0.104301 0.225002
vt 0.077372 0.225002
vt 0.206268 0.225002
vt 0.227100 0.765120
vt 0.303705 0.756626
vt 0.304442 0.763275
vt 0.227837 0.771768
vt 0.310272 0.183779
vt 0.310272 0.205960
vt 0.283343 0.205960
vt 0.283343 0.183779
vt 0.105057 0.809856
vt 0.181663 0.818350
vt 0.180926 0.824998
vt 0.104320 0.816505
vt 0.206268 0.183779
vt 0.206268 0.205960
vt 0.181376 0.205960
vt 0.181376 0.183779
vt 0.703900 0.367649
vt 0.704704 0.294388
vt 0.899745 0.162950
vt 0.865614 0.173341
vt 0.828702 0.174672
vt 0.824048 0.182145
vt 0.810922 0.181100
vt 0.127996 0.889886
vt 0.205010 0.892934
vt 0.204750 0.899498
vt 0.127736 0.896450
vt 0.858177 0.200592
vt 0.204560 0.840829
vt 0.204820 0.847394
vt 0.857745 0.280068
vt 0.855616 0.305551
vt 0.832152 0.303391
vt 0.104301 0.054170
vt 0.104301 0.047259
vt 0.683214 0.396857
vt 0.687901 0.389369
vt 0.701059 0.390441
vt 0.862651 0.306396
vt 0.849750 0.382803
vt 0.706334 0.270473
vt 0.802160 0.203511
vt 0.808119 0.203864
vt 0.077372 0.054170
vt 0.077372 0.047259
vt 0.864892 0.280420
vt 0.283343 0.436455
vt 0.206268 0.436455
vt 0.206268 0.429911
vt 0.283343 0.429911
vt 0.310272 0.429911
vt 0.310272 0.436455
vt 0.181376 0.436455
vt 0.181376 0.429911
vt 0.181376 0.060714
vt 0.104301 0.060714
vt 0.077372 0.060714
vt 0.206268 0.060714
vt 0.884063 0.822842
vt 0.884063 0.745768
vt 0.917334 0.745768
vt 0.917334 0.822842
vt 0.708309 0.745768
vt 0.708309 0.822842
vt 0.675038 0.822842
vt 0.675038 0.745768
vt 0.708309 0.726726
vt 0.675038 0.726726
vt 0.884063 0.841884
vt 0.917334 0.841884
vt 0.781155 0.822842
vt 0.781155 0.745768
vt 0.814427 0.745768
vt 0.814427 0.822842
vt 0.728096 0.899917
vt 0.728096 0.822842
vt 0.761368 0.822842
vt 0.761368 0.899917
vt 0.206268 0.284664
vt 0.181376 0.284664
vt 0.728096 0.918959
vt 0.761368 0.918959
vt 0.310272 0.284664
vt 0.283343 0.284664
vt 0.781155 0.841884
vt 0.814427 0.841884
vt 0.679914 0.268038
vt 0.686644 0.268698
vt 0.104301 0.284664
vt 0.077372 0.284664
vt 0.869090 0.822842
vt 0.869090 0.899917
vt 0.835819 0.899917
vt 0.835819 0.822842
vt 0.869090 0.803801
vt 0.835819 0.803801
vt 0.660065 0.745768
vt 0.660065 0.822842
vt 0.626794 0.822842
vt 0.626794 0.745768
vt 0.206268 0.139417
vt 0.181376 0.139417
vt 0.660065 0.726726
vt 0.626794 0.726726
vt 0.310272 0.139417
vt 0.283343 0.139417
vt 0.104301 0.139417
vt 0.077372 0.139417
vt 0.781155 0.726726
vt 0.814427 0.726726
vt 0.781155 0.918959
vt 0.814427 0.918959
vt 0.708309 0.841884
vt 0.675038 0.841884
vt 0.708309 0.918959
vt 0.675038 0.918959
vt 0.884063 0.726726
vt 0.917334 0.726726
vt 0.884063 0.918959
vt 0.917334 0.918959
vt 0.728096 0.803801
vt 0.761368 0.803801
vt 0.728096 0.726726
vt 0.761368 0.726726
vt 0.660065 0.841884
vt 0.626794 0.841884
vt 0.660065 0.918959
vt 0.626794 0.918959
vt 0.869090 0.918959
vt 0.835819 0.918959
vt 0.869090 0.726726
vt 0.835819 0.726726
vt 0.779064 0.275532
vt 0.800718 0.276755
vt 0.799162 0.300428
vt 0.777558 0.298953
vt 0.791009 0.372265
vt 0.805719 0.300987
vt 0.797756 0.372596
vt 0.280622 0.810780
vt 0.302784 0.809856
vt 0.304442 0.816337
vt 0.281080 0.817311
vt 0.865057 0.200626
vt 0.782555 0.203547
vt 0.816577 0.375507
vt 0.825416 0.302741
vt 0.205026 0.762942
vt 0.204568 0.769472
vt 0.206268 0.161598
vt 0.181376 0.161598
vt 0.182405 0.839758
vt 0.181998 0.846290
vt 0.104301 0.161598
vt 0.310272 0.161598
vt 0.283343 0.161598
vt 0.105995 0.887066
vt 0.105073 0.893545
vt 0.829077 0.167276
vt 0.791491 0.398457
vt 0.790265 0.404326
vt 0.077372 0.161598
vt 0.772057 0.370086
vt 0.845583 0.404893
vt 0.870163 0.423178
vt 0.206268 0.306845
vt 0.181376 0.306845
vt 0.205026 0.739341
vt 0.204568 0.745871
vt 0.104301 0.306845
vt 0.310272 0.306845
vt 0.283343 0.306845
vt 0.280622 0.783735
vt 0.302784 0.782811
vt 0.304442 0.789291
vt 0.281080 0.790265
vt 0.656506 0.265849
vt 0.654352 0.291305
vt 0.105995 0.910966
vt 0.105072 0.917445
vt 0.766236 0.369187
vt 0.771101 0.298513
vt 0.689857 0.194610
vt 0.669669 0.189896
vt 0.714856 0.179072
vt 0.703052 0.175611
vt 0.182405 0.865379
vt 0.181998 0.871911
vt 0.807325 0.277071
vt 0.653621 0.370758
vt 0.772586 0.275152
vt 0.721854 0.167240
vt 0.682819 0.404282
vt 0.077372 0.306845
vt 0.227165 0.891862
vt 0.304091 0.887066
vt 0.304498 0.893598
vt 0.227573 0.898394
vt 0.105480 0.834962
vt 0.105072 0.841494
vt 0.227165 0.915762
vt 0.227572 0.922294
vt 0.304091 0.910966
vt 0.304498 0.917498
vt 0.105978 0.733025
vt 0.128140 0.733949
vt 0.127682 0.740479
vt 0.104320 0.739505
vt 0.203736 0.789126
vt 0.204194 0.795657
vt 0.303576 0.860583
vt 0.304498 0.867063
vt 0.105480 0.860583
vt 0.105073 0.867115
vt 0.203737 0.816172
vt 0.204194 0.822702
vt 0.105978 0.756626
vt 0.128140 0.757550
vt 0.127682 0.764081
vt 0.104320 0.763107
vt 0.884310 0.393865
vt 0.608821 0.374336
vt 0.646733 0.370706
vt 0.646111 0.398082
vt 0.611840 0.408393
vt 0.736293 0.367595
vt 0.761071 0.391622
vt 0.738270 0.387844
vt 0.775753 0.203938
vt 0.740944 0.272965
vt 0.745839 0.202346
vt 0.751006 0.179938
vt 0.773775 0.183716
vt 0.739456 0.296325
vt 0.662434 0.188693
vt 0.649481 0.264996
vt 0.613799 0.260667
vt 0.627937 0.177619
vt 0.642083 0.148362
vt 0.666612 0.166637
vt 0.647208 0.290936
vt 0.610737 0.288180
vt 0.901397 0.283083
vt 0.902908 0.196876
vt 0.898390 0.310660
vt 0.809086 0.395932
vt 0.797265 0.392474
vt 0.714353 0.198926
vt 0.695555 0.196006
vt 0.283343 0.047259
vt 0.310272 0.443365
vt 0.283343 0.443365
vt 0.206268 0.443365
vt 0.181376 0.443365
vt 0.104301 0.443365
vt 0.310272 0.047259
vt 0.077372 0.443365
s 0
f 1/1/1 2/2/1 4/3/1 3/4/1
f 3/5/2 4/3/2 8/6/2 7/7/2
f 7/8/3 8/6/3 6/9/3 5/10/3
f 5/11/4 6/9/4 2/2/4 1/12/4
f 3/5/5 7/7/5 5/13/5 1/14/5
f 8/6/6 4/3/6 2/2/6 6/9/6
f 45/15/1 52/16/1 12/17/1 11/18/1
f 17/19/2 24/20/2 16/21/2 15/22/2
f 53/23/3 60/24/3 14/25/3 13/26/3
f 25/27/4 32/28/4 10/29/4 9/30/4
f 142/31/4 141/32/4 34/33/4 42/34/4
f 192/35/3 190/36/3 258/37/3 260/38/3
f 169/39/1 171/40/1 243/41/1 241/42/1
f 175/43/6 76/44/6 32/28/6 160/45/6
f 165/46/4 83/47/4 71/48/4 174/49/4
f 167/50/5 84/51/5 26/52/5 158/53/5
f 140/54/1 129/55/1 41/56/1 105/57/1
f 199/58/5 92/59/5 28/60/5 182/61/5
f 118/62/2 117/63/2 37/64/2 39/65/2
f 181/66/4 184/67/4 30/68/4 27/69/4
f 13/70/4 14/71/4 29/72/4 28/73/4
f 157/74/4 160/45/4 32/28/4 25/27/4
f 51/75/1 50/76/1 218/77/1 219/78/1
f 153/79/2 156/80/2 22/81/2 19/82/2
f 11/83/2 12/84/2 21/85/2 20/86/2
f 177/87/2 180/88/2 24/20/2 17/19/2
f 27/69/4 30/68/4 31/89/4 26/90/4
f 191/91/6 68/92/6 30/68/6 184/67/6
f 116/93/5 97/94/5 36/95/5 38/96/5
f 96/97/5 104/98/5 42/99/5 34/100/5
f 19/82/2 22/81/2 23/101/2 18/102/2
f 120/103/4 119/104/4 38/105/4 36/106/4
f 136/107/3 131/108/3 44/109/3 112/110/3
f 152/111/1 143/112/1 33/113/1 93/114/1
f 128/115/3 120/116/3 36/95/3 97/94/3
f 108/117/5 112/110/5 44/109/5 43/118/5
f 143/119/2 144/120/2 35/121/2 33/122/2
f 124/123/1 118/124/1 39/125/1 113/126/1
f 148/127/3 142/128/3 42/99/3 104/98/3
f 129/129/2 132/130/2 40/131/2 41/132/2
f 144/133/3 145/134/3 101/135/3 35/136/3
f 147/137/3 148/127/3 104/98/3 103/138/3
f 146/139/3 147/137/3 103/138/3 102/140/3
f 122/141/1 115/142/1 116/93/1 121/143/1
f 119/144/1 121/143/1 116/93/1 38/96/1
f 124/123/1 113/126/1 114/145/1 123/146/1
f 122/141/1 123/146/1 114/145/1 115/142/1
f 126/147/3 99/148/3 100/149/3 125/150/3
f 117/151/3 125/150/3 100/149/3 37/152/3
f 128/115/3 97/94/3 98/153/3 127/154/3
f 126/147/3 127/154/3 98/153/3 99/148/3
f 150/155/1 95/156/1 96/97/1 149/157/1
f 141/158/1 149/157/1 96/97/1 34/100/1
f 152/111/1 93/114/1 94/159/1 151/160/1
f 150/155/1 151/160/1 94/159/1 95/156/1
f 133/161/3 134/162/3 110/163/3 109/164/3
f 132/165/3 133/161/3 109/164/3 40/166/3
f 135/167/3 136/107/3 112/110/3 111/168/3
f 134/162/3 135/167/3 111/168/3 110/163/3
f 131/169/4 130/170/4 43/171/4 44/172/4
f 109/164/5 110/163/5 106/173/5 105/57/5
f 41/56/5 40/166/5 109/164/5 105/57/5
f 111/168/5 112/110/5 108/117/5 107/174/5
f 101/135/5 102/140/5 94/159/5 93/114/5
f 33/113/5 35/136/5 101/135/5 93/114/5
f 103/138/5 104/98/5 96/97/5 95/156/5
f 94/159/5 102/140/5 103/138/5 95/156/5
f 99/148/5 114/145/5 113/126/5 100/149/5
f 39/125/5 37/152/5 100/149/5 113/126/5
f 97/94/5 116/93/5 115/142/5 98/153/5
f 114/145/5 99/148/5 98/153/5 115/142/5
f 195/175/7 193/176/7 186/177/7 188/178/7
f 179/179/6 23/101/6 65/180/6 185/181/6
f 199/182/7 197/183/7 190/184/7 192/185/7
f 187/186/6 66/187/6 67/188/6 189/189/6
f 194/190/8 196/191/8 187/192/8 185/193/8
f 177/194/5 17/195/5 89/196/5 193/197/5
f 198/198/8 200/199/8 191/200/8 189/201/8
f 195/202/5 90/203/5 91/204/5 197/205/5
f 138/206/1 107/174/1 108/117/1 137/207/1
f 130/208/1 137/207/1 108/117/1 43/118/1
f 140/54/1 105/57/1 106/173/1 139/209/1
f 138/206/1 139/209/1 106/173/1 107/174/1
f 162/210/9 164/211/9 171/212/9 169/213/9
f 153/214/5 19/215/5 81/216/5 161/217/5
f 166/218/9 168/219/9 175/220/9 173/221/9
f 163/222/5 82/223/5 83/224/5 165/225/5
f 106/173/5 110/163/5 111/168/5 107/174/5
f 189/189/1 191/91/1 259/226/1 257/227/1
f 21/85/2 12/84/2 202/228/2 209/229/2
f 156/80/2 155/230/2 237/231/2 238/232/2
f 163/233/10 161/234/10 170/235/10 172/236/10
f 155/230/6 21/85/6 73/237/6 169/39/6
f 167/238/10 165/46/10 174/49/10 176/239/10
f 171/40/6 74/240/6 75/241/6 173/242/6
f 155/230/1 169/39/1 241/42/1 237/231/1
f 50/76/1 49/243/1 217/244/1 218/77/1
f 184/67/4 183/245/4 251/246/4 252/247/4
f 76/44/3 75/241/3 236/248/3 216/249/3
f 187/186/1 189/189/1 257/227/1 255/250/1
f 170/251/3 156/80/3 238/232/3 242/252/3
f 49/243/1 10/253/1 208/254/1 217/244/1
f 75/241/3 74/240/3 235/255/3 236/248/3
f 57/256/3 58/257/3 55/258/3 56/259/3
f 15/260/3 16/261/3 57/256/3 56/259/3
f 59/262/3 60/24/3 53/23/3 54/263/3
f 55/258/3 58/257/3 59/262/3 54/263/3
f 49/243/1 50/76/1 47/264/1 48/265/1
f 9/266/1 10/253/1 49/243/1 48/265/1
f 51/75/1 52/16/1 45/15/1 46/267/1
f 47/264/1 50/76/1 51/75/1 46/267/1
f 145/134/3 146/139/3 102/140/3 101/135/3
f 55/258/3 54/263/3 127/154/3 126/147/3
f 122/268/6 121/269/6 128/270/6 127/271/6
f 15/260/3 56/259/3 125/150/3 117/151/3
f 124/272/6 123/273/6 126/274/6 125/275/6
f 91/204/1 90/203/1 123/146/1 122/141/1
f 89/276/4 124/272/4 125/275/4 56/277/4
f 28/60/1 92/59/1 121/143/1 119/144/1
f 91/278/4 122/268/4 127/271/4 54/279/4
f 89/196/1 17/195/1 118/124/1 124/123/1
f 53/23/3 13/26/3 120/116/3 128/115/3
f 13/70/4 28/73/4 119/104/4 120/103/4
f 17/19/2 15/22/2 117/63/2 118/62/2
f 83/224/1 82/223/1 139/209/1 138/206/1
f 134/280/6 133/281/6 140/282/6 139/283/6
f 26/52/1 84/51/1 137/207/1 130/208/1
f 136/284/6 135/285/6 138/286/6 137/287/6
f 86/288/3 87/289/3 135/167/3 134/162/3
f 88/290/2 136/284/2 137/287/2 84/291/2
f 18/292/3 85/293/3 133/161/3 132/165/3
f 86/294/2 134/280/2 139/283/2 82/295/2
f 190/36/3 188/296/3 256/297/3 258/37/3
f 27/69/4 26/90/4 130/170/4 131/169/4
f 88/298/3 27/299/3 131/108/3 136/107/3
f 81/216/1 19/215/1 129/55/1 140/54/1
f 146/300/6 145/301/6 152/302/6 151/303/6
f 47/264/1 46/267/1 151/160/1 150/155/1
f 78/304/2 146/300/2 151/303/2 46/305/2
f 9/266/1 48/265/1 149/157/1 141/158/1
f 148/306/6 147/307/6 150/308/6 149/309/6
f 78/310/3 79/311/3 147/137/3 146/139/3
f 80/312/2 148/306/2 149/309/2 48/313/2
f 20/314/3 77/315/3 145/134/3 144/133/3
f 80/316/3 25/317/3 142/128/3 148/127/3
f 11/83/2 20/86/2 144/120/2 143/119/2
f 45/15/1 11/18/1 143/112/1 152/111/1
f 25/27/4 9/30/4 141/32/4 142/31/4
f 133/281/4 85/318/4 81/319/4 140/282/4
f 85/320/5 86/294/5 82/295/5 81/321/5
f 123/273/2 90/322/2 55/323/2 126/274/2
f 90/322/5 89/324/5 56/325/5 55/323/5
f 121/269/2 92/326/2 53/327/2 128/270/2
f 92/328/5 91/278/5 54/279/5 53/329/5
f 135/285/4 87/330/4 83/331/4 138/286/4
f 87/330/5 88/332/5 84/333/5 83/331/5
f 147/307/4 79/334/4 47/335/4 150/308/4
f 79/334/5 80/336/5 48/337/5 47/335/5
f 145/301/4 77/338/4 45/339/4 152/302/4
f 77/340/5 78/304/5 46/305/5 45/341/5
f 70/342/6 172/343/6 174/344/6 71/345/6
f 176/346/3 174/344/3 246/347/3 248/348/3
f 79/349/4 166/350/4 173/351/4 75/352/4
f 74/240/3 73/237/3 234/353/3 235/255/3
f 22/81/6 156/80/6 170/251/6 69/354/6
f 173/242/1 175/43/1 247/355/1 245/356/1
f 77/357/4 162/210/4 169/213/4 73/358/4
f 73/237/3 21/85/3 209/229/3 234/353/3
f 78/310/5 164/359/5 166/360/5 79/311/5
f 164/359/5 163/222/5 165/225/5 166/360/5
f 84/361/2 167/238/2 176/239/2 72/362/2
f 165/225/5 167/50/5 168/363/5 166/360/5
f 20/314/5 154/364/5 162/365/5 77/315/5
f 154/364/5 153/214/5 161/217/5 162/365/5
f 82/366/2 163/233/2 172/236/2 70/367/2
f 161/217/5 163/222/5 164/359/5 162/365/5
f 20/86/2 21/85/2 155/230/2 154/368/2
f 154/368/2 155/230/2 156/80/2 153/79/2
f 26/90/4 31/89/4 159/369/4 158/370/4
f 158/370/4 159/369/4 160/45/4 157/74/4
f 80/316/5 168/363/5 157/371/5 25/317/5
f 168/363/5 167/50/5 158/53/5 157/371/5
f 72/372/6 176/346/6 159/369/6 31/89/6
f 10/29/4 32/28/4 207/373/4 208/374/4
f 86/288/5 196/375/5 198/376/5 87/289/5
f 196/375/5 195/202/5 197/205/5 198/376/5
f 92/377/2 199/182/2 192/185/2 64/378/2
f 197/205/5 199/58/5 200/379/5 198/376/5
f 18/292/5 178/380/5 194/381/5 85/293/5
f 178/380/5 177/194/5 193/197/5 194/381/5
f 90/382/2 195/383/2 188/384/2 62/385/2
f 193/197/5 195/202/5 196/375/5 194/381/5
f 62/386/6 188/296/6 190/36/6 63/387/6
f 171/40/1 173/242/1 245/356/1 243/41/1
f 87/388/4 198/198/4 189/201/4 67/389/4
f 71/345/1 72/372/1 214/390/1 233/391/1
f 24/20/6 180/88/6 186/392/6 61/393/6
f 180/88/2 179/179/2 249/394/2 250/395/2
f 85/396/4 194/190/4 185/193/4 65/397/4
f 174/344/3 172/343/3 244/398/3 246/347/3
f 64/399/6 192/35/6 183/245/6 29/72/6
f 70/342/1 71/345/1 233/391/1 232/400/1
f 18/102/2 23/101/2 179/179/2 178/401/2
f 178/401/2 179/179/2 180/88/2 177/87/2
f 28/73/4 29/72/4 183/245/4 182/402/4
f 182/402/4 183/245/4 184/67/4 181/66/4
f 88/298/5 200/379/5 181/403/5 27/299/5
f 200/379/5 199/58/5 182/61/5 181/403/5
f 81/404/11 82/405/11 70/406/11 69/407/11
f 161/234/4 81/404/4 69/407/4 170/235/4
f 83/408/11 84/361/11 72/362/11 71/409/11
f 200/199/2 88/410/2 68/411/2 191/200/2
f 88/410/12 87/412/12 67/413/12 68/411/12
f 197/414/4 91/415/4 63/416/4 190/417/4
f 91/415/13 92/377/13 64/378/13 63/416/13
f 193/176/4 89/418/4 61/419/4 186/177/4
f 89/418/13 90/382/13 62/385/13 61/419/13
f 196/191/2 86/420/2 66/421/2 187/192/2
f 86/422/12 85/396/12 65/397/12 66/423/12
f 19/82/2 18/102/2 132/130/2 129/129/2
f 168/219/2 80/424/2 76/425/2 175/220/2
f 80/424/14 79/349/14 75/352/14 76/425/14
f 164/426/2 78/427/2 74/428/2 171/429/2
f 78/427/14 77/357/14 73/358/14 74/428/14
f 216/249/6 217/430/6 208/374/6 207/373/6
f 205/431/6 211/432/6 210/433/6 206/434/6
f 212/435/6 214/390/6 215/436/6 213/437/6
f 231/438/6 232/400/6 228/439/6 227/440/6
f 226/441/6 230/442/6 231/438/6 227/440/6
f 233/391/6 214/390/6 212/435/6 229/443/6
f 223/444/6 224/445/6 221/446/6 220/447/6
f 204/448/6 203/449/6 223/444/6 220/447/6
f 225/450/6 211/432/6 205/431/6 222/451/6
f 221/446/6 224/445/6 225/450/6 222/451/6
f 219/452/6 235/255/6 234/353/6 201/453/6
f 209/229/6 202/228/6 201/453/6 234/353/6
f 217/430/6 216/249/6 236/248/6 218/454/6
f 235/255/6 219/452/6 218/454/6 236/248/6
f 228/439/6 232/400/6 233/391/6 229/443/6
f 244/398/6 243/41/6 245/356/6 246/347/6
f 245/356/6 247/355/6 248/348/6 246/347/6
f 238/232/6 237/231/6 241/42/6 242/252/6
f 241/42/6 243/41/6 244/398/6 242/252/6
f 248/348/6 247/355/6 240/455/6 239/456/6
f 256/297/6 255/250/6 257/227/6 258/37/6
f 257/227/6 259/226/6 260/38/6 258/37/6
f 250/395/6 249/394/6 253/457/6 254/458/6
f 253/457/6 255/250/6 256/297/6 254/458/6
f 260/38/6 259/226/6 252/247/6 251/246/6
f 52/16/1 51/75/1 219/78/1 201/459/1
f 172/343/3 170/251/3 242/252/3 244/398/3
f 186/392/3 180/88/3 250/395/3 254/458/3
f 179/179/1 185/181/1 253/457/1 249/394/1
f 160/45/4 159/369/4 239/456/4 240/455/4
f 185/181/1 187/186/1 255/250/1 253/457/1
f 188/296/3 186/392/3 254/458/3 256/297/3
f 29/72/4 14/71/4 206/434/4 210/433/4
f 183/245/3 192/35/3 260/38/3 251/246/3
f 57/256/3 16/261/3 204/460/3 220/461/3
f 191/91/1 184/67/1 252/247/1 259/226/1
f 58/257/3 57/256/3 220/461/3 221/462/3
f 59/262/3 58/257/3 221/462/3 222/463/3
f 64/399/1 29/72/1 210/433/1 211/432/1
f 60/24/3 59/262/3 222/463/3 205/464/3
f 30/68/3 68/92/3 212/435/3 213/437/3
f 24/20/1 61/393/1 223/444/1 203/449/1
f 72/372/1 31/89/1 215/436/1 214/390/1
f 61/393/1 62/386/1 224/445/1 223/444/1
f 32/28/3 76/44/3 216/249/3 207/373/3
f 62/386/1 63/387/1 225/450/1 224/445/1
f 12/17/1 52/16/1 201/459/1 202/465/1
f 63/387/1 64/399/1 211/432/1 225/450/1
f 65/180/3 23/101/3 226/441/3 227/440/3
f 23/101/2 22/81/2 230/442/2 226/441/2
f 66/187/3 65/180/3 227/440/3 228/439/3
f 16/21/2 24/20/2 203/449/2 204/448/2
f 67/188/3 66/187/3 228/439/3 229/443/3
f 159/369/3 176/346/3 248/348/3 239/456/3
f 31/89/4 30/68/4 213/437/4 215/436/4
f 68/92/3 67/188/3 229/443/3 212/435/3
f 175/43/1 160/45/1 240/455/1 247/355/1
f 22/81/1 69/354/1 231/438/1 230/442/1
f 14/25/3 60/24/3 205/464/3 206/466/3
f 69/354/1 70/342/1 232/400/1 231/438/1
