# Blender 5.1.1
# www.blender.org
mtllib ChairSteel.mtl
o SteelChair
v 1.000000 1.800000 -1.000000
v 1.000000 2.000000 -1.000000
v 1.000000 1.800000 1.000000
v 1.000000 2.000000 1.000000
v -0.963660 1.800000 -0.970577
v -0.919560 2.000000 -0.923569
v -0.963660 1.800000 0.970577
v -0.919560 2.000000 0.923569
v 1.000000 1.800000 -0.750000
v -0.970463 2.000000 -0.750000
v 1.000000 2.000000 -0.750000
v -1.000000 1.800000 -0.750000
v 0.750000 1.800000 1.000000
v 0.750000 2.000000 -1.000000
v 0.750000 2.000000 1.000000
v 0.750000 1.800000 -1.000000
v 0.750000 1.800000 -0.750000
v 0.750000 2.000000 -0.750000
v -0.750000 2.000000 0.945515
v -0.750000 1.800000 -1.000000
v -0.750000 1.800000 1.000000
v -0.750000 2.000000 -0.945515
v -0.750000 2.000000 -0.750000
v -0.750000 1.800000 -0.750000
v 1.000000 2.000000 0.750000
v -1.000000 1.800000 0.750000
v 1.000000 1.800000 0.750000
v -0.970463 2.000000 0.750000
v 0.750000 1.800000 0.750000
v 0.750000 2.000000 0.750000
v -0.750000 2.000000 0.750000
v -0.750000 1.800000 0.750000
v 1.060527 -0.000000 -0.842983
v 1.060527 -0.000000 -1.060527
v 0.842983 -0.000000 1.060527
v 1.060527 -0.000000 1.060527
v -1.060527 -0.000000 0.842983
v -1.060527 -0.000000 1.060527
v -0.842983 -0.000000 -1.060527
v -1.060527 -0.000000 -1.060527
v -1.060527 -0.000000 -0.842983
v 0.842983 -0.000000 -0.842983
v 0.842983 -0.000000 -1.060527
v -0.842983 -0.000000 1.060527
v -0.842983 -0.000000 -0.842983
v 1.060527 -0.000000 0.842983
v 0.842983 -0.000000 0.842983
v -0.842983 -0.000000 0.842983
v 1.000000 4.283148 0.627676
v 1.000000 4.184491 0.772568
v 0.750000 4.184491 -0.772568
v 1.000000 4.184491 -0.772568
v 1.000000 4.283148 -0.627676
v 0.750000 4.184491 0.772568
v 0.750000 4.283148 -0.627676
v 0.750000 4.283148 0.627676
v 0.750000 2.000000 -1.000000
v 1.000000 2.000000 -1.000000
v 1.000000 2.000000 -0.750000
v 0.750000 2.000000 -0.750000
v 0.750000 4.059543 -0.836901
v 1.000000 4.059543 -0.627676
v 1.000000 4.059543 -0.836901
v 0.750000 4.059543 -0.627676
v 1.000000 4.059543 0.836901
v 0.750000 4.059543 0.836901
v 0.750000 4.059543 0.627676
v 1.000000 4.059543 0.627676
v 1.000000 4.283148 -0.380865
v 0.750000 4.283148 -0.380865
v 0.750000 4.059543 -0.380865
v 1.000000 4.059543 -0.380865
v 1.000000 1.800000 -0.382328
v -0.970463 2.000000 -0.382328
v 0.750000 1.800000 -0.382328
v 0.750000 2.000000 -0.277083
v -0.750000 2.000000 -0.382328
v -0.750000 1.800000 -0.382328
v 1.000000 2.000000 -0.277083
v -1.000000 1.800000 -0.382328
v 1.000000 2.000000 0.270264
v -1.000000 1.800000 0.375000
v 1.000000 1.800000 0.375000
v -0.970463 2.000000 0.375000
v 0.750000 1.800000 0.375000
v 0.750000 2.000000 0.270264
v -0.750000 2.000000 0.375000
v -0.750000 1.800000 0.375000
v 1.000000 4.283148 -0.223683
v 0.750000 4.283148 -0.223683
v 0.750000 4.059543 -0.223683
v 1.000000 4.059543 -0.223683
v 0.750000 4.059543 0.223683
v 0.750000 4.283148 0.223683
v 1.000000 4.059543 0.223683
v 1.000000 4.283148 0.223683
v 1.000000 2.000000 0.405777
v -1.000000 1.800000 0.562500
v 1.000000 1.800000 0.562500
v -0.970463 1.966985 0.562500
v 0.750000 1.800000 0.562500
v 0.750000 2.000000 0.405777
v -0.750000 1.966985 0.562500
v -0.750000 1.800000 0.562500
v 1.000000 1.800000 -0.566164
v -0.970463 1.966985 -0.566164
v 0.750000 1.800000 -0.566164
v 0.750000 2.000000 -0.409948
v -0.750000 1.966985 -0.566164
v -0.750000 1.800000 -0.566164
v 1.000000 2.000000 -0.409948
v -1.000000 1.800000 -0.566164
v 1.000000 2.000000 -0.095582
v -1.000000 1.800000 -0.095582
v 1.000000 1.800000 -0.095582
v -0.970463 2.000000 -0.095582
v 0.750000 1.800000 -0.095582
v 0.750000 2.000000 -0.095582
v -0.750000 2.070834 -0.047850
v -0.750000 1.800000 -0.095582
v 1.000000 1.800000 0.093750
v -0.970463 2.000000 0.093750
v 0.750000 1.800000 0.093750
v 0.750000 2.000000 0.093750
v -0.750000 2.070834 0.046018
v -0.750000 1.800000 0.093750
v 1.000000 2.000000 0.093750
v -1.000000 1.800000 0.093750
v 1.000000 4.283148 0.380865
v 0.750000 4.059543 0.380865
v 0.750000 4.283148 0.380865
v 1.000000 4.059543 0.380865
v 1.000000 4.059543 0.093750
v 1.000000 4.283148 0.093750
v 0.750000 4.283148 0.093750
v 0.750000 4.059543 0.093750
v 1.000000 4.283148 -0.093750
v 1.000000 4.059543 -0.093750
v 0.750000 4.059543 -0.093750
v 0.750000 4.283148 -0.093750
v -0.799170 0.848145 -1.032007
v -0.793813 0.951855 -1.028520
v -1.009303 0.951854 -1.012961
v -1.014884 0.848146 -1.018143
v -0.799170 0.848145 -0.799170
v -0.793813 0.951855 -0.793813
v -1.032007 0.848145 -0.799170
v -1.028520 0.951855 -0.793813
v -1.014884 0.848146 1.018143
v -1.009303 0.951854 1.012961
v -0.793813 0.951855 1.028520
v -0.799170 0.848145 1.032007
v -0.799170 0.848145 0.799170
v -0.793813 0.951855 0.793813
v -1.028520 0.951855 0.793813
v -1.032007 0.848145 0.799170
v 1.028520 0.951855 1.028520
v 1.032007 0.848145 1.032007
v 1.028520 0.951855 0.793813
v 1.032007 0.848145 0.799170
v 0.799170 0.848145 0.799170
v 0.793813 0.951855 0.793813
v 0.799170 0.848145 1.032007
v 0.793813 0.951855 1.028520
v 0.799170 0.848145 -1.032007
v 0.793813 0.951855 -1.028520
v 0.793813 0.951855 -0.793813
v 0.799170 0.848145 -0.799170
v 1.032007 0.848145 -0.799170
v 1.028520 0.951855 -0.793813
v 1.028520 0.951855 -1.028520
v 1.032007 0.848145 -1.032007
vn 1.0000 -0.0000 -0.0000
vn -0.1284 0.2572 0.9578
vn -0.9565 0.2010 -0.2117
vn -0.0000 -0.0000 -1.0000
vn -0.0000 0.4578 0.8891
vn -0.0000 1.0000 -0.0000
vn -0.0000 -1.0000 -0.0000
vn -0.0180 0.1349 -0.9907
vn -0.9872 0.1589 0.0143
vn -0.0000 -0.0000 1.0000
vn -0.0180 0.1349 0.9907
vn -0.1284 0.2572 -0.9578
vn -0.0143 0.9979 0.0629
vn -0.9565 0.2010 0.2117
vn -0.0000 0.4578 -0.8891
vn -0.0000 0.9843 0.1768
vn -0.0000 0.8266 -0.5628
vn -0.0000 0.8266 0.5628
vn -1.0000 -0.0000 -0.0000
vn -0.0000 -0.0593 0.9982
vn -0.0000 0.0789 -0.9969
vn -0.0000 -0.0593 -0.9982
vn -0.0000 0.0789 0.9969
vn -0.0000 0.0141 -0.9999
vn -0.1458 0.9829 -0.1121
vn 0.0260 0.9904 -0.1360
vn -0.9893 0.1461 -0.0000
vn -0.9872 0.1589 0.0140
vn -0.0021 0.9948 0.1017
vn -0.0000 0.9848 0.1734
vn -0.0000 -0.0226 -0.9997
vn -0.0000 -0.0259 0.9997
vn -0.0000 0.0121 0.9999
vn -0.0000 0.9848 -0.1734
vn -0.0142 0.9980 -0.0620
vn -0.9872 0.1589 -0.0140
vn -0.0000 0.9843 -0.1768
vn -0.0019 0.9946 -0.1037
vn -0.9872 0.1589 -0.0143
vn 0.0472 0.9989 -0.0000
vn -0.0000 0.0009 -1.0000
vn 0.0260 0.9900 0.1387
vn -0.1455 0.9828 0.1141
vn -0.3059 0.9521 -0.0000
vn -0.9954 0.0477 -0.0826
vn 0.9987 -0.0516 -0.0000
vn -0.0000 0.0336 -0.9994
vn -0.0680 0.0452 -0.9967
vn -0.9954 0.0477 0.0826
vn -0.0000 -0.0516 -0.9987
vn -0.0680 0.0452 0.9967
vn -0.9987 -0.0516 -0.0000
vn 0.9994 0.0336 -0.0000
vn -0.0000 0.0336 0.9994
vn -0.1041 0.0470 -0.9935
vn -0.0320 0.0434 -0.9985
vn -0.9982 0.0456 -0.0392
vn -0.9909 0.0497 -0.1252
vn -0.0000 -0.0516 0.9987
vn -0.9982 0.0456 0.0392
vn -0.1041 0.0470 0.9935
vn -0.0320 0.0434 0.9985
vn -0.9909 0.0497 0.1252
vn -0.9994 0.0336 -0.0000
vt 0.375000 0.187500
vt 0.625000 0.187500
vt 0.625000 0.250000
vt 0.375000 0.250000
vt 0.375000 0.437500
vt 0.625000 0.437500
vt 0.625000 0.500000
vt 0.375000 0.500000
vt 0.375000 0.687500
vt 0.625000 0.687500
vt 0.625000 0.750000
vt 0.375000 0.750000
vt 0.375000 0.937500
vt 0.625000 0.937500
vt 0.625000 1.000000
vt 0.375000 1.000000
vt 0.625000 0.312500
vt 0.812500 0.687500
vt 0.812500 0.750000
vt 0.687500 0.750000
vt 0.687500 0.687500
vt 0.312500 0.687500
vt 0.312500 0.750000
vt 0.187500 0.750000
vt 0.187500 0.687500
vt 0.375000 0.812500
vt 0.625000 0.812500
vt 0.812500 0.672180
vt 0.875000 0.672180
vt 0.875000 0.687500
vt 0.312500 0.672180
vt 0.187500 0.672180
vt 0.375000 0.000000
vt 0.625000 0.000000
vt 0.625000 0.062500
vt 0.375000 0.062500
vt 0.375000 0.672180
vt 0.312500 0.500000
vt 0.312500 0.562500
vt 0.187500 0.562500
vt 0.187500 0.500000
vt 0.375000 0.171875
vt 0.625000 0.171875
vt 0.625000 0.672180
vt 0.375000 0.312500
vt 0.125000 0.672180
vt 0.125000 0.687500
vt 0.687500 0.672180
vt 0.687500 0.500000
vt 0.687500 0.562500
vt 0.625000 0.562500
vt 0.812500 0.500000
vt 0.812500 0.562500
vt 0.375000 0.562500
vt 0.125000 0.750000
vt 0.125000 0.500000
vt 0.125000 0.562500
vt 0.875000 0.750000
vt 0.875000 0.500000
vt 0.875000 0.562500
vt 0.875000 0.671875
vt 0.812500 0.671875
vt 0.625000 0.078125
vt 0.875000 0.578125
vt 0.812500 0.578125
vt 0.625000 0.093750
vt 0.812500 0.656250
vt 0.875000 0.656250
vt 0.625000 0.156250
vt 0.625000 0.132812
vt 0.812500 0.593750
vt 0.812500 0.617188
vt 0.875000 0.593750
vt 0.875000 0.617188
vt 0.375000 0.077820
vt 0.625000 0.077820
vt 0.625000 0.093139
vt 0.375000 0.093139
vt 0.625000 0.117035
vt 0.375000 0.117035
vt 0.625000 0.632965
vt 0.687500 0.632965
vt 0.687500 0.656861
vt 0.625000 0.656861
vt 0.812500 0.632965
vt 0.812500 0.656861
vt 0.125000 0.632965
vt 0.187500 0.632965
vt 0.187500 0.656861
vt 0.125000 0.656861
vt 0.375000 0.632965
vt 0.375000 0.656861
vt 0.312500 0.632965
vt 0.312500 0.656861
vt 0.312500 0.578125
vt 0.312500 0.593750
vt 0.187500 0.593750
vt 0.187500 0.578125
vt 0.375000 0.578125
vt 0.375000 0.593750
vt 0.625000 0.578125
vt 0.625000 0.593750
vt 0.125000 0.578125
vt 0.125000 0.593750
vt 0.687500 0.593750
vt 0.687500 0.578125
vt 0.625000 0.117188
vt 0.812500 0.632812
vt 0.875000 0.632812
vt 0.875000 0.656861
vt 0.375000 0.156250
vt 0.687500 0.617188
vt 0.125000 0.617188
vt 0.187500 0.617188
vt 0.375000 0.617188
vt 0.625000 0.617188
vt 0.375000 0.132812
vt 0.312500 0.617188
vt 0.875000 0.632965
vt 0.375000 0.750000
vt 0.312500 0.687500
vt 0.375000 0.937500
vt 0.375000 0.562500
vt 0.375000 0.500000
vt 0.187500 0.687500
vt 0.187500 0.687500
vt 0.375000 0.187500
vt 0.375000 0.312500
vt 0.375000 1.000000
vt 0.375000 0.062500
vt 0.375000 0.000000
vt 0.312500 0.750000
vt 0.187500 0.750000
s 0
f 27/1/1 25/2/1 4/3/1 3/4/1
f 21/5/2 19/6/2 8/7/2 7/8/2
f 12/9/3 10/10/3 6/11/3 5/12/3
f 16/13/4 14/14/4 2/15/4 1/16/4
f 66/17/5 65/3/5 50/3/5 54/17/5
f 18/18/6 14/19/6 22/20/6 23/21/6
f 24/22/7 20/23/7 16/24/7 17/25/7
f 20/26/8 22/27/8 14/14/8 16/13/8
f 108/28/6 111/29/6 11/30/6 18/18/6
f 110/31/7 24/22/7 17/25/7 107/32/7
f 1/33/1 2/34/1 11/35/1 9/36/1
f 110/31/7 112/37/7 12/9/7 24/22/7
f 21/38/7 32/39/7 29/40/7 13/41/7
f 99/42/1 97/43/1 25/2/1 27/1/1
f 112/37/9 106/44/9 10/10/9 12/9/9
f 3/4/10 4/3/10 15/17/10 13/45/10
f 13/45/11 15/17/11 19/6/11 21/5/11
f 105/46/7 107/32/7 17/25/7 9/47/7
f 5/12/12 6/11/12 22/27/12 20/26/12
f 10/10/6 23/21/6 22/20/6 6/11/6
f 108/28/13 18/18/13 23/21/13 109/48/13
f 8/7/6 19/49/6 31/50/6 28/51/6
f 15/52/6 30/53/6 31/50/6 19/49/6
f 7/8/14 8/7/14 28/51/14 26/54/14
f 63/15/15 61/14/15 51/14/15 52/15/15
f 106/44/16 109/48/16 23/21/16 10/10/16
f 45/22/7 41/9/7 40/12/7 39/23/7
f 33/47/7 42/25/7 43/24/7 34/55/7
f 36/56/7 35/41/7 47/40/7 46/57/7
f 44/38/7 38/8/7 37/54/7 48/39/7
f 55/18/17 53/30/17 52/58/17 51/19/17
f 54/52/18 50/59/18 49/60/18 56/53/18
f 67/53/19 66/52/19 54/52/19 56/53/19
f 72/61/7 71/62/7 64/18/7 62/30/7
f 69/63/1 72/63/1 62/35/1 53/35/1
f 62/35/1 63/34/1 52/34/1 53/35/1
f 61/19/19 64/18/19 55/18/19 51/19/19
f 65/3/1 68/2/1 49/2/1 50/3/1
f 14/19/6 18/18/6 60/18/6 57/19/6
f 11/35/6 2/34/6 58/34/6 59/35/6
f 18/18/6 11/30/6 59/30/6 60/18/6
f 2/15/6 14/14/6 57/14/6 58/15/6
f 57/19/19 60/18/19 64/18/19 61/19/19
f 59/35/1 58/34/1 63/34/1 62/35/1
f 60/18/20 59/30/20 62/30/20 64/18/20
f 58/15/21 57/14/21 61/14/21 63/15/21
f 4/3/1 25/2/1 68/2/1 65/3/1
f 25/60/22 30/53/22 67/53/22 68/60/22
f 30/53/19 15/52/19 66/52/19 67/53/19
f 15/17/23 4/3/23 65/3/23 66/17/23
f 71/62/19 70/62/19 55/18/19 64/18/19
f 70/62/6 69/61/6 53/30/6 55/18/6
f 56/53/6 49/60/6 129/64/6 131/65/6
f 111/29/24 108/28/24 71/62/24 72/61/24
f 89/66/1 92/66/1 72/63/1 69/63/1
f 91/67/19 90/67/19 70/62/19 71/62/19
f 90/67/6 89/68/6 69/61/6 70/62/6
f 95/69/1 133/70/1 134/70/1 96/69/1
f 94/71/19 135/72/19 136/72/19 93/71/19
f 96/73/6 134/74/6 135/72/6 94/71/6
f 105/75/1 111/76/1 79/77/1 73/78/1
f 73/78/1 79/77/1 113/79/1 115/80/1
f 116/81/25 119/82/25 77/83/25 74/84/25
f 118/85/26 76/86/26 77/83/26 119/82/26
f 115/87/7 117/88/7 75/89/7 73/90/7
f 114/91/27 116/81/27 74/84/27 80/92/27
f 120/93/7 114/91/7 80/92/7 78/94/7
f 120/93/7 78/94/7 75/89/7 117/88/7
f 97/43/1 81/69/1 95/69/1 132/43/1
f 104/95/7 88/96/7 85/97/7 101/98/7
f 104/95/7 98/99/7 82/100/7 88/96/7
f 98/99/28 100/101/28 84/102/28 82/100/28
f 99/103/7 101/98/7 85/97/7 83/104/7
f 102/65/29 86/71/29 87/105/29 103/106/29
f 100/101/30 103/106/30 87/105/30 84/102/30
f 86/71/6 81/73/6 127/74/6 124/72/6
f 138/107/1 133/70/1 127/70/1 113/79/1
f 92/66/1 89/66/1 137/107/1 138/107/1
f 90/67/19 91/67/19 139/108/19 140/108/19
f 89/68/6 90/67/6 140/108/6 137/109/6
f 108/28/19 76/86/19 91/67/19 71/62/19
f 81/73/31 86/71/31 93/71/31 95/73/31
f 136/72/19 139/108/19 118/85/19 124/72/19
f 133/74/10 136/72/10 124/72/10 127/74/10
f 76/86/32 79/110/32 92/68/32 91/67/32
f 102/65/33 97/64/33 132/64/33 130/65/33
f 129/43/1 132/43/1 95/69/1 96/69/1
f 130/65/19 131/65/19 94/71/19 93/71/19
f 131/65/6 129/64/6 96/73/6 94/71/6
f 28/51/34 31/50/34 103/106/34 100/101/34
f 30/53/35 102/65/35 103/106/35 31/50/35
f 27/57/7 29/40/7 101/98/7 99/103/7
f 26/54/36 28/51/36 100/101/36 98/99/36
f 32/39/7 26/54/7 98/99/7 104/95/7
f 32/39/7 104/95/7 101/98/7 29/40/7
f 30/53/6 25/60/6 97/64/6 102/65/6
f 83/111/1 81/69/1 97/43/1 99/42/1
f 9/36/1 11/35/1 111/76/1 105/75/1
f 74/84/37 77/83/37 109/48/37 106/44/37
f 76/86/38 108/28/38 109/48/38 77/83/38
f 73/90/7 75/89/7 107/32/7 105/46/7
f 80/92/39 74/84/39 106/44/39 112/37/39
f 78/94/7 80/92/7 112/37/7 110/31/7
f 78/94/7 110/31/7 107/32/7 75/89/7
f 79/77/1 111/76/1 72/63/1 92/66/1
f 124/72/40 118/85/40 119/82/40 125/112/40
f 121/113/7 123/114/7 117/88/7 115/87/7
f 128/115/27 122/116/27 116/81/27 114/91/27
f 115/80/1 113/79/1 127/70/1 121/117/1
f 126/118/7 120/93/7 117/88/7 123/114/7
f 139/108/41 138/109/41 113/119/41 118/85/41
f 118/85/6 113/119/6 79/110/6 76/86/6
f 121/117/1 127/70/1 81/69/1 83/111/1
f 126/118/7 128/115/7 114/91/7 120/93/7
f 88/96/7 126/118/7 123/114/7 85/97/7
f 88/96/7 82/100/7 128/115/7 126/118/7
f 82/100/27 84/102/27 122/116/27 128/115/27
f 83/104/7 85/97/7 123/114/7 121/113/7
f 86/71/42 124/72/42 125/112/42 87/105/42
f 84/102/43 87/105/43 125/112/43 122/116/43
f 86/71/19 102/65/19 130/65/19 93/71/19
f 122/116/44 125/112/44 119/82/44 116/81/44
f 67/53/19 56/53/19 131/65/19 130/65/19
f 49/2/1 68/2/1 132/43/1 129/43/1
f 68/60/7 67/53/7 130/65/7 132/64/7
f 91/67/7 92/68/7 138/109/7 139/108/7
f 135/72/6 134/74/6 137/109/6 140/108/6
f 136/72/19 135/72/19 140/108/19 139/108/19
f 134/70/1 133/70/1 138/107/1 137/107/1
f 93/71/7 136/72/7 133/74/7 95/73/7
f 144/12/45 147/9/45 148/9/45 143/120/45
f 154/39/46 153/39/46 145/121/46 146/121/46
f 166/122/47 165/13/47 141/26/47 142/26/47
f 141/26/48 144/12/48 143/120/48 142/26/48
f 156/123/49 149/124/49 150/124/49 155/123/49
f 162/40/50 161/40/50 153/39/50 154/39/50
f 155/123/6 154/39/6 146/121/6 148/9/6
f 149/124/51 152/5/51 151/5/51 150/124/51
f 167/125/52 168/126/52 161/40/52 162/40/52
f 158/4/53 160/1/53 159/127/53 157/4/53
f 164/41/6 162/40/6 154/39/6 151/38/6
f 163/128/54 158/4/54 157/4/54 164/45/54
f 170/47/6 167/125/6 162/40/6 159/57/6
f 172/129/47 165/13/47 166/122/47 171/16/47
f 169/130/53 172/33/53 171/131/53 170/36/53
f 167/125/6 166/24/6 142/132/6 146/121/6
f 141/23/46 145/121/46 45/22/46 39/23/46
f 5/12/55 20/26/55 142/26/55 143/120/55
f 144/12/56 141/26/56 39/26/56 40/12/56
f 20/23/46 24/22/46 146/121/46 142/132/46
f 147/9/57 144/12/57 40/12/57 41/9/57
f 12/9/58 5/12/58 143/120/58 148/9/58
f 145/121/59 147/9/59 41/9/59 45/22/59
f 24/22/59 12/9/59 148/9/59 146/121/59
f 149/124/60 156/123/60 37/54/60 38/8/60
f 21/5/61 7/8/61 150/124/61 151/5/61
f 152/5/62 149/124/62 38/8/62 44/5/62
f 7/8/63 26/54/63 155/123/63 150/124/63
f 153/39/46 152/38/46 44/38/46 48/39/46
f 32/39/46 21/38/46 151/38/46 154/39/46
f 26/54/50 32/39/50 154/39/50 155/123/50
f 156/123/50 153/39/50 48/39/50 37/54/50
f 160/1/53 158/4/53 36/4/53 46/1/53
f 3/4/54 13/45/54 164/45/54 157/4/54
f 27/1/53 3/4/53 157/4/53 159/127/53
f 158/4/54 163/128/54 35/45/54 36/4/54
f 161/40/50 160/57/50 46/57/50 47/40/50
f 29/40/50 27/57/50 159/57/50 162/40/50
f 13/41/52 29/40/52 162/40/52 164/41/52
f 163/41/52 161/40/52 47/40/52 35/41/52
f 165/13/47 172/129/47 34/16/47 43/13/47
f 17/25/52 16/24/52 166/24/52 167/125/52
f 168/126/52 165/133/52 43/24/52 42/25/52
f 16/13/47 1/16/47 171/16/47 166/122/47
f 169/47/59 168/126/59 42/25/59 33/47/59
f 9/47/59 17/25/59 167/125/59 170/47/59
f 1/33/53 9/36/53 170/36/53 171/131/53
f 172/33/53 169/130/53 33/36/53 34/33/53
f 153/39/7 156/123/7 147/9/7 145/121/7
f 156/123/64 155/123/64 148/9/64 147/9/64
f 161/40/7 163/41/7 152/38/7 153/39/7
f 163/128/54 164/45/54 151/5/54 152/5/54
f 165/133/7 168/126/7 145/121/7 141/23/7
f 168/126/59 167/125/59 146/121/59 145/121/59
f 168/126/7 169/47/7 160/57/7 161/40/7
f 169/130/53 170/36/53 159/127/53 160/1/53
