# Blender 5.1.0
# www.blender.org
mtllib DoorCell.mtl
o CellDoor
v -0.041737 -1.020000 -0.033256
v -0.041737 1.020000 -0.033256
v 0.041737 -1.020000 -0.033256
v 0.041737 1.020000 -0.033256
v -0.041737 -1.020000 1.147387
v -0.041737 1.020000 1.147387
v 0.041737 -1.020000 1.147387
v 0.041737 1.020000 1.147387
v -0.041737 -0.728572 -0.033256
v -0.041737 -0.437143 -0.033256
v -0.041737 -0.145714 -0.033256
v -0.041737 0.145714 -0.033256
v -0.041737 0.437143 -0.033256
v -0.041737 0.728571 -0.033256
v 0.041737 0.728571 -0.033256
v 0.041737 0.437143 -0.033256
v 0.041737 0.145714 -0.033256
v 0.041737 -0.145714 -0.033256
v 0.041737 -0.437143 -0.033256
v 0.041737 -0.728572 -0.033256
v 0.041737 0.728571 1.147387
v 0.041737 0.437143 1.147387
v 0.041737 0.145714 1.147387
v 0.041737 -0.145714 1.147387
v 0.041737 -0.437143 1.147387
v 0.041737 -0.728572 1.147387
v -0.041737 0.579850 0.956630
v -0.041737 0.437143 0.956630
v -0.041737 0.294436 0.956630
v -0.041737 -0.145714 1.147387
v -0.041737 -0.437143 1.147387
v -0.041737 -0.728572 1.147387
v 0.041737 -1.020000 0.033256
v 0.041737 1.020000 0.033256
v -0.041737 -1.020000 0.033256
v -0.041737 1.020000 0.033256
v -0.041737 -0.728572 0.033256
v -0.041737 -0.437143 0.033256
v -0.041737 -0.145714 0.033256
v -0.041737 0.294436 0.224013
v -0.041737 0.437143 0.224013
v -0.041737 0.579850 0.224013
v 0.041737 -0.728572 0.033256
v 0.041737 -0.437143 0.033256
v 0.041737 -0.145714 0.033256
v 0.041737 0.145714 0.033256
v 0.041737 0.437143 0.033256
v 0.041737 0.728571 0.033256
v -0.041737 0.728571 1.147387
v -0.041737 0.437143 1.147387
v -0.041737 0.145714 1.147387
v -0.041737 0.145714 0.033256
v -0.041737 0.728571 0.033256
v -0.041737 0.437143 0.033256
v -0.059176 0.437143 0.956630
v -0.059176 0.437143 0.224013
v -0.059176 0.579850 0.956630
v -0.059176 0.294436 0.956630
v -0.059176 0.294436 0.224013
v -0.059176 0.579850 0.224013
v -0.059176 0.437143 0.939211
v -0.044828 0.437143 0.263783
v -0.044828 0.547965 0.916860
v -0.044828 0.326321 0.916860
v -0.044828 0.326321 0.263783
v -0.044828 0.547965 0.263783
v -0.059176 0.565662 0.939211
v -0.044828 0.437143 0.916860
v -0.059176 0.308624 0.939211
v -0.059176 0.308624 0.241432
v -0.059176 0.565662 0.241432
v -0.059176 0.437143 0.241432
v -0.041321 -0.205482 0.662395
v -0.041321 0.197846 0.662395
v -0.041321 -0.205482 0.956610
v -0.041321 0.197846 0.956610
v -0.081887 0.166747 0.925512
v -0.081887 -0.174383 0.925512
v -0.081887 -0.174383 0.693494
v -0.081887 0.166747 0.693494
v -0.082109 -0.093749 0.836645
v -0.082109 0.081440 0.836645
v -0.082109 -0.093749 0.920017
v -0.082109 0.081440 0.920017
v -0.094300 -0.093749 0.836645
v -0.094300 0.081440 0.836645
v -0.094300 -0.093749 0.920017
v -0.094300 0.081440 0.920017
v -0.082453 0.048872 0.710640
v -0.093030 0.030553 0.710640
v -0.061300 0.048872 0.710640
v -0.061300 0.012234 0.710640
v -0.050723 0.030553 0.710640
v -0.082453 0.012234 0.710640
v -0.050723 0.030553 0.725298
v -0.082453 0.048872 0.725298
v -0.082453 0.012234 0.725299
v -0.093030 0.030553 0.725299
v -0.061300 0.048872 0.725298
v -0.061300 0.012234 0.725299
v -0.052900 0.030553 0.725298
v -0.081365 0.046987 0.725298
v -0.081365 0.014119 0.725299
v -0.090853 0.030553 0.725299
v -0.062388 0.046987 0.725298
v -0.062388 0.014119 0.725299
v -0.082453 -0.106246 0.710640
v -0.061300 -0.106246 0.710640
v -0.061300 -0.106246 0.725299
v -0.082453 -0.106246 0.725299
v -0.082453 0.048872 0.829478
v -0.093030 0.030553 0.829478
v -0.061300 0.048872 0.829478
v -0.061300 0.012234 0.829478
v -0.050723 0.030553 0.829478
v -0.082453 0.012234 0.829478
v -0.050723 0.030553 0.814819
v -0.082453 0.048872 0.814819
v -0.082453 0.012234 0.814819
v -0.093030 0.030553 0.814819
v -0.061300 0.048872 0.814819
v -0.061300 0.012234 0.814819
v -0.052900 0.030553 0.814819
v -0.081365 0.046987 0.814819
v -0.081365 0.014119 0.814819
v -0.090853 0.030553 0.814819
v -0.062388 0.046987 0.814819
v -0.062388 0.014119 0.814819
v -0.058330 -0.134535 0.704453
v -0.058330 -0.088579 0.704453
v -0.058330 -0.134535 0.731546
v -0.058330 -0.088579 0.731546
v -0.085423 -0.134535 0.704453
v -0.085423 -0.088579 0.704453
v -0.085423 -0.134535 0.731546
v -0.085423 -0.088579 0.731546
v -0.058330 -0.134535 0.725641
v -0.058330 -0.134535 0.710358
v -0.058330 -0.088579 0.710358
v -0.058330 -0.088579 0.725641
v -0.085423 -0.134535 0.710358
v -0.085423 -0.134535 0.725641
v -0.085423 -0.088579 0.725641
v -0.085423 -0.088579 0.710358
v -0.058330 -0.111557 0.704453
v -0.058330 -0.111557 0.731546
v -0.085423 -0.111557 0.731546
v -0.085423 -0.111557 0.704453
v -0.085423 -0.111557 0.725641
v -0.085423 -0.111557 0.710358
v -0.058330 -0.111557 0.710358
v -0.058330 -0.111557 0.725641
v -0.081888 0.166747 0.693494
v -0.081888 -0.174383 0.693494
v -0.081888 -0.174383 0.925512
v -0.081888 0.166747 0.925512
v -0.081888 0.166747 0.832711
v -0.081888 0.166747 0.706573
v -0.081888 -0.174383 0.706573
v -0.081888 -0.174383 0.832711
v -0.081888 0.166747 0.729330
v -0.081888 -0.174383 0.729330
v -0.081888 -0.132957 0.693494
v -0.081888 -0.132957 0.925512
v -0.081888 -0.132957 0.706573
v -0.081888 -0.132957 0.832711
v -0.081888 -0.132957 0.729330
v -0.081888 0.053005 0.925512
v -0.081888 0.053005 0.693494
v -0.081888 0.053005 0.706573
v -0.081888 0.053005 0.832711
v -0.081888 0.053005 0.729330
v -0.081888 0.007891 0.693494
v -0.081888 0.007891 0.706573
v -0.081888 0.007891 0.832711
v -0.081888 0.007891 0.925512
v -0.081888 -0.174383 0.814108
v -0.081888 0.166747 0.814108
v -0.081888 -0.132957 0.814108
v -0.081888 0.053005 0.814108
v -0.081888 0.007891 0.814108
v -0.081888 0.070796 0.925512
v -0.081888 0.070796 0.693494
v -0.081888 0.070796 0.706573
v -0.081888 0.070796 0.832711
v -0.081888 0.081440 0.729330
v -0.081888 0.081440 0.814108
v -0.081888 -0.010118 0.693494
v -0.081888 -0.010118 0.706573
v -0.081888 -0.010118 0.832711
v -0.081888 -0.020762 0.729330
v -0.081888 -0.010118 0.925512
v -0.081888 -0.020762 0.814108
v -0.050599 -0.132957 0.706573
v -0.050599 -0.132957 0.729330
v -0.050599 0.053005 0.706573
v -0.050599 0.053005 0.832711
v -0.050599 0.053005 0.729330
v -0.050599 0.007891 0.706573
v -0.050599 0.007891 0.832711
v -0.050599 0.053005 0.814108
v -0.050599 0.007891 0.814108
v -0.050599 0.081440 0.729330
v -0.050599 0.081440 0.814108
v -0.050599 -0.010118 0.706573
v -0.050599 -0.020762 0.729330
v -0.050599 -0.020762 0.814108
v -0.050599 0.007891 0.729330
v 0.015828 -0.728571 0.027415
v 0.015828 0.728571 -0.027415
v 0.031656 -0.728571 -0.000000
v 0.015828 0.728571 0.027415
v -0.031656 0.728571 -0.000000
v -0.015828 0.728571 -0.027415
v 0.031656 0.728571 -0.000000
v -0.015828 0.728571 0.027415
v -0.015828 -0.728571 0.027415
v 0.015828 -0.728571 -0.027415
v -0.031656 -0.728571 -0.000000
v -0.015828 -0.728571 -0.027415
v -0.040112 0.182259 1.060602
v -0.040112 0.182259 1.042690
v -0.040112 0.166747 1.033734
v -0.040112 0.151235 1.042690
v -0.040112 0.151235 1.060602
v -0.040112 0.166747 1.069558
v -0.084779 0.181392 1.060602
v -0.084779 0.181392 1.042690
v -0.079663 0.166747 1.033734
v -0.074547 0.152103 1.042690
v -0.074547 0.152103 1.060602
v -0.079663 0.166747 1.069558
v -0.123296 0.149882 1.060602
v -0.123296 0.149882 1.042690
v -0.109323 0.143144 1.033734
v -0.095351 0.136407 1.042690
v -0.095351 0.136407 1.060602
v -0.109323 0.143144 1.069558
v -0.123296 -0.157518 1.060602
v -0.123296 -0.157518 1.042690
v -0.109323 -0.150780 1.033734
v -0.095351 -0.144043 1.042690
v -0.095351 -0.144043 1.060602
v -0.109323 -0.150780 1.069558
v -0.084779 -0.189028 1.060602
v -0.084779 -0.189028 1.042690
v -0.079663 -0.174383 1.033734
v -0.074547 -0.159739 1.042690
v -0.074547 -0.159739 1.060602
v -0.079663 -0.174383 1.069558
v -0.040112 -0.189895 1.060602
v -0.040112 -0.189895 1.042690
v -0.040112 -0.174383 1.033734
v -0.040112 -0.158871 1.042690
v -0.040112 -0.158871 1.060602
v -0.040112 -0.174383 1.069558
vn -0.0000 -0.0000 -1.0000
vn 1.0000 -0.0000 -0.0000
vn -0.0000 -0.0000 1.0000
vn -1.0000 -0.0000 -0.0000
vn -0.0000 -1.0000 -0.0000
vn -0.0000 1.0000 -0.0000
vn -0.8415 -0.0000 -0.5402
vn -0.7768 0.6298 -0.0000
vn -0.7768 -0.6298 -0.0000
vn -0.8415 -0.0000 0.5402
vn -0.6084 -0.0000 0.7936
vn -0.6084 -0.0000 -0.7936
vn -0.6084 -0.7936 -0.0000
vn -0.6084 0.7936 -0.0000
vn -0.8660 -0.5000 -0.0000
vn 0.8660 -0.5000 -0.0000
vn -0.8660 0.5000 -0.0000
vn 0.8660 0.5000 -0.0000
vn -0.8660 -0.0000 -0.5000
vn 0.8660 -0.0000 -0.5000
vn 0.8660 -0.0000 0.5000
vn -0.8660 -0.0000 0.5000
vn -0.0053 0.5100 0.8602
vn -0.0194 0.9998 -0.0000
vn -0.0053 0.5100 -0.8602
vn -0.0060 -0.5114 -0.8593
vn -0.0252 -0.9997 -0.0000
vn -0.0060 -0.5114 0.8593
vn -0.3334 0.4125 0.8477
vn -0.6332 0.7740 -0.0000
vn -0.3334 0.4125 -0.8477
vn 0.3261 -0.4188 -0.8475
vn 0.6023 -0.7983 -0.0000
vn 0.3261 -0.4188 0.8475
vn -0.5396 -0.0000 0.8419
vn -0.5396 -0.0000 -0.8419
vn 0.5396 -0.0000 -0.8419
vn 0.5396 -0.0000 0.8419
vn -0.3334 -0.4125 0.8477
vn -0.6332 -0.7740 -0.0000
vn -0.3334 -0.4125 -0.8477
vn 0.3261 0.4188 -0.8475
vn 0.6023 0.7983 -0.0000
vn 0.3261 0.4188 0.8475
vn -0.0053 -0.5100 0.8602
vn -0.0194 -0.9998 -0.0000
vn -0.0053 -0.5100 -0.8602
vn -0.0060 0.5114 -0.8593
vn -0.0252 0.9997 -0.0000
vn -0.0060 0.5114 0.8593
vt 0.589286 0.000000
vt 0.625000 0.000000
vt 0.625000 0.250000
vt 0.589286 0.250000
vt 0.589286 0.265988
vt 0.625000 0.265988
vt 0.625000 0.500000
vt 0.589286 0.500000
vt 0.625000 0.750000
vt 0.589286 0.750000
vt 0.589286 0.984012
vt 0.625000 0.984012
vt 0.625000 1.000000
vt 0.589286 1.000000
vt 0.140988 0.500000
vt 0.375000 0.500000
vt 0.375000 0.750000
vt 0.140988 0.750000
vt 0.859012 0.500000
vt 0.875000 0.500000
vt 0.875000 0.750000
vt 0.859012 0.750000
vt 0.375000 0.984012
vt 0.410714 0.984012
vt 0.410714 1.000000
vt 0.375000 1.000000
vt 0.446429 0.984012
vt 0.482143 0.984012
vt 0.482143 1.000000
vt 0.446429 1.000000
vt 0.553571 0.265988
vt 0.553571 0.984012
vt 0.517857 0.984012
vt 0.553571 1.000000
vt 0.517857 1.000000
vt 0.553571 0.250000
vt 0.553571 0.000000
vt 0.410714 0.500000
vt 0.410714 0.750000
vt 0.446429 0.500000
vt 0.446429 0.750000
vt 0.482143 0.500000
vt 0.482143 0.750000
vt 0.517857 0.500000
vt 0.517857 0.750000
vt 0.553571 0.500000
vt 0.553571 0.750000
vt 0.375000 0.265988
vt 0.410714 0.265988
vt 0.446429 0.265988
vt 0.482143 0.265988
vt 0.517857 0.265988
vt 0.375000 0.000000
vt 0.410714 0.000000
vt 0.410714 0.250000
vt 0.375000 0.250000
vt 0.517857 0.000000
vt 0.517857 0.250000
vt 0.446429 0.000000
vt 0.482143 0.000000
vt 0.482143 0.250000
vt 0.446429 0.250000
vt 0.527991 0.967492
vt 0.527991 0.766520
vt 0.579152 0.967492
vt 0.553571 0.967492
vt 0.125000 0.500000
vt 0.125000 0.750000
vt 0.579152 0.766520
vt 0.553571 0.766520
vt 0.553571 0.769271
vt 0.577094 0.769271
vt 0.577094 0.964741
vt 0.553571 0.964741
vt 0.530048 0.769271
vt 0.530048 0.964741
vt 0.000000 0.000000
vt 0.321558 0.709289
vt 0.205162 0.694444
vt 0.500000 0.166667
vt 0.625000 0.166667
vt 0.500000 0.250000
vt 0.500000 0.500000
vt 0.500000 0.666667
vt 0.625000 0.666667
vt 0.500000 0.750000
vt 0.500000 1.000000
vt 0.125000 0.666667
vt 0.375000 0.666667
vt 0.875000 0.666667
vt 0.875000 0.583333
vt 0.625000 0.583333
vt 0.500000 0.083333
vt 0.375000 0.583333
vt 0.125000 0.583333
vt 0.500000 0.583333
vt 0.500000 0.000000
vt 0.625000 0.083333
vt 0.375000 0.083333
vt 0.375000 0.166667
vt 0.625000 0.625000
vt 0.875000 0.625000
vt 0.000000 1.000000
vt 0.200000 1.000000
vt 0.200000 0.833333
vt 0.000000 0.833333
vt 0.000000 0.166667
vt 0.200000 0.166667
vt 0.200000 0.000000
vt 0.000000 0.333333
vt 0.200000 0.333333
vt 0.000000 0.500000
vt 0.200000 0.500000
vt 0.000000 0.666667
vt 0.200000 0.666667
vt 0.400000 1.000000
vt 0.400000 0.833333
vt 0.400000 0.166667
vt 0.400000 0.000000
vt 0.400000 0.333333
vt 0.400000 0.500000
vt 0.400000 0.666667
vt 0.600000 1.000000
vt 0.600000 0.833333
vt 0.600000 0.166667
vt 0.600000 0.000000
vt 0.600000 0.333333
vt 0.600000 0.500000
vt 0.600000 0.666667
vt 0.800000 1.000000
vt 0.800000 0.833333
vt 0.800000 0.166667
vt 0.800000 0.000000
vt 0.800000 0.333333
vt 0.800000 0.500000
vt 0.800000 0.666667
vt 1.000000 1.000000
vt 1.000000 0.833333
vt 1.000000 0.166667
vt 1.000000 0.000000
vt 1.000000 0.333333
vt 1.000000 0.500000
vt 1.000000 0.666667
s 0
f 14/1/1 2/2/1 4/3/1 15/4/1
f 48/5/2 34/6/2 8/7/2 21/8/2
f 21/8/3 8/7/3 6/9/3 49/10/3
f 53/11/4 36/12/4 2/13/4 14/14/4
f 33/15/5 7/16/5 5/17/5 35/18/5
f 34/19/6 4/20/6 2/21/6 36/22/6
f 35/23/4 37/24/4 9/25/4 1/26/4
f 48/5/5 53/11/5 14/1/5 15/4/5
f 38/27/4 39/28/4 11/29/4 10/30/4
f 48/5/1 47/31/1 54/32/1 53/11/1
f 52/33/4 54/32/4 13/34/4 12/35/4
f 47/31/6 16/36/6 13/37/6 54/32/6
f 7/16/3 26/38/3 32/39/3 5/17/3
f 26/38/3 25/40/3 31/41/3 32/39/3
f 25/40/3 24/42/3 30/43/3 31/41/3
f 24/42/3 23/44/3 51/45/3 30/43/3
f 23/44/3 22/46/3 50/47/3 51/45/3
f 22/46/3 21/8/3 49/10/3 50/47/3
f 33/48/2 43/49/2 26/38/2 7/16/2
f 43/49/2 44/50/2 25/40/2 26/38/2
f 44/50/2 45/51/2 24/42/2 25/40/2
f 45/51/2 46/52/2 23/44/2 24/42/2
f 46/52/2 47/31/2 22/46/2 23/44/2
f 47/31/2 48/5/2 21/8/2 22/46/2
f 1/53/1 9/54/1 20/55/1 3/56/1
f 46/52/5 52/33/5 12/57/5 17/58/5
f 10/59/1 11/60/1 18/61/1 19/62/1
f 46/52/1 45/51/1 39/28/1 52/33/1
f 12/57/1 13/37/1 16/36/1 17/58/1
f 45/51/6 18/61/6 11/60/6 39/28/6
f 44/50/5 38/27/5 10/59/5 19/62/5
f 17/58/2 16/36/2 47/31/2 46/52/2
f 44/50/1 43/49/1 37/24/1 38/27/1
f 19/62/2 18/61/2 45/51/2 44/50/2
f 43/49/6 20/55/6 9/54/6 37/24/6
f 3/56/2 20/55/2 43/49/2 33/48/2
f 40/63/5 29/64/5 58/64/5 59/63/5
f 42/65/1 41/66/1 56/66/1 60/65/1
f 30/43/4 51/45/4 52/33/4 39/28/4
f 31/41/4 30/43/4 39/28/4 38/27/4
f 32/39/4 31/41/4 38/27/4 37/24/4
f 5/17/4 32/39/4 37/24/4 35/23/4
f 8/7/6 34/19/6 36/22/6 6/9/6
f 3/67/5 33/15/5 35/18/5 1/68/5
f 49/10/4 6/9/4 36/12/4 53/11/4
f 15/4/2 4/3/2 34/6/2 48/5/2
f 27/69/4 28/70/4 50/47/4 49/10/4
f 28/70/4 29/64/4 51/45/4 50/47/4
f 29/64/4 40/63/4 52/33/4 51/45/4
f 42/65/4 27/69/4 49/10/4 53/11/4
f 41/66/4 42/65/4 53/11/4 54/32/4
f 40/63/4 41/66/4 54/32/4 52/33/4
f 59/63/4 58/64/4 69/64/4 70/63/4
f 60/65/4 56/66/4 72/66/4 71/65/4
f 28/70/3 27/69/3 57/69/3 55/70/3
f 41/66/1 40/63/1 59/63/1 56/66/1
f 27/69/6 42/65/6 60/65/6 57/69/6
f 29/64/3 28/70/3 55/70/3 58/64/3
f 68/71/4 63/72/4 66/73/4 62/74/4
f 64/75/4 68/71/4 62/74/4 65/76/4
f 55/70/4 57/69/4 67/69/4 61/70/4
f 56/66/4 59/63/4 70/63/4 72/66/4
f 57/69/4 60/65/4 71/65/4 67/69/4
f 58/64/4 55/70/4 61/70/4 69/64/4
f 63/72/7 68/71/7 61/70/7 67/69/7
f 68/71/7 64/75/7 69/64/7 61/70/7
f 64/75/8 65/76/8 70/63/8 69/64/8
f 66/73/9 63/72/9 67/69/9 71/65/9
f 62/74/10 66/73/10 71/65/10 72/66/10
f 65/76/10 62/74/10 72/66/10 70/63/10
f 75/56/11 76/3/11 77/7/11 78/16/11
f 79/17/12 80/9/12 74/13/12 73/26/12
f 75/67/13 78/16/13 79/17/13 73/68/13
f 77/7/14 76/20/14 74/21/14 80/9/14
f 81/53/2 82/2/2 84/3/2 83/56/2
f 83/56/3 84/3/3 88/7/3 87/16/3
f 87/16/4 88/7/4 86/9/4 85/17/4
f 85/17/1 86/9/1 82/13/1 81/26/1
f 83/67/5 87/16/5 85/17/5 81/68/5
f 88/7/6 84/20/6 82/21/6 86/9/6
f 94/77/15 97/77/15 98/77/15 90/77/15
f 95/77/3 99/77/3 105/77/3 101/77/3
f 93/77/16 95/77/16 100/77/16 92/77/16
f 97/78/3 100/79/3 106/79/3 103/78/3
f 89/77/6 96/77/6 99/77/6 91/77/6
f 90/77/17 98/77/17 96/77/17 89/77/17
f 99/77/3 96/77/3 102/77/3 105/77/3
f 98/77/3 97/77/3 103/77/3 104/77/3
f 94/78/1 92/77/1 108/77/1 107/78/1
f 91/77/18 99/77/18 95/77/18 93/77/18
f 100/77/3 95/77/3 101/77/3 106/77/3
f 96/77/3 98/77/3 104/77/3 102/77/3
f 91/77/1 93/77/1 90/77/1 89/77/1
f 90/77/1 93/77/1 92/77/1 94/78/1
f 108/79/5 109/79/5 110/78/5 107/78/5
f 100/79/3 97/78/3 110/78/3 109/79/3
f 92/77/2 100/77/2 109/77/2 108/77/2
f 97/77/4 94/77/4 107/77/4 110/77/4
f 125/77/15 126/77/15 104/77/15 103/77/15
f 128/79/5 125/78/5 103/78/5 106/79/5
f 126/77/17 124/77/17 102/77/17 104/77/17
f 124/77/6 127/77/6 105/77/6 102/77/6
f 123/77/16 128/77/16 106/77/16 101/77/16
f 116/77/15 112/77/15 120/77/15 119/77/15
f 117/77/1 123/77/1 127/77/1 121/77/1
f 115/77/16 114/77/16 122/77/16 117/77/16
f 119/78/1 125/78/1 128/79/1 122/79/1
f 111/77/6 113/77/6 121/77/6 118/77/6
f 112/77/17 111/77/17 118/77/17 120/77/17
f 121/77/1 127/77/1 124/77/1 118/77/1
f 120/77/1 126/77/1 125/77/1 119/77/1
f 113/77/18 115/77/18 117/77/18 121/77/18
f 122/77/1 128/77/1 123/77/1 117/77/1
f 118/77/1 124/77/1 126/77/1 120/77/1
f 113/77/3 111/77/3 112/77/3 115/77/3
f 112/77/3 116/78/3 114/77/3 115/77/3
f 116/77/5 119/77/5 122/79/5 114/77/5
f 127/77/18 123/77/18 101/77/18 105/77/18
f 152/80/2 140/81/2 132/3/2 146/82/2
f 146/82/3 132/3/3 136/7/3 147/83/3
f 150/84/4 144/85/4 134/9/4 148/86/4
f 148/86/1 134/9/1 130/13/1 145/87/1
f 138/88/5 141/89/5 133/17/5 129/68/5
f 144/85/6 139/90/6 130/21/6 134/9/6
f 136/7/6 132/20/6 140/91/6 143/92/6
f 150/84/3 151/93/3 139/90/3 144/85/3
f 131/67/5 135/16/5 142/94/5 137/95/5
f 137/95/5 142/94/5 141/89/5 138/88/5
f 147/83/4 136/7/4 143/92/4 149/96/4
f 151/93/6 150/84/6 149/96/6 152/80/6
f 145/97/2 130/2/2 139/98/2 151/93/2
f 149/96/1 143/92/1 140/91/1 152/80/1
f 138/99/2 151/93/2 152/80/2 137/100/2
f 129/53/2 145/97/2 151/93/2 138/99/2
f 142/94/4 149/96/4 150/84/4 141/89/4
f 135/16/4 147/83/4 149/96/4 142/94/4
f 133/17/1 148/86/1 145/87/1 129/26/1
f 141/89/4 150/84/4 148/86/4 133/17/4
f 131/56/3 146/82/3 147/83/3 135/16/3
f 137/100/2 152/80/2 146/82/2 131/56/2
f 166/77/4 160/77/4 155/77/4 164/77/4
f 163/77/4 154/77/4 159/77/4 165/77/4
f 179/77/4 177/77/4 160/77/4 166/77/4
f 165/77/4 159/77/4 162/77/4 167/77/4
f 193/77/4 179/77/4 166/77/4 190/77/4
f 188/77/4 163/77/4 165/77/4 189/77/4
f 190/77/4 166/77/4 164/77/4 192/77/4
f 185/77/4 171/77/4 168/77/4 182/77/4
f 183/77/4 169/77/4 170/77/4 184/77/4
f 187/77/4 180/77/4 171/77/4 185/77/4
f 184/77/4 170/77/4 172/77/4 186/77/4
f 171/77/4 175/77/4 176/77/4 168/77/4
f 169/77/4 173/77/4 174/77/4 170/77/4
f 191/77/4 167/77/4 179/77/4 193/77/4
f 167/77/4 162/77/4 177/77/4 179/77/4
f 161/77/4 186/77/4 187/77/4 178/77/4
f 158/77/4 184/77/4 186/77/4 161/77/4
f 178/77/4 187/77/4 185/77/4 157/77/4
f 153/77/4 183/77/4 184/77/4 158/77/4
f 157/77/4 185/77/4 182/77/4 156/77/4
f 175/77/4 190/77/4 192/77/4 176/77/4
f 173/77/4 188/77/4 189/77/4 174/77/4
f 181/77/4 193/77/4 190/77/4 175/77/4
f 170/77/5 196/77/5 198/77/5 172/77/5
f 181/77/1 202/77/1 207/77/1 193/77/1
f 165/77/3 194/77/3 205/77/3 189/77/3
f 193/77/6 207/77/6 206/77/6 191/77/6
f 174/77/3 199/77/3 196/77/3 170/77/3
f 180/77/5 201/77/5 197/77/5 171/77/5
f 191/77/1 206/77/1 195/77/1 167/77/1
f 171/77/1 197/77/1 200/77/1 175/77/1
f 175/77/6 200/77/6 202/77/6 181/77/6
f 167/77/6 195/77/6 194/77/6 165/77/6
f 172/77/3 198/77/3 203/77/3 186/77/3
f 187/77/1 204/77/1 201/77/1 180/77/1
f 189/77/3 205/77/3 199/77/3 174/77/3
f 186/77/5 203/77/5 204/77/5 187/77/5
f 198/77/4 201/77/4 204/77/4 203/77/4
f 207/77/4 202/77/4 208/77/4 206/77/4
f 200/77/4 197/77/4 201/77/4 202/77/4
f 198/77/4 208/77/4 202/77/4 201/77/4
f 198/77/4 196/77/4 199/77/4 208/77/4
f 199/77/4 205/77/4 206/77/4 208/77/4
f 194/77/4 195/77/4 206/77/4 205/77/4
f 216/7/3 217/7/3 209/20/3 212/20/3
f 217/7/5 219/101/5 211/102/5 209/20/5
f 216/7/6 212/20/6 215/102/6 213/101/6
f 219/101/5 220/9/5 218/21/5 211/102/5
f 214/9/19 220/9/19 219/101/19 213/101/19
f 213/101/6 215/102/6 210/21/6 214/9/6
f 215/102/20 211/102/20 218/21/20 210/21/20
f 212/20/21 209/20/21 211/102/21 215/102/21
f 210/21/1 218/21/1 220/9/1 214/9/1
f 213/101/22 219/101/22 217/7/22 216/7/22
f 221/103/23 227/104/23 232/105/23 226/106/23
f 222/107/24 228/108/24 227/109/24 221/77/24
f 223/110/25 229/111/25 228/108/25 222/107/25
f 224/112/26 230/113/26 229/111/26 223/110/26
f 225/114/27 231/115/27 230/113/27 224/112/27
f 226/106/28 232/105/28 231/115/28 225/114/28
f 227/104/29 233/116/29 238/117/29 232/105/29
f 228/108/30 234/118/30 233/119/30 227/109/30
f 229/111/31 235/120/31 234/118/31 228/108/31
f 230/113/32 236/121/32 235/120/32 229/111/32
f 231/115/33 237/122/33 236/121/33 230/113/33
f 232/105/34 238/117/34 237/122/34 231/115/34
f 233/116/35 239/123/35 244/124/35 238/117/35
f 234/118/4 240/125/4 239/126/4 233/119/4
f 235/120/36 241/127/36 240/125/36 234/118/36
f 236/121/37 242/128/37 241/127/37 235/120/37
f 237/122/2 243/129/2 242/128/2 236/121/2
f 238/117/38 244/124/38 243/129/38 237/122/38
f 239/123/39 245/130/39 250/131/39 244/124/39
f 240/125/40 246/132/40 245/133/40 239/126/40
f 241/127/41 247/134/41 246/132/41 240/125/41
f 242/128/42 248/135/42 247/134/42 241/127/42
f 243/129/43 249/136/43 248/135/43 242/128/43
f 244/124/44 250/131/44 249/136/44 243/129/44
f 245/130/45 251/137/45 256/138/45 250/131/45
f 246/132/46 252/139/46 251/140/46 245/133/46
f 247/134/47 253/141/47 252/139/47 246/132/47
f 248/135/48 254/142/48 253/141/48 247/134/48
f 249/136/49 255/143/49 254/142/49 248/135/49
f 250/131/50 256/138/50 255/143/50 249/136/50
