# Blender 5.1.2
# www.blender.org
mtllib FanBlades.mtl
o FanBlades
v 0.051160 1.168028 3.594822
v 0.051160 3.057938 2.221722
v 0.051160 3.779819 0.000000
v 0.051160 3.057938 -2.221722
v 0.051160 1.168028 -3.594822
v 0.051160 -1.168029 -3.594822
v 0.051160 -3.057938 -2.221722
v 0.051160 -3.779819 0.000000
v 0.051160 -3.057938 2.221722
v 0.051160 -1.168029 3.594822
v 0.316333 0.584013 3.687320
v -0.198040 1.694875 3.326380
v 0.316333 2.639830 2.639830
v -0.198040 3.326380 1.694875
v 0.316333 3.687320 0.584014
v -0.198040 3.687320 -0.584014
v 0.316333 3.326380 -1.694875
v -0.198040 2.639830 -2.639830
v 0.316333 1.694875 -3.326380
v -0.198040 0.584013 -3.687320
v 0.316333 -0.584015 -3.687320
v -0.198041 -1.694875 -3.326380
v 0.316333 -2.639830 -2.639830
v -0.198041 -3.326380 -1.694875
v 0.316333 -3.687321 -0.584014
v -0.198041 -3.687321 0.584014
v 0.316333 -3.326380 1.694875
v -0.198041 -2.639830 2.639830
v 0.316333 -1.694875 3.326380
v -0.198040 -0.584015 3.687320
v 0.051160 0.092955 0.586900
v 0.051160 -0.000001 0.601623
v 0.051160 0.269768 0.529450
v 0.051160 0.156937 0.483002
v 0.051160 0.420173 0.420175
v 0.051160 0.353624 0.486723
v 0.051160 0.529450 0.269768
v 0.051160 0.410866 0.298511
v 0.051160 0.586900 0.092956
v 0.051160 0.572177 0.185912
v 0.051160 0.586900 -0.092956
v 0.051160 0.507859 0.000000
v 0.051160 0.529450 -0.269768
v 0.051160 0.572177 -0.185912
v 0.051160 0.420173 -0.420175
v 0.051160 0.410867 -0.298511
v 0.051160 0.269768 -0.529450
v 0.051160 0.353624 -0.486724
v 0.051160 0.092955 -0.586900
v 0.051160 0.156938 -0.483002
v 0.051160 -0.092957 -0.586900
v 0.051160 -0.000001 -0.601623
v 0.051160 -0.269768 -0.529450
v 0.051160 -0.156938 -0.483002
v 0.051160 -0.420174 -0.420174
v 0.051160 -0.353625 -0.486723
v 0.051160 -0.529451 -0.269768
v 0.051160 -0.410867 -0.298512
v 0.051160 -0.586900 -0.092956
v 0.051160 -0.572178 -0.185912
v 0.051160 -0.586900 0.092956
v 0.051160 -0.507859 0.000000
v 0.051160 -0.529451 0.269768
v 0.051160 -0.572178 0.185912
v 0.051160 -0.420174 0.420174
v 0.051160 -0.410867 0.298511
v 0.051160 -0.269768 0.529450
v 0.051160 -0.353625 0.486723
v 0.051160 -0.092957 0.586900
v 0.051160 -0.156938 0.483002
v 0.051160 0.000000 0.000000
v 0.051160 0.078468 0.495430
v 0.051160 -0.000001 0.507859
v 0.051160 0.185912 0.572177
v 0.051160 0.227724 0.446934
v 0.051160 0.354688 0.354690
v 0.051160 0.298511 0.410867
v 0.051160 0.486722 0.353624
v 0.051160 0.446934 0.227724
v 0.051160 0.495430 0.078468
v 0.051160 0.483002 0.156937
v 0.051160 0.601623 0.000000
v 0.051160 0.495430 -0.078468
v 0.051160 0.446934 -0.227724
v 0.051160 0.483002 -0.156937
v 0.051160 0.486723 -0.353625
v 0.051160 0.354688 -0.354690
v 0.051160 0.227724 -0.446934
v 0.051160 0.298511 -0.410867
v 0.051160 0.185912 -0.572177
v 0.051160 0.078468 -0.495430
v 0.051160 -0.078469 -0.495430
v 0.051160 -0.000001 -0.507859
v 0.051160 -0.185912 -0.572177
v 0.051160 -0.227724 -0.446934
v 0.051160 -0.354689 -0.354689
v 0.051160 -0.298512 -0.410866
v 0.051160 -0.486723 -0.353625
v 0.051160 -0.446935 -0.227724
v 0.051160 -0.495430 -0.078469
v 0.051160 -0.483003 -0.156937
v 0.051160 -0.601623 0.000000
v 0.051160 -0.495430 0.078469
v 0.051160 -0.446935 0.227724
v 0.051160 -0.483003 0.156937
v 0.051160 -0.486723 0.353625
v 0.051160 -0.354689 0.354689
v 0.051160 -0.227724 0.446935
v 0.051160 -0.298512 0.410867
v 0.051160 -0.185912 0.572177
v 0.051160 -0.078469 0.495430
v -0.043976 0.036780 0.232227
v -0.043976 -0.000000 0.238053
v -0.043976 0.269768 0.529450
v -0.043976 0.185912 0.572177
v -0.043976 0.166255 0.166257
v -0.043976 0.139923 0.192589
v -0.043976 0.529450 0.269768
v -0.043976 0.486722 0.353624
v -0.043976 0.232227 0.036780
v -0.043976 0.226401 0.073562
v -0.043976 0.586900 -0.092956
v -0.043976 0.601623 0.000000
v -0.043976 0.209495 -0.106743
v -0.043976 0.226401 -0.073563
v -0.043976 0.420173 -0.420175
v -0.043976 0.486723 -0.353625
v -0.043976 0.106743 -0.209495
v -0.043976 0.139923 -0.192589
v -0.043976 0.092955 -0.586900
v -0.043976 0.185912 -0.572177
v -0.043976 -0.036781 -0.232227
v -0.043976 -0.000000 -0.238053
v -0.043976 -0.269768 -0.529450
v -0.043976 -0.185912 -0.572177
v -0.043976 -0.166256 -0.166256
v -0.043976 -0.139924 -0.192589
v -0.043976 -0.529451 -0.269768
v -0.043976 -0.486723 -0.353625
v -0.043976 -0.232227 -0.036782
v -0.043976 -0.226402 -0.073563
v -0.043976 -0.586900 0.092956
v -0.043976 -0.601623 0.000000
v -0.043976 -0.209496 0.106742
v -0.043976 -0.226402 0.073563
v -0.043976 -0.420174 0.420174
v -0.043976 -0.486723 0.353625
v -0.043976 -0.106743 0.209495
v -0.043976 -0.139924 0.192589
v -0.043976 -0.092957 0.586900
v -0.043976 -0.185912 0.572177
v -0.043976 0.092955 0.586900
v -0.043976 0.106743 0.209495
v -0.043976 0.420173 0.420175
v -0.043976 0.209496 0.106741
v -0.043976 0.586900 0.092956
v -0.043976 0.232227 -0.036780
v -0.043976 0.529450 -0.269768
v -0.043976 0.166255 -0.166257
v -0.043976 0.269768 -0.529450
v -0.043976 0.036781 -0.232227
v -0.043976 -0.092957 -0.586900
v -0.043976 -0.106743 -0.209495
v -0.043976 -0.420174 -0.420174
v -0.043976 -0.209496 -0.106743
v -0.043976 -0.586900 -0.092956
v -0.043976 -0.232227 0.036782
v -0.043976 -0.529451 0.269768
v -0.043976 -0.166256 0.166257
v -0.043976 -0.269768 0.529450
v -0.043976 -0.036781 0.232227
v -0.293176 1.694875 3.326380
v -0.043976 1.168028 3.594822
v -0.293176 3.326380 1.694875
v -0.043976 3.057938 2.221722
v -0.293176 3.687320 -0.584014
v -0.043975 3.779819 0.000000
v -0.293176 2.639830 -2.639830
v -0.043976 3.057938 -2.221722
v -0.293176 0.584013 -3.687320
v -0.043976 1.168028 -3.594822
v -0.293176 -1.694875 -3.326380
v -0.043976 -1.168029 -3.594822
v -0.293177 -3.326380 -1.694875
v -0.043976 -3.057938 -2.221722
v -0.293177 -3.687321 0.584014
v -0.043976 -3.779819 0.000000
v -0.293177 -2.639830 2.639830
v -0.043976 -3.057938 2.221722
v -0.293176 -0.584015 3.687320
v -0.043976 -1.168029 3.594822
v 0.221197 0.584013 3.687320
v 0.221197 2.639830 2.639830
v 0.221197 3.687320 0.584014
v 0.221197 3.326380 -1.694875
v 0.221197 1.694875 -3.326380
v 0.221197 -0.584015 -3.687320
v 0.221197 -2.639830 -2.639830
v 0.221197 -3.687321 -0.584014
v 0.221197 -3.326380 1.694875
v 0.221197 -1.694875 3.326380
v -0.043976 -0.507859 0.000000
v -0.043976 -0.410867 0.298511
v -0.043976 0.507859 0.000000
v -0.043976 0.410867 -0.298511
v -0.043976 0.410866 0.298511
v -0.043976 -0.410867 -0.298512
v -0.043976 -0.156938 0.483002
v -0.043976 0.156938 -0.483002
v -0.043976 0.156937 0.483002
v -0.043976 -0.156938 -0.483002
v -0.043976 -0.000001 0.601623
v -0.043976 0.353624 0.486723
v -0.043976 0.572177 0.185912
v -0.043976 0.572177 -0.185912
v -0.043976 0.353624 -0.486724
v -0.043976 -0.000001 -0.601623
v -0.043976 -0.353625 -0.486723
v -0.043976 -0.572178 -0.185912
v -0.043976 -0.572178 0.185912
v -0.043976 -0.353625 0.486723
v -0.043976 0.078468 0.495430
v -0.043976 -0.000001 0.507859
v -0.043976 0.354688 0.354690
v -0.043976 0.298511 0.410867
v -0.043976 0.495430 0.078468
v -0.043976 0.483002 0.156937
v -0.043976 0.446934 -0.227724
v -0.043976 0.483002 -0.156937
v -0.043976 0.227724 -0.446934
v -0.043976 0.298511 -0.410867
v -0.043976 -0.078469 -0.495430
v -0.043976 -0.000001 -0.507859
v -0.043976 -0.354689 -0.354689
v -0.043976 -0.298512 -0.410866
v -0.043976 -0.495430 -0.078469
v -0.043976 -0.483003 -0.156937
v -0.043976 -0.446935 0.227724
v -0.043976 -0.483003 0.156937
v -0.043976 -0.227724 0.446935
v -0.043976 -0.298512 0.410867
v -0.043976 0.227724 0.446934
v -0.043976 0.446934 0.227724
v -0.043976 0.495430 -0.078468
v -0.043976 0.354688 -0.354690
v -0.043976 0.078468 -0.495430
v -0.043976 -0.227724 -0.446934
v -0.043976 -0.446935 -0.227724
v -0.043976 -0.495430 0.078469
v -0.043976 -0.354689 0.354689
v -0.043976 -0.078469 0.495430
v -0.043976 0.073562 0.226401
v -0.043976 0.192588 0.139924
v -0.043976 0.238053 0.000000
v -0.043976 0.192589 -0.139923
v -0.043976 0.073563 -0.226401
v -0.043976 -0.073563 -0.226401
v -0.043976 -0.192589 -0.139923
v -0.043976 -0.238053 0.000000
v -0.043976 -0.192589 0.139923
v -0.043976 -0.073563 0.226401
v -0.143459 0.078468 0.495430
v -0.143459 -0.000001 0.507859
v -0.143459 0.249074 0.488836
v -0.143459 0.171650 0.528285
v -0.143459 0.354688 0.354690
v -0.143459 0.298511 0.410867
v -0.143459 0.488836 0.249074
v -0.143459 0.449386 0.326498
v -0.143459 0.495430 0.078468
v -0.143459 0.483002 0.156937
v -0.143459 0.541879 -0.085825
v -0.143459 0.555472 0.000000
v -0.143459 0.446934 -0.227724
v -0.143459 0.483002 -0.156937
v -0.143459 0.387941 -0.387943
v -0.143459 0.449387 -0.326498
v -0.143459 0.227724 -0.446934
v -0.143459 0.298511 -0.410867
v -0.143459 0.085825 -0.541878
v -0.143459 0.171651 -0.528285
v -0.143459 -0.078469 -0.495430
v -0.143459 -0.000001 -0.507859
v -0.143459 -0.249074 -0.488836
v -0.143459 -0.171651 -0.528285
v -0.143459 -0.354689 -0.354689
v -0.143459 -0.298512 -0.410866
v -0.143459 -0.488836 -0.249074
v -0.143459 -0.449387 -0.326498
v -0.143459 -0.495430 -0.078469
v -0.143459 -0.483003 -0.156937
v -0.143459 -0.541879 0.085825
v -0.143459 -0.555472 0.000000
v -0.143459 -0.446935 0.227724
v -0.143459 -0.483003 0.156937
v -0.143459 -0.387942 0.387942
v -0.143459 -0.449387 0.326498
v -0.143459 -0.227724 0.446935
v -0.143459 -0.298512 0.410867
v -0.143459 -0.085826 0.541878
v -0.143459 -0.171651 0.528285
v -0.143459 0.085825 0.541879
v -0.143459 0.227724 0.446934
v -0.143459 0.387941 0.387943
v -0.143459 0.446934 0.227724
v -0.143459 0.541879 0.085825
v -0.143459 0.495430 -0.078468
v -0.143459 0.488836 -0.249074
v -0.143459 0.354688 -0.354690
v -0.143459 0.249074 -0.488836
v -0.143459 0.078468 -0.495430
v -0.143459 -0.085826 -0.541878
v -0.143459 -0.227724 -0.446934
v -0.143459 -0.387943 -0.387942
v -0.143459 -0.446935 -0.227724
v -0.143459 -0.541879 -0.085825
v -0.143459 -0.495430 0.078469
v -0.143459 -0.488836 0.249074
v -0.143459 -0.354689 0.354689
v -0.143459 -0.249074 0.488836
v -0.143459 -0.078469 0.495430
v -0.313451 0.000000 0.000000
v -0.143459 -0.206354 0.000000
v -0.143459 -0.166944 0.121291
v -0.143459 0.206354 0.000000
v -0.143459 0.166944 -0.121291
v -0.143459 0.166943 0.121291
v -0.143459 -0.166944 -0.121291
v -0.143459 -0.063768 0.196254
v -0.143459 0.063768 -0.196254
v -0.143459 0.063767 0.196254
v -0.143459 -0.063768 -0.196254
v -0.143459 -0.201304 0.031884
v -0.143459 0.201303 -0.031883
v -0.143459 0.201303 0.031883
v -0.143459 -0.201304 -0.031884
v -0.143459 -0.181599 -0.092529
v -0.143459 0.181599 0.092528
v -0.143459 -0.181600 0.092528
v -0.143459 0.181599 -0.092529
v -0.143459 0.144117 -0.144118
v -0.143459 -0.144117 0.144118
v -0.143459 -0.092530 0.181599
v -0.143459 0.092530 -0.181599
v -0.143459 -0.031884 0.201304
v -0.143459 0.031883 -0.201304
v -0.143459 -0.031884 -0.201304
v -0.143459 0.031882 0.201304
v -0.143459 0.092529 0.181599
v -0.143459 -0.092530 -0.181599
v -0.143459 -0.144118 -0.144118
v -0.143459 0.144116 0.144119
v -0.143459 -0.000001 0.555472
v -0.143459 0.156937 0.483002
v -0.143459 0.326497 0.449387
v -0.143459 0.410866 0.298511
v -0.143459 0.528285 0.171651
v -0.143459 0.507859 0.000000
v -0.143459 0.528285 -0.171650
v -0.143459 0.410867 -0.298511
v -0.143459 0.326498 -0.449387
v -0.143459 0.156938 -0.483002
v -0.143459 -0.000001 -0.555472
v -0.143459 -0.156938 -0.483002
v -0.143459 -0.326499 -0.449386
v -0.143459 -0.410867 -0.298512
v -0.143459 -0.528286 -0.171650
v -0.143459 -0.507859 0.000000
v -0.143459 -0.528286 0.171650
v -0.143459 -0.410867 0.298511
v -0.143459 -0.326499 0.449386
v -0.143459 -0.156938 0.483002
v -0.143459 -0.000000 0.206354
v -0.143459 0.121291 0.166944
v -0.143459 0.196254 0.063767
v -0.143459 0.196254 -0.063767
v -0.143459 0.121291 -0.166944
v -0.143459 -0.000000 -0.206354
v -0.143459 -0.121292 -0.166944
v -0.143459 -0.196254 -0.063768
v -0.143459 -0.196254 0.063767
v -0.143459 -0.121292 0.166944
vn 1.0000 -0.0000 -0.0000
vn 0.9379 0.3330 -0.0976
vn 0.9379 0.2120 -0.2747
vn 0.9379 0.0101 -0.3468
vn 0.9379 -0.1957 -0.2865
vn 0.9379 -0.3267 -0.1168
vn 0.9379 -0.3330 0.0976
vn 0.9379 -0.2120 0.2747
vn 0.9379 -0.0101 0.3468
vn 0.9379 0.1957 0.2865
vn 0.9379 0.3267 0.1168
vn 0.9305 0.3449 -0.1233
vn 0.9305 0.2066 -0.3025
vn 0.9305 -0.0107 -0.3662
vn 0.9305 -0.2239 -0.2900
vn 0.9305 -0.3515 -0.1030
vn 0.9305 -0.3450 0.1233
vn 0.9305 -0.2066 0.3025
vn 0.9305 0.0107 0.3662
vn 0.9305 0.2239 0.2900
vn 0.9305 0.3515 0.1030
vn -0.3002 -0.4330 -0.8499
vn -0.9379 -0.3330 0.0976
vn -0.9379 -0.2120 0.2747
vn -0.9379 -0.0101 0.3468
vn -0.9379 0.1957 0.2865
vn -0.9379 0.3267 0.1168
vn -0.9379 0.3330 -0.0976
vn -0.9379 0.2120 -0.2747
vn -0.9379 0.0101 -0.3468
vn -0.9379 -0.1957 -0.2865
vn -0.9379 -0.3267 -0.1168
vn -0.9305 -0.3449 0.1233
vn -0.9305 -0.2066 0.3025
vn -0.9305 0.0107 0.3662
vn -0.9305 0.2239 0.2900
vn -0.9305 0.3515 0.1030
vn -0.9305 0.3450 -0.1233
vn -0.9305 0.2066 -0.3025
vn -0.9305 -0.0107 -0.3662
vn -0.9305 -0.2239 -0.2900
vn -0.9305 -0.3515 -0.1030
vn -0.4165 -0.1422 -0.8979
vn -0.0000 -0.7071 0.7071
vn -0.3002 0.1492 -0.9421
vn -0.0000 -0.1564 0.9877
vn -0.4165 0.8100 -0.4127
vn -0.3002 0.6745 -0.6745
vn -0.4165 0.4127 -0.8100
vn -0.0000 -0.9877 0.1564
vn -0.3002 0.9421 -0.1492
vn -0.4165 0.8979 0.1422
vn -0.3002 0.8499 0.4331
vn -0.0000 -0.8910 -0.4540
vn -0.3002 0.4331 0.8499
vn -0.4165 0.6428 0.6428
vn -0.3002 -0.1492 0.9421
vn -0.3002 -0.6745 0.6745
vn -0.0000 -0.4540 -0.8910
vn -0.3002 -0.9421 0.1492
vn -0.4165 0.1422 0.8979
vn -0.3002 -0.8499 -0.4331
vn -0.4165 -0.1422 0.8979
vn -0.3002 -0.4331 -0.8499
vn -0.0000 0.4540 -0.8910
vn -0.4165 -0.6428 0.6428
vn -0.0000 0.8910 -0.4540
vn -0.4165 -0.8979 0.1422
vn -0.0000 0.9877 0.1564
vn -0.3002 0.4330 0.8499
vn -0.4165 -0.8100 -0.4127
vn -0.3002 -0.4330 0.8499
vn -0.0000 0.7071 0.7071
vn -0.3002 -0.8499 0.4330
vn -0.4165 -0.4127 -0.8100
vn -0.3002 -0.9421 -0.1492
vn -0.0000 0.1564 0.9877
vn -0.3002 -0.6745 -0.6745
vn -0.4165 0.1422 -0.8979
vn -0.3002 -0.1492 -0.9421
vn -0.0000 -0.4540 0.8910
vn -0.3002 0.4330 -0.8499
vn -0.4165 0.6428 -0.6428
vn -0.3002 0.8499 -0.4331
vn -0.0000 -0.8910 0.4540
vn -0.3002 0.9421 0.1492
vn -0.4165 0.8979 -0.1422
vn -0.3002 0.6745 0.6745
vn -0.0000 -0.9877 -0.1564
vn -0.3002 0.1492 0.9421
vn -0.4165 0.8100 0.4127
vn -0.0000 -0.7071 -0.7071
vn -0.4165 0.4127 0.8100
vn -0.0000 -0.1564 -0.9877
vn -0.0000 0.4540 0.8910
vn -0.0000 0.8910 0.4540
vn -0.0000 0.9877 -0.1564
vn -0.0000 0.7071 -0.7071
vn -0.0000 0.1564 -0.9877
vn -1.0000 -0.0000 -0.0000
vn -0.7679 -0.6326 0.1002
vn -0.7679 -0.5707 0.2908
vn -0.7679 -0.4529 0.4529
vn -0.7679 -0.2908 0.5707
vn -0.7679 -0.1002 0.6326
vn -0.7679 0.1002 0.6326
vn -0.7679 0.2908 0.5707
vn -0.7679 0.4529 0.4529
vn -0.7679 0.5707 0.2908
vn -0.7679 0.6326 0.1002
vn -0.7679 0.6326 -0.1002
vn -0.7679 0.5707 -0.2908
vn -0.7679 0.4529 -0.4529
vn -0.7679 0.2908 -0.5707
vn -0.7679 0.1002 -0.6326
vn -0.7679 -0.1002 -0.6326
vn -0.7679 -0.2908 -0.5707
vn -0.7679 -0.4529 -0.4529
vn -0.7679 -0.5707 -0.2908
vn -0.7679 -0.6326 -0.1002
vn -0.3002 -0.8499 -0.4330
vn -0.4165 -0.6428 -0.6428
vn -0.4165 -0.8979 -0.1422
vn -0.4165 -0.8100 0.4127
vn -0.4165 -0.4127 0.8100
vn -0.3002 0.4331 -0.8499
vn -0.3002 -0.8499 0.4331
vn -0.3002 -0.4331 0.8499
vt 0.856521 0.695056
vt 0.833013 0.727412
vt 0.845372 0.689376
vt 0.851397 0.691333
vt 0.446448 0.939561
vt 0.440621 0.944276
vt 0.279399 0.747836
vt 0.319899 0.716915
vt 0.217226 0.320043
vt 0.211399 0.324758
vt 0.050178 0.128318
vt 0.090678 0.097397
vt 0.685712 0.327782
vt 0.679885 0.332497
vt 0.518663 0.136057
vt 0.559163 0.105136
vt 0.217226 0.938242
vt 0.211399 0.942957
vt 0.050178 0.746517
vt 0.090678 0.715596
vt 0.685712 0.945980
vt 0.679885 0.950695
vt 0.518663 0.754256
vt 0.559163 0.723335
vt 0.685712 0.636881
vt 0.679885 0.641596
vt 0.518663 0.445156
vt 0.559163 0.414235
vt 0.446448 0.630461
vt 0.440621 0.635176
vt 0.279399 0.438737
vt 0.319899 0.407816
vt 0.217226 0.629142
vt 0.211399 0.633857
vt 0.050178 0.437418
vt 0.090678 0.406497
vt 0.446448 0.321362
vt 0.440621 0.326077
vt 0.279399 0.129637
vt 0.319899 0.098716
vt 0.911825 0.318022
vt 0.905998 0.322737
vt 0.744777 0.126297
vt 0.785277 0.095377
vt 0.453621 0.937004
vt 0.370165 0.703999
vt 0.224400 0.317486
vt 0.140943 0.084480
vt 0.692885 0.325224
vt 0.609429 0.092219
vt 0.224400 0.935685
vt 0.140943 0.702679
vt 0.692885 0.943423
vt 0.609429 0.710418
vt 0.692885 0.634324
vt 0.609429 0.401318
vt 0.453621 0.627904
vt 0.370165 0.394899
vt 0.224400 0.626585
vt 0.140943 0.393580
vt 0.453621 0.318805
vt 0.370165 0.085800
vt 0.918998 0.315465
vt 0.835542 0.082460
vt 0.839347 0.687418
vt 0.833013 0.687418
vt 0.820653 0.689376
vt 0.826678 0.687418
vt 0.814629 0.691334
vt 0.809504 0.695057
vt 0.800656 0.703905
vt 0.804379 0.698780
vt 0.796933 0.709030
vt 0.794975 0.715054
vt 0.793018 0.727414
vt 0.793018 0.721080
vt 0.793018 0.733748
vt 0.794976 0.739773
vt 0.800656 0.750922
vt 0.796933 0.745798
vt 0.804380 0.756047
vt 0.809505 0.759771
vt 0.820654 0.765452
vt 0.814630 0.763494
vt 0.826679 0.767408
vt 0.833014 0.767409
vt 0.845373 0.765451
vt 0.839348 0.767409
vt 0.851397 0.763494
vt 0.856522 0.759770
vt 0.865370 0.750922
vt 0.861647 0.756047
vt 0.869094 0.745797
vt 0.871051 0.739773
vt 0.873008 0.727413
vt 0.873009 0.733748
vt 0.873008 0.721079
vt 0.871051 0.715054
vt 0.865370 0.703905
vt 0.869093 0.709029
vt 0.861646 0.698780
vt 0.794682 0.699565
vt 0.799093 0.693494
vt 0.787953 0.712773
vt 0.790271 0.705636
vt 0.785634 0.727414
vt 0.785634 0.719910
vt 0.787953 0.742055
vt 0.785634 0.734918
vt 0.794683 0.755263
vt 0.790272 0.749192
vt 0.805164 0.765744
vt 0.799094 0.761334
vt 0.818372 0.772474
vt 0.811236 0.770156
vt 0.833014 0.774793
vt 0.825509 0.774793
vt 0.847655 0.772474
vt 0.840518 0.774793
vt 0.860862 0.765744
vt 0.854791 0.770155
vt 0.871344 0.755262
vt 0.866933 0.761333
vt 0.878074 0.742054
vt 0.875755 0.749191
vt 0.880393 0.727413
vt 0.880393 0.734917
vt 0.878074 0.712772
vt 0.880393 0.719909
vt 0.871344 0.699564
vt 0.875755 0.705635
vt 0.860862 0.689082
vt 0.866933 0.693493
vt 0.847654 0.682353
vt 0.854791 0.684672
vt 0.833013 0.680034
vt 0.840517 0.680034
vt 0.818371 0.682353
vt 0.825508 0.680034
vt 0.805164 0.689083
vt 0.811235 0.684672
vt 0.815460 0.582370
vt 0.822083 0.584951
vt 0.821274 0.587020
vt 0.814392 0.585523
vt 0.467982 0.932395
vt 0.424457 0.681440
vt 0.475476 0.679858
vt 0.475476 0.932333
vt 0.238760 0.312878
vt 0.195236 0.061922
vt 0.246255 0.060340
vt 0.246255 0.312815
vt 0.707245 0.320616
vt 0.663721 0.069661
vt 0.714740 0.068079
vt 0.714740 0.320553
vt 0.238760 0.931076
vt 0.195236 0.680121
vt 0.246255 0.678539
vt 0.246255 0.931013
vt 0.707245 0.938815
vt 0.663721 0.687859
vt 0.714740 0.686278
vt 0.714740 0.938752
vt 0.707245 0.629716
vt 0.663721 0.378760
vt 0.714740 0.377178
vt 0.714740 0.629653
vt 0.467982 0.623296
vt 0.424457 0.372340
vt 0.475476 0.370759
vt 0.475476 0.623233
vt 0.238760 0.621977
vt 0.195236 0.371021
vt 0.246255 0.369440
vt 0.246255 0.621914
vt 0.467982 0.314197
vt 0.424457 0.063241
vt 0.475476 0.061659
vt 0.475476 0.314134
vt 0.933359 0.310857
vt 0.889834 0.059901
vt 0.940854 0.058319
vt 0.940854 0.310794
vt 0.460937 0.934992
vt 0.375464 0.697348
vt 0.231715 0.315474
vt 0.146242 0.077830
vt 0.700200 0.323213
vt 0.614727 0.085569
vt 0.231715 0.933673
vt 0.146242 0.696029
vt 0.700200 0.941411
vt 0.614728 0.703768
vt 0.700200 0.632312
vt 0.614727 0.394668
vt 0.460937 0.625892
vt 0.375464 0.388249
vt 0.231715 0.624573
vt 0.146242 0.386930
vt 0.460937 0.316793
vt 0.375464 0.079149
vt 0.926314 0.313453
vt 0.840841 0.075810
vt 0.808415 0.477645
vt 0.814438 0.471156
vt 0.819393 0.475710
vt 0.814650 0.482464
vt 0.809100 0.621893
vt 0.804124 0.627872
vt 0.798437 0.622593
vt 0.804194 0.617664
vt 0.814709 0.595416
vt 0.821584 0.593608
vt 0.822146 0.595757
vt 0.815698 0.598594
vt 0.797178 0.606744
vt 0.790179 0.609652
vt 0.787822 0.602406
vt 0.795362 0.600493
vt 0.860869 0.489744
vt 0.858239 0.481714
vt 0.864292 0.478618
vt 0.868592 0.486360
vt 0.821767 0.606414
vt 0.826269 0.600901
vt 0.827988 0.602308
vt 0.824432 0.608408
vt 0.837076 0.491629
vt 0.838160 0.482933
vt 0.844849 0.483750
vt 0.844875 0.492014
vt 0.832795 0.631125
vt 0.832285 0.638887
vt 0.824580 0.637962
vt 0.826340 0.630591
vt 0.833937 0.611158
vt 0.834352 0.604051
vt 0.836570 0.604183
vt 0.837264 0.611197
vt 0.814243 0.625884
vt 0.810290 0.632350
vt 0.886645 0.470681
vt 0.879794 0.465747
vt 0.882874 0.459690
vt 0.890905 0.463418
vt 0.846574 0.607836
vt 0.842738 0.601854
vt 0.844610 0.600655
vt 0.849292 0.605915
vt 0.870166 0.475316
vt 0.875112 0.481920
vt 0.857370 0.624638
vt 0.861606 0.631360
vt 0.854758 0.635047
vt 0.851854 0.628020
vt 0.854855 0.597729
vt 0.848231 0.595145
vt 0.849041 0.593075
vt 0.855922 0.594579
vt 0.839300 0.631327
vt 0.839902 0.638882
vt 0.896288 0.440130
vt 0.887845 0.440168
vt 0.886778 0.433458
vt 0.895465 0.431752
vt 0.856306 0.587943
vt 0.849298 0.588637
vt 0.848732 0.586488
vt 0.855607 0.584687
vt 0.885680 0.453565
vt 0.893566 0.455996
vt 0.851029 0.575912
vt 0.845768 0.580596
vt 0.844046 0.579190
vt 0.848551 0.573691
vt 0.873509 0.605031
vt 0.880615 0.607762
vt 0.877561 0.614721
vt 0.870951 0.611020
vt 0.862779 0.621069
vt 0.867735 0.626639
vt 0.839687 0.569285
vt 0.838186 0.576165
vt 0.835966 0.576040
vt 0.836376 0.568944
vt 0.886133 0.409750
vt 0.879325 0.414742
vt 0.874518 0.409940
vt 0.880544 0.403454
vt 0.885446 0.426855
vt 0.893255 0.424184
vt 0.826615 0.570588
vt 0.829446 0.577037
vt 0.827577 0.578240
vt 0.823736 0.572258
vt 0.867692 0.394497
vt 0.863593 0.402205
vt 0.857487 0.399181
vt 0.860060 0.391140
vt 0.875636 0.598891
vt 0.883164 0.600535
vt 0.816807 0.579326
vt 0.822889 0.582878
vt 0.866129 0.562453
vt 0.871865 0.557511
vt 0.876317 0.563651
vt 0.869799 0.567837
vt 0.869558 0.405380
vt 0.874307 0.398630
vt 0.814010 0.592162
vt 0.821018 0.591458
vt 0.836177 0.389642
vt 0.837392 0.398287
vt 0.830677 0.399430
vt 0.828031 0.391413
vt 0.819290 0.604190
vt 0.824548 0.599495
vt 0.843985 0.549515
vt 0.845750 0.542145
vt 0.852996 0.544500
vt 0.850108 0.551722
vt 0.830626 0.610822
vt 0.832134 0.603922
vt 0.807831 0.404240
vt 0.813896 0.410519
vt 0.809136 0.415391
vt 0.802283 0.410461
vt 0.843695 0.609507
vt 0.840869 0.603056
vt 0.818470 0.552067
vt 0.815565 0.545068
vt 0.822811 0.542712
vt 0.824721 0.550252
vt 0.853507 0.600769
vt 0.847426 0.597216
vt 0.793486 0.432710
vt 0.802084 0.434222
vt 0.801100 0.440960
vt 0.792657 0.441002
vt 0.852951 0.578629
vt 0.846967 0.582468
vt 0.799330 0.569132
vt 0.792864 0.565179
vt 0.797342 0.559013
vt 0.803320 0.563990
vt 0.842839 0.570353
vt 0.840255 0.576975
vt 0.798619 0.464169
vt 0.806463 0.460337
vt 0.809629 0.466365
vt 0.802825 0.471363
vt 0.829793 0.569599
vt 0.831597 0.576476
vt 0.793878 0.594189
vt 0.786323 0.594792
vt 0.786321 0.587172
vt 0.794082 0.587684
vt 0.818797 0.576658
vt 0.824299 0.581161
vt 0.821264 0.486592
vt 0.825353 0.478875
vt 0.831449 0.481884
vt 0.828897 0.489920
vt 0.814051 0.588833
vt 0.821148 0.589240
vt 0.793957 0.616430
vt 0.800537 0.612282
vt 0.817368 0.601473
vt 0.823349 0.597626
vt 0.852678 0.491575
vt 0.851529 0.482853
vt 0.827471 0.609763
vt 0.830051 0.603185
vt 0.817332 0.635612
vt 0.820215 0.628389
vt 0.840518 0.610497
vt 0.838719 0.603617
vt 0.881092 0.476908
vt 0.875031 0.470622
vt 0.851515 0.603437
vt 0.846016 0.598934
vt 0.847512 0.637386
vt 0.845605 0.629840
vt 0.880000 0.570387
vt 0.873199 0.573371
vt 0.856264 0.591269
vt 0.849167 0.590856
vt 0.895454 0.448427
vt 0.886857 0.446911
vt 0.843957 0.389097
vt 0.844084 0.397348
vt 0.873127 0.621095
vt 0.866950 0.616108
vt 0.860033 0.547765
vt 0.856080 0.554230
vt 0.890334 0.416953
vt 0.882487 0.420778
vt 0.813804 0.399225
vt 0.818758 0.405826
vt 0.876435 0.585911
vt 0.883984 0.585305
vt 0.883860 0.592904
vt 0.876263 0.592422
vt 0.779613 0.090259
vt 0.851271 0.381574
vt 0.851838 0.389332
vt 0.843737 0.381741
vt 0.434376 0.330370
vt 0.273177 0.133957
vt 0.434376 0.948569
vt 0.273176 0.752156
vt 0.900183 0.421703
vt 0.897494 0.414550
vt 0.899754 0.327030
vt 0.738554 0.130617
vt 0.900629 0.458062
vt 0.902659 0.450694
vt 0.205155 0.329051
vt 0.043955 0.132638
vt 0.272892 0.744025
vt 0.314235 0.711798
vt 0.879606 0.487747
vt 0.885583 0.482984
vt 0.043671 0.124507
vt 0.085014 0.092279
vt 0.884646 0.396844
vt 0.878453 0.392550
vt 0.673640 0.336790
vt 0.512440 0.140377
vt 0.512156 0.132246
vt 0.553499 0.100018
vt 0.844867 0.499414
vt 0.852534 0.499214
vt 0.043671 0.742706
vt 0.085014 0.710478
vt 0.902669 0.428818
vt 0.512156 0.750444
vt 0.553499 0.718217
vt 0.810503 0.488543
vt 0.816883 0.492748
vt 0.205155 0.947250
vt 0.043955 0.750837
vt 0.512156 0.441345
vt 0.553499 0.409117
vt 0.898458 0.465278
vt 0.272892 0.434925
vt 0.314235 0.402698
vt 0.788766 0.459423
vt 0.795694 0.456940
vt 0.791458 0.466575
vt 0.043671 0.433606
vt 0.085014 0.401379
vt 0.873605 0.492307
vt 0.673640 0.954989
vt 0.512440 0.758575
vt 0.272892 0.125826
vt 0.314235 0.093599
vt 0.788305 0.423080
vt 0.795369 0.425142
vt 0.786279 0.430449
vt 0.738270 0.122486
vt 0.837209 0.499226
vt 0.809302 0.393404
vt 0.803331 0.398174
vt 0.673640 0.645889
vt 0.512440 0.449476
vt 0.804311 0.484249
vt 0.836102 0.382090
vt 0.786279 0.452309
vt 0.793482 0.449374
vt 0.434376 0.639470
vt 0.273176 0.443056
vt 0.872072 0.388344
vt 0.790473 0.415863
vt 0.798026 0.417720
vt 0.205155 0.638151
vt 0.043955 0.441737
vt 0.815299 0.388840
vt 0.820318 0.394783
vt 0.796824 0.575105
vt 0.812932 0.555425
vt 0.837531 0.548976
vt 0.861222 0.558222
vt 0.874919 0.579619
vt 0.794620 0.581229
vt 0.821019 0.574181
vt 0.807549 0.559083
vt 0.833048 0.568901
vt 0.831026 0.548770
vt 0.845882 0.571701
vt 0.854620 0.581507
vt 0.797918 0.851336
vt 0.795194 0.850253
vt 0.804228 0.833847
vt 0.792823 0.848530
vt 0.790567 0.846658
vt 0.788844 0.844287
vt 0.787277 0.841810
vt 0.786371 0.839022
vt 0.785646 0.836182
vt 0.785646 0.833251
vt 0.785834 0.830325
vt 0.786740 0.827538
vt 0.787823 0.824814
vt 0.789546 0.822443
vt 0.791417 0.820187
vt 0.793789 0.818464
vt 0.796266 0.816897
vt 0.799054 0.815991
vt 0.801894 0.815266
vt 0.804825 0.815266
vt 0.807750 0.815454
vt 0.810538 0.816360
vt 0.813262 0.817443
vt 0.815633 0.819166
vt 0.817889 0.821037
vt 0.819612 0.823409
vt 0.821179 0.825886
vt 0.822085 0.828674
vt 0.822810 0.831514
vt 0.822810 0.834445
vt 0.822622 0.837370
vt 0.821716 0.840158
vt 0.820633 0.842882
vt 0.818910 0.845253
vt 0.817038 0.847509
vt 0.814667 0.849232
vt 0.812190 0.850799
vt 0.809402 0.851705
vt 0.806562 0.852430
vt 0.803631 0.852430
vt 0.800705 0.852242
vt 0.867465 0.408308
vt 0.871909 0.412622
vt 0.876333 0.416968
vt 0.879191 0.422476
vt 0.882032 0.427995
vt 0.883090 0.434094
vt 0.884116 0.440210
vt 0.883192 0.446348
vt 0.882248 0.452479
vt 0.879516 0.458037
vt 0.876754 0.463586
vt 0.872398 0.468008
vt 0.868030 0.472421
vt 0.862553 0.475296
vt 0.857059 0.478162
vt 0.850945 0.479170
vt 0.844828 0.480152
vt 0.838697 0.479258
vt 0.832569 0.478339
vt 0.827025 0.475566
vt 0.821487 0.472780
vt 0.817045 0.468470
vt 0.812621 0.464138
vt 0.809758 0.458636
vt 0.806916 0.453125
vt 0.803501 0.454266
vt 0.802169 0.447665
vt 0.805856 0.447025
vt 0.804829 0.440916
vt 0.805748 0.434785
vt 0.806690 0.428654
vt 0.803257 0.427569
vt 0.806059 0.421445
vt 0.809419 0.423094
vt 0.812177 0.417549
vt 0.816530 0.413129
vt 0.820896 0.408721
vt 0.824626 0.402518
vt 0.826373 0.405827
vt 0.831870 0.402964
vt 0.837988 0.401947
vt 0.844112 0.400948
vt 0.850776 0.398122
vt 0.850243 0.401826
vt 0.856376 0.402741
vt 0.861924 0.405517
vt 0.787248 0.579467
vt 0.789601 0.572220
vt 0.825705 0.579439
vt 0.833747 0.575909
vt 0.802622 0.553325
vt 0.808785 0.548845
vt 0.842328 0.577780
vt 0.848170 0.584337
vt 0.830426 0.541215
vt 0.838046 0.541215
vt 0.866191 0.552242
vt 0.882609 0.577665
s 0
f 103/1/1 71/2/1 104/3/1 105/4/1
f 74/5/2 33/6/2 12/7/2 1/8/2
f 78/9/3 37/10/3 14/11/3 2/12/3
f 82/13/4 41/14/4 16/15/4 3/16/4
f 86/17/5 45/18/5 18/19/5 4/20/5
f 90/21/6 49/22/6 20/23/6 5/24/6
f 94/25/7 53/26/7 22/27/7 6/28/7
f 98/29/8 57/30/8 24/31/8 7/32/8
f 102/33/9 61/34/9 26/35/9 8/36/9
f 106/37/10 65/38/10 28/39/10 9/40/10
f 110/41/11 69/42/11 30/43/11 10/44/11
f 31/45/12 74/5/12 1/8/12 11/46/12
f 35/47/13 78/9/13 2/12/13 13/48/13
f 39/49/14 82/13/14 3/16/14 15/50/14
f 43/51/15 86/17/15 4/20/15 17/52/15
f 47/53/16 90/21/16 5/24/16 19/54/16
f 51/55/17 94/25/17 6/28/17 21/56/17
f 55/57/18 98/29/18 7/32/18 23/58/18
f 59/59/19 102/33/19 8/36/19 25/60/19
f 63/61/20 106/37/20 9/40/20 27/62/20
f 67/63/21 110/41/21 10/44/21 29/64/21
f 104/3/1 71/2/1 66/65/1
f 66/65/1 71/2/1 107/66/1
f 107/66/1 71/2/1 108/67/1 109/68/1
f 108/67/1 71/2/1 70/69/1
f 70/69/1 71/2/1 111/70/1
f 111/70/1 71/2/1 72/71/1 73/72/1
f 72/71/1 71/2/1 34/73/1
f 34/73/1 71/2/1 75/74/1
f 75/74/1 71/2/1 76/75/1 77/76/1
f 76/75/1 71/2/1 38/77/1
f 38/77/1 71/2/1 79/78/1
f 79/78/1 71/2/1 80/79/1 81/80/1
f 80/79/1 71/2/1 42/81/1
f 42/81/1 71/2/1 83/82/1
f 83/82/1 71/2/1 84/83/1 85/84/1
f 84/83/1 71/2/1 46/85/1
f 46/85/1 71/2/1 87/86/1
f 87/86/1 71/2/1 88/87/1 89/88/1
f 88/87/1 71/2/1 50/89/1
f 50/89/1 71/2/1 91/90/1
f 91/90/1 71/2/1 92/91/1 93/92/1
f 92/91/1 71/2/1 54/93/1
f 54/93/1 71/2/1 95/94/1
f 95/94/1 71/2/1 96/95/1 97/96/1
f 96/95/1 71/2/1 58/97/1
f 58/97/1 71/2/1 99/98/1
f 99/98/1 71/2/1 100/99/1 101/100/1
f 100/99/1 71/2/1 62/101/1
f 62/101/1 71/2/1 103/1/1
f 73/72/1 72/71/1 31/102/1 32/103/1
f 34/73/1 75/74/1 33/104/1 74/105/1
f 77/76/1 76/75/1 35/106/1 36/107/1
f 38/77/1 79/78/1 37/108/1 78/109/1
f 81/80/1 80/79/1 39/110/1 40/111/1
f 42/81/1 83/82/1 41/112/1 82/113/1
f 85/84/1 84/83/1 43/114/1 44/115/1
f 46/85/1 87/86/1 45/116/1 86/117/1
f 89/88/1 88/87/1 47/118/1 48/119/1
f 50/89/1 91/90/1 49/120/1 90/121/1
f 93/92/1 92/91/1 51/122/1 52/123/1
f 54/93/1 95/94/1 53/124/1 94/125/1
f 97/96/1 96/95/1 55/126/1 56/127/1
f 58/97/1 99/98/1 57/128/1 98/129/1
f 101/100/1 100/99/1 59/130/1 60/131/1
f 62/101/1 103/1/1 61/132/1 102/133/1
f 105/4/1 104/3/1 63/134/1 64/135/1
f 66/65/1 107/66/1 65/136/1 106/137/1
f 109/68/1 108/67/1 67/138/1 68/139/1
f 70/69/1 111/70/1 69/140/1 110/141/1
f 72/71/1 34/73/1 74/105/1 31/102/1
f 75/74/1 77/76/1 36/107/1 33/104/1
f 76/75/1 38/77/1 78/109/1 35/106/1
f 79/78/1 81/80/1 40/111/1 37/108/1
f 80/79/1 42/81/1 82/113/1 39/110/1
f 83/82/1 85/84/1 44/115/1 41/112/1
f 84/83/1 46/85/1 86/117/1 43/114/1
f 87/86/1 89/88/1 48/119/1 45/116/1
f 88/87/1 50/89/1 90/121/1 47/118/1
f 91/90/1 93/92/1 52/123/1 49/120/1
f 92/91/1 54/93/1 94/125/1 51/122/1
f 95/94/1 97/96/1 56/127/1 53/124/1
f 96/95/1 58/97/1 98/129/1 55/126/1
f 99/98/1 101/100/1 60/131/1 57/128/1
f 100/99/1 62/101/1 102/133/1 59/130/1
f 103/1/1 105/4/1 64/135/1 61/132/1
f 104/3/1 66/65/1 106/137/1 63/134/1
f 107/66/1 109/68/1 68/139/1 65/136/1
f 108/67/1 70/69/1 110/141/1 67/138/1
f 111/70/1 73/72/1 32/103/1 69/140/1
f 163/142/22 350/143/22 332/144/22 257/145/22
f 115/146/23 173/147/23 172/148/23 114/149/23
f 119/150/24 175/151/24 174/152/24 118/153/24
f 123/154/25 177/155/25 176/156/25 122/157/25
f 127/158/26 179/159/26 178/160/26 126/161/26
f 131/162/27 181/163/27 180/164/27 130/165/27
f 135/166/28 183/167/28 182/168/28 134/169/28
f 139/170/29 185/171/29 184/172/29 138/173/29
f 143/174/30 187/175/30 186/176/30 142/177/30
f 147/178/31 189/179/31 188/180/31 146/181/31
f 151/182/32 191/183/32 190/184/32 150/185/32
f 152/186/33 192/187/33 173/147/33 115/146/33
f 154/188/34 193/189/34 175/151/34 119/150/34
f 156/190/35 194/191/35 177/155/35 123/154/35
f 158/192/36 195/193/36 179/159/36 127/158/36
f 160/194/37 196/195/37 181/163/37 131/162/37
f 162/196/38 197/197/38 183/167/38 135/166/38
f 164/198/39 198/199/39 185/171/39 139/170/39
f 166/200/40 199/201/40 187/175/40 143/174/40
f 168/202/41 200/203/41 189/179/41 147/178/41
f 170/204/42 201/205/42 191/183/42 151/182/42
f 162/206/43 312/207/43 363/208/43 217/209/43
f 245/210/44 309/211/44 279/212/44 231/213/44
f 161/214/45 346/215/45 330/216/45 256/217/45
f 209/218/46 362/219/46 311/220/46 246/221/46
f 127/222/47 277/223/47 308/224/47 158/225/47
f 159/226/48 341/227/48 326/228/48 255/229/48
f 160/230/49 310/231/49 361/232/49 216/233/49
f 244/234/50 307/235/50 275/236/50 229/237/50
f 157/238/51 334/239/51 325/240/51 254/241/51
f 205/242/44 360/243/44 309/211/44 245/210/44
f 123/244/52 273/245/52 306/246/52 156/247/52
f 155/248/53 338/249/53 327/250/53 253/251/53
f 158/225/47 308/224/47 359/252/47 215/253/47
f 243/254/54 305/255/54 271/256/54 227/257/54
f 153/258/55 349/259/55 331/260/55 252/261/55
f 204/262/50 358/263/50 307/235/50 244/234/50
f 119/264/56 269/265/56 304/266/56 154/267/56
f 113/268/57 373/269/57 345/270/57 171/271/57
f 156/247/52 306/246/52 357/272/52 214/273/52
f 149/274/58 382/275/58 342/276/58 169/277/58
f 242/278/59 303/279/59 267/280/59 225/281/59
f 206/282/54 356/283/54 305/255/54 243/254/54
f 145/284/60 381/285/60 333/286/60 167/287/60
f 115/288/61 265/289/61 302/290/61 152/291/61
f 154/267/56 304/266/56 355/292/56 213/293/56
f 141/294/62 380/295/62 337/296/62 165/297/62
f 150/298/63 300/299/63 301/300/63 151/301/63
f 210/302/59 354/303/59 303/279/59 242/278/59
f 137/304/64 379/305/64 350/143/64 163/142/64
f 241/306/65 299/307/65 298/308/65 240/309/65
f 152/291/61 302/290/61 353/310/61 212/311/61
f 133/312/45 378/313/45 346/215/45 161/214/45
f 146/314/66 296/315/66 297/316/66 147/317/66
f 129/318/48 377/319/48 341/227/48 159/226/48
f 239/320/67 295/321/67 294/322/67 238/323/67
f 125/324/51 376/325/51 334/239/51 157/238/51
f 142/326/68 292/327/68 293/328/68 143/329/68
f 121/330/53 375/331/53 338/249/53 155/248/53
f 237/332/69 291/333/69 290/334/69 236/335/69
f 117/336/70 374/337/70 349/259/70 153/258/70
f 138/338/71 288/339/71 289/340/71 139/341/71
f 148/342/72 343/343/72 382/275/72 149/274/72
f 235/344/73 287/345/73 286/346/73 234/347/73
f 144/348/74 339/349/74 381/285/74 145/284/74
f 134/350/75 284/351/75 285/352/75 135/353/75
f 140/354/76 336/355/76 380/295/76 141/294/76
f 233/356/77 283/357/77 282/358/77 232/359/77
f 136/360/78 351/361/78 379/305/78 137/304/78
f 130/362/79 280/363/79 281/364/79 131/365/79
f 132/366/80 347/367/80 378/313/80 133/312/80
f 231/213/81 279/212/81 278/368/81 230/369/81
f 128/370/82 344/371/82 377/319/82 129/318/82
f 126/372/83 276/373/83 277/223/83 127/222/83
f 124/374/84 340/375/84 376/325/84 125/324/84
f 229/237/85 275/236/85 274/376/85 228/377/85
f 120/378/86 335/379/86 375/331/86 121/330/86
f 122/380/87 272/381/87 273/245/87 123/244/87
f 212/311/63 353/310/63 300/299/63 150/298/63
f 116/382/88 352/383/88 374/337/88 117/336/88
f 227/257/89 271/256/89 270/384/89 226/385/89
f 240/309/65 298/308/65 372/386/65 208/387/65
f 112/388/90 348/389/90 373/269/90 113/268/90
f 118/390/91 268/391/91 269/265/91 119/264/91
f 221/392/66 371/393/66 296/315/66 146/314/66
f 225/281/92 267/280/92 266/394/92 224/395/92
f 238/323/67 294/322/67 370/396/67 203/397/67
f 114/398/93 264/399/93 265/289/93 115/288/93
f 220/400/68 369/401/68 292/327/68 142/326/68
f 223/402/94 263/403/94 262/404/94 222/405/94
f 10/44/81 191/406/81 201/205/81 29/64/81
f 67/407/81 170/408/81 221/392/81 68/409/81
f 65/38/73 146/410/73 188/411/73 28/39/73
f 11/46/50 192/187/50 152/186/50 31/45/50
f 29/64/54 201/205/54 170/204/54 67/63/54
f 33/6/67 114/412/67 172/413/67 12/7/67
f 36/414/95 213/293/95 114/398/95 33/415/95
f 69/42/69 150/416/69 190/417/69 30/43/69
f 13/48/44 193/189/44 154/188/44 35/47/44
f 40/418/96 214/273/96 118/390/96 37/419/96
f 37/10/65 118/420/65 174/421/65 14/11/65
f 15/50/46 194/191/46 156/190/46 39/49/46
f 12/7/95 172/422/95 173/423/95 1/8/95
f 44/424/97 215/253/97 122/380/97 41/425/97
f 14/11/96 174/426/96 175/427/96 2/12/96
f 31/428/77 152/291/77 212/311/77 32/429/77
f 41/14/94 122/430/94 176/431/94 16/15/94
f 16/15/97 176/432/97 177/433/97 3/16/97
f 48/434/98 216/233/98 126/372/98 45/435/98
f 17/52/95 195/193/95 158/192/95 43/51/95
f 18/19/98 178/436/98 179/437/98 4/20/98
f 35/438/73 154/267/73 213/293/73 36/414/73
f 20/23/99 180/439/99 181/440/99 5/24/99
f 52/441/99 217/209/99 130/362/99 49/442/99
f 45/18/92 126/443/92 178/444/92 18/19/92
f 22/27/59 182/445/59 183/446/59 6/28/59
f 39/447/69 156/247/69 214/273/69 40/418/69
f 19/54/96 196/195/96 160/194/96 47/53/96
f 24/31/54 184/448/54 185/449/54 7/32/54
f 56/450/59 218/451/59 134/350/59 53/452/59
f 26/35/50 186/453/50 187/454/50 8/36/50
f 43/455/67 158/225/67 215/253/67 44/424/67
f 49/22/89 130/456/89 180/457/89 20/23/89
f 28/39/44 188/458/44 189/459/44 9/40/44
f 60/460/54 219/461/54 138/338/54 57/462/54
f 21/56/97 197/197/97 162/196/97 51/55/97
f 30/43/46 190/463/46 191/406/46 10/44/46
f 47/464/65 160/230/65 216/233/65 48/434/65
f 1/8/77 173/423/77 192/187/77 11/46/77
f 64/465/50 220/400/50 142/326/50 61/466/50
f 53/26/85 134/467/85 182/468/85 22/27/85
f 2/12/73 175/427/73 193/189/73 13/48/73
f 51/469/94 162/206/94 217/209/94 52/441/94
f 23/58/98 198/199/98 164/198/98 55/57/98
f 3/16/69 177/433/69 194/191/69 15/50/69
f 68/409/44 221/392/44 146/314/44 65/470/44
f 4/20/67 179/437/67 195/193/67 17/52/67
f 55/471/92 164/472/92 218/451/92 56/450/92
f 57/30/81 138/473/81 184/474/81 24/31/81
f 5/24/65 181/440/65 196/195/65 19/54/65
f 32/429/46 212/311/46 150/298/46 69/475/46
f 25/60/99 199/201/99 166/200/99 59/59/99
f 6/28/94 183/446/94 197/197/94 21/56/94
f 59/476/89 166/477/89 219/461/89 60/460/89
f 7/32/92 185/449/92 198/199/92 23/58/92
f 61/34/77 142/478/77 186/479/77 26/35/77
f 8/36/89 187/454/89 199/201/89 25/60/89
f 63/480/85 168/481/85 220/400/85 64/465/85
f 27/62/59 200/203/59 168/202/59 63/61/59
f 9/40/85 189/459/85 200/203/85 27/62/85
f 113/268/100 223/402/100 222/405/100 112/388/100
f 117/336/100 225/281/100 224/395/100 116/382/100
f 121/330/100 227/257/100 226/385/100 120/378/100
f 125/324/100 229/237/100 228/377/100 124/374/100
f 129/318/100 231/213/100 230/369/100 128/370/100
f 133/312/100 233/356/100 232/359/100 132/366/100
f 137/304/100 235/344/100 234/347/100 136/360/100
f 141/294/100 237/332/100 236/335/100 140/354/100
f 145/284/100 239/320/100 238/323/100 144/348/100
f 149/274/100 241/306/100 240/309/100 148/342/100
f 153/258/100 242/278/100 225/281/100 117/336/100
f 155/248/100 243/254/100 227/257/100 121/330/100
f 157/238/100 244/234/100 229/237/100 125/324/100
f 159/226/100 245/210/100 231/213/100 129/318/100
f 161/214/100 246/221/100 233/356/100 133/312/100
f 163/142/100 247/482/100 235/344/100 137/304/100
f 165/297/100 248/483/100 237/332/100 141/294/100
f 167/287/100 249/484/100 239/320/100 145/284/100
f 169/277/100 250/485/100 241/306/100 149/274/100
f 171/271/100 251/486/100 223/402/100 113/268/100
f 252/261/100 210/302/100 242/278/100 153/258/100
f 253/251/100 206/282/100 243/254/100 155/248/100
f 254/241/100 204/262/100 244/234/100 157/238/100
f 255/229/100 205/242/100 245/210/100 159/226/100
f 256/217/100 209/218/100 246/221/100 161/214/100
f 257/145/100 211/487/100 247/482/100 163/142/100
f 258/488/100 207/489/100 248/483/100 165/297/100
f 259/490/100 202/491/100 249/484/100 167/287/100
f 260/492/100 203/397/100 250/485/100 169/277/100
f 261/493/100 208/387/100 251/486/100 171/271/100
f 112/388/100 222/405/100 210/302/100 252/261/100
f 116/382/100 224/395/100 206/282/100 253/251/100
f 120/378/100 226/385/100 204/262/100 254/241/100
f 124/374/100 228/377/100 205/242/100 255/229/100
f 128/370/100 230/369/100 209/218/100 256/217/100
f 132/366/100 232/359/100 211/487/100 257/145/100
f 136/360/100 234/347/100 207/489/100 258/488/100
f 140/354/100 236/335/100 202/491/100 259/490/100
f 144/348/100 238/323/100 203/397/100 260/492/100
f 148/342/100 240/309/100 208/387/100 261/493/100
f 333/494/101 381/495/101 322/496/101
f 339/497/102 324/498/102 322/496/102
f 324/498/103 342/499/103 322/496/103
f 342/499/103 382/500/103 322/496/103
f 343/501/104 329/502/104 322/496/104
f 329/502/105 345/503/105 322/496/105
f 345/503/105 373/504/105 322/496/105
f 348/505/106 331/506/106 322/496/106
f 331/506/107 349/507/107 322/496/107
f 349/507/107 374/508/107 322/496/107
f 352/509/108 327/510/108 322/496/108
f 327/510/109 338/511/109 322/496/109
f 338/511/109 375/512/109 322/496/109
f 335/513/110 325/514/110 322/496/110
f 325/514/111 334/515/111 322/496/111
f 334/515/111 376/516/111 322/496/111
f 340/517/112 326/518/112 322/496/112
f 326/518/113 341/519/113 322/496/113
f 341/519/113 377/520/113 322/496/113
f 344/521/114 330/522/114 322/496/114
f 330/522/115 346/523/115 322/496/115
f 346/523/115 378/524/115 322/496/115
f 347/525/116 332/526/116 322/496/116
f 332/526/117 350/527/117 322/496/117
f 350/527/117 379/528/117 322/496/117
f 351/529/118 328/530/118 322/496/118
f 328/530/119 337/531/119 322/496/119
f 337/531/119 380/532/119 322/496/119
f 336/533/120 323/534/120 322/496/120
f 323/534/101 333/494/101 322/496/101
f 263/535/100 353/310/100 302/290/100 262/536/100
f 354/537/100 265/289/100 264/399/100 303/538/100
f 267/539/100 355/292/100 304/266/100 266/540/100
f 356/541/100 269/265/100 268/391/100 305/542/100
f 271/543/100 357/272/100 306/246/100 270/544/100
f 358/545/100 273/245/100 272/381/100 307/546/100
f 275/547/100 359/252/100 308/224/100 274/548/100
f 360/549/100 277/223/100 276/373/100 309/550/100
f 279/551/100 361/232/100 310/231/100 278/552/100
f 362/553/100 281/364/100 280/363/100 311/554/100
f 283/555/100 363/208/100 312/207/100 282/556/100
f 364/557/100 285/352/100 284/351/100 313/558/100
f 287/559/100 365/560/100 314/561/100 286/562/100
f 366/563/100 289/340/100 288/339/100 315/564/100
f 291/565/100 367/566/100 316/567/100 290/568/100
f 368/569/100 293/328/100 292/327/100 317/570/100
f 295/571/100 369/401/100 318/572/100 294/573/100
f 370/574/100 297/316/100 296/315/100 319/575/100
f 299/576/100 371/393/100 320/577/100 298/578/100
f 372/579/100 301/300/100 300/299/100 321/580/100
f 262/536/100 302/290/100 265/289/100 354/537/100
f 303/538/100 264/399/100 355/292/100 267/539/100
f 266/540/100 304/266/100 269/265/100 356/541/100
f 305/542/100 268/391/100 357/272/100 271/543/100
f 270/544/100 306/246/100 273/245/100 358/545/100
f 307/546/100 272/381/100 359/252/100 275/547/100
f 274/548/100 308/224/100 277/223/100 360/549/100
f 309/550/100 276/373/100 361/232/100 279/551/100
f 278/552/100 310/231/100 281/364/100 362/553/100
f 311/554/100 280/363/100 363/208/100 283/555/100
f 282/556/100 312/207/100 285/352/100 364/557/100
f 313/558/100 284/351/100 365/560/100 287/559/100
f 286/562/100 314/561/100 289/340/100 366/563/100
f 315/564/100 288/339/100 367/566/100 291/565/100
f 290/568/100 316/567/100 293/328/100 368/569/100
f 317/570/100 292/327/100 369/401/100 295/571/100
f 294/573/100 318/572/100 297/316/100 370/574/100
f 319/575/100 296/315/100 371/393/100 299/576/100
f 298/578/100 320/577/100 301/300/100 372/579/100
f 321/580/100 300/299/100 353/310/100 263/535/100
f 131/365/49 281/364/49 310/231/49 160/230/49
f 211/487/95 364/581/95 313/582/95 247/482/95
f 165/297/121 337/296/121 328/583/121 258/488/121
f 246/221/46 311/220/46 283/357/46 233/356/46
f 164/472/122 314/561/122 365/560/122 218/451/122
f 167/287/60 333/286/60 323/584/60 259/490/60
f 135/353/43 285/352/43 312/207/43 162/206/43
f 207/489/96 366/585/96 315/586/96 248/483/96
f 169/277/58 342/276/58 324/587/58 260/492/58
f 247/482/95 313/582/95 287/345/95 235/344/95
f 166/477/123 316/567/123 367/566/123 219/461/123
f 171/271/57 345/270/57 329/588/57 261/493/57
f 139/341/122 289/340/122 314/561/122 164/472/122
f 202/491/97 368/589/97 317/590/97 249/484/97
f 252/261/90 331/260/90 348/389/90 112/388/90
f 248/483/96 315/586/96 291/333/96 237/332/96
f 168/481/124 318/572/124 369/401/124 220/400/124
f 253/251/88 327/250/88 352/383/88 116/382/88
f 143/329/123 293/328/123 316/567/123 166/477/123
f 203/397/98 370/396/98 319/591/98 250/485/98
f 254/241/86 325/240/86 335/379/86 120/378/86
f 249/484/97 317/590/97 295/321/97 239/320/97
f 170/408/125 320/577/125 371/393/125 221/392/125
f 255/229/84 326/228/84 340/375/84 124/374/84
f 147/317/124 297/316/124 318/572/124 168/481/124
f 208/387/99 372/386/99 321/592/99 251/486/99
f 256/217/126 330/216/126 344/371/126 128/370/126
f 250/485/98 319/591/98 299/307/98 241/306/98
f 222/405/94 262/404/94 354/303/94 210/302/94
f 257/145/80 332/144/80 347/367/80 132/366/80
f 151/301/125 301/300/125 320/577/125 170/408/125
f 213/293/93 355/292/93 264/399/93 114/398/93
f 258/488/78 328/583/78 351/361/78 136/360/78
f 251/486/99 321/592/99 263/403/99 223/402/99
f 224/395/92 266/394/92 356/283/92 206/282/92
f 259/490/76 323/584/76 336/355/76 140/354/76
f 214/273/91 357/272/91 268/391/91 118/390/91
f 260/492/127 324/587/127 339/349/127 144/348/127
f 226/385/89 270/384/89 358/263/89 204/262/89
f 261/493/128 329/588/128 343/343/128 148/342/128
f 215/253/87 359/252/87 272/381/87 122/380/87
f 228/377/85 274/376/85 360/243/85 205/242/85
f 216/233/83 361/232/83 276/373/83 126/372/83
f 230/369/81 278/368/81 362/219/81 209/218/81
f 217/209/79 363/208/79 280/363/79 130/362/79
f 232/359/77 282/358/77 364/581/77 211/487/77
f 218/451/75 365/560/75 284/351/75 134/350/75
f 234/347/73 286/346/73 366/585/73 207/489/73
f 219/461/71 367/566/71 288/339/71 138/338/71
f 236/335/69 290/334/69 368/589/69 202/491/69
f 382/500/104 343/501/104 322/496/104
f 379/528/118 351/529/118 322/496/118
f 373/504/106 348/505/106 322/496/106
f 377/520/114 344/521/114 322/496/114
f 380/532/120 336/533/120 322/496/120
f 374/508/108 352/509/108 322/496/108
f 381/495/102 339/497/102 322/496/102
f 376/516/112 340/517/112 322/496/112
f 378/524/116 347/525/116 322/496/116
f 375/512/110 335/513/110 322/496/110
