# Blender 5.1.1
# www.blender.org
mtllib FilingCabinet1.mtl
o FilingCabinet1
v 0.936859 0.000000 -1.000000
v 0.936859 4.000000 -1.000000
v 0.936859 0.000000 1.000000
v 0.936859 4.000000 1.000000
v -1.063141 0.200000 -0.900000
v -1.063141 3.800000 -0.900000
v -1.063141 0.200000 0.900000
v -1.063141 3.800000 0.900000
v -1.063141 4.000000 1.000000
v -1.063141 0.000000 1.000000
v -1.063141 0.000000 -1.000000
v -1.063141 4.000000 -1.000000
v -1.063141 3.257136 0.261221
v -1.063141 3.542865 0.261221
v -1.063141 3.542865 -0.261221
v -1.063141 3.257136 -0.261221
v -1.063141 2.057136 0.261221
v -1.063141 2.342865 0.261221
v -1.063141 2.342865 -0.261221
v -1.063141 2.057136 -0.261221
v -1.063141 0.857136 0.261221
v -1.063141 1.142865 0.261221
v -1.063141 1.142865 -0.261221
v -1.063141 0.857136 -0.261221
v -1.117658 3.440868 0.211997
v -1.117658 3.306360 0.211997
v -1.117658 3.306360 -0.211997
v -1.117658 3.440868 -0.211997
v -1.117658 2.240868 0.211997
v -1.117658 2.106359 0.211997
v -1.117658 2.106359 -0.211997
v -1.117658 2.240868 -0.211997
v -1.117658 1.040868 0.211997
v -1.117658 0.906359 0.211997
v -1.117658 0.906359 -0.211997
v -1.117658 1.040868 -0.211997
v -1.097976 3.542865 0.261221
v -1.097976 3.257136 0.261221
v -1.097976 3.257136 -0.261221
v -1.097976 3.542865 -0.261221
v -1.097976 2.342865 0.261221
v -1.097976 2.057136 0.261221
v -1.097976 2.057136 -0.261221
v -1.097976 2.342865 -0.261221
v -1.097976 1.142865 0.261221
v -1.097976 0.857136 0.261221
v -1.097976 0.857136 -0.261221
v -1.097976 1.142865 -0.261221
v -0.998994 3.440868 0.211997
v -1.047862 3.306360 0.211997
v -1.047862 3.306360 -0.211997
v -0.998994 3.440868 -0.211997
v -0.998994 2.240868 0.211997
v -1.047862 2.106359 0.211997
v -1.047862 2.106359 -0.211997
v -0.998994 2.240868 -0.211997
v -0.998994 1.040868 0.211997
v -1.047862 0.906359 0.211997
v -1.047862 0.906359 -0.211997
v -0.998994 1.040868 -0.211997
v 0.936859 2.620854 -1.000000
v 0.936859 2.579146 -1.000000
v 0.936859 2.579146 1.000000
v 0.936859 2.620854 1.000000
v -1.063141 2.579146 1.000000
v -1.063141 2.620854 1.000000
v -1.063141 2.620854 -1.000000
v -1.063141 2.579146 -1.000000
v -1.063141 2.620854 0.900000
v -1.063141 2.579146 0.900000
v -1.063141 2.579146 -0.900000
v -1.063141 2.620854 -0.900000
v 0.936859 1.420854 1.000000
v 0.936859 1.379146 1.000000
v -1.063141 1.420854 1.000000
v -1.063141 1.379146 1.000000
v -1.063141 1.379146 -1.000000
v -1.063141 1.420854 -1.000000
v -1.063141 1.379146 0.900000
v -1.063141 1.420854 0.900000
v -1.063141 1.420854 -0.900000
v -1.063141 1.379146 -0.900000
v 0.936859 1.379146 -1.000000
v 0.936859 1.420854 -1.000000
v -1.113025 0.000000 -1.000000
v -1.113025 0.000000 1.000000
v -1.113025 4.000000 1.000000
v -1.113025 4.000000 -1.000000
v -1.113025 0.200000 -0.900000
v -1.113025 0.200000 0.900000
v -1.113025 3.800000 0.900000
v -1.113025 3.800000 -0.900000
v -1.113025 2.579146 -0.900000
v -1.113025 2.620854 -0.900000
v -1.113025 2.620854 -1.000000
v -1.113025 2.579146 -1.000000
v -1.113025 2.620854 0.900000
v -1.113025 2.579146 0.900000
v -1.113025 2.579146 1.000000
v -1.113025 2.620854 1.000000
v -1.113025 1.420854 1.000000
v -1.113025 1.379146 1.000000
v -1.113025 1.379146 0.900000
v -1.113025 1.420854 0.900000
v -1.113025 1.420854 -0.900000
v -1.113025 1.379146 -0.900000
v -1.113025 1.379146 -1.000000
v -1.113025 1.420854 -1.000000
vn -0.0000 -1.0000 -0.0000
vn -0.0000 1.0000 -0.0000
vn -0.0000 -0.0000 -1.0000
vn -1.0000 -0.0000 -0.0000
vn -0.0000 -0.0000 1.0000
vn -0.9285 -0.0000 0.3713
vn -0.9285 -0.3713 -0.0000
vn -0.9819 0.1895 -0.0000
vn -0.9285 -0.0000 -0.3713
vn -0.9399 0.3415 -0.0000
vn 1.0000 -0.0000 -0.0000
vt 0.430527 0.675256
vt 0.430527 0.574744
vt 0.125000 0.500000
vt 0.375000 0.500000
vt 0.375000 0.750000
vt 0.125000 0.750000
vt 0.625000 0.500000
vt 0.875000 0.500000
vt 0.875000 0.750000
vt 0.625000 0.750000
vt 0.618750 0.512500
vt 0.501864 0.512215
vt 0.500000 0.750000
vt 0.498138 0.750000
vt 0.500000 0.574744
vt 0.500000 0.675256
vt 0.569473 0.675256
vt 0.549277 0.675256
vt 0.618750 0.737500
vt 0.569473 0.574744
vt 0.381250 0.737500
vt 0.381250 0.512500
vt 0.500000 0.584214
vt 0.500000 0.584214
vt 0.500000 0.665786
vt 0.500000 0.665786
vt 0.552756 0.584214
vt 0.565994 0.584214
vt 0.549277 0.574744
vt 0.500000 0.675256
vt 0.450723 0.574744
vt 0.450723 0.675256
vt 0.500000 0.574744
vt 0.552756 0.665786
vt 0.565994 0.665786
vt 0.447244 0.584214
vt 0.434006 0.584214
vt 0.434006 0.665786
vt 0.447244 0.665786
vt 0.501862 0.750000
vt 0.501862 1.000000
vt 0.500000 1.000000
vt 0.497163 0.738167
vt 0.501862 0.250000
vt 0.501862 0.500000
vt 0.500000 0.500000
vt 0.500000 0.250000
vt 0.501862 0.000000
vt 0.500000 0.000000
vt 0.498138 0.250000
vt 0.498138 0.000000
vt 0.498138 0.500000
vt 0.498138 1.000000
vt 0.497163 0.511833
vt 0.625000 1.000000
vt 0.625000 0.000000
vt 0.625000 0.250000
vt 0.500000 0.738167
vt 0.500000 0.511833
vt 0.501864 0.737785
vt 0.500000 0.512215
vt 0.500000 0.737785
vt 0.375000 0.250000
vt 0.375000 0.000000
vt 0.375000 1.000000
s 0
f 24/1/1 21/2/1 46/2/1 47/1/1
f 3/3/1 10/4/1 11/5/1 1/6/1
f 9/7/2 4/8/2 2/9/2 12/10/2
f 8/11/3 69/12/3 97/12/3 91/11/3
f 78/13/3 77/14/3 107/14/3 108/13/3
f 18/15/2 19/16/2 44/16/2 41/15/2
f 15/17/3 16/18/3 39/18/3 40/17/3
f 8/11/4 6/19/4 15/17/4 14/20/4
f 5/21/4 7/22/4 21/2/4 24/1/4
f 30/23/3 29/24/3 53/24/3 54/23/3
f 32/25/5 31/26/5 55/26/5 56/25/5
f 26/27/3 25/28/3 49/28/3 50/27/3
f 13/29/5 14/20/5 37/20/5 38/29/5
f 19/16/3 20/30/3 43/30/3 44/16/3
f 22/31/2 23/32/2 48/32/2 45/31/2
f 16/18/1 13/29/1 38/29/1 39/18/1
f 17/33/5 18/15/5 41/15/5 42/33/5
f 23/32/3 24/1/3 47/1/3 48/32/3
f 14/20/2 15/17/2 40/17/2 37/20/2
f 20/30/1 17/33/1 42/33/1 43/30/1
f 21/2/5 22/31/5 45/31/5 46/2/5
f 25/28/6 26/27/6 38/29/6 37/20/6
f 26/27/7 27/34/7 39/18/7 38/29/7
f 28/35/8 25/28/8 37/20/8 40/17/8
f 27/34/9 28/35/9 40/17/9 39/18/9
f 29/24/6 30/23/6 42/33/6 41/15/6
f 30/23/7 31/26/7 43/30/7 42/33/7
f 32/25/8 29/24/8 41/15/8 44/16/8
f 31/26/9 32/25/9 44/16/9 43/30/9
f 33/36/6 34/37/6 46/2/6 45/31/6
f 34/37/7 35/38/7 47/1/7 46/2/7
f 36/39/8 33/36/8 45/31/8 48/32/8
f 35/38/9 36/39/9 48/32/9 47/1/9
f 50/27/10 49/28/10 52/35/10 51/34/10
f 54/23/10 53/24/10 56/25/10 55/26/10
f 58/37/10 57/36/10 60/39/10 59/38/10
f 36/39/5 35/38/5 59/38/5 60/39/5
f 27/34/2 26/27/2 50/27/2 51/34/2
f 34/37/3 33/36/3 57/36/3 58/37/3
f 31/26/2 30/23/2 54/23/2 55/26/2
f 25/28/1 28/35/1 52/35/1 49/28/1
f 35/38/2 34/37/2 58/37/2 59/38/2
f 29/24/1 32/25/1 56/25/1 53/24/1
f 28/35/5 27/34/5 51/34/5 52/35/5
f 33/36/1 36/39/1 60/39/1 57/36/1
f 9/7/2 12/10/2 88/10/2 87/7/2
f 12/10/3 67/40/3 95/40/3 88/10/3
f 67/40/3 61/41/3 62/42/3 68/13/3
f 5/21/5 82/43/5 106/43/5 89/21/5
f 64/44/5 66/45/5 65/46/5 63/47/5
f 61/48/11 64/44/11 63/47/11 62/49/11
f 84/49/11 73/47/11 74/50/11 83/51/11
f 73/47/5 75/46/5 76/52/5 74/50/5
f 65/46/5 66/45/5 100/45/5 99/46/5
f 78/13/3 84/42/3 83/53/3 77/14/3
f 75/46/5 65/46/5 99/46/5 101/46/5
f 82/43/1 79/54/1 103/54/1 106/43/1
f 67/40/3 12/10/3 2/55/3 61/41/3
f 84/49/11 62/49/11 63/47/11 73/47/11
f 61/48/11 2/56/11 4/57/11 64/44/11
f 78/13/3 68/13/3 62/42/3 84/42/3
f 64/44/5 4/57/5 9/7/5 66/45/5
f 73/47/5 63/47/5 65/46/5 75/46/5
f 11/5/1 10/4/1 86/4/1 85/5/1
f 79/54/3 7/22/3 90/22/3 103/54/3
f 66/45/5 9/7/5 87/7/5 100/45/5
f 71/58/1 70/59/1 98/59/1 93/58/1
f 69/12/4 8/11/4 14/20/4 13/29/4
f 70/59/4 71/58/4 19/16/4 18/15/4
f 72/60/4 69/12/4 13/29/4 16/18/4
f 80/61/4 70/59/4 18/15/4 17/33/4
f 6/19/4 72/60/4 16/18/4 15/17/4
f 71/58/4 81/62/4 20/30/4 19/16/4
f 3/63/5 74/50/5 76/52/5 10/4/5
f 1/64/11 83/51/11 74/50/11 3/63/11
f 68/13/3 78/13/3 108/13/3 96/13/3
f 80/61/2 81/62/2 105/62/2 104/61/2
f 11/5/3 77/14/3 83/53/3 1/65/3
f 7/22/4 79/54/4 22/31/4 21/2/4
f 79/54/4 82/43/4 23/32/4 22/31/4
f 81/62/4 80/61/4 17/33/4 20/30/4
f 82/43/4 5/21/4 24/1/4 23/32/4
f 90/22/4 89/21/4 85/5/4 86/4/4
f 92/19/4 91/11/4 87/7/4 88/10/4
f 94/60/4 95/40/4 96/13/4 93/58/4
f 98/59/4 99/46/4 100/45/4 97/12/4
f 97/12/4 94/60/4 93/58/4 98/59/4
f 104/61/4 105/62/4 106/43/4 103/54/4
f 105/62/4 108/13/4 107/14/4 106/43/4
f 103/54/4 102/52/4 101/46/4 104/61/4
f 91/11/4 97/12/4 100/45/4 87/7/4
f 98/59/4 104/61/4 101/46/4 99/46/4
f 94/60/4 92/19/4 88/10/4 95/40/4
f 105/62/4 93/58/4 96/13/4 108/13/4
f 103/54/4 90/22/4 86/4/4 102/52/4
f 89/21/4 106/43/4 107/14/4 85/5/4
f 77/14/3 11/5/3 85/5/3 107/14/3
f 70/59/3 80/61/3 104/61/3 98/59/3
f 76/52/5 75/46/5 101/46/5 102/52/5
f 72/60/5 6/19/5 92/19/5 94/60/5
f 67/40/3 68/13/3 96/13/3 95/40/3
f 7/22/2 5/21/2 89/21/2 90/22/2
f 81/62/5 71/58/5 93/58/5 105/62/5
f 10/4/5 76/52/5 102/52/5 86/4/5
f 6/19/1 8/11/1 91/11/1 92/19/1
f 69/12/2 72/60/2 94/60/2 97/12/2
