# Blender 5.1.1
# www.blender.org
mtllib FilingCabinet2.mtl
o FilingCabinet2
v 0.936859 0.000000 -1.000000
v 0.936859 4.000000 -1.000000
v 0.936859 0.000000 1.000000
v 0.936859 4.000000 1.000000
v -1.063141 0.200000 -0.900000
v -1.063141 3.800000 -0.900000
v -1.063141 0.200000 0.900000
v -1.063141 3.800000 0.900000
v -1.063141 4.000000 1.000000
v -1.063141 0.000000 1.000000
v -1.063141 0.000000 -1.000000
v -1.063141 4.000000 -1.000000
v -1.063141 3.257136 0.261221
v -1.063141 3.542865 0.261221
v -1.063141 3.542865 -0.261221
v -1.063141 3.257136 -0.261221
v -1.063141 2.057136 0.261221
v -1.063141 2.342865 0.261221
v -1.063141 2.342865 -0.261221
v -1.063141 2.057136 -0.261221
v -1.063141 0.857135 0.261221
v -1.063141 1.142865 0.261221
v -1.063141 1.142865 -0.261221
v -1.063141 0.857135 -0.261221
v -1.117658 3.440868 0.211997
v -1.117658 3.306360 0.211997
v -1.117658 3.306360 -0.211997
v -1.117658 3.440868 -0.211997
v -1.117658 2.240868 0.211997
v -1.117658 2.106359 0.211997
v -1.117658 2.106359 -0.211997
v -1.117658 2.240868 -0.211997
v -1.117658 1.040867 0.211997
v -1.117658 0.906359 0.211997
v -1.117658 0.906359 -0.211997
v -1.117658 1.040867 -0.211997
v -1.097976 3.542865 0.261221
v -1.097976 3.257136 0.261221
v -1.097976 3.257136 -0.261221
v -1.097976 3.542865 -0.261221
v -1.097976 2.342865 0.261221
v -1.097976 2.057136 0.261221
v -1.097976 2.057136 -0.261221
v -1.097976 2.342865 -0.261221
v -1.097976 1.142865 0.261221
v -1.097976 0.857135 0.261221
v -1.097976 0.857135 -0.261221
v -1.097976 1.142865 -0.261221
v -0.998994 3.440868 0.211997
v -1.047861 3.306360 0.211997
v -1.047861 3.306360 -0.211997
v -0.998994 3.440868 -0.211997
v -0.998994 2.240868 0.211997
v -1.047861 2.106359 0.211997
v -1.047861 2.106359 -0.211997
v -0.998994 2.240868 -0.211997
v -0.998994 1.040867 0.211997
v -1.047861 0.906359 0.211997
v -1.047861 0.906359 -0.211997
v -0.998994 1.040867 -0.211997
v 0.936859 2.620854 -1.000000
v 0.936859 2.579146 -1.000000
v 0.936859 2.579146 1.000000
v 0.936859 2.620854 1.000000
v -1.063141 2.579146 1.000000
v -1.063141 2.620854 1.000000
v -1.063141 2.620854 -1.000000
v -1.063141 2.579146 -1.000000
v -1.063141 2.620854 0.900000
v -1.063141 2.579146 0.900000
v -1.063141 2.579146 -0.900000
v -1.063141 2.620854 -0.900000
v 0.936859 1.420854 1.000000
v 0.936859 1.379146 1.000000
v -1.063141 1.420854 1.000000
v -1.063141 1.379146 1.000000
v -1.063141 1.379146 -1.000000
v -1.063141 1.420854 -1.000000
v -1.063141 1.379146 0.900000
v -1.063141 1.420854 0.900000
v -1.063141 1.420854 -0.900000
v -1.063141 1.379146 -0.900000
v 0.936859 1.379146 -1.000000
v 0.936859 1.420854 -1.000000
v -1.063141 0.200000 -0.900000
v -1.063141 0.200000 0.900000
v -1.063141 1.142865 0.261221
v -1.063141 0.857135 0.261221
v -1.063141 0.857135 -0.261221
v -1.063141 1.142865 -0.261221
v -1.097976 1.142865 0.261221
v -1.097976 0.857135 0.261221
v -1.097976 0.857135 -0.261221
v -1.097976 1.142865 -0.261221
v -1.117658 1.040867 0.211997
v -1.117658 0.906359 0.211997
v -1.117658 0.906359 -0.211997
v -1.117658 1.040867 -0.211997
v -0.998994 1.040867 0.211997
v -1.047861 0.906359 0.211997
v -1.047861 0.906359 -0.211997
v -0.998994 1.040867 -0.211997
v -1.063141 1.379146 -0.900000
v -1.063141 1.379146 0.900000
v -1.677326 0.211263 -0.900000
v -1.677326 0.211263 0.900000
v -1.677326 1.154128 0.261221
v -1.677326 0.868398 0.261221
v -1.677326 0.868398 -0.261221
v -1.677326 1.154128 -0.261221
v -1.712162 1.154128 0.261221
v -1.712162 0.868398 0.261221
v -1.712162 0.868398 -0.261221
v -1.712162 1.154128 -0.261221
v -1.731843 1.052130 0.211997
v -1.731843 0.917622 0.211997
v -1.731843 0.917622 -0.211997
v -1.731843 1.052130 -0.211997
v -1.613179 1.052130 0.211997
v -1.662047 0.917622 0.211997
v -1.662047 0.917622 -0.211997
v -1.613179 1.052130 -0.211997
v -1.677326 1.390409 -0.900000
v -1.677326 1.390409 0.900000
v -1.113025 0.000000 -1.000000
v -1.113025 0.000000 1.000000
v -1.113025 4.000000 1.000000
v -1.113025 4.000000 -1.000000
v -1.113025 0.200000 -0.900000
v -1.113025 0.200000 0.900000
v -1.113025 3.800000 0.900000
v -1.113025 3.800000 -0.900000
v -1.113025 2.579146 -0.900000
v -1.113025 2.620854 -0.900000
v -1.113025 2.620854 -1.000000
v -1.113025 2.579146 -1.000000
v -1.113025 2.620854 0.900000
v -1.113025 2.579146 0.900000
v -1.113025 2.579146 1.000000
v -1.113025 2.620854 1.000000
v -1.113025 1.420854 1.000000
v -1.113025 1.379146 1.000000
v -1.113025 1.379146 0.900000
v -1.113025 1.420854 0.900000
v -1.113025 1.420854 -0.900000
v -1.113025 1.379146 -0.900000
v -1.113025 1.379146 -1.000000
v -1.113025 1.420854 -1.000000
vn -0.0000 -1.0000 -0.0000
vn -0.0000 1.0000 -0.0000
vn -0.0000 -0.0000 -1.0000
vn -1.0000 -0.0000 -0.0000
vn -0.0000 -0.0000 1.0000
vn -0.9285 -0.0000 0.3713
vn -0.9285 -0.3713 -0.0000
vn -0.9819 0.1895 -0.0000
vn -0.9285 -0.0000 -0.3713
vn -0.9399 0.3415 -0.0000
vn 1.0000 -0.0000 -0.0000
vn -0.0183 -0.9998 -0.0000
vn 0.0183 0.9998 -0.0000
vt 0.430527 0.675256
vt 0.430527 0.574744
vt 0.125000 0.500000
vt 0.375000 0.500000
vt 0.375000 0.750000
vt 0.125000 0.750000
vt 0.625000 0.500000
vt 0.875000 0.500000
vt 0.875000 0.750000
vt 0.625000 0.750000
vt 0.497163 0.738167
vt 0.497163 0.511833
vt 0.500000 0.574744
vt 0.500000 0.675256
vt 0.569473 0.675256
vt 0.549277 0.675256
vt 0.618750 0.512500
vt 0.618750 0.737500
vt 0.569473 0.574744
vt 0.381250 0.512500
vt 0.500000 0.584214
vt 0.500000 0.584214
vt 0.500000 0.665786
vt 0.500000 0.665786
vt 0.552756 0.584214
vt 0.565994 0.584214
vt 0.549277 0.574744
vt 0.500000 0.675256
vt 0.450723 0.574744
vt 0.450723 0.675256
vt 0.500000 0.574744
vt 0.552756 0.665786
vt 0.565994 0.665786
vt 0.447244 0.584214
vt 0.434006 0.584214
vt 0.447244 0.665786
vt 0.434006 0.665786
vt 0.501862 0.500000
vt 0.501862 0.750000
vt 0.501862 1.000000
vt 0.500000 1.000000
vt 0.500000 0.750000
vt 0.500000 0.738167
vt 0.500000 0.511833
vt 0.501862 0.250000
vt 0.500000 0.500000
vt 0.500000 0.250000
vt 0.501862 0.000000
vt 0.500000 0.000000
vt 0.498138 0.250000
vt 0.498138 0.000000
vt 0.498138 0.500000
vt 0.498138 1.000000
vt 0.498138 0.750000
vt 0.500000 0.512215
vt 0.500000 0.737785
vt 0.501864 0.512215
vt 0.501864 0.737785
vt 0.625000 1.000000
vt 0.625000 0.000000
vt 0.625000 0.250000
vt 0.381250 0.737500
vt 0.375000 0.250000
vt 0.375000 0.000000
vt 0.375000 1.000000
s 0
f 24/1/1 21/2/1 46/2/1 47/1/1
f 3/3/1 10/4/1 11/5/1 1/6/1
f 9/7/2 4/8/2 2/9/2 12/10/2
f 82/11/1 79/12/1 143/12/1 146/11/1
f 11/5/1 10/4/1 126/4/1 125/5/1
f 18/13/2 19/14/2 44/14/2 41/13/2
f 15/15/3 16/16/3 39/16/3 40/15/3
f 8/17/4 6/18/4 15/15/4 14/19/4
f 7/20/2 79/12/2 104/12/2 86/20/2
f 30/21/3 29/22/3 53/22/3 54/21/3
f 32/23/5 31/24/5 55/24/5 56/23/5
f 26/25/3 25/26/3 49/26/3 50/25/3
f 13/27/5 14/19/5 37/19/5 38/27/5
f 19/14/3 20/28/3 43/28/3 44/14/3
f 22/29/2 23/30/2 48/30/2 45/29/2
f 16/16/1 13/27/1 38/27/1 39/16/1
f 17/31/5 18/13/5 41/13/5 42/31/5
f 23/30/3 24/1/3 47/1/3 48/30/3
f 14/19/2 15/15/2 40/15/2 37/19/2
f 20/28/1 17/31/1 42/31/1 43/28/1
f 21/2/5 22/29/5 45/29/5 46/2/5
f 25/26/6 26/25/6 38/27/6 37/19/6
f 26/25/7 27/32/7 39/16/7 38/27/7
f 28/33/8 25/26/8 37/19/8 40/15/8
f 27/32/9 28/33/9 40/15/9 39/16/9
f 29/22/6 30/21/6 42/31/6 41/13/6
f 30/21/7 31/24/7 43/28/7 42/31/7
f 32/23/8 29/22/8 41/13/8 44/14/8
f 31/24/9 32/23/9 44/14/9 43/28/9
f 45/29/2 48/30/2 94/30/2 91/29/2
f 33/34/2 34/35/2 96/35/2 95/34/2
f 21/2/2 24/1/2 89/1/2 88/2/2
f 47/1/2 46/2/2 92/2/2 93/1/2
f 50/25/10 49/26/10 52/33/10 51/32/10
f 54/21/10 53/22/10 56/23/10 55/24/10
f 22/29/2 21/2/2 88/2/2 87/29/2
f 36/36/5 35/37/5 59/37/5 60/36/5
f 27/32/2 26/25/2 50/25/2 51/32/2
f 34/35/3 33/34/3 57/34/3 58/35/3
f 31/24/2 30/21/2 54/21/2 55/24/2
f 25/26/1 28/33/1 52/33/1 49/26/1
f 35/37/2 34/35/2 58/35/2 59/37/2
f 29/22/1 32/23/1 56/23/1 53/22/1
f 28/33/5 27/32/5 51/32/5 52/33/5
f 33/34/1 36/36/1 60/36/1 57/34/1
f 79/12/3 7/20/3 130/20/3 143/12/3
f 66/38/5 9/7/5 127/7/5 140/38/5
f 67/39/3 61/40/3 62/41/3 68/42/3
f 71/43/1 70/44/1 138/44/1 133/43/1
f 64/45/5 66/38/5 65/46/5 63/47/5
f 61/48/11 64/45/11 63/47/11 62/49/11
f 84/49/11 73/47/11 74/50/11 83/51/11
f 73/47/5 75/46/5 76/52/5 74/50/5
f 68/42/3 78/42/3 148/42/3 136/42/3
f 78/42/3 84/41/3 83/53/3 77/54/3
f 80/55/2 81/56/2 145/56/2 144/55/2
f 69/57/2 72/58/2 134/58/2 137/57/2
f 67/39/3 12/10/3 2/59/3 61/40/3
f 84/49/11 62/49/11 63/47/11 73/47/11
f 61/48/11 2/60/11 4/61/11 64/45/11
f 78/42/3 68/42/3 62/41/3 84/41/3
f 64/45/5 4/61/5 9/7/5 66/38/5
f 73/47/5 63/47/5 65/46/5 75/46/5
f 6/18/1 8/17/1 131/17/1 132/18/1
f 10/4/5 76/52/5 142/52/5 126/4/5
f 81/56/5 71/43/5 133/43/5 145/56/5
f 7/20/2 5/62/2 129/62/2 130/20/2
f 69/57/4 8/17/4 14/19/4 13/27/4
f 70/44/4 71/43/4 19/14/4 18/13/4
f 72/58/4 69/57/4 13/27/4 16/16/4
f 80/55/4 70/44/4 18/13/4 17/31/4
f 6/18/4 72/58/4 16/16/4 15/15/4
f 71/43/4 81/56/4 20/28/4 19/14/4
f 3/63/5 74/50/5 76/52/5 10/4/5
f 1/64/11 83/51/11 74/50/11 3/63/11
f 67/39/3 68/42/3 136/42/3 135/39/3
f 72/58/5 6/18/5 132/18/5 134/58/5
f 11/5/3 77/54/3 83/53/3 1/65/3
f 46/2/2 45/29/2 91/29/2 92/2/2
f 5/62/2 7/20/2 86/20/2 85/62/2
f 81/56/4 80/55/4 17/31/4 20/28/4
f 60/36/2 59/37/2 101/37/2 102/36/2
f 100/35/5 99/34/5 119/34/5 120/35/5
f 89/1/5 90/30/5 110/30/5 109/1/5
f 95/34/3 96/35/3 116/35/3 115/34/3
f 90/30/12 87/29/12 107/29/12 110/30/12
f 103/11/3 85/62/3 105/62/3 123/11/3
f 94/30/3 93/1/3 113/1/3 114/30/3
f 88/2/13 89/1/13 109/1/13 108/2/13
f 86/20/5 104/12/5 124/12/5 106/20/5
f 91/29/13 94/30/13 114/30/13 111/29/13
f 23/30/2 22/29/2 87/29/2 90/30/2
f 34/35/2 35/37/2 97/37/2 96/35/2
f 48/30/2 47/1/2 93/1/2 94/30/2
f 79/12/2 82/11/2 103/11/2 104/12/2
f 82/11/2 5/62/2 85/62/2 103/11/2
f 58/35/2 57/34/2 99/34/2 100/35/2
f 24/1/2 23/30/2 90/30/2 89/1/2
f 36/36/2 33/34/2 95/34/2 98/36/2
f 59/37/2 58/35/2 100/35/2 101/37/2
f 35/37/2 36/36/2 98/36/2 97/37/2
f 57/34/2 60/36/2 102/36/2 99/34/2
f 105/62/4 106/20/4 108/2/4 109/1/4
f 115/34/6 116/35/6 112/2/6 111/29/6
f 116/35/7 117/37/7 113/1/7 112/2/7
f 118/36/8 115/34/8 111/29/8 114/30/8
f 117/37/9 118/36/9 114/30/9 113/1/9
f 120/35/10 119/34/10 122/36/10 121/37/10
f 106/20/4 124/12/4 107/29/4 108/2/4
f 124/12/4 123/11/4 110/30/4 107/29/4
f 123/11/4 105/62/4 109/1/4 110/30/4
f 96/35/13 97/37/13 117/37/13 116/35/13
f 101/37/12 100/35/12 120/35/12 121/37/12
f 98/36/12 95/34/12 115/34/12 118/36/12
f 99/34/13 102/36/13 122/36/13 119/34/13
f 97/37/5 98/36/5 118/36/5 117/37/5
f 92/2/5 91/29/5 111/29/5 112/2/5
f 102/36/3 101/37/3 121/37/3 122/36/3
f 85/62/12 86/20/12 106/20/12 105/62/12
f 93/1/12 92/2/12 112/2/12 113/1/12
f 104/12/13 103/11/13 123/11/13 124/12/13
f 87/29/3 88/2/3 108/2/3 107/29/3
f 130/20/4 129/62/4 125/5/4 126/4/4
f 132/18/4 131/17/4 127/7/4 128/10/4
f 134/58/4 135/39/4 136/42/4 133/43/4
f 138/44/4 139/46/4 140/38/4 137/57/4
f 137/57/4 134/58/4 133/43/4 138/44/4
f 144/55/4 145/56/4 146/11/4 143/12/4
f 145/56/4 148/42/4 147/54/4 146/11/4
f 143/12/4 142/52/4 141/46/4 144/55/4
f 131/17/4 137/57/4 140/38/4 127/7/4
f 138/44/4 144/55/4 141/46/4 139/46/4
f 134/58/4 132/18/4 128/10/4 135/39/4
f 145/56/4 133/43/4 136/42/4 148/42/4
f 143/12/4 130/20/4 126/4/4 142/52/4
f 129/62/4 146/11/4 147/54/4 125/5/4
f 75/46/5 65/46/5 139/46/5 141/46/5
f 65/46/5 66/38/5 140/38/5 139/46/5
f 5/62/5 82/11/5 146/11/5 129/62/5
f 12/10/3 67/39/3 135/39/3 128/10/3
f 9/7/2 12/10/2 128/10/2 127/7/2
f 78/42/3 77/54/3 147/54/3 148/42/3
f 8/17/3 69/57/3 137/57/3 131/17/3
f 77/54/3 11/5/3 125/5/3 147/54/3
f 70/44/3 80/55/3 144/55/3 138/44/3
f 76/52/5 75/46/5 141/46/5 142/52/5
