# Blender 5.1.1
# www.blender.org
mtllib FilingCabinet3.mtl
o FilingCabinet3
v 0.936859 0.000000 -1.000000
v 0.936859 4.000000 -1.000000
v 0.936859 0.000000 1.000000
v 0.936859 4.000000 1.000000
v -1.063141 0.200000 -0.900000
v -1.063141 3.800000 -0.900000
v -1.063141 0.200000 0.900000
v -1.063141 3.800000 0.900000
v -1.063141 4.000000 1.000000
v -1.063141 0.000000 1.000000
v -1.063141 0.000000 -1.000000
v -1.063141 4.000000 -1.000000
v -1.063141 3.257135 0.261221
v -1.063141 3.542865 0.261221
v -1.063141 3.542865 -0.261221
v -1.063141 3.257135 -0.261221
v -1.063141 2.057136 0.261221
v -1.063141 2.342865 0.261221
v -1.063141 2.342865 -0.261221
v -1.063141 2.057136 -0.261221
v -1.063141 0.857135 0.261221
v -1.063141 1.142864 0.261221
v -1.063141 1.142864 -0.261221
v -1.063141 0.857135 -0.261221
v -1.117658 3.440867 0.211997
v -1.117658 3.306359 0.211997
v -1.117658 3.306359 -0.211997
v -1.117658 3.440867 -0.211997
v -1.117658 2.240868 0.211997
v -1.117658 2.106359 0.211997
v -1.117658 2.106359 -0.211997
v -1.117658 2.240868 -0.211997
v -1.117658 1.040867 0.211997
v -1.117658 0.906359 0.211997
v -1.117658 0.906359 -0.211997
v -1.117658 1.040867 -0.211997
v -1.097977 3.542865 0.261221
v -1.097977 3.257135 0.261221
v -1.097977 3.257135 -0.261221
v -1.097977 3.542865 -0.261221
v -1.097977 2.342865 0.261221
v -1.097977 2.057136 0.261221
v -1.097977 2.057136 -0.261221
v -1.097977 2.342865 -0.261221
v -1.097977 1.142864 0.261221
v -1.097977 0.857135 0.261221
v -1.097977 0.857135 -0.261221
v -1.097977 1.142864 -0.261221
v -0.998994 3.440867 0.211997
v -1.047862 3.306359 0.211997
v -1.047862 3.306359 -0.211997
v -0.998994 3.440867 -0.211997
v -0.998994 2.240868 0.211997
v -1.047862 2.106359 0.211997
v -1.047862 2.106359 -0.211997
v -0.998994 2.240868 -0.211997
v -0.998994 1.040867 0.211997
v -1.047862 0.906359 0.211997
v -1.047862 0.906359 -0.211997
v -0.998994 1.040867 -0.211997
v 0.936859 2.620854 -1.000000
v 0.936859 2.579146 -1.000000
v 0.936859 2.579146 1.000000
v 0.936859 2.620854 1.000000
v -1.063141 2.579146 1.000000
v -1.063141 2.620854 1.000000
v -1.063141 2.620854 -1.000000
v -1.063141 2.579146 -1.000000
v -1.063141 2.620854 0.900000
v -1.063141 2.579146 0.900000
v -1.063141 2.579146 -0.900000
v -1.063141 2.620854 -0.900000
v 0.936859 1.420854 1.000000
v 0.936859 1.379146 1.000000
v -1.063141 1.420854 1.000000
v -1.063141 1.379146 1.000000
v -1.063141 1.379146 -1.000000
v -1.063141 1.420854 -1.000000
v -1.063141 1.379146 0.900000
v -1.063141 1.420854 0.900000
v -1.063141 1.420854 -0.900000
v -1.063141 1.379146 -0.900000
v 0.936859 1.379146 -1.000000
v 0.936859 1.420854 -1.000000
v -1.063141 2.342865 0.261221
v -1.063141 2.057136 0.261221
v -1.063141 2.057136 -0.261221
v -1.063141 2.342865 -0.261221
v -1.097977 2.342865 0.261221
v -1.097977 2.057136 0.261221
v -1.097977 2.057136 -0.261221
v -1.097977 2.342865 -0.261221
v -1.117658 2.240868 0.211997
v -1.117658 2.106359 0.211997
v -1.117658 2.106359 -0.211997
v -1.117658 2.240868 -0.211997
v -0.998994 2.240868 0.211997
v -1.047862 2.106359 0.211997
v -1.047862 2.106359 -0.211997
v -0.998994 2.240868 -0.211997
v -1.063141 2.579146 -0.900000
v -1.063141 2.579146 0.900000
v -1.063141 1.420854 0.900000
v -1.063141 1.420854 -0.900000
v -1.677326 2.354127 0.261221
v -1.677326 2.068398 0.261221
v -1.677326 2.068398 -0.261221
v -1.677326 2.354127 -0.261221
v -1.712162 2.354127 0.261221
v -1.712162 2.068398 0.261221
v -1.712162 2.068398 -0.261221
v -1.712162 2.354127 -0.261221
v -1.731843 2.252131 0.211997
v -1.731843 2.117622 0.211997
v -1.731843 2.117622 -0.211997
v -1.731843 2.252131 -0.211997
v -1.613179 2.252131 0.211997
v -1.662047 2.117622 0.211997
v -1.662047 2.117622 -0.211997
v -1.613179 2.252131 -0.211997
v -1.677326 2.590409 -0.900000
v -1.677326 2.590409 0.900000
v -1.677326 1.432117 0.900000
v -1.677326 1.432117 -0.900000
v -1.113026 0.000000 -1.000000
v -1.113026 0.000000 1.000000
v -1.113026 4.000000 1.000000
v -1.113026 4.000000 -1.000000
v -1.113026 0.200000 -0.900000
v -1.113026 0.200000 0.900000
v -1.113026 3.800000 0.900000
v -1.113026 3.800000 -0.900000
v -1.113026 2.579146 -0.900000
v -1.113026 2.620854 -0.900000
v -1.113026 2.620854 -1.000000
v -1.113026 2.579146 -1.000000
v -1.113026 2.620854 0.900000
v -1.113026 2.579146 0.900000
v -1.113026 2.579146 1.000000
v -1.113026 2.620854 1.000000
v -1.113026 1.420854 1.000000
v -1.113026 1.379146 1.000000
v -1.113026 1.379146 0.900000
v -1.113026 1.420854 0.900000
v -1.113026 1.420854 -0.900000
v -1.113026 1.379146 -0.900000
v -1.113026 1.379146 -1.000000
v -1.113026 1.420854 -1.000000
vn -0.0000 -1.0000 -0.0000
vn -0.0000 1.0000 -0.0000
vn -0.0000 -0.0000 -1.0000
vn -1.0000 -0.0000 -0.0000
vn -0.0000 -0.0000 1.0000
vn -0.9285 -0.0000 0.3713
vn -0.9285 -0.3713 -0.0000
vn -0.9819 0.1895 -0.0000
vn -0.9285 -0.0000 -0.3713
vn -0.9399 0.3415 -0.0000
vn 1.0000 -0.0000 -0.0000
vn -0.0183 -0.9998 -0.0000
vn 0.0183 0.9998 -0.0000
vt 0.430527 0.675256
vt 0.430527 0.574744
vt 0.125000 0.500000
vt 0.375000 0.500000
vt 0.375000 0.750000
vt 0.125000 0.750000
vt 0.625000 0.500000
vt 0.875000 0.500000
vt 0.875000 0.750000
vt 0.625000 0.750000
vt 0.501864 0.512215
vt 0.501864 0.737785
vt 0.618750 0.737500
vt 0.618750 0.512500
vt 0.500000 0.574744
vt 0.500000 0.675256
vt 0.569473 0.675256
vt 0.549277 0.675256
vt 0.569473 0.574744
vt 0.381250 0.737500
vt 0.381250 0.512500
vt 0.500000 0.584214
vt 0.500000 0.584214
vt 0.500000 0.665786
vt 0.500000 0.665786
vt 0.552756 0.584214
vt 0.565994 0.584214
vt 0.549277 0.574744
vt 0.500000 0.675256
vt 0.450723 0.574744
vt 0.450723 0.675256
vt 0.500000 0.574744
vt 0.552756 0.665786
vt 0.565994 0.665786
vt 0.447244 0.584214
vt 0.434006 0.584214
vt 0.434006 0.665786
vt 0.447244 0.665786
vt 0.500000 0.511833
vt 0.500000 0.738167
vt 0.498138 0.500000
vt 0.500000 0.737785
vt 0.501862 0.750000
vt 0.501862 1.000000
vt 0.500000 1.000000
vt 0.500000 0.750000
vt 0.501862 0.250000
vt 0.501862 0.500000
vt 0.500000 0.500000
vt 0.500000 0.250000
vt 0.501862 0.000000
vt 0.500000 0.000000
vt 0.498138 0.250000
vt 0.498138 0.000000
vt 0.498138 1.000000
vt 0.498138 0.750000
vt 0.625000 1.000000
vt 0.625000 0.000000
vt 0.625000 0.250000
vt 0.500000 0.512215
vt 0.375000 0.250000
vt 0.375000 0.000000
vt 0.375000 1.000000
vt 0.497163 0.511833
vt 0.497163 0.738167
s 0
f 24/1/1 21/2/1 46/2/1 47/1/1
f 3/3/1 10/4/1 11/5/1 1/6/1
f 9/7/2 4/8/2 2/9/2 12/10/2
f 69/11/2 72/12/2 134/12/2 137/11/2
f 6/13/1 8/14/1 131/14/1 132/13/1
f 18/15/2 19/16/2 44/16/2 41/15/2
f 15/17/3 16/18/3 39/18/3 40/17/3
f 8/14/4 6/13/4 15/17/4 14/19/4
f 5/20/4 7/21/4 21/2/4 24/1/4
f 30/22/3 29/23/3 53/23/3 54/22/3
f 32/24/5 31/25/5 55/25/5 56/24/5
f 26/26/3 25/27/3 49/27/3 50/26/3
f 13/28/5 14/19/5 37/19/5 38/28/5
f 19/16/3 20/29/3 43/29/3 44/16/3
f 22/30/2 23/31/2 48/31/2 45/30/2
f 16/18/1 13/28/1 38/28/1 39/18/1
f 17/32/5 18/15/5 41/15/5 42/32/5
f 23/31/3 24/1/3 47/1/3 48/31/3
f 14/19/2 15/17/2 40/17/2 37/19/2
f 20/29/1 17/32/1 42/32/1 43/29/1
f 21/2/5 22/30/5 45/30/5 46/2/5
f 25/27/6 26/26/6 38/28/6 37/19/6
f 26/26/7 27/33/7 39/18/7 38/28/7
f 28/34/8 25/27/8 37/19/8 40/17/8
f 27/33/9 28/34/9 40/17/9 39/18/9
f 43/29/2 42/32/2 90/32/2 91/29/2
f 18/15/2 17/32/2 86/32/2 85/15/2
f 42/32/2 41/15/2 89/15/2 90/32/2
f 56/24/2 55/25/2 99/25/2 100/24/2
f 33/35/6 34/36/6 46/2/6 45/30/6
f 34/36/7 35/37/7 47/1/7 46/2/7
f 36/38/8 33/35/8 45/30/8 48/31/8
f 35/37/9 36/38/9 48/31/9 47/1/9
f 50/26/10 49/27/10 52/34/10 51/33/10
f 70/39/2 71/40/2 101/40/2 102/39/2
f 58/36/10 57/35/10 60/38/10 59/37/10
f 36/38/5 35/37/5 59/37/5 60/38/5
f 27/33/2 26/26/2 50/26/2 51/33/2
f 34/36/3 33/35/3 57/35/3 58/36/3
f 31/25/2 30/22/2 54/22/2 55/25/2
f 25/27/1 28/34/1 52/34/1 49/27/1
f 35/37/2 34/36/2 58/36/2 59/37/2
f 29/23/1 32/24/1 56/24/1 53/23/1
f 28/34/5 27/33/5 51/33/5 52/34/5
f 33/35/1 36/38/1 60/38/1 57/35/1
f 10/4/5 76/41/5 142/41/5 126/4/5
f 81/42/5 71/40/5 133/40/5 145/42/5
f 67/43/3 61/44/3 62/45/3 68/46/3
f 7/21/2 5/20/2 129/20/2 130/21/2
f 64/47/5 66/48/5 65/49/5 63/50/5
f 61/51/11 64/47/11 63/50/11 62/52/11
f 84/52/11 73/50/11 74/53/11 83/54/11
f 73/50/5 75/49/5 76/41/5 74/53/5
f 67/43/3 68/46/3 136/46/3 135/43/3
f 78/46/3 84/45/3 83/55/3 77/56/3
f 72/12/5 6/13/5 132/13/5 134/12/5
f 76/41/5 75/49/5 141/49/5 142/41/5
f 67/43/3 12/10/3 2/57/3 61/44/3
f 84/52/11 62/52/11 63/50/11 73/50/11
f 61/51/11 2/58/11 4/59/11 64/47/11
f 78/46/3 68/46/3 62/45/3 84/45/3
f 64/47/5 4/59/5 9/7/5 66/48/5
f 73/50/5 63/50/5 65/49/5 75/49/5
f 70/39/3 80/60/3 144/60/3 138/39/3
f 77/56/3 11/5/3 125/5/3 147/56/3
f 8/14/3 69/11/3 137/11/3 131/14/3
f 78/46/3 77/56/3 147/56/3 148/46/3
f 69/11/4 8/14/4 14/19/4 13/28/4
f 53/23/2 56/24/2 100/24/2 97/23/2
f 72/12/4 69/11/4 13/28/4 16/18/4
f 81/42/2 80/60/2 103/60/2 104/42/2
f 6/13/4 72/12/4 16/18/4 15/17/4
f 31/25/2 32/24/2 96/24/2 95/25/2
f 3/61/5 74/53/5 76/41/5 10/4/5
f 1/62/11 83/54/11 74/53/11 3/61/11
f 9/7/2 12/10/2 128/10/2 127/7/2
f 12/10/3 67/43/3 135/43/3 128/10/3
f 11/5/3 77/56/3 83/55/3 1/63/3
f 7/21/4 79/64/4 22/30/4 21/2/4
f 79/64/4 82/65/4 23/31/4 22/30/4
f 55/25/2 54/22/2 98/22/2 99/25/2
f 82/65/4 5/20/4 24/1/4 23/31/4
f 103/60/5 102/39/5 122/39/5 123/60/5
f 92/16/3 91/29/3 111/29/3 112/16/3
f 104/42/12 103/60/12 123/60/12 124/42/12
f 89/15/13 92/16/13 112/16/13 109/15/13
f 102/39/13 101/40/13 121/40/13 122/39/13
f 91/29/12 90/32/12 110/32/12 111/29/12
f 100/24/3 99/25/3 119/25/3 120/24/3
f 90/32/5 89/15/5 109/15/5 110/32/5
f 95/25/5 96/24/5 116/24/5 115/25/5
f 29/23/2 30/22/2 94/22/2 93/23/2
f 17/32/2 20/29/2 87/29/2 86/32/2
f 80/60/2 70/39/2 102/39/2 103/60/2
f 41/15/2 44/16/2 92/16/2 89/15/2
f 19/16/2 18/15/2 85/15/2 88/16/2
f 30/22/2 31/25/2 95/25/2 94/22/2
f 44/16/2 43/29/2 91/29/2 92/16/2
f 54/22/2 53/23/2 97/23/2 98/22/2
f 20/29/2 19/16/2 88/16/2 87/29/2
f 32/24/2 29/23/2 93/23/2 96/24/2
f 71/40/2 81/42/2 104/42/2 101/40/2
f 113/23/6 114/22/6 110/32/6 109/15/6
f 114/22/7 115/25/7 111/29/7 110/32/7
f 116/24/8 113/23/8 109/15/8 112/16/8
f 115/25/9 116/24/9 112/16/9 111/29/9
f 118/22/10 117/23/10 120/24/10 119/25/10
f 122/39/4 121/40/4 108/16/4 105/15/4
f 123/60/4 122/39/4 105/15/4 106/32/4
f 121/40/4 124/42/4 107/29/4 108/16/4
f 124/42/4 123/60/4 106/32/4 107/29/4
f 85/15/3 86/32/3 106/32/3 105/15/3
f 93/23/3 94/22/3 114/22/3 113/23/3
f 101/40/3 104/42/3 124/42/3 121/40/3
f 86/32/13 87/29/13 107/29/13 106/32/13
f 98/22/5 97/23/5 117/23/5 118/22/5
f 94/22/13 95/25/13 115/25/13 114/22/13
f 88/16/12 85/15/12 105/15/12 108/16/12
f 99/25/12 98/22/12 118/22/12 119/25/12
f 96/24/12 93/23/12 113/23/12 116/24/12
f 87/29/5 88/16/5 108/16/5 107/29/5
f 97/23/13 100/24/13 120/24/13 117/23/13
f 130/21/4 129/20/4 125/5/4 126/4/4
f 132/13/4 131/14/4 127/7/4 128/10/4
f 134/12/4 135/43/4 136/46/4 133/40/4
f 138/39/4 139/49/4 140/48/4 137/11/4
f 137/11/4 134/12/4 133/40/4 138/39/4
f 144/60/4 145/42/4 146/65/4 143/64/4
f 145/42/4 148/46/4 147/56/4 146/65/4
f 143/64/4 142/41/4 141/49/4 144/60/4
f 131/14/4 137/11/4 140/48/4 127/7/4
f 138/39/4 144/60/4 141/49/4 139/49/4
f 134/12/4 132/13/4 128/10/4 135/43/4
f 145/42/4 133/40/4 136/46/4 148/46/4
f 143/64/4 130/21/4 126/4/4 142/41/4
f 129/20/4 146/65/4 147/56/4 125/5/4
f 80/60/2 81/42/2 145/42/2 144/60/2
f 68/46/3 78/46/3 148/46/3 136/46/3
f 71/40/1 70/39/1 138/39/1 133/40/1
f 66/48/5 9/7/5 127/7/5 140/48/5
f 79/64/3 7/21/3 130/21/3 143/64/3
f 11/5/1 10/4/1 126/4/1 125/5/1
f 82/65/1 79/64/1 143/64/1 146/65/1
f 75/49/5 65/49/5 139/49/5 141/49/5
f 65/49/5 66/48/5 140/48/5 139/49/5
f 5/20/5 82/65/5 146/65/5 129/20/5
