# Blender 5.1.1
# www.blender.org
mtllib FilingCabinet4.mtl
o FilingCabinet4
v 0.936859 0.000000 -0.998906
v 0.936859 4.000000 -0.998906
v 0.936859 0.000000 1.001094
v 0.936859 4.000000 1.001094
v -1.063141 0.200000 -0.898906
v -1.063141 3.800000 -0.898906
v -1.063141 0.200000 0.901094
v -1.063141 3.800000 0.901094
v -1.063141 4.000000 1.001094
v -1.063141 0.000000 1.001094
v -1.063141 0.000000 -0.998906
v -1.063141 4.000000 -0.998906
v -1.063141 3.257136 0.262315
v -1.063141 3.542865 0.262315
v -1.063141 3.542865 -0.260127
v -1.063141 3.257136 -0.260127
v -1.063141 2.057136 0.262315
v -1.063141 2.342865 0.262315
v -1.063141 2.342865 -0.260127
v -1.063141 2.057136 -0.260127
v -1.063141 0.857136 0.262315
v -2.263141 0.857136 0.262315
v -1.063141 1.142865 -0.260127
v -1.063141 0.857136 -0.260127
v -1.117658 3.440868 0.213091
v -1.117658 3.306360 0.213091
v -1.117658 3.306360 -0.210903
v -1.117658 3.440868 -0.210903
v -1.117658 2.240868 0.213091
v -1.117658 2.106359 0.213091
v -1.117658 2.106359 -0.210903
v -1.117658 2.240868 -0.210903
v -1.117658 1.040868 0.213091
v -1.117658 0.906359 0.213091
v -2.263141 1.142865 0.262315
v -1.117658 1.040868 -0.210903
v -1.097976 3.542865 0.262315
v -1.097976 3.257136 0.262315
v -1.097976 3.257136 -0.260127
v -1.097976 3.542865 -0.260127
v -1.097976 2.342865 0.262315
v -1.097976 2.057136 0.262315
v -1.097976 2.057136 -0.260127
v -1.097976 2.342865 -0.260127
v -2.263141 0.200000 0.901094
v -1.097976 0.857136 0.262315
v -1.097976 0.857136 -0.260127
v -1.097976 1.142865 -0.260127
v -0.998994 3.440868 0.213091
v -1.047861 3.306360 0.213091
v -1.047861 3.306360 -0.210903
v -0.998994 3.440868 -0.210903
v -0.998994 2.240868 0.213091
v -1.047861 2.106359 0.213091
v -1.047861 2.106359 -0.210903
v -0.998994 2.240868 -0.210903
v -0.998994 1.040868 0.213091
v -1.047861 0.906359 0.213091
v -2.263141 0.200000 -0.898906
v -0.998994 1.040868 -0.210903
v 0.936859 2.620854 -0.998906
v 0.936859 2.579146 -0.998906
v 0.936859 2.579146 1.001094
v 0.936859 2.620854 1.001094
v -1.063141 2.579146 1.001094
v -1.063141 2.620854 1.001094
v -1.063141 2.620854 -0.998906
v -1.063141 2.579146 -0.998906
v -1.063141 2.620854 0.901094
v -1.063141 2.579146 0.901094
v -1.063141 2.579146 -0.898906
v -1.063141 2.620854 -0.898906
v 0.936859 1.420854 1.001094
v 0.936859 1.379146 1.001094
v -1.063141 1.420854 1.001094
v -1.063141 1.379146 1.001094
v -1.063141 1.379146 -0.998906
v -1.063141 1.420854 -0.998906
v -1.063141 1.379146 0.901094
v -1.063141 1.420854 0.901094
v -1.063141 1.420854 -0.898906
v -1.063141 1.379146 -0.898906
v 0.936859 1.379146 -0.998906
v 0.936859 1.420854 -0.998906
v -1.063141 2.342865 0.262315
v -1.063141 2.057136 0.262315
v -1.063141 2.057136 -0.260127
v -1.063141 2.342865 -0.260127
v -1.097976 2.342865 0.262315
v -1.097976 2.057136 0.262315
v -1.097976 2.057136 -0.260127
v -1.097976 2.342865 -0.260127
v -1.117658 2.240868 0.213091
v -1.117658 2.106359 0.213091
v -1.117658 2.106359 -0.210903
v -1.117658 2.240868 -0.210903
v -0.998994 2.240868 0.213091
v -1.047861 2.106359 0.213091
v -1.047861 2.106359 -0.210903
v -0.998994 2.240868 -0.210903
v -1.063141 2.579146 -0.898906
v -1.063141 2.579146 0.901094
v -1.063141 1.420854 0.901094
v -1.063141 1.420854 -0.898906
v -1.677326 2.354128 0.262315
v -1.677326 2.068398 0.262315
v -1.677326 2.068398 -0.260127
v -1.677326 2.354128 -0.260127
v -1.712161 2.354128 0.262315
v -1.712161 2.068398 0.262315
v -1.712161 2.068398 -0.260127
v -1.712161 2.354128 -0.260127
v -1.731843 2.252131 0.213091
v -1.731843 2.117622 0.213091
v -1.731843 2.117622 -0.210903
v -1.731843 2.252131 -0.210903
v -1.613179 2.252131 0.213091
v -1.662047 2.117622 0.213091
v -1.662047 2.117622 -0.210903
v -1.613179 2.252131 -0.210903
v -1.677326 2.590409 -0.898906
v -1.677326 2.590409 0.901094
v -1.677326 1.432117 0.901094
v -1.677326 1.432117 -0.898906
v -1.063141 0.200000 -0.898906
v -1.063141 0.200000 0.901094
v -1.063141 0.857136 0.262315
v -1.063141 0.857136 -0.260127
v -1.063141 1.142865 -0.260127
v -1.097976 0.857136 0.262315
v -1.097976 0.857136 -0.260127
v -1.097976 1.142865 -0.260127
v -1.117658 1.040868 0.213091
v -1.117658 0.906359 0.213091
v -1.117658 1.040868 -0.210903
v -0.998994 1.040868 0.213091
v -1.047861 0.906359 0.213091
v -0.998994 1.040868 -0.210903
v -1.063141 1.379146 -0.898906
v -1.063141 1.379146 0.901094
v -2.263141 0.857136 -0.260127
v -2.263141 1.142865 -0.260127
v -2.297976 1.142865 0.262315
v -2.297976 0.857136 0.262315
v -2.297976 0.857136 -0.260127
v -2.297976 1.142865 -0.260127
v -2.317658 1.040868 0.213091
v -2.317658 0.906359 0.213091
v -2.317658 0.906359 -0.210903
v -2.317658 1.040868 -0.210903
v -2.198994 1.040868 0.213091
v -2.247861 0.906359 0.213091
v -2.247861 0.906359 -0.210903
v -2.198994 1.040868 -0.210903
v -2.263141 1.379146 -0.898906
v -2.263141 1.379146 0.901094
v -1.113025 0.000000 -0.998906
v -1.113025 0.000000 1.001094
v -1.113025 4.000000 1.001094
v -1.113025 4.000000 -0.998906
v -1.113025 0.200000 -0.898906
v -1.113025 0.200000 0.901094
v -1.113025 3.800000 0.901094
v -1.113025 3.800000 -0.898906
v -1.113025 2.579146 -0.898906
v -1.113025 2.620854 -0.898906
v -1.113025 2.620854 -0.998906
v -1.113025 2.579146 -0.998906
v -1.113025 2.620854 0.901094
v -1.113025 2.579146 0.901094
v -1.113025 2.579146 1.001094
v -1.113025 2.620854 1.001094
v -1.113025 1.420854 1.001094
v -1.113025 1.379146 1.001094
v -1.113025 1.379146 0.901094
v -1.113025 1.420854 0.901094
v -1.113025 1.420854 -0.898906
v -1.113025 1.379146 -0.898906
v -1.113025 1.379146 -0.998906
v -1.113025 1.420854 -0.998906
vn -0.0000 -1.0000 -0.0000
vn -0.0000 1.0000 -0.0000
vn -0.0000 -0.0000 1.0000
vn -0.0000 -0.0000 -1.0000
vn -1.0000 -0.0000 -0.0000
vn -0.9285 -0.0000 0.3713
vn -0.9285 -0.3713 -0.0000
vn -0.9819 0.1895 -0.0000
vn -0.9285 -0.0000 -0.3713
vn -0.9399 0.3415 -0.0000
vn 1.0000 -0.0000 -0.0000
vn 0.0183 0.9998 -0.0000
vn -0.0183 -0.9998 -0.0000
vt 0.430527 0.675256
vt 0.430527 0.574744
vt 0.125000 0.500000
vt 0.375000 0.500000
vt 0.375000 0.750000
vt 0.125000 0.750000
vt 0.625000 0.500000
vt 0.875000 0.500000
vt 0.875000 0.750000
vt 0.625000 0.750000
vt 0.500000 0.500000
vt 0.501862 0.500000
vt 0.500000 0.574744
vt 0.500000 0.675256
vt 0.569473 0.675256
vt 0.549277 0.675256
vt 0.618750 0.512500
vt 0.618750 0.737500
vt 0.569473 0.574744
vt 0.381250 0.737500
vt 0.381250 0.512500
vt 0.500000 0.584214
vt 0.500000 0.584214
vt 0.500000 0.665786
vt 0.500000 0.665786
vt 0.552756 0.584214
vt 0.565994 0.584214
vt 0.549277 0.574744
vt 0.500000 0.675256
vt 0.447244 0.584214
vt 0.447244 0.665786
vt 0.500000 0.574744
vt 0.450723 0.675256
vt 0.552756 0.665786
vt 0.565994 0.665786
vt 0.500000 0.738167
vt 0.500000 0.737785
vt 0.434006 0.584214
vt 0.497163 0.738167
vt 0.497163 0.511833
vt 0.501862 0.750000
vt 0.501862 1.000000
vt 0.500000 1.000000
vt 0.500000 0.750000
vt 0.501862 0.250000
vt 0.500000 0.250000
vt 0.501862 0.000000
vt 0.500000 0.000000
vt 0.498138 0.250000
vt 0.498138 0.000000
vt 0.498138 0.500000
vt 0.498138 1.000000
vt 0.498138 0.750000
vt 0.500000 0.511833
vt 0.625000 1.000000
vt 0.625000 0.000000
vt 0.625000 0.250000
vt 0.500000 0.512215
vt 0.501864 0.512215
vt 0.501864 0.737785
vt 0.375000 0.250000
vt 0.375000 0.000000
vt 0.375000 1.000000
vt 0.450723 0.574744
vt 0.434006 0.665786
s 0
f 24/1/1 21/2/1 46/2/1 47/1/1
f 3/3/1 10/4/1 11/5/1 1/6/1
f 9/7/2 4/8/2 2/9/2 12/10/2
f 65/11/3 66/12/3 172/12/3 171/11/3
f 75/11/3 65/11/3 171/11/3 173/11/3
f 18/13/2 19/14/2 44/14/2 41/13/2
f 15/15/4 16/16/4 39/16/4 40/15/4
f 8/17/5 6/18/5 15/15/5 14/19/5
f 5/20/2 7/21/2 126/21/2 125/20/2
f 30/22/4 29/23/4 53/23/4 54/22/4
f 32/24/3 31/25/3 55/25/3 56/24/3
f 26/26/4 25/27/4 49/27/4 50/26/4
f 13/28/3 14/19/3 37/19/3 38/28/3
f 19/14/4 20/29/4 43/29/4 44/14/4
f 57/30/2 60/31/2 138/31/2 136/30/2
f 16/16/1 13/28/1 38/28/1 39/16/1
f 17/32/3 18/13/3 41/13/3 42/32/3
f 23/33/4 24/1/4 47/1/4 48/33/4
f 14/19/2 15/15/2 40/15/2 37/19/2
f 20/29/1 17/32/1 42/32/1 43/29/1
f 23/33/2 48/33/2 132/33/2 129/33/2
f 25/27/6 26/26/6 38/28/6 37/19/6
f 26/26/7 27/34/7 39/16/7 38/28/7
f 28/35/8 25/27/8 37/19/8 40/15/8
f 27/34/9 28/35/9 40/15/9 39/16/9
f 31/25/2 32/24/2 96/24/2 95/25/2
f 55/25/2 54/22/2 98/22/2 99/25/2
f 71/36/2 81/37/2 104/37/2 101/36/2
f 32/24/2 29/23/2 93/23/2 96/24/2
f 36/31/2 33/30/2 133/30/2 135/31/2
f 24/1/2 23/33/2 129/33/2 128/1/2
f 58/38/2 57/30/2 136/30/2 137/38/2
f 82/39/2 5/20/2 125/20/2 139/39/2
f 50/26/10 49/27/10 52/35/10 51/34/10
f 20/29/2 19/14/2 88/14/2 87/29/2
f 79/40/2 82/39/2 139/39/2 140/40/2
f 48/33/2 47/1/2 131/1/2 132/33/2
f 27/34/2 26/26/2 50/26/2 51/34/2
f 34/38/4 33/30/4 57/30/4 58/38/4
f 31/25/2 30/22/2 54/22/2 55/25/2
f 25/27/1 28/35/1 52/35/1 49/27/1
f 34/38/2 58/38/2 137/38/2 134/38/2
f 29/23/1 32/24/1 56/24/1 53/23/1
f 28/35/3 27/34/3 51/34/3 52/35/3
f 33/30/1 36/31/1 60/31/1 57/30/1
f 82/39/1 79/40/1 175/40/1 178/39/1
f 11/5/1 10/4/1 158/4/1 157/5/1
f 67/41/4 61/42/4 62/43/4 68/44/4
f 79/40/4 7/21/4 162/21/4 175/40/4
f 64/45/3 66/12/3 65/11/3 63/46/3
f 61/47/11 64/45/11 63/46/11 62/48/11
f 84/48/11 73/46/11 74/49/11 83/50/11
f 73/46/3 75/11/3 76/51/3 74/49/3
f 66/12/3 9/7/3 159/7/3 172/12/3
f 78/44/4 84/43/4 83/52/4 77/53/4
f 71/36/1 70/54/1 170/54/1 165/36/1
f 68/44/4 78/44/4 180/44/4 168/44/4
f 67/41/4 12/10/4 2/55/4 61/42/4
f 84/48/11 62/48/11 63/46/11 73/46/11
f 61/47/11 2/56/11 4/57/11 64/45/11
f 78/44/4 68/44/4 62/43/4 84/43/4
f 64/45/3 4/57/3 9/7/3 66/12/3
f 73/46/3 63/46/3 65/11/3 75/11/3
f 80/58/2 81/37/2 177/37/2 176/58/2
f 69/59/2 72/60/2 166/60/2 169/59/2
f 6/18/1 8/17/1 163/17/1 164/18/1
f 10/4/3 76/51/3 174/51/3 158/4/3
f 69/59/5 8/17/5 14/19/5 13/28/5
f 54/22/2 53/23/2 97/23/2 98/22/2
f 72/60/5 69/59/5 13/28/5 16/16/5
f 44/14/2 43/29/2 91/29/2 92/14/2
f 6/18/5 72/60/5 16/16/5 15/15/5
f 30/22/2 31/25/2 95/25/2 94/22/2
f 3/61/3 74/49/3 76/51/3 10/4/3
f 1/62/11 83/50/11 74/49/11 3/61/11
f 81/37/3 71/36/3 165/36/3 177/37/3
f 7/21/2 5/20/2 161/20/2 162/21/2
f 11/5/4 77/53/4 83/52/4 1/63/4
f 7/21/2 79/40/2 140/40/2 126/21/2
f 21/2/2 24/1/2 128/1/2 127/2/2
f 19/14/2 18/13/2 85/13/2 88/14/2
f 33/30/2 34/38/2 134/38/2 133/30/2
f 100/24/4 99/25/4 119/25/4 120/24/4
f 90/32/3 89/13/3 109/13/3 110/32/3
f 95/25/3 96/24/3 116/24/3 115/25/3
f 97/23/12 100/24/12 120/24/12 117/23/12
f 87/29/3 88/14/3 108/14/3 107/29/3
f 96/24/13 93/23/13 113/23/13 116/24/13
f 99/25/13 98/22/13 118/22/13 119/25/13
f 88/14/13 85/13/13 105/13/13 108/14/13
f 94/22/12 95/25/12 115/25/12 114/22/12
f 81/37/2 80/58/2 103/58/2 104/37/2
f 53/23/2 56/24/2 100/24/2 97/23/2
f 70/54/2 71/36/2 101/36/2 102/54/2
f 56/24/2 55/25/2 99/25/2 100/24/2
f 42/32/2 41/13/2 89/13/2 90/32/2
f 18/13/2 17/32/2 86/32/2 85/13/2
f 43/29/2 42/32/2 90/32/2 91/29/2
f 17/32/2 20/29/2 87/29/2 86/32/2
f 29/23/2 30/22/2 94/22/2 93/23/2
f 80/58/2 70/54/2 102/54/2 103/58/2
f 41/13/2 44/14/2 92/14/2 89/13/2
f 113/23/6 114/22/6 110/32/6 109/13/6
f 114/22/7 115/25/7 111/29/7 110/32/7
f 116/24/8 113/23/8 109/13/8 112/14/8
f 115/25/9 116/24/9 112/14/9 111/29/9
f 118/22/10 117/23/10 120/24/10 119/25/10
f 122/54/5 121/36/5 108/14/5 105/13/5
f 123/58/5 122/54/5 105/13/5 106/32/5
f 121/36/5 124/37/5 107/29/5 108/14/5
f 124/37/5 123/58/5 106/32/5 107/29/5
f 91/29/13 90/32/13 110/32/13 111/29/13
f 102/54/12 101/36/12 121/36/12 122/54/12
f 89/13/12 92/14/12 112/14/12 109/13/12
f 104/37/13 103/58/13 123/58/13 124/37/13
f 92/14/4 91/29/4 111/29/4 112/14/4
f 103/58/3 102/54/3 122/54/3 123/58/3
f 85/13/4 86/32/4 106/32/4 105/13/4
f 93/23/4 94/22/4 114/22/4 113/23/4
f 101/36/4 104/37/4 124/37/4 121/36/4
f 86/32/12 87/29/12 107/29/12 106/32/12
f 98/22/3 97/23/3 117/23/3 118/22/3
f 139/39/4 125/20/4 59/20/4 155/39/4
f 135/31/1 133/30/1 147/30/1 150/31/1
f 131/1/1 130/2/1 144/2/1 145/1/1
f 126/21/3 140/40/3 156/40/3 45/21/3
f 125/20/1 126/21/1 45/21/1 59/20/1
f 137/38/3 136/30/3 151/30/3 152/38/3
f 140/40/2 139/39/2 155/39/2 156/40/2
f 133/30/4 134/38/4 148/38/4 147/30/4
f 134/38/2 137/38/2 152/38/2 148/38/2
f 138/31/2 135/31/2 150/31/2 154/31/2
f 129/33/1 132/33/1 146/33/1 142/33/1
f 128/1/3 129/33/3 142/33/3 141/1/3
f 130/2/2 127/2/2 22/2/2 144/2/2
f 60/31/2 36/31/2 135/31/2 138/31/2
f 46/2/2 21/2/2 127/2/2 130/2/2
f 47/1/2 46/2/2 130/2/2 131/1/2
f 59/20/5 45/21/5 22/2/5 141/1/5
f 35/64/2 142/33/2 146/33/2 143/64/2
f 22/2/3 35/64/3 143/64/3 144/2/3
f 147/30/6 148/38/6 144/2/6 143/64/6
f 148/38/7 149/65/7 145/1/7 144/2/7
f 150/31/8 147/30/8 143/64/8 146/33/8
f 149/65/9 150/31/9 146/33/9 145/1/9
f 152/38/10 151/30/10 154/31/10 153/65/10
f 150/31/3 149/65/3 153/65/3 154/31/3
f 149/65/2 148/38/2 152/38/2 153/65/2
f 45/21/5 156/40/5 35/64/5 22/2/5
f 156/40/5 155/39/5 142/33/5 35/64/5
f 155/39/5 59/20/5 141/1/5 142/33/5
f 136/30/2 138/31/2 154/31/2 151/30/2
f 127/2/2 128/1/2 141/1/2 22/2/2
f 132/33/4 131/1/4 145/1/4 146/33/4
f 162/21/5 161/20/5 157/5/5 158/4/5
f 164/18/5 163/17/5 159/7/5 160/10/5
f 166/60/5 167/41/5 168/44/5 165/36/5
f 170/54/5 171/11/5 172/12/5 169/59/5
f 169/59/5 166/60/5 165/36/5 170/54/5
f 176/58/5 177/37/5 178/39/5 175/40/5
f 177/37/5 180/44/5 179/53/5 178/39/5
f 175/40/5 174/51/5 173/11/5 176/58/5
f 163/17/5 169/59/5 172/12/5 159/7/5
f 170/54/5 176/58/5 173/11/5 171/11/5
f 166/60/5 164/18/5 160/10/5 167/41/5
f 177/37/5 165/36/5 168/44/5 180/44/5
f 175/40/5 162/21/5 158/4/5 174/51/5
f 161/20/5 178/39/5 179/53/5 157/5/5
f 5/20/3 82/39/3 178/39/3 161/20/3
f 12/10/4 67/41/4 167/41/4 160/10/4
f 9/7/2 12/10/2 160/10/2 159/7/2
f 78/44/4 77/53/4 179/53/4 180/44/4
f 8/17/4 69/59/4 169/59/4 163/17/4
f 77/53/4 11/5/4 157/5/4 179/53/4
f 70/54/4 80/58/4 176/58/4 170/54/4
f 76/51/3 75/11/3 173/11/3 174/51/3
f 72/60/3 6/18/3 164/18/3 166/60/3
f 67/41/4 68/44/4 168/44/4 167/41/4
