# Blender 5.1.0
# www.blender.org
mtllib FloorScaffold.mtl
o ScaffoldRim
v 1.054101 -0.088509 -4.980761
v -1.388890 -0.088509 -4.980761
v 1.054101 -0.088509 4.980761
v -1.388890 -0.088509 4.980761
v -1.284994 -0.088509 -4.876865
v 0.950205 -0.088509 -4.876865
v 0.950205 -0.088509 4.876865
v -1.284994 -0.088509 4.876865
v -1.284994 0.108879 -4.876865
v 0.950205 0.108879 -4.876865
v 0.950205 0.108879 4.876865
v -1.284994 0.108879 4.876865
v -1.388890 0.108879 -4.980761
v 1.054101 0.108879 -4.980761
v 1.054101 0.108879 4.980761
v -1.388890 0.108879 4.980761
v -1.284994 -0.088509 0.379643
v -1.284994 -0.088509 3.050430
v -1.388890 -0.088509 0.379643
v -1.388890 -0.088509 3.050430
v -1.284994 0.108879 0.379643
v -1.284994 0.108879 3.050430
v -1.388890 0.108879 0.379643
v -1.388890 0.108879 3.050430
v 0.950205 0.042209 4.876865
v -1.284994 0.042209 4.876865
v -1.284994 0.042209 -4.876865
v 0.950205 0.042209 -4.876865
v 0.950205 -0.019664 4.876865
v -1.284994 -0.019664 4.876865
v -1.284994 -0.019664 -4.876865
v 0.950205 -0.019664 -4.876865
v 0.950205 0.042209 0.379643
v 0.950205 0.042209 3.050430
v -1.284994 0.042209 3.050430
v -1.284994 0.042209 0.379642
v 0.950205 -0.019664 0.379643
v 0.950205 -0.019664 3.050430
v -1.284994 -0.019664 3.050430
v -1.284994 -0.019664 0.379642
v 1.054101 -0.088509 -4.980761
v 1.054101 -0.088509 4.980761
v 1.054101 0.108879 -4.980761
v 1.054101 0.108879 4.980761
v 2.000000 -0.088509 -4.980761
v 2.000000 -0.088509 4.980761
v 2.000000 0.108879 -4.980761
v 2.000000 0.108879 4.980761
vn -0.0000 1.0000 -0.0000
vn -0.0000 -1.0000 -0.0000
vn -0.0000 -0.0000 -1.0000
vn -1.0000 -0.0000 -0.0000
vn 1.0000 -0.0000 -0.0000
vn -0.0000 -0.0000 1.0000
vt 0.000000 0.000000
s 0
f 10/1/1 14/1/1 13/1/1 9/1/1
f 6/1/2 5/1/2 2/1/2 1/1/2
f 7/1/2 6/1/2 1/1/2 3/1/2
f 8/1/2 7/1/2 3/1/2 4/1/2
f 18/1/2 8/1/2 4/1/2 20/1/2
f 11/1/1 15/1/1 14/1/1 10/1/1
f 12/1/1 16/1/1 15/1/1 11/1/1
f 22/1/1 24/1/1 16/1/1 12/1/1
f 2/1/3 13/1/3 14/1/3 1/1/3
f 8/1/3 12/1/3 11/1/3 7/1/3
f 19/1/4 23/1/4 13/1/4 2/1/4
f 1/1/5 14/1/5 15/1/5 3/1/5
f 6/1/6 10/1/6 9/1/6 5/1/6
f 18/1/5 22/1/5 12/1/5 8/1/5
f 3/1/6 15/1/6 16/1/6 4/1/6
f 7/1/4 11/1/4 10/1/4 6/1/4
f 5/1/5 9/1/5 21/1/5 17/1/5
f 4/1/4 16/1/4 24/1/4 20/1/4
f 9/1/1 13/1/1 23/1/1 21/1/1
f 18/1/3 20/1/3 24/1/3 22/1/3
f 5/1/2 17/1/2 19/1/2 2/1/2
f 17/1/6 21/1/6 23/1/6 19/1/6
f 34/1/1 35/1/1 26/1/1 25/1/1
f 38/1/2 29/1/2 30/1/2 39/1/2
f 28/1/3 32/1/3 31/1/3 27/1/3
f 33/1/5 37/1/5 32/1/5 28/1/5
f 26/1/6 30/1/6 29/1/6 25/1/6
f 35/1/4 39/1/4 30/1/4 26/1/4
f 27/1/4 31/1/4 40/1/4 36/1/4
f 35/1/3 34/1/3 38/1/3 39/1/3
f 25/1/5 29/1/5 38/1/5 34/1/5
f 36/1/6 40/1/6 37/1/6 33/1/6
f 32/1/2 37/1/2 40/1/2 31/1/2
f 28/1/1 27/1/1 36/1/1 33/1/1
f 41/1/4 42/1/4 44/1/4 43/1/4
f 45/1/5 47/1/5 48/1/5 46/1/5
f 44/1/6 42/1/6 46/1/6 48/1/6
f 43/1/1 44/1/1 48/1/1 47/1/1
f 41/1/3 43/1/3 47/1/3 45/1/3
f 42/1/2 41/1/2 45/1/2 46/1/2
