# Blender 5.1.1
# www.blender.org
mtllib Folders.mtl
o Folders
v 0.600000 1.400000 -0.383267
v 0.600000 -0.000000 -0.383267
v 0.600000 1.400000 -0.486733
v 0.600000 -0.000000 -0.486733
v -0.600000 1.400000 -0.335000
v -0.600000 0.000000 -0.335000
v -0.600000 0.000000 -0.535000
v -0.600000 1.400000 -0.535000
v 0.600000 1.400000 -0.163268
v 0.600000 -0.000000 -0.163268
v 0.600000 1.400000 -0.266734
v 0.600000 -0.000000 -0.266734
v -0.600000 1.400000 -0.115001
v -0.600000 0.000000 -0.115001
v -0.600000 0.000000 -0.315001
v -0.600000 1.400000 -0.315001
v 0.600000 1.400000 0.056734
v 0.600000 -0.000000 0.056734
v 0.600000 1.400000 -0.046733
v 0.600000 -0.000000 -0.046733
v -0.600000 1.400000 0.105001
v -0.600000 0.000000 0.105001
v -0.600000 0.000000 -0.094999
v -0.600000 1.400000 -0.094999
v 0.600000 1.400000 0.496734
v 0.600000 -0.000000 0.496734
v 0.600000 1.400000 0.393268
v 0.600000 -0.000000 0.393268
v -0.600000 1.400000 0.545001
v -0.600000 0.000000 0.545001
v -0.600000 0.000000 0.345001
v -0.600000 1.400000 0.345001
v 0.600000 1.400000 0.276733
v 0.600000 -0.000000 0.276733
v 0.600000 1.400000 0.173267
v 0.600000 -0.000000 0.173267
v -0.600000 1.400000 0.325000
v -0.600000 0.000000 0.325000
v -0.600000 0.000000 0.125000
v -0.600000 1.400000 0.125000
vn -0.0402 -0.0000 0.9992
vn -0.0402 -0.0000 -0.9992
vn 1.0000 -0.0000 -0.0000
vt 0.000000 0.500000
vt 1.000000 0.500000
vt 1.000000 1.000000
vt 0.000000 1.000000
vt 0.000000 0.000000
vt 1.000000 0.000000
s 0
f 8/1/1 7/2/1 4/3/1 3/4/1
f 1/5/2 2/6/2 6/2/2 5/1/2
f 5/1/3 6/2/3 7/2/3 8/1/3
f 16/1/1 15/2/1 12/3/1 11/4/1
f 9/5/2 10/6/2 14/2/2 13/1/2
f 13/1/3 14/2/3 15/2/3 16/1/3
f 24/1/1 23/2/1 20/3/1 19/4/1
f 17/5/2 18/6/2 22/2/2 21/1/2
f 21/1/3 22/2/3 23/2/3 24/1/3
f 32/1/1 31/2/1 28/3/1 27/4/1
f 25/5/2 26/6/2 30/2/2 29/1/2
f 29/1/3 30/2/3 31/2/3 32/1/3
f 40/1/1 39/2/1 36/3/1 35/4/1
f 33/5/2 34/6/2 38/2/2 37/1/2
f 37/1/3 38/2/3 39/2/3 40/1/3
