# Blender 5.1.1
# www.blender.org
mtllib Folder.mtl
o Folder
v 0.700000 0.151733 0.600000
v -0.700000 0.151733 0.600000
v 0.700000 0.048267 0.600000
v -0.700000 0.048267 0.600000
v 0.700000 0.200000 -0.600000
v -0.700000 0.200000 -0.600000
v -0.700000 0.000000 -0.600000
v 0.700000 0.000000 -0.600000
vn -0.0000 0.9992 -0.0402
vn -0.0000 -0.9992 -0.0402
vn -0.0000 -0.0000 1.0000
vt 0.000000 0.500000
vt 1.000000 0.500000
vt 1.000000 1.000000
vt 0.000000 1.000000
vt 0.000000 0.000000
vt 1.000000 0.000000
s 0
f 8/1/1 7/2/1 4/3/1 3/4/1
f 1/5/2 2/6/2 6/2/2 5/1/2
f 5/1/3 6/2/3 7/2/3 8/1/3
