# Blender 5.1.2
# www.blender.org
mtllib GunPodiumGun.mtl
o GunPodiumGun
v -0.022676 1.437398 0.061959
v 0.157424 1.783517 -0.110583
v -0.103499 1.539776 0.042677
v 0.029836 1.664331 -0.035641
v 0.093630 1.723924 -0.073112
v 0.041625 1.497464 0.024190
v -0.033957 1.604738 0.001830
v -0.063391 1.491063 0.051461
v 0.000403 1.550656 0.013990
v 0.081724 1.800815 -0.099149
v -0.143574 1.590354 0.033186
v -0.015986 1.709539 -0.041756
v 0.047807 1.769132 -0.079227
v -0.079780 1.649946 -0.004285
v -0.053965 1.506001 0.091263
v -0.013250 1.452335 0.101761
v -0.134148 1.605291 0.072988
v -0.094074 1.554713 0.082479
v 0.103055 1.738861 -0.033310
v 0.166849 1.798454 -0.070781
v -0.024532 1.619676 0.041632
v 0.039262 1.679268 0.004161
v 0.051050 1.512401 0.063992
v 0.009828 1.565593 0.053792
v 0.091150 1.815753 -0.059347
v -0.006561 1.724476 -0.001954
v 0.057233 1.784069 -0.039425
v -0.070355 1.664884 0.035517
v -0.129962 1.558047 0.042087
v 0.149569 1.803850 -0.116354
v 0.007453 1.686414 -0.038628
v 0.071247 1.746007 -0.076099
v -0.056340 1.626821 -0.001157
v -0.120537 1.572984 0.081889
v 0.158994 1.818787 -0.076552
v 0.016879 1.701351 0.001174
v 0.080672 1.760944 -0.036297
v -0.046915 1.641758 0.038645
v 0.014974 1.460659 0.044314
v -0.065854 1.574942 0.020565
v -0.031494 1.520860 0.032725
v -0.111677 1.620150 0.014450
v 0.024400 1.475597 0.084116
v -0.056429 1.589879 0.060367
v -0.022069 1.535797 0.072527
v -0.102251 1.635087 0.054252
v -0.078812 1.611962 0.057380
v -0.088237 1.597025 0.017578
v 0.005463 1.572467 0.023245
v 0.007513 1.575716 0.031902
v -0.013497 1.608785 0.024467
v -0.015547 1.605536 0.015810
v -0.066645 1.490423 0.071110
v -0.064595 1.493672 0.079768
v -0.020902 1.437069 0.090664
v -0.022952 1.433820 0.082006
v -0.012299 1.715383 -0.026184
v -0.010249 1.718632 -0.017527
v -0.074042 1.659039 0.019944
v -0.076092 1.655791 0.011287
v -0.106753 1.539135 0.062327
v -0.104703 1.542385 0.070984
v -0.139886 1.596198 0.048758
v -0.137836 1.599447 0.057415
v 0.085412 1.806660 -0.083577
v 0.087462 1.809909 -0.074920
v 0.053545 1.778225 -0.054998
v 0.051495 1.774976 -0.063655
v 0.050954 1.502860 0.038595
v 0.053004 1.506109 0.047252
v 0.097318 1.729768 -0.057540
v 0.099368 1.733017 -0.048883
v 0.164394 1.794564 -0.081147
v 0.159878 1.787407 -0.100218
v 0.035574 1.673424 -0.011412
v 0.033524 1.670175 -0.020069
v 0.152024 1.807740 -0.105989
v 0.156540 1.814897 -0.086917
v -0.133217 1.557407 0.061737
v -0.131167 1.560656 0.070394
v 0.021639 1.463566 0.060283
v 0.023689 1.466815 0.068941
v -0.107989 1.625994 0.030023
v -0.105939 1.629243 0.038680
v 0.026166 1.592886 0.010679
v 0.028216 1.596135 0.019337
v 0.018360 1.621509 0.012148
v 0.016310 1.618260 0.003491
v 0.112999 1.719356 -0.057346
v 0.115049 1.722605 -0.048688
v 0.166107 1.770301 -0.078679
v 0.164057 1.767053 -0.087336
v 0.051255 1.663013 -0.011217
v 0.049205 1.659764 -0.019875
v -0.185555 1.589888 0.061941
v -0.183505 1.593137 0.070598
v -0.153658 1.619684 0.043205
v -0.151608 1.622933 0.051863
v -0.122402 1.631680 0.041664
v -0.124452 1.628431 0.033007
v -0.173992 1.582154 0.062105
v -0.171942 1.585403 0.070762
v 0.145282 1.815167 -0.119586
v 0.121843 1.838292 -0.122714
v 0.154708 1.830104 -0.079784
v 0.131268 1.853229 -0.082912
v 0.127580 1.847385 -0.098484
v 0.152253 1.826214 -0.090149
v 0.125530 1.844136 -0.107142
v 0.147737 1.819057 -0.109221
v 0.008805 1.562238 0.036654
v 0.039982 1.593126 0.017680
v -0.030270 1.610583 0.017402
v 0.021810 1.631383 -0.002737
v 0.006755 1.558989 0.027997
v -0.028219 1.613832 0.026059
v 0.037931 1.589877 0.009022
v 0.023860 1.634632 0.005921
v -0.016777 1.577697 0.007910
v -0.083445 1.515420 0.047069
v -0.007352 1.592634 0.047712
v -0.074020 1.530357 0.086871
v -0.039249 1.562838 0.066447
v -0.048674 1.547901 0.026645
v -0.086699 1.514779 0.066719
v -0.084649 1.518028 0.075376
v -0.013089 1.583541 0.023482
v -0.011039 1.586790 0.032139
v -0.005042 1.589002 0.019527
v -0.002992 1.592250 0.028184
v 0.095913 1.802935 -0.103305
v -0.010390 1.704018 -0.041009
v 0.053524 1.763491 -0.078464
v -0.074304 1.644544 -0.003554
v 0.105338 1.817872 -0.063503
v -0.000965 1.718955 -0.001207
v 0.062949 1.778428 -0.038662
v -0.064879 1.659481 0.036248
v -0.140486 1.582960 0.035229
v -0.131061 1.597897 0.075031
v -0.096836 1.629744 0.054975
v -0.106261 1.614807 0.015173
v -0.143740 1.582320 0.054879
v -0.141690 1.585569 0.063536
v 0.127699 1.832513 -0.121932
v 0.137124 1.847450 -0.082130
v 0.130154 1.836403 -0.111567
v 0.134670 1.843560 -0.092495
v 0.170765 1.800589 -0.084916
v 0.166249 1.793432 -0.103988
v 0.158394 1.813765 -0.109758
v 0.162910 1.820922 -0.090687
v 0.154107 1.825082 -0.112990
v 0.158624 1.832239 -0.093919
v 0.136066 1.842882 -0.115398
v 0.140582 1.850039 -0.096327
vn -0.2165 -0.3430 -0.9140
vn -0.2164 -0.3430 -0.9140
vn 0.2164 0.3430 0.9140
vn 0.8084 0.5259 -0.2643
vn -0.5564 -0.2737 0.7845
vn -0.7087 0.6992 -0.0946
vn -0.5272 -0.2901 0.7987
vn -0.9139 0.1737 0.3668
vn 0.7928 0.5916 -0.1467
vn 0.7087 -0.6992 0.0946
vn 0.9120 0.2630 -0.3147
vn 0.6246 -0.6648 0.4097
vn -0.3407 -0.4671 0.8160
vn 0.2165 0.3430 0.9140
vn 0.8405 -0.4765 0.2578
vn -0.3575 0.8991 -0.2527
vn 0.7305 -0.6508 -0.2068
vn 0.8088 -0.5874 0.0289
vn -0.5623 -0.8182 -0.1198
vn -0.5255 -0.7481 0.4052
vn 0.5027 -0.8580 -0.1052
vn 0.5989 -0.7860 0.1531
vn -0.1348 -0.4600 -0.8776
vn 0.9684 0.0434 -0.2456
vn 0.7266 -0.6819 0.0838
vn 0.6887 0.4266 -0.5863
vn 0.7607 0.5276 -0.3781
vn -0.9992 0.0386 0.0066
vn -0.9447 0.3098 0.1075
vn -0.7508 -0.6444 -0.1453
vn -0.7462 -0.5456 0.3815
vn -0.7741 -0.6186 -0.1346
vn -0.7670 -0.5195 0.3766
vn 0.7592 0.4478 -0.4723
vn 0.7399 -0.6685 0.0757
vn 0.9114 0.2647 -0.3152
vn 0.4350 -0.8721 0.2243
vn 0.2934 0.2186 0.9307
vn -0.9114 -0.2647 0.3152
vn -0.5122 -0.7572 0.4054
vn 0.4440 -0.8684 0.2208
vn 0.0712 0.9282 -0.3652
vn 0.6715 0.6273 -0.3944
vn 0.9143 0.2570 -0.3130
vn 0.8219 0.4412 -0.3602
vn -0.7253 0.6832 -0.0847
vn 0.6716 0.6272 -0.3944
vn -0.9005 -0.2916 0.3227
vn -0.8924 -0.4214 -0.1615
vn -0.6823 -0.0884 0.7257
vn -0.7561 0.6512 -0.0654
vn 0.7125 -0.6956 0.0923
vt 0.343750 0.595216
vt 0.375000 0.595216
vt 0.375000 0.625654
vt 0.343750 0.625654
vt 0.343750 0.500000
vt 0.375000 0.500000
vt 0.375000 0.564777
vt 0.343750 0.564777
vt 0.250000 0.680503
vt 0.312500 0.680503
vt 0.312500 0.687827
vt 0.250000 0.687827
vt 0.125000 0.680503
vt 0.187500 0.680503
vt 0.187500 0.687827
vt 0.125000 0.687827
vt 0.343750 0.680503
vt 0.375000 0.680503
vt 0.375000 0.687827
vt 0.343750 0.687827
vt 0.375000 0.595216
vt 0.125000 0.680503
vt 0.375000 0.680503
vt 0.312500 0.595216
vt 0.312500 0.595216
vt 0.312500 0.564777
vt 0.375000 0.500000
vt 0.375000 0.564777
vt 0.312500 0.687827
vt 0.375000 0.595216
vt 0.375000 0.625654
vt 0.375000 0.680503
vt 0.187500 0.687827
vt 0.312500 0.500000
vt 0.125000 0.625654
vt 0.125000 0.625654
vt 0.187500 0.625654
vt 0.187500 0.625654
vt 0.250000 0.625654
vt 0.250000 0.625654
vt 0.312500 0.625654
vt 0.312500 0.625654
vt 0.343750 0.687827
vt 0.125000 0.656024
vt 0.343750 0.500000
vt 0.375000 0.656024
vt 0.343750 0.656024
vt 0.187500 0.656024
vt 0.250000 0.656024
vt 0.312500 0.656024
vt 0.312500 0.595215
vt 0.343750 0.687827
vt 0.343750 0.687827
vt 0.343750 0.687827
vt 0.343750 0.500000
vt 0.125000 0.656024
vt 0.125000 0.625654
vt 0.250000 0.625654
vt 0.125000 0.680503
vt 0.250000 0.687827
vt 0.375000 0.564777
vt 0.312500 0.595215
vt 0.312500 0.612875
vt 0.312500 0.612875
vt 0.312500 0.614971
vt 0.312500 0.577956
vt 0.375000 0.687827
vt 0.125000 0.680503
vt 0.125000 0.680503
vt 0.312500 0.575703
vt 0.312500 0.595337
vt 0.312500 0.595337
s 0
f 124/1/1 120/2/1 3/3/1 40/4/1
f 39/5/2 1/6/2 8/7/2 41/8/2
f 132/9/1 134/10/1 14/11/1 12/12/1
f 131/13/1 133/14/1 13/15/1 10/16/1
f 133/14/2 132/9/2 12/12/2 13/15/2
f 142/17/2 139/18/2 11/19/2 42/20/2
f 123/1/3 44/4/3 18/3/3 122/21/3
f 43/5/3 45/8/3 15/7/3 16/6/3
f 136/9/3 26/12/3 28/11/3 138/10/3
f 135/22/3 25/16/3 27/15/3 137/14/3
f 137/14/3 27/15/3 26/12/3 136/9/3
f 141/17/3 46/20/3 17/19/3 140/23/3
f 128/24/4 121/25/4 24/26/4 111/26/4
f 55/27/5 16/6/5 15/7/5 54/28/5
f 59/29/6 28/11/6 26/12/6 58/12/6
f 126/30/7 122/21/7 18/3/7 62/31/7
f 144/32/8 140/23/8 17/19/8 64/19/8
f 67/33/6 27/15/6 25/16/6 66/16/6
f 111/26/9 24/26/9 23/34/9 70/34/9
f 73/35/10 20/36/10 19/37/10 72/38/10
f 58/12/6 26/12/6 27/15/6 67/33/6
f 75/39/10 22/40/10 21/41/10 116/42/10
f 84/43/6 46/20/6 28/11/6 59/29/6
f 78/44/11 35/44/11 20/36/11 73/35/11
f 72/38/10 19/37/10 22/40/10 75/39/10
f 82/45/12 43/5/12 16/6/12 55/27/12
f 65/16/6 109/16/6 104/16/6 10/16/6
f 62/31/13 18/3/13 34/46/13 80/46/13
f 44/4/3 47/47/3 34/46/3 18/3/3
f 19/37/14 37/48/14 36/49/14 22/40/14
f 20/36/14 35/44/14 37/48/14 19/37/14
f 22/40/3 36/49/3 38/50/3 21/41/3
f 40/4/1 3/3/1 29/46/1 48/47/1
f 5/37/1 4/40/1 31/49/1 32/48/1
f 2/36/1 5/37/1 32/48/1 30/44/1
f 4/40/2 7/41/2 33/50/2 31/49/2
f 7/41/1 40/4/1 48/47/1 33/50/1
f 21/41/3 38/50/3 47/47/3 44/4/3
f 70/34/15 23/34/15 43/5/15 82/45/15
f 64/19/6 17/19/6 46/20/6 84/43/6
f 138/10/14 28/11/14 46/20/14 141/17/14
f 23/34/14 24/26/14 45/8/14 43/5/14
f 121/25/3 21/41/3 44/4/3 123/1/3
f 134/10/2 142/17/2 42/20/2 14/11/2
f 6/34/1 39/5/1 41/8/1 9/26/1
f 119/51/1 124/1/1 40/4/1 7/41/1
f 11/19/6 63/19/6 83/52/6 42/20/6
f 100/53/16 97/52/16 98/43/16 99/54/16
f 6/34/17 69/34/17 81/55/17 39/5/17
f 69/34/18 70/34/18 82/45/18 81/55/18
f 3/3/19 61/31/19 79/46/19 29/46/19
f 61/31/20 62/31/20 80/46/20 79/46/20
f 131/13/1 145/22/1 103/44/1 30/44/1
f 77/56/2 151/56/2 150/57/2 74/57/2
f 39/5/21 81/55/21 56/6/21 1/6/21
f 81/55/22 82/45/22 55/27/22 56/6/22
f 5/37/10 71/38/10 76/58/10 4/40/10
f 74/57/23 92/57/23 89/38/23 71/38/23
f 30/44/11 77/56/11 74/57/11 2/36/11
f 147/59/1 155/59/1 153/56/1 110/56/1
f 42/20/6 83/52/6 60/11/6 14/11/6
f 83/52/6 84/43/6 59/29/6 60/11/6
f 4/40/10 76/58/10 113/42/10 7/41/10
f 73/35/24 91/35/24 92/57/24 74/57/24
f 12/12/6 57/60/6 68/15/6 13/15/6
f 57/60/6 58/12/6 67/33/6 68/15/6
f 2/36/10 74/57/10 71/38/10 5/37/10
f 115/26/25 117/26/25 112/26/25 111/26/25
f 9/26/26 115/26/26 69/34/26 6/34/26
f 115/26/27 111/26/27 70/34/27 69/34/27
f 13/15/6 68/15/6 65/16/6 10/16/6
f 68/15/6 67/33/6 66/16/6 65/16/6
f 139/18/28 143/32/28 63/19/28 11/19/28
f 143/32/29 144/32/29 64/19/29 63/19/29
f 120/2/30 125/30/30 61/31/30 3/3/30
f 125/30/31 126/30/31 62/31/31 61/31/31
f 14/11/6 60/11/6 57/60/6 12/12/6
f 60/11/6 59/29/6 58/12/6 57/60/6
f 1/6/32 56/6/32 53/61/32 8/7/32
f 56/6/33 55/27/33 54/28/33 53/61/33
f 119/51/34 127/62/34 115/26/34 9/26/34
f 76/58/1 94/58/1 114/42/1 113/42/1
f 89/38/10 90/38/10 93/39/10 94/58/10
f 94/58/35 93/39/35 118/42/35 114/42/35
f 92/57/10 91/35/10 90/38/10 89/38/10
f 114/42/36 118/42/36 112/26/36 117/26/36
f 71/38/1 89/38/1 94/58/1 76/58/1
f 88/63/37 87/64/37 51/65/37 52/65/37
f 116/42/14 118/42/14 93/39/14 75/39/14
f 72/38/38 90/38/38 91/35/38 73/35/38
f 75/39/3 93/39/3 90/38/3 72/38/3
f 85/66/39 86/66/39 87/64/39 88/63/39
f 95/19/6 96/19/6 98/43/6 97/52/6
f 101/19/1 95/19/1 97/52/1 100/53/1
f 102/67/40 96/19/40 95/19/40 101/19/40
f 99/54/3 98/43/3 96/19/3 102/67/3
f 84/43/14 99/54/14 102/67/14 64/19/14
f 64/19/41 102/67/41 101/19/41 63/19/41
f 63/19/1 101/19/1 100/53/1 83/52/1
f 83/52/42 100/53/42 99/54/42 84/43/42
f 148/68/43 146/69/43 105/44/43 108/44/43
f 145/22/43 147/59/43 110/56/43 103/44/43
f 78/44/3 152/44/3 154/44/3 108/44/3
f 78/44/44 108/44/44 105/44/44 35/44/44
f 30/44/44 103/44/44 110/56/44 77/56/44
f 66/16/6 107/16/6 109/16/6 65/16/6
f 135/22/3 146/69/3 106/16/3 25/16/3
f 25/16/6 106/16/6 107/16/6 66/16/6
f 50/70/3 111/26/3 112/26/3 86/66/3
f 52/65/2 113/42/2 114/42/2 88/63/2
f 129/71/2 127/62/2 113/42/2 52/65/2
f 130/72/3 128/24/3 111/26/3 50/70/3
f 88/63/1 114/42/1 117/26/1 85/66/1
f 86/66/3 112/26/3 118/42/3 87/64/3
f 85/66/1 117/26/1 115/26/1 49/70/1
f 87/64/14 118/42/14 116/42/14 51/65/14
f 129/71/45 130/72/45 50/70/45 49/70/45
f 49/70/46 50/70/46 86/66/46 85/66/46
f 52/65/45 51/65/45 130/72/45 129/71/45
f 51/65/3 116/42/3 128/24/3 130/72/3
f 49/70/2 115/26/2 127/62/2 129/71/2
f 7/41/45 113/42/45 127/62/45 119/51/45
f 53/61/31 54/28/31 126/30/31 125/30/31
f 8/7/30 53/61/30 125/30/30 120/2/30
f 9/26/2 41/8/2 124/1/2 119/51/2
f 24/26/3 121/25/3 123/1/3 45/8/3
f 54/28/7 15/7/7 122/21/7 126/30/7
f 116/42/45 21/41/45 121/25/45 128/24/45
f 45/8/3 123/1/3 122/21/3 15/7/3
f 41/8/2 8/7/2 120/2/2 124/1/2
f 35/44/14 105/44/14 146/69/14 135/22/14
f 109/16/47 107/16/47 148/68/47 147/59/47
f 104/16/47 109/16/47 147/59/47 145/22/47
f 107/16/47 106/16/47 146/69/47 148/68/47
f 79/46/48 80/46/48 144/32/48 143/32/48
f 29/46/49 79/46/49 143/32/49 139/18/49
f 10/16/2 104/16/2 145/22/2 131/13/2
f 33/50/1 48/47/1 142/17/1 134/10/1
f 38/50/14 138/10/14 141/17/14 47/47/14
f 80/46/50 34/46/50 140/23/50 144/32/50
f 47/47/14 141/17/14 140/23/14 34/46/14
f 37/48/3 137/14/3 136/9/3 36/49/3
f 35/44/3 135/22/3 137/14/3 37/48/3
f 36/49/14 136/9/14 138/10/14 38/50/14
f 48/47/2 29/46/2 139/18/2 142/17/2
f 32/48/1 31/49/1 132/9/1 133/14/1
f 30/44/2 32/48/2 133/14/2 131/13/2
f 31/49/2 33/50/2 134/10/2 132/9/2
f 151/56/44 153/56/44 154/44/44 152/44/44
f 151/56/11 152/44/11 149/35/11 150/57/11
f 155/59/43 156/68/43 154/44/43 153/56/43
f 148/68/51 156/68/51 155/59/51 147/59/51
f 108/44/14 154/44/14 156/68/14 148/68/14
f 110/56/1 153/56/1 151/56/1 77/56/1
f 73/35/14 149/35/14 152/44/14 78/44/14
f 74/57/52 150/57/52 149/35/52 73/35/52
