# Blender 5.1.2
# www.blender.org
mtllib HighBayLight.mtl
o HighBayLED
v 0.032843 0.180961 -0.032843
v 0.032843 0.180961 0.032843
v -0.032843 0.180961 -0.032843
v -0.032843 0.180961 0.032843
v -0.000000 0.180961 0.046447
v 0.000000 0.180961 -0.046447
v 0.046447 0.180961 0.000000
v -0.046447 0.180961 -0.000000
v 0.022838 0.241932 -0.000000
v 0.145801 0.093692 0.000000
v 0.104192 0.147775 0.000000
v 0.073675 0.147775 -0.073675
v -0.000000 0.147775 0.104192
v 0.073675 0.147775 0.073675
v -0.104192 0.147775 -0.000000
v -0.073675 0.147775 0.073675
v 0.000000 0.147775 -0.104192
v -0.073675 0.147775 -0.073675
v 0.167513 0.034651 0.000000
v 0.103097 0.093692 -0.103097
v -0.000000 0.093692 0.145801
v 0.103097 0.093692 0.103097
v -0.145801 0.093692 -0.000000
v -0.103097 0.093692 0.103097
v 0.000000 0.093692 -0.145801
v -0.103097 0.093692 -0.103097
v 0.156271 0.000317 0.000000
v 0.118449 0.034651 -0.118449
v -0.000000 0.034651 0.167513
v 0.118449 0.034651 0.118449
v -0.167513 0.034651 -0.000000
v -0.118449 0.034651 0.118449
v 0.000000 0.034651 -0.167513
v -0.118449 0.034651 -0.118449
v 0.110500 0.000317 -0.110500
v -0.000000 0.000317 0.156271
v 0.110500 0.000317 0.110500
v -0.156271 0.000317 -0.000000
v -0.110500 0.000317 0.110500
v 0.000000 0.000317 -0.156271
v -0.110500 0.000317 -0.110500
v 0.022838 0.230315 -0.000000
v 0.016149 0.230315 0.016149
v 0.000000 0.230315 0.022838
v -0.016149 0.230315 0.016149
v -0.022838 0.230315 0.000000
v -0.016149 0.230315 -0.016149
v -0.000000 0.230315 -0.022838
v 0.016149 0.230315 -0.016149
v 0.022838 0.196424 -0.000000
v 0.016149 0.241932 0.016149
v 0.000000 0.241932 0.022838
v -0.016149 0.241932 0.016149
v -0.022838 0.241932 0.000000
v -0.016149 0.241932 -0.016149
v -0.000000 0.241932 -0.022838
v 0.016149 0.241932 -0.016149
v 0.016149 0.196424 -0.016149
v -0.022838 0.196424 0.000000
v -0.016149 0.196424 0.016149
v -0.016149 0.196424 -0.016149
v -0.000000 0.196424 -0.022838
v 0.016149 0.196424 0.016149
v 0.000000 0.196424 0.022838
v 0.028658 0.230315 -0.000000
v 0.020264 0.230315 0.020264
v 0.000000 0.230315 0.028658
v -0.020264 0.230315 0.020264
v -0.028658 0.230315 0.000000
v -0.020264 0.230315 -0.020264
v -0.000000 0.230315 -0.028658
v 0.020264 0.230315 -0.020264
v -0.020264 0.241932 -0.020264
v -0.028658 0.241932 0.000000
v 0.000000 0.241932 0.028658
v 0.020264 0.241932 0.020264
v 0.028658 0.241932 -0.000000
v -0.020264 0.241932 0.020264
v -0.000000 0.241932 -0.028658
v 0.020264 0.241932 -0.020264
v 0.020264 0.188090 -0.020264
v 0.020264 0.196424 -0.020264
v -0.020264 0.188090 0.020264
v -0.020264 0.196424 0.020264
v 0.020264 0.188090 0.020264
v 0.020264 0.196424 0.020264
v 0.000000 0.196424 0.028658
v -0.000000 0.196424 -0.028658
v 0.028658 0.196424 -0.000000
v -0.028658 0.196424 0.000000
v -0.020264 0.196424 -0.020264
v 0.028658 0.188090 -0.000000
v -0.028658 0.188090 0.000000
v -0.020264 0.188090 -0.020264
v -0.000000 0.188090 -0.028658
v 0.000000 0.188090 0.028658
v 0.022838 0.247513 -0.000000
v 0.016149 0.247513 0.016149
v 0.000000 0.247513 0.022838
v -0.016149 0.247513 0.016149
v -0.022838 0.247513 0.000000
v -0.016149 0.247513 -0.016149
v -0.000000 0.247513 -0.022838
v 0.016149 0.247513 -0.016149
v -0.000000 0.268882 0.006532
v -0.017774 0.180961 -0.042911
v -0.017774 0.180961 0.042911
v -0.039873 0.147775 -0.096261
v -0.039873 0.147775 0.096261
v -0.055795 0.093692 -0.134702
v -0.055795 0.093692 0.134702
v -0.064104 0.034651 -0.154762
v -0.064104 0.034651 0.154762
v -0.059802 0.000317 -0.144376
v -0.059802 0.000317 0.144376
v -0.008740 0.230315 0.021100
v -0.008740 0.230315 -0.021100
v -0.008740 0.241932 0.021100
v -0.008740 0.241932 -0.021100
v -0.008740 0.196424 0.021100
v -0.008740 0.196424 -0.021100
v -0.010967 0.230315 0.026476
v -0.010967 0.230315 -0.026476
v -0.010967 0.241932 0.026476
v -0.010967 0.241932 -0.026476
v -0.010967 0.196424 0.026476
v -0.010967 0.196424 -0.026476
v -0.010967 0.188090 -0.026476
v -0.010967 0.188090 0.026476
v -0.008740 0.247513 0.021100
v -0.008740 0.247513 -0.021100
v -0.011871 0.247513 0.000000
v 0.017774 0.180961 0.042911
v 0.017774 0.180961 -0.042911
v 0.039873 0.147775 0.096261
v 0.039873 0.147775 -0.096261
v 0.055795 0.093692 0.134702
v 0.055795 0.093692 -0.134702
v 0.064104 0.034651 0.154762
v 0.064104 0.034651 -0.154762
v 0.059802 0.000317 0.144376
v 0.059802 0.000317 -0.144376
v 0.008740 0.230315 -0.021100
v 0.008740 0.230315 0.021100
v 0.008740 0.241932 -0.021100
v 0.008740 0.241932 0.021100
v 0.008740 0.196424 -0.021100
v 0.008740 0.196424 0.021100
v 0.010967 0.230315 -0.026476
v 0.010967 0.230315 0.026476
v 0.010967 0.241932 -0.026476
v 0.010967 0.241932 0.026476
v 0.010967 0.196424 -0.026476
v 0.010967 0.196424 0.026476
v 0.010967 0.188090 0.026476
v 0.010967 0.188090 -0.026476
v 0.008740 0.247513 -0.021100
v 0.008740 0.247513 0.021100
v 0.011871 0.247513 -0.000000
v 0.042911 0.180961 -0.017774
v -0.042911 0.180961 -0.017774
v 0.096261 0.147775 -0.039873
v -0.096261 0.147775 -0.039873
v 0.134702 0.093692 -0.055795
v -0.134702 0.093692 -0.055795
v 0.154762 0.034651 -0.064104
v -0.154762 0.034651 -0.064104
v 0.144376 0.000317 -0.059802
v -0.144376 0.000317 -0.059802
v -0.021100 0.230315 -0.008740
v 0.021100 0.230315 -0.008740
v -0.021100 0.241932 -0.008740
v 0.021100 0.241932 -0.008740
v 0.021100 0.196424 -0.008740
v -0.021100 0.196424 -0.008740
v -0.026476 0.230315 -0.010967
v 0.026476 0.230315 -0.010967
v -0.026476 0.241932 -0.010967
v 0.026476 0.241932 -0.010967
v 0.026476 0.196424 -0.010967
v -0.026476 0.196424 -0.010967
v -0.026476 0.188090 -0.010967
v 0.026476 0.188090 -0.010967
v -0.021100 0.247513 -0.008740
v -0.000000 0.247513 -0.011871
v 0.021100 0.247513 -0.008740
v -0.010132 0.247513 -0.010132
v 0.010132 0.247513 -0.010132
v -0.042911 0.180961 0.017774
v 0.042911 0.180961 0.017774
v -0.096261 0.147775 0.039873
v 0.096261 0.147775 0.039873
v -0.134702 0.093692 0.055795
v 0.134702 0.093692 0.055795
v -0.154762 0.034651 0.064104
v 0.154762 0.034651 0.064104
v -0.144376 0.000317 0.059802
v 0.144376 0.000317 0.059802
v 0.021100 0.230315 0.008740
v -0.021100 0.230315 0.008740
v 0.021100 0.241932 0.008740
v -0.021100 0.241932 0.008740
v 0.021100 0.196424 0.008740
v -0.021100 0.196424 0.008740
v 0.026476 0.230315 0.010967
v -0.026476 0.230315 0.010967
v 0.026476 0.241932 0.010967
v -0.026476 0.241932 0.010967
v 0.026476 0.196424 0.010967
v -0.026476 0.196424 0.010967
v -0.026476 0.188090 0.010967
v 0.026476 0.188090 0.010967
v 0.021100 0.247513 0.008740
v -0.021100 0.247513 0.008740
v 0.000000 0.247513 0.011871
v -0.010132 0.247513 0.010132
v 0.010132 0.247513 0.010132
v -0.000000 0.254204 0.006532
v 0.006532 0.254204 0.000000
v -0.006532 0.254204 -0.000000
v -0.004619 0.254204 0.004619
v 0.004619 0.254204 0.004619
v 0.000000 0.254204 -0.006532
v -0.004619 0.254204 -0.004619
v 0.004619 0.254204 -0.004619
v 0.003707 0.268882 0.000000
v -0.003707 0.268882 -0.000000
v -0.002621 0.268882 0.002621
v 0.002621 0.268882 0.002621
v 0.000000 0.268882 -0.006532
v -0.002621 0.268882 -0.002621
v 0.002621 0.268882 -0.002621
v 0.154762 0.000317 -0.064104
v 0.118449 0.000317 -0.118449
v 0.064104 0.000317 0.154762
v 0.118449 0.000317 0.118449
v -0.154762 0.000317 0.064104
v -0.118449 0.000317 0.118449
v -0.064104 0.000317 -0.154762
v -0.118449 0.000317 -0.118449
v -0.064104 0.000317 0.154762
v -0.000000 0.000317 0.167513
v 0.064104 0.000317 -0.154762
v 0.000000 0.000317 -0.167513
v 0.154762 0.000317 0.064104
v 0.167513 0.000317 0.000000
v -0.154762 0.000317 -0.064104
v -0.167513 0.000317 -0.000000
v -0.007854 0.011892 0.007854
v -0.000000 0.126089 -0.018065
v -0.018065 0.017684 0.000000
v -0.011108 0.011892 0.000000
v 0.018065 0.017684 0.000000
v 0.018065 0.126089 0.000000
v 0.011108 0.011892 0.000000
v -0.018065 0.126089 0.000000
v -0.000000 0.011892 0.000000
v -0.000000 0.011892 0.011108
v -0.006913 0.126089 -0.016690
v -0.000000 0.017684 -0.018065
v -0.000000 0.011892 -0.011108
v 0.006913 0.126089 -0.016690
v 0.016690 0.126089 -0.006913
v -0.016690 0.126089 -0.006913
v -0.000000 0.126089 0.018065
v -0.006913 0.126089 0.016690
v 0.006913 0.126089 0.016690
v 0.016690 0.126089 0.006913
v -0.016690 0.126089 0.006913
v 0.012774 0.126089 -0.012774
v 0.012774 0.126089 0.012774
v -0.012774 0.126089 0.012774
v -0.012774 0.126089 -0.012774
v 0.026213 0.040633 0.000000
v -0.000000 0.063582 -0.018065
v 0.024218 0.040633 -0.010031
v 0.000000 0.040633 -0.026213
v -0.024218 0.040633 -0.010031
v 0.018065 0.063582 0.000000
v 0.024218 0.040633 0.010031
v -0.018065 0.063582 0.000000
v -0.026213 0.040633 0.000000
v -0.024218 0.040633 0.010031
v -0.006913 0.063582 -0.016690
v 0.018536 0.040633 0.018536
v -0.018536 0.040633 0.018536
v 0.006913 0.063582 -0.016690
v 0.016690 0.063582 -0.006913
v -0.016690 0.063582 -0.006913
v -0.000000 0.063582 0.018065
v -0.006913 0.063582 0.016690
v 0.006913 0.063582 0.016690
v 0.016690 0.063582 0.006913
v -0.016690 0.063582 0.006913
v 0.012774 0.063582 -0.012774
v 0.012774 0.063582 0.012774
v -0.012774 0.063582 0.012774
v -0.012774 0.063582 -0.012774
v -0.007854 0.011892 -0.007854
v -0.006913 0.017684 -0.016690
v 0.007854 0.011892 0.007854
v 0.007854 0.011892 -0.007854
v 0.006913 0.017684 -0.016690
v 0.016690 0.017684 -0.006913
v -0.016690 0.017684 -0.006913
v -0.000000 0.017684 0.018065
v -0.006913 0.017684 0.016690
v 0.006913 0.017684 0.016690
v 0.016690 0.017684 0.006913
v -0.016690 0.017684 0.006913
v 0.012774 0.017684 -0.012774
v 0.012774 0.017684 0.012774
v -0.012774 0.017684 0.012774
v -0.012774 0.017684 -0.012774
v -0.010031 0.040633 0.024218
v 0.010031 0.040633 -0.024218
v 0.018536 0.040633 -0.018536
v -0.018536 0.040633 -0.018536
v -0.010031 0.040633 -0.024218
v 0.010031 0.040633 0.024218
v -0.000000 0.040633 0.026213
v -0.004619 0.268882 0.004619
v -0.006532 0.268882 -0.000000
v 0.004619 0.268882 0.004619
v 0.006532 0.268882 0.000000
v -0.004619 0.268882 -0.004619
v 0.004619 0.268882 -0.004619
v 0.000000 0.268882 -0.003707
v -0.000000 0.268882 0.003707
v -0.000000 1.224341 0.003707
v -0.000000 1.224341 0.000000
v 0.003707 1.224341 0.000000
v -0.003707 1.224341 -0.000000
v 0.000000 1.224341 -0.003707
v -0.002621 1.224341 0.002621
v 0.002621 1.224341 0.002621
v -0.002621 1.224341 -0.002621
v 0.002621 1.224341 -0.002621
vn -0.2102 0.9257 -0.3145
vn 0.3710 0.9257 -0.0738
vn -0.2102 0.9257 0.3145
vn 0.3145 0.9257 0.2102
vn 0.4204 0.8628 0.2809
vn -0.5556 -0.0000 -0.8315
vn -0.9808 -0.0000 -0.1951
vn 0.4958 0.8628 -0.0986
vn -0.3710 0.9257 0.0738
vn -0.3145 0.9257 -0.2102
vn -0.4204 0.8628 -0.2809
vn 0.8315 -0.0000 -0.5556
vn -0.8315 -0.0000 0.5556
vn 0.0986 0.8628 0.4958
vn 0.2102 0.9257 0.3145
vn 0.0738 0.9257 0.3710
vn 0.1557 0.6023 0.7829
vn -0.1557 0.6023 -0.7829
vn 0.4435 0.6023 -0.6637
vn 0.6637 0.6023 0.4435
vn -0.4958 0.8628 0.0986
vn 0.2809 0.8628 -0.4204
vn -0.2809 0.8628 0.4204
vn -0.0986 0.8628 -0.4958
vn 0.7821 0.3393 0.5226
vn 0.9226 0.3393 -0.1835
vn -0.9226 0.3393 0.1835
vn -0.5226 0.3393 0.7821
vn -0.6637 0.6023 -0.4435
vn -0.4435 0.6023 0.6637
vn -0.7829 0.6023 0.1557
vn 0.7829 0.6023 -0.1557
vn 0.9808 -0.0000 -0.1951
vn -0.9808 -0.0000 0.1951
vn -0.5556 -0.0000 0.8315
vn -0.8315 -0.0000 -0.5556
vn 0.5226 0.3393 -0.7821
vn -0.1835 0.3393 -0.9226
vn 0.1835 0.3393 0.9226
vn -0.7821 0.3393 -0.5226
vn -0.1327 -0.7331 -0.6671
vn 0.5655 -0.7331 -0.3779
vn 0.3779 -0.7331 -0.5655
vn -0.3779 -0.7331 -0.5655
vn 0.8315 -0.0000 0.5556
vn 0.5556 -0.0000 -0.8315
vn -0.1951 -0.0000 -0.9808
vn 0.1951 -0.0000 0.9808
vn -0.0000 1.0000 -0.0000
vn -0.3145 0.9257 0.2102
vn -0.0000 -1.0000 -0.0000
vn 0.5556 -0.0000 0.8315
vn 0.9808 -0.0000 0.1951
vn 0.1951 -0.0000 -0.9808
vn -0.1951 -0.0000 0.9808
vn 0.3145 0.9257 -0.2102
vn -0.0738 0.9257 0.3710
vn -0.3710 0.9257 -0.0738
vn 0.3710 0.9257 0.0738
vn 0.0738 0.9257 -0.3710
vn -0.1798 0.6633 -0.7264
vn 0.1327 -0.7331 0.6671
vn -0.5655 -0.7331 -0.3779
vn -0.5226 0.3393 -0.7821
vn -0.1557 0.6023 0.7829
vn -0.1835 0.3393 0.9226
vn -0.2809 0.8628 -0.4204
vn -0.0986 0.8628 0.4958
vn -0.4435 0.6023 -0.6637
vn 0.7264 0.6633 0.1798
vn -0.5655 -0.7331 0.3779
vn 0.6671 -0.7331 0.1327
vn 0.5226 0.3393 0.7821
vn 0.1835 0.3393 -0.9226
vn 0.0986 0.8628 -0.4958
vn 0.1557 0.6023 -0.7829
vn 0.4435 0.6023 0.6637
vn 0.2809 0.8628 0.4204
vn 0.6671 -0.7331 -0.1327
vn 0.1798 0.6633 -0.7264
vn -0.6671 -0.7331 -0.1327
vn -0.1798 0.6633 0.7264
vn 0.5655 -0.7331 0.3779
vn -0.1327 -0.7331 0.6671
vn -0.9226 0.3393 -0.1835
vn 0.6637 0.6023 -0.4435
vn -0.7829 0.6023 -0.1557
vn 0.7821 0.3393 -0.5226
vn -0.4958 0.8628 -0.0986
vn 0.4204 0.8628 -0.2809
vn -0.6671 -0.7331 0.1327
vn 0.1327 -0.7331 -0.6671
vn 0.2102 0.9257 -0.3145
vn -0.3779 -0.7331 0.5655
vn 0.3779 -0.7331 0.5655
vn -0.6637 0.6023 0.4435
vn -0.7821 0.3393 0.5226
vn 0.9226 0.3393 0.1835
vn -0.4204 0.8628 0.2809
vn 0.7829 0.6023 0.1557
vn 0.4958 0.8628 0.0986
vn 0.3827 -0.0000 -0.9239
vn 0.3827 -0.0000 0.9239
vn -0.9239 -0.0000 0.3827
vn 0.9239 -0.0000 -0.3827
vn -0.7264 0.6633 0.1798
vn 0.7264 0.6633 -0.1798
vn 0.1798 0.6633 0.7264
vn -0.7264 0.6633 -0.1798
vn 0.9239 -0.0000 0.3827
vn -0.3827 -0.0000 -0.9239
vn -0.9239 -0.0000 -0.3827
vn -0.3827 -0.0000 0.9239
vn -0.0738 0.9257 -0.3710
vn -0.7852 -0.3289 0.5247
vn -0.5247 -0.3289 0.7852
vn 0.5247 -0.3289 0.7852
vn -0.1842 -0.3289 -0.9262
vn 0.7852 -0.3289 0.5247
vn 0.7852 -0.3289 -0.5247
vn -0.9262 -0.3289 -0.1842
vn -0.9262 -0.3289 0.1842
vn 0.9262 -0.3289 0.1842
vn -0.7852 -0.3289 -0.5247
vn 0.1842 -0.3289 -0.9262
vn 0.9262 -0.3289 -0.1842
vn -0.1842 -0.3289 0.9262
vn 0.5247 -0.3289 -0.7852
vn -0.5247 -0.3289 -0.7852
vn 0.1842 -0.3289 0.9262
vn -0.4524 -0.7685 -0.4524
vn 0.1844 -0.7872 -0.5884
vn -0.5884 -0.7872 0.1844
vn -0.1844 -0.7872 -0.5884
vn 0.5884 -0.7872 0.1844
vn 0.4524 -0.7685 -0.4524
vn 0.5884 -0.7872 -0.1844
vn -0.5884 -0.7872 -0.1844
vn 0.4524 -0.7685 0.4524
vn -0.1844 -0.7872 0.5884
vn -0.4524 -0.7685 0.4524
vn 0.1844 -0.7872 0.5884
vn 0.1842 0.3289 0.9262
vn -0.5247 0.3289 -0.7852
vn 0.5247 0.3289 -0.7852
vn -0.1842 0.3289 0.9262
vn 0.9262 0.3289 -0.1842
vn 0.1842 0.3289 -0.9262
vn -0.7852 0.3289 -0.5247
vn 0.9262 0.3289 0.1842
vn -0.9262 0.3289 0.1842
vn -0.9262 0.3289 -0.1842
vn 0.7852 0.3289 -0.5247
vn 0.7852 0.3289 0.5247
vn -0.1842 0.3289 -0.9262
vn 0.5247 0.3289 0.7852
vn -0.5247 0.3289 0.7852
vn -0.7852 0.3289 0.5247
vt 0.375000 0.750000
vt 0.625000 0.750000
vt 0.625000 0.812500
vt 0.375000 0.812500
vt 0.625000 0.062500
vt 0.625000 0.125000
vt 0.375000 0.125000
vt 0.375000 0.062500
vt 0.625000 0.437500
vt 0.625000 0.500000
vt 0.375000 0.500000
vt 0.375000 0.437500
vt 0.375000 0.250000
vt 0.375000 0.187500
vt 0.625000 0.187500
vt 0.625000 0.250000
vt 0.625000 0.812500
vt 0.625000 0.750000
vt 0.625000 0.812500
vt 0.625000 0.687500
vt 0.625000 0.625000
vt 0.375000 0.062500
vt 0.625000 0.562500
vt 0.375000 0.625000
vt 0.375000 0.562500
vt 0.625000 0.687500
vt 0.375000 0.687500
vt 0.375000 0.687500
vt 0.625000 0.000000
vt 0.625000 0.062500
vt 0.625000 0.562500
vt 0.375000 0.312500
vt 0.375000 0.375000
vt 0.625000 0.312500
vt 0.625000 0.375000
vt 0.375000 0.312500
vt 0.375000 0.812500
vt 0.375000 0.875000
vt 0.375000 0.937500
vt 0.375000 1.000000
vt 0.375000 0.437500
vt 0.375000 0.062500
vt 0.375000 0.562500
vt 0.375000 0.437500
vt 0.375000 0.312500
vt 0.192099 0.508453
vt 0.250000 0.509837
vt 0.360637 0.514363
vt 0.366547 0.567099
vt 0.307483 0.509211
vt 0.139363 0.514363
vt 0.625000 0.687500
vt 0.625000 0.312500
vt 0.625000 0.937500
vt 0.625000 0.875000
vt 0.875000 0.687500
vt 0.875000 0.750000
vt 0.875000 0.687500
vt 0.875000 0.562500
vt 0.875000 0.625000
vt 0.875000 0.562500
vt 0.812500 0.500000
vt 0.875000 0.500000
vt 0.812500 0.500000
vt 0.687500 0.500000
vt 0.687500 0.500000
vt 0.375000 0.000000
vt 0.625000 0.937500
vt 0.625000 0.187500
vt 0.625000 0.437500
vt 0.625000 1.000000
vt 0.625000 0.187500
vt 0.625000 0.937500
vt 0.625000 0.437500
vt 0.812500 0.750000
vt 0.812500 0.750000
vt 0.750000 0.500000
vt 0.687500 0.750000
vt 0.750000 0.750000
vt 0.812500 0.687500
vt 0.687500 0.687500
vt 0.750000 0.687500
vt 0.812500 0.562500
vt 0.812500 0.625000
vt 0.687500 0.562500
vt 0.687500 0.625000
vt 0.307901 0.741547
vt 0.250000 0.740163
vt 0.134211 0.567517
vt 0.139363 0.735637
vt 0.133453 0.682901
vt 0.365163 0.625000
vt 0.365789 0.682483
vt 0.134837 0.625000
vt 0.750000 0.562500
vt 0.360637 0.735637
vt 0.192517 0.740789
vt 0.750000 0.589534
vt 0.780139 0.594861
vt 0.785466 0.625000
vt 0.780139 0.655139
vt 0.750000 0.660466
vt 0.719861 0.655139
vt 0.125000 0.750000
vt 0.125000 0.687500
vt 0.125000 0.500000
vt 0.187500 0.500000
vt 0.312500 0.750000
vt 0.250000 0.500000
vt 0.312500 0.500000
vt 0.250000 0.750000
vt 0.187500 0.750000
vt 0.125000 0.625000
vt 0.125000 0.562500
vt 0.312500 0.687500
vt 0.187500 0.687500
vt 0.250000 0.687500
vt 0.187500 0.562500
vt 0.250000 0.562500
vt 0.250000 0.625000
vt 0.187500 0.625000
vt 0.312500 0.562500
vt 0.312500 0.625000
vt 0.719861 0.594861
vt 0.714534 0.625000
vt 0.750000 0.625000
s 0
f 3/1/1 94/2/1 128/3/1 106/4/1
f 183/5/2 92/6/2 7/7/2 160/8/2
f 129/9/3 83/10/3 4/11/3 107/12/3
f 2/13/4 190/14/4 212/15/4 85/16/4
f 190/14/5 2/13/5 14/13/5 192/14/5
f 121/17/6 61/18/6 47/18/6 117/19/6
f 175/20/7 59/21/7 46/21/7 170/20/7
f 160/8/8 7/7/8 11/7/8 162/22/8
f 211/23/9 93/21/9 8/24/9 189/25/9
f 182/26/10 94/2/10 3/1/10 161/27/10
f 161/27/11 3/1/11 18/1/11 163/28/11
f 174/5/12 58/29/12 49/29/12 171/30/12
f 204/23/13 60/10/13 45/10/13 200/31/13
f 133/32/14 5/33/14 13/33/14 135/32/14
f 2/13/15 85/16/15 155/34/15 133/32/15
f 155/34/16 96/35/16 5/33/16 133/32/16
f 135/32/17 13/33/17 21/33/17 137/36/17
f 108/37/18 17/38/18 25/38/18 110/4/18
f 136/39/19 12/40/19 20/40/19 138/39/19
f 192/14/20 14/13/20 22/13/20 194/14/20
f 189/25/21 8/24/21 15/24/21 191/25/21
f 134/39/22 1/40/22 12/40/22 136/39/22
f 107/12/23 4/11/23 16/11/23 109/41/23
f 106/4/24 6/38/24 17/38/24 108/37/24
f 194/14/25 22/13/25 30/13/25 196/14/25
f 164/42/26 10/7/26 19/7/26 166/22/26
f 193/25/27 23/24/27 31/24/27 195/43/27
f 111/44/28 24/11/28 32/11/28 113/12/28
f 163/28/29 18/1/29 26/1/29 165/28/29
f 109/41/30 16/11/30 24/11/30 111/44/30
f 191/25/31 15/24/31 23/24/31 193/25/31
f 162/22/32 11/7/32 10/7/32 164/42/32
f 166/22/33 19/7/33 246/7/33 233/22/33
f 195/43/34 31/24/34 248/24/34 237/25/34
f 113/12/35 32/11/35 238/11/35 241/12/35
f 167/28/36 34/1/36 240/1/36 247/28/36
f 138/39/37 20/40/37 28/40/37 140/39/37
f 110/4/38 25/38/38 33/38/38 112/4/38
f 137/36/39 21/33/39 29/33/39 139/45/39
f 165/28/40 26/1/40 34/1/40 167/28/40
f 141/46/41 36/47/41 265/47/41 267/46/41
f 39/48/42 197/49/42 269/49/42 272/48/42
f 115/50/43 39/48/43 272/48/43 266/50/43
f 37/51/44 141/46/44 267/46/44 271/51/44
f 196/14/45 30/13/45 236/13/45 245/14/45
f 140/39/46 28/40/46 234/40/46 243/39/46
f 112/4/47 33/38/47 244/38/47 239/4/47
f 139/45/48 29/33/48 242/33/48 235/32/48
f 174/5/49 50/6/49 89/6/49 180/5/49
f 172/20/49 55/18/49 73/18/49 178/52/49
f 4/11/50 83/10/50 211/23/50 189/25/50
f 144/53/51 43/16/51 66/16/51 150/34/51
f 148/34/52 63/16/52 43/16/52 144/53/52
f 203/15/53 50/6/53 42/6/53 199/15/53
f 147/54/54 62/55/54 48/55/54 143/54/54
f 120/9/55 64/35/55 44/35/55 116/9/55
f 173/56/12 57/57/12 104/57/12 186/58/12
f 201/59/53 9/60/53 97/60/53 213/61/53
f 172/20/7 54/21/7 101/21/7 184/52/7
f 146/62/52 51/63/52 98/63/52 158/64/52
f 204/23/49 59/21/49 90/21/49 210/23/49
f 118/65/49 53/10/49 78/10/49 124/66/49
f 1/67/56 81/29/56 183/5/56 160/8/56
f 143/54/51 48/55/51 71/55/51 149/68/51
f 148/34/49 64/35/49 87/35/49 154/34/49
f 201/59/49 51/63/49 76/63/49 207/61/49
f 5/33/57 96/35/57 129/9/57 107/12/57
f 170/20/51 46/21/51 69/21/51 176/26/51
f 203/15/49 63/16/49 86/16/49 209/69/49
f 116/9/51 44/35/51 67/35/51 122/70/51
f 147/54/49 58/71/49 82/71/49 153/54/49
f 199/15/51 42/6/51 65/6/51 205/72/51
f 8/24/58 93/21/58 182/26/58 161/27/58
f 7/7/59 92/6/59 212/15/59 190/14/59
f 6/38/60 95/55/60 156/54/60 134/39/60
f 177/5/12 72/29/12 80/29/12 179/5/12
f 205/72/53 65/6/53 77/6/53 207/69/53
f 176/26/7 69/21/7 74/21/7 178/52/7
f 150/34/52 66/16/52 76/16/52 152/34/52
f 123/3/6 70/18/6 73/18/6 125/17/6
f 149/68/54 71/55/54 79/55/54 151/73/54
f 122/70/55 67/35/55 75/35/55 124/74/55
f 206/23/13 68/10/13 78/10/13 208/23/13
f 129/9/55 96/35/55 87/35/55 126/9/55
f 156/54/54 95/55/54 88/55/54 153/54/54
f 212/15/53 92/6/53 89/6/53 209/69/53
f 155/34/52 85/16/52 86/16/52 154/34/52
f 211/23/13 83/10/13 84/10/13 210/23/13
f 183/5/12 81/29/12 82/29/12 180/5/12
f 182/26/7 93/21/7 90/21/7 181/20/7
f 128/3/6 94/2/6 91/18/6 127/3/6
f 117/19/51 47/18/51 70/18/51 123/3/51
f 145/75/49 57/57/49 80/57/49 151/76/49
f 175/20/49 61/18/49 91/18/49 181/20/49
f 146/62/49 52/77/49 75/77/49 152/62/49
f 121/17/49 62/55/49 88/55/49 127/3/49
f 171/30/51 49/29/51 72/29/51 177/5/51
f 119/78/49 56/79/49 79/79/49 125/78/49
f 200/31/51 45/10/51 68/10/51 206/23/51
f 173/56/49 9/60/49 77/60/49 179/56/49
f 202/23/49 54/21/49 74/21/49 208/23/49
f 120/9/49 60/10/49 84/10/49 126/9/49
f 188/80/49 186/58/49 104/57/49 157/76/49
f 187/81/49 185/82/49 103/79/49 131/78/49
f 185/82/61 187/81/61 224/81/61 223/82/61
f 217/83/49 213/61/49 97/60/49 159/84/49
f 119/78/6 55/18/6 102/18/6 131/78/6
f 145/75/54 56/79/54 103/79/54 157/76/54
f 118/65/55 52/77/55 99/77/55 130/66/55
f 202/23/13 53/10/13 100/10/13 214/23/13
f 53/10/35 118/65/35 130/66/35 100/10/35
f 56/79/47 119/78/47 131/78/47 103/79/47
f 214/23/49 216/85/49 132/86/49 101/21/49
f 184/52/49 187/81/49 131/78/49 102/18/49
f 64/35/49 120/9/49 126/9/49 87/35/49
f 55/18/49 119/78/49 125/78/49 73/18/49
f 61/18/49 121/17/49 127/3/49 91/18/49
f 48/55/51 117/19/51 123/3/51 71/55/51
f 95/55/47 128/3/47 127/3/47 88/55/47
f 83/10/35 129/9/35 126/9/35 84/10/35
f 68/10/35 122/70/35 124/74/35 78/10/35
f 71/55/47 123/3/47 125/17/47 79/55/47
f 45/10/51 116/9/51 122/70/51 68/10/51
f 52/77/49 118/65/49 124/66/49 75/77/49
f 60/10/35 120/9/35 116/9/35 45/10/35
f 34/1/6 112/4/6 239/4/6 240/1/6
f 114/87/62 40/88/62 250/88/62 259/87/62
f 198/89/63 37/51/63 271/51/63 268/89/63
f 26/1/64 110/4/64 112/4/64 34/1/64
f 29/33/55 113/12/55 241/12/55 242/33/55
f 13/33/65 109/41/65 111/44/65 21/33/65
f 21/33/66 111/44/66 113/12/66 29/33/66
f 3/1/67 106/4/67 108/37/67 18/1/67
f 5/33/68 107/12/68 109/41/68 13/33/68
f 18/1/69 108/37/69 110/4/69 26/1/69
f 62/55/47 121/17/47 117/19/47 48/55/47
f 57/57/46 145/75/46 157/76/46 104/57/46
f 217/83/70 159/84/70 219/84/70 222/83/70
f 185/82/49 188/80/49 157/76/49 103/79/49
f 51/63/49 146/62/49 152/62/49 76/63/49
f 56/79/49 145/75/49 151/76/49 79/79/49
f 96/35/48 155/34/48 154/34/48 87/35/48
f 81/71/46 156/54/46 153/54/46 82/71/46
f 72/71/46 149/68/46 151/73/46 80/71/46
f 67/35/48 150/34/48 152/34/48 75/35/48
f 62/55/49 147/54/49 153/54/49 88/55/49
f 63/16/49 148/34/49 154/34/49 86/16/49
f 49/71/51 143/54/51 149/68/51 72/71/51
f 52/77/48 146/62/48 158/64/48 99/77/48
f 58/71/46 147/54/46 143/54/46 49/71/46
f 64/35/48 148/34/48 144/53/48 44/35/48
f 44/35/51 144/53/51 150/34/51 67/35/51
f 30/13/52 139/45/52 235/32/52 236/13/52
f 33/38/54 140/39/54 243/39/54 244/38/54
f 35/90/71 168/91/71 263/91/71 270/90/71
f 38/92/72 169/93/72 264/93/72 256/92/72
f 22/13/73 137/36/73 139/45/73 30/13/73
f 25/38/74 138/39/74 140/39/74 33/38/74
f 6/38/75 134/39/75 136/39/75 17/38/75
f 17/38/76 136/39/76 138/39/76 25/38/76
f 14/13/77 135/32/77 137/36/77 22/13/77
f 2/13/78 133/32/78 135/32/78 14/13/78
f 197/49/79 38/92/79 256/92/79 269/49/79
f 188/80/80 185/82/80 223/82/80 225/80/80
f 27/94/81 198/89/81 268/89/81 254/94/81
f 101/21/49 132/86/49 187/81/49 184/52/49
f 216/85/82 215/95/82 218/95/82 221/85/82
f 159/84/49 97/60/49 186/58/49 188/80/49
f 57/57/49 173/56/49 179/56/49 80/57/49
f 42/6/51 171/30/51 177/5/51 65/6/51
f 59/21/49 175/20/49 181/20/49 90/21/49
f 94/2/36 182/26/36 181/20/36 91/18/36
f 92/6/33 183/5/33 180/5/33 89/6/33
f 70/18/36 176/26/36 178/52/36 73/18/36
f 65/6/33 177/5/33 179/5/33 77/6/33
f 47/18/51 170/20/51 176/26/51 70/18/51
f 55/18/36 172/20/36 184/52/36 102/18/36
f 9/60/33 173/56/33 186/58/33 97/60/33
f 54/21/49 172/20/49 178/52/49 74/21/49
f 58/29/49 174/5/49 180/5/49 82/29/49
f 169/93/83 41/96/83 273/96/83 264/93/83
f 40/88/84 142/97/84 262/97/84 250/88/84
f 23/24/85 165/28/85 167/28/85 31/24/85
f 31/24/7 167/28/7 247/28/7 248/24/7
f 28/67/12 166/22/12 233/22/12 234/67/12
f 12/67/86 162/22/86 164/42/86 20/67/86
f 15/24/87 163/28/87 165/28/87 23/24/87
f 20/67/88 164/42/88 166/22/88 28/67/88
f 50/6/33 174/5/33 171/30/33 42/6/33
f 8/24/89 161/27/89 163/28/89 15/24/89
f 1/67/90 160/8/90 162/22/90 12/67/90
f 61/18/36 175/20/36 170/20/36 47/18/36
f 168/91/91 27/94/91 254/94/91 263/91/91
f 99/77/49 158/64/49 217/83/49 215/95/49
f 36/47/92 115/50/92 266/50/92 265/47/92
f 100/10/49 130/66/49 216/85/49 214/23/49
f 54/21/34 202/23/34 214/23/34 101/21/34
f 158/64/49 98/63/49 213/61/49 217/83/49
f 130/66/49 99/77/49 215/95/49 216/85/49
f 53/10/49 202/23/49 208/23/49 78/10/49
f 46/21/51 200/31/51 206/23/51 69/21/51
f 156/54/93 81/71/93 1/40/93 134/39/93
f 93/21/34 211/23/34 210/23/34 90/21/34
f 85/16/45 212/15/45 209/69/45 86/16/45
f 69/21/34 206/23/34 208/23/34 74/21/34
f 66/16/45 205/72/45 207/69/45 76/16/45
f 43/16/51 199/15/51 205/72/51 66/16/51
f 50/6/49 203/15/49 209/69/49 89/6/49
f 9/60/49 201/59/49 207/61/49 77/60/49
f 60/10/49 204/23/49 210/23/49 84/10/49
f 51/63/45 201/59/45 213/61/45 98/63/45
f 63/16/45 203/15/45 199/15/45 43/16/45
f 19/7/53 196/14/53 245/14/53 246/7/53
f 142/97/94 35/90/94 270/90/94 262/97/94
f 41/96/95 114/87/95 259/87/95 273/96/95
f 32/11/13 195/43/13 237/25/13 238/11/13
f 16/11/96 191/25/96 193/25/96 24/11/96
f 24/11/97 193/25/97 195/43/97 32/11/97
f 10/7/98 194/14/98 196/14/98 19/7/98
f 4/11/99 189/25/99 191/25/99 16/11/99
f 11/7/100 192/14/100 194/14/100 10/7/100
f 59/21/34 204/23/34 200/31/34 46/21/34
f 7/7/101 190/14/101 192/14/101 11/7/101
f 225/80/102 223/82/102 230/82/102 327/80/102
f 218/95/103 222/83/103 324/83/103 105/95/103
f 220/86/104 221/85/104 322/85/104 323/86/104
f 219/84/105 225/80/105 327/80/105 325/84/105
f 132/86/106 216/85/106 221/85/106 220/86/106
f 159/84/107 188/80/107 225/80/107 219/84/107
f 215/95/108 217/83/108 222/83/108 218/95/108
f 187/81/109 132/86/109 220/86/109 224/81/109
f 329/98/103 229/99/103 336/99/103 330/98/103
f 229/99/110 226/100/110 332/100/110 336/99/110
f 226/100/105 232/101/105 338/101/105 332/100/105
f 328/102/111 231/103/111 337/103/111 334/102/111
f 224/81/112 220/86/112 323/86/112 326/81/112
f 222/83/110 219/84/110 325/84/110 324/83/110
f 221/85/113 218/95/113 105/95/113 322/85/113
f 223/82/111 224/81/111 326/81/111 230/82/111
f 128/3/114 95/55/114 6/38/114 106/4/114
f 168/91/51 35/90/51 234/104/51 233/105/51
f 141/46/51 37/51/51 236/106/51 235/107/51
f 197/49/51 39/48/51 238/11/51 237/25/51
f 114/87/51 41/96/51 240/1/51 239/108/51
f 115/50/51 36/47/51 242/109/51 241/110/51
f 142/97/51 40/88/51 244/111/51 243/112/51
f 198/89/51 27/94/51 246/113/51 245/114/51
f 169/93/51 38/92/51 248/24/51 247/28/51
f 40/88/51 114/87/51 239/108/51 244/111/51
f 39/48/51 115/50/51 241/110/51 238/11/51
f 36/47/51 141/46/51 235/107/51 242/109/51
f 35/90/51 142/97/51 243/112/51 234/104/51
f 27/94/51 168/91/51 233/105/51 246/113/51
f 41/96/51 169/93/51 247/28/51 240/1/51
f 38/92/51 197/49/51 237/25/51 248/24/51
f 37/51/51 198/89/51 245/114/51 236/106/51
f 250/88/54 262/97/54 287/97/54 275/88/54
f 263/91/33 254/94/33 279/94/33 288/91/33
f 265/47/55 266/50/55 291/50/55 290/47/55
f 262/97/46 270/90/46 295/90/46 287/97/46
f 273/96/6 259/87/6 284/87/6 298/96/6
f 267/46/48 265/47/48 290/47/48 292/46/48
f 272/48/13 269/49/13 294/49/13 297/48/13
f 266/50/35 272/48/35 297/48/35 291/50/35
f 271/51/52 267/46/52 292/46/52 296/51/52
f 259/87/47 250/88/47 275/88/47 284/87/47
f 268/89/45 271/51/45 296/51/45 293/89/45
f 270/90/12 263/91/12 288/91/12 295/90/12
f 256/92/7 264/93/7 289/93/7 281/92/7
f 269/49/34 256/92/34 281/92/34 294/49/34
f 254/94/53 268/89/53 293/89/53 279/94/53
f 264/93/36 273/96/36 298/96/36 289/93/36
f 286/48/115 283/49/115 310/49/115 313/48/115
f 315/50/116 286/48/116 313/48/116 307/50/116
f 285/51/117 320/46/117 308/46/117 312/51/117
f 319/87/118 277/88/118 260/88/118 300/87/118
f 280/89/119 285/51/119 312/51/119 309/89/119
f 317/90/120 276/91/120 304/91/120 311/90/120
f 282/92/121 278/93/121 305/93/121 251/92/121
f 283/49/122 282/92/122 251/92/122 310/49/122
f 274/94/123 280/89/123 309/89/123 253/94/123
f 278/93/124 318/96/124 314/96/124 305/93/124
f 277/88/125 316/97/125 303/97/125 260/88/125
f 276/91/126 274/94/126 253/94/126 304/91/126
f 321/47/127 315/50/127 307/50/127 306/47/127
f 316/97/128 317/90/128 311/90/128 303/97/128
f 318/96/129 319/87/129 300/87/129 314/96/129
f 320/46/130 321/47/130 306/47/130 308/46/130
f 299/115/131 305/93/131 314/96/131 300/87/131
f 302/116/132 261/117/132 260/88/132 303/97/132
f 301/118/51 258/119/51 257/120/51 255/121/51
f 249/122/133 310/49/133 251/92/133 252/123/133
f 258/119/51 249/122/51 252/123/51 257/120/51
f 261/117/134 299/115/134 300/87/134 260/88/134
f 309/89/135 301/118/135 255/121/135 253/94/135
f 304/91/136 302/116/136 303/97/136 311/90/136
f 253/94/137 255/121/137 302/116/137 304/91/137
f 257/120/51 252/123/51 299/115/51 261/117/51
f 255/121/51 257/120/51 261/117/51 302/116/51
f 252/123/138 251/92/138 305/93/138 299/115/138
f 312/51/139 308/46/139 301/118/139 309/89/139
f 306/47/140 307/50/140 249/122/140 258/119/140
f 307/50/141 313/48/141 310/49/141 249/122/141
f 308/46/142 306/47/142 258/119/142 301/118/142
f 292/46/143 290/47/143 321/47/143 320/46/143
f 298/96/144 284/87/144 319/87/144 318/96/144
f 287/97/145 295/90/145 317/90/145 316/97/145
f 290/47/146 291/50/146 315/50/146 321/47/146
f 288/91/147 279/94/147 274/94/147 276/91/147
f 275/88/148 287/97/148 316/97/148 277/88/148
f 289/93/149 298/96/149 318/96/149 278/93/149
f 279/94/150 293/89/150 280/89/150 274/94/150
f 294/49/151 281/92/151 282/92/151 283/49/151
f 281/92/152 289/93/152 278/93/152 282/92/152
f 295/90/153 288/91/153 276/91/153 317/90/153
f 293/89/154 296/51/154 285/51/154 280/89/154
f 284/87/155 275/88/155 277/88/155 319/87/155
f 296/51/156 292/46/156 320/46/156 285/51/156
f 291/50/157 297/48/157 286/48/157 315/50/157
f 297/48/158 294/49/158 283/49/158 286/48/158
f 228/124/49 227/125/49 323/86/49 322/85/49
f 226/100/49 229/99/49 324/83/49 325/84/49
f 227/125/49 231/103/49 326/81/49 323/86/49
f 232/101/49 226/100/49 325/84/49 327/80/49
f 328/102/49 232/101/49 327/80/49 230/82/49
f 231/103/49 328/102/49 230/82/49 326/81/49
f 229/99/49 329/98/49 105/95/49 324/83/49
f 329/98/49 228/124/49 322/85/49 105/95/49
f 335/124/49 330/98/49 331/126/49 333/125/49
f 330/98/49 336/99/49 332/100/49 331/126/49
f 331/126/49 332/100/49 338/101/49 334/102/49
f 333/125/49 331/126/49 334/102/49 337/103/49
f 232/101/102 328/102/102 334/102/102 338/101/102
f 231/103/112 227/125/112 333/125/112 337/103/112
f 227/125/104 228/124/104 335/124/104 333/125/104
f 228/124/113 329/98/113 330/98/113 335/124/113
