# Blender 5.1.0
# www.blender.org
mtllib LightCeiling.mtl
o Lights.003
v 0.238488 0.099406 1.021151
v 0.238488 0.099406 -1.021152
v -0.238488 0.099406 1.021151
v -0.238488 0.099406 -1.021152
v 0.238488 -0.007558 1.021151
v 0.113582 -0.091848 1.021151
v 0.113582 -0.091848 -1.021152
v 0.238488 -0.007558 -1.021152
v -0.113582 -0.091848 1.021151
v -0.238488 -0.007558 1.021151
v -0.238488 -0.007558 -1.021152
v -0.113582 -0.091848 -1.021152
vn -0.0000 1.0000 -0.0000
vn 0.5594 -0.8289 -0.0000
vn -0.5594 -0.8289 -0.0000
vn -0.0000 -1.0000 -0.0000
vn 1.0000 -0.0000 -0.0000
vn -0.0000 -0.0000 1.0000
vn -0.0000 -0.0000 -1.0000
vn -1.0000 -0.0000 -0.0000
vt 0.625000 0.500000
vt 0.625000 0.750000
vt 0.875000 0.750000
vt 0.875000 0.500000
vt 0.190467 0.500000
vt 0.125000 0.500000
vt 0.125000 0.750000
vt 0.190467 0.750000
vt 0.331355 0.771822
vt 0.440467 0.750000
vt 0.440467 0.500000
vt 0.331355 0.478178
vt 0.440467 0.000000
vt 0.440467 0.250000
vt 0.625000 0.250000
vt 0.625000 0.000000
vt 0.375000 0.934533
vt 0.440467 1.000000
vt 0.625000 1.000000
vt 0.375000 0.315467
s 0
f 4/1/1 3/2/1 1/3/1 2/4/1
f 7/5/2 8/6/2 5/7/2 6/8/2
f 9/9/3 10/10/3 11/11/3 12/12/3
f 7/5/4 6/8/4 9/9/4 12/12/4
f 5/13/5 8/14/5 2/15/5 1/16/5
f 9/9/6 6/17/6 5/18/6 1/19/6 3/2/6 10/10/6
f 7/20/7 12/12/7 11/11/7 4/1/7 2/15/7 8/14/7
f 11/11/8 10/10/8 3/2/8 4/1/8
