# Blender 5.1.1
# www.blender.org
mtllib Pillow.mtl
o Pillow
v 0.815778 -0.126311 -0.489467
v 0.815778 0.126311 -0.489467
v 0.815778 -0.126311 0.489467
v 0.815778 0.126311 0.489467
v -0.815778 -0.126311 -0.489467
v -0.815778 0.126311 -0.489467
v -0.815778 -0.126311 0.489467
v -0.815778 0.126311 0.489467
v 0.000000 -0.144734 0.517100
v 0.000000 0.144734 0.517100
v 0.000000 -0.144734 -0.517100
v 0.000000 0.144734 -0.517100
v 0.861834 -0.144734 0.000000
v 0.861834 0.144734 0.000000
v -0.861834 -0.144734 0.000000
v -0.861834 0.144734 0.000000
v 0.000000 0.200000 0.000000
v 0.000000 -0.200000 0.000000
v 0.857264 -0.142906 -0.289033
v 0.852694 0.000000 -0.511617
v 0.857264 0.142906 0.289033
v 0.852694 0.000000 0.511617
v 0.481721 -0.142906 0.514358
v -0.481721 0.142906 0.514358
v -0.852694 0.000000 0.511617
v -0.857264 -0.142906 0.289033
v -0.857264 0.142906 -0.289033
v -0.852694 0.000000 -0.511617
v -0.481721 -0.142906 -0.514358
v 0.481721 0.142906 -0.514358
v -0.481721 -0.142906 0.514358
v 0.481721 0.142906 0.514358
v 0.481721 -0.142906 -0.514358
v -0.481721 0.142906 -0.514358
v 0.000000 0.194516 -0.291775
v 0.000000 -0.194516 -0.291775
v 0.000000 0.000000 -0.583549
v 0.000000 0.000000 0.583549
v 0.857264 -0.142906 0.289033
v 0.857264 0.142906 -0.289033
v -0.857264 -0.142906 -0.289033
v -0.857264 0.142906 0.289033
v 0.000000 0.194516 0.291775
v 0.000000 -0.194516 0.291775
v 0.486291 -0.194516 0.000000
v -0.486291 0.194516 0.000000
v 0.486291 0.194516 0.000000
v -0.486291 -0.194516 0.000000
v -0.972582 0.000000 0.000000
v 0.972582 0.000000 0.000000
v 0.958873 0.000000 -0.291775
v -0.958873 0.000000 0.291775
v -0.486291 -0.189033 0.291775
v 0.486291 0.189033 0.291775
v -0.486291 0.189033 0.291775
v 0.486291 -0.189033 0.291775
v 0.486291 0.000000 0.575324
v -0.486291 0.000000 -0.575324
v 0.486291 -0.189033 -0.291775
v -0.486291 0.189033 -0.291775
v 0.486291 0.189033 -0.291775
v -0.486291 -0.189033 -0.291775
v 0.486291 0.000000 -0.575324
v -0.958873 0.000000 -0.291775
v -0.486291 0.000000 0.575324
v 0.958873 0.000000 0.291775
vn 0.8332 0.4574 0.3108
vn -0.1265 0.3104 0.9422
vn -0.8332 0.4574 -0.3108
vn 0.1265 0.3104 -0.9422
vn -0.0936 -0.9833 -0.1560
vn 0.0936 0.9833 -0.1560
vn -0.0080 0.9778 -0.2095
vn 0.0080 -0.9778 -0.2095
vn -0.0111 0.4051 -0.9142
vn 0.0111 0.4051 0.9142
vn 0.0113 -0.9998 0.0188
vn -0.0113 0.9998 0.0188
vn 0.1275 0.9918 0.0135
vn -0.1275 -0.9918 0.0135
vn -0.8041 0.5939 0.0272
vn 0.8041 0.5939 -0.0272
vn 0.8041 -0.5939 -0.0272
vn 0.8332 -0.4574 -0.3108
vn 0.8332 0.4574 -0.3108
vn -0.8041 -0.5939 0.0272
vn -0.8332 -0.4574 0.3108
vn -0.8332 0.4574 0.3108
vn -0.0113 -0.9998 0.0188
vn -0.0080 -0.9778 0.2095
vn -0.0936 -0.9833 0.1560
vn 0.0113 0.9998 0.0188
vn 0.0080 0.9778 0.2095
vn 0.0936 0.9833 0.1560
vn -0.1275 0.9918 0.0135
vn -0.0936 0.9833 0.1560
vn -0.0080 0.9778 0.2095
vn 0.1275 -0.9918 0.0135
vn 0.0936 -0.9833 0.1560
vn 0.0080 -0.9778 0.2095
vn 0.0111 -0.4051 0.9142
vn 0.1265 -0.3104 0.9422
vn 0.1265 0.3104 0.9422
vn -0.0111 -0.4051 -0.9142
vn -0.1265 -0.3104 -0.9422
vn -0.1265 0.3104 -0.9422
vn 0.0936 -0.9833 -0.1560
vn 0.1275 -0.9918 -0.0135
vn 0.0113 -0.9998 -0.0188
vn -0.0936 0.9833 -0.1560
vn -0.1275 0.9918 -0.0135
vn -0.0113 0.9998 -0.0188
vn 0.0080 0.9778 -0.2095
vn 0.0113 0.9998 -0.0188
vn 0.1275 0.9918 -0.0135
vn -0.0080 -0.9778 -0.2095
vn -0.0113 -0.9998 -0.0188
vn -0.1275 -0.9918 -0.0135
vn 0.1265 -0.3104 -0.9422
vn 0.0111 -0.4051 -0.9142
vn 0.0111 0.4051 -0.9142
vn -0.8332 -0.4574 -0.3108
vn -0.8041 -0.5939 -0.0272
vn -0.8041 0.5939 -0.0272
vn -0.1265 -0.3104 0.9422
vn -0.0111 -0.4051 0.9142
vn -0.0111 0.4051 0.9142
vn 0.8332 -0.4574 0.3108
vn 0.8041 -0.5939 0.0272
vn 0.8041 0.5939 0.0272
vt 0.500000 0.187500
vt 0.625000 0.187500
vt 0.625000 0.250000
vt 0.500000 0.250000
vt 0.500000 0.437500
vt 0.625000 0.437500
vt 0.625000 0.500000
vt 0.500000 0.500000
vt 0.500000 0.687500
vt 0.625000 0.687500
vt 0.625000 0.750000
vt 0.500000 0.750000
vt 0.500000 0.937500
vt 0.625000 0.937500
vt 0.625000 1.000000
vt 0.500000 1.000000
vt 0.312500 0.687500
vt 0.375000 0.687500
vt 0.375000 0.750000
vt 0.312500 0.750000
vt 0.812500 0.687500
vt 0.875000 0.687500
vt 0.875000 0.750000
vt 0.812500 0.750000
vt 0.687500 0.687500
vt 0.750000 0.687500
vt 0.750000 0.750000
vt 0.687500 0.750000
vt 0.187500 0.687500
vt 0.250000 0.687500
vt 0.250000 0.750000
vt 0.187500 0.750000
vt 0.500000 0.812500
vt 0.625000 0.812500
vt 0.625000 0.875000
vt 0.500000 0.875000
vt 0.500000 0.312500
vt 0.625000 0.312500
vt 0.625000 0.375000
vt 0.500000 0.375000
vt 0.187500 0.562500
vt 0.250000 0.562500
vt 0.250000 0.625000
vt 0.187500 0.625000
vt 0.687500 0.562500
vt 0.750000 0.562500
vt 0.750000 0.625000
vt 0.687500 0.625000
vt 0.812500 0.562500
vt 0.875000 0.562500
vt 0.875000 0.625000
vt 0.812500 0.625000
vt 0.312500 0.562500
vt 0.375000 0.562500
vt 0.375000 0.625000
vt 0.312500 0.625000
vt 0.500000 0.562500
vt 0.625000 0.562500
vt 0.625000 0.625000
vt 0.500000 0.625000
vt 0.500000 0.062500
vt 0.625000 0.062500
vt 0.625000 0.125000
vt 0.500000 0.125000
vt 0.375000 0.062500
vt 0.375000 0.125000
vt 0.375000 0.000000
vt 0.500000 0.000000
vt 0.625000 0.000000
vt 0.375000 0.500000
vt 0.250000 0.500000
vt 0.312500 0.500000
vt 0.750000 0.500000
vt 0.812500 0.500000
vt 0.875000 0.500000
vt 0.687500 0.500000
vt 0.125000 0.562500
vt 0.125000 0.625000
vt 0.125000 0.500000
vt 0.187500 0.500000
vt 0.375000 0.312500
vt 0.375000 0.375000
vt 0.375000 0.250000
vt 0.375000 0.812500
vt 0.375000 0.875000
vt 0.125000 0.687500
vt 0.125000 0.750000
vt 0.375000 0.937500
vt 0.375000 1.000000
vt 0.375000 0.437500
vt 0.375000 0.187500
s 0
f 66/1/1 21/2/1 4/3/1 22/4/1
f 65/5/2 24/6/2 8/7/2 25/8/2
f 64/9/3 27/10/3 6/11/3 28/12/3
f 63/13/4 30/14/4 2/15/4 20/16/4
f 62/17/5 41/18/5 5/19/5 29/20/5
f 61/21/6 40/22/6 2/23/6 30/24/6
f 60/25/7 35/26/7 12/27/7 34/28/7
f 59/29/8 36/30/8 11/31/8 33/32/8
f 58/33/9 34/34/9 12/35/9 37/36/9
f 57/37/10 32/38/10 10/39/10 38/40/10
f 56/41/11 44/42/11 18/43/11 45/44/11
f 55/45/12 43/46/12 17/47/12 46/48/12
f 54/49/13 21/50/13 14/51/13 47/52/13
f 53/53/14 26/54/14 15/55/14 48/56/14
f 52/57/15 42/58/15 16/59/15 49/60/15
f 51/61/16 40/62/16 14/63/16 50/64/16
f 19/65/17 51/61/17 50/64/17 13/66/17
f 1/67/18 20/68/18 51/61/18 19/65/18
f 20/68/19 2/69/19 40/62/19 51/61/19
f 26/54/20 52/57/20 49/60/20 15/55/20
f 7/70/21 25/8/21 52/57/21 26/54/21
f 25/8/22 8/7/22 42/58/22 52/57/22
f 44/42/23 53/53/23 48/56/23 18/43/23
f 9/71/24 31/72/24 53/53/24 44/42/24
f 31/72/25 7/70/25 26/54/25 53/53/25
f 43/46/26 54/49/26 47/52/26 17/47/26
f 10/73/27 32/74/27 54/49/27 43/46/27
f 32/74/28 4/75/28 21/50/28 54/49/28
f 42/58/29 55/45/29 46/48/29 16/59/29
f 8/7/30 24/76/30 55/45/30 42/58/30
f 24/76/31 10/73/31 43/46/31 55/45/31
f 39/77/32 56/41/32 45/44/32 13/78/32
f 3/79/33 23/80/33 56/41/33 39/77/33
f 23/80/34 9/71/34 44/42/34 56/41/34
f 23/81/35 57/37/35 38/40/35 9/82/35
f 3/83/36 22/4/36 57/37/36 23/81/36
f 22/4/37 4/3/37 32/38/37 57/37/37
f 29/84/38 58/33/38 37/36/38 11/85/38
f 5/19/39 28/12/39 58/33/39 29/84/39
f 28/12/40 6/11/40 34/34/40 58/33/40
f 19/86/41 59/29/41 33/32/41 1/87/41
f 13/78/42 45/44/42 59/29/42 19/86/42
f 45/44/43 18/43/43 36/30/43 59/29/43
f 27/10/44 60/25/44 34/28/44 6/11/44
f 16/59/45 46/48/45 60/25/45 27/10/45
f 46/48/46 17/47/46 35/26/46 60/25/46
f 35/26/47 61/21/47 30/24/47 12/27/47
f 17/47/48 47/52/48 61/21/48 35/26/48
f 47/52/49 14/51/49 40/22/49 61/21/49
f 36/30/50 62/17/50 29/20/50 11/31/50
f 18/43/51 48/56/51 62/17/51 36/30/51
f 48/56/52 15/55/52 41/18/52 62/17/52
f 33/88/53 63/13/53 20/16/53 1/89/53
f 11/85/54 37/36/54 63/13/54 33/88/54
f 37/36/55 12/35/55 30/14/55 63/13/55
f 41/18/56 64/9/56 28/12/56 5/19/56
f 15/55/57 49/60/57 64/9/57 41/18/57
f 49/60/58 16/59/58 27/10/58 64/9/58
f 31/90/59 65/5/59 25/8/59 7/70/59
f 9/82/60 38/40/60 65/5/60 31/90/60
f 38/40/61 10/39/61 24/6/61 65/5/61
f 39/91/62 66/1/62 22/4/62 3/83/62
f 13/66/63 50/64/63 66/1/63 39/91/63
f 50/64/64 14/63/64 21/2/64 66/1/64
