# Blender 5.1.1
# www.blender.org
mtllib PipeShapeR.mtl
o PipeShapeR
v 0.433013 0.000000 -0.250000
v 0.250000 0.000000 -0.433013
v 0.000000 0.000000 -0.500000
v -0.250000 0.000000 -0.433013
v -0.433013 0.000000 -0.250000
v -0.500000 0.000000 0.000000
v -0.433013 0.000000 0.250000
v -0.250000 0.000000 0.433012
v -0.000000 0.000000 0.500000
v 0.250000 0.000000 0.433013
v 0.433012 0.000000 0.250000
v 0.500000 0.000000 0.000000
v 0.433013 1.019615 -0.249229
v 0.250000 1.033974 -0.431678
v 0.000000 1.039229 -0.498459
v -0.250000 1.033974 -0.431678
v -0.433013 1.019615 -0.249229
v -0.500000 1.000000 0.000000
v -0.433013 0.980385 0.249229
v -0.250000 0.966026 0.431678
v -0.000000 0.960770 0.498459
v 0.250000 0.966026 0.431678
v 0.433013 0.980385 0.249229
v 0.500000 1.000000 0.000000
v 0.433013 1.386271 -0.188821
v 0.250000 1.442825 -0.362876
v 0.000000 1.463525 -0.426585
v -0.250000 1.442825 -0.362876
v -0.433013 1.386271 -0.188821
v -0.500000 1.309017 0.048944
v -0.433013 1.231763 0.286707
v -0.250000 1.175209 0.460763
v -0.000000 1.154508 0.524471
v 0.250000 1.175209 0.460763
v 0.433012 1.231763 0.286708
v 0.500000 1.309017 0.048944
v 0.433013 1.734731 -0.011271
v 0.250000 1.842304 -0.159331
v 0.000000 1.881678 -0.213526
v -0.250000 1.842304 -0.159331
v -0.433013 1.734732 -0.011271
v -0.500000 1.587785 0.190983
v -0.433013 1.440839 0.393237
v -0.250000 1.333267 0.541297
v -0.000000 1.293893 0.595491
v 0.250000 1.333267 0.541298
v 0.433012 1.440839 0.393237
v 0.500000 1.587785 0.190984
v 0.433013 2.011271 0.265268
v 0.250000 2.159331 0.157696
v 0.000000 2.213525 0.118322
v -0.250000 2.159332 0.157696
v -0.433013 2.011271 0.265268
v -0.500000 1.809017 0.412214
v -0.433013 1.606763 0.559161
v -0.250000 1.458703 0.666733
v -0.000000 1.404508 0.706107
v 0.250000 1.458702 0.666734
v 0.433012 1.606762 0.559161
v 0.500000 1.809016 0.412215
v 0.433013 2.188821 0.613729
v 0.250000 2.362876 0.557175
v 0.000000 2.426585 0.536474
v -0.250000 2.362876 0.557175
v -0.433013 2.188821 0.613729
v -0.500000 1.951057 0.690983
v -0.433013 1.713293 0.768237
v -0.250000 1.539237 0.824791
v -0.000000 1.475528 0.845491
v 0.250000 1.539237 0.824791
v 0.433012 1.713292 0.768237
v 0.500000 1.951056 0.690983
v 0.433013 2.249229 0.980385
v 0.250000 2.431678 0.966026
v 0.000000 2.498459 0.960771
v -0.250000 2.431678 0.966026
v -0.433013 2.249229 0.980385
v -0.500000 2.000000 1.000000
v -0.433013 1.750771 1.019614
v -0.250000 1.568322 1.033974
v -0.000000 1.501541 1.039229
v 0.250000 1.568322 1.033974
v 0.433012 1.750770 1.019615
v 0.500000 2.000000 1.000000
v 0.433013 2.250000 2.000000
v 0.250000 2.433012 2.000000
v 0.000000 2.500000 2.000000
v -0.250000 2.433013 2.000000
v -0.433013 2.250000 2.000000
v -0.500000 2.000000 2.000000
v -0.433013 1.750000 2.000000
v -0.250000 1.566987 2.000000
v -0.000000 1.500000 2.000000
v 0.250000 1.566987 2.000000
v 0.433012 1.750000 2.000000
v 0.500000 2.000000 2.000000
v 0.433013 0.203923 -0.249846
v 0.500000 0.200000 0.000000
v 0.250000 0.206795 -0.432746
v 0.000000 0.207846 -0.499692
v -0.250000 0.206795 -0.432746
v -0.433013 0.203923 -0.249846
v -0.500000 0.200000 0.000000
v -0.433013 0.196077 0.249846
v -0.250000 0.193205 0.432746
v -0.000000 0.192154 0.499692
v 0.250000 0.193205 0.432746
v 0.433012 0.196077 0.249846
v 0.433013 2.249846 1.796077
v 0.500000 2.000000 1.800000
v 0.250000 2.432745 1.793205
v 0.000000 2.499692 1.792154
v -0.250000 2.432746 1.793205
v -0.433013 2.249846 1.796077
v -0.500000 2.000000 1.800000
v -0.433013 1.750154 1.803923
v -0.250000 1.567254 1.806795
v -0.000000 1.500308 1.807846
v 0.250000 1.567254 1.806795
v 0.433012 1.750154 1.803923
v 0.476308 0.000021 -0.275009
v 0.550000 0.000005 0.000001
v 0.274991 0.000053 -0.476319
v 0.000000 0.000069 -0.550000
v -0.274990 0.000053 -0.476319
v -0.476308 0.000021 -0.275010
v -0.550000 0.000005 0.000000
v -0.476308 0.000022 0.275009
v -0.274990 0.000057 0.476319
v -0.000001 0.000075 0.550000
v 0.274989 0.000057 0.476320
v 0.476308 0.000022 0.275010
v 0.476258 2.274943 1.796056
v 0.476308 2.275009 1.999979
v 0.550000 2.000000 1.999994
v 0.550000 2.000129 1.799994
v 0.274944 2.476079 1.793152
v 0.274991 2.476319 1.999947
v 0.000000 2.549692 1.792085
v 0.000000 2.550000 1.999930
v -0.274943 2.476079 1.793152
v -0.274990 2.476319 1.999947
v -0.476258 2.274943 1.796056
v -0.476308 2.275010 1.999979
v -0.550000 2.000129 1.799994
v -0.550000 2.000000 1.999994
v -0.476370 1.725251 1.803901
v -0.476308 1.724990 1.999977
v -0.275056 1.523985 1.806738
v -0.274990 1.523680 1.999943
v -0.000001 1.450308 1.807772
v -0.000001 1.450000 1.999926
v 0.275055 1.523985 1.806738
v 0.274989 1.523680 1.999943
v 0.476369 1.725250 1.803901
v 0.476308 1.724990 1.999977
v 0.476258 0.203944 -0.274943
v 0.550000 0.200005 -0.000129
v 0.274944 0.206848 -0.476079
v 0.000000 0.207915 -0.549692
v -0.274943 0.206848 -0.476080
v -0.476257 0.203944 -0.274943
v -0.550000 0.200005 -0.000130
v -0.476370 0.196099 0.274749
v -0.275056 0.193262 0.476014
v -0.000001 0.192229 0.549692
v 0.275055 0.193262 0.476015
v 0.476369 0.196099 0.274750
vn 0.9658 0.0001 -0.2593
vn 0.7065 0.0007 -0.7077
vn 0.2584 0.0013 -0.9660
vn -0.2584 0.0013 -0.9660
vn -0.7065 0.0007 -0.7077
vn -0.9658 0.0001 -0.2593
vn -0.9658 0.0001 0.2593
vn -0.7064 0.0008 0.7078
vn -0.2584 0.0014 0.9660
vn 0.2584 0.0014 0.9660
vn 0.7064 0.0008 0.7078
vn 0.9658 0.0001 0.2593
vn 0.9654 0.0416 -0.2573
vn 0.7045 0.1166 -0.7001
vn 0.2570 0.1609 -0.9529
vn -0.2570 0.1609 -0.9529
vn -0.7045 0.1166 -0.7001
vn -0.9654 0.0416 -0.2573
vn -0.9654 -0.0397 0.2577
vn -0.7041 -0.1016 0.7028
vn -0.2567 -0.1309 0.9576
vn 0.2567 -0.1309 0.9576
vn 0.7041 -0.1016 0.7028
vn 0.9654 -0.0397 0.2577
vn 0.9651 0.1189 -0.2333
vn 0.7027 0.3230 -0.6339
vn 0.2558 0.4389 -0.8614
vn -0.2558 0.4389 -0.8614
vn -0.7027 0.3230 -0.6339
vn -0.9651 0.1189 -0.2333
vn -0.9651 -0.1189 0.2333
vn -0.7027 -0.3230 0.6339
vn -0.2558 -0.4389 0.8614
vn 0.2558 -0.4389 0.8614
vn 0.7027 -0.3230 0.6339
vn 0.9651 -0.1189 0.2333
vn 0.9651 0.1851 -0.1851
vn 0.7027 0.5031 -0.5031
vn 0.2558 0.6836 -0.6836
vn -0.2558 0.6836 -0.6836
vn -0.7027 0.5031 -0.5031
vn -0.9651 0.1851 -0.1851
vn -0.9651 -0.1851 0.1851
vn -0.7027 -0.5031 0.5031
vn -0.2558 -0.6836 0.6836
vn 0.2558 -0.6836 0.6836
vn 0.7027 -0.5031 0.5031
vn 0.9651 -0.1851 0.1851
vn 0.9651 0.2333 -0.1189
vn 0.7027 0.6339 -0.3230
vn 0.2558 0.8614 -0.4389
vn -0.2558 0.8614 -0.4389
vn -0.7027 0.6339 -0.3230
vn -0.9651 0.2333 -0.1189
vn -0.9651 -0.2333 0.1189
vn -0.7027 -0.6339 0.3230
vn -0.2558 -0.8614 0.4389
vn 0.2558 -0.8614 0.4389
vn 0.7027 -0.6339 0.3230
vn 0.9651 -0.2333 0.1189
vn 0.9654 0.2573 -0.0416
vn 0.7045 0.7001 -0.1166
vn 0.2570 0.9529 -0.1609
vn -0.2570 0.9529 -0.1609
vn -0.7045 0.7001 -0.1166
vn -0.9654 0.2573 -0.0416
vn -0.9654 -0.2577 0.0397
vn -0.7041 -0.7028 0.1016
vn -0.2567 -0.9576 0.1309
vn 0.2567 -0.9576 0.1309
vn 0.7041 -0.7028 0.1016
vn 0.9654 -0.2577 0.0397
vn -0.0003 0.0001 1.0000
vn 0.0003 -1.0000 -0.0012
vn 0.0040 -0.0139 -0.9999
vn -0.0041 1.0000 -0.0003
vn -0.0003 -1.0000 0.0001
vn 0.0080 -0.0069 -0.9999
vn -0.0080 0.9999 0.0069
vn -0.0005 0.0006 1.0000
vn 0.0003 -0.0001 1.0000
vn 0.0041 0.0003 -1.0000
vn -0.0040 0.9999 0.0139
vn 0.0005 -1.0000 0.0006
vn -0.0000 -1.0000 -0.0000
vn 0.0005 -1.0000 -0.0006
vn 0.0005 -0.0006 1.0000
vn -0.0041 0.0003 -1.0000
vn -0.0003 0.0012 1.0000
vn -0.0003 -1.0000 -0.0001
vn -0.0080 -0.0069 -0.9999
vn 0.0035 0.9999 0.0140
vn 0.0003 -0.0013 1.0000
vn -0.0040 -0.0139 -0.9999
vn 0.0003 -1.0000 0.0013
vn 0.0003 0.0012 1.0000
vn 0.0070 0.9999 0.0081
vn 0.9658 -0.2593 -0.0001
vn 0.7064 -0.7078 -0.0008
vn 0.2584 -0.9660 -0.0014
vn -0.2584 -0.9660 -0.0014
vn -0.7064 -0.7078 -0.0008
vn -0.9658 -0.2593 -0.0001
vn -0.9658 0.2593 -0.0001
vn -0.7065 0.7077 -0.0007
vn -0.2584 0.9660 -0.0013
vn 0.2584 0.9660 -0.0013
vn 0.7065 0.7077 -0.0007
vn 0.9658 0.2593 -0.0001
vn 0.9659 0.2590 -0.0001
vn 0.7069 0.7073 -0.0007
vn 0.2587 0.9660 -0.0013
vn -0.2587 0.9660 -0.0013
vn -0.7069 0.7073 -0.0007
vn -0.9659 0.2590 -0.0001
vn -0.9659 -0.2588 -0.0001
vn -0.7071 -0.7072 -0.0008
vn -0.2588 -0.9659 -0.0015
vn 0.2588 -0.9659 -0.0015
vn 0.7071 -0.7072 -0.0008
vn 0.9659 -0.2588 -0.0001
vn 0.9659 0.0001 0.2588
vn 0.7071 0.0008 0.7072
vn 0.2588 0.0015 0.9659
vn -0.2588 0.0015 0.9659
vn -0.7071 0.0008 0.7072
vn -0.9659 0.0001 0.2588
vn -0.9659 0.0001 -0.2590
vn -0.7069 0.0007 -0.7073
vn -0.2587 0.0013 -0.9660
vn 0.2587 0.0013 -0.9660
vn 0.7069 0.0007 -0.7073
vn 0.9659 0.0001 -0.2590
vn 0.0003 -1.0000 0.0001
vn 0.0041 1.0000 -0.0003
vn -0.0035 -0.0140 -0.9999
vn 0.0080 0.9999 0.0069
vn -0.0070 -0.0080 -0.9999
vn -0.0005 -1.0000 0.0006
vn -0.0003 -0.0001 1.0000
vn 0.0040 0.9999 0.0139
vn -0.0034 -0.0022 -1.0000
vn 0.0003 0.0001 1.0000
vn -0.0003 -1.0000 -0.0012
vn -0.0035 0.9999 0.0140
vn 0.0034 -0.0022 -1.0000
vn -0.0005 -0.0006 1.0000
vn -0.0070 0.9999 0.0081
vn 0.0070 -0.0080 -0.9999
vn -0.0003 -1.0000 0.0013
vn -0.0034 1.0000 0.0022
vn 0.0035 -0.0140 -0.9999
vn 0.0005 0.0006 1.0000
vn -0.0005 -1.0000 -0.0006
vn -0.0003 -0.0013 1.0000
vn 0.0034 1.0000 0.0022
vn 0.0003 -1.0000 -0.0001
vn -0.0000 -0.0000 1.0000
vt 0.028571 1.000000
vt 0.142857 1.000000
vt 0.142857 0.916667
vt 0.028571 0.916667
vt 0.028571 0.083333
vt 0.142857 0.083333
vt 0.142857 0.000000
vt 0.028571 0.000000
vt 0.028571 0.166667
vt 0.142857 0.166667
vt 0.028571 0.250000
vt 0.142857 0.250000
vt 0.028571 0.333333
vt 0.142857 0.333333
vt 0.028571 0.416667
vt 0.142857 0.416667
vt 0.028571 0.500000
vt 0.142857 0.500000
vt 0.028571 0.583333
vt 0.142857 0.583333
vt 0.028571 0.666667
vt 0.142857 0.666667
vt 0.028571 0.750000
vt 0.142857 0.750000
vt 0.028571 0.833333
vt 0.142857 0.833333
vt 0.285714 1.000000
vt 0.285714 0.916667
vt 0.285714 0.083333
vt 0.285714 0.000000
vt 0.285714 0.166667
vt 0.285714 0.250000
vt 0.285714 0.333333
vt 0.285714 0.416667
vt 0.285714 0.500000
vt 0.285714 0.583333
vt 0.285714 0.666667
vt 0.285714 0.750000
vt 0.285714 0.833333
vt 0.428571 1.000000
vt 0.428571 0.916667
vt 0.428571 0.083333
vt 0.428571 0.000000
vt 0.428571 0.166667
vt 0.428571 0.250000
vt 0.428571 0.333333
vt 0.428571 0.416667
vt 0.428571 0.500000
vt 0.428571 0.583333
vt 0.428571 0.666667
vt 0.428571 0.750000
vt 0.428571 0.833333
vt 0.571429 1.000000
vt 0.571429 0.916667
vt 0.571429 0.083333
vt 0.571429 0.000000
vt 0.571429 0.166667
vt 0.571429 0.250000
vt 0.571429 0.333333
vt 0.571429 0.416667
vt 0.571429 0.500000
vt 0.571429 0.583333
vt 0.571429 0.666667
vt 0.571429 0.750000
vt 0.571429 0.833333
vt 0.714286 1.000000
vt 0.714286 0.916667
vt 0.714286 0.083333
vt 0.714286 0.000000
vt 0.714286 0.166667
vt 0.714286 0.250000
vt 0.714286 0.333333
vt 0.714286 0.416667
vt 0.714286 0.500000
vt 0.714286 0.583333
vt 0.714286 0.666667
vt 0.714286 0.750000
vt 0.714286 0.833333
vt 0.857143 1.000000
vt 0.857143 0.916667
vt 0.857143 0.083333
vt 0.857143 0.000000
vt 0.857143 0.166667
vt 0.857143 0.250000
vt 0.857143 0.333333
vt 0.857143 0.416667
vt 0.857143 0.500000
vt 0.857143 0.583333
vt 0.857143 0.666667
vt 0.857143 0.750000
vt 0.857143 0.833333
vt 0.000000 0.000000
vt 0.000000 0.083333
vt 0.000000 0.166667
vt 0.971429 0.416667
vt 0.971429 0.500000
vt 0.000000 0.416667
vt 0.000000 0.500000
vt 0.971429 0.583333
vt 0.971429 0.666667
vt 0.000000 0.750000
vt 0.000000 0.833333
vt 0.000000 0.916667
vt 0.000000 0.666667
vt 0.000000 0.583333
vt 0.000000 0.333333
vt 0.000000 0.250000
vt 0.971429 0.750000
vt 0.971429 0.833333
vt 0.971429 0.916667
vt 0.971429 0.333333
vt 0.971429 0.250000
vt 0.971429 0.166667
vt 0.971429 0.083333
vt 0.971429 0.000000
vt 0.971429 1.000000
vt 1.000000 1.000000
vt 1.000000 0.916667
vt 1.000000 0.083333
vt 1.000000 0.000000
vt 1.000000 0.166667
vt 1.000000 0.250000
vt 1.000000 0.333333
vt 1.000000 0.416667
vt 1.000000 0.500000
vt 1.000000 0.583333
vt 1.000000 0.666667
vt 1.000000 0.750000
vt 1.000000 0.833333
vt 0.000000 1.000000
s 0
f 97/1/1 13/2/1 24/3/1 98/4/1
f 99/5/2 14/6/2 13/7/2 97/8/2
f 100/9/3 15/10/3 14/6/3 99/5/3
f 101/11/4 16/12/4 15/10/4 100/9/4
f 102/13/5 17/14/5 16/12/5 101/11/5
f 103/15/6 18/16/6 17/14/6 102/13/6
f 104/17/7 19/18/7 18/16/7 103/15/7
f 105/19/8 20/20/8 19/18/8 104/17/8
f 106/21/9 21/22/9 20/20/9 105/19/9
f 107/23/10 22/24/10 21/22/10 106/21/10
f 108/25/11 23/26/11 22/24/11 107/23/11
f 98/4/12 24/3/12 23/26/12 108/25/12
f 13/2/13 25/27/13 36/28/13 24/3/13
f 14/6/14 26/29/14 25/30/14 13/7/14
f 15/10/15 27/31/15 26/29/15 14/6/15
f 16/12/16 28/32/16 27/31/16 15/10/16
f 17/14/17 29/33/17 28/32/17 16/12/17
f 18/16/18 30/34/18 29/33/18 17/14/18
f 19/18/19 31/35/19 30/34/19 18/16/19
f 20/20/20 32/36/20 31/35/20 19/18/20
f 21/22/21 33/37/21 32/36/21 20/20/21
f 22/24/22 34/38/22 33/37/22 21/22/22
f 23/26/23 35/39/23 34/38/23 22/24/23
f 24/3/24 36/28/24 35/39/24 23/26/24
f 25/27/25 37/40/25 48/41/25 36/28/25
f 26/29/26 38/42/26 37/43/26 25/30/26
f 27/31/27 39/44/27 38/42/27 26/29/27
f 28/32/28 40/45/28 39/44/28 27/31/28
f 29/33/29 41/46/29 40/45/29 28/32/29
f 30/34/30 42/47/30 41/46/30 29/33/30
f 31/35/31 43/48/31 42/47/31 30/34/31
f 32/36/32 44/49/32 43/48/32 31/35/32
f 33/37/33 45/50/33 44/49/33 32/36/33
f 34/38/34 46/51/34 45/50/34 33/37/34
f 35/39/35 47/52/35 46/51/35 34/38/35
f 36/28/36 48/41/36 47/52/36 35/39/36
f 37/40/37 49/53/37 60/54/37 48/41/37
f 38/42/38 50/55/38 49/56/38 37/43/38
f 39/44/39 51/57/39 50/55/39 38/42/39
f 40/45/40 52/58/40 51/57/40 39/44/40
f 41/46/41 53/59/41 52/58/41 40/45/41
f 42/47/42 54/60/42 53/59/42 41/46/42
f 43/48/43 55/61/43 54/60/43 42/47/43
f 44/49/44 56/62/44 55/61/44 43/48/44
f 45/50/45 57/63/45 56/62/45 44/49/45
f 46/51/46 58/64/46 57/63/46 45/50/46
f 47/52/47 59/65/47 58/64/47 46/51/47
f 48/41/48 60/54/48 59/65/48 47/52/48
f 49/53/49 61/66/49 72/67/49 60/54/49
f 50/55/50 62/68/50 61/69/50 49/56/50
f 51/57/51 63/70/51 62/68/51 50/55/51
f 52/58/52 64/71/52 63/70/52 51/57/52
f 53/59/53 65/72/53 64/71/53 52/58/53
f 54/60/54 66/73/54 65/72/54 53/59/54
f 55/61/55 67/74/55 66/73/55 54/60/55
f 56/62/56 68/75/56 67/74/56 55/61/56
f 57/63/57 69/76/57 68/75/57 56/62/57
f 58/64/58 70/77/58 69/76/58 57/63/58
f 59/65/59 71/78/59 70/77/59 58/64/59
f 60/54/60 72/67/60 71/78/60 59/65/60
f 61/66/61 73/79/61 84/80/61 72/67/61
f 62/68/62 74/81/62 73/82/62 61/69/62
f 63/70/63 75/83/63 74/81/63 62/68/63
f 64/71/64 76/84/64 75/83/64 63/70/64
f 65/72/65 77/85/65 76/84/65 64/71/65
f 66/73/66 78/86/66 77/85/66 65/72/66
f 67/74/67 79/87/67 78/86/67 66/73/67
f 68/75/68 80/88/68 79/87/68 67/74/68
f 69/76/69 81/89/69 80/88/69 68/75/69
f 70/77/70 82/90/70 81/89/70 69/76/70
f 71/78/71 83/91/71 82/90/71 70/77/71
f 72/67/72 84/80/72 83/91/72 71/78/72
f 90/92/73 89/92/73 144/92/73 146/92/73
f 2/93/74 3/94/74 124/94/74 123/93/74
f 115/95/75 116/96/75 147/96/75 145/95/75
f 107/23/76 106/21/76 166/21/76 167/23/76
f 6/97/77 7/98/77 128/98/77 127/97/77
f 116/96/78 117/99/78 149/99/78 147/96/78
f 108/25/79 107/23/79 167/23/79 168/25/79
f 89/92/80 88/92/80 142/92/80 144/92/80
f 96/92/81 95/92/81 156/92/81 135/92/81
f 117/99/82 118/100/82 151/100/82 149/99/82
f 98/4/83 108/25/83 168/25/83 158/4/83
f 10/101/84 11/102/84 132/102/84 131/101/84
f 12/103/85 11/102/85 10/101/85 9/104/85 8/105/85 7/98/85 6/97/85 5/106/85 4/107/85 3/94/85 2/93/85 1/92/85
f 1/92/86 2/93/86 123/93/86 121/92/86
f 95/92/87 94/92/87 154/92/87 156/92/87
f 118/100/88 119/108/88 153/108/88 151/100/88
f 88/92/89 87/92/89 140/92/89 142/92/89
f 5/106/90 6/97/90 127/97/90 126/106/90
f 119/108/91 120/109/91 155/109/91 153/108/91
f 97/1/92 98/4/92 158/4/92 157/1/92
f 94/92/93 93/92/93 152/92/93 154/92/93
f 120/109/94 110/110/94 136/110/94 155/109/94
f 9/104/95 10/101/95 131/101/95 130/104/95
f 87/92/96 86/92/96 138/92/96 140/92/96
f 99/5/97 97/8/97 157/8/97 159/5/97
f 84/80/98 110/110/98 120/109/98 83/91/98
f 83/91/99 120/109/99 119/108/99 82/90/99
f 82/90/100 119/108/100 118/100/100 81/89/100
f 81/89/101 118/100/101 117/99/101 80/88/101
f 80/88/102 117/99/102 116/96/102 79/87/102
f 79/87/103 116/96/103 115/95/103 78/86/103
f 78/86/104 115/95/104 114/111/104 77/85/104
f 77/85/105 114/111/105 113/112/105 76/84/105
f 76/84/106 113/112/106 112/113/106 75/83/106
f 75/83/107 112/113/107 111/114/107 74/81/107
f 74/81/108 111/114/108 109/115/108 73/82/108
f 73/79/109 109/116/109 110/110/109 84/80/109
f 133/116/110 134/117/110 135/118/110 136/110/110
f 137/114/111 138/119/111 134/120/111 133/115/111
f 139/113/112 140/121/112 138/119/112 137/114/112
f 141/112/113 142/122/113 140/121/113 139/113/113
f 143/111/114 144/123/114 142/122/114 141/112/114
f 145/95/115 146/124/115 144/123/115 143/111/115
f 147/96/116 148/125/116 146/124/116 145/95/116
f 149/99/117 150/126/117 148/125/117 147/96/117
f 151/100/118 152/127/118 150/126/118 149/99/118
f 153/108/119 154/128/119 152/127/119 151/100/119
f 155/109/120 156/129/120 154/128/120 153/108/120
f 136/110/121 135/118/121 156/129/121 155/109/121
f 122/103/122 158/4/122 168/25/122 132/102/122
f 132/102/123 168/25/123 167/23/123 131/101/123
f 131/101/124 167/23/124 166/21/124 130/104/124
f 130/104/125 166/21/125 165/19/125 129/105/125
f 129/105/126 165/19/126 164/17/126 128/98/126
f 128/98/127 164/17/127 163/15/127 127/97/127
f 127/97/128 163/15/128 162/13/128 126/106/128
f 126/106/129 162/13/129 161/11/129 125/107/129
f 125/107/130 161/11/130 160/9/130 124/94/130
f 124/94/131 160/9/131 159/5/131 123/93/131
f 123/93/132 159/5/132 157/8/132 121/92/132
f 121/130/133 157/1/133 158/4/133 122/103/133
f 11/102/134 12/103/134 122/103/134 132/102/134
f 106/21/135 105/19/135 165/19/135 166/21/135
f 114/111/136 115/95/136 145/95/136 143/111/136
f 105/19/137 104/17/137 164/17/137 165/19/137
f 113/112/138 114/111/138 143/111/138 141/112/138
f 7/98/139 8/105/139 129/105/139 128/98/139
f 91/92/140 90/92/140 146/92/140 148/92/140
f 104/17/141 103/15/141 163/15/141 164/17/141
f 112/113/142 113/112/142 141/112/142 139/113/142
f 85/92/143 96/92/143 135/92/143 134/92/143
f 3/94/144 4/107/144 125/107/144 124/94/144
f 103/15/145 102/13/145 162/13/145 163/15/145
f 111/114/146 112/113/146 139/113/146 137/114/146
f 92/92/147 91/92/147 148/92/147 150/92/147
f 102/13/148 101/11/148 161/11/148 162/13/148
f 109/115/149 111/114/149 137/114/149 133/115/149
f 8/105/150 9/104/150 130/104/150 129/105/150
f 101/11/151 100/9/151 160/9/151 161/11/151
f 110/110/152 109/116/152 133/116/152 136/110/152
f 86/92/153 85/92/153 134/92/153 138/92/153
f 4/107/154 5/106/154 126/106/154 125/107/154
f 93/92/155 92/92/155 150/92/155 152/92/155
f 100/9/156 99/5/156 159/5/156 160/9/156
f 12/103/157 1/92/157 121/92/157 122/103/157
f 96/92/158 85/92/158 86/92/158 87/92/158 88/92/158 89/92/158 90/92/158 91/92/158 92/92/158 93/92/158 94/92/158 95/92/158
