# Blender 5.1.1
# www.blender.org
mtllib PipePressure.mtl
o PipePressure
v -0.433013 0.250000 1.000000
v -0.250000 0.433012 1.000000
v -0.000000 0.500000 1.000000
v 0.250000 0.433013 1.000000
v 0.433013 0.250000 1.000000
v 0.500000 0.000000 1.000000
v 0.433013 -0.250000 1.000000
v 0.250000 -0.433012 1.000000
v 0.000000 -0.500000 1.000000
v -0.250000 -0.433013 1.000000
v -0.433012 -0.250000 1.000000
v -0.500000 -0.000000 1.000000
v -0.433013 0.250000 -1.000000
v -0.250000 0.433012 -1.000000
v -0.000001 0.500000 -1.000000
v 0.249999 0.433013 -1.000000
v 0.433012 0.250000 -1.000000
v 0.500000 0.000000 -1.000000
v 0.433013 -0.250000 -1.000000
v 0.250000 -0.433012 -1.000000
v 0.000000 -0.500000 -1.000000
v -0.250000 -0.433013 -1.000000
v -0.433013 -0.250000 -1.000000
v -0.500000 -0.000000 -1.000000
v -0.433013 0.250000 -0.799999
v -0.500000 -0.000000 -0.799999
v -0.295979 0.450841 0.000000
v -0.000000 0.479780 -0.201904
v 0.295979 0.450841 0.000000
v 0.433012 0.250000 -0.799999
v 0.500000 0.000000 -0.799999
v 0.433013 -0.250000 -0.799999
v 0.250000 -0.433012 -0.799999
v 0.000000 -0.500000 -0.799999
v -0.250000 -0.433013 -0.799999
v -0.433013 -0.250000 -0.799999
v -0.433013 0.250000 0.799999
v -0.500000 -0.000000 0.799999
v -0.000000 0.479780 0.201904
v 0.433012 0.250000 0.799999
v 0.500000 0.000000 0.799999
v 0.433013 -0.250000 0.799999
v 0.250000 -0.433012 0.799999
v 0.000000 -0.500000 0.799999
v -0.250000 -0.433013 0.799999
v -0.433012 -0.250000 0.799999
v -0.571577 0.330000 1.000000
v -0.660000 -0.000000 1.000000
v -0.571577 0.330000 -0.799999
v -0.571577 0.330000 -1.000000
v -0.660000 -0.000000 -1.000000
v -0.660000 -0.000000 -0.799999
v -0.330000 0.571577 1.000000
v -0.330000 0.571577 -0.799999
v -0.330000 0.571577 -1.000000
v -0.000000 0.660000 1.000000
v -0.000001 0.660000 -0.799999
v -0.000001 0.660000 -1.000000
v 0.330000 0.571577 1.000000
v 0.329999 0.571577 -0.799999
v 0.329999 0.571577 -1.000000
v 0.571577 0.330000 1.000000
v 0.571576 0.330000 -0.799999
v 0.571576 0.330000 -1.000000
v 0.660000 0.000000 1.000000
v 0.660000 0.000000 -0.799999
v 0.660000 0.000000 -1.000000
v 0.571577 -0.330000 1.000000
v 0.571577 -0.329999 -0.799999
v 0.571577 -0.329999 -1.000000
v 0.330001 -0.571576 1.000000
v 0.330000 -0.571576 -0.799999
v 0.330000 -0.571576 -1.000000
v 0.000001 -0.660000 1.000000
v 0.000000 -0.660000 -0.799999
v 0.000000 -0.660000 -1.000000
v -0.330000 -0.571577 1.000000
v -0.330000 -0.571577 -0.799999
v -0.330000 -0.571577 -1.000000
v -0.571576 -0.330000 1.000000
v -0.571577 -0.330000 -0.799999
v -0.571577 -0.330000 -1.000000
v -0.571577 0.330000 0.799999
v -0.660000 -0.000000 0.799999
v -0.330000 0.571577 0.799999
v -0.000000 0.660000 0.799999
v 0.330000 0.571577 0.799999
v 0.571576 0.330000 0.799999
v 0.660000 0.000000 0.799999
v 0.571577 -0.329999 0.799999
v 0.330000 -0.571576 0.799999
v 0.000001 -0.660000 0.799999
v -0.330000 -0.571577 0.799999
v -0.571576 -0.330000 0.799999
v -0.105675 0.479665 0.201866
v -0.105675 0.479665 -0.201866
v 0.105674 0.479665 0.201866
v 0.105674 0.479665 -0.201866
v -0.433013 0.250000 0.000000
v -0.500000 -0.000000 0.000000
v 0.433012 0.250000 0.000000
v 0.500000 0.000000 0.000000
v 0.433013 -0.250000 0.000000
v 0.250000 -0.433012 0.000000
v 0.000000 -0.500000 0.000000
v -0.250000 -0.433013 0.000000
v -0.433013 -0.250000 0.000000
v 0.250000 0.433013 -0.799999
v -0.000000 0.500000 -0.799999
v -0.250000 0.433012 -0.799999
v -0.000000 0.500000 0.799999
v -0.250000 0.433012 0.799999
v 0.250000 0.433013 0.799999
v -0.143263 0.479719 0.000000
v 0.143262 0.479719 0.000000
v 0.107472 0.968421 0.000000
v -0.000001 0.968490 0.000000
v -0.107473 0.968421 0.000000
v -0.000001 0.968494 -0.146767
v -0.000001 0.968494 0.146767
v 0.105373 0.968375 -0.146366
v -0.105374 0.968375 -0.146366
v -0.105374 0.968375 0.146366
v 0.105373 0.968375 0.146366
v -0.400000 0.200000 0.346413
v -0.400000 0.346410 0.200001
v -0.400000 0.400000 0.000000
v -0.400000 0.346410 -0.200001
v -0.400000 0.200000 -0.346409
v -0.400000 0.000000 -0.400002
v -0.400000 -0.200000 -0.346409
v -0.400000 -0.346410 -0.200001
v -0.400000 -0.400000 0.000000
v -0.400000 -0.346410 0.200001
v -0.400000 -0.200000 0.346409
v -0.400000 -0.000000 0.400002
v -0.600000 0.200000 0.346413
v -0.600000 -0.000000 0.400002
v -0.600000 0.346410 0.200001
v -0.600000 0.400000 0.000000
v -0.600000 0.346410 -0.200001
v -0.600000 0.200000 -0.346409
v -0.600000 0.000000 -0.400002
v -0.600000 -0.200000 -0.346409
v -0.600000 -0.346410 -0.200001
v -0.600000 -0.400000 0.000000
v -0.600000 -0.346410 0.200001
v -0.600000 -0.200000 0.346409
vn -0.0000 -0.0000 -1.0000
vn -0.0000 -0.0000 1.0000
vn -0.7071 -0.7071 -0.0000
vn -0.2588 -0.9659 -0.0000
vn 0.2588 -0.9659 -0.0000
vn 0.7071 -0.7071 -0.0000
vn 0.9659 -0.2588 -0.0000
vn 0.9659 0.2588 -0.0000
vn 0.7677 0.6401 -0.0292
vn -0.7677 0.6401 -0.0292
vn -0.9659 0.2588 -0.0000
vn -0.9659 -0.2588 -0.0000
vn -0.7071 0.7071 -0.0000
vn -0.2588 0.9659 -0.0000
vn 0.2588 0.9659 -0.0000
vn 0.7071 0.7071 -0.0000
vn 0.9926 0.0431 0.1131
vn 0.0022 0.1125 -0.9937
vn -0.0022 0.1125 0.9937
vn -0.9926 0.0431 -0.1131
vn -0.7677 0.6401 0.0292
vn 0.7677 0.6401 0.0292
vn 0.1854 0.9827 0.0007
vn -0.1854 0.9827 0.0007
vn -0.1854 0.9827 -0.0007
vn 0.1854 0.9827 -0.0007
vn -0.1837 0.9824 -0.0329
vn 0.1837 0.9824 -0.0329
vn -0.1837 0.9824 0.0329
vn 0.1837 0.9824 0.0329
vn 0.0009 1.0000 -0.0001
vn -0.0009 1.0000 -0.0001
vn -0.0009 1.0000 0.0001
vn 0.0009 1.0000 0.0001
vn 0.9926 0.0431 -0.1131
vn 0.0022 0.1125 0.9937
vn -0.0022 0.1125 -0.9937
vn -0.9926 0.0431 0.1131
vn 1.0000 -0.0000 -0.0000
vn -1.0000 -0.0000 -0.0000
vn -0.0000 -0.9659 -0.2588
vn -0.0000 0.2588 -0.9659
vn -0.0000 0.9659 0.2588
vn -0.0000 -0.9659 0.2588
vn -0.0000 -0.2588 -0.9659
vn -0.0000 0.9659 -0.2588
vn -0.0000 -0.7071 0.7071
vn -0.0000 0.2588 0.9659
vn -0.0000 -0.7071 -0.7071
vn -0.0000 0.7071 -0.7071
vn -0.0000 -0.2588 0.9659
vn -0.0000 0.7071 0.7071
vt 1.000000 0.666667
vt 1.000000 0.583333
vt 0.000000 0.916667
vt 0.000000 0.000000
vt 0.000000 0.250000
vt 0.000000 0.333333
vt 0.100000 0.666667
vt 0.100000 0.583333
vt 0.900000 0.416667
vt 0.900000 0.500000
vt 1.000000 0.250000
vt 1.000000 0.166667
vt 0.100000 0.500000
vt 0.900000 0.583333
vt 0.000000 0.583333
vt 0.000000 0.666667
vt 0.100000 0.416667
vt 0.900000 0.666667
vt 1.000000 0.500000
vt 1.000000 0.916667
vt 1.000000 0.000000
vt 1.000000 0.083333
vt 1.000000 0.333333
vt 1.000000 0.416667
vt 1.000000 0.750000
vt 1.000000 0.833333
vt 0.000000 0.833333
vt 0.000000 0.750000
vt 0.000000 0.500000
vt 0.000000 0.416667
vt 0.000000 0.166667
vt 0.000000 0.083333
vt 0.500000 0.833333
vt 0.900000 0.833333
vt 0.900000 0.750000
vt 0.500000 0.750000
vt 0.500000 0.666667
vt 0.500000 0.583333
vt 0.500000 0.500000
vt 0.500000 0.416667
vt 0.900000 0.333333
vt 0.500000 0.333333
vt 0.900000 0.250000
vt 0.500000 0.250000
vt 0.500000 0.083333
vt 0.900000 0.083333
vt 0.900000 0.000000
vt 0.500000 0.000000
vt 0.500000 1.000000
vt 0.900000 1.000000
vt 0.900000 0.916667
vt 0.500000 0.916667
vt 0.100000 0.333333
vt 0.100000 0.250000
vt 0.100000 0.166667
vt 1.000000 1.000000
vt 0.900000 0.166667
vt 0.000000 1.000000
vt 0.100000 1.000000
vt 0.100000 0.916667
vt 0.100000 0.083333
vt 0.100000 0.000000
vt 0.100000 0.750000
vt 0.100000 0.833333
vt 0.110070 0.198433
vt 0.151671 0.190644
vt 0.889930 0.198433
vt 0.889927 0.166814
vt 0.110070 0.134901
vt 0.110073 0.166519
vt 0.889930 0.134901
vt 0.848329 0.142689
vt 0.848337 0.116602
vt 0.848329 0.190644
vt 0.848337 0.216731
vt 0.151671 0.142689
vt 0.151663 0.116602
vt 0.151663 0.216731
vt 0.848337 0.166667
vt 0.151663 0.166667
s 0
f 21/1/1 20/2/1 73/2/1 76/1/1
f 12/3/2 1/4/2 47/4/2 48/3/2
f 4/5/2 5/6/2 62/6/2 59/5/2
f 44/7/1 43/8/1 91/8/1 92/7/1
f 31/9/2 32/10/2 69/10/2 66/9/2
f 16/11/1 15/12/1 58/12/1 61/11/1
f 43/8/1 42/13/1 90/13/1 91/8/1
f 32/10/2 33/14/2 72/14/2 69/10/2
f 8/15/2 9/16/2 74/16/2 71/15/2
f 42/13/1 41/17/1 89/17/1 90/13/1
f 33/14/2 34/18/2 75/18/2 72/14/2
f 20/2/1 19/19/1 70/19/1 73/2/1
f 24/20/1 13/21/1 14/22/1 15/12/1 16/11/1 17/23/1 18/24/1 19/19/1 20/2/1 21/1/1 22/25/1 23/26/1
f 12/3/2 11/27/2 10/28/2 9/16/2 8/15/2 7/29/2 6/30/2 5/6/2 4/5/2 3/31/2 2/32/2 1/4/2
f 107/33/3 36/34/3 35/35/3 106/36/3
f 106/36/4 35/35/4 34/18/4 105/37/4
f 105/37/5 34/18/5 33/14/5 104/38/5
f 104/38/6 33/14/6 32/10/6 103/39/6
f 103/39/7 32/10/7 31/9/7 102/40/7
f 102/40/8 31/9/8 30/41/8 101/42/8
f 101/42/9 30/41/9 108/43/9 29/44/9
f 27/45/10 110/46/10 25/47/10 99/48/10
f 99/49/11 25/50/11 26/51/11 100/52/11
f 3/31/2 4/5/2 59/5/2 56/31/2
f 41/17/1 40/53/1 88/53/1 89/17/1
f 34/18/2 35/35/2 78/35/2 75/18/2
f 15/12/1 14/22/1 55/22/1 58/12/1
f 40/53/1 113/54/1 87/54/1 88/53/1
f 35/35/2 36/34/2 81/34/2 78/35/2
f 7/29/2 8/15/2 71/15/2 68/29/2
f 24/20/1 23/26/1 82/26/1 51/20/1
f 113/54/1 111/55/1 86/55/1 87/54/1
f 36/34/2 26/51/2 52/51/2 81/34/2
f 19/19/1 18/24/1 67/24/1 70/19/1
f 11/27/2 12/3/2 48/3/2 80/27/2
f 100/52/12 26/51/12 36/34/12 107/33/12
f 49/50/11 50/56/11 51/20/11 52/51/11
f 54/46/13 55/22/13 50/21/13 49/47/13
f 57/57/14 58/12/14 55/22/14 54/46/14
f 60/43/15 61/11/15 58/12/15 57/57/15
f 63/41/16 64/23/16 61/11/16 60/43/16
f 66/9/8 67/24/8 64/23/8 63/41/8
f 69/10/7 70/19/7 67/24/7 66/9/7
f 72/14/6 73/2/6 70/19/6 69/10/6
f 75/18/5 76/1/5 73/2/5 72/14/5
f 78/35/4 79/25/4 76/1/4 75/18/4
f 81/34/3 82/26/3 79/25/3 78/35/3
f 52/51/12 51/20/12 82/26/12 81/34/12
f 47/58/11 83/59/11 84/60/11 48/3/11
f 53/32/13 85/61/13 83/62/13 47/4/13
f 56/31/14 86/55/14 85/61/14 53/32/14
f 59/5/15 87/54/15 86/55/15 56/31/15
f 62/6/16 88/53/16 87/54/16 59/5/16
f 65/30/8 89/17/8 88/53/8 62/6/8
f 68/29/7 90/13/7 89/17/7 65/30/7
f 71/15/6 91/8/6 90/13/6 68/29/6
f 74/16/5 92/7/5 91/8/5 71/15/5
f 77/28/4 93/63/4 92/7/4 74/16/4
f 80/27/3 94/64/3 93/63/3 77/28/3
f 48/3/12 84/60/12 94/64/12 80/27/12
f 30/41/2 31/9/2 66/9/2 63/41/2
f 45/63/1 44/7/1 92/7/1 93/63/1
f 9/16/2 10/28/2 77/28/2 74/16/2
f 108/43/2 30/41/2 63/41/2 60/43/2
f 46/64/1 45/63/1 93/63/1 94/64/1
f 17/23/1 16/11/1 61/11/1 64/23/1
f 13/21/1 24/20/1 51/20/1 50/21/1
f 109/57/2 108/43/2 60/43/2 57/57/2
f 38/60/1 46/64/1 94/64/1 84/60/1
f 5/6/2 6/30/2 65/30/2 62/6/2
f 22/25/1 21/1/1 76/1/1 79/25/1
f 110/46/2 109/57/2 57/57/2 54/46/2
f 1/4/2 2/32/2 53/32/2 47/4/2
f 10/28/2 11/27/2 80/27/2 77/28/2
f 25/47/2 110/46/2 54/46/2 49/47/2
f 18/24/1 17/23/1 64/23/1 67/24/1
f 37/59/1 38/60/1 84/60/1 83/59/1
f 26/51/2 25/50/2 49/50/2 52/51/2
f 6/30/2 7/29/2 68/29/2 65/30/2
f 112/61/1 37/62/1 83/62/1 85/61/1
f 14/22/1 13/21/1 50/21/1 55/22/1
f 23/26/1 22/25/1 79/25/1 82/26/1
f 111/55/1 112/61/1 85/61/1 86/55/1
f 2/32/2 3/31/2 56/31/2 53/32/2
f 97/65/17 115/66/17 116/66/17 124/65/17
f 98/67/18 28/68/18 119/68/18 121/67/18
f 95/69/19 39/70/19 120/70/19 123/69/19
f 96/71/20 114/72/20 118/72/20 122/71/20
f 38/60/12 100/52/12 107/33/12 46/64/12
f 37/59/11 99/49/11 100/52/11 38/60/11
f 112/61/21 27/45/21 99/48/21 37/62/21
f 40/53/22 101/42/22 29/44/22 113/54/22
f 41/17/8 102/40/8 101/42/8 40/53/8
f 42/13/7 103/39/7 102/40/7 41/17/7
f 43/8/6 104/38/6 103/39/6 42/13/6
f 44/7/5 105/37/5 104/38/5 43/8/5
f 45/63/4 106/36/4 105/37/4 44/7/4
f 46/64/3 107/33/3 106/36/3 45/63/3
f 28/68/23 98/67/23 108/43/23 109/57/23
f 96/71/24 28/68/24 109/57/24 110/46/24
f 39/70/25 95/69/25 112/61/25 111/55/25
f 97/65/26 39/70/26 111/55/26 113/54/26
f 114/72/27 96/71/27 110/46/27 27/73/27
f 98/67/28 115/74/28 29/75/28 108/43/28
f 95/69/29 114/76/29 27/77/29 112/61/29
f 115/66/30 97/65/30 113/54/30 29/78/30
f 117/79/31 116/74/31 121/67/31 119/68/31
f 118/72/32 117/79/32 119/68/32 122/71/32
f 117/80/33 118/76/33 123/69/33 120/70/33
f 116/66/34 117/80/34 120/70/34 124/65/34
f 115/74/35 98/67/35 121/67/35 116/74/35
f 39/70/36 97/65/36 124/65/36 120/70/36
f 28/68/37 96/71/37 122/71/37 119/68/37
f 114/76/38 95/69/38 123/69/38 118/76/38
f 136/20/39 135/26/39 134/25/39 133/1/39 132/2/39 131/19/39 130/24/39 129/23/39 128/11/39 127/12/39 126/22/39 125/21/39
f 138/20/40 137/21/40 139/22/40 140/12/40 141/11/40 142/23/40 143/24/40 144/19/40 145/2/40 146/1/40 147/25/40 148/26/40
f 132/2/41 133/1/41 146/1/41 145/2/41
f 129/23/42 130/24/42 143/24/42 142/23/42
f 126/22/43 127/12/43 140/12/43 139/22/43
f 133/1/44 134/25/44 147/25/44 146/1/44
f 130/24/45 131/19/45 144/19/45 143/24/45
f 127/12/46 128/11/46 141/11/46 140/12/46
f 134/25/47 135/26/47 148/26/47 147/25/47
f 136/20/48 125/21/48 137/21/48 138/20/48
f 131/19/49 132/2/49 145/2/49 144/19/49
f 128/11/50 129/23/50 142/23/50 141/11/50
f 135/26/51 136/20/51 138/20/51 148/26/51
f 125/21/52 126/22/52 139/22/52 137/21/52
