# Blender 5.1.1
# www.blender.org
mtllib PipePlus.mtl
o PipePlus
v 0.433013 2.250000 -2.000000
v 0.250000 2.433012 -2.000000
v 0.000000 2.500000 -2.000000
v -0.250000 2.433013 -2.000000
v -0.433013 2.250000 -2.000000
v -0.500000 2.000000 -2.000000
v -0.433013 1.750000 -2.000000
v -0.250000 1.566988 -2.000000
v -0.000000 1.500000 -2.000000
v 0.250000 1.566987 -2.000000
v 0.433012 1.750000 -2.000000
v 0.500000 2.000000 -2.000000
v 0.433013 2.250000 2.000000
v 0.250000 2.433013 2.000000
v 0.000000 2.500000 2.000000
v -0.250000 2.433013 2.000000
v -0.433013 2.250000 2.000000
v -0.500000 2.000001 2.000000
v -0.433013 1.750001 2.000000
v -0.250000 1.566988 2.000000
v -0.000000 1.500000 2.000000
v 0.250000 1.566987 2.000000
v 0.433012 1.750000 2.000000
v 0.500000 2.000000 2.000000
v -0.433013 0.000000 0.250000
v -0.250000 0.000000 0.433013
v -0.000000 0.000000 0.500000
v 0.250000 0.000000 0.433013
v 0.433013 0.000000 0.250001
v 0.500000 0.000000 0.000001
v 0.433013 0.000000 -0.249999
v 0.250000 0.000000 -0.433012
v 0.000000 0.000000 -0.500000
v -0.250000 0.000000 -0.433013
v -0.433012 0.000000 -0.250000
v -0.500000 0.000000 -0.000000
v -0.433013 4.000000 0.250000
v -0.250000 4.000000 0.433013
v -0.000000 4.000000 0.500000
v 0.250000 4.000000 0.433013
v 0.433013 4.000000 0.250001
v 0.500000 4.000000 0.000001
v 0.433013 4.000000 -0.249999
v 0.250000 4.000000 -0.433012
v 0.000000 4.000000 -0.500000
v -0.250000 4.000000 -0.433013
v -0.433012 4.000000 -0.250000
v -0.500000 4.000000 -0.000000
v -0.433013 0.200000 0.250000
v -0.500000 0.200000 -0.000000
v -0.250000 0.200000 0.433013
v -0.000000 0.200000 0.500000
v 0.250000 0.200000 0.433013
v 0.433013 0.200000 0.250001
v 0.500000 0.200000 0.000001
v 0.433013 0.200000 -0.249999
v 0.250000 0.200000 -0.433012
v 0.000000 0.200000 -0.500000
v -0.250000 0.200000 -0.433013
v -0.433012 0.200000 -0.250000
v -0.433013 3.800000 0.250000
v -0.500000 3.800000 -0.000000
v -0.250000 3.800000 0.433013
v -0.000000 3.800000 0.500000
v 0.250000 3.800000 0.433013
v 0.433013 3.800000 0.250001
v 0.500000 3.800000 0.000001
v 0.433013 3.800000 -0.249999
v 0.250000 3.800000 -0.433012
v 0.000000 3.800000 -0.500000
v -0.250000 3.800000 -0.433013
v -0.433012 3.800000 -0.250000
v 0.433013 2.250000 -1.800000
v 0.500000 2.000000 -1.800000
v 0.250000 2.433012 -1.800000
v 0.000000 2.500000 -1.800000
v -0.250000 2.433013 -1.800000
v -0.433013 2.250000 -1.800000
v -0.500000 2.000000 -1.800000
v -0.433013 1.750000 -1.800000
v -0.250000 1.566988 -1.800000
v -0.000000 1.500000 -1.800000
v 0.250000 1.566987 -1.800000
v 0.433012 1.750000 -1.800000
v 0.433013 2.250000 1.800000
v 0.500000 2.000000 1.800000
v 0.250000 2.433013 1.800000
v 0.000000 2.500000 1.800000
v -0.250000 2.433013 1.800000
v -0.433013 2.250000 1.800000
v -0.500000 2.000001 1.800000
v -0.433013 1.750001 1.800000
v -0.250000 1.566988 1.800000
v -0.000000 1.500000 1.800000
v 0.250000 1.566987 1.800000
v 0.433012 1.750000 1.800000
v 0.476314 2.275000 -2.000000
v 0.550000 2.000000 -2.000000
v 0.476314 2.275000 1.800000
v 0.476314 2.275000 2.000000
v 0.550000 2.000000 2.000000
v 0.550000 2.000000 1.800000
v 0.275000 2.476314 -2.000000
v 0.275000 2.476314 1.800000
v 0.275000 2.476314 2.000000
v 0.000000 2.550000 -2.000000
v 0.000000 2.550000 1.800000
v 0.000000 2.550000 2.000000
v -0.275000 2.476314 -2.000000
v -0.275000 2.476315 1.800000
v -0.275000 2.476315 2.000000
v -0.476314 2.275000 -2.000000
v -0.476314 2.275001 1.800000
v -0.476314 2.275001 2.000000
v -0.550000 2.000000 -2.000000
v -0.550000 2.000001 1.800000
v -0.550000 2.000001 2.000000
v -0.476314 1.725000 -2.000000
v -0.476314 1.725001 1.800000
v -0.476314 1.725001 2.000000
v -0.275000 1.523686 -2.000000
v -0.275000 1.523687 1.800000
v -0.275000 1.523687 2.000000
v -0.000001 1.450000 -2.000000
v -0.000001 1.450000 1.800000
v -0.000001 1.450000 2.000000
v 0.275000 1.523686 -2.000000
v 0.275000 1.523686 1.800000
v 0.275000 1.523686 2.000000
v 0.476314 1.725000 -2.000000
v 0.476314 1.725000 1.800000
v 0.476314 1.725000 2.000000
v -0.476314 0.000000 0.275000
v -0.550000 0.000000 -0.000000
v -0.476314 3.800000 0.275000
v -0.476314 4.000000 0.275000
v -0.550000 4.000000 -0.000000
v -0.550000 3.800000 -0.000000
v -0.275000 0.000000 0.476314
v -0.275000 3.800000 0.476314
v -0.275000 4.000000 0.476314
v -0.000000 0.000000 0.550000
v -0.000000 3.800000 0.550000
v -0.000000 4.000000 0.550000
v 0.275000 0.000000 0.476314
v 0.275000 3.800000 0.476314
v 0.275000 4.000000 0.476314
v 0.476314 0.000000 0.275000
v 0.476314 3.800000 0.275000
v 0.476314 4.000000 0.275000
v 0.550000 0.000000 0.000001
v 0.550000 3.800000 0.000001
v 0.550000 4.000000 0.000001
v 0.476314 0.000000 -0.274999
v 0.476314 3.800000 -0.274999
v 0.476314 4.000000 -0.274999
v 0.275001 0.000000 -0.476313
v 0.275001 3.800000 -0.476313
v 0.275001 4.000000 -0.476314
v 0.000001 0.000000 -0.550000
v 0.000001 3.800000 -0.550000
v 0.000001 4.000000 -0.550000
v -0.274999 0.000000 -0.476314
v -0.274999 3.800000 -0.476314
v -0.274999 4.000000 -0.476314
v -0.476314 0.000000 -0.275000
v -0.476314 3.800000 -0.275000
v -0.476314 4.000000 -0.275000
v -0.476314 0.200000 0.275000
v -0.550000 0.200000 -0.000000
v -0.275000 0.200000 0.476314
v -0.000000 0.200000 0.550000
v 0.275000 0.200000 0.476314
v 0.476314 0.200000 0.275000
v 0.550000 0.200000 0.000001
v 0.476314 0.200000 -0.274999
v 0.275001 0.200000 -0.476314
v 0.000001 0.200000 -0.550000
v -0.274999 0.200000 -0.476314
v -0.476314 0.200000 -0.275000
v 0.476314 2.275000 -1.800000
v 0.550000 2.000000 -1.800000
v 0.275000 2.476314 -1.800000
v 0.000000 2.550000 -1.800000
v -0.275000 2.476314 -1.800000
v -0.476314 2.275000 -1.800000
v -0.550000 2.000000 -1.800000
v -0.476314 1.725000 -1.800000
v -0.275000 1.523686 -1.800000
v -0.000001 1.450000 -1.800000
v 0.275000 1.523686 -1.800000
v 0.476314 1.725000 -1.800000
vn -0.0000 -0.0000 1.0000
vn -0.0000 -0.0000 -1.0000
vn -0.0000 1.0000 -0.0000
vn -0.0000 -1.0000 -0.0000
vn -0.7071 -0.0000 -0.7071
vn -0.2588 -0.0000 -0.9659
vn 0.2588 -0.0000 -0.9659
vn 0.7071 -0.0000 -0.7071
vn 0.9659 -0.0000 -0.2588
vn 0.9659 -0.0000 0.2588
vn 0.7071 -0.0000 0.7071
vn 0.2588 -0.0000 0.9659
vn -0.2588 -0.0000 0.9659
vn -0.7071 -0.0000 0.7071
vn -0.9659 -0.0000 0.2588
vn 0.9659 -0.2588 -0.0000
vn 0.7071 -0.7071 -0.0000
vn 0.2588 -0.9659 -0.0000
vn -0.2588 -0.9659 -0.0000
vn -0.7071 -0.7071 -0.0000
vn -0.9659 -0.2588 -0.0000
vn -0.9659 0.2588 -0.0000
vn -0.7071 0.7071 -0.0000
vn -0.2588 0.9659 -0.0000
vn 0.2588 0.9659 -0.0000
vn 0.7071 0.7071 -0.0000
vn 0.9659 0.2588 -0.0000
vn -0.9659 -0.0000 -0.2588
vt 1.000000 0.833333
vt 1.000000 0.750000
vt 0.950000 0.166667
vt 0.950000 0.250000
vt 0.050000 0.083333
vt 0.050000 0.000000
vt 0.950000 0.583333
vt 0.950000 0.666667
vt 1.000000 0.083333
vt 1.000000 0.000000
vt 0.050000 0.416667
vt 0.050000 0.333333
vt 0.950000 0.333333
vt 0.000000 0.500000
vt 0.000000 0.583333
vt 0.050000 1.000000
vt 0.050000 0.916667
vt 0.950000 0.750000
vt 0.050000 0.250000
vt 0.000000 0.750000
vt 0.000000 0.833333
vt 0.950000 0.416667
vt 1.000000 0.500000
vt 1.000000 0.416667
vt 0.950000 0.833333
vt 0.000000 0.000000
vt 0.000000 0.083333
vt 0.050000 0.166667
vt 1.000000 0.666667
vt 0.950000 0.500000
vt 0.950000 0.916667
vt 0.050000 0.083333
vt 0.950000 0.583333
vt 0.000000 0.416667
vt 1.000000 0.916667
vt 0.000000 0.916667
vt 0.000000 0.666667
vt 0.000000 0.333333
vt 0.000000 0.250000
vt 0.000000 0.166667
vt 1.000000 0.166667
vt 1.000000 0.250000
vt 1.000000 0.333333
vt 1.000000 0.583333
vt 0.050000 0.000000
vt 0.050000 1.000000
vt 0.050000 0.916667
vt 0.950000 0.750000
vt 0.950000 0.833333
vt 0.950000 0.916667
vt 0.050000 0.833333
vt 0.050000 0.750000
vt 0.050000 0.666667
vt 0.050000 0.583333
vt 0.950000 0.500000
vt 0.050000 0.500000
vt 0.950000 0.416667
vt 0.950000 0.333333
vt 0.050000 0.333333
vt 0.950000 0.250000
vt 0.050000 0.250000
vt 0.950000 0.166667
vt 0.050000 0.166667
vt 0.950000 0.083333
vt 0.950000 0.000000
vt 0.950000 1.000000
vt 0.050000 0.833333
vt 0.050000 0.750000
vt 0.050000 0.666667
vt 0.050000 0.583333
vt 0.050000 0.500000
vt 0.950000 0.083333
vt 0.950000 0.000000
vt 1.000000 1.000000
vt 0.000000 1.000000
s 0
f 23/1/1 22/2/1 129/2/1 132/1/1
f 88/3/2 89/4/2 110/4/2 107/3/2
f 51/5/3 49/6/3 169/6/3 171/5/3
f 69/7/4 70/8/4 161/8/4 158/7/4
f 14/9/1 13/10/1 100/10/1 105/9/1
f 79/11/1 78/12/1 186/12/1 187/11/1
f 89/4/2 90/13/2 113/13/2 110/4/2
f 31/14/4 32/15/4 157/15/4 154/14/4
f 49/16/3 50/17/3 170/17/3 169/16/3
f 70/8/4 71/18/4 164/18/4 161/8/4
f 78/12/1 77/19/1 185/19/1 186/12/1
f 10/20/2 11/21/2 130/21/2 127/20/2
f 90/13/2 91/22/2 116/22/2 113/13/2
f 43/23/3 42/24/3 153/24/3 156/23/3
f 71/18/4 72/25/4 167/25/4 164/18/4
f 1/26/2 2/27/2 103/27/2 97/26/2
f 77/19/1 76/28/1 184/28/1 185/19/1
f 22/2/1 21/29/1 126/29/1 129/2/1
f 91/22/2 92/30/2 119/30/2 116/22/2
f 72/25/4 62/31/4 138/31/4 167/25/4
f 76/28/1 75/32/1 183/32/1 184/28/1
f 92/30/2 93/33/2 122/33/2 119/30/2
f 30/34/4 31/14/4 154/14/4 151/34/4
f 13/10/1 24/35/1 101/35/1 100/10/1
f 12/36/2 11/21/2 10/20/2 9/37/2 8/15/2 7/14/2 6/34/2 5/38/2 4/39/2 3/40/2 2/27/2 1/26/2
f 48/35/3 37/10/3 38/9/3 39/41/3 40/42/3 41/43/3 42/24/3 43/23/3 44/44/3 45/29/3 46/2/3 47/1/3
f 24/35/1 13/10/1 14/9/1 15/41/1 16/42/1 17/43/1 18/24/1 19/23/1 20/44/1 21/29/1 22/2/1 23/1/1
f 36/36/4 35/21/4 34/20/4 33/37/4 32/15/4 31/14/4 30/34/4 29/38/4 28/39/4 27/40/4 26/27/4 25/26/4
f 75/32/1 73/45/1 181/45/1 183/32/1
f 9/37/2 10/20/2 127/20/2 124/37/2
f 93/33/2 94/8/2 125/8/2 122/33/2
f 42/24/3 41/43/3 150/43/3 153/24/3
f 73/46/1 74/47/1 182/47/1 181/46/1
f 21/29/1 20/44/1 123/44/1 126/29/1
f 94/8/2 95/48/2 128/48/2 125/8/2
f 12/36/2 1/26/2 97/26/2 98/36/2
f 95/48/2 96/49/2 131/49/2 128/48/2
f 29/38/4 30/34/4 151/34/4 148/38/4
f 8/15/2 9/37/2 124/37/2 121/15/2
f 96/49/2 86/50/2 102/50/2 131/49/2
f 60/51/5 72/25/5 71/18/5 59/52/5
f 59/52/6 71/18/6 70/8/6 58/53/6
f 58/53/7 70/8/7 69/7/7 57/54/7
f 57/54/8 69/7/8 68/55/8 56/56/8
f 56/56/9 68/55/9 67/57/9 55/11/9
f 55/11/10 67/57/10 66/58/10 54/59/10
f 54/59/11 66/58/11 65/60/11 53/61/11
f 53/61/12 65/60/12 64/62/12 52/63/12
f 52/63/13 64/62/13 63/64/13 51/5/13
f 51/5/14 63/64/14 61/65/14 49/6/14
f 49/16/15 61/66/15 62/31/15 50/17/15
f 74/47/16 86/50/16 96/49/16 84/67/16
f 41/43/3 40/42/3 147/42/3 150/43/3
f 20/44/1 19/23/1 120/23/1 123/44/1
f 28/39/4 29/38/4 148/38/4 145/39/4
f 7/14/2 8/15/2 121/15/2 118/14/2
f 40/42/3 39/41/3 144/41/3 147/42/3
f 19/23/1 18/24/1 117/24/1 120/23/1
f 27/40/4 28/39/4 145/39/4 142/40/4
f 6/34/2 7/14/2 118/14/2 115/34/2
f 39/41/3 38/9/3 141/9/3 144/41/3
f 48/35/3 47/1/3 168/1/3 137/35/3
f 18/24/1 17/43/1 114/43/1 117/24/1
f 35/21/4 36/36/4 134/36/4 166/21/4
f 84/67/17 96/49/17 95/48/17 83/68/17
f 83/68/18 95/48/18 94/8/18 82/69/18
f 82/69/19 94/8/19 93/33/19 81/70/19
f 81/70/20 93/33/20 92/30/20 80/71/20
f 80/71/21 92/30/21 91/22/21 79/11/21
f 79/11/22 91/22/22 90/13/22 78/12/22
f 78/12/23 90/13/23 89/4/23 77/19/23
f 77/19/24 89/4/24 88/3/24 76/28/24
f 76/28/25 88/3/25 87/72/25 75/32/25
f 75/32/26 87/72/26 85/73/26 73/45/26
f 73/46/27 85/66/27 86/50/27 74/47/27
f 50/17/28 62/31/28 72/25/28 60/51/28
f 99/66/27 100/74/27 101/35/27 102/50/27
f 104/72/26 105/9/26 100/10/26 99/73/26
f 107/3/25 108/41/25 105/9/25 104/72/25
f 110/4/24 111/42/24 108/41/24 107/3/24
f 113/13/23 114/43/23 111/42/23 110/4/23
f 116/22/22 117/24/22 114/43/22 113/13/22
f 119/30/21 120/23/21 117/24/21 116/22/21
f 122/33/20 123/44/20 120/23/20 119/30/20
f 125/8/19 126/29/19 123/44/19 122/33/19
f 128/48/18 129/2/18 126/29/18 125/8/18
f 131/49/17 132/1/17 129/2/17 128/48/17
f 102/50/16 101/35/16 132/1/16 131/49/16
f 135/66/15 136/74/15 137/35/15 138/31/15
f 140/64/14 141/9/14 136/10/14 135/65/14
f 143/62/13 144/41/13 141/9/13 140/64/13
f 146/60/12 147/42/12 144/41/12 143/62/12
f 149/58/11 150/43/11 147/42/11 146/60/11
f 152/57/10 153/24/10 150/43/10 149/58/10
f 155/55/9 156/23/9 153/24/9 152/57/9
f 158/7/8 159/44/8 156/23/8 155/55/8
f 161/8/7 162/29/7 159/44/7 158/7/7
f 164/18/6 165/2/6 162/29/6 161/8/6
f 167/25/5 168/1/5 165/2/5 164/18/5
f 138/31/28 137/35/28 168/1/28 167/25/28
f 133/75/15 169/16/15 170/17/15 134/36/15
f 139/27/14 171/5/14 169/6/14 133/26/14
f 142/40/13 172/63/13 171/5/13 139/27/13
f 145/39/12 173/61/12 172/63/12 142/40/12
f 148/38/11 174/59/11 173/61/11 145/39/11
f 151/34/10 175/11/10 174/59/10 148/38/10
f 154/14/9 176/56/9 175/11/9 151/34/9
f 157/15/8 177/54/8 176/56/8 154/14/8
f 160/37/7 178/53/7 177/54/7 157/15/7
f 163/20/6 179/52/6 178/53/6 160/37/6
f 166/21/5 180/51/5 179/52/5 163/20/5
f 134/36/28 170/17/28 180/51/28 166/21/28
f 97/75/27 181/46/27 182/47/27 98/36/27
f 103/27/26 183/32/26 181/45/26 97/26/26
f 106/40/25 184/28/25 183/32/25 103/27/25
f 109/39/24 185/19/24 184/28/24 106/40/24
f 112/38/23 186/12/23 185/19/23 109/39/23
f 115/34/22 187/11/22 186/12/22 112/38/22
f 118/14/21 188/71/21 187/11/21 115/34/21
f 121/15/20 189/70/20 188/71/20 118/14/20
f 124/37/19 190/69/19 189/70/19 121/15/19
f 127/20/18 191/68/18 190/69/18 124/37/18
f 130/21/17 192/67/17 191/68/17 127/20/17
f 98/36/16 182/47/16 192/67/16 130/21/16
f 80/71/1 79/11/1 187/11/1 188/71/1
f 2/27/2 3/40/2 106/40/2 103/27/2
f 68/55/4 69/7/4 158/7/4 155/55/4
f 52/63/3 51/5/3 171/5/3 172/63/3
f 44/44/3 43/23/3 156/23/3 159/44/3
f 87/72/2 88/3/2 107/3/2 104/72/2
f 11/21/2 12/36/2 98/36/2 130/21/2
f 81/70/1 80/71/1 188/71/1 189/70/1
f 67/57/4 68/55/4 155/55/4 152/57/4
f 53/61/3 52/63/3 172/63/3 173/61/3
f 32/15/4 33/37/4 160/37/4 157/15/4
f 85/73/2 87/72/2 104/72/2 99/73/2
f 24/35/1 23/1/1 132/1/1 101/35/1
f 82/69/1 81/70/1 189/70/1 190/69/1
f 15/41/1 14/9/1 105/9/1 108/41/1
f 66/58/4 67/57/4 152/57/4 149/58/4
f 54/59/3 53/61/3 173/61/3 174/59/3
f 86/50/2 85/66/2 99/66/2 102/50/2
f 36/36/4 25/26/4 133/26/4 134/36/4
f 83/68/1 82/69/1 190/69/1 191/68/1
f 3/40/2 4/39/2 109/39/2 106/40/2
f 65/60/4 66/58/4 149/58/4 146/60/4
f 55/11/3 54/59/3 174/59/3 175/11/3
f 45/29/3 44/44/3 159/44/3 162/29/3
f 84/67/1 83/68/1 191/68/1 192/67/1
f 64/62/4 65/60/4 146/60/4 143/62/4
f 56/56/3 55/11/3 175/11/3 176/56/3
f 33/37/4 34/20/4 163/20/4 160/37/4
f 37/10/3 48/35/3 137/35/3 136/10/3
f 74/47/1 84/67/1 192/67/1 182/47/1
f 16/42/1 15/41/1 108/41/1 111/42/1
f 63/64/4 64/62/4 143/62/4 140/64/4
f 57/54/3 56/56/3 176/56/3 177/54/3
f 4/39/2 5/38/2 112/38/2 109/39/2
f 61/65/4 63/64/4 140/64/4 135/65/4
f 58/53/3 57/54/3 177/54/3 178/53/3
f 46/2/3 45/29/3 162/29/3 165/2/3
f 25/26/4 26/27/4 139/27/4 133/26/4
f 62/31/4 61/66/4 135/66/4 138/31/4
f 59/52/3 58/53/3 178/53/3 179/52/3
f 34/20/4 35/21/4 166/21/4 163/20/4
f 17/43/1 16/42/1 111/42/1 114/43/1
f 60/51/3 59/52/3 179/52/3 180/51/3
f 38/9/3 37/10/3 136/10/3 141/9/3
f 5/38/2 6/34/2 115/34/2 112/38/2
f 50/17/3 60/51/3 180/51/3 170/17/3
f 47/1/3 46/2/3 165/2/3 168/1/3
f 26/27/4 27/40/4 142/40/4 139/27/4
