# Blender 5.1.1
# www.blender.org
mtllib PipeValve.mtl
o PipeValve
v 0.433013 0.250000 -1.000000
v 0.250000 0.433013 -1.000000
v 0.000000 0.500000 -1.000000
v -0.250000 0.433013 -1.000000
v -0.433013 0.250000 -1.000000
v -0.500000 0.000000 -1.000000
v -0.433013 -0.250000 -1.000000
v -0.250000 -0.433012 -1.000000
v -0.000000 -0.500000 -1.000000
v 0.250000 -0.433013 -1.000000
v 0.433012 -0.250000 -1.000000
v 0.500000 -0.000000 -1.000000
v 0.433013 0.250000 1.000000
v 0.250000 0.433013 1.000000
v 0.000000 0.500000 1.000000
v -0.250000 0.433013 1.000000
v -0.433013 0.250000 1.000000
v -0.500000 0.000001 1.000000
v -0.433013 -0.250000 1.000000
v -0.250000 -0.433012 1.000000
v -0.000000 -0.500000 1.000000
v 0.250000 -0.433013 1.000000
v 0.433012 -0.250000 1.000000
v 0.500000 -0.000000 1.000000
v 0.433013 0.250000 0.799999
v 0.500000 -0.000000 0.799999
v 0.190194 0.459756 0.234802
v 0.000000 0.500000 0.799999
v -0.190194 0.459756 0.234802
v -0.433013 0.250000 0.799999
v -0.500000 0.000001 0.799999
v -0.433013 -0.250000 0.799999
v -0.250000 -0.433012 0.799999
v -0.000000 -0.500000 0.799999
v 0.250000 -0.433013 0.799999
v 0.433012 -0.250000 0.799999
v 0.433013 0.250000 -0.799999
v 0.500000 -0.000000 -0.799999
v 0.190194 0.459756 -0.234802
v 0.000000 0.500000 -0.799999
v -0.190194 0.459756 -0.234802
v -0.433013 0.250000 -0.799999
v -0.500000 0.000000 -0.799999
v -0.433013 -0.250000 -0.799999
v -0.250000 -0.433012 -0.799999
v -0.000000 -0.500000 -0.799999
v 0.250000 -0.433013 -0.799999
v 0.433012 -0.250000 -0.799999
v 0.571577 0.330000 -1.000000
v 0.660000 -0.000001 -1.000000
v 0.571577 0.330000 0.799999
v 0.571577 0.330000 1.000000
v 0.660000 -0.000000 1.000000
v 0.660000 -0.000000 0.799999
v 0.330000 0.571577 -1.000000
v 0.330000 0.571577 0.799999
v 0.330000 0.571577 1.000000
v 0.000000 0.660000 -1.000000
v 0.000000 0.660000 0.799999
v 0.000000 0.660000 1.000000
v -0.330000 0.571577 -1.000000
v -0.330000 0.571577 0.799999
v -0.330000 0.571577 1.000000
v -0.571577 0.330000 -1.000000
v -0.571577 0.330000 0.799999
v -0.571577 0.330000 1.000000
v -0.660000 0.000000 -1.000000
v -0.660000 0.000001 0.799999
v -0.660000 0.000001 1.000000
v -0.571577 -0.330000 -1.000000
v -0.571577 -0.329999 0.799999
v -0.571577 -0.329999 1.000000
v -0.330001 -0.571576 -1.000000
v -0.330001 -0.571576 0.799999
v -0.330001 -0.571576 1.000000
v -0.000001 -0.660000 -1.000000
v -0.000001 -0.660000 0.799999
v -0.000001 -0.660000 1.000000
v 0.330000 -0.571577 -1.000000
v 0.330000 -0.571577 0.799999
v 0.330000 -0.571577 1.000000
v 0.571576 -0.330001 -1.000000
v 0.571576 -0.330000 0.799999
v 0.571576 -0.330000 1.000000
v 0.571577 0.330000 -0.799999
v 0.660000 -0.000001 -0.799999
v 0.330000 0.571577 -0.799999
v 0.000000 0.660000 -0.799999
v -0.330000 0.571577 -0.799999
v -0.571577 0.330000 -0.799999
v -0.660000 0.000000 -0.799999
v -0.571577 -0.330000 -0.799999
v -0.330001 -0.571576 -0.799999
v -0.000001 -0.660000 -0.799999
v 0.330000 -0.571577 -0.799999
v 0.571576 -0.330001 -0.799999
v 0.250000 0.433013 -0.799999
v 0.250000 0.433013 0.799999
v -0.250000 0.433013 -0.799999
v -0.250000 0.433013 0.799999
v 0.000000 0.500000 0.412724
v 0.000000 0.500000 -0.412724
v 0.433013 0.250000 0.000000
v 0.500000 -0.000000 0.000000
v 0.373896 0.433013 0.000000
v -0.373896 0.433013 0.000000
v -0.433013 0.250000 0.000000
v -0.500000 0.000000 0.000000
v -0.433013 -0.250000 0.000000
v -0.250000 -0.433012 0.000000
v -0.000000 -0.500000 0.000000
v 0.250000 -0.433013 0.000000
v 0.433012 -0.250000 0.000000
v 0.323847 0.459756 0.000000
v -0.323846 0.459756 0.000000
v 0.000000 0.869344 0.276531
v 0.153402 0.869368 0.000000
v 0.127414 0.869369 0.140877
v -0.153402 0.869368 0.000000
v -0.127414 0.869369 0.140877
v 0.000000 0.869336 -0.191227
v 0.127414 0.869369 -0.140877
v -0.127414 0.869369 -0.140877
v 0.234075 0.869383 0.000000
v 0.197457 0.869383 0.198502
v -0.234074 0.869383 0.000000
v -0.197456 0.869383 0.198502
v 0.000000 0.869336 0.191227
v 0.000000 0.869344 -0.276531
v 0.197457 0.869383 -0.198502
v -0.197456 0.869383 -0.198502
v 0.000000 1.209467 0.234245
v 0.000000 1.209467 -0.234245
v 0.153300 1.209495 0.000000
v -0.193975 1.209503 0.000000
v 0.120105 1.209496 0.186745
v -0.170923 1.209505 0.124958
v 0.120105 1.209496 -0.186745
v -0.170923 1.209505 -0.124958
v 0.000000 1.099439 0.234241
v 0.120127 1.099468 0.186741
v 0.000000 1.099439 -0.234241
v -0.170946 1.099477 -0.124958
v -0.170946 1.099477 0.124958
v -0.153322 1.099467 0.000000
v 0.120126 1.099468 -0.186745
v 0.193998 1.099475 0.000000
v 0.446789 1.099523 0.455429
v 0.446768 1.209551 0.455429
v -0.501028 1.099533 -0.396454
v -0.501006 1.209561 -0.396454
v 0.664054 1.209599 0.000000
v -0.622226 1.209591 0.000000
v -0.501006 1.209561 0.396454
v 0.000000 1.209478 0.658062
v 0.000000 1.209482 -0.701984
v 0.446768 1.209551 -0.455429
v -0.501028 1.099533 0.396454
v 0.446789 1.099523 -0.455429
v 0.000000 1.099450 0.658062
v 0.000000 1.099450 -0.658062
v -0.664076 1.099571 0.000000
v 0.664077 1.099571 0.000000
v -0.153300 1.209495 0.000000
v -0.120105 1.209496 0.186745
v -0.120105 1.209496 -0.186745
v -0.446767 1.209551 -0.455429
v -0.664054 1.209599 0.000000
v -0.446767 1.209551 0.455429
v -0.127312 1.209496 0.140877
v 0.000000 1.209463 0.191231
v 0.170924 1.209505 0.124958
v -0.521775 1.209565 0.465332
v 0.000000 1.209482 0.701981
v 0.501006 1.209561 0.396454
v 0.000000 1.209463 -0.191231
v 0.170924 1.209505 -0.124958
v -0.127311 1.209496 -0.140877
v -0.521775 1.209565 -0.465332
v 0.501006 1.209561 -0.396454
v 0.000000 1.209478 -0.658062
v 0.193975 1.209503 0.000000
v 0.127312 1.209496 0.140877
v 0.127312 1.209496 -0.140877
v 0.521775 1.209565 -0.465332
v 0.622226 1.209591 0.000000
v 0.521775 1.209565 0.465332
v -0.446788 1.099523 -0.455429
v -0.120126 1.099468 -0.186745
v -0.193997 1.099475 0.000000
v -0.120126 1.099468 0.186741
v -0.622248 1.099563 0.000000
v -0.446789 1.099523 0.455429
v 0.000000 1.099435 0.191227
v -0.127334 1.099468 0.140877
v 0.170946 1.099477 0.124958
v 0.000000 1.099454 0.701981
v -0.521797 1.099537 0.465332
v 0.501029 1.099533 0.396454
v -0.521797 1.099537 -0.465332
v -0.127334 1.099468 -0.140877
v 0.170946 1.099477 -0.124958
v 0.501028 1.099533 -0.396454
v 0.000000 1.099435 -0.191231
v 0.000000 1.099454 -0.701981
v 0.127334 1.099468 -0.140877
v 0.521797 1.099537 -0.465332
v 0.153323 1.099467 0.000000
v 0.127335 1.099468 0.140877
v 0.622249 1.099563 0.000000
v 0.521797 1.099537 0.465332
v 0.000000 1.247843 0.000000
v 0.000000 1.247835 0.191231
v 0.000000 1.247835 -0.191231
v 0.153300 1.247867 0.000000
v -0.153300 1.247867 0.000000
v 0.127312 1.247869 0.140877
v -0.127312 1.247869 0.140877
v 0.127312 1.247869 -0.140877
v -0.127311 1.247869 -0.140877
vn -0.0000 -0.0000 1.0000
vn -0.0000 -0.0000 -1.0000
vn 0.7071 -0.7071 -0.0000
vn 0.2588 -0.9659 -0.0000
vn -0.2588 -0.9659 -0.0000
vn -0.7071 -0.7071 -0.0000
vn -0.9659 -0.2588 -0.0000
vn -0.9659 0.2588 -0.0000
vn -0.8323 0.5506 0.0644
vn -0.5551 0.1749 0.8132
vn 0.9251 0.1093 -0.3635
vn 0.8323 0.5506 0.0644
vn 0.9659 0.2588 -0.0000
vn 0.9659 -0.2588 -0.0000
vn 0.7071 0.7071 -0.0000
vn 0.2588 0.9659 -0.0000
vn -0.2588 0.9659 -0.0000
vn -0.7071 0.7071 -0.0000
vn 0.2085 0.9766 0.0519
vn -0.2085 0.9766 -0.0519
vn -0.2413 0.9704 0.0121
vn 0.2413 0.9704 0.0121
vn 0.2413 0.9704 -0.0121
vn -0.2413 0.9704 -0.0121
vn -0.2085 0.9766 0.0519
vn 0.2085 0.9766 -0.0519
vn 0.8323 0.5506 -0.0644
vn 0.5551 0.1749 -0.8132
vn -0.9251 0.1093 0.3635
vn -0.8323 0.5506 -0.0644
vn 0.9251 0.1093 0.3635
vn -0.5551 0.1749 -0.8132
vn -0.9251 0.1093 -0.3635
vn 0.5551 0.1749 0.8132
vn -0.0002 1.0000 -0.0000
vn 0.0002 1.0000 -0.0000
vn 0.9834 -0.0000 0.1814
vn -0.3678 -0.0000 0.9299
vn 0.3678 -0.0000 -0.9299
vn 0.9834 -0.0000 -0.1814
vn -0.9834 0.0003 -0.1814
vn 0.9834 0.0003 0.1814
vn -0.3676 0.0001 0.9300
vn 0.3676 0.0001 -0.9300
vn -0.3676 0.0001 -0.9300
vn 0.3676 0.0001 0.9300
vn -0.9834 0.0003 0.1814
vn 0.9834 0.0003 -0.1814
vn 0.9563 0.0002 -0.2924
vn -0.9563 0.0002 0.2924
vn 0.4130 -0.0000 0.9107
vn -0.4130 -0.0000 -0.9107
vn 0.4130 -0.0000 -0.9107
vn -0.4130 -0.0000 0.9107
vn 0.9563 0.0002 0.2924
vn -0.9563 0.0002 -0.2924
vn 0.9563 -0.0002 0.2924
vn 0.9563 -0.0002 -0.2924
vn -0.6352 0.0001 0.7723
vn -0.6352 0.0001 -0.7723
vn -0.9834 0.0002 0.1814
vn -0.9834 0.0002 -0.1814
vn 0.0003 1.0000 -0.0001
vn -0.0003 1.0000 -0.0001
vn 0.0002 1.0000 -0.0001
vn -0.0002 1.0000 -0.0001
vn -0.0003 1.0000 0.0001
vn 0.0003 1.0000 0.0001
vn -0.0002 1.0000 0.0001
vn 0.0002 1.0000 0.0001
vn -0.0002 -1.0000 -0.0000
vn -0.0003 -1.0000 0.0001
vn 0.0003 -1.0000 0.0001
vn -0.0002 -1.0000 0.0001
vn 0.0002 -1.0000 0.0001
vn 0.0002 -1.0000 -0.0000
vn 0.0003 -1.0000 -0.0001
vn -0.0003 -1.0000 -0.0001
vn 0.0002 -1.0000 -0.0001
vn -0.0002 -1.0000 -0.0001
vn -0.3677 -0.0000 -0.9299
vn 0.3677 -0.0000 -0.9299
vn -0.6352 -0.0001 -0.7723
vn 0.6352 -0.0001 -0.7723
vn 0.9834 0.0002 -0.1814
vn 0.9834 0.0002 0.1814
vn 0.6352 0.0001 0.7723
vn 0.6352 0.0001 -0.7723
vn -0.9563 -0.0002 -0.2924
vn -0.9563 -0.0002 0.2924
vn 0.3677 -0.0000 0.9299
vn -0.3677 -0.0000 0.9299
vn 0.6352 -0.0001 0.7723
vn -0.6352 -0.0001 0.7723
vn -0.9834 -0.0000 -0.1814
vn -0.3678 -0.0000 -0.9299
vn 0.3678 -0.0000 0.9299
vn -0.9834 -0.0000 0.1814
vt 1.000000 0.666667
vt 1.000000 0.583333
vt 0.000000 0.916667
vt 0.000000 0.000000
vt 0.000000 0.250000
vt 0.000000 0.333333
vt 0.100000 0.666667
vt 0.100000 0.583333
vt 0.900000 0.416667
vt 0.900000 0.500000
vt 1.000000 0.250000
vt 1.000000 0.166667
vt 0.100000 0.500000
vt 0.900000 0.583333
vt 0.000000 0.583333
vt 0.000000 0.666667
vt 0.100000 0.416667
vt 0.900000 0.666667
vt 1.000000 0.500000
vt 1.000000 0.916667
vt 1.000000 0.000000
vt 1.000000 0.083333
vt 1.000000 0.333333
vt 1.000000 0.416667
vt 1.000000 0.750000
vt 1.000000 0.833333
vt 0.000000 0.833333
vt 0.000000 0.750000
vt 0.000000 0.500000
vt 0.000000 0.416667
vt 0.000000 0.166667
vt 0.000000 0.083333
vt 0.500000 0.833333
vt 0.900000 0.833333
vt 0.900000 0.750000
vt 0.500000 0.750000
vt 0.500000 0.666667
vt 0.500000 0.583333
vt 0.500000 0.500000
vt 0.500000 0.416667
vt 0.900000 0.333333
vt 0.500000 0.333333
vt 0.900000 0.250000
vt 0.500000 0.250000
vt 0.848337 0.216731
vt 0.848337 0.166667
vt 0.500000 0.116602
vt 0.151663 0.116602
vt 0.500000 0.083333
vt 0.900000 0.083333
vt 0.900000 0.000000
vt 0.500000 0.000000
vt 0.500000 1.000000
vt 0.900000 1.000000
vt 0.900000 0.916667
vt 0.500000 0.916667
vt 0.100000 0.333333
vt 0.100000 0.250000
vt 0.100000 0.166667
vt 1.000000 1.000000
vt 0.900000 0.166667
vt 0.000000 1.000000
vt 0.100000 1.000000
vt 0.100000 0.916667
vt 0.100000 0.083333
vt 0.100000 0.000000
vt 0.100000 0.750000
vt 0.100000 0.833333
vt 0.848337 0.116602
vt 0.500000 0.216731
vt 0.151663 0.216731
vt 0.151663 0.166667
vt 0.500000 0.133857
vt 0.718661 0.136132
vt 0.718661 0.197202
vt 0.500000 0.199477
vt 0.740882 0.166667
vt 0.259118 0.166667
vt 0.281339 0.136132
vt 0.281339 0.197202
vt 0.281339 0.197202
vt 0.500000 0.133857
vt 0.718661 0.136132
vt 0.281339 0.136132
vt 0.500000 0.199477
vt 0.303148 0.197428
vt 0.303148 0.197428
vt 0.696852 0.197428
vt 0.696852 0.197428
vt 0.332105 0.197730
vt 0.332105 0.197730
vt 0.667895 0.197730
vt 0.667895 0.197730
vt 0.723716 0.190255
vt 0.723716 0.143078
vt 0.720629 0.194497
vt 0.720630 0.138837
vt 0.276284 0.143078
vt 0.276284 0.190255
vt 0.279371 0.194497
vt 0.279371 0.138837
vt 0.667895 0.135604
vt 0.332105 0.135604
vt 0.303148 0.135905
vt 0.696852 0.135905
vt 0.723715 0.190256
vt 0.723715 0.143077
vt 0.720629 0.194497
vt 0.740882 0.166667
vt 0.720629 0.138837
vt 0.279371 0.194497
vt 0.276285 0.190256
vt 0.276285 0.143077
vt 0.279371 0.138837
vt 0.303148 0.135905
vt 0.332105 0.135604
vt 0.696852 0.135905
vt 0.500000 0.166667
s 0
f 21/1/1 20/2/1 75/2/1 78/1/1
f 12/3/2 1/4/2 49/4/2 50/3/2
f 4/5/2 5/6/2 64/6/2 61/5/2
f 46/7/1 45/8/1 93/8/1 94/7/1
f 31/9/2 32/10/2 71/10/2 68/9/2
f 16/11/1 15/12/1 60/12/1 63/11/1
f 45/8/1 44/13/1 92/13/1 93/8/1
f 32/10/2 33/14/2 74/14/2 71/10/2
f 8/15/2 9/16/2 76/16/2 73/15/2
f 44/13/1 43/17/1 91/17/1 92/13/1
f 33/14/2 34/18/2 77/18/2 74/14/2
f 20/2/1 19/19/1 72/19/1 75/2/1
f 24/20/1 13/21/1 14/22/1 15/12/1 16/11/1 17/23/1 18/24/1 19/19/1 20/2/1 21/1/1 22/25/1 23/26/1
f 12/3/2 11/27/2 10/28/2 9/16/2 8/15/2 7/29/2 6/30/2 5/6/2 4/5/2 3/31/2 2/32/2 1/4/2
f 113/33/3 36/34/3 35/35/3 112/36/3
f 112/36/4 35/35/4 34/18/4 111/37/4
f 111/37/5 34/18/5 33/14/5 110/38/5
f 110/38/6 33/14/6 32/10/6 109/39/6
f 109/39/7 32/10/7 31/9/7 108/40/7
f 108/40/8 31/9/8 30/41/8 107/42/8
f 107/42/9 30/41/9 100/43/9 106/44/9
f 29/45/10 101/46/10 116/46/10 127/45/10
f 114/47/11 39/48/11 130/48/11 124/47/11
f 105/49/12 98/50/12 25/51/12 103/52/12
f 103/53/13 25/54/13 26/55/13 104/56/13
f 3/31/2 4/5/2 61/5/2 58/31/2
f 43/17/1 42/57/1 90/57/1 91/17/1
f 34/18/2 35/35/2 80/35/2 77/18/2
f 15/12/1 14/22/1 57/22/1 60/12/1
f 42/57/1 99/58/1 89/58/1 90/57/1
f 35/35/2 36/34/2 83/34/2 80/35/2
f 7/29/2 8/15/2 73/15/2 70/29/2
f 24/20/1 23/26/1 84/26/1 53/20/1
f 99/58/1 40/59/1 88/59/1 89/58/1
f 36/34/2 26/55/2 54/55/2 83/34/2
f 19/19/1 18/24/1 69/24/1 72/19/1
f 11/27/2 12/3/2 50/3/2 82/27/2
f 104/56/14 26/55/14 36/34/14 113/33/14
f 51/54/13 52/60/13 53/20/13 54/55/13
f 56/50/15 57/22/15 52/21/15 51/51/15
f 59/61/16 60/12/16 57/22/16 56/50/16
f 62/43/17 63/11/17 60/12/17 59/61/17
f 65/41/18 66/23/18 63/11/18 62/43/18
f 68/9/8 69/24/8 66/23/8 65/41/8
f 71/10/7 72/19/7 69/24/7 68/9/7
f 74/14/6 75/2/6 72/19/6 71/10/6
f 77/18/5 78/1/5 75/2/5 74/14/5
f 80/35/4 81/25/4 78/1/4 77/18/4
f 83/34/3 84/26/3 81/25/3 80/35/3
f 54/55/14 53/20/14 84/26/14 83/34/14
f 49/62/13 85/63/13 86/64/13 50/3/13
f 55/32/15 87/65/15 85/66/15 49/4/15
f 58/31/16 88/59/16 87/65/16 55/32/16
f 61/5/17 89/58/17 88/59/17 58/31/17
f 64/6/18 90/57/18 89/58/18 61/5/18
f 67/30/8 91/17/8 90/57/8 64/6/8
f 70/29/7 92/13/7 91/17/7 67/30/7
f 73/15/6 93/8/6 92/13/6 70/29/6
f 76/16/5 94/7/5 93/8/5 73/15/5
f 79/28/4 95/67/4 94/7/4 76/16/4
f 82/27/3 96/68/3 95/67/3 79/28/3
f 50/3/14 86/64/14 96/68/14 82/27/14
f 30/41/2 31/9/2 68/9/2 65/41/2
f 47/67/1 46/7/1 94/7/1 95/67/1
f 9/16/2 10/28/2 79/28/2 76/16/2
f 100/43/2 30/41/2 65/41/2 62/43/2
f 48/68/1 47/67/1 95/67/1 96/68/1
f 17/23/1 16/11/1 63/11/1 66/23/1
f 13/21/1 24/20/1 53/20/1 52/21/1
f 28/61/2 100/43/2 62/43/2 59/61/2
f 38/64/1 48/68/1 96/68/1 86/64/1
f 5/6/2 6/30/2 67/30/2 64/6/2
f 22/25/1 21/1/1 78/1/1 81/25/1
f 98/50/2 28/61/2 59/61/2 56/50/2
f 1/4/2 2/32/2 55/32/2 49/4/2
f 10/28/2 11/27/2 82/27/2 79/28/2
f 25/51/2 98/50/2 56/50/2 51/51/2
f 18/24/1 17/23/1 66/23/1 69/24/1
f 37/63/1 38/64/1 86/64/1 85/63/1
f 26/55/2 25/54/2 51/54/2 54/55/2
f 6/30/2 7/29/2 70/29/2 67/30/2
f 97/65/1 37/66/1 85/66/1 87/65/1
f 14/22/1 13/21/1 52/21/1 57/22/1
f 23/26/1 22/25/1 81/25/1 84/26/1
f 40/59/1 97/65/1 87/65/1 88/59/1
f 2/32/2 3/31/2 58/31/2 55/32/2
f 114/47/19 27/69/19 98/50/19 105/49/19
f 115/70/20 41/71/20 99/58/20 106/44/20
f 101/46/21 29/45/21 100/43/21 28/61/21
f 27/69/22 101/46/22 28/61/22 98/50/22
f 102/72/23 39/48/23 97/65/23 40/59/23
f 41/71/24 102/72/24 40/59/24 99/58/24
f 29/45/25 115/70/25 106/44/25 100/43/25
f 39/48/26 114/47/26 105/49/26 97/65/26
f 38/64/14 104/56/14 113/33/14 48/68/14
f 37/63/13 103/53/13 104/56/13 38/64/13
f 97/65/27 105/49/27 103/52/27 37/66/27
f 39/48/28 102/72/28 129/72/28 130/48/28
f 115/70/29 29/45/29 127/45/29 126/70/29
f 42/57/30 107/42/30 106/44/30 99/58/30
f 43/17/8 108/40/8 107/42/8 42/57/8
f 44/13/7 109/39/7 108/40/7 43/17/7
f 45/8/6 110/38/6 109/39/6 44/13/6
f 46/7/5 111/37/5 110/38/5 45/8/5
f 47/67/4 112/36/4 111/37/4 46/7/4
f 48/68/3 113/33/3 112/36/3 47/67/3
f 27/69/31 114/47/31 124/47/31 125/69/31
f 102/72/32 41/71/32 131/71/32 129/72/32
f 41/71/33 115/70/33 126/70/33 131/71/33
f 101/46/34 27/69/34 125/69/34 116/46/34
f 117/73/35 118/74/35 125/69/35 124/47/35
f 120/75/36 119/76/36 126/70/36 127/45/36
f 128/77/36 120/75/36 127/45/36 116/46/36
f 118/74/35 128/77/35 116/46/35 125/69/35
f 121/78/35 122/79/35 130/48/35 129/72/35
f 123/80/36 121/78/36 129/72/36 131/71/36
f 122/79/35 117/73/35 124/47/35 130/48/35
f 119/76/36 123/80/36 131/71/36 126/70/36
f 183/74/37 134/73/37 215/73/37 217/74/37
f 170/75/38 171/77/38 213/77/38 218/75/38
f 184/79/39 176/78/39 214/78/39 219/79/39
f 134/73/40 184/79/40 219/79/40 215/73/40
f 123/80/41 119/76/41 145/76/41 201/81/41
f 118/74/42 117/73/42 208/82/42 209/83/42
f 120/75/43 128/77/43 194/77/43 195/75/43
f 122/79/44 121/78/44 204/78/44 206/84/44
f 121/78/45 123/80/45 201/81/45 204/78/45
f 128/77/46 118/74/46 209/83/46 194/77/46
f 119/76/47 120/75/47 195/75/47 145/76/47
f 117/73/48 122/79/48 206/84/48 208/82/48
f 163/82/49 207/84/49 185/79/49 152/73/49
f 162/76/50 198/75/50 173/75/50 168/76/50
f 197/77/51 211/83/51 187/74/51 174/77/51
f 205/78/52 200/81/52 179/80/52 156/78/52
f 207/84/53 205/78/53 156/78/53 185/79/53
f 198/75/54 197/77/54 174/77/54 173/75/54
f 211/83/55 163/82/55 152/73/55 187/74/55
f 200/81/56 162/76/56 168/76/56 179/80/56
f 192/85/57 150/86/57 151/87/57 153/76/57
f 192/85/58 153/76/58 154/88/58 158/89/58
f 150/86/59 143/90/59 139/91/59 151/87/59
f 158/89/60 154/88/60 137/92/60 144/93/60
f 144/93/61 137/92/61 135/76/61 190/76/61
f 190/76/62 135/76/62 139/91/62 143/90/62
f 135/76/36 137/92/36 170/75/36 164/76/36
f 139/91/36 135/76/36 164/76/36 178/80/36
f 151/87/36 139/91/36 178/80/36 179/80/36
f 154/88/36 153/76/36 168/76/36 173/75/36
f 153/76/36 151/87/36 179/80/36 168/76/36
f 137/92/36 154/88/36 173/75/36 170/75/36
f 165/94/63 132/77/63 171/77/63 170/75/63
f 132/77/64 136/95/64 183/74/64 171/77/64
f 155/77/65 169/96/65 173/75/65 174/77/65
f 149/97/66 155/77/66 174/77/66 187/74/66
f 136/95/35 149/97/35 187/74/35 183/74/35
f 169/96/36 165/94/36 170/75/36 173/75/36
f 138/98/67 133/78/67 176/78/67 184/79/67
f 133/78/68 166/99/68 178/80/68 176/78/68
f 166/99/36 167/100/36 179/80/36 178/80/36
f 157/101/35 138/98/35 184/79/35 185/79/35
f 181/78/69 157/101/69 185/79/69 156/78/69
f 167/100/70 181/78/70 156/78/70 179/80/70
f 172/102/35 182/73/35 134/73/35 183/74/35
f 182/73/35 177/103/35 184/79/35 134/73/35
f 177/103/35 180/104/35 185/79/35 184/79/35
f 186/73/35 175/105/35 187/74/35 152/73/35
f 180/104/35 186/73/35 152/73/35 185/79/35
f 175/105/35 172/102/35 183/74/35 187/74/35
f 143/90/71 150/86/71 200/81/71 201/81/71
f 190/76/71 143/90/71 201/81/71 145/76/71
f 144/93/71 190/76/71 145/76/71 195/75/71
f 150/86/71 192/85/71 162/76/71 200/81/71
f 192/85/71 158/89/71 198/75/71 162/76/71
f 158/89/71 144/93/71 195/75/71 198/75/71
f 140/77/72 191/106/72 195/75/72 194/77/72
f 141/107/73 140/77/73 194/77/73 209/83/73
f 193/108/74 160/109/74 197/77/74 198/75/74
f 160/109/75 148/110/75 211/83/75 197/77/75
f 148/110/76 141/107/76 209/83/76 211/83/76
f 191/106/71 193/108/71 198/75/71 195/75/71
f 188/111/71 189/112/71 201/81/71 200/81/71
f 146/113/76 159/114/76 207/84/76 206/84/76
f 142/78/77 146/113/77 206/84/77 204/78/77
f 189/112/78 142/78/78 204/78/78 201/81/78
f 159/114/79 161/78/79 205/78/79 207/84/79
f 161/78/80 188/111/80 200/81/80 205/78/80
f 203/115/76 202/116/76 206/84/76 207/84/76
f 147/82/76 196/102/76 209/83/76 208/82/76
f 202/116/76 147/82/76 208/82/76 206/84/76
f 199/117/76 210/82/76 163/82/76 211/83/76
f 210/82/76 203/115/76 207/84/76 163/82/76
f 196/102/76 199/117/76 211/83/76 209/83/76
f 133/78/81 142/78/81 189/112/81 166/99/81
f 138/98/82 146/113/82 142/78/82 133/78/82
f 157/101/83 159/114/83 146/113/83 138/98/83
f 166/99/84 189/112/84 188/111/84 167/100/84
f 181/78/51 167/100/51 188/111/51 161/78/51
f 157/101/54 181/78/54 161/78/54 159/114/54
f 182/73/85 147/82/85 202/116/85 177/103/85
f 172/102/86 196/102/86 147/82/86 182/73/86
f 180/104/87 177/103/87 202/116/87 203/115/87
f 172/102/88 175/105/88 199/117/88 196/102/88
f 175/105/89 186/73/89 210/82/89 199/117/89
f 186/73/90 180/104/90 203/115/90 210/82/90
f 132/77/91 140/77/91 141/107/91 136/95/91
f 165/94/92 191/106/92 140/77/92 132/77/92
f 165/94/93 169/96/93 193/108/93 191/106/93
f 169/96/53 155/77/53 160/109/53 193/108/53
f 136/95/94 141/107/94 148/110/94 149/97/94
f 155/77/52 149/97/52 148/110/52 160/109/52
f 216/76/36 218/75/36 213/77/36 212/118/36
f 212/118/35 213/77/35 217/74/35 215/73/35
f 214/78/35 212/118/35 215/73/35 219/79/35
f 220/80/36 216/76/36 212/118/36 214/78/36
f 178/80/95 164/76/95 216/76/95 220/80/95
f 176/78/96 178/80/96 220/80/96 214/78/96
f 171/77/97 183/74/97 217/74/97 213/77/97
f 164/76/98 170/75/98 218/75/98 216/76/98
