# Blender 5.1.1
# www.blender.org
mtllib PipeShapeT.mtl
o PipeShapeT
v 0.433013 0.000000 -0.250000
v 0.250000 0.000000 -0.433012
v 0.000000 0.000000 -0.500000
v -0.250000 0.000000 -0.433013
v -0.433013 0.000000 -0.250000
v -0.500000 0.000000 -0.000000
v -0.433013 0.000000 0.250000
v -0.250000 0.000000 0.433012
v -0.000000 0.000000 0.500000
v 0.250000 0.000000 0.433013
v 0.433012 0.000000 0.250000
v 0.500000 0.000000 0.000000
v 0.433013 2.000000 -0.250000
v 0.250000 2.000000 -0.433012
v 0.000000 2.000000 -0.500000
v -0.250000 2.000000 -0.433013
v -0.433013 2.000000 -0.250000
v -0.500000 2.000000 -0.000000
v -0.433013 2.000000 0.250000
v -0.250000 2.000000 0.433012
v -0.000000 2.000000 0.500000
v 0.250000 2.000000 0.433013
v 0.433012 2.000000 0.250000
v 0.500000 2.000000 0.000000
v -0.433013 2.250000 2.000000
v -0.250000 2.433012 2.000000
v -0.000000 2.500000 2.000000
v 0.250000 2.433013 2.000000
v 0.433013 2.250000 2.000000
v 0.500000 2.000000 2.000000
v 0.433013 1.750000 2.000000
v 0.250000 1.566987 2.000000
v 0.000000 1.500000 2.000000
v -0.250000 1.566987 2.000000
v -0.433012 1.750000 2.000000
v -0.500000 1.999999 2.000000
v -0.433013 2.250000 -2.000000
v -0.250000 2.433013 -2.000000
v -0.000000 2.500000 -2.000000
v 0.250000 2.433013 -2.000000
v 0.433013 2.250001 -2.000000
v 0.500000 2.000001 -2.000000
v 0.433013 1.750001 -2.000000
v 0.250000 1.566988 -2.000000
v 0.000000 1.500000 -2.000000
v -0.250000 1.566987 -2.000000
v -0.433012 1.750000 -2.000000
v -0.500000 2.000000 -2.000000
v 0.433013 0.200000 -0.250000
v -0.433013 2.250000 -1.800000
v -0.500000 2.000000 -1.800000
v -0.250000 2.433013 -1.800000
v -0.000000 2.500000 -1.800000
v 0.250000 2.433013 -1.800000
v 0.433013 2.250001 -1.800000
v 0.500000 2.000001 -1.800000
v 0.433013 1.750001 -1.800000
v 0.250000 1.566988 -1.800000
v 0.000000 1.500000 -1.800000
v -0.250000 1.566987 -1.800000
v -0.433012 1.750000 -1.800000
v -0.433013 2.250000 1.800000
v -0.500000 1.999999 1.800000
v -0.250000 2.433012 1.800000
v -0.000000 2.500000 1.800000
v 0.250000 2.433013 1.800000
v 0.433013 2.250000 1.800000
v 0.500000 2.000000 1.800000
v 0.433013 1.750000 1.800000
v 0.250000 1.566987 1.800000
v 0.000000 1.500000 1.800000
v -0.250000 1.566987 1.800000
v -0.433012 1.750000 1.800000
v 0.500000 0.200000 0.000000
v 0.250000 0.200000 -0.433012
v 0.000000 0.200000 -0.500000
v -0.250000 0.200000 -0.433013
v -0.500000 0.200000 -0.000000
v -0.433013 0.200000 0.250000
v -0.250000 0.200000 0.433012
v -0.000000 0.200000 0.500000
v 0.250000 0.200000 0.433013
v 0.433012 0.200000 0.250000
v -0.433013 0.200000 -0.250000
v -0.433013 2.250000 0.000000
v -0.500000 2.000000 0.000000
v -0.250000 2.433013 0.000000
v -0.000000 2.500000 0.000000
v 0.250000 2.433013 0.000000
v 0.433013 2.250000 0.000000
v 0.500000 2.000000 0.000000
v 0.433013 1.750000 0.000000
v 0.250000 1.566988 0.000000
v 0.000000 1.500000 0.000000
v -0.250000 1.566987 0.000000
v -0.433012 1.750000 0.000000
v 0.476314 0.000000 -0.275000
v 0.550000 0.000000 0.000000
v 0.275000 0.000000 -0.476314
v 0.000000 0.000000 -0.550000
v -0.275000 0.000000 -0.476314
v -0.476314 0.000000 -0.275000
v 0.476314 0.200000 -0.275000
v -0.550000 0.000000 -0.000000
v -0.476314 0.000000 0.275000
v -0.275000 0.000000 0.476314
v -0.000001 0.000000 0.550000
v 0.275000 0.000000 0.476314
v 0.476314 0.000000 0.275001
v -0.476314 2.275000 2.000000
v -0.550000 1.999999 2.000000
v -0.476314 2.275000 -1.800000
v -0.476314 2.275000 -2.000000
v -0.550000 2.000000 -2.000000
v -0.550000 2.000000 -1.800000
v -0.275000 2.476314 2.000000
v -0.275000 2.476314 -1.800000
v -0.275000 2.476314 -2.000000
v -0.000000 2.550000 2.000000
v -0.000000 2.550000 -1.800000
v -0.000000 2.550000 -2.000000
v 0.275000 2.476314 2.000000
v 0.275000 2.476314 -1.800000
v 0.275000 2.476314 -2.000000
v 0.476314 2.275000 2.000000
v 0.476314 2.275001 -1.800000
v 0.476314 2.275001 -2.000000
v 0.550000 2.000000 2.000000
v 0.550000 2.000001 -1.800000
v 0.550000 2.000001 -2.000000
v 0.476314 1.725000 2.000000
v 0.476314 1.725001 -1.800000
v 0.476314 1.725001 -2.000000
v 0.275001 1.523686 2.000000
v 0.275001 1.523687 -1.800000
v 0.275001 1.523687 -2.000000
v 0.000001 1.450000 2.000000
v 0.000001 1.450000 -1.800000
v 0.000001 1.450000 -2.000000
v -0.274999 1.523686 2.000000
v -0.274999 1.523686 -1.800000
v -0.274999 1.523686 -2.000000
v -0.476314 1.725000 2.000000
v -0.476314 1.725000 -1.800000
v -0.476314 1.725000 -2.000000
v 0.550000 0.200000 0.000000
v -0.476314 2.275000 1.800000
v -0.550000 1.999999 1.800000
v -0.275000 2.476314 1.800000
v -0.000000 2.550000 1.800000
v 0.275000 2.476314 1.800000
v 0.476314 2.275000 1.800000
v 0.550000 2.000000 1.800000
v 0.476314 1.725000 1.800000
v 0.275001 1.523686 1.800000
v 0.000001 1.450000 1.800000
v -0.274999 1.523686 1.800000
v -0.476314 1.725000 1.800000
v 0.275000 0.200000 -0.476314
v 0.000000 0.200000 -0.550000
v -0.275000 0.200000 -0.476314
v -0.550000 0.200000 -0.000000
v -0.476314 0.200000 0.275000
v -0.275000 0.200000 0.476314
v -0.000001 0.200000 0.550000
v 0.275000 0.200000 0.476314
v 0.476314 0.200000 0.275001
v -0.476314 0.200000 -0.275000
vn 0.9659 -0.0000 -0.2588
vn 0.7071 -0.0000 -0.7071
vn 0.2588 -0.0000 -0.9659
vn -0.2588 -0.0000 -0.9659
vn -0.7071 -0.0000 -0.7071
vn -0.9659 -0.0000 -0.2588
vn -0.9659 -0.0000 0.2588
vn -0.7071 -0.0000 0.7071
vn -0.2588 -0.0000 0.9659
vn 0.2588 -0.0000 0.9659
vn 0.7071 -0.0000 0.7071
vn 0.9659 -0.0000 0.2588
vn -0.0000 -1.0000 -0.0000
vn -0.0000 1.0000 -0.0000
vn -0.0000 -0.0000 1.0000
vn -0.0000 -0.0000 -1.0000
vn -0.7071 -0.7071 -0.0000
vn -0.2588 -0.9659 -0.0000
vn 0.2588 -0.9659 -0.0000
vn 0.7071 -0.7071 -0.0000
vn 0.9659 -0.2588 -0.0000
vn 0.9659 0.2588 -0.0000
vn 0.7071 0.7071 -0.0000
vn 0.2588 0.9659 -0.0000
vn -0.2588 0.9659 -0.0000
vn -0.7071 0.7071 -0.0000
vn -0.9659 0.2588 -0.0000
vn -0.9659 -0.2588 -0.0000
vt 0.100000 1.000000
vt 1.000000 1.000000
vt 1.000000 0.916667
vt 0.100000 0.916667
vt 0.100000 0.083333
vt 1.000000 0.083333
vt 1.000000 0.000000
vt 0.100000 0.000000
vt 0.100000 0.166667
vt 1.000000 0.166667
vt 0.100000 0.250000
vt 1.000000 0.250000
vt 0.100000 0.333333
vt 1.000000 0.333333
vt 1.000000 0.416667
vt 0.100000 0.416667
vt 0.100000 0.500000
vt 1.000000 0.500000
vt 0.100000 0.583333
vt 1.000000 0.583333
vt 0.100000 0.666667
vt 1.000000 0.666667
vt 0.100000 0.750000
vt 1.000000 0.750000
vt 0.100000 0.833333
vt 1.000000 0.833333
vt 0.000000 0.166667
vt 0.000000 0.250000
vt 0.000000 0.916667
vt 0.000000 0.000000
vt 0.950000 0.666667
vt 0.950000 0.750000
vt 0.050000 0.333333
vt 0.050000 0.250000
vt 0.000000 0.583333
vt 0.000000 0.666667
vt 0.950000 0.833333
vt 0.050000 0.166667
vt 0.000000 0.833333
vt 0.000000 0.750000
vt 0.000000 0.500000
vt 0.000000 0.416667
vt 0.000000 0.333333
vt 0.000000 0.083333
vt 0.950000 0.916667
vt 0.500000 0.833333
vt 0.500000 0.750000
vt 0.500000 0.666667
vt 0.950000 0.583333
vt 0.500000 0.583333
vt 0.950000 0.500000
vt 0.500000 0.500000
vt 0.950000 0.416667
vt 0.500000 0.416667
vt 0.950000 0.333333
vt 0.500000 0.333333
vt 0.950000 0.250000
vt 0.500000 0.250000
vt 0.950000 0.166667
vt 0.500000 0.166667
vt 0.950000 0.083333
vt 0.500000 0.083333
vt 0.950000 0.000000
vt 0.500000 0.000000
vt 0.500000 1.000000
vt 0.950000 1.000000
vt 0.500000 0.916667
vt 0.050000 0.083333
vt 0.050000 0.000000
vt 0.050000 1.000000
vt 0.050000 0.916667
vt 0.050000 0.833333
vt 0.050000 0.416667
vt 0.050000 0.500000
vt 0.050000 0.583333
vt 0.050000 0.666667
vt 0.050000 0.750000
vt 0.000000 1.000000
s 0
f 49/1/1 13/2/1 24/3/1 74/4/1
f 75/5/2 14/6/2 13/7/2 49/8/2
f 76/9/3 15/10/3 14/6/3 75/5/3
f 77/11/4 16/12/4 15/10/4 76/9/4
f 84/13/5 17/14/5 16/12/5 77/11/5
f 18/15/6 17/14/6 84/13/6 78/16/6
f 79/17/7 19/18/7 18/15/7 78/16/7
f 80/19/8 20/20/8 19/18/8 79/17/8
f 81/21/9 21/22/9 20/20/9 80/19/9
f 82/23/10 22/24/10 21/22/10 81/21/10
f 83/25/11 23/26/11 22/24/11 82/23/11
f 74/4/12 24/3/12 23/26/12 83/25/12
f 3/27/13 4/28/13 101/28/13 100/27/13
f 76/9/14 75/5/14 159/5/14 160/9/14
f 36/29/15 25/30/15 110/30/15 111/29/15
f 59/31/15 60/32/15 141/32/15 138/31/15
f 67/33/16 66/34/16 151/34/16 152/33/16
f 77/11/14 76/9/14 160/9/14 161/11/14
f 32/35/15 33/36/15 137/36/15 134/35/15
f 60/32/15 61/37/15 144/37/15 141/32/15
f 66/34/16 65/38/16 150/38/16 151/34/16
f 84/13/14 77/11/14 161/11/14 168/13/14
f 11/39/13 12/29/13 98/29/13 109/39/13
f 44/20/16 43/18/16 133/18/16 136/20/16
f 48/3/16 37/7/16 38/6/16 39/10/16 40/12/16 41/14/16 42/15/16 43/18/16 44/20/16 45/22/16 46/24/16 47/26/16
f 12/29/13 11/39/13 10/40/13 9/36/13 8/35/13 7/41/13 6/42/13 5/43/13 4/28/13 3/27/13 2/44/13 1/30/13
f 36/29/15 35/39/15 34/40/15 33/36/15 32/35/15 31/41/15 30/42/15 29/43/15 28/28/15 27/27/15 26/44/15 25/30/15
f 61/37/15 51/45/15 115/45/15 144/37/15
f 96/46/17 61/37/17 60/32/17 95/47/17
f 95/47/18 60/32/18 59/31/18 94/48/18
f 94/48/19 59/31/19 58/49/19 93/50/19
f 93/50/20 58/49/20 57/51/20 92/52/20
f 92/52/21 57/51/21 56/53/21 91/54/21
f 91/54/22 56/53/22 55/55/22 90/56/22
f 90/56/23 55/55/23 54/57/23 89/58/23
f 89/58/24 54/57/24 53/59/24 88/60/24
f 88/60/25 53/59/25 52/61/25 87/62/25
f 87/62/26 52/61/26 50/63/26 85/64/26
f 85/65/27 50/66/27 51/45/27 86/67/27
f 65/38/16 64/68/16 149/68/16 150/38/16
f 2/44/13 3/27/13 100/27/13 99/44/13
f 79/17/14 78/16/14 162/16/14 163/17/14
f 64/68/16 62/69/16 147/69/16 149/68/16
f 80/19/14 79/17/14 163/17/14 164/19/14
f 31/41/15 32/35/15 134/35/15 131/41/15
f 62/70/16 63/71/16 148/71/16 147/70/16
f 81/21/14 80/19/14 164/19/14 165/21/14
f 10/40/13 11/39/13 109/39/13 108/40/13
f 43/18/16 42/15/16 130/15/16 133/18/16
f 1/30/13 2/44/13 99/44/13 97/30/13
f 82/23/14 81/21/14 165/21/14 166/23/14
f 83/25/14 82/23/14 166/23/14 167/25/14
f 30/42/15 31/41/15 131/41/15 128/42/15
f 74/4/14 83/25/14 167/25/14 146/4/14
f 9/36/13 10/40/13 108/40/13 107/36/13
f 42/15/16 41/14/16 127/14/16 130/15/16
f 78/16/14 84/13/14 168/13/14 162/16/14
f 12/29/13 1/30/13 97/30/13 98/29/13
f 29/43/15 30/42/15 128/42/15 125/43/15
f 8/35/13 9/36/13 107/36/13 106/35/13
f 41/14/16 40/12/16 124/12/16 127/14/16
f 28/28/15 29/43/15 125/43/15 122/28/15
f 86/67/28 51/45/28 61/37/28 96/46/28
f 63/71/28 86/67/28 96/46/28 73/72/28
f 62/70/27 85/65/27 86/67/27 63/71/27
f 64/68/26 87/62/26 85/64/26 62/69/26
f 65/38/25 88/60/25 87/62/25 64/68/25
f 66/34/24 89/58/24 88/60/24 65/38/24
f 67/33/23 90/56/23 89/58/23 66/34/23
f 68/73/22 91/54/22 90/56/22 67/33/22
f 69/74/21 92/52/21 91/54/21 68/73/21
f 70/75/20 93/50/20 92/52/20 69/74/20
f 71/76/19 94/48/19 93/50/19 70/75/19
f 72/77/18 95/47/18 94/48/18 71/76/18
f 73/72/17 96/46/17 95/47/17 72/77/17
f 112/66/27 113/2/27 114/3/27 115/45/27
f 117/61/26 118/6/26 113/7/26 112/63/26
f 120/59/25 121/10/25 118/6/25 117/61/25
f 123/57/24 124/12/24 121/10/24 120/59/24
f 126/55/23 127/14/23 124/12/23 123/57/23
f 129/53/22 130/15/22 127/14/22 126/55/22
f 132/51/21 133/18/21 130/15/21 129/53/21
f 135/49/20 136/20/20 133/18/20 132/51/20
f 138/31/19 139/22/19 136/20/19 135/49/19
f 141/32/18 142/24/18 139/22/18 138/31/18
f 144/37/17 145/26/17 142/24/17 141/32/17
f 115/45/28 114/3/28 145/26/28 144/37/28
f 98/29/12 146/4/12 167/25/12 109/39/12
f 110/78/27 147/70/27 148/71/27 111/29/27
f 116/44/26 149/68/26 147/69/26 110/30/26
f 119/27/25 150/38/25 149/68/25 116/44/25
f 122/28/24 151/34/24 150/38/24 119/27/24
f 125/43/23 152/33/23 151/34/23 122/28/23
f 128/42/22 153/73/22 152/33/22 125/43/22
f 131/41/21 154/74/21 153/73/21 128/42/21
f 134/35/20 155/75/20 154/74/20 131/41/20
f 137/36/19 156/76/19 155/75/19 134/35/19
f 140/40/18 157/77/18 156/76/18 137/36/18
f 143/39/17 158/72/17 157/77/17 140/40/17
f 111/29/28 148/71/28 158/72/28 143/39/28
f 162/16/6 168/13/6 102/43/6 104/42/6
f 109/39/11 167/25/11 166/23/11 108/40/11
f 108/40/10 166/23/10 165/21/10 107/36/10
f 107/36/9 165/21/9 164/19/9 106/35/9
f 106/35/8 164/19/8 163/17/8 105/41/8
f 105/41/7 163/17/7 162/16/7 104/42/7
f 102/43/5 168/13/5 161/11/5 101/28/5
f 101/28/4 161/11/4 160/9/4 100/27/4
f 100/27/3 160/9/3 159/5/3 99/44/3
f 99/44/2 159/5/2 103/8/2 97/30/2
f 97/78/1 103/1/1 146/4/1 98/29/1
f 68/73/16 67/33/16 152/33/16 153/73/16
f 58/49/15 59/31/15 138/31/15 135/49/15
f 45/22/16 44/20/16 136/20/16 139/22/16
f 75/5/14 49/8/14 103/8/14 159/5/14
f 69/74/16 68/73/16 153/73/16 154/74/16
f 57/51/15 58/49/15 135/49/15 132/51/15
f 33/36/15 34/40/15 140/40/15 137/36/15
f 37/7/16 48/3/16 114/3/16 113/7/16
f 49/1/14 74/4/14 146/4/14 103/1/14
f 70/75/16 69/74/16 154/74/16 155/75/16
f 56/53/15 57/51/15 132/51/15 129/53/15
f 4/28/13 5/43/13 102/43/13 101/28/13
f 71/76/16 70/75/16 155/75/16 156/76/16
f 55/55/15 56/53/15 129/53/15 126/55/15
f 46/24/16 45/22/16 139/22/16 142/24/16
f 25/30/15 26/44/15 116/44/15 110/30/15
f 72/77/16 71/76/16 156/76/16 157/77/16
f 54/57/15 55/55/15 126/55/15 123/57/15
f 34/40/15 35/39/15 143/39/15 140/40/15
f 73/72/16 72/77/16 157/77/16 158/72/16
f 53/59/15 54/57/15 123/57/15 120/59/15
f 38/6/16 37/7/16 113/7/16 118/6/16
f 5/43/13 6/42/13 104/42/13 102/43/13
f 63/71/16 73/72/16 158/72/16 148/71/16
f 52/61/15 53/59/15 120/59/15 117/61/15
f 47/26/16 46/24/16 142/24/16 145/26/16
f 26/44/15 27/27/15 119/27/15 116/44/15
f 50/63/15 52/61/15 117/61/15 112/63/15
f 35/39/15 36/29/15 111/29/15 143/39/15
f 51/45/15 50/66/15 112/66/15 115/45/15
f 48/3/16 47/26/16 145/26/16 114/3/16
f 39/10/16 38/6/16 118/6/16 121/10/16
f 6/42/13 7/41/13 105/41/13 104/42/13
f 27/27/15 28/28/15 122/28/15 119/27/15
f 40/12/16 39/10/16 121/10/16 124/12/16
f 7/41/13 8/35/13 106/35/13 105/41/13
