# Blender 5.1.1
# www.blender.org
mtllib PipeConnector.mtl
o PipeConnector
v 0.571577 -0.100000 -0.330000
v 0.660000 -0.100000 0.000001
v 0.330000 -0.100000 -0.571577
v 0.000000 -0.100000 -0.660000
v -0.330000 -0.100000 -0.571577
v -0.571577 -0.100000 -0.330000
v -0.660000 -0.100000 0.000000
v -0.571577 -0.100000 0.330000
v -0.330001 -0.100000 0.571576
v -0.000001 -0.100000 0.660000
v 0.329999 -0.100000 0.571577
v 0.571576 -0.100000 0.330001
v 0.571577 0.100000 -0.330000
v 0.660000 0.100000 0.000001
v 0.330000 0.100000 -0.571577
v 0.000000 0.100000 -0.660000
v -0.330000 0.100000 -0.571577
v -0.571577 0.100000 -0.330000
v -0.660000 0.100000 0.000000
v -0.571577 0.100000 0.330000
v -0.330001 0.100000 0.571576
v -0.000001 0.100000 0.660000
v 0.329999 0.100000 0.571577
v 0.571576 0.100000 0.330001
vn -0.0000 -1.0000 -0.0000
vn -0.0000 1.0000 -0.0000
vn 0.2588 -0.0000 -0.9659
vn 0.2588 -0.0000 0.9659
vn -0.9659 -0.0000 0.2588
vn -0.2588 -0.0000 -0.9659
vn 0.7071 -0.0000 0.7071
vn 0.9659 -0.0000 -0.2588
vn -0.7071 -0.0000 0.7071
vn -0.7071 -0.0000 -0.7071
vn 0.9659 -0.0000 0.2588
vn 0.7071 -0.0000 -0.7071
vn -0.2588 -0.0000 0.9659
vn -0.9659 -0.0000 -0.2588
vt 0.000000 0.583333
vt 0.000000 0.500000
vt 0.000000 0.416667
vt 0.000000 0.333333
vt 0.000000 0.250000
vt 0.000000 0.166667
vt 0.000000 0.083333
vt 0.000000 0.000000
vt 0.000000 0.916667
vt 0.000000 0.833333
vt 0.000000 0.750000
vt 0.000000 0.666667
s 0
f 9/1/1 8/2/1 7/3/1 6/4/1 5/5/1 4/6/1 3/7/1 1/8/1 2/9/1 12/10/1 11/11/1 10/12/1
f 21/1/2 22/12/2 23/11/2 24/10/2 14/9/2 13/8/2 15/7/2 16/6/2 17/5/2 18/4/2 19/3/2 20/2/2
f 3/7/3 4/6/3 16/6/3 15/7/3
f 10/12/4 11/11/4 23/11/4 22/12/4
f 7/3/5 8/2/5 20/2/5 19/3/5
f 4/6/6 5/5/6 17/5/6 16/6/6
f 11/11/7 12/10/7 24/10/7 23/11/7
f 2/9/8 1/8/8 13/8/8 14/9/8
f 8/2/9 9/1/9 21/1/9 20/2/9
f 5/5/10 6/4/10 18/4/10 17/5/10
f 12/10/11 2/9/11 14/9/11 24/10/11
f 1/8/12 3/7/12 15/7/12 13/8/12
f 9/1/13 10/12/13 22/12/13 21/1/13
f 6/4/14 7/3/14 19/3/14 18/4/14
