# Blender 5.1.2
# www.blender.org
mtllib SecurityCamera.mtl
o Cube
v -0.250000 0.054755 -0.029477
v -0.250000 0.109496 -0.023150
v -0.250000 0.054755 0.029477
v -0.250000 0.109496 0.023150
v 0.090000 0.066610 -0.050000
v 0.090000 0.066610 0.050000
v -0.250000 0.083969 0.023150
v -0.250000 0.083969 -0.023150
v -0.250000 0.047659 0.000000
v -0.250000 0.148832 0.000000
v -0.250000 0.062396 0.000000
v 0.090000 0.066610 0.000000
v 0.027126 0.040000 0.035825
v -0.080000 0.160000 0.050000
v 0.027126 0.040000 -0.035825
v -0.080000 0.160000 -0.050000
v 0.040209 0.066610 -0.050000
v 0.040209 0.066610 0.050000
v -0.080000 0.165185 0.000000
v 0.027126 0.040000 0.000000
v -0.250000 0.066610 0.050000
v -0.250000 0.040000 0.050000
v -0.250000 0.040000 0.000000
v -0.250000 0.165185 0.000000
v -0.250000 0.160000 -0.050000
v -0.250000 0.066610 -0.050000
v -0.250000 0.040000 -0.050000
v -0.250000 0.160000 0.050000
v -0.276724 0.163955 0.000000
v -0.276724 0.158769 -0.050000
v -0.276724 0.158769 0.050000
v -0.253639 0.068278 0.050000
v -0.253639 0.068278 -0.050000
v -0.274831 0.158201 0.000000
v -0.274831 0.151348 -0.043617
v -0.274831 0.151348 0.043617
v -0.253639 0.068278 0.043617
v -0.253639 0.068278 -0.043617
v -0.080000 0.151352 0.057522
v -0.250000 0.151352 0.057522
v -0.080000 0.151352 -0.057522
v -0.250000 0.066610 0.057522
v -0.250000 0.151352 -0.057522
v -0.250000 0.066610 -0.057522
v 0.040209 0.066610 -0.057522
v 0.040209 0.066610 0.057522
v -0.253639 0.068278 0.057522
v -0.276724 0.150121 0.057522
v -0.276724 0.150121 -0.057522
v -0.253639 0.068278 -0.057522
v -0.250000 0.054708 0.000000
v -0.250000 0.066610 -0.043617
v -0.250000 0.066610 0.043617
v -0.250000 0.129602 0.000000
v -0.250000 0.138742 -0.036018
v -0.250000 0.138742 0.036018
v -0.250000 0.069150 0.000000
v -0.250000 0.080394 -0.028116
v -0.250000 0.080394 0.028116
v -0.250000 0.122978 0.000000
v -0.250000 0.113228 -0.028116
v -0.250000 0.113228 0.028116
v -0.256589 0.062396 0.000000
v -0.256589 0.080394 -0.028116
v -0.256589 0.080394 0.028116
v -0.256589 0.129602 0.000000
v -0.256589 0.113228 -0.028116
v -0.256589 0.113228 0.028116
v -0.256589 0.069150 0.000000
v -0.256589 0.083969 -0.023150
v -0.256589 0.083969 0.023150
v -0.256589 0.122978 0.000000
v -0.256589 0.109496 -0.023150
v -0.256589 0.109496 0.023150
v 0.090000 0.156087 -0.050000
v 0.080232 0.160000 -0.050000
v 0.080232 0.160000 0.050000
v 0.090000 0.156087 0.050000
v 0.090000 0.161290 0.000000
v 0.080232 0.165185 0.000000
v 0.080232 0.066610 -0.057522
v 0.090000 0.066610 -0.054649
v 0.090000 0.150709 -0.054649
v 0.080232 0.151352 -0.057522
v 0.080232 0.151352 0.057522
v 0.090000 0.150709 0.054649
v 0.090000 0.066610 0.054649
v 0.080232 0.066610 0.057522
v 0.076771 0.045447 0.000000
v 0.076771 0.045447 -0.050000
v 0.076771 0.058234 0.050000
v 0.076771 0.045447 0.050000
v 0.050717 0.045447 0.050000
v 0.076771 0.058234 -0.050000
v 0.050133 0.058234 -0.050000
v 0.076771 0.058234 0.000000
v 0.050717 0.045447 0.000000
v 0.050717 0.045447 -0.050000
v 0.050133 0.058234 0.050000
v -0.128974 0.160000 0.050000
v -0.028444 0.040000 -0.035825
v -0.043396 0.066610 0.050000
v -0.128974 0.165185 0.000000
v -0.028444 0.040000 0.035825
v -0.128974 0.160000 -0.050000
v -0.043396 0.066610 -0.050000
v -0.042618 0.040000 0.000000
v -0.128974 0.151352 0.057522
v -0.043396 0.066610 0.057522
v -0.128974 0.151352 -0.057522
v -0.043396 0.066610 -0.057522
v -0.042618 0.040000 0.050000
v 0.041301 0.040000 0.050000
v 0.041301 0.040000 0.000000
v 0.041301 0.040000 -0.050000
v -0.042618 0.040000 -0.050000
v -0.028444 0.040000 0.000000
v -0.012280 0.000029 0.000000
v 0.010963 0.000029 0.000000
v -0.012280 0.000029 0.014984
v 0.010963 0.000029 0.014984
v 0.010963 0.000029 -0.014984
v -0.012280 0.000029 -0.014984
vn -0.0000 0.6563 0.7545
vn -1.0000 -0.0000 -0.0000
vn -0.4166 -0.9091 -0.0000
vn -0.0000 -1.0000 -0.0000
vn 0.5349 -0.8449 -0.0000
vn -0.0000 -0.0000 1.0000
vn 0.5007 -0.8656 -0.0000
vn -0.0000 0.9947 0.1032
vn -0.0000 -0.0000 -1.0000
vn -0.0000 0.9947 -0.1032
vn -0.0302 0.6560 0.7542
vn -0.2975 -0.0872 -0.9507
vn -0.4214 -0.8870 -0.1887
vn -0.9648 -0.2610 0.0336
vn -0.9690 -0.2472 -0.0000
vn -0.9648 -0.2610 -0.0336
vn -0.0458 0.9936 -0.1030
vn -0.2975 -0.0872 0.9507
vn -0.4214 -0.8870 0.1887
vn -0.0458 0.9936 0.1030
vn -0.0000 0.6563 -0.7545
vn -0.9554 -0.2560 -0.1472
vn -0.9554 -0.2560 0.1472
vn -0.0302 0.6560 -0.7542
vn -0.0000 0.8422 0.5391
vn -0.0000 0.8641 0.5032
vn -0.0000 -0.8422 0.5391
vn -0.0000 -0.8641 0.5032
vn -0.0000 0.8641 -0.5032
vn -0.0000 0.8422 -0.5391
vn -0.0000 -0.8641 -0.5032
vn -0.0000 -0.8422 -0.5391
vn 0.3694 0.9243 0.0960
vn 0.2552 0.6337 0.7303
vn 0.3694 0.9243 -0.0960
vn 0.2822 -0.0000 -0.9594
vn 0.2822 -0.0000 0.9594
vn 0.2552 0.6337 -0.7303
vn 1.0000 -0.0000 -0.0000
vn 0.9271 -0.3749 -0.0000
vn -0.9271 -0.3749 -0.0000
vn -0.0000 -0.4623 0.8867
vn -0.0000 -0.4623 -0.8867
vt 0.713989 0.500000
vt 0.625000 0.500000
vt 0.713989 0.500000
vt 0.529503 0.625000
vt 0.585940 0.625000
vt 0.580974 0.682874
vt 0.534268 0.682874
vt 0.500000 0.750000
vt 0.286011 0.625000
vt 0.375000 0.625000
vt 0.375000 0.750000
vt 0.286011 0.750000
vt 0.500000 0.125000
vt 0.500000 0.250000
vt 0.410978 0.625000
vt 0.500000 0.625000
vt 0.500000 0.734044
vt 0.410978 0.734044
vt 0.375000 0.411011
vt 0.500000 0.411011
vt 0.500000 0.500000
vt 0.375000 0.500000
vt 0.250000 0.625000
vt 0.250000 0.750000
vt 0.500000 0.375000
vt 0.410978 0.515956
vt 0.500000 0.515956
vt 0.286011 0.500000
vt 0.534268 0.567125
vt 0.580974 0.567126
vt 0.250000 0.500000
vt 0.750000 0.500000
vt 0.750000 0.625000
vt 0.713989 0.625000
vt 0.500000 0.875000
vt 0.500000 1.000000
vt 0.375000 0.838989
vt 0.500000 0.838989
vt 0.375000 0.875000
vt 0.750000 0.750000
vt 0.713989 0.750000
vt 0.375000 0.375000
vt 0.614749 0.515956
vt 0.614749 0.625000
vt 0.614749 0.734044
vt 0.625000 0.625000
vt 0.625000 0.750000
vt 0.500000 0.411011
vt 0.625000 0.411011
vt 0.625000 0.838989
vt 0.625000 0.875000
vt 0.522421 0.625000
vt 0.524054 0.695290
vt 0.524054 0.554710
vt 0.591047 0.695290
vt 0.592886 0.625000
vt 0.591047 0.554710
vt 0.625000 0.125000
vt 0.625000 0.250000
vt 0.619762 0.250000
vt 0.620060 0.125000
vt 0.619582 0.250000
vt 0.625000 0.254788
vt 0.625000 0.000000
vt 0.619762 0.000000
vt 0.500000 0.975477
vt 0.625000 0.992817
vt 0.624052 1.000000
vt 0.500000 0.274523
vt 0.619582 0.000000
vt 0.500000 0.000000
vt 0.867818 0.625000
vt 0.867818 0.750000
vt 0.867818 0.500000
vt 0.625000 0.375000
vt 0.375000 1.000000
vt 0.375000 0.125000
vt 0.375000 0.250000
vt 0.375000 0.000000
vt 0.125000 0.500000
vt 0.125000 0.625000
vt 0.125000 0.750000
vt 0.256083 0.714563
vt 0.256083 0.625000
vt 0.279928 0.535437
vt 0.279928 0.625000
vt 0.256083 0.535437
vt 0.279928 0.714563
s 0
f 100/1/1 28/2/1 40/2/1 108/3/1
f 57/4/2 60/5/2 2/6/2 8/7/2
f 26/8/3 33/8/3 50/8/3 44/8/3
f 107/9/4 23/10/4 27/11/4 116/12/4
f 12/13/5 6/14/5 91/14/5 96/13/5
f 9/15/2 51/16/2 52/17/2 1/18/2
f 112/19/6 102/20/6 21/21/6 22/22/6
f 114/23/7 115/24/7 98/24/7 97/23/7
f 6/14/6 18/25/6 99/25/6 91/14/6
f 3/26/2 53/27/2 51/16/2 9/15/2
f 112/28/4 22/22/4 23/10/4 107/9/4
f 7/29/2 4/30/2 60/5/2 57/4/2
f 113/31/7 114/23/7 97/23/7 93/31/7
f 100/1/8 14/32/8 19/33/8 103/34/8
f 17/35/9 5/36/9 94/36/9 95/35/9
f 116/37/9 106/38/9 17/35/9 115/39/9
f 103/34/10 19/33/10 16/40/10 105/41/10
f 18/25/6 113/42/6 93/42/6 99/25/6
f 28/2/11 31/2/11 48/2/11 40/2/11
f 53/27/2 3/26/2 22/22/2 21/21/2
f 3/26/2 9/15/2 23/10/2 22/22/2
f 56/43/12 53/27/12 37/27/12 36/43/12
f 1/18/2 52/17/2 26/8/2 27/11/2
f 26/8/3 52/17/3 38/17/3 33/8/3
f 10/44/13 56/43/13 36/43/13 34/44/13
f 9/15/2 1/18/2 27/11/2 23/10/2
f 35/45/14 34/44/14 29/46/14 30/47/14
f 36/43/15 37/27/15 32/21/15 31/2/15
f 38/17/15 35/45/15 30/47/15 33/8/15
f 34/44/16 36/43/16 31/2/16 29/46/16
f 24/46/17 25/47/17 30/47/17 29/46/17
f 102/20/4 18/25/4 46/25/4 109/48/4
f 53/27/3 21/21/3 32/21/3 37/27/3
f 52/17/18 55/45/18 35/45/18 38/17/18
f 55/45/19 10/44/19 34/44/19 35/45/19
f 28/2/20 24/46/20 29/46/20 31/2/20
f 109/48/6 108/49/6 40/2/6 42/21/6
f 111/38/9 110/50/9 41/51/9 45/35/9
f 42/21/6 40/2/6 48/2/6 47/21/6
f 43/47/9 44/8/9 50/8/9 49/47/9
f 105/41/21 16/40/21 41/40/21 110/41/21
f 31/2/22 32/21/22 47/21/22 48/2/22
f 106/38/4 26/8/4 44/8/4 111/38/4
f 33/8/23 30/47/23 49/47/23 50/8/23
f 30/47/24 25/47/24 43/47/24 49/47/24
f 32/21/3 21/21/3 42/21/3 47/21/3
f 11/52/2 58/53/2 52/17/2 51/16/2
f 59/54/2 11/52/2 51/16/2 53/27/2
f 61/55/2 54/56/2 10/44/2 55/45/2
f 62/57/2 59/54/2 53/27/2 56/43/2
f 58/53/2 61/55/2 55/45/2 52/17/2
f 54/56/2 62/57/2 56/43/2 10/44/2
f 57/4/25 8/7/25 70/7/25 69/4/25
f 62/57/26 54/56/26 66/56/26 68/57/26
f 4/30/9 7/29/9 71/29/9 74/30/9
f 11/52/27 59/54/27 65/54/27 63/52/27
f 61/55/9 58/53/9 64/53/9 67/55/9
f 2/6/28 60/5/28 72/5/28 73/6/28
f 69/4/2 70/7/2 64/53/2 63/52/2
f 71/29/2 69/4/2 63/52/2 65/54/2
f 73/6/2 72/5/2 66/56/2 67/55/2
f 74/30/2 71/29/2 65/54/2 68/57/2
f 70/7/2 73/6/2 67/55/2 64/53/2
f 72/5/2 74/30/2 68/57/2 66/56/2
f 54/56/29 61/55/29 67/55/29 66/56/29
f 8/7/6 2/6/6 73/6/6 70/7/6
f 7/29/30 57/4/30 69/4/30 71/29/30
f 59/54/6 62/57/6 68/57/6 65/54/6
f 60/5/31 4/30/31 74/30/31 72/5/31
f 58/53/32 11/52/32 63/52/32 64/53/32
f 80/58/33 77/59/33 78/60/33 79/61/33
f 86/62/34 78/60/34 77/59/34 85/63/34
f 76/64/35 80/58/35 79/61/35 75/65/35
f 81/66/36 84/67/36 83/68/36 82/36/36
f 85/63/37 88/69/37 87/14/37 86/62/37
f 75/65/38 83/70/38 84/64/38 76/64/38
f 75/65/39 5/71/39 82/71/39 83/70/39
f 19/33/10 80/72/10 76/73/10 16/40/10
f 5/71/39 75/65/39 79/61/39 12/13/39
f 16/40/21 76/73/21 84/73/21 41/40/21
f 14/32/8 77/74/8 80/72/8 19/33/8
f 12/13/39 79/61/39 78/60/39 6/14/39
f 6/14/39 78/60/39 86/62/39 87/14/39
f 77/74/1 14/32/1 39/32/1 85/74/1
f 45/35/9 41/51/9 84/67/9 81/66/9
f 5/36/4 17/35/4 45/35/4 81/66/4 82/36/4
f 88/69/6 85/63/6 39/75/6 46/25/6
f 18/25/4 6/14/4 87/14/4 88/69/4 46/25/4
f 98/39/9 95/35/9 94/36/9 90/76/9
f 89/77/39 96/13/39 91/14/39 92/78/39
f 90/79/39 94/71/39 96/13/39 89/77/39
f 92/80/4 93/31/4 97/23/4 89/81/4
f 92/78/6 91/14/6 99/25/6 93/42/6
f 89/81/4 97/23/4 98/24/4 90/82/4
f 115/39/9 17/35/9 95/35/9 98/39/9
f 5/71/5 12/13/5 96/13/5 94/71/5
f 17/35/4 106/38/4 111/38/4 45/35/4
f 25/47/21 105/41/21 110/41/21 43/47/21
f 44/8/9 43/47/9 110/50/9 111/38/9
f 46/25/6 39/75/6 108/49/6 109/48/6
f 21/21/4 102/20/4 109/48/4 42/21/4
f 24/46/10 103/34/10 105/41/10 25/47/10
f 27/11/9 26/8/9 106/38/9 116/37/9
f 28/2/8 100/1/8 103/34/8 24/46/8
f 15/83/40 20/84/40 119/84/40 122/83/40
f 113/42/6 18/25/6 102/20/6 112/19/6
f 104/85/41 117/86/41 118/86/41 120/85/41
f 14/32/1 100/1/1 108/3/1 39/32/1
f 104/85/4 13/87/4 113/31/4 112/28/4
f 13/87/4 20/84/4 114/23/4 113/31/4
f 20/84/4 15/83/4 115/24/4 114/23/4
f 15/83/4 101/88/4 116/12/4 115/24/4
f 117/86/4 104/85/4 112/28/4 107/9/4
f 101/88/4 117/86/4 107/9/4 116/12/4
f 13/87/42 104/85/42 120/85/42 121/87/42
f 117/86/41 101/88/41 123/88/41 118/86/41
f 101/88/43 15/83/43 122/83/43 123/88/43
f 20/84/40 13/87/40 121/87/40 119/84/40
f 120/85/4 118/86/4 119/84/4 121/87/4
f 119/84/4 118/86/4 123/88/4 122/83/4
