# Blender 5.1.2
# www.blender.org
mtllib ShipmentContainer.mtl
o ShippingContainer
v 3.778716 -0.001986 -1.060945
v 3.778716 2.757279 -1.060945
v 3.778716 -0.001986 1.060945
v 3.778716 2.757279 1.060945
v -3.778716 -0.001986 -1.060945
v -3.778716 2.757279 -1.060945
v -3.778716 -0.001986 1.060945
v -3.778716 2.757279 1.060945
v 3.778716 2.619316 -1.060945
v 3.778716 2.619316 1.060945
v -3.778716 2.619316 1.060945
v -3.778716 2.619316 -1.060945
v 3.778716 0.135977 1.060945
v -3.778716 0.135977 1.060945
v -3.778716 0.135977 -1.060945
v 3.778716 0.135977 -1.060945
v 3.778716 -0.001986 -0.955356
v -3.778716 2.757279 -0.955356
v 3.778716 2.757279 -0.955356
v -3.778716 -0.001986 -0.955356
v 3.778716 2.619316 -0.955356
v -3.778716 2.619316 -0.955356
v -3.778716 0.135977 -0.955356
v 3.778716 0.135977 -0.955356
v 3.778716 2.757279 0.954345
v -3.778716 -0.001986 0.954345
v 3.778716 -0.001986 0.954345
v -3.778716 2.757279 0.954345
v -3.778716 2.619316 0.954345
v 3.778716 2.619316 0.954345
v 3.778716 0.135977 0.954345
v -3.778716 0.135977 0.954345
v -3.589780 2.757279 1.060945
v -3.589780 -0.001986 -1.060945
v -3.589780 -0.001986 1.060945
v -3.589780 2.757279 -1.060945
v -3.589780 2.619316 -1.060945
v -3.589780 2.619316 1.060945
v -3.589780 0.135977 1.060945
v -3.589780 0.135977 -1.060945
v -3.589780 2.757279 -0.955356
v -3.589780 -0.001986 -0.955356
v -3.589780 2.757279 0.954345
v -3.589780 -0.001986 0.954345
v 3.589780 -0.001986 1.060945
v 3.589780 2.757279 -1.060945
v 3.589780 2.757279 1.060945
v 3.589780 -0.001986 -1.060945
v 3.589780 2.619316 1.060945
v 3.589780 2.619316 -1.060945
v 3.589780 0.135977 -1.060945
v 3.589780 0.135977 1.060945
v 3.589780 -0.001986 -0.955356
v 3.589780 2.757279 -0.955356
v 3.589780 -0.001986 0.954345
v 3.589780 2.757279 0.954345
v 3.778716 2.790258 0.954345
v 3.778716 2.790258 1.060945
v -3.589780 2.790258 1.060945
v -3.778716 2.790258 1.060945
v -3.778716 2.790258 -0.955356
v -3.778716 2.790258 -1.060945
v 3.589780 2.790258 -1.060945
v 3.778716 2.790258 -1.060945
v 3.778716 2.790258 -0.955356
v -3.589780 2.790258 -0.955356
v -3.778716 2.790258 0.954345
v -3.589780 2.790258 0.954345
v -3.589780 2.790258 -1.060945
v 3.589780 2.790258 1.060945
v 3.589780 2.790258 -0.955356
v 3.589780 2.790258 0.954345
v 3.778716 -0.001986 -0.095990
v -3.778716 2.757279 -0.095990
v -3.778716 2.619316 -0.095990
v -3.778716 0.135977 -0.095990
v -3.589780 2.757279 -0.095990
v -3.589780 -0.001986 -0.095990
v 3.589780 -0.001986 -0.095990
v 3.589780 2.757279 -0.095990
v 3.778716 2.757279 -0.095990
v -3.778716 -0.001986 -0.095990
v 3.778716 2.619316 -0.095990
v 3.778716 0.135977 -0.095990
v 3.778716 2.757279 0.094980
v -3.778716 -0.001986 0.094980
v 3.778716 2.619316 0.094980
v 3.778716 0.135977 0.094980
v 3.778716 -0.001986 0.094980
v -3.778716 2.757279 0.094980
v -3.778716 2.619316 0.094980
v -3.778716 0.135977 0.094980
v -3.589780 2.757279 0.094980
v -3.589780 -0.001986 0.094980
v 3.589780 -0.001986 0.094980
v 3.589780 2.757279 0.094980
v -3.778716 2.619316 -0.095990
v -3.778716 2.619316 -0.955356
v -3.778716 0.135977 -0.095990
v -3.778716 0.135977 -0.955356
v 3.778716 2.619316 -0.955356
v 3.778716 0.135977 -0.955356
v 3.778716 2.619316 0.094980
v 3.778716 2.619316 0.954345
v 3.778716 0.135977 0.094980
v 3.778716 0.135977 0.954345
v -3.778716 2.619316 0.954345
v -3.778716 0.135977 0.954345
v 3.589780 2.619316 1.060945
v -3.589780 2.619316 1.060945
v 3.589780 0.135977 1.060945
v -3.589780 0.135977 1.060945
v 3.589780 2.757279 -0.955356
v -3.589780 2.757279 -0.955356
v 3.589780 2.757279 0.954345
v -3.589780 2.757279 0.954345
v -3.589780 2.619316 -1.060945
v -3.589780 0.135977 -1.060945
v -3.589780 2.757279 -0.095990
v -3.589780 -0.001986 -0.095990
v -3.589780 -0.001986 -0.955356
v 3.589780 2.619316 -1.060945
v 3.589780 0.135977 -1.060945
v 3.589780 -0.001986 -0.955356
v -3.589780 -0.001986 0.954345
v 3.589780 -0.001986 0.954345
v 3.589780 -0.001986 -0.095990
v 3.589780 2.757279 -0.095990
v -3.589780 2.757279 0.094980
v -3.589780 -0.001986 0.094980
v 3.589780 -0.001986 0.094980
v 3.589780 2.757279 0.094980
v 3.778716 2.619316 -0.095990
v 3.778716 0.135977 -0.095990
v -3.778716 2.619316 0.094980
v -3.778716 0.135977 0.094980
v -3.724980 2.619316 -0.095990
v -3.724980 2.619316 -0.955356
v -3.724980 0.135977 -0.095990
v -3.724980 0.135977 -0.955356
v 3.724980 2.619316 -0.955356
v 3.724980 0.135977 -0.955356
v 3.724980 2.619316 0.094980
v 3.724980 2.619316 0.954345
v 3.724980 0.135977 0.094980
v 3.724980 0.135977 0.954345
v -3.724980 2.619316 0.954345
v -3.724980 0.135977 0.954345
v 3.589780 2.619316 1.007210
v -3.589780 2.619316 1.007210
v 3.589780 0.135977 1.007210
v -3.589780 0.135977 1.007210
v 3.589780 2.703544 -0.955356
v -3.589780 2.703544 -0.955356
v 3.589780 2.703544 0.954345
v -3.589780 2.703544 0.954345
v -3.589780 2.619316 -1.007210
v -3.589780 0.135977 -1.007210
v -3.589780 2.703544 -0.095990
v -3.589780 0.051749 -0.095990
v -3.589780 0.051749 -0.955356
v 3.589780 2.619316 -1.007210
v 3.589780 0.135977 -1.007210
v 3.589780 0.051749 -0.955356
v -3.589780 0.051749 0.954345
v 3.589780 0.051749 0.954345
v 3.589780 0.051749 -0.095990
v 3.589780 2.703544 -0.095990
v -3.589780 2.703544 0.094980
v -3.589780 0.051749 0.094980
v 3.589780 0.051749 0.094980
v 3.589780 2.703544 0.094980
v 3.724980 2.619316 -0.095990
v 3.724980 0.135977 -0.095990
v -3.724980 2.619316 0.094980
v -3.724980 0.135977 0.094980
vn 1.0000 -0.0000 -0.0000
vn -0.0000 -0.0000 1.0000
vn -1.0000 -0.0000 -0.0000
vn -0.0000 -0.0000 -1.0000
vn -0.0000 -1.0000 -0.0000
vn -0.0000 1.0000 -0.0000
vt 0.612500 0.237440
vt 0.625000 0.237440
vt 0.625000 0.250000
vt 0.612500 0.250000
vt 0.612500 0.493750
vt 0.625000 0.493750
vt 0.625000 0.500000
vt 0.612500 0.500000
vt 0.612500 0.737559
vt 0.625000 0.737559
vt 0.625000 0.750000
vt 0.612500 0.750000
vt 0.612500 0.993750
vt 0.625000 0.993750
vt 0.625000 1.000000
vt 0.612500 1.000000
vt 0.368750 0.737560
vt 0.375000 0.737560
vt 0.375000 0.750000
vt 0.368750 0.750000
vt 0.387500 0.250000
vt 0.612500 0.256250
vt 0.387500 0.256250
vt 0.387500 0.750000
vt 0.612500 0.756250
vt 0.387500 0.756250
vt 0.625000 0.136190
vt 0.612500 0.136190
vt 0.625000 0.756250
vt 0.868750 0.737559
vt 0.868750 0.750000
vt 0.631250 0.750000
vt 0.631250 0.737559
vt 0.131250 0.750000
vt 0.131250 0.737559
vt 0.387500 0.993750
vt 0.375000 0.993750
vt 0.375000 0.756250
vt 0.625000 0.256250
vt 0.631250 0.636310
vt 0.631250 0.613809
vt 0.387500 1.000000
vt 0.387500 0.737559
vt 0.387500 0.500000
vt 0.387500 0.493750
vt 0.387500 0.237440
vt 0.625000 0.636309
vt 0.612500 0.636310
vt 0.375000 0.237440
vt 0.375000 0.250000
vt 0.375000 0.493750
vt 0.375000 0.500000
vt 0.375000 1.000000
vt 0.387500 0.136190
vt 0.375000 0.136190
vt 0.375000 0.256250
vt 0.375000 0.000000
vt 0.387500 0.000000
vt 0.387500 0.012440
vt 0.375000 0.012440
vt 0.368750 0.500000
vt 0.368750 0.512560
vt 0.131250 0.512560
vt 0.131250 0.500000
vt 0.612500 0.000000
vt 0.612500 0.012440
vt 0.625000 0.000000
vt 0.625000 0.012440
vt 0.387500 0.512560
vt 0.375000 0.512560
vt 0.375000 0.613810
vt 0.368750 0.613810
vt 0.612500 0.512560
vt 0.612500 0.613809
vt 0.868750 0.500000
vt 0.868750 0.512560
vt 0.631250 0.512560
vt 0.631250 0.500000
vt 0.625000 0.512560
vt 0.125000 0.636310
vt 0.131250 0.636310
vt 0.125000 0.737559
vt 0.875000 0.613809
vt 0.868750 0.613809
vt 0.875000 0.512560
vt 0.125000 0.500000
vt 0.125000 0.512560
vt 0.387500 0.636310
vt 0.375000 0.636310
vt 0.125000 0.750000
vt 0.875000 0.737559
vt 0.875000 0.750000
vt 0.875000 0.500000
vt 0.387500 0.613809
vt 0.875000 0.636310
vt 0.868750 0.636310
vt 0.131250 0.613809
vt 0.125000 0.613810
vt 0.368750 0.636310
vt 0.612500 0.113690
vt 0.387500 0.113690
vt 0.375000 0.113690
vt 0.625000 0.613809
vt 0.625000 0.113690
s 0
f 30/1/1 25/2/1 4/3/1 10/4/1
f 38/5/2 33/6/2 8/7/2 11/8/2
f 22/9/3 18/10/3 6/11/3 12/12/3
f 50/13/4 46/14/4 2/15/4 9/16/4
f 42/17/5 20/18/5 5/19/5 34/20/5
f 4/3/1 25/2/1 57/2/1 58/3/1
f 13/21/2 10/4/2 49/22/2 52/23/2
f 15/24/4 12/12/4 37/25/4 40/26/4
f 85/27/1 25/2/1 30/1/1 87/28/1
f 36/29/4 46/14/4 50/13/4 37/25/4
f 54/30/6 46/31/6 36/32/6 41/33/6
f 42/17/5 34/20/5 48/34/5 53/35/5
f 40/26/4 51/36/4 48/37/4 34/38/4
f 47/39/2 33/6/2 38/5/2 49/22/2
f 77/40/6 93/41/6 129/41/6 119/40/6
f 50/13/4 9/16/4 16/42/4 51/36/4
f 22/9/3 12/12/3 15/24/3 23/43/3
f 38/5/2 11/8/2 14/44/2 39/45/2
f 30/1/1 10/4/1 13/21/1 31/46/1
f 74/47/3 18/10/3 22/9/3 75/48/3
f 27/49/1 31/46/1 13/21/1 3/50/1
f 35/51/2 39/45/2 14/44/2 7/52/2
f 20/18/3 23/43/3 15/24/3 5/19/3
f 48/37/4 51/36/4 16/42/4 1/53/4
f 88/54/1 31/46/1 27/49/1 89/55/1
f 52/23/2 39/45/2 35/51/2 45/56/2
f 1/57/1 16/58/1 24/59/1 17/60/1
f 35/61/5 44/62/5 55/63/5 45/64/5
f 31/46/6 88/54/6 105/54/6 106/46/6
f 16/58/1 9/65/1 21/66/1 24/59/1
f 51/36/6 40/26/6 118/26/6 123/36/6
f 9/65/1 2/67/1 19/68/1 21/66/1
f 7/52/3 14/44/3 32/69/3 26/70/3
f 86/71/5 94/72/5 44/62/5 26/70/5
f 29/73/6 91/74/6 135/74/6 107/73/6
f 14/44/3 11/8/3 29/73/3 32/69/3
f 47/75/6 56/76/6 43/77/6 33/78/6
f 11/8/3 8/7/3 28/79/3 29/73/3
f 35/61/5 7/52/5 26/70/5 44/62/5
f 6/11/3 18/10/3 61/10/3 62/11/3
f 19/68/1 2/67/1 64/67/1 65/68/1
f 73/80/5 79/81/5 53/35/5 17/82/5
f 5/19/4 15/24/4 40/26/4 34/38/4
f 85/83/6 96/84/6 56/76/6 25/85/6
f 38/5/6 39/45/6 112/45/6 110/5/6
f 12/12/4 6/11/4 36/29/4 37/25/4
f 56/76/3 47/75/3 70/75/3 72/76/3
f 3/86/5 45/64/5 55/63/5 27/87/5
f 76/88/3 23/43/3 20/18/3 82/89/3
f 3/50/2 13/21/2 52/23/2 45/56/2
f 87/28/6 30/1/6 104/1/6 103/28/6
f 10/4/2 4/3/2 47/39/2 49/22/2
f 17/82/5 53/35/5 48/34/5 1/90/5
f 74/47/6 77/40/6 41/33/6 18/10/6
f 71/30/6 65/91/6 64/92/6 63/31/6
f 70/75/6 58/93/6 57/85/6 72/76/6
f 60/7/6 59/78/6 68/77/6 67/79/6
f 61/10/6 66/33/6 69/32/6 62/11/6
f 46/31/3 54/30/3 71/30/3 63/31/3
f 28/79/3 8/7/3 60/7/3 67/79/3
f 2/15/4 46/14/4 63/14/4 64/15/4
f 36/29/4 6/11/4 62/11/4 69/29/4
f 18/10/2 41/33/2 66/33/2 61/10/2
f 43/77/4 28/79/4 67/79/4 68/77/4
f 54/30/2 19/91/2 65/91/2 71/30/2
f 47/39/2 4/3/2 58/3/2 70/39/2
f 8/7/2 33/6/2 59/6/2 60/7/2
f 41/33/1 36/32/1 69/32/1 66/33/1
f 25/85/4 56/76/4 72/76/4 57/85/4
f 33/78/1 43/77/1 68/77/1 59/78/1
f 92/94/3 76/88/3 82/89/3 86/71/3
f 37/25/6 50/13/6 122/13/6 117/25/6
f 96/84/6 85/83/6 81/95/6 80/96/6
f 95/97/5 79/81/5 73/80/5 89/98/5
f 94/72/5 86/71/5 82/89/5 78/99/5
f 23/43/6 76/88/6 99/88/6 100/43/6
f 83/100/1 87/28/1 88/54/1 84/101/1
f 84/101/1 88/54/1 89/55/1 73/102/1
f 90/103/3 74/47/3 75/48/3 91/74/3
f 91/74/3 75/48/3 76/88/3 92/94/3
f 81/104/1 85/27/1 87/28/1 83/100/1
f 19/68/1 81/104/1 83/100/1 21/66/1
f 24/59/1 84/101/1 73/102/1 17/60/1
f 52/23/6 49/22/6 109/22/6 111/23/6
f 20/18/5 42/17/5 78/99/5 82/89/5
f 19/91/6 54/30/6 80/96/6 81/95/6
f 83/100/6 84/101/6 134/101/6 133/100/6
f 28/79/3 90/103/3 91/74/3 29/73/3
f 75/48/6 22/9/6 98/9/6 97/48/6
f 27/87/5 55/63/5 95/97/5 89/98/5
f 50/13/6 51/36/6 123/36/6 122/13/6
f 32/69/3 92/94/3 86/71/3 26/70/3
f 28/79/6 43/77/6 93/41/6 90/103/6
f 93/41/6 77/40/6 74/47/6 90/103/6
f 112/45/6 111/23/6 151/23/6 152/45/6
f 124/35/3 127/81/3 167/81/3 164/35/3
f 136/94/6 108/69/6 148/69/6 176/94/6
f 109/22/5 110/5/5 150/5/5 149/22/5
f 111/23/3 109/22/3 149/22/3 151/23/3
f 107/73/5 135/74/5 175/74/5 147/73/5
f 108/69/4 107/73/4 147/73/4 148/69/4
f 122/13/3 123/36/3 163/36/3 162/13/3
f 99/88/4 97/48/4 137/48/4 139/88/4
f 104/1/4 106/46/4 146/46/4 144/1/4
f 126/63/4 125/62/4 165/62/4 166/63/4
f 106/46/6 105/54/6 145/54/6 146/46/6
f 40/26/6 37/25/6 117/25/6 118/26/6
f 92/94/6 32/69/6 108/69/6 136/94/6
f 53/35/6 79/81/6 127/81/6 124/35/6
f 88/54/6 87/28/6 103/28/6 105/54/6
f 94/72/6 78/99/6 120/99/6 130/72/6
f 93/41/6 43/77/6 116/77/6 129/41/6
f 80/96/6 54/30/6 113/30/6 128/96/6
f 22/9/6 23/43/6 100/43/6 98/9/6
f 49/22/6 38/5/6 110/5/6 109/22/6
f 42/17/6 53/35/6 124/35/6 121/17/6
f 79/81/6 95/97/6 131/97/6 127/81/6
f 44/62/6 94/72/6 130/72/6 125/62/6
f 24/59/6 21/66/6 101/66/6 102/59/6
f 39/45/6 52/23/6 111/23/6 112/45/6
f 96/84/6 80/96/6 128/96/6 132/84/6
f 41/33/6 77/40/6 119/40/6 114/33/6
f 95/97/6 55/63/6 126/63/6 131/97/6
f 55/63/6 44/62/6 125/62/6 126/63/6
f 30/1/6 31/46/6 106/46/6 104/1/6
f 78/99/6 42/17/6 121/17/6 120/99/6
f 56/76/6 96/84/6 132/84/6 115/76/6
f 54/30/6 41/33/6 114/33/6 113/30/6
f 32/69/6 29/73/6 107/73/6 108/69/6
f 91/74/6 92/94/6 136/94/6 135/74/6
f 76/88/6 75/48/6 97/48/6 99/88/6
f 21/66/6 83/100/6 133/100/6 101/66/6
f 43/77/6 56/76/6 115/76/6 116/77/6
f 84/101/6 24/59/6 102/59/6 134/101/6
f 137/48/3 138/9/3 140/43/3 139/88/3
f 143/28/1 144/1/1 146/46/1 145/54/1
f 160/99/5 161/17/5 164/35/5 167/81/5
f 157/25/4 162/13/4 163/36/4 158/26/4
f 168/96/6 153/30/6 154/33/6 159/40/6
f 149/22/2 150/5/2 152/45/2 151/23/2
f 172/84/6 168/96/6 159/40/6 169/41/6
f 170/72/5 160/99/5 167/81/5 171/97/5
f 141/66/1 173/100/1 174/101/1 142/59/1
f 147/73/3 175/74/3 176/94/3 148/69/3
f 165/62/5 170/72/5 171/97/5 166/63/5
f 155/76/6 172/84/6 169/41/6 156/77/6
f 129/41/1 116/77/1 156/77/1 169/41/1
f 128/96/3 113/30/3 153/30/3 168/96/3
f 113/30/2 114/33/2 154/33/2 153/30/2
f 125/62/1 130/72/1 170/72/1 165/62/1
f 119/40/1 129/41/1 169/41/1 159/40/1
f 116/77/4 115/76/4 155/76/4 156/77/4
f 131/97/3 126/63/3 166/63/3 171/97/3
f 130/72/1 120/99/1 160/99/1 170/72/1
f 110/5/1 112/45/1 152/45/1 150/5/1
f 115/76/3 132/84/3 172/84/3 155/76/3
f 127/81/3 131/97/3 171/97/3 167/81/3
f 118/26/1 117/25/1 157/25/1 158/26/1
f 135/74/2 136/94/2 176/94/2 175/74/2
f 97/48/5 98/9/5 138/9/5 137/48/5
f 132/84/3 128/96/3 168/96/3 172/84/3
f 114/33/1 119/40/1 159/40/1 154/33/1
f 100/43/6 99/88/6 139/88/6 140/43/6
f 101/66/5 133/100/5 173/100/5 141/66/5
f 120/99/1 121/17/1 161/17/1 160/99/1
f 98/9/2 100/43/2 140/43/2 138/9/2
f 134/101/6 102/59/6 142/59/6 174/101/6
f 117/25/5 122/13/5 162/13/5 157/25/5
f 105/54/2 103/28/2 143/28/2 145/54/2
f 102/59/2 101/66/2 141/66/2 142/59/2
f 133/100/4 134/101/4 174/101/4 173/100/4
f 123/36/6 118/26/6 158/26/6 163/36/6
f 103/28/5 104/1/5 144/1/5 143/28/5
f 121/17/2 124/35/2 164/35/2 161/17/2
