# Blender 5.1.1
# www.blender.org
mtllib SpeakerModern.mtl
o SpeakerModern
v 0.219154 -0.500000 -0.500000
v 0.219154 0.500000 -0.500000
v 0.219154 -0.500000 0.500000
v 0.219154 0.500000 0.500000
v 0.000652 -0.287587 -0.287587
v -0.110295 0.287587 -0.287587
v 0.000652 -0.287587 0.287587
v -0.110295 0.287587 0.287587
v -0.151269 0.500000 0.500000
v 0.041625 -0.500000 0.500000
v 0.041625 -0.500000 -0.500000
v -0.151269 0.500000 -0.500000
v 0.219154 -0.500000 0.000000
v 0.219154 0.500000 0.000000
v 0.041625 -0.500000 0.000000
v -0.151269 0.500000 0.000000
v 0.020418 -0.390060 0.000000
v -0.130062 0.390060 0.000000
v 0.219154 0.000000 -0.500000
v 0.219154 0.000000 0.500000
v -0.054822 0.000000 0.500000
v -0.054822 0.000000 -0.500000
v -0.054822 0.000000 0.390060
v -0.054822 0.000000 -0.390060
v 0.219154 0.000000 0.000000
v 0.219154 0.500000 0.250000
v 0.041625 -0.500000 0.250000
v 0.010011 -0.336107 0.222872
v 0.219154 -0.500000 0.250000
v -0.151269 0.500000 0.250000
v -0.119655 0.336107 0.222872
v 0.219154 0.000000 0.250000
v 0.219154 -0.500000 -0.250000
v -0.151269 0.500000 -0.250000
v -0.119655 0.336107 -0.222872
v 0.219154 0.500000 -0.250000
v 0.041625 -0.500000 -0.250000
v 0.010011 -0.336107 -0.222872
v 0.219154 0.000000 -0.250000
v 0.219154 0.250000 -0.500000
v 0.219154 0.250000 0.500000
v -0.103045 0.250000 0.500000
v -0.103045 0.250000 -0.500000
v -0.097812 0.222872 0.336107
v -0.097812 0.222872 -0.336107
v 0.219154 0.250000 0.000000
v 0.219154 0.250000 0.250000
v 0.219154 0.250000 -0.250000
v 0.219154 -0.250000 0.500000
v -0.006598 -0.250000 0.500000
v -0.006598 -0.250000 -0.500000
v -0.011831 -0.222872 0.336107
v -0.011831 -0.222872 -0.336107
v 0.219154 -0.250000 0.000000
v 0.219154 -0.250000 -0.500000
v 0.219154 -0.250000 0.250000
v 0.219154 -0.250000 -0.250000
v -0.100923 -0.237978 0.336107
v -0.088440 -0.302693 0.287587
v -0.079081 -0.351213 0.222872
v -0.208747 0.321002 -0.222872
v -0.199388 0.272481 -0.287587
v -0.100923 -0.237978 -0.336107
v -0.088440 -0.302693 -0.287587
v -0.079081 -0.351213 -0.222872
v -0.068674 -0.405166 0.000000
v -0.208747 0.321002 0.222872
v -0.219154 0.374955 0.000000
v -0.127282 -0.215106 0.000000
v -0.186905 0.207767 0.336107
v -0.143914 -0.015106 0.390060
v -0.186905 0.207767 -0.336107
v -0.143914 -0.015106 -0.390060
v -0.204439 0.184894 0.000000
v -0.165861 -0.015106 0.000000
v -0.165861 -0.015106 0.200000
v -0.165861 -0.015106 -0.200000
v -0.199388 0.272481 0.287587
v -0.131745 -0.191967 0.176862
v -0.199976 0.161756 0.176862
v -0.131745 -0.191967 -0.176862
v -0.199976 0.161756 -0.176862
vn 1.0000 -0.0000 -0.0000
vn -0.0000 -0.0000 1.0000
vn 0.1623 -0.9573 -0.2393
vn -0.0000 -0.0000 -1.0000
vn -0.0000 -1.0000 -0.0000
vn -0.0000 1.0000 -0.0000
vn -0.9819 -0.1894 -0.0000
vn -0.1329 0.7837 0.6068
vn 0.0991 -0.5846 -0.8052
vn -0.0387 0.2281 -0.9729
vn -0.1623 0.9573 -0.2393
vn -0.1329 0.7837 -0.6068
vn -0.0387 0.2281 0.9729
vn 0.1623 -0.9573 0.2393
vn 0.1329 -0.7837 0.6068
vn 0.0991 -0.5846 0.8052
vn 0.0387 -0.2281 -0.9729
vn -0.0991 0.5846 -0.8052
vn 0.0387 -0.2281 0.9729
vn -0.1623 0.9573 0.2393
vn -0.0991 0.5846 0.8052
vn 0.1329 -0.7837 -0.6068
vn -0.9908 -0.0929 -0.0982
vn -0.9973 -0.0702 0.0236
vn -0.9704 -0.2101 -0.1189
vn -0.9704 -0.2101 0.1189
vn -0.9908 -0.0929 0.0982
vn -0.9973 -0.0702 -0.0236
vn -0.9789 -0.1657 0.1200
vn -0.9789 -0.1657 -0.1200
vn -0.9534 -0.3008 -0.0225
vn -0.9556 -0.2790 0.0947
vn -0.9556 -0.2790 -0.0947
vn -0.9534 -0.3008 0.0225
vt 0.562500 0.187500
vt 0.625000 0.187500
vt 0.625000 0.250000
vt 0.562500 0.250000
vt 0.625000 0.500000
vt 0.562500 0.500000
vt 0.400000 0.675000
vt 0.400000 0.625000
vt 0.562500 0.750000
vt 0.625000 0.750000
vt 0.625000 1.000000
vt 0.562500 1.000000
vt 0.125000 0.687500
vt 0.375000 0.687500
vt 0.375000 0.750000
vt 0.125000 0.750000
vt 0.625000 0.687500
vt 0.875000 0.687500
vt 0.875000 0.750000
vt 0.450000 0.525000
vt 0.400000 0.525000
vt 0.375000 0.500000
vt 0.437500 0.500000
vt 0.400000 0.725000
vt 0.600000 0.575000
vt 0.600000 0.525000
vt 0.625000 0.562500
vt 0.550000 0.725000
vt 0.600000 0.725000
vt 0.600000 0.675000
vt 0.600000 0.625000
vt 0.625000 0.625000
vt 0.400000 0.575000
vt 0.375000 0.625000
vt 0.375000 0.562500
vt 0.875000 0.562500
vt 0.875000 0.625000
vt 0.125000 0.562500
vt 0.125000 0.625000
vt 0.562500 0.062500
vt 0.625000 0.062500
vt 0.625000 0.125000
vt 0.562500 0.125000
vt 0.437500 0.062500
vt 0.500000 0.062500
vt 0.500000 0.125000
vt 0.437500 0.125000
vt 0.450000 0.725000
vt 0.500000 0.725000
vt 0.500000 0.750000
vt 0.437500 0.750000
vt 0.550000 0.525000
vt 0.500000 0.525000
vt 0.500000 0.500000
vt 0.500000 1.000000
vt 0.437500 1.000000
vt 0.437500 0.250000
vt 0.500000 0.250000
vt 0.437500 0.187500
vt 0.500000 0.187500
vt 0.125000 0.500000
vt 0.875000 0.500000
vt 0.437500 0.000000
vt 0.500000 0.000000
vt 0.562500 0.000000
vt 0.625000 0.000000
vt 0.375000 0.000000
vt 0.375000 0.062500
vt 0.375000 0.125000
vt 0.375000 0.187500
vt 0.375000 0.250000
vt 0.375000 1.000000
vt 0.550000 0.675000
vt 0.550000 0.575000
vt 0.550000 0.625000
vt 0.450000 0.575000
vt 0.500000 0.575000
vt 0.500000 0.625000
vt 0.450000 0.625000
vt 0.450000 0.675000
vt 0.500000 0.675000
s 0
f 47/1/1 26/2/1 4/3/1 41/4/1
f 41/4/2 4/3/2 9/5/2 42/6/2
f 38/7/3 17/8/3 66/8/3 65/7/3
f 43/9/4 12/10/4 2/11/4 40/12/4
f 33/13/5 37/14/5 11/15/5 1/16/5
f 34/17/6 36/18/6 2/19/6 12/10/6
f 52/20/7 7/21/7 10/22/7 50/23/7
f 38/7/7 5/24/7 11/15/7 37/14/7
f 31/25/7 8/26/7 9/5/7 30/27/7
f 45/28/7 6/29/7 12/10/7 43/9/7
f 35/30/7 18/31/7 16/32/7 34/17/7
f 28/33/7 17/8/7 15/34/7 27/35/7
f 30/27/6 26/36/6 14/37/6 16/32/6
f 29/38/5 27/35/5 15/34/5 13/39/5
f 8/26/8 31/25/8 67/25/8 78/26/8
f 48/40/1 36/41/1 14/42/1 46/43/1
f 57/44/1 39/45/1 25/46/1 54/47/1
f 53/48/9 5/24/9 64/24/9 63/48/9
f 53/48/7 24/49/7 22/50/7 51/51/7
f 44/52/7 23/53/7 21/54/7 42/6/7
f 51/51/4 22/50/4 19/55/4 55/56/4
f 45/28/10 24/49/10 73/49/10 72/28/10
f 49/57/2 20/58/2 21/54/2 50/23/2
f 56/59/1 32/60/1 20/58/1 49/57/1
f 54/47/1 25/46/1 32/60/1 56/59/1
f 18/31/11 35/30/11 61/30/11 68/31/11
f 35/30/12 6/29/12 62/29/12 61/30/12
f 3/61/5 10/22/5 27/35/5 29/38/5
f 9/5/6 4/62/6 26/36/6 30/27/6
f 7/21/7 28/33/7 27/35/7 10/22/7
f 18/31/7 31/25/7 30/27/7 16/32/7
f 46/43/1 14/42/1 26/2/1 47/1/1
f 23/53/13 44/52/13 70/52/13 71/53/13
f 55/63/1 19/64/1 39/45/1 57/44/1
f 40/65/1 2/66/1 36/41/1 48/40/1
f 6/29/7 35/30/7 34/17/7 12/10/7
f 17/8/7 38/7/7 37/14/7 15/34/7
f 16/32/6 14/37/6 36/18/6 34/17/6
f 13/39/5 15/34/5 37/14/5 33/13/5
f 17/8/14 28/33/14 60/33/14 66/8/14
f 28/33/15 7/21/15 59/21/15 60/33/15
f 19/64/1 40/65/1 48/40/1 39/45/1
f 25/46/1 46/43/1 47/1/1 32/60/1
f 7/21/16 52/20/16 58/20/16 59/21/16
f 8/26/7 44/52/7 42/6/7 9/5/7
f 39/45/1 48/40/1 46/43/1 25/46/1
f 24/49/17 53/48/17 63/48/17 73/49/17
f 24/49/7 45/28/7 43/9/7 22/50/7
f 22/50/4 43/9/4 40/12/4 19/55/4
f 6/29/18 45/28/18 72/28/18 62/29/18
f 20/58/2 41/4/2 42/6/2 21/54/2
f 32/60/1 47/1/1 41/4/1 20/58/1
f 1/67/1 55/63/1 57/44/1 33/68/1
f 52/20/19 23/53/19 71/53/19 58/20/19
f 31/25/20 18/31/20 68/31/20 67/25/20
f 13/69/1 54/47/1 56/59/1 29/70/1
f 29/70/1 56/59/1 49/57/1 3/71/1
f 3/71/2 49/57/2 50/23/2 10/22/2
f 44/52/21 8/26/21 78/26/21 70/52/21
f 11/15/4 51/51/4 55/56/4 1/72/4
f 5/24/7 53/48/7 51/51/7 11/15/7
f 5/24/22 38/7/22 65/7/22 64/24/22
f 33/68/1 57/44/1 54/47/1 13/69/1
f 23/53/7 52/20/7 50/23/7 21/54/7
f 82/73/23 61/30/23 62/29/23 72/28/23
f 80/74/24 67/25/24 68/31/24 74/75/24
f 79/76/7 76/77/7 75/78/7 69/79/7
f 81/80/25 77/81/25 73/49/25 63/48/25
f 58/20/26 71/53/26 76/77/26 79/76/26
f 70/52/27 78/26/27 67/25/27 80/74/27
f 69/79/7 75/78/7 77/81/7 81/80/7
f 74/75/28 68/31/28 61/30/28 82/73/28
f 75/78/7 74/75/7 82/73/7 77/81/7
f 71/53/29 70/52/29 80/74/29 76/77/29
f 76/77/7 80/74/7 74/75/7 75/78/7
f 77/81/30 82/73/30 72/28/30 73/49/30
f 66/8/31 69/79/31 81/80/31 65/7/31
f 59/21/32 58/20/32 79/76/32 60/33/32
f 65/7/33 81/80/33 63/48/33 64/24/33
f 60/33/34 79/76/34 69/79/34 66/8/34
