# Blender 5.1.1
# www.blender.org
mtllib SpeakerConeCone.mtl
o SpeakerCone
v -0.318461 -0.019509 0.098079
v -1.318461 -0.100504 0.505266
v -0.318461 -0.055557 0.083147
v -1.318461 -0.286210 0.428344
v -0.318461 -0.083147 0.055557
v -1.318461 -0.428344 0.286211
v -0.318461 -0.098079 0.019509
v -1.318461 -0.505266 0.100504
v -0.318461 -0.098079 -0.019509
v -1.318461 -0.505266 -0.100504
v -0.318461 -0.083147 -0.055557
v -1.318461 -0.428344 -0.286211
v -0.318461 -0.055557 -0.083147
v -1.318461 -0.286210 -0.428344
v -0.318461 -0.019509 -0.098079
v -1.318461 -0.100504 -0.505266
v -0.318461 0.019509 -0.098079
v -1.318461 0.100504 -0.505266
v -0.318461 0.055557 -0.083147
v -1.318461 0.286211 -0.428344
v -0.318461 0.083147 -0.055557
v -1.318461 0.428344 -0.286211
v -0.318461 0.098079 -0.019509
v -1.318461 0.505267 -0.100504
v -0.318461 0.098079 0.019509
v -1.318461 0.505267 0.100504
v -0.318461 0.083147 0.055557
v -1.318461 0.428344 0.286211
v -0.318461 0.055557 0.083147
v -1.318461 0.286211 0.428344
v -0.318461 0.019509 0.098079
v -1.318461 0.100504 0.505266
v -0.818461 -0.052674 0.264812
v -0.818461 -0.150004 0.224497
v -0.818461 -0.224497 0.150004
v -0.818461 -0.264812 0.052674
v -0.818461 -0.264812 -0.052674
v -0.818461 -0.224497 -0.150004
v -0.818461 -0.150004 -0.224497
v -0.818461 -0.052674 -0.264812
v -0.818461 0.052674 -0.264812
v -0.818461 0.150004 -0.224497
v -0.818461 0.224497 -0.150004
v -0.818461 0.264812 -0.052674
v -0.818461 0.264812 0.052674
v -0.818461 0.224497 0.150004
v -0.818461 0.150004 0.224497
v -0.818461 0.052674 0.264812
v -1.068461 -0.074088 0.372464
v -1.068461 -0.210984 0.315759
v -1.068461 -0.315760 0.210984
v -1.068461 -0.372464 0.074088
v -1.068461 -0.372464 -0.074088
v -1.068461 -0.315759 -0.210984
v -1.068461 -0.210984 -0.315759
v -1.068461 -0.074088 -0.372464
v -1.068461 0.074088 -0.372464
v -1.068461 0.210984 -0.315759
v -1.068461 0.315759 -0.210984
v -1.068461 0.372464 -0.074088
v -1.068461 0.372464 0.074088
v -1.068461 0.315759 0.210984
v -1.068461 0.210984 0.315759
v -1.068461 0.074088 0.372464
v -0.505961 -0.031681 0.159272
v -0.505961 -0.090220 0.135024
v -0.505961 -0.135024 0.090220
v -0.505961 -0.159272 0.031681
v -0.505961 -0.159272 -0.031681
v -0.505961 -0.135024 -0.090220
v -0.505961 -0.090220 -0.135024
v -0.505961 -0.031681 -0.159272
v -0.505961 0.031681 -0.159272
v -0.505961 0.090220 -0.135024
v -0.505961 0.135024 -0.090220
v -0.505961 0.159272 -0.031681
v -0.505961 0.159272 0.031681
v -0.505961 0.135024 0.090220
v -0.505961 0.090220 0.135024
v -0.505961 0.031681 0.159272
v -0.593461 -0.037432 0.188183
v -0.593461 -0.106597 0.159534
v -0.593461 -0.159534 0.106597
v -0.593461 -0.188184 0.037432
v -0.593461 -0.188183 -0.037432
v -0.593461 -0.159534 -0.106597
v -0.593461 -0.106597 -0.159534
v -0.593461 -0.037432 -0.188184
v -0.593461 0.037432 -0.188184
v -0.593461 0.106597 -0.159534
v -0.593461 0.159534 -0.106597
v -0.593461 0.188184 -0.037432
v -0.593461 0.188184 0.037432
v -0.593461 0.159534 0.106597
v -0.593461 0.106597 0.159534
v -0.593461 0.037432 0.188183
v -0.617067 -0.023762 0.119460
v -0.529567 -0.018011 0.090548
v -0.617067 -0.067669 0.101273
v -0.529567 -0.051291 0.076763
v -0.617067 -0.101273 0.067669
v -0.529567 -0.076763 0.051291
v -0.617067 -0.119460 0.023762
v -0.529567 -0.090548 0.018011
v -0.617067 -0.119460 -0.023762
v -0.529567 -0.090548 -0.018011
v -0.617067 -0.101273 -0.067669
v -0.529567 -0.076763 -0.051291
v -0.617067 -0.067669 -0.101273
v -0.529567 -0.051291 -0.076763
v -0.617067 -0.023762 -0.119460
v -0.529567 -0.018011 -0.090548
v -0.617067 0.023762 -0.119460
v -0.529567 0.018011 -0.090548
v -0.617067 0.067669 -0.101273
v -0.529567 0.051291 -0.076763
v -0.617067 0.101273 -0.067669
v -0.529567 0.076763 -0.051291
v -0.617067 0.119460 -0.023762
v -0.529567 0.090548 -0.018011
v -0.617067 0.119460 0.023762
v -0.529567 0.090548 0.018011
v -0.617067 0.101273 0.067669
v -0.529567 0.076763 0.051291
v -0.617067 0.067669 0.101273
v -0.529567 0.051291 0.076763
v -0.617067 0.023762 0.119460
v -0.529567 0.018011 0.090548
v -1.305961 -0.096372 0.484496
v -1.305961 -0.274445 0.410736
v -1.305961 -0.410736 0.274445
v -1.305961 -0.484496 0.096372
v -1.305961 -0.484496 -0.096372
v -1.305961 -0.410736 -0.274445
v -1.305961 -0.274445 -0.410736
v -1.305961 -0.096372 -0.484496
v -1.305961 0.096372 -0.484496
v -1.305961 0.274445 -0.410736
v -1.305961 0.410736 -0.274445
v -1.305961 0.484496 -0.096372
v -1.305961 0.484496 0.096372
v -1.305961 0.410736 0.274445
v -1.305961 0.274445 0.410736
v -1.305961 0.096372 0.484496
v -1.334199 -0.097054 0.487922
v -1.334199 -0.276386 0.413640
v -1.334199 -0.413640 0.276386
v -1.334199 -0.487922 0.097054
v -1.334199 -0.487922 -0.097054
v -1.334199 -0.413640 -0.276386
v -1.334199 -0.276386 -0.413640
v -1.334199 -0.097054 -0.487922
v -1.334199 0.097054 -0.487922
v -1.334199 0.276386 -0.413640
v -1.334199 0.413640 -0.276386
v -1.334199 0.487922 -0.097054
v -1.334199 0.487922 0.097054
v -1.334199 0.413640 0.276386
v -1.334199 0.276386 0.413640
v -1.334199 0.097054 0.487922
v -1.334199 -0.100504 0.505266
v -1.334199 -0.286210 0.428344
v -1.334199 -0.428344 0.286211
v -1.334199 -0.505266 0.100504
v -1.334199 -0.505266 -0.100504
v -1.334199 -0.428344 -0.286211
v -1.334199 -0.286210 -0.428344
v -1.334199 -0.100504 -0.505266
v -1.334199 0.100504 -0.505266
v -1.334199 0.286211 -0.428344
v -1.334199 0.428344 -0.286211
v -1.334199 0.505267 -0.100504
v -1.334199 0.505267 0.100504
v -1.334199 0.428344 0.286211
v -1.334199 0.286211 0.428344
v -1.334199 0.100504 0.505266
v -0.735633 -0.029489 0.148251
v -0.735633 -0.083978 0.125681
v -0.735633 -0.125681 0.083978
v -0.735633 -0.148251 0.029489
v -0.735633 -0.148251 -0.029489
v -0.735633 -0.125681 -0.083978
v -0.735633 -0.083978 -0.125681
v -0.735633 -0.029489 -0.148251
v -0.735633 0.029489 -0.148251
v -0.735633 0.083978 -0.125681
v -0.735633 0.125681 -0.083978
v -0.735633 0.148251 -0.029489
v -0.735633 0.148251 0.029489
v -0.735633 0.125681 0.083978
v -0.735633 0.083978 0.125681
v -0.735633 0.029489 0.148251
v -1.245633 -0.017737 0.089169
v -1.245633 -0.050510 0.075593
v -1.245633 -0.075594 0.050510
v -1.245633 -0.089169 0.017737
v -1.245633 -0.089169 -0.017737
v -1.245633 -0.075594 -0.050510
v -1.245633 -0.050510 -0.075593
v -1.245633 -0.017737 -0.089169
v -1.245633 0.017737 -0.089169
v -1.245633 0.050510 -0.075593
v -1.245633 0.075593 -0.050510
v -1.245633 0.089169 -0.017737
v -1.245633 0.089169 0.017737
v -1.245633 0.075593 0.050510
v -1.245633 0.050510 0.075593
v -1.245633 0.017737 0.089169
vn 0.3103 -0.3638 0.8783
vn 0.8568 -0.3646 0.3646
vn 0.8568 -0.4764 0.1973
vn 0.8568 -0.5156 -0.0000
vn 0.8568 -0.4764 -0.1973
vn 0.8568 -0.3646 -0.3646
vn 0.8568 -0.1973 -0.4764
vn 0.8568 -0.0000 -0.5156
vn 0.8568 0.1973 -0.4764
vn 0.8568 0.3646 -0.3646
vn 0.8568 0.4764 -0.1973
vn 0.8568 0.5156 -0.0000
vn 0.8568 0.4764 0.1973
vn 0.8568 0.3646 0.3646
vn 0.8568 0.1973 0.4764
vn -0.0000 0.3827 -0.9239
vn -0.0000 0.7071 0.7071
vn 1.0000 -0.0000 -0.0000
vn 0.3955 -0.3515 0.8486
vn 0.3137 -0.3634 0.8772
vn 0.3224 0.3623 0.8746
vn 0.3224 0.6694 0.6694
vn 0.3224 0.8746 0.3623
vn 0.3224 0.9466 -0.0000
vn 0.3224 0.8746 -0.3623
vn 0.3224 0.6694 -0.6694
vn 0.3224 0.3623 -0.8746
vn 0.3224 -0.0000 -0.9466
vn 0.3224 -0.3623 -0.8746
vn 0.3224 -0.6694 -0.6694
vn 0.3224 -0.8746 -0.3623
vn 0.3224 -0.9466 -0.0000
vn 0.3224 -0.8746 0.3623
vn 0.3224 -0.6694 0.6694
vn 0.4266 -0.3461 0.8356
vn 0.3955 -0.0000 0.9185
vn 0.3955 0.3515 0.8486
vn 0.3955 0.6495 0.6495
vn 0.3955 0.8486 0.3515
vn 0.3955 0.9185 -0.0000
vn 0.3955 0.8486 -0.3515
vn 0.3955 0.6495 -0.6495
vn 0.3955 0.3515 -0.8486
vn 0.3955 -0.0000 -0.9185
vn 0.3955 -0.3515 -0.8486
vn 0.3955 -0.6495 -0.6495
vn 0.3955 -0.8486 -0.3515
vn 0.3955 -0.9185 -0.0000
vn 0.3955 -0.8486 0.3515
vn 0.3955 -0.6495 0.6495
vn 0.3224 -0.3623 0.8746
vn 0.3224 -0.0000 0.9466
vn 0.3103 0.3638 0.8783
vn 0.3103 0.6722 0.6722
vn 0.3103 0.8783 0.3638
vn 0.3103 0.9507 -0.0000
vn 0.3103 0.8783 -0.3638
vn 0.3103 0.6722 -0.6722
vn 0.3103 0.3638 -0.8783
vn 0.3103 -0.0000 -0.9507
vn 0.3103 -0.3638 -0.8783
vn 0.3103 -0.6722 -0.6722
vn 0.3103 -0.8783 -0.3638
vn 0.3103 -0.9507 -0.0000
vn 0.3103 -0.8783 0.3638
vn 0.3103 -0.6722 0.6722
vn -0.9458 0.3249 -0.0000
vn 0.9458 -0.2297 0.2297
vn -0.9458 0.2297 0.2297
vn -0.9458 -0.3001 0.1243
vn -0.9458 -0.1243 0.3001
vn 0.9458 -0.1243 0.3001
vn -0.9458 0.1243 0.3001
vn -0.9458 -0.2297 0.2297
vn 0.9458 -0.0000 0.3249
vn -0.9458 -0.0000 0.3249
vn 0.9458 0.1243 0.3001
vn -0.9458 -0.3249 -0.0000
vn 0.9458 0.2297 0.2297
vn -0.9458 -0.3001 -0.1243
vn 0.9458 0.3001 0.1243
vn -0.9458 -0.2297 -0.2297
vn 0.3103 -0.0000 0.9507
vn 0.3137 -0.6714 0.6714
vn 0.3137 -0.8772 0.3634
vn 0.3137 -0.9495 -0.0000
vn 0.3137 -0.8772 -0.3634
vn 0.3137 -0.6714 -0.6714
vn 0.3137 -0.3634 -0.8772
vn 0.3137 -0.0000 -0.9495
vn 0.3137 0.3634 -0.8772
vn 0.3137 0.6714 -0.6714
vn 0.3137 0.8772 -0.3634
vn 0.3137 0.9495 -0.0000
vn 0.3137 0.8772 0.3634
vn 0.3137 0.6714 0.6714
vn 0.3137 0.3634 0.8772
vn 0.3137 -0.0000 0.9495
vn 0.9458 -0.3001 0.1243
vn 0.9458 -0.3249 -0.0000
vn -0.9458 0.3001 -0.1243
vn 0.9458 -0.3001 -0.1243
vn -0.9458 0.2297 -0.2297
vn 0.9458 -0.0000 -0.3249
vn 0.9458 -0.2297 -0.2297
vn 0.9458 0.1243 -0.3001
vn -0.9458 0.1243 -0.3001
vn 0.9458 -0.1243 -0.3001
vn 0.9458 0.2297 -0.2297
vn -0.9458 -0.0000 -0.3249
vn 0.9458 0.3001 -0.1243
vn -0.9458 -0.1243 -0.3001
vn 0.9458 0.3249 -0.0000
vn 0.4266 -0.0000 0.9044
vn 0.8568 -0.1973 0.4764
vn -0.9458 0.3001 0.1243
vn 0.4266 0.3461 0.8356
vn 0.4266 0.6395 0.6395
vn 0.4266 0.8356 0.3461
vn 0.4266 0.9044 -0.0000
vn 0.4266 0.8356 -0.3461
vn 0.4266 0.6395 -0.6395
vn 0.4266 0.3461 -0.8356
vn 0.4266 -0.0000 -0.9044
vn 0.4266 -0.3461 -0.8356
vn 0.4266 -0.6395 -0.6395
vn 0.4266 -0.8356 -0.3461
vn 0.4266 -0.9044 -0.0000
vn 0.4266 -0.8356 0.3461
vn 0.4266 -0.6395 0.6395
vn -0.4935 -0.8035 0.3328
vn -0.0000 -0.9239 0.3827
vn -0.0000 -0.3827 -0.9239
vn -0.0000 1.0000 -0.0000
vn -0.0000 -0.3827 0.9239
vn -0.0000 -0.9239 -0.3827
vn -0.0000 0.7071 -0.7071
vn -0.0000 -0.0000 -1.0000
vn -0.0000 -0.7071 -0.7071
vn -0.0000 0.3827 0.9239
vn -0.0000 -1.0000 -0.0000
vn -0.0000 0.9239 0.3827
vn -0.0000 -0.7071 0.7071
vn -0.0000 0.9239 -0.3827
vn -0.0000 -0.0000 1.0000
vn -1.0000 -0.0000 -0.0000
vn -0.4935 0.8697 -0.0000
vn -0.1151 0.7024 -0.7024
vn -0.4935 0.8035 0.3328
vn -0.4935 -0.8697 -0.0000
vn -0.4935 0.6150 0.6150
vn -0.4935 -0.8035 -0.3328
vn -0.4935 0.3328 0.8035
vn -0.4935 -0.0000 -0.8697
vn -0.4935 -0.6150 -0.6150
vn -0.4935 0.3328 -0.8035
vn -0.4935 -0.0000 0.8697
vn -0.4935 -0.3328 -0.8035
vn -0.4935 0.6150 -0.6150
vn -0.4935 -0.3328 0.8035
vn -0.4935 0.8035 -0.3328
vn -0.4935 -0.6150 0.6150
vn -0.1151 -0.9177 0.3801
vn -0.1151 -0.9934 -0.0000
vn -0.1151 0.9177 -0.3801
vn -0.1151 -0.9177 -0.3801
vn -0.1151 0.9934 -0.0000
vn -0.1151 -0.7024 -0.7024
vn -0.1151 0.9177 0.3801
vn -0.1151 -0.3801 -0.9177
vn -0.1151 -0.0000 0.9934
vn -0.1151 0.7024 0.7024
vn -0.1151 -0.3801 0.9177
vn -0.1151 -0.0000 -0.9934
vn -0.1151 0.3801 0.9177
vn -0.1151 -0.7024 0.7024
vn -0.1151 0.3801 -0.9177
vn 0.8568 -0.0000 0.5156
vt 0.968750 0.500000
vt 0.968750 0.593750
vt 0.906250 0.593750
vt 0.906250 0.500000
vt 0.906250 1.000000
vt 0.843750 1.000000
vt 0.843750 0.993750
vt 0.906250 0.993750
vt 0.781250 1.000000
vt 0.781250 0.993750
vt 0.718750 1.000000
vt 0.718750 0.993750
vt 0.656250 1.000000
vt 0.656250 0.993750
vt 0.593750 1.000000
vt 0.593750 0.993750
vt 0.531250 1.000000
vt 0.531250 0.993750
vt 0.468750 1.000000
vt 0.468750 0.993750
vt 0.406250 1.000000
vt 0.406250 0.993750
vt 0.343750 1.000000
vt 0.343750 0.993750
vt 0.281250 1.000000
vt 0.281250 0.993750
vt 0.218750 1.000000
vt 0.218750 0.993750
vt 0.156250 1.000000
vt 0.156250 0.993750
vt 0.093750 1.000000
vt 0.093750 0.993750
vt 0.031250 1.000000
vt 0.031250 0.993750
vt 0.796822 0.485388
vt 0.883337 0.449553
vt 0.949553 0.383337
vt 0.985388 0.296822
vt 0.985388 0.203178
vt 0.949553 0.116663
vt 0.883337 0.050447
vt 0.796822 0.014612
vt 0.703178 0.014612
vt 0.616663 0.050447
vt 0.550447 0.116663
vt 0.514612 0.203178
vt 0.514612 0.296822
vt 0.550447 0.383337
vt 0.616663 0.449553
vt 0.703178 0.485388
vt 0.968750 0.750000
vt 0.968750 0.875000
vt 0.906250 0.875000
vt 0.906250 0.750000
vt 0.968750 0.637500
vt 0.906250 0.637500
vt 0.093750 0.637500
vt 0.093750 0.750000
vt 0.031250 0.750000
vt 0.031250 0.637500
vt 0.156250 0.637500
vt 0.156250 0.750000
vt 0.218750 0.637500
vt 0.218750 0.750000
vt 0.281250 0.637500
vt 0.281250 0.750000
vt 0.343750 0.637500
vt 0.343750 0.750000
vt 0.406250 0.637500
vt 0.406250 0.750000
vt 0.468750 0.637500
vt 0.468750 0.750000
vt 0.531250 0.637500
vt 0.531250 0.750000
vt 0.593750 0.637500
vt 0.593750 0.750000
vt 0.656250 0.637500
vt 0.656250 0.750000
vt 0.718750 0.637500
vt 0.718750 0.750000
vt 0.781250 0.637500
vt 0.781250 0.750000
vt 0.843750 0.637500
vt 0.843750 0.750000
vt 0.968750 0.993750
vt 0.031250 0.875000
vt 0.093750 0.875000
vt 0.156250 0.875000
vt 0.218750 0.875000
vt 0.281250 0.875000
vt 0.343750 0.875000
vt 0.406250 0.875000
vt 0.468750 0.875000
vt 0.531250 0.875000
vt 0.593750 0.875000
vt 0.656250 0.875000
vt 0.718750 0.875000
vt 0.781250 0.875000
vt 0.843750 0.875000
vt 0.093750 0.500000
vt 0.093750 0.593750
vt 0.031250 0.593750
vt 0.031250 0.500000
vt 0.156250 0.500000
vt 0.156250 0.593750
vt 0.218750 0.500000
vt 0.218750 0.593750
vt 0.281250 0.500000
vt 0.281250 0.593750
vt 0.343750 0.500000
vt 0.343750 0.593750
vt 0.406250 0.500000
vt 0.406250 0.593750
vt 0.468750 0.500000
vt 0.468750 0.593750
vt 0.531250 0.500000
vt 0.531250 0.593750
vt 0.593750 0.500000
vt 0.593750 0.593750
vt 0.656250 0.500000
vt 0.656250 0.593750
vt 0.718750 0.500000
vt 0.718750 0.593750
vt 0.781250 0.500000
vt 0.781250 0.593750
vt 0.843750 0.500000
vt 0.843750 0.593750
vt 0.968750 1.000000
vt 0.022692 0.204786
vt 0.057297 0.121240
vt 0.204786 0.477308
vt 0.295214 0.477308
vt 0.296822 0.485388
vt 0.203178 0.485388
vt 0.378760 0.442703
vt 0.383337 0.449553
vt 0.442703 0.378760
vt 0.449553 0.383337
vt 0.477308 0.295214
vt 0.485388 0.296822
vt 0.477308 0.204786
vt 0.485388 0.203178
vt 0.442703 0.121240
vt 0.449553 0.116663
vt 0.378760 0.057297
vt 0.383337 0.050447
vt 0.295214 0.022692
vt 0.296822 0.014612
vt 0.204786 0.022692
vt 0.203178 0.014612
vt 0.121240 0.057297
vt 0.116663 0.050447
vt 0.050447 0.116663
vt 0.014612 0.203178
vt 0.022692 0.295214
vt 0.014612 0.296822
vt 0.057297 0.378760
vt 0.050447 0.383337
vt 0.121240 0.442703
vt 0.116663 0.449553
s 0
f 1/1/1 65/2/1 66/3/1 3/4/1
f 4/5/2 6/6/2 131/7/2 130/8/2
f 6/6/3 8/9/3 132/10/3 131/7/3
f 8/9/4 10/11/4 133/12/4 132/10/4
f 10/11/5 12/13/5 134/14/5 133/12/5
f 12/13/6 14/15/6 135/16/6 134/14/6
f 14/15/7 16/17/7 136/18/7 135/16/7
f 16/17/8 18/19/8 137/20/8 136/18/8
f 18/19/9 20/21/9 138/22/9 137/20/9
f 20/21/10 22/23/10 139/24/10 138/22/10
f 22/23/11 24/25/11 140/26/11 139/24/11
f 24/25/12 26/27/12 141/28/12 140/26/12
f 26/27/13 28/29/13 142/30/13 141/28/13
f 28/29/14 30/31/14 143/32/14 142/30/14
f 30/31/15 32/33/15 144/34/15 143/32/15
f 18/19/16 169/19/16 170/21/16 20/21/16
f 30/31/17 28/29/17 174/29/17 175/31/17
f 1/35/18 3/36/18 5/37/18 7/38/18 9/39/18 11/40/18 13/41/18 15/42/18 17/43/18 19/44/18 21/45/18 23/46/18 25/47/18 27/48/18 29/49/18 31/50/18
f 33/51/19 49/52/19 50/53/19 34/54/19
f 97/55/20 99/56/20 100/3/20 98/2/20
f 95/57/21 47/58/21 48/59/21 96/60/21
f 94/61/22 46/62/22 47/58/22 95/57/22
f 93/63/23 45/64/23 46/62/23 94/61/23
f 92/65/24 44/66/24 45/64/24 93/63/24
f 91/67/25 43/68/25 44/66/25 92/65/25
f 90/69/26 42/70/26 43/68/26 91/67/26
f 89/71/27 41/72/27 42/70/27 90/69/27
f 88/73/28 40/74/28 41/72/28 89/71/28
f 87/75/29 39/76/29 40/74/29 88/73/29
f 86/77/30 38/78/30 39/76/30 87/75/30
f 85/79/31 37/80/31 38/78/31 86/77/31
f 84/81/32 36/82/32 37/80/32 85/79/32
f 83/83/33 35/84/33 36/82/33 84/81/33
f 82/56/34 34/54/34 35/84/34 83/83/34
f 49/52/35 129/85/35 130/8/35 50/53/35
f 64/86/36 49/52/36 33/51/36 48/59/36
f 47/58/37 63/87/37 64/86/37 48/59/37
f 46/62/38 62/88/38 63/87/38 47/58/38
f 45/64/39 61/89/39 62/88/39 46/62/39
f 44/66/40 60/90/40 61/89/40 45/64/40
f 43/68/41 59/91/41 60/90/41 44/66/41
f 42/70/42 58/92/42 59/91/42 43/68/42
f 41/72/43 57/93/43 58/92/43 42/70/43
f 40/74/44 56/94/44 57/93/44 41/72/44
f 39/76/45 55/95/45 56/94/45 40/74/45
f 38/78/46 54/96/46 55/95/46 39/76/46
f 37/80/47 53/97/47 54/96/47 38/78/47
f 36/82/48 52/98/48 53/97/48 37/80/48
f 35/84/49 51/99/49 52/98/49 36/82/49
f 34/54/50 50/53/50 51/99/50 35/84/50
f 81/55/51 33/51/51 34/54/51 82/56/51
f 48/59/52 33/51/52 81/55/52 96/60/52
f 29/100/53 79/101/53 80/102/53 31/103/53
f 27/104/54 78/105/54 79/101/54 29/100/54
f 25/106/55 77/107/55 78/105/55 27/104/55
f 23/108/56 76/109/56 77/107/56 25/106/56
f 21/110/57 75/111/57 76/109/57 23/108/57
f 19/112/58 74/113/58 75/111/58 21/110/58
f 17/114/59 73/115/59 74/113/59 19/112/59
f 15/116/60 72/117/60 73/115/60 17/114/60
f 13/118/61 71/119/61 72/117/61 15/116/61
f 11/120/62 70/121/62 71/119/62 13/118/62
f 9/122/63 69/123/63 70/121/63 11/120/63
f 7/124/64 68/125/64 69/123/64 9/122/64
f 5/126/65 67/127/65 68/125/65 7/124/65
f 3/4/66 66/3/66 67/127/66 5/126/66
f 77/107/67 76/109/67 120/109/67 122/107/67
f 90/69/68 91/67/68 117/67/68 115/69/68
f 79/101/69 78/105/69 124/105/69 126/101/69
f 68/125/70 67/127/70 102/127/70 104/125/70
f 66/3/71 65/2/71 98/2/71 100/3/71
f 89/71/72 90/69/72 115/69/72 113/71/72
f 80/102/73 79/101/73 126/101/73 128/102/73
f 67/127/74 66/3/74 100/3/74 102/127/74
f 88/73/75 89/71/75 113/71/75 111/73/75
f 80/102/76 128/102/76 98/2/76 65/2/76
f 87/75/77 88/73/77 111/73/77 109/75/77
f 69/123/78 68/125/78 104/125/78 106/123/78
f 86/77/79 87/75/79 109/75/79 107/77/79
f 70/121/80 69/123/80 106/123/80 108/121/80
f 85/79/81 86/77/81 107/77/81 105/79/81
f 71/119/82 70/121/82 108/121/82 110/119/82
f 80/102/83 65/2/83 1/1/83 31/103/83
f 99/56/84 101/83/84 102/127/84 100/3/84
f 101/83/85 103/81/85 104/125/85 102/127/85
f 103/81/86 105/79/86 106/123/86 104/125/86
f 105/79/87 107/77/87 108/121/87 106/123/87
f 107/77/88 109/75/88 110/119/88 108/121/88
f 109/75/89 111/73/89 112/117/89 110/119/89
f 111/73/90 113/71/90 114/115/90 112/117/90
f 113/71/91 115/69/91 116/113/91 114/115/91
f 115/69/92 117/67/92 118/111/92 116/113/92
f 117/67/93 119/65/93 120/109/93 118/111/93
f 119/65/94 121/63/94 122/107/94 120/109/94
f 121/63/95 123/61/95 124/105/95 122/107/95
f 123/61/96 125/57/96 126/101/96 124/105/96
f 125/57/97 127/60/97 128/102/97 126/101/97
f 97/55/98 98/2/98 128/102/98 127/60/98
f 91/67/99 92/65/99 119/65/99 117/67/99
f 92/65/100 93/63/100 121/63/100 119/65/100
f 76/109/101 75/111/101 118/111/101 120/109/101
f 93/63/102 94/61/102 123/61/102 121/63/102
f 75/111/103 74/113/103 116/113/103 118/111/103
f 96/60/104 81/55/104 97/55/104 127/60/104
f 94/61/105 95/57/105 125/57/105 123/61/105
f 81/55/106 82/56/106 99/56/106 97/55/106
f 74/113/107 73/115/107 114/115/107 116/113/107
f 95/57/108 96/60/108 127/60/108 125/57/108
f 82/56/109 83/83/109 101/83/109 99/56/109
f 73/115/110 72/117/110 112/117/110 114/115/110
f 83/83/111 84/81/111 103/81/111 101/83/111
f 72/117/112 71/119/112 110/119/112 112/117/112
f 84/81/113 85/79/113 105/79/113 103/81/113
f 144/34/114 129/85/114 49/52/114 64/86/114
f 2/128/115 4/5/115 130/8/115 129/85/115
f 78/105/116 77/107/116 122/107/116 124/105/116
f 63/87/117 143/32/117 144/34/117 64/86/117
f 62/88/118 142/30/118 143/32/118 63/87/118
f 61/89/119 141/28/119 142/30/119 62/88/119
f 60/90/120 140/26/120 141/28/120 61/89/120
f 59/91/121 139/24/121 140/26/121 60/90/121
f 58/92/122 138/22/122 139/24/122 59/91/122
f 57/93/123 137/20/123 138/22/123 58/92/123
f 56/94/124 136/18/124 137/20/124 57/93/124
f 55/95/125 135/16/125 136/18/125 56/94/125
f 54/96/126 134/14/126 135/16/126 55/95/126
f 53/97/127 133/12/127 134/14/127 54/96/127
f 52/98/128 132/10/128 133/12/128 53/97/128
f 51/99/129 131/7/129 132/10/129 52/98/129
f 50/53/130 130/8/130 131/7/130 51/99/130
f 156/129/131 155/130/131 187/130/131 188/129/131
f 8/9/132 6/6/132 163/6/132 164/9/132
f 14/15/133 167/15/133 168/17/133 16/17/133
f 26/27/134 24/25/134 172/25/134 173/27/134
f 4/5/135 2/128/135 161/128/135 162/5/135
f 10/11/136 165/11/136 166/13/136 12/13/136
f 22/23/137 20/21/137 170/21/137 171/23/137
f 18/19/138 16/17/138 168/17/138 169/19/138
f 14/15/139 12/13/139 166/13/139 167/15/139
f 32/33/140 30/31/140 175/31/140 176/33/140
f 10/11/141 8/9/141 164/9/141 165/11/141
f 28/29/142 26/27/142 173/27/142 174/29/142
f 6/6/143 4/5/143 162/5/143 163/6/143
f 24/25/144 22/23/144 171/23/144 172/25/144
f 2/128/145 32/33/145 176/33/145 161/128/145
f 160/131/146 145/132/146 161/133/146 176/134/146
f 145/132/146 146/135/146 162/136/146 161/133/146
f 146/135/146 147/137/146 163/138/146 162/136/146
f 147/137/146 148/139/146 164/140/146 163/138/146
f 148/139/146 149/141/146 165/142/146 164/140/146
f 149/141/146 150/143/146 166/144/146 165/142/146
f 150/143/146 151/145/146 167/146/146 166/144/146
f 151/145/146 152/147/146 168/148/146 167/146/146
f 152/147/146 153/149/146 169/150/146 168/148/146
f 153/149/146 154/151/146 170/152/146 169/150/146
f 154/151/146 155/130/146 171/153/146 170/152/146
f 155/130/146 156/129/146 172/154/146 171/153/146
f 156/129/146 157/155/146 173/156/146 172/154/146
f 157/155/146 158/157/146 174/158/146 173/156/146
f 158/157/146 159/159/146 175/160/146 174/158/146
f 159/159/146 160/131/146 176/134/146 175/160/146
f 149/141/147 148/139/147 180/139/147 181/141/147
f 187/130/148 186/151/148 202/151/148 203/130/148
f 150/143/149 149/141/149 181/141/149 182/143/149
f 157/155/150 156/129/150 188/129/150 189/155/150
f 151/145/151 150/143/151 182/143/151 183/145/151
f 158/157/152 157/155/152 189/155/152 190/157/152
f 152/147/153 151/145/153 183/145/153 184/147/153
f 145/132/154 160/131/154 192/131/154 177/132/154
f 159/159/155 158/157/155 190/157/155 191/159/155
f 146/135/156 145/132/156 177/132/156 178/135/156
f 153/149/157 152/147/157 184/147/157 185/149/157
f 160/131/158 159/159/158 191/159/158 192/131/158
f 147/137/159 146/135/159 178/135/159 179/137/159
f 154/151/160 153/149/160 185/149/160 186/151/160
f 148/139/161 147/137/161 179/137/161 180/139/161
f 155/130/162 154/151/162 186/151/162 187/130/162
f 180/139/163 179/137/163 195/137/163 196/139/163
f 193/132/146 208/131/146 207/159/146 206/157/146 205/155/146 204/129/146 203/130/146 202/151/146 201/149/146 200/147/146 199/145/146 198/143/146 197/141/146 196/139/146 195/137/146 194/135/146
f 181/141/164 180/139/164 196/139/164 197/141/164
f 188/129/165 187/130/165 203/130/165 204/129/165
f 182/143/166 181/141/166 197/141/166 198/143/166
f 189/155/167 188/129/167 204/129/167 205/155/167
f 183/145/168 182/143/168 198/143/168 199/145/168
f 190/157/169 189/155/169 205/155/169 206/157/169
f 184/147/170 183/145/170 199/145/170 200/147/170
f 177/132/171 192/131/171 208/131/171 193/132/171
f 191/159/172 190/157/172 206/157/172 207/159/172
f 178/135/173 177/132/173 193/132/173 194/135/173
f 185/149/174 184/147/174 200/147/174 201/149/174
f 192/131/175 191/159/175 207/159/175 208/131/175
f 179/137/176 178/135/176 194/135/176 195/137/176
f 186/151/177 185/149/177 201/149/177 202/151/177
f 144/34/178 32/33/178 2/128/178 129/85/178
