# Blender 5.1.1
# www.blender.org
mtllib VentFace.mtl
o VentFace1.001
v -0.389026 0.060373 -0.010418
v 0.389026 0.060373 -0.010418
v 0.389026 0.789625 -0.010418
v -0.389026 0.789625 -0.010418
v 0.389026 0.133298 -0.010418
v 0.389026 0.206224 -0.010418
v 0.389026 0.279149 -0.010418
v 0.389026 0.352074 -0.010418
v 0.389026 0.424999 -0.010418
v 0.389026 0.497924 -0.010418
v 0.389026 0.570850 -0.010418
v 0.389026 0.643775 -0.010418
v 0.389026 0.716700 -0.010418
v -0.389026 0.716700 -0.010418
v -0.389026 0.643775 -0.010418
v -0.389026 0.570849 -0.010418
v -0.389026 0.497924 -0.010418
v -0.389026 0.424999 -0.010418
v -0.389026 0.352074 -0.010418
v -0.389026 0.279149 -0.010418
v -0.389026 0.206224 -0.010418
v -0.389026 0.133298 -0.010418
v 0.389026 0.728040 0.011461
v -0.389026 0.728040 0.011461
v 0.389026 0.655115 0.011461
v -0.389026 0.655114 0.011461
v 0.389026 0.580052 0.011461
v -0.389026 0.580052 0.011461
v 0.389026 0.509264 0.011461
v -0.389026 0.509264 0.011461
v 0.389026 0.436339 0.011461
v -0.389026 0.436339 0.011461
v 0.389026 0.363288 0.011461
v -0.389026 0.363288 0.011461
v 0.389026 0.290489 0.011461
v -0.389026 0.290488 0.011461
v 0.389026 0.217563 0.011461
v -0.389026 0.217563 0.011461
v 0.389026 0.144638 0.011461
v -0.389026 0.144638 0.011461
v -0.389026 0.071713 0.011461
v 0.389026 0.071713 0.011461
vn -0.0000 -0.3348 -0.9423
vn -0.0000 -0.3341 -0.9425
vn -0.0000 -0.3247 -0.9458
vn -0.0000 0.8878 -0.4602
vn -0.0000 0.9218 -0.3877
vn -0.0000 0.8899 -0.4561
vt 0.604667 0.008193
vt 0.604667 0.241807
vt 0.616297 0.241807
vt 0.616297 0.008193
vt 0.395333 0.008193
vt 0.395333 0.241807
vt 0.406963 0.241807
vt 0.406963 0.008193
vt 0.418592 0.008193
vt 0.418592 0.241807
vt 0.430222 0.241807
vt 0.430222 0.008193
vt 0.441852 0.008193
vt 0.441852 0.241807
vt 0.453481 0.241807
vt 0.453481 0.008193
vt 0.465111 0.008193
vt 0.465111 0.241807
vt 0.476741 0.241807
vt 0.476741 0.008193
vt 0.488330 0.008193
vt 0.488330 0.241807
vt 0.500000 0.241807
vt 0.500000 0.008193
vt 0.511630 0.008193
vt 0.511630 0.241807
vt 0.523259 0.241807
vt 0.523259 0.008193
vt 0.534889 0.008193
vt 0.534889 0.241807
vt 0.546519 0.241807
vt 0.546519 0.008193
vt 0.557466 0.008193
vt 0.557467 0.241807
vt 0.569778 0.241807
vt 0.569778 0.008193
vt 0.581408 0.008193
vt 0.581408 0.241807
vt 0.593037 0.241807
vt 0.593037 0.008193
vt 0.383704 0.008193
vt 0.383703 0.241807
s 0
f 23/1/1 24/2/1 4/3/1 3/4/1
f 42/5/1 41/6/1 22/7/1 5/8/1
f 39/9/1 40/10/1 21/11/1 6/12/1
f 37/13/1 38/14/1 20/15/1 7/16/1
f 35/17/1 36/18/1 19/19/1 8/20/1
f 33/21/2 34/22/2 18/23/2 9/24/2
f 31/25/1 32/26/1 17/27/1 10/28/1
f 29/29/1 30/30/1 16/31/1 11/32/1
f 27/33/3 28/34/3 15/35/3 12/36/3
f 25/37/1 26/38/1 14/39/1 13/40/1
f 13/40/4 14/39/4 24/2/4 23/1/4
f 12/36/4 15/35/4 26/38/4 25/37/4
f 11/32/5 16/31/5 28/34/5 27/33/5
f 10/28/4 17/27/4 30/30/4 29/29/4
f 9/24/4 18/23/4 32/26/4 31/25/4
f 8/20/6 19/19/6 34/22/6 33/21/6
f 7/16/4 20/15/4 36/18/4 35/17/4
f 6/12/4 21/11/4 38/14/4 37/13/4
f 5/8/4 22/7/4 40/10/4 39/9/4
f 2/41/4 1/42/4 41/6/4 42/5/4
o VentFace1
v 0.386408 0.061281 -0.014434
v 0.386408 0.787718 -0.014434
v -0.386408 0.061281 -0.014434
v -0.386408 0.787718 -0.014434
v 0.386408 0.061281 0.033770
v 0.386408 0.787718 0.033770
v -0.386408 0.787718 0.033770
v -0.386408 0.061281 0.033770
v 0.445862 0.001827 -0.014434
v 0.445862 0.847172 -0.014434
v -0.445862 0.847172 -0.014434
v -0.445862 0.001827 -0.014434
v 0.445862 0.001827 0.033770
v 0.445862 0.847172 0.033770
v -0.445862 0.847172 0.033770
v -0.445862 0.001827 0.033770
v 0.386408 0.061281 0.033770
v 0.386408 0.787718 0.033770
v -0.386408 0.787718 0.033770
v -0.386408 0.061281 0.033770
vn 1.0000 -0.0000 -0.0000
vn -0.0000 -1.0000 -0.0000
vn -0.0000 1.0000 -0.0000
vn -1.0000 -0.0000 -0.0000
vn -0.0000 -0.0000 1.0000
vn -0.0000 -0.0000 -1.0000
vt 0.392583 0.766668
vt 0.607417 0.766668
vt 0.607417 0.983332
vt 0.392583 0.983332
vt 0.625000 0.750000
vt 0.375000 0.750000
vt 0.875000 0.750000
vt 0.375000 1.000000
vt 0.625000 1.000000
vt 0.375000 0.000000
vt 0.625000 0.000000
vt 0.125000 0.750000
s 0
f 45/43/7 46/44/7 49/44/7 50/43/7
f 46/44/8 44/45/8 48/45/8 49/44/8
f 43/46/9 45/43/9 50/43/9 47/46/9
f 44/45/10 43/46/10 47/46/10 48/45/10
f 53/47/10 54/48/10 58/48/10 57/47/10
f 52/49/9 53/47/9 57/47/9 56/49/9
f 60/45/11 59/46/11 55/50/11 56/51/11
f 62/43/11 61/44/11 57/47/11 58/48/11
f 59/46/11 62/43/11 58/48/11 55/50/11
f 61/44/11 60/45/11 56/51/11 57/47/11
f 51/52/7 52/53/7 56/53/7 55/52/7
f 54/48/8 51/54/8 55/54/8 58/48/8
f 44/45/12 52/53/12 51/52/12 43/46/12
f 44/45/12 46/44/12 53/47/12 52/53/12
f 45/43/12 54/48/12 53/47/12 46/44/12
f 45/43/12 43/46/12 51/54/12 54/48/12
