# Blender 5.1.0
# www.blender.org
mtllib VentMesh.mtl
o VentilationMesh.001
v 0.756297 -0.756297 0.039001
v -0.756297 -0.756297 0.039001
v 0.756297 0.756297 0.039001
v -0.756297 0.756297 0.039001
v 1.069565 0.000000 0.039001
v -1.069565 -0.000000 0.039001
v 0.000000 -1.069565 0.039001
v -0.000000 1.069565 0.039001
v 0.000000 0.000000 0.039001
v 0.409305 0.988149 0.039001
v 0.460000 0.000000 0.039001
v 0.409305 -0.988149 0.039001
v -0.409305 -0.988149 0.039001
v -0.409305 0.988149 0.039001
v -0.460000 0.000000 0.039001
v -0.988149 0.409305 0.039001
v 0.988149 0.409305 0.039001
v 0.000000 0.460000 0.039001
v 0.460000 0.460000 0.039001
v -0.460000 0.460000 0.039001
v 0.988149 -0.409305 0.039001
v -0.988149 -0.409305 0.039001
v 0.000000 -0.460000 0.039001
v 0.460000 -0.460000 0.039001
v -0.460000 -0.460000 0.039001
v 0.988149 -0.409305 -0.039001
v 0.756297 -0.756297 -0.039001
v -0.409305 -0.988149 -0.039001
v -0.756297 -0.756297 -0.039001
v -0.988149 0.409305 -0.039001
v -0.756297 0.756297 -0.039001
v 0.409305 0.988149 -0.039001
v 0.756297 0.756297 -0.039001
v 0.988149 0.409305 -0.039001
v 1.069565 0.000000 -0.039001
v -0.988149 -0.409305 -0.039001
v -1.069565 -0.000000 -0.039001
v 0.460000 0.000000 -0.039001
v 0.409305 -0.988149 -0.039001
v 0.000000 -1.069565 -0.039001
v -0.409305 0.988149 -0.039001
v -0.000000 1.069565 -0.039001
v -0.460000 0.000000 -0.039001
v 0.000000 0.000000 -0.039001
v 0.000000 -0.460000 -0.039001
v 0.000000 0.460000 -0.039001
v 0.460000 0.460000 -0.039001
v 0.460000 -0.460000 -0.039001
v -0.460000 -0.460000 -0.039001
v -0.460000 0.460000 -0.039001
vn -0.0000 -0.0000 1.0000
vn -0.0000 -0.0000 -1.0000
vn -0.8315 0.5556 -0.0000
vn -0.1951 -0.9808 -0.0000
vn -0.8315 -0.5556 -0.0000
vn 0.5556 0.8315 -0.0000
vn -0.5556 0.8315 -0.0000
vn 0.9808 0.1951 -0.0000
vn 0.1951 0.9808 -0.0000
vn -0.9808 -0.1951 -0.0000
vn 0.5556 -0.8315 -0.0000
vn 0.1951 -0.9808 -0.0000
vn -0.9808 0.1951 -0.0000
vn 0.8315 -0.5556 -0.0000
vn -0.1951 0.9808 -0.0000
vn 0.8315 0.5556 -0.0000
vn -0.5556 -0.8315 -0.0000
vn 0.9808 -0.1951 -0.0000
vt 0.750000 0.750000
vt 0.750000 1.000000
vt 1.000000 1.000000
vt 1.000000 0.750000
vt 0.750000 0.250000
vt 0.750000 0.500000
vt 1.000000 0.500000
vt 1.000000 0.250000
vt 0.250000 0.250000
vt 0.250000 0.500000
vt 0.500000 0.500000
vt 0.500000 0.250000
vt 0.250000 0.750000
vt 0.250000 1.000000
vt 0.500000 1.000000
vt 0.500000 0.750000
vt 0.000000 0.750000
vt 0.000000 1.000000
vt 0.000000 0.250000
vt 0.000000 0.500000
vt 0.500000 0.000000
vt 0.750000 0.000000
vt 0.000000 0.000000
vt 0.250000 0.000000
vt 1.000000 0.000000
s 0
f 20/1/1 14/2/1 4/3/1 16/4/1
f 25/5/1 15/6/1 6/7/1 22/8/1
f 24/9/1 11/10/1 9/11/1 23/12/1
f 19/13/1 10/14/1 8/15/1 18/16/1
f 17/17/1 3/18/1 10/14/1 19/13/1
f 21/19/1 5/20/1 11/10/1 24/9/1
f 23/12/1 9/11/1 15/6/1 25/5/1
f 18/16/1 8/15/1 14/2/1 20/1/1
f 9/11/1 18/16/1 20/1/1 15/6/1
f 5/20/1 17/17/1 19/13/1 11/10/1
f 11/10/1 19/13/1 18/16/1 9/11/1
f 15/6/1 20/1/1 16/4/1 6/7/1
f 7/21/1 23/12/1 25/5/1 13/22/1
f 1/23/1 21/19/1 24/9/1 12/24/1
f 12/24/1 24/9/1 23/12/1 7/21/1
f 13/22/1 25/5/1 22/8/1 2/25/1
f 50/1/2 30/4/2 31/3/2 41/2/2
f 49/5/2 36/8/2 37/7/2 43/6/2
f 48/9/2 45/12/2 44/11/2 38/10/2
f 47/13/2 46/16/2 42/15/2 32/14/2
f 34/17/2 47/13/2 32/14/2 33/18/2
f 26/19/2 48/9/2 38/10/2 35/20/2
f 45/12/2 49/5/2 43/6/2 44/11/2
f 46/16/2 50/1/2 41/2/2 42/15/2
f 44/11/2 43/6/2 50/1/2 46/16/2
f 35/20/2 38/10/2 47/13/2 34/17/2
f 38/10/2 44/11/2 46/16/2 47/13/2
f 43/6/2 37/7/2 30/4/2 50/1/2
f 40/21/2 28/22/2 49/5/2 45/12/2
f 27/23/2 39/24/2 48/9/2 26/19/2
f 39/24/2 40/21/2 45/12/2 48/9/2
f 28/22/2 29/25/2 36/8/2 49/5/2
f 16/4/3 4/3/3 31/3/3 30/4/3
f 7/21/4 13/22/4 28/22/4 40/21/4
f 2/25/5 22/8/5 36/8/5 29/25/5
f 10/14/6 3/18/6 33/18/6 32/14/6
f 4/3/7 14/2/7 41/2/7 31/3/7
f 17/17/8 5/20/8 35/20/8 34/17/8
f 8/15/9 10/14/9 32/14/9 42/15/9
f 22/8/10 6/7/10 37/7/10 36/8/10
f 1/23/11 12/24/11 39/24/11 27/23/11
f 12/24/12 7/21/12 40/21/12 39/24/12
f 6/7/13 16/4/13 30/4/13 37/7/13
f 21/19/14 1/23/14 27/23/14 26/19/14
f 14/2/15 8/15/15 42/15/15 41/2/15
f 3/18/16 17/17/16 34/17/16 33/18/16
f 13/22/17 2/25/17 29/25/17 28/22/17
f 5/20/18 21/19/18 26/19/18 35/20/18
