# Blender 5.1.0
# www.blender.org
mtllib MarioPipe.mtl
o VentDrop
v 0.403546 -0.401376 -0.403546
v -0.403546 -0.401376 -0.403546
v 0.403546 -0.401376 0.403546
v -0.403546 -0.401376 0.403546
v 0.570701 -0.401376 0.000000
v -0.570701 -0.401376 -0.000000
v 0.000000 -0.401376 -0.570701
v -0.000000 -0.401376 0.570701
v 0.454947 -0.401376 -0.454947
v 0.570701 0.424372 0.000000
v 0.403546 0.424372 -0.403546
v 0.000000 0.424372 -0.570701
v -0.403546 0.424372 -0.403546
v -0.570701 0.424372 -0.000000
v -0.403546 0.424372 0.403546
v -0.000000 0.424372 0.570701
v 0.403546 0.424372 0.403546
v -0.454947 -0.401376 -0.454947
v 0.454947 -0.401376 0.454947
v -0.454947 -0.401376 0.454947
v 0.643392 -0.401376 0.000000
v -0.643392 -0.401376 -0.000000
v 0.000000 -0.401376 -0.643392
v -0.000000 -0.401376 0.643392
v 0.454947 0.424372 -0.454947
v -0.454947 0.424372 -0.454947
v 0.454947 0.424372 0.454947
v -0.454947 0.424372 0.454947
v 0.643392 0.424372 0.000000
v -0.643392 0.424372 -0.000000
v 0.000000 0.424372 -0.643392
v -0.000000 0.424372 0.643392
vn -0.0000 -1.0000 -0.0000
vn -0.9239 -0.0000 0.3827
vn -0.3827 -0.0000 0.9239
vn 0.9239 -0.0000 0.3827
vn -0.3827 -0.0000 -0.9239
vn 0.3827 -0.0000 0.9239
vn 0.3827 -0.0000 -0.9239
vn -0.9239 -0.0000 -0.3827
vn 0.9239 -0.0000 -0.3827
vn -0.0000 1.0000 -0.0000
vt 1.000000 0.500000
vt 1.000000 0.000000
vt 0.500000 0.000000
vt 0.000000 0.000000
vt 0.000000 0.500000
vt 1.000000 1.000000
vt 0.500000 1.000000
vt 0.000000 1.000000
s 0
f 6/1/1 22/1/1 18/2/1 2/2/1
f 7/3/1 23/3/1 9/4/1 1/4/1
f 1/4/1 9/4/1 21/5/1 5/5/1
f 4/6/1 20/6/1 22/1/1 6/1/1
f 5/5/2 10/5/2 11/4/2 1/4/2
f 1/4/3 11/4/3 12/3/3 7/3/3
f 2/2/4 13/2/4 14/1/4 6/1/4
f 8/7/5 16/7/5 17/8/5 3/8/5
f 7/3/6 12/3/6 13/2/6 2/2/6
f 4/6/7 15/6/7 16/7/7 8/7/7
f 3/8/8 17/8/8 10/5/8 5/5/8
f 6/1/9 14/1/9 15/6/9 4/6/9
f 3/8/1 19/8/1 24/7/1 8/7/1
f 2/2/1 18/2/1 23/3/1 7/3/1
f 8/7/1 24/7/1 20/6/1 4/6/1
f 5/5/1 21/5/1 19/8/1 3/8/1
f 24/7/3 32/7/3 28/6/3 20/6/3
f 22/1/8 30/1/8 26/2/8 18/2/8
f 9/4/9 25/4/9 29/5/9 21/5/9
f 20/6/2 28/6/2 30/1/2 22/1/2
f 23/3/7 31/3/7 25/4/7 9/4/7
f 21/5/4 29/5/4 27/8/4 19/8/4
f 18/2/5 26/2/5 31/3/5 23/3/5
f 19/8/6 27/8/6 32/7/6 24/7/6
f 15/6/10 14/1/10 30/1/10 28/6/10
f 16/7/10 15/6/10 28/6/10 32/7/10
f 17/8/10 16/7/10 32/7/10 27/8/10
f 10/5/10 17/8/10 27/8/10 29/5/10
f 11/4/10 10/5/10 29/5/10 25/4/10
f 12/3/10 11/4/10 25/4/10 31/3/10
f 13/2/10 12/3/10 31/3/10 26/2/10
f 14/1/10 13/2/10 26/2/10 30/1/10
