# Blender 5.1.2
# www.blender.org
mtllib WoodenCrate4.mtl
o WoodenCrate4
v 0.584721 0.072988 -0.229000
v 0.584721 0.530988 -0.229000
v 0.584721 0.530988 0.229000
v 0.584721 0.072988 0.229000
v 0.513721 0.072988 0.300000
v 0.513721 0.530988 0.300000
v -0.513721 0.530988 0.300000
v -0.513721 0.072988 0.300000
v -0.584721 0.072988 0.229000
v -0.584721 0.530988 0.229000
v -0.584721 0.530988 -0.229000
v -0.584721 0.072988 -0.229000
v -0.513721 0.072988 -0.300000
v -0.513721 0.530988 -0.300000
v 0.513721 0.530988 -0.300000
v 0.513721 0.072988 -0.300000
v 0.513721 0.001988 0.229000
v -0.513721 0.001988 0.229000
v -0.513721 0.001988 -0.229000
v 0.513721 0.001988 -0.229000
v -0.513721 0.601988 0.229000
v 0.513721 0.601988 0.229000
v 0.513721 0.601988 -0.229000
v -0.513721 0.601988 -0.229000
v 0.558849 0.072988 -0.229000
v 0.558849 0.530988 -0.229000
v 0.558849 0.072988 0.229000
v 0.558849 0.530988 0.229000
v 0.513721 0.530988 0.274128
v 0.513721 0.072988 0.274128
v -0.513721 0.072988 0.274128
v -0.513721 0.530988 0.274128
v -0.558849 0.530988 0.229000
v -0.558849 0.072988 0.229000
v -0.558849 0.072988 -0.229000
v -0.558849 0.530988 -0.229000
v -0.513721 0.530988 -0.274128
v -0.513721 0.072988 -0.274128
v 0.513721 0.072988 -0.274128
v 0.513721 0.530988 -0.274128
v -0.513721 0.027860 0.229000
v 0.513721 0.027860 0.229000
v 0.513721 0.027860 -0.229000
v -0.513721 0.027860 -0.229000
v 0.513721 0.576116 0.229000
v -0.513721 0.576116 0.229000
v -0.513721 0.576116 -0.229000
v 0.513721 0.576116 -0.229000
v 0.564721 0.001988 -0.280000
v 0.564721 0.021988 -0.300000
v 0.584721 0.021988 -0.280000
v 0.564721 0.581988 -0.300000
v 0.564721 0.601988 -0.280000
v 0.584721 0.581988 -0.280000
v 0.584721 0.021988 0.280000
v 0.564721 0.021988 0.300000
v 0.564721 0.001988 0.280000
v 0.564721 0.601988 0.280000
v 0.564721 0.581988 0.300000
v 0.584721 0.581988 0.280000
v -0.584721 0.021988 -0.280000
v -0.564721 0.021988 -0.300000
v -0.564721 0.001988 -0.280000
v -0.564721 0.601988 -0.280000
v -0.564721 0.581988 -0.300000
v -0.584721 0.581988 -0.280000
v -0.564721 0.021988 0.300000
v -0.584721 0.021988 0.280000
v -0.564721 0.001988 0.280000
v -0.564721 0.601988 0.280000
v -0.584721 0.581988 0.280000
v -0.564721 0.581988 0.300000
vn 1.0000 -0.0000 -0.0000
vn -0.0000 1.0000 -0.0000
vn -0.0000 -0.0000 -1.0000
vn -1.0000 -0.0000 -0.0000
vn -0.0000 -0.0000 1.0000
vn -0.0000 -1.0000 -0.0000
vn 0.5774 -0.5774 -0.5773
vn 0.5773 0.5774 -0.5773
vn 0.5774 -0.5774 0.5773
vn 0.5773 0.5774 0.5773
vn -0.5774 -0.5774 -0.5773
vn -0.5773 0.5774 -0.5773
vn -0.5774 -0.5774 0.5773
vn -0.5773 0.5774 0.5773
vn 0.7071 -0.7071 -0.0000
vn 0.7071 -0.0000 -0.7071
vn 0.7071 0.7071 -0.0000
vn 0.7071 -0.0000 0.7071
vn -0.0000 -0.7071 0.7071
vn -0.0000 0.7071 0.7071
vn -0.7071 -0.0000 0.7071
vn -0.7071 -0.7071 -0.0000
vn -0.7071 0.7071 -0.0000
vn -0.7071 -0.0000 -0.7071
vn -0.0000 -0.7071 -0.7071
vn -0.0000 0.7071 -0.7071
vt 0.404583 0.765178
vt 0.595417 0.765178
vt 0.404583 0.484822
vt 0.404583 0.265178
vt 0.404583 0.529583
vt 0.595417 0.529583
vt 0.404583 0.220417
vt 0.404583 0.029583
vt 0.595417 0.265178
vt 0.595417 0.029583
vt 0.595417 0.220417
vt 0.595417 0.484822
vt 0.595417 0.720417
vt 0.404583 0.720417
vt 0.595417 0.984822
vt 0.404583 0.984822
vt 0.140178 0.529583
vt 0.359822 0.529583
vt 0.359822 0.720417
vt 0.140178 0.720417
vt 0.640178 0.529583
vt 0.859822 0.529583
vt 0.859822 0.720417
vt 0.640178 0.720417
vt 0.129276 0.741667
vt 0.128207 0.747917
vt 0.125000 0.741667
vt 0.616667 0.995724
vt 0.625000 0.995724
vt 0.620833 0.997862
vt 0.125000 0.508333
vt 0.128207 0.502083
vt 0.129276 0.508333
vt 0.625000 0.250073
vt 0.616667 0.254276
vt 0.617500 0.243761
vt 0.381239 0.742500
vt 0.378290 0.752565
vt 0.370724 0.741667
vt 0.627565 0.746710
vt 0.616667 0.754276
vt 0.617500 0.743761
vt 0.378290 0.497435
vt 0.381239 0.507500
vt 0.370724 0.508333
vt 0.627565 0.505812
vt 0.616667 0.508333
vt 0.617500 0.497413
vt 0.383333 0.000000
vt 0.616667 0.000000
vt 0.616667 0.008333
vt 0.383333 0.008333
vt 0.625000 0.008333
vt 0.383333 0.254276
vt 0.383333 0.241667
vt 0.383333 0.995724
vt 0.870724 0.741667
vt 0.870724 0.508333
s 0
f 13/1/1 14/2/1 37/2/1 38/1/1
f 8/3/2 5/4/2 30/4/2 31/3/2
f 9/5/3 10/6/3 33/6/3 34/5/3
f 4/7/2 1/8/2 25/8/2 27/7/2
f 5/4/4 6/9/4 29/9/4 30/4/4
f 1/8/5 2/10/5 26/10/5 25/8/5
f 25/8/1 26/10/1 28/11/1 27/7/1
f 30/4/5 29/9/5 32/12/5 31/3/5
f 34/5/4 33/6/4 36/13/4 35/14/4
f 38/1/3 37/2/3 40/15/3 39/16/3
f 42/17/6 41/18/6 44/19/6 43/20/6
f 46/21/2 45/22/2 48/23/2 47/24/2
f 2/10/6 3/11/6 28/11/6 26/10/6
f 12/14/2 9/5/2 34/5/2 35/14/2
f 17/17/3 18/18/3 41/18/3 42/17/3
f 6/9/6 7/12/6 32/12/6 29/9/6
f 16/16/2 13/1/2 38/1/2 39/16/2
f 21/21/3 22/22/3 45/22/3 46/21/3
f 3/11/3 4/7/3 27/7/3 28/11/3
f 10/6/6 11/13/6 36/13/6 33/6/6
f 20/20/4 17/17/4 42/17/4 43/20/4
f 7/12/1 8/3/1 31/3/1 32/12/1
f 14/2/6 15/15/6 40/15/6 37/2/6
f 24/24/1 21/21/1 46/21/1 47/24/1
f 11/13/5 12/14/5 35/14/5 36/13/5
f 18/18/1 19/19/1 44/19/1 41/18/1
f 15/15/4 16/16/4 39/16/4 40/15/4
f 22/22/4 23/23/4 48/23/4 45/22/4
f 19/19/5 20/20/5 43/20/5 44/19/5
f 23/23/5 24/24/5 47/24/5 48/23/5
f 49/25/7 50/26/7 51/27/7
f 52/28/8 53/29/8 54/30/8
f 55/31/9 56/32/9 57/33/9
f 58/34/10 59/35/10 60/36/10
f 61/37/11 62/38/11 63/39/11
f 64/40/12 65/41/12 66/42/12
f 67/43/13 68/44/13 69/45/13
f 70/46/14 71/47/14 72/48/14
f 57/33/15 49/25/15 51/27/15 55/31/15
f 50/49/16 52/50/16 54/51/16 51/52/16
f 53/53/17 58/34/17 60/36/17 54/51/17
f 59/35/18 56/54/18 55/55/18 60/36/18
f 69/45/19 57/33/19 56/32/19 67/43/19
f 58/34/20 70/46/20 72/48/20 59/35/20
f 71/47/21 68/44/21 67/43/21 72/48/21
f 63/39/22 69/45/22 68/44/22 61/37/22
f 70/46/23 64/40/23 66/42/23 71/47/23
f 65/41/24 62/38/24 61/37/24 66/42/24
f 49/25/25 63/39/25 62/38/25 50/26/25
f 64/40/26 53/29/26 52/28/26 65/41/26
f 49/25/6 57/33/6 17/17/6 20/20/6
f 51/52/1 54/51/1 2/10/1 1/8/1
f 50/56/3 62/38/3 13/1/3 16/16/3
f 55/55/1 51/52/1 1/8/1 4/7/1
f 52/28/3 50/56/3 16/16/3 15/15/3
f 63/39/6 49/25/6 20/20/6 19/19/6
f 54/51/1 60/36/1 3/11/1 2/10/1
f 53/57/2 64/40/2 24/24/2 23/23/2
f 65/41/3 52/28/3 15/15/3 14/2/3
f 58/58/2 53/57/2 23/23/2 22/22/2
f 56/54/5 59/35/5 6/9/5 5/4/5
f 57/33/6 69/45/6 18/18/6 17/17/6
f 60/36/1 55/55/1 4/7/1 3/11/1
f 67/43/5 56/54/5 5/4/5 8/3/5
f 59/35/5 72/48/5 7/12/5 6/9/5
f 70/46/2 58/58/2 22/22/2 21/21/2
f 69/45/6 63/39/6 19/19/6 18/18/6
f 61/37/4 68/44/4 9/5/4 12/14/4
f 62/38/3 65/41/3 14/2/3 13/1/3
f 66/42/4 61/37/4 12/14/4 11/13/4
f 64/40/2 70/46/2 21/21/2 24/24/2
f 71/47/4 66/42/4 11/13/4 10/6/4
f 68/44/4 71/47/4 10/6/4 9/5/4
f 72/48/5 67/43/5 8/3/5 7/12/5
