# Blender 5.1.2
# www.blender.org
mtllib WoodenCrate5.mtl
o WoodenCrate5
v 0.300000 0.020649 -0.280339
v 0.250000 0.683317 -0.250000
v 0.300000 0.020649 0.280339
v 0.250000 0.683317 0.250000
v -0.300000 0.020649 -0.280339
v -0.250000 0.683317 -0.250000
v -0.300000 0.020649 0.280339
v -0.250000 0.683317 0.250000
v 0.250000 0.141584 -0.300000
v 0.250000 0.141584 0.300000
v -0.250000 0.141584 0.300000
v -0.300000 0.141584 -0.250000
v 0.250000 0.683317 0.030000
v -0.300000 0.020649 0.049661
v 0.300000 0.141584 0.030000
v 0.300000 0.020649 0.049661
v -0.250000 0.683317 0.030000
v -0.300000 0.141584 0.030000
v 0.300000 0.020649 -0.049661
v -0.250000 0.683317 -0.030000
v -0.300000 0.141584 -0.030000
v 0.250000 0.683317 -0.030000
v -0.300000 0.020649 -0.049661
v 0.300000 0.141584 -0.030000
v -0.030000 0.683317 0.250000
v -0.030000 0.000988 -0.300000
v -0.030000 0.141584 0.300000
v -0.030000 0.000988 0.300000
v -0.030000 0.683317 -0.250000
v -0.030000 0.141584 -0.300000
v -0.030000 0.000988 0.030000
v -0.030000 0.683317 0.030000
v -0.030000 0.683317 -0.030000
v -0.030000 0.000988 -0.030000
v 0.030000 0.000988 0.300000
v 0.030000 0.683317 -0.250000
v 0.030000 0.141584 -0.300000
v 0.030000 0.683317 0.250000
v 0.030000 0.000988 -0.300000
v 0.030000 0.141584 0.300000
v 0.030000 0.683317 0.030000
v 0.030000 0.000988 0.030000
v 0.030000 0.000988 -0.030000
v 0.030000 0.683317 -0.030000
v 0.300000 0.633317 0.030000
v 0.250000 0.633317 0.300000
v -0.030000 0.633317 0.300000
v -0.250000 0.633317 0.300000
v -0.300000 0.633317 -0.030000
v -0.300000 0.633317 -0.250000
v 0.030000 0.633317 -0.300000
v 0.250000 0.633317 -0.300000
v 0.300000 0.633317 -0.030000
v -0.300000 0.633317 0.030000
v 0.030000 0.633317 0.300000
v -0.030000 0.633317 -0.300000
v -0.300000 0.633317 0.250000
v 0.300000 0.633317 0.250000
v 0.300000 0.141584 0.250000
v -0.300000 0.141584 0.250000
v -0.030000 0.091584 0.300000
v 0.030000 0.091584 0.300000
v -0.250000 0.633317 -0.300000
v -0.300000 0.071923 0.280339
v -0.250000 0.141584 -0.300000
v -0.300000 0.071923 -0.049661
v -0.300000 0.071923 0.049661
v 0.300000 0.141584 -0.250000
v 0.300000 0.633317 -0.250000
v -0.300000 0.071923 -0.280339
v 0.030000 0.091584 -0.300000
v -0.030000 0.091584 -0.300000
v 0.300000 0.071923 -0.280339
v 0.300000 0.071923 0.280339
v 0.300000 0.071923 0.049661
v 0.300000 0.071923 -0.049661
v -0.278138 0.633317 0.030000
v -0.278138 0.141584 0.030000
v 0.278138 0.633317 0.030000
v 0.278138 0.141584 0.030000
v 0.278138 0.633317 -0.030000
v 0.278138 0.141584 -0.030000
v -0.278138 0.633317 -0.030000
v -0.278138 0.141584 -0.030000
v -0.030000 0.633317 -0.278138
v -0.030000 0.141584 -0.278138
v -0.030000 0.633317 0.278138
v -0.030000 0.141584 0.278138
v 0.030000 0.633317 0.278138
v 0.030000 0.141584 0.278138
v 0.030000 0.633317 -0.278138
v 0.030000 0.141584 -0.278138
v -0.250000 0.633317 0.278138
v 0.250000 0.633317 0.278138
v 0.250000 0.141584 0.278138
v -0.250000 0.141584 0.278138
v -0.278138 0.633317 -0.250000
v -0.278138 0.633317 0.250000
v -0.278138 0.141584 0.250000
v -0.278138 0.141584 -0.250000
v 0.250000 0.141584 -0.278138
v 0.250000 0.633317 -0.278138
v -0.250000 0.633317 -0.278138
v -0.250000 0.141584 -0.278138
v 0.278138 0.141584 -0.250000
v 0.278138 0.633317 -0.250000
v 0.278138 0.633317 0.250000
v 0.278138 0.141584 0.250000
v -0.030000 0.661455 0.030000
v -0.250000 0.661455 0.030000
v -0.030000 0.661455 -0.030000
v -0.250000 0.661455 -0.030000
v -0.030000 0.661455 0.250000
v -0.030000 0.661455 -0.250000
v 0.250000 0.661455 0.030000
v 0.030000 0.661455 0.030000
v 0.250000 0.661455 -0.030000
v 0.030000 0.661455 -0.030000
v 0.030000 0.661455 0.250000
v 0.030000 0.661455 -0.250000
v 0.250000 0.661455 0.250000
v -0.250000 0.661455 0.250000
v -0.250000 0.661455 -0.250000
v 0.250000 0.661455 -0.250000
v 0.300000 0.000988 -0.030000
v 0.300000 0.000988 -0.300000
v 0.300000 0.091584 0.300000
v 0.300000 0.000988 0.300000
v -0.300000 0.091584 0.300000
v -0.300000 0.000988 0.300000
v -0.300000 0.000988 0.030000
v -0.300000 0.091584 -0.300000
v -0.300000 0.000988 -0.300000
v 0.300000 0.091584 -0.300000
v -0.300000 0.091584 -0.030000
v 0.300000 0.091584 0.030000
v 0.300000 0.000988 0.030000
v -0.300000 0.091584 0.030000
v -0.300000 0.000988 -0.030000
v 0.300000 0.091584 -0.030000
v -0.030000 0.672176 0.300000
v -0.030000 0.683317 0.288859
v 0.030000 0.672176 0.300000
v 0.030000 0.683317 0.288859
v -0.300000 0.672176 -0.030000
v -0.288859 0.683317 -0.030000
v -0.288859 0.683317 0.288859
v -0.300000 0.672176 0.300000
v -0.288859 0.683317 0.030000
v -0.300000 0.672176 0.030000
v 0.030000 0.672176 -0.300000
v 0.030000 0.683317 -0.288859
v -0.288859 0.683317 -0.288859
v -0.300000 0.672176 -0.300000
v -0.030000 0.683317 -0.288859
v -0.030000 0.672176 -0.300000
v 0.288859 0.683317 -0.288859
v 0.300000 0.672176 -0.300000
v 0.300000 0.672176 0.030000
v 0.288859 0.683317 0.030000
v 0.288859 0.683317 0.288859
v 0.300000 0.672176 0.300000
v 0.300000 0.672176 -0.030000
v 0.288859 0.683317 -0.030000
vn -1.0000 -0.0000 -0.0000
vn -0.0000 -1.0000 -0.0000
vn -0.0000 1.0000 -0.0000
vn -0.0000 -0.0000 -1.0000
vn -0.0000 -0.0000 1.0000
vn 1.0000 -0.0000 -0.0000
vn 0.7071 0.7071 -0.0000
vn -0.0000 0.7071 0.7071
vn -0.7071 0.7071 -0.0000
vn -0.0000 0.7071 -0.7071
vt 0.436898 0.270833
vt 0.607639 0.270833
vt 0.607639 0.020833
vt 0.607639 0.112500
vt 0.607639 0.387500
vt 0.607639 0.479167
vt 0.436898 0.137500
vt 0.436898 0.112500
vt 0.262500 0.637500
vt 0.375000 0.637500
vt 0.375000 0.750000
vt 0.262500 0.750000
vt 0.737500 0.520833
vt 0.737500 0.612500
vt 0.375000 0.887500
vt 0.419537 0.887500
vt 0.419537 1.000000
vt 0.375000 1.000000
vt 0.000000 0.000000
vt 0.375000 0.387500
vt 0.419537 0.387500
vt 0.419537 0.500000
vt 0.375000 0.500000
vt 0.419537 0.862500
vt 0.375000 0.862500
vt 0.762500 0.637500
vt 0.762500 0.729167
vt 0.737500 0.729167
vt 0.737500 0.637500
vt 0.237500 0.750000
vt 0.237500 0.637500
vt 0.607639 0.862500
vt 0.607639 0.887500
vt 0.436898 0.887500
vt 0.436898 0.862500
vt 0.607639 0.362500
vt 0.436898 0.387500
vt 0.436898 0.362500
vt 0.125000 0.612500
vt 0.237500 0.612500
vt 0.125000 0.637500
vt 0.419537 0.612500
vt 0.419537 0.637500
vt 0.375000 0.612500
vt 0.854167 0.637500
vt 0.854167 0.729167
vt 0.607639 0.137500
vt 0.762500 0.520833
vt 0.762500 0.612500
vt 0.436898 0.229167
vt 0.262500 0.500000
vt 0.262500 0.612500
vt 0.237500 0.500000
vt 0.436898 0.770833
vt 0.419537 0.112500
vt 0.419537 0.137500
vt 0.375000 0.137500
vt 0.375000 0.112500
vt 0.645833 0.637500
vt 0.645833 0.612500
vt 0.607639 0.229167
vt 0.419537 0.750000
vt 0.125000 0.500000
vt 0.436898 0.637500
vt 0.436898 0.612500
vt 0.125000 0.750000
vt 0.375000 0.250000
vt 0.419537 0.250000
vt 0.419537 0.362500
vt 0.375000 0.362500
vt 0.436898 0.479167
vt 0.436898 0.729167
vt 0.436898 0.520833
vt 0.436898 0.979167
vt 0.436898 0.020833
vt 0.419537 0.000000
vt 0.607639 0.637500
vt 0.607639 0.729167
vt 0.607639 0.979167
vt 0.607639 0.520833
vt 0.607639 0.612500
vt 0.607639 0.770833
vt 0.854167 0.612500
vt 0.854167 0.520833
vt 0.645833 0.520833
vt 0.645833 0.729167
vt 0.384665 0.008192
vt 0.384665 0.104308
vt 0.375000 0.000000
vt 0.384665 0.241808
vt 0.409872 0.241808
vt 0.409872 0.508192
vt 0.384665 0.508192
vt 0.384665 0.604308
vt 0.384665 0.741808
vt 0.409872 0.741808
vt 0.409872 0.008192
vt 0.409872 0.645692
vt 0.409872 0.145692
vt 0.384665 0.145692
vt 0.409872 0.604308
vt 0.384665 0.645692
vt 0.409872 0.104308
vt 0.625000 0.137500
vt 0.625000 0.250000
vt 0.621132 0.250000
vt 0.621132 0.137500
vt 0.625000 0.387500
vt 0.628482 0.502321
vt 0.621132 0.500000
vt 0.621132 0.387500
vt 0.629642 0.637500
vt 0.628481 0.747679
vt 0.621132 0.750000
vt 0.621132 0.637500
vt 0.625000 0.887500
vt 0.625000 0.995358
vt 0.621132 1.000000
vt 0.621132 0.887500
vt 0.625000 0.112500
vt 0.621132 0.112500
vt 0.629642 0.612500
vt 0.621132 0.612500
vt 0.625000 0.004642
vt 0.621132 -0.000000
vt 0.625000 0.362500
vt 0.621132 0.362500
vt 0.625000 0.862500
vt 0.621132 0.862500
vt 0.737500 0.504642
vt 0.762500 0.504642
vt 0.870358 0.504642
vt 0.762500 0.745358
vt 0.737500 0.745358
vt 0.870358 0.745358
vt 0.870358 0.637500
vt 0.870358 0.612500
s 0
f 10/1/1 46/2/1 94/2/1 95/1/1
f 69/3/2 53/4/2 81/4/2 106/3/2
f 47/5/2 48/6/2 93/6/2 87/5/2
f 15/7/3 24/8/3 82/8/3 80/7/3
f 34/9/2 139/10/2 133/11/2 26/12/2
f 25/13/1 32/14/1 109/14/1 113/13/1
f 39/15/4 71/16/4 134/17/4 126/18/4
f 76/19/2 66/19/2 70/19/2 73/19/2
f 28/20/5 61/21/5 129/22/5 130/23/5
f 75/19/2 74/19/2 64/19/2 67/19/2
f 72/24/4 71/16/4 39/15/4 26/25/4
f 44/26/3 36/27/3 29/28/3 33/29/3
f 34/9/2 26/12/2 39/30/2 43/31/2
f 56/32/4 51/33/4 37/34/4 30/35/4
f 55/36/5 47/5/5 27/37/5 40/38/5
f 137/39/2 42/40/2 43/31/2 125/41/2
f 138/42/1 135/43/1 139/10/1 131/44/1
f 22/45/1 2/46/1 124/46/1 117/45/1
f 53/4/2 45/47/2 79/47/2 81/4/2
f 38/48/3 41/49/3 32/14/3 25/13/3
f 59/50/3 15/7/3 80/7/3 108/50/3
f 28/51/2 130/23/2 131/44/2 31/52/2
f 44/26/6 41/49/6 116/49/6 118/26/6
f 16/19/5 75/19/5 67/19/5 14/19/5
f 28/51/2 31/52/2 42/40/2 35/53/2
f 41/49/3 44/26/3 33/29/3 32/14/3
f 55/36/6 40/38/6 90/38/6 89/36/6
f 19/19/4 23/19/4 66/19/4 76/19/4
f 139/10/2 34/9/2 31/52/2 131/44/2
f 31/52/2 34/9/2 43/31/2 42/40/2
f 30/35/3 65/54/3 104/54/3 86/35/3
f 140/55/6 136/56/6 137/57/6 125/58/6
f 20/59/6 17/60/6 110/60/6 112/59/6
f 58/61/4 59/50/4 108/50/4 107/61/4
f 41/49/6 38/48/6 119/48/6 116/49/6
f 133/11/4 132/62/4 72/24/4 26/25/4
f 36/27/6 44/26/6 118/26/6 120/27/6
f 128/63/2 35/53/2 42/40/2 137/39/2
f 21/64/3 18/65/3 78/65/3 84/64/3
f 125/41/2 43/31/2 39/30/2 126/66/2
f 128/67/5 127/68/5 62/69/5 35/70/5
f 62/69/5 61/21/5 28/20/5 35/70/5
f 27/37/5 11/71/5 129/22/5 61/21/5
f 40/38/5 27/37/5 61/21/5 62/69/5
f 10/1/5 40/38/5 62/69/5 127/68/5
f 21/64/1 12/72/1 132/62/1 135/43/1
f 60/73/1 18/65/1 138/42/1 129/22/1
f 18/65/1 21/64/1 135/43/1 138/42/1
f 37/34/4 9/74/4 134/17/4 71/16/4
f 65/54/4 30/35/4 72/24/4 132/62/4
f 30/35/4 37/34/4 71/16/4 72/24/4
f 15/7/6 59/50/6 127/68/6 136/56/6
f 24/8/6 15/7/6 136/56/6 140/55/6
f 68/75/6 24/8/6 140/55/6 134/76/6
f 80/7/6 79/47/6 107/61/6 108/50/6
f 88/37/5 87/5/5 93/6/5 96/71/5
f 84/64/1 83/77/1 97/78/1 100/72/1
f 92/34/4 91/33/4 102/79/4 101/74/4
f 81/4/6 79/47/6 80/7/6 82/8/6
f 99/73/1 98/80/1 77/81/1 78/65/1
f 105/75/6 106/3/6 81/4/6 82/8/6
f 77/81/1 83/77/1 84/64/1 78/65/1
f 104/54/4 103/82/4 85/32/4 86/35/4
f 95/1/5 94/2/5 89/36/5 90/38/5
f 24/8/3 68/75/3 105/75/3 82/8/3
f 37/34/6 51/33/6 91/33/6 92/34/6
f 48/6/6 11/71/6 96/71/6 93/6/6
f 49/77/2 50/78/2 97/78/2 83/77/2
f 11/71/3 27/37/3 88/37/3 96/71/3
f 60/73/4 57/80/4 98/80/4 99/73/4
f 56/32/1 30/35/1 86/35/1 85/32/1
f 50/78/5 12/72/5 100/72/5 97/78/5
f 52/79/1 9/74/1 101/74/1 102/79/1
f 12/72/3 21/64/3 84/64/3 100/72/3
f 46/2/2 55/36/2 89/36/2 94/2/2
f 51/33/2 52/79/2 102/79/2 91/33/2
f 57/80/2 54/81/2 77/81/2 98/80/2
f 40/38/3 10/1/3 95/1/3 90/38/3
f 65/54/6 63/82/6 103/82/6 104/54/6
f 18/65/3 60/73/3 99/73/3 78/65/3
f 68/75/5 69/3/5 106/3/5 105/75/5
f 9/74/3 37/34/3 92/34/3 101/74/3
f 54/81/2 49/77/2 83/77/2 77/81/2
f 27/37/1 47/5/1 87/5/1 88/37/1
f 45/47/2 58/61/2 107/61/2 79/47/2
f 63/82/2 56/32/2 85/32/2 103/82/2
f 118/26/3 117/45/3 124/46/3 120/27/3
f 117/45/3 118/26/3 116/49/3 115/83/3
f 119/48/3 121/84/3 115/83/3 116/49/3
f 122/85/3 113/13/3 109/14/3 110/60/3
f 112/59/3 111/29/3 114/28/3 123/86/3
f 110/60/3 109/14/3 111/29/3 112/59/3
f 4/84/1 13/83/1 115/83/1 121/84/1
f 8/85/4 25/13/4 113/13/4 122/85/4
f 29/28/5 6/86/5 123/86/5 114/28/5
f 6/86/6 20/59/6 112/59/6 123/86/6
f 32/14/1 33/29/1 111/29/1 109/14/1
f 2/46/5 36/27/5 120/27/5 124/46/5
f 38/48/4 4/84/4 121/84/4 119/48/4
f 13/83/1 22/45/1 117/45/1 115/83/1
f 33/29/1 29/28/1 114/28/1 111/29/1
f 17/60/6 8/85/6 122/85/6 110/60/6
f 1/87/6 19/88/6 125/58/6 126/89/6
f 3/90/6 74/91/6 127/68/6 128/67/6
f 64/92/1 7/93/1 130/23/1 129/22/1
f 7/93/1 14/94/1 131/44/1 130/23/1
f 5/95/1 70/96/1 132/62/1 133/11/1
f 73/97/6 1/87/6 126/89/6 134/76/6
f 70/96/1 66/98/1 135/43/1 132/62/1
f 74/91/6 75/99/6 136/56/6 127/68/6
f 16/100/6 3/90/6 128/67/6 137/57/6
f 67/101/1 64/92/1 129/22/1 138/42/1
f 14/94/1 67/101/1 138/42/1 131/44/1
f 75/99/6 16/100/6 137/57/6 136/56/6
f 23/102/1 5/95/1 133/11/1 139/10/1
f 76/103/6 73/97/6 134/76/6 140/55/6
f 19/88/6 76/103/6 140/55/6 125/58/6
f 66/98/1 23/102/1 139/10/1 135/43/1
f 73/19/5 70/19/5 5/19/5 1/19/5
f 1/19/3 5/19/3 23/19/3 19/19/3
f 74/19/4 3/19/4 7/19/4 64/19/4
f 3/19/3 16/19/3 14/19/3 7/19/3
f 160/104/7 161/105/7 162/106/7 159/107/7
f 142/108/8 147/109/8 148/110/8 141/111/8
f 146/112/9 153/113/9 154/114/9 145/115/9
f 152/116/10 157/117/10 158/118/10 151/119/10
f 164/120/7 160/104/7 159/107/7 163/121/7
f 147/109/9 149/122/9 150/123/9 148/110/9
f 149/122/9 146/112/9 145/115/9 150/123/9
f 157/124/7 164/120/7 163/121/7 158/125/7
f 144/126/8 142/108/8 141/111/8 143/127/8
f 153/113/10 155/128/10 156/129/10 154/114/10
f 155/128/10 152/116/10 151/119/10 156/129/10
f 161/105/8 144/126/8 143/127/8 162/106/8
f 48/6/5 47/5/5 141/111/5 148/110/5
f 38/48/3 25/13/3 142/130/3 144/131/3
f 25/13/3 8/85/3 147/109/3 142/130/3
f 47/5/5 55/36/5 143/127/5 141/111/5
f 4/84/3 38/48/3 144/131/3 161/132/3
f 55/36/5 46/2/5 162/106/5 143/127/5
f 50/78/1 49/77/1 145/115/1 154/114/1
f 17/60/3 20/59/3 146/112/3 149/122/3
f 20/59/3 6/86/3 153/113/3 146/112/3
f 49/77/1 54/81/1 150/123/1 145/115/1
f 57/80/1 60/73/1 129/22/1 148/110/1
f 11/71/5 48/6/5 148/110/5 129/22/5
f 54/81/1 57/80/1 148/110/1 150/123/1
f 8/85/3 17/60/3 149/122/3 147/109/3
f 52/79/4 51/33/4 151/119/4 158/118/4
f 29/28/3 36/27/3 152/133/3 155/134/3
f 36/27/3 2/46/3 157/135/3 152/133/3
f 51/33/4 56/32/4 156/129/4 151/119/4
f 63/82/4 65/54/4 132/62/4 154/114/4
f 12/72/1 50/78/1 154/114/1 132/62/1
f 56/32/4 63/82/4 154/114/4 156/129/4
f 6/86/3 29/28/3 155/134/3 153/113/3
f 69/3/6 68/75/6 134/76/6 158/125/6
f 9/74/4 52/79/4 158/118/4 134/17/4
f 53/4/6 69/3/6 158/125/6 163/121/6
f 2/46/3 22/45/3 164/136/3 157/135/3
f 58/61/6 45/47/6 159/107/6 162/106/6
f 22/45/3 13/83/3 160/137/3 164/136/3
f 13/83/3 4/84/3 161/132/3 160/137/3
f 45/47/6 53/4/6 163/121/6 159/107/6
f 59/50/6 58/61/6 162/106/6 127/68/6
f 46/2/5 10/1/5 127/68/5 162/106/5
