# Blender 5.1.2
# www.blender.org
mtllib FloorMeshEdgeBroken.03.mtl
o FloorMeshEdgeBroken.03
v 3.001934 0.040425 2.357530
v 3.001934 0.040425 -2.359406
v -2.860401 0.040425 -2.359406
v -2.860401 0.040425 2.357530
v -2.860401 0.040425 1.178296
v -2.860401 0.040425 -0.000938
v -2.860401 0.040425 -1.180172
v 3.001934 0.040425 1.178296
v 3.001934 0.040425 -0.000938
v 3.001934 0.040425 -1.180172
v -1.883345 0.040425 2.357530
v -0.906289 0.040425 2.357530
v -1.017984 -0.058933 -0.000938
v 1.047822 0.040425 2.357530
v 2.024879 0.040425 2.357530
v -1.883345 0.040425 -2.359406
v -0.906289 0.040425 -2.359406
v -0.906290 0.005513 1.178296
v 1.047822 0.040425 -2.359406
v 2.024879 0.040425 -2.359406
v 1.222695 -0.051615 -0.000938
v 1.157448 -0.076268 1.178296
v 2.024878 0.040425 1.178296
v 1.047822 -0.020708 1.178296
v -0.906290 -0.057778 -1.180172
v -0.906290 0.040425 1.178296
v -1.883345 0.040425 1.178296
v 2.024878 0.040425 -0.000938
v 1.047822 -0.001670 -1.180172
v 1.072247 -0.005332 -0.000938
v -1.883345 0.040425 -0.000938
v 2.024878 0.040425 -1.180172
v 1.047822 0.040425 -1.180172
v -1.079244 -0.153102 -0.000938
v -0.906290 -0.035789 -1.180172
v -1.883345 0.040425 -1.180172
v 0.070767 0.040425 -2.359406
v 0.070766 -0.066731 -1.253831
v 0.070767 0.040425 2.357530
v 0.070766 -0.020708 1.239775
v 0.070767 0.040425 2.357530
v 0.070766 -0.057265 1.239775
v 3.001934 0.010589 2.357530
v 3.001934 0.010589 -2.359406
v -2.860401 0.010589 -2.359406
v -2.860401 0.010589 2.357530
v -2.860401 0.010589 1.178296
v -2.860401 0.010589 -0.000938
v -2.860401 0.010589 -1.180172
v 3.001934 0.010589 1.178296
v 3.001934 0.010589 -0.000938
v 3.001934 0.010589 -1.180172
v -1.883345 0.010589 2.357530
v -0.906289 0.010589 2.357530
v -1.017984 -0.088769 -0.000938
v 1.047822 0.010589 2.357530
v 2.024879 0.010589 2.357530
v -1.883345 0.010589 -2.359406
v -0.906289 0.010589 -2.359406
v -0.906290 -0.024324 1.178296
v 1.047822 0.010589 -2.359406
v 2.024879 0.010589 -2.359406
v 1.222695 -0.081452 -0.000938
v 1.157448 -0.106104 1.178296
v 2.024878 0.010589 1.178296
v 1.047822 -0.050544 1.178296
v -0.906290 -0.087615 -1.180172
v -0.906290 0.010589 1.178296
v -1.883345 0.010589 1.178296
v 2.024878 0.010589 -0.000938
v 1.047822 -0.031506 -1.180172
v 1.072247 -0.035169 -0.000938
v -1.883345 0.010589 -0.000938
v 2.024878 0.010589 -1.180172
v 1.047822 0.010589 -1.180172
v -1.079244 -0.182938 -0.000938
v -0.906290 -0.065625 -1.180172
v -1.883345 0.010589 -1.180172
v 0.070767 0.010589 -2.359406
v 0.070766 -0.096568 -1.253831
v 0.070767 0.010589 2.357530
v 0.070766 -0.050544 1.239775
v 0.070767 0.010589 2.357530
v 0.070766 -0.087101 1.239775
vn -0.0000 1.0000 -0.0000
vn -0.0313 0.9992 -0.0259
vn -0.1241 0.9923 0.0069
vn -0.0455 0.9990 0.0020
vn 0.0727 0.9969 -0.0307
vn 0.1614 0.9855 0.0517
vn 0.0390 0.9987 0.0323
vn 0.0188 0.9966 0.0800
vn -0.0565 0.9973 0.0468
vn -0.0017 0.9986 -0.0532
vn 0.0512 0.9978 -0.0424
vn -0.0000 -1.0000 -0.0000
vn 0.0313 -0.9992 0.0259
vn 0.1241 -0.9923 -0.0069
vn 0.0455 -0.9990 -0.0020
vn -0.0727 -0.9969 0.0307
vn -0.1614 -0.9855 -0.0517
vn -0.0390 -0.9987 -0.0323
vn -0.0188 -0.9966 -0.0800
vn 0.0565 -0.9973 -0.0468
vn 0.0017 -0.9986 0.0532
vn -0.0512 -0.9978 0.0424
vn -0.0000 -0.0000 -1.0000
vn -0.0752 -0.0000 0.9972
vn -0.0000 -0.0000 1.0000
vn -1.0000 -0.0000 -0.0000
vn -0.9985 -0.0000 -0.0552
vn 1.0000 -0.0000 -0.0000
vn -0.0628 -0.0000 -0.9980
vn 0.9955 -0.0000 -0.0943
vn 0.0628 -0.0000 -0.9980
vn 0.9894 -0.0000 0.1451
vn -0.9998 -0.0000 0.0207
vn 0.0752 -0.0000 0.9972
vt 0.822358 0.202409
vt 0.821605 0.005598
vt 0.984673 0.004974
vt 0.985426 0.201785
vt 0.824616 0.792841
vt 0.823864 0.596030
vt 0.986932 0.595407
vt 0.987684 0.792217
vt 0.823111 0.399220
vt 0.986179 0.398596
vt 0.004471 0.398595
vt 0.005368 0.201784
vt 0.168435 0.202527
vt 0.167538 0.399338
vt 0.003574 0.595405
vt 0.166642 0.596148
vt 0.002678 0.792215
vt 0.165745 0.792958
vt 0.330029 0.596628
vt 0.328813 0.793701
vt 0.302299 0.399951
vt 0.312717 0.596832
vt 0.331654 0.203269
vt 0.326713 0.400063
vt 0.661548 0.793465
vt 0.660796 0.596654
vt 0.006264 0.004974
vt 0.169332 0.005717
vt 0.332399 0.006460
vt 0.331503 0.203270
vt 0.660693 0.597026
vt 0.677736 0.399776
vt 0.685076 0.399748
vt 0.658468 0.201976
vt 0.658797 0.203444
vt 0.658537 0.006222
vt 0.495604 0.191724
vt 0.495468 0.006341
vt 0.493033 0.607881
vt 0.491879 0.794708
vt 0.498485 0.794798
vt 0.496954 0.607542
vt 0.175890 0.205003
vt 0.014964 0.204387
vt 0.015707 0.010162
vt 0.176633 0.010777
vt 0.173662 0.787679
vt 0.012736 0.787064
vt 0.013479 0.592838
vt 0.174404 0.593454
vt 0.014221 0.398613
vt 0.175147 0.399228
vt 0.983033 0.398612
vt 0.822108 0.399345
vt 0.821223 0.205120
vt 0.982148 0.204387
vt 0.983918 0.592836
vt 0.822992 0.593570
vt 0.984802 0.787061
vt 0.823877 0.787795
vt 0.662952 0.788528
vt 0.661752 0.594044
vt 0.678836 0.594245
vt 0.689118 0.399951
vt 0.665024 0.400060
vt 0.660148 0.205852
vt 0.334587 0.788295
vt 0.335330 0.594069
vt 0.820338 0.010895
vt 0.981263 0.010162
vt 0.660297 0.205853
vt 0.659413 0.011628
vt 0.318613 0.399777
vt 0.335431 0.594437
vt 0.337627 0.204576
vt 0.311368 0.399749
vt 0.337303 0.206025
vt 0.337559 0.011393
vt 0.498352 0.194459
vt 0.498486 0.011511
vt 0.502028 0.789522
vt 0.500889 0.605149
vt 0.497020 0.604814
vt 0.495509 0.789610
vt 0.119725 0.503062
vt 0.116677 0.503062
vt 0.126827 0.414660
vt 0.129875 0.414660
vt 0.996952 0.199908
vt 1.000000 0.199908
vt 0.989053 0.300004
vt 0.986005 0.300004
vt 0.966882 0.000000
vt 0.969930 0.000000
vt 0.969930 0.099812
vt 0.966882 0.099812
vt 0.155741 0.514472
vt 0.152693 0.514472
vt 0.152693 0.414660
vt 0.155741 0.414660
vt 0.966882 0.513633
vt 0.969930 0.513633
vt 0.969930 0.613446
vt 0.966882 0.613446
vt 0.969930 0.199625
vt 0.966882 0.199625
vt 0.986005 0.481865
vt 0.982957 0.481865
vt 0.982957 0.361399
vt 0.986005 0.361399
vt 0.110432 0.528845
vt 0.107384 0.528845
vt 0.113629 0.414660
vt 0.116677 0.414660
vt 0.165144 0.496608
vt 0.168192 0.496608
vt 0.170710 0.617258
vt 0.167662 0.617258
vt 0.139908 0.618559
vt 0.142956 0.618559
vt 0.132923 0.718371
vt 0.129875 0.718371
vt 0.967332 0.659670
vt 0.970380 0.659670
vt 0.970380 0.780136
vt 0.967332 0.780136
vt 0.155741 0.714097
vt 0.152693 0.714097
vt 0.152693 0.614285
vt 0.155741 0.614285
vt 0.099662 0.414660
vt 0.102710 0.414660
vt 0.107010 0.514472
vt 0.103962 0.514472
vt 0.979909 -0.000000
vt 0.982957 -0.000000
vt 0.982957 0.099812
vt 0.979909 0.099812
vt 0.989053 0.399816
vt 0.986005 0.399816
vt 0.110432 0.628855
vt 0.107384 0.628855
vt 0.986005 0.120466
vt 0.982957 0.120466
vt 0.982957 0.000000
vt 0.986005 0.000000
vt 0.126309 0.624067
vt 0.123261 0.624067
vt 0.966882 0.299437
vt 0.969930 0.299437
vt 0.979909 0.413623
vt 0.976861 0.413623
vt 0.979909 0.499062
vt 0.982957 0.499062
vt 0.982957 0.598875
vt 0.979909 0.598875
vt 0.986005 0.240932
vt 0.982957 0.240932
vt 0.129875 0.414660
vt 0.132923 0.414660
vt 0.152693 0.496804
vt 0.149645 0.496804
vt 0.979909 0.399250
vt 0.982957 0.399250
vt 0.986005 0.000000
vt 0.989053 0.000000
vt 0.996839 0.099812
vt 0.993791 0.099812
vt 0.104336 0.634964
vt 0.107384 0.634964
vt 0.102710 0.732281
vt 0.099662 0.732281
vt 0.967332 0.298271
vt 0.970380 0.298271
vt 0.970380 0.418737
vt 0.967332 0.418737
vt 0.970380 0.539204
vt 0.967332 0.539204
vt 0.982957 0.199625
vt 0.979909 0.199625
vt 0.979909 0.299437
vt 0.982957 0.299437
vt 0.155742 0.414660
vt 0.158790 0.414660
vt 0.116677 0.728667
vt 0.113629 0.728667
vt 0.158789 0.705872
vt 0.155741 0.705872
vt 0.129875 0.723880
vt 0.126827 0.723880
s 0
usemtl M_Mesh
f 36/1/1 16/2/1 3/3/1 7/4/1
f 11/5/1 27/6/1 5/7/1 4/8/1
f 27/6/1 31/9/1 6/10/1 5/7/1
f 31/9/1 36/1/1 7/4/1 6/10/1
f 9/11/1 10/12/1 32/13/1 28/14/1
f 8/15/1 9/11/1 28/14/1 23/16/1
f 1/17/1 8/15/1 23/16/1 15/18/1
f 15/18/2 23/16/2 24/19/2 14/20/2
f 23/16/3 28/14/3 21/21/3 22/22/3
f 28/14/4 32/13/4 29/23/4 30/24/4
f 12/25/1 26/26/1 27/6/1 11/5/1
f 10/12/1 2/27/1 20/28/1 32/13/1
f 32/13/1 20/28/1 19/29/1 33/30/1
f 31/9/5 27/6/5 18/31/5 13/32/5
f 36/1/6 31/9/6 34/33/6 25/34/6
f 35/35/7 17/36/7 16/2/7 36/1/7
f 38/37/8 37/38/8 17/36/8 35/35/8
f 33/30/9 19/29/9 37/38/9 38/37/9
f 14/20/10 24/19/10 40/39/10 39/40/10
f 26/26/11 12/25/11 41/41/11 42/42/11
f 78/43/12 49/44/12 45/45/12 58/46/12
f 53/47/12 46/48/12 47/49/12 69/50/12
f 69/50/12 47/49/12 48/51/12 73/52/12
f 73/52/12 48/51/12 49/44/12 78/43/12
f 51/53/12 70/54/12 74/55/12 52/56/12
f 50/57/12 65/58/12 70/54/12 51/53/12
f 43/59/12 57/60/12 65/58/12 50/57/12
f 57/60/13 56/61/13 66/62/13 65/58/13
f 65/58/14 64/63/14 63/64/14 70/54/14
f 70/54/15 72/65/15 71/66/15 74/55/15
f 54/67/12 53/47/12 69/50/12 68/68/12
f 52/56/12 74/55/12 62/69/12 44/70/12
f 74/55/12 75/71/12 61/72/12 62/69/12
f 73/52/16 55/73/16 60/74/16 69/50/16
f 78/43/17 67/75/17 76/76/17 73/52/17
f 77/77/18 78/43/18 58/46/18 59/78/18
f 80/79/19 77/77/19 59/78/19 79/80/19
f 75/71/20 80/79/20 79/80/20 61/72/20
f 56/61/21 81/81/21 82/82/21 66/62/21
f 68/68/22 84/83/22 83/84/22 54/67/22
f 13/85/23 55/86/23 73/87/23 31/88/23
f 38/89/24 80/90/24 75/91/24 33/92/24
f 4/93/25 46/94/25 53/95/25 11/96/25
f 15/97/25 57/98/25 43/99/25 1/100/25
f 26/101/23 68/102/23 69/103/23 27/104/23
f 11/96/25 53/95/25 54/105/25 12/106/25
f 3/107/26 45/108/26 49/109/26 7/110/26
f 40/111/26 82/112/26 81/113/26 39/114/26
f 21/115/27 63/116/27 64/117/27 22/118/27
f 25/119/23 67/120/23 78/121/23 36/122/23
f 10/123/28 52/124/28 44/125/28 2/126/28
f 39/127/25 81/128/25 56/129/25 14/130/25
f 32/131/23 74/132/23 71/133/23 29/134/23
f 2/135/23 44/136/23 62/137/23 20/138/23
f 33/92/25 75/91/25 74/139/25 32/140/25
f 24/141/29 66/142/29 82/112/29 40/111/29
f 14/130/25 56/129/25 57/98/25 15/97/25
f 5/143/26 47/144/26 46/145/26 4/146/26
f 18/147/30 60/148/30 55/86/30 13/85/30
f 41/149/28 83/150/28 84/151/28 42/152/28
f 16/153/23 58/154/23 45/155/23 3/156/23
f 6/157/26 48/158/26 47/144/26 5/143/26
f 31/159/25 73/160/25 76/161/25 34/162/25
f 42/152/31 84/151/31 68/102/31 26/101/31
f 17/163/23 59/164/23 58/154/23 16/153/23
f 7/110/26 49/109/26 48/158/26 6/157/26
f 36/165/25 78/166/25 77/167/25 35/168/25
f 12/106/25 54/105/25 83/150/25 41/149/25
f 30/169/25 72/170/25 70/171/25 28/172/25
f 34/162/32 76/161/32 67/120/32 25/119/32
f 1/173/28 43/174/28 50/175/28 8/176/28
f 29/134/33 71/133/33 72/170/33 30/169/33
f 8/176/28 50/175/28 51/177/28 9/178/28
f 20/138/23 62/137/23 61/179/23 19/180/23
f 9/178/28 51/177/28 52/124/28 10/123/28
f 37/181/23 79/182/23 59/164/23 17/163/23
f 28/183/23 70/184/23 63/116/23 21/115/23
f 23/185/23 65/186/23 66/142/23 24/141/23
f 35/168/34 77/167/34 80/90/34 38/89/34
f 22/118/25 64/117/25 65/187/25 23/188/25
f 27/189/25 69/190/25 60/148/25 18/147/25
f 19/180/23 61/179/23 79/182/23 37/181/23
