# Blender 5.2.0 LTS
# www.blender.org
mtllib FloorMeshEdgeBroken.02.mtl
o FloorMeshEdgeBroken.02
v 2.500911 -0.439442 -2.359406
v 0.305389 -0.083934 1.178296
v 2.500911 -0.761653 -1.180172
v -0.783131 0.040425 2.357530
v -0.783131 0.040425 -2.359406
v -0.783131 0.040425 1.178296
v -0.783131 0.040425 -0.000938
v -0.783131 0.040425 -1.180172
v 1.093143 -0.033738 2.357530
v 1.093143 -0.064253 -2.359406
v 1.093143 -0.299337 1.178296
v 1.093143 -0.345685 -0.000938
v 1.093143 -0.246428 -1.180172
v 0.305389 -0.152630 -0.000938
v 0.305389 -0.097239 -1.180172
v 0.305389 0.040425 2.357530
v 0.305389 -0.026067 -2.359406
v 1.878371 -0.126517 2.357530
v 1.878371 -0.393396 1.178296
v 1.878371 -0.242917 -2.359406
v 1.878371 -0.648973 -1.180172
v 2.500911 -0.791489 -1.180172
v 2.500911 -0.469278 -2.359406
v 1.878371 -0.272753 -2.359406
v 1.093143 -0.276264 -1.180172
v 0.305389 -0.127075 -1.180172
v 1.093143 -0.375522 -0.000938
v 0.305389 -0.182467 -0.000938
v -0.783131 0.010589 1.178296
v -0.783131 0.010589 -0.000938
v -0.783131 0.010589 -1.180172
v -0.783131 0.010589 2.357530
v -0.783131 0.010589 -2.359406
v 0.305389 -0.113770 1.178296
v 0.305389 0.010589 2.357530
v 1.093143 -0.063574 2.357530
v 0.305389 -0.055903 -2.359406
v 1.093143 -0.094089 -2.359406
v 1.878371 -0.423233 1.178296
v 1.093143 -0.329174 1.178296
v 1.878371 -0.678810 -1.180172
v 1.878371 -0.156354 2.357530
v -0.354706 0.005590 1.178296
v -0.354706 -0.028758 -0.000938
v -0.354706 -0.001063 -1.180172
v -0.354706 0.067769 2.357530
v -0.354706 0.034523 -2.359406
v -0.354706 -0.024247 1.178296
v -0.354706 -0.058595 -0.000938
v -0.354706 -0.030899 -1.180172
v -0.354706 0.037933 2.357530
v -0.354706 0.004687 -2.359406
v -2.500911 0.040425 1.178296
v -2.500911 0.040425 -0.000938
v -2.500911 0.040425 -1.180172
v -2.500911 0.040425 2.357530
v -2.500911 0.040425 -2.359406
v -2.500911 0.010589 1.178296
v -2.500911 0.010589 -0.000938
v -2.500911 0.010589 -1.180172
v -2.500911 0.010589 2.357530
v -2.500911 0.010589 -2.359406
vn 0.1281 0.9917 0.0116
vn 0.1205 0.9926 -0.0145
vn 0.0087 0.9996 -0.0264
vn 0.0552 0.9984 0.0151
vn 0.3380 0.9132 0.2278
vn 0.1153 0.9689 -0.2188
vn 0.1784 0.9708 -0.1605
vn 0.1174 0.9874 0.1061
vn 0.2507 0.9669 -0.0472
vn 0.2118 0.9752 0.0639
vn 0.2309 0.9297 0.2871
vn -0.1281 -0.9917 -0.0116
vn -0.1205 -0.9926 0.0145
vn -0.0087 -0.9996 0.0264
vn -0.0552 -0.9984 -0.0151
vn -0.3380 -0.9132 -0.2278
vn -0.1153 -0.9689 0.2188
vn -0.1784 -0.9708 0.1605
vn -0.1174 -0.9874 -0.1061
vn -0.2507 -0.9669 0.0472
vn -0.2118 -0.9752 -0.0639
vn -0.2309 -0.9297 -0.2871
vn -0.0000 -0.0000 -1.0000
vn -0.0000 -0.0000 1.0000
vn 1.0000 -0.0000 -0.0000
vn -1.0000 -0.0000 -0.0000
vn -0.1178 -0.9920 -0.0449
vn -0.0879 -0.9930 0.0785
vn -0.1594 -0.9863 0.0431
vn -0.1643 -0.9858 -0.0347
vn 0.1178 0.9920 0.0449
vn 0.0879 0.9930 -0.0785
vn 0.1594 0.9863 -0.0431
vn 0.1643 0.9858 0.0347
vn -0.0000 -1.0000 -0.0000
vn -0.0000 1.0000 -0.0000
vt 0.505032 0.402759
vt 0.751813 0.402759
vt 0.751813 0.492417
vt 0.505032 0.492417
vt 0.752389 0.402559
vt 0.999132 0.402024
vt 0.998907 0.492791
vt 0.752205 0.492482
vt 0.505435 0.402899
vt 0.505505 0.492642
vt 0.998594 0.402759
vt 0.998594 0.492417
vt 0.250991 0.522178
vt 0.497766 0.522178
vt 0.497766 0.686501
vt 0.250991 0.686501
vt 0.005849 0.386328
vt 0.252482 0.386328
vt 0.252482 0.550556
vt 0.005850 0.550556
vt 0.252482 0.715312
vt 0.005850 0.715312
vt 0.497766 0.851352
vt 0.250991 0.851353
vt 0.499115 0.550556
vt 0.499115 0.715312
vt 0.004215 0.686501
vt 0.004215 0.851352
vt 0.250991 0.391901
vt 0.497766 0.391901
vt 0.994145 0.402875
vt 0.994145 0.492525
vt 0.747386 0.492525
vt 0.747386 0.402875
vt 0.747387 0.402881
vt 0.747387 0.492530
vt 0.500628 0.492530
vt 0.500628 0.402881
vt 0.994145 0.402881
vt 0.994145 0.492530
vt 0.500627 0.492525
vt 0.500627 0.402875
vt 0.247907 0.523091
vt 0.247907 0.687404
vt 0.001146 0.687404
vt 0.001146 0.523091
vt 0.493908 0.386280
vt 0.493908 0.550574
vt 0.247176 0.550574
vt 0.247176 0.386280
vt 0.493908 0.715397
vt 0.247176 0.715397
vt 0.247907 0.852246
vt 0.001146 0.852246
vt 0.000444 0.715397
vt 0.000444 0.550574
vt 0.494668 0.687404
vt 0.494668 0.852246
vt 0.247907 0.392822
vt 0.001146 0.392822
vt 0.379581 0.383041
vt 0.380283 0.383040
vt 0.380165 0.393121
vt 0.379463 0.393123
vt 0.388109 0.402272
vt 0.388808 0.402334
vt 0.390172 0.417158
vt 0.389473 0.417097
vt 0.379900 0.447570
vt 0.379201 0.447508
vt 0.380983 0.383101
vt 0.375171 0.451153
vt 0.374479 0.451273
vt 0.376535 0.436049
vt 0.377226 0.435929
vt 0.391897 0.410788
vt 0.391195 0.410788
vt 0.391195 0.383040
vt 0.391897 0.383040
vt 0.379303 0.433546
vt 0.378601 0.433553
vt 0.378214 0.393133
vt 0.378916 0.393127
vt 0.391897 0.438537
vt 0.391195 0.438537
vt 0.399227 0.410837
vt 0.398525 0.410810
vt 0.398525 0.383040
vt 0.399227 0.383067
vt 0.390493 0.410788
vt 0.390493 0.383040
vt 0.393302 0.420316
vt 0.392603 0.420255
vt 0.392471 0.401637
vt 0.393170 0.401697
vt 0.391897 0.383040
vt 0.392597 0.383101
vt 0.397825 0.383099
vt 0.398525 0.410886
vt 0.397825 0.410945
vt 0.378214 0.417006
vt 0.377522 0.417126
vt 0.375243 0.398708
vt 0.375935 0.398588
vt 0.393302 0.383040
vt 0.394001 0.383101
vt 0.397825 0.411293
vt 0.397126 0.411232
vt 0.392597 0.435846
vt 0.391897 0.435785
vt 0.394001 0.429506
vt 0.393302 0.429444
vt 0.390493 0.438537
vt 0.378761 0.383046
vt 0.379463 0.383040
vt 0.373996 0.383160
vt 0.374688 0.383040
vt 0.247907 0.990374
vt 0.001146 0.990374
vt 0.493908 0.853509
vt 0.247176 0.853509
vt 0.000444 0.853509
vt 0.494668 0.990374
vt 0.497766 0.989489
vt 0.250991 0.989489
vt 0.252482 0.853369
vt 0.005850 0.853369
vt 0.499115 0.853369
vt 0.004215 0.989489
vt 0.380249 0.433542
vt 0.379547 0.433544
vt 0.994145 0.851977
vt 0.747386 0.851977
vt 0.747387 0.851982
vt 0.500628 0.851982
vt 0.994145 0.851981
vt 0.500627 0.851977
vt 0.751813 0.851900
vt 0.505032 0.851900
vt 0.998673 0.852056
vt 0.752021 0.851851
vt 0.505455 0.851843
vt 0.998594 0.851900
s 0
usemtl M_Mesh
f 44/1/1 45/2/1 8/3/1 7/4/1
f 43/5/2 44/6/2 7/7/2 6/8/2
f 46/9/3 43/5/3 6/8/3 4/10/3
f 45/2/4 47/11/4 5/12/4 8/3/4
f 21/13/5 20/14/5 10/15/5 13/16/5
f 18/17/6 19/18/6 11/19/6 9/20/6
f 9/20/7 11/19/7 2/21/7 16/22/7
f 13/16/8 10/15/8 17/23/8 15/24/8
f 11/19/9 12/25/9 14/26/9 2/21/9
f 12/27/10 13/16/10 15/24/10 14/28/10
f 3/29/11 1/30/11 20/14/11 21/13/11
f 49/31/12 30/32/12 31/33/12 50/34/12
f 48/35/13 29/36/13 30/37/13 49/38/13
f 51/39/14 32/40/14 29/36/14 48/35/14
f 50/34/15 31/33/15 33/41/15 52/42/15
f 41/43/16 25/44/16 38/45/16 24/46/16
f 42/47/17 36/48/17 40/49/17 39/50/17
f 36/48/18 35/51/18 34/52/18 40/49/18
f 25/44/19 26/53/19 37/54/19 38/45/19
f 40/49/20 34/52/20 28/55/20 27/56/20
f 27/57/21 28/58/21 26/53/21 25/44/21
f 22/59/22 41/43/22 24/46/22 23/60/22
f 47/61/23 52/62/23 33/63/23 5/64/23
f 21/65/24 41/66/24 22/67/24 3/68/24
f 3/68/25 22/67/25 23/69/25 1/70/25
f 13/62/24 25/71/24 41/66/24 21/65/24
f 1/72/23 23/73/23 24/74/23 20/75/23
f 53/76/26 58/77/26 61/78/26 56/79/26
f 56/80/24 61/81/24 32/82/24 4/83/24
f 54/84/26 59/85/26 58/77/26 53/76/26
f 11/86/25 40/87/25 27/88/25 12/89/25
f 55/77/26 60/90/26 59/91/26 54/78/26
f 16/92/24 35/93/24 36/94/24 9/95/24
f 9/95/24 36/94/24 42/96/24 18/97/24
f 12/98/25 27/88/25 25/99/25 13/100/25
f 10/101/23 38/102/23 37/103/23 17/104/23
f 18/105/25 42/106/25 39/107/25 19/108/25
f 46/109/24 51/110/24 35/93/24 16/92/24
f 19/108/23 39/107/23 40/111/23 11/112/23
f 20/75/23 24/74/23 38/102/23 10/101/23
f 57/85/26 62/113/26 60/90/26 55/77/26
f 4/83/24 32/82/24 51/114/24 46/115/24
f 17/104/23 37/103/23 52/116/23 47/117/23
f 26/53/27 50/118/27 52/119/27 37/54/27
f 35/51/28 51/120/28 48/121/28 34/52/28
f 34/52/29 48/121/29 49/122/29 28/55/29
f 28/58/30 49/123/30 50/118/30 26/53/30
f 15/24/31 17/23/31 47/124/31 45/125/31
f 16/22/32 2/21/32 43/126/32 46/127/32
f 2/21/33 14/26/33 44/128/33 43/126/33
f 14/28/34 15/24/34 45/125/34 44/129/34
f 5/64/23 33/63/23 62/130/23 57/131/23
f 30/32/35 59/132/35 60/133/35 31/33/35
f 29/36/35 58/134/35 59/135/35 30/37/35
f 32/40/35 61/136/35 58/134/35 29/36/35
f 31/33/35 60/133/35 62/137/35 33/41/35
f 7/4/36 8/3/36 55/138/36 54/139/36
f 6/8/36 7/7/36 54/140/36 53/141/36
f 4/10/36 6/8/36 53/141/36 56/142/36
f 8/3/36 5/12/36 57/143/36 55/138/36
