# Blender 5.2.0 LTS
# www.blender.org
mtllib FloorMeshCentreBrokenSide.02.mtl
o FloorMeshCentreBrokenSide.02
v 3.001934 0.040425 2.357530
v 3.001934 0.040425 -2.359406
v -3.001934 -0.074339 -2.359406
v -2.692332 -0.042745 2.357530
v -2.692332 -0.103664 1.178296
v -3.001934 -0.244273 -1.180172
v 3.001934 0.040425 1.178296
v 3.001934 0.040425 -0.000938
v 3.001934 0.040425 -1.180172
v 0.000000 0.040425 2.357530
v 0.000000 0.040425 -2.359406
v 0.000000 0.040425 1.178296
v 0.000000 0.040425 -0.000938
v 0.000000 0.040425 -1.180172
v -1.000645 -0.029593 1.178296
v -2.001289 -0.154175 1.178296
v -1.000645 -0.076732 -0.000938
v -2.001289 -0.205158 -0.000938
v -1.000645 0.016836 -1.180172
v -2.001289 -0.060252 -1.180172
v -2.001289 -0.044139 2.357530
v -1.000645 0.040425 2.357530
v -2.001289 -0.010138 -2.359406
v -1.000645 -0.024959 -2.359406
v -2.001289 -0.111591 -1.180172
v -2.001289 -0.104420 1.178296
v 0.000000 0.010589 2.357530
v 3.001934 0.010589 2.357530
v -3.001934 -0.274110 -1.180172
v -3.001934 -0.104175 -2.359406
v 3.001934 0.010589 -1.180172
v 3.001934 0.010589 -2.359406
v 0.000000 0.010589 -2.359406
v -2.692332 -0.072581 2.357530
v -2.692332 -0.133500 1.178296
v 3.001934 0.010589 1.178296
v 3.001934 0.010589 -0.000938
v -2.001289 -0.184012 1.178296
v -2.001289 -0.090089 -1.180172
v -1.000645 0.010589 2.357530
v -1.000645 -0.054795 -2.359406
v 0.000000 0.010589 1.178296
v 0.000000 0.010589 -0.000938
v 0.000000 0.010589 -1.180172
v -1.000645 -0.059429 1.178296
v -1.000645 -0.106569 -0.000938
v -1.000645 -0.013001 -1.180172
v -2.001289 -0.141427 -1.180172
v -2.001289 -0.073975 2.357530
v -2.001289 -0.039975 -2.359406
v -2.001289 -0.234995 -0.000938
v -2.001289 -0.134256 1.178296
vn -0.1226 0.9882 0.0922
vn 0.0374 0.9967 -0.0722
vn -0.0000 1.0000 -0.0000
vn -0.0701 0.9968 0.0395
vn -0.1008 0.9930 -0.0623
vn -0.0931 0.9955 -0.0199
vn -0.1269 0.9888 0.0785
vn -0.0349 0.9989 -0.0297
vn -0.1036 0.9917 -0.0757
vn -0.0444 0.9989 -0.0177
vn -0.0311 0.9995 0.0035
vn 0.1226 -0.9882 -0.0922
vn -0.0374 -0.9967 0.0722
vn -0.0000 -1.0000 -0.0000
vn 0.0701 -0.9968 -0.0395
vn 0.1008 -0.9930 0.0623
vn 0.0931 -0.9955 0.0199
vn 0.1269 -0.9888 -0.0785
vn 0.0349 -0.9989 0.0297
vn 0.1036 -0.9917 0.0757
vn 0.0444 -0.9989 0.0177
vn 0.0311 -0.9995 -0.0035
vn -0.0000 -0.0000 -1.0000
vn 1.0000 -0.0000 -0.0000
vn -0.0000 -0.0000 1.0000
vn -1.0000 -0.0000 -0.0000
vt 0.250483 0.585395
vt 0.006302 0.585395
vt 0.006302 0.378194
vt 0.250483 0.378194
vt 0.497208 0.524191
vt 0.251047 0.524191
vt 0.251047 0.379938
vt 0.497208 0.379938
vt 0.994513 1.000422
vt 0.748781 1.000422
vt 0.748781 0.374871
vt 0.994513 0.374871
vt 0.748993 0.374780
vt 0.994633 0.374780
vt 0.994633 1.000098
vt 0.748993 1.000098
vt 0.503353 0.374780
vt 0.503353 1.000098
vt 0.503050 1.000422
vt 0.503050 0.374871
vt 0.494664 0.999796
vt 0.250483 0.999796
vt 0.250483 0.792596
vt 0.494664 0.792596
vt 0.251047 0.733071
vt 0.004887 0.733071
vt 0.004887 0.524191
vt 0.251047 0.941952
vt 0.004887 0.941952
vt 0.494664 0.585395
vt 0.497208 0.941952
vt 0.497208 0.733071
vt 0.006302 0.999796
vt 0.006302 0.792596
vt 0.251089 0.582353
vt 0.251089 0.374284
vt 0.496293 0.374284
vt 0.496293 0.582353
vt 0.005987 0.542196
vt 0.005987 0.397863
vt 0.252284 0.397863
vt 0.252284 0.542196
vt 0.505529 1.000798
vt 0.505529 0.373785
vt 0.751835 0.373785
vt 0.751835 1.000798
vt 0.751851 1.000783
vt 0.751851 0.373785
vt 0.998151 0.373785
vt 0.998151 1.000783
vt 0.505551 1.000783
vt 0.505551 0.373785
vt 0.998142 0.373785
vt 0.998142 1.000798
vt 0.005886 0.998490
vt 0.005886 0.790422
vt 0.251089 0.790422
vt 0.251089 0.998490
vt 0.252284 0.751193
vt 0.498582 0.542196
vt 0.498582 0.751193
vt 0.252284 0.960190
vt 0.498582 0.960190
vt 0.005886 0.582353
vt 0.005987 0.960190
vt 0.005987 0.751193
vt 0.496293 0.790422
vt 0.496293 0.998490
vt 0.381118 0.409492
vt 0.381220 0.408727
vt 0.406815 0.412514
vt 0.406713 0.413279
vt 0.386202 0.405060
vt 0.386120 0.405827
vt 0.355806 0.402576
vt 0.355888 0.401809
vt 0.416599 0.407544
vt 0.416517 0.408311
vt 0.386285 0.404293
vt 0.355970 0.401042
vt 0.356130 0.400287
vt 0.382128 0.402389
vt 0.381969 0.403144
vt 0.382018 0.401455
vt 0.381997 0.402226
vt 0.356186 0.399607
vt 0.356207 0.398836
vt 0.355525 0.405195
vt 0.355607 0.404428
vt 0.432777 0.412705
vt 0.432695 0.413472
vt 0.382284 0.399385
vt 0.382400 0.398623
vt 0.399868 0.402594
vt 0.399752 0.403357
vt 0.412426 0.404866
vt 0.412406 0.405637
vt 0.387346 0.398385
vt 0.387155 0.399133
vt 0.356527 0.395848
vt 0.356718 0.395100
vt 0.369733 0.405317
vt 0.369747 0.404234
vt 0.405986 0.411378
vt 0.405972 0.412461
vt 0.442275 0.414641
vt 0.442261 0.415724
vt 0.412457 0.406328
vt 0.412298 0.407083
vt 0.381506 0.405332
vt 0.381456 0.406102
vt 0.355639 0.404432
vt 0.355689 0.403662
vt 0.425014 0.410302
vt 0.424964 0.411072
vt 0.407132 0.409954
vt 0.407182 0.409185
vt 0.432613 0.414239
vt 0.355443 0.405962
vt 0.355250 0.407760
vt 0.355351 0.406995
vt 0.356648 0.395093
vt 0.356691 0.394323
vt 0.387046 0.397578
vt 0.387003 0.398348
vt 0.432679 0.414277
vt 0.432577 0.415041
vt 0.416517 0.408312
vt 0.416435 0.409078
vt 0.356223 0.398688
vt 0.356338 0.397926
s 0
usemtl M_Mesh
f 20/1/1 23/2/1 3/3/1 6/4/1
f 21/5/2 16/6/2 5/7/2 4/8/2
f 8/9/3 9/10/3 14/11/3 13/12/3
f 7/13/3 8/14/3 13/15/3 12/16/3
f 1/17/3 7/13/3 12/16/3 10/18/3
f 9/10/3 2/19/3 11/20/3 14/11/3
f 13/21/4 14/22/4 19/23/4 17/24/4
f 15/25/5 17/26/5 18/27/5 26/6/5
f 12/28/6 13/29/6 17/26/6 15/25/6
f 17/24/7 19/23/7 25/1/7 18/30/7
f 10/31/8 12/28/8 15/25/8 22/32/8
f 22/32/9 15/25/9 16/6/9 21/5/9
f 14/22/10 11/33/10 24/34/10 19/23/10
f 19/23/11 24/34/11 23/2/11 20/1/11
f 39/35/12 29/36/12 30/37/12 50/38/12
f 49/39/13 34/40/13 35/41/13 38/42/13
f 37/43/14 43/44/14 44/45/14 31/46/14
f 36/47/14 42/48/14 43/49/14 37/50/14
f 28/51/14 27/52/14 42/48/14 36/47/14
f 31/46/14 44/45/14 33/53/14 32/54/14
f 43/55/15 46/56/15 47/57/15 44/58/15
f 45/59/16 52/42/16 51/60/16 46/61/16
f 42/62/17 45/59/17 46/61/17 43/63/17
f 46/56/18 51/64/18 48/35/18 47/57/18
f 27/65/19 40/66/19 45/59/19 42/62/19
f 40/66/20 49/39/20 38/42/20 45/59/20
f 44/58/21 47/57/21 41/67/21 33/68/21
f 47/57/22 39/35/22 50/38/22 41/67/22
f 24/69/23 41/70/23 50/71/23 23/72/23
f 7/73/24 36/74/24 37/75/24 8/76/24
f 8/77/24 37/78/24 31/73/24 9/79/24
f 19/80/23 47/81/23 48/82/23 25/83/23
f 26/84/25 52/85/25 45/86/25 15/87/25
f 10/88/25 27/89/25 28/90/25 1/91/25
f 16/92/23 38/93/23 35/94/23 5/95/23
f 18/96/26 51/97/26 52/85/26 26/84/26
f 3/98/26 30/99/26 29/100/26 6/101/26
f 6/102/25 29/103/25 39/104/25 20/105/25
f 20/105/25 39/104/25 47/106/25 19/107/25
f 9/79/24 31/73/24 32/76/24 2/80/24
f 25/83/26 48/82/26 51/108/26 18/109/26
f 22/110/25 40/111/25 27/112/25 10/113/25
f 4/114/25 34/115/25 49/116/25 21/117/25
f 2/91/23 32/118/23 33/119/23 11/88/23
f 11/120/23 33/121/23 41/70/23 24/69/23
f 21/117/25 49/116/25 40/111/25 22/110/25
f 5/122/26 35/123/26 34/124/26 4/125/26
f 23/72/23 50/71/23 30/126/23 3/127/23
f 1/128/24 28/129/24 36/74/24 7/73/24
f 15/130/23 45/131/23 38/93/23 16/92/23
