# Blender 5.2.0 LTS
# www.blender.org
mtllib FloorMeshCentre.02.mtl
o FloorMeshCentre.02
v 2.500911 0.040425 2.357530
v 2.500911 0.040425 -2.359406
v -2.500911 0.040425 -2.359406
v -2.500911 0.040425 2.357530
v -2.500911 0.010589 2.357530
v 2.500911 0.010589 2.357530
v -2.500911 0.010589 -2.359406
v 2.500911 0.010589 -2.359406
v 0.000000 0.010589 -2.359406
v 0.000000 0.010589 2.357530
v 0.000000 0.040425 -2.359406
v 0.000000 0.040425 2.357530
v -2.500911 0.040425 -0.000938
v 2.500911 0.040425 -0.000938
v -2.500911 0.010589 -0.000938
v 2.500911 0.010589 -0.000938
v 0.000000 0.040425 -0.000938
v 0.000000 0.010589 -0.000938
vn -0.0000 -0.0000 1.0000
vn -0.0000 1.0000 -0.0000
vn -0.0000 -0.0000 -1.0000
vn -0.0000 -1.0000 -0.0000
vn -1.0000 -0.0000 -0.0000
vn 1.0000 -0.0000 -0.0000
vt 0.993734 0.052610
vt 0.996867 0.052610
vt 0.996867 0.315217
vt 0.993734 0.315217
vt 0.992137 0.999871
vt 0.501623 0.999871
vt 0.501623 0.479731
vt 0.992137 0.479731
vt 0.993734 0.315217
vt 0.990601 0.315217
vt 0.990601 0.052610
vt 0.993734 0.052610
vt 0.504724 0.999871
vt 0.504724 0.479731
vt 0.995238 0.479731
vt 0.995238 0.999871
vt 1.000000 0.247650
vt 0.996867 0.247650
vt 1.000000 0.000000
vt 0.996867 0.577825
vt 0.993734 0.577825
vt 0.996867 0.495300
vt 1.000000 0.495300
vt 1.000000 0.742951
vt 0.996867 0.742951
vt 0.992137 0.895668
vt 0.501623 0.895668
vt 0.501623 0.375528
vt 0.992137 0.375528
vt 0.993734 0.577825
vt 0.990601 0.577825
vt 0.504724 0.895668
vt 0.504724 0.375529
vt 0.995238 0.375529
vt 0.995238 0.895668
vt 1.000000 0.990601
vt 0.996867 0.990601
vt 0.504724 0.375529
vt 0.995238 0.375529
vt 0.503747 0.479731
vt 0.994261 0.479731
vt 0.994261 0.999871
vt 0.503747 0.999871
vt 0.995238 0.479731
vt 0.503747 0.375528
vt 0.994262 0.375528
vt 0.994261 0.895668
vt 0.503747 0.895668
s 0
usemtl M_Mesh
f 4/1/1 5/2/1 10/3/1 12/4/1
f 17/5/2 11/6/2 3/7/2 13/8/2
f 11/9/3 9/10/3 7/11/3 3/12/3
f 18/13/4 15/14/4 7/15/4 9/16/4
f 13/17/5 15/18/5 5/2/5 4/19/5
f 12/4/1 10/3/1 6/20/1 1/21/1
f 1/22/6 6/23/6 16/24/6 14/25/6
f 14/26/2 2/27/2 11/28/2 17/29/2
f 2/30/3 8/31/3 9/10/3 11/9/3
f 16/32/4 18/33/4 9/34/4 8/35/4
f 14/25/6 16/24/6 8/36/6 2/37/6
f 6/32/4 10/38/4 18/39/4 16/35/4
f 1/40/2 14/41/2 17/42/2 12/43/2
f 3/23/5 7/22/5 15/18/5 13/17/5
f 10/13/4 5/14/4 15/44/4 18/16/4
f 12/45/2 17/46/2 13/47/2 4/48/2
