# Blender 5.2.0 LTS
# www.blender.org
mtllib FloorMeshCentreBroken.02.mtl
o FloorMeshCentreBroken.02
v -2.001289 0.040425 2.357530
v -1.000645 0.034085 2.357530
v 0.000000 -0.047271 2.357530
v 2.001289 0.040425 2.357530
v -2.001289 0.040425 -2.359406
v -1.000645 0.022351 -2.359406
v 0.000000 -0.034946 -2.359406
v 1.000645 0.017177 -2.359406
v 2.001289 0.040425 -2.359406
v 2.001289 -0.059274 1.178296
v 0.000000 -0.411443 1.399508
v -1.000645 -0.245296 1.178296
v -2.001289 -0.015075 1.178296
v 2.001289 -0.096911 -0.000938
v -1.000645 -0.420771 -1.180172
v -1.176734 -0.499003 -0.000938
v -2.001289 -0.069057 -0.000938
v 2.001289 -0.030472 -1.180172
v 1.000645 -0.331022 -1.180172
v 0.000000 -0.460197 -1.180172
v -1.000645 -0.241147 -1.180172
v -2.001289 -0.083436 -1.180172
v -1.000645 -0.410547 1.178296
v 1.162235 -0.504843 -1.180172
v 1.000645 -0.253194 1.178296
v 1.000645 -0.504843 -0.000938
v 0.000000 -0.504199 1.607421
v 1.000645 0.034930 2.357530
v 1.000645 -0.346127 1.178296
v 2.001289 0.010589 2.357530
v 2.001289 0.010589 -2.359406
v -2.001289 -0.044911 1.178296
v -2.001289 -0.098893 -0.000938
v -2.001289 -0.113272 -1.180172
v -2.001289 0.010589 2.357530
v -1.000645 0.004248 2.357530
v 1.000645 0.005094 2.357530
v -2.001289 0.010589 -2.359406
v -1.000645 -0.007486 -2.359406
v 0.000000 -0.064782 -2.359406
v 1.000645 -0.012659 -2.359406
v 2.001289 -0.089110 1.178296
v 1.000645 -0.375964 1.178296
v 0.000000 -0.441280 1.399508
v -1.000645 -0.275132 1.178296
v 2.001289 -0.126747 -0.000938
v 2.001289 -0.060309 -1.180172
v 1.000645 -0.360858 -1.180172
v 0.000000 -0.490034 -1.180172
v -1.000645 -0.270983 -1.180172
v -1.176734 -0.528840 -0.000938
v -1.000645 -0.450608 -1.180172
v 0.000000 -0.077107 2.357530
v 1.162235 -0.534680 -1.180172
v 1.000645 -0.534680 -0.000938
v -1.000645 -0.440383 1.178296
v 1.000645 -0.283030 1.178296
v 0.000000 -0.534035 1.607421
v -2.501612 0.040425 1.178296
v -2.501612 0.040425 -0.000938
v -2.501612 0.040425 -1.180172
v -2.501612 0.040425 2.357530
v -2.501612 0.040425 -2.359406
v -2.501612 0.010589 1.178296
v -2.501612 0.010589 -0.000938
v -2.501612 0.010589 -1.180172
v -2.501612 0.010589 2.357530
v -2.501612 0.010589 -2.359406
v 2.501612 0.040425 2.357530
v 2.501612 0.040425 -2.359406
v 2.501612 0.040425 1.178296
v 2.501612 0.040425 -0.000938
v 2.501612 0.040425 -1.180172
v 2.501612 0.010589 2.357530
v 2.501612 0.010589 -2.359406
v 2.501612 0.010589 1.178296
v 2.501612 0.010589 -0.000938
v 2.501612 0.010589 -1.180172
vn -0.2037 0.9787 0.0276
vn -0.2305 0.9730 -0.0155
vn 0.3870 0.9205 0.0538
vn -0.0991 0.9942 -0.0420
vn -0.1054 0.9390 -0.3274
vn 0.1162 0.9834 -0.1396
vn -0.0706 0.9971 0.0300
vn -0.1573 0.9723 0.1728
vn -0.0858 0.9467 0.3105
vn 0.1314 0.9516 0.2779
vn 0.0864 0.9831 0.1615
vn 0.4105 0.9078 -0.0855
vn -0.4324 0.9017 -0.0042
vn -0.2860 0.9511 -0.1167
vn 0.2290 0.9094 -0.3471
vn -0.1417 0.9700 -0.1977
vn 0.2037 -0.9787 -0.0276
vn 0.2305 -0.9730 0.0155
vn -0.3870 -0.9205 -0.0538
vn 0.0991 -0.9942 0.0420
vn 0.1054 -0.9390 0.3274
vn -0.1162 -0.9834 0.1396
vn 0.0706 -0.9971 -0.0300
vn 0.1573 -0.9723 -0.1728
vn 0.0858 -0.9467 -0.3105
vn -0.1314 -0.9516 -0.2779
vn -0.0864 -0.9831 -0.1615
vn -0.4105 -0.9078 0.0855
vn 0.4324 -0.9017 0.0042
vn 0.2860 -0.9511 0.1167
vn -0.2290 -0.9094 0.3471
vn 0.1417 -0.9700 0.1977
vn -0.0000 -0.0000 -1.0000
vn 1.0000 -0.0000 -0.0000
vn 0.9890 -0.0000 0.1477
vn -0.2159 -0.0000 -0.9764
vn -1.0000 -0.0000 -0.0000
vn -0.0000 -0.0000 1.0000
vn 0.3941 -0.0000 -0.9191
vn 0.9890 -0.0000 -0.1477
vn -0.9907 -0.0000 -0.1358
vn -0.2271 -0.9739 0.0059
vn -0.1626 -0.9864 0.0226
vn -0.0554 -0.9982 0.0235
vn -0.1227 -0.9911 -0.0520
vn 0.2271 0.9739 -0.0059
vn 0.1626 0.9864 -0.0226
vn 0.0554 0.9982 -0.0235
vn 0.1227 0.9911 0.0520
vt 0.536559 0.851111
vt 0.780849 0.851111
vt 0.780849 0.955793
vt 0.536187 0.958591
vt 0.782276 0.837130
vt 0.534183 0.836942
vt 0.534114 0.727790
vt 0.782352 0.729789
vt 0.546869 0.604371
vt 0.282843 0.604371
vt 0.282843 0.419756
vt 0.546869 0.380331
vt 0.792522 0.895337
vt 0.545000 0.895337
vt 0.545000 0.790319
vt 0.792522 0.790319
vt 0.417766 0.590592
vt 0.169701 0.590592
vt 0.207816 0.388606
vt 0.412967 0.389676
vt 0.568294 0.583563
vt 0.812741 0.583563
vt 0.812741 0.790990
vt 0.568294 0.790990
vt 0.811715 0.895163
vt 0.567057 0.895163
vt 0.567057 0.791361
vt 0.811715 0.791361
vt 0.567057 0.583755
vt 0.811715 0.583755
vt 0.567057 0.376150
vt 0.811715 0.376150
vt 0.567087 0.376151
vt 0.811195 0.376151
vt 0.811195 0.583291
vt 0.567087 0.583291
vt 0.811195 0.790430
vt 0.567087 0.790430
vt 0.018818 0.604371
vt 0.018818 0.380331
vt 0.433507 0.612072
vt 0.189643 0.612072
vt 0.189643 0.438556
vt 0.433507 0.405139
vt 0.502358 0.594756
vt 0.258323 0.594756
vt 0.258323 0.387678
vt 0.502358 0.387678
vt 0.531339 0.590343
vt 0.287816 0.590343
vt 0.287816 0.383701
vt 0.442721 0.383701
vt 0.545000 0.580284
vt 0.792522 0.580284
vt 0.806595 0.870958
vt 0.806966 0.978322
vt 0.562567 0.975528
vt 0.562567 0.870958
vt 0.812932 0.872256
vt 0.812932 0.977005
vt 0.566044 0.977005
vt 0.566044 0.872256
vt 0.160188 0.576575
vt 0.160188 0.374764
vt 0.398017 0.410278
vt 0.398017 0.576575
vt 0.566130 0.893556
vt 0.566130 0.788985
vt 0.812598 0.788985
vt 0.812598 0.893556
vt 0.065345 0.599929
vt 0.065345 0.390021
vt 0.266312 0.390021
vt 0.312717 0.599929
vt 0.806149 0.571237
vt 0.806149 0.774265
vt 0.566886 0.774265
vt 0.566886 0.571237
vt 0.786704 0.470509
vt 0.786704 0.574138
vt 0.542454 0.574138
vt 0.542454 0.470509
vt 0.786704 0.781397
vt 0.542454 0.781397
vt 0.786704 0.988657
vt 0.542454 0.988657
vt 0.786138 0.380570
vt 0.786138 0.586611
vt 0.543324 0.586611
vt 0.543324 0.380570
vt 0.786138 0.792652
vt 0.543324 0.792652
vt 0.237282 0.576512
vt 0.237282 0.409904
vt 0.475555 0.374324
vt 0.475555 0.576512
vt 0.498845 0.605952
vt 0.498895 0.376291
vt 0.749847 0.408146
vt 0.749768 0.612998
vt 0.248192 0.612998
vt 0.243420 0.396426
vt 0.254717 0.586816
vt 0.341842 0.383657
vt 0.494134 0.383657
vt 0.494134 0.586816
vt 0.566130 0.579844
vt 0.812598 0.579844
vt 0.361137 0.414577
vt 0.361141 0.414054
vt 0.375925 0.405828
vt 0.375922 0.406352
vt 0.372929 0.397411
vt 0.372929 0.396887
vt 0.393629 0.396887
vt 0.393629 0.397411
vt 0.396406 0.405304
vt 0.396398 0.405828
vt 0.375493 0.404129
vt 0.375501 0.403605
vt 0.417481 0.430176
vt 0.417483 0.430699
vt 0.399499 0.431918
vt 0.399497 0.431394
vt 0.396814 0.406495
vt 0.396818 0.405971
vt 0.417487 0.410530
vt 0.417483 0.411053
vt 0.414328 0.396887
vt 0.414328 0.397411
vt 0.402784 0.435760
vt 0.402790 0.436284
vt 0.385181 0.432442
vt 0.385175 0.431918
vt 0.435027 0.414054
vt 0.435024 0.414577
vt 0.382657 0.425593
vt 0.382655 0.425070
vt 0.435022 0.431918
vt 0.435027 0.432442
vt 0.421952 0.440611
vt 0.421946 0.440088
vt 0.382389 0.419620
vt 0.382396 0.420144
vt 0.364763 0.415101
vt 0.364756 0.414577
vt 0.391074 0.424290
vt 0.399853 0.424033
vt 0.399868 0.424557
vt 0.391090 0.424813
vt 0.399982 0.421655
vt 0.399989 0.422179
vt 0.417413 0.423632
vt 0.435012 0.424546
vt 0.435027 0.425070
vt 0.417429 0.424155
vt 0.352230 0.396887
vt 0.352230 0.396363
vt 0.372929 0.396363
vt 0.417494 0.417578
vt 0.417501 0.418102
vt 0.435012 0.422702
vt 0.417413 0.423632
vt 0.417428 0.423108
vt 0.435027 0.422179
vt 0.399853 0.423215
vt 0.399868 0.422692
vt 0.435027 0.396887
vt 0.435027 0.397411
vt 0.435021 0.414577
vt 0.435027 0.415101
vt 0.435025 0.425070
vt 0.435027 0.425593
vt 0.426245 0.396363
vt 0.417463 0.396363
vt 0.417463 0.395839
vt 0.426245 0.395839
vt 0.364769 0.396046
vt 0.347204 0.396363
vt 0.347204 0.395839
vt 0.364769 0.395522
vt 0.414328 0.396363
vt 0.435027 0.396363
vt 0.417357 0.404078
vt 0.417349 0.404602
vt 0.382334 0.395040
vt 0.382334 0.394516
vt 0.393629 0.396363
vt 0.399898 0.395955
vt 0.399898 0.395431
vt 0.435027 0.397411
vt 0.435019 0.397934
vt 0.352230 0.397411
vt 0.358023 0.397934
vt 0.358031 0.397411
vt 0.338422 0.396363
vt 0.338422 0.395839
vt 0.772403 0.774706
vt 0.772403 0.875927
vt 0.533831 0.875927
vt 0.533831 0.774706
vt 0.787518 0.774563
vt 0.787518 0.875682
vt 0.549186 0.875682
vt 0.549186 0.774563
vt 0.806149 0.875778
vt 0.566886 0.875778
vt 0.786138 0.895673
vt 0.543324 0.895673
vt 0.567152 0.787855
vt 0.811852 0.787177
vt 0.811834 0.894124
vt 0.567152 0.894124
vt 0.566840 0.790688
vt 0.811334 0.788872
vt 0.811085 0.894951
vt 0.566840 0.894951
vt 0.812741 0.894704
vt 0.568294 0.894704
vt 0.811195 0.894000
vt 0.567087 0.894000
vt 0.391074 0.422959
vt 0.391090 0.422435
s 0
usemtl M_Mesh
f 72/1/1 73/2/1 18/3/1 14/4/1
f 71/5/2 72/6/2 14/7/2 10/8/2
f 22/9/3 17/10/3 16/11/3 15/12/3
f 69/13/4 71/14/4 10/15/4 4/16/4
f 28/17/5 29/18/5 11/19/5 3/20/5
f 2/21/6 12/22/6 13/23/6 1/24/6
f 73/25/7 70/26/7 9/27/7 18/28/7
f 18/28/8 9/27/8 8/29/8 19/30/8
f 19/30/9 8/29/9 7/31/9 20/32/9
f 20/33/10 7/34/10 6/35/10 21/36/10
f 21/36/11 6/35/11 5/37/11 22/38/11
f 17/10/12 13/39/12 23/40/12 16/11/12
f 14/41/13 18/42/13 24/43/13 26/44/13
f 10/45/14 14/46/14 26/47/14 25/48/14
f 12/49/15 2/50/15 3/51/15 27/52/15
f 4/16/16 10/15/16 29/53/16 28/54/16
f 77/55/17 46/56/17 47/57/17 78/58/17
f 76/59/18 42/60/18 46/61/18 77/62/18
f 34/63/19 52/64/19 51/65/19 33/66/19
f 74/67/20 30/68/20 42/69/20 76/70/20
f 37/71/21 53/72/21 44/73/21 43/74/21
f 36/75/22 35/76/22 32/77/22 45/78/22
f 78/79/23 47/80/23 31/81/23 75/82/23
f 47/80/24 48/83/24 41/84/24 31/81/24
f 48/83/25 49/85/25 40/86/25 41/84/25
f 49/87/26 50/88/26 39/89/26 40/90/26
f 50/88/27 34/91/27 38/92/27 39/89/27
f 33/93/28 51/94/28 56/95/28 32/96/28
f 46/97/29 55/98/29 54/99/29 47/100/29
f 42/101/30 57/102/30 55/98/30 46/97/30
f 45/103/31 58/104/31 53/105/31 36/106/31
f 30/68/32 37/107/32 43/108/32 42/69/32
f 18/109/33 47/110/33 54/111/33 24/112/33
f 71/113/34 76/114/34 77/115/34 72/116/34
f 16/117/35 51/118/35 52/119/35 15/120/35
f 29/121/36 43/122/36 44/123/36 11/124/36
f 26/125/37 55/126/37 57/127/37 25/128/37
f 72/116/34 77/115/34 78/129/34 73/130/34
f 12/131/33 45/132/33 32/133/33 13/134/33
f 25/128/38 57/127/38 42/135/38 10/136/38
f 11/124/37 44/123/37 53/137/37 3/138/37
f 3/139/34 53/140/34 58/141/34 27/142/34
f 19/143/38 48/144/38 47/145/38 18/146/38
f 27/142/39 58/141/39 45/132/39 12/131/39
f 62/147/33 1/148/33 35/149/33 67/150/33
f 20/151/38 49/152/38 48/144/38 19/143/38
f 2/153/33 3/154/33 53/155/33 36/156/33
f 1/148/33 2/153/33 36/156/33 35/149/33
f 63/157/37 68/158/37 66/159/37 61/114/37
f 21/160/38 50/161/38 49/152/38 20/151/38
f 3/162/33 28/163/33 37/164/33 53/165/33
f 28/163/33 4/166/33 30/167/33 37/164/33
f 73/130/34 78/129/34 75/168/34 70/169/34
f 22/170/38 34/171/38 50/161/38 21/160/38
f 10/172/33 42/173/33 43/122/33 29/121/33
f 70/174/38 9/175/38 31/176/38 75/177/38
f 6/178/38 5/179/38 38/180/38 39/181/38
f 59/129/37 64/182/37 67/183/37 62/168/37
f 23/184/40 56/185/40 51/118/40 16/117/40
f 7/186/38 6/178/38 39/181/38 40/187/38
f 60/115/37 65/188/37 64/182/37 59/129/37
f 8/189/38 7/186/38 40/187/38 41/190/38
f 24/112/41 54/111/41 55/126/41 26/125/41
f 61/114/37 66/159/37 65/188/37 60/115/37
f 9/175/38 8/189/38 41/190/38 31/176/38
f 13/191/38 32/192/38 56/185/38 23/184/38
f 69/193/34 74/157/34 76/114/34 71/113/34
f 15/120/33 52/119/33 34/194/33 22/195/33
f 5/179/38 63/196/38 68/197/38 38/180/38
f 33/198/42 65/199/42 66/200/42 34/201/42
f 32/202/43 64/203/43 65/204/43 33/205/43
f 35/76/44 67/206/44 64/207/44 32/77/44
f 34/91/45 66/208/45 68/209/45 38/92/45
f 17/210/46 22/211/46 61/212/46 60/213/46
f 13/214/47 17/215/47 60/216/47 59/217/47
f 1/24/48 13/23/48 59/218/48 62/219/48
f 22/38/49 5/37/49 63/220/49 61/221/49
f 4/166/33 69/222/33 74/223/33 30/167/33
