# Blender 5.2.0 LTS
# www.blender.org
mtllib FloorMeshCentre.01.mtl
o FloorMeshCentre.01
v 2.500911 -0.100005 -2.359406
v 2.500911 -0.100005 2.357530
v 2.500911 0.100005 2.357530
v 2.500911 0.100005 -2.359406
v -2.500911 0.100005 2.357530
v -2.500911 -0.100005 2.357530
v -2.500911 -0.100005 -2.359406
v -2.500911 0.100005 -2.359406
v 2.500911 0.100005 -2.500938
v -2.500911 0.100005 -2.500938
v 2.500911 -0.100005 -2.500938
v -2.500911 -0.100005 -2.500938
v 2.500911 -0.100005 2.499062
v -2.500911 -0.100005 2.499062
v -2.500911 0.100005 2.499062
v 2.500911 0.100005 2.499062
vn -0.0000 -0.0000 1.0000
vn -0.0000 -0.0000 -1.0000
vn -0.0000 1.0000 -0.0000
vn -0.0000 -1.0000 -0.0000
vn -1.0000 -0.0000 -0.0000
vn 1.0000 -0.0000 -0.0000
vt 0.083263 0.154506
vt 0.916362 0.154506
vt 0.916362 0.187819
vt 0.083263 0.187819
vt 0.083263 0.187819
vt 0.916362 0.187819
vt 0.916362 0.221133
vt 0.083263 0.221133
vt 0.916362 0.291854
vt 0.083262 0.291854
vt 0.083262 0.268280
vt 0.916362 0.268280
vt 0.916362 0.244707
vt 0.083262 0.244706
vt 0.083262 0.221133
vt 0.916362 0.221133
vt 0.916362 0.315427
vt 0.083262 0.315427
vt 0.083262 0.291854
vt 0.916362 0.291854
vt 0.916362 0.268280
vt 0.083262 0.268280
vt 0.083262 0.244707
vt 0.916362 0.244707
vt 0.966499 0.339001
vt 0.933185 0.339001
vt 0.933185 0.315428
vt 0.966499 0.315428
vt 0.916362 0.121192
vt 0.916362 0.154506
vt 0.083262 0.154506
vt 0.083262 0.121192
vt 0.933185 0.315427
vt 0.933185 0.339000
vt 0.899872 0.339000
vt 0.899872 0.315427
vt 0.916362 0.121192
vt 0.083262 0.121192
vt 0.083262 0.087879
vt 0.916362 0.087879
vt 0.866558 0.339001
vt 0.866558 0.315428
vt 0.899872 0.315428
vt 0.899872 0.339001
vt 0.999812 0.339001
vt 0.966499 0.315428
vt 0.999812 0.315428
s 0
usemtl M_Mesh
f 16/1/1 15/2/1 14/3/1 13/4/1
f 11/5/2 12/6/2 10/7/2 9/8/2
f 8/9/3 4/10/3 9/11/3 10/12/3
f 1/13/4 7/14/4 12/15/4 11/16/4
f 6/17/4 2/18/4 13/19/4 14/20/4
f 3/21/3 5/22/3 15/23/3 16/24/3
f 14/25/5 15/26/5 5/27/5 6/28/5
f 8/29/1 7/30/1 1/31/1 4/32/1
f 12/33/5 7/34/5 8/35/5 10/36/5
f 2/37/2 6/38/2 5/39/2 3/40/2
f 9/41/6 4/42/6 1/43/6 11/44/6
f 16/45/6 13/25/6 2/46/6 3/47/6
