# Blender 5.2.0 LTS
# www.blender.org
mtllib FloorMeshEdge.02.mtl
o FloorMeshEdge.02
v 3.001934 0.040425 2.357530
v 3.001934 0.040425 -2.359406
v -2.860401 0.040425 -2.359406
v -2.860401 0.040425 2.357530
v -2.860401 0.010589 2.357530
v 3.001934 0.010589 2.357530
v -2.860401 0.010589 -2.359406
v 3.001934 0.010589 -2.359406
v 0.070766 0.040425 2.357530
v 0.070766 0.040425 -2.359406
v 0.070766 0.010589 2.357530
v 0.070766 0.010589 -2.359406
v -2.860401 0.040425 -0.000938
v 3.001934 0.040425 -0.000938
v -2.860401 0.010589 -0.000938
v 3.001934 0.010589 -0.000938
v 0.070766 0.010589 -0.000938
v 0.070766 0.040425 -0.000938
vn -0.0000 1.0000 -0.0000
vn -0.0000 -1.0000 -0.0000
vn -0.0000 -0.0000 -1.0000
vn -1.0000 -0.0000 -0.0000
vn 1.0000 -0.0000 -0.0000
vn -0.0000 -0.0000 1.0000
vt 0.501017 0.376664
vt 1.001047 0.376664
vt 1.001047 0.998114
vt 0.501017 0.998114
vt 1.001047 0.376664
vt 0.501017 0.998114
vt 0.501017 0.376664
vt 0.244175 0.385024
vt 0.244175 0.382870
vt 0.455786 0.382870
vt 0.455786 0.385024
vt 0.285520 0.400102
vt 0.285520 0.397948
vt 0.455786 0.397948
vt 0.455786 0.400102
vt 0.455786 0.393640
vt 0.455786 0.395794
vt 0.285520 0.395794
vt 0.285520 0.393640
vt 0.455786 0.387178
vt 0.455786 0.389332
vt 0.244175 0.389332
vt 0.244175 0.387178
vt 0.455786 0.391486
vt 0.244175 0.391486
vt 0.244175 0.389332
vt 0.285520 0.391486
s 0
usemtl M_Mesh
f 18/1/1 10/2/1 3/3/1 13/4/1
f 17/5/2 15/3/2 7/6/2 12/7/2
f 10/8/3 12/9/3 7/10/3 3/11/3
f 13/12/4 15/13/4 5/14/4 4/15/4
f 14/16/5 16/17/5 8/18/5 2/19/5
f 9/20/6 11/21/6 6/22/6 1/23/6
f 4/21/6 5/24/6 11/25/6 9/26/6
f 2/23/3 8/8/3 12/11/3 10/20/3
f 16/5/2 17/3/2 12/4/2 8/7/2
f 14/7/1 2/5/1 10/3/1 18/6/1
f 1/7/1 14/5/1 18/3/1 9/4/1
f 6/5/2 11/3/2 17/4/2 16/7/2
f 1/17/5 6/14/5 16/13/5 14/18/5
f 3/19/4 7/27/4 15/24/4 13/16/4
f 11/5/2 5/3/2 15/6/2 17/7/2
f 9/1/1 18/2/1 13/3/1 4/4/1
