# Blender 5.2.0 LTS
# www.blender.org
mtllib DoorwaySingleMidPrison.mtl
o DoorwaySingleMidPrison
v 0.099886 4.101650 -2.500488
v -0.099871 2.327184 -2.500488
v -0.099871 2.327184 2.500209
v -0.099871 4.101650 -2.500488
v -0.099871 4.101650 2.500209
v 0.099886 2.327184 -2.500488
v 0.099886 2.327184 2.500209
v 0.099886 2.327184 -0.601364
v 0.099886 2.327184 0.600587
v 0.099886 4.101650 2.500209
v -0.099871 2.327184 -0.601364
v -0.099871 2.327184 0.600587
v 0.099886 4.101650 0.600587
v -0.099871 4.101650 0.600587
v 0.099886 4.101650 -0.601364
v -0.099871 4.101650 -0.601364
v 0.099886 -0.100005 -0.601364
v -0.099871 -0.100005 -0.601364
v 0.099886 -0.100005 2.500209
v -0.099871 -0.100005 2.500209
v 0.099886 -0.100005 -2.500488
v 0.099886 -0.100005 0.600587
v -0.099871 -0.100005 0.600587
v -0.099871 -0.100005 -2.500488
vn -1.0000 -0.0000 -0.0000
vn -0.0000 -0.0000 -1.0000
vn 1.0000 -0.0000 -0.0000
vn -0.0000 -0.0000 1.0000
vn -0.0000 -1.0000 -0.0000
vn -0.0000 1.0000 -0.0000
vt 0.379772 0.631144
vt 0.620129 0.631144
vt 0.620129 0.999079
vt 0.379772 0.999079
vt 0.620129 0.127866
vt 1.000000 0.127866
vt 1.000000 0.631143
vt 0.166199 0.996557
vt 0.132902 0.996557
vt 0.132902 0.629986
vt 0.166199 0.629986
vt 0.620228 0.631144
vt 0.620228 0.127866
vt 1.000000 0.127866
vt 0.000000 0.999079
vt 0.000000 0.631144
vt 0.000000 0.631144
vt 0.000000 0.127866
vt 0.379871 0.127866
vt 0.379871 0.631144
vt 0.515612 0.996797
vt 0.482299 0.996797
vt 0.482299 0.630052
vt 0.515612 0.630052
vt 0.132902 0.128574
vt 0.166199 0.128574
vt 0.072454 0.634048
vt 0.342063 0.634049
vt 0.342063 0.656238
vt 0.072454 0.656237
vt -0.000000 0.127866
vt 0.379772 0.127866
vt 0.600709 0.582700
vt 0.600229 0.616015
vt 0.399889 0.616015
vt 0.400129 0.582700
vt 0.399700 0.797453
vt 0.082591 0.797453
vt 0.082591 0.764119
vt 0.399700 0.764119
vt 0.482299 0.128404
vt 0.515612 0.128404
vt 0.600389 0.797453
vt 0.600389 0.764119
vt 0.917055 0.797453
vt 0.917055 0.764119
vt 1.000000 0.999079
vt 0.620228 0.999079
vt 0.379872 0.999079
vt 0.000000 0.999079
vt 0.778328 0.634050
vt 0.989281 0.634050
vt 0.989281 0.656239
vt 0.778328 0.656239
vt 0.552991 0.634050
vt 0.552991 0.656238
vt 0.467198 0.123337
vt 0.467198 0.528274
vt 0.433872 0.528274
vt 0.433872 0.123337
s 0
usemtl M_WallPrison
f 11/1/1 12/2/1 14/3/1 16/4/1
f 12/2/1 23/5/1 20/6/1 3/7/1
f 4/8/2 1/9/2 6/10/2 2/11/2
f 8/12/3 17/13/3 21/14/3 6/7/3
f 16/4/1 4/15/1 2/16/1 11/1/1
f 7/17/3 19/18/3 22/19/3 9/20/3
f 10/21/4 5/22/4 3/23/4 7/24/4
f 6/10/2 21/25/2 24/26/2 2/11/2
f 9/27/2 22/28/2 23/29/2 12/30/2
f 2/16/1 24/31/1 18/32/1 11/1/1
f 11/33/5 8/34/5 9/35/5 12/36/5
f 14/37/6 5/38/6 10/39/6 13/40/6
f 3/23/4 20/41/4 19/42/4 7/24/4
f 16/43/6 14/37/6 13/40/6 15/44/6
f 4/45/6 16/43/6 15/44/6 1/46/6
f 5/47/1 14/3/1 12/2/1 3/7/1
f 1/47/3 15/48/3 8/12/3 6/7/3
f 8/12/3 15/48/3 13/49/3 9/20/3
f 9/20/3 13/49/3 10/50/3 7/17/3
f 18/51/5 24/52/5 21/53/5 17/54/5
f 19/55/5 20/56/5 23/29/5 22/28/5
f 11/57/4 18/58/4 17/59/4 8/60/4
