# Blender 5.2.0 LTS
# www.blender.org
mtllib DoorwaySingleBasePrison.mtl
o DoorwaySingleBasePrison
v 0.099886 4.101650 -2.500488
v -0.099871 2.327184 -2.500488
v -0.099871 2.327184 2.500209
v -0.099871 4.101650 -2.500488
v -0.099871 4.101650 2.500209
v 0.099886 2.327184 -2.500488
v 0.099886 2.327184 2.500209
v 0.099886 2.327184 -0.601004
v 0.099886 2.327184 0.600767
v 0.099886 4.101650 2.500209
v -0.099871 2.327184 -0.601004
v -0.099871 2.327184 0.600767
v 0.099886 4.101650 0.600767
v -0.099871 4.101650 0.600767
v 0.099886 4.101650 -0.601004
v -0.099871 4.101650 -0.601004
v 0.099886 -0.100005 -0.601004
v -0.099871 -0.100005 -0.601004
v 0.099886 -0.100005 2.500209
v -0.099871 -0.100005 2.500209
v 0.099886 -0.100005 -2.500488
v 0.099886 -0.100005 0.600767
v -0.099871 -0.100005 0.600767
v -0.099871 -0.100005 -2.500488
v 0.099886 0.841051 -2.500488
v -0.099871 0.841051 -2.500488
v 0.099886 0.841051 -0.601004
v -0.099871 0.841051 -0.601004
v 0.099886 0.841051 0.600767
v -0.099871 0.841051 0.600767
v -0.099871 0.841051 2.500209
v 0.099886 0.841051 2.500209
v 0.099886 0.100005 -2.500488
v 0.099886 0.100005 -0.601004
v -0.099871 0.100005 -0.601004
v -0.099871 0.100005 -2.500488
v 0.099886 0.100005 0.600767
v -0.099871 0.100005 2.500209
v -0.099871 0.100005 0.600767
v 0.099886 0.100005 2.500209
vn -1.0000 -0.0000 -0.0000
vn -0.0000 -0.0000 -1.0000
vn 1.0000 -0.0000 -0.0000
vn -0.0000 -0.0000 1.0000
vn -0.0000 -1.0000 -0.0000
vn -0.0000 1.0000 -0.0000
vt 0.379844 0.644944
vt 0.620165 0.644944
vt 0.620165 0.999788
vt 0.379844 0.999788
vt 0.614472 0.000432
vt 0.614412 0.033768
vt 0.297921 0.033768
vt 0.297921 0.000432
vt 0.145357 0.998672
vt 0.105493 0.998672
vt 0.105493 0.644550
vt 0.145357 0.644550
vt 0.707378 0.000429
vt 0.707378 0.033759
vt 0.390662 0.033759
vt 0.390662 0.000429
vt 0.000000 0.999788
vt 0.000000 0.644944
vt 0.027155 0.033396
vt 0.027155 0.000078
vt 0.343475 0.000078
vt 0.343475 0.033396
vt 0.281038 0.998571
vt 0.241191 0.998571
vt 0.241191 0.644602
vt 0.281038 0.644602
vt 0.622884 0.033604
vt 0.622884 0.000568
vt 0.655878 0.000568
vt 0.655878 0.033604
vt 0.439589 0.033737
vt 0.439589 0.000467
vt 0.472817 0.000467
vt 0.472817 0.033737
vt 0.109017 0.033385
vt 0.109017 0.000080
vt 0.425489 0.000080
vt 0.425369 0.033385
vt 0.600357 0.612133
vt 0.599877 0.645408
vt 0.399780 0.645408
vt 0.400019 0.612133
vt 0.399697 0.972377
vt 0.082577 0.972377
vt 0.082577 0.939043
vt 0.399697 0.939043
vt 0.439543 0.033752
vt 0.439543 0.000420
vt 0.472833 0.000420
vt 0.472833 0.033752
vt 0.600393 0.972377
vt 0.600393 0.939043
vt 0.917069 0.972377
vt 0.917069 0.939043
vt 1.000000 0.999788
vt 1.000000 0.644944
vt 0.620156 0.999788
vt 0.620156 0.644944
vt 1.000000 0.644944
vt 0.379835 0.999788
vt 0.379835 0.644944
vt 0.000000 0.644944
vt 0.219679 0.083627
vt 0.423887 0.083627
vt 0.423887 0.105091
vt 0.219679 0.105091
vt 0.027169 0.033378
vt 0.027169 0.000106
vt 0.343454 0.000106
vt 0.343454 0.033378
vt 0.486089 0.033584
vt 0.486090 0.000588
vt 0.519044 0.000588
vt 0.519044 0.033584
vt 0.400529 0.703780
vt 0.400531 0.456266
vt 0.433802 0.456266
vt 0.433802 0.703780
vt 0.000000 0.347759
vt 0.379844 0.347759
vt 0.105493 0.347970
vt 0.145357 0.347970
vt 0.620156 0.347759
vt 1.000000 0.347759
vt 0.241191 0.348150
vt 0.281038 0.348150
vt 0.566484 0.704268
vt 0.566485 0.455800
vt 0.599882 0.455800
vt 0.599883 0.704268
vt -0.000000 0.347759
vt 0.379835 0.347759
vt 0.620165 0.347759
vt 1.000000 0.347759
vt 0.680924 0.124240
vt 0.680925 -0.000364
vt 0.714513 -0.000364
vt 0.714513 0.124240
vt 0.091034 0.123700
vt 0.091034 0.000247
vt 0.407536 0.000247
vt 0.407416 0.123700
vt 0.748838 0.123752
vt 0.748838 0.000198
vt 0.782144 0.000198
vt 0.782144 0.123752
vt 0.250123 0.123710
vt 0.250123 0.000310
vt 0.566607 0.000310
vt 0.566607 0.123710
vt 0.578619 0.123485
vt 0.578619 0.000475
vt 0.611778 0.000475
vt 0.611778 0.123485
vt 0.578705 0.122788
vt 0.578705 0.000378
vt 0.611702 0.000378
vt 0.611702 0.122788
vt 0.012144 0.123707
vt 0.012144 0.000240
vt 0.328524 0.000240
vt 0.328524 0.123707
vt 0.342244 0.123711
vt 0.342304 0.000238
vt 0.658760 0.000238
vt 0.658760 0.123711
s 0
usemtl M_WallPrison
f 11/1/1 12/2/1 14/3/1 16/4/1
f 39/5/1 23/6/1 20/7/1 38/8/1
f 4/9/2 1/10/2 6/11/2 2/12/2
f 34/13/3 17/14/3 21/15/3 33/16/3
f 16/4/1 4/17/1 2/18/1 11/1/1
f 40/19/3 19/20/3 22/21/3 37/22/3
f 10/23/4 5/24/4 3/25/4 7/26/4
f 33/27/2 21/28/2 24/29/2 36/30/2
f 37/31/2 22/32/2 23/33/2 39/34/2
f 36/35/1 24/36/1 18/37/1 35/38/1
f 11/39/5 8/40/5 9/41/5 12/42/5
f 14/43/6 5/44/6 10/45/6 13/46/6
f 38/47/4 20/48/4 19/49/4 40/50/4
f 16/51/6 14/43/6 13/46/6 15/52/6
f 4/53/6 16/51/6 15/52/6 1/54/6
f 5/55/1 14/3/1 12/2/1 3/56/1
f 1/55/3 15/57/3 8/58/3 6/59/3
f 8/58/3 15/57/3 13/60/3 9/61/3
f 9/61/3 13/60/3 10/17/3 7/62/3
f 18/63/5 24/64/5 21/65/5 17/66/5
f 19/67/5 20/68/5 23/69/5 22/70/5
f 35/71/4 18/72/4 17/73/4 34/74/4
f 11/75/4 28/76/4 27/77/4 8/78/4
f 2/18/1 26/79/1 28/80/1 11/1/1
f 6/11/2 25/81/2 26/82/2 2/12/2
f 8/58/3 27/83/3 25/84/3 6/59/3
f 3/25/4 31/85/4 32/86/4 7/26/4
f 9/87/2 29/88/2 30/89/2 12/90/2
f 7/62/3 32/91/3 29/92/3 9/61/3
f 12/2/1 30/93/1 31/94/1 3/56/1
f 28/95/4 35/96/4 34/97/4 27/98/4
f 26/99/1 36/100/1 35/101/1 28/102/1
f 25/103/2 33/104/2 36/105/2 26/106/2
f 27/107/3 34/108/3 33/109/3 25/110/3
f 31/111/4 38/112/4 40/113/4 32/114/4
f 29/115/2 37/116/2 39/117/2 30/118/2
f 32/119/3 40/120/3 37/121/3 29/122/3
f 30/123/1 39/124/1 38/125/1 31/126/1
