# Blender 5.2.0 LTS
# www.blender.org
mtllib FloorBrokenPrison.mtl
o FloorBrokenPrison
v 2.500911 0.100005 2.499062
v -2.500911 0.100005 2.499062
v 2.500911 0.100005 -2.500938
v -2.500911 0.100005 -2.500938
v -2.500911 0.100005 1.665729
v -2.500911 0.100005 0.832395
v -2.500911 0.100005 -0.000938
v -2.500911 0.100005 -0.834271
v -2.500911 0.100005 -1.667605
v 2.500911 0.100005 -1.667605
v 2.500911 0.100005 -0.834271
v 2.500911 0.100005 -0.000938
v 2.500911 0.100005 0.832395
v 2.500911 0.100005 1.665729
v -2.001289 0.100005 2.499062
v -1.000644 0.100005 2.499062
v 0.000000 0.100005 2.499062
v 1.000645 0.100005 2.499062
v 2.001289 0.100005 2.499062
v -2.001289 0.100005 -2.500938
v -1.000644 0.100005 -2.500938
v 0.000000 0.100005 -2.500938
v 1.000645 0.100005 -2.500938
v 2.001289 0.100005 -2.500938
v -2.001289 0.100005 -1.667605
v -1.000644 0.100005 -1.667605
v 0.000000 0.100005 -1.667605
v 1.000645 0.100005 -1.667605
v 2.001289 0.100005 -1.667605
v -2.001289 0.100005 -0.834271
v 2.001289 0.100005 -0.834271
v -2.001289 0.100005 -0.000938
v 2.001289 0.100005 -0.000938
v -2.001289 0.100005 0.832395
v 2.001289 0.100005 0.832395
v -2.001289 0.100005 1.665729
v -1.000644 0.100005 1.665729
v 0.000000 0.100005 1.665729
v 1.000645 0.100005 1.665729
v 2.001289 0.100005 1.665729
v -1.000644 0.100005 -1.667605
v -1.426635 -0.158160 -0.834271
v -1.393958 -0.253406 -0.000938
v 0.000000 -0.137648 1.113512
v -1.359616 -0.032971 1.083326
v -1.000644 0.100005 1.665729
v -1.164084 -0.052987 -1.017324
v 1.375903 -0.167434 0.067707
v 1.308565 -0.113729 1.038983
v -1.302085 -0.126158 1.083326
v 1.353675 -0.081375 -1.010063
v 1.349752 -0.088715 -0.679631
v -0.019613 -0.316298 -1.278827
v 2.001289 -0.100005 2.499062
v 2.500911 -0.100005 2.499062
v 2.001289 -0.100005 -2.500938
v 2.500911 -0.100005 -2.500938
v -2.500911 -0.100005 -1.667605
v -2.500911 -0.100005 -2.500938
v 2.500911 -0.100005 1.665729
v -2.500911 -0.100005 2.499062
v -2.500911 -0.100005 1.665729
v -2.500911 -0.100005 0.832395
v -2.500911 -0.100005 -0.000938
v -2.500911 -0.100005 -0.834271
v 2.500911 -0.100005 -1.667605
v 2.500911 -0.100005 -0.834271
v 2.500911 -0.100005 -0.000938
v 2.500911 -0.100005 0.832395
v 2.001289 -0.100005 -1.667605
v 2.001289 -0.100005 -0.834271
v 2.001289 -0.100005 -0.000938
v 2.001289 -0.100005 0.832395
v 2.001289 -0.100005 1.665729
v -2.001289 -0.100005 2.499062
v -1.000644 -0.100005 2.499062
v 0.000000 -0.100005 2.499062
v 1.000645 -0.100005 2.499062
v -2.001289 -0.100005 -2.500938
v -1.000644 -0.100005 -2.500938
v 0.000000 -0.100005 -2.500938
v 1.000645 -0.100005 -2.500938
v -2.001289 -0.100005 -1.667605
v -1.000644 -0.100005 -1.667605
v 0.000000 -0.100005 -1.667605
v 1.000645 -0.100005 -1.667605
v -2.001289 -0.100005 -0.834271
v -2.001289 -0.100005 -0.000938
v -2.001289 -0.100005 0.832395
v -2.001289 -0.100005 1.665729
v -1.000644 -0.100005 1.665729
v 0.000000 -0.100005 1.665729
v 1.000645 -0.100005 1.665729
v -1.393958 -0.386424 -0.000938
v -1.426635 -0.358170 -0.834271
v -1.359616 -0.232981 1.083326
v 1.308565 -0.212299 1.038983
v 1.375903 -0.288687 0.067707
v 0.000000 -0.337658 1.113512
v 1.353675 -0.205556 -1.010063
v -1.302085 -0.326168 1.083326
v -1.164084 -0.252997 -1.017324
v -0.019613 -0.440889 -1.278827
v 1.349752 -0.251850 -0.679631
vn -0.0000 1.0000 -0.0000
vn 0.1588 0.9687 0.1906
vn 0.4591 0.8874 0.0417
vn 0.3801 0.9181 -0.1123
vn 0.0980 0.9882 -0.1177
vn -0.1238 0.9811 0.1487
vn -0.3278 0.9433 0.0524
vn -0.3502 0.9358 -0.0409
vn -0.1441 0.9743 -0.1730
vn -0.0213 0.9318 -0.3623
vn 0.0096 0.9247 -0.3806
vn -0.1425 0.8392 0.5248
vn 0.1651 0.8524 0.4961
vn -0.0000 -1.0000 -0.0000
vn -0.1588 -0.9687 -0.1906
vn -0.4184 -0.9082 -0.0072
vn -0.3319 -0.9398 0.0811
vn -0.0980 -0.9882 0.1177
vn 0.0730 -0.9935 -0.0876
vn 0.2532 -0.9670 -0.0267
vn 0.2322 -0.9714 0.0498
vn 0.0771 -0.9927 0.0926
vn 0.0613 -0.9524 0.2987
vn -0.0096 -0.9247 0.3806
vn 0.1368 -0.8946 -0.4253
vn -0.1318 -0.8861 -0.4444
vn -0.2620 -0.0000 0.9651
vn -1.0000 -0.0000 -0.0000
vn -0.0000 -0.0000 1.0000
vn 0.9992 -0.0000 -0.0392
vn 0.8904 -0.0000 0.4552
vn 0.0232 -0.0000 -0.9997
vn 0.2228 -0.0000 0.9749
vn 1.0000 -0.0000 -0.0000
vn -0.0000 -0.0000 -1.0000
vn -0.8881 -0.0000 0.4597
vn 0.8513 -0.0000 -0.5247
vn -0.0569 -0.0000 -0.9984
vn -0.9976 -0.0000 -0.0692
vn -0.2309 -0.0000 -0.9730
vn -0.9994 -0.0000 0.0350
vn 0.9995 -0.0000 -0.0317
vn -0.9698 -0.0000 -0.2438
vn -0.1921 -0.0000 0.9814
vt 0.337501 0.929968
vt 0.337501 0.998382
vt 0.255351 0.998382
vt 0.255351 0.929968
vt 0.337501 0.587897
vt 0.337501 0.656311
vt 0.255351 0.656311
vt 0.255351 0.587897
vt 0.337501 0.724725
vt 0.255351 0.724725
vt 0.337501 0.793139
vt 0.255351 0.793139
vt 0.337501 0.861553
vt 0.255351 0.861553
vt 0.748251 0.861553
vt 0.748251 0.929968
vt 0.666101 0.929968
vt 0.666101 0.861553
vt 0.748251 0.793139
vt 0.666101 0.793139
vt 0.748251 0.724725
vt 0.666101 0.724725
vt 0.748251 0.656311
vt 0.666101 0.656311
vt 0.748251 0.587897
vt 0.666101 0.587897
vt 0.583951 0.656311
vt 0.583951 0.587897
vt 0.501801 0.656311
vt 0.501801 0.587897
vt 0.419651 0.656311
vt 0.419651 0.587897
vt 0.748251 0.998382
vt 0.666101 0.998382
vt 0.583951 0.998382
vt 0.583951 0.929968
vt 0.501801 0.998382
vt 0.501801 0.929968
vt 0.419651 0.998382
vt 0.419651 0.929968
vt 0.618923 0.724725
vt 0.616241 0.793139
vt 0.613421 0.882154
vt 0.390668 0.710293
vt 0.390990 0.737421
vt 0.388843 0.798775
vt 0.394371 0.878514
vt 0.501801 0.884632
vt 0.608698 0.882154
vt 0.503411 0.688228
vt 0.597369 0.709697
vt 0.337501 0.657341
vt 0.255351 0.657341
vt 0.255351 0.588927
vt 0.337501 0.588927
vt 0.337501 0.999412
vt 0.255351 0.999412
vt 0.255351 0.930998
vt 0.337501 0.930998
vt 0.255351 0.862584
vt 0.337501 0.862584
vt 0.255351 0.794170
vt 0.337501 0.794170
vt 0.255351 0.725756
vt 0.337501 0.725756
vt 0.748251 0.725756
vt 0.666101 0.725756
vt 0.666101 0.657341
vt 0.748251 0.657341
vt 0.748251 0.794170
vt 0.666101 0.794170
vt 0.748251 0.862584
vt 0.666101 0.862584
vt 0.748251 0.930998
vt 0.666101 0.930998
vt 0.748251 0.999412
vt 0.666101 0.999412
vt 0.583951 0.999412
vt 0.583951 0.930998
vt 0.501801 0.999412
vt 0.501801 0.930998
vt 0.419651 0.999412
vt 0.419651 0.930998
vt 0.666101 0.588927
vt 0.748251 0.588927
vt 0.583951 0.657341
vt 0.583951 0.588927
vt 0.501801 0.657341
vt 0.501801 0.588927
vt 0.419651 0.657341
vt 0.419651 0.588927
vt 0.618923 0.862584
vt 0.616241 0.794170
vt 0.613421 0.705155
vt 0.390668 0.877016
vt 0.388843 0.788534
vt 0.390990 0.849889
vt 0.394371 0.708795
vt 0.501801 0.702677
vt 0.608698 0.705155
vt 0.503411 0.899081
vt 0.597369 0.877612
vt 0.171164 0.733339
vt 0.171164 0.765060
vt -0.000247 0.738098
vt -0.000247 0.687008
vt 0.833341 0.999546
vt 0.833341 0.959544
vt 1.000008 0.959544
vt 1.000008 0.999546
vt 0.666674 0.999546
vt 0.666674 0.959544
vt -1.689350 0.146779
vt -1.689350 0.000909
vt -0.959567 0.000909
vt -0.959567 0.146779
vt 0.500007 0.999546
vt 0.500007 0.959544
vt 0.499623 0.724596
vt 0.499623 0.687008
vt 0.735287 0.694992
vt 0.735287 0.751511
vt -0.229783 0.000909
vt -0.229783 0.146779
vt 0.333341 0.999546
vt 0.333341 0.959544
vt 0.999753 0.767944
vt 0.999753 0.824463
vt 0.500000 0.000909
vt 0.500000 0.146779
vt 0.599804 0.720333
vt 0.603779 0.781139
vt 0.207594 0.803535
vt 0.203618 0.742729
vt 0.166674 0.999546
vt 0.166674 0.959544
vt 1.229784 0.000908
vt 1.229784 0.146779
vt 0.828482 0.726088
vt 0.828482 0.777178
vt 0.528607 0.825172
vt 0.528607 0.793347
vt 0.833341 0.959544
vt 1.959567 0.000908
vt 1.959567 0.146779
vt 0.666674 0.959544
vt 0.003729 0.747814
vt -0.000247 0.687008
vt -0.000247 0.824463
vt -0.000247 0.767944
vt 0.193079 0.730368
vt 0.193079 0.786886
vt 0.997794 0.687008
vt 0.999753 0.716974
vt 0.595605 0.749539
vt 0.600085 0.699413
vt 0.999753 0.766971
vt 0.996111 0.807720
vt -0.000247 0.807720
vt 0.007145 0.725035
vt 0.289585 0.687008
vt 0.283556 0.754448
vt 2.689350 0.000908
vt 2.689350 0.146778
vt 0.000007 0.999546
vt 0.000008 0.959544
vt 0.999753 0.687008
vt 0.999753 0.738098
s 0
usemtl M_FloorPrison
f 40/1/1 19/2/1 1/3/1 14/4/1
f 24/5/1 29/6/1 10/7/1 3/8/1
f 29/6/1 31/9/1 11/10/1 10/7/1
f 31/9/1 33/11/1 12/12/1 11/10/1
f 33/11/1 35/13/1 13/14/1 12/12/1
f 35/13/1 40/1/1 14/4/1 13/14/1
f 6/15/1 5/16/1 36/17/1 34/18/1
f 7/19/1 6/15/1 34/18/1 32/20/1
f 8/21/1 7/19/1 32/20/1 30/22/1
f 9/23/1 8/21/1 30/22/1 25/24/1
f 4/25/1 9/23/1 25/24/1 20/26/1
f 20/26/1 25/24/1 26/27/1 21/28/1
f 21/28/1 26/27/1 27/29/1 22/30/1
f 22/30/1 27/29/1 28/31/1 23/32/1
f 23/32/1 28/31/1 29/6/1 24/5/1
f 5/16/1 2/33/1 15/34/1 36/17/1
f 36/17/1 15/34/1 16/35/1 37/36/1
f 37/36/1 16/35/1 17/37/1 38/38/1
f 38/38/1 17/37/1 18/39/1 39/40/1
f 39/40/1 18/39/1 19/2/1 40/1/1
f 25/24/2 30/22/2 42/41/2 41/27/2
f 30/22/3 32/20/3 43/42/3 42/41/3
f 32/20/4 34/18/4 45/43/4 43/42/4
f 34/18/5 36/17/5 46/36/5 45/43/5
f 31/9/6 29/6/6 28/31/6 51/44/6
f 33/11/7 31/9/7 52/45/7 48/46/7
f 35/13/8 33/11/8 48/46/8 49/47/8
f 40/1/9 35/13/9 49/47/9 39/40/9
f 38/38/10 39/40/10 49/47/10 44/48/10
f 37/36/11 38/38/11 44/48/11 50/49/11
f 28/31/12 27/29/12 53/50/12 51/44/12
f 27/29/13 26/27/13 47/51/13 53/50/13
f 74/52/14 60/53/14 55/54/14 54/55/14
f 56/56/14 57/57/14 66/58/14 70/59/14
f 70/59/14 66/58/14 67/60/14 71/61/14
f 71/61/14 67/60/14 68/62/14 72/63/14
f 72/63/14 68/62/14 69/64/14 73/65/14
f 73/65/14 69/64/14 60/53/14 74/52/14
f 63/66/14 89/67/14 90/68/14 62/69/14
f 64/70/14 88/71/14 89/67/14 63/66/14
f 65/72/14 87/73/14 88/71/14 64/70/14
f 58/74/14 83/75/14 87/73/14 65/72/14
f 59/76/14 79/77/14 83/75/14 58/74/14
f 79/77/14 80/78/14 84/79/14 83/75/14
f 80/78/14 81/80/14 85/81/14 84/79/14
f 81/80/14 82/82/14 86/83/14 85/81/14
f 82/82/14 56/56/14 70/59/14 86/83/14
f 62/69/14 90/68/14 75/84/14 61/85/14
f 90/68/14 91/86/14 76/87/14 75/84/14
f 91/86/14 92/88/14 77/89/14 76/87/14
f 92/88/14 93/90/14 78/91/14 77/89/14
f 93/90/14 74/52/14 54/55/14 78/91/14
f 83/75/15 84/79/15 95/92/15 87/73/15
f 87/73/16 95/92/16 94/93/16 88/71/16
f 88/71/17 94/93/17 96/94/17 89/67/17
f 89/67/18 96/94/18 91/86/18 90/68/18
f 71/61/19 100/95/19 86/83/19 70/59/19
f 72/63/20 98/96/20 104/97/20 71/61/20
f 73/65/21 97/98/21 98/96/21 72/63/21
f 74/52/22 93/90/22 97/98/22 73/65/22
f 92/88/23 99/99/23 97/98/23 93/90/23
f 91/86/24 101/100/24 99/99/24 92/88/24
f 86/83/25 100/95/25 103/101/25 85/81/25
f 85/81/26 103/101/26 102/102/26 84/79/26
f 51/103/27 100/104/27 71/105/27 31/106/27
f 5/107/28 62/108/28 61/109/28 2/110/28
f 6/111/28 63/112/28 62/108/28 5/107/28
f 2/113/29 61/114/29 75/115/29 15/116/29
f 7/117/28 64/118/28 63/112/28 6/111/28
f 43/119/30 94/120/30 95/121/30 42/122/30
f 15/116/29 75/115/29 76/123/29 16/124/29
f 8/125/28 65/126/28 64/118/28 7/117/28
f 42/122/31 95/121/31 84/127/31 41/128/31
f 16/124/29 76/123/29 77/129/29 17/130/29
f 44/131/32 99/132/32 101/133/32 50/134/32
f 9/135/28 58/136/28 65/126/28 8/125/28
f 17/130/29 77/129/29 78/137/29 18/138/29
f 47/139/33 102/140/33 103/141/33 53/142/33
f 10/107/34 66/143/34 57/109/34 3/110/34
f 18/138/29 78/137/29 54/144/29 19/145/29
f 11/111/34 67/146/34 66/143/34 10/107/34
f 20/115/35 79/116/35 59/113/35 4/114/35
f 50/134/36 101/133/36 91/147/36 37/148/36
f 12/117/34 68/118/34 67/146/34 11/111/34
f 46/149/37 91/150/37 96/151/37 45/152/37
f 21/123/35 80/124/35 79/116/35 20/115/35
f 49/153/38 97/154/38 99/132/38 44/131/38
f 13/125/34 69/126/34 68/118/34 12/117/34
f 48/155/39 98/156/39 97/157/39 49/158/39
f 22/129/35 81/130/35 80/124/35 21/123/35
f 31/159/40 71/160/40 104/161/40 52/162/40
f 14/135/34 60/136/34 69/126/34 13/125/34
f 19/145/29 54/144/29 55/163/29 1/164/29
f 23/137/35 82/138/35 81/130/35 22/129/35
f 52/162/41 104/161/41 98/156/41 48/155/41
f 3/163/35 57/164/35 56/145/35 24/144/35
f 24/144/35 56/145/35 82/138/35 23/137/35
f 45/152/42 96/151/42 94/120/42 43/119/42
f 4/165/28 59/166/28 58/136/28 9/135/28
f 26/167/43 84/168/43 102/140/43 47/139/43
f 1/165/34 55/166/34 60/136/34 14/135/34
f 53/142/44 103/141/44 100/104/44 51/103/44
