# Blender 5.2.0 LTS
# www.blender.org
mtllib FloorBrokenSidePrison.mtl
o FloorBrokenSidePrison
v 2.500911 0.100005 2.499062
v -2.500911 0.018625 2.499062
v 2.500911 0.100005 -2.500938
v -2.500911 0.100005 -2.500938
v -2.500911 0.018625 1.665729
v -0.763292 -0.043022 0.832395
v -0.529580 -0.097865 -0.000938
v -1.290862 -0.166687 -0.877063
v -2.500911 0.100005 -1.667605
v 2.500911 0.100005 -1.667605
v 2.500911 0.100005 -0.834271
v 2.500911 0.100005 -0.000938
v 2.500911 0.100005 0.832395
v 2.500911 0.100005 1.665729
v 1.984854 0.100005 2.499062
v 1.984854 0.100005 -2.500938
v 1.984854 0.100005 -1.667605
v 1.984854 0.100005 -0.834271
v 1.984854 0.100005 -0.000938
v 1.984854 0.087653 0.832395
v 1.984854 0.100005 1.665729
v -0.865750 0.100005 2.499062
v 0.255691 0.100005 2.499062
v 0.863413 0.100005 2.499062
v -0.865750 0.071589 -2.500938
v 0.255691 0.100005 -2.500938
v 0.863413 0.100005 -2.500938
v -0.865750 -0.010208 -1.667605
v 0.255691 0.068896 -1.667605
v 0.863413 0.100005 -1.667605
v -0.671697 -0.101447 -0.943468
v 0.255691 0.004726 -0.834271
v 0.863413 0.047678 -0.834271
v -0.702681 -0.064914 -0.992579
v 0.255691 0.004470 -0.000938
v 0.863413 0.016596 -0.000938
v -2.085609 -0.229093 -0.978080
v 0.255691 0.034837 0.832395
v 0.863413 0.052640 0.832395
v -0.865750 0.077306 1.665729
v 0.255691 0.066760 1.665729
v 0.863413 0.056145 1.665729
v -0.838373 0.022350 0.832395
v -1.174031 -0.252505 -0.000938
v -1.326469 -0.141920 0.832395
v -2.205061 -0.040465 1.127675
v -0.975513 0.042635 0.859115
v 2.500911 -0.100005 2.499062
v -2.500911 -0.181385 2.499062
v 2.500911 -0.100005 -2.500938
v -2.500911 -0.100005 -2.500938
v -2.500911 -0.181385 1.665729
v -0.763292 -0.243032 0.832395
v -0.529580 -0.297876 -0.000938
v -1.290862 -0.366697 -0.877063
v -2.500911 -0.100005 -1.667605
v 2.500911 -0.100005 -1.667605
v 2.500911 -0.100005 -0.834271
v 2.500911 -0.100005 -0.000938
v 2.500911 -0.100005 0.832395
v 2.500911 -0.100005 1.665729
v 1.984854 -0.100005 2.499062
v 1.984854 -0.100005 -2.500938
v 1.984854 -0.100005 -1.667605
v 1.984854 -0.100005 -0.834271
v 1.984854 -0.100005 -0.000938
v 1.984854 -0.112358 0.832395
v 1.984854 -0.100005 1.665729
v -0.865750 -0.100005 2.499062
v 0.255691 -0.100005 2.499062
v 0.863413 -0.100005 2.499062
v -0.865750 -0.128421 -2.500938
v 0.255691 -0.100005 -2.500938
v 0.863413 -0.100005 -2.500938
v -0.865750 -0.210218 -1.667605
v 0.255691 -0.131115 -1.667605
v 0.863413 -0.100005 -1.667605
v -0.671697 -0.301457 -0.943468
v 0.255691 -0.195284 -0.834271
v 0.863413 -0.152332 -0.834271
v -0.702681 -0.264924 -0.992579
v 0.255691 -0.195540 -0.000938
v 0.863413 -0.183414 -0.000938
v -2.085609 -0.429103 -0.978080
v 0.255691 -0.165173 0.832395
v 0.863413 -0.147370 0.832395
v -0.865750 -0.122704 1.665729
v 0.255691 -0.133250 1.665729
v 0.863413 -0.143865 1.665729
v -0.838373 -0.177660 0.832395
v -1.174031 -0.452515 -0.000938
v -1.326469 -0.341930 0.832395
v -2.205061 -0.240475 1.127675
v -0.975513 -0.157375 0.859115
v 2.500911 0.100005 2.421373
v -2.500911 0.018625 2.421373
v 1.984854 0.100005 2.421373
v -0.865750 0.097889 2.421373
v 0.255691 0.096906 2.421373
v 0.863413 0.095916 2.421373
v 2.500911 -0.100005 2.421373
v -2.500911 -0.181385 2.421373
v 1.984854 -0.100005 2.421373
v -0.865750 -0.102121 2.421373
v 0.255691 -0.103104 2.421373
v 0.863413 -0.104094 2.421373
v -2.500911 0.100005 -2.380654
v 2.500911 0.100005 -2.380654
v 1.984854 0.100005 -2.380654
v -0.865750 0.059782 -2.380654
v 0.255691 0.095515 -2.380654
v 0.863413 0.100005 -2.380654
v -2.500911 -0.100005 -2.380654
v 2.500911 -0.100005 -2.380654
v 1.984854 -0.100005 -2.380654
v -0.865750 -0.140228 -2.380654
v 0.255691 -0.104495 -2.380654
v 0.863413 -0.100005 -2.380654
vn -0.0000 1.0000 -0.0000
vn -0.0120 0.9999 0.0074
vn -0.0120 0.9999 -0.0074
vn -0.0351 0.9993 -0.0095
vn -0.0527 0.9985 -0.0142
vn -0.0604 0.9980 0.0186
vn -0.0233 0.9992 0.0314
vn -0.0018 0.9997 -0.0263
vn -0.0491 0.9987 -0.0136
vn 0.0004 0.9994 -0.0335
vn 0.0008 0.9989 -0.0462
vn 0.0459 0.9977 0.0490
vn -0.0510 0.9964 0.0675
vn -0.0293 0.9994 0.0187
vn -0.0565 0.9954 -0.0772
vn -0.2033 0.9686 -0.1433
vn -0.0607 0.9957 0.0696
vn -0.1675 0.9835 0.0683
vn -0.0158 0.9608 0.2769
vn -0.0453 0.9988 0.0188
vn -0.0009 0.9986 -0.0521
vn -0.0992 0.9930 -0.0647
vn -0.0246 0.9989 -0.0398
vn -0.1213 0.9926 0.0079
vn -0.0776 0.9932 0.0867
vn -0.0059 0.9998 -0.0213
vn -0.0000 -1.0000 -0.0000
vn 0.0120 -0.9999 -0.0074
vn 0.0120 -0.9999 0.0074
vn 0.0351 -0.9993 0.0095
vn 0.0527 -0.9985 0.0142
vn 0.0604 -0.9980 -0.0186
vn 0.0233 -0.9992 -0.0314
vn 0.0018 -0.9997 0.0263
vn 0.0491 -0.9987 0.0136
vn -0.0004 -0.9994 0.0335
vn -0.0008 -0.9989 0.0462
vn -0.0459 -0.9977 -0.0490
vn 0.0510 -0.9964 -0.0675
vn 0.0293 -0.9994 -0.0187
vn 0.0565 -0.9954 0.0772
vn 0.2033 -0.9686 0.1433
vn 0.0607 -0.9957 -0.0696
vn 0.1675 -0.9835 -0.0683
vn 0.0158 -0.9608 -0.2769
vn 0.0453 -0.9988 -0.0188
vn 0.0009 -0.9986 0.0521
vn 0.0992 -0.9930 0.0647
vn 0.0246 -0.9989 0.0398
vn 0.1213 -0.9926 -0.0079
vn 0.0776 -0.9932 -0.0867
vn 0.0059 -0.9998 0.0213
vn -0.0000 -0.0000 1.0000
vn -0.9995 -0.0000 -0.0328
vn -0.0000 -0.0000 -1.0000
vn -1.0000 -0.0000 -0.0000
vn 1.0000 -0.0000 -0.0000
vn -0.8763 -0.0000 -0.4818
vn -0.1066 -0.0000 -0.9943
vn -0.2134 -0.0000 -0.9770
vn 0.1169 -0.0000 -0.9931
vn -0.9837 -0.0000 -0.1799
vn -0.8566 -0.0000 0.5159
vn 0.9909 -0.0000 -0.1348
vn 0.0105 -0.0000 0.9999
vn -0.9912 -0.0000 0.1322
vn -0.1630 -0.0000 0.9866
vn -0.0095 -0.9989 0.0462
vn -0.0051 -0.9994 0.0335
vn 0.0421 -0.9990 0.0136
vn 0.0214 -0.9994 0.0263
vn 0.0095 0.9989 -0.0462
vn 0.0051 0.9994 -0.0335
vn -0.0421 0.9990 -0.0136
vn -0.0214 0.9994 -0.0263
vn 0.0037 -0.9998 -0.0187
vn 0.0285 -0.9973 -0.0676
vn -0.0210 -0.9986 -0.0490
vn -0.0037 0.9998 0.0187
vn -0.0285 0.9973 0.0676
vn 0.0210 0.9986 0.0490
vt 0.411844 0.992954
vt 0.411838 0.999284
vt 0.288159 0.999202
vt 0.288163 0.992873
vt 0.411844 0.601566
vt 0.411903 0.659662
vt 0.288207 0.659743
vt 0.288165 0.601653
vt 0.411965 0.727587
vt 0.288244 0.727633
vt 0.411974 0.795525
vt 0.288255 0.795526
vt 0.411959 0.863464
vt 0.288243 0.863418
vt 0.411899 0.931388
vt 0.288205 0.931310
vt 0.503407 0.863529
vt 0.503321 0.931417
vt 0.503633 0.795552
vt 0.503480 0.727592
vt 0.503294 0.659545
vt 0.503198 0.601449
vt 0.503202 0.993045
vt 0.503189 0.999381
vt 0.777415 0.993404
vt 0.777409 0.999732
vt 0.644046 0.999649
vt 0.644058 0.993319
vt 0.552694 0.999469
vt 0.552706 0.993135
vt 0.777659 0.598205
vt 0.778896 0.656357
vt 0.644914 0.659707
vt 0.644197 0.601119
vt 0.552918 0.659534
vt 0.552707 0.601365
vt 0.777464 0.931850
vt 0.644180 0.931742
vt 0.653154 0.865979
vt 0.753589 0.887635
vt 0.636242 0.863940
vt 0.617955 0.795526
vt 0.672072 0.795163
vt 0.682802 0.863898
vt 0.553109 0.727646
vt 0.629167 0.718502
vt 0.679937 0.723267
vt 0.631407 0.715049
vt 0.744850 0.718566
vt 0.553218 0.795597
vt 0.552822 0.931528
vt 0.552943 0.863596
vt 0.642068 0.863710
vt 0.412082 0.594979
vt 0.288411 0.594984
vt 0.288411 0.588655
vt 0.412081 0.588650
vt 0.411840 0.986336
vt 0.288172 0.986172
vt 0.288249 0.928087
vt 0.411935 0.928244
vt 0.288328 0.860202
vt 0.412039 0.860325
vt 0.288381 0.792315
vt 0.412090 0.792392
vt 0.288411 0.724428
vt 0.412117 0.724459
vt 0.288415 0.656541
vt 0.412099 0.656541
vt 0.503558 0.724451
vt 0.503514 0.656568
vt 0.503741 0.792422
vt 0.503546 0.860376
vt 0.503318 0.928418
vt 0.503187 0.986509
vt 0.503433 0.594945
vt 0.503425 0.588610
vt 0.777624 0.594756
vt 0.644278 0.594759
vt 0.644270 0.588428
vt 0.777622 0.588428
vt 0.552933 0.594886
vt 0.552925 0.588552
vt 0.777623 0.989923
vt 0.644173 0.986927
vt 0.644927 0.928344
vt 0.778896 0.931776
vt 0.552692 0.986624
vt 0.552938 0.928459
vt 0.777635 0.656306
vt 0.753734 0.700502
vt 0.653294 0.722093
vt 0.644361 0.656331
vt 0.636383 0.724122
vt 0.682939 0.724193
vt 0.672167 0.792916
vt 0.618055 0.792519
vt 0.553172 0.860353
vt 0.679987 0.864811
vt 0.629218 0.869544
vt 0.631456 0.872998
vt 0.744891 0.869551
vt 0.553323 0.792408
vt 0.553011 0.656487
vt 0.642207 0.724356
vt 0.553089 0.724414
vt -0.518540 -0.000014
vt -0.516552 0.146606
vt -1.629420 0.146606
vt -1.631407 -0.000014
vt 0.121821 0.745040
vt 0.122452 0.773725
vt 0.002700 0.768478
vt 0.002068 0.739793
vt 2.707649 0.000412
vt 2.707649 0.146833
vt 1.596296 0.146833
vt 1.596296 0.000412
vt 0.028298 0.965125
vt 0.034395 0.934774
vt 0.142599 0.956510
vt 0.136502 0.986861
vt 0.984583 0.594884
vt 0.984583 0.634886
vt 0.833455 0.634886
vt 0.833455 0.594884
vt 0.958399 0.906257
vt 0.976791 0.906143
vt 0.970211 0.999886
vt 0.951820 1.000000
vt 0.015681 0.918065
vt 0.014230 0.882531
vt 0.123746 0.888575
vt 0.125197 0.924109
vt 1.000069 0.000310
vt 1.000069 0.146616
vt 0.943240 0.146616
vt 0.943240 0.000310
vt 0.967173 0.854415
vt 0.985565 0.854301
vt 0.962113 0.638003
vt 0.980505 0.637889
vt 0.986858 0.695113
vt 0.968466 0.695226
vt 2.770624 -0.000014
vt 2.772612 0.146606
vt 1.573125 0.146606
vt 1.571138 -0.000014
vt 0.303550 -0.000014
vt 0.305537 0.146606
vt 0.171592 0.828660
vt 0.170085 0.855185
vt 0.002556 0.856721
vt 0.004064 0.830197
vt 0.751036 0.146606
vt 0.749049 -0.000014
vt 0.775326 0.146833
vt 0.775326 0.000412
vt 0.951819 0.552198
vt 0.970211 0.552084
vt 0.976860 0.776453
vt 0.995252 0.776339
vt 0.278689 0.739793
vt 0.279321 0.768478
vt 0.274778 0.931107
vt 0.268681 0.961458
vt 0.279809 0.830197
vt 0.278302 0.856721
vt 0.007295 0.814681
vt 0.004998 0.791551
vt 0.166821 0.794653
vt 0.169118 0.817783
vt -0.490537 0.000776
vt -0.490537 0.147196
vt -1.687585 0.146833
vt -1.687585 0.000412
vt 0.024178 0.594884
vt 0.024178 0.634886
vt 0.000121 0.634886
vt 0.000121 0.594884
vt 0.330433 0.000412
vt 0.330433 0.146833
vt 0.333455 0.594884
vt 0.333455 0.634886
vt 0.166788 0.634886
vt 0.166788 0.594884
vt 0.500121 0.594884
vt 0.500121 0.634886
vt 0.279953 0.791551
vt 0.282250 0.814681
vt 0.666788 0.594884
vt 0.666788 0.634886
vt 0.257993 0.883095
vt 0.259444 0.918628
vt 1.000121 0.594884
vt 1.000121 0.634886
vt 0.087931 0.000854
vt 0.087931 0.146607
vt 0.000277 0.146607
vt 0.000277 0.000854
vt 0.552650 0.996436
vt 0.503164 0.996309
vt 0.644046 0.996809
vt 0.777408 0.999732
vt 0.411824 0.996135
vt 0.288158 0.995971
vt 0.552672 0.591552
vt 0.503182 0.591649
vt 0.644076 0.591236
vt 0.777450 0.588395
vt 0.411834 0.591765
vt 0.288158 0.591853
s 0
usemtl M_FloorPrison
f 97/1/1 15/2/1 1/3/1 95/4/1
f 109/5/1 17/6/1 10/7/1 108/8/1
f 17/6/1 18/9/1 11/10/1 10/7/1
f 18/9/1 19/11/1 12/12/1 11/10/1
f 19/11/2 20/13/2 13/14/2 12/12/2
f 20/13/3 21/15/3 14/16/3 13/14/3
f 39/17/4 42/18/4 21/15/4 20/13/4
f 36/19/5 39/17/5 20/13/5 19/11/5
f 33/20/6 36/19/6 19/11/6 18/9/6
f 30/21/7 33/20/7 18/9/7 17/6/7
f 112/22/1 30/21/1 17/6/1 109/5/1
f 100/23/8 24/24/8 15/2/8 97/1/8
f 96/25/9 2/26/9 22/27/9 98/28/9
f 98/28/10 22/27/10 23/29/10 99/30/10
f 99/30/11 23/29/11 24/24/11 100/23/11
f 107/31/12 9/32/12 28/33/12 110/34/12
f 110/34/13 28/33/13 29/35/13 111/36/13
f 111/36/14 29/35/14 30/21/14 112/22/14
f 5/37/15 40/38/15 47/39/15 46/40/15
f 6/41/16 7/42/16 44/43/16 45/44/16
f 29/35/17 32/45/17 33/20/17 30/21/17
f 7/42/18 31/46/18 8/47/18 44/43/18
f 34/48/19 28/33/19 9/32/19 37/49/19
f 32/45/20 35/50/20 36/19/20 33/20/20
f 41/51/21 38/52/21 43/53/21 40/38/21
f 38/52/22 35/50/22 7/42/22 6/41/22
f 35/50/23 38/52/23 39/17/23 36/19/23
f 35/50/24 32/45/24 31/46/24 7/42/24
f 32/45/25 29/35/25 28/33/25 34/48/25
f 38/52/26 41/51/26 42/18/26 39/17/26
f 103/54/27 101/55/27 48/56/27 62/57/27
f 115/58/27 114/59/27 57/60/27 64/61/27
f 64/61/27 57/60/27 58/62/27 65/63/27
f 65/63/27 58/62/27 59/64/27 66/65/27
f 66/65/28 59/64/28 60/66/28 67/67/28
f 67/67/29 60/66/29 61/68/29 68/69/29
f 86/70/30 67/67/30 68/69/30 89/71/30
f 83/72/31 66/65/31 67/67/31 86/70/31
f 80/73/32 65/63/32 66/65/32 83/72/32
f 77/74/33 64/61/33 65/63/33 80/73/33
f 118/75/27 115/58/27 64/61/27 77/74/27
f 106/76/34 103/54/34 62/57/34 71/77/34
f 102/78/35 104/79/35 69/80/35 49/81/35
f 104/79/36 105/82/36 70/83/36 69/80/36
f 105/82/37 106/76/37 71/77/37 70/83/37
f 113/84/38 116/85/38 75/86/38 56/87/38
f 116/85/39 117/88/39 76/89/39 75/86/39
f 117/88/40 118/75/40 77/74/40 76/89/40
f 52/90/41 93/91/41 94/92/41 87/93/41
f 53/94/42 92/95/42 91/96/42 54/97/42
f 76/89/43 77/74/43 80/73/43 79/98/43
f 54/97/44 91/96/44 55/99/44 78/100/44
f 81/101/45 84/102/45 56/87/45 75/86/45
f 79/98/46 80/73/46 83/72/46 82/103/46
f 88/104/47 87/93/47 90/105/47 85/106/47
f 85/106/48 53/94/48 54/97/48 82/103/48
f 82/103/49 83/72/49 86/70/49 85/106/49
f 82/103/50 54/97/50 78/100/50 79/98/50
f 79/98/51 81/101/51 75/86/51 76/89/51
f 85/106/52 86/70/52 89/71/52 88/104/52
f 15/107/53 62/108/53 48/109/53 1/110/53
f 43/111/54 90/112/54 87/113/54 40/114/54
f 3/115/55 50/116/55 63/117/55 16/118/55
f 107/119/56 113/120/56 56/121/56 9/122/56
f 95/123/57 101/124/57 61/125/57 14/126/57
f 6/127/53 53/128/53 85/129/53 38/130/53
f 46/131/58 93/132/58 52/133/58 5/134/58
f 96/135/56 102/136/56 49/137/56 2/138/56
f 45/139/53 92/140/53 53/128/53 6/127/53
f 31/141/59 78/142/59 55/143/59 8/144/59
f 2/145/53 49/146/53 69/147/53 22/148/53
f 24/149/53 71/150/53 62/108/53 15/107/53
f 47/151/60 94/152/60 93/153/60 46/154/60
f 22/148/53 69/147/53 70/155/53 23/156/53
f 16/118/55 63/117/55 74/157/55 27/158/55
f 32/159/61 79/160/61 78/142/61 31/141/61
f 44/161/62 91/162/62 92/140/62 45/139/62
f 38/163/55 85/164/55 90/112/55 43/111/55
f 23/156/53 70/155/53 71/150/53 24/149/53
f 9/122/63 56/121/63 84/165/63 37/166/63
f 40/167/64 87/168/64 94/152/64 47/151/64
f 37/169/65 84/170/65 81/171/65 34/172/65
f 25/173/55 72/174/55 51/175/55 4/176/55
f 8/144/66 55/143/66 91/162/66 44/161/66
f 108/177/57 114/178/57 50/179/57 3/180/57
f 26/181/55 73/182/55 72/174/55 25/173/55
f 11/183/57 58/184/57 57/185/57 10/186/57
f 27/158/55 74/157/55 73/182/55 26/181/55
f 12/187/57 59/188/57 58/184/57 11/183/57
f 34/172/67 81/171/67 79/189/67 32/190/67
f 13/191/57 60/192/57 59/188/57 12/187/57
f 14/126/57 61/125/57 60/192/57 13/191/57
f 5/134/56 52/133/56 102/193/56 96/194/56
f 1/195/57 48/196/57 101/124/57 95/123/57
f 88/104/68 89/71/68 106/76/68 105/82/68
f 87/93/69 88/104/69 105/82/69 104/79/69
f 52/90/70 87/93/70 104/79/70 102/78/70
f 89/71/71 68/69/71 103/54/71 106/76/71
f 68/69/27 61/68/27 101/55/27 103/54/27
f 41/51/72 99/30/72 100/23/72 42/18/72
f 40/38/73 98/28/73 99/30/73 41/51/73
f 5/37/74 96/25/74 98/28/74 40/38/74
f 42/18/75 100/23/75 97/1/75 21/15/75
f 21/15/1 97/1/1 95/4/1 14/16/1
f 10/186/57 57/185/57 114/178/57 108/177/57
f 4/197/56 51/198/56 113/199/56 107/200/56
f 73/201/76 74/202/76 118/75/76 117/88/76
f 72/203/77 73/201/77 117/88/77 116/85/77
f 51/204/78 72/203/78 116/85/78 113/84/78
f 74/202/27 63/205/27 115/58/27 118/75/27
f 63/205/27 50/206/27 114/59/27 115/58/27
f 26/207/79 111/36/79 112/22/79 27/208/79
f 25/209/80 110/34/80 111/36/80 26/207/80
f 4/210/81 107/31/81 110/34/81 25/209/81
f 27/208/1 112/22/1 109/5/1 16/211/1
f 16/211/1 109/5/1 108/8/1 3/212/1
