# Blender 5.2.0 LTS
# www.blender.org
mtllib FloorShootingPrison.mtl
o FloorShootingPrison
v -3.001934 0.100005 2.499758
v -3.001934 0.100005 -2.500242
v -3.001934 -0.100006 2.499758
v -3.001934 -0.100006 -2.500242
v 1.001310 -0.100006 2.499758
v 1.001310 0.100005 2.499758
v 1.001310 -0.100006 -2.500242
v 1.001310 0.100005 -2.500242
vn 1.0000 -0.0000 -0.0000
vn -0.0000 -1.0000 -0.0000
vn -0.0000 -0.0000 1.0000
vn -1.0000 -0.0000 -0.0000
vn -0.0000 1.0000 -0.0000
vn -0.0000 -0.0000 -1.0000
vt 0.757697 0.807260
vt 0.242303 0.807260
vt 0.242303 0.786643
vt 0.757697 0.786643
vt 0.242315 0.587299
vt 0.757685 0.587299
vt 0.757685 0.999930
vt 0.242315 0.999930
vt 0.242303 0.807260
vt 0.242303 0.781510
vt 0.757697 0.781510
vt 0.242303 0.786643
vt 0.757697 0.786643
vt 0.242315 0.999930
s 0
usemtl M_FloorPrison
f 5/1/1 7/2/1 8/3/1 6/4/1
f 3/5/2 4/6/2 7/7/2 5/8/2
f 1/9/3 3/10/3 5/11/3 6/1/3
f 1/12/4 2/13/4 4/1/4 3/9/4
f 2/5/5 1/6/5 6/7/5 8/14/5
f 4/9/6 2/10/6 8/11/6 7/1/6
