# Blender 5.2.0 LTS
# www.blender.org
mtllib RoofPrison.mtl
o RoofPrison
v 3.001934 -0.100005 -2.500938
v 3.001934 -0.100005 2.499062
v 3.001934 0.100005 2.499062
v 3.001934 0.100005 -2.500938
v -3.001934 0.100005 2.499062
v -3.001934 -0.100005 2.499062
v -3.001934 -0.100005 -2.500938
v -3.001934 0.100005 -2.500938
v 3.001934 0.070704 2.499062
v 3.001934 0.070704 -2.500938
v -3.001934 0.070704 2.499062
v -3.001934 0.070704 -2.500938
v 3.001934 -0.070158 2.499062
v 3.001934 -0.070158 -2.500938
v -3.001934 -0.070158 2.499062
v -3.001934 -0.070158 -2.500938
vn -0.0000 -0.0000 1.0000
vn -0.0000 -0.0000 -1.0000
vn 1.0000 -0.0000 -0.0000
vn -0.0000 -1.0000 -0.0000
vn -0.0000 1.0000 -0.0000
vn -1.0000 -0.0000 -0.0000
vt 1.000000 0.582910
vt 0.000000 0.582910
vt 0.000000 0.577939
vt 1.000000 0.577939
vt 0.000000 0.578030
vt 1.000000 0.578030
vt 1.000000 0.582910
vt 0.000000 0.582910
vt 1.000000 0.987267
vt 1.000000 0.993127
vt 0.000000 0.993127
vt 0.000000 0.987267
vt 1.012529 0.173687
vt 1.012529 0.585935
vt -0.012521 0.585935
vt -0.012521 0.173687
vt 1.012529 0.585935
vt 1.000000 0.918983
vt 0.000000 0.918983
vt 0.000000 0.913123
vt 1.000000 0.913123
vt 1.000000 0.947156
vt 0.000000 0.947156
vt 1.000000 0.959094
vt 0.000000 0.959094
vt 2.713721 0.125418
vt -1.713722 0.125419
vt -1.713722 0.021542
vt 2.713721 0.021542
vt 0.000000 0.582910
vt 0.000000 0.578030
vt 1.000000 0.578030
vt 1.000000 0.953125
vt 0.000000 0.953125
vt 0.000000 0.953125
vt 2.713722 0.125820
vt -1.713722 0.125821
vt -1.713722 0.021945
vt 2.713722 0.021944
s 0
usemtl M_FloorPrison
f 13/1/1 15/2/1 6/3/1 2/4/1
f 10/5/2 12/6/2 8/7/2 4/8/2
f 10/9/3 4/10/3 3/11/3 9/12/3
f 6/13/4 7/14/4 1/15/4 2/16/4
f 8/13/5 5/17/5 3/15/5 4/16/5
f 12/18/6 11/19/6 5/20/6 8/21/6
f 16/22/6 15/23/6 11/19/6 12/18/6
f 14/24/3 10/9/3 9/12/3 13/25/3
f 14/26/2 16/27/2 12/28/2 10/29/2
f 3/1/1 5/30/1 11/31/1 9/32/1
f 1/1/2 7/2/2 16/3/2 14/4/2
f 1/33/3 14/24/3 13/25/3 2/34/3
f 7/33/6 6/35/6 15/23/6 16/22/6
f 9/36/1 11/37/1 15/38/1 13/39/1
