# Blender 5.2.0 LTS
# www.blender.org
mtllib WallBasePrison.mtl
o WallBasePrison
v 3.001934 0.100005 -2.500938
v -3.001935 0.100005 -2.500938
v 3.001934 1.170891 -3.339877
v -3.001935 1.170891 -3.339877
v 3.001934 3.030764 -3.339877
v -3.001935 3.030764 -3.339877
v 3.001934 4.101650 -2.500938
v -3.001935 4.101650 -2.500938
v 3.001934 -0.100005 -2.500938
v -3.001935 -0.100005 -2.500938
v 3.001934 0.841049 -3.081477
v -3.001935 0.841049 -3.081477
v 3.001934 0.681661 -2.956611
v -3.001935 0.681661 -2.956611
v 3.001934 0.230053 -2.602818
v -3.001935 0.230053 -2.602818
vn -0.0000 0.6167 0.7872
vn -0.0000 -0.0000 1.0000
vn -0.0000 -0.6167 0.7872
vt 1.000000 0.425535
vt 1.000000 0.495324
vt 0.000000 0.495324
vt -0.000000 0.425535
vt 1.000000 0.805103
vt 0.000000 0.805103
vt 1.000000 0.186230
vt 1.000000 0.412813
vt 0.000000 0.412813
vt 0.000000 0.186230
vt -0.000037 0.026634
vt 1.201765 0.023975
vt 1.201765 0.000740
vt -0.000037 0.003399
vt 1.000000 0.090473
vt 1.000000 0.124197
vt 0.000000 0.124197
vt 0.000000 0.090473
vt 1.000000 0.011042
vt 1.000000 0.106596
vt 0.000000 0.106596
vt 0.000000 0.011042
vt 1.000000 0.000022
vt 1.000000 0.027539
vt 0.000000 0.027538
vt 0.000000 0.000022
s 0
usemtl M_WallPrison
f 11/1/1 3/2/1 4/3/1 12/4/1
f 3/2/2 5/5/2 6/6/2 4/3/2
f 5/7/3 7/8/3 8/9/3 6/10/3
f 1/11/2 2/12/2 10/13/2 9/14/2
f 13/15/1 11/16/1 12/17/1 14/18/1
f 15/19/1 13/20/1 14/21/1 16/22/1
f 1/23/1 15/24/1 16/25/1 2/26/1
