# Blender 5.2.0 LTS
# www.blender.org
mtllib WallObservation.mtl
o WallObservation
v 7.503468 0.100923 -2.500938
v 7.511292 1.171809 -2.500938
v 7.503468 7.231694 -2.500938
v 7.503468 8.302579 -2.500938
v 7.503468 -0.099087 -2.500938
v 6.871719 7.231694 -2.500938
v 6.882745 1.171809 -2.500938
v 4.578761 -0.099087 -2.500938
v 4.578761 8.302579 -2.500938
v 4.578761 8.302579 -4.225127
v 4.578761 0.100923 -2.500938
v 4.602668 1.171809 -2.500938
v 0.000000 1.171809 -2.500938
v 0.000000 0.100923 -2.500938
v 0.000000 8.302579 -4.225127
v 0.000000 8.302579 -2.500938
v 0.000000 -0.099087 -2.500938
v 7.508684 4.101650 -2.500938
v 6.879069 4.101650 -2.500938
v 0.000000 4.101650 -4.225127
v 4.594699 4.101650 -4.225127
v 0.000000 0.838853 -2.497452
v 4.587479 0.841018 -2.500938
v 7.508882 0.841232 -2.500938
v 6.882745 0.841018 -2.500938
v 7.505537 6.202482 -2.500938
v 6.874635 6.202482 -2.500938
v 0.000000 6.423782 -4.225127
v 4.585083 6.423782 -4.225127
v 6.882745 -0.099087 -2.500938
v 6.882745 0.100923 -2.500938
v -7.503468 0.100923 -2.500938
v -7.511292 1.171809 -2.500938
v -7.503468 7.231694 -2.500938
v -7.503468 8.302579 -2.500938
v -7.503468 -0.099087 -2.500938
v -6.871719 7.231694 -2.500938
v -6.882745 1.171809 -2.500938
v -4.578761 -0.099087 -2.500938
v -4.578761 8.302579 -2.500938
v -4.578761 8.302579 -4.225127
v -4.578761 0.100923 -2.500938
v -4.602668 1.171809 -2.500938
v -7.508684 4.101650 -2.500938
v -6.879069 4.101650 -2.500938
v -4.594699 4.101650 -4.225127
v -4.587479 0.841018 -2.500938
v -7.508882 0.841232 -2.500938
v -6.882745 0.841018 -2.500938
v -7.505537 6.202482 -2.500938
v -6.874635 6.202482 -2.500938
v -4.585083 6.423782 -4.225127
v -6.882745 -0.099087 -2.500938
v -6.882745 0.100923 -2.500938
vn -0.0000 -0.0000 1.0000
vn 0.0004 0.0052 1.0000
vn -0.0000 -1.0000 -0.0000
vn -0.4232 -0.9061 -0.0000
vn -0.0000 0.5072 0.8618
vn 0.0004 -0.0024 1.0000
vn -0.6016 -0.0019 0.7988
vn -0.6021 -0.0019 0.7984
vn -0.5456 0.4239 0.7229
vn -0.0004 0.0052 1.0000
vn 0.4232 -0.9061 -0.0000
vn -0.0004 -0.0024 1.0000
vn 0.6016 -0.0019 0.7988
vn 0.6021 -0.0019 0.7984
vn 0.5456 0.4239 0.7229
vt 0.555110 0.030284
vt -0.055110 0.030284
vt -0.055110 0.003628
vt 0.555110 0.003628
vt 1.261260 0.455353
vt 1.370561 0.455353
vt 1.370561 0.512457
vt 1.261260 0.512457
vt 1.261260 1.001283
vt 1.370561 1.001283
vt 0.000157 0.455353
vt 0.817071 0.455353
vt 0.817071 0.512457
vt 0.000157 0.512457
vt 0.944890 0.030284
vt 0.862166 0.030284
vt 0.862165 0.003628
vt 0.944890 0.003628
vt 0.712434 0.999352
vt 0.105677 0.999950
vt 0.581153 0.777316
vt 0.712215 0.777187
vt 1.160886 1.001502
vt 0.000322 1.001502
vt 0.000322 0.564478
vt 1.160885 0.564478
vt 1.802334 1.001502
vt 0.817071 1.001283
vt 0.000157 1.001283
vt -0.370055 0.999023
vt -0.370055 0.564278
vt 0.430609 0.564278
vt 0.428933 0.999023
vt 0.928416 0.999023
vt 0.929339 0.564278
vt 1.039055 0.564278
vt 1.038357 0.999023
vt 0.386111 0.004240
vt 1.126008 0.004241
vt 1.127416 0.123835
vt 0.386111 0.123486
vt -0.058716 1.007243
vt -0.725277 1.007243
vt -0.725277 0.777420
vt -0.058716 0.565677
vt 0.581548 0.563796
vt 0.712434 0.563667
vt 0.999204 0.565677
vt 0.999204 0.999451
vt 1.498316 0.004240
vt 1.498316 0.123835
vt 1.598620 0.004240
vt 1.599495 0.123869
s 0
usemtl M_WallPrison
f 11/1/1 14/2/1 17/3/1 8/4/1
f 25/5/1 24/6/1 2/7/1 7/8/1
f 19/9/1 7/8/1 2/7/1 18/10/1
f 22/11/2 23/12/2 12/13/2 13/14/2
f 1/15/1 31/16/1 30/17/1 5/18/1
f 4/19/1 9/20/1 6/21/1 3/22/1
f 9/23/3 16/24/3 15/25/3 10/26/3
f 9/23/4 10/26/4 6/27/4
f 21/28/5 20/29/5 13/14/5 12/13/5
f 28/30/1 20/31/1 21/32/1 29/33/1
f 27/34/1 19/35/1 18/36/1 26/37/1
f 12/13/1 23/12/1 25/5/1 7/8/1
f 14/38/6 11/39/6 23/40/6 22/41/6
f 30/17/1 31/16/1 11/1/1 8/4/1
f 29/42/7 27/43/7 6/44/7 10/45/7
f 21/32/8 19/35/8 27/34/8 29/33/8
f 6/21/1 27/46/1 26/47/1 3/22/1
f 15/48/1 28/49/1 29/42/1 10/45/1
f 21/28/9 12/13/9 19/9/9
f 7/8/1 19/9/1 12/13/1
f 11/39/1 31/50/1 25/51/1 23/40/1
f 25/51/1 31/50/1 1/52/1 24/53/1
f 42/1/1 39/4/1 17/3/1 14/2/1
f 49/5/1 38/8/1 33/7/1 48/6/1
f 45/9/1 44/10/1 33/7/1 38/8/1
f 22/11/10 13/14/10 43/13/10 47/12/10
f 32/15/1 36/18/1 53/17/1 54/16/1
f 35/19/1 34/22/1 37/21/1 40/20/1
f 40/23/3 41/26/3 15/25/3 16/24/3
f 40/23/11 37/27/11 41/26/11
f 46/28/5 43/13/5 13/14/5 20/29/5
f 28/30/1 52/33/1 46/32/1 20/31/1
f 51/34/1 50/37/1 44/36/1 45/35/1
f 43/13/1 38/8/1 49/5/1 47/12/1
f 14/38/12 22/41/12 47/40/12 42/39/12
f 53/17/1 39/4/1 42/1/1 54/16/1
f 52/42/13 41/45/13 37/44/13 51/43/13
f 46/32/14 52/33/14 51/34/14 45/35/14
f 37/21/1 34/22/1 50/47/1 51/46/1
f 15/48/1 41/45/1 52/42/1 28/49/1
f 46/28/15 45/9/15 43/13/15
f 38/8/1 43/13/1 45/9/1
f 42/39/1 47/40/1 49/51/1 54/50/1
f 49/51/1 48/53/1 32/52/1 54/50/1
