# Blender 5.2.1 LTS
# www.blender.org
mtllib WallCellsBasePrison.mtl
o WallCellsBasePrison
v 2.500911 1.400957 -3.339877
v 2.500911 3.970768 -3.339877
v 2.500911 3.838893 -3.339877
v 2.500911 1.483672 -3.339877
v 2.500911 4.430900 -3.339877
v 2.500911 7.000711 -3.339877
v 2.500911 6.868836 -3.339877
v 2.500911 4.562775 -3.339877
v 2.500911 1.170891 -3.339877
v 2.500911 7.230776 -3.339877
v 2.500911 8.301661 -2.500938
v 2.500911 0.100005 -2.500938
v 2.500911 -0.100005 -2.500938
v 0.791584 0.100005 -2.500938
v -2.500910 1.400956 -3.339877
v -2.500910 7.230776 -3.339877
v -2.500910 8.301661 -2.500938
v -2.500910 0.100005 -2.500938
v 0.791584 -0.100005 -2.500938
v -0.791585 0.100005 -2.500938
v -1.440878 1.400957 -3.339877
v 1.440877 1.400957 -3.339877
v -1.440878 3.970768 -3.339877
v 1.440877 3.970768 -3.339877
v 0.791584 1.170891 -3.339877
v 0.791584 1.400957 -3.339877
v -0.791585 1.170891 -3.339877
v -0.791585 1.400957 -3.339877
v -0.791585 3.970768 -3.339877
v 0.791584 3.970768 -3.339877
v -1.440878 1.483672 -3.339877
v -2.500910 1.483671 -3.339877
v -1.440878 3.838893 -3.339877
v -2.500910 3.838893 -3.339877
v 1.440877 3.838893 -3.339877
v 1.440877 1.483672 -3.339877
v -1.440878 4.430900 -3.339877
v 1.440877 4.430900 -3.339877
v -1.440878 7.000711 -3.339877
v 1.440877 7.000711 -3.339877
v 0.791584 4.430900 -3.339877
v -0.791585 4.430900 -3.339877
v -0.791585 7.000711 -3.339877
v 0.791584 7.000711 -3.339877
v -0.791585 7.230776 -3.339877
v 0.791584 7.230776 -3.339877
v -1.440878 4.562775 -3.339877
v -2.500910 4.562775 -3.339877
v -1.440878 6.868836 -3.339877
v -2.500910 6.868836 -3.339877
v 1.440877 6.868836 -3.339877
v 1.440877 4.562775 -3.339877
v -2.500910 1.170891 -3.339877
v -2.500910 3.970768 -3.339877
v -1.440878 1.170891 -3.339877
v 1.440877 1.170891 -3.339877
v -2.500910 4.430900 -3.339877
v 1.440877 7.230776 -3.339877
v -0.791585 8.301661 -2.500938
v 0.791584 8.301661 -2.500938
v 1.440877 8.301661 -2.500938
v -1.440878 0.100005 -2.500938
v 1.440877 0.100005 -2.500938
v -2.500910 -0.100005 -2.500938
v -0.791585 -0.100005 -2.500938
v -1.440878 -0.100005 -2.500938
v 1.440877 -0.100005 -2.500938
v -1.440878 7.230776 -3.339877
v -1.440878 8.301661 -2.500938
v -2.500910 7.000711 -3.339877
v 2.500911 0.841049 -3.081477
v 0.791584 0.841049 -3.081477
v 1.440877 0.841049 -3.081477
v -2.500910 0.841049 -3.081477
v -1.440878 0.841049 -3.081477
v -0.791585 0.841049 -3.081477
v -2.500910 0.681661 -2.956611
v 0.791584 0.681661 -2.956611
v -0.791585 0.681661 -2.956611
v -1.440878 0.681661 -2.956611
v 1.440877 0.681661 -2.956611
v 2.500911 0.681661 -2.956611
v 2.500911 4.101650 -3.339877
v -2.500910 4.101650 -3.339877
v -1.440878 4.101650 -3.339877
v -0.791585 4.101650 -3.339877
v 0.791584 4.101650 -3.339877
v 1.440877 4.101650 -3.339877
v -2.500910 0.230053 -2.602818
v 0.791584 0.230053 -2.602818
v 2.500911 0.230053 -2.602818
v 1.440877 0.230053 -2.602818
v -1.440878 0.230053 -2.602818
v -0.791585 0.230053 -2.602818
vn -0.0000 -0.0000 1.0000
vn -0.0000 0.6167 0.7872
vn -0.0000 -0.6167 0.7872
vt 0.000000 0.561713
vt 0.000000 0.547200
vt 0.211929 0.547200
vt 0.211929 0.561713
vt 0.341741 0.123933
vt 0.341741 0.083453
vt 0.658259 0.083453
vt 0.658259 0.123933
vt 0.658259 0.506833
vt 0.658259 0.547200
vt 0.341741 0.547200
vt 0.341741 0.506833
vt 0.000000 0.561473
vt 0.211929 0.561473
vt 0.211929 0.954813
vt 0.000000 0.954813
vt 0.658259 0.735867
vt 0.341741 0.735867
vt 0.341741 0.690888
vt 0.658259 0.690888
vt 0.000000 0.214259
vt 0.211929 0.214259
vt 0.211929 0.665106
vt 0.000000 0.665106
vt 0.000000 0.506833
vt 0.211929 0.506833
vt 0.788071 0.506833
vt 0.788071 0.547200
vt 0.211929 0.976837
vt 0.000000 0.976837
vt 0.000000 0.188477
vt 0.211929 0.188477
vt 0.211929 0.124107
vt 0.000000 0.124107
vt 0.341741 0.998695
vt 0.211929 0.998695
vt 0.341741 0.976837
vt 0.658259 0.124107
vt 0.788070 0.124107
vt 0.788071 0.188477
vt 0.658259 0.188477
vt 0.788070 0.690888
vt 0.788070 0.735867
vt 0.211929 0.735867
vt 0.211929 1.001827
vt -0.000000 1.001827
vt 0.000000 0.735867
vt 0.658259 0.998696
vt 0.658259 0.976837
vt 0.788070 1.001827
vt 0.658259 1.001827
vt 0.000000 0.035788
vt 0.000000 0.002760
vt 0.211929 0.002760
vt 0.211929 0.035788
vt 0.010018 0.033321
vt 0.010018 0.000008
vt 0.118161 0.000008
vt 0.118161 0.033321
vt 0.341741 1.001827
vt 0.000009 0.033321
vt 0.000009 0.000008
vt 0.381848 0.033321
vt 0.381848 0.000008
vt 0.489992 0.000008
vt 0.489992 0.033321
vt 0.211929 0.690888
vt -0.000000 0.690888
vt 0.510008 0.033321
vt 0.510008 0.000008
vt 1.000000 0.433315
vt 1.000000 0.506833
vt 0.788071 0.433315
vt 1.000000 0.547200
vt 1.000000 0.561713
vt 0.788071 0.561713
vt 1.000000 0.561473
vt 1.000000 0.954813
vt 0.788071 0.954813
vt 0.788071 0.561473
vt 1.000000 0.976837
vt 0.788071 0.976837
vt 1.000000 0.998696
vt 0.788071 0.998696
vt 1.000000 0.188477
vt 1.000000 0.214259
vt 0.788071 0.214259
vt 1.000000 0.665106
vt 0.788070 0.665106
vt 1.000000 0.690888
vt 1.000000 0.735867
vt 1.000000 1.001827
vt 0.658259 0.035788
vt 0.658259 0.002760
vt 0.788071 0.002760
vt 0.788071 0.035788
vt 0.211929 0.433315
vt 0.341741 0.433315
vt 0.658259 0.433315
vt 0.000000 0.433315
vt 0.341741 0.002760
vt 0.341741 0.035788
vt 0.000000 0.123933
vt 0.000000 0.083453
vt 0.211930 0.083453
vt 0.211930 0.123933
vt 0.788071 0.083453
vt 0.788071 0.123933
vt 1.000000 0.000996
vt 1.000000 0.115692
vt 0.788071 0.115692
vt 0.788071 0.000996
vt 1.000000 0.083453
vt 1.000000 0.123933
vt 1.000000 0.124107
vt 0.341741 0.188477
vt 0.341741 0.124107
vt 0.000000 0.998696
vt 1.000000 0.002760
vt 1.000000 0.035788
vt 0.211929 0.115692
vt 0.211929 0.000996
vt 0.341741 0.000996
vt 0.341741 0.115692
vt 0.658259 0.115692
vt 0.658259 0.000996
vt 0.000000 0.115692
vt 0.000000 0.000996
s 0
usemtl M_WallPrison
f 32/1/1 15/2/1 21/3/1 31/4/1
f 76/5/2 79/6/2 78/7/2 72/8/2
f 25/9/1 26/10/1 28/11/1 27/12/1
f 32/13/1 31/14/1 33/15/1 34/16/1
f 46/17/1 45/18/1 43/19/1 44/20/1
f 48/21/1 47/22/1 49/23/1 50/24/1
f 15/2/1 53/25/1 55/26/1 21/3/1
f 26/10/1 25/9/1 56/27/1 22/28/1
f 21/3/1 55/26/1 27/12/1 28/11/1
f 33/15/1 23/29/1 54/30/1 34/16/1
f 48/21/1 57/31/1 37/32/1 47/22/1
f 85/33/1 37/32/1 57/31/1 84/34/1
f 86/35/1 85/36/1 23/29/1 29/37/1
f 87/38/1 88/39/1 38/40/1 41/41/1
f 40/42/1 58/43/1 46/17/1 44/20/1
f 68/44/3 69/45/3 17/46/3 16/47/3
f 87/48/1 86/35/1 29/37/1 30/49/1
f 58/43/3 61/50/3 60/51/3 46/17/3
f 89/52/2 18/53/2 62/54/2 93/55/2
f 62/56/1 66/57/1 65/58/1 20/59/1
f 46/17/3 60/51/3 59/60/3 45/18/3
f 18/61/1 64/62/1 66/57/1 62/56/1
f 14/63/1 19/64/1 67/65/1 63/66/1
f 45/18/3 59/60/3 69/45/3 68/44/3
f 39/67/1 43/19/1 45/18/1 68/44/1
f 16/47/1 70/68/1 39/67/1 68/44/1
f 39/67/1 70/68/1 50/24/1 49/23/1
f 12/69/1 63/66/1 67/65/1 13/70/1
f 71/71/2 9/72/2 56/27/2 73/73/2
f 9/72/1 1/74/1 22/28/1 56/27/1
f 1/74/1 4/75/1 36/76/1 22/28/1
f 4/77/1 3/78/1 35/79/1 36/80/1
f 3/78/1 2/81/1 24/82/1 35/79/1
f 83/83/1 88/84/1 24/82/1 2/81/1
f 5/85/1 8/86/1 52/87/1 38/40/1
f 8/86/1 7/88/1 51/89/1 52/87/1
f 7/88/1 6/90/1 40/42/1 51/89/1
f 10/91/1 58/43/1 40/42/1 6/90/1
f 11/92/3 61/50/3 58/43/3 10/91/3
f 90/93/2 14/94/2 63/95/2 92/96/2
f 20/59/1 65/58/1 19/64/1 14/63/1
f 55/26/2 75/97/2 76/98/2 27/12/2
f 25/9/2 72/99/2 73/73/2 56/27/2
f 53/25/2 74/100/2 75/97/2 55/26/2
f 93/55/2 62/54/2 20/101/2 94/102/2
f 74/103/2 77/104/2 80/105/2 75/106/2
f 72/8/2 78/7/2 81/107/2 73/108/2
f 75/106/2 80/105/2 79/6/2 76/5/2
f 91/109/2 82/110/2 81/111/2 92/112/2
f 82/113/2 71/114/2 73/108/2 81/107/2
f 27/12/2 76/98/2 72/99/2 25/9/2
f 5/85/1 38/40/1 88/39/1 83/115/1
f 30/49/1 24/82/1 88/84/1 87/48/1
f 94/102/2 20/101/2 14/94/2 90/93/2
f 42/116/1 37/32/1 85/33/1 86/117/1
f 23/29/1 85/36/1 84/118/1 54/30/1
f 41/41/1 42/116/1 86/117/1 87/38/1
f 12/119/2 91/120/2 92/96/2 63/95/2
f 80/121/2 93/122/2 94/123/2 79/124/2
f 78/125/2 90/126/2 92/112/2 81/111/2
f 77/127/2 89/128/2 93/122/2 80/121/2
f 79/124/2 94/123/2 90/126/2 78/125/2
