# Blender 5.1.2
# www.blender.org
mtllib WallPlainBasePrison.mtl
o WallPlainBasePrison
v 3.001934 4.101650 -2.500938
v 3.001934 0.458882 -2.500938
v -3.001934 0.458882 -2.500938
v -3.001934 4.101650 -2.500938
v 3.001934 -0.100005 -2.500938
v -3.001934 -0.100005 -2.500938
vn -0.0000 -0.0000 1.0000
vt 1.200880 1.000000
vt 0.002009 1.000000
vt 0.002009 0.239610
vt 1.200880 0.239610
vt 1.200880 0.123535
vt 0.002009 0.123535
vt 0.002009 -0.000000
vt 1.200880 0.000000
s 0
usemtl M_WallPrison
f 1/1/1 4/2/1 3/3/1 2/4/1
f 2/5/1 3/6/1 6/7/1 5/8/1
