# Blender 5.2.0 LTS
# www.blender.org
mtllib WallObservationWindow.mtl
o WallObservationWindow
v 6.564555 7.148691 -2.787780
v 6.564555 4.277151 -2.787780
v 0.000000 7.148677 -4.279727
v 0.000000 4.277137 -4.279727
v 4.600848 7.148684 -4.258490
v 4.600848 4.277144 -4.258490
v 6.120532 7.148324 -2.208594
v 6.313685 4.276784 -2.460410
v 0.000000 4.276784 -3.882028
v 0.000000 7.148324 -3.549253
v 4.299588 7.148324 -3.593432
v 4.430190 4.276784 -3.882028
v 4.327857 4.373974 -3.871006
v 4.206096 7.051131 -3.603464
v 0.097814 7.051024 -3.560265
v 0.097807 4.374083 -3.872007
v 6.229266 4.374039 -2.511061
v 6.049023 7.051070 -2.276073
v 4.382083 7.051108 -3.544234
v 4.503670 4.374001 -3.813060
v 0.209455 6.992957 -3.699109
v 0.209448 4.460225 -3.994057
v 4.096420 6.993058 -3.739981
v 4.211622 4.460122 -3.993110
v 6.086611 6.993124 -2.420533
v 6.257144 4.460307 -2.642861
v 4.624507 4.460271 -3.874721
v 4.509470 6.993161 -3.620377
v -6.564555 7.148691 -2.787780
v -6.564555 4.277151 -2.787780
v -4.600848 7.148684 -4.258490
v -4.600848 4.277144 -4.258490
v -6.120532 7.148324 -2.208594
v -6.313685 4.276784 -2.460410
v -4.299588 7.148324 -3.593432
v -4.430190 4.276784 -3.882028
v -4.327857 4.373974 -3.871006
v -4.206096 7.051131 -3.603464
v -0.097814 7.051024 -3.560265
v -0.097807 4.374083 -3.872007
v -6.229266 4.374039 -2.511061
v -6.049023 7.051070 -2.276073
v -4.382083 7.051108 -3.544234
v -4.503670 4.374001 -3.813060
v -0.209455 6.992957 -3.699109
v -0.209448 4.460225 -3.994057
v -4.096420 6.993058 -3.739981
v -4.211622 4.460122 -3.993110
v -6.086611 6.993124 -2.420533
v -6.257144 4.460307 -2.642861
v -4.624507 4.460271 -3.874721
v -4.509470 6.993161 -3.620377
vn -0.0003 1.0000 0.0004
vn 0.7937 -0.0000 0.6084
vn -0.0000 1.0000 0.0005
vn 0.0005 -1.0000 -0.0007
vn -0.0000 -1.0000 -0.0009
vn 0.7616 -0.0750 0.6437
vn -0.2348 -0.9217 0.3086
vn 0.0050 -0.0995 0.9950
vn 0.0103 -0.1073 0.9942
vn 0.0050 -0.1154 0.9933
vn -0.0001 -0.1076 0.9942
vn -0.6002 -0.1099 0.7923
vn -0.6018 -0.1084 0.7912
vn -0.6004 -0.1069 0.7925
vn -0.5988 -0.1084 0.7935
vn 0.0050 -0.1075 0.9942
vn -0.6003 -0.1084 0.7924
vn -0.9710 -0.0448 -0.2347
vn 0.0041 -0.9214 0.3886
vn 0.4900 -0.0650 0.8693
vn -0.7547 -0.0991 0.6485
vn -0.3478 0.8165 0.4609
vn -0.0001 0.8171 0.5766
vn 0.0003 1.0000 0.0004
vn -0.7937 -0.0000 0.6084
vn -0.0005 -1.0000 -0.0007
vn -0.7616 -0.0750 0.6437
vn 0.2348 -0.9217 0.3086
vn -0.0050 -0.0995 0.9950
vn -0.0103 -0.1073 0.9942
vn -0.0050 -0.1154 0.9933
vn 0.0001 -0.1076 0.9942
vn 0.6002 -0.1099 0.7923
vn 0.6018 -0.1084 0.7912
vn 0.6004 -0.1069 0.7925
vn 0.5988 -0.1084 0.7935
vn -0.0050 -0.1075 0.9942
vn 0.6003 -0.1084 0.7924
vn 0.9710 -0.0448 -0.2347
vn -0.0041 -0.9214 0.3886
vn -0.4900 -0.0650 0.8693
vn 0.7547 -0.0991 0.6485
vn 0.3478 0.8165 0.4609
vn 0.0001 0.8171 0.5766
vt 0.068455 0.329105
vt 0.071005 0.210245
vt 0.105380 0.218619
vt 0.103818 0.329466
vt 0.243042 0.349810
vt 0.107393 0.363943
vt 0.241029 0.330325
vt 0.456354 0.205296
vt 0.238661 0.210245
vt 0.238661 0.175726
vt 0.441529 0.174084
vt 0.262405 0.210245
vt 0.261282 0.330737
vt 0.242541 0.214435
vt 0.238661 0.015746
vt 0.455824 0.014963
vt 0.447915 0.032798
vt 0.238661 0.034525
vt 0.243382 0.171027
vt 0.243041 0.038817
vt 0.252026 0.046306
vt 0.250901 0.164627
vt 0.108440 0.325128
vt 0.109566 0.222708
vt 0.117410 0.229901
vt 0.114758 0.319326
vt 0.437338 0.169788
vt 0.442964 0.037507
vt 0.236648 0.325747
vt 0.237729 0.219271
vt 0.533340 0.299534
vt 0.533340 0.009024
vt 0.991782 0.009024
vt 0.991782 0.299534
vt 0.991782 0.371141
vt 0.533340 0.371141
vt 0.228751 0.318290
vt 0.428668 0.162307
vt 0.231383 0.225297
vt 0.435145 0.043925
vt 0.262405 0.245083
vt 0.297768 0.244722
vt 0.299330 0.355569
vt 0.264955 0.363943
vt 0.436991 0.224378
vt 0.434979 0.243863
vt 0.301342 0.210245
vt 0.020968 0.205296
vt 0.035793 0.174084
vt 0.456354 0.363943
vt 0.436490 0.359753
vt 0.455231 0.243451
vt 0.029407 0.032798
vt 0.021498 0.014963
vt 0.233940 0.171027
vt 0.226421 0.164627
vt 0.225296 0.046306
vt 0.234281 0.038817
vt 0.302390 0.249059
vt 0.308708 0.254862
vt 0.311360 0.344287
vt 0.303515 0.351479
vt 0.034358 0.037507
vt 0.039984 0.169789
vt 0.430597 0.248441
vt 0.431679 0.354917
vt 0.422700 0.255898
vt 0.048654 0.162307
vt 0.425333 0.348891
vt 0.042177 0.043925
s 0
usemtl M_Mesh
f 1/1/1 5/2/1 11/3/1 7/4/1
f 2/5/2 1/6/2 7/4/2 8/7/2
f 5/8/3 3/9/3 10/10/3 11/11/3
f 6/12/4 2/13/4 8/7/4 12/14/4
f 4/15/5 6/16/5 12/17/5 9/18/5
f 15/19/6 16/20/6 22/21/6 21/22/6
f 18/23/7 19/24/7 28/25/7 25/26/7
f 12/17/8 11/11/8 14/27/8 13/28/8
f 11/11/9 10/10/9 15/19/9 14/27/9
f 10/10/10 9/18/10 16/20/10 15/19/10
f 9/18/11 12/17/11 13/28/11 16/20/11
f 8/7/12 7/4/12 18/23/12 17/29/12
f 7/4/13 11/3/13 19/24/13 18/23/13
f 11/3/14 12/14/14 20/30/14 19/24/14
f 12/14/15 8/7/15 17/29/15 20/30/15
f 24/31/16 23/32/16 21/33/16 22/34/16
f 26/35/17 25/36/17 28/32/17 27/33/17
f 17/29/18 18/23/18 25/26/18 26/37/18
f 14/27/19 15/19/19 21/22/19 23/38/19
f 19/24/20 20/30/20 27/39/20 28/25/20
f 13/28/21 14/27/21 23/38/21 24/40/21
f 20/30/22 17/29/22 26/37/22 27/39/22
f 16/20/23 13/28/23 24/40/23 22/21/23
f 29/41/24 33/42/24 35/43/24 31/44/24
f 30/45/25 34/46/25 33/42/25 29/47/25
f 31/48/3 35/49/3 10/10/3 3/9/3
f 32/50/26 36/51/26 34/46/26 30/52/26
f 4/15/5 9/18/5 36/53/5 32/54/5
f 39/55/27 45/56/27 46/57/27 40/58/27
f 42/59/28 49/60/28 52/61/28 43/62/28
f 36/53/29 37/63/29 38/64/29 35/49/29
f 35/49/30 38/64/30 39/55/30 10/10/30
f 10/10/31 39/55/31 40/58/31 9/18/31
f 9/18/32 40/58/32 37/63/32 36/53/32
f 34/46/33 41/65/33 42/59/33 33/42/33
f 33/42/34 42/59/34 43/62/34 35/43/34
f 35/43/35 43/62/35 44/66/35 36/51/35
f 36/51/36 44/66/36 41/65/36 34/46/36
f 48/32/37 46/33/37 45/34/37 47/31/37
f 50/33/38 51/35/38 52/36/38 49/32/38
f 41/65/39 50/67/39 49/60/39 42/59/39
f 38/64/40 47/68/40 45/56/40 39/55/40
f 43/62/41 52/61/41 51/69/41 44/66/41
f 37/63/42 48/70/42 47/68/42 38/64/42
f 44/66/43 51/69/43 50/67/43 41/65/43
f 40/58/44 46/57/44 48/70/44 37/63/44
