# Blender 5.2.2 LTS
# www.blender.org
mtllib BrainBeams.mtl
o MetalBars.002
v -5.000000 5.000000 5.000000
v -4.734847 5.000000 5.000000
v -5.000000 0.000000 5.000000
v -4.734847 0.000000 5.000000
v 0.000000 5.000000 5.000000
v -0.226376 5.000000 5.000000
v 0.000000 0.000000 5.000000
v -0.226376 0.000000 5.000000
v -4.734847 5.000000 0.000000
v -5.000000 5.000000 0.000000
v -4.734847 0.000000 0.000000
v -5.000000 0.000000 0.000000
v -0.226376 5.000000 0.000000
v 0.000000 5.000000 0.000000
v -0.226376 0.000000 0.000000
v 0.000000 0.000000 0.000000
v -1.570266 5.000000 5.000000
v -3.390957 5.000000 5.000000
v -3.390957 0.000000 5.000000
v -1.570266 0.000000 5.000000
v -1.570266 5.000000 0.000000
v -3.390957 5.000000 0.000000
v -3.390957 0.000000 0.000000
v -1.570266 0.000000 0.000000
v -5.000000 2.823846 5.000000
v 0.000000 2.823846 5.000000
v -4.734847 2.823846 5.000000
v -0.226376 2.823846 5.000000
v -5.000000 2.823846 0.000000
v 0.000000 2.823846 0.000000
v -4.734847 2.823846 0.000000
v -0.226376 2.823846 0.000000
v -3.390957 3.167901 0.000000
v -1.570266 3.167901 0.000000
v -3.390957 2.823846 5.000000
v -1.570266 2.823846 5.000000
v -0.226376 0.000000 4.183044
v -4.734847 0.000000 4.183044
v 0.000000 5.000000 4.183044
v 0.000000 0.000000 4.183044
v -0.226376 5.000000 4.183044
v -5.000000 0.000000 4.183044
v -4.734847 5.000000 4.183044
v -5.000000 5.000000 4.183044
v -1.570266 5.000000 4.183044
v -3.390957 5.000000 4.183044
v -3.390957 0.000000 4.183044
v -1.570266 0.000000 4.183044
v -5.000000 2.823846 4.183044
v 0.000000 2.823846 4.183044
v -1.570266 3.157814 4.091522
v -3.390957 3.157814 4.091522
vn -0.0000 -0.0000 1.0000
vn -0.0000 -0.0000 -1.0000
vn -0.0000 -1.0000 -0.0000
vn 1.0000 -0.0000 -0.0000
vn -0.0000 1.0000 -0.0000
vn -1.0000 -0.0000 -0.0000
vn -0.0000 -0.0290 -0.9996
vn -0.0000 -1.0000 -0.0025
vt 0.847349 0.201200
vt 0.847349 0.004189
vt 0.862703 0.004189
vt 0.862703 0.201200
vt 0.882560 0.201200
vt 0.869452 0.201200
vt 0.869452 0.004188
vt 0.882560 0.004188
vt 0.879758 0.737356
vt 0.879758 0.540344
vt 0.957578 0.540344
vt 0.957578 0.737356
vt 0.840639 0.201200
vt 0.825284 0.201200
vt 0.825284 0.004188
vt 0.840639 0.004188
vt 0.004542 0.735149
vt 0.004542 0.538137
vt 0.017651 0.538137
vt 0.017651 0.735149
vt 0.819048 0.382730
vt 0.743179 0.382730
vt 0.743179 0.181968
vt 0.819048 0.181968
vt 0.299604 0.829976
vt 0.299604 0.538138
vt 0.377424 0.538138
vt 0.377424 0.829976
vt 0.443964 0.737356
vt 0.686191 0.737356
vt 0.686191 0.889180
vt 0.443964 0.889179
vt 0.446301 0.472540
vt 0.446301 0.180701
vt 0.459409 0.180701
vt 0.459409 0.472540
vt 0.100999 0.829976
vt 0.100999 0.538138
vt 0.116353 0.538138
vt 0.116353 0.829976
vt 0.642660 0.472540
vt 0.642660 0.180701
vt 0.720480 0.180701
vt 0.720480 0.472540
vt 0.390533 0.538138
vt 0.390533 0.829976
vt 0.245041 0.377712
vt 0.002814 0.377712
vt 0.002814 0.180701
vt 0.245041 0.180701
vt 0.735835 0.180701
vt 0.735835 0.472540
vt 0.537230 0.180701
vt 0.537230 0.472540
vt 0.194173 0.538138
vt 0.194173 0.829976
vt 0.396657 0.540344
vt 0.443964 0.540344
vt 0.396657 0.737355
vt 0.997293 0.382730
vt 0.921423 0.382730
vt 0.921423 0.181968
vt 0.997293 0.181968
vt 0.292348 0.529536
vt 0.245041 0.529536
vt 0.292348 0.377712
vt 0.696507 0.737356
vt 0.696507 0.540344
vt 0.774327 0.540344
vt 0.774327 0.737356
vt 0.774327 0.889179
vt 0.879758 0.889180
vt 0.696507 0.889180
vt 0.921423 0.529536
vt 0.819048 0.529536
vt 0.997293 0.529536
vt 0.002814 0.529536
vt 0.686191 0.540344
vt 0.743179 0.529536
vt 0.004542 0.886973
vt 0.017651 0.886973
vt 0.840639 0.353024
vt 0.825284 0.353024
vt 0.957578 0.889180
vt 0.882560 0.353024
vt 0.869452 0.353024
vt 0.847349 0.353024
vt 0.862703 0.353024
vt 0.116353 0.886973
vt 0.194173 0.886973
vt 0.537230 0.529536
vt 0.642660 0.529536
vt 0.459409 0.529536
vt 0.720480 0.529536
vt 0.735835 0.529536
vt 0.292348 0.180701
vt 0.377424 0.886973
vt 0.390533 0.886973
vt 0.100999 0.886973
vt 0.446301 0.529536
vt 0.396657 0.889180
vt 0.299604 0.886973
vt 0.003390 0.003653
vt 0.307632 0.003653
vt 0.307632 0.174375
vt 0.003390 0.174375
vt 0.744660 0.003653
vt 0.744660 0.174375
vt 0.440418 0.174375
vt 0.440418 0.003653
vt 0.307632 0.419216
vt 0.440418 0.419216
s 1
f 25/1/1 3/2/1 4/3/1 27/4/1
f 26/5/1 28/6/1 8/7/1 7/8/1
f 36/9/1 20/10/1 8/11/1 28/12/1
f 29/13/2 31/14/2 11/15/2 12/16/2
f 30/17/2 16/18/2 15/19/2 32/20/2
f 34/21/2 32/22/2 15/23/2 24/24/2
f 48/25/3 24/26/3 15/27/3 37/28/3
f 50/29/4 30/30/4 14/31/4 39/32/4
f 39/33/5 14/34/5 13/35/5 41/36/5
f 42/37/3 12/38/3 11/39/3 38/40/3
f 46/41/5 22/42/5 9/43/5 43/44/5
f 37/28/3 15/27/3 16/45/3 40/46/3
f 49/47/6 29/48/6 12/49/6 42/50/6
f 43/44/5 9/43/5 10/51/5 44/52/5
f 41/36/5 13/35/5 21/53/5 45/54/5
f 45/54/5 21/53/5 22/42/5 46/41/5
f 38/40/3 11/39/3 23/55/3 47/56/3
f 7/57/4 40/58/4 50/29/4 26/59/4
f 31/60/2 33/61/2 23/62/2 11/63/2
f 1/64/6 44/65/6 49/47/6 25/66/6
f 27/67/1 4/68/1 19/69/1 35/70/1
f 35/70/1 19/69/1 20/10/1 36/9/1
f 18/71/1 35/70/1 36/9/1 17/72/1
f 2/73/1 27/67/1 35/70/1 18/71/1
f 22/74/2 21/75/2 34/21/2 33/61/2
f 9/76/2 22/74/2 33/61/2 31/60/2
f 44/65/6 10/77/6 29/48/6 49/47/6
f 40/58/4 16/78/4 30/30/4 50/29/4
f 21/75/2 13/79/2 32/22/2 34/21/2
f 14/80/2 30/17/2 32/20/2 13/81/2
f 10/82/2 9/83/2 31/14/2 29/13/2
f 17/72/1 36/9/1 28/12/1 6/84/1
f 5/85/1 6/86/1 28/6/1 26/5/1
f 1/87/1 25/1/1 27/4/1 2/88/1
f 4/89/3 38/40/3 47/56/3 19/90/3
f 17/91/5 45/54/5 46/41/5 18/92/5
f 6/93/5 41/36/5 45/54/5 17/91/5
f 2/94/5 43/44/5 44/52/5 1/95/5
f 25/66/6 49/47/6 42/50/6 3/96/6
f 8/97/3 37/28/3 40/46/3 7/98/3
f 18/92/5 46/41/5 43/44/5 2/94/5
f 3/99/3 42/37/3 38/40/3 4/89/3
f 5/100/5 39/33/5 41/36/5 6/93/5
f 26/59/4 50/29/4 39/32/4 5/101/4
f 20/102/3 48/25/3 37/28/3 8/97/3
f 20/102/3 19/90/3 47/56/3 48/25/3
f 24/103/6 48/104/6 51/105/6 34/106/6
f 23/107/4 33/108/4 52/109/4 47/110/4
f 51/105/7 48/104/7 47/110/7 52/109/7
f 34/111/8 51/105/8 52/109/8 33/112/8
