# Blender 5.1.2
# www.blender.org
mtllib DoorwaySingleMidWareHouse.mtl
o DoorwaySingleMidWareHouse
v 0.099886 4.101650 -2.500938
v -0.099871 2.327184 -2.500938
v -0.099871 2.327184 2.499758
v -0.099871 4.101650 -2.500938
v -0.099871 4.101650 2.499758
v 0.099886 2.327184 -2.500938
v 0.099886 2.327184 2.499758
v 0.099886 2.327184 -0.600374
v 0.099886 2.327184 0.600857
v 0.099886 4.101650 2.499758
v -0.099871 2.327184 -0.603254
v -0.099871 2.327184 0.599417
v -0.099871 -0.100005 2.499758
v -0.099871 -0.100005 0.600857
v -0.099871 -0.100005 -0.600374
v 0.099886 -0.100005 -0.600374
v 0.099886 -0.100005 -2.500938
v 0.099886 -0.100005 2.499758
v 0.099886 -0.100005 0.600857
v -0.099871 -0.100005 -2.500938
vn 1.0000 -0.0000 -0.0000
vn -0.0000 -0.0000 -1.0000
vn -0.0000 -0.0000 1.0000
vn -1.0000 -0.0000 -0.0000
vn 0.0036 -0.0003 -1.0000
vn -0.0000 -1.0000 -0.0000
vn -0.0000 1.0000 -0.0000
vn -0.0072 0.0006 1.0000
vt 0.225897 0.365675
vt 0.757752 0.365675
vt 0.757752 0.575673
vt 0.555792 0.575673
vt 0.428034 0.575673
vt 0.225897 0.575673
vt 0.204371 0.575702
vt 0.204371 0.812576
vt 0.183126 0.812576
vt 0.183126 0.575702
vt 0.183126 0.365704
vt 0.204371 0.365704
vt 0.225648 0.575703
vt 0.225648 0.812577
vt 0.204403 0.812577
vt 0.204403 0.575703
vt 0.555927 0.575687
vt 0.428015 0.575687
vt 0.225902 0.575687
vt 0.225902 0.365689
vt 0.757757 0.365689
vt 0.757757 0.575687
vt 0.428034 0.812548
vt 0.225897 0.812548
vt 0.204403 0.365705
vt 0.225648 0.365705
vt 0.757752 0.812548
vt 0.555792 0.812548
vt 0.872920 0.575539
vt 0.872919 0.812413
vt 0.851674 0.812413
vt 0.851674 0.575539
vt 0.757757 0.812561
vt 0.555620 0.812561
vt 0.895450 0.575665
vt 0.874202 0.575557
vt 0.873005 0.447805
vt 0.894251 0.447759
vt 0.978780 -0.000000
vt 0.978780 0.531855
vt 0.957535 0.531855
vt 0.957535 -0.000000
vt 0.427862 0.812561
vt 0.225902 0.812561
vt 0.894250 0.812536
vt 0.873005 0.812429
s 0
usemtl M_WallWareHouse
f 1/1/1 10/2/1 7/3/1 9/4/1 8/5/1 6/6/1
f 6/7/2 17/8/2 20/9/2 2/10/2
f 4/11/2 1/12/2 6/7/2 2/10/2
f 3/13/3 13/14/3 18/15/3 7/16/3
f 11/17/4 12/18/4 3/19/4 5/20/4 4/21/4 2/22/4
f 8/5/1 16/23/1 17/24/1 6/6/1
f 10/25/3 5/26/3 3/13/3 7/16/3
f 7/3/1 18/27/1 19/28/1 9/4/1
f 9/29/5 19/30/5 14/31/5 12/32/5
f 2/22/4 20/33/4 15/34/4 11/17/4
f 11/35/6 8/36/6 9/37/6 12/38/6
f 4/39/7 5/40/7 10/41/7 1/42/7
f 12/18/4 14/43/4 13/44/4 3/19/4
f 18/27/6 13/44/6 14/31/6 19/28/6
f 15/34/6 20/33/6 17/8/6 16/23/6
f 11/35/8 15/45/8 16/46/8 8/36/8
