# Blender 5.2.0 LTS
# www.blender.org
mtllib DoorwayNoneBaseWareHouse.mtl
o DoorwayNoneBaseWareHouse
v 0.099878 4.101650 2.500209
v -0.099878 4.101650 2.500209
v -0.099878 4.101650 -2.500488
v 0.099878 4.101650 -2.500488
v 0.099878 -0.100005 2.500209
v -0.099878 -0.100005 2.500209
v -0.099878 -0.100005 -2.500488
v 0.099878 -0.100005 -2.500488
v -0.099878 1.399867 -2.500488
v -0.099878 1.399866 2.500209
v 0.099878 1.399867 -2.500488
v 0.099878 1.399867 2.500209
v -0.099878 1.751700 2.500209
v -0.099878 1.751700 -2.500488
v 0.099878 1.751700 -2.500488
v 0.099878 1.751700 2.500209
vn -1.0000 -0.0000 -0.0000
vn 1.0000 -0.0000 -0.0000
vn -0.0000 -0.0000 1.0000
vn -0.0000 1.0000 -0.0000
vn -0.0000 -1.0000 -0.0000
vn -0.0000 -0.0000 -1.0000
vt -0.000000 0.319775
vt 0.000000 0.019842
vt 1.000000 0.019842
vt 1.000000 0.319774
vt 0.000000 0.319775
vt 0.003657 0.318895
vt 0.003657 0.019735
vt 0.043500 0.019735
vt 0.043500 0.318895
vt 1.000000 0.241831
vt 1.000000 0.281777
vt 0.000000 0.281777
vt 0.000000 0.241831
vt 0.003657 0.318895
vt 0.003657 0.019735
vt 0.043500 0.019735
vt 0.043500 0.318895
vt 0.426076 0.402853
vt 0.573924 0.402853
vt 0.573924 0.486795
vt 0.426076 0.486795
vt 0.426076 0.402853
vt 0.573924 0.486795
vt 0.023430 0.411729
vt 0.023430 0.341372
vt 0.976570 0.341372
vt 0.976570 0.411729
vt 0.023430 0.411729
vt 0.023430 0.341372
vt 0.976570 0.411729
vt 0.000000 0.960822
vt 0.000000 0.490897
vt 1.000000 0.490897
vt 1.000000 0.960822
vt 0.000000 0.490897
vt 1.000000 0.490897
vt 1.000000 0.960822
vt 0.000000 0.402322
vt 1.000000 0.402322
vt 1.000000 0.487326
vt 0.000000 0.487327
vt 0.000000 0.402322
vt 1.000000 0.402322
vt 1.000000 0.487327
vt 0.000000 0.487327
s 0
usemtl M_WallWareHouse
f 9/1/1 7/2/1 6/3/1 10/4/1
f 12/3/2 5/4/2 8/5/2 11/2/2
f 10/6/3 6/7/3 5/8/3 12/9/3
f 2/10/4 1/11/4 4/12/4 3/13/4
f 7/12/5 8/13/5 5/10/5 6/11/5
f 11/14/6 8/15/6 7/16/6 9/17/6
f 15/18/6 11/19/6 9/20/6 14/21/6
f 13/22/3 10/19/3 12/23/3 16/21/3
f 16/24/2 12/25/2 11/26/2 15/27/2
f 14/28/1 9/29/1 10/26/1 13/30/1
f 3/31/1 14/32/1 13/33/1 2/34/1
f 1/31/2 16/35/2 15/36/2 4/37/2
f 2/38/3 13/39/3 16/40/3 1/41/3
f 4/42/6 15/43/6 14/44/6 3/45/6
