# Blender 5.2.0 LTS
# www.blender.org
mtllib DoorwaySingleBaseWareHouse.mtl
o DoorwaySingleBaseWareHouse
v 0.099886 4.101650 -2.500488
v -0.099871 2.327184 -2.500488
v -0.099871 2.327184 2.500209
v -0.099871 4.101650 -2.500488
v -0.099871 4.101650 2.500209
v 0.099886 2.327184 -2.500488
v 0.099886 2.327184 2.500209
v 0.099886 2.327184 -0.599923
v 0.099886 2.327184 0.601307
v 0.099886 4.101650 2.500209
v -0.099871 2.327184 -0.602804
v -0.099871 2.327184 0.599867
v -0.099871 -0.100005 2.500209
v -0.099871 -0.100005 0.601307
v -0.099871 -0.100005 -0.599923
v 0.099886 -0.100005 -0.599923
v 0.099886 -0.100005 -2.500488
v 0.099886 -0.100005 2.500209
v 0.099886 -0.100005 0.601307
v -0.099871 -0.100005 -2.500488
v -0.099871 1.399866 -2.500488
v -0.099871 1.399866 -0.601364
v 0.099886 1.399866 -2.500488
v 0.099886 1.399866 -0.599923
v -0.099871 1.399866 0.600587
v -0.099871 1.399866 2.500209
v 0.099886 1.399866 0.601307
v 0.099886 1.399866 2.500209
v -0.099871 1.751700 -0.602084
v -0.099871 1.751700 -2.500488
v 0.099886 1.751700 -2.500488
v 0.099886 1.751700 -0.599923
v -0.099871 1.751700 2.500209
v 0.099886 1.751700 2.500209
v -0.099871 1.751700 0.600227
v 0.099886 1.751700 0.601307
vn 1.0000 -0.0000 -0.0000
vn -0.0000 -0.0000 -1.0000
vn -0.0000 -0.0000 1.0000
vn -1.0000 -0.0000 -0.0000
vn 0.0018 -0.0002 -1.0000
vn -0.0000 -1.0000 -0.0000
vn -0.0000 1.0000 -0.0000
vn -0.0036 0.0005 1.0000
vn -0.0090 0.0010 1.0000
vn 0.0045 -0.0005 -1.0000
vn -0.0126 0.0006 0.9999
vn 0.0063 -0.0003 -1.0000
vt 1.000085 0.960811
vt 0.000085 0.960811
vt 0.000085 0.605968
vt 0.379812 0.605968
vt 0.620025 0.605968
vt 1.000085 0.605968
vt 0.477357 0.349492
vt 0.477357 0.008357
vt 0.522790 0.008357
vt 0.522790 0.349492
vt 0.154265 0.960515
vt 0.114333 0.960515
vt 0.114333 0.605788
vt 0.154265 0.605788
vt 0.379569 0.605968
vt 0.620069 0.605968
vt 1.000085 0.960811
vt 0.000085 0.960811
vt 0.000085 0.605968
vt 0.714790 0.009975
vt 0.714790 0.348949
vt 0.285258 0.348949
vt 0.285258 0.009975
vt 0.154265 0.960515
vt 0.114333 0.960515
vt 0.114333 0.605788
vt 0.154265 0.605788
vt 0.714790 0.349246
vt 0.285258 0.349246
vt 0.477357 0.349492
vt 0.477358 0.008357
vt 0.522791 0.008357
vt 0.522791 0.349492
vt 0.285258 0.009975
vt 0.714464 0.348949
vt 0.244299 0.793917
vt 0.245126 0.709057
vt 0.755391 0.706673
vt 0.755176 0.791530
vt 1.000000 0.894973
vt 0.000000 0.894973
vt 0.000000 0.855027
vt 1.000000 0.855027
vt 0.285258 0.349118
vt 0.285420 0.009975
vt 0.714790 0.349118
vt 0.000000 0.164088
vt 0.000000 0.058892
vt 1.000000 0.058891
vt 1.000000 0.164088
vt 0.000000 0.058891
vt 1.000000 0.058892
vt 1.000000 0.163996
vt 0.000000 0.163996
vt 0.477358 0.008357
vt 0.522792 0.008357
vt 0.522792 0.349492
vt 0.729148 0.419142
vt 0.729149 0.339739
vt 0.774232 0.339739
vt 0.774232 0.419142
vt 0.536465 0.419202
vt 0.536465 0.339448
vt 0.966962 0.339448
vt 0.966799 0.419202
vt 0.966962 0.419142
vt 0.536465 0.419142
vt 0.536465 0.339448
vt 0.729148 0.419142
vt 0.729148 0.339739
vt 0.774230 0.339739
vt 0.774230 0.419142
vt 0.536465 0.419166
vt 0.536547 0.339448
vt 0.966962 0.419166
vt 0.729148 0.419142
vt 0.729148 0.339739
vt 0.774230 0.339740
vt 0.774230 0.419142
vt 0.536513 0.419191
vt 0.536513 0.339448
vt 0.966900 0.339448
vt 0.966900 0.419191
vt 0.774229 0.339739
vt 0.114333 0.490745
vt 0.154265 0.490745
vt 0.620025 0.490887
vt 1.000085 0.490887
vt 0.000085 0.490887
vt 0.379713 0.490887
vt -0.000149 0.791529
vt 0.000678 0.706673
vt 0.154265 0.490745
vt 0.000085 0.490887
vt 0.379812 0.490887
vt 0.999851 0.707294
vt 0.999635 0.792150
vt 0.620141 0.490887
s 0
usemtl M_WallWareHouse
f 1/1/1 10/2/1 7/3/1 9/4/1 8/5/1 6/6/1
f 23/7/2 17/8/2 20/9/2 21/10/2
f 4/11/2 1/12/2 6/13/2 2/14/2
f 26/7/3 13/8/3 18/9/3 28/10/3
f 11/15/4 12/16/4 3/6/4 5/17/4 4/18/4 2/19/4
f 24/20/1 16/21/1 17/22/1 23/23/1
f 10/24/3 5/25/3 3/26/3 7/27/3
f 28/20/1 18/28/1 19/29/1 27/23/1
f 27/30/5 19/31/5 14/32/5 25/33/5
f 21/22/4 20/34/4 15/20/4 22/35/4
f 11/36/6 8/37/6 9/38/6 12/39/6
f 4/40/7 5/41/7 10/42/7 1/43/7
f 25/44/4 14/45/4 13/20/4 26/46/4
f 18/47/6 13/48/6 14/49/6 19/50/6
f 15/51/6 20/52/6 17/53/6 16/54/6
f 22/7/8 15/55/8 16/56/8 24/57/8
f 29/58/9 22/59/9 24/60/9 32/61/9
f 30/62/4 21/63/4 22/64/4 29/65/4
f 32/64/1 24/66/1 23/67/1 31/68/1
f 31/69/2 23/70/2 21/71/2 30/72/2
f 35/73/4 25/74/4 26/64/4 33/75/4
f 36/76/10 27/77/10 25/78/10 35/79/10
f 34/80/1 28/81/1 27/82/1 36/83/1
f 33/69/3 26/70/3 28/84/3 34/72/3
f 6/13/2 31/85/2 30/86/2 2/14/2
f 8/5/1 32/87/1 31/88/1 6/6/1
f 2/19/4 30/89/4 29/90/4 11/15/4
f 11/36/11 29/91/11 32/92/11 8/37/11
f 3/26/3 33/85/3 34/93/3 7/27/3
f 7/3/1 34/94/1 36/95/1 9/4/1
f 9/38/12 36/96/12 35/97/12 12/39/12
f 12/16/4 35/98/4 33/88/4 3/6/4
