# Blender 5.2.0 LTS
# www.blender.org
mtllib WallBaseWindowWareHouse.mtl
o WallBaseWindowWareHouse
v 2.500911 0.100005 -2.500938
v -2.500911 0.100005 -2.500938
v 2.500911 1.170891 -3.339877
v -2.500911 1.170891 -3.339877
v 2.500911 3.030764 -3.339877
v -2.500911 3.030764 -3.339877
v 2.500911 4.101650 -2.500938
v -2.500911 4.101650 -2.500938
v 2.500911 -0.100005 -2.500938
v -2.500911 -0.100005 -2.500938
v -2.110819 0.100005 -2.500938
v -2.110819 1.170891 -3.339877
v -2.110819 3.030764 -3.339877
v -2.110819 4.101650 -2.500938
v -2.110819 -0.100005 -2.500938
v 2.110819 0.100005 -2.500938
v 2.110819 1.170891 -3.339877
v 2.110819 3.030764 -3.339877
v 2.110819 4.101650 -2.500938
v 2.110819 -0.100005 -2.500938
v 2.500911 3.582468 -2.907669
v -2.500911 3.582468 -2.907669
v -2.110819 3.582468 -2.907669
v 2.110819 3.582468 -2.907669
v 2.500911 0.645511 -2.928291
v -2.500911 0.645511 -2.928291
v -2.110819 0.645511 -2.928291
v 2.110819 0.645511 -2.928291
v -2.500911 1.399866 -3.339877
v -2.110819 1.399866 -3.339877
v -2.500911 1.751700 -3.339877
v -2.110819 1.751700 -3.339877
v 2.500911 1.399866 -3.339877
v 2.110819 1.399866 -3.339877
v 2.500911 1.751700 -3.339877
v 2.110819 1.751700 -3.339877
vn -0.0000 0.6167 0.7872
vn -0.0000 -0.0000 1.0000
vn -0.0000 -0.6167 0.7872
vt 0.064973 0.156493
vt 0.064973 0.267655
vt -0.000000 0.267655
vt -0.000000 0.156493
vt 0.064973 0.491921
vt 0.064973 0.704961
vt 0.000000 0.704961
vt 0.000000 0.491921
vt 0.064973 0.821693
vt 0.064973 0.931544
vt 0.000000 0.931544
vt 0.000000 0.821693
vt 0.064973 0.041072
vt -0.000000 0.041072
vt -0.000000 0.007758
vt 0.064973 0.007758
vt 0.935027 0.041072
vt 0.935027 0.007758
vt 0.935027 0.821693
vt 0.935027 0.931544
vt 1.000000 0.156493
vt 1.000000 0.267655
vt 0.935027 0.267655
vt 0.935027 0.156493
vt 1.000000 0.491921
vt 1.000000 0.704961
vt 0.935027 0.704961
vt 0.935027 0.491921
vt 1.000000 0.821693
vt 1.000000 0.931544
vt 1.000000 0.041072
vt 1.000000 0.007758
vt 0.064973 0.305793
vt 0.000000 0.305793
vt 0.077864 0.342824
vt 0.077864 0.412988
vt 0.000071 0.412988
vt 0.000071 0.342824
vt 1.000000 0.305793
vt 0.935027 0.305793
vt 0.000071 0.412988
vt 0.000071 0.342824
vt 0.077864 0.342824
vt 0.077864 0.412988
s 0
usemtl M_WallWareHouse
f 27/1/1 12/2/1 4/3/1 26/4/1
f 32/5/2 13/6/2 6/7/2 31/8/2
f 23/9/3 14/10/3 8/11/3 22/12/3
f 11/13/2 2/14/2 10/15/2 15/16/2
f 16/17/2 11/13/2 15/16/2 20/18/2
f 24/19/3 19/20/3 14/10/3 23/9/3
f 25/21/1 3/22/1 17/23/1 28/24/1
f 35/25/2 5/26/2 18/27/2 36/28/2
f 21/29/3 7/30/3 19/20/3 24/19/3
f 1/31/2 16/17/2 20/18/2 9/32/2
f 5/26/3 21/29/3 24/19/3 18/27/3
f 13/6/3 23/9/3 22/12/3 6/7/3
f 1/31/1 25/21/1 28/24/1 16/17/1
f 16/17/1 28/24/1 27/1/1 11/13/1
f 11/13/1 27/1/1 26/4/1 2/14/1
f 12/2/2 30/33/2 29/34/2 4/3/2
f 30/35/2 32/36/2 31/37/2 29/38/2
f 3/22/2 33/39/2 34/40/2 17/23/2
f 33/41/2 35/42/2 36/43/2 34/44/2
