# Blender 5.2.0 LTS
# www.blender.org
mtllib WallPlainMidWareHouse.mtl
o WallPlainMidWareHouse
v 3.001934 4.101650 -2.500938
v 3.001934 0.100005 -2.500938
v -3.001934 0.100005 -2.500938
v -3.001934 4.101650 -2.500938
v 3.001934 -0.100005 -2.500938
v -3.001934 -0.100005 -2.500938
vn -0.0000 -0.0000 1.0000
vt 0.155562 0.510810
vt 0.844438 0.510810
vt 0.844438 0.969954
vt 0.155562 0.969954
vt 0.844438 0.992903
vt 0.155562 0.992903
s 0
usemtl M_WallWareHouse
f 1/1/1 4/2/1 3/3/1 2/4/1
f 2/4/1 3/3/1 6/5/1 5/6/1
