# Blender 5.2.0 LTS
# www.blender.org
mtllib WallBaseWareHouse.mtl
o WallBaseWareHouse
v 3.001934 0.100005 -2.500938
v -3.001935 0.100005 -2.500938
v 3.001934 1.170891 -3.339877
v -3.001935 1.170891 -3.339877
v 3.001934 3.030764 -3.339877
v -3.001935 3.030764 -3.339877
v 3.001934 4.101650 -2.500938
v -3.001935 4.101650 -2.500938
v 3.001934 -0.100005 -2.500938
v -3.001935 -0.100005 -2.500938
v -1.853505 0.100005 -2.500938
v -1.853505 1.170891 -3.339877
v -1.853505 3.030764 -3.339877
v -1.853505 4.101650 -2.500938
v -1.853505 -0.100005 -2.500938
v 1.853503 0.100005 -2.500938
v 1.853503 1.170891 -3.339877
v 1.853503 3.030764 -3.339877
v 1.853503 4.101650 -2.500938
v 1.853503 -0.100005 -2.500938
v 3.001934 1.751700 -3.339877
v -3.001935 1.751700 -3.339877
v -1.853505 1.751700 -3.339877
v 1.853503 1.751700 -3.339877
v 3.001934 1.399866 -3.339877
v -1.853505 1.399866 -3.339877
v 1.853503 1.399866 -3.339877
v -3.001935 1.399866 -3.339877
vn -0.0000 -0.6167 0.7872
vn -0.0000 -0.0000 1.0000
vn -0.0000 0.6167 0.7872
vt 1.029953 0.717398
vt 1.029953 0.957554
vt 0.827213 0.957554
vt 0.827213 0.717398
vt 0.172787 0.491595
vt 0.172787 0.717398
vt -0.029953 0.717398
vt -0.029953 0.491595
vt 0.808718 0.264968
vt 1.000000 0.264968
vt 1.000000 0.298281
vt 0.808718 0.298281
vt 0.191282 0.264968
vt 0.191282 0.298281
vt 0.172787 0.957554
vt -0.029953 0.957554
vt 0.191282 0.038385
vt 0.808718 0.038385
vt 1.029953 0.491595
vt 0.827213 0.491595
vt -0.000000 0.264968
vt 0.000000 0.298281
vt 1.000000 0.038385
vt 0.000000 0.038385
vt 0.191282 0.342359
vt 0.808718 0.342359
vt 0.808718 0.400960
vt 0.191282 0.400960
vt 1.000000 0.342359
vt 1.000000 0.400960
vt 0.000000 0.400960
vt 0.000000 0.342359
vt 0.808718 0.000247
vt 1.000000 0.000247
vt 0.000000 0.000247
vt 0.191282 0.000247
s 0
usemtl M_WallWareHouse
f 5/1/1 7/2/1 19/3/1 18/4/1
f 23/5/2 13/6/2 6/7/2 22/8/2
f 11/9/2 2/10/2 10/11/2 15/12/2
f 16/13/2 11/9/2 15/12/2 20/14/2
f 13/6/1 14/15/1 8/16/1 6/7/1
f 16/13/3 17/17/3 12/18/3 11/9/3
f 21/19/2 5/1/2 18/4/2 24/20/2
f 13/6/1 18/4/1 19/3/1 14/15/1
f 1/21/2 16/13/2 20/14/2 9/22/2
f 11/9/3 12/18/3 4/23/3 2/10/3
f 23/5/2 24/20/2 18/4/2 13/6/2
f 1/21/3 3/24/3 17/17/3 16/13/3
f 26/25/2 27/26/2 24/27/2 23/28/2
f 25/29/2 21/30/2 24/27/2 27/26/2
f 26/25/2 23/28/2 22/31/2 28/32/2
f 12/18/2 26/33/2 28/34/2 4/23/2
f 3/24/2 25/35/2 27/36/2 17/17/2
f 12/18/2 17/17/2 27/36/2 26/33/2
