# Blender 5.2.0 LTS
# www.blender.org
mtllib WallMultiLevelMidWareHouse.mtl
o WallMultiLevelMidWareHouse
v 3.001934 0.100005 -2.500938
v -3.001934 0.100005 -2.500938
v 3.001934 1.170891 -3.339877
v -3.001934 1.170891 -3.339877
v 3.001934 7.230776 -3.339877
v -3.001934 7.230776 -3.339877
v 3.001934 8.301661 -2.500938
v -3.001934 8.301661 -2.500938
v 3.001934 -0.100005 -2.500938
v -3.001934 -0.100005 -2.500938
v 3.001934 4.200833 -3.339877
v -3.001934 4.200833 -3.339877
vn -0.0000 0.6167 0.7872
vn -0.0000 -0.0000 1.0000
vn -0.0000 -0.6167 0.7872
vt 1.000000 0.701683
vt 1.000000 0.928266
vt 0.000000 0.928265
vt 0.000000 0.701683
vt 0.022678 0.990888
vt 0.022678 0.509112
vt 0.977322 0.509112
vt 0.977322 0.990888
vt 0.000000 0.863291
vt 0.000000 0.636709
vt 1.000000 0.636709
vt 1.000000 0.863291
vt 0.000000 0.668369
vt 1.000000 0.668369
vt 0.020171 0.992153
vt 0.020171 0.507847
vt 0.979829 0.507847
vt 0.979829 0.992153
s 0
usemtl M_WallWareHouse
f 1/1/1 3/2/1 4/3/1 2/4/1
f 11/5/2 5/6/2 6/7/2 12/8/2
f 5/9/3 7/10/3 8/11/3 6/12/3
f 1/1/2 2/4/2 10/13/2 9/14/2
f 3/15/2 11/16/2 12/17/2 4/18/2
