# Blender 5.1.2
# www.blender.org
mtllib IndustrialLight1.mtl
o IndustrialLight1
v 0.000000 -0.082206 0.159731
v -0.056000 -0.066476 0.140871
v -0.000000 -0.082206 -0.159731
v -0.056000 -0.066476 -0.140871
v 0.000000 0.082206 0.159731
v -0.056000 0.066476 0.140871
v -0.000000 0.082206 -0.159731
v -0.056000 0.066476 -0.140871
v -0.000000 0.000000 -0.189984
v -0.056000 -0.000000 -0.164329
v 0.000000 -0.000000 0.189984
v -0.056000 0.000000 0.164329
v 0.000000 -0.114180 -0.125042
v -0.056000 0.085727 0.107263
v 0.000000 0.000000 0.130069
v -0.056000 -0.085727 0.107263
v -0.000001 -0.117659 -0.113087
v -0.056000 -0.085727 -0.107263
v -0.000001 0.117659 -0.113087
v 0.000000 0.114180 -0.125042
v -0.056000 0.085727 -0.107263
v -0.000000 -0.000000 -0.130069
v -0.000000 -0.044490 -0.186509
v -0.056000 -0.037568 0.161395
v -0.056000 -0.037568 -0.161395
v 0.000000 -0.044490 0.186509
v 0.000000 -0.050000 0.130069
v -0.000000 -0.050000 -0.130069
v -0.056000 0.037568 -0.161395
v 0.000000 0.044490 0.186509
v -0.000000 0.044490 -0.186509
v -0.056000 0.037568 0.161395
v 0.000000 0.050000 0.130069
v -0.000000 0.050000 -0.130069
v -0.000009 -0.112001 0.033035
v -0.000009 -0.112001 -0.033035
v -0.055984 -0.089887 0.037585
v -0.055984 -0.089887 -0.037585
v -0.000009 0.112001 0.033035
v -0.000009 0.112001 -0.033035
v -0.055988 0.112001 0.037586
v -0.055984 0.089887 -0.037585
v -0.000009 -0.000000 0.033035
v -0.000009 0.000000 -0.033035
v -0.000009 -0.050000 -0.033035
v -0.000009 -0.050000 0.033035
v -0.000009 0.050000 -0.033035
v -0.000009 0.050000 0.033035
v 0.000000 0.114180 0.125042
v -0.056000 -0.082206 -0.159731
v -0.056000 0.044490 -0.186508
v -0.056000 0.082206 -0.159731
v -0.000001 0.117659 0.113087
v -0.056000 0.082206 0.159731
v -0.056000 -0.044490 0.186509
v -0.056000 -0.082206 0.159731
v -0.056000 -0.044490 -0.186508
v -0.056000 -0.000000 -0.189984
v -0.056000 0.044490 0.186509
v -0.056000 0.000000 0.189984
v -0.000001 -0.117659 0.113087
v 0.000000 -0.114180 0.125042
v -0.055984 0.089887 0.037585
v -0.055988 0.112001 -0.037586
v -0.055988 -0.112001 0.037586
v -0.055988 -0.112001 -0.037586
v -0.120671 -0.000000 0.097961
v -0.099038 -0.000000 0.143145
v -0.120671 0.035902 0.084369
v -0.099038 0.058899 0.098435
v -0.120671 -0.035902 0.084369
v -0.099038 -0.000000 -0.143145
v -0.120671 -0.000000 -0.097961
v -0.120671 -0.035902 -0.084369
v -0.120671 0.035902 -0.084369
v -0.099038 0.058899 -0.098435
v -0.099038 -0.058899 0.098435
v -0.099038 -0.058899 -0.098435
v -0.099038 -0.039559 -0.135572
v -0.099038 -0.039559 0.135572
v -0.099038 0.039559 -0.135572
v -0.099038 0.039559 0.135572
v -0.120695 0.044661 -0.042846
v -0.120695 0.044661 0.042846
v -0.099019 0.066634 0.041084
v -0.099019 0.066634 -0.041084
v -0.120695 -0.044661 -0.042846
v -0.120695 -0.044661 0.042846
v -0.120697 -0.000000 0.042846
v -0.120697 -0.000000 -0.042846
v -0.099019 -0.066634 0.041084
v -0.099019 -0.066634 -0.041084
v -0.091827 -0.059679 -0.131661
v -0.091827 0.059679 -0.131661
v -0.091827 0.059679 0.131661
v -0.091827 -0.059679 0.131661
v -0.076798 -0.074747 -0.106310
v -0.076798 -0.074747 0.106310
v -0.076798 -0.080894 -0.039337
v -0.076798 -0.080894 0.039337
v -0.076798 -0.000000 0.158911
v -0.076798 0.039862 0.153481
v -0.076798 -0.065200 0.140853
v -0.076798 -0.039862 0.153481
v -0.076798 -0.000000 -0.158911
v -0.076798 0.080894 -0.039337
v -0.076798 0.074747 -0.106310
v -0.076798 0.065200 0.140853
v -0.076798 -0.039862 -0.153481
v -0.076798 -0.065200 -0.140853
v -0.076798 0.074747 0.106310
v -0.076798 0.080894 0.039337
v -0.076798 0.065200 -0.140853
v -0.076798 0.039862 -0.153481
v 0.000000 -0.050000 -0.000000
v 0.000000 -0.112001 -0.000000
v -0.056000 0.112001 0.000000
v -0.000000 0.050000 0.000000
v 0.000000 0.000000 0.000000
v -0.000000 0.112001 0.000000
v -0.056000 -0.112001 0.000000
v -0.056000 0.089887 0.000000
v -0.056000 -0.089887 0.000000
v -0.120671 0.044661 0.000000
v -0.120671 -0.044661 0.000000
v -0.120671 -0.000000 0.000000
v -0.099038 0.066634 0.000000
v -0.099038 -0.066634 0.000000
v -0.076798 0.080894 0.000000
v -0.076798 -0.080894 0.000000
v 0.000000 -0.104291 0.121176
v -0.000001 -0.107769 0.109220
v 0.000000 -0.101894 0.117111
v -0.000001 0.107769 0.109220
v 0.000000 0.104291 0.121176
v 0.000000 0.101894 0.117112
v -0.000000 0.104291 -0.121176
v -0.000001 0.107769 -0.109220
v -0.000000 0.101894 -0.117111
v -0.000001 -0.107769 -0.109220
v -0.000000 -0.104291 -0.121176
v -0.000000 -0.101894 -0.117112
v -0.056000 -0.104291 -0.121176
v -0.055999 -0.107790 -0.109222
v -0.056000 -0.102064 -0.113647
v -0.056000 0.104291 0.121176
v -0.055999 0.107790 0.109222
v -0.056000 0.102064 0.113647
v -0.055999 -0.107790 0.109222
v -0.056000 -0.104291 0.121176
v -0.056000 -0.102064 0.113647
v -0.055999 0.107790 -0.109222
v -0.056000 0.104291 -0.121176
v -0.056000 0.102064 -0.113647
v -0.056000 -0.114180 -0.125042
v -0.055999 -0.117679 -0.113088
v -0.056000 0.114180 0.125042
v -0.055999 0.117679 0.113088
v -0.055999 -0.117679 0.113088
v -0.056000 -0.114180 0.125042
v -0.055999 0.117679 -0.113088
v -0.056000 0.114180 -0.125042
vn -1.0000 -0.0000 0.0001
vn -0.0000 0.5789 -0.8154
vn -0.0000 -0.3641 0.9313
vn -0.0000 -0.5789 0.8154
vn 0.0002 0.9600 -0.2802
vn 1.0000 -0.0000 -0.0000
vn -0.0000 0.0779 0.9970
vn -0.0000 -0.0779 -0.9970
vn -0.5991 -0.1294 0.7902
vn -0.5670 -0.8187 0.0913
vn -0.5462 -0.8213 -0.1644
vn -0.0000 -0.5789 -0.8154
vn -0.5462 0.8213 -0.1644
vn -0.0000 -0.0779 0.9970
vn -0.5670 -0.8187 -0.0913
vn -0.0000 0.5789 0.8154
vn -0.5462 -0.8213 0.1644
vn -0.0000 0.0779 -0.9970
vn 1.0000 -0.0000 -0.0003
vn -0.5399 -0.8417 0.0001
vn -0.5991 0.1294 0.7902
vn -0.0000 1.0000 -0.0000
vn -0.0000 -1.0000 -0.0000
vn -0.5399 0.8417 -0.0001
vn -0.5991 -0.1294 -0.7902
vn -0.0000 -0.3641 -0.9313
vn 0.0001 0.3641 -0.9313
vn 1.0000 -0.0000 -0.0001
vn -0.0000 0.3641 0.9313
vn -0.5851 0.3576 0.7278
vn -0.5851 -0.3576 0.7278
vn 0.0002 0.9600 0.2802
vn 0.0002 -0.9600 0.2802
vn -0.5991 0.1294 -0.7902
vn -0.5670 0.8187 -0.0913
vn -0.5462 0.8213 0.1644
vn -0.5851 -0.3576 -0.7278
vn -0.5670 0.8187 0.0913
vn -0.5851 0.3576 -0.7278
vn 1.0000 -0.0000 0.0001
vn -1.0000 -0.0000 -0.0001
vn -1.0000 -0.0000 -0.0000
vn 0.0002 -0.9600 -0.2802
vn -1.0000 -0.0001 0.0004
vn -1.0000 0.0001 -0.0004
vn -0.0000 0.3641 -0.9313
vn 0.0001 0.3641 0.9313
vn -0.8301 -0.4946 0.2576
vn -0.9080 0.1131 0.4033
vn -0.8301 -0.4946 -0.2576
vn -0.9080 0.1131 -0.4033
vn -0.9080 -0.1131 -0.4033
vn -0.9080 -0.1131 0.4033
vn -0.8301 0.4946 -0.2576
vn -0.8301 0.4946 0.2576
vn -0.7123 0.7019 -0.0000
vn -1.0000 -0.0000 0.0006
vn -0.7123 -0.7019 -0.0000
vn -0.7309 -0.6732 0.1123
vn -0.7309 -0.6732 -0.1123
vn -0.7309 0.6732 -0.1123
vn -0.7309 0.6732 0.1123
vn -1.0000 -0.0001 -0.0005
vn -1.0000 -0.0001 0.0005
vn -1.0000 0.0001 0.0005
vn -1.0000 0.0001 -0.0005
vn -0.1483 0.5157 -0.8438
vn -0.4306 0.9000 0.0678
vn -0.1483 -0.5157 -0.8438
vn -0.2701 0.8869 0.3748
vn -0.4306 0.9000 -0.0678
vn -0.2985 0.1025 -0.9489
vn -0.1483 -0.5157 0.8438
vn -0.1483 0.5157 0.8438
vn -0.2985 -0.1025 -0.9489
vn -0.3967 0.9179 -0.0001
vn -0.2985 0.1025 0.9489
vn -0.3967 -0.9179 0.0001
vn -0.2701 -0.8869 0.3748
vn -0.4306 -0.9000 -0.0678
vn -0.2701 0.8869 -0.3748
vn -0.2701 -0.8869 -0.3748
vn -0.4306 -0.9000 0.0678
vn -0.2985 -0.1025 0.9489
vn -0.3967 -0.9179 -0.0001
vn -0.3967 0.9179 0.0001
vn -1.0000 -0.0000 -0.0006
vn -1.0000 0.0001 0.0004
vn -1.0000 -0.0001 -0.0004
vn 1.0000 -0.0000 0.0003
vn -0.5399 0.8417 0.0001
vn -0.5399 -0.8417 -0.0001
vn 1.0000 -0.0001 -0.0000
vn 1.0000 0.0001 -0.0000
vn -1.0000 -0.0001 -0.0000
vn -1.0000 0.0001 -0.0000
vn 0.0001 -0.3641 -0.9313
vn 0.0001 -0.3641 0.9313
vn -0.0000 -0.8677 0.4970
vn 0.0025 -0.9984 0.0570
vn -0.0000 0.8677 0.4970
vn 0.0025 0.9984 0.0570
vn -0.0000 0.8677 -0.4970
vn 0.0025 0.9984 -0.0570
vn -0.0000 -0.8677 -0.4970
vn 0.0025 -0.9984 -0.0570
vn -1.0000 0.0001 0.0002
vn -1.0000 -0.0001 -0.0002
vn -1.0000 0.0001 -0.0002
vn -1.0000 -0.0001 0.0002
vt 0.875000 0.565204
vt 0.874240 0.558807
vt 0.375000 0.437500
vt 0.625000 0.437500
vt 0.625000 0.500000
vt 0.375000 0.500000
vt 0.625000 0.695229
vt 0.375000 0.693861
vt 0.375000 0.937500
vt 0.625000 0.937500
vt 0.625000 1.000000
vt 0.375000 1.000000
vt 0.625000 0.565204
vt 0.375001 0.566092
vt 0.375000 0.554771
vt 0.624999 0.556126
vt 0.187500 0.687500
vt 0.250000 0.687500
vt 0.250000 0.750000
vt 0.187500 0.750000
vt 0.375000 0.812500
vt 0.625000 0.812500
vt 0.625000 0.875000
vt 0.375000 0.875000
vt 0.375000 0.312500
vt 0.625000 0.312500
vt 0.625000 0.375000
vt 0.375000 0.375000
vt 0.800061 0.721809
vt 0.750000 0.723239
vt 0.852681 0.653550
vt 0.850994 0.682079
vt 0.850994 0.682079
vt 0.852681 0.653550
vt 0.187500 0.500000
vt 0.250000 0.500000
vt 0.250000 0.562500
vt 0.187500 0.562500
vt 0.837033 0.541372
vt 0.850994 0.567921
vt 0.837033 0.541372
vt 0.375000 0.250000
vt 0.625000 0.250000
vt 0.649006 0.567921
vt 0.662967 0.541372
vt 0.662967 0.541372
vt 0.852681 0.596450
vt 0.852681 0.596450
vt 0.312500 0.500000
vt 0.312500 0.562500
vt 0.375000 0.750000
vt 0.625000 0.750000
vt 0.837033 0.708628
vt 0.837033 0.708628
vt 0.312500 0.687500
vt 0.312500 0.750000
vt 0.187500 0.625000
vt 0.125000 0.625000
vt 0.125000 0.594940
vt 0.187500 0.598241
vt 0.852681 0.625000
vt 0.702099 0.716037
vt 0.702099 0.716037
vt 0.312500 0.625000
vt 0.250000 0.625000
vt 0.250000 0.598237
vt 0.312500 0.598241
vt 0.625000 0.625000
vt 0.375000 0.625000
vt 0.375000 0.594940
vt 0.625000 0.594940
vt 0.625000 0.125000
vt 0.375000 0.125000
vt 0.375000 0.094940
vt 0.625000 0.094940
vt 0.647319 0.625000
vt 0.647319 0.596449
vt 0.647319 0.596450
vt 0.647319 0.625000
vt 0.750000 0.526761
vt 0.797901 0.533963
vt 0.797901 0.533963
vt 0.375000 0.684945
vt 0.624999 0.683793
vt 0.375000 0.054771
vt 0.625000 0.054771
vt 0.662967 0.708628
vt 0.662967 0.708628
vt 0.625000 0.065204
vt 0.375000 0.065055
vt 0.699939 0.528191
vt 0.699939 0.528191
vt 0.649006 0.682079
vt 0.649006 0.682079
vt 0.647319 0.653550
vt 0.647319 0.653550
vt 0.250000 0.651763
vt 0.312500 0.651759
vt 0.187500 0.651759
vt 0.874240 0.691193
vt 0.875000 0.684796
vt 0.687500 0.500000
vt 0.625000 0.195229
vt 0.375000 0.195229
vt 0.375000 0.184945
vt 0.625000 0.184796
vt 0.875000 0.750000
vt 0.812500 0.750000
vt 0.750000 0.500000
vt 0.812500 0.500000
vt 0.750000 0.750000
vt 0.687500 0.750000
vt 0.875000 0.500000
vt 0.625000 0.655060
vt 0.852681 0.625000
vt 0.875000 0.594940
vt 0.875000 0.625000
vt 0.125000 0.686222
vt 0.125000 0.695229
vt 0.812500 0.687500
vt 0.687500 0.687500
vt 0.750000 0.687500
vt 0.812500 0.562500
vt 0.750000 0.562500
vt 0.687500 0.562500
vt 0.687500 0.625000
vt 0.687500 0.598241
vt 0.812500 0.625000
vt 0.750000 0.625000
vt 0.750000 0.598237
vt 0.812500 0.598241
vt 0.812500 0.651759
vt 0.687500 0.651759
vt 0.750000 0.651763
vt 0.875000 0.655060
vt 0.375000 0.655060
vt 0.625000 0.155060
vt 0.375000 0.155060
vt 0.125000 0.655060
vt 0.131002 0.687500
vt 0.368998 0.687500
vt 0.368998 0.562500
vt 0.125000 0.563778
vt 0.125000 0.554771
vt 0.131002 0.562500
vt 0.869083 0.563836
vt 0.630917 0.686164
vt 0.869083 0.686164
vt 0.630917 0.563836
vt 0.125000 0.750000
vt 0.375000 0.000000
vt 0.625000 0.000000
vt 0.125000 0.500000
s 0
f 144/1/1 143/2/1 155/2/1 156/1/1
f 31/3/2 51/4/2 52/5/2 7/6/2
f 146/7/3 135/8/3 49/8/3 157/7/3
f 26/9/4 55/10/4 56/11/4 1/12/4
f 161/13/5 19/14/5 20/15/5 162/16/5
f 27/17/6 15/18/6 11/19/6 26/20/6
f 30/21/7 59/22/7 60/23/7 11/24/7
f 23/25/8 57/26/8 58/27/8 9/28/8
f 104/29/9 101/30/9 68/30/9 80/29/9
f 100/31/10 98/32/10 77/33/10 91/34/10
f 23/35/6 9/36/6 22/37/6 28/38/6
f 110/39/11 97/40/11 78/40/11 93/41/11
f 3/42/12 50/43/12 57/26/12 23/25/12
f 153/16/1 152/13/1 161/13/1 162/16/1
f 107/44/13 113/45/13 94/46/13 76/44/13
f 11/24/14 60/23/14 55/10/14 26/9/14
f 97/40/15 99/47/15 92/48/15 78/40/15
f 9/36/6 31/49/6 34/50/6 22/37/6
f 5/51/16 54/52/16 59/22/16 30/21/16
f 98/32/17 103/53/17 96/54/17 77/33/17
f 15/18/6 33/55/6 30/56/6 11/19/6
f 9/28/18 58/27/18 51/4/18 31/3/18
f 115/57/19 116/58/19 36/59/19 45/60/19
f 130/61/20 100/31/20 91/34/20 128/61/20
f 101/30/21 102/62/21 82/63/21 68/30/21
f 118/64/19 119/65/19 44/66/19 47/67/19
f 117/68/22 120/69/22 40/70/22 64/71/22
f 121/72/23 116/73/23 35/74/23 65/75/23
f 119/65/19 115/57/19 45/60/19 44/66/19
f 129/76/24 106/77/24 86/78/24 127/79/24
f 105/80/25 109/81/25 79/82/25 72/80/25
f 120/69/19 118/64/19 47/67/19 40/70/19
f 137/15/26 153/16/26 162/16/26 20/15/26
f 134/83/27 147/84/27 158/84/27 53/83/27
f 135/8/28 134/83/28 53/83/28 49/8/28
f 131/85/29 150/86/29 160/86/29 62/85/29
f 102/62/30 108/87/30 95/88/30 82/63/30
f 103/53/31 104/29/31 80/29/31 96/54/31
f 157/7/32 49/8/32 53/83/32 158/84/32
f 159/89/33 61/90/33 62/85/33 160/86/33
f 114/91/34 105/80/34 72/80/34 81/92/34
f 106/77/35 107/44/35 76/44/35 86/78/35
f 108/87/36 111/93/36 70/94/36 95/88/36
f 109/81/37 110/39/37 93/41/37 79/82/37
f 111/93/38 112/95/38 85/96/38 70/94/38
f 113/45/39 114/91/39 81/92/39 94/46/39
f 22/37/40 34/50/40 47/67/40 44/66/40
f 43/97/28 48/98/28 33/55/28 15/18/28
f 46/99/28 43/97/28 15/18/28 27/17/28
f 28/38/40 22/37/40 44/66/40 45/60/40
f 150/100/41 149/101/41 159/101/41 160/100/41
f 29/92/42 8/46/42 52/5/42 51/102/42
f 155/103/43 13/104/43 17/105/43 156/106/43
f 24/29/42 2/54/42 56/107/42 55/108/42
f 25/82/42 10/80/42 58/109/42 57/110/42
f 32/63/42 12/30/42 60/111/42 59/112/42
f 12/30/42 24/29/42 55/108/42 60/111/42
f 4/41/42 25/82/42 57/110/42 50/113/42
f 10/80/42 29/92/42 51/102/42 58/109/42
f 6/88/42 32/63/42 59/112/42 54/52/42
f 122/79/44 63/96/44 41/114/44 117/68/44
f 123/115/45 38/48/45 66/116/45 121/117/45
f 132/118/28 131/119/28 62/119/28 61/118/28
f 143/103/46 141/104/46 13/104/46 155/103/46
f 138/14/40 137/15/40 20/15/40 19/14/40
f 152/13/47 138/14/47 19/14/47 161/13/47
f 71/120/48 77/33/48 96/54/48 80/29/48
f 69/121/49 67/122/49 68/30/49 82/63/49
f 79/82/50 93/41/50 78/40/50 74/123/50
f 81/92/51 72/80/51 73/124/51 75/125/51
f 72/80/52 79/82/52 74/123/52 73/124/52
f 67/122/53 71/120/53 80/29/53 68/30/53
f 94/46/54 81/92/54 75/125/54 76/44/54
f 70/94/55 69/121/55 82/63/55 95/88/55
f 124/126/56 127/79/56 86/78/56 83/127/56
f 125/128/57 126/129/57 90/130/57 87/131/57
f 128/61/58 125/128/58 87/131/58 92/48/58
f 126/129/57 124/126/57 83/127/57 90/130/57
f 88/132/59 91/34/59 77/33/59 71/120/59
f 74/123/60 78/40/60 92/48/60 87/131/60
f 76/44/61 75/125/61 83/127/61 86/78/61
f 85/96/62 84/133/62 69/121/62 70/94/62
f 73/124/63 74/123/63 87/131/63 90/130/63
f 89/134/64 88/132/64 71/120/64 67/122/64
f 84/133/65 89/134/65 67/122/65 69/121/65
f 75/125/66 73/124/66 90/130/66 83/127/66
f 8/46/67 29/92/67 114/91/67 113/45/67
f 14/94/68 63/96/68 112/95/68 111/93/68
f 25/82/69 4/41/69 110/39/69 109/81/69
f 6/88/70 14/94/70 111/93/70 108/87/70
f 42/78/71 21/44/71 107/44/71 106/77/71
f 29/92/72 10/80/72 105/80/72 114/91/72
f 2/54/73 24/29/73 104/29/73 103/53/73
f 32/63/74 6/88/74 108/87/74 102/62/74
f 10/80/75 25/82/75 109/81/75 105/80/75
f 122/79/76 42/78/76 106/77/76 129/76/76
f 12/30/77 32/63/77 102/62/77 101/30/77
f 123/115/78 37/34/78 100/31/78 130/61/78
f 16/33/79 2/54/79 103/53/79 98/32/79
f 18/40/80 38/48/80 99/47/80 97/40/80
f 21/44/81 8/46/81 113/45/81 107/44/81
f 4/41/82 18/40/82 97/40/82 110/39/82
f 37/34/83 16/33/83 98/32/83 100/31/83
f 24/29/84 12/30/84 101/30/84 104/29/84
f 38/48/85 123/115/85 130/61/85 99/47/85
f 63/96/86 122/79/86 129/76/86 112/95/86
f 89/134/87 84/133/87 124/126/87 126/129/87
f 91/34/58 88/132/58 125/128/58 128/61/58
f 88/132/87 89/134/87 126/129/87 125/128/87
f 84/133/56 85/96/56 127/79/56 124/126/56
f 37/34/88 123/115/88 121/117/88 65/135/88
f 42/78/89 122/79/89 117/68/89 64/71/89
f 39/136/90 48/98/90 118/64/90 120/69/90
f 112/95/91 129/76/91 127/79/91 85/96/91
f 43/97/90 46/99/90 115/57/90 119/65/90
f 66/137/23 36/138/23 116/73/23 121/72/23
f 41/114/22 39/136/22 120/69/22 117/68/22
f 48/98/90 43/97/90 119/65/90 118/64/90
f 99/47/92 130/61/92 128/61/92 92/48/92
f 46/99/90 35/139/90 116/58/90 115/57/90
f 131/119/93 132/118/93 133/140/93
f 134/83/94 135/8/94 136/141/94
f 137/15/94 138/14/94 139/142/94
f 140/143/93 141/144/93 142/145/93
f 143/2/95 144/1/95 145/146/95
f 146/7/96 147/84/96 148/147/96
f 149/101/95 150/100/95 151/148/95
f 152/13/96 153/16/96 154/149/96
f 141/144/40 140/143/40 17/143/40 13/144/40
f 149/89/97 132/90/97 61/90/97 159/89/97
f 140/105/98 144/106/98 156/106/98 17/105/98
f 147/84/41 146/7/41 157/7/41 158/84/41
f 131/119/6 133/140/6 27/17/6 26/20/6 1/150/6
f 35/139/28 46/99/28 27/17/28 133/140/28 132/118/28
f 1/151/99 56/152/99 150/86/99 131/85/99
f 132/90/100 149/89/100 65/75/100 35/74/100
f 33/55/6 136/141/6 135/8/6 5/51/6 30/56/6
f 135/8/101 146/7/101 54/52/101 5/51/101
f 48/98/28 39/136/28 134/83/28 136/141/28 33/55/28
f 39/136/102 41/114/102 147/84/102 134/83/102
f 31/49/6 7/6/6 137/15/6 139/142/6 34/50/6
f 34/50/40 139/142/40 138/14/40 40/70/40 47/67/40
f 7/6/103 52/5/103 153/16/103 137/15/103
f 138/14/104 152/13/104 64/71/104 40/70/104
f 3/153/6 23/35/6 28/38/6 142/145/6 141/144/6
f 140/143/40 142/145/40 28/38/40 45/60/40 36/59/40
f 141/104/105 143/103/105 50/43/105 3/42/105
f 36/138/106 66/137/106 144/106/106 140/105/106
f 18/40/42 4/41/42 50/113/42 143/2/42 145/146/42
f 38/48/107 18/40/107 145/146/107 144/1/107 66/116/107
f 14/94/42 6/88/42 54/52/42 146/7/42 148/147/42
f 63/96/108 14/94/108 148/147/108 147/84/108 41/114/108
f 2/54/42 16/33/42 151/148/42 150/100/42 56/107/42
f 16/33/109 37/34/109 65/135/109 149/101/109 151/148/109
f 8/46/42 21/44/42 154/149/42 153/16/42 52/5/42
f 21/44/110 42/78/110 64/71/110 152/13/110 154/149/110
